{
    "header": {
        "PPQ": 480,
        "timeSignature": [
            6,
            8
        ],
        "bpm": 155.7300886104204,
        "name": "Klaviersonate Nr. 12 KV 332 No. 3"
    },
    "startTime": 0,
    "duration": 565.9792579999935,
    "tracks": [
        {
            "startTime": 0,
            "duration": 0,
            "length": 0,
            "notes": [],
            "controlChanges": {},
            "id": 0,
            "name": "Klaviersonate Nr. 12 KV 332 No. 3"
        },
        {
            "startTime": 0.0963205,
            "duration": 565.9792579999935,
            "length": 3584,
            "notes": [
                {
                    "name": "C6",
                    "midi": 84,
                    "time": 0.0963205,
                    "velocity": 0.5196850393700787,
                    "duration": 0.10595255
                },
                {
                    "name": "B5",
                    "midi": 83,
                    "time": 0.192641,
                    "velocity": 0.5354330708661418,
                    "duration": 0.10595254999999998
                },
                {
                    "name": "C6",
                    "midi": 84,
                    "time": 0.2889615,
                    "velocity": 0.5433070866141733,
                    "duration": 0.10595255000000003
                },
                {
                    "name": "F6",
                    "midi": 89,
                    "time": 0.385282,
                    "velocity": 0.5511811023622047,
                    "duration": 0.10595255000000003
                },
                {
                    "name": "C6",
                    "midi": 84,
                    "time": 0.48160250000000004,
                    "velocity": 0.49606299212598426,
                    "duration": 0.10595255000000003
                },
                {
                    "name": "A#5",
                    "midi": 82,
                    "time": 0.5779230000000001,
                    "velocity": 0.5511811023622047,
                    "duration": 0.10595255000000003
                },
                {
                    "name": "A5",
                    "midi": 81,
                    "time": 0.6742435000000001,
                    "velocity": 0.5196850393700787,
                    "duration": 0.10595255000000003
                },
                {
                    "name": "G#5",
                    "midi": 80,
                    "time": 0.7705640000000001,
                    "velocity": 0.5039370078740157,
                    "duration": 0.10595255000000003
                },
                {
                    "name": "A5",
                    "midi": 81,
                    "time": 0.8668845000000002,
                    "velocity": 0.5039370078740157,
                    "duration": 0.10595255000000003
                },
                {
                    "name": "C6",
                    "midi": 84,
                    "time": 0.9632050000000002,
                    "velocity": 0.5511811023622047,
                    "duration": 0.10595254999999992
                },
                {
                    "name": "A5",
                    "midi": 81,
                    "time": 1.0595255000000001,
                    "velocity": 0.5039370078740157,
                    "duration": 0.10595255000000003
                },
                {
                    "name": "G5",
                    "midi": 79,
                    "time": 1.1558460000000002,
                    "velocity": 0.5511811023622047,
                    "duration": 0.10595255000000003
                },
                {
                    "name": "F5",
                    "midi": 77,
                    "time": 1.2521665000000002,
                    "velocity": 0.5039370078740157,
                    "duration": 0.10595255000000003
                },
                {
                    "name": "E5",
                    "midi": 76,
                    "time": 1.3484870000000002,
                    "velocity": 0.5039370078740157,
                    "duration": 0.10595255000000003
                },
                {
                    "name": "F5",
                    "midi": 77,
                    "time": 1.4448075000000002,
                    "velocity": 0.5039370078740157,
                    "duration": 0.10595255000000003
                },
                {
                    "name": "A5",
                    "midi": 81,
                    "time": 1.5411280000000003,
                    "velocity": 0.5511811023622047,
                    "duration": 0.10595255000000003
                },
                {
                    "name": "F5",
                    "midi": 77,
                    "time": 1.6374485000000003,
                    "velocity": 0.5118110236220472,
                    "duration": 0.10595255000000003
                },
                {
                    "name": "D5",
                    "midi": 74,
                    "time": 1.7337690000000003,
                    "velocity": 0.5511811023622047,
                    "duration": 0.10595255000000003
                },
                {
                    "name": "C5",
                    "midi": 72,
                    "time": 1.8300895000000004,
                    "velocity": 0.5118110236220472,
                    "duration": 0.10595255000000003
                },
                {
                    "name": "B4",
                    "midi": 71,
                    "time": 1.9264100000000004,
                    "velocity": 0.5118110236220472,
                    "duration": 0.10595254999999981
                },
                {
                    "name": "C5",
                    "midi": 72,
                    "time": 2.0227305,
                    "velocity": 0.5118110236220472,
                    "duration": 0.10595255000000003
                },
                {
                    "name": "F5",
                    "midi": 77,
                    "time": 2.1190510000000002,
                    "velocity": 0.5511811023622047,
                    "duration": 0.10595255000000003
                },
                {
                    "name": "C5",
                    "midi": 72,
                    "time": 2.2153715000000003,
                    "velocity": 0.5118110236220472,
                    "duration": 0.10595255000000003
                },
                {
                    "name": "A#4",
                    "midi": 70,
                    "time": 2.3116920000000003,
                    "velocity": 0.5511811023622047,
                    "duration": 0.10595255000000003
                },
                {
                    "name": "A4",
                    "midi": 69,
                    "time": 2.4080125000000003,
                    "velocity": 0.5196850393700787,
                    "duration": 0.10595255000000003
                },
                {
                    "name": "G#4",
                    "midi": 68,
                    "time": 2.5043330000000004,
                    "velocity": 0.5196850393700787,
                    "duration": 0.10595255000000003
                },
                {
                    "name": "A4",
                    "midi": 69,
                    "time": 2.6006535000000004,
                    "velocity": 0.5196850393700787,
                    "duration": 0.10595255000000003
                },
                {
                    "name": "C5",
                    "midi": 72,
                    "time": 2.6969740000000004,
                    "velocity": 0.5511811023622047,
                    "duration": 0.10595255000000003
                },
                {
                    "name": "A4",
                    "midi": 69,
                    "time": 2.7932945000000005,
                    "velocity": 0.5039370078740157,
                    "duration": 0.10595255000000003
                },
                {
                    "name": "F4",
                    "midi": 65,
                    "time": 2.8896150000000005,
                    "velocity": 0.5511811023622047,
                    "duration": 0.09632050000000003
                },
                {
                    "name": "F5",
                    "midi": 77,
                    "time": 2.9859355000000005,
                    "velocity": 0.5039370078740157,
                    "duration": 0.09632050000000003
                },
                {
                    "name": "E4",
                    "midi": 64,
                    "time": 3.0822560000000006,
                    "velocity": 0.5511811023622047,
                    "duration": 0.09632050000000003
                },
                {
                    "name": "F5",
                    "midi": 77,
                    "time": 3.1785765000000006,
                    "velocity": 0.5039370078740157,
                    "duration": 0.09632050000000003
                },
                {
                    "name": "F4",
                    "midi": 65,
                    "time": 3.2748970000000006,
                    "velocity": 0.5511811023622047,
                    "duration": 0.09632050000000003
                },
                {
                    "name": "F5",
                    "midi": 77,
                    "time": 3.3712175000000006,
                    "velocity": 0.5039370078740157,
                    "duration": 0.09632050000000003
                },
                {
                    "name": "G4",
                    "midi": 67,
                    "time": 3.4675380000000007,
                    "velocity": 0.5511811023622047,
                    "duration": 0.09632050000000003
                },
                {
                    "name": "F5",
                    "midi": 77,
                    "time": 3.5638585000000007,
                    "velocity": 0.5039370078740157,
                    "duration": 0.09632050000000003
                },
                {
                    "name": "F4",
                    "midi": 65,
                    "time": 3.6601790000000007,
                    "velocity": 0.5118110236220472,
                    "duration": 0.09632050000000003
                },
                {
                    "name": "F5",
                    "midi": 77,
                    "time": 3.7564995000000008,
                    "velocity": 0.4566929133858268,
                    "duration": 0.09632050000000003
                },
                {
                    "name": "G4",
                    "midi": 67,
                    "time": 3.852820000000001,
                    "velocity": 0.5275590551181102,
                    "duration": 0.09632050000000003
                },
                {
                    "name": "F5",
                    "midi": 77,
                    "time": 3.949140500000001,
                    "velocity": 0.48031496062992124,
                    "duration": 0.09632049999999959
                },
                {
                    "name": "A4",
                    "midi": 69,
                    "time": 4.045461,
                    "velocity": 0.5511811023622047,
                    "duration": 0.09632050000000003
                },
                {
                    "name": "F5",
                    "midi": 77,
                    "time": 4.1417815000000004,
                    "velocity": 0.47244094488188976,
                    "duration": 0.09632050000000003
                },
                {
                    "name": "G4",
                    "midi": 67,
                    "time": 4.2381020000000005,
                    "velocity": 0.5196850393700787,
                    "duration": 0.09632050000000003
                },
                {
                    "name": "F5",
                    "midi": 77,
                    "time": 4.3344225000000005,
                    "velocity": 0.4881889763779528,
                    "duration": 0.09632050000000003
                },
                {
                    "name": "A4",
                    "midi": 69,
                    "time": 4.4307430000000005,
                    "velocity": 0.5275590551181102,
                    "duration": 0.09632050000000003
                },
                {
                    "name": "F5",
                    "midi": 77,
                    "time": 4.527063500000001,
                    "velocity": 0.4881889763779528,
                    "duration": 0.09632050000000003
                },
                {
                    "name": "A#4",
                    "midi": 70,
                    "time": 4.623384000000001,
                    "velocity": 0.5826771653543307,
                    "duration": 0.09632050000000003
                },
                {
                    "name": "F5",
                    "midi": 77,
                    "time": 4.719704500000001,
                    "velocity": 0.48031496062992124,
                    "duration": 0.09632050000000003
                },
                {
                    "name": "A#4",
                    "midi": 70,
                    "time": 4.816025000000001,
                    "velocity": 0.5118110236220472,
                    "duration": 0.09632050000000003
                },
                {
                    "name": "F5",
                    "midi": 77,
                    "time": 4.912345500000001,
                    "velocity": 0.48031496062992124,
                    "duration": 0.09632050000000003
                },
                {
                    "name": "A4",
                    "midi": 69,
                    "time": 5.008666000000001,
                    "velocity": 0.5118110236220472,
                    "duration": 0.09632050000000003
                },
                {
                    "name": "F5",
                    "midi": 77,
                    "time": 5.104986500000001,
                    "velocity": 0.47244094488188976,
                    "duration": 0.09632050000000003
                },
                {
                    "name": "A#4",
                    "midi": 70,
                    "time": 5.201307000000001,
                    "velocity": 0.5511811023622047,
                    "duration": 0.09632050000000003
                },
                {
                    "name": "F5",
                    "midi": 77,
                    "time": 5.297627500000001,
                    "velocity": 0.47244094488188976,
                    "duration": 0.09632050000000003
                },
                {
                    "name": "A#4",
                    "midi": 70,
                    "time": 5.393948000000001,
                    "velocity": 0.5118110236220472,
                    "duration": 0.09632050000000003
                },
                {
                    "name": "F5",
                    "midi": 77,
                    "time": 5.490268500000001,
                    "velocity": 0.47244094488188976,
                    "duration": 0.09632050000000003
                },
                {
                    "name": "A4",
                    "midi": 69,
                    "time": 5.586589000000001,
                    "velocity": 0.5118110236220472,
                    "duration": 0.09632050000000003
                },
                {
                    "name": "F5",
                    "midi": 77,
                    "time": 5.682909500000001,
                    "velocity": 0.4251968503937008,
                    "duration": 0.09632050000000003
                },
                {
                    "name": "G#4",
                    "midi": 68,
                    "time": 5.779230000000001,
                    "velocity": 0.3858267716535433,
                    "duration": 0.09632050000000003
                },
                {
                    "name": "F5",
                    "midi": 77,
                    "time": 5.875550500000001,
                    "velocity": 0.3228346456692913,
                    "duration": 0.09632050000000003
                },
                {
                    "name": "G#4",
                    "midi": 68,
                    "time": 5.971871000000001,
                    "velocity": 0.3858267716535433,
                    "duration": 0.09632050000000003
                },
                {
                    "name": "F5",
                    "midi": 77,
                    "time": 6.068191500000001,
                    "velocity": 0.33070866141732286,
                    "duration": 0.09632050000000003
                },
                {
                    "name": "G#4",
                    "midi": 68,
                    "time": 6.164512000000001,
                    "velocity": 0.3858267716535433,
                    "duration": 0.09632050000000003
                },
                {
                    "name": "F5",
                    "midi": 77,
                    "time": 6.260832500000001,
                    "velocity": 0.31496062992125984,
                    "duration": 0.09632050000000003
                },
                {
                    "name": "G4",
                    "midi": 67,
                    "time": 6.357153000000001,
                    "velocity": 0.3779527559055118,
                    "duration": 0.19264100000000006
                },
                {
                    "name": "E5",
                    "midi": 76,
                    "time": 6.357153000000001,
                    "velocity": 0.3779527559055118,
                    "duration": 0.19264100000000006
                },
                {
                    "name": "C6",
                    "midi": 84,
                    "time": 7.031396500000001,
                    "velocity": 0.5196850393700787,
                    "duration": 0.10595254999999959
                },
                {
                    "name": "B5",
                    "midi": 83,
                    "time": 7.127717000000001,
                    "velocity": 0.5354330708661418,
                    "duration": 0.1059525499999987
                },
                {
                    "name": "C6",
                    "midi": 84,
                    "time": 7.2240375000000006,
                    "velocity": 0.5433070866141733,
                    "duration": 0.1059525499999987
                },
                {
                    "name": "F6",
                    "midi": 89,
                    "time": 7.320358,
                    "velocity": 0.5511811023622047,
                    "duration": 0.1059525499999987
                },
                {
                    "name": "C6",
                    "midi": 84,
                    "time": 7.416678499999999,
                    "velocity": 0.49606299212598426,
                    "duration": 0.1059525499999987
                },
                {
                    "name": "A#5",
                    "midi": 82,
                    "time": 7.512998999999998,
                    "velocity": 0.5511811023622047,
                    "duration": 0.1059525499999987
                },
                {
                    "name": "A5",
                    "midi": 81,
                    "time": 7.609319499999997,
                    "velocity": 0.5196850393700787,
                    "duration": 0.1059525499999987
                },
                {
                    "name": "G#5",
                    "midi": 80,
                    "time": 7.705639999999996,
                    "velocity": 0.5039370078740157,
                    "duration": 0.1059525499999987
                },
                {
                    "name": "A5",
                    "midi": 81,
                    "time": 7.801960499999995,
                    "velocity": 0.5039370078740157,
                    "duration": 0.1059525499999987
                },
                {
                    "name": "C6",
                    "midi": 84,
                    "time": 7.898280999999995,
                    "velocity": 0.5511811023622047,
                    "duration": 0.1059525499999987
                },
                {
                    "name": "A5",
                    "midi": 81,
                    "time": 7.994601499999994,
                    "velocity": 0.5039370078740157,
                    "duration": 0.10595255000000048
                },
                {
                    "name": "G5",
                    "midi": 79,
                    "time": 8.090921999999994,
                    "velocity": 0.5511811023622047,
                    "duration": 0.10595255000000137
                },
                {
                    "name": "F5",
                    "midi": 77,
                    "time": 8.187242499999995,
                    "velocity": 0.5039370078740157,
                    "duration": 0.10595255000000137
                },
                {
                    "name": "E5",
                    "midi": 76,
                    "time": 8.283562999999996,
                    "velocity": 0.5039370078740157,
                    "duration": 0.10595255000000137
                },
                {
                    "name": "F5",
                    "midi": 77,
                    "time": 8.379883499999996,
                    "velocity": 0.5039370078740157,
                    "duration": 0.10595255000000137
                },
                {
                    "name": "A5",
                    "midi": 81,
                    "time": 8.476203999999997,
                    "velocity": 0.5511811023622047,
                    "duration": 0.10595255000000137
                },
                {
                    "name": "F5",
                    "midi": 77,
                    "time": 8.572524499999998,
                    "velocity": 0.5118110236220472,
                    "duration": 0.10595255000000137
                },
                {
                    "name": "D5",
                    "midi": 74,
                    "time": 8.668845,
                    "velocity": 0.5511811023622047,
                    "duration": 0.10595255000000137
                },
                {
                    "name": "C5",
                    "midi": 72,
                    "time": 8.7651655,
                    "velocity": 0.5118110236220472,
                    "duration": 0.10595255000000137
                },
                {
                    "name": "B4",
                    "midi": 71,
                    "time": 8.861486000000001,
                    "velocity": 0.5118110236220472,
                    "duration": 0.10595255000000137
                },
                {
                    "name": "C5",
                    "midi": 72,
                    "time": 8.957806500000002,
                    "velocity": 0.5118110236220472,
                    "duration": 0.10595255000000137
                },
                {
                    "name": "F5",
                    "midi": 77,
                    "time": 9.054127000000003,
                    "velocity": 0.5511811023622047,
                    "duration": 0.10595255000000137
                },
                {
                    "name": "C5",
                    "midi": 72,
                    "time": 9.150447500000004,
                    "velocity": 0.5118110236220472,
                    "duration": 0.10595255000000137
                },
                {
                    "name": "A#4",
                    "midi": 70,
                    "time": 9.246768000000005,
                    "velocity": 0.5511811023622047,
                    "duration": 0.10595255000000137
                },
                {
                    "name": "A4",
                    "midi": 69,
                    "time": 9.343088500000006,
                    "velocity": 0.5196850393700787,
                    "duration": 0.10595255000000137
                },
                {
                    "name": "G#4",
                    "midi": 68,
                    "time": 9.439409000000007,
                    "velocity": 0.5196850393700787,
                    "duration": 0.10595255000000137
                },
                {
                    "name": "A4",
                    "midi": 69,
                    "time": 9.535729500000008,
                    "velocity": 0.5196850393700787,
                    "duration": 0.10595255000000137
                },
                {
                    "name": "C5",
                    "midi": 72,
                    "time": 9.632050000000008,
                    "velocity": 0.5511811023622047,
                    "duration": 0.10595255000000137
                },
                {
                    "name": "A4",
                    "midi": 69,
                    "time": 9.72837050000001,
                    "velocity": 0.5039370078740157,
                    "duration": 0.10595255000000137
                },
                {
                    "name": "F4",
                    "midi": 65,
                    "time": 9.82469100000001,
                    "velocity": 0.5511811023622047,
                    "duration": 0.09632050000000092
                },
                {
                    "name": "F5",
                    "midi": 77,
                    "time": 9.921011500000011,
                    "velocity": 0.5039370078740157,
                    "duration": 0.09632049999999914
                },
                {
                    "name": "E4",
                    "midi": 64,
                    "time": 10.01733200000001,
                    "velocity": 0.5511811023622047,
                    "duration": 0.09632049999999914
                },
                {
                    "name": "F5",
                    "midi": 77,
                    "time": 10.11365250000001,
                    "velocity": 0.5039370078740157,
                    "duration": 0.09632049999999914
                },
                {
                    "name": "F4",
                    "midi": 65,
                    "time": 10.209973000000009,
                    "velocity": 0.5511811023622047,
                    "duration": 0.09632049999999914
                },
                {
                    "name": "F5",
                    "midi": 77,
                    "time": 10.306293500000008,
                    "velocity": 0.5039370078740157,
                    "duration": 0.09632049999999914
                },
                {
                    "name": "G4",
                    "midi": 67,
                    "time": 10.402614000000007,
                    "velocity": 0.5511811023622047,
                    "duration": 0.09632049999999914
                },
                {
                    "name": "F5",
                    "midi": 77,
                    "time": 10.498934500000006,
                    "velocity": 0.5039370078740157,
                    "duration": 0.09632049999999914
                },
                {
                    "name": "F4",
                    "midi": 65,
                    "time": 10.595255000000005,
                    "velocity": 0.5118110236220472,
                    "duration": 0.09632049999999914
                },
                {
                    "name": "F5",
                    "midi": 77,
                    "time": 10.691575500000004,
                    "velocity": 0.4566929133858268,
                    "duration": 0.09632049999999914
                },
                {
                    "name": "G4",
                    "midi": 67,
                    "time": 10.787896000000003,
                    "velocity": 0.5275590551181102,
                    "duration": 0.09632049999999914
                },
                {
                    "name": "F5",
                    "midi": 77,
                    "time": 10.884216500000003,
                    "velocity": 0.48031496062992124,
                    "duration": 0.09632049999999914
                },
                {
                    "name": "A4",
                    "midi": 69,
                    "time": 10.980537000000002,
                    "velocity": 0.5511811023622047,
                    "duration": 0.09632049999999914
                },
                {
                    "name": "F5",
                    "midi": 77,
                    "time": 11.076857500000001,
                    "velocity": 0.47244094488188976,
                    "duration": 0.09632049999999914
                },
                {
                    "name": "G4",
                    "midi": 67,
                    "time": 11.173178,
                    "velocity": 0.5196850393700787,
                    "duration": 0.09632049999999914
                },
                {
                    "name": "F5",
                    "midi": 77,
                    "time": 11.2694985,
                    "velocity": 0.4881889763779528,
                    "duration": 0.09632049999999914
                },
                {
                    "name": "A4",
                    "midi": 69,
                    "time": 11.365818999999998,
                    "velocity": 0.5275590551181102,
                    "duration": 0.09632049999999914
                },
                {
                    "name": "F5",
                    "midi": 77,
                    "time": 11.462139499999997,
                    "velocity": 0.4881889763779528,
                    "duration": 0.09632049999999914
                },
                {
                    "name": "A#4",
                    "midi": 70,
                    "time": 11.558459999999997,
                    "velocity": 0.5826771653543307,
                    "duration": 0.09632049999999914
                },
                {
                    "name": "F5",
                    "midi": 77,
                    "time": 11.654780499999996,
                    "velocity": 0.48031496062992124,
                    "duration": 0.09632049999999914
                },
                {
                    "name": "A#4",
                    "midi": 70,
                    "time": 11.751100999999995,
                    "velocity": 0.5118110236220472,
                    "duration": 0.09632049999999914
                },
                {
                    "name": "F5",
                    "midi": 77,
                    "time": 11.847421499999994,
                    "velocity": 0.48031496062992124,
                    "duration": 0.09632049999999914
                },
                {
                    "name": "A4",
                    "midi": 69,
                    "time": 11.943741999999993,
                    "velocity": 0.5118110236220472,
                    "duration": 0.09632049999999914
                },
                {
                    "name": "F5",
                    "midi": 77,
                    "time": 12.040062499999992,
                    "velocity": 0.47244094488188976,
                    "duration": 0.09632049999999914
                },
                {
                    "name": "A#4",
                    "midi": 70,
                    "time": 12.136382999999991,
                    "velocity": 0.5511811023622047,
                    "duration": 0.09632049999999914
                },
                {
                    "name": "F5",
                    "midi": 77,
                    "time": 12.23270349999999,
                    "velocity": 0.47244094488188976,
                    "duration": 0.09632049999999914
                },
                {
                    "name": "A#4",
                    "midi": 70,
                    "time": 12.32902399999999,
                    "velocity": 0.5118110236220472,
                    "duration": 0.09632049999999914
                },
                {
                    "name": "F5",
                    "midi": 77,
                    "time": 12.425344499999989,
                    "velocity": 0.47244094488188976,
                    "duration": 0.09632049999999914
                },
                {
                    "name": "A4",
                    "midi": 69,
                    "time": 12.521664999999988,
                    "velocity": 0.5118110236220472,
                    "duration": 0.09632049999999914
                },
                {
                    "name": "F5",
                    "midi": 77,
                    "time": 12.617985499999987,
                    "velocity": 0.36220472440944884,
                    "duration": 0.09632049999999914
                },
                {
                    "name": "G#4",
                    "midi": 68,
                    "time": 12.714305999999986,
                    "velocity": 0.33070866141732286,
                    "duration": 0.09632049999999914
                },
                {
                    "name": "F5",
                    "midi": 77,
                    "time": 12.810626499999985,
                    "velocity": 0.29133858267716534,
                    "duration": 0.09632049999999914
                },
                {
                    "name": "G4",
                    "midi": 67,
                    "time": 13.292228999999985,
                    "velocity": 0.33070866141732286,
                    "duration": 0.09632049999999914
                },
                {
                    "name": "E5",
                    "midi": 76,
                    "time": 13.388549499999984,
                    "velocity": 0.28346456692913385,
                    "duration": 0.09632049999999914
                },
                {
                    "name": "F#4",
                    "midi": 66,
                    "time": 13.870151999999983,
                    "velocity": 0.33070866141732286,
                    "duration": 0.09632049999999914
                },
                {
                    "name": "D#5",
                    "midi": 75,
                    "time": 13.966472499999982,
                    "velocity": 0.2755905511811024,
                    "duration": 0.09632049999999914
                },
                {
                    "name": "D4",
                    "midi": 62,
                    "time": 14.640715999999982,
                    "velocity": 0.4566929133858268,
                    "duration": 0.09632049999999914
                },
                {
                    "name": "G4",
                    "midi": 67,
                    "time": 14.73703649999998,
                    "velocity": 0.4645669291338583,
                    "duration": 0.09632049999999914
                },
                {
                    "name": "A#4",
                    "midi": 70,
                    "time": 14.83335699999998,
                    "velocity": 0.47244094488188976,
                    "duration": 0.09632049999999914
                },
                {
                    "name": "D5",
                    "midi": 74,
                    "time": 14.929677499999979,
                    "velocity": 0.48031496062992124,
                    "duration": 0.09632049999999914
                },
                {
                    "name": "C5",
                    "midi": 72,
                    "time": 15.025997999999978,
                    "velocity": 0.4881889763779528,
                    "duration": 0.10595254999999959
                },
                {
                    "name": "A#4",
                    "midi": 70,
                    "time": 15.122318499999977,
                    "velocity": 0.4881889763779528,
                    "duration": 0.10595255000000137
                },
                {
                    "name": "A4",
                    "midi": 69,
                    "time": 15.218638999999978,
                    "velocity": 0.47244094488188976,
                    "duration": 0.10595255000000137
                },
                {
                    "name": "G4",
                    "midi": 67,
                    "time": 15.31495949999998,
                    "velocity": 0.4645669291338583,
                    "duration": 0.10595255000000137
                },
                {
                    "name": "F4",
                    "midi": 65,
                    "time": 15.41127999999998,
                    "velocity": 0.44881889763779526,
                    "duration": 0.10595255000000137
                },
                {
                    "name": "E4",
                    "midi": 64,
                    "time": 15.507600499999981,
                    "velocity": 0.4330708661417323,
                    "duration": 0.10595255000000137
                },
                {
                    "name": "F4",
                    "midi": 65,
                    "time": 15.603920999999982,
                    "velocity": 0.4566929133858268,
                    "duration": 0.09632050000000092
                },
                {
                    "name": "C4",
                    "midi": 60,
                    "time": 15.796561999999982,
                    "velocity": 0.3858267716535433,
                    "duration": 0.19264100000000006
                },
                {
                    "name": "C4",
                    "midi": 60,
                    "time": 15.989202999999982,
                    "velocity": 0.3858267716535433,
                    "duration": 0.1444807499999996
                },
                {
                    "name": "E4",
                    "midi": 64,
                    "time": 16.13368374999998,
                    "velocity": 0.3228346456692913,
                    "duration": 0.04816024999999868
                },
                {
                    "name": "A#4",
                    "midi": 70,
                    "time": 16.18184399999998,
                    "velocity": 0.3858267716535433,
                    "duration": 0.7705640000000002
                },
                {
                    "name": "A4",
                    "midi": 69,
                    "time": 16.95240799999998,
                    "velocity": 0.33858267716535434,
                    "duration": 0.09632050000000092
                },
                {
                    "name": "G4",
                    "midi": 67,
                    "time": 17.145048999999982,
                    "velocity": 0.33858267716535434,
                    "duration": 0.09632050000000092
                },
                {
                    "name": "G4",
                    "midi": 67,
                    "time": 17.337689999999984,
                    "velocity": 0.3858267716535433,
                    "duration": 0.19264099999999829
                },
                {
                    "name": "F4",
                    "midi": 65,
                    "time": 17.530330999999983,
                    "velocity": 0.3543307086614173,
                    "duration": 0.3852820000000001
                },
                {
                    "name": "F4",
                    "midi": 65,
                    "time": 17.915612999999983,
                    "velocity": 0.3543307086614173,
                    "duration": 0.5297627499999997
                },
                {
                    "name": "E4",
                    "midi": 64,
                    "time": 18.445375749999982,
                    "velocity": 0.3228346456692913,
                    "duration": 0.04816024999999868
                },
                {
                    "name": "A#4",
                    "midi": 70,
                    "time": 18.49353599999998,
                    "velocity": 0.3858267716535433,
                    "duration": 0.7705640000000002
                },
                {
                    "name": "A4",
                    "midi": 69,
                    "time": 19.26409999999998,
                    "velocity": 0.33858267716535434,
                    "duration": 0.09632050000000092
                },
                {
                    "name": "G4",
                    "midi": 67,
                    "time": 19.456740999999983,
                    "velocity": 0.33858267716535434,
                    "duration": 0.09632050000000092
                },
                {
                    "name": "B4",
                    "midi": 71,
                    "time": 19.649381999999985,
                    "velocity": 0.4015748031496063,
                    "duration": 0.5779229999999984
                },
                {
                    "name": "C5",
                    "midi": 72,
                    "time": 20.227304999999983,
                    "velocity": 0.3543307086614173,
                    "duration": 0.19264099999999829
                },
                {
                    "name": "E4",
                    "midi": 64,
                    "time": 20.757067749999983,
                    "velocity": 0.3228346456692913,
                    "duration": 0.04816024999999868
                },
                {
                    "name": "A#4",
                    "midi": 70,
                    "time": 20.805227999999982,
                    "velocity": 0.3858267716535433,
                    "duration": 0.7705640000000002
                },
                {
                    "name": "A4",
                    "midi": 69,
                    "time": 21.575791999999982,
                    "velocity": 0.33858267716535434,
                    "duration": 0.09632050000000092
                },
                {
                    "name": "G4",
                    "midi": 67,
                    "time": 21.768432999999984,
                    "velocity": 0.33858267716535434,
                    "duration": 0.09632050000000092
                },
                {
                    "name": "F4",
                    "midi": 65,
                    "time": 21.961073999999986,
                    "velocity": 0.4251968503937008,
                    "duration": 0.3852820000000001
                },
                {
                    "name": "A4",
                    "midi": 69,
                    "time": 22.346355999999986,
                    "velocity": 0.47244094488188976,
                    "duration": 0.5779229999999984
                },
                {
                    "name": "C5",
                    "midi": 72,
                    "time": 22.924278999999984,
                    "velocity": 0.47244094488188976,
                    "duration": 0.5779229999999984
                },
                {
                    "name": "A#4",
                    "midi": 70,
                    "time": 23.502201999999983,
                    "velocity": 0.4566929133858268,
                    "duration": 0.5779229999999984
                },
                {
                    "name": "G4",
                    "midi": 67,
                    "time": 24.08012499999998,
                    "velocity": 0.3937007874015748,
                    "duration": 0.19264099999999829
                },
                {
                    "name": "F4",
                    "midi": 65,
                    "time": 24.27276599999998,
                    "velocity": 0.4409448818897638,
                    "duration": 0.19264099999999829
                },
                {
                    "name": "A3",
                    "midi": 57,
                    "time": 24.658047999999976,
                    "velocity": 0.5590551181102362,
                    "duration": 0.19264099999999829
                },
                {
                    "name": "A#3",
                    "midi": 58,
                    "time": 24.850688999999974,
                    "velocity": 0.6141732283464567,
                    "duration": 0.09632050000000092
                },
                {
                    "name": "G4",
                    "midi": 67,
                    "time": 25.043329999999976,
                    "velocity": 0.5748031496062992,
                    "duration": 0.09632050000000092
                },
                {
                    "name": "B3",
                    "midi": 59,
                    "time": 25.235970999999978,
                    "velocity": 0.5669291338582677,
                    "duration": 0.09632050000000092
                },
                {
                    "name": "C4",
                    "midi": 60,
                    "time": 25.42861199999998,
                    "velocity": 0.6141732283464567,
                    "duration": 0.09632050000000092
                },
                {
                    "name": "A4",
                    "midi": 69,
                    "time": 25.62125299999998,
                    "velocity": 0.5748031496062992,
                    "duration": 0.09632050000000092
                },
                {
                    "name": "C#4",
                    "midi": 61,
                    "time": 25.813893999999983,
                    "velocity": 0.5748031496062992,
                    "duration": 0.09632050000000092
                },
                {
                    "name": "D4",
                    "midi": 62,
                    "time": 26.006534999999985,
                    "velocity": 0.6141732283464567,
                    "duration": 0.09632050000000092
                },
                {
                    "name": "A#4",
                    "midi": 70,
                    "time": 26.199175999999987,
                    "velocity": 0.5669291338582677,
                    "duration": 0.09632050000000092
                },
                {
                    "name": "E4",
                    "midi": 64,
                    "time": 26.39181699999999,
                    "velocity": 0.5669291338582677,
                    "duration": 0.09632050000000092
                },
                {
                    "name": "A#5",
                    "midi": 82,
                    "time": 26.58445799999999,
                    "velocity": 0.5354330708661418,
                    "duration": 0.7705640000000002
                },
                {
                    "name": "A5",
                    "midi": 81,
                    "time": 27.35502199999999,
                    "velocity": 0.4881889763779528,
                    "duration": 0.09632050000000092
                },
                {
                    "name": "G5",
                    "midi": 79,
                    "time": 27.451342499999992,
                    "velocity": 0.48031496062992124,
                    "duration": 0.09632050000000092
                },
                {
                    "name": "F5",
                    "midi": 77,
                    "time": 27.547662999999993,
                    "velocity": 0.4645669291338583,
                    "duration": 0.09632050000000092
                },
                {
                    "name": "E5",
                    "midi": 76,
                    "time": 27.643983499999994,
                    "velocity": 0.44881889763779526,
                    "duration": 0.09632050000000092
                },
                {
                    "name": "F5",
                    "midi": 77,
                    "time": 27.740303999999995,
                    "velocity": 0.4409448818897638,
                    "duration": 0.09632050000000092
                },
                {
                    "name": "G5",
                    "midi": 79,
                    "time": 27.932944999999997,
                    "velocity": 0.3858267716535433,
                    "duration": 0.09632050000000092
                },
                {
                    "name": "A5",
                    "midi": 81,
                    "time": 28.125586,
                    "velocity": 0.4251968503937008,
                    "duration": 0.09632050000000092
                },
                {
                    "name": "A4",
                    "midi": 69,
                    "time": 28.318227,
                    "velocity": 0.36220472440944884,
                    "duration": 0.3852820000000001
                },
                {
                    "name": "C5",
                    "midi": 72,
                    "time": 28.318227,
                    "velocity": 0.36220472440944884,
                    "duration": 0.3852820000000001
                },
                {
                    "name": "A#4",
                    "midi": 70,
                    "time": 28.703509,
                    "velocity": 0.31496062992125984,
                    "duration": 0.19264099999999829
                },
                {
                    "name": "G4",
                    "midi": 67,
                    "time": 28.703509,
                    "velocity": 0.31496062992125984,
                    "duration": 0.19264099999999829
                },
                {
                    "name": "A#4",
                    "midi": 70,
                    "time": 28.89615,
                    "velocity": 0.36220472440944884,
                    "duration": 0.5779229999999984
                },
                {
                    "name": "G4",
                    "midi": 67,
                    "time": 28.89615,
                    "velocity": 0.36220472440944884,
                    "duration": 0.5779229999999984
                },
                {
                    "name": "F4",
                    "midi": 65,
                    "time": 29.474072999999997,
                    "velocity": 0.3228346456692913,
                    "duration": 0.19264099999999829
                },
                {
                    "name": "A4",
                    "midi": 69,
                    "time": 29.474072999999997,
                    "velocity": 0.3228346456692913,
                    "duration": 0.19264099999999829
                },
                {
                    "name": "A3",
                    "midi": 57,
                    "time": 30.437277999999996,
                    "velocity": 0.5590551181102362,
                    "duration": 0.19264099999999829
                },
                {
                    "name": "A#3",
                    "midi": 58,
                    "time": 30.629918999999994,
                    "velocity": 0.6141732283464567,
                    "duration": 0.09632050000000092
                },
                {
                    "name": "G4",
                    "midi": 67,
                    "time": 30.822559999999996,
                    "velocity": 0.5748031496062992,
                    "duration": 0.09632050000000092
                },
                {
                    "name": "B3",
                    "midi": 59,
                    "time": 31.015200999999998,
                    "velocity": 0.5669291338582677,
                    "duration": 0.09632050000000092
                },
                {
                    "name": "C4",
                    "midi": 60,
                    "time": 31.207842,
                    "velocity": 0.6141732283464567,
                    "duration": 0.09632050000000092
                },
                {
                    "name": "A4",
                    "midi": 69,
                    "time": 31.400483,
                    "velocity": 0.5748031496062992,
                    "duration": 0.09632050000000092
                },
                {
                    "name": "C#4",
                    "midi": 61,
                    "time": 31.593124000000003,
                    "velocity": 0.5748031496062992,
                    "duration": 0.09632050000000092
                },
                {
                    "name": "D4",
                    "midi": 62,
                    "time": 31.785765000000005,
                    "velocity": 0.6141732283464567,
                    "duration": 0.09632050000000092
                },
                {
                    "name": "A#4",
                    "midi": 70,
                    "time": 31.978406000000007,
                    "velocity": 0.5669291338582677,
                    "duration": 0.09632049999999737
                },
                {
                    "name": "E4",
                    "midi": 64,
                    "time": 32.171047,
                    "velocity": 0.5669291338582677,
                    "duration": 0.09632049999999737
                },
                {
                    "name": "A#5",
                    "midi": 82,
                    "time": 32.363687999999996,
                    "velocity": 0.5354330708661418,
                    "duration": 0.7705640000000002
                },
                {
                    "name": "A5",
                    "midi": 81,
                    "time": 33.134252,
                    "velocity": 0.4881889763779528,
                    "duration": 0.09632049999999737
                },
                {
                    "name": "G5",
                    "midi": 79,
                    "time": 33.230572499999994,
                    "velocity": 0.48031496062992124,
                    "duration": 0.09632049999999737
                },
                {
                    "name": "F5",
                    "midi": 77,
                    "time": 33.32689299999999,
                    "velocity": 0.4645669291338583,
                    "duration": 0.09632049999999737
                },
                {
                    "name": "E5",
                    "midi": 76,
                    "time": 33.42321349999999,
                    "velocity": 0.44881889763779526,
                    "duration": 0.09632049999999737
                },
                {
                    "name": "F5",
                    "midi": 77,
                    "time": 33.519533999999986,
                    "velocity": 0.4409448818897638,
                    "duration": 0.048160250000002236
                },
                {
                    "name": "G5",
                    "midi": 79,
                    "time": 33.56769424999999,
                    "velocity": 0.3858267716535433,
                    "duration": 0.048160250000002236
                },
                {
                    "name": "A5",
                    "midi": 81,
                    "time": 33.61585449999999,
                    "velocity": 0.3858267716535433,
                    "duration": 0.048160250000002236
                },
                {
                    "name": "D5",
                    "midi": 74,
                    "time": 34.09745699999999,
                    "velocity": 0.3700787401574803,
                    "duration": 0.048160250000002236
                },
                {
                    "name": "E5",
                    "midi": 76,
                    "time": 34.145617249999994,
                    "velocity": 0.3228346456692913,
                    "duration": 0.048160250000002236
                },
                {
                    "name": "F5",
                    "midi": 77,
                    "time": 34.193777499999996,
                    "velocity": 0.3228346456692913,
                    "duration": 0.048160250000002236
                },
                {
                    "name": "F4",
                    "midi": 65,
                    "time": 34.67538,
                    "velocity": 0.3464566929133858,
                    "duration": 0.48160250000000104
                },
                {
                    "name": "A4",
                    "midi": 69,
                    "time": 35.1569825,
                    "velocity": 0.30708661417322836,
                    "duration": 0.09632049999999737
                },
                {
                    "name": "G4",
                    "midi": 67,
                    "time": 35.253302999999995,
                    "velocity": 0.3464566929133858,
                    "duration": 0.38528199999999657
                },
                {
                    "name": "E4",
                    "midi": 64,
                    "time": 35.253302999999995,
                    "velocity": 0.28346456692913385,
                    "duration": 0.38528199999999657
                },
                {
                    "name": "F4",
                    "midi": 65,
                    "time": 35.63858499999999,
                    "velocity": 0.3228346456692913,
                    "duration": 0.19264100000000184
                },
                {
                    "name": "F4",
                    "midi": 65,
                    "time": 35.831225999999994,
                    "velocity": 0.3228346456692913,
                    "duration": 0.5779229999999984
                },
                {
                    "name": "A4",
                    "midi": 69,
                    "time": 36.21650799999999,
                    "velocity": 0.30708661417322836,
                    "duration": 0.19264100000000184
                },
                {
                    "name": "C5",
                    "midi": 72,
                    "time": 36.40914899999999,
                    "velocity": 0.3464566929133858,
                    "duration": 0.19264100000000184
                },
                {
                    "name": "E4",
                    "midi": 64,
                    "time": 36.40914899999999,
                    "velocity": 0.29133858267716534,
                    "duration": 0.5779230000000055
                },
                {
                    "name": "A#4",
                    "midi": 70,
                    "time": 36.601789999999994,
                    "velocity": 0.30708661417322836,
                    "duration": 0.19264100000000184
                },
                {
                    "name": "G4",
                    "midi": 67,
                    "time": 36.794430999999996,
                    "velocity": 0.30708661417322836,
                    "duration": 0.19264100000000184
                },
                {
                    "name": "F4",
                    "midi": 65,
                    "time": 36.987072,
                    "velocity": 0.3464566929133858,
                    "duration": 0.5779230000000055
                },
                {
                    "name": "C4",
                    "midi": 60,
                    "time": 37.179713,
                    "velocity": 0.31496062992125984,
                    "duration": 0.1902329875000035
                },
                {
                    "name": "A4",
                    "midi": 69,
                    "time": 37.372354,
                    "velocity": 0.31496062992125984,
                    "duration": 0.19264100000000184
                },
                {
                    "name": "C5",
                    "midi": 72,
                    "time": 37.564995,
                    "velocity": 0.3464566929133858,
                    "duration": 0.19264100000000184
                },
                {
                    "name": "E4",
                    "midi": 64,
                    "time": 37.564995,
                    "velocity": 0.29133858267716534,
                    "duration": 0.5779230000000055
                },
                {
                    "name": "A#4",
                    "midi": 70,
                    "time": 37.757636000000005,
                    "velocity": 0.31496062992125984,
                    "duration": 0.19264100000000184
                },
                {
                    "name": "G4",
                    "midi": 67,
                    "time": 37.95027700000001,
                    "velocity": 0.31496062992125984,
                    "duration": 0.19264100000000184
                },
                {
                    "name": "F4",
                    "midi": 65,
                    "time": 38.14291800000001,
                    "velocity": 0.3464566929133858,
                    "duration": 0.19264100000000184
                },
                {
                    "name": "C4",
                    "midi": 60,
                    "time": 38.33555900000001,
                    "velocity": 0.3228346456692913,
                    "duration": 0.1902329875000035
                },
                {
                    "name": "A4",
                    "midi": 69,
                    "time": 38.52820000000001,
                    "velocity": 0.3228346456692913,
                    "duration": 0.19264100000000184
                },
                {
                    "name": "F4",
                    "midi": 65,
                    "time": 38.720841000000014,
                    "velocity": 0.3464566929133858,
                    "duration": 0.19264100000000184
                },
                {
                    "name": "C4",
                    "midi": 60,
                    "time": 38.913482000000016,
                    "velocity": 0.31496062992125984,
                    "duration": 0.189430316666666
                },
                {
                    "name": "A4",
                    "midi": 69,
                    "time": 39.10612300000002,
                    "velocity": 0.31496062992125984,
                    "duration": 0.19264100000000184
                },
                {
                    "name": "A#3",
                    "midi": 58,
                    "time": 39.29876400000002,
                    "velocity": 0.28346456692913385,
                    "duration": 0.5779229999999984
                },
                {
                    "name": "G4",
                    "midi": 67,
                    "time": 39.29876400000002,
                    "velocity": 0.33070866141732286,
                    "duration": 0.5779229999999984
                },
                {
                    "name": "F4",
                    "midi": 65,
                    "time": 39.87668700000002,
                    "velocity": 0.28346456692913385,
                    "duration": 0.19264100000000184
                },
                {
                    "name": "A3",
                    "midi": 57,
                    "time": 39.87668700000002,
                    "velocity": 0.2440944881889764,
                    "duration": 0.19264100000000184
                },
                {
                    "name": "A4",
                    "midi": 69,
                    "time": 40.45461000000002,
                    "velocity": 0.5354330708661418,
                    "duration": 0.5779229999999984
                },
                {
                    "name": "A5",
                    "midi": 81,
                    "time": 40.45461000000002,
                    "velocity": 0.6299212598425197,
                    "duration": 0.5779229999999984
                },
                {
                    "name": "G5",
                    "midi": 79,
                    "time": 41.032533000000015,
                    "velocity": 0.6062992125984252,
                    "duration": 0.5779229999999984
                },
                {
                    "name": "A4",
                    "midi": 69,
                    "time": 41.032533000000015,
                    "velocity": 0.5118110236220472,
                    "duration": 0.5779229999999984
                },
                {
                    "name": "F5",
                    "midi": 77,
                    "time": 41.61045600000001,
                    "velocity": 0.6141732283464567,
                    "duration": 0.5779229999999984
                },
                {
                    "name": "A4",
                    "midi": 69,
                    "time": 41.61045600000001,
                    "velocity": 0.5196850393700787,
                    "duration": 0.5779229999999984
                },
                {
                    "name": "A4",
                    "midi": 69,
                    "time": 42.18837900000001,
                    "velocity": 0.5118110236220472,
                    "duration": 0.5779229999999984
                },
                {
                    "name": "E5",
                    "midi": 76,
                    "time": 42.18837900000001,
                    "velocity": 0.5984251968503937,
                    "duration": 0.5779229999999984
                },
                {
                    "name": "A4",
                    "midi": 69,
                    "time": 42.76630200000001,
                    "velocity": 0.5275590551181102,
                    "duration": 0.5779229999999984
                },
                {
                    "name": "D5",
                    "midi": 74,
                    "time": 42.76630200000001,
                    "velocity": 0.6220472440944882,
                    "duration": 0.5779229999999984
                },
                {
                    "name": "G4",
                    "midi": 67,
                    "time": 43.34422500000001,
                    "velocity": 0.5118110236220472,
                    "duration": 0.5779229999999984
                },
                {
                    "name": "C#5",
                    "midi": 73,
                    "time": 43.34422500000001,
                    "velocity": 0.5984251968503937,
                    "duration": 0.5779229999999984
                },
                {
                    "name": "A4",
                    "midi": 69,
                    "time": 43.34422500000001,
                    "velocity": 0.5118110236220472,
                    "duration": 0.5779229999999984
                },
                {
                    "name": "D5",
                    "midi": 74,
                    "time": 43.92214800000001,
                    "velocity": 0.5118110236220472,
                    "duration": 0.09632049999999737
                },
                {
                    "name": "A4",
                    "midi": 69,
                    "time": 44.018468500000004,
                    "velocity": 0.4251968503937008,
                    "duration": 0.09632049999999737
                },
                {
                    "name": "F4",
                    "midi": 65,
                    "time": 44.114789,
                    "velocity": 0.4251968503937008,
                    "duration": 0.09632049999999737
                },
                {
                    "name": "A4",
                    "midi": 69,
                    "time": 44.2111095,
                    "velocity": 0.4251968503937008,
                    "duration": 0.09632049999999737
                },
                {
                    "name": "D5",
                    "midi": 74,
                    "time": 44.30743,
                    "velocity": 0.5118110236220472,
                    "duration": 0.09632049999999737
                },
                {
                    "name": "A4",
                    "midi": 69,
                    "time": 44.403750499999994,
                    "velocity": 0.4251968503937008,
                    "duration": 0.09632049999999737
                },
                {
                    "name": "E5",
                    "midi": 76,
                    "time": 44.50007099999999,
                    "velocity": 0.5118110236220472,
                    "duration": 0.09632049999999737
                },
                {
                    "name": "A4",
                    "midi": 69,
                    "time": 44.59639149999999,
                    "velocity": 0.4251968503937008,
                    "duration": 0.09632049999999737
                },
                {
                    "name": "G4",
                    "midi": 67,
                    "time": 44.692711999999986,
                    "velocity": 0.4251968503937008,
                    "duration": 0.09632049999999737
                },
                {
                    "name": "A4",
                    "midi": 69,
                    "time": 44.78903249999998,
                    "velocity": 0.4251968503937008,
                    "duration": 0.09632049999999737
                },
                {
                    "name": "E5",
                    "midi": 76,
                    "time": 44.88535299999998,
                    "velocity": 0.5118110236220472,
                    "duration": 0.09632049999999737
                },
                {
                    "name": "A4",
                    "midi": 69,
                    "time": 44.98167349999998,
                    "velocity": 0.4330708661417323,
                    "duration": 0.09632049999999737
                },
                {
                    "name": "F5",
                    "midi": 77,
                    "time": 45.077993999999975,
                    "velocity": 0.5118110236220472,
                    "duration": 0.09632049999999737
                },
                {
                    "name": "D5",
                    "midi": 74,
                    "time": 45.17431449999997,
                    "velocity": 0.4330708661417323,
                    "duration": 0.09632049999999737
                },
                {
                    "name": "A4",
                    "midi": 69,
                    "time": 45.27063499999997,
                    "velocity": 0.4330708661417323,
                    "duration": 0.09632049999999737
                },
                {
                    "name": "D5",
                    "midi": 74,
                    "time": 45.36695549999997,
                    "velocity": 0.4330708661417323,
                    "duration": 0.09632049999999737
                },
                {
                    "name": "F5",
                    "midi": 77,
                    "time": 45.463275999999965,
                    "velocity": 0.5118110236220472,
                    "duration": 0.09632049999999737
                },
                {
                    "name": "D5",
                    "midi": 74,
                    "time": 45.55959649999996,
                    "velocity": 0.4330708661417323,
                    "duration": 0.09632049999999737
                },
                {
                    "name": "F#5",
                    "midi": 78,
                    "time": 45.65591699999996,
                    "velocity": 0.5118110236220472,
                    "duration": 0.09632049999999737
                },
                {
                    "name": "D5",
                    "midi": 74,
                    "time": 45.75223749999996,
                    "velocity": 0.4330708661417323,
                    "duration": 0.09632049999999737
                },
                {
                    "name": "A4",
                    "midi": 69,
                    "time": 45.848557999999954,
                    "velocity": 0.4330708661417323,
                    "duration": 0.09632049999999737
                },
                {
                    "name": "D5",
                    "midi": 74,
                    "time": 45.94487849999995,
                    "velocity": 0.4330708661417323,
                    "duration": 0.09632049999999737
                },
                {
                    "name": "F#5",
                    "midi": 78,
                    "time": 46.04119899999995,
                    "velocity": 0.5118110236220472,
                    "duration": 0.09632049999999737
                },
                {
                    "name": "D5",
                    "midi": 74,
                    "time": 46.13751949999995,
                    "velocity": 0.4409448818897638,
                    "duration": 0.09632049999999737
                },
                {
                    "name": "G5",
                    "midi": 79,
                    "time": 46.233839999999944,
                    "velocity": 0.5118110236220472,
                    "duration": 0.38528199999999657
                },
                {
                    "name": "A5",
                    "midi": 81,
                    "time": 46.61912199999994,
                    "velocity": 0.4645669291338583,
                    "duration": 0.09632049999999737
                },
                {
                    "name": "G5",
                    "midi": 79,
                    "time": 46.71544249999994,
                    "velocity": 0.4645669291338583,
                    "duration": 0.09632049999999737
                },
                {
                    "name": "F5",
                    "midi": 77,
                    "time": 46.811762999999935,
                    "velocity": 0.5118110236220472,
                    "duration": 0.38528199999999657
                },
                {
                    "name": "G5",
                    "midi": 79,
                    "time": 47.19704499999993,
                    "velocity": 0.44881889763779526,
                    "duration": 0.09632049999999737
                },
                {
                    "name": "F5",
                    "midi": 77,
                    "time": 47.29336549999993,
                    "velocity": 0.44881889763779526,
                    "duration": 0.09632049999999737
                },
                {
                    "name": "E5",
                    "midi": 76,
                    "time": 47.38968599999993,
                    "velocity": 0.5118110236220472,
                    "duration": 0.38528199999999657
                },
                {
                    "name": "F5",
                    "midi": 77,
                    "time": 47.77496799999992,
                    "velocity": 0.44881889763779526,
                    "duration": 0.09632049999999737
                },
                {
                    "name": "E5",
                    "midi": 76,
                    "time": 47.87128849999992,
                    "velocity": 0.44881889763779526,
                    "duration": 0.09632049999999737
                },
                {
                    "name": "D5",
                    "midi": 74,
                    "time": 47.96760899999992,
                    "velocity": 0.5118110236220472,
                    "duration": 0.38528199999999657
                },
                {
                    "name": "E5",
                    "midi": 76,
                    "time": 48.352890999999914,
                    "velocity": 0.4645669291338583,
                    "duration": 0.09632049999999737
                },
                {
                    "name": "D5",
                    "midi": 74,
                    "time": 48.44921149999991,
                    "velocity": 0.4645669291338583,
                    "duration": 0.09632049999999737
                },
                {
                    "name": "C5",
                    "midi": 72,
                    "time": 48.54553199999991,
                    "velocity": 0.5118110236220472,
                    "duration": 0.38528199999999657
                },
                {
                    "name": "D5",
                    "midi": 74,
                    "time": 48.930813999999906,
                    "velocity": 0.4645669291338583,
                    "duration": 0.09632049999999737
                },
                {
                    "name": "C5",
                    "midi": 72,
                    "time": 49.0271344999999,
                    "velocity": 0.4645669291338583,
                    "duration": 0.09632049999999737
                },
                {
                    "name": "B4",
                    "midi": 71,
                    "time": 49.1234549999999,
                    "velocity": 0.5118110236220472,
                    "duration": 0.38528199999999657
                },
                {
                    "name": "C5",
                    "midi": 72,
                    "time": 49.5087369999999,
                    "velocity": 0.4409448818897638,
                    "duration": 0.09632049999999737
                },
                {
                    "name": "B4",
                    "midi": 71,
                    "time": 49.605057499999894,
                    "velocity": 0.4409448818897638,
                    "duration": 0.09632049999999737
                },
                {
                    "name": "D5",
                    "midi": 74,
                    "time": 49.70137799999989,
                    "velocity": 0.4881889763779528,
                    "duration": 0.10595254999999781
                },
                {
                    "name": "C5",
                    "midi": 72,
                    "time": 49.79769849999989,
                    "velocity": 0.4251968503937008,
                    "duration": 0.10595254999999781
                },
                {
                    "name": "B4",
                    "midi": 71,
                    "time": 49.894018999999886,
                    "velocity": 0.4251968503937008,
                    "duration": 0.10595254999999781
                },
                {
                    "name": "C5",
                    "midi": 72,
                    "time": 49.990339499999884,
                    "velocity": 0.4251968503937008,
                    "duration": 0.10595254999999781
                },
                {
                    "name": "B4",
                    "midi": 71,
                    "time": 50.08665999999988,
                    "velocity": 0.41732283464566927,
                    "duration": 0.10595254999999781
                },
                {
                    "name": "C5",
                    "midi": 72,
                    "time": 50.18298049999988,
                    "velocity": 0.4330708661417323,
                    "duration": 0.10595254999999781
                },
                {
                    "name": "E5",
                    "midi": 76,
                    "time": 50.279300999999876,
                    "velocity": 0.4645669291338583,
                    "duration": 0.10595254999999781
                },
                {
                    "name": "D5",
                    "midi": 74,
                    "time": 50.37562149999987,
                    "velocity": 0.4330708661417323,
                    "duration": 0.10595254999999781
                },
                {
                    "name": "C#5",
                    "midi": 73,
                    "time": 50.47194199999987,
                    "velocity": 0.4330708661417323,
                    "duration": 0.10595254999999781
                },
                {
                    "name": "D5",
                    "midi": 74,
                    "time": 50.56826249999987,
                    "velocity": 0.4330708661417323,
                    "duration": 0.10595254999999781
                },
                {
                    "name": "C#5",
                    "midi": 73,
                    "time": 50.664582999999865,
                    "velocity": 0.4330708661417323,
                    "duration": 0.10595254999999781
                },
                {
                    "name": "D5",
                    "midi": 74,
                    "time": 50.76090349999986,
                    "velocity": 0.4330708661417323,
                    "duration": 0.10595254999999781
                },
                {
                    "name": "E5",
                    "midi": 76,
                    "time": 50.85722399999986,
                    "velocity": 0.4645669291338583,
                    "duration": 0.10595254999999781
                },
                {
                    "name": "D5",
                    "midi": 74,
                    "time": 50.95354449999986,
                    "velocity": 0.4251968503937008,
                    "duration": 0.10595254999999781
                },
                {
                    "name": "C5",
                    "midi": 72,
                    "time": 51.049864999999855,
                    "velocity": 0.4251968503937008,
                    "duration": 0.10595254999999781
                },
                {
                    "name": "D5",
                    "midi": 74,
                    "time": 51.14618549999985,
                    "velocity": 0.4251968503937008,
                    "duration": 0.10595254999999781
                },
                {
                    "name": "E5",
                    "midi": 76,
                    "time": 51.24250599999985,
                    "velocity": 0.4251968503937008,
                    "duration": 0.10595254999999781
                },
                {
                    "name": "F5",
                    "midi": 77,
                    "time": 51.33882649999985,
                    "velocity": 0.4251968503937008,
                    "duration": 0.10595254999999781
                },
                {
                    "name": "G5",
                    "midi": 79,
                    "time": 51.435146999999844,
                    "velocity": 0.4645669291338583,
                    "duration": 0.10595254999999781
                },
                {
                    "name": "F5",
                    "midi": 77,
                    "time": 51.53146749999984,
                    "velocity": 0.4330708661417323,
                    "duration": 0.10595254999999781
                },
                {
                    "name": "E5",
                    "midi": 76,
                    "time": 51.62778799999984,
                    "velocity": 0.4330708661417323,
                    "duration": 0.10595254999999781
                },
                {
                    "name": "F5",
                    "midi": 77,
                    "time": 51.724108499999836,
                    "velocity": 0.4330708661417323,
                    "duration": 0.10595254999999781
                },
                {
                    "name": "G5",
                    "midi": 79,
                    "time": 51.820428999999834,
                    "velocity": 0.4330708661417323,
                    "duration": 0.10595254999999781
                },
                {
                    "name": "G#5",
                    "midi": 80,
                    "time": 51.91674949999983,
                    "velocity": 0.4330708661417323,
                    "duration": 0.10595254999999781
                },
                {
                    "name": "A5",
                    "midi": 81,
                    "time": 52.01306999999983,
                    "velocity": 0.4645669291338583,
                    "duration": 0.09632049999999737
                },
                {
                    "name": "A#5",
                    "midi": 82,
                    "time": 52.109390499999826,
                    "velocity": 0.4330708661417323,
                    "duration": 0.10595254999999781
                },
                {
                    "name": "A5",
                    "midi": 81,
                    "time": 52.20571099999982,
                    "velocity": 0.4330708661417323,
                    "duration": 0.10595254999999781
                },
                {
                    "name": "G5",
                    "midi": 79,
                    "time": 52.30203149999982,
                    "velocity": 0.4330708661417323,
                    "duration": 0.10595254999999781
                },
                {
                    "name": "F5",
                    "midi": 77,
                    "time": 52.39835199999982,
                    "velocity": 0.4330708661417323,
                    "duration": 0.10595254999999781
                },
                {
                    "name": "E5",
                    "midi": 76,
                    "time": 52.494672499999815,
                    "velocity": 0.4251968503937008,
                    "duration": 0.10595254999999781
                },
                {
                    "name": "D5",
                    "midi": 74,
                    "time": 52.59099299999981,
                    "velocity": 0.4645669291338583,
                    "duration": 0.09632049999999737
                },
                {
                    "name": "C#6",
                    "midi": 85,
                    "time": 52.68731349999981,
                    "velocity": 0.4251968503937008,
                    "duration": 0.10595254999999781
                },
                {
                    "name": "D6",
                    "midi": 86,
                    "time": 52.78363399999981,
                    "velocity": 0.49606299212598426,
                    "duration": 0.10595254999999781
                },
                {
                    "name": "C6",
                    "midi": 84,
                    "time": 52.879954499999805,
                    "velocity": 0.4881889763779528,
                    "duration": 0.10595254999999781
                },
                {
                    "name": "B5",
                    "midi": 83,
                    "time": 52.9762749999998,
                    "velocity": 0.47244094488188976,
                    "duration": 0.10595254999999781
                },
                {
                    "name": "A5",
                    "midi": 81,
                    "time": 53.0725954999998,
                    "velocity": 0.4645669291338583,
                    "duration": 0.10595254999999781
                },
                {
                    "name": "G5",
                    "midi": 79,
                    "time": 53.1689159999998,
                    "velocity": 0.4645669291338583,
                    "duration": 0.09632049999999737
                },
                {
                    "name": "A5",
                    "midi": 81,
                    "time": 53.265236499999794,
                    "velocity": 0.47244094488188976,
                    "duration": 0.09632049999999737
                },
                {
                    "name": "G5",
                    "midi": 79,
                    "time": 53.36155699999979,
                    "velocity": 0.47244094488188976,
                    "duration": 0.09632049999999737
                },
                {
                    "name": "F5",
                    "midi": 77,
                    "time": 53.45787749999979,
                    "velocity": 0.47244094488188976,
                    "duration": 0.09632049999999737
                },
                {
                    "name": "E5",
                    "midi": 76,
                    "time": 53.554197999999786,
                    "velocity": 0.47244094488188976,
                    "duration": 0.09632049999999737
                },
                {
                    "name": "D5",
                    "midi": 74,
                    "time": 53.650518499999784,
                    "velocity": 0.4645669291338583,
                    "duration": 0.09632049999999737
                },
                {
                    "name": "C5",
                    "midi": 72,
                    "time": 53.74683899999978,
                    "velocity": 0.4645669291338583,
                    "duration": 0.09632049999999737
                },
                {
                    "name": "B5",
                    "midi": 83,
                    "time": 53.84315949999978,
                    "velocity": 0.4409448818897638,
                    "duration": 0.10595254999999781
                },
                {
                    "name": "C6",
                    "midi": 84,
                    "time": 53.939479999999776,
                    "velocity": 0.49606299212598426,
                    "duration": 0.10595254999999781
                },
                {
                    "name": "B5",
                    "midi": 83,
                    "time": 54.03580049999977,
                    "velocity": 0.4881889763779528,
                    "duration": 0.10595254999999781
                },
                {
                    "name": "A5",
                    "midi": 81,
                    "time": 54.13212099999977,
                    "velocity": 0.47244094488188976,
                    "duration": 0.10595254999999781
                },
                {
                    "name": "G5",
                    "midi": 79,
                    "time": 54.22844149999977,
                    "velocity": 0.4645669291338583,
                    "duration": 0.10595254999999781
                },
                {
                    "name": "F5",
                    "midi": 77,
                    "time": 54.324761999999765,
                    "velocity": 0.4409448818897638,
                    "duration": 0.09632049999999737
                },
                {
                    "name": "C#6",
                    "midi": 85,
                    "time": 54.42108249999976,
                    "velocity": 0.48031496062992124,
                    "duration": 0.09632049999999737
                },
                {
                    "name": "D6",
                    "midi": 86,
                    "time": 54.51740299999976,
                    "velocity": 0.5354330708661418,
                    "duration": 0.09632049999999737
                },
                {
                    "name": "B5",
                    "midi": 83,
                    "time": 54.61372349999976,
                    "velocity": 0.49606299212598426,
                    "duration": 0.09632049999999737
                },
                {
                    "name": "G5",
                    "midi": 79,
                    "time": 54.710043999999755,
                    "velocity": 0.49606299212598426,
                    "duration": 0.09632049999999737
                },
                {
                    "name": "F5",
                    "midi": 77,
                    "time": 54.80636449999975,
                    "velocity": 0.49606299212598426,
                    "duration": 0.09632049999999737
                },
                {
                    "name": "E5",
                    "midi": 76,
                    "time": 54.90268499999975,
                    "velocity": 0.47244094488188976,
                    "duration": 0.09632049999999737
                },
                {
                    "name": "B5",
                    "midi": 83,
                    "time": 54.99900549999975,
                    "velocity": 0.41732283464566927,
                    "duration": 0.10595254999999781
                },
                {
                    "name": "C6",
                    "midi": 84,
                    "time": 55.095325999999744,
                    "velocity": 0.4645669291338583,
                    "duration": 0.10595254999999781
                },
                {
                    "name": "G5",
                    "midi": 79,
                    "time": 55.19164649999974,
                    "velocity": 0.4251968503937008,
                    "duration": 0.10595254999999781
                },
                {
                    "name": "F5",
                    "midi": 77,
                    "time": 55.28796699999974,
                    "velocity": 0.4251968503937008,
                    "duration": 0.10595254999999781
                },
                {
                    "name": "E5",
                    "midi": 76,
                    "time": 55.384287499999736,
                    "velocity": 0.4251968503937008,
                    "duration": 0.10595254999999781
                },
                {
                    "name": "D5",
                    "midi": 74,
                    "time": 55.480607999999734,
                    "velocity": 0.4645669291338583,
                    "duration": 0.09632049999999737
                },
                {
                    "name": "E5",
                    "midi": 76,
                    "time": 55.57692849999973,
                    "velocity": 0.4566929133858268,
                    "duration": 0.10595254999999781
                },
                {
                    "name": "D5",
                    "midi": 74,
                    "time": 55.67324899999973,
                    "velocity": 0.4881889763779528,
                    "duration": 0.10595254999999781
                },
                {
                    "name": "C5",
                    "midi": 72,
                    "time": 55.769569499999726,
                    "velocity": 0.48031496062992124,
                    "duration": 0.10595254999999781
                },
                {
                    "name": "B4",
                    "midi": 71,
                    "time": 55.86588999999972,
                    "velocity": 0.47244094488188976,
                    "duration": 0.10595254999999781
                },
                {
                    "name": "A4",
                    "midi": 69,
                    "time": 55.96221049999972,
                    "velocity": 0.4645669291338583,
                    "duration": 0.10595254999999781
                },
                {
                    "name": "G4",
                    "midi": 67,
                    "time": 56.05853099999972,
                    "velocity": 0.44881889763779526,
                    "duration": 0.10595254999999781
                },
                {
                    "name": "D#5",
                    "midi": 75,
                    "time": 56.636453999999716,
                    "velocity": 0.3858267716535433,
                    "duration": 0.7705640000000002
                },
                {
                    "name": "D5",
                    "midi": 74,
                    "time": 57.40701799999972,
                    "velocity": 0.33858267716535434,
                    "duration": 0.09632049999999737
                },
                {
                    "name": "C5",
                    "midi": 72,
                    "time": 57.59965899999971,
                    "velocity": 0.33858267716535434,
                    "duration": 0.09632049999999737
                },
                {
                    "name": "F#5",
                    "midi": 78,
                    "time": 57.792299999999706,
                    "velocity": 0.3858267716535433,
                    "duration": 0.38528199999999657
                },
                {
                    "name": "G5",
                    "midi": 79,
                    "time": 58.1775819999997,
                    "velocity": 0.33858267716535434,
                    "duration": 0.19264100000000184
                },
                {
                    "name": "D5",
                    "midi": 74,
                    "time": 58.370222999999704,
                    "velocity": 0.33858267716535434,
                    "duration": 0.38528199999999657
                },
                {
                    "name": "G#5",
                    "midi": 80,
                    "time": 58.9481459999997,
                    "velocity": 0.4566929133858268,
                    "duration": 0.7705640000000002
                },
                {
                    "name": "G5",
                    "midi": 79,
                    "time": 59.7187099999997,
                    "velocity": 0.3858267716535433,
                    "duration": 0.09632049999999737
                },
                {
                    "name": "F5",
                    "midi": 77,
                    "time": 59.9113509999997,
                    "velocity": 0.3858267716535433,
                    "duration": 0.09632049999999737
                },
                {
                    "name": "D#5",
                    "midi": 75,
                    "time": 60.10399199999969,
                    "velocity": 0.47244094488188976,
                    "duration": 0.19264100000000184
                },
                {
                    "name": "F5",
                    "midi": 77,
                    "time": 60.296632999999694,
                    "velocity": 0.33070866141732286,
                    "duration": 0.06421366666666728
                },
                {
                    "name": "D#5",
                    "midi": 75,
                    "time": 60.36084666666636,
                    "velocity": 0.33070866141732286,
                    "duration": 0.06421366666666728
                },
                {
                    "name": "D5",
                    "midi": 74,
                    "time": 60.42506033333303,
                    "velocity": 0.33070866141732286,
                    "duration": 0.06421366666666728
                },
                {
                    "name": "D#5",
                    "midi": 75,
                    "time": 60.489273999999696,
                    "velocity": 0.4015748031496063,
                    "duration": 0.09632049999999737
                },
                {
                    "name": "F5",
                    "midi": 77,
                    "time": 60.585594499999694,
                    "velocity": 0.3464566929133858,
                    "duration": 0.09632049999999737
                },
                {
                    "name": "G5",
                    "midi": 79,
                    "time": 60.68191499999969,
                    "velocity": 0.4015748031496063,
                    "duration": 0.38528199999999657
                },
                {
                    "name": "C6",
                    "midi": 84,
                    "time": 61.25983799999969,
                    "velocity": 0.5196850393700787,
                    "duration": 0.5779229999999984
                },
                {
                    "name": "A#5",
                    "midi": 82,
                    "time": 61.83776099999969,
                    "velocity": 0.4251968503937008,
                    "duration": 0.38528199999999657
                },
                {
                    "name": "C6",
                    "midi": 84,
                    "time": 62.223042999999684,
                    "velocity": 0.3937007874015748,
                    "duration": 0.19264100000000184
                },
                {
                    "name": "A#5",
                    "midi": 82,
                    "time": 62.415683999999686,
                    "velocity": 0.44881889763779526,
                    "duration": 0.38528199999999657
                },
                {
                    "name": "G#5",
                    "midi": 80,
                    "time": 62.80096599999968,
                    "velocity": 0.4094488188976378,
                    "duration": 0.19264100000000184
                },
                {
                    "name": "G5",
                    "midi": 79,
                    "time": 62.993606999999685,
                    "velocity": 0.4330708661417323,
                    "duration": 0.5779229999999984
                },
                {
                    "name": "F5",
                    "midi": 77,
                    "time": 63.57152999999968,
                    "velocity": 0.4645669291338583,
                    "duration": 0.38528199999999657
                },
                {
                    "name": "D#5",
                    "midi": 75,
                    "time": 63.95681199999968,
                    "velocity": 0.41732283464566927,
                    "duration": 0.19264100000000184
                },
                {
                    "name": "D5",
                    "midi": 74,
                    "time": 64.14945299999968,
                    "velocity": 0.44881889763779526,
                    "duration": 0.3852820000000037
                },
                {
                    "name": "C5",
                    "midi": 72,
                    "time": 64.53473499999969,
                    "velocity": 0.3700787401574803,
                    "duration": 0.19264099999999473
                },
                {
                    "name": "D#5",
                    "midi": 75,
                    "time": 64.72737599999968,
                    "velocity": 0.41732283464566927,
                    "duration": 0.5779229999999984
                },
                {
                    "name": "D5",
                    "midi": 74,
                    "time": 65.30529899999968,
                    "velocity": 0.3543307086614173,
                    "duration": 0.19264099999999473
                },
                {
                    "name": "D#5",
                    "midi": 75,
                    "time": 65.88322199999968,
                    "velocity": 0.3858267716535433,
                    "duration": 0.7705639999999931
                },
                {
                    "name": "D5",
                    "midi": 74,
                    "time": 66.65378599999967,
                    "velocity": 0.33858267716535434,
                    "duration": 0.09632050000000447
                },
                {
                    "name": "C5",
                    "midi": 72,
                    "time": 66.84642699999968,
                    "velocity": 0.33858267716535434,
                    "duration": 0.09632050000000447
                },
                {
                    "name": "F#5",
                    "midi": 78,
                    "time": 67.03906799999969,
                    "velocity": 0.3858267716535433,
                    "duration": 0.3852820000000037
                },
                {
                    "name": "G5",
                    "midi": 79,
                    "time": 67.42434999999969,
                    "velocity": 0.33858267716535434,
                    "duration": 0.19264099999999473
                },
                {
                    "name": "D5",
                    "midi": 74,
                    "time": 67.61699099999969,
                    "velocity": 0.33858267716535434,
                    "duration": 0.3852820000000037
                },
                {
                    "name": "G#5",
                    "midi": 80,
                    "time": 68.19491399999968,
                    "velocity": 0.4566929133858268,
                    "duration": 0.7705639999999931
                },
                {
                    "name": "G5",
                    "midi": 79,
                    "time": 68.96547799999968,
                    "velocity": 0.3858267716535433,
                    "duration": 0.09632050000000447
                },
                {
                    "name": "F5",
                    "midi": 77,
                    "time": 69.15811899999969,
                    "velocity": 0.3858267716535433,
                    "duration": 0.09632050000000447
                },
                {
                    "name": "E5",
                    "midi": 76,
                    "time": 69.3507599999997,
                    "velocity": 0.47244094488188976,
                    "duration": 0.19264099999999473
                },
                {
                    "name": "F5",
                    "midi": 77,
                    "time": 69.73604199999969,
                    "velocity": 0.4015748031496063,
                    "duration": 0.09632050000000447
                },
                {
                    "name": "G5",
                    "midi": 79,
                    "time": 69.83236249999969,
                    "velocity": 0.3464566929133858,
                    "duration": 0.09632050000000447
                },
                {
                    "name": "F5",
                    "midi": 77,
                    "time": 69.9286829999997,
                    "velocity": 0.4015748031496063,
                    "duration": 0.3852820000000037
                },
                {
                    "name": "D#6",
                    "midi": 87,
                    "time": 70.50660599999969,
                    "velocity": 0.5590551181102362,
                    "duration": 0.5779229999999984
                },
                {
                    "name": "D6",
                    "midi": 86,
                    "time": 71.27716999999969,
                    "velocity": 0.4566929133858268,
                    "duration": 0.09632050000000447
                },
                {
                    "name": "C6",
                    "midi": 84,
                    "time": 71.4698109999997,
                    "velocity": 0.4566929133858268,
                    "duration": 0.09632050000000447
                },
                {
                    "name": "B5",
                    "midi": 83,
                    "time": 71.6624519999997,
                    "velocity": 0.5196850393700787,
                    "duration": 0.5779229999999984
                },
                {
                    "name": "C6",
                    "midi": 84,
                    "time": 72.2403749999997,
                    "velocity": 0.5354330708661418,
                    "duration": 0.3852820000000037
                },
                {
                    "name": "G#5",
                    "midi": 80,
                    "time": 72.6256569999997,
                    "velocity": 0.36220472440944884,
                    "duration": 0.19264099999999473
                },
                {
                    "name": "C5",
                    "midi": 72,
                    "time": 72.8182979999997,
                    "velocity": 0.4330708661417323,
                    "duration": 0.5297627500000033
                },
                {
                    "name": "D#5",
                    "midi": 75,
                    "time": 73.3480607499997,
                    "velocity": 0.31496062992125984,
                    "duration": 0.04816024999999513
                },
                {
                    "name": "D5",
                    "midi": 74,
                    "time": 73.3962209999997,
                    "velocity": 0.4015748031496063,
                    "duration": 0.5779229999999984
                },
                {
                    "name": "B4",
                    "midi": 71,
                    "time": 73.3962209999997,
                    "velocity": 0.4015748031496063,
                    "duration": 0.5779229999999984
                },
                {
                    "name": "C5",
                    "midi": 72,
                    "time": 73.9741439999997,
                    "velocity": 0.5826771653543307,
                    "duration": 0.09632050000000447
                },
                {
                    "name": "G5",
                    "midi": 79,
                    "time": 74.0704644999997,
                    "velocity": 0.4881889763779528,
                    "duration": 0.09632050000000447
                },
                {
                    "name": "F#5",
                    "midi": 78,
                    "time": 74.1667849999997,
                    "velocity": 0.4881889763779528,
                    "duration": 0.09632050000000447
                },
                {
                    "name": "G5",
                    "midi": 79,
                    "time": 74.26310549999971,
                    "velocity": 0.4881889763779528,
                    "duration": 0.09632050000000447
                },
                {
                    "name": "A5",
                    "midi": 81,
                    "time": 74.35942599999971,
                    "velocity": 0.5433070866141733,
                    "duration": 0.09632050000000447
                },
                {
                    "name": "G5",
                    "midi": 79,
                    "time": 74.45574649999972,
                    "velocity": 0.4881889763779528,
                    "duration": 0.09632050000000447
                },
                {
                    "name": "F5",
                    "midi": 77,
                    "time": 74.55206699999972,
                    "velocity": 0.5118110236220472,
                    "duration": 0.09632050000000447
                },
                {
                    "name": "G5",
                    "midi": 79,
                    "time": 74.64838749999973,
                    "velocity": 0.47244094488188976,
                    "duration": 0.09632050000000447
                },
                {
                    "name": "F5",
                    "midi": 77,
                    "time": 74.74470799999973,
                    "velocity": 0.5118110236220472,
                    "duration": 0.09632050000000447
                },
                {
                    "name": "G5",
                    "midi": 79,
                    "time": 74.84102849999974,
                    "velocity": 0.4645669291338583,
                    "duration": 0.09632050000000447
                },
                {
                    "name": "F5",
                    "midi": 77,
                    "time": 74.93734899999974,
                    "velocity": 0.5118110236220472,
                    "duration": 0.09632050000000447
                },
                {
                    "name": "G5",
                    "midi": 79,
                    "time": 75.03366949999975,
                    "velocity": 0.4645669291338583,
                    "duration": 0.09632050000000447
                },
                {
                    "name": "E5",
                    "midi": 76,
                    "time": 75.12998999999975,
                    "velocity": 0.5826771653543307,
                    "duration": 0.09632050000000447
                },
                {
                    "name": "G5",
                    "midi": 79,
                    "time": 75.22631049999976,
                    "velocity": 0.4881889763779528,
                    "duration": 0.09632050000000447
                },
                {
                    "name": "F#5",
                    "midi": 78,
                    "time": 75.32263099999976,
                    "velocity": 0.4881889763779528,
                    "duration": 0.09632050000000447
                },
                {
                    "name": "G5",
                    "midi": 79,
                    "time": 75.41895149999976,
                    "velocity": 0.4881889763779528,
                    "duration": 0.09632050000000447
                },
                {
                    "name": "C6",
                    "midi": 84,
                    "time": 75.51527199999977,
                    "velocity": 0.5826771653543307,
                    "duration": 0.09632050000000447
                },
                {
                    "name": "G5",
                    "midi": 79,
                    "time": 75.61159249999977,
                    "velocity": 0.4881889763779528,
                    "duration": 0.09632050000000447
                },
                {
                    "name": "F5",
                    "midi": 77,
                    "time": 75.70791299999978,
                    "velocity": 0.5118110236220472,
                    "duration": 0.09632050000000447
                },
                {
                    "name": "G5",
                    "midi": 79,
                    "time": 75.80423349999978,
                    "velocity": 0.47244094488188976,
                    "duration": 0.09632050000000447
                },
                {
                    "name": "F5",
                    "midi": 77,
                    "time": 75.90055399999979,
                    "velocity": 0.5118110236220472,
                    "duration": 0.09632050000000447
                },
                {
                    "name": "G5",
                    "midi": 79,
                    "time": 75.99687449999979,
                    "velocity": 0.4645669291338583,
                    "duration": 0.09632050000000447
                },
                {
                    "name": "F5",
                    "midi": 77,
                    "time": 76.0931949999998,
                    "velocity": 0.5118110236220472,
                    "duration": 0.09632050000000447
                },
                {
                    "name": "G5",
                    "midi": 79,
                    "time": 76.1895154999998,
                    "velocity": 0.4645669291338583,
                    "duration": 0.09632050000000447
                },
                {
                    "name": "E5",
                    "midi": 76,
                    "time": 76.2858359999998,
                    "velocity": 0.5826771653543307,
                    "duration": 0.09632050000000447
                },
                {
                    "name": "G5",
                    "midi": 79,
                    "time": 76.38215649999981,
                    "velocity": 0.4881889763779528,
                    "duration": 0.09632050000000447
                },
                {
                    "name": "F#5",
                    "midi": 78,
                    "time": 76.47847699999981,
                    "velocity": 0.4881889763779528,
                    "duration": 0.09632050000000447
                },
                {
                    "name": "G5",
                    "midi": 79,
                    "time": 76.57479749999982,
                    "velocity": 0.4881889763779528,
                    "duration": 0.09632050000000447
                },
                {
                    "name": "C6",
                    "midi": 84,
                    "time": 76.67111799999982,
                    "velocity": 0.5669291338582677,
                    "duration": 0.09632050000000447
                },
                {
                    "name": "G5",
                    "midi": 79,
                    "time": 76.76743849999983,
                    "velocity": 0.4881889763779528,
                    "duration": 0.09632050000000447
                },
                {
                    "name": "F5",
                    "midi": 77,
                    "time": 76.86375899999983,
                    "velocity": 0.5118110236220472,
                    "duration": 0.09632050000000447
                },
                {
                    "name": "G5",
                    "midi": 79,
                    "time": 76.96007949999984,
                    "velocity": 0.47244094488188976,
                    "duration": 0.09632050000000447
                },
                {
                    "name": "F5",
                    "midi": 77,
                    "time": 77.05639999999984,
                    "velocity": 0.5118110236220472,
                    "duration": 0.09632050000000447
                },
                {
                    "name": "G5",
                    "midi": 79,
                    "time": 77.15272049999984,
                    "velocity": 0.4645669291338583,
                    "duration": 0.09632050000000447
                },
                {
                    "name": "F5",
                    "midi": 77,
                    "time": 77.24904099999985,
                    "velocity": 0.5118110236220472,
                    "duration": 0.09632050000000447
                },
                {
                    "name": "G5",
                    "midi": 79,
                    "time": 77.34536149999985,
                    "velocity": 0.4645669291338583,
                    "duration": 0.09632050000000447
                },
                {
                    "name": "E5",
                    "midi": 76,
                    "time": 77.44168199999986,
                    "velocity": 0.5826771653543307,
                    "duration": 0.09632050000000447
                },
                {
                    "name": "G5",
                    "midi": 79,
                    "time": 77.53800249999986,
                    "velocity": 0.4881889763779528,
                    "duration": 0.09632050000000447
                },
                {
                    "name": "C6",
                    "midi": 84,
                    "time": 77.63432299999987,
                    "velocity": 0.5590551181102362,
                    "duration": 0.09632050000000447
                },
                {
                    "name": "E5",
                    "midi": 76,
                    "time": 77.73064349999987,
                    "velocity": 0.47244094488188976,
                    "duration": 0.09632050000000447
                },
                {
                    "name": "D5",
                    "midi": 74,
                    "time": 77.82696399999988,
                    "velocity": 0.5511811023622047,
                    "duration": 0.09632050000000447
                },
                {
                    "name": "B5",
                    "midi": 83,
                    "time": 77.92328449999988,
                    "velocity": 0.4881889763779528,
                    "duration": 0.09632050000000447
                },
                {
                    "name": "C5",
                    "midi": 72,
                    "time": 78.01960499999988,
                    "velocity": 0.5511811023622047,
                    "duration": 0.09632050000000447
                },
                {
                    "name": "A5",
                    "midi": 81,
                    "time": 78.11592549999989,
                    "velocity": 0.4881889763779528,
                    "duration": 0.09632050000000447
                },
                {
                    "name": "B4",
                    "midi": 71,
                    "time": 78.2122459999999,
                    "velocity": 0.5433070866141733,
                    "duration": 0.09632050000000447
                },
                {
                    "name": "G5",
                    "midi": 79,
                    "time": 78.3085664999999,
                    "velocity": 0.47244094488188976,
                    "duration": 0.09632050000000447
                },
                {
                    "name": "A4",
                    "midi": 69,
                    "time": 78.4048869999999,
                    "velocity": 0.5275590551181102,
                    "duration": 0.09632050000000447
                },
                {
                    "name": "F5",
                    "midi": 77,
                    "time": 78.50120749999991,
                    "velocity": 0.4566929133858268,
                    "duration": 0.09632050000000447
                },
                {
                    "name": "G4",
                    "midi": 67,
                    "time": 78.59752799999991,
                    "velocity": 0.5433070866141733,
                    "duration": 0.09632050000000447
                },
                {
                    "name": "E5",
                    "midi": 76,
                    "time": 78.69384849999992,
                    "velocity": 0.4881889763779528,
                    "duration": 0.09632050000000447
                },
                {
                    "name": "F4",
                    "midi": 65,
                    "time": 78.79016899999992,
                    "velocity": 0.5275590551181102,
                    "duration": 0.09632050000000447
                },
                {
                    "name": "D5",
                    "midi": 74,
                    "time": 78.88648949999993,
                    "velocity": 0.4645669291338583,
                    "duration": 0.09632050000000447
                },
                {
                    "name": "E4",
                    "midi": 64,
                    "time": 78.98280999999993,
                    "velocity": 0.5196850393700787,
                    "duration": 0.09632050000000447
                },
                {
                    "name": "C5",
                    "midi": 72,
                    "time": 79.07913049999993,
                    "velocity": 0.4409448818897638,
                    "duration": 0.09632050000000447
                },
                {
                    "name": "D4",
                    "midi": 62,
                    "time": 79.17545099999994,
                    "velocity": 0.4881889763779528,
                    "duration": 0.09632050000000447
                },
                {
                    "name": "B4",
                    "midi": 71,
                    "time": 79.27177149999994,
                    "velocity": 0.4251968503937008,
                    "duration": 0.09632050000000447
                },
                {
                    "name": "C4",
                    "midi": 60,
                    "time": 79.36809199999995,
                    "velocity": 0.49606299212598426,
                    "duration": 0.09632050000000447
                },
                {
                    "name": "A4",
                    "midi": 69,
                    "time": 79.46441249999995,
                    "velocity": 0.4330708661417323,
                    "duration": 0.09632050000000447
                },
                {
                    "name": "B3",
                    "midi": 59,
                    "time": 79.56073299999996,
                    "velocity": 0.4881889763779528,
                    "duration": 0.09632050000000447
                },
                {
                    "name": "G4",
                    "midi": 67,
                    "time": 79.65705349999996,
                    "velocity": 0.4015748031496063,
                    "duration": 0.09632050000000447
                },
                {
                    "name": "A3",
                    "midi": 57,
                    "time": 79.75337399999997,
                    "velocity": 0.3543307086614173,
                    "duration": 0.5779229999999984
                },
                {
                    "name": "F#4",
                    "midi": 66,
                    "time": 79.75337399999997,
                    "velocity": 0.4330708661417323,
                    "duration": 0.5779229999999984
                },
                {
                    "name": "G#3",
                    "midi": 56,
                    "time": 80.33129699999996,
                    "velocity": 0.3543307086614173,
                    "duration": 0.5779229999999984
                },
                {
                    "name": "F4",
                    "midi": 65,
                    "time": 80.33129699999996,
                    "velocity": 0.4330708661417323,
                    "duration": 0.5779229999999984
                },
                {
                    "name": "G#4",
                    "midi": 68,
                    "time": 80.90921999999996,
                    "velocity": 0.3543307086614173,
                    "duration": 0.5779229999999984
                },
                {
                    "name": "F5",
                    "midi": 77,
                    "time": 80.90921999999996,
                    "velocity": 0.4330708661417323,
                    "duration": 0.5779229999999984
                },
                {
                    "name": "D4",
                    "midi": 62,
                    "time": 81.48714299999996,
                    "velocity": 0.3543307086614173,
                    "duration": 0.5779229999999984
                },
                {
                    "name": "B4",
                    "midi": 71,
                    "time": 81.48714299999996,
                    "velocity": 0.4330708661417323,
                    "duration": 0.5779229999999984
                },
                {
                    "name": "G5",
                    "midi": 79,
                    "time": 82.25770699999995,
                    "velocity": 0.3858267716535433,
                    "duration": 0.09632050000000447
                },
                {
                    "name": "G5",
                    "midi": 79,
                    "time": 82.45034799999996,
                    "velocity": 0.3858267716535433,
                    "duration": 0.09632050000000447
                },
                {
                    "name": "A5",
                    "midi": 81,
                    "time": 82.83562999999997,
                    "velocity": 0.3858267716535433,
                    "duration": 0.09632050000000447
                },
                {
                    "name": "A5",
                    "midi": 81,
                    "time": 83.02827099999998,
                    "velocity": 0.3858267716535433,
                    "duration": 0.09632050000000447
                },
                {
                    "name": "G4",
                    "midi": 67,
                    "time": 83.22091199999998,
                    "velocity": 0.30708661417322836,
                    "duration": 0.5297627500000033
                },
                {
                    "name": "C5",
                    "midi": 72,
                    "time": 83.22091199999998,
                    "velocity": 0.3700787401574803,
                    "duration": 0.5297627500000033
                },
                {
                    "name": "E5",
                    "midi": 76,
                    "time": 83.75067474999999,
                    "velocity": 0.31496062992125984,
                    "duration": 0.04816024999999513
                },
                {
                    "name": "B4",
                    "midi": 71,
                    "time": 83.79883499999998,
                    "velocity": 0.29133858267716534,
                    "duration": 0.5779229999999984
                },
                {
                    "name": "D5",
                    "midi": 74,
                    "time": 83.79883499999998,
                    "velocity": 0.3464566929133858,
                    "duration": 0.5779229999999984
                },
                {
                    "name": "C5",
                    "midi": 72,
                    "time": 84.37675799999998,
                    "velocity": 0.5826771653543307,
                    "duration": 0.09632050000000447
                },
                {
                    "name": "G5",
                    "midi": 79,
                    "time": 84.47307849999999,
                    "velocity": 0.4881889763779528,
                    "duration": 0.09632050000000447
                },
                {
                    "name": "F#5",
                    "midi": 78,
                    "time": 84.56939899999999,
                    "velocity": 0.4881889763779528,
                    "duration": 0.09632050000000447
                },
                {
                    "name": "G5",
                    "midi": 79,
                    "time": 84.6657195,
                    "velocity": 0.4881889763779528,
                    "duration": 0.09632050000000447
                },
                {
                    "name": "A5",
                    "midi": 81,
                    "time": 84.76204,
                    "velocity": 0.5354330708661418,
                    "duration": 0.09632050000000447
                },
                {
                    "name": "G5",
                    "midi": 79,
                    "time": 84.8583605,
                    "velocity": 0.4881889763779528,
                    "duration": 0.09632050000000447
                },
                {
                    "name": "F5",
                    "midi": 77,
                    "time": 84.95468100000001,
                    "velocity": 0.5118110236220472,
                    "duration": 0.09632050000000447
                },
                {
                    "name": "G5",
                    "midi": 79,
                    "time": 85.05100150000001,
                    "velocity": 0.47244094488188976,
                    "duration": 0.09632050000000447
                },
                {
                    "name": "F5",
                    "midi": 77,
                    "time": 85.14732200000002,
                    "velocity": 0.5118110236220472,
                    "duration": 0.09632050000000447
                },
                {
                    "name": "G5",
                    "midi": 79,
                    "time": 85.24364250000002,
                    "velocity": 0.4645669291338583,
                    "duration": 0.09632050000000447
                },
                {
                    "name": "F5",
                    "midi": 77,
                    "time": 85.33996300000003,
                    "velocity": 0.5118110236220472,
                    "duration": 0.09632050000000447
                },
                {
                    "name": "G5",
                    "midi": 79,
                    "time": 85.43628350000003,
                    "velocity": 0.4645669291338583,
                    "duration": 0.09632050000000447
                },
                {
                    "name": "E5",
                    "midi": 76,
                    "time": 85.53260400000003,
                    "velocity": 0.5826771653543307,
                    "duration": 0.09632050000000447
                },
                {
                    "name": "G5",
                    "midi": 79,
                    "time": 85.62892450000004,
                    "velocity": 0.4881889763779528,
                    "duration": 0.09632050000000447
                },
                {
                    "name": "F#5",
                    "midi": 78,
                    "time": 85.72524500000004,
                    "velocity": 0.4881889763779528,
                    "duration": 0.09632050000000447
                },
                {
                    "name": "G5",
                    "midi": 79,
                    "time": 85.82156550000005,
                    "velocity": 0.4881889763779528,
                    "duration": 0.09632050000000447
                },
                {
                    "name": "C6",
                    "midi": 84,
                    "time": 85.91788600000005,
                    "velocity": 0.5826771653543307,
                    "duration": 0.09632050000000447
                },
                {
                    "name": "G5",
                    "midi": 79,
                    "time": 86.01420650000006,
                    "velocity": 0.4881889763779528,
                    "duration": 0.09632050000000447
                },
                {
                    "name": "F5",
                    "midi": 77,
                    "time": 86.11052700000006,
                    "velocity": 0.5118110236220472,
                    "duration": 0.09632050000000447
                },
                {
                    "name": "G5",
                    "midi": 79,
                    "time": 86.20684750000007,
                    "velocity": 0.47244094488188976,
                    "duration": 0.09632050000000447
                },
                {
                    "name": "F5",
                    "midi": 77,
                    "time": 86.30316800000007,
                    "velocity": 0.5118110236220472,
                    "duration": 0.09632050000000447
                },
                {
                    "name": "G5",
                    "midi": 79,
                    "time": 86.39948850000007,
                    "velocity": 0.4645669291338583,
                    "duration": 0.09632050000000447
                },
                {
                    "name": "F5",
                    "midi": 77,
                    "time": 86.49580900000008,
                    "velocity": 0.5118110236220472,
                    "duration": 0.09632050000000447
                },
                {
                    "name": "G5",
                    "midi": 79,
                    "time": 86.59212950000008,
                    "velocity": 0.4645669291338583,
                    "duration": 0.09632050000000447
                },
                {
                    "name": "E5",
                    "midi": 76,
                    "time": 86.68845000000009,
                    "velocity": 0.5826771653543307,
                    "duration": 0.09632050000000447
                },
                {
                    "name": "G5",
                    "midi": 79,
                    "time": 86.78477050000009,
                    "velocity": 0.4881889763779528,
                    "duration": 0.09632050000000447
                },
                {
                    "name": "F#5",
                    "midi": 78,
                    "time": 86.8810910000001,
                    "velocity": 0.4881889763779528,
                    "duration": 0.09632050000000447
                },
                {
                    "name": "G5",
                    "midi": 79,
                    "time": 86.9774115000001,
                    "velocity": 0.4881889763779528,
                    "duration": 0.09632050000000447
                },
                {
                    "name": "C6",
                    "midi": 84,
                    "time": 87.0737320000001,
                    "velocity": 0.5669291338582677,
                    "duration": 0.09632050000000447
                },
                {
                    "name": "G5",
                    "midi": 79,
                    "time": 87.17005250000011,
                    "velocity": 0.4881889763779528,
                    "duration": 0.09632050000000447
                },
                {
                    "name": "F5",
                    "midi": 77,
                    "time": 87.26637300000012,
                    "velocity": 0.5118110236220472,
                    "duration": 0.09632050000000447
                },
                {
                    "name": "G5",
                    "midi": 79,
                    "time": 87.36269350000012,
                    "velocity": 0.47244094488188976,
                    "duration": 0.09632050000000447
                },
                {
                    "name": "F5",
                    "midi": 77,
                    "time": 87.45901400000012,
                    "velocity": 0.5118110236220472,
                    "duration": 0.09632050000000447
                },
                {
                    "name": "G5",
                    "midi": 79,
                    "time": 87.55533450000013,
                    "velocity": 0.4645669291338583,
                    "duration": 0.09632050000000447
                },
                {
                    "name": "F5",
                    "midi": 77,
                    "time": 87.65165500000013,
                    "velocity": 0.5118110236220472,
                    "duration": 0.09632050000000447
                },
                {
                    "name": "G5",
                    "midi": 79,
                    "time": 87.74797550000014,
                    "velocity": 0.4645669291338583,
                    "duration": 0.09632050000000447
                },
                {
                    "name": "E5",
                    "midi": 76,
                    "time": 87.84429600000014,
                    "velocity": 0.5826771653543307,
                    "duration": 0.09632050000000447
                },
                {
                    "name": "G5",
                    "midi": 79,
                    "time": 87.94061650000015,
                    "velocity": 0.4881889763779528,
                    "duration": 0.09632050000000447
                },
                {
                    "name": "C6",
                    "midi": 84,
                    "time": 88.03693700000015,
                    "velocity": 0.5590551181102362,
                    "duration": 0.09632050000000447
                },
                {
                    "name": "E5",
                    "midi": 76,
                    "time": 88.13325750000016,
                    "velocity": 0.47244094488188976,
                    "duration": 0.09632050000000447
                },
                {
                    "name": "D5",
                    "midi": 74,
                    "time": 88.22957800000016,
                    "velocity": 0.5511811023622047,
                    "duration": 0.09632050000000447
                },
                {
                    "name": "B5",
                    "midi": 83,
                    "time": 88.32589850000016,
                    "velocity": 0.4881889763779528,
                    "duration": 0.09632050000000447
                },
                {
                    "name": "C5",
                    "midi": 72,
                    "time": 88.42221900000017,
                    "velocity": 0.5511811023622047,
                    "duration": 0.09632050000000447
                },
                {
                    "name": "A5",
                    "midi": 81,
                    "time": 88.51853950000017,
                    "velocity": 0.4881889763779528,
                    "duration": 0.09632050000000447
                },
                {
                    "name": "B4",
                    "midi": 71,
                    "time": 88.61486000000018,
                    "velocity": 0.5433070866141733,
                    "duration": 0.09632050000000447
                },
                {
                    "name": "G5",
                    "midi": 79,
                    "time": 88.71118050000018,
                    "velocity": 0.47244094488188976,
                    "duration": 0.09632050000000447
                },
                {
                    "name": "A4",
                    "midi": 69,
                    "time": 88.80750100000019,
                    "velocity": 0.5275590551181102,
                    "duration": 0.09632050000000447
                },
                {
                    "name": "F5",
                    "midi": 77,
                    "time": 88.90382150000019,
                    "velocity": 0.4566929133858268,
                    "duration": 0.09632050000000447
                },
                {
                    "name": "G4",
                    "midi": 67,
                    "time": 89.0001420000002,
                    "velocity": 0.5433070866141733,
                    "duration": 0.09632050000000447
                },
                {
                    "name": "E5",
                    "midi": 76,
                    "time": 89.0964625000002,
                    "velocity": 0.4881889763779528,
                    "duration": 0.09632050000000447
                },
                {
                    "name": "F4",
                    "midi": 65,
                    "time": 89.1927830000002,
                    "velocity": 0.5275590551181102,
                    "duration": 0.09632050000000447
                },
                {
                    "name": "D5",
                    "midi": 74,
                    "time": 89.28910350000021,
                    "velocity": 0.4645669291338583,
                    "duration": 0.09632050000000447
                },
                {
                    "name": "E4",
                    "midi": 64,
                    "time": 89.38542400000021,
                    "velocity": 0.5196850393700787,
                    "duration": 0.09632050000000447
                },
                {
                    "name": "C5",
                    "midi": 72,
                    "time": 89.48174450000022,
                    "velocity": 0.4409448818897638,
                    "duration": 0.09632050000000447
                },
                {
                    "name": "D4",
                    "midi": 62,
                    "time": 89.57806500000022,
                    "velocity": 0.5039370078740157,
                    "duration": 0.09632050000000447
                },
                {
                    "name": "B4",
                    "midi": 71,
                    "time": 89.67438550000023,
                    "velocity": 0.4330708661417323,
                    "duration": 0.09632050000000447
                },
                {
                    "name": "C4",
                    "midi": 60,
                    "time": 89.77070600000023,
                    "velocity": 0.49606299212598426,
                    "duration": 0.09632050000000447
                },
                {
                    "name": "A4",
                    "midi": 69,
                    "time": 89.86702650000024,
                    "velocity": 0.4330708661417323,
                    "duration": 0.09632050000000447
                },
                {
                    "name": "B3",
                    "midi": 59,
                    "time": 89.96334700000024,
                    "velocity": 0.4881889763779528,
                    "duration": 0.09632050000000447
                },
                {
                    "name": "G4",
                    "midi": 67,
                    "time": 90.05966750000024,
                    "velocity": 0.4015748031496063,
                    "duration": 0.09632050000000447
                },
                {
                    "name": "F#4",
                    "midi": 66,
                    "time": 90.15598800000025,
                    "velocity": 0.4330708661417323,
                    "duration": 0.5779229999999984
                },
                {
                    "name": "A3",
                    "midi": 57,
                    "time": 90.15598800000025,
                    "velocity": 0.3543307086614173,
                    "duration": 0.5779229999999984
                },
                {
                    "name": "G#3",
                    "midi": 56,
                    "time": 90.73391100000025,
                    "velocity": 0.3543307086614173,
                    "duration": 0.5779229999999984
                },
                {
                    "name": "F4",
                    "midi": 65,
                    "time": 90.73391100000025,
                    "velocity": 0.4330708661417323,
                    "duration": 0.5779229999999984
                },
                {
                    "name": "F5",
                    "midi": 77,
                    "time": 91.31183400000025,
                    "velocity": 0.4330708661417323,
                    "duration": 0.5779229999999984
                },
                {
                    "name": "G#4",
                    "midi": 68,
                    "time": 91.31183400000025,
                    "velocity": 0.3543307086614173,
                    "duration": 0.5779229999999984
                },
                {
                    "name": "D4",
                    "midi": 62,
                    "time": 91.88975700000024,
                    "velocity": 0.3543307086614173,
                    "duration": 0.5779229999999984
                },
                {
                    "name": "B4",
                    "midi": 71,
                    "time": 91.88975700000024,
                    "velocity": 0.4330708661417323,
                    "duration": 0.5779229999999984
                },
                {
                    "name": "G5",
                    "midi": 79,
                    "time": 92.66032100000024,
                    "velocity": 0.3858267716535433,
                    "duration": 0.09632050000000447
                },
                {
                    "name": "G5",
                    "midi": 79,
                    "time": 92.85296200000025,
                    "velocity": 0.3858267716535433,
                    "duration": 0.09632050000000447
                },
                {
                    "name": "A5",
                    "midi": 81,
                    "time": 93.23824400000025,
                    "velocity": 0.3858267716535433,
                    "duration": 0.09632050000000447
                },
                {
                    "name": "A5",
                    "midi": 81,
                    "time": 93.43088500000026,
                    "velocity": 0.3858267716535433,
                    "duration": 0.09632050000000447
                },
                {
                    "name": "G4",
                    "midi": 67,
                    "time": 93.62352600000027,
                    "velocity": 0.30708661417322836,
                    "duration": 1.1558459999999968
                },
                {
                    "name": "C5",
                    "midi": 72,
                    "time": 93.62352600000027,
                    "velocity": 0.3700787401574803,
                    "duration": 0.5779229999999984
                },
                {
                    "name": "B4",
                    "midi": 71,
                    "time": 94.20144900000027,
                    "velocity": 0.29133858267716534,
                    "duration": 0.5779229999999984
                },
                {
                    "name": "F#5",
                    "midi": 78,
                    "time": 94.77937200000027,
                    "velocity": 0.5590551181102362,
                    "duration": 0.09632050000000447
                },
                {
                    "name": "G5",
                    "midi": 79,
                    "time": 94.87569250000027,
                    "velocity": 0.4330708661417323,
                    "duration": 0.10595254999999781
                },
                {
                    "name": "F#5",
                    "midi": 78,
                    "time": 94.97201300000027,
                    "velocity": 0.4330708661417323,
                    "duration": 0.1059525499999836
                },
                {
                    "name": "G5",
                    "midi": 79,
                    "time": 95.06833350000026,
                    "velocity": 0.4330708661417323,
                    "duration": 0.1059525499999836
                },
                {
                    "name": "F#5",
                    "midi": 78,
                    "time": 95.16465400000025,
                    "velocity": 0.4330708661417323,
                    "duration": 0.1059525499999836
                },
                {
                    "name": "G5",
                    "midi": 79,
                    "time": 95.26097450000024,
                    "velocity": 0.4330708661417323,
                    "duration": 0.09632049999999026
                },
                {
                    "name": "G#5",
                    "midi": 80,
                    "time": 95.35729500000024,
                    "velocity": 0.4881889763779528,
                    "duration": 0.10595254999999781
                },
                {
                    "name": "A5",
                    "midi": 81,
                    "time": 95.45361550000024,
                    "velocity": 0.4330708661417323,
                    "duration": 0.1059525499999836
                },
                {
                    "name": "G#5",
                    "midi": 80,
                    "time": 95.54993600000023,
                    "velocity": 0.4330708661417323,
                    "duration": 0.1059525499999836
                },
                {
                    "name": "A5",
                    "midi": 81,
                    "time": 95.64625650000022,
                    "velocity": 0.4330708661417323,
                    "duration": 0.1059525499999836
                },
                {
                    "name": "B5",
                    "midi": 83,
                    "time": 95.74257700000021,
                    "velocity": 0.4645669291338583,
                    "duration": 0.1059525499999836
                },
                {
                    "name": "C6",
                    "midi": 84,
                    "time": 95.8388975000002,
                    "velocity": 0.4330708661417323,
                    "duration": 0.09632049999999026
                },
                {
                    "name": "C5",
                    "midi": 72,
                    "time": 95.93521800000019,
                    "velocity": 0.3700787401574803,
                    "duration": 0.5297627500000033
                },
                {
                    "name": "E5",
                    "midi": 76,
                    "time": 96.4649807500002,
                    "velocity": 0.29133858267716534,
                    "duration": 0.04816024999999513
                },
                {
                    "name": "D5",
                    "midi": 74,
                    "time": 96.51314100000019,
                    "velocity": 0.33858267716535434,
                    "duration": 0.48160250000000815
                },
                {
                    "name": "B4",
                    "midi": 71,
                    "time": 96.51314100000019,
                    "velocity": 0.33858267716535434,
                    "duration": 0.3852820000000037
                },
                {
                    "name": "C5",
                    "midi": 72,
                    "time": 96.9947435000002,
                    "velocity": 0.29133858267716534,
                    "duration": 0.0923071458333311
                },
                {
                    "name": "C5",
                    "midi": 72,
                    "time": 97.0910640000002,
                    "velocity": 0.5590551181102362,
                    "duration": 0.10595254999999781
                },
                {
                    "name": "E5",
                    "midi": 76,
                    "time": 97.1873845000002,
                    "velocity": 0.5039370078740157,
                    "duration": 0.1059525499999836
                },
                {
                    "name": "G5",
                    "midi": 79,
                    "time": 97.2837050000002,
                    "velocity": 0.5275590551181102,
                    "duration": 0.1059525499999836
                },
                {
                    "name": "C6",
                    "midi": 84,
                    "time": 97.38002550000019,
                    "velocity": 0.5354330708661418,
                    "duration": 0.1059525499999836
                },
                {
                    "name": "B5",
                    "midi": 83,
                    "time": 97.47634600000018,
                    "velocity": 0.5433070866141733,
                    "duration": 0.1059525499999836
                },
                {
                    "name": "A5",
                    "midi": 81,
                    "time": 97.57266650000017,
                    "velocity": 0.5433070866141733,
                    "duration": 0.1059525499999836
                },
                {
                    "name": "G5",
                    "midi": 79,
                    "time": 97.66898700000016,
                    "velocity": 0.5590551181102362,
                    "duration": 0.1059525499999836
                },
                {
                    "name": "A5",
                    "midi": 81,
                    "time": 97.76530750000015,
                    "velocity": 0.5275590551181102,
                    "duration": 0.1059525499999836
                },
                {
                    "name": "G5",
                    "midi": 79,
                    "time": 97.86162800000014,
                    "velocity": 0.5275590551181102,
                    "duration": 0.1059525499999836
                },
                {
                    "name": "F5",
                    "midi": 77,
                    "time": 97.95794850000013,
                    "velocity": 0.5275590551181102,
                    "duration": 0.1059525499999836
                },
                {
                    "name": "E5",
                    "midi": 76,
                    "time": 98.05426900000012,
                    "velocity": 0.5275590551181102,
                    "duration": 0.1059525499999836
                },
                {
                    "name": "D5",
                    "midi": 74,
                    "time": 98.15058950000011,
                    "velocity": 0.5275590551181102,
                    "duration": 0.09632049999999026
                },
                {
                    "name": "C5",
                    "midi": 72,
                    "time": 98.2469100000001,
                    "velocity": 0.5590551181102362,
                    "duration": 0.10595254999999781
                },
                {
                    "name": "E5",
                    "midi": 76,
                    "time": 98.3432305000001,
                    "velocity": 0.5039370078740157,
                    "duration": 0.1059525499999836
                },
                {
                    "name": "D5",
                    "midi": 74,
                    "time": 98.4395510000001,
                    "velocity": 0.5039370078740157,
                    "duration": 0.1059525499999836
                },
                {
                    "name": "C5",
                    "midi": 72,
                    "time": 98.53587150000008,
                    "velocity": 0.5354330708661418,
                    "duration": 0.1059525499999836
                },
                {
                    "name": "B4",
                    "midi": 71,
                    "time": 98.63219200000007,
                    "velocity": 0.5039370078740157,
                    "duration": 0.1059525499999836
                },
                {
                    "name": "A4",
                    "midi": 69,
                    "time": 98.72851250000006,
                    "velocity": 0.5039370078740157,
                    "duration": 0.1059525499999836
                },
                {
                    "name": "G4",
                    "midi": 67,
                    "time": 98.82483300000005,
                    "velocity": 0.5433070866141733,
                    "duration": 0.1059525499999836
                },
                {
                    "name": "A4",
                    "midi": 69,
                    "time": 98.92115350000005,
                    "velocity": 0.49606299212598426,
                    "duration": 0.1059525499999836
                },
                {
                    "name": "G4",
                    "midi": 67,
                    "time": 99.01747400000004,
                    "velocity": 0.49606299212598426,
                    "duration": 0.1059525499999836
                },
                {
                    "name": "F4",
                    "midi": 65,
                    "time": 99.11379450000003,
                    "velocity": 0.49606299212598426,
                    "duration": 0.1059525499999836
                },
                {
                    "name": "E4",
                    "midi": 64,
                    "time": 99.21011500000002,
                    "velocity": 0.49606299212598426,
                    "duration": 0.1059525499999836
                },
                {
                    "name": "D4",
                    "midi": 62,
                    "time": 99.3064355,
                    "velocity": 0.49606299212598426,
                    "duration": 0.09632049999999026
                },
                {
                    "name": "C4",
                    "midi": 60,
                    "time": 99.402756,
                    "velocity": 0.5590551181102362,
                    "duration": 0.10595254999999781
                },
                {
                    "name": "E4",
                    "midi": 64,
                    "time": 99.4990765,
                    "velocity": 0.49606299212598426,
                    "duration": 0.1059525499999836
                },
                {
                    "name": "D4",
                    "midi": 62,
                    "time": 99.59539699999999,
                    "velocity": 0.49606299212598426,
                    "duration": 0.1059525499999836
                },
                {
                    "name": "C4",
                    "midi": 60,
                    "time": 99.69171749999998,
                    "velocity": 0.49606299212598426,
                    "duration": 0.1059525499999836
                },
                {
                    "name": "B3",
                    "midi": 59,
                    "time": 99.78803799999997,
                    "velocity": 0.49606299212598426,
                    "duration": 0.1059525499999836
                },
                {
                    "name": "A3",
                    "midi": 57,
                    "time": 99.88435849999996,
                    "velocity": 0.5039370078740157,
                    "duration": 0.1059525499999836
                },
                {
                    "name": "G3",
                    "midi": 55,
                    "time": 99.98067899999995,
                    "velocity": 0.5590551181102362,
                    "duration": 0.1059525499999836
                },
                {
                    "name": "A3",
                    "midi": 57,
                    "time": 100.07699949999994,
                    "velocity": 0.5039370078740157,
                    "duration": 0.1059525499999836
                },
                {
                    "name": "G3",
                    "midi": 55,
                    "time": 100.17331999999993,
                    "velocity": 0.5039370078740157,
                    "duration": 0.1059525499999836
                },
                {
                    "name": "F3",
                    "midi": 53,
                    "time": 100.26964049999992,
                    "velocity": 0.5039370078740157,
                    "duration": 0.1059525499999836
                },
                {
                    "name": "E3",
                    "midi": 52,
                    "time": 100.36596099999991,
                    "velocity": 0.5039370078740157,
                    "duration": 0.1059525499999836
                },
                {
                    "name": "D3",
                    "midi": 50,
                    "time": 100.4622814999999,
                    "velocity": 0.5039370078740157,
                    "duration": 0.09632049999999026
                },
                {
                    "name": "C3",
                    "midi": 48,
                    "time": 100.5586019999999,
                    "velocity": 0.6377952755905512,
                    "duration": 0.09632050000000447
                },
                {
                    "name": "E3",
                    "midi": 52,
                    "time": 100.7512429999999,
                    "velocity": 0.5511811023622047,
                    "duration": 0.09632050000000447
                },
                {
                    "name": "G3",
                    "midi": 55,
                    "time": 100.94388399999991,
                    "velocity": 0.5511811023622047,
                    "duration": 0.09632050000000447
                },
                {
                    "name": "C4",
                    "midi": 60,
                    "time": 101.13652499999992,
                    "velocity": 0.6141732283464567,
                    "duration": 0.09632050000000447
                },
                {
                    "name": "E4",
                    "midi": 64,
                    "time": 101.32916599999993,
                    "velocity": 0.5511811023622047,
                    "duration": 0.09632050000000447
                },
                {
                    "name": "G4",
                    "midi": 67,
                    "time": 101.52180699999994,
                    "velocity": 0.5511811023622047,
                    "duration": 0.09632050000000447
                },
                {
                    "name": "C5",
                    "midi": 72,
                    "time": 101.71444799999995,
                    "velocity": 0.6929133858267716,
                    "duration": 0.19264099999999473
                },
                {
                    "name": "E5",
                    "midi": 76,
                    "time": 102.29237099999995,
                    "velocity": 0.5433070866141733,
                    "duration": 0.3852820000000037
                },
                {
                    "name": "G5",
                    "midi": 79,
                    "time": 102.29237099999995,
                    "velocity": 0.6456692913385826,
                    "duration": 0.3852820000000037
                },
                {
                    "name": "C5",
                    "midi": 72,
                    "time": 102.29237099999995,
                    "velocity": 0.5433070866141733,
                    "duration": 0.3852820000000037
                },
                {
                    "name": "G4",
                    "midi": 67,
                    "time": 102.29237099999995,
                    "velocity": 0.5433070866141733,
                    "duration": 0.3852820000000037
                },
                {
                    "name": "G5",
                    "midi": 79,
                    "time": 102.87029399999994,
                    "velocity": 0.5826771653543307,
                    "duration": 0.3852820000000037
                },
                {
                    "name": "E5",
                    "midi": 76,
                    "time": 102.87029399999994,
                    "velocity": 0.5826771653543307,
                    "duration": 0.3852820000000037
                },
                {
                    "name": "C6",
                    "midi": 84,
                    "time": 102.87029399999994,
                    "velocity": 0.6771653543307087,
                    "duration": 0.3852820000000037
                },
                {
                    "name": "C5",
                    "midi": 72,
                    "time": 102.87029399999994,
                    "velocity": 0.5669291338582677,
                    "duration": 0.3852820000000037
                },
                {
                    "name": "C6",
                    "midi": 84,
                    "time": 104.12246049999995,
                    "velocity": 0.5196850393700787,
                    "duration": 0.10595254999999781
                },
                {
                    "name": "B5",
                    "midi": 83,
                    "time": 104.21878099999995,
                    "velocity": 0.5354330708661418,
                    "duration": 0.1059525499999836
                },
                {
                    "name": "C6",
                    "midi": 84,
                    "time": 104.31510149999994,
                    "velocity": 0.5433070866141733,
                    "duration": 0.1059525499999836
                },
                {
                    "name": "F6",
                    "midi": 89,
                    "time": 104.41142199999993,
                    "velocity": 0.5511811023622047,
                    "duration": 0.1059525499999836
                },
                {
                    "name": "C6",
                    "midi": 84,
                    "time": 104.50774249999992,
                    "velocity": 0.49606299212598426,
                    "duration": 0.1059525499999836
                },
                {
                    "name": "A#5",
                    "midi": 82,
                    "time": 104.60406299999991,
                    "velocity": 0.5511811023622047,
                    "duration": 0.1059525499999836
                },
                {
                    "name": "A5",
                    "midi": 81,
                    "time": 104.7003834999999,
                    "velocity": 0.5196850393700787,
                    "duration": 0.1059525499999836
                },
                {
                    "name": "G#5",
                    "midi": 80,
                    "time": 104.79670399999989,
                    "velocity": 0.5039370078740157,
                    "duration": 0.1059525499999836
                },
                {
                    "name": "A5",
                    "midi": 81,
                    "time": 104.89302449999988,
                    "velocity": 0.5039370078740157,
                    "duration": 0.1059525499999836
                },
                {
                    "name": "C6",
                    "midi": 84,
                    "time": 104.98934499999987,
                    "velocity": 0.5511811023622047,
                    "duration": 0.1059525499999836
                },
                {
                    "name": "A5",
                    "midi": 81,
                    "time": 105.08566549999986,
                    "velocity": 0.5039370078740157,
                    "duration": 0.1059525499999836
                },
                {
                    "name": "G5",
                    "midi": 79,
                    "time": 105.18198599999985,
                    "velocity": 0.5511811023622047,
                    "duration": 0.1059525499999836
                },
                {
                    "name": "F5",
                    "midi": 77,
                    "time": 105.27830649999984,
                    "velocity": 0.5039370078740157,
                    "duration": 0.1059525499999836
                },
                {
                    "name": "E5",
                    "midi": 76,
                    "time": 105.37462699999983,
                    "velocity": 0.5039370078740157,
                    "duration": 0.1059525499999836
                },
                {
                    "name": "F5",
                    "midi": 77,
                    "time": 105.47094749999982,
                    "velocity": 0.5039370078740157,
                    "duration": 0.1059525499999836
                },
                {
                    "name": "A5",
                    "midi": 81,
                    "time": 105.56726799999981,
                    "velocity": 0.5511811023622047,
                    "duration": 0.1059525499999836
                },
                {
                    "name": "F5",
                    "midi": 77,
                    "time": 105.6635884999998,
                    "velocity": 0.5118110236220472,
                    "duration": 0.1059525499999836
                },
                {
                    "name": "D5",
                    "midi": 74,
                    "time": 105.7599089999998,
                    "velocity": 0.5511811023622047,
                    "duration": 0.1059525499999836
                },
                {
                    "name": "C5",
                    "midi": 72,
                    "time": 105.85622949999978,
                    "velocity": 0.5118110236220472,
                    "duration": 0.1059525499999836
                },
                {
                    "name": "B4",
                    "midi": 71,
                    "time": 105.95254999999977,
                    "velocity": 0.5118110236220472,
                    "duration": 0.1059525499999836
                },
                {
                    "name": "C5",
                    "midi": 72,
                    "time": 106.04887049999977,
                    "velocity": 0.5118110236220472,
                    "duration": 0.1059525499999836
                },
                {
                    "name": "F5",
                    "midi": 77,
                    "time": 106.14519099999976,
                    "velocity": 0.5511811023622047,
                    "duration": 0.1059525499999836
                },
                {
                    "name": "C5",
                    "midi": 72,
                    "time": 106.24151149999975,
                    "velocity": 0.5118110236220472,
                    "duration": 0.1059525499999836
                },
                {
                    "name": "A#4",
                    "midi": 70,
                    "time": 106.33783199999974,
                    "velocity": 0.5511811023622047,
                    "duration": 0.1059525499999836
                },
                {
                    "name": "A4",
                    "midi": 69,
                    "time": 106.43415249999973,
                    "velocity": 0.5196850393700787,
                    "duration": 0.1059525499999836
                },
                {
                    "name": "G#4",
                    "midi": 68,
                    "time": 106.53047299999972,
                    "velocity": 0.5196850393700787,
                    "duration": 0.1059525499999836
                },
                {
                    "name": "A4",
                    "midi": 69,
                    "time": 106.6267934999997,
                    "velocity": 0.5196850393700787,
                    "duration": 0.1059525499999836
                },
                {
                    "name": "C5",
                    "midi": 72,
                    "time": 106.7231139999997,
                    "velocity": 0.5511811023622047,
                    "duration": 0.1059525499999836
                },
                {
                    "name": "A4",
                    "midi": 69,
                    "time": 106.81943449999969,
                    "velocity": 0.5039370078740157,
                    "duration": 0.1059525499999836
                },
                {
                    "name": "F4",
                    "midi": 65,
                    "time": 106.91575499999968,
                    "velocity": 0.5511811023622047,
                    "duration": 0.09632049999999026
                },
                {
                    "name": "F5",
                    "midi": 77,
                    "time": 107.01207549999967,
                    "velocity": 0.5039370078740157,
                    "duration": 0.09632050000000447
                },
                {
                    "name": "E4",
                    "midi": 64,
                    "time": 107.10839599999967,
                    "velocity": 0.5511811023622047,
                    "duration": 0.09632050000000447
                },
                {
                    "name": "F5",
                    "midi": 77,
                    "time": 107.20471649999968,
                    "velocity": 0.5039370078740157,
                    "duration": 0.09632050000000447
                },
                {
                    "name": "F4",
                    "midi": 65,
                    "time": 107.30103699999968,
                    "velocity": 0.5511811023622047,
                    "duration": 0.09632050000000447
                },
                {
                    "name": "F5",
                    "midi": 77,
                    "time": 107.39735749999969,
                    "velocity": 0.5039370078740157,
                    "duration": 0.09632050000000447
                },
                {
                    "name": "G4",
                    "midi": 67,
                    "time": 107.49367799999969,
                    "velocity": 0.5511811023622047,
                    "duration": 0.09632050000000447
                },
                {
                    "name": "F5",
                    "midi": 77,
                    "time": 107.5899984999997,
                    "velocity": 0.5039370078740157,
                    "duration": 0.09632050000000447
                },
                {
                    "name": "F4",
                    "midi": 65,
                    "time": 107.6863189999997,
                    "velocity": 0.5118110236220472,
                    "duration": 0.09632050000000447
                },
                {
                    "name": "F5",
                    "midi": 77,
                    "time": 107.7826394999997,
                    "velocity": 0.4566929133858268,
                    "duration": 0.09632050000000447
                },
                {
                    "name": "G4",
                    "midi": 67,
                    "time": 107.87895999999971,
                    "velocity": 0.5275590551181102,
                    "duration": 0.09632050000000447
                },
                {
                    "name": "F5",
                    "midi": 77,
                    "time": 107.97528049999971,
                    "velocity": 0.48031496062992124,
                    "duration": 0.09632050000000447
                },
                {
                    "name": "A4",
                    "midi": 69,
                    "time": 108.07160099999972,
                    "velocity": 0.5511811023622047,
                    "duration": 0.09632050000000447
                },
                {
                    "name": "F5",
                    "midi": 77,
                    "time": 108.16792149999972,
                    "velocity": 0.47244094488188976,
                    "duration": 0.09632050000000447
                },
                {
                    "name": "G4",
                    "midi": 67,
                    "time": 108.26424199999973,
                    "velocity": 0.5196850393700787,
                    "duration": 0.09632050000000447
                },
                {
                    "name": "F5",
                    "midi": 77,
                    "time": 108.36056249999973,
                    "velocity": 0.4881889763779528,
                    "duration": 0.09632050000000447
                },
                {
                    "name": "A4",
                    "midi": 69,
                    "time": 108.45688299999973,
                    "velocity": 0.5275590551181102,
                    "duration": 0.09632050000000447
                },
                {
                    "name": "F5",
                    "midi": 77,
                    "time": 108.55320349999974,
                    "velocity": 0.4881889763779528,
                    "duration": 0.09632050000000447
                },
                {
                    "name": "A#4",
                    "midi": 70,
                    "time": 108.64952399999974,
                    "velocity": 0.5826771653543307,
                    "duration": 0.09632050000000447
                },
                {
                    "name": "F5",
                    "midi": 77,
                    "time": 108.74584449999975,
                    "velocity": 0.48031496062992124,
                    "duration": 0.09632050000000447
                },
                {
                    "name": "A#4",
                    "midi": 70,
                    "time": 108.84216499999975,
                    "velocity": 0.5118110236220472,
                    "duration": 0.09632050000000447
                },
                {
                    "name": "F5",
                    "midi": 77,
                    "time": 108.93848549999976,
                    "velocity": 0.48031496062992124,
                    "duration": 0.09632050000000447
                },
                {
                    "name": "A4",
                    "midi": 69,
                    "time": 109.03480599999976,
                    "velocity": 0.5118110236220472,
                    "duration": 0.09632050000000447
                },
                {
                    "name": "F5",
                    "midi": 77,
                    "time": 109.13112649999977,
                    "velocity": 0.47244094488188976,
                    "duration": 0.09632050000000447
                },
                {
                    "name": "A#4",
                    "midi": 70,
                    "time": 109.22744699999977,
                    "velocity": 0.5511811023622047,
                    "duration": 0.09632050000000447
                },
                {
                    "name": "F5",
                    "midi": 77,
                    "time": 109.32376749999978,
                    "velocity": 0.47244094488188976,
                    "duration": 0.09632050000000447
                },
                {
                    "name": "A#4",
                    "midi": 70,
                    "time": 109.42008799999978,
                    "velocity": 0.5118110236220472,
                    "duration": 0.09632050000000447
                },
                {
                    "name": "F5",
                    "midi": 77,
                    "time": 109.51640849999978,
                    "velocity": 0.47244094488188976,
                    "duration": 0.09632050000000447
                },
                {
                    "name": "A4",
                    "midi": 69,
                    "time": 109.61272899999979,
                    "velocity": 0.5118110236220472,
                    "duration": 0.09632050000000447
                },
                {
                    "name": "F5",
                    "midi": 77,
                    "time": 109.7090494999998,
                    "velocity": 0.4251968503937008,
                    "duration": 0.09632050000000447
                },
                {
                    "name": "G#4",
                    "midi": 68,
                    "time": 109.8053699999998,
                    "velocity": 0.3858267716535433,
                    "duration": 0.09632050000000447
                },
                {
                    "name": "F5",
                    "midi": 77,
                    "time": 109.9016904999998,
                    "velocity": 0.3228346456692913,
                    "duration": 0.09632050000000447
                },
                {
                    "name": "G#4",
                    "midi": 68,
                    "time": 109.9980109999998,
                    "velocity": 0.3858267716535433,
                    "duration": 0.09632050000000447
                },
                {
                    "name": "F5",
                    "midi": 77,
                    "time": 110.09433149999981,
                    "velocity": 0.33070866141732286,
                    "duration": 0.09632050000000447
                },
                {
                    "name": "G#4",
                    "midi": 68,
                    "time": 110.19065199999982,
                    "velocity": 0.3858267716535433,
                    "duration": 0.09632050000000447
                },
                {
                    "name": "F5",
                    "midi": 77,
                    "time": 110.28697249999982,
                    "velocity": 0.31496062992125984,
                    "duration": 0.09632050000000447
                },
                {
                    "name": "G4",
                    "midi": 67,
                    "time": 110.38329299999982,
                    "velocity": 0.3779527559055118,
                    "duration": 0.19264099999999473
                },
                {
                    "name": "E5",
                    "midi": 76,
                    "time": 110.38329299999982,
                    "velocity": 0.3779527559055118,
                    "duration": 0.19264099999999473
                },
                {
                    "name": "C6",
                    "midi": 84,
                    "time": 111.05753649999983,
                    "velocity": 0.5196850393700787,
                    "duration": 0.10595254999999781
                },
                {
                    "name": "B5",
                    "midi": 83,
                    "time": 111.15385699999983,
                    "velocity": 0.5354330708661418,
                    "duration": 0.1059525499999836
                },
                {
                    "name": "C6",
                    "midi": 84,
                    "time": 111.25017749999982,
                    "velocity": 0.5433070866141733,
                    "duration": 0.1059525499999836
                },
                {
                    "name": "F6",
                    "midi": 89,
                    "time": 111.34649799999981,
                    "velocity": 0.5511811023622047,
                    "duration": 0.1059525499999836
                },
                {
                    "name": "C6",
                    "midi": 84,
                    "time": 111.4428184999998,
                    "velocity": 0.49606299212598426,
                    "duration": 0.1059525499999836
                },
                {
                    "name": "A#5",
                    "midi": 82,
                    "time": 111.53913899999979,
                    "velocity": 0.5511811023622047,
                    "duration": 0.1059525499999836
                },
                {
                    "name": "A5",
                    "midi": 81,
                    "time": 111.63545949999978,
                    "velocity": 0.5196850393700787,
                    "duration": 0.1059525499999836
                },
                {
                    "name": "G#5",
                    "midi": 80,
                    "time": 111.73177999999977,
                    "velocity": 0.5039370078740157,
                    "duration": 0.1059525499999836
                },
                {
                    "name": "A5",
                    "midi": 81,
                    "time": 111.82810049999976,
                    "velocity": 0.5039370078740157,
                    "duration": 0.1059525499999836
                },
                {
                    "name": "C6",
                    "midi": 84,
                    "time": 111.92442099999975,
                    "velocity": 0.5511811023622047,
                    "duration": 0.1059525499999836
                },
                {
                    "name": "A5",
                    "midi": 81,
                    "time": 112.02074149999974,
                    "velocity": 0.5039370078740157,
                    "duration": 0.1059525499999836
                },
                {
                    "name": "G5",
                    "midi": 79,
                    "time": 112.11706199999973,
                    "velocity": 0.5511811023622047,
                    "duration": 0.1059525499999836
                },
                {
                    "name": "F5",
                    "midi": 77,
                    "time": 112.21338249999972,
                    "velocity": 0.5039370078740157,
                    "duration": 0.1059525499999836
                },
                {
                    "name": "E5",
                    "midi": 76,
                    "time": 112.30970299999971,
                    "velocity": 0.5039370078740157,
                    "duration": 0.1059525499999836
                },
                {
                    "name": "F5",
                    "midi": 77,
                    "time": 112.4060234999997,
                    "velocity": 0.5039370078740157,
                    "duration": 0.1059525499999836
                },
                {
                    "name": "A5",
                    "midi": 81,
                    "time": 112.5023439999997,
                    "velocity": 0.5511811023622047,
                    "duration": 0.1059525499999836
                },
                {
                    "name": "F5",
                    "midi": 77,
                    "time": 112.59866449999969,
                    "velocity": 0.5118110236220472,
                    "duration": 0.1059525499999836
                },
                {
                    "name": "D5",
                    "midi": 74,
                    "time": 112.69498499999968,
                    "velocity": 0.5511811023622047,
                    "duration": 0.1059525499999836
                },
                {
                    "name": "C5",
                    "midi": 72,
                    "time": 112.79130549999967,
                    "velocity": 0.5118110236220472,
                    "duration": 0.1059525499999836
                },
                {
                    "name": "B4",
                    "midi": 71,
                    "time": 112.88762599999966,
                    "velocity": 0.5118110236220472,
                    "duration": 0.1059525499999836
                },
                {
                    "name": "C5",
                    "midi": 72,
                    "time": 112.98394649999965,
                    "velocity": 0.5118110236220472,
                    "duration": 0.1059525499999836
                },
                {
                    "name": "F5",
                    "midi": 77,
                    "time": 113.08026699999964,
                    "velocity": 0.5511811023622047,
                    "duration": 0.1059525499999836
                },
                {
                    "name": "C5",
                    "midi": 72,
                    "time": 113.17658749999963,
                    "velocity": 0.5118110236220472,
                    "duration": 0.1059525499999836
                },
                {
                    "name": "A#4",
                    "midi": 70,
                    "time": 113.27290799999962,
                    "velocity": 0.5511811023622047,
                    "duration": 0.1059525499999836
                },
                {
                    "name": "A4",
                    "midi": 69,
                    "time": 113.36922849999961,
                    "velocity": 0.5196850393700787,
                    "duration": 0.1059525499999836
                },
                {
                    "name": "G#4",
                    "midi": 68,
                    "time": 113.4655489999996,
                    "velocity": 0.5196850393700787,
                    "duration": 0.1059525499999836
                },
                {
                    "name": "A4",
                    "midi": 69,
                    "time": 113.56186949999959,
                    "velocity": 0.5196850393700787,
                    "duration": 0.1059525499999836
                },
                {
                    "name": "C5",
                    "midi": 72,
                    "time": 113.65818999999958,
                    "velocity": 0.5511811023622047,
                    "duration": 0.1059525499999836
                },
                {
                    "name": "A4",
                    "midi": 69,
                    "time": 113.75451049999957,
                    "velocity": 0.5039370078740157,
                    "duration": 0.1059525499999836
                },
                {
                    "name": "F4",
                    "midi": 65,
                    "time": 113.85083099999956,
                    "velocity": 0.5511811023622047,
                    "duration": 0.09632049999999026
                },
                {
                    "name": "F5",
                    "midi": 77,
                    "time": 113.94715149999955,
                    "velocity": 0.5039370078740157,
                    "duration": 0.09632050000000447
                },
                {
                    "name": "E4",
                    "midi": 64,
                    "time": 114.04347199999955,
                    "velocity": 0.5511811023622047,
                    "duration": 0.09632050000000447
                },
                {
                    "name": "F5",
                    "midi": 77,
                    "time": 114.13979249999956,
                    "velocity": 0.5039370078740157,
                    "duration": 0.09632050000000447
                },
                {
                    "name": "F4",
                    "midi": 65,
                    "time": 114.23611299999956,
                    "velocity": 0.5511811023622047,
                    "duration": 0.09632050000000447
                },
                {
                    "name": "F5",
                    "midi": 77,
                    "time": 114.33243349999957,
                    "velocity": 0.5039370078740157,
                    "duration": 0.09632050000000447
                },
                {
                    "name": "G4",
                    "midi": 67,
                    "time": 114.42875399999957,
                    "velocity": 0.5511811023622047,
                    "duration": 0.09632050000000447
                },
                {
                    "name": "F5",
                    "midi": 77,
                    "time": 114.52507449999958,
                    "velocity": 0.5039370078740157,
                    "duration": 0.09632050000000447
                },
                {
                    "name": "F4",
                    "midi": 65,
                    "time": 114.62139499999958,
                    "velocity": 0.5118110236220472,
                    "duration": 0.09632050000000447
                },
                {
                    "name": "F5",
                    "midi": 77,
                    "time": 114.71771549999958,
                    "velocity": 0.4566929133858268,
                    "duration": 0.09632050000000447
                },
                {
                    "name": "G4",
                    "midi": 67,
                    "time": 114.81403599999959,
                    "velocity": 0.5275590551181102,
                    "duration": 0.09632050000000447
                },
                {
                    "name": "F5",
                    "midi": 77,
                    "time": 114.9103564999996,
                    "velocity": 0.48031496062992124,
                    "duration": 0.09632050000000447
                },
                {
                    "name": "A4",
                    "midi": 69,
                    "time": 115.0066769999996,
                    "velocity": 0.5511811023622047,
                    "duration": 0.09632050000000447
                },
                {
                    "name": "F5",
                    "midi": 77,
                    "time": 115.1029974999996,
                    "velocity": 0.47244094488188976,
                    "duration": 0.09632050000000447
                },
                {
                    "name": "G4",
                    "midi": 67,
                    "time": 115.19931799999961,
                    "velocity": 0.5196850393700787,
                    "duration": 0.09632050000000447
                },
                {
                    "name": "F5",
                    "midi": 77,
                    "time": 115.29563849999961,
                    "velocity": 0.4881889763779528,
                    "duration": 0.09632050000000447
                },
                {
                    "name": "A4",
                    "midi": 69,
                    "time": 115.39195899999962,
                    "velocity": 0.5275590551181102,
                    "duration": 0.09632050000000447
                },
                {
                    "name": "F5",
                    "midi": 77,
                    "time": 115.48827949999962,
                    "velocity": 0.4881889763779528,
                    "duration": 0.09632050000000447
                },
                {
                    "name": "A#4",
                    "midi": 70,
                    "time": 115.58459999999963,
                    "velocity": 0.5826771653543307,
                    "duration": 0.09632050000000447
                },
                {
                    "name": "F5",
                    "midi": 77,
                    "time": 115.68092049999963,
                    "velocity": 0.48031496062992124,
                    "duration": 0.09632050000000447
                },
                {
                    "name": "A#4",
                    "midi": 70,
                    "time": 115.77724099999963,
                    "velocity": 0.5118110236220472,
                    "duration": 0.09632050000000447
                },
                {
                    "name": "F5",
                    "midi": 77,
                    "time": 115.87356149999964,
                    "velocity": 0.48031496062992124,
                    "duration": 0.09632050000000447
                },
                {
                    "name": "A4",
                    "midi": 69,
                    "time": 115.96988199999964,
                    "velocity": 0.5118110236220472,
                    "duration": 0.09632050000000447
                },
                {
                    "name": "F5",
                    "midi": 77,
                    "time": 116.06620249999965,
                    "velocity": 0.47244094488188976,
                    "duration": 0.09632050000000447
                },
                {
                    "name": "A#4",
                    "midi": 70,
                    "time": 116.16252299999965,
                    "velocity": 0.5511811023622047,
                    "duration": 0.09632050000000447
                },
                {
                    "name": "F5",
                    "midi": 77,
                    "time": 116.25884349999966,
                    "velocity": 0.47244094488188976,
                    "duration": 0.09632050000000447
                },
                {
                    "name": "A#4",
                    "midi": 70,
                    "time": 116.35516399999966,
                    "velocity": 0.5118110236220472,
                    "duration": 0.09632050000000447
                },
                {
                    "name": "F5",
                    "midi": 77,
                    "time": 116.45148449999967,
                    "velocity": 0.47244094488188976,
                    "duration": 0.09632050000000447
                },
                {
                    "name": "A4",
                    "midi": 69,
                    "time": 116.54780499999967,
                    "velocity": 0.5118110236220472,
                    "duration": 0.09632050000000447
                },
                {
                    "name": "F5",
                    "midi": 77,
                    "time": 116.64412549999967,
                    "velocity": 0.36220472440944884,
                    "duration": 0.09632050000000447
                },
                {
                    "name": "G#4",
                    "midi": 68,
                    "time": 116.74044599999968,
                    "velocity": 0.3543307086614173,
                    "duration": 0.09632050000000447
                },
                {
                    "name": "F5",
                    "midi": 77,
                    "time": 116.83676649999968,
                    "velocity": 0.28346456692913385,
                    "duration": 0.09632050000000447
                },
                {
                    "name": "G4",
                    "midi": 67,
                    "time": 117.31836899999969,
                    "velocity": 0.33070866141732286,
                    "duration": 0.09632050000000447
                },
                {
                    "name": "E5",
                    "midi": 76,
                    "time": 117.4146894999997,
                    "velocity": 0.2677165354330709,
                    "duration": 0.09632050000000447
                },
                {
                    "name": "F#4",
                    "midi": 66,
                    "time": 117.8962919999997,
                    "velocity": 0.3464566929133858,
                    "duration": 0.09632050000000447
                },
                {
                    "name": "D#5",
                    "midi": 75,
                    "time": 117.99261249999971,
                    "velocity": 0.2755905511811024,
                    "duration": 0.09632050000000447
                },
                {
                    "name": "D4",
                    "midi": 62,
                    "time": 118.66685599999971,
                    "velocity": 0.4566929133858268,
                    "duration": 0.09632050000000447
                },
                {
                    "name": "G4",
                    "midi": 67,
                    "time": 118.76317649999972,
                    "velocity": 0.4645669291338583,
                    "duration": 0.09632050000000447
                },
                {
                    "name": "A#4",
                    "midi": 70,
                    "time": 118.85949699999972,
                    "velocity": 0.47244094488188976,
                    "duration": 0.09632050000000447
                },
                {
                    "name": "D5",
                    "midi": 74,
                    "time": 118.95581749999972,
                    "velocity": 0.48031496062992124,
                    "duration": 0.09632050000000447
                },
                {
                    "name": "C5",
                    "midi": 72,
                    "time": 119.05213799999973,
                    "velocity": 0.4881889763779528,
                    "duration": 0.10595254999999781
                },
                {
                    "name": "A#4",
                    "midi": 70,
                    "time": 119.14845849999973,
                    "velocity": 0.4881889763779528,
                    "duration": 0.1059525499999836
                },
                {
                    "name": "A4",
                    "midi": 69,
                    "time": 119.24477899999972,
                    "velocity": 0.47244094488188976,
                    "duration": 0.1059525499999836
                },
                {
                    "name": "G4",
                    "midi": 67,
                    "time": 119.34109949999971,
                    "velocity": 0.4645669291338583,
                    "duration": 0.1059525499999836
                },
                {
                    "name": "F4",
                    "midi": 65,
                    "time": 119.4374199999997,
                    "velocity": 0.44881889763779526,
                    "duration": 0.1059525499999836
                },
                {
                    "name": "E4",
                    "midi": 64,
                    "time": 119.5337404999997,
                    "velocity": 0.4330708661417323,
                    "duration": 0.1059525499999836
                },
                {
                    "name": "F4",
                    "midi": 65,
                    "time": 119.63006099999969,
                    "velocity": 0.4566929133858268,
                    "duration": 0.09632049999999026
                },
                {
                    "name": "C4",
                    "midi": 60,
                    "time": 119.82270199999968,
                    "velocity": 0.3858267716535433,
                    "duration": 0.19264099999999473
                },
                {
                    "name": "C4",
                    "midi": 60,
                    "time": 120.01534299999967,
                    "velocity": 0.3858267716535433,
                    "duration": 0.1444807499999996
                },
                {
                    "name": "E4",
                    "midi": 64,
                    "time": 120.15982374999967,
                    "velocity": 0.3228346456692913,
                    "duration": 0.04816024999999513
                },
                {
                    "name": "A#4",
                    "midi": 70,
                    "time": 120.20798399999967,
                    "velocity": 0.3858267716535433,
                    "duration": 0.7705639999999931
                },
                {
                    "name": "A4",
                    "midi": 69,
                    "time": 120.97854799999966,
                    "velocity": 0.33858267716535434,
                    "duration": 0.09632050000000447
                },
                {
                    "name": "G4",
                    "midi": 67,
                    "time": 121.17118899999967,
                    "velocity": 0.33858267716535434,
                    "duration": 0.09632050000000447
                },
                {
                    "name": "G4",
                    "midi": 67,
                    "time": 121.36382999999968,
                    "velocity": 0.3858267716535433,
                    "duration": 0.19264099999999473
                },
                {
                    "name": "F4",
                    "midi": 65,
                    "time": 121.55647099999968,
                    "velocity": 0.3543307086614173,
                    "duration": 0.3852820000000037
                },
                {
                    "name": "F4",
                    "midi": 65,
                    "time": 121.94175299999968,
                    "velocity": 0.3543307086614173,
                    "duration": 0.5297627500000033
                },
                {
                    "name": "E4",
                    "midi": 64,
                    "time": 122.47151574999968,
                    "velocity": 0.3228346456692913,
                    "duration": 0.04816024999999513
                },
                {
                    "name": "A#4",
                    "midi": 70,
                    "time": 122.51967599999968,
                    "velocity": 0.3858267716535433,
                    "duration": 0.7705639999999931
                },
                {
                    "name": "A4",
                    "midi": 69,
                    "time": 123.29023999999967,
                    "velocity": 0.33858267716535434,
                    "duration": 0.09632050000000447
                },
                {
                    "name": "G4",
                    "midi": 67,
                    "time": 123.48288099999968,
                    "velocity": 0.33858267716535434,
                    "duration": 0.09632050000000447
                },
                {
                    "name": "B4",
                    "midi": 71,
                    "time": 123.67552199999969,
                    "velocity": 0.4015748031496063,
                    "duration": 0.5779229999999984
                },
                {
                    "name": "C5",
                    "midi": 72,
                    "time": 124.25344499999969,
                    "velocity": 0.3543307086614173,
                    "duration": 0.19264099999999473
                },
                {
                    "name": "E4",
                    "midi": 64,
                    "time": 124.78320774999968,
                    "velocity": 0.3228346456692913,
                    "duration": 0.04816024999999513
                },
                {
                    "name": "A#4",
                    "midi": 70,
                    "time": 124.83136799999967,
                    "velocity": 0.3858267716535433,
                    "duration": 0.7705639999999931
                },
                {
                    "name": "A4",
                    "midi": 69,
                    "time": 125.60193199999966,
                    "velocity": 0.33858267716535434,
                    "duration": 0.09632050000000447
                },
                {
                    "name": "G4",
                    "midi": 67,
                    "time": 125.79457299999967,
                    "velocity": 0.33858267716535434,
                    "duration": 0.09632050000000447
                },
                {
                    "name": "F4",
                    "midi": 65,
                    "time": 125.98721399999968,
                    "velocity": 0.4251968503937008,
                    "duration": 0.3852820000000037
                },
                {
                    "name": "A4",
                    "midi": 69,
                    "time": 126.37249599999969,
                    "velocity": 0.47244094488188976,
                    "duration": 0.5779229999999984
                },
                {
                    "name": "C5",
                    "midi": 72,
                    "time": 126.95041899999968,
                    "velocity": 0.47244094488188976,
                    "duration": 0.5779229999999984
                },
                {
                    "name": "A#4",
                    "midi": 70,
                    "time": 127.52834199999968,
                    "velocity": 0.4566929133858268,
                    "duration": 0.5779230000000126
                },
                {
                    "name": "G4",
                    "midi": 67,
                    "time": 128.1062649999997,
                    "velocity": 0.3937007874015748,
                    "duration": 0.19264100000000894
                },
                {
                    "name": "F4",
                    "midi": 65,
                    "time": 128.2989059999997,
                    "velocity": 0.4409448818897638,
                    "duration": 0.19264100000000894
                },
                {
                    "name": "A3",
                    "midi": 57,
                    "time": 128.68418799999972,
                    "velocity": 0.5590551181102362,
                    "duration": 0.19264100000000894
                },
                {
                    "name": "A#3",
                    "midi": 58,
                    "time": 128.87682899999973,
                    "velocity": 0.6141732283464567,
                    "duration": 0.09632049999999026
                },
                {
                    "name": "G4",
                    "midi": 67,
                    "time": 129.0694699999997,
                    "velocity": 0.5748031496062992,
                    "duration": 0.09632049999999026
                },
                {
                    "name": "B3",
                    "midi": 59,
                    "time": 129.2621109999997,
                    "velocity": 0.5669291338582677,
                    "duration": 0.09632049999999026
                },
                {
                    "name": "C4",
                    "midi": 60,
                    "time": 129.45475199999967,
                    "velocity": 0.6141732283464567,
                    "duration": 0.09632049999999026
                },
                {
                    "name": "A4",
                    "midi": 69,
                    "time": 129.64739299999965,
                    "velocity": 0.5748031496062992,
                    "duration": 0.09632049999999026
                },
                {
                    "name": "C#4",
                    "midi": 61,
                    "time": 129.84003399999963,
                    "velocity": 0.5748031496062992,
                    "duration": 0.09632049999999026
                },
                {
                    "name": "D4",
                    "midi": 62,
                    "time": 130.0326749999996,
                    "velocity": 0.6141732283464567,
                    "duration": 0.09632049999999026
                },
                {
                    "name": "A#4",
                    "midi": 70,
                    "time": 130.2253159999996,
                    "velocity": 0.5669291338582677,
                    "duration": 0.09632049999999026
                },
                {
                    "name": "E4",
                    "midi": 64,
                    "time": 130.41795699999957,
                    "velocity": 0.5669291338582677,
                    "duration": 0.09632049999999026
                },
                {
                    "name": "A#5",
                    "midi": 82,
                    "time": 130.61059799999956,
                    "velocity": 0.5354330708661418,
                    "duration": 0.7705640000000074
                },
                {
                    "name": "A5",
                    "midi": 81,
                    "time": 131.38116199999956,
                    "velocity": 0.4881889763779528,
                    "duration": 0.09632049999999026
                },
                {
                    "name": "G5",
                    "midi": 79,
                    "time": 131.47748249999955,
                    "velocity": 0.48031496062992124,
                    "duration": 0.09632049999999026
                },
                {
                    "name": "F5",
                    "midi": 77,
                    "time": 131.57380299999954,
                    "velocity": 0.4645669291338583,
                    "duration": 0.09632049999999026
                },
                {
                    "name": "E5",
                    "midi": 76,
                    "time": 131.67012349999953,
                    "velocity": 0.44881889763779526,
                    "duration": 0.09632049999999026
                },
                {
                    "name": "F5",
                    "midi": 77,
                    "time": 131.76644399999952,
                    "velocity": 0.4409448818897638,
                    "duration": 0.09632049999999026
                },
                {
                    "name": "G5",
                    "midi": 79,
                    "time": 131.9590849999995,
                    "velocity": 0.3858267716535433,
                    "duration": 0.09632049999999026
                },
                {
                    "name": "A5",
                    "midi": 81,
                    "time": 132.15172599999948,
                    "velocity": 0.4251968503937008,
                    "duration": 0.09632049999999026
                },
                {
                    "name": "C5",
                    "midi": 72,
                    "time": 132.34436699999947,
                    "velocity": 0.36220472440944884,
                    "duration": 0.38528199999998947
                },
                {
                    "name": "A4",
                    "midi": 69,
                    "time": 132.34436699999947,
                    "velocity": 0.36220472440944884,
                    "duration": 0.38528199999998947
                },
                {
                    "name": "A#4",
                    "midi": 70,
                    "time": 132.72964899999945,
                    "velocity": 0.31496062992125984,
                    "duration": 0.19264100000000894
                },
                {
                    "name": "G4",
                    "midi": 67,
                    "time": 132.72964899999945,
                    "velocity": 0.31496062992125984,
                    "duration": 0.19264100000000894
                },
                {
                    "name": "A#4",
                    "midi": 70,
                    "time": 132.92228999999946,
                    "velocity": 0.36220472440944884,
                    "duration": 0.5779229999999984
                },
                {
                    "name": "G4",
                    "midi": 67,
                    "time": 132.92228999999946,
                    "velocity": 0.36220472440944884,
                    "duration": 0.5779229999999984
                },
                {
                    "name": "A4",
                    "midi": 69,
                    "time": 133.50021299999946,
                    "velocity": 0.3228346456692913,
                    "duration": 0.19264100000000894
                },
                {
                    "name": "F4",
                    "midi": 65,
                    "time": 133.50021299999946,
                    "velocity": 0.3228346456692913,
                    "duration": 0.19264100000000894
                },
                {
                    "name": "A3",
                    "midi": 57,
                    "time": 134.46341799999948,
                    "velocity": 0.5590551181102362,
                    "duration": 0.19264100000000894
                },
                {
                    "name": "A#3",
                    "midi": 58,
                    "time": 134.6560589999995,
                    "velocity": 0.6141732283464567,
                    "duration": 0.09632049999999026
                },
                {
                    "name": "G4",
                    "midi": 67,
                    "time": 134.84869999999947,
                    "velocity": 0.5748031496062992,
                    "duration": 0.09632049999999026
                },
                {
                    "name": "B3",
                    "midi": 59,
                    "time": 135.04134099999945,
                    "velocity": 0.5669291338582677,
                    "duration": 0.09632049999999026
                },
                {
                    "name": "C4",
                    "midi": 60,
                    "time": 135.23398199999943,
                    "velocity": 0.6141732283464567,
                    "duration": 0.09632049999999026
                },
                {
                    "name": "A4",
                    "midi": 69,
                    "time": 135.4266229999994,
                    "velocity": 0.5748031496062992,
                    "duration": 0.09632049999999026
                },
                {
                    "name": "C#4",
                    "midi": 61,
                    "time": 135.6192639999994,
                    "velocity": 0.5748031496062992,
                    "duration": 0.09632049999999026
                },
                {
                    "name": "D4",
                    "midi": 62,
                    "time": 135.81190499999937,
                    "velocity": 0.6141732283464567,
                    "duration": 0.09632049999999026
                },
                {
                    "name": "A#4",
                    "midi": 70,
                    "time": 136.00454599999935,
                    "velocity": 0.5669291338582677,
                    "duration": 0.09632049999999026
                },
                {
                    "name": "E4",
                    "midi": 64,
                    "time": 136.19718699999933,
                    "velocity": 0.5669291338582677,
                    "duration": 0.09632049999999026
                },
                {
                    "name": "A#5",
                    "midi": 82,
                    "time": 136.3898279999993,
                    "velocity": 0.5354330708661418,
                    "duration": 0.7705640000000074
                },
                {
                    "name": "A5",
                    "midi": 81,
                    "time": 137.16039199999932,
                    "velocity": 0.4881889763779528,
                    "duration": 0.09632049999999026
                },
                {
                    "name": "G5",
                    "midi": 79,
                    "time": 137.2567124999993,
                    "velocity": 0.48031496062992124,
                    "duration": 0.09632049999999026
                },
                {
                    "name": "F5",
                    "midi": 77,
                    "time": 137.3530329999993,
                    "velocity": 0.4645669291338583,
                    "duration": 0.09632049999999026
                },
                {
                    "name": "E5",
                    "midi": 76,
                    "time": 137.4493534999993,
                    "velocity": 0.44881889763779526,
                    "duration": 0.09632049999999026
                },
                {
                    "name": "F5",
                    "midi": 77,
                    "time": 137.54567399999928,
                    "velocity": 0.4409448818897638,
                    "duration": 0.04816024999999513
                },
                {
                    "name": "G5",
                    "midi": 79,
                    "time": 137.59383424999928,
                    "velocity": 0.3858267716535433,
                    "duration": 0.04816024999999513
                },
                {
                    "name": "A5",
                    "midi": 81,
                    "time": 137.64199449999927,
                    "velocity": 0.3858267716535433,
                    "duration": 0.04816024999999513
                },
                {
                    "name": "D5",
                    "midi": 74,
                    "time": 138.12359699999928,
                    "velocity": 0.36220472440944884,
                    "duration": 0.04816024999999513
                },
                {
                    "name": "E5",
                    "midi": 76,
                    "time": 138.17175724999927,
                    "velocity": 0.2992125984251969,
                    "duration": 0.04816024999999513
                },
                {
                    "name": "F5",
                    "midi": 77,
                    "time": 138.21991749999927,
                    "velocity": 0.2992125984251969,
                    "duration": 0.04816024999999513
                },
                {
                    "name": "F4",
                    "midi": 65,
                    "time": 138.70151999999928,
                    "velocity": 0.3464566929133858,
                    "duration": 0.48160250000000815
                },
                {
                    "name": "A4",
                    "midi": 69,
                    "time": 139.18312249999929,
                    "velocity": 0.30708661417322836,
                    "duration": 0.09632049999999026
                },
                {
                    "name": "E4",
                    "midi": 64,
                    "time": 139.27944299999928,
                    "velocity": 0.28346456692913385,
                    "duration": 0.38528199999998947
                },
                {
                    "name": "G4",
                    "midi": 67,
                    "time": 139.27944299999928,
                    "velocity": 0.3464566929133858,
                    "duration": 0.38528199999998947
                },
                {
                    "name": "F4",
                    "midi": 65,
                    "time": 139.66472499999927,
                    "velocity": 0.3228346456692913,
                    "duration": 0.19264100000000894
                },
                {
                    "name": "F4",
                    "midi": 65,
                    "time": 139.85736599999927,
                    "velocity": 0.3228346456692913,
                    "duration": 0.5779229999999984
                },
                {
                    "name": "A4",
                    "midi": 69,
                    "time": 140.24264799999926,
                    "velocity": 0.30708661417322836,
                    "duration": 0.19264100000000894
                },
                {
                    "name": "E4",
                    "midi": 64,
                    "time": 140.43528899999927,
                    "velocity": 0.29133858267716534,
                    "duration": 0.5779230000000268
                },
                {
                    "name": "C5",
                    "midi": 72,
                    "time": 140.43528899999927,
                    "velocity": 0.3464566929133858,
                    "duration": 0.19264100000000894
                },
                {
                    "name": "A#4",
                    "midi": 70,
                    "time": 140.62792999999928,
                    "velocity": 0.30708661417322836,
                    "duration": 0.19264100000000894
                },
                {
                    "name": "G4",
                    "midi": 67,
                    "time": 140.8205709999993,
                    "velocity": 0.30708661417322836,
                    "duration": 0.19264100000000894
                },
                {
                    "name": "F4",
                    "midi": 65,
                    "time": 141.0132119999993,
                    "velocity": 0.3464566929133858,
                    "duration": 0.5779230000000268
                },
                {
                    "name": "C4",
                    "midi": 60,
                    "time": 141.2058529999993,
                    "velocity": 0.31496062992125984,
                    "duration": 0.1902329874999964
                },
                {
                    "name": "A4",
                    "midi": 69,
                    "time": 141.39849399999932,
                    "velocity": 0.31496062992125984,
                    "duration": 0.19264100000000894
                },
                {
                    "name": "C5",
                    "midi": 72,
                    "time": 141.59113499999933,
                    "velocity": 0.3464566929133858,
                    "duration": 0.19264100000000894
                },
                {
                    "name": "E4",
                    "midi": 64,
                    "time": 141.59113499999933,
                    "velocity": 0.29133858267716534,
                    "duration": 0.5779230000000268
                },
                {
                    "name": "A#4",
                    "midi": 70,
                    "time": 141.78377599999934,
                    "velocity": 0.31496062992125984,
                    "duration": 0.19264100000000894
                },
                {
                    "name": "G4",
                    "midi": 67,
                    "time": 141.97641699999934,
                    "velocity": 0.31496062992125984,
                    "duration": 0.19264100000000894
                },
                {
                    "name": "F4",
                    "midi": 65,
                    "time": 142.16905799999935,
                    "velocity": 0.3464566929133858,
                    "duration": 0.19264100000000894
                },
                {
                    "name": "C4",
                    "midi": 60,
                    "time": 142.36169899999936,
                    "velocity": 0.3228346456692913,
                    "duration": 0.18943031666665888
                },
                {
                    "name": "A4",
                    "midi": 69,
                    "time": 142.55433999999934,
                    "velocity": 0.3228346456692913,
                    "duration": 0.19264100000000894
                },
                {
                    "name": "F4",
                    "midi": 65,
                    "time": 142.74698099999935,
                    "velocity": 0.3464566929133858,
                    "duration": 0.19264100000000894
                },
                {
                    "name": "C4",
                    "midi": 60,
                    "time": 142.93962199999936,
                    "velocity": 0.31496062992125984,
                    "duration": 0.18943031666665888
                },
                {
                    "name": "A4",
                    "midi": 69,
                    "time": 143.13226299999934,
                    "velocity": 0.31496062992125984,
                    "duration": 0.19264100000000894
                },
                {
                    "name": "A#3",
                    "midi": 58,
                    "time": 143.32490399999935,
                    "velocity": 0.28346456692913385,
                    "duration": 0.5779229999999984
                },
                {
                    "name": "G4",
                    "midi": 67,
                    "time": 143.32490399999935,
                    "velocity": 0.33070866141732286,
                    "duration": 0.5779229999999984
                },
                {
                    "name": "A3",
                    "midi": 57,
                    "time": 143.90282699999935,
                    "velocity": 0.2440944881889764,
                    "duration": 0.19264100000000894
                },
                {
                    "name": "F4",
                    "midi": 65,
                    "time": 143.90282699999935,
                    "velocity": 0.28346456692913385,
                    "duration": 0.19264100000000894
                },
                {
                    "name": "A5",
                    "midi": 81,
                    "time": 144.48074999999935,
                    "velocity": 0.6299212598425197,
                    "duration": 0.5779229999999984
                },
                {
                    "name": "A4",
                    "midi": 69,
                    "time": 144.48074999999935,
                    "velocity": 0.5354330708661418,
                    "duration": 0.5779229999999984
                },
                {
                    "name": "G5",
                    "midi": 79,
                    "time": 145.05867299999935,
                    "velocity": 0.6062992125984252,
                    "duration": 0.5779229999999984
                },
                {
                    "name": "A4",
                    "midi": 69,
                    "time": 145.05867299999935,
                    "velocity": 0.5118110236220472,
                    "duration": 0.5779229999999984
                },
                {
                    "name": "A4",
                    "midi": 69,
                    "time": 145.63659599999934,
                    "velocity": 0.5196850393700787,
                    "duration": 0.5779229999999984
                },
                {
                    "name": "F5",
                    "midi": 77,
                    "time": 145.63659599999934,
                    "velocity": 0.6141732283464567,
                    "duration": 0.5779229999999984
                },
                {
                    "name": "E5",
                    "midi": 76,
                    "time": 146.21451899999934,
                    "velocity": 0.5984251968503937,
                    "duration": 0.5779229999999984
                },
                {
                    "name": "A4",
                    "midi": 69,
                    "time": 146.21451899999934,
                    "velocity": 0.5118110236220472,
                    "duration": 0.5779229999999984
                },
                {
                    "name": "D5",
                    "midi": 74,
                    "time": 146.79244199999934,
                    "velocity": 0.6220472440944882,
                    "duration": 0.5779229999999984
                },
                {
                    "name": "A4",
                    "midi": 69,
                    "time": 146.79244199999934,
                    "velocity": 0.5275590551181102,
                    "duration": 0.5779229999999984
                },
                {
                    "name": "A4",
                    "midi": 69,
                    "time": 147.37036499999934,
                    "velocity": 0.5118110236220472,
                    "duration": 0.5779229999999984
                },
                {
                    "name": "C#5",
                    "midi": 73,
                    "time": 147.37036499999934,
                    "velocity": 0.5984251968503937,
                    "duration": 0.5779229999999984
                },
                {
                    "name": "G4",
                    "midi": 67,
                    "time": 147.37036499999934,
                    "velocity": 0.5118110236220472,
                    "duration": 0.5779229999999984
                },
                {
                    "name": "D5",
                    "midi": 74,
                    "time": 147.94828799999934,
                    "velocity": 0.5118110236220472,
                    "duration": 0.09632049999999026
                },
                {
                    "name": "A4",
                    "midi": 69,
                    "time": 148.04460849999933,
                    "velocity": 0.4251968503937008,
                    "duration": 0.09632049999999026
                },
                {
                    "name": "F4",
                    "midi": 65,
                    "time": 148.14092899999932,
                    "velocity": 0.4251968503937008,
                    "duration": 0.09632049999999026
                },
                {
                    "name": "A4",
                    "midi": 69,
                    "time": 148.2372494999993,
                    "velocity": 0.4251968503937008,
                    "duration": 0.09632049999999026
                },
                {
                    "name": "D5",
                    "midi": 74,
                    "time": 148.3335699999993,
                    "velocity": 0.5118110236220472,
                    "duration": 0.09632049999999026
                },
                {
                    "name": "A4",
                    "midi": 69,
                    "time": 148.4298904999993,
                    "velocity": 0.4251968503937008,
                    "duration": 0.09632049999999026
                },
                {
                    "name": "E5",
                    "midi": 76,
                    "time": 148.52621099999928,
                    "velocity": 0.5118110236220472,
                    "duration": 0.09632049999999026
                },
                {
                    "name": "A4",
                    "midi": 69,
                    "time": 148.62253149999927,
                    "velocity": 0.4251968503937008,
                    "duration": 0.09632049999999026
                },
                {
                    "name": "G4",
                    "midi": 67,
                    "time": 148.71885199999926,
                    "velocity": 0.4251968503937008,
                    "duration": 0.09632049999999026
                },
                {
                    "name": "A4",
                    "midi": 69,
                    "time": 148.81517249999925,
                    "velocity": 0.4251968503937008,
                    "duration": 0.09632049999999026
                },
                {
                    "name": "E5",
                    "midi": 76,
                    "time": 148.91149299999924,
                    "velocity": 0.5118110236220472,
                    "duration": 0.09632049999999026
                },
                {
                    "name": "A4",
                    "midi": 69,
                    "time": 149.00781349999923,
                    "velocity": 0.4330708661417323,
                    "duration": 0.09632049999999026
                },
                {
                    "name": "F5",
                    "midi": 77,
                    "time": 149.10413399999922,
                    "velocity": 0.5118110236220472,
                    "duration": 0.09632049999999026
                },
                {
                    "name": "D5",
                    "midi": 74,
                    "time": 149.2004544999992,
                    "velocity": 0.4330708661417323,
                    "duration": 0.09632049999999026
                },
                {
                    "name": "A4",
                    "midi": 69,
                    "time": 149.2967749999992,
                    "velocity": 0.4330708661417323,
                    "duration": 0.09632049999999026
                },
                {
                    "name": "D5",
                    "midi": 74,
                    "time": 149.3930954999992,
                    "velocity": 0.4330708661417323,
                    "duration": 0.09632049999999026
                },
                {
                    "name": "F5",
                    "midi": 77,
                    "time": 149.48941599999918,
                    "velocity": 0.5118110236220472,
                    "duration": 0.09632049999999026
                },
                {
                    "name": "D5",
                    "midi": 74,
                    "time": 149.58573649999917,
                    "velocity": 0.4330708661417323,
                    "duration": 0.09632049999999026
                },
                {
                    "name": "F#5",
                    "midi": 78,
                    "time": 149.68205699999916,
                    "velocity": 0.5118110236220472,
                    "duration": 0.09632049999999026
                },
                {
                    "name": "D5",
                    "midi": 74,
                    "time": 149.77837749999915,
                    "velocity": 0.4330708661417323,
                    "duration": 0.09632049999999026
                },
                {
                    "name": "A4",
                    "midi": 69,
                    "time": 149.87469799999914,
                    "velocity": 0.4330708661417323,
                    "duration": 0.09632049999999026
                },
                {
                    "name": "D5",
                    "midi": 74,
                    "time": 149.97101849999913,
                    "velocity": 0.4330708661417323,
                    "duration": 0.09632049999999026
                },
                {
                    "name": "F#5",
                    "midi": 78,
                    "time": 150.06733899999912,
                    "velocity": 0.5118110236220472,
                    "duration": 0.09632049999999026
                },
                {
                    "name": "D5",
                    "midi": 74,
                    "time": 150.1636594999991,
                    "velocity": 0.4409448818897638,
                    "duration": 0.09632049999999026
                },
                {
                    "name": "G5",
                    "midi": 79,
                    "time": 150.2599799999991,
                    "velocity": 0.5118110236220472,
                    "duration": 0.38528199999998947
                },
                {
                    "name": "A5",
                    "midi": 81,
                    "time": 150.6452619999991,
                    "velocity": 0.4645669291338583,
                    "duration": 0.09632049999999026
                },
                {
                    "name": "G5",
                    "midi": 79,
                    "time": 150.74158249999908,
                    "velocity": 0.4645669291338583,
                    "duration": 0.09632049999999026
                },
                {
                    "name": "F5",
                    "midi": 77,
                    "time": 150.83790299999907,
                    "velocity": 0.5118110236220472,
                    "duration": 0.38528199999998947
                },
                {
                    "name": "G5",
                    "midi": 79,
                    "time": 151.22318499999906,
                    "velocity": 0.44881889763779526,
                    "duration": 0.09632049999999026
                },
                {
                    "name": "F5",
                    "midi": 77,
                    "time": 151.31950549999905,
                    "velocity": 0.44881889763779526,
                    "duration": 0.09632049999999026
                },
                {
                    "name": "E5",
                    "midi": 76,
                    "time": 151.41582599999904,
                    "velocity": 0.5118110236220472,
                    "duration": 0.38528199999998947
                },
                {
                    "name": "F5",
                    "midi": 77,
                    "time": 151.80110799999903,
                    "velocity": 0.44881889763779526,
                    "duration": 0.09632049999999026
                },
                {
                    "name": "E5",
                    "midi": 76,
                    "time": 151.89742849999902,
                    "velocity": 0.44881889763779526,
                    "duration": 0.09632049999999026
                },
                {
                    "name": "D5",
                    "midi": 74,
                    "time": 151.993748999999,
                    "velocity": 0.5118110236220472,
                    "duration": 0.38528199999998947
                },
                {
                    "name": "E5",
                    "midi": 76,
                    "time": 152.379030999999,
                    "velocity": 0.4645669291338583,
                    "duration": 0.09632049999999026
                },
                {
                    "name": "D5",
                    "midi": 74,
                    "time": 152.475351499999,
                    "velocity": 0.4645669291338583,
                    "duration": 0.09632049999999026
                },
                {
                    "name": "C5",
                    "midi": 72,
                    "time": 152.57167199999898,
                    "velocity": 0.5118110236220472,
                    "duration": 0.38528199999998947
                },
                {
                    "name": "D5",
                    "midi": 74,
                    "time": 152.95695399999897,
                    "velocity": 0.4645669291338583,
                    "duration": 0.09632049999999026
                },
                {
                    "name": "C5",
                    "midi": 72,
                    "time": 153.05327449999896,
                    "velocity": 0.4645669291338583,
                    "duration": 0.09632049999999026
                },
                {
                    "name": "B4",
                    "midi": 71,
                    "time": 153.14959499999895,
                    "velocity": 0.5118110236220472,
                    "duration": 0.38528199999998947
                },
                {
                    "name": "C5",
                    "midi": 72,
                    "time": 153.53487699999894,
                    "velocity": 0.4409448818897638,
                    "duration": 0.09632049999999026
                },
                {
                    "name": "B4",
                    "midi": 71,
                    "time": 153.63119749999893,
                    "velocity": 0.4409448818897638,
                    "duration": 0.09632049999999026
                },
                {
                    "name": "D5",
                    "midi": 74,
                    "time": 153.72751799999892,
                    "velocity": 0.4881889763779528,
                    "duration": 0.1059525499999836
                },
                {
                    "name": "C5",
                    "midi": 72,
                    "time": 153.8238384999989,
                    "velocity": 0.4251968503937008,
                    "duration": 0.1059525499999836
                },
                {
                    "name": "B4",
                    "midi": 71,
                    "time": 153.9201589999989,
                    "velocity": 0.4251968503937008,
                    "duration": 0.1059525499999836
                },
                {
                    "name": "C5",
                    "midi": 72,
                    "time": 154.0164794999989,
                    "velocity": 0.4251968503937008,
                    "duration": 0.1059525499999836
                },
                {
                    "name": "B4",
                    "midi": 71,
                    "time": 154.11279999999888,
                    "velocity": 0.41732283464566927,
                    "duration": 0.1059525499999836
                },
                {
                    "name": "C5",
                    "midi": 72,
                    "time": 154.20912049999887,
                    "velocity": 0.4330708661417323,
                    "duration": 0.1059525499999836
                },
                {
                    "name": "E5",
                    "midi": 76,
                    "time": 154.30544099999886,
                    "velocity": 0.4645669291338583,
                    "duration": 0.1059525499999836
                },
                {
                    "name": "D5",
                    "midi": 74,
                    "time": 154.40176149999886,
                    "velocity": 0.4330708661417323,
                    "duration": 0.1059525499999836
                },
                {
                    "name": "C#5",
                    "midi": 73,
                    "time": 154.49808199999885,
                    "velocity": 0.4330708661417323,
                    "duration": 0.1059525499999836
                },
                {
                    "name": "D5",
                    "midi": 74,
                    "time": 154.59440249999884,
                    "velocity": 0.4330708661417323,
                    "duration": 0.1059525499999836
                },
                {
                    "name": "C#5",
                    "midi": 73,
                    "time": 154.69072299999883,
                    "velocity": 0.4330708661417323,
                    "duration": 0.1059525499999836
                },
                {
                    "name": "D5",
                    "midi": 74,
                    "time": 154.78704349999882,
                    "velocity": 0.4330708661417323,
                    "duration": 0.1059525499999836
                },
                {
                    "name": "E5",
                    "midi": 76,
                    "time": 154.8833639999988,
                    "velocity": 0.4645669291338583,
                    "duration": 0.1059525499999836
                },
                {
                    "name": "D5",
                    "midi": 74,
                    "time": 154.9796844999988,
                    "velocity": 0.4251968503937008,
                    "duration": 0.1059525499999836
                },
                {
                    "name": "C5",
                    "midi": 72,
                    "time": 155.0760049999988,
                    "velocity": 0.4251968503937008,
                    "duration": 0.1059525499999836
                },
                {
                    "name": "D5",
                    "midi": 74,
                    "time": 155.17232549999878,
                    "velocity": 0.4251968503937008,
                    "duration": 0.1059525499999836
                },
                {
                    "name": "E5",
                    "midi": 76,
                    "time": 155.26864599999877,
                    "velocity": 0.4251968503937008,
                    "duration": 0.1059525499999836
                },
                {
                    "name": "F5",
                    "midi": 77,
                    "time": 155.36496649999876,
                    "velocity": 0.4251968503937008,
                    "duration": 0.1059525499999836
                },
                {
                    "name": "G5",
                    "midi": 79,
                    "time": 155.46128699999875,
                    "velocity": 0.4645669291338583,
                    "duration": 0.1059525499999836
                },
                {
                    "name": "F5",
                    "midi": 77,
                    "time": 155.55760749999874,
                    "velocity": 0.4330708661417323,
                    "duration": 0.1059525499999836
                },
                {
                    "name": "E5",
                    "midi": 76,
                    "time": 155.65392799999873,
                    "velocity": 0.4330708661417323,
                    "duration": 0.1059525499999836
                },
                {
                    "name": "F5",
                    "midi": 77,
                    "time": 155.75024849999872,
                    "velocity": 0.4330708661417323,
                    "duration": 0.1059525499999836
                },
                {
                    "name": "G5",
                    "midi": 79,
                    "time": 155.8465689999987,
                    "velocity": 0.4330708661417323,
                    "duration": 0.1059525499999836
                },
                {
                    "name": "G#5",
                    "midi": 80,
                    "time": 155.9428894999987,
                    "velocity": 0.4330708661417323,
                    "duration": 0.1059525499999836
                },
                {
                    "name": "A5",
                    "midi": 81,
                    "time": 156.0392099999987,
                    "velocity": 0.4645669291338583,
                    "duration": 0.09632049999999026
                },
                {
                    "name": "A#5",
                    "midi": 82,
                    "time": 156.13553049999868,
                    "velocity": 0.4330708661417323,
                    "duration": 0.1059525499999836
                },
                {
                    "name": "A5",
                    "midi": 81,
                    "time": 156.23185099999867,
                    "velocity": 0.4330708661417323,
                    "duration": 0.1059525499999836
                },
                {
                    "name": "G5",
                    "midi": 79,
                    "time": 156.32817149999866,
                    "velocity": 0.4330708661417323,
                    "duration": 0.1059525499999836
                },
                {
                    "name": "F5",
                    "midi": 77,
                    "time": 156.42449199999865,
                    "velocity": 0.4330708661417323,
                    "duration": 0.1059525499999836
                },
                {
                    "name": "E5",
                    "midi": 76,
                    "time": 156.52081249999864,
                    "velocity": 0.4251968503937008,
                    "duration": 0.1059525499999836
                },
                {
                    "name": "D5",
                    "midi": 74,
                    "time": 156.61713299999863,
                    "velocity": 0.4645669291338583,
                    "duration": 0.09632049999999026
                },
                {
                    "name": "C#6",
                    "midi": 85,
                    "time": 156.71345349999862,
                    "velocity": 0.4251968503937008,
                    "duration": 0.1059525499999836
                },
                {
                    "name": "D6",
                    "midi": 86,
                    "time": 156.8097739999986,
                    "velocity": 0.49606299212598426,
                    "duration": 0.1059525499999836
                },
                {
                    "name": "C6",
                    "midi": 84,
                    "time": 156.9060944999986,
                    "velocity": 0.4881889763779528,
                    "duration": 0.1059525499999836
                },
                {
                    "name": "B5",
                    "midi": 83,
                    "time": 157.0024149999986,
                    "velocity": 0.47244094488188976,
                    "duration": 0.1059525499999836
                },
                {
                    "name": "A5",
                    "midi": 81,
                    "time": 157.09873549999858,
                    "velocity": 0.4645669291338583,
                    "duration": 0.1059525499999836
                },
                {
                    "name": "G5",
                    "midi": 79,
                    "time": 157.19505599999857,
                    "velocity": 0.4645669291338583,
                    "duration": 0.09632049999999026
                },
                {
                    "name": "A5",
                    "midi": 81,
                    "time": 157.29137649999856,
                    "velocity": 0.47244094488188976,
                    "duration": 0.09632049999999026
                },
                {
                    "name": "G5",
                    "midi": 79,
                    "time": 157.38769699999855,
                    "velocity": 0.47244094488188976,
                    "duration": 0.09632049999999026
                },
                {
                    "name": "F5",
                    "midi": 77,
                    "time": 157.48401749999854,
                    "velocity": 0.47244094488188976,
                    "duration": 0.09632049999999026
                },
                {
                    "name": "E5",
                    "midi": 76,
                    "time": 157.58033799999853,
                    "velocity": 0.47244094488188976,
                    "duration": 0.09632049999999026
                },
                {
                    "name": "D5",
                    "midi": 74,
                    "time": 157.67665849999852,
                    "velocity": 0.4645669291338583,
                    "duration": 0.09632049999999026
                },
                {
                    "name": "C5",
                    "midi": 72,
                    "time": 157.77297899999851,
                    "velocity": 0.4645669291338583,
                    "duration": 0.09632049999999026
                },
                {
                    "name": "B5",
                    "midi": 83,
                    "time": 157.8692994999985,
                    "velocity": 0.4409448818897638,
                    "duration": 0.1059525499999836
                },
                {
                    "name": "C6",
                    "midi": 84,
                    "time": 157.9656199999985,
                    "velocity": 0.49606299212598426,
                    "duration": 0.1059525499999836
                },
                {
                    "name": "B5",
                    "midi": 83,
                    "time": 158.06194049999849,
                    "velocity": 0.4881889763779528,
                    "duration": 0.1059525499999836
                },
                {
                    "name": "A5",
                    "midi": 81,
                    "time": 158.15826099999848,
                    "velocity": 0.47244094488188976,
                    "duration": 0.1059525499999836
                },
                {
                    "name": "G5",
                    "midi": 79,
                    "time": 158.25458149999847,
                    "velocity": 0.4645669291338583,
                    "duration": 0.1059525499999836
                },
                {
                    "name": "F5",
                    "midi": 77,
                    "time": 158.35090199999846,
                    "velocity": 0.4409448818897638,
                    "duration": 0.09632049999999026
                },
                {
                    "name": "C#6",
                    "midi": 85,
                    "time": 158.44722249999845,
                    "velocity": 0.48031496062992124,
                    "duration": 0.09632049999999026
                },
                {
                    "name": "D6",
                    "midi": 86,
                    "time": 158.54354299999844,
                    "velocity": 0.5354330708661418,
                    "duration": 0.09632049999999026
                },
                {
                    "name": "B5",
                    "midi": 83,
                    "time": 158.63986349999843,
                    "velocity": 0.49606299212598426,
                    "duration": 0.09632049999999026
                },
                {
                    "name": "G5",
                    "midi": 79,
                    "time": 158.73618399999842,
                    "velocity": 0.49606299212598426,
                    "duration": 0.09632049999999026
                },
                {
                    "name": "F5",
                    "midi": 77,
                    "time": 158.8325044999984,
                    "velocity": 0.49606299212598426,
                    "duration": 0.09632049999999026
                },
                {
                    "name": "E5",
                    "midi": 76,
                    "time": 158.9288249999984,
                    "velocity": 0.47244094488188976,
                    "duration": 0.09632049999999026
                },
                {
                    "name": "B5",
                    "midi": 83,
                    "time": 159.0251454999984,
                    "velocity": 0.41732283464566927,
                    "duration": 0.1059525499999836
                },
                {
                    "name": "C6",
                    "midi": 84,
                    "time": 159.12146599999838,
                    "velocity": 0.4645669291338583,
                    "duration": 0.1059525499999836
                },
                {
                    "name": "G5",
                    "midi": 79,
                    "time": 159.21778649999837,
                    "velocity": 0.4251968503937008,
                    "duration": 0.1059525499999836
                },
                {
                    "name": "F5",
                    "midi": 77,
                    "time": 159.31410699999836,
                    "velocity": 0.4251968503937008,
                    "duration": 0.1059525499999836
                },
                {
                    "name": "E5",
                    "midi": 76,
                    "time": 159.41042749999835,
                    "velocity": 0.4251968503937008,
                    "duration": 0.1059525499999836
                },
                {
                    "name": "D5",
                    "midi": 74,
                    "time": 159.50674799999834,
                    "velocity": 0.4645669291338583,
                    "duration": 0.09632049999999026
                },
                {
                    "name": "E5",
                    "midi": 76,
                    "time": 159.60306849999833,
                    "velocity": 0.4566929133858268,
                    "duration": 0.1059525499999836
                },
                {
                    "name": "D5",
                    "midi": 74,
                    "time": 159.69938899999832,
                    "velocity": 0.4881889763779528,
                    "duration": 0.1059525499999836
                },
                {
                    "name": "C5",
                    "midi": 72,
                    "time": 159.7957094999983,
                    "velocity": 0.48031496062992124,
                    "duration": 0.1059525499999836
                },
                {
                    "name": "B4",
                    "midi": 71,
                    "time": 159.8920299999983,
                    "velocity": 0.47244094488188976,
                    "duration": 0.1059525499999836
                },
                {
                    "name": "A4",
                    "midi": 69,
                    "time": 159.9883504999983,
                    "velocity": 0.4645669291338583,
                    "duration": 0.1059525499999836
                },
                {
                    "name": "G4",
                    "midi": 67,
                    "time": 160.08467099999828,
                    "velocity": 0.44881889763779526,
                    "duration": 0.1059525499999836
                },
                {
                    "name": "D#5",
                    "midi": 75,
                    "time": 160.66259399999825,
                    "velocity": 0.3858267716535433,
                    "duration": 0.7705640000000074
                },
                {
                    "name": "D5",
                    "midi": 74,
                    "time": 161.43315799999826,
                    "velocity": 0.33858267716535434,
                    "duration": 0.09632049999999026
                },
                {
                    "name": "C5",
                    "midi": 72,
                    "time": 161.62579899999824,
                    "velocity": 0.33858267716535434,
                    "duration": 0.09632049999999026
                },
                {
                    "name": "F#5",
                    "midi": 78,
                    "time": 161.81843999999822,
                    "velocity": 0.3858267716535433,
                    "duration": 0.38528199999998947
                },
                {
                    "name": "G5",
                    "midi": 79,
                    "time": 162.2037219999982,
                    "velocity": 0.33858267716535434,
                    "duration": 0.19264100000000894
                },
                {
                    "name": "D5",
                    "midi": 74,
                    "time": 162.39636299999822,
                    "velocity": 0.33858267716535434,
                    "duration": 0.38528199999998947
                },
                {
                    "name": "G#5",
                    "midi": 80,
                    "time": 162.97428599999822,
                    "velocity": 0.4566929133858268,
                    "duration": 0.7705640000000074
                },
                {
                    "name": "G5",
                    "midi": 79,
                    "time": 163.74484999999822,
                    "velocity": 0.3858267716535433,
                    "duration": 0.09632049999999026
                },
                {
                    "name": "F5",
                    "midi": 77,
                    "time": 163.9374909999982,
                    "velocity": 0.3858267716535433,
                    "duration": 0.09632049999999026
                },
                {
                    "name": "D#5",
                    "midi": 75,
                    "time": 164.13013199999818,
                    "velocity": 0.47244094488188976,
                    "duration": 0.19264100000000894
                },
                {
                    "name": "F5",
                    "midi": 77,
                    "time": 164.3227729999982,
                    "velocity": 0.33070866141732286,
                    "duration": 0.06421366666666017
                },
                {
                    "name": "D#5",
                    "midi": 75,
                    "time": 164.38698666666485,
                    "velocity": 0.33070866141732286,
                    "duration": 0.06421366666666017
                },
                {
                    "name": "D5",
                    "midi": 74,
                    "time": 164.4512003333315,
                    "velocity": 0.33070866141732286,
                    "duration": 0.06421366666666017
                },
                {
                    "name": "D#5",
                    "midi": 75,
                    "time": 164.51541399999817,
                    "velocity": 0.4015748031496063,
                    "duration": 0.09632049999999026
                },
                {
                    "name": "F5",
                    "midi": 77,
                    "time": 164.61173449999816,
                    "velocity": 0.3464566929133858,
                    "duration": 0.09632049999999026
                },
                {
                    "name": "G5",
                    "midi": 79,
                    "time": 164.70805499999815,
                    "velocity": 0.4015748031496063,
                    "duration": 0.38528199999998947
                },
                {
                    "name": "C6",
                    "midi": 84,
                    "time": 165.28597799999815,
                    "velocity": 0.5196850393700787,
                    "duration": 0.5779229999999984
                },
                {
                    "name": "A#5",
                    "midi": 82,
                    "time": 165.86390099999815,
                    "velocity": 0.4251968503937008,
                    "duration": 0.38528199999998947
                },
                {
                    "name": "C6",
                    "midi": 84,
                    "time": 166.24918299999814,
                    "velocity": 0.3937007874015748,
                    "duration": 0.19264100000000894
                },
                {
                    "name": "A#5",
                    "midi": 82,
                    "time": 166.44182399999815,
                    "velocity": 0.44881889763779526,
                    "duration": 0.38528199999998947
                },
                {
                    "name": "G#5",
                    "midi": 80,
                    "time": 166.82710599999814,
                    "velocity": 0.4094488188976378,
                    "duration": 0.19264100000000894
                },
                {
                    "name": "G5",
                    "midi": 79,
                    "time": 167.01974699999815,
                    "velocity": 0.4330708661417323,
                    "duration": 0.5779229999999984
                },
                {
                    "name": "F5",
                    "midi": 77,
                    "time": 167.59766999999815,
                    "velocity": 0.4645669291338583,
                    "duration": 0.38528199999998947
                },
                {
                    "name": "D#5",
                    "midi": 75,
                    "time": 167.98295199999814,
                    "velocity": 0.41732283464566927,
                    "duration": 0.19264100000000894
                },
                {
                    "name": "D5",
                    "midi": 74,
                    "time": 168.17559299999814,
                    "velocity": 0.44881889763779526,
                    "duration": 0.38528199999998947
                },
                {
                    "name": "C5",
                    "midi": 72,
                    "time": 168.56087499999813,
                    "velocity": 0.3700787401574803,
                    "duration": 0.19264100000000894
                },
                {
                    "name": "D#5",
                    "midi": 75,
                    "time": 168.75351599999814,
                    "velocity": 0.41732283464566927,
                    "duration": 0.5779229999999984
                },
                {
                    "name": "D5",
                    "midi": 74,
                    "time": 169.33143899999814,
                    "velocity": 0.3543307086614173,
                    "duration": 0.19264100000000894
                },
                {
                    "name": "D#5",
                    "midi": 75,
                    "time": 169.90936199999814,
                    "velocity": 0.3858267716535433,
                    "duration": 0.7705640000000074
                },
                {
                    "name": "D5",
                    "midi": 74,
                    "time": 170.67992599999815,
                    "velocity": 0.33858267716535434,
                    "duration": 0.09632049999999026
                },
                {
                    "name": "C5",
                    "midi": 72,
                    "time": 170.87256699999813,
                    "velocity": 0.33858267716535434,
                    "duration": 0.09632049999999026
                },
                {
                    "name": "F#5",
                    "midi": 78,
                    "time": 171.0652079999981,
                    "velocity": 0.3858267716535433,
                    "duration": 0.38528199999998947
                },
                {
                    "name": "G5",
                    "midi": 79,
                    "time": 171.4504899999981,
                    "velocity": 0.33858267716535434,
                    "duration": 0.19264100000000894
                },
                {
                    "name": "D5",
                    "midi": 74,
                    "time": 171.6431309999981,
                    "velocity": 0.33858267716535434,
                    "duration": 0.38528199999998947
                },
                {
                    "name": "G#5",
                    "midi": 80,
                    "time": 172.2210539999981,
                    "velocity": 0.4566929133858268,
                    "duration": 0.7705640000000074
                },
                {
                    "name": "G5",
                    "midi": 79,
                    "time": 172.9916179999981,
                    "velocity": 0.3858267716535433,
                    "duration": 0.09632049999999026
                },
                {
                    "name": "F5",
                    "midi": 77,
                    "time": 173.1842589999981,
                    "velocity": 0.3858267716535433,
                    "duration": 0.09632049999999026
                },
                {
                    "name": "E5",
                    "midi": 76,
                    "time": 173.37689999999807,
                    "velocity": 0.47244094488188976,
                    "duration": 0.19264100000000894
                },
                {
                    "name": "F5",
                    "midi": 77,
                    "time": 173.7621819999981,
                    "velocity": 0.4015748031496063,
                    "duration": 0.09632049999999026
                },
                {
                    "name": "G5",
                    "midi": 79,
                    "time": 173.85850249999808,
                    "velocity": 0.3464566929133858,
                    "duration": 0.09632049999999026
                },
                {
                    "name": "F5",
                    "midi": 77,
                    "time": 173.95482299999807,
                    "velocity": 0.4015748031496063,
                    "duration": 0.38528199999998947
                },
                {
                    "name": "D#6",
                    "midi": 87,
                    "time": 174.53274599999807,
                    "velocity": 0.5590551181102362,
                    "duration": 0.5779229999999984
                },
                {
                    "name": "D6",
                    "midi": 86,
                    "time": 175.30330999999808,
                    "velocity": 0.4566929133858268,
                    "duration": 0.09632049999999026
                },
                {
                    "name": "C6",
                    "midi": 84,
                    "time": 175.49595099999806,
                    "velocity": 0.4566929133858268,
                    "duration": 0.09632049999999026
                },
                {
                    "name": "B5",
                    "midi": 83,
                    "time": 175.68859199999804,
                    "velocity": 0.5196850393700787,
                    "duration": 0.5779229999999984
                },
                {
                    "name": "C6",
                    "midi": 84,
                    "time": 176.26651499999804,
                    "velocity": 0.5354330708661418,
                    "duration": 0.38528199999998947
                },
                {
                    "name": "G#5",
                    "midi": 80,
                    "time": 176.65179699999803,
                    "velocity": 0.36220472440944884,
                    "duration": 0.19264100000000894
                },
                {
                    "name": "C5",
                    "midi": 72,
                    "time": 176.84443799999804,
                    "velocity": 0.4330708661417323,
                    "duration": 0.5297627500000033
                },
                {
                    "name": "D#5",
                    "midi": 75,
                    "time": 177.37420074999804,
                    "velocity": 0.31496062992125984,
                    "duration": 0.04816024999999513
                },
                {
                    "name": "D5",
                    "midi": 74,
                    "time": 177.42236099999803,
                    "velocity": 0.4015748031496063,
                    "duration": 0.5779229999999984
                },
                {
                    "name": "B4",
                    "midi": 71,
                    "time": 177.42236099999803,
                    "velocity": 0.4015748031496063,
                    "duration": 0.5779229999999984
                },
                {
                    "name": "C5",
                    "midi": 72,
                    "time": 178.00028399999803,
                    "velocity": 0.5826771653543307,
                    "duration": 0.09632049999999026
                },
                {
                    "name": "G5",
                    "midi": 79,
                    "time": 178.09660449999802,
                    "velocity": 0.4881889763779528,
                    "duration": 0.09632049999999026
                },
                {
                    "name": "F#5",
                    "midi": 78,
                    "time": 178.192924999998,
                    "velocity": 0.4881889763779528,
                    "duration": 0.09632049999999026
                },
                {
                    "name": "G5",
                    "midi": 79,
                    "time": 178.289245499998,
                    "velocity": 0.4881889763779528,
                    "duration": 0.09632049999999026
                },
                {
                    "name": "A5",
                    "midi": 81,
                    "time": 178.385565999998,
                    "velocity": 0.5433070866141733,
                    "duration": 0.09632049999999026
                },
                {
                    "name": "G5",
                    "midi": 79,
                    "time": 178.48188649999798,
                    "velocity": 0.4881889763779528,
                    "duration": 0.09632049999999026
                },
                {
                    "name": "F5",
                    "midi": 77,
                    "time": 178.57820699999797,
                    "velocity": 0.5118110236220472,
                    "duration": 0.09632049999999026
                },
                {
                    "name": "G5",
                    "midi": 79,
                    "time": 178.67452749999796,
                    "velocity": 0.47244094488188976,
                    "duration": 0.09632049999999026
                },
                {
                    "name": "F5",
                    "midi": 77,
                    "time": 178.77084799999795,
                    "velocity": 0.5118110236220472,
                    "duration": 0.09632049999999026
                },
                {
                    "name": "G5",
                    "midi": 79,
                    "time": 178.86716849999794,
                    "velocity": 0.4645669291338583,
                    "duration": 0.09632049999999026
                },
                {
                    "name": "F5",
                    "midi": 77,
                    "time": 178.96348899999794,
                    "velocity": 0.5118110236220472,
                    "duration": 0.09632049999999026
                },
                {
                    "name": "G5",
                    "midi": 79,
                    "time": 179.05980949999793,
                    "velocity": 0.4645669291338583,
                    "duration": 0.09632049999999026
                },
                {
                    "name": "E5",
                    "midi": 76,
                    "time": 179.15612999999792,
                    "velocity": 0.5826771653543307,
                    "duration": 0.09632049999999026
                },
                {
                    "name": "G5",
                    "midi": 79,
                    "time": 179.2524504999979,
                    "velocity": 0.4881889763779528,
                    "duration": 0.09632049999999026
                },
                {
                    "name": "F#5",
                    "midi": 78,
                    "time": 179.3487709999979,
                    "velocity": 0.4881889763779528,
                    "duration": 0.09632049999999026
                },
                {
                    "name": "G5",
                    "midi": 79,
                    "time": 179.4450914999979,
                    "velocity": 0.4881889763779528,
                    "duration": 0.09632049999999026
                },
                {
                    "name": "C6",
                    "midi": 84,
                    "time": 179.54141199999788,
                    "velocity": 0.5826771653543307,
                    "duration": 0.09632049999999026
                },
                {
                    "name": "G5",
                    "midi": 79,
                    "time": 179.63773249999787,
                    "velocity": 0.4881889763779528,
                    "duration": 0.09632049999999026
                },
                {
                    "name": "F5",
                    "midi": 77,
                    "time": 179.73405299999786,
                    "velocity": 0.5118110236220472,
                    "duration": 0.09632049999999026
                },
                {
                    "name": "G5",
                    "midi": 79,
                    "time": 179.83037349999785,
                    "velocity": 0.47244094488188976,
                    "duration": 0.09632049999999026
                },
                {
                    "name": "F5",
                    "midi": 77,
                    "time": 179.92669399999784,
                    "velocity": 0.5118110236220472,
                    "duration": 0.09632049999999026
                },
                {
                    "name": "G5",
                    "midi": 79,
                    "time": 180.02301449999783,
                    "velocity": 0.4645669291338583,
                    "duration": 0.09632049999999026
                },
                {
                    "name": "F5",
                    "midi": 77,
                    "time": 180.11933499999782,
                    "velocity": 0.5118110236220472,
                    "duration": 0.09632049999999026
                },
                {
                    "name": "G5",
                    "midi": 79,
                    "time": 180.2156554999978,
                    "velocity": 0.4645669291338583,
                    "duration": 0.09632049999999026
                },
                {
                    "name": "E5",
                    "midi": 76,
                    "time": 180.3119759999978,
                    "velocity": 0.5826771653543307,
                    "duration": 0.09632049999999026
                },
                {
                    "name": "G5",
                    "midi": 79,
                    "time": 180.4082964999978,
                    "velocity": 0.4881889763779528,
                    "duration": 0.09632049999999026
                },
                {
                    "name": "F#5",
                    "midi": 78,
                    "time": 180.50461699999778,
                    "velocity": 0.4881889763779528,
                    "duration": 0.09632049999999026
                },
                {
                    "name": "G5",
                    "midi": 79,
                    "time": 180.60093749999777,
                    "velocity": 0.4881889763779528,
                    "duration": 0.09632049999999026
                },
                {
                    "name": "C6",
                    "midi": 84,
                    "time": 180.69725799999776,
                    "velocity": 0.5669291338582677,
                    "duration": 0.09632049999999026
                },
                {
                    "name": "G5",
                    "midi": 79,
                    "time": 180.79357849999775,
                    "velocity": 0.4881889763779528,
                    "duration": 0.09632049999999026
                },
                {
                    "name": "F5",
                    "midi": 77,
                    "time": 180.88989899999774,
                    "velocity": 0.5118110236220472,
                    "duration": 0.09632049999999026
                },
                {
                    "name": "G5",
                    "midi": 79,
                    "time": 180.98621949999773,
                    "velocity": 0.47244094488188976,
                    "duration": 0.09632049999999026
                },
                {
                    "name": "F5",
                    "midi": 77,
                    "time": 181.08253999999772,
                    "velocity": 0.5118110236220472,
                    "duration": 0.09632049999999026
                },
                {
                    "name": "G5",
                    "midi": 79,
                    "time": 181.1788604999977,
                    "velocity": 0.4645669291338583,
                    "duration": 0.09632049999999026
                },
                {
                    "name": "F5",
                    "midi": 77,
                    "time": 181.2751809999977,
                    "velocity": 0.5118110236220472,
                    "duration": 0.09632049999999026
                },
                {
                    "name": "G5",
                    "midi": 79,
                    "time": 181.3715014999977,
                    "velocity": 0.4645669291338583,
                    "duration": 0.09632049999999026
                },
                {
                    "name": "E5",
                    "midi": 76,
                    "time": 181.46782199999768,
                    "velocity": 0.5826771653543307,
                    "duration": 0.09632049999999026
                },
                {
                    "name": "G5",
                    "midi": 79,
                    "time": 181.56414249999767,
                    "velocity": 0.4881889763779528,
                    "duration": 0.09632049999999026
                },
                {
                    "name": "C6",
                    "midi": 84,
                    "time": 181.66046299999766,
                    "velocity": 0.5590551181102362,
                    "duration": 0.09632049999999026
                },
                {
                    "name": "E5",
                    "midi": 76,
                    "time": 181.75678349999765,
                    "velocity": 0.47244094488188976,
                    "duration": 0.09632049999999026
                },
                {
                    "name": "D5",
                    "midi": 74,
                    "time": 181.85310399999764,
                    "velocity": 0.5511811023622047,
                    "duration": 0.09632049999999026
                },
                {
                    "name": "B5",
                    "midi": 83,
                    "time": 181.94942449999763,
                    "velocity": 0.4881889763779528,
                    "duration": 0.09632049999999026
                },
                {
                    "name": "C5",
                    "midi": 72,
                    "time": 182.04574499999762,
                    "velocity": 0.5511811023622047,
                    "duration": 0.09632049999999026
                },
                {
                    "name": "A5",
                    "midi": 81,
                    "time": 182.1420654999976,
                    "velocity": 0.4881889763779528,
                    "duration": 0.09632049999999026
                },
                {
                    "name": "B4",
                    "midi": 71,
                    "time": 182.2383859999976,
                    "velocity": 0.5433070866141733,
                    "duration": 0.09632049999999026
                },
                {
                    "name": "G5",
                    "midi": 79,
                    "time": 182.3347064999976,
                    "velocity": 0.47244094488188976,
                    "duration": 0.09632049999999026
                },
                {
                    "name": "A4",
                    "midi": 69,
                    "time": 182.43102699999758,
                    "velocity": 0.5275590551181102,
                    "duration": 0.09632049999999026
                },
                {
                    "name": "F5",
                    "midi": 77,
                    "time": 182.52734749999757,
                    "velocity": 0.4566929133858268,
                    "duration": 0.09632049999999026
                },
                {
                    "name": "G4",
                    "midi": 67,
                    "time": 182.62366799999756,
                    "velocity": 0.5433070866141733,
                    "duration": 0.09632049999999026
                },
                {
                    "name": "E5",
                    "midi": 76,
                    "time": 182.71998849999756,
                    "velocity": 0.4881889763779528,
                    "duration": 0.09632049999999026
                },
                {
                    "name": "F4",
                    "midi": 65,
                    "time": 182.81630899999755,
                    "velocity": 0.5275590551181102,
                    "duration": 0.09632049999999026
                },
                {
                    "name": "D5",
                    "midi": 74,
                    "time": 182.91262949999754,
                    "velocity": 0.4645669291338583,
                    "duration": 0.09632049999999026
                },
                {
                    "name": "E4",
                    "midi": 64,
                    "time": 183.00894999999753,
                    "velocity": 0.5196850393700787,
                    "duration": 0.09632049999999026
                },
                {
                    "name": "C5",
                    "midi": 72,
                    "time": 183.10527049999752,
                    "velocity": 0.4409448818897638,
                    "duration": 0.09632049999999026
                },
                {
                    "name": "D4",
                    "midi": 62,
                    "time": 183.2015909999975,
                    "velocity": 0.4881889763779528,
                    "duration": 0.09632049999999026
                },
                {
                    "name": "B4",
                    "midi": 71,
                    "time": 183.2979114999975,
                    "velocity": 0.4251968503937008,
                    "duration": 0.09632049999999026
                },
                {
                    "name": "C4",
                    "midi": 60,
                    "time": 183.3942319999975,
                    "velocity": 0.49606299212598426,
                    "duration": 0.09632049999999026
                },
                {
                    "name": "A4",
                    "midi": 69,
                    "time": 183.49055249999748,
                    "velocity": 0.4330708661417323,
                    "duration": 0.09632049999999026
                },
                {
                    "name": "B3",
                    "midi": 59,
                    "time": 183.58687299999747,
                    "velocity": 0.4881889763779528,
                    "duration": 0.09632049999999026
                },
                {
                    "name": "G4",
                    "midi": 67,
                    "time": 183.68319349999746,
                    "velocity": 0.4015748031496063,
                    "duration": 0.09632049999999026
                },
                {
                    "name": "A3",
                    "midi": 57,
                    "time": 183.77951399999745,
                    "velocity": 0.3543307086614173,
                    "duration": 0.5779229999999984
                },
                {
                    "name": "F#4",
                    "midi": 66,
                    "time": 183.77951399999745,
                    "velocity": 0.4330708661417323,
                    "duration": 0.5779229999999984
                },
                {
                    "name": "G#3",
                    "midi": 56,
                    "time": 184.35743699999745,
                    "velocity": 0.3543307086614173,
                    "duration": 0.5779229999999984
                },
                {
                    "name": "F4",
                    "midi": 65,
                    "time": 184.35743699999745,
                    "velocity": 0.4330708661417323,
                    "duration": 0.5779229999999984
                },
                {
                    "name": "G#4",
                    "midi": 68,
                    "time": 184.93535999999744,
                    "velocity": 0.3543307086614173,
                    "duration": 0.5779229999999984
                },
                {
                    "name": "F5",
                    "midi": 77,
                    "time": 184.93535999999744,
                    "velocity": 0.4330708661417323,
                    "duration": 0.5779229999999984
                },
                {
                    "name": "D4",
                    "midi": 62,
                    "time": 185.51328299999744,
                    "velocity": 0.3543307086614173,
                    "duration": 0.5779229999999984
                },
                {
                    "name": "B4",
                    "midi": 71,
                    "time": 185.51328299999744,
                    "velocity": 0.4330708661417323,
                    "duration": 0.5779229999999984
                },
                {
                    "name": "G5",
                    "midi": 79,
                    "time": 186.28384699999745,
                    "velocity": 0.3858267716535433,
                    "duration": 0.09632049999999026
                },
                {
                    "name": "G5",
                    "midi": 79,
                    "time": 186.47648799999743,
                    "velocity": 0.3858267716535433,
                    "duration": 0.09632049999999026
                },
                {
                    "name": "A5",
                    "midi": 81,
                    "time": 186.86176999999742,
                    "velocity": 0.3858267716535433,
                    "duration": 0.09632049999999026
                },
                {
                    "name": "A5",
                    "midi": 81,
                    "time": 187.0544109999974,
                    "velocity": 0.3858267716535433,
                    "duration": 0.09632049999999026
                },
                {
                    "name": "G4",
                    "midi": 67,
                    "time": 187.24705199999738,
                    "velocity": 0.30708661417322836,
                    "duration": 0.5297627500000033
                },
                {
                    "name": "C5",
                    "midi": 72,
                    "time": 187.24705199999738,
                    "velocity": 0.3700787401574803,
                    "duration": 0.5297627500000033
                },
                {
                    "name": "E5",
                    "midi": 76,
                    "time": 187.77681474999738,
                    "velocity": 0.31496062992125984,
                    "duration": 0.04816024999999513
                },
                {
                    "name": "D5",
                    "midi": 74,
                    "time": 187.82497499999738,
                    "velocity": 0.3464566929133858,
                    "duration": 0.5779229999999984
                },
                {
                    "name": "B4",
                    "midi": 71,
                    "time": 187.82497499999738,
                    "velocity": 0.29133858267716534,
                    "duration": 0.5779229999999984
                },
                {
                    "name": "C5",
                    "midi": 72,
                    "time": 188.40289799999738,
                    "velocity": 0.5826771653543307,
                    "duration": 0.09632049999999026
                },
                {
                    "name": "G5",
                    "midi": 79,
                    "time": 188.49921849999737,
                    "velocity": 0.4881889763779528,
                    "duration": 0.09632049999999026
                },
                {
                    "name": "F#5",
                    "midi": 78,
                    "time": 188.59553899999736,
                    "velocity": 0.4881889763779528,
                    "duration": 0.09632049999999026
                },
                {
                    "name": "G5",
                    "midi": 79,
                    "time": 188.69185949999735,
                    "velocity": 0.4881889763779528,
                    "duration": 0.09632049999999026
                },
                {
                    "name": "A5",
                    "midi": 81,
                    "time": 188.78817999999734,
                    "velocity": 0.5354330708661418,
                    "duration": 0.09632049999999026
                },
                {
                    "name": "G5",
                    "midi": 79,
                    "time": 188.88450049999733,
                    "velocity": 0.4881889763779528,
                    "duration": 0.09632049999999026
                },
                {
                    "name": "F5",
                    "midi": 77,
                    "time": 188.98082099999732,
                    "velocity": 0.5118110236220472,
                    "duration": 0.09632049999999026
                },
                {
                    "name": "G5",
                    "midi": 79,
                    "time": 189.0771414999973,
                    "velocity": 0.47244094488188976,
                    "duration": 0.09632049999999026
                },
                {
                    "name": "F5",
                    "midi": 77,
                    "time": 189.1734619999973,
                    "velocity": 0.5118110236220472,
                    "duration": 0.09632049999999026
                },
                {
                    "name": "G5",
                    "midi": 79,
                    "time": 189.2697824999973,
                    "velocity": 0.4645669291338583,
                    "duration": 0.09632049999999026
                },
                {
                    "name": "F5",
                    "midi": 77,
                    "time": 189.36610299999728,
                    "velocity": 0.5118110236220472,
                    "duration": 0.09632049999999026
                },
                {
                    "name": "G5",
                    "midi": 79,
                    "time": 189.46242349999727,
                    "velocity": 0.4645669291338583,
                    "duration": 0.09632049999999026
                },
                {
                    "name": "E5",
                    "midi": 76,
                    "time": 189.55874399999726,
                    "velocity": 0.5826771653543307,
                    "duration": 0.09632049999999026
                },
                {
                    "name": "G5",
                    "midi": 79,
                    "time": 189.65506449999725,
                    "velocity": 0.4881889763779528,
                    "duration": 0.09632049999999026
                },
                {
                    "name": "F#5",
                    "midi": 78,
                    "time": 189.75138499999724,
                    "velocity": 0.4881889763779528,
                    "duration": 0.09632049999999026
                },
                {
                    "name": "G5",
                    "midi": 79,
                    "time": 189.84770549999723,
                    "velocity": 0.4881889763779528,
                    "duration": 0.09632049999999026
                },
                {
                    "name": "C6",
                    "midi": 84,
                    "time": 189.94402599999722,
                    "velocity": 0.5826771653543307,
                    "duration": 0.09632049999999026
                },
                {
                    "name": "G5",
                    "midi": 79,
                    "time": 190.0403464999972,
                    "velocity": 0.4881889763779528,
                    "duration": 0.09632049999999026
                },
                {
                    "name": "F5",
                    "midi": 77,
                    "time": 190.1366669999972,
                    "velocity": 0.5118110236220472,
                    "duration": 0.09632049999999026
                },
                {
                    "name": "G5",
                    "midi": 79,
                    "time": 190.2329874999972,
                    "velocity": 0.47244094488188976,
                    "duration": 0.09632049999999026
                },
                {
                    "name": "F5",
                    "midi": 77,
                    "time": 190.32930799999718,
                    "velocity": 0.5118110236220472,
                    "duration": 0.09632049999999026
                },
                {
                    "name": "G5",
                    "midi": 79,
                    "time": 190.42562849999717,
                    "velocity": 0.4645669291338583,
                    "duration": 0.09632049999999026
                },
                {
                    "name": "F5",
                    "midi": 77,
                    "time": 190.52194899999716,
                    "velocity": 0.5118110236220472,
                    "duration": 0.09632049999999026
                },
                {
                    "name": "G5",
                    "midi": 79,
                    "time": 190.61826949999715,
                    "velocity": 0.4645669291338583,
                    "duration": 0.09632049999999026
                },
                {
                    "name": "E5",
                    "midi": 76,
                    "time": 190.71458999999714,
                    "velocity": 0.5826771653543307,
                    "duration": 0.09632049999999026
                },
                {
                    "name": "G5",
                    "midi": 79,
                    "time": 190.81091049999714,
                    "velocity": 0.4881889763779528,
                    "duration": 0.09632049999999026
                },
                {
                    "name": "F#5",
                    "midi": 78,
                    "time": 190.90723099999713,
                    "velocity": 0.4881889763779528,
                    "duration": 0.09632049999999026
                },
                {
                    "name": "G5",
                    "midi": 79,
                    "time": 191.00355149999712,
                    "velocity": 0.4881889763779528,
                    "duration": 0.09632049999999026
                },
                {
                    "name": "C6",
                    "midi": 84,
                    "time": 191.0998719999971,
                    "velocity": 0.5669291338582677,
                    "duration": 0.09632049999999026
                },
                {
                    "name": "G5",
                    "midi": 79,
                    "time": 191.1961924999971,
                    "velocity": 0.4881889763779528,
                    "duration": 0.09632049999999026
                },
                {
                    "name": "F5",
                    "midi": 77,
                    "time": 191.2925129999971,
                    "velocity": 0.5118110236220472,
                    "duration": 0.09632049999999026
                },
                {
                    "name": "G5",
                    "midi": 79,
                    "time": 191.38883349999708,
                    "velocity": 0.47244094488188976,
                    "duration": 0.09632049999999026
                },
                {
                    "name": "F5",
                    "midi": 77,
                    "time": 191.48515399999707,
                    "velocity": 0.5118110236220472,
                    "duration": 0.09632049999999026
                },
                {
                    "name": "G5",
                    "midi": 79,
                    "time": 191.58147449999706,
                    "velocity": 0.4645669291338583,
                    "duration": 0.09632049999999026
                },
                {
                    "name": "F5",
                    "midi": 77,
                    "time": 191.67779499999705,
                    "velocity": 0.5118110236220472,
                    "duration": 0.09632049999999026
                },
                {
                    "name": "G5",
                    "midi": 79,
                    "time": 191.77411549999704,
                    "velocity": 0.4645669291338583,
                    "duration": 0.09632049999999026
                },
                {
                    "name": "E5",
                    "midi": 76,
                    "time": 191.87043599999703,
                    "velocity": 0.5826771653543307,
                    "duration": 0.09632049999999026
                },
                {
                    "name": "G5",
                    "midi": 79,
                    "time": 191.96675649999702,
                    "velocity": 0.4881889763779528,
                    "duration": 0.09632049999999026
                },
                {
                    "name": "C6",
                    "midi": 84,
                    "time": 192.063076999997,
                    "velocity": 0.5590551181102362,
                    "duration": 0.09632049999999026
                },
                {
                    "name": "E5",
                    "midi": 76,
                    "time": 192.159397499997,
                    "velocity": 0.47244094488188976,
                    "duration": 0.09632049999999026
                },
                {
                    "name": "D5",
                    "midi": 74,
                    "time": 192.255717999997,
                    "velocity": 0.5511811023622047,
                    "duration": 0.09632049999999026
                },
                {
                    "name": "B5",
                    "midi": 83,
                    "time": 192.35203849999698,
                    "velocity": 0.4881889763779528,
                    "duration": 0.09632049999999026
                },
                {
                    "name": "C5",
                    "midi": 72,
                    "time": 192.44835899999697,
                    "velocity": 0.5511811023622047,
                    "duration": 0.09632049999999026
                },
                {
                    "name": "A5",
                    "midi": 81,
                    "time": 192.54467949999696,
                    "velocity": 0.4881889763779528,
                    "duration": 0.09632049999999026
                },
                {
                    "name": "B4",
                    "midi": 71,
                    "time": 192.64099999999695,
                    "velocity": 0.5433070866141733,
                    "duration": 0.09632049999999026
                },
                {
                    "name": "G5",
                    "midi": 79,
                    "time": 192.73732049999694,
                    "velocity": 0.47244094488188976,
                    "duration": 0.09632049999999026
                },
                {
                    "name": "A4",
                    "midi": 69,
                    "time": 192.83364099999693,
                    "velocity": 0.5275590551181102,
                    "duration": 0.09632049999999026
                },
                {
                    "name": "F5",
                    "midi": 77,
                    "time": 192.92996149999692,
                    "velocity": 0.4566929133858268,
                    "duration": 0.09632049999999026
                },
                {
                    "name": "G4",
                    "midi": 67,
                    "time": 193.0262819999969,
                    "velocity": 0.5433070866141733,
                    "duration": 0.09632049999999026
                },
                {
                    "name": "E5",
                    "midi": 76,
                    "time": 193.1226024999969,
                    "velocity": 0.4881889763779528,
                    "duration": 0.09632049999999026
                },
                {
                    "name": "F4",
                    "midi": 65,
                    "time": 193.2189229999969,
                    "velocity": 0.5275590551181102,
                    "duration": 0.09632049999999026
                },
                {
                    "name": "D5",
                    "midi": 74,
                    "time": 193.31524349999688,
                    "velocity": 0.4645669291338583,
                    "duration": 0.09632049999999026
                },
                {
                    "name": "E4",
                    "midi": 64,
                    "time": 193.41156399999687,
                    "velocity": 0.5196850393700787,
                    "duration": 0.09632049999999026
                },
                {
                    "name": "C5",
                    "midi": 72,
                    "time": 193.50788449999686,
                    "velocity": 0.4409448818897638,
                    "duration": 0.09632049999999026
                },
                {
                    "name": "D4",
                    "midi": 62,
                    "time": 193.60420499999685,
                    "velocity": 0.5039370078740157,
                    "duration": 0.09632049999999026
                },
                {
                    "name": "B4",
                    "midi": 71,
                    "time": 193.70052549999684,
                    "velocity": 0.4330708661417323,
                    "duration": 0.09632049999999026
                },
                {
                    "name": "C4",
                    "midi": 60,
                    "time": 193.79684599999683,
                    "velocity": 0.49606299212598426,
                    "duration": 0.09632049999999026
                },
                {
                    "name": "A4",
                    "midi": 69,
                    "time": 193.89316649999682,
                    "velocity": 0.4330708661417323,
                    "duration": 0.09632049999999026
                },
                {
                    "name": "B3",
                    "midi": 59,
                    "time": 193.9894869999968,
                    "velocity": 0.4881889763779528,
                    "duration": 0.09632049999999026
                },
                {
                    "name": "G4",
                    "midi": 67,
                    "time": 194.0858074999968,
                    "velocity": 0.4015748031496063,
                    "duration": 0.09632049999999026
                },
                {
                    "name": "A3",
                    "midi": 57,
                    "time": 194.1821279999968,
                    "velocity": 0.3543307086614173,
                    "duration": 0.5779229999999984
                },
                {
                    "name": "F#4",
                    "midi": 66,
                    "time": 194.1821279999968,
                    "velocity": 0.4330708661417323,
                    "duration": 0.5779229999999984
                },
                {
                    "name": "F4",
                    "midi": 65,
                    "time": 194.7600509999968,
                    "velocity": 0.4330708661417323,
                    "duration": 0.5779229999999984
                },
                {
                    "name": "G#3",
                    "midi": 56,
                    "time": 194.7600509999968,
                    "velocity": 0.3543307086614173,
                    "duration": 0.5779229999999984
                },
                {
                    "name": "G#4",
                    "midi": 68,
                    "time": 195.3379739999968,
                    "velocity": 0.3543307086614173,
                    "duration": 0.5779229999999984
                },
                {
                    "name": "F5",
                    "midi": 77,
                    "time": 195.3379739999968,
                    "velocity": 0.4330708661417323,
                    "duration": 0.5779229999999984
                },
                {
                    "name": "D4",
                    "midi": 62,
                    "time": 195.9158969999968,
                    "velocity": 0.3543307086614173,
                    "duration": 0.5779229999999984
                },
                {
                    "name": "B4",
                    "midi": 71,
                    "time": 195.9158969999968,
                    "velocity": 0.4330708661417323,
                    "duration": 0.5779229999999984
                },
                {
                    "name": "G5",
                    "midi": 79,
                    "time": 196.6864609999968,
                    "velocity": 0.3858267716535433,
                    "duration": 0.09632049999999026
                },
                {
                    "name": "G5",
                    "midi": 79,
                    "time": 196.87910199999678,
                    "velocity": 0.3858267716535433,
                    "duration": 0.09632049999999026
                },
                {
                    "name": "A5",
                    "midi": 81,
                    "time": 197.26438399999677,
                    "velocity": 0.3858267716535433,
                    "duration": 0.09632049999999026
                },
                {
                    "name": "A5",
                    "midi": 81,
                    "time": 197.45702499999675,
                    "velocity": 0.3858267716535433,
                    "duration": 0.09632049999999026
                },
                {
                    "name": "G4",
                    "midi": 67,
                    "time": 197.64966599999673,
                    "velocity": 0.30708661417322836,
                    "duration": 1.1558459999999968
                },
                {
                    "name": "C5",
                    "midi": 72,
                    "time": 197.64966599999673,
                    "velocity": 0.3700787401574803,
                    "duration": 0.5779229999999984
                },
                {
                    "name": "B4",
                    "midi": 71,
                    "time": 198.22758899999673,
                    "velocity": 0.29133858267716534,
                    "duration": 0.5779229999999984
                },
                {
                    "name": "F#5",
                    "midi": 78,
                    "time": 198.80551199999672,
                    "velocity": 0.5590551181102362,
                    "duration": 0.09632049999999026
                },
                {
                    "name": "G5",
                    "midi": 79,
                    "time": 198.90183249999671,
                    "velocity": 0.4330708661417323,
                    "duration": 0.1059525499999836
                },
                {
                    "name": "F#5",
                    "midi": 78,
                    "time": 198.9981529999967,
                    "velocity": 0.4330708661417323,
                    "duration": 0.1059525499999836
                },
                {
                    "name": "G5",
                    "midi": 79,
                    "time": 199.0944734999967,
                    "velocity": 0.4330708661417323,
                    "duration": 0.1059525499999836
                },
                {
                    "name": "F#5",
                    "midi": 78,
                    "time": 199.19079399999669,
                    "velocity": 0.4330708661417323,
                    "duration": 0.1059525499999836
                },
                {
                    "name": "G5",
                    "midi": 79,
                    "time": 199.28711449999668,
                    "velocity": 0.4330708661417323,
                    "duration": 0.09632049999999026
                },
                {
                    "name": "G#5",
                    "midi": 80,
                    "time": 199.38343499999667,
                    "velocity": 0.4881889763779528,
                    "duration": 0.1059525499999836
                },
                {
                    "name": "A5",
                    "midi": 81,
                    "time": 199.47975549999666,
                    "velocity": 0.4330708661417323,
                    "duration": 0.1059525499999836
                },
                {
                    "name": "G#5",
                    "midi": 80,
                    "time": 199.57607599999665,
                    "velocity": 0.4330708661417323,
                    "duration": 0.1059525499999836
                },
                {
                    "name": "A5",
                    "midi": 81,
                    "time": 199.67239649999664,
                    "velocity": 0.4330708661417323,
                    "duration": 0.1059525499999836
                },
                {
                    "name": "B5",
                    "midi": 83,
                    "time": 199.76871699999663,
                    "velocity": 0.4645669291338583,
                    "duration": 0.1059525499999836
                },
                {
                    "name": "C6",
                    "midi": 84,
                    "time": 199.86503749999662,
                    "velocity": 0.4330708661417323,
                    "duration": 0.09632049999999026
                },
                {
                    "name": "C5",
                    "midi": 72,
                    "time": 199.9613579999966,
                    "velocity": 0.3700787401574803,
                    "duration": 0.5297627500000033
                },
                {
                    "name": "E5",
                    "midi": 76,
                    "time": 200.4911207499966,
                    "velocity": 0.29133858267716534,
                    "duration": 0.04816024999999513
                },
                {
                    "name": "D5",
                    "midi": 74,
                    "time": 200.5392809999966,
                    "velocity": 0.33858267716535434,
                    "duration": 0.4816024999999797
                },
                {
                    "name": "B4",
                    "midi": 71,
                    "time": 200.5392809999966,
                    "velocity": 0.33858267716535434,
                    "duration": 0.38528199999998947
                },
                {
                    "name": "C5",
                    "midi": 72,
                    "time": 201.0208834999966,
                    "velocity": 0.29133858267716534,
                    "duration": 0.09632049999999026
                },
                {
                    "name": "C5",
                    "midi": 72,
                    "time": 201.11720399999658,
                    "velocity": 0.5590551181102362,
                    "duration": 0.1059525499999836
                },
                {
                    "name": "E5",
                    "midi": 76,
                    "time": 201.21352449999657,
                    "velocity": 0.5039370078740157,
                    "duration": 0.1059525499999836
                },
                {
                    "name": "G5",
                    "midi": 79,
                    "time": 201.30984499999656,
                    "velocity": 0.5275590551181102,
                    "duration": 0.1059525499999836
                },
                {
                    "name": "C6",
                    "midi": 84,
                    "time": 201.40616549999655,
                    "velocity": 0.5354330708661418,
                    "duration": 0.1059525499999836
                },
                {
                    "name": "B5",
                    "midi": 83,
                    "time": 201.50248599999654,
                    "velocity": 0.5433070866141733,
                    "duration": 0.1059525499999836
                },
                {
                    "name": "A5",
                    "midi": 81,
                    "time": 201.59880649999653,
                    "velocity": 0.5433070866141733,
                    "duration": 0.1059525499999836
                },
                {
                    "name": "G5",
                    "midi": 79,
                    "time": 201.69512699999652,
                    "velocity": 0.5590551181102362,
                    "duration": 0.1059525499999836
                },
                {
                    "name": "A5",
                    "midi": 81,
                    "time": 201.7914474999965,
                    "velocity": 0.5275590551181102,
                    "duration": 0.1059525499999836
                },
                {
                    "name": "G5",
                    "midi": 79,
                    "time": 201.8877679999965,
                    "velocity": 0.5275590551181102,
                    "duration": 0.1059525499999836
                },
                {
                    "name": "F5",
                    "midi": 77,
                    "time": 201.9840884999965,
                    "velocity": 0.5275590551181102,
                    "duration": 0.1059525499999836
                },
                {
                    "name": "E5",
                    "midi": 76,
                    "time": 202.08040899999648,
                    "velocity": 0.5275590551181102,
                    "duration": 0.1059525499999836
                },
                {
                    "name": "D5",
                    "midi": 74,
                    "time": 202.17672949999647,
                    "velocity": 0.5275590551181102,
                    "duration": 0.09632049999999026
                },
                {
                    "name": "C5",
                    "midi": 72,
                    "time": 202.27304999999646,
                    "velocity": 0.5590551181102362,
                    "duration": 0.1059525499999836
                },
                {
                    "name": "E5",
                    "midi": 76,
                    "time": 202.36937049999645,
                    "velocity": 0.5039370078740157,
                    "duration": 0.1059525499999836
                },
                {
                    "name": "D5",
                    "midi": 74,
                    "time": 202.46569099999644,
                    "velocity": 0.5039370078740157,
                    "duration": 0.1059525499999836
                },
                {
                    "name": "C5",
                    "midi": 72,
                    "time": 202.56201149999643,
                    "velocity": 0.5354330708661418,
                    "duration": 0.1059525499999836
                },
                {
                    "name": "B4",
                    "midi": 71,
                    "time": 202.65833199999642,
                    "velocity": 0.5039370078740157,
                    "duration": 0.1059525499999836
                },
                {
                    "name": "A4",
                    "midi": 69,
                    "time": 202.7546524999964,
                    "velocity": 0.5039370078740157,
                    "duration": 0.1059525499999836
                },
                {
                    "name": "G4",
                    "midi": 67,
                    "time": 202.8509729999964,
                    "velocity": 0.5433070866141733,
                    "duration": 0.1059525499999836
                },
                {
                    "name": "A4",
                    "midi": 69,
                    "time": 202.9472934999964,
                    "velocity": 0.49606299212598426,
                    "duration": 0.1059525499999836
                },
                {
                    "name": "G4",
                    "midi": 67,
                    "time": 203.04361399999638,
                    "velocity": 0.49606299212598426,
                    "duration": 0.1059525499999836
                },
                {
                    "name": "F4",
                    "midi": 65,
                    "time": 203.13993449999637,
                    "velocity": 0.49606299212598426,
                    "duration": 0.1059525499999836
                },
                {
                    "name": "E4",
                    "midi": 64,
                    "time": 203.23625499999636,
                    "velocity": 0.49606299212598426,
                    "duration": 0.1059525499999836
                },
                {
                    "name": "D4",
                    "midi": 62,
                    "time": 203.33257549999635,
                    "velocity": 0.49606299212598426,
                    "duration": 0.09632049999999026
                },
                {
                    "name": "C4",
                    "midi": 60,
                    "time": 203.42889599999634,
                    "velocity": 0.5590551181102362,
                    "duration": 0.1059525499999836
                },
                {
                    "name": "E4",
                    "midi": 64,
                    "time": 203.52521649999633,
                    "velocity": 0.49606299212598426,
                    "duration": 0.1059525499999836
                },
                {
                    "name": "D4",
                    "midi": 62,
                    "time": 203.62153699999632,
                    "velocity": 0.49606299212598426,
                    "duration": 0.1059525499999836
                },
                {
                    "name": "C4",
                    "midi": 60,
                    "time": 203.7178574999963,
                    "velocity": 0.49606299212598426,
                    "duration": 0.1059525499999836
                },
                {
                    "name": "B3",
                    "midi": 59,
                    "time": 203.8141779999963,
                    "velocity": 0.49606299212598426,
                    "duration": 0.1059525499999836
                },
                {
                    "name": "A3",
                    "midi": 57,
                    "time": 203.9104984999963,
                    "velocity": 0.5039370078740157,
                    "duration": 0.1059525499999836
                },
                {
                    "name": "G3",
                    "midi": 55,
                    "time": 204.00681899999628,
                    "velocity": 0.5590551181102362,
                    "duration": 0.1059525499999836
                },
                {
                    "name": "A3",
                    "midi": 57,
                    "time": 204.10313949999627,
                    "velocity": 0.5039370078740157,
                    "duration": 0.1059525499999836
                },
                {
                    "name": "G3",
                    "midi": 55,
                    "time": 204.19945999999626,
                    "velocity": 0.5039370078740157,
                    "duration": 0.1059525499999836
                },
                {
                    "name": "F3",
                    "midi": 53,
                    "time": 204.29578049999625,
                    "velocity": 0.5039370078740157,
                    "duration": 0.1059525499999836
                },
                {
                    "name": "E3",
                    "midi": 52,
                    "time": 204.39210099999625,
                    "velocity": 0.5039370078740157,
                    "duration": 0.1059525499999836
                },
                {
                    "name": "D3",
                    "midi": 50,
                    "time": 204.48842149999624,
                    "velocity": 0.5039370078740157,
                    "duration": 0.09632049999999026
                },
                {
                    "name": "C3",
                    "midi": 48,
                    "time": 204.58474199999623,
                    "velocity": 0.6377952755905512,
                    "duration": 0.09632049999999026
                },
                {
                    "name": "E3",
                    "midi": 52,
                    "time": 204.7773829999962,
                    "velocity": 0.5511811023622047,
                    "duration": 0.09632049999999026
                },
                {
                    "name": "G3",
                    "midi": 55,
                    "time": 204.9700239999962,
                    "velocity": 0.5511811023622047,
                    "duration": 0.09632049999999026
                },
                {
                    "name": "C4",
                    "midi": 60,
                    "time": 205.16266499999617,
                    "velocity": 0.6141732283464567,
                    "duration": 0.09632049999999026
                },
                {
                    "name": "E4",
                    "midi": 64,
                    "time": 205.35530599999615,
                    "velocity": 0.5511811023622047,
                    "duration": 0.09632049999999026
                },
                {
                    "name": "G4",
                    "midi": 67,
                    "time": 205.54794699999613,
                    "velocity": 0.5511811023622047,
                    "duration": 0.09632049999999026
                },
                {
                    "name": "C5",
                    "midi": 72,
                    "time": 205.7405879999961,
                    "velocity": 0.6929133858267716,
                    "duration": 0.19264100000000894
                },
                {
                    "name": "G4",
                    "midi": 67,
                    "time": 206.3185109999961,
                    "velocity": 0.5433070866141733,
                    "duration": 0.38528199999998947
                },
                {
                    "name": "C5",
                    "midi": 72,
                    "time": 206.3185109999961,
                    "velocity": 0.5433070866141733,
                    "duration": 0.38528199999998947
                },
                {
                    "name": "G5",
                    "midi": 79,
                    "time": 206.3185109999961,
                    "velocity": 0.6456692913385826,
                    "duration": 0.38528199999998947
                },
                {
                    "name": "E5",
                    "midi": 76,
                    "time": 206.3185109999961,
                    "velocity": 0.5433070866141733,
                    "duration": 0.38528199999998947
                },
                {
                    "name": "G5",
                    "midi": 79,
                    "time": 206.8964339999961,
                    "velocity": 0.5826771653543307,
                    "duration": 0.38528199999998947
                },
                {
                    "name": "E5",
                    "midi": 76,
                    "time": 206.8964339999961,
                    "velocity": 0.5826771653543307,
                    "duration": 0.38528199999998947
                },
                {
                    "name": "C6",
                    "midi": 84,
                    "time": 206.8964339999961,
                    "velocity": 0.6771653543307087,
                    "duration": 0.38528199999998947
                },
                {
                    "name": "C5",
                    "midi": 72,
                    "time": 206.8964339999961,
                    "velocity": 0.5669291338582677,
                    "duration": 0.38528199999998947
                },
                {
                    "name": "G5",
                    "midi": 79,
                    "time": 208.1486004999961,
                    "velocity": 0.5196850393700787,
                    "duration": 0.1059525499999836
                },
                {
                    "name": "F#5",
                    "midi": 78,
                    "time": 208.24492099999608,
                    "velocity": 0.5354330708661418,
                    "duration": 0.1059525499999836
                },
                {
                    "name": "G5",
                    "midi": 79,
                    "time": 208.34124149999607,
                    "velocity": 0.5433070866141733,
                    "duration": 0.1059525499999836
                },
                {
                    "name": "C6",
                    "midi": 84,
                    "time": 208.43756199999606,
                    "velocity": 0.5511811023622047,
                    "duration": 0.1059525499999836
                },
                {
                    "name": "G5",
                    "midi": 79,
                    "time": 208.53388249999605,
                    "velocity": 0.49606299212598426,
                    "duration": 0.1059525499999836
                },
                {
                    "name": "F5",
                    "midi": 77,
                    "time": 208.63020299999604,
                    "velocity": 0.5511811023622047,
                    "duration": 0.1059525499999836
                },
                {
                    "name": "D#5",
                    "midi": 75,
                    "time": 208.72652349999603,
                    "velocity": 0.5196850393700787,
                    "duration": 0.1059525499999836
                },
                {
                    "name": "D5",
                    "midi": 74,
                    "time": 208.82284399999602,
                    "velocity": 0.5039370078740157,
                    "duration": 0.1059525499999836
                },
                {
                    "name": "D#5",
                    "midi": 75,
                    "time": 208.91916449999601,
                    "velocity": 0.5039370078740157,
                    "duration": 0.1059525499999836
                },
                {
                    "name": "G5",
                    "midi": 79,
                    "time": 209.015484999996,
                    "velocity": 0.5511811023622047,
                    "duration": 0.1059525499999836
                },
                {
                    "name": "D#5",
                    "midi": 75,
                    "time": 209.111805499996,
                    "velocity": 0.5039370078740157,
                    "duration": 0.1059525499999836
                },
                {
                    "name": "D5",
                    "midi": 74,
                    "time": 209.20812599999599,
                    "velocity": 0.5511811023622047,
                    "duration": 0.1059525499999836
                },
                {
                    "name": "C5",
                    "midi": 72,
                    "time": 209.30444649999598,
                    "velocity": 0.5039370078740157,
                    "duration": 0.1059525499999836
                },
                {
                    "name": "B4",
                    "midi": 71,
                    "time": 209.40076699999597,
                    "velocity": 0.5039370078740157,
                    "duration": 0.1059525499999836
                },
                {
                    "name": "C5",
                    "midi": 72,
                    "time": 209.49708749999596,
                    "velocity": 0.5039370078740157,
                    "duration": 0.1059525499999836
                },
                {
                    "name": "D#5",
                    "midi": 75,
                    "time": 209.59340799999595,
                    "velocity": 0.5511811023622047,
                    "duration": 0.1059525499999836
                },
                {
                    "name": "C5",
                    "midi": 72,
                    "time": 209.68972849999594,
                    "velocity": 0.5118110236220472,
                    "duration": 0.1059525499999836
                },
                {
                    "name": "G#4",
                    "midi": 68,
                    "time": 209.78604899999593,
                    "velocity": 0.5511811023622047,
                    "duration": 0.1059525499999836
                },
                {
                    "name": "G4",
                    "midi": 67,
                    "time": 209.88236949999592,
                    "velocity": 0.5118110236220472,
                    "duration": 0.1059525499999836
                },
                {
                    "name": "F#4",
                    "midi": 66,
                    "time": 209.9786899999959,
                    "velocity": 0.5118110236220472,
                    "duration": 0.1059525499999836
                },
                {
                    "name": "G4",
                    "midi": 67,
                    "time": 210.0750104999959,
                    "velocity": 0.5118110236220472,
                    "duration": 0.1059525499999836
                },
                {
                    "name": "C5",
                    "midi": 72,
                    "time": 210.1713309999959,
                    "velocity": 0.5511811023622047,
                    "duration": 0.1059525499999836
                },
                {
                    "name": "G4",
                    "midi": 67,
                    "time": 210.26765149999588,
                    "velocity": 0.5118110236220472,
                    "duration": 0.1059525499999836
                },
                {
                    "name": "F4",
                    "midi": 65,
                    "time": 210.36397199999587,
                    "velocity": 0.5511811023622047,
                    "duration": 0.1059525499999836
                },
                {
                    "name": "D#4",
                    "midi": 63,
                    "time": 210.46029249999586,
                    "velocity": 0.5196850393700787,
                    "duration": 0.1059525499999836
                },
                {
                    "name": "D4",
                    "midi": 62,
                    "time": 210.55661299999585,
                    "velocity": 0.5196850393700787,
                    "duration": 0.1059525499999836
                },
                {
                    "name": "D#4",
                    "midi": 63,
                    "time": 210.65293349999584,
                    "velocity": 0.5196850393700787,
                    "duration": 0.1059525499999836
                },
                {
                    "name": "G4",
                    "midi": 67,
                    "time": 210.74925399999583,
                    "velocity": 0.5511811023622047,
                    "duration": 0.1059525499999836
                },
                {
                    "name": "D#4",
                    "midi": 63,
                    "time": 210.84557449999582,
                    "velocity": 0.5039370078740157,
                    "duration": 0.1059525499999836
                },
                {
                    "name": "C4",
                    "midi": 60,
                    "time": 210.9418949999958,
                    "velocity": 0.5511811023622047,
                    "duration": 0.09632049999999026
                },
                {
                    "name": "C5",
                    "midi": 72,
                    "time": 211.0382154999958,
                    "velocity": 0.5039370078740157,
                    "duration": 0.09632049999999026
                },
                {
                    "name": "B3",
                    "midi": 59,
                    "time": 211.1345359999958,
                    "velocity": 0.5511811023622047,
                    "duration": 0.09632049999999026
                },
                {
                    "name": "C5",
                    "midi": 72,
                    "time": 211.23085649999578,
                    "velocity": 0.5039370078740157,
                    "duration": 0.09632049999999026
                },
                {
                    "name": "C4",
                    "midi": 60,
                    "time": 211.32717699999577,
                    "velocity": 0.5511811023622047,
                    "duration": 0.09632049999999026
                },
                {
                    "name": "C5",
                    "midi": 72,
                    "time": 211.42349749999576,
                    "velocity": 0.5039370078740157,
                    "duration": 0.09632049999999026
                },
                {
                    "name": "D4",
                    "midi": 62,
                    "time": 211.51981799999575,
                    "velocity": 0.5511811023622047,
                    "duration": 0.09632049999999026
                },
                {
                    "name": "C5",
                    "midi": 72,
                    "time": 211.61613849999574,
                    "velocity": 0.5039370078740157,
                    "duration": 0.09632049999999026
                },
                {
                    "name": "C4",
                    "midi": 60,
                    "time": 211.71245899999573,
                    "velocity": 0.5118110236220472,
                    "duration": 0.09632049999999026
                },
                {
                    "name": "C5",
                    "midi": 72,
                    "time": 211.80877949999572,
                    "velocity": 0.4566929133858268,
                    "duration": 0.09632049999999026
                },
                {
                    "name": "D4",
                    "midi": 62,
                    "time": 211.9050999999957,
                    "velocity": 0.5275590551181102,
                    "duration": 0.09632049999999026
                },
                {
                    "name": "C5",
                    "midi": 72,
                    "time": 212.0014204999957,
                    "velocity": 0.48031496062992124,
                    "duration": 0.09632049999999026
                },
                {
                    "name": "E4",
                    "midi": 64,
                    "time": 212.0977409999957,
                    "velocity": 0.5511811023622047,
                    "duration": 0.09632049999999026
                },
                {
                    "name": "C5",
                    "midi": 72,
                    "time": 212.19406149999568,
                    "velocity": 0.47244094488188976,
                    "duration": 0.09632049999999026
                },
                {
                    "name": "D4",
                    "midi": 62,
                    "time": 212.29038199999567,
                    "velocity": 0.5196850393700787,
                    "duration": 0.09632049999999026
                },
                {
                    "name": "C5",
                    "midi": 72,
                    "time": 212.38670249999566,
                    "velocity": 0.4881889763779528,
                    "duration": 0.09632049999999026
                },
                {
                    "name": "E4",
                    "midi": 64,
                    "time": 212.48302299999565,
                    "velocity": 0.5275590551181102,
                    "duration": 0.09632049999999026
                },
                {
                    "name": "C5",
                    "midi": 72,
                    "time": 212.57934349999564,
                    "velocity": 0.4881889763779528,
                    "duration": 0.09632049999999026
                },
                {
                    "name": "F4",
                    "midi": 65,
                    "time": 212.67566399999563,
                    "velocity": 0.5826771653543307,
                    "duration": 0.09632049999999026
                },
                {
                    "name": "C5",
                    "midi": 72,
                    "time": 212.77198449999563,
                    "velocity": 0.48031496062992124,
                    "duration": 0.09632049999999026
                },
                {
                    "name": "F4",
                    "midi": 65,
                    "time": 212.86830499999562,
                    "velocity": 0.5118110236220472,
                    "duration": 0.09632049999999026
                },
                {
                    "name": "C5",
                    "midi": 72,
                    "time": 212.9646254999956,
                    "velocity": 0.48031496062992124,
                    "duration": 0.09632049999999026
                },
                {
                    "name": "D#4",
                    "midi": 63,
                    "time": 213.0609459999956,
                    "velocity": 0.5118110236220472,
                    "duration": 0.09632049999999026
                },
                {
                    "name": "C5",
                    "midi": 72,
                    "time": 213.1572664999956,
                    "velocity": 0.47244094488188976,
                    "duration": 0.09632049999999026
                },
                {
                    "name": "F4",
                    "midi": 65,
                    "time": 213.25358699999558,
                    "velocity": 0.5511811023622047,
                    "duration": 0.09632049999999026
                },
                {
                    "name": "C5",
                    "midi": 72,
                    "time": 213.34990749999557,
                    "velocity": 0.47244094488188976,
                    "duration": 0.09632049999999026
                },
                {
                    "name": "F4",
                    "midi": 65,
                    "time": 213.44622799999556,
                    "velocity": 0.5118110236220472,
                    "duration": 0.09632049999999026
                },
                {
                    "name": "C5",
                    "midi": 72,
                    "time": 213.54254849999555,
                    "velocity": 0.47244094488188976,
                    "duration": 0.09632049999999026
                },
                {
                    "name": "D#4",
                    "midi": 63,
                    "time": 213.63886899999554,
                    "velocity": 0.5118110236220472,
                    "duration": 0.09632049999999026
                },
                {
                    "name": "C5",
                    "midi": 72,
                    "time": 213.73518949999553,
                    "velocity": 0.4251968503937008,
                    "duration": 0.09632049999999026
                },
                {
                    "name": "D4",
                    "midi": 62,
                    "time": 213.83150999999552,
                    "velocity": 0.3858267716535433,
                    "duration": 0.20066770833332725
                },
                {
                    "name": "C5",
                    "midi": 72,
                    "time": 213.9278304999955,
                    "velocity": 0.33858267716535434,
                    "duration": 0.09632049999999026
                },
                {
                    "name": "D#4",
                    "midi": 63,
                    "time": 214.0241509999955,
                    "velocity": 0.4094488188976378,
                    "duration": 0.19264100000000894
                },
                {
                    "name": "C5",
                    "midi": 72,
                    "time": 214.12047149999552,
                    "velocity": 0.3543307086614173,
                    "duration": 0.09632049999999026
                },
                {
                    "name": "D4",
                    "midi": 62,
                    "time": 214.2167919999955,
                    "velocity": 0.4330708661417323,
                    "duration": 0.20066770833332725
                },
                {
                    "name": "C5",
                    "midi": 72,
                    "time": 214.3131124999955,
                    "velocity": 0.4094488188976378,
                    "duration": 0.09632049999999026
                },
                {
                    "name": "D#4",
                    "midi": 63,
                    "time": 214.4094329999955,
                    "velocity": 0.4645669291338583,
                    "duration": 0.19264100000000894
                },
                {
                    "name": "C5",
                    "midi": 72,
                    "time": 214.5057534999955,
                    "velocity": 0.4645669291338583,
                    "duration": 0.09632049999999026
                },
                {
                    "name": "F4",
                    "midi": 65,
                    "time": 214.6020739999955,
                    "velocity": 0.5196850393700787,
                    "duration": 0.20066770833332725
                },
                {
                    "name": "C5",
                    "midi": 72,
                    "time": 214.6983944999955,
                    "velocity": 0.4330708661417323,
                    "duration": 0.09632049999999026
                },
                {
                    "name": "D#4",
                    "midi": 63,
                    "time": 214.79471499999548,
                    "velocity": 0.4094488188976378,
                    "duration": 0.19264100000000894
                },
                {
                    "name": "C5",
                    "midi": 72,
                    "time": 214.8910354999955,
                    "velocity": 0.33858267716535434,
                    "duration": 0.09632049999999026
                },
                {
                    "name": "D4",
                    "midi": 62,
                    "time": 214.9873559999955,
                    "velocity": 0.3937007874015748,
                    "duration": 0.20066770833332725
                },
                {
                    "name": "C5",
                    "midi": 72,
                    "time": 215.08367649999548,
                    "velocity": 0.3464566929133858,
                    "duration": 0.09632049999999026
                },
                {
                    "name": "D#4",
                    "midi": 63,
                    "time": 215.17999699999547,
                    "velocity": 0.4251968503937008,
                    "duration": 0.19264100000000894
                },
                {
                    "name": "C5",
                    "midi": 72,
                    "time": 215.27631749999549,
                    "velocity": 0.3858267716535433,
                    "duration": 0.09632049999999026
                },
                {
                    "name": "D4",
                    "midi": 62,
                    "time": 215.37263799999548,
                    "velocity": 0.44881889763779526,
                    "duration": 0.20066770833332725
                },
                {
                    "name": "C5",
                    "midi": 72,
                    "time": 215.46895849999547,
                    "velocity": 0.41732283464566927,
                    "duration": 0.09632049999999026
                },
                {
                    "name": "D#4",
                    "midi": 63,
                    "time": 215.56527899999546,
                    "velocity": 0.4645669291338583,
                    "duration": 0.19264100000000894
                },
                {
                    "name": "C5",
                    "midi": 72,
                    "time": 215.66159949999548,
                    "velocity": 0.4330708661417323,
                    "duration": 0.09632049999999026
                },
                {
                    "name": "F4",
                    "midi": 65,
                    "time": 215.75791999999547,
                    "velocity": 0.5039370078740157,
                    "duration": 0.20066770833332725
                },
                {
                    "name": "C5",
                    "midi": 72,
                    "time": 215.85424049999546,
                    "velocity": 0.4251968503937008,
                    "duration": 0.09632049999999026
                },
                {
                    "name": "D#4",
                    "midi": 63,
                    "time": 215.95056099999545,
                    "velocity": 0.4409448818897638,
                    "duration": 0.19264100000000894
                },
                {
                    "name": "C5",
                    "midi": 72,
                    "time": 216.04688149999546,
                    "velocity": 0.33858267716535434,
                    "duration": 0.09632049999999026
                },
                {
                    "name": "D4",
                    "midi": 62,
                    "time": 216.14320199999545,
                    "velocity": 0.47244094488188976,
                    "duration": 0.0722403750000069
                },
                {
                    "name": "F#4",
                    "midi": 66,
                    "time": 216.62480449999546,
                    "velocity": 0.4015748031496063,
                    "duration": 0.09632049999999026
                },
                {
                    "name": "C5",
                    "midi": 72,
                    "time": 216.72112499999545,
                    "velocity": 0.4330708661417323,
                    "duration": 0.0722403750000069
                },
                {
                    "name": "D4",
                    "midi": 62,
                    "time": 216.81744549999547,
                    "velocity": 0.3779527559055118,
                    "duration": 0.09632049999999026
                },
                {
                    "name": "F#4",
                    "midi": 66,
                    "time": 216.91376599999546,
                    "velocity": 0.4015748031496063,
                    "duration": 0.09632049999999026
                },
                {
                    "name": "A4",
                    "midi": 69,
                    "time": 217.01008649999545,
                    "velocity": 0.41732283464566927,
                    "duration": 0.09632049999999026
                },
                {
                    "name": "C5",
                    "midi": 72,
                    "time": 217.10640699999544,
                    "velocity": 0.4409448818897638,
                    "duration": 0.0722403750000069
                },
                {
                    "name": "F#5",
                    "midi": 78,
                    "time": 217.20272749999546,
                    "velocity": 0.41732283464566927,
                    "duration": 0.09632049999999026
                },
                {
                    "name": "C6",
                    "midi": 84,
                    "time": 217.29904799999545,
                    "velocity": 0.4881889763779528,
                    "duration": 0.09632049999999026
                },
                {
                    "name": "A#5",
                    "midi": 82,
                    "time": 217.39536849999544,
                    "velocity": 0.48031496062992124,
                    "duration": 0.09632049999999026
                },
                {
                    "name": "A5",
                    "midi": 81,
                    "time": 217.49168899999543,
                    "velocity": 0.47244094488188976,
                    "duration": 0.09632049999999026
                },
                {
                    "name": "G5",
                    "midi": 79,
                    "time": 217.58800949999542,
                    "velocity": 0.4645669291338583,
                    "duration": 0.09632049999999026
                },
                {
                    "name": "F#5",
                    "midi": 78,
                    "time": 217.6843299999954,
                    "velocity": 0.4566929133858268,
                    "duration": 0.09632049999999026
                },
                {
                    "name": "G5",
                    "midi": 79,
                    "time": 217.7806504999954,
                    "velocity": 0.4330708661417323,
                    "duration": 0.09632049999999026
                },
                {
                    "name": "F#5",
                    "midi": 78,
                    "time": 217.8769709999954,
                    "velocity": 0.4645669291338583,
                    "duration": 0.09632049999999026
                },
                {
                    "name": "G5",
                    "midi": 79,
                    "time": 217.97329149999538,
                    "velocity": 0.4330708661417323,
                    "duration": 0.09632049999999026
                },
                {
                    "name": "F#5",
                    "midi": 78,
                    "time": 218.06961199999537,
                    "velocity": 0.4566929133858268,
                    "duration": 0.09632049999999026
                },
                {
                    "name": "D#5",
                    "midi": 75,
                    "time": 218.16593249999536,
                    "velocity": 0.44881889763779526,
                    "duration": 0.09632049999999026
                },
                {
                    "name": "D5",
                    "midi": 74,
                    "time": 218.26225299999535,
                    "velocity": 0.4409448818897638,
                    "duration": 0.09632049999999026
                },
                {
                    "name": "C5",
                    "midi": 72,
                    "time": 218.35857349999534,
                    "velocity": 0.4330708661417323,
                    "duration": 0.09632049999999026
                },
                {
                    "name": "B4",
                    "midi": 71,
                    "time": 218.45489399999533,
                    "velocity": 0.3858267716535433,
                    "duration": 0.20066770833332725
                },
                {
                    "name": "F5",
                    "midi": 77,
                    "time": 218.55121449999533,
                    "velocity": 0.33858267716535434,
                    "duration": 0.09632049999999026
                },
                {
                    "name": "C5",
                    "midi": 72,
                    "time": 218.64753499999532,
                    "velocity": 0.4094488188976378,
                    "duration": 0.19264100000000894
                },
                {
                    "name": "F5",
                    "midi": 77,
                    "time": 218.74385549999533,
                    "velocity": 0.3543307086614173,
                    "duration": 0.09632049999999026
                },
                {
                    "name": "B4",
                    "midi": 71,
                    "time": 218.84017599999532,
                    "velocity": 0.4330708661417323,
                    "duration": 0.20066770833332725
                },
                {
                    "name": "F5",
                    "midi": 77,
                    "time": 218.93649649999531,
                    "velocity": 0.4094488188976378,
                    "duration": 0.09632049999999026
                },
                {
                    "name": "C5",
                    "midi": 72,
                    "time": 219.0328169999953,
                    "velocity": 0.4881889763779528,
                    "duration": 0.19264100000000894
                },
                {
                    "name": "F5",
                    "midi": 77,
                    "time": 219.12913749999532,
                    "velocity": 0.47244094488188976,
                    "duration": 0.09632049999999026
                },
                {
                    "name": "C#5",
                    "midi": 73,
                    "time": 219.2254579999953,
                    "velocity": 0.5275590551181102,
                    "duration": 0.20066770833332725
                },
                {
                    "name": "F5",
                    "midi": 77,
                    "time": 219.3217784999953,
                    "velocity": 0.4330708661417323,
                    "duration": 0.09632049999999026
                },
                {
                    "name": "C5",
                    "midi": 72,
                    "time": 219.4180989999953,
                    "velocity": 0.4094488188976378,
                    "duration": 0.19264100000000894
                },
                {
                    "name": "F5",
                    "midi": 77,
                    "time": 219.5144194999953,
                    "velocity": 0.33858267716535434,
                    "duration": 0.09632049999999026
                },
                {
                    "name": "B4",
                    "midi": 71,
                    "time": 219.6107399999953,
                    "velocity": 0.3937007874015748,
                    "duration": 0.20066770833332725
                },
                {
                    "name": "F5",
                    "midi": 77,
                    "time": 219.7070604999953,
                    "velocity": 0.3464566929133858,
                    "duration": 0.09632049999999026
                },
                {
                    "name": "C5",
                    "midi": 72,
                    "time": 219.80338099999528,
                    "velocity": 0.4251968503937008,
                    "duration": 0.19264100000000894
                },
                {
                    "name": "F5",
                    "midi": 77,
                    "time": 219.8997014999953,
                    "velocity": 0.3858267716535433,
                    "duration": 0.09632049999999026
                },
                {
                    "name": "B4",
                    "midi": 71,
                    "time": 219.9960219999953,
                    "velocity": 0.44881889763779526,
                    "duration": 0.20066770833332725
                },
                {
                    "name": "F5",
                    "midi": 77,
                    "time": 220.09234249999528,
                    "velocity": 0.41732283464566927,
                    "duration": 0.09632049999999026
                },
                {
                    "name": "C5",
                    "midi": 72,
                    "time": 220.18866299999527,
                    "velocity": 0.49606299212598426,
                    "duration": 0.19264100000000894
                },
                {
                    "name": "F5",
                    "midi": 77,
                    "time": 220.2849834999953,
                    "velocity": 0.4330708661417323,
                    "duration": 0.09632049999999026
                },
                {
                    "name": "C#5",
                    "midi": 73,
                    "time": 220.38130399999528,
                    "velocity": 0.5354330708661418,
                    "duration": 0.20066770833332725
                },
                {
                    "name": "F5",
                    "midi": 77,
                    "time": 220.47762449999527,
                    "velocity": 0.4251968503937008,
                    "duration": 0.09632049999999026
                },
                {
                    "name": "C5",
                    "midi": 72,
                    "time": 220.57394499999526,
                    "velocity": 0.4409448818897638,
                    "duration": 0.19264100000000894
                },
                {
                    "name": "F5",
                    "midi": 77,
                    "time": 220.67026549999528,
                    "velocity": 0.33858267716535434,
                    "duration": 0.09632049999999026
                },
                {
                    "name": "B4",
                    "midi": 71,
                    "time": 220.76658599999527,
                    "velocity": 0.47244094488188976,
                    "duration": 0.0722403750000069
                },
                {
                    "name": "B4",
                    "midi": 71,
                    "time": 221.24818849999528,
                    "velocity": 0.4015748031496063,
                    "duration": 0.09632049999999026
                },
                {
                    "name": "F5",
                    "midi": 77,
                    "time": 221.34450899999527,
                    "velocity": 0.4330708661417323,
                    "duration": 0.0722403750000069
                },
                {
                    "name": "G4",
                    "midi": 67,
                    "time": 221.4408294999953,
                    "velocity": 0.3779527559055118,
                    "duration": 0.09632049999999026
                },
                {
                    "name": "B4",
                    "midi": 71,
                    "time": 221.53714999999528,
                    "velocity": 0.4015748031496063,
                    "duration": 0.09632049999999026
                },
                {
                    "name": "D5",
                    "midi": 74,
                    "time": 221.63347049999527,
                    "velocity": 0.41732283464566927,
                    "duration": 0.09632049999999026
                },
                {
                    "name": "F5",
                    "midi": 77,
                    "time": 221.72979099999526,
                    "velocity": 0.4409448818897638,
                    "duration": 0.0722403750000069
                },
                {
                    "name": "B5",
                    "midi": 83,
                    "time": 221.82611149999528,
                    "velocity": 0.41732283464566927,
                    "duration": 0.09632049999999026
                },
                {
                    "name": "F6",
                    "midi": 89,
                    "time": 221.92243199999527,
                    "velocity": 0.4881889763779528,
                    "duration": 0.09632049999999026
                },
                {
                    "name": "D#6",
                    "midi": 87,
                    "time": 222.01875249999526,
                    "velocity": 0.48031496062992124,
                    "duration": 0.09632049999999026
                },
                {
                    "name": "D6",
                    "midi": 86,
                    "time": 222.11507299999525,
                    "velocity": 0.47244094488188976,
                    "duration": 0.09632049999999026
                },
                {
                    "name": "C6",
                    "midi": 84,
                    "time": 222.21139349999524,
                    "velocity": 0.4645669291338583,
                    "duration": 0.09632049999999026
                },
                {
                    "name": "B5",
                    "midi": 83,
                    "time": 222.30771399999523,
                    "velocity": 0.4566929133858268,
                    "duration": 0.09632049999999026
                },
                {
                    "name": "G#5",
                    "midi": 80,
                    "time": 222.40403449999522,
                    "velocity": 0.4330708661417323,
                    "duration": 0.09632049999999026
                },
                {
                    "name": "G5",
                    "midi": 79,
                    "time": 222.5003549999952,
                    "velocity": 0.4645669291338583,
                    "duration": 0.09632049999999026
                },
                {
                    "name": "F#5",
                    "midi": 78,
                    "time": 222.5966754999952,
                    "velocity": 0.4330708661417323,
                    "duration": 0.09632049999999026
                },
                {
                    "name": "G5",
                    "midi": 79,
                    "time": 222.6929959999952,
                    "velocity": 0.4566929133858268,
                    "duration": 0.09632049999999026
                },
                {
                    "name": "G#5",
                    "midi": 80,
                    "time": 222.78931649999518,
                    "velocity": 0.44881889763779526,
                    "duration": 0.09632049999999026
                },
                {
                    "name": "G5",
                    "midi": 79,
                    "time": 222.88563699999517,
                    "velocity": 0.4409448818897638,
                    "duration": 0.09632049999999026
                },
                {
                    "name": "F5",
                    "midi": 77,
                    "time": 222.98195749999516,
                    "velocity": 0.4330708661417323,
                    "duration": 0.09632049999999026
                },
                {
                    "name": "E5",
                    "midi": 76,
                    "time": 223.07827799999515,
                    "velocity": 0.3858267716535433,
                    "duration": 0.20066770833332725
                },
                {
                    "name": "G4",
                    "midi": 67,
                    "time": 223.17459849999514,
                    "velocity": 0.33858267716535434,
                    "duration": 0.09632049999999026
                },
                {
                    "name": "F5",
                    "midi": 77,
                    "time": 223.27091899999513,
                    "velocity": 0.4094488188976378,
                    "duration": 0.19264100000000894
                },
                {
                    "name": "G4",
                    "midi": 67,
                    "time": 223.36723949999515,
                    "velocity": 0.3543307086614173,
                    "duration": 0.09632049999999026
                },
                {
                    "name": "E5",
                    "midi": 76,
                    "time": 223.46355999999514,
                    "velocity": 0.4330708661417323,
                    "duration": 0.20066770833332725
                },
                {
                    "name": "G4",
                    "midi": 67,
                    "time": 223.55988049999513,
                    "velocity": 0.4094488188976378,
                    "duration": 0.09632049999999026
                },
                {
                    "name": "F5",
                    "midi": 77,
                    "time": 223.65620099999512,
                    "velocity": 0.4645669291338583,
                    "duration": 0.19264100000000894
                },
                {
                    "name": "G4",
                    "midi": 67,
                    "time": 223.75252149999514,
                    "velocity": 0.41732283464566927,
                    "duration": 0.09632049999999026
                },
                {
                    "name": "E5",
                    "midi": 76,
                    "time": 223.84884199999513,
                    "velocity": 0.4645669291338583,
                    "duration": 0.20066770833332725
                },
                {
                    "name": "G4",
                    "midi": 67,
                    "time": 223.94516249999512,
                    "velocity": 0.4330708661417323,
                    "duration": 0.09632049999999026
                },
                {
                    "name": "F5",
                    "midi": 77,
                    "time": 224.0414829999951,
                    "velocity": 0.4094488188976378,
                    "duration": 0.19264100000000894
                },
                {
                    "name": "G4",
                    "midi": 67,
                    "time": 224.13780349999513,
                    "velocity": 0.33858267716535434,
                    "duration": 0.09632049999999026
                },
                {
                    "name": "E5",
                    "midi": 76,
                    "time": 224.23412399999512,
                    "velocity": 0.3937007874015748,
                    "duration": 0.20066770833332725
                },
                {
                    "name": "G4",
                    "midi": 67,
                    "time": 224.3304444999951,
                    "velocity": 0.3464566929133858,
                    "duration": 0.09632049999999026
                },
                {
                    "name": "F5",
                    "midi": 77,
                    "time": 224.4267649999951,
                    "velocity": 0.4251968503937008,
                    "duration": 0.19264100000000894
                },
                {
                    "name": "G4",
                    "midi": 67,
                    "time": 224.52308549999512,
                    "velocity": 0.3858267716535433,
                    "duration": 0.09632049999999026
                },
                {
                    "name": "E5",
                    "midi": 76,
                    "time": 224.6194059999951,
                    "velocity": 0.44881889763779526,
                    "duration": 0.20066770833332725
                },
                {
                    "name": "G4",
                    "midi": 67,
                    "time": 224.7157264999951,
                    "velocity": 0.41732283464566927,
                    "duration": 0.09632049999999026
                },
                {
                    "name": "F5",
                    "midi": 77,
                    "time": 224.8120469999951,
                    "velocity": 0.48031496062992124,
                    "duration": 0.19264100000000894
                },
                {
                    "name": "G4",
                    "midi": 67,
                    "time": 224.9083674999951,
                    "velocity": 0.4330708661417323,
                    "duration": 0.09632049999999026
                },
                {
                    "name": "E5",
                    "midi": 76,
                    "time": 225.0046879999951,
                    "velocity": 0.47244094488188976,
                    "duration": 0.20066770833332725
                },
                {
                    "name": "G4",
                    "midi": 67,
                    "time": 225.1010084999951,
                    "velocity": 0.3937007874015748,
                    "duration": 0.09632049999999026
                },
                {
                    "name": "F5",
                    "midi": 77,
                    "time": 225.19732899999508,
                    "velocity": 0.4409448818897638,
                    "duration": 0.19264100000000894
                },
                {
                    "name": "G4",
                    "midi": 67,
                    "time": 225.2936494999951,
                    "velocity": 0.33858267716535434,
                    "duration": 0.09632049999999026
                },
                {
                    "name": "E5",
                    "midi": 76,
                    "time": 225.3899699999951,
                    "velocity": 0.47244094488188976,
                    "duration": 0.0722403750000069
                },
                {
                    "name": "E4",
                    "midi": 64,
                    "time": 225.8715724999951,
                    "velocity": 0.4015748031496063,
                    "duration": 0.09632049999999026
                },
                {
                    "name": "A#4",
                    "midi": 70,
                    "time": 225.9678929999951,
                    "velocity": 0.4330708661417323,
                    "duration": 0.0722403750000069
                },
                {
                    "name": "C4",
                    "midi": 60,
                    "time": 226.0642134999951,
                    "velocity": 0.3779527559055118,
                    "duration": 0.09632049999999026
                },
                {
                    "name": "E4",
                    "midi": 64,
                    "time": 226.1605339999951,
                    "velocity": 0.4015748031496063,
                    "duration": 0.09632049999999026
                },
                {
                    "name": "G4",
                    "midi": 67,
                    "time": 226.2568544999951,
                    "velocity": 0.41732283464566927,
                    "duration": 0.09632049999999026
                },
                {
                    "name": "A#4",
                    "midi": 70,
                    "time": 226.35317499999508,
                    "velocity": 0.4409448818897638,
                    "duration": 0.0722403750000069
                },
                {
                    "name": "E5",
                    "midi": 76,
                    "time": 226.4494954999951,
                    "velocity": 0.41732283464566927,
                    "duration": 0.09632049999999026
                },
                {
                    "name": "A#5",
                    "midi": 82,
                    "time": 226.54581599999509,
                    "velocity": 0.4881889763779528,
                    "duration": 0.09632049999999026
                },
                {
                    "name": "A5",
                    "midi": 81,
                    "time": 226.64213649999508,
                    "velocity": 0.48031496062992124,
                    "duration": 0.09632049999999026
                },
                {
                    "name": "G5",
                    "midi": 79,
                    "time": 226.73845699999507,
                    "velocity": 0.47244094488188976,
                    "duration": 0.09632049999999026
                },
                {
                    "name": "F5",
                    "midi": 77,
                    "time": 226.83477749999506,
                    "velocity": 0.4645669291338583,
                    "duration": 0.09632049999999026
                },
                {
                    "name": "E5",
                    "midi": 76,
                    "time": 226.93109799999505,
                    "velocity": 0.4566929133858268,
                    "duration": 0.09632049999999026
                },
                {
                    "name": "D5",
                    "midi": 74,
                    "time": 227.02741849999504,
                    "velocity": 0.4330708661417323,
                    "duration": 0.09632049999999026
                },
                {
                    "name": "C5",
                    "midi": 72,
                    "time": 227.12373899999503,
                    "velocity": 0.4645669291338583,
                    "duration": 0.09632049999999026
                },
                {
                    "name": "D5",
                    "midi": 74,
                    "time": 227.22005949999502,
                    "velocity": 0.4330708661417323,
                    "duration": 0.09632049999999026
                },
                {
                    "name": "C5",
                    "midi": 72,
                    "time": 227.316379999995,
                    "velocity": 0.4566929133858268,
                    "duration": 0.09632049999999026
                },
                {
                    "name": "A#4",
                    "midi": 70,
                    "time": 227.412700499995,
                    "velocity": 0.44881889763779526,
                    "duration": 0.09632049999999026
                },
                {
                    "name": "A4",
                    "midi": 69,
                    "time": 227.509020999995,
                    "velocity": 0.4409448818897638,
                    "duration": 0.09632049999999026
                },
                {
                    "name": "G4",
                    "midi": 67,
                    "time": 227.60534149999498,
                    "velocity": 0.4330708661417323,
                    "duration": 0.09632049999999026
                },
                {
                    "name": "F4",
                    "midi": 65,
                    "time": 227.70166199999497,
                    "velocity": 0.3858267716535433,
                    "duration": 0.20066770833332725
                },
                {
                    "name": "D#5",
                    "midi": 75,
                    "time": 227.79798249999496,
                    "velocity": 0.33858267716535434,
                    "duration": 0.09632049999999026
                },
                {
                    "name": "F#4",
                    "midi": 66,
                    "time": 227.89430299999495,
                    "velocity": 0.4094488188976378,
                    "duration": 0.19264100000000894
                },
                {
                    "name": "D#5",
                    "midi": 75,
                    "time": 227.99062349999497,
                    "velocity": 0.3543307086614173,
                    "duration": 0.09632049999999026
                },
                {
                    "name": "F4",
                    "midi": 65,
                    "time": 228.08694399999496,
                    "velocity": 0.4330708661417323,
                    "duration": 0.20066770833332725
                },
                {
                    "name": "D#5",
                    "midi": 75,
                    "time": 228.18326449999495,
                    "velocity": 0.4094488188976378,
                    "duration": 0.09632049999999026
                },
                {
                    "name": "F#4",
                    "midi": 66,
                    "time": 228.27958499999494,
                    "velocity": 0.4881889763779528,
                    "duration": 0.19264100000000894
                },
                {
                    "name": "D#5",
                    "midi": 75,
                    "time": 228.37590549999496,
                    "velocity": 0.4409448818897638,
                    "duration": 0.09632049999999026
                },
                {
                    "name": "G#4",
                    "midi": 68,
                    "time": 228.47222599999495,
                    "velocity": 0.5118110236220472,
                    "duration": 0.20066770833332725
                },
                {
                    "name": "D#5",
                    "midi": 75,
                    "time": 228.56854649999494,
                    "velocity": 0.4330708661417323,
                    "duration": 0.09632049999999026
                },
                {
                    "name": "F#4",
                    "midi": 66,
                    "time": 228.66486699999493,
                    "velocity": 0.4094488188976378,
                    "duration": 0.19264100000000894
                },
                {
                    "name": "D#5",
                    "midi": 75,
                    "time": 228.76118749999495,
                    "velocity": 0.33858267716535434,
                    "duration": 0.09632049999999026
                },
                {
                    "name": "F4",
                    "midi": 65,
                    "time": 228.85750799999494,
                    "velocity": 0.3937007874015748,
                    "duration": 0.20066770833332725
                },
                {
                    "name": "D#5",
                    "midi": 75,
                    "time": 228.95382849999493,
                    "velocity": 0.3464566929133858,
                    "duration": 0.09632049999999026
                },
                {
                    "name": "F#4",
                    "midi": 66,
                    "time": 229.05014899999492,
                    "velocity": 0.4251968503937008,
                    "duration": 0.19264100000000894
                },
                {
                    "name": "D#5",
                    "midi": 75,
                    "time": 229.14646949999494,
                    "velocity": 0.3858267716535433,
                    "duration": 0.09632049999999026
                },
                {
                    "name": "F4",
                    "midi": 65,
                    "time": 229.24278999999493,
                    "velocity": 0.44881889763779526,
                    "duration": 0.20066770833332725
                },
                {
                    "name": "D#5",
                    "midi": 75,
                    "time": 229.33911049999492,
                    "velocity": 0.41732283464566927,
                    "duration": 0.09632049999999026
                },
                {
                    "name": "F#4",
                    "midi": 66,
                    "time": 229.4354309999949,
                    "velocity": 0.49606299212598426,
                    "duration": 0.19264100000000894
                },
                {
                    "name": "D#5",
                    "midi": 75,
                    "time": 229.53175149999493,
                    "velocity": 0.4330708661417323,
                    "duration": 0.09632049999999026
                },
                {
                    "name": "G#4",
                    "midi": 68,
                    "time": 229.62807199999492,
                    "velocity": 0.5196850393700787,
                    "duration": 0.20066770833332725
                },
                {
                    "name": "D#5",
                    "midi": 75,
                    "time": 229.7243924999949,
                    "velocity": 0.4251968503937008,
                    "duration": 0.09632049999999026
                },
                {
                    "name": "F#4",
                    "midi": 66,
                    "time": 229.8207129999949,
                    "velocity": 0.4409448818897638,
                    "duration": 0.19264100000000894
                },
                {
                    "name": "D#5",
                    "midi": 75,
                    "time": 229.91703349999491,
                    "velocity": 0.33858267716535434,
                    "duration": 0.09632049999999026
                },
                {
                    "name": "F4",
                    "midi": 65,
                    "time": 230.0133539999949,
                    "velocity": 0.47244094488188976,
                    "duration": 0.0722403750000069
                },
                {
                    "name": "A4",
                    "midi": 69,
                    "time": 230.4949564999949,
                    "velocity": 0.4015748031496063,
                    "duration": 0.09632049999999026
                },
                {
                    "name": "D#5",
                    "midi": 75,
                    "time": 230.5912769999949,
                    "velocity": 0.4330708661417323,
                    "duration": 0.0722403750000069
                },
                {
                    "name": "F4",
                    "midi": 65,
                    "time": 230.68759749999492,
                    "velocity": 0.3779527559055118,
                    "duration": 0.09632049999999026
                },
                {
                    "name": "A4",
                    "midi": 69,
                    "time": 230.7839179999949,
                    "velocity": 0.4015748031496063,
                    "duration": 0.09632049999999026
                },
                {
                    "name": "C5",
                    "midi": 72,
                    "time": 230.8802384999949,
                    "velocity": 0.41732283464566927,
                    "duration": 0.09632049999999026
                },
                {
                    "name": "D#5",
                    "midi": 75,
                    "time": 230.9765589999949,
                    "velocity": 0.4409448818897638,
                    "duration": 0.0722403750000069
                },
                {
                    "name": "A5",
                    "midi": 81,
                    "time": 231.0728794999949,
                    "velocity": 0.41732283464566927,
                    "duration": 0.09632049999999026
                },
                {
                    "name": "D#6",
                    "midi": 87,
                    "time": 231.1691999999949,
                    "velocity": 0.4881889763779528,
                    "duration": 0.09632049999999026
                },
                {
                    "name": "D6",
                    "midi": 86,
                    "time": 231.2655204999949,
                    "velocity": 0.48031496062992124,
                    "duration": 0.09632049999999026
                },
                {
                    "name": "C6",
                    "midi": 84,
                    "time": 231.36184099999488,
                    "velocity": 0.47244094488188976,
                    "duration": 0.09632049999999026
                },
                {
                    "name": "A#5",
                    "midi": 82,
                    "time": 231.45816149999487,
                    "velocity": 0.4645669291338583,
                    "duration": 0.09632049999999026
                },
                {
                    "name": "A5",
                    "midi": 81,
                    "time": 231.55448199999486,
                    "velocity": 0.4566929133858268,
                    "duration": 0.09632049999999026
                },
                {
                    "name": "G5",
                    "midi": 79,
                    "time": 231.65080249999485,
                    "velocity": 0.4330708661417323,
                    "duration": 0.09632049999999026
                },
                {
                    "name": "F5",
                    "midi": 77,
                    "time": 231.74712299999484,
                    "velocity": 0.4645669291338583,
                    "duration": 0.09632049999999026
                },
                {
                    "name": "G5",
                    "midi": 79,
                    "time": 231.84344349999483,
                    "velocity": 0.4330708661417323,
                    "duration": 0.09632049999999026
                },
                {
                    "name": "F5",
                    "midi": 77,
                    "time": 231.93976399999482,
                    "velocity": 0.4409448818897638,
                    "duration": 0.09632049999999026
                },
                {
                    "name": "D#5",
                    "midi": 75,
                    "time": 232.03608449999481,
                    "velocity": 0.4251968503937008,
                    "duration": 0.09632049999999026
                },
                {
                    "name": "D5",
                    "midi": 74,
                    "time": 232.1324049999948,
                    "velocity": 0.4094488188976378,
                    "duration": 0.09632049999999026
                },
                {
                    "name": "C5",
                    "midi": 72,
                    "time": 232.2287254999948,
                    "velocity": 0.3937007874015748,
                    "duration": 0.09632049999999026
                },
                {
                    "name": "D5",
                    "midi": 74,
                    "time": 232.32504599999479,
                    "velocity": 0.4251968503937008,
                    "duration": 0.19264100000000894
                },
                {
                    "name": "D5",
                    "midi": 74,
                    "time": 232.7103279999948,
                    "velocity": 0.33070866141732286,
                    "duration": 0.19264100000000894
                },
                {
                    "name": "C5",
                    "midi": 72,
                    "time": 232.9029689999948,
                    "velocity": 0.36220472440944884,
                    "duration": 0.19264100000000894
                },
                {
                    "name": "C5",
                    "midi": 72,
                    "time": 233.28825099999483,
                    "velocity": 0.3543307086614173,
                    "duration": 0.19264100000000894
                },
                {
                    "name": "D#5",
                    "midi": 75,
                    "time": 233.48089199999484,
                    "velocity": 0.4094488188976378,
                    "duration": 0.9632049999999879
                },
                {
                    "name": "D5",
                    "midi": 74,
                    "time": 234.44409699999483,
                    "velocity": 0.33070866141732286,
                    "duration": 0.19264100000000894
                },
                {
                    "name": "D#5",
                    "midi": 75,
                    "time": 234.63673799999484,
                    "velocity": 0.36220472440944884,
                    "duration": 0.19264100000000894
                },
                {
                    "name": "D#5",
                    "midi": 75,
                    "time": 235.02201999999485,
                    "velocity": 0.33070866141732286,
                    "duration": 0.19264100000000894
                },
                {
                    "name": "D5",
                    "midi": 74,
                    "time": 235.21466099999486,
                    "velocity": 0.33858267716535434,
                    "duration": 0.19264100000000894
                },
                {
                    "name": "D5",
                    "midi": 74,
                    "time": 235.59994299999488,
                    "velocity": 0.33858267716535434,
                    "duration": 0.19264100000000894
                },
                {
                    "name": "G5",
                    "midi": 79,
                    "time": 235.7925839999949,
                    "velocity": 0.4094488188976378,
                    "duration": 0.9632049999999879
                },
                {
                    "name": "F5",
                    "midi": 77,
                    "time": 236.75578899999488,
                    "velocity": 0.3464566929133858,
                    "duration": 0.19264100000000894
                },
                {
                    "name": "F5",
                    "midi": 77,
                    "time": 236.9484299999949,
                    "velocity": 0.3700787401574803,
                    "duration": 0.19264100000000894
                },
                {
                    "name": "E5",
                    "midi": 76,
                    "time": 237.1410709999949,
                    "velocity": 0.3464566929133858,
                    "duration": 0.19264100000000894
                },
                {
                    "name": "C5",
                    "midi": 72,
                    "time": 237.3337119999949,
                    "velocity": 0.3779527559055118,
                    "duration": 0.38528199999998947
                },
                {
                    "name": "D5",
                    "midi": 74,
                    "time": 237.7189939999949,
                    "velocity": 0.3543307086614173,
                    "duration": 0.19264100000000894
                },
                {
                    "name": "D#5",
                    "midi": 75,
                    "time": 237.9116349999949,
                    "velocity": 0.3543307086614173,
                    "duration": 0.18943031666665888
                },
                {
                    "name": "D#5",
                    "midi": 75,
                    "time": 238.10427599999488,
                    "velocity": 0.3543307086614173,
                    "duration": 0.19264100000000894
                },
                {
                    "name": "D5",
                    "midi": 74,
                    "time": 238.2969169999949,
                    "velocity": 0.33070866141732286,
                    "duration": 0.19264100000000894
                },
                {
                    "name": "A#4",
                    "midi": 70,
                    "time": 238.4895579999949,
                    "velocity": 0.36220472440944884,
                    "duration": 0.38528199999998947
                },
                {
                    "name": "C5",
                    "midi": 72,
                    "time": 238.8748399999949,
                    "velocity": 0.36220472440944884,
                    "duration": 0.19264100000000894
                },
                {
                    "name": "C#5",
                    "midi": 73,
                    "time": 239.0674809999949,
                    "velocity": 0.4015748031496063,
                    "duration": 0.38528199999998947
                },
                {
                    "name": "C5",
                    "midi": 72,
                    "time": 239.4527629999949,
                    "velocity": 0.4015748031496063,
                    "duration": 0.19264100000000894
                },
                {
                    "name": "C#5",
                    "midi": 73,
                    "time": 239.6454039999949,
                    "velocity": 0.4330708661417323,
                    "duration": 0.38528199999998947
                },
                {
                    "name": "C5",
                    "midi": 72,
                    "time": 240.0306859999949,
                    "velocity": 0.3937007874015748,
                    "duration": 0.19264100000000894
                },
                {
                    "name": "A#4",
                    "midi": 70,
                    "time": 240.2233269999949,
                    "velocity": 0.4015748031496063,
                    "duration": 0.19264100000000894
                },
                {
                    "name": "A4",
                    "midi": 69,
                    "time": 240.4159679999949,
                    "velocity": 0.44881889763779526,
                    "duration": 0.5779229999999984
                },
                {
                    "name": "C5",
                    "midi": 72,
                    "time": 240.9938909999949,
                    "velocity": 0.4330708661417323,
                    "duration": 0.19264100000000894
                },
                {
                    "name": "D5",
                    "midi": 74,
                    "time": 241.5718139999949,
                    "velocity": 0.5905511811023622,
                    "duration": 0.09632049999999026
                },
                {
                    "name": "A#4",
                    "midi": 70,
                    "time": 241.6681344999949,
                    "velocity": 0.44881889763779526,
                    "duration": 0.09632049999999026
                },
                {
                    "name": "F4",
                    "midi": 65,
                    "time": 241.76445499999488,
                    "velocity": 0.44881889763779526,
                    "duration": 0.09632049999999026
                },
                {
                    "name": "A#4",
                    "midi": 70,
                    "time": 241.86077549999487,
                    "velocity": 0.44881889763779526,
                    "duration": 0.09632049999999026
                },
                {
                    "name": "D5",
                    "midi": 74,
                    "time": 241.95709599999486,
                    "velocity": 0.44881889763779526,
                    "duration": 0.09632049999999026
                },
                {
                    "name": "A#4",
                    "midi": 70,
                    "time": 242.05341649999485,
                    "velocity": 0.44881889763779526,
                    "duration": 0.09632049999999026
                },
                {
                    "name": "C5",
                    "midi": 72,
                    "time": 242.14973699999484,
                    "velocity": 0.5748031496062992,
                    "duration": 0.09632049999999026
                },
                {
                    "name": "A4",
                    "midi": 69,
                    "time": 242.24605749999483,
                    "velocity": 0.4409448818897638,
                    "duration": 0.09632049999999026
                },
                {
                    "name": "F4",
                    "midi": 65,
                    "time": 242.34237799999482,
                    "velocity": 0.4409448818897638,
                    "duration": 0.09632049999999026
                },
                {
                    "name": "A4",
                    "midi": 69,
                    "time": 242.4386984999948,
                    "velocity": 0.4409448818897638,
                    "duration": 0.09632049999999026
                },
                {
                    "name": "C5",
                    "midi": 72,
                    "time": 242.5350189999948,
                    "velocity": 0.4409448818897638,
                    "duration": 0.09632049999999026
                },
                {
                    "name": "A4",
                    "midi": 69,
                    "time": 242.6313394999948,
                    "velocity": 0.4409448818897638,
                    "duration": 0.09632049999999026
                },
                {
                    "name": "D#5",
                    "midi": 75,
                    "time": 242.72765999999478,
                    "velocity": 0.5984251968503937,
                    "duration": 0.09632049999999026
                },
                {
                    "name": "A#4",
                    "midi": 70,
                    "time": 242.82398049999478,
                    "velocity": 0.4330708661417323,
                    "duration": 0.09632049999999026
                },
                {
                    "name": "G4",
                    "midi": 67,
                    "time": 242.92030099999477,
                    "velocity": 0.4330708661417323,
                    "duration": 0.09632049999999026
                },
                {
                    "name": "A#4",
                    "midi": 70,
                    "time": 243.01662149999476,
                    "velocity": 0.4330708661417323,
                    "duration": 0.09632049999999026
                },
                {
                    "name": "D#5",
                    "midi": 75,
                    "time": 243.11294199999475,
                    "velocity": 0.47244094488188976,
                    "duration": 0.09632049999999026
                },
                {
                    "name": "A#4",
                    "midi": 70,
                    "time": 243.20926249999474,
                    "velocity": 0.41732283464566927,
                    "duration": 0.09632049999999026
                },
                {
                    "name": "D#5",
                    "midi": 75,
                    "time": 243.30558299999473,
                    "velocity": 0.4645669291338583,
                    "duration": 0.09632049999999026
                },
                {
                    "name": "A#4",
                    "midi": 70,
                    "time": 243.40190349999472,
                    "velocity": 0.4094488188976378,
                    "duration": 0.09632049999999026
                },
                {
                    "name": "D#5",
                    "midi": 75,
                    "time": 243.4982239999947,
                    "velocity": 0.47244094488188976,
                    "duration": 0.09632049999999026
                },
                {
                    "name": "A#4",
                    "midi": 70,
                    "time": 243.5945444999947,
                    "velocity": 0.3779527559055118,
                    "duration": 0.09632049999999026
                },
                {
                    "name": "D5",
                    "midi": 74,
                    "time": 243.6908649999947,
                    "velocity": 0.5826771653543307,
                    "duration": 0.09632049999999026
                },
                {
                    "name": "A4",
                    "midi": 69,
                    "time": 243.78718549999468,
                    "velocity": 0.4015748031496063,
                    "duration": 0.09632049999999026
                },
                {
                    "name": "D#5",
                    "midi": 75,
                    "time": 243.88350599999467,
                    "velocity": 0.6141732283464567,
                    "duration": 0.09632049999999026
                },
                {
                    "name": "A#4",
                    "midi": 70,
                    "time": 243.97982649999466,
                    "velocity": 0.41732283464566927,
                    "duration": 0.09632049999999026
                },
                {
                    "name": "G4",
                    "midi": 67,
                    "time": 244.07614699999465,
                    "velocity": 0.4251968503937008,
                    "duration": 0.09632049999999026
                },
                {
                    "name": "A#4",
                    "midi": 70,
                    "time": 244.17246749999464,
                    "velocity": 0.4251968503937008,
                    "duration": 0.09632049999999026
                },
                {
                    "name": "D#5",
                    "midi": 75,
                    "time": 244.26878799999463,
                    "velocity": 0.47244094488188976,
                    "duration": 0.09632049999999026
                },
                {
                    "name": "A#4",
                    "midi": 70,
                    "time": 244.36510849999462,
                    "velocity": 0.4251968503937008,
                    "duration": 0.09632049999999026
                },
                {
                    "name": "D5",
                    "midi": 74,
                    "time": 244.4614289999946,
                    "velocity": 0.5039370078740157,
                    "duration": 0.09632049999999026
                },
                {
                    "name": "A4",
                    "midi": 69,
                    "time": 244.5577494999946,
                    "velocity": 0.4094488188976378,
                    "duration": 0.09632049999999026
                },
                {
                    "name": "F4",
                    "midi": 65,
                    "time": 244.6540699999946,
                    "velocity": 0.41732283464566927,
                    "duration": 0.09632049999999026
                },
                {
                    "name": "A4",
                    "midi": 69,
                    "time": 244.75039049999458,
                    "velocity": 0.41732283464566927,
                    "duration": 0.09632049999999026
                },
                {
                    "name": "D5",
                    "midi": 74,
                    "time": 244.84671099999457,
                    "velocity": 0.5748031496062992,
                    "duration": 0.09632049999999026
                },
                {
                    "name": "A4",
                    "midi": 69,
                    "time": 244.94303149999456,
                    "velocity": 0.44881889763779526,
                    "duration": 0.09632049999999026
                },
                {
                    "name": "G5",
                    "midi": 79,
                    "time": 245.03935199999455,
                    "velocity": 0.5905511811023622,
                    "duration": 0.09632049999999026
                },
                {
                    "name": "A#4",
                    "midi": 70,
                    "time": 245.13567249999454,
                    "velocity": 0.4094488188976378,
                    "duration": 0.09632049999999026
                },
                {
                    "name": "G4",
                    "midi": 67,
                    "time": 245.23199299999453,
                    "velocity": 0.4094488188976378,
                    "duration": 0.09632049999999026
                },
                {
                    "name": "A#4",
                    "midi": 70,
                    "time": 245.32831349999452,
                    "velocity": 0.4094488188976378,
                    "duration": 0.09632049999999026
                },
                {
                    "name": "G5",
                    "midi": 79,
                    "time": 245.4246339999945,
                    "velocity": 0.48031496062992124,
                    "duration": 0.09632049999999026
                },
                {
                    "name": "A#4",
                    "midi": 70,
                    "time": 245.5209544999945,
                    "velocity": 0.4015748031496063,
                    "duration": 0.09632049999999026
                },
                {
                    "name": "G5",
                    "midi": 79,
                    "time": 245.6172749999945,
                    "velocity": 0.49606299212598426,
                    "duration": 0.09632049999999026
                },
                {
                    "name": "A#4",
                    "midi": 70,
                    "time": 245.71359549999448,
                    "velocity": 0.4094488188976378,
                    "duration": 0.09632049999999026
                },
                {
                    "name": "G5",
                    "midi": 79,
                    "time": 245.80991599999447,
                    "velocity": 0.5118110236220472,
                    "duration": 0.09632049999999026
                },
                {
                    "name": "A#4",
                    "midi": 70,
                    "time": 245.90623649999446,
                    "velocity": 0.41732283464566927,
                    "duration": 0.09632049999999026
                },
                {
                    "name": "F5",
                    "midi": 77,
                    "time": 246.00255699999445,
                    "velocity": 0.4015748031496063,
                    "duration": 0.09632049999999026
                },
                {
                    "name": "A#4",
                    "midi": 70,
                    "time": 246.09887749999444,
                    "velocity": 0.3543307086614173,
                    "duration": 0.09632049999999026
                },
                {
                    "name": "G4",
                    "midi": 67,
                    "time": 246.48415949999443,
                    "velocity": 0.4015748031496063,
                    "duration": 0.09632049999999026
                },
                {
                    "name": "A#4",
                    "midi": 70,
                    "time": 246.58047999999442,
                    "velocity": 0.3464566929133858,
                    "duration": 0.09632049999999026
                },
                {
                    "name": "E5",
                    "midi": 76,
                    "time": 246.6768004999944,
                    "velocity": 0.3464566929133858,
                    "duration": 0.09632049999999026
                },
                {
                    "name": "A4",
                    "midi": 69,
                    "time": 247.0620824999944,
                    "velocity": 0.4015748031496063,
                    "duration": 0.09632049999999026
                },
                {
                    "name": "C5",
                    "midi": 72,
                    "time": 247.1584029999944,
                    "velocity": 0.36220472440944884,
                    "duration": 0.09632049999999026
                },
                {
                    "name": "D#5",
                    "midi": 75,
                    "time": 247.25472349999438,
                    "velocity": 0.36220472440944884,
                    "duration": 0.09632049999999026
                },
                {
                    "name": "G4",
                    "midi": 67,
                    "time": 247.64000549999437,
                    "velocity": 0.4015748031496063,
                    "duration": 0.09632049999999026
                },
                {
                    "name": "A#4",
                    "midi": 70,
                    "time": 247.73632599999436,
                    "velocity": 0.3464566929133858,
                    "duration": 0.09632049999999026
                },
                {
                    "name": "D5",
                    "midi": 74,
                    "time": 247.83264649999435,
                    "velocity": 0.3464566929133858,
                    "duration": 0.09632049999999026
                },
                {
                    "name": "D#4",
                    "midi": 63,
                    "time": 248.21792849999434,
                    "velocity": 0.44881889763779526,
                    "duration": 0.09632049999999026
                },
                {
                    "name": "G4",
                    "midi": 67,
                    "time": 248.31424899999433,
                    "velocity": 0.3779527559055118,
                    "duration": 0.09632049999999026
                },
                {
                    "name": "C5",
                    "midi": 72,
                    "time": 248.41056949999432,
                    "velocity": 0.3858267716535433,
                    "duration": 0.09632049999999026
                },
                {
                    "name": "D4",
                    "midi": 62,
                    "time": 248.7958514999943,
                    "velocity": 0.4409448818897638,
                    "duration": 0.09632049999999026
                },
                {
                    "name": "F4",
                    "midi": 65,
                    "time": 248.8921719999943,
                    "velocity": 0.3779527559055118,
                    "duration": 0.09632049999999026
                },
                {
                    "name": "A#4",
                    "midi": 70,
                    "time": 248.9884924999943,
                    "velocity": 0.3779527559055118,
                    "duration": 0.09632049999999026
                },
                {
                    "name": "D#4",
                    "midi": 63,
                    "time": 249.37377449999428,
                    "velocity": 0.4645669291338583,
                    "duration": 0.09632049999999026
                },
                {
                    "name": "F4",
                    "midi": 65,
                    "time": 249.47009499999427,
                    "velocity": 0.4094488188976378,
                    "duration": 0.09632049999999026
                },
                {
                    "name": "A4",
                    "midi": 69,
                    "time": 249.56641549999426,
                    "velocity": 0.4094488188976378,
                    "duration": 0.09632049999999026
                },
                {
                    "name": "D4",
                    "midi": 62,
                    "time": 251.58914599999426,
                    "velocity": 0.4015748031496063,
                    "duration": 0.19264100000000894
                },
                {
                    "name": "F4",
                    "midi": 65,
                    "time": 251.78178699999427,
                    "velocity": 0.4409448818897638,
                    "duration": 0.19264100000000894
                },
                {
                    "name": "F#4",
                    "midi": 66,
                    "time": 251.97442799999428,
                    "velocity": 0.44881889763779526,
                    "duration": 0.19264100000000894
                },
                {
                    "name": "A4",
                    "midi": 69,
                    "time": 252.16706899999429,
                    "velocity": 0.4566929133858268,
                    "duration": 0.19264100000000894
                },
                {
                    "name": "C5",
                    "midi": 72,
                    "time": 252.3597099999943,
                    "velocity": 0.47244094488188976,
                    "duration": 0.19264100000000894
                },
                {
                    "name": "D#5",
                    "midi": 75,
                    "time": 252.5523509999943,
                    "velocity": 0.48031496062992124,
                    "duration": 0.19264100000000894
                },
                {
                    "name": "F#5",
                    "midi": 78,
                    "time": 252.7449919999943,
                    "velocity": 0.49606299212598426,
                    "duration": 0.19264100000000894
                },
                {
                    "name": "A5",
                    "midi": 81,
                    "time": 252.93763299999432,
                    "velocity": 0.5039370078740157,
                    "duration": 0.19264100000000894
                },
                {
                    "name": "C6",
                    "midi": 84,
                    "time": 253.13027399999433,
                    "velocity": 0.5196850393700787,
                    "duration": 0.19264100000000894
                },
                {
                    "name": "A5",
                    "midi": 81,
                    "time": 253.32291499999434,
                    "velocity": 0.5039370078740157,
                    "duration": 0.19264100000000894
                },
                {
                    "name": "F#5",
                    "midi": 78,
                    "time": 253.51555599999435,
                    "velocity": 0.4881889763779528,
                    "duration": 0.19264100000000894
                },
                {
                    "name": "D#5",
                    "midi": 75,
                    "time": 253.70819699999436,
                    "velocity": 0.47244094488188976,
                    "duration": 0.19264100000000894
                },
                {
                    "name": "D5",
                    "midi": 74,
                    "time": 253.90083799999437,
                    "velocity": 0.4566929133858268,
                    "duration": 0.19264100000000894
                },
                {
                    "name": "F#4",
                    "midi": 66,
                    "time": 254.09347899999437,
                    "velocity": 0.44881889763779526,
                    "duration": 0.19264100000000894
                },
                {
                    "name": "A4",
                    "midi": 69,
                    "time": 254.28611999999438,
                    "velocity": 0.4330708661417323,
                    "duration": 0.19264100000000894
                },
                {
                    "name": "G4",
                    "midi": 67,
                    "time": 254.4787609999944,
                    "velocity": 0.3543307086614173,
                    "duration": 0.19264100000000894
                },
                {
                    "name": "C#5",
                    "midi": 73,
                    "time": 254.6714019999944,
                    "velocity": 0.3543307086614173,
                    "duration": 0.19264100000000894
                },
                {
                    "name": "D5",
                    "midi": 74,
                    "time": 254.8640429999944,
                    "velocity": 0.3937007874015748,
                    "duration": 0.19264100000000894
                },
                {
                    "name": "F#5",
                    "midi": 78,
                    "time": 255.05668399999442,
                    "velocity": 0.3700787401574803,
                    "duration": 0.19264100000000894
                },
                {
                    "name": "G5",
                    "midi": 79,
                    "time": 255.24932499999443,
                    "velocity": 0.3700787401574803,
                    "duration": 0.19264100000000894
                },
                {
                    "name": "C#6",
                    "midi": 85,
                    "time": 255.44196599999444,
                    "velocity": 0.4094488188976378,
                    "duration": 0.19264100000000894
                },
                {
                    "name": "D6",
                    "midi": 86,
                    "time": 255.63460699999445,
                    "velocity": 0.3543307086614173,
                    "duration": 0.19264100000000894
                },
                {
                    "name": "A5",
                    "midi": 81,
                    "time": 255.82724799999446,
                    "velocity": 0.3228346456692913,
                    "duration": 0.19264100000000894
                },
                {
                    "name": "A#5",
                    "midi": 82,
                    "time": 256.01988899999446,
                    "velocity": 0.3858267716535433,
                    "duration": 0.19264099999998052
                },
                {
                    "name": "F#5",
                    "midi": 78,
                    "time": 256.21252999999444,
                    "velocity": 0.33858267716535434,
                    "duration": 0.19264099999998052
                },
                {
                    "name": "G5",
                    "midi": 79,
                    "time": 256.4051709999944,
                    "velocity": 0.33858267716535434,
                    "duration": 0.19264099999998052
                },
                {
                    "name": "F5",
                    "midi": 77,
                    "time": 256.7904529999944,
                    "velocity": 0.30708661417322836,
                    "duration": 0.19264099999998052
                },
                {
                    "name": "E5",
                    "midi": 76,
                    "time": 256.98309399999437,
                    "velocity": 0.2755905511811024,
                    "duration": 0.19264099999998052
                },
                {
                    "name": "E5",
                    "midi": 76,
                    "time": 257.3683759999943,
                    "velocity": 0.2755905511811024,
                    "duration": 0.19264099999998052
                },
                {
                    "name": "C#6",
                    "midi": 85,
                    "time": 257.5610169999943,
                    "velocity": 0.3228346456692913,
                    "duration": 0.19264099999998052
                },
                {
                    "name": "C#6",
                    "midi": 85,
                    "time": 257.94629899999427,
                    "velocity": 0.3228346456692913,
                    "duration": 0.19264099999998052
                },
                {
                    "name": "C6",
                    "midi": 84,
                    "time": 258.13893999999425,
                    "velocity": 0.33858267716535434,
                    "duration": 0.19264099999998052
                },
                {
                    "name": "C6",
                    "midi": 84,
                    "time": 258.5242219999942,
                    "velocity": 0.33858267716535434,
                    "duration": 0.19264099999998052
                },
                {
                    "name": "E5",
                    "midi": 76,
                    "time": 258.7168629999942,
                    "velocity": 0.3228346456692913,
                    "duration": 0.19264099999998052
                },
                {
                    "name": "E5",
                    "midi": 76,
                    "time": 259.10214499999415,
                    "velocity": 0.4409448818897638,
                    "duration": 0.19264099999998052
                },
                {
                    "name": "F5",
                    "midi": 77,
                    "time": 259.29478599999413,
                    "velocity": 0.41732283464566927,
                    "duration": 0.19264099999998052
                },
                {
                    "name": "C6",
                    "midi": 84,
                    "time": 259.4874269999941,
                    "velocity": 0.49606299212598426,
                    "duration": 0.19264099999998052
                },
                {
                    "name": "G5",
                    "midi": 79,
                    "time": 259.6800679999941,
                    "velocity": 0.4409448818897638,
                    "duration": 0.19264099999998052
                },
                {
                    "name": "A#5",
                    "midi": 82,
                    "time": 259.8727089999941,
                    "velocity": 0.4409448818897638,
                    "duration": 0.19264099999998052
                },
                {
                    "name": "G#5",
                    "midi": 80,
                    "time": 260.06534999999405,
                    "velocity": 0.49606299212598426,
                    "duration": 0.19264099999998052
                },
                {
                    "name": "E5",
                    "midi": 76,
                    "time": 260.25799099999404,
                    "velocity": 0.4409448818897638,
                    "duration": 0.19264099999998052
                },
                {
                    "name": "G5",
                    "midi": 79,
                    "time": 260.450631999994,
                    "velocity": 0.4409448818897638,
                    "duration": 0.19264099999998052
                },
                {
                    "name": "F5",
                    "midi": 77,
                    "time": 260.643272999994,
                    "velocity": 0.47244094488188976,
                    "duration": 0.19264099999998052
                },
                {
                    "name": "D#5",
                    "midi": 75,
                    "time": 260.835913999994,
                    "velocity": 0.4094488188976378,
                    "duration": 0.19264099999998052
                },
                {
                    "name": "C#5",
                    "midi": 73,
                    "time": 261.02855499999396,
                    "velocity": 0.4094488188976378,
                    "duration": 0.19264099999998052
                },
                {
                    "name": "C5",
                    "midi": 72,
                    "time": 261.22119599999394,
                    "velocity": 0.4015748031496063,
                    "duration": 0.5779229999999984
                },
                {
                    "name": "B4",
                    "midi": 71,
                    "time": 261.79911899999394,
                    "velocity": 0.3543307086614173,
                    "duration": 0.5779229999999984
                },
                {
                    "name": "F5",
                    "midi": 77,
                    "time": 262.37704199999393,
                    "velocity": 0.3937007874015748,
                    "duration": 0.5779229999999984
                },
                {
                    "name": "B4",
                    "midi": 71,
                    "time": 262.95496499999393,
                    "velocity": 0.3543307086614173,
                    "duration": 0.5779229999999984
                },
                {
                    "name": "E4",
                    "midi": 64,
                    "time": 263.7255289999939,
                    "velocity": 0.4330708661417323,
                    "duration": 0.19264099999998052
                },
                {
                    "name": "C5",
                    "midi": 72,
                    "time": 263.7255289999939,
                    "velocity": 0.5196850393700787,
                    "duration": 0.19264099999998052
                },
                {
                    "name": "G4",
                    "midi": 67,
                    "time": 263.7255289999939,
                    "velocity": 0.4330708661417323,
                    "duration": 0.19264099999998052
                },
                {
                    "name": "B4",
                    "midi": 71,
                    "time": 263.9181699999939,
                    "velocity": 0.47244094488188976,
                    "duration": 0.09632049999999026
                },
                {
                    "name": "F4",
                    "midi": 65,
                    "time": 263.9181699999939,
                    "velocity": 0.47244094488188976,
                    "duration": 0.09632049999999026
                },
                {
                    "name": "D5",
                    "midi": 74,
                    "time": 263.9181699999939,
                    "velocity": 0.5748031496062992,
                    "duration": 0.09632049999999026
                },
                {
                    "name": "D5",
                    "midi": 74,
                    "time": 264.3034519999939,
                    "velocity": 0.5196850393700787,
                    "duration": 0.19264099999998052
                },
                {
                    "name": "F4",
                    "midi": 65,
                    "time": 264.3034519999939,
                    "velocity": 0.4330708661417323,
                    "duration": 0.19264099999998052
                },
                {
                    "name": "B4",
                    "midi": 71,
                    "time": 264.3034519999939,
                    "velocity": 0.4330708661417323,
                    "duration": 0.19264099999998052
                },
                {
                    "name": "A#4",
                    "midi": 70,
                    "time": 264.4960929999939,
                    "velocity": 0.48031496062992124,
                    "duration": 0.09632049999999026
                },
                {
                    "name": "G4",
                    "midi": 67,
                    "time": 264.4960929999939,
                    "velocity": 0.48031496062992124,
                    "duration": 0.09632049999999026
                },
                {
                    "name": "E5",
                    "midi": 76,
                    "time": 264.4960929999939,
                    "velocity": 0.5826771653543307,
                    "duration": 0.09632049999999026
                },
                {
                    "name": "G4",
                    "midi": 67,
                    "time": 264.8813749999939,
                    "velocity": 0.4330708661417323,
                    "duration": 0.19264099999998052
                },
                {
                    "name": "E5",
                    "midi": 76,
                    "time": 264.8813749999939,
                    "velocity": 0.5196850393700787,
                    "duration": 0.19264099999998052
                },
                {
                    "name": "A#4",
                    "midi": 70,
                    "time": 264.8813749999939,
                    "velocity": 0.4330708661417323,
                    "duration": 0.19264099999998052
                },
                {
                    "name": "C5",
                    "midi": 72,
                    "time": 265.0740159999939,
                    "velocity": 0.47244094488188976,
                    "duration": 0.09632049999999026
                },
                {
                    "name": "A4",
                    "midi": 69,
                    "time": 265.0740159999939,
                    "velocity": 0.47244094488188976,
                    "duration": 0.09632049999999026
                },
                {
                    "name": "F5",
                    "midi": 77,
                    "time": 265.0740159999939,
                    "velocity": 0.5669291338582677,
                    "duration": 0.09632049999999026
                },
                {
                    "name": "F#5",
                    "midi": 78,
                    "time": 265.4592979999939,
                    "velocity": 0.5196850393700787,
                    "duration": 0.19264099999998052
                },
                {
                    "name": "C5",
                    "midi": 72,
                    "time": 265.4592979999939,
                    "velocity": 0.4330708661417323,
                    "duration": 0.19264099999998052
                },
                {
                    "name": "A4",
                    "midi": 69,
                    "time": 265.4592979999939,
                    "velocity": 0.4330708661417323,
                    "duration": 0.19264099999998052
                },
                {
                    "name": "G5",
                    "midi": 79,
                    "time": 265.6519389999939,
                    "velocity": 0.5590551181102362,
                    "duration": 0.09632049999999026
                },
                {
                    "name": "E5",
                    "midi": 76,
                    "time": 265.6519389999939,
                    "velocity": 0.4645669291338583,
                    "duration": 0.09632049999999026
                },
                {
                    "name": "A#4",
                    "midi": 70,
                    "time": 265.6519389999939,
                    "velocity": 0.4645669291338583,
                    "duration": 0.09632049999999026
                },
                {
                    "name": "E5",
                    "midi": 76,
                    "time": 266.0372209999939,
                    "velocity": 0.4330708661417323,
                    "duration": 0.19264099999998052
                },
                {
                    "name": "A#4",
                    "midi": 70,
                    "time": 266.0372209999939,
                    "velocity": 0.4330708661417323,
                    "duration": 0.19264099999998052
                },
                {
                    "name": "G5",
                    "midi": 79,
                    "time": 266.0372209999939,
                    "velocity": 0.5196850393700787,
                    "duration": 0.19264099999998052
                },
                {
                    "name": "A5",
                    "midi": 81,
                    "time": 266.2298619999939,
                    "velocity": 0.5748031496062992,
                    "duration": 0.09632049999999026
                },
                {
                    "name": "C5",
                    "midi": 72,
                    "time": 266.2298619999939,
                    "velocity": 0.47244094488188976,
                    "duration": 0.09632049999999026
                },
                {
                    "name": "F5",
                    "midi": 77,
                    "time": 266.2298619999939,
                    "velocity": 0.47244094488188976,
                    "duration": 0.09632049999999026
                },
                {
                    "name": "F#5",
                    "midi": 78,
                    "time": 266.6151439999939,
                    "velocity": 0.4330708661417323,
                    "duration": 0.19264099999998052
                },
                {
                    "name": "C5",
                    "midi": 72,
                    "time": 266.6151439999939,
                    "velocity": 0.4330708661417323,
                    "duration": 0.19264099999998052
                },
                {
                    "name": "A5",
                    "midi": 81,
                    "time": 266.6151439999939,
                    "velocity": 0.5196850393700787,
                    "duration": 0.19264099999998052
                },
                {
                    "name": "E5",
                    "midi": 76,
                    "time": 266.8077849999939,
                    "velocity": 0.4566929133858268,
                    "duration": 0.09632049999999026
                },
                {
                    "name": "A#5",
                    "midi": 82,
                    "time": 266.8077849999939,
                    "velocity": 0.5511811023622047,
                    "duration": 0.09632049999999026
                },
                {
                    "name": "G5",
                    "midi": 79,
                    "time": 266.8077849999939,
                    "velocity": 0.4566929133858268,
                    "duration": 0.09632049999999026
                },
                {
                    "name": "G5",
                    "midi": 79,
                    "time": 267.00042599999387,
                    "velocity": 0.5590551181102362,
                    "duration": 1.1558459999999968
                },
                {
                    "name": "E5",
                    "midi": 76,
                    "time": 267.00042599999387,
                    "velocity": 0.5590551181102362,
                    "duration": 1.1558459999999968
                },
                {
                    "name": "A#5",
                    "midi": 82,
                    "time": 267.00042599999387,
                    "velocity": 0.6771653543307087,
                    "duration": 1.252166499999987
                },
                {
                    "name": "C6",
                    "midi": 84,
                    "time": 268.25259249999385,
                    "velocity": 0.49606299212598426,
                    "duration": 0.1059525499999836
                },
                {
                    "name": "D6",
                    "midi": 86,
                    "time": 268.34891299999384,
                    "velocity": 0.5196850393700787,
                    "duration": 0.1059525499999836
                },
                {
                    "name": "C6",
                    "midi": 84,
                    "time": 268.44523349999383,
                    "velocity": 0.5118110236220472,
                    "duration": 0.1059525499999836
                },
                {
                    "name": "A#5",
                    "midi": 82,
                    "time": 268.5415539999938,
                    "velocity": 0.49606299212598426,
                    "duration": 0.1059525499999836
                },
                {
                    "name": "A5",
                    "midi": 81,
                    "time": 268.6378744999938,
                    "velocity": 0.4881889763779528,
                    "duration": 0.1059525499999836
                },
                {
                    "name": "G5",
                    "midi": 79,
                    "time": 268.7341949999938,
                    "velocity": 0.4881889763779528,
                    "duration": 0.1059525499999836
                },
                {
                    "name": "A5",
                    "midi": 81,
                    "time": 268.8305154999938,
                    "velocity": 0.5039370078740157,
                    "duration": 0.1059525499999836
                },
                {
                    "name": "A#5",
                    "midi": 82,
                    "time": 268.9268359999938,
                    "velocity": 0.5275590551181102,
                    "duration": 0.1059525499999836
                },
                {
                    "name": "A5",
                    "midi": 81,
                    "time": 269.0231564999938,
                    "velocity": 0.5196850393700787,
                    "duration": 0.1059525499999836
                },
                {
                    "name": "G5",
                    "midi": 79,
                    "time": 269.11947699999376,
                    "velocity": 0.5039370078740157,
                    "duration": 0.1059525499999836
                },
                {
                    "name": "F5",
                    "midi": 77,
                    "time": 269.21579749999376,
                    "velocity": 0.4881889763779528,
                    "duration": 0.1059525499999836
                },
                {
                    "name": "E5",
                    "midi": 76,
                    "time": 269.31211799999375,
                    "velocity": 0.49606299212598426,
                    "duration": 0.1059525499999836
                },
                {
                    "name": "F5",
                    "midi": 77,
                    "time": 269.40843849999374,
                    "velocity": 0.49606299212598426,
                    "duration": 0.1059525499999836
                },
                {
                    "name": "G5",
                    "midi": 79,
                    "time": 269.5047589999937,
                    "velocity": 0.5039370078740157,
                    "duration": 0.1059525499999836
                },
                {
                    "name": "F5",
                    "midi": 77,
                    "time": 269.6010794999937,
                    "velocity": 0.5039370078740157,
                    "duration": 0.1059525499999836
                },
                {
                    "name": "E5",
                    "midi": 76,
                    "time": 269.6973999999937,
                    "velocity": 0.4881889763779528,
                    "duration": 0.1059525499999836
                },
                {
                    "name": "D5",
                    "midi": 74,
                    "time": 269.7937204999937,
                    "velocity": 0.47244094488188976,
                    "duration": 0.1059525499999836
                },
                {
                    "name": "C5",
                    "midi": 72,
                    "time": 269.8900409999937,
                    "velocity": 0.4881889763779528,
                    "duration": 0.1059525499999836
                },
                {
                    "name": "C#5",
                    "midi": 73,
                    "time": 269.9863614999937,
                    "velocity": 0.4881889763779528,
                    "duration": 0.1059525499999836
                },
                {
                    "name": "D5",
                    "midi": 74,
                    "time": 270.08268199999367,
                    "velocity": 0.5039370078740157,
                    "duration": 0.1059525499999836
                },
                {
                    "name": "C5",
                    "midi": 72,
                    "time": 270.17900249999366,
                    "velocity": 0.49606299212598426,
                    "duration": 0.1059525499999836
                },
                {
                    "name": "A#4",
                    "midi": 70,
                    "time": 270.27532299999365,
                    "velocity": 0.48031496062992124,
                    "duration": 0.1059525499999836
                },
                {
                    "name": "A4",
                    "midi": 69,
                    "time": 270.37164349999364,
                    "velocity": 0.47244094488188976,
                    "duration": 0.1059525499999836
                },
                {
                    "name": "G4",
                    "midi": 67,
                    "time": 270.46796399999363,
                    "velocity": 0.4645669291338583,
                    "duration": 0.1059525499999836
                },
                {
                    "name": "A4",
                    "midi": 69,
                    "time": 270.5642844999936,
                    "velocity": 0.48031496062992124,
                    "duration": 0.1059525499999836
                },
                {
                    "name": "A#4",
                    "midi": 70,
                    "time": 270.6606049999936,
                    "velocity": 0.5039370078740157,
                    "duration": 0.1059525499999836
                },
                {
                    "name": "A4",
                    "midi": 69,
                    "time": 270.7569254999936,
                    "velocity": 0.49606299212598426,
                    "duration": 0.1059525499999836
                },
                {
                    "name": "G4",
                    "midi": 67,
                    "time": 270.8532459999936,
                    "velocity": 0.48031496062992124,
                    "duration": 0.1059525499999836
                },
                {
                    "name": "F4",
                    "midi": 65,
                    "time": 270.9495664999936,
                    "velocity": 0.47244094488188976,
                    "duration": 0.1059525499999836
                },
                {
                    "name": "E4",
                    "midi": 64,
                    "time": 271.04588699999357,
                    "velocity": 0.47244094488188976,
                    "duration": 0.1059525499999836
                },
                {
                    "name": "F4",
                    "midi": 65,
                    "time": 271.14220749999356,
                    "velocity": 0.4881889763779528,
                    "duration": 0.1059525499999836
                },
                {
                    "name": "G4",
                    "midi": 67,
                    "time": 271.23852799999355,
                    "velocity": 0.49606299212598426,
                    "duration": 0.1059525499999836
                },
                {
                    "name": "F4",
                    "midi": 65,
                    "time": 271.33484849999354,
                    "velocity": 0.4881889763779528,
                    "duration": 0.1059525499999836
                },
                {
                    "name": "E4",
                    "midi": 64,
                    "time": 271.43116899999353,
                    "velocity": 0.47244094488188976,
                    "duration": 0.1059525499999836
                },
                {
                    "name": "D4",
                    "midi": 62,
                    "time": 271.5274894999935,
                    "velocity": 0.4645669291338583,
                    "duration": 0.09632049999999026
                },
                {
                    "name": "C6",
                    "midi": 84,
                    "time": 274.0318224999935,
                    "velocity": 0.5196850393700787,
                    "duration": 0.1059525499999836
                },
                {
                    "name": "B5",
                    "midi": 83,
                    "time": 274.1281429999935,
                    "velocity": 0.5354330708661418,
                    "duration": 0.1059525499999836
                },
                {
                    "name": "C6",
                    "midi": 84,
                    "time": 274.2244634999935,
                    "velocity": 0.5433070866141733,
                    "duration": 0.1059525499999836
                },
                {
                    "name": "F6",
                    "midi": 89,
                    "time": 274.32078399999347,
                    "velocity": 0.5511811023622047,
                    "duration": 0.1059525499999836
                },
                {
                    "name": "C6",
                    "midi": 84,
                    "time": 274.41710449999346,
                    "velocity": 0.49606299212598426,
                    "duration": 0.1059525499999836
                },
                {
                    "name": "A#5",
                    "midi": 82,
                    "time": 274.51342499999345,
                    "velocity": 0.5511811023622047,
                    "duration": 0.1059525499999836
                },
                {
                    "name": "A5",
                    "midi": 81,
                    "time": 274.60974549999344,
                    "velocity": 0.5196850393700787,
                    "duration": 0.1059525499999836
                },
                {
                    "name": "G#5",
                    "midi": 80,
                    "time": 274.7060659999934,
                    "velocity": 0.5039370078740157,
                    "duration": 0.1059525499999836
                },
                {
                    "name": "A5",
                    "midi": 81,
                    "time": 274.8023864999934,
                    "velocity": 0.5039370078740157,
                    "duration": 0.1059525499999836
                },
                {
                    "name": "C6",
                    "midi": 84,
                    "time": 274.8987069999934,
                    "velocity": 0.5511811023622047,
                    "duration": 0.1059525499999836
                },
                {
                    "name": "A5",
                    "midi": 81,
                    "time": 274.9950274999934,
                    "velocity": 0.5039370078740157,
                    "duration": 0.1059525499999836
                },
                {
                    "name": "G5",
                    "midi": 79,
                    "time": 275.0913479999934,
                    "velocity": 0.5511811023622047,
                    "duration": 0.1059525499999836
                },
                {
                    "name": "F5",
                    "midi": 77,
                    "time": 275.1876684999934,
                    "velocity": 0.5039370078740157,
                    "duration": 0.1059525499999836
                },
                {
                    "name": "E5",
                    "midi": 76,
                    "time": 275.28398899999337,
                    "velocity": 0.5039370078740157,
                    "duration": 0.1059525499999836
                },
                {
                    "name": "F5",
                    "midi": 77,
                    "time": 275.38030949999336,
                    "velocity": 0.5039370078740157,
                    "duration": 0.1059525499999836
                },
                {
                    "name": "A5",
                    "midi": 81,
                    "time": 275.47662999999335,
                    "velocity": 0.5511811023622047,
                    "duration": 0.1059525499999836
                },
                {
                    "name": "F5",
                    "midi": 77,
                    "time": 275.57295049999334,
                    "velocity": 0.5118110236220472,
                    "duration": 0.1059525499999836
                },
                {
                    "name": "D5",
                    "midi": 74,
                    "time": 275.66927099999333,
                    "velocity": 0.5511811023622047,
                    "duration": 0.1059525499999836
                },
                {
                    "name": "C5",
                    "midi": 72,
                    "time": 275.7655914999933,
                    "velocity": 0.5118110236220472,
                    "duration": 0.1059525499999836
                },
                {
                    "name": "B4",
                    "midi": 71,
                    "time": 275.8619119999933,
                    "velocity": 0.5118110236220472,
                    "duration": 0.1059525499999836
                },
                {
                    "name": "C5",
                    "midi": 72,
                    "time": 275.9582324999933,
                    "velocity": 0.5118110236220472,
                    "duration": 0.1059525499999836
                },
                {
                    "name": "F5",
                    "midi": 77,
                    "time": 276.0545529999933,
                    "velocity": 0.5511811023622047,
                    "duration": 0.1059525499999836
                },
                {
                    "name": "C5",
                    "midi": 72,
                    "time": 276.1508734999933,
                    "velocity": 0.5118110236220472,
                    "duration": 0.1059525499999836
                },
                {
                    "name": "A#4",
                    "midi": 70,
                    "time": 276.24719399999327,
                    "velocity": 0.5511811023622047,
                    "duration": 0.1059525499999836
                },
                {
                    "name": "A4",
                    "midi": 69,
                    "time": 276.34351449999326,
                    "velocity": 0.5196850393700787,
                    "duration": 0.1059525499999836
                },
                {
                    "name": "G#4",
                    "midi": 68,
                    "time": 276.43983499999325,
                    "velocity": 0.5196850393700787,
                    "duration": 0.1059525499999836
                },
                {
                    "name": "A4",
                    "midi": 69,
                    "time": 276.53615549999324,
                    "velocity": 0.5196850393700787,
                    "duration": 0.1059525499999836
                },
                {
                    "name": "C5",
                    "midi": 72,
                    "time": 276.63247599999323,
                    "velocity": 0.5511811023622047,
                    "duration": 0.1059525499999836
                },
                {
                    "name": "A4",
                    "midi": 69,
                    "time": 276.7287964999932,
                    "velocity": 0.5039370078740157,
                    "duration": 0.1059525499999836
                },
                {
                    "name": "F4",
                    "midi": 65,
                    "time": 276.8251169999932,
                    "velocity": 0.5511811023622047,
                    "duration": 0.09632049999999026
                },
                {
                    "name": "F5",
                    "midi": 77,
                    "time": 276.9214374999932,
                    "velocity": 0.5039370078740157,
                    "duration": 0.09632049999999026
                },
                {
                    "name": "E4",
                    "midi": 64,
                    "time": 277.0177579999932,
                    "velocity": 0.5511811023622047,
                    "duration": 0.09632049999999026
                },
                {
                    "name": "F5",
                    "midi": 77,
                    "time": 277.1140784999932,
                    "velocity": 0.5039370078740157,
                    "duration": 0.09632049999999026
                },
                {
                    "name": "F4",
                    "midi": 65,
                    "time": 277.2103989999932,
                    "velocity": 0.5511811023622047,
                    "duration": 0.09632049999999026
                },
                {
                    "name": "F5",
                    "midi": 77,
                    "time": 277.30671949999316,
                    "velocity": 0.5039370078740157,
                    "duration": 0.09632049999999026
                },
                {
                    "name": "G4",
                    "midi": 67,
                    "time": 277.40303999999315,
                    "velocity": 0.5511811023622047,
                    "duration": 0.09632049999999026
                },
                {
                    "name": "F5",
                    "midi": 77,
                    "time": 277.49936049999314,
                    "velocity": 0.5039370078740157,
                    "duration": 0.09632049999999026
                },
                {
                    "name": "F4",
                    "midi": 65,
                    "time": 277.59568099999314,
                    "velocity": 0.5118110236220472,
                    "duration": 0.09632049999999026
                },
                {
                    "name": "F5",
                    "midi": 77,
                    "time": 277.6920014999931,
                    "velocity": 0.4566929133858268,
                    "duration": 0.09632049999999026
                },
                {
                    "name": "G4",
                    "midi": 67,
                    "time": 277.7883219999931,
                    "velocity": 0.5275590551181102,
                    "duration": 0.09632049999999026
                },
                {
                    "name": "F5",
                    "midi": 77,
                    "time": 277.8846424999931,
                    "velocity": 0.48031496062992124,
                    "duration": 0.09632049999999026
                },
                {
                    "name": "A4",
                    "midi": 69,
                    "time": 277.9809629999931,
                    "velocity": 0.5511811023622047,
                    "duration": 0.09632049999999026
                },
                {
                    "name": "F5",
                    "midi": 77,
                    "time": 278.0772834999931,
                    "velocity": 0.47244094488188976,
                    "duration": 0.09632049999999026
                },
                {
                    "name": "G4",
                    "midi": 67,
                    "time": 278.1736039999931,
                    "velocity": 0.5196850393700787,
                    "duration": 0.09632049999999026
                },
                {
                    "name": "F5",
                    "midi": 77,
                    "time": 278.26992449999307,
                    "velocity": 0.4881889763779528,
                    "duration": 0.09632049999999026
                },
                {
                    "name": "A4",
                    "midi": 69,
                    "time": 278.36624499999306,
                    "velocity": 0.5275590551181102,
                    "duration": 0.09632049999999026
                },
                {
                    "name": "F5",
                    "midi": 77,
                    "time": 278.46256549999305,
                    "velocity": 0.4881889763779528,
                    "duration": 0.09632049999999026
                },
                {
                    "name": "A#4",
                    "midi": 70,
                    "time": 278.55888599999304,
                    "velocity": 0.5826771653543307,
                    "duration": 0.09632049999999026
                },
                {
                    "name": "F5",
                    "midi": 77,
                    "time": 278.655206499993,
                    "velocity": 0.48031496062992124,
                    "duration": 0.09632049999999026
                },
                {
                    "name": "A#4",
                    "midi": 70,
                    "time": 278.751526999993,
                    "velocity": 0.5118110236220472,
                    "duration": 0.09632049999999026
                },
                {
                    "name": "F5",
                    "midi": 77,
                    "time": 278.847847499993,
                    "velocity": 0.48031496062992124,
                    "duration": 0.09632049999999026
                },
                {
                    "name": "A4",
                    "midi": 69,
                    "time": 278.944167999993,
                    "velocity": 0.5118110236220472,
                    "duration": 0.09632049999999026
                },
                {
                    "name": "F5",
                    "midi": 77,
                    "time": 279.040488499993,
                    "velocity": 0.47244094488188976,
                    "duration": 0.09632049999999026
                },
                {
                    "name": "A#4",
                    "midi": 70,
                    "time": 279.136808999993,
                    "velocity": 0.5511811023622047,
                    "duration": 0.09632049999999026
                },
                {
                    "name": "F5",
                    "midi": 77,
                    "time": 279.23312949999297,
                    "velocity": 0.47244094488188976,
                    "duration": 0.09632049999999026
                },
                {
                    "name": "A#4",
                    "midi": 70,
                    "time": 279.32944999999296,
                    "velocity": 0.5118110236220472,
                    "duration": 0.09632049999999026
                },
                {
                    "name": "F5",
                    "midi": 77,
                    "time": 279.42577049999295,
                    "velocity": 0.47244094488188976,
                    "duration": 0.09632049999999026
                },
                {
                    "name": "A4",
                    "midi": 69,
                    "time": 279.52209099999294,
                    "velocity": 0.5118110236220472,
                    "duration": 0.09632049999999026
                },
                {
                    "name": "F5",
                    "midi": 77,
                    "time": 279.61841149999293,
                    "velocity": 0.4251968503937008,
                    "duration": 0.09632049999999026
                },
                {
                    "name": "G#4",
                    "midi": 68,
                    "time": 279.7147319999929,
                    "velocity": 0.3858267716535433,
                    "duration": 0.09632049999999026
                },
                {
                    "name": "F5",
                    "midi": 77,
                    "time": 279.8110524999929,
                    "velocity": 0.3228346456692913,
                    "duration": 0.09632049999999026
                },
                {
                    "name": "G#4",
                    "midi": 68,
                    "time": 279.9073729999929,
                    "velocity": 0.3858267716535433,
                    "duration": 0.09632049999999026
                },
                {
                    "name": "F5",
                    "midi": 77,
                    "time": 280.0036934999929,
                    "velocity": 0.33070866141732286,
                    "duration": 0.09632049999999026
                },
                {
                    "name": "G#4",
                    "midi": 68,
                    "time": 280.1000139999929,
                    "velocity": 0.3858267716535433,
                    "duration": 0.09632049999999026
                },
                {
                    "name": "F5",
                    "midi": 77,
                    "time": 280.1963344999929,
                    "velocity": 0.31496062992125984,
                    "duration": 0.09632049999999026
                },
                {
                    "name": "G4",
                    "midi": 67,
                    "time": 280.29265499999286,
                    "velocity": 0.3779527559055118,
                    "duration": 0.19264099999998052
                },
                {
                    "name": "E5",
                    "midi": 76,
                    "time": 280.29265499999286,
                    "velocity": 0.3779527559055118,
                    "duration": 0.19264099999998052
                },
                {
                    "name": "C6",
                    "midi": 84,
                    "time": 280.96689849999285,
                    "velocity": 0.5196850393700787,
                    "duration": 0.1059525499999836
                },
                {
                    "name": "B5",
                    "midi": 83,
                    "time": 281.06321899999284,
                    "velocity": 0.5354330708661418,
                    "duration": 0.1059525499999836
                },
                {
                    "name": "C6",
                    "midi": 84,
                    "time": 281.15953949999283,
                    "velocity": 0.5433070866141733,
                    "duration": 0.1059525499999836
                },
                {
                    "name": "F6",
                    "midi": 89,
                    "time": 281.2558599999928,
                    "velocity": 0.5511811023622047,
                    "duration": 0.1059525499999836
                },
                {
                    "name": "C6",
                    "midi": 84,
                    "time": 281.3521804999928,
                    "velocity": 0.49606299212598426,
                    "duration": 0.1059525499999836
                },
                {
                    "name": "A#5",
                    "midi": 82,
                    "time": 281.4485009999928,
                    "velocity": 0.5511811023622047,
                    "duration": 0.1059525499999836
                },
                {
                    "name": "A5",
                    "midi": 81,
                    "time": 281.5448214999928,
                    "velocity": 0.5196850393700787,
                    "duration": 0.1059525499999836
                },
                {
                    "name": "G#5",
                    "midi": 80,
                    "time": 281.6411419999928,
                    "velocity": 0.5039370078740157,
                    "duration": 0.1059525499999836
                },
                {
                    "name": "A5",
                    "midi": 81,
                    "time": 281.7374624999928,
                    "velocity": 0.5039370078740157,
                    "duration": 0.1059525499999836
                },
                {
                    "name": "C6",
                    "midi": 84,
                    "time": 281.83378299999276,
                    "velocity": 0.5511811023622047,
                    "duration": 0.1059525499999836
                },
                {
                    "name": "A5",
                    "midi": 81,
                    "time": 281.93010349999275,
                    "velocity": 0.5039370078740157,
                    "duration": 0.1059525499999836
                },
                {
                    "name": "G5",
                    "midi": 79,
                    "time": 282.02642399999274,
                    "velocity": 0.5511811023622047,
                    "duration": 0.1059525499999836
                },
                {
                    "name": "F5",
                    "midi": 77,
                    "time": 282.12274449999273,
                    "velocity": 0.5039370078740157,
                    "duration": 0.1059525499999836
                },
                {
                    "name": "E5",
                    "midi": 76,
                    "time": 282.2190649999927,
                    "velocity": 0.5039370078740157,
                    "duration": 0.1059525499999836
                },
                {
                    "name": "F5",
                    "midi": 77,
                    "time": 282.3153854999927,
                    "velocity": 0.5039370078740157,
                    "duration": 0.1059525499999836
                },
                {
                    "name": "A5",
                    "midi": 81,
                    "time": 282.4117059999927,
                    "velocity": 0.5511811023622047,
                    "duration": 0.1059525499999836
                },
                {
                    "name": "F5",
                    "midi": 77,
                    "time": 282.5080264999927,
                    "velocity": 0.5118110236220472,
                    "duration": 0.1059525499999836
                },
                {
                    "name": "D5",
                    "midi": 74,
                    "time": 282.6043469999927,
                    "velocity": 0.5511811023622047,
                    "duration": 0.1059525499999836
                },
                {
                    "name": "C5",
                    "midi": 72,
                    "time": 282.7006674999927,
                    "velocity": 0.5118110236220472,
                    "duration": 0.1059525499999836
                },
                {
                    "name": "B4",
                    "midi": 71,
                    "time": 282.79698799999267,
                    "velocity": 0.5118110236220472,
                    "duration": 0.1059525499999836
                },
                {
                    "name": "C5",
                    "midi": 72,
                    "time": 282.89330849999266,
                    "velocity": 0.5118110236220472,
                    "duration": 0.1059525499999836
                },
                {
                    "name": "F5",
                    "midi": 77,
                    "time": 282.98962899999265,
                    "velocity": 0.5511811023622047,
                    "duration": 0.1059525499999836
                },
                {
                    "name": "C5",
                    "midi": 72,
                    "time": 283.08594949999264,
                    "velocity": 0.5118110236220472,
                    "duration": 0.1059525499999836
                },
                {
                    "name": "A#4",
                    "midi": 70,
                    "time": 283.1822699999926,
                    "velocity": 0.5511811023622047,
                    "duration": 0.1059525499999836
                },
                {
                    "name": "A4",
                    "midi": 69,
                    "time": 283.2785904999926,
                    "velocity": 0.5196850393700787,
                    "duration": 0.1059525499999836
                },
                {
                    "name": "G#4",
                    "midi": 68,
                    "time": 283.3749109999926,
                    "velocity": 0.5196850393700787,
                    "duration": 0.1059525499999836
                },
                {
                    "name": "A4",
                    "midi": 69,
                    "time": 283.4712314999926,
                    "velocity": 0.5196850393700787,
                    "duration": 0.1059525499999836
                },
                {
                    "name": "C5",
                    "midi": 72,
                    "time": 283.5675519999926,
                    "velocity": 0.5511811023622047,
                    "duration": 0.1059525499999836
                },
                {
                    "name": "A4",
                    "midi": 69,
                    "time": 283.6638724999926,
                    "velocity": 0.5039370078740157,
                    "duration": 0.1059525499999836
                },
                {
                    "name": "F4",
                    "midi": 65,
                    "time": 283.76019299999257,
                    "velocity": 0.5511811023622047,
                    "duration": 0.09632049999999026
                },
                {
                    "name": "F5",
                    "midi": 77,
                    "time": 283.85651349999256,
                    "velocity": 0.5039370078740157,
                    "duration": 0.09632049999999026
                },
                {
                    "name": "E4",
                    "midi": 64,
                    "time": 283.95283399999255,
                    "velocity": 0.5511811023622047,
                    "duration": 0.09632049999999026
                },
                {
                    "name": "F5",
                    "midi": 77,
                    "time": 284.04915449999254,
                    "velocity": 0.5039370078740157,
                    "duration": 0.09632049999999026
                },
                {
                    "name": "F4",
                    "midi": 65,
                    "time": 284.14547499999253,
                    "velocity": 0.5511811023622047,
                    "duration": 0.09632049999999026
                },
                {
                    "name": "F5",
                    "midi": 77,
                    "time": 284.2417954999925,
                    "velocity": 0.5039370078740157,
                    "duration": 0.09632049999999026
                },
                {
                    "name": "G4",
                    "midi": 67,
                    "time": 284.3381159999925,
                    "velocity": 0.5511811023622047,
                    "duration": 0.09632049999999026
                },
                {
                    "name": "F5",
                    "midi": 77,
                    "time": 284.4344364999925,
                    "velocity": 0.5039370078740157,
                    "duration": 0.09632049999999026
                },
                {
                    "name": "F4",
                    "midi": 65,
                    "time": 284.5307569999925,
                    "velocity": 0.5118110236220472,
                    "duration": 0.09632049999999026
                },
                {
                    "name": "F5",
                    "midi": 77,
                    "time": 284.6270774999925,
                    "velocity": 0.4566929133858268,
                    "duration": 0.09632049999999026
                },
                {
                    "name": "G4",
                    "midi": 67,
                    "time": 284.72339799999247,
                    "velocity": 0.5275590551181102,
                    "duration": 0.09632049999999026
                },
                {
                    "name": "F5",
                    "midi": 77,
                    "time": 284.81971849999246,
                    "velocity": 0.48031496062992124,
                    "duration": 0.09632049999999026
                },
                {
                    "name": "A4",
                    "midi": 69,
                    "time": 284.91603899999245,
                    "velocity": 0.5511811023622047,
                    "duration": 0.09632049999999026
                },
                {
                    "name": "F5",
                    "midi": 77,
                    "time": 285.01235949999244,
                    "velocity": 0.47244094488188976,
                    "duration": 0.09632049999999026
                },
                {
                    "name": "G4",
                    "midi": 67,
                    "time": 285.10867999999243,
                    "velocity": 0.5196850393700787,
                    "duration": 0.09632049999999026
                },
                {
                    "name": "F5",
                    "midi": 77,
                    "time": 285.2050004999924,
                    "velocity": 0.4881889763779528,
                    "duration": 0.09632049999999026
                },
                {
                    "name": "A4",
                    "midi": 69,
                    "time": 285.3013209999924,
                    "velocity": 0.5275590551181102,
                    "duration": 0.09632049999999026
                },
                {
                    "name": "F5",
                    "midi": 77,
                    "time": 285.3976414999924,
                    "velocity": 0.4881889763779528,
                    "duration": 0.09632049999999026
                },
                {
                    "name": "A#4",
                    "midi": 70,
                    "time": 285.4939619999924,
                    "velocity": 0.5826771653543307,
                    "duration": 0.09632049999999026
                },
                {
                    "name": "F5",
                    "midi": 77,
                    "time": 285.5902824999924,
                    "velocity": 0.48031496062992124,
                    "duration": 0.09632049999999026
                },
                {
                    "name": "A#4",
                    "midi": 70,
                    "time": 285.6866029999924,
                    "velocity": 0.5118110236220472,
                    "duration": 0.09632049999999026
                },
                {
                    "name": "F5",
                    "midi": 77,
                    "time": 285.78292349999236,
                    "velocity": 0.48031496062992124,
                    "duration": 0.09632049999999026
                },
                {
                    "name": "A4",
                    "midi": 69,
                    "time": 285.87924399999235,
                    "velocity": 0.5118110236220472,
                    "duration": 0.09632049999999026
                },
                {
                    "name": "F5",
                    "midi": 77,
                    "time": 285.97556449999234,
                    "velocity": 0.47244094488188976,
                    "duration": 0.09632049999999026
                },
                {
                    "name": "A#4",
                    "midi": 70,
                    "time": 286.07188499999233,
                    "velocity": 0.5511811023622047,
                    "duration": 0.09632049999999026
                },
                {
                    "name": "F5",
                    "midi": 77,
                    "time": 286.1682054999923,
                    "velocity": 0.47244094488188976,
                    "duration": 0.09632049999999026
                },
                {
                    "name": "A#4",
                    "midi": 70,
                    "time": 286.2645259999923,
                    "velocity": 0.5118110236220472,
                    "duration": 0.09632049999999026
                },
                {
                    "name": "F5",
                    "midi": 77,
                    "time": 286.3608464999923,
                    "velocity": 0.47244094488188976,
                    "duration": 0.09632049999999026
                },
                {
                    "name": "A4",
                    "midi": 69,
                    "time": 286.4571669999923,
                    "velocity": 0.5118110236220472,
                    "duration": 0.09632049999999026
                },
                {
                    "name": "F5",
                    "midi": 77,
                    "time": 286.5534874999923,
                    "velocity": 0.36220472440944884,
                    "duration": 0.09632049999999026
                },
                {
                    "name": "G#4",
                    "midi": 68,
                    "time": 286.6498079999923,
                    "velocity": 0.3464566929133858,
                    "duration": 0.09632049999999026
                },
                {
                    "name": "F5",
                    "midi": 77,
                    "time": 286.74612849999227,
                    "velocity": 0.28346456692913385,
                    "duration": 0.09632049999999026
                },
                {
                    "name": "G4",
                    "midi": 67,
                    "time": 287.2277309999923,
                    "velocity": 0.33070866141732286,
                    "duration": 0.09632049999999026
                },
                {
                    "name": "E5",
                    "midi": 76,
                    "time": 287.32405149999227,
                    "velocity": 0.2677165354330709,
                    "duration": 0.09632049999999026
                },
                {
                    "name": "F#4",
                    "midi": 66,
                    "time": 287.8056539999923,
                    "velocity": 0.33858267716535434,
                    "duration": 0.09632049999999026
                },
                {
                    "name": "D#5",
                    "midi": 75,
                    "time": 287.90197449999226,
                    "velocity": 0.28346456692913385,
                    "duration": 0.09632049999999026
                },
                {
                    "name": "D4",
                    "midi": 62,
                    "time": 288.57621799999225,
                    "velocity": 0.4566929133858268,
                    "duration": 0.09632049999999026
                },
                {
                    "name": "G4",
                    "midi": 67,
                    "time": 288.67253849999224,
                    "velocity": 0.4645669291338583,
                    "duration": 0.09632049999999026
                },
                {
                    "name": "A#4",
                    "midi": 70,
                    "time": 288.76885899999223,
                    "velocity": 0.47244094488188976,
                    "duration": 0.09632049999999026
                },
                {
                    "name": "D5",
                    "midi": 74,
                    "time": 288.8651794999922,
                    "velocity": 0.48031496062992124,
                    "duration": 0.09632049999999026
                },
                {
                    "name": "C5",
                    "midi": 72,
                    "time": 288.9614999999922,
                    "velocity": 0.4881889763779528,
                    "duration": 0.1059525499999836
                },
                {
                    "name": "A#4",
                    "midi": 70,
                    "time": 289.0578204999922,
                    "velocity": 0.4881889763779528,
                    "duration": 0.1059525499999836
                },
                {
                    "name": "A4",
                    "midi": 69,
                    "time": 289.1541409999922,
                    "velocity": 0.47244094488188976,
                    "duration": 0.1059525499999836
                },
                {
                    "name": "G4",
                    "midi": 67,
                    "time": 289.2504614999922,
                    "velocity": 0.4645669291338583,
                    "duration": 0.1059525499999836
                },
                {
                    "name": "F4",
                    "midi": 65,
                    "time": 289.3467819999922,
                    "velocity": 0.44881889763779526,
                    "duration": 0.1059525499999836
                },
                {
                    "name": "E4",
                    "midi": 64,
                    "time": 289.44310249999216,
                    "velocity": 0.4330708661417323,
                    "duration": 0.1059525499999836
                },
                {
                    "name": "F4",
                    "midi": 65,
                    "time": 289.53942299999215,
                    "velocity": 0.4566929133858268,
                    "duration": 0.09632049999999026
                },
                {
                    "name": "C4",
                    "midi": 60,
                    "time": 289.73206399999214,
                    "velocity": 0.3858267716535433,
                    "duration": 0.19264099999998052
                },
                {
                    "name": "C4",
                    "midi": 60,
                    "time": 289.9247049999921,
                    "velocity": 0.3858267716535433,
                    "duration": 0.1444807500000138
                },
                {
                    "name": "E4",
                    "midi": 64,
                    "time": 290.06918574999213,
                    "velocity": 0.3228346456692913,
                    "duration": 0.04816025000002355
                },
                {
                    "name": "A#4",
                    "midi": 70,
                    "time": 290.11734599999215,
                    "velocity": 0.3858267716535433,
                    "duration": 0.7705639999999789
                },
                {
                    "name": "A4",
                    "midi": 69,
                    "time": 290.88790999999213,
                    "velocity": 0.33858267716535434,
                    "duration": 0.09632049999999026
                },
                {
                    "name": "G4",
                    "midi": 67,
                    "time": 291.0805509999921,
                    "velocity": 0.33858267716535434,
                    "duration": 0.09632049999999026
                },
                {
                    "name": "G4",
                    "midi": 67,
                    "time": 291.2731919999921,
                    "velocity": 0.3858267716535433,
                    "duration": 0.19264099999998052
                },
                {
                    "name": "F4",
                    "midi": 65,
                    "time": 291.4658329999921,
                    "velocity": 0.3543307086614173,
                    "duration": 0.3852820000000179
                },
                {
                    "name": "F4",
                    "midi": 65,
                    "time": 291.8511149999921,
                    "velocity": 0.3543307086614173,
                    "duration": 0.5297627499999749
                },
                {
                    "name": "E4",
                    "midi": 64,
                    "time": 292.38087774999207,
                    "velocity": 0.3228346456692913,
                    "duration": 0.04816025000002355
                },
                {
                    "name": "A#4",
                    "midi": 70,
                    "time": 292.4290379999921,
                    "velocity": 0.3858267716535433,
                    "duration": 0.7705639999999789
                },
                {
                    "name": "A4",
                    "midi": 69,
                    "time": 293.19960199999207,
                    "velocity": 0.33858267716535434,
                    "duration": 0.09632049999999026
                },
                {
                    "name": "G4",
                    "midi": 67,
                    "time": 293.39224299999205,
                    "velocity": 0.33858267716535434,
                    "duration": 0.09632049999999026
                },
                {
                    "name": "B4",
                    "midi": 71,
                    "time": 293.58488399999203,
                    "velocity": 0.4015748031496063,
                    "duration": 0.5779229999999984
                },
                {
                    "name": "C5",
                    "midi": 72,
                    "time": 294.16280699999203,
                    "velocity": 0.3543307086614173,
                    "duration": 0.19264099999998052
                },
                {
                    "name": "E4",
                    "midi": 64,
                    "time": 294.692569749992,
                    "velocity": 0.3228346456692913,
                    "duration": 0.04816025000002355
                },
                {
                    "name": "A#4",
                    "midi": 70,
                    "time": 294.740729999992,
                    "velocity": 0.3858267716535433,
                    "duration": 0.7705639999999789
                },
                {
                    "name": "A4",
                    "midi": 69,
                    "time": 295.511293999992,
                    "velocity": 0.33858267716535434,
                    "duration": 0.09632049999999026
                },
                {
                    "name": "G4",
                    "midi": 67,
                    "time": 295.703934999992,
                    "velocity": 0.33858267716535434,
                    "duration": 0.09632049999999026
                },
                {
                    "name": "F4",
                    "midi": 65,
                    "time": 295.89657599999197,
                    "velocity": 0.4251968503937008,
                    "duration": 0.3852820000000179
                },
                {
                    "name": "A4",
                    "midi": 69,
                    "time": 296.281857999992,
                    "velocity": 0.47244094488188976,
                    "duration": 0.5779229999999984
                },
                {
                    "name": "C5",
                    "midi": 72,
                    "time": 296.859780999992,
                    "velocity": 0.47244094488188976,
                    "duration": 0.5779229999999984
                },
                {
                    "name": "A#4",
                    "midi": 70,
                    "time": 297.437703999992,
                    "velocity": 0.4566929133858268,
                    "duration": 0.5779229999999984
                },
                {
                    "name": "G4",
                    "midi": 67,
                    "time": 298.015626999992,
                    "velocity": 0.3937007874015748,
                    "duration": 0.19264099999998052
                },
                {
                    "name": "F4",
                    "midi": 65,
                    "time": 298.20826799999196,
                    "velocity": 0.4409448818897638,
                    "duration": 0.19264099999998052
                },
                {
                    "name": "C#5",
                    "midi": 73,
                    "time": 298.78619099999196,
                    "velocity": 0.5433070866141733,
                    "duration": 0.5779229999999984
                },
                {
                    "name": "C#6",
                    "midi": 85,
                    "time": 298.78619099999196,
                    "velocity": 0.6456692913385826,
                    "duration": 0.5779229999999984
                },
                {
                    "name": "D5",
                    "midi": 74,
                    "time": 299.36411399999196,
                    "velocity": 0.5826771653543307,
                    "duration": 0.5779229999999984
                },
                {
                    "name": "D6",
                    "midi": 86,
                    "time": 299.36411399999196,
                    "velocity": 0.6929133858267716,
                    "duration": 0.5779229999999984
                },
                {
                    "name": "C6",
                    "midi": 84,
                    "time": 299.94203699999196,
                    "velocity": 0.6614173228346457,
                    "duration": 0.5779229999999984
                },
                {
                    "name": "D5",
                    "midi": 74,
                    "time": 299.94203699999196,
                    "velocity": 0.5590551181102362,
                    "duration": 0.5779229999999984
                },
                {
                    "name": "D5",
                    "midi": 74,
                    "time": 300.51995999999195,
                    "velocity": 0.5669291338582677,
                    "duration": 0.5779229999999984
                },
                {
                    "name": "A#5",
                    "midi": 82,
                    "time": 300.51995999999195,
                    "velocity": 0.6692913385826772,
                    "duration": 0.5779229999999984
                },
                {
                    "name": "D5",
                    "midi": 74,
                    "time": 301.09788299999195,
                    "velocity": 0.5118110236220472,
                    "duration": 0.5779229999999984
                },
                {
                    "name": "A5",
                    "midi": 81,
                    "time": 301.09788299999195,
                    "velocity": 0.5984251968503937,
                    "duration": 0.5779229999999984
                },
                {
                    "name": "G5",
                    "midi": 79,
                    "time": 301.67580599999195,
                    "velocity": 0.6220472440944882,
                    "duration": 0.5779229999999984
                },
                {
                    "name": "D5",
                    "midi": 74,
                    "time": 301.67580599999195,
                    "velocity": 0.5275590551181102,
                    "duration": 0.5779229999999984
                },
                {
                    "name": "C5",
                    "midi": 72,
                    "time": 302.25372899999195,
                    "velocity": 0.5118110236220472,
                    "duration": 0.5779229999999984
                },
                {
                    "name": "F#5",
                    "midi": 78,
                    "time": 302.25372899999195,
                    "velocity": 0.5984251968503937,
                    "duration": 0.5779229999999984
                },
                {
                    "name": "D5",
                    "midi": 74,
                    "time": 302.25372899999195,
                    "velocity": 0.5118110236220472,
                    "duration": 0.5779229999999984
                },
                {
                    "name": "G5",
                    "midi": 79,
                    "time": 302.83165199999195,
                    "velocity": 0.5118110236220472,
                    "duration": 0.09632049999999026
                },
                {
                    "name": "D5",
                    "midi": 74,
                    "time": 302.92797249999194,
                    "velocity": 0.4251968503937008,
                    "duration": 0.09632049999999026
                },
                {
                    "name": "A#4",
                    "midi": 70,
                    "time": 303.0242929999919,
                    "velocity": 0.4251968503937008,
                    "duration": 0.09632049999999026
                },
                {
                    "name": "D5",
                    "midi": 74,
                    "time": 303.1206134999919,
                    "velocity": 0.4251968503937008,
                    "duration": 0.09632049999999026
                },
                {
                    "name": "G5",
                    "midi": 79,
                    "time": 303.2169339999919,
                    "velocity": 0.5118110236220472,
                    "duration": 0.09632049999999026
                },
                {
                    "name": "D5",
                    "midi": 74,
                    "time": 303.3132544999919,
                    "velocity": 0.4251968503937008,
                    "duration": 0.09632049999999026
                },
                {
                    "name": "A5",
                    "midi": 81,
                    "time": 303.4095749999919,
                    "velocity": 0.5118110236220472,
                    "duration": 0.09632049999999026
                },
                {
                    "name": "D5",
                    "midi": 74,
                    "time": 303.5058954999919,
                    "velocity": 0.4251968503937008,
                    "duration": 0.09632049999999026
                },
                {
                    "name": "C5",
                    "midi": 72,
                    "time": 303.60221599999187,
                    "velocity": 0.4251968503937008,
                    "duration": 0.09632049999999026
                },
                {
                    "name": "D5",
                    "midi": 74,
                    "time": 303.69853649999186,
                    "velocity": 0.4251968503937008,
                    "duration": 0.09632049999999026
                },
                {
                    "name": "A5",
                    "midi": 81,
                    "time": 303.79485699999185,
                    "velocity": 0.5118110236220472,
                    "duration": 0.09632049999999026
                },
                {
                    "name": "D5",
                    "midi": 74,
                    "time": 303.89117749999184,
                    "velocity": 0.4330708661417323,
                    "duration": 0.09632049999999026
                },
                {
                    "name": "A#5",
                    "midi": 82,
                    "time": 303.98749799999183,
                    "velocity": 0.5118110236220472,
                    "duration": 0.09632049999999026
                },
                {
                    "name": "G5",
                    "midi": 79,
                    "time": 304.0838184999918,
                    "velocity": 0.4330708661417323,
                    "duration": 0.09632049999999026
                },
                {
                    "name": "D5",
                    "midi": 74,
                    "time": 304.1801389999918,
                    "velocity": 0.4330708661417323,
                    "duration": 0.09632049999999026
                },
                {
                    "name": "G5",
                    "midi": 79,
                    "time": 304.2764594999918,
                    "velocity": 0.4330708661417323,
                    "duration": 0.09632049999999026
                },
                {
                    "name": "A#5",
                    "midi": 82,
                    "time": 304.3727799999918,
                    "velocity": 0.5118110236220472,
                    "duration": 0.09632049999999026
                },
                {
                    "name": "G5",
                    "midi": 79,
                    "time": 304.4691004999918,
                    "velocity": 0.4330708661417323,
                    "duration": 0.09632049999999026
                },
                {
                    "name": "B5",
                    "midi": 83,
                    "time": 304.5654209999918,
                    "velocity": 0.5118110236220472,
                    "duration": 0.09632049999999026
                },
                {
                    "name": "G5",
                    "midi": 79,
                    "time": 304.66174149999176,
                    "velocity": 0.4330708661417323,
                    "duration": 0.09632049999999026
                },
                {
                    "name": "D5",
                    "midi": 74,
                    "time": 304.75806199999175,
                    "velocity": 0.4330708661417323,
                    "duration": 0.09632049999999026
                },
                {
                    "name": "G5",
                    "midi": 79,
                    "time": 304.85438249999174,
                    "velocity": 0.4330708661417323,
                    "duration": 0.09632049999999026
                },
                {
                    "name": "B5",
                    "midi": 83,
                    "time": 304.95070299999173,
                    "velocity": 0.5118110236220472,
                    "duration": 0.09632049999999026
                },
                {
                    "name": "G5",
                    "midi": 79,
                    "time": 305.0470234999917,
                    "velocity": 0.4409448818897638,
                    "duration": 0.09632049999999026
                },
                {
                    "name": "C6",
                    "midi": 84,
                    "time": 305.1433439999917,
                    "velocity": 0.5118110236220472,
                    "duration": 0.3852820000000179
                },
                {
                    "name": "D6",
                    "midi": 86,
                    "time": 305.52862599999173,
                    "velocity": 0.4645669291338583,
                    "duration": 0.09632049999999026
                },
                {
                    "name": "C6",
                    "midi": 84,
                    "time": 305.6249464999917,
                    "velocity": 0.4645669291338583,
                    "duration": 0.09632049999999026
                },
                {
                    "name": "A#5",
                    "midi": 82,
                    "time": 305.7212669999917,
                    "velocity": 0.5118110236220472,
                    "duration": 0.3852820000000179
                },
                {
                    "name": "C6",
                    "midi": 84,
                    "time": 306.10654899999173,
                    "velocity": 0.44881889763779526,
                    "duration": 0.09632049999999026
                },
                {
                    "name": "A#5",
                    "midi": 82,
                    "time": 306.2028694999917,
                    "velocity": 0.44881889763779526,
                    "duration": 0.09632049999999026
                },
                {
                    "name": "A5",
                    "midi": 81,
                    "time": 306.2991899999917,
                    "velocity": 0.5118110236220472,
                    "duration": 0.3852820000000179
                },
                {
                    "name": "A#5",
                    "midi": 82,
                    "time": 306.68447199999173,
                    "velocity": 0.44881889763779526,
                    "duration": 0.09632049999999026
                },
                {
                    "name": "A5",
                    "midi": 81,
                    "time": 306.7807924999917,
                    "velocity": 0.44881889763779526,
                    "duration": 0.09632049999999026
                },
                {
                    "name": "G5",
                    "midi": 79,
                    "time": 306.8771129999917,
                    "velocity": 0.5118110236220472,
                    "duration": 0.3852820000000179
                },
                {
                    "name": "A5",
                    "midi": 81,
                    "time": 307.2623949999917,
                    "velocity": 0.4645669291338583,
                    "duration": 0.09632049999999026
                },
                {
                    "name": "G5",
                    "midi": 79,
                    "time": 307.3587154999917,
                    "velocity": 0.4645669291338583,
                    "duration": 0.09632049999999026
                },
                {
                    "name": "F5",
                    "midi": 77,
                    "time": 307.4550359999917,
                    "velocity": 0.5118110236220472,
                    "duration": 0.3852820000000179
                },
                {
                    "name": "G5",
                    "midi": 79,
                    "time": 307.8403179999917,
                    "velocity": 0.4645669291338583,
                    "duration": 0.09632049999999026
                },
                {
                    "name": "F5",
                    "midi": 77,
                    "time": 307.9366384999917,
                    "velocity": 0.4645669291338583,
                    "duration": 0.09632049999999026
                },
                {
                    "name": "E5",
                    "midi": 76,
                    "time": 308.0329589999917,
                    "velocity": 0.5118110236220472,
                    "duration": 0.3852820000000179
                },
                {
                    "name": "F5",
                    "midi": 77,
                    "time": 308.4182409999917,
                    "velocity": 0.4409448818897638,
                    "duration": 0.09632049999999026
                },
                {
                    "name": "E5",
                    "midi": 76,
                    "time": 308.5145614999917,
                    "velocity": 0.4409448818897638,
                    "duration": 0.09632049999999026
                },
                {
                    "name": "G5",
                    "midi": 79,
                    "time": 308.6108819999917,
                    "velocity": 0.4881889763779528,
                    "duration": 0.1059525499999836
                },
                {
                    "name": "F5",
                    "midi": 77,
                    "time": 308.7072024999917,
                    "velocity": 0.4251968503937008,
                    "duration": 0.1059525499999836
                },
                {
                    "name": "E5",
                    "midi": 76,
                    "time": 308.8035229999917,
                    "velocity": 0.4251968503937008,
                    "duration": 0.1059525499999836
                },
                {
                    "name": "F5",
                    "midi": 77,
                    "time": 308.8998434999917,
                    "velocity": 0.4251968503937008,
                    "duration": 0.1059525499999836
                },
                {
                    "name": "E5",
                    "midi": 76,
                    "time": 308.99616399999167,
                    "velocity": 0.41732283464566927,
                    "duration": 0.1059525499999836
                },
                {
                    "name": "F5",
                    "midi": 77,
                    "time": 309.09248449999166,
                    "velocity": 0.4330708661417323,
                    "duration": 0.1059525499999836
                },
                {
                    "name": "A5",
                    "midi": 81,
                    "time": 309.18880499999165,
                    "velocity": 0.4645669291338583,
                    "duration": 0.1059525499999836
                },
                {
                    "name": "G5",
                    "midi": 79,
                    "time": 309.28512549999164,
                    "velocity": 0.4330708661417323,
                    "duration": 0.1059525499999836
                },
                {
                    "name": "F#5",
                    "midi": 78,
                    "time": 309.3814459999916,
                    "velocity": 0.4330708661417323,
                    "duration": 0.1059525499999836
                },
                {
                    "name": "G5",
                    "midi": 79,
                    "time": 309.4777664999916,
                    "velocity": 0.4330708661417323,
                    "duration": 0.1059525499999836
                },
                {
                    "name": "F#5",
                    "midi": 78,
                    "time": 309.5740869999916,
                    "velocity": 0.4330708661417323,
                    "duration": 0.1059525499999836
                },
                {
                    "name": "G5",
                    "midi": 79,
                    "time": 309.6704074999916,
                    "velocity": 0.4330708661417323,
                    "duration": 0.1059525499999836
                },
                {
                    "name": "A5",
                    "midi": 81,
                    "time": 309.7667279999916,
                    "velocity": 0.4645669291338583,
                    "duration": 0.1059525499999836
                },
                {
                    "name": "G5",
                    "midi": 79,
                    "time": 309.8630484999916,
                    "velocity": 0.4251968503937008,
                    "duration": 0.1059525499999836
                },
                {
                    "name": "F5",
                    "midi": 77,
                    "time": 309.95936899999157,
                    "velocity": 0.4251968503937008,
                    "duration": 0.1059525499999836
                },
                {
                    "name": "G5",
                    "midi": 79,
                    "time": 310.05568949999156,
                    "velocity": 0.4251968503937008,
                    "duration": 0.1059525499999836
                },
                {
                    "name": "A5",
                    "midi": 81,
                    "time": 310.15200999999155,
                    "velocity": 0.4251968503937008,
                    "duration": 0.1059525499999836
                },
                {
                    "name": "A#5",
                    "midi": 82,
                    "time": 310.24833049999154,
                    "velocity": 0.4251968503937008,
                    "duration": 0.1059525499999836
                },
                {
                    "name": "C6",
                    "midi": 84,
                    "time": 310.34465099999153,
                    "velocity": 0.4645669291338583,
                    "duration": 0.1059525499999836
                },
                {
                    "name": "A#5",
                    "midi": 82,
                    "time": 310.4409714999915,
                    "velocity": 0.4330708661417323,
                    "duration": 0.1059525499999836
                },
                {
                    "name": "A5",
                    "midi": 81,
                    "time": 310.5372919999915,
                    "velocity": 0.4330708661417323,
                    "duration": 0.1059525499999836
                },
                {
                    "name": "A#5",
                    "midi": 82,
                    "time": 310.6336124999915,
                    "velocity": 0.4330708661417323,
                    "duration": 0.1059525499999836
                },
                {
                    "name": "C6",
                    "midi": 84,
                    "time": 310.7299329999915,
                    "velocity": 0.4330708661417323,
                    "duration": 0.1059525499999836
                },
                {
                    "name": "C#6",
                    "midi": 85,
                    "time": 310.8262534999915,
                    "velocity": 0.4330708661417323,
                    "duration": 0.1059525499999836
                },
                {
                    "name": "D6",
                    "midi": 86,
                    "time": 310.92257399999147,
                    "velocity": 0.4645669291338583,
                    "duration": 0.09632049999999026
                },
                {
                    "name": "D5",
                    "midi": 74,
                    "time": 311.01889449999146,
                    "velocity": 0.4330708661417323,
                    "duration": 0.1059525499999836
                },
                {
                    "name": "D6",
                    "midi": 86,
                    "time": 311.11521499999145,
                    "velocity": 0.4330708661417323,
                    "duration": 0.1059525499999836
                },
                {
                    "name": "C6",
                    "midi": 84,
                    "time": 311.21153549999144,
                    "velocity": 0.4330708661417323,
                    "duration": 0.1059525499999836
                },
                {
                    "name": "A#5",
                    "midi": 82,
                    "time": 311.30785599999143,
                    "velocity": 0.4330708661417323,
                    "duration": 0.1059525499999836
                },
                {
                    "name": "A5",
                    "midi": 81,
                    "time": 311.4041764999914,
                    "velocity": 0.4251968503937008,
                    "duration": 0.1059525499999836
                },
                {
                    "name": "G5",
                    "midi": 79,
                    "time": 311.5004969999914,
                    "velocity": 0.4645669291338583,
                    "duration": 0.09632049999999026
                },
                {
                    "name": "F#5",
                    "midi": 78,
                    "time": 311.5968174999914,
                    "velocity": 0.4251968503937008,
                    "duration": 0.1059525499999836
                },
                {
                    "name": "G5",
                    "midi": 79,
                    "time": 311.6931379999914,
                    "velocity": 0.49606299212598426,
                    "duration": 0.1059525499999836
                },
                {
                    "name": "A5",
                    "midi": 81,
                    "time": 311.7894584999914,
                    "velocity": 0.4881889763779528,
                    "duration": 0.1059525499999836
                },
                {
                    "name": "A#5",
                    "midi": 82,
                    "time": 311.8857789999914,
                    "velocity": 0.47244094488188976,
                    "duration": 0.1059525499999836
                },
                {
                    "name": "B5",
                    "midi": 83,
                    "time": 311.98209949999136,
                    "velocity": 0.4645669291338583,
                    "duration": 0.1059525499999836
                },
                {
                    "name": "C6",
                    "midi": 84,
                    "time": 312.07841999999135,
                    "velocity": 0.4645669291338583,
                    "duration": 0.09632049999999026
                },
                {
                    "name": "C5",
                    "midi": 72,
                    "time": 312.17474049999134,
                    "velocity": 0.47244094488188976,
                    "duration": 0.09632049999999026
                },
                {
                    "name": "C6",
                    "midi": 84,
                    "time": 312.27106099999133,
                    "velocity": 0.47244094488188976,
                    "duration": 0.09632049999999026
                },
                {
                    "name": "A#5",
                    "midi": 82,
                    "time": 312.3673814999913,
                    "velocity": 0.47244094488188976,
                    "duration": 0.09632049999999026
                },
                {
                    "name": "A5",
                    "midi": 81,
                    "time": 312.4637019999913,
                    "velocity": 0.47244094488188976,
                    "duration": 0.09632049999999026
                },
                {
                    "name": "G5",
                    "midi": 79,
                    "time": 312.5600224999913,
                    "velocity": 0.4645669291338583,
                    "duration": 0.09632049999999026
                },
                {
                    "name": "F5",
                    "midi": 77,
                    "time": 312.6563429999913,
                    "velocity": 0.4645669291338583,
                    "duration": 0.09632049999999026
                },
                {
                    "name": "E5",
                    "midi": 76,
                    "time": 312.7526634999913,
                    "velocity": 0.4409448818897638,
                    "duration": 0.1059525499999836
                },
                {
                    "name": "F5",
                    "midi": 77,
                    "time": 312.8489839999913,
                    "velocity": 0.49606299212598426,
                    "duration": 0.1059525499999836
                },
                {
                    "name": "G5",
                    "midi": 79,
                    "time": 312.94530449999127,
                    "velocity": 0.4881889763779528,
                    "duration": 0.1059525499999836
                },
                {
                    "name": "G#5",
                    "midi": 80,
                    "time": 313.04162499999126,
                    "velocity": 0.47244094488188976,
                    "duration": 0.1059525499999836
                },
                {
                    "name": "A5",
                    "midi": 81,
                    "time": 313.13794549999125,
                    "velocity": 0.4645669291338583,
                    "duration": 0.09632049999999026
                },
                {
                    "name": "A#5",
                    "midi": 82,
                    "time": 313.23426599999124,
                    "velocity": 0.4645669291338583,
                    "duration": 0.09632049999999026
                },
                {
                    "name": "C6",
                    "midi": 84,
                    "time": 313.3305864999912,
                    "velocity": 0.47244094488188976,
                    "duration": 0.09632049999999026
                },
                {
                    "name": "A#5",
                    "midi": 82,
                    "time": 313.4269069999912,
                    "velocity": 0.47244094488188976,
                    "duration": 0.09632049999999026
                },
                {
                    "name": "A5",
                    "midi": 81,
                    "time": 313.5232274999912,
                    "velocity": 0.47244094488188976,
                    "duration": 0.09632049999999026
                },
                {
                    "name": "G5",
                    "midi": 79,
                    "time": 313.6195479999912,
                    "velocity": 0.47244094488188976,
                    "duration": 0.09632049999999026
                },
                {
                    "name": "F5",
                    "midi": 77,
                    "time": 313.7158684999912,
                    "velocity": 0.4645669291338583,
                    "duration": 0.09632049999999026
                },
                {
                    "name": "E5",
                    "midi": 76,
                    "time": 313.8121889999912,
                    "velocity": 0.4645669291338583,
                    "duration": 0.09632049999999026
                },
                {
                    "name": "F5",
                    "midi": 77,
                    "time": 313.90850949999117,
                    "velocity": 0.4409448818897638,
                    "duration": 0.1059525499999836
                },
                {
                    "name": "E5",
                    "midi": 76,
                    "time": 314.00482999999116,
                    "velocity": 0.49606299212598426,
                    "duration": 0.1059525499999836
                },
                {
                    "name": "D5",
                    "midi": 74,
                    "time": 314.10115049999115,
                    "velocity": 0.4881889763779528,
                    "duration": 0.1059525499999836
                },
                {
                    "name": "C5",
                    "midi": 72,
                    "time": 314.19747099999114,
                    "velocity": 0.47244094488188976,
                    "duration": 0.1059525499999836
                },
                {
                    "name": "A#4",
                    "midi": 70,
                    "time": 314.29379149999113,
                    "velocity": 0.4645669291338583,
                    "duration": 0.1059525499999836
                },
                {
                    "name": "A4",
                    "midi": 69,
                    "time": 314.3901119999911,
                    "velocity": 0.4409448818897638,
                    "duration": 0.09632049999999026
                },
                {
                    "name": "C5",
                    "midi": 72,
                    "time": 314.4864324999911,
                    "velocity": 0.48031496062992124,
                    "duration": 0.09632049999999026
                },
                {
                    "name": "F5",
                    "midi": 77,
                    "time": 314.5827529999911,
                    "velocity": 0.5354330708661418,
                    "duration": 0.09632049999999026
                },
                {
                    "name": "G5",
                    "midi": 79,
                    "time": 314.6790734999911,
                    "velocity": 0.4881889763779528,
                    "duration": 0.09632049999999026
                },
                {
                    "name": "F5",
                    "midi": 77,
                    "time": 314.7753939999911,
                    "velocity": 0.49606299212598426,
                    "duration": 0.09632049999999026
                },
                {
                    "name": "E5",
                    "midi": 76,
                    "time": 314.87171449999107,
                    "velocity": 0.49606299212598426,
                    "duration": 0.09632049999999026
                },
                {
                    "name": "D5",
                    "midi": 74,
                    "time": 314.96803499999106,
                    "velocity": 0.47244094488188976,
                    "duration": 0.09632049999999026
                },
                {
                    "name": "C5",
                    "midi": 72,
                    "time": 315.06435549999105,
                    "velocity": 0.41732283464566927,
                    "duration": 0.1059525499999836
                },
                {
                    "name": "A#4",
                    "midi": 70,
                    "time": 315.16067599999104,
                    "velocity": 0.4645669291338583,
                    "duration": 0.1059525499999836
                },
                {
                    "name": "A4",
                    "midi": 69,
                    "time": 315.25699649999103,
                    "velocity": 0.4251968503937008,
                    "duration": 0.1059525499999836
                },
                {
                    "name": "G4",
                    "midi": 67,
                    "time": 315.353316999991,
                    "velocity": 0.4251968503937008,
                    "duration": 0.1059525499999836
                },
                {
                    "name": "F4",
                    "midi": 65,
                    "time": 315.449637499991,
                    "velocity": 0.4251968503937008,
                    "duration": 0.1059525499999836
                },
                {
                    "name": "E4",
                    "midi": 64,
                    "time": 315.545957999991,
                    "velocity": 0.4645669291338583,
                    "duration": 0.09632049999999026
                },
                {
                    "name": "F4",
                    "midi": 65,
                    "time": 315.642278499991,
                    "velocity": 0.4566929133858268,
                    "duration": 0.1059525499999836
                },
                {
                    "name": "G4",
                    "midi": 67,
                    "time": 315.738598999991,
                    "velocity": 0.4881889763779528,
                    "duration": 0.1059525499999836
                },
                {
                    "name": "F4",
                    "midi": 65,
                    "time": 315.834919499991,
                    "velocity": 0.48031496062992124,
                    "duration": 0.1059525499999836
                },
                {
                    "name": "E4",
                    "midi": 64,
                    "time": 315.93123999999096,
                    "velocity": 0.47244094488188976,
                    "duration": 0.1059525499999836
                },
                {
                    "name": "D4",
                    "midi": 62,
                    "time": 316.02756049999095,
                    "velocity": 0.4645669291338583,
                    "duration": 0.1059525499999836
                },
                {
                    "name": "C4",
                    "midi": 60,
                    "time": 316.12388099999094,
                    "velocity": 0.44881889763779526,
                    "duration": 0.1059525499999836
                },
                {
                    "name": "G#4",
                    "midi": 68,
                    "time": 316.70180399999094,
                    "velocity": 0.3858267716535433,
                    "duration": 0.7705639999999789
                },
                {
                    "name": "G4",
                    "midi": 67,
                    "time": 317.4723679999909,
                    "velocity": 0.33858267716535434,
                    "duration": 0.09632049999999026
                },
                {
                    "name": "F4",
                    "midi": 65,
                    "time": 317.6650089999909,
                    "velocity": 0.33858267716535434,
                    "duration": 0.09632049999999026
                },
                {
                    "name": "B4",
                    "midi": 71,
                    "time": 317.8576499999909,
                    "velocity": 0.3858267716535433,
                    "duration": 0.3852820000000179
                },
                {
                    "name": "C5",
                    "midi": 72,
                    "time": 318.2429319999909,
                    "velocity": 0.33858267716535434,
                    "duration": 0.19264099999998052
                },
                {
                    "name": "G4",
                    "midi": 67,
                    "time": 318.4355729999909,
                    "velocity": 0.33858267716535434,
                    "duration": 0.3852820000000179
                },
                {
                    "name": "C#5",
                    "midi": 73,
                    "time": 319.0134959999909,
                    "velocity": 0.4566929133858268,
                    "duration": 0.7705639999999789
                },
                {
                    "name": "C5",
                    "midi": 72,
                    "time": 319.78405999999086,
                    "velocity": 0.3858267716535433,
                    "duration": 0.09632049999999026
                },
                {
                    "name": "A#4",
                    "midi": 70,
                    "time": 319.97670099999084,
                    "velocity": 0.3858267716535433,
                    "duration": 0.09632049999999026
                },
                {
                    "name": "G#4",
                    "midi": 68,
                    "time": 320.1693419999908,
                    "velocity": 0.47244094488188976,
                    "duration": 0.19264099999998052
                },
                {
                    "name": "A#4",
                    "midi": 70,
                    "time": 320.3619829999908,
                    "velocity": 0.33070866141732286,
                    "duration": 0.06421366666666017
                },
                {
                    "name": "G#4",
                    "midi": 68,
                    "time": 320.42619666665746,
                    "velocity": 0.33070866141732286,
                    "duration": 0.06421366666666017
                },
                {
                    "name": "G4",
                    "midi": 67,
                    "time": 320.4904103333241,
                    "velocity": 0.33070866141732286,
                    "duration": 0.06421366666666017
                },
                {
                    "name": "G#4",
                    "midi": 68,
                    "time": 320.5546239999908,
                    "velocity": 0.4015748031496063,
                    "duration": 0.09632049999999026
                },
                {
                    "name": "A#4",
                    "midi": 70,
                    "time": 320.65094449999077,
                    "velocity": 0.3464566929133858,
                    "duration": 0.09632049999999026
                },
                {
                    "name": "C5",
                    "midi": 72,
                    "time": 320.74726499999076,
                    "velocity": 0.4015748031496063,
                    "duration": 0.3852820000000179
                },
                {
                    "name": "F5",
                    "midi": 77,
                    "time": 321.32518799999076,
                    "velocity": 0.5196850393700787,
                    "duration": 0.5779229999999984
                },
                {
                    "name": "D#5",
                    "midi": 75,
                    "time": 321.90311099999076,
                    "velocity": 0.4251968503937008,
                    "duration": 0.3852820000000179
                },
                {
                    "name": "F5",
                    "midi": 77,
                    "time": 322.2883929999908,
                    "velocity": 0.3937007874015748,
                    "duration": 0.19264099999998052
                },
                {
                    "name": "D#5",
                    "midi": 75,
                    "time": 322.48103399999076,
                    "velocity": 0.44881889763779526,
                    "duration": 0.3852820000000179
                },
                {
                    "name": "C#5",
                    "midi": 73,
                    "time": 322.8663159999908,
                    "velocity": 0.4094488188976378,
                    "duration": 0.19264099999998052
                },
                {
                    "name": "C5",
                    "midi": 72,
                    "time": 323.05895699999076,
                    "velocity": 0.4330708661417323,
                    "duration": 0.5779229999999984
                },
                {
                    "name": "A#4",
                    "midi": 70,
                    "time": 323.63687999999075,
                    "velocity": 0.4645669291338583,
                    "duration": 0.3852820000000179
                },
                {
                    "name": "G#4",
                    "midi": 68,
                    "time": 324.0221619999908,
                    "velocity": 0.41732283464566927,
                    "duration": 0.19264099999998052
                },
                {
                    "name": "G4",
                    "midi": 67,
                    "time": 324.21480299999075,
                    "velocity": 0.44881889763779526,
                    "duration": 0.3852820000000179
                },
                {
                    "name": "F4",
                    "midi": 65,
                    "time": 324.60008499999077,
                    "velocity": 0.3700787401574803,
                    "duration": 0.19264099999998052
                },
                {
                    "name": "G#4",
                    "midi": 68,
                    "time": 324.79272599999075,
                    "velocity": 0.41732283464566927,
                    "duration": 0.5779229999999984
                },
                {
                    "name": "G4",
                    "midi": 67,
                    "time": 325.37064899999075,
                    "velocity": 0.3543307086614173,
                    "duration": 0.19264099999998052
                },
                {
                    "name": "G#5",
                    "midi": 80,
                    "time": 325.94857199999075,
                    "velocity": 0.3858267716535433,
                    "duration": 0.7705639999999789
                },
                {
                    "name": "G#4",
                    "midi": 68,
                    "time": 325.94857199999075,
                    "velocity": 0.3228346456692913,
                    "duration": 0.7705639999999789
                },
                {
                    "name": "G4",
                    "midi": 67,
                    "time": 326.7191359999907,
                    "velocity": 0.28346456692913385,
                    "duration": 0.09632049999999026
                },
                {
                    "name": "G5",
                    "midi": 79,
                    "time": 326.7191359999907,
                    "velocity": 0.33858267716535434,
                    "duration": 0.09632049999999026
                },
                {
                    "name": "F5",
                    "midi": 77,
                    "time": 326.9117769999907,
                    "velocity": 0.33858267716535434,
                    "duration": 0.09632049999999026
                },
                {
                    "name": "F4",
                    "midi": 65,
                    "time": 326.9117769999907,
                    "velocity": 0.28346456692913385,
                    "duration": 0.09632049999999026
                },
                {
                    "name": "B4",
                    "midi": 71,
                    "time": 327.1044179999907,
                    "velocity": 0.3228346456692913,
                    "duration": 0.3852820000000179
                },
                {
                    "name": "B5",
                    "midi": 83,
                    "time": 327.1044179999907,
                    "velocity": 0.3858267716535433,
                    "duration": 0.3852820000000179
                },
                {
                    "name": "C6",
                    "midi": 84,
                    "time": 327.4896999999907,
                    "velocity": 0.33858267716535434,
                    "duration": 0.19264099999998052
                },
                {
                    "name": "C5",
                    "midi": 72,
                    "time": 327.4896999999907,
                    "velocity": 0.28346456692913385,
                    "duration": 0.19264099999998052
                },
                {
                    "name": "G4",
                    "midi": 67,
                    "time": 327.6823409999907,
                    "velocity": 0.28346456692913385,
                    "duration": 0.3852820000000179
                },
                {
                    "name": "G5",
                    "midi": 79,
                    "time": 327.6823409999907,
                    "velocity": 0.33858267716535434,
                    "duration": 0.3852820000000179
                },
                {
                    "name": "C#5",
                    "midi": 73,
                    "time": 328.2602639999907,
                    "velocity": 0.3858267716535433,
                    "duration": 0.7705639999999789
                },
                {
                    "name": "C#6",
                    "midi": 85,
                    "time": 328.2602639999907,
                    "velocity": 0.4566929133858268,
                    "duration": 0.7705639999999789
                },
                {
                    "name": "C5",
                    "midi": 72,
                    "time": 329.03082799999066,
                    "velocity": 0.3228346456692913,
                    "duration": 0.09632049999999026
                },
                {
                    "name": "C6",
                    "midi": 84,
                    "time": 329.03082799999066,
                    "velocity": 0.3858267716535433,
                    "duration": 0.09632049999999026
                },
                {
                    "name": "A#5",
                    "midi": 82,
                    "time": 329.22346899999064,
                    "velocity": 0.3858267716535433,
                    "duration": 0.09632049999999026
                },
                {
                    "name": "A#4",
                    "midi": 70,
                    "time": 329.22346899999064,
                    "velocity": 0.3228346456692913,
                    "duration": 0.09632049999999026
                },
                {
                    "name": "A5",
                    "midi": 81,
                    "time": 329.4161099999906,
                    "velocity": 0.47244094488188976,
                    "duration": 0.3852820000000179
                },
                {
                    "name": "A4",
                    "midi": 69,
                    "time": 329.4161099999906,
                    "velocity": 0.4015748031496063,
                    "duration": 0.3852820000000179
                },
                {
                    "name": "C6",
                    "midi": 84,
                    "time": 329.80139199999064,
                    "velocity": 0.4015748031496063,
                    "duration": 0.19264099999998052
                },
                {
                    "name": "C5",
                    "midi": 72,
                    "time": 329.80139199999064,
                    "velocity": 0.33858267716535434,
                    "duration": 0.19264099999998052
                },
                {
                    "name": "A#5",
                    "midi": 82,
                    "time": 329.9940329999906,
                    "velocity": 0.4015748031496063,
                    "duration": 0.3852820000000179
                },
                {
                    "name": "A#4",
                    "midi": 70,
                    "time": 329.9940329999906,
                    "velocity": 0.33858267716535434,
                    "duration": 0.3852820000000179
                },
                {
                    "name": "B5",
                    "midi": 83,
                    "time": 330.5719559999906,
                    "velocity": 0.5590551181102362,
                    "duration": 0.5779229999999984
                },
                {
                    "name": "B4",
                    "midi": 71,
                    "time": 330.5719559999906,
                    "velocity": 0.4409448818897638,
                    "duration": 0.5779229999999984
                },
                {
                    "name": "C5",
                    "midi": 72,
                    "time": 331.1498789999906,
                    "velocity": 0.4409448818897638,
                    "duration": 0.5779229999999984
                },
                {
                    "name": "C6",
                    "midi": 84,
                    "time": 331.1498789999906,
                    "velocity": 0.5590551181102362,
                    "duration": 0.5779229999999984
                },
                {
                    "name": "C#6",
                    "midi": 85,
                    "time": 331.7278019999906,
                    "velocity": 0.5433070866141733,
                    "duration": 0.5779229999999984
                },
                {
                    "name": "C#5",
                    "midi": 73,
                    "time": 331.7278019999906,
                    "velocity": 0.4251968503937008,
                    "duration": 0.5779229999999984
                },
                {
                    "name": "C5",
                    "midi": 72,
                    "time": 332.3057249999906,
                    "velocity": 0.4409448818897638,
                    "duration": 0.19264099999998052
                },
                {
                    "name": "C6",
                    "midi": 84,
                    "time": 332.3057249999906,
                    "velocity": 0.5590551181102362,
                    "duration": 0.19264099999998052
                },
                {
                    "name": "F6",
                    "midi": 89,
                    "time": 332.7873274999906,
                    "velocity": 0.41732283464566927,
                    "duration": 0.09632049999999026
                },
                {
                    "name": "C5",
                    "midi": 72,
                    "time": 332.8836479999906,
                    "velocity": 0.4015748031496063,
                    "duration": 0.5779229999999984
                },
                {
                    "name": "F5",
                    "midi": 77,
                    "time": 332.8836479999906,
                    "velocity": 0.5039370078740157,
                    "duration": 0.5297627499999749
                },
                {
                    "name": "G#5",
                    "midi": 80,
                    "time": 333.4134107499906,
                    "velocity": 0.31496062992125984,
                    "duration": 0.04816025000002355
                },
                {
                    "name": "E5",
                    "midi": 76,
                    "time": 333.4615709999906,
                    "velocity": 0.4015748031496063,
                    "duration": 0.5779229999999984
                },
                {
                    "name": "G5",
                    "midi": 79,
                    "time": 333.4615709999906,
                    "velocity": 0.4015748031496063,
                    "duration": 0.5779229999999984
                },
                {
                    "name": "F5",
                    "midi": 77,
                    "time": 334.0394939999906,
                    "velocity": 0.5826771653543307,
                    "duration": 0.09632049999999026
                },
                {
                    "name": "C5",
                    "midi": 72,
                    "time": 334.1358144999906,
                    "velocity": 0.4881889763779528,
                    "duration": 0.09632049999999026
                },
                {
                    "name": "B4",
                    "midi": 71,
                    "time": 334.2321349999906,
                    "velocity": 0.4881889763779528,
                    "duration": 0.09632049999999026
                },
                {
                    "name": "C5",
                    "midi": 72,
                    "time": 334.3284554999906,
                    "velocity": 0.4881889763779528,
                    "duration": 0.09632049999999026
                },
                {
                    "name": "D5",
                    "midi": 74,
                    "time": 334.4247759999906,
                    "velocity": 0.5433070866141733,
                    "duration": 0.09632049999999026
                },
                {
                    "name": "C5",
                    "midi": 72,
                    "time": 334.52109649999056,
                    "velocity": 0.4881889763779528,
                    "duration": 0.09632049999999026
                },
                {
                    "name": "A#4",
                    "midi": 70,
                    "time": 334.61741699999055,
                    "velocity": 0.5118110236220472,
                    "duration": 0.09632049999999026
                },
                {
                    "name": "C5",
                    "midi": 72,
                    "time": 334.71373749999054,
                    "velocity": 0.47244094488188976,
                    "duration": 0.09632049999999026
                },
                {
                    "name": "A#4",
                    "midi": 70,
                    "time": 334.81005799999053,
                    "velocity": 0.5118110236220472,
                    "duration": 0.09632049999999026
                },
                {
                    "name": "C5",
                    "midi": 72,
                    "time": 334.9063784999905,
                    "velocity": 0.4645669291338583,
                    "duration": 0.09632049999999026
                },
                {
                    "name": "A#4",
                    "midi": 70,
                    "time": 335.0026989999905,
                    "velocity": 0.5118110236220472,
                    "duration": 0.09632049999999026
                },
                {
                    "name": "C5",
                    "midi": 72,
                    "time": 335.0990194999905,
                    "velocity": 0.4645669291338583,
                    "duration": 0.09632049999999026
                },
                {
                    "name": "A4",
                    "midi": 69,
                    "time": 335.1953399999905,
                    "velocity": 0.5826771653543307,
                    "duration": 0.09632049999999026
                },
                {
                    "name": "C5",
                    "midi": 72,
                    "time": 335.2916604999905,
                    "velocity": 0.4881889763779528,
                    "duration": 0.09632049999999026
                },
                {
                    "name": "B4",
                    "midi": 71,
                    "time": 335.3879809999905,
                    "velocity": 0.4881889763779528,
                    "duration": 0.09632049999999026
                },
                {
                    "name": "C5",
                    "midi": 72,
                    "time": 335.48430149999047,
                    "velocity": 0.4881889763779528,
                    "duration": 0.09632049999999026
                },
                {
                    "name": "F5",
                    "midi": 77,
                    "time": 335.58062199999046,
                    "velocity": 0.5826771653543307,
                    "duration": 0.09632049999999026
                },
                {
                    "name": "C5",
                    "midi": 72,
                    "time": 335.67694249999045,
                    "velocity": 0.4881889763779528,
                    "duration": 0.09632049999999026
                },
                {
                    "name": "A#4",
                    "midi": 70,
                    "time": 335.77326299999044,
                    "velocity": 0.5118110236220472,
                    "duration": 0.09632049999999026
                },
                {
                    "name": "C5",
                    "midi": 72,
                    "time": 335.8695834999904,
                    "velocity": 0.47244094488188976,
                    "duration": 0.09632049999999026
                },
                {
                    "name": "A#4",
                    "midi": 70,
                    "time": 335.9659039999904,
                    "velocity": 0.5118110236220472,
                    "duration": 0.09632049999999026
                },
                {
                    "name": "C5",
                    "midi": 72,
                    "time": 336.0622244999904,
                    "velocity": 0.4645669291338583,
                    "duration": 0.09632049999999026
                },
                {
                    "name": "A#4",
                    "midi": 70,
                    "time": 336.1585449999904,
                    "velocity": 0.5118110236220472,
                    "duration": 0.09632049999999026
                },
                {
                    "name": "C5",
                    "midi": 72,
                    "time": 336.2548654999904,
                    "velocity": 0.4645669291338583,
                    "duration": 0.09632049999999026
                },
                {
                    "name": "A4",
                    "midi": 69,
                    "time": 336.3511859999904,
                    "velocity": 0.5826771653543307,
                    "duration": 0.09632049999999026
                },
                {
                    "name": "C6",
                    "midi": 84,
                    "time": 336.44750649999037,
                    "velocity": 0.4881889763779528,
                    "duration": 0.09632049999999026
                },
                {
                    "name": "B5",
                    "midi": 83,
                    "time": 336.54382699999036,
                    "velocity": 0.4881889763779528,
                    "duration": 0.09632049999999026
                },
                {
                    "name": "C6",
                    "midi": 84,
                    "time": 336.64014749999035,
                    "velocity": 0.4881889763779528,
                    "duration": 0.09632049999999026
                },
                {
                    "name": "D6",
                    "midi": 86,
                    "time": 336.73646799999034,
                    "velocity": 0.5669291338582677,
                    "duration": 0.09632049999999026
                },
                {
                    "name": "C6",
                    "midi": 84,
                    "time": 336.83278849999033,
                    "velocity": 0.4881889763779528,
                    "duration": 0.09632049999999026
                },
                {
                    "name": "A#5",
                    "midi": 82,
                    "time": 336.9291089999903,
                    "velocity": 0.5118110236220472,
                    "duration": 0.09632049999999026
                },
                {
                    "name": "C6",
                    "midi": 84,
                    "time": 337.0254294999903,
                    "velocity": 0.47244094488188976,
                    "duration": 0.09632049999999026
                },
                {
                    "name": "A#5",
                    "midi": 82,
                    "time": 337.1217499999903,
                    "velocity": 0.5118110236220472,
                    "duration": 0.09632049999999026
                },
                {
                    "name": "C6",
                    "midi": 84,
                    "time": 337.2180704999903,
                    "velocity": 0.4645669291338583,
                    "duration": 0.09632049999999026
                },
                {
                    "name": "A#5",
                    "midi": 82,
                    "time": 337.3143909999903,
                    "velocity": 0.5118110236220472,
                    "duration": 0.09632049999999026
                },
                {
                    "name": "C6",
                    "midi": 84,
                    "time": 337.41071149999027,
                    "velocity": 0.4645669291338583,
                    "duration": 0.09632049999999026
                },
                {
                    "name": "A5",
                    "midi": 81,
                    "time": 337.50703199999026,
                    "velocity": 0.5826771653543307,
                    "duration": 0.09632049999999026
                },
                {
                    "name": "C6",
                    "midi": 84,
                    "time": 337.60335249999025,
                    "velocity": 0.4881889763779528,
                    "duration": 0.09632049999999026
                },
                {
                    "name": "B5",
                    "midi": 83,
                    "time": 337.69967299999024,
                    "velocity": 0.4881889763779528,
                    "duration": 0.09632049999999026
                },
                {
                    "name": "C6",
                    "midi": 84,
                    "time": 337.79599349999023,
                    "velocity": 0.4881889763779528,
                    "duration": 0.09632049999999026
                },
                {
                    "name": "F6",
                    "midi": 89,
                    "time": 337.8923139999902,
                    "velocity": 0.5433070866141733,
                    "duration": 0.09632049999999026
                },
                {
                    "name": "C6",
                    "midi": 84,
                    "time": 337.9886344999902,
                    "velocity": 0.4881889763779528,
                    "duration": 0.09632049999999026
                },
                {
                    "name": "A#5",
                    "midi": 82,
                    "time": 338.0849549999902,
                    "velocity": 0.5118110236220472,
                    "duration": 0.09632049999999026
                },
                {
                    "name": "C6",
                    "midi": 84,
                    "time": 338.1812754999902,
                    "velocity": 0.47244094488188976,
                    "duration": 0.09632049999999026
                },
                {
                    "name": "A#5",
                    "midi": 82,
                    "time": 338.2775959999902,
                    "velocity": 0.5118110236220472,
                    "duration": 0.09632049999999026
                },
                {
                    "name": "C6",
                    "midi": 84,
                    "time": 338.3739164999902,
                    "velocity": 0.4645669291338583,
                    "duration": 0.09632049999999026
                },
                {
                    "name": "A#5",
                    "midi": 82,
                    "time": 338.47023699999016,
                    "velocity": 0.5118110236220472,
                    "duration": 0.09632049999999026
                },
                {
                    "name": "C6",
                    "midi": 84,
                    "time": 338.56655749999015,
                    "velocity": 0.4645669291338583,
                    "duration": 0.09632049999999026
                },
                {
                    "name": "A5",
                    "midi": 81,
                    "time": 338.66287799999014,
                    "velocity": 0.5826771653543307,
                    "duration": 0.09632049999999026
                },
                {
                    "name": "C6",
                    "midi": 84,
                    "time": 338.75919849999013,
                    "velocity": 0.4881889763779528,
                    "duration": 0.09632049999999026
                },
                {
                    "name": "F6",
                    "midi": 89,
                    "time": 338.8555189999901,
                    "velocity": 0.5590551181102362,
                    "duration": 0.09632049999999026
                },
                {
                    "name": "A5",
                    "midi": 81,
                    "time": 338.9518394999901,
                    "velocity": 0.47244094488188976,
                    "duration": 0.09632049999999026
                },
                {
                    "name": "G5",
                    "midi": 79,
                    "time": 339.0481599999901,
                    "velocity": 0.5511811023622047,
                    "duration": 0.09632049999999026
                },
                {
                    "name": "E6",
                    "midi": 88,
                    "time": 339.1444804999901,
                    "velocity": 0.4881889763779528,
                    "duration": 0.09632049999999026
                },
                {
                    "name": "F5",
                    "midi": 77,
                    "time": 339.2408009999901,
                    "velocity": 0.5511811023622047,
                    "duration": 0.09632049999999026
                },
                {
                    "name": "D6",
                    "midi": 86,
                    "time": 339.3371214999901,
                    "velocity": 0.4881889763779528,
                    "duration": 0.09632049999999026
                },
                {
                    "name": "E5",
                    "midi": 76,
                    "time": 339.43344199999007,
                    "velocity": 0.5433070866141733,
                    "duration": 0.09632049999999026
                },
                {
                    "name": "C6",
                    "midi": 84,
                    "time": 339.52976249999006,
                    "velocity": 0.47244094488188976,
                    "duration": 0.09632049999999026
                },
                {
                    "name": "D5",
                    "midi": 74,
                    "time": 339.62608299999005,
                    "velocity": 0.5275590551181102,
                    "duration": 0.09632049999999026
                },
                {
                    "name": "A#5",
                    "midi": 82,
                    "time": 339.72240349999004,
                    "velocity": 0.4566929133858268,
                    "duration": 0.09632049999999026
                },
                {
                    "name": "C5",
                    "midi": 72,
                    "time": 339.81872399999,
                    "velocity": 0.5433070866141733,
                    "duration": 0.09632049999999026
                },
                {
                    "name": "A5",
                    "midi": 81,
                    "time": 339.91504449999,
                    "velocity": 0.4881889763779528,
                    "duration": 0.09632049999999026
                },
                {
                    "name": "A#4",
                    "midi": 70,
                    "time": 340.01136499999,
                    "velocity": 0.5275590551181102,
                    "duration": 0.09632049999999026
                },
                {
                    "name": "G5",
                    "midi": 79,
                    "time": 340.10768549999,
                    "velocity": 0.4645669291338583,
                    "duration": 0.09632049999999026
                },
                {
                    "name": "A4",
                    "midi": 69,
                    "time": 340.20400599999,
                    "velocity": 0.5196850393700787,
                    "duration": 0.09632049999999026
                },
                {
                    "name": "F5",
                    "midi": 77,
                    "time": 340.30032649999,
                    "velocity": 0.4409448818897638,
                    "duration": 0.09632049999999026
                },
                {
                    "name": "G4",
                    "midi": 67,
                    "time": 340.39664699998997,
                    "velocity": 0.4881889763779528,
                    "duration": 0.09632049999999026
                },
                {
                    "name": "E5",
                    "midi": 76,
                    "time": 340.49296749998996,
                    "velocity": 0.4251968503937008,
                    "duration": 0.09632049999999026
                },
                {
                    "name": "F4",
                    "midi": 65,
                    "time": 340.58928799998995,
                    "velocity": 0.49606299212598426,
                    "duration": 0.09632049999999026
                },
                {
                    "name": "D5",
                    "midi": 74,
                    "time": 340.68560849998994,
                    "velocity": 0.4330708661417323,
                    "duration": 0.09632049999999026
                },
                {
                    "name": "E4",
                    "midi": 64,
                    "time": 340.78192899998993,
                    "velocity": 0.4881889763779528,
                    "duration": 0.09632049999999026
                },
                {
                    "name": "C5",
                    "midi": 72,
                    "time": 340.8782494999899,
                    "velocity": 0.4015748031496063,
                    "duration": 0.09632049999999026
                },
                {
                    "name": "B4",
                    "midi": 71,
                    "time": 340.9745699999899,
                    "velocity": 0.4330708661417323,
                    "duration": 0.5779229999999984
                },
                {
                    "name": "D4",
                    "midi": 62,
                    "time": 340.9745699999899,
                    "velocity": 0.3543307086614173,
                    "duration": 0.5779229999999984
                },
                {
                    "name": "A#4",
                    "midi": 70,
                    "time": 341.5524929999899,
                    "velocity": 0.4330708661417323,
                    "duration": 0.5779229999999984
                },
                {
                    "name": "C#4",
                    "midi": 61,
                    "time": 341.5524929999899,
                    "velocity": 0.3543307086614173,
                    "duration": 0.5779229999999984
                },
                {
                    "name": "A#5",
                    "midi": 82,
                    "time": 342.1304159999899,
                    "velocity": 0.4330708661417323,
                    "duration": 0.5779229999999984
                },
                {
                    "name": "C#5",
                    "midi": 73,
                    "time": 342.1304159999899,
                    "velocity": 0.3543307086614173,
                    "duration": 0.5779229999999984
                },
                {
                    "name": "E5",
                    "midi": 76,
                    "time": 342.7083389999899,
                    "velocity": 0.4330708661417323,
                    "duration": 0.5779229999999984
                },
                {
                    "name": "G4",
                    "midi": 67,
                    "time": 342.7083389999899,
                    "velocity": 0.3543307086614173,
                    "duration": 0.5779229999999984
                },
                {
                    "name": "C6",
                    "midi": 84,
                    "time": 343.4789029999899,
                    "velocity": 0.3858267716535433,
                    "duration": 0.09632049999999026
                },
                {
                    "name": "C6",
                    "midi": 84,
                    "time": 343.67154399998986,
                    "velocity": 0.3858267716535433,
                    "duration": 0.09632049999999026
                },
                {
                    "name": "D6",
                    "midi": 86,
                    "time": 344.0568259999899,
                    "velocity": 0.3858267716535433,
                    "duration": 0.09632049999999026
                },
                {
                    "name": "D6",
                    "midi": 86,
                    "time": 344.24946699998986,
                    "velocity": 0.3858267716535433,
                    "duration": 0.09632049999999026
                },
                {
                    "name": "C5",
                    "midi": 72,
                    "time": 344.44210799998984,
                    "velocity": 0.30708661417322836,
                    "duration": 0.5297627499999749
                },
                {
                    "name": "F5",
                    "midi": 77,
                    "time": 344.44210799998984,
                    "velocity": 0.3700787401574803,
                    "duration": 0.5297627499999749
                },
                {
                    "name": "A5",
                    "midi": 81,
                    "time": 344.9718707499898,
                    "velocity": 0.31496062992125984,
                    "duration": 0.04816025000002355
                },
                {
                    "name": "G5",
                    "midi": 79,
                    "time": 345.02003099998984,
                    "velocity": 0.3464566929133858,
                    "duration": 0.5779229999999984
                },
                {
                    "name": "E5",
                    "midi": 76,
                    "time": 345.02003099998984,
                    "velocity": 0.29133858267716534,
                    "duration": 0.5779229999999984
                },
                {
                    "name": "F5",
                    "midi": 77,
                    "time": 345.59795399998984,
                    "velocity": 0.5826771653543307,
                    "duration": 0.09632049999999026
                },
                {
                    "name": "C5",
                    "midi": 72,
                    "time": 345.69427449998983,
                    "velocity": 0.4881889763779528,
                    "duration": 0.09632049999999026
                },
                {
                    "name": "B4",
                    "midi": 71,
                    "time": 345.7905949999898,
                    "velocity": 0.4881889763779528,
                    "duration": 0.09632049999999026
                },
                {
                    "name": "C5",
                    "midi": 72,
                    "time": 345.8869154999898,
                    "velocity": 0.4881889763779528,
                    "duration": 0.09632049999999026
                },
                {
                    "name": "D5",
                    "midi": 74,
                    "time": 345.9832359999898,
                    "velocity": 0.5354330708661418,
                    "duration": 0.09632049999999026
                },
                {
                    "name": "C5",
                    "midi": 72,
                    "time": 346.0795564999898,
                    "velocity": 0.4881889763779528,
                    "duration": 0.09632049999999026
                },
                {
                    "name": "A#4",
                    "midi": 70,
                    "time": 346.1758769999898,
                    "velocity": 0.5118110236220472,
                    "duration": 0.09632049999999026
                },
                {
                    "name": "C5",
                    "midi": 72,
                    "time": 346.2721974999898,
                    "velocity": 0.47244094488188976,
                    "duration": 0.09632049999999026
                },
                {
                    "name": "A#4",
                    "midi": 70,
                    "time": 346.36851799998976,
                    "velocity": 0.5118110236220472,
                    "duration": 0.09632049999999026
                },
                {
                    "name": "C5",
                    "midi": 72,
                    "time": 346.46483849998975,
                    "velocity": 0.4645669291338583,
                    "duration": 0.09632049999999026
                },
                {
                    "name": "A#4",
                    "midi": 70,
                    "time": 346.56115899998974,
                    "velocity": 0.5118110236220472,
                    "duration": 0.09632049999999026
                },
                {
                    "name": "C5",
                    "midi": 72,
                    "time": 346.65747949998973,
                    "velocity": 0.4645669291338583,
                    "duration": 0.09632049999999026
                },
                {
                    "name": "A4",
                    "midi": 69,
                    "time": 346.7537999999897,
                    "velocity": 0.5826771653543307,
                    "duration": 0.09632049999999026
                },
                {
                    "name": "C5",
                    "midi": 72,
                    "time": 346.8501204999897,
                    "velocity": 0.4881889763779528,
                    "duration": 0.09632049999999026
                },
                {
                    "name": "B4",
                    "midi": 71,
                    "time": 346.9464409999897,
                    "velocity": 0.4881889763779528,
                    "duration": 0.09632049999999026
                },
                {
                    "name": "C5",
                    "midi": 72,
                    "time": 347.0427614999897,
                    "velocity": 0.4881889763779528,
                    "duration": 0.09632049999999026
                },
                {
                    "name": "F5",
                    "midi": 77,
                    "time": 347.1390819999897,
                    "velocity": 0.5826771653543307,
                    "duration": 0.09632049999999026
                },
                {
                    "name": "C5",
                    "midi": 72,
                    "time": 347.2354024999897,
                    "velocity": 0.4881889763779528,
                    "duration": 0.09632049999999026
                },
                {
                    "name": "A#4",
                    "midi": 70,
                    "time": 347.33172299998967,
                    "velocity": 0.5118110236220472,
                    "duration": 0.09632049999999026
                },
                {
                    "name": "C5",
                    "midi": 72,
                    "time": 347.42804349998966,
                    "velocity": 0.47244094488188976,
                    "duration": 0.09632049999999026
                },
                {
                    "name": "A#4",
                    "midi": 70,
                    "time": 347.52436399998965,
                    "velocity": 0.5118110236220472,
                    "duration": 0.09632049999999026
                },
                {
                    "name": "C5",
                    "midi": 72,
                    "time": 347.62068449998964,
                    "velocity": 0.4645669291338583,
                    "duration": 0.09632049999999026
                },
                {
                    "name": "A#4",
                    "midi": 70,
                    "time": 347.7170049999896,
                    "velocity": 0.5118110236220472,
                    "duration": 0.09632049999999026
                },
                {
                    "name": "C5",
                    "midi": 72,
                    "time": 347.8133254999896,
                    "velocity": 0.4645669291338583,
                    "duration": 0.09632049999999026
                },
                {
                    "name": "A4",
                    "midi": 69,
                    "time": 347.9096459999896,
                    "velocity": 0.5826771653543307,
                    "duration": 0.09632049999999026
                },
                {
                    "name": "C6",
                    "midi": 84,
                    "time": 348.0059664999896,
                    "velocity": 0.4881889763779528,
                    "duration": 0.09632049999999026
                },
                {
                    "name": "B5",
                    "midi": 83,
                    "time": 348.1022869999896,
                    "velocity": 0.4881889763779528,
                    "duration": 0.09632049999999026
                },
                {
                    "name": "C6",
                    "midi": 84,
                    "time": 348.1986074999896,
                    "velocity": 0.4881889763779528,
                    "duration": 0.09632049999999026
                },
                {
                    "name": "D6",
                    "midi": 86,
                    "time": 348.29492799998957,
                    "velocity": 0.5669291338582677,
                    "duration": 0.09632049999999026
                },
                {
                    "name": "C6",
                    "midi": 84,
                    "time": 348.39124849998956,
                    "velocity": 0.4881889763779528,
                    "duration": 0.09632049999999026
                },
                {
                    "name": "A#5",
                    "midi": 82,
                    "time": 348.48756899998955,
                    "velocity": 0.5118110236220472,
                    "duration": 0.09632049999999026
                },
                {
                    "name": "C6",
                    "midi": 84,
                    "time": 348.58388949998954,
                    "velocity": 0.47244094488188976,
                    "duration": 0.09632049999999026
                },
                {
                    "name": "A#5",
                    "midi": 82,
                    "time": 348.68020999998953,
                    "velocity": 0.5118110236220472,
                    "duration": 0.09632049999999026
                },
                {
                    "name": "C6",
                    "midi": 84,
                    "time": 348.7765304999895,
                    "velocity": 0.4645669291338583,
                    "duration": 0.09632049999999026
                },
                {
                    "name": "A#5",
                    "midi": 82,
                    "time": 348.8728509999895,
                    "velocity": 0.5118110236220472,
                    "duration": 0.09632049999999026
                },
                {
                    "name": "C6",
                    "midi": 84,
                    "time": 348.9691714999895,
                    "velocity": 0.4645669291338583,
                    "duration": 0.09632049999999026
                },
                {
                    "name": "A5",
                    "midi": 81,
                    "time": 349.0654919999895,
                    "velocity": 0.5826771653543307,
                    "duration": 0.09632049999999026
                },
                {
                    "name": "C6",
                    "midi": 84,
                    "time": 349.1618124999895,
                    "velocity": 0.4881889763779528,
                    "duration": 0.09632049999999026
                },
                {
                    "name": "B5",
                    "midi": 83,
                    "time": 349.25813299998947,
                    "velocity": 0.4881889763779528,
                    "duration": 0.09632049999999026
                },
                {
                    "name": "C6",
                    "midi": 84,
                    "time": 349.35445349998946,
                    "velocity": 0.4881889763779528,
                    "duration": 0.09632049999999026
                },
                {
                    "name": "F6",
                    "midi": 89,
                    "time": 349.45077399998945,
                    "velocity": 0.5669291338582677,
                    "duration": 0.09632049999999026
                },
                {
                    "name": "C6",
                    "midi": 84,
                    "time": 349.54709449998944,
                    "velocity": 0.4881889763779528,
                    "duration": 0.09632049999999026
                },
                {
                    "name": "A#5",
                    "midi": 82,
                    "time": 349.64341499998943,
                    "velocity": 0.5118110236220472,
                    "duration": 0.09632049999999026
                },
                {
                    "name": "C6",
                    "midi": 84,
                    "time": 349.7397354999894,
                    "velocity": 0.47244094488188976,
                    "duration": 0.09632049999999026
                },
                {
                    "name": "A#5",
                    "midi": 82,
                    "time": 349.8360559999894,
                    "velocity": 0.5118110236220472,
                    "duration": 0.09632049999999026
                },
                {
                    "name": "C6",
                    "midi": 84,
                    "time": 349.9323764999894,
                    "velocity": 0.4645669291338583,
                    "duration": 0.09632049999999026
                },
                {
                    "name": "A#5",
                    "midi": 82,
                    "time": 350.0286969999894,
                    "velocity": 0.5118110236220472,
                    "duration": 0.09632049999999026
                },
                {
                    "name": "C6",
                    "midi": 84,
                    "time": 350.1250174999894,
                    "velocity": 0.4645669291338583,
                    "duration": 0.09632049999999026
                },
                {
                    "name": "A5",
                    "midi": 81,
                    "time": 350.2213379999894,
                    "velocity": 0.5826771653543307,
                    "duration": 0.09632049999999026
                },
                {
                    "name": "C6",
                    "midi": 84,
                    "time": 350.31765849998936,
                    "velocity": 0.4881889763779528,
                    "duration": 0.09632049999999026
                },
                {
                    "name": "F6",
                    "midi": 89,
                    "time": 350.41397899998935,
                    "velocity": 0.5590551181102362,
                    "duration": 0.09632049999999026
                },
                {
                    "name": "A5",
                    "midi": 81,
                    "time": 350.51029949998934,
                    "velocity": 0.47244094488188976,
                    "duration": 0.09632049999999026
                },
                {
                    "name": "G5",
                    "midi": 79,
                    "time": 350.60661999998933,
                    "velocity": 0.5511811023622047,
                    "duration": 0.09632049999999026
                },
                {
                    "name": "E6",
                    "midi": 88,
                    "time": 350.7029404999893,
                    "velocity": 0.4881889763779528,
                    "duration": 0.09632049999999026
                },
                {
                    "name": "F5",
                    "midi": 77,
                    "time": 350.7992609999893,
                    "velocity": 0.5511811023622047,
                    "duration": 0.09632049999999026
                },
                {
                    "name": "D6",
                    "midi": 86,
                    "time": 350.8955814999893,
                    "velocity": 0.4881889763779528,
                    "duration": 0.09632049999999026
                },
                {
                    "name": "E5",
                    "midi": 76,
                    "time": 350.9919019999893,
                    "velocity": 0.5433070866141733,
                    "duration": 0.09632049999999026
                },
                {
                    "name": "C6",
                    "midi": 84,
                    "time": 351.0882224999893,
                    "velocity": 0.47244094488188976,
                    "duration": 0.09632049999999026
                },
                {
                    "name": "D5",
                    "midi": 74,
                    "time": 351.1845429999893,
                    "velocity": 0.5275590551181102,
                    "duration": 0.09632049999999026
                },
                {
                    "name": "A#5",
                    "midi": 82,
                    "time": 351.28086349998927,
                    "velocity": 0.4566929133858268,
                    "duration": 0.09632049999999026
                },
                {
                    "name": "C5",
                    "midi": 72,
                    "time": 351.37718399998926,
                    "velocity": 0.5433070866141733,
                    "duration": 0.09632049999999026
                },
                {
                    "name": "A5",
                    "midi": 81,
                    "time": 351.47350449998925,
                    "velocity": 0.4881889763779528,
                    "duration": 0.09632049999999026
                },
                {
                    "name": "A#4",
                    "midi": 70,
                    "time": 351.56982499998924,
                    "velocity": 0.5275590551181102,
                    "duration": 0.09632049999999026
                },
                {
                    "name": "G5",
                    "midi": 79,
                    "time": 351.6661454999892,
                    "velocity": 0.4645669291338583,
                    "duration": 0.09632049999999026
                },
                {
                    "name": "A4",
                    "midi": 69,
                    "time": 351.7624659999892,
                    "velocity": 0.5196850393700787,
                    "duration": 0.09632049999999026
                },
                {
                    "name": "F5",
                    "midi": 77,
                    "time": 351.8587864999892,
                    "velocity": 0.4409448818897638,
                    "duration": 0.09632049999999026
                },
                {
                    "name": "G4",
                    "midi": 67,
                    "time": 351.9551069999892,
                    "velocity": 0.5039370078740157,
                    "duration": 0.09632049999999026
                },
                {
                    "name": "E5",
                    "midi": 76,
                    "time": 352.0514274999892,
                    "velocity": 0.4330708661417323,
                    "duration": 0.09632049999999026
                },
                {
                    "name": "F4",
                    "midi": 65,
                    "time": 352.1477479999892,
                    "velocity": 0.49606299212598426,
                    "duration": 0.09632049999999026
                },
                {
                    "name": "D5",
                    "midi": 74,
                    "time": 352.24406849998917,
                    "velocity": 0.4330708661417323,
                    "duration": 0.09632049999999026
                },
                {
                    "name": "E4",
                    "midi": 64,
                    "time": 352.34038899998916,
                    "velocity": 0.4881889763779528,
                    "duration": 0.09632049999999026
                },
                {
                    "name": "C5",
                    "midi": 72,
                    "time": 352.43670949998915,
                    "velocity": 0.4015748031496063,
                    "duration": 0.09632049999999026
                },
                {
                    "name": "B4",
                    "midi": 71,
                    "time": 352.53302999998914,
                    "velocity": 0.4330708661417323,
                    "duration": 0.5779229999999984
                },
                {
                    "name": "D4",
                    "midi": 62,
                    "time": 352.53302999998914,
                    "velocity": 0.3543307086614173,
                    "duration": 0.5779229999999984
                },
                {
                    "name": "A#4",
                    "midi": 70,
                    "time": 353.11095299998914,
                    "velocity": 0.4330708661417323,
                    "duration": 0.5779229999999984
                },
                {
                    "name": "C#4",
                    "midi": 61,
                    "time": 353.11095299998914,
                    "velocity": 0.3543307086614173,
                    "duration": 0.5779229999999984
                },
                {
                    "name": "A#5",
                    "midi": 82,
                    "time": 353.68887599998914,
                    "velocity": 0.4330708661417323,
                    "duration": 0.5779229999999984
                },
                {
                    "name": "C#5",
                    "midi": 73,
                    "time": 353.68887599998914,
                    "velocity": 0.3543307086614173,
                    "duration": 0.5779229999999984
                },
                {
                    "name": "E5",
                    "midi": 76,
                    "time": 354.26679899998913,
                    "velocity": 0.4330708661417323,
                    "duration": 0.5779229999999984
                },
                {
                    "name": "G4",
                    "midi": 67,
                    "time": 354.26679899998913,
                    "velocity": 0.3543307086614173,
                    "duration": 0.5779229999999984
                },
                {
                    "name": "C6",
                    "midi": 84,
                    "time": 355.0373629999891,
                    "velocity": 0.3858267716535433,
                    "duration": 0.09632049999999026
                },
                {
                    "name": "C6",
                    "midi": 84,
                    "time": 355.2300039999891,
                    "velocity": 0.3858267716535433,
                    "duration": 0.09632049999999026
                },
                {
                    "name": "D6",
                    "midi": 86,
                    "time": 355.6152859999891,
                    "velocity": 0.3858267716535433,
                    "duration": 0.09632049999999026
                },
                {
                    "name": "D6",
                    "midi": 86,
                    "time": 355.8079269999891,
                    "velocity": 0.3858267716535433,
                    "duration": 0.09632049999999026
                },
                {
                    "name": "C5",
                    "midi": 72,
                    "time": 356.0005679999891,
                    "velocity": 0.30708661417322836,
                    "duration": 1.1558459999999968
                },
                {
                    "name": "F5",
                    "midi": 77,
                    "time": 356.0005679999891,
                    "velocity": 0.3700787401574803,
                    "duration": 0.5779229999999984
                },
                {
                    "name": "E5",
                    "midi": 76,
                    "time": 356.57849099998907,
                    "velocity": 0.29133858267716534,
                    "duration": 0.5779229999999984
                },
                {
                    "name": "B5",
                    "midi": 83,
                    "time": 357.15641399998907,
                    "velocity": 0.5590551181102362,
                    "duration": 0.09632049999999026
                },
                {
                    "name": "C6",
                    "midi": 84,
                    "time": 357.25273449998906,
                    "velocity": 0.4330708661417323,
                    "duration": 0.1059525499999836
                },
                {
                    "name": "B5",
                    "midi": 83,
                    "time": 357.34905499998905,
                    "velocity": 0.4330708661417323,
                    "duration": 0.1059525499999836
                },
                {
                    "name": "C6",
                    "midi": 84,
                    "time": 357.44537549998904,
                    "velocity": 0.4330708661417323,
                    "duration": 0.1059525499999836
                },
                {
                    "name": "B5",
                    "midi": 83,
                    "time": 357.54169599998903,
                    "velocity": 0.4330708661417323,
                    "duration": 0.1059525499999836
                },
                {
                    "name": "C6",
                    "midi": 84,
                    "time": 357.638016499989,
                    "velocity": 0.4330708661417323,
                    "duration": 0.09632049999999026
                },
                {
                    "name": "C#6",
                    "midi": 85,
                    "time": 357.734336999989,
                    "velocity": 0.4881889763779528,
                    "duration": 0.1059525499999836
                },
                {
                    "name": "D6",
                    "midi": 86,
                    "time": 357.830657499989,
                    "velocity": 0.4330708661417323,
                    "duration": 0.1059525499999836
                },
                {
                    "name": "C#6",
                    "midi": 85,
                    "time": 357.926977999989,
                    "velocity": 0.4330708661417323,
                    "duration": 0.1059525499999836
                },
                {
                    "name": "D6",
                    "midi": 86,
                    "time": 358.023298499989,
                    "velocity": 0.4330708661417323,
                    "duration": 0.1059525499999836
                },
                {
                    "name": "E6",
                    "midi": 88,
                    "time": 358.119618999989,
                    "velocity": 0.4645669291338583,
                    "duration": 0.1059525499999836
                },
                {
                    "name": "F6",
                    "midi": 89,
                    "time": 358.21593949998896,
                    "velocity": 0.4251968503937008,
                    "duration": 0.09632049999999026
                },
                {
                    "name": "C5",
                    "midi": 72,
                    "time": 358.31225999998895,
                    "velocity": 0.30708661417322836,
                    "duration": 0.5779229999999984
                },
                {
                    "name": "F5",
                    "midi": 77,
                    "time": 358.31225999998895,
                    "velocity": 0.3700787401574803,
                    "duration": 0.5297627499999749
                },
                {
                    "name": "A5",
                    "midi": 81,
                    "time": 358.8420227499889,
                    "velocity": 0.29133858267716534,
                    "duration": 0.04816025000002355
                },
                {
                    "name": "G5",
                    "midi": 79,
                    "time": 358.89018299998895,
                    "velocity": 0.33858267716535434,
                    "duration": 0.48160250000000815
                },
                {
                    "name": "E5",
                    "midi": 76,
                    "time": 358.89018299998895,
                    "velocity": 0.33858267716535434,
                    "duration": 0.3852820000000179
                },
                {
                    "name": "F5",
                    "midi": 77,
                    "time": 359.37178549998896,
                    "velocity": 0.29133858267716534,
                    "duration": 0.09632049999999026
                },
                {
                    "name": "F5",
                    "midi": 77,
                    "time": 359.46810599998895,
                    "velocity": 0.5590551181102362,
                    "duration": 0.1059525499999836
                },
                {
                    "name": "A5",
                    "midi": 81,
                    "time": 359.56442649998894,
                    "velocity": 0.5039370078740157,
                    "duration": 0.1059525499999836
                },
                {
                    "name": "C6",
                    "midi": 84,
                    "time": 359.66074699998893,
                    "velocity": 0.5275590551181102,
                    "duration": 0.1059525499999836
                },
                {
                    "name": "F6",
                    "midi": 89,
                    "time": 359.7570674999889,
                    "velocity": 0.5354330708661418,
                    "duration": 0.1059525499999836
                },
                {
                    "name": "E6",
                    "midi": 88,
                    "time": 359.8533879999889,
                    "velocity": 0.5433070866141733,
                    "duration": 0.1059525499999836
                },
                {
                    "name": "D6",
                    "midi": 86,
                    "time": 359.9497084999889,
                    "velocity": 0.5433070866141733,
                    "duration": 0.1059525499999836
                },
                {
                    "name": "C6",
                    "midi": 84,
                    "time": 360.0460289999889,
                    "velocity": 0.5590551181102362,
                    "duration": 0.1059525499999836
                },
                {
                    "name": "D6",
                    "midi": 86,
                    "time": 360.1423494999889,
                    "velocity": 0.5275590551181102,
                    "duration": 0.1059525499999836
                },
                {
                    "name": "C6",
                    "midi": 84,
                    "time": 360.2386699999889,
                    "velocity": 0.5275590551181102,
                    "duration": 0.1059525499999836
                },
                {
                    "name": "A#5",
                    "midi": 82,
                    "time": 360.33499049998886,
                    "velocity": 0.5275590551181102,
                    "duration": 0.1059525499999836
                },
                {
                    "name": "A5",
                    "midi": 81,
                    "time": 360.43131099998885,
                    "velocity": 0.5275590551181102,
                    "duration": 0.1059525499999836
                },
                {
                    "name": "G5",
                    "midi": 79,
                    "time": 360.52763149998884,
                    "velocity": 0.5275590551181102,
                    "duration": 0.09632049999999026
                },
                {
                    "name": "F5",
                    "midi": 77,
                    "time": 360.62395199998883,
                    "velocity": 0.5590551181102362,
                    "duration": 0.1059525499999836
                },
                {
                    "name": "A5",
                    "midi": 81,
                    "time": 360.7202724999888,
                    "velocity": 0.5039370078740157,
                    "duration": 0.1059525499999836
                },
                {
                    "name": "G5",
                    "midi": 79,
                    "time": 360.8165929999888,
                    "velocity": 0.5039370078740157,
                    "duration": 0.1059525499999836
                },
                {
                    "name": "F5",
                    "midi": 77,
                    "time": 360.9129134999888,
                    "velocity": 0.5354330708661418,
                    "duration": 0.1059525499999836
                },
                {
                    "name": "E5",
                    "midi": 76,
                    "time": 361.0092339999888,
                    "velocity": 0.5039370078740157,
                    "duration": 0.1059525499999836
                },
                {
                    "name": "D5",
                    "midi": 74,
                    "time": 361.1055544999888,
                    "velocity": 0.5039370078740157,
                    "duration": 0.1059525499999836
                },
                {
                    "name": "C5",
                    "midi": 72,
                    "time": 361.2018749999888,
                    "velocity": 0.5433070866141733,
                    "duration": 0.1059525499999836
                },
                {
                    "name": "D5",
                    "midi": 74,
                    "time": 361.29819549998876,
                    "velocity": 0.49606299212598426,
                    "duration": 0.1059525499999836
                },
                {
                    "name": "C5",
                    "midi": 72,
                    "time": 361.39451599998876,
                    "velocity": 0.49606299212598426,
                    "duration": 0.1059525499999836
                },
                {
                    "name": "A#4",
                    "midi": 70,
                    "time": 361.49083649998875,
                    "velocity": 0.49606299212598426,
                    "duration": 0.1059525499999836
                },
                {
                    "name": "A4",
                    "midi": 69,
                    "time": 361.58715699998874,
                    "velocity": 0.49606299212598426,
                    "duration": 0.1059525499999836
                },
                {
                    "name": "G4",
                    "midi": 67,
                    "time": 361.6834774999887,
                    "velocity": 0.49606299212598426,
                    "duration": 0.09632049999999026
                },
                {
                    "name": "F4",
                    "midi": 65,
                    "time": 361.7797979999887,
                    "velocity": 0.5590551181102362,
                    "duration": 0.1059525499999836
                },
                {
                    "name": "A4",
                    "midi": 69,
                    "time": 361.8761184999887,
                    "velocity": 0.49606299212598426,
                    "duration": 0.1059525499999836
                },
                {
                    "name": "G4",
                    "midi": 67,
                    "time": 361.9724389999887,
                    "velocity": 0.49606299212598426,
                    "duration": 0.1059525499999836
                },
                {
                    "name": "F4",
                    "midi": 65,
                    "time": 362.0687594999887,
                    "velocity": 0.49606299212598426,
                    "duration": 0.1059525499999836
                },
                {
                    "name": "E4",
                    "midi": 64,
                    "time": 362.1650799999887,
                    "velocity": 0.49606299212598426,
                    "duration": 0.1059525499999836
                },
                {
                    "name": "D4",
                    "midi": 62,
                    "time": 362.26140049998867,
                    "velocity": 0.5039370078740157,
                    "duration": 0.1059525499999836
                },
                {
                    "name": "C4",
                    "midi": 60,
                    "time": 362.35772099998866,
                    "velocity": 0.5590551181102362,
                    "duration": 0.1059525499999836
                },
                {
                    "name": "D4",
                    "midi": 62,
                    "time": 362.45404149998865,
                    "velocity": 0.5039370078740157,
                    "duration": 0.1059525499999836
                },
                {
                    "name": "C4",
                    "midi": 60,
                    "time": 362.55036199998864,
                    "velocity": 0.5039370078740157,
                    "duration": 0.1059525499999836
                },
                {
                    "name": "A#3",
                    "midi": 58,
                    "time": 362.64668249998863,
                    "velocity": 0.5039370078740157,
                    "duration": 0.1059525499999836
                },
                {
                    "name": "A3",
                    "midi": 57,
                    "time": 362.7430029999886,
                    "velocity": 0.5039370078740157,
                    "duration": 0.1059525499999836
                },
                {
                    "name": "G3",
                    "midi": 55,
                    "time": 362.8393234999886,
                    "velocity": 0.5039370078740157,
                    "duration": 0.09632049999999026
                },
                {
                    "name": "F3",
                    "midi": 53,
                    "time": 362.9356439999886,
                    "velocity": 0.6377952755905512,
                    "duration": 0.09632049999999026
                },
                {
                    "name": "A3",
                    "midi": 57,
                    "time": 363.1282849999886,
                    "velocity": 0.5511811023622047,
                    "duration": 0.09632049999999026
                },
                {
                    "name": "C4",
                    "midi": 60,
                    "time": 363.32092599998856,
                    "velocity": 0.5511811023622047,
                    "duration": 0.09632049999999026
                },
                {
                    "name": "F4",
                    "midi": 65,
                    "time": 363.51356699998854,
                    "velocity": 0.6141732283464567,
                    "duration": 0.09632049999999026
                },
                {
                    "name": "A4",
                    "midi": 69,
                    "time": 363.7062079999885,
                    "velocity": 0.5511811023622047,
                    "duration": 0.09632049999999026
                },
                {
                    "name": "C5",
                    "midi": 72,
                    "time": 363.8988489999885,
                    "velocity": 0.5511811023622047,
                    "duration": 0.09632049999999026
                },
                {
                    "name": "F5",
                    "midi": 77,
                    "time": 364.0914899999885,
                    "velocity": 0.6929133858267716,
                    "duration": 0.19264099999998052
                },
                {
                    "name": "A5",
                    "midi": 81,
                    "time": 364.6694129999885,
                    "velocity": 0.5905511811023622,
                    "duration": 0.3852820000000179
                },
                {
                    "name": "C6",
                    "midi": 84,
                    "time": 364.6694129999885,
                    "velocity": 0.7086614173228346,
                    "duration": 0.3852820000000179
                },
                {
                    "name": "C5",
                    "midi": 72,
                    "time": 364.6694129999885,
                    "velocity": 0.5905511811023622,
                    "duration": 0.3852820000000179
                },
                {
                    "name": "D#6",
                    "midi": 87,
                    "time": 365.2473359999885,
                    "velocity": 0.7401574803149606,
                    "duration": 0.3852820000000179
                },
                {
                    "name": "F5",
                    "midi": 77,
                    "time": 365.2473359999885,
                    "velocity": 0.6220472440944882,
                    "duration": 0.3852820000000179
                },
                {
                    "name": "C6",
                    "midi": 84,
                    "time": 365.2473359999885,
                    "velocity": 0.6377952755905512,
                    "duration": 0.3852820000000179
                },
                {
                    "name": "D6",
                    "midi": 86,
                    "time": 366.4031819999885,
                    "velocity": 0.6771653543307087,
                    "duration": 0.3852820000000179
                },
                {
                    "name": "F5",
                    "midi": 77,
                    "time": 366.4031819999885,
                    "velocity": 0.5826771653543307,
                    "duration": 0.3852820000000179
                },
                {
                    "name": "A#5",
                    "midi": 82,
                    "time": 366.4031819999885,
                    "velocity": 0.5826771653543307,
                    "duration": 0.3852820000000179
                },
                {
                    "name": "G#5",
                    "midi": 80,
                    "time": 367.5590279999885,
                    "velocity": 0.5826771653543307,
                    "duration": 0.3852820000000179
                },
                {
                    "name": "D6",
                    "midi": 86,
                    "time": 367.5590279999885,
                    "velocity": 0.6771653543307087,
                    "duration": 0.3852820000000179
                },
                {
                    "name": "F6",
                    "midi": 89,
                    "time": 367.5590279999885,
                    "velocity": 0.5826771653543307,
                    "duration": 0.3852820000000179
                },
                {
                    "name": "F5",
                    "midi": 77,
                    "time": 367.5590279999885,
                    "velocity": 0.5826771653543307,
                    "duration": 0.3852820000000179
                },
                {
                    "name": "C4",
                    "midi": 60,
                    "time": 368.71487399998847,
                    "velocity": 0.30708661417322836,
                    "duration": 1.1558459999999968
                },
                {
                    "name": "F4",
                    "midi": 65,
                    "time": 368.71487399998847,
                    "velocity": 0.3700787401574803,
                    "duration": 1.0595255000000066
                },
                {
                    "name": "A4",
                    "midi": 69,
                    "time": 369.7743994999885,
                    "velocity": 0.3700787401574803,
                    "duration": 0.09632049999999026
                },
                {
                    "name": "C4",
                    "midi": 60,
                    "time": 369.87071999998847,
                    "velocity": 0.33070866141732286,
                    "duration": 1.3484869999999773
                },
                {
                    "name": "G4",
                    "midi": 67,
                    "time": 369.87071999998847,
                    "velocity": 0.3937007874015748,
                    "duration": 0.9632050000000163
                },
                {
                    "name": "E4",
                    "midi": 64,
                    "time": 369.87071999998847,
                    "velocity": 0.33070866141732286,
                    "duration": 1.1558459999999968
                },
                {
                    "name": "F4",
                    "midi": 65,
                    "time": 370.8339249999885,
                    "velocity": 0.3228346456692913,
                    "duration": 0.19264099999998052
                },
                {
                    "name": "F4",
                    "midi": 65,
                    "time": 371.02656599998846,
                    "velocity": 0.36220472440944884,
                    "duration": 0.19264099999998052
                },
                {
                    "name": "A3",
                    "midi": 57,
                    "time": 371.4118479999884,
                    "velocity": 0.5590551181102362,
                    "duration": 0.19264099999998052
                },
                {
                    "name": "A#3",
                    "midi": 58,
                    "time": 371.6044889999884,
                    "velocity": 0.6141732283464567,
                    "duration": 0.09632049999999026
                },
                {
                    "name": "G4",
                    "midi": 67,
                    "time": 371.7971299999884,
                    "velocity": 0.5748031496062992,
                    "duration": 0.09632049999999026
                },
                {
                    "name": "B3",
                    "midi": 59,
                    "time": 371.98977099998837,
                    "velocity": 0.5669291338582677,
                    "duration": 0.09632049999999026
                },
                {
                    "name": "C4",
                    "midi": 60,
                    "time": 372.18241199998835,
                    "velocity": 0.6141732283464567,
                    "duration": 0.09632049999999026
                },
                {
                    "name": "A4",
                    "midi": 69,
                    "time": 372.3750529999883,
                    "velocity": 0.5748031496062992,
                    "duration": 0.09632049999999026
                },
                {
                    "name": "C#4",
                    "midi": 61,
                    "time": 372.5676939999883,
                    "velocity": 0.5748031496062992,
                    "duration": 0.09632049999999026
                },
                {
                    "name": "D4",
                    "midi": 62,
                    "time": 372.7603349999883,
                    "velocity": 0.6141732283464567,
                    "duration": 0.09632049999999026
                },
                {
                    "name": "A#4",
                    "midi": 70,
                    "time": 372.95297599998827,
                    "velocity": 0.5669291338582677,
                    "duration": 0.09632049999999026
                },
                {
                    "name": "E4",
                    "midi": 64,
                    "time": 373.14561699998825,
                    "velocity": 0.5669291338582677,
                    "duration": 0.09632049999999026
                },
                {
                    "name": "A#5",
                    "midi": 82,
                    "time": 373.33825799998823,
                    "velocity": 0.5354330708661418,
                    "duration": 0.7705639999999789
                },
                {
                    "name": "A5",
                    "midi": 81,
                    "time": 374.1088219999882,
                    "velocity": 0.4881889763779528,
                    "duration": 0.09632049999999026
                },
                {
                    "name": "G5",
                    "midi": 79,
                    "time": 374.2051424999882,
                    "velocity": 0.48031496062992124,
                    "duration": 0.09632049999999026
                },
                {
                    "name": "F5",
                    "midi": 77,
                    "time": 374.3014629999882,
                    "velocity": 0.4645669291338583,
                    "duration": 0.09632049999999026
                },
                {
                    "name": "E5",
                    "midi": 76,
                    "time": 374.3977834999882,
                    "velocity": 0.44881889763779526,
                    "duration": 0.09632049999999026
                },
                {
                    "name": "F5",
                    "midi": 77,
                    "time": 374.49410399998817,
                    "velocity": 0.4409448818897638,
                    "duration": 0.09632049999999026
                },
                {
                    "name": "G5",
                    "midi": 79,
                    "time": 374.68674499998815,
                    "velocity": 0.3858267716535433,
                    "duration": 0.09632049999999026
                },
                {
                    "name": "A5",
                    "midi": 81,
                    "time": 374.87938599998813,
                    "velocity": 0.4251968503937008,
                    "duration": 0.09632049999999026
                },
                {
                    "name": "A4",
                    "midi": 69,
                    "time": 375.0720269999881,
                    "velocity": 0.36220472440944884,
                    "duration": 0.3852820000000179
                },
                {
                    "name": "C5",
                    "midi": 72,
                    "time": 375.0720269999881,
                    "velocity": 0.36220472440944884,
                    "duration": 0.3852820000000179
                },
                {
                    "name": "A#4",
                    "midi": 70,
                    "time": 375.45730899998813,
                    "velocity": 0.31496062992125984,
                    "duration": 0.19264099999998052
                },
                {
                    "name": "G4",
                    "midi": 67,
                    "time": 375.45730899998813,
                    "velocity": 0.31496062992125984,
                    "duration": 0.19264099999998052
                },
                {
                    "name": "A#4",
                    "midi": 70,
                    "time": 375.6499499999881,
                    "velocity": 0.36220472440944884,
                    "duration": 0.5779229999999984
                },
                {
                    "name": "G4",
                    "midi": 67,
                    "time": 375.6499499999881,
                    "velocity": 0.36220472440944884,
                    "duration": 0.5779229999999984
                },
                {
                    "name": "F4",
                    "midi": 65,
                    "time": 376.2278729999881,
                    "velocity": 0.3228346456692913,
                    "duration": 0.19264099999998052
                },
                {
                    "name": "A4",
                    "midi": 69,
                    "time": 376.2278729999881,
                    "velocity": 0.3228346456692913,
                    "duration": 0.19264099999998052
                },
                {
                    "name": "A3",
                    "midi": 57,
                    "time": 377.19107799998807,
                    "velocity": 0.5590551181102362,
                    "duration": 0.19264099999998052
                },
                {
                    "name": "A#3",
                    "midi": 58,
                    "time": 377.38371899998805,
                    "velocity": 0.6141732283464567,
                    "duration": 0.09632049999999026
                },
                {
                    "name": "G4",
                    "midi": 67,
                    "time": 377.57635999998803,
                    "velocity": 0.5748031496062992,
                    "duration": 0.09632049999999026
                },
                {
                    "name": "B3",
                    "midi": 59,
                    "time": 377.769000999988,
                    "velocity": 0.5669291338582677,
                    "duration": 0.09632049999999026
                },
                {
                    "name": "C4",
                    "midi": 60,
                    "time": 377.961641999988,
                    "velocity": 0.6141732283464567,
                    "duration": 0.09632049999999026
                },
                {
                    "name": "A4",
                    "midi": 69,
                    "time": 378.15428299998797,
                    "velocity": 0.5748031496062992,
                    "duration": 0.09632049999999026
                },
                {
                    "name": "C#4",
                    "midi": 61,
                    "time": 378.34692399998795,
                    "velocity": 0.5748031496062992,
                    "duration": 0.09632049999999026
                },
                {
                    "name": "D4",
                    "midi": 62,
                    "time": 378.53956499998793,
                    "velocity": 0.6141732283464567,
                    "duration": 0.09632049999999026
                },
                {
                    "name": "A#4",
                    "midi": 70,
                    "time": 378.7322059999879,
                    "velocity": 0.5669291338582677,
                    "duration": 0.09632049999999026
                },
                {
                    "name": "E4",
                    "midi": 64,
                    "time": 378.9248469999879,
                    "velocity": 0.5669291338582677,
                    "duration": 0.09632049999999026
                },
                {
                    "name": "A#5",
                    "midi": 82,
                    "time": 379.1174879999879,
                    "velocity": 0.5354330708661418,
                    "duration": 0.7705639999999789
                },
                {
                    "name": "A5",
                    "midi": 81,
                    "time": 379.88805199998785,
                    "velocity": 0.4881889763779528,
                    "duration": 0.09632049999999026
                },
                {
                    "name": "G5",
                    "midi": 79,
                    "time": 379.98437249998784,
                    "velocity": 0.48031496062992124,
                    "duration": 0.09632049999999026
                },
                {
                    "name": "F5",
                    "midi": 77,
                    "time": 380.08069299998783,
                    "velocity": 0.4645669291338583,
                    "duration": 0.09632049999999026
                },
                {
                    "name": "E5",
                    "midi": 76,
                    "time": 380.1770134999878,
                    "velocity": 0.44881889763779526,
                    "duration": 0.09632049999999026
                },
                {
                    "name": "F5",
                    "midi": 77,
                    "time": 380.2733339999878,
                    "velocity": 0.4409448818897638,
                    "duration": 0.04816025000002355
                },
                {
                    "name": "G5",
                    "midi": 79,
                    "time": 380.32149424998784,
                    "velocity": 0.3858267716535433,
                    "duration": 0.04816025000002355
                },
                {
                    "name": "A5",
                    "midi": 81,
                    "time": 380.36965449998786,
                    "velocity": 0.3858267716535433,
                    "duration": 0.04816025000002355
                },
                {
                    "name": "D5",
                    "midi": 74,
                    "time": 380.85125699998787,
                    "velocity": 0.36220472440944884,
                    "duration": 0.04816025000002355
                },
                {
                    "name": "E5",
                    "midi": 76,
                    "time": 380.8994172499879,
                    "velocity": 0.30708661417322836,
                    "duration": 0.04816025000002355
                },
                {
                    "name": "F5",
                    "midi": 77,
                    "time": 380.9475774999879,
                    "velocity": 0.30708661417322836,
                    "duration": 0.04816025000002355
                },
                {
                    "name": "C4",
                    "midi": 60,
                    "time": 381.4291799999879,
                    "velocity": 0.29133858267716534,
                    "duration": 1.1558459999999968
                },
                {
                    "name": "F4",
                    "midi": 65,
                    "time": 381.4291799999879,
                    "velocity": 0.3464566929133858,
                    "duration": 0.48160250000000815
                },
                {
                    "name": "A4",
                    "midi": 69,
                    "time": 381.91078249998793,
                    "velocity": 0.30708661417322836,
                    "duration": 0.09632049999999026
                },
                {
                    "name": "G4",
                    "midi": 67,
                    "time": 382.0071029999879,
                    "velocity": 0.3464566929133858,
                    "duration": 0.3852820000000179
                },
                {
                    "name": "E4",
                    "midi": 64,
                    "time": 382.0071029999879,
                    "velocity": 0.28346456692913385,
                    "duration": 0.3852820000000179
                },
                {
                    "name": "F4",
                    "midi": 65,
                    "time": 382.39238499998794,
                    "velocity": 0.3228346456692913,
                    "duration": 0.19264099999998052
                },
                {
                    "name": "F4",
                    "midi": 65,
                    "time": 382.5850259999879,
                    "velocity": 0.3228346456692913,
                    "duration": 0.5779229999999984
                },
                {
                    "name": "A4",
                    "midi": 69,
                    "time": 382.97030799998794,
                    "velocity": 0.30708661417322836,
                    "duration": 0.19264099999998052
                },
                {
                    "name": "E4",
                    "midi": 64,
                    "time": 383.1629489999879,
                    "velocity": 0.29133858267716534,
                    "duration": 0.5779229999999416
                },
                {
                    "name": "C5",
                    "midi": 72,
                    "time": 383.1629489999879,
                    "velocity": 0.3464566929133858,
                    "duration": 0.19264099999998052
                },
                {
                    "name": "A#4",
                    "midi": 70,
                    "time": 383.3555899999879,
                    "velocity": 0.30708661417322836,
                    "duration": 0.19264099999998052
                },
                {
                    "name": "G4",
                    "midi": 67,
                    "time": 383.5482309999879,
                    "velocity": 0.30708661417322836,
                    "duration": 0.19264099999998052
                },
                {
                    "name": "F4",
                    "midi": 65,
                    "time": 383.74087199998786,
                    "velocity": 0.3464566929133858,
                    "duration": 0.5779229999999984
                },
                {
                    "name": "C4",
                    "midi": 60,
                    "time": 383.93351299998784,
                    "velocity": 0.31496062992125984,
                    "duration": 0.1894303166666873
                },
                {
                    "name": "A4",
                    "midi": 69,
                    "time": 384.1261539999879,
                    "velocity": 0.31496062992125984,
                    "duration": 0.19264099999998052
                },
                {
                    "name": "E4",
                    "midi": 64,
                    "time": 384.31879499998786,
                    "velocity": 0.29133858267716534,
                    "duration": 0.5779229999999416
                },
                {
                    "name": "C5",
                    "midi": 72,
                    "time": 384.31879499998786,
                    "velocity": 0.3464566929133858,
                    "duration": 0.19264099999998052
                },
                {
                    "name": "A#4",
                    "midi": 70,
                    "time": 384.51143599998784,
                    "velocity": 0.31496062992125984,
                    "duration": 0.19264099999998052
                },
                {
                    "name": "G4",
                    "midi": 67,
                    "time": 384.7040769999878,
                    "velocity": 0.31496062992125984,
                    "duration": 0.19264099999998052
                },
                {
                    "name": "F4",
                    "midi": 65,
                    "time": 384.8967179999878,
                    "velocity": 0.3464566929133858,
                    "duration": 0.19264099999998052
                },
                {
                    "name": "C4",
                    "midi": 60,
                    "time": 385.0893589999878,
                    "velocity": 0.3228346456692913,
                    "duration": 0.1894303166666873
                },
                {
                    "name": "A4",
                    "midi": 69,
                    "time": 385.2819999999878,
                    "velocity": 0.3228346456692913,
                    "duration": 0.19264099999998052
                },
                {
                    "name": "F4",
                    "midi": 65,
                    "time": 385.4746409999878,
                    "velocity": 0.3464566929133858,
                    "duration": 0.19264099999998052
                },
                {
                    "name": "C4",
                    "midi": 60,
                    "time": 385.6672819999878,
                    "velocity": 0.31496062992125984,
                    "duration": 0.1902329874999964
                },
                {
                    "name": "A4",
                    "midi": 69,
                    "time": 385.85992299998776,
                    "velocity": 0.31496062992125984,
                    "duration": 0.19264099999998052
                },
                {
                    "name": "G4",
                    "midi": 67,
                    "time": 386.05256399998774,
                    "velocity": 0.33070866141732286,
                    "duration": 0.5779229999999984
                },
                {
                    "name": "A#3",
                    "midi": 58,
                    "time": 386.05256399998774,
                    "velocity": 0.28346456692913385,
                    "duration": 0.5779229999999984
                },
                {
                    "name": "F4",
                    "midi": 65,
                    "time": 386.63048699998774,
                    "velocity": 0.28346456692913385,
                    "duration": 0.19264099999998052
                },
                {
                    "name": "A3",
                    "midi": 57,
                    "time": 386.63048699998774,
                    "velocity": 0.2440944881889764,
                    "duration": 0.19264099999998052
                },
                {
                    "name": "G5",
                    "midi": 79,
                    "time": 387.3047304999877,
                    "velocity": 0.5196850393700787,
                    "duration": 0.1059525499999836
                },
                {
                    "name": "F#5",
                    "midi": 78,
                    "time": 387.4010509999877,
                    "velocity": 0.5354330708661418,
                    "duration": 0.1059525499999836
                },
                {
                    "name": "G5",
                    "midi": 79,
                    "time": 387.4973714999877,
                    "velocity": 0.5433070866141733,
                    "duration": 0.1059525499999836
                },
                {
                    "name": "C6",
                    "midi": 84,
                    "time": 387.5936919999877,
                    "velocity": 0.5511811023622047,
                    "duration": 0.1059525499999836
                },
                {
                    "name": "G5",
                    "midi": 79,
                    "time": 387.6900124999877,
                    "velocity": 0.49606299212598426,
                    "duration": 0.1059525499999836
                },
                {
                    "name": "F5",
                    "midi": 77,
                    "time": 387.7863329999877,
                    "velocity": 0.5511811023622047,
                    "duration": 0.1059525499999836
                },
                {
                    "name": "D#5",
                    "midi": 75,
                    "time": 387.88265349998767,
                    "velocity": 0.5196850393700787,
                    "duration": 0.1059525499999836
                },
                {
                    "name": "D5",
                    "midi": 74,
                    "time": 387.97897399998766,
                    "velocity": 0.5039370078740157,
                    "duration": 0.1059525499999836
                },
                {
                    "name": "D#5",
                    "midi": 75,
                    "time": 388.07529449998765,
                    "velocity": 0.5039370078740157,
                    "duration": 0.1059525499999836
                },
                {
                    "name": "G5",
                    "midi": 79,
                    "time": 388.17161499998764,
                    "velocity": 0.5511811023622047,
                    "duration": 0.1059525499999836
                },
                {
                    "name": "D#5",
                    "midi": 75,
                    "time": 388.26793549998763,
                    "velocity": 0.5039370078740157,
                    "duration": 0.1059525499999836
                },
                {
                    "name": "D5",
                    "midi": 74,
                    "time": 388.3642559999876,
                    "velocity": 0.5511811023622047,
                    "duration": 0.1059525499999836
                },
                {
                    "name": "C5",
                    "midi": 72,
                    "time": 388.4605764999876,
                    "velocity": 0.5039370078740157,
                    "duration": 0.1059525499999836
                },
                {
                    "name": "B4",
                    "midi": 71,
                    "time": 388.5568969999876,
                    "velocity": 0.5039370078740157,
                    "duration": 0.1059525499999836
                },
                {
                    "name": "C5",
                    "midi": 72,
                    "time": 388.6532174999876,
                    "velocity": 0.5039370078740157,
                    "duration": 0.1059525499999836
                },
                {
                    "name": "D#5",
                    "midi": 75,
                    "time": 388.7495379999876,
                    "velocity": 0.5511811023622047,
                    "duration": 0.1059525499999836
                },
                {
                    "name": "C5",
                    "midi": 72,
                    "time": 388.84585849998757,
                    "velocity": 0.5118110236220472,
                    "duration": 0.1059525499999836
                },
                {
                    "name": "G#4",
                    "midi": 68,
                    "time": 388.94217899998756,
                    "velocity": 0.5511811023622047,
                    "duration": 0.1059525499999836
                },
                {
                    "name": "G4",
                    "midi": 67,
                    "time": 389.03849949998755,
                    "velocity": 0.5118110236220472,
                    "duration": 0.1059525499999836
                },
                {
                    "name": "F#4",
                    "midi": 66,
                    "time": 389.13481999998754,
                    "velocity": 0.5118110236220472,
                    "duration": 0.1059525499999836
                },
                {
                    "name": "G4",
                    "midi": 67,
                    "time": 389.23114049998753,
                    "velocity": 0.5118110236220472,
                    "duration": 0.1059525499999836
                },
                {
                    "name": "C5",
                    "midi": 72,
                    "time": 389.3274609999875,
                    "velocity": 0.5511811023622047,
                    "duration": 0.1059525499999836
                },
                {
                    "name": "G4",
                    "midi": 67,
                    "time": 389.4237814999875,
                    "velocity": 0.5118110236220472,
                    "duration": 0.1059525499999836
                },
                {
                    "name": "F4",
                    "midi": 65,
                    "time": 389.5201019999875,
                    "velocity": 0.5511811023622047,
                    "duration": 0.1059525499999836
                },
                {
                    "name": "D#4",
                    "midi": 63,
                    "time": 389.6164224999875,
                    "velocity": 0.5196850393700787,
                    "duration": 0.1059525499999836
                },
                {
                    "name": "D4",
                    "midi": 62,
                    "time": 389.7127429999875,
                    "velocity": 0.5196850393700787,
                    "duration": 0.1059525499999836
                },
                {
                    "name": "D#4",
                    "midi": 63,
                    "time": 389.8090634999875,
                    "velocity": 0.5196850393700787,
                    "duration": 0.1059525499999836
                },
                {
                    "name": "G4",
                    "midi": 67,
                    "time": 389.90538399998746,
                    "velocity": 0.5511811023622047,
                    "duration": 0.1059525499999836
                },
                {
                    "name": "D#4",
                    "midi": 63,
                    "time": 390.00170449998745,
                    "velocity": 0.5039370078740157,
                    "duration": 0.1059525499999836
                },
                {
                    "name": "C4",
                    "midi": 60,
                    "time": 390.09802499998744,
                    "velocity": 0.5511811023622047,
                    "duration": 0.09632049999999026
                },
                {
                    "name": "C5",
                    "midi": 72,
                    "time": 390.19434549998743,
                    "velocity": 0.5039370078740157,
                    "duration": 0.09632049999999026
                },
                {
                    "name": "B3",
                    "midi": 59,
                    "time": 390.2906659999874,
                    "velocity": 0.5511811023622047,
                    "duration": 0.09632049999999026
                },
                {
                    "name": "C5",
                    "midi": 72,
                    "time": 390.3869864999874,
                    "velocity": 0.5039370078740157,
                    "duration": 0.09632049999999026
                },
                {
                    "name": "C4",
                    "midi": 60,
                    "time": 390.4833069999874,
                    "velocity": 0.5511811023622047,
                    "duration": 0.09632049999999026
                },
                {
                    "name": "C5",
                    "midi": 72,
                    "time": 390.5796274999874,
                    "velocity": 0.5039370078740157,
                    "duration": 0.09632049999999026
                },
                {
                    "name": "D4",
                    "midi": 62,
                    "time": 390.6759479999874,
                    "velocity": 0.5511811023622047,
                    "duration": 0.09632049999999026
                },
                {
                    "name": "C5",
                    "midi": 72,
                    "time": 390.7722684999874,
                    "velocity": 0.5039370078740157,
                    "duration": 0.09632049999999026
                },
                {
                    "name": "C4",
                    "midi": 60,
                    "time": 390.86858899998737,
                    "velocity": 0.5118110236220472,
                    "duration": 0.09632049999999026
                },
                {
                    "name": "C5",
                    "midi": 72,
                    "time": 390.96490949998736,
                    "velocity": 0.4566929133858268,
                    "duration": 0.09632049999999026
                },
                {
                    "name": "D4",
                    "midi": 62,
                    "time": 391.06122999998735,
                    "velocity": 0.5275590551181102,
                    "duration": 0.09632049999999026
                },
                {
                    "name": "C5",
                    "midi": 72,
                    "time": 391.15755049998734,
                    "velocity": 0.48031496062992124,
                    "duration": 0.09632049999999026
                },
                {
                    "name": "E4",
                    "midi": 64,
                    "time": 391.2538709999873,
                    "velocity": 0.5511811023622047,
                    "duration": 0.09632049999999026
                },
                {
                    "name": "C5",
                    "midi": 72,
                    "time": 391.3501914999873,
                    "velocity": 0.47244094488188976,
                    "duration": 0.09632049999999026
                },
                {
                    "name": "D4",
                    "midi": 62,
                    "time": 391.4465119999873,
                    "velocity": 0.5196850393700787,
                    "duration": 0.09632049999999026
                },
                {
                    "name": "C5",
                    "midi": 72,
                    "time": 391.5428324999873,
                    "velocity": 0.4881889763779528,
                    "duration": 0.09632049999999026
                },
                {
                    "name": "E4",
                    "midi": 64,
                    "time": 391.6391529999873,
                    "velocity": 0.5275590551181102,
                    "duration": 0.09632049999999026
                },
                {
                    "name": "C5",
                    "midi": 72,
                    "time": 391.7354734999873,
                    "velocity": 0.4881889763779528,
                    "duration": 0.09632049999999026
                },
                {
                    "name": "F4",
                    "midi": 65,
                    "time": 391.83179399998727,
                    "velocity": 0.5826771653543307,
                    "duration": 0.09632049999999026
                },
                {
                    "name": "C5",
                    "midi": 72,
                    "time": 391.92811449998726,
                    "velocity": 0.48031496062992124,
                    "duration": 0.09632049999999026
                },
                {
                    "name": "F4",
                    "midi": 65,
                    "time": 392.02443499998725,
                    "velocity": 0.5118110236220472,
                    "duration": 0.09632049999999026
                },
                {
                    "name": "C5",
                    "midi": 72,
                    "time": 392.12075549998724,
                    "velocity": 0.48031496062992124,
                    "duration": 0.09632049999999026
                },
                {
                    "name": "D#4",
                    "midi": 63,
                    "time": 392.21707599998723,
                    "velocity": 0.5118110236220472,
                    "duration": 0.09632049999999026
                },
                {
                    "name": "C5",
                    "midi": 72,
                    "time": 392.3133964999872,
                    "velocity": 0.47244094488188976,
                    "duration": 0.09632049999999026
                },
                {
                    "name": "F4",
                    "midi": 65,
                    "time": 392.4097169999872,
                    "velocity": 0.5511811023622047,
                    "duration": 0.09632049999999026
                },
                {
                    "name": "C5",
                    "midi": 72,
                    "time": 392.5060374999872,
                    "velocity": 0.47244094488188976,
                    "duration": 0.09632049999999026
                },
                {
                    "name": "F4",
                    "midi": 65,
                    "time": 392.6023579999872,
                    "velocity": 0.5118110236220472,
                    "duration": 0.09632049999999026
                },
                {
                    "name": "C5",
                    "midi": 72,
                    "time": 392.6986784999872,
                    "velocity": 0.47244094488188976,
                    "duration": 0.09632049999999026
                },
                {
                    "name": "D#4",
                    "midi": 63,
                    "time": 392.7949989999872,
                    "velocity": 0.5118110236220472,
                    "duration": 0.09632049999999026
                },
                {
                    "name": "C5",
                    "midi": 72,
                    "time": 392.89131949998716,
                    "velocity": 0.4251968503937008,
                    "duration": 0.09632049999999026
                },
                {
                    "name": "D4",
                    "midi": 62,
                    "time": 392.98763999998715,
                    "velocity": 0.3858267716535433,
                    "duration": 0.20066770833329883
                },
                {
                    "name": "C5",
                    "midi": 72,
                    "time": 393.08396049998714,
                    "velocity": 0.33858267716535434,
                    "duration": 0.09632049999999026
                },
                {
                    "name": "D#4",
                    "midi": 63,
                    "time": 393.18028099998713,
                    "velocity": 0.4094488188976378,
                    "duration": 0.19264099999998052
                },
                {
                    "name": "C5",
                    "midi": 72,
                    "time": 393.2766014999871,
                    "velocity": 0.3543307086614173,
                    "duration": 0.09632049999999026
                },
                {
                    "name": "D4",
                    "midi": 62,
                    "time": 393.3729219999871,
                    "velocity": 0.4330708661417323,
                    "duration": 0.20066770833329883
                },
                {
                    "name": "C5",
                    "midi": 72,
                    "time": 393.4692424999871,
                    "velocity": 0.4094488188976378,
                    "duration": 0.09632049999999026
                },
                {
                    "name": "D#4",
                    "midi": 63,
                    "time": 393.5655629999871,
                    "velocity": 0.4645669291338583,
                    "duration": 0.19264099999998052
                },
                {
                    "name": "C5",
                    "midi": 72,
                    "time": 393.6618834999871,
                    "velocity": 0.4645669291338583,
                    "duration": 0.09632049999999026
                },
                {
                    "name": "F4",
                    "midi": 65,
                    "time": 393.7582039999871,
                    "velocity": 0.5196850393700787,
                    "duration": 0.20066770833329883
                },
                {
                    "name": "C5",
                    "midi": 72,
                    "time": 393.85452449998706,
                    "velocity": 0.4330708661417323,
                    "duration": 0.09632049999999026
                },
                {
                    "name": "D#4",
                    "midi": 63,
                    "time": 393.95084499998705,
                    "velocity": 0.4094488188976378,
                    "duration": 0.19264099999998052
                },
                {
                    "name": "C5",
                    "midi": 72,
                    "time": 394.04716549998705,
                    "velocity": 0.33858267716535434,
                    "duration": 0.09632049999999026
                },
                {
                    "name": "D4",
                    "midi": 62,
                    "time": 394.14348599998704,
                    "velocity": 0.3937007874015748,
                    "duration": 0.20066770833329883
                },
                {
                    "name": "C5",
                    "midi": 72,
                    "time": 394.239806499987,
                    "velocity": 0.3464566929133858,
                    "duration": 0.09632049999999026
                },
                {
                    "name": "D#4",
                    "midi": 63,
                    "time": 394.336126999987,
                    "velocity": 0.4251968503937008,
                    "duration": 0.19264099999998052
                },
                {
                    "name": "C5",
                    "midi": 72,
                    "time": 394.432447499987,
                    "velocity": 0.3858267716535433,
                    "duration": 0.09632049999999026
                },
                {
                    "name": "D4",
                    "midi": 62,
                    "time": 394.528767999987,
                    "velocity": 0.44881889763779526,
                    "duration": 0.20066770833329883
                },
                {
                    "name": "C5",
                    "midi": 72,
                    "time": 394.625088499987,
                    "velocity": 0.41732283464566927,
                    "duration": 0.09632049999999026
                },
                {
                    "name": "D#4",
                    "midi": 63,
                    "time": 394.721408999987,
                    "velocity": 0.4645669291338583,
                    "duration": 0.19264099999998052
                },
                {
                    "name": "C5",
                    "midi": 72,
                    "time": 394.81772949998697,
                    "velocity": 0.4330708661417323,
                    "duration": 0.09632049999999026
                },
                {
                    "name": "F4",
                    "midi": 65,
                    "time": 394.91404999998696,
                    "velocity": 0.5039370078740157,
                    "duration": 0.20066770833329883
                },
                {
                    "name": "C5",
                    "midi": 72,
                    "time": 395.01037049998695,
                    "velocity": 0.4251968503937008,
                    "duration": 0.09632049999999026
                },
                {
                    "name": "D#4",
                    "midi": 63,
                    "time": 395.10669099998694,
                    "velocity": 0.4409448818897638,
                    "duration": 0.19264099999998052
                },
                {
                    "name": "C5",
                    "midi": 72,
                    "time": 395.2030114999869,
                    "velocity": 0.33858267716535434,
                    "duration": 0.09632049999999026
                },
                {
                    "name": "D4",
                    "midi": 62,
                    "time": 395.2993319999869,
                    "velocity": 0.47244094488188976,
                    "duration": 0.07224037499997848
                },
                {
                    "name": "F#4",
                    "midi": 66,
                    "time": 395.78093449998687,
                    "velocity": 0.4015748031496063,
                    "duration": 0.09632049999999026
                },
                {
                    "name": "C5",
                    "midi": 72,
                    "time": 395.87725499998686,
                    "velocity": 0.4330708661417323,
                    "duration": 0.07224037499997848
                },
                {
                    "name": "D4",
                    "midi": 62,
                    "time": 395.97357549998685,
                    "velocity": 0.3779527559055118,
                    "duration": 0.09632049999999026
                },
                {
                    "name": "F#4",
                    "midi": 66,
                    "time": 396.06989599998684,
                    "velocity": 0.4015748031496063,
                    "duration": 0.09632049999999026
                },
                {
                    "name": "A4",
                    "midi": 69,
                    "time": 396.16621649998683,
                    "velocity": 0.41732283464566927,
                    "duration": 0.09632049999999026
                },
                {
                    "name": "C5",
                    "midi": 72,
                    "time": 396.2625369999868,
                    "velocity": 0.4409448818897638,
                    "duration": 0.07224037499997848
                },
                {
                    "name": "F#5",
                    "midi": 78,
                    "time": 396.3588574999868,
                    "velocity": 0.41732283464566927,
                    "duration": 0.09632049999999026
                },
                {
                    "name": "C6",
                    "midi": 84,
                    "time": 396.4551779999868,
                    "velocity": 0.4881889763779528,
                    "duration": 0.09632049999999026
                },
                {
                    "name": "A#5",
                    "midi": 82,
                    "time": 396.5514984999868,
                    "velocity": 0.48031496062992124,
                    "duration": 0.09632049999999026
                },
                {
                    "name": "A5",
                    "midi": 81,
                    "time": 396.6478189999868,
                    "velocity": 0.47244094488188976,
                    "duration": 0.09632049999999026
                },
                {
                    "name": "G5",
                    "midi": 79,
                    "time": 396.7441394999868,
                    "velocity": 0.4645669291338583,
                    "duration": 0.09632049999999026
                },
                {
                    "name": "F#5",
                    "midi": 78,
                    "time": 396.84045999998676,
                    "velocity": 0.4566929133858268,
                    "duration": 0.09632049999999026
                },
                {
                    "name": "G5",
                    "midi": 79,
                    "time": 396.93678049998675,
                    "velocity": 0.4330708661417323,
                    "duration": 0.09632049999999026
                },
                {
                    "name": "F#5",
                    "midi": 78,
                    "time": 397.03310099998674,
                    "velocity": 0.4645669291338583,
                    "duration": 0.09632049999999026
                },
                {
                    "name": "G5",
                    "midi": 79,
                    "time": 397.12942149998673,
                    "velocity": 0.4330708661417323,
                    "duration": 0.09632049999999026
                },
                {
                    "name": "F#5",
                    "midi": 78,
                    "time": 397.2257419999867,
                    "velocity": 0.4566929133858268,
                    "duration": 0.09632049999999026
                },
                {
                    "name": "D#5",
                    "midi": 75,
                    "time": 397.3220624999867,
                    "velocity": 0.44881889763779526,
                    "duration": 0.09632049999999026
                },
                {
                    "name": "D5",
                    "midi": 74,
                    "time": 397.4183829999867,
                    "velocity": 0.4409448818897638,
                    "duration": 0.09632049999999026
                },
                {
                    "name": "C5",
                    "midi": 72,
                    "time": 397.5147034999867,
                    "velocity": 0.4330708661417323,
                    "duration": 0.09632049999999026
                },
                {
                    "name": "B4",
                    "midi": 71,
                    "time": 397.6110239999867,
                    "velocity": 0.3858267716535433,
                    "duration": 0.20066770833329883
                },
                {
                    "name": "F5",
                    "midi": 77,
                    "time": 397.7073444999867,
                    "velocity": 0.33858267716535434,
                    "duration": 0.09632049999999026
                },
                {
                    "name": "C5",
                    "midi": 72,
                    "time": 397.80366499998667,
                    "velocity": 0.4094488188976378,
                    "duration": 0.19264099999998052
                },
                {
                    "name": "F5",
                    "midi": 77,
                    "time": 397.89998549998666,
                    "velocity": 0.3543307086614173,
                    "duration": 0.09632049999999026
                },
                {
                    "name": "B4",
                    "midi": 71,
                    "time": 397.99630599998665,
                    "velocity": 0.4330708661417323,
                    "duration": 0.20066770833329883
                },
                {
                    "name": "F5",
                    "midi": 77,
                    "time": 398.09262649998664,
                    "velocity": 0.4094488188976378,
                    "duration": 0.09632049999999026
                },
                {
                    "name": "C5",
                    "midi": 72,
                    "time": 398.1889469999866,
                    "velocity": 0.4881889763779528,
                    "duration": 0.19264099999998052
                },
                {
                    "name": "F5",
                    "midi": 77,
                    "time": 398.2852674999866,
                    "velocity": 0.47244094488188976,
                    "duration": 0.09632049999999026
                },
                {
                    "name": "C#5",
                    "midi": 73,
                    "time": 398.3815879999866,
                    "velocity": 0.5275590551181102,
                    "duration": 0.20066770833329883
                },
                {
                    "name": "F5",
                    "midi": 77,
                    "time": 398.4779084999866,
                    "velocity": 0.4330708661417323,
                    "duration": 0.09632049999999026
                },
                {
                    "name": "C5",
                    "midi": 72,
                    "time": 398.5742289999866,
                    "velocity": 0.4094488188976378,
                    "duration": 0.19264099999998052
                },
                {
                    "name": "F5",
                    "midi": 77,
                    "time": 398.6705494999866,
                    "velocity": 0.33858267716535434,
                    "duration": 0.09632049999999026
                },
                {
                    "name": "B4",
                    "midi": 71,
                    "time": 398.76686999998657,
                    "velocity": 0.3937007874015748,
                    "duration": 0.20066770833329883
                },
                {
                    "name": "F5",
                    "midi": 77,
                    "time": 398.86319049998656,
                    "velocity": 0.3464566929133858,
                    "duration": 0.09632049999999026
                },
                {
                    "name": "C5",
                    "midi": 72,
                    "time": 398.95951099998655,
                    "velocity": 0.4251968503937008,
                    "duration": 0.19264099999998052
                },
                {
                    "name": "F5",
                    "midi": 77,
                    "time": 399.05583149998654,
                    "velocity": 0.3858267716535433,
                    "duration": 0.09632049999999026
                },
                {
                    "name": "B4",
                    "midi": 71,
                    "time": 399.15215199998653,
                    "velocity": 0.44881889763779526,
                    "duration": 0.20066770833329883
                },
                {
                    "name": "F5",
                    "midi": 77,
                    "time": 399.2484724999865,
                    "velocity": 0.41732283464566927,
                    "duration": 0.09632049999999026
                },
                {
                    "name": "C5",
                    "midi": 72,
                    "time": 399.3447929999865,
                    "velocity": 0.49606299212598426,
                    "duration": 0.19264099999998052
                },
                {
                    "name": "F5",
                    "midi": 77,
                    "time": 399.4411134999865,
                    "velocity": 0.4330708661417323,
                    "duration": 0.09632049999999026
                },
                {
                    "name": "C#5",
                    "midi": 73,
                    "time": 399.5374339999865,
                    "velocity": 0.5354330708661418,
                    "duration": 0.20066770833329883
                },
                {
                    "name": "F5",
                    "midi": 77,
                    "time": 399.6337544999865,
                    "velocity": 0.4251968503937008,
                    "duration": 0.09632049999999026
                },
                {
                    "name": "C5",
                    "midi": 72,
                    "time": 399.73007499998647,
                    "velocity": 0.4409448818897638,
                    "duration": 0.19264099999998052
                },
                {
                    "name": "F5",
                    "midi": 77,
                    "time": 399.82639549998646,
                    "velocity": 0.33858267716535434,
                    "duration": 0.09632049999999026
                },
                {
                    "name": "B4",
                    "midi": 71,
                    "time": 399.92271599998645,
                    "velocity": 0.47244094488188976,
                    "duration": 0.07224037499997848
                },
                {
                    "name": "B4",
                    "midi": 71,
                    "time": 400.4043184999864,
                    "velocity": 0.4015748031496063,
                    "duration": 0.09632049999999026
                },
                {
                    "name": "F5",
                    "midi": 77,
                    "time": 400.5006389999864,
                    "velocity": 0.4330708661417323,
                    "duration": 0.07224037499997848
                },
                {
                    "name": "G4",
                    "midi": 67,
                    "time": 400.5969594999864,
                    "velocity": 0.3779527559055118,
                    "duration": 0.09632049999999026
                },
                {
                    "name": "B4",
                    "midi": 71,
                    "time": 400.6932799999864,
                    "velocity": 0.4015748031496063,
                    "duration": 0.09632049999999026
                },
                {
                    "name": "D5",
                    "midi": 74,
                    "time": 400.78960049998636,
                    "velocity": 0.41732283464566927,
                    "duration": 0.09632049999999026
                },
                {
                    "name": "F5",
                    "midi": 77,
                    "time": 400.88592099998635,
                    "velocity": 0.4409448818897638,
                    "duration": 0.07224037499997848
                },
                {
                    "name": "B5",
                    "midi": 83,
                    "time": 400.98224149998634,
                    "velocity": 0.41732283464566927,
                    "duration": 0.09632049999999026
                },
                {
                    "name": "F6",
                    "midi": 89,
                    "time": 401.07856199998633,
                    "velocity": 0.4881889763779528,
                    "duration": 0.09632049999999026
                },
                {
                    "name": "D#6",
                    "midi": 87,
                    "time": 401.1748824999863,
                    "velocity": 0.48031496062992124,
                    "duration": 0.09632049999999026
                },
                {
                    "name": "D6",
                    "midi": 86,
                    "time": 401.2712029999863,
                    "velocity": 0.47244094488188976,
                    "duration": 0.09632049999999026
                },
                {
                    "name": "C6",
                    "midi": 84,
                    "time": 401.3675234999863,
                    "velocity": 0.4645669291338583,
                    "duration": 0.09632049999999026
                },
                {
                    "name": "B5",
                    "midi": 83,
                    "time": 401.4638439999863,
                    "velocity": 0.4566929133858268,
                    "duration": 0.09632049999999026
                },
                {
                    "name": "G#5",
                    "midi": 80,
                    "time": 401.5601644999863,
                    "velocity": 0.4330708661417323,
                    "duration": 0.09632049999999026
                },
                {
                    "name": "G5",
                    "midi": 79,
                    "time": 401.6564849999863,
                    "velocity": 0.4645669291338583,
                    "duration": 0.09632049999999026
                },
                {
                    "name": "F#5",
                    "midi": 78,
                    "time": 401.75280549998627,
                    "velocity": 0.4330708661417323,
                    "duration": 0.09632049999999026
                },
                {
                    "name": "G5",
                    "midi": 79,
                    "time": 401.84912599998626,
                    "velocity": 0.4566929133858268,
                    "duration": 0.09632049999999026
                },
                {
                    "name": "G#5",
                    "midi": 80,
                    "time": 401.94544649998625,
                    "velocity": 0.44881889763779526,
                    "duration": 0.09632049999999026
                },
                {
                    "name": "G5",
                    "midi": 79,
                    "time": 402.04176699998624,
                    "velocity": 0.4409448818897638,
                    "duration": 0.09632049999999026
                },
                {
                    "name": "F5",
                    "midi": 77,
                    "time": 402.1380874999862,
                    "velocity": 0.4330708661417323,
                    "duration": 0.09632049999999026
                },
                {
                    "name": "E5",
                    "midi": 76,
                    "time": 402.2344079999862,
                    "velocity": 0.3858267716535433,
                    "duration": 0.20066770833329883
                },
                {
                    "name": "G4",
                    "midi": 67,
                    "time": 402.3307284999862,
                    "velocity": 0.33858267716535434,
                    "duration": 0.09632049999999026
                },
                {
                    "name": "F5",
                    "midi": 77,
                    "time": 402.4270489999862,
                    "velocity": 0.4094488188976378,
                    "duration": 0.19264099999998052
                },
                {
                    "name": "G4",
                    "midi": 67,
                    "time": 402.5233694999862,
                    "velocity": 0.3543307086614173,
                    "duration": 0.09632049999999026
                },
                {
                    "name": "E5",
                    "midi": 76,
                    "time": 402.6196899999862,
                    "velocity": 0.4330708661417323,
                    "duration": 0.20066770833329883
                },
                {
                    "name": "G4",
                    "midi": 67,
                    "time": 402.71601049998617,
                    "velocity": 0.4094488188976378,
                    "duration": 0.09632049999999026
                },
                {
                    "name": "F5",
                    "midi": 77,
                    "time": 402.81233099998616,
                    "velocity": 0.4645669291338583,
                    "duration": 0.19264099999998052
                },
                {
                    "name": "G4",
                    "midi": 67,
                    "time": 402.90865149998615,
                    "velocity": 0.41732283464566927,
                    "duration": 0.09632049999999026
                },
                {
                    "name": "E5",
                    "midi": 76,
                    "time": 403.00497199998614,
                    "velocity": 0.4645669291338583,
                    "duration": 0.20066770833329883
                },
                {
                    "name": "G4",
                    "midi": 67,
                    "time": 403.10129249998613,
                    "velocity": 0.4330708661417323,
                    "duration": 0.09632049999999026
                },
                {
                    "name": "F5",
                    "midi": 77,
                    "time": 403.1976129999861,
                    "velocity": 0.4094488188976378,
                    "duration": 0.19264099999998052
                },
                {
                    "name": "G4",
                    "midi": 67,
                    "time": 403.2939334999861,
                    "velocity": 0.33858267716535434,
                    "duration": 0.09632049999999026
                },
                {
                    "name": "E5",
                    "midi": 76,
                    "time": 403.3902539999861,
                    "velocity": 0.3937007874015748,
                    "duration": 0.20066770833329883
                },
                {
                    "name": "G4",
                    "midi": 67,
                    "time": 403.4865744999861,
                    "velocity": 0.3464566929133858,
                    "duration": 0.09632049999999026
                },
                {
                    "name": "F5",
                    "midi": 77,
                    "time": 403.5828949999861,
                    "velocity": 0.4251968503937008,
                    "duration": 0.19264099999998052
                },
                {
                    "name": "G4",
                    "midi": 67,
                    "time": 403.67921549998607,
                    "velocity": 0.3858267716535433,
                    "duration": 0.09632049999999026
                },
                {
                    "name": "E5",
                    "midi": 76,
                    "time": 403.77553599998606,
                    "velocity": 0.44881889763779526,
                    "duration": 0.20066770833329883
                },
                {
                    "name": "G4",
                    "midi": 67,
                    "time": 403.87185649998605,
                    "velocity": 0.41732283464566927,
                    "duration": 0.09632049999999026
                },
                {
                    "name": "F5",
                    "midi": 77,
                    "time": 403.96817699998604,
                    "velocity": 0.48031496062992124,
                    "duration": 0.19264099999998052
                },
                {
                    "name": "G4",
                    "midi": 67,
                    "time": 404.06449749998603,
                    "velocity": 0.4330708661417323,
                    "duration": 0.09632049999999026
                },
                {
                    "name": "E5",
                    "midi": 76,
                    "time": 404.160817999986,
                    "velocity": 0.47244094488188976,
                    "duration": 0.20066770833329883
                },
                {
                    "name": "G4",
                    "midi": 67,
                    "time": 404.257138499986,
                    "velocity": 0.3937007874015748,
                    "duration": 0.09632049999999026
                },
                {
                    "name": "F5",
                    "midi": 77,
                    "time": 404.353458999986,
                    "velocity": 0.4409448818897638,
                    "duration": 0.19264099999998052
                },
                {
                    "name": "G4",
                    "midi": 67,
                    "time": 404.449779499986,
                    "velocity": 0.33858267716535434,
                    "duration": 0.09632049999999026
                },
                {
                    "name": "E5",
                    "midi": 76,
                    "time": 404.546099999986,
                    "velocity": 0.47244094488188976,
                    "duration": 0.07224037499997848
                },
                {
                    "name": "E4",
                    "midi": 64,
                    "time": 405.02770249998593,
                    "velocity": 0.4015748031496063,
                    "duration": 0.09632049999999026
                },
                {
                    "name": "A#4",
                    "midi": 70,
                    "time": 405.1240229999859,
                    "velocity": 0.4330708661417323,
                    "duration": 0.07224037499997848
                },
                {
                    "name": "C4",
                    "midi": 60,
                    "time": 405.2203434999859,
                    "velocity": 0.3779527559055118,
                    "duration": 0.09632049999999026
                },
                {
                    "name": "E4",
                    "midi": 64,
                    "time": 405.3166639999859,
                    "velocity": 0.4015748031496063,
                    "duration": 0.09632049999999026
                },
                {
                    "name": "G4",
                    "midi": 67,
                    "time": 405.4129844999859,
                    "velocity": 0.41732283464566927,
                    "duration": 0.09632049999999026
                },
                {
                    "name": "A#4",
                    "midi": 70,
                    "time": 405.5093049999859,
                    "velocity": 0.4409448818897638,
                    "duration": 0.07224037499997848
                },
                {
                    "name": "E5",
                    "midi": 76,
                    "time": 405.6056254999859,
                    "velocity": 0.41732283464566927,
                    "duration": 0.09632049999999026
                },
                {
                    "name": "A#5",
                    "midi": 82,
                    "time": 405.70194599998587,
                    "velocity": 0.4881889763779528,
                    "duration": 0.09632049999999026
                },
                {
                    "name": "A5",
                    "midi": 81,
                    "time": 405.79826649998586,
                    "velocity": 0.48031496062992124,
                    "duration": 0.09632049999999026
                },
                {
                    "name": "G5",
                    "midi": 79,
                    "time": 405.89458699998585,
                    "velocity": 0.47244094488188976,
                    "duration": 0.09632049999999026
                },
                {
                    "name": "F5",
                    "midi": 77,
                    "time": 405.99090749998584,
                    "velocity": 0.4645669291338583,
                    "duration": 0.09632049999999026
                },
                {
                    "name": "E5",
                    "midi": 76,
                    "time": 406.0872279999858,
                    "velocity": 0.4566929133858268,
                    "duration": 0.09632049999999026
                },
                {
                    "name": "D5",
                    "midi": 74,
                    "time": 406.1835484999858,
                    "velocity": 0.4330708661417323,
                    "duration": 0.09632049999999026
                },
                {
                    "name": "C5",
                    "midi": 72,
                    "time": 406.2798689999858,
                    "velocity": 0.4645669291338583,
                    "duration": 0.09632049999999026
                },
                {
                    "name": "D5",
                    "midi": 74,
                    "time": 406.3761894999858,
                    "velocity": 0.4330708661417323,
                    "duration": 0.09632049999999026
                },
                {
                    "name": "C5",
                    "midi": 72,
                    "time": 406.4725099999858,
                    "velocity": 0.4566929133858268,
                    "duration": 0.09632049999999026
                },
                {
                    "name": "A#4",
                    "midi": 70,
                    "time": 406.5688304999858,
                    "velocity": 0.44881889763779526,
                    "duration": 0.09632049999999026
                },
                {
                    "name": "A4",
                    "midi": 69,
                    "time": 406.66515099998577,
                    "velocity": 0.4409448818897638,
                    "duration": 0.09632049999999026
                },
                {
                    "name": "G4",
                    "midi": 67,
                    "time": 406.76147149998576,
                    "velocity": 0.4330708661417323,
                    "duration": 0.09632049999999026
                },
                {
                    "name": "F4",
                    "midi": 65,
                    "time": 406.85779199998575,
                    "velocity": 0.3858267716535433,
                    "duration": 0.20066770833329883
                },
                {
                    "name": "D#5",
                    "midi": 75,
                    "time": 406.95411249998574,
                    "velocity": 0.33858267716535434,
                    "duration": 0.09632049999999026
                },
                {
                    "name": "F#4",
                    "midi": 66,
                    "time": 407.05043299998573,
                    "velocity": 0.4094488188976378,
                    "duration": 0.19264099999998052
                },
                {
                    "name": "D#5",
                    "midi": 75,
                    "time": 407.1467534999857,
                    "velocity": 0.3543307086614173,
                    "duration": 0.09632049999999026
                },
                {
                    "name": "F4",
                    "midi": 65,
                    "time": 407.2430739999857,
                    "velocity": 0.4330708661417323,
                    "duration": 0.20066770833329883
                },
                {
                    "name": "D#5",
                    "midi": 75,
                    "time": 407.3393944999857,
                    "velocity": 0.4094488188976378,
                    "duration": 0.09632049999999026
                },
                {
                    "name": "F#4",
                    "midi": 66,
                    "time": 407.4357149999857,
                    "velocity": 0.4881889763779528,
                    "duration": 0.19264099999998052
                },
                {
                    "name": "D#5",
                    "midi": 75,
                    "time": 407.5320354999857,
                    "velocity": 0.4409448818897638,
                    "duration": 0.09632049999999026
                },
                {
                    "name": "G#4",
                    "midi": 68,
                    "time": 407.6283559999857,
                    "velocity": 0.5118110236220472,
                    "duration": 0.20066770833329883
                },
                {
                    "name": "D#5",
                    "midi": 75,
                    "time": 407.72467649998566,
                    "velocity": 0.4330708661417323,
                    "duration": 0.09632049999999026
                },
                {
                    "name": "F#4",
                    "midi": 66,
                    "time": 407.82099699998565,
                    "velocity": 0.4094488188976378,
                    "duration": 0.19264099999998052
                },
                {
                    "name": "D#5",
                    "midi": 75,
                    "time": 407.91731749998564,
                    "velocity": 0.33858267716535434,
                    "duration": 0.09632049999999026
                },
                {
                    "name": "F4",
                    "midi": 65,
                    "time": 408.01363799998563,
                    "velocity": 0.3937007874015748,
                    "duration": 0.20066770833329883
                },
                {
                    "name": "D#5",
                    "midi": 75,
                    "time": 408.1099584999856,
                    "velocity": 0.3464566929133858,
                    "duration": 0.09632049999999026
                },
                {
                    "name": "F#4",
                    "midi": 66,
                    "time": 408.2062789999856,
                    "velocity": 0.4251968503937008,
                    "duration": 0.19264099999998052
                },
                {
                    "name": "D#5",
                    "midi": 75,
                    "time": 408.3025994999856,
                    "velocity": 0.3858267716535433,
                    "duration": 0.09632049999999026
                },
                {
                    "name": "F4",
                    "midi": 65,
                    "time": 408.3989199999856,
                    "velocity": 0.44881889763779526,
                    "duration": 0.20066770833329883
                },
                {
                    "name": "D#5",
                    "midi": 75,
                    "time": 408.4952404999856,
                    "velocity": 0.41732283464566927,
                    "duration": 0.09632049999999026
                },
                {
                    "name": "F#4",
                    "midi": 66,
                    "time": 408.5915609999856,
                    "velocity": 0.49606299212598426,
                    "duration": 0.19264099999998052
                },
                {
                    "name": "D#5",
                    "midi": 75,
                    "time": 408.68788149998556,
                    "velocity": 0.4330708661417323,
                    "duration": 0.09632049999999026
                },
                {
                    "name": "G#4",
                    "midi": 68,
                    "time": 408.78420199998556,
                    "velocity": 0.5196850393700787,
                    "duration": 0.20066770833329883
                },
                {
                    "name": "D#5",
                    "midi": 75,
                    "time": 408.88052249998555,
                    "velocity": 0.4251968503937008,
                    "duration": 0.09632049999999026
                },
                {
                    "name": "F#4",
                    "midi": 66,
                    "time": 408.97684299998554,
                    "velocity": 0.4409448818897638,
                    "duration": 0.19264099999998052
                },
                {
                    "name": "D#5",
                    "midi": 75,
                    "time": 409.0731634999855,
                    "velocity": 0.33858267716535434,
                    "duration": 0.09632049999999026
                },
                {
                    "name": "F4",
                    "midi": 65,
                    "time": 409.1694839999855,
                    "velocity": 0.47244094488188976,
                    "duration": 0.07224037499997848
                },
                {
                    "name": "A4",
                    "midi": 69,
                    "time": 409.65108649998547,
                    "velocity": 0.4015748031496063,
                    "duration": 0.09632049999999026
                },
                {
                    "name": "D#5",
                    "midi": 75,
                    "time": 409.74740699998546,
                    "velocity": 0.4330708661417323,
                    "duration": 0.07224037499997848
                },
                {
                    "name": "F4",
                    "midi": 65,
                    "time": 409.84372749998545,
                    "velocity": 0.3779527559055118,
                    "duration": 0.09632049999999026
                },
                {
                    "name": "A4",
                    "midi": 69,
                    "time": 409.94004799998544,
                    "velocity": 0.4015748031496063,
                    "duration": 0.09632049999999026
                },
                {
                    "name": "C5",
                    "midi": 72,
                    "time": 410.03636849998543,
                    "velocity": 0.41732283464566927,
                    "duration": 0.09632049999999026
                },
                {
                    "name": "D#5",
                    "midi": 75,
                    "time": 410.1326889999854,
                    "velocity": 0.4409448818897638,
                    "duration": 0.07224037499997848
                },
                {
                    "name": "A5",
                    "midi": 81,
                    "time": 410.2290094999854,
                    "velocity": 0.41732283464566927,
                    "duration": 0.09632049999999026
                },
                {
                    "name": "D#6",
                    "midi": 87,
                    "time": 410.3253299999854,
                    "velocity": 0.4881889763779528,
                    "duration": 0.09632049999999026
                },
                {
                    "name": "D6",
                    "midi": 86,
                    "time": 410.4216504999854,
                    "velocity": 0.48031496062992124,
                    "duration": 0.09632049999999026
                },
                {
                    "name": "C6",
                    "midi": 84,
                    "time": 410.5179709999854,
                    "velocity": 0.47244094488188976,
                    "duration": 0.09632049999999026
                },
                {
                    "name": "A#5",
                    "midi": 82,
                    "time": 410.61429149998537,
                    "velocity": 0.4645669291338583,
                    "duration": 0.09632049999999026
                },
                {
                    "name": "A5",
                    "midi": 81,
                    "time": 410.71061199998536,
                    "velocity": 0.4566929133858268,
                    "duration": 0.09632049999999026
                },
                {
                    "name": "G5",
                    "midi": 79,
                    "time": 410.80693249998535,
                    "velocity": 0.4330708661417323,
                    "duration": 0.09632049999999026
                },
                {
                    "name": "F5",
                    "midi": 77,
                    "time": 410.90325299998534,
                    "velocity": 0.4645669291338583,
                    "duration": 0.09632049999999026
                },
                {
                    "name": "G5",
                    "midi": 79,
                    "time": 410.99957349998533,
                    "velocity": 0.4330708661417323,
                    "duration": 0.09632049999999026
                },
                {
                    "name": "F5",
                    "midi": 77,
                    "time": 411.0958939999853,
                    "velocity": 0.4409448818897638,
                    "duration": 0.09632049999999026
                },
                {
                    "name": "D#5",
                    "midi": 75,
                    "time": 411.1922144999853,
                    "velocity": 0.4251968503937008,
                    "duration": 0.09632049999999026
                },
                {
                    "name": "D5",
                    "midi": 74,
                    "time": 411.2885349999853,
                    "velocity": 0.4094488188976378,
                    "duration": 0.09632049999999026
                },
                {
                    "name": "C5",
                    "midi": 72,
                    "time": 411.3848554999853,
                    "velocity": 0.3937007874015748,
                    "duration": 0.09632049999999026
                },
                {
                    "name": "D5",
                    "midi": 74,
                    "time": 411.4811759999853,
                    "velocity": 0.4251968503937008,
                    "duration": 0.19264099999998052
                },
                {
                    "name": "D5",
                    "midi": 74,
                    "time": 411.86645799998524,
                    "velocity": 0.33070866141732286,
                    "duration": 0.19264099999998052
                },
                {
                    "name": "C5",
                    "midi": 72,
                    "time": 412.0590989999852,
                    "velocity": 0.36220472440944884,
                    "duration": 0.19264099999998052
                },
                {
                    "name": "C5",
                    "midi": 72,
                    "time": 412.4443809999852,
                    "velocity": 0.3543307086614173,
                    "duration": 0.19264099999998052
                },
                {
                    "name": "D#5",
                    "midi": 75,
                    "time": 412.63702199998517,
                    "velocity": 0.4094488188976378,
                    "duration": 0.9632050000000163
                },
                {
                    "name": "D5",
                    "midi": 74,
                    "time": 413.6002269999852,
                    "velocity": 0.33070866141732286,
                    "duration": 0.19264099999998052
                },
                {
                    "name": "D#5",
                    "midi": 75,
                    "time": 413.79286799998516,
                    "velocity": 0.36220472440944884,
                    "duration": 0.19264099999998052
                },
                {
                    "name": "D#5",
                    "midi": 75,
                    "time": 414.1781499999851,
                    "velocity": 0.33070866141732286,
                    "duration": 0.19264099999998052
                },
                {
                    "name": "D5",
                    "midi": 74,
                    "time": 414.3707909999851,
                    "velocity": 0.33858267716535434,
                    "duration": 0.19264099999998052
                },
                {
                    "name": "D5",
                    "midi": 74,
                    "time": 414.75607299998507,
                    "velocity": 0.33858267716535434,
                    "duration": 0.19264099999998052
                },
                {
                    "name": "G5",
                    "midi": 79,
                    "time": 414.94871399998505,
                    "velocity": 0.4094488188976378,
                    "duration": 0.9632050000000163
                },
                {
                    "name": "F5",
                    "midi": 77,
                    "time": 415.91191899998506,
                    "velocity": 0.3464566929133858,
                    "duration": 0.19264099999998052
                },
                {
                    "name": "F5",
                    "midi": 77,
                    "time": 416.10455999998504,
                    "velocity": 0.3700787401574803,
                    "duration": 0.19264099999998052
                },
                {
                    "name": "E5",
                    "midi": 76,
                    "time": 416.297200999985,
                    "velocity": 0.3464566929133858,
                    "duration": 0.19264099999998052
                },
                {
                    "name": "C5",
                    "midi": 72,
                    "time": 416.489841999985,
                    "velocity": 0.3779527559055118,
                    "duration": 0.3852820000000179
                },
                {
                    "name": "D5",
                    "midi": 74,
                    "time": 416.875123999985,
                    "velocity": 0.3543307086614173,
                    "duration": 0.19264099999998052
                },
                {
                    "name": "D#5",
                    "midi": 75,
                    "time": 417.067764999985,
                    "velocity": 0.3543307086614173,
                    "duration": 0.1894303166666873
                },
                {
                    "name": "D#5",
                    "midi": 75,
                    "time": 417.26040599998504,
                    "velocity": 0.3543307086614173,
                    "duration": 0.19264099999998052
                },
                {
                    "name": "D5",
                    "midi": 74,
                    "time": 417.453046999985,
                    "velocity": 0.33070866141732286,
                    "duration": 0.19264099999998052
                },
                {
                    "name": "A#4",
                    "midi": 70,
                    "time": 417.645687999985,
                    "velocity": 0.36220472440944884,
                    "duration": 0.3852820000000179
                },
                {
                    "name": "C5",
                    "midi": 72,
                    "time": 418.030969999985,
                    "velocity": 0.36220472440944884,
                    "duration": 0.19264099999998052
                },
                {
                    "name": "C#5",
                    "midi": 73,
                    "time": 418.223610999985,
                    "velocity": 0.4015748031496063,
                    "duration": 0.3852820000000179
                },
                {
                    "name": "C5",
                    "midi": 72,
                    "time": 418.608892999985,
                    "velocity": 0.4015748031496063,
                    "duration": 0.19264099999998052
                },
                {
                    "name": "C#5",
                    "midi": 73,
                    "time": 418.801533999985,
                    "velocity": 0.4330708661417323,
                    "duration": 0.3852820000000179
                },
                {
                    "name": "C5",
                    "midi": 72,
                    "time": 419.186815999985,
                    "velocity": 0.3937007874015748,
                    "duration": 0.19264099999998052
                },
                {
                    "name": "A#4",
                    "midi": 70,
                    "time": 419.379456999985,
                    "velocity": 0.4015748031496063,
                    "duration": 0.19264099999998052
                },
                {
                    "name": "A4",
                    "midi": 69,
                    "time": 419.572097999985,
                    "velocity": 0.44881889763779526,
                    "duration": 0.5779229999999984
                },
                {
                    "name": "C5",
                    "midi": 72,
                    "time": 420.150020999985,
                    "velocity": 0.4330708661417323,
                    "duration": 0.19264099999998052
                },
                {
                    "name": "D5",
                    "midi": 74,
                    "time": 420.727943999985,
                    "velocity": 0.5905511811023622,
                    "duration": 0.09632049999999026
                },
                {
                    "name": "A#4",
                    "midi": 70,
                    "time": 420.82426449998496,
                    "velocity": 0.44881889763779526,
                    "duration": 0.09632049999999026
                },
                {
                    "name": "F4",
                    "midi": 65,
                    "time": 420.92058499998495,
                    "velocity": 0.44881889763779526,
                    "duration": 0.09632049999999026
                },
                {
                    "name": "A#4",
                    "midi": 70,
                    "time": 421.01690549998494,
                    "velocity": 0.44881889763779526,
                    "duration": 0.09632049999999026
                },
                {
                    "name": "D5",
                    "midi": 74,
                    "time": 421.11322599998493,
                    "velocity": 0.44881889763779526,
                    "duration": 0.09632049999999026
                },
                {
                    "name": "A#4",
                    "midi": 70,
                    "time": 421.2095464999849,
                    "velocity": 0.44881889763779526,
                    "duration": 0.09632049999999026
                },
                {
                    "name": "C5",
                    "midi": 72,
                    "time": 421.3058669999849,
                    "velocity": 0.5748031496062992,
                    "duration": 0.09632049999999026
                },
                {
                    "name": "A4",
                    "midi": 69,
                    "time": 421.4021874999849,
                    "velocity": 0.4409448818897638,
                    "duration": 0.09632049999999026
                },
                {
                    "name": "F4",
                    "midi": 65,
                    "time": 421.4985079999849,
                    "velocity": 0.4409448818897638,
                    "duration": 0.09632049999999026
                },
                {
                    "name": "A4",
                    "midi": 69,
                    "time": 421.5948284999849,
                    "velocity": 0.4409448818897638,
                    "duration": 0.09632049999999026
                },
                {
                    "name": "C5",
                    "midi": 72,
                    "time": 421.6911489999849,
                    "velocity": 0.4409448818897638,
                    "duration": 0.09632049999999026
                },
                {
                    "name": "A4",
                    "midi": 69,
                    "time": 421.78746949998487,
                    "velocity": 0.4409448818897638,
                    "duration": 0.09632049999999026
                },
                {
                    "name": "D#5",
                    "midi": 75,
                    "time": 421.88378999998486,
                    "velocity": 0.5984251968503937,
                    "duration": 0.09632049999999026
                },
                {
                    "name": "A#4",
                    "midi": 70,
                    "time": 421.98011049998485,
                    "velocity": 0.4330708661417323,
                    "duration": 0.09632049999999026
                },
                {
                    "name": "G4",
                    "midi": 67,
                    "time": 422.07643099998484,
                    "velocity": 0.4330708661417323,
                    "duration": 0.09632049999999026
                },
                {
                    "name": "A#4",
                    "midi": 70,
                    "time": 422.1727514999848,
                    "velocity": 0.4330708661417323,
                    "duration": 0.09632049999999026
                },
                {
                    "name": "D#5",
                    "midi": 75,
                    "time": 422.2690719999848,
                    "velocity": 0.47244094488188976,
                    "duration": 0.09632049999999026
                },
                {
                    "name": "A#4",
                    "midi": 70,
                    "time": 422.3653924999848,
                    "velocity": 0.41732283464566927,
                    "duration": 0.09632049999999026
                },
                {
                    "name": "D#5",
                    "midi": 75,
                    "time": 422.4617129999848,
                    "velocity": 0.4645669291338583,
                    "duration": 0.09632049999999026
                },
                {
                    "name": "A#4",
                    "midi": 70,
                    "time": 422.5580334999848,
                    "velocity": 0.4094488188976378,
                    "duration": 0.09632049999999026
                },
                {
                    "name": "D#5",
                    "midi": 75,
                    "time": 422.6543539999848,
                    "velocity": 0.47244094488188976,
                    "duration": 0.09632049999999026
                },
                {
                    "name": "A#4",
                    "midi": 70,
                    "time": 422.75067449998477,
                    "velocity": 0.3779527559055118,
                    "duration": 0.09632049999999026
                },
                {
                    "name": "D5",
                    "midi": 74,
                    "time": 422.84699499998476,
                    "velocity": 0.5826771653543307,
                    "duration": 0.09632049999999026
                },
                {
                    "name": "A4",
                    "midi": 69,
                    "time": 422.94331549998475,
                    "velocity": 0.4015748031496063,
                    "duration": 0.09632049999999026
                },
                {
                    "name": "D#5",
                    "midi": 75,
                    "time": 423.03963599998474,
                    "velocity": 0.6141732283464567,
                    "duration": 0.09632049999999026
                },
                {
                    "name": "A#4",
                    "midi": 70,
                    "time": 423.13595649998473,
                    "velocity": 0.41732283464566927,
                    "duration": 0.09632049999999026
                },
                {
                    "name": "G4",
                    "midi": 67,
                    "time": 423.2322769999847,
                    "velocity": 0.4251968503937008,
                    "duration": 0.09632049999999026
                },
                {
                    "name": "A#4",
                    "midi": 70,
                    "time": 423.3285974999847,
                    "velocity": 0.4251968503937008,
                    "duration": 0.09632049999999026
                },
                {
                    "name": "D#5",
                    "midi": 75,
                    "time": 423.4249179999847,
                    "velocity": 0.47244094488188976,
                    "duration": 0.09632049999999026
                },
                {
                    "name": "A#4",
                    "midi": 70,
                    "time": 423.5212384999847,
                    "velocity": 0.4251968503937008,
                    "duration": 0.09632049999999026
                },
                {
                    "name": "D5",
                    "midi": 74,
                    "time": 423.6175589999847,
                    "velocity": 0.5039370078740157,
                    "duration": 0.09632049999999026
                },
                {
                    "name": "A4",
                    "midi": 69,
                    "time": 423.71387949998467,
                    "velocity": 0.4094488188976378,
                    "duration": 0.09632049999999026
                },
                {
                    "name": "F4",
                    "midi": 65,
                    "time": 423.81019999998466,
                    "velocity": 0.41732283464566927,
                    "duration": 0.09632049999999026
                },
                {
                    "name": "A4",
                    "midi": 69,
                    "time": 423.90652049998465,
                    "velocity": 0.41732283464566927,
                    "duration": 0.09632049999999026
                },
                {
                    "name": "D5",
                    "midi": 74,
                    "time": 424.00284099998464,
                    "velocity": 0.5748031496062992,
                    "duration": 0.09632049999999026
                },
                {
                    "name": "A4",
                    "midi": 69,
                    "time": 424.09916149998463,
                    "velocity": 0.44881889763779526,
                    "duration": 0.09632049999999026
                },
                {
                    "name": "G5",
                    "midi": 79,
                    "time": 424.1954819999846,
                    "velocity": 0.5905511811023622,
                    "duration": 0.09632049999999026
                },
                {
                    "name": "A#4",
                    "midi": 70,
                    "time": 424.2918024999846,
                    "velocity": 0.4094488188976378,
                    "duration": 0.09632049999999026
                },
                {
                    "name": "G4",
                    "midi": 67,
                    "time": 424.3881229999846,
                    "velocity": 0.4094488188976378,
                    "duration": 0.09632049999999026
                },
                {
                    "name": "A#4",
                    "midi": 70,
                    "time": 424.4844434999846,
                    "velocity": 0.4094488188976378,
                    "duration": 0.09632049999999026
                },
                {
                    "name": "G5",
                    "midi": 79,
                    "time": 424.5807639999846,
                    "velocity": 0.48031496062992124,
                    "duration": 0.09632049999999026
                },
                {
                    "name": "A#4",
                    "midi": 70,
                    "time": 424.6770844999846,
                    "velocity": 0.4015748031496063,
                    "duration": 0.09632049999999026
                },
                {
                    "name": "G5",
                    "midi": 79,
                    "time": 424.77340499998456,
                    "velocity": 0.49606299212598426,
                    "duration": 0.09632049999999026
                },
                {
                    "name": "A#4",
                    "midi": 70,
                    "time": 424.86972549998455,
                    "velocity": 0.4094488188976378,
                    "duration": 0.09632049999999026
                },
                {
                    "name": "G5",
                    "midi": 79,
                    "time": 424.96604599998454,
                    "velocity": 0.5118110236220472,
                    "duration": 0.09632049999999026
                },
                {
                    "name": "A#4",
                    "midi": 70,
                    "time": 425.06236649998453,
                    "velocity": 0.41732283464566927,
                    "duration": 0.09632049999999026
                },
                {
                    "name": "F5",
                    "midi": 77,
                    "time": 425.1586869999845,
                    "velocity": 0.4015748031496063,
                    "duration": 0.09632049999999026
                },
                {
                    "name": "A#4",
                    "midi": 70,
                    "time": 425.2550074999845,
                    "velocity": 0.3543307086614173,
                    "duration": 0.09632049999999026
                },
                {
                    "name": "G4",
                    "midi": 67,
                    "time": 425.64028949998453,
                    "velocity": 0.4015748031496063,
                    "duration": 0.09632049999999026
                },
                {
                    "name": "A#4",
                    "midi": 70,
                    "time": 425.7366099999845,
                    "velocity": 0.3464566929133858,
                    "duration": 0.09632049999999026
                },
                {
                    "name": "E5",
                    "midi": 76,
                    "time": 425.8329304999845,
                    "velocity": 0.3464566929133858,
                    "duration": 0.09632049999999026
                },
                {
                    "name": "A4",
                    "midi": 69,
                    "time": 426.21821249998453,
                    "velocity": 0.4015748031496063,
                    "duration": 0.09632049999999026
                },
                {
                    "name": "C5",
                    "midi": 72,
                    "time": 426.3145329999845,
                    "velocity": 0.36220472440944884,
                    "duration": 0.09632049999999026
                },
                {
                    "name": "D#5",
                    "midi": 75,
                    "time": 426.4108534999845,
                    "velocity": 0.36220472440944884,
                    "duration": 0.09632049999999026
                },
                {
                    "name": "G4",
                    "midi": 67,
                    "time": 426.79613549998453,
                    "velocity": 0.4015748031496063,
                    "duration": 0.09632049999999026
                },
                {
                    "name": "A#4",
                    "midi": 70,
                    "time": 426.8924559999845,
                    "velocity": 0.3464566929133858,
                    "duration": 0.09632049999999026
                },
                {
                    "name": "D5",
                    "midi": 74,
                    "time": 426.9887764999845,
                    "velocity": 0.3464566929133858,
                    "duration": 0.09632049999999026
                },
                {
                    "name": "D#4",
                    "midi": 63,
                    "time": 427.3740584999845,
                    "velocity": 0.44881889763779526,
                    "duration": 0.09632049999999026
                },
                {
                    "name": "G4",
                    "midi": 67,
                    "time": 427.4703789999845,
                    "velocity": 0.3779527559055118,
                    "duration": 0.09632049999999026
                },
                {
                    "name": "C5",
                    "midi": 72,
                    "time": 427.5666994999845,
                    "velocity": 0.3858267716535433,
                    "duration": 0.09632049999999026
                },
                {
                    "name": "D4",
                    "midi": 62,
                    "time": 427.9519814999845,
                    "velocity": 0.4409448818897638,
                    "duration": 0.09632049999999026
                },
                {
                    "name": "F4",
                    "midi": 65,
                    "time": 428.0483019999845,
                    "velocity": 0.3779527559055118,
                    "duration": 0.09632049999999026
                },
                {
                    "name": "A#4",
                    "midi": 70,
                    "time": 428.1446224999845,
                    "velocity": 0.3779527559055118,
                    "duration": 0.09632049999999026
                },
                {
                    "name": "D#4",
                    "midi": 63,
                    "time": 428.5299044999845,
                    "velocity": 0.4645669291338583,
                    "duration": 0.09632049999999026
                },
                {
                    "name": "F4",
                    "midi": 65,
                    "time": 428.6262249999845,
                    "velocity": 0.4094488188976378,
                    "duration": 0.09632049999999026
                },
                {
                    "name": "A4",
                    "midi": 69,
                    "time": 428.7225454999845,
                    "velocity": 0.4094488188976378,
                    "duration": 0.09632049999999026
                },
                {
                    "name": "D4",
                    "midi": 62,
                    "time": 430.7452759999845,
                    "velocity": 0.4015748031496063,
                    "duration": 0.19264099999998052
                },
                {
                    "name": "F4",
                    "midi": 65,
                    "time": 430.93791699998445,
                    "velocity": 0.4409448818897638,
                    "duration": 0.19264099999998052
                },
                {
                    "name": "F#4",
                    "midi": 66,
                    "time": 431.13055799998443,
                    "velocity": 0.44881889763779526,
                    "duration": 0.19264099999998052
                },
                {
                    "name": "A4",
                    "midi": 69,
                    "time": 431.3231989999844,
                    "velocity": 0.4566929133858268,
                    "duration": 0.19264099999998052
                },
                {
                    "name": "C5",
                    "midi": 72,
                    "time": 431.5158399999844,
                    "velocity": 0.47244094488188976,
                    "duration": 0.19264099999998052
                },
                {
                    "name": "D#5",
                    "midi": 75,
                    "time": 431.7084809999844,
                    "velocity": 0.48031496062992124,
                    "duration": 0.19264099999998052
                },
                {
                    "name": "F#5",
                    "midi": 78,
                    "time": 431.90112199998435,
                    "velocity": 0.49606299212598426,
                    "duration": 0.19264099999998052
                },
                {
                    "name": "A5",
                    "midi": 81,
                    "time": 432.09376299998434,
                    "velocity": 0.5039370078740157,
                    "duration": 0.19264099999998052
                },
                {
                    "name": "C6",
                    "midi": 84,
                    "time": 432.2864039999843,
                    "velocity": 0.5196850393700787,
                    "duration": 0.19264099999998052
                },
                {
                    "name": "A5",
                    "midi": 81,
                    "time": 432.4790449999843,
                    "velocity": 0.5039370078740157,
                    "duration": 0.19264099999998052
                },
                {
                    "name": "F#5",
                    "midi": 78,
                    "time": 432.6716859999843,
                    "velocity": 0.4881889763779528,
                    "duration": 0.19264099999998052
                },
                {
                    "name": "D#5",
                    "midi": 75,
                    "time": 432.86432699998426,
                    "velocity": 0.47244094488188976,
                    "duration": 0.19264099999998052
                },
                {
                    "name": "D5",
                    "midi": 74,
                    "time": 433.05696799998424,
                    "velocity": 0.4566929133858268,
                    "duration": 0.19264099999998052
                },
                {
                    "name": "F#4",
                    "midi": 66,
                    "time": 433.2496089999842,
                    "velocity": 0.44881889763779526,
                    "duration": 0.19264099999998052
                },
                {
                    "name": "A4",
                    "midi": 69,
                    "time": 433.4422499999842,
                    "velocity": 0.4330708661417323,
                    "duration": 0.19264099999998052
                },
                {
                    "name": "G4",
                    "midi": 67,
                    "time": 433.6348909999842,
                    "velocity": 0.3543307086614173,
                    "duration": 0.19264099999998052
                },
                {
                    "name": "C#5",
                    "midi": 73,
                    "time": 433.82753199998416,
                    "velocity": 0.3543307086614173,
                    "duration": 0.19264099999998052
                },
                {
                    "name": "D5",
                    "midi": 74,
                    "time": 434.02017299998414,
                    "velocity": 0.3937007874015748,
                    "duration": 0.19264099999998052
                },
                {
                    "name": "F#5",
                    "midi": 78,
                    "time": 434.2128139999841,
                    "velocity": 0.3700787401574803,
                    "duration": 0.19264099999998052
                },
                {
                    "name": "G5",
                    "midi": 79,
                    "time": 434.4054549999841,
                    "velocity": 0.3700787401574803,
                    "duration": 0.19264099999998052
                },
                {
                    "name": "C#6",
                    "midi": 85,
                    "time": 434.5980959999841,
                    "velocity": 0.4094488188976378,
                    "duration": 0.19264099999998052
                },
                {
                    "name": "D6",
                    "midi": 86,
                    "time": 434.79073699998406,
                    "velocity": 0.3543307086614173,
                    "duration": 0.19264099999998052
                },
                {
                    "name": "A5",
                    "midi": 81,
                    "time": 434.98337799998404,
                    "velocity": 0.3228346456692913,
                    "duration": 0.19264099999998052
                },
                {
                    "name": "A#5",
                    "midi": 82,
                    "time": 435.176018999984,
                    "velocity": 0.3858267716535433,
                    "duration": 0.19264099999998052
                },
                {
                    "name": "F#5",
                    "midi": 78,
                    "time": 435.368659999984,
                    "velocity": 0.33858267716535434,
                    "duration": 0.19264099999998052
                },
                {
                    "name": "G5",
                    "midi": 79,
                    "time": 435.561300999984,
                    "velocity": 0.33858267716535434,
                    "duration": 0.19264099999998052
                },
                {
                    "name": "F5",
                    "midi": 77,
                    "time": 435.94658299998395,
                    "velocity": 0.30708661417322836,
                    "duration": 0.19264099999998052
                },
                {
                    "name": "E5",
                    "midi": 76,
                    "time": 436.1392239999839,
                    "velocity": 0.2755905511811024,
                    "duration": 0.19264099999998052
                },
                {
                    "name": "E5",
                    "midi": 76,
                    "time": 436.5245059999839,
                    "velocity": 0.2755905511811024,
                    "duration": 0.19264099999998052
                },
                {
                    "name": "C#6",
                    "midi": 85,
                    "time": 436.71714699998387,
                    "velocity": 0.3228346456692913,
                    "duration": 0.19264099999998052
                },
                {
                    "name": "C#6",
                    "midi": 85,
                    "time": 437.10242899998383,
                    "velocity": 0.3228346456692913,
                    "duration": 0.19264099999998052
                },
                {
                    "name": "C6",
                    "midi": 84,
                    "time": 437.2950699999838,
                    "velocity": 0.33858267716535434,
                    "duration": 0.19264099999998052
                },
                {
                    "name": "C6",
                    "midi": 84,
                    "time": 437.68035199998377,
                    "velocity": 0.33858267716535434,
                    "duration": 0.19264099999998052
                },
                {
                    "name": "E5",
                    "midi": 76,
                    "time": 437.87299299998375,
                    "velocity": 0.3228346456692913,
                    "duration": 0.19264099999998052
                },
                {
                    "name": "E5",
                    "midi": 76,
                    "time": 438.2582749999837,
                    "velocity": 0.4409448818897638,
                    "duration": 0.19264099999998052
                },
                {
                    "name": "F5",
                    "midi": 77,
                    "time": 438.4509159999837,
                    "velocity": 0.41732283464566927,
                    "duration": 0.19264099999998052
                },
                {
                    "name": "C6",
                    "midi": 84,
                    "time": 438.6435569999837,
                    "velocity": 0.49606299212598426,
                    "duration": 0.19264099999998052
                },
                {
                    "name": "G5",
                    "midi": 79,
                    "time": 438.83619799998365,
                    "velocity": 0.4409448818897638,
                    "duration": 0.19264099999998052
                },
                {
                    "name": "A#5",
                    "midi": 82,
                    "time": 439.02883899998363,
                    "velocity": 0.4409448818897638,
                    "duration": 0.19264099999998052
                },
                {
                    "name": "G#5",
                    "midi": 80,
                    "time": 439.2214799999836,
                    "velocity": 0.49606299212598426,
                    "duration": 0.19264099999998052
                },
                {
                    "name": "E5",
                    "midi": 76,
                    "time": 439.4141209999836,
                    "velocity": 0.4409448818897638,
                    "duration": 0.19264099999998052
                },
                {
                    "name": "G5",
                    "midi": 79,
                    "time": 439.6067619999836,
                    "velocity": 0.4409448818897638,
                    "duration": 0.19264099999998052
                },
                {
                    "name": "F5",
                    "midi": 77,
                    "time": 439.79940299998356,
                    "velocity": 0.47244094488188976,
                    "duration": 0.19264099999998052
                },
                {
                    "name": "D#5",
                    "midi": 75,
                    "time": 439.99204399998354,
                    "velocity": 0.4094488188976378,
                    "duration": 0.19264099999998052
                },
                {
                    "name": "C#5",
                    "midi": 73,
                    "time": 440.1846849999835,
                    "velocity": 0.4094488188976378,
                    "duration": 0.19264099999998052
                },
                {
                    "name": "C5",
                    "midi": 72,
                    "time": 440.3773259999835,
                    "velocity": 0.4015748031496063,
                    "duration": 0.5779229999999984
                },
                {
                    "name": "B4",
                    "midi": 71,
                    "time": 440.9552489999835,
                    "velocity": 0.3543307086614173,
                    "duration": 0.5779229999999984
                },
                {
                    "name": "F5",
                    "midi": 77,
                    "time": 441.5331719999835,
                    "velocity": 0.3937007874015748,
                    "duration": 0.5779229999999984
                },
                {
                    "name": "B4",
                    "midi": 71,
                    "time": 442.1110949999835,
                    "velocity": 0.3543307086614173,
                    "duration": 0.5779229999999984
                },
                {
                    "name": "E4",
                    "midi": 64,
                    "time": 442.8816589999835,
                    "velocity": 0.4330708661417323,
                    "duration": 0.19264099999998052
                },
                {
                    "name": "C5",
                    "midi": 72,
                    "time": 442.8816589999835,
                    "velocity": 0.5196850393700787,
                    "duration": 0.19264099999998052
                },
                {
                    "name": "G4",
                    "midi": 67,
                    "time": 442.8816589999835,
                    "velocity": 0.4330708661417323,
                    "duration": 0.19264099999998052
                },
                {
                    "name": "B4",
                    "midi": 71,
                    "time": 443.07429999998345,
                    "velocity": 0.47244094488188976,
                    "duration": 0.09632049999999026
                },
                {
                    "name": "F4",
                    "midi": 65,
                    "time": 443.07429999998345,
                    "velocity": 0.47244094488188976,
                    "duration": 0.09632049999999026
                },
                {
                    "name": "D5",
                    "midi": 74,
                    "time": 443.07429999998345,
                    "velocity": 0.5748031496062992,
                    "duration": 0.09632049999999026
                },
                {
                    "name": "D5",
                    "midi": 74,
                    "time": 443.45958199998347,
                    "velocity": 0.5196850393700787,
                    "duration": 0.19264099999998052
                },
                {
                    "name": "F4",
                    "midi": 65,
                    "time": 443.45958199998347,
                    "velocity": 0.4330708661417323,
                    "duration": 0.19264099999998052
                },
                {
                    "name": "B4",
                    "midi": 71,
                    "time": 443.45958199998347,
                    "velocity": 0.4330708661417323,
                    "duration": 0.19264099999998052
                },
                {
                    "name": "A#4",
                    "midi": 70,
                    "time": 443.65222299998345,
                    "velocity": 0.48031496062992124,
                    "duration": 0.09632049999999026
                },
                {
                    "name": "G4",
                    "midi": 67,
                    "time": 443.65222299998345,
                    "velocity": 0.48031496062992124,
                    "duration": 0.09632049999999026
                },
                {
                    "name": "E5",
                    "midi": 76,
                    "time": 443.65222299998345,
                    "velocity": 0.5826771653543307,
                    "duration": 0.09632049999999026
                },
                {
                    "name": "G4",
                    "midi": 67,
                    "time": 444.03750499998347,
                    "velocity": 0.4330708661417323,
                    "duration": 0.19264099999998052
                },
                {
                    "name": "E5",
                    "midi": 76,
                    "time": 444.03750499998347,
                    "velocity": 0.5196850393700787,
                    "duration": 0.19264099999998052
                },
                {
                    "name": "A#4",
                    "midi": 70,
                    "time": 444.03750499998347,
                    "velocity": 0.4330708661417323,
                    "duration": 0.19264099999998052
                },
                {
                    "name": "C5",
                    "midi": 72,
                    "time": 444.23014599998345,
                    "velocity": 0.47244094488188976,
                    "duration": 0.09632049999999026
                },
                {
                    "name": "A4",
                    "midi": 69,
                    "time": 444.23014599998345,
                    "velocity": 0.47244094488188976,
                    "duration": 0.09632049999999026
                },
                {
                    "name": "F5",
                    "midi": 77,
                    "time": 444.23014599998345,
                    "velocity": 0.5669291338582677,
                    "duration": 0.09632049999999026
                },
                {
                    "name": "F#5",
                    "midi": 78,
                    "time": 444.61542799998347,
                    "velocity": 0.5196850393700787,
                    "duration": 0.19264099999998052
                },
                {
                    "name": "C5",
                    "midi": 72,
                    "time": 444.61542799998347,
                    "velocity": 0.4330708661417323,
                    "duration": 0.19264099999998052
                },
                {
                    "name": "A4",
                    "midi": 69,
                    "time": 444.61542799998347,
                    "velocity": 0.4330708661417323,
                    "duration": 0.19264099999998052
                },
                {
                    "name": "G5",
                    "midi": 79,
                    "time": 444.80806899998345,
                    "velocity": 0.5590551181102362,
                    "duration": 0.09632049999999026
                },
                {
                    "name": "E5",
                    "midi": 76,
                    "time": 444.80806899998345,
                    "velocity": 0.4645669291338583,
                    "duration": 0.09632049999999026
                },
                {
                    "name": "A#4",
                    "midi": 70,
                    "time": 444.80806899998345,
                    "velocity": 0.4645669291338583,
                    "duration": 0.09632049999999026
                },
                {
                    "name": "E5",
                    "midi": 76,
                    "time": 445.19335099998347,
                    "velocity": 0.4330708661417323,
                    "duration": 0.19264099999998052
                },
                {
                    "name": "A#4",
                    "midi": 70,
                    "time": 445.19335099998347,
                    "velocity": 0.4330708661417323,
                    "duration": 0.19264099999998052
                },
                {
                    "name": "G5",
                    "midi": 79,
                    "time": 445.19335099998347,
                    "velocity": 0.5196850393700787,
                    "duration": 0.19264099999998052
                },
                {
                    "name": "A5",
                    "midi": 81,
                    "time": 445.38599199998345,
                    "velocity": 0.5748031496062992,
                    "duration": 0.09632049999999026
                },
                {
                    "name": "C5",
                    "midi": 72,
                    "time": 445.38599199998345,
                    "velocity": 0.47244094488188976,
                    "duration": 0.09632049999999026
                },
                {
                    "name": "F5",
                    "midi": 77,
                    "time": 445.38599199998345,
                    "velocity": 0.47244094488188976,
                    "duration": 0.09632049999999026
                },
                {
                    "name": "F#5",
                    "midi": 78,
                    "time": 445.77127399998346,
                    "velocity": 0.4330708661417323,
                    "duration": 0.19264099999998052
                },
                {
                    "name": "C5",
                    "midi": 72,
                    "time": 445.77127399998346,
                    "velocity": 0.4330708661417323,
                    "duration": 0.19264099999998052
                },
                {
                    "name": "A5",
                    "midi": 81,
                    "time": 445.77127399998346,
                    "velocity": 0.5196850393700787,
                    "duration": 0.19264099999998052
                },
                {
                    "name": "E5",
                    "midi": 76,
                    "time": 445.96391499998344,
                    "velocity": 0.4566929133858268,
                    "duration": 0.09632049999999026
                },
                {
                    "name": "A#5",
                    "midi": 82,
                    "time": 445.96391499998344,
                    "velocity": 0.5511811023622047,
                    "duration": 0.09632049999999026
                },
                {
                    "name": "G5",
                    "midi": 79,
                    "time": 445.96391499998344,
                    "velocity": 0.4566929133858268,
                    "duration": 0.09632049999999026
                },
                {
                    "name": "G5",
                    "midi": 79,
                    "time": 446.1565559999834,
                    "velocity": 0.5590551181102362,
                    "duration": 1.1558459999999968
                },
                {
                    "name": "E5",
                    "midi": 76,
                    "time": 446.1565559999834,
                    "velocity": 0.5590551181102362,
                    "duration": 1.1558459999999968
                },
                {
                    "name": "A#5",
                    "midi": 82,
                    "time": 446.1565559999834,
                    "velocity": 0.6771653543307087,
                    "duration": 1.252166499999987
                },
                {
                    "name": "C6",
                    "midi": 84,
                    "time": 447.4087224999834,
                    "velocity": 0.49606299212598426,
                    "duration": 0.1059525499999836
                },
                {
                    "name": "D6",
                    "midi": 86,
                    "time": 447.5050429999834,
                    "velocity": 0.5196850393700787,
                    "duration": 0.1059525499999836
                },
                {
                    "name": "C6",
                    "midi": 84,
                    "time": 447.6013634999834,
                    "velocity": 0.5118110236220472,
                    "duration": 0.1059525499999836
                },
                {
                    "name": "A#5",
                    "midi": 82,
                    "time": 447.6976839999834,
                    "velocity": 0.49606299212598426,
                    "duration": 0.1059525499999836
                },
                {
                    "name": "A5",
                    "midi": 81,
                    "time": 447.7940044999834,
                    "velocity": 0.4881889763779528,
                    "duration": 0.1059525499999836
                },
                {
                    "name": "G5",
                    "midi": 79,
                    "time": 447.89032499998336,
                    "velocity": 0.4881889763779528,
                    "duration": 0.1059525499999836
                },
                {
                    "name": "A5",
                    "midi": 81,
                    "time": 447.98664549998335,
                    "velocity": 0.5039370078740157,
                    "duration": 0.1059525499999836
                },
                {
                    "name": "A#5",
                    "midi": 82,
                    "time": 448.08296599998334,
                    "velocity": 0.5275590551181102,
                    "duration": 0.1059525499999836
                },
                {
                    "name": "A5",
                    "midi": 81,
                    "time": 448.17928649998333,
                    "velocity": 0.5196850393700787,
                    "duration": 0.1059525499999836
                },
                {
                    "name": "G5",
                    "midi": 79,
                    "time": 448.2756069999833,
                    "velocity": 0.5039370078740157,
                    "duration": 0.1059525499999836
                },
                {
                    "name": "F5",
                    "midi": 77,
                    "time": 448.3719274999833,
                    "velocity": 0.4881889763779528,
                    "duration": 0.1059525499999836
                },
                {
                    "name": "E5",
                    "midi": 76,
                    "time": 448.4682479999833,
                    "velocity": 0.49606299212598426,
                    "duration": 0.1059525499999836
                },
                {
                    "name": "F5",
                    "midi": 77,
                    "time": 448.5645684999833,
                    "velocity": 0.49606299212598426,
                    "duration": 0.1059525499999836
                },
                {
                    "name": "G5",
                    "midi": 79,
                    "time": 448.6608889999833,
                    "velocity": 0.5039370078740157,
                    "duration": 0.1059525499999836
                },
                {
                    "name": "F5",
                    "midi": 77,
                    "time": 448.7572094999833,
                    "velocity": 0.5039370078740157,
                    "duration": 0.1059525499999836
                },
                {
                    "name": "E5",
                    "midi": 76,
                    "time": 448.85352999998327,
                    "velocity": 0.4881889763779528,
                    "duration": 0.1059525499999836
                },
                {
                    "name": "D5",
                    "midi": 74,
                    "time": 448.94985049998326,
                    "velocity": 0.47244094488188976,
                    "duration": 0.1059525499999836
                },
                {
                    "name": "C5",
                    "midi": 72,
                    "time": 449.04617099998325,
                    "velocity": 0.4881889763779528,
                    "duration": 0.1059525499999836
                },
                {
                    "name": "C#5",
                    "midi": 73,
                    "time": 449.14249149998324,
                    "velocity": 0.4881889763779528,
                    "duration": 0.1059525499999836
                },
                {
                    "name": "D5",
                    "midi": 74,
                    "time": 449.2388119999832,
                    "velocity": 0.5039370078740157,
                    "duration": 0.1059525499999836
                },
                {
                    "name": "C5",
                    "midi": 72,
                    "time": 449.3351324999832,
                    "velocity": 0.49606299212598426,
                    "duration": 0.1059525499999836
                },
                {
                    "name": "A#4",
                    "midi": 70,
                    "time": 449.4314529999832,
                    "velocity": 0.48031496062992124,
                    "duration": 0.1059525499999836
                },
                {
                    "name": "A4",
                    "midi": 69,
                    "time": 449.5277734999832,
                    "velocity": 0.47244094488188976,
                    "duration": 0.1059525499999836
                },
                {
                    "name": "G4",
                    "midi": 67,
                    "time": 449.6240939999832,
                    "velocity": 0.4645669291338583,
                    "duration": 0.1059525499999836
                },
                {
                    "name": "A4",
                    "midi": 69,
                    "time": 449.7204144999832,
                    "velocity": 0.48031496062992124,
                    "duration": 0.1059525499999836
                },
                {
                    "name": "A#4",
                    "midi": 70,
                    "time": 449.81673499998317,
                    "velocity": 0.5039370078740157,
                    "duration": 0.1059525499999836
                },
                {
                    "name": "A4",
                    "midi": 69,
                    "time": 449.91305549998316,
                    "velocity": 0.49606299212598426,
                    "duration": 0.1059525499999836
                },
                {
                    "name": "G4",
                    "midi": 67,
                    "time": 450.00937599998315,
                    "velocity": 0.48031496062992124,
                    "duration": 0.1059525499999836
                },
                {
                    "name": "F4",
                    "midi": 65,
                    "time": 450.10569649998314,
                    "velocity": 0.47244094488188976,
                    "duration": 0.1059525499999836
                },
                {
                    "name": "E4",
                    "midi": 64,
                    "time": 450.20201699998313,
                    "velocity": 0.47244094488188976,
                    "duration": 0.1059525499999836
                },
                {
                    "name": "F4",
                    "midi": 65,
                    "time": 450.2983374999831,
                    "velocity": 0.4881889763779528,
                    "duration": 0.1059525499999836
                },
                {
                    "name": "G4",
                    "midi": 67,
                    "time": 450.3946579999831,
                    "velocity": 0.49606299212598426,
                    "duration": 0.1059525499999836
                },
                {
                    "name": "F4",
                    "midi": 65,
                    "time": 450.4909784999831,
                    "velocity": 0.4881889763779528,
                    "duration": 0.1059525499999836
                },
                {
                    "name": "E4",
                    "midi": 64,
                    "time": 450.5872989999831,
                    "velocity": 0.47244094488188976,
                    "duration": 0.1059525499999836
                },
                {
                    "name": "D4",
                    "midi": 62,
                    "time": 450.6836194999831,
                    "velocity": 0.4645669291338583,
                    "duration": 0.09632049999999026
                },
                {
                    "name": "C6",
                    "midi": 84,
                    "time": 453.18795249998306,
                    "velocity": 0.5196850393700787,
                    "duration": 0.1059525499999836
                },
                {
                    "name": "B5",
                    "midi": 83,
                    "time": 453.28427299998305,
                    "velocity": 0.5354330708661418,
                    "duration": 0.1059525499999836
                },
                {
                    "name": "C6",
                    "midi": 84,
                    "time": 453.38059349998304,
                    "velocity": 0.5433070866141733,
                    "duration": 0.1059525499999836
                },
                {
                    "name": "F6",
                    "midi": 89,
                    "time": 453.476913999983,
                    "velocity": 0.5511811023622047,
                    "duration": 0.1059525499999836
                },
                {
                    "name": "C6",
                    "midi": 84,
                    "time": 453.573234499983,
                    "velocity": 0.49606299212598426,
                    "duration": 0.1059525499999836
                },
                {
                    "name": "A#5",
                    "midi": 82,
                    "time": 453.669554999983,
                    "velocity": 0.5511811023622047,
                    "duration": 0.1059525499999836
                },
                {
                    "name": "A5",
                    "midi": 81,
                    "time": 453.765875499983,
                    "velocity": 0.5196850393700787,
                    "duration": 0.1059525499999836
                },
                {
                    "name": "G#5",
                    "midi": 80,
                    "time": 453.862195999983,
                    "velocity": 0.5039370078740157,
                    "duration": 0.1059525499999836
                },
                {
                    "name": "A5",
                    "midi": 81,
                    "time": 453.958516499983,
                    "velocity": 0.5039370078740157,
                    "duration": 0.1059525499999836
                },
                {
                    "name": "C6",
                    "midi": 84,
                    "time": 454.05483699998297,
                    "velocity": 0.5511811023622047,
                    "duration": 0.1059525499999836
                },
                {
                    "name": "A5",
                    "midi": 81,
                    "time": 454.15115749998296,
                    "velocity": 0.5039370078740157,
                    "duration": 0.1059525499999836
                },
                {
                    "name": "G5",
                    "midi": 79,
                    "time": 454.24747799998295,
                    "velocity": 0.5511811023622047,
                    "duration": 0.1059525499999836
                },
                {
                    "name": "F5",
                    "midi": 77,
                    "time": 454.34379849998294,
                    "velocity": 0.5039370078740157,
                    "duration": 0.1059525499999836
                },
                {
                    "name": "E5",
                    "midi": 76,
                    "time": 454.44011899998293,
                    "velocity": 0.5039370078740157,
                    "duration": 0.1059525499999836
                },
                {
                    "name": "F5",
                    "midi": 77,
                    "time": 454.5364394999829,
                    "velocity": 0.5039370078740157,
                    "duration": 0.1059525499999836
                },
                {
                    "name": "A5",
                    "midi": 81,
                    "time": 454.6327599999829,
                    "velocity": 0.5511811023622047,
                    "duration": 0.1059525499999836
                },
                {
                    "name": "F5",
                    "midi": 77,
                    "time": 454.7290804999829,
                    "velocity": 0.5118110236220472,
                    "duration": 0.1059525499999836
                },
                {
                    "name": "D5",
                    "midi": 74,
                    "time": 454.8254009999829,
                    "velocity": 0.5511811023622047,
                    "duration": 0.1059525499999836
                },
                {
                    "name": "C5",
                    "midi": 72,
                    "time": 454.9217214999829,
                    "velocity": 0.5118110236220472,
                    "duration": 0.1059525499999836
                },
                {
                    "name": "B4",
                    "midi": 71,
                    "time": 455.01804199998287,
                    "velocity": 0.5118110236220472,
                    "duration": 0.1059525499999836
                },
                {
                    "name": "C5",
                    "midi": 72,
                    "time": 455.11436249998286,
                    "velocity": 0.5118110236220472,
                    "duration": 0.1059525499999836
                },
                {
                    "name": "F5",
                    "midi": 77,
                    "time": 455.21068299998285,
                    "velocity": 0.5511811023622047,
                    "duration": 0.1059525499999836
                },
                {
                    "name": "C5",
                    "midi": 72,
                    "time": 455.30700349998284,
                    "velocity": 0.5118110236220472,
                    "duration": 0.1059525499999836
                },
                {
                    "name": "A#4",
                    "midi": 70,
                    "time": 455.40332399998283,
                    "velocity": 0.5511811023622047,
                    "duration": 0.1059525499999836
                },
                {
                    "name": "A4",
                    "midi": 69,
                    "time": 455.4996444999828,
                    "velocity": 0.5196850393700787,
                    "duration": 0.1059525499999836
                },
                {
                    "name": "G#4",
                    "midi": 68,
                    "time": 455.5959649999828,
                    "velocity": 0.5196850393700787,
                    "duration": 0.1059525499999836
                },
                {
                    "name": "A4",
                    "midi": 69,
                    "time": 455.6922854999828,
                    "velocity": 0.5196850393700787,
                    "duration": 0.1059525499999836
                },
                {
                    "name": "C5",
                    "midi": 72,
                    "time": 455.7886059999828,
                    "velocity": 0.5511811023622047,
                    "duration": 0.1059525499999836
                },
                {
                    "name": "A4",
                    "midi": 69,
                    "time": 455.8849264999828,
                    "velocity": 0.5039370078740157,
                    "duration": 0.1059525499999836
                },
                {
                    "name": "F4",
                    "midi": 65,
                    "time": 455.9812469999828,
                    "velocity": 0.5511811023622047,
                    "duration": 0.09632049999999026
                },
                {
                    "name": "F5",
                    "midi": 77,
                    "time": 456.07756749998276,
                    "velocity": 0.5039370078740157,
                    "duration": 0.09632049999999026
                },
                {
                    "name": "E4",
                    "midi": 64,
                    "time": 456.17388799998275,
                    "velocity": 0.5511811023622047,
                    "duration": 0.09632049999999026
                },
                {
                    "name": "F5",
                    "midi": 77,
                    "time": 456.27020849998274,
                    "velocity": 0.5039370078740157,
                    "duration": 0.09632049999999026
                },
                {
                    "name": "F4",
                    "midi": 65,
                    "time": 456.36652899998273,
                    "velocity": 0.5511811023622047,
                    "duration": 0.09632049999999026
                },
                {
                    "name": "F5",
                    "midi": 77,
                    "time": 456.4628494999827,
                    "velocity": 0.5039370078740157,
                    "duration": 0.09632049999999026
                },
                {
                    "name": "G4",
                    "midi": 67,
                    "time": 456.5591699999827,
                    "velocity": 0.5511811023622047,
                    "duration": 0.09632049999999026
                },
                {
                    "name": "F5",
                    "midi": 77,
                    "time": 456.6554904999827,
                    "velocity": 0.5039370078740157,
                    "duration": 0.09632049999999026
                },
                {
                    "name": "F4",
                    "midi": 65,
                    "time": 456.7518109999827,
                    "velocity": 0.5118110236220472,
                    "duration": 0.09632049999999026
                },
                {
                    "name": "F5",
                    "midi": 77,
                    "time": 456.8481314999827,
                    "velocity": 0.4566929133858268,
                    "duration": 0.09632049999999026
                },
                {
                    "name": "G4",
                    "midi": 67,
                    "time": 456.9444519999827,
                    "velocity": 0.5275590551181102,
                    "duration": 0.09632049999999026
                },
                {
                    "name": "F5",
                    "midi": 77,
                    "time": 457.04077249998267,
                    "velocity": 0.48031496062992124,
                    "duration": 0.09632049999999026
                },
                {
                    "name": "A4",
                    "midi": 69,
                    "time": 457.13709299998266,
                    "velocity": 0.5511811023622047,
                    "duration": 0.09632049999999026
                },
                {
                    "name": "F5",
                    "midi": 77,
                    "time": 457.23341349998265,
                    "velocity": 0.47244094488188976,
                    "duration": 0.09632049999999026
                },
                {
                    "name": "G4",
                    "midi": 67,
                    "time": 457.32973399998264,
                    "velocity": 0.5196850393700787,
                    "duration": 0.09632049999999026
                },
                {
                    "name": "F5",
                    "midi": 77,
                    "time": 457.4260544999826,
                    "velocity": 0.4881889763779528,
                    "duration": 0.09632049999999026
                },
                {
                    "name": "A4",
                    "midi": 69,
                    "time": 457.5223749999826,
                    "velocity": 0.5275590551181102,
                    "duration": 0.09632049999999026
                },
                {
                    "name": "F5",
                    "midi": 77,
                    "time": 457.6186954999826,
                    "velocity": 0.4881889763779528,
                    "duration": 0.09632049999999026
                },
                {
                    "name": "A#4",
                    "midi": 70,
                    "time": 457.7150159999826,
                    "velocity": 0.5826771653543307,
                    "duration": 0.09632049999999026
                },
                {
                    "name": "F5",
                    "midi": 77,
                    "time": 457.8113364999826,
                    "velocity": 0.48031496062992124,
                    "duration": 0.09632049999999026
                },
                {
                    "name": "A#4",
                    "midi": 70,
                    "time": 457.9076569999826,
                    "velocity": 0.5118110236220472,
                    "duration": 0.09632049999999026
                },
                {
                    "name": "F5",
                    "midi": 77,
                    "time": 458.00397749998257,
                    "velocity": 0.48031496062992124,
                    "duration": 0.09632049999999026
                },
                {
                    "name": "A4",
                    "midi": 69,
                    "time": 458.10029799998256,
                    "velocity": 0.5118110236220472,
                    "duration": 0.09632049999999026
                },
                {
                    "name": "F5",
                    "midi": 77,
                    "time": 458.19661849998255,
                    "velocity": 0.47244094488188976,
                    "duration": 0.09632049999999026
                },
                {
                    "name": "A#4",
                    "midi": 70,
                    "time": 458.29293899998254,
                    "velocity": 0.5511811023622047,
                    "duration": 0.09632049999999026
                },
                {
                    "name": "F5",
                    "midi": 77,
                    "time": 458.38925949998253,
                    "velocity": 0.47244094488188976,
                    "duration": 0.09632049999999026
                },
                {
                    "name": "A#4",
                    "midi": 70,
                    "time": 458.4855799999825,
                    "velocity": 0.5118110236220472,
                    "duration": 0.09632049999999026
                },
                {
                    "name": "F5",
                    "midi": 77,
                    "time": 458.5819004999825,
                    "velocity": 0.47244094488188976,
                    "duration": 0.09632049999999026
                },
                {
                    "name": "A4",
                    "midi": 69,
                    "time": 458.6782209999825,
                    "velocity": 0.5118110236220472,
                    "duration": 0.09632049999999026
                },
                {
                    "name": "F5",
                    "midi": 77,
                    "time": 458.7745414999825,
                    "velocity": 0.4251968503937008,
                    "duration": 0.09632049999999026
                },
                {
                    "name": "G#4",
                    "midi": 68,
                    "time": 458.8708619999825,
                    "velocity": 0.3858267716535433,
                    "duration": 0.09632049999999026
                },
                {
                    "name": "F5",
                    "midi": 77,
                    "time": 458.96718249998247,
                    "velocity": 0.3228346456692913,
                    "duration": 0.09632049999999026
                },
                {
                    "name": "G#4",
                    "midi": 68,
                    "time": 459.06350299998246,
                    "velocity": 0.3858267716535433,
                    "duration": 0.09632049999999026
                },
                {
                    "name": "F5",
                    "midi": 77,
                    "time": 459.15982349998245,
                    "velocity": 0.33070866141732286,
                    "duration": 0.09632049999999026
                },
                {
                    "name": "G#4",
                    "midi": 68,
                    "time": 459.25614399998244,
                    "velocity": 0.3858267716535433,
                    "duration": 0.09632049999999026
                },
                {
                    "name": "F5",
                    "midi": 77,
                    "time": 459.35246449998243,
                    "velocity": 0.31496062992125984,
                    "duration": 0.09632049999999026
                },
                {
                    "name": "G4",
                    "midi": 67,
                    "time": 459.4487849999824,
                    "velocity": 0.3779527559055118,
                    "duration": 0.19264099999998052
                },
                {
                    "name": "E5",
                    "midi": 76,
                    "time": 459.4487849999824,
                    "velocity": 0.3779527559055118,
                    "duration": 0.19264099999998052
                },
                {
                    "name": "C6",
                    "midi": 84,
                    "time": 460.1230284999824,
                    "velocity": 0.5196850393700787,
                    "duration": 0.1059525499999836
                },
                {
                    "name": "B5",
                    "midi": 83,
                    "time": 460.2193489999824,
                    "velocity": 0.5354330708661418,
                    "duration": 0.1059525499999836
                },
                {
                    "name": "C6",
                    "midi": 84,
                    "time": 460.3156694999824,
                    "velocity": 0.5433070866141733,
                    "duration": 0.1059525499999836
                },
                {
                    "name": "F6",
                    "midi": 89,
                    "time": 460.4119899999824,
                    "velocity": 0.5511811023622047,
                    "duration": 0.1059525499999836
                },
                {
                    "name": "C6",
                    "midi": 84,
                    "time": 460.5083104999824,
                    "velocity": 0.49606299212598426,
                    "duration": 0.1059525499999836
                },
                {
                    "name": "A#5",
                    "midi": 82,
                    "time": 460.60463099998236,
                    "velocity": 0.5511811023622047,
                    "duration": 0.1059525499999836
                },
                {
                    "name": "A5",
                    "midi": 81,
                    "time": 460.70095149998235,
                    "velocity": 0.5196850393700787,
                    "duration": 0.1059525499999836
                },
                {
                    "name": "G#5",
                    "midi": 80,
                    "time": 460.79727199998234,
                    "velocity": 0.5039370078740157,
                    "duration": 0.1059525499999836
                },
                {
                    "name": "A5",
                    "midi": 81,
                    "time": 460.89359249998233,
                    "velocity": 0.5039370078740157,
                    "duration": 0.1059525499999836
                },
                {
                    "name": "C6",
                    "midi": 84,
                    "time": 460.9899129999823,
                    "velocity": 0.5511811023622047,
                    "duration": 0.1059525499999836
                },
                {
                    "name": "A5",
                    "midi": 81,
                    "time": 461.0862334999823,
                    "velocity": 0.5039370078740157,
                    "duration": 0.1059525499999836
                },
                {
                    "name": "G5",
                    "midi": 79,
                    "time": 461.1825539999823,
                    "velocity": 0.5511811023622047,
                    "duration": 0.1059525499999836
                },
                {
                    "name": "F5",
                    "midi": 77,
                    "time": 461.2788744999823,
                    "velocity": 0.5039370078740157,
                    "duration": 0.1059525499999836
                },
                {
                    "name": "E5",
                    "midi": 76,
                    "time": 461.3751949999823,
                    "velocity": 0.5039370078740157,
                    "duration": 0.1059525499999836
                },
                {
                    "name": "F5",
                    "midi": 77,
                    "time": 461.4715154999823,
                    "velocity": 0.5039370078740157,
                    "duration": 0.1059525499999836
                },
                {
                    "name": "A5",
                    "midi": 81,
                    "time": 461.56783599998226,
                    "velocity": 0.5511811023622047,
                    "duration": 0.1059525499999836
                },
                {
                    "name": "F5",
                    "midi": 77,
                    "time": 461.66415649998225,
                    "velocity": 0.5118110236220472,
                    "duration": 0.1059525499999836
                },
                {
                    "name": "D5",
                    "midi": 74,
                    "time": 461.76047699998225,
                    "velocity": 0.5511811023622047,
                    "duration": 0.1059525499999836
                },
                {
                    "name": "C5",
                    "midi": 72,
                    "time": 461.85679749998224,
                    "velocity": 0.5118110236220472,
                    "duration": 0.1059525499999836
                },
                {
                    "name": "B4",
                    "midi": 71,
                    "time": 461.9531179999822,
                    "velocity": 0.5118110236220472,
                    "duration": 0.1059525499999836
                },
                {
                    "name": "C5",
                    "midi": 72,
                    "time": 462.0494384999822,
                    "velocity": 0.5118110236220472,
                    "duration": 0.1059525499999836
                },
                {
                    "name": "F5",
                    "midi": 77,
                    "time": 462.1457589999822,
                    "velocity": 0.5511811023622047,
                    "duration": 0.1059525499999836
                },
                {
                    "name": "C5",
                    "midi": 72,
                    "time": 462.2420794999822,
                    "velocity": 0.5118110236220472,
                    "duration": 0.1059525499999836
                },
                {
                    "name": "A#4",
                    "midi": 70,
                    "time": 462.3383999999822,
                    "velocity": 0.5511811023622047,
                    "duration": 0.1059525499999836
                },
                {
                    "name": "A4",
                    "midi": 69,
                    "time": 462.4347204999822,
                    "velocity": 0.5196850393700787,
                    "duration": 0.1059525499999836
                },
                {
                    "name": "G#4",
                    "midi": 68,
                    "time": 462.53104099998217,
                    "velocity": 0.5196850393700787,
                    "duration": 0.1059525499999836
                },
                {
                    "name": "A4",
                    "midi": 69,
                    "time": 462.62736149998216,
                    "velocity": 0.5196850393700787,
                    "duration": 0.1059525499999836
                },
                {
                    "name": "C5",
                    "midi": 72,
                    "time": 462.72368199998215,
                    "velocity": 0.5511811023622047,
                    "duration": 0.1059525499999836
                },
                {
                    "name": "A4",
                    "midi": 69,
                    "time": 462.82000249998214,
                    "velocity": 0.5039370078740157,
                    "duration": 0.1059525499999836
                },
                {
                    "name": "F4",
                    "midi": 65,
                    "time": 462.9163229999821,
                    "velocity": 0.5511811023622047,
                    "duration": 0.09632049999999026
                },
                {
                    "name": "F5",
                    "midi": 77,
                    "time": 463.0126434999821,
                    "velocity": 0.5039370078740157,
                    "duration": 0.09632049999999026
                },
                {
                    "name": "E4",
                    "midi": 64,
                    "time": 463.1089639999821,
                    "velocity": 0.5511811023622047,
                    "duration": 0.09632049999999026
                },
                {
                    "name": "F5",
                    "midi": 77,
                    "time": 463.2052844999821,
                    "velocity": 0.5039370078740157,
                    "duration": 0.09632049999999026
                },
                {
                    "name": "F4",
                    "midi": 65,
                    "time": 463.3016049999821,
                    "velocity": 0.5511811023622047,
                    "duration": 0.09632049999999026
                },
                {
                    "name": "F5",
                    "midi": 77,
                    "time": 463.3979254999821,
                    "velocity": 0.5039370078740157,
                    "duration": 0.09632049999999026
                },
                {
                    "name": "G4",
                    "midi": 67,
                    "time": 463.49424599998207,
                    "velocity": 0.5511811023622047,
                    "duration": 0.09632049999999026
                },
                {
                    "name": "F5",
                    "midi": 77,
                    "time": 463.59056649998206,
                    "velocity": 0.5039370078740157,
                    "duration": 0.09632049999999026
                },
                {
                    "name": "F4",
                    "midi": 65,
                    "time": 463.68688699998205,
                    "velocity": 0.5118110236220472,
                    "duration": 0.09632049999999026
                },
                {
                    "name": "F5",
                    "midi": 77,
                    "time": 463.78320749998204,
                    "velocity": 0.4566929133858268,
                    "duration": 0.09632049999999026
                },
                {
                    "name": "G4",
                    "midi": 67,
                    "time": 463.87952799998203,
                    "velocity": 0.5275590551181102,
                    "duration": 0.09632049999999026
                },
                {
                    "name": "F5",
                    "midi": 77,
                    "time": 463.975848499982,
                    "velocity": 0.48031496062992124,
                    "duration": 0.09632049999999026
                },
                {
                    "name": "A4",
                    "midi": 69,
                    "time": 464.072168999982,
                    "velocity": 0.5511811023622047,
                    "duration": 0.09632049999999026
                },
                {
                    "name": "F5",
                    "midi": 77,
                    "time": 464.168489499982,
                    "velocity": 0.47244094488188976,
                    "duration": 0.09632049999999026
                },
                {
                    "name": "G4",
                    "midi": 67,
                    "time": 464.264809999982,
                    "velocity": 0.5196850393700787,
                    "duration": 0.09632049999999026
                },
                {
                    "name": "F5",
                    "midi": 77,
                    "time": 464.361130499982,
                    "velocity": 0.4881889763779528,
                    "duration": 0.09632049999999026
                },
                {
                    "name": "A4",
                    "midi": 69,
                    "time": 464.457450999982,
                    "velocity": 0.5275590551181102,
                    "duration": 0.09632049999999026
                },
                {
                    "name": "F5",
                    "midi": 77,
                    "time": 464.55377149998196,
                    "velocity": 0.4881889763779528,
                    "duration": 0.09632049999999026
                },
                {
                    "name": "A#4",
                    "midi": 70,
                    "time": 464.65009199998195,
                    "velocity": 0.5826771653543307,
                    "duration": 0.09632049999999026
                },
                {
                    "name": "F5",
                    "midi": 77,
                    "time": 464.74641249998194,
                    "velocity": 0.48031496062992124,
                    "duration": 0.09632049999999026
                },
                {
                    "name": "A#4",
                    "midi": 70,
                    "time": 464.84273299998193,
                    "velocity": 0.5118110236220472,
                    "duration": 0.09632049999999026
                },
                {
                    "name": "F5",
                    "midi": 77,
                    "time": 464.9390534999819,
                    "velocity": 0.48031496062992124,
                    "duration": 0.09632049999999026
                },
                {
                    "name": "A4",
                    "midi": 69,
                    "time": 465.0353739999819,
                    "velocity": 0.5118110236220472,
                    "duration": 0.09632049999999026
                },
                {
                    "name": "F5",
                    "midi": 77,
                    "time": 465.1316944999819,
                    "velocity": 0.47244094488188976,
                    "duration": 0.09632049999999026
                },
                {
                    "name": "A#4",
                    "midi": 70,
                    "time": 465.2280149999819,
                    "velocity": 0.5511811023622047,
                    "duration": 0.09632049999999026
                },
                {
                    "name": "F5",
                    "midi": 77,
                    "time": 465.3243354999819,
                    "velocity": 0.47244094488188976,
                    "duration": 0.09632049999999026
                },
                {
                    "name": "A#4",
                    "midi": 70,
                    "time": 465.4206559999819,
                    "velocity": 0.5118110236220472,
                    "duration": 0.09632049999999026
                },
                {
                    "name": "F5",
                    "midi": 77,
                    "time": 465.51697649998187,
                    "velocity": 0.47244094488188976,
                    "duration": 0.09632049999999026
                },
                {
                    "name": "A4",
                    "midi": 69,
                    "time": 465.61329699998186,
                    "velocity": 0.5118110236220472,
                    "duration": 0.09632049999999026
                },
                {
                    "name": "F5",
                    "midi": 77,
                    "time": 465.70961749998185,
                    "velocity": 0.36220472440944884,
                    "duration": 0.09632049999999026
                },
                {
                    "name": "G#4",
                    "midi": 68,
                    "time": 465.80593799998184,
                    "velocity": 0.3464566929133858,
                    "duration": 0.09632049999999026
                },
                {
                    "name": "F5",
                    "midi": 77,
                    "time": 465.9022584999818,
                    "velocity": 0.28346456692913385,
                    "duration": 0.09632049999999026
                },
                {
                    "name": "G4",
                    "midi": 67,
                    "time": 466.38386099998183,
                    "velocity": 0.33070866141732286,
                    "duration": 0.09632049999999026
                },
                {
                    "name": "E5",
                    "midi": 76,
                    "time": 466.4801814999818,
                    "velocity": 0.2677165354330709,
                    "duration": 0.09632049999999026
                },
                {
                    "name": "F#4",
                    "midi": 66,
                    "time": 466.96178399998183,
                    "velocity": 0.33858267716535434,
                    "duration": 0.09632049999999026
                },
                {
                    "name": "D#5",
                    "midi": 75,
                    "time": 467.0581044999818,
                    "velocity": 0.28346456692913385,
                    "duration": 0.09632049999999026
                },
                {
                    "name": "D4",
                    "midi": 62,
                    "time": 467.7323479999818,
                    "velocity": 0.4566929133858268,
                    "duration": 0.09632049999999026
                },
                {
                    "name": "G4",
                    "midi": 67,
                    "time": 467.8286684999818,
                    "velocity": 0.4645669291338583,
                    "duration": 0.09632049999999026
                },
                {
                    "name": "A#4",
                    "midi": 70,
                    "time": 467.9249889999818,
                    "velocity": 0.47244094488188976,
                    "duration": 0.09632049999999026
                },
                {
                    "name": "D5",
                    "midi": 74,
                    "time": 468.0213094999818,
                    "velocity": 0.48031496062992124,
                    "duration": 0.09632049999999026
                },
                {
                    "name": "C5",
                    "midi": 72,
                    "time": 468.1176299999818,
                    "velocity": 0.4881889763779528,
                    "duration": 0.1059525499999836
                },
                {
                    "name": "A#4",
                    "midi": 70,
                    "time": 468.21395049998176,
                    "velocity": 0.4881889763779528,
                    "duration": 0.1059525499999836
                },
                {
                    "name": "A4",
                    "midi": 69,
                    "time": 468.31027099998175,
                    "velocity": 0.47244094488188976,
                    "duration": 0.1059525499999836
                },
                {
                    "name": "G4",
                    "midi": 67,
                    "time": 468.40659149998174,
                    "velocity": 0.4645669291338583,
                    "duration": 0.1059525499999836
                },
                {
                    "name": "F4",
                    "midi": 65,
                    "time": 468.50291199998173,
                    "velocity": 0.44881889763779526,
                    "duration": 0.1059525499999836
                },
                {
                    "name": "E4",
                    "midi": 64,
                    "time": 468.5992324999817,
                    "velocity": 0.4330708661417323,
                    "duration": 0.1059525499999836
                },
                {
                    "name": "F4",
                    "midi": 65,
                    "time": 468.6955529999817,
                    "velocity": 0.4566929133858268,
                    "duration": 0.09632049999999026
                },
                {
                    "name": "C4",
                    "midi": 60,
                    "time": 468.8881939999817,
                    "velocity": 0.3858267716535433,
                    "duration": 0.19264099999998052
                },
                {
                    "name": "C4",
                    "midi": 60,
                    "time": 469.0808349999817,
                    "velocity": 0.3858267716535433,
                    "duration": 0.1444807500000138
                },
                {
                    "name": "E4",
                    "midi": 64,
                    "time": 469.2253157499817,
                    "velocity": 0.3228346456692913,
                    "duration": 0.04816025000002355
                },
                {
                    "name": "A#4",
                    "midi": 70,
                    "time": 469.2734759999817,
                    "velocity": 0.3858267716535433,
                    "duration": 0.7705639999999789
                },
                {
                    "name": "A4",
                    "midi": 69,
                    "time": 470.0440399999817,
                    "velocity": 0.33858267716535434,
                    "duration": 0.09632049999999026
                },
                {
                    "name": "G4",
                    "midi": 67,
                    "time": 470.2366809999817,
                    "velocity": 0.33858267716535434,
                    "duration": 0.09632049999999026
                },
                {
                    "name": "G4",
                    "midi": 67,
                    "time": 470.42932199998165,
                    "velocity": 0.3858267716535433,
                    "duration": 0.19264099999998052
                },
                {
                    "name": "F4",
                    "midi": 65,
                    "time": 470.62196299998163,
                    "velocity": 0.3543307086614173,
                    "duration": 0.3852820000000179
                },
                {
                    "name": "F4",
                    "midi": 65,
                    "time": 471.00724499998165,
                    "velocity": 0.3543307086614173,
                    "duration": 0.5297627499999749
                },
                {
                    "name": "E4",
                    "midi": 64,
                    "time": 471.5370077499816,
                    "velocity": 0.3228346456692913,
                    "duration": 0.04816025000002355
                },
                {
                    "name": "A#4",
                    "midi": 70,
                    "time": 471.58516799998165,
                    "velocity": 0.3858267716535433,
                    "duration": 0.7705639999999789
                },
                {
                    "name": "A4",
                    "midi": 69,
                    "time": 472.35573199998163,
                    "velocity": 0.33858267716535434,
                    "duration": 0.09632049999999026
                },
                {
                    "name": "G4",
                    "midi": 67,
                    "time": 472.5483729999816,
                    "velocity": 0.33858267716535434,
                    "duration": 0.09632049999999026
                },
                {
                    "name": "B4",
                    "midi": 71,
                    "time": 472.7410139999816,
                    "velocity": 0.4015748031496063,
                    "duration": 0.5779229999999984
                },
                {
                    "name": "C5",
                    "midi": 72,
                    "time": 473.3189369999816,
                    "velocity": 0.3543307086614173,
                    "duration": 0.19264099999998052
                },
                {
                    "name": "E4",
                    "midi": 64,
                    "time": 473.84869974998156,
                    "velocity": 0.3228346456692913,
                    "duration": 0.04816025000002355
                },
                {
                    "name": "A#4",
                    "midi": 70,
                    "time": 473.8968599999816,
                    "velocity": 0.3858267716535433,
                    "duration": 0.7705639999999789
                },
                {
                    "name": "A4",
                    "midi": 69,
                    "time": 474.66742399998157,
                    "velocity": 0.33858267716535434,
                    "duration": 0.09632049999999026
                },
                {
                    "name": "G4",
                    "midi": 67,
                    "time": 474.86006499998155,
                    "velocity": 0.33858267716535434,
                    "duration": 0.09632049999999026
                },
                {
                    "name": "F4",
                    "midi": 65,
                    "time": 475.0527059999815,
                    "velocity": 0.4251968503937008,
                    "duration": 0.3852820000000179
                },
                {
                    "name": "A4",
                    "midi": 69,
                    "time": 475.43798799998154,
                    "velocity": 0.47244094488188976,
                    "duration": 0.5779229999999984
                },
                {
                    "name": "C5",
                    "midi": 72,
                    "time": 476.01591099998154,
                    "velocity": 0.47244094488188976,
                    "duration": 0.5779229999999984
                },
                {
                    "name": "A#4",
                    "midi": 70,
                    "time": 476.59383399998154,
                    "velocity": 0.4566929133858268,
                    "duration": 0.5779229999999984
                },
                {
                    "name": "G4",
                    "midi": 67,
                    "time": 477.17175699998154,
                    "velocity": 0.3937007874015748,
                    "duration": 0.19264099999998052
                },
                {
                    "name": "F4",
                    "midi": 65,
                    "time": 477.3643979999815,
                    "velocity": 0.4409448818897638,
                    "duration": 0.19264099999998052
                },
                {
                    "name": "C#5",
                    "midi": 73,
                    "time": 477.9423209999815,
                    "velocity": 0.5433070866141733,
                    "duration": 0.5779229999999984
                },
                {
                    "name": "C#6",
                    "midi": 85,
                    "time": 477.9423209999815,
                    "velocity": 0.6456692913385826,
                    "duration": 0.5779229999999984
                },
                {
                    "name": "D5",
                    "midi": 74,
                    "time": 478.5202439999815,
                    "velocity": 0.5826771653543307,
                    "duration": 0.5779229999999984
                },
                {
                    "name": "D6",
                    "midi": 86,
                    "time": 478.5202439999815,
                    "velocity": 0.6929133858267716,
                    "duration": 0.5779229999999984
                },
                {
                    "name": "C6",
                    "midi": 84,
                    "time": 479.0981669999815,
                    "velocity": 0.6614173228346457,
                    "duration": 0.5779229999999984
                },
                {
                    "name": "D5",
                    "midi": 74,
                    "time": 479.0981669999815,
                    "velocity": 0.5590551181102362,
                    "duration": 0.5779229999999984
                },
                {
                    "name": "D5",
                    "midi": 74,
                    "time": 479.6760899999815,
                    "velocity": 0.5669291338582677,
                    "duration": 0.5779229999999984
                },
                {
                    "name": "A#5",
                    "midi": 82,
                    "time": 479.6760899999815,
                    "velocity": 0.6692913385826772,
                    "duration": 0.5779229999999984
                },
                {
                    "name": "D5",
                    "midi": 74,
                    "time": 480.2540129999815,
                    "velocity": 0.5118110236220472,
                    "duration": 0.5779229999999984
                },
                {
                    "name": "A5",
                    "midi": 81,
                    "time": 480.2540129999815,
                    "velocity": 0.5984251968503937,
                    "duration": 0.5779229999999984
                },
                {
                    "name": "G5",
                    "midi": 79,
                    "time": 480.8319359999815,
                    "velocity": 0.6220472440944882,
                    "duration": 0.5779229999999984
                },
                {
                    "name": "D5",
                    "midi": 74,
                    "time": 480.8319359999815,
                    "velocity": 0.5275590551181102,
                    "duration": 0.5779229999999984
                },
                {
                    "name": "C5",
                    "midi": 72,
                    "time": 481.4098589999815,
                    "velocity": 0.5118110236220472,
                    "duration": 0.5779229999999984
                },
                {
                    "name": "F#5",
                    "midi": 78,
                    "time": 481.4098589999815,
                    "velocity": 0.5984251968503937,
                    "duration": 0.5779229999999984
                },
                {
                    "name": "D5",
                    "midi": 74,
                    "time": 481.4098589999815,
                    "velocity": 0.5118110236220472,
                    "duration": 0.5779229999999984
                },
                {
                    "name": "G5",
                    "midi": 79,
                    "time": 481.9877819999815,
                    "velocity": 0.5118110236220472,
                    "duration": 0.09632049999999026
                },
                {
                    "name": "D5",
                    "midi": 74,
                    "time": 482.0841024999815,
                    "velocity": 0.4251968503937008,
                    "duration": 0.09632049999999026
                },
                {
                    "name": "A#4",
                    "midi": 70,
                    "time": 482.1804229999815,
                    "velocity": 0.4251968503937008,
                    "duration": 0.09632049999999026
                },
                {
                    "name": "D5",
                    "midi": 74,
                    "time": 482.2767434999815,
                    "velocity": 0.4251968503937008,
                    "duration": 0.09632049999999026
                },
                {
                    "name": "G5",
                    "midi": 79,
                    "time": 482.37306399998147,
                    "velocity": 0.5118110236220472,
                    "duration": 0.09632049999999026
                },
                {
                    "name": "D5",
                    "midi": 74,
                    "time": 482.46938449998146,
                    "velocity": 0.4251968503937008,
                    "duration": 0.09632049999999026
                },
                {
                    "name": "A5",
                    "midi": 81,
                    "time": 482.56570499998145,
                    "velocity": 0.5118110236220472,
                    "duration": 0.09632049999999026
                },
                {
                    "name": "D5",
                    "midi": 74,
                    "time": 482.66202549998144,
                    "velocity": 0.4251968503937008,
                    "duration": 0.09632049999999026
                },
                {
                    "name": "C5",
                    "midi": 72,
                    "time": 482.75834599998143,
                    "velocity": 0.4251968503937008,
                    "duration": 0.09632049999999026
                },
                {
                    "name": "D5",
                    "midi": 74,
                    "time": 482.8546664999814,
                    "velocity": 0.4251968503937008,
                    "duration": 0.09632049999999026
                },
                {
                    "name": "A5",
                    "midi": 81,
                    "time": 482.9509869999814,
                    "velocity": 0.5118110236220472,
                    "duration": 0.09632049999999026
                },
                {
                    "name": "D5",
                    "midi": 74,
                    "time": 483.0473074999814,
                    "velocity": 0.4330708661417323,
                    "duration": 0.09632049999999026
                },
                {
                    "name": "A#5",
                    "midi": 82,
                    "time": 483.1436279999814,
                    "velocity": 0.5118110236220472,
                    "duration": 0.09632049999999026
                },
                {
                    "name": "G5",
                    "midi": 79,
                    "time": 483.2399484999814,
                    "velocity": 0.4330708661417323,
                    "duration": 0.09632049999999026
                },
                {
                    "name": "D5",
                    "midi": 74,
                    "time": 483.33626899998137,
                    "velocity": 0.4330708661417323,
                    "duration": 0.09632049999999026
                },
                {
                    "name": "G5",
                    "midi": 79,
                    "time": 483.43258949998136,
                    "velocity": 0.4330708661417323,
                    "duration": 0.09632049999999026
                },
                {
                    "name": "A#5",
                    "midi": 82,
                    "time": 483.52890999998135,
                    "velocity": 0.5118110236220472,
                    "duration": 0.09632049999999026
                },
                {
                    "name": "G5",
                    "midi": 79,
                    "time": 483.62523049998134,
                    "velocity": 0.4330708661417323,
                    "duration": 0.09632049999999026
                },
                {
                    "name": "B5",
                    "midi": 83,
                    "time": 483.72155099998133,
                    "velocity": 0.5118110236220472,
                    "duration": 0.09632049999999026
                },
                {
                    "name": "G5",
                    "midi": 79,
                    "time": 483.8178714999813,
                    "velocity": 0.4330708661417323,
                    "duration": 0.09632049999999026
                },
                {
                    "name": "D5",
                    "midi": 74,
                    "time": 483.9141919999813,
                    "velocity": 0.4330708661417323,
                    "duration": 0.09632049999999026
                },
                {
                    "name": "G5",
                    "midi": 79,
                    "time": 484.0105124999813,
                    "velocity": 0.4330708661417323,
                    "duration": 0.09632049999999026
                },
                {
                    "name": "B5",
                    "midi": 83,
                    "time": 484.1068329999813,
                    "velocity": 0.5118110236220472,
                    "duration": 0.09632049999999026
                },
                {
                    "name": "G5",
                    "midi": 79,
                    "time": 484.2031534999813,
                    "velocity": 0.4409448818897638,
                    "duration": 0.09632049999999026
                },
                {
                    "name": "C6",
                    "midi": 84,
                    "time": 484.2994739999813,
                    "velocity": 0.5118110236220472,
                    "duration": 0.3852820000000179
                },
                {
                    "name": "D6",
                    "midi": 86,
                    "time": 484.6847559999813,
                    "velocity": 0.4645669291338583,
                    "duration": 0.09632049999999026
                },
                {
                    "name": "C6",
                    "midi": 84,
                    "time": 484.7810764999813,
                    "velocity": 0.4645669291338583,
                    "duration": 0.09632049999999026
                },
                {
                    "name": "A#5",
                    "midi": 82,
                    "time": 484.8773969999813,
                    "velocity": 0.5118110236220472,
                    "duration": 0.3852820000000179
                },
                {
                    "name": "C6",
                    "midi": 84,
                    "time": 485.2626789999813,
                    "velocity": 0.44881889763779526,
                    "duration": 0.09632049999999026
                },
                {
                    "name": "A#5",
                    "midi": 82,
                    "time": 485.3589994999813,
                    "velocity": 0.44881889763779526,
                    "duration": 0.09632049999999026
                },
                {
                    "name": "A5",
                    "midi": 81,
                    "time": 485.45531999998127,
                    "velocity": 0.5118110236220472,
                    "duration": 0.3852820000000179
                },
                {
                    "name": "A#5",
                    "midi": 82,
                    "time": 485.8406019999813,
                    "velocity": 0.44881889763779526,
                    "duration": 0.09632049999999026
                },
                {
                    "name": "A5",
                    "midi": 81,
                    "time": 485.9369224999813,
                    "velocity": 0.44881889763779526,
                    "duration": 0.09632049999999026
                },
                {
                    "name": "G5",
                    "midi": 79,
                    "time": 486.03324299998127,
                    "velocity": 0.5118110236220472,
                    "duration": 0.3852820000000179
                },
                {
                    "name": "A5",
                    "midi": 81,
                    "time": 486.4185249999813,
                    "velocity": 0.4645669291338583,
                    "duration": 0.09632049999999026
                },
                {
                    "name": "G5",
                    "midi": 79,
                    "time": 486.5148454999813,
                    "velocity": 0.4645669291338583,
                    "duration": 0.09632049999999026
                },
                {
                    "name": "F5",
                    "midi": 77,
                    "time": 486.61116599998127,
                    "velocity": 0.5118110236220472,
                    "duration": 0.3852820000000179
                },
                {
                    "name": "G5",
                    "midi": 79,
                    "time": 486.9964479999813,
                    "velocity": 0.4645669291338583,
                    "duration": 0.09632049999999026
                },
                {
                    "name": "F5",
                    "midi": 77,
                    "time": 487.0927684999813,
                    "velocity": 0.4645669291338583,
                    "duration": 0.09632049999999026
                },
                {
                    "name": "E5",
                    "midi": 76,
                    "time": 487.18908899998127,
                    "velocity": 0.5118110236220472,
                    "duration": 0.3852820000000179
                },
                {
                    "name": "F5",
                    "midi": 77,
                    "time": 487.5743709999813,
                    "velocity": 0.4409448818897638,
                    "duration": 0.09632049999999026
                },
                {
                    "name": "E5",
                    "midi": 76,
                    "time": 487.6706914999813,
                    "velocity": 0.4409448818897638,
                    "duration": 0.09632049999999026
                },
                {
                    "name": "G5",
                    "midi": 79,
                    "time": 487.76701199998126,
                    "velocity": 0.4881889763779528,
                    "duration": 0.1059525499999836
                },
                {
                    "name": "F5",
                    "midi": 77,
                    "time": 487.86333249998125,
                    "velocity": 0.4251968503937008,
                    "duration": 0.1059525499999836
                },
                {
                    "name": "E5",
                    "midi": 76,
                    "time": 487.95965299998124,
                    "velocity": 0.4251968503937008,
                    "duration": 0.1059525499999836
                },
                {
                    "name": "F5",
                    "midi": 77,
                    "time": 488.05597349998123,
                    "velocity": 0.4251968503937008,
                    "duration": 0.1059525499999836
                },
                {
                    "name": "E5",
                    "midi": 76,
                    "time": 488.1522939999812,
                    "velocity": 0.41732283464566927,
                    "duration": 0.1059525499999836
                },
                {
                    "name": "F5",
                    "midi": 77,
                    "time": 488.2486144999812,
                    "velocity": 0.4330708661417323,
                    "duration": 0.1059525499999836
                },
                {
                    "name": "A5",
                    "midi": 81,
                    "time": 488.3449349999812,
                    "velocity": 0.4645669291338583,
                    "duration": 0.1059525499999836
                },
                {
                    "name": "G5",
                    "midi": 79,
                    "time": 488.4412554999812,
                    "velocity": 0.4330708661417323,
                    "duration": 0.1059525499999836
                },
                {
                    "name": "F#5",
                    "midi": 78,
                    "time": 488.5375759999812,
                    "velocity": 0.4330708661417323,
                    "duration": 0.1059525499999836
                },
                {
                    "name": "G5",
                    "midi": 79,
                    "time": 488.6338964999812,
                    "velocity": 0.4330708661417323,
                    "duration": 0.1059525499999836
                },
                {
                    "name": "F#5",
                    "midi": 78,
                    "time": 488.73021699998117,
                    "velocity": 0.4330708661417323,
                    "duration": 0.1059525499999836
                },
                {
                    "name": "G5",
                    "midi": 79,
                    "time": 488.82653749998116,
                    "velocity": 0.4330708661417323,
                    "duration": 0.1059525499999836
                },
                {
                    "name": "A5",
                    "midi": 81,
                    "time": 488.92285799998115,
                    "velocity": 0.4645669291338583,
                    "duration": 0.1059525499999836
                },
                {
                    "name": "G5",
                    "midi": 79,
                    "time": 489.01917849998114,
                    "velocity": 0.4251968503937008,
                    "duration": 0.1059525499999836
                },
                {
                    "name": "F5",
                    "midi": 77,
                    "time": 489.1154989999811,
                    "velocity": 0.4251968503937008,
                    "duration": 0.1059525499999836
                },
                {
                    "name": "G5",
                    "midi": 79,
                    "time": 489.2118194999811,
                    "velocity": 0.4251968503937008,
                    "duration": 0.1059525499999836
                },
                {
                    "name": "A5",
                    "midi": 81,
                    "time": 489.3081399999811,
                    "velocity": 0.4251968503937008,
                    "duration": 0.1059525499999836
                },
                {
                    "name": "A#5",
                    "midi": 82,
                    "time": 489.4044604999811,
                    "velocity": 0.4251968503937008,
                    "duration": 0.1059525499999836
                },
                {
                    "name": "C6",
                    "midi": 84,
                    "time": 489.5007809999811,
                    "velocity": 0.4645669291338583,
                    "duration": 0.1059525499999836
                },
                {
                    "name": "A#5",
                    "midi": 82,
                    "time": 489.5971014999811,
                    "velocity": 0.4330708661417323,
                    "duration": 0.1059525499999836
                },
                {
                    "name": "A5",
                    "midi": 81,
                    "time": 489.69342199998107,
                    "velocity": 0.4330708661417323,
                    "duration": 0.1059525499999836
                },
                {
                    "name": "A#5",
                    "midi": 82,
                    "time": 489.78974249998106,
                    "velocity": 0.4330708661417323,
                    "duration": 0.1059525499999836
                },
                {
                    "name": "C6",
                    "midi": 84,
                    "time": 489.88606299998105,
                    "velocity": 0.4330708661417323,
                    "duration": 0.1059525499999836
                },
                {
                    "name": "C#6",
                    "midi": 85,
                    "time": 489.98238349998104,
                    "velocity": 0.4330708661417323,
                    "duration": 0.1059525499999836
                },
                {
                    "name": "D6",
                    "midi": 86,
                    "time": 490.07870399998103,
                    "velocity": 0.4645669291338583,
                    "duration": 0.09632049999999026
                },
                {
                    "name": "D5",
                    "midi": 74,
                    "time": 490.175024499981,
                    "velocity": 0.4330708661417323,
                    "duration": 0.1059525499999836
                },
                {
                    "name": "D6",
                    "midi": 86,
                    "time": 490.271344999981,
                    "velocity": 0.4330708661417323,
                    "duration": 0.1059525499999836
                },
                {
                    "name": "C6",
                    "midi": 84,
                    "time": 490.367665499981,
                    "velocity": 0.4330708661417323,
                    "duration": 0.1059525499999836
                },
                {
                    "name": "A#5",
                    "midi": 82,
                    "time": 490.463985999981,
                    "velocity": 0.4330708661417323,
                    "duration": 0.1059525499999836
                },
                {
                    "name": "A5",
                    "midi": 81,
                    "time": 490.560306499981,
                    "velocity": 0.4251968503937008,
                    "duration": 0.1059525499999836
                },
                {
                    "name": "G5",
                    "midi": 79,
                    "time": 490.656626999981,
                    "velocity": 0.4645669291338583,
                    "duration": 0.09632049999999026
                },
                {
                    "name": "F#5",
                    "midi": 78,
                    "time": 490.75294749998096,
                    "velocity": 0.4251968503937008,
                    "duration": 0.1059525499999836
                },
                {
                    "name": "G5",
                    "midi": 79,
                    "time": 490.84926799998095,
                    "velocity": 0.49606299212598426,
                    "duration": 0.1059525499999836
                },
                {
                    "name": "A5",
                    "midi": 81,
                    "time": 490.94558849998094,
                    "velocity": 0.4881889763779528,
                    "duration": 0.1059525499999836
                },
                {
                    "name": "A#5",
                    "midi": 82,
                    "time": 491.04190899998093,
                    "velocity": 0.47244094488188976,
                    "duration": 0.1059525499999836
                },
                {
                    "name": "B5",
                    "midi": 83,
                    "time": 491.1382294999809,
                    "velocity": 0.4645669291338583,
                    "duration": 0.1059525499999836
                },
                {
                    "name": "C6",
                    "midi": 84,
                    "time": 491.2345499999809,
                    "velocity": 0.4645669291338583,
                    "duration": 0.09632049999999026
                },
                {
                    "name": "C5",
                    "midi": 72,
                    "time": 491.3308704999809,
                    "velocity": 0.47244094488188976,
                    "duration": 0.09632049999999026
                },
                {
                    "name": "C6",
                    "midi": 84,
                    "time": 491.4271909999809,
                    "velocity": 0.47244094488188976,
                    "duration": 0.09632049999999026
                },
                {
                    "name": "A#5",
                    "midi": 82,
                    "time": 491.5235114999809,
                    "velocity": 0.47244094488188976,
                    "duration": 0.09632049999999026
                },
                {
                    "name": "A5",
                    "midi": 81,
                    "time": 491.6198319999809,
                    "velocity": 0.47244094488188976,
                    "duration": 0.09632049999999026
                },
                {
                    "name": "G5",
                    "midi": 79,
                    "time": 491.71615249998086,
                    "velocity": 0.4645669291338583,
                    "duration": 0.09632049999999026
                },
                {
                    "name": "F5",
                    "midi": 77,
                    "time": 491.81247299998086,
                    "velocity": 0.4645669291338583,
                    "duration": 0.09632049999999026
                },
                {
                    "name": "E5",
                    "midi": 76,
                    "time": 491.90879349998085,
                    "velocity": 0.4409448818897638,
                    "duration": 0.1059525499999836
                },
                {
                    "name": "F5",
                    "midi": 77,
                    "time": 492.00511399998084,
                    "velocity": 0.49606299212598426,
                    "duration": 0.1059525499999836
                },
                {
                    "name": "G5",
                    "midi": 79,
                    "time": 492.1014344999808,
                    "velocity": 0.4881889763779528,
                    "duration": 0.1059525499999836
                },
                {
                    "name": "G#5",
                    "midi": 80,
                    "time": 492.1977549999808,
                    "velocity": 0.47244094488188976,
                    "duration": 0.1059525499999836
                },
                {
                    "name": "A5",
                    "midi": 81,
                    "time": 492.2940754999808,
                    "velocity": 0.4645669291338583,
                    "duration": 0.09632049999999026
                },
                {
                    "name": "A#5",
                    "midi": 82,
                    "time": 492.3903959999808,
                    "velocity": 0.4645669291338583,
                    "duration": 0.09632049999999026
                },
                {
                    "name": "C6",
                    "midi": 84,
                    "time": 492.4867164999808,
                    "velocity": 0.47244094488188976,
                    "duration": 0.09632049999999026
                },
                {
                    "name": "A#5",
                    "midi": 82,
                    "time": 492.5830369999808,
                    "velocity": 0.47244094488188976,
                    "duration": 0.09632049999999026
                },
                {
                    "name": "A5",
                    "midi": 81,
                    "time": 492.67935749998077,
                    "velocity": 0.47244094488188976,
                    "duration": 0.09632049999999026
                },
                {
                    "name": "G5",
                    "midi": 79,
                    "time": 492.77567799998076,
                    "velocity": 0.47244094488188976,
                    "duration": 0.09632049999999026
                },
                {
                    "name": "F5",
                    "midi": 77,
                    "time": 492.87199849998075,
                    "velocity": 0.4645669291338583,
                    "duration": 0.09632049999999026
                },
                {
                    "name": "E5",
                    "midi": 76,
                    "time": 492.96831899998074,
                    "velocity": 0.4645669291338583,
                    "duration": 0.09632049999999026
                },
                {
                    "name": "F5",
                    "midi": 77,
                    "time": 493.06463949998073,
                    "velocity": 0.4409448818897638,
                    "duration": 0.1059525499999836
                },
                {
                    "name": "E5",
                    "midi": 76,
                    "time": 493.1609599999807,
                    "velocity": 0.49606299212598426,
                    "duration": 0.1059525499999836
                },
                {
                    "name": "D5",
                    "midi": 74,
                    "time": 493.2572804999807,
                    "velocity": 0.4881889763779528,
                    "duration": 0.1059525499999836
                },
                {
                    "name": "C5",
                    "midi": 72,
                    "time": 493.3536009999807,
                    "velocity": 0.47244094488188976,
                    "duration": 0.1059525499999836
                },
                {
                    "name": "A#4",
                    "midi": 70,
                    "time": 493.4499214999807,
                    "velocity": 0.4645669291338583,
                    "duration": 0.1059525499999836
                },
                {
                    "name": "A4",
                    "midi": 69,
                    "time": 493.5462419999807,
                    "velocity": 0.4409448818897638,
                    "duration": 0.09632049999999026
                },
                {
                    "name": "C5",
                    "midi": 72,
                    "time": 493.64256249998067,
                    "velocity": 0.48031496062992124,
                    "duration": 0.09632049999999026
                },
                {
                    "name": "F5",
                    "midi": 77,
                    "time": 493.73888299998066,
                    "velocity": 0.5354330708661418,
                    "duration": 0.09632049999999026
                },
                {
                    "name": "G5",
                    "midi": 79,
                    "time": 493.83520349998065,
                    "velocity": 0.4881889763779528,
                    "duration": 0.09632049999999026
                },
                {
                    "name": "F5",
                    "midi": 77,
                    "time": 493.93152399998064,
                    "velocity": 0.49606299212598426,
                    "duration": 0.09632049999999026
                },
                {
                    "name": "E5",
                    "midi": 76,
                    "time": 494.02784449998063,
                    "velocity": 0.49606299212598426,
                    "duration": 0.09632049999999026
                },
                {
                    "name": "D5",
                    "midi": 74,
                    "time": 494.1241649999806,
                    "velocity": 0.47244094488188976,
                    "duration": 0.09632049999999026
                },
                {
                    "name": "C5",
                    "midi": 72,
                    "time": 494.2204854999806,
                    "velocity": 0.41732283464566927,
                    "duration": 0.1059525499999836
                },
                {
                    "name": "A#4",
                    "midi": 70,
                    "time": 494.3168059999806,
                    "velocity": 0.4645669291338583,
                    "duration": 0.1059525499999836
                },
                {
                    "name": "A4",
                    "midi": 69,
                    "time": 494.4131264999806,
                    "velocity": 0.4251968503937008,
                    "duration": 0.1059525499999836
                },
                {
                    "name": "G4",
                    "midi": 67,
                    "time": 494.5094469999806,
                    "velocity": 0.4251968503937008,
                    "duration": 0.1059525499999836
                },
                {
                    "name": "F4",
                    "midi": 65,
                    "time": 494.6057674999806,
                    "velocity": 0.4251968503937008,
                    "duration": 0.1059525499999836
                },
                {
                    "name": "E4",
                    "midi": 64,
                    "time": 494.70208799998056,
                    "velocity": 0.4645669291338583,
                    "duration": 0.09632049999999026
                },
                {
                    "name": "F4",
                    "midi": 65,
                    "time": 494.79840849998055,
                    "velocity": 0.4566929133858268,
                    "duration": 0.1059525499999836
                },
                {
                    "name": "G4",
                    "midi": 67,
                    "time": 494.89472899998054,
                    "velocity": 0.4881889763779528,
                    "duration": 0.1059525499999836
                },
                {
                    "name": "F4",
                    "midi": 65,
                    "time": 494.99104949998053,
                    "velocity": 0.48031496062992124,
                    "duration": 0.1059525499999836
                },
                {
                    "name": "E4",
                    "midi": 64,
                    "time": 495.0873699999805,
                    "velocity": 0.47244094488188976,
                    "duration": 0.1059525499999836
                },
                {
                    "name": "D4",
                    "midi": 62,
                    "time": 495.1836904999805,
                    "velocity": 0.4645669291338583,
                    "duration": 0.1059525499999836
                },
                {
                    "name": "C4",
                    "midi": 60,
                    "time": 495.2800109999805,
                    "velocity": 0.44881889763779526,
                    "duration": 0.1059525499999836
                },
                {
                    "name": "G#4",
                    "midi": 68,
                    "time": 495.8579339999805,
                    "velocity": 0.3858267716535433,
                    "duration": 0.7705639999999789
                },
                {
                    "name": "G4",
                    "midi": 67,
                    "time": 496.6284979999805,
                    "velocity": 0.33858267716535434,
                    "duration": 0.09632049999999026
                },
                {
                    "name": "F4",
                    "midi": 65,
                    "time": 496.82113899998046,
                    "velocity": 0.33858267716535434,
                    "duration": 0.09632049999999026
                },
                {
                    "name": "B4",
                    "midi": 71,
                    "time": 497.01377999998044,
                    "velocity": 0.3858267716535433,
                    "duration": 0.3852820000000179
                },
                {
                    "name": "C5",
                    "midi": 72,
                    "time": 497.39906199998046,
                    "velocity": 0.33858267716535434,
                    "duration": 0.19264099999998052
                },
                {
                    "name": "G4",
                    "midi": 67,
                    "time": 497.59170299998044,
                    "velocity": 0.33858267716535434,
                    "duration": 0.3852820000000179
                },
                {
                    "name": "C#5",
                    "midi": 73,
                    "time": 498.16962599998044,
                    "velocity": 0.4566929133858268,
                    "duration": 0.7705639999999789
                },
                {
                    "name": "C5",
                    "midi": 72,
                    "time": 498.9401899999804,
                    "velocity": 0.3858267716535433,
                    "duration": 0.09632049999999026
                },
                {
                    "name": "A#4",
                    "midi": 70,
                    "time": 499.1328309999804,
                    "velocity": 0.3858267716535433,
                    "duration": 0.09632049999999026
                },
                {
                    "name": "G#4",
                    "midi": 68,
                    "time": 499.3254719999804,
                    "velocity": 0.47244094488188976,
                    "duration": 0.19264099999998052
                },
                {
                    "name": "A#4",
                    "midi": 70,
                    "time": 499.51811299998036,
                    "velocity": 0.33070866141732286,
                    "duration": 0.06421366666666017
                },
                {
                    "name": "G#4",
                    "midi": 68,
                    "time": 499.582326666647,
                    "velocity": 0.33070866141732286,
                    "duration": 0.06421366666666017
                },
                {
                    "name": "G4",
                    "midi": 67,
                    "time": 499.6465403333137,
                    "velocity": 0.33070866141732286,
                    "duration": 0.06421366666666017
                },
                {
                    "name": "G#4",
                    "midi": 68,
                    "time": 499.71075399998034,
                    "velocity": 0.4015748031496063,
                    "duration": 0.09632049999999026
                },
                {
                    "name": "A#4",
                    "midi": 70,
                    "time": 499.80707449998033,
                    "velocity": 0.3464566929133858,
                    "duration": 0.09632049999999026
                },
                {
                    "name": "C5",
                    "midi": 72,
                    "time": 499.9033949999803,
                    "velocity": 0.4015748031496063,
                    "duration": 0.3852820000000179
                },
                {
                    "name": "F5",
                    "midi": 77,
                    "time": 500.4813179999803,
                    "velocity": 0.5196850393700787,
                    "duration": 0.5779229999999984
                },
                {
                    "name": "D#5",
                    "midi": 75,
                    "time": 501.0592409999803,
                    "velocity": 0.4251968503937008,
                    "duration": 0.3852820000000179
                },
                {
                    "name": "F5",
                    "midi": 77,
                    "time": 501.44452299998034,
                    "velocity": 0.3937007874015748,
                    "duration": 0.19264099999998052
                },
                {
                    "name": "D#5",
                    "midi": 75,
                    "time": 501.6371639999803,
                    "velocity": 0.44881889763779526,
                    "duration": 0.3852820000000179
                },
                {
                    "name": "C#5",
                    "midi": 73,
                    "time": 502.02244599998033,
                    "velocity": 0.4094488188976378,
                    "duration": 0.19264099999998052
                },
                {
                    "name": "C5",
                    "midi": 72,
                    "time": 502.2150869999803,
                    "velocity": 0.4330708661417323,
                    "duration": 0.5779229999999984
                },
                {
                    "name": "A#4",
                    "midi": 70,
                    "time": 502.7930099999803,
                    "velocity": 0.4645669291338583,
                    "duration": 0.3852820000000179
                },
                {
                    "name": "G#4",
                    "midi": 68,
                    "time": 503.17829199998033,
                    "velocity": 0.41732283464566927,
                    "duration": 0.19264099999998052
                },
                {
                    "name": "G4",
                    "midi": 67,
                    "time": 503.3709329999803,
                    "velocity": 0.44881889763779526,
                    "duration": 0.3852820000000179
                },
                {
                    "name": "F4",
                    "midi": 65,
                    "time": 503.75621499998033,
                    "velocity": 0.3700787401574803,
                    "duration": 0.19264099999998052
                },
                {
                    "name": "G#4",
                    "midi": 68,
                    "time": 503.9488559999803,
                    "velocity": 0.41732283464566927,
                    "duration": 0.5779229999999984
                },
                {
                    "name": "G4",
                    "midi": 67,
                    "time": 504.5267789999803,
                    "velocity": 0.3543307086614173,
                    "duration": 0.19264099999998052
                },
                {
                    "name": "G#5",
                    "midi": 80,
                    "time": 505.1047019999803,
                    "velocity": 0.3858267716535433,
                    "duration": 0.7705639999999789
                },
                {
                    "name": "G#4",
                    "midi": 68,
                    "time": 505.1047019999803,
                    "velocity": 0.3228346456692913,
                    "duration": 0.7705639999999789
                },
                {
                    "name": "G4",
                    "midi": 67,
                    "time": 505.8752659999803,
                    "velocity": 0.28346456692913385,
                    "duration": 0.09632049999999026
                },
                {
                    "name": "G5",
                    "midi": 79,
                    "time": 505.8752659999803,
                    "velocity": 0.33858267716535434,
                    "duration": 0.09632049999999026
                },
                {
                    "name": "F5",
                    "midi": 77,
                    "time": 506.06790699998027,
                    "velocity": 0.33858267716535434,
                    "duration": 0.09632049999999026
                },
                {
                    "name": "F4",
                    "midi": 65,
                    "time": 506.06790699998027,
                    "velocity": 0.28346456692913385,
                    "duration": 0.09632049999999026
                },
                {
                    "name": "B4",
                    "midi": 71,
                    "time": 506.26054799998025,
                    "velocity": 0.3228346456692913,
                    "duration": 0.3852820000000179
                },
                {
                    "name": "B5",
                    "midi": 83,
                    "time": 506.26054799998025,
                    "velocity": 0.3858267716535433,
                    "duration": 0.3852820000000179
                },
                {
                    "name": "C6",
                    "midi": 84,
                    "time": 506.64582999998026,
                    "velocity": 0.33858267716535434,
                    "duration": 0.19264099999998052
                },
                {
                    "name": "C5",
                    "midi": 72,
                    "time": 506.64582999998026,
                    "velocity": 0.28346456692913385,
                    "duration": 0.19264099999998052
                },
                {
                    "name": "G4",
                    "midi": 67,
                    "time": 506.83847099998025,
                    "velocity": 0.28346456692913385,
                    "duration": 0.3852820000000179
                },
                {
                    "name": "G5",
                    "midi": 79,
                    "time": 506.83847099998025,
                    "velocity": 0.33858267716535434,
                    "duration": 0.3852820000000179
                },
                {
                    "name": "C#5",
                    "midi": 73,
                    "time": 507.41639399998024,
                    "velocity": 0.3858267716535433,
                    "duration": 0.7705639999999789
                },
                {
                    "name": "C#6",
                    "midi": 85,
                    "time": 507.41639399998024,
                    "velocity": 0.4566929133858268,
                    "duration": 0.7705639999999789
                },
                {
                    "name": "C5",
                    "midi": 72,
                    "time": 508.1869579999802,
                    "velocity": 0.3228346456692913,
                    "duration": 0.09632049999999026
                },
                {
                    "name": "C6",
                    "midi": 84,
                    "time": 508.1869579999802,
                    "velocity": 0.3858267716535433,
                    "duration": 0.09632049999999026
                },
                {
                    "name": "A#5",
                    "midi": 82,
                    "time": 508.3795989999802,
                    "velocity": 0.3858267716535433,
                    "duration": 0.09632049999999026
                },
                {
                    "name": "A#4",
                    "midi": 70,
                    "time": 508.3795989999802,
                    "velocity": 0.3228346456692913,
                    "duration": 0.09632049999999026
                },
                {
                    "name": "A5",
                    "midi": 81,
                    "time": 508.5722399999802,
                    "velocity": 0.47244094488188976,
                    "duration": 0.3852820000000179
                },
                {
                    "name": "A4",
                    "midi": 69,
                    "time": 508.5722399999802,
                    "velocity": 0.4015748031496063,
                    "duration": 0.3852820000000179
                },
                {
                    "name": "C6",
                    "midi": 84,
                    "time": 508.9575219999802,
                    "velocity": 0.4015748031496063,
                    "duration": 0.19264099999998052
                },
                {
                    "name": "C5",
                    "midi": 72,
                    "time": 508.9575219999802,
                    "velocity": 0.33858267716535434,
                    "duration": 0.19264099999998052
                },
                {
                    "name": "A#5",
                    "midi": 82,
                    "time": 509.1501629999802,
                    "velocity": 0.4015748031496063,
                    "duration": 0.3852820000000179
                },
                {
                    "name": "A#4",
                    "midi": 70,
                    "time": 509.1501629999802,
                    "velocity": 0.33858267716535434,
                    "duration": 0.3852820000000179
                },
                {
                    "name": "B5",
                    "midi": 83,
                    "time": 509.7280859999802,
                    "velocity": 0.5590551181102362,
                    "duration": 0.5779229999999984
                },
                {
                    "name": "B4",
                    "midi": 71,
                    "time": 509.7280859999802,
                    "velocity": 0.4409448818897638,
                    "duration": 0.5779229999999984
                },
                {
                    "name": "C5",
                    "midi": 72,
                    "time": 510.3060089999802,
                    "velocity": 0.4409448818897638,
                    "duration": 0.5779229999999984
                },
                {
                    "name": "C6",
                    "midi": 84,
                    "time": 510.3060089999802,
                    "velocity": 0.5590551181102362,
                    "duration": 0.5779229999999984
                },
                {
                    "name": "C#6",
                    "midi": 85,
                    "time": 510.8839319999802,
                    "velocity": 0.5433070866141733,
                    "duration": 0.5779229999999984
                },
                {
                    "name": "C#5",
                    "midi": 73,
                    "time": 510.8839319999802,
                    "velocity": 0.4251968503937008,
                    "duration": 0.5779229999999984
                },
                {
                    "name": "C5",
                    "midi": 72,
                    "time": 511.4618549999802,
                    "velocity": 0.4409448818897638,
                    "duration": 0.19264099999998052
                },
                {
                    "name": "C6",
                    "midi": 84,
                    "time": 511.4618549999802,
                    "velocity": 0.5590551181102362,
                    "duration": 0.19264099999998052
                },
                {
                    "name": "F6",
                    "midi": 89,
                    "time": 511.9434574999802,
                    "velocity": 0.41732283464566927,
                    "duration": 0.09632049999999026
                },
                {
                    "name": "C5",
                    "midi": 72,
                    "time": 512.0397779999802,
                    "velocity": 0.4015748031496063,
                    "duration": 0.5779230000000553
                },
                {
                    "name": "F5",
                    "midi": 77,
                    "time": 512.0397779999802,
                    "velocity": 0.5039370078740157,
                    "duration": 0.5297627500000317
                },
                {
                    "name": "G#5",
                    "midi": 80,
                    "time": 512.5695407499802,
                    "velocity": 0.31496062992125984,
                    "duration": 0.04816025000002355
                },
                {
                    "name": "E5",
                    "midi": 76,
                    "time": 512.6177009999802,
                    "velocity": 0.4015748031496063,
                    "duration": 0.5779230000000553
                },
                {
                    "name": "G5",
                    "midi": 79,
                    "time": 512.6177009999802,
                    "velocity": 0.4015748031496063,
                    "duration": 0.5779230000000553
                },
                {
                    "name": "F5",
                    "midi": 77,
                    "time": 513.1956239999803,
                    "velocity": 0.5826771653543307,
                    "duration": 0.0963205000000471
                },
                {
                    "name": "C5",
                    "midi": 72,
                    "time": 513.2919444999803,
                    "velocity": 0.4881889763779528,
                    "duration": 0.0963205000000471
                },
                {
                    "name": "B4",
                    "midi": 71,
                    "time": 513.3882649999804,
                    "velocity": 0.4881889763779528,
                    "duration": 0.0963205000000471
                },
                {
                    "name": "C5",
                    "midi": 72,
                    "time": 513.4845854999804,
                    "velocity": 0.4881889763779528,
                    "duration": 0.0963205000000471
                },
                {
                    "name": "D5",
                    "midi": 74,
                    "time": 513.5809059999805,
                    "velocity": 0.5433070866141733,
                    "duration": 0.0963205000000471
                },
                {
                    "name": "C5",
                    "midi": 72,
                    "time": 513.6772264999805,
                    "velocity": 0.4881889763779528,
                    "duration": 0.0963205000000471
                },
                {
                    "name": "A#4",
                    "midi": 70,
                    "time": 513.7735469999806,
                    "velocity": 0.5118110236220472,
                    "duration": 0.0963205000000471
                },
                {
                    "name": "C5",
                    "midi": 72,
                    "time": 513.8698674999806,
                    "velocity": 0.47244094488188976,
                    "duration": 0.0963205000000471
                },
                {
                    "name": "A#4",
                    "midi": 70,
                    "time": 513.9661879999807,
                    "velocity": 0.5118110236220472,
                    "duration": 0.0963205000000471
                },
                {
                    "name": "C5",
                    "midi": 72,
                    "time": 514.0625084999807,
                    "velocity": 0.4645669291338583,
                    "duration": 0.0963205000000471
                },
                {
                    "name": "A#4",
                    "midi": 70,
                    "time": 514.1588289999808,
                    "velocity": 0.5118110236220472,
                    "duration": 0.0963205000000471
                },
                {
                    "name": "C5",
                    "midi": 72,
                    "time": 514.2551494999808,
                    "velocity": 0.4645669291338583,
                    "duration": 0.0963205000000471
                },
                {
                    "name": "A4",
                    "midi": 69,
                    "time": 514.3514699999808,
                    "velocity": 0.5826771653543307,
                    "duration": 0.0963205000000471
                },
                {
                    "name": "C5",
                    "midi": 72,
                    "time": 514.4477904999809,
                    "velocity": 0.4881889763779528,
                    "duration": 0.0963205000000471
                },
                {
                    "name": "B4",
                    "midi": 71,
                    "time": 514.544110999981,
                    "velocity": 0.4881889763779528,
                    "duration": 0.0963205000000471
                },
                {
                    "name": "C5",
                    "midi": 72,
                    "time": 514.640431499981,
                    "velocity": 0.4881889763779528,
                    "duration": 0.0963205000000471
                },
                {
                    "name": "F5",
                    "midi": 77,
                    "time": 514.736751999981,
                    "velocity": 0.5826771653543307,
                    "duration": 0.0963205000000471
                },
                {
                    "name": "C5",
                    "midi": 72,
                    "time": 514.8330724999811,
                    "velocity": 0.4881889763779528,
                    "duration": 0.0963205000000471
                },
                {
                    "name": "A#4",
                    "midi": 70,
                    "time": 514.9293929999811,
                    "velocity": 0.5118110236220472,
                    "duration": 0.0963205000000471
                },
                {
                    "name": "C5",
                    "midi": 72,
                    "time": 515.0257134999812,
                    "velocity": 0.47244094488188976,
                    "duration": 0.0963205000000471
                },
                {
                    "name": "A#4",
                    "midi": 70,
                    "time": 515.1220339999812,
                    "velocity": 0.5118110236220472,
                    "duration": 0.0963205000000471
                },
                {
                    "name": "C5",
                    "midi": 72,
                    "time": 515.2183544999813,
                    "velocity": 0.4645669291338583,
                    "duration": 0.0963205000000471
                },
                {
                    "name": "A#4",
                    "midi": 70,
                    "time": 515.3146749999813,
                    "velocity": 0.5118110236220472,
                    "duration": 0.0963205000000471
                },
                {
                    "name": "C5",
                    "midi": 72,
                    "time": 515.4109954999814,
                    "velocity": 0.4645669291338583,
                    "duration": 0.0963205000000471
                },
                {
                    "name": "A4",
                    "midi": 69,
                    "time": 515.5073159999814,
                    "velocity": 0.5826771653543307,
                    "duration": 0.0963205000000471
                },
                {
                    "name": "C6",
                    "midi": 84,
                    "time": 515.6036364999815,
                    "velocity": 0.4881889763779528,
                    "duration": 0.0963205000000471
                },
                {
                    "name": "B5",
                    "midi": 83,
                    "time": 515.6999569999815,
                    "velocity": 0.4881889763779528,
                    "duration": 0.0963205000000471
                },
                {
                    "name": "C6",
                    "midi": 84,
                    "time": 515.7962774999816,
                    "velocity": 0.4881889763779528,
                    "duration": 0.0963205000000471
                },
                {
                    "name": "D6",
                    "midi": 86,
                    "time": 515.8925979999816,
                    "velocity": 0.5669291338582677,
                    "duration": 0.0963205000000471
                },
                {
                    "name": "C6",
                    "midi": 84,
                    "time": 515.9889184999817,
                    "velocity": 0.4881889763779528,
                    "duration": 0.0963205000000471
                },
                {
                    "name": "A#5",
                    "midi": 82,
                    "time": 516.0852389999817,
                    "velocity": 0.5118110236220472,
                    "duration": 0.0963205000000471
                },
                {
                    "name": "C6",
                    "midi": 84,
                    "time": 516.1815594999817,
                    "velocity": 0.47244094488188976,
                    "duration": 0.0963205000000471
                },
                {
                    "name": "A#5",
                    "midi": 82,
                    "time": 516.2778799999818,
                    "velocity": 0.5118110236220472,
                    "duration": 0.0963205000000471
                },
                {
                    "name": "C6",
                    "midi": 84,
                    "time": 516.3742004999818,
                    "velocity": 0.4645669291338583,
                    "duration": 0.0963205000000471
                },
                {
                    "name": "A#5",
                    "midi": 82,
                    "time": 516.4705209999819,
                    "velocity": 0.5118110236220472,
                    "duration": 0.0963205000000471
                },
                {
                    "name": "C6",
                    "midi": 84,
                    "time": 516.5668414999819,
                    "velocity": 0.4645669291338583,
                    "duration": 0.0963205000000471
                },
                {
                    "name": "A5",
                    "midi": 81,
                    "time": 516.663161999982,
                    "velocity": 0.5826771653543307,
                    "duration": 0.0963205000000471
                },
                {
                    "name": "C6",
                    "midi": 84,
                    "time": 516.759482499982,
                    "velocity": 0.4881889763779528,
                    "duration": 0.0963205000000471
                },
                {
                    "name": "B5",
                    "midi": 83,
                    "time": 516.8558029999821,
                    "velocity": 0.4881889763779528,
                    "duration": 0.0963205000000471
                },
                {
                    "name": "C6",
                    "midi": 84,
                    "time": 516.9521234999821,
                    "velocity": 0.4881889763779528,
                    "duration": 0.0963205000000471
                },
                {
                    "name": "F6",
                    "midi": 89,
                    "time": 517.0484439999822,
                    "velocity": 0.5433070866141733,
                    "duration": 0.0963205000000471
                },
                {
                    "name": "C6",
                    "midi": 84,
                    "time": 517.1447644999822,
                    "velocity": 0.4881889763779528,
                    "duration": 0.0963205000000471
                },
                {
                    "name": "A#5",
                    "midi": 82,
                    "time": 517.2410849999823,
                    "velocity": 0.5118110236220472,
                    "duration": 0.0963205000000471
                },
                {
                    "name": "C6",
                    "midi": 84,
                    "time": 517.3374054999823,
                    "velocity": 0.47244094488188976,
                    "duration": 0.0963205000000471
                },
                {
                    "name": "A#5",
                    "midi": 82,
                    "time": 517.4337259999824,
                    "velocity": 0.5118110236220472,
                    "duration": 0.0963205000000471
                },
                {
                    "name": "C6",
                    "midi": 84,
                    "time": 517.5300464999824,
                    "velocity": 0.4645669291338583,
                    "duration": 0.0963205000000471
                },
                {
                    "name": "A#5",
                    "midi": 82,
                    "time": 517.6263669999825,
                    "velocity": 0.5118110236220472,
                    "duration": 0.0963205000000471
                },
                {
                    "name": "C6",
                    "midi": 84,
                    "time": 517.7226874999825,
                    "velocity": 0.4645669291338583,
                    "duration": 0.0963205000000471
                },
                {
                    "name": "A5",
                    "midi": 81,
                    "time": 517.8190079999825,
                    "velocity": 0.5826771653543307,
                    "duration": 0.0963205000000471
                },
                {
                    "name": "C6",
                    "midi": 84,
                    "time": 517.9153284999826,
                    "velocity": 0.4881889763779528,
                    "duration": 0.0963205000000471
                },
                {
                    "name": "F6",
                    "midi": 89,
                    "time": 518.0116489999826,
                    "velocity": 0.5590551181102362,
                    "duration": 0.0963205000000471
                },
                {
                    "name": "A5",
                    "midi": 81,
                    "time": 518.1079694999827,
                    "velocity": 0.47244094488188976,
                    "duration": 0.0963205000000471
                },
                {
                    "name": "G5",
                    "midi": 79,
                    "time": 518.2042899999827,
                    "velocity": 0.5511811023622047,
                    "duration": 0.0963205000000471
                },
                {
                    "name": "E6",
                    "midi": 88,
                    "time": 518.3006104999828,
                    "velocity": 0.4881889763779528,
                    "duration": 0.0963205000000471
                },
                {
                    "name": "F5",
                    "midi": 77,
                    "time": 518.3969309999828,
                    "velocity": 0.5511811023622047,
                    "duration": 0.0963205000000471
                },
                {
                    "name": "D6",
                    "midi": 86,
                    "time": 518.4932514999829,
                    "velocity": 0.4881889763779528,
                    "duration": 0.0963205000000471
                },
                {
                    "name": "E5",
                    "midi": 76,
                    "time": 518.5895719999829,
                    "velocity": 0.5433070866141733,
                    "duration": 0.0963205000000471
                },
                {
                    "name": "C6",
                    "midi": 84,
                    "time": 518.685892499983,
                    "velocity": 0.47244094488188976,
                    "duration": 0.0963205000000471
                },
                {
                    "name": "D5",
                    "midi": 74,
                    "time": 518.782212999983,
                    "velocity": 0.5275590551181102,
                    "duration": 0.0963205000000471
                },
                {
                    "name": "A#5",
                    "midi": 82,
                    "time": 518.8785334999831,
                    "velocity": 0.4566929133858268,
                    "duration": 0.0963205000000471
                },
                {
                    "name": "C5",
                    "midi": 72,
                    "time": 518.9748539999831,
                    "velocity": 0.5433070866141733,
                    "duration": 0.0963205000000471
                },
                {
                    "name": "A5",
                    "midi": 81,
                    "time": 519.0711744999832,
                    "velocity": 0.4881889763779528,
                    "duration": 0.0963205000000471
                },
                {
                    "name": "A#4",
                    "midi": 70,
                    "time": 519.1674949999832,
                    "velocity": 0.5275590551181102,
                    "duration": 0.0963205000000471
                },
                {
                    "name": "G5",
                    "midi": 79,
                    "time": 519.2638154999833,
                    "velocity": 0.4645669291338583,
                    "duration": 0.0963205000000471
                },
                {
                    "name": "A4",
                    "midi": 69,
                    "time": 519.3601359999833,
                    "velocity": 0.5196850393700787,
                    "duration": 0.0963205000000471
                },
                {
                    "name": "F5",
                    "midi": 77,
                    "time": 519.4564564999833,
                    "velocity": 0.4409448818897638,
                    "duration": 0.0963205000000471
                },
                {
                    "name": "G4",
                    "midi": 67,
                    "time": 519.5527769999834,
                    "velocity": 0.4881889763779528,
                    "duration": 0.0963205000000471
                },
                {
                    "name": "E5",
                    "midi": 76,
                    "time": 519.6490974999834,
                    "velocity": 0.4251968503937008,
                    "duration": 0.0963205000000471
                },
                {
                    "name": "F4",
                    "midi": 65,
                    "time": 519.7454179999835,
                    "velocity": 0.49606299212598426,
                    "duration": 0.0963205000000471
                },
                {
                    "name": "D5",
                    "midi": 74,
                    "time": 519.8417384999835,
                    "velocity": 0.4330708661417323,
                    "duration": 0.0963205000000471
                },
                {
                    "name": "E4",
                    "midi": 64,
                    "time": 519.9380589999836,
                    "velocity": 0.4881889763779528,
                    "duration": 0.0963205000000471
                },
                {
                    "name": "C5",
                    "midi": 72,
                    "time": 520.0343794999836,
                    "velocity": 0.4015748031496063,
                    "duration": 0.0963205000000471
                },
                {
                    "name": "B4",
                    "midi": 71,
                    "time": 520.1306999999837,
                    "velocity": 0.4330708661417323,
                    "duration": 0.5779230000000553
                },
                {
                    "name": "D4",
                    "midi": 62,
                    "time": 520.1306999999837,
                    "velocity": 0.3543307086614173,
                    "duration": 0.5779230000000553
                },
                {
                    "name": "A#4",
                    "midi": 70,
                    "time": 520.7086229999837,
                    "velocity": 0.4330708661417323,
                    "duration": 0.5779230000000553
                },
                {
                    "name": "C#4",
                    "midi": 61,
                    "time": 520.7086229999837,
                    "velocity": 0.3543307086614173,
                    "duration": 0.5779230000000553
                },
                {
                    "name": "A#5",
                    "midi": 82,
                    "time": 521.2865459999838,
                    "velocity": 0.4330708661417323,
                    "duration": 0.5779230000000553
                },
                {
                    "name": "C#5",
                    "midi": 73,
                    "time": 521.2865459999838,
                    "velocity": 0.3543307086614173,
                    "duration": 0.5779230000000553
                },
                {
                    "name": "E5",
                    "midi": 76,
                    "time": 521.8644689999838,
                    "velocity": 0.4330708661417323,
                    "duration": 0.5779230000000553
                },
                {
                    "name": "G4",
                    "midi": 67,
                    "time": 521.8644689999838,
                    "velocity": 0.3543307086614173,
                    "duration": 0.5779230000000553
                },
                {
                    "name": "C6",
                    "midi": 84,
                    "time": 522.6350329999839,
                    "velocity": 0.3858267716535433,
                    "duration": 0.0963205000000471
                },
                {
                    "name": "C6",
                    "midi": 84,
                    "time": 522.827673999984,
                    "velocity": 0.3858267716535433,
                    "duration": 0.0963205000000471
                },
                {
                    "name": "D6",
                    "midi": 86,
                    "time": 523.212955999984,
                    "velocity": 0.3858267716535433,
                    "duration": 0.0963205000000471
                },
                {
                    "name": "D6",
                    "midi": 86,
                    "time": 523.4055969999841,
                    "velocity": 0.3858267716535433,
                    "duration": 0.0963205000000471
                },
                {
                    "name": "C5",
                    "midi": 72,
                    "time": 523.5982379999842,
                    "velocity": 0.30708661417322836,
                    "duration": 0.5297627500000317
                },
                {
                    "name": "F5",
                    "midi": 77,
                    "time": 523.5982379999842,
                    "velocity": 0.3700787401574803,
                    "duration": 0.5297627500000317
                },
                {
                    "name": "A5",
                    "midi": 81,
                    "time": 524.1280007499843,
                    "velocity": 0.31496062992125984,
                    "duration": 0.04816025000002355
                },
                {
                    "name": "G5",
                    "midi": 79,
                    "time": 524.1761609999843,
                    "velocity": 0.3464566929133858,
                    "duration": 0.5779230000000553
                },
                {
                    "name": "E5",
                    "midi": 76,
                    "time": 524.1761609999843,
                    "velocity": 0.29133858267716534,
                    "duration": 0.5779230000000553
                },
                {
                    "name": "F5",
                    "midi": 77,
                    "time": 524.7540839999843,
                    "velocity": 0.5826771653543307,
                    "duration": 0.0963205000000471
                },
                {
                    "name": "C5",
                    "midi": 72,
                    "time": 524.8504044999844,
                    "velocity": 0.4881889763779528,
                    "duration": 0.0963205000000471
                },
                {
                    "name": "B4",
                    "midi": 71,
                    "time": 524.9467249999844,
                    "velocity": 0.4881889763779528,
                    "duration": 0.0963205000000471
                },
                {
                    "name": "C5",
                    "midi": 72,
                    "time": 525.0430454999845,
                    "velocity": 0.4881889763779528,
                    "duration": 0.0963205000000471
                },
                {
                    "name": "D5",
                    "midi": 74,
                    "time": 525.1393659999845,
                    "velocity": 0.5354330708661418,
                    "duration": 0.0963205000000471
                },
                {
                    "name": "C5",
                    "midi": 72,
                    "time": 525.2356864999846,
                    "velocity": 0.4881889763779528,
                    "duration": 0.0963205000000471
                },
                {
                    "name": "A#4",
                    "midi": 70,
                    "time": 525.3320069999846,
                    "velocity": 0.5118110236220472,
                    "duration": 0.0963205000000471
                },
                {
                    "name": "C5",
                    "midi": 72,
                    "time": 525.4283274999847,
                    "velocity": 0.47244094488188976,
                    "duration": 0.0963205000000471
                },
                {
                    "name": "A#4",
                    "midi": 70,
                    "time": 525.5246479999847,
                    "velocity": 0.5118110236220472,
                    "duration": 0.0963205000000471
                },
                {
                    "name": "C5",
                    "midi": 72,
                    "time": 525.6209684999848,
                    "velocity": 0.4645669291338583,
                    "duration": 0.0963205000000471
                },
                {
                    "name": "A#4",
                    "midi": 70,
                    "time": 525.7172889999848,
                    "velocity": 0.5118110236220472,
                    "duration": 0.0963205000000471
                },
                {
                    "name": "C5",
                    "midi": 72,
                    "time": 525.8136094999849,
                    "velocity": 0.4645669291338583,
                    "duration": 0.0963205000000471
                },
                {
                    "name": "A4",
                    "midi": 69,
                    "time": 525.9099299999849,
                    "velocity": 0.5826771653543307,
                    "duration": 0.0963205000000471
                },
                {
                    "name": "C5",
                    "midi": 72,
                    "time": 526.006250499985,
                    "velocity": 0.4881889763779528,
                    "duration": 0.0963205000000471
                },
                {
                    "name": "B4",
                    "midi": 71,
                    "time": 526.102570999985,
                    "velocity": 0.4881889763779528,
                    "duration": 0.0963205000000471
                },
                {
                    "name": "C5",
                    "midi": 72,
                    "time": 526.198891499985,
                    "velocity": 0.4881889763779528,
                    "duration": 0.0963205000000471
                },
                {
                    "name": "F5",
                    "midi": 77,
                    "time": 526.2952119999851,
                    "velocity": 0.5826771653543307,
                    "duration": 0.0963205000000471
                },
                {
                    "name": "C5",
                    "midi": 72,
                    "time": 526.3915324999851,
                    "velocity": 0.4881889763779528,
                    "duration": 0.0963205000000471
                },
                {
                    "name": "A#4",
                    "midi": 70,
                    "time": 526.4878529999852,
                    "velocity": 0.5118110236220472,
                    "duration": 0.0963205000000471
                },
                {
                    "name": "C5",
                    "midi": 72,
                    "time": 526.5841734999852,
                    "velocity": 0.47244094488188976,
                    "duration": 0.0963205000000471
                },
                {
                    "name": "A#4",
                    "midi": 70,
                    "time": 526.6804939999853,
                    "velocity": 0.5118110236220472,
                    "duration": 0.0963205000000471
                },
                {
                    "name": "C5",
                    "midi": 72,
                    "time": 526.7768144999853,
                    "velocity": 0.4645669291338583,
                    "duration": 0.0963205000000471
                },
                {
                    "name": "A#4",
                    "midi": 70,
                    "time": 526.8731349999854,
                    "velocity": 0.5118110236220472,
                    "duration": 0.0963205000000471
                },
                {
                    "name": "C5",
                    "midi": 72,
                    "time": 526.9694554999854,
                    "velocity": 0.4645669291338583,
                    "duration": 0.0963205000000471
                },
                {
                    "name": "A4",
                    "midi": 69,
                    "time": 527.0657759999855,
                    "velocity": 0.5826771653543307,
                    "duration": 0.0963205000000471
                },
                {
                    "name": "C6",
                    "midi": 84,
                    "time": 527.1620964999855,
                    "velocity": 0.4881889763779528,
                    "duration": 0.0963205000000471
                },
                {
                    "name": "B5",
                    "midi": 83,
                    "time": 527.2584169999856,
                    "velocity": 0.4881889763779528,
                    "duration": 0.0963205000000471
                },
                {
                    "name": "C6",
                    "midi": 84,
                    "time": 527.3547374999856,
                    "velocity": 0.4881889763779528,
                    "duration": 0.0963205000000471
                },
                {
                    "name": "D6",
                    "midi": 86,
                    "time": 527.4510579999857,
                    "velocity": 0.5669291338582677,
                    "duration": 0.0963205000000471
                },
                {
                    "name": "C6",
                    "midi": 84,
                    "time": 527.5473784999857,
                    "velocity": 0.4881889763779528,
                    "duration": 0.0963205000000471
                },
                {
                    "name": "A#5",
                    "midi": 82,
                    "time": 527.6436989999858,
                    "velocity": 0.5118110236220472,
                    "duration": 0.0963205000000471
                },
                {
                    "name": "C6",
                    "midi": 84,
                    "time": 527.7400194999858,
                    "velocity": 0.47244094488188976,
                    "duration": 0.0963205000000471
                },
                {
                    "name": "A#5",
                    "midi": 82,
                    "time": 527.8363399999859,
                    "velocity": 0.5118110236220472,
                    "duration": 0.0963205000000471
                },
                {
                    "name": "C6",
                    "midi": 84,
                    "time": 527.9326604999859,
                    "velocity": 0.4645669291338583,
                    "duration": 0.0963205000000471
                },
                {
                    "name": "A#5",
                    "midi": 82,
                    "time": 528.028980999986,
                    "velocity": 0.5118110236220472,
                    "duration": 0.0963205000000471
                },
                {
                    "name": "C6",
                    "midi": 84,
                    "time": 528.125301499986,
                    "velocity": 0.4645669291338583,
                    "duration": 0.0963205000000471
                },
                {
                    "name": "A5",
                    "midi": 81,
                    "time": 528.221621999986,
                    "velocity": 0.5826771653543307,
                    "duration": 0.0963205000000471
                },
                {
                    "name": "C6",
                    "midi": 84,
                    "time": 528.3179424999861,
                    "velocity": 0.4881889763779528,
                    "duration": 0.0963205000000471
                },
                {
                    "name": "B5",
                    "midi": 83,
                    "time": 528.4142629999861,
                    "velocity": 0.4881889763779528,
                    "duration": 0.0963205000000471
                },
                {
                    "name": "C6",
                    "midi": 84,
                    "time": 528.5105834999862,
                    "velocity": 0.4881889763779528,
                    "duration": 0.0963205000000471
                },
                {
                    "name": "F6",
                    "midi": 89,
                    "time": 528.6069039999862,
                    "velocity": 0.5669291338582677,
                    "duration": 0.0963205000000471
                },
                {
                    "name": "C6",
                    "midi": 84,
                    "time": 528.7032244999863,
                    "velocity": 0.4881889763779528,
                    "duration": 0.0963205000000471
                },
                {
                    "name": "A#5",
                    "midi": 82,
                    "time": 528.7995449999863,
                    "velocity": 0.5118110236220472,
                    "duration": 0.0963205000000471
                },
                {
                    "name": "C6",
                    "midi": 84,
                    "time": 528.8958654999864,
                    "velocity": 0.47244094488188976,
                    "duration": 0.0963205000000471
                },
                {
                    "name": "A#5",
                    "midi": 82,
                    "time": 528.9921859999864,
                    "velocity": 0.5118110236220472,
                    "duration": 0.0963205000000471
                },
                {
                    "name": "C6",
                    "midi": 84,
                    "time": 529.0885064999865,
                    "velocity": 0.4645669291338583,
                    "duration": 0.0963205000000471
                },
                {
                    "name": "A#5",
                    "midi": 82,
                    "time": 529.1848269999865,
                    "velocity": 0.5118110236220472,
                    "duration": 0.0963205000000471
                },
                {
                    "name": "C6",
                    "midi": 84,
                    "time": 529.2811474999866,
                    "velocity": 0.4645669291338583,
                    "duration": 0.0963205000000471
                },
                {
                    "name": "A5",
                    "midi": 81,
                    "time": 529.3774679999866,
                    "velocity": 0.5826771653543307,
                    "duration": 0.0963205000000471
                },
                {
                    "name": "C6",
                    "midi": 84,
                    "time": 529.4737884999867,
                    "velocity": 0.4881889763779528,
                    "duration": 0.0963205000000471
                },
                {
                    "name": "F6",
                    "midi": 89,
                    "time": 529.5701089999867,
                    "velocity": 0.5590551181102362,
                    "duration": 0.0963205000000471
                },
                {
                    "name": "A5",
                    "midi": 81,
                    "time": 529.6664294999867,
                    "velocity": 0.47244094488188976,
                    "duration": 0.0963205000000471
                },
                {
                    "name": "G5",
                    "midi": 79,
                    "time": 529.7627499999868,
                    "velocity": 0.5511811023622047,
                    "duration": 0.0963205000000471
                },
                {
                    "name": "E6",
                    "midi": 88,
                    "time": 529.8590704999868,
                    "velocity": 0.4881889763779528,
                    "duration": 0.0963205000000471
                },
                {
                    "name": "F5",
                    "midi": 77,
                    "time": 529.9553909999869,
                    "velocity": 0.5511811023622047,
                    "duration": 0.0963205000000471
                },
                {
                    "name": "D6",
                    "midi": 86,
                    "time": 530.0517114999869,
                    "velocity": 0.4881889763779528,
                    "duration": 0.0963205000000471
                },
                {
                    "name": "E5",
                    "midi": 76,
                    "time": 530.148031999987,
                    "velocity": 0.5433070866141733,
                    "duration": 0.0963205000000471
                },
                {
                    "name": "C6",
                    "midi": 84,
                    "time": 530.244352499987,
                    "velocity": 0.47244094488188976,
                    "duration": 0.0963205000000471
                },
                {
                    "name": "D5",
                    "midi": 74,
                    "time": 530.3406729999871,
                    "velocity": 0.5275590551181102,
                    "duration": 0.0963205000000471
                },
                {
                    "name": "A#5",
                    "midi": 82,
                    "time": 530.4369934999871,
                    "velocity": 0.4566929133858268,
                    "duration": 0.0963205000000471
                },
                {
                    "name": "C5",
                    "midi": 72,
                    "time": 530.5333139999872,
                    "velocity": 0.5433070866141733,
                    "duration": 0.0963205000000471
                },
                {
                    "name": "A5",
                    "midi": 81,
                    "time": 530.6296344999872,
                    "velocity": 0.4881889763779528,
                    "duration": 0.0963205000000471
                },
                {
                    "name": "A#4",
                    "midi": 70,
                    "time": 530.7259549999873,
                    "velocity": 0.5275590551181102,
                    "duration": 0.0963205000000471
                },
                {
                    "name": "G5",
                    "midi": 79,
                    "time": 530.8222754999873,
                    "velocity": 0.4645669291338583,
                    "duration": 0.0963205000000471
                },
                {
                    "name": "A4",
                    "midi": 69,
                    "time": 530.9185959999874,
                    "velocity": 0.5196850393700787,
                    "duration": 0.0963205000000471
                },
                {
                    "name": "F5",
                    "midi": 77,
                    "time": 531.0149164999874,
                    "velocity": 0.4409448818897638,
                    "duration": 0.0963205000000471
                },
                {
                    "name": "G4",
                    "midi": 67,
                    "time": 531.1112369999875,
                    "velocity": 0.5039370078740157,
                    "duration": 0.0963205000000471
                },
                {
                    "name": "E5",
                    "midi": 76,
                    "time": 531.2075574999875,
                    "velocity": 0.4330708661417323,
                    "duration": 0.0963205000000471
                },
                {
                    "name": "F4",
                    "midi": 65,
                    "time": 531.3038779999875,
                    "velocity": 0.49606299212598426,
                    "duration": 0.0963205000000471
                },
                {
                    "name": "D5",
                    "midi": 74,
                    "time": 531.4001984999876,
                    "velocity": 0.4330708661417323,
                    "duration": 0.0963205000000471
                },
                {
                    "name": "E4",
                    "midi": 64,
                    "time": 531.4965189999876,
                    "velocity": 0.4881889763779528,
                    "duration": 0.0963205000000471
                },
                {
                    "name": "C5",
                    "midi": 72,
                    "time": 531.5928394999877,
                    "velocity": 0.4015748031496063,
                    "duration": 0.0963205000000471
                },
                {
                    "name": "B4",
                    "midi": 71,
                    "time": 531.6891599999877,
                    "velocity": 0.4330708661417323,
                    "duration": 0.5779230000000553
                },
                {
                    "name": "D4",
                    "midi": 62,
                    "time": 531.6891599999877,
                    "velocity": 0.3543307086614173,
                    "duration": 0.5779230000000553
                },
                {
                    "name": "A#4",
                    "midi": 70,
                    "time": 532.2670829999878,
                    "velocity": 0.4330708661417323,
                    "duration": 0.5779230000000553
                },
                {
                    "name": "C#4",
                    "midi": 61,
                    "time": 532.2670829999878,
                    "velocity": 0.3543307086614173,
                    "duration": 0.5779230000000553
                },
                {
                    "name": "A#5",
                    "midi": 82,
                    "time": 532.8450059999878,
                    "velocity": 0.4330708661417323,
                    "duration": 0.5779230000000553
                },
                {
                    "name": "C#5",
                    "midi": 73,
                    "time": 532.8450059999878,
                    "velocity": 0.3543307086614173,
                    "duration": 0.5779230000000553
                },
                {
                    "name": "E5",
                    "midi": 76,
                    "time": 533.4229289999879,
                    "velocity": 0.4330708661417323,
                    "duration": 0.5779230000000553
                },
                {
                    "name": "G4",
                    "midi": 67,
                    "time": 533.4229289999879,
                    "velocity": 0.3543307086614173,
                    "duration": 0.5779230000000553
                },
                {
                    "name": "C6",
                    "midi": 84,
                    "time": 534.1934929999879,
                    "velocity": 0.3858267716535433,
                    "duration": 0.0963205000000471
                },
                {
                    "name": "C6",
                    "midi": 84,
                    "time": 534.386133999988,
                    "velocity": 0.3858267716535433,
                    "duration": 0.0963205000000471
                },
                {
                    "name": "D6",
                    "midi": 86,
                    "time": 534.7714159999881,
                    "velocity": 0.3858267716535433,
                    "duration": 0.0963205000000471
                },
                {
                    "name": "D6",
                    "midi": 86,
                    "time": 534.9640569999882,
                    "velocity": 0.3858267716535433,
                    "duration": 0.0963205000000471
                },
                {
                    "name": "C5",
                    "midi": 72,
                    "time": 535.1566979999883,
                    "velocity": 0.30708661417322836,
                    "duration": 1.1558460000001105
                },
                {
                    "name": "F5",
                    "midi": 77,
                    "time": 535.1566979999883,
                    "velocity": 0.3700787401574803,
                    "duration": 0.5779230000000553
                },
                {
                    "name": "E5",
                    "midi": 76,
                    "time": 535.7346209999884,
                    "velocity": 0.29133858267716534,
                    "duration": 0.5779230000000553
                },
                {
                    "name": "B5",
                    "midi": 83,
                    "time": 536.3125439999884,
                    "velocity": 0.5590551181102362,
                    "duration": 0.0963205000000471
                },
                {
                    "name": "C6",
                    "midi": 84,
                    "time": 536.4088644999885,
                    "velocity": 0.4330708661417323,
                    "duration": 0.10595255000009729
                },
                {
                    "name": "B5",
                    "midi": 83,
                    "time": 536.5051849999885,
                    "velocity": 0.4330708661417323,
                    "duration": 0.10595255000009729
                },
                {
                    "name": "C6",
                    "midi": 84,
                    "time": 536.6015054999885,
                    "velocity": 0.4330708661417323,
                    "duration": 0.10595255000009729
                },
                {
                    "name": "B5",
                    "midi": 83,
                    "time": 536.6978259999886,
                    "velocity": 0.4330708661417323,
                    "duration": 0.10595255000009729
                },
                {
                    "name": "C6",
                    "midi": 84,
                    "time": 536.7941464999886,
                    "velocity": 0.4330708661417323,
                    "duration": 0.0963205000000471
                },
                {
                    "name": "C#6",
                    "midi": 85,
                    "time": 536.8904669999887,
                    "velocity": 0.4881889763779528,
                    "duration": 0.10595255000009729
                },
                {
                    "name": "D6",
                    "midi": 86,
                    "time": 536.9867874999887,
                    "velocity": 0.4330708661417323,
                    "duration": 0.10595255000009729
                },
                {
                    "name": "C#6",
                    "midi": 85,
                    "time": 537.0831079999888,
                    "velocity": 0.4330708661417323,
                    "duration": 0.10595255000009729
                },
                {
                    "name": "D6",
                    "midi": 86,
                    "time": 537.1794284999888,
                    "velocity": 0.4330708661417323,
                    "duration": 0.10595255000009729
                },
                {
                    "name": "E6",
                    "midi": 88,
                    "time": 537.2757489999889,
                    "velocity": 0.4645669291338583,
                    "duration": 0.10595255000009729
                },
                {
                    "name": "F6",
                    "midi": 89,
                    "time": 537.3720694999889,
                    "velocity": 0.4251968503937008,
                    "duration": 0.0963205000000471
                },
                {
                    "name": "C5",
                    "midi": 72,
                    "time": 537.468389999989,
                    "velocity": 0.30708661417322836,
                    "duration": 0.5779230000000553
                },
                {
                    "name": "F5",
                    "midi": 77,
                    "time": 537.468389999989,
                    "velocity": 0.3700787401574803,
                    "duration": 0.5297627500000317
                },
                {
                    "name": "A5",
                    "midi": 81,
                    "time": 537.998152749989,
                    "velocity": 0.29133858267716534,
                    "duration": 0.04816025000002355
                },
                {
                    "name": "G5",
                    "midi": 79,
                    "time": 538.046312999989,
                    "velocity": 0.33858267716535434,
                    "duration": 0.48160250000000815
                },
                {
                    "name": "E5",
                    "midi": 76,
                    "time": 538.046312999989,
                    "velocity": 0.33858267716535434,
                    "duration": 0.38528199999996104
                },
                {
                    "name": "F5",
                    "midi": 77,
                    "time": 538.527915499989,
                    "velocity": 0.29133858267716534,
                    "duration": 0.0963205000000471
                },
                {
                    "name": "F5",
                    "midi": 77,
                    "time": 538.6242359999891,
                    "velocity": 0.5590551181102362,
                    "duration": 0.10595255000009729
                },
                {
                    "name": "A5",
                    "midi": 81,
                    "time": 538.7205564999891,
                    "velocity": 0.5039370078740157,
                    "duration": 0.10595255000009729
                },
                {
                    "name": "C6",
                    "midi": 84,
                    "time": 538.8168769999892,
                    "velocity": 0.5275590551181102,
                    "duration": 0.10595255000009729
                },
                {
                    "name": "F6",
                    "midi": 89,
                    "time": 538.9131974999892,
                    "velocity": 0.5354330708661418,
                    "duration": 0.10595255000009729
                },
                {
                    "name": "E6",
                    "midi": 88,
                    "time": 539.0095179999893,
                    "velocity": 0.5433070866141733,
                    "duration": 0.10595255000009729
                },
                {
                    "name": "D6",
                    "midi": 86,
                    "time": 539.1058384999893,
                    "velocity": 0.5433070866141733,
                    "duration": 0.10595255000009729
                },
                {
                    "name": "C6",
                    "midi": 84,
                    "time": 539.2021589999894,
                    "velocity": 0.5590551181102362,
                    "duration": 0.10595255000009729
                },
                {
                    "name": "D6",
                    "midi": 86,
                    "time": 539.2984794999894,
                    "velocity": 0.5275590551181102,
                    "duration": 0.10595255000009729
                },
                {
                    "name": "C6",
                    "midi": 84,
                    "time": 539.3947999999895,
                    "velocity": 0.5275590551181102,
                    "duration": 0.10595255000009729
                },
                {
                    "name": "A#5",
                    "midi": 82,
                    "time": 539.4911204999895,
                    "velocity": 0.5275590551181102,
                    "duration": 0.10595255000009729
                },
                {
                    "name": "A5",
                    "midi": 81,
                    "time": 539.5874409999896,
                    "velocity": 0.5275590551181102,
                    "duration": 0.10595255000009729
                },
                {
                    "name": "G5",
                    "midi": 79,
                    "time": 539.6837614999896,
                    "velocity": 0.5275590551181102,
                    "duration": 0.0963205000000471
                },
                {
                    "name": "F5",
                    "midi": 77,
                    "time": 539.7800819999896,
                    "velocity": 0.5590551181102362,
                    "duration": 0.10595255000009729
                },
                {
                    "name": "A5",
                    "midi": 81,
                    "time": 539.8764024999897,
                    "velocity": 0.5039370078740157,
                    "duration": 0.10595255000009729
                },
                {
                    "name": "G5",
                    "midi": 79,
                    "time": 539.9727229999897,
                    "velocity": 0.5039370078740157,
                    "duration": 0.10595255000009729
                },
                {
                    "name": "F5",
                    "midi": 77,
                    "time": 540.0690434999898,
                    "velocity": 0.5354330708661418,
                    "duration": 0.10595255000009729
                },
                {
                    "name": "E5",
                    "midi": 76,
                    "time": 540.1653639999898,
                    "velocity": 0.5039370078740157,
                    "duration": 0.10595255000009729
                },
                {
                    "name": "D5",
                    "midi": 74,
                    "time": 540.2616844999899,
                    "velocity": 0.5039370078740157,
                    "duration": 0.10595255000009729
                },
                {
                    "name": "C5",
                    "midi": 72,
                    "time": 540.3580049999899,
                    "velocity": 0.5433070866141733,
                    "duration": 0.10595255000009729
                },
                {
                    "name": "D5",
                    "midi": 74,
                    "time": 540.45432549999,
                    "velocity": 0.49606299212598426,
                    "duration": 0.10595255000009729
                },
                {
                    "name": "C5",
                    "midi": 72,
                    "time": 540.55064599999,
                    "velocity": 0.49606299212598426,
                    "duration": 0.10595255000009729
                },
                {
                    "name": "A#4",
                    "midi": 70,
                    "time": 540.6469664999901,
                    "velocity": 0.49606299212598426,
                    "duration": 0.10595255000009729
                },
                {
                    "name": "A4",
                    "midi": 69,
                    "time": 540.7432869999901,
                    "velocity": 0.49606299212598426,
                    "duration": 0.10595255000009729
                },
                {
                    "name": "G4",
                    "midi": 67,
                    "time": 540.8396074999902,
                    "velocity": 0.49606299212598426,
                    "duration": 0.0963205000000471
                },
                {
                    "name": "F4",
                    "midi": 65,
                    "time": 540.9359279999902,
                    "velocity": 0.5590551181102362,
                    "duration": 0.10595255000009729
                },
                {
                    "name": "A4",
                    "midi": 69,
                    "time": 541.0322484999903,
                    "velocity": 0.49606299212598426,
                    "duration": 0.10595255000009729
                },
                {
                    "name": "G4",
                    "midi": 67,
                    "time": 541.1285689999903,
                    "velocity": 0.49606299212598426,
                    "duration": 0.10595255000009729
                },
                {
                    "name": "F4",
                    "midi": 65,
                    "time": 541.2248894999904,
                    "velocity": 0.49606299212598426,
                    "duration": 0.10595255000009729
                },
                {
                    "name": "E4",
                    "midi": 64,
                    "time": 541.3212099999904,
                    "velocity": 0.49606299212598426,
                    "duration": 0.10595255000009729
                },
                {
                    "name": "D4",
                    "midi": 62,
                    "time": 541.4175304999904,
                    "velocity": 0.5039370078740157,
                    "duration": 0.10595255000009729
                },
                {
                    "name": "C4",
                    "midi": 60,
                    "time": 541.5138509999905,
                    "velocity": 0.5590551181102362,
                    "duration": 0.10595255000009729
                },
                {
                    "name": "D4",
                    "midi": 62,
                    "time": 541.6101714999905,
                    "velocity": 0.5039370078740157,
                    "duration": 0.10595255000009729
                },
                {
                    "name": "C4",
                    "midi": 60,
                    "time": 541.7064919999906,
                    "velocity": 0.5039370078740157,
                    "duration": 0.10595255000009729
                },
                {
                    "name": "A#3",
                    "midi": 58,
                    "time": 541.8028124999906,
                    "velocity": 0.5039370078740157,
                    "duration": 0.10595255000009729
                },
                {
                    "name": "A3",
                    "midi": 57,
                    "time": 541.8991329999907,
                    "velocity": 0.5039370078740157,
                    "duration": 0.10595255000009729
                },
                {
                    "name": "G3",
                    "midi": 55,
                    "time": 541.9954534999907,
                    "velocity": 0.5039370078740157,
                    "duration": 0.0963205000000471
                },
                {
                    "name": "F3",
                    "midi": 53,
                    "time": 542.0917739999908,
                    "velocity": 0.6377952755905512,
                    "duration": 0.0963205000000471
                },
                {
                    "name": "A3",
                    "midi": 57,
                    "time": 542.2844149999909,
                    "velocity": 0.5511811023622047,
                    "duration": 0.0963205000000471
                },
                {
                    "name": "C4",
                    "midi": 60,
                    "time": 542.477055999991,
                    "velocity": 0.5511811023622047,
                    "duration": 0.0963205000000471
                },
                {
                    "name": "F4",
                    "midi": 65,
                    "time": 542.6696969999911,
                    "velocity": 0.6141732283464567,
                    "duration": 0.0963205000000471
                },
                {
                    "name": "A4",
                    "midi": 69,
                    "time": 542.8623379999912,
                    "velocity": 0.5511811023622047,
                    "duration": 0.0963205000000471
                },
                {
                    "name": "C5",
                    "midi": 72,
                    "time": 543.0549789999912,
                    "velocity": 0.5511811023622047,
                    "duration": 0.0963205000000471
                },
                {
                    "name": "F5",
                    "midi": 77,
                    "time": 543.2476199999913,
                    "velocity": 0.6929133858267716,
                    "duration": 0.19264099999998052
                },
                {
                    "name": "A5",
                    "midi": 81,
                    "time": 543.8255429999913,
                    "velocity": 0.5905511811023622,
                    "duration": 0.38528199999996104
                },
                {
                    "name": "C6",
                    "midi": 84,
                    "time": 543.8255429999913,
                    "velocity": 0.7086614173228346,
                    "duration": 0.38528199999996104
                },
                {
                    "name": "C5",
                    "midi": 72,
                    "time": 543.8255429999913,
                    "velocity": 0.5905511811023622,
                    "duration": 0.38528199999996104
                },
                {
                    "name": "D#6",
                    "midi": 87,
                    "time": 544.4034659999912,
                    "velocity": 0.7401574803149606,
                    "duration": 0.38528199999996104
                },
                {
                    "name": "F5",
                    "midi": 77,
                    "time": 544.4034659999912,
                    "velocity": 0.6220472440944882,
                    "duration": 0.38528199999996104
                },
                {
                    "name": "C6",
                    "midi": 84,
                    "time": 544.4034659999912,
                    "velocity": 0.6377952755905512,
                    "duration": 0.38528199999996104
                },
                {
                    "name": "D6",
                    "midi": 86,
                    "time": 545.5593119999912,
                    "velocity": 0.6771653543307087,
                    "duration": 0.38528199999996104
                },
                {
                    "name": "F5",
                    "midi": 77,
                    "time": 545.5593119999912,
                    "velocity": 0.5826771653543307,
                    "duration": 0.38528199999996104
                },
                {
                    "name": "A#5",
                    "midi": 82,
                    "time": 545.5593119999912,
                    "velocity": 0.5826771653543307,
                    "duration": 0.38528199999996104
                },
                {
                    "name": "G#5",
                    "midi": 80,
                    "time": 546.7151579999912,
                    "velocity": 0.5826771653543307,
                    "duration": 0.38528199999996104
                },
                {
                    "name": "D6",
                    "midi": 86,
                    "time": 546.7151579999912,
                    "velocity": 0.6771653543307087,
                    "duration": 0.38528199999996104
                },
                {
                    "name": "F6",
                    "midi": 89,
                    "time": 546.7151579999912,
                    "velocity": 0.5826771653543307,
                    "duration": 0.38528199999996104
                },
                {
                    "name": "F5",
                    "midi": 77,
                    "time": 546.7151579999912,
                    "velocity": 0.5826771653543307,
                    "duration": 0.38528199999996104
                },
                {
                    "name": "C4",
                    "midi": 60,
                    "time": 547.8710039999912,
                    "velocity": 0.30708661417322836,
                    "duration": 1.1558459999999968
                },
                {
                    "name": "F4",
                    "midi": 65,
                    "time": 547.8710039999912,
                    "velocity": 0.3700787401574803,
                    "duration": 1.0595254999999497
                },
                {
                    "name": "A4",
                    "midi": 69,
                    "time": 548.9305294999912,
                    "velocity": 0.3700787401574803,
                    "duration": 0.0963205000000471
                },
                {
                    "name": "C4",
                    "midi": 60,
                    "time": 549.0268499999912,
                    "velocity": 0.33070866141732286,
                    "duration": 1.3484869999999773
                },
                {
                    "name": "G4",
                    "midi": 67,
                    "time": 549.0268499999912,
                    "velocity": 0.3937007874015748,
                    "duration": 0.9632050000000163
                },
                {
                    "name": "E4",
                    "midi": 64,
                    "time": 549.0268499999912,
                    "velocity": 0.33070866141732286,
                    "duration": 1.1558459999999968
                },
                {
                    "name": "F4",
                    "midi": 65,
                    "time": 549.9900549999912,
                    "velocity": 0.3228346456692913,
                    "duration": 0.19264099999998052
                },
                {
                    "name": "F4",
                    "midi": 65,
                    "time": 550.1826959999912,
                    "velocity": 0.36220472440944884,
                    "duration": 0.19264099999998052
                },
                {
                    "name": "A3",
                    "midi": 57,
                    "time": 550.5679779999912,
                    "velocity": 0.5590551181102362,
                    "duration": 0.19264099999998052
                },
                {
                    "name": "A#3",
                    "midi": 58,
                    "time": 550.7606189999912,
                    "velocity": 0.6141732283464567,
                    "duration": 0.0963205000000471
                },
                {
                    "name": "G4",
                    "midi": 67,
                    "time": 550.9532599999912,
                    "velocity": 0.5748031496062992,
                    "duration": 0.0963205000000471
                },
                {
                    "name": "B3",
                    "midi": 59,
                    "time": 551.1459009999913,
                    "velocity": 0.5669291338582677,
                    "duration": 0.0963205000000471
                },
                {
                    "name": "C4",
                    "midi": 60,
                    "time": 551.3385419999914,
                    "velocity": 0.6141732283464567,
                    "duration": 0.0963205000000471
                },
                {
                    "name": "A4",
                    "midi": 69,
                    "time": 551.5311829999915,
                    "velocity": 0.5748031496062992,
                    "duration": 0.0963205000000471
                },
                {
                    "name": "C#4",
                    "midi": 61,
                    "time": 551.7238239999916,
                    "velocity": 0.5748031496062992,
                    "duration": 0.0963205000000471
                },
                {
                    "name": "D4",
                    "midi": 62,
                    "time": 551.9164649999917,
                    "velocity": 0.6141732283464567,
                    "duration": 0.0963205000000471
                },
                {
                    "name": "A#4",
                    "midi": 70,
                    "time": 552.1091059999918,
                    "velocity": 0.5669291338582677,
                    "duration": 0.0963205000000471
                },
                {
                    "name": "E4",
                    "midi": 64,
                    "time": 552.3017469999919,
                    "velocity": 0.5669291338582677,
                    "duration": 0.0963205000000471
                },
                {
                    "name": "A#5",
                    "midi": 82,
                    "time": 552.494387999992,
                    "velocity": 0.5354330708661418,
                    "duration": 0.7705640000000358
                },
                {
                    "name": "A5",
                    "midi": 81,
                    "time": 553.264951999992,
                    "velocity": 0.4881889763779528,
                    "duration": 0.0963205000000471
                },
                {
                    "name": "G5",
                    "midi": 79,
                    "time": 553.3612724999921,
                    "velocity": 0.48031496062992124,
                    "duration": 0.0963205000000471
                },
                {
                    "name": "F5",
                    "midi": 77,
                    "time": 553.4575929999921,
                    "velocity": 0.4645669291338583,
                    "duration": 0.0963205000000471
                },
                {
                    "name": "E5",
                    "midi": 76,
                    "time": 553.5539134999922,
                    "velocity": 0.44881889763779526,
                    "duration": 0.0963205000000471
                },
                {
                    "name": "F5",
                    "midi": 77,
                    "time": 553.6502339999922,
                    "velocity": 0.4409448818897638,
                    "duration": 0.0963205000000471
                },
                {
                    "name": "G5",
                    "midi": 79,
                    "time": 553.8428749999923,
                    "velocity": 0.3858267716535433,
                    "duration": 0.0963205000000471
                },
                {
                    "name": "A5",
                    "midi": 81,
                    "time": 554.0355159999924,
                    "velocity": 0.4251968503937008,
                    "duration": 0.0963205000000471
                },
                {
                    "name": "A4",
                    "midi": 69,
                    "time": 554.2281569999925,
                    "velocity": 0.36220472440944884,
                    "duration": 0.38528199999996104
                },
                {
                    "name": "C5",
                    "midi": 72,
                    "time": 554.2281569999925,
                    "velocity": 0.36220472440944884,
                    "duration": 0.38528199999996104
                },
                {
                    "name": "A#4",
                    "midi": 70,
                    "time": 554.6134389999925,
                    "velocity": 0.31496062992125984,
                    "duration": 0.19264099999998052
                },
                {
                    "name": "G4",
                    "midi": 67,
                    "time": 554.6134389999925,
                    "velocity": 0.31496062992125984,
                    "duration": 0.19264099999998052
                },
                {
                    "name": "A#4",
                    "midi": 70,
                    "time": 554.8060799999924,
                    "velocity": 0.36220472440944884,
                    "duration": 0.5779230000000553
                },
                {
                    "name": "G4",
                    "midi": 67,
                    "time": 554.8060799999924,
                    "velocity": 0.36220472440944884,
                    "duration": 0.5779230000000553
                },
                {
                    "name": "F4",
                    "midi": 65,
                    "time": 555.3840029999925,
                    "velocity": 0.3228346456692913,
                    "duration": 0.19264099999998052
                },
                {
                    "name": "A4",
                    "midi": 69,
                    "time": 555.3840029999925,
                    "velocity": 0.3228346456692913,
                    "duration": 0.19264099999998052
                },
                {
                    "name": "A3",
                    "midi": 57,
                    "time": 556.3472079999925,
                    "velocity": 0.5590551181102362,
                    "duration": 0.19264099999998052
                },
                {
                    "name": "A#3",
                    "midi": 58,
                    "time": 556.5398489999925,
                    "velocity": 0.6141732283464567,
                    "duration": 0.0963205000000471
                },
                {
                    "name": "G4",
                    "midi": 67,
                    "time": 556.7324899999926,
                    "velocity": 0.5748031496062992,
                    "duration": 0.0963205000000471
                },
                {
                    "name": "B3",
                    "midi": 59,
                    "time": 556.9251309999927,
                    "velocity": 0.5669291338582677,
                    "duration": 0.0963205000000471
                },
                {
                    "name": "C4",
                    "midi": 60,
                    "time": 557.1177719999928,
                    "velocity": 0.6141732283464567,
                    "duration": 0.0963205000000471
                },
                {
                    "name": "A4",
                    "midi": 69,
                    "time": 557.3104129999929,
                    "velocity": 0.5748031496062992,
                    "duration": 0.0963205000000471
                },
                {
                    "name": "C#4",
                    "midi": 61,
                    "time": 557.503053999993,
                    "velocity": 0.5748031496062992,
                    "duration": 0.0963205000000471
                },
                {
                    "name": "D4",
                    "midi": 62,
                    "time": 557.6956949999931,
                    "velocity": 0.6141732283464567,
                    "duration": 0.0963205000000471
                },
                {
                    "name": "A#4",
                    "midi": 70,
                    "time": 557.8883359999932,
                    "velocity": 0.5669291338582677,
                    "duration": 0.0963205000000471
                },
                {
                    "name": "E4",
                    "midi": 64,
                    "time": 558.0809769999933,
                    "velocity": 0.5669291338582677,
                    "duration": 0.0963205000000471
                },
                {
                    "name": "A#5",
                    "midi": 82,
                    "time": 558.2736179999933,
                    "velocity": 0.5354330708661418,
                    "duration": 0.7705640000000358
                },
                {
                    "name": "A5",
                    "midi": 81,
                    "time": 559.0441819999934,
                    "velocity": 0.4881889763779528,
                    "duration": 0.0963205000000471
                },
                {
                    "name": "G5",
                    "midi": 79,
                    "time": 559.1405024999934,
                    "velocity": 0.48031496062992124,
                    "duration": 0.0963205000000471
                },
                {
                    "name": "F5",
                    "midi": 77,
                    "time": 559.2368229999935,
                    "velocity": 0.4645669291338583,
                    "duration": 0.0963205000000471
                },
                {
                    "name": "E5",
                    "midi": 76,
                    "time": 559.3331434999935,
                    "velocity": 0.44881889763779526,
                    "duration": 0.0963205000000471
                },
                {
                    "name": "F5",
                    "midi": 77,
                    "time": 559.4294639999936,
                    "velocity": 0.4409448818897638,
                    "duration": 0.04816025000002355
                },
                {
                    "name": "G5",
                    "midi": 79,
                    "time": 559.4776242499936,
                    "velocity": 0.3858267716535433,
                    "duration": 0.04816025000002355
                },
                {
                    "name": "A5",
                    "midi": 81,
                    "time": 559.5257844999936,
                    "velocity": 0.3858267716535433,
                    "duration": 0.04816025000002355
                },
                {
                    "name": "D5",
                    "midi": 74,
                    "time": 560.0073869999936,
                    "velocity": 0.36220472440944884,
                    "duration": 0.04816025000002355
                },
                {
                    "name": "E5",
                    "midi": 76,
                    "time": 560.0555472499937,
                    "velocity": 0.30708661417322836,
                    "duration": 0.04816025000002355
                },
                {
                    "name": "F5",
                    "midi": 77,
                    "time": 560.1037074999937,
                    "velocity": 0.30708661417322836,
                    "duration": 0.04816025000002355
                },
                {
                    "name": "C4",
                    "midi": 60,
                    "time": 560.5853099999937,
                    "velocity": 0.29133858267716534,
                    "duration": 1.1558459999999968
                },
                {
                    "name": "F4",
                    "midi": 65,
                    "time": 560.5853099999937,
                    "velocity": 0.3464566929133858,
                    "duration": 0.48160250000000815
                },
                {
                    "name": "A4",
                    "midi": 69,
                    "time": 561.0669124999937,
                    "velocity": 0.30708661417322836,
                    "duration": 0.0963205000000471
                },
                {
                    "name": "G4",
                    "midi": 67,
                    "time": 561.1632329999937,
                    "velocity": 0.3464566929133858,
                    "duration": 0.38528199999996104
                },
                {
                    "name": "E4",
                    "midi": 64,
                    "time": 561.1632329999937,
                    "velocity": 0.28346456692913385,
                    "duration": 0.38528199999996104
                },
                {
                    "name": "F4",
                    "midi": 65,
                    "time": 561.5485149999937,
                    "velocity": 0.3228346456692913,
                    "duration": 0.19264099999998052
                },
                {
                    "name": "F4",
                    "midi": 65,
                    "time": 561.7411559999937,
                    "velocity": 0.3228346456692913,
                    "duration": 0.5779229999999416
                },
                {
                    "name": "A4",
                    "midi": 69,
                    "time": 562.1264379999936,
                    "velocity": 0.30708661417322836,
                    "duration": 0.19264099999998052
                },
                {
                    "name": "E4",
                    "midi": 64,
                    "time": 562.3190789999936,
                    "velocity": 0.29133858267716534,
                    "duration": 0.5779229999999416
                },
                {
                    "name": "C5",
                    "midi": 72,
                    "time": 562.3190789999936,
                    "velocity": 0.3464566929133858,
                    "duration": 0.19264099999998052
                },
                {
                    "name": "A#4",
                    "midi": 70,
                    "time": 562.5117199999936,
                    "velocity": 0.30708661417322836,
                    "duration": 0.19264099999998052
                },
                {
                    "name": "G4",
                    "midi": 67,
                    "time": 562.7043609999936,
                    "velocity": 0.30708661417322836,
                    "duration": 0.19264099999998052
                },
                {
                    "name": "F4",
                    "midi": 65,
                    "time": 562.8970019999936,
                    "velocity": 0.3464566929133858,
                    "duration": 0.5779229999999416
                },
                {
                    "name": "C4",
                    "midi": 60,
                    "time": 563.0896429999935,
                    "velocity": 0.31496062992125984,
                    "duration": 0.18943031666663046
                },
                {
                    "name": "A4",
                    "midi": 69,
                    "time": 563.2822839999935,
                    "velocity": 0.31496062992125984,
                    "duration": 0.19264099999998052
                },
                {
                    "name": "E4",
                    "midi": 64,
                    "time": 563.4749249999935,
                    "velocity": 0.29133858267716534,
                    "duration": 0.5779229999999416
                },
                {
                    "name": "C5",
                    "midi": 72,
                    "time": 563.4749249999935,
                    "velocity": 0.3464566929133858,
                    "duration": 0.19264099999998052
                },
                {
                    "name": "A#4",
                    "midi": 70,
                    "time": 563.6675659999935,
                    "velocity": 0.31496062992125984,
                    "duration": 0.19264099999998052
                },
                {
                    "name": "G4",
                    "midi": 67,
                    "time": 563.8602069999935,
                    "velocity": 0.31496062992125984,
                    "duration": 0.19264099999998052
                },
                {
                    "name": "F4",
                    "midi": 65,
                    "time": 564.0528479999934,
                    "velocity": 0.3464566929133858,
                    "duration": 0.19264099999998052
                },
                {
                    "name": "C4",
                    "midi": 60,
                    "time": 564.2454889999934,
                    "velocity": 0.3228346456692913,
                    "duration": 0.18943031666663046
                },
                {
                    "name": "A4",
                    "midi": 69,
                    "time": 564.4381299999934,
                    "velocity": 0.3228346456692913,
                    "duration": 0.19264099999998052
                },
                {
                    "name": "F4",
                    "midi": 65,
                    "time": 564.6307709999934,
                    "velocity": 0.3464566929133858,
                    "duration": 0.19264099999998052
                },
                {
                    "name": "C4",
                    "midi": 60,
                    "time": 564.8234119999934,
                    "velocity": 0.31496062992125984,
                    "duration": 0.19023298750005324
                },
                {
                    "name": "A4",
                    "midi": 69,
                    "time": 565.0160529999935,
                    "velocity": 0.31496062992125984,
                    "duration": 0.19264099999998052
                },
                {
                    "name": "G4",
                    "midi": 67,
                    "time": 565.2086939999934,
                    "velocity": 0.33070866141732286,
                    "duration": 0.5779230000000553
                },
                {
                    "name": "A#3",
                    "midi": 58,
                    "time": 565.2086939999934,
                    "velocity": 0.28346456692913385,
                    "duration": 0.5779230000000553
                },
                {
                    "name": "F4",
                    "midi": 65,
                    "time": 565.7866169999935,
                    "velocity": 0.28346456692913385,
                    "duration": 0.19264099999998052
                },
                {
                    "name": "A3",
                    "midi": 57,
                    "time": 565.7866169999935,
                    "velocity": 0.2440944881889764,
                    "duration": 0.19264099999998052
                }
            ],
            "controlChanges": {
                "7": [
                    {
                        "number": 7,
                        "time": 0,
                        "value": 0.7874015748031497
                    }
                ],
                "10": [
                    {
                        "number": 10,
                        "time": 0,
                        "value": 0.5039370078740157
                    }
                ],
                "91": [
                    {
                        "number": 91,
                        "time": 0,
                        "value": 1
                    },
                    {
                        "number": 91,
                        "time": 6.935076000000001,
                        "value": 1
                    },
                    {
                        "number": 91,
                        "time": 104.02613999999994,
                        "value": 1
                    },
                    {
                        "number": 91,
                        "time": 110.96121599999982,
                        "value": 1
                    },
                    {
                        "number": 91,
                        "time": 208.0522799999961,
                        "value": 1
                    },
                    {
                        "number": 91,
                        "time": 273.9355019999935,
                        "value": 1
                    },
                    {
                        "number": 91,
                        "time": 280.87057799999286,
                        "value": 1
                    },
                    {
                        "number": 91,
                        "time": 387.20840999998774,
                        "value": 1
                    },
                    {
                        "number": 91,
                        "time": 453.09163199998306,
                        "value": 1
                    },
                    {
                        "number": 91,
                        "time": 460.0267079999824,
                        "value": 1
                    }
                ]
            },
            "id": 1,
            "name": "Piano right",
            "instrumentNumber": 0,
            "instrument": "acoustic grand piano",
            "instrumentFamily": "piano",
            "channelNumber": 0,
            "isPercussion": false
        },
        {
            "startTime": 0,
            "duration": 565.9792579999901,
            "length": 2290,
            "notes": [
                {
                    "name": "F3",
                    "midi": 53,
                    "time": 0,
                    "velocity": 0.5511811023622047,
                    "duration": 0.385282
                },
                {
                    "name": "A2",
                    "midi": 45,
                    "time": 0,
                    "velocity": 0.4645669291338583,
                    "duration": 0.385282
                },
                {
                    "name": "C3",
                    "midi": 48,
                    "time": 0,
                    "velocity": 0.4645669291338583,
                    "duration": 0.385282
                },
                {
                    "name": "F2",
                    "midi": 41,
                    "time": 0,
                    "velocity": 0.4645669291338583,
                    "duration": 0.385282
                },
                {
                    "name": "A3",
                    "midi": 57,
                    "time": 2.889615,
                    "velocity": 0.5511811023622047,
                    "duration": 0.09632050000000003
                },
                {
                    "name": "G3",
                    "midi": 55,
                    "time": 3.082256,
                    "velocity": 0.5196850393700787,
                    "duration": 0.09632050000000003
                },
                {
                    "name": "A3",
                    "midi": 57,
                    "time": 3.274897,
                    "velocity": 0.5196850393700787,
                    "duration": 0.09632050000000003
                },
                {
                    "name": "A#3",
                    "midi": 58,
                    "time": 3.4675380000000002,
                    "velocity": 0.5511811023622047,
                    "duration": 0.09632050000000003
                },
                {
                    "name": "A3",
                    "midi": 57,
                    "time": 3.6601790000000003,
                    "velocity": 0.5275590551181102,
                    "duration": 0.09632050000000003
                },
                {
                    "name": "A#3",
                    "midi": 58,
                    "time": 3.8528200000000004,
                    "velocity": 0.5275590551181102,
                    "duration": 0.09632050000000003
                },
                {
                    "name": "C4",
                    "midi": 60,
                    "time": 4.045461,
                    "velocity": 0.5511811023622047,
                    "duration": 0.09632050000000003
                },
                {
                    "name": "A#3",
                    "midi": 58,
                    "time": 4.2381020000000005,
                    "velocity": 0.5275590551181102,
                    "duration": 0.09632050000000003
                },
                {
                    "name": "C4",
                    "midi": 60,
                    "time": 4.4307430000000005,
                    "velocity": 0.5275590551181102,
                    "duration": 0.09632050000000003
                },
                {
                    "name": "C#4",
                    "midi": 61,
                    "time": 4.623384000000001,
                    "velocity": 0.5826771653543307,
                    "duration": 0.3852820000000001
                },
                {
                    "name": "C4",
                    "midi": 60,
                    "time": 5.008666000000001,
                    "velocity": 0.5275590551181102,
                    "duration": 0.09632050000000003
                },
                {
                    "name": "C#4",
                    "midi": 61,
                    "time": 5.201307000000001,
                    "velocity": 0.5826771653543307,
                    "duration": 0.3852820000000001
                },
                {
                    "name": "C4",
                    "midi": 60,
                    "time": 5.586589000000001,
                    "velocity": 0.5196850393700787,
                    "duration": 0.09632050000000003
                },
                {
                    "name": "B3",
                    "midi": 59,
                    "time": 5.779230000000001,
                    "velocity": 0.3700787401574803,
                    "duration": 0.09632050000000003
                },
                {
                    "name": "B3",
                    "midi": 59,
                    "time": 5.971871000000001,
                    "velocity": 0.3700787401574803,
                    "duration": 0.09632050000000003
                },
                {
                    "name": "B3",
                    "midi": 59,
                    "time": 6.164512000000001,
                    "velocity": 0.3700787401574803,
                    "duration": 0.09632050000000003
                },
                {
                    "name": "C4",
                    "midi": 60,
                    "time": 6.357153000000001,
                    "velocity": 0.3937007874015748,
                    "duration": 0.19264100000000006
                },
                {
                    "name": "A2",
                    "midi": 45,
                    "time": 6.935076000000001,
                    "velocity": 0.4645669291338583,
                    "duration": 0.3852820000000001
                },
                {
                    "name": "C3",
                    "midi": 48,
                    "time": 6.935076000000001,
                    "velocity": 0.4645669291338583,
                    "duration": 0.3852820000000001
                },
                {
                    "name": "F3",
                    "midi": 53,
                    "time": 6.935076000000001,
                    "velocity": 0.5511811023622047,
                    "duration": 0.3852820000000001
                },
                {
                    "name": "F2",
                    "midi": 41,
                    "time": 6.935076000000001,
                    "velocity": 0.4645669291338583,
                    "duration": 0.3852820000000001
                },
                {
                    "name": "A3",
                    "midi": 57,
                    "time": 9.824691000000001,
                    "velocity": 0.5511811023622047,
                    "duration": 0.09632049999999914
                },
                {
                    "name": "G3",
                    "midi": 55,
                    "time": 10.017332,
                    "velocity": 0.5196850393700787,
                    "duration": 0.09632049999999914
                },
                {
                    "name": "A3",
                    "midi": 57,
                    "time": 10.209972999999998,
                    "velocity": 0.5196850393700787,
                    "duration": 0.09632049999999914
                },
                {
                    "name": "A#3",
                    "midi": 58,
                    "time": 10.402613999999996,
                    "velocity": 0.5511811023622047,
                    "duration": 0.09632049999999914
                },
                {
                    "name": "A3",
                    "midi": 57,
                    "time": 10.595254999999995,
                    "velocity": 0.5275590551181102,
                    "duration": 0.09632049999999914
                },
                {
                    "name": "A#3",
                    "midi": 58,
                    "time": 10.787895999999993,
                    "velocity": 0.5275590551181102,
                    "duration": 0.09632049999999914
                },
                {
                    "name": "C4",
                    "midi": 60,
                    "time": 10.980536999999991,
                    "velocity": 0.5511811023622047,
                    "duration": 0.09632049999999914
                },
                {
                    "name": "A#3",
                    "midi": 58,
                    "time": 11.17317799999999,
                    "velocity": 0.5275590551181102,
                    "duration": 0.09632049999999914
                },
                {
                    "name": "C4",
                    "midi": 60,
                    "time": 11.365818999999988,
                    "velocity": 0.5275590551181102,
                    "duration": 0.09632049999999914
                },
                {
                    "name": "C#4",
                    "midi": 61,
                    "time": 11.558459999999986,
                    "velocity": 0.5826771653543307,
                    "duration": 0.3852820000000001
                },
                {
                    "name": "C4",
                    "midi": 60,
                    "time": 11.943741999999986,
                    "velocity": 0.5275590551181102,
                    "duration": 0.09632049999999914
                },
                {
                    "name": "C#4",
                    "midi": 61,
                    "time": 12.136382999999984,
                    "velocity": 0.5826771653543307,
                    "duration": 0.3852820000000001
                },
                {
                    "name": "C4",
                    "midi": 60,
                    "time": 12.521664999999985,
                    "velocity": 0.5196850393700787,
                    "duration": 0.09632049999999914
                },
                {
                    "name": "B3",
                    "midi": 59,
                    "time": 12.714305999999983,
                    "velocity": 0.2755905511811024,
                    "duration": 0.09632049999999914
                },
                {
                    "name": "A#3",
                    "midi": 58,
                    "time": 13.292228999999981,
                    "velocity": 0.2677165354330709,
                    "duration": 0.09632049999999914
                },
                {
                    "name": "A3",
                    "midi": 57,
                    "time": 13.87015199999998,
                    "velocity": 0.2677165354330709,
                    "duration": 0.09632049999999914
                },
                {
                    "name": "A#2",
                    "midi": 46,
                    "time": 14.448074999999978,
                    "velocity": 0.4566929133858268,
                    "duration": 0.09632049999999914
                },
                {
                    "name": "A#3",
                    "midi": 58,
                    "time": 14.544395499999977,
                    "velocity": 0.48031496062992124,
                    "duration": 0.09632049999999914
                },
                {
                    "name": "E3",
                    "midi": 52,
                    "time": 15.025997999999976,
                    "velocity": 0.28346456692913385,
                    "duration": 0.5779230000000002
                },
                {
                    "name": "A#3",
                    "midi": 58,
                    "time": 15.025997999999976,
                    "velocity": 0.44881889763779526,
                    "duration": 0.5779230000000002
                },
                {
                    "name": "C3",
                    "midi": 48,
                    "time": 15.025997999999976,
                    "velocity": 0.28346456692913385,
                    "duration": 0.5779230000000002
                },
                {
                    "name": "F3",
                    "midi": 53,
                    "time": 15.603920999999977,
                    "velocity": 0.25196850393700787,
                    "duration": 0.19264100000000006
                },
                {
                    "name": "A3",
                    "midi": 57,
                    "time": 15.603920999999977,
                    "velocity": 0.4015748031496063,
                    "duration": 0.19264100000000006
                },
                {
                    "name": "C3",
                    "midi": 48,
                    "time": 16.181843999999977,
                    "velocity": 0.3228346456692913,
                    "duration": 0.19264099999999829
                },
                {
                    "name": "C4",
                    "midi": 60,
                    "time": 16.374484999999975,
                    "velocity": 0.2440944881889764,
                    "duration": 0.09632050000000092
                },
                {
                    "name": "A#3",
                    "midi": 58,
                    "time": 16.374484999999975,
                    "velocity": 0.1889763779527559,
                    "duration": 0.09632050000000092
                },
                {
                    "name": "C4",
                    "midi": 60,
                    "time": 16.567125999999977,
                    "velocity": 0.2440944881889764,
                    "duration": 0.09632050000000092
                },
                {
                    "name": "A#3",
                    "midi": 58,
                    "time": 16.567125999999977,
                    "velocity": 0.1889763779527559,
                    "duration": 0.09632050000000092
                },
                {
                    "name": "A#3",
                    "midi": 58,
                    "time": 16.75976699999998,
                    "velocity": 0.1889763779527559,
                    "duration": 0.09632050000000092
                },
                {
                    "name": "C4",
                    "midi": 60,
                    "time": 16.75976699999998,
                    "velocity": 0.2440944881889764,
                    "duration": 0.09632050000000092
                },
                {
                    "name": "A#3",
                    "midi": 58,
                    "time": 16.95240799999998,
                    "velocity": 0.1889763779527559,
                    "duration": 0.09632050000000092
                },
                {
                    "name": "C4",
                    "midi": 60,
                    "time": 16.95240799999998,
                    "velocity": 0.2440944881889764,
                    "duration": 0.09632050000000092
                },
                {
                    "name": "A#3",
                    "midi": 58,
                    "time": 17.145048999999982,
                    "velocity": 0.1889763779527559,
                    "duration": 0.09632050000000092
                },
                {
                    "name": "C4",
                    "midi": 60,
                    "time": 17.145048999999982,
                    "velocity": 0.2440944881889764,
                    "duration": 0.09632050000000092
                },
                {
                    "name": "F3",
                    "midi": 53,
                    "time": 17.337689999999984,
                    "velocity": 0.3228346456692913,
                    "duration": 0.19264099999999829
                },
                {
                    "name": "A3",
                    "midi": 57,
                    "time": 17.530330999999983,
                    "velocity": 0.1889763779527559,
                    "duration": 0.09632050000000092
                },
                {
                    "name": "C4",
                    "midi": 60,
                    "time": 17.530330999999983,
                    "velocity": 0.2440944881889764,
                    "duration": 0.09632050000000092
                },
                {
                    "name": "A3",
                    "midi": 57,
                    "time": 17.722971999999984,
                    "velocity": 0.1889763779527559,
                    "duration": 0.09632050000000092
                },
                {
                    "name": "C4",
                    "midi": 60,
                    "time": 17.722971999999984,
                    "velocity": 0.2440944881889764,
                    "duration": 0.09632050000000092
                },
                {
                    "name": "C4",
                    "midi": 60,
                    "time": 17.915612999999986,
                    "velocity": 0.2440944881889764,
                    "duration": 0.09632050000000092
                },
                {
                    "name": "A3",
                    "midi": 57,
                    "time": 17.915612999999986,
                    "velocity": 0.1889763779527559,
                    "duration": 0.09632050000000092
                },
                {
                    "name": "C4",
                    "midi": 60,
                    "time": 18.108253999999988,
                    "velocity": 0.2440944881889764,
                    "duration": 0.09632050000000092
                },
                {
                    "name": "A3",
                    "midi": 57,
                    "time": 18.108253999999988,
                    "velocity": 0.1889763779527559,
                    "duration": 0.09632050000000092
                },
                {
                    "name": "C4",
                    "midi": 60,
                    "time": 18.30089499999999,
                    "velocity": 0.2440944881889764,
                    "duration": 0.09632050000000092
                },
                {
                    "name": "A3",
                    "midi": 57,
                    "time": 18.30089499999999,
                    "velocity": 0.1889763779527559,
                    "duration": 0.09632050000000092
                },
                {
                    "name": "C3",
                    "midi": 48,
                    "time": 18.49353599999999,
                    "velocity": 0.3228346456692913,
                    "duration": 0.19264099999999829
                },
                {
                    "name": "G3",
                    "midi": 55,
                    "time": 18.68617699999999,
                    "velocity": 0.1889763779527559,
                    "duration": 0.09632050000000092
                },
                {
                    "name": "C4",
                    "midi": 60,
                    "time": 18.68617699999999,
                    "velocity": 0.2440944881889764,
                    "duration": 0.09632050000000092
                },
                {
                    "name": "G3",
                    "midi": 55,
                    "time": 18.878817999999992,
                    "velocity": 0.1889763779527559,
                    "duration": 0.09632050000000092
                },
                {
                    "name": "C4",
                    "midi": 60,
                    "time": 18.878817999999992,
                    "velocity": 0.2440944881889764,
                    "duration": 0.09632050000000092
                },
                {
                    "name": "C4",
                    "midi": 60,
                    "time": 19.071458999999994,
                    "velocity": 0.2440944881889764,
                    "duration": 0.09632050000000092
                },
                {
                    "name": "G3",
                    "midi": 55,
                    "time": 19.071458999999994,
                    "velocity": 0.1889763779527559,
                    "duration": 0.09632050000000092
                },
                {
                    "name": "G3",
                    "midi": 55,
                    "time": 19.264099999999996,
                    "velocity": 0.1889763779527559,
                    "duration": 0.09632050000000092
                },
                {
                    "name": "C4",
                    "midi": 60,
                    "time": 19.264099999999996,
                    "velocity": 0.2440944881889764,
                    "duration": 0.09632050000000092
                },
                {
                    "name": "G3",
                    "midi": 55,
                    "time": 19.456740999999997,
                    "velocity": 0.1889763779527559,
                    "duration": 0.09632050000000092
                },
                {
                    "name": "C4",
                    "midi": 60,
                    "time": 19.456740999999997,
                    "velocity": 0.2440944881889764,
                    "duration": 0.09632050000000092
                },
                {
                    "name": "F3",
                    "midi": 53,
                    "time": 19.649382,
                    "velocity": 0.3228346456692913,
                    "duration": 0.19264099999999829
                },
                {
                    "name": "A3",
                    "midi": 57,
                    "time": 19.842022999999998,
                    "velocity": 0.1889763779527559,
                    "duration": 0.09632050000000092
                },
                {
                    "name": "C4",
                    "midi": 60,
                    "time": 19.842022999999998,
                    "velocity": 0.2440944881889764,
                    "duration": 0.09632050000000092
                },
                {
                    "name": "C4",
                    "midi": 60,
                    "time": 20.034664,
                    "velocity": 0.2440944881889764,
                    "duration": 0.09632050000000092
                },
                {
                    "name": "A3",
                    "midi": 57,
                    "time": 20.034664,
                    "velocity": 0.1889763779527559,
                    "duration": 0.09632050000000092
                },
                {
                    "name": "A3",
                    "midi": 57,
                    "time": 20.227305,
                    "velocity": 0.1889763779527559,
                    "duration": 0.09632050000000092
                },
                {
                    "name": "C4",
                    "midi": 60,
                    "time": 20.227305,
                    "velocity": 0.2440944881889764,
                    "duration": 0.09632050000000092
                },
                {
                    "name": "A3",
                    "midi": 57,
                    "time": 20.419946000000003,
                    "velocity": 0.1889763779527559,
                    "duration": 0.09632050000000092
                },
                {
                    "name": "C4",
                    "midi": 60,
                    "time": 20.419946000000003,
                    "velocity": 0.2440944881889764,
                    "duration": 0.09632050000000092
                },
                {
                    "name": "C4",
                    "midi": 60,
                    "time": 20.612587000000005,
                    "velocity": 0.2440944881889764,
                    "duration": 0.09632050000000092
                },
                {
                    "name": "A3",
                    "midi": 57,
                    "time": 20.612587000000005,
                    "velocity": 0.1889763779527559,
                    "duration": 0.09632050000000092
                },
                {
                    "name": "C3",
                    "midi": 48,
                    "time": 20.805228000000007,
                    "velocity": 0.3228346456692913,
                    "duration": 0.19264099999999829
                },
                {
                    "name": "A#3",
                    "midi": 58,
                    "time": 20.997869000000005,
                    "velocity": 0.1889763779527559,
                    "duration": 0.09632050000000092
                },
                {
                    "name": "C4",
                    "midi": 60,
                    "time": 20.997869000000005,
                    "velocity": 0.2440944881889764,
                    "duration": 0.09632050000000092
                },
                {
                    "name": "C4",
                    "midi": 60,
                    "time": 21.190510000000007,
                    "velocity": 0.2440944881889764,
                    "duration": 0.09632050000000092
                },
                {
                    "name": "A#3",
                    "midi": 58,
                    "time": 21.190510000000007,
                    "velocity": 0.1889763779527559,
                    "duration": 0.09632050000000092
                },
                {
                    "name": "C4",
                    "midi": 60,
                    "time": 21.38315100000001,
                    "velocity": 0.2440944881889764,
                    "duration": 0.09632050000000092
                },
                {
                    "name": "A#3",
                    "midi": 58,
                    "time": 21.38315100000001,
                    "velocity": 0.1889763779527559,
                    "duration": 0.09632050000000092
                },
                {
                    "name": "C4",
                    "midi": 60,
                    "time": 21.57579200000001,
                    "velocity": 0.2440944881889764,
                    "duration": 0.09632050000000092
                },
                {
                    "name": "A#3",
                    "midi": 58,
                    "time": 21.57579200000001,
                    "velocity": 0.1889763779527559,
                    "duration": 0.09632050000000092
                },
                {
                    "name": "C4",
                    "midi": 60,
                    "time": 21.768433000000012,
                    "velocity": 0.2440944881889764,
                    "duration": 0.09632050000000092
                },
                {
                    "name": "A#3",
                    "midi": 58,
                    "time": 21.768433000000012,
                    "velocity": 0.1889763779527559,
                    "duration": 0.09632050000000092
                },
                {
                    "name": "F3",
                    "midi": 53,
                    "time": 21.961074000000014,
                    "velocity": 0.3228346456692913,
                    "duration": 0.19264099999999829
                },
                {
                    "name": "C4",
                    "midi": 60,
                    "time": 22.153715000000012,
                    "velocity": 0.2440944881889764,
                    "duration": 0.09632050000000092
                },
                {
                    "name": "A3",
                    "midi": 57,
                    "time": 22.153715000000012,
                    "velocity": 0.1889763779527559,
                    "duration": 0.09632050000000092
                },
                {
                    "name": "A3",
                    "midi": 57,
                    "time": 22.346356000000014,
                    "velocity": 0.1889763779527559,
                    "duration": 0.09632050000000092
                },
                {
                    "name": "C4",
                    "midi": 60,
                    "time": 22.346356000000014,
                    "velocity": 0.2440944881889764,
                    "duration": 0.09632050000000092
                },
                {
                    "name": "C4",
                    "midi": 60,
                    "time": 22.538997000000016,
                    "velocity": 0.2440944881889764,
                    "duration": 0.09632050000000092
                },
                {
                    "name": "A3",
                    "midi": 57,
                    "time": 22.538997000000016,
                    "velocity": 0.1889763779527559,
                    "duration": 0.09632050000000092
                },
                {
                    "name": "A3",
                    "midi": 57,
                    "time": 22.731638000000018,
                    "velocity": 0.1889763779527559,
                    "duration": 0.09632050000000092
                },
                {
                    "name": "C4",
                    "midi": 60,
                    "time": 22.731638000000018,
                    "velocity": 0.2440944881889764,
                    "duration": 0.09632050000000092
                },
                {
                    "name": "C4",
                    "midi": 60,
                    "time": 22.92427900000002,
                    "velocity": 0.2440944881889764,
                    "duration": 0.09632050000000092
                },
                {
                    "name": "A3",
                    "midi": 57,
                    "time": 22.92427900000002,
                    "velocity": 0.1889763779527559,
                    "duration": 0.09632050000000092
                },
                {
                    "name": "C3",
                    "midi": 48,
                    "time": 23.11692000000002,
                    "velocity": 0.3228346456692913,
                    "duration": 0.19264099999999829
                },
                {
                    "name": "G3",
                    "midi": 55,
                    "time": 23.30956100000002,
                    "velocity": 0.1889763779527559,
                    "duration": 0.09632050000000092
                },
                {
                    "name": "C4",
                    "midi": 60,
                    "time": 23.30956100000002,
                    "velocity": 0.2440944881889764,
                    "duration": 0.09632050000000092
                },
                {
                    "name": "G3",
                    "midi": 55,
                    "time": 23.502202000000022,
                    "velocity": 0.1889763779527559,
                    "duration": 0.09632050000000092
                },
                {
                    "name": "C4",
                    "midi": 60,
                    "time": 23.502202000000022,
                    "velocity": 0.2440944881889764,
                    "duration": 0.09632050000000092
                },
                {
                    "name": "C4",
                    "midi": 60,
                    "time": 23.694843000000024,
                    "velocity": 0.2440944881889764,
                    "duration": 0.09632050000000092
                },
                {
                    "name": "A#3",
                    "midi": 58,
                    "time": 23.694843000000024,
                    "velocity": 0.1889763779527559,
                    "duration": 0.09632050000000092
                },
                {
                    "name": "A#3",
                    "midi": 58,
                    "time": 23.887484000000025,
                    "velocity": 0.1889763779527559,
                    "duration": 0.09632050000000092
                },
                {
                    "name": "C4",
                    "midi": 60,
                    "time": 23.887484000000025,
                    "velocity": 0.2440944881889764,
                    "duration": 0.09632050000000092
                },
                {
                    "name": "A#3",
                    "midi": 58,
                    "time": 24.080125000000027,
                    "velocity": 0.1889763779527559,
                    "duration": 0.09632050000000092
                },
                {
                    "name": "C4",
                    "midi": 60,
                    "time": 24.080125000000027,
                    "velocity": 0.2440944881889764,
                    "duration": 0.09632050000000092
                },
                {
                    "name": "F3",
                    "midi": 53,
                    "time": 24.27276600000003,
                    "velocity": 0.25196850393700787,
                    "duration": 0.19264099999999829
                },
                {
                    "name": "A3",
                    "midi": 57,
                    "time": 24.27276600000003,
                    "velocity": 0.25196850393700787,
                    "duration": 0.19264099999999829
                },
                {
                    "name": "C4",
                    "midi": 60,
                    "time": 24.27276600000003,
                    "velocity": 0.3228346456692913,
                    "duration": 0.19264099999999829
                },
                {
                    "name": "A2",
                    "midi": 45,
                    "time": 24.658048000000026,
                    "velocity": 0.47244094488188976,
                    "duration": 0.19264099999999829
                },
                {
                    "name": "A#2",
                    "midi": 46,
                    "time": 24.850689000000024,
                    "velocity": 0.5196850393700787,
                    "duration": 0.09632050000000092
                },
                {
                    "name": "G3",
                    "midi": 55,
                    "time": 25.043330000000026,
                    "velocity": 0.48031496062992124,
                    "duration": 0.09632050000000092
                },
                {
                    "name": "B2",
                    "midi": 47,
                    "time": 25.235971000000028,
                    "velocity": 0.48031496062992124,
                    "duration": 0.09632050000000092
                },
                {
                    "name": "C3",
                    "midi": 48,
                    "time": 25.42861200000003,
                    "velocity": 0.5196850393700787,
                    "duration": 0.09632050000000092
                },
                {
                    "name": "A3",
                    "midi": 57,
                    "time": 25.62125300000003,
                    "velocity": 0.48031496062992124,
                    "duration": 0.09632050000000092
                },
                {
                    "name": "C#3",
                    "midi": 49,
                    "time": 25.813894000000033,
                    "velocity": 0.48031496062992124,
                    "duration": 0.09632050000000092
                },
                {
                    "name": "D3",
                    "midi": 50,
                    "time": 26.006535000000035,
                    "velocity": 0.5196850393700787,
                    "duration": 0.09632050000000092
                },
                {
                    "name": "A#3",
                    "midi": 58,
                    "time": 26.199176000000037,
                    "velocity": 0.48031496062992124,
                    "duration": 0.09632050000000092
                },
                {
                    "name": "E3",
                    "midi": 52,
                    "time": 26.39181700000004,
                    "velocity": 0.48031496062992124,
                    "duration": 0.09632050000000092
                },
                {
                    "name": "A#3",
                    "midi": 58,
                    "time": 27.16238100000004,
                    "velocity": 0.2204724409448819,
                    "duration": 0.5779229999999984
                },
                {
                    "name": "C4",
                    "midi": 60,
                    "time": 27.16238100000004,
                    "velocity": 0.2204724409448819,
                    "duration": 0.5779229999999984
                },
                {
                    "name": "G4",
                    "midi": 67,
                    "time": 27.16238100000004,
                    "velocity": 0.2677165354330709,
                    "duration": 0.5779229999999984
                },
                {
                    "name": "E4",
                    "midi": 64,
                    "time": 27.16238100000004,
                    "velocity": 0.2204724409448819,
                    "duration": 0.5779229999999984
                },
                {
                    "name": "C4",
                    "midi": 60,
                    "time": 27.740304000000037,
                    "velocity": 0.3228346456692913,
                    "duration": 0.19264099999999829
                },
                {
                    "name": "A3",
                    "midi": 57,
                    "time": 27.740304000000037,
                    "velocity": 0.3228346456692913,
                    "duration": 0.19264099999999829
                },
                {
                    "name": "F4",
                    "midi": 65,
                    "time": 27.740304000000037,
                    "velocity": 0.3858267716535433,
                    "duration": 0.19264099999999829
                },
                {
                    "name": "C4",
                    "midi": 60,
                    "time": 28.318227000000036,
                    "velocity": 0.33070866141732286,
                    "duration": 0.3852820000000001
                },
                {
                    "name": "C#4",
                    "midi": 61,
                    "time": 28.703509000000036,
                    "velocity": 0.33070866141732286,
                    "duration": 0.19264099999999829
                },
                {
                    "name": "D4",
                    "midi": 62,
                    "time": 28.896150000000034,
                    "velocity": 0.3700787401574803,
                    "duration": 0.7705640000000002
                },
                {
                    "name": "A2",
                    "midi": 45,
                    "time": 30.437278000000035,
                    "velocity": 0.47244094488188976,
                    "duration": 0.19264099999999829
                },
                {
                    "name": "A#2",
                    "midi": 46,
                    "time": 30.629919000000033,
                    "velocity": 0.5196850393700787,
                    "duration": 0.09632050000000092
                },
                {
                    "name": "G3",
                    "midi": 55,
                    "time": 30.822560000000035,
                    "velocity": 0.48031496062992124,
                    "duration": 0.09632050000000092
                },
                {
                    "name": "B2",
                    "midi": 47,
                    "time": 31.015201000000037,
                    "velocity": 0.48031496062992124,
                    "duration": 0.09632050000000092
                },
                {
                    "name": "C3",
                    "midi": 48,
                    "time": 31.20784200000004,
                    "velocity": 0.5196850393700787,
                    "duration": 0.09632050000000092
                },
                {
                    "name": "A3",
                    "midi": 57,
                    "time": 31.40048300000004,
                    "velocity": 0.48031496062992124,
                    "duration": 0.09632050000000092
                },
                {
                    "name": "C#3",
                    "midi": 49,
                    "time": 31.593124000000042,
                    "velocity": 0.48031496062992124,
                    "duration": 0.09632050000000092
                },
                {
                    "name": "D3",
                    "midi": 50,
                    "time": 31.785765000000044,
                    "velocity": 0.5196850393700787,
                    "duration": 0.09632050000000092
                },
                {
                    "name": "A#3",
                    "midi": 58,
                    "time": 31.978406000000046,
                    "velocity": 0.48031496062992124,
                    "duration": 0.09632050000000092
                },
                {
                    "name": "E3",
                    "midi": 52,
                    "time": 32.171047000000044,
                    "velocity": 0.48031496062992124,
                    "duration": 0.09632049999999737
                },
                {
                    "name": "A#3",
                    "midi": 58,
                    "time": 32.941611000000044,
                    "velocity": 0.2204724409448819,
                    "duration": 0.5779229999999984
                },
                {
                    "name": "C4",
                    "midi": 60,
                    "time": 32.941611000000044,
                    "velocity": 0.2204724409448819,
                    "duration": 0.5779229999999984
                },
                {
                    "name": "G4",
                    "midi": 67,
                    "time": 32.941611000000044,
                    "velocity": 0.2677165354330709,
                    "duration": 0.5779229999999984
                },
                {
                    "name": "E4",
                    "midi": 64,
                    "time": 32.941611000000044,
                    "velocity": 0.2204724409448819,
                    "duration": 0.5779229999999984
                },
                {
                    "name": "A3",
                    "midi": 57,
                    "time": 33.51953400000004,
                    "velocity": 0.3228346456692913,
                    "duration": 0.19264100000000184
                },
                {
                    "name": "C4",
                    "midi": 60,
                    "time": 33.51953400000004,
                    "velocity": 0.3228346456692913,
                    "duration": 0.19264100000000184
                },
                {
                    "name": "F4",
                    "midi": 65,
                    "time": 33.51953400000004,
                    "velocity": 0.3858267716535433,
                    "duration": 0.19264100000000184
                },
                {
                    "name": "D4",
                    "midi": 62,
                    "time": 34.09745700000004,
                    "velocity": 0.25984251968503935,
                    "duration": 0.19264100000000184
                },
                {
                    "name": "F4",
                    "midi": 65,
                    "time": 34.09745700000004,
                    "velocity": 0.33070866141732286,
                    "duration": 0.19264100000000184
                },
                {
                    "name": "A#3",
                    "midi": 58,
                    "time": 34.09745700000004,
                    "velocity": 0.25984251968503935,
                    "duration": 0.19264100000000184
                },
                {
                    "name": "C3",
                    "midi": 48,
                    "time": 34.67538000000004,
                    "velocity": 0.2125984251968504,
                    "duration": 1.1558459999999968
                },
                {
                    "name": "A3",
                    "midi": 57,
                    "time": 34.67538000000004,
                    "velocity": 0.25196850393700787,
                    "duration": 0.5779229999999984
                },
                {
                    "name": "A#3",
                    "midi": 58,
                    "time": 35.25330300000004,
                    "velocity": 0.2204724409448819,
                    "duration": 0.5779229999999984
                },
                {
                    "name": "F3",
                    "midi": 53,
                    "time": 35.831226000000036,
                    "velocity": 0.2204724409448819,
                    "duration": 0.5779230000000055
                },
                {
                    "name": "A3",
                    "midi": 57,
                    "time": 36.02386700000004,
                    "velocity": 0.1889763779527559,
                    "duration": 0.19264100000000184
                },
                {
                    "name": "C4",
                    "midi": 60,
                    "time": 36.21650800000004,
                    "velocity": 0.1889763779527559,
                    "duration": 0.19264100000000184
                },
                {
                    "name": "F3",
                    "midi": 53,
                    "time": 36.40914900000004,
                    "velocity": 0.2204724409448819,
                    "duration": 0.5779230000000055
                },
                {
                    "name": "G3",
                    "midi": 55,
                    "time": 36.601790000000044,
                    "velocity": 0.2047244094488189,
                    "duration": 0.19264100000000184
                },
                {
                    "name": "A#3",
                    "midi": 58,
                    "time": 36.794431000000046,
                    "velocity": 0.2047244094488189,
                    "duration": 0.19264100000000184
                },
                {
                    "name": "F3",
                    "midi": 53,
                    "time": 36.98707200000005,
                    "velocity": 0.2204724409448819,
                    "duration": 0.5779230000000055
                },
                {
                    "name": "A3",
                    "midi": 57,
                    "time": 37.17971300000005,
                    "velocity": 0.1889763779527559,
                    "duration": 0.19264100000000184
                },
                {
                    "name": "C4",
                    "midi": 60,
                    "time": 37.37235400000005,
                    "velocity": 0.1889763779527559,
                    "duration": 0.19264100000000184
                },
                {
                    "name": "F3",
                    "midi": 53,
                    "time": 37.56499500000005,
                    "velocity": 0.2204724409448819,
                    "duration": 0.5779230000000055
                },
                {
                    "name": "G3",
                    "midi": 55,
                    "time": 37.757636000000055,
                    "velocity": 0.1889763779527559,
                    "duration": 0.19264100000000184
                },
                {
                    "name": "A#3",
                    "midi": 58,
                    "time": 37.95027700000006,
                    "velocity": 0.1889763779527559,
                    "duration": 0.19264100000000184
                },
                {
                    "name": "F3",
                    "midi": 53,
                    "time": 38.14291800000006,
                    "velocity": 0.2204724409448819,
                    "duration": 0.5779230000000055
                },
                {
                    "name": "A3",
                    "midi": 57,
                    "time": 38.33555900000006,
                    "velocity": 0.1889763779527559,
                    "duration": 0.19264100000000184
                },
                {
                    "name": "C4",
                    "midi": 60,
                    "time": 38.52820000000006,
                    "velocity": 0.1889763779527559,
                    "duration": 0.19264100000000184
                },
                {
                    "name": "F3",
                    "midi": 53,
                    "time": 38.720841000000064,
                    "velocity": 0.2204724409448819,
                    "duration": 0.5779230000000055
                },
                {
                    "name": "A3",
                    "midi": 57,
                    "time": 38.913482000000066,
                    "velocity": 0.1889763779527559,
                    "duration": 0.19264100000000184
                },
                {
                    "name": "C4",
                    "midi": 60,
                    "time": 39.10612300000007,
                    "velocity": 0.1889763779527559,
                    "duration": 0.19264100000000184
                },
                {
                    "name": "F3",
                    "midi": 53,
                    "time": 39.29876400000007,
                    "velocity": 0.2204724409448819,
                    "duration": 0.7705640000000002
                },
                {
                    "name": "F2",
                    "midi": 41,
                    "time": 39.29876400000007,
                    "velocity": 0.18110236220472442,
                    "duration": 0.7705640000000002
                },
                {
                    "name": "A2",
                    "midi": 45,
                    "time": 41.61045600000007,
                    "velocity": 0.49606299212598426,
                    "duration": 0.5779229999999984
                },
                {
                    "name": "A3",
                    "midi": 57,
                    "time": 41.61045600000007,
                    "velocity": 0.5826771653543307,
                    "duration": 0.5779229999999984
                },
                {
                    "name": "G3",
                    "midi": 55,
                    "time": 42.18837900000007,
                    "velocity": 0.5826771653543307,
                    "duration": 0.5779229999999984
                },
                {
                    "name": "G2",
                    "midi": 43,
                    "time": 42.18837900000007,
                    "velocity": 0.49606299212598426,
                    "duration": 0.5779229999999984
                },
                {
                    "name": "F3",
                    "midi": 53,
                    "time": 42.76630200000007,
                    "velocity": 0.5826771653543307,
                    "duration": 0.5779229999999984
                },
                {
                    "name": "F2",
                    "midi": 41,
                    "time": 42.76630200000007,
                    "velocity": 0.49606299212598426,
                    "duration": 0.5779229999999984
                },
                {
                    "name": "E2",
                    "midi": 40,
                    "time": 43.344225000000066,
                    "velocity": 0.49606299212598426,
                    "duration": 0.5779229999999984
                },
                {
                    "name": "E3",
                    "midi": 52,
                    "time": 43.344225000000066,
                    "velocity": 0.5826771653543307,
                    "duration": 0.5779229999999984
                },
                {
                    "name": "D3",
                    "midi": 50,
                    "time": 43.922148000000064,
                    "velocity": 0.4645669291338583,
                    "duration": 0.19264100000000184
                },
                {
                    "name": "F3",
                    "midi": 53,
                    "time": 44.114789000000066,
                    "velocity": 0.4251968503937008,
                    "duration": 0.19264100000000184
                },
                {
                    "name": "A3",
                    "midi": 57,
                    "time": 44.30743000000007,
                    "velocity": 0.4251968503937008,
                    "duration": 0.19264100000000184
                },
                {
                    "name": "C#3",
                    "midi": 49,
                    "time": 44.50007100000007,
                    "velocity": 0.4645669291338583,
                    "duration": 0.19264100000000184
                },
                {
                    "name": "E3",
                    "midi": 52,
                    "time": 44.69271200000007,
                    "velocity": 0.4251968503937008,
                    "duration": 0.19264100000000184
                },
                {
                    "name": "A3",
                    "midi": 57,
                    "time": 44.88535300000007,
                    "velocity": 0.4251968503937008,
                    "duration": 0.19264100000000184
                },
                {
                    "name": "D3",
                    "midi": 50,
                    "time": 45.077994000000075,
                    "velocity": 0.4645669291338583,
                    "duration": 0.19264100000000184
                },
                {
                    "name": "F3",
                    "midi": 53,
                    "time": 45.27063500000008,
                    "velocity": 0.4251968503937008,
                    "duration": 0.19264100000000184
                },
                {
                    "name": "A3",
                    "midi": 57,
                    "time": 45.46327600000008,
                    "velocity": 0.4251968503937008,
                    "duration": 0.19264100000000184
                },
                {
                    "name": "C3",
                    "midi": 48,
                    "time": 45.65591700000008,
                    "velocity": 0.4645669291338583,
                    "duration": 0.19264100000000184
                },
                {
                    "name": "F#3",
                    "midi": 54,
                    "time": 45.84855800000008,
                    "velocity": 0.41732283464566927,
                    "duration": 0.19264100000000184
                },
                {
                    "name": "A3",
                    "midi": 57,
                    "time": 46.041199000000084,
                    "velocity": 0.41732283464566927,
                    "duration": 0.19264100000000184
                },
                {
                    "name": "B2",
                    "midi": 47,
                    "time": 46.233840000000086,
                    "velocity": 0.4566929133858268,
                    "duration": 0.38528199999999657
                },
                {
                    "name": "G4",
                    "midi": 67,
                    "time": 47.38968600000008,
                    "velocity": 0.4251968503937008,
                    "duration": 0.5779229999999984
                },
                {
                    "name": "F4",
                    "midi": 65,
                    "time": 47.96760900000008,
                    "velocity": 0.3464566929133858,
                    "duration": 0.5779229999999984
                },
                {
                    "name": "G4",
                    "midi": 67,
                    "time": 47.96760900000008,
                    "velocity": 0.4094488188976378,
                    "duration": 0.5779229999999984
                },
                {
                    "name": "E4",
                    "midi": 64,
                    "time": 48.54553200000008,
                    "velocity": 0.31496062992125984,
                    "duration": 0.5779229999999984
                },
                {
                    "name": "G4",
                    "midi": 67,
                    "time": 48.54553200000008,
                    "velocity": 0.3700787401574803,
                    "duration": 0.5779229999999984
                },
                {
                    "name": "G4",
                    "midi": 67,
                    "time": 49.12345500000008,
                    "velocity": 0.36220472440944884,
                    "duration": 0.5779229999999984
                },
                {
                    "name": "F4",
                    "midi": 65,
                    "time": 49.12345500000008,
                    "velocity": 0.30708661417322836,
                    "duration": 0.5779229999999984
                },
                {
                    "name": "D4",
                    "midi": 62,
                    "time": 49.12345500000008,
                    "velocity": 0.30708661417322836,
                    "duration": 0.5779229999999984
                },
                {
                    "name": "C4",
                    "midi": 60,
                    "time": 49.701378000000076,
                    "velocity": 0.3464566929133858,
                    "duration": 0.09632049999999737
                },
                {
                    "name": "E4",
                    "midi": 64,
                    "time": 49.89401900000007,
                    "velocity": 0.29133858267716534,
                    "duration": 0.09632049999999737
                },
                {
                    "name": "G4",
                    "midi": 67,
                    "time": 50.086660000000066,
                    "velocity": 0.29133858267716534,
                    "duration": 0.09632049999999737
                },
                {
                    "name": "B3",
                    "midi": 59,
                    "time": 50.27930100000006,
                    "velocity": 0.33858267716535434,
                    "duration": 0.09632049999999737
                },
                {
                    "name": "F4",
                    "midi": 65,
                    "time": 50.471942000000055,
                    "velocity": 0.29133858267716534,
                    "duration": 0.09632049999999737
                },
                {
                    "name": "G4",
                    "midi": 67,
                    "time": 50.66458300000005,
                    "velocity": 0.29133858267716534,
                    "duration": 0.09632049999999737
                },
                {
                    "name": "C4",
                    "midi": 60,
                    "time": 50.857224000000045,
                    "velocity": 0.36220472440944884,
                    "duration": 0.19264100000000184
                },
                {
                    "name": "E4",
                    "midi": 64,
                    "time": 50.857224000000045,
                    "velocity": 0.36220472440944884,
                    "duration": 0.19264100000000184
                },
                {
                    "name": "G4",
                    "midi": 67,
                    "time": 50.857224000000045,
                    "velocity": 0.36220472440944884,
                    "duration": 0.19264100000000184
                },
                {
                    "name": "F3",
                    "midi": 53,
                    "time": 52.01307000000005,
                    "velocity": 0.3228346456692913,
                    "duration": 0.09632049999999737
                },
                {
                    "name": "F4",
                    "midi": 65,
                    "time": 52.20571100000004,
                    "velocity": 0.2755905511811024,
                    "duration": 0.09632049999999737
                },
                {
                    "name": "B2",
                    "midi": 47,
                    "time": 52.59099300000004,
                    "velocity": 0.33858267716535434,
                    "duration": 0.09632049999999737
                },
                {
                    "name": "B3",
                    "midi": 59,
                    "time": 52.783634000000035,
                    "velocity": 0.2992125984251969,
                    "duration": 0.09632049999999737
                },
                {
                    "name": "E3",
                    "midi": 52,
                    "time": 53.16891600000003,
                    "velocity": 0.3464566929133858,
                    "duration": 0.09632049999999737
                },
                {
                    "name": "E4",
                    "midi": 64,
                    "time": 53.361557000000026,
                    "velocity": 0.31496062992125984,
                    "duration": 0.09632049999999737
                },
                {
                    "name": "A2",
                    "midi": 45,
                    "time": 53.74683900000002,
                    "velocity": 0.33858267716535434,
                    "duration": 0.09632049999999737
                },
                {
                    "name": "A3",
                    "midi": 57,
                    "time": 53.93948000000002,
                    "velocity": 0.31496062992125984,
                    "duration": 0.09632049999999737
                },
                {
                    "name": "D3",
                    "midi": 50,
                    "time": 54.324762000000014,
                    "velocity": 0.3779527559055118,
                    "duration": 0.09632049999999737
                },
                {
                    "name": "B3",
                    "midi": 59,
                    "time": 54.71004400000001,
                    "velocity": 0.33858267716535434,
                    "duration": 0.09632049999999737
                },
                {
                    "name": "C4",
                    "midi": 60,
                    "time": 54.902685000000005,
                    "velocity": 0.3858267716535433,
                    "duration": 0.09632049999999737
                },
                {
                    "name": "C3",
                    "midi": 48,
                    "time": 55.287967,
                    "velocity": 0.31496062992125984,
                    "duration": 0.09632049999999737
                },
                {
                    "name": "G3",
                    "midi": 55,
                    "time": 55.480608,
                    "velocity": 0.3700787401574803,
                    "duration": 0.09632049999999737
                },
                {
                    "name": "A4",
                    "midi": 69,
                    "time": 56.15485149999999,
                    "velocity": 0.44881889763779526,
                    "duration": 0.10595254999999781
                },
                {
                    "name": "G4",
                    "midi": 67,
                    "time": 56.25117199999999,
                    "velocity": 0.4409448818897638,
                    "duration": 0.10595254999999781
                },
                {
                    "name": "F4",
                    "midi": 65,
                    "time": 56.34749249999999,
                    "velocity": 0.4330708661417323,
                    "duration": 0.10595254999999781
                },
                {
                    "name": "E4",
                    "midi": 64,
                    "time": 56.443812999999984,
                    "velocity": 0.4094488188976378,
                    "duration": 0.10595254999999781
                },
                {
                    "name": "D4",
                    "midi": 62,
                    "time": 56.54013349999998,
                    "velocity": 0.4015748031496063,
                    "duration": 0.09632049999999737
                },
                {
                    "name": "C4",
                    "midi": 60,
                    "time": 56.63645399999998,
                    "velocity": 0.3228346456692913,
                    "duration": 0.19264100000000184
                },
                {
                    "name": "D#4",
                    "midi": 63,
                    "time": 56.82909499999998,
                    "velocity": 0.2440944881889764,
                    "duration": 0.19264100000000184
                },
                {
                    "name": "G4",
                    "midi": 67,
                    "time": 57.02173599999998,
                    "velocity": 0.2440944881889764,
                    "duration": 0.19264100000000184
                },
                {
                    "name": "C4",
                    "midi": 60,
                    "time": 57.214376999999985,
                    "velocity": 0.29133858267716534,
                    "duration": 0.19264100000000184
                },
                {
                    "name": "D#4",
                    "midi": 63,
                    "time": 57.40701799999999,
                    "velocity": 0.2440944881889764,
                    "duration": 0.19264100000000184
                },
                {
                    "name": "G4",
                    "midi": 67,
                    "time": 57.59965899999999,
                    "velocity": 0.2440944881889764,
                    "duration": 0.19264100000000184
                },
                {
                    "name": "B3",
                    "midi": 59,
                    "time": 57.79229999999999,
                    "velocity": 0.3228346456692913,
                    "duration": 0.19264100000000184
                },
                {
                    "name": "D4",
                    "midi": 62,
                    "time": 57.98494099999999,
                    "velocity": 0.2440944881889764,
                    "duration": 0.19264100000000184
                },
                {
                    "name": "G4",
                    "midi": 67,
                    "time": 58.177581999999994,
                    "velocity": 0.2440944881889764,
                    "duration": 0.19264100000000184
                },
                {
                    "name": "B3",
                    "midi": 59,
                    "time": 58.370222999999996,
                    "velocity": 0.28346456692913385,
                    "duration": 0.19264100000000184
                },
                {
                    "name": "D4",
                    "midi": 62,
                    "time": 58.562864,
                    "velocity": 0.2440944881889764,
                    "duration": 0.19264100000000184
                },
                {
                    "name": "G4",
                    "midi": 67,
                    "time": 58.755505,
                    "velocity": 0.2440944881889764,
                    "duration": 0.19264100000000184
                },
                {
                    "name": "B3",
                    "midi": 59,
                    "time": 58.948146,
                    "velocity": 0.3228346456692913,
                    "duration": 0.19264100000000184
                },
                {
                    "name": "D4",
                    "midi": 62,
                    "time": 59.140787,
                    "velocity": 0.2440944881889764,
                    "duration": 0.19264100000000184
                },
                {
                    "name": "F4",
                    "midi": 65,
                    "time": 59.333428000000005,
                    "velocity": 0.2440944881889764,
                    "duration": 0.19264100000000184
                },
                {
                    "name": "B3",
                    "midi": 59,
                    "time": 59.52606900000001,
                    "velocity": 0.29133858267716534,
                    "duration": 0.19264100000000184
                },
                {
                    "name": "D4",
                    "midi": 62,
                    "time": 59.71871000000001,
                    "velocity": 0.2440944881889764,
                    "duration": 0.19264100000000184
                },
                {
                    "name": "G4",
                    "midi": 67,
                    "time": 59.91135100000001,
                    "velocity": 0.2440944881889764,
                    "duration": 0.19264100000000184
                },
                {
                    "name": "C4",
                    "midi": 60,
                    "time": 60.10399200000001,
                    "velocity": 0.3228346456692913,
                    "duration": 0.19264100000000184
                },
                {
                    "name": "D#4",
                    "midi": 63,
                    "time": 60.296633000000014,
                    "velocity": 0.2440944881889764,
                    "duration": 0.19264100000000184
                },
                {
                    "name": "G4",
                    "midi": 67,
                    "time": 60.489274000000016,
                    "velocity": 0.2440944881889764,
                    "duration": 0.19264100000000184
                },
                {
                    "name": "C4",
                    "midi": 60,
                    "time": 60.68191500000002,
                    "velocity": 0.28346456692913385,
                    "duration": 0.19264100000000184
                },
                {
                    "name": "D#4",
                    "midi": 63,
                    "time": 60.87455600000002,
                    "velocity": 0.2440944881889764,
                    "duration": 0.19264100000000184
                },
                {
                    "name": "G4",
                    "midi": 67,
                    "time": 61.06719700000002,
                    "velocity": 0.2440944881889764,
                    "duration": 0.19264100000000184
                },
                {
                    "name": "D#4",
                    "midi": 63,
                    "time": 61.25983800000002,
                    "velocity": 0.3700787401574803,
                    "duration": 0.19264100000000184
                },
                {
                    "name": "G4",
                    "midi": 67,
                    "time": 61.452479000000025,
                    "velocity": 0.28346456692913385,
                    "duration": 0.19264100000000184
                },
                {
                    "name": "C5",
                    "midi": 72,
                    "time": 61.64512000000003,
                    "velocity": 0.28346456692913385,
                    "duration": 0.19264100000000184
                },
                {
                    "name": "D4",
                    "midi": 62,
                    "time": 61.83776100000003,
                    "velocity": 0.3464566929133858,
                    "duration": 0.19264100000000184
                },
                {
                    "name": "F4",
                    "midi": 65,
                    "time": 62.03040200000003,
                    "velocity": 0.25196850393700787,
                    "duration": 0.19264100000000184
                },
                {
                    "name": "A#4",
                    "midi": 70,
                    "time": 62.22304300000003,
                    "velocity": 0.25984251968503935,
                    "duration": 0.19264100000000184
                },
                {
                    "name": "C4",
                    "midi": 60,
                    "time": 62.415684000000034,
                    "velocity": 0.3779527559055118,
                    "duration": 0.19264100000000184
                },
                {
                    "name": "D#4",
                    "midi": 63,
                    "time": 62.608325000000036,
                    "velocity": 0.28346456692913385,
                    "duration": 0.19264100000000184
                },
                {
                    "name": "G#4",
                    "midi": 68,
                    "time": 62.80096600000004,
                    "velocity": 0.28346456692913385,
                    "duration": 0.19264100000000184
                },
                {
                    "name": "A#3",
                    "midi": 58,
                    "time": 62.99360700000004,
                    "velocity": 0.3543307086614173,
                    "duration": 0.19264100000000184
                },
                {
                    "name": "D4",
                    "midi": 62,
                    "time": 63.18624800000004,
                    "velocity": 0.2440944881889764,
                    "duration": 0.19264100000000184
                },
                {
                    "name": "G4",
                    "midi": 67,
                    "time": 63.37888900000004,
                    "velocity": 0.2440944881889764,
                    "duration": 0.19264100000000184
                },
                {
                    "name": "G#3",
                    "midi": 56,
                    "time": 63.571530000000045,
                    "velocity": 0.36220472440944884,
                    "duration": 0.19264100000000184
                },
                {
                    "name": "C4",
                    "midi": 60,
                    "time": 63.76417100000005,
                    "velocity": 0.2755905511811024,
                    "duration": 0.19264100000000184
                },
                {
                    "name": "F4",
                    "midi": 65,
                    "time": 63.95681200000005,
                    "velocity": 0.2755905511811024,
                    "duration": 0.19264100000000184
                },
                {
                    "name": "G#3",
                    "midi": 56,
                    "time": 64.14945300000005,
                    "velocity": 0.33858267716535434,
                    "duration": 0.19264099999999473
                },
                {
                    "name": "C4",
                    "midi": 60,
                    "time": 64.34209400000005,
                    "velocity": 0.28346456692913385,
                    "duration": 0.19264099999999473
                },
                {
                    "name": "F#4",
                    "midi": 66,
                    "time": 64.53473500000004,
                    "velocity": 0.2677165354330709,
                    "duration": 0.19264099999999473
                },
                {
                    "name": "G3",
                    "midi": 55,
                    "time": 64.72737600000004,
                    "velocity": 0.33858267716535434,
                    "duration": 0.19264099999999473
                },
                {
                    "name": "C4",
                    "midi": 60,
                    "time": 64.92001700000003,
                    "velocity": 0.2283464566929134,
                    "duration": 0.19264099999999473
                },
                {
                    "name": "G4",
                    "midi": 67,
                    "time": 65.11265800000002,
                    "velocity": 0.23622047244094488,
                    "duration": 0.19264099999999473
                },
                {
                    "name": "G3",
                    "midi": 55,
                    "time": 65.30529900000002,
                    "velocity": 0.30708661417322836,
                    "duration": 0.19264099999999473
                },
                {
                    "name": "B3",
                    "midi": 59,
                    "time": 65.49794000000001,
                    "velocity": 0.2125984251968504,
                    "duration": 0.19264099999999473
                },
                {
                    "name": "G4",
                    "midi": 67,
                    "time": 65.69058100000001,
                    "velocity": 0.2125984251968504,
                    "duration": 0.19264099999999473
                },
                {
                    "name": "C4",
                    "midi": 60,
                    "time": 65.883222,
                    "velocity": 0.3228346456692913,
                    "duration": 0.19264099999999473
                },
                {
                    "name": "D#4",
                    "midi": 63,
                    "time": 66.075863,
                    "velocity": 0.2440944881889764,
                    "duration": 0.19264099999999473
                },
                {
                    "name": "G4",
                    "midi": 67,
                    "time": 66.268504,
                    "velocity": 0.2440944881889764,
                    "duration": 0.19264099999999473
                },
                {
                    "name": "C4",
                    "midi": 60,
                    "time": 66.46114499999999,
                    "velocity": 0.29133858267716534,
                    "duration": 0.19264099999999473
                },
                {
                    "name": "D#4",
                    "midi": 63,
                    "time": 66.65378599999998,
                    "velocity": 0.2440944881889764,
                    "duration": 0.19264099999999473
                },
                {
                    "name": "G4",
                    "midi": 67,
                    "time": 66.84642699999998,
                    "velocity": 0.2440944881889764,
                    "duration": 0.19264099999999473
                },
                {
                    "name": "B3",
                    "midi": 59,
                    "time": 67.03906799999997,
                    "velocity": 0.3228346456692913,
                    "duration": 0.19264099999999473
                },
                {
                    "name": "D4",
                    "midi": 62,
                    "time": 67.23170899999997,
                    "velocity": 0.2440944881889764,
                    "duration": 0.19264099999999473
                },
                {
                    "name": "G4",
                    "midi": 67,
                    "time": 67.42434999999996,
                    "velocity": 0.2440944881889764,
                    "duration": 0.19264099999999473
                },
                {
                    "name": "B3",
                    "midi": 59,
                    "time": 67.61699099999996,
                    "velocity": 0.28346456692913385,
                    "duration": 0.19264099999999473
                },
                {
                    "name": "D4",
                    "midi": 62,
                    "time": 67.80963199999995,
                    "velocity": 0.2440944881889764,
                    "duration": 0.19264099999999473
                },
                {
                    "name": "G4",
                    "midi": 67,
                    "time": 68.00227299999995,
                    "velocity": 0.2440944881889764,
                    "duration": 0.19264099999999473
                },
                {
                    "name": "B3",
                    "midi": 59,
                    "time": 68.19491399999994,
                    "velocity": 0.3228346456692913,
                    "duration": 0.19264099999999473
                },
                {
                    "name": "D4",
                    "midi": 62,
                    "time": 68.38755499999994,
                    "velocity": 0.2440944881889764,
                    "duration": 0.19264099999999473
                },
                {
                    "name": "F4",
                    "midi": 65,
                    "time": 68.58019599999993,
                    "velocity": 0.2440944881889764,
                    "duration": 0.19264099999999473
                },
                {
                    "name": "B3",
                    "midi": 59,
                    "time": 68.77283699999992,
                    "velocity": 0.29133858267716534,
                    "duration": 0.19264099999999473
                },
                {
                    "name": "D4",
                    "midi": 62,
                    "time": 68.96547799999992,
                    "velocity": 0.2440944881889764,
                    "duration": 0.19264099999999473
                },
                {
                    "name": "G4",
                    "midi": 67,
                    "time": 69.15811899999991,
                    "velocity": 0.2440944881889764,
                    "duration": 0.19264099999999473
                },
                {
                    "name": "A#3",
                    "midi": 58,
                    "time": 69.35075999999991,
                    "velocity": 0.3228346456692913,
                    "duration": 0.19264099999999473
                },
                {
                    "name": "C#4",
                    "midi": 61,
                    "time": 69.5434009999999,
                    "velocity": 0.2440944881889764,
                    "duration": 0.19264099999999473
                },
                {
                    "name": "G4",
                    "midi": 67,
                    "time": 69.7360419999999,
                    "velocity": 0.2440944881889764,
                    "duration": 0.19264099999999473
                },
                {
                    "name": "A3",
                    "midi": 57,
                    "time": 69.9286829999999,
                    "velocity": 0.28346456692913385,
                    "duration": 0.19264099999999473
                },
                {
                    "name": "C4",
                    "midi": 60,
                    "time": 70.12132399999989,
                    "velocity": 0.2440944881889764,
                    "duration": 0.19264099999999473
                },
                {
                    "name": "F4",
                    "midi": 65,
                    "time": 70.31396499999988,
                    "velocity": 0.2440944881889764,
                    "duration": 0.19264099999999473
                },
                {
                    "name": "G#3",
                    "midi": 56,
                    "time": 70.50660599999988,
                    "velocity": 0.4094488188976378,
                    "duration": 0.19264099999999473
                },
                {
                    "name": "C4",
                    "midi": 60,
                    "time": 70.69924699999987,
                    "velocity": 0.3228346456692913,
                    "duration": 0.19264099999999473
                },
                {
                    "name": "F#4",
                    "midi": 66,
                    "time": 70.89188799999987,
                    "velocity": 0.3228346456692913,
                    "duration": 0.19264099999999473
                },
                {
                    "name": "G3",
                    "midi": 55,
                    "time": 71.08452899999986,
                    "velocity": 0.4015748031496063,
                    "duration": 0.19264099999999473
                },
                {
                    "name": "C4",
                    "midi": 60,
                    "time": 71.27716999999986,
                    "velocity": 0.28346456692913385,
                    "duration": 0.19264099999999473
                },
                {
                    "name": "G4",
                    "midi": 67,
                    "time": 71.46981099999985,
                    "velocity": 0.28346456692913385,
                    "duration": 0.19264099999999473
                },
                {
                    "name": "F3",
                    "midi": 53,
                    "time": 71.66245199999985,
                    "velocity": 0.4409448818897638,
                    "duration": 0.19264099999999473
                },
                {
                    "name": "G#3",
                    "midi": 56,
                    "time": 71.85509299999984,
                    "velocity": 0.28346456692913385,
                    "duration": 0.19264099999999473
                },
                {
                    "name": "D4",
                    "midi": 62,
                    "time": 72.04773399999983,
                    "velocity": 0.28346456692913385,
                    "duration": 0.19264099999999473
                },
                {
                    "name": "D#3",
                    "midi": 51,
                    "time": 72.24037499999983,
                    "velocity": 0.3543307086614173,
                    "duration": 0.19264099999999473
                },
                {
                    "name": "C4",
                    "midi": 60,
                    "time": 72.43301599999982,
                    "velocity": 0.2440944881889764,
                    "duration": 0.19264099999999473
                },
                {
                    "name": "F3",
                    "midi": 53,
                    "time": 72.62565699999982,
                    "velocity": 0.2440944881889764,
                    "duration": 0.19264099999999473
                },
                {
                    "name": "G3",
                    "midi": 55,
                    "time": 72.81829799999981,
                    "velocity": 0.3543307086614173,
                    "duration": 0.19264099999999473
                },
                {
                    "name": "C4",
                    "midi": 60,
                    "time": 73.01093899999981,
                    "velocity": 0.23622047244094488,
                    "duration": 0.19264099999999473
                },
                {
                    "name": "D#4",
                    "midi": 63,
                    "time": 73.2035799999998,
                    "velocity": 0.23622047244094488,
                    "duration": 0.19264099999999473
                },
                {
                    "name": "G3",
                    "midi": 55,
                    "time": 73.3962209999998,
                    "velocity": 0.2992125984251969,
                    "duration": 0.19264099999999473
                },
                {
                    "name": "D4",
                    "midi": 62,
                    "time": 73.58886199999979,
                    "velocity": 0.2440944881889764,
                    "duration": 0.19264099999999473
                },
                {
                    "name": "F4",
                    "midi": 65,
                    "time": 73.78150299999979,
                    "velocity": 0.2440944881889764,
                    "duration": 0.19264099999999473
                },
                {
                    "name": "C4",
                    "midi": 60,
                    "time": 73.97414399999978,
                    "velocity": 0.5275590551181102,
                    "duration": 0.3852820000000037
                },
                {
                    "name": "E4",
                    "midi": 64,
                    "time": 73.97414399999978,
                    "velocity": 0.5275590551181102,
                    "duration": 0.3852820000000037
                },
                {
                    "name": "D4",
                    "midi": 62,
                    "time": 74.55206699999978,
                    "velocity": 0.5275590551181102,
                    "duration": 0.09632050000000447
                },
                {
                    "name": "B3",
                    "midi": 59,
                    "time": 74.74470799999979,
                    "velocity": 0.4881889763779528,
                    "duration": 0.09632050000000447
                },
                {
                    "name": "G3",
                    "midi": 55,
                    "time": 74.9373489999998,
                    "velocity": 0.4881889763779528,
                    "duration": 0.09632050000000447
                },
                {
                    "name": "C4",
                    "midi": 60,
                    "time": 75.12998999999981,
                    "velocity": 0.5275590551181102,
                    "duration": 0.3852820000000037
                },
                {
                    "name": "D4",
                    "midi": 62,
                    "time": 75.7079129999998,
                    "velocity": 0.5275590551181102,
                    "duration": 0.09632050000000447
                },
                {
                    "name": "B3",
                    "midi": 59,
                    "time": 75.90055399999981,
                    "velocity": 0.4881889763779528,
                    "duration": 0.09632050000000447
                },
                {
                    "name": "G3",
                    "midi": 55,
                    "time": 76.09319499999982,
                    "velocity": 0.4881889763779528,
                    "duration": 0.09632050000000447
                },
                {
                    "name": "C4",
                    "midi": 60,
                    "time": 76.28583599999983,
                    "velocity": 0.5275590551181102,
                    "duration": 0.3852820000000037
                },
                {
                    "name": "D4",
                    "midi": 62,
                    "time": 76.86375899999983,
                    "velocity": 0.5275590551181102,
                    "duration": 0.09632050000000447
                },
                {
                    "name": "B3",
                    "midi": 59,
                    "time": 77.05639999999984,
                    "velocity": 0.4881889763779528,
                    "duration": 0.09632050000000447
                },
                {
                    "name": "G3",
                    "midi": 55,
                    "time": 77.24904099999985,
                    "velocity": 0.4881889763779528,
                    "duration": 0.09632050000000447
                },
                {
                    "name": "C4",
                    "midi": 60,
                    "time": 77.44168199999986,
                    "velocity": 0.5275590551181102,
                    "duration": 0.3852820000000037
                },
                {
                    "name": "A2",
                    "midi": 45,
                    "time": 79.94601499999986,
                    "velocity": 0.36220472440944884,
                    "duration": 0.21190509999999563
                },
                {
                    "name": "C3",
                    "midi": 48,
                    "time": 80.13865599999986,
                    "velocity": 0.3858267716535433,
                    "duration": 0.21190509999999563
                },
                {
                    "name": "D#3",
                    "midi": 51,
                    "time": 80.33129699999985,
                    "velocity": 0.4015748031496063,
                    "duration": 0.21190509999999563
                },
                {
                    "name": "D3",
                    "midi": 50,
                    "time": 80.52393799999984,
                    "velocity": 0.36220472440944884,
                    "duration": 0.21190509999999563
                },
                {
                    "name": "C3",
                    "midi": 48,
                    "time": 80.71657899999984,
                    "velocity": 0.36220472440944884,
                    "duration": 0.3852820000000037
                },
                {
                    "name": "B2",
                    "midi": 47,
                    "time": 81.10186099999984,
                    "velocity": 0.3543307086614173,
                    "duration": 0.21190509999999563
                },
                {
                    "name": "D3",
                    "midi": 50,
                    "time": 81.29450199999984,
                    "velocity": 0.36220472440944884,
                    "duration": 0.21190509999999563
                },
                {
                    "name": "G#3",
                    "midi": 56,
                    "time": 81.48714299999983,
                    "velocity": 0.4015748031496063,
                    "duration": 0.21190509999999563
                },
                {
                    "name": "G3",
                    "midi": 55,
                    "time": 81.67978399999983,
                    "velocity": 0.36220472440944884,
                    "duration": 0.21190509999999563
                },
                {
                    "name": "F3",
                    "midi": 53,
                    "time": 81.87242499999982,
                    "velocity": 0.36220472440944884,
                    "duration": 0.21190509999999563
                },
                {
                    "name": "E3",
                    "midi": 52,
                    "time": 82.06506599999982,
                    "velocity": 0.28346456692913385,
                    "duration": 0.19264099999999473
                },
                {
                    "name": "F3",
                    "midi": 53,
                    "time": 82.64298899999982,
                    "velocity": 0.31496062992125984,
                    "duration": 0.19264099999999473
                },
                {
                    "name": "G3",
                    "midi": 55,
                    "time": 83.22091199999981,
                    "velocity": 0.2677165354330709,
                    "duration": 1.1558459999999968
                },
                {
                    "name": "E4",
                    "midi": 64,
                    "time": 83.22091199999981,
                    "velocity": 0.31496062992125984,
                    "duration": 0.5779229999999984
                },
                {
                    "name": "F4",
                    "midi": 65,
                    "time": 83.79883499999981,
                    "velocity": 0.31496062992125984,
                    "duration": 0.5779229999999984
                },
                {
                    "name": "E4",
                    "midi": 64,
                    "time": 84.37675799999981,
                    "velocity": 0.5275590551181102,
                    "duration": 0.3852820000000037
                },
                {
                    "name": "C4",
                    "midi": 60,
                    "time": 84.37675799999981,
                    "velocity": 0.5275590551181102,
                    "duration": 0.3852820000000037
                },
                {
                    "name": "D4",
                    "midi": 62,
                    "time": 84.95468099999981,
                    "velocity": 0.5275590551181102,
                    "duration": 0.09632050000000447
                },
                {
                    "name": "B3",
                    "midi": 59,
                    "time": 85.14732199999982,
                    "velocity": 0.4881889763779528,
                    "duration": 0.09632050000000447
                },
                {
                    "name": "G3",
                    "midi": 55,
                    "time": 85.33996299999983,
                    "velocity": 0.4881889763779528,
                    "duration": 0.09632050000000447
                },
                {
                    "name": "C4",
                    "midi": 60,
                    "time": 85.53260399999984,
                    "velocity": 0.5275590551181102,
                    "duration": 0.3852820000000037
                },
                {
                    "name": "D4",
                    "midi": 62,
                    "time": 86.11052699999983,
                    "velocity": 0.5275590551181102,
                    "duration": 0.09632050000000447
                },
                {
                    "name": "B3",
                    "midi": 59,
                    "time": 86.30316799999984,
                    "velocity": 0.4881889763779528,
                    "duration": 0.09632050000000447
                },
                {
                    "name": "G3",
                    "midi": 55,
                    "time": 86.49580899999985,
                    "velocity": 0.4881889763779528,
                    "duration": 0.09632050000000447
                },
                {
                    "name": "C4",
                    "midi": 60,
                    "time": 86.68844999999986,
                    "velocity": 0.5275590551181102,
                    "duration": 0.3852820000000037
                },
                {
                    "name": "D4",
                    "midi": 62,
                    "time": 87.26637299999986,
                    "velocity": 0.5275590551181102,
                    "duration": 0.09632050000000447
                },
                {
                    "name": "B3",
                    "midi": 59,
                    "time": 87.45901399999987,
                    "velocity": 0.4881889763779528,
                    "duration": 0.09632050000000447
                },
                {
                    "name": "G3",
                    "midi": 55,
                    "time": 87.65165499999988,
                    "velocity": 0.4881889763779528,
                    "duration": 0.09632050000000447
                },
                {
                    "name": "C4",
                    "midi": 60,
                    "time": 87.84429599999989,
                    "velocity": 0.5275590551181102,
                    "duration": 0.3852820000000037
                },
                {
                    "name": "A2",
                    "midi": 45,
                    "time": 90.34862899999989,
                    "velocity": 0.36220472440944884,
                    "duration": 0.21190509999999563
                },
                {
                    "name": "C3",
                    "midi": 48,
                    "time": 90.54126999999988,
                    "velocity": 0.3858267716535433,
                    "duration": 0.21190509999999563
                },
                {
                    "name": "D#3",
                    "midi": 51,
                    "time": 90.73391099999988,
                    "velocity": 0.4015748031496063,
                    "duration": 0.21190509999999563
                },
                {
                    "name": "D3",
                    "midi": 50,
                    "time": 90.92655199999987,
                    "velocity": 0.36220472440944884,
                    "duration": 0.21190509999999563
                },
                {
                    "name": "C3",
                    "midi": 48,
                    "time": 91.11919299999987,
                    "velocity": 0.36220472440944884,
                    "duration": 0.3852820000000037
                },
                {
                    "name": "B2",
                    "midi": 47,
                    "time": 91.50447499999987,
                    "velocity": 0.3543307086614173,
                    "duration": 0.21190509999999563
                },
                {
                    "name": "D3",
                    "midi": 50,
                    "time": 91.69711599999987,
                    "velocity": 0.36220472440944884,
                    "duration": 0.21190509999999563
                },
                {
                    "name": "G#3",
                    "midi": 56,
                    "time": 91.88975699999986,
                    "velocity": 0.4015748031496063,
                    "duration": 0.21190509999999563
                },
                {
                    "name": "G3",
                    "midi": 55,
                    "time": 92.08239799999986,
                    "velocity": 0.36220472440944884,
                    "duration": 0.21190509999999563
                },
                {
                    "name": "F3",
                    "midi": 53,
                    "time": 92.27503899999985,
                    "velocity": 0.36220472440944884,
                    "duration": 0.21190509999999563
                },
                {
                    "name": "E3",
                    "midi": 52,
                    "time": 92.46767999999985,
                    "velocity": 0.28346456692913385,
                    "duration": 0.19264099999999473
                },
                {
                    "name": "F3",
                    "midi": 53,
                    "time": 93.04560299999984,
                    "velocity": 0.31496062992125984,
                    "duration": 0.19264099999999473
                },
                {
                    "name": "G3",
                    "midi": 55,
                    "time": 93.62352599999984,
                    "velocity": 0.2677165354330709,
                    "duration": 0.5779229999999984
                },
                {
                    "name": "E4",
                    "midi": 64,
                    "time": 93.62352599999984,
                    "velocity": 0.31496062992125984,
                    "duration": 0.5779229999999984
                },
                {
                    "name": "D4",
                    "midi": 62,
                    "time": 94.20144899999984,
                    "velocity": 0.31496062992125984,
                    "duration": 0.5779229999999984
                },
                {
                    "name": "F3",
                    "midi": 53,
                    "time": 94.20144899999984,
                    "velocity": 0.25196850393700787,
                    "duration": 0.5779229999999984
                },
                {
                    "name": "E3",
                    "midi": 52,
                    "time": 94.77937199999984,
                    "velocity": 0.5039370078740157,
                    "duration": 0.19264099999999473
                },
                {
                    "name": "G3",
                    "midi": 55,
                    "time": 94.97201299999983,
                    "velocity": 0.41732283464566927,
                    "duration": 0.19264099999999473
                },
                {
                    "name": "C4",
                    "midi": 60,
                    "time": 95.16465399999983,
                    "velocity": 0.41732283464566927,
                    "duration": 0.19264099999999473
                },
                {
                    "name": "F3",
                    "midi": 53,
                    "time": 95.35729499999982,
                    "velocity": 0.48031496062992124,
                    "duration": 0.19264099999999473
                },
                {
                    "name": "A3",
                    "midi": 57,
                    "time": 95.54993599999982,
                    "velocity": 0.41732283464566927,
                    "duration": 0.19264099999999473
                },
                {
                    "name": "D4",
                    "midi": 62,
                    "time": 95.74257699999981,
                    "velocity": 0.3937007874015748,
                    "duration": 0.19264099999999473
                },
                {
                    "name": "G3",
                    "midi": 55,
                    "time": 95.93521799999981,
                    "velocity": 0.2992125984251969,
                    "duration": 0.19264099999999473
                },
                {
                    "name": "C4",
                    "midi": 60,
                    "time": 96.1278589999998,
                    "velocity": 0.2677165354330709,
                    "duration": 0.19264099999999473
                },
                {
                    "name": "E4",
                    "midi": 64,
                    "time": 96.3204999999998,
                    "velocity": 0.2677165354330709,
                    "duration": 0.19264099999999473
                },
                {
                    "name": "G3",
                    "midi": 55,
                    "time": 96.51314099999979,
                    "velocity": 0.30708661417322836,
                    "duration": 0.19264099999999473
                },
                {
                    "name": "D4",
                    "midi": 62,
                    "time": 96.70578199999979,
                    "velocity": 0.25984251968503935,
                    "duration": 0.19264099999999473
                },
                {
                    "name": "F4",
                    "midi": 65,
                    "time": 96.89842299999978,
                    "velocity": 0.25984251968503935,
                    "duration": 0.19264099999999473
                },
                {
                    "name": "E4",
                    "midi": 64,
                    "time": 97.09106399999978,
                    "velocity": 0.5196850393700787,
                    "duration": 0.3852820000000037
                },
                {
                    "name": "C4",
                    "midi": 60,
                    "time": 97.09106399999978,
                    "velocity": 0.4409448818897638,
                    "duration": 0.3852820000000037
                },
                {
                    "name": "B3",
                    "midi": 59,
                    "time": 97.66898699999977,
                    "velocity": 0.5196850393700787,
                    "duration": 0.3852820000000037
                },
                {
                    "name": "F4",
                    "midi": 65,
                    "time": 97.66898699999977,
                    "velocity": 0.5196850393700787,
                    "duration": 0.3852820000000037
                },
                {
                    "name": "G3",
                    "midi": 55,
                    "time": 97.66898699999977,
                    "velocity": 0.4409448818897638,
                    "duration": 0.3852820000000037
                },
                {
                    "name": "C4",
                    "midi": 60,
                    "time": 98.24690999999977,
                    "velocity": 0.4409448818897638,
                    "duration": 0.3852820000000037
                },
                {
                    "name": "E4",
                    "midi": 64,
                    "time": 98.24690999999977,
                    "velocity": 0.5196850393700787,
                    "duration": 0.3852820000000037
                },
                {
                    "name": "B3",
                    "midi": 59,
                    "time": 98.82483299999977,
                    "velocity": 0.4409448818897638,
                    "duration": 0.3852820000000037
                },
                {
                    "name": "G3",
                    "midi": 55,
                    "time": 98.82483299999977,
                    "velocity": 0.4409448818897638,
                    "duration": 0.3852820000000037
                },
                {
                    "name": "F4",
                    "midi": 65,
                    "time": 98.82483299999977,
                    "velocity": 0.5196850393700787,
                    "duration": 0.3852820000000037
                },
                {
                    "name": "E3",
                    "midi": 52,
                    "time": 99.40275599999977,
                    "velocity": 0.5196850393700787,
                    "duration": 0.3852820000000037
                },
                {
                    "name": "C3",
                    "midi": 48,
                    "time": 99.40275599999977,
                    "velocity": 0.4409448818897638,
                    "duration": 0.3852820000000037
                },
                {
                    "name": "G2",
                    "midi": 43,
                    "time": 99.98067899999977,
                    "velocity": 0.4409448818897638,
                    "duration": 0.3852820000000037
                },
                {
                    "name": "F3",
                    "midi": 53,
                    "time": 99.98067899999977,
                    "velocity": 0.5196850393700787,
                    "duration": 0.3852820000000037
                },
                {
                    "name": "B2",
                    "midi": 47,
                    "time": 99.98067899999977,
                    "velocity": 0.4409448818897638,
                    "duration": 0.3852820000000037
                },
                {
                    "name": "C2",
                    "midi": 36,
                    "time": 100.55860199999977,
                    "velocity": 0.5511811023622047,
                    "duration": 0.09632050000000447
                },
                {
                    "name": "E2",
                    "midi": 40,
                    "time": 100.75124299999977,
                    "velocity": 0.49606299212598426,
                    "duration": 0.09632050000000447
                },
                {
                    "name": "G2",
                    "midi": 43,
                    "time": 100.94388399999978,
                    "velocity": 0.49606299212598426,
                    "duration": 0.09632050000000447
                },
                {
                    "name": "C3",
                    "midi": 48,
                    "time": 101.13652499999979,
                    "velocity": 0.5511811023622047,
                    "duration": 0.09632050000000447
                },
                {
                    "name": "E3",
                    "midi": 52,
                    "time": 101.3291659999998,
                    "velocity": 0.5039370078740157,
                    "duration": 0.09632050000000447
                },
                {
                    "name": "G3",
                    "midi": 55,
                    "time": 101.52180699999981,
                    "velocity": 0.5039370078740157,
                    "duration": 0.09632050000000447
                },
                {
                    "name": "C4",
                    "midi": 60,
                    "time": 101.71444799999982,
                    "velocity": 0.5826771653543307,
                    "duration": 0.19264099999999473
                },
                {
                    "name": "E3",
                    "midi": 52,
                    "time": 102.29237099999982,
                    "velocity": 0.4881889763779528,
                    "duration": 0.3852820000000037
                },
                {
                    "name": "C3",
                    "midi": 48,
                    "time": 102.29237099999982,
                    "velocity": 0.4881889763779528,
                    "duration": 0.3852820000000037
                },
                {
                    "name": "G3",
                    "midi": 55,
                    "time": 102.29237099999982,
                    "velocity": 0.4881889763779528,
                    "duration": 0.3852820000000037
                },
                {
                    "name": "C4",
                    "midi": 60,
                    "time": 102.29237099999982,
                    "velocity": 0.5826771653543307,
                    "duration": 0.3852820000000037
                },
                {
                    "name": "C3",
                    "midi": 48,
                    "time": 102.87029399999982,
                    "velocity": 0.4881889763779528,
                    "duration": 0.3852820000000037
                },
                {
                    "name": "C4",
                    "midi": 60,
                    "time": 102.87029399999982,
                    "velocity": 0.5826771653543307,
                    "duration": 0.3852820000000037
                },
                {
                    "name": "G3",
                    "midi": 55,
                    "time": 102.87029399999982,
                    "velocity": 0.4881889763779528,
                    "duration": 0.3852820000000037
                },
                {
                    "name": "E3",
                    "midi": 52,
                    "time": 102.87029399999982,
                    "velocity": 0.4881889763779528,
                    "duration": 0.3852820000000037
                },
                {
                    "name": "F3",
                    "midi": 53,
                    "time": 104.02613999999981,
                    "velocity": 0.5511811023622047,
                    "duration": 0.3852820000000037
                },
                {
                    "name": "C3",
                    "midi": 48,
                    "time": 104.02613999999981,
                    "velocity": 0.4645669291338583,
                    "duration": 0.3852820000000037
                },
                {
                    "name": "F2",
                    "midi": 41,
                    "time": 104.02613999999981,
                    "velocity": 0.4645669291338583,
                    "duration": 0.3852820000000037
                },
                {
                    "name": "A2",
                    "midi": 45,
                    "time": 104.02613999999981,
                    "velocity": 0.4645669291338583,
                    "duration": 0.3852820000000037
                },
                {
                    "name": "A3",
                    "midi": 57,
                    "time": 106.91575499999982,
                    "velocity": 0.5511811023622047,
                    "duration": 0.09632050000000447
                },
                {
                    "name": "G3",
                    "midi": 55,
                    "time": 107.10839599999983,
                    "velocity": 0.5196850393700787,
                    "duration": 0.09632050000000447
                },
                {
                    "name": "A3",
                    "midi": 57,
                    "time": 107.30103699999984,
                    "velocity": 0.5196850393700787,
                    "duration": 0.09632050000000447
                },
                {
                    "name": "A#3",
                    "midi": 58,
                    "time": 107.49367799999985,
                    "velocity": 0.5511811023622047,
                    "duration": 0.09632050000000447
                },
                {
                    "name": "A3",
                    "midi": 57,
                    "time": 107.68631899999986,
                    "velocity": 0.5275590551181102,
                    "duration": 0.09632050000000447
                },
                {
                    "name": "A#3",
                    "midi": 58,
                    "time": 107.87895999999986,
                    "velocity": 0.5275590551181102,
                    "duration": 0.09632050000000447
                },
                {
                    "name": "C4",
                    "midi": 60,
                    "time": 108.07160099999987,
                    "velocity": 0.5511811023622047,
                    "duration": 0.09632050000000447
                },
                {
                    "name": "A#3",
                    "midi": 58,
                    "time": 108.26424199999988,
                    "velocity": 0.5275590551181102,
                    "duration": 0.09632050000000447
                },
                {
                    "name": "C4",
                    "midi": 60,
                    "time": 108.45688299999989,
                    "velocity": 0.5275590551181102,
                    "duration": 0.09632050000000447
                },
                {
                    "name": "C#4",
                    "midi": 61,
                    "time": 108.6495239999999,
                    "velocity": 0.5826771653543307,
                    "duration": 0.3852820000000037
                },
                {
                    "name": "C4",
                    "midi": 60,
                    "time": 109.0348059999999,
                    "velocity": 0.5275590551181102,
                    "duration": 0.09632050000000447
                },
                {
                    "name": "C#4",
                    "midi": 61,
                    "time": 109.22744699999991,
                    "velocity": 0.5826771653543307,
                    "duration": 0.3852820000000037
                },
                {
                    "name": "C4",
                    "midi": 60,
                    "time": 109.61272899999992,
                    "velocity": 0.5196850393700787,
                    "duration": 0.09632050000000447
                },
                {
                    "name": "B3",
                    "midi": 59,
                    "time": 109.80536999999993,
                    "velocity": 0.3700787401574803,
                    "duration": 0.09632050000000447
                },
                {
                    "name": "B3",
                    "midi": 59,
                    "time": 109.99801099999993,
                    "velocity": 0.3700787401574803,
                    "duration": 0.09632050000000447
                },
                {
                    "name": "B3",
                    "midi": 59,
                    "time": 110.19065199999994,
                    "velocity": 0.3700787401574803,
                    "duration": 0.09632050000000447
                },
                {
                    "name": "C4",
                    "midi": 60,
                    "time": 110.38329299999995,
                    "velocity": 0.3937007874015748,
                    "duration": 0.19264099999999473
                },
                {
                    "name": "A2",
                    "midi": 45,
                    "time": 110.96121599999995,
                    "velocity": 0.4645669291338583,
                    "duration": 0.3852820000000037
                },
                {
                    "name": "F3",
                    "midi": 53,
                    "time": 110.96121599999995,
                    "velocity": 0.5511811023622047,
                    "duration": 0.3852820000000037
                },
                {
                    "name": "F2",
                    "midi": 41,
                    "time": 110.96121599999995,
                    "velocity": 0.4645669291338583,
                    "duration": 0.3852820000000037
                },
                {
                    "name": "C3",
                    "midi": 48,
                    "time": 110.96121599999995,
                    "velocity": 0.4645669291338583,
                    "duration": 0.3852820000000037
                },
                {
                    "name": "A3",
                    "midi": 57,
                    "time": 113.85083099999996,
                    "velocity": 0.5511811023622047,
                    "duration": 0.09632050000000447
                },
                {
                    "name": "G3",
                    "midi": 55,
                    "time": 114.04347199999997,
                    "velocity": 0.5196850393700787,
                    "duration": 0.09632050000000447
                },
                {
                    "name": "A3",
                    "midi": 57,
                    "time": 114.23611299999997,
                    "velocity": 0.5196850393700787,
                    "duration": 0.09632050000000447
                },
                {
                    "name": "A#3",
                    "midi": 58,
                    "time": 114.42875399999998,
                    "velocity": 0.5511811023622047,
                    "duration": 0.09632050000000447
                },
                {
                    "name": "A3",
                    "midi": 57,
                    "time": 114.62139499999999,
                    "velocity": 0.5275590551181102,
                    "duration": 0.09632050000000447
                },
                {
                    "name": "A#3",
                    "midi": 58,
                    "time": 114.814036,
                    "velocity": 0.5275590551181102,
                    "duration": 0.09632050000000447
                },
                {
                    "name": "C4",
                    "midi": 60,
                    "time": 115.00667700000001,
                    "velocity": 0.5511811023622047,
                    "duration": 0.09632050000000447
                },
                {
                    "name": "A#3",
                    "midi": 58,
                    "time": 115.19931800000002,
                    "velocity": 0.5275590551181102,
                    "duration": 0.09632050000000447
                },
                {
                    "name": "C4",
                    "midi": 60,
                    "time": 115.39195900000003,
                    "velocity": 0.5275590551181102,
                    "duration": 0.09632050000000447
                },
                {
                    "name": "C#4",
                    "midi": 61,
                    "time": 115.58460000000004,
                    "velocity": 0.5826771653543307,
                    "duration": 0.3852820000000037
                },
                {
                    "name": "C4",
                    "midi": 60,
                    "time": 115.96988200000004,
                    "velocity": 0.5275590551181102,
                    "duration": 0.09632050000000447
                },
                {
                    "name": "C#4",
                    "midi": 61,
                    "time": 116.16252300000005,
                    "velocity": 0.5826771653543307,
                    "duration": 0.3852820000000037
                },
                {
                    "name": "C4",
                    "midi": 60,
                    "time": 116.54780500000005,
                    "velocity": 0.5196850393700787,
                    "duration": 0.09632050000000447
                },
                {
                    "name": "B3",
                    "midi": 59,
                    "time": 116.74044600000006,
                    "velocity": 0.29133858267716534,
                    "duration": 0.09632050000000447
                },
                {
                    "name": "A#3",
                    "midi": 58,
                    "time": 117.31836900000006,
                    "velocity": 0.29133858267716534,
                    "duration": 0.09632050000000447
                },
                {
                    "name": "A3",
                    "midi": 57,
                    "time": 117.89629200000006,
                    "velocity": 0.29133858267716534,
                    "duration": 0.09632050000000447
                },
                {
                    "name": "A#2",
                    "midi": 46,
                    "time": 118.47421500000006,
                    "velocity": 0.4566929133858268,
                    "duration": 0.09632050000000447
                },
                {
                    "name": "A#3",
                    "midi": 58,
                    "time": 118.57053550000006,
                    "velocity": 0.48031496062992124,
                    "duration": 0.09632050000000447
                },
                {
                    "name": "E3",
                    "midi": 52,
                    "time": 119.05213800000007,
                    "velocity": 0.3543307086614173,
                    "duration": 0.5779229999999984
                },
                {
                    "name": "C3",
                    "midi": 48,
                    "time": 119.05213800000007,
                    "velocity": 0.3543307086614173,
                    "duration": 0.5779229999999984
                },
                {
                    "name": "A#3",
                    "midi": 58,
                    "time": 119.05213800000007,
                    "velocity": 0.44881889763779526,
                    "duration": 0.5779229999999984
                },
                {
                    "name": "A3",
                    "midi": 57,
                    "time": 119.63006100000007,
                    "velocity": 0.4015748031496063,
                    "duration": 0.19264099999999473
                },
                {
                    "name": "F3",
                    "midi": 53,
                    "time": 119.63006100000007,
                    "velocity": 0.31496062992125984,
                    "duration": 0.19264099999999473
                },
                {
                    "name": "C3",
                    "midi": 48,
                    "time": 120.20798400000007,
                    "velocity": 0.3228346456692913,
                    "duration": 0.19264099999999473
                },
                {
                    "name": "C4",
                    "midi": 60,
                    "time": 120.40062500000006,
                    "velocity": 0.2440944881889764,
                    "duration": 0.09632050000000447
                },
                {
                    "name": "A#3",
                    "midi": 58,
                    "time": 120.40062500000006,
                    "velocity": 0.1889763779527559,
                    "duration": 0.09632050000000447
                },
                {
                    "name": "C4",
                    "midi": 60,
                    "time": 120.59326600000007,
                    "velocity": 0.2440944881889764,
                    "duration": 0.09632050000000447
                },
                {
                    "name": "A#3",
                    "midi": 58,
                    "time": 120.59326600000007,
                    "velocity": 0.1889763779527559,
                    "duration": 0.09632050000000447
                },
                {
                    "name": "C4",
                    "midi": 60,
                    "time": 120.78590700000008,
                    "velocity": 0.2440944881889764,
                    "duration": 0.09632050000000447
                },
                {
                    "name": "A#3",
                    "midi": 58,
                    "time": 120.78590700000008,
                    "velocity": 0.1889763779527559,
                    "duration": 0.09632050000000447
                },
                {
                    "name": "C4",
                    "midi": 60,
                    "time": 120.97854800000009,
                    "velocity": 0.2440944881889764,
                    "duration": 0.09632050000000447
                },
                {
                    "name": "A#3",
                    "midi": 58,
                    "time": 120.97854800000009,
                    "velocity": 0.1889763779527559,
                    "duration": 0.09632050000000447
                },
                {
                    "name": "C4",
                    "midi": 60,
                    "time": 121.1711890000001,
                    "velocity": 0.2440944881889764,
                    "duration": 0.09632050000000447
                },
                {
                    "name": "A#3",
                    "midi": 58,
                    "time": 121.1711890000001,
                    "velocity": 0.1889763779527559,
                    "duration": 0.09632050000000447
                },
                {
                    "name": "F3",
                    "midi": 53,
                    "time": 121.3638300000001,
                    "velocity": 0.3228346456692913,
                    "duration": 0.19264099999999473
                },
                {
                    "name": "C4",
                    "midi": 60,
                    "time": 121.5564710000001,
                    "velocity": 0.2440944881889764,
                    "duration": 0.09632050000000447
                },
                {
                    "name": "A3",
                    "midi": 57,
                    "time": 121.5564710000001,
                    "velocity": 0.1889763779527559,
                    "duration": 0.09632050000000447
                },
                {
                    "name": "C4",
                    "midi": 60,
                    "time": 121.74911200000011,
                    "velocity": 0.2440944881889764,
                    "duration": 0.09632050000000447
                },
                {
                    "name": "A3",
                    "midi": 57,
                    "time": 121.74911200000011,
                    "velocity": 0.1889763779527559,
                    "duration": 0.09632050000000447
                },
                {
                    "name": "A3",
                    "midi": 57,
                    "time": 121.94175300000012,
                    "velocity": 0.1889763779527559,
                    "duration": 0.09632050000000447
                },
                {
                    "name": "C4",
                    "midi": 60,
                    "time": 121.94175300000012,
                    "velocity": 0.2440944881889764,
                    "duration": 0.09632050000000447
                },
                {
                    "name": "A3",
                    "midi": 57,
                    "time": 122.13439400000013,
                    "velocity": 0.1889763779527559,
                    "duration": 0.09632050000000447
                },
                {
                    "name": "C4",
                    "midi": 60,
                    "time": 122.13439400000013,
                    "velocity": 0.2440944881889764,
                    "duration": 0.09632050000000447
                },
                {
                    "name": "A3",
                    "midi": 57,
                    "time": 122.32703500000014,
                    "velocity": 0.1889763779527559,
                    "duration": 0.09632050000000447
                },
                {
                    "name": "C4",
                    "midi": 60,
                    "time": 122.32703500000014,
                    "velocity": 0.2440944881889764,
                    "duration": 0.09632050000000447
                },
                {
                    "name": "C3",
                    "midi": 48,
                    "time": 122.51967600000015,
                    "velocity": 0.3228346456692913,
                    "duration": 0.19264099999999473
                },
                {
                    "name": "G3",
                    "midi": 55,
                    "time": 122.71231700000014,
                    "velocity": 0.1889763779527559,
                    "duration": 0.09632050000000447
                },
                {
                    "name": "C4",
                    "midi": 60,
                    "time": 122.71231700000014,
                    "velocity": 0.2440944881889764,
                    "duration": 0.09632050000000447
                },
                {
                    "name": "G3",
                    "midi": 55,
                    "time": 122.90495800000015,
                    "velocity": 0.1889763779527559,
                    "duration": 0.09632050000000447
                },
                {
                    "name": "C4",
                    "midi": 60,
                    "time": 122.90495800000015,
                    "velocity": 0.2440944881889764,
                    "duration": 0.09632050000000447
                },
                {
                    "name": "G3",
                    "midi": 55,
                    "time": 123.09759900000016,
                    "velocity": 0.1889763779527559,
                    "duration": 0.09632050000000447
                },
                {
                    "name": "C4",
                    "midi": 60,
                    "time": 123.09759900000016,
                    "velocity": 0.2440944881889764,
                    "duration": 0.09632050000000447
                },
                {
                    "name": "C4",
                    "midi": 60,
                    "time": 123.29024000000017,
                    "velocity": 0.2440944881889764,
                    "duration": 0.09632050000000447
                },
                {
                    "name": "G3",
                    "midi": 55,
                    "time": 123.29024000000017,
                    "velocity": 0.1889763779527559,
                    "duration": 0.09632050000000447
                },
                {
                    "name": "G3",
                    "midi": 55,
                    "time": 123.48288100000018,
                    "velocity": 0.1889763779527559,
                    "duration": 0.09632050000000447
                },
                {
                    "name": "C4",
                    "midi": 60,
                    "time": 123.48288100000018,
                    "velocity": 0.2440944881889764,
                    "duration": 0.09632050000000447
                },
                {
                    "name": "F3",
                    "midi": 53,
                    "time": 123.67552200000019,
                    "velocity": 0.3228346456692913,
                    "duration": 0.19264099999999473
                },
                {
                    "name": "C4",
                    "midi": 60,
                    "time": 123.86816300000018,
                    "velocity": 0.2440944881889764,
                    "duration": 0.09632050000000447
                },
                {
                    "name": "A3",
                    "midi": 57,
                    "time": 123.86816300000018,
                    "velocity": 0.1889763779527559,
                    "duration": 0.09632050000000447
                },
                {
                    "name": "A3",
                    "midi": 57,
                    "time": 124.06080400000019,
                    "velocity": 0.1889763779527559,
                    "duration": 0.09632050000000447
                },
                {
                    "name": "C4",
                    "midi": 60,
                    "time": 124.06080400000019,
                    "velocity": 0.2440944881889764,
                    "duration": 0.09632050000000447
                },
                {
                    "name": "C4",
                    "midi": 60,
                    "time": 124.2534450000002,
                    "velocity": 0.2440944881889764,
                    "duration": 0.09632050000000447
                },
                {
                    "name": "A3",
                    "midi": 57,
                    "time": 124.2534450000002,
                    "velocity": 0.1889763779527559,
                    "duration": 0.09632050000000447
                },
                {
                    "name": "A3",
                    "midi": 57,
                    "time": 124.44608600000021,
                    "velocity": 0.1889763779527559,
                    "duration": 0.09632050000000447
                },
                {
                    "name": "C4",
                    "midi": 60,
                    "time": 124.44608600000021,
                    "velocity": 0.2440944881889764,
                    "duration": 0.09632050000000447
                },
                {
                    "name": "C4",
                    "midi": 60,
                    "time": 124.63872700000022,
                    "velocity": 0.2440944881889764,
                    "duration": 0.09632050000000447
                },
                {
                    "name": "A3",
                    "midi": 57,
                    "time": 124.63872700000022,
                    "velocity": 0.1889763779527559,
                    "duration": 0.09632050000000447
                },
                {
                    "name": "C3",
                    "midi": 48,
                    "time": 124.83136800000023,
                    "velocity": 0.3228346456692913,
                    "duration": 0.19264099999999473
                },
                {
                    "name": "A#3",
                    "midi": 58,
                    "time": 125.02400900000022,
                    "velocity": 0.1889763779527559,
                    "duration": 0.09632050000000447
                },
                {
                    "name": "C4",
                    "midi": 60,
                    "time": 125.02400900000022,
                    "velocity": 0.2440944881889764,
                    "duration": 0.09632050000000447
                },
                {
                    "name": "C4",
                    "midi": 60,
                    "time": 125.21665000000023,
                    "velocity": 0.2440944881889764,
                    "duration": 0.09632050000000447
                },
                {
                    "name": "A#3",
                    "midi": 58,
                    "time": 125.21665000000023,
                    "velocity": 0.1889763779527559,
                    "duration": 0.09632050000000447
                },
                {
                    "name": "C4",
                    "midi": 60,
                    "time": 125.40929100000024,
                    "velocity": 0.2440944881889764,
                    "duration": 0.09632050000000447
                },
                {
                    "name": "A#3",
                    "midi": 58,
                    "time": 125.40929100000024,
                    "velocity": 0.1889763779527559,
                    "duration": 0.09632050000000447
                },
                {
                    "name": "C4",
                    "midi": 60,
                    "time": 125.60193200000025,
                    "velocity": 0.2440944881889764,
                    "duration": 0.09632050000000447
                },
                {
                    "name": "A#3",
                    "midi": 58,
                    "time": 125.60193200000025,
                    "velocity": 0.1889763779527559,
                    "duration": 0.09632050000000447
                },
                {
                    "name": "C4",
                    "midi": 60,
                    "time": 125.79457300000026,
                    "velocity": 0.2440944881889764,
                    "duration": 0.09632050000000447
                },
                {
                    "name": "A#3",
                    "midi": 58,
                    "time": 125.79457300000026,
                    "velocity": 0.1889763779527559,
                    "duration": 0.09632050000000447
                },
                {
                    "name": "F3",
                    "midi": 53,
                    "time": 125.98721400000026,
                    "velocity": 0.3228346456692913,
                    "duration": 0.19264099999999473
                },
                {
                    "name": "C4",
                    "midi": 60,
                    "time": 126.17985500000026,
                    "velocity": 0.2440944881889764,
                    "duration": 0.09632050000000447
                },
                {
                    "name": "A3",
                    "midi": 57,
                    "time": 126.17985500000026,
                    "velocity": 0.1889763779527559,
                    "duration": 0.09632050000000447
                },
                {
                    "name": "A3",
                    "midi": 57,
                    "time": 126.37249600000027,
                    "velocity": 0.1889763779527559,
                    "duration": 0.09632050000000447
                },
                {
                    "name": "C4",
                    "midi": 60,
                    "time": 126.37249600000027,
                    "velocity": 0.2440944881889764,
                    "duration": 0.09632050000000447
                },
                {
                    "name": "C4",
                    "midi": 60,
                    "time": 126.56513700000028,
                    "velocity": 0.2440944881889764,
                    "duration": 0.09632050000000447
                },
                {
                    "name": "A3",
                    "midi": 57,
                    "time": 126.56513700000028,
                    "velocity": 0.1889763779527559,
                    "duration": 0.09632050000000447
                },
                {
                    "name": "A3",
                    "midi": 57,
                    "time": 126.75777800000029,
                    "velocity": 0.1889763779527559,
                    "duration": 0.09632050000000447
                },
                {
                    "name": "C4",
                    "midi": 60,
                    "time": 126.75777800000029,
                    "velocity": 0.2440944881889764,
                    "duration": 0.09632050000000447
                },
                {
                    "name": "C4",
                    "midi": 60,
                    "time": 126.9504190000003,
                    "velocity": 0.2440944881889764,
                    "duration": 0.09632050000000447
                },
                {
                    "name": "A3",
                    "midi": 57,
                    "time": 126.9504190000003,
                    "velocity": 0.1889763779527559,
                    "duration": 0.09632050000000447
                },
                {
                    "name": "C3",
                    "midi": 48,
                    "time": 127.1430600000003,
                    "velocity": 0.3228346456692913,
                    "duration": 0.19264099999999473
                },
                {
                    "name": "G3",
                    "midi": 55,
                    "time": 127.3357010000003,
                    "velocity": 0.1889763779527559,
                    "duration": 0.09632050000000447
                },
                {
                    "name": "C4",
                    "midi": 60,
                    "time": 127.3357010000003,
                    "velocity": 0.2440944881889764,
                    "duration": 0.09632050000000447
                },
                {
                    "name": "C4",
                    "midi": 60,
                    "time": 127.52834200000031,
                    "velocity": 0.2440944881889764,
                    "duration": 0.09632050000000447
                },
                {
                    "name": "G3",
                    "midi": 55,
                    "time": 127.52834200000031,
                    "velocity": 0.1889763779527559,
                    "duration": 0.09632050000000447
                },
                {
                    "name": "C4",
                    "midi": 60,
                    "time": 127.72098300000032,
                    "velocity": 0.2440944881889764,
                    "duration": 0.09632050000000447
                },
                {
                    "name": "A#3",
                    "midi": 58,
                    "time": 127.72098300000032,
                    "velocity": 0.1889763779527559,
                    "duration": 0.09632050000000447
                },
                {
                    "name": "C4",
                    "midi": 60,
                    "time": 127.91362400000033,
                    "velocity": 0.2440944881889764,
                    "duration": 0.09632050000000447
                },
                {
                    "name": "A#3",
                    "midi": 58,
                    "time": 127.91362400000033,
                    "velocity": 0.1889763779527559,
                    "duration": 0.09632050000000447
                },
                {
                    "name": "A#3",
                    "midi": 58,
                    "time": 128.10626500000032,
                    "velocity": 0.1889763779527559,
                    "duration": 0.09632049999999026
                },
                {
                    "name": "C4",
                    "midi": 60,
                    "time": 128.10626500000032,
                    "velocity": 0.2440944881889764,
                    "duration": 0.09632049999999026
                },
                {
                    "name": "A3",
                    "midi": 57,
                    "time": 128.2989060000003,
                    "velocity": 0.25196850393700787,
                    "duration": 0.19264100000000894
                },
                {
                    "name": "C4",
                    "midi": 60,
                    "time": 128.2989060000003,
                    "velocity": 0.3228346456692913,
                    "duration": 0.19264100000000894
                },
                {
                    "name": "F3",
                    "midi": 53,
                    "time": 128.2989060000003,
                    "velocity": 0.25196850393700787,
                    "duration": 0.19264100000000894
                },
                {
                    "name": "A2",
                    "midi": 45,
                    "time": 128.68418800000032,
                    "velocity": 0.47244094488188976,
                    "duration": 0.19264100000000894
                },
                {
                    "name": "A#2",
                    "midi": 46,
                    "time": 128.87682900000033,
                    "velocity": 0.5196850393700787,
                    "duration": 0.09632049999999026
                },
                {
                    "name": "G3",
                    "midi": 55,
                    "time": 129.0694700000003,
                    "velocity": 0.48031496062992124,
                    "duration": 0.09632049999999026
                },
                {
                    "name": "B2",
                    "midi": 47,
                    "time": 129.2621110000003,
                    "velocity": 0.48031496062992124,
                    "duration": 0.09632049999999026
                },
                {
                    "name": "C3",
                    "midi": 48,
                    "time": 129.45475200000027,
                    "velocity": 0.5196850393700787,
                    "duration": 0.09632049999999026
                },
                {
                    "name": "A3",
                    "midi": 57,
                    "time": 129.64739300000025,
                    "velocity": 0.48031496062992124,
                    "duration": 0.09632049999999026
                },
                {
                    "name": "C#3",
                    "midi": 49,
                    "time": 129.84003400000023,
                    "velocity": 0.48031496062992124,
                    "duration": 0.09632049999999026
                },
                {
                    "name": "D3",
                    "midi": 50,
                    "time": 130.0326750000002,
                    "velocity": 0.5196850393700787,
                    "duration": 0.09632049999999026
                },
                {
                    "name": "A#3",
                    "midi": 58,
                    "time": 130.2253160000002,
                    "velocity": 0.48031496062992124,
                    "duration": 0.09632049999999026
                },
                {
                    "name": "E3",
                    "midi": 52,
                    "time": 130.41795700000017,
                    "velocity": 0.48031496062992124,
                    "duration": 0.09632049999999026
                },
                {
                    "name": "C4",
                    "midi": 60,
                    "time": 131.18852100000015,
                    "velocity": 0.2204724409448819,
                    "duration": 0.5779229999999984
                },
                {
                    "name": "A#3",
                    "midi": 58,
                    "time": 131.18852100000015,
                    "velocity": 0.2204724409448819,
                    "duration": 0.5779229999999984
                },
                {
                    "name": "G4",
                    "midi": 67,
                    "time": 131.18852100000015,
                    "velocity": 0.2677165354330709,
                    "duration": 0.5779229999999984
                },
                {
                    "name": "E4",
                    "midi": 64,
                    "time": 131.18852100000015,
                    "velocity": 0.2204724409448819,
                    "duration": 0.5779229999999984
                },
                {
                    "name": "A3",
                    "midi": 57,
                    "time": 131.76644400000015,
                    "velocity": 0.3228346456692913,
                    "duration": 0.19264100000000894
                },
                {
                    "name": "F4",
                    "midi": 65,
                    "time": 131.76644400000015,
                    "velocity": 0.3858267716535433,
                    "duration": 0.19264100000000894
                },
                {
                    "name": "C4",
                    "midi": 60,
                    "time": 131.76644400000015,
                    "velocity": 0.3228346456692913,
                    "duration": 0.19264100000000894
                },
                {
                    "name": "C4",
                    "midi": 60,
                    "time": 132.34436700000015,
                    "velocity": 0.33070866141732286,
                    "duration": 0.38528199999998947
                },
                {
                    "name": "C#4",
                    "midi": 61,
                    "time": 132.72964900000014,
                    "velocity": 0.33070866141732286,
                    "duration": 0.19264100000000894
                },
                {
                    "name": "D4",
                    "midi": 62,
                    "time": 132.92229000000015,
                    "velocity": 0.3700787401574803,
                    "duration": 0.7705640000000074
                },
                {
                    "name": "A2",
                    "midi": 45,
                    "time": 134.46341800000016,
                    "velocity": 0.47244094488188976,
                    "duration": 0.19264100000000894
                },
                {
                    "name": "A#2",
                    "midi": 46,
                    "time": 134.65605900000017,
                    "velocity": 0.5196850393700787,
                    "duration": 0.09632049999999026
                },
                {
                    "name": "G3",
                    "midi": 55,
                    "time": 134.84870000000015,
                    "velocity": 0.48031496062992124,
                    "duration": 0.09632049999999026
                },
                {
                    "name": "B2",
                    "midi": 47,
                    "time": 135.04134100000013,
                    "velocity": 0.48031496062992124,
                    "duration": 0.09632049999999026
                },
                {
                    "name": "C3",
                    "midi": 48,
                    "time": 135.2339820000001,
                    "velocity": 0.5196850393700787,
                    "duration": 0.09632049999999026
                },
                {
                    "name": "A3",
                    "midi": 57,
                    "time": 135.4266230000001,
                    "velocity": 0.48031496062992124,
                    "duration": 0.09632049999999026
                },
                {
                    "name": "C#3",
                    "midi": 49,
                    "time": 135.61926400000007,
                    "velocity": 0.48031496062992124,
                    "duration": 0.09632049999999026
                },
                {
                    "name": "D3",
                    "midi": 50,
                    "time": 135.81190500000005,
                    "velocity": 0.5196850393700787,
                    "duration": 0.09632049999999026
                },
                {
                    "name": "A#3",
                    "midi": 58,
                    "time": 136.00454600000003,
                    "velocity": 0.48031496062992124,
                    "duration": 0.09632049999999026
                },
                {
                    "name": "E3",
                    "midi": 52,
                    "time": 136.197187,
                    "velocity": 0.48031496062992124,
                    "duration": 0.09632049999999026
                },
                {
                    "name": "C4",
                    "midi": 60,
                    "time": 136.967751,
                    "velocity": 0.2204724409448819,
                    "duration": 0.5779229999999984
                },
                {
                    "name": "A#3",
                    "midi": 58,
                    "time": 136.967751,
                    "velocity": 0.2204724409448819,
                    "duration": 0.5779229999999984
                },
                {
                    "name": "E4",
                    "midi": 64,
                    "time": 136.967751,
                    "velocity": 0.2204724409448819,
                    "duration": 0.5779229999999984
                },
                {
                    "name": "G4",
                    "midi": 67,
                    "time": 136.967751,
                    "velocity": 0.2677165354330709,
                    "duration": 0.5779229999999984
                },
                {
                    "name": "C4",
                    "midi": 60,
                    "time": 137.545674,
                    "velocity": 0.3228346456692913,
                    "duration": 0.19264100000000894
                },
                {
                    "name": "A3",
                    "midi": 57,
                    "time": 137.545674,
                    "velocity": 0.3228346456692913,
                    "duration": 0.19264100000000894
                },
                {
                    "name": "F4",
                    "midi": 65,
                    "time": 137.545674,
                    "velocity": 0.3858267716535433,
                    "duration": 0.19264100000000894
                },
                {
                    "name": "D4",
                    "midi": 62,
                    "time": 138.123597,
                    "velocity": 0.25196850393700787,
                    "duration": 0.19264100000000894
                },
                {
                    "name": "A#3",
                    "midi": 58,
                    "time": 138.123597,
                    "velocity": 0.25196850393700787,
                    "duration": 0.19264100000000894
                },
                {
                    "name": "F4",
                    "midi": 65,
                    "time": 138.123597,
                    "velocity": 0.31496062992125984,
                    "duration": 0.19264100000000894
                },
                {
                    "name": "A3",
                    "midi": 57,
                    "time": 138.70152,
                    "velocity": 0.25196850393700787,
                    "duration": 0.5779229999999984
                },
                {
                    "name": "C3",
                    "midi": 48,
                    "time": 138.70152,
                    "velocity": 0.2125984251968504,
                    "duration": 1.1558459999999968
                },
                {
                    "name": "A#3",
                    "midi": 58,
                    "time": 139.279443,
                    "velocity": 0.2204724409448819,
                    "duration": 0.5779229999999984
                },
                {
                    "name": "F3",
                    "midi": 53,
                    "time": 139.85736599999998,
                    "velocity": 0.2204724409448819,
                    "duration": 0.5779230000000268
                },
                {
                    "name": "A3",
                    "midi": 57,
                    "time": 140.050007,
                    "velocity": 0.1889763779527559,
                    "duration": 0.19264100000000894
                },
                {
                    "name": "C4",
                    "midi": 60,
                    "time": 140.242648,
                    "velocity": 0.1889763779527559,
                    "duration": 0.19264100000000894
                },
                {
                    "name": "F3",
                    "midi": 53,
                    "time": 140.435289,
                    "velocity": 0.2204724409448819,
                    "duration": 0.5779230000000268
                },
                {
                    "name": "G3",
                    "midi": 55,
                    "time": 140.62793000000002,
                    "velocity": 0.2047244094488189,
                    "duration": 0.19264100000000894
                },
                {
                    "name": "A#3",
                    "midi": 58,
                    "time": 140.82057100000003,
                    "velocity": 0.2047244094488189,
                    "duration": 0.19264100000000894
                },
                {
                    "name": "F3",
                    "midi": 53,
                    "time": 141.01321200000004,
                    "velocity": 0.2204724409448819,
                    "duration": 0.5779230000000268
                },
                {
                    "name": "A3",
                    "midi": 57,
                    "time": 141.20585300000005,
                    "velocity": 0.1889763779527559,
                    "duration": 0.19264100000000894
                },
                {
                    "name": "C4",
                    "midi": 60,
                    "time": 141.39849400000006,
                    "velocity": 0.1889763779527559,
                    "duration": 0.19264100000000894
                },
                {
                    "name": "F3",
                    "midi": 53,
                    "time": 141.59113500000007,
                    "velocity": 0.2204724409448819,
                    "duration": 0.5779230000000268
                },
                {
                    "name": "G3",
                    "midi": 55,
                    "time": 141.78377600000007,
                    "velocity": 0.1889763779527559,
                    "duration": 0.19264100000000894
                },
                {
                    "name": "A#3",
                    "midi": 58,
                    "time": 141.97641700000008,
                    "velocity": 0.1889763779527559,
                    "duration": 0.19264100000000894
                },
                {
                    "name": "F3",
                    "midi": 53,
                    "time": 142.1690580000001,
                    "velocity": 0.2204724409448819,
                    "duration": 0.5779230000000268
                },
                {
                    "name": "A3",
                    "midi": 57,
                    "time": 142.3616990000001,
                    "velocity": 0.1889763779527559,
                    "duration": 0.19264100000000894
                },
                {
                    "name": "C4",
                    "midi": 60,
                    "time": 142.5543400000001,
                    "velocity": 0.1889763779527559,
                    "duration": 0.19264100000000894
                },
                {
                    "name": "F3",
                    "midi": 53,
                    "time": 142.74698100000012,
                    "velocity": 0.2204724409448819,
                    "duration": 0.5779230000000268
                },
                {
                    "name": "A3",
                    "midi": 57,
                    "time": 142.93962200000013,
                    "velocity": 0.1889763779527559,
                    "duration": 0.19264100000000894
                },
                {
                    "name": "C4",
                    "midi": 60,
                    "time": 143.13226300000014,
                    "velocity": 0.1889763779527559,
                    "duration": 0.19264100000000894
                },
                {
                    "name": "F3",
                    "midi": 53,
                    "time": 143.32490400000015,
                    "velocity": 0.2204724409448819,
                    "duration": 0.7705640000000074
                },
                {
                    "name": "F2",
                    "midi": 41,
                    "time": 143.32490400000015,
                    "velocity": 0.18110236220472442,
                    "duration": 0.7705640000000074
                },
                {
                    "name": "A2",
                    "midi": 45,
                    "time": 145.63659600000014,
                    "velocity": 0.49606299212598426,
                    "duration": 0.5779229999999984
                },
                {
                    "name": "A3",
                    "midi": 57,
                    "time": 145.63659600000014,
                    "velocity": 0.5826771653543307,
                    "duration": 0.5779229999999984
                },
                {
                    "name": "G3",
                    "midi": 55,
                    "time": 146.21451900000014,
                    "velocity": 0.5826771653543307,
                    "duration": 0.5779229999999984
                },
                {
                    "name": "G2",
                    "midi": 43,
                    "time": 146.21451900000014,
                    "velocity": 0.49606299212598426,
                    "duration": 0.5779229999999984
                },
                {
                    "name": "F3",
                    "midi": 53,
                    "time": 146.79244200000014,
                    "velocity": 0.5826771653543307,
                    "duration": 0.5779229999999984
                },
                {
                    "name": "F2",
                    "midi": 41,
                    "time": 146.79244200000014,
                    "velocity": 0.49606299212598426,
                    "duration": 0.5779229999999984
                },
                {
                    "name": "E3",
                    "midi": 52,
                    "time": 147.37036500000013,
                    "velocity": 0.5826771653543307,
                    "duration": 0.5779229999999984
                },
                {
                    "name": "E2",
                    "midi": 40,
                    "time": 147.37036500000013,
                    "velocity": 0.49606299212598426,
                    "duration": 0.5779229999999984
                },
                {
                    "name": "D3",
                    "midi": 50,
                    "time": 147.94828800000013,
                    "velocity": 0.4645669291338583,
                    "duration": 0.19264100000000894
                },
                {
                    "name": "F3",
                    "midi": 53,
                    "time": 148.14092900000014,
                    "velocity": 0.4251968503937008,
                    "duration": 0.19264100000000894
                },
                {
                    "name": "A3",
                    "midi": 57,
                    "time": 148.33357000000015,
                    "velocity": 0.4251968503937008,
                    "duration": 0.19264100000000894
                },
                {
                    "name": "C#3",
                    "midi": 49,
                    "time": 148.52621100000016,
                    "velocity": 0.4645669291338583,
                    "duration": 0.19264100000000894
                },
                {
                    "name": "E3",
                    "midi": 52,
                    "time": 148.71885200000017,
                    "velocity": 0.4251968503937008,
                    "duration": 0.19264100000000894
                },
                {
                    "name": "A3",
                    "midi": 57,
                    "time": 148.91149300000018,
                    "velocity": 0.4251968503937008,
                    "duration": 0.19264100000000894
                },
                {
                    "name": "D3",
                    "midi": 50,
                    "time": 149.1041340000002,
                    "velocity": 0.4645669291338583,
                    "duration": 0.19264100000000894
                },
                {
                    "name": "F3",
                    "midi": 53,
                    "time": 149.2967750000002,
                    "velocity": 0.4251968503937008,
                    "duration": 0.19264100000000894
                },
                {
                    "name": "A3",
                    "midi": 57,
                    "time": 149.4894160000002,
                    "velocity": 0.4251968503937008,
                    "duration": 0.19264100000000894
                },
                {
                    "name": "C3",
                    "midi": 48,
                    "time": 149.6820570000002,
                    "velocity": 0.4645669291338583,
                    "duration": 0.19264100000000894
                },
                {
                    "name": "F#3",
                    "midi": 54,
                    "time": 149.87469800000022,
                    "velocity": 0.41732283464566927,
                    "duration": 0.19264100000000894
                },
                {
                    "name": "A3",
                    "midi": 57,
                    "time": 150.06733900000023,
                    "velocity": 0.41732283464566927,
                    "duration": 0.19264100000000894
                },
                {
                    "name": "B2",
                    "midi": 47,
                    "time": 150.25998000000024,
                    "velocity": 0.4566929133858268,
                    "duration": 0.38528199999998947
                },
                {
                    "name": "G4",
                    "midi": 67,
                    "time": 151.41582600000024,
                    "velocity": 0.4251968503937008,
                    "duration": 0.5779229999999984
                },
                {
                    "name": "G4",
                    "midi": 67,
                    "time": 151.99374900000024,
                    "velocity": 0.4094488188976378,
                    "duration": 0.5779229999999984
                },
                {
                    "name": "F4",
                    "midi": 65,
                    "time": 151.99374900000024,
                    "velocity": 0.3464566929133858,
                    "duration": 0.5779229999999984
                },
                {
                    "name": "G4",
                    "midi": 67,
                    "time": 152.57167200000023,
                    "velocity": 0.3700787401574803,
                    "duration": 0.5779229999999984
                },
                {
                    "name": "E4",
                    "midi": 64,
                    "time": 152.57167200000023,
                    "velocity": 0.31496062992125984,
                    "duration": 0.5779229999999984
                },
                {
                    "name": "F4",
                    "midi": 65,
                    "time": 153.14959500000023,
                    "velocity": 0.30708661417322836,
                    "duration": 0.5779229999999984
                },
                {
                    "name": "D4",
                    "midi": 62,
                    "time": 153.14959500000023,
                    "velocity": 0.30708661417322836,
                    "duration": 0.5779229999999984
                },
                {
                    "name": "G4",
                    "midi": 67,
                    "time": 153.14959500000023,
                    "velocity": 0.36220472440944884,
                    "duration": 0.5779229999999984
                },
                {
                    "name": "C4",
                    "midi": 60,
                    "time": 153.72751800000023,
                    "velocity": 0.3464566929133858,
                    "duration": 0.09632049999999026
                },
                {
                    "name": "E4",
                    "midi": 64,
                    "time": 153.9201590000002,
                    "velocity": 0.29133858267716534,
                    "duration": 0.09632049999999026
                },
                {
                    "name": "G4",
                    "midi": 67,
                    "time": 154.1128000000002,
                    "velocity": 0.29133858267716534,
                    "duration": 0.09632049999999026
                },
                {
                    "name": "B3",
                    "midi": 59,
                    "time": 154.30544100000017,
                    "velocity": 0.33858267716535434,
                    "duration": 0.09632049999999026
                },
                {
                    "name": "F4",
                    "midi": 65,
                    "time": 154.49808200000015,
                    "velocity": 0.29133858267716534,
                    "duration": 0.09632049999999026
                },
                {
                    "name": "G4",
                    "midi": 67,
                    "time": 154.69072300000013,
                    "velocity": 0.29133858267716534,
                    "duration": 0.09632049999999026
                },
                {
                    "name": "G4",
                    "midi": 67,
                    "time": 154.8833640000001,
                    "velocity": 0.36220472440944884,
                    "duration": 0.19264100000000894
                },
                {
                    "name": "C4",
                    "midi": 60,
                    "time": 154.8833640000001,
                    "velocity": 0.36220472440944884,
                    "duration": 0.19264100000000894
                },
                {
                    "name": "E4",
                    "midi": 64,
                    "time": 154.8833640000001,
                    "velocity": 0.36220472440944884,
                    "duration": 0.19264100000000894
                },
                {
                    "name": "F3",
                    "midi": 53,
                    "time": 156.0392100000001,
                    "velocity": 0.3228346456692913,
                    "duration": 0.09632049999999026
                },
                {
                    "name": "F4",
                    "midi": 65,
                    "time": 156.2318510000001,
                    "velocity": 0.2755905511811024,
                    "duration": 0.09632049999999026
                },
                {
                    "name": "B2",
                    "midi": 47,
                    "time": 156.61713300000008,
                    "velocity": 0.33858267716535434,
                    "duration": 0.09632049999999026
                },
                {
                    "name": "B3",
                    "midi": 59,
                    "time": 156.80977400000006,
                    "velocity": 0.2992125984251969,
                    "duration": 0.09632049999999026
                },
                {
                    "name": "E3",
                    "midi": 52,
                    "time": 157.19505600000005,
                    "velocity": 0.3464566929133858,
                    "duration": 0.09632049999999026
                },
                {
                    "name": "E4",
                    "midi": 64,
                    "time": 157.38769700000003,
                    "velocity": 0.31496062992125984,
                    "duration": 0.09632049999999026
                },
                {
                    "name": "A2",
                    "midi": 45,
                    "time": 157.77297900000002,
                    "velocity": 0.33858267716535434,
                    "duration": 0.09632049999999026
                },
                {
                    "name": "A3",
                    "midi": 57,
                    "time": 157.96562,
                    "velocity": 0.31496062992125984,
                    "duration": 0.09632049999999026
                },
                {
                    "name": "D3",
                    "midi": 50,
                    "time": 158.350902,
                    "velocity": 0.3779527559055118,
                    "duration": 0.09632049999999026
                },
                {
                    "name": "B3",
                    "midi": 59,
                    "time": 158.73618399999998,
                    "velocity": 0.33858267716535434,
                    "duration": 0.09632049999999026
                },
                {
                    "name": "C4",
                    "midi": 60,
                    "time": 158.92882499999996,
                    "velocity": 0.3858267716535433,
                    "duration": 0.09632049999999026
                },
                {
                    "name": "C3",
                    "midi": 48,
                    "time": 159.31410699999995,
                    "velocity": 0.31496062992125984,
                    "duration": 0.09632049999999026
                },
                {
                    "name": "G3",
                    "midi": 55,
                    "time": 159.50674799999993,
                    "velocity": 0.3700787401574803,
                    "duration": 0.09632049999999026
                },
                {
                    "name": "A4",
                    "midi": 69,
                    "time": 160.18099149999992,
                    "velocity": 0.44881889763779526,
                    "duration": 0.1059525499999836
                },
                {
                    "name": "G4",
                    "midi": 67,
                    "time": 160.2773119999999,
                    "velocity": 0.4409448818897638,
                    "duration": 0.1059525499999836
                },
                {
                    "name": "F4",
                    "midi": 65,
                    "time": 160.3736324999999,
                    "velocity": 0.4330708661417323,
                    "duration": 0.1059525499999836
                },
                {
                    "name": "E4",
                    "midi": 64,
                    "time": 160.4699529999999,
                    "velocity": 0.4094488188976378,
                    "duration": 0.1059525499999836
                },
                {
                    "name": "D4",
                    "midi": 62,
                    "time": 160.56627349999988,
                    "velocity": 0.4015748031496063,
                    "duration": 0.09632049999999026
                },
                {
                    "name": "C4",
                    "midi": 60,
                    "time": 160.66259399999987,
                    "velocity": 0.3228346456692913,
                    "duration": 0.19264100000000894
                },
                {
                    "name": "D#4",
                    "midi": 63,
                    "time": 160.85523499999988,
                    "velocity": 0.2440944881889764,
                    "duration": 0.19264100000000894
                },
                {
                    "name": "G4",
                    "midi": 67,
                    "time": 161.0478759999999,
                    "velocity": 0.2440944881889764,
                    "duration": 0.19264100000000894
                },
                {
                    "name": "C4",
                    "midi": 60,
                    "time": 161.2405169999999,
                    "velocity": 0.29133858267716534,
                    "duration": 0.19264100000000894
                },
                {
                    "name": "D#4",
                    "midi": 63,
                    "time": 161.4331579999999,
                    "velocity": 0.2440944881889764,
                    "duration": 0.19264100000000894
                },
                {
                    "name": "G4",
                    "midi": 67,
                    "time": 161.62579899999992,
                    "velocity": 0.2440944881889764,
                    "duration": 0.19264100000000894
                },
                {
                    "name": "B3",
                    "midi": 59,
                    "time": 161.81843999999992,
                    "velocity": 0.3228346456692913,
                    "duration": 0.19264100000000894
                },
                {
                    "name": "D4",
                    "midi": 62,
                    "time": 162.01108099999993,
                    "velocity": 0.2440944881889764,
                    "duration": 0.19264100000000894
                },
                {
                    "name": "G4",
                    "midi": 67,
                    "time": 162.20372199999994,
                    "velocity": 0.2440944881889764,
                    "duration": 0.19264100000000894
                },
                {
                    "name": "B3",
                    "midi": 59,
                    "time": 162.39636299999995,
                    "velocity": 0.28346456692913385,
                    "duration": 0.19264100000000894
                },
                {
                    "name": "D4",
                    "midi": 62,
                    "time": 162.58900399999996,
                    "velocity": 0.2440944881889764,
                    "duration": 0.19264100000000894
                },
                {
                    "name": "G4",
                    "midi": 67,
                    "time": 162.78164499999997,
                    "velocity": 0.2440944881889764,
                    "duration": 0.19264100000000894
                },
                {
                    "name": "B3",
                    "midi": 59,
                    "time": 162.97428599999998,
                    "velocity": 0.3228346456692913,
                    "duration": 0.19264100000000894
                },
                {
                    "name": "D4",
                    "midi": 62,
                    "time": 163.166927,
                    "velocity": 0.2440944881889764,
                    "duration": 0.19264100000000894
                },
                {
                    "name": "F4",
                    "midi": 65,
                    "time": 163.359568,
                    "velocity": 0.2440944881889764,
                    "duration": 0.19264100000000894
                },
                {
                    "name": "B3",
                    "midi": 59,
                    "time": 163.552209,
                    "velocity": 0.29133858267716534,
                    "duration": 0.19264100000000894
                },
                {
                    "name": "D4",
                    "midi": 62,
                    "time": 163.74485,
                    "velocity": 0.2440944881889764,
                    "duration": 0.19264100000000894
                },
                {
                    "name": "G4",
                    "midi": 67,
                    "time": 163.93749100000002,
                    "velocity": 0.2440944881889764,
                    "duration": 0.19264100000000894
                },
                {
                    "name": "C4",
                    "midi": 60,
                    "time": 164.13013200000003,
                    "velocity": 0.3228346456692913,
                    "duration": 0.19264100000000894
                },
                {
                    "name": "D#4",
                    "midi": 63,
                    "time": 164.32277300000004,
                    "velocity": 0.2440944881889764,
                    "duration": 0.19264100000000894
                },
                {
                    "name": "G4",
                    "midi": 67,
                    "time": 164.51541400000005,
                    "velocity": 0.2440944881889764,
                    "duration": 0.19264100000000894
                },
                {
                    "name": "C4",
                    "midi": 60,
                    "time": 164.70805500000006,
                    "velocity": 0.28346456692913385,
                    "duration": 0.19264100000000894
                },
                {
                    "name": "D#4",
                    "midi": 63,
                    "time": 164.90069600000007,
                    "velocity": 0.2440944881889764,
                    "duration": 0.19264100000000894
                },
                {
                    "name": "G4",
                    "midi": 67,
                    "time": 165.09333700000008,
                    "velocity": 0.2440944881889764,
                    "duration": 0.19264100000000894
                },
                {
                    "name": "D#4",
                    "midi": 63,
                    "time": 165.28597800000009,
                    "velocity": 0.3700787401574803,
                    "duration": 0.19264100000000894
                },
                {
                    "name": "G4",
                    "midi": 67,
                    "time": 165.4786190000001,
                    "velocity": 0.28346456692913385,
                    "duration": 0.19264100000000894
                },
                {
                    "name": "C5",
                    "midi": 72,
                    "time": 165.6712600000001,
                    "velocity": 0.28346456692913385,
                    "duration": 0.19264100000000894
                },
                {
                    "name": "D4",
                    "midi": 62,
                    "time": 165.8639010000001,
                    "velocity": 0.3464566929133858,
                    "duration": 0.19264100000000894
                },
                {
                    "name": "F4",
                    "midi": 65,
                    "time": 166.05654200000012,
                    "velocity": 0.25196850393700787,
                    "duration": 0.19264100000000894
                },
                {
                    "name": "A#4",
                    "midi": 70,
                    "time": 166.24918300000013,
                    "velocity": 0.25984251968503935,
                    "duration": 0.19264100000000894
                },
                {
                    "name": "C4",
                    "midi": 60,
                    "time": 166.44182400000014,
                    "velocity": 0.3779527559055118,
                    "duration": 0.19264100000000894
                },
                {
                    "name": "D#4",
                    "midi": 63,
                    "time": 166.63446500000015,
                    "velocity": 0.28346456692913385,
                    "duration": 0.19264100000000894
                },
                {
                    "name": "G#4",
                    "midi": 68,
                    "time": 166.82710600000016,
                    "velocity": 0.28346456692913385,
                    "duration": 0.19264100000000894
                },
                {
                    "name": "A#3",
                    "midi": 58,
                    "time": 167.01974700000017,
                    "velocity": 0.3543307086614173,
                    "duration": 0.19264100000000894
                },
                {
                    "name": "D4",
                    "midi": 62,
                    "time": 167.21238800000017,
                    "velocity": 0.2440944881889764,
                    "duration": 0.19264100000000894
                },
                {
                    "name": "G4",
                    "midi": 67,
                    "time": 167.40502900000018,
                    "velocity": 0.2440944881889764,
                    "duration": 0.19264100000000894
                },
                {
                    "name": "G#3",
                    "midi": 56,
                    "time": 167.5976700000002,
                    "velocity": 0.36220472440944884,
                    "duration": 0.19264100000000894
                },
                {
                    "name": "C4",
                    "midi": 60,
                    "time": 167.7903110000002,
                    "velocity": 0.2755905511811024,
                    "duration": 0.19264100000000894
                },
                {
                    "name": "F4",
                    "midi": 65,
                    "time": 167.9829520000002,
                    "velocity": 0.2755905511811024,
                    "duration": 0.19264100000000894
                },
                {
                    "name": "G#3",
                    "midi": 56,
                    "time": 168.17559300000022,
                    "velocity": 0.33858267716535434,
                    "duration": 0.19264100000000894
                },
                {
                    "name": "C4",
                    "midi": 60,
                    "time": 168.36823400000023,
                    "velocity": 0.28346456692913385,
                    "duration": 0.19264100000000894
                },
                {
                    "name": "F#4",
                    "midi": 66,
                    "time": 168.56087500000024,
                    "velocity": 0.2677165354330709,
                    "duration": 0.19264100000000894
                },
                {
                    "name": "G3",
                    "midi": 55,
                    "time": 168.75351600000025,
                    "velocity": 0.33858267716535434,
                    "duration": 0.19264100000000894
                },
                {
                    "name": "C4",
                    "midi": 60,
                    "time": 168.94615700000026,
                    "velocity": 0.2283464566929134,
                    "duration": 0.19264100000000894
                },
                {
                    "name": "G4",
                    "midi": 67,
                    "time": 169.13879800000026,
                    "velocity": 0.23622047244094488,
                    "duration": 0.19264100000000894
                },
                {
                    "name": "G3",
                    "midi": 55,
                    "time": 169.33143900000027,
                    "velocity": 0.30708661417322836,
                    "duration": 0.19264100000000894
                },
                {
                    "name": "B3",
                    "midi": 59,
                    "time": 169.52408000000028,
                    "velocity": 0.2125984251968504,
                    "duration": 0.19264100000000894
                },
                {
                    "name": "G4",
                    "midi": 67,
                    "time": 169.7167210000003,
                    "velocity": 0.2125984251968504,
                    "duration": 0.19264100000000894
                },
                {
                    "name": "C4",
                    "midi": 60,
                    "time": 169.9093620000003,
                    "velocity": 0.3228346456692913,
                    "duration": 0.19264100000000894
                },
                {
                    "name": "D#4",
                    "midi": 63,
                    "time": 170.1020030000003,
                    "velocity": 0.2440944881889764,
                    "duration": 0.19264100000000894
                },
                {
                    "name": "G4",
                    "midi": 67,
                    "time": 170.29464400000032,
                    "velocity": 0.2440944881889764,
                    "duration": 0.19264100000000894
                },
                {
                    "name": "C4",
                    "midi": 60,
                    "time": 170.48728500000033,
                    "velocity": 0.29133858267716534,
                    "duration": 0.19264100000000894
                },
                {
                    "name": "D#4",
                    "midi": 63,
                    "time": 170.67992600000034,
                    "velocity": 0.2440944881889764,
                    "duration": 0.19264100000000894
                },
                {
                    "name": "G4",
                    "midi": 67,
                    "time": 170.87256700000034,
                    "velocity": 0.2440944881889764,
                    "duration": 0.19264100000000894
                },
                {
                    "name": "B3",
                    "midi": 59,
                    "time": 171.06520800000035,
                    "velocity": 0.3228346456692913,
                    "duration": 0.19264100000000894
                },
                {
                    "name": "D4",
                    "midi": 62,
                    "time": 171.25784900000036,
                    "velocity": 0.2440944881889764,
                    "duration": 0.19264100000000894
                },
                {
                    "name": "G4",
                    "midi": 67,
                    "time": 171.45049000000037,
                    "velocity": 0.2440944881889764,
                    "duration": 0.19264100000000894
                },
                {
                    "name": "B3",
                    "midi": 59,
                    "time": 171.64313100000038,
                    "velocity": 0.28346456692913385,
                    "duration": 0.19264100000000894
                },
                {
                    "name": "D4",
                    "midi": 62,
                    "time": 171.8357720000004,
                    "velocity": 0.2440944881889764,
                    "duration": 0.19264100000000894
                },
                {
                    "name": "G4",
                    "midi": 67,
                    "time": 172.0284130000004,
                    "velocity": 0.2440944881889764,
                    "duration": 0.19264100000000894
                },
                {
                    "name": "B3",
                    "midi": 59,
                    "time": 172.2210540000004,
                    "velocity": 0.3228346456692913,
                    "duration": 0.19264100000000894
                },
                {
                    "name": "D4",
                    "midi": 62,
                    "time": 172.41369500000042,
                    "velocity": 0.2440944881889764,
                    "duration": 0.19264100000000894
                },
                {
                    "name": "F4",
                    "midi": 65,
                    "time": 172.60633600000043,
                    "velocity": 0.2440944881889764,
                    "duration": 0.19264100000000894
                },
                {
                    "name": "B3",
                    "midi": 59,
                    "time": 172.79897700000043,
                    "velocity": 0.29133858267716534,
                    "duration": 0.19264100000000894
                },
                {
                    "name": "D4",
                    "midi": 62,
                    "time": 172.99161800000044,
                    "velocity": 0.2440944881889764,
                    "duration": 0.19264100000000894
                },
                {
                    "name": "G4",
                    "midi": 67,
                    "time": 173.18425900000045,
                    "velocity": 0.2440944881889764,
                    "duration": 0.19264100000000894
                },
                {
                    "name": "A#3",
                    "midi": 58,
                    "time": 173.37690000000046,
                    "velocity": 0.3228346456692913,
                    "duration": 0.19264100000000894
                },
                {
                    "name": "C#4",
                    "midi": 61,
                    "time": 173.56954100000047,
                    "velocity": 0.2440944881889764,
                    "duration": 0.19264100000000894
                },
                {
                    "name": "G4",
                    "midi": 67,
                    "time": 173.76218200000048,
                    "velocity": 0.2440944881889764,
                    "duration": 0.19264100000000894
                },
                {
                    "name": "A3",
                    "midi": 57,
                    "time": 173.9548230000005,
                    "velocity": 0.28346456692913385,
                    "duration": 0.19264100000000894
                },
                {
                    "name": "C4",
                    "midi": 60,
                    "time": 174.1474640000005,
                    "velocity": 0.2440944881889764,
                    "duration": 0.19264100000000894
                },
                {
                    "name": "F4",
                    "midi": 65,
                    "time": 174.3401050000005,
                    "velocity": 0.2440944881889764,
                    "duration": 0.19264100000000894
                },
                {
                    "name": "G#3",
                    "midi": 56,
                    "time": 174.53274600000051,
                    "velocity": 0.4094488188976378,
                    "duration": 0.19264100000000894
                },
                {
                    "name": "C4",
                    "midi": 60,
                    "time": 174.72538700000052,
                    "velocity": 0.3228346456692913,
                    "duration": 0.19264100000000894
                },
                {
                    "name": "F#4",
                    "midi": 66,
                    "time": 174.91802800000053,
                    "velocity": 0.3228346456692913,
                    "duration": 0.19264100000000894
                },
                {
                    "name": "G3",
                    "midi": 55,
                    "time": 175.11066900000054,
                    "velocity": 0.4015748031496063,
                    "duration": 0.19264100000000894
                },
                {
                    "name": "C4",
                    "midi": 60,
                    "time": 175.30331000000055,
                    "velocity": 0.28346456692913385,
                    "duration": 0.19264100000000894
                },
                {
                    "name": "G4",
                    "midi": 67,
                    "time": 175.49595100000056,
                    "velocity": 0.28346456692913385,
                    "duration": 0.19264100000000894
                },
                {
                    "name": "F3",
                    "midi": 53,
                    "time": 175.68859200000057,
                    "velocity": 0.4409448818897638,
                    "duration": 0.19264100000000894
                },
                {
                    "name": "G#3",
                    "midi": 56,
                    "time": 175.88123300000058,
                    "velocity": 0.28346456692913385,
                    "duration": 0.19264100000000894
                },
                {
                    "name": "D4",
                    "midi": 62,
                    "time": 176.0738740000006,
                    "velocity": 0.28346456692913385,
                    "duration": 0.19264100000000894
                },
                {
                    "name": "D#3",
                    "midi": 51,
                    "time": 176.2665150000006,
                    "velocity": 0.3543307086614173,
                    "duration": 0.19264100000000894
                },
                {
                    "name": "C4",
                    "midi": 60,
                    "time": 176.4591560000006,
                    "velocity": 0.2440944881889764,
                    "duration": 0.19264100000000894
                },
                {
                    "name": "F3",
                    "midi": 53,
                    "time": 176.6517970000006,
                    "velocity": 0.2440944881889764,
                    "duration": 0.19264100000000894
                },
                {
                    "name": "G3",
                    "midi": 55,
                    "time": 176.84443800000062,
                    "velocity": 0.3543307086614173,
                    "duration": 0.19264100000000894
                },
                {
                    "name": "C4",
                    "midi": 60,
                    "time": 177.03707900000063,
                    "velocity": 0.23622047244094488,
                    "duration": 0.19264100000000894
                },
                {
                    "name": "D#4",
                    "midi": 63,
                    "time": 177.22972000000064,
                    "velocity": 0.23622047244094488,
                    "duration": 0.19264100000000894
                },
                {
                    "name": "G3",
                    "midi": 55,
                    "time": 177.42236100000065,
                    "velocity": 0.2992125984251969,
                    "duration": 0.19264100000000894
                },
                {
                    "name": "D4",
                    "midi": 62,
                    "time": 177.61500200000066,
                    "velocity": 0.2440944881889764,
                    "duration": 0.19264100000000894
                },
                {
                    "name": "F4",
                    "midi": 65,
                    "time": 177.80764300000067,
                    "velocity": 0.2440944881889764,
                    "duration": 0.19264100000000894
                },
                {
                    "name": "E4",
                    "midi": 64,
                    "time": 178.00028400000068,
                    "velocity": 0.5275590551181102,
                    "duration": 0.38528199999998947
                },
                {
                    "name": "C4",
                    "midi": 60,
                    "time": 178.00028400000068,
                    "velocity": 0.5275590551181102,
                    "duration": 0.38528199999998947
                },
                {
                    "name": "D4",
                    "midi": 62,
                    "time": 178.57820700000067,
                    "velocity": 0.5275590551181102,
                    "duration": 0.09632049999999026
                },
                {
                    "name": "B3",
                    "midi": 59,
                    "time": 178.77084800000065,
                    "velocity": 0.4881889763779528,
                    "duration": 0.09632049999999026
                },
                {
                    "name": "G3",
                    "midi": 55,
                    "time": 178.96348900000064,
                    "velocity": 0.4881889763779528,
                    "duration": 0.09632049999999026
                },
                {
                    "name": "C4",
                    "midi": 60,
                    "time": 179.15613000000062,
                    "velocity": 0.5275590551181102,
                    "duration": 0.38528199999998947
                },
                {
                    "name": "D4",
                    "midi": 62,
                    "time": 179.7340530000006,
                    "velocity": 0.5275590551181102,
                    "duration": 0.09632049999999026
                },
                {
                    "name": "B3",
                    "midi": 59,
                    "time": 179.9266940000006,
                    "velocity": 0.4881889763779528,
                    "duration": 0.09632049999999026
                },
                {
                    "name": "G3",
                    "midi": 55,
                    "time": 180.11933500000058,
                    "velocity": 0.4881889763779528,
                    "duration": 0.09632049999999026
                },
                {
                    "name": "C4",
                    "midi": 60,
                    "time": 180.31197600000056,
                    "velocity": 0.5275590551181102,
                    "duration": 0.38528199999998947
                },
                {
                    "name": "D4",
                    "midi": 62,
                    "time": 180.88989900000055,
                    "velocity": 0.5275590551181102,
                    "duration": 0.09632049999999026
                },
                {
                    "name": "B3",
                    "midi": 59,
                    "time": 181.08254000000053,
                    "velocity": 0.4881889763779528,
                    "duration": 0.09632049999999026
                },
                {
                    "name": "G3",
                    "midi": 55,
                    "time": 181.27518100000052,
                    "velocity": 0.4881889763779528,
                    "duration": 0.09632049999999026
                },
                {
                    "name": "C4",
                    "midi": 60,
                    "time": 181.4678220000005,
                    "velocity": 0.5275590551181102,
                    "duration": 0.38528199999998947
                },
                {
                    "name": "A2",
                    "midi": 45,
                    "time": 183.9721550000005,
                    "velocity": 0.36220472440944884,
                    "duration": 0.21190509999999563
                },
                {
                    "name": "C3",
                    "midi": 48,
                    "time": 184.1647960000005,
                    "velocity": 0.3858267716535433,
                    "duration": 0.2119050999999672
                },
                {
                    "name": "D#3",
                    "midi": 51,
                    "time": 184.3574370000005,
                    "velocity": 0.4015748031496063,
                    "duration": 0.2119050999999672
                },
                {
                    "name": "D3",
                    "midi": 50,
                    "time": 184.55007800000047,
                    "velocity": 0.36220472440944884,
                    "duration": 0.2119050999999672
                },
                {
                    "name": "C3",
                    "midi": 48,
                    "time": 184.74271900000045,
                    "velocity": 0.36220472440944884,
                    "duration": 0.38528199999998947
                },
                {
                    "name": "B2",
                    "midi": 47,
                    "time": 185.12800100000044,
                    "velocity": 0.3543307086614173,
                    "duration": 0.21190509999999563
                },
                {
                    "name": "D3",
                    "midi": 50,
                    "time": 185.32064200000045,
                    "velocity": 0.36220472440944884,
                    "duration": 0.2119050999999672
                },
                {
                    "name": "G#3",
                    "midi": 56,
                    "time": 185.51328300000043,
                    "velocity": 0.4015748031496063,
                    "duration": 0.2119050999999672
                },
                {
                    "name": "G3",
                    "midi": 55,
                    "time": 185.7059240000004,
                    "velocity": 0.36220472440944884,
                    "duration": 0.2119050999999672
                },
                {
                    "name": "F3",
                    "midi": 53,
                    "time": 185.8985650000004,
                    "velocity": 0.36220472440944884,
                    "duration": 0.2119050999999672
                },
                {
                    "name": "E3",
                    "midi": 52,
                    "time": 186.09120600000037,
                    "velocity": 0.28346456692913385,
                    "duration": 0.19264099999998052
                },
                {
                    "name": "F3",
                    "midi": 53,
                    "time": 186.66912900000034,
                    "velocity": 0.31496062992125984,
                    "duration": 0.19264100000000894
                },
                {
                    "name": "G3",
                    "midi": 55,
                    "time": 187.24705200000034,
                    "velocity": 0.2677165354330709,
                    "duration": 1.1558459999999968
                },
                {
                    "name": "E4",
                    "midi": 64,
                    "time": 187.24705200000034,
                    "velocity": 0.31496062992125984,
                    "duration": 0.5779229999999984
                },
                {
                    "name": "F4",
                    "midi": 65,
                    "time": 187.82497500000034,
                    "velocity": 0.31496062992125984,
                    "duration": 0.5779229999999984
                },
                {
                    "name": "E4",
                    "midi": 64,
                    "time": 188.40289800000033,
                    "velocity": 0.5275590551181102,
                    "duration": 0.38528199999998947
                },
                {
                    "name": "C4",
                    "midi": 60,
                    "time": 188.40289800000033,
                    "velocity": 0.5275590551181102,
                    "duration": 0.38528199999998947
                },
                {
                    "name": "D4",
                    "midi": 62,
                    "time": 188.98082100000033,
                    "velocity": 0.5275590551181102,
                    "duration": 0.09632049999999026
                },
                {
                    "name": "B3",
                    "midi": 59,
                    "time": 189.1734620000003,
                    "velocity": 0.4881889763779528,
                    "duration": 0.09632049999999026
                },
                {
                    "name": "G3",
                    "midi": 55,
                    "time": 189.3661030000003,
                    "velocity": 0.4881889763779528,
                    "duration": 0.09632049999999026
                },
                {
                    "name": "C4",
                    "midi": 60,
                    "time": 189.55874400000027,
                    "velocity": 0.5275590551181102,
                    "duration": 0.38528199999998947
                },
                {
                    "name": "D4",
                    "midi": 62,
                    "time": 190.13666700000027,
                    "velocity": 0.5275590551181102,
                    "duration": 0.09632049999999026
                },
                {
                    "name": "B3",
                    "midi": 59,
                    "time": 190.32930800000025,
                    "velocity": 0.4881889763779528,
                    "duration": 0.09632049999999026
                },
                {
                    "name": "G3",
                    "midi": 55,
                    "time": 190.52194900000023,
                    "velocity": 0.4881889763779528,
                    "duration": 0.09632049999999026
                },
                {
                    "name": "C4",
                    "midi": 60,
                    "time": 190.71459000000021,
                    "velocity": 0.5275590551181102,
                    "duration": 0.38528199999998947
                },
                {
                    "name": "D4",
                    "midi": 62,
                    "time": 191.2925130000002,
                    "velocity": 0.5275590551181102,
                    "duration": 0.09632049999999026
                },
                {
                    "name": "B3",
                    "midi": 59,
                    "time": 191.4851540000002,
                    "velocity": 0.4881889763779528,
                    "duration": 0.09632049999999026
                },
                {
                    "name": "G3",
                    "midi": 55,
                    "time": 191.67779500000017,
                    "velocity": 0.4881889763779528,
                    "duration": 0.09632049999999026
                },
                {
                    "name": "C4",
                    "midi": 60,
                    "time": 191.87043600000015,
                    "velocity": 0.5275590551181102,
                    "duration": 0.38528199999998947
                },
                {
                    "name": "A2",
                    "midi": 45,
                    "time": 194.37476900000016,
                    "velocity": 0.36220472440944884,
                    "duration": 0.21190509999999563
                },
                {
                    "name": "C3",
                    "midi": 48,
                    "time": 194.56741000000017,
                    "velocity": 0.3858267716535433,
                    "duration": 0.2119050999999672
                },
                {
                    "name": "D#3",
                    "midi": 51,
                    "time": 194.76005100000015,
                    "velocity": 0.4015748031496063,
                    "duration": 0.2119050999999672
                },
                {
                    "name": "D3",
                    "midi": 50,
                    "time": 194.95269200000013,
                    "velocity": 0.36220472440944884,
                    "duration": 0.2119050999999672
                },
                {
                    "name": "C3",
                    "midi": 48,
                    "time": 195.1453330000001,
                    "velocity": 0.36220472440944884,
                    "duration": 0.38528199999998947
                },
                {
                    "name": "B2",
                    "midi": 47,
                    "time": 195.5306150000001,
                    "velocity": 0.3543307086614173,
                    "duration": 0.21190509999999563
                },
                {
                    "name": "D3",
                    "midi": 50,
                    "time": 195.7232560000001,
                    "velocity": 0.36220472440944884,
                    "duration": 0.2119050999999672
                },
                {
                    "name": "G#3",
                    "midi": 56,
                    "time": 195.9158970000001,
                    "velocity": 0.4015748031496063,
                    "duration": 0.2119050999999672
                },
                {
                    "name": "G3",
                    "midi": 55,
                    "time": 196.10853800000007,
                    "velocity": 0.36220472440944884,
                    "duration": 0.2119050999999672
                },
                {
                    "name": "F3",
                    "midi": 53,
                    "time": 196.30117900000005,
                    "velocity": 0.36220472440944884,
                    "duration": 0.2119050999999672
                },
                {
                    "name": "E3",
                    "midi": 52,
                    "time": 196.49382000000003,
                    "velocity": 0.28346456692913385,
                    "duration": 0.19264099999998052
                },
                {
                    "name": "F3",
                    "midi": 53,
                    "time": 197.071743,
                    "velocity": 0.31496062992125984,
                    "duration": 0.19264100000000894
                },
                {
                    "name": "G3",
                    "midi": 55,
                    "time": 197.649666,
                    "velocity": 0.2677165354330709,
                    "duration": 0.5779229999999984
                },
                {
                    "name": "E4",
                    "midi": 64,
                    "time": 197.649666,
                    "velocity": 0.31496062992125984,
                    "duration": 0.5779229999999984
                },
                {
                    "name": "D4",
                    "midi": 62,
                    "time": 198.227589,
                    "velocity": 0.31496062992125984,
                    "duration": 0.5779229999999984
                },
                {
                    "name": "F3",
                    "midi": 53,
                    "time": 198.227589,
                    "velocity": 0.25196850393700787,
                    "duration": 0.5779229999999984
                },
                {
                    "name": "E3",
                    "midi": 52,
                    "time": 198.805512,
                    "velocity": 0.5039370078740157,
                    "duration": 0.19264100000000894
                },
                {
                    "name": "G3",
                    "midi": 55,
                    "time": 198.998153,
                    "velocity": 0.41732283464566927,
                    "duration": 0.19264100000000894
                },
                {
                    "name": "C4",
                    "midi": 60,
                    "time": 199.190794,
                    "velocity": 0.41732283464566927,
                    "duration": 0.19264100000000894
                },
                {
                    "name": "F3",
                    "midi": 53,
                    "time": 199.38343500000002,
                    "velocity": 0.48031496062992124,
                    "duration": 0.19264100000000894
                },
                {
                    "name": "A3",
                    "midi": 57,
                    "time": 199.57607600000003,
                    "velocity": 0.41732283464566927,
                    "duration": 0.19264100000000894
                },
                {
                    "name": "D4",
                    "midi": 62,
                    "time": 199.76871700000004,
                    "velocity": 0.3937007874015748,
                    "duration": 0.19264100000000894
                },
                {
                    "name": "G3",
                    "midi": 55,
                    "time": 199.96135800000005,
                    "velocity": 0.2992125984251969,
                    "duration": 0.19264100000000894
                },
                {
                    "name": "C4",
                    "midi": 60,
                    "time": 200.15399900000006,
                    "velocity": 0.2677165354330709,
                    "duration": 0.19264100000000894
                },
                {
                    "name": "E4",
                    "midi": 64,
                    "time": 200.34664000000006,
                    "velocity": 0.2677165354330709,
                    "duration": 0.19264100000000894
                },
                {
                    "name": "G3",
                    "midi": 55,
                    "time": 200.53928100000007,
                    "velocity": 0.30708661417322836,
                    "duration": 0.19264100000000894
                },
                {
                    "name": "D4",
                    "midi": 62,
                    "time": 200.73192200000008,
                    "velocity": 0.25984251968503935,
                    "duration": 0.19264100000000894
                },
                {
                    "name": "F4",
                    "midi": 65,
                    "time": 200.9245630000001,
                    "velocity": 0.25984251968503935,
                    "duration": 0.19264100000000894
                },
                {
                    "name": "C4",
                    "midi": 60,
                    "time": 201.1172040000001,
                    "velocity": 0.4409448818897638,
                    "duration": 0.38528199999998947
                },
                {
                    "name": "E4",
                    "midi": 64,
                    "time": 201.1172040000001,
                    "velocity": 0.5196850393700787,
                    "duration": 0.38528199999998947
                },
                {
                    "name": "G3",
                    "midi": 55,
                    "time": 201.6951270000001,
                    "velocity": 0.4409448818897638,
                    "duration": 0.38528199999998947
                },
                {
                    "name": "B3",
                    "midi": 59,
                    "time": 201.6951270000001,
                    "velocity": 0.5196850393700787,
                    "duration": 0.38528199999998947
                },
                {
                    "name": "F4",
                    "midi": 65,
                    "time": 201.6951270000001,
                    "velocity": 0.5196850393700787,
                    "duration": 0.38528199999998947
                },
                {
                    "name": "E4",
                    "midi": 64,
                    "time": 202.2730500000001,
                    "velocity": 0.5196850393700787,
                    "duration": 0.38528199999998947
                },
                {
                    "name": "C4",
                    "midi": 60,
                    "time": 202.2730500000001,
                    "velocity": 0.4409448818897638,
                    "duration": 0.38528199999998947
                },
                {
                    "name": "F4",
                    "midi": 65,
                    "time": 202.8509730000001,
                    "velocity": 0.5196850393700787,
                    "duration": 0.38528199999998947
                },
                {
                    "name": "B3",
                    "midi": 59,
                    "time": 202.8509730000001,
                    "velocity": 0.4409448818897638,
                    "duration": 0.38528199999998947
                },
                {
                    "name": "G3",
                    "midi": 55,
                    "time": 202.8509730000001,
                    "velocity": 0.4409448818897638,
                    "duration": 0.38528199999998947
                },
                {
                    "name": "E3",
                    "midi": 52,
                    "time": 203.4288960000001,
                    "velocity": 0.5196850393700787,
                    "duration": 0.38528199999998947
                },
                {
                    "name": "C3",
                    "midi": 48,
                    "time": 203.4288960000001,
                    "velocity": 0.4409448818897638,
                    "duration": 0.38528199999998947
                },
                {
                    "name": "G2",
                    "midi": 43,
                    "time": 204.0068190000001,
                    "velocity": 0.4409448818897638,
                    "duration": 0.38528199999998947
                },
                {
                    "name": "B2",
                    "midi": 47,
                    "time": 204.0068190000001,
                    "velocity": 0.4409448818897638,
                    "duration": 0.38528199999998947
                },
                {
                    "name": "F3",
                    "midi": 53,
                    "time": 204.0068190000001,
                    "velocity": 0.5196850393700787,
                    "duration": 0.38528199999998947
                },
                {
                    "name": "C2",
                    "midi": 36,
                    "time": 204.5847420000001,
                    "velocity": 0.5511811023622047,
                    "duration": 0.09632049999999026
                },
                {
                    "name": "E2",
                    "midi": 40,
                    "time": 204.77738300000007,
                    "velocity": 0.49606299212598426,
                    "duration": 0.09632049999999026
                },
                {
                    "name": "G2",
                    "midi": 43,
                    "time": 204.97002400000005,
                    "velocity": 0.49606299212598426,
                    "duration": 0.09632049999999026
                },
                {
                    "name": "C3",
                    "midi": 48,
                    "time": 205.16266500000003,
                    "velocity": 0.5511811023622047,
                    "duration": 0.09632049999999026
                },
                {
                    "name": "E3",
                    "midi": 52,
                    "time": 205.355306,
                    "velocity": 0.5039370078740157,
                    "duration": 0.09632049999999026
                },
                {
                    "name": "G3",
                    "midi": 55,
                    "time": 205.547947,
                    "velocity": 0.5039370078740157,
                    "duration": 0.09632049999999026
                },
                {
                    "name": "C4",
                    "midi": 60,
                    "time": 205.74058799999997,
                    "velocity": 0.5826771653543307,
                    "duration": 0.19264100000000894
                },
                {
                    "name": "E3",
                    "midi": 52,
                    "time": 206.31851099999997,
                    "velocity": 0.4881889763779528,
                    "duration": 0.38528199999998947
                },
                {
                    "name": "C4",
                    "midi": 60,
                    "time": 206.31851099999997,
                    "velocity": 0.5826771653543307,
                    "duration": 0.38528199999998947
                },
                {
                    "name": "C3",
                    "midi": 48,
                    "time": 206.31851099999997,
                    "velocity": 0.4881889763779528,
                    "duration": 0.38528199999998947
                },
                {
                    "name": "G3",
                    "midi": 55,
                    "time": 206.31851099999997,
                    "velocity": 0.4881889763779528,
                    "duration": 0.38528199999998947
                },
                {
                    "name": "C3",
                    "midi": 48,
                    "time": 206.89643399999997,
                    "velocity": 0.4881889763779528,
                    "duration": 0.38528199999998947
                },
                {
                    "name": "E3",
                    "midi": 52,
                    "time": 206.89643399999997,
                    "velocity": 0.4881889763779528,
                    "duration": 0.38528199999998947
                },
                {
                    "name": "C4",
                    "midi": 60,
                    "time": 206.89643399999997,
                    "velocity": 0.5826771653543307,
                    "duration": 0.38528199999998947
                },
                {
                    "name": "G3",
                    "midi": 55,
                    "time": 206.89643399999997,
                    "velocity": 0.4881889763779528,
                    "duration": 0.38528199999998947
                },
                {
                    "name": "C3",
                    "midi": 48,
                    "time": 208.05227999999997,
                    "velocity": 0.5511811023622047,
                    "duration": 0.38528199999998947
                },
                {
                    "name": "D#2",
                    "midi": 39,
                    "time": 208.05227999999997,
                    "velocity": 0.4645669291338583,
                    "duration": 0.38528199999998947
                },
                {
                    "name": "G2",
                    "midi": 43,
                    "time": 208.05227999999997,
                    "velocity": 0.4645669291338583,
                    "duration": 0.38528199999998947
                },
                {
                    "name": "C2",
                    "midi": 36,
                    "time": 208.05227999999997,
                    "velocity": 0.4645669291338583,
                    "duration": 0.38528199999998947
                },
                {
                    "name": "D#3",
                    "midi": 51,
                    "time": 210.94189499999996,
                    "velocity": 0.5511811023622047,
                    "duration": 0.09632049999999026
                },
                {
                    "name": "D3",
                    "midi": 50,
                    "time": 211.13453599999994,
                    "velocity": 0.5196850393700787,
                    "duration": 0.09632049999999026
                },
                {
                    "name": "D#3",
                    "midi": 51,
                    "time": 211.32717699999992,
                    "velocity": 0.5196850393700787,
                    "duration": 0.09632049999999026
                },
                {
                    "name": "F3",
                    "midi": 53,
                    "time": 211.5198179999999,
                    "velocity": 0.5511811023622047,
                    "duration": 0.09632049999999026
                },
                {
                    "name": "D#3",
                    "midi": 51,
                    "time": 211.71245899999988,
                    "velocity": 0.5275590551181102,
                    "duration": 0.09632049999999026
                },
                {
                    "name": "F3",
                    "midi": 53,
                    "time": 211.90509999999986,
                    "velocity": 0.5275590551181102,
                    "duration": 0.09632049999999026
                },
                {
                    "name": "G3",
                    "midi": 55,
                    "time": 212.09774099999984,
                    "velocity": 0.5511811023622047,
                    "duration": 0.09632049999999026
                },
                {
                    "name": "F3",
                    "midi": 53,
                    "time": 212.29038199999982,
                    "velocity": 0.5275590551181102,
                    "duration": 0.09632049999999026
                },
                {
                    "name": "G3",
                    "midi": 55,
                    "time": 212.4830229999998,
                    "velocity": 0.5275590551181102,
                    "duration": 0.09632049999999026
                },
                {
                    "name": "G#3",
                    "midi": 56,
                    "time": 212.67566399999978,
                    "velocity": 0.5826771653543307,
                    "duration": 0.38528199999998947
                },
                {
                    "name": "G3",
                    "midi": 55,
                    "time": 213.06094599999977,
                    "velocity": 0.5275590551181102,
                    "duration": 0.09632049999999026
                },
                {
                    "name": "G#3",
                    "midi": 56,
                    "time": 213.25358699999975,
                    "velocity": 0.5826771653543307,
                    "duration": 0.38528199999998947
                },
                {
                    "name": "G3",
                    "midi": 55,
                    "time": 213.63886899999974,
                    "velocity": 0.5196850393700787,
                    "duration": 0.09632049999999026
                },
                {
                    "name": "F#3",
                    "midi": 54,
                    "time": 213.83150999999972,
                    "velocity": 0.3464566929133858,
                    "duration": 0.20066770833335568
                },
                {
                    "name": "G3",
                    "midi": 55,
                    "time": 214.02415099999973,
                    "velocity": 0.2992125984251969,
                    "duration": 0.19264100000000894
                },
                {
                    "name": "F#3",
                    "midi": 54,
                    "time": 214.21679199999974,
                    "velocity": 0.4330708661417323,
                    "duration": 0.20066770833335568
                },
                {
                    "name": "G3",
                    "midi": 55,
                    "time": 214.40943299999975,
                    "velocity": 0.47244094488188976,
                    "duration": 0.19264100000000894
                },
                {
                    "name": "G#3",
                    "midi": 56,
                    "time": 214.60207399999976,
                    "velocity": 0.49606299212598426,
                    "duration": 0.20066770833335568
                },
                {
                    "name": "G3",
                    "midi": 55,
                    "time": 214.79471499999977,
                    "velocity": 0.3700787401574803,
                    "duration": 0.19264100000000894
                },
                {
                    "name": "F#3",
                    "midi": 54,
                    "time": 214.98735599999978,
                    "velocity": 0.3700787401574803,
                    "duration": 0.20066770833335568
                },
                {
                    "name": "G3",
                    "midi": 55,
                    "time": 215.1799969999998,
                    "velocity": 0.33070866141732286,
                    "duration": 0.19264100000000894
                },
                {
                    "name": "F#3",
                    "midi": 54,
                    "time": 215.3726379999998,
                    "velocity": 0.4645669291338583,
                    "duration": 0.20066770833335568
                },
                {
                    "name": "G3",
                    "midi": 55,
                    "time": 215.5652789999998,
                    "velocity": 0.41732283464566927,
                    "duration": 0.19264100000000894
                },
                {
                    "name": "G#3",
                    "midi": 56,
                    "time": 215.7579199999998,
                    "velocity": 0.5039370078740157,
                    "duration": 0.20066770833335568
                },
                {
                    "name": "G3",
                    "midi": 55,
                    "time": 215.95056099999982,
                    "velocity": 0.3228346456692913,
                    "duration": 0.19264100000000894
                },
                {
                    "name": "F#3",
                    "midi": 54,
                    "time": 216.23952249999982,
                    "velocity": 0.33070866141732286,
                    "duration": 0.09632049999999026
                },
                {
                    "name": "A3",
                    "midi": 57,
                    "time": 216.3358429999998,
                    "velocity": 0.3464566929133858,
                    "duration": 0.09632049999999026
                },
                {
                    "name": "C4",
                    "midi": 60,
                    "time": 216.4321634999998,
                    "velocity": 0.36220472440944884,
                    "duration": 0.09632049999999026
                },
                {
                    "name": "D4",
                    "midi": 62,
                    "time": 216.5284839999998,
                    "velocity": 0.3779527559055118,
                    "duration": 0.09632049999999026
                },
                {
                    "name": "G3",
                    "midi": 55,
                    "time": 218.4548939999998,
                    "velocity": 0.3464566929133858,
                    "duration": 0.20066770833335568
                },
                {
                    "name": "G#3",
                    "midi": 56,
                    "time": 218.6475349999998,
                    "velocity": 0.2992125984251969,
                    "duration": 0.19264100000000894
                },
                {
                    "name": "G3",
                    "midi": 55,
                    "time": 218.84017599999981,
                    "velocity": 0.4330708661417323,
                    "duration": 0.20066770833335568
                },
                {
                    "name": "G#3",
                    "midi": 56,
                    "time": 219.03281699999982,
                    "velocity": 0.4330708661417323,
                    "duration": 0.19264100000000894
                },
                {
                    "name": "A#3",
                    "midi": 58,
                    "time": 219.22545799999983,
                    "velocity": 0.49606299212598426,
                    "duration": 0.20066770833335568
                },
                {
                    "name": "G#3",
                    "midi": 56,
                    "time": 219.41809899999984,
                    "velocity": 0.3700787401574803,
                    "duration": 0.19264100000000894
                },
                {
                    "name": "G3",
                    "midi": 55,
                    "time": 219.61073999999985,
                    "velocity": 0.3700787401574803,
                    "duration": 0.20066770833335568
                },
                {
                    "name": "G#3",
                    "midi": 56,
                    "time": 219.80338099999986,
                    "velocity": 0.33070866141732286,
                    "duration": 0.19264100000000894
                },
                {
                    "name": "G3",
                    "midi": 55,
                    "time": 219.99602199999987,
                    "velocity": 0.4645669291338583,
                    "duration": 0.20066770833335568
                },
                {
                    "name": "G#3",
                    "midi": 56,
                    "time": 220.18866299999988,
                    "velocity": 0.41732283464566927,
                    "duration": 0.19264100000000894
                },
                {
                    "name": "A#3",
                    "midi": 58,
                    "time": 220.3813039999999,
                    "velocity": 0.5039370078740157,
                    "duration": 0.20066770833335568
                },
                {
                    "name": "G#3",
                    "midi": 56,
                    "time": 220.5739449999999,
                    "velocity": 0.3228346456692913,
                    "duration": 0.19264100000000894
                },
                {
                    "name": "G3",
                    "midi": 55,
                    "time": 220.8629064999999,
                    "velocity": 0.33070866141732286,
                    "duration": 0.09632049999999026
                },
                {
                    "name": "B3",
                    "midi": 59,
                    "time": 220.95922699999988,
                    "velocity": 0.3464566929133858,
                    "duration": 0.09632049999999026
                },
                {
                    "name": "D4",
                    "midi": 62,
                    "time": 221.05554749999988,
                    "velocity": 0.36220472440944884,
                    "duration": 0.09632049999999026
                },
                {
                    "name": "F4",
                    "midi": 65,
                    "time": 221.15186799999987,
                    "velocity": 0.3779527559055118,
                    "duration": 0.09632049999999026
                },
                {
                    "name": "C4",
                    "midi": 60,
                    "time": 223.07827799999987,
                    "velocity": 0.3464566929133858,
                    "duration": 0.20066770833335568
                },
                {
                    "name": "B3",
                    "midi": 59,
                    "time": 223.27091899999988,
                    "velocity": 0.2992125984251969,
                    "duration": 0.19264100000000894
                },
                {
                    "name": "C4",
                    "midi": 60,
                    "time": 223.4635599999999,
                    "velocity": 0.3543307086614173,
                    "duration": 0.20066770833335568
                },
                {
                    "name": "C#4",
                    "midi": 61,
                    "time": 223.6562009999999,
                    "velocity": 0.4251968503937008,
                    "duration": 0.19264100000000894
                },
                {
                    "name": "C4",
                    "midi": 60,
                    "time": 223.8488419999999,
                    "velocity": 0.3858267716535433,
                    "duration": 0.20066770833335568
                },
                {
                    "name": "B3",
                    "midi": 59,
                    "time": 224.04148299999991,
                    "velocity": 0.3464566929133858,
                    "duration": 0.19264100000000894
                },
                {
                    "name": "C4",
                    "midi": 60,
                    "time": 224.23412399999992,
                    "velocity": 0.3700787401574803,
                    "duration": 0.20066770833335568
                },
                {
                    "name": "B3",
                    "midi": 59,
                    "time": 224.42676499999993,
                    "velocity": 0.33070866141732286,
                    "duration": 0.19264100000000894
                },
                {
                    "name": "C4",
                    "midi": 60,
                    "time": 224.61940599999994,
                    "velocity": 0.3779527559055118,
                    "duration": 0.20066770833335568
                },
                {
                    "name": "C#4",
                    "midi": 61,
                    "time": 224.81204699999995,
                    "velocity": 0.4015748031496063,
                    "duration": 0.19264100000000894
                },
                {
                    "name": "C4",
                    "midi": 60,
                    "time": 225.00468799999996,
                    "velocity": 0.36220472440944884,
                    "duration": 0.20066770833335568
                },
                {
                    "name": "B3",
                    "midi": 59,
                    "time": 225.19732899999997,
                    "velocity": 0.3228346456692913,
                    "duration": 0.19264100000000894
                },
                {
                    "name": "C3",
                    "midi": 48,
                    "time": 225.48629049999997,
                    "velocity": 0.33070866141732286,
                    "duration": 0.09632049999999026
                },
                {
                    "name": "E3",
                    "midi": 52,
                    "time": 225.58261099999996,
                    "velocity": 0.3464566929133858,
                    "duration": 0.09632049999999026
                },
                {
                    "name": "G3",
                    "midi": 55,
                    "time": 225.67893149999995,
                    "velocity": 0.36220472440944884,
                    "duration": 0.09632049999999026
                },
                {
                    "name": "A#3",
                    "midi": 58,
                    "time": 225.77525199999994,
                    "velocity": 0.3779527559055118,
                    "duration": 0.09632049999999026
                },
                {
                    "name": "A3",
                    "midi": 57,
                    "time": 227.70166199999994,
                    "velocity": 0.3464566929133858,
                    "duration": 0.20066770833335568
                },
                {
                    "name": "A#3",
                    "midi": 58,
                    "time": 227.89430299999995,
                    "velocity": 0.2992125984251969,
                    "duration": 0.19264100000000894
                },
                {
                    "name": "A3",
                    "midi": 57,
                    "time": 228.08694399999996,
                    "velocity": 0.4330708661417323,
                    "duration": 0.20066770833335568
                },
                {
                    "name": "A#3",
                    "midi": 58,
                    "time": 228.27958499999997,
                    "velocity": 0.4330708661417323,
                    "duration": 0.19264100000000894
                },
                {
                    "name": "B3",
                    "midi": 59,
                    "time": 228.47222599999998,
                    "velocity": 0.49606299212598426,
                    "duration": 0.20066770833335568
                },
                {
                    "name": "A#3",
                    "midi": 58,
                    "time": 228.664867,
                    "velocity": 0.3700787401574803,
                    "duration": 0.19264100000000894
                },
                {
                    "name": "A3",
                    "midi": 57,
                    "time": 228.857508,
                    "velocity": 0.3700787401574803,
                    "duration": 0.20066770833335568
                },
                {
                    "name": "A#3",
                    "midi": 58,
                    "time": 229.050149,
                    "velocity": 0.33070866141732286,
                    "duration": 0.19264100000000894
                },
                {
                    "name": "A3",
                    "midi": 57,
                    "time": 229.24279,
                    "velocity": 0.4645669291338583,
                    "duration": 0.20066770833335568
                },
                {
                    "name": "A#3",
                    "midi": 58,
                    "time": 229.43543100000002,
                    "velocity": 0.41732283464566927,
                    "duration": 0.19264100000000894
                },
                {
                    "name": "B3",
                    "midi": 59,
                    "time": 229.62807200000003,
                    "velocity": 0.5039370078740157,
                    "duration": 0.20066770833335568
                },
                {
                    "name": "A#3",
                    "midi": 58,
                    "time": 229.82071300000004,
                    "velocity": 0.3228346456692913,
                    "duration": 0.19264100000000894
                },
                {
                    "name": "A3",
                    "midi": 57,
                    "time": 230.10967450000004,
                    "velocity": 0.33070866141732286,
                    "duration": 0.09632049999999026
                },
                {
                    "name": "C4",
                    "midi": 60,
                    "time": 230.20599500000003,
                    "velocity": 0.3464566929133858,
                    "duration": 0.09632049999999026
                },
                {
                    "name": "D#4",
                    "midi": 63,
                    "time": 230.30231550000002,
                    "velocity": 0.36220472440944884,
                    "duration": 0.09632049999999026
                },
                {
                    "name": "F4",
                    "midi": 65,
                    "time": 230.398636,
                    "velocity": 0.3779527559055118,
                    "duration": 0.09632049999999026
                },
                {
                    "name": "A#3",
                    "midi": 58,
                    "time": 232.32504600000001,
                    "velocity": 0.2283464566929134,
                    "duration": 0.19264100000000894
                },
                {
                    "name": "D4",
                    "midi": 62,
                    "time": 232.51768700000002,
                    "velocity": 0.1968503937007874,
                    "duration": 0.19264100000000894
                },
                {
                    "name": "F4",
                    "midi": 65,
                    "time": 232.71032800000003,
                    "velocity": 0.1968503937007874,
                    "duration": 0.19264100000000894
                },
                {
                    "name": "A3",
                    "midi": 57,
                    "time": 232.90296900000004,
                    "velocity": 0.23622047244094488,
                    "duration": 0.19264100000000894
                },
                {
                    "name": "C4",
                    "midi": 60,
                    "time": 233.09561000000005,
                    "velocity": 0.2047244094488189,
                    "duration": 0.19264100000000894
                },
                {
                    "name": "F4",
                    "midi": 65,
                    "time": 233.28825100000006,
                    "velocity": 0.2047244094488189,
                    "duration": 0.19264100000000894
                },
                {
                    "name": "G3",
                    "midi": 55,
                    "time": 233.48089200000007,
                    "velocity": 0.23622047244094488,
                    "duration": 0.19264100000000894
                },
                {
                    "name": "A#3",
                    "midi": 58,
                    "time": 233.67353300000008,
                    "velocity": 0.2125984251968504,
                    "duration": 0.19264100000000894
                },
                {
                    "name": "D#4",
                    "midi": 63,
                    "time": 233.8661740000001,
                    "velocity": 0.2125984251968504,
                    "duration": 0.19264100000000894
                },
                {
                    "name": "F#3",
                    "midi": 54,
                    "time": 234.0588150000001,
                    "velocity": 0.2283464566929134,
                    "duration": 0.19264100000000894
                },
                {
                    "name": "A3",
                    "midi": 57,
                    "time": 234.2514560000001,
                    "velocity": 0.1968503937007874,
                    "duration": 0.19264100000000894
                },
                {
                    "name": "D4",
                    "midi": 62,
                    "time": 234.4440970000001,
                    "velocity": 0.1968503937007874,
                    "duration": 0.19264100000000894
                },
                {
                    "name": "G3",
                    "midi": 55,
                    "time": 234.63673800000012,
                    "velocity": 0.25196850393700787,
                    "duration": 0.19264100000000894
                },
                {
                    "name": "A#3",
                    "midi": 58,
                    "time": 234.82937900000013,
                    "velocity": 0.1968503937007874,
                    "duration": 0.19264100000000894
                },
                {
                    "name": "D#4",
                    "midi": 63,
                    "time": 235.02202000000014,
                    "velocity": 0.1968503937007874,
                    "duration": 0.19264100000000894
                },
                {
                    "name": "F3",
                    "midi": 53,
                    "time": 235.21466100000015,
                    "velocity": 0.2440944881889764,
                    "duration": 0.19264100000000894
                },
                {
                    "name": "A3",
                    "midi": 57,
                    "time": 235.40730200000016,
                    "velocity": 0.2125984251968504,
                    "duration": 0.19264100000000894
                },
                {
                    "name": "D4",
                    "midi": 62,
                    "time": 235.59994300000017,
                    "velocity": 0.2125984251968504,
                    "duration": 0.19264100000000894
                },
                {
                    "name": "D#3",
                    "midi": 51,
                    "time": 235.79258400000018,
                    "velocity": 0.29133858267716534,
                    "duration": 0.19264100000000894
                },
                {
                    "name": "G3",
                    "midi": 55,
                    "time": 235.98522500000018,
                    "velocity": 0.25196850393700787,
                    "duration": 0.19264100000000894
                },
                {
                    "name": "C4",
                    "midi": 60,
                    "time": 236.1778660000002,
                    "velocity": 0.25196850393700787,
                    "duration": 0.19264100000000894
                },
                {
                    "name": "D3",
                    "midi": 50,
                    "time": 236.3705070000002,
                    "velocity": 0.2677165354330709,
                    "duration": 0.19264100000000894
                },
                {
                    "name": "F3",
                    "midi": 53,
                    "time": 236.5631480000002,
                    "velocity": 0.2204724409448819,
                    "duration": 0.19264100000000894
                },
                {
                    "name": "A#3",
                    "midi": 58,
                    "time": 236.75578900000022,
                    "velocity": 0.1889763779527559,
                    "duration": 0.19264100000000894
                },
                {
                    "name": "C3",
                    "midi": 48,
                    "time": 236.94843000000023,
                    "velocity": 0.25196850393700787,
                    "duration": 0.19264100000000894
                },
                {
                    "name": "G3",
                    "midi": 55,
                    "time": 237.14107100000024,
                    "velocity": 0.2125984251968504,
                    "duration": 0.19264100000000894
                },
                {
                    "name": "A#3",
                    "midi": 58,
                    "time": 237.33371200000025,
                    "velocity": 0.2125984251968504,
                    "duration": 0.19264100000000894
                },
                {
                    "name": "F3",
                    "midi": 53,
                    "time": 237.52635300000026,
                    "velocity": 0.25984251968503935,
                    "duration": 0.19264100000000894
                },
                {
                    "name": "A3",
                    "midi": 57,
                    "time": 237.71899400000027,
                    "velocity": 0.2283464566929134,
                    "duration": 0.19264100000000894
                },
                {
                    "name": "C4",
                    "midi": 60,
                    "time": 237.91163500000027,
                    "velocity": 0.2283464566929134,
                    "duration": 0.19264100000000894
                },
                {
                    "name": "A#2",
                    "midi": 46,
                    "time": 238.10427600000028,
                    "velocity": 0.28346456692913385,
                    "duration": 0.19264100000000894
                },
                {
                    "name": "F3",
                    "midi": 53,
                    "time": 238.2969170000003,
                    "velocity": 0.2440944881889764,
                    "duration": 0.19264100000000894
                },
                {
                    "name": "A#3",
                    "midi": 58,
                    "time": 238.4895580000003,
                    "velocity": 0.2283464566929134,
                    "duration": 0.19264100000000894
                },
                {
                    "name": "F#3",
                    "midi": 54,
                    "time": 238.6821990000003,
                    "velocity": 0.25984251968503935,
                    "duration": 0.19264100000000894
                },
                {
                    "name": "A#3",
                    "midi": 58,
                    "time": 238.87484000000032,
                    "velocity": 0.25984251968503935,
                    "duration": 0.19264100000000894
                },
                {
                    "name": "C#4",
                    "midi": 61,
                    "time": 239.06748100000033,
                    "velocity": 0.25984251968503935,
                    "duration": 0.19264100000000894
                },
                {
                    "name": "D#3",
                    "midi": 51,
                    "time": 239.26012200000034,
                    "velocity": 0.30708661417322836,
                    "duration": 0.19264100000000894
                },
                {
                    "name": "F#3",
                    "midi": 54,
                    "time": 239.45276300000035,
                    "velocity": 0.2755905511811024,
                    "duration": 0.19264100000000894
                },
                {
                    "name": "A#3",
                    "midi": 58,
                    "time": 239.64540400000035,
                    "velocity": 0.28346456692913385,
                    "duration": 0.19264100000000894
                },
                {
                    "name": "E3",
                    "midi": 52,
                    "time": 239.83804500000036,
                    "velocity": 0.3543307086614173,
                    "duration": 0.19264100000000894
                },
                {
                    "name": "G3",
                    "midi": 55,
                    "time": 240.03068600000037,
                    "velocity": 0.2992125984251969,
                    "duration": 0.19264100000000894
                },
                {
                    "name": "C#4",
                    "midi": 61,
                    "time": 240.22332700000038,
                    "velocity": 0.30708661417322836,
                    "duration": 0.19264100000000894
                },
                {
                    "name": "F3",
                    "midi": 53,
                    "time": 240.4159680000004,
                    "velocity": 0.3700787401574803,
                    "duration": 0.19264100000000894
                },
                {
                    "name": "A3",
                    "midi": 57,
                    "time": 240.6086090000004,
                    "velocity": 0.31496062992125984,
                    "duration": 0.19264100000000894
                },
                {
                    "name": "C4",
                    "midi": 60,
                    "time": 240.8012500000004,
                    "velocity": 0.31496062992125984,
                    "duration": 0.19264100000000894
                },
                {
                    "name": "F3",
                    "midi": 53,
                    "time": 240.99389100000042,
                    "velocity": 0.3779527559055118,
                    "duration": 0.19264100000000894
                },
                {
                    "name": "D#3",
                    "midi": 51,
                    "time": 241.18653200000043,
                    "velocity": 0.33070866141732286,
                    "duration": 0.19264100000000894
                },
                {
                    "name": "C3",
                    "midi": 48,
                    "time": 241.37917300000043,
                    "velocity": 0.33858267716535434,
                    "duration": 0.19264100000000894
                },
                {
                    "name": "A#3",
                    "midi": 58,
                    "time": 241.57181400000044,
                    "velocity": 0.4566929133858268,
                    "duration": 0.38528199999998947
                },
                {
                    "name": "A#2",
                    "midi": 46,
                    "time": 241.57181400000044,
                    "velocity": 0.3858267716535433,
                    "duration": 0.38528199999998947
                },
                {
                    "name": "A2",
                    "midi": 45,
                    "time": 242.14973700000044,
                    "velocity": 0.3858267716535433,
                    "duration": 0.38528199999998947
                },
                {
                    "name": "A3",
                    "midi": 57,
                    "time": 242.14973700000044,
                    "velocity": 0.4566929133858268,
                    "duration": 0.38528199999998947
                },
                {
                    "name": "G2",
                    "midi": 43,
                    "time": 242.72766000000044,
                    "velocity": 0.3858267716535433,
                    "duration": 0.9632049999999879
                },
                {
                    "name": "G3",
                    "midi": 55,
                    "time": 242.72766000000044,
                    "velocity": 0.4566929133858268,
                    "duration": 0.9632049999999879
                },
                {
                    "name": "F#3",
                    "midi": 54,
                    "time": 243.69086500000043,
                    "velocity": 0.44881889763779526,
                    "duration": 0.19264100000000894
                },
                {
                    "name": "F#2",
                    "midi": 42,
                    "time": 243.69086500000043,
                    "velocity": 0.3779527559055118,
                    "duration": 0.19264100000000894
                },
                {
                    "name": "G3",
                    "midi": 55,
                    "time": 243.88350600000044,
                    "velocity": 0.44881889763779526,
                    "duration": 0.38528199999998947
                },
                {
                    "name": "G2",
                    "midi": 43,
                    "time": 243.88350600000044,
                    "velocity": 0.3779527559055118,
                    "duration": 0.38528199999998947
                },
                {
                    "name": "F2",
                    "midi": 41,
                    "time": 244.46142900000044,
                    "velocity": 0.3779527559055118,
                    "duration": 0.38528199999998947
                },
                {
                    "name": "F3",
                    "midi": 53,
                    "time": 244.46142900000044,
                    "velocity": 0.44881889763779526,
                    "duration": 0.38528199999998947
                },
                {
                    "name": "D#3",
                    "midi": 51,
                    "time": 245.03935200000043,
                    "velocity": 0.3700787401574803,
                    "duration": 0.9632049999999879
                },
                {
                    "name": "D#2",
                    "midi": 39,
                    "time": 245.03935200000043,
                    "velocity": 0.30708661417322836,
                    "duration": 0.9632049999999879
                },
                {
                    "name": "D2",
                    "midi": 38,
                    "time": 246.00255700000042,
                    "velocity": 0.2755905511811024,
                    "duration": 0.19264100000000894
                },
                {
                    "name": "D3",
                    "midi": 50,
                    "time": 246.00255700000042,
                    "velocity": 0.33070866141732286,
                    "duration": 0.19264100000000894
                },
                {
                    "name": "C3",
                    "midi": 48,
                    "time": 246.19519800000043,
                    "velocity": 0.4015748031496063,
                    "duration": 0.09632049999999026
                },
                {
                    "name": "G3",
                    "midi": 55,
                    "time": 246.29151850000042,
                    "velocity": 0.3464566929133858,
                    "duration": 0.09632049999999026
                },
                {
                    "name": "A#3",
                    "midi": 58,
                    "time": 246.3878390000004,
                    "velocity": 0.3464566929133858,
                    "duration": 0.09632049999999026
                },
                {
                    "name": "F#3",
                    "midi": 54,
                    "time": 246.7731210000004,
                    "velocity": 0.4015748031496063,
                    "duration": 0.09632049999999026
                },
                {
                    "name": "A3",
                    "midi": 57,
                    "time": 246.8694415000004,
                    "velocity": 0.33070866141732286,
                    "duration": 0.09632049999999026
                },
                {
                    "name": "C4",
                    "midi": 60,
                    "time": 246.96576200000038,
                    "velocity": 0.3464566929133858,
                    "duration": 0.09632049999999026
                },
                {
                    "name": "G3",
                    "midi": 55,
                    "time": 247.35104400000037,
                    "velocity": 0.4015748031496063,
                    "duration": 0.09632049999999026
                },
                {
                    "name": "A#3",
                    "midi": 58,
                    "time": 247.44736450000036,
                    "velocity": 0.33070866141732286,
                    "duration": 0.09632049999999026
                },
                {
                    "name": "D4",
                    "midi": 62,
                    "time": 247.54368500000035,
                    "velocity": 0.33070866141732286,
                    "duration": 0.09632049999999026
                },
                {
                    "name": "D#3",
                    "midi": 51,
                    "time": 247.92896700000034,
                    "velocity": 0.44881889763779526,
                    "duration": 0.09632049999999026
                },
                {
                    "name": "G3",
                    "midi": 55,
                    "time": 248.02528750000033,
                    "velocity": 0.3858267716535433,
                    "duration": 0.09632049999999026
                },
                {
                    "name": "C4",
                    "midi": 60,
                    "time": 248.12160800000032,
                    "velocity": 0.3858267716535433,
                    "duration": 0.09632049999999026
                },
                {
                    "name": "F2",
                    "midi": 41,
                    "time": 248.5068900000003,
                    "velocity": 0.49606299212598426,
                    "duration": 0.09632049999999026
                },
                {
                    "name": "D3",
                    "midi": 50,
                    "time": 248.6032105000003,
                    "velocity": 0.4409448818897638,
                    "duration": 0.09632049999999026
                },
                {
                    "name": "F3",
                    "midi": 53,
                    "time": 248.6995310000003,
                    "velocity": 0.4409448818897638,
                    "duration": 0.09632049999999026
                },
                {
                    "name": "F2",
                    "midi": 41,
                    "time": 249.08481300000028,
                    "velocity": 0.5511811023622047,
                    "duration": 0.09632049999999026
                },
                {
                    "name": "C3",
                    "midi": 48,
                    "time": 249.18113350000027,
                    "velocity": 0.48031496062992124,
                    "duration": 0.09632049999999026
                },
                {
                    "name": "F3",
                    "midi": 53,
                    "time": 249.27745400000026,
                    "velocity": 0.48031496062992124,
                    "duration": 0.09632049999999026
                },
                {
                    "name": "A#1",
                    "midi": 34,
                    "time": 249.66273600000025,
                    "velocity": 0.5669291338582677,
                    "duration": 0.7705640000000074
                },
                {
                    "name": "D2",
                    "midi": 38,
                    "time": 250.43330000000026,
                    "velocity": 0.33070866141732286,
                    "duration": 0.19264100000000894
                },
                {
                    "name": "F2",
                    "midi": 41,
                    "time": 250.62594100000027,
                    "velocity": 0.3464566929133858,
                    "duration": 0.19264100000000894
                },
                {
                    "name": "A#2",
                    "midi": 46,
                    "time": 250.81858200000028,
                    "velocity": 0.36220472440944884,
                    "duration": 1.1558460000000252
                },
                {
                    "name": "D3",
                    "midi": 50,
                    "time": 251.01122300000029,
                    "velocity": 0.3779527559055118,
                    "duration": 0.19264100000000894
                },
                {
                    "name": "F3",
                    "midi": 53,
                    "time": 251.2038640000003,
                    "velocity": 0.3937007874015748,
                    "duration": 0.19264100000000894
                },
                {
                    "name": "A#3",
                    "midi": 58,
                    "time": 251.3965050000003,
                    "velocity": 0.4094488188976378,
                    "duration": 0.19264100000000894
                },
                {
                    "name": "A2",
                    "midi": 45,
                    "time": 251.9744280000003,
                    "velocity": 0.3543307086614173,
                    "duration": 2.3116919999999936
                },
                {
                    "name": "C3",
                    "midi": 48,
                    "time": 251.9744280000003,
                    "velocity": 0.3543307086614173,
                    "duration": 2.3116919999999936
                },
                {
                    "name": "D#3",
                    "midi": 51,
                    "time": 251.9744280000003,
                    "velocity": 0.3543307086614173,
                    "duration": 1.1558459999999968
                },
                {
                    "name": "F#3",
                    "midi": 54,
                    "time": 253.1302740000003,
                    "velocity": 0.3543307086614173,
                    "duration": 1.1558459999999968
                },
                {
                    "name": "G3",
                    "midi": 55,
                    "time": 254.2861200000003,
                    "velocity": 0.3543307086614173,
                    "duration": 2.311692000000022
                },
                {
                    "name": "D3",
                    "midi": 50,
                    "time": 254.2861200000003,
                    "velocity": 0.3543307086614173,
                    "duration": 2.311692000000022
                },
                {
                    "name": "A#2",
                    "midi": 46,
                    "time": 254.2861200000003,
                    "velocity": 0.3543307086614173,
                    "duration": 2.311692000000022
                },
                {
                    "name": "C#4",
                    "midi": 61,
                    "time": 256.5978120000003,
                    "velocity": 0.25984251968503935,
                    "duration": 0.3852820000000179
                },
                {
                    "name": "A#3",
                    "midi": 58,
                    "time": 256.5978120000003,
                    "velocity": 0.2047244094488189,
                    "duration": 0.3852820000000179
                },
                {
                    "name": "C#4",
                    "midi": 61,
                    "time": 257.1757350000003,
                    "velocity": 0.25984251968503935,
                    "duration": 0.3852820000000179
                },
                {
                    "name": "A#3",
                    "midi": 58,
                    "time": 257.1757350000003,
                    "velocity": 0.2047244094488189,
                    "duration": 0.3852820000000179
                },
                {
                    "name": "A#3",
                    "midi": 58,
                    "time": 257.7536580000003,
                    "velocity": 0.2047244094488189,
                    "duration": 0.3852820000000179
                },
                {
                    "name": "C4",
                    "midi": 60,
                    "time": 257.7536580000003,
                    "velocity": 0.25984251968503935,
                    "duration": 0.3852820000000179
                },
                {
                    "name": "C4",
                    "midi": 60,
                    "time": 258.3315810000003,
                    "velocity": 0.25984251968503935,
                    "duration": 0.3852820000000179
                },
                {
                    "name": "A#3",
                    "midi": 58,
                    "time": 258.3315810000003,
                    "velocity": 0.2047244094488189,
                    "duration": 0.3852820000000179
                },
                {
                    "name": "G#2",
                    "midi": 44,
                    "time": 258.9095040000003,
                    "velocity": 0.3937007874015748,
                    "duration": 2.3116919999999936
                },
                {
                    "name": "G#3",
                    "midi": 56,
                    "time": 258.9095040000003,
                    "velocity": 0.47244094488188976,
                    "duration": 2.3116919999999936
                },
                {
                    "name": "D4",
                    "midi": 62,
                    "time": 261.2211960000003,
                    "velocity": 0.3543307086614173,
                    "duration": 1.1558459999998831
                },
                {
                    "name": "E4",
                    "midi": 64,
                    "time": 261.4138370000003,
                    "velocity": 0.3228346456692913,
                    "duration": 0.19264099999998052
                },
                {
                    "name": "F4",
                    "midi": 65,
                    "time": 261.60647800000027,
                    "velocity": 0.3228346456692913,
                    "duration": 0.19264099999998052
                },
                {
                    "name": "G#4",
                    "midi": 68,
                    "time": 261.79911900000025,
                    "velocity": 0.3543307086614173,
                    "duration": 0.19264099999998052
                },
                {
                    "name": "E4",
                    "midi": 64,
                    "time": 261.9917600000002,
                    "velocity": 0.3228346456692913,
                    "duration": 0.19264099999998052
                },
                {
                    "name": "F4",
                    "midi": 65,
                    "time": 262.1844010000002,
                    "velocity": 0.3228346456692913,
                    "duration": 0.19264099999998052
                },
                {
                    "name": "C#4",
                    "midi": 61,
                    "time": 262.3770420000002,
                    "velocity": 0.3543307086614173,
                    "duration": 1.1558459999998831
                },
                {
                    "name": "G#4",
                    "midi": 68,
                    "time": 262.3770420000002,
                    "velocity": 0.4251968503937008,
                    "duration": 0.19264099999998052
                },
                {
                    "name": "E4",
                    "midi": 64,
                    "time": 262.56968300000017,
                    "velocity": 0.33070866141732286,
                    "duration": 0.19264099999998052
                },
                {
                    "name": "F4",
                    "midi": 65,
                    "time": 262.76232400000015,
                    "velocity": 0.33070866141732286,
                    "duration": 0.19264099999998052
                },
                {
                    "name": "G#4",
                    "midi": 68,
                    "time": 262.95496500000013,
                    "velocity": 0.4094488188976378,
                    "duration": 0.19264099999998052
                },
                {
                    "name": "G4",
                    "midi": 67,
                    "time": 263.1476060000001,
                    "velocity": 0.3700787401574803,
                    "duration": 0.19264099999998052
                },
                {
                    "name": "F4",
                    "midi": 65,
                    "time": 263.3402470000001,
                    "velocity": 0.4094488188976378,
                    "duration": 0.19264099999998052
                },
                {
                    "name": "C3",
                    "midi": 48,
                    "time": 263.53288800000007,
                    "velocity": 0.3858267716535433,
                    "duration": 0.3852820000000179
                },
                {
                    "name": "C4",
                    "midi": 60,
                    "time": 263.53288800000007,
                    "velocity": 0.4566929133858268,
                    "duration": 0.3852820000000179
                },
                {
                    "name": "C4",
                    "midi": 60,
                    "time": 264.11081100000007,
                    "velocity": 0.4566929133858268,
                    "duration": 0.3852820000000179
                },
                {
                    "name": "C3",
                    "midi": 48,
                    "time": 264.11081100000007,
                    "velocity": 0.3858267716535433,
                    "duration": 0.3852820000000179
                },
                {
                    "name": "C3",
                    "midi": 48,
                    "time": 264.68873400000007,
                    "velocity": 0.3858267716535433,
                    "duration": 0.3852820000000179
                },
                {
                    "name": "C4",
                    "midi": 60,
                    "time": 264.68873400000007,
                    "velocity": 0.44881889763779526,
                    "duration": 0.3852820000000179
                },
                {
                    "name": "C4",
                    "midi": 60,
                    "time": 265.26665700000007,
                    "velocity": 0.44881889763779526,
                    "duration": 0.3852820000000179
                },
                {
                    "name": "C3",
                    "midi": 48,
                    "time": 265.26665700000007,
                    "velocity": 0.3858267716535433,
                    "duration": 0.3852820000000179
                },
                {
                    "name": "C3",
                    "midi": 48,
                    "time": 265.84458000000006,
                    "velocity": 0.3858267716535433,
                    "duration": 0.3852820000000179
                },
                {
                    "name": "C4",
                    "midi": 60,
                    "time": 265.84458000000006,
                    "velocity": 0.44881889763779526,
                    "duration": 0.3852820000000179
                },
                {
                    "name": "C4",
                    "midi": 60,
                    "time": 266.42250300000006,
                    "velocity": 0.4409448818897638,
                    "duration": 0.3852820000000179
                },
                {
                    "name": "C3",
                    "midi": 48,
                    "time": 266.42250300000006,
                    "velocity": 0.3779527559055118,
                    "duration": 0.3852820000000179
                },
                {
                    "name": "C2",
                    "midi": 36,
                    "time": 267.00042600000006,
                    "velocity": 0.5669291338582677,
                    "duration": 0.09632049999999026
                },
                {
                    "name": "E2",
                    "midi": 40,
                    "time": 267.19306700000004,
                    "velocity": 0.47244094488188976,
                    "duration": 0.09632049999999026
                },
                {
                    "name": "G2",
                    "midi": 43,
                    "time": 267.385708,
                    "velocity": 0.47244094488188976,
                    "duration": 0.09632049999999026
                },
                {
                    "name": "C3",
                    "midi": 48,
                    "time": 267.578349,
                    "velocity": 0.5433070866141733,
                    "duration": 0.09632049999999026
                },
                {
                    "name": "E3",
                    "midi": 52,
                    "time": 267.77099,
                    "velocity": 0.47244094488188976,
                    "duration": 0.09632049999999026
                },
                {
                    "name": "G3",
                    "midi": 55,
                    "time": 267.96363099999996,
                    "velocity": 0.47244094488188976,
                    "duration": 0.09632049999999026
                },
                {
                    "name": "C4",
                    "midi": 60,
                    "time": 268.15627199999994,
                    "velocity": 0.5433070866141733,
                    "duration": 0.19264099999998052
                },
                {
                    "name": "C4",
                    "midi": 60,
                    "time": 271.62380999999993,
                    "velocity": 0.4645669291338583,
                    "duration": 0.1059525499999836
                },
                {
                    "name": "C#4",
                    "midi": 61,
                    "time": 271.7201304999999,
                    "velocity": 0.47244094488188976,
                    "duration": 0.1059525499999836
                },
                {
                    "name": "D4",
                    "midi": 62,
                    "time": 271.8164509999999,
                    "velocity": 0.4881889763779528,
                    "duration": 0.1059525499999836
                },
                {
                    "name": "C4",
                    "midi": 60,
                    "time": 271.9127714999999,
                    "velocity": 0.49606299212598426,
                    "duration": 0.1059525499999836
                },
                {
                    "name": "A#3",
                    "midi": 58,
                    "time": 272.0090919999999,
                    "velocity": 0.4881889763779528,
                    "duration": 0.1059525499999836
                },
                {
                    "name": "A3",
                    "midi": 57,
                    "time": 272.1054124999999,
                    "velocity": 0.47244094488188976,
                    "duration": 0.1059525499999836
                },
                {
                    "name": "G3",
                    "midi": 55,
                    "time": 272.2017329999999,
                    "velocity": 0.4645669291338583,
                    "duration": 0.1059525499999836
                },
                {
                    "name": "A3",
                    "midi": 57,
                    "time": 272.29805349999987,
                    "velocity": 0.48031496062992124,
                    "duration": 0.1059525499999836
                },
                {
                    "name": "A#3",
                    "midi": 58,
                    "time": 272.39437399999986,
                    "velocity": 0.4881889763779528,
                    "duration": 0.1059525499999836
                },
                {
                    "name": "A3",
                    "midi": 57,
                    "time": 272.49069449999985,
                    "velocity": 0.48031496062992124,
                    "duration": 0.1059525499999836
                },
                {
                    "name": "G3",
                    "midi": 55,
                    "time": 272.58701499999984,
                    "velocity": 0.4645669291338583,
                    "duration": 0.1059525499999836
                },
                {
                    "name": "F3",
                    "midi": 53,
                    "time": 272.6833354999998,
                    "velocity": 0.44881889763779526,
                    "duration": 0.1059525499999836
                },
                {
                    "name": "E3",
                    "midi": 52,
                    "time": 272.7796559999998,
                    "velocity": 0.4566929133858268,
                    "duration": 0.1059525499999836
                },
                {
                    "name": "F3",
                    "midi": 53,
                    "time": 272.8759764999998,
                    "velocity": 0.47244094488188976,
                    "duration": 0.1059525499999836
                },
                {
                    "name": "G3",
                    "midi": 55,
                    "time": 272.9722969999998,
                    "velocity": 0.4881889763779528,
                    "duration": 0.1059525499999836
                },
                {
                    "name": "F3",
                    "midi": 53,
                    "time": 273.0686174999998,
                    "velocity": 0.48031496062992124,
                    "duration": 0.1059525499999836
                },
                {
                    "name": "E3",
                    "midi": 52,
                    "time": 273.1649379999998,
                    "velocity": 0.48031496062992124,
                    "duration": 0.1059525499999836
                },
                {
                    "name": "D3",
                    "midi": 50,
                    "time": 273.26125849999977,
                    "velocity": 0.47244094488188976,
                    "duration": 0.1059525499999836
                },
                {
                    "name": "C3",
                    "midi": 48,
                    "time": 273.35757899999976,
                    "velocity": 0.4645669291338583,
                    "duration": 0.1059525499999836
                },
                {
                    "name": "D3",
                    "midi": 50,
                    "time": 273.45389949999975,
                    "velocity": 0.47244094488188976,
                    "duration": 0.1059525499999836
                },
                {
                    "name": "C3",
                    "midi": 48,
                    "time": 273.55021999999974,
                    "velocity": 0.48031496062992124,
                    "duration": 0.1059525499999836
                },
                {
                    "name": "A#2",
                    "midi": 46,
                    "time": 273.64654049999973,
                    "velocity": 0.48031496062992124,
                    "duration": 0.1059525499999836
                },
                {
                    "name": "A2",
                    "midi": 45,
                    "time": 273.7428609999997,
                    "velocity": 0.47244094488188976,
                    "duration": 0.1059525499999836
                },
                {
                    "name": "G2",
                    "midi": 43,
                    "time": 273.8391814999997,
                    "velocity": 0.4566929133858268,
                    "duration": 0.09632049999999026
                },
                {
                    "name": "F3",
                    "midi": 53,
                    "time": 273.9355019999997,
                    "velocity": 0.5511811023622047,
                    "duration": 0.3852820000000179
                },
                {
                    "name": "A2",
                    "midi": 45,
                    "time": 273.9355019999997,
                    "velocity": 0.4645669291338583,
                    "duration": 0.3852820000000179
                },
                {
                    "name": "C3",
                    "midi": 48,
                    "time": 273.9355019999997,
                    "velocity": 0.4645669291338583,
                    "duration": 0.3852820000000179
                },
                {
                    "name": "F2",
                    "midi": 41,
                    "time": 273.9355019999997,
                    "velocity": 0.4645669291338583,
                    "duration": 0.3852820000000179
                },
                {
                    "name": "A3",
                    "midi": 57,
                    "time": 276.8251169999997,
                    "velocity": 0.5511811023622047,
                    "duration": 0.09632049999999026
                },
                {
                    "name": "G3",
                    "midi": 55,
                    "time": 277.0177579999997,
                    "velocity": 0.5196850393700787,
                    "duration": 0.09632049999999026
                },
                {
                    "name": "A3",
                    "midi": 57,
                    "time": 277.21039899999965,
                    "velocity": 0.5196850393700787,
                    "duration": 0.09632049999999026
                },
                {
                    "name": "A#3",
                    "midi": 58,
                    "time": 277.40303999999963,
                    "velocity": 0.5511811023622047,
                    "duration": 0.09632049999999026
                },
                {
                    "name": "A3",
                    "midi": 57,
                    "time": 277.5956809999996,
                    "velocity": 0.5275590551181102,
                    "duration": 0.09632049999999026
                },
                {
                    "name": "A#3",
                    "midi": 58,
                    "time": 277.7883219999996,
                    "velocity": 0.5275590551181102,
                    "duration": 0.09632049999999026
                },
                {
                    "name": "C4",
                    "midi": 60,
                    "time": 277.9809629999996,
                    "velocity": 0.5511811023622047,
                    "duration": 0.09632049999999026
                },
                {
                    "name": "A#3",
                    "midi": 58,
                    "time": 278.17360399999956,
                    "velocity": 0.5275590551181102,
                    "duration": 0.09632049999999026
                },
                {
                    "name": "C4",
                    "midi": 60,
                    "time": 278.36624499999954,
                    "velocity": 0.5275590551181102,
                    "duration": 0.09632049999999026
                },
                {
                    "name": "C#4",
                    "midi": 61,
                    "time": 278.5588859999995,
                    "velocity": 0.5826771653543307,
                    "duration": 0.3852820000000179
                },
                {
                    "name": "C4",
                    "midi": 60,
                    "time": 278.94416799999954,
                    "velocity": 0.5275590551181102,
                    "duration": 0.09632049999999026
                },
                {
                    "name": "C#4",
                    "midi": 61,
                    "time": 279.1368089999995,
                    "velocity": 0.5826771653543307,
                    "duration": 0.3852820000000179
                },
                {
                    "name": "C4",
                    "midi": 60,
                    "time": 279.52209099999953,
                    "velocity": 0.5196850393700787,
                    "duration": 0.09632049999999026
                },
                {
                    "name": "B3",
                    "midi": 59,
                    "time": 279.7147319999995,
                    "velocity": 0.3700787401574803,
                    "duration": 0.09632049999999026
                },
                {
                    "name": "B3",
                    "midi": 59,
                    "time": 279.9073729999995,
                    "velocity": 0.3700787401574803,
                    "duration": 0.09632049999999026
                },
                {
                    "name": "B3",
                    "midi": 59,
                    "time": 280.1000139999995,
                    "velocity": 0.3700787401574803,
                    "duration": 0.09632049999999026
                },
                {
                    "name": "C4",
                    "midi": 60,
                    "time": 280.29265499999946,
                    "velocity": 0.3937007874015748,
                    "duration": 0.19264099999998052
                },
                {
                    "name": "A2",
                    "midi": 45,
                    "time": 280.87057799999945,
                    "velocity": 0.4645669291338583,
                    "duration": 0.3852820000000179
                },
                {
                    "name": "C3",
                    "midi": 48,
                    "time": 280.87057799999945,
                    "velocity": 0.4645669291338583,
                    "duration": 0.3852820000000179
                },
                {
                    "name": "F3",
                    "midi": 53,
                    "time": 280.87057799999945,
                    "velocity": 0.5511811023622047,
                    "duration": 0.3852820000000179
                },
                {
                    "name": "F2",
                    "midi": 41,
                    "time": 280.87057799999945,
                    "velocity": 0.4645669291338583,
                    "duration": 0.3852820000000179
                },
                {
                    "name": "A3",
                    "midi": 57,
                    "time": 283.76019299999945,
                    "velocity": 0.5511811023622047,
                    "duration": 0.09632049999999026
                },
                {
                    "name": "G3",
                    "midi": 55,
                    "time": 283.9528339999994,
                    "velocity": 0.5196850393700787,
                    "duration": 0.09632049999999026
                },
                {
                    "name": "A3",
                    "midi": 57,
                    "time": 284.1454749999994,
                    "velocity": 0.5196850393700787,
                    "duration": 0.09632049999999026
                },
                {
                    "name": "A#3",
                    "midi": 58,
                    "time": 284.3381159999994,
                    "velocity": 0.5511811023622047,
                    "duration": 0.09632049999999026
                },
                {
                    "name": "A3",
                    "midi": 57,
                    "time": 284.53075699999937,
                    "velocity": 0.5275590551181102,
                    "duration": 0.09632049999999026
                },
                {
                    "name": "A#3",
                    "midi": 58,
                    "time": 284.72339799999935,
                    "velocity": 0.5275590551181102,
                    "duration": 0.09632049999999026
                },
                {
                    "name": "C4",
                    "midi": 60,
                    "time": 284.91603899999933,
                    "velocity": 0.5511811023622047,
                    "duration": 0.09632049999999026
                },
                {
                    "name": "A#3",
                    "midi": 58,
                    "time": 285.1086799999993,
                    "velocity": 0.5275590551181102,
                    "duration": 0.09632049999999026
                },
                {
                    "name": "C4",
                    "midi": 60,
                    "time": 285.3013209999993,
                    "velocity": 0.5275590551181102,
                    "duration": 0.09632049999999026
                },
                {
                    "name": "C#4",
                    "midi": 61,
                    "time": 285.49396199999927,
                    "velocity": 0.5826771653543307,
                    "duration": 0.3852820000000179
                },
                {
                    "name": "C4",
                    "midi": 60,
                    "time": 285.8792439999993,
                    "velocity": 0.5275590551181102,
                    "duration": 0.09632049999999026
                },
                {
                    "name": "C#4",
                    "midi": 61,
                    "time": 286.07188499999927,
                    "velocity": 0.5826771653543307,
                    "duration": 0.3852820000000179
                },
                {
                    "name": "C4",
                    "midi": 60,
                    "time": 286.4571669999993,
                    "velocity": 0.5196850393700787,
                    "duration": 0.09632049999999026
                },
                {
                    "name": "B3",
                    "midi": 59,
                    "time": 286.64980799999927,
                    "velocity": 0.28346456692913385,
                    "duration": 0.09632049999999026
                },
                {
                    "name": "A#3",
                    "midi": 58,
                    "time": 287.22773099999927,
                    "velocity": 0.28346456692913385,
                    "duration": 0.09632049999999026
                },
                {
                    "name": "A3",
                    "midi": 57,
                    "time": 287.80565399999927,
                    "velocity": 0.2755905511811024,
                    "duration": 0.09632049999999026
                },
                {
                    "name": "A#2",
                    "midi": 46,
                    "time": 288.38357699999926,
                    "velocity": 0.4566929133858268,
                    "duration": 0.09632049999999026
                },
                {
                    "name": "A#3",
                    "midi": 58,
                    "time": 288.47989749999925,
                    "velocity": 0.48031496062992124,
                    "duration": 0.09632049999999026
                },
                {
                    "name": "E3",
                    "midi": 52,
                    "time": 288.96149999999926,
                    "velocity": 0.3543307086614173,
                    "duration": 0.5779229999999984
                },
                {
                    "name": "A#3",
                    "midi": 58,
                    "time": 288.96149999999926,
                    "velocity": 0.44881889763779526,
                    "duration": 0.5779229999999984
                },
                {
                    "name": "C3",
                    "midi": 48,
                    "time": 288.96149999999926,
                    "velocity": 0.3543307086614173,
                    "duration": 0.5779229999999984
                },
                {
                    "name": "F3",
                    "midi": 53,
                    "time": 289.53942299999926,
                    "velocity": 0.31496062992125984,
                    "duration": 0.19264099999998052
                },
                {
                    "name": "A3",
                    "midi": 57,
                    "time": 289.53942299999926,
                    "velocity": 0.4015748031496063,
                    "duration": 0.19264099999998052
                },
                {
                    "name": "C3",
                    "midi": 48,
                    "time": 290.11734599999926,
                    "velocity": 0.3228346456692913,
                    "duration": 0.19264099999998052
                },
                {
                    "name": "C4",
                    "midi": 60,
                    "time": 290.30998699999924,
                    "velocity": 0.2440944881889764,
                    "duration": 0.09632049999999026
                },
                {
                    "name": "A#3",
                    "midi": 58,
                    "time": 290.30998699999924,
                    "velocity": 0.1889763779527559,
                    "duration": 0.09632049999999026
                },
                {
                    "name": "C4",
                    "midi": 60,
                    "time": 290.5026279999992,
                    "velocity": 0.2440944881889764,
                    "duration": 0.09632049999999026
                },
                {
                    "name": "A#3",
                    "midi": 58,
                    "time": 290.5026279999992,
                    "velocity": 0.1889763779527559,
                    "duration": 0.09632049999999026
                },
                {
                    "name": "C4",
                    "midi": 60,
                    "time": 290.6952689999992,
                    "velocity": 0.2440944881889764,
                    "duration": 0.09632049999999026
                },
                {
                    "name": "A#3",
                    "midi": 58,
                    "time": 290.6952689999992,
                    "velocity": 0.1889763779527559,
                    "duration": 0.09632049999999026
                },
                {
                    "name": "C4",
                    "midi": 60,
                    "time": 290.8879099999992,
                    "velocity": 0.2440944881889764,
                    "duration": 0.09632049999999026
                },
                {
                    "name": "A#3",
                    "midi": 58,
                    "time": 290.8879099999992,
                    "velocity": 0.1889763779527559,
                    "duration": 0.09632049999999026
                },
                {
                    "name": "C4",
                    "midi": 60,
                    "time": 291.08055099999916,
                    "velocity": 0.2440944881889764,
                    "duration": 0.09632049999999026
                },
                {
                    "name": "A#3",
                    "midi": 58,
                    "time": 291.08055099999916,
                    "velocity": 0.1889763779527559,
                    "duration": 0.09632049999999026
                },
                {
                    "name": "F3",
                    "midi": 53,
                    "time": 291.27319199999914,
                    "velocity": 0.3228346456692913,
                    "duration": 0.19264099999998052
                },
                {
                    "name": "A3",
                    "midi": 57,
                    "time": 291.4658329999991,
                    "velocity": 0.1889763779527559,
                    "duration": 0.09632049999999026
                },
                {
                    "name": "C4",
                    "midi": 60,
                    "time": 291.4658329999991,
                    "velocity": 0.2440944881889764,
                    "duration": 0.09632049999999026
                },
                {
                    "name": "A3",
                    "midi": 57,
                    "time": 291.6584739999991,
                    "velocity": 0.1889763779527559,
                    "duration": 0.09632049999999026
                },
                {
                    "name": "C4",
                    "midi": 60,
                    "time": 291.6584739999991,
                    "velocity": 0.2440944881889764,
                    "duration": 0.09632049999999026
                },
                {
                    "name": "C4",
                    "midi": 60,
                    "time": 291.8511149999991,
                    "velocity": 0.2440944881889764,
                    "duration": 0.09632049999999026
                },
                {
                    "name": "A3",
                    "midi": 57,
                    "time": 291.8511149999991,
                    "velocity": 0.1889763779527559,
                    "duration": 0.09632049999999026
                },
                {
                    "name": "C4",
                    "midi": 60,
                    "time": 292.04375599999906,
                    "velocity": 0.2440944881889764,
                    "duration": 0.09632049999999026
                },
                {
                    "name": "A3",
                    "midi": 57,
                    "time": 292.04375599999906,
                    "velocity": 0.1889763779527559,
                    "duration": 0.09632049999999026
                },
                {
                    "name": "C4",
                    "midi": 60,
                    "time": 292.23639699999904,
                    "velocity": 0.2440944881889764,
                    "duration": 0.09632049999999026
                },
                {
                    "name": "A3",
                    "midi": 57,
                    "time": 292.23639699999904,
                    "velocity": 0.1889763779527559,
                    "duration": 0.09632049999999026
                },
                {
                    "name": "C3",
                    "midi": 48,
                    "time": 292.429037999999,
                    "velocity": 0.3228346456692913,
                    "duration": 0.19264099999998052
                },
                {
                    "name": "G3",
                    "midi": 55,
                    "time": 292.621678999999,
                    "velocity": 0.1889763779527559,
                    "duration": 0.09632049999999026
                },
                {
                    "name": "C4",
                    "midi": 60,
                    "time": 292.621678999999,
                    "velocity": 0.2440944881889764,
                    "duration": 0.09632049999999026
                },
                {
                    "name": "G3",
                    "midi": 55,
                    "time": 292.814319999999,
                    "velocity": 0.1889763779527559,
                    "duration": 0.09632049999999026
                },
                {
                    "name": "C4",
                    "midi": 60,
                    "time": 292.814319999999,
                    "velocity": 0.2440944881889764,
                    "duration": 0.09632049999999026
                },
                {
                    "name": "G3",
                    "midi": 55,
                    "time": 293.00696099999897,
                    "velocity": 0.1889763779527559,
                    "duration": 0.09632049999999026
                },
                {
                    "name": "C4",
                    "midi": 60,
                    "time": 293.00696099999897,
                    "velocity": 0.2440944881889764,
                    "duration": 0.09632049999999026
                },
                {
                    "name": "G3",
                    "midi": 55,
                    "time": 293.19960199999895,
                    "velocity": 0.1889763779527559,
                    "duration": 0.09632049999999026
                },
                {
                    "name": "C4",
                    "midi": 60,
                    "time": 293.19960199999895,
                    "velocity": 0.2440944881889764,
                    "duration": 0.09632049999999026
                },
                {
                    "name": "G3",
                    "midi": 55,
                    "time": 293.3922429999989,
                    "velocity": 0.1889763779527559,
                    "duration": 0.09632049999999026
                },
                {
                    "name": "C4",
                    "midi": 60,
                    "time": 293.3922429999989,
                    "velocity": 0.2440944881889764,
                    "duration": 0.09632049999999026
                },
                {
                    "name": "F3",
                    "midi": 53,
                    "time": 293.5848839999989,
                    "velocity": 0.3228346456692913,
                    "duration": 0.19264099999998052
                },
                {
                    "name": "A3",
                    "midi": 57,
                    "time": 293.7775249999989,
                    "velocity": 0.1889763779527559,
                    "duration": 0.09632049999999026
                },
                {
                    "name": "C4",
                    "midi": 60,
                    "time": 293.7775249999989,
                    "velocity": 0.2440944881889764,
                    "duration": 0.09632049999999026
                },
                {
                    "name": "A3",
                    "midi": 57,
                    "time": 293.97016599999887,
                    "velocity": 0.1889763779527559,
                    "duration": 0.09632049999999026
                },
                {
                    "name": "C4",
                    "midi": 60,
                    "time": 293.97016599999887,
                    "velocity": 0.2440944881889764,
                    "duration": 0.09632049999999026
                },
                {
                    "name": "A3",
                    "midi": 57,
                    "time": 294.16280699999885,
                    "velocity": 0.1889763779527559,
                    "duration": 0.09632049999999026
                },
                {
                    "name": "C4",
                    "midi": 60,
                    "time": 294.16280699999885,
                    "velocity": 0.2440944881889764,
                    "duration": 0.09632049999999026
                },
                {
                    "name": "A3",
                    "midi": 57,
                    "time": 294.35544799999883,
                    "velocity": 0.1889763779527559,
                    "duration": 0.09632049999999026
                },
                {
                    "name": "C4",
                    "midi": 60,
                    "time": 294.35544799999883,
                    "velocity": 0.2440944881889764,
                    "duration": 0.09632049999999026
                },
                {
                    "name": "A3",
                    "midi": 57,
                    "time": 294.5480889999988,
                    "velocity": 0.1889763779527559,
                    "duration": 0.09632049999999026
                },
                {
                    "name": "C4",
                    "midi": 60,
                    "time": 294.5480889999988,
                    "velocity": 0.2440944881889764,
                    "duration": 0.09632049999999026
                },
                {
                    "name": "C3",
                    "midi": 48,
                    "time": 294.7407299999988,
                    "velocity": 0.3228346456692913,
                    "duration": 0.19264099999998052
                },
                {
                    "name": "C4",
                    "midi": 60,
                    "time": 294.9333709999988,
                    "velocity": 0.2440944881889764,
                    "duration": 0.09632049999999026
                },
                {
                    "name": "A#3",
                    "midi": 58,
                    "time": 294.9333709999988,
                    "velocity": 0.1889763779527559,
                    "duration": 0.09632049999999026
                },
                {
                    "name": "C4",
                    "midi": 60,
                    "time": 295.12601199999875,
                    "velocity": 0.2440944881889764,
                    "duration": 0.09632049999999026
                },
                {
                    "name": "A#3",
                    "midi": 58,
                    "time": 295.12601199999875,
                    "velocity": 0.1889763779527559,
                    "duration": 0.09632049999999026
                },
                {
                    "name": "C4",
                    "midi": 60,
                    "time": 295.31865299999873,
                    "velocity": 0.2440944881889764,
                    "duration": 0.09632049999999026
                },
                {
                    "name": "A#3",
                    "midi": 58,
                    "time": 295.31865299999873,
                    "velocity": 0.1889763779527559,
                    "duration": 0.09632049999999026
                },
                {
                    "name": "C4",
                    "midi": 60,
                    "time": 295.5112939999987,
                    "velocity": 0.2440944881889764,
                    "duration": 0.09632049999999026
                },
                {
                    "name": "A#3",
                    "midi": 58,
                    "time": 295.5112939999987,
                    "velocity": 0.1889763779527559,
                    "duration": 0.09632049999999026
                },
                {
                    "name": "A#3",
                    "midi": 58,
                    "time": 295.7039349999987,
                    "velocity": 0.1889763779527559,
                    "duration": 0.09632049999999026
                },
                {
                    "name": "C4",
                    "midi": 60,
                    "time": 295.7039349999987,
                    "velocity": 0.2440944881889764,
                    "duration": 0.09632049999999026
                },
                {
                    "name": "F3",
                    "midi": 53,
                    "time": 295.8965759999987,
                    "velocity": 0.3228346456692913,
                    "duration": 0.19264099999998052
                },
                {
                    "name": "A3",
                    "midi": 57,
                    "time": 296.08921699999865,
                    "velocity": 0.1889763779527559,
                    "duration": 0.09632049999999026
                },
                {
                    "name": "C4",
                    "midi": 60,
                    "time": 296.08921699999865,
                    "velocity": 0.2440944881889764,
                    "duration": 0.09632049999999026
                },
                {
                    "name": "A3",
                    "midi": 57,
                    "time": 296.28185799999864,
                    "velocity": 0.1889763779527559,
                    "duration": 0.09632049999999026
                },
                {
                    "name": "C4",
                    "midi": 60,
                    "time": 296.28185799999864,
                    "velocity": 0.2440944881889764,
                    "duration": 0.09632049999999026
                },
                {
                    "name": "C4",
                    "midi": 60,
                    "time": 296.4744989999986,
                    "velocity": 0.2440944881889764,
                    "duration": 0.09632049999999026
                },
                {
                    "name": "A3",
                    "midi": 57,
                    "time": 296.4744989999986,
                    "velocity": 0.1889763779527559,
                    "duration": 0.09632049999999026
                },
                {
                    "name": "C4",
                    "midi": 60,
                    "time": 296.6671399999986,
                    "velocity": 0.2440944881889764,
                    "duration": 0.09632049999999026
                },
                {
                    "name": "A3",
                    "midi": 57,
                    "time": 296.6671399999986,
                    "velocity": 0.1889763779527559,
                    "duration": 0.09632049999999026
                },
                {
                    "name": "C4",
                    "midi": 60,
                    "time": 296.8597809999986,
                    "velocity": 0.2440944881889764,
                    "duration": 0.09632049999999026
                },
                {
                    "name": "A3",
                    "midi": 57,
                    "time": 296.8597809999986,
                    "velocity": 0.1889763779527559,
                    "duration": 0.09632049999999026
                },
                {
                    "name": "C3",
                    "midi": 48,
                    "time": 297.05242199999856,
                    "velocity": 0.3228346456692913,
                    "duration": 0.19264099999998052
                },
                {
                    "name": "G3",
                    "midi": 55,
                    "time": 297.24506299999854,
                    "velocity": 0.1889763779527559,
                    "duration": 0.09632049999999026
                },
                {
                    "name": "C4",
                    "midi": 60,
                    "time": 297.24506299999854,
                    "velocity": 0.2440944881889764,
                    "duration": 0.09632049999999026
                },
                {
                    "name": "C4",
                    "midi": 60,
                    "time": 297.4377039999985,
                    "velocity": 0.2440944881889764,
                    "duration": 0.09632049999999026
                },
                {
                    "name": "G3",
                    "midi": 55,
                    "time": 297.4377039999985,
                    "velocity": 0.1889763779527559,
                    "duration": 0.09632049999999026
                },
                {
                    "name": "A#3",
                    "midi": 58,
                    "time": 297.6303449999985,
                    "velocity": 0.1889763779527559,
                    "duration": 0.09632049999999026
                },
                {
                    "name": "C4",
                    "midi": 60,
                    "time": 297.6303449999985,
                    "velocity": 0.2440944881889764,
                    "duration": 0.09632049999999026
                },
                {
                    "name": "C4",
                    "midi": 60,
                    "time": 297.8229859999985,
                    "velocity": 0.2440944881889764,
                    "duration": 0.09632049999999026
                },
                {
                    "name": "A#3",
                    "midi": 58,
                    "time": 297.8229859999985,
                    "velocity": 0.1889763779527559,
                    "duration": 0.09632049999999026
                },
                {
                    "name": "A#3",
                    "midi": 58,
                    "time": 298.01562699999846,
                    "velocity": 0.1889763779527559,
                    "duration": 0.09632049999999026
                },
                {
                    "name": "C4",
                    "midi": 60,
                    "time": 298.01562699999846,
                    "velocity": 0.2440944881889764,
                    "duration": 0.09632049999999026
                },
                {
                    "name": "C4",
                    "midi": 60,
                    "time": 298.20826799999844,
                    "velocity": 0.3228346456692913,
                    "duration": 0.19264099999998052
                },
                {
                    "name": "F3",
                    "midi": 53,
                    "time": 298.20826799999844,
                    "velocity": 0.25196850393700787,
                    "duration": 0.19264099999998052
                },
                {
                    "name": "A3",
                    "midi": 57,
                    "time": 298.20826799999844,
                    "velocity": 0.25196850393700787,
                    "duration": 0.19264099999998052
                },
                {
                    "name": "D#3",
                    "midi": 51,
                    "time": 298.78619099999844,
                    "velocity": 0.4094488188976378,
                    "duration": 0.5779229999999984
                },
                {
                    "name": "G3",
                    "midi": 55,
                    "time": 298.78619099999844,
                    "velocity": 0.4094488188976378,
                    "duration": 0.5779229999999984
                },
                {
                    "name": "C#4",
                    "midi": 61,
                    "time": 298.78619099999844,
                    "velocity": 0.4881889763779528,
                    "duration": 0.5779229999999984
                },
                {
                    "name": "D4",
                    "midi": 62,
                    "time": 299.36411399999844,
                    "velocity": 0.5354330708661418,
                    "duration": 0.5779229999999984
                },
                {
                    "name": "F#3",
                    "midi": 54,
                    "time": 299.36411399999844,
                    "velocity": 0.44881889763779526,
                    "duration": 0.5779229999999984
                },
                {
                    "name": "D3",
                    "midi": 50,
                    "time": 299.36411399999844,
                    "velocity": 0.44881889763779526,
                    "duration": 0.5779229999999984
                },
                {
                    "name": "D3",
                    "midi": 50,
                    "time": 300.51995999999843,
                    "velocity": 0.49606299212598426,
                    "duration": 0.5779229999999984
                },
                {
                    "name": "D4",
                    "midi": 62,
                    "time": 300.51995999999843,
                    "velocity": 0.5826771653543307,
                    "duration": 0.5779229999999984
                },
                {
                    "name": "C3",
                    "midi": 48,
                    "time": 301.09788299999843,
                    "velocity": 0.49606299212598426,
                    "duration": 0.5779229999999984
                },
                {
                    "name": "C4",
                    "midi": 60,
                    "time": 301.09788299999843,
                    "velocity": 0.5826771653543307,
                    "duration": 0.5779229999999984
                },
                {
                    "name": "A#2",
                    "midi": 46,
                    "time": 301.67580599999843,
                    "velocity": 0.49606299212598426,
                    "duration": 0.5779229999999984
                },
                {
                    "name": "A#3",
                    "midi": 58,
                    "time": 301.67580599999843,
                    "velocity": 0.5826771653543307,
                    "duration": 0.5779229999999984
                },
                {
                    "name": "A2",
                    "midi": 45,
                    "time": 302.25372899999843,
                    "velocity": 0.49606299212598426,
                    "duration": 0.5779229999999984
                },
                {
                    "name": "A3",
                    "midi": 57,
                    "time": 302.25372899999843,
                    "velocity": 0.5826771653543307,
                    "duration": 0.5779229999999984
                },
                {
                    "name": "G3",
                    "midi": 55,
                    "time": 302.8316519999984,
                    "velocity": 0.4645669291338583,
                    "duration": 0.19264099999998052
                },
                {
                    "name": "A#3",
                    "midi": 58,
                    "time": 303.0242929999984,
                    "velocity": 0.4251968503937008,
                    "duration": 0.19264099999998052
                },
                {
                    "name": "D4",
                    "midi": 62,
                    "time": 303.2169339999984,
                    "velocity": 0.4251968503937008,
                    "duration": 0.19264099999998052
                },
                {
                    "name": "F#3",
                    "midi": 54,
                    "time": 303.40957499999837,
                    "velocity": 0.4645669291338583,
                    "duration": 0.19264099999998052
                },
                {
                    "name": "A3",
                    "midi": 57,
                    "time": 303.60221599999835,
                    "velocity": 0.4251968503937008,
                    "duration": 0.19264099999998052
                },
                {
                    "name": "D4",
                    "midi": 62,
                    "time": 303.79485699999833,
                    "velocity": 0.4251968503937008,
                    "duration": 0.19264099999998052
                },
                {
                    "name": "G3",
                    "midi": 55,
                    "time": 303.9874979999983,
                    "velocity": 0.4645669291338583,
                    "duration": 0.19264099999998052
                },
                {
                    "name": "A#3",
                    "midi": 58,
                    "time": 304.1801389999983,
                    "velocity": 0.4251968503937008,
                    "duration": 0.19264099999998052
                },
                {
                    "name": "D4",
                    "midi": 62,
                    "time": 304.3727799999983,
                    "velocity": 0.4251968503937008,
                    "duration": 0.19264099999998052
                },
                {
                    "name": "F3",
                    "midi": 53,
                    "time": 304.56542099999825,
                    "velocity": 0.4645669291338583,
                    "duration": 0.19264099999998052
                },
                {
                    "name": "B3",
                    "midi": 59,
                    "time": 304.75806199999823,
                    "velocity": 0.41732283464566927,
                    "duration": 0.19264099999998052
                },
                {
                    "name": "D4",
                    "midi": 62,
                    "time": 304.9507029999982,
                    "velocity": 0.41732283464566927,
                    "duration": 0.19264099999998052
                },
                {
                    "name": "E3",
                    "midi": 52,
                    "time": 305.1433439999982,
                    "velocity": 0.4566929133858268,
                    "duration": 0.3852820000000179
                },
                {
                    "name": "C5",
                    "midi": 72,
                    "time": 306.2991899999982,
                    "velocity": 0.4251968503937008,
                    "duration": 0.5779229999999984
                },
                {
                    "name": "A#4",
                    "midi": 70,
                    "time": 306.8771129999982,
                    "velocity": 0.3464566929133858,
                    "duration": 0.5779229999999984
                },
                {
                    "name": "C5",
                    "midi": 72,
                    "time": 306.8771129999982,
                    "velocity": 0.4094488188976378,
                    "duration": 0.5779229999999984
                },
                {
                    "name": "C5",
                    "midi": 72,
                    "time": 307.4550359999982,
                    "velocity": 0.3700787401574803,
                    "duration": 0.5779229999999984
                },
                {
                    "name": "A4",
                    "midi": 69,
                    "time": 307.4550359999982,
                    "velocity": 0.31496062992125984,
                    "duration": 0.5779229999999984
                },
                {
                    "name": "A#4",
                    "midi": 70,
                    "time": 308.0329589999982,
                    "velocity": 0.30708661417322836,
                    "duration": 0.5779229999999984
                },
                {
                    "name": "C5",
                    "midi": 72,
                    "time": 308.0329589999982,
                    "velocity": 0.36220472440944884,
                    "duration": 0.5779229999999984
                },
                {
                    "name": "G4",
                    "midi": 67,
                    "time": 308.0329589999982,
                    "velocity": 0.30708661417322836,
                    "duration": 0.5779229999999984
                },
                {
                    "name": "F4",
                    "midi": 65,
                    "time": 308.6108819999982,
                    "velocity": 0.3464566929133858,
                    "duration": 0.09632049999999026
                },
                {
                    "name": "A4",
                    "midi": 69,
                    "time": 308.80352299999817,
                    "velocity": 0.29133858267716534,
                    "duration": 0.09632049999999026
                },
                {
                    "name": "C5",
                    "midi": 72,
                    "time": 308.99616399999815,
                    "velocity": 0.29133858267716534,
                    "duration": 0.09632049999999026
                },
                {
                    "name": "E4",
                    "midi": 64,
                    "time": 309.1888049999981,
                    "velocity": 0.33858267716535434,
                    "duration": 0.09632049999999026
                },
                {
                    "name": "G4",
                    "midi": 67,
                    "time": 309.3814459999981,
                    "velocity": 0.29133858267716534,
                    "duration": 0.09632049999999026
                },
                {
                    "name": "C5",
                    "midi": 72,
                    "time": 309.5740869999981,
                    "velocity": 0.29133858267716534,
                    "duration": 0.09632049999999026
                },
                {
                    "name": "A4",
                    "midi": 69,
                    "time": 309.76672799999807,
                    "velocity": 0.36220472440944884,
                    "duration": 0.19264099999998052
                },
                {
                    "name": "C5",
                    "midi": 72,
                    "time": 309.76672799999807,
                    "velocity": 0.36220472440944884,
                    "duration": 0.19264099999998052
                },
                {
                    "name": "F4",
                    "midi": 65,
                    "time": 309.76672799999807,
                    "velocity": 0.36220472440944884,
                    "duration": 0.19264099999998052
                },
                {
                    "name": "A#2",
                    "midi": 46,
                    "time": 310.92257399999806,
                    "velocity": 0.3858267716535433,
                    "duration": 0.09632049999999026
                },
                {
                    "name": "A#3",
                    "midi": 58,
                    "time": 311.11521499999805,
                    "velocity": 0.31496062992125984,
                    "duration": 0.09632049999999026
                },
                {
                    "name": "E3",
                    "midi": 52,
                    "time": 311.50049699999806,
                    "velocity": 0.3779527559055118,
                    "duration": 0.09632049999999026
                },
                {
                    "name": "E4",
                    "midi": 64,
                    "time": 311.69313799999804,
                    "velocity": 0.33858267716535434,
                    "duration": 0.09632049999999026
                },
                {
                    "name": "A2",
                    "midi": 45,
                    "time": 312.07841999999806,
                    "velocity": 0.3937007874015748,
                    "duration": 0.09632049999999026
                },
                {
                    "name": "A3",
                    "midi": 57,
                    "time": 312.27106099999804,
                    "velocity": 0.33858267716535434,
                    "duration": 0.09632049999999026
                },
                {
                    "name": "D3",
                    "midi": 50,
                    "time": 312.65634299999806,
                    "velocity": 0.3700787401574803,
                    "duration": 0.09632049999999026
                },
                {
                    "name": "D4",
                    "midi": 62,
                    "time": 312.84898399999804,
                    "velocity": 0.31496062992125984,
                    "duration": 0.09632049999999026
                },
                {
                    "name": "G2",
                    "midi": 43,
                    "time": 313.23426599999806,
                    "velocity": 0.3543307086614173,
                    "duration": 0.09632049999999026
                },
                {
                    "name": "A2",
                    "midi": 45,
                    "time": 313.42690699999804,
                    "velocity": 0.3700787401574803,
                    "duration": 0.09632049999999026
                },
                {
                    "name": "A#2",
                    "midi": 46,
                    "time": 313.619547999998,
                    "velocity": 0.3858267716535433,
                    "duration": 0.09632049999999026
                },
                {
                    "name": "C3",
                    "midi": 48,
                    "time": 313.812188999998,
                    "velocity": 0.4015748031496063,
                    "duration": 0.09632049999999026
                },
                {
                    "name": "D3",
                    "midi": 50,
                    "time": 314.004829999998,
                    "velocity": 0.41732283464566927,
                    "duration": 0.09632049999999026
                },
                {
                    "name": "E3",
                    "midi": 52,
                    "time": 314.19747099999796,
                    "velocity": 0.4330708661417323,
                    "duration": 0.09632049999999026
                },
                {
                    "name": "F3",
                    "midi": 53,
                    "time": 314.39011199999794,
                    "velocity": 0.44881889763779526,
                    "duration": 0.09632049999999026
                },
                {
                    "name": "A2",
                    "midi": 45,
                    "time": 314.77539399999796,
                    "velocity": 0.3858267716535433,
                    "duration": 0.09632049999999026
                },
                {
                    "name": "A#2",
                    "midi": 46,
                    "time": 314.96803499999794,
                    "velocity": 0.4645669291338583,
                    "duration": 0.09632049999999026
                },
                {
                    "name": "B2",
                    "midi": 47,
                    "time": 315.35331699999796,
                    "velocity": 0.3937007874015748,
                    "duration": 0.09632049999999026
                },
                {
                    "name": "C3",
                    "midi": 48,
                    "time": 315.54595799999794,
                    "velocity": 0.4409448818897638,
                    "duration": 0.09632049999999026
                },
                {
                    "name": "D4",
                    "midi": 62,
                    "time": 316.2202014999979,
                    "velocity": 0.44881889763779526,
                    "duration": 0.1059525499999836
                },
                {
                    "name": "C4",
                    "midi": 60,
                    "time": 316.3165219999979,
                    "velocity": 0.4409448818897638,
                    "duration": 0.1059525499999836
                },
                {
                    "name": "A#3",
                    "midi": 58,
                    "time": 316.4128424999979,
                    "velocity": 0.4330708661417323,
                    "duration": 0.1059525499999836
                },
                {
                    "name": "A3",
                    "midi": 57,
                    "time": 316.5091629999979,
                    "velocity": 0.4094488188976378,
                    "duration": 0.1059525499999836
                },
                {
                    "name": "G3",
                    "midi": 55,
                    "time": 316.6054834999979,
                    "velocity": 0.4015748031496063,
                    "duration": 0.09632049999999026
                },
                {
                    "name": "F3",
                    "midi": 53,
                    "time": 316.7018039999979,
                    "velocity": 0.3228346456692913,
                    "duration": 0.19264099999998052
                },
                {
                    "name": "G#3",
                    "midi": 56,
                    "time": 316.89444499999786,
                    "velocity": 0.2440944881889764,
                    "duration": 0.19264099999998052
                },
                {
                    "name": "C4",
                    "midi": 60,
                    "time": 317.08708599999784,
                    "velocity": 0.2440944881889764,
                    "duration": 0.19264099999998052
                },
                {
                    "name": "F3",
                    "midi": 53,
                    "time": 317.2797269999978,
                    "velocity": 0.29133858267716534,
                    "duration": 0.19264099999998052
                },
                {
                    "name": "G#3",
                    "midi": 56,
                    "time": 317.4723679999978,
                    "velocity": 0.2440944881889764,
                    "duration": 0.19264099999998052
                },
                {
                    "name": "C4",
                    "midi": 60,
                    "time": 317.6650089999978,
                    "velocity": 0.2440944881889764,
                    "duration": 0.19264099999998052
                },
                {
                    "name": "E3",
                    "midi": 52,
                    "time": 317.85764999999776,
                    "velocity": 0.3228346456692913,
                    "duration": 0.19264099999998052
                },
                {
                    "name": "G3",
                    "midi": 55,
                    "time": 318.05029099999774,
                    "velocity": 0.2440944881889764,
                    "duration": 0.19264099999998052
                },
                {
                    "name": "C4",
                    "midi": 60,
                    "time": 318.2429319999977,
                    "velocity": 0.2440944881889764,
                    "duration": 0.19264099999998052
                },
                {
                    "name": "E3",
                    "midi": 52,
                    "time": 318.4355729999977,
                    "velocity": 0.28346456692913385,
                    "duration": 0.19264099999998052
                },
                {
                    "name": "G3",
                    "midi": 55,
                    "time": 318.6282139999977,
                    "velocity": 0.2440944881889764,
                    "duration": 0.19264099999998052
                },
                {
                    "name": "C4",
                    "midi": 60,
                    "time": 318.82085499999766,
                    "velocity": 0.2440944881889764,
                    "duration": 0.19264099999998052
                },
                {
                    "name": "E3",
                    "midi": 52,
                    "time": 319.01349599999764,
                    "velocity": 0.3228346456692913,
                    "duration": 0.19264099999998052
                },
                {
                    "name": "G3",
                    "midi": 55,
                    "time": 319.2061369999976,
                    "velocity": 0.2440944881889764,
                    "duration": 0.19264099999998052
                },
                {
                    "name": "A#3",
                    "midi": 58,
                    "time": 319.3987779999976,
                    "velocity": 0.2440944881889764,
                    "duration": 0.19264099999998052
                },
                {
                    "name": "E3",
                    "midi": 52,
                    "time": 319.5914189999976,
                    "velocity": 0.29133858267716534,
                    "duration": 0.19264099999998052
                },
                {
                    "name": "G3",
                    "midi": 55,
                    "time": 319.78405999999757,
                    "velocity": 0.2440944881889764,
                    "duration": 0.19264099999998052
                },
                {
                    "name": "C4",
                    "midi": 60,
                    "time": 319.97670099999755,
                    "velocity": 0.2440944881889764,
                    "duration": 0.19264099999998052
                },
                {
                    "name": "F3",
                    "midi": 53,
                    "time": 320.1693419999975,
                    "velocity": 0.3228346456692913,
                    "duration": 0.19264099999998052
                },
                {
                    "name": "G#3",
                    "midi": 56,
                    "time": 320.3619829999975,
                    "velocity": 0.2440944881889764,
                    "duration": 0.19264099999998052
                },
                {
                    "name": "C4",
                    "midi": 60,
                    "time": 320.5546239999975,
                    "velocity": 0.2440944881889764,
                    "duration": 0.19264099999998052
                },
                {
                    "name": "F3",
                    "midi": 53,
                    "time": 320.74726499999747,
                    "velocity": 0.28346456692913385,
                    "duration": 0.19264099999998052
                },
                {
                    "name": "G#3",
                    "midi": 56,
                    "time": 320.93990599999745,
                    "velocity": 0.2440944881889764,
                    "duration": 0.19264099999998052
                },
                {
                    "name": "C4",
                    "midi": 60,
                    "time": 321.13254699999743,
                    "velocity": 0.2440944881889764,
                    "duration": 0.19264099999998052
                },
                {
                    "name": "G#3",
                    "midi": 56,
                    "time": 321.3251879999974,
                    "velocity": 0.3700787401574803,
                    "duration": 0.19264099999998052
                },
                {
                    "name": "C4",
                    "midi": 60,
                    "time": 321.5178289999974,
                    "velocity": 0.28346456692913385,
                    "duration": 0.19264099999998052
                },
                {
                    "name": "F4",
                    "midi": 65,
                    "time": 321.7104699999974,
                    "velocity": 0.28346456692913385,
                    "duration": 0.19264099999998052
                },
                {
                    "name": "G3",
                    "midi": 55,
                    "time": 321.90311099999735,
                    "velocity": 0.3464566929133858,
                    "duration": 0.19264099999998052
                },
                {
                    "name": "A#3",
                    "midi": 58,
                    "time": 322.09575199999733,
                    "velocity": 0.25196850393700787,
                    "duration": 0.19264099999998052
                },
                {
                    "name": "D#4",
                    "midi": 63,
                    "time": 322.2883929999973,
                    "velocity": 0.25984251968503935,
                    "duration": 0.19264099999998052
                },
                {
                    "name": "F3",
                    "midi": 53,
                    "time": 322.4810339999973,
                    "velocity": 0.3779527559055118,
                    "duration": 0.19264099999998052
                },
                {
                    "name": "G#3",
                    "midi": 56,
                    "time": 322.6736749999973,
                    "velocity": 0.28346456692913385,
                    "duration": 0.19264099999998052
                },
                {
                    "name": "C#4",
                    "midi": 61,
                    "time": 322.86631599999725,
                    "velocity": 0.28346456692913385,
                    "duration": 0.19264099999998052
                },
                {
                    "name": "D#3",
                    "midi": 51,
                    "time": 323.05895699999724,
                    "velocity": 0.3543307086614173,
                    "duration": 0.19264099999998052
                },
                {
                    "name": "G3",
                    "midi": 55,
                    "time": 323.2515979999972,
                    "velocity": 0.2440944881889764,
                    "duration": 0.19264099999998052
                },
                {
                    "name": "C4",
                    "midi": 60,
                    "time": 323.4442389999972,
                    "velocity": 0.2440944881889764,
                    "duration": 0.19264099999998052
                },
                {
                    "name": "C#3",
                    "midi": 49,
                    "time": 323.6368799999972,
                    "velocity": 0.36220472440944884,
                    "duration": 0.19264099999998052
                },
                {
                    "name": "F3",
                    "midi": 53,
                    "time": 323.82952099999716,
                    "velocity": 0.2755905511811024,
                    "duration": 0.19264099999998052
                },
                {
                    "name": "A#3",
                    "midi": 58,
                    "time": 324.02216199999714,
                    "velocity": 0.2755905511811024,
                    "duration": 0.19264099999998052
                },
                {
                    "name": "C#3",
                    "midi": 49,
                    "time": 324.2148029999971,
                    "velocity": 0.33858267716535434,
                    "duration": 0.19264099999998052
                },
                {
                    "name": "F3",
                    "midi": 53,
                    "time": 324.4074439999971,
                    "velocity": 0.28346456692913385,
                    "duration": 0.19264099999998052
                },
                {
                    "name": "B3",
                    "midi": 59,
                    "time": 324.6000849999971,
                    "velocity": 0.2677165354330709,
                    "duration": 0.19264099999998052
                },
                {
                    "name": "C3",
                    "midi": 48,
                    "time": 324.79272599999706,
                    "velocity": 0.33858267716535434,
                    "duration": 0.19264099999998052
                },
                {
                    "name": "F3",
                    "midi": 53,
                    "time": 324.98536699999704,
                    "velocity": 0.2283464566929134,
                    "duration": 0.19264099999998052
                },
                {
                    "name": "C4",
                    "midi": 60,
                    "time": 325.178007999997,
                    "velocity": 0.23622047244094488,
                    "duration": 0.19264099999998052
                },
                {
                    "name": "C3",
                    "midi": 48,
                    "time": 325.370648999997,
                    "velocity": 0.30708661417322836,
                    "duration": 0.19264099999998052
                },
                {
                    "name": "E3",
                    "midi": 52,
                    "time": 325.563289999997,
                    "velocity": 0.2125984251968504,
                    "duration": 0.19264099999998052
                },
                {
                    "name": "C4",
                    "midi": 60,
                    "time": 325.75593099999696,
                    "velocity": 0.2125984251968504,
                    "duration": 0.19264099999998052
                },
                {
                    "name": "F3",
                    "midi": 53,
                    "time": 325.94857199999694,
                    "velocity": 0.3228346456692913,
                    "duration": 0.19264099999998052
                },
                {
                    "name": "G#3",
                    "midi": 56,
                    "time": 326.1412129999969,
                    "velocity": 0.2440944881889764,
                    "duration": 0.19264099999998052
                },
                {
                    "name": "C4",
                    "midi": 60,
                    "time": 326.3338539999969,
                    "velocity": 0.2440944881889764,
                    "duration": 0.19264099999998052
                },
                {
                    "name": "F3",
                    "midi": 53,
                    "time": 326.5264949999969,
                    "velocity": 0.29133858267716534,
                    "duration": 0.19264099999998052
                },
                {
                    "name": "G#3",
                    "midi": 56,
                    "time": 326.71913599999687,
                    "velocity": 0.2440944881889764,
                    "duration": 0.19264099999998052
                },
                {
                    "name": "C4",
                    "midi": 60,
                    "time": 326.91177699999685,
                    "velocity": 0.2440944881889764,
                    "duration": 0.19264099999998052
                },
                {
                    "name": "E3",
                    "midi": 52,
                    "time": 327.1044179999968,
                    "velocity": 0.3228346456692913,
                    "duration": 0.19264099999998052
                },
                {
                    "name": "G3",
                    "midi": 55,
                    "time": 327.2970589999968,
                    "velocity": 0.2440944881889764,
                    "duration": 0.19264099999998052
                },
                {
                    "name": "C4",
                    "midi": 60,
                    "time": 327.4896999999968,
                    "velocity": 0.2440944881889764,
                    "duration": 0.19264099999998052
                },
                {
                    "name": "E3",
                    "midi": 52,
                    "time": 327.68234099999677,
                    "velocity": 0.28346456692913385,
                    "duration": 0.19264099999998052
                },
                {
                    "name": "G3",
                    "midi": 55,
                    "time": 327.87498199999675,
                    "velocity": 0.2440944881889764,
                    "duration": 0.19264099999998052
                },
                {
                    "name": "C4",
                    "midi": 60,
                    "time": 328.06762299999673,
                    "velocity": 0.2440944881889764,
                    "duration": 0.19264099999998052
                },
                {
                    "name": "E3",
                    "midi": 52,
                    "time": 328.2602639999967,
                    "velocity": 0.3228346456692913,
                    "duration": 0.19264099999998052
                },
                {
                    "name": "G3",
                    "midi": 55,
                    "time": 328.4529049999967,
                    "velocity": 0.2440944881889764,
                    "duration": 0.19264099999998052
                },
                {
                    "name": "A#3",
                    "midi": 58,
                    "time": 328.64554599999667,
                    "velocity": 0.2440944881889764,
                    "duration": 0.19264099999998052
                },
                {
                    "name": "E3",
                    "midi": 52,
                    "time": 328.83818699999665,
                    "velocity": 0.29133858267716534,
                    "duration": 0.19264099999998052
                },
                {
                    "name": "G3",
                    "midi": 55,
                    "time": 329.03082799999663,
                    "velocity": 0.2440944881889764,
                    "duration": 0.19264099999998052
                },
                {
                    "name": "C4",
                    "midi": 60,
                    "time": 329.2234689999966,
                    "velocity": 0.2440944881889764,
                    "duration": 0.19264099999998052
                },
                {
                    "name": "D#3",
                    "midi": 51,
                    "time": 329.41932068332994,
                    "velocity": 0.3228346456692913,
                    "duration": 0.19264100000003737
                },
                {
                    "name": "F#3",
                    "midi": 54,
                    "time": 329.60875099999663,
                    "velocity": 0.2440944881889764,
                    "duration": 0.19264100000003737
                },
                {
                    "name": "A3",
                    "midi": 57,
                    "time": 329.80139199999667,
                    "velocity": 0.2440944881889764,
                    "duration": 0.19264099999998052
                },
                {
                    "name": "D3",
                    "midi": 50,
                    "time": 329.99403299999665,
                    "velocity": 0.28346456692913385,
                    "duration": 0.19264099999998052
                },
                {
                    "name": "F3",
                    "midi": 53,
                    "time": 330.18667399999663,
                    "velocity": 0.2440944881889764,
                    "duration": 0.19264099999998052
                },
                {
                    "name": "A#3",
                    "midi": 58,
                    "time": 330.3793149999966,
                    "velocity": 0.2440944881889764,
                    "duration": 0.19264099999998052
                },
                {
                    "name": "C#3",
                    "midi": 49,
                    "time": 330.5719559999966,
                    "velocity": 0.44881889763779526,
                    "duration": 0.19264099999998052
                },
                {
                    "name": "F3",
                    "midi": 53,
                    "time": 330.76459699999657,
                    "velocity": 0.36220472440944884,
                    "duration": 0.19264099999998052
                },
                {
                    "name": "G#3",
                    "midi": 56,
                    "time": 330.95723799999655,
                    "velocity": 0.3700787401574803,
                    "duration": 0.19264099999998052
                },
                {
                    "name": "C3",
                    "midi": 48,
                    "time": 331.14987899999653,
                    "velocity": 0.4330708661417323,
                    "duration": 0.19264099999998052
                },
                {
                    "name": "F3",
                    "midi": 53,
                    "time": 331.3425199999965,
                    "velocity": 0.36220472440944884,
                    "duration": 0.19264099999998052
                },
                {
                    "name": "G#3",
                    "midi": 56,
                    "time": 331.5351609999965,
                    "velocity": 0.36220472440944884,
                    "duration": 0.19264099999998052
                },
                {
                    "name": "A#2",
                    "midi": 46,
                    "time": 331.7278019999965,
                    "velocity": 0.4645669291338583,
                    "duration": 0.19264099999998052
                },
                {
                    "name": "E3",
                    "midi": 52,
                    "time": 331.92044299999645,
                    "velocity": 0.30708661417322836,
                    "duration": 0.19264099999998052
                },
                {
                    "name": "G3",
                    "midi": 55,
                    "time": 332.11308399999643,
                    "velocity": 0.30708661417322836,
                    "duration": 0.19264099999998052
                },
                {
                    "name": "G#2",
                    "midi": 44,
                    "time": 332.3057249999964,
                    "velocity": 0.3543307086614173,
                    "duration": 0.19264099999998052
                },
                {
                    "name": "C3",
                    "midi": 48,
                    "time": 332.4983659999964,
                    "velocity": 0.2440944881889764,
                    "duration": 0.19264099999998052
                },
                {
                    "name": "F3",
                    "midi": 53,
                    "time": 332.6910069999964,
                    "velocity": 0.2440944881889764,
                    "duration": 0.19264099999998052
                },
                {
                    "name": "C3",
                    "midi": 48,
                    "time": 332.88364799999636,
                    "velocity": 0.3543307086614173,
                    "duration": 0.19264099999998052
                },
                {
                    "name": "F3",
                    "midi": 53,
                    "time": 333.07628899999634,
                    "velocity": 0.23622047244094488,
                    "duration": 0.19264099999998052
                },
                {
                    "name": "G#3",
                    "midi": 56,
                    "time": 333.2689299999963,
                    "velocity": 0.23622047244094488,
                    "duration": 0.19264099999998052
                },
                {
                    "name": "C3",
                    "midi": 48,
                    "time": 333.4615709999963,
                    "velocity": 0.2992125984251969,
                    "duration": 0.19264099999998052
                },
                {
                    "name": "G3",
                    "midi": 55,
                    "time": 333.6542119999963,
                    "velocity": 0.2440944881889764,
                    "duration": 0.19264099999998052
                },
                {
                    "name": "A#3",
                    "midi": 58,
                    "time": 333.84685299999626,
                    "velocity": 0.2440944881889764,
                    "duration": 0.19264099999998052
                },
                {
                    "name": "F3",
                    "midi": 53,
                    "time": 334.03949399999624,
                    "velocity": 0.5275590551181102,
                    "duration": 0.3852820000000179
                },
                {
                    "name": "A3",
                    "midi": 57,
                    "time": 334.03949399999624,
                    "velocity": 0.5275590551181102,
                    "duration": 0.3852820000000179
                },
                {
                    "name": "G3",
                    "midi": 55,
                    "time": 334.61741699999624,
                    "velocity": 0.5275590551181102,
                    "duration": 0.09632049999999026
                },
                {
                    "name": "E3",
                    "midi": 52,
                    "time": 334.8100579999962,
                    "velocity": 0.4881889763779528,
                    "duration": 0.09632049999999026
                },
                {
                    "name": "C3",
                    "midi": 48,
                    "time": 335.0026989999962,
                    "velocity": 0.4881889763779528,
                    "duration": 0.09632049999999026
                },
                {
                    "name": "F3",
                    "midi": 53,
                    "time": 335.1953399999962,
                    "velocity": 0.5275590551181102,
                    "duration": 0.3852820000000179
                },
                {
                    "name": "G3",
                    "midi": 55,
                    "time": 335.7732629999962,
                    "velocity": 0.5275590551181102,
                    "duration": 0.09632049999999026
                },
                {
                    "name": "E3",
                    "midi": 52,
                    "time": 335.96590399999616,
                    "velocity": 0.4881889763779528,
                    "duration": 0.09632049999999026
                },
                {
                    "name": "C3",
                    "midi": 48,
                    "time": 336.15854499999614,
                    "velocity": 0.4881889763779528,
                    "duration": 0.09632049999999026
                },
                {
                    "name": "F3",
                    "midi": 53,
                    "time": 336.3511859999961,
                    "velocity": 0.5275590551181102,
                    "duration": 0.3852820000000179
                },
                {
                    "name": "G4",
                    "midi": 67,
                    "time": 336.9291089999961,
                    "velocity": 0.5275590551181102,
                    "duration": 0.09632049999999026
                },
                {
                    "name": "E4",
                    "midi": 64,
                    "time": 337.1217499999961,
                    "velocity": 0.4881889763779528,
                    "duration": 0.09632049999999026
                },
                {
                    "name": "C4",
                    "midi": 60,
                    "time": 337.3143909999961,
                    "velocity": 0.4881889763779528,
                    "duration": 0.09632049999999026
                },
                {
                    "name": "F4",
                    "midi": 65,
                    "time": 337.50703199999606,
                    "velocity": 0.5275590551181102,
                    "duration": 0.3852820000000179
                },
                {
                    "name": "G4",
                    "midi": 67,
                    "time": 338.08495499999606,
                    "velocity": 0.5275590551181102,
                    "duration": 0.09632049999999026
                },
                {
                    "name": "E4",
                    "midi": 64,
                    "time": 338.27759599999604,
                    "velocity": 0.4881889763779528,
                    "duration": 0.09632049999999026
                },
                {
                    "name": "C4",
                    "midi": 60,
                    "time": 338.470236999996,
                    "velocity": 0.4881889763779528,
                    "duration": 0.09632049999999026
                },
                {
                    "name": "F4",
                    "midi": 65,
                    "time": 338.662877999996,
                    "velocity": 0.5275590551181102,
                    "duration": 0.3852820000000179
                },
                {
                    "name": "D3",
                    "midi": 50,
                    "time": 341.16721099999603,
                    "velocity": 0.3858267716535433,
                    "duration": 0.2119050999999672
                },
                {
                    "name": "F3",
                    "midi": 53,
                    "time": 341.359851999996,
                    "velocity": 0.4094488188976378,
                    "duration": 0.2119050999999672
                },
                {
                    "name": "G#3",
                    "midi": 56,
                    "time": 341.552492999996,
                    "velocity": 0.4251968503937008,
                    "duration": 0.2119050999999672
                },
                {
                    "name": "G3",
                    "midi": 55,
                    "time": 341.74513399999597,
                    "velocity": 0.3858267716535433,
                    "duration": 0.2119050999999672
                },
                {
                    "name": "F3",
                    "midi": 53,
                    "time": 341.93777499999595,
                    "velocity": 0.3858267716535433,
                    "duration": 0.38528199999996104
                },
                {
                    "name": "E3",
                    "midi": 52,
                    "time": 342.3230569999959,
                    "velocity": 0.3700787401574803,
                    "duration": 0.2119050999999672
                },
                {
                    "name": "G3",
                    "midi": 55,
                    "time": 342.5156979999959,
                    "velocity": 0.3858267716535433,
                    "duration": 0.2119050999999672
                },
                {
                    "name": "C#4",
                    "midi": 61,
                    "time": 342.7083389999959,
                    "velocity": 0.4251968503937008,
                    "duration": 0.2119050999999672
                },
                {
                    "name": "C4",
                    "midi": 60,
                    "time": 342.90097999999585,
                    "velocity": 0.3858267716535433,
                    "duration": 0.2119050999999672
                },
                {
                    "name": "A#3",
                    "midi": 58,
                    "time": 343.09362099999584,
                    "velocity": 0.3858267716535433,
                    "duration": 0.2119050999999672
                },
                {
                    "name": "A3",
                    "midi": 57,
                    "time": 343.2862619999958,
                    "velocity": 0.2992125984251969,
                    "duration": 0.19264099999998052
                },
                {
                    "name": "A#3",
                    "midi": 58,
                    "time": 343.8641849999958,
                    "velocity": 0.31496062992125984,
                    "duration": 0.19264099999998052
                },
                {
                    "name": "A4",
                    "midi": 69,
                    "time": 344.4421079999958,
                    "velocity": 0.31496062992125984,
                    "duration": 0.5779229999999984
                },
                {
                    "name": "C4",
                    "midi": 60,
                    "time": 344.4421079999958,
                    "velocity": 0.2677165354330709,
                    "duration": 1.1558459999999968
                },
                {
                    "name": "A#4",
                    "midi": 70,
                    "time": 345.0200309999958,
                    "velocity": 0.31496062992125984,
                    "duration": 0.5779229999999984
                },
                {
                    "name": "A4",
                    "midi": 69,
                    "time": 345.5979539999958,
                    "velocity": 0.5275590551181102,
                    "duration": 0.3852820000000179
                },
                {
                    "name": "F4",
                    "midi": 65,
                    "time": 345.5979539999958,
                    "velocity": 0.5275590551181102,
                    "duration": 0.3852820000000179
                },
                {
                    "name": "G3",
                    "midi": 55,
                    "time": 346.1758769999958,
                    "velocity": 0.5275590551181102,
                    "duration": 0.09632049999999026
                },
                {
                    "name": "E3",
                    "midi": 52,
                    "time": 346.3685179999958,
                    "velocity": 0.4881889763779528,
                    "duration": 0.09632049999999026
                },
                {
                    "name": "C3",
                    "midi": 48,
                    "time": 346.56115899999577,
                    "velocity": 0.4881889763779528,
                    "duration": 0.09632049999999026
                },
                {
                    "name": "F3",
                    "midi": 53,
                    "time": 346.75379999999575,
                    "velocity": 0.5275590551181102,
                    "duration": 0.3852820000000179
                },
                {
                    "name": "G3",
                    "midi": 55,
                    "time": 347.33172299999575,
                    "velocity": 0.5275590551181102,
                    "duration": 0.09632049999999026
                },
                {
                    "name": "E3",
                    "midi": 52,
                    "time": 347.5243639999957,
                    "velocity": 0.4881889763779528,
                    "duration": 0.09632049999999026
                },
                {
                    "name": "C3",
                    "midi": 48,
                    "time": 347.7170049999957,
                    "velocity": 0.4881889763779528,
                    "duration": 0.09632049999999026
                },
                {
                    "name": "F3",
                    "midi": 53,
                    "time": 347.9096459999957,
                    "velocity": 0.5275590551181102,
                    "duration": 0.3852820000000179
                },
                {
                    "name": "G4",
                    "midi": 67,
                    "time": 348.4875689999957,
                    "velocity": 0.5275590551181102,
                    "duration": 0.09632049999999026
                },
                {
                    "name": "E4",
                    "midi": 64,
                    "time": 348.68020999999567,
                    "velocity": 0.4881889763779528,
                    "duration": 0.09632049999999026
                },
                {
                    "name": "C4",
                    "midi": 60,
                    "time": 348.87285099999565,
                    "velocity": 0.4881889763779528,
                    "duration": 0.09632049999999026
                },
                {
                    "name": "F4",
                    "midi": 65,
                    "time": 349.06549199999563,
                    "velocity": 0.5275590551181102,
                    "duration": 0.3852820000000179
                },
                {
                    "name": "G4",
                    "midi": 67,
                    "time": 349.6434149999956,
                    "velocity": 0.5275590551181102,
                    "duration": 0.09632049999999026
                },
                {
                    "name": "E4",
                    "midi": 64,
                    "time": 349.8360559999956,
                    "velocity": 0.4881889763779528,
                    "duration": 0.09632049999999026
                },
                {
                    "name": "C4",
                    "midi": 60,
                    "time": 350.0286969999956,
                    "velocity": 0.4881889763779528,
                    "duration": 0.09632049999999026
                },
                {
                    "name": "F4",
                    "midi": 65,
                    "time": 350.22133799999557,
                    "velocity": 0.5275590551181102,
                    "duration": 0.3852820000000179
                },
                {
                    "name": "D3",
                    "midi": 50,
                    "time": 352.7256709999956,
                    "velocity": 0.3858267716535433,
                    "duration": 0.2119050999999672
                },
                {
                    "name": "F3",
                    "midi": 53,
                    "time": 352.9183119999956,
                    "velocity": 0.4094488188976378,
                    "duration": 0.2119050999999672
                },
                {
                    "name": "G#3",
                    "midi": 56,
                    "time": 353.11095299999556,
                    "velocity": 0.4251968503937008,
                    "duration": 0.2119050999999672
                },
                {
                    "name": "G3",
                    "midi": 55,
                    "time": 353.30359399999554,
                    "velocity": 0.3858267716535433,
                    "duration": 0.2119050999999672
                },
                {
                    "name": "F3",
                    "midi": 53,
                    "time": 353.4962349999955,
                    "velocity": 0.3858267716535433,
                    "duration": 0.38528199999996104
                },
                {
                    "name": "E3",
                    "midi": 52,
                    "time": 353.8815169999955,
                    "velocity": 0.3700787401574803,
                    "duration": 0.2119050999999672
                },
                {
                    "name": "G3",
                    "midi": 55,
                    "time": 354.07415799999546,
                    "velocity": 0.3858267716535433,
                    "duration": 0.2119050999999672
                },
                {
                    "name": "C#4",
                    "midi": 61,
                    "time": 354.26679899999544,
                    "velocity": 0.4251968503937008,
                    "duration": 0.2119050999999672
                },
                {
                    "name": "C4",
                    "midi": 60,
                    "time": 354.4594399999954,
                    "velocity": 0.3858267716535433,
                    "duration": 0.2119050999999672
                },
                {
                    "name": "A#3",
                    "midi": 58,
                    "time": 354.6520809999954,
                    "velocity": 0.3858267716535433,
                    "duration": 0.2119050999999672
                },
                {
                    "name": "A3",
                    "midi": 57,
                    "time": 354.8447219999954,
                    "velocity": 0.2992125984251969,
                    "duration": 0.19264099999998052
                },
                {
                    "name": "A#3",
                    "midi": 58,
                    "time": 355.4226449999954,
                    "velocity": 0.31496062992125984,
                    "duration": 0.19264099999998052
                },
                {
                    "name": "C4",
                    "midi": 60,
                    "time": 356.0005679999954,
                    "velocity": 0.2677165354330709,
                    "duration": 0.5779229999999984
                },
                {
                    "name": "A4",
                    "midi": 69,
                    "time": 356.0005679999954,
                    "velocity": 0.31496062992125984,
                    "duration": 0.5779229999999984
                },
                {
                    "name": "A#3",
                    "midi": 58,
                    "time": 356.5784909999954,
                    "velocity": 0.25196850393700787,
                    "duration": 0.5779229999999984
                },
                {
                    "name": "G4",
                    "midi": 67,
                    "time": 356.5784909999954,
                    "velocity": 0.31496062992125984,
                    "duration": 0.5779229999999984
                },
                {
                    "name": "A3",
                    "midi": 57,
                    "time": 357.1564139999954,
                    "velocity": 0.5039370078740157,
                    "duration": 0.19264099999998052
                },
                {
                    "name": "C4",
                    "midi": 60,
                    "time": 357.34905499999536,
                    "velocity": 0.41732283464566927,
                    "duration": 0.19264099999998052
                },
                {
                    "name": "F4",
                    "midi": 65,
                    "time": 357.54169599999534,
                    "velocity": 0.41732283464566927,
                    "duration": 0.19264099999998052
                },
                {
                    "name": "A#3",
                    "midi": 58,
                    "time": 357.7343369999953,
                    "velocity": 0.48031496062992124,
                    "duration": 0.19264099999998052
                },
                {
                    "name": "D4",
                    "midi": 62,
                    "time": 357.9269779999953,
                    "velocity": 0.41732283464566927,
                    "duration": 0.19264099999998052
                },
                {
                    "name": "G4",
                    "midi": 67,
                    "time": 358.1196189999953,
                    "velocity": 0.3937007874015748,
                    "duration": 0.19264099999998052
                },
                {
                    "name": "C4",
                    "midi": 60,
                    "time": 358.31225999999526,
                    "velocity": 0.2992125984251969,
                    "duration": 0.19264099999998052
                },
                {
                    "name": "F4",
                    "midi": 65,
                    "time": 358.50490099999524,
                    "velocity": 0.2677165354330709,
                    "duration": 0.19264099999998052
                },
                {
                    "name": "A4",
                    "midi": 69,
                    "time": 358.6975419999952,
                    "velocity": 0.2677165354330709,
                    "duration": 0.19264099999998052
                },
                {
                    "name": "C4",
                    "midi": 60,
                    "time": 358.8901829999952,
                    "velocity": 0.30708661417322836,
                    "duration": 0.19264099999998052
                },
                {
                    "name": "G4",
                    "midi": 67,
                    "time": 359.0828239999952,
                    "velocity": 0.25984251968503935,
                    "duration": 0.19264099999998052
                },
                {
                    "name": "A#4",
                    "midi": 70,
                    "time": 359.27546499999517,
                    "velocity": 0.25984251968503935,
                    "duration": 0.19264099999998052
                },
                {
                    "name": "A4",
                    "midi": 69,
                    "time": 359.46810599999515,
                    "velocity": 0.5196850393700787,
                    "duration": 0.3852820000000179
                },
                {
                    "name": "F4",
                    "midi": 65,
                    "time": 359.46810599999515,
                    "velocity": 0.4409448818897638,
                    "duration": 0.3852820000000179
                },
                {
                    "name": "A#4",
                    "midi": 70,
                    "time": 360.04602899999514,
                    "velocity": 0.5196850393700787,
                    "duration": 0.3852820000000179
                },
                {
                    "name": "C4",
                    "midi": 60,
                    "time": 360.04602899999514,
                    "velocity": 0.4409448818897638,
                    "duration": 0.3852820000000179
                },
                {
                    "name": "E4",
                    "midi": 64,
                    "time": 360.04602899999514,
                    "velocity": 0.5196850393700787,
                    "duration": 0.3852820000000179
                },
                {
                    "name": "F4",
                    "midi": 65,
                    "time": 360.62395199999514,
                    "velocity": 0.4409448818897638,
                    "duration": 0.3852820000000179
                },
                {
                    "name": "A4",
                    "midi": 69,
                    "time": 360.62395199999514,
                    "velocity": 0.5196850393700787,
                    "duration": 0.3852820000000179
                },
                {
                    "name": "A#4",
                    "midi": 70,
                    "time": 361.20187499999514,
                    "velocity": 0.5196850393700787,
                    "duration": 0.3852820000000179
                },
                {
                    "name": "C4",
                    "midi": 60,
                    "time": 361.20187499999514,
                    "velocity": 0.4409448818897638,
                    "duration": 0.3852820000000179
                },
                {
                    "name": "E4",
                    "midi": 64,
                    "time": 361.20187499999514,
                    "velocity": 0.4409448818897638,
                    "duration": 0.3852820000000179
                },
                {
                    "name": "A3",
                    "midi": 57,
                    "time": 361.77979799999514,
                    "velocity": 0.5196850393700787,
                    "duration": 0.3852820000000179
                },
                {
                    "name": "F3",
                    "midi": 53,
                    "time": 361.77979799999514,
                    "velocity": 0.4409448818897638,
                    "duration": 0.3852820000000179
                },
                {
                    "name": "C3",
                    "midi": 48,
                    "time": 362.35772099999514,
                    "velocity": 0.4409448818897638,
                    "duration": 0.3852820000000179
                },
                {
                    "name": "E3",
                    "midi": 52,
                    "time": 362.35772099999514,
                    "velocity": 0.4409448818897638,
                    "duration": 0.3852820000000179
                },
                {
                    "name": "A#3",
                    "midi": 58,
                    "time": 362.35772099999514,
                    "velocity": 0.5196850393700787,
                    "duration": 0.3852820000000179
                },
                {
                    "name": "F2",
                    "midi": 41,
                    "time": 362.93564399999514,
                    "velocity": 0.5511811023622047,
                    "duration": 0.09632049999999026
                },
                {
                    "name": "A2",
                    "midi": 45,
                    "time": 363.1282849999951,
                    "velocity": 0.49606299212598426,
                    "duration": 0.09632049999999026
                },
                {
                    "name": "C3",
                    "midi": 48,
                    "time": 363.3209259999951,
                    "velocity": 0.49606299212598426,
                    "duration": 0.09632049999999026
                },
                {
                    "name": "F3",
                    "midi": 53,
                    "time": 363.5135669999951,
                    "velocity": 0.5511811023622047,
                    "duration": 0.09632049999999026
                },
                {
                    "name": "A3",
                    "midi": 57,
                    "time": 363.70620799999506,
                    "velocity": 0.5039370078740157,
                    "duration": 0.09632049999999026
                },
                {
                    "name": "C4",
                    "midi": 60,
                    "time": 363.89884899999504,
                    "velocity": 0.5039370078740157,
                    "duration": 0.09632049999999026
                },
                {
                    "name": "F4",
                    "midi": 65,
                    "time": 364.091489999995,
                    "velocity": 0.5826771653543307,
                    "duration": 0.19264099999998052
                },
                {
                    "name": "F4",
                    "midi": 65,
                    "time": 364.669412999995,
                    "velocity": 0.5826771653543307,
                    "duration": 0.3852820000000179
                },
                {
                    "name": "F3",
                    "midi": 53,
                    "time": 364.669412999995,
                    "velocity": 0.4881889763779528,
                    "duration": 0.3852820000000179
                },
                {
                    "name": "A2",
                    "midi": 45,
                    "time": 365.247335999995,
                    "velocity": 0.4881889763779528,
                    "duration": 0.3852820000000179
                },
                {
                    "name": "A3",
                    "midi": 57,
                    "time": 365.247335999995,
                    "velocity": 0.5826771653543307,
                    "duration": 0.3852820000000179
                },
                {
                    "name": "A#2",
                    "midi": 46,
                    "time": 366.403181999995,
                    "velocity": 0.4881889763779528,
                    "duration": 0.3852820000000179
                },
                {
                    "name": "A#3",
                    "midi": 58,
                    "time": 366.403181999995,
                    "velocity": 0.5826771653543307,
                    "duration": 0.3852820000000179
                },
                {
                    "name": "B2",
                    "midi": 47,
                    "time": 367.559027999995,
                    "velocity": 0.4881889763779528,
                    "duration": 0.3852820000000179
                },
                {
                    "name": "B3",
                    "midi": 59,
                    "time": 367.559027999995,
                    "velocity": 0.5826771653543307,
                    "duration": 0.3852820000000179
                },
                {
                    "name": "A3",
                    "midi": 57,
                    "time": 368.714873999995,
                    "velocity": 0.33070866141732286,
                    "duration": 1.1558459999999968
                },
                {
                    "name": "C3",
                    "midi": 48,
                    "time": 368.714873999995,
                    "velocity": 0.2755905511811024,
                    "duration": 1.1558459999999968
                },
                {
                    "name": "A#3",
                    "midi": 58,
                    "time": 369.870719999995,
                    "velocity": 0.33070866141732286,
                    "duration": 1.1558459999999968
                },
                {
                    "name": "C3",
                    "midi": 48,
                    "time": 369.870719999995,
                    "velocity": 0.2755905511811024,
                    "duration": 1.1558459999999968
                },
                {
                    "name": "A3",
                    "midi": 57,
                    "time": 371.026565999995,
                    "velocity": 0.33070866141732286,
                    "duration": 0.19264099999998052
                },
                {
                    "name": "F3",
                    "midi": 53,
                    "time": 371.026565999995,
                    "velocity": 0.2755905511811024,
                    "duration": 0.19264099999998052
                },
                {
                    "name": "A2",
                    "midi": 45,
                    "time": 371.41184799999496,
                    "velocity": 0.47244094488188976,
                    "duration": 0.19264099999998052
                },
                {
                    "name": "A#2",
                    "midi": 46,
                    "time": 371.60448899999494,
                    "velocity": 0.5196850393700787,
                    "duration": 0.09632049999999026
                },
                {
                    "name": "G3",
                    "midi": 55,
                    "time": 371.7971299999949,
                    "velocity": 0.48031496062992124,
                    "duration": 0.09632049999999026
                },
                {
                    "name": "B2",
                    "midi": 47,
                    "time": 371.9897709999949,
                    "velocity": 0.48031496062992124,
                    "duration": 0.09632049999999026
                },
                {
                    "name": "C3",
                    "midi": 48,
                    "time": 372.1824119999949,
                    "velocity": 0.5196850393700787,
                    "duration": 0.09632049999999026
                },
                {
                    "name": "A3",
                    "midi": 57,
                    "time": 372.37505299999486,
                    "velocity": 0.48031496062992124,
                    "duration": 0.09632049999999026
                },
                {
                    "name": "C#3",
                    "midi": 49,
                    "time": 372.56769399999484,
                    "velocity": 0.48031496062992124,
                    "duration": 0.09632049999999026
                },
                {
                    "name": "D3",
                    "midi": 50,
                    "time": 372.7603349999948,
                    "velocity": 0.5196850393700787,
                    "duration": 0.09632049999999026
                },
                {
                    "name": "A#3",
                    "midi": 58,
                    "time": 372.9529759999948,
                    "velocity": 0.48031496062992124,
                    "duration": 0.09632049999999026
                },
                {
                    "name": "E3",
                    "midi": 52,
                    "time": 373.1456169999948,
                    "velocity": 0.48031496062992124,
                    "duration": 0.09632049999999026
                },
                {
                    "name": "A#3",
                    "midi": 58,
                    "time": 373.91618099999476,
                    "velocity": 0.2204724409448819,
                    "duration": 0.5779229999999984
                },
                {
                    "name": "C4",
                    "midi": 60,
                    "time": 373.91618099999476,
                    "velocity": 0.2204724409448819,
                    "duration": 0.5779229999999984
                },
                {
                    "name": "G4",
                    "midi": 67,
                    "time": 373.91618099999476,
                    "velocity": 0.2677165354330709,
                    "duration": 0.5779229999999984
                },
                {
                    "name": "E4",
                    "midi": 64,
                    "time": 373.91618099999476,
                    "velocity": 0.2204724409448819,
                    "duration": 0.5779229999999984
                },
                {
                    "name": "C4",
                    "midi": 60,
                    "time": 374.49410399999476,
                    "velocity": 0.3228346456692913,
                    "duration": 0.19264099999998052
                },
                {
                    "name": "A3",
                    "midi": 57,
                    "time": 374.49410399999476,
                    "velocity": 0.3228346456692913,
                    "duration": 0.19264099999998052
                },
                {
                    "name": "F4",
                    "midi": 65,
                    "time": 374.49410399999476,
                    "velocity": 0.3858267716535433,
                    "duration": 0.19264099999998052
                },
                {
                    "name": "C4",
                    "midi": 60,
                    "time": 375.07202699999476,
                    "velocity": 0.33070866141732286,
                    "duration": 0.3852820000000179
                },
                {
                    "name": "C#4",
                    "midi": 61,
                    "time": 375.4573089999948,
                    "velocity": 0.33070866141732286,
                    "duration": 0.19264099999998052
                },
                {
                    "name": "D4",
                    "midi": 62,
                    "time": 375.64994999999476,
                    "velocity": 0.3700787401574803,
                    "duration": 0.7705639999999789
                },
                {
                    "name": "A2",
                    "midi": 45,
                    "time": 377.1910779999947,
                    "velocity": 0.47244094488188976,
                    "duration": 0.19264099999998052
                },
                {
                    "name": "A#2",
                    "midi": 46,
                    "time": 377.3837189999947,
                    "velocity": 0.5196850393700787,
                    "duration": 0.09632049999999026
                },
                {
                    "name": "G3",
                    "midi": 55,
                    "time": 377.5763599999947,
                    "velocity": 0.48031496062992124,
                    "duration": 0.09632049999999026
                },
                {
                    "name": "B2",
                    "midi": 47,
                    "time": 377.76900099999466,
                    "velocity": 0.48031496062992124,
                    "duration": 0.09632049999999026
                },
                {
                    "name": "C3",
                    "midi": 48,
                    "time": 377.96164199999464,
                    "velocity": 0.5196850393700787,
                    "duration": 0.09632049999999026
                },
                {
                    "name": "A3",
                    "midi": 57,
                    "time": 378.1542829999946,
                    "velocity": 0.48031496062992124,
                    "duration": 0.09632049999999026
                },
                {
                    "name": "C#3",
                    "midi": 49,
                    "time": 378.3469239999946,
                    "velocity": 0.48031496062992124,
                    "duration": 0.09632049999999026
                },
                {
                    "name": "D3",
                    "midi": 50,
                    "time": 378.5395649999946,
                    "velocity": 0.5196850393700787,
                    "duration": 0.09632049999999026
                },
                {
                    "name": "A#3",
                    "midi": 58,
                    "time": 378.73220599999456,
                    "velocity": 0.48031496062992124,
                    "duration": 0.09632049999999026
                },
                {
                    "name": "E3",
                    "midi": 52,
                    "time": 378.92484699999454,
                    "velocity": 0.48031496062992124,
                    "duration": 0.09632049999999026
                },
                {
                    "name": "A#3",
                    "midi": 58,
                    "time": 379.6954109999945,
                    "velocity": 0.2204724409448819,
                    "duration": 0.5779229999999984
                },
                {
                    "name": "C4",
                    "midi": 60,
                    "time": 379.6954109999945,
                    "velocity": 0.2204724409448819,
                    "duration": 0.5779229999999984
                },
                {
                    "name": "E4",
                    "midi": 64,
                    "time": 379.6954109999945,
                    "velocity": 0.2204724409448819,
                    "duration": 0.5779229999999984
                },
                {
                    "name": "G4",
                    "midi": 67,
                    "time": 379.6954109999945,
                    "velocity": 0.2677165354330709,
                    "duration": 0.5779229999999984
                },
                {
                    "name": "A3",
                    "midi": 57,
                    "time": 380.2733339999945,
                    "velocity": 0.3228346456692913,
                    "duration": 0.19264099999998052
                },
                {
                    "name": "F4",
                    "midi": 65,
                    "time": 380.2733339999945,
                    "velocity": 0.3858267716535433,
                    "duration": 0.19264099999998052
                },
                {
                    "name": "C4",
                    "midi": 60,
                    "time": 380.2733339999945,
                    "velocity": 0.3228346456692913,
                    "duration": 0.19264099999998052
                },
                {
                    "name": "A#3",
                    "midi": 58,
                    "time": 380.8512569999945,
                    "velocity": 0.25196850393700787,
                    "duration": 0.19264099999998052
                },
                {
                    "name": "D4",
                    "midi": 62,
                    "time": 380.8512569999945,
                    "velocity": 0.25196850393700787,
                    "duration": 0.19264099999998052
                },
                {
                    "name": "F4",
                    "midi": 65,
                    "time": 380.8512569999945,
                    "velocity": 0.3228346456692913,
                    "duration": 0.19264099999998052
                },
                {
                    "name": "A3",
                    "midi": 57,
                    "time": 381.4291799999945,
                    "velocity": 0.25196850393700787,
                    "duration": 0.5779229999999984
                },
                {
                    "name": "C3",
                    "midi": 48,
                    "time": 381.4291799999945,
                    "velocity": 0.2125984251968504,
                    "duration": 1.1558459999999968
                },
                {
                    "name": "A#3",
                    "midi": 58,
                    "time": 382.0071029999945,
                    "velocity": 0.2204724409448819,
                    "duration": 0.5779229999999984
                },
                {
                    "name": "F3",
                    "midi": 53,
                    "time": 382.5850259999945,
                    "velocity": 0.2204724409448819,
                    "duration": 0.5779229999999416
                },
                {
                    "name": "A3",
                    "midi": 57,
                    "time": 382.7776669999945,
                    "velocity": 0.1889763779527559,
                    "duration": 0.19264099999998052
                },
                {
                    "name": "C4",
                    "midi": 60,
                    "time": 382.9703079999945,
                    "velocity": 0.1889763779527559,
                    "duration": 0.19264099999998052
                },
                {
                    "name": "F3",
                    "midi": 53,
                    "time": 383.16294899999446,
                    "velocity": 0.2204724409448819,
                    "duration": 0.5779229999999416
                },
                {
                    "name": "G3",
                    "midi": 55,
                    "time": 383.35558999999444,
                    "velocity": 0.2047244094488189,
                    "duration": 0.19264099999998052
                },
                {
                    "name": "A#3",
                    "midi": 58,
                    "time": 383.5482309999944,
                    "velocity": 0.2047244094488189,
                    "duration": 0.19264099999998052
                },
                {
                    "name": "F3",
                    "midi": 53,
                    "time": 383.7408719999944,
                    "velocity": 0.2204724409448819,
                    "duration": 0.5779229999999416
                },
                {
                    "name": "A3",
                    "midi": 57,
                    "time": 383.9335129999944,
                    "velocity": 0.1889763779527559,
                    "duration": 0.19264099999998052
                },
                {
                    "name": "C4",
                    "midi": 60,
                    "time": 384.12615399999436,
                    "velocity": 0.1889763779527559,
                    "duration": 0.19264099999998052
                },
                {
                    "name": "F3",
                    "midi": 53,
                    "time": 384.31879499999434,
                    "velocity": 0.2204724409448819,
                    "duration": 0.5779229999999416
                },
                {
                    "name": "G3",
                    "midi": 55,
                    "time": 384.5114359999943,
                    "velocity": 0.1889763779527559,
                    "duration": 0.19264099999998052
                },
                {
                    "name": "A#3",
                    "midi": 58,
                    "time": 384.7040769999943,
                    "velocity": 0.1889763779527559,
                    "duration": 0.19264099999998052
                },
                {
                    "name": "F3",
                    "midi": 53,
                    "time": 384.8967179999943,
                    "velocity": 0.2204724409448819,
                    "duration": 0.5779229999999416
                },
                {
                    "name": "A3",
                    "midi": 57,
                    "time": 385.08935899999426,
                    "velocity": 0.1889763779527559,
                    "duration": 0.19264099999998052
                },
                {
                    "name": "C4",
                    "midi": 60,
                    "time": 385.28199999999424,
                    "velocity": 0.1889763779527559,
                    "duration": 0.19264099999998052
                },
                {
                    "name": "F3",
                    "midi": 53,
                    "time": 385.4746409999942,
                    "velocity": 0.2204724409448819,
                    "duration": 0.5779229999999416
                },
                {
                    "name": "A3",
                    "midi": 57,
                    "time": 385.6672819999942,
                    "velocity": 0.1889763779527559,
                    "duration": 0.19264099999998052
                },
                {
                    "name": "C4",
                    "midi": 60,
                    "time": 385.8599229999942,
                    "velocity": 0.1889763779527559,
                    "duration": 0.19264099999998052
                },
                {
                    "name": "F3",
                    "midi": 53,
                    "time": 386.05256399999416,
                    "velocity": 0.2204724409448819,
                    "duration": 0.7705639999999789
                },
                {
                    "name": "F2",
                    "midi": 41,
                    "time": 386.05256399999416,
                    "velocity": 0.18110236220472442,
                    "duration": 0.7705639999999789
                },
                {
                    "name": "C3",
                    "midi": 48,
                    "time": 387.20840999999416,
                    "velocity": 0.5511811023622047,
                    "duration": 0.3852820000000179
                },
                {
                    "name": "D#2",
                    "midi": 39,
                    "time": 387.20840999999416,
                    "velocity": 0.4645669291338583,
                    "duration": 0.3852820000000179
                },
                {
                    "name": "G2",
                    "midi": 43,
                    "time": 387.20840999999416,
                    "velocity": 0.4645669291338583,
                    "duration": 0.3852820000000179
                },
                {
                    "name": "C2",
                    "midi": 36,
                    "time": 387.20840999999416,
                    "velocity": 0.4645669291338583,
                    "duration": 0.3852820000000179
                },
                {
                    "name": "D#3",
                    "midi": 51,
                    "time": 390.09802499999415,
                    "velocity": 0.5511811023622047,
                    "duration": 0.09632049999999026
                },
                {
                    "name": "D3",
                    "midi": 50,
                    "time": 390.29066599999413,
                    "velocity": 0.5196850393700787,
                    "duration": 0.09632049999999026
                },
                {
                    "name": "D#3",
                    "midi": 51,
                    "time": 390.4833069999941,
                    "velocity": 0.5196850393700787,
                    "duration": 0.09632049999999026
                },
                {
                    "name": "F3",
                    "midi": 53,
                    "time": 390.6759479999941,
                    "velocity": 0.5511811023622047,
                    "duration": 0.09632049999999026
                },
                {
                    "name": "D#3",
                    "midi": 51,
                    "time": 390.8685889999941,
                    "velocity": 0.5275590551181102,
                    "duration": 0.09632049999999026
                },
                {
                    "name": "F3",
                    "midi": 53,
                    "time": 391.06122999999405,
                    "velocity": 0.5275590551181102,
                    "duration": 0.09632049999999026
                },
                {
                    "name": "G3",
                    "midi": 55,
                    "time": 391.25387099999404,
                    "velocity": 0.5511811023622047,
                    "duration": 0.09632049999999026
                },
                {
                    "name": "F3",
                    "midi": 53,
                    "time": 391.446511999994,
                    "velocity": 0.5275590551181102,
                    "duration": 0.09632049999999026
                },
                {
                    "name": "G3",
                    "midi": 55,
                    "time": 391.639152999994,
                    "velocity": 0.5275590551181102,
                    "duration": 0.09632049999999026
                },
                {
                    "name": "G#3",
                    "midi": 56,
                    "time": 391.831793999994,
                    "velocity": 0.5826771653543307,
                    "duration": 0.3852820000000179
                },
                {
                    "name": "G3",
                    "midi": 55,
                    "time": 392.217075999994,
                    "velocity": 0.5275590551181102,
                    "duration": 0.09632049999999026
                },
                {
                    "name": "G#3",
                    "midi": 56,
                    "time": 392.409716999994,
                    "velocity": 0.5826771653543307,
                    "duration": 0.3852820000000179
                },
                {
                    "name": "G3",
                    "midi": 55,
                    "time": 392.794998999994,
                    "velocity": 0.5196850393700787,
                    "duration": 0.09632049999999026
                },
                {
                    "name": "F#3",
                    "midi": 54,
                    "time": 392.987639999994,
                    "velocity": 0.3464566929133858,
                    "duration": 0.20066770833329883
                },
                {
                    "name": "G3",
                    "midi": 55,
                    "time": 393.18028099999395,
                    "velocity": 0.2992125984251969,
                    "duration": 0.19264099999998052
                },
                {
                    "name": "F#3",
                    "midi": 54,
                    "time": 393.37292199999393,
                    "velocity": 0.4330708661417323,
                    "duration": 0.20066770833329883
                },
                {
                    "name": "G3",
                    "midi": 55,
                    "time": 393.5655629999939,
                    "velocity": 0.47244094488188976,
                    "duration": 0.19264099999998052
                },
                {
                    "name": "G#3",
                    "midi": 56,
                    "time": 393.7582039999939,
                    "velocity": 0.49606299212598426,
                    "duration": 0.20066770833329883
                },
                {
                    "name": "G3",
                    "midi": 55,
                    "time": 393.9508449999939,
                    "velocity": 0.3700787401574803,
                    "duration": 0.19264099999998052
                },
                {
                    "name": "F#3",
                    "midi": 54,
                    "time": 394.14348599999386,
                    "velocity": 0.3700787401574803,
                    "duration": 0.20066770833329883
                },
                {
                    "name": "G3",
                    "midi": 55,
                    "time": 394.33612699999384,
                    "velocity": 0.33070866141732286,
                    "duration": 0.19264099999998052
                },
                {
                    "name": "F#3",
                    "midi": 54,
                    "time": 394.5287679999938,
                    "velocity": 0.4645669291338583,
                    "duration": 0.20066770833329883
                },
                {
                    "name": "G3",
                    "midi": 55,
                    "time": 394.7214089999938,
                    "velocity": 0.41732283464566927,
                    "duration": 0.19264099999998052
                },
                {
                    "name": "G#3",
                    "midi": 56,
                    "time": 394.9140499999938,
                    "velocity": 0.5039370078740157,
                    "duration": 0.20066770833329883
                },
                {
                    "name": "G3",
                    "midi": 55,
                    "time": 395.10669099999376,
                    "velocity": 0.3228346456692913,
                    "duration": 0.19264099999998052
                },
                {
                    "name": "F#3",
                    "midi": 54,
                    "time": 395.39565249999373,
                    "velocity": 0.33070866141732286,
                    "duration": 0.09632049999999026
                },
                {
                    "name": "A3",
                    "midi": 57,
                    "time": 395.4919729999937,
                    "velocity": 0.3464566929133858,
                    "duration": 0.09632049999999026
                },
                {
                    "name": "C4",
                    "midi": 60,
                    "time": 395.5882934999937,
                    "velocity": 0.36220472440944884,
                    "duration": 0.09632049999999026
                },
                {
                    "name": "D4",
                    "midi": 62,
                    "time": 395.6846139999937,
                    "velocity": 0.3779527559055118,
                    "duration": 0.09632049999999026
                },
                {
                    "name": "G3",
                    "midi": 55,
                    "time": 397.6110239999937,
                    "velocity": 0.3464566929133858,
                    "duration": 0.20066770833329883
                },
                {
                    "name": "G#3",
                    "midi": 56,
                    "time": 397.80366499999366,
                    "velocity": 0.2992125984251969,
                    "duration": 0.19264099999998052
                },
                {
                    "name": "G3",
                    "midi": 55,
                    "time": 397.99630599999364,
                    "velocity": 0.4330708661417323,
                    "duration": 0.20066770833329883
                },
                {
                    "name": "G#3",
                    "midi": 56,
                    "time": 398.1889469999936,
                    "velocity": 0.4330708661417323,
                    "duration": 0.19264099999998052
                },
                {
                    "name": "A#3",
                    "midi": 58,
                    "time": 398.3815879999936,
                    "velocity": 0.49606299212598426,
                    "duration": 0.20066770833329883
                },
                {
                    "name": "G#3",
                    "midi": 56,
                    "time": 398.5742289999936,
                    "velocity": 0.3700787401574803,
                    "duration": 0.19264099999998052
                },
                {
                    "name": "G3",
                    "midi": 55,
                    "time": 398.76686999999356,
                    "velocity": 0.3700787401574803,
                    "duration": 0.20066770833329883
                },
                {
                    "name": "G#3",
                    "midi": 56,
                    "time": 398.95951099999354,
                    "velocity": 0.33070866141732286,
                    "duration": 0.19264099999998052
                },
                {
                    "name": "G3",
                    "midi": 55,
                    "time": 399.1521519999935,
                    "velocity": 0.4645669291338583,
                    "duration": 0.20066770833329883
                },
                {
                    "name": "G#3",
                    "midi": 56,
                    "time": 399.3447929999935,
                    "velocity": 0.41732283464566927,
                    "duration": 0.19264099999998052
                },
                {
                    "name": "A#3",
                    "midi": 58,
                    "time": 399.5374339999935,
                    "velocity": 0.5039370078740157,
                    "duration": 0.20066770833329883
                },
                {
                    "name": "G#3",
                    "midi": 56,
                    "time": 399.73007499999346,
                    "velocity": 0.3228346456692913,
                    "duration": 0.19264099999998052
                },
                {
                    "name": "G3",
                    "midi": 55,
                    "time": 400.01903649999343,
                    "velocity": 0.33070866141732286,
                    "duration": 0.09632049999999026
                },
                {
                    "name": "B3",
                    "midi": 59,
                    "time": 400.1153569999934,
                    "velocity": 0.3464566929133858,
                    "duration": 0.09632049999999026
                },
                {
                    "name": "D4",
                    "midi": 62,
                    "time": 400.2116774999934,
                    "velocity": 0.36220472440944884,
                    "duration": 0.09632049999999026
                },
                {
                    "name": "F4",
                    "midi": 65,
                    "time": 400.3079979999934,
                    "velocity": 0.3779527559055118,
                    "duration": 0.09632049999999026
                },
                {
                    "name": "C4",
                    "midi": 60,
                    "time": 402.2344079999934,
                    "velocity": 0.3464566929133858,
                    "duration": 0.20066770833329883
                },
                {
                    "name": "B3",
                    "midi": 59,
                    "time": 402.42704899999336,
                    "velocity": 0.2992125984251969,
                    "duration": 0.19264099999998052
                },
                {
                    "name": "C4",
                    "midi": 60,
                    "time": 402.61968999999334,
                    "velocity": 0.3543307086614173,
                    "duration": 0.20066770833329883
                },
                {
                    "name": "C#4",
                    "midi": 61,
                    "time": 402.8123309999933,
                    "velocity": 0.4251968503937008,
                    "duration": 0.19264099999998052
                },
                {
                    "name": "C4",
                    "midi": 60,
                    "time": 403.0049719999933,
                    "velocity": 0.3858267716535433,
                    "duration": 0.20066770833329883
                },
                {
                    "name": "B3",
                    "midi": 59,
                    "time": 403.1976129999933,
                    "velocity": 0.3464566929133858,
                    "duration": 0.19264099999998052
                },
                {
                    "name": "C4",
                    "midi": 60,
                    "time": 403.39025399999326,
                    "velocity": 0.3700787401574803,
                    "duration": 0.20066770833329883
                },
                {
                    "name": "B3",
                    "midi": 59,
                    "time": 403.58289499999324,
                    "velocity": 0.33070866141732286,
                    "duration": 0.19264099999998052
                },
                {
                    "name": "C4",
                    "midi": 60,
                    "time": 403.7755359999932,
                    "velocity": 0.3779527559055118,
                    "duration": 0.20066770833329883
                },
                {
                    "name": "C#4",
                    "midi": 61,
                    "time": 403.9681769999932,
                    "velocity": 0.4015748031496063,
                    "duration": 0.19264099999998052
                },
                {
                    "name": "C4",
                    "midi": 60,
                    "time": 404.1608179999932,
                    "velocity": 0.36220472440944884,
                    "duration": 0.20066770833329883
                },
                {
                    "name": "B3",
                    "midi": 59,
                    "time": 404.35345899999317,
                    "velocity": 0.3228346456692913,
                    "duration": 0.19264099999998052
                },
                {
                    "name": "C3",
                    "midi": 48,
                    "time": 404.64242049999314,
                    "velocity": 0.33070866141732286,
                    "duration": 0.09632049999999026
                },
                {
                    "name": "E3",
                    "midi": 52,
                    "time": 404.7387409999931,
                    "velocity": 0.3464566929133858,
                    "duration": 0.09632049999999026
                },
                {
                    "name": "G3",
                    "midi": 55,
                    "time": 404.8350614999931,
                    "velocity": 0.36220472440944884,
                    "duration": 0.09632049999999026
                },
                {
                    "name": "A#3",
                    "midi": 58,
                    "time": 404.9313819999931,
                    "velocity": 0.3779527559055118,
                    "duration": 0.09632049999999026
                },
                {
                    "name": "A3",
                    "midi": 57,
                    "time": 406.8577919999931,
                    "velocity": 0.3464566929133858,
                    "duration": 0.20066770833329883
                },
                {
                    "name": "A#3",
                    "midi": 58,
                    "time": 407.05043299999306,
                    "velocity": 0.2992125984251969,
                    "duration": 0.19264099999998052
                },
                {
                    "name": "A3",
                    "midi": 57,
                    "time": 407.24307399999304,
                    "velocity": 0.4330708661417323,
                    "duration": 0.20066770833329883
                },
                {
                    "name": "A#3",
                    "midi": 58,
                    "time": 407.435714999993,
                    "velocity": 0.4330708661417323,
                    "duration": 0.19264099999998052
                },
                {
                    "name": "B3",
                    "midi": 59,
                    "time": 407.628355999993,
                    "velocity": 0.49606299212598426,
                    "duration": 0.20066770833329883
                },
                {
                    "name": "A#3",
                    "midi": 58,
                    "time": 407.820996999993,
                    "velocity": 0.3700787401574803,
                    "duration": 0.19264099999998052
                },
                {
                    "name": "A3",
                    "midi": 57,
                    "time": 408.01363799999297,
                    "velocity": 0.3700787401574803,
                    "duration": 0.20066770833329883
                },
                {
                    "name": "A#3",
                    "midi": 58,
                    "time": 408.20627899999295,
                    "velocity": 0.33070866141732286,
                    "duration": 0.19264099999998052
                },
                {
                    "name": "A3",
                    "midi": 57,
                    "time": 408.3989199999929,
                    "velocity": 0.4645669291338583,
                    "duration": 0.20066770833329883
                },
                {
                    "name": "A#3",
                    "midi": 58,
                    "time": 408.5915609999929,
                    "velocity": 0.41732283464566927,
                    "duration": 0.19264099999998052
                },
                {
                    "name": "B3",
                    "midi": 59,
                    "time": 408.7842019999929,
                    "velocity": 0.5039370078740157,
                    "duration": 0.20066770833329883
                },
                {
                    "name": "A#3",
                    "midi": 58,
                    "time": 408.97684299999287,
                    "velocity": 0.3228346456692913,
                    "duration": 0.19264099999998052
                },
                {
                    "name": "A3",
                    "midi": 57,
                    "time": 409.26580449999284,
                    "velocity": 0.33070866141732286,
                    "duration": 0.09632049999999026
                },
                {
                    "name": "C4",
                    "midi": 60,
                    "time": 409.36212499999283,
                    "velocity": 0.3464566929133858,
                    "duration": 0.09632049999999026
                },
                {
                    "name": "D#4",
                    "midi": 63,
                    "time": 409.4584454999928,
                    "velocity": 0.36220472440944884,
                    "duration": 0.09632049999999026
                },
                {
                    "name": "F4",
                    "midi": 65,
                    "time": 409.5547659999928,
                    "velocity": 0.3779527559055118,
                    "duration": 0.09632049999999026
                },
                {
                    "name": "A#3",
                    "midi": 58,
                    "time": 411.4811759999928,
                    "velocity": 0.2283464566929134,
                    "duration": 0.19264099999998052
                },
                {
                    "name": "D4",
                    "midi": 62,
                    "time": 411.67381699999277,
                    "velocity": 0.1968503937007874,
                    "duration": 0.19264099999998052
                },
                {
                    "name": "F4",
                    "midi": 65,
                    "time": 411.86645799999275,
                    "velocity": 0.1968503937007874,
                    "duration": 0.19264099999998052
                },
                {
                    "name": "A3",
                    "midi": 57,
                    "time": 412.0590989999927,
                    "velocity": 0.23622047244094488,
                    "duration": 0.19264099999998052
                },
                {
                    "name": "C4",
                    "midi": 60,
                    "time": 412.2517399999927,
                    "velocity": 0.2047244094488189,
                    "duration": 0.19264099999998052
                },
                {
                    "name": "F4",
                    "midi": 65,
                    "time": 412.4443809999927,
                    "velocity": 0.2047244094488189,
                    "duration": 0.19264099999998052
                },
                {
                    "name": "G3",
                    "midi": 55,
                    "time": 412.63702199999267,
                    "velocity": 0.23622047244094488,
                    "duration": 0.19264099999998052
                },
                {
                    "name": "A#3",
                    "midi": 58,
                    "time": 412.82966299999265,
                    "velocity": 0.2125984251968504,
                    "duration": 0.19264099999998052
                },
                {
                    "name": "D#4",
                    "midi": 63,
                    "time": 413.02230399999263,
                    "velocity": 0.2125984251968504,
                    "duration": 0.19264099999998052
                },
                {
                    "name": "F#3",
                    "midi": 54,
                    "time": 413.2149449999926,
                    "velocity": 0.2283464566929134,
                    "duration": 0.19264099999998052
                },
                {
                    "name": "A3",
                    "midi": 57,
                    "time": 413.4075859999926,
                    "velocity": 0.1968503937007874,
                    "duration": 0.19264099999998052
                },
                {
                    "name": "D4",
                    "midi": 62,
                    "time": 413.60022699999257,
                    "velocity": 0.1968503937007874,
                    "duration": 0.19264099999998052
                },
                {
                    "name": "G3",
                    "midi": 55,
                    "time": 413.79286799999255,
                    "velocity": 0.25196850393700787,
                    "duration": 0.19264099999998052
                },
                {
                    "name": "A#3",
                    "midi": 58,
                    "time": 413.98550899999253,
                    "velocity": 0.1968503937007874,
                    "duration": 0.19264099999998052
                },
                {
                    "name": "D#4",
                    "midi": 63,
                    "time": 414.1781499999925,
                    "velocity": 0.1968503937007874,
                    "duration": 0.19264099999998052
                },
                {
                    "name": "F3",
                    "midi": 53,
                    "time": 414.3707909999925,
                    "velocity": 0.2440944881889764,
                    "duration": 0.19264099999998052
                },
                {
                    "name": "A3",
                    "midi": 57,
                    "time": 414.5634319999925,
                    "velocity": 0.2125984251968504,
                    "duration": 0.19264099999998052
                },
                {
                    "name": "D4",
                    "midi": 62,
                    "time": 414.75607299999245,
                    "velocity": 0.2125984251968504,
                    "duration": 0.19264099999998052
                },
                {
                    "name": "D#3",
                    "midi": 51,
                    "time": 414.94871399999244,
                    "velocity": 0.29133858267716534,
                    "duration": 0.19264099999998052
                },
                {
                    "name": "G3",
                    "midi": 55,
                    "time": 415.1413549999924,
                    "velocity": 0.25196850393700787,
                    "duration": 0.19264099999998052
                },
                {
                    "name": "C4",
                    "midi": 60,
                    "time": 415.3339959999924,
                    "velocity": 0.25196850393700787,
                    "duration": 0.19264099999998052
                },
                {
                    "name": "D3",
                    "midi": 50,
                    "time": 415.5266369999924,
                    "velocity": 0.2677165354330709,
                    "duration": 0.19264099999998052
                },
                {
                    "name": "F3",
                    "midi": 53,
                    "time": 415.71927799999236,
                    "velocity": 0.2204724409448819,
                    "duration": 0.19264099999998052
                },
                {
                    "name": "A#3",
                    "midi": 58,
                    "time": 415.91191899999234,
                    "velocity": 0.1889763779527559,
                    "duration": 0.19264099999998052
                },
                {
                    "name": "C3",
                    "midi": 48,
                    "time": 416.1045599999923,
                    "velocity": 0.25196850393700787,
                    "duration": 0.19264099999998052
                },
                {
                    "name": "G3",
                    "midi": 55,
                    "time": 416.2972009999923,
                    "velocity": 0.2125984251968504,
                    "duration": 0.19264099999998052
                },
                {
                    "name": "A#3",
                    "midi": 58,
                    "time": 416.4898419999923,
                    "velocity": 0.2125984251968504,
                    "duration": 0.19264099999998052
                },
                {
                    "name": "F3",
                    "midi": 53,
                    "time": 416.68248299999226,
                    "velocity": 0.25984251968503935,
                    "duration": 0.19264099999998052
                },
                {
                    "name": "A3",
                    "midi": 57,
                    "time": 416.87512399999224,
                    "velocity": 0.2283464566929134,
                    "duration": 0.19264099999998052
                },
                {
                    "name": "C4",
                    "midi": 60,
                    "time": 417.0677649999922,
                    "velocity": 0.2283464566929134,
                    "duration": 0.19264099999998052
                },
                {
                    "name": "A#2",
                    "midi": 46,
                    "time": 417.2604059999922,
                    "velocity": 0.28346456692913385,
                    "duration": 0.19264099999998052
                },
                {
                    "name": "F3",
                    "midi": 53,
                    "time": 417.4530469999922,
                    "velocity": 0.2440944881889764,
                    "duration": 0.19264099999998052
                },
                {
                    "name": "A#3",
                    "midi": 58,
                    "time": 417.64568799999216,
                    "velocity": 0.2283464566929134,
                    "duration": 0.19264099999998052
                },
                {
                    "name": "F#3",
                    "midi": 54,
                    "time": 417.83832899999214,
                    "velocity": 0.25984251968503935,
                    "duration": 0.19264099999998052
                },
                {
                    "name": "A#3",
                    "midi": 58,
                    "time": 418.0309699999921,
                    "velocity": 0.25984251968503935,
                    "duration": 0.19264099999998052
                },
                {
                    "name": "C#4",
                    "midi": 61,
                    "time": 418.2236109999921,
                    "velocity": 0.25984251968503935,
                    "duration": 0.19264099999998052
                },
                {
                    "name": "D#3",
                    "midi": 51,
                    "time": 418.4162519999921,
                    "velocity": 0.30708661417322836,
                    "duration": 0.19264099999998052
                },
                {
                    "name": "F#3",
                    "midi": 54,
                    "time": 418.60889299999207,
                    "velocity": 0.2755905511811024,
                    "duration": 0.19264099999998052
                },
                {
                    "name": "A#3",
                    "midi": 58,
                    "time": 418.80153399999205,
                    "velocity": 0.28346456692913385,
                    "duration": 0.19264099999998052
                },
                {
                    "name": "E3",
                    "midi": 52,
                    "time": 418.994174999992,
                    "velocity": 0.3543307086614173,
                    "duration": 0.19264099999998052
                },
                {
                    "name": "G3",
                    "midi": 55,
                    "time": 419.186815999992,
                    "velocity": 0.2992125984251969,
                    "duration": 0.19264099999998052
                },
                {
                    "name": "C#4",
                    "midi": 61,
                    "time": 419.379456999992,
                    "velocity": 0.30708661417322836,
                    "duration": 0.19264099999998052
                },
                {
                    "name": "F3",
                    "midi": 53,
                    "time": 419.57209799999197,
                    "velocity": 0.3700787401574803,
                    "duration": 0.19264099999998052
                },
                {
                    "name": "A3",
                    "midi": 57,
                    "time": 419.76473899999195,
                    "velocity": 0.31496062992125984,
                    "duration": 0.19264099999998052
                },
                {
                    "name": "C4",
                    "midi": 60,
                    "time": 419.95737999999193,
                    "velocity": 0.31496062992125984,
                    "duration": 0.19264099999998052
                },
                {
                    "name": "F3",
                    "midi": 53,
                    "time": 420.1500209999919,
                    "velocity": 0.3779527559055118,
                    "duration": 0.19264099999998052
                },
                {
                    "name": "D#3",
                    "midi": 51,
                    "time": 420.3426619999919,
                    "velocity": 0.33070866141732286,
                    "duration": 0.19264099999998052
                },
                {
                    "name": "C3",
                    "midi": 48,
                    "time": 420.53530299999187,
                    "velocity": 0.33858267716535434,
                    "duration": 0.19264099999998052
                },
                {
                    "name": "A#3",
                    "midi": 58,
                    "time": 420.72794399999185,
                    "velocity": 0.4566929133858268,
                    "duration": 0.3852820000000179
                },
                {
                    "name": "A#2",
                    "midi": 46,
                    "time": 420.72794399999185,
                    "velocity": 0.3858267716535433,
                    "duration": 0.3852820000000179
                },
                {
                    "name": "A2",
                    "midi": 45,
                    "time": 421.30586699999185,
                    "velocity": 0.3858267716535433,
                    "duration": 0.3852820000000179
                },
                {
                    "name": "A3",
                    "midi": 57,
                    "time": 421.30586699999185,
                    "velocity": 0.4566929133858268,
                    "duration": 0.3852820000000179
                },
                {
                    "name": "G2",
                    "midi": 43,
                    "time": 421.88378999999185,
                    "velocity": 0.3858267716535433,
                    "duration": 0.9632050000000163
                },
                {
                    "name": "G3",
                    "midi": 55,
                    "time": 421.88378999999185,
                    "velocity": 0.4566929133858268,
                    "duration": 0.9632050000000163
                },
                {
                    "name": "F#3",
                    "midi": 54,
                    "time": 422.84699499999186,
                    "velocity": 0.44881889763779526,
                    "duration": 0.19264099999998052
                },
                {
                    "name": "F#2",
                    "midi": 42,
                    "time": 422.84699499999186,
                    "velocity": 0.3779527559055118,
                    "duration": 0.19264099999998052
                },
                {
                    "name": "G3",
                    "midi": 55,
                    "time": 423.03963599999184,
                    "velocity": 0.44881889763779526,
                    "duration": 0.3852820000000179
                },
                {
                    "name": "G2",
                    "midi": 43,
                    "time": 423.03963599999184,
                    "velocity": 0.3779527559055118,
                    "duration": 0.3852820000000179
                },
                {
                    "name": "F2",
                    "midi": 41,
                    "time": 423.61755899999184,
                    "velocity": 0.3779527559055118,
                    "duration": 0.3852820000000179
                },
                {
                    "name": "F3",
                    "midi": 53,
                    "time": 423.61755899999184,
                    "velocity": 0.44881889763779526,
                    "duration": 0.3852820000000179
                },
                {
                    "name": "D#3",
                    "midi": 51,
                    "time": 424.19548199999184,
                    "velocity": 0.3700787401574803,
                    "duration": 0.9632050000000163
                },
                {
                    "name": "D#2",
                    "midi": 39,
                    "time": 424.19548199999184,
                    "velocity": 0.30708661417322836,
                    "duration": 0.9632050000000163
                },
                {
                    "name": "D2",
                    "midi": 38,
                    "time": 425.15868699999186,
                    "velocity": 0.2755905511811024,
                    "duration": 0.19264099999998052
                },
                {
                    "name": "D3",
                    "midi": 50,
                    "time": 425.15868699999186,
                    "velocity": 0.33070866141732286,
                    "duration": 0.19264099999998052
                },
                {
                    "name": "C3",
                    "midi": 48,
                    "time": 425.35132799999184,
                    "velocity": 0.4015748031496063,
                    "duration": 0.09632049999999026
                },
                {
                    "name": "G3",
                    "midi": 55,
                    "time": 425.44764849999183,
                    "velocity": 0.3464566929133858,
                    "duration": 0.09632049999999026
                },
                {
                    "name": "A#3",
                    "midi": 58,
                    "time": 425.5439689999918,
                    "velocity": 0.3464566929133858,
                    "duration": 0.09632049999999026
                },
                {
                    "name": "F#3",
                    "midi": 54,
                    "time": 425.92925099999184,
                    "velocity": 0.4015748031496063,
                    "duration": 0.09632049999999026
                },
                {
                    "name": "A3",
                    "midi": 57,
                    "time": 426.0255714999918,
                    "velocity": 0.33070866141732286,
                    "duration": 0.09632049999999026
                },
                {
                    "name": "C4",
                    "midi": 60,
                    "time": 426.1218919999918,
                    "velocity": 0.3464566929133858,
                    "duration": 0.09632049999999026
                },
                {
                    "name": "G3",
                    "midi": 55,
                    "time": 426.50717399999183,
                    "velocity": 0.4015748031496063,
                    "duration": 0.09632049999999026
                },
                {
                    "name": "A#3",
                    "midi": 58,
                    "time": 426.6034944999918,
                    "velocity": 0.33070866141732286,
                    "duration": 0.09632049999999026
                },
                {
                    "name": "D4",
                    "midi": 62,
                    "time": 426.6998149999918,
                    "velocity": 0.33070866141732286,
                    "duration": 0.09632049999999026
                },
                {
                    "name": "D#3",
                    "midi": 51,
                    "time": 427.08509699999183,
                    "velocity": 0.44881889763779526,
                    "duration": 0.09632049999999026
                },
                {
                    "name": "G3",
                    "midi": 55,
                    "time": 427.1814174999918,
                    "velocity": 0.3858267716535433,
                    "duration": 0.09632049999999026
                },
                {
                    "name": "C4",
                    "midi": 60,
                    "time": 427.2777379999918,
                    "velocity": 0.3858267716535433,
                    "duration": 0.09632049999999026
                },
                {
                    "name": "F2",
                    "midi": 41,
                    "time": 427.66301999999183,
                    "velocity": 0.49606299212598426,
                    "duration": 0.09632049999999026
                },
                {
                    "name": "D3",
                    "midi": 50,
                    "time": 427.7593404999918,
                    "velocity": 0.4409448818897638,
                    "duration": 0.09632049999999026
                },
                {
                    "name": "F3",
                    "midi": 53,
                    "time": 427.8556609999918,
                    "velocity": 0.4409448818897638,
                    "duration": 0.09632049999999026
                },
                {
                    "name": "F2",
                    "midi": 41,
                    "time": 428.24094299999183,
                    "velocity": 0.5511811023622047,
                    "duration": 0.09632049999999026
                },
                {
                    "name": "C3",
                    "midi": 48,
                    "time": 428.3372634999918,
                    "velocity": 0.48031496062992124,
                    "duration": 0.09632049999999026
                },
                {
                    "name": "F3",
                    "midi": 53,
                    "time": 428.4335839999918,
                    "velocity": 0.48031496062992124,
                    "duration": 0.09632049999999026
                },
                {
                    "name": "A#1",
                    "midi": 34,
                    "time": 428.81886599999183,
                    "velocity": 0.5669291338582677,
                    "duration": 0.7705639999999789
                },
                {
                    "name": "D2",
                    "midi": 38,
                    "time": 429.5894299999918,
                    "velocity": 0.33070866141732286,
                    "duration": 0.19264099999998052
                },
                {
                    "name": "F2",
                    "midi": 41,
                    "time": 429.7820709999918,
                    "velocity": 0.3464566929133858,
                    "duration": 0.19264099999998052
                },
                {
                    "name": "A#2",
                    "midi": 46,
                    "time": 429.97471199999177,
                    "velocity": 0.36220472440944884,
                    "duration": 1.15584599999994
                },
                {
                    "name": "D3",
                    "midi": 50,
                    "time": 430.16735299999175,
                    "velocity": 0.3779527559055118,
                    "duration": 0.19264099999998052
                },
                {
                    "name": "F3",
                    "midi": 53,
                    "time": 430.35999399999173,
                    "velocity": 0.3937007874015748,
                    "duration": 0.19264099999998052
                },
                {
                    "name": "A#3",
                    "midi": 58,
                    "time": 430.5526349999917,
                    "velocity": 0.4094488188976378,
                    "duration": 0.19264099999998052
                },
                {
                    "name": "A2",
                    "midi": 45,
                    "time": 431.1305579999917,
                    "velocity": 0.3543307086614173,
                    "duration": 2.3116919999999936
                },
                {
                    "name": "C3",
                    "midi": 48,
                    "time": 431.1305579999917,
                    "velocity": 0.3543307086614173,
                    "duration": 2.3116919999999936
                },
                {
                    "name": "D#3",
                    "midi": 51,
                    "time": 431.1305579999917,
                    "velocity": 0.3543307086614173,
                    "duration": 1.1558459999999968
                },
                {
                    "name": "F#3",
                    "midi": 54,
                    "time": 432.2864039999917,
                    "velocity": 0.3543307086614173,
                    "duration": 1.1558459999999968
                },
                {
                    "name": "G3",
                    "midi": 55,
                    "time": 433.4422499999917,
                    "velocity": 0.3543307086614173,
                    "duration": 2.3116919999999936
                },
                {
                    "name": "D3",
                    "midi": 50,
                    "time": 433.4422499999917,
                    "velocity": 0.3543307086614173,
                    "duration": 2.3116919999999936
                },
                {
                    "name": "A#2",
                    "midi": 46,
                    "time": 433.4422499999917,
                    "velocity": 0.3543307086614173,
                    "duration": 2.3116919999999936
                },
                {
                    "name": "C#4",
                    "midi": 61,
                    "time": 435.7539419999917,
                    "velocity": 0.25984251968503935,
                    "duration": 0.3852820000000179
                },
                {
                    "name": "A#3",
                    "midi": 58,
                    "time": 435.7539419999917,
                    "velocity": 0.2047244094488189,
                    "duration": 0.3852820000000179
                },
                {
                    "name": "C#4",
                    "midi": 61,
                    "time": 436.3318649999917,
                    "velocity": 0.25984251968503935,
                    "duration": 0.3852820000000179
                },
                {
                    "name": "A#3",
                    "midi": 58,
                    "time": 436.3318649999917,
                    "velocity": 0.2047244094488189,
                    "duration": 0.3852820000000179
                },
                {
                    "name": "A#3",
                    "midi": 58,
                    "time": 436.9097879999917,
                    "velocity": 0.2047244094488189,
                    "duration": 0.3852820000000179
                },
                {
                    "name": "C4",
                    "midi": 60,
                    "time": 436.9097879999917,
                    "velocity": 0.25984251968503935,
                    "duration": 0.3852820000000179
                },
                {
                    "name": "C4",
                    "midi": 60,
                    "time": 437.4877109999917,
                    "velocity": 0.25984251968503935,
                    "duration": 0.3852820000000179
                },
                {
                    "name": "A#3",
                    "midi": 58,
                    "time": 437.4877109999917,
                    "velocity": 0.2047244094488189,
                    "duration": 0.3852820000000179
                },
                {
                    "name": "G#2",
                    "midi": 44,
                    "time": 438.0656339999917,
                    "velocity": 0.3937007874015748,
                    "duration": 2.3116919999999936
                },
                {
                    "name": "G#3",
                    "midi": 56,
                    "time": 438.0656339999917,
                    "velocity": 0.47244094488188976,
                    "duration": 2.3116919999999936
                },
                {
                    "name": "D4",
                    "midi": 62,
                    "time": 440.3773259999917,
                    "velocity": 0.3543307086614173,
                    "duration": 1.1558459999998831
                },
                {
                    "name": "E4",
                    "midi": 64,
                    "time": 440.56996699999166,
                    "velocity": 0.3228346456692913,
                    "duration": 0.19264099999998052
                },
                {
                    "name": "F4",
                    "midi": 65,
                    "time": 440.76260799999164,
                    "velocity": 0.3228346456692913,
                    "duration": 0.19264099999998052
                },
                {
                    "name": "G#4",
                    "midi": 68,
                    "time": 440.9552489999916,
                    "velocity": 0.3543307086614173,
                    "duration": 0.19264099999998052
                },
                {
                    "name": "E4",
                    "midi": 64,
                    "time": 441.1478899999916,
                    "velocity": 0.3228346456692913,
                    "duration": 0.19264099999998052
                },
                {
                    "name": "F4",
                    "midi": 65,
                    "time": 441.3405309999916,
                    "velocity": 0.3228346456692913,
                    "duration": 0.19264099999998052
                },
                {
                    "name": "C#4",
                    "midi": 61,
                    "time": 441.53317199999157,
                    "velocity": 0.3543307086614173,
                    "duration": 1.1558459999998831
                },
                {
                    "name": "G#4",
                    "midi": 68,
                    "time": 441.53317199999157,
                    "velocity": 0.4251968503937008,
                    "duration": 0.19264099999998052
                },
                {
                    "name": "E4",
                    "midi": 64,
                    "time": 441.72581299999155,
                    "velocity": 0.33070866141732286,
                    "duration": 0.19264099999998052
                },
                {
                    "name": "F4",
                    "midi": 65,
                    "time": 441.9184539999915,
                    "velocity": 0.33070866141732286,
                    "duration": 0.19264099999998052
                },
                {
                    "name": "G#4",
                    "midi": 68,
                    "time": 442.1110949999915,
                    "velocity": 0.4094488188976378,
                    "duration": 0.19264099999998052
                },
                {
                    "name": "G4",
                    "midi": 67,
                    "time": 442.3037359999915,
                    "velocity": 0.3700787401574803,
                    "duration": 0.19264099999998052
                },
                {
                    "name": "F4",
                    "midi": 65,
                    "time": 442.49637699999147,
                    "velocity": 0.4094488188976378,
                    "duration": 0.19264099999998052
                },
                {
                    "name": "C3",
                    "midi": 48,
                    "time": 442.68901799999145,
                    "velocity": 0.3858267716535433,
                    "duration": 0.3852820000000179
                },
                {
                    "name": "C4",
                    "midi": 60,
                    "time": 442.68901799999145,
                    "velocity": 0.4566929133858268,
                    "duration": 0.3852820000000179
                },
                {
                    "name": "C4",
                    "midi": 60,
                    "time": 443.26694099999145,
                    "velocity": 0.4566929133858268,
                    "duration": 0.3852820000000179
                },
                {
                    "name": "C3",
                    "midi": 48,
                    "time": 443.26694099999145,
                    "velocity": 0.3858267716535433,
                    "duration": 0.3852820000000179
                },
                {
                    "name": "C3",
                    "midi": 48,
                    "time": 443.84486399999145,
                    "velocity": 0.3858267716535433,
                    "duration": 0.3852820000000179
                },
                {
                    "name": "C4",
                    "midi": 60,
                    "time": 443.84486399999145,
                    "velocity": 0.44881889763779526,
                    "duration": 0.3852820000000179
                },
                {
                    "name": "C4",
                    "midi": 60,
                    "time": 444.42278699999144,
                    "velocity": 0.44881889763779526,
                    "duration": 0.3852820000000179
                },
                {
                    "name": "C3",
                    "midi": 48,
                    "time": 444.42278699999144,
                    "velocity": 0.3858267716535433,
                    "duration": 0.3852820000000179
                },
                {
                    "name": "C3",
                    "midi": 48,
                    "time": 445.00070999999144,
                    "velocity": 0.3858267716535433,
                    "duration": 0.3852820000000179
                },
                {
                    "name": "C4",
                    "midi": 60,
                    "time": 445.00070999999144,
                    "velocity": 0.44881889763779526,
                    "duration": 0.3852820000000179
                },
                {
                    "name": "C4",
                    "midi": 60,
                    "time": 445.57863299999144,
                    "velocity": 0.4409448818897638,
                    "duration": 0.3852820000000179
                },
                {
                    "name": "C3",
                    "midi": 48,
                    "time": 445.57863299999144,
                    "velocity": 0.3779527559055118,
                    "duration": 0.3852820000000179
                },
                {
                    "name": "C2",
                    "midi": 36,
                    "time": 446.15655599999144,
                    "velocity": 0.5669291338582677,
                    "duration": 0.09632049999999026
                },
                {
                    "name": "E2",
                    "midi": 40,
                    "time": 446.3491969999914,
                    "velocity": 0.47244094488188976,
                    "duration": 0.09632049999999026
                },
                {
                    "name": "G2",
                    "midi": 43,
                    "time": 446.5418379999914,
                    "velocity": 0.47244094488188976,
                    "duration": 0.09632049999999026
                },
                {
                    "name": "C3",
                    "midi": 48,
                    "time": 446.7344789999914,
                    "velocity": 0.5433070866141733,
                    "duration": 0.09632049999999026
                },
                {
                    "name": "E3",
                    "midi": 52,
                    "time": 446.92711999999136,
                    "velocity": 0.47244094488188976,
                    "duration": 0.09632049999999026
                },
                {
                    "name": "G3",
                    "midi": 55,
                    "time": 447.11976099999134,
                    "velocity": 0.47244094488188976,
                    "duration": 0.09632049999999026
                },
                {
                    "name": "C4",
                    "midi": 60,
                    "time": 447.3124019999913,
                    "velocity": 0.5433070866141733,
                    "duration": 0.19264099999998052
                },
                {
                    "name": "C4",
                    "midi": 60,
                    "time": 450.7799399999913,
                    "velocity": 0.4645669291338583,
                    "duration": 0.1059525499999836
                },
                {
                    "name": "C#4",
                    "midi": 61,
                    "time": 450.8762604999913,
                    "velocity": 0.47244094488188976,
                    "duration": 0.1059525499999836
                },
                {
                    "name": "D4",
                    "midi": 62,
                    "time": 450.9725809999913,
                    "velocity": 0.4881889763779528,
                    "duration": 0.1059525499999836
                },
                {
                    "name": "C4",
                    "midi": 60,
                    "time": 451.0689014999913,
                    "velocity": 0.49606299212598426,
                    "duration": 0.1059525499999836
                },
                {
                    "name": "A#3",
                    "midi": 58,
                    "time": 451.1652219999913,
                    "velocity": 0.4881889763779528,
                    "duration": 0.1059525499999836
                },
                {
                    "name": "A3",
                    "midi": 57,
                    "time": 451.26154249999126,
                    "velocity": 0.47244094488188976,
                    "duration": 0.1059525499999836
                },
                {
                    "name": "G3",
                    "midi": 55,
                    "time": 451.35786299999126,
                    "velocity": 0.4645669291338583,
                    "duration": 0.1059525499999836
                },
                {
                    "name": "A3",
                    "midi": 57,
                    "time": 451.45418349999125,
                    "velocity": 0.48031496062992124,
                    "duration": 0.1059525499999836
                },
                {
                    "name": "A#3",
                    "midi": 58,
                    "time": 451.55050399999124,
                    "velocity": 0.4881889763779528,
                    "duration": 0.1059525499999836
                },
                {
                    "name": "A3",
                    "midi": 57,
                    "time": 451.6468244999912,
                    "velocity": 0.48031496062992124,
                    "duration": 0.1059525499999836
                },
                {
                    "name": "G3",
                    "midi": 55,
                    "time": 451.7431449999912,
                    "velocity": 0.4645669291338583,
                    "duration": 0.1059525499999836
                },
                {
                    "name": "F3",
                    "midi": 53,
                    "time": 451.8394654999912,
                    "velocity": 0.44881889763779526,
                    "duration": 0.1059525499999836
                },
                {
                    "name": "E3",
                    "midi": 52,
                    "time": 451.9357859999912,
                    "velocity": 0.4566929133858268,
                    "duration": 0.1059525499999836
                },
                {
                    "name": "F3",
                    "midi": 53,
                    "time": 452.0321064999912,
                    "velocity": 0.47244094488188976,
                    "duration": 0.1059525499999836
                },
                {
                    "name": "G3",
                    "midi": 55,
                    "time": 452.1284269999912,
                    "velocity": 0.4881889763779528,
                    "duration": 0.1059525499999836
                },
                {
                    "name": "F3",
                    "midi": 53,
                    "time": 452.22474749999117,
                    "velocity": 0.48031496062992124,
                    "duration": 0.1059525499999836
                },
                {
                    "name": "E3",
                    "midi": 52,
                    "time": 452.32106799999116,
                    "velocity": 0.48031496062992124,
                    "duration": 0.1059525499999836
                },
                {
                    "name": "D3",
                    "midi": 50,
                    "time": 452.41738849999115,
                    "velocity": 0.47244094488188976,
                    "duration": 0.1059525499999836
                },
                {
                    "name": "C3",
                    "midi": 48,
                    "time": 452.51370899999114,
                    "velocity": 0.4645669291338583,
                    "duration": 0.1059525499999836
                },
                {
                    "name": "D3",
                    "midi": 50,
                    "time": 452.61002949999113,
                    "velocity": 0.47244094488188976,
                    "duration": 0.1059525499999836
                },
                {
                    "name": "C3",
                    "midi": 48,
                    "time": 452.7063499999911,
                    "velocity": 0.48031496062992124,
                    "duration": 0.1059525499999836
                },
                {
                    "name": "A#2",
                    "midi": 46,
                    "time": 452.8026704999911,
                    "velocity": 0.48031496062992124,
                    "duration": 0.1059525499999836
                },
                {
                    "name": "A2",
                    "midi": 45,
                    "time": 452.8989909999911,
                    "velocity": 0.47244094488188976,
                    "duration": 0.1059525499999836
                },
                {
                    "name": "G2",
                    "midi": 43,
                    "time": 452.9953114999911,
                    "velocity": 0.4566929133858268,
                    "duration": 0.09632049999999026
                },
                {
                    "name": "F3",
                    "midi": 53,
                    "time": 453.0916319999911,
                    "velocity": 0.5511811023622047,
                    "duration": 0.3852820000000179
                },
                {
                    "name": "A2",
                    "midi": 45,
                    "time": 453.0916319999911,
                    "velocity": 0.4645669291338583,
                    "duration": 0.3852820000000179
                },
                {
                    "name": "C3",
                    "midi": 48,
                    "time": 453.0916319999911,
                    "velocity": 0.4645669291338583,
                    "duration": 0.3852820000000179
                },
                {
                    "name": "F2",
                    "midi": 41,
                    "time": 453.0916319999911,
                    "velocity": 0.4645669291338583,
                    "duration": 0.3852820000000179
                },
                {
                    "name": "A3",
                    "midi": 57,
                    "time": 455.9812469999911,
                    "velocity": 0.5511811023622047,
                    "duration": 0.09632049999999026
                },
                {
                    "name": "G3",
                    "midi": 55,
                    "time": 456.17388799999105,
                    "velocity": 0.5196850393700787,
                    "duration": 0.09632049999999026
                },
                {
                    "name": "A3",
                    "midi": 57,
                    "time": 456.36652899999103,
                    "velocity": 0.5196850393700787,
                    "duration": 0.09632049999999026
                },
                {
                    "name": "A#3",
                    "midi": 58,
                    "time": 456.559169999991,
                    "velocity": 0.5511811023622047,
                    "duration": 0.09632049999999026
                },
                {
                    "name": "A3",
                    "midi": 57,
                    "time": 456.751810999991,
                    "velocity": 0.5275590551181102,
                    "duration": 0.09632049999999026
                },
                {
                    "name": "A#3",
                    "midi": 58,
                    "time": 456.944451999991,
                    "velocity": 0.5275590551181102,
                    "duration": 0.09632049999999026
                },
                {
                    "name": "C4",
                    "midi": 60,
                    "time": 457.13709299999095,
                    "velocity": 0.5511811023622047,
                    "duration": 0.09632049999999026
                },
                {
                    "name": "A#3",
                    "midi": 58,
                    "time": 457.32973399999094,
                    "velocity": 0.5275590551181102,
                    "duration": 0.09632049999999026
                },
                {
                    "name": "C4",
                    "midi": 60,
                    "time": 457.5223749999909,
                    "velocity": 0.5275590551181102,
                    "duration": 0.09632049999999026
                },
                {
                    "name": "C#4",
                    "midi": 61,
                    "time": 457.7150159999909,
                    "velocity": 0.5826771653543307,
                    "duration": 0.3852820000000179
                },
                {
                    "name": "C4",
                    "midi": 60,
                    "time": 458.1002979999909,
                    "velocity": 0.5275590551181102,
                    "duration": 0.09632049999999026
                },
                {
                    "name": "C#4",
                    "midi": 61,
                    "time": 458.2929389999909,
                    "velocity": 0.5826771653543307,
                    "duration": 0.3852820000000179
                },
                {
                    "name": "C4",
                    "midi": 60,
                    "time": 458.6782209999909,
                    "velocity": 0.5196850393700787,
                    "duration": 0.09632049999999026
                },
                {
                    "name": "B3",
                    "midi": 59,
                    "time": 458.8708619999909,
                    "velocity": 0.3700787401574803,
                    "duration": 0.09632049999999026
                },
                {
                    "name": "B3",
                    "midi": 59,
                    "time": 459.0635029999909,
                    "velocity": 0.3700787401574803,
                    "duration": 0.09632049999999026
                },
                {
                    "name": "B3",
                    "midi": 59,
                    "time": 459.25614399999085,
                    "velocity": 0.3700787401574803,
                    "duration": 0.09632049999999026
                },
                {
                    "name": "C4",
                    "midi": 60,
                    "time": 459.44878499999083,
                    "velocity": 0.3937007874015748,
                    "duration": 0.19264099999998052
                },
                {
                    "name": "A2",
                    "midi": 45,
                    "time": 460.02670799999083,
                    "velocity": 0.4645669291338583,
                    "duration": 0.3852820000000179
                },
                {
                    "name": "C3",
                    "midi": 48,
                    "time": 460.02670799999083,
                    "velocity": 0.4645669291338583,
                    "duration": 0.3852820000000179
                },
                {
                    "name": "F3",
                    "midi": 53,
                    "time": 460.02670799999083,
                    "velocity": 0.5511811023622047,
                    "duration": 0.3852820000000179
                },
                {
                    "name": "F2",
                    "midi": 41,
                    "time": 460.02670799999083,
                    "velocity": 0.4645669291338583,
                    "duration": 0.3852820000000179
                },
                {
                    "name": "A3",
                    "midi": 57,
                    "time": 462.9163229999908,
                    "velocity": 0.5511811023622047,
                    "duration": 0.09632049999999026
                },
                {
                    "name": "G3",
                    "midi": 55,
                    "time": 463.1089639999908,
                    "velocity": 0.5196850393700787,
                    "duration": 0.09632049999999026
                },
                {
                    "name": "A3",
                    "midi": 57,
                    "time": 463.3016049999908,
                    "velocity": 0.5196850393700787,
                    "duration": 0.09632049999999026
                },
                {
                    "name": "A#3",
                    "midi": 58,
                    "time": 463.49424599999077,
                    "velocity": 0.5511811023622047,
                    "duration": 0.09632049999999026
                },
                {
                    "name": "A3",
                    "midi": 57,
                    "time": 463.68688699999075,
                    "velocity": 0.5275590551181102,
                    "duration": 0.09632049999999026
                },
                {
                    "name": "A#3",
                    "midi": 58,
                    "time": 463.8795279999907,
                    "velocity": 0.5275590551181102,
                    "duration": 0.09632049999999026
                },
                {
                    "name": "C4",
                    "midi": 60,
                    "time": 464.0721689999907,
                    "velocity": 0.5511811023622047,
                    "duration": 0.09632049999999026
                },
                {
                    "name": "A#3",
                    "midi": 58,
                    "time": 464.2648099999907,
                    "velocity": 0.5275590551181102,
                    "duration": 0.09632049999999026
                },
                {
                    "name": "C4",
                    "midi": 60,
                    "time": 464.45745099999067,
                    "velocity": 0.5275590551181102,
                    "duration": 0.09632049999999026
                },
                {
                    "name": "C#4",
                    "midi": 61,
                    "time": 464.65009199999065,
                    "velocity": 0.5826771653543307,
                    "duration": 0.3852820000000179
                },
                {
                    "name": "C4",
                    "midi": 60,
                    "time": 465.03537399999067,
                    "velocity": 0.5275590551181102,
                    "duration": 0.09632049999999026
                },
                {
                    "name": "C#4",
                    "midi": 61,
                    "time": 465.22801499999065,
                    "velocity": 0.5826771653543307,
                    "duration": 0.3852820000000179
                },
                {
                    "name": "C4",
                    "midi": 60,
                    "time": 465.61329699999067,
                    "velocity": 0.5196850393700787,
                    "duration": 0.09632049999999026
                },
                {
                    "name": "B3",
                    "midi": 59,
                    "time": 465.80593799999065,
                    "velocity": 0.28346456692913385,
                    "duration": 0.09632049999999026
                },
                {
                    "name": "A#3",
                    "midi": 58,
                    "time": 466.38386099999065,
                    "velocity": 0.28346456692913385,
                    "duration": 0.09632049999999026
                },
                {
                    "name": "A3",
                    "midi": 57,
                    "time": 466.96178399999064,
                    "velocity": 0.2755905511811024,
                    "duration": 0.09632049999999026
                },
                {
                    "name": "A#2",
                    "midi": 46,
                    "time": 467.53970699999064,
                    "velocity": 0.4566929133858268,
                    "duration": 0.09632049999999026
                },
                {
                    "name": "A#3",
                    "midi": 58,
                    "time": 467.63602749999063,
                    "velocity": 0.48031496062992124,
                    "duration": 0.09632049999999026
                },
                {
                    "name": "E3",
                    "midi": 52,
                    "time": 468.11762999999064,
                    "velocity": 0.3543307086614173,
                    "duration": 0.5779229999999984
                },
                {
                    "name": "A#3",
                    "midi": 58,
                    "time": 468.11762999999064,
                    "velocity": 0.44881889763779526,
                    "duration": 0.5779229999999984
                },
                {
                    "name": "C3",
                    "midi": 48,
                    "time": 468.11762999999064,
                    "velocity": 0.3543307086614173,
                    "duration": 0.5779229999999984
                },
                {
                    "name": "F3",
                    "midi": 53,
                    "time": 468.69555299999064,
                    "velocity": 0.31496062992125984,
                    "duration": 0.19264099999998052
                },
                {
                    "name": "A3",
                    "midi": 57,
                    "time": 468.69555299999064,
                    "velocity": 0.4015748031496063,
                    "duration": 0.19264099999998052
                },
                {
                    "name": "C3",
                    "midi": 48,
                    "time": 469.27347599999064,
                    "velocity": 0.3228346456692913,
                    "duration": 0.19264099999998052
                },
                {
                    "name": "C4",
                    "midi": 60,
                    "time": 469.4661169999906,
                    "velocity": 0.2440944881889764,
                    "duration": 0.09632049999999026
                },
                {
                    "name": "A#3",
                    "midi": 58,
                    "time": 469.4661169999906,
                    "velocity": 0.1889763779527559,
                    "duration": 0.09632049999999026
                },
                {
                    "name": "C4",
                    "midi": 60,
                    "time": 469.6587579999906,
                    "velocity": 0.2440944881889764,
                    "duration": 0.09632049999999026
                },
                {
                    "name": "A#3",
                    "midi": 58,
                    "time": 469.6587579999906,
                    "velocity": 0.1889763779527559,
                    "duration": 0.09632049999999026
                },
                {
                    "name": "C4",
                    "midi": 60,
                    "time": 469.8513989999906,
                    "velocity": 0.2440944881889764,
                    "duration": 0.09632049999999026
                },
                {
                    "name": "A#3",
                    "midi": 58,
                    "time": 469.8513989999906,
                    "velocity": 0.1889763779527559,
                    "duration": 0.09632049999999026
                },
                {
                    "name": "C4",
                    "midi": 60,
                    "time": 470.04403999999056,
                    "velocity": 0.2440944881889764,
                    "duration": 0.09632049999999026
                },
                {
                    "name": "A#3",
                    "midi": 58,
                    "time": 470.04403999999056,
                    "velocity": 0.1889763779527559,
                    "duration": 0.09632049999999026
                },
                {
                    "name": "C4",
                    "midi": 60,
                    "time": 470.23668099999054,
                    "velocity": 0.2440944881889764,
                    "duration": 0.09632049999999026
                },
                {
                    "name": "A#3",
                    "midi": 58,
                    "time": 470.23668099999054,
                    "velocity": 0.1889763779527559,
                    "duration": 0.09632049999999026
                },
                {
                    "name": "F3",
                    "midi": 53,
                    "time": 470.4293219999905,
                    "velocity": 0.3228346456692913,
                    "duration": 0.19264099999998052
                },
                {
                    "name": "A3",
                    "midi": 57,
                    "time": 470.6219629999905,
                    "velocity": 0.1889763779527559,
                    "duration": 0.09632049999999026
                },
                {
                    "name": "C4",
                    "midi": 60,
                    "time": 470.6219629999905,
                    "velocity": 0.2440944881889764,
                    "duration": 0.09632049999999026
                },
                {
                    "name": "A3",
                    "midi": 57,
                    "time": 470.8146039999905,
                    "velocity": 0.1889763779527559,
                    "duration": 0.09632049999999026
                },
                {
                    "name": "C4",
                    "midi": 60,
                    "time": 470.8146039999905,
                    "velocity": 0.2440944881889764,
                    "duration": 0.09632049999999026
                },
                {
                    "name": "C4",
                    "midi": 60,
                    "time": 471.00724499999046,
                    "velocity": 0.2440944881889764,
                    "duration": 0.09632049999999026
                },
                {
                    "name": "A3",
                    "midi": 57,
                    "time": 471.00724499999046,
                    "velocity": 0.1889763779527559,
                    "duration": 0.09632049999999026
                },
                {
                    "name": "C4",
                    "midi": 60,
                    "time": 471.19988599999044,
                    "velocity": 0.2440944881889764,
                    "duration": 0.09632049999999026
                },
                {
                    "name": "A3",
                    "midi": 57,
                    "time": 471.19988599999044,
                    "velocity": 0.1889763779527559,
                    "duration": 0.09632049999999026
                },
                {
                    "name": "C4",
                    "midi": 60,
                    "time": 471.3925269999904,
                    "velocity": 0.2440944881889764,
                    "duration": 0.09632049999999026
                },
                {
                    "name": "A3",
                    "midi": 57,
                    "time": 471.3925269999904,
                    "velocity": 0.1889763779527559,
                    "duration": 0.09632049999999026
                },
                {
                    "name": "C3",
                    "midi": 48,
                    "time": 471.5851679999904,
                    "velocity": 0.3228346456692913,
                    "duration": 0.19264099999998052
                },
                {
                    "name": "G3",
                    "midi": 55,
                    "time": 471.7778089999904,
                    "velocity": 0.1889763779527559,
                    "duration": 0.09632049999999026
                },
                {
                    "name": "C4",
                    "midi": 60,
                    "time": 471.7778089999904,
                    "velocity": 0.2440944881889764,
                    "duration": 0.09632049999999026
                },
                {
                    "name": "G3",
                    "midi": 55,
                    "time": 471.97044999999036,
                    "velocity": 0.1889763779527559,
                    "duration": 0.09632049999999026
                },
                {
                    "name": "C4",
                    "midi": 60,
                    "time": 471.97044999999036,
                    "velocity": 0.2440944881889764,
                    "duration": 0.09632049999999026
                },
                {
                    "name": "G3",
                    "midi": 55,
                    "time": 472.16309099999035,
                    "velocity": 0.1889763779527559,
                    "duration": 0.09632049999999026
                },
                {
                    "name": "C4",
                    "midi": 60,
                    "time": 472.16309099999035,
                    "velocity": 0.2440944881889764,
                    "duration": 0.09632049999999026
                },
                {
                    "name": "G3",
                    "midi": 55,
                    "time": 472.3557319999903,
                    "velocity": 0.1889763779527559,
                    "duration": 0.09632049999999026
                },
                {
                    "name": "C4",
                    "midi": 60,
                    "time": 472.3557319999903,
                    "velocity": 0.2440944881889764,
                    "duration": 0.09632049999999026
                },
                {
                    "name": "G3",
                    "midi": 55,
                    "time": 472.5483729999903,
                    "velocity": 0.1889763779527559,
                    "duration": 0.09632049999999026
                },
                {
                    "name": "C4",
                    "midi": 60,
                    "time": 472.5483729999903,
                    "velocity": 0.2440944881889764,
                    "duration": 0.09632049999999026
                },
                {
                    "name": "F3",
                    "midi": 53,
                    "time": 472.7410139999903,
                    "velocity": 0.3228346456692913,
                    "duration": 0.19264099999998052
                },
                {
                    "name": "A3",
                    "midi": 57,
                    "time": 472.93365499999027,
                    "velocity": 0.1889763779527559,
                    "duration": 0.09632049999999026
                },
                {
                    "name": "C4",
                    "midi": 60,
                    "time": 472.93365499999027,
                    "velocity": 0.2440944881889764,
                    "duration": 0.09632049999999026
                },
                {
                    "name": "A3",
                    "midi": 57,
                    "time": 473.12629599999025,
                    "velocity": 0.1889763779527559,
                    "duration": 0.09632049999999026
                },
                {
                    "name": "C4",
                    "midi": 60,
                    "time": 473.12629599999025,
                    "velocity": 0.2440944881889764,
                    "duration": 0.09632049999999026
                },
                {
                    "name": "A3",
                    "midi": 57,
                    "time": 473.3189369999902,
                    "velocity": 0.1889763779527559,
                    "duration": 0.09632049999999026
                },
                {
                    "name": "C4",
                    "midi": 60,
                    "time": 473.3189369999902,
                    "velocity": 0.2440944881889764,
                    "duration": 0.09632049999999026
                },
                {
                    "name": "A3",
                    "midi": 57,
                    "time": 473.5115779999902,
                    "velocity": 0.1889763779527559,
                    "duration": 0.09632049999999026
                },
                {
                    "name": "C4",
                    "midi": 60,
                    "time": 473.5115779999902,
                    "velocity": 0.2440944881889764,
                    "duration": 0.09632049999999026
                },
                {
                    "name": "A3",
                    "midi": 57,
                    "time": 473.7042189999902,
                    "velocity": 0.1889763779527559,
                    "duration": 0.09632049999999026
                },
                {
                    "name": "C4",
                    "midi": 60,
                    "time": 473.7042189999902,
                    "velocity": 0.2440944881889764,
                    "duration": 0.09632049999999026
                },
                {
                    "name": "C3",
                    "midi": 48,
                    "time": 473.89685999999017,
                    "velocity": 0.3228346456692913,
                    "duration": 0.19264099999998052
                },
                {
                    "name": "C4",
                    "midi": 60,
                    "time": 474.08950099999015,
                    "velocity": 0.2440944881889764,
                    "duration": 0.09632049999999026
                },
                {
                    "name": "A#3",
                    "midi": 58,
                    "time": 474.08950099999015,
                    "velocity": 0.1889763779527559,
                    "duration": 0.09632049999999026
                },
                {
                    "name": "C4",
                    "midi": 60,
                    "time": 474.28214199999013,
                    "velocity": 0.2440944881889764,
                    "duration": 0.09632049999999026
                },
                {
                    "name": "A#3",
                    "midi": 58,
                    "time": 474.28214199999013,
                    "velocity": 0.1889763779527559,
                    "duration": 0.09632049999999026
                },
                {
                    "name": "C4",
                    "midi": 60,
                    "time": 474.4747829999901,
                    "velocity": 0.2440944881889764,
                    "duration": 0.09632049999999026
                },
                {
                    "name": "A#3",
                    "midi": 58,
                    "time": 474.4747829999901,
                    "velocity": 0.1889763779527559,
                    "duration": 0.09632049999999026
                },
                {
                    "name": "C4",
                    "midi": 60,
                    "time": 474.6674239999901,
                    "velocity": 0.2440944881889764,
                    "duration": 0.09632049999999026
                },
                {
                    "name": "A#3",
                    "midi": 58,
                    "time": 474.6674239999901,
                    "velocity": 0.1889763779527559,
                    "duration": 0.09632049999999026
                },
                {
                    "name": "A#3",
                    "midi": 58,
                    "time": 474.8600649999901,
                    "velocity": 0.1889763779527559,
                    "duration": 0.09632049999999026
                },
                {
                    "name": "C4",
                    "midi": 60,
                    "time": 474.8600649999901,
                    "velocity": 0.2440944881889764,
                    "duration": 0.09632049999999026
                },
                {
                    "name": "F3",
                    "midi": 53,
                    "time": 475.05270599999005,
                    "velocity": 0.3228346456692913,
                    "duration": 0.19264099999998052
                },
                {
                    "name": "A3",
                    "midi": 57,
                    "time": 475.24534699999003,
                    "velocity": 0.1889763779527559,
                    "duration": 0.09632049999999026
                },
                {
                    "name": "C4",
                    "midi": 60,
                    "time": 475.24534699999003,
                    "velocity": 0.2440944881889764,
                    "duration": 0.09632049999999026
                },
                {
                    "name": "A3",
                    "midi": 57,
                    "time": 475.43798799999,
                    "velocity": 0.1889763779527559,
                    "duration": 0.09632049999999026
                },
                {
                    "name": "C4",
                    "midi": 60,
                    "time": 475.43798799999,
                    "velocity": 0.2440944881889764,
                    "duration": 0.09632049999999026
                },
                {
                    "name": "C4",
                    "midi": 60,
                    "time": 475.63062899999,
                    "velocity": 0.2440944881889764,
                    "duration": 0.09632049999999026
                },
                {
                    "name": "A3",
                    "midi": 57,
                    "time": 475.63062899999,
                    "velocity": 0.1889763779527559,
                    "duration": 0.09632049999999026
                },
                {
                    "name": "C4",
                    "midi": 60,
                    "time": 475.82326999999,
                    "velocity": 0.2440944881889764,
                    "duration": 0.09632049999999026
                },
                {
                    "name": "A3",
                    "midi": 57,
                    "time": 475.82326999999,
                    "velocity": 0.1889763779527559,
                    "duration": 0.09632049999999026
                },
                {
                    "name": "C4",
                    "midi": 60,
                    "time": 476.01591099998996,
                    "velocity": 0.2440944881889764,
                    "duration": 0.09632049999999026
                },
                {
                    "name": "A3",
                    "midi": 57,
                    "time": 476.01591099998996,
                    "velocity": 0.1889763779527559,
                    "duration": 0.09632049999999026
                },
                {
                    "name": "C3",
                    "midi": 48,
                    "time": 476.20855199998994,
                    "velocity": 0.3228346456692913,
                    "duration": 0.19264099999998052
                },
                {
                    "name": "G3",
                    "midi": 55,
                    "time": 476.4011929999899,
                    "velocity": 0.1889763779527559,
                    "duration": 0.09632049999999026
                },
                {
                    "name": "C4",
                    "midi": 60,
                    "time": 476.4011929999899,
                    "velocity": 0.2440944881889764,
                    "duration": 0.09632049999999026
                },
                {
                    "name": "C4",
                    "midi": 60,
                    "time": 476.5938339999899,
                    "velocity": 0.2440944881889764,
                    "duration": 0.09632049999999026
                },
                {
                    "name": "G3",
                    "midi": 55,
                    "time": 476.5938339999899,
                    "velocity": 0.1889763779527559,
                    "duration": 0.09632049999999026
                },
                {
                    "name": "A#3",
                    "midi": 58,
                    "time": 476.7864749999899,
                    "velocity": 0.1889763779527559,
                    "duration": 0.09632049999999026
                },
                {
                    "name": "C4",
                    "midi": 60,
                    "time": 476.7864749999899,
                    "velocity": 0.2440944881889764,
                    "duration": 0.09632049999999026
                },
                {
                    "name": "C4",
                    "midi": 60,
                    "time": 476.97911599998986,
                    "velocity": 0.2440944881889764,
                    "duration": 0.09632049999999026
                },
                {
                    "name": "A#3",
                    "midi": 58,
                    "time": 476.97911599998986,
                    "velocity": 0.1889763779527559,
                    "duration": 0.09632049999999026
                },
                {
                    "name": "A#3",
                    "midi": 58,
                    "time": 477.17175699998984,
                    "velocity": 0.1889763779527559,
                    "duration": 0.09632049999999026
                },
                {
                    "name": "C4",
                    "midi": 60,
                    "time": 477.17175699998984,
                    "velocity": 0.2440944881889764,
                    "duration": 0.09632049999999026
                },
                {
                    "name": "C4",
                    "midi": 60,
                    "time": 477.3643979999898,
                    "velocity": 0.3228346456692913,
                    "duration": 0.19264099999998052
                },
                {
                    "name": "F3",
                    "midi": 53,
                    "time": 477.3643979999898,
                    "velocity": 0.25196850393700787,
                    "duration": 0.19264099999998052
                },
                {
                    "name": "A3",
                    "midi": 57,
                    "time": 477.3643979999898,
                    "velocity": 0.25196850393700787,
                    "duration": 0.19264099999998052
                },
                {
                    "name": "D#3",
                    "midi": 51,
                    "time": 477.9423209999898,
                    "velocity": 0.4094488188976378,
                    "duration": 0.5779229999999984
                },
                {
                    "name": "G3",
                    "midi": 55,
                    "time": 477.9423209999898,
                    "velocity": 0.4094488188976378,
                    "duration": 0.5779229999999984
                },
                {
                    "name": "C#4",
                    "midi": 61,
                    "time": 477.9423209999898,
                    "velocity": 0.4881889763779528,
                    "duration": 0.5779229999999984
                },
                {
                    "name": "D4",
                    "midi": 62,
                    "time": 478.5202439999898,
                    "velocity": 0.5354330708661418,
                    "duration": 0.5779229999999984
                },
                {
                    "name": "F#3",
                    "midi": 54,
                    "time": 478.5202439999898,
                    "velocity": 0.44881889763779526,
                    "duration": 0.5779229999999984
                },
                {
                    "name": "D3",
                    "midi": 50,
                    "time": 478.5202439999898,
                    "velocity": 0.44881889763779526,
                    "duration": 0.5779229999999984
                },
                {
                    "name": "D3",
                    "midi": 50,
                    "time": 479.6760899999898,
                    "velocity": 0.49606299212598426,
                    "duration": 0.5779229999999984
                },
                {
                    "name": "D4",
                    "midi": 62,
                    "time": 479.6760899999898,
                    "velocity": 0.5826771653543307,
                    "duration": 0.5779229999999984
                },
                {
                    "name": "C3",
                    "midi": 48,
                    "time": 480.2540129999898,
                    "velocity": 0.49606299212598426,
                    "duration": 0.5779229999999984
                },
                {
                    "name": "C4",
                    "midi": 60,
                    "time": 480.2540129999898,
                    "velocity": 0.5826771653543307,
                    "duration": 0.5779229999999984
                },
                {
                    "name": "A#2",
                    "midi": 46,
                    "time": 480.8319359999898,
                    "velocity": 0.49606299212598426,
                    "duration": 0.5779229999999984
                },
                {
                    "name": "A#3",
                    "midi": 58,
                    "time": 480.8319359999898,
                    "velocity": 0.5826771653543307,
                    "duration": 0.5779229999999984
                },
                {
                    "name": "A2",
                    "midi": 45,
                    "time": 481.4098589999898,
                    "velocity": 0.49606299212598426,
                    "duration": 0.5779229999999984
                },
                {
                    "name": "A3",
                    "midi": 57,
                    "time": 481.4098589999898,
                    "velocity": 0.5826771653543307,
                    "duration": 0.5779229999999984
                },
                {
                    "name": "G3",
                    "midi": 55,
                    "time": 481.9877819999898,
                    "velocity": 0.4645669291338583,
                    "duration": 0.19264099999998052
                },
                {
                    "name": "A#3",
                    "midi": 58,
                    "time": 482.1804229999898,
                    "velocity": 0.4251968503937008,
                    "duration": 0.19264099999998052
                },
                {
                    "name": "D4",
                    "midi": 62,
                    "time": 482.37306399998977,
                    "velocity": 0.4251968503937008,
                    "duration": 0.19264099999998052
                },
                {
                    "name": "F#3",
                    "midi": 54,
                    "time": 482.56570499998975,
                    "velocity": 0.4645669291338583,
                    "duration": 0.19264099999998052
                },
                {
                    "name": "A3",
                    "midi": 57,
                    "time": 482.75834599998973,
                    "velocity": 0.4251968503937008,
                    "duration": 0.19264099999998052
                },
                {
                    "name": "D4",
                    "midi": 62,
                    "time": 482.9509869999897,
                    "velocity": 0.4251968503937008,
                    "duration": 0.19264099999998052
                },
                {
                    "name": "G3",
                    "midi": 55,
                    "time": 483.1436279999897,
                    "velocity": 0.4645669291338583,
                    "duration": 0.19264099999998052
                },
                {
                    "name": "A#3",
                    "midi": 58,
                    "time": 483.33626899998967,
                    "velocity": 0.4251968503937008,
                    "duration": 0.19264099999998052
                },
                {
                    "name": "D4",
                    "midi": 62,
                    "time": 483.52890999998965,
                    "velocity": 0.4251968503937008,
                    "duration": 0.19264099999998052
                },
                {
                    "name": "F3",
                    "midi": 53,
                    "time": 483.72155099998963,
                    "velocity": 0.4645669291338583,
                    "duration": 0.19264099999998052
                },
                {
                    "name": "B3",
                    "midi": 59,
                    "time": 483.9141919999896,
                    "velocity": 0.41732283464566927,
                    "duration": 0.19264099999998052
                },
                {
                    "name": "D4",
                    "midi": 62,
                    "time": 484.1068329999896,
                    "velocity": 0.41732283464566927,
                    "duration": 0.19264099999998052
                },
                {
                    "name": "E3",
                    "midi": 52,
                    "time": 484.2994739999896,
                    "velocity": 0.4566929133858268,
                    "duration": 0.3852820000000179
                },
                {
                    "name": "C5",
                    "midi": 72,
                    "time": 485.45531999998957,
                    "velocity": 0.4251968503937008,
                    "duration": 0.5779229999999984
                },
                {
                    "name": "A#4",
                    "midi": 70,
                    "time": 486.03324299998957,
                    "velocity": 0.3464566929133858,
                    "duration": 0.5779229999999984
                },
                {
                    "name": "C5",
                    "midi": 72,
                    "time": 486.03324299998957,
                    "velocity": 0.4094488188976378,
                    "duration": 0.5779229999999984
                },
                {
                    "name": "C5",
                    "midi": 72,
                    "time": 486.61116599998957,
                    "velocity": 0.3700787401574803,
                    "duration": 0.5779229999999984
                },
                {
                    "name": "A4",
                    "midi": 69,
                    "time": 486.61116599998957,
                    "velocity": 0.31496062992125984,
                    "duration": 0.5779229999999984
                },
                {
                    "name": "A#4",
                    "midi": 70,
                    "time": 487.18908899998956,
                    "velocity": 0.30708661417322836,
                    "duration": 0.5779229999999984
                },
                {
                    "name": "C5",
                    "midi": 72,
                    "time": 487.18908899998956,
                    "velocity": 0.36220472440944884,
                    "duration": 0.5779229999999984
                },
                {
                    "name": "G4",
                    "midi": 67,
                    "time": 487.18908899998956,
                    "velocity": 0.30708661417322836,
                    "duration": 0.5779229999999984
                },
                {
                    "name": "F4",
                    "midi": 65,
                    "time": 487.76701199998956,
                    "velocity": 0.3464566929133858,
                    "duration": 0.09632049999999026
                },
                {
                    "name": "A4",
                    "midi": 69,
                    "time": 487.95965299998954,
                    "velocity": 0.29133858267716534,
                    "duration": 0.09632049999999026
                },
                {
                    "name": "C5",
                    "midi": 72,
                    "time": 488.1522939999895,
                    "velocity": 0.29133858267716534,
                    "duration": 0.09632049999999026
                },
                {
                    "name": "E4",
                    "midi": 64,
                    "time": 488.3449349999895,
                    "velocity": 0.33858267716535434,
                    "duration": 0.09632049999999026
                },
                {
                    "name": "G4",
                    "midi": 67,
                    "time": 488.5375759999895,
                    "velocity": 0.29133858267716534,
                    "duration": 0.09632049999999026
                },
                {
                    "name": "C5",
                    "midi": 72,
                    "time": 488.73021699998947,
                    "velocity": 0.29133858267716534,
                    "duration": 0.09632049999999026
                },
                {
                    "name": "A4",
                    "midi": 69,
                    "time": 488.92285799998945,
                    "velocity": 0.36220472440944884,
                    "duration": 0.19264099999998052
                },
                {
                    "name": "C5",
                    "midi": 72,
                    "time": 488.92285799998945,
                    "velocity": 0.36220472440944884,
                    "duration": 0.19264099999998052
                },
                {
                    "name": "F4",
                    "midi": 65,
                    "time": 488.92285799998945,
                    "velocity": 0.36220472440944884,
                    "duration": 0.19264099999998052
                },
                {
                    "name": "A#2",
                    "midi": 46,
                    "time": 490.07870399998944,
                    "velocity": 0.3858267716535433,
                    "duration": 0.09632049999999026
                },
                {
                    "name": "A#3",
                    "midi": 58,
                    "time": 490.2713449999894,
                    "velocity": 0.31496062992125984,
                    "duration": 0.09632049999999026
                },
                {
                    "name": "E3",
                    "midi": 52,
                    "time": 490.65662699998944,
                    "velocity": 0.3779527559055118,
                    "duration": 0.09632049999999026
                },
                {
                    "name": "E4",
                    "midi": 64,
                    "time": 490.8492679999894,
                    "velocity": 0.33858267716535434,
                    "duration": 0.09632049999999026
                },
                {
                    "name": "A2",
                    "midi": 45,
                    "time": 491.23454999998944,
                    "velocity": 0.3937007874015748,
                    "duration": 0.09632049999999026
                },
                {
                    "name": "A3",
                    "midi": 57,
                    "time": 491.4271909999894,
                    "velocity": 0.33858267716535434,
                    "duration": 0.09632049999999026
                },
                {
                    "name": "D3",
                    "midi": 50,
                    "time": 491.81247299998944,
                    "velocity": 0.3700787401574803,
                    "duration": 0.09632049999999026
                },
                {
                    "name": "D4",
                    "midi": 62,
                    "time": 492.0051139999894,
                    "velocity": 0.31496062992125984,
                    "duration": 0.09632049999999026
                },
                {
                    "name": "G2",
                    "midi": 43,
                    "time": 492.39039599998944,
                    "velocity": 0.3543307086614173,
                    "duration": 0.09632049999999026
                },
                {
                    "name": "A2",
                    "midi": 45,
                    "time": 492.5830369999894,
                    "velocity": 0.3700787401574803,
                    "duration": 0.09632049999999026
                },
                {
                    "name": "A#2",
                    "midi": 46,
                    "time": 492.7756779999894,
                    "velocity": 0.3858267716535433,
                    "duration": 0.09632049999999026
                },
                {
                    "name": "C3",
                    "midi": 48,
                    "time": 492.9683189999894,
                    "velocity": 0.4015748031496063,
                    "duration": 0.09632049999999026
                },
                {
                    "name": "D3",
                    "midi": 50,
                    "time": 493.16095999998936,
                    "velocity": 0.41732283464566927,
                    "duration": 0.09632049999999026
                },
                {
                    "name": "E3",
                    "midi": 52,
                    "time": 493.35360099998934,
                    "velocity": 0.4330708661417323,
                    "duration": 0.09632049999999026
                },
                {
                    "name": "F3",
                    "midi": 53,
                    "time": 493.5462419999893,
                    "velocity": 0.44881889763779526,
                    "duration": 0.09632049999999026
                },
                {
                    "name": "A2",
                    "midi": 45,
                    "time": 493.93152399998934,
                    "velocity": 0.3858267716535433,
                    "duration": 0.09632049999999026
                },
                {
                    "name": "A#2",
                    "midi": 46,
                    "time": 494.1241649999893,
                    "velocity": 0.4645669291338583,
                    "duration": 0.09632049999999026
                },
                {
                    "name": "B2",
                    "midi": 47,
                    "time": 494.50944699998934,
                    "velocity": 0.3937007874015748,
                    "duration": 0.09632049999999026
                },
                {
                    "name": "C3",
                    "midi": 48,
                    "time": 494.7020879999893,
                    "velocity": 0.4409448818897638,
                    "duration": 0.09632049999999026
                },
                {
                    "name": "D4",
                    "midi": 62,
                    "time": 495.3763314999893,
                    "velocity": 0.44881889763779526,
                    "duration": 0.1059525499999836
                },
                {
                    "name": "C4",
                    "midi": 60,
                    "time": 495.4726519999893,
                    "velocity": 0.4409448818897638,
                    "duration": 0.1059525499999836
                },
                {
                    "name": "A#3",
                    "midi": 58,
                    "time": 495.5689724999893,
                    "velocity": 0.4330708661417323,
                    "duration": 0.1059525499999836
                },
                {
                    "name": "A3",
                    "midi": 57,
                    "time": 495.6652929999893,
                    "velocity": 0.4094488188976378,
                    "duration": 0.1059525499999836
                },
                {
                    "name": "G3",
                    "midi": 55,
                    "time": 495.76161349998927,
                    "velocity": 0.4015748031496063,
                    "duration": 0.09632049999999026
                },
                {
                    "name": "F3",
                    "midi": 53,
                    "time": 495.85793399998926,
                    "velocity": 0.3228346456692913,
                    "duration": 0.19264099999998052
                },
                {
                    "name": "G#3",
                    "midi": 56,
                    "time": 496.05057499998924,
                    "velocity": 0.2440944881889764,
                    "duration": 0.19264099999998052
                },
                {
                    "name": "C4",
                    "midi": 60,
                    "time": 496.2432159999892,
                    "velocity": 0.2440944881889764,
                    "duration": 0.19264099999998052
                },
                {
                    "name": "F3",
                    "midi": 53,
                    "time": 496.4358569999892,
                    "velocity": 0.29133858267716534,
                    "duration": 0.19264099999998052
                },
                {
                    "name": "G#3",
                    "midi": 56,
                    "time": 496.6284979999892,
                    "velocity": 0.2440944881889764,
                    "duration": 0.19264099999998052
                },
                {
                    "name": "C4",
                    "midi": 60,
                    "time": 496.82113899998916,
                    "velocity": 0.2440944881889764,
                    "duration": 0.19264099999998052
                },
                {
                    "name": "E3",
                    "midi": 52,
                    "time": 497.01377999998914,
                    "velocity": 0.3228346456692913,
                    "duration": 0.19264099999998052
                },
                {
                    "name": "G3",
                    "midi": 55,
                    "time": 497.2064209999891,
                    "velocity": 0.2440944881889764,
                    "duration": 0.19264099999998052
                },
                {
                    "name": "C4",
                    "midi": 60,
                    "time": 497.3990619999891,
                    "velocity": 0.2440944881889764,
                    "duration": 0.19264099999998052
                },
                {
                    "name": "E3",
                    "midi": 52,
                    "time": 497.5917029999891,
                    "velocity": 0.28346456692913385,
                    "duration": 0.19264099999998052
                },
                {
                    "name": "G3",
                    "midi": 55,
                    "time": 497.78434399998906,
                    "velocity": 0.2440944881889764,
                    "duration": 0.19264099999998052
                },
                {
                    "name": "C4",
                    "midi": 60,
                    "time": 497.97698499998904,
                    "velocity": 0.2440944881889764,
                    "duration": 0.19264099999998052
                },
                {
                    "name": "E3",
                    "midi": 52,
                    "time": 498.169625999989,
                    "velocity": 0.3228346456692913,
                    "duration": 0.19264099999998052
                },
                {
                    "name": "G3",
                    "midi": 55,
                    "time": 498.362266999989,
                    "velocity": 0.2440944881889764,
                    "duration": 0.19264099999998052
                },
                {
                    "name": "A#3",
                    "midi": 58,
                    "time": 498.554907999989,
                    "velocity": 0.2440944881889764,
                    "duration": 0.19264099999998052
                },
                {
                    "name": "E3",
                    "midi": 52,
                    "time": 498.74754899998896,
                    "velocity": 0.29133858267716534,
                    "duration": 0.19264099999998052
                },
                {
                    "name": "G3",
                    "midi": 55,
                    "time": 498.94018999998895,
                    "velocity": 0.2440944881889764,
                    "duration": 0.19264099999998052
                },
                {
                    "name": "C4",
                    "midi": 60,
                    "time": 499.1328309999889,
                    "velocity": 0.2440944881889764,
                    "duration": 0.19264099999998052
                },
                {
                    "name": "F3",
                    "midi": 53,
                    "time": 499.3254719999889,
                    "velocity": 0.3228346456692913,
                    "duration": 0.19264099999998052
                },
                {
                    "name": "G#3",
                    "midi": 56,
                    "time": 499.5181129999889,
                    "velocity": 0.2440944881889764,
                    "duration": 0.19264099999998052
                },
                {
                    "name": "C4",
                    "midi": 60,
                    "time": 499.71075399998887,
                    "velocity": 0.2440944881889764,
                    "duration": 0.19264099999998052
                },
                {
                    "name": "F3",
                    "midi": 53,
                    "time": 499.90339499998885,
                    "velocity": 0.28346456692913385,
                    "duration": 0.19264099999998052
                },
                {
                    "name": "G#3",
                    "midi": 56,
                    "time": 500.0960359999888,
                    "velocity": 0.2440944881889764,
                    "duration": 0.19264099999998052
                },
                {
                    "name": "C4",
                    "midi": 60,
                    "time": 500.2886769999888,
                    "velocity": 0.2440944881889764,
                    "duration": 0.19264099999998052
                },
                {
                    "name": "G#3",
                    "midi": 56,
                    "time": 500.4813179999888,
                    "velocity": 0.3700787401574803,
                    "duration": 0.19264099999998052
                },
                {
                    "name": "C4",
                    "midi": 60,
                    "time": 500.67395899998877,
                    "velocity": 0.28346456692913385,
                    "duration": 0.19264099999998052
                },
                {
                    "name": "F4",
                    "midi": 65,
                    "time": 500.86659999998875,
                    "velocity": 0.28346456692913385,
                    "duration": 0.19264099999998052
                },
                {
                    "name": "G3",
                    "midi": 55,
                    "time": 501.05924099998873,
                    "velocity": 0.3464566929133858,
                    "duration": 0.19264099999998052
                },
                {
                    "name": "A#3",
                    "midi": 58,
                    "time": 501.2518819999887,
                    "velocity": 0.25196850393700787,
                    "duration": 0.19264099999998052
                },
                {
                    "name": "D#4",
                    "midi": 63,
                    "time": 501.4445229999887,
                    "velocity": 0.25984251968503935,
                    "duration": 0.19264099999998052
                },
                {
                    "name": "F3",
                    "midi": 53,
                    "time": 501.6371639999887,
                    "velocity": 0.3779527559055118,
                    "duration": 0.19264099999998052
                },
                {
                    "name": "G#3",
                    "midi": 56,
                    "time": 501.82980499998865,
                    "velocity": 0.28346456692913385,
                    "duration": 0.19264099999998052
                },
                {
                    "name": "C#4",
                    "midi": 61,
                    "time": 502.02244599998863,
                    "velocity": 0.28346456692913385,
                    "duration": 0.19264099999998052
                },
                {
                    "name": "D#3",
                    "midi": 51,
                    "time": 502.2150869999886,
                    "velocity": 0.3543307086614173,
                    "duration": 0.19264099999998052
                },
                {
                    "name": "G3",
                    "midi": 55,
                    "time": 502.4077279999886,
                    "velocity": 0.2440944881889764,
                    "duration": 0.19264099999998052
                },
                {
                    "name": "C4",
                    "midi": 60,
                    "time": 502.6003689999886,
                    "velocity": 0.2440944881889764,
                    "duration": 0.19264099999998052
                },
                {
                    "name": "C#3",
                    "midi": 49,
                    "time": 502.79300999998856,
                    "velocity": 0.36220472440944884,
                    "duration": 0.19264099999998052
                },
                {
                    "name": "F3",
                    "midi": 53,
                    "time": 502.98565099998854,
                    "velocity": 0.2755905511811024,
                    "duration": 0.19264099999998052
                },
                {
                    "name": "A#3",
                    "midi": 58,
                    "time": 503.1782919999885,
                    "velocity": 0.2755905511811024,
                    "duration": 0.19264099999998052
                },
                {
                    "name": "C#3",
                    "midi": 49,
                    "time": 503.3709329999885,
                    "velocity": 0.33858267716535434,
                    "duration": 0.19264099999998052
                },
                {
                    "name": "F3",
                    "midi": 53,
                    "time": 503.5635739999885,
                    "velocity": 0.28346456692913385,
                    "duration": 0.19264099999998052
                },
                {
                    "name": "B3",
                    "midi": 59,
                    "time": 503.75621499998846,
                    "velocity": 0.2677165354330709,
                    "duration": 0.19264099999998052
                },
                {
                    "name": "C3",
                    "midi": 48,
                    "time": 503.94885599998844,
                    "velocity": 0.33858267716535434,
                    "duration": 0.19264099999998052
                },
                {
                    "name": "F3",
                    "midi": 53,
                    "time": 504.1414969999884,
                    "velocity": 0.2283464566929134,
                    "duration": 0.19264099999998052
                },
                {
                    "name": "C4",
                    "midi": 60,
                    "time": 504.3341379999884,
                    "velocity": 0.23622047244094488,
                    "duration": 0.19264099999998052
                },
                {
                    "name": "C3",
                    "midi": 48,
                    "time": 504.5267789999884,
                    "velocity": 0.30708661417322836,
                    "duration": 0.19264099999998052
                },
                {
                    "name": "E3",
                    "midi": 52,
                    "time": 504.71941999998836,
                    "velocity": 0.2125984251968504,
                    "duration": 0.19264099999998052
                },
                {
                    "name": "C4",
                    "midi": 60,
                    "time": 504.91206099998834,
                    "velocity": 0.2125984251968504,
                    "duration": 0.19264099999998052
                },
                {
                    "name": "F3",
                    "midi": 53,
                    "time": 505.1047019999883,
                    "velocity": 0.3228346456692913,
                    "duration": 0.19264099999998052
                },
                {
                    "name": "G#3",
                    "midi": 56,
                    "time": 505.2973429999883,
                    "velocity": 0.2440944881889764,
                    "duration": 0.19264099999998052
                },
                {
                    "name": "C4",
                    "midi": 60,
                    "time": 505.4899839999883,
                    "velocity": 0.2440944881889764,
                    "duration": 0.19264099999998052
                },
                {
                    "name": "F3",
                    "midi": 53,
                    "time": 505.68262499998826,
                    "velocity": 0.29133858267716534,
                    "duration": 0.19264099999998052
                },
                {
                    "name": "G#3",
                    "midi": 56,
                    "time": 505.87526599998824,
                    "velocity": 0.2440944881889764,
                    "duration": 0.19264099999998052
                },
                {
                    "name": "C4",
                    "midi": 60,
                    "time": 506.0679069999882,
                    "velocity": 0.2440944881889764,
                    "duration": 0.19264099999998052
                },
                {
                    "name": "E3",
                    "midi": 52,
                    "time": 506.2605479999882,
                    "velocity": 0.3228346456692913,
                    "duration": 0.19264099999998052
                },
                {
                    "name": "G3",
                    "midi": 55,
                    "time": 506.4531889999882,
                    "velocity": 0.2440944881889764,
                    "duration": 0.19264099999998052
                },
                {
                    "name": "C4",
                    "midi": 60,
                    "time": 506.64582999998817,
                    "velocity": 0.2440944881889764,
                    "duration": 0.19264099999998052
                },
                {
                    "name": "E3",
                    "midi": 52,
                    "time": 506.83847099998815,
                    "velocity": 0.28346456692913385,
                    "duration": 0.19264099999998052
                },
                {
                    "name": "G3",
                    "midi": 55,
                    "time": 507.0311119999881,
                    "velocity": 0.2440944881889764,
                    "duration": 0.19264099999998052
                },
                {
                    "name": "C4",
                    "midi": 60,
                    "time": 507.2237529999881,
                    "velocity": 0.2440944881889764,
                    "duration": 0.19264099999998052
                },
                {
                    "name": "E3",
                    "midi": 52,
                    "time": 507.4163939999881,
                    "velocity": 0.3228346456692913,
                    "duration": 0.19264099999998052
                },
                {
                    "name": "G3",
                    "midi": 55,
                    "time": 507.60903499998807,
                    "velocity": 0.2440944881889764,
                    "duration": 0.19264099999998052
                },
                {
                    "name": "A#3",
                    "midi": 58,
                    "time": 507.80167599998805,
                    "velocity": 0.2440944881889764,
                    "duration": 0.19264099999998052
                },
                {
                    "name": "E3",
                    "midi": 52,
                    "time": 507.99431699998803,
                    "velocity": 0.29133858267716534,
                    "duration": 0.19264099999998052
                },
                {
                    "name": "G3",
                    "midi": 55,
                    "time": 508.186957999988,
                    "velocity": 0.2440944881889764,
                    "duration": 0.19264099999998052
                },
                {
                    "name": "C4",
                    "midi": 60,
                    "time": 508.379598999988,
                    "velocity": 0.2440944881889764,
                    "duration": 0.19264099999998052
                },
                {
                    "name": "D#3",
                    "midi": 51,
                    "time": 508.5754506833213,
                    "velocity": 0.3228346456692913,
                    "duration": 0.19264100000003737
                },
                {
                    "name": "F#3",
                    "midi": 54,
                    "time": 508.764880999988,
                    "velocity": 0.2440944881889764,
                    "duration": 0.19264100000003737
                },
                {
                    "name": "A3",
                    "midi": 57,
                    "time": 508.95752199998805,
                    "velocity": 0.2440944881889764,
                    "duration": 0.19264099999998052
                },
                {
                    "name": "D3",
                    "midi": 50,
                    "time": 509.150162999988,
                    "velocity": 0.28346456692913385,
                    "duration": 0.19264099999998052
                },
                {
                    "name": "F3",
                    "midi": 53,
                    "time": 509.342803999988,
                    "velocity": 0.2440944881889764,
                    "duration": 0.19264099999998052
                },
                {
                    "name": "A#3",
                    "midi": 58,
                    "time": 509.535444999988,
                    "velocity": 0.2440944881889764,
                    "duration": 0.19264099999998052
                },
                {
                    "name": "C#3",
                    "midi": 49,
                    "time": 509.72808599998797,
                    "velocity": 0.44881889763779526,
                    "duration": 0.19264099999998052
                },
                {
                    "name": "F3",
                    "midi": 53,
                    "time": 509.92072699998795,
                    "velocity": 0.36220472440944884,
                    "duration": 0.19264099999998052
                },
                {
                    "name": "G#3",
                    "midi": 56,
                    "time": 510.11336799998793,
                    "velocity": 0.3700787401574803,
                    "duration": 0.19264099999998052
                },
                {
                    "name": "C3",
                    "midi": 48,
                    "time": 510.3060089999879,
                    "velocity": 0.4330708661417323,
                    "duration": 0.19264099999998052
                },
                {
                    "name": "F3",
                    "midi": 53,
                    "time": 510.4986499999879,
                    "velocity": 0.36220472440944884,
                    "duration": 0.19264099999998052
                },
                {
                    "name": "G#3",
                    "midi": 56,
                    "time": 510.69129099998787,
                    "velocity": 0.36220472440944884,
                    "duration": 0.19264099999998052
                },
                {
                    "name": "A#2",
                    "midi": 46,
                    "time": 510.88393199998785,
                    "velocity": 0.4645669291338583,
                    "duration": 0.19264099999998052
                },
                {
                    "name": "E3",
                    "midi": 52,
                    "time": 511.07657299998783,
                    "velocity": 0.30708661417322836,
                    "duration": 0.19264099999998052
                },
                {
                    "name": "G3",
                    "midi": 55,
                    "time": 511.2692139999878,
                    "velocity": 0.30708661417322836,
                    "duration": 0.19264099999998052
                },
                {
                    "name": "G#2",
                    "midi": 44,
                    "time": 511.4618549999878,
                    "velocity": 0.3543307086614173,
                    "duration": 0.19264099999998052
                },
                {
                    "name": "C3",
                    "midi": 48,
                    "time": 511.6544959999878,
                    "velocity": 0.2440944881889764,
                    "duration": 0.19264099999998052
                },
                {
                    "name": "F3",
                    "midi": 53,
                    "time": 511.84713699998775,
                    "velocity": 0.2440944881889764,
                    "duration": 0.19264100000003737
                },
                {
                    "name": "C3",
                    "midi": 48,
                    "time": 512.0397779999878,
                    "velocity": 0.3543307086614173,
                    "duration": 0.19264099999998052
                },
                {
                    "name": "F3",
                    "midi": 53,
                    "time": 512.2324189999878,
                    "velocity": 0.23622047244094488,
                    "duration": 0.19264099999998052
                },
                {
                    "name": "G#3",
                    "midi": 56,
                    "time": 512.4250599999878,
                    "velocity": 0.23622047244094488,
                    "duration": 0.19264099999998052
                },
                {
                    "name": "C3",
                    "midi": 48,
                    "time": 512.6177009999877,
                    "velocity": 0.2992125984251969,
                    "duration": 0.19264099999998052
                },
                {
                    "name": "G3",
                    "midi": 55,
                    "time": 512.8103419999877,
                    "velocity": 0.2440944881889764,
                    "duration": 0.19264099999998052
                },
                {
                    "name": "A#3",
                    "midi": 58,
                    "time": 513.0029829999877,
                    "velocity": 0.2440944881889764,
                    "duration": 0.19264099999998052
                },
                {
                    "name": "F3",
                    "midi": 53,
                    "time": 513.1956239999877,
                    "velocity": 0.5275590551181102,
                    "duration": 0.38528199999996104
                },
                {
                    "name": "A3",
                    "midi": 57,
                    "time": 513.1956239999877,
                    "velocity": 0.5275590551181102,
                    "duration": 0.38528199999996104
                },
                {
                    "name": "G3",
                    "midi": 55,
                    "time": 513.7735469999876,
                    "velocity": 0.5275590551181102,
                    "duration": 0.0963205000000471
                },
                {
                    "name": "E3",
                    "midi": 52,
                    "time": 513.9661879999877,
                    "velocity": 0.4881889763779528,
                    "duration": 0.0963205000000471
                },
                {
                    "name": "C3",
                    "midi": 48,
                    "time": 514.1588289999878,
                    "velocity": 0.4881889763779528,
                    "duration": 0.0963205000000471
                },
                {
                    "name": "F3",
                    "midi": 53,
                    "time": 514.3514699999879,
                    "velocity": 0.5275590551181102,
                    "duration": 0.38528199999996104
                },
                {
                    "name": "G3",
                    "midi": 55,
                    "time": 514.9293929999878,
                    "velocity": 0.5275590551181102,
                    "duration": 0.0963205000000471
                },
                {
                    "name": "E3",
                    "midi": 52,
                    "time": 515.1220339999879,
                    "velocity": 0.4881889763779528,
                    "duration": 0.0963205000000471
                },
                {
                    "name": "C3",
                    "midi": 48,
                    "time": 515.314674999988,
                    "velocity": 0.4881889763779528,
                    "duration": 0.0963205000000471
                },
                {
                    "name": "F3",
                    "midi": 53,
                    "time": 515.5073159999881,
                    "velocity": 0.5275590551181102,
                    "duration": 0.38528199999996104
                },
                {
                    "name": "G4",
                    "midi": 67,
                    "time": 516.0852389999881,
                    "velocity": 0.5275590551181102,
                    "duration": 0.0963205000000471
                },
                {
                    "name": "E4",
                    "midi": 64,
                    "time": 516.2778799999882,
                    "velocity": 0.4881889763779528,
                    "duration": 0.0963205000000471
                },
                {
                    "name": "C4",
                    "midi": 60,
                    "time": 516.4705209999883,
                    "velocity": 0.4881889763779528,
                    "duration": 0.0963205000000471
                },
                {
                    "name": "F4",
                    "midi": 65,
                    "time": 516.6631619999883,
                    "velocity": 0.5275590551181102,
                    "duration": 0.38528199999996104
                },
                {
                    "name": "G4",
                    "midi": 67,
                    "time": 517.2410849999883,
                    "velocity": 0.5275590551181102,
                    "duration": 0.0963205000000471
                },
                {
                    "name": "E4",
                    "midi": 64,
                    "time": 517.4337259999884,
                    "velocity": 0.4881889763779528,
                    "duration": 0.0963205000000471
                },
                {
                    "name": "C4",
                    "midi": 60,
                    "time": 517.6263669999885,
                    "velocity": 0.4881889763779528,
                    "duration": 0.0963205000000471
                },
                {
                    "name": "F4",
                    "midi": 65,
                    "time": 517.8190079999886,
                    "velocity": 0.5275590551181102,
                    "duration": 0.38528199999996104
                },
                {
                    "name": "D3",
                    "midi": 50,
                    "time": 520.3233409999885,
                    "velocity": 0.3858267716535433,
                    "duration": 0.2119050999999672
                },
                {
                    "name": "F3",
                    "midi": 53,
                    "time": 520.5159819999885,
                    "velocity": 0.4094488188976378,
                    "duration": 0.2119050999999672
                },
                {
                    "name": "G#3",
                    "midi": 56,
                    "time": 520.7086229999885,
                    "velocity": 0.4251968503937008,
                    "duration": 0.2119050999999672
                },
                {
                    "name": "G3",
                    "midi": 55,
                    "time": 520.9012639999885,
                    "velocity": 0.3858267716535433,
                    "duration": 0.2119050999999672
                },
                {
                    "name": "F3",
                    "midi": 53,
                    "time": 521.0939049999885,
                    "velocity": 0.3858267716535433,
                    "duration": 0.38528199999996104
                },
                {
                    "name": "E3",
                    "midi": 52,
                    "time": 521.4791869999884,
                    "velocity": 0.3700787401574803,
                    "duration": 0.2119050999999672
                },
                {
                    "name": "G3",
                    "midi": 55,
                    "time": 521.6718279999884,
                    "velocity": 0.3858267716535433,
                    "duration": 0.2119050999999672
                },
                {
                    "name": "C#4",
                    "midi": 61,
                    "time": 521.8644689999884,
                    "velocity": 0.4251968503937008,
                    "duration": 0.2119050999999672
                },
                {
                    "name": "C4",
                    "midi": 60,
                    "time": 522.0571099999884,
                    "velocity": 0.3858267716535433,
                    "duration": 0.2119050999999672
                },
                {
                    "name": "A#3",
                    "midi": 58,
                    "time": 522.2497509999884,
                    "velocity": 0.3858267716535433,
                    "duration": 0.2119050999999672
                },
                {
                    "name": "A3",
                    "midi": 57,
                    "time": 522.4423919999883,
                    "velocity": 0.2992125984251969,
                    "duration": 0.19264099999998052
                },
                {
                    "name": "A#3",
                    "midi": 58,
                    "time": 523.0203149999883,
                    "velocity": 0.31496062992125984,
                    "duration": 0.19264099999998052
                },
                {
                    "name": "A4",
                    "midi": 69,
                    "time": 523.5982379999882,
                    "velocity": 0.31496062992125984,
                    "duration": 0.5779230000000553
                },
                {
                    "name": "C4",
                    "midi": 60,
                    "time": 523.5982379999882,
                    "velocity": 0.2677165354330709,
                    "duration": 1.1558460000001105
                },
                {
                    "name": "A#4",
                    "midi": 70,
                    "time": 524.1761609999883,
                    "velocity": 0.31496062992125984,
                    "duration": 0.5779230000000553
                },
                {
                    "name": "A4",
                    "midi": 69,
                    "time": 524.7540839999883,
                    "velocity": 0.5275590551181102,
                    "duration": 0.38528199999996104
                },
                {
                    "name": "F4",
                    "midi": 65,
                    "time": 524.7540839999883,
                    "velocity": 0.5275590551181102,
                    "duration": 0.38528199999996104
                },
                {
                    "name": "G3",
                    "midi": 55,
                    "time": 525.3320069999883,
                    "velocity": 0.5275590551181102,
                    "duration": 0.0963205000000471
                },
                {
                    "name": "E3",
                    "midi": 52,
                    "time": 525.5246479999884,
                    "velocity": 0.4881889763779528,
                    "duration": 0.0963205000000471
                },
                {
                    "name": "C3",
                    "midi": 48,
                    "time": 525.7172889999885,
                    "velocity": 0.4881889763779528,
                    "duration": 0.0963205000000471
                },
                {
                    "name": "F3",
                    "midi": 53,
                    "time": 525.9099299999885,
                    "velocity": 0.5275590551181102,
                    "duration": 0.38528199999996104
                },
                {
                    "name": "G3",
                    "midi": 55,
                    "time": 526.4878529999885,
                    "velocity": 0.5275590551181102,
                    "duration": 0.0963205000000471
                },
                {
                    "name": "E3",
                    "midi": 52,
                    "time": 526.6804939999886,
                    "velocity": 0.4881889763779528,
                    "duration": 0.0963205000000471
                },
                {
                    "name": "C3",
                    "midi": 48,
                    "time": 526.8731349999887,
                    "velocity": 0.4881889763779528,
                    "duration": 0.0963205000000471
                },
                {
                    "name": "F3",
                    "midi": 53,
                    "time": 527.0657759999888,
                    "velocity": 0.5275590551181102,
                    "duration": 0.38528199999996104
                },
                {
                    "name": "G4",
                    "midi": 67,
                    "time": 527.6436989999887,
                    "velocity": 0.5275590551181102,
                    "duration": 0.0963205000000471
                },
                {
                    "name": "E4",
                    "midi": 64,
                    "time": 527.8363399999888,
                    "velocity": 0.4881889763779528,
                    "duration": 0.0963205000000471
                },
                {
                    "name": "C4",
                    "midi": 60,
                    "time": 528.0289809999889,
                    "velocity": 0.4881889763779528,
                    "duration": 0.0963205000000471
                },
                {
                    "name": "F4",
                    "midi": 65,
                    "time": 528.221621999989,
                    "velocity": 0.5275590551181102,
                    "duration": 0.38528199999996104
                },
                {
                    "name": "G4",
                    "midi": 67,
                    "time": 528.7995449999889,
                    "velocity": 0.5275590551181102,
                    "duration": 0.0963205000000471
                },
                {
                    "name": "E4",
                    "midi": 64,
                    "time": 528.992185999989,
                    "velocity": 0.4881889763779528,
                    "duration": 0.0963205000000471
                },
                {
                    "name": "C4",
                    "midi": 60,
                    "time": 529.1848269999891,
                    "velocity": 0.4881889763779528,
                    "duration": 0.0963205000000471
                },
                {
                    "name": "F4",
                    "midi": 65,
                    "time": 529.3774679999892,
                    "velocity": 0.5275590551181102,
                    "duration": 0.38528199999996104
                },
                {
                    "name": "D3",
                    "midi": 50,
                    "time": 531.8818009999892,
                    "velocity": 0.3858267716535433,
                    "duration": 0.2119050999999672
                },
                {
                    "name": "F3",
                    "midi": 53,
                    "time": 532.0744419999892,
                    "velocity": 0.4094488188976378,
                    "duration": 0.2119050999999672
                },
                {
                    "name": "G#3",
                    "midi": 56,
                    "time": 532.2670829999892,
                    "velocity": 0.4251968503937008,
                    "duration": 0.2119050999999672
                },
                {
                    "name": "G3",
                    "midi": 55,
                    "time": 532.4597239999891,
                    "velocity": 0.3858267716535433,
                    "duration": 0.2119050999999672
                },
                {
                    "name": "F3",
                    "midi": 53,
                    "time": 532.6523649999891,
                    "velocity": 0.3858267716535433,
                    "duration": 0.38528199999996104
                },
                {
                    "name": "E3",
                    "midi": 52,
                    "time": 533.0376469999891,
                    "velocity": 0.3700787401574803,
                    "duration": 0.2119050999999672
                },
                {
                    "name": "G3",
                    "midi": 55,
                    "time": 533.2302879999891,
                    "velocity": 0.3858267716535433,
                    "duration": 0.2119050999999672
                },
                {
                    "name": "C#4",
                    "midi": 61,
                    "time": 533.422928999989,
                    "velocity": 0.4251968503937008,
                    "duration": 0.2119050999999672
                },
                {
                    "name": "C4",
                    "midi": 60,
                    "time": 533.615569999989,
                    "velocity": 0.3858267716535433,
                    "duration": 0.2119050999999672
                },
                {
                    "name": "A#3",
                    "midi": 58,
                    "time": 533.808210999989,
                    "velocity": 0.3858267716535433,
                    "duration": 0.2119050999999672
                },
                {
                    "name": "A3",
                    "midi": 57,
                    "time": 534.000851999989,
                    "velocity": 0.2992125984251969,
                    "duration": 0.19264099999998052
                },
                {
                    "name": "A#3",
                    "midi": 58,
                    "time": 534.5787749999889,
                    "velocity": 0.31496062992125984,
                    "duration": 0.19264099999998052
                },
                {
                    "name": "C4",
                    "midi": 60,
                    "time": 535.1566979999889,
                    "velocity": 0.2677165354330709,
                    "duration": 0.5779230000000553
                },
                {
                    "name": "A4",
                    "midi": 69,
                    "time": 535.1566979999889,
                    "velocity": 0.31496062992125984,
                    "duration": 0.5779230000000553
                },
                {
                    "name": "A#3",
                    "midi": 58,
                    "time": 535.7346209999889,
                    "velocity": 0.25196850393700787,
                    "duration": 0.5779230000000553
                },
                {
                    "name": "G4",
                    "midi": 67,
                    "time": 535.7346209999889,
                    "velocity": 0.31496062992125984,
                    "duration": 0.5779230000000553
                },
                {
                    "name": "A3",
                    "midi": 57,
                    "time": 536.312543999989,
                    "velocity": 0.5039370078740157,
                    "duration": 0.19264099999998052
                },
                {
                    "name": "C4",
                    "midi": 60,
                    "time": 536.505184999989,
                    "velocity": 0.41732283464566927,
                    "duration": 0.19264099999998052
                },
                {
                    "name": "F4",
                    "midi": 65,
                    "time": 536.6978259999889,
                    "velocity": 0.41732283464566927,
                    "duration": 0.19264099999998052
                },
                {
                    "name": "A#3",
                    "midi": 58,
                    "time": 536.8904669999889,
                    "velocity": 0.48031496062992124,
                    "duration": 0.19264099999998052
                },
                {
                    "name": "D4",
                    "midi": 62,
                    "time": 537.0831079999889,
                    "velocity": 0.41732283464566927,
                    "duration": 0.19264099999998052
                },
                {
                    "name": "G4",
                    "midi": 67,
                    "time": 537.2757489999889,
                    "velocity": 0.3937007874015748,
                    "duration": 0.19264099999998052
                },
                {
                    "name": "C4",
                    "midi": 60,
                    "time": 537.4683899999889,
                    "velocity": 0.2992125984251969,
                    "duration": 0.19264099999998052
                },
                {
                    "name": "F4",
                    "midi": 65,
                    "time": 537.6610309999888,
                    "velocity": 0.2677165354330709,
                    "duration": 0.19264099999998052
                },
                {
                    "name": "A4",
                    "midi": 69,
                    "time": 537.8536719999888,
                    "velocity": 0.2677165354330709,
                    "duration": 0.19264099999998052
                },
                {
                    "name": "C4",
                    "midi": 60,
                    "time": 538.0463129999888,
                    "velocity": 0.30708661417322836,
                    "duration": 0.19264099999998052
                },
                {
                    "name": "G4",
                    "midi": 67,
                    "time": 538.2389539999888,
                    "velocity": 0.25984251968503935,
                    "duration": 0.19264099999998052
                },
                {
                    "name": "A#4",
                    "midi": 70,
                    "time": 538.4315949999888,
                    "velocity": 0.25984251968503935,
                    "duration": 0.19264099999998052
                },
                {
                    "name": "A4",
                    "midi": 69,
                    "time": 538.6242359999887,
                    "velocity": 0.5196850393700787,
                    "duration": 0.38528199999996104
                },
                {
                    "name": "F4",
                    "midi": 65,
                    "time": 538.6242359999887,
                    "velocity": 0.4409448818897638,
                    "duration": 0.38528199999996104
                },
                {
                    "name": "A#4",
                    "midi": 70,
                    "time": 539.2021589999887,
                    "velocity": 0.5196850393700787,
                    "duration": 0.38528199999996104
                },
                {
                    "name": "C4",
                    "midi": 60,
                    "time": 539.2021589999887,
                    "velocity": 0.4409448818897638,
                    "duration": 0.38528199999996104
                },
                {
                    "name": "E4",
                    "midi": 64,
                    "time": 539.2021589999887,
                    "velocity": 0.5196850393700787,
                    "duration": 0.38528199999996104
                },
                {
                    "name": "F4",
                    "midi": 65,
                    "time": 539.7800819999886,
                    "velocity": 0.4409448818897638,
                    "duration": 0.38528199999996104
                },
                {
                    "name": "A4",
                    "midi": 69,
                    "time": 539.7800819999886,
                    "velocity": 0.5196850393700787,
                    "duration": 0.38528199999996104
                },
                {
                    "name": "A#4",
                    "midi": 70,
                    "time": 540.3580049999886,
                    "velocity": 0.5196850393700787,
                    "duration": 0.38528199999996104
                },
                {
                    "name": "C4",
                    "midi": 60,
                    "time": 540.3580049999886,
                    "velocity": 0.4409448818897638,
                    "duration": 0.38528199999996104
                },
                {
                    "name": "E4",
                    "midi": 64,
                    "time": 540.3580049999886,
                    "velocity": 0.4409448818897638,
                    "duration": 0.38528199999996104
                },
                {
                    "name": "A3",
                    "midi": 57,
                    "time": 540.9359279999885,
                    "velocity": 0.5196850393700787,
                    "duration": 0.38528199999996104
                },
                {
                    "name": "F3",
                    "midi": 53,
                    "time": 540.9359279999885,
                    "velocity": 0.4409448818897638,
                    "duration": 0.38528199999996104
                },
                {
                    "name": "C3",
                    "midi": 48,
                    "time": 541.5138509999884,
                    "velocity": 0.4409448818897638,
                    "duration": 0.38528199999996104
                },
                {
                    "name": "E3",
                    "midi": 52,
                    "time": 541.5138509999884,
                    "velocity": 0.4409448818897638,
                    "duration": 0.38528199999996104
                },
                {
                    "name": "A#3",
                    "midi": 58,
                    "time": 541.5138509999884,
                    "velocity": 0.5196850393700787,
                    "duration": 0.38528199999996104
                },
                {
                    "name": "F2",
                    "midi": 41,
                    "time": 542.0917739999884,
                    "velocity": 0.5511811023622047,
                    "duration": 0.0963205000000471
                },
                {
                    "name": "A2",
                    "midi": 45,
                    "time": 542.2844149999885,
                    "velocity": 0.49606299212598426,
                    "duration": 0.0963205000000471
                },
                {
                    "name": "C3",
                    "midi": 48,
                    "time": 542.4770559999886,
                    "velocity": 0.49606299212598426,
                    "duration": 0.0963205000000471
                },
                {
                    "name": "F3",
                    "midi": 53,
                    "time": 542.6696969999887,
                    "velocity": 0.5511811023622047,
                    "duration": 0.0963205000000471
                },
                {
                    "name": "A3",
                    "midi": 57,
                    "time": 542.8623379999888,
                    "velocity": 0.5039370078740157,
                    "duration": 0.0963205000000471
                },
                {
                    "name": "C4",
                    "midi": 60,
                    "time": 543.0549789999889,
                    "velocity": 0.5039370078740157,
                    "duration": 0.0963205000000471
                },
                {
                    "name": "F4",
                    "midi": 65,
                    "time": 543.247619999989,
                    "velocity": 0.5826771653543307,
                    "duration": 0.19264099999998052
                },
                {
                    "name": "F4",
                    "midi": 65,
                    "time": 543.8255429999889,
                    "velocity": 0.5826771653543307,
                    "duration": 0.38528199999996104
                },
                {
                    "name": "F3",
                    "midi": 53,
                    "time": 543.8255429999889,
                    "velocity": 0.4881889763779528,
                    "duration": 0.38528199999996104
                },
                {
                    "name": "A2",
                    "midi": 45,
                    "time": 544.4034659999888,
                    "velocity": 0.4881889763779528,
                    "duration": 0.38528199999996104
                },
                {
                    "name": "A3",
                    "midi": 57,
                    "time": 544.4034659999888,
                    "velocity": 0.5826771653543307,
                    "duration": 0.38528199999996104
                },
                {
                    "name": "A#2",
                    "midi": 46,
                    "time": 545.5593119999888,
                    "velocity": 0.4881889763779528,
                    "duration": 0.38528199999996104
                },
                {
                    "name": "A#3",
                    "midi": 58,
                    "time": 545.5593119999888,
                    "velocity": 0.5826771653543307,
                    "duration": 0.38528199999996104
                },
                {
                    "name": "B2",
                    "midi": 47,
                    "time": 546.7151579999888,
                    "velocity": 0.4881889763779528,
                    "duration": 0.38528199999996104
                },
                {
                    "name": "B3",
                    "midi": 59,
                    "time": 546.7151579999888,
                    "velocity": 0.5826771653543307,
                    "duration": 0.38528199999996104
                },
                {
                    "name": "A3",
                    "midi": 57,
                    "time": 547.8710039999888,
                    "velocity": 0.33070866141732286,
                    "duration": 1.1558459999999968
                },
                {
                    "name": "C3",
                    "midi": 48,
                    "time": 547.8710039999888,
                    "velocity": 0.2755905511811024,
                    "duration": 1.1558459999999968
                },
                {
                    "name": "A#3",
                    "midi": 58,
                    "time": 549.0268499999888,
                    "velocity": 0.33070866141732286,
                    "duration": 1.1558459999999968
                },
                {
                    "name": "C3",
                    "midi": 48,
                    "time": 549.0268499999888,
                    "velocity": 0.2755905511811024,
                    "duration": 1.1558459999999968
                },
                {
                    "name": "A3",
                    "midi": 57,
                    "time": 550.1826959999888,
                    "velocity": 0.33070866141732286,
                    "duration": 0.19264099999998052
                },
                {
                    "name": "F3",
                    "midi": 53,
                    "time": 550.1826959999888,
                    "velocity": 0.2755905511811024,
                    "duration": 0.19264099999998052
                },
                {
                    "name": "A2",
                    "midi": 45,
                    "time": 550.5679779999888,
                    "velocity": 0.47244094488188976,
                    "duration": 0.19264099999998052
                },
                {
                    "name": "A#2",
                    "midi": 46,
                    "time": 550.7606189999888,
                    "velocity": 0.5196850393700787,
                    "duration": 0.0963205000000471
                },
                {
                    "name": "G3",
                    "midi": 55,
                    "time": 550.9532599999889,
                    "velocity": 0.48031496062992124,
                    "duration": 0.0963205000000471
                },
                {
                    "name": "B2",
                    "midi": 47,
                    "time": 551.145900999989,
                    "velocity": 0.48031496062992124,
                    "duration": 0.0963205000000471
                },
                {
                    "name": "C3",
                    "midi": 48,
                    "time": 551.338541999989,
                    "velocity": 0.5196850393700787,
                    "duration": 0.0963205000000471
                },
                {
                    "name": "A3",
                    "midi": 57,
                    "time": 551.5311829999891,
                    "velocity": 0.48031496062992124,
                    "duration": 0.0963205000000471
                },
                {
                    "name": "C#3",
                    "midi": 49,
                    "time": 551.7238239999892,
                    "velocity": 0.48031496062992124,
                    "duration": 0.0963205000000471
                },
                {
                    "name": "D3",
                    "midi": 50,
                    "time": 551.9164649999893,
                    "velocity": 0.5196850393700787,
                    "duration": 0.0963205000000471
                },
                {
                    "name": "A#3",
                    "midi": 58,
                    "time": 552.1091059999894,
                    "velocity": 0.48031496062992124,
                    "duration": 0.0963205000000471
                },
                {
                    "name": "E3",
                    "midi": 52,
                    "time": 552.3017469999895,
                    "velocity": 0.48031496062992124,
                    "duration": 0.0963205000000471
                },
                {
                    "name": "A#3",
                    "midi": 58,
                    "time": 553.0723109999896,
                    "velocity": 0.2204724409448819,
                    "duration": 0.5779230000000553
                },
                {
                    "name": "C4",
                    "midi": 60,
                    "time": 553.0723109999896,
                    "velocity": 0.2204724409448819,
                    "duration": 0.5779230000000553
                },
                {
                    "name": "G4",
                    "midi": 67,
                    "time": 553.0723109999896,
                    "velocity": 0.2677165354330709,
                    "duration": 0.5779230000000553
                },
                {
                    "name": "E4",
                    "midi": 64,
                    "time": 553.0723109999896,
                    "velocity": 0.2204724409448819,
                    "duration": 0.5779230000000553
                },
                {
                    "name": "C4",
                    "midi": 60,
                    "time": 553.6502339999896,
                    "velocity": 0.3228346456692913,
                    "duration": 0.19264099999998052
                },
                {
                    "name": "A3",
                    "midi": 57,
                    "time": 553.6502339999896,
                    "velocity": 0.3228346456692913,
                    "duration": 0.19264099999998052
                },
                {
                    "name": "F4",
                    "midi": 65,
                    "time": 553.6502339999896,
                    "velocity": 0.3858267716535433,
                    "duration": 0.19264099999998052
                },
                {
                    "name": "C4",
                    "midi": 60,
                    "time": 554.2281569999896,
                    "velocity": 0.33070866141732286,
                    "duration": 0.38528199999996104
                },
                {
                    "name": "C#4",
                    "midi": 61,
                    "time": 554.6134389999895,
                    "velocity": 0.33070866141732286,
                    "duration": 0.19264099999998052
                },
                {
                    "name": "D4",
                    "midi": 62,
                    "time": 554.8060799999895,
                    "velocity": 0.3700787401574803,
                    "duration": 0.7705640000000358
                },
                {
                    "name": "A2",
                    "midi": 45,
                    "time": 556.3472079999896,
                    "velocity": 0.47244094488188976,
                    "duration": 0.19264099999998052
                },
                {
                    "name": "A#2",
                    "midi": 46,
                    "time": 556.5398489999895,
                    "velocity": 0.5196850393700787,
                    "duration": 0.0963205000000471
                },
                {
                    "name": "G3",
                    "midi": 55,
                    "time": 556.7324899999896,
                    "velocity": 0.48031496062992124,
                    "duration": 0.0963205000000471
                },
                {
                    "name": "B2",
                    "midi": 47,
                    "time": 556.9251309999897,
                    "velocity": 0.48031496062992124,
                    "duration": 0.0963205000000471
                },
                {
                    "name": "C3",
                    "midi": 48,
                    "time": 557.1177719999898,
                    "velocity": 0.5196850393700787,
                    "duration": 0.0963205000000471
                },
                {
                    "name": "A3",
                    "midi": 57,
                    "time": 557.3104129999899,
                    "velocity": 0.48031496062992124,
                    "duration": 0.0963205000000471
                },
                {
                    "name": "C#3",
                    "midi": 49,
                    "time": 557.50305399999,
                    "velocity": 0.48031496062992124,
                    "duration": 0.0963205000000471
                },
                {
                    "name": "D3",
                    "midi": 50,
                    "time": 557.6956949999901,
                    "velocity": 0.5196850393700787,
                    "duration": 0.0963205000000471
                },
                {
                    "name": "A#3",
                    "midi": 58,
                    "time": 557.8883359999902,
                    "velocity": 0.48031496062992124,
                    "duration": 0.0963205000000471
                },
                {
                    "name": "E3",
                    "midi": 52,
                    "time": 558.0809769999903,
                    "velocity": 0.48031496062992124,
                    "duration": 0.0963205000000471
                },
                {
                    "name": "A#3",
                    "midi": 58,
                    "time": 558.8515409999903,
                    "velocity": 0.2204724409448819,
                    "duration": 0.5779230000000553
                },
                {
                    "name": "C4",
                    "midi": 60,
                    "time": 558.8515409999903,
                    "velocity": 0.2204724409448819,
                    "duration": 0.5779230000000553
                },
                {
                    "name": "E4",
                    "midi": 64,
                    "time": 558.8515409999903,
                    "velocity": 0.2204724409448819,
                    "duration": 0.5779230000000553
                },
                {
                    "name": "G4",
                    "midi": 67,
                    "time": 558.8515409999903,
                    "velocity": 0.2677165354330709,
                    "duration": 0.5779230000000553
                },
                {
                    "name": "A3",
                    "midi": 57,
                    "time": 559.4294639999904,
                    "velocity": 0.3228346456692913,
                    "duration": 0.19264099999998052
                },
                {
                    "name": "F4",
                    "midi": 65,
                    "time": 559.4294639999904,
                    "velocity": 0.3858267716535433,
                    "duration": 0.19264099999998052
                },
                {
                    "name": "C4",
                    "midi": 60,
                    "time": 559.4294639999904,
                    "velocity": 0.3228346456692913,
                    "duration": 0.19264099999998052
                },
                {
                    "name": "A#3",
                    "midi": 58,
                    "time": 560.0073869999903,
                    "velocity": 0.25196850393700787,
                    "duration": 0.19264099999998052
                },
                {
                    "name": "D4",
                    "midi": 62,
                    "time": 560.0073869999903,
                    "velocity": 0.25196850393700787,
                    "duration": 0.19264099999998052
                },
                {
                    "name": "F4",
                    "midi": 65,
                    "time": 560.0073869999903,
                    "velocity": 0.3228346456692913,
                    "duration": 0.19264099999998052
                },
                {
                    "name": "A3",
                    "midi": 57,
                    "time": 560.5853099999903,
                    "velocity": 0.25196850393700787,
                    "duration": 0.5779230000000553
                },
                {
                    "name": "C3",
                    "midi": 48,
                    "time": 560.5853099999903,
                    "velocity": 0.2125984251968504,
                    "duration": 1.1558460000001105
                },
                {
                    "name": "A#3",
                    "midi": 58,
                    "time": 561.1632329999903,
                    "velocity": 0.2204724409448819,
                    "duration": 0.5779230000000553
                },
                {
                    "name": "F3",
                    "midi": 53,
                    "time": 561.7411559999904,
                    "velocity": 0.2204724409448819,
                    "duration": 0.5779229999999416
                },
                {
                    "name": "A3",
                    "midi": 57,
                    "time": 561.9337969999904,
                    "velocity": 0.1889763779527559,
                    "duration": 0.19264099999998052
                },
                {
                    "name": "C4",
                    "midi": 60,
                    "time": 562.1264379999903,
                    "velocity": 0.1889763779527559,
                    "duration": 0.19264099999998052
                },
                {
                    "name": "F3",
                    "midi": 53,
                    "time": 562.3190789999903,
                    "velocity": 0.2204724409448819,
                    "duration": 0.5779229999999416
                },
                {
                    "name": "G3",
                    "midi": 55,
                    "time": 562.5117199999903,
                    "velocity": 0.2047244094488189,
                    "duration": 0.19264099999998052
                },
                {
                    "name": "A#3",
                    "midi": 58,
                    "time": 562.7043609999903,
                    "velocity": 0.2047244094488189,
                    "duration": 0.19264099999998052
                },
                {
                    "name": "F3",
                    "midi": 53,
                    "time": 562.8970019999903,
                    "velocity": 0.2204724409448819,
                    "duration": 0.5779229999999416
                },
                {
                    "name": "A3",
                    "midi": 57,
                    "time": 563.0896429999902,
                    "velocity": 0.1889763779527559,
                    "duration": 0.19264099999998052
                },
                {
                    "name": "C4",
                    "midi": 60,
                    "time": 563.2822839999902,
                    "velocity": 0.1889763779527559,
                    "duration": 0.19264099999998052
                },
                {
                    "name": "F3",
                    "midi": 53,
                    "time": 563.4749249999902,
                    "velocity": 0.2204724409448819,
                    "duration": 0.5779229999999416
                },
                {
                    "name": "G3",
                    "midi": 55,
                    "time": 563.6675659999902,
                    "velocity": 0.1889763779527559,
                    "duration": 0.19264099999998052
                },
                {
                    "name": "A#3",
                    "midi": 58,
                    "time": 563.8602069999902,
                    "velocity": 0.1889763779527559,
                    "duration": 0.19264099999998052
                },
                {
                    "name": "F3",
                    "midi": 53,
                    "time": 564.0528479999901,
                    "velocity": 0.2204724409448819,
                    "duration": 0.5779229999999416
                },
                {
                    "name": "A3",
                    "midi": 57,
                    "time": 564.2454889999901,
                    "velocity": 0.1889763779527559,
                    "duration": 0.19264099999998052
                },
                {
                    "name": "C4",
                    "midi": 60,
                    "time": 564.4381299999901,
                    "velocity": 0.1889763779527559,
                    "duration": 0.19264099999998052
                },
                {
                    "name": "F3",
                    "midi": 53,
                    "time": 564.6307709999901,
                    "velocity": 0.2204724409448819,
                    "duration": 0.5779229999999416
                },
                {
                    "name": "A3",
                    "midi": 57,
                    "time": 564.8234119999901,
                    "velocity": 0.1889763779527559,
                    "duration": 0.19264099999998052
                },
                {
                    "name": "C4",
                    "midi": 60,
                    "time": 565.01605299999,
                    "velocity": 0.1889763779527559,
                    "duration": 0.19264099999998052
                },
                {
                    "name": "F3",
                    "midi": 53,
                    "time": 565.20869399999,
                    "velocity": 0.2204724409448819,
                    "duration": 0.7705640000000358
                },
                {
                    "name": "F2",
                    "midi": 41,
                    "time": 565.20869399999,
                    "velocity": 0.18110236220472442,
                    "duration": 0.7705640000000358
                }
            ],
            "controlChanges": {
                "7": [
                    {
                        "number": 7,
                        "time": 0,
                        "value": 0.7874015748031497
                    }
                ],
                "10": [
                    {
                        "number": 10,
                        "time": 0,
                        "value": 0.5039370078740157
                    }
                ]
            },
            "id": 2,
            "name": "Piano left",
            "instrumentNumber": 0,
            "instrument": "acoustic grand piano",
            "instrumentFamily": "piano",
            "channelNumber": 0,
            "isPercussion": false
        },
        {
            "startTime": 0,
            "duration": 0,
            "length": 0,
            "notes": [],
            "controlChanges": {
                "64": [
                    {
                        "number": 64,
                        "time": 11.55846,
                        "value": 1
                    },
                    {
                        "number": 64,
                        "time": 11.938123304166666,
                        "value": 0
                    },
                    {
                        "number": 64,
                        "time": 12.182135237499999,
                        "value": 1
                    },
                    {
                        "number": 64,
                        "time": 12.527283695833333,
                        "value": 0
                    },
                    {
                        "number": 64,
                        "time": 12.746412833333332,
                        "value": 1
                    },
                    {
                        "number": 64,
                        "time": 12.852365383333332,
                        "value": 0
                    },
                    {
                        "number": 64,
                        "time": 13.347613287499998,
                        "value": 1
                    },
                    {
                        "number": 64,
                        "time": 13.452763166666665,
                        "value": 0
                    },
                    {
                        "number": 64,
                        "time": 13.870152,
                        "value": 1
                    },
                    {
                        "number": 64,
                        "time": 14.049147595833333,
                        "value": 0
                    },
                    {
                        "number": 64,
                        "time": 14.448075,
                        "value": 1
                    },
                    {
                        "number": 64,
                        "time": 15.034827379166666,
                        "value": 0
                    },
                    {
                        "number": 64,
                        "time": 17.572872554166665,
                        "value": 1
                    },
                    {
                        "number": 64,
                        "time": 17.9132049875,
                        "value": 0
                    },
                    {
                        "number": 64,
                        "time": 17.9469171625,
                        "value": 1
                    },
                    {
                        "number": 64,
                        "time": 18.493536,
                        "value": 0
                    },
                    {
                        "number": 64,
                        "time": 19.689515541666665,
                        "value": 1
                    },
                    {
                        "number": 64,
                        "time": 20.236937049999998,
                        "value": 0
                    },
                    {
                        "number": 64,
                        "time": 20.334862891666663,
                        "value": 1
                    },
                    {
                        "number": 64,
                        "time": 20.840545516666662,
                        "value": 0
                    },
                    {
                        "number": 64,
                        "time": 22.023682324999996,
                        "value": 1
                    },
                    {
                        "number": 64,
                        "time": 23.547954237499997,
                        "value": 0
                    },
                    {
                        "number": 64,
                        "time": 23.604141195833332,
                        "value": 1
                    },
                    {
                        "number": 64,
                        "time": 24.272765999999997,
                        "value": 0
                    },
                    {
                        "number": 64,
                        "time": 26.63582893333333,
                        "value": 1
                    },
                    {
                        "number": 64,
                        "time": 27.740303999999995,
                        "value": 0
                    },
                    {
                        "number": 64,
                        "time": 28.35274184583333,
                        "value": 1
                    },
                    {
                        "number": 64,
                        "time": 28.712338379166663,
                        "value": 0
                    },
                    {
                        "number": 64,
                        "time": 28.777354716666665,
                        "value": 1
                    },
                    {
                        "number": 64,
                        "time": 28.89615,
                        "value": 0
                    },
                    {
                        "number": 64,
                        "time": 29.003707891666664,
                        "value": 1
                    },
                    {
                        "number": 64,
                        "time": 29.495745112499996,
                        "value": 0
                    },
                    {
                        "number": 64,
                        "time": 32.363687999999996,
                        "value": 1
                    },
                    {
                        "number": 64,
                        "time": 33.51953399999999,
                        "value": 0
                    },
                    {
                        "number": 64,
                        "time": 34.67537999999999,
                        "value": 1
                    },
                    {
                        "number": 64,
                        "time": 35.26132970833332,
                        "value": 0
                    },
                    {
                        "number": 64,
                        "time": 35.400994433333324,
                        "value": 1
                    },
                    {
                        "number": 64,
                        "time": 35.831225999999994,
                        "value": 0
                    },
                    {
                        "number": 64,
                        "time": 35.93878389166666,
                        "value": 1
                    },
                    {
                        "number": 64,
                        "time": 36.41797837916666,
                        "value": 0
                    },
                    {
                        "number": 64,
                        "time": 36.49503477916666,
                        "value": 1
                    },
                    {
                        "number": 64,
                        "time": 36.992690695833325,
                        "value": 0
                    },
                    {
                        "number": 64,
                        "time": 37.105064612499994,
                        "value": 1
                    },
                    {
                        "number": 64,
                        "time": 37.57061369583333,
                        "value": 0
                    },
                    {
                        "number": 64,
                        "time": 37.69342233333333,
                        "value": 1
                    },
                    {
                        "number": 64,
                        "time": 38.147734025,
                        "value": 0
                    },
                    {
                        "number": 64,
                        "time": 38.2609106125,
                        "value": 1
                    },
                    {
                        "number": 64,
                        "time": 38.727262366666665,
                        "value": 0
                    },
                    {
                        "number": 64,
                        "time": 38.828398891666666,
                        "value": 1
                    },
                    {
                        "number": 64,
                        "time": 39.30518536666666,
                        "value": 0
                    },
                    {
                        "number": 64,
                        "time": 39.45929816666666,
                        "value": 1
                    },
                    {
                        "number": 64,
                        "time": 39.93046594583333,
                        "value": 0
                    },
                    {
                        "number": 64,
                        "time": 43.95104415,
                        "value": 1
                    },
                    {
                        "number": 64,
                        "time": 44.5169270875,
                        "value": 0
                    },
                    {
                        "number": 64,
                        "time": 44.59077280416667,
                        "value": 1
                    },
                    {
                        "number": 64,
                        "time": 45.08361269583334,
                        "value": 0
                    },
                    {
                        "number": 64,
                        "time": 45.128562262500004,
                        "value": 1
                    },
                    {
                        "number": 64,
                        "time": 45.66474637916667,
                        "value": 0
                    },
                    {
                        "number": 64,
                        "time": 45.701669237500006,
                        "value": 1
                    },
                    {
                        "number": 64,
                        "time": 46.24588006250001,
                        "value": 0
                    },
                    {
                        "number": 64,
                        "time": 56.77852673750001,
                        "value": 1
                    },
                    {
                        "number": 64,
                        "time": 57.378924520833344,
                        "value": 0
                    },
                    {
                        "number": 64,
                        "time": 57.79230000000001,
                        "value": 1
                    },
                    {
                        "number": 64,
                        "time": 58.38146039166668,
                        "value": 0
                    },
                    {
                        "number": 64,
                        "time": 58.477780891666676,
                        "value": 1
                    },
                    {
                        "number": 64,
                        "time": 58.95697537916668,
                        "value": 0
                    },
                    {
                        "number": 64,
                        "time": 59.06132258750001,
                        "value": 1
                    },
                    {
                        "number": 64,
                        "time": 59.690616520833345,
                        "value": 0
                    },
                    {
                        "number": 64,
                        "time": 60.10399200000001,
                        "value": 1
                    },
                    {
                        "number": 64,
                        "time": 60.69315239166668,
                        "value": 0
                    },
                    {
                        "number": 64,
                        "time": 60.789472891666676,
                        "value": 1
                    },
                    {
                        "number": 64,
                        "time": 61.25983800000001,
                        "value": 0
                    },
                    {
                        "number": 64,
                        "time": 61.40672676250001,
                        "value": 1
                    },
                    {
                        "number": 64,
                        "time": 61.84659037916667,
                        "value": 0
                    },
                    {
                        "number": 64,
                        "time": 61.975820383333335,
                        "value": 1
                    },
                    {
                        "number": 64,
                        "time": 62.420500025,
                        "value": 0
                    },
                    {
                        "number": 64,
                        "time": 62.48952971666667,
                        "value": 1
                    },
                    {
                        "number": 64,
                        "time": 62.99762035416666,
                        "value": 0
                    },
                    {
                        "number": 64,
                        "time": 63.13166638333333,
                        "value": 1
                    },
                    {
                        "number": 64,
                        "time": 63.571529999999996,
                        "value": 0
                    },
                    {
                        "number": 64,
                        "time": 63.68149590416666,
                        "value": 1
                    },
                    {
                        "number": 64,
                        "time": 64.15828237916666,
                        "value": 0
                    },
                    {
                        "number": 64,
                        "time": 64.23212809583333,
                        "value": 1
                    },
                    {
                        "number": 64,
                        "time": 64.73138935416667,
                        "value": 0
                    },
                    {
                        "number": 64,
                        "time": 64.81005109583333,
                        "value": 1
                    },
                    {
                        "number": 64,
                        "time": 65.33339247916666,
                        "value": 0
                    },
                    {
                        "number": 64,
                        "time": 65.44335838333333,
                        "value": 1
                    },
                    {
                        "number": 64,
                        "time": 65.883222,
                        "value": 0
                    },
                    {
                        "number": 64,
                        "time": 65.96348908333334,
                        "value": 1
                    },
                    {
                        "number": 64,
                        "time": 66.62569252083334,
                        "value": 0
                    },
                    {
                        "number": 64,
                        "time": 67.039068,
                        "value": 1
                    },
                    {
                        "number": 64,
                        "time": 67.62822839166667,
                        "value": 0
                    },
                    {
                        "number": 64,
                        "time": 67.72454889166667,
                        "value": 1
                    },
                    {
                        "number": 64,
                        "time": 68.20374337916667,
                        "value": 0
                    },
                    {
                        "number": 64,
                        "time": 68.3080905875,
                        "value": 1
                    },
                    {
                        "number": 64,
                        "time": 68.93738452083333,
                        "value": 0
                    },
                    {
                        "number": 64,
                        "time": 69.35076,
                        "value": 1
                    },
                    {
                        "number": 64,
                        "time": 69.93992039166666,
                        "value": 0
                    },
                    {
                        "number": 64,
                        "time": 70.03624089166667,
                        "value": 1
                    },
                    {
                        "number": 64,
                        "time": 70.506606,
                        "value": 0
                    },
                    {
                        "number": 64,
                        "time": 70.6534947625,
                        "value": 1
                    },
                    {
                        "number": 64,
                        "time": 71.09335837916667,
                        "value": 0
                    },
                    {
                        "number": 64,
                        "time": 71.73629771666667,
                        "value": 1
                    },
                    {
                        "number": 64,
                        "time": 72.24438835416667,
                        "value": 0
                    },
                    {
                        "number": 64,
                        "time": 72.37843438333334,
                        "value": 1
                    },
                    {
                        "number": 64,
                        "time": 72.81829800000001,
                        "value": 0
                    },
                    {
                        "number": 64,
                        "time": 72.84639147916668,
                        "value": 1
                    },
                    {
                        "number": 64,
                        "time": 73.40505037916668,
                        "value": 0
                    },
                    {
                        "number": 64,
                        "time": 73.44197323750001,
                        "value": 1
                    },
                    {
                        "number": 64,
                        "time": 74.04317369166668,
                        "value": 0
                    },
                    {
                        "number": 64,
                        "time": 77.83418803750001,
                        "value": 1
                    },
                    {
                        "number": 64,
                        "time": 78.02602636666668,
                        "value": 0
                    },
                    {
                        "number": 64,
                        "time": 78.05171183333336,
                        "value": 1
                    },
                    {
                        "number": 64,
                        "time": 78.22107537916669,
                        "value": 0
                    },
                    {
                        "number": 64,
                        "time": 78.2764596666667,
                        "value": 1
                    },
                    {
                        "number": 64,
                        "time": 78.41050569583336,
                        "value": 0
                    },
                    {
                        "number": 64,
                        "time": 78.44180985833337,
                        "value": 1
                    },
                    {
                        "number": 64,
                        "time": 78.60314669583337,
                        "value": 0
                    },
                    {
                        "number": 64,
                        "time": 78.64328023750004,
                        "value": 1
                    },
                    {
                        "number": 64,
                        "time": 78.79819570833337,
                        "value": 0
                    },
                    {
                        "number": 64,
                        "time": 78.8591986916667,
                        "value": 1
                    },
                    {
                        "number": 64,
                        "time": 78.99003403750004,
                        "value": 0
                    },
                    {
                        "number": 64,
                        "time": 79.03819428750003,
                        "value": 1
                    },
                    {
                        "number": 64,
                        "time": 79.18267503750003,
                        "value": 0
                    },
                    {
                        "number": 64,
                        "time": 79.23083528750003,
                        "value": 1
                    },
                    {
                        "number": 64,
                        "time": 79.37611870833337,
                        "value": 0
                    },
                    {
                        "number": 64,
                        "time": 79.41866026250003,
                        "value": 1
                    },
                    {
                        "number": 64,
                        "time": 79.57036505000002,
                        "value": 0
                    },
                    {
                        "number": 64,
                        "time": 79.61130126250002,
                        "value": 1
                    },
                    {
                        "number": 64,
                        "time": 79.75337400000002,
                        "value": 0
                    },
                    {
                        "number": 64,
                        "time": 83.28592833750002,
                        "value": 1
                    },
                    {
                        "number": 64,
                        "time": 83.83013916250002,
                        "value": 0
                    },
                    {
                        "number": 64,
                        "time": 83.91201158750002,
                        "value": 1
                    },
                    {
                        "number": 64,
                        "time": 84.44578769166668,
                        "value": 0
                    },
                    {
                        "number": 64,
                        "time": 88.23680203750001,
                        "value": 1
                    },
                    {
                        "number": 64,
                        "time": 88.42864036666668,
                        "value": 0
                    },
                    {
                        "number": 64,
                        "time": 88.45432583333336,
                        "value": 1
                    },
                    {
                        "number": 64,
                        "time": 88.62368937916669,
                        "value": 0
                    },
                    {
                        "number": 64,
                        "time": 88.6790736666667,
                        "value": 1
                    },
                    {
                        "number": 64,
                        "time": 88.81311969583336,
                        "value": 0
                    },
                    {
                        "number": 64,
                        "time": 88.84442385833337,
                        "value": 1
                    },
                    {
                        "number": 64,
                        "time": 89.00576069583337,
                        "value": 0
                    },
                    {
                        "number": 64,
                        "time": 89.04589423750004,
                        "value": 1
                    },
                    {
                        "number": 64,
                        "time": 89.20080970833337,
                        "value": 0
                    },
                    {
                        "number": 64,
                        "time": 89.2618126916667,
                        "value": 1
                    },
                    {
                        "number": 64,
                        "time": 89.39264803750004,
                        "value": 0
                    },
                    {
                        "number": 64,
                        "time": 89.44080828750003,
                        "value": 1
                    },
                    {
                        "number": 64,
                        "time": 89.58528903750003,
                        "value": 0
                    },
                    {
                        "number": 64,
                        "time": 89.63344928750003,
                        "value": 1
                    },
                    {
                        "number": 64,
                        "time": 89.77953537916669,
                        "value": 0
                    },
                    {
                        "number": 64,
                        "time": 89.82127426250003,
                        "value": 1
                    },
                    {
                        "number": 64,
                        "time": 89.97297905000002,
                        "value": 0
                    },
                    {
                        "number": 64,
                        "time": 90.01391526250002,
                        "value": 1
                    },
                    {
                        "number": 64,
                        "time": 90.15598800000002,
                        "value": 0
                    },
                    {
                        "number": 64,
                        "time": 93.70941177916669,
                        "value": 1
                    },
                    {
                        "number": 64,
                        "time": 94.20787036666668,
                        "value": 0
                    },
                    {
                        "number": 64,
                        "time": 94.31944161250001,
                        "value": 1
                    },
                    {
                        "number": 64,
                        "time": 94.77937200000001,
                        "value": 0
                    },
                    {
                        "number": 64,
                        "time": 96.04277589166668,
                        "value": 1
                    },
                    {
                        "number": 64,
                        "time": 96.52116770833335,
                        "value": 0
                    },
                    {
                        "number": 64,
                        "time": 96.62069889166669,
                        "value": 1
                    },
                    {
                        "number": 64,
                        "time": 97.10230139166669,
                        "value": 0
                    },
                    {
                        "number": 64,
                        "time": 102.32447783333335,
                        "value": 1
                    },
                    {
                        "number": 64,
                        "time": 102.59256989166668,
                        "value": 0
                    },
                    {
                        "number": 64,
                        "time": 102.89196611250001,
                        "value": 1
                    },
                    {
                        "number": 64,
                        "time": 103.21303444583334,
                        "value": 0
                    },
                    {
                        "number": 64,
                        "time": 115.58460000000001,
                        "value": 1
                    },
                    {
                        "number": 64,
                        "time": 115.96426330416668,
                        "value": 0
                    },
                    {
                        "number": 64,
                        "time": 116.20827523750002,
                        "value": 1
                    },
                    {
                        "number": 64,
                        "time": 116.55342369583335,
                        "value": 0
                    },
                    {
                        "number": 64,
                        "time": 116.77255283333335,
                        "value": 1
                    },
                    {
                        "number": 64,
                        "time": 116.87850538333335,
                        "value": 0
                    },
                    {
                        "number": 64,
                        "time": 117.37375328750001,
                        "value": 1
                    },
                    {
                        "number": 64,
                        "time": 117.47890316666667,
                        "value": 0
                    },
                    {
                        "number": 64,
                        "time": 117.896292,
                        "value": 1
                    },
                    {
                        "number": 64,
                        "time": 118.07528759583333,
                        "value": 0
                    },
                    {
                        "number": 64,
                        "time": 118.474215,
                        "value": 1
                    },
                    {
                        "number": 64,
                        "time": 119.06096737916667,
                        "value": 0
                    },
                    {
                        "number": 64,
                        "time": 121.59901255416666,
                        "value": 1
                    },
                    {
                        "number": 64,
                        "time": 121.9393449875,
                        "value": 0
                    },
                    {
                        "number": 64,
                        "time": 121.9730571625,
                        "value": 1
                    },
                    {
                        "number": 64,
                        "time": 122.519676,
                        "value": 0
                    },
                    {
                        "number": 64,
                        "time": 123.71565554166668,
                        "value": 1
                    },
                    {
                        "number": 64,
                        "time": 124.26307705,
                        "value": 0
                    },
                    {
                        "number": 64,
                        "time": 124.36100289166667,
                        "value": 1
                    },
                    {
                        "number": 64,
                        "time": 124.86668551666668,
                        "value": 0
                    },
                    {
                        "number": 64,
                        "time": 126.04982232500001,
                        "value": 1
                    },
                    {
                        "number": 64,
                        "time": 127.5740942375,
                        "value": 0
                    },
                    {
                        "number": 64,
                        "time": 127.63028119583333,
                        "value": 1
                    },
                    {
                        "number": 64,
                        "time": 128.298906,
                        "value": 0
                    },
                    {
                        "number": 64,
                        "time": 130.66196893333333,
                        "value": 1
                    },
                    {
                        "number": 64,
                        "time": 131.766444,
                        "value": 0
                    },
                    {
                        "number": 64,
                        "time": 132.37888184583335,
                        "value": 1
                    },
                    {
                        "number": 64,
                        "time": 132.73847837916668,
                        "value": 0
                    },
                    {
                        "number": 64,
                        "time": 132.80349471666668,
                        "value": 1
                    },
                    {
                        "number": 64,
                        "time": 132.92229,
                        "value": 0
                    },
                    {
                        "number": 64,
                        "time": 133.02984789166666,
                        "value": 1
                    },
                    {
                        "number": 64,
                        "time": 133.5218851125,
                        "value": 0
                    },
                    {
                        "number": 64,
                        "time": 136.389828,
                        "value": 1
                    },
                    {
                        "number": 64,
                        "time": 137.545674,
                        "value": 0
                    },
                    {
                        "number": 64,
                        "time": 138.70152,
                        "value": 1
                    },
                    {
                        "number": 64,
                        "time": 139.28746970833333,
                        "value": 0
                    },
                    {
                        "number": 64,
                        "time": 139.42713443333332,
                        "value": 1
                    },
                    {
                        "number": 64,
                        "time": 139.85736599999998,
                        "value": 0
                    },
                    {
                        "number": 64,
                        "time": 139.96492389166664,
                        "value": 1
                    },
                    {
                        "number": 64,
                        "time": 140.44411837916664,
                        "value": 0
                    },
                    {
                        "number": 64,
                        "time": 140.52117477916664,
                        "value": 1
                    },
                    {
                        "number": 64,
                        "time": 141.01883069583332,
                        "value": 0
                    },
                    {
                        "number": 64,
                        "time": 141.13120461249997,
                        "value": 1
                    },
                    {
                        "number": 64,
                        "time": 141.5967536958333,
                        "value": 0
                    },
                    {
                        "number": 64,
                        "time": 141.7195623333333,
                        "value": 1
                    },
                    {
                        "number": 64,
                        "time": 142.17387402499998,
                        "value": 0
                    },
                    {
                        "number": 64,
                        "time": 142.28705061249997,
                        "value": 1
                    },
                    {
                        "number": 64,
                        "time": 142.75340236666665,
                        "value": 0
                    },
                    {
                        "number": 64,
                        "time": 142.85453889166664,
                        "value": 1
                    },
                    {
                        "number": 64,
                        "time": 143.33132536666665,
                        "value": 0
                    },
                    {
                        "number": 64,
                        "time": 143.48543816666665,
                        "value": 1
                    },
                    {
                        "number": 64,
                        "time": 143.95660594583333,
                        "value": 0
                    },
                    {
                        "number": 64,
                        "time": 147.9940402375,
                        "value": 1
                    },
                    {
                        "number": 64,
                        "time": 148.53504037916667,
                        "value": 0
                    },
                    {
                        "number": 64,
                        "time": 148.60005671666667,
                        "value": 1
                    },
                    {
                        "number": 64,
                        "time": 149.11296337916667,
                        "value": 0
                    },
                    {
                        "number": 64,
                        "time": 149.16834766666668,
                        "value": 1
                    },
                    {
                        "number": 64,
                        "time": 149.69249172083335,
                        "value": 0
                    },
                    {
                        "number": 64,
                        "time": 149.73744128750002,
                        "value": 1
                    },
                    {
                        "number": 64,
                        "time": 150.27041472083334,
                        "value": 0
                    },
                    {
                        "number": 64,
                        "time": 160.8046667375,
                        "value": 1
                    },
                    {
                        "number": 64,
                        "time": 161.40506452083335,
                        "value": 0
                    },
                    {
                        "number": 64,
                        "time": 161.81844,
                        "value": 1
                    },
                    {
                        "number": 64,
                        "time": 162.40760039166668,
                        "value": 0
                    },
                    {
                        "number": 64,
                        "time": 162.50392089166667,
                        "value": 1
                    },
                    {
                        "number": 64,
                        "time": 162.98311537916666,
                        "value": 0
                    },
                    {
                        "number": 64,
                        "time": 163.0874625875,
                        "value": 1
                    },
                    {
                        "number": 64,
                        "time": 163.71675652083334,
                        "value": 0
                    },
                    {
                        "number": 64,
                        "time": 164.130132,
                        "value": 1
                    },
                    {
                        "number": 64,
                        "time": 164.71929239166667,
                        "value": 0
                    },
                    {
                        "number": 64,
                        "time": 164.81561289166666,
                        "value": 1
                    },
                    {
                        "number": 64,
                        "time": 165.285978,
                        "value": 0
                    },
                    {
                        "number": 64,
                        "time": 165.4328667625,
                        "value": 1
                    },
                    {
                        "number": 64,
                        "time": 165.87273037916665,
                        "value": 0
                    },
                    {
                        "number": 64,
                        "time": 166.0019603833333,
                        "value": 1
                    },
                    {
                        "number": 64,
                        "time": 166.44664002499997,
                        "value": 0
                    },
                    {
                        "number": 64,
                        "time": 166.51566971666662,
                        "value": 1
                    },
                    {
                        "number": 64,
                        "time": 167.02376035416663,
                        "value": 0
                    },
                    {
                        "number": 64,
                        "time": 167.15780638333328,
                        "value": 1
                    },
                    {
                        "number": 64,
                        "time": 167.59766999999994,
                        "value": 0
                    },
                    {
                        "number": 64,
                        "time": 167.7076359041666,
                        "value": 1
                    },
                    {
                        "number": 64,
                        "time": 168.18442237916662,
                        "value": 0
                    },
                    {
                        "number": 64,
                        "time": 168.25826809583327,
                        "value": 1
                    },
                    {
                        "number": 64,
                        "time": 168.7575293541666,
                        "value": 0
                    },
                    {
                        "number": 64,
                        "time": 168.83619109583327,
                        "value": 1
                    },
                    {
                        "number": 64,
                        "time": 169.3595324791666,
                        "value": 0
                    },
                    {
                        "number": 64,
                        "time": 169.46949838333327,
                        "value": 1
                    },
                    {
                        "number": 64,
                        "time": 169.90936199999993,
                        "value": 0
                    },
                    {
                        "number": 64,
                        "time": 169.98962908333326,
                        "value": 1
                    },
                    {
                        "number": 64,
                        "time": 170.65183252083327,
                        "value": 0
                    },
                    {
                        "number": 64,
                        "time": 171.06520799999993,
                        "value": 1
                    },
                    {
                        "number": 64,
                        "time": 171.6543683916666,
                        "value": 0
                    },
                    {
                        "number": 64,
                        "time": 171.75068889166658,
                        "value": 1
                    },
                    {
                        "number": 64,
                        "time": 172.22988337916658,
                        "value": 0
                    },
                    {
                        "number": 64,
                        "time": 172.33423058749992,
                        "value": 1
                    },
                    {
                        "number": 64,
                        "time": 172.96352452083326,
                        "value": 0
                    },
                    {
                        "number": 64,
                        "time": 173.37689999999992,
                        "value": 1
                    },
                    {
                        "number": 64,
                        "time": 173.9660603916666,
                        "value": 0
                    },
                    {
                        "number": 64,
                        "time": 174.06238089166658,
                        "value": 1
                    },
                    {
                        "number": 64,
                        "time": 174.53274599999992,
                        "value": 0
                    },
                    {
                        "number": 64,
                        "time": 174.67963476249992,
                        "value": 1
                    },
                    {
                        "number": 64,
                        "time": 175.11949837916657,
                        "value": 0
                    },
                    {
                        "number": 64,
                        "time": 175.76243771666657,
                        "value": 1
                    },
                    {
                        "number": 64,
                        "time": 176.27052835416657,
                        "value": 0
                    },
                    {
                        "number": 64,
                        "time": 176.40457438333323,
                        "value": 1
                    },
                    {
                        "number": 64,
                        "time": 176.84443799999988,
                        "value": 0
                    },
                    {
                        "number": 64,
                        "time": 176.87253147916655,
                        "value": 1
                    },
                    {
                        "number": 64,
                        "time": 177.43119037916657,
                        "value": 0
                    },
                    {
                        "number": 64,
                        "time": 177.4681132374999,
                        "value": 1
                    },
                    {
                        "number": 64,
                        "time": 178.06931369166657,
                        "value": 0
                    },
                    {
                        "number": 64,
                        "time": 181.8603280374999,
                        "value": 1
                    },
                    {
                        "number": 64,
                        "time": 182.05216636666657,
                        "value": 0
                    },
                    {
                        "number": 64,
                        "time": 182.07785183333323,
                        "value": 1
                    },
                    {
                        "number": 64,
                        "time": 182.24721537916656,
                        "value": 0
                    },
                    {
                        "number": 64,
                        "time": 182.30259966666657,
                        "value": 1
                    },
                    {
                        "number": 64,
                        "time": 182.43664569583322,
                        "value": 0
                    },
                    {
                        "number": 64,
                        "time": 182.4679498583332,
                        "value": 1
                    },
                    {
                        "number": 64,
                        "time": 182.6292866958332,
                        "value": 0
                    },
                    {
                        "number": 64,
                        "time": 182.66942023749988,
                        "value": 1
                    },
                    {
                        "number": 64,
                        "time": 182.82433570833322,
                        "value": 0
                    },
                    {
                        "number": 64,
                        "time": 182.88533869166656,
                        "value": 1
                    },
                    {
                        "number": 64,
                        "time": 183.0161740374999,
                        "value": 0
                    },
                    {
                        "number": 64,
                        "time": 183.0643342874999,
                        "value": 1
                    },
                    {
                        "number": 64,
                        "time": 183.2088150374999,
                        "value": 0
                    },
                    {
                        "number": 64,
                        "time": 183.2569752874999,
                        "value": 1
                    },
                    {
                        "number": 64,
                        "time": 183.40225870833322,
                        "value": 0
                    },
                    {
                        "number": 64,
                        "time": 183.44480026249988,
                        "value": 1
                    },
                    {
                        "number": 64,
                        "time": 183.59650504999988,
                        "value": 0
                    },
                    {
                        "number": 64,
                        "time": 183.63744126249986,
                        "value": 1
                    },
                    {
                        "number": 64,
                        "time": 183.77951399999986,
                        "value": 0
                    },
                    {
                        "number": 64,
                        "time": 187.31206833749985,
                        "value": 1
                    },
                    {
                        "number": 64,
                        "time": 187.85627916249985,
                        "value": 0
                    },
                    {
                        "number": 64,
                        "time": 187.93815158749985,
                        "value": 1
                    },
                    {
                        "number": 64,
                        "time": 188.4719276916665,
                        "value": 0
                    },
                    {
                        "number": 64,
                        "time": 192.26294203749984,
                        "value": 1
                    },
                    {
                        "number": 64,
                        "time": 192.4547803666665,
                        "value": 0
                    },
                    {
                        "number": 64,
                        "time": 192.48046583333317,
                        "value": 1
                    },
                    {
                        "number": 64,
                        "time": 192.6498293791665,
                        "value": 0
                    },
                    {
                        "number": 64,
                        "time": 192.7052136666665,
                        "value": 1
                    },
                    {
                        "number": 64,
                        "time": 192.83925969583316,
                        "value": 0
                    },
                    {
                        "number": 64,
                        "time": 192.87056385833316,
                        "value": 1
                    },
                    {
                        "number": 64,
                        "time": 193.03190069583314,
                        "value": 0
                    },
                    {
                        "number": 64,
                        "time": 193.07203423749982,
                        "value": 1
                    },
                    {
                        "number": 64,
                        "time": 193.22694970833317,
                        "value": 0
                    },
                    {
                        "number": 64,
                        "time": 193.2879526916665,
                        "value": 1
                    },
                    {
                        "number": 64,
                        "time": 193.41878803749984,
                        "value": 0
                    },
                    {
                        "number": 64,
                        "time": 193.46694828749983,
                        "value": 1
                    },
                    {
                        "number": 64,
                        "time": 193.61142903749985,
                        "value": 0
                    },
                    {
                        "number": 64,
                        "time": 193.65958928749984,
                        "value": 1
                    },
                    {
                        "number": 64,
                        "time": 193.8056753791665,
                        "value": 0
                    },
                    {
                        "number": 64,
                        "time": 193.84741426249983,
                        "value": 1
                    },
                    {
                        "number": 64,
                        "time": 193.99911904999982,
                        "value": 0
                    },
                    {
                        "number": 64,
                        "time": 194.0400552624998,
                        "value": 1
                    },
                    {
                        "number": 64,
                        "time": 194.1821279999998,
                        "value": 0
                    },
                    {
                        "number": 64,
                        "time": 197.73555177916649,
                        "value": 1
                    },
                    {
                        "number": 64,
                        "time": 198.2340103666665,
                        "value": 0
                    },
                    {
                        "number": 64,
                        "time": 198.34558161249984,
                        "value": 1
                    },
                    {
                        "number": 64,
                        "time": 198.80551199999985,
                        "value": 0
                    },
                    {
                        "number": 64,
                        "time": 200.0689158916665,
                        "value": 1
                    },
                    {
                        "number": 64,
                        "time": 200.54730770833316,
                        "value": 0
                    },
                    {
                        "number": 64,
                        "time": 200.6468388916665,
                        "value": 1
                    },
                    {
                        "number": 64,
                        "time": 201.1284413916665,
                        "value": 0
                    },
                    {
                        "number": 64,
                        "time": 206.3506178333332,
                        "value": 1
                    },
                    {
                        "number": 64,
                        "time": 206.61870989166653,
                        "value": 0
                    },
                    {
                        "number": 64,
                        "time": 206.91810611249986,
                        "value": 1
                    },
                    {
                        "number": 64,
                        "time": 207.23917444583319,
                        "value": 0
                    },
                    {
                        "number": 64,
                        "time": 216.72594102499986,
                        "value": 1
                    },
                    {
                        "number": 64,
                        "time": 217.29904799999986,
                        "value": 0
                    },
                    {
                        "number": 64,
                        "time": 221.41835471666653,
                        "value": 1
                    },
                    {
                        "number": 64,
                        "time": 221.92243199999987,
                        "value": 0
                    },
                    {
                        "number": 64,
                        "time": 226.09310964999986,
                        "value": 1
                    },
                    {
                        "number": 64,
                        "time": 226.5803308458332,
                        "value": 0
                    },
                    {
                        "number": 64,
                        "time": 230.65147731249988,
                        "value": 1
                    },
                    {
                        "number": 64,
                        "time": 231.16919999999988,
                        "value": 0
                    },
                    {
                        "number": 64,
                        "time": 232.34992879583322,
                        "value": 1
                    },
                    {
                        "number": 64,
                        "time": 232.90939036666654,
                        "value": 0
                    },
                    {
                        "number": 64,
                        "time": 233.0209616124999,
                        "value": 1
                    },
                    {
                        "number": 64,
                        "time": 233.48490535416656,
                        "value": 0
                    },
                    {
                        "number": 64,
                        "time": 233.58202852499988,
                        "value": 1
                    },
                    {
                        "number": 64,
                        "time": 234.06764437916655,
                        "value": 0
                    },
                    {
                        "number": 64,
                        "time": 234.18724233333322,
                        "value": 1
                    },
                    {
                        "number": 64,
                        "time": 234.64075135416655,
                        "value": 0
                    },
                    {
                        "number": 64,
                        "time": 234.75633595416656,
                        "value": 1
                    },
                    {
                        "number": 64,
                        "time": 235.2242930499999,
                        "value": 0
                    },
                    {
                        "number": 64,
                        "time": 235.3527203833332,
                        "value": 1
                    },
                    {
                        "number": 64,
                        "time": 235.79499201249988,
                        "value": 0
                    },
                    {
                        "number": 64,
                        "time": 235.90254990416653,
                        "value": 1
                    },
                    {
                        "number": 64,
                        "time": 236.38013904999985,
                        "value": 0
                    },
                    {
                        "number": 64,
                        "time": 236.47164352499985,
                        "value": 1
                    },
                    {
                        "number": 64,
                        "time": 236.95645670833318,
                        "value": 0
                    },
                    {
                        "number": 64,
                        "time": 237.07685733333318,
                        "value": 1
                    },
                    {
                        "number": 64,
                        "time": 237.53437970833318,
                        "value": 0
                    },
                    {
                        "number": 64,
                        "time": 237.66441238333317,
                        "value": 1
                    },
                    {
                        "number": 64,
                        "time": 238.10909202499982,
                        "value": 0
                    },
                    {
                        "number": 64,
                        "time": 238.2238739541665,
                        "value": 1
                    },
                    {
                        "number": 64,
                        "time": 238.69022570833317,
                        "value": 0
                    },
                    {
                        "number": 64,
                        "time": 238.78333552499984,
                        "value": 1
                    },
                    {
                        "number": 64,
                        "time": 239.26493802499985,
                        "value": 0
                    },
                    {
                        "number": 64,
                        "time": 239.37971995416652,
                        "value": 1
                    },
                    {
                        "number": 64,
                        "time": 239.84446636666652,
                        "value": 0
                    },
                    {
                        "number": 64,
                        "time": 239.98493376249985,
                        "value": 1
                    },
                    {
                        "number": 64,
                        "time": 240.4199813541665,
                        "value": 0
                    },
                    {
                        "number": 64,
                        "time": 240.53556595416651,
                        "value": 1
                    },
                    {
                        "number": 64,
                        "time": 240.99870702499985,
                        "value": 0
                    },
                    {
                        "number": 64,
                        "time": 241.1134889541665,
                        "value": 1
                    },
                    {
                        "number": 64,
                        "time": 241.57903803749986,
                        "value": 0
                    },
                    {
                        "number": 64,
                        "time": 241.6568971083332,
                        "value": 1
                    },
                    {
                        "number": 64,
                        "time": 242.15856637916653,
                        "value": 0
                    },
                    {
                        "number": 64,
                        "time": 242.22358271666653,
                        "value": 1
                    },
                    {
                        "number": 64,
                        "time": 242.73247602499987,
                        "value": 0
                    },
                    {
                        "number": 64,
                        "time": 242.79668969166653,
                        "value": 1
                    },
                    {
                        "number": 64,
                        "time": 243.69487835416652,
                        "value": 0
                    },
                    {
                        "number": 64,
                        "time": 243.75989469166652,
                        "value": 1
                    },
                    {
                        "number": 64,
                        "time": 243.90196742916652,
                        "value": 0
                    },
                    {
                        "number": 64,
                        "time": 243.93407426249985,
                        "value": 1
                    },
                    {
                        "number": 64,
                        "time": 244.47025837916652,
                        "value": 0
                    },
                    {
                        "number": 64,
                        "time": 244.52564266666653,
                        "value": 1
                    },
                    {
                        "number": 64,
                        "time": 245.04336535416653,
                        "value": 0
                    },
                    {
                        "number": 64,
                        "time": 245.17580604166653,
                        "value": 1
                    },
                    {
                        "number": 64,
                        "time": 246.01138637916654,
                        "value": 0
                    },
                    {
                        "number": 64,
                        "time": 246.09887749999987,
                        "value": 1
                    },
                    {
                        "number": 64,
                        "time": 246.19519799999986,
                        "value": 0
                    },
                    {
                        "number": 64,
                        "time": 246.2682410458332,
                        "value": 1
                    },
                    {
                        "number": 64,
                        "time": 246.78275304999988,
                        "value": 0
                    },
                    {
                        "number": 64,
                        "time": 246.86542814583322,
                        "value": 1
                    },
                    {
                        "number": 64,
                        "time": 247.3542546833332,
                        "value": 0
                    },
                    {
                        "number": 64,
                        "time": 247.43773244999988,
                        "value": 1
                    },
                    {
                        "number": 64,
                        "time": 247.93298035416655,
                        "value": 0
                    },
                    {
                        "number": 64,
                        "time": 248.00281271666654,
                        "value": 1
                    },
                    {
                        "number": 64,
                        "time": 248.51571937916654,
                        "value": 0
                    },
                    {
                        "number": 64,
                        "time": 248.5823410583332,
                        "value": 1
                    },
                    {
                        "number": 64,
                        "time": 249.09364237916654,
                        "value": 0
                    },
                    {
                        "number": 64,
                        "time": 249.16427741249987,
                        "value": 1
                    },
                    {
                        "number": 64,
                        "time": 249.6659466833332,
                        "value": 0
                    },
                    {
                        "number": 64,
                        "time": 249.9308280583332,
                        "value": 1
                    },
                    {
                        "number": 64,
                        "time": 251.98004669583318,
                        "value": 0
                    },
                    {
                        "number": 64,
                        "time": 252.12131676249984,
                        "value": 1
                    },
                    {
                        "number": 64,
                        "time": 254.29173869583317,
                        "value": 0
                    },
                    {
                        "number": 64,
                        "time": 254.41454733333316,
                        "value": 1
                    },
                    {
                        "number": 64,
                        "time": 256.5978119999998,
                        "value": 0
                    },
                    {
                        "number": 64,
                        "time": 256.7904529999998,
                        "value": 1
                    },
                    {
                        "number": 64,
                        "time": 257.0200168583331,
                        "value": 0
                    },
                    {
                        "number": 64,
                        "time": 257.41412823749977,
                        "value": 1
                    },
                    {
                        "number": 64,
                        "time": 257.6348627166664,
                        "value": 0
                    },
                    {
                        "number": 64,
                        "time": 258.04743552499974,
                        "value": 1
                    },
                    {
                        "number": 64,
                        "time": 258.21920708333306,
                        "value": 0
                    },
                    {
                        "number": 64,
                        "time": 258.6711107624997,
                        "value": 1
                    },
                    {
                        "number": 64,
                        "time": 258.83565828333303,
                        "value": 0
                    },
                    {
                        "number": 64,
                        "time": 258.941610833333,
                        "value": 1
                    },
                    {
                        "number": 64,
                        "time": 260.070968695833,
                        "value": 0
                    },
                    {
                        "number": 64,
                        "time": 260.26762304999966,
                        "value": 1
                    },
                    {
                        "number": 64,
                        "time": 261.2211959999997,
                        "value": 0
                    },
                    {
                        "number": 64,
                        "time": 261.3407939541664,
                        "value": 1
                    },
                    {
                        "number": 64,
                        "time": 261.8015270124997,
                        "value": 0
                    },
                    {
                        "number": 64,
                        "time": 261.89142614583307,
                        "value": 1
                    },
                    {
                        "number": 64,
                        "time": 262.3794500124997,
                        "value": 0
                    },
                    {
                        "number": 64,
                        "time": 262.55122157083304,
                        "value": 1
                    },
                    {
                        "number": 64,
                        "time": 262.9645970499997,
                        "value": 0
                    },
                    {
                        "number": 64,
                        "time": 263.1114858124997,
                        "value": 1
                    },
                    {
                        "number": 64,
                        "time": 263.53288799999973,
                        "value": 0
                    },
                    {
                        "number": 64,
                        "time": 263.7760972624997,
                        "value": 1
                    },
                    {
                        "number": 64,
                        "time": 263.96392223749973,
                        "value": 0
                    },
                    {
                        "number": 64,
                        "time": 264.3540202624997,
                        "value": 1
                    },
                    {
                        "number": 64,
                        "time": 264.5651226916664,
                        "value": 0
                    },
                    {
                        "number": 64,
                        "time": 264.9439833249997,
                        "value": 1
                    },
                    {
                        "number": 64,
                        "time": 265.1871925874997,
                        "value": 0
                    },
                    {
                        "number": 64,
                        "time": 265.510668933333,
                        "value": 1
                    },
                    {
                        "number": 64,
                        "time": 265.720166020833,
                        "value": 0
                    },
                    {
                        "number": 64,
                        "time": 266.105448020833,
                        "value": 1
                    },
                    {
                        "number": 64,
                        "time": 266.30370771666634,
                        "value": 0
                    },
                    {
                        "number": 64,
                        "time": 266.6946084124997,
                        "value": 1
                    },
                    {
                        "number": 64,
                        "time": 266.87039332499967,
                        "value": 0
                    },
                    {
                        "number": 64,
                        "time": 285.49396199999967,
                        "value": 1
                    },
                    {
                        "number": 64,
                        "time": 285.87362530416635,
                        "value": 0
                    },
                    {
                        "number": 64,
                        "time": 286.1176372374997,
                        "value": 1
                    },
                    {
                        "number": 64,
                        "time": 286.462785695833,
                        "value": 0
                    },
                    {
                        "number": 64,
                        "time": 286.681914833333,
                        "value": 1
                    },
                    {
                        "number": 64,
                        "time": 286.787867383333,
                        "value": 0
                    },
                    {
                        "number": 64,
                        "time": 287.28311528749964,
                        "value": 1
                    },
                    {
                        "number": 64,
                        "time": 287.3882651666663,
                        "value": 0
                    },
                    {
                        "number": 64,
                        "time": 287.80565399999966,
                        "value": 1
                    },
                    {
                        "number": 64,
                        "time": 287.984649595833,
                        "value": 0
                    },
                    {
                        "number": 64,
                        "time": 288.38357699999966,
                        "value": 1
                    },
                    {
                        "number": 64,
                        "time": 288.97032937916634,
                        "value": 0
                    },
                    {
                        "number": 64,
                        "time": 291.5083745541663,
                        "value": 1
                    },
                    {
                        "number": 64,
                        "time": 291.84870698749967,
                        "value": 0
                    },
                    {
                        "number": 64,
                        "time": 291.8824191624997,
                        "value": 1
                    },
                    {
                        "number": 64,
                        "time": 292.42903799999965,
                        "value": 0
                    },
                    {
                        "number": 64,
                        "time": 293.6250175416663,
                        "value": 1
                    },
                    {
                        "number": 64,
                        "time": 294.17243904999964,
                        "value": 0
                    },
                    {
                        "number": 64,
                        "time": 294.2703648916663,
                        "value": 1
                    },
                    {
                        "number": 64,
                        "time": 294.7760475166663,
                        "value": 0
                    },
                    {
                        "number": 64,
                        "time": 295.9591843249997,
                        "value": 1
                    },
                    {
                        "number": 64,
                        "time": 297.4834562374997,
                        "value": 0
                    },
                    {
                        "number": 64,
                        "time": 297.53964319583304,
                        "value": 1
                    },
                    {
                        "number": 64,
                        "time": 298.2082679999997,
                        "value": 0
                    },
                    {
                        "number": 64,
                        "time": 302.86616684583305,
                        "value": 1
                    },
                    {
                        "number": 64,
                        "time": 303.41840437916636,
                        "value": 0
                    },
                    {
                        "number": 64,
                        "time": 303.49465810833306,
                        "value": 1
                    },
                    {
                        "number": 64,
                        "time": 303.9971300499997,
                        "value": 0
                    },
                    {
                        "number": 64,
                        "time": 304.03806626249974,
                        "value": 1
                    },
                    {
                        "number": 64,
                        "time": 304.5742503791664,
                        "value": 0
                    },
                    {
                        "number": 64,
                        "time": 304.6296346666664,
                        "value": 1
                    },
                    {
                        "number": 64,
                        "time": 305.1521733791664,
                        "value": 0
                    },
                    {
                        "number": 64,
                        "time": 316.8438767374997,
                        "value": 1
                    },
                    {
                        "number": 64,
                        "time": 317.44427452083306,
                        "value": 0
                    },
                    {
                        "number": 64,
                        "time": 317.87771677083305,
                        "value": 1
                    },
                    {
                        "number": 64,
                        "time": 318.44681039166636,
                        "value": 0
                    },
                    {
                        "number": 64,
                        "time": 318.54313089166635,
                        "value": 1
                    },
                    {
                        "number": 64,
                        "time": 319.0223253791664,
                        "value": 0
                    },
                    {
                        "number": 64,
                        "time": 319.1266725874997,
                        "value": 1
                    },
                    {
                        "number": 64,
                        "time": 319.755966520833,
                        "value": 0
                    },
                    {
                        "number": 64,
                        "time": 320.203856845833,
                        "value": 1
                    },
                    {
                        "number": 64,
                        "time": 320.75850239166635,
                        "value": 0
                    },
                    {
                        "number": 64,
                        "time": 320.85482289166634,
                        "value": 1
                    },
                    {
                        "number": 64,
                        "time": 321.3251879999997,
                        "value": 0
                    },
                    {
                        "number": 64,
                        "time": 321.4720767624997,
                        "value": 1
                    },
                    {
                        "number": 64,
                        "time": 321.91194037916637,
                        "value": 0
                    },
                    {
                        "number": 64,
                        "time": 322.04117038333305,
                        "value": 1
                    },
                    {
                        "number": 64,
                        "time": 322.4858500249997,
                        "value": 0
                    },
                    {
                        "number": 64,
                        "time": 322.5548797166664,
                        "value": 1
                    },
                    {
                        "number": 64,
                        "time": 323.0629703541664,
                        "value": 0
                    },
                    {
                        "number": 64,
                        "time": 323.19701638333305,
                        "value": 1
                    },
                    {
                        "number": 64,
                        "time": 323.63687999999973,
                        "value": 0
                    },
                    {
                        "number": 64,
                        "time": 323.7468459041664,
                        "value": 1
                    },
                    {
                        "number": 64,
                        "time": 324.22363237916636,
                        "value": 0
                    },
                    {
                        "number": 64,
                        "time": 324.297478095833,
                        "value": 1
                    },
                    {
                        "number": 64,
                        "time": 324.79673935416633,
                        "value": 0
                    },
                    {
                        "number": 64,
                        "time": 324.875401095833,
                        "value": 1
                    },
                    {
                        "number": 64,
                        "time": 325.39874247916634,
                        "value": 0
                    },
                    {
                        "number": 64,
                        "time": 325.508708383333,
                        "value": 1
                    },
                    {
                        "number": 64,
                        "time": 325.9485719999997,
                        "value": 0
                    },
                    {
                        "number": 64,
                        "time": 326.028839083333,
                        "value": 1
                    },
                    {
                        "number": 64,
                        "time": 326.69104252083304,
                        "value": 0
                    },
                    {
                        "number": 64,
                        "time": 327.1044179999997,
                        "value": 1
                    },
                    {
                        "number": 64,
                        "time": 327.6935783916664,
                        "value": 0
                    },
                    {
                        "number": 64,
                        "time": 327.7898988916664,
                        "value": 1
                    },
                    {
                        "number": 64,
                        "time": 328.2690933791664,
                        "value": 0
                    },
                    {
                        "number": 64,
                        "time": 328.3734405874997,
                        "value": 1
                    },
                    {
                        "number": 64,
                        "time": 329.00273452083303,
                        "value": 0
                    },
                    {
                        "number": 64,
                        "time": 329.4161099999997,
                        "value": 1
                    },
                    {
                        "number": 64,
                        "time": 330.0052703916664,
                        "value": 0
                    },
                    {
                        "number": 64,
                        "time": 330.1015908916664,
                        "value": 1
                    },
                    {
                        "number": 64,
                        "time": 330.5719559999997,
                        "value": 0
                    },
                    {
                        "number": 64,
                        "time": 330.7188447624997,
                        "value": 1
                    },
                    {
                        "number": 64,
                        "time": 331.1587083791664,
                        "value": 0
                    },
                    {
                        "number": 64,
                        "time": 331.24218614583305,
                        "value": 1
                    },
                    {
                        "number": 64,
                        "time": 331.73101268333306,
                        "value": 0
                    },
                    {
                        "number": 64,
                        "time": 331.8016477166664,
                        "value": 1
                    },
                    {
                        "number": 64,
                        "time": 332.3097383541664,
                        "value": 0
                    },
                    {
                        "number": 64,
                        "time": 332.4437843833331,
                        "value": 1
                    },
                    {
                        "number": 64,
                        "time": 332.88364799999977,
                        "value": 0
                    },
                    {
                        "number": 64,
                        "time": 332.91174147916644,
                        "value": 1
                    },
                    {
                        "number": 64,
                        "time": 333.47040037916645,
                        "value": 0
                    },
                    {
                        "number": 64,
                        "time": 333.5602995124998,
                        "value": 1
                    },
                    {
                        "number": 64,
                        "time": 334.10852369166645,
                        "value": 0
                    },
                    {
                        "number": 64,
                        "time": 339.0553840374998,
                        "value": 1
                    },
                    {
                        "number": 64,
                        "time": 339.24722236666645,
                        "value": 0
                    },
                    {
                        "number": 64,
                        "time": 339.27290783333314,
                        "value": 1
                    },
                    {
                        "number": 64,
                        "time": 339.44227137916647,
                        "value": 0
                    },
                    {
                        "number": 64,
                        "time": 339.49765566666645,
                        "value": 1
                    },
                    {
                        "number": 64,
                        "time": 339.6317016958331,
                        "value": 0
                    },
                    {
                        "number": 64,
                        "time": 339.6630058583331,
                        "value": 1
                    },
                    {
                        "number": 64,
                        "time": 339.82434269583314,
                        "value": 0
                    },
                    {
                        "number": 64,
                        "time": 339.8644762374998,
                        "value": 1
                    },
                    {
                        "number": 64,
                        "time": 340.0193917083331,
                        "value": 0
                    },
                    {
                        "number": 64,
                        "time": 340.0803946916664,
                        "value": 1
                    },
                    {
                        "number": 64,
                        "time": 340.2112300374998,
                        "value": 0
                    },
                    {
                        "number": 64,
                        "time": 340.2593902874998,
                        "value": 1
                    },
                    {
                        "number": 64,
                        "time": 340.4038710374998,
                        "value": 0
                    },
                    {
                        "number": 64,
                        "time": 340.45203128749984,
                        "value": 1
                    },
                    {
                        "number": 64,
                        "time": 340.59731470833316,
                        "value": 0
                    },
                    {
                        "number": 64,
                        "time": 340.63985626249985,
                        "value": 1
                    },
                    {
                        "number": 64,
                        "time": 340.79156104999987,
                        "value": 0
                    },
                    {
                        "number": 64,
                        "time": 340.8324972624999,
                        "value": 1
                    },
                    {
                        "number": 64,
                        "time": 340.97456999999986,
                        "value": 0
                    },
                    {
                        "number": 64,
                        "time": 344.5071243374999,
                        "value": 1
                    },
                    {
                        "number": 64,
                        "time": 345.05133516249987,
                        "value": 0
                    },
                    {
                        "number": 64,
                        "time": 345.13320758749984,
                        "value": 1
                    },
                    {
                        "number": 64,
                        "time": 345.66698369166653,
                        "value": 0
                    },
                    {
                        "number": 64,
                        "time": 350.61384403749986,
                        "value": 1
                    },
                    {
                        "number": 64,
                        "time": 350.80568236666653,
                        "value": 0
                    },
                    {
                        "number": 64,
                        "time": 350.8313678333332,
                        "value": 1
                    },
                    {
                        "number": 64,
                        "time": 351.00073137916655,
                        "value": 0
                    },
                    {
                        "number": 64,
                        "time": 351.0561156666665,
                        "value": 1
                    },
                    {
                        "number": 64,
                        "time": 351.1901616958332,
                        "value": 0
                    },
                    {
                        "number": 64,
                        "time": 351.2214658583332,
                        "value": 1
                    },
                    {
                        "number": 64,
                        "time": 351.3828026958332,
                        "value": 0
                    },
                    {
                        "number": 64,
                        "time": 351.42293623749987,
                        "value": 1
                    },
                    {
                        "number": 64,
                        "time": 351.5778517083332,
                        "value": 0
                    },
                    {
                        "number": 64,
                        "time": 351.6388546916665,
                        "value": 1
                    },
                    {
                        "number": 64,
                        "time": 351.76969003749986,
                        "value": 0
                    },
                    {
                        "number": 64,
                        "time": 351.8178502874999,
                        "value": 1
                    },
                    {
                        "number": 64,
                        "time": 351.9623310374999,
                        "value": 0
                    },
                    {
                        "number": 64,
                        "time": 352.0104912874999,
                        "value": 1
                    },
                    {
                        "number": 64,
                        "time": 352.1565773791666,
                        "value": 0
                    },
                    {
                        "number": 64,
                        "time": 352.19831626249993,
                        "value": 1
                    },
                    {
                        "number": 64,
                        "time": 352.35002104999995,
                        "value": 0
                    },
                    {
                        "number": 64,
                        "time": 352.39095726249997,
                        "value": 1
                    },
                    {
                        "number": 64,
                        "time": 352.53302999999994,
                        "value": 0
                    },
                    {
                        "number": 64,
                        "time": 356.0864537791666,
                        "value": 1
                    },
                    {
                        "number": 64,
                        "time": 356.58491236666663,
                        "value": 0
                    },
                    {
                        "number": 64,
                        "time": 356.69648361249995,
                        "value": 1
                    },
                    {
                        "number": 64,
                        "time": 357.1564139999999,
                        "value": 0
                    },
                    {
                        "number": 64,
                        "time": 358.4198178916666,
                        "value": 1
                    },
                    {
                        "number": 64,
                        "time": 358.89820970833324,
                        "value": 0
                    },
                    {
                        "number": 64,
                        "time": 358.9977408916666,
                        "value": 1
                    },
                    {
                        "number": 64,
                        "time": 359.4793433916666,
                        "value": 0
                    },
                    {
                        "number": 64,
                        "time": 364.70151983333324,
                        "value": 1
                    },
                    {
                        "number": 64,
                        "time": 364.96961189166655,
                        "value": 0
                    },
                    {
                        "number": 64,
                        "time": 365.2690081124999,
                        "value": 1
                    },
                    {
                        "number": 64,
                        "time": 365.59007644583323,
                        "value": 0
                    },
                    {
                        "number": 64,
                        "time": 366.4465262249999,
                        "value": 1
                    },
                    {
                        "number": 64,
                        "time": 366.86391505833325,
                        "value": 0
                    },
                    {
                        "number": 64,
                        "time": 367.5590279999999,
                        "value": 1
                    },
                    {
                        "number": 64,
                        "time": 367.93387527916656,
                        "value": 0
                    },
                    {
                        "number": 64,
                        "time": 368.76303424999986,
                        "value": 1
                    },
                    {
                        "number": 64,
                        "time": 369.87071999999984,
                        "value": 0
                    },
                    {
                        "number": 64,
                        "time": 370.01520074999985,
                        "value": 1
                    },
                    {
                        "number": 64,
                        "time": 371.02656599999983,
                        "value": 0
                    },
                    {
                        "number": 64,
                        "time": 373.38962893333314,
                        "value": 1
                    },
                    {
                        "number": 64,
                        "time": 374.4941039999998,
                        "value": 0
                    },
                    {
                        "number": 64,
                        "time": 375.10654184583314,
                        "value": 1
                    },
                    {
                        "number": 64,
                        "time": 375.46613837916647,
                        "value": 0
                    },
                    {
                        "number": 64,
                        "time": 375.5311547166665,
                        "value": 1
                    },
                    {
                        "number": 64,
                        "time": 375.6499499999998,
                        "value": 0
                    },
                    {
                        "number": 64,
                        "time": 375.7575078916665,
                        "value": 1
                    },
                    {
                        "number": 64,
                        "time": 376.2495451124998,
                        "value": 0
                    },
                    {
                        "number": 64,
                        "time": 379.1174879999998,
                        "value": 1
                    },
                    {
                        "number": 64,
                        "time": 380.2733339999998,
                        "value": 0
                    },
                    {
                        "number": 64,
                        "time": 381.4291799999998,
                        "value": 1
                    },
                    {
                        "number": 64,
                        "time": 382.0151297083331,
                        "value": 0
                    },
                    {
                        "number": 64,
                        "time": 382.1547944333331,
                        "value": 1
                    },
                    {
                        "number": 64,
                        "time": 382.5850259999998,
                        "value": 0
                    },
                    {
                        "number": 64,
                        "time": 382.69258389166646,
                        "value": 1
                    },
                    {
                        "number": 64,
                        "time": 383.1717783791665,
                        "value": 0
                    },
                    {
                        "number": 64,
                        "time": 383.2488347791665,
                        "value": 1
                    },
                    {
                        "number": 64,
                        "time": 383.74649069583313,
                        "value": 0
                    },
                    {
                        "number": 64,
                        "time": 383.8588646124998,
                        "value": 1
                    },
                    {
                        "number": 64,
                        "time": 384.32441369583313,
                        "value": 0
                    },
                    {
                        "number": 64,
                        "time": 384.4472223333331,
                        "value": 1
                    },
                    {
                        "number": 64,
                        "time": 384.90153402499976,
                        "value": 0
                    },
                    {
                        "number": 64,
                        "time": 385.01471061249975,
                        "value": 1
                    },
                    {
                        "number": 64,
                        "time": 385.48106236666644,
                        "value": 0
                    },
                    {
                        "number": 64,
                        "time": 385.58219889166645,
                        "value": 1
                    },
                    {
                        "number": 64,
                        "time": 386.05898536666643,
                        "value": 0
                    },
                    {
                        "number": 64,
                        "time": 386.21309816666644,
                        "value": 1
                    },
                    {
                        "number": 64,
                        "time": 386.6842659458331,
                        "value": 0
                    },
                    {
                        "number": 64,
                        "time": 395.88207102499973,
                        "value": 1
                    },
                    {
                        "number": 64,
                        "time": 396.4551779999997,
                        "value": 0
                    },
                    {
                        "number": 64,
                        "time": 400.57448471666635,
                        "value": 1
                    },
                    {
                        "number": 64,
                        "time": 401.0785619999997,
                        "value": 0
                    },
                    {
                        "number": 64,
                        "time": 405.2492396499997,
                        "value": 1
                    },
                    {
                        "number": 64,
                        "time": 405.73646084583305,
                        "value": 0
                    },
                    {
                        "number": 64,
                        "time": 409.8076073124997,
                        "value": 1
                    },
                    {
                        "number": 64,
                        "time": 410.3253299999997,
                        "value": 0
                    },
                    {
                        "number": 64,
                        "time": 411.4811759999997,
                        "value": 1
                    },
                    {
                        "number": 64,
                        "time": 412.06552036666636,
                        "value": 0
                    },
                    {
                        "number": 64,
                        "time": 412.1770916124997,
                        "value": 1
                    },
                    {
                        "number": 64,
                        "time": 412.6410353541663,
                        "value": 0
                    },
                    {
                        "number": 64,
                        "time": 412.7381585249997,
                        "value": 1
                    },
                    {
                        "number": 64,
                        "time": 413.22377437916634,
                        "value": 0
                    },
                    {
                        "number": 64,
                        "time": 413.34337233333304,
                        "value": 1
                    },
                    {
                        "number": 64,
                        "time": 413.7968813541664,
                        "value": 0
                    },
                    {
                        "number": 64,
                        "time": 413.91246595416635,
                        "value": 1
                    },
                    {
                        "number": 64,
                        "time": 414.3804230499997,
                        "value": 0
                    },
                    {
                        "number": 64,
                        "time": 414.508850383333,
                        "value": 1
                    },
                    {
                        "number": 64,
                        "time": 414.9511220124997,
                        "value": 0
                    },
                    {
                        "number": 64,
                        "time": 415.05867990416635,
                        "value": 1
                    },
                    {
                        "number": 64,
                        "time": 415.5362690499997,
                        "value": 0
                    },
                    {
                        "number": 64,
                        "time": 415.6277735249997,
                        "value": 1
                    },
                    {
                        "number": 64,
                        "time": 416.1125867083331,
                        "value": 0
                    },
                    {
                        "number": 64,
                        "time": 416.2329873333331,
                        "value": 1
                    },
                    {
                        "number": 64,
                        "time": 416.6905097083331,
                        "value": 0
                    },
                    {
                        "number": 64,
                        "time": 416.8205423833331,
                        "value": 1
                    },
                    {
                        "number": 64,
                        "time": 417.26522202499973,
                        "value": 0
                    },
                    {
                        "number": 64,
                        "time": 417.3800039541664,
                        "value": 1
                    },
                    {
                        "number": 64,
                        "time": 417.8463557083331,
                        "value": 0
                    },
                    {
                        "number": 64,
                        "time": 417.9394655249997,
                        "value": 1
                    },
                    {
                        "number": 64,
                        "time": 418.4210680249997,
                        "value": 0
                    },
                    {
                        "number": 64,
                        "time": 418.5358499541664,
                        "value": 1
                    },
                    {
                        "number": 64,
                        "time": 419.0005963666664,
                        "value": 0
                    },
                    {
                        "number": 64,
                        "time": 419.14106376249975,
                        "value": 1
                    },
                    {
                        "number": 64,
                        "time": 419.5761113541664,
                        "value": 0
                    },
                    {
                        "number": 64,
                        "time": 419.6916959541664,
                        "value": 1
                    },
                    {
                        "number": 64,
                        "time": 420.1548370249997,
                        "value": 0
                    },
                    {
                        "number": 64,
                        "time": 420.2696189541664,
                        "value": 1
                    },
                    {
                        "number": 64,
                        "time": 420.7351680374997,
                        "value": 0
                    },
                    {
                        "number": 64,
                        "time": 420.813027108333,
                        "value": 1
                    },
                    {
                        "number": 64,
                        "time": 421.3146963791664,
                        "value": 0
                    },
                    {
                        "number": 64,
                        "time": 421.3797127166664,
                        "value": 1
                    },
                    {
                        "number": 64,
                        "time": 421.8886060249997,
                        "value": 0
                    },
                    {
                        "number": 64,
                        "time": 421.9528196916664,
                        "value": 1
                    },
                    {
                        "number": 64,
                        "time": 422.85100835416637,
                        "value": 0
                    },
                    {
                        "number": 64,
                        "time": 422.9160246916664,
                        "value": 1
                    },
                    {
                        "number": 64,
                        "time": 423.05809742916637,
                        "value": 0
                    },
                    {
                        "number": 64,
                        "time": 423.0902042624997,
                        "value": 1
                    },
                    {
                        "number": 64,
                        "time": 423.6263883791664,
                        "value": 0
                    },
                    {
                        "number": 64,
                        "time": 423.68177266666635,
                        "value": 1
                    },
                    {
                        "number": 64,
                        "time": 424.19949535416634,
                        "value": 0
                    },
                    {
                        "number": 64,
                        "time": 424.3319360416663,
                        "value": 1
                    },
                    {
                        "number": 64,
                        "time": 425.16751637916633,
                        "value": 0
                    },
                    {
                        "number": 64,
                        "time": 425.25500749999964,
                        "value": 1
                    },
                    {
                        "number": 64,
                        "time": 425.3513279999996,
                        "value": 0
                    },
                    {
                        "number": 64,
                        "time": 425.42437104583297,
                        "value": 1
                    },
                    {
                        "number": 64,
                        "time": 425.9388830499996,
                        "value": 0
                    },
                    {
                        "number": 64,
                        "time": 426.02155814583296,
                        "value": 1
                    },
                    {
                        "number": 64,
                        "time": 426.510384683333,
                        "value": 0
                    },
                    {
                        "number": 64,
                        "time": 426.5938624499996,
                        "value": 1
                    },
                    {
                        "number": 64,
                        "time": 427.0891103541663,
                        "value": 0
                    },
                    {
                        "number": 64,
                        "time": 427.1589427166663,
                        "value": 1
                    },
                    {
                        "number": 64,
                        "time": 427.67184937916625,
                        "value": 0
                    },
                    {
                        "number": 64,
                        "time": 427.7384710583329,
                        "value": 1
                    },
                    {
                        "number": 64,
                        "time": 428.24977237916625,
                        "value": 0
                    },
                    {
                        "number": 64,
                        "time": 428.3204074124996,
                        "value": 1
                    },
                    {
                        "number": 64,
                        "time": 428.82207668333297,
                        "value": 0
                    },
                    {
                        "number": 64,
                        "time": 429.086958058333,
                        "value": 1
                    },
                    {
                        "number": 64,
                        "time": 431.136176695833,
                        "value": 0
                    },
                    {
                        "number": 64,
                        "time": 431.27744676249966,
                        "value": 1
                    },
                    {
                        "number": 64,
                        "time": 433.447868695833,
                        "value": 0
                    },
                    {
                        "number": 64,
                        "time": 433.570677333333,
                        "value": 1
                    },
                    {
                        "number": 64,
                        "time": 435.75394199999965,
                        "value": 0
                    },
                    {
                        "number": 64,
                        "time": 435.94658299999963,
                        "value": 1
                    },
                    {
                        "number": 64,
                        "time": 436.17614685833297,
                        "value": 0
                    },
                    {
                        "number": 64,
                        "time": 436.5702582374996,
                        "value": 1
                    },
                    {
                        "number": 64,
                        "time": 436.79099271666627,
                        "value": 0
                    },
                    {
                        "number": 64,
                        "time": 437.2035655249996,
                        "value": 1
                    },
                    {
                        "number": 64,
                        "time": 437.3753370833329,
                        "value": 0
                    },
                    {
                        "number": 64,
                        "time": 437.82724076249957,
                        "value": 1
                    },
                    {
                        "number": 64,
                        "time": 437.9917882833329,
                        "value": 0
                    },
                    {
                        "number": 64,
                        "time": 438.09774083333286,
                        "value": 1
                    },
                    {
                        "number": 64,
                        "time": 439.22709869583286,
                        "value": 0
                    },
                    {
                        "number": 64,
                        "time": 439.4237530499995,
                        "value": 1
                    },
                    {
                        "number": 64,
                        "time": 440.3773259999995,
                        "value": 0
                    },
                    {
                        "number": 64,
                        "time": 440.4969239541662,
                        "value": 1
                    },
                    {
                        "number": 64,
                        "time": 440.95765701249957,
                        "value": 0
                    },
                    {
                        "number": 64,
                        "time": 441.0475561458329,
                        "value": 1
                    },
                    {
                        "number": 64,
                        "time": 441.53558001249957,
                        "value": 0
                    },
                    {
                        "number": 64,
                        "time": 441.7073515708329,
                        "value": 1
                    },
                    {
                        "number": 64,
                        "time": 442.1207270499996,
                        "value": 0
                    },
                    {
                        "number": 64,
                        "time": 442.26761581249957,
                        "value": 1
                    },
                    {
                        "number": 64,
                        "time": 442.6890179999996,
                        "value": 0
                    },
                    {
                        "number": 64,
                        "time": 442.93222726249957,
                        "value": 1
                    },
                    {
                        "number": 64,
                        "time": 443.1200522374996,
                        "value": 0
                    },
                    {
                        "number": 64,
                        "time": 443.51015026249956,
                        "value": 1
                    },
                    {
                        "number": 64,
                        "time": 443.7212526916662,
                        "value": 0
                    },
                    {
                        "number": 64,
                        "time": 444.10011332499954,
                        "value": 1
                    },
                    {
                        "number": 64,
                        "time": 444.34332258749953,
                        "value": 0
                    },
                    {
                        "number": 64,
                        "time": 444.66679893333287,
                        "value": 1
                    },
                    {
                        "number": 64,
                        "time": 444.87629602083285,
                        "value": 0
                    },
                    {
                        "number": 64,
                        "time": 445.26157802083287,
                        "value": 1
                    },
                    {
                        "number": 64,
                        "time": 445.4598377166662,
                        "value": 0
                    },
                    {
                        "number": 64,
                        "time": 445.85073841249954,
                        "value": 1
                    },
                    {
                        "number": 64,
                        "time": 446.0265233249995,
                        "value": 0
                    },
                    {
                        "number": 64,
                        "time": 464.6500919999995,
                        "value": 1
                    },
                    {
                        "number": 64,
                        "time": 465.0297553041662,
                        "value": 0
                    },
                    {
                        "number": 64,
                        "time": 465.27376723749956,
                        "value": 1
                    },
                    {
                        "number": 64,
                        "time": 465.61891569583287,
                        "value": 0
                    },
                    {
                        "number": 64,
                        "time": 465.83804483333284,
                        "value": 1
                    },
                    {
                        "number": 64,
                        "time": 465.9439973833328,
                        "value": 0
                    },
                    {
                        "number": 64,
                        "time": 466.4392452874995,
                        "value": 1
                    },
                    {
                        "number": 64,
                        "time": 466.54439516666616,
                        "value": 0
                    },
                    {
                        "number": 64,
                        "time": 466.9617839999995,
                        "value": 1
                    },
                    {
                        "number": 64,
                        "time": 467.14077959583284,
                        "value": 0
                    },
                    {
                        "number": 64,
                        "time": 467.5397069999995,
                        "value": 1
                    },
                    {
                        "number": 64,
                        "time": 468.1264593791662,
                        "value": 0
                    },
                    {
                        "number": 64,
                        "time": 470.6645045541662,
                        "value": 1
                    },
                    {
                        "number": 64,
                        "time": 471.0048369874995,
                        "value": 0
                    },
                    {
                        "number": 64,
                        "time": 471.0385491624995,
                        "value": 1
                    },
                    {
                        "number": 64,
                        "time": 471.5851679999995,
                        "value": 0
                    },
                    {
                        "number": 64,
                        "time": 472.78114754166614,
                        "value": 1
                    },
                    {
                        "number": 64,
                        "time": 473.3285690499995,
                        "value": 0
                    },
                    {
                        "number": 64,
                        "time": 473.42649489166615,
                        "value": 1
                    },
                    {
                        "number": 64,
                        "time": 473.9321775166662,
                        "value": 0
                    },
                    {
                        "number": 64,
                        "time": 475.11531432499953,
                        "value": 1
                    },
                    {
                        "number": 64,
                        "time": 476.63958623749954,
                        "value": 0
                    },
                    {
                        "number": 64,
                        "time": 476.6957731958329,
                        "value": 1
                    },
                    {
                        "number": 64,
                        "time": 477.36439799999954,
                        "value": 0
                    },
                    {
                        "number": 64,
                        "time": 482.0391529333329,
                        "value": 1
                    },
                    {
                        "number": 64,
                        "time": 482.5745343791662,
                        "value": 0
                    },
                    {
                        "number": 64,
                        "time": 482.63955071666624,
                        "value": 1
                    },
                    {
                        "number": 64,
                        "time": 483.15566806249956,
                        "value": 0
                    },
                    {
                        "number": 64,
                        "time": 483.19419626249953,
                        "value": 1
                    },
                    {
                        "number": 64,
                        "time": 483.7311830499995,
                        "value": 0
                    },
                    {
                        "number": 64,
                        "time": 483.80422609583286,
                        "value": 1
                    },
                    {
                        "number": 64,
                        "time": 484.31231673333286,
                        "value": 0
                    },
                    {
                        "number": 64,
                        "time": 496.0000067374995,
                        "value": 1
                    },
                    {
                        "number": 64,
                        "time": 496.60040452083285,
                        "value": 0
                    },
                    {
                        "number": 64,
                        "time": 497.01377999999954,
                        "value": 1
                    },
                    {
                        "number": 64,
                        "time": 497.6029403916662,
                        "value": 0
                    },
                    {
                        "number": 64,
                        "time": 497.6992608916662,
                        "value": 1
                    },
                    {
                        "number": 64,
                        "time": 498.1784553791662,
                        "value": 0
                    },
                    {
                        "number": 64,
                        "time": 498.28280258749953,
                        "value": 1
                    },
                    {
                        "number": 64,
                        "time": 498.91209652083285,
                        "value": 0
                    },
                    {
                        "number": 64,
                        "time": 499.32547199999954,
                        "value": 1
                    },
                    {
                        "number": 64,
                        "time": 499.9146323916662,
                        "value": 0
                    },
                    {
                        "number": 64,
                        "time": 500.0109528916662,
                        "value": 1
                    },
                    {
                        "number": 64,
                        "time": 500.48131799999953,
                        "value": 0
                    },
                    {
                        "number": 64,
                        "time": 500.62820676249953,
                        "value": 1
                    },
                    {
                        "number": 64,
                        "time": 501.0680703791662,
                        "value": 0
                    },
                    {
                        "number": 64,
                        "time": 501.1973003833329,
                        "value": 1
                    },
                    {
                        "number": 64,
                        "time": 501.64198002499955,
                        "value": 0
                    },
                    {
                        "number": 64,
                        "time": 501.71100971666624,
                        "value": 1
                    },
                    {
                        "number": 64,
                        "time": 502.21910035416624,
                        "value": 0
                    },
                    {
                        "number": 64,
                        "time": 502.3531463833329,
                        "value": 1
                    },
                    {
                        "number": 64,
                        "time": 502.7930099999996,
                        "value": 0
                    },
                    {
                        "number": 64,
                        "time": 502.9029759041662,
                        "value": 1
                    },
                    {
                        "number": 64,
                        "time": 503.3797623791662,
                        "value": 0
                    },
                    {
                        "number": 64,
                        "time": 503.45360809583286,
                        "value": 1
                    },
                    {
                        "number": 64,
                        "time": 503.9528693541662,
                        "value": 0
                    },
                    {
                        "number": 64,
                        "time": 504.03153109583286,
                        "value": 1
                    },
                    {
                        "number": 64,
                        "time": 504.5548724791662,
                        "value": 0
                    },
                    {
                        "number": 64,
                        "time": 504.66483838333284,
                        "value": 1
                    },
                    {
                        "number": 64,
                        "time": 505.1047019999995,
                        "value": 0
                    },
                    {
                        "number": 64,
                        "time": 505.1849690833329,
                        "value": 1
                    },
                    {
                        "number": 64,
                        "time": 505.8471725208329,
                        "value": 0
                    },
                    {
                        "number": 64,
                        "time": 506.2605479999996,
                        "value": 1
                    },
                    {
                        "number": 64,
                        "time": 506.84970839166624,
                        "value": 0
                    },
                    {
                        "number": 64,
                        "time": 506.94602889166623,
                        "value": 1
                    },
                    {
                        "number": 64,
                        "time": 507.42522337916625,
                        "value": 0
                    },
                    {
                        "number": 64,
                        "time": 507.52957058749956,
                        "value": 1
                    },
                    {
                        "number": 64,
                        "time": 508.1588645208329,
                        "value": 0
                    },
                    {
                        "number": 64,
                        "time": 508.57223999999957,
                        "value": 1
                    },
                    {
                        "number": 64,
                        "time": 509.16140039166623,
                        "value": 0
                    },
                    {
                        "number": 64,
                        "time": 509.2577208916662,
                        "value": 1
                    },
                    {
                        "number": 64,
                        "time": 509.72808599999956,
                        "value": 0
                    },
                    {
                        "number": 64,
                        "time": 509.87497476249956,
                        "value": 1
                    },
                    {
                        "number": 64,
                        "time": 510.31483837916625,
                        "value": 0
                    },
                    {
                        "number": 64,
                        "time": 510.3983161458329,
                        "value": 1
                    },
                    {
                        "number": 64,
                        "time": 510.8871426833329,
                        "value": 0
                    },
                    {
                        "number": 64,
                        "time": 510.95777771666627,
                        "value": 1
                    },
                    {
                        "number": 64,
                        "time": 511.4658683541663,
                        "value": 0
                    },
                    {
                        "number": 64,
                        "time": 511.59991438333293,
                        "value": 1
                    },
                    {
                        "number": 64,
                        "time": 512.0397779999996,
                        "value": 0
                    },
                    {
                        "number": 64,
                        "time": 512.0678714791662,
                        "value": 1
                    },
                    {
                        "number": 64,
                        "time": 512.6265303791662,
                        "value": 0
                    },
                    {
                        "number": 64,
                        "time": 512.7164295124995,
                        "value": 1
                    },
                    {
                        "number": 64,
                        "time": 513.2189014541661,
                        "value": 0
                    },
                    {
                        "number": 64,
                        "time": 518.2115140374995,
                        "value": 1
                    },
                    {
                        "number": 64,
                        "time": 518.4033523666661,
                        "value": 0
                    },
                    {
                        "number": 64,
                        "time": 518.4290378333328,
                        "value": 1
                    },
                    {
                        "number": 64,
                        "time": 518.5984013791661,
                        "value": 0
                    },
                    {
                        "number": 64,
                        "time": 518.6537856666662,
                        "value": 1
                    },
                    {
                        "number": 64,
                        "time": 518.7878316958329,
                        "value": 0
                    },
                    {
                        "number": 64,
                        "time": 518.8191358583329,
                        "value": 1
                    },
                    {
                        "number": 64,
                        "time": 518.9804726958329,
                        "value": 0
                    },
                    {
                        "number": 64,
                        "time": 519.0206062374996,
                        "value": 1
                    },
                    {
                        "number": 64,
                        "time": 519.1755217083329,
                        "value": 0
                    },
                    {
                        "number": 64,
                        "time": 519.2365246916662,
                        "value": 1
                    },
                    {
                        "number": 64,
                        "time": 519.3673600374996,
                        "value": 0
                    },
                    {
                        "number": 64,
                        "time": 519.4155202874996,
                        "value": 1
                    },
                    {
                        "number": 64,
                        "time": 519.5600010374995,
                        "value": 0
                    },
                    {
                        "number": 64,
                        "time": 519.6081612874996,
                        "value": 1
                    },
                    {
                        "number": 64,
                        "time": 519.753444708333,
                        "value": 0
                    },
                    {
                        "number": 64,
                        "time": 519.7959862624996,
                        "value": 1
                    },
                    {
                        "number": 64,
                        "time": 519.9476910499995,
                        "value": 0
                    },
                    {
                        "number": 64,
                        "time": 519.9886272624996,
                        "value": 1
                    },
                    {
                        "number": 64,
                        "time": 520.1306999999996,
                        "value": 0
                    },
                    {
                        "number": 64,
                        "time": 523.6632543374996,
                        "value": 1
                    },
                    {
                        "number": 64,
                        "time": 524.2074651624996,
                        "value": 0
                    },
                    {
                        "number": 64,
                        "time": 524.2893375874996,
                        "value": 1
                    },
                    {
                        "number": 64,
                        "time": 524.8231136916663,
                        "value": 0
                    },
                    {
                        "number": 64,
                        "time": 529.7699740374997,
                        "value": 1
                    },
                    {
                        "number": 64,
                        "time": 529.9618123666663,
                        "value": 0
                    },
                    {
                        "number": 64,
                        "time": 529.987497833333,
                        "value": 1
                    },
                    {
                        "number": 64,
                        "time": 530.1568613791663,
                        "value": 0
                    },
                    {
                        "number": 64,
                        "time": 530.2122456666664,
                        "value": 1
                    },
                    {
                        "number": 64,
                        "time": 530.3462916958331,
                        "value": 0
                    },
                    {
                        "number": 64,
                        "time": 530.377595858333,
                        "value": 1
                    },
                    {
                        "number": 64,
                        "time": 530.5389326958331,
                        "value": 0
                    },
                    {
                        "number": 64,
                        "time": 530.5790662374998,
                        "value": 1
                    },
                    {
                        "number": 64,
                        "time": 530.7339817083331,
                        "value": 0
                    },
                    {
                        "number": 64,
                        "time": 530.7949846916664,
                        "value": 1
                    },
                    {
                        "number": 64,
                        "time": 530.9258200374998,
                        "value": 0
                    },
                    {
                        "number": 64,
                        "time": 530.9739802874998,
                        "value": 1
                    },
                    {
                        "number": 64,
                        "time": 531.1184610374997,
                        "value": 0
                    },
                    {
                        "number": 64,
                        "time": 531.1666212874998,
                        "value": 1
                    },
                    {
                        "number": 64,
                        "time": 531.3127073791665,
                        "value": 0
                    },
                    {
                        "number": 64,
                        "time": 531.3544462624998,
                        "value": 1
                    },
                    {
                        "number": 64,
                        "time": 531.5061510499997,
                        "value": 0
                    },
                    {
                        "number": 64,
                        "time": 531.5470872624998,
                        "value": 1
                    },
                    {
                        "number": 64,
                        "time": 531.6891599999998,
                        "value": 0
                    },
                    {
                        "number": 64,
                        "time": 535.2425837791665,
                        "value": 1
                    },
                    {
                        "number": 64,
                        "time": 535.7410423666664,
                        "value": 0
                    },
                    {
                        "number": 64,
                        "time": 535.8526136124998,
                        "value": 1
                    },
                    {
                        "number": 64,
                        "time": 536.3125439999998,
                        "value": 0
                    },
                    {
                        "number": 64,
                        "time": 537.5759478916665,
                        "value": 1
                    },
                    {
                        "number": 64,
                        "time": 538.0543397083331,
                        "value": 0
                    },
                    {
                        "number": 64,
                        "time": 538.1538708916664,
                        "value": 1
                    },
                    {
                        "number": 64,
                        "time": 538.6354733916664,
                        "value": 0
                    },
                    {
                        "number": 64,
                        "time": 543.8576498333331,
                        "value": 1
                    },
                    {
                        "number": 64,
                        "time": 544.1257418916664,
                        "value": 0
                    },
                    {
                        "number": 64,
                        "time": 544.4251381124998,
                        "value": 1
                    },
                    {
                        "number": 64,
                        "time": 544.7462064458331,
                        "value": 0
                    },
                    {
                        "number": 64,
                        "time": 545.6026562249997,
                        "value": 1
                    },
                    {
                        "number": 64,
                        "time": 546.020045058333,
                        "value": 0
                    },
                    {
                        "number": 64,
                        "time": 546.7151579999997,
                        "value": 1
                    },
                    {
                        "number": 64,
                        "time": 547.0900052791665,
                        "value": 0
                    },
                    {
                        "number": 64,
                        "time": 547.9191642499998,
                        "value": 1
                    },
                    {
                        "number": 64,
                        "time": 549.0268499999997,
                        "value": 0
                    },
                    {
                        "number": 64,
                        "time": 549.1713307499997,
                        "value": 1
                    },
                    {
                        "number": 64,
                        "time": 550.1826959999997,
                        "value": 0
                    },
                    {
                        "number": 64,
                        "time": 552.5457589333331,
                        "value": 1
                    },
                    {
                        "number": 64,
                        "time": 553.6502339999997,
                        "value": 0
                    },
                    {
                        "number": 64,
                        "time": 554.2626718458331,
                        "value": 1
                    },
                    {
                        "number": 64,
                        "time": 554.6222683791665,
                        "value": 0
                    },
                    {
                        "number": 64,
                        "time": 554.6872847166665,
                        "value": 1
                    },
                    {
                        "number": 64,
                        "time": 554.8060799999998,
                        "value": 0
                    },
                    {
                        "number": 64,
                        "time": 554.9136378916666,
                        "value": 1
                    },
                    {
                        "number": 64,
                        "time": 555.4056751124999,
                        "value": 0
                    },
                    {
                        "number": 64,
                        "time": 558.2736179999999,
                        "value": 1
                    },
                    {
                        "number": 64,
                        "time": 559.4294639999999,
                        "value": 0
                    },
                    {
                        "number": 64,
                        "time": 560.5853099999999,
                        "value": 1
                    },
                    {
                        "number": 64,
                        "time": 561.1712597083333,
                        "value": 0
                    },
                    {
                        "number": 64,
                        "time": 561.3109244333333,
                        "value": 1
                    },
                    {
                        "number": 64,
                        "time": 561.7411559999999,
                        "value": 0
                    },
                    {
                        "number": 64,
                        "time": 561.8487138916666,
                        "value": 1
                    },
                    {
                        "number": 64,
                        "time": 562.3279083791666,
                        "value": 0
                    },
                    {
                        "number": 64,
                        "time": 562.4049647791666,
                        "value": 1
                    },
                    {
                        "number": 64,
                        "time": 562.9026206958332,
                        "value": 0
                    },
                    {
                        "number": 64,
                        "time": 563.0149946124999,
                        "value": 1
                    },
                    {
                        "number": 64,
                        "time": 563.4805436958333,
                        "value": 0
                    },
                    {
                        "number": 64,
                        "time": 563.6033523333333,
                        "value": 1
                    },
                    {
                        "number": 64,
                        "time": 564.057664025,
                        "value": 0
                    },
                    {
                        "number": 64,
                        "time": 564.1708406125,
                        "value": 1
                    },
                    {
                        "number": 64,
                        "time": 564.6371923666667,
                        "value": 0
                    },
                    {
                        "number": 64,
                        "time": 564.7383288916667,
                        "value": 1
                    },
                    {
                        "number": 64,
                        "time": 565.2151153666667,
                        "value": 0
                    },
                    {
                        "number": 64,
                        "time": 565.3692281666667,
                        "value": 1
                    },
                    {
                        "number": 64,
                        "time": 565.8403959458334,
                        "value": 0
                    },
                    {
                        "number": 64,
                        "time": 565.8403959458334,
                        "value": 0
                    }
                ]
            },
            "id": 3,
            "name": "Pedal",
            "instrumentNumber": 0,
            "instrument": "acoustic grand piano",
            "instrumentFamily": "piano",
            "channelNumber": 0,
            "isPercussion": false
        },
        {
            "startTime": 0,
            "duration": 0,
            "length": 0,
            "notes": [],
            "controlChanges": {},
            "id": 4,
            "name": "Mozart: Sonate KV 332"
        },
        {
            "startTime": 0,
            "duration": 0,
            "length": 0,
            "notes": [],
            "controlChanges": {},
            "id": 5,
            "name": "Copyright  2006 by Bernd Krger"
        },
        {
            "startTime": 0,
            "duration": 0,
            "length": 0,
            "notes": [],
            "controlChanges": {},
            "id": 6,
            "name": "http://www.piano-midi.de"
        },
        {
            "startTime": 0,
            "duration": 0,
            "length": 0,
            "notes": [],
            "controlChanges": {},
            "id": 7,
            "name": "Edition: 2013-07-28"
        },
        {
            "startTime": 0,
            "duration": 0,
            "length": 0,
            "notes": [],
            "controlChanges": {},
            "id": 8,
            "name": "Spur 8"
        },
        {
            "startTime": 0,
            "duration": 0,
            "length": 0,
            "notes": [],
            "controlChanges": {},
            "id": 9,
            "name": "Spur 9"
        }
    ]
}