{
    "header": {
        "PPQ": 480,
        "timeSignature": [
            2,
            4
        ],
        "bpm": 44.38999272004119,
        "name": "Klaviersonate Nr. 8 KV 311 2. Satz"
    },
    "startTime": 0,
    "duration": 280.46862000000095,
    "tracks": [
        {
            "startTime": 0,
            "duration": 0,
            "length": 0,
            "notes": [],
            "controlChanges": {},
            "id": 0,
            "name": "Klaviersonate Nr. 8 KV 311 2. Satz"
        },
        {
            "startTime": 0,
            "duration": 280.4686200000004,
            "length": 953,
            "notes": [
                {
                    "name": "B4",
                    "midi": 71,
                    "time": 0,
                    "velocity": 0.3937007874015748,
                    "duration": 0.506871
                },
                {
                    "name": "D5",
                    "midi": 74,
                    "time": 0.506871,
                    "velocity": 0.33070866141732286,
                    "duration": 0.16895700000000002
                },
                {
                    "name": "C5",
                    "midi": 72,
                    "time": 0.675828,
                    "velocity": 0.3937007874015748,
                    "duration": 0.506871
                },
                {
                    "name": "B4",
                    "midi": 71,
                    "time": 1.182699,
                    "velocity": 0.3700787401574803,
                    "duration": 0.16895700000000002
                },
                {
                    "name": "A4",
                    "midi": 69,
                    "time": 1.351656,
                    "velocity": 0.3937007874015748,
                    "duration": 0.6758279999999999
                },
                {
                    "name": "B4",
                    "midi": 71,
                    "time": 2.027484,
                    "velocity": 0.36220472440944884,
                    "duration": 0.6758280000000001
                },
                {
                    "name": "C5",
                    "midi": 72,
                    "time": 2.703312,
                    "velocity": 0.3937007874015748,
                    "duration": 0.6758280000000001
                },
                {
                    "name": "D5",
                    "midi": 74,
                    "time": 3.37914,
                    "velocity": 0.36220472440944884,
                    "duration": 0.6758279999999997
                },
                {
                    "name": "C5",
                    "midi": 72,
                    "time": 4.054968,
                    "velocity": 0.3700787401574803,
                    "duration": 0.3379139999999996
                },
                {
                    "name": "B4",
                    "midi": 71,
                    "time": 4.392881999999999,
                    "velocity": 0.3858267716535433,
                    "duration": 0.3379139999999996
                },
                {
                    "name": "A4",
                    "midi": 69,
                    "time": 4.730795999999999,
                    "velocity": 0.4015748031496063,
                    "duration": 0.3379139999999996
                },
                {
                    "name": "G4",
                    "midi": 67,
                    "time": 5.0687099999999985,
                    "velocity": 0.41732283464566927,
                    "duration": 0.3379139999999996
                },
                {
                    "name": "G4",
                    "midi": 67,
                    "time": 5.406623999999998,
                    "velocity": 0.5118110236220472,
                    "duration": 0.3379139999999996
                },
                {
                    "name": "C5",
                    "midi": 72,
                    "time": 5.406623999999998,
                    "velocity": 0.5118110236220472,
                    "duration": 0.3379139999999996
                },
                {
                    "name": "B4",
                    "midi": 71,
                    "time": 6.082451999999997,
                    "velocity": 0.48031496062992124,
                    "duration": 0.3379139999999996
                },
                {
                    "name": "G4",
                    "midi": 67,
                    "time": 6.082451999999997,
                    "velocity": 0.48031496062992124,
                    "duration": 0.3379139999999996
                },
                {
                    "name": "E5",
                    "midi": 76,
                    "time": 6.7582799999999965,
                    "velocity": 0.5275590551181102,
                    "duration": 0.3379139999999996
                },
                {
                    "name": "G4",
                    "midi": 67,
                    "time": 6.7582799999999965,
                    "velocity": 0.5275590551181102,
                    "duration": 0.3379139999999996
                },
                {
                    "name": "D5",
                    "midi": 74,
                    "time": 7.772021999999996,
                    "velocity": 0.3700787401574803,
                    "duration": 0.3379139999999996
                },
                {
                    "name": "G4",
                    "midi": 67,
                    "time": 7.772021999999996,
                    "velocity": 0.3700787401574803,
                    "duration": 0.3379139999999996
                },
                {
                    "name": "C5",
                    "midi": 72,
                    "time": 8.109935999999996,
                    "velocity": 0.3937007874015748,
                    "duration": 0.3379139999999996
                },
                {
                    "name": "A4",
                    "midi": 69,
                    "time": 8.447849999999995,
                    "velocity": 0.33070866141732286,
                    "duration": 0.3379139999999996
                },
                {
                    "name": "B4",
                    "midi": 71,
                    "time": 8.785763999999995,
                    "velocity": 0.3937007874015748,
                    "duration": 0.3379139999999996
                },
                {
                    "name": "G4",
                    "midi": 67,
                    "time": 9.123677999999995,
                    "velocity": 0.33070866141732286,
                    "duration": 0.3379139999999996
                },
                {
                    "name": "G4",
                    "midi": 67,
                    "time": 9.461591999999994,
                    "velocity": 0.3937007874015748,
                    "duration": 0.6758279999999992
                },
                {
                    "name": "B4",
                    "midi": 71,
                    "time": 9.461591999999994,
                    "velocity": 0.3937007874015748,
                    "duration": 0.6758279999999992
                },
                {
                    "name": "F#4",
                    "midi": 66,
                    "time": 10.137419999999993,
                    "velocity": 0.3464566929133858,
                    "duration": 0.6758279999999992
                },
                {
                    "name": "A4",
                    "midi": 69,
                    "time": 10.137419999999993,
                    "velocity": 0.3464566929133858,
                    "duration": 0.6758279999999992
                },
                {
                    "name": "B4",
                    "midi": 71,
                    "time": 10.813247999999993,
                    "velocity": 0.3937007874015748,
                    "duration": 0.5068710000000003
                },
                {
                    "name": "D5",
                    "midi": 74,
                    "time": 11.320118999999993,
                    "velocity": 0.33070866141732286,
                    "duration": 0.1689570000000007
                },
                {
                    "name": "C5",
                    "midi": 72,
                    "time": 11.489075999999994,
                    "velocity": 0.3779527559055118,
                    "duration": 0.5068710000000003
                },
                {
                    "name": "B4",
                    "midi": 71,
                    "time": 11.995946999999994,
                    "velocity": 0.3700787401574803,
                    "duration": 0.1689570000000007
                },
                {
                    "name": "A4",
                    "midi": 69,
                    "time": 12.164903999999995,
                    "velocity": 0.3937007874015748,
                    "duration": 0.6758279999999992
                },
                {
                    "name": "B4",
                    "midi": 71,
                    "time": 12.840731999999994,
                    "velocity": 0.36220472440944884,
                    "duration": 0.6758279999999992
                },
                {
                    "name": "C5",
                    "midi": 72,
                    "time": 13.516559999999993,
                    "velocity": 0.3937007874015748,
                    "duration": 0.6758279999999992
                },
                {
                    "name": "E5",
                    "midi": 76,
                    "time": 14.192387999999992,
                    "velocity": 0.36220472440944884,
                    "duration": 0.3379139999999996
                },
                {
                    "name": "D5",
                    "midi": 74,
                    "time": 14.530301999999992,
                    "velocity": 0.3858267716535433,
                    "duration": 0.3379139999999996
                },
                {
                    "name": "C5",
                    "midi": 72,
                    "time": 14.868215999999991,
                    "velocity": 0.3700787401574803,
                    "duration": 0.3379139999999996
                },
                {
                    "name": "B4",
                    "midi": 71,
                    "time": 15.206129999999991,
                    "velocity": 0.3858267716535433,
                    "duration": 0.3379139999999996
                },
                {
                    "name": "A4",
                    "midi": 69,
                    "time": 15.54404399999999,
                    "velocity": 0.4015748031496063,
                    "duration": 0.3379139999999996
                },
                {
                    "name": "G4",
                    "midi": 67,
                    "time": 15.88195799999999,
                    "velocity": 0.41732283464566927,
                    "duration": 0.3379140000000014
                },
                {
                    "name": "G4",
                    "midi": 67,
                    "time": 16.21987199999999,
                    "velocity": 0.5118110236220472,
                    "duration": 0.3379140000000014
                },
                {
                    "name": "C5",
                    "midi": 72,
                    "time": 16.21987199999999,
                    "velocity": 0.5118110236220472,
                    "duration": 0.3379140000000014
                },
                {
                    "name": "B4",
                    "midi": 71,
                    "time": 16.895699999999994,
                    "velocity": 0.48031496062992124,
                    "duration": 0.3379140000000014
                },
                {
                    "name": "G4",
                    "midi": 67,
                    "time": 16.895699999999994,
                    "velocity": 0.48031496062992124,
                    "duration": 0.3379140000000014
                },
                {
                    "name": "E5",
                    "midi": 76,
                    "time": 17.571527999999997,
                    "velocity": 0.5275590551181102,
                    "duration": 0.3379140000000014
                },
                {
                    "name": "G4",
                    "midi": 67,
                    "time": 17.571527999999997,
                    "velocity": 0.5275590551181102,
                    "duration": 1.0137420000000041
                },
                {
                    "name": "F#5",
                    "midi": 78,
                    "time": 17.909442,
                    "velocity": 0.4881889763779528,
                    "duration": 0.3379140000000014
                },
                {
                    "name": "G5",
                    "midi": 79,
                    "time": 18.247356,
                    "velocity": 0.5118110236220472,
                    "duration": 0.3379140000000014
                },
                {
                    "name": "C5",
                    "midi": 72,
                    "time": 18.58527,
                    "velocity": 0.3700787401574803,
                    "duration": 0.25343549999999837
                },
                {
                    "name": "B4",
                    "midi": 71,
                    "time": 18.923184,
                    "velocity": 0.3937007874015748,
                    "duration": 0.6758279999999992
                },
                {
                    "name": "A4",
                    "midi": 69,
                    "time": 19.599012,
                    "velocity": 0.3700787401574803,
                    "duration": 0.07603064999999987
                },
                {
                    "name": "B4",
                    "midi": 71,
                    "time": 19.675042649999998,
                    "velocity": 0.3700787401574803,
                    "duration": 0.07321470000000119
                },
                {
                    "name": "A4",
                    "midi": 69,
                    "time": 19.74825735,
                    "velocity": 0.3700787401574803,
                    "duration": 0.07603064999999987
                },
                {
                    "name": "B4",
                    "midi": 71,
                    "time": 19.82147205,
                    "velocity": 0.3700787401574803,
                    "duration": 0.07603064999999987
                },
                {
                    "name": "A4",
                    "midi": 69,
                    "time": 19.8975027,
                    "velocity": 0.3543307086614173,
                    "duration": 0.07321470000000119
                },
                {
                    "name": "B4",
                    "midi": 71,
                    "time": 19.9707174,
                    "velocity": 0.3543307086614173,
                    "duration": 0.07603064999999987
                },
                {
                    "name": "A4",
                    "midi": 69,
                    "time": 20.04674805,
                    "velocity": 0.3543307086614173,
                    "duration": 0.07321470000000119
                },
                {
                    "name": "G4",
                    "midi": 67,
                    "time": 20.119962750000003,
                    "velocity": 0.3543307086614173,
                    "duration": 0.07603064999999987
                },
                {
                    "name": "A4",
                    "midi": 69,
                    "time": 20.193177450000004,
                    "velocity": 0.3937007874015748,
                    "duration": 0.08166254999999722
                },
                {
                    "name": "G4",
                    "midi": 67,
                    "time": 20.27484,
                    "velocity": 0.3543307086614173,
                    "duration": 1.3516559999999984
                },
                {
                    "name": "B4",
                    "midi": 71,
                    "time": 21.626496,
                    "velocity": 0.3543307086614173,
                    "duration": 0.6758279999999992
                },
                {
                    "name": "A4",
                    "midi": 69,
                    "time": 22.302324,
                    "velocity": 0.3543307086614173,
                    "duration": 0.6758279999999992
                },
                {
                    "name": "G4",
                    "midi": 67,
                    "time": 22.978151999999998,
                    "velocity": 0.3543307086614173,
                    "duration": 0.3379140000000014
                },
                {
                    "name": "F#4",
                    "midi": 66,
                    "time": 23.316066,
                    "velocity": 0.3228346456692913,
                    "duration": 0.32946614999999824
                },
                {
                    "name": "F#4",
                    "midi": 66,
                    "time": 23.653979999999997,
                    "velocity": 0.3543307086614173,
                    "duration": 0.3379140000000014
                },
                {
                    "name": "D4",
                    "midi": 62,
                    "time": 23.991894,
                    "velocity": 0.3228346456692913,
                    "duration": 0.3379140000000014
                },
                {
                    "name": "B4",
                    "midi": 71,
                    "time": 24.329808,
                    "velocity": 0.4015748031496063,
                    "duration": 1.3516559999999984
                },
                {
                    "name": "G4",
                    "midi": 67,
                    "time": 25.681464,
                    "velocity": 0.3543307086614173,
                    "duration": 0.6758279999999992
                },
                {
                    "name": "G4",
                    "midi": 67,
                    "time": 26.357291999999998,
                    "velocity": 0.3464566929133858,
                    "duration": 0.07603064999999987
                },
                {
                    "name": "A4",
                    "midi": 69,
                    "time": 26.433322649999997,
                    "velocity": 0.31496062992125984,
                    "duration": 0.07321470000000119
                },
                {
                    "name": "G4",
                    "midi": 67,
                    "time": 26.50653735,
                    "velocity": 0.3464566929133858,
                    "duration": 0.07603064999999987
                },
                {
                    "name": "A4",
                    "midi": 69,
                    "time": 26.57975205,
                    "velocity": 0.30708661417322836,
                    "duration": 0.07603064999999987
                },
                {
                    "name": "G4",
                    "midi": 67,
                    "time": 26.6557827,
                    "velocity": 0.3543307086614173,
                    "duration": 0.07321470000000119
                },
                {
                    "name": "A4",
                    "midi": 69,
                    "time": 26.7289974,
                    "velocity": 0.3228346456692913,
                    "duration": 0.07603064999999987
                },
                {
                    "name": "G4",
                    "midi": 67,
                    "time": 26.80502805,
                    "velocity": 0.3543307086614173,
                    "duration": 0.07321470000000119
                },
                {
                    "name": "F#4",
                    "midi": 66,
                    "time": 26.878242750000002,
                    "velocity": 0.3779527559055118,
                    "duration": 0.07603064999999987
                },
                {
                    "name": "G4",
                    "midi": 67,
                    "time": 26.951457450000003,
                    "velocity": 0.33070866141732286,
                    "duration": 0.08166254999999722
                },
                {
                    "name": "B4",
                    "midi": 71,
                    "time": 27.03312,
                    "velocity": 0.3543307086614173,
                    "duration": 0.3379140000000014
                },
                {
                    "name": "A4",
                    "midi": 69,
                    "time": 27.371034,
                    "velocity": 0.3543307086614173,
                    "duration": 0.33228210000000047
                },
                {
                    "name": "A4",
                    "midi": 69,
                    "time": 27.708948000000003,
                    "velocity": 0.3543307086614173,
                    "duration": 0.6758279999999992
                },
                {
                    "name": "G4",
                    "midi": 67,
                    "time": 28.384776000000002,
                    "velocity": 0.3543307086614173,
                    "duration": 0.3379140000000014
                },
                {
                    "name": "F#4",
                    "midi": 66,
                    "time": 28.722690000000004,
                    "velocity": 0.3228346456692913,
                    "duration": 0.32665019999999956
                },
                {
                    "name": "F#4",
                    "midi": 66,
                    "time": 29.060604,
                    "velocity": 0.3543307086614173,
                    "duration": 0.3379140000000014
                },
                {
                    "name": "D4",
                    "midi": 62,
                    "time": 29.398518000000003,
                    "velocity": 0.3228346456692913,
                    "duration": 0.3379140000000014
                },
                {
                    "name": "B4",
                    "midi": 71,
                    "time": 29.736432000000004,
                    "velocity": 0.3700787401574803,
                    "duration": 0.5068710000000003
                },
                {
                    "name": "D5",
                    "midi": 74,
                    "time": 30.243303000000004,
                    "velocity": 0.33070866141732286,
                    "duration": 0.1689569999999989
                },
                {
                    "name": "C5",
                    "midi": 72,
                    "time": 30.412260000000003,
                    "velocity": 0.3937007874015748,
                    "duration": 0.5068710000000003
                },
                {
                    "name": "B4",
                    "midi": 71,
                    "time": 30.919131000000004,
                    "velocity": 0.3700787401574803,
                    "duration": 0.1689569999999989
                },
                {
                    "name": "A4",
                    "midi": 69,
                    "time": 31.088088000000003,
                    "velocity": 0.3937007874015748,
                    "duration": 0.6758279999999992
                },
                {
                    "name": "B4",
                    "midi": 71,
                    "time": 31.763916000000002,
                    "velocity": 0.36220472440944884,
                    "duration": 0.6758280000000028
                },
                {
                    "name": "C5",
                    "midi": 72,
                    "time": 32.439744000000005,
                    "velocity": 0.3937007874015748,
                    "duration": 0.6758280000000028
                },
                {
                    "name": "D5",
                    "midi": 74,
                    "time": 33.11557200000001,
                    "velocity": 0.36220472440944884,
                    "duration": 0.6758280000000028
                },
                {
                    "name": "C5",
                    "midi": 72,
                    "time": 33.79140000000001,
                    "velocity": 0.3700787401574803,
                    "duration": 0.3379139999999978
                },
                {
                    "name": "B4",
                    "midi": 71,
                    "time": 34.12931400000001,
                    "velocity": 0.3858267716535433,
                    "duration": 0.3379139999999978
                },
                {
                    "name": "A4",
                    "midi": 69,
                    "time": 34.467228000000006,
                    "velocity": 0.4015748031496063,
                    "duration": 0.3379139999999978
                },
                {
                    "name": "G4",
                    "midi": 67,
                    "time": 34.805142000000004,
                    "velocity": 0.41732283464566927,
                    "duration": 0.3379139999999978
                },
                {
                    "name": "G4",
                    "midi": 67,
                    "time": 35.143056,
                    "velocity": 0.5118110236220472,
                    "duration": 0.3379139999999978
                },
                {
                    "name": "C5",
                    "midi": 72,
                    "time": 35.143056,
                    "velocity": 0.5118110236220472,
                    "duration": 0.3379139999999978
                },
                {
                    "name": "B4",
                    "midi": 71,
                    "time": 35.818884,
                    "velocity": 0.48031496062992124,
                    "duration": 0.3379139999999978
                },
                {
                    "name": "G4",
                    "midi": 67,
                    "time": 35.818884,
                    "velocity": 0.48031496062992124,
                    "duration": 0.3379139999999978
                },
                {
                    "name": "E5",
                    "midi": 76,
                    "time": 36.49471199999999,
                    "velocity": 0.5275590551181102,
                    "duration": 0.3379139999999978
                },
                {
                    "name": "G4",
                    "midi": 67,
                    "time": 36.49471199999999,
                    "velocity": 0.5275590551181102,
                    "duration": 0.3379139999999978
                },
                {
                    "name": "G4",
                    "midi": 67,
                    "time": 37.50845399999999,
                    "velocity": 0.3700787401574803,
                    "duration": 0.3379139999999978
                },
                {
                    "name": "D5",
                    "midi": 74,
                    "time": 37.50845399999999,
                    "velocity": 0.3700787401574803,
                    "duration": 0.3379139999999978
                },
                {
                    "name": "C5",
                    "midi": 72,
                    "time": 37.84636799999999,
                    "velocity": 0.3937007874015748,
                    "duration": 0.3379139999999978
                },
                {
                    "name": "A4",
                    "midi": 69,
                    "time": 38.18428199999999,
                    "velocity": 0.33070866141732286,
                    "duration": 0.3379139999999978
                },
                {
                    "name": "B4",
                    "midi": 71,
                    "time": 38.52219599999999,
                    "velocity": 0.3937007874015748,
                    "duration": 0.3379139999999978
                },
                {
                    "name": "G4",
                    "midi": 67,
                    "time": 38.860109999999985,
                    "velocity": 0.33070866141732286,
                    "duration": 0.3379139999999978
                },
                {
                    "name": "B4",
                    "midi": 71,
                    "time": 39.19802399999998,
                    "velocity": 0.3937007874015748,
                    "duration": 0.6758280000000028
                },
                {
                    "name": "G4",
                    "midi": 67,
                    "time": 39.19802399999998,
                    "velocity": 0.3937007874015748,
                    "duration": 0.6758280000000028
                },
                {
                    "name": "F#4",
                    "midi": 66,
                    "time": 39.873851999999985,
                    "velocity": 0.3464566929133858,
                    "duration": 0.6758280000000028
                },
                {
                    "name": "A4",
                    "midi": 69,
                    "time": 39.873851999999985,
                    "velocity": 0.3464566929133858,
                    "duration": 0.6758280000000028
                },
                {
                    "name": "B4",
                    "midi": 71,
                    "time": 40.54967999999999,
                    "velocity": 0.3937007874015748,
                    "duration": 0.5068709999999967
                },
                {
                    "name": "D5",
                    "midi": 74,
                    "time": 41.056550999999985,
                    "velocity": 0.33070866141732286,
                    "duration": 0.1689569999999989
                },
                {
                    "name": "C5",
                    "midi": 72,
                    "time": 41.225507999999984,
                    "velocity": 0.3779527559055118,
                    "duration": 0.5068709999999967
                },
                {
                    "name": "B4",
                    "midi": 71,
                    "time": 41.73237899999998,
                    "velocity": 0.3700787401574803,
                    "duration": 0.1689569999999989
                },
                {
                    "name": "A4",
                    "midi": 69,
                    "time": 41.90133599999998,
                    "velocity": 0.3937007874015748,
                    "duration": 0.6758280000000028
                },
                {
                    "name": "B4",
                    "midi": 71,
                    "time": 42.57716399999998,
                    "velocity": 0.36220472440944884,
                    "duration": 0.6758280000000028
                },
                {
                    "name": "C5",
                    "midi": 72,
                    "time": 43.252991999999985,
                    "velocity": 0.3937007874015748,
                    "duration": 0.6758280000000028
                },
                {
                    "name": "E5",
                    "midi": 76,
                    "time": 43.92881999999999,
                    "velocity": 0.36220472440944884,
                    "duration": 0.3379139999999978
                },
                {
                    "name": "D5",
                    "midi": 74,
                    "time": 44.266733999999985,
                    "velocity": 0.3858267716535433,
                    "duration": 0.3379139999999978
                },
                {
                    "name": "C5",
                    "midi": 72,
                    "time": 44.60464799999998,
                    "velocity": 0.3700787401574803,
                    "duration": 0.3379139999999978
                },
                {
                    "name": "B4",
                    "midi": 71,
                    "time": 44.94256199999998,
                    "velocity": 0.3858267716535433,
                    "duration": 0.3379139999999978
                },
                {
                    "name": "A4",
                    "midi": 69,
                    "time": 45.28047599999998,
                    "velocity": 0.4015748031496063,
                    "duration": 0.3379139999999978
                },
                {
                    "name": "G4",
                    "midi": 67,
                    "time": 45.61838999999998,
                    "velocity": 0.41732283464566927,
                    "duration": 0.3379139999999978
                },
                {
                    "name": "G4",
                    "midi": 67,
                    "time": 45.956303999999975,
                    "velocity": 0.5118110236220472,
                    "duration": 0.3379139999999978
                },
                {
                    "name": "C5",
                    "midi": 72,
                    "time": 45.956303999999975,
                    "velocity": 0.5118110236220472,
                    "duration": 0.3379139999999978
                },
                {
                    "name": "G4",
                    "midi": 67,
                    "time": 46.63213199999997,
                    "velocity": 0.48031496062992124,
                    "duration": 0.3379139999999978
                },
                {
                    "name": "B4",
                    "midi": 71,
                    "time": 46.63213199999997,
                    "velocity": 0.48031496062992124,
                    "duration": 0.3379139999999978
                },
                {
                    "name": "E5",
                    "midi": 76,
                    "time": 47.307959999999966,
                    "velocity": 0.5275590551181102,
                    "duration": 0.3379139999999978
                },
                {
                    "name": "G4",
                    "midi": 67,
                    "time": 47.307959999999966,
                    "velocity": 0.5275590551181102,
                    "duration": 1.0137419999999935
                },
                {
                    "name": "F#5",
                    "midi": 78,
                    "time": 47.645873999999964,
                    "velocity": 0.4881889763779528,
                    "duration": 0.3379139999999978
                },
                {
                    "name": "G5",
                    "midi": 79,
                    "time": 47.98378799999996,
                    "velocity": 0.5118110236220472,
                    "duration": 0.3379139999999978
                },
                {
                    "name": "C5",
                    "midi": 72,
                    "time": 48.32170199999996,
                    "velocity": 0.3700787401574803,
                    "duration": 0.2534355000000019
                },
                {
                    "name": "B4",
                    "midi": 71,
                    "time": 48.659615999999964,
                    "velocity": 0.3937007874015748,
                    "duration": 0.6758280000000028
                },
                {
                    "name": "A4",
                    "midi": 69,
                    "time": 49.33544399999997,
                    "velocity": 0.3700787401574803,
                    "duration": 0.07603064999999987
                },
                {
                    "name": "B4",
                    "midi": 71,
                    "time": 49.41147464999997,
                    "velocity": 0.3700787401574803,
                    "duration": 0.07321470000000119
                },
                {
                    "name": "A4",
                    "midi": 69,
                    "time": 49.48468934999997,
                    "velocity": 0.3700787401574803,
                    "duration": 0.07603064999999987
                },
                {
                    "name": "B4",
                    "midi": 71,
                    "time": 49.55790404999997,
                    "velocity": 0.3700787401574803,
                    "duration": 0.07603064999999987
                },
                {
                    "name": "A4",
                    "midi": 69,
                    "time": 49.63393469999997,
                    "velocity": 0.3543307086614173,
                    "duration": 0.07321470000000119
                },
                {
                    "name": "B4",
                    "midi": 71,
                    "time": 49.70714939999997,
                    "velocity": 0.3543307086614173,
                    "duration": 0.07603064999999987
                },
                {
                    "name": "A4",
                    "midi": 69,
                    "time": 49.78318004999997,
                    "velocity": 0.3543307086614173,
                    "duration": 0.07321470000000119
                },
                {
                    "name": "G4",
                    "midi": 67,
                    "time": 49.85639474999997,
                    "velocity": 0.3543307086614173,
                    "duration": 0.07603064999999987
                },
                {
                    "name": "A4",
                    "midi": 69,
                    "time": 49.92960944999997,
                    "velocity": 0.4094488188976378,
                    "duration": 0.08166254999999722
                },
                {
                    "name": "G4",
                    "midi": 67,
                    "time": 50.01127199999997,
                    "velocity": 0.3543307086614173,
                    "duration": 1.3516559999999984
                },
                {
                    "name": "B4",
                    "midi": 71,
                    "time": 51.36292799999997,
                    "velocity": 0.3543307086614173,
                    "duration": 0.6758280000000028
                },
                {
                    "name": "A4",
                    "midi": 69,
                    "time": 52.03875599999997,
                    "velocity": 0.3543307086614173,
                    "duration": 0.6758280000000028
                },
                {
                    "name": "G4",
                    "midi": 67,
                    "time": 52.714583999999974,
                    "velocity": 0.3543307086614173,
                    "duration": 0.3379139999999978
                },
                {
                    "name": "F#4",
                    "midi": 66,
                    "time": 53.05249799999997,
                    "velocity": 0.3228346456692913,
                    "duration": 0.3266502000000031
                },
                {
                    "name": "F#4",
                    "midi": 66,
                    "time": 53.390411999999976,
                    "velocity": 0.3543307086614173,
                    "duration": 0.3379139999999978
                },
                {
                    "name": "D4",
                    "midi": 62,
                    "time": 53.728325999999974,
                    "velocity": 0.3228346456692913,
                    "duration": 0.3379139999999978
                },
                {
                    "name": "B4",
                    "midi": 71,
                    "time": 54.06623999999997,
                    "velocity": 0.4015748031496063,
                    "duration": 1.3516559999999984
                },
                {
                    "name": "G4",
                    "midi": 67,
                    "time": 55.41789599999997,
                    "velocity": 0.3543307086614173,
                    "duration": 0.6758280000000028
                },
                {
                    "name": "G4",
                    "midi": 67,
                    "time": 56.09372399999997,
                    "velocity": 0.3464566929133858,
                    "duration": 0.07603064999999987
                },
                {
                    "name": "A4",
                    "midi": 69,
                    "time": 56.16975464999997,
                    "velocity": 0.31496062992125984,
                    "duration": 0.07321470000000119
                },
                {
                    "name": "G4",
                    "midi": 67,
                    "time": 56.242969349999974,
                    "velocity": 0.3464566929133858,
                    "duration": 0.07603064999999987
                },
                {
                    "name": "A4",
                    "midi": 69,
                    "time": 56.316184049999976,
                    "velocity": 0.30708661417322836,
                    "duration": 0.07603064999999987
                },
                {
                    "name": "G4",
                    "midi": 67,
                    "time": 56.392214699999975,
                    "velocity": 0.3543307086614173,
                    "duration": 0.07321470000000119
                },
                {
                    "name": "A4",
                    "midi": 69,
                    "time": 56.46542939999998,
                    "velocity": 0.3228346456692913,
                    "duration": 0.07603064999999987
                },
                {
                    "name": "G4",
                    "midi": 67,
                    "time": 56.541460049999976,
                    "velocity": 0.3543307086614173,
                    "duration": 0.07321470000000119
                },
                {
                    "name": "F#4",
                    "midi": 66,
                    "time": 56.61467474999998,
                    "velocity": 0.3858267716535433,
                    "duration": 0.07603064999999987
                },
                {
                    "name": "G4",
                    "midi": 67,
                    "time": 56.68788944999998,
                    "velocity": 0.3464566929133858,
                    "duration": 0.08166254999999722
                },
                {
                    "name": "B4",
                    "midi": 71,
                    "time": 56.769551999999976,
                    "velocity": 0.3858267716535433,
                    "duration": 0.3379139999999978
                },
                {
                    "name": "A4",
                    "midi": 69,
                    "time": 57.107465999999974,
                    "velocity": 0.3543307086614173,
                    "duration": 0.3266502000000031
                },
                {
                    "name": "A4",
                    "midi": 69,
                    "time": 57.44537999999998,
                    "velocity": 0.3543307086614173,
                    "duration": 0.6758280000000028
                },
                {
                    "name": "G4",
                    "midi": 67,
                    "time": 58.12120799999998,
                    "velocity": 0.3543307086614173,
                    "duration": 0.3379139999999978
                },
                {
                    "name": "F#4",
                    "midi": 66,
                    "time": 58.45912199999998,
                    "velocity": 0.3228346456692913,
                    "duration": 0.3294661500000018
                },
                {
                    "name": "F#4",
                    "midi": 66,
                    "time": 58.797035999999984,
                    "velocity": 0.3543307086614173,
                    "duration": 0.3379139999999978
                },
                {
                    "name": "D4",
                    "midi": 62,
                    "time": 59.13494999999998,
                    "velocity": 0.3228346456692913,
                    "duration": 0.3379139999999978
                },
                {
                    "name": "G4",
                    "midi": 67,
                    "time": 59.47286399999998,
                    "velocity": 0.3543307086614173,
                    "duration": 1.3516559999999984
                },
                {
                    "name": "D#4",
                    "midi": 63,
                    "time": 60.82451999999998,
                    "velocity": 0.3700787401574803,
                    "duration": 0.6420365999999973
                },
                {
                    "name": "D#4",
                    "midi": 63,
                    "time": 61.500347999999974,
                    "velocity": 0.3700787401574803,
                    "duration": 0.6420365999999973
                },
                {
                    "name": "E4",
                    "midi": 64,
                    "time": 62.17617599999997,
                    "velocity": 0.3858267716535433,
                    "duration": 0.3379139999999978
                },
                {
                    "name": "F#4",
                    "midi": 66,
                    "time": 62.51408999999997,
                    "velocity": 0.3464566929133858,
                    "duration": 0.3379139999999978
                },
                {
                    "name": "G4",
                    "midi": 67,
                    "time": 62.852003999999965,
                    "velocity": 0.3858267716535433,
                    "duration": 0.3379139999999978
                },
                {
                    "name": "E4",
                    "midi": 64,
                    "time": 63.18991799999996,
                    "velocity": 0.33858267716535434,
                    "duration": 0.3379139999999978
                },
                {
                    "name": "D4",
                    "midi": 62,
                    "time": 63.52783199999996,
                    "velocity": 0.3858267716535433,
                    "duration": 0.3379139999999978
                },
                {
                    "name": "C#4",
                    "midi": 61,
                    "time": 63.86574599999996,
                    "velocity": 0.3543307086614173,
                    "duration": 0.3294661500000018
                },
                {
                    "name": "C#4",
                    "midi": 61,
                    "time": 64.20365999999996,
                    "velocity": 0.3937007874015748,
                    "duration": 0.3379139999999978
                },
                {
                    "name": "A3",
                    "midi": 57,
                    "time": 64.54157399999995,
                    "velocity": 0.36220472440944884,
                    "duration": 0.3379139999999978
                },
                {
                    "name": "A4",
                    "midi": 69,
                    "time": 64.87948799999995,
                    "velocity": 0.48031496062992124,
                    "duration": 1.3516560000000055
                },
                {
                    "name": "D5",
                    "midi": 74,
                    "time": 66.23114399999996,
                    "velocity": 0.5433070866141733,
                    "duration": 0.6420365999999973
                },
                {
                    "name": "G#4",
                    "midi": 68,
                    "time": 66.23114399999996,
                    "velocity": 0.4566929133858268,
                    "duration": 0.6420365999999973
                },
                {
                    "name": "D4",
                    "midi": 62,
                    "time": 66.23114399999996,
                    "velocity": 0.4566929133858268,
                    "duration": 0.6420365999999973
                },
                {
                    "name": "G#4",
                    "midi": 68,
                    "time": 66.90697199999995,
                    "velocity": 0.4409448818897638,
                    "duration": 0.6420365999999973
                },
                {
                    "name": "D5",
                    "midi": 74,
                    "time": 66.90697199999995,
                    "velocity": 0.5196850393700787,
                    "duration": 0.6420365999999973
                },
                {
                    "name": "D4",
                    "midi": 62,
                    "time": 66.90697199999995,
                    "velocity": 0.4409448818897638,
                    "duration": 0.6420365999999973
                },
                {
                    "name": "G#4",
                    "midi": 68,
                    "time": 67.58279999999995,
                    "velocity": 0.4645669291338583,
                    "duration": 1.2164903999999979
                },
                {
                    "name": "D5",
                    "midi": 74,
                    "time": 67.58279999999995,
                    "velocity": 0.5511811023622047,
                    "duration": 1.2164903999999979
                },
                {
                    "name": "D4",
                    "midi": 62,
                    "time": 67.58279999999995,
                    "velocity": 0.4645669291338583,
                    "duration": 1.2164903999999979
                },
                {
                    "name": "C#5",
                    "midi": 73,
                    "time": 68.93445599999994,
                    "velocity": 0.31496062992125984,
                    "duration": 0.5406624000000022
                },
                {
                    "name": "A5",
                    "midi": 81,
                    "time": 68.93445599999994,
                    "velocity": 0.3779527559055118,
                    "duration": 0.5406624000000022
                },
                {
                    "name": "A5",
                    "midi": 81,
                    "time": 69.61028399999994,
                    "velocity": 0.3543307086614173,
                    "duration": 0.5406624000000022
                },
                {
                    "name": "C#5",
                    "midi": 73,
                    "time": 69.61028399999994,
                    "velocity": 0.2992125984251969,
                    "duration": 0.5406624000000022
                },
                {
                    "name": "A5",
                    "midi": 81,
                    "time": 70.28611199999993,
                    "velocity": 0.3779527559055118,
                    "duration": 1.3516560000000055
                },
                {
                    "name": "C#5",
                    "midi": 73,
                    "time": 70.28611199999993,
                    "velocity": 0.31496062992125984,
                    "duration": 1.3516560000000055
                },
                {
                    "name": "F#5",
                    "midi": 78,
                    "time": 72.31359599999993,
                    "velocity": 0.3779527559055118,
                    "duration": 0.08447850000000301
                },
                {
                    "name": "G5",
                    "midi": 79,
                    "time": 72.39807449999994,
                    "velocity": 0.3464566929133858,
                    "duration": 0.08447850000000301
                },
                {
                    "name": "F#5",
                    "midi": 78,
                    "time": 72.48255299999994,
                    "velocity": 0.3779527559055118,
                    "duration": 0.08447850000000301
                },
                {
                    "name": "E5",
                    "midi": 76,
                    "time": 72.56703149999994,
                    "velocity": 0.3464566929133858,
                    "duration": 0.08447850000000301
                },
                {
                    "name": "F#5",
                    "midi": 78,
                    "time": 72.65150999999994,
                    "velocity": 0.3937007874015748,
                    "duration": 0.16895700000000602
                },
                {
                    "name": "G5",
                    "midi": 79,
                    "time": 72.82046699999995,
                    "velocity": 0.3543307086614173,
                    "duration": 0.16895700000000602
                },
                {
                    "name": "A5",
                    "midi": 81,
                    "time": 72.98942399999996,
                    "velocity": 0.4251968503937008,
                    "duration": 0.6758279999999957
                },
                {
                    "name": "A5",
                    "midi": 81,
                    "time": 73.66525199999995,
                    "velocity": 0.3779527559055118,
                    "duration": 1.0137419999999935
                },
                {
                    "name": "A5",
                    "midi": 81,
                    "time": 74.67899399999995,
                    "velocity": 0.3779527559055118,
                    "duration": 0.3379139999999978
                },
                {
                    "name": "A5",
                    "midi": 81,
                    "time": 75.01690799999994,
                    "velocity": 0.3937007874015748,
                    "duration": 0.08447850000000301
                },
                {
                    "name": "B5",
                    "midi": 83,
                    "time": 75.10138649999995,
                    "velocity": 0.3464566929133858,
                    "duration": 0.08447850000000301
                },
                {
                    "name": "A5",
                    "midi": 81,
                    "time": 75.18586499999995,
                    "velocity": 0.36220472440944884,
                    "duration": 0.08447850000000301
                },
                {
                    "name": "G#5",
                    "midi": 80,
                    "time": 75.27034349999995,
                    "velocity": 0.36220472440944884,
                    "duration": 0.08447850000000301
                },
                {
                    "name": "A5",
                    "midi": 81,
                    "time": 75.35482199999996,
                    "velocity": 0.41732283464566927,
                    "duration": 0.16895700000000602
                },
                {
                    "name": "B5",
                    "midi": 83,
                    "time": 75.52377899999996,
                    "velocity": 0.33858267716535434,
                    "duration": 0.16895700000000602
                },
                {
                    "name": "A5",
                    "midi": 81,
                    "time": 75.69273599999997,
                    "velocity": 0.41732283464566927,
                    "duration": 0.3379139999999978
                },
                {
                    "name": "G5",
                    "midi": 79,
                    "time": 76.03064999999997,
                    "velocity": 0.3779527559055118,
                    "duration": 0.3379139999999978
                },
                {
                    "name": "G5",
                    "midi": 79,
                    "time": 76.36856399999996,
                    "velocity": 0.3779527559055118,
                    "duration": 1.0137419999999935
                },
                {
                    "name": "G5",
                    "midi": 79,
                    "time": 77.38230599999996,
                    "velocity": 0.3543307086614173,
                    "duration": 0.16895700000000602
                },
                {
                    "name": "F#5",
                    "midi": 78,
                    "time": 77.72021999999997,
                    "velocity": 0.3858267716535433,
                    "duration": 0.16895700000000602
                },
                {
                    "name": "E5",
                    "midi": 76,
                    "time": 78.05813399999998,
                    "velocity": 0.3543307086614173,
                    "duration": 0.16895700000000602
                },
                {
                    "name": "E5",
                    "midi": 76,
                    "time": 78.396048,
                    "velocity": 0.4015748031496063,
                    "duration": 0.3379139999999978
                },
                {
                    "name": "A5",
                    "midi": 81,
                    "time": 78.73396199999999,
                    "velocity": 0.36220472440944884,
                    "duration": 0.3379139999999978
                },
                {
                    "name": "A5",
                    "midi": 81,
                    "time": 79.07187599999999,
                    "velocity": 0.36220472440944884,
                    "duration": 1.0137419999999935
                },
                {
                    "name": "B5",
                    "midi": 83,
                    "time": 80.08561799999998,
                    "velocity": 0.3779527559055118,
                    "duration": 0.16895700000000602
                },
                {
                    "name": "A5",
                    "midi": 81,
                    "time": 80.25457499999999,
                    "velocity": 0.3464566929133858,
                    "duration": 0.16895700000000602
                },
                {
                    "name": "A5",
                    "midi": 81,
                    "time": 80.423532,
                    "velocity": 0.3779527559055118,
                    "duration": 0.16895700000000602
                },
                {
                    "name": "G5",
                    "midi": 79,
                    "time": 80.592489,
                    "velocity": 0.3464566929133858,
                    "duration": 0.16895700000000602
                },
                {
                    "name": "F#5",
                    "midi": 78,
                    "time": 80.761446,
                    "velocity": 0.3464566929133858,
                    "duration": 0.16895700000000602
                },
                {
                    "name": "G5",
                    "midi": 79,
                    "time": 80.93040300000001,
                    "velocity": 0.3464566929133858,
                    "duration": 0.16895700000000602
                },
                {
                    "name": "G5",
                    "midi": 79,
                    "time": 81.09936000000002,
                    "velocity": 0.3858267716535433,
                    "duration": 0.3379139999999978
                },
                {
                    "name": "F#5",
                    "midi": 78,
                    "time": 81.43727400000002,
                    "velocity": 0.3543307086614173,
                    "duration": 0.3379139999999978
                },
                {
                    "name": "F#5",
                    "midi": 78,
                    "time": 81.77518800000001,
                    "velocity": 0.3779527559055118,
                    "duration": 0.8447850000000017
                },
                {
                    "name": "F#5",
                    "midi": 78,
                    "time": 82.61997300000002,
                    "velocity": 0.3464566929133858,
                    "duration": 0.08447850000000301
                },
                {
                    "name": "G5",
                    "midi": 79,
                    "time": 82.70445150000002,
                    "velocity": 0.3464566929133858,
                    "duration": 0.08447850000000301
                },
                {
                    "name": "A5",
                    "midi": 81,
                    "time": 82.78893000000002,
                    "velocity": 0.3779527559055118,
                    "duration": 0.16895700000000602
                },
                {
                    "name": "G5",
                    "midi": 79,
                    "time": 83.12684400000003,
                    "velocity": 0.36220472440944884,
                    "duration": 0.16895700000000602
                },
                {
                    "name": "F#5",
                    "midi": 78,
                    "time": 83.46475800000005,
                    "velocity": 0.36220472440944884,
                    "duration": 0.16895700000000602
                },
                {
                    "name": "F#5",
                    "midi": 78,
                    "time": 83.80267200000006,
                    "velocity": 0.4015748031496063,
                    "duration": 0.3379139999999978
                },
                {
                    "name": "E5",
                    "midi": 76,
                    "time": 84.14058600000006,
                    "velocity": 0.36220472440944884,
                    "duration": 0.3379139999999978
                },
                {
                    "name": "E5",
                    "midi": 76,
                    "time": 84.47850000000005,
                    "velocity": 0.36220472440944884,
                    "duration": 0.16895700000000602
                },
                {
                    "name": "E5",
                    "midi": 76,
                    "time": 84.81641400000007,
                    "velocity": 0.3779527559055118,
                    "duration": 0.16895700000000602
                },
                {
                    "name": "E5",
                    "midi": 76,
                    "time": 85.15432800000008,
                    "velocity": 0.3779527559055118,
                    "duration": 0.6758279999999957
                },
                {
                    "name": "E5",
                    "midi": 76,
                    "time": 85.83015600000007,
                    "velocity": 0.3779527559055118,
                    "duration": 0.5068710000000038
                },
                {
                    "name": "G#5",
                    "midi": 80,
                    "time": 86.16807000000007,
                    "velocity": 0.3779527559055118,
                    "duration": 0.11263800000000401
                },
                {
                    "name": "A5",
                    "midi": 81,
                    "time": 86.28070800000008,
                    "velocity": 0.3779527559055118,
                    "duration": 0.11263800000000401
                },
                {
                    "name": "B5",
                    "midi": 83,
                    "time": 86.39334600000008,
                    "velocity": 0.3779527559055118,
                    "duration": 0.11263800000000401
                },
                {
                    "name": "A5",
                    "midi": 81,
                    "time": 86.50598400000008,
                    "velocity": 0.41732283464566927,
                    "duration": 1.6895700000000033
                },
                {
                    "name": "B5",
                    "midi": 83,
                    "time": 88.19555400000009,
                    "velocity": 0.4094488188976378,
                    "duration": 0.16895700000000602
                },
                {
                    "name": "A5",
                    "midi": 81,
                    "time": 88.36451100000009,
                    "velocity": 0.3779527559055118,
                    "duration": 0.16895700000000602
                },
                {
                    "name": "G5",
                    "midi": 79,
                    "time": 88.5334680000001,
                    "velocity": 0.4015748031496063,
                    "duration": 0.3379139999999978
                },
                {
                    "name": "F#5",
                    "midi": 78,
                    "time": 88.8713820000001,
                    "velocity": 0.3779527559055118,
                    "duration": 0.3294661500000018
                },
                {
                    "name": "F#5",
                    "midi": 78,
                    "time": 89.2092960000001,
                    "velocity": 0.41732283464566927,
                    "duration": 0.3379139999999978
                },
                {
                    "name": "E5",
                    "midi": 76,
                    "time": 89.54721000000009,
                    "velocity": 0.3543307086614173,
                    "duration": 0.3379139999999978
                },
                {
                    "name": "D#5",
                    "midi": 75,
                    "time": 89.88512400000009,
                    "velocity": 0.3937007874015748,
                    "duration": 0.3379139999999978
                },
                {
                    "name": "E5",
                    "midi": 76,
                    "time": 90.22303800000009,
                    "velocity": 0.3543307086614173,
                    "duration": 0.3379139999999978
                },
                {
                    "name": "F#5",
                    "midi": 78,
                    "time": 90.56095200000009,
                    "velocity": 0.3779527559055118,
                    "duration": 0.3379139999999978
                },
                {
                    "name": "G5",
                    "midi": 79,
                    "time": 90.89886600000008,
                    "velocity": 0.3464566929133858,
                    "duration": 0.3379139999999978
                },
                {
                    "name": "B4",
                    "midi": 71,
                    "time": 91.23678000000008,
                    "velocity": 0.33070866141732286,
                    "duration": 0.3379139999999978
                },
                {
                    "name": "E5",
                    "midi": 76,
                    "time": 91.57469400000008,
                    "velocity": 0.33070866141732286,
                    "duration": 0.3379139999999978
                },
                {
                    "name": "D5",
                    "midi": 74,
                    "time": 91.91260800000008,
                    "velocity": 0.3779527559055118,
                    "duration": 0.3379139999999978
                },
                {
                    "name": "C#5",
                    "midi": 73,
                    "time": 92.25052200000007,
                    "velocity": 0.3543307086614173,
                    "duration": 0.3379139999999978
                },
                {
                    "name": "B4",
                    "midi": 71,
                    "time": 92.58843600000007,
                    "velocity": 0.3228346456692913,
                    "duration": 0.3379139999999978
                },
                {
                    "name": "A4",
                    "midi": 69,
                    "time": 92.92635000000007,
                    "velocity": 0.3228346456692913,
                    "duration": 0.3379139999999978
                },
                {
                    "name": "B4",
                    "midi": 71,
                    "time": 93.26426400000007,
                    "velocity": 0.33070866141732286,
                    "duration": 0.3379139999999978
                },
                {
                    "name": "C#5",
                    "midi": 73,
                    "time": 93.60217800000007,
                    "velocity": 0.3464566929133858,
                    "duration": 0.3379139999999978
                },
                {
                    "name": "D5",
                    "midi": 74,
                    "time": 93.94009200000006,
                    "velocity": 0.3700787401574803,
                    "duration": 0.3379139999999978
                },
                {
                    "name": "E5",
                    "midi": 76,
                    "time": 94.27800600000006,
                    "velocity": 0.3858267716535433,
                    "duration": 0.3379139999999978
                },
                {
                    "name": "F#5",
                    "midi": 78,
                    "time": 94.61592000000006,
                    "velocity": 0.3937007874015748,
                    "duration": 0.5068710000000038
                },
                {
                    "name": "A5",
                    "midi": 81,
                    "time": 95.12279100000006,
                    "velocity": 0.33070866141732286,
                    "duration": 0.16895700000000602
                },
                {
                    "name": "G5",
                    "midi": 79,
                    "time": 95.29174800000007,
                    "velocity": 0.3937007874015748,
                    "duration": 0.5068710000000038
                },
                {
                    "name": "F#5",
                    "midi": 78,
                    "time": 95.79861900000007,
                    "velocity": 0.3700787401574803,
                    "duration": 0.16895700000000602
                },
                {
                    "name": "E5",
                    "midi": 76,
                    "time": 95.96757600000008,
                    "velocity": 0.3937007874015748,
                    "duration": 0.6758279999999957
                },
                {
                    "name": "F#5",
                    "midi": 78,
                    "time": 96.64340400000007,
                    "velocity": 0.36220472440944884,
                    "duration": 0.6758279999999957
                },
                {
                    "name": "G5",
                    "midi": 79,
                    "time": 97.31923200000007,
                    "velocity": 0.3937007874015748,
                    "duration": 0.6758279999999957
                },
                {
                    "name": "A5",
                    "midi": 81,
                    "time": 97.99506000000007,
                    "velocity": 0.36220472440944884,
                    "duration": 0.6758279999999957
                },
                {
                    "name": "G5",
                    "midi": 79,
                    "time": 98.67088800000006,
                    "velocity": 0.3700787401574803,
                    "duration": 0.6758279999999957
                },
                {
                    "name": "F#5",
                    "midi": 78,
                    "time": 99.34671600000006,
                    "velocity": 0.4015748031496063,
                    "duration": 0.6758279999999957
                },
                {
                    "name": "A5",
                    "midi": 81,
                    "time": 100.02254400000005,
                    "velocity": 0.3543307086614173,
                    "duration": 0.08447850000000301
                },
                {
                    "name": "B5",
                    "midi": 83,
                    "time": 100.10702250000006,
                    "velocity": 0.31496062992125984,
                    "duration": 0.08447850000000301
                },
                {
                    "name": "A5",
                    "midi": 81,
                    "time": 100.19150100000006,
                    "velocity": 0.3543307086614173,
                    "duration": 0.08447850000000301
                },
                {
                    "name": "B5",
                    "midi": 83,
                    "time": 100.27597950000006,
                    "velocity": 0.3228346456692913,
                    "duration": 0.08447850000000301
                },
                {
                    "name": "A5",
                    "midi": 81,
                    "time": 100.36045800000007,
                    "velocity": 0.3543307086614173,
                    "duration": 0.08447850000000301
                },
                {
                    "name": "B5",
                    "midi": 83,
                    "time": 100.44493650000007,
                    "velocity": 0.31496062992125984,
                    "duration": 0.08447850000000301
                },
                {
                    "name": "A5",
                    "midi": 81,
                    "time": 100.52941500000007,
                    "velocity": 0.3543307086614173,
                    "duration": 0.08447850000000301
                },
                {
                    "name": "B5",
                    "midi": 83,
                    "time": 100.61389350000007,
                    "velocity": 0.30708661417322836,
                    "duration": 0.08447850000000301
                },
                {
                    "name": "A5",
                    "midi": 81,
                    "time": 100.69837200000008,
                    "velocity": 0.3543307086614173,
                    "duration": 0.08447850000000301
                },
                {
                    "name": "B5",
                    "midi": 83,
                    "time": 100.78285050000008,
                    "velocity": 0.31496062992125984,
                    "duration": 0.08447850000000301
                },
                {
                    "name": "A5",
                    "midi": 81,
                    "time": 100.86732900000008,
                    "velocity": 0.3543307086614173,
                    "duration": 0.08447850000000301
                },
                {
                    "name": "B5",
                    "midi": 83,
                    "time": 100.95180750000009,
                    "velocity": 0.31496062992125984,
                    "duration": 0.08447850000000301
                },
                {
                    "name": "A5",
                    "midi": 81,
                    "time": 101.03628600000009,
                    "velocity": 0.3543307086614173,
                    "duration": 0.08447850000000301
                },
                {
                    "name": "B5",
                    "midi": 83,
                    "time": 101.12076450000009,
                    "velocity": 0.31496062992125984,
                    "duration": 0.08447850000000301
                },
                {
                    "name": "A5",
                    "midi": 81,
                    "time": 101.2052430000001,
                    "velocity": 0.3543307086614173,
                    "duration": 0.08447850000000301
                },
                {
                    "name": "B5",
                    "midi": 83,
                    "time": 101.2897215000001,
                    "velocity": 0.3228346456692913,
                    "duration": 0.08447850000000301
                },
                {
                    "name": "A5",
                    "midi": 81,
                    "time": 101.3742000000001,
                    "velocity": 0.3543307086614173,
                    "duration": 0.08447850000000301
                },
                {
                    "name": "B5",
                    "midi": 83,
                    "time": 101.4586785000001,
                    "velocity": 0.31496062992125984,
                    "duration": 0.08447850000000301
                },
                {
                    "name": "A5",
                    "midi": 81,
                    "time": 101.54315700000011,
                    "velocity": 0.3543307086614173,
                    "duration": 0.08447850000000301
                },
                {
                    "name": "B5",
                    "midi": 83,
                    "time": 101.62763550000011,
                    "velocity": 0.31496062992125984,
                    "duration": 0.08447850000000301
                },
                {
                    "name": "A5",
                    "midi": 81,
                    "time": 101.71211400000011,
                    "velocity": 0.3543307086614173,
                    "duration": 0.08447850000000301
                },
                {
                    "name": "B5",
                    "midi": 83,
                    "time": 101.79659250000012,
                    "velocity": 0.3228346456692913,
                    "duration": 0.08447850000000301
                },
                {
                    "name": "A5",
                    "midi": 81,
                    "time": 101.88107100000012,
                    "velocity": 0.3543307086614173,
                    "duration": 0.08447850000000301
                },
                {
                    "name": "B5",
                    "midi": 83,
                    "time": 101.96554950000012,
                    "velocity": 0.31496062992125984,
                    "duration": 0.08447850000000301
                },
                {
                    "name": "A5",
                    "midi": 81,
                    "time": 102.05002800000013,
                    "velocity": 0.3543307086614173,
                    "duration": 0.08447850000000301
                },
                {
                    "name": "B5",
                    "midi": 83,
                    "time": 102.13450650000013,
                    "velocity": 0.31496062992125984,
                    "duration": 0.08447850000000301
                },
                {
                    "name": "A5",
                    "midi": 81,
                    "time": 102.21898500000013,
                    "velocity": 0.3543307086614173,
                    "duration": 0.08447850000000301
                },
                {
                    "name": "B5",
                    "midi": 83,
                    "time": 102.30346350000013,
                    "velocity": 0.3228346456692913,
                    "duration": 0.08447850000000301
                },
                {
                    "name": "A5",
                    "midi": 81,
                    "time": 102.38794200000014,
                    "velocity": 0.3543307086614173,
                    "duration": 0.08447850000000301
                },
                {
                    "name": "B5",
                    "midi": 83,
                    "time": 102.47242050000014,
                    "velocity": 0.31496062992125984,
                    "duration": 0.08447850000000301
                },
                {
                    "name": "A5",
                    "midi": 81,
                    "time": 102.55689900000014,
                    "velocity": 0.3543307086614173,
                    "duration": 0.08447850000000301
                },
                {
                    "name": "B5",
                    "midi": 83,
                    "time": 102.64137750000015,
                    "velocity": 0.3228346456692913,
                    "duration": 0.08447850000000301
                },
                {
                    "name": "A5",
                    "midi": 81,
                    "time": 102.72585600000015,
                    "velocity": 0.3543307086614173,
                    "duration": 0.08447850000000301
                },
                {
                    "name": "B5",
                    "midi": 83,
                    "time": 102.81033450000015,
                    "velocity": 0.33070866141732286,
                    "duration": 0.08447850000000301
                },
                {
                    "name": "A5",
                    "midi": 81,
                    "time": 102.89481300000016,
                    "velocity": 0.3543307086614173,
                    "duration": 0.08447850000000301
                },
                {
                    "name": "B5",
                    "midi": 83,
                    "time": 102.97929150000016,
                    "velocity": 0.3228346456692913,
                    "duration": 0.08447850000000301
                },
                {
                    "name": "A5",
                    "midi": 81,
                    "time": 103.06377000000016,
                    "velocity": 0.3464566929133858,
                    "duration": 0.08447850000000301
                },
                {
                    "name": "B5",
                    "midi": 83,
                    "time": 103.14824850000016,
                    "velocity": 0.2992125984251969,
                    "duration": 0.08447850000000301
                },
                {
                    "name": "A5",
                    "midi": 81,
                    "time": 103.23272700000017,
                    "velocity": 0.3464566929133858,
                    "duration": 0.08447850000000301
                },
                {
                    "name": "B5",
                    "midi": 83,
                    "time": 103.31720550000017,
                    "velocity": 0.30708661417322836,
                    "duration": 0.08447850000000301
                },
                {
                    "name": "A5",
                    "midi": 81,
                    "time": 103.40168400000017,
                    "velocity": 0.33858267716535434,
                    "duration": 0.08447850000000301
                },
                {
                    "name": "B5",
                    "midi": 83,
                    "time": 103.48616250000018,
                    "velocity": 0.2992125984251969,
                    "duration": 0.08447850000000301
                },
                {
                    "name": "A5",
                    "midi": 81,
                    "time": 103.57064100000018,
                    "velocity": 0.33070866141732286,
                    "duration": 0.08447850000000301
                },
                {
                    "name": "B5",
                    "midi": 83,
                    "time": 103.65511950000018,
                    "velocity": 0.2992125984251969,
                    "duration": 0.08447850000000301
                },
                {
                    "name": "A5",
                    "midi": 81,
                    "time": 103.73959800000019,
                    "velocity": 0.33070866141732286,
                    "duration": 0.08447850000000301
                },
                {
                    "name": "B5",
                    "midi": 83,
                    "time": 103.82407650000019,
                    "velocity": 0.30708661417322836,
                    "duration": 0.08447850000000301
                },
                {
                    "name": "A5",
                    "midi": 81,
                    "time": 103.90855500000019,
                    "velocity": 0.33858267716535434,
                    "duration": 0.08447850000000301
                },
                {
                    "name": "B5",
                    "midi": 83,
                    "time": 103.9930335000002,
                    "velocity": 0.30708661417322836,
                    "duration": 0.08447850000000301
                },
                {
                    "name": "A5",
                    "midi": 81,
                    "time": 104.0775120000002,
                    "velocity": 0.33858267716535434,
                    "duration": 0.08447850000000301
                },
                {
                    "name": "B5",
                    "midi": 83,
                    "time": 104.1619905000002,
                    "velocity": 0.2992125984251969,
                    "duration": 0.08447850000000301
                },
                {
                    "name": "A5",
                    "midi": 81,
                    "time": 104.2464690000002,
                    "velocity": 0.33858267716535434,
                    "duration": 0.08447850000000301
                },
                {
                    "name": "B5",
                    "midi": 83,
                    "time": 104.3309475000002,
                    "velocity": 0.2992125984251969,
                    "duration": 0.08447850000000301
                },
                {
                    "name": "A5",
                    "midi": 81,
                    "time": 104.41542600000021,
                    "velocity": 0.33858267716535434,
                    "duration": 0.08447850000000301
                },
                {
                    "name": "B5",
                    "midi": 83,
                    "time": 104.49990450000021,
                    "velocity": 0.2992125984251969,
                    "duration": 0.08447850000000301
                },
                {
                    "name": "A5",
                    "midi": 81,
                    "time": 104.58438300000022,
                    "velocity": 0.33858267716535434,
                    "duration": 0.08447850000000301
                },
                {
                    "name": "B5",
                    "midi": 83,
                    "time": 104.66886150000022,
                    "velocity": 0.30708661417322836,
                    "duration": 0.08447850000000301
                },
                {
                    "name": "A5",
                    "midi": 81,
                    "time": 104.75334000000022,
                    "velocity": 0.33858267716535434,
                    "duration": 0.11263800000000401
                },
                {
                    "name": "B5",
                    "midi": 83,
                    "time": 104.86597800000023,
                    "velocity": 0.3543307086614173,
                    "duration": 0.11263800000000401
                },
                {
                    "name": "A5",
                    "midi": 81,
                    "time": 104.97861600000023,
                    "velocity": 0.4094488188976378,
                    "duration": 0.11263800000000401
                },
                {
                    "name": "G#5",
                    "midi": 80,
                    "time": 105.09125400000023,
                    "velocity": 0.4566929133858268,
                    "duration": 0.16895700000000602
                },
                {
                    "name": "A5",
                    "midi": 81,
                    "time": 105.26021100000024,
                    "velocity": 0.4251968503937008,
                    "duration": 0.16895700000000602
                },
                {
                    "name": "D6",
                    "midi": 86,
                    "time": 105.42916800000025,
                    "velocity": 0.5196850393700787,
                    "duration": 0.6758279999999957
                },
                {
                    "name": "D5",
                    "midi": 74,
                    "time": 105.42916800000025,
                    "velocity": 0.4409448818897638,
                    "duration": 0.6758279999999957
                },
                {
                    "name": "C#6",
                    "midi": 85,
                    "time": 106.10499600000024,
                    "velocity": 0.47244094488188976,
                    "duration": 0.6758279999999957
                },
                {
                    "name": "C#5",
                    "midi": 73,
                    "time": 106.10499600000024,
                    "velocity": 0.3937007874015748,
                    "duration": 0.6758279999999957
                },
                {
                    "name": "B4",
                    "midi": 71,
                    "time": 106.78082400000024,
                    "velocity": 0.41732283464566927,
                    "duration": 0.6758279999999957
                },
                {
                    "name": "B5",
                    "midi": 83,
                    "time": 106.78082400000024,
                    "velocity": 0.4881889763779528,
                    "duration": 0.6758279999999957
                },
                {
                    "name": "F#5",
                    "midi": 78,
                    "time": 107.79456600000023,
                    "velocity": 0.31496062992125984,
                    "duration": 0.3379139999999978
                },
                {
                    "name": "B4",
                    "midi": 71,
                    "time": 108.13248000000023,
                    "velocity": 0.2992125984251969,
                    "duration": 0.6758279999999957
                },
                {
                    "name": "B5",
                    "midi": 83,
                    "time": 108.13248000000023,
                    "velocity": 0.3543307086614173,
                    "duration": 0.6758279999999957
                },
                {
                    "name": "A4",
                    "midi": 69,
                    "time": 108.80830800000022,
                    "velocity": 0.2677165354330709,
                    "duration": 0.6758279999999957
                },
                {
                    "name": "A5",
                    "midi": 81,
                    "time": 108.80830800000022,
                    "velocity": 0.31496062992125984,
                    "duration": 0.6758279999999957
                },
                {
                    "name": "G4",
                    "midi": 67,
                    "time": 109.48413600000022,
                    "velocity": 0.29133858267716534,
                    "duration": 0.6758279999999957
                },
                {
                    "name": "G5",
                    "midi": 79,
                    "time": 109.48413600000022,
                    "velocity": 0.3464566929133858,
                    "duration": 0.6758279999999957
                },
                {
                    "name": "D5",
                    "midi": 74,
                    "time": 110.49787800000021,
                    "velocity": 0.47244094488188976,
                    "duration": 0.3379139999999978
                },
                {
                    "name": "G5",
                    "midi": 79,
                    "time": 110.83579200000021,
                    "velocity": 0.5196850393700787,
                    "duration": 0.6758279999999957
                },
                {
                    "name": "G4",
                    "midi": 67,
                    "time": 110.83579200000021,
                    "velocity": 0.4409448818897638,
                    "duration": 0.6758279999999957
                },
                {
                    "name": "F#5",
                    "midi": 78,
                    "time": 111.5116200000002,
                    "velocity": 0.47244094488188976,
                    "duration": 0.6758279999999957
                },
                {
                    "name": "F#4",
                    "midi": 66,
                    "time": 111.5116200000002,
                    "velocity": 0.3937007874015748,
                    "duration": 0.6758279999999957
                },
                {
                    "name": "E5",
                    "midi": 76,
                    "time": 112.1874480000002,
                    "velocity": 0.4881889763779528,
                    "duration": 0.3379139999999978
                },
                {
                    "name": "B5",
                    "midi": 83,
                    "time": 112.5253620000002,
                    "velocity": 0.4409448818897638,
                    "duration": 0.3379139999999978
                },
                {
                    "name": "A5",
                    "midi": 81,
                    "time": 112.8632760000002,
                    "velocity": 0.3937007874015748,
                    "duration": 0.16895700000000602
                },
                {
                    "name": "G5",
                    "midi": 79,
                    "time": 113.0322330000002,
                    "velocity": 0.36220472440944884,
                    "duration": 0.16895700000000602
                },
                {
                    "name": "F#5",
                    "midi": 78,
                    "time": 113.20119000000021,
                    "velocity": 0.3937007874015748,
                    "duration": 0.16895700000000602
                },
                {
                    "name": "E5",
                    "midi": 76,
                    "time": 113.37014700000022,
                    "velocity": 0.36220472440944884,
                    "duration": 0.16895700000000602
                },
                {
                    "name": "D5",
                    "midi": 74,
                    "time": 113.53910400000022,
                    "velocity": 0.3937007874015748,
                    "duration": 0.6758279999999957
                },
                {
                    "name": "E5",
                    "midi": 76,
                    "time": 114.21493200000022,
                    "velocity": 0.3543307086614173,
                    "duration": 0.6758279999999957
                },
                {
                    "name": "F5",
                    "midi": 77,
                    "time": 114.89076000000021,
                    "velocity": 0.41732283464566927,
                    "duration": 0.6758279999999957
                },
                {
                    "name": "F#5",
                    "midi": 78,
                    "time": 115.56658800000021,
                    "velocity": 0.3858267716535433,
                    "duration": 0.6758279999999957
                },
                {
                    "name": "D6",
                    "midi": 86,
                    "time": 116.2424160000002,
                    "velocity": 0.5196850393700787,
                    "duration": 0.6758279999999957
                },
                {
                    "name": "C#6",
                    "midi": 85,
                    "time": 116.9182440000002,
                    "velocity": 0.47244094488188976,
                    "duration": 0.08447850000000301
                },
                {
                    "name": "D6",
                    "midi": 86,
                    "time": 117.0027225000002,
                    "velocity": 0.4251968503937008,
                    "duration": 0.08447850000000301
                },
                {
                    "name": "C#6",
                    "midi": 85,
                    "time": 117.0872010000002,
                    "velocity": 0.47244094488188976,
                    "duration": 0.08447850000000301
                },
                {
                    "name": "D6",
                    "midi": 86,
                    "time": 117.17167950000021,
                    "velocity": 0.4330708661417323,
                    "duration": 0.08447850000000301
                },
                {
                    "name": "C#6",
                    "midi": 85,
                    "time": 117.25615800000021,
                    "velocity": 0.47244094488188976,
                    "duration": 0.08447850000000301
                },
                {
                    "name": "D6",
                    "midi": 86,
                    "time": 117.34063650000022,
                    "velocity": 0.4330708661417323,
                    "duration": 0.08447850000000301
                },
                {
                    "name": "C#6",
                    "midi": 85,
                    "time": 117.42511500000022,
                    "velocity": 0.47244094488188976,
                    "duration": 0.08447850000000301
                },
                {
                    "name": "D6",
                    "midi": 86,
                    "time": 117.50959350000022,
                    "velocity": 0.4330708661417323,
                    "duration": 0.08447850000000301
                },
                {
                    "name": "B5",
                    "midi": 83,
                    "time": 117.59407200000022,
                    "velocity": 0.4881889763779528,
                    "duration": 0.6758279999999957
                },
                {
                    "name": "F#5",
                    "midi": 78,
                    "time": 118.60781400000022,
                    "velocity": 0.31496062992125984,
                    "duration": 0.3379139999999978
                },
                {
                    "name": "B5",
                    "midi": 83,
                    "time": 118.94572800000022,
                    "velocity": 0.3543307086614173,
                    "duration": 0.6758279999999957
                },
                {
                    "name": "A5",
                    "midi": 81,
                    "time": 119.62155600000021,
                    "velocity": 0.3779527559055118,
                    "duration": 0.08447850000000301
                },
                {
                    "name": "B5",
                    "midi": 83,
                    "time": 119.70603450000021,
                    "velocity": 0.33070866141732286,
                    "duration": 0.08447850000000301
                },
                {
                    "name": "A5",
                    "midi": 81,
                    "time": 119.79051300000022,
                    "velocity": 0.3937007874015748,
                    "duration": 0.08447850000000301
                },
                {
                    "name": "B5",
                    "midi": 83,
                    "time": 119.87499150000022,
                    "velocity": 0.3464566929133858,
                    "duration": 0.08447850000000301
                },
                {
                    "name": "A5",
                    "midi": 81,
                    "time": 119.95947000000022,
                    "velocity": 0.3858267716535433,
                    "duration": 0.08447850000000301
                },
                {
                    "name": "B5",
                    "midi": 83,
                    "time": 120.04394850000023,
                    "velocity": 0.33070866141732286,
                    "duration": 0.08447850000000301
                },
                {
                    "name": "A5",
                    "midi": 81,
                    "time": 120.12842700000023,
                    "velocity": 0.3937007874015748,
                    "duration": 0.08447850000000301
                },
                {
                    "name": "B5",
                    "midi": 83,
                    "time": 120.21290550000023,
                    "velocity": 0.3700787401574803,
                    "duration": 0.08447850000000301
                },
                {
                    "name": "G5",
                    "midi": 79,
                    "time": 120.29738400000024,
                    "velocity": 0.3464566929133858,
                    "duration": 0.6758279999999957
                },
                {
                    "name": "D5",
                    "midi": 74,
                    "time": 121.31112600000023,
                    "velocity": 0.47244094488188976,
                    "duration": 0.3379139999999978
                },
                {
                    "name": "G5",
                    "midi": 79,
                    "time": 121.64904000000023,
                    "velocity": 0.5196850393700787,
                    "duration": 0.6758279999999957
                },
                {
                    "name": "F#5",
                    "midi": 78,
                    "time": 122.33331585000022,
                    "velocity": 0.44881889763779526,
                    "duration": 0.08447850000000301
                },
                {
                    "name": "G5",
                    "midi": 79,
                    "time": 122.41779435000022,
                    "velocity": 0.4251968503937008,
                    "duration": 0.08447850000000301
                },
                {
                    "name": "F#5",
                    "midi": 78,
                    "time": 122.50227285000022,
                    "velocity": 0.4645669291338583,
                    "duration": 0.08447850000000301
                },
                {
                    "name": "G5",
                    "midi": 79,
                    "time": 122.58675135000023,
                    "velocity": 0.4251968503937008,
                    "duration": 0.08447850000000301
                },
                {
                    "name": "F#5",
                    "midi": 78,
                    "time": 122.67122985000023,
                    "velocity": 0.44881889763779526,
                    "duration": 0.08447850000000301
                },
                {
                    "name": "G5",
                    "midi": 79,
                    "time": 122.75570835000023,
                    "velocity": 0.4094488188976378,
                    "duration": 0.08447850000000301
                },
                {
                    "name": "F#5",
                    "midi": 78,
                    "time": 122.84018685000024,
                    "velocity": 0.4409448818897638,
                    "duration": 0.08447850000000301
                },
                {
                    "name": "G5",
                    "midi": 79,
                    "time": 122.92466535000024,
                    "velocity": 0.4094488188976378,
                    "duration": 0.08447850000000301
                },
                {
                    "name": "E5",
                    "midi": 76,
                    "time": 123.00069600000025,
                    "velocity": 0.4881889763779528,
                    "duration": 0.3379139999999978
                },
                {
                    "name": "B5",
                    "midi": 83,
                    "time": 123.33861000000024,
                    "velocity": 0.4566929133858268,
                    "duration": 0.3379139999999978
                },
                {
                    "name": "A5",
                    "midi": 81,
                    "time": 123.67652400000024,
                    "velocity": 0.4330708661417323,
                    "duration": 0.16895700000000602
                },
                {
                    "name": "G5",
                    "midi": 79,
                    "time": 123.84548100000025,
                    "velocity": 0.3700787401574803,
                    "duration": 0.16895700000000602
                },
                {
                    "name": "F#5",
                    "midi": 78,
                    "time": 124.01443800000025,
                    "velocity": 0.3937007874015748,
                    "duration": 0.16895700000000602
                },
                {
                    "name": "E5",
                    "midi": 76,
                    "time": 124.18339500000026,
                    "velocity": 0.36220472440944884,
                    "duration": 0.16895700000000602
                },
                {
                    "name": "D5",
                    "midi": 74,
                    "time": 124.35235200000027,
                    "velocity": 0.3700787401574803,
                    "duration": 0.16895700000000602
                },
                {
                    "name": "F#5",
                    "midi": 78,
                    "time": 124.69026600000028,
                    "velocity": 0.3700787401574803,
                    "duration": 0.16895700000000602
                },
                {
                    "name": "A5",
                    "midi": 81,
                    "time": 125.02818000000029,
                    "velocity": 0.41732283464566927,
                    "duration": 1.0137419999999935
                },
                {
                    "name": "G#5",
                    "midi": 80,
                    "time": 126.04192200000028,
                    "velocity": 0.36220472440944884,
                    "duration": 0.3379139999999978
                },
                {
                    "name": "G5",
                    "midi": 79,
                    "time": 126.37983600000028,
                    "velocity": 0.36220472440944884,
                    "duration": 0.3379139999999978
                },
                {
                    "name": "F#5",
                    "midi": 78,
                    "time": 126.71775000000028,
                    "velocity": 0.3464566929133858,
                    "duration": 0.3379139999999978
                },
                {
                    "name": "B5",
                    "midi": 83,
                    "time": 127.05566400000028,
                    "velocity": 0.41732283464566927,
                    "duration": 0.22527599999999381
                },
                {
                    "name": "G5",
                    "midi": 79,
                    "time": 127.28094000000027,
                    "velocity": 0.3779527559055118,
                    "duration": 0.22527599999999381
                },
                {
                    "name": "E5",
                    "midi": 76,
                    "time": 127.50621600000026,
                    "velocity": 0.3700787401574803,
                    "duration": 0.21682814999999778
                },
                {
                    "name": "E5",
                    "midi": 76,
                    "time": 127.73149200000026,
                    "velocity": 0.3937007874015748,
                    "duration": 0.08447850000000301
                },
                {
                    "name": "F#5",
                    "midi": 78,
                    "time": 127.81597050000026,
                    "velocity": 0.3543307086614173,
                    "duration": 0.08447850000000301
                },
                {
                    "name": "E5",
                    "midi": 76,
                    "time": 127.90044900000026,
                    "velocity": 0.3937007874015748,
                    "duration": 0.08447850000000301
                },
                {
                    "name": "F#5",
                    "midi": 78,
                    "time": 127.98492750000027,
                    "velocity": 0.3543307086614173,
                    "duration": 0.08447850000000301
                },
                {
                    "name": "E5",
                    "midi": 76,
                    "time": 128.06940600000027,
                    "velocity": 0.3937007874015748,
                    "duration": 0.0844784999999888
                },
                {
                    "name": "F#5",
                    "midi": 78,
                    "time": 128.15388450000026,
                    "velocity": 0.3543307086614173,
                    "duration": 0.0844784999999888
                },
                {
                    "name": "E5",
                    "midi": 76,
                    "time": 128.23836300000025,
                    "velocity": 0.3937007874015748,
                    "duration": 0.0844784999999888
                },
                {
                    "name": "F#5",
                    "midi": 78,
                    "time": 128.32284150000024,
                    "velocity": 0.3543307086614173,
                    "duration": 0.0844784999999888
                },
                {
                    "name": "E5",
                    "midi": 76,
                    "time": 128.40732000000023,
                    "velocity": 0.3937007874015748,
                    "duration": 0.0844784999999888
                },
                {
                    "name": "F#5",
                    "midi": 78,
                    "time": 128.49179850000021,
                    "velocity": 0.3543307086614173,
                    "duration": 0.0844784999999888
                },
                {
                    "name": "E5",
                    "midi": 76,
                    "time": 128.5762770000002,
                    "velocity": 0.3937007874015748,
                    "duration": 0.0844784999999888
                },
                {
                    "name": "F#5",
                    "midi": 78,
                    "time": 128.6607555000002,
                    "velocity": 0.3464566929133858,
                    "duration": 0.0844784999999888
                },
                {
                    "name": "E5",
                    "midi": 76,
                    "time": 128.74523400000018,
                    "velocity": 0.3937007874015748,
                    "duration": 0.0844784999999888
                },
                {
                    "name": "F#5",
                    "midi": 78,
                    "time": 128.82971250000017,
                    "velocity": 0.3543307086614173,
                    "duration": 0.0844784999999888
                },
                {
                    "name": "E5",
                    "midi": 76,
                    "time": 128.91419100000016,
                    "velocity": 0.3937007874015748,
                    "duration": 0.0844784999999888
                },
                {
                    "name": "F#5",
                    "midi": 78,
                    "time": 128.99866950000015,
                    "velocity": 0.3543307086614173,
                    "duration": 0.0844784999999888
                },
                {
                    "name": "E5",
                    "midi": 76,
                    "time": 129.08314800000014,
                    "velocity": 0.3937007874015748,
                    "duration": 0.11263800000000401
                },
                {
                    "name": "F#5",
                    "midi": 78,
                    "time": 129.19578600000014,
                    "velocity": 0.3543307086614173,
                    "duration": 0.11263800000000401
                },
                {
                    "name": "E5",
                    "midi": 76,
                    "time": 129.30842400000014,
                    "velocity": 0.4330708661417323,
                    "duration": 0.11263800000000401
                },
                {
                    "name": "D5",
                    "midi": 74,
                    "time": 129.42106200000015,
                    "velocity": 0.4881889763779528,
                    "duration": 0.16895700000000602
                },
                {
                    "name": "E5",
                    "midi": 76,
                    "time": 129.59001900000015,
                    "velocity": 0.4645669291338583,
                    "duration": 0.16895700000000602
                },
                {
                    "name": "D5",
                    "midi": 74,
                    "time": 129.75897600000016,
                    "velocity": 0.5118110236220472,
                    "duration": 0.33791400000001204
                },
                {
                    "name": "C#5",
                    "midi": 73,
                    "time": 130.09689000000017,
                    "velocity": 0.41732283464566927,
                    "duration": 0.33791400000001204
                },
                {
                    "name": "D5",
                    "midi": 74,
                    "time": 130.43480400000018,
                    "velocity": 0.4645669291338583,
                    "duration": 0.33791400000001204
                },
                {
                    "name": "E5",
                    "midi": 76,
                    "time": 130.7727180000002,
                    "velocity": 0.4251968503937008,
                    "duration": 0.33791400000001204
                },
                {
                    "name": "D5",
                    "midi": 74,
                    "time": 131.1106320000002,
                    "velocity": 0.41732283464566927,
                    "duration": 0.33791400000001204
                },
                {
                    "name": "C5",
                    "midi": 72,
                    "time": 131.44854600000022,
                    "velocity": 0.4015748031496063,
                    "duration": 0.33791400000001204
                },
                {
                    "name": "B4",
                    "midi": 71,
                    "time": 131.78646000000023,
                    "velocity": 0.3779527559055118,
                    "duration": 0.33791400000001204
                },
                {
                    "name": "A#4",
                    "midi": 70,
                    "time": 132.12437400000024,
                    "velocity": 0.3543307086614173,
                    "duration": 0.33791400000001204
                },
                {
                    "name": "B4",
                    "midi": 71,
                    "time": 132.46228800000026,
                    "velocity": 0.3937007874015748,
                    "duration": 0.5068709999999896
                },
                {
                    "name": "D5",
                    "midi": 74,
                    "time": 132.96915900000025,
                    "velocity": 0.33070866141732286,
                    "duration": 0.16895700000000602
                },
                {
                    "name": "C5",
                    "midi": 72,
                    "time": 133.13811600000025,
                    "velocity": 0.3937007874015748,
                    "duration": 0.5068709999999896
                },
                {
                    "name": "B4",
                    "midi": 71,
                    "time": 133.64498700000024,
                    "velocity": 0.3700787401574803,
                    "duration": 0.16895700000000602
                },
                {
                    "name": "A4",
                    "midi": 69,
                    "time": 133.81394400000025,
                    "velocity": 0.3937007874015748,
                    "duration": 0.6758279999999957
                },
                {
                    "name": "B4",
                    "midi": 71,
                    "time": 134.48977200000024,
                    "velocity": 0.36220472440944884,
                    "duration": 0.6758279999999957
                },
                {
                    "name": "C5",
                    "midi": 72,
                    "time": 135.16560000000024,
                    "velocity": 0.3937007874015748,
                    "duration": 0.33791400000001204
                },
                {
                    "name": "D5",
                    "midi": 74,
                    "time": 135.50351400000025,
                    "velocity": 0.3464566929133858,
                    "duration": 0.0844784999999888
                },
                {
                    "name": "C5",
                    "midi": 72,
                    "time": 135.58799250000024,
                    "velocity": 0.31496062992125984,
                    "duration": 0.0844784999999888
                },
                {
                    "name": "B4",
                    "midi": 71,
                    "time": 135.67247100000023,
                    "velocity": 0.3464566929133858,
                    "duration": 0.0844784999999888
                },
                {
                    "name": "C5",
                    "midi": 72,
                    "time": 135.75694950000022,
                    "velocity": 0.31496062992125984,
                    "duration": 0.0844784999999888
                },
                {
                    "name": "E5",
                    "midi": 76,
                    "time": 135.8414280000002,
                    "velocity": 0.36220472440944884,
                    "duration": 0.33791400000001204
                },
                {
                    "name": "D5",
                    "midi": 74,
                    "time": 136.17934200000022,
                    "velocity": 0.3700787401574803,
                    "duration": 0.33791400000001204
                },
                {
                    "name": "C5",
                    "midi": 72,
                    "time": 136.51725600000023,
                    "velocity": 0.3700787401574803,
                    "duration": 0.6758279999999957
                },
                {
                    "name": "B4",
                    "midi": 71,
                    "time": 137.19308400000023,
                    "velocity": 0.4015748031496063,
                    "duration": 0.6758279999999957
                },
                {
                    "name": "G4",
                    "midi": 67,
                    "time": 137.86891200000022,
                    "velocity": 0.5118110236220472,
                    "duration": 0.33791400000001204
                },
                {
                    "name": "C5",
                    "midi": 72,
                    "time": 137.86891200000022,
                    "velocity": 0.5118110236220472,
                    "duration": 0.33791400000001204
                },
                {
                    "name": "B4",
                    "midi": 71,
                    "time": 138.54474000000025,
                    "velocity": 0.48031496062992124,
                    "duration": 0.33791400000001204
                },
                {
                    "name": "G4",
                    "midi": 67,
                    "time": 138.54474000000025,
                    "velocity": 0.48031496062992124,
                    "duration": 0.33791400000001204
                },
                {
                    "name": "E5",
                    "midi": 76,
                    "time": 139.22056800000027,
                    "velocity": 0.5275590551181102,
                    "duration": 0.33791400000001204
                },
                {
                    "name": "G4",
                    "midi": 67,
                    "time": 139.22056800000027,
                    "velocity": 0.5275590551181102,
                    "duration": 0.33791400000001204
                },
                {
                    "name": "D5",
                    "midi": 74,
                    "time": 140.23431000000028,
                    "velocity": 0.3700787401574803,
                    "duration": 0.33791400000001204
                },
                {
                    "name": "G4",
                    "midi": 67,
                    "time": 140.23431000000028,
                    "velocity": 0.3700787401574803,
                    "duration": 0.33791400000001204
                },
                {
                    "name": "C5",
                    "midi": 72,
                    "time": 140.5722240000003,
                    "velocity": 0.3937007874015748,
                    "duration": 0.33791400000001204
                },
                {
                    "name": "A4",
                    "midi": 69,
                    "time": 140.9101380000003,
                    "velocity": 0.33070866141732286,
                    "duration": 0.33791400000001204
                },
                {
                    "name": "B4",
                    "midi": 71,
                    "time": 141.2480520000003,
                    "velocity": 0.3937007874015748,
                    "duration": 0.33791400000001204
                },
                {
                    "name": "G4",
                    "midi": 67,
                    "time": 141.58596600000033,
                    "velocity": 0.33070866141732286,
                    "duration": 0.33791400000001204
                },
                {
                    "name": "G4",
                    "midi": 67,
                    "time": 141.92388000000034,
                    "velocity": 0.3937007874015748,
                    "duration": 0.6758279999999957
                },
                {
                    "name": "B4",
                    "midi": 71,
                    "time": 141.92388000000034,
                    "velocity": 0.3937007874015748,
                    "duration": 0.6758279999999957
                },
                {
                    "name": "F#4",
                    "midi": 66,
                    "time": 142.59970800000033,
                    "velocity": 0.3464566929133858,
                    "duration": 0.6758279999999957
                },
                {
                    "name": "A4",
                    "midi": 69,
                    "time": 142.59970800000033,
                    "velocity": 0.3464566929133858,
                    "duration": 0.6758279999999957
                },
                {
                    "name": "B4",
                    "midi": 71,
                    "time": 143.27553600000033,
                    "velocity": 0.3937007874015748,
                    "duration": 0.33791400000001204
                },
                {
                    "name": "C5",
                    "midi": 72,
                    "time": 143.61345000000034,
                    "velocity": 0.3464566929133858,
                    "duration": 0.0844784999999888
                },
                {
                    "name": "B4",
                    "midi": 71,
                    "time": 143.69792850000033,
                    "velocity": 0.31496062992125984,
                    "duration": 0.0844784999999888
                },
                {
                    "name": "A4",
                    "midi": 69,
                    "time": 143.78240700000032,
                    "velocity": 0.3464566929133858,
                    "duration": 0.0844784999999888
                },
                {
                    "name": "B4",
                    "midi": 71,
                    "time": 143.8668855000003,
                    "velocity": 0.31496062992125984,
                    "duration": 0.0844784999999888
                },
                {
                    "name": "C5",
                    "midi": 72,
                    "time": 143.9513640000003,
                    "velocity": 0.3779527559055118,
                    "duration": 0.5068709999999896
                },
                {
                    "name": "B4",
                    "midi": 71,
                    "time": 144.4582350000003,
                    "velocity": 0.3700787401574803,
                    "duration": 0.16895700000000602
                },
                {
                    "name": "A4",
                    "midi": 69,
                    "time": 144.6271920000003,
                    "velocity": 0.3937007874015748,
                    "duration": 0.6758279999999957
                },
                {
                    "name": "B4",
                    "midi": 71,
                    "time": 145.3030200000003,
                    "velocity": 0.36220472440944884,
                    "duration": 0.6758279999999957
                },
                {
                    "name": "C5",
                    "midi": 72,
                    "time": 145.97884800000028,
                    "velocity": 0.3937007874015748,
                    "duration": 0.33791400000001204
                },
                {
                    "name": "C#5",
                    "midi": 73,
                    "time": 146.3167620000003,
                    "velocity": 0.3937007874015748,
                    "duration": 0.33791400000001204
                },
                {
                    "name": "E5",
                    "midi": 76,
                    "time": 146.6546760000003,
                    "velocity": 0.36220472440944884,
                    "duration": 0.33791400000001204
                },
                {
                    "name": "D5",
                    "midi": 74,
                    "time": 146.99259000000032,
                    "velocity": 0.3858267716535433,
                    "duration": 0.33791400000001204
                },
                {
                    "name": "C5",
                    "midi": 72,
                    "time": 147.33050400000033,
                    "velocity": 0.3700787401574803,
                    "duration": 0.5068709999999896
                },
                {
                    "name": "D5",
                    "midi": 74,
                    "time": 147.83737500000032,
                    "velocity": 0.3700787401574803,
                    "duration": 0.0844784999999888
                },
                {
                    "name": "C5",
                    "midi": 72,
                    "time": 147.9218535000003,
                    "velocity": 0.3700787401574803,
                    "duration": 0.0844784999999888
                },
                {
                    "name": "B4",
                    "midi": 71,
                    "time": 148.0063320000003,
                    "velocity": 0.4015748031496063,
                    "duration": 0.6758279999999957
                },
                {
                    "name": "G4",
                    "midi": 67,
                    "time": 148.6821600000003,
                    "velocity": 0.5118110236220472,
                    "duration": 0.33791400000001204
                },
                {
                    "name": "C5",
                    "midi": 72,
                    "time": 148.6821600000003,
                    "velocity": 0.5118110236220472,
                    "duration": 0.33791400000001204
                },
                {
                    "name": "B4",
                    "midi": 71,
                    "time": 149.35798800000032,
                    "velocity": 0.48031496062992124,
                    "duration": 0.33791400000001204
                },
                {
                    "name": "G4",
                    "midi": 67,
                    "time": 149.35798800000032,
                    "velocity": 0.48031496062992124,
                    "duration": 0.33791400000001204
                },
                {
                    "name": "G4",
                    "midi": 67,
                    "time": 150.03381600000034,
                    "velocity": 0.5275590551181102,
                    "duration": 1.0137420000000361
                },
                {
                    "name": "E5",
                    "midi": 76,
                    "time": 150.03381600000034,
                    "velocity": 0.5275590551181102,
                    "duration": 0.33791400000001204
                },
                {
                    "name": "F#5",
                    "midi": 78,
                    "time": 150.37173000000035,
                    "velocity": 0.4881889763779528,
                    "duration": 0.33791400000001204
                },
                {
                    "name": "G5",
                    "midi": 79,
                    "time": 150.70964400000037,
                    "velocity": 0.5118110236220472,
                    "duration": 0.33791400000001204
                },
                {
                    "name": "C5",
                    "midi": 72,
                    "time": 151.04755800000038,
                    "velocity": 0.3700787401574803,
                    "duration": 0.33791400000001204
                },
                {
                    "name": "B4",
                    "midi": 71,
                    "time": 151.3854720000004,
                    "velocity": 0.3937007874015748,
                    "duration": 0.6758279999999957
                },
                {
                    "name": "A4",
                    "midi": 69,
                    "time": 152.0613000000004,
                    "velocity": 0.3700787401574803,
                    "duration": 0.07603065000000697
                },
                {
                    "name": "B4",
                    "midi": 71,
                    "time": 152.1373306500004,
                    "velocity": 0.3700787401574803,
                    "duration": 0.07321469999999408
                },
                {
                    "name": "A4",
                    "midi": 69,
                    "time": 152.2105453500004,
                    "velocity": 0.3700787401574803,
                    "duration": 0.07603065000000697
                },
                {
                    "name": "B4",
                    "midi": 71,
                    "time": 152.28376005000038,
                    "velocity": 0.3700787401574803,
                    "duration": 0.07603065000000697
                },
                {
                    "name": "A4",
                    "midi": 69,
                    "time": 152.3597907000004,
                    "velocity": 0.3543307086614173,
                    "duration": 0.07321469999999408
                },
                {
                    "name": "B4",
                    "midi": 71,
                    "time": 152.43300540000038,
                    "velocity": 0.3543307086614173,
                    "duration": 0.07603065000000697
                },
                {
                    "name": "A4",
                    "midi": 69,
                    "time": 152.5090360500004,
                    "velocity": 0.3543307086614173,
                    "duration": 0.07321469999999408
                },
                {
                    "name": "G4",
                    "midi": 67,
                    "time": 152.58225075000038,
                    "velocity": 0.3543307086614173,
                    "duration": 0.07603065000000697
                },
                {
                    "name": "A4",
                    "midi": 69,
                    "time": 152.65546545000038,
                    "velocity": 0.3543307086614173,
                    "duration": 0.08166255000000433
                },
                {
                    "name": "G4",
                    "midi": 67,
                    "time": 152.73712800000038,
                    "velocity": 0.3543307086614173,
                    "duration": 1.3516559999999913
                },
                {
                    "name": "B4",
                    "midi": 71,
                    "time": 154.08878400000037,
                    "velocity": 0.3543307086614173,
                    "duration": 0.6758279999999957
                },
                {
                    "name": "A4",
                    "midi": 69,
                    "time": 154.76461200000037,
                    "velocity": 0.3543307086614173,
                    "duration": 0.6758279999999957
                },
                {
                    "name": "G4",
                    "midi": 67,
                    "time": 155.44044000000036,
                    "velocity": 0.3543307086614173,
                    "duration": 0.33791400000001204
                },
                {
                    "name": "F#4",
                    "midi": 66,
                    "time": 155.77835400000038,
                    "velocity": 0.3228346456692913,
                    "duration": 0.3266501999999889
                },
                {
                    "name": "F#4",
                    "midi": 66,
                    "time": 156.11626800000036,
                    "velocity": 0.3543307086614173,
                    "duration": 0.33791400000001204
                },
                {
                    "name": "D4",
                    "midi": 62,
                    "time": 156.45418200000037,
                    "velocity": 0.3228346456692913,
                    "duration": 0.33791400000001204
                },
                {
                    "name": "B4",
                    "midi": 71,
                    "time": 156.79209600000038,
                    "velocity": 0.4015748031496063,
                    "duration": 1.3516559999999913
                },
                {
                    "name": "G4",
                    "midi": 67,
                    "time": 158.14375200000038,
                    "velocity": 0.3543307086614173,
                    "duration": 1.0137420000000077
                },
                {
                    "name": "A4",
                    "midi": 69,
                    "time": 159.15749400000038,
                    "velocity": 0.31496062992125984,
                    "duration": 0.0844784999999888
                },
                {
                    "name": "G4",
                    "midi": 67,
                    "time": 159.24197250000037,
                    "velocity": 0.2755905511811024,
                    "duration": 0.0844784999999888
                },
                {
                    "name": "F#4",
                    "midi": 66,
                    "time": 159.32645100000036,
                    "velocity": 0.31496062992125984,
                    "duration": 0.0844784999999888
                },
                {
                    "name": "G4",
                    "midi": 67,
                    "time": 159.41092950000035,
                    "velocity": 0.28346456692913385,
                    "duration": 0.0844784999999888
                },
                {
                    "name": "B4",
                    "midi": 71,
                    "time": 159.49540800000034,
                    "velocity": 0.3543307086614173,
                    "duration": 0.33791400000001204
                },
                {
                    "name": "A4",
                    "midi": 69,
                    "time": 159.83332200000035,
                    "velocity": 0.3543307086614173,
                    "duration": 0.3294661500000018
                },
                {
                    "name": "A4",
                    "midi": 69,
                    "time": 160.17123600000036,
                    "velocity": 0.3543307086614173,
                    "duration": 0.6758279999999957
                },
                {
                    "name": "G4",
                    "midi": 67,
                    "time": 160.84706400000036,
                    "velocity": 0.3543307086614173,
                    "duration": 0.33791400000001204
                },
                {
                    "name": "F#4",
                    "midi": 66,
                    "time": 161.18497800000037,
                    "velocity": 0.3228346456692913,
                    "duration": 0.33228209999998626
                },
                {
                    "name": "F#4",
                    "midi": 66,
                    "time": 161.52289200000035,
                    "velocity": 0.3543307086614173,
                    "duration": 0.33791400000001204
                },
                {
                    "name": "D4",
                    "midi": 62,
                    "time": 161.86080600000037,
                    "velocity": 0.33858267716535434,
                    "duration": 0.33791400000001204
                },
                {
                    "name": "G4",
                    "midi": 67,
                    "time": 162.19872000000038,
                    "velocity": 0.4251968503937008,
                    "duration": 1.3516559999999913
                },
                {
                    "name": "G5",
                    "midi": 79,
                    "time": 163.55037600000037,
                    "velocity": 0.5433070866141733,
                    "duration": 0.6420366000000115
                },
                {
                    "name": "C#5",
                    "midi": 73,
                    "time": 163.55037600000037,
                    "velocity": 0.4566929133858268,
                    "duration": 0.6420366000000115
                },
                {
                    "name": "G4",
                    "midi": 67,
                    "time": 163.55037600000037,
                    "velocity": 0.4566929133858268,
                    "duration": 0.6420366000000115
                },
                {
                    "name": "C#5",
                    "midi": 73,
                    "time": 164.2262040000004,
                    "velocity": 0.4409448818897638,
                    "duration": 0.6420366000000115
                },
                {
                    "name": "G5",
                    "midi": 79,
                    "time": 164.2262040000004,
                    "velocity": 0.5196850393700787,
                    "duration": 0.6420366000000115
                },
                {
                    "name": "G4",
                    "midi": 67,
                    "time": 164.2262040000004,
                    "velocity": 0.4409448818897638,
                    "duration": 0.6420366000000115
                },
                {
                    "name": "C#5",
                    "midi": 73,
                    "time": 164.90203200000042,
                    "velocity": 0.4645669291338583,
                    "duration": 1.2164903999999979
                },
                {
                    "name": "G5",
                    "midi": 79,
                    "time": 164.90203200000042,
                    "velocity": 0.5511811023622047,
                    "duration": 1.2164903999999979
                },
                {
                    "name": "G4",
                    "midi": 67,
                    "time": 164.90203200000042,
                    "velocity": 0.4645669291338583,
                    "duration": 1.2164903999999979
                },
                {
                    "name": "F#5",
                    "midi": 78,
                    "time": 166.2536880000004,
                    "velocity": 0.31496062992125984,
                    "duration": 0.5406624000000022
                },
                {
                    "name": "D6",
                    "midi": 86,
                    "time": 166.2536880000004,
                    "velocity": 0.3779527559055118,
                    "duration": 0.5406624000000022
                },
                {
                    "name": "D6",
                    "midi": 86,
                    "time": 166.9295160000004,
                    "velocity": 0.3543307086614173,
                    "duration": 0.5406624000000022
                },
                {
                    "name": "F#5",
                    "midi": 78,
                    "time": 166.9295160000004,
                    "velocity": 0.2992125984251969,
                    "duration": 0.5406624000000022
                },
                {
                    "name": "D6",
                    "midi": 86,
                    "time": 167.6053440000004,
                    "velocity": 0.3779527559055118,
                    "duration": 1.3516559999999913
                },
                {
                    "name": "F#5",
                    "midi": 78,
                    "time": 167.6053440000004,
                    "velocity": 0.31496062992125984,
                    "duration": 1.3516559999999913
                },
                {
                    "name": "B4",
                    "midi": 71,
                    "time": 169.6328280000004,
                    "velocity": 0.3779527559055118,
                    "duration": 0.0844784999999888
                },
                {
                    "name": "C5",
                    "midi": 72,
                    "time": 169.71730650000038,
                    "velocity": 0.3464566929133858,
                    "duration": 0.0844784999999888
                },
                {
                    "name": "B4",
                    "midi": 71,
                    "time": 169.80178500000036,
                    "velocity": 0.3779527559055118,
                    "duration": 0.0844784999999888
                },
                {
                    "name": "A4",
                    "midi": 69,
                    "time": 169.88626350000035,
                    "velocity": 0.3464566929133858,
                    "duration": 0.0844784999999888
                },
                {
                    "name": "B4",
                    "midi": 71,
                    "time": 169.97074200000034,
                    "velocity": 0.3937007874015748,
                    "duration": 0.16895700000000602
                },
                {
                    "name": "C5",
                    "midi": 72,
                    "time": 170.13969900000035,
                    "velocity": 0.3543307086614173,
                    "duration": 0.16895700000000602
                },
                {
                    "name": "D5",
                    "midi": 74,
                    "time": 170.30865600000035,
                    "velocity": 0.4251968503937008,
                    "duration": 0.6758279999999957
                },
                {
                    "name": "D5",
                    "midi": 74,
                    "time": 170.98448400000035,
                    "velocity": 0.3779527559055118,
                    "duration": 1.0137420000000077
                },
                {
                    "name": "D5",
                    "midi": 74,
                    "time": 171.99822600000036,
                    "velocity": 0.3779527559055118,
                    "duration": 0.33791400000001204
                },
                {
                    "name": "D5",
                    "midi": 74,
                    "time": 172.33614000000037,
                    "velocity": 0.3937007874015748,
                    "duration": 0.0844784999999888
                },
                {
                    "name": "E5",
                    "midi": 76,
                    "time": 172.42061850000036,
                    "velocity": 0.3464566929133858,
                    "duration": 0.0844784999999888
                },
                {
                    "name": "D5",
                    "midi": 74,
                    "time": 172.50509700000035,
                    "velocity": 0.36220472440944884,
                    "duration": 0.0844784999999888
                },
                {
                    "name": "C#5",
                    "midi": 73,
                    "time": 172.58957550000034,
                    "velocity": 0.36220472440944884,
                    "duration": 0.0844784999999888
                },
                {
                    "name": "D5",
                    "midi": 74,
                    "time": 172.67405400000033,
                    "velocity": 0.41732283464566927,
                    "duration": 0.16895700000000602
                },
                {
                    "name": "E5",
                    "midi": 76,
                    "time": 172.84301100000033,
                    "velocity": 0.33858267716535434,
                    "duration": 0.16895700000000602
                },
                {
                    "name": "D5",
                    "midi": 74,
                    "time": 173.01196800000034,
                    "velocity": 0.41732283464566927,
                    "duration": 0.33791400000001204
                },
                {
                    "name": "C5",
                    "midi": 72,
                    "time": 173.34988200000035,
                    "velocity": 0.3779527559055118,
                    "duration": 0.33791400000001204
                },
                {
                    "name": "C5",
                    "midi": 72,
                    "time": 173.68779600000036,
                    "velocity": 0.3779527559055118,
                    "duration": 1.0137420000000077
                },
                {
                    "name": "C5",
                    "midi": 72,
                    "time": 174.70153800000037,
                    "velocity": 0.3543307086614173,
                    "duration": 0.16895700000000602
                },
                {
                    "name": "B4",
                    "midi": 71,
                    "time": 175.03945200000038,
                    "velocity": 0.3858267716535433,
                    "duration": 0.16895700000000602
                },
                {
                    "name": "A4",
                    "midi": 69,
                    "time": 175.3773660000004,
                    "velocity": 0.3543307086614173,
                    "duration": 0.16895700000000602
                },
                {
                    "name": "A4",
                    "midi": 69,
                    "time": 175.7152800000004,
                    "velocity": 0.4015748031496063,
                    "duration": 0.33791400000001204
                },
                {
                    "name": "D5",
                    "midi": 74,
                    "time": 176.05319400000042,
                    "velocity": 0.36220472440944884,
                    "duration": 0.3294661500000018
                },
                {
                    "name": "D5",
                    "midi": 74,
                    "time": 176.39110800000043,
                    "velocity": 0.36220472440944884,
                    "duration": 1.0137420000000077
                },
                {
                    "name": "E5",
                    "midi": 76,
                    "time": 177.40485000000044,
                    "velocity": 0.3779527559055118,
                    "duration": 0.16895700000000602
                },
                {
                    "name": "D5",
                    "midi": 74,
                    "time": 177.57380700000044,
                    "velocity": 0.3464566929133858,
                    "duration": 0.16895700000000602
                },
                {
                    "name": "D5",
                    "midi": 74,
                    "time": 177.74276400000045,
                    "velocity": 0.3779527559055118,
                    "duration": 0.16895700000000602
                },
                {
                    "name": "C5",
                    "midi": 72,
                    "time": 177.91172100000045,
                    "velocity": 0.3464566929133858,
                    "duration": 0.16895700000000602
                },
                {
                    "name": "B4",
                    "midi": 71,
                    "time": 178.08067800000046,
                    "velocity": 0.3464566929133858,
                    "duration": 0.16895700000000602
                },
                {
                    "name": "C5",
                    "midi": 72,
                    "time": 178.24963500000047,
                    "velocity": 0.3464566929133858,
                    "duration": 0.16895700000000602
                },
                {
                    "name": "C5",
                    "midi": 72,
                    "time": 178.41859200000047,
                    "velocity": 0.3858267716535433,
                    "duration": 0.33791400000001204
                },
                {
                    "name": "B4",
                    "midi": 71,
                    "time": 178.75650600000048,
                    "velocity": 0.3543307086614173,
                    "duration": 0.3294661500000018
                },
                {
                    "name": "B4",
                    "midi": 71,
                    "time": 179.0944200000005,
                    "velocity": 0.3779527559055118,
                    "duration": 0.8447850000000017
                },
                {
                    "name": "B4",
                    "midi": 71,
                    "time": 179.9392050000005,
                    "velocity": 0.3464566929133858,
                    "duration": 0.0844784999999888
                },
                {
                    "name": "C5",
                    "midi": 72,
                    "time": 180.0236835000005,
                    "velocity": 0.3464566929133858,
                    "duration": 0.0844784999999888
                },
                {
                    "name": "D5",
                    "midi": 74,
                    "time": 180.10816200000048,
                    "velocity": 0.3779527559055118,
                    "duration": 0.16895700000000602
                },
                {
                    "name": "C5",
                    "midi": 72,
                    "time": 180.4460760000005,
                    "velocity": 0.36220472440944884,
                    "duration": 0.16895700000000602
                },
                {
                    "name": "B4",
                    "midi": 71,
                    "time": 180.7839900000005,
                    "velocity": 0.36220472440944884,
                    "duration": 0.16895700000000602
                },
                {
                    "name": "B4",
                    "midi": 71,
                    "time": 181.1219040000005,
                    "velocity": 0.4015748031496063,
                    "duration": 0.33791400000001204
                },
                {
                    "name": "A4",
                    "midi": 69,
                    "time": 181.45981800000052,
                    "velocity": 0.36220472440944884,
                    "duration": 0.33791400000001204
                },
                {
                    "name": "A4",
                    "midi": 69,
                    "time": 181.79773200000054,
                    "velocity": 0.36220472440944884,
                    "duration": 0.16895700000000602
                },
                {
                    "name": "A4",
                    "midi": 69,
                    "time": 182.13564600000055,
                    "velocity": 0.3779527559055118,
                    "duration": 0.16895700000000602
                },
                {
                    "name": "A4",
                    "midi": 69,
                    "time": 182.47356000000056,
                    "velocity": 0.3779527559055118,
                    "duration": 0.6758279999999957
                },
                {
                    "name": "A4",
                    "midi": 69,
                    "time": 183.14938800000056,
                    "velocity": 0.3779527559055118,
                    "duration": 0.5068710000000181
                },
                {
                    "name": "C#5",
                    "midi": 73,
                    "time": 183.48730200000057,
                    "velocity": 0.3779527559055118,
                    "duration": 0.11263800000000401
                },
                {
                    "name": "D5",
                    "midi": 74,
                    "time": 183.59994000000057,
                    "velocity": 0.3779527559055118,
                    "duration": 0.11263800000000401
                },
                {
                    "name": "E5",
                    "midi": 76,
                    "time": 183.71257800000058,
                    "velocity": 0.3779527559055118,
                    "duration": 0.11263800000000401
                },
                {
                    "name": "D5",
                    "midi": 74,
                    "time": 183.82521600000058,
                    "velocity": 0.41732283464566927,
                    "duration": 1.6895700000000033
                },
                {
                    "name": "E5",
                    "midi": 76,
                    "time": 185.51478600000058,
                    "velocity": 0.4094488188976378,
                    "duration": 0.16895700000000602
                },
                {
                    "name": "D5",
                    "midi": 74,
                    "time": 185.6837430000006,
                    "velocity": 0.3779527559055118,
                    "duration": 0.16895700000000602
                },
                {
                    "name": "C5",
                    "midi": 72,
                    "time": 185.8527000000006,
                    "velocity": 0.4015748031496063,
                    "duration": 0.33791400000001204
                },
                {
                    "name": "B4",
                    "midi": 71,
                    "time": 186.1906140000006,
                    "velocity": 0.3779527559055118,
                    "duration": 0.3294661500000018
                },
                {
                    "name": "B4",
                    "midi": 71,
                    "time": 186.52852800000062,
                    "velocity": 0.41732283464566927,
                    "duration": 0.33791400000001204
                },
                {
                    "name": "A4",
                    "midi": 69,
                    "time": 186.86644200000063,
                    "velocity": 0.3543307086614173,
                    "duration": 0.33791400000001204
                },
                {
                    "name": "G#4",
                    "midi": 68,
                    "time": 187.20435600000064,
                    "velocity": 0.3937007874015748,
                    "duration": 0.33791400000001204
                },
                {
                    "name": "A4",
                    "midi": 69,
                    "time": 187.54227000000066,
                    "velocity": 0.3543307086614173,
                    "duration": 0.33791400000001204
                },
                {
                    "name": "B4",
                    "midi": 71,
                    "time": 187.88018400000067,
                    "velocity": 0.3779527559055118,
                    "duration": 0.33791400000001204
                },
                {
                    "name": "C5",
                    "midi": 72,
                    "time": 188.21809800000068,
                    "velocity": 0.3464566929133858,
                    "duration": 0.33791400000001204
                },
                {
                    "name": "E4",
                    "midi": 64,
                    "time": 188.5560120000007,
                    "velocity": 0.33070866141732286,
                    "duration": 0.33791400000001204
                },
                {
                    "name": "A4",
                    "midi": 69,
                    "time": 188.8939260000007,
                    "velocity": 0.33070866141732286,
                    "duration": 0.33791400000001204
                },
                {
                    "name": "G4",
                    "midi": 67,
                    "time": 189.23184000000072,
                    "velocity": 0.3779527559055118,
                    "duration": 0.33791400000001204
                },
                {
                    "name": "F#4",
                    "midi": 66,
                    "time": 189.56975400000073,
                    "velocity": 0.3543307086614173,
                    "duration": 0.33791400000001204
                },
                {
                    "name": "E4",
                    "midi": 64,
                    "time": 189.90766800000074,
                    "velocity": 0.3228346456692913,
                    "duration": 0.33791400000001204
                },
                {
                    "name": "D4",
                    "midi": 62,
                    "time": 190.24558200000075,
                    "velocity": 0.3228346456692913,
                    "duration": 0.33791400000001204
                },
                {
                    "name": "E4",
                    "midi": 64,
                    "time": 190.58349600000076,
                    "velocity": 0.33070866141732286,
                    "duration": 0.33791400000001204
                },
                {
                    "name": "F#4",
                    "midi": 66,
                    "time": 190.92141000000078,
                    "velocity": 0.3464566929133858,
                    "duration": 0.33791400000001204
                },
                {
                    "name": "G4",
                    "midi": 67,
                    "time": 191.2593240000008,
                    "velocity": 0.3700787401574803,
                    "duration": 0.33791400000001204
                },
                {
                    "name": "A4",
                    "midi": 69,
                    "time": 191.5972380000008,
                    "velocity": 0.3858267716535433,
                    "duration": 0.33791400000001204
                },
                {
                    "name": "B4",
                    "midi": 71,
                    "time": 191.9351520000008,
                    "velocity": 0.3937007874015748,
                    "duration": 0.5068709999999896
                },
                {
                    "name": "D5",
                    "midi": 74,
                    "time": 192.4420230000008,
                    "velocity": 0.33070866141732286,
                    "duration": 0.16895700000000602
                },
                {
                    "name": "C5",
                    "midi": 72,
                    "time": 192.6109800000008,
                    "velocity": 0.3937007874015748,
                    "duration": 0.5068709999999896
                },
                {
                    "name": "B4",
                    "midi": 71,
                    "time": 193.1178510000008,
                    "velocity": 0.3700787401574803,
                    "duration": 0.16895700000000602
                },
                {
                    "name": "A4",
                    "midi": 69,
                    "time": 193.2868080000008,
                    "velocity": 0.3937007874015748,
                    "duration": 0.6758279999999957
                },
                {
                    "name": "B4",
                    "midi": 71,
                    "time": 193.9626360000008,
                    "velocity": 0.36220472440944884,
                    "duration": 0.6758279999999957
                },
                {
                    "name": "C5",
                    "midi": 72,
                    "time": 194.6384640000008,
                    "velocity": 0.3937007874015748,
                    "duration": 0.6758279999999957
                },
                {
                    "name": "D5",
                    "midi": 74,
                    "time": 195.3142920000008,
                    "velocity": 0.36220472440944884,
                    "duration": 0.6758279999999957
                },
                {
                    "name": "C5",
                    "midi": 72,
                    "time": 195.9901200000008,
                    "velocity": 0.3700787401574803,
                    "duration": 0.6758279999999957
                },
                {
                    "name": "B4",
                    "midi": 71,
                    "time": 196.66594800000078,
                    "velocity": 0.4015748031496063,
                    "duration": 0.6758279999999957
                },
                {
                    "name": "D6",
                    "midi": 86,
                    "time": 197.34177600000078,
                    "velocity": 0.3543307086614173,
                    "duration": 0.0844784999999888
                },
                {
                    "name": "E6",
                    "midi": 88,
                    "time": 197.42625450000077,
                    "velocity": 0.31496062992125984,
                    "duration": 0.0844784999999888
                },
                {
                    "name": "D6",
                    "midi": 86,
                    "time": 197.51073300000076,
                    "velocity": 0.3543307086614173,
                    "duration": 0.0844784999999888
                },
                {
                    "name": "E6",
                    "midi": 88,
                    "time": 197.59521150000074,
                    "velocity": 0.3228346456692913,
                    "duration": 0.0844784999999888
                },
                {
                    "name": "D6",
                    "midi": 86,
                    "time": 197.67969000000073,
                    "velocity": 0.3543307086614173,
                    "duration": 0.0844784999999888
                },
                {
                    "name": "E6",
                    "midi": 88,
                    "time": 197.76416850000072,
                    "velocity": 0.31496062992125984,
                    "duration": 0.0844784999999888
                },
                {
                    "name": "D6",
                    "midi": 86,
                    "time": 197.8486470000007,
                    "velocity": 0.3543307086614173,
                    "duration": 0.0844784999999888
                },
                {
                    "name": "E6",
                    "midi": 88,
                    "time": 197.9331255000007,
                    "velocity": 0.30708661417322836,
                    "duration": 0.0844784999999888
                },
                {
                    "name": "D6",
                    "midi": 86,
                    "time": 198.0176040000007,
                    "velocity": 0.3543307086614173,
                    "duration": 0.0844784999999888
                },
                {
                    "name": "E6",
                    "midi": 88,
                    "time": 198.10208250000068,
                    "velocity": 0.31496062992125984,
                    "duration": 0.0844784999999888
                },
                {
                    "name": "D6",
                    "midi": 86,
                    "time": 198.18656100000067,
                    "velocity": 0.3543307086614173,
                    "duration": 0.0844784999999888
                },
                {
                    "name": "E6",
                    "midi": 88,
                    "time": 198.27103950000065,
                    "velocity": 0.31496062992125984,
                    "duration": 0.0844784999999888
                },
                {
                    "name": "D6",
                    "midi": 86,
                    "time": 198.35551800000064,
                    "velocity": 0.3543307086614173,
                    "duration": 0.0844784999999888
                },
                {
                    "name": "E6",
                    "midi": 88,
                    "time": 198.43999650000063,
                    "velocity": 0.31496062992125984,
                    "duration": 0.0844784999999888
                },
                {
                    "name": "D6",
                    "midi": 86,
                    "time": 198.52447500000062,
                    "velocity": 0.3543307086614173,
                    "duration": 0.0844784999999888
                },
                {
                    "name": "E6",
                    "midi": 88,
                    "time": 198.6089535000006,
                    "velocity": 0.3228346456692913,
                    "duration": 0.0844784999999888
                },
                {
                    "name": "D6",
                    "midi": 86,
                    "time": 198.6934320000006,
                    "velocity": 0.3543307086614173,
                    "duration": 0.0844784999999888
                },
                {
                    "name": "E6",
                    "midi": 88,
                    "time": 198.7779105000006,
                    "velocity": 0.31496062992125984,
                    "duration": 0.0844784999999888
                },
                {
                    "name": "D6",
                    "midi": 86,
                    "time": 198.86238900000058,
                    "velocity": 0.3543307086614173,
                    "duration": 0.0844784999999888
                },
                {
                    "name": "E6",
                    "midi": 88,
                    "time": 198.94686750000056,
                    "velocity": 0.31496062992125984,
                    "duration": 0.0844784999999888
                },
                {
                    "name": "D6",
                    "midi": 86,
                    "time": 199.03134600000055,
                    "velocity": 0.3543307086614173,
                    "duration": 0.0844784999999888
                },
                {
                    "name": "E6",
                    "midi": 88,
                    "time": 199.11582450000054,
                    "velocity": 0.3228346456692913,
                    "duration": 0.0844784999999888
                },
                {
                    "name": "D6",
                    "midi": 86,
                    "time": 199.20030300000053,
                    "velocity": 0.3543307086614173,
                    "duration": 0.0844784999999888
                },
                {
                    "name": "E6",
                    "midi": 88,
                    "time": 199.28478150000052,
                    "velocity": 0.31496062992125984,
                    "duration": 0.0844784999999888
                },
                {
                    "name": "D6",
                    "midi": 86,
                    "time": 199.3692600000005,
                    "velocity": 0.3543307086614173,
                    "duration": 0.0844784999999888
                },
                {
                    "name": "E6",
                    "midi": 88,
                    "time": 199.4537385000005,
                    "velocity": 0.31496062992125984,
                    "duration": 0.0844784999999888
                },
                {
                    "name": "D6",
                    "midi": 86,
                    "time": 199.5382170000005,
                    "velocity": 0.3543307086614173,
                    "duration": 0.0844784999999888
                },
                {
                    "name": "E6",
                    "midi": 88,
                    "time": 199.62269550000048,
                    "velocity": 0.3228346456692913,
                    "duration": 0.0844784999999888
                },
                {
                    "name": "D6",
                    "midi": 86,
                    "time": 199.70717400000046,
                    "velocity": 0.3543307086614173,
                    "duration": 0.0844784999999888
                },
                {
                    "name": "E6",
                    "midi": 88,
                    "time": 199.79165250000045,
                    "velocity": 0.31496062992125984,
                    "duration": 0.0844784999999888
                },
                {
                    "name": "D6",
                    "midi": 86,
                    "time": 199.87613100000044,
                    "velocity": 0.3543307086614173,
                    "duration": 0.0844784999999888
                },
                {
                    "name": "E6",
                    "midi": 88,
                    "time": 199.96060950000043,
                    "velocity": 0.3228346456692913,
                    "duration": 0.0844784999999888
                },
                {
                    "name": "D6",
                    "midi": 86,
                    "time": 200.04508800000042,
                    "velocity": 0.3543307086614173,
                    "duration": 0.0844784999999888
                },
                {
                    "name": "E6",
                    "midi": 88,
                    "time": 200.1295665000004,
                    "velocity": 0.33070866141732286,
                    "duration": 0.0844784999999888
                },
                {
                    "name": "D6",
                    "midi": 86,
                    "time": 200.2140450000004,
                    "velocity": 0.3543307086614173,
                    "duration": 0.0844784999999888
                },
                {
                    "name": "E6",
                    "midi": 88,
                    "time": 200.29852350000039,
                    "velocity": 0.3228346456692913,
                    "duration": 0.0844784999999888
                },
                {
                    "name": "D6",
                    "midi": 86,
                    "time": 200.38300200000037,
                    "velocity": 0.3464566929133858,
                    "duration": 0.0844784999999888
                },
                {
                    "name": "E6",
                    "midi": 88,
                    "time": 200.46748050000036,
                    "velocity": 0.2992125984251969,
                    "duration": 0.0844784999999888
                },
                {
                    "name": "D6",
                    "midi": 86,
                    "time": 200.55195900000035,
                    "velocity": 0.3464566929133858,
                    "duration": 0.0844784999999888
                },
                {
                    "name": "E6",
                    "midi": 88,
                    "time": 200.63643750000034,
                    "velocity": 0.30708661417322836,
                    "duration": 0.0844784999999888
                },
                {
                    "name": "D6",
                    "midi": 86,
                    "time": 200.72091600000033,
                    "velocity": 0.33858267716535434,
                    "duration": 0.0844784999999888
                },
                {
                    "name": "E6",
                    "midi": 88,
                    "time": 200.80539450000032,
                    "velocity": 0.2992125984251969,
                    "duration": 0.0844784999999888
                },
                {
                    "name": "D6",
                    "midi": 86,
                    "time": 200.8898730000003,
                    "velocity": 0.33070866141732286,
                    "duration": 0.0844784999999888
                },
                {
                    "name": "E6",
                    "midi": 88,
                    "time": 200.9743515000003,
                    "velocity": 0.2992125984251969,
                    "duration": 0.0844784999999888
                },
                {
                    "name": "D6",
                    "midi": 86,
                    "time": 201.05883000000028,
                    "velocity": 0.33070866141732286,
                    "duration": 0.0844784999999888
                },
                {
                    "name": "E6",
                    "midi": 88,
                    "time": 201.14330850000027,
                    "velocity": 0.30708661417322836,
                    "duration": 0.0844784999999888
                },
                {
                    "name": "D6",
                    "midi": 86,
                    "time": 201.22778700000026,
                    "velocity": 0.33858267716535434,
                    "duration": 0.0844784999999888
                },
                {
                    "name": "E6",
                    "midi": 88,
                    "time": 201.31226550000025,
                    "velocity": 0.30708661417322836,
                    "duration": 0.0844784999999888
                },
                {
                    "name": "D6",
                    "midi": 86,
                    "time": 201.39674400000024,
                    "velocity": 0.33858267716535434,
                    "duration": 0.0844784999999888
                },
                {
                    "name": "E6",
                    "midi": 88,
                    "time": 201.48122250000023,
                    "velocity": 0.2992125984251969,
                    "duration": 0.0844784999999888
                },
                {
                    "name": "D6",
                    "midi": 86,
                    "time": 201.56570100000022,
                    "velocity": 0.33858267716535434,
                    "duration": 0.0844784999999888
                },
                {
                    "name": "E6",
                    "midi": 88,
                    "time": 201.6501795000002,
                    "velocity": 0.2992125984251969,
                    "duration": 0.0844784999999888
                },
                {
                    "name": "D6",
                    "midi": 86,
                    "time": 201.7346580000002,
                    "velocity": 0.33858267716535434,
                    "duration": 0.0844784999999888
                },
                {
                    "name": "E6",
                    "midi": 88,
                    "time": 201.81913650000018,
                    "velocity": 0.2992125984251969,
                    "duration": 0.0844784999999888
                },
                {
                    "name": "D6",
                    "midi": 86,
                    "time": 201.90361500000017,
                    "velocity": 0.33858267716535434,
                    "duration": 0.0844784999999888
                },
                {
                    "name": "E6",
                    "midi": 88,
                    "time": 201.98809350000016,
                    "velocity": 0.30708661417322836,
                    "duration": 0.0844784999999888
                },
                {
                    "name": "D6",
                    "midi": 86,
                    "time": 202.07257200000015,
                    "velocity": 0.33858267716535434,
                    "duration": 0.11263800000000401
                },
                {
                    "name": "E6",
                    "midi": 88,
                    "time": 202.18521000000015,
                    "velocity": 0.3543307086614173,
                    "duration": 0.11263800000000401
                },
                {
                    "name": "D6",
                    "midi": 86,
                    "time": 202.29784800000016,
                    "velocity": 0.4094488188976378,
                    "duration": 0.11263800000000401
                },
                {
                    "name": "C#6",
                    "midi": 85,
                    "time": 202.41048600000016,
                    "velocity": 0.4566929133858268,
                    "duration": 0.16895700000000602
                },
                {
                    "name": "D6",
                    "midi": 86,
                    "time": 202.57944300000017,
                    "velocity": 0.4251968503937008,
                    "duration": 0.16895700000000602
                },
                {
                    "name": "G5",
                    "midi": 79,
                    "time": 202.74840000000017,
                    "velocity": 0.5196850393700787,
                    "duration": 0.6758279999999957
                },
                {
                    "name": "G4",
                    "midi": 67,
                    "time": 202.74840000000017,
                    "velocity": 0.4409448818897638,
                    "duration": 0.6758279999999957
                },
                {
                    "name": "F#5",
                    "midi": 78,
                    "time": 203.42422800000017,
                    "velocity": 0.47244094488188976,
                    "duration": 0.6758279999999957
                },
                {
                    "name": "F#4",
                    "midi": 66,
                    "time": 203.42422800000017,
                    "velocity": 0.3937007874015748,
                    "duration": 0.6758279999999957
                },
                {
                    "name": "E4",
                    "midi": 64,
                    "time": 204.10005600000017,
                    "velocity": 0.41732283464566927,
                    "duration": 0.6758279999999957
                },
                {
                    "name": "E5",
                    "midi": 76,
                    "time": 204.10005600000017,
                    "velocity": 0.4881889763779528,
                    "duration": 0.6758279999999957
                },
                {
                    "name": "B4",
                    "midi": 71,
                    "time": 205.11379800000017,
                    "velocity": 0.31496062992125984,
                    "duration": 0.33791400000001204
                },
                {
                    "name": "E4",
                    "midi": 64,
                    "time": 205.45171200000019,
                    "velocity": 0.2992125984251969,
                    "duration": 0.6758279999999957
                },
                {
                    "name": "E5",
                    "midi": 76,
                    "time": 205.45171200000019,
                    "velocity": 0.3543307086614173,
                    "duration": 0.6758279999999957
                },
                {
                    "name": "D4",
                    "midi": 62,
                    "time": 206.12754000000018,
                    "velocity": 0.2677165354330709,
                    "duration": 0.6758279999999957
                },
                {
                    "name": "D5",
                    "midi": 74,
                    "time": 206.12754000000018,
                    "velocity": 0.31496062992125984,
                    "duration": 0.6758279999999957
                },
                {
                    "name": "C4",
                    "midi": 60,
                    "time": 206.80336800000018,
                    "velocity": 0.29133858267716534,
                    "duration": 0.6758279999999957
                },
                {
                    "name": "C5",
                    "midi": 72,
                    "time": 206.80336800000018,
                    "velocity": 0.3464566929133858,
                    "duration": 0.6758279999999957
                },
                {
                    "name": "G4",
                    "midi": 67,
                    "time": 207.81711000000018,
                    "velocity": 0.47244094488188976,
                    "duration": 0.33791400000001204
                },
                {
                    "name": "C5",
                    "midi": 72,
                    "time": 208.1550240000002,
                    "velocity": 0.5196850393700787,
                    "duration": 0.6758279999999957
                },
                {
                    "name": "C4",
                    "midi": 60,
                    "time": 208.1550240000002,
                    "velocity": 0.4409448818897638,
                    "duration": 0.6758279999999957
                },
                {
                    "name": "B3",
                    "midi": 59,
                    "time": 208.8308520000002,
                    "velocity": 0.3937007874015748,
                    "duration": 0.6758279999999957
                },
                {
                    "name": "B4",
                    "midi": 71,
                    "time": 208.8308520000002,
                    "velocity": 0.47244094488188976,
                    "duration": 0.6758279999999957
                },
                {
                    "name": "A4",
                    "midi": 69,
                    "time": 209.5066800000002,
                    "velocity": 0.4881889763779528,
                    "duration": 0.33791400000001204
                },
                {
                    "name": "E5",
                    "midi": 76,
                    "time": 209.8445940000002,
                    "velocity": 0.4409448818897638,
                    "duration": 0.33791400000001204
                },
                {
                    "name": "D5",
                    "midi": 74,
                    "time": 210.1825080000002,
                    "velocity": 0.3937007874015748,
                    "duration": 0.16895700000000602
                },
                {
                    "name": "C5",
                    "midi": 72,
                    "time": 210.35146500000022,
                    "velocity": 0.36220472440944884,
                    "duration": 0.16895700000000602
                },
                {
                    "name": "B4",
                    "midi": 71,
                    "time": 210.52042200000022,
                    "velocity": 0.3937007874015748,
                    "duration": 0.16895700000000602
                },
                {
                    "name": "A4",
                    "midi": 69,
                    "time": 210.68937900000023,
                    "velocity": 0.36220472440944884,
                    "duration": 0.16895700000000602
                },
                {
                    "name": "G4",
                    "midi": 67,
                    "time": 210.85833600000024,
                    "velocity": 0.3937007874015748,
                    "duration": 0.6758279999999957
                },
                {
                    "name": "A4",
                    "midi": 69,
                    "time": 211.53416400000023,
                    "velocity": 0.3543307086614173,
                    "duration": 0.6758279999999957
                },
                {
                    "name": "A#4",
                    "midi": 70,
                    "time": 212.20999200000023,
                    "velocity": 0.41732283464566927,
                    "duration": 0.6758279999999957
                },
                {
                    "name": "B4",
                    "midi": 71,
                    "time": 212.88582000000022,
                    "velocity": 0.3858267716535433,
                    "duration": 0.6758279999999957
                },
                {
                    "name": "G5",
                    "midi": 79,
                    "time": 213.56164800000022,
                    "velocity": 0.5196850393700787,
                    "duration": 0.6758279999999957
                },
                {
                    "name": "F#5",
                    "midi": 78,
                    "time": 214.2374760000002,
                    "velocity": 0.47244094488188976,
                    "duration": 0.0844784999999888
                },
                {
                    "name": "G5",
                    "midi": 79,
                    "time": 214.3219545000002,
                    "velocity": 0.4251968503937008,
                    "duration": 0.0844784999999888
                },
                {
                    "name": "F#5",
                    "midi": 78,
                    "time": 214.4064330000002,
                    "velocity": 0.47244094488188976,
                    "duration": 0.0844784999999888
                },
                {
                    "name": "G5",
                    "midi": 79,
                    "time": 214.49091150000018,
                    "velocity": 0.4330708661417323,
                    "duration": 0.0844784999999888
                },
                {
                    "name": "F#5",
                    "midi": 78,
                    "time": 214.57539000000017,
                    "velocity": 0.47244094488188976,
                    "duration": 0.0844784999999888
                },
                {
                    "name": "G5",
                    "midi": 79,
                    "time": 214.65986850000016,
                    "velocity": 0.4330708661417323,
                    "duration": 0.0844784999999888
                },
                {
                    "name": "F#5",
                    "midi": 78,
                    "time": 214.74434700000015,
                    "velocity": 0.47244094488188976,
                    "duration": 0.0844784999999888
                },
                {
                    "name": "G5",
                    "midi": 79,
                    "time": 214.82882550000014,
                    "velocity": 0.4330708661417323,
                    "duration": 0.0844784999999888
                },
                {
                    "name": "E5",
                    "midi": 76,
                    "time": 214.91330400000012,
                    "velocity": 0.4881889763779528,
                    "duration": 0.6758279999999957
                },
                {
                    "name": "B5",
                    "midi": 83,
                    "time": 215.92704600000013,
                    "velocity": 0.31496062992125984,
                    "duration": 0.33791400000001204
                },
                {
                    "name": "E6",
                    "midi": 88,
                    "time": 216.26496000000014,
                    "velocity": 0.3543307086614173,
                    "duration": 0.6758279999999957
                },
                {
                    "name": "D6",
                    "midi": 86,
                    "time": 216.94078800000014,
                    "velocity": 0.3779527559055118,
                    "duration": 0.0844784999999888
                },
                {
                    "name": "E6",
                    "midi": 88,
                    "time": 217.02526650000013,
                    "velocity": 0.33070866141732286,
                    "duration": 0.0844784999999888
                },
                {
                    "name": "D6",
                    "midi": 86,
                    "time": 217.10974500000012,
                    "velocity": 0.3937007874015748,
                    "duration": 0.0844784999999888
                },
                {
                    "name": "E6",
                    "midi": 88,
                    "time": 217.1942235000001,
                    "velocity": 0.3464566929133858,
                    "duration": 0.0844784999999888
                },
                {
                    "name": "D6",
                    "midi": 86,
                    "time": 217.2787020000001,
                    "velocity": 0.3858267716535433,
                    "duration": 0.0844784999999888
                },
                {
                    "name": "E6",
                    "midi": 88,
                    "time": 217.36318050000008,
                    "velocity": 0.33070866141732286,
                    "duration": 0.0844784999999888
                },
                {
                    "name": "D6",
                    "midi": 86,
                    "time": 217.44765900000007,
                    "velocity": 0.3937007874015748,
                    "duration": 0.0844784999999888
                },
                {
                    "name": "E6",
                    "midi": 88,
                    "time": 217.53213750000006,
                    "velocity": 0.3700787401574803,
                    "duration": 0.0844784999999888
                },
                {
                    "name": "C6",
                    "midi": 84,
                    "time": 217.61661600000005,
                    "velocity": 0.3464566929133858,
                    "duration": 0.6758279999999957
                },
                {
                    "name": "G5",
                    "midi": 79,
                    "time": 218.63035800000006,
                    "velocity": 0.47244094488188976,
                    "duration": 0.33791400000001204
                },
                {
                    "name": "C6",
                    "midi": 84,
                    "time": 218.96827200000007,
                    "velocity": 0.5196850393700787,
                    "duration": 0.6758279999999957
                },
                {
                    "name": "B5",
                    "midi": 83,
                    "time": 219.65254785000008,
                    "velocity": 0.44881889763779526,
                    "duration": 0.0844784999999888
                },
                {
                    "name": "C6",
                    "midi": 84,
                    "time": 219.73702635000006,
                    "velocity": 0.4251968503937008,
                    "duration": 0.0844784999999888
                },
                {
                    "name": "B5",
                    "midi": 83,
                    "time": 219.82150485000005,
                    "velocity": 0.4645669291338583,
                    "duration": 0.0844784999999888
                },
                {
                    "name": "C6",
                    "midi": 84,
                    "time": 219.90598335000004,
                    "velocity": 0.4251968503937008,
                    "duration": 0.0844784999999888
                },
                {
                    "name": "B5",
                    "midi": 83,
                    "time": 219.99046185000003,
                    "velocity": 0.44881889763779526,
                    "duration": 0.0844784999999888
                },
                {
                    "name": "C6",
                    "midi": 84,
                    "time": 220.07494035000002,
                    "velocity": 0.4094488188976378,
                    "duration": 0.0844784999999888
                },
                {
                    "name": "B5",
                    "midi": 83,
                    "time": 220.15941885,
                    "velocity": 0.4409448818897638,
                    "duration": 0.0844784999999888
                },
                {
                    "name": "C6",
                    "midi": 84,
                    "time": 220.24389735,
                    "velocity": 0.4094488188976378,
                    "duration": 0.08447850000001722
                },
                {
                    "name": "A5",
                    "midi": 81,
                    "time": 220.319928,
                    "velocity": 0.4881889763779528,
                    "duration": 0.33791400000001204
                },
                {
                    "name": "E6",
                    "midi": 88,
                    "time": 220.65784200000002,
                    "velocity": 0.4566929133858268,
                    "duration": 0.33791400000001204
                },
                {
                    "name": "D6",
                    "midi": 86,
                    "time": 220.99575600000003,
                    "velocity": 0.4330708661417323,
                    "duration": 0.16895700000000602
                },
                {
                    "name": "C6",
                    "midi": 84,
                    "time": 221.16471300000003,
                    "velocity": 0.3700787401574803,
                    "duration": 0.16895700000000602
                },
                {
                    "name": "B5",
                    "midi": 83,
                    "time": 221.33367000000004,
                    "velocity": 0.3937007874015748,
                    "duration": 0.16895700000000602
                },
                {
                    "name": "A5",
                    "midi": 81,
                    "time": 221.50262700000005,
                    "velocity": 0.36220472440944884,
                    "duration": 0.16895700000000602
                },
                {
                    "name": "G5",
                    "midi": 79,
                    "time": 221.67158400000005,
                    "velocity": 0.3700787401574803,
                    "duration": 0.16895700000000602
                },
                {
                    "name": "A5",
                    "midi": 81,
                    "time": 222.00949800000006,
                    "velocity": 0.3700787401574803,
                    "duration": 0.16895700000000602
                },
                {
                    "name": "A#5",
                    "midi": 82,
                    "time": 222.34741200000008,
                    "velocity": 0.3700787401574803,
                    "duration": 0.16895700000000602
                },
                {
                    "name": "B5",
                    "midi": 83,
                    "time": 222.6853260000001,
                    "velocity": 0.3700787401574803,
                    "duration": 0.16895700000000602
                },
                {
                    "name": "C6",
                    "midi": 84,
                    "time": 223.0232400000001,
                    "velocity": 0.3858267716535433,
                    "duration": 0.16895700000000602
                },
                {
                    "name": "C#6",
                    "midi": 85,
                    "time": 223.3611540000001,
                    "velocity": 0.4094488188976378,
                    "duration": 0.16895700000000602
                },
                {
                    "name": "D6",
                    "midi": 86,
                    "time": 223.69906800000012,
                    "velocity": 0.4330708661417323,
                    "duration": 0.16895700000000602
                },
                {
                    "name": "D#6",
                    "midi": 87,
                    "time": 224.03698200000014,
                    "velocity": 0.4566929133858268,
                    "duration": 0.5068709999999896
                },
                {
                    "name": "E6",
                    "midi": 88,
                    "time": 224.54385300000013,
                    "velocity": 0.44881889763779526,
                    "duration": 0.16895700000000602
                },
                {
                    "name": "D#6",
                    "midi": 87,
                    "time": 224.71281000000013,
                    "velocity": 0.5118110236220472,
                    "duration": 0.16895700000000602
                },
                {
                    "name": "E6",
                    "midi": 88,
                    "time": 224.88176700000014,
                    "velocity": 0.44881889763779526,
                    "duration": 0.16895700000000602
                },
                {
                    "name": "D6",
                    "midi": 86,
                    "time": 225.05072400000014,
                    "velocity": 0.5039370078740157,
                    "duration": 0.16895700000000602
                },
                {
                    "name": "C6",
                    "midi": 84,
                    "time": 225.21968100000015,
                    "velocity": 0.48031496062992124,
                    "duration": 0.16895700000000602
                },
                {
                    "name": "B5",
                    "midi": 83,
                    "time": 225.38863800000016,
                    "velocity": 0.4645669291338583,
                    "duration": 0.16895700000000602
                },
                {
                    "name": "A5",
                    "midi": 81,
                    "time": 225.55759500000016,
                    "velocity": 0.44881889763779526,
                    "duration": 0.16895700000000602
                },
                {
                    "name": "A5",
                    "midi": 81,
                    "time": 225.72655200000017,
                    "velocity": 0.3937007874015748,
                    "duration": 0.0844784999999888
                },
                {
                    "name": "B5",
                    "midi": 83,
                    "time": 225.81103050000016,
                    "velocity": 0.3543307086614173,
                    "duration": 0.0844784999999888
                },
                {
                    "name": "A5",
                    "midi": 81,
                    "time": 225.89550900000015,
                    "velocity": 0.3937007874015748,
                    "duration": 0.0844784999999888
                },
                {
                    "name": "B5",
                    "midi": 83,
                    "time": 225.97998750000014,
                    "velocity": 0.3464566929133858,
                    "duration": 0.0844784999999888
                },
                {
                    "name": "A5",
                    "midi": 81,
                    "time": 226.06446600000012,
                    "velocity": 0.3937007874015748,
                    "duration": 0.0844784999999888
                },
                {
                    "name": "B5",
                    "midi": 83,
                    "time": 226.1489445000001,
                    "velocity": 0.3543307086614173,
                    "duration": 0.0844784999999888
                },
                {
                    "name": "A5",
                    "midi": 81,
                    "time": 226.2334230000001,
                    "velocity": 0.3937007874015748,
                    "duration": 0.0844784999999888
                },
                {
                    "name": "B5",
                    "midi": 83,
                    "time": 226.3179015000001,
                    "velocity": 0.3543307086614173,
                    "duration": 0.0844784999999888
                },
                {
                    "name": "A5",
                    "midi": 81,
                    "time": 226.40238000000008,
                    "velocity": 0.3937007874015748,
                    "duration": 0.11263800000000401
                },
                {
                    "name": "B5",
                    "midi": 83,
                    "time": 226.51501800000008,
                    "velocity": 0.3543307086614173,
                    "duration": 0.11263800000000401
                },
                {
                    "name": "A5",
                    "midi": 81,
                    "time": 226.6276560000001,
                    "velocity": 0.4330708661417323,
                    "duration": 0.11263800000000401
                },
                {
                    "name": "G5",
                    "midi": 79,
                    "time": 226.7402940000001,
                    "velocity": 0.4881889763779528,
                    "duration": 0.16895700000000602
                },
                {
                    "name": "A5",
                    "midi": 81,
                    "time": 226.9092510000001,
                    "velocity": 0.4645669291338583,
                    "duration": 0.16895700000000602
                },
                {
                    "name": "G5",
                    "midi": 79,
                    "time": 227.0782080000001,
                    "velocity": 0.5118110236220472,
                    "duration": 0.11263800000000401
                },
                {
                    "name": "G5",
                    "midi": 79,
                    "time": 227.2471650000001,
                    "velocity": 0.48031496062992124,
                    "duration": 0.16895700000000602
                },
                {
                    "name": "F#5",
                    "midi": 78,
                    "time": 227.41612200000012,
                    "velocity": 0.4566929133858268,
                    "duration": 0.16895700000000602
                },
                {
                    "name": "G5",
                    "midi": 79,
                    "time": 227.58507900000012,
                    "velocity": 0.41732283464566927,
                    "duration": 0.16895700000000602
                },
                {
                    "name": "A5",
                    "midi": 81,
                    "time": 227.75403600000013,
                    "velocity": 0.4645669291338583,
                    "duration": 0.16895700000000602
                },
                {
                    "name": "G5",
                    "midi": 79,
                    "time": 227.92299300000013,
                    "velocity": 0.4645669291338583,
                    "duration": 0.16895700000000602
                },
                {
                    "name": "F#5",
                    "midi": 78,
                    "time": 228.09195000000014,
                    "velocity": 0.4409448818897638,
                    "duration": 0.16895700000000602
                },
                {
                    "name": "E5",
                    "midi": 76,
                    "time": 228.26090700000015,
                    "velocity": 0.4251968503937008,
                    "duration": 0.16895700000000602
                },
                {
                    "name": "D5",
                    "midi": 74,
                    "time": 228.42986400000015,
                    "velocity": 0.44881889763779526,
                    "duration": 0.11263800000000401
                },
                {
                    "name": "E5",
                    "midi": 76,
                    "time": 228.59882100000016,
                    "velocity": 0.41732283464566927,
                    "duration": 0.16895700000000602
                },
                {
                    "name": "D#5",
                    "midi": 75,
                    "time": 228.76777800000016,
                    "velocity": 0.4015748031496063,
                    "duration": 0.16895700000000602
                },
                {
                    "name": "E5",
                    "midi": 76,
                    "time": 228.93673500000017,
                    "velocity": 0.3779527559055118,
                    "duration": 0.16895700000000602
                },
                {
                    "name": "F#5",
                    "midi": 78,
                    "time": 229.10569200000018,
                    "velocity": 0.41732283464566927,
                    "duration": 0.16895700000000602
                },
                {
                    "name": "E5",
                    "midi": 76,
                    "time": 229.27464900000018,
                    "velocity": 0.3779527559055118,
                    "duration": 0.16895700000000602
                },
                {
                    "name": "D5",
                    "midi": 74,
                    "time": 229.4436060000002,
                    "velocity": 0.3858267716535433,
                    "duration": 0.16895700000000602
                },
                {
                    "name": "C5",
                    "midi": 72,
                    "time": 229.6125630000002,
                    "velocity": 0.3543307086614173,
                    "duration": 0.16895700000000602
                },
                {
                    "name": "B4",
                    "midi": 71,
                    "time": 229.7815200000002,
                    "velocity": 0.3779527559055118,
                    "duration": 0.33791400000001204
                },
                {
                    "name": "C5",
                    "midi": 72,
                    "time": 230.1194340000002,
                    "velocity": 0.3464566929133858,
                    "duration": 0.06758279999999672
                },
                {
                    "name": "B4",
                    "midi": 71,
                    "time": 230.1870168000002,
                    "velocity": 0.31496062992125984,
                    "duration": 0.06758279999999672
                },
                {
                    "name": "A4",
                    "midi": 69,
                    "time": 230.2545996000002,
                    "velocity": 0.3464566929133858,
                    "duration": 0.06758279999999672
                },
                {
                    "name": "B4",
                    "midi": 71,
                    "time": 230.3221824000002,
                    "velocity": 0.31496062992125984,
                    "duration": 0.06758279999999672
                },
                {
                    "name": "D5",
                    "midi": 74,
                    "time": 230.3897652000002,
                    "velocity": 0.3464566929133858,
                    "duration": 0.06758279999999672
                },
                {
                    "name": "C5",
                    "midi": 72,
                    "time": 230.4573480000002,
                    "velocity": 0.3779527559055118,
                    "duration": 0.5068709999999896
                },
                {
                    "name": "B4",
                    "midi": 71,
                    "time": 230.96421900000018,
                    "velocity": 0.3700787401574803,
                    "duration": 0.5068709999999896
                },
                {
                    "name": "A4",
                    "midi": 69,
                    "time": 231.47109000000017,
                    "velocity": 0.3937007874015748,
                    "duration": 0.6758279999999957
                },
                {
                    "name": "B4",
                    "midi": 71,
                    "time": 232.14691800000017,
                    "velocity": 0.36220472440944884,
                    "duration": 0.6758279999999957
                },
                {
                    "name": "C5",
                    "midi": 72,
                    "time": 232.82274600000017,
                    "velocity": 0.3937007874015748,
                    "duration": 0.5068709999999896
                },
                {
                    "name": "E5",
                    "midi": 76,
                    "time": 233.32961700000016,
                    "velocity": 0.3543307086614173,
                    "duration": 0.16895700000000602
                },
                {
                    "name": "D5",
                    "midi": 74,
                    "time": 233.49857400000016,
                    "velocity": 0.3779527559055118,
                    "duration": 0.33791400000001204
                },
                {
                    "name": "C5",
                    "midi": 72,
                    "time": 233.83648800000017,
                    "velocity": 0.3700787401574803,
                    "duration": 0.6758279999999957
                },
                {
                    "name": "B4",
                    "midi": 71,
                    "time": 234.51231600000017,
                    "velocity": 0.4015748031496063,
                    "duration": 0.6758279999999957
                },
                {
                    "name": "G4",
                    "midi": 67,
                    "time": 235.18814400000016,
                    "velocity": 0.5118110236220472,
                    "duration": 0.33791400000001204
                },
                {
                    "name": "C5",
                    "midi": 72,
                    "time": 235.18814400000016,
                    "velocity": 0.5118110236220472,
                    "duration": 0.33791400000001204
                },
                {
                    "name": "B4",
                    "midi": 71,
                    "time": 235.8639720000002,
                    "velocity": 0.48031496062992124,
                    "duration": 0.33791400000001204
                },
                {
                    "name": "G4",
                    "midi": 67,
                    "time": 235.8639720000002,
                    "velocity": 0.48031496062992124,
                    "duration": 0.33791400000001204
                },
                {
                    "name": "E5",
                    "midi": 76,
                    "time": 236.5398000000002,
                    "velocity": 0.5275590551181102,
                    "duration": 0.33791400000001204
                },
                {
                    "name": "G4",
                    "midi": 67,
                    "time": 236.5398000000002,
                    "velocity": 0.5275590551181102,
                    "duration": 0.33791400000001204
                },
                {
                    "name": "D5",
                    "midi": 74,
                    "time": 237.55354200000022,
                    "velocity": 0.3700787401574803,
                    "duration": 0.33791400000001204
                },
                {
                    "name": "D5",
                    "midi": 74,
                    "time": 237.89145600000023,
                    "velocity": 0.3937007874015748,
                    "duration": 0.16895700000000602
                },
                {
                    "name": "C5",
                    "midi": 72,
                    "time": 238.06041300000024,
                    "velocity": 0.3464566929133858,
                    "duration": 0.16895700000000602
                },
                {
                    "name": "B4",
                    "midi": 71,
                    "time": 238.22937000000024,
                    "velocity": 0.3464566929133858,
                    "duration": 0.16895700000000602
                },
                {
                    "name": "A4",
                    "midi": 69,
                    "time": 238.39832700000025,
                    "velocity": 0.3464566929133858,
                    "duration": 0.16895700000000602
                },
                {
                    "name": "C5",
                    "midi": 72,
                    "time": 238.56728400000026,
                    "velocity": 0.3937007874015748,
                    "duration": 0.16895700000000602
                },
                {
                    "name": "B4",
                    "midi": 71,
                    "time": 238.73624100000026,
                    "velocity": 0.3543307086614173,
                    "duration": 0.16895700000000602
                },
                {
                    "name": "A4",
                    "midi": 69,
                    "time": 238.90519800000027,
                    "velocity": 0.3543307086614173,
                    "duration": 0.16895700000000602
                },
                {
                    "name": "G4",
                    "midi": 67,
                    "time": 239.07415500000027,
                    "velocity": 0.3543307086614173,
                    "duration": 0.16895700000000602
                },
                {
                    "name": "G4",
                    "midi": 67,
                    "time": 239.24311200000028,
                    "velocity": 0.3937007874015748,
                    "duration": 0.6758279999999957
                },
                {
                    "name": "B4",
                    "midi": 71,
                    "time": 239.24311200000028,
                    "velocity": 0.3937007874015748,
                    "duration": 0.6758279999999957
                },
                {
                    "name": "F#4",
                    "midi": 66,
                    "time": 239.91894000000028,
                    "velocity": 0.3464566929133858,
                    "duration": 0.6758279999999957
                },
                {
                    "name": "A4",
                    "midi": 69,
                    "time": 239.91894000000028,
                    "velocity": 0.3464566929133858,
                    "duration": 0.6758279999999957
                },
                {
                    "name": "A#4",
                    "midi": 70,
                    "time": 240.59476800000027,
                    "velocity": 0.3937007874015748,
                    "duration": 0.33791400000001204
                },
                {
                    "name": "B4",
                    "midi": 71,
                    "time": 240.93268200000028,
                    "velocity": 0.3937007874015748,
                    "duration": 0.2534354999999948
                },
                {
                    "name": "D5",
                    "midi": 74,
                    "time": 241.18611750000028,
                    "velocity": 0.4015748031496063,
                    "duration": 0.0844784999999888
                },
                {
                    "name": "C5",
                    "midi": 72,
                    "time": 241.27059600000027,
                    "velocity": 0.4015748031496063,
                    "duration": 0.33791400000001204
                },
                {
                    "name": "B4",
                    "midi": 71,
                    "time": 241.60851000000028,
                    "velocity": 0.3464566929133858,
                    "duration": 0.33791400000001204
                },
                {
                    "name": "G#4",
                    "midi": 68,
                    "time": 241.9464240000003,
                    "velocity": 0.4015748031496063,
                    "duration": 0.33791400000001204
                },
                {
                    "name": "A4",
                    "midi": 69,
                    "time": 242.2843380000003,
                    "velocity": 0.3700787401574803,
                    "duration": 0.33791400000001204
                },
                {
                    "name": "C5",
                    "midi": 72,
                    "time": 242.96016600000033,
                    "velocity": 0.3858267716535433,
                    "duration": 0.16895700000000602
                },
                {
                    "name": "B4",
                    "midi": 71,
                    "time": 243.12912300000033,
                    "velocity": 0.36220472440944884,
                    "duration": 0.16895700000000602
                },
                {
                    "name": "D5",
                    "midi": 74,
                    "time": 243.63599400000035,
                    "velocity": 0.3937007874015748,
                    "duration": 0.16895700000000602
                },
                {
                    "name": "C5",
                    "midi": 72,
                    "time": 243.80495100000036,
                    "velocity": 0.3543307086614173,
                    "duration": 0.16895700000000602
                },
                {
                    "name": "E5",
                    "midi": 76,
                    "time": 244.31182200000038,
                    "velocity": 0.36220472440944884,
                    "duration": 0.16895700000000602
                },
                {
                    "name": "D5",
                    "midi": 74,
                    "time": 244.48077900000038,
                    "velocity": 0.3858267716535433,
                    "duration": 0.16895700000000602
                },
                {
                    "name": "C5",
                    "midi": 72,
                    "time": 244.6497360000004,
                    "velocity": 0.41732283464566927,
                    "duration": 0.5068709999999896
                },
                {
                    "name": "D5",
                    "midi": 74,
                    "time": 245.15660700000038,
                    "velocity": 0.3700787401574803,
                    "duration": 0.0844784999999888
                },
                {
                    "name": "C5",
                    "midi": 72,
                    "time": 245.24108550000037,
                    "velocity": 0.3700787401574803,
                    "duration": 0.0844784999999888
                },
                {
                    "name": "B4",
                    "midi": 71,
                    "time": 245.32556400000036,
                    "velocity": 0.4409448818897638,
                    "duration": 0.6758279999999957
                },
                {
                    "name": "C5",
                    "midi": 72,
                    "time": 246.00139200000035,
                    "velocity": 0.5118110236220472,
                    "duration": 0.33791400000001204
                },
                {
                    "name": "G4",
                    "midi": 67,
                    "time": 246.00139200000035,
                    "velocity": 0.5118110236220472,
                    "duration": 0.33791400000001204
                },
                {
                    "name": "G4",
                    "midi": 67,
                    "time": 246.67722000000037,
                    "velocity": 0.48031496062992124,
                    "duration": 0.33791400000001204
                },
                {
                    "name": "B4",
                    "midi": 71,
                    "time": 246.67722000000037,
                    "velocity": 0.48031496062992124,
                    "duration": 0.33791400000001204
                },
                {
                    "name": "E5",
                    "midi": 76,
                    "time": 247.3530480000004,
                    "velocity": 0.5275590551181102,
                    "duration": 0.16895700000000602
                },
                {
                    "name": "F#5",
                    "midi": 78,
                    "time": 247.5220050000004,
                    "velocity": 0.4251968503937008,
                    "duration": 0.056319000000002006
                },
                {
                    "name": "E5",
                    "midi": 76,
                    "time": 247.5783240000004,
                    "velocity": 0.4251968503937008,
                    "duration": 0.056319000000002006
                },
                {
                    "name": "D5",
                    "midi": 74,
                    "time": 247.6346430000004,
                    "velocity": 0.4251968503937008,
                    "duration": 0.056319000000002006
                },
                {
                    "name": "E5",
                    "midi": 76,
                    "time": 247.6909620000004,
                    "velocity": 0.49606299212598426,
                    "duration": 0.16895700000000602
                },
                {
                    "name": "F#5",
                    "midi": 78,
                    "time": 247.85991900000042,
                    "velocity": 0.47244094488188976,
                    "duration": 0.16895700000000602
                },
                {
                    "name": "G5",
                    "midi": 79,
                    "time": 248.02887600000042,
                    "velocity": 0.5118110236220472,
                    "duration": 0.33791400000001204
                },
                {
                    "name": "C5",
                    "midi": 72,
                    "time": 248.36679000000044,
                    "velocity": 0.3700787401574803,
                    "duration": 0.33791400000001204
                },
                {
                    "name": "B4",
                    "midi": 71,
                    "time": 248.70470400000045,
                    "velocity": 0.3937007874015748,
                    "duration": 0.6758279999999957
                },
                {
                    "name": "A4",
                    "midi": 69,
                    "time": 249.38053200000044,
                    "velocity": 0.3700787401574803,
                    "duration": 0.07603065000000697
                },
                {
                    "name": "B4",
                    "midi": 71,
                    "time": 249.45656265000045,
                    "velocity": 0.3700787401574803,
                    "duration": 0.07321469999999408
                },
                {
                    "name": "A4",
                    "midi": 69,
                    "time": 249.52977735000044,
                    "velocity": 0.3700787401574803,
                    "duration": 0.07603065000000697
                },
                {
                    "name": "B4",
                    "midi": 71,
                    "time": 249.60299205000044,
                    "velocity": 0.3700787401574803,
                    "duration": 0.07603065000000697
                },
                {
                    "name": "A4",
                    "midi": 69,
                    "time": 249.67902270000044,
                    "velocity": 0.3543307086614173,
                    "duration": 0.07321469999999408
                },
                {
                    "name": "B4",
                    "midi": 71,
                    "time": 249.75223740000044,
                    "velocity": 0.3543307086614173,
                    "duration": 0.07603065000000697
                },
                {
                    "name": "A4",
                    "midi": 69,
                    "time": 249.82826805000045,
                    "velocity": 0.3543307086614173,
                    "duration": 0.07321469999999408
                },
                {
                    "name": "G4",
                    "midi": 67,
                    "time": 249.90148275000044,
                    "velocity": 0.3543307086614173,
                    "duration": 0.07603065000000697
                },
                {
                    "name": "A4",
                    "midi": 69,
                    "time": 249.97469745000043,
                    "velocity": 0.3543307086614173,
                    "duration": 0.08166255000000433
                },
                {
                    "name": "G4",
                    "midi": 67,
                    "time": 250.05636000000044,
                    "velocity": 0.3543307086614173,
                    "duration": 1.3516559999999913
                },
                {
                    "name": "B4",
                    "midi": 71,
                    "time": 251.40801600000043,
                    "velocity": 0.3543307086614173,
                    "duration": 0.6758279999999957
                },
                {
                    "name": "A4",
                    "midi": 69,
                    "time": 252.08384400000043,
                    "velocity": 0.3543307086614173,
                    "duration": 0.6758279999999957
                },
                {
                    "name": "G4",
                    "midi": 67,
                    "time": 252.75967200000042,
                    "velocity": 0.3543307086614173,
                    "duration": 0.33791400000001204
                },
                {
                    "name": "F#4",
                    "midi": 66,
                    "time": 253.09758600000043,
                    "velocity": 0.3228346456692913,
                    "duration": 0.3294661500000018
                },
                {
                    "name": "F#4",
                    "midi": 66,
                    "time": 253.43550000000045,
                    "velocity": 0.3543307086614173,
                    "duration": 0.33791400000001204
                },
                {
                    "name": "D4",
                    "midi": 62,
                    "time": 253.77341400000046,
                    "velocity": 0.3228346456692913,
                    "duration": 0.33791400000001204
                },
                {
                    "name": "B4",
                    "midi": 71,
                    "time": 254.11132800000047,
                    "velocity": 0.4015748031496063,
                    "duration": 1.3516559999999913
                },
                {
                    "name": "G4",
                    "midi": 67,
                    "time": 255.46298400000046,
                    "velocity": 0.3543307086614173,
                    "duration": 1.0137419999999793
                },
                {
                    "name": "A4",
                    "midi": 69,
                    "time": 256.47672600000044,
                    "velocity": 0.31496062992125984,
                    "duration": 0.0844784999999888
                },
                {
                    "name": "G4",
                    "midi": 67,
                    "time": 256.56120450000043,
                    "velocity": 0.2755905511811024,
                    "duration": 0.0844784999999888
                },
                {
                    "name": "F#4",
                    "midi": 66,
                    "time": 256.6456830000004,
                    "velocity": 0.31496062992125984,
                    "duration": 0.0844784999999888
                },
                {
                    "name": "G4",
                    "midi": 67,
                    "time": 256.7301615000004,
                    "velocity": 0.28346456692913385,
                    "duration": 0.0844784999999888
                },
                {
                    "name": "B4",
                    "midi": 71,
                    "time": 256.8146400000004,
                    "velocity": 0.3543307086614173,
                    "duration": 0.33791400000001204
                },
                {
                    "name": "A4",
                    "midi": 69,
                    "time": 257.1525540000004,
                    "velocity": 0.3543307086614173,
                    "duration": 0.32946614999997337
                },
                {
                    "name": "A4",
                    "midi": 69,
                    "time": 257.49046800000036,
                    "velocity": 0.3543307086614173,
                    "duration": 0.6758280000000241
                },
                {
                    "name": "G4",
                    "midi": 67,
                    "time": 258.1662960000004,
                    "velocity": 0.3543307086614173,
                    "duration": 0.33791400000001204
                },
                {
                    "name": "F#4",
                    "midi": 66,
                    "time": 258.5042100000004,
                    "velocity": 0.3228346456692913,
                    "duration": 0.33228209999998626
                },
                {
                    "name": "F#4",
                    "midi": 66,
                    "time": 258.8421240000004,
                    "velocity": 0.3543307086614173,
                    "duration": 0.33791400000001204
                },
                {
                    "name": "D4",
                    "midi": 62,
                    "time": 259.1800380000004,
                    "velocity": 0.33858267716535434,
                    "duration": 0.33791400000001204
                },
                {
                    "name": "G4",
                    "midi": 67,
                    "time": 259.51795200000043,
                    "velocity": 0.4251968503937008,
                    "duration": 1.3516559999999913
                },
                {
                    "name": "G4",
                    "midi": 67,
                    "time": 260.8696080000004,
                    "velocity": 0.3700787401574803,
                    "duration": 1.3516559999999913
                },
                {
                    "name": "G5",
                    "midi": 79,
                    "time": 260.8696080000004,
                    "velocity": 0.4409448818897638,
                    "duration": 1.3516559999999913
                },
                {
                    "name": "B4",
                    "midi": 71,
                    "time": 262.2212640000004,
                    "velocity": 0.3543307086614173,
                    "duration": 0.33791400000001204
                },
                {
                    "name": "B5",
                    "midi": 83,
                    "time": 262.2212640000004,
                    "velocity": 0.4251968503937008,
                    "duration": 0.33791400000001204
                },
                {
                    "name": "A4",
                    "midi": 69,
                    "time": 262.55917800000043,
                    "velocity": 0.3228346456692913,
                    "duration": 1.0137419999999793
                },
                {
                    "name": "A5",
                    "midi": 81,
                    "time": 262.55917800000043,
                    "velocity": 0.3858267716535433,
                    "duration": 1.0137419999999793
                },
                {
                    "name": "G4",
                    "midi": 67,
                    "time": 263.5729200000004,
                    "velocity": 0.3779527559055118,
                    "duration": 0.33791400000001204
                },
                {
                    "name": "G5",
                    "midi": 79,
                    "time": 263.5729200000004,
                    "velocity": 0.44881889763779526,
                    "duration": 0.33791400000001204
                },
                {
                    "name": "F#4",
                    "midi": 66,
                    "time": 263.9108340000004,
                    "velocity": 0.3543307086614173,
                    "duration": 0.32101829999999154
                },
                {
                    "name": "F#5",
                    "midi": 78,
                    "time": 263.9108340000004,
                    "velocity": 0.4251968503937008,
                    "duration": 0.32101829999999154
                },
                {
                    "name": "F#4",
                    "midi": 66,
                    "time": 264.24874800000043,
                    "velocity": 0.3779527559055118,
                    "duration": 0.33791400000001204
                },
                {
                    "name": "F#5",
                    "midi": 78,
                    "time": 264.24874800000043,
                    "velocity": 0.44881889763779526,
                    "duration": 0.33791400000001204
                },
                {
                    "name": "D5",
                    "midi": 74,
                    "time": 264.58666200000044,
                    "velocity": 0.4566929133858268,
                    "duration": 0.33791400000001204
                },
                {
                    "name": "D4",
                    "midi": 62,
                    "time": 264.58666200000044,
                    "velocity": 0.3858267716535433,
                    "duration": 0.33791400000001204
                },
                {
                    "name": "D6",
                    "midi": 86,
                    "time": 264.92457600000046,
                    "velocity": 0.5354330708661418,
                    "duration": 1.3516559999999913
                },
                {
                    "name": "D5",
                    "midi": 74,
                    "time": 264.92457600000046,
                    "velocity": 0.44881889763779526,
                    "duration": 1.3516559999999913
                },
                {
                    "name": "G4",
                    "midi": 67,
                    "time": 266.27623200000045,
                    "velocity": 0.3937007874015748,
                    "duration": 0.6420365999999831
                },
                {
                    "name": "G5",
                    "midi": 79,
                    "time": 266.27623200000045,
                    "velocity": 0.4645669291338583,
                    "duration": 0.6420365999999831
                },
                {
                    "name": "G4",
                    "midi": 67,
                    "time": 266.9520600000004,
                    "velocity": 0.3937007874015748,
                    "duration": 0.6758280000000241
                },
                {
                    "name": "G5",
                    "midi": 79,
                    "time": 266.9520600000004,
                    "velocity": 0.4645669291338583,
                    "duration": 0.6758280000000241
                },
                {
                    "name": "B4",
                    "midi": 71,
                    "time": 267.62788800000044,
                    "velocity": 0.41732283464566927,
                    "duration": 0.33791400000001204
                },
                {
                    "name": "B5",
                    "midi": 83,
                    "time": 267.62788800000044,
                    "velocity": 0.49606299212598426,
                    "duration": 0.33791400000001204
                },
                {
                    "name": "A4",
                    "midi": 69,
                    "time": 267.96580200000045,
                    "velocity": 0.3464566929133858,
                    "duration": 0.32101829999999154
                },
                {
                    "name": "A5",
                    "midi": 81,
                    "time": 267.96580200000045,
                    "velocity": 0.4094488188976378,
                    "duration": 0.32101829999999154
                },
                {
                    "name": "A4",
                    "midi": 69,
                    "time": 268.30371600000046,
                    "velocity": 0.3464566929133858,
                    "duration": 0.1689569999999776
                },
                {
                    "name": "A5",
                    "midi": 81,
                    "time": 268.30371600000046,
                    "velocity": 0.4094488188976378,
                    "duration": 0.1689569999999776
                },
                {
                    "name": "A4",
                    "midi": 69,
                    "time": 268.6416300000004,
                    "velocity": 0.3464566929133858,
                    "duration": 0.1689569999999776
                },
                {
                    "name": "A5",
                    "midi": 81,
                    "time": 268.6416300000004,
                    "velocity": 0.4094488188976378,
                    "duration": 0.1689569999999776
                },
                {
                    "name": "G4",
                    "midi": 67,
                    "time": 268.9795440000004,
                    "velocity": 0.3779527559055118,
                    "duration": 0.33791400000001204
                },
                {
                    "name": "G5",
                    "midi": 79,
                    "time": 268.9795440000004,
                    "velocity": 0.44881889763779526,
                    "duration": 0.33791400000001204
                },
                {
                    "name": "F#4",
                    "midi": 66,
                    "time": 269.3174580000004,
                    "velocity": 0.3543307086614173,
                    "duration": 0.32101829999999154
                },
                {
                    "name": "F#5",
                    "midi": 78,
                    "time": 269.3174580000004,
                    "velocity": 0.4251968503937008,
                    "duration": 0.32101829999999154
                },
                {
                    "name": "F#4",
                    "midi": 66,
                    "time": 269.6553720000004,
                    "velocity": 0.3779527559055118,
                    "duration": 0.33791400000001204
                },
                {
                    "name": "F#5",
                    "midi": 78,
                    "time": 269.6553720000004,
                    "velocity": 0.44881889763779526,
                    "duration": 0.33791400000001204
                },
                {
                    "name": "D5",
                    "midi": 74,
                    "time": 269.9932860000004,
                    "velocity": 0.47244094488188976,
                    "duration": 0.33791400000001204
                },
                {
                    "name": "D4",
                    "midi": 62,
                    "time": 269.9932860000004,
                    "velocity": 0.4015748031496063,
                    "duration": 0.33791400000001204
                },
                {
                    "name": "G5",
                    "midi": 79,
                    "time": 270.3312000000004,
                    "velocity": 0.5354330708661418,
                    "duration": 1.3516559999999913
                },
                {
                    "name": "G4",
                    "midi": 67,
                    "time": 270.3312000000004,
                    "velocity": 0.44881889763779526,
                    "duration": 1.3516559999999913
                },
                {
                    "name": "B5",
                    "midi": 83,
                    "time": 271.6828560000004,
                    "velocity": 0.4251968503937008,
                    "duration": 0.33791400000001204
                },
                {
                    "name": "A5",
                    "midi": 81,
                    "time": 272.0207700000004,
                    "velocity": 0.3779527559055118,
                    "duration": 0.32946614999997337
                },
                {
                    "name": "A5",
                    "midi": 81,
                    "time": 272.3586840000004,
                    "velocity": 0.3779527559055118,
                    "duration": 0.33791400000001204
                },
                {
                    "name": "F#5",
                    "midi": 78,
                    "time": 272.6965980000004,
                    "velocity": 0.3779527559055118,
                    "duration": 0.33791400000001204
                },
                {
                    "name": "G5",
                    "midi": 79,
                    "time": 273.0345120000004,
                    "velocity": 0.3937007874015748,
                    "duration": 0.33791400000001204
                },
                {
                    "name": "B5",
                    "midi": 83,
                    "time": 273.3724260000004,
                    "velocity": 0.4094488188976378,
                    "duration": 0.33791400000001204
                },
                {
                    "name": "D6",
                    "midi": 86,
                    "time": 273.71034000000043,
                    "velocity": 0.4566929133858268,
                    "duration": 0.6758280000000241
                },
                {
                    "name": "B5",
                    "midi": 83,
                    "time": 274.38616800000045,
                    "velocity": 0.4251968503937008,
                    "duration": 0.33791400000001204
                },
                {
                    "name": "A5",
                    "midi": 81,
                    "time": 274.72408200000046,
                    "velocity": 0.3779527559055118,
                    "duration": 0.33228209999998626
                },
                {
                    "name": "A5",
                    "midi": 81,
                    "time": 275.0619960000005,
                    "velocity": 0.3779527559055118,
                    "duration": 0.33791400000001204
                },
                {
                    "name": "F#5",
                    "midi": 78,
                    "time": 275.3999100000005,
                    "velocity": 0.3779527559055118,
                    "duration": 0.33791400000001204
                },
                {
                    "name": "G4",
                    "midi": 67,
                    "time": 275.7378240000005,
                    "velocity": 0.2992125984251969,
                    "duration": 0.33791400000001204
                },
                {
                    "name": "G5",
                    "midi": 79,
                    "time": 275.7378240000005,
                    "velocity": 0.3543307086614173,
                    "duration": 0.33791400000001204
                },
                {
                    "name": "B4",
                    "midi": 71,
                    "time": 276.0757380000005,
                    "velocity": 0.30708661417322836,
                    "duration": 0.33791400000001204
                },
                {
                    "name": "B5",
                    "midi": 83,
                    "time": 276.0757380000005,
                    "velocity": 0.3700787401574803,
                    "duration": 0.33791400000001204
                },
                {
                    "name": "D5",
                    "midi": 74,
                    "time": 276.4136520000005,
                    "velocity": 0.33070866141732286,
                    "duration": 0.1689569999999776
                },
                {
                    "name": "D6",
                    "midi": 86,
                    "time": 276.4136520000005,
                    "velocity": 0.3937007874015748,
                    "duration": 0.1689569999999776
                },
                {
                    "name": "D5",
                    "midi": 74,
                    "time": 276.7515660000005,
                    "velocity": 0.30708661417322836,
                    "duration": 0.1689569999999776
                },
                {
                    "name": "D6",
                    "midi": 86,
                    "time": 276.7515660000005,
                    "velocity": 0.3700787401574803,
                    "duration": 0.1689569999999776
                },
                {
                    "name": "G4",
                    "midi": 67,
                    "time": 277.08948000000044,
                    "velocity": 0.25196850393700787,
                    "duration": 0.33791400000001204
                },
                {
                    "name": "G5",
                    "midi": 79,
                    "time": 277.08948000000044,
                    "velocity": 0.2992125984251969,
                    "duration": 0.33791400000001204
                },
                {
                    "name": "B4",
                    "midi": 71,
                    "time": 277.42739400000045,
                    "velocity": 0.2204724409448819,
                    "duration": 0.33791400000001204
                },
                {
                    "name": "B5",
                    "midi": 83,
                    "time": 277.42739400000045,
                    "velocity": 0.2677165354330709,
                    "duration": 0.33791400000001204
                },
                {
                    "name": "D5",
                    "midi": 74,
                    "time": 277.76530800000046,
                    "velocity": 0.25196850393700787,
                    "duration": 0.1689569999999776
                },
                {
                    "name": "D6",
                    "midi": 86,
                    "time": 277.76530800000046,
                    "velocity": 0.2992125984251969,
                    "duration": 0.1689569999999776
                },
                {
                    "name": "D5",
                    "midi": 74,
                    "time": 278.1032220000004,
                    "velocity": 0.2125984251968504,
                    "duration": 0.1689569999999776
                },
                {
                    "name": "D6",
                    "midi": 86,
                    "time": 278.1032220000004,
                    "velocity": 0.25196850393700787,
                    "duration": 0.1689569999999776
                },
                {
                    "name": "D5",
                    "midi": 74,
                    "time": 278.44113600000037,
                    "velocity": 0.25196850393700787,
                    "duration": 1.3516559999999913
                },
                {
                    "name": "D6",
                    "midi": 86,
                    "time": 278.44113600000037,
                    "velocity": 0.2992125984251969,
                    "duration": 1.3516559999999913
                },
                {
                    "name": "G4",
                    "midi": 67,
                    "time": 279.79279200000036,
                    "velocity": 0.2047244094488189,
                    "duration": 0.6758280000000241
                },
                {
                    "name": "G5",
                    "midi": 79,
                    "time": 279.79279200000036,
                    "velocity": 0.2440944881889764,
                    "duration": 0.6758280000000241
                }
            ],
            "controlChanges": {
                "7": [
                    {
                        "number": 7,
                        "time": 0,
                        "value": 0.7874015748031497
                    }
                ],
                "10": [
                    {
                        "number": 10,
                        "time": 0,
                        "value": 0.5039370078740157
                    }
                ],
                "91": [
                    {
                        "number": 91,
                        "time": 0,
                        "value": 1
                    },
                    {
                        "number": 91,
                        "time": 10.813247999999993,
                        "value": 1
                    },
                    {
                        "number": 91,
                        "time": 29.736432000000004,
                        "value": 1
                    },
                    {
                        "number": 91,
                        "time": 40.54967999999999,
                        "value": 1
                    },
                    {
                        "number": 91,
                        "time": 132.46228800000026,
                        "value": 1
                    },
                    {
                        "number": 91,
                        "time": 143.27553600000033,
                        "value": 1
                    },
                    {
                        "number": 91,
                        "time": 229.7815200000002,
                        "value": 1
                    },
                    {
                        "number": 91,
                        "time": 240.59476800000027,
                        "value": 1
                    }
                ]
            },
            "id": 1,
            "name": "Piano right",
            "instrumentNumber": 0,
            "instrument": "acoustic grand piano",
            "instrumentFamily": "piano",
            "channelNumber": 0,
            "isPercussion": false
        },
        {
            "startTime": 110.835792,
            "duration": 162.1987200000003,
            "length": 121,
            "notes": [
                {
                    "name": "B3",
                    "midi": 59,
                    "time": 110.835792,
                    "velocity": 0.4645669291338583,
                    "duration": 0.6758279999999957
                },
                {
                    "name": "D4",
                    "midi": 62,
                    "time": 110.835792,
                    "velocity": 0.4645669291338583,
                    "duration": 0.6758279999999957
                },
                {
                    "name": "A3",
                    "midi": 57,
                    "time": 111.51162,
                    "velocity": 0.33070866141732286,
                    "duration": 0.6758279999999957
                },
                {
                    "name": "C4",
                    "midi": 60,
                    "time": 111.51162,
                    "velocity": 0.33070866141732286,
                    "duration": 0.6758279999999957
                },
                {
                    "name": "G3",
                    "midi": 55,
                    "time": 112.18744799999999,
                    "velocity": 0.3464566929133858,
                    "duration": 1.3516560000000055
                },
                {
                    "name": "B3",
                    "midi": 59,
                    "time": 112.18744799999999,
                    "velocity": 0.3464566929133858,
                    "duration": 1.3516560000000055
                },
                {
                    "name": "E4",
                    "midi": 64,
                    "time": 112.18744799999999,
                    "velocity": 0.41732283464566927,
                    "duration": 1.3516560000000055
                },
                {
                    "name": "F#4",
                    "midi": 66,
                    "time": 113.539104,
                    "velocity": 0.31496062992125984,
                    "duration": 0.6758279999999957
                },
                {
                    "name": "A3",
                    "midi": 57,
                    "time": 113.539104,
                    "velocity": 0.31496062992125984,
                    "duration": 1.3516559999999913
                },
                {
                    "name": "C#4",
                    "midi": 61,
                    "time": 114.21493199999999,
                    "velocity": 0.2992125984251969,
                    "duration": 0.6758279999999957
                },
                {
                    "name": "C#4",
                    "midi": 61,
                    "time": 114.89075999999999,
                    "velocity": 0.31496062992125984,
                    "duration": 0.6758279999999957
                },
                {
                    "name": "D3",
                    "midi": 50,
                    "time": 114.89075999999999,
                    "velocity": 0.31496062992125984,
                    "duration": 1.3516559999999913
                },
                {
                    "name": "D4",
                    "midi": 62,
                    "time": 115.56658799999998,
                    "velocity": 0.2992125984251969,
                    "duration": 0.6758279999999957
                },
                {
                    "name": "F#4",
                    "midi": 66,
                    "time": 116.24241599999998,
                    "velocity": 0.41732283464566927,
                    "duration": 0.6758279999999957
                },
                {
                    "name": "A4",
                    "midi": 69,
                    "time": 116.24241599999998,
                    "velocity": 0.41732283464566927,
                    "duration": 0.6758279999999957
                },
                {
                    "name": "E4",
                    "midi": 64,
                    "time": 116.91824399999997,
                    "velocity": 0.29133858267716534,
                    "duration": 0.6758279999999957
                },
                {
                    "name": "G4",
                    "midi": 67,
                    "time": 116.91824399999997,
                    "velocity": 0.29133858267716534,
                    "duration": 0.6758279999999957
                },
                {
                    "name": "A#4",
                    "midi": 70,
                    "time": 116.91824399999997,
                    "velocity": 0.3543307086614173,
                    "duration": 0.6758279999999957
                },
                {
                    "name": "B4",
                    "midi": 71,
                    "time": 117.59407199999997,
                    "velocity": 0.3700787401574803,
                    "duration": 0.6758279999999957
                },
                {
                    "name": "D4",
                    "midi": 62,
                    "time": 117.59407199999997,
                    "velocity": 0.30708661417322836,
                    "duration": 0.6758279999999957
                },
                {
                    "name": "F#4",
                    "midi": 66,
                    "time": 117.59407199999997,
                    "velocity": 0.3700787401574803,
                    "duration": 0.6758279999999957
                },
                {
                    "name": "D4",
                    "midi": 62,
                    "time": 118.94572799999996,
                    "velocity": 0.2283464566929134,
                    "duration": 0.6758279999999957
                },
                {
                    "name": "F#4",
                    "midi": 66,
                    "time": 118.94572799999996,
                    "velocity": 0.2755905511811024,
                    "duration": 0.6758279999999957
                },
                {
                    "name": "C4",
                    "midi": 60,
                    "time": 119.62155599999996,
                    "velocity": 0.2283464566929134,
                    "duration": 0.6758279999999957
                },
                {
                    "name": "D4",
                    "midi": 62,
                    "time": 119.62155599999996,
                    "velocity": 0.2283464566929134,
                    "duration": 0.6758279999999957
                },
                {
                    "name": "F#4",
                    "midi": 66,
                    "time": 119.62155599999996,
                    "velocity": 0.2755905511811024,
                    "duration": 0.6758279999999957
                },
                {
                    "name": "G4",
                    "midi": 67,
                    "time": 120.29738399999995,
                    "velocity": 0.2755905511811024,
                    "duration": 0.6758279999999957
                },
                {
                    "name": "B3",
                    "midi": 59,
                    "time": 120.29738399999995,
                    "velocity": 0.2283464566929134,
                    "duration": 0.6758279999999957
                },
                {
                    "name": "D4",
                    "midi": 62,
                    "time": 120.29738399999995,
                    "velocity": 0.2755905511811024,
                    "duration": 0.6758279999999957
                },
                {
                    "name": "B3",
                    "midi": 59,
                    "time": 121.64903999999994,
                    "velocity": 0.4645669291338583,
                    "duration": 0.6758279999999957
                },
                {
                    "name": "D4",
                    "midi": 62,
                    "time": 121.64903999999994,
                    "velocity": 0.4645669291338583,
                    "duration": 0.6758279999999957
                },
                {
                    "name": "A3",
                    "midi": 57,
                    "time": 122.32486799999994,
                    "velocity": 0.33070866141732286,
                    "duration": 0.6758279999999957
                },
                {
                    "name": "C4",
                    "midi": 60,
                    "time": 122.32486799999994,
                    "velocity": 0.33070866141732286,
                    "duration": 0.6758279999999957
                },
                {
                    "name": "G3",
                    "midi": 55,
                    "time": 123.00069599999993,
                    "velocity": 0.3464566929133858,
                    "duration": 1.3516560000000055
                },
                {
                    "name": "B3",
                    "midi": 59,
                    "time": 123.00069599999993,
                    "velocity": 0.3464566929133858,
                    "duration": 1.3516560000000055
                },
                {
                    "name": "E4",
                    "midi": 64,
                    "time": 123.00069599999993,
                    "velocity": 0.41732283464566927,
                    "duration": 1.3516560000000055
                },
                {
                    "name": "D4",
                    "midi": 62,
                    "time": 124.35235199999994,
                    "velocity": 0.2677165354330709,
                    "duration": 0.6758279999999957
                },
                {
                    "name": "F#4",
                    "midi": 66,
                    "time": 124.35235199999994,
                    "velocity": 0.31496062992125984,
                    "duration": 0.6758279999999957
                },
                {
                    "name": "A3",
                    "midi": 57,
                    "time": 124.35235199999994,
                    "velocity": 0.2677165354330709,
                    "duration": 0.6758279999999957
                },
                {
                    "name": "D4",
                    "midi": 62,
                    "time": 125.70400799999993,
                    "velocity": 0.2204724409448819,
                    "duration": 0.6758279999999957
                },
                {
                    "name": "F#4",
                    "midi": 66,
                    "time": 125.70400799999993,
                    "velocity": 0.25984251968503935,
                    "duration": 0.6758279999999957
                },
                {
                    "name": "A3",
                    "midi": 57,
                    "time": 125.70400799999993,
                    "velocity": 0.2204724409448819,
                    "duration": 0.6758279999999957
                },
                {
                    "name": "A3",
                    "midi": 57,
                    "time": 127.05566399999992,
                    "velocity": 0.2204724409448819,
                    "duration": 0.6758279999999957
                },
                {
                    "name": "D4",
                    "midi": 62,
                    "time": 127.05566399999992,
                    "velocity": 0.2204724409448819,
                    "duration": 0.6758279999999957
                },
                {
                    "name": "E4",
                    "midi": 64,
                    "time": 127.05566399999992,
                    "velocity": 0.2677165354330709,
                    "duration": 0.6758279999999957
                },
                {
                    "name": "C#4",
                    "midi": 61,
                    "time": 128.4073199999999,
                    "velocity": 0.2204724409448819,
                    "duration": 0.6758279999999957
                },
                {
                    "name": "A3",
                    "midi": 57,
                    "time": 128.4073199999999,
                    "velocity": 0.2204724409448819,
                    "duration": 0.6758279999999957
                },
                {
                    "name": "G4",
                    "midi": 67,
                    "time": 128.4073199999999,
                    "velocity": 0.2677165354330709,
                    "duration": 0.6758279999999957
                },
                {
                    "name": "D4",
                    "midi": 62,
                    "time": 129.7589759999999,
                    "velocity": 0.2204724409448819,
                    "duration": 1.3516559999999913
                },
                {
                    "name": "F#4",
                    "midi": 66,
                    "time": 129.7589759999999,
                    "velocity": 0.2677165354330709,
                    "duration": 1.3516559999999913
                },
                {
                    "name": "G3",
                    "midi": 55,
                    "time": 132.4622879999999,
                    "velocity": 0.30708661417322836,
                    "duration": 0.6758279999999957
                },
                {
                    "name": "D4",
                    "midi": 62,
                    "time": 132.4622879999999,
                    "velocity": 0.30708661417322836,
                    "duration": 2.7033119999999826
                },
                {
                    "name": "A3",
                    "midi": 57,
                    "time": 133.13811599999988,
                    "velocity": 0.2755905511811024,
                    "duration": 0.5068709999999896
                },
                {
                    "name": "G3",
                    "midi": 55,
                    "time": 133.64498699999987,
                    "velocity": 0.23622047244094488,
                    "duration": 0.16895700000000602
                },
                {
                    "name": "F#3",
                    "midi": 54,
                    "time": 133.81394399999988,
                    "velocity": 0.25196850393700787,
                    "duration": 0.6758279999999957
                },
                {
                    "name": "G3",
                    "midi": 55,
                    "time": 134.48977199999987,
                    "velocity": 0.25196850393700787,
                    "duration": 0.6758279999999957
                },
                {
                    "name": "A3",
                    "midi": 57,
                    "time": 135.16559999999987,
                    "velocity": 0.2992125984251969,
                    "duration": 0.6758279999999957
                },
                {
                    "name": "D4",
                    "midi": 62,
                    "time": 135.16559999999987,
                    "velocity": 0.2992125984251969,
                    "duration": 2.703312000000011
                },
                {
                    "name": "C4",
                    "midi": 60,
                    "time": 135.84142799999987,
                    "velocity": 0.31496062992125984,
                    "duration": 0.33791400000001204
                },
                {
                    "name": "B3",
                    "midi": 59,
                    "time": 136.17934199999988,
                    "velocity": 0.28346456692913385,
                    "duration": 0.33791400000001204
                },
                {
                    "name": "A3",
                    "midi": 57,
                    "time": 136.5172559999999,
                    "velocity": 0.3700787401574803,
                    "duration": 0.6758279999999957
                },
                {
                    "name": "G3",
                    "midi": 55,
                    "time": 137.19308399999989,
                    "velocity": 0.4015748031496063,
                    "duration": 0.6758279999999957
                },
                {
                    "name": "E3",
                    "midi": 52,
                    "time": 137.86891199999988,
                    "velocity": 0.3858267716535433,
                    "duration": 0.33791400000001204
                },
                {
                    "name": "E4",
                    "midi": 64,
                    "time": 137.86891199999988,
                    "velocity": 0.3858267716535433,
                    "duration": 0.33791400000001204
                },
                {
                    "name": "D3",
                    "midi": 50,
                    "time": 138.5447399999999,
                    "velocity": 0.3464566929133858,
                    "duration": 0.33791400000001204
                },
                {
                    "name": "D4",
                    "midi": 62,
                    "time": 138.5447399999999,
                    "velocity": 0.3464566929133858,
                    "duration": 0.33791400000001204
                },
                {
                    "name": "C4",
                    "midi": 60,
                    "time": 139.22056799999993,
                    "velocity": 0.4015748031496063,
                    "duration": 0.33791400000001204
                },
                {
                    "name": "C3",
                    "midi": 48,
                    "time": 139.22056799999993,
                    "velocity": 0.4015748031496063,
                    "duration": 0.33791400000001204
                },
                {
                    "name": "B3",
                    "midi": 59,
                    "time": 140.23430999999994,
                    "velocity": 0.29133858267716534,
                    "duration": 0.33791400000001204
                },
                {
                    "name": "F#3",
                    "midi": 54,
                    "time": 140.57222399999995,
                    "velocity": 0.31496062992125984,
                    "duration": 0.6758279999999957
                },
                {
                    "name": "G3",
                    "midi": 55,
                    "time": 141.24805199999994,
                    "velocity": 0.2755905511811024,
                    "duration": 0.6758279999999957
                },
                {
                    "name": "D3",
                    "midi": 50,
                    "time": 141.92387999999994,
                    "velocity": 0.30708661417322836,
                    "duration": 1.3516559999999913
                },
                {
                    "name": "D4",
                    "midi": 62,
                    "time": 143.27553599999993,
                    "velocity": 0.30708661417322836,
                    "duration": 2.7033119999999826
                },
                {
                    "name": "G3",
                    "midi": 55,
                    "time": 143.27553599999993,
                    "velocity": 0.30708661417322836,
                    "duration": 0.6758279999999957
                },
                {
                    "name": "A3",
                    "midi": 57,
                    "time": 143.95136399999993,
                    "velocity": 0.2755905511811024,
                    "duration": 0.5068709999999896
                },
                {
                    "name": "G3",
                    "midi": 55,
                    "time": 144.45823499999992,
                    "velocity": 0.23622047244094488,
                    "duration": 0.16895700000000602
                },
                {
                    "name": "F#3",
                    "midi": 54,
                    "time": 144.62719199999992,
                    "velocity": 0.25196850393700787,
                    "duration": 0.6758279999999957
                },
                {
                    "name": "G#3",
                    "midi": 56,
                    "time": 145.30301999999992,
                    "velocity": 0.25196850393700787,
                    "duration": 0.6758279999999957
                },
                {
                    "name": "D4",
                    "midi": 62,
                    "time": 145.9788479999999,
                    "velocity": 0.2992125984251969,
                    "duration": 2.7033119999999826
                },
                {
                    "name": "A3",
                    "midi": 57,
                    "time": 145.9788479999999,
                    "velocity": 0.2992125984251969,
                    "duration": 0.6758279999999957
                },
                {
                    "name": "F#3",
                    "midi": 54,
                    "time": 146.6546759999999,
                    "velocity": 0.25984251968503935,
                    "duration": 0.6758279999999957
                },
                {
                    "name": "G3",
                    "midi": 55,
                    "time": 147.3305039999999,
                    "velocity": 0.30708661417322836,
                    "duration": 1.3516559999999913
                },
                {
                    "name": "E3",
                    "midi": 52,
                    "time": 148.6821599999999,
                    "velocity": 0.3858267716535433,
                    "duration": 0.33791400000001204
                },
                {
                    "name": "E4",
                    "midi": 64,
                    "time": 148.6821599999999,
                    "velocity": 0.3858267716535433,
                    "duration": 0.33791400000001204
                },
                {
                    "name": "D3",
                    "midi": 50,
                    "time": 149.35798799999992,
                    "velocity": 0.3464566929133858,
                    "duration": 0.33791400000001204
                },
                {
                    "name": "D4",
                    "midi": 62,
                    "time": 149.35798799999992,
                    "velocity": 0.3464566929133858,
                    "duration": 0.33791400000001204
                },
                {
                    "name": "C4",
                    "midi": 60,
                    "time": 150.03381599999994,
                    "velocity": 0.4015748031496063,
                    "duration": 0.6758279999999957
                },
                {
                    "name": "C3",
                    "midi": 48,
                    "time": 150.03381599999994,
                    "velocity": 0.4015748031496063,
                    "duration": 0.6758279999999957
                },
                {
                    "name": "E4",
                    "midi": 64,
                    "time": 151.04755799999995,
                    "velocity": 0.29133858267716534,
                    "duration": 0.33791400000001204
                },
                {
                    "name": "C4",
                    "midi": 60,
                    "time": 151.04755799999995,
                    "velocity": 0.29133858267716534,
                    "duration": 0.33791400000001204
                },
                {
                    "name": "D4",
                    "midi": 62,
                    "time": 151.38547199999996,
                    "velocity": 0.31496062992125984,
                    "duration": 1.3516559999999913
                },
                {
                    "name": "G4",
                    "midi": 67,
                    "time": 151.38547199999996,
                    "velocity": 0.31496062992125984,
                    "duration": 0.6758279999999957
                },
                {
                    "name": "F#4",
                    "midi": 66,
                    "time": 152.06129999999996,
                    "velocity": 0.2755905511811024,
                    "duration": 0.6758279999999957
                },
                {
                    "name": "G3",
                    "midi": 55,
                    "time": 152.73712799999996,
                    "velocity": 0.30708661417322836,
                    "duration": 1.3516560000000482
                },
                {
                    "name": "B3",
                    "midi": 59,
                    "time": 153.07504199999997,
                    "velocity": 0.2204724409448819,
                    "duration": 0.33791400000001204
                },
                {
                    "name": "D4",
                    "midi": 62,
                    "time": 153.41295599999998,
                    "velocity": 0.25196850393700787,
                    "duration": 0.33791400000001204
                },
                {
                    "name": "B3",
                    "midi": 59,
                    "time": 153.75087,
                    "velocity": 0.2125984251968504,
                    "duration": 0.33791400000001204
                },
                {
                    "name": "C3",
                    "midi": 48,
                    "time": 154.088784,
                    "velocity": 0.30708661417322836,
                    "duration": 1.3516560000000482
                },
                {
                    "name": "E3",
                    "midi": 52,
                    "time": 154.42669800000002,
                    "velocity": 0.2125984251968504,
                    "duration": 0.33791400000001204
                },
                {
                    "name": "A3",
                    "midi": 57,
                    "time": 154.76461200000003,
                    "velocity": 0.25196850393700787,
                    "duration": 0.33791400000001204
                },
                {
                    "name": "E3",
                    "midi": 52,
                    "time": 155.10252600000004,
                    "velocity": 0.2204724409448819,
                    "duration": 0.33791400000001204
                },
                {
                    "name": "D3",
                    "midi": 50,
                    "time": 155.44044000000005,
                    "velocity": 0.30708661417322836,
                    "duration": 1.3516560000000482
                },
                {
                    "name": "C4",
                    "midi": 60,
                    "time": 155.77835400000006,
                    "velocity": 0.2283464566929134,
                    "duration": 0.33791400000001204
                },
                {
                    "name": "A3",
                    "midi": 57,
                    "time": 156.11626800000008,
                    "velocity": 0.25196850393700787,
                    "duration": 0.33791400000001204
                },
                {
                    "name": "C4",
                    "midi": 60,
                    "time": 156.4541820000001,
                    "velocity": 0.2283464566929134,
                    "duration": 0.33791400000001204
                },
                {
                    "name": "G3",
                    "midi": 55,
                    "time": 156.7920960000001,
                    "velocity": 0.30708661417322836,
                    "duration": 1.3516560000000482
                },
                {
                    "name": "B3",
                    "midi": 59,
                    "time": 157.1300100000001,
                    "velocity": 0.2283464566929134,
                    "duration": 0.33791400000001204
                },
                {
                    "name": "D4",
                    "midi": 62,
                    "time": 157.46792400000012,
                    "velocity": 0.25196850393700787,
                    "duration": 0.33791400000001204
                },
                {
                    "name": "B3",
                    "midi": 59,
                    "time": 157.80583800000014,
                    "velocity": 0.2283464566929134,
                    "duration": 0.33791400000001204
                },
                {
                    "name": "E3",
                    "midi": 52,
                    "time": 158.14375200000015,
                    "velocity": 0.30708661417322836,
                    "duration": 1.3516560000000482
                },
                {
                    "name": "G3",
                    "midi": 55,
                    "time": 158.48166600000016,
                    "velocity": 0.2283464566929134,
                    "duration": 0.33791400000001204
                },
                {
                    "name": "B3",
                    "midi": 59,
                    "time": 158.81958000000017,
                    "velocity": 0.25196850393700787,
                    "duration": 0.33791400000001204
                },
                {
                    "name": "G3",
                    "midi": 55,
                    "time": 159.15749400000018,
                    "velocity": 0.23622047244094488,
                    "duration": 0.33791400000001204
                },
                {
                    "name": "C3",
                    "midi": 48,
                    "time": 159.4954080000002,
                    "velocity": 0.30708661417322836,
                    "duration": 1.3516560000000482
                },
                {
                    "name": "E3",
                    "midi": 52,
                    "time": 159.8333220000002,
                    "velocity": 0.2283464566929134,
                    "duration": 0.33791400000001204
                },
                {
                    "name": "A3",
                    "midi": 57,
                    "time": 160.17123600000022,
                    "velocity": 0.25196850393700787,
                    "duration": 0.33791400000001204
                },
                {
                    "name": "E3",
                    "midi": 52,
                    "time": 160.50915000000023,
                    "velocity": 0.2283464566929134,
                    "duration": 0.33791400000001204
                },
                {
                    "name": "D3",
                    "midi": 50,
                    "time": 160.84706400000024,
                    "velocity": 0.30708661417322836,
                    "duration": 1.3516560000000482
                },
                {
                    "name": "C4",
                    "midi": 60,
                    "time": 161.18497800000026,
                    "velocity": 0.23622047244094488,
                    "duration": 0.33791400000001204
                },
                {
                    "name": "A3",
                    "midi": 57,
                    "time": 161.52289200000027,
                    "velocity": 0.25196850393700787,
                    "duration": 0.33791400000001204
                },
                {
                    "name": "C4",
                    "midi": 60,
                    "time": 161.86080600000028,
                    "velocity": 0.2283464566929134,
                    "duration": 0.33791400000001204
                }
            ],
            "controlChanges": {
                "7": [
                    {
                        "number": 7,
                        "time": 0,
                        "value": 0.7874015748031497
                    }
                ],
                "10": [
                    {
                        "number": 10,
                        "time": 0,
                        "value": 0.5039370078740157
                    }
                ]
            },
            "id": 2,
            "name": "Piano left",
            "instrumentNumber": 0,
            "instrument": "acoustic grand piano",
            "instrumentFamily": "piano",
            "channelNumber": 0,
            "isPercussion": false
        },
        {
            "startTime": 0,
            "duration": 280.46862000000095,
            "length": 585,
            "notes": [
                {
                    "name": "G3",
                    "midi": 55,
                    "time": 0,
                    "velocity": 0.30708661417322836,
                    "duration": 1.351656
                },
                {
                    "name": "D4",
                    "midi": 62,
                    "time": 0,
                    "velocity": 0.30708661417322836,
                    "duration": 2.703312
                },
                {
                    "name": "F#3",
                    "midi": 54,
                    "time": 1.351656,
                    "velocity": 0.25196850393700787,
                    "duration": 0.6758279999999999
                },
                {
                    "name": "G3",
                    "midi": 55,
                    "time": 2.027484,
                    "velocity": 0.25196850393700787,
                    "duration": 0.6758280000000001
                },
                {
                    "name": "A3",
                    "midi": 57,
                    "time": 2.703312,
                    "velocity": 0.2992125984251969,
                    "duration": 0.6758280000000001
                },
                {
                    "name": "D4",
                    "midi": 62,
                    "time": 2.703312,
                    "velocity": 0.2992125984251969,
                    "duration": 2.703312
                },
                {
                    "name": "F#3",
                    "midi": 54,
                    "time": 3.37914,
                    "velocity": 0.25984251968503935,
                    "duration": 0.6758279999999997
                },
                {
                    "name": "G3",
                    "midi": 55,
                    "time": 4.054968,
                    "velocity": 0.30708661417322836,
                    "duration": 1.3516560000000002
                },
                {
                    "name": "E3",
                    "midi": 52,
                    "time": 5.406624,
                    "velocity": 0.3858267716535433,
                    "duration": 0.3379139999999996
                },
                {
                    "name": "E4",
                    "midi": 64,
                    "time": 5.406624,
                    "velocity": 0.3858267716535433,
                    "duration": 0.3379139999999996
                },
                {
                    "name": "D3",
                    "midi": 50,
                    "time": 6.082451999999999,
                    "velocity": 0.3464566929133858,
                    "duration": 0.3379139999999996
                },
                {
                    "name": "D4",
                    "midi": 62,
                    "time": 6.082451999999999,
                    "velocity": 0.3464566929133858,
                    "duration": 0.3379139999999996
                },
                {
                    "name": "C4",
                    "midi": 60,
                    "time": 6.758279999999998,
                    "velocity": 0.4015748031496063,
                    "duration": 0.3379139999999996
                },
                {
                    "name": "C3",
                    "midi": 48,
                    "time": 6.758279999999998,
                    "velocity": 0.4015748031496063,
                    "duration": 0.3379139999999996
                },
                {
                    "name": "B3",
                    "midi": 59,
                    "time": 7.772021999999998,
                    "velocity": 0.29133858267716534,
                    "duration": 0.3379139999999996
                },
                {
                    "name": "F#3",
                    "midi": 54,
                    "time": 8.109935999999998,
                    "velocity": 0.31496062992125984,
                    "duration": 0.6758279999999992
                },
                {
                    "name": "G3",
                    "midi": 55,
                    "time": 8.785763999999997,
                    "velocity": 0.2755905511811024,
                    "duration": 0.6758279999999992
                },
                {
                    "name": "D3",
                    "midi": 50,
                    "time": 9.461591999999996,
                    "velocity": 0.30708661417322836,
                    "duration": 1.3516560000000002
                },
                {
                    "name": "G3",
                    "midi": 55,
                    "time": 10.813247999999996,
                    "velocity": 0.30708661417322836,
                    "duration": 1.3516560000000002
                },
                {
                    "name": "D4",
                    "midi": 62,
                    "time": 10.813247999999996,
                    "velocity": 0.30708661417322836,
                    "duration": 2.7033119999999986
                },
                {
                    "name": "F#3",
                    "midi": 54,
                    "time": 12.164903999999996,
                    "velocity": 0.25196850393700787,
                    "duration": 0.6758279999999992
                },
                {
                    "name": "G3",
                    "midi": 55,
                    "time": 12.840731999999996,
                    "velocity": 0.25196850393700787,
                    "duration": 0.6758279999999992
                },
                {
                    "name": "D4",
                    "midi": 62,
                    "time": 13.516559999999995,
                    "velocity": 0.2992125984251969,
                    "duration": 2.703311999999997
                },
                {
                    "name": "A3",
                    "midi": 57,
                    "time": 13.516559999999995,
                    "velocity": 0.2992125984251969,
                    "duration": 0.6758279999999992
                },
                {
                    "name": "F#3",
                    "midi": 54,
                    "time": 14.192387999999994,
                    "velocity": 0.25984251968503935,
                    "duration": 0.6758279999999992
                },
                {
                    "name": "G3",
                    "midi": 55,
                    "time": 14.868215999999993,
                    "velocity": 0.30708661417322836,
                    "duration": 1.3516559999999984
                },
                {
                    "name": "E3",
                    "midi": 52,
                    "time": 16.21987199999999,
                    "velocity": 0.3858267716535433,
                    "duration": 0.3379140000000014
                },
                {
                    "name": "E4",
                    "midi": 64,
                    "time": 16.21987199999999,
                    "velocity": 0.3858267716535433,
                    "duration": 0.3379140000000014
                },
                {
                    "name": "D4",
                    "midi": 62,
                    "time": 16.895699999999994,
                    "velocity": 0.3464566929133858,
                    "duration": 0.3379140000000014
                },
                {
                    "name": "D3",
                    "midi": 50,
                    "time": 16.895699999999994,
                    "velocity": 0.3464566929133858,
                    "duration": 0.3379140000000014
                },
                {
                    "name": "C3",
                    "midi": 48,
                    "time": 17.571527999999997,
                    "velocity": 0.4015748031496063,
                    "duration": 0.6758279999999992
                },
                {
                    "name": "C4",
                    "midi": 60,
                    "time": 17.571527999999997,
                    "velocity": 0.4015748031496063,
                    "duration": 0.6758279999999992
                },
                {
                    "name": "C4",
                    "midi": 60,
                    "time": 18.585269999999998,
                    "velocity": 0.29133858267716534,
                    "duration": 0.25343549999999837
                },
                {
                    "name": "E4",
                    "midi": 64,
                    "time": 18.585269999999998,
                    "velocity": 0.29133858267716534,
                    "duration": 0.25343549999999837
                },
                {
                    "name": "G4",
                    "midi": 67,
                    "time": 18.923183999999996,
                    "velocity": 0.31496062992125984,
                    "duration": 0.6758279999999992
                },
                {
                    "name": "D4",
                    "midi": 62,
                    "time": 18.923183999999996,
                    "velocity": 0.31496062992125984,
                    "duration": 1.3516559999999984
                },
                {
                    "name": "F#4",
                    "midi": 66,
                    "time": 19.599011999999995,
                    "velocity": 0.2755905511811024,
                    "duration": 0.6758279999999992
                },
                {
                    "name": "G3",
                    "midi": 55,
                    "time": 20.274839999999994,
                    "velocity": 0.30708661417322836,
                    "duration": 1.3516560000000055
                },
                {
                    "name": "B3",
                    "midi": 59,
                    "time": 20.612753999999995,
                    "velocity": 0.2204724409448819,
                    "duration": 0.3379140000000014
                },
                {
                    "name": "D4",
                    "midi": 62,
                    "time": 20.950667999999997,
                    "velocity": 0.25196850393700787,
                    "duration": 0.3379140000000014
                },
                {
                    "name": "B3",
                    "midi": 59,
                    "time": 21.288581999999998,
                    "velocity": 0.2125984251968504,
                    "duration": 0.3379140000000014
                },
                {
                    "name": "C3",
                    "midi": 48,
                    "time": 21.626496,
                    "velocity": 0.30708661417322836,
                    "duration": 1.3516560000000055
                },
                {
                    "name": "E3",
                    "midi": 52,
                    "time": 21.96441,
                    "velocity": 0.2125984251968504,
                    "duration": 0.3379140000000014
                },
                {
                    "name": "A3",
                    "midi": 57,
                    "time": 22.302324000000002,
                    "velocity": 0.25196850393700787,
                    "duration": 0.3379140000000014
                },
                {
                    "name": "E3",
                    "midi": 52,
                    "time": 22.640238000000004,
                    "velocity": 0.2204724409448819,
                    "duration": 0.3379140000000014
                },
                {
                    "name": "D3",
                    "midi": 50,
                    "time": 22.978152000000005,
                    "velocity": 0.30708661417322836,
                    "duration": 1.351656000000002
                },
                {
                    "name": "C4",
                    "midi": 60,
                    "time": 23.316066000000003,
                    "velocity": 0.2283464566929134,
                    "duration": 0.3379140000000014
                },
                {
                    "name": "A3",
                    "midi": 57,
                    "time": 23.653980000000004,
                    "velocity": 0.25196850393700787,
                    "duration": 0.3379140000000014
                },
                {
                    "name": "C4",
                    "midi": 60,
                    "time": 23.991894000000006,
                    "velocity": 0.2283464566929134,
                    "duration": 0.3379140000000014
                },
                {
                    "name": "G3",
                    "midi": 55,
                    "time": 24.329808000000007,
                    "velocity": 0.30708661417322836,
                    "duration": 1.3516560000000055
                },
                {
                    "name": "B3",
                    "midi": 59,
                    "time": 24.66772200000001,
                    "velocity": 0.2283464566929134,
                    "duration": 0.3379140000000014
                },
                {
                    "name": "D4",
                    "midi": 62,
                    "time": 25.00563600000001,
                    "velocity": 0.25196850393700787,
                    "duration": 0.3379140000000014
                },
                {
                    "name": "B3",
                    "midi": 59,
                    "time": 25.34355000000001,
                    "velocity": 0.2283464566929134,
                    "duration": 0.3379140000000014
                },
                {
                    "name": "E3",
                    "midi": 52,
                    "time": 25.681464000000013,
                    "velocity": 0.30708661417322836,
                    "duration": 1.3516560000000055
                },
                {
                    "name": "G3",
                    "midi": 55,
                    "time": 26.019378000000014,
                    "velocity": 0.2283464566929134,
                    "duration": 0.3379140000000014
                },
                {
                    "name": "B3",
                    "midi": 59,
                    "time": 26.357292000000015,
                    "velocity": 0.25196850393700787,
                    "duration": 0.3379140000000014
                },
                {
                    "name": "G3",
                    "midi": 55,
                    "time": 26.695206000000017,
                    "velocity": 0.23622047244094488,
                    "duration": 0.3379140000000014
                },
                {
                    "name": "C3",
                    "midi": 48,
                    "time": 27.033120000000018,
                    "velocity": 0.30708661417322836,
                    "duration": 1.3516560000000055
                },
                {
                    "name": "E3",
                    "midi": 52,
                    "time": 27.37103400000002,
                    "velocity": 0.2283464566929134,
                    "duration": 0.3379140000000014
                },
                {
                    "name": "A3",
                    "midi": 57,
                    "time": 27.70894800000002,
                    "velocity": 0.25196850393700787,
                    "duration": 0.3379140000000014
                },
                {
                    "name": "E3",
                    "midi": 52,
                    "time": 28.046862000000022,
                    "velocity": 0.2283464566929134,
                    "duration": 0.3379140000000014
                },
                {
                    "name": "D3",
                    "midi": 50,
                    "time": 28.384776000000024,
                    "velocity": 0.30708661417322836,
                    "duration": 1.351656000000002
                },
                {
                    "name": "C4",
                    "midi": 60,
                    "time": 28.72269000000002,
                    "velocity": 0.23622047244094488,
                    "duration": 0.3379140000000014
                },
                {
                    "name": "A3",
                    "midi": 57,
                    "time": 29.060604000000023,
                    "velocity": 0.25196850393700787,
                    "duration": 0.3379140000000014
                },
                {
                    "name": "C4",
                    "midi": 60,
                    "time": 29.398518000000024,
                    "velocity": 0.2283464566929134,
                    "duration": 0.3379140000000014
                },
                {
                    "name": "G3",
                    "midi": 55,
                    "time": 29.736432000000026,
                    "velocity": 0.30708661417322836,
                    "duration": 1.3516559999999984
                },
                {
                    "name": "D4",
                    "midi": 62,
                    "time": 29.736432000000026,
                    "velocity": 0.30708661417322836,
                    "duration": 2.7033120000000004
                },
                {
                    "name": "F#3",
                    "midi": 54,
                    "time": 31.088088000000024,
                    "velocity": 0.25196850393700787,
                    "duration": 0.6758279999999992
                },
                {
                    "name": "G3",
                    "midi": 55,
                    "time": 31.763916000000023,
                    "velocity": 0.25196850393700787,
                    "duration": 0.6758280000000028
                },
                {
                    "name": "D4",
                    "midi": 62,
                    "time": 32.439744000000026,
                    "velocity": 0.2992125984251969,
                    "duration": 2.703312000000004
                },
                {
                    "name": "A3",
                    "midi": 57,
                    "time": 32.439744000000026,
                    "velocity": 0.2992125984251969,
                    "duration": 0.6758280000000028
                },
                {
                    "name": "F#3",
                    "midi": 54,
                    "time": 33.11557200000003,
                    "velocity": 0.25984251968503935,
                    "duration": 0.6758280000000028
                },
                {
                    "name": "G3",
                    "midi": 55,
                    "time": 33.79140000000003,
                    "velocity": 0.30708661417322836,
                    "duration": 1.3516559999999984
                },
                {
                    "name": "E4",
                    "midi": 64,
                    "time": 35.14305600000003,
                    "velocity": 0.3858267716535433,
                    "duration": 0.3379139999999978
                },
                {
                    "name": "E3",
                    "midi": 52,
                    "time": 35.14305600000003,
                    "velocity": 0.3858267716535433,
                    "duration": 0.3379139999999978
                },
                {
                    "name": "D3",
                    "midi": 50,
                    "time": 35.818884000000025,
                    "velocity": 0.3464566929133858,
                    "duration": 0.3379139999999978
                },
                {
                    "name": "D4",
                    "midi": 62,
                    "time": 35.818884000000025,
                    "velocity": 0.3464566929133858,
                    "duration": 0.3379139999999978
                },
                {
                    "name": "C4",
                    "midi": 60,
                    "time": 36.49471200000002,
                    "velocity": 0.4015748031496063,
                    "duration": 0.3379139999999978
                },
                {
                    "name": "C3",
                    "midi": 48,
                    "time": 36.49471200000002,
                    "velocity": 0.4015748031496063,
                    "duration": 0.3379139999999978
                },
                {
                    "name": "B3",
                    "midi": 59,
                    "time": 37.50845400000002,
                    "velocity": 0.29133858267716534,
                    "duration": 0.3379139999999978
                },
                {
                    "name": "F#3",
                    "midi": 54,
                    "time": 37.84636800000002,
                    "velocity": 0.31496062992125984,
                    "duration": 0.6758279999999957
                },
                {
                    "name": "G3",
                    "midi": 55,
                    "time": 38.522196000000015,
                    "velocity": 0.2755905511811024,
                    "duration": 0.6758279999999957
                },
                {
                    "name": "D3",
                    "midi": 50,
                    "time": 39.19802400000001,
                    "velocity": 0.30708661417322836,
                    "duration": 1.3516559999999984
                },
                {
                    "name": "D4",
                    "midi": 62,
                    "time": 40.54968000000001,
                    "velocity": 0.30708661417322836,
                    "duration": 2.703312000000004
                },
                {
                    "name": "G3",
                    "midi": 55,
                    "time": 40.54968000000001,
                    "velocity": 0.30708661417322836,
                    "duration": 1.3516559999999984
                },
                {
                    "name": "F#3",
                    "midi": 54,
                    "time": 41.90133600000001,
                    "velocity": 0.25196850393700787,
                    "duration": 0.6758280000000028
                },
                {
                    "name": "G3",
                    "midi": 55,
                    "time": 42.57716400000001,
                    "velocity": 0.25196850393700787,
                    "duration": 0.6758280000000028
                },
                {
                    "name": "A3",
                    "midi": 57,
                    "time": 43.25299200000001,
                    "velocity": 0.2992125984251969,
                    "duration": 0.6758280000000028
                },
                {
                    "name": "D4",
                    "midi": 62,
                    "time": 43.25299200000001,
                    "velocity": 0.2992125984251969,
                    "duration": 2.703312000000004
                },
                {
                    "name": "F#3",
                    "midi": 54,
                    "time": 43.928820000000016,
                    "velocity": 0.25984251968503935,
                    "duration": 0.6758280000000028
                },
                {
                    "name": "G3",
                    "midi": 55,
                    "time": 44.60464800000002,
                    "velocity": 0.30708661417322836,
                    "duration": 1.3516559999999984
                },
                {
                    "name": "E4",
                    "midi": 64,
                    "time": 45.95630400000002,
                    "velocity": 0.3858267716535433,
                    "duration": 0.3379139999999978
                },
                {
                    "name": "E3",
                    "midi": 52,
                    "time": 45.95630400000002,
                    "velocity": 0.3858267716535433,
                    "duration": 0.3379139999999978
                },
                {
                    "name": "D4",
                    "midi": 62,
                    "time": 46.63213200000001,
                    "velocity": 0.3464566929133858,
                    "duration": 0.3379139999999978
                },
                {
                    "name": "D3",
                    "midi": 50,
                    "time": 46.63213200000001,
                    "velocity": 0.3464566929133858,
                    "duration": 0.3379139999999978
                },
                {
                    "name": "C3",
                    "midi": 48,
                    "time": 47.30796000000001,
                    "velocity": 0.4015748031496063,
                    "duration": 0.6758280000000028
                },
                {
                    "name": "C4",
                    "midi": 60,
                    "time": 47.30796000000001,
                    "velocity": 0.4015748031496063,
                    "duration": 0.6758280000000028
                },
                {
                    "name": "E4",
                    "midi": 64,
                    "time": 48.32170200000001,
                    "velocity": 0.29133858267716534,
                    "duration": 0.2534355000000019
                },
                {
                    "name": "C4",
                    "midi": 60,
                    "time": 48.32170200000001,
                    "velocity": 0.29133858267716534,
                    "duration": 0.2534355000000019
                },
                {
                    "name": "D4",
                    "midi": 62,
                    "time": 48.659616000000014,
                    "velocity": 0.31496062992125984,
                    "duration": 1.3516560000000055
                },
                {
                    "name": "G4",
                    "midi": 67,
                    "time": 48.659616000000014,
                    "velocity": 0.31496062992125984,
                    "duration": 0.6758280000000028
                },
                {
                    "name": "F#4",
                    "midi": 66,
                    "time": 49.33544400000002,
                    "velocity": 0.2755905511811024,
                    "duration": 0.6758280000000028
                },
                {
                    "name": "G3",
                    "midi": 55,
                    "time": 50.01127200000002,
                    "velocity": 0.30708661417322836,
                    "duration": 1.3516559999999913
                },
                {
                    "name": "B3",
                    "midi": 59,
                    "time": 50.34918600000002,
                    "velocity": 0.2204724409448819,
                    "duration": 0.3379139999999978
                },
                {
                    "name": "D4",
                    "midi": 62,
                    "time": 50.687100000000015,
                    "velocity": 0.25196850393700787,
                    "duration": 0.3379139999999978
                },
                {
                    "name": "B3",
                    "midi": 59,
                    "time": 51.02501400000001,
                    "velocity": 0.2125984251968504,
                    "duration": 0.3379139999999978
                },
                {
                    "name": "C3",
                    "midi": 48,
                    "time": 51.36292800000001,
                    "velocity": 0.30708661417322836,
                    "duration": 1.3516559999999913
                },
                {
                    "name": "E3",
                    "midi": 52,
                    "time": 51.70084200000001,
                    "velocity": 0.2125984251968504,
                    "duration": 0.3379139999999978
                },
                {
                    "name": "A3",
                    "midi": 57,
                    "time": 52.03875600000001,
                    "velocity": 0.25196850393700787,
                    "duration": 0.3379139999999978
                },
                {
                    "name": "E3",
                    "midi": 52,
                    "time": 52.376670000000004,
                    "velocity": 0.2204724409448819,
                    "duration": 0.3379139999999978
                },
                {
                    "name": "D3",
                    "midi": 50,
                    "time": 52.714584,
                    "velocity": 0.30708661417322836,
                    "duration": 1.3516559999999984
                },
                {
                    "name": "C4",
                    "midi": 60,
                    "time": 53.05249800000001,
                    "velocity": 0.2283464566929134,
                    "duration": 0.3379139999999978
                },
                {
                    "name": "A3",
                    "midi": 57,
                    "time": 53.390412000000005,
                    "velocity": 0.25196850393700787,
                    "duration": 0.3379139999999978
                },
                {
                    "name": "C4",
                    "midi": 60,
                    "time": 53.728326,
                    "velocity": 0.2283464566929134,
                    "duration": 0.3379139999999978
                },
                {
                    "name": "G3",
                    "midi": 55,
                    "time": 54.06624,
                    "velocity": 0.30708661417322836,
                    "duration": 1.3516559999999913
                },
                {
                    "name": "B3",
                    "midi": 59,
                    "time": 54.404154,
                    "velocity": 0.2283464566929134,
                    "duration": 0.3379139999999978
                },
                {
                    "name": "D4",
                    "midi": 62,
                    "time": 54.742067999999996,
                    "velocity": 0.25196850393700787,
                    "duration": 0.3379139999999978
                },
                {
                    "name": "B3",
                    "midi": 59,
                    "time": 55.079981999999994,
                    "velocity": 0.2283464566929134,
                    "duration": 0.3379139999999978
                },
                {
                    "name": "E3",
                    "midi": 52,
                    "time": 55.41789599999999,
                    "velocity": 0.30708661417322836,
                    "duration": 1.3516559999999984
                },
                {
                    "name": "G3",
                    "midi": 55,
                    "time": 55.75581,
                    "velocity": 0.2283464566929134,
                    "duration": 0.3379139999999978
                },
                {
                    "name": "B3",
                    "midi": 59,
                    "time": 56.093723999999995,
                    "velocity": 0.25196850393700787,
                    "duration": 0.3379139999999978
                },
                {
                    "name": "G3",
                    "midi": 55,
                    "time": 56.43163799999999,
                    "velocity": 0.23622047244094488,
                    "duration": 0.3379139999999978
                },
                {
                    "name": "C3",
                    "midi": 48,
                    "time": 56.76955199999999,
                    "velocity": 0.30708661417322836,
                    "duration": 1.3516559999999913
                },
                {
                    "name": "E3",
                    "midi": 52,
                    "time": 57.10746599999999,
                    "velocity": 0.2283464566929134,
                    "duration": 0.3379139999999978
                },
                {
                    "name": "A3",
                    "midi": 57,
                    "time": 57.445379999999986,
                    "velocity": 0.25196850393700787,
                    "duration": 0.3379139999999978
                },
                {
                    "name": "E3",
                    "midi": 52,
                    "time": 57.783293999999984,
                    "velocity": 0.2283464566929134,
                    "duration": 0.3379139999999978
                },
                {
                    "name": "D3",
                    "midi": 50,
                    "time": 58.12120799999998,
                    "velocity": 0.30708661417322836,
                    "duration": 1.3516559999999984
                },
                {
                    "name": "C4",
                    "midi": 60,
                    "time": 58.45912199999999,
                    "velocity": 0.23622047244094488,
                    "duration": 0.3379139999999978
                },
                {
                    "name": "A3",
                    "midi": 57,
                    "time": 58.797035999999984,
                    "velocity": 0.25196850393700787,
                    "duration": 0.3379139999999978
                },
                {
                    "name": "C4",
                    "midi": 60,
                    "time": 59.13494999999998,
                    "velocity": 0.2283464566929134,
                    "duration": 0.3379139999999978
                },
                {
                    "name": "B3",
                    "midi": 59,
                    "time": 59.47286399999998,
                    "velocity": 0.30708661417322836,
                    "duration": 1.3516559999999984
                },
                {
                    "name": "G3",
                    "midi": 55,
                    "time": 59.47286399999998,
                    "velocity": 0.25984251968503935,
                    "duration": 1.3516559999999984
                },
                {
                    "name": "A3",
                    "midi": 57,
                    "time": 60.82451999999998,
                    "velocity": 0.2992125984251969,
                    "duration": 0.6420365999999973
                },
                {
                    "name": "F#3",
                    "midi": 54,
                    "time": 60.82451999999998,
                    "velocity": 0.25196850393700787,
                    "duration": 0.6420365999999973
                },
                {
                    "name": "B2",
                    "midi": 47,
                    "time": 60.82451999999998,
                    "velocity": 0.25196850393700787,
                    "duration": 0.6420365999999973
                },
                {
                    "name": "B2",
                    "midi": 47,
                    "time": 61.500347999999974,
                    "velocity": 0.25196850393700787,
                    "duration": 0.6420365999999973
                },
                {
                    "name": "A3",
                    "midi": 57,
                    "time": 61.500347999999974,
                    "velocity": 0.2992125984251969,
                    "duration": 0.6420365999999973
                },
                {
                    "name": "F#3",
                    "midi": 54,
                    "time": 61.500347999999974,
                    "velocity": 0.25196850393700787,
                    "duration": 0.6420365999999973
                },
                {
                    "name": "G3",
                    "midi": 55,
                    "time": 62.17617599999997,
                    "velocity": 0.3228346456692913,
                    "duration": 1.3516559999999984
                },
                {
                    "name": "E3",
                    "midi": 52,
                    "time": 62.17617599999997,
                    "velocity": 0.2677165354330709,
                    "duration": 1.3516559999999984
                },
                {
                    "name": "G3",
                    "midi": 55,
                    "time": 63.52783199999997,
                    "velocity": 0.29133858267716534,
                    "duration": 0.6758280000000028
                },
                {
                    "name": "A2",
                    "midi": 45,
                    "time": 63.52783199999997,
                    "velocity": 0.2440944881889764,
                    "duration": 0.6758280000000028
                },
                {
                    "name": "E3",
                    "midi": 52,
                    "time": 63.52783199999997,
                    "velocity": 0.2440944881889764,
                    "duration": 0.6758280000000028
                },
                {
                    "name": "G3",
                    "midi": 55,
                    "time": 64.20365999999997,
                    "velocity": 0.33070866141732286,
                    "duration": 0.6758279999999957
                },
                {
                    "name": "E3",
                    "midi": 52,
                    "time": 64.20365999999997,
                    "velocity": 0.2755905511811024,
                    "duration": 0.6758279999999957
                },
                {
                    "name": "A2",
                    "midi": 45,
                    "time": 64.20365999999997,
                    "velocity": 0.2755905511811024,
                    "duration": 0.6758279999999957
                },
                {
                    "name": "D3",
                    "midi": 50,
                    "time": 64.87948799999997,
                    "velocity": 0.29133858267716534,
                    "duration": 1.3516560000000055
                },
                {
                    "name": "F#3",
                    "midi": 54,
                    "time": 64.87948799999997,
                    "velocity": 0.3464566929133858,
                    "duration": 1.3516560000000055
                },
                {
                    "name": "B2",
                    "midi": 47,
                    "time": 66.23114399999997,
                    "velocity": 0.4015748031496063,
                    "duration": 0.6420365999999973
                },
                {
                    "name": "B3",
                    "midi": 59,
                    "time": 66.23114399999997,
                    "velocity": 0.48031496062992124,
                    "duration": 0.6420365999999973
                },
                {
                    "name": "B2",
                    "midi": 47,
                    "time": 66.90697199999997,
                    "velocity": 0.3779527559055118,
                    "duration": 0.6420365999999973
                },
                {
                    "name": "B3",
                    "midi": 59,
                    "time": 66.90697199999997,
                    "velocity": 0.44881889763779526,
                    "duration": 0.6420365999999973
                },
                {
                    "name": "B2",
                    "midi": 47,
                    "time": 67.58279999999996,
                    "velocity": 0.4015748031496063,
                    "duration": 1.2164903999999979
                },
                {
                    "name": "B3",
                    "midi": 59,
                    "time": 67.58279999999996,
                    "velocity": 0.48031496062992124,
                    "duration": 1.2164903999999979
                },
                {
                    "name": "E4",
                    "midi": 64,
                    "time": 68.93445599999995,
                    "velocity": 0.29133858267716534,
                    "duration": 0.5406624000000022
                },
                {
                    "name": "A3",
                    "midi": 57,
                    "time": 68.93445599999995,
                    "velocity": 0.2440944881889764,
                    "duration": 0.5406624000000022
                },
                {
                    "name": "E4",
                    "midi": 64,
                    "time": 69.61028399999995,
                    "velocity": 0.2755905511811024,
                    "duration": 0.5406624000000022
                },
                {
                    "name": "A3",
                    "midi": 57,
                    "time": 69.61028399999995,
                    "velocity": 0.2283464566929134,
                    "duration": 0.5406624000000022
                },
                {
                    "name": "A3",
                    "midi": 57,
                    "time": 70.28611199999995,
                    "velocity": 0.2440944881889764,
                    "duration": 1.3516560000000055
                },
                {
                    "name": "E4",
                    "midi": 64,
                    "time": 70.28611199999995,
                    "velocity": 0.29133858267716534,
                    "duration": 1.3516560000000055
                },
                {
                    "name": "D4",
                    "midi": 62,
                    "time": 72.98942399999996,
                    "velocity": 0.2677165354330709,
                    "duration": 0.33791400000001204
                },
                {
                    "name": "F#4",
                    "midi": 66,
                    "time": 73.32733799999997,
                    "velocity": 0.2283464566929134,
                    "duration": 0.3379139999999978
                },
                {
                    "name": "A4",
                    "midi": 69,
                    "time": 73.66525199999997,
                    "velocity": 0.2283464566929134,
                    "duration": 0.3379139999999978
                },
                {
                    "name": "F#4",
                    "midi": 66,
                    "time": 74.00316599999996,
                    "velocity": 0.2283464566929134,
                    "duration": 0.3379139999999978
                },
                {
                    "name": "D4",
                    "midi": 62,
                    "time": 74.34107999999996,
                    "velocity": 0.2677165354330709,
                    "duration": 0.3379139999999978
                },
                {
                    "name": "F#4",
                    "midi": 66,
                    "time": 74.67899399999996,
                    "velocity": 0.23622047244094488,
                    "duration": 0.3379139999999978
                },
                {
                    "name": "A4",
                    "midi": 69,
                    "time": 75.01690799999996,
                    "velocity": 0.23622047244094488,
                    "duration": 0.3379139999999978
                },
                {
                    "name": "F#4",
                    "midi": 66,
                    "time": 75.35482199999996,
                    "velocity": 0.23622047244094488,
                    "duration": 0.3379139999999978
                },
                {
                    "name": "D4",
                    "midi": 62,
                    "time": 75.69273599999995,
                    "velocity": 0.2677165354330709,
                    "duration": 0.3379139999999978
                },
                {
                    "name": "E4",
                    "midi": 64,
                    "time": 76.03064999999995,
                    "velocity": 0.2440944881889764,
                    "duration": 0.3379139999999978
                },
                {
                    "name": "B4",
                    "midi": 71,
                    "time": 76.36856399999995,
                    "velocity": 0.2440944881889764,
                    "duration": 0.3379139999999978
                },
                {
                    "name": "E4",
                    "midi": 64,
                    "time": 76.70647799999995,
                    "velocity": 0.2440944881889764,
                    "duration": 0.3379139999999978
                },
                {
                    "name": "D4",
                    "midi": 62,
                    "time": 77.04439199999995,
                    "velocity": 0.2677165354330709,
                    "duration": 0.3379139999999978
                },
                {
                    "name": "E4",
                    "midi": 64,
                    "time": 77.38230599999994,
                    "velocity": 0.23622047244094488,
                    "duration": 0.3379139999999978
                },
                {
                    "name": "B4",
                    "midi": 71,
                    "time": 77.72021999999994,
                    "velocity": 0.23622047244094488,
                    "duration": 0.3379139999999978
                },
                {
                    "name": "E4",
                    "midi": 64,
                    "time": 78.05813399999994,
                    "velocity": 0.23622047244094488,
                    "duration": 0.3379139999999978
                },
                {
                    "name": "C#4",
                    "midi": 61,
                    "time": 78.39604799999994,
                    "velocity": 0.2677165354330709,
                    "duration": 0.3379139999999978
                },
                {
                    "name": "E4",
                    "midi": 64,
                    "time": 78.73396199999993,
                    "velocity": 0.2440944881889764,
                    "duration": 0.3379139999999978
                },
                {
                    "name": "A4",
                    "midi": 69,
                    "time": 79.07187599999993,
                    "velocity": 0.2440944881889764,
                    "duration": 0.3379139999999978
                },
                {
                    "name": "E4",
                    "midi": 64,
                    "time": 79.40978999999993,
                    "velocity": 0.2440944881889764,
                    "duration": 0.3379139999999978
                },
                {
                    "name": "B3",
                    "midi": 59,
                    "time": 79.74770399999993,
                    "velocity": 0.2677165354330709,
                    "duration": 0.33791400000001204
                },
                {
                    "name": "D4",
                    "midi": 62,
                    "time": 80.08561799999994,
                    "velocity": 0.2440944881889764,
                    "duration": 0.3379139999999978
                },
                {
                    "name": "G4",
                    "midi": 67,
                    "time": 80.42353199999994,
                    "velocity": 0.2440944881889764,
                    "duration": 0.3379139999999978
                },
                {
                    "name": "D4",
                    "midi": 62,
                    "time": 80.76144599999994,
                    "velocity": 0.2204724409448819,
                    "duration": 0.3379139999999978
                },
                {
                    "name": "A#3",
                    "midi": 58,
                    "time": 81.09935999999993,
                    "velocity": 0.2440944881889764,
                    "duration": 0.3379139999999978
                },
                {
                    "name": "C#4",
                    "midi": 61,
                    "time": 81.43727399999993,
                    "velocity": 0.25196850393700787,
                    "duration": 0.3379139999999978
                },
                {
                    "name": "E4",
                    "midi": 64,
                    "time": 81.77518799999993,
                    "velocity": 0.25196850393700787,
                    "duration": 0.3379139999999978
                },
                {
                    "name": "A#3",
                    "midi": 58,
                    "time": 82.11310199999993,
                    "velocity": 0.25196850393700787,
                    "duration": 0.3379139999999978
                },
                {
                    "name": "B3",
                    "midi": 59,
                    "time": 82.45101599999992,
                    "velocity": 0.2677165354330709,
                    "duration": 0.3379139999999978
                },
                {
                    "name": "F#4",
                    "midi": 66,
                    "time": 82.78892999999992,
                    "velocity": 0.25196850393700787,
                    "duration": 0.3379139999999978
                },
                {
                    "name": "A3",
                    "midi": 57,
                    "time": 83.12684399999992,
                    "velocity": 0.25196850393700787,
                    "duration": 0.3379139999999978
                },
                {
                    "name": "D4",
                    "midi": 62,
                    "time": 83.46475799999992,
                    "velocity": 0.25196850393700787,
                    "duration": 0.3379139999999978
                },
                {
                    "name": "G#3",
                    "midi": 56,
                    "time": 83.80267199999992,
                    "velocity": 0.2677165354330709,
                    "duration": 0.33791400000001204
                },
                {
                    "name": "B3",
                    "midi": 59,
                    "time": 84.14058599999993,
                    "velocity": 0.2125984251968504,
                    "duration": 0.3379139999999978
                },
                {
                    "name": "D4",
                    "midi": 62,
                    "time": 84.47849999999993,
                    "velocity": 0.2440944881889764,
                    "duration": 0.3379139999999978
                },
                {
                    "name": "B3",
                    "midi": 59,
                    "time": 84.81641399999992,
                    "velocity": 0.2204724409448819,
                    "duration": 0.3379139999999978
                },
                {
                    "name": "G#3",
                    "midi": 56,
                    "time": 85.15432799999992,
                    "velocity": 0.2677165354330709,
                    "duration": 0.3379139999999978
                },
                {
                    "name": "B3",
                    "midi": 59,
                    "time": 85.49224199999992,
                    "velocity": 0.2283464566929134,
                    "duration": 0.3379139999999978
                },
                {
                    "name": "D4",
                    "midi": 62,
                    "time": 85.83015599999992,
                    "velocity": 0.25196850393700787,
                    "duration": 0.3379139999999978
                },
                {
                    "name": "B3",
                    "midi": 59,
                    "time": 86.16806999999991,
                    "velocity": 0.2283464566929134,
                    "duration": 0.3379139999999978
                },
                {
                    "name": "G3",
                    "midi": 55,
                    "time": 86.50598399999991,
                    "velocity": 0.2677165354330709,
                    "duration": 0.33791400000001204
                },
                {
                    "name": "C#4",
                    "midi": 61,
                    "time": 86.84389799999992,
                    "velocity": 0.2047244094488189,
                    "duration": 0.3379139999999978
                },
                {
                    "name": "E4",
                    "midi": 64,
                    "time": 87.18181199999992,
                    "velocity": 0.2283464566929134,
                    "duration": 0.3379139999999978
                },
                {
                    "name": "G3",
                    "midi": 55,
                    "time": 87.51972599999992,
                    "velocity": 0.1968503937007874,
                    "duration": 0.3379139999999978
                },
                {
                    "name": "F#3",
                    "midi": 54,
                    "time": 87.85763999999992,
                    "velocity": 0.2677165354330709,
                    "duration": 0.3379139999999978
                },
                {
                    "name": "D4",
                    "midi": 62,
                    "time": 88.19555399999992,
                    "velocity": 0.2047244094488189,
                    "duration": 0.3379139999999978
                },
                {
                    "name": "B3",
                    "midi": 59,
                    "time": 88.53346799999991,
                    "velocity": 0.2283464566929134,
                    "duration": 0.3379139999999978
                },
                {
                    "name": "A3",
                    "midi": 57,
                    "time": 88.87138199999991,
                    "velocity": 0.2047244094488189,
                    "duration": 0.3379139999999978
                },
                {
                    "name": "B3",
                    "midi": 59,
                    "time": 89.20929599999991,
                    "velocity": 0.25984251968503935,
                    "duration": 2.027484000000001
                },
                {
                    "name": "G3",
                    "midi": 55,
                    "time": 89.20929599999991,
                    "velocity": 0.25984251968503935,
                    "duration": 2.027484000000001
                },
                {
                    "name": "E4",
                    "midi": 64,
                    "time": 91.23677999999991,
                    "velocity": 0.25196850393700787,
                    "duration": 0.6758279999999957
                },
                {
                    "name": "G#3",
                    "midi": 56,
                    "time": 91.23677999999991,
                    "velocity": 0.25196850393700787,
                    "duration": 0.6758279999999957
                },
                {
                    "name": "E4",
                    "midi": 64,
                    "time": 91.9126079999999,
                    "velocity": 0.2755905511811024,
                    "duration": 1.3516560000000055
                },
                {
                    "name": "A3",
                    "midi": 57,
                    "time": 91.9126079999999,
                    "velocity": 0.2755905511811024,
                    "duration": 1.3516560000000055
                },
                {
                    "name": "D5",
                    "midi": 74,
                    "time": 94.61591999999992,
                    "velocity": 0.28346456692913385,
                    "duration": 0.3379139999999978
                },
                {
                    "name": "A4",
                    "midi": 69,
                    "time": 94.95383399999992,
                    "velocity": 0.2283464566929134,
                    "duration": 0.3379139999999978
                },
                {
                    "name": "D5",
                    "midi": 74,
                    "time": 95.29174799999991,
                    "velocity": 0.25984251968503935,
                    "duration": 0.33791400000001204
                },
                {
                    "name": "A4",
                    "midi": 69,
                    "time": 95.62966199999993,
                    "velocity": 0.2283464566929134,
                    "duration": 0.3379139999999978
                },
                {
                    "name": "C#5",
                    "midi": 73,
                    "time": 95.96757599999992,
                    "velocity": 0.28346456692913385,
                    "duration": 0.3379139999999978
                },
                {
                    "name": "A4",
                    "midi": 69,
                    "time": 96.30548999999992,
                    "velocity": 0.2204724409448819,
                    "duration": 0.3379139999999978
                },
                {
                    "name": "D5",
                    "midi": 74,
                    "time": 96.64340399999992,
                    "velocity": 0.25196850393700787,
                    "duration": 0.3379139999999978
                },
                {
                    "name": "A4",
                    "midi": 69,
                    "time": 96.98131799999992,
                    "velocity": 0.2204724409448819,
                    "duration": 0.3379139999999978
                },
                {
                    "name": "E5",
                    "midi": 76,
                    "time": 97.31923199999991,
                    "velocity": 0.28346456692913385,
                    "duration": 0.3379139999999978
                },
                {
                    "name": "A4",
                    "midi": 69,
                    "time": 97.65714599999991,
                    "velocity": 0.2204724409448819,
                    "duration": 0.3379139999999978
                },
                {
                    "name": "C#5",
                    "midi": 73,
                    "time": 97.99505999999991,
                    "velocity": 0.2440944881889764,
                    "duration": 0.33791400000001204
                },
                {
                    "name": "A4",
                    "midi": 69,
                    "time": 98.33297399999992,
                    "velocity": 0.2204724409448819,
                    "duration": 0.3379139999999978
                },
                {
                    "name": "D5",
                    "midi": 74,
                    "time": 98.67088799999992,
                    "velocity": 0.28346456692913385,
                    "duration": 0.3379139999999978
                },
                {
                    "name": "A4",
                    "midi": 69,
                    "time": 99.00880199999992,
                    "velocity": 0.2283464566929134,
                    "duration": 0.3379139999999978
                },
                {
                    "name": "D5",
                    "midi": 74,
                    "time": 99.34671599999992,
                    "velocity": 0.25984251968503935,
                    "duration": 0.3379139999999978
                },
                {
                    "name": "A4",
                    "midi": 69,
                    "time": 99.68462999999991,
                    "velocity": 0.2283464566929134,
                    "duration": 0.3379139999999978
                },
                {
                    "name": "D4",
                    "midi": 62,
                    "time": 100.02254399999991,
                    "velocity": 0.2992125984251969,
                    "duration": 0.6758280000000099
                },
                {
                    "name": "F#4",
                    "midi": 66,
                    "time": 100.02254399999991,
                    "velocity": 0.3543307086614173,
                    "duration": 0.6758280000000099
                },
                {
                    "name": "E4",
                    "midi": 64,
                    "time": 100.69837199999992,
                    "velocity": 0.2992125984251969,
                    "duration": 0.5068710000000038
                },
                {
                    "name": "G4",
                    "midi": 67,
                    "time": 100.69837199999992,
                    "velocity": 0.3543307086614173,
                    "duration": 0.5068710000000038
                },
                {
                    "name": "D4",
                    "midi": 62,
                    "time": 101.20524299999992,
                    "velocity": 0.2755905511811024,
                    "duration": 0.16895700000000602
                },
                {
                    "name": "F#4",
                    "midi": 66,
                    "time": 101.20524299999992,
                    "velocity": 0.33070866141732286,
                    "duration": 0.16895700000000602
                },
                {
                    "name": "C#4",
                    "midi": 61,
                    "time": 101.37419999999993,
                    "velocity": 0.2992125984251969,
                    "duration": 0.6758279999999957
                },
                {
                    "name": "E4",
                    "midi": 64,
                    "time": 101.37419999999993,
                    "velocity": 0.3543307086614173,
                    "duration": 0.6758279999999957
                },
                {
                    "name": "D4",
                    "midi": 62,
                    "time": 102.05002799999993,
                    "velocity": 0.2677165354330709,
                    "duration": 0.6758279999999957
                },
                {
                    "name": "F#4",
                    "midi": 66,
                    "time": 102.05002799999993,
                    "velocity": 0.3228346456692913,
                    "duration": 0.6758279999999957
                },
                {
                    "name": "E4",
                    "midi": 64,
                    "time": 102.72585599999992,
                    "velocity": 0.2992125984251969,
                    "duration": 0.6758280000000099
                },
                {
                    "name": "G4",
                    "midi": 67,
                    "time": 102.72585599999992,
                    "velocity": 0.3543307086614173,
                    "duration": 0.6758280000000099
                },
                {
                    "name": "F#4",
                    "midi": 66,
                    "time": 103.40168399999993,
                    "velocity": 0.2677165354330709,
                    "duration": 0.6758280000000099
                },
                {
                    "name": "A4",
                    "midi": 69,
                    "time": 103.40168399999993,
                    "velocity": 0.3228346456692913,
                    "duration": 0.6758280000000099
                },
                {
                    "name": "E4",
                    "midi": 64,
                    "time": 104.07751199999994,
                    "velocity": 0.2755905511811024,
                    "duration": 0.6758279999999957
                },
                {
                    "name": "G4",
                    "midi": 67,
                    "time": 104.07751199999994,
                    "velocity": 0.33070866141732286,
                    "duration": 0.6758279999999957
                },
                {
                    "name": "D4",
                    "midi": 62,
                    "time": 104.75333999999994,
                    "velocity": 0.2992125984251969,
                    "duration": 0.6758280000000099
                },
                {
                    "name": "F#4",
                    "midi": 66,
                    "time": 104.75333999999994,
                    "velocity": 0.3543307086614173,
                    "duration": 0.6758280000000099
                },
                {
                    "name": "F#4",
                    "midi": 66,
                    "time": 105.42916799999995,
                    "velocity": 0.4645669291338583,
                    "duration": 0.6758279999999957
                },
                {
                    "name": "A4",
                    "midi": 69,
                    "time": 105.42916799999995,
                    "velocity": 0.4645669291338583,
                    "duration": 0.6758279999999957
                },
                {
                    "name": "E4",
                    "midi": 64,
                    "time": 106.10499599999994,
                    "velocity": 0.33070866141732286,
                    "duration": 0.6758279999999957
                },
                {
                    "name": "G4",
                    "midi": 67,
                    "time": 106.10499599999994,
                    "velocity": 0.33070866141732286,
                    "duration": 0.6758279999999957
                },
                {
                    "name": "A#4",
                    "midi": 70,
                    "time": 106.10499599999994,
                    "velocity": 0.4015748031496063,
                    "duration": 0.6758279999999957
                },
                {
                    "name": "D4",
                    "midi": 62,
                    "time": 106.78082399999994,
                    "velocity": 0.3464566929133858,
                    "duration": 0.6758279999999957
                },
                {
                    "name": "F#4",
                    "midi": 66,
                    "time": 106.78082399999994,
                    "velocity": 0.41732283464566927,
                    "duration": 0.6758279999999957
                },
                {
                    "name": "D4",
                    "midi": 62,
                    "time": 108.13247999999993,
                    "velocity": 0.2283464566929134,
                    "duration": 0.6758279999999957
                },
                {
                    "name": "F#4",
                    "midi": 66,
                    "time": 108.13247999999993,
                    "velocity": 0.2755905511811024,
                    "duration": 0.6758279999999957
                },
                {
                    "name": "C4",
                    "midi": 60,
                    "time": 108.80830799999993,
                    "velocity": 0.2283464566929134,
                    "duration": 0.6758279999999957
                },
                {
                    "name": "D4",
                    "midi": 62,
                    "time": 108.80830799999993,
                    "velocity": 0.2283464566929134,
                    "duration": 0.6758279999999957
                },
                {
                    "name": "F#4",
                    "midi": 66,
                    "time": 108.80830799999993,
                    "velocity": 0.2755905511811024,
                    "duration": 0.6758279999999957
                },
                {
                    "name": "B3",
                    "midi": 59,
                    "time": 109.48413599999992,
                    "velocity": 0.2283464566929134,
                    "duration": 0.6758279999999957
                },
                {
                    "name": "D4",
                    "midi": 62,
                    "time": 109.48413599999992,
                    "velocity": 0.2755905511811024,
                    "duration": 0.6758279999999957
                },
                {
                    "name": "D#4",
                    "midi": 63,
                    "time": 111.51161999999992,
                    "velocity": 0.4015748031496063,
                    "duration": 0.6758279999999957
                },
                {
                    "name": "D#4",
                    "midi": 63,
                    "time": 122.32486799999991,
                    "velocity": 0.4015748031496063,
                    "duration": 0.6758279999999957
                },
                {
                    "name": "G3",
                    "midi": 55,
                    "time": 141.9435916499999,
                    "velocity": 0.31496062992125984,
                    "duration": 0.6758279999999957
                },
                {
                    "name": "F#3",
                    "midi": 54,
                    "time": 142.59970799999988,
                    "velocity": 0.2755905511811024,
                    "duration": 0.6758279999999957
                },
                {
                    "name": "B3",
                    "midi": 59,
                    "time": 162.19871999999987,
                    "velocity": 0.2992125984251969,
                    "duration": 1.3516559999999913
                },
                {
                    "name": "G3",
                    "midi": 55,
                    "time": 162.19871999999987,
                    "velocity": 0.2992125984251969,
                    "duration": 1.3516559999999913
                },
                {
                    "name": "D#3",
                    "midi": 51,
                    "time": 163.55037599999986,
                    "velocity": 0.4015748031496063,
                    "duration": 0.6420366000000115
                },
                {
                    "name": "D#4",
                    "midi": 63,
                    "time": 163.55037599999986,
                    "velocity": 0.48031496062992124,
                    "duration": 0.6420366000000115
                },
                {
                    "name": "D#3",
                    "midi": 51,
                    "time": 164.22620399999988,
                    "velocity": 0.3779527559055118,
                    "duration": 0.6420366000000115
                },
                {
                    "name": "D#4",
                    "midi": 63,
                    "time": 164.22620399999988,
                    "velocity": 0.44881889763779526,
                    "duration": 0.6420366000000115
                },
                {
                    "name": "D#3",
                    "midi": 51,
                    "time": 164.9020319999999,
                    "velocity": 0.4015748031496063,
                    "duration": 1.2164903999999979
                },
                {
                    "name": "D#4",
                    "midi": 63,
                    "time": 164.9020319999999,
                    "velocity": 0.48031496062992124,
                    "duration": 1.2164903999999979
                },
                {
                    "name": "A4",
                    "midi": 69,
                    "time": 166.2536879999999,
                    "velocity": 0.29133858267716534,
                    "duration": 0.5406624000000022
                },
                {
                    "name": "D4",
                    "midi": 62,
                    "time": 166.2536879999999,
                    "velocity": 0.2440944881889764,
                    "duration": 0.5406624000000022
                },
                {
                    "name": "A4",
                    "midi": 69,
                    "time": 166.9295159999999,
                    "velocity": 0.2755905511811024,
                    "duration": 0.5406624000000022
                },
                {
                    "name": "D4",
                    "midi": 62,
                    "time": 166.9295159999999,
                    "velocity": 0.2283464566929134,
                    "duration": 0.5406624000000022
                },
                {
                    "name": "D4",
                    "midi": 62,
                    "time": 167.6053439999999,
                    "velocity": 0.2440944881889764,
                    "duration": 1.3516559999999913
                },
                {
                    "name": "A4",
                    "midi": 69,
                    "time": 167.6053439999999,
                    "velocity": 0.29133858267716534,
                    "duration": 1.3516559999999913
                },
                {
                    "name": "G3",
                    "midi": 55,
                    "time": 170.30865599999987,
                    "velocity": 0.2677165354330709,
                    "duration": 0.3379139999999836
                },
                {
                    "name": "B3",
                    "midi": 59,
                    "time": 170.64656999999985,
                    "velocity": 0.2283464566929134,
                    "duration": 0.33791400000001204
                },
                {
                    "name": "D4",
                    "midi": 62,
                    "time": 170.98448399999987,
                    "velocity": 0.2283464566929134,
                    "duration": 0.33791400000001204
                },
                {
                    "name": "B3",
                    "midi": 59,
                    "time": 171.32239799999988,
                    "velocity": 0.2283464566929134,
                    "duration": 0.33791400000001204
                },
                {
                    "name": "G3",
                    "midi": 55,
                    "time": 171.6603119999999,
                    "velocity": 0.2677165354330709,
                    "duration": 0.3379139999999836
                },
                {
                    "name": "B3",
                    "midi": 59,
                    "time": 171.99822599999987,
                    "velocity": 0.23622047244094488,
                    "duration": 0.33791400000001204
                },
                {
                    "name": "D4",
                    "midi": 62,
                    "time": 172.3361399999999,
                    "velocity": 0.23622047244094488,
                    "duration": 0.33791400000001204
                },
                {
                    "name": "B3",
                    "midi": 59,
                    "time": 172.6740539999999,
                    "velocity": 0.23622047244094488,
                    "duration": 0.33791400000001204
                },
                {
                    "name": "G3",
                    "midi": 55,
                    "time": 173.0119679999999,
                    "velocity": 0.2677165354330709,
                    "duration": 0.33791400000001204
                },
                {
                    "name": "A3",
                    "midi": 57,
                    "time": 173.34988199999992,
                    "velocity": 0.2440944881889764,
                    "duration": 0.33791400000001204
                },
                {
                    "name": "E4",
                    "midi": 64,
                    "time": 173.68779599999993,
                    "velocity": 0.2440944881889764,
                    "duration": 0.33791400000001204
                },
                {
                    "name": "A3",
                    "midi": 57,
                    "time": 174.02570999999995,
                    "velocity": 0.2440944881889764,
                    "duration": 0.33791400000001204
                },
                {
                    "name": "G3",
                    "midi": 55,
                    "time": 174.36362399999996,
                    "velocity": 0.2677165354330709,
                    "duration": 0.33791400000001204
                },
                {
                    "name": "A3",
                    "midi": 57,
                    "time": 174.70153799999997,
                    "velocity": 0.23622047244094488,
                    "duration": 0.33791400000001204
                },
                {
                    "name": "E4",
                    "midi": 64,
                    "time": 175.03945199999998,
                    "velocity": 0.23622047244094488,
                    "duration": 0.33791400000001204
                },
                {
                    "name": "A3",
                    "midi": 57,
                    "time": 175.377366,
                    "velocity": 0.23622047244094488,
                    "duration": 0.33791400000001204
                },
                {
                    "name": "F#3",
                    "midi": 54,
                    "time": 175.71528,
                    "velocity": 0.2677165354330709,
                    "duration": 0.33791400000001204
                },
                {
                    "name": "A3",
                    "midi": 57,
                    "time": 176.05319400000002,
                    "velocity": 0.2440944881889764,
                    "duration": 0.33791400000001204
                },
                {
                    "name": "D4",
                    "midi": 62,
                    "time": 176.39110800000003,
                    "velocity": 0.2440944881889764,
                    "duration": 0.33791400000001204
                },
                {
                    "name": "A3",
                    "midi": 57,
                    "time": 176.72902200000004,
                    "velocity": 0.2440944881889764,
                    "duration": 0.33791400000001204
                },
                {
                    "name": "E3",
                    "midi": 52,
                    "time": 177.06693600000006,
                    "velocity": 0.2677165354330709,
                    "duration": 0.3379139999999836
                },
                {
                    "name": "A3",
                    "midi": 57,
                    "time": 177.40485000000004,
                    "velocity": 0.2440944881889764,
                    "duration": 0.33791400000001204
                },
                {
                    "name": "C4",
                    "midi": 60,
                    "time": 177.74276400000005,
                    "velocity": 0.2440944881889764,
                    "duration": 0.33791400000001204
                },
                {
                    "name": "A3",
                    "midi": 57,
                    "time": 178.08067800000006,
                    "velocity": 0.2204724409448819,
                    "duration": 0.33791400000001204
                },
                {
                    "name": "D#3",
                    "midi": 51,
                    "time": 178.41859200000007,
                    "velocity": 0.2440944881889764,
                    "duration": 0.33791400000001204
                },
                {
                    "name": "F#3",
                    "midi": 54,
                    "time": 178.7565060000001,
                    "velocity": 0.25196850393700787,
                    "duration": 0.33791400000001204
                },
                {
                    "name": "A3",
                    "midi": 57,
                    "time": 179.0944200000001,
                    "velocity": 0.25196850393700787,
                    "duration": 0.33791400000001204
                },
                {
                    "name": "D#3",
                    "midi": 51,
                    "time": 179.4323340000001,
                    "velocity": 0.25196850393700787,
                    "duration": 0.33791400000001204
                },
                {
                    "name": "E3",
                    "midi": 52,
                    "time": 179.77024800000012,
                    "velocity": 0.2677165354330709,
                    "duration": 0.3379139999999836
                },
                {
                    "name": "B3",
                    "midi": 59,
                    "time": 180.1081620000001,
                    "velocity": 0.25196850393700787,
                    "duration": 0.33791400000001204
                },
                {
                    "name": "D3",
                    "midi": 50,
                    "time": 180.44607600000012,
                    "velocity": 0.25196850393700787,
                    "duration": 0.33791400000001204
                },
                {
                    "name": "G3",
                    "midi": 55,
                    "time": 180.78399000000013,
                    "velocity": 0.25196850393700787,
                    "duration": 0.33791400000001204
                },
                {
                    "name": "C#3",
                    "midi": 49,
                    "time": 181.12190400000014,
                    "velocity": 0.2677165354330709,
                    "duration": 0.33791400000001204
                },
                {
                    "name": "E3",
                    "midi": 52,
                    "time": 181.45981800000015,
                    "velocity": 0.2125984251968504,
                    "duration": 0.33791400000001204
                },
                {
                    "name": "G3",
                    "midi": 55,
                    "time": 181.79773200000017,
                    "velocity": 0.2440944881889764,
                    "duration": 0.33791400000001204
                },
                {
                    "name": "E3",
                    "midi": 52,
                    "time": 182.13564600000018,
                    "velocity": 0.2204724409448819,
                    "duration": 0.33791400000001204
                },
                {
                    "name": "C#3",
                    "midi": 49,
                    "time": 182.4735600000002,
                    "velocity": 0.2677165354330709,
                    "duration": 0.3379139999999836
                },
                {
                    "name": "E3",
                    "midi": 52,
                    "time": 182.81147400000017,
                    "velocity": 0.2283464566929134,
                    "duration": 0.33791400000001204
                },
                {
                    "name": "G3",
                    "midi": 55,
                    "time": 183.1493880000002,
                    "velocity": 0.25196850393700787,
                    "duration": 0.33791400000001204
                },
                {
                    "name": "E3",
                    "midi": 52,
                    "time": 183.4873020000002,
                    "velocity": 0.2283464566929134,
                    "duration": 0.33791400000001204
                },
                {
                    "name": "C3",
                    "midi": 48,
                    "time": 183.8252160000002,
                    "velocity": 0.2677165354330709,
                    "duration": 0.3379139999999836
                },
                {
                    "name": "F#3",
                    "midi": 54,
                    "time": 184.1631300000002,
                    "velocity": 0.2047244094488189,
                    "duration": 0.33791400000001204
                },
                {
                    "name": "A3",
                    "midi": 57,
                    "time": 184.5010440000002,
                    "velocity": 0.2283464566929134,
                    "duration": 0.33791400000001204
                },
                {
                    "name": "C3",
                    "midi": 48,
                    "time": 184.83895800000022,
                    "velocity": 0.1968503937007874,
                    "duration": 0.33791400000001204
                },
                {
                    "name": "B2",
                    "midi": 47,
                    "time": 185.17687200000023,
                    "velocity": 0.2677165354330709,
                    "duration": 0.3379139999999836
                },
                {
                    "name": "G3",
                    "midi": 55,
                    "time": 185.5147860000002,
                    "velocity": 0.2047244094488189,
                    "duration": 0.33791400000001204
                },
                {
                    "name": "E3",
                    "midi": 52,
                    "time": 185.85270000000023,
                    "velocity": 0.2283464566929134,
                    "duration": 0.33791400000001204
                },
                {
                    "name": "D3",
                    "midi": 50,
                    "time": 186.19061400000024,
                    "velocity": 0.2047244094488189,
                    "duration": 0.33791400000001204
                },
                {
                    "name": "E3",
                    "midi": 52,
                    "time": 186.52852800000025,
                    "velocity": 0.25984251968503935,
                    "duration": 2.027483999999987
                },
                {
                    "name": "C3",
                    "midi": 48,
                    "time": 186.52852800000025,
                    "velocity": 0.25984251968503935,
                    "duration": 2.027483999999987
                },
                {
                    "name": "A3",
                    "midi": 57,
                    "time": 188.55601200000024,
                    "velocity": 0.25196850393700787,
                    "duration": 0.6758279999999957
                },
                {
                    "name": "C#3",
                    "midi": 49,
                    "time": 188.55601200000024,
                    "velocity": 0.25196850393700787,
                    "duration": 0.6758279999999957
                },
                {
                    "name": "A3",
                    "midi": 57,
                    "time": 189.23184000000023,
                    "velocity": 0.2755905511811024,
                    "duration": 1.3516559999999913
                },
                {
                    "name": "D3",
                    "midi": 50,
                    "time": 189.23184000000023,
                    "velocity": 0.2755905511811024,
                    "duration": 1.3516559999999913
                },
                {
                    "name": "G4",
                    "midi": 67,
                    "time": 191.93515200000022,
                    "velocity": 0.28346456692913385,
                    "duration": 0.3379139999999836
                },
                {
                    "name": "D4",
                    "midi": 62,
                    "time": 192.2730660000002,
                    "velocity": 0.2283464566929134,
                    "duration": 0.33791400000001204
                },
                {
                    "name": "G4",
                    "midi": 67,
                    "time": 192.6109800000002,
                    "velocity": 0.25984251968503935,
                    "duration": 0.3379139999999836
                },
                {
                    "name": "D4",
                    "midi": 62,
                    "time": 192.9488940000002,
                    "velocity": 0.2283464566929134,
                    "duration": 0.33791400000001204
                },
                {
                    "name": "F#4",
                    "midi": 66,
                    "time": 193.2868080000002,
                    "velocity": 0.28346456692913385,
                    "duration": 0.33791400000001204
                },
                {
                    "name": "D4",
                    "midi": 62,
                    "time": 193.62472200000022,
                    "velocity": 0.2204724409448819,
                    "duration": 0.33791400000001204
                },
                {
                    "name": "G4",
                    "midi": 67,
                    "time": 193.96263600000023,
                    "velocity": 0.25196850393700787,
                    "duration": 0.33791400000001204
                },
                {
                    "name": "D4",
                    "midi": 62,
                    "time": 194.30055000000024,
                    "velocity": 0.2204724409448819,
                    "duration": 0.33791400000001204
                },
                {
                    "name": "A4",
                    "midi": 69,
                    "time": 194.63846400000025,
                    "velocity": 0.28346456692913385,
                    "duration": 0.33791400000001204
                },
                {
                    "name": "D4",
                    "midi": 62,
                    "time": 194.97637800000027,
                    "velocity": 0.2204724409448819,
                    "duration": 0.33791400000001204
                },
                {
                    "name": "F#4",
                    "midi": 66,
                    "time": 195.31429200000028,
                    "velocity": 0.2440944881889764,
                    "duration": 0.3379139999999836
                },
                {
                    "name": "D4",
                    "midi": 62,
                    "time": 195.65220600000026,
                    "velocity": 0.2204724409448819,
                    "duration": 0.33791400000001204
                },
                {
                    "name": "G4",
                    "midi": 67,
                    "time": 195.99012000000027,
                    "velocity": 0.28346456692913385,
                    "duration": 0.33791400000001204
                },
                {
                    "name": "D4",
                    "midi": 62,
                    "time": 196.3280340000003,
                    "velocity": 0.2283464566929134,
                    "duration": 0.33791400000001204
                },
                {
                    "name": "G4",
                    "midi": 67,
                    "time": 196.6659480000003,
                    "velocity": 0.25984251968503935,
                    "duration": 0.33791400000001204
                },
                {
                    "name": "D4",
                    "midi": 62,
                    "time": 197.0038620000003,
                    "velocity": 0.2283464566929134,
                    "duration": 0.33791400000001204
                },
                {
                    "name": "G3",
                    "midi": 55,
                    "time": 197.34177600000032,
                    "velocity": 0.2992125984251969,
                    "duration": 0.5068709999999896
                },
                {
                    "name": "B3",
                    "midi": 59,
                    "time": 197.34177600000032,
                    "velocity": 0.3543307086614173,
                    "duration": 0.5068709999999896
                },
                {
                    "name": "D4",
                    "midi": 62,
                    "time": 197.8486470000003,
                    "velocity": 0.29133858267716534,
                    "duration": 0.16895700000000602
                },
                {
                    "name": "A3",
                    "midi": 57,
                    "time": 198.01760400000032,
                    "velocity": 0.2992125984251969,
                    "duration": 0.5068709999999896
                },
                {
                    "name": "C4",
                    "midi": 60,
                    "time": 198.01760400000032,
                    "velocity": 0.3543307086614173,
                    "duration": 0.5068709999999896
                },
                {
                    "name": "G3",
                    "midi": 55,
                    "time": 198.5244750000003,
                    "velocity": 0.2755905511811024,
                    "duration": 0.16895700000000602
                },
                {
                    "name": "B3",
                    "midi": 59,
                    "time": 198.5244750000003,
                    "velocity": 0.33070866141732286,
                    "duration": 0.16895700000000602
                },
                {
                    "name": "F#3",
                    "midi": 54,
                    "time": 198.6934320000003,
                    "velocity": 0.2992125984251969,
                    "duration": 0.6758279999999957
                },
                {
                    "name": "A3",
                    "midi": 57,
                    "time": 198.6934320000003,
                    "velocity": 0.3543307086614173,
                    "duration": 0.6758279999999957
                },
                {
                    "name": "G3",
                    "midi": 55,
                    "time": 199.3692600000003,
                    "velocity": 0.2677165354330709,
                    "duration": 0.6758280000000241
                },
                {
                    "name": "B3",
                    "midi": 59,
                    "time": 199.3692600000003,
                    "velocity": 0.3228346456692913,
                    "duration": 0.6758280000000241
                },
                {
                    "name": "A3",
                    "midi": 57,
                    "time": 200.04508800000033,
                    "velocity": 0.2992125984251969,
                    "duration": 0.6758279999999957
                },
                {
                    "name": "C4",
                    "midi": 60,
                    "time": 200.04508800000033,
                    "velocity": 0.3543307086614173,
                    "duration": 0.6758279999999957
                },
                {
                    "name": "B3",
                    "midi": 59,
                    "time": 200.72091600000033,
                    "velocity": 0.2677165354330709,
                    "duration": 0.6758279999999957
                },
                {
                    "name": "D4",
                    "midi": 62,
                    "time": 200.72091600000033,
                    "velocity": 0.3228346456692913,
                    "duration": 0.6758279999999957
                },
                {
                    "name": "A3",
                    "midi": 57,
                    "time": 201.39674400000033,
                    "velocity": 0.2755905511811024,
                    "duration": 0.6758279999999957
                },
                {
                    "name": "C4",
                    "midi": 60,
                    "time": 201.39674400000033,
                    "velocity": 0.33070866141732286,
                    "duration": 0.6758279999999957
                },
                {
                    "name": "G3",
                    "midi": 55,
                    "time": 202.07257200000032,
                    "velocity": 0.2992125984251969,
                    "duration": 0.6758279999999957
                },
                {
                    "name": "B3",
                    "midi": 59,
                    "time": 202.07257200000032,
                    "velocity": 0.3543307086614173,
                    "duration": 0.6758279999999957
                },
                {
                    "name": "B3",
                    "midi": 59,
                    "time": 202.74840000000032,
                    "velocity": 0.4645669291338583,
                    "duration": 0.6758279999999957
                },
                {
                    "name": "D4",
                    "midi": 62,
                    "time": 202.74840000000032,
                    "velocity": 0.4645669291338583,
                    "duration": 0.6758279999999957
                },
                {
                    "name": "A3",
                    "midi": 57,
                    "time": 203.4242280000003,
                    "velocity": 0.33070866141732286,
                    "duration": 0.6758279999999957
                },
                {
                    "name": "C4",
                    "midi": 60,
                    "time": 203.4242280000003,
                    "velocity": 0.33070866141732286,
                    "duration": 0.6758279999999957
                },
                {
                    "name": "D#4",
                    "midi": 63,
                    "time": 203.4242280000003,
                    "velocity": 0.4015748031496063,
                    "duration": 0.6758279999999957
                },
                {
                    "name": "G3",
                    "midi": 55,
                    "time": 204.1000560000003,
                    "velocity": 0.3464566929133858,
                    "duration": 0.6758279999999957
                },
                {
                    "name": "B3",
                    "midi": 59,
                    "time": 204.1000560000003,
                    "velocity": 0.41732283464566927,
                    "duration": 0.6758279999999957
                },
                {
                    "name": "G3",
                    "midi": 55,
                    "time": 205.4517120000003,
                    "velocity": 0.2283464566929134,
                    "duration": 0.6758279999999957
                },
                {
                    "name": "B3",
                    "midi": 59,
                    "time": 205.4517120000003,
                    "velocity": 0.2755905511811024,
                    "duration": 0.6758279999999957
                },
                {
                    "name": "F3",
                    "midi": 53,
                    "time": 206.1275400000003,
                    "velocity": 0.2283464566929134,
                    "duration": 0.6758279999999957
                },
                {
                    "name": "G3",
                    "midi": 55,
                    "time": 206.1275400000003,
                    "velocity": 0.2283464566929134,
                    "duration": 0.6758279999999957
                },
                {
                    "name": "B3",
                    "midi": 59,
                    "time": 206.1275400000003,
                    "velocity": 0.2755905511811024,
                    "duration": 0.6758279999999957
                },
                {
                    "name": "E3",
                    "midi": 52,
                    "time": 206.8033680000003,
                    "velocity": 0.2283464566929134,
                    "duration": 0.6758279999999957
                },
                {
                    "name": "G3",
                    "midi": 55,
                    "time": 206.8033680000003,
                    "velocity": 0.2755905511811024,
                    "duration": 0.6758279999999957
                },
                {
                    "name": "E3",
                    "midi": 52,
                    "time": 208.15502400000028,
                    "velocity": 0.4645669291338583,
                    "duration": 0.6758279999999957
                },
                {
                    "name": "G3",
                    "midi": 55,
                    "time": 208.15502400000028,
                    "velocity": 0.4645669291338583,
                    "duration": 0.6758279999999957
                },
                {
                    "name": "D3",
                    "midi": 50,
                    "time": 208.83085200000028,
                    "velocity": 0.33070866141732286,
                    "duration": 0.6758279999999957
                },
                {
                    "name": "F3",
                    "midi": 53,
                    "time": 208.83085200000028,
                    "velocity": 0.33070866141732286,
                    "duration": 0.6758279999999957
                },
                {
                    "name": "G#3",
                    "midi": 56,
                    "time": 208.83085200000028,
                    "velocity": 0.4015748031496063,
                    "duration": 0.6758279999999957
                },
                {
                    "name": "C3",
                    "midi": 48,
                    "time": 209.50668000000027,
                    "velocity": 0.3464566929133858,
                    "duration": 1.3516559999999913
                },
                {
                    "name": "E3",
                    "midi": 52,
                    "time": 209.50668000000027,
                    "velocity": 0.3464566929133858,
                    "duration": 1.3516559999999913
                },
                {
                    "name": "A3",
                    "midi": 57,
                    "time": 209.50668000000027,
                    "velocity": 0.41732283464566927,
                    "duration": 1.3516559999999913
                },
                {
                    "name": "B3",
                    "midi": 59,
                    "time": 210.85833600000026,
                    "velocity": 0.31496062992125984,
                    "duration": 0.6758279999999957
                },
                {
                    "name": "D3",
                    "midi": 50,
                    "time": 210.85833600000026,
                    "velocity": 0.31496062992125984,
                    "duration": 1.3516559999999913
                },
                {
                    "name": "F#3",
                    "midi": 54,
                    "time": 211.53416400000026,
                    "velocity": 0.2992125984251969,
                    "duration": 0.6701960999999983
                },
                {
                    "name": "F#3",
                    "midi": 54,
                    "time": 212.20999200000026,
                    "velocity": 0.31496062992125984,
                    "duration": 0.6758279999999957
                },
                {
                    "name": "G2",
                    "midi": 43,
                    "time": 212.20999200000026,
                    "velocity": 0.31496062992125984,
                    "duration": 1.3516559999999913
                },
                {
                    "name": "G3",
                    "midi": 55,
                    "time": 212.88582000000025,
                    "velocity": 0.2992125984251969,
                    "duration": 0.6758279999999957
                },
                {
                    "name": "B3",
                    "midi": 59,
                    "time": 213.56164800000025,
                    "velocity": 0.41732283464566927,
                    "duration": 0.6758279999999957
                },
                {
                    "name": "D4",
                    "midi": 62,
                    "time": 213.56164800000025,
                    "velocity": 0.41732283464566927,
                    "duration": 0.6758279999999957
                },
                {
                    "name": "A3",
                    "midi": 57,
                    "time": 214.23747600000024,
                    "velocity": 0.29133858267716534,
                    "duration": 0.6758279999999957
                },
                {
                    "name": "C4",
                    "midi": 60,
                    "time": 214.23747600000024,
                    "velocity": 0.29133858267716534,
                    "duration": 0.6758279999999957
                },
                {
                    "name": "D#4",
                    "midi": 63,
                    "time": 214.23747600000024,
                    "velocity": 0.3543307086614173,
                    "duration": 0.6758279999999957
                },
                {
                    "name": "E4",
                    "midi": 64,
                    "time": 214.91330400000024,
                    "velocity": 0.3700787401574803,
                    "duration": 0.6758279999999957
                },
                {
                    "name": "G3",
                    "midi": 55,
                    "time": 214.91330400000024,
                    "velocity": 0.30708661417322836,
                    "duration": 0.6758279999999957
                },
                {
                    "name": "B3",
                    "midi": 59,
                    "time": 214.91330400000024,
                    "velocity": 0.3700787401574803,
                    "duration": 0.6758279999999957
                },
                {
                    "name": "G4",
                    "midi": 67,
                    "time": 216.26496000000023,
                    "velocity": 0.2283464566929134,
                    "duration": 0.6758279999999957
                },
                {
                    "name": "B4",
                    "midi": 71,
                    "time": 216.26496000000023,
                    "velocity": 0.2755905511811024,
                    "duration": 0.6758279999999957
                },
                {
                    "name": "F4",
                    "midi": 65,
                    "time": 216.94078800000023,
                    "velocity": 0.2283464566929134,
                    "duration": 0.6758280000000241
                },
                {
                    "name": "G4",
                    "midi": 67,
                    "time": 216.94078800000023,
                    "velocity": 0.2283464566929134,
                    "duration": 0.6758280000000241
                },
                {
                    "name": "B4",
                    "midi": 71,
                    "time": 216.94078800000023,
                    "velocity": 0.2755905511811024,
                    "duration": 0.6758280000000241
                },
                {
                    "name": "C5",
                    "midi": 72,
                    "time": 217.61661600000025,
                    "velocity": 0.2755905511811024,
                    "duration": 0.6758279999999957
                },
                {
                    "name": "E4",
                    "midi": 64,
                    "time": 217.61661600000025,
                    "velocity": 0.2283464566929134,
                    "duration": 0.6758279999999957
                },
                {
                    "name": "G4",
                    "midi": 67,
                    "time": 217.61661600000025,
                    "velocity": 0.2755905511811024,
                    "duration": 0.6758279999999957
                },
                {
                    "name": "E4",
                    "midi": 64,
                    "time": 218.96827200000024,
                    "velocity": 0.4645669291338583,
                    "duration": 0.6758279999999957
                },
                {
                    "name": "G4",
                    "midi": 67,
                    "time": 218.96827200000024,
                    "velocity": 0.4645669291338583,
                    "duration": 0.6758279999999957
                },
                {
                    "name": "D4",
                    "midi": 62,
                    "time": 219.64410000000024,
                    "velocity": 0.33070866141732286,
                    "duration": 0.6758279999999957
                },
                {
                    "name": "F4",
                    "midi": 65,
                    "time": 219.64410000000024,
                    "velocity": 0.33070866141732286,
                    "duration": 0.6758279999999957
                },
                {
                    "name": "G#4",
                    "midi": 68,
                    "time": 219.64410000000024,
                    "velocity": 0.4015748031496063,
                    "duration": 0.6758279999999957
                },
                {
                    "name": "C4",
                    "midi": 60,
                    "time": 220.31992800000023,
                    "velocity": 0.3464566929133858,
                    "duration": 1.3516559999999913
                },
                {
                    "name": "E4",
                    "midi": 64,
                    "time": 220.31992800000023,
                    "velocity": 0.3464566929133858,
                    "duration": 1.3516559999999913
                },
                {
                    "name": "A4",
                    "midi": 69,
                    "time": 220.31992800000023,
                    "velocity": 0.41732283464566927,
                    "duration": 1.3516559999999913
                },
                {
                    "name": "G4",
                    "midi": 67,
                    "time": 221.67158400000022,
                    "velocity": 0.2677165354330709,
                    "duration": 0.6758279999999957
                },
                {
                    "name": "B4",
                    "midi": 71,
                    "time": 221.67158400000022,
                    "velocity": 0.31496062992125984,
                    "duration": 0.6758279999999957
                },
                {
                    "name": "D4",
                    "midi": 62,
                    "time": 221.67158400000022,
                    "velocity": 0.2677165354330709,
                    "duration": 0.6758279999999957
                },
                {
                    "name": "G4",
                    "midi": 67,
                    "time": 223.02324000000021,
                    "velocity": 0.25196850393700787,
                    "duration": 0.6758279999999957
                },
                {
                    "name": "B4",
                    "midi": 71,
                    "time": 223.02324000000021,
                    "velocity": 0.29133858267716534,
                    "duration": 0.6758279999999957
                },
                {
                    "name": "D4",
                    "midi": 62,
                    "time": 223.02324000000021,
                    "velocity": 0.25196850393700787,
                    "duration": 0.6758279999999957
                },
                {
                    "name": "D4",
                    "midi": 62,
                    "time": 224.3748960000002,
                    "velocity": 0.25196850393700787,
                    "duration": 0.6758279999999957
                },
                {
                    "name": "G4",
                    "midi": 67,
                    "time": 224.3748960000002,
                    "velocity": 0.25196850393700787,
                    "duration": 0.6758279999999957
                },
                {
                    "name": "C5",
                    "midi": 72,
                    "time": 224.3748960000002,
                    "velocity": 0.29133858267716534,
                    "duration": 0.6758279999999957
                },
                {
                    "name": "F#4",
                    "midi": 66,
                    "time": 225.7265520000002,
                    "velocity": 0.2204724409448819,
                    "duration": 0.6758279999999957
                },
                {
                    "name": "D4",
                    "midi": 62,
                    "time": 225.7265520000002,
                    "velocity": 0.2204724409448819,
                    "duration": 0.6758279999999957
                },
                {
                    "name": "C5",
                    "midi": 72,
                    "time": 225.7265520000002,
                    "velocity": 0.2677165354330709,
                    "duration": 0.6758279999999957
                },
                {
                    "name": "G4",
                    "midi": 67,
                    "time": 227.0782080000002,
                    "velocity": 0.2204724409448819,
                    "duration": 1.3516559999999913
                },
                {
                    "name": "B4",
                    "midi": 71,
                    "time": 227.0782080000002,
                    "velocity": 0.2677165354330709,
                    "duration": 1.3516559999999913
                },
                {
                    "name": "D4",
                    "midi": 62,
                    "time": 229.78152000000017,
                    "velocity": 0.25196850393700787,
                    "duration": 1.3516559999999913
                },
                {
                    "name": "G3",
                    "midi": 55,
                    "time": 229.78152000000017,
                    "velocity": 0.30708661417322836,
                    "duration": 0.6758279999999957
                },
                {
                    "name": "A3",
                    "midi": 57,
                    "time": 230.45734800000017,
                    "velocity": 0.2755905511811024,
                    "duration": 0.5068709999999896
                },
                {
                    "name": "G3",
                    "midi": 55,
                    "time": 230.96421900000016,
                    "velocity": 0.23622047244094488,
                    "duration": 0.16895700000000602
                },
                {
                    "name": "D4",
                    "midi": 62,
                    "time": 231.13317600000016,
                    "velocity": 0.25196850393700787,
                    "duration": 1.3516559999999913
                },
                {
                    "name": "F#3",
                    "midi": 54,
                    "time": 231.13317600000016,
                    "velocity": 0.28346456692913385,
                    "duration": 0.6758279999999957
                },
                {
                    "name": "G3",
                    "midi": 55,
                    "time": 231.80900400000016,
                    "velocity": 0.25196850393700787,
                    "duration": 0.6758279999999957
                },
                {
                    "name": "D4",
                    "midi": 62,
                    "time": 232.48483200000015,
                    "velocity": 0.2992125984251969,
                    "duration": 1.3516559999999913
                },
                {
                    "name": "A3",
                    "midi": 57,
                    "time": 232.48483200000015,
                    "velocity": 0.31496062992125984,
                    "duration": 0.6758279999999957
                },
                {
                    "name": "F#3",
                    "midi": 54,
                    "time": 233.16066000000015,
                    "velocity": 0.25984251968503935,
                    "duration": 0.6758279999999957
                },
                {
                    "name": "D4",
                    "midi": 62,
                    "time": 233.83648800000014,
                    "velocity": 0.2992125984251969,
                    "duration": 1.3516559999999913
                },
                {
                    "name": "G3",
                    "midi": 55,
                    "time": 233.83648800000014,
                    "velocity": 0.30708661417322836,
                    "duration": 1.3516559999999913
                },
                {
                    "name": "E3",
                    "midi": 52,
                    "time": 235.18814400000014,
                    "velocity": 0.3858267716535433,
                    "duration": 0.33791400000001204
                },
                {
                    "name": "E4",
                    "midi": 64,
                    "time": 235.18814400000014,
                    "velocity": 0.3858267716535433,
                    "duration": 0.33791400000001204
                },
                {
                    "name": "D3",
                    "midi": 50,
                    "time": 235.86397200000016,
                    "velocity": 0.3464566929133858,
                    "duration": 0.33791400000001204
                },
                {
                    "name": "D4",
                    "midi": 62,
                    "time": 235.86397200000016,
                    "velocity": 0.3464566929133858,
                    "duration": 0.33791400000001204
                },
                {
                    "name": "C4",
                    "midi": 60,
                    "time": 236.53980000000018,
                    "velocity": 0.4015748031496063,
                    "duration": 0.33791400000001204
                },
                {
                    "name": "C3",
                    "midi": 48,
                    "time": 236.53980000000018,
                    "velocity": 0.4015748031496063,
                    "duration": 0.33791400000001204
                },
                {
                    "name": "B3",
                    "midi": 59,
                    "time": 237.5535420000002,
                    "velocity": 0.29133858267716534,
                    "duration": 0.33791400000001204
                },
                {
                    "name": "D4",
                    "midi": 62,
                    "time": 237.8914560000002,
                    "velocity": 0.2992125984251969,
                    "duration": 1.3516559999999913
                },
                {
                    "name": "F#3",
                    "midi": 54,
                    "time": 237.8914560000002,
                    "velocity": 0.31496062992125984,
                    "duration": 0.6758279999999957
                },
                {
                    "name": "G3",
                    "midi": 55,
                    "time": 238.5672840000002,
                    "velocity": 0.2755905511811024,
                    "duration": 0.6758279999999957
                },
                {
                    "name": "D4",
                    "midi": 62,
                    "time": 239.2431120000002,
                    "velocity": 0.2992125984251969,
                    "duration": 1.3516559999999913
                },
                {
                    "name": "D3",
                    "midi": 50,
                    "time": 239.2431120000002,
                    "velocity": 0.30708661417322836,
                    "duration": 1.3516559999999913
                },
                {
                    "name": "D4",
                    "midi": 62,
                    "time": 240.5947680000002,
                    "velocity": 0.30708661417322836,
                    "duration": 1.3516560000000197
                },
                {
                    "name": "G3",
                    "midi": 55,
                    "time": 240.5947680000002,
                    "velocity": 0.30708661417322836,
                    "duration": 0.6758279999999957
                },
                {
                    "name": "A3",
                    "midi": 57,
                    "time": 241.27059600000018,
                    "velocity": 0.2755905511811024,
                    "duration": 0.33791400000001204
                },
                {
                    "name": "G3",
                    "midi": 55,
                    "time": 241.6085100000002,
                    "velocity": 0.23622047244094488,
                    "duration": 0.33791400000001204
                },
                {
                    "name": "D4",
                    "midi": 62,
                    "time": 241.9464240000002,
                    "velocity": 0.23622047244094488,
                    "duration": 0.6758279999999957
                },
                {
                    "name": "F#3",
                    "midi": 54,
                    "time": 241.9464240000002,
                    "velocity": 0.28346456692913385,
                    "duration": 0.6758279999999957
                },
                {
                    "name": "D4",
                    "midi": 62,
                    "time": 242.6222520000002,
                    "velocity": 0.23622047244094488,
                    "duration": 0.6758279999999957
                },
                {
                    "name": "G3",
                    "midi": 55,
                    "time": 242.6222520000002,
                    "velocity": 0.25196850393700787,
                    "duration": 0.6758279999999957
                },
                {
                    "name": "D4",
                    "midi": 62,
                    "time": 243.2980800000002,
                    "velocity": 0.2992125984251969,
                    "duration": 0.6758279999999957
                },
                {
                    "name": "A3",
                    "midi": 57,
                    "time": 243.2980800000002,
                    "velocity": 0.31496062992125984,
                    "duration": 0.6758279999999957
                },
                {
                    "name": "D4",
                    "midi": 62,
                    "time": 243.9739080000002,
                    "velocity": 0.23622047244094488,
                    "duration": 0.6758279999999957
                },
                {
                    "name": "F#3",
                    "midi": 54,
                    "time": 243.9739080000002,
                    "velocity": 0.25984251968503935,
                    "duration": 0.6758279999999957
                },
                {
                    "name": "D4",
                    "midi": 62,
                    "time": 244.6497360000002,
                    "velocity": 0.2992125984251969,
                    "duration": 1.3516559999999913
                },
                {
                    "name": "G3",
                    "midi": 55,
                    "time": 244.6497360000002,
                    "velocity": 0.30708661417322836,
                    "duration": 1.3516559999999913
                },
                {
                    "name": "E3",
                    "midi": 52,
                    "time": 246.00139200000018,
                    "velocity": 0.3858267716535433,
                    "duration": 0.33791400000001204
                },
                {
                    "name": "E4",
                    "midi": 64,
                    "time": 246.00139200000018,
                    "velocity": 0.3858267716535433,
                    "duration": 0.33791400000001204
                },
                {
                    "name": "D3",
                    "midi": 50,
                    "time": 246.6772200000002,
                    "velocity": 0.3464566929133858,
                    "duration": 0.33791400000001204
                },
                {
                    "name": "D4",
                    "midi": 62,
                    "time": 246.6772200000002,
                    "velocity": 0.3464566929133858,
                    "duration": 0.33791400000001204
                },
                {
                    "name": "C4",
                    "midi": 60,
                    "time": 247.35304800000023,
                    "velocity": 0.4015748031496063,
                    "duration": 0.6758279999999957
                },
                {
                    "name": "C3",
                    "midi": 48,
                    "time": 247.35304800000023,
                    "velocity": 0.4015748031496063,
                    "duration": 0.6758279999999957
                },
                {
                    "name": "E4",
                    "midi": 64,
                    "time": 248.36679000000024,
                    "velocity": 0.29133858267716534,
                    "duration": 0.33791400000001204
                },
                {
                    "name": "C4",
                    "midi": 60,
                    "time": 248.36679000000024,
                    "velocity": 0.29133858267716534,
                    "duration": 0.33791400000001204
                },
                {
                    "name": "D4",
                    "midi": 62,
                    "time": 248.70470400000025,
                    "velocity": 0.31496062992125984,
                    "duration": 1.3516559999999913
                },
                {
                    "name": "G4",
                    "midi": 67,
                    "time": 248.70470400000025,
                    "velocity": 0.31496062992125984,
                    "duration": 0.6758279999999957
                },
                {
                    "name": "F#4",
                    "midi": 66,
                    "time": 249.38053200000024,
                    "velocity": 0.2755905511811024,
                    "duration": 0.6758279999999957
                },
                {
                    "name": "G3",
                    "midi": 55,
                    "time": 250.05636000000024,
                    "velocity": 0.30708661417322836,
                    "duration": 1.3516560000000197
                },
                {
                    "name": "B3",
                    "midi": 59,
                    "time": 250.39427400000022,
                    "velocity": 0.2204724409448819,
                    "duration": 0.33791400000001204
                },
                {
                    "name": "D4",
                    "midi": 62,
                    "time": 250.73218800000024,
                    "velocity": 0.25196850393700787,
                    "duration": 0.33791400000001204
                },
                {
                    "name": "B3",
                    "midi": 59,
                    "time": 251.07010200000025,
                    "velocity": 0.2125984251968504,
                    "duration": 0.33791400000001204
                },
                {
                    "name": "C3",
                    "midi": 48,
                    "time": 251.40801600000026,
                    "velocity": 0.30708661417322836,
                    "duration": 1.3516560000000482
                },
                {
                    "name": "E3",
                    "midi": 52,
                    "time": 251.74593000000027,
                    "velocity": 0.2125984251968504,
                    "duration": 0.33791400000001204
                },
                {
                    "name": "A3",
                    "midi": 57,
                    "time": 252.08384400000028,
                    "velocity": 0.25196850393700787,
                    "duration": 0.33791400000001204
                },
                {
                    "name": "E3",
                    "midi": 52,
                    "time": 252.4217580000003,
                    "velocity": 0.2204724409448819,
                    "duration": 0.33791400000001204
                },
                {
                    "name": "D3",
                    "midi": 50,
                    "time": 252.7596720000003,
                    "velocity": 0.30708661417322836,
                    "duration": 1.3516560000000482
                },
                {
                    "name": "C4",
                    "midi": 60,
                    "time": 253.09758600000032,
                    "velocity": 0.2283464566929134,
                    "duration": 0.33791400000001204
                },
                {
                    "name": "A3",
                    "midi": 57,
                    "time": 253.43550000000033,
                    "velocity": 0.25196850393700787,
                    "duration": 0.33791400000001204
                },
                {
                    "name": "C4",
                    "midi": 60,
                    "time": 253.77341400000034,
                    "velocity": 0.2283464566929134,
                    "duration": 0.33791400000001204
                },
                {
                    "name": "G3",
                    "midi": 55,
                    "time": 254.11132800000036,
                    "velocity": 0.30708661417322836,
                    "duration": 1.3516560000000197
                },
                {
                    "name": "B3",
                    "midi": 59,
                    "time": 254.44924200000034,
                    "velocity": 0.2283464566929134,
                    "duration": 0.33791400000001204
                },
                {
                    "name": "D4",
                    "midi": 62,
                    "time": 254.78715600000035,
                    "velocity": 0.25196850393700787,
                    "duration": 0.33791400000001204
                },
                {
                    "name": "B3",
                    "midi": 59,
                    "time": 255.12507000000036,
                    "velocity": 0.2283464566929134,
                    "duration": 0.33791400000001204
                },
                {
                    "name": "E3",
                    "midi": 52,
                    "time": 255.46298400000038,
                    "velocity": 0.30708661417322836,
                    "duration": 1.3516560000000197
                },
                {
                    "name": "G3",
                    "midi": 55,
                    "time": 255.80089800000036,
                    "velocity": 0.2283464566929134,
                    "duration": 0.33791400000001204
                },
                {
                    "name": "B3",
                    "midi": 59,
                    "time": 256.13881200000037,
                    "velocity": 0.25196850393700787,
                    "duration": 0.33791400000001204
                },
                {
                    "name": "G3",
                    "midi": 55,
                    "time": 256.4767260000004,
                    "velocity": 0.23622047244094488,
                    "duration": 0.33791400000001204
                },
                {
                    "name": "C3",
                    "midi": 48,
                    "time": 256.8146400000004,
                    "velocity": 0.30708661417322836,
                    "duration": 1.3516560000000482
                },
                {
                    "name": "E3",
                    "midi": 52,
                    "time": 257.1525540000004,
                    "velocity": 0.2283464566929134,
                    "duration": 0.33791400000001204
                },
                {
                    "name": "A3",
                    "midi": 57,
                    "time": 257.4904680000004,
                    "velocity": 0.25196850393700787,
                    "duration": 0.33791400000001204
                },
                {
                    "name": "E3",
                    "midi": 52,
                    "time": 257.82838200000043,
                    "velocity": 0.2283464566929134,
                    "duration": 0.33791400000001204
                },
                {
                    "name": "D3",
                    "midi": 50,
                    "time": 258.16629600000044,
                    "velocity": 0.30708661417322836,
                    "duration": 1.3516560000000482
                },
                {
                    "name": "C4",
                    "midi": 60,
                    "time": 258.50421000000046,
                    "velocity": 0.23622047244094488,
                    "duration": 0.33791400000001204
                },
                {
                    "name": "A3",
                    "midi": 57,
                    "time": 258.84212400000047,
                    "velocity": 0.25196850393700787,
                    "duration": 0.33791400000001204
                },
                {
                    "name": "C4",
                    "midi": 60,
                    "time": 259.1800380000005,
                    "velocity": 0.2283464566929134,
                    "duration": 0.33791400000001204
                },
                {
                    "name": "G2",
                    "midi": 43,
                    "time": 259.5179520000005,
                    "velocity": 0.3543307086614173,
                    "duration": 1.3516560000000482
                },
                {
                    "name": "G3",
                    "midi": 55,
                    "time": 259.8558660000005,
                    "velocity": 0.29133858267716534,
                    "duration": 0.33791400000001204
                },
                {
                    "name": "B3",
                    "midi": 59,
                    "time": 260.1937800000005,
                    "velocity": 0.29133858267716534,
                    "duration": 0.33791400000001204
                },
                {
                    "name": "D4",
                    "midi": 62,
                    "time": 260.5316940000005,
                    "velocity": 0.29133858267716534,
                    "duration": 0.33791400000001204
                },
                {
                    "name": "E2",
                    "midi": 40,
                    "time": 260.86960800000054,
                    "velocity": 0.3858267716535433,
                    "duration": 1.3516559999999913
                },
                {
                    "name": "E3",
                    "midi": 52,
                    "time": 261.20752200000055,
                    "velocity": 0.30708661417322836,
                    "duration": 0.3379139999999552
                },
                {
                    "name": "G3",
                    "midi": 55,
                    "time": 261.5454360000005,
                    "velocity": 0.30708661417322836,
                    "duration": 0.33791400000001204
                },
                {
                    "name": "B3",
                    "midi": 59,
                    "time": 261.8833500000005,
                    "velocity": 0.30708661417322836,
                    "duration": 0.33791400000001204
                },
                {
                    "name": "C2",
                    "midi": 36,
                    "time": 262.22126400000053,
                    "velocity": 0.3779527559055118,
                    "duration": 1.3516560000000482
                },
                {
                    "name": "C3",
                    "midi": 48,
                    "time": 262.55917800000054,
                    "velocity": 0.2992125984251969,
                    "duration": 0.33791400000001204
                },
                {
                    "name": "E3",
                    "midi": 52,
                    "time": 262.89709200000055,
                    "velocity": 0.2992125984251969,
                    "duration": 0.33791400000001204
                },
                {
                    "name": "A3",
                    "midi": 57,
                    "time": 263.23500600000057,
                    "velocity": 0.2992125984251969,
                    "duration": 0.33791400000001204
                },
                {
                    "name": "D2",
                    "midi": 38,
                    "time": 263.5729200000006,
                    "velocity": 0.3937007874015748,
                    "duration": 1.3516560000000482
                },
                {
                    "name": "D3",
                    "midi": 50,
                    "time": 263.9108340000006,
                    "velocity": 0.33070866141732286,
                    "duration": 0.33791400000001204
                },
                {
                    "name": "A3",
                    "midi": 57,
                    "time": 264.2487480000006,
                    "velocity": 0.33070866141732286,
                    "duration": 0.33791400000001204
                },
                {
                    "name": "C4",
                    "midi": 60,
                    "time": 264.5866620000006,
                    "velocity": 0.33070866141732286,
                    "duration": 0.33791400000001204
                },
                {
                    "name": "B1",
                    "midi": 35,
                    "time": 264.9245760000006,
                    "velocity": 0.4409448818897638,
                    "duration": 1.3516560000000482
                },
                {
                    "name": "B2",
                    "midi": 47,
                    "time": 265.26249000000064,
                    "velocity": 0.33070866141732286,
                    "duration": 0.33791400000001204
                },
                {
                    "name": "D3",
                    "midi": 50,
                    "time": 265.60040400000065,
                    "velocity": 0.36220472440944884,
                    "duration": 0.33791400000001204
                },
                {
                    "name": "G3",
                    "midi": 55,
                    "time": 265.93831800000066,
                    "velocity": 0.33070866141732286,
                    "duration": 0.33791400000001204
                },
                {
                    "name": "E2",
                    "midi": 40,
                    "time": 266.2762320000007,
                    "velocity": 0.4094488188976378,
                    "duration": 1.3516560000000482
                },
                {
                    "name": "E3",
                    "midi": 52,
                    "time": 266.6141460000007,
                    "velocity": 0.3228346456692913,
                    "duration": 0.33791400000001204
                },
                {
                    "name": "G3",
                    "midi": 55,
                    "time": 266.9520600000007,
                    "velocity": 0.3228346456692913,
                    "duration": 0.33791400000001204
                },
                {
                    "name": "B3",
                    "midi": 59,
                    "time": 267.2899740000007,
                    "velocity": 0.3228346456692913,
                    "duration": 0.33791400000001204
                },
                {
                    "name": "C2",
                    "midi": 36,
                    "time": 267.6278880000007,
                    "velocity": 0.3779527559055118,
                    "duration": 1.3516559999999913
                },
                {
                    "name": "C3",
                    "midi": 48,
                    "time": 267.9658020000007,
                    "velocity": 0.2992125984251969,
                    "duration": 0.33791400000001204
                },
                {
                    "name": "E3",
                    "midi": 52,
                    "time": 268.3037160000007,
                    "velocity": 0.2992125984251969,
                    "duration": 0.33791400000001204
                },
                {
                    "name": "A3",
                    "midi": 57,
                    "time": 268.6416300000007,
                    "velocity": 0.2992125984251969,
                    "duration": 0.33791400000001204
                },
                {
                    "name": "D2",
                    "midi": 38,
                    "time": 268.9795440000007,
                    "velocity": 0.3937007874015748,
                    "duration": 1.3516559999999913
                },
                {
                    "name": "D3",
                    "midi": 50,
                    "time": 269.31745800000067,
                    "velocity": 0.2992125984251969,
                    "duration": 0.33791400000001204
                },
                {
                    "name": "A3",
                    "midi": 57,
                    "time": 269.6553720000007,
                    "velocity": 0.33070866141732286,
                    "duration": 0.33791400000001204
                },
                {
                    "name": "C4",
                    "midi": 60,
                    "time": 269.9932860000007,
                    "velocity": 0.29133858267716534,
                    "duration": 0.33791400000001204
                },
                {
                    "name": "G3",
                    "midi": 55,
                    "time": 270.3312000000007,
                    "velocity": 0.4094488188976378,
                    "duration": 0.33791400000001204
                },
                {
                    "name": "D4",
                    "midi": 62,
                    "time": 270.6691140000007,
                    "velocity": 0.2677165354330709,
                    "duration": 0.32101829999999154
                },
                {
                    "name": "B3",
                    "midi": 59,
                    "time": 270.6691140000007,
                    "velocity": 0.2204724409448819,
                    "duration": 0.32101829999999154
                },
                {
                    "name": "D4",
                    "midi": 62,
                    "time": 271.00702800000073,
                    "velocity": 0.2677165354330709,
                    "duration": 0.32101829999999154
                },
                {
                    "name": "B3",
                    "midi": 59,
                    "time": 271.00702800000073,
                    "velocity": 0.2204724409448819,
                    "duration": 0.32101829999999154
                },
                {
                    "name": "D4",
                    "midi": 62,
                    "time": 271.34494200000074,
                    "velocity": 0.2677165354330709,
                    "duration": 0.32101829999999154
                },
                {
                    "name": "B3",
                    "midi": 59,
                    "time": 271.34494200000074,
                    "velocity": 0.2204724409448819,
                    "duration": 0.32101829999999154
                },
                {
                    "name": "D3",
                    "midi": 50,
                    "time": 271.68285600000075,
                    "velocity": 0.28346456692913385,
                    "duration": 0.33791400000001204
                },
                {
                    "name": "D4",
                    "midi": 62,
                    "time": 272.02077000000077,
                    "velocity": 0.23622047244094488,
                    "duration": 0.32101829999999154
                },
                {
                    "name": "C4",
                    "midi": 60,
                    "time": 272.02077000000077,
                    "velocity": 0.1968503937007874,
                    "duration": 0.32101829999999154
                },
                {
                    "name": "D4",
                    "midi": 62,
                    "time": 272.3586840000008,
                    "velocity": 0.23622047244094488,
                    "duration": 0.32101829999999154
                },
                {
                    "name": "C4",
                    "midi": 60,
                    "time": 272.3586840000008,
                    "velocity": 0.1968503937007874,
                    "duration": 0.32101829999999154
                },
                {
                    "name": "D4",
                    "midi": 62,
                    "time": 272.6965980000008,
                    "velocity": 0.23622047244094488,
                    "duration": 0.32101829999999154
                },
                {
                    "name": "C4",
                    "midi": 60,
                    "time": 272.6965980000008,
                    "velocity": 0.1968503937007874,
                    "duration": 0.32101829999999154
                },
                {
                    "name": "G3",
                    "midi": 55,
                    "time": 273.0345120000008,
                    "velocity": 0.29133858267716534,
                    "duration": 0.33791400000001204
                },
                {
                    "name": "D4",
                    "midi": 62,
                    "time": 273.3724260000008,
                    "velocity": 0.2283464566929134,
                    "duration": 0.32101829999999154
                },
                {
                    "name": "B3",
                    "midi": 59,
                    "time": 273.3724260000008,
                    "velocity": 0.1889763779527559,
                    "duration": 0.32101829999999154
                },
                {
                    "name": "D4",
                    "midi": 62,
                    "time": 273.7103400000008,
                    "velocity": 0.2283464566929134,
                    "duration": 0.32101829999999154
                },
                {
                    "name": "B3",
                    "midi": 59,
                    "time": 273.7103400000008,
                    "velocity": 0.1889763779527559,
                    "duration": 0.32101829999999154
                },
                {
                    "name": "D4",
                    "midi": 62,
                    "time": 274.04825400000084,
                    "velocity": 0.2283464566929134,
                    "duration": 0.32101829999999154
                },
                {
                    "name": "B3",
                    "midi": 59,
                    "time": 274.04825400000084,
                    "velocity": 0.1889763779527559,
                    "duration": 0.32101829999999154
                },
                {
                    "name": "D3",
                    "midi": 50,
                    "time": 274.38616800000085,
                    "velocity": 0.28346456692913385,
                    "duration": 0.33791400000001204
                },
                {
                    "name": "D4",
                    "midi": 62,
                    "time": 274.72408200000086,
                    "velocity": 0.23622047244094488,
                    "duration": 0.32101829999999154
                },
                {
                    "name": "C4",
                    "midi": 60,
                    "time": 274.72408200000086,
                    "velocity": 0.1968503937007874,
                    "duration": 0.32101829999999154
                },
                {
                    "name": "D4",
                    "midi": 62,
                    "time": 275.0619960000009,
                    "velocity": 0.23622047244094488,
                    "duration": 0.32101829999999154
                },
                {
                    "name": "C4",
                    "midi": 60,
                    "time": 275.0619960000009,
                    "velocity": 0.1968503937007874,
                    "duration": 0.32101829999999154
                },
                {
                    "name": "D4",
                    "midi": 62,
                    "time": 275.3999100000009,
                    "velocity": 0.23622047244094488,
                    "duration": 0.32101829999999154
                },
                {
                    "name": "C4",
                    "midi": 60,
                    "time": 275.3999100000009,
                    "velocity": 0.1968503937007874,
                    "duration": 0.32101829999999154
                },
                {
                    "name": "D4",
                    "midi": 62,
                    "time": 275.7378240000009,
                    "velocity": 0.25984251968503935,
                    "duration": 0.6758280000000241
                },
                {
                    "name": "B3",
                    "midi": 59,
                    "time": 275.7378240000009,
                    "velocity": 0.2204724409448819,
                    "duration": 0.6758280000000241
                },
                {
                    "name": "G3",
                    "midi": 55,
                    "time": 275.7378240000009,
                    "velocity": 0.2204724409448819,
                    "duration": 0.6758280000000241
                },
                {
                    "name": "D3",
                    "midi": 50,
                    "time": 276.4136520000009,
                    "velocity": 0.2204724409448819,
                    "duration": 0.6758279999999672
                },
                {
                    "name": "F#3",
                    "midi": 54,
                    "time": 276.4136520000009,
                    "velocity": 0.2204724409448819,
                    "duration": 0.6758279999999672
                },
                {
                    "name": "C4",
                    "midi": 60,
                    "time": 276.4136520000009,
                    "velocity": 0.2677165354330709,
                    "duration": 0.6758279999999672
                },
                {
                    "name": "B3",
                    "midi": 59,
                    "time": 277.0894800000009,
                    "velocity": 0.2283464566929134,
                    "duration": 0.6758280000000241
                },
                {
                    "name": "G3",
                    "midi": 55,
                    "time": 277.0894800000009,
                    "velocity": 0.1889763779527559,
                    "duration": 0.6758280000000241
                },
                {
                    "name": "D3",
                    "midi": 50,
                    "time": 277.7653080000009,
                    "velocity": 0.1889763779527559,
                    "duration": 0.6758280000000241
                },
                {
                    "name": "F#3",
                    "midi": 54,
                    "time": 277.7653080000009,
                    "velocity": 0.1889763779527559,
                    "duration": 0.6758280000000241
                },
                {
                    "name": "C4",
                    "midi": 60,
                    "time": 277.7653080000009,
                    "velocity": 0.2283464566929134,
                    "duration": 0.6758280000000241
                },
                {
                    "name": "G3",
                    "midi": 55,
                    "time": 278.44113600000094,
                    "velocity": 0.18110236220472442,
                    "duration": 2.0274840000000154
                },
                {
                    "name": "B3",
                    "midi": 59,
                    "time": 278.44113600000094,
                    "velocity": 0.2204724409448819,
                    "duration": 2.0274840000000154
                }
            ],
            "controlChanges": {
                "64": [
                    {
                        "number": 64,
                        "time": 8.205678299999997,
                        "value": 1
                    },
                    {
                        "number": 64,
                        "time": 8.813923499999996,
                        "value": 0
                    },
                    {
                        "number": 64,
                        "time": 8.954720999999996,
                        "value": 1
                    },
                    {
                        "number": 64,
                        "time": 9.492567449999996,
                        "value": 0
                    },
                    {
                        "number": 64,
                        "time": 19.655330999999993,
                        "value": 1
                    },
                    {
                        "number": 64,
                        "time": 20.294551649999995,
                        "value": 0
                    },
                    {
                        "number": 64,
                        "time": 20.373398249999994,
                        "value": 1
                    },
                    {
                        "number": 64,
                        "time": 21.626496,
                        "value": 0
                    },
                    {
                        "number": 64,
                        "time": 21.94469835,
                        "value": 1
                    },
                    {
                        "number": 64,
                        "time": 23.011943400000003,
                        "value": 0
                    },
                    {
                        "number": 64,
                        "time": 23.217507750000003,
                        "value": 1
                    },
                    {
                        "number": 64,
                        "time": 24.329808000000007,
                        "value": 0
                    },
                    {
                        "number": 64,
                        "time": 24.464973600000008,
                        "value": 1
                    },
                    {
                        "number": 64,
                        "time": 25.723703250000014,
                        "value": 0
                    },
                    {
                        "number": 64,
                        "time": 25.858868850000015,
                        "value": 1
                    },
                    {
                        "number": 64,
                        "time": 27.04719975000002,
                        "value": 0
                    },
                    {
                        "number": 64,
                        "time": 27.16828560000002,
                        "value": 1
                    },
                    {
                        "number": 64,
                        "time": 28.412935500000025,
                        "value": 0
                    },
                    {
                        "number": 64,
                        "time": 28.545285150000023,
                        "value": 1
                    },
                    {
                        "number": 64,
                        "time": 29.736432000000026,
                        "value": 0
                    },
                    {
                        "number": 64,
                        "time": 37.94211030000002,
                        "value": 1
                    },
                    {
                        "number": 64,
                        "time": 38.550355500000016,
                        "value": 0
                    },
                    {
                        "number": 64,
                        "time": 38.691153000000014,
                        "value": 1
                    },
                    {
                        "number": 64,
                        "time": 39.22899945000001,
                        "value": 0
                    },
                    {
                        "number": 64,
                        "time": 49.39176300000002,
                        "value": 1
                    },
                    {
                        "number": 64,
                        "time": 50.03098365000002,
                        "value": 0
                    },
                    {
                        "number": 64,
                        "time": 50.109830250000016,
                        "value": 1
                    },
                    {
                        "number": 64,
                        "time": 51.36292800000001,
                        "value": 0
                    },
                    {
                        "number": 64,
                        "time": 51.68113035000001,
                        "value": 1
                    },
                    {
                        "number": 64,
                        "time": 52.7483754,
                        "value": 0
                    },
                    {
                        "number": 64,
                        "time": 52.95393975,
                        "value": 1
                    },
                    {
                        "number": 64,
                        "time": 54.06624,
                        "value": 0
                    },
                    {
                        "number": 64,
                        "time": 54.2014056,
                        "value": 1
                    },
                    {
                        "number": 64,
                        "time": 55.46013524999999,
                        "value": 0
                    },
                    {
                        "number": 64,
                        "time": 55.595300849999994,
                        "value": 1
                    },
                    {
                        "number": 64,
                        "time": 56.78363174999999,
                        "value": 0
                    },
                    {
                        "number": 64,
                        "time": 56.90471759999999,
                        "value": 1
                    },
                    {
                        "number": 64,
                        "time": 58.14936749999998,
                        "value": 0
                    },
                    {
                        "number": 64,
                        "time": 58.281717149999984,
                        "value": 1
                    },
                    {
                        "number": 64,
                        "time": 59.47286399999998,
                        "value": 0
                    },
                    {
                        "number": 64,
                        "time": 66.45641999999997,
                        "value": 1
                    },
                    {
                        "number": 64,
                        "time": 68.63596529999997,
                        "value": 0
                    },
                    {
                        "number": 64,
                        "time": 72.33330764999995,
                        "value": 1
                    },
                    {
                        "number": 64,
                        "time": 73.04011109999996,
                        "value": 0
                    },
                    {
                        "number": 64,
                        "time": 73.15556504999996,
                        "value": 1
                    },
                    {
                        "number": 64,
                        "time": 74.36360759999997,
                        "value": 0
                    },
                    {
                        "number": 64,
                        "time": 74.40021494999996,
                        "value": 1
                    },
                    {
                        "number": 64,
                        "time": 75.74342309999996,
                        "value": 0
                    },
                    {
                        "number": 64,
                        "time": 75.84198134999995,
                        "value": 1
                    },
                    {
                        "number": 64,
                        "time": 77.04439199999995,
                        "value": 0
                    },
                    {
                        "number": 64,
                        "time": 78.42702344999994,
                        "value": 1
                    },
                    {
                        "number": 64,
                        "time": 79.77586349999993,
                        "value": 0
                    },
                    {
                        "number": 64,
                        "time": 79.88850149999993,
                        "value": 1
                    },
                    {
                        "number": 64,
                        "time": 81.09935999999993,
                        "value": 0
                    },
                    {
                        "number": 64,
                        "time": 81.24297344999994,
                        "value": 1
                    },
                    {
                        "number": 64,
                        "time": 82.49607119999992,
                        "value": 0
                    },
                    {
                        "number": 64,
                        "time": 82.61152514999992,
                        "value": 1
                    },
                    {
                        "number": 64,
                        "time": 83.09305259999992,
                        "value": 0
                    },
                    {
                        "number": 64,
                        "time": 83.82238364999992,
                        "value": 1
                    },
                    {
                        "number": 64,
                        "time": 85.18530344999992,
                        "value": 0
                    },
                    {
                        "number": 64,
                        "time": 85.33173284999992,
                        "value": 1
                    },
                    {
                        "number": 64,
                        "time": 86.50598399999991,
                        "value": 0
                    },
                    {
                        "number": 64,
                        "time": 86.61580604999992,
                        "value": 1
                    },
                    {
                        "number": 64,
                        "time": 87.88861544999992,
                        "value": 0
                    },
                    {
                        "number": 64,
                        "time": 87.98717369999991,
                        "value": 1
                    },
                    {
                        "number": 64,
                        "time": 89.20929599999991,
                        "value": 0
                    },
                    {
                        "number": 64,
                        "time": 94.62718379999991,
                        "value": 1
                    },
                    {
                        "number": 64,
                        "time": 95.31990749999991,
                        "value": 0
                    },
                    {
                        "number": 64,
                        "time": 95.37059459999992,
                        "value": 1
                    },
                    {
                        "number": 64,
                        "time": 96.00136739999992,
                        "value": 0
                    },
                    {
                        "number": 64,
                        "time": 96.10274159999992,
                        "value": 1
                    },
                    {
                        "number": 64,
                        "time": 96.65185184999991,
                        "value": 0
                    },
                    {
                        "number": 64,
                        "time": 96.74477819999991,
                        "value": 1
                    },
                    {
                        "number": 64,
                        "time": 97.35865529999991,
                        "value": 0
                    },
                    {
                        "number": 64,
                        "time": 97.54450799999991,
                        "value": 1
                    },
                    {
                        "number": 64,
                        "time": 98.01195569999992,
                        "value": 0
                    },
                    {
                        "number": 64,
                        "time": 98.12459369999992,
                        "value": 1
                    },
                    {
                        "number": 64,
                        "time": 98.71875914999993,
                        "value": 0
                    },
                    {
                        "number": 64,
                        "time": 98.94403514999992,
                        "value": 1
                    },
                    {
                        "number": 64,
                        "time": 99.36642764999992,
                        "value": 0
                    },
                    {
                        "number": 64,
                        "time": 99.55791224999992,
                        "value": 1
                    },
                    {
                        "number": 64,
                        "time": 100.02254399999991,
                        "value": 0
                    },
                    {
                        "number": 64,
                        "time": 100.13799794999991,
                        "value": 1
                    },
                    {
                        "number": 64,
                        "time": 100.70963579999992,
                        "value": 0
                    },
                    {
                        "number": 64,
                        "time": 100.78848239999992,
                        "value": 1
                    },
                    {
                        "number": 64,
                        "time": 101.39954354999993,
                        "value": 0
                    },
                    {
                        "number": 64,
                        "time": 101.49810179999993,
                        "value": 1
                    },
                    {
                        "number": 64,
                        "time": 102.08945129999992,
                        "value": 0
                    },
                    {
                        "number": 64,
                        "time": 102.20208929999993,
                        "value": 1
                    },
                    {
                        "number": 64,
                        "time": 102.75683144999992,
                        "value": 0
                    },
                    {
                        "number": 64,
                        "time": 102.86383754999993,
                        "value": 1
                    },
                    {
                        "number": 64,
                        "time": 103.43547539999993,
                        "value": 0
                    },
                    {
                        "number": 64,
                        "time": 103.51432199999994,
                        "value": 1
                    },
                    {
                        "number": 64,
                        "time": 104.10848744999994,
                        "value": 0
                    },
                    {
                        "number": 64,
                        "time": 104.19859784999994,
                        "value": 1
                    },
                    {
                        "number": 64,
                        "time": 104.78431544999994,
                        "value": 0
                    },
                    {
                        "number": 64,
                        "time": 104.92229699999994,
                        "value": 1
                    },
                    {
                        "number": 64,
                        "time": 105.38129684999994,
                        "value": 0
                    },
                    {
                        "number": 64,
                        "time": 116.91824399999992,
                        "value": 1
                    },
                    {
                        "number": 64,
                        "time": 117.59407199999991,
                        "value": 0
                    },
                    {
                        "number": 64,
                        "time": 119.63000384999991,
                        "value": 1
                    },
                    {
                        "number": 64,
                        "time": 120.32272754999991,
                        "value": 0
                    },
                    {
                        "number": 64,
                        "time": 127.05566399999991,
                        "value": 1
                    },
                    {
                        "number": 64,
                        "time": 127.77091529999991,
                        "value": 0
                    },
                    {
                        "number": 64,
                        "time": 127.86665759999991,
                        "value": 1
                    },
                    {
                        "number": 64,
                        "time": 129.7589759999999,
                        "value": 0
                    },
                    {
                        "number": 64,
                        "time": 140.6679662999999,
                        "value": 1
                    },
                    {
                        "number": 64,
                        "time": 141.2762114999999,
                        "value": 0
                    },
                    {
                        "number": 64,
                        "time": 141.4170089999999,
                        "value": 1
                    },
                    {
                        "number": 64,
                        "time": 141.95485544999988,
                        "value": 0
                    },
                    {
                        "number": 64,
                        "time": 152.11761899999988,
                        "value": 1
                    },
                    {
                        "number": 64,
                        "time": 152.75683964999988,
                        "value": 0
                    },
                    {
                        "number": 64,
                        "time": 152.83568624999987,
                        "value": 1
                    },
                    {
                        "number": 64,
                        "time": 154.08878399999986,
                        "value": 0
                    },
                    {
                        "number": 64,
                        "time": 154.40698634999987,
                        "value": 1
                    },
                    {
                        "number": 64,
                        "time": 155.47423139999987,
                        "value": 0
                    },
                    {
                        "number": 64,
                        "time": 155.67979574999987,
                        "value": 1
                    },
                    {
                        "number": 64,
                        "time": 156.79209599999987,
                        "value": 0
                    },
                    {
                        "number": 64,
                        "time": 156.92726159999987,
                        "value": 1
                    },
                    {
                        "number": 64,
                        "time": 158.18599124999986,
                        "value": 0
                    },
                    {
                        "number": 64,
                        "time": 158.32115684999985,
                        "value": 1
                    },
                    {
                        "number": 64,
                        "time": 159.50948774999986,
                        "value": 0
                    },
                    {
                        "number": 64,
                        "time": 159.63057359999985,
                        "value": 1
                    },
                    {
                        "number": 64,
                        "time": 160.87522349999986,
                        "value": 0
                    },
                    {
                        "number": 64,
                        "time": 161.00757314999987,
                        "value": 1
                    },
                    {
                        "number": 64,
                        "time": 162.20435189999986,
                        "value": 0
                    },
                    {
                        "number": 64,
                        "time": 163.77565199999987,
                        "value": 1
                    },
                    {
                        "number": 64,
                        "time": 165.9551972999999,
                        "value": 0
                    },
                    {
                        "number": 64,
                        "time": 169.65253964999988,
                        "value": 1
                    },
                    {
                        "number": 64,
                        "time": 170.35934309999988,
                        "value": 0
                    },
                    {
                        "number": 64,
                        "time": 170.47479704999986,
                        "value": 1
                    },
                    {
                        "number": 64,
                        "time": 171.68283959999988,
                        "value": 0
                    },
                    {
                        "number": 64,
                        "time": 171.71944694999988,
                        "value": 1
                    },
                    {
                        "number": 64,
                        "time": 173.06265509999992,
                        "value": 0
                    },
                    {
                        "number": 64,
                        "time": 173.1612133499999,
                        "value": 1
                    },
                    {
                        "number": 64,
                        "time": 174.36362399999996,
                        "value": 0
                    },
                    {
                        "number": 64,
                        "time": 175.74625545,
                        "value": 1
                    },
                    {
                        "number": 64,
                        "time": 177.09509550000004,
                        "value": 0
                    },
                    {
                        "number": 64,
                        "time": 177.20773350000005,
                        "value": 1
                    },
                    {
                        "number": 64,
                        "time": 178.41859200000007,
                        "value": 0
                    },
                    {
                        "number": 64,
                        "time": 178.56220545000008,
                        "value": 1
                    },
                    {
                        "number": 64,
                        "time": 179.81530320000013,
                        "value": 0
                    },
                    {
                        "number": 64,
                        "time": 179.93075715000012,
                        "value": 1
                    },
                    {
                        "number": 64,
                        "time": 180.4122846000001,
                        "value": 0
                    },
                    {
                        "number": 64,
                        "time": 181.14161565000015,
                        "value": 1
                    },
                    {
                        "number": 64,
                        "time": 182.5045354500002,
                        "value": 0
                    },
                    {
                        "number": 64,
                        "time": 182.65096485000018,
                        "value": 1
                    },
                    {
                        "number": 64,
                        "time": 183.8252160000002,
                        "value": 0
                    },
                    {
                        "number": 64,
                        "time": 183.9350380500002,
                        "value": 1
                    },
                    {
                        "number": 64,
                        "time": 185.20784745000023,
                        "value": 0
                    },
                    {
                        "number": 64,
                        "time": 185.30640570000023,
                        "value": 1
                    },
                    {
                        "number": 64,
                        "time": 186.52852800000025,
                        "value": 0
                    },
                    {
                        "number": 64,
                        "time": 191.9464158000002,
                        "value": 1
                    },
                    {
                        "number": 64,
                        "time": 192.6391395000002,
                        "value": 0
                    },
                    {
                        "number": 64,
                        "time": 192.6898266000002,
                        "value": 1
                    },
                    {
                        "number": 64,
                        "time": 193.32059940000022,
                        "value": 0
                    },
                    {
                        "number": 64,
                        "time": 193.42197360000023,
                        "value": 1
                    },
                    {
                        "number": 64,
                        "time": 193.97108385000024,
                        "value": 0
                    },
                    {
                        "number": 64,
                        "time": 194.06401020000024,
                        "value": 1
                    },
                    {
                        "number": 64,
                        "time": 194.67788730000026,
                        "value": 0
                    },
                    {
                        "number": 64,
                        "time": 194.86374000000026,
                        "value": 1
                    },
                    {
                        "number": 64,
                        "time": 195.33118770000027,
                        "value": 0
                    },
                    {
                        "number": 64,
                        "time": 195.44382570000027,
                        "value": 1
                    },
                    {
                        "number": 64,
                        "time": 196.03799115000027,
                        "value": 0
                    },
                    {
                        "number": 64,
                        "time": 196.26326715000027,
                        "value": 1
                    },
                    {
                        "number": 64,
                        "time": 196.6856596500003,
                        "value": 0
                    },
                    {
                        "number": 64,
                        "time": 196.8771442500003,
                        "value": 1
                    },
                    {
                        "number": 64,
                        "time": 197.34177600000032,
                        "value": 0
                    },
                    {
                        "number": 64,
                        "time": 197.4572299500003,
                        "value": 1
                    },
                    {
                        "number": 64,
                        "time": 198.0288678000003,
                        "value": 0
                    },
                    {
                        "number": 64,
                        "time": 198.1077144000003,
                        "value": 1
                    },
                    {
                        "number": 64,
                        "time": 198.71877555000032,
                        "value": 0
                    },
                    {
                        "number": 64,
                        "time": 198.8173338000003,
                        "value": 1
                    },
                    {
                        "number": 64,
                        "time": 199.40868330000032,
                        "value": 0
                    },
                    {
                        "number": 64,
                        "time": 199.52132130000032,
                        "value": 1
                    },
                    {
                        "number": 64,
                        "time": 200.07606345000033,
                        "value": 0
                    },
                    {
                        "number": 64,
                        "time": 200.18306955000034,
                        "value": 1
                    },
                    {
                        "number": 64,
                        "time": 200.75470740000034,
                        "value": 0
                    },
                    {
                        "number": 64,
                        "time": 200.83355400000033,
                        "value": 1
                    },
                    {
                        "number": 64,
                        "time": 201.42771945000032,
                        "value": 0
                    },
                    {
                        "number": 64,
                        "time": 201.5178298500003,
                        "value": 1
                    },
                    {
                        "number": 64,
                        "time": 202.10354745000032,
                        "value": 0
                    },
                    {
                        "number": 64,
                        "time": 202.24152900000033,
                        "value": 1
                    },
                    {
                        "number": 64,
                        "time": 202.70052885000032,
                        "value": 0
                    },
                    {
                        "number": 64,
                        "time": 214.23747600000024,
                        "value": 1
                    },
                    {
                        "number": 64,
                        "time": 214.91330400000024,
                        "value": 0
                    },
                    {
                        "number": 64,
                        "time": 216.94923585000024,
                        "value": 1
                    },
                    {
                        "number": 64,
                        "time": 217.64195955000025,
                        "value": 0
                    },
                    {
                        "number": 64,
                        "time": 227.0782080000002,
                        "value": 0
                    },
                    {
                        "number": 64,
                        "time": 249.43685100000025,
                        "value": 1
                    },
                    {
                        "number": 64,
                        "time": 250.07607165000024,
                        "value": 0
                    },
                    {
                        "number": 64,
                        "time": 250.15491825000024,
                        "value": 1
                    },
                    {
                        "number": 64,
                        "time": 251.40801600000026,
                        "value": 0
                    },
                    {
                        "number": 64,
                        "time": 251.72621835000027,
                        "value": 1
                    },
                    {
                        "number": 64,
                        "time": 252.79346340000032,
                        "value": 0
                    },
                    {
                        "number": 64,
                        "time": 252.99902775000032,
                        "value": 1
                    },
                    {
                        "number": 64,
                        "time": 254.11132800000036,
                        "value": 0
                    },
                    {
                        "number": 64,
                        "time": 254.24649360000035,
                        "value": 1
                    },
                    {
                        "number": 64,
                        "time": 255.50522325000037,
                        "value": 0
                    },
                    {
                        "number": 64,
                        "time": 255.64038885000036,
                        "value": 1
                    },
                    {
                        "number": 64,
                        "time": 256.8287197500004,
                        "value": 0
                    },
                    {
                        "number": 64,
                        "time": 256.9498056000004,
                        "value": 1
                    },
                    {
                        "number": 64,
                        "time": 258.19445550000046,
                        "value": 0
                    },
                    {
                        "number": 64,
                        "time": 258.32680515000044,
                        "value": 1
                    },
                    {
                        "number": 64,
                        "time": 259.5235839000005,
                        "value": 0
                    },
                    {
                        "number": 64,
                        "time": 259.8558660000005,
                        "value": 1
                    },
                    {
                        "number": 64,
                        "time": 260.9033994000005,
                        "value": 0
                    },
                    {
                        "number": 64,
                        "time": 261.2272336500005,
                        "value": 1
                    },
                    {
                        "number": 64,
                        "time": 262.23534375000054,
                        "value": 0
                    },
                    {
                        "number": 64,
                        "time": 262.51975470000053,
                        "value": 1
                    },
                    {
                        "number": 64,
                        "time": 263.59544760000057,
                        "value": 0
                    },
                    {
                        "number": 64,
                        "time": 263.8122757500006,
                        "value": 1
                    },
                    {
                        "number": 64,
                        "time": 264.93865575000063,
                        "value": 0
                    },
                    {
                        "number": 64,
                        "time": 265.12450845000063,
                        "value": 1
                    },
                    {
                        "number": 64,
                        "time": 266.3072074500007,
                        "value": 0
                    },
                    {
                        "number": 64,
                        "time": 266.5550110500007,
                        "value": 1
                    },
                    {
                        "number": 64,
                        "time": 267.6475996500007,
                        "value": 0
                    },
                    {
                        "number": 64,
                        "time": 267.8475321000007,
                        "value": 1
                    },
                    {
                        "number": 64,
                        "time": 268.9992556500007,
                        "value": 0
                    },
                    {
                        "number": 64,
                        "time": 269.2188997500007,
                        "value": 1
                    },
                    {
                        "number": 64,
                        "time": 270.3312000000007,
                        "value": 0
                    },
                    {
                        "number": 64,
                        "time": 270.5818195500007,
                        "value": 1
                    },
                    {
                        "number": 64,
                        "time": 271.6997517000008,
                        "value": 0
                    },
                    {
                        "number": 64,
                        "time": 271.86026085000077,
                        "value": 1
                    },
                    {
                        "number": 64,
                        "time": 273.0570396000008,
                        "value": 0
                    },
                    {
                        "number": 64,
                        "time": 273.2316285000008,
                        "value": 1
                    },
                    {
                        "number": 64,
                        "time": 274.41995940000083,
                        "value": 0
                    },
                    {
                        "number": 64,
                        "time": 274.58328450000084,
                        "value": 1
                    },
                    {
                        "number": 64,
                        "time": 275.7547197000009,
                        "value": 0
                    },
                    {
                        "number": 64,
                        "time": 275.9377564500009,
                        "value": 1
                    },
                    {
                        "number": 64,
                        "time": 276.4615231500009,
                        "value": 0
                    },
                    {
                        "number": 64,
                        "time": 277.3682590500009,
                        "value": 1
                    },
                    {
                        "number": 64,
                        "time": 277.7793877500009,
                        "value": 0
                    },
                    {
                        "number": 64,
                        "time": 278.88042420000096,
                        "value": 1
                    },
                    {
                        "number": 64,
                        "time": 281.58373620000094,
                        "value": 0
                    }
                ]
            },
            "id": 3,
            "name": "Pedal",
            "instrumentNumber": 0,
            "instrument": "acoustic grand piano",
            "instrumentFamily": "piano",
            "channelNumber": 0,
            "isPercussion": false
        },
        {
            "startTime": 0,
            "duration": 0,
            "length": 0,
            "notes": [],
            "controlChanges": {},
            "id": 4,
            "name": "Mozart: Sonate KV 311"
        },
        {
            "startTime": 0,
            "duration": 0,
            "length": 0,
            "notes": [],
            "controlChanges": {},
            "id": 5,
            "name": "Copyright  2006 by Bernd Krger"
        },
        {
            "startTime": 0,
            "duration": 0,
            "length": 0,
            "notes": [],
            "controlChanges": {},
            "id": 6,
            "name": "http://www.piano-midi.de"
        },
        {
            "startTime": 0,
            "duration": 0,
            "length": 0,
            "notes": [],
            "controlChanges": {},
            "id": 7,
            "name": "Edition: 2013-06-06"
        },
        {
            "startTime": 0,
            "duration": 0,
            "length": 0,
            "notes": [],
            "controlChanges": {},
            "id": 8,
            "name": "Spur 8"
        },
        {
            "startTime": 0,
            "duration": 0,
            "length": 0,
            "notes": [],
            "controlChanges": {},
            "id": 9,
            "name": "Spur 9"
        }
    ]
}