{
    "header": {
        "PPQ": 480,
        "timeSignature": [
            4,
            4
        ],
        "bpm": 141.8298892308565,
        "name": "Klaviersonate Nr. 8 KV 311 1. Satz"
    },
    "startTime": 0,
    "duration": 255.0943260000035,
    "tracks": [
        {
            "startTime": 0,
            "duration": 0,
            "length": 0,
            "notes": [],
            "controlChanges": {},
            "id": 0,
            "name": "Klaviersonate Nr. 8 KV 311 1. Satz"
        },
        {
            "startTime": 0,
            "duration": 255.09432600000272,
            "length": 1517,
            "notes": [
                {
                    "name": "A4",
                    "midi": 69,
                    "time": 0,
                    "velocity": 0.47244094488188976,
                    "duration": 0.42304200000000003
                },
                {
                    "name": "D5",
                    "midi": 74,
                    "time": 0,
                    "velocity": 0.5748031496062992,
                    "duration": 0.42304200000000003
                },
                {
                    "name": "F#4",
                    "midi": 66,
                    "time": 0,
                    "velocity": 0.47244094488188976,
                    "duration": 0.42304200000000003
                },
                {
                    "name": "G5",
                    "midi": 79,
                    "time": 0.8460840000000001,
                    "velocity": 0.5196850393700787,
                    "duration": 0.11633654999999998
                },
                {
                    "name": "F#5",
                    "midi": 78,
                    "time": 0.9518445000000001,
                    "velocity": 0.4330708661417323,
                    "duration": 0.1163365500000001
                },
                {
                    "name": "E5",
                    "midi": 76,
                    "time": 1.0576050000000001,
                    "velocity": 0.4251968503937008,
                    "duration": 0.1163365500000002
                },
                {
                    "name": "F#5",
                    "midi": 78,
                    "time": 1.1633655000000003,
                    "velocity": 0.4251968503937008,
                    "duration": 0.1163365500000002
                },
                {
                    "name": "A5",
                    "midi": 81,
                    "time": 1.2691260000000004,
                    "velocity": 0.5118110236220472,
                    "duration": 0.1163365500000002
                },
                {
                    "name": "G5",
                    "midi": 79,
                    "time": 1.3748865000000006,
                    "velocity": 0.4330708661417323,
                    "duration": 0.1163365500000002
                },
                {
                    "name": "F#5",
                    "midi": 78,
                    "time": 1.4806470000000007,
                    "velocity": 0.4330708661417323,
                    "duration": 0.1163365500000002
                },
                {
                    "name": "G5",
                    "midi": 79,
                    "time": 1.5864075000000009,
                    "velocity": 0.4330708661417323,
                    "duration": 0.1163365500000002
                },
                {
                    "name": "A5",
                    "midi": 81,
                    "time": 1.692168000000001,
                    "velocity": 0.4881889763779528,
                    "duration": 0.42304200000000014
                },
                {
                    "name": "A5",
                    "midi": 81,
                    "time": 2.5382520000000013,
                    "velocity": 0.3937007874015748,
                    "duration": 0.05288024999999985
                },
                {
                    "name": "B5",
                    "midi": 83,
                    "time": 2.749773000000001,
                    "velocity": 0.3543307086614173,
                    "duration": 0.05288024999999985
                },
                {
                    "name": "C#6",
                    "midi": 85,
                    "time": 2.961294000000001,
                    "velocity": 0.3543307086614173,
                    "duration": 0.05288024999999985
                },
                {
                    "name": "D6",
                    "midi": 86,
                    "time": 3.172815000000001,
                    "velocity": 0.3543307086614173,
                    "duration": 0.05288024999999985
                },
                {
                    "name": "A5",
                    "midi": 81,
                    "time": 3.3843360000000007,
                    "velocity": 0.4251968503937008,
                    "duration": 0.42304200000000014
                },
                {
                    "name": "F#5",
                    "midi": 78,
                    "time": 3.807378000000001,
                    "velocity": 0.3543307086614173,
                    "duration": 0.4230419999999997
                },
                {
                    "name": "A5",
                    "midi": 81,
                    "time": 4.2304200000000005,
                    "velocity": 0.3937007874015748,
                    "duration": 0.1057604999999997
                },
                {
                    "name": "G5",
                    "midi": 79,
                    "time": 4.3361805,
                    "velocity": 0.3464566929133858,
                    "duration": 0.1057604999999997
                },
                {
                    "name": "F#5",
                    "midi": 78,
                    "time": 4.441941,
                    "velocity": 0.3464566929133858,
                    "duration": 0.1057604999999997
                },
                {
                    "name": "G5",
                    "midi": 79,
                    "time": 4.5477015,
                    "velocity": 0.3464566929133858,
                    "duration": 0.1057604999999997
                },
                {
                    "name": "A5",
                    "midi": 81,
                    "time": 4.653461999999999,
                    "velocity": 0.3858267716535433,
                    "duration": 0.052880250000000295
                },
                {
                    "name": "G5",
                    "midi": 79,
                    "time": 4.864983,
                    "velocity": 0.36220472440944884,
                    "duration": 0.052880250000000295
                },
                {
                    "name": "F5",
                    "midi": 77,
                    "time": 5.076504,
                    "velocity": 0.4251968503937008,
                    "duration": 0.2115210000000003
                },
                {
                    "name": "F#5",
                    "midi": 78,
                    "time": 5.288025,
                    "velocity": 0.3543307086614173,
                    "duration": 0.2115210000000003
                },
                {
                    "name": "G5",
                    "midi": 79,
                    "time": 5.922588,
                    "velocity": 0.5196850393700787,
                    "duration": 0.11633654999999976
                },
                {
                    "name": "F#5",
                    "midi": 78,
                    "time": 6.0283485,
                    "velocity": 0.4330708661417323,
                    "duration": 0.11633654999999976
                },
                {
                    "name": "E5",
                    "midi": 76,
                    "time": 6.134109,
                    "velocity": 0.4251968503937008,
                    "duration": 0.11633654999999976
                },
                {
                    "name": "F#5",
                    "midi": 78,
                    "time": 6.239869499999999,
                    "velocity": 0.4251968503937008,
                    "duration": 0.11633654999999976
                },
                {
                    "name": "A5",
                    "midi": 81,
                    "time": 6.345629999999999,
                    "velocity": 0.5118110236220472,
                    "duration": 0.11633654999999976
                },
                {
                    "name": "G5",
                    "midi": 79,
                    "time": 6.451390499999999,
                    "velocity": 0.4330708661417323,
                    "duration": 0.11633654999999976
                },
                {
                    "name": "F#5",
                    "midi": 78,
                    "time": 6.557150999999998,
                    "velocity": 0.4330708661417323,
                    "duration": 0.11633654999999976
                },
                {
                    "name": "G5",
                    "midi": 79,
                    "time": 6.662911499999998,
                    "velocity": 0.4330708661417323,
                    "duration": 0.11633654999999976
                },
                {
                    "name": "A5",
                    "midi": 81,
                    "time": 6.768671999999998,
                    "velocity": 0.4881889763779528,
                    "duration": 0.4230419999999997
                },
                {
                    "name": "A5",
                    "midi": 81,
                    "time": 7.614755999999997,
                    "velocity": 0.3937007874015748,
                    "duration": 0.052880250000000295
                },
                {
                    "name": "B5",
                    "midi": 83,
                    "time": 7.8262769999999975,
                    "velocity": 0.3543307086614173,
                    "duration": 0.052880250000000295
                },
                {
                    "name": "C#6",
                    "midi": 85,
                    "time": 8.037797999999999,
                    "velocity": 0.3543307086614173,
                    "duration": 0.05288024999999941
                },
                {
                    "name": "D6",
                    "midi": 86,
                    "time": 8.249318999999998,
                    "velocity": 0.3543307086614173,
                    "duration": 0.05288024999999941
                },
                {
                    "name": "A5",
                    "midi": 81,
                    "time": 8.460839999999997,
                    "velocity": 0.4251968503937008,
                    "duration": 0.4230420000000006
                },
                {
                    "name": "F#5",
                    "midi": 78,
                    "time": 8.883881999999998,
                    "velocity": 0.3543307086614173,
                    "duration": 0.4230420000000006
                },
                {
                    "name": "A5",
                    "midi": 81,
                    "time": 9.306923999999999,
                    "velocity": 0.3937007874015748,
                    "duration": 0.10576050000000059
                },
                {
                    "name": "G5",
                    "midi": 79,
                    "time": 9.4126845,
                    "velocity": 0.3464566929133858,
                    "duration": 0.10576050000000059
                },
                {
                    "name": "F#5",
                    "midi": 78,
                    "time": 9.518445,
                    "velocity": 0.3464566929133858,
                    "duration": 0.10576050000000059
                },
                {
                    "name": "G5",
                    "midi": 79,
                    "time": 9.6242055,
                    "velocity": 0.3464566929133858,
                    "duration": 0.10576050000000059
                },
                {
                    "name": "A5",
                    "midi": 81,
                    "time": 9.729966000000001,
                    "velocity": 0.3937007874015748,
                    "duration": 0.10576050000000059
                },
                {
                    "name": "G5",
                    "midi": 79,
                    "time": 9.835726500000002,
                    "velocity": 0.3464566929133858,
                    "duration": 0.10576050000000059
                },
                {
                    "name": "F#5",
                    "midi": 78,
                    "time": 9.941487000000002,
                    "velocity": 0.3464566929133858,
                    "duration": 0.10576050000000059
                },
                {
                    "name": "E5",
                    "midi": 76,
                    "time": 10.047247500000003,
                    "velocity": 0.3464566929133858,
                    "duration": 0.10576050000000059
                },
                {
                    "name": "D5",
                    "midi": 74,
                    "time": 10.153008000000003,
                    "velocity": 0.3937007874015748,
                    "duration": 0.10576050000000059
                },
                {
                    "name": "A4",
                    "midi": 69,
                    "time": 10.576050000000004,
                    "velocity": 0.33070866141732286,
                    "duration": 0.10576050000000059
                },
                {
                    "name": "F#5",
                    "midi": 78,
                    "time": 10.999092000000005,
                    "velocity": 0.3700787401574803,
                    "duration": 0.07755769999999984
                },
                {
                    "name": "G5",
                    "midi": 79,
                    "time": 11.069599000000004,
                    "velocity": 0.33858267716535434,
                    "duration": 0.07755770000000162
                },
                {
                    "name": "F#5",
                    "midi": 78,
                    "time": 11.140106000000005,
                    "velocity": 0.3779527559055118,
                    "duration": 0.07755770000000162
                },
                {
                    "name": "G5",
                    "midi": 79,
                    "time": 11.210613000000006,
                    "velocity": 0.33858267716535434,
                    "duration": 0.07755769999999984
                },
                {
                    "name": "F#5",
                    "midi": 78,
                    "time": 11.280238662500006,
                    "velocity": 0.3779527559055118,
                    "duration": 0.07755769999999984
                },
                {
                    "name": "G5",
                    "midi": 79,
                    "time": 11.350745662500005,
                    "velocity": 0.3464566929133858,
                    "duration": 0.07755770000000162
                },
                {
                    "name": "F#5",
                    "midi": 78,
                    "time": 11.421252662500006,
                    "velocity": 0.3779527559055118,
                    "duration": 0.07755770000000162
                },
                {
                    "name": "G5",
                    "midi": 79,
                    "time": 11.491759662500007,
                    "velocity": 0.3464566929133858,
                    "duration": 0.07755770000000162
                },
                {
                    "name": "F#5",
                    "midi": 78,
                    "time": 11.562266662500008,
                    "velocity": 0.3464566929133858,
                    "duration": 0.07755769999999984
                },
                {
                    "name": "E5",
                    "midi": 76,
                    "time": 11.633655000000008,
                    "velocity": 0.3779527559055118,
                    "duration": 0.11633654999999798
                },
                {
                    "name": "D5",
                    "midi": 74,
                    "time": 11.739415500000007,
                    "velocity": 0.3464566929133858,
                    "duration": 0.11633654999999798
                },
                {
                    "name": "C#5",
                    "midi": 73,
                    "time": 11.845176000000006,
                    "velocity": 0.3937007874015748,
                    "duration": 0.10576049999999881
                },
                {
                    "name": "A4",
                    "midi": 69,
                    "time": 12.268218000000005,
                    "velocity": 0.33070866141732286,
                    "duration": 0.10576050000000059
                },
                {
                    "name": "E5",
                    "midi": 76,
                    "time": 12.691260000000005,
                    "velocity": 0.3937007874015748,
                    "duration": 0.10576050000000059
                },
                {
                    "name": "E5",
                    "midi": 76,
                    "time": 13.537344000000006,
                    "velocity": 0.3937007874015748,
                    "duration": 0.10576050000000059
                },
                {
                    "name": "A4",
                    "midi": 69,
                    "time": 13.960386000000007,
                    "velocity": 0.33070866141732286,
                    "duration": 0.10576050000000059
                },
                {
                    "name": "G5",
                    "midi": 79,
                    "time": 14.383428000000007,
                    "velocity": 0.3700787401574803,
                    "duration": 0.07755769999999984
                },
                {
                    "name": "A5",
                    "midi": 81,
                    "time": 14.453935000000007,
                    "velocity": 0.33858267716535434,
                    "duration": 0.07755770000000162
                },
                {
                    "name": "G5",
                    "midi": 79,
                    "time": 14.524442000000008,
                    "velocity": 0.3779527559055118,
                    "duration": 0.07755770000000162
                },
                {
                    "name": "A5",
                    "midi": 81,
                    "time": 14.594949000000009,
                    "velocity": 0.33858267716535434,
                    "duration": 0.07755769999999984
                },
                {
                    "name": "G5",
                    "midi": 79,
                    "time": 14.664574662500009,
                    "velocity": 0.3779527559055118,
                    "duration": 0.07755769999999984
                },
                {
                    "name": "A5",
                    "midi": 81,
                    "time": 14.735081662500008,
                    "velocity": 0.3464566929133858,
                    "duration": 0.07755770000000162
                },
                {
                    "name": "G5",
                    "midi": 79,
                    "time": 14.805588662500009,
                    "velocity": 0.3779527559055118,
                    "duration": 0.07755770000000162
                },
                {
                    "name": "A5",
                    "midi": 81,
                    "time": 14.87609566250001,
                    "velocity": 0.3464566929133858,
                    "duration": 0.07755770000000162
                },
                {
                    "name": "G5",
                    "midi": 79,
                    "time": 14.94660266250001,
                    "velocity": 0.3464566929133858,
                    "duration": 0.07755769999999984
                },
                {
                    "name": "F#5",
                    "midi": 78,
                    "time": 15.017991000000011,
                    "velocity": 0.3779527559055118,
                    "duration": 0.11633654999999798
                },
                {
                    "name": "E5",
                    "midi": 76,
                    "time": 15.12375150000001,
                    "velocity": 0.3464566929133858,
                    "duration": 0.11633654999999798
                },
                {
                    "name": "D5",
                    "midi": 74,
                    "time": 15.229512000000009,
                    "velocity": 0.3937007874015748,
                    "duration": 0.10576049999999881
                },
                {
                    "name": "A4",
                    "midi": 69,
                    "time": 15.652554000000007,
                    "velocity": 0.33070866141732286,
                    "duration": 0.10576050000000059
                },
                {
                    "name": "F#5",
                    "midi": 78,
                    "time": 16.075596000000008,
                    "velocity": 0.3937007874015748,
                    "duration": 0.10576049999999881
                },
                {
                    "name": "F#5",
                    "midi": 78,
                    "time": 16.921680000000006,
                    "velocity": 0.4251968503937008,
                    "duration": 0.10576049999999881
                },
                {
                    "name": "D5",
                    "midi": 74,
                    "time": 17.027440500000004,
                    "velocity": 0.3700787401574803,
                    "duration": 0.11633654999999976
                },
                {
                    "name": "E5",
                    "midi": 76,
                    "time": 17.133201000000003,
                    "velocity": 0.3779527559055118,
                    "duration": 0.11633655000000331
                },
                {
                    "name": "F#5",
                    "midi": 78,
                    "time": 17.238961500000006,
                    "velocity": 0.3858267716535433,
                    "duration": 0.11633655000000331
                },
                {
                    "name": "G5",
                    "midi": 79,
                    "time": 17.344722000000008,
                    "velocity": 0.3937007874015748,
                    "duration": 0.11633655000000331
                },
                {
                    "name": "A5",
                    "midi": 81,
                    "time": 17.45048250000001,
                    "velocity": 0.4015748031496063,
                    "duration": 0.11633655000000331
                },
                {
                    "name": "B5",
                    "midi": 83,
                    "time": 17.556243000000013,
                    "velocity": 0.4094488188976378,
                    "duration": 0.11633655000000331
                },
                {
                    "name": "C#6",
                    "midi": 85,
                    "time": 17.662003500000015,
                    "velocity": 0.41732283464566927,
                    "duration": 0.11633655000000331
                },
                {
                    "name": "D6",
                    "midi": 86,
                    "time": 17.767764000000017,
                    "velocity": 0.4330708661417323,
                    "duration": 0.11633655000000331
                },
                {
                    "name": "C#6",
                    "midi": 85,
                    "time": 17.87352450000002,
                    "velocity": 0.4409448818897638,
                    "duration": 0.11633655000000331
                },
                {
                    "name": "B5",
                    "midi": 83,
                    "time": 17.979285000000022,
                    "velocity": 0.4409448818897638,
                    "duration": 0.11633655000000331
                },
                {
                    "name": "A5",
                    "midi": 81,
                    "time": 18.085045500000025,
                    "velocity": 0.4409448818897638,
                    "duration": 0.11633655000000331
                },
                {
                    "name": "G5",
                    "midi": 79,
                    "time": 18.190806000000027,
                    "velocity": 0.4409448818897638,
                    "duration": 0.11633655000000331
                },
                {
                    "name": "F#5",
                    "midi": 78,
                    "time": 18.29656650000003,
                    "velocity": 0.4330708661417323,
                    "duration": 0.11633655000000331
                },
                {
                    "name": "E5",
                    "midi": 76,
                    "time": 18.40232700000003,
                    "velocity": 0.3937007874015748,
                    "duration": 0.11633655000000331
                },
                {
                    "name": "D5",
                    "midi": 74,
                    "time": 18.508087500000034,
                    "velocity": 0.3858267716535433,
                    "duration": 0.11633655000000331
                },
                {
                    "name": "E5",
                    "midi": 76,
                    "time": 18.613848000000036,
                    "velocity": 0.4015748031496063,
                    "duration": 0.11633655000000331
                },
                {
                    "name": "F#5",
                    "midi": 78,
                    "time": 18.71960850000004,
                    "velocity": 0.3779527559055118,
                    "duration": 0.11633655000000331
                },
                {
                    "name": "E5",
                    "midi": 76,
                    "time": 18.82536900000004,
                    "velocity": 0.3543307086614173,
                    "duration": 0.11633655000000331
                },
                {
                    "name": "D#5",
                    "midi": 75,
                    "time": 18.931129500000043,
                    "velocity": 0.33858267716535434,
                    "duration": 0.11633655000000331
                },
                {
                    "name": "E5",
                    "midi": 76,
                    "time": 19.036890000000046,
                    "velocity": 0.3543307086614173,
                    "duration": 0.11633655000000331
                },
                {
                    "name": "F#5",
                    "midi": 78,
                    "time": 19.142650500000048,
                    "velocity": 0.3700787401574803,
                    "duration": 0.11633655000000331
                },
                {
                    "name": "G5",
                    "midi": 79,
                    "time": 19.24841100000005,
                    "velocity": 0.3858267716535433,
                    "duration": 0.11633655000000331
                },
                {
                    "name": "A5",
                    "midi": 81,
                    "time": 19.354171500000053,
                    "velocity": 0.4015748031496063,
                    "duration": 0.11633655000000331
                },
                {
                    "name": "B5",
                    "midi": 83,
                    "time": 19.459932000000055,
                    "velocity": 0.41732283464566927,
                    "duration": 0.11633655000000331
                },
                {
                    "name": "A5",
                    "midi": 81,
                    "time": 19.565692500000058,
                    "velocity": 0.4251968503937008,
                    "duration": 0.11633655000000331
                },
                {
                    "name": "G5",
                    "midi": 79,
                    "time": 19.67145300000006,
                    "velocity": 0.41732283464566927,
                    "duration": 0.11633655000000331
                },
                {
                    "name": "F#5",
                    "midi": 78,
                    "time": 19.777213500000062,
                    "velocity": 0.4015748031496063,
                    "duration": 0.11633655000000331
                },
                {
                    "name": "E5",
                    "midi": 76,
                    "time": 19.882974000000065,
                    "velocity": 0.3858267716535433,
                    "duration": 0.11633655000000331
                },
                {
                    "name": "D5",
                    "midi": 74,
                    "time": 19.988734500000067,
                    "velocity": 0.3779527559055118,
                    "duration": 0.11633655000000331
                },
                {
                    "name": "C#5",
                    "midi": 73,
                    "time": 20.09449500000007,
                    "velocity": 0.36220472440944884,
                    "duration": 0.11633655000000331
                },
                {
                    "name": "B4",
                    "midi": 71,
                    "time": 20.200255500000072,
                    "velocity": 0.3464566929133858,
                    "duration": 0.11633655000000331
                },
                {
                    "name": "C#5",
                    "midi": 73,
                    "time": 20.306016000000074,
                    "velocity": 0.3937007874015748,
                    "duration": 0.11633655000000331
                },
                {
                    "name": "D5",
                    "midi": 74,
                    "time": 20.411776500000077,
                    "velocity": 0.33070866141732286,
                    "duration": 0.11633655000000331
                },
                {
                    "name": "C#5",
                    "midi": 73,
                    "time": 20.51753700000008,
                    "velocity": 0.33070866141732286,
                    "duration": 0.11633655000000331
                },
                {
                    "name": "A4",
                    "midi": 69,
                    "time": 20.62329750000008,
                    "velocity": 0.31496062992125984,
                    "duration": 0.11633655000000331
                },
                {
                    "name": "D5",
                    "midi": 74,
                    "time": 20.729058000000084,
                    "velocity": 0.3700787401574803,
                    "duration": 0.10576050000000237
                },
                {
                    "name": "G5",
                    "midi": 79,
                    "time": 21.152100000000086,
                    "velocity": 0.4330708661417323,
                    "duration": 0.11633654999999976
                },
                {
                    "name": "A5",
                    "midi": 81,
                    "time": 21.257860500000085,
                    "velocity": 0.36220472440944884,
                    "duration": 0.11633655000000331
                },
                {
                    "name": "G5",
                    "midi": 79,
                    "time": 21.363621000000087,
                    "velocity": 0.36220472440944884,
                    "duration": 0.11633655000000331
                },
                {
                    "name": "E5",
                    "midi": 76,
                    "time": 21.46938150000009,
                    "velocity": 0.36220472440944884,
                    "duration": 0.11633655000000331
                },
                {
                    "name": "G5",
                    "midi": 79,
                    "time": 21.575142000000092,
                    "velocity": 0.4409448818897638,
                    "duration": 0.11633655000000331
                },
                {
                    "name": "F#5",
                    "midi": 78,
                    "time": 21.680902500000094,
                    "velocity": 0.3700787401574803,
                    "duration": 0.11633655000000331
                },
                {
                    "name": "E5",
                    "midi": 76,
                    "time": 21.786663000000097,
                    "velocity": 0.3779527559055118,
                    "duration": 0.11633655000000331
                },
                {
                    "name": "D5",
                    "midi": 74,
                    "time": 21.8924235000001,
                    "velocity": 0.3779527559055118,
                    "duration": 0.11633655000000331
                },
                {
                    "name": "C#5",
                    "midi": 73,
                    "time": 21.9981840000001,
                    "velocity": 0.44881889763779526,
                    "duration": 0.11633655000000331
                },
                {
                    "name": "D5",
                    "midi": 74,
                    "time": 22.103944500000104,
                    "velocity": 0.3464566929133858,
                    "duration": 0.11633655000000331
                },
                {
                    "name": "C#5",
                    "midi": 73,
                    "time": 22.209705000000106,
                    "velocity": 0.3464566929133858,
                    "duration": 0.11633655000000331
                },
                {
                    "name": "A4",
                    "midi": 69,
                    "time": 22.31546550000011,
                    "velocity": 0.3464566929133858,
                    "duration": 0.11633655000000331
                },
                {
                    "name": "D5",
                    "midi": 74,
                    "time": 22.42122600000011,
                    "velocity": 0.44881889763779526,
                    "duration": 0.10576050000000237
                },
                {
                    "name": "G5",
                    "midi": 79,
                    "time": 22.844268000000113,
                    "velocity": 0.5118110236220472,
                    "duration": 0.11633654999999976
                },
                {
                    "name": "A5",
                    "midi": 81,
                    "time": 22.950028500000112,
                    "velocity": 0.4251968503937008,
                    "duration": 0.11633655000000331
                },
                {
                    "name": "G5",
                    "midi": 79,
                    "time": 23.055789000000114,
                    "velocity": 0.4251968503937008,
                    "duration": 0.11633655000000331
                },
                {
                    "name": "E5",
                    "midi": 76,
                    "time": 23.161549500000117,
                    "velocity": 0.4409448818897638,
                    "duration": 0.11633655000000331
                },
                {
                    "name": "G5",
                    "midi": 79,
                    "time": 23.26731000000012,
                    "velocity": 0.5433070866141733,
                    "duration": 0.11633655000000331
                },
                {
                    "name": "F#5",
                    "midi": 78,
                    "time": 23.37307050000012,
                    "velocity": 0.4409448818897638,
                    "duration": 0.11633655000000331
                },
                {
                    "name": "E5",
                    "midi": 76,
                    "time": 23.478831000000124,
                    "velocity": 0.4409448818897638,
                    "duration": 0.11633655000000331
                },
                {
                    "name": "D5",
                    "midi": 74,
                    "time": 23.584591500000126,
                    "velocity": 0.4645669291338583,
                    "duration": 0.11633655000000331
                },
                {
                    "name": "C#5",
                    "midi": 73,
                    "time": 23.69035200000013,
                    "velocity": 0.6220472440944882,
                    "duration": 0.10576050000000237
                },
                {
                    "name": "E5",
                    "midi": 76,
                    "time": 23.79611250000013,
                    "velocity": 0.49606299212598426,
                    "duration": 0.10576049999999881
                },
                {
                    "name": "C#5",
                    "midi": 73,
                    "time": 23.90187300000013,
                    "velocity": 0.49606299212598426,
                    "duration": 0.10576049999999881
                },
                {
                    "name": "A4",
                    "midi": 69,
                    "time": 24.00763350000013,
                    "velocity": 0.49606299212598426,
                    "duration": 0.10576049999999881
                },
                {
                    "name": "F#5",
                    "midi": 78,
                    "time": 24.113394000000127,
                    "velocity": 0.5826771653543307,
                    "duration": 0.10576049999999881
                },
                {
                    "name": "A5",
                    "midi": 81,
                    "time": 24.219154500000126,
                    "velocity": 0.5039370078740157,
                    "duration": 0.10576049999999881
                },
                {
                    "name": "F#5",
                    "midi": 78,
                    "time": 24.324915000000125,
                    "velocity": 0.5039370078740157,
                    "duration": 0.10576049999999881
                },
                {
                    "name": "D5",
                    "midi": 74,
                    "time": 24.430675500000124,
                    "velocity": 0.5039370078740157,
                    "duration": 0.10576049999999881
                },
                {
                    "name": "C#5",
                    "midi": 73,
                    "time": 24.536436000000123,
                    "velocity": 0.6062992125984252,
                    "duration": 0.10576049999999881
                },
                {
                    "name": "E5",
                    "midi": 76,
                    "time": 24.64219650000012,
                    "velocity": 0.5039370078740157,
                    "duration": 0.10576049999999881
                },
                {
                    "name": "C#5",
                    "midi": 73,
                    "time": 24.74795700000012,
                    "velocity": 0.5039370078740157,
                    "duration": 0.10576049999999881
                },
                {
                    "name": "A4",
                    "midi": 69,
                    "time": 24.85371750000012,
                    "velocity": 0.5039370078740157,
                    "duration": 0.10576049999999881
                },
                {
                    "name": "F#5",
                    "midi": 78,
                    "time": 24.959478000000118,
                    "velocity": 0.6062992125984252,
                    "duration": 0.10576049999999881
                },
                {
                    "name": "A5",
                    "midi": 81,
                    "time": 25.065238500000117,
                    "velocity": 0.5039370078740157,
                    "duration": 0.10576049999999881
                },
                {
                    "name": "F#5",
                    "midi": 78,
                    "time": 25.170999000000116,
                    "velocity": 0.5039370078740157,
                    "duration": 0.10576049999999881
                },
                {
                    "name": "D5",
                    "midi": 74,
                    "time": 25.276759500000114,
                    "velocity": 0.5039370078740157,
                    "duration": 0.10576049999999881
                },
                {
                    "name": "C#5",
                    "midi": 73,
                    "time": 25.382520000000113,
                    "velocity": 0.5433070866141733,
                    "duration": 0.07932037500000177
                },
                {
                    "name": "E5",
                    "midi": 76,
                    "time": 25.382520000000113,
                    "velocity": 0.6614173228346457,
                    "duration": 0.07932037500000177
                },
                {
                    "name": "A5",
                    "midi": 81,
                    "time": 25.594041000000114,
                    "velocity": 0.5826771653543307,
                    "duration": 0.07932037499999822
                },
                {
                    "name": "C#5",
                    "midi": 73,
                    "time": 25.594041000000114,
                    "velocity": 0.47244094488188976,
                    "duration": 0.07932037499999822
                },
                {
                    "name": "E5",
                    "midi": 76,
                    "time": 25.594041000000114,
                    "velocity": 0.47244094488188976,
                    "duration": 0.07932037499999822
                },
                {
                    "name": "E5",
                    "midi": 76,
                    "time": 25.805562000000112,
                    "velocity": 0.47244094488188976,
                    "duration": 0.07932037499999822
                },
                {
                    "name": "C#5",
                    "midi": 73,
                    "time": 25.805562000000112,
                    "velocity": 0.47244094488188976,
                    "duration": 0.07932037499999822
                },
                {
                    "name": "A5",
                    "midi": 81,
                    "time": 25.805562000000112,
                    "velocity": 0.5826771653543307,
                    "duration": 0.07932037499999822
                },
                {
                    "name": "E5",
                    "midi": 76,
                    "time": 26.01708300000011,
                    "velocity": 0.47244094488188976,
                    "duration": 0.07932037499999822
                },
                {
                    "name": "C#5",
                    "midi": 73,
                    "time": 26.01708300000011,
                    "velocity": 0.47244094488188976,
                    "duration": 0.07932037499999822
                },
                {
                    "name": "A5",
                    "midi": 81,
                    "time": 26.01708300000011,
                    "velocity": 0.5826771653543307,
                    "duration": 0.07932037499999822
                },
                {
                    "name": "C#5",
                    "midi": 73,
                    "time": 26.228604000000107,
                    "velocity": 0.47244094488188976,
                    "duration": 0.3701617500000012
                },
                {
                    "name": "A5",
                    "midi": 81,
                    "time": 26.228604000000107,
                    "velocity": 0.5826771653543307,
                    "duration": 0.3701617500000012
                },
                {
                    "name": "E5",
                    "midi": 76,
                    "time": 26.228604000000107,
                    "velocity": 0.47244094488188976,
                    "duration": 0.3701617500000012
                },
                {
                    "name": "D5",
                    "midi": 74,
                    "time": 26.59876575000011,
                    "velocity": 0.3228346456692913,
                    "duration": 0.05288025000000118
                },
                {
                    "name": "C#5",
                    "midi": 73,
                    "time": 26.65164600000011,
                    "velocity": 0.33070866141732286,
                    "duration": 0.10576049999999881
                },
                {
                    "name": "B4",
                    "midi": 71,
                    "time": 26.75740650000011,
                    "velocity": 0.31496062992125984,
                    "duration": 0.10576049999999881
                },
                {
                    "name": "C#5",
                    "midi": 73,
                    "time": 26.863167000000107,
                    "velocity": 0.31496062992125984,
                    "duration": 0.10576049999999881
                },
                {
                    "name": "D5",
                    "midi": 74,
                    "time": 26.968927500000106,
                    "velocity": 0.31496062992125984,
                    "duration": 0.10576049999999881
                },
                {
                    "name": "D#5",
                    "midi": 75,
                    "time": 27.074688000000105,
                    "velocity": 0.3543307086614173,
                    "duration": 0.21152100000000118
                },
                {
                    "name": "E5",
                    "midi": 76,
                    "time": 27.286209000000106,
                    "velocity": 0.33070866141732286,
                    "duration": 0.21152100000000118
                },
                {
                    "name": "E5",
                    "midi": 76,
                    "time": 27.70925100000011,
                    "velocity": 0.31496062992125984,
                    "duration": 0.21152100000000118
                },
                {
                    "name": "A5",
                    "midi": 81,
                    "time": 27.92077200000011,
                    "velocity": 0.36220472440944884,
                    "duration": 0.21152100000000118
                },
                {
                    "name": "G#5",
                    "midi": 80,
                    "time": 28.13229300000011,
                    "velocity": 0.33070866141732286,
                    "duration": 0.21152100000000118
                },
                {
                    "name": "F#5",
                    "midi": 78,
                    "time": 28.343814000000112,
                    "velocity": 0.3464566929133858,
                    "duration": 0.21152100000000118
                },
                {
                    "name": "E5",
                    "midi": 76,
                    "time": 28.555335000000113,
                    "velocity": 0.33070866141732286,
                    "duration": 0.21152100000000118
                },
                {
                    "name": "C#5",
                    "midi": 73,
                    "time": 28.766856000000114,
                    "velocity": 0.3779527559055118,
                    "duration": 0.21152100000000118
                },
                {
                    "name": "D5",
                    "midi": 74,
                    "time": 28.978377000000116,
                    "velocity": 0.33070866141732286,
                    "duration": 0.21152100000000118
                },
                {
                    "name": "D5",
                    "midi": 74,
                    "time": 29.401419000000118,
                    "velocity": 0.31496062992125984,
                    "duration": 0.21152100000000118
                },
                {
                    "name": "E5",
                    "midi": 76,
                    "time": 29.61294000000012,
                    "velocity": 0.3543307086614173,
                    "duration": 0.21152100000000118
                },
                {
                    "name": "D5",
                    "midi": 74,
                    "time": 29.82446100000012,
                    "velocity": 0.33070866141732286,
                    "duration": 0.21152100000000118
                },
                {
                    "name": "C#5",
                    "midi": 73,
                    "time": 30.03598200000012,
                    "velocity": 0.3543307086614173,
                    "duration": 0.21152100000000118
                },
                {
                    "name": "B4",
                    "midi": 71,
                    "time": 30.247503000000123,
                    "velocity": 0.33070866141732286,
                    "duration": 0.21152100000000118
                },
                {
                    "name": "G#4",
                    "midi": 68,
                    "time": 30.459024000000124,
                    "velocity": 0.3779527559055118,
                    "duration": 0.21152100000000118
                },
                {
                    "name": "A4",
                    "midi": 69,
                    "time": 30.670545000000125,
                    "velocity": 0.3464566929133858,
                    "duration": 0.21152100000000118
                },
                {
                    "name": "B4",
                    "midi": 71,
                    "time": 31.093587000000127,
                    "velocity": 0.3543307086614173,
                    "duration": 0.21152100000000118
                },
                {
                    "name": "C5",
                    "midi": 72,
                    "time": 31.30510800000013,
                    "velocity": 0.3937007874015748,
                    "duration": 0.21152100000000118
                },
                {
                    "name": "C#5",
                    "midi": 73,
                    "time": 31.51662900000013,
                    "velocity": 0.36220472440944884,
                    "duration": 0.21152100000000118
                },
                {
                    "name": "E5",
                    "midi": 76,
                    "time": 31.88679075000013,
                    "velocity": 0.33070866141732286,
                    "duration": 0.05288025000000118
                },
                {
                    "name": "D5",
                    "midi": 74,
                    "time": 31.939671000000132,
                    "velocity": 0.3700787401574803,
                    "duration": 0.21152099999999763
                },
                {
                    "name": "C#5",
                    "midi": 73,
                    "time": 32.15119200000013,
                    "velocity": 0.4015748031496063,
                    "duration": 0.634563
                },
                {
                    "name": "D5",
                    "midi": 74,
                    "time": 32.78575500000013,
                    "velocity": 0.3464566929133858,
                    "duration": 0.10576050000000237
                },
                {
                    "name": "C#5",
                    "midi": 73,
                    "time": 32.89151550000013,
                    "velocity": 0.33070866141732286,
                    "duration": 0.10576050000000237
                },
                {
                    "name": "B4",
                    "midi": 71,
                    "time": 32.997276000000134,
                    "velocity": 0.3700787401574803,
                    "duration": 0.21152099999999763
                },
                {
                    "name": "C#5",
                    "midi": 73,
                    "time": 33.20879700000013,
                    "velocity": 0.33070866141732286,
                    "duration": 0.10576050000000237
                },
                {
                    "name": "D5",
                    "midi": 74,
                    "time": 33.42031800000014,
                    "velocity": 0.3464566929133858,
                    "duration": 0.10576050000000237
                },
                {
                    "name": "D#5",
                    "midi": 75,
                    "time": 33.63183900000014,
                    "velocity": 0.3700787401574803,
                    "duration": 0.10576050000000237
                },
                {
                    "name": "D#5",
                    "midi": 75,
                    "time": 33.843360000000146,
                    "velocity": 0.33858267716535434,
                    "duration": 0.21152099999999763
                },
                {
                    "name": "E5",
                    "midi": 76,
                    "time": 34.054881000000144,
                    "velocity": 0.33070866141732286,
                    "duration": 0.21152099999999763
                },
                {
                    "name": "F#5",
                    "midi": 78,
                    "time": 34.47792300000014,
                    "velocity": 0.31496062992125984,
                    "duration": 0.05288025000000118
                },
                {
                    "name": "E5",
                    "midi": 76,
                    "time": 34.53080325000014,
                    "velocity": 0.29133858267716534,
                    "duration": 0.05288025000000118
                },
                {
                    "name": "D#5",
                    "midi": 75,
                    "time": 34.58368350000014,
                    "velocity": 0.29133858267716534,
                    "duration": 0.05288025000000118
                },
                {
                    "name": "E5",
                    "midi": 76,
                    "time": 34.63656375000014,
                    "velocity": 0.29133858267716534,
                    "duration": 0.05288025000000118
                },
                {
                    "name": "A5",
                    "midi": 81,
                    "time": 34.689444000000144,
                    "velocity": 0.36220472440944884,
                    "duration": 0.10576050000000237
                },
                {
                    "name": "G#5",
                    "midi": 80,
                    "time": 34.90096500000015,
                    "velocity": 0.33070866141732286,
                    "duration": 0.10576050000000237
                },
                {
                    "name": "F#5",
                    "midi": 78,
                    "time": 35.11248600000015,
                    "velocity": 0.3464566929133858,
                    "duration": 0.10576050000000237
                },
                {
                    "name": "E5",
                    "midi": 76,
                    "time": 35.32400700000016,
                    "velocity": 0.33070866141732286,
                    "duration": 0.10576050000000237
                },
                {
                    "name": "C#5",
                    "midi": 73,
                    "time": 35.53552800000016,
                    "velocity": 0.3779527559055118,
                    "duration": 0.21152099999999763
                },
                {
                    "name": "D5",
                    "midi": 74,
                    "time": 35.74704900000016,
                    "velocity": 0.33070866141732286,
                    "duration": 0.21152099999999763
                },
                {
                    "name": "E5",
                    "midi": 76,
                    "time": 36.170091000000156,
                    "velocity": 0.31496062992125984,
                    "duration": 0.05288025000000118
                },
                {
                    "name": "D5",
                    "midi": 74,
                    "time": 36.22297125000016,
                    "velocity": 0.29133858267716534,
                    "duration": 0.05288025000000118
                },
                {
                    "name": "C#5",
                    "midi": 73,
                    "time": 36.27585150000016,
                    "velocity": 0.29133858267716534,
                    "duration": 0.05288025000000118
                },
                {
                    "name": "D5",
                    "midi": 74,
                    "time": 36.32873175000016,
                    "velocity": 0.29133858267716534,
                    "duration": 0.05288025000000118
                },
                {
                    "name": "E5",
                    "midi": 76,
                    "time": 36.38161200000016,
                    "velocity": 0.3543307086614173,
                    "duration": 0.10576050000000237
                },
                {
                    "name": "D5",
                    "midi": 74,
                    "time": 36.593133000000165,
                    "velocity": 0.33070866141732286,
                    "duration": 0.10576050000000237
                },
                {
                    "name": "C#5",
                    "midi": 73,
                    "time": 36.80465400000017,
                    "velocity": 0.3543307086614173,
                    "duration": 0.10576050000000237
                },
                {
                    "name": "B4",
                    "midi": 71,
                    "time": 37.016175000000175,
                    "velocity": 0.33070866141732286,
                    "duration": 0.10576050000000237
                },
                {
                    "name": "C#5",
                    "midi": 73,
                    "time": 37.22769600000018,
                    "velocity": 0.3543307086614173,
                    "duration": 0.3172815
                },
                {
                    "name": "E5",
                    "midi": 76,
                    "time": 37.54497750000018,
                    "velocity": 0.33070866141732286,
                    "duration": 0.10576050000000237
                },
                {
                    "name": "F#4",
                    "midi": 66,
                    "time": 37.65073800000018,
                    "velocity": 0.3543307086614173,
                    "duration": 0.3172815
                },
                {
                    "name": "B4",
                    "midi": 71,
                    "time": 37.96801950000018,
                    "velocity": 0.3228346456692913,
                    "duration": 0.10576050000000237
                },
                {
                    "name": "A4",
                    "midi": 69,
                    "time": 38.073780000000184,
                    "velocity": 0.3543307086614173,
                    "duration": 0.42304200000000236
                },
                {
                    "name": "G#4",
                    "midi": 68,
                    "time": 38.496822000000186,
                    "velocity": 0.33858267716535434,
                    "duration": 0.05288025000000118
                },
                {
                    "name": "A4",
                    "midi": 69,
                    "time": 38.54970225000019,
                    "velocity": 0.30708661417322836,
                    "duration": 0.05288025000000118
                },
                {
                    "name": "G#4",
                    "midi": 68,
                    "time": 38.60258250000019,
                    "velocity": 0.33858267716535434,
                    "duration": 0.05288025000000118
                },
                {
                    "name": "A4",
                    "midi": 69,
                    "time": 38.65546275000019,
                    "velocity": 0.31496062992125984,
                    "duration": 0.05288025000000118
                },
                {
                    "name": "G#4",
                    "midi": 68,
                    "time": 38.70834300000019,
                    "velocity": 0.33858267716535434,
                    "duration": 0.07050699999999921
                },
                {
                    "name": "F#4",
                    "midi": 66,
                    "time": 38.77885000000019,
                    "velocity": 0.31496062992125984,
                    "duration": 0.07050699999999921
                },
                {
                    "name": "G#4",
                    "midi": 68,
                    "time": 38.84935700000019,
                    "velocity": 0.31496062992125984,
                    "duration": 0.07050699999999921
                },
                {
                    "name": "A4",
                    "midi": 69,
                    "time": 38.91986400000019,
                    "velocity": 0.36220472440944884,
                    "duration": 0.10576050000000237
                },
                {
                    "name": "E5",
                    "midi": 76,
                    "time": 39.02562450000019,
                    "velocity": 0.3464566929133858,
                    "duration": 0.10576050000000237
                },
                {
                    "name": "D#5",
                    "midi": 75,
                    "time": 39.13138500000019,
                    "velocity": 0.3700787401574803,
                    "duration": 0.10576050000000237
                },
                {
                    "name": "E5",
                    "midi": 76,
                    "time": 39.237145500000196,
                    "velocity": 0.33858267716535434,
                    "duration": 0.10576050000000237
                },
                {
                    "name": "F#5",
                    "midi": 78,
                    "time": 39.3429060000002,
                    "velocity": 0.3937007874015748,
                    "duration": 0.10576050000000237
                },
                {
                    "name": "E5",
                    "midi": 76,
                    "time": 39.4486665000002,
                    "velocity": 0.3700787401574803,
                    "duration": 0.10576050000000237
                },
                {
                    "name": "D#5",
                    "midi": 75,
                    "time": 39.5544270000002,
                    "velocity": 0.4015748031496063,
                    "duration": 0.10576050000000237
                },
                {
                    "name": "E5",
                    "midi": 76,
                    "time": 39.660187500000205,
                    "velocity": 0.4015748031496063,
                    "duration": 0.10576050000000237
                },
                {
                    "name": "D5",
                    "midi": 74,
                    "time": 39.76594800000021,
                    "velocity": 0.4645669291338583,
                    "duration": 0.10576050000000237
                },
                {
                    "name": "E5",
                    "midi": 76,
                    "time": 39.87170850000021,
                    "velocity": 0.3937007874015748,
                    "duration": 0.10576050000000237
                },
                {
                    "name": "D5",
                    "midi": 74,
                    "time": 39.97746900000021,
                    "velocity": 0.4094488188976378,
                    "duration": 0.10576050000000237
                },
                {
                    "name": "E5",
                    "midi": 76,
                    "time": 40.083229500000215,
                    "velocity": 0.3937007874015748,
                    "duration": 0.10576050000000237
                },
                {
                    "name": "D5",
                    "midi": 74,
                    "time": 40.18899000000022,
                    "velocity": 0.4881889763779528,
                    "duration": 0.10576050000000237
                },
                {
                    "name": "E5",
                    "midi": 76,
                    "time": 40.29475050000022,
                    "velocity": 0.3858267716535433,
                    "duration": 0.10576050000000237
                },
                {
                    "name": "D5",
                    "midi": 74,
                    "time": 40.40051100000022,
                    "velocity": 0.4094488188976378,
                    "duration": 0.10576050000000237
                },
                {
                    "name": "E5",
                    "midi": 76,
                    "time": 40.506271500000224,
                    "velocity": 0.3858267716535433,
                    "duration": 0.10576050000000237
                },
                {
                    "name": "C#5",
                    "midi": 73,
                    "time": 40.61203200000023,
                    "velocity": 0.3937007874015748,
                    "duration": 0.10576050000000237
                },
                {
                    "name": "E5",
                    "midi": 76,
                    "time": 40.71779250000023,
                    "velocity": 0.3464566929133858,
                    "duration": 0.10576050000000237
                },
                {
                    "name": "D#5",
                    "midi": 75,
                    "time": 40.82355300000023,
                    "velocity": 0.3700787401574803,
                    "duration": 0.10576050000000237
                },
                {
                    "name": "E5",
                    "midi": 76,
                    "time": 40.929313500000234,
                    "velocity": 0.33858267716535434,
                    "duration": 0.10576050000000237
                },
                {
                    "name": "F#5",
                    "midi": 78,
                    "time": 41.035074000000236,
                    "velocity": 0.3937007874015748,
                    "duration": 0.10576050000000237
                },
                {
                    "name": "E5",
                    "midi": 76,
                    "time": 41.14083450000024,
                    "velocity": 0.3700787401574803,
                    "duration": 0.10576050000000237
                },
                {
                    "name": "D#5",
                    "midi": 75,
                    "time": 41.24659500000024,
                    "velocity": 0.4015748031496063,
                    "duration": 0.10576050000000237
                },
                {
                    "name": "E5",
                    "midi": 76,
                    "time": 41.35235550000024,
                    "velocity": 0.4015748031496063,
                    "duration": 0.10576050000000237
                },
                {
                    "name": "D5",
                    "midi": 74,
                    "time": 41.458116000000246,
                    "velocity": 0.4645669291338583,
                    "duration": 0.10576050000000237
                },
                {
                    "name": "E5",
                    "midi": 76,
                    "time": 41.56387650000025,
                    "velocity": 0.3937007874015748,
                    "duration": 0.10576050000000237
                },
                {
                    "name": "D5",
                    "midi": 74,
                    "time": 41.66963700000025,
                    "velocity": 0.4094488188976378,
                    "duration": 0.10576050000000237
                },
                {
                    "name": "E5",
                    "midi": 76,
                    "time": 41.77539750000025,
                    "velocity": 0.3937007874015748,
                    "duration": 0.10576050000000237
                },
                {
                    "name": "D5",
                    "midi": 74,
                    "time": 41.881158000000255,
                    "velocity": 0.4881889763779528,
                    "duration": 0.10576050000000237
                },
                {
                    "name": "E5",
                    "midi": 76,
                    "time": 41.98691850000026,
                    "velocity": 0.3858267716535433,
                    "duration": 0.10576050000000237
                },
                {
                    "name": "D5",
                    "midi": 74,
                    "time": 42.09267900000026,
                    "velocity": 0.4094488188976378,
                    "duration": 0.10576050000000237
                },
                {
                    "name": "E5",
                    "midi": 76,
                    "time": 42.19843950000026,
                    "velocity": 0.3858267716535433,
                    "duration": 0.10576050000000237
                },
                {
                    "name": "A4",
                    "midi": 69,
                    "time": 42.304200000000264,
                    "velocity": 0.3228346456692913,
                    "duration": 0.42304200000000236
                },
                {
                    "name": "A5",
                    "midi": 81,
                    "time": 42.938763000000264,
                    "velocity": 0.44881889763779526,
                    "duration": 0.10576050000000237
                },
                {
                    "name": "B5",
                    "midi": 83,
                    "time": 43.15028400000027,
                    "velocity": 0.49606299212598426,
                    "duration": 0.10576050000000237
                },
                {
                    "name": "A5",
                    "midi": 81,
                    "time": 43.361805000000274,
                    "velocity": 0.4566929133858268,
                    "duration": 0.10576050000000237
                },
                {
                    "name": "G#5",
                    "midi": 80,
                    "time": 43.57332600000028,
                    "velocity": 0.49606299212598426,
                    "duration": 0.10576050000000237
                },
                {
                    "name": "E5",
                    "midi": 76,
                    "time": 43.78484700000028,
                    "velocity": 0.4566929133858268,
                    "duration": 0.10576050000000237
                },
                {
                    "name": "A5",
                    "midi": 81,
                    "time": 43.99636800000029,
                    "velocity": 0.47244094488188976,
                    "duration": 0.42304200000000236
                },
                {
                    "name": "A2",
                    "midi": 45,
                    "time": 44.63093100000029,
                    "velocity": 0.44881889763779526,
                    "duration": 0.10576050000000237
                },
                {
                    "name": "B2",
                    "midi": 47,
                    "time": 44.84245200000029,
                    "velocity": 0.49606299212598426,
                    "duration": 0.10576050000000237
                },
                {
                    "name": "A2",
                    "midi": 45,
                    "time": 45.0539730000003,
                    "velocity": 0.4566929133858268,
                    "duration": 0.10576050000000237
                },
                {
                    "name": "G#2",
                    "midi": 44,
                    "time": 45.2654940000003,
                    "velocity": 0.47244094488188976,
                    "duration": 0.10576050000000237
                },
                {
                    "name": "E2",
                    "midi": 40,
                    "time": 45.47701500000031,
                    "velocity": 0.4566929133858268,
                    "duration": 0.10576050000000237
                },
                {
                    "name": "A2",
                    "midi": 45,
                    "time": 45.68853600000031,
                    "velocity": 0.47244094488188976,
                    "duration": 0.42304200000000236
                },
                {
                    "name": "E5",
                    "midi": 76,
                    "time": 46.111578000000314,
                    "velocity": 0.3937007874015748,
                    "duration": 0.42304200000000236
                },
                {
                    "name": "D5",
                    "midi": 74,
                    "time": 46.53462000000032,
                    "velocity": 0.3700787401574803,
                    "duration": 0.42304200000000236
                },
                {
                    "name": "C#5",
                    "midi": 73,
                    "time": 46.95766200000032,
                    "velocity": 0.36220472440944884,
                    "duration": 0.42304200000000236
                },
                {
                    "name": "F#5",
                    "midi": 78,
                    "time": 47.38070400000032,
                    "velocity": 0.3937007874015748,
                    "duration": 0.3172815
                },
                {
                    "name": "G#5",
                    "midi": 80,
                    "time": 47.69798550000032,
                    "velocity": 0.3543307086614173,
                    "duration": 0.03525350000000316
                },
                {
                    "name": "F#5",
                    "midi": 78,
                    "time": 47.733239000000324,
                    "velocity": 0.3543307086614173,
                    "duration": 0.03525350000000316
                },
                {
                    "name": "E5",
                    "midi": 76,
                    "time": 47.769373837500325,
                    "velocity": 0.3543307086614173,
                    "duration": 0.03525349999999605
                },
                {
                    "name": "F#5",
                    "midi": 78,
                    "time": 47.803746000000324,
                    "velocity": 0.3937007874015748,
                    "duration": 0.10576049999999526
                },
                {
                    "name": "G#5",
                    "midi": 80,
                    "time": 48.01526700000032,
                    "velocity": 0.3700787401574803,
                    "duration": 0.10576050000000237
                },
                {
                    "name": "B5",
                    "midi": 83,
                    "time": 48.226788000000326,
                    "velocity": 0.3937007874015748,
                    "duration": 0.21152099999999763
                },
                {
                    "name": "A5",
                    "midi": 81,
                    "time": 48.438309000000324,
                    "velocity": 0.3543307086614173,
                    "duration": 0.21152099999999763
                },
                {
                    "name": "G#5",
                    "midi": 80,
                    "time": 48.64983000000032,
                    "velocity": 0.3700787401574803,
                    "duration": 0.21152099999999763
                },
                {
                    "name": "F#5",
                    "midi": 78,
                    "time": 48.86135100000032,
                    "velocity": 0.3543307086614173,
                    "duration": 0.21152099999999763
                },
                {
                    "name": "E5",
                    "midi": 76,
                    "time": 49.07287200000032,
                    "velocity": 0.3937007874015748,
                    "duration": 0.21152099999999763
                },
                {
                    "name": "E5",
                    "midi": 76,
                    "time": 49.49591400000031,
                    "velocity": 0.47244094488188976,
                    "duration": 0.42304200000000236
                },
                {
                    "name": "D5",
                    "midi": 74,
                    "time": 49.918956000000314,
                    "velocity": 0.47244094488188976,
                    "duration": 0.42304200000000236
                },
                {
                    "name": "C#5",
                    "midi": 73,
                    "time": 50.341998000000316,
                    "velocity": 0.4645669291338583,
                    "duration": 0.42304200000000236
                },
                {
                    "name": "B4",
                    "midi": 71,
                    "time": 50.76504000000032,
                    "velocity": 0.5354330708661418,
                    "duration": 0.3172815
                },
                {
                    "name": "F#5",
                    "midi": 78,
                    "time": 51.08232150000032,
                    "velocity": 0.41732283464566927,
                    "duration": 0.10576050000000237
                },
                {
                    "name": "E5",
                    "midi": 76,
                    "time": 51.18808200000032,
                    "velocity": 0.47244094488188976,
                    "duration": 0.10576050000000237
                },
                {
                    "name": "D5",
                    "midi": 74,
                    "time": 51.29384250000032,
                    "velocity": 0.4566929133858268,
                    "duration": 0.10576050000000237
                },
                {
                    "name": "C#5",
                    "midi": 73,
                    "time": 51.399603000000326,
                    "velocity": 0.4566929133858268,
                    "duration": 0.10576050000000237
                },
                {
                    "name": "B4",
                    "midi": 71,
                    "time": 51.50536350000033,
                    "velocity": 0.4566929133858268,
                    "duration": 0.10576050000000237
                },
                {
                    "name": "A4",
                    "midi": 69,
                    "time": 51.61112400000033,
                    "velocity": 0.49606299212598426,
                    "duration": 0.42304200000000236
                },
                {
                    "name": "B4",
                    "midi": 71,
                    "time": 52.03416600000033,
                    "velocity": 0.4330708661417323,
                    "duration": 0.05288025000000118
                },
                {
                    "name": "C#5",
                    "midi": 73,
                    "time": 52.087046250000334,
                    "velocity": 0.3858267716535433,
                    "duration": 0.05288025000000118
                },
                {
                    "name": "B4",
                    "midi": 71,
                    "time": 52.139926500000335,
                    "velocity": 0.4409448818897638,
                    "duration": 0.05288025000000118
                },
                {
                    "name": "C#5",
                    "midi": 73,
                    "time": 52.19280675000034,
                    "velocity": 0.3937007874015748,
                    "duration": 0.05288025000000118
                },
                {
                    "name": "B4",
                    "midi": 71,
                    "time": 52.24568700000034,
                    "velocity": 0.4409448818897638,
                    "duration": 0.07050699999999921
                },
                {
                    "name": "A4",
                    "midi": 69,
                    "time": 52.31619400000034,
                    "velocity": 0.3779527559055118,
                    "duration": 0.07050699999999921
                },
                {
                    "name": "B4",
                    "midi": 71,
                    "time": 52.386701000000336,
                    "velocity": 0.3779527559055118,
                    "duration": 0.07050699999999921
                },
                {
                    "name": "A4",
                    "midi": 69,
                    "time": 52.457208000000335,
                    "velocity": 0.5196850393700787,
                    "duration": 0.21152099999999763
                },
                {
                    "name": "E5",
                    "midi": 76,
                    "time": 52.88025000000033,
                    "velocity": 0.3937007874015748,
                    "duration": 0.42304200000000236
                },
                {
                    "name": "D5",
                    "midi": 74,
                    "time": 53.30329200000033,
                    "velocity": 0.3700787401574803,
                    "duration": 0.42304200000000236
                },
                {
                    "name": "C#5",
                    "midi": 73,
                    "time": 53.726334000000335,
                    "velocity": 0.36220472440944884,
                    "duration": 0.42304200000000236
                },
                {
                    "name": "F#5",
                    "midi": 78,
                    "time": 54.14937600000034,
                    "velocity": 0.3937007874015748,
                    "duration": 0.3172815
                },
                {
                    "name": "G#5",
                    "midi": 80,
                    "time": 54.46665750000034,
                    "velocity": 0.3543307086614173,
                    "duration": 0.03525350000000316
                },
                {
                    "name": "F#5",
                    "midi": 78,
                    "time": 54.50191100000034,
                    "velocity": 0.3543307086614173,
                    "duration": 0.03525350000000316
                },
                {
                    "name": "E5",
                    "midi": 76,
                    "time": 54.53804583750034,
                    "velocity": 0.3543307086614173,
                    "duration": 0.03525349999999605
                },
                {
                    "name": "F#5",
                    "midi": 78,
                    "time": 54.57241800000034,
                    "velocity": 0.3937007874015748,
                    "duration": 0.10576049999999526
                },
                {
                    "name": "G#5",
                    "midi": 80,
                    "time": 54.78393900000034,
                    "velocity": 0.3700787401574803,
                    "duration": 0.10576050000000237
                },
                {
                    "name": "B5",
                    "midi": 83,
                    "time": 54.99546000000034,
                    "velocity": 0.3937007874015748,
                    "duration": 0.21152099999999763
                },
                {
                    "name": "A5",
                    "midi": 81,
                    "time": 55.20698100000034,
                    "velocity": 0.3543307086614173,
                    "duration": 0.21152099999999763
                },
                {
                    "name": "G#5",
                    "midi": 80,
                    "time": 55.41850200000034,
                    "velocity": 0.3700787401574803,
                    "duration": 0.21152099999999763
                },
                {
                    "name": "F#5",
                    "midi": 78,
                    "time": 55.630023000000335,
                    "velocity": 0.3543307086614173,
                    "duration": 0.21152099999999763
                },
                {
                    "name": "E5",
                    "midi": 76,
                    "time": 55.84154400000033,
                    "velocity": 0.3937007874015748,
                    "duration": 0.21152099999999763
                },
                {
                    "name": "E5",
                    "midi": 76,
                    "time": 56.26458600000033,
                    "velocity": 0.47244094488188976,
                    "duration": 0.42304200000000236
                },
                {
                    "name": "D5",
                    "midi": 74,
                    "time": 56.68762800000033,
                    "velocity": 0.47244094488188976,
                    "duration": 0.42304200000000236
                },
                {
                    "name": "C#5",
                    "midi": 73,
                    "time": 57.11067000000033,
                    "velocity": 0.4645669291338583,
                    "duration": 0.42304200000000236
                },
                {
                    "name": "B4",
                    "midi": 71,
                    "time": 57.533712000000335,
                    "velocity": 0.5354330708661418,
                    "duration": 0.3172815
                },
                {
                    "name": "F#5",
                    "midi": 78,
                    "time": 57.850993500000335,
                    "velocity": 0.41732283464566927,
                    "duration": 0.10576050000000237
                },
                {
                    "name": "E5",
                    "midi": 76,
                    "time": 57.95675400000034,
                    "velocity": 0.47244094488188976,
                    "duration": 0.10576050000000237
                },
                {
                    "name": "D5",
                    "midi": 74,
                    "time": 58.06251450000034,
                    "velocity": 0.4566929133858268,
                    "duration": 0.10576050000000237
                },
                {
                    "name": "C#5",
                    "midi": 73,
                    "time": 58.16827500000034,
                    "velocity": 0.4566929133858268,
                    "duration": 0.10576050000000237
                },
                {
                    "name": "B4",
                    "midi": 71,
                    "time": 58.274035500000345,
                    "velocity": 0.4566929133858268,
                    "duration": 0.10576050000000237
                },
                {
                    "name": "A4",
                    "midi": 69,
                    "time": 58.37979600000035,
                    "velocity": 0.49606299212598426,
                    "duration": 0.42304200000000236
                },
                {
                    "name": "B4",
                    "midi": 71,
                    "time": 58.80283800000035,
                    "velocity": 0.4330708661417323,
                    "duration": 0.05288025000000118
                },
                {
                    "name": "C#5",
                    "midi": 73,
                    "time": 58.85571825000035,
                    "velocity": 0.3858267716535433,
                    "duration": 0.05288025000000118
                },
                {
                    "name": "B4",
                    "midi": 71,
                    "time": 58.90859850000035,
                    "velocity": 0.4409448818897638,
                    "duration": 0.05288025000000118
                },
                {
                    "name": "C#5",
                    "midi": 73,
                    "time": 58.96147875000035,
                    "velocity": 0.3937007874015748,
                    "duration": 0.05288025000000118
                },
                {
                    "name": "B4",
                    "midi": 71,
                    "time": 59.014359000000354,
                    "velocity": 0.4409448818897638,
                    "duration": 0.07050699999999921
                },
                {
                    "name": "A4",
                    "midi": 69,
                    "time": 59.08486600000035,
                    "velocity": 0.3779527559055118,
                    "duration": 0.07050699999999921
                },
                {
                    "name": "B4",
                    "midi": 71,
                    "time": 59.15537300000035,
                    "velocity": 0.3779527559055118,
                    "duration": 0.07050699999999921
                },
                {
                    "name": "A4",
                    "midi": 69,
                    "time": 59.22588000000035,
                    "velocity": 0.5196850393700787,
                    "duration": 0.10576050000000237
                },
                {
                    "name": "E4",
                    "midi": 64,
                    "time": 59.331640500000354,
                    "velocity": 0.4645669291338583,
                    "duration": 0.10576050000000237
                },
                {
                    "name": "A4",
                    "midi": 69,
                    "time": 59.43740100000036,
                    "velocity": 0.5196850393700787,
                    "duration": 0.10576050000000237
                },
                {
                    "name": "C#5",
                    "midi": 73,
                    "time": 59.54316150000036,
                    "velocity": 0.4566929133858268,
                    "duration": 0.10576050000000237
                },
                {
                    "name": "E5",
                    "midi": 76,
                    "time": 59.64892200000036,
                    "velocity": 0.5196850393700787,
                    "duration": 0.10576050000000237
                },
                {
                    "name": "C#5",
                    "midi": 73,
                    "time": 59.754682500000364,
                    "velocity": 0.47244094488188976,
                    "duration": 0.10576050000000237
                },
                {
                    "name": "D5",
                    "midi": 74,
                    "time": 59.860443000000366,
                    "velocity": 0.5196850393700787,
                    "duration": 0.10576050000000237
                },
                {
                    "name": "B4",
                    "midi": 71,
                    "time": 59.96620350000037,
                    "velocity": 0.4645669291338583,
                    "duration": 0.10576050000000237
                },
                {
                    "name": "A4",
                    "midi": 69,
                    "time": 60.07196400000037,
                    "velocity": 0.5196850393700787,
                    "duration": 0.10576050000000237
                },
                {
                    "name": "E4",
                    "midi": 64,
                    "time": 60.17772450000037,
                    "velocity": 0.4645669291338583,
                    "duration": 0.10576050000000237
                },
                {
                    "name": "A4",
                    "midi": 69,
                    "time": 60.283485000000375,
                    "velocity": 0.5196850393700787,
                    "duration": 0.10576050000000237
                },
                {
                    "name": "C#5",
                    "midi": 73,
                    "time": 60.38924550000038,
                    "velocity": 0.4566929133858268,
                    "duration": 0.10576050000000237
                },
                {
                    "name": "E5",
                    "midi": 76,
                    "time": 60.49500600000038,
                    "velocity": 0.5196850393700787,
                    "duration": 0.10576050000000237
                },
                {
                    "name": "C#5",
                    "midi": 73,
                    "time": 60.60076650000038,
                    "velocity": 0.47244094488188976,
                    "duration": 0.10576050000000237
                },
                {
                    "name": "D5",
                    "midi": 74,
                    "time": 60.706527000000385,
                    "velocity": 0.5196850393700787,
                    "duration": 0.10576050000000237
                },
                {
                    "name": "B4",
                    "midi": 71,
                    "time": 60.81228750000039,
                    "velocity": 0.4645669291338583,
                    "duration": 0.10576050000000237
                },
                {
                    "name": "A4",
                    "midi": 69,
                    "time": 60.91804800000039,
                    "velocity": 0.5905511811023622,
                    "duration": 0.21152099999999763
                },
                {
                    "name": "G#5",
                    "midi": 80,
                    "time": 61.341090000000385,
                    "velocity": 0.5905511811023622,
                    "duration": 0.21152099999999763
                },
                {
                    "name": "B4",
                    "midi": 71,
                    "time": 61.341090000000385,
                    "velocity": 0.5039370078740157,
                    "duration": 0.21152099999999763
                },
                {
                    "name": "D5",
                    "midi": 74,
                    "time": 61.341090000000385,
                    "velocity": 0.5039370078740157,
                    "duration": 0.21152099999999763
                },
                {
                    "name": "A5",
                    "midi": 81,
                    "time": 61.76413200000038,
                    "velocity": 0.5905511811023622,
                    "duration": 0.21152099999999763
                },
                {
                    "name": "C#5",
                    "midi": 73,
                    "time": 61.76413200000038,
                    "velocity": 0.5039370078740157,
                    "duration": 0.21152099999999763
                },
                {
                    "name": "A4",
                    "midi": 69,
                    "time": 61.76413200000038,
                    "velocity": 0.5039370078740157,
                    "duration": 0.21152099999999763
                },
                {
                    "name": "F#4",
                    "midi": 66,
                    "time": 62.61021600000038,
                    "velocity": 0.30708661417322836,
                    "duration": 0.21152099999999763
                },
                {
                    "name": "D5",
                    "midi": 74,
                    "time": 62.61021600000038,
                    "velocity": 0.3700787401574803,
                    "duration": 0.21152099999999763
                },
                {
                    "name": "E4",
                    "midi": 64,
                    "time": 62.821737000000375,
                    "velocity": 0.28346456692913385,
                    "duration": 0.10576050000000237
                },
                {
                    "name": "C#5",
                    "midi": 73,
                    "time": 62.821737000000375,
                    "velocity": 0.33858267716535434,
                    "duration": 0.10576050000000237
                },
                {
                    "name": "C#5",
                    "midi": 73,
                    "time": 63.03325800000038,
                    "velocity": 0.3700787401574803,
                    "duration": 0.21152099999999763
                },
                {
                    "name": "E4",
                    "midi": 64,
                    "time": 63.03325800000038,
                    "velocity": 0.30708661417322836,
                    "duration": 0.21152099999999763
                },
                {
                    "name": "D4",
                    "midi": 62,
                    "time": 63.24477900000038,
                    "velocity": 0.2755905511811024,
                    "duration": 0.10576050000000237
                },
                {
                    "name": "B4",
                    "midi": 71,
                    "time": 63.24477900000038,
                    "velocity": 0.33070866141732286,
                    "duration": 0.10576050000000237
                },
                {
                    "name": "B4",
                    "midi": 71,
                    "time": 63.45630000000038,
                    "velocity": 0.3700787401574803,
                    "duration": 0.21152099999999763
                },
                {
                    "name": "D4",
                    "midi": 62,
                    "time": 63.45630000000038,
                    "velocity": 0.30708661417322836,
                    "duration": 0.21152099999999763
                },
                {
                    "name": "C#4",
                    "midi": 61,
                    "time": 63.66782100000038,
                    "velocity": 0.2677165354330709,
                    "duration": 0.10576050000000237
                },
                {
                    "name": "A4",
                    "midi": 69,
                    "time": 63.66782100000038,
                    "velocity": 0.3228346456692913,
                    "duration": 0.10576050000000237
                },
                {
                    "name": "C#4",
                    "midi": 61,
                    "time": 63.879342000000385,
                    "velocity": 0.30708661417322836,
                    "duration": 0.21152099999999763
                },
                {
                    "name": "A4",
                    "midi": 69,
                    "time": 63.879342000000385,
                    "velocity": 0.3700787401574803,
                    "duration": 0.21152099999999763
                },
                {
                    "name": "G#4",
                    "midi": 68,
                    "time": 64.09086300000038,
                    "velocity": 0.3228346456692913,
                    "duration": 0.10576050000000237
                },
                {
                    "name": "B3",
                    "midi": 59,
                    "time": 64.09086300000038,
                    "velocity": 0.2677165354330709,
                    "duration": 0.10576050000000237
                },
                {
                    "name": "D4",
                    "midi": 62,
                    "time": 64.30238400000039,
                    "velocity": 0.3543307086614173,
                    "duration": 0.8460840000000047
                },
                {
                    "name": "B3",
                    "midi": 59,
                    "time": 64.30238400000039,
                    "velocity": 0.29133858267716534,
                    "duration": 0.8460840000000047
                },
                {
                    "name": "G#4",
                    "midi": 68,
                    "time": 64.30238400000039,
                    "velocity": 0.4251968503937008,
                    "duration": 0.8460840000000047
                },
                {
                    "name": "C#4",
                    "midi": 61,
                    "time": 65.14846800000039,
                    "velocity": 0.2755905511811024,
                    "duration": 0.42304199999999526
                },
                {
                    "name": "A4",
                    "midi": 69,
                    "time": 65.14846800000039,
                    "velocity": 0.33070866141732286,
                    "duration": 0.42304199999999526
                },
                {
                    "name": "F#4",
                    "midi": 66,
                    "time": 65.99455200000038,
                    "velocity": 0.47244094488188976,
                    "duration": 0.42304199999999526
                },
                {
                    "name": "A4",
                    "midi": 69,
                    "time": 65.99455200000038,
                    "velocity": 0.47244094488188976,
                    "duration": 0.42304199999999526
                },
                {
                    "name": "D5",
                    "midi": 74,
                    "time": 65.99455200000038,
                    "velocity": 0.5748031496062992,
                    "duration": 0.42304199999999526
                },
                {
                    "name": "G5",
                    "midi": 79,
                    "time": 66.84063600000037,
                    "velocity": 0.5196850393700787,
                    "duration": 0.11633654999999976
                },
                {
                    "name": "F#5",
                    "midi": 78,
                    "time": 66.94639650000038,
                    "velocity": 0.4330708661417323,
                    "duration": 0.11633654999999976
                },
                {
                    "name": "E5",
                    "midi": 76,
                    "time": 67.05215700000038,
                    "velocity": 0.4251968503937008,
                    "duration": 0.11633654999999976
                },
                {
                    "name": "F#5",
                    "midi": 78,
                    "time": 67.15791750000038,
                    "velocity": 0.4251968503937008,
                    "duration": 0.11633654999999976
                },
                {
                    "name": "A5",
                    "midi": 81,
                    "time": 67.26367800000038,
                    "velocity": 0.5118110236220472,
                    "duration": 0.11633654999999976
                },
                {
                    "name": "G5",
                    "midi": 79,
                    "time": 67.36943850000038,
                    "velocity": 0.4330708661417323,
                    "duration": 0.11633654999999976
                },
                {
                    "name": "F#5",
                    "midi": 78,
                    "time": 67.47519900000039,
                    "velocity": 0.4330708661417323,
                    "duration": 0.11633654999999976
                },
                {
                    "name": "G5",
                    "midi": 79,
                    "time": 67.58095950000039,
                    "velocity": 0.4330708661417323,
                    "duration": 0.11633654999999976
                },
                {
                    "name": "A5",
                    "midi": 81,
                    "time": 67.68672000000039,
                    "velocity": 0.4881889763779528,
                    "duration": 0.42304199999999526
                },
                {
                    "name": "A5",
                    "midi": 81,
                    "time": 68.53280400000038,
                    "velocity": 0.3937007874015748,
                    "duration": 0.05288025000000118
                },
                {
                    "name": "B5",
                    "midi": 83,
                    "time": 68.74432500000039,
                    "velocity": 0.3543307086614173,
                    "duration": 0.05288025000000118
                },
                {
                    "name": "C#6",
                    "midi": 85,
                    "time": 68.95584600000039,
                    "velocity": 0.3543307086614173,
                    "duration": 0.05288025000000118
                },
                {
                    "name": "D6",
                    "midi": 86,
                    "time": 69.1673670000004,
                    "velocity": 0.3543307086614173,
                    "duration": 0.05288025000000118
                },
                {
                    "name": "A5",
                    "midi": 81,
                    "time": 69.3788880000004,
                    "velocity": 0.4251968503937008,
                    "duration": 0.42304199999999526
                },
                {
                    "name": "F#5",
                    "midi": 78,
                    "time": 69.8019300000004,
                    "velocity": 0.3543307086614173,
                    "duration": 0.42304199999999526
                },
                {
                    "name": "A5",
                    "midi": 81,
                    "time": 70.22497200000039,
                    "velocity": 0.3937007874015748,
                    "duration": 0.10576050000000237
                },
                {
                    "name": "G5",
                    "midi": 79,
                    "time": 70.3307325000004,
                    "velocity": 0.3464566929133858,
                    "duration": 0.10576050000000237
                },
                {
                    "name": "F#5",
                    "midi": 78,
                    "time": 70.4364930000004,
                    "velocity": 0.3464566929133858,
                    "duration": 0.10576050000000237
                },
                {
                    "name": "G5",
                    "midi": 79,
                    "time": 70.5422535000004,
                    "velocity": 0.3464566929133858,
                    "duration": 0.10576050000000237
                },
                {
                    "name": "A5",
                    "midi": 81,
                    "time": 70.6480140000004,
                    "velocity": 0.3858267716535433,
                    "duration": 0.05288025000000118
                },
                {
                    "name": "G5",
                    "midi": 79,
                    "time": 70.8595350000004,
                    "velocity": 0.36220472440944884,
                    "duration": 0.05288025000000118
                },
                {
                    "name": "F5",
                    "midi": 77,
                    "time": 71.07105600000041,
                    "velocity": 0.4251968503937008,
                    "duration": 0.21152100000000473
                },
                {
                    "name": "F#5",
                    "midi": 78,
                    "time": 71.28257700000042,
                    "velocity": 0.3543307086614173,
                    "duration": 0.21152100000000473
                },
                {
                    "name": "G5",
                    "midi": 79,
                    "time": 71.91714000000042,
                    "velocity": 0.5196850393700787,
                    "duration": 0.11633654999999976
                },
                {
                    "name": "F#5",
                    "midi": 78,
                    "time": 72.02290050000042,
                    "velocity": 0.4330708661417323,
                    "duration": 0.11633654999999976
                },
                {
                    "name": "E5",
                    "midi": 76,
                    "time": 72.12866100000042,
                    "velocity": 0.4251968503937008,
                    "duration": 0.11633654999999976
                },
                {
                    "name": "F#5",
                    "midi": 78,
                    "time": 72.23442150000042,
                    "velocity": 0.4251968503937008,
                    "duration": 0.11633654999999976
                },
                {
                    "name": "A5",
                    "midi": 81,
                    "time": 72.34018200000042,
                    "velocity": 0.5118110236220472,
                    "duration": 0.11633654999999976
                },
                {
                    "name": "G5",
                    "midi": 79,
                    "time": 72.44594250000043,
                    "velocity": 0.4330708661417323,
                    "duration": 0.11633654999999976
                },
                {
                    "name": "F#5",
                    "midi": 78,
                    "time": 72.55170300000043,
                    "velocity": 0.4330708661417323,
                    "duration": 0.11633654999999976
                },
                {
                    "name": "G5",
                    "midi": 79,
                    "time": 72.65746350000043,
                    "velocity": 0.4330708661417323,
                    "duration": 0.11633654999999976
                },
                {
                    "name": "A5",
                    "midi": 81,
                    "time": 72.76322400000043,
                    "velocity": 0.4881889763779528,
                    "duration": 0.42304199999999526
                },
                {
                    "name": "A5",
                    "midi": 81,
                    "time": 73.60930800000042,
                    "velocity": 0.3937007874015748,
                    "duration": 0.05288025000000118
                },
                {
                    "name": "B5",
                    "midi": 83,
                    "time": 73.82082900000043,
                    "velocity": 0.3543307086614173,
                    "duration": 0.05288025000000118
                },
                {
                    "name": "C#6",
                    "midi": 85,
                    "time": 74.03235000000043,
                    "velocity": 0.3543307086614173,
                    "duration": 0.05288025000000118
                },
                {
                    "name": "D6",
                    "midi": 86,
                    "time": 74.24387100000044,
                    "velocity": 0.3543307086614173,
                    "duration": 0.05288025000000118
                },
                {
                    "name": "A5",
                    "midi": 81,
                    "time": 74.45539200000044,
                    "velocity": 0.4251968503937008,
                    "duration": 0.42304199999999526
                },
                {
                    "name": "F#5",
                    "midi": 78,
                    "time": 74.87843400000044,
                    "velocity": 0.3543307086614173,
                    "duration": 0.42304199999999526
                },
                {
                    "name": "A5",
                    "midi": 81,
                    "time": 75.30147600000043,
                    "velocity": 0.3937007874015748,
                    "duration": 0.10576050000000237
                },
                {
                    "name": "G5",
                    "midi": 79,
                    "time": 75.40723650000044,
                    "velocity": 0.3464566929133858,
                    "duration": 0.10576050000000237
                },
                {
                    "name": "F#5",
                    "midi": 78,
                    "time": 75.51299700000044,
                    "velocity": 0.3464566929133858,
                    "duration": 0.10576050000000237
                },
                {
                    "name": "G5",
                    "midi": 79,
                    "time": 75.61875750000044,
                    "velocity": 0.3464566929133858,
                    "duration": 0.10576050000000237
                },
                {
                    "name": "A5",
                    "midi": 81,
                    "time": 75.72451800000044,
                    "velocity": 0.3937007874015748,
                    "duration": 0.10576050000000237
                },
                {
                    "name": "G5",
                    "midi": 79,
                    "time": 75.83027850000045,
                    "velocity": 0.3464566929133858,
                    "duration": 0.10576050000000237
                },
                {
                    "name": "F#5",
                    "midi": 78,
                    "time": 75.93603900000045,
                    "velocity": 0.3464566929133858,
                    "duration": 0.10576050000000237
                },
                {
                    "name": "E5",
                    "midi": 76,
                    "time": 76.04179950000045,
                    "velocity": 0.3464566929133858,
                    "duration": 0.10576050000000237
                },
                {
                    "name": "D5",
                    "midi": 74,
                    "time": 76.14756000000045,
                    "velocity": 0.3937007874015748,
                    "duration": 0.10576050000000237
                },
                {
                    "name": "A4",
                    "midi": 69,
                    "time": 76.57060200000046,
                    "velocity": 0.33070866141732286,
                    "duration": 0.10576050000000237
                },
                {
                    "name": "F#5",
                    "midi": 78,
                    "time": 76.99364400000047,
                    "velocity": 0.3700787401574803,
                    "duration": 0.07755769999999984
                },
                {
                    "name": "G5",
                    "midi": 79,
                    "time": 77.06415100000048,
                    "velocity": 0.33858267716535434,
                    "duration": 0.07755769999998563
                },
                {
                    "name": "F#5",
                    "midi": 78,
                    "time": 77.13465800000047,
                    "velocity": 0.3779527559055118,
                    "duration": 0.07755769999998563
                },
                {
                    "name": "G5",
                    "midi": 79,
                    "time": 77.20516500000046,
                    "velocity": 0.33858267716535434,
                    "duration": 0.07755769999998563
                },
                {
                    "name": "F#5",
                    "midi": 78,
                    "time": 77.27479066250045,
                    "velocity": 0.3779527559055118,
                    "duration": 0.07755769999998563
                },
                {
                    "name": "G5",
                    "midi": 79,
                    "time": 77.34529766250044,
                    "velocity": 0.3464566929133858,
                    "duration": 0.07755769999998563
                },
                {
                    "name": "F#5",
                    "midi": 78,
                    "time": 77.41580466250043,
                    "velocity": 0.3779527559055118,
                    "duration": 0.07755769999998563
                },
                {
                    "name": "G5",
                    "midi": 79,
                    "time": 77.48631166250043,
                    "velocity": 0.3464566929133858,
                    "duration": 0.07755769999998563
                },
                {
                    "name": "F#5",
                    "midi": 78,
                    "time": 77.55681866250042,
                    "velocity": 0.3464566929133858,
                    "duration": 0.07755769999999984
                },
                {
                    "name": "E5",
                    "midi": 76,
                    "time": 77.62820700000042,
                    "velocity": 0.3779527559055118,
                    "duration": 0.11633654999999976
                },
                {
                    "name": "D5",
                    "midi": 74,
                    "time": 77.73396750000042,
                    "velocity": 0.3464566929133858,
                    "duration": 0.11633654999999976
                },
                {
                    "name": "C#5",
                    "midi": 73,
                    "time": 77.83972800000042,
                    "velocity": 0.3937007874015748,
                    "duration": 0.10576050000000237
                },
                {
                    "name": "A4",
                    "midi": 69,
                    "time": 78.26277000000042,
                    "velocity": 0.33070866141732286,
                    "duration": 0.10576050000000237
                },
                {
                    "name": "E5",
                    "midi": 76,
                    "time": 78.68581200000042,
                    "velocity": 0.3937007874015748,
                    "duration": 0.10576050000000237
                },
                {
                    "name": "E5",
                    "midi": 76,
                    "time": 79.53189600000043,
                    "velocity": 0.3937007874015748,
                    "duration": 0.10576050000000237
                },
                {
                    "name": "A4",
                    "midi": 69,
                    "time": 79.95493800000042,
                    "velocity": 0.33070866141732286,
                    "duration": 0.10576050000000237
                },
                {
                    "name": "G5",
                    "midi": 79,
                    "time": 80.37798000000043,
                    "velocity": 0.3700787401574803,
                    "duration": 0.07755769999999984
                },
                {
                    "name": "A5",
                    "midi": 81,
                    "time": 80.44848700000044,
                    "velocity": 0.33858267716535434,
                    "duration": 0.07755769999998563
                },
                {
                    "name": "G5",
                    "midi": 79,
                    "time": 80.51899400000043,
                    "velocity": 0.3779527559055118,
                    "duration": 0.07755769999998563
                },
                {
                    "name": "A5",
                    "midi": 81,
                    "time": 80.58950100000042,
                    "velocity": 0.33858267716535434,
                    "duration": 0.07755769999998563
                },
                {
                    "name": "G5",
                    "midi": 79,
                    "time": 80.65912666250041,
                    "velocity": 0.3779527559055118,
                    "duration": 0.07755769999998563
                },
                {
                    "name": "A5",
                    "midi": 81,
                    "time": 80.7296336625004,
                    "velocity": 0.3464566929133858,
                    "duration": 0.07755769999998563
                },
                {
                    "name": "G5",
                    "midi": 79,
                    "time": 80.8001406625004,
                    "velocity": 0.3779527559055118,
                    "duration": 0.07755769999998563
                },
                {
                    "name": "A5",
                    "midi": 81,
                    "time": 80.87064766250039,
                    "velocity": 0.3464566929133858,
                    "duration": 0.07755769999998563
                },
                {
                    "name": "G5",
                    "midi": 79,
                    "time": 80.94115466250038,
                    "velocity": 0.3464566929133858,
                    "duration": 0.07755769999999984
                },
                {
                    "name": "F#5",
                    "midi": 78,
                    "time": 81.01254300000038,
                    "velocity": 0.3779527559055118,
                    "duration": 0.11633654999999976
                },
                {
                    "name": "E5",
                    "midi": 76,
                    "time": 81.11830350000038,
                    "velocity": 0.3464566929133858,
                    "duration": 0.11633654999999976
                },
                {
                    "name": "D5",
                    "midi": 74,
                    "time": 81.22406400000038,
                    "velocity": 0.3937007874015748,
                    "duration": 0.10576050000000237
                },
                {
                    "name": "A4",
                    "midi": 69,
                    "time": 81.64710600000038,
                    "velocity": 0.33070866141732286,
                    "duration": 0.10576050000000237
                },
                {
                    "name": "F#5",
                    "midi": 78,
                    "time": 82.07014800000039,
                    "velocity": 0.3937007874015748,
                    "duration": 0.10576050000000237
                },
                {
                    "name": "F#5",
                    "midi": 78,
                    "time": 82.91623200000039,
                    "velocity": 0.4251968503937008,
                    "duration": 0.10576050000000237
                },
                {
                    "name": "D5",
                    "midi": 74,
                    "time": 83.0219925000004,
                    "velocity": 0.3700787401574803,
                    "duration": 0.11633654999999976
                },
                {
                    "name": "E5",
                    "midi": 76,
                    "time": 83.1277530000004,
                    "velocity": 0.3779527559055118,
                    "duration": 0.11633654999999976
                },
                {
                    "name": "F#5",
                    "midi": 78,
                    "time": 83.2335135000004,
                    "velocity": 0.3858267716535433,
                    "duration": 0.11633654999999976
                },
                {
                    "name": "G5",
                    "midi": 79,
                    "time": 83.3392740000004,
                    "velocity": 0.3937007874015748,
                    "duration": 0.11633654999999976
                },
                {
                    "name": "A5",
                    "midi": 81,
                    "time": 83.4450345000004,
                    "velocity": 0.4015748031496063,
                    "duration": 0.11633654999999976
                },
                {
                    "name": "B5",
                    "midi": 83,
                    "time": 83.5507950000004,
                    "velocity": 0.4094488188976378,
                    "duration": 0.11633654999999976
                },
                {
                    "name": "C#6",
                    "midi": 85,
                    "time": 83.65655550000041,
                    "velocity": 0.41732283464566927,
                    "duration": 0.11633654999999976
                },
                {
                    "name": "D6",
                    "midi": 86,
                    "time": 83.76231600000041,
                    "velocity": 0.4330708661417323,
                    "duration": 0.11633654999999976
                },
                {
                    "name": "C#6",
                    "midi": 85,
                    "time": 83.86807650000041,
                    "velocity": 0.4409448818897638,
                    "duration": 0.11633654999999976
                },
                {
                    "name": "B5",
                    "midi": 83,
                    "time": 83.97383700000042,
                    "velocity": 0.4409448818897638,
                    "duration": 0.11633654999999976
                },
                {
                    "name": "A5",
                    "midi": 81,
                    "time": 84.07959750000042,
                    "velocity": 0.4409448818897638,
                    "duration": 0.11633654999999976
                },
                {
                    "name": "G5",
                    "midi": 79,
                    "time": 84.18535800000042,
                    "velocity": 0.4409448818897638,
                    "duration": 0.11633654999999976
                },
                {
                    "name": "F#5",
                    "midi": 78,
                    "time": 84.29111850000042,
                    "velocity": 0.4330708661417323,
                    "duration": 0.11633654999999976
                },
                {
                    "name": "E5",
                    "midi": 76,
                    "time": 84.39687900000042,
                    "velocity": 0.3937007874015748,
                    "duration": 0.11633654999999976
                },
                {
                    "name": "D5",
                    "midi": 74,
                    "time": 84.50263950000043,
                    "velocity": 0.3858267716535433,
                    "duration": 0.11633654999999976
                },
                {
                    "name": "E5",
                    "midi": 76,
                    "time": 84.60840000000043,
                    "velocity": 0.4015748031496063,
                    "duration": 0.11633654999999976
                },
                {
                    "name": "F#5",
                    "midi": 78,
                    "time": 84.71416050000043,
                    "velocity": 0.3779527559055118,
                    "duration": 0.11633654999999976
                },
                {
                    "name": "E5",
                    "midi": 76,
                    "time": 84.81992100000043,
                    "velocity": 0.3543307086614173,
                    "duration": 0.11633654999999976
                },
                {
                    "name": "D#5",
                    "midi": 75,
                    "time": 84.92568150000044,
                    "velocity": 0.33858267716535434,
                    "duration": 0.11633654999999976
                },
                {
                    "name": "E5",
                    "midi": 76,
                    "time": 85.03144200000044,
                    "velocity": 0.3543307086614173,
                    "duration": 0.11633654999999976
                },
                {
                    "name": "F#5",
                    "midi": 78,
                    "time": 85.13720250000044,
                    "velocity": 0.3700787401574803,
                    "duration": 0.11633654999999976
                },
                {
                    "name": "G5",
                    "midi": 79,
                    "time": 85.24296300000044,
                    "velocity": 0.3858267716535433,
                    "duration": 0.11633654999999976
                },
                {
                    "name": "A5",
                    "midi": 81,
                    "time": 85.34872350000045,
                    "velocity": 0.4015748031496063,
                    "duration": 0.11633654999999976
                },
                {
                    "name": "B5",
                    "midi": 83,
                    "time": 85.45448400000045,
                    "velocity": 0.41732283464566927,
                    "duration": 0.11633654999999976
                },
                {
                    "name": "A5",
                    "midi": 81,
                    "time": 85.56024450000045,
                    "velocity": 0.4251968503937008,
                    "duration": 0.11633654999999976
                },
                {
                    "name": "G5",
                    "midi": 79,
                    "time": 85.66600500000045,
                    "velocity": 0.41732283464566927,
                    "duration": 0.11633654999999976
                },
                {
                    "name": "F#5",
                    "midi": 78,
                    "time": 85.77176550000046,
                    "velocity": 0.4015748031496063,
                    "duration": 0.11633654999999976
                },
                {
                    "name": "E5",
                    "midi": 76,
                    "time": 85.87752600000046,
                    "velocity": 0.3858267716535433,
                    "duration": 0.11633654999999976
                },
                {
                    "name": "D5",
                    "midi": 74,
                    "time": 85.98328650000046,
                    "velocity": 0.3779527559055118,
                    "duration": 0.11633654999999976
                },
                {
                    "name": "C#5",
                    "midi": 73,
                    "time": 86.08904700000046,
                    "velocity": 0.36220472440944884,
                    "duration": 0.11633654999999976
                },
                {
                    "name": "B4",
                    "midi": 71,
                    "time": 86.19480750000046,
                    "velocity": 0.3464566929133858,
                    "duration": 0.11633654999999976
                },
                {
                    "name": "C#5",
                    "midi": 73,
                    "time": 86.30056800000047,
                    "velocity": 0.3937007874015748,
                    "duration": 0.11633654999999976
                },
                {
                    "name": "D5",
                    "midi": 74,
                    "time": 86.40632850000047,
                    "velocity": 0.33070866141732286,
                    "duration": 0.11633654999999976
                },
                {
                    "name": "C#5",
                    "midi": 73,
                    "time": 86.51208900000047,
                    "velocity": 0.33070866141732286,
                    "duration": 0.11633654999999976
                },
                {
                    "name": "A4",
                    "midi": 69,
                    "time": 86.61784950000047,
                    "velocity": 0.31496062992125984,
                    "duration": 0.11633654999999976
                },
                {
                    "name": "D5",
                    "midi": 74,
                    "time": 86.72361000000048,
                    "velocity": 0.3700787401574803,
                    "duration": 0.10576050000000237
                },
                {
                    "name": "G5",
                    "midi": 79,
                    "time": 87.14665200000047,
                    "velocity": 0.4330708661417323,
                    "duration": 0.11633654999999976
                },
                {
                    "name": "A5",
                    "midi": 81,
                    "time": 87.25241250000047,
                    "velocity": 0.36220472440944884,
                    "duration": 0.11633654999999976
                },
                {
                    "name": "G5",
                    "midi": 79,
                    "time": 87.35817300000048,
                    "velocity": 0.36220472440944884,
                    "duration": 0.11633654999999976
                },
                {
                    "name": "E5",
                    "midi": 76,
                    "time": 87.46393350000048,
                    "velocity": 0.36220472440944884,
                    "duration": 0.11633654999999976
                },
                {
                    "name": "G5",
                    "midi": 79,
                    "time": 87.56969400000048,
                    "velocity": 0.4409448818897638,
                    "duration": 0.11633654999999976
                },
                {
                    "name": "F#5",
                    "midi": 78,
                    "time": 87.67545450000048,
                    "velocity": 0.3700787401574803,
                    "duration": 0.11633654999999976
                },
                {
                    "name": "E5",
                    "midi": 76,
                    "time": 87.78121500000049,
                    "velocity": 0.3779527559055118,
                    "duration": 0.11633654999999976
                },
                {
                    "name": "D5",
                    "midi": 74,
                    "time": 87.88697550000049,
                    "velocity": 0.3779527559055118,
                    "duration": 0.11633654999999976
                },
                {
                    "name": "C#5",
                    "midi": 73,
                    "time": 87.99273600000049,
                    "velocity": 0.44881889763779526,
                    "duration": 0.11633654999999976
                },
                {
                    "name": "D5",
                    "midi": 74,
                    "time": 88.0984965000005,
                    "velocity": 0.3700787401574803,
                    "duration": 0.11633654999999976
                },
                {
                    "name": "C#5",
                    "midi": 73,
                    "time": 88.2042570000005,
                    "velocity": 0.3700787401574803,
                    "duration": 0.11633654999999976
                },
                {
                    "name": "A4",
                    "midi": 69,
                    "time": 88.3100175000005,
                    "velocity": 0.3700787401574803,
                    "duration": 0.11633654999999976
                },
                {
                    "name": "D5",
                    "midi": 74,
                    "time": 88.4157780000005,
                    "velocity": 0.44881889763779526,
                    "duration": 0.10576050000000237
                },
                {
                    "name": "G5",
                    "midi": 79,
                    "time": 88.83882000000051,
                    "velocity": 0.5118110236220472,
                    "duration": 0.11633654999999976
                },
                {
                    "name": "A5",
                    "midi": 81,
                    "time": 88.94458050000051,
                    "velocity": 0.4251968503937008,
                    "duration": 0.11633654999999976
                },
                {
                    "name": "G5",
                    "midi": 79,
                    "time": 89.05034100000051,
                    "velocity": 0.4251968503937008,
                    "duration": 0.11633654999999976
                },
                {
                    "name": "E5",
                    "midi": 76,
                    "time": 89.15610150000052,
                    "velocity": 0.4409448818897638,
                    "duration": 0.11633654999999976
                },
                {
                    "name": "G5",
                    "midi": 79,
                    "time": 89.26186200000052,
                    "velocity": 0.5511811023622047,
                    "duration": 0.11633654999999976
                },
                {
                    "name": "F#5",
                    "midi": 78,
                    "time": 89.36762250000052,
                    "velocity": 0.4409448818897638,
                    "duration": 0.11633654999999976
                },
                {
                    "name": "E5",
                    "midi": 76,
                    "time": 89.47338300000052,
                    "velocity": 0.4409448818897638,
                    "duration": 0.11633654999999976
                },
                {
                    "name": "D5",
                    "midi": 74,
                    "time": 89.57914350000053,
                    "velocity": 0.4645669291338583,
                    "duration": 0.11633654999999976
                },
                {
                    "name": "C#5",
                    "midi": 73,
                    "time": 89.68490400000053,
                    "velocity": 0.6220472440944882,
                    "duration": 0.10576050000000237
                },
                {
                    "name": "E5",
                    "midi": 76,
                    "time": 89.79066450000053,
                    "velocity": 0.49606299212598426,
                    "duration": 0.10576050000000237
                },
                {
                    "name": "C#5",
                    "midi": 73,
                    "time": 89.89642500000053,
                    "velocity": 0.49606299212598426,
                    "duration": 0.10576050000000237
                },
                {
                    "name": "A4",
                    "midi": 69,
                    "time": 90.00218550000054,
                    "velocity": 0.49606299212598426,
                    "duration": 0.10576050000000237
                },
                {
                    "name": "F#5",
                    "midi": 78,
                    "time": 90.10794600000054,
                    "velocity": 0.5826771653543307,
                    "duration": 0.10576050000000237
                },
                {
                    "name": "A5",
                    "midi": 81,
                    "time": 90.21370650000054,
                    "velocity": 0.5039370078740157,
                    "duration": 0.10576050000000237
                },
                {
                    "name": "F#5",
                    "midi": 78,
                    "time": 90.31946700000054,
                    "velocity": 0.5039370078740157,
                    "duration": 0.10576050000000237
                },
                {
                    "name": "D5",
                    "midi": 74,
                    "time": 90.42522750000055,
                    "velocity": 0.5039370078740157,
                    "duration": 0.10576050000000237
                },
                {
                    "name": "C#5",
                    "midi": 73,
                    "time": 90.53098800000055,
                    "velocity": 0.6062992125984252,
                    "duration": 0.10576050000000237
                },
                {
                    "name": "E5",
                    "midi": 76,
                    "time": 90.63674850000055,
                    "velocity": 0.4881889763779528,
                    "duration": 0.10576050000000237
                },
                {
                    "name": "C#5",
                    "midi": 73,
                    "time": 90.74250900000055,
                    "velocity": 0.4881889763779528,
                    "duration": 0.10576050000000237
                },
                {
                    "name": "A4",
                    "midi": 69,
                    "time": 90.84826950000055,
                    "velocity": 0.4881889763779528,
                    "duration": 0.10576050000000237
                },
                {
                    "name": "F#5",
                    "midi": 78,
                    "time": 90.95403000000056,
                    "velocity": 0.6062992125984252,
                    "duration": 0.10576050000000237
                },
                {
                    "name": "A5",
                    "midi": 81,
                    "time": 91.05979050000056,
                    "velocity": 0.5039370078740157,
                    "duration": 0.10576050000000237
                },
                {
                    "name": "F#5",
                    "midi": 78,
                    "time": 91.16555100000056,
                    "velocity": 0.5039370078740157,
                    "duration": 0.10576050000000237
                },
                {
                    "name": "D5",
                    "midi": 74,
                    "time": 91.27131150000056,
                    "velocity": 0.5039370078740157,
                    "duration": 0.10576050000000237
                },
                {
                    "name": "C#5",
                    "midi": 73,
                    "time": 91.37707200000057,
                    "velocity": 0.5433070866141733,
                    "duration": 0.07932037499999467
                },
                {
                    "name": "E5",
                    "midi": 76,
                    "time": 91.37707200000057,
                    "velocity": 0.6614173228346457,
                    "duration": 0.07932037499999467
                },
                {
                    "name": "C#5",
                    "midi": 73,
                    "time": 91.58859300000056,
                    "velocity": 0.47244094488188976,
                    "duration": 0.07932037499999467
                },
                {
                    "name": "A5",
                    "midi": 81,
                    "time": 91.58859300000056,
                    "velocity": 0.5826771653543307,
                    "duration": 0.07932037499999467
                },
                {
                    "name": "E5",
                    "midi": 76,
                    "time": 91.58859300000056,
                    "velocity": 0.47244094488188976,
                    "duration": 0.07932037499999467
                },
                {
                    "name": "A5",
                    "midi": 81,
                    "time": 91.80011400000055,
                    "velocity": 0.5826771653543307,
                    "duration": 0.07932037499999467
                },
                {
                    "name": "C#5",
                    "midi": 73,
                    "time": 91.80011400000055,
                    "velocity": 0.47244094488188976,
                    "duration": 0.07932037499999467
                },
                {
                    "name": "E5",
                    "midi": 76,
                    "time": 91.80011400000055,
                    "velocity": 0.47244094488188976,
                    "duration": 0.07932037499999467
                },
                {
                    "name": "E5",
                    "midi": 76,
                    "time": 92.01163500000054,
                    "velocity": 0.47244094488188976,
                    "duration": 0.07932037499999467
                },
                {
                    "name": "C#5",
                    "midi": 73,
                    "time": 92.01163500000054,
                    "velocity": 0.47244094488188976,
                    "duration": 0.07932037499999467
                },
                {
                    "name": "A5",
                    "midi": 81,
                    "time": 92.01163500000054,
                    "velocity": 0.5826771653543307,
                    "duration": 0.07932037499999467
                },
                {
                    "name": "A5",
                    "midi": 81,
                    "time": 92.22315600000053,
                    "velocity": 0.5826771653543307,
                    "duration": 0.37016174999999407
                },
                {
                    "name": "C#5",
                    "midi": 73,
                    "time": 92.22315600000053,
                    "velocity": 0.47244094488188976,
                    "duration": 0.37016174999999407
                },
                {
                    "name": "E5",
                    "midi": 76,
                    "time": 92.22315600000053,
                    "velocity": 0.47244094488188976,
                    "duration": 0.37016174999999407
                },
                {
                    "name": "D5",
                    "midi": 74,
                    "time": 92.59331775000052,
                    "velocity": 0.3228346456692913,
                    "duration": 0.05288025000000118
                },
                {
                    "name": "C#5",
                    "midi": 73,
                    "time": 92.64619800000052,
                    "velocity": 0.33070866141732286,
                    "duration": 0.10576050000000237
                },
                {
                    "name": "B4",
                    "midi": 71,
                    "time": 92.75195850000053,
                    "velocity": 0.31496062992125984,
                    "duration": 0.10576050000000237
                },
                {
                    "name": "C#5",
                    "midi": 73,
                    "time": 92.85771900000053,
                    "velocity": 0.31496062992125984,
                    "duration": 0.10576050000000237
                },
                {
                    "name": "D5",
                    "midi": 74,
                    "time": 92.96347950000053,
                    "velocity": 0.31496062992125984,
                    "duration": 0.10576050000000237
                },
                {
                    "name": "D#5",
                    "midi": 75,
                    "time": 93.06924000000053,
                    "velocity": 0.3543307086614173,
                    "duration": 0.21152100000000473
                },
                {
                    "name": "E5",
                    "midi": 76,
                    "time": 93.28076100000054,
                    "velocity": 0.33070866141732286,
                    "duration": 0.21152100000000473
                },
                {
                    "name": "E5",
                    "midi": 76,
                    "time": 93.70380300000055,
                    "velocity": 0.31496062992125984,
                    "duration": 0.21152100000000473
                },
                {
                    "name": "A5",
                    "midi": 81,
                    "time": 93.91532400000055,
                    "velocity": 0.36220472440944884,
                    "duration": 0.21152100000000473
                },
                {
                    "name": "G#5",
                    "midi": 80,
                    "time": 94.12684500000056,
                    "velocity": 0.33070866141732286,
                    "duration": 0.21152100000000473
                },
                {
                    "name": "F#5",
                    "midi": 78,
                    "time": 94.33836600000056,
                    "velocity": 0.3464566929133858,
                    "duration": 0.21152100000000473
                },
                {
                    "name": "E5",
                    "midi": 76,
                    "time": 94.54988700000057,
                    "velocity": 0.33070866141732286,
                    "duration": 0.21152100000000473
                },
                {
                    "name": "C#5",
                    "midi": 73,
                    "time": 94.76140800000057,
                    "velocity": 0.3779527559055118,
                    "duration": 0.21152100000000473
                },
                {
                    "name": "D5",
                    "midi": 74,
                    "time": 94.97292900000058,
                    "velocity": 0.33070866141732286,
                    "duration": 0.21152100000000473
                },
                {
                    "name": "D5",
                    "midi": 74,
                    "time": 95.39597100000059,
                    "velocity": 0.31496062992125984,
                    "duration": 0.21152100000000473
                },
                {
                    "name": "E5",
                    "midi": 76,
                    "time": 95.60749200000059,
                    "velocity": 0.3543307086614173,
                    "duration": 0.21152100000000473
                },
                {
                    "name": "D5",
                    "midi": 74,
                    "time": 95.8190130000006,
                    "velocity": 0.33070866141732286,
                    "duration": 0.21152100000000473
                },
                {
                    "name": "C#5",
                    "midi": 73,
                    "time": 96.0305340000006,
                    "velocity": 0.3543307086614173,
                    "duration": 0.21152100000000473
                },
                {
                    "name": "B4",
                    "midi": 71,
                    "time": 96.2420550000006,
                    "velocity": 0.33070866141732286,
                    "duration": 0.21152100000000473
                },
                {
                    "name": "G#4",
                    "midi": 68,
                    "time": 96.45357600000061,
                    "velocity": 0.3779527559055118,
                    "duration": 0.21152100000000473
                },
                {
                    "name": "A4",
                    "midi": 69,
                    "time": 96.66509700000061,
                    "velocity": 0.3464566929133858,
                    "duration": 0.21152100000000473
                },
                {
                    "name": "B4",
                    "midi": 71,
                    "time": 97.08813900000062,
                    "velocity": 0.3543307086614173,
                    "duration": 0.21152100000000473
                },
                {
                    "name": "C5",
                    "midi": 72,
                    "time": 97.29966000000063,
                    "velocity": 0.3937007874015748,
                    "duration": 0.21152100000000473
                },
                {
                    "name": "C#5",
                    "midi": 73,
                    "time": 97.51118100000063,
                    "velocity": 0.36220472440944884,
                    "duration": 0.21152100000000473
                },
                {
                    "name": "E5",
                    "midi": 76,
                    "time": 97.88134275000064,
                    "velocity": 0.33070866141732286,
                    "duration": 0.05288025000000118
                },
                {
                    "name": "D5",
                    "midi": 74,
                    "time": 97.93422300000064,
                    "velocity": 0.3700787401574803,
                    "duration": 0.21152100000000473
                },
                {
                    "name": "C#5",
                    "midi": 73,
                    "time": 98.14574400000065,
                    "velocity": 0.4015748031496063,
                    "duration": 0.634563
                },
                {
                    "name": "D5",
                    "midi": 74,
                    "time": 98.78030700000065,
                    "velocity": 0.3464566929133858,
                    "duration": 0.10576050000000237
                },
                {
                    "name": "C#5",
                    "midi": 73,
                    "time": 98.88606750000065,
                    "velocity": 0.33070866141732286,
                    "duration": 0.10576050000000237
                },
                {
                    "name": "B4",
                    "midi": 71,
                    "time": 98.99182800000065,
                    "velocity": 0.3700787401574803,
                    "duration": 0.21152100000000473
                },
                {
                    "name": "C#5",
                    "midi": 73,
                    "time": 99.20334900000066,
                    "velocity": 0.33070866141732286,
                    "duration": 0.10576050000000237
                },
                {
                    "name": "D5",
                    "midi": 74,
                    "time": 99.41487000000066,
                    "velocity": 0.3464566929133858,
                    "duration": 0.10576050000000237
                },
                {
                    "name": "D#5",
                    "midi": 75,
                    "time": 99.62639100000067,
                    "velocity": 0.3700787401574803,
                    "duration": 0.10576050000000237
                },
                {
                    "name": "D#5",
                    "midi": 75,
                    "time": 99.83791200000067,
                    "velocity": 0.3543307086614173,
                    "duration": 0.21152100000000473
                },
                {
                    "name": "E5",
                    "midi": 76,
                    "time": 100.04943300000068,
                    "velocity": 0.33070866141732286,
                    "duration": 0.21152100000000473
                },
                {
                    "name": "F#5",
                    "midi": 78,
                    "time": 100.47247500000068,
                    "velocity": 0.31496062992125984,
                    "duration": 0.05288025000000118
                },
                {
                    "name": "E5",
                    "midi": 76,
                    "time": 100.52535525000069,
                    "velocity": 0.29133858267716534,
                    "duration": 0.05288025000000118
                },
                {
                    "name": "D#5",
                    "midi": 75,
                    "time": 100.57823550000069,
                    "velocity": 0.29133858267716534,
                    "duration": 0.05288025000000118
                },
                {
                    "name": "E5",
                    "midi": 76,
                    "time": 100.63111575000069,
                    "velocity": 0.29133858267716534,
                    "duration": 0.05288025000000118
                },
                {
                    "name": "A5",
                    "midi": 81,
                    "time": 100.68399600000069,
                    "velocity": 0.36220472440944884,
                    "duration": 0.10576050000000237
                },
                {
                    "name": "G#5",
                    "midi": 80,
                    "time": 100.8955170000007,
                    "velocity": 0.33070866141732286,
                    "duration": 0.10576050000000237
                },
                {
                    "name": "F#5",
                    "midi": 78,
                    "time": 101.1070380000007,
                    "velocity": 0.3464566929133858,
                    "duration": 0.10576050000000237
                },
                {
                    "name": "E5",
                    "midi": 76,
                    "time": 101.3185590000007,
                    "velocity": 0.33070866141732286,
                    "duration": 0.10576050000000237
                },
                {
                    "name": "C#5",
                    "midi": 73,
                    "time": 101.53008000000071,
                    "velocity": 0.3779527559055118,
                    "duration": 0.21152100000000473
                },
                {
                    "name": "D5",
                    "midi": 74,
                    "time": 101.74160100000071,
                    "velocity": 0.33070866141732286,
                    "duration": 0.21152100000000473
                },
                {
                    "name": "E5",
                    "midi": 76,
                    "time": 102.16464300000072,
                    "velocity": 0.31496062992125984,
                    "duration": 0.05288025000000118
                },
                {
                    "name": "D5",
                    "midi": 74,
                    "time": 102.21752325000072,
                    "velocity": 0.29133858267716534,
                    "duration": 0.05288025000000118
                },
                {
                    "name": "C#5",
                    "midi": 73,
                    "time": 102.27040350000073,
                    "velocity": 0.29133858267716534,
                    "duration": 0.05288025000000118
                },
                {
                    "name": "D5",
                    "midi": 74,
                    "time": 102.32328375000073,
                    "velocity": 0.29133858267716534,
                    "duration": 0.05288025000000118
                },
                {
                    "name": "E5",
                    "midi": 76,
                    "time": 102.37616400000073,
                    "velocity": 0.3543307086614173,
                    "duration": 0.10576050000000237
                },
                {
                    "name": "D5",
                    "midi": 74,
                    "time": 102.58768500000073,
                    "velocity": 0.33070866141732286,
                    "duration": 0.10576050000000237
                },
                {
                    "name": "C#5",
                    "midi": 73,
                    "time": 102.79920600000074,
                    "velocity": 0.3543307086614173,
                    "duration": 0.10576050000000237
                },
                {
                    "name": "B4",
                    "midi": 71,
                    "time": 103.01072700000074,
                    "velocity": 0.33070866141732286,
                    "duration": 0.10576050000000237
                },
                {
                    "name": "C#5",
                    "midi": 73,
                    "time": 103.22224800000075,
                    "velocity": 0.3543307086614173,
                    "duration": 0.3172815000000071
                },
                {
                    "name": "E5",
                    "midi": 76,
                    "time": 103.53952950000075,
                    "velocity": 0.33070866141732286,
                    "duration": 0.10576050000000237
                },
                {
                    "name": "F#4",
                    "midi": 66,
                    "time": 103.64529000000076,
                    "velocity": 0.3543307086614173,
                    "duration": 0.3172815000000071
                },
                {
                    "name": "B4",
                    "midi": 71,
                    "time": 103.96257150000076,
                    "velocity": 0.3228346456692913,
                    "duration": 0.10576050000000237
                },
                {
                    "name": "A4",
                    "midi": 69,
                    "time": 104.06833200000077,
                    "velocity": 0.3543307086614173,
                    "duration": 0.42304199999999526
                },
                {
                    "name": "G#4",
                    "midi": 68,
                    "time": 104.49137400000076,
                    "velocity": 0.33858267716535434,
                    "duration": 0.05288025000000118
                },
                {
                    "name": "A4",
                    "midi": 69,
                    "time": 104.54425425000076,
                    "velocity": 0.30708661417322836,
                    "duration": 0.05288025000000118
                },
                {
                    "name": "G#4",
                    "midi": 68,
                    "time": 104.59713450000076,
                    "velocity": 0.33858267716535434,
                    "duration": 0.05288025000000118
                },
                {
                    "name": "A4",
                    "midi": 69,
                    "time": 104.65001475000076,
                    "velocity": 0.31496062992125984,
                    "duration": 0.05288025000000118
                },
                {
                    "name": "G#4",
                    "midi": 68,
                    "time": 104.70289500000077,
                    "velocity": 0.33858267716535434,
                    "duration": 0.07050700000000631
                },
                {
                    "name": "F#4",
                    "midi": 66,
                    "time": 104.77340200000077,
                    "velocity": 0.31496062992125984,
                    "duration": 0.07050700000000631
                },
                {
                    "name": "G#4",
                    "midi": 68,
                    "time": 104.84390900000078,
                    "velocity": 0.31496062992125984,
                    "duration": 0.07050700000000631
                },
                {
                    "name": "A4",
                    "midi": 69,
                    "time": 104.91441600000078,
                    "velocity": 0.36220472440944884,
                    "duration": 0.10576050000000237
                },
                {
                    "name": "E5",
                    "midi": 76,
                    "time": 105.02017650000079,
                    "velocity": 0.3464566929133858,
                    "duration": 0.10576050000000237
                },
                {
                    "name": "D#5",
                    "midi": 75,
                    "time": 105.12593700000079,
                    "velocity": 0.3700787401574803,
                    "duration": 0.10576050000000237
                },
                {
                    "name": "E5",
                    "midi": 76,
                    "time": 105.23169750000079,
                    "velocity": 0.33858267716535434,
                    "duration": 0.10576050000000237
                },
                {
                    "name": "F#5",
                    "midi": 78,
                    "time": 105.3374580000008,
                    "velocity": 0.3937007874015748,
                    "duration": 0.10576050000000237
                },
                {
                    "name": "E5",
                    "midi": 76,
                    "time": 105.4432185000008,
                    "velocity": 0.3700787401574803,
                    "duration": 0.10576050000000237
                },
                {
                    "name": "D#5",
                    "midi": 75,
                    "time": 105.5489790000008,
                    "velocity": 0.4015748031496063,
                    "duration": 0.10576050000000237
                },
                {
                    "name": "E5",
                    "midi": 76,
                    "time": 105.6547395000008,
                    "velocity": 0.4015748031496063,
                    "duration": 0.10576050000000237
                },
                {
                    "name": "D5",
                    "midi": 74,
                    "time": 105.7605000000008,
                    "velocity": 0.4645669291338583,
                    "duration": 0.10576050000000237
                },
                {
                    "name": "E5",
                    "midi": 76,
                    "time": 105.8662605000008,
                    "velocity": 0.3937007874015748,
                    "duration": 0.10576050000000237
                },
                {
                    "name": "D5",
                    "midi": 74,
                    "time": 105.97202100000081,
                    "velocity": 0.4094488188976378,
                    "duration": 0.10576050000000237
                },
                {
                    "name": "E5",
                    "midi": 76,
                    "time": 106.07778150000081,
                    "velocity": 0.3937007874015748,
                    "duration": 0.10576050000000237
                },
                {
                    "name": "D5",
                    "midi": 74,
                    "time": 106.18354200000081,
                    "velocity": 0.4881889763779528,
                    "duration": 0.10576050000000237
                },
                {
                    "name": "E5",
                    "midi": 76,
                    "time": 106.28930250000082,
                    "velocity": 0.3858267716535433,
                    "duration": 0.10576050000000237
                },
                {
                    "name": "D5",
                    "midi": 74,
                    "time": 106.39506300000082,
                    "velocity": 0.4094488188976378,
                    "duration": 0.10576050000000237
                },
                {
                    "name": "E5",
                    "midi": 76,
                    "time": 106.50082350000082,
                    "velocity": 0.3858267716535433,
                    "duration": 0.10576050000000237
                },
                {
                    "name": "C#5",
                    "midi": 73,
                    "time": 106.60658400000082,
                    "velocity": 0.3937007874015748,
                    "duration": 0.10576050000000237
                },
                {
                    "name": "E5",
                    "midi": 76,
                    "time": 106.71234450000082,
                    "velocity": 0.3464566929133858,
                    "duration": 0.10576050000000237
                },
                {
                    "name": "D#5",
                    "midi": 75,
                    "time": 106.81810500000083,
                    "velocity": 0.3700787401574803,
                    "duration": 0.10576050000000237
                },
                {
                    "name": "E5",
                    "midi": 76,
                    "time": 106.92386550000083,
                    "velocity": 0.33858267716535434,
                    "duration": 0.10576050000000237
                },
                {
                    "name": "F#5",
                    "midi": 78,
                    "time": 107.02962600000083,
                    "velocity": 0.3937007874015748,
                    "duration": 0.10576050000000237
                },
                {
                    "name": "E5",
                    "midi": 76,
                    "time": 107.13538650000083,
                    "velocity": 0.3700787401574803,
                    "duration": 0.10576050000000237
                },
                {
                    "name": "D#5",
                    "midi": 75,
                    "time": 107.24114700000084,
                    "velocity": 0.4015748031496063,
                    "duration": 0.10576050000000237
                },
                {
                    "name": "E5",
                    "midi": 76,
                    "time": 107.34690750000084,
                    "velocity": 0.4015748031496063,
                    "duration": 0.10576050000000237
                },
                {
                    "name": "D5",
                    "midi": 74,
                    "time": 107.45266800000084,
                    "velocity": 0.4645669291338583,
                    "duration": 0.10576050000000237
                },
                {
                    "name": "E5",
                    "midi": 76,
                    "time": 107.55842850000084,
                    "velocity": 0.3937007874015748,
                    "duration": 0.10576050000000237
                },
                {
                    "name": "D5",
                    "midi": 74,
                    "time": 107.66418900000085,
                    "velocity": 0.4094488188976378,
                    "duration": 0.10576050000000237
                },
                {
                    "name": "E5",
                    "midi": 76,
                    "time": 107.76994950000085,
                    "velocity": 0.3937007874015748,
                    "duration": 0.10576050000000237
                },
                {
                    "name": "D5",
                    "midi": 74,
                    "time": 107.87571000000085,
                    "velocity": 0.4881889763779528,
                    "duration": 0.10576050000000237
                },
                {
                    "name": "E5",
                    "midi": 76,
                    "time": 107.98147050000085,
                    "velocity": 0.3858267716535433,
                    "duration": 0.10576050000000237
                },
                {
                    "name": "D5",
                    "midi": 74,
                    "time": 108.08723100000086,
                    "velocity": 0.4094488188976378,
                    "duration": 0.10576050000000237
                },
                {
                    "name": "E5",
                    "midi": 76,
                    "time": 108.19299150000086,
                    "velocity": 0.3858267716535433,
                    "duration": 0.10576050000000237
                },
                {
                    "name": "A4",
                    "midi": 69,
                    "time": 108.29875200000086,
                    "velocity": 0.3228346456692913,
                    "duration": 0.42304199999999526
                },
                {
                    "name": "A5",
                    "midi": 81,
                    "time": 108.93331500000086,
                    "velocity": 0.44881889763779526,
                    "duration": 0.10576050000000237
                },
                {
                    "name": "B5",
                    "midi": 83,
                    "time": 109.14483600000086,
                    "velocity": 0.49606299212598426,
                    "duration": 0.10576050000000237
                },
                {
                    "name": "A5",
                    "midi": 81,
                    "time": 109.35635700000087,
                    "velocity": 0.4566929133858268,
                    "duration": 0.10576050000000237
                },
                {
                    "name": "G#5",
                    "midi": 80,
                    "time": 109.56787800000087,
                    "velocity": 0.49606299212598426,
                    "duration": 0.10576050000000237
                },
                {
                    "name": "E5",
                    "midi": 76,
                    "time": 109.77939900000088,
                    "velocity": 0.4566929133858268,
                    "duration": 0.10576050000000237
                },
                {
                    "name": "A5",
                    "midi": 81,
                    "time": 109.99092000000088,
                    "velocity": 0.47244094488188976,
                    "duration": 0.42304199999999526
                },
                {
                    "name": "A2",
                    "midi": 45,
                    "time": 110.62548300000088,
                    "velocity": 0.44881889763779526,
                    "duration": 0.10576050000000237
                },
                {
                    "name": "B2",
                    "midi": 47,
                    "time": 110.83700400000089,
                    "velocity": 0.49606299212598426,
                    "duration": 0.10576050000000237
                },
                {
                    "name": "A2",
                    "midi": 45,
                    "time": 111.0485250000009,
                    "velocity": 0.4566929133858268,
                    "duration": 0.10576050000000237
                },
                {
                    "name": "G#2",
                    "midi": 44,
                    "time": 111.2600460000009,
                    "velocity": 0.47244094488188976,
                    "duration": 0.10576050000000237
                },
                {
                    "name": "E2",
                    "midi": 40,
                    "time": 111.4715670000009,
                    "velocity": 0.4566929133858268,
                    "duration": 0.10576050000000237
                },
                {
                    "name": "A2",
                    "midi": 45,
                    "time": 111.68308800000091,
                    "velocity": 0.47244094488188976,
                    "duration": 0.42304199999999526
                },
                {
                    "name": "E5",
                    "midi": 76,
                    "time": 112.1061300000009,
                    "velocity": 0.3937007874015748,
                    "duration": 0.42304199999999526
                },
                {
                    "name": "D5",
                    "midi": 74,
                    "time": 112.5291720000009,
                    "velocity": 0.3700787401574803,
                    "duration": 0.42304199999999526
                },
                {
                    "name": "C#5",
                    "midi": 73,
                    "time": 112.9522140000009,
                    "velocity": 0.36220472440944884,
                    "duration": 0.42304199999999526
                },
                {
                    "name": "F#5",
                    "midi": 78,
                    "time": 113.37525600000089,
                    "velocity": 0.3937007874015748,
                    "duration": 0.3172815000000071
                },
                {
                    "name": "G#5",
                    "midi": 80,
                    "time": 113.6925375000009,
                    "velocity": 0.3543307086614173,
                    "duration": 0.03525349999999605
                },
                {
                    "name": "F#5",
                    "midi": 78,
                    "time": 113.72779100000089,
                    "velocity": 0.3543307086614173,
                    "duration": 0.03525349999999605
                },
                {
                    "name": "E5",
                    "midi": 76,
                    "time": 113.76392583750089,
                    "velocity": 0.3543307086614173,
                    "duration": 0.03525350000001026
                },
                {
                    "name": "F#5",
                    "midi": 78,
                    "time": 113.7982980000009,
                    "velocity": 0.3937007874015748,
                    "duration": 0.10576050000000237
                },
                {
                    "name": "G#5",
                    "midi": 80,
                    "time": 114.0098190000009,
                    "velocity": 0.3700787401574803,
                    "duration": 0.10576050000000237
                },
                {
                    "name": "B5",
                    "midi": 83,
                    "time": 114.22134000000091,
                    "velocity": 0.3937007874015748,
                    "duration": 0.21152100000000473
                },
                {
                    "name": "A5",
                    "midi": 81,
                    "time": 114.43286100000091,
                    "velocity": 0.3543307086614173,
                    "duration": 0.21152100000000473
                },
                {
                    "name": "G#5",
                    "midi": 80,
                    "time": 114.64438200000092,
                    "velocity": 0.3700787401574803,
                    "duration": 0.21152100000000473
                },
                {
                    "name": "F#5",
                    "midi": 78,
                    "time": 114.85590300000092,
                    "velocity": 0.3543307086614173,
                    "duration": 0.21152100000000473
                },
                {
                    "name": "E5",
                    "midi": 76,
                    "time": 115.06742400000093,
                    "velocity": 0.3937007874015748,
                    "duration": 0.21152100000000473
                },
                {
                    "name": "E5",
                    "midi": 76,
                    "time": 115.49046600000094,
                    "velocity": 0.47244094488188976,
                    "duration": 0.42304199999999526
                },
                {
                    "name": "D5",
                    "midi": 74,
                    "time": 115.91350800000093,
                    "velocity": 0.47244094488188976,
                    "duration": 0.42304199999999526
                },
                {
                    "name": "C#5",
                    "midi": 73,
                    "time": 116.33655000000093,
                    "velocity": 0.4645669291338583,
                    "duration": 0.42304199999999526
                },
                {
                    "name": "B4",
                    "midi": 71,
                    "time": 116.75959200000092,
                    "velocity": 0.5354330708661418,
                    "duration": 0.3172814999999929
                },
                {
                    "name": "F#5",
                    "midi": 78,
                    "time": 117.07687350000091,
                    "velocity": 0.41732283464566927,
                    "duration": 0.10576050000000237
                },
                {
                    "name": "E5",
                    "midi": 76,
                    "time": 117.18263400000092,
                    "velocity": 0.47244094488188976,
                    "duration": 0.10576050000000237
                },
                {
                    "name": "D5",
                    "midi": 74,
                    "time": 117.28839450000092,
                    "velocity": 0.4566929133858268,
                    "duration": 0.10576050000000237
                },
                {
                    "name": "C#5",
                    "midi": 73,
                    "time": 117.39415500000092,
                    "velocity": 0.4566929133858268,
                    "duration": 0.10576050000000237
                },
                {
                    "name": "B4",
                    "midi": 71,
                    "time": 117.49991550000092,
                    "velocity": 0.4566929133858268,
                    "duration": 0.10576050000000237
                },
                {
                    "name": "A4",
                    "midi": 69,
                    "time": 117.60567600000093,
                    "velocity": 0.49606299212598426,
                    "duration": 0.42304199999999526
                },
                {
                    "name": "B4",
                    "midi": 71,
                    "time": 118.02871800000092,
                    "velocity": 0.4330708661417323,
                    "duration": 0.05288025000000118
                },
                {
                    "name": "C#5",
                    "midi": 73,
                    "time": 118.08159825000092,
                    "velocity": 0.3858267716535433,
                    "duration": 0.05288025000000118
                },
                {
                    "name": "B4",
                    "midi": 71,
                    "time": 118.13447850000092,
                    "velocity": 0.4409448818897638,
                    "duration": 0.05288025000000118
                },
                {
                    "name": "C#5",
                    "midi": 73,
                    "time": 118.18735875000093,
                    "velocity": 0.3937007874015748,
                    "duration": 0.05288025000000118
                },
                {
                    "name": "B4",
                    "midi": 71,
                    "time": 118.24023900000093,
                    "velocity": 0.4409448818897638,
                    "duration": 0.07050700000000631
                },
                {
                    "name": "A4",
                    "midi": 69,
                    "time": 118.31074600000093,
                    "velocity": 0.3779527559055118,
                    "duration": 0.07050700000000631
                },
                {
                    "name": "B4",
                    "midi": 71,
                    "time": 118.38125300000094,
                    "velocity": 0.3779527559055118,
                    "duration": 0.07050700000000631
                },
                {
                    "name": "A4",
                    "midi": 69,
                    "time": 118.45176000000095,
                    "velocity": 0.5196850393700787,
                    "duration": 0.21152100000000473
                },
                {
                    "name": "E5",
                    "midi": 76,
                    "time": 118.87480200000095,
                    "velocity": 0.3937007874015748,
                    "duration": 0.42304199999999526
                },
                {
                    "name": "D5",
                    "midi": 74,
                    "time": 119.29784400000095,
                    "velocity": 0.3700787401574803,
                    "duration": 0.42304199999999526
                },
                {
                    "name": "C#5",
                    "midi": 73,
                    "time": 119.72088600000095,
                    "velocity": 0.36220472440944884,
                    "duration": 0.42304199999999526
                },
                {
                    "name": "F#5",
                    "midi": 78,
                    "time": 120.14392800000094,
                    "velocity": 0.3937007874015748,
                    "duration": 0.3172814999999929
                },
                {
                    "name": "G#5",
                    "midi": 80,
                    "time": 120.46120950000093,
                    "velocity": 0.3543307086614173,
                    "duration": 0.03525349999999605
                },
                {
                    "name": "F#5",
                    "midi": 78,
                    "time": 120.49646300000093,
                    "velocity": 0.3543307086614173,
                    "duration": 0.03525349999999605
                },
                {
                    "name": "E5",
                    "midi": 76,
                    "time": 120.53259783750093,
                    "velocity": 0.3543307086614173,
                    "duration": 0.03525350000001026
                },
                {
                    "name": "F#5",
                    "midi": 78,
                    "time": 120.56697000000094,
                    "velocity": 0.3937007874015748,
                    "duration": 0.10576050000000237
                },
                {
                    "name": "G#5",
                    "midi": 80,
                    "time": 120.77849100000094,
                    "velocity": 0.3700787401574803,
                    "duration": 0.10576050000000237
                },
                {
                    "name": "B5",
                    "midi": 83,
                    "time": 120.99001200000095,
                    "velocity": 0.3937007874015748,
                    "duration": 0.21152100000000473
                },
                {
                    "name": "A5",
                    "midi": 81,
                    "time": 121.20153300000095,
                    "velocity": 0.3543307086614173,
                    "duration": 0.21152100000000473
                },
                {
                    "name": "G#5",
                    "midi": 80,
                    "time": 121.41305400000095,
                    "velocity": 0.3700787401574803,
                    "duration": 0.21152100000000473
                },
                {
                    "name": "F#5",
                    "midi": 78,
                    "time": 121.62457500000096,
                    "velocity": 0.3543307086614173,
                    "duration": 0.21152100000000473
                },
                {
                    "name": "E5",
                    "midi": 76,
                    "time": 121.83609600000096,
                    "velocity": 0.3937007874015748,
                    "duration": 0.21152100000000473
                },
                {
                    "name": "E5",
                    "midi": 76,
                    "time": 122.25913800000097,
                    "velocity": 0.47244094488188976,
                    "duration": 0.42304199999999526
                },
                {
                    "name": "D5",
                    "midi": 74,
                    "time": 122.68218000000097,
                    "velocity": 0.47244094488188976,
                    "duration": 0.42304199999999526
                },
                {
                    "name": "C#5",
                    "midi": 73,
                    "time": 123.10522200000096,
                    "velocity": 0.4645669291338583,
                    "duration": 0.42304199999999526
                },
                {
                    "name": "B4",
                    "midi": 71,
                    "time": 123.52826400000096,
                    "velocity": 0.5354330708661418,
                    "duration": 0.3172814999999929
                },
                {
                    "name": "F#5",
                    "midi": 78,
                    "time": 123.84554550000095,
                    "velocity": 0.41732283464566927,
                    "duration": 0.10576050000000237
                },
                {
                    "name": "E5",
                    "midi": 76,
                    "time": 123.95130600000095,
                    "velocity": 0.47244094488188976,
                    "duration": 0.10576050000000237
                },
                {
                    "name": "D5",
                    "midi": 74,
                    "time": 124.05706650000096,
                    "velocity": 0.4566929133858268,
                    "duration": 0.10576050000000237
                },
                {
                    "name": "C#5",
                    "midi": 73,
                    "time": 124.16282700000096,
                    "velocity": 0.4566929133858268,
                    "duration": 0.10576050000000237
                },
                {
                    "name": "B4",
                    "midi": 71,
                    "time": 124.26858750000096,
                    "velocity": 0.4566929133858268,
                    "duration": 0.10576050000000237
                },
                {
                    "name": "A4",
                    "midi": 69,
                    "time": 124.37434800000096,
                    "velocity": 0.49606299212598426,
                    "duration": 0.42304199999999526
                },
                {
                    "name": "B4",
                    "midi": 71,
                    "time": 124.79739000000096,
                    "velocity": 0.4330708661417323,
                    "duration": 0.05288025000000118
                },
                {
                    "name": "C#5",
                    "midi": 73,
                    "time": 124.85027025000096,
                    "velocity": 0.3858267716535433,
                    "duration": 0.05288025000000118
                },
                {
                    "name": "B4",
                    "midi": 71,
                    "time": 124.90315050000096,
                    "velocity": 0.4409448818897638,
                    "duration": 0.05288025000000118
                },
                {
                    "name": "C#5",
                    "midi": 73,
                    "time": 124.95603075000096,
                    "velocity": 0.3937007874015748,
                    "duration": 0.05288025000000118
                },
                {
                    "name": "B4",
                    "midi": 71,
                    "time": 125.00891100000096,
                    "velocity": 0.4409448818897638,
                    "duration": 0.07050700000000631
                },
                {
                    "name": "A4",
                    "midi": 69,
                    "time": 125.07941800000097,
                    "velocity": 0.3779527559055118,
                    "duration": 0.07050700000000631
                },
                {
                    "name": "B4",
                    "midi": 71,
                    "time": 125.14992500000098,
                    "velocity": 0.3779527559055118,
                    "duration": 0.07050700000000631
                },
                {
                    "name": "A4",
                    "midi": 69,
                    "time": 125.22043200000098,
                    "velocity": 0.5196850393700787,
                    "duration": 0.10576050000000237
                },
                {
                    "name": "E4",
                    "midi": 64,
                    "time": 125.32619250000099,
                    "velocity": 0.4645669291338583,
                    "duration": 0.10576050000000237
                },
                {
                    "name": "A4",
                    "midi": 69,
                    "time": 125.43195300000099,
                    "velocity": 0.5196850393700787,
                    "duration": 0.10576050000000237
                },
                {
                    "name": "C#5",
                    "midi": 73,
                    "time": 125.53771350000099,
                    "velocity": 0.4566929133858268,
                    "duration": 0.10576050000000237
                },
                {
                    "name": "E5",
                    "midi": 76,
                    "time": 125.64347400000099,
                    "velocity": 0.5196850393700787,
                    "duration": 0.10576050000000237
                },
                {
                    "name": "C#5",
                    "midi": 73,
                    "time": 125.749234500001,
                    "velocity": 0.47244094488188976,
                    "duration": 0.10576050000000237
                },
                {
                    "name": "D5",
                    "midi": 74,
                    "time": 125.854995000001,
                    "velocity": 0.5196850393700787,
                    "duration": 0.10576050000000237
                },
                {
                    "name": "B4",
                    "midi": 71,
                    "time": 125.960755500001,
                    "velocity": 0.4645669291338583,
                    "duration": 0.10576050000000237
                },
                {
                    "name": "A4",
                    "midi": 69,
                    "time": 126.066516000001,
                    "velocity": 0.5196850393700787,
                    "duration": 0.10576050000000237
                },
                {
                    "name": "E4",
                    "midi": 64,
                    "time": 126.172276500001,
                    "velocity": 0.4645669291338583,
                    "duration": 0.10576050000000237
                },
                {
                    "name": "A4",
                    "midi": 69,
                    "time": 126.278037000001,
                    "velocity": 0.5196850393700787,
                    "duration": 0.10576050000000237
                },
                {
                    "name": "C#5",
                    "midi": 73,
                    "time": 126.38379750000101,
                    "velocity": 0.4566929133858268,
                    "duration": 0.10576050000000237
                },
                {
                    "name": "E5",
                    "midi": 76,
                    "time": 126.48955800000101,
                    "velocity": 0.5196850393700787,
                    "duration": 0.10576050000000237
                },
                {
                    "name": "C#5",
                    "midi": 73,
                    "time": 126.59531850000101,
                    "velocity": 0.47244094488188976,
                    "duration": 0.10576050000000237
                },
                {
                    "name": "D5",
                    "midi": 74,
                    "time": 126.70107900000102,
                    "velocity": 0.5196850393700787,
                    "duration": 0.10576050000000237
                },
                {
                    "name": "B4",
                    "midi": 71,
                    "time": 126.80683950000102,
                    "velocity": 0.4645669291338583,
                    "duration": 0.10576050000000237
                },
                {
                    "name": "A4",
                    "midi": 69,
                    "time": 126.91260000000102,
                    "velocity": 0.5905511811023622,
                    "duration": 0.21152100000000473
                },
                {
                    "name": "B4",
                    "midi": 71,
                    "time": 127.33564200000103,
                    "velocity": 0.5039370078740157,
                    "duration": 0.21152100000000473
                },
                {
                    "name": "G#5",
                    "midi": 80,
                    "time": 127.33564200000103,
                    "velocity": 0.5905511811023622,
                    "duration": 0.21152100000000473
                },
                {
                    "name": "D5",
                    "midi": 74,
                    "time": 127.33564200000103,
                    "velocity": 0.5039370078740157,
                    "duration": 0.21152100000000473
                },
                {
                    "name": "C#5",
                    "midi": 73,
                    "time": 127.75868400000104,
                    "velocity": 0.5039370078740157,
                    "duration": 0.21152100000000473
                },
                {
                    "name": "A4",
                    "midi": 69,
                    "time": 127.75868400000104,
                    "velocity": 0.5039370078740157,
                    "duration": 0.21152100000000473
                },
                {
                    "name": "A5",
                    "midi": 81,
                    "time": 127.75868400000104,
                    "velocity": 0.5905511811023622,
                    "duration": 0.21152100000000473
                },
                {
                    "name": "F#4",
                    "midi": 66,
                    "time": 128.60476800000106,
                    "velocity": 0.30708661417322836,
                    "duration": 0.21152100000000473
                },
                {
                    "name": "D5",
                    "midi": 74,
                    "time": 128.60476800000106,
                    "velocity": 0.3700787401574803,
                    "duration": 0.21152100000000473
                },
                {
                    "name": "C#5",
                    "midi": 73,
                    "time": 128.81628900000106,
                    "velocity": 0.33858267716535434,
                    "duration": 0.10576050000000237
                },
                {
                    "name": "E4",
                    "midi": 64,
                    "time": 128.81628900000106,
                    "velocity": 0.28346456692913385,
                    "duration": 0.10576050000000237
                },
                {
                    "name": "C#5",
                    "midi": 73,
                    "time": 129.02781000000107,
                    "velocity": 0.3700787401574803,
                    "duration": 0.21152100000000473
                },
                {
                    "name": "E4",
                    "midi": 64,
                    "time": 129.02781000000107,
                    "velocity": 0.30708661417322836,
                    "duration": 0.21152100000000473
                },
                {
                    "name": "B4",
                    "midi": 71,
                    "time": 129.23933100000107,
                    "velocity": 0.33070866141732286,
                    "duration": 0.10576050000000237
                },
                {
                    "name": "D4",
                    "midi": 62,
                    "time": 129.23933100000107,
                    "velocity": 0.2755905511811024,
                    "duration": 0.10576050000000237
                },
                {
                    "name": "D4",
                    "midi": 62,
                    "time": 129.45085200000108,
                    "velocity": 0.30708661417322836,
                    "duration": 0.21152100000000473
                },
                {
                    "name": "B4",
                    "midi": 71,
                    "time": 129.45085200000108,
                    "velocity": 0.3700787401574803,
                    "duration": 0.21152100000000473
                },
                {
                    "name": "C#4",
                    "midi": 61,
                    "time": 129.66237300000108,
                    "velocity": 0.2677165354330709,
                    "duration": 0.10576050000000237
                },
                {
                    "name": "A4",
                    "midi": 69,
                    "time": 129.66237300000108,
                    "velocity": 0.3228346456692913,
                    "duration": 0.10576050000000237
                },
                {
                    "name": "C#4",
                    "midi": 61,
                    "time": 129.8738940000011,
                    "velocity": 0.30708661417322836,
                    "duration": 0.21152100000000473
                },
                {
                    "name": "A4",
                    "midi": 69,
                    "time": 129.8738940000011,
                    "velocity": 0.3700787401574803,
                    "duration": 0.21152100000000473
                },
                {
                    "name": "B3",
                    "midi": 59,
                    "time": 130.0854150000011,
                    "velocity": 0.2677165354330709,
                    "duration": 0.10576050000000237
                },
                {
                    "name": "G#4",
                    "midi": 68,
                    "time": 130.0854150000011,
                    "velocity": 0.3228346456692913,
                    "duration": 0.10576050000000237
                },
                {
                    "name": "B3",
                    "midi": 59,
                    "time": 130.2969360000011,
                    "velocity": 0.29133858267716534,
                    "duration": 0.8460839999999905
                },
                {
                    "name": "G#4",
                    "midi": 68,
                    "time": 130.2969360000011,
                    "velocity": 0.4251968503937008,
                    "duration": 0.8460839999999905
                },
                {
                    "name": "D4",
                    "midi": 62,
                    "time": 130.2969360000011,
                    "velocity": 0.3543307086614173,
                    "duration": 0.8460839999999905
                },
                {
                    "name": "C#4",
                    "midi": 61,
                    "time": 131.1430200000011,
                    "velocity": 0.2755905511811024,
                    "duration": 0.42304200000000947
                },
                {
                    "name": "A4",
                    "midi": 69,
                    "time": 131.1430200000011,
                    "velocity": 0.33070866141732286,
                    "duration": 0.42304200000000947
                },
                {
                    "name": "A5",
                    "midi": 81,
                    "time": 131.9891040000011,
                    "velocity": 0.3700787401574803,
                    "duration": 0.21152100000000473
                },
                {
                    "name": "G5",
                    "midi": 79,
                    "time": 132.2006250000011,
                    "velocity": 0.33858267716535434,
                    "duration": 0.10576050000000237
                },
                {
                    "name": "G5",
                    "midi": 79,
                    "time": 132.41214600000112,
                    "velocity": 0.3700787401574803,
                    "duration": 0.21152100000000473
                },
                {
                    "name": "F#5",
                    "midi": 78,
                    "time": 132.62366700000112,
                    "velocity": 0.33070866141732286,
                    "duration": 0.10576050000000237
                },
                {
                    "name": "F#5",
                    "midi": 78,
                    "time": 132.83518800000112,
                    "velocity": 0.4015748031496063,
                    "duration": 0.21152100000000473
                },
                {
                    "name": "E5",
                    "midi": 76,
                    "time": 133.04670900000113,
                    "velocity": 0.3543307086614173,
                    "duration": 0.10576050000000237
                },
                {
                    "name": "E5",
                    "midi": 76,
                    "time": 133.25823000000113,
                    "velocity": 0.4330708661417323,
                    "duration": 0.21152100000000473
                },
                {
                    "name": "D#5",
                    "midi": 75,
                    "time": 133.46975100000114,
                    "velocity": 0.3937007874015748,
                    "duration": 0.10576050000000237
                },
                {
                    "name": "C5",
                    "midi": 72,
                    "time": 133.68127200000114,
                    "velocity": 0.4881889763779528,
                    "duration": 0.21152100000000473
                },
                {
                    "name": "D#5",
                    "midi": 75,
                    "time": 133.68127200000114,
                    "velocity": 0.4881889763779528,
                    "duration": 1.6921680000000379
                },
                {
                    "name": "B4",
                    "midi": 71,
                    "time": 133.89279300000115,
                    "velocity": 0.4330708661417323,
                    "duration": 0.10576050000000237
                },
                {
                    "name": "B4",
                    "midi": 71,
                    "time": 134.10431400000115,
                    "velocity": 0.48031496062992124,
                    "duration": 0.21152100000000473
                },
                {
                    "name": "A4",
                    "midi": 69,
                    "time": 134.31583500000116,
                    "velocity": 0.41732283464566927,
                    "duration": 0.10576050000000237
                },
                {
                    "name": "A4",
                    "midi": 69,
                    "time": 134.52735600000116,
                    "velocity": 0.4566929133858268,
                    "duration": 0.21152100000000473
                },
                {
                    "name": "G4",
                    "midi": 67,
                    "time": 134.73887700000117,
                    "velocity": 0.3858267716535433,
                    "duration": 0.10576050000000237
                },
                {
                    "name": "G4",
                    "midi": 67,
                    "time": 134.95039800000117,
                    "velocity": 0.4566929133858268,
                    "duration": 0.21152100000000473
                },
                {
                    "name": "F#4",
                    "midi": 66,
                    "time": 135.16191900000118,
                    "velocity": 0.3464566929133858,
                    "duration": 0.10576050000000237
                },
                {
                    "name": "D#5",
                    "midi": 75,
                    "time": 135.37344000000118,
                    "velocity": 0.3700787401574803,
                    "duration": 0.21152100000000473
                },
                {
                    "name": "E5",
                    "midi": 76,
                    "time": 135.5849610000012,
                    "velocity": 0.33858267716535434,
                    "duration": 0.10576050000000237
                },
                {
                    "name": "G5",
                    "midi": 79,
                    "time": 136.0080030000012,
                    "velocity": 0.33858267716535434,
                    "duration": 0.21152100000000473
                },
                {
                    "name": "F5",
                    "midi": 77,
                    "time": 136.2195240000012,
                    "velocity": 0.3700787401574803,
                    "duration": 0.21152100000000473
                },
                {
                    "name": "F#5",
                    "midi": 78,
                    "time": 136.4310450000012,
                    "velocity": 0.33858267716535434,
                    "duration": 0.10576050000000237
                },
                {
                    "name": "A5",
                    "midi": 81,
                    "time": 136.85408700000121,
                    "velocity": 0.33858267716535434,
                    "duration": 0.21152100000000473
                },
                {
                    "name": "F#5",
                    "midi": 78,
                    "time": 137.06560800000122,
                    "velocity": 0.44881889763779526,
                    "duration": 0.8460839999999905
                },
                {
                    "name": "D#5",
                    "midi": 75,
                    "time": 137.06560800000122,
                    "velocity": 0.44881889763779526,
                    "duration": 0.8460839999999905
                },
                {
                    "name": "E5",
                    "midi": 76,
                    "time": 137.9116920000012,
                    "velocity": 0.4015748031496063,
                    "duration": 0.42304200000000947
                },
                {
                    "name": "G5",
                    "midi": 79,
                    "time": 137.9116920000012,
                    "velocity": 0.4015748031496063,
                    "duration": 0.42304200000000947
                },
                {
                    "name": "G5",
                    "midi": 79,
                    "time": 138.75777600000123,
                    "velocity": 0.3700787401574803,
                    "duration": 0.21152100000000473
                },
                {
                    "name": "F#5",
                    "midi": 78,
                    "time": 138.96929700000123,
                    "velocity": 0.33858267716535434,
                    "duration": 0.10576050000000237
                },
                {
                    "name": "F#5",
                    "midi": 78,
                    "time": 139.18081800000124,
                    "velocity": 0.3700787401574803,
                    "duration": 0.21152100000000473
                },
                {
                    "name": "E5",
                    "midi": 76,
                    "time": 139.39233900000124,
                    "velocity": 0.33070866141732286,
                    "duration": 0.10576050000000237
                },
                {
                    "name": "E5",
                    "midi": 76,
                    "time": 139.60386000000125,
                    "velocity": 0.4015748031496063,
                    "duration": 0.21152100000000473
                },
                {
                    "name": "D5",
                    "midi": 74,
                    "time": 139.81538100000125,
                    "velocity": 0.3543307086614173,
                    "duration": 0.10576050000000237
                },
                {
                    "name": "D5",
                    "midi": 74,
                    "time": 140.02690200000126,
                    "velocity": 0.4330708661417323,
                    "duration": 0.21152100000000473
                },
                {
                    "name": "C#5",
                    "midi": 73,
                    "time": 140.23842300000126,
                    "velocity": 0.3937007874015748,
                    "duration": 0.10576050000000237
                },
                {
                    "name": "C#5",
                    "midi": 73,
                    "time": 140.44994400000127,
                    "velocity": 0.4881889763779528,
                    "duration": 1.6921680000000379
                },
                {
                    "name": "A#4",
                    "midi": 70,
                    "time": 140.44994400000127,
                    "velocity": 0.5354330708661418,
                    "duration": 0.21152100000000473
                },
                {
                    "name": "A4",
                    "midi": 69,
                    "time": 140.66146500000127,
                    "velocity": 0.47244094488188976,
                    "duration": 0.10576050000000237
                },
                {
                    "name": "A4",
                    "midi": 69,
                    "time": 140.87298600000128,
                    "velocity": 0.5275590551181102,
                    "duration": 0.21152100000000473
                },
                {
                    "name": "G4",
                    "midi": 67,
                    "time": 141.08450700000128,
                    "velocity": 0.4566929133858268,
                    "duration": 0.10576050000000237
                },
                {
                    "name": "G4",
                    "midi": 67,
                    "time": 141.2960280000013,
                    "velocity": 0.49606299212598426,
                    "duration": 0.21152100000000473
                },
                {
                    "name": "F#4",
                    "midi": 66,
                    "time": 141.5075490000013,
                    "velocity": 0.41732283464566927,
                    "duration": 0.10576050000000237
                },
                {
                    "name": "F#4",
                    "midi": 66,
                    "time": 141.7190700000013,
                    "velocity": 0.49606299212598426,
                    "duration": 0.21152100000000473
                },
                {
                    "name": "E4",
                    "midi": 64,
                    "time": 141.9305910000013,
                    "velocity": 0.3779527559055118,
                    "duration": 0.10576050000000237
                },
                {
                    "name": "C#5",
                    "midi": 73,
                    "time": 142.1421120000013,
                    "velocity": 0.3700787401574803,
                    "duration": 0.21152100000000473
                },
                {
                    "name": "D5",
                    "midi": 74,
                    "time": 142.3536330000013,
                    "velocity": 0.33858267716535434,
                    "duration": 0.10576050000000237
                },
                {
                    "name": "F#5",
                    "midi": 78,
                    "time": 142.77667500000132,
                    "velocity": 0.33858267716535434,
                    "duration": 0.21152100000000473
                },
                {
                    "name": "D#5",
                    "midi": 75,
                    "time": 142.98819600000132,
                    "velocity": 0.3700787401574803,
                    "duration": 0.21152100000000473
                },
                {
                    "name": "E5",
                    "midi": 76,
                    "time": 143.19971700000133,
                    "velocity": 0.33858267716535434,
                    "duration": 0.10576050000000237
                },
                {
                    "name": "G5",
                    "midi": 79,
                    "time": 143.62275900000134,
                    "velocity": 0.33858267716535434,
                    "duration": 0.21152100000000473
                },
                {
                    "name": "E5",
                    "midi": 76,
                    "time": 143.83428000000134,
                    "velocity": 0.44881889763779526,
                    "duration": 0.8460839999999905
                },
                {
                    "name": "C#5",
                    "midi": 73,
                    "time": 143.83428000000134,
                    "velocity": 0.44881889763779526,
                    "duration": 0.8460839999999905
                },
                {
                    "name": "D5",
                    "midi": 74,
                    "time": 144.68036400000133,
                    "velocity": 0.4015748031496063,
                    "duration": 0.42304200000000947
                },
                {
                    "name": "F#5",
                    "midi": 78,
                    "time": 144.68036400000133,
                    "velocity": 0.4015748031496063,
                    "duration": 0.42304200000000947
                },
                {
                    "name": "F#5",
                    "midi": 78,
                    "time": 145.52644800000135,
                    "velocity": 0.3700787401574803,
                    "duration": 0.10576050000000237
                },
                {
                    "name": "D6",
                    "midi": 86,
                    "time": 145.63220850000135,
                    "velocity": 0.3464566929133858,
                    "duration": 0.10576050000000237
                },
                {
                    "name": "F#5",
                    "midi": 78,
                    "time": 145.73796900000136,
                    "velocity": 0.3779527559055118,
                    "duration": 0.10576050000000237
                },
                {
                    "name": "D6",
                    "midi": 86,
                    "time": 145.84372950000136,
                    "velocity": 0.3464566929133858,
                    "duration": 0.10576050000000237
                },
                {
                    "name": "F#5",
                    "midi": 78,
                    "time": 145.94949000000136,
                    "velocity": 0.4015748031496063,
                    "duration": 0.10576050000000237
                },
                {
                    "name": "D6",
                    "midi": 86,
                    "time": 146.05525050000136,
                    "velocity": 0.3700787401574803,
                    "duration": 0.10576050000000237
                },
                {
                    "name": "F#5",
                    "midi": 78,
                    "time": 146.16101100000137,
                    "velocity": 0.4094488188976378,
                    "duration": 0.10576050000000237
                },
                {
                    "name": "D6",
                    "midi": 86,
                    "time": 146.26677150000137,
                    "velocity": 0.3700787401574803,
                    "duration": 0.10576050000000237
                },
                {
                    "name": "F#5",
                    "midi": 78,
                    "time": 146.37253200000137,
                    "velocity": 0.4330708661417323,
                    "duration": 0.10576050000000237
                },
                {
                    "name": "D6",
                    "midi": 86,
                    "time": 146.47829250000137,
                    "velocity": 0.3937007874015748,
                    "duration": 0.10576050000000237
                },
                {
                    "name": "F#5",
                    "midi": 78,
                    "time": 146.58405300000138,
                    "velocity": 0.44881889763779526,
                    "duration": 0.10576050000000237
                },
                {
                    "name": "D6",
                    "midi": 86,
                    "time": 146.68981350000138,
                    "velocity": 0.4015748031496063,
                    "duration": 0.10576050000000237
                },
                {
                    "name": "F#5",
                    "midi": 78,
                    "time": 146.79557400000138,
                    "velocity": 0.4566929133858268,
                    "duration": 0.10576050000000237
                },
                {
                    "name": "D6",
                    "midi": 86,
                    "time": 146.90133450000138,
                    "velocity": 0.4330708661417323,
                    "duration": 0.10576050000000237
                },
                {
                    "name": "F#5",
                    "midi": 78,
                    "time": 147.00709500000139,
                    "velocity": 0.47244094488188976,
                    "duration": 0.10576050000000237
                },
                {
                    "name": "D6",
                    "midi": 86,
                    "time": 147.1128555000014,
                    "velocity": 0.4330708661417323,
                    "duration": 0.10576050000000237
                },
                {
                    "name": "E5",
                    "midi": 76,
                    "time": 147.2186160000014,
                    "velocity": 0.5039370078740157,
                    "duration": 0.10576050000000237
                },
                {
                    "name": "D6",
                    "midi": 86,
                    "time": 147.3243765000014,
                    "velocity": 0.44881889763779526,
                    "duration": 0.10576050000000237
                },
                {
                    "name": "E5",
                    "midi": 76,
                    "time": 147.4301370000014,
                    "velocity": 0.49606299212598426,
                    "duration": 0.10576050000000237
                },
                {
                    "name": "D6",
                    "midi": 86,
                    "time": 147.5358975000014,
                    "velocity": 0.44881889763779526,
                    "duration": 0.10576050000000237
                },
                {
                    "name": "E5",
                    "midi": 76,
                    "time": 147.6416580000014,
                    "velocity": 0.49606299212598426,
                    "duration": 0.10576050000000237
                },
                {
                    "name": "D6",
                    "midi": 86,
                    "time": 147.7474185000014,
                    "velocity": 0.44881889763779526,
                    "duration": 0.10576050000000237
                },
                {
                    "name": "E5",
                    "midi": 76,
                    "time": 147.8531790000014,
                    "velocity": 0.49606299212598426,
                    "duration": 0.10576050000000237
                },
                {
                    "name": "D6",
                    "midi": 86,
                    "time": 147.9589395000014,
                    "velocity": 0.44881889763779526,
                    "duration": 0.10576050000000237
                },
                {
                    "name": "E5",
                    "midi": 76,
                    "time": 148.0647000000014,
                    "velocity": 0.49606299212598426,
                    "duration": 0.10576050000000237
                },
                {
                    "name": "C#6",
                    "midi": 85,
                    "time": 148.1704605000014,
                    "velocity": 0.44881889763779526,
                    "duration": 0.10576050000000237
                },
                {
                    "name": "E5",
                    "midi": 76,
                    "time": 148.2762210000014,
                    "velocity": 0.4881889763779528,
                    "duration": 0.10576050000000237
                },
                {
                    "name": "C#6",
                    "midi": 85,
                    "time": 148.38198150000142,
                    "velocity": 0.44881889763779526,
                    "duration": 0.10576050000000237
                },
                {
                    "name": "E5",
                    "midi": 76,
                    "time": 148.48774200000142,
                    "velocity": 0.47244094488188976,
                    "duration": 0.10576050000000237
                },
                {
                    "name": "C#6",
                    "midi": 85,
                    "time": 148.59350250000142,
                    "velocity": 0.4330708661417323,
                    "duration": 0.10576050000000237
                },
                {
                    "name": "E5",
                    "midi": 76,
                    "time": 148.69926300000142,
                    "velocity": 0.4645669291338583,
                    "duration": 0.10576050000000237
                },
                {
                    "name": "C#6",
                    "midi": 85,
                    "time": 148.80502350000143,
                    "velocity": 0.4094488188976378,
                    "duration": 0.10576050000000237
                },
                {
                    "name": "D5",
                    "midi": 74,
                    "time": 148.91078400000143,
                    "velocity": 0.3700787401574803,
                    "duration": 0.10576050000000237
                },
                {
                    "name": "C#6",
                    "midi": 85,
                    "time": 149.01654450000143,
                    "velocity": 0.3464566929133858,
                    "duration": 0.10576050000000237
                },
                {
                    "name": "D5",
                    "midi": 74,
                    "time": 149.12230500000143,
                    "velocity": 0.3779527559055118,
                    "duration": 0.10576050000000237
                },
                {
                    "name": "C#6",
                    "midi": 85,
                    "time": 149.22806550000143,
                    "velocity": 0.3464566929133858,
                    "duration": 0.10576050000000237
                },
                {
                    "name": "D5",
                    "midi": 74,
                    "time": 149.33382600000144,
                    "velocity": 0.4015748031496063,
                    "duration": 0.10576050000000237
                },
                {
                    "name": "C#6",
                    "midi": 85,
                    "time": 149.43958650000144,
                    "velocity": 0.3700787401574803,
                    "duration": 0.10576050000000237
                },
                {
                    "name": "D5",
                    "midi": 74,
                    "time": 149.54534700000144,
                    "velocity": 0.4094488188976378,
                    "duration": 0.10576050000000237
                },
                {
                    "name": "C#6",
                    "midi": 85,
                    "time": 149.65110750000144,
                    "velocity": 0.3700787401574803,
                    "duration": 0.10576050000000237
                },
                {
                    "name": "D5",
                    "midi": 74,
                    "time": 149.75686800000145,
                    "velocity": 0.4330708661417323,
                    "duration": 0.10576050000000237
                },
                {
                    "name": "B5",
                    "midi": 83,
                    "time": 149.86262850000145,
                    "velocity": 0.3937007874015748,
                    "duration": 0.10576050000000237
                },
                {
                    "name": "D5",
                    "midi": 74,
                    "time": 149.96838900000145,
                    "velocity": 0.44881889763779526,
                    "duration": 0.10576050000000237
                },
                {
                    "name": "B5",
                    "midi": 83,
                    "time": 150.07414950000145,
                    "velocity": 0.4015748031496063,
                    "duration": 0.10576050000000237
                },
                {
                    "name": "D5",
                    "midi": 74,
                    "time": 150.17991000000146,
                    "velocity": 0.4566929133858268,
                    "duration": 0.10576050000000237
                },
                {
                    "name": "B5",
                    "midi": 83,
                    "time": 150.28567050000146,
                    "velocity": 0.4330708661417323,
                    "duration": 0.10576050000000237
                },
                {
                    "name": "D5",
                    "midi": 74,
                    "time": 150.39143100000146,
                    "velocity": 0.47244094488188976,
                    "duration": 0.10576050000000237
                },
                {
                    "name": "B5",
                    "midi": 83,
                    "time": 150.49719150000146,
                    "velocity": 0.4330708661417323,
                    "duration": 0.10576050000000237
                },
                {
                    "name": "C#5",
                    "midi": 73,
                    "time": 150.60295200000147,
                    "velocity": 0.5039370078740157,
                    "duration": 0.10576050000000237
                },
                {
                    "name": "B5",
                    "midi": 83,
                    "time": 150.70871250000147,
                    "velocity": 0.44881889763779526,
                    "duration": 0.10576050000000237
                },
                {
                    "name": "C#5",
                    "midi": 73,
                    "time": 150.81447300000147,
                    "velocity": 0.49606299212598426,
                    "duration": 0.10576050000000237
                },
                {
                    "name": "B5",
                    "midi": 83,
                    "time": 150.92023350000147,
                    "velocity": 0.44881889763779526,
                    "duration": 0.10576050000000237
                },
                {
                    "name": "C#5",
                    "midi": 73,
                    "time": 151.02599400000148,
                    "velocity": 0.49606299212598426,
                    "duration": 0.10576050000000237
                },
                {
                    "name": "B5",
                    "midi": 83,
                    "time": 151.13175450000148,
                    "velocity": 0.44881889763779526,
                    "duration": 0.10576050000000237
                },
                {
                    "name": "C#5",
                    "midi": 73,
                    "time": 151.23751500000148,
                    "velocity": 0.49606299212598426,
                    "duration": 0.10576050000000237
                },
                {
                    "name": "B5",
                    "midi": 83,
                    "time": 151.34327550000148,
                    "velocity": 0.44881889763779526,
                    "duration": 0.10576050000000237
                },
                {
                    "name": "C5",
                    "midi": 72,
                    "time": 151.44903600000148,
                    "velocity": 0.49606299212598426,
                    "duration": 0.10576050000000237
                },
                {
                    "name": "A5",
                    "midi": 81,
                    "time": 151.5547965000015,
                    "velocity": 0.44881889763779526,
                    "duration": 0.10576050000000237
                },
                {
                    "name": "C5",
                    "midi": 72,
                    "time": 151.6605570000015,
                    "velocity": 0.4881889763779528,
                    "duration": 0.10576050000000237
                },
                {
                    "name": "A5",
                    "midi": 81,
                    "time": 151.7663175000015,
                    "velocity": 0.44881889763779526,
                    "duration": 0.10576050000000237
                },
                {
                    "name": "C5",
                    "midi": 72,
                    "time": 151.8720780000015,
                    "velocity": 0.47244094488188976,
                    "duration": 0.10576050000000237
                },
                {
                    "name": "A5",
                    "midi": 81,
                    "time": 151.9778385000015,
                    "velocity": 0.4330708661417323,
                    "duration": 0.10576050000000237
                },
                {
                    "name": "C5",
                    "midi": 72,
                    "time": 152.0835990000015,
                    "velocity": 0.4645669291338583,
                    "duration": 0.10576050000000237
                },
                {
                    "name": "A5",
                    "midi": 81,
                    "time": 152.1893595000015,
                    "velocity": 0.4094488188976378,
                    "duration": 0.10576050000000237
                },
                {
                    "name": "A5",
                    "midi": 81,
                    "time": 152.2951200000015,
                    "velocity": 0.4015748031496063,
                    "duration": 0.21152100000000473
                },
                {
                    "name": "B4",
                    "midi": 71,
                    "time": 152.2951200000015,
                    "velocity": 0.3228346456692913,
                    "duration": 0.42304199999998104
                },
                {
                    "name": "G5",
                    "midi": 79,
                    "time": 152.5066410000015,
                    "velocity": 0.3700787401574803,
                    "duration": 0.15864074999998934
                },
                {
                    "name": "G5",
                    "midi": 79,
                    "time": 152.71816200000148,
                    "velocity": 0.4015748031496063,
                    "duration": 0.21152100000000473
                },
                {
                    "name": "F#5",
                    "midi": 78,
                    "time": 152.9296830000015,
                    "velocity": 0.36220472440944884,
                    "duration": 0.15864074999998934
                },
                {
                    "name": "D6",
                    "midi": 86,
                    "time": 153.14120400000147,
                    "velocity": 0.4015748031496063,
                    "duration": 0.21152100000000473
                },
                {
                    "name": "F5",
                    "midi": 77,
                    "time": 153.14120400000147,
                    "velocity": 0.31496062992125984,
                    "duration": 0.42304199999998104
                },
                {
                    "name": "C#6",
                    "midi": 85,
                    "time": 153.35272500000147,
                    "velocity": 0.3700787401574803,
                    "duration": 0.15864074999998934
                },
                {
                    "name": "C#6",
                    "midi": 85,
                    "time": 153.56424600000145,
                    "velocity": 0.4015748031496063,
                    "duration": 0.21152100000000473
                },
                {
                    "name": "B5",
                    "midi": 83,
                    "time": 153.77576700000145,
                    "velocity": 0.36220472440944884,
                    "duration": 0.15864074999998934
                },
                {
                    "name": "G5",
                    "midi": 79,
                    "time": 153.98728800000143,
                    "velocity": 0.4645669291338583,
                    "duration": 0.21152100000000473
                },
                {
                    "name": "A#5",
                    "midi": 82,
                    "time": 153.98728800000143,
                    "velocity": 0.4645669291338583,
                    "duration": 0.8460839999999621
                },
                {
                    "name": "F#5",
                    "midi": 78,
                    "time": 154.19880900000143,
                    "velocity": 0.4094488188976378,
                    "duration": 0.15864074999998934
                },
                {
                    "name": "F#5",
                    "midi": 78,
                    "time": 154.4103300000014,
                    "velocity": 0.4645669291338583,
                    "duration": 0.21152100000000473
                },
                {
                    "name": "E5",
                    "midi": 76,
                    "time": 154.6218510000014,
                    "velocity": 0.4015748031496063,
                    "duration": 0.15864074999998934
                },
                {
                    "name": "D5",
                    "midi": 74,
                    "time": 154.8333720000014,
                    "velocity": 0.48031496062992124,
                    "duration": 0.21152100000000473
                },
                {
                    "name": "B5",
                    "midi": 83,
                    "time": 154.8333720000014,
                    "velocity": 0.48031496062992124,
                    "duration": 0.8460839999999621
                },
                {
                    "name": "C#5",
                    "midi": 73,
                    "time": 155.0448930000014,
                    "velocity": 0.4015748031496063,
                    "duration": 0.15864074999998934
                },
                {
                    "name": "C#5",
                    "midi": 73,
                    "time": 155.25641400000137,
                    "velocity": 0.48031496062992124,
                    "duration": 0.21152100000000473
                },
                {
                    "name": "B4",
                    "midi": 71,
                    "time": 155.46793500000138,
                    "velocity": 0.4330708661417323,
                    "duration": 0.15864074999998934
                },
                {
                    "name": "G4",
                    "midi": 67,
                    "time": 155.67945600000135,
                    "velocity": 0.30708661417322836,
                    "duration": 0.21152100000000473
                },
                {
                    "name": "E5",
                    "midi": 76,
                    "time": 155.67945600000135,
                    "velocity": 0.3700787401574803,
                    "duration": 0.21152100000000473
                },
                {
                    "name": "D5",
                    "midi": 74,
                    "time": 155.89097700000136,
                    "velocity": 0.33858267716535434,
                    "duration": 0.10576050000000237
                },
                {
                    "name": "F#4",
                    "midi": 66,
                    "time": 155.89097700000136,
                    "velocity": 0.28346456692913385,
                    "duration": 0.10576050000000237
                },
                {
                    "name": "F#4",
                    "midi": 66,
                    "time": 156.10249800000136,
                    "velocity": 0.30708661417322836,
                    "duration": 0.21152100000000473
                },
                {
                    "name": "D5",
                    "midi": 74,
                    "time": 156.10249800000136,
                    "velocity": 0.3700787401574803,
                    "duration": 0.21152100000000473
                },
                {
                    "name": "C#5",
                    "midi": 73,
                    "time": 156.31401900000137,
                    "velocity": 0.33070866141732286,
                    "duration": 0.10576050000000237
                },
                {
                    "name": "E4",
                    "midi": 64,
                    "time": 156.31401900000137,
                    "velocity": 0.2755905511811024,
                    "duration": 0.10576050000000237
                },
                {
                    "name": "C#5",
                    "midi": 73,
                    "time": 156.52554000000137,
                    "velocity": 0.3700787401574803,
                    "duration": 0.21152100000000473
                },
                {
                    "name": "E4",
                    "midi": 64,
                    "time": 156.52554000000137,
                    "velocity": 0.30708661417322836,
                    "duration": 0.21152100000000473
                },
                {
                    "name": "B4",
                    "midi": 71,
                    "time": 156.73706100000138,
                    "velocity": 0.3228346456692913,
                    "duration": 0.10576050000000237
                },
                {
                    "name": "D4",
                    "midi": 62,
                    "time": 156.73706100000138,
                    "velocity": 0.2677165354330709,
                    "duration": 0.10576050000000237
                },
                {
                    "name": "B4",
                    "midi": 71,
                    "time": 156.94858200000138,
                    "velocity": 0.3700787401574803,
                    "duration": 0.21152100000000473
                },
                {
                    "name": "D4",
                    "midi": 62,
                    "time": 156.94858200000138,
                    "velocity": 0.30708661417322836,
                    "duration": 0.21152100000000473
                },
                {
                    "name": "C#4",
                    "midi": 61,
                    "time": 157.16010300000138,
                    "velocity": 0.2677165354330709,
                    "duration": 0.10576050000000237
                },
                {
                    "name": "A#4",
                    "midi": 70,
                    "time": 157.16010300000138,
                    "velocity": 0.3228346456692913,
                    "duration": 0.10576050000000237
                },
                {
                    "name": "E4",
                    "midi": 64,
                    "time": 157.3716240000014,
                    "velocity": 0.3543307086614173,
                    "duration": 0.8460839999999905
                },
                {
                    "name": "A#4",
                    "midi": 70,
                    "time": 157.3716240000014,
                    "velocity": 0.4251968503937008,
                    "duration": 0.8460839999999905
                },
                {
                    "name": "C#4",
                    "midi": 61,
                    "time": 157.3716240000014,
                    "velocity": 0.29133858267716534,
                    "duration": 0.8460839999999905
                },
                {
                    "name": "D4",
                    "midi": 62,
                    "time": 158.21770800000138,
                    "velocity": 0.2755905511811024,
                    "duration": 0.42304200000000947
                },
                {
                    "name": "B4",
                    "midi": 71,
                    "time": 158.21770800000138,
                    "velocity": 0.33070866141732286,
                    "duration": 0.42304200000000947
                },
                {
                    "name": "B4",
                    "midi": 71,
                    "time": 159.0637920000014,
                    "velocity": 0.5354330708661418,
                    "duration": 0.8460839999999905
                },
                {
                    "name": "F#4",
                    "midi": 66,
                    "time": 159.0637920000014,
                    "velocity": 0.44881889763779526,
                    "duration": 0.8460839999999905
                },
                {
                    "name": "D4",
                    "midi": 62,
                    "time": 159.0637920000014,
                    "velocity": 0.44881889763779526,
                    "duration": 0.8460839999999905
                },
                {
                    "name": "D4",
                    "midi": 62,
                    "time": 159.9098760000014,
                    "velocity": 0.4015748031496063,
                    "duration": 0.42304200000000947
                },
                {
                    "name": "F#4",
                    "midi": 66,
                    "time": 159.9098760000014,
                    "velocity": 0.4015748031496063,
                    "duration": 0.42304200000000947
                },
                {
                    "name": "C5",
                    "midi": 72,
                    "time": 159.9098760000014,
                    "velocity": 0.48031496062992124,
                    "duration": 0.42304200000000947
                },
                {
                    "name": "B4",
                    "midi": 71,
                    "time": 160.7559600000014,
                    "velocity": 0.30708661417322836,
                    "duration": 0.8460839999999905
                },
                {
                    "name": "D5",
                    "midi": 74,
                    "time": 160.7559600000014,
                    "velocity": 0.36220472440944884,
                    "duration": 0.6345629999999858
                },
                {
                    "name": "D#5",
                    "midi": 75,
                    "time": 161.3905230000014,
                    "velocity": 0.31496062992125984,
                    "duration": 0.21152100000000473
                },
                {
                    "name": "C5",
                    "midi": 72,
                    "time": 161.6020440000014,
                    "velocity": 0.30708661417322836,
                    "duration": 0.42304200000000947
                },
                {
                    "name": "E5",
                    "midi": 76,
                    "time": 161.6020440000014,
                    "velocity": 0.36220472440944884,
                    "duration": 0.42304200000000947
                },
                {
                    "name": "D5",
                    "midi": 74,
                    "time": 162.8711700000014,
                    "velocity": 0.47244094488188976,
                    "duration": 0.42304200000000947
                },
                {
                    "name": "C5",
                    "midi": 72,
                    "time": 163.2942120000014,
                    "velocity": 0.4409448818897638,
                    "duration": 0.42304200000000947
                },
                {
                    "name": "B4",
                    "midi": 71,
                    "time": 163.71725400000142,
                    "velocity": 0.4330708661417323,
                    "duration": 0.42304200000000947
                },
                {
                    "name": "E5",
                    "midi": 76,
                    "time": 164.14029600000143,
                    "velocity": 0.47244094488188976,
                    "duration": 0.3172815000000071
                },
                {
                    "name": "F#5",
                    "midi": 78,
                    "time": 164.45757750000143,
                    "velocity": 0.4251968503937008,
                    "duration": 0.03525350000001026
                },
                {
                    "name": "E5",
                    "midi": 76,
                    "time": 164.49283100000144,
                    "velocity": 0.4251968503937008,
                    "duration": 0.03525350000001026
                },
                {
                    "name": "D5",
                    "midi": 74,
                    "time": 164.52896583750146,
                    "velocity": 0.4251968503937008,
                    "duration": 0.03525350000001026
                },
                {
                    "name": "E5",
                    "midi": 76,
                    "time": 164.56333800000147,
                    "velocity": 0.47244094488188976,
                    "duration": 0.10576050000000237
                },
                {
                    "name": "F#5",
                    "midi": 78,
                    "time": 164.77485900000147,
                    "velocity": 0.4409448818897638,
                    "duration": 0.10576050000000237
                },
                {
                    "name": "A5",
                    "midi": 81,
                    "time": 164.98638000000147,
                    "velocity": 0.47244094488188976,
                    "duration": 0.21152100000000473
                },
                {
                    "name": "G5",
                    "midi": 79,
                    "time": 165.19790100000148,
                    "velocity": 0.4251968503937008,
                    "duration": 0.10576050000000237
                },
                {
                    "name": "F#5",
                    "midi": 78,
                    "time": 165.40942200000148,
                    "velocity": 0.4409448818897638,
                    "duration": 0.21152100000000473
                },
                {
                    "name": "E5",
                    "midi": 76,
                    "time": 165.6209430000015,
                    "velocity": 0.4251968503937008,
                    "duration": 0.10576050000000237
                },
                {
                    "name": "D5",
                    "midi": 74,
                    "time": 165.8324640000015,
                    "velocity": 0.47244094488188976,
                    "duration": 0.21152100000000473
                },
                {
                    "name": "D5",
                    "midi": 74,
                    "time": 166.2555060000015,
                    "velocity": 0.3858267716535433,
                    "duration": 0.42304200000000947
                },
                {
                    "name": "C5",
                    "midi": 72,
                    "time": 166.6785480000015,
                    "velocity": 0.3858267716535433,
                    "duration": 0.42304200000000947
                },
                {
                    "name": "B4",
                    "midi": 71,
                    "time": 167.10159000000152,
                    "velocity": 0.3779527559055118,
                    "duration": 0.42304200000000947
                },
                {
                    "name": "A4",
                    "midi": 69,
                    "time": 167.52463200000153,
                    "velocity": 0.4409448818897638,
                    "duration": 0.3172815000000071
                },
                {
                    "name": "E5",
                    "midi": 76,
                    "time": 167.84191350000154,
                    "velocity": 0.33858267716535434,
                    "duration": 0.10576050000000237
                },
                {
                    "name": "D5",
                    "midi": 74,
                    "time": 167.94767400000154,
                    "velocity": 0.3858267716535433,
                    "duration": 0.10576050000000237
                },
                {
                    "name": "C5",
                    "midi": 72,
                    "time": 168.05343450000154,
                    "velocity": 0.3779527559055118,
                    "duration": 0.10576050000000237
                },
                {
                    "name": "B4",
                    "midi": 71,
                    "time": 168.15919500000155,
                    "velocity": 0.3779527559055118,
                    "duration": 0.10576050000000237
                },
                {
                    "name": "A4",
                    "midi": 69,
                    "time": 168.26495550000155,
                    "velocity": 0.3779527559055118,
                    "duration": 0.10576050000000237
                },
                {
                    "name": "G4",
                    "midi": 67,
                    "time": 168.37071600000155,
                    "velocity": 0.4094488188976378,
                    "duration": 0.42304200000000947
                },
                {
                    "name": "A4",
                    "midi": 69,
                    "time": 168.79375800000156,
                    "velocity": 0.3543307086614173,
                    "duration": 0.05288024999998697
                },
                {
                    "name": "B4",
                    "midi": 71,
                    "time": 168.84663825000155,
                    "velocity": 0.31496062992125984,
                    "duration": 0.05288024999998697
                },
                {
                    "name": "A4",
                    "midi": 69,
                    "time": 168.89951850000153,
                    "velocity": 0.36220472440944884,
                    "duration": 0.05288024999998697
                },
                {
                    "name": "B4",
                    "midi": 71,
                    "time": 168.95239875000152,
                    "velocity": 0.3228346456692913,
                    "duration": 0.05288024999998697
                },
                {
                    "name": "A4",
                    "midi": 69,
                    "time": 169.0052790000015,
                    "velocity": 0.36220472440944884,
                    "duration": 0.0705069999999921
                },
                {
                    "name": "G4",
                    "midi": 67,
                    "time": 169.0757860000015,
                    "velocity": 0.30708661417322836,
                    "duration": 0.0705069999999921
                },
                {
                    "name": "A4",
                    "midi": 69,
                    "time": 169.1462930000015,
                    "velocity": 0.30708661417322836,
                    "duration": 0.0705069999999921
                },
                {
                    "name": "G4",
                    "midi": 67,
                    "time": 169.21680000000148,
                    "velocity": 0.4251968503937008,
                    "duration": 0.21152100000000473
                },
                {
                    "name": "D5",
                    "midi": 74,
                    "time": 169.6398420000015,
                    "velocity": 0.47244094488188976,
                    "duration": 0.42304200000000947
                },
                {
                    "name": "C5",
                    "midi": 72,
                    "time": 170.0628840000015,
                    "velocity": 0.4409448818897638,
                    "duration": 0.42304200000000947
                },
                {
                    "name": "B4",
                    "midi": 71,
                    "time": 170.4859260000015,
                    "velocity": 0.4330708661417323,
                    "duration": 0.42304200000000947
                },
                {
                    "name": "E5",
                    "midi": 76,
                    "time": 170.90896800000152,
                    "velocity": 0.47244094488188976,
                    "duration": 0.3172815000000071
                },
                {
                    "name": "F#5",
                    "midi": 78,
                    "time": 171.22624950000153,
                    "velocity": 0.4251968503937008,
                    "duration": 0.03525350000001026
                },
                {
                    "name": "E5",
                    "midi": 76,
                    "time": 171.26150300000154,
                    "velocity": 0.4251968503937008,
                    "duration": 0.03525350000001026
                },
                {
                    "name": "D5",
                    "midi": 74,
                    "time": 171.29763783750155,
                    "velocity": 0.4251968503937008,
                    "duration": 0.03525350000001026
                },
                {
                    "name": "E5",
                    "midi": 76,
                    "time": 171.33201000000156,
                    "velocity": 0.47244094488188976,
                    "duration": 0.10576050000000237
                },
                {
                    "name": "F#5",
                    "midi": 78,
                    "time": 171.54353100000156,
                    "velocity": 0.4409448818897638,
                    "duration": 0.10576050000000237
                },
                {
                    "name": "A5",
                    "midi": 81,
                    "time": 171.75505200000157,
                    "velocity": 0.47244094488188976,
                    "duration": 0.21152100000000473
                },
                {
                    "name": "G5",
                    "midi": 79,
                    "time": 171.96657300000157,
                    "velocity": 0.4251968503937008,
                    "duration": 0.10576050000000237
                },
                {
                    "name": "F#5",
                    "midi": 78,
                    "time": 172.17809400000158,
                    "velocity": 0.4409448818897638,
                    "duration": 0.21152100000000473
                },
                {
                    "name": "E5",
                    "midi": 76,
                    "time": 172.38961500000158,
                    "velocity": 0.4251968503937008,
                    "duration": 0.10576050000000237
                },
                {
                    "name": "D5",
                    "midi": 74,
                    "time": 172.6011360000016,
                    "velocity": 0.47244094488188976,
                    "duration": 0.21152100000000473
                },
                {
                    "name": "D5",
                    "midi": 74,
                    "time": 173.0241780000016,
                    "velocity": 0.3858267716535433,
                    "duration": 0.42304200000000947
                },
                {
                    "name": "C5",
                    "midi": 72,
                    "time": 173.4472200000016,
                    "velocity": 0.3858267716535433,
                    "duration": 0.42304200000000947
                },
                {
                    "name": "B4",
                    "midi": 71,
                    "time": 173.87026200000162,
                    "velocity": 0.3779527559055118,
                    "duration": 0.42304200000000947
                },
                {
                    "name": "A4",
                    "midi": 69,
                    "time": 174.29330400000163,
                    "velocity": 0.4409448818897638,
                    "duration": 0.3172815000000071
                },
                {
                    "name": "E5",
                    "midi": 76,
                    "time": 174.61058550000163,
                    "velocity": 0.33858267716535434,
                    "duration": 0.10576050000000237
                },
                {
                    "name": "D5",
                    "midi": 74,
                    "time": 174.71634600000164,
                    "velocity": 0.3858267716535433,
                    "duration": 0.10576050000000237
                },
                {
                    "name": "C5",
                    "midi": 72,
                    "time": 174.82210650000164,
                    "velocity": 0.3779527559055118,
                    "duration": 0.10576050000000237
                },
                {
                    "name": "B4",
                    "midi": 71,
                    "time": 174.92786700000164,
                    "velocity": 0.3779527559055118,
                    "duration": 0.10576050000000237
                },
                {
                    "name": "A4",
                    "midi": 69,
                    "time": 175.03362750000164,
                    "velocity": 0.3779527559055118,
                    "duration": 0.10576050000000237
                },
                {
                    "name": "G4",
                    "midi": 67,
                    "time": 175.13938800000165,
                    "velocity": 0.4094488188976378,
                    "duration": 0.42304200000000947
                },
                {
                    "name": "A4",
                    "midi": 69,
                    "time": 175.56243000000165,
                    "velocity": 0.3543307086614173,
                    "duration": 0.05288024999998697
                },
                {
                    "name": "B4",
                    "midi": 71,
                    "time": 175.61531025000164,
                    "velocity": 0.31496062992125984,
                    "duration": 0.05288024999998697
                },
                {
                    "name": "A4",
                    "midi": 69,
                    "time": 175.66819050000163,
                    "velocity": 0.36220472440944884,
                    "duration": 0.05288024999998697
                },
                {
                    "name": "B4",
                    "midi": 71,
                    "time": 175.72107075000162,
                    "velocity": 0.3228346456692913,
                    "duration": 0.05288024999998697
                },
                {
                    "name": "A4",
                    "midi": 69,
                    "time": 175.7739510000016,
                    "velocity": 0.36220472440944884,
                    "duration": 0.0705069999999921
                },
                {
                    "name": "G4",
                    "midi": 67,
                    "time": 175.8444580000016,
                    "velocity": 0.30708661417322836,
                    "duration": 0.0705069999999921
                },
                {
                    "name": "A4",
                    "midi": 69,
                    "time": 175.9149650000016,
                    "velocity": 0.30708661417322836,
                    "duration": 0.0705069999999921
                },
                {
                    "name": "G4",
                    "midi": 67,
                    "time": 175.98547200000158,
                    "velocity": 0.4645669291338583,
                    "duration": 0.10576050000000237
                },
                {
                    "name": "A4",
                    "midi": 69,
                    "time": 176.09123250000158,
                    "velocity": 0.41732283464566927,
                    "duration": 0.10576050000000237
                },
                {
                    "name": "G4",
                    "midi": 67,
                    "time": 176.19699300000158,
                    "velocity": 0.4645669291338583,
                    "duration": 0.10576050000000237
                },
                {
                    "name": "F#4",
                    "midi": 66,
                    "time": 176.3027535000016,
                    "velocity": 0.4094488188976378,
                    "duration": 0.10576050000000237
                },
                {
                    "name": "G4",
                    "midi": 67,
                    "time": 176.4085140000016,
                    "velocity": 0.4645669291338583,
                    "duration": 0.10576050000000237
                },
                {
                    "name": "B4",
                    "midi": 71,
                    "time": 176.5142745000016,
                    "velocity": 0.4251968503937008,
                    "duration": 0.10576050000000237
                },
                {
                    "name": "A4",
                    "midi": 69,
                    "time": 176.6200350000016,
                    "velocity": 0.4645669291338583,
                    "duration": 0.10576050000000237
                },
                {
                    "name": "C5",
                    "midi": 72,
                    "time": 176.7257955000016,
                    "velocity": 0.41732283464566927,
                    "duration": 0.10576050000000237
                },
                {
                    "name": "B4",
                    "midi": 71,
                    "time": 176.8315560000016,
                    "velocity": 0.4645669291338583,
                    "duration": 0.10576050000000237
                },
                {
                    "name": "A4",
                    "midi": 69,
                    "time": 176.9373165000016,
                    "velocity": 0.41732283464566927,
                    "duration": 0.10576050000000237
                },
                {
                    "name": "G4",
                    "midi": 67,
                    "time": 177.0430770000016,
                    "velocity": 0.4645669291338583,
                    "duration": 0.10576050000000237
                },
                {
                    "name": "F#4",
                    "midi": 66,
                    "time": 177.1488375000016,
                    "velocity": 0.4094488188976378,
                    "duration": 0.10576050000000237
                },
                {
                    "name": "G4",
                    "midi": 67,
                    "time": 177.2545980000016,
                    "velocity": 0.4645669291338583,
                    "duration": 0.10576050000000237
                },
                {
                    "name": "B4",
                    "midi": 71,
                    "time": 177.3603585000016,
                    "velocity": 0.4251968503937008,
                    "duration": 0.10576050000000237
                },
                {
                    "name": "A4",
                    "midi": 69,
                    "time": 177.4661190000016,
                    "velocity": 0.4645669291338583,
                    "duration": 0.10576050000000237
                },
                {
                    "name": "C5",
                    "midi": 72,
                    "time": 177.57187950000161,
                    "velocity": 0.41732283464566927,
                    "duration": 0.10576050000000237
                },
                {
                    "name": "B4",
                    "midi": 71,
                    "time": 177.67764000000162,
                    "velocity": 0.4645669291338583,
                    "duration": 0.10576050000000237
                },
                {
                    "name": "A4",
                    "midi": 69,
                    "time": 177.78340050000162,
                    "velocity": 0.41732283464566927,
                    "duration": 0.10576050000000237
                },
                {
                    "name": "G4",
                    "midi": 67,
                    "time": 177.88916100000162,
                    "velocity": 0.4645669291338583,
                    "duration": 0.10576050000000237
                },
                {
                    "name": "F#4",
                    "midi": 66,
                    "time": 177.99492150000162,
                    "velocity": 0.4094488188976378,
                    "duration": 0.10576050000000237
                },
                {
                    "name": "G4",
                    "midi": 67,
                    "time": 178.10068200000163,
                    "velocity": 0.4645669291338583,
                    "duration": 0.10576050000000237
                },
                {
                    "name": "B4",
                    "midi": 71,
                    "time": 178.20644250000163,
                    "velocity": 0.4251968503937008,
                    "duration": 0.10576050000000237
                },
                {
                    "name": "A4",
                    "midi": 69,
                    "time": 178.31220300000163,
                    "velocity": 0.4645669291338583,
                    "duration": 0.10576050000000237
                },
                {
                    "name": "C5",
                    "midi": 72,
                    "time": 178.41796350000163,
                    "velocity": 0.41732283464566927,
                    "duration": 0.10576050000000237
                },
                {
                    "name": "B4",
                    "midi": 71,
                    "time": 178.52372400000164,
                    "velocity": 0.4645669291338583,
                    "duration": 0.10576050000000237
                },
                {
                    "name": "D5",
                    "midi": 74,
                    "time": 178.62948450000164,
                    "velocity": 0.41732283464566927,
                    "duration": 0.10576050000000237
                },
                {
                    "name": "C5",
                    "midi": 72,
                    "time": 178.73524500000164,
                    "velocity": 0.4645669291338583,
                    "duration": 0.10576050000000237
                },
                {
                    "name": "A4",
                    "midi": 69,
                    "time": 178.84100550000164,
                    "velocity": 0.4094488188976378,
                    "duration": 0.10576050000000237
                },
                {
                    "name": "B4",
                    "midi": 71,
                    "time": 178.94676600000165,
                    "velocity": 0.4645669291338583,
                    "duration": 0.10576050000000237
                },
                {
                    "name": "D5",
                    "midi": 74,
                    "time": 179.05252650000165,
                    "velocity": 0.4251968503937008,
                    "duration": 0.10576050000000237
                },
                {
                    "name": "C#5",
                    "midi": 73,
                    "time": 179.15828700000165,
                    "velocity": 0.4645669291338583,
                    "duration": 0.10576050000000237
                },
                {
                    "name": "E5",
                    "midi": 76,
                    "time": 179.26404750000165,
                    "velocity": 0.41732283464566927,
                    "duration": 0.10576050000000237
                },
                {
                    "name": "D5",
                    "midi": 74,
                    "time": 179.36980800000165,
                    "velocity": 0.4645669291338583,
                    "duration": 0.10576050000000237
                },
                {
                    "name": "E5",
                    "midi": 76,
                    "time": 179.47556850000166,
                    "velocity": 0.41732283464566927,
                    "duration": 0.10576050000000237
                },
                {
                    "name": "D5",
                    "midi": 74,
                    "time": 179.58132900000166,
                    "velocity": 0.4645669291338583,
                    "duration": 0.10576050000000237
                },
                {
                    "name": "C#5",
                    "midi": 73,
                    "time": 179.68708950000166,
                    "velocity": 0.4094488188976378,
                    "duration": 0.10576050000000237
                },
                {
                    "name": "D5",
                    "midi": 74,
                    "time": 179.79285000000166,
                    "velocity": 0.4645669291338583,
                    "duration": 0.10576050000000237
                },
                {
                    "name": "F#5",
                    "midi": 78,
                    "time": 179.89861050000167,
                    "velocity": 0.4251968503937008,
                    "duration": 0.10576050000000237
                },
                {
                    "name": "E5",
                    "midi": 76,
                    "time": 180.00437100000167,
                    "velocity": 0.4645669291338583,
                    "duration": 0.10576050000000237
                },
                {
                    "name": "G5",
                    "midi": 79,
                    "time": 180.11013150000167,
                    "velocity": 0.41732283464566927,
                    "duration": 0.10576050000000237
                },
                {
                    "name": "F#5",
                    "midi": 78,
                    "time": 180.21589200000167,
                    "velocity": 0.4645669291338583,
                    "duration": 0.10576050000000237
                },
                {
                    "name": "E5",
                    "midi": 76,
                    "time": 180.32165250000168,
                    "velocity": 0.41732283464566927,
                    "duration": 0.10576050000000237
                },
                {
                    "name": "D5",
                    "midi": 74,
                    "time": 180.42741300000168,
                    "velocity": 0.4645669291338583,
                    "duration": 0.10576050000000237
                },
                {
                    "name": "C#5",
                    "midi": 73,
                    "time": 180.53317350000168,
                    "velocity": 0.4094488188976378,
                    "duration": 0.10576050000000237
                },
                {
                    "name": "D5",
                    "midi": 74,
                    "time": 180.63893400000168,
                    "velocity": 0.4645669291338583,
                    "duration": 0.10576050000000237
                },
                {
                    "name": "F#5",
                    "midi": 78,
                    "time": 180.74469450000169,
                    "velocity": 0.4251968503937008,
                    "duration": 0.10576050000000237
                },
                {
                    "name": "E5",
                    "midi": 76,
                    "time": 180.8504550000017,
                    "velocity": 0.4645669291338583,
                    "duration": 0.10576050000000237
                },
                {
                    "name": "G5",
                    "midi": 79,
                    "time": 180.9562155000017,
                    "velocity": 0.41732283464566927,
                    "duration": 0.10576050000000237
                },
                {
                    "name": "F#5",
                    "midi": 78,
                    "time": 181.0619760000017,
                    "velocity": 0.4645669291338583,
                    "duration": 0.10576050000000237
                },
                {
                    "name": "E5",
                    "midi": 76,
                    "time": 181.1677365000017,
                    "velocity": 0.41732283464566927,
                    "duration": 0.10576050000000237
                },
                {
                    "name": "D5",
                    "midi": 74,
                    "time": 181.2734970000017,
                    "velocity": 0.4645669291338583,
                    "duration": 0.10576050000000237
                },
                {
                    "name": "C#5",
                    "midi": 73,
                    "time": 181.3792575000017,
                    "velocity": 0.4094488188976378,
                    "duration": 0.10576050000000237
                },
                {
                    "name": "D5",
                    "midi": 74,
                    "time": 181.4850180000017,
                    "velocity": 0.4645669291338583,
                    "duration": 0.10576050000000237
                },
                {
                    "name": "E5",
                    "midi": 76,
                    "time": 181.5907785000017,
                    "velocity": 0.4251968503937008,
                    "duration": 0.10576050000000237
                },
                {
                    "name": "F#5",
                    "midi": 78,
                    "time": 181.6965390000017,
                    "velocity": 0.5039370078740157,
                    "duration": 0.10576050000000237
                },
                {
                    "name": "A5",
                    "midi": 81,
                    "time": 181.8022995000017,
                    "velocity": 0.4566929133858268,
                    "duration": 0.10576050000000237
                },
                {
                    "name": "G5",
                    "midi": 79,
                    "time": 181.9080600000017,
                    "velocity": 0.5039370078740157,
                    "duration": 0.10576050000000237
                },
                {
                    "name": "F#5",
                    "midi": 78,
                    "time": 182.0138205000017,
                    "velocity": 0.4566929133858268,
                    "duration": 0.10576050000000237
                },
                {
                    "name": "E5",
                    "midi": 76,
                    "time": 182.11958100000172,
                    "velocity": 0.5039370078740157,
                    "duration": 0.10576050000000237
                },
                {
                    "name": "D#5",
                    "midi": 75,
                    "time": 182.22534150000172,
                    "velocity": 0.44881889763779526,
                    "duration": 0.10576050000000237
                },
                {
                    "name": "E5",
                    "midi": 76,
                    "time": 182.33110200000172,
                    "velocity": 0.5039370078740157,
                    "duration": 0.10576050000000237
                },
                {
                    "name": "F#5",
                    "midi": 78,
                    "time": 182.43686250000172,
                    "velocity": 0.4645669291338583,
                    "duration": 0.10576050000000237
                },
                {
                    "name": "G5",
                    "midi": 79,
                    "time": 182.54262300000173,
                    "velocity": 0.5039370078740157,
                    "duration": 0.10576050000000237
                },
                {
                    "name": "A5",
                    "midi": 81,
                    "time": 182.64838350000173,
                    "velocity": 0.4566929133858268,
                    "duration": 0.10576050000000237
                },
                {
                    "name": "G5",
                    "midi": 79,
                    "time": 182.75414400000173,
                    "velocity": 0.5433070866141733,
                    "duration": 0.10576050000000237
                },
                {
                    "name": "F#5",
                    "midi": 78,
                    "time": 182.85990450000173,
                    "velocity": 0.5275590551181102,
                    "duration": 0.10576050000000237
                },
                {
                    "name": "E5",
                    "midi": 76,
                    "time": 182.96566500000174,
                    "velocity": 0.5118110236220472,
                    "duration": 0.10576050000000237
                },
                {
                    "name": "D#5",
                    "midi": 75,
                    "time": 183.07142550000174,
                    "velocity": 0.4881889763779528,
                    "duration": 0.10576050000000237
                },
                {
                    "name": "E5",
                    "midi": 76,
                    "time": 183.17718600000174,
                    "velocity": 0.5039370078740157,
                    "duration": 0.10576050000000237
                },
                {
                    "name": "F#5",
                    "midi": 78,
                    "time": 183.28294650000174,
                    "velocity": 0.5118110236220472,
                    "duration": 0.10576050000000237
                },
                {
                    "name": "G5",
                    "midi": 79,
                    "time": 183.38870700000174,
                    "velocity": 0.5275590551181102,
                    "duration": 0.10576050000000237
                },
                {
                    "name": "B5",
                    "midi": 83,
                    "time": 183.49446750000175,
                    "velocity": 0.47244094488188976,
                    "duration": 0.10576050000000237
                },
                {
                    "name": "A5",
                    "midi": 81,
                    "time": 183.60022800000175,
                    "velocity": 0.5275590551181102,
                    "duration": 0.10576050000000237
                },
                {
                    "name": "G5",
                    "midi": 79,
                    "time": 183.70598850000175,
                    "velocity": 0.47244094488188976,
                    "duration": 0.10576050000000237
                },
                {
                    "name": "F#5",
                    "midi": 78,
                    "time": 183.81174900000175,
                    "velocity": 0.5275590551181102,
                    "duration": 0.10576050000000237
                },
                {
                    "name": "E5",
                    "midi": 76,
                    "time": 183.91750950000176,
                    "velocity": 0.4645669291338583,
                    "duration": 0.10576050000000237
                },
                {
                    "name": "F#5",
                    "midi": 78,
                    "time": 184.02327000000176,
                    "velocity": 0.5275590551181102,
                    "duration": 0.10576050000000237
                },
                {
                    "name": "G5",
                    "midi": 79,
                    "time": 184.12903050000176,
                    "velocity": 0.48031496062992124,
                    "duration": 0.10576050000000237
                },
                {
                    "name": "A5",
                    "midi": 81,
                    "time": 184.23479100000176,
                    "velocity": 0.5275590551181102,
                    "duration": 0.10576050000000237
                },
                {
                    "name": "B5",
                    "midi": 83,
                    "time": 184.34055150000177,
                    "velocity": 0.47244094488188976,
                    "duration": 0.10576050000000237
                },
                {
                    "name": "A5",
                    "midi": 81,
                    "time": 184.44631200000177,
                    "velocity": 0.5275590551181102,
                    "duration": 0.10576050000000237
                },
                {
                    "name": "G5",
                    "midi": 79,
                    "time": 184.55207250000177,
                    "velocity": 0.5196850393700787,
                    "duration": 0.10576050000000237
                },
                {
                    "name": "F#5",
                    "midi": 78,
                    "time": 184.65783300000177,
                    "velocity": 0.5118110236220472,
                    "duration": 0.10576050000000237
                },
                {
                    "name": "E5",
                    "midi": 76,
                    "time": 184.76359350000178,
                    "velocity": 0.5039370078740157,
                    "duration": 0.10576050000000237
                },
                {
                    "name": "F#5",
                    "midi": 78,
                    "time": 184.86935400000178,
                    "velocity": 0.5275590551181102,
                    "duration": 0.10576050000000237
                },
                {
                    "name": "G5",
                    "midi": 79,
                    "time": 184.97511450000178,
                    "velocity": 0.48031496062992124,
                    "duration": 0.10576050000000237
                },
                {
                    "name": "A5",
                    "midi": 81,
                    "time": 185.08087500000178,
                    "velocity": 0.5275590551181102,
                    "duration": 0.10576050000000237
                },
                {
                    "name": "C6",
                    "midi": 84,
                    "time": 185.18663550000178,
                    "velocity": 0.47244094488188976,
                    "duration": 0.10576050000000237
                },
                {
                    "name": "B5",
                    "midi": 83,
                    "time": 185.2923960000018,
                    "velocity": 0.5275590551181102,
                    "duration": 0.10576050000000237
                },
                {
                    "name": "D6",
                    "midi": 86,
                    "time": 185.3981565000018,
                    "velocity": 0.44881889763779526,
                    "duration": 0.10576050000000237
                },
                {
                    "name": "A5",
                    "midi": 81,
                    "time": 185.5039170000018,
                    "velocity": 0.4881889763779528,
                    "duration": 0.10576050000000237
                },
                {
                    "name": "D6",
                    "midi": 86,
                    "time": 185.6096775000018,
                    "velocity": 0.44881889763779526,
                    "duration": 0.10576050000000237
                },
                {
                    "name": "B5",
                    "midi": 83,
                    "time": 185.7154380000018,
                    "velocity": 0.5275590551181102,
                    "duration": 0.10576050000000237
                },
                {
                    "name": "D6",
                    "midi": 86,
                    "time": 185.8211985000018,
                    "velocity": 0.4409448818897638,
                    "duration": 0.10576050000000237
                },
                {
                    "name": "F#5",
                    "midi": 78,
                    "time": 185.9269590000018,
                    "velocity": 0.4881889763779528,
                    "duration": 0.10576050000000237
                },
                {
                    "name": "B5",
                    "midi": 83,
                    "time": 186.0327195000018,
                    "velocity": 0.4409448818897638,
                    "duration": 0.10576050000000237
                },
                {
                    "name": "G5",
                    "midi": 79,
                    "time": 186.1384800000018,
                    "velocity": 0.5275590551181102,
                    "duration": 0.10576050000000237
                },
                {
                    "name": "B5",
                    "midi": 83,
                    "time": 186.2442405000018,
                    "velocity": 0.44881889763779526,
                    "duration": 0.10576050000000237
                },
                {
                    "name": "F#5",
                    "midi": 78,
                    "time": 186.3500010000018,
                    "velocity": 0.4881889763779528,
                    "duration": 0.10576050000000237
                },
                {
                    "name": "B5",
                    "midi": 83,
                    "time": 186.4557615000018,
                    "velocity": 0.44881889763779526,
                    "duration": 0.10576050000000237
                },
                {
                    "name": "G5",
                    "midi": 79,
                    "time": 186.56152200000182,
                    "velocity": 0.5275590551181102,
                    "duration": 0.10576050000000237
                },
                {
                    "name": "B5",
                    "midi": 83,
                    "time": 186.66728250000182,
                    "velocity": 0.4566929133858268,
                    "duration": 0.10576050000000237
                },
                {
                    "name": "E5",
                    "midi": 76,
                    "time": 186.77304300000182,
                    "velocity": 0.4881889763779528,
                    "duration": 0.10576050000000237
                },
                {
                    "name": "A5",
                    "midi": 81,
                    "time": 186.87880350000182,
                    "velocity": 0.44881889763779526,
                    "duration": 0.10576050000000237
                },
                {
                    "name": "F#5",
                    "midi": 78,
                    "time": 186.98456400000182,
                    "velocity": 0.5275590551181102,
                    "duration": 0.10576050000000237
                },
                {
                    "name": "A5",
                    "midi": 81,
                    "time": 187.09032450000183,
                    "velocity": 0.44881889763779526,
                    "duration": 0.10576050000000237
                },
                {
                    "name": "E5",
                    "midi": 76,
                    "time": 187.19608500000183,
                    "velocity": 0.4881889763779528,
                    "duration": 0.10576050000000237
                },
                {
                    "name": "A5",
                    "midi": 81,
                    "time": 187.30184550000183,
                    "velocity": 0.44881889763779526,
                    "duration": 0.10576050000000237
                },
                {
                    "name": "F#5",
                    "midi": 78,
                    "time": 187.40760600000183,
                    "velocity": 0.5275590551181102,
                    "duration": 0.10576050000000237
                },
                {
                    "name": "A5",
                    "midi": 81,
                    "time": 187.51336650000184,
                    "velocity": 0.44881889763779526,
                    "duration": 0.10576050000000237
                },
                {
                    "name": "C#5",
                    "midi": 73,
                    "time": 187.61912700000184,
                    "velocity": 0.4881889763779528,
                    "duration": 0.10576050000000237
                },
                {
                    "name": "F#5",
                    "midi": 78,
                    "time": 187.72488750000184,
                    "velocity": 0.44881889763779526,
                    "duration": 0.10576050000000237
                },
                {
                    "name": "D5",
                    "midi": 74,
                    "time": 187.83064800000184,
                    "velocity": 0.5275590551181102,
                    "duration": 0.10576050000000237
                },
                {
                    "name": "F#5",
                    "midi": 78,
                    "time": 187.93640850000185,
                    "velocity": 0.4645669291338583,
                    "duration": 0.10576050000000237
                },
                {
                    "name": "C#5",
                    "midi": 73,
                    "time": 188.04216900000185,
                    "velocity": 0.48031496062992124,
                    "duration": 0.10576050000000237
                },
                {
                    "name": "F#5",
                    "midi": 78,
                    "time": 188.14792950000185,
                    "velocity": 0.4566929133858268,
                    "duration": 0.10576050000000237
                },
                {
                    "name": "D5",
                    "midi": 74,
                    "time": 188.25369000000185,
                    "velocity": 0.5275590551181102,
                    "duration": 0.10576050000000237
                },
                {
                    "name": "F#5",
                    "midi": 78,
                    "time": 188.35945050000186,
                    "velocity": 0.4645669291338583,
                    "duration": 0.10576050000000237
                },
                {
                    "name": "D#5",
                    "midi": 75,
                    "time": 188.46521100000186,
                    "velocity": 0.4881889763779528,
                    "duration": 0.10576050000000237
                },
                {
                    "name": "F#5",
                    "midi": 78,
                    "time": 188.57097150000186,
                    "velocity": 0.4645669291338583,
                    "duration": 0.10576050000000237
                },
                {
                    "name": "E5",
                    "midi": 76,
                    "time": 188.67673200000186,
                    "velocity": 0.5275590551181102,
                    "duration": 0.10576050000000237
                },
                {
                    "name": "D#5",
                    "midi": 75,
                    "time": 188.78249250000187,
                    "velocity": 0.48031496062992124,
                    "duration": 0.10576050000000237
                },
                {
                    "name": "E5",
                    "midi": 76,
                    "time": 188.88825300000187,
                    "velocity": 0.5118110236220472,
                    "duration": 0.10576050000000237
                },
                {
                    "name": "F#5",
                    "midi": 78,
                    "time": 188.99401350000187,
                    "velocity": 0.47244094488188976,
                    "duration": 0.10576050000000237
                },
                {
                    "name": "G5",
                    "midi": 79,
                    "time": 189.09977400000187,
                    "velocity": 0.5511811023622047,
                    "duration": 0.10576050000000237
                },
                {
                    "name": "F#5",
                    "midi": 78,
                    "time": 189.20553450000187,
                    "velocity": 0.47244094488188976,
                    "duration": 0.10576050000000237
                },
                {
                    "name": "G5",
                    "midi": 79,
                    "time": 189.31129500000188,
                    "velocity": 0.5118110236220472,
                    "duration": 0.10576050000000237
                },
                {
                    "name": "A5",
                    "midi": 81,
                    "time": 189.41705550000188,
                    "velocity": 0.47244094488188976,
                    "duration": 0.10576050000000237
                },
                {
                    "name": "B5",
                    "midi": 83,
                    "time": 189.52281600000188,
                    "velocity": 0.4645669291338583,
                    "duration": 0.11633654999999976
                },
                {
                    "name": "C#6",
                    "midi": 85,
                    "time": 189.62857650000188,
                    "velocity": 0.47244094488188976,
                    "duration": 0.11633654999999976
                },
                {
                    "name": "D6",
                    "midi": 86,
                    "time": 189.7343370000019,
                    "velocity": 0.48031496062992124,
                    "duration": 0.11633654999999976
                },
                {
                    "name": "C#6",
                    "midi": 85,
                    "time": 189.8400975000019,
                    "velocity": 0.5039370078740157,
                    "duration": 0.11633654999999976
                },
                {
                    "name": "B5",
                    "midi": 83,
                    "time": 189.9458580000019,
                    "velocity": 0.5118110236220472,
                    "duration": 0.11633654999999976
                },
                {
                    "name": "A5",
                    "midi": 81,
                    "time": 190.0516185000019,
                    "velocity": 0.5196850393700787,
                    "duration": 0.11633654999999976
                },
                {
                    "name": "G5",
                    "midi": 79,
                    "time": 190.1573790000019,
                    "velocity": 0.5196850393700787,
                    "duration": 0.11633654999999976
                },
                {
                    "name": "F#5",
                    "midi": 78,
                    "time": 190.2631395000019,
                    "velocity": 0.5118110236220472,
                    "duration": 0.11633654999999976
                },
                {
                    "name": "E5",
                    "midi": 76,
                    "time": 190.3689000000019,
                    "velocity": 0.49606299212598426,
                    "duration": 0.11633654999999976
                },
                {
                    "name": "F#5",
                    "midi": 78,
                    "time": 190.4746605000019,
                    "velocity": 0.5039370078740157,
                    "duration": 0.11633654999999976
                },
                {
                    "name": "G5",
                    "midi": 79,
                    "time": 190.5804210000019,
                    "velocity": 0.5275590551181102,
                    "duration": 0.11633654999999976
                },
                {
                    "name": "F#5",
                    "midi": 78,
                    "time": 190.6861815000019,
                    "velocity": 0.5511811023622047,
                    "duration": 0.11633654999999976
                },
                {
                    "name": "E5",
                    "midi": 76,
                    "time": 190.7919420000019,
                    "velocity": 0.5354330708661418,
                    "duration": 0.11633654999999976
                },
                {
                    "name": "D5",
                    "midi": 74,
                    "time": 190.8977025000019,
                    "velocity": 0.5275590551181102,
                    "duration": 0.11633654999999976
                },
                {
                    "name": "C#5",
                    "midi": 73,
                    "time": 191.00346300000191,
                    "velocity": 0.5118110236220472,
                    "duration": 0.11633654999999976
                },
                {
                    "name": "B4",
                    "midi": 71,
                    "time": 191.10922350000192,
                    "velocity": 0.5039370078740157,
                    "duration": 0.11633654999999976
                },
                {
                    "name": "C#5",
                    "midi": 73,
                    "time": 191.21498400000192,
                    "velocity": 0.5275590551181102,
                    "duration": 0.11633654999999976
                },
                {
                    "name": "D5",
                    "midi": 74,
                    "time": 191.32074450000192,
                    "velocity": 0.5275590551181102,
                    "duration": 0.11633654999999976
                },
                {
                    "name": "C#5",
                    "midi": 73,
                    "time": 191.42650500000192,
                    "velocity": 0.44881889763779526,
                    "duration": 0.11633654999999976
                },
                {
                    "name": "A4",
                    "midi": 69,
                    "time": 191.53226550000193,
                    "velocity": 0.44881889763779526,
                    "duration": 0.11633654999999976
                },
                {
                    "name": "D5",
                    "midi": 74,
                    "time": 191.63802600000193,
                    "velocity": 0.5196850393700787,
                    "duration": 0.10576050000000237
                },
                {
                    "name": "G5",
                    "midi": 79,
                    "time": 192.06106800000194,
                    "velocity": 0.5196850393700787,
                    "duration": 0.11633654999999976
                },
                {
                    "name": "A5",
                    "midi": 81,
                    "time": 192.16682850000194,
                    "velocity": 0.4409448818897638,
                    "duration": 0.11633654999999976
                },
                {
                    "name": "G5",
                    "midi": 79,
                    "time": 192.27258900000194,
                    "velocity": 0.4409448818897638,
                    "duration": 0.11633654999999976
                },
                {
                    "name": "E5",
                    "midi": 76,
                    "time": 192.37834950000195,
                    "velocity": 0.4409448818897638,
                    "duration": 0.11633654999999976
                },
                {
                    "name": "G5",
                    "midi": 79,
                    "time": 192.48411000000195,
                    "velocity": 0.5196850393700787,
                    "duration": 0.11633654999999976
                },
                {
                    "name": "F#5",
                    "midi": 78,
                    "time": 192.58987050000195,
                    "velocity": 0.44881889763779526,
                    "duration": 0.11633654999999976
                },
                {
                    "name": "E5",
                    "midi": 76,
                    "time": 192.69563100000195,
                    "velocity": 0.44881889763779526,
                    "duration": 0.11633654999999976
                },
                {
                    "name": "D5",
                    "midi": 74,
                    "time": 192.80139150000196,
                    "velocity": 0.44881889763779526,
                    "duration": 0.11633654999999976
                },
                {
                    "name": "C#5",
                    "midi": 73,
                    "time": 192.90715200000196,
                    "velocity": 0.5354330708661418,
                    "duration": 0.11633654999999976
                },
                {
                    "name": "D5",
                    "midi": 74,
                    "time": 193.01291250000196,
                    "velocity": 0.4409448818897638,
                    "duration": 0.11633654999999976
                },
                {
                    "name": "C#5",
                    "midi": 73,
                    "time": 193.11867300000196,
                    "velocity": 0.4330708661417323,
                    "duration": 0.11633654999999976
                },
                {
                    "name": "A4",
                    "midi": 69,
                    "time": 193.22443350000196,
                    "velocity": 0.4330708661417323,
                    "duration": 0.11633654999999976
                },
                {
                    "name": "D5",
                    "midi": 74,
                    "time": 193.33019400000197,
                    "velocity": 0.5354330708661418,
                    "duration": 0.10576050000000237
                },
                {
                    "name": "G5",
                    "midi": 79,
                    "time": 193.75323600000198,
                    "velocity": 0.5354330708661418,
                    "duration": 0.11633654999999976
                },
                {
                    "name": "A5",
                    "midi": 81,
                    "time": 193.85899650000198,
                    "velocity": 0.4409448818897638,
                    "duration": 0.11633654999999976
                },
                {
                    "name": "G5",
                    "midi": 79,
                    "time": 193.96475700000198,
                    "velocity": 0.4409448818897638,
                    "duration": 0.11633654999999976
                },
                {
                    "name": "E5",
                    "midi": 76,
                    "time": 194.07051750000198,
                    "velocity": 0.4566929133858268,
                    "duration": 0.11633654999999976
                },
                {
                    "name": "G5",
                    "midi": 79,
                    "time": 194.176278000002,
                    "velocity": 0.5511811023622047,
                    "duration": 0.11633654999999976
                },
                {
                    "name": "F#5",
                    "midi": 78,
                    "time": 194.282038500002,
                    "velocity": 0.4566929133858268,
                    "duration": 0.11633654999999976
                },
                {
                    "name": "E5",
                    "midi": 76,
                    "time": 194.387799000002,
                    "velocity": 0.4566929133858268,
                    "duration": 0.11633654999999976
                },
                {
                    "name": "D5",
                    "midi": 74,
                    "time": 194.493559500002,
                    "velocity": 0.48031496062992124,
                    "duration": 0.11633654999999976
                },
                {
                    "name": "C#5",
                    "midi": 73,
                    "time": 194.599320000002,
                    "velocity": 0.6220472440944882,
                    "duration": 0.10576050000000237
                },
                {
                    "name": "E5",
                    "midi": 76,
                    "time": 194.705080500002,
                    "velocity": 0.49606299212598426,
                    "duration": 0.10576050000000237
                },
                {
                    "name": "C#5",
                    "midi": 73,
                    "time": 194.810841000002,
                    "velocity": 0.49606299212598426,
                    "duration": 0.10576050000000237
                },
                {
                    "name": "A4",
                    "midi": 69,
                    "time": 194.916601500002,
                    "velocity": 0.49606299212598426,
                    "duration": 0.10576050000000237
                },
                {
                    "name": "F#5",
                    "midi": 78,
                    "time": 195.022362000002,
                    "velocity": 0.5826771653543307,
                    "duration": 0.10576050000000237
                },
                {
                    "name": "A5",
                    "midi": 81,
                    "time": 195.128122500002,
                    "velocity": 0.5039370078740157,
                    "duration": 0.10576050000000237
                },
                {
                    "name": "F#5",
                    "midi": 78,
                    "time": 195.233883000002,
                    "velocity": 0.5039370078740157,
                    "duration": 0.10576050000000237
                },
                {
                    "name": "D5",
                    "midi": 74,
                    "time": 195.339643500002,
                    "velocity": 0.5039370078740157,
                    "duration": 0.10576050000000237
                },
                {
                    "name": "C#5",
                    "midi": 73,
                    "time": 195.44540400000201,
                    "velocity": 0.6062992125984252,
                    "duration": 0.10576050000000237
                },
                {
                    "name": "E5",
                    "midi": 76,
                    "time": 195.55116450000202,
                    "velocity": 0.4645669291338583,
                    "duration": 0.10576050000000237
                },
                {
                    "name": "C#5",
                    "midi": 73,
                    "time": 195.65692500000202,
                    "velocity": 0.47244094488188976,
                    "duration": 0.10576050000000237
                },
                {
                    "name": "A4",
                    "midi": 69,
                    "time": 195.76268550000202,
                    "velocity": 0.47244094488188976,
                    "duration": 0.10576050000000237
                },
                {
                    "name": "F#5",
                    "midi": 78,
                    "time": 195.86844600000202,
                    "velocity": 0.6062992125984252,
                    "duration": 0.10576050000000237
                },
                {
                    "name": "A5",
                    "midi": 81,
                    "time": 195.97420650000203,
                    "velocity": 0.5039370078740157,
                    "duration": 0.10576050000000237
                },
                {
                    "name": "F#5",
                    "midi": 78,
                    "time": 196.07996700000203,
                    "velocity": 0.5039370078740157,
                    "duration": 0.10576050000000237
                },
                {
                    "name": "D5",
                    "midi": 74,
                    "time": 196.18572750000203,
                    "velocity": 0.5039370078740157,
                    "duration": 0.10576050000000237
                },
                {
                    "name": "E5",
                    "midi": 76,
                    "time": 196.29148800000203,
                    "velocity": 0.6614173228346457,
                    "duration": 0.07932037500000888
                },
                {
                    "name": "C#5",
                    "midi": 73,
                    "time": 196.29148800000203,
                    "velocity": 0.5433070866141733,
                    "duration": 0.07932037500000888
                },
                {
                    "name": "E5",
                    "midi": 76,
                    "time": 196.50300900000204,
                    "velocity": 0.47244094488188976,
                    "duration": 0.07932037500000888
                },
                {
                    "name": "A5",
                    "midi": 81,
                    "time": 196.50300900000204,
                    "velocity": 0.5826771653543307,
                    "duration": 0.07932037500000888
                },
                {
                    "name": "C#5",
                    "midi": 73,
                    "time": 196.50300900000204,
                    "velocity": 0.47244094488188976,
                    "duration": 0.07932037500000888
                },
                {
                    "name": "A5",
                    "midi": 81,
                    "time": 196.71453000000204,
                    "velocity": 0.5826771653543307,
                    "duration": 0.07932037500000888
                },
                {
                    "name": "C#5",
                    "midi": 73,
                    "time": 196.71453000000204,
                    "velocity": 0.47244094488188976,
                    "duration": 0.07932037500000888
                },
                {
                    "name": "E5",
                    "midi": 76,
                    "time": 196.71453000000204,
                    "velocity": 0.47244094488188976,
                    "duration": 0.07932037500000888
                },
                {
                    "name": "C#5",
                    "midi": 73,
                    "time": 196.92605100000205,
                    "velocity": 0.47244094488188976,
                    "duration": 0.07932037500000888
                },
                {
                    "name": "E5",
                    "midi": 76,
                    "time": 196.92605100000205,
                    "velocity": 0.47244094488188976,
                    "duration": 0.07932037500000888
                },
                {
                    "name": "A5",
                    "midi": 81,
                    "time": 196.92605100000205,
                    "velocity": 0.5826771653543307,
                    "duration": 0.07932037500000888
                },
                {
                    "name": "A5",
                    "midi": 81,
                    "time": 197.13757200000205,
                    "velocity": 0.5826771653543307,
                    "duration": 0.37016174999999407
                },
                {
                    "name": "C#5",
                    "midi": 73,
                    "time": 197.13757200000205,
                    "velocity": 0.47244094488188976,
                    "duration": 0.37016174999999407
                },
                {
                    "name": "E5",
                    "midi": 76,
                    "time": 197.13757200000205,
                    "velocity": 0.47244094488188976,
                    "duration": 0.37016174999999407
                },
                {
                    "name": "G5",
                    "midi": 79,
                    "time": 197.50773375000205,
                    "velocity": 0.3228346456692913,
                    "duration": 0.05288024999998697
                },
                {
                    "name": "F#5",
                    "midi": 78,
                    "time": 197.56061400000203,
                    "velocity": 0.33070866141732286,
                    "duration": 0.10576050000000237
                },
                {
                    "name": "E5",
                    "midi": 76,
                    "time": 197.66637450000204,
                    "velocity": 0.31496062992125984,
                    "duration": 0.10576050000000237
                },
                {
                    "name": "F#5",
                    "midi": 78,
                    "time": 197.77213500000204,
                    "velocity": 0.31496062992125984,
                    "duration": 0.10576050000000237
                },
                {
                    "name": "G5",
                    "midi": 79,
                    "time": 197.87789550000204,
                    "velocity": 0.31496062992125984,
                    "duration": 0.10576050000000237
                },
                {
                    "name": "G#5",
                    "midi": 80,
                    "time": 197.98365600000204,
                    "velocity": 0.3543307086614173,
                    "duration": 0.21152100000000473
                },
                {
                    "name": "A5",
                    "midi": 81,
                    "time": 198.19517700000205,
                    "velocity": 0.33070866141732286,
                    "duration": 0.21152100000000473
                },
                {
                    "name": "A5",
                    "midi": 81,
                    "time": 198.61821900000206,
                    "velocity": 0.31496062992125984,
                    "duration": 0.21152100000000473
                },
                {
                    "name": "D6",
                    "midi": 86,
                    "time": 198.82974000000206,
                    "velocity": 0.36220472440944884,
                    "duration": 0.21152100000000473
                },
                {
                    "name": "C#6",
                    "midi": 85,
                    "time": 199.04126100000207,
                    "velocity": 0.33070866141732286,
                    "duration": 0.21152100000000473
                },
                {
                    "name": "B5",
                    "midi": 83,
                    "time": 199.25278200000207,
                    "velocity": 0.3464566929133858,
                    "duration": 0.21152100000000473
                },
                {
                    "name": "A5",
                    "midi": 81,
                    "time": 199.46430300000208,
                    "velocity": 0.33070866141732286,
                    "duration": 0.21152100000000473
                },
                {
                    "name": "F#5",
                    "midi": 78,
                    "time": 199.67582400000208,
                    "velocity": 0.3779527559055118,
                    "duration": 0.21152100000000473
                },
                {
                    "name": "G5",
                    "midi": 79,
                    "time": 199.88734500000209,
                    "velocity": 0.33070866141732286,
                    "duration": 0.21152100000000473
                },
                {
                    "name": "G5",
                    "midi": 79,
                    "time": 200.3103870000021,
                    "velocity": 0.31496062992125984,
                    "duration": 0.21152100000000473
                },
                {
                    "name": "A5",
                    "midi": 81,
                    "time": 200.5219080000021,
                    "velocity": 0.3543307086614173,
                    "duration": 0.21152100000000473
                },
                {
                    "name": "G5",
                    "midi": 79,
                    "time": 200.7334290000021,
                    "velocity": 0.33070866141732286,
                    "duration": 0.21152100000000473
                },
                {
                    "name": "F#5",
                    "midi": 78,
                    "time": 200.9449500000021,
                    "velocity": 0.3543307086614173,
                    "duration": 0.21152100000000473
                },
                {
                    "name": "E5",
                    "midi": 76,
                    "time": 201.1564710000021,
                    "velocity": 0.33070866141732286,
                    "duration": 0.21152100000000473
                },
                {
                    "name": "C#5",
                    "midi": 73,
                    "time": 201.36799200000212,
                    "velocity": 0.3779527559055118,
                    "duration": 0.21152100000000473
                },
                {
                    "name": "D5",
                    "midi": 74,
                    "time": 201.57951300000212,
                    "velocity": 0.3464566929133858,
                    "duration": 0.21152100000000473
                },
                {
                    "name": "E5",
                    "midi": 76,
                    "time": 202.00255500000213,
                    "velocity": 0.3543307086614173,
                    "duration": 0.21152100000000473
                },
                {
                    "name": "F5",
                    "midi": 77,
                    "time": 202.21407600000214,
                    "velocity": 0.3937007874015748,
                    "duration": 0.21152100000000473
                },
                {
                    "name": "F#5",
                    "midi": 78,
                    "time": 202.42559700000214,
                    "velocity": 0.36220472440944884,
                    "duration": 0.21152100000000473
                },
                {
                    "name": "A5",
                    "midi": 81,
                    "time": 202.79575875000214,
                    "velocity": 0.33070866141732286,
                    "duration": 0.05288024999998697
                },
                {
                    "name": "G5",
                    "midi": 79,
                    "time": 202.84863900000212,
                    "velocity": 0.3700787401574803,
                    "duration": 0.21152100000000473
                },
                {
                    "name": "F#5",
                    "midi": 78,
                    "time": 203.06016000000213,
                    "velocity": 0.4015748031496063,
                    "duration": 0.6345629999999858
                },
                {
                    "name": "G5",
                    "midi": 79,
                    "time": 203.6947230000021,
                    "velocity": 0.3464566929133858,
                    "duration": 0.10576050000000237
                },
                {
                    "name": "F#5",
                    "midi": 78,
                    "time": 203.80048350000212,
                    "velocity": 0.33070866141732286,
                    "duration": 0.10576050000000237
                },
                {
                    "name": "E5",
                    "midi": 76,
                    "time": 203.90624400000212,
                    "velocity": 0.3700787401574803,
                    "duration": 0.21152100000000473
                },
                {
                    "name": "F#5",
                    "midi": 78,
                    "time": 204.11776500000212,
                    "velocity": 0.33070866141732286,
                    "duration": 0.10576050000000237
                },
                {
                    "name": "G5",
                    "midi": 79,
                    "time": 204.32928600000213,
                    "velocity": 0.3464566929133858,
                    "duration": 0.10576050000000237
                },
                {
                    "name": "G#5",
                    "midi": 80,
                    "time": 204.54080700000213,
                    "velocity": 0.3700787401574803,
                    "duration": 0.10576050000000237
                },
                {
                    "name": "G#5",
                    "midi": 80,
                    "time": 204.75232800000214,
                    "velocity": 0.3543307086614173,
                    "duration": 0.21152100000000473
                },
                {
                    "name": "A5",
                    "midi": 81,
                    "time": 204.96384900000214,
                    "velocity": 0.33070866141732286,
                    "duration": 0.21152100000000473
                },
                {
                    "name": "A5",
                    "midi": 81,
                    "time": 205.38689100000215,
                    "velocity": 0.31496062992125984,
                    "duration": 0.21152100000000473
                },
                {
                    "name": "D6",
                    "midi": 86,
                    "time": 205.59841200000216,
                    "velocity": 0.36220472440944884,
                    "duration": 0.10576050000000237
                },
                {
                    "name": "C6",
                    "midi": 84,
                    "time": 205.80993300000216,
                    "velocity": 0.33070866141732286,
                    "duration": 0.10576050000000237
                },
                {
                    "name": "A#5",
                    "midi": 82,
                    "time": 206.02145400000217,
                    "velocity": 0.3464566929133858,
                    "duration": 0.10576050000000237
                },
                {
                    "name": "A5",
                    "midi": 81,
                    "time": 206.23297500000217,
                    "velocity": 0.33070866141732286,
                    "duration": 0.10576050000000237
                },
                {
                    "name": "F#5",
                    "midi": 78,
                    "time": 206.44449600000218,
                    "velocity": 0.3779527559055118,
                    "duration": 0.21152100000000473
                },
                {
                    "name": "G5",
                    "midi": 79,
                    "time": 206.65601700000218,
                    "velocity": 0.33070866141732286,
                    "duration": 0.21152100000000473
                },
                {
                    "name": "A5",
                    "midi": 81,
                    "time": 207.0790590000022,
                    "velocity": 0.31496062992125984,
                    "duration": 0.05288024999998697
                },
                {
                    "name": "G5",
                    "midi": 79,
                    "time": 207.13193925000218,
                    "velocity": 0.29133858267716534,
                    "duration": 0.05288024999998697
                },
                {
                    "name": "F#5",
                    "midi": 78,
                    "time": 207.18481950000216,
                    "velocity": 0.29133858267716534,
                    "duration": 0.05288024999998697
                },
                {
                    "name": "G5",
                    "midi": 79,
                    "time": 207.23769975000215,
                    "velocity": 0.29133858267716534,
                    "duration": 0.05288024999998697
                },
                {
                    "name": "A5",
                    "midi": 81,
                    "time": 207.29058000000214,
                    "velocity": 0.3543307086614173,
                    "duration": 0.10576050000000237
                },
                {
                    "name": "G5",
                    "midi": 79,
                    "time": 207.50210100000214,
                    "velocity": 0.33070866141732286,
                    "duration": 0.10576050000000237
                },
                {
                    "name": "F5",
                    "midi": 77,
                    "time": 207.71362200000215,
                    "velocity": 0.3543307086614173,
                    "duration": 0.10576050000000237
                },
                {
                    "name": "E5",
                    "midi": 76,
                    "time": 207.92514300000215,
                    "velocity": 0.33070866141732286,
                    "duration": 0.10576050000000237
                },
                {
                    "name": "G5",
                    "midi": 79,
                    "time": 208.13666400000216,
                    "velocity": 0.3543307086614173,
                    "duration": 0.21152100000000473
                },
                {
                    "name": "F5",
                    "midi": 77,
                    "time": 208.34818500000216,
                    "velocity": 0.33070866141732286,
                    "duration": 0.21152100000000473
                },
                {
                    "name": "E5",
                    "midi": 76,
                    "time": 208.77122700000217,
                    "velocity": 0.31496062992125984,
                    "duration": 0.21152100000000473
                },
                {
                    "name": "C#5",
                    "midi": 73,
                    "time": 208.98274800000218,
                    "velocity": 0.36220472440944884,
                    "duration": 0.21152100000000473
                },
                {
                    "name": "D5",
                    "midi": 74,
                    "time": 209.19426900000218,
                    "velocity": 0.33070866141732286,
                    "duration": 0.21152100000000473
                },
                {
                    "name": "G#5",
                    "midi": 80,
                    "time": 209.6173110000022,
                    "velocity": 0.36220472440944884,
                    "duration": 0.21152100000000473
                },
                {
                    "name": "G#5",
                    "midi": 80,
                    "time": 209.8288320000022,
                    "velocity": 0.3858267716535433,
                    "duration": 0.8460839999999905
                },
                {
                    "name": "A5",
                    "midi": 81,
                    "time": 210.67491600000218,
                    "velocity": 0.33070866141732286,
                    "duration": 0.21152100000000473
                },
                {
                    "name": "F#5",
                    "midi": 78,
                    "time": 211.52100000000218,
                    "velocity": 0.36220472440944884,
                    "duration": 0.10576050000000237
                },
                {
                    "name": "A5",
                    "midi": 81,
                    "time": 211.62676050000218,
                    "velocity": 0.3464566929133858,
                    "duration": 0.10576050000000237
                },
                {
                    "name": "G#5",
                    "midi": 80,
                    "time": 211.73252100000218,
                    "velocity": 0.3700787401574803,
                    "duration": 0.10576050000000237
                },
                {
                    "name": "A5",
                    "midi": 81,
                    "time": 211.83828150000218,
                    "velocity": 0.33858267716535434,
                    "duration": 0.10576050000000237
                },
                {
                    "name": "B5",
                    "midi": 83,
                    "time": 211.94404200000218,
                    "velocity": 0.3937007874015748,
                    "duration": 0.10576050000000237
                },
                {
                    "name": "A5",
                    "midi": 81,
                    "time": 212.0498025000022,
                    "velocity": 0.3700787401574803,
                    "duration": 0.10576050000000237
                },
                {
                    "name": "G#5",
                    "midi": 80,
                    "time": 212.1555630000022,
                    "velocity": 0.41732283464566927,
                    "duration": 0.10576050000000237
                },
                {
                    "name": "A5",
                    "midi": 81,
                    "time": 212.2613235000022,
                    "velocity": 0.41732283464566927,
                    "duration": 0.10576050000000237
                },
                {
                    "name": "G5",
                    "midi": 79,
                    "time": 212.3670840000022,
                    "velocity": 0.4881889763779528,
                    "duration": 0.10576050000000237
                },
                {
                    "name": "A5",
                    "midi": 81,
                    "time": 212.4728445000022,
                    "velocity": 0.41732283464566927,
                    "duration": 0.10576050000000237
                },
                {
                    "name": "G5",
                    "midi": 79,
                    "time": 212.5786050000022,
                    "velocity": 0.4330708661417323,
                    "duration": 0.10576050000000237
                },
                {
                    "name": "A5",
                    "midi": 81,
                    "time": 212.6843655000022,
                    "velocity": 0.4094488188976378,
                    "duration": 0.10576050000000237
                },
                {
                    "name": "G5",
                    "midi": 79,
                    "time": 212.7901260000022,
                    "velocity": 0.5039370078740157,
                    "duration": 0.10576050000000237
                },
                {
                    "name": "A5",
                    "midi": 81,
                    "time": 212.8958865000022,
                    "velocity": 0.4015748031496063,
                    "duration": 0.10576050000000237
                },
                {
                    "name": "G5",
                    "midi": 79,
                    "time": 213.0016470000022,
                    "velocity": 0.4330708661417323,
                    "duration": 0.10576050000000237
                },
                {
                    "name": "A5",
                    "midi": 81,
                    "time": 213.1074075000022,
                    "velocity": 0.3858267716535433,
                    "duration": 0.10576050000000237
                },
                {
                    "name": "F#5",
                    "midi": 78,
                    "time": 213.2131680000022,
                    "velocity": 0.4409448818897638,
                    "duration": 0.10576050000000237
                },
                {
                    "name": "A5",
                    "midi": 81,
                    "time": 213.31892850000222,
                    "velocity": 0.3858267716535433,
                    "duration": 0.10576050000000237
                },
                {
                    "name": "G#5",
                    "midi": 80,
                    "time": 213.42468900000222,
                    "velocity": 0.4015748031496063,
                    "duration": 0.10576050000000237
                },
                {
                    "name": "A5",
                    "midi": 81,
                    "time": 213.53044950000222,
                    "velocity": 0.3700787401574803,
                    "duration": 0.10576050000000237
                },
                {
                    "name": "B5",
                    "midi": 83,
                    "time": 213.63621000000222,
                    "velocity": 0.4251968503937008,
                    "duration": 0.10576050000000237
                },
                {
                    "name": "A5",
                    "midi": 81,
                    "time": 213.74197050000222,
                    "velocity": 0.3700787401574803,
                    "duration": 0.10576050000000237
                },
                {
                    "name": "G#5",
                    "midi": 80,
                    "time": 213.84773100000223,
                    "velocity": 0.4015748031496063,
                    "duration": 0.10576050000000237
                },
                {
                    "name": "A5",
                    "midi": 81,
                    "time": 213.95349150000223,
                    "velocity": 0.41732283464566927,
                    "duration": 0.10576050000000237
                },
                {
                    "name": "G5",
                    "midi": 79,
                    "time": 214.05925200000223,
                    "velocity": 0.4645669291338583,
                    "duration": 0.10576050000000237
                },
                {
                    "name": "A5",
                    "midi": 81,
                    "time": 214.16501250000223,
                    "velocity": 0.3937007874015748,
                    "duration": 0.10576050000000237
                },
                {
                    "name": "G5",
                    "midi": 79,
                    "time": 214.27077300000224,
                    "velocity": 0.4330708661417323,
                    "duration": 0.10576050000000237
                },
                {
                    "name": "A5",
                    "midi": 81,
                    "time": 214.37653350000224,
                    "velocity": 0.4094488188976378,
                    "duration": 0.10576050000000237
                },
                {
                    "name": "G5",
                    "midi": 79,
                    "time": 214.48229400000224,
                    "velocity": 0.4881889763779528,
                    "duration": 0.10576050000000237
                },
                {
                    "name": "A5",
                    "midi": 81,
                    "time": 214.58805450000224,
                    "velocity": 0.3858267716535433,
                    "duration": 0.10576050000000237
                },
                {
                    "name": "G5",
                    "midi": 79,
                    "time": 214.69381500000225,
                    "velocity": 0.4330708661417323,
                    "duration": 0.10576050000000237
                },
                {
                    "name": "A5",
                    "midi": 81,
                    "time": 214.79957550000225,
                    "velocity": 0.3858267716535433,
                    "duration": 0.10576050000000237
                },
                {
                    "name": "F#5",
                    "midi": 78,
                    "time": 214.90533600000225,
                    "velocity": 0.3228346456692913,
                    "duration": 0.42304200000000947
                },
                {
                    "name": "D6",
                    "midi": 86,
                    "time": 215.53989900000226,
                    "velocity": 0.44881889763779526,
                    "duration": 0.10576050000000237
                },
                {
                    "name": "E6",
                    "midi": 88,
                    "time": 215.75142000000227,
                    "velocity": 0.49606299212598426,
                    "duration": 0.10576050000000237
                },
                {
                    "name": "D6",
                    "midi": 86,
                    "time": 215.96294100000227,
                    "velocity": 0.4566929133858268,
                    "duration": 0.10576050000000237
                },
                {
                    "name": "C#6",
                    "midi": 85,
                    "time": 216.17446200000228,
                    "velocity": 0.49606299212598426,
                    "duration": 0.10576050000000237
                },
                {
                    "name": "A5",
                    "midi": 81,
                    "time": 216.38598300000228,
                    "velocity": 0.4566929133858268,
                    "duration": 0.10576050000000237
                },
                {
                    "name": "D6",
                    "midi": 86,
                    "time": 216.5975040000023,
                    "velocity": 0.47244094488188976,
                    "duration": 0.42304200000000947
                },
                {
                    "name": "D3",
                    "midi": 50,
                    "time": 217.2320670000023,
                    "velocity": 0.44881889763779526,
                    "duration": 0.10576050000000237
                },
                {
                    "name": "E3",
                    "midi": 52,
                    "time": 217.4435880000023,
                    "velocity": 0.49606299212598426,
                    "duration": 0.10576050000000237
                },
                {
                    "name": "D3",
                    "midi": 50,
                    "time": 217.6551090000023,
                    "velocity": 0.4566929133858268,
                    "duration": 0.10576050000000237
                },
                {
                    "name": "C#3",
                    "midi": 49,
                    "time": 217.86663000000232,
                    "velocity": 0.47244094488188976,
                    "duration": 0.10576050000000237
                },
                {
                    "name": "A2",
                    "midi": 45,
                    "time": 218.07815100000232,
                    "velocity": 0.4566929133858268,
                    "duration": 0.10576050000000237
                },
                {
                    "name": "D3",
                    "midi": 50,
                    "time": 218.28967200000233,
                    "velocity": 0.47244094488188976,
                    "duration": 0.42304200000000947
                },
                {
                    "name": "A5",
                    "midi": 81,
                    "time": 218.71271400000234,
                    "velocity": 0.3937007874015748,
                    "duration": 0.42304200000000947
                },
                {
                    "name": "G5",
                    "midi": 79,
                    "time": 219.13575600000235,
                    "velocity": 0.3700787401574803,
                    "duration": 0.42304200000000947
                },
                {
                    "name": "F#5",
                    "midi": 78,
                    "time": 219.55879800000235,
                    "velocity": 0.36220472440944884,
                    "duration": 0.42304200000000947
                },
                {
                    "name": "B5",
                    "midi": 83,
                    "time": 219.98184000000236,
                    "velocity": 0.3937007874015748,
                    "duration": 0.3172815000000071
                },
                {
                    "name": "C#6",
                    "midi": 85,
                    "time": 220.29912150000237,
                    "velocity": 0.3543307086614173,
                    "duration": 0.03525350000001026
                },
                {
                    "name": "B5",
                    "midi": 83,
                    "time": 220.33437500000238,
                    "velocity": 0.3543307086614173,
                    "duration": 0.03525350000001026
                },
                {
                    "name": "A5",
                    "midi": 81,
                    "time": 220.3705098375024,
                    "velocity": 0.3543307086614173,
                    "duration": 0.03525350000001026
                },
                {
                    "name": "B5",
                    "midi": 83,
                    "time": 220.4048820000024,
                    "velocity": 0.3937007874015748,
                    "duration": 0.10576050000000237
                },
                {
                    "name": "C#6",
                    "midi": 85,
                    "time": 220.6164030000024,
                    "velocity": 0.3700787401574803,
                    "duration": 0.10576050000000237
                },
                {
                    "name": "E6",
                    "midi": 88,
                    "time": 220.8279240000024,
                    "velocity": 0.3937007874015748,
                    "duration": 0.21152100000000473
                },
                {
                    "name": "D6",
                    "midi": 86,
                    "time": 221.03944500000242,
                    "velocity": 0.3543307086614173,
                    "duration": 0.10576050000000237
                },
                {
                    "name": "C#6",
                    "midi": 85,
                    "time": 221.25096600000242,
                    "velocity": 0.3700787401574803,
                    "duration": 0.21152100000000473
                },
                {
                    "name": "B5",
                    "midi": 83,
                    "time": 221.46248700000243,
                    "velocity": 0.3543307086614173,
                    "duration": 0.10576050000000237
                },
                {
                    "name": "A5",
                    "midi": 81,
                    "time": 221.67400800000243,
                    "velocity": 0.3937007874015748,
                    "duration": 0.21152100000000473
                },
                {
                    "name": "A5",
                    "midi": 81,
                    "time": 222.09705000000244,
                    "velocity": 0.47244094488188976,
                    "duration": 0.42304200000000947
                },
                {
                    "name": "G5",
                    "midi": 79,
                    "time": 222.52009200000245,
                    "velocity": 0.47244094488188976,
                    "duration": 0.42304200000000947
                },
                {
                    "name": "F#5",
                    "midi": 78,
                    "time": 222.94313400000246,
                    "velocity": 0.4645669291338583,
                    "duration": 0.42304200000000947
                },
                {
                    "name": "E5",
                    "midi": 76,
                    "time": 223.36617600000247,
                    "velocity": 0.5354330708661418,
                    "duration": 0.3172815000000071
                },
                {
                    "name": "B5",
                    "midi": 83,
                    "time": 223.68345750000248,
                    "velocity": 0.41732283464566927,
                    "duration": 0.10576050000000237
                },
                {
                    "name": "A5",
                    "midi": 81,
                    "time": 223.78921800000248,
                    "velocity": 0.47244094488188976,
                    "duration": 0.10576050000000237
                },
                {
                    "name": "G5",
                    "midi": 79,
                    "time": 223.89497850000248,
                    "velocity": 0.4566929133858268,
                    "duration": 0.10576050000000237
                },
                {
                    "name": "F#5",
                    "midi": 78,
                    "time": 224.00073900000248,
                    "velocity": 0.4566929133858268,
                    "duration": 0.10576050000000237
                },
                {
                    "name": "E5",
                    "midi": 76,
                    "time": 224.10649950000249,
                    "velocity": 0.4566929133858268,
                    "duration": 0.10576050000000237
                },
                {
                    "name": "D5",
                    "midi": 74,
                    "time": 224.2122600000025,
                    "velocity": 0.49606299212598426,
                    "duration": 0.42304200000000947
                },
                {
                    "name": "E5",
                    "midi": 76,
                    "time": 224.6353020000025,
                    "velocity": 0.4330708661417323,
                    "duration": 0.05288024999998697
                },
                {
                    "name": "F#5",
                    "midi": 78,
                    "time": 224.68818225000248,
                    "velocity": 0.3858267716535433,
                    "duration": 0.05288024999998697
                },
                {
                    "name": "E5",
                    "midi": 76,
                    "time": 224.74106250000247,
                    "velocity": 0.4409448818897638,
                    "duration": 0.05288024999998697
                },
                {
                    "name": "F#5",
                    "midi": 78,
                    "time": 224.79394275000246,
                    "velocity": 0.3937007874015748,
                    "duration": 0.05288024999998697
                },
                {
                    "name": "E5",
                    "midi": 76,
                    "time": 224.84682300000244,
                    "velocity": 0.4409448818897638,
                    "duration": 0.0705069999999921
                },
                {
                    "name": "D5",
                    "midi": 74,
                    "time": 224.91733000000244,
                    "velocity": 0.3779527559055118,
                    "duration": 0.0705069999999921
                },
                {
                    "name": "E5",
                    "midi": 76,
                    "time": 224.98783700000243,
                    "velocity": 0.3779527559055118,
                    "duration": 0.0705069999999921
                },
                {
                    "name": "D5",
                    "midi": 74,
                    "time": 225.05834400000242,
                    "velocity": 0.5196850393700787,
                    "duration": 0.21152100000000473
                },
                {
                    "name": "A4",
                    "midi": 69,
                    "time": 225.48138600000243,
                    "velocity": 0.3937007874015748,
                    "duration": 0.42304200000000947
                },
                {
                    "name": "G4",
                    "midi": 67,
                    "time": 225.90442800000244,
                    "velocity": 0.3700787401574803,
                    "duration": 0.42304200000000947
                },
                {
                    "name": "F#4",
                    "midi": 66,
                    "time": 226.32747000000245,
                    "velocity": 0.36220472440944884,
                    "duration": 0.42304200000000947
                },
                {
                    "name": "B4",
                    "midi": 71,
                    "time": 226.75051200000246,
                    "velocity": 0.3937007874015748,
                    "duration": 0.3172815000000071
                },
                {
                    "name": "C#5",
                    "midi": 73,
                    "time": 227.06779350000247,
                    "velocity": 0.3543307086614173,
                    "duration": 0.03525350000001026
                },
                {
                    "name": "B4",
                    "midi": 71,
                    "time": 227.10304700000248,
                    "velocity": 0.3543307086614173,
                    "duration": 0.03525350000001026
                },
                {
                    "name": "A4",
                    "midi": 69,
                    "time": 227.1391818375025,
                    "velocity": 0.3543307086614173,
                    "duration": 0.03525350000001026
                },
                {
                    "name": "B4",
                    "midi": 71,
                    "time": 227.1735540000025,
                    "velocity": 0.3937007874015748,
                    "duration": 0.10576050000000237
                },
                {
                    "name": "C#5",
                    "midi": 73,
                    "time": 227.3850750000025,
                    "velocity": 0.3700787401574803,
                    "duration": 0.10576050000000237
                },
                {
                    "name": "E5",
                    "midi": 76,
                    "time": 227.5965960000025,
                    "velocity": 0.3937007874015748,
                    "duration": 0.21152100000000473
                },
                {
                    "name": "D5",
                    "midi": 74,
                    "time": 227.8081170000025,
                    "velocity": 0.3543307086614173,
                    "duration": 0.21152100000000473
                },
                {
                    "name": "C#5",
                    "midi": 73,
                    "time": 228.01963800000252,
                    "velocity": 0.3700787401574803,
                    "duration": 0.21152100000000473
                },
                {
                    "name": "B4",
                    "midi": 71,
                    "time": 228.23115900000252,
                    "velocity": 0.3543307086614173,
                    "duration": 0.21152100000000473
                },
                {
                    "name": "A4",
                    "midi": 69,
                    "time": 228.44268000000253,
                    "velocity": 0.3937007874015748,
                    "duration": 0.21152100000000473
                },
                {
                    "name": "A4",
                    "midi": 69,
                    "time": 228.86572200000253,
                    "velocity": 0.4409448818897638,
                    "duration": 0.42304200000000947
                },
                {
                    "name": "A5",
                    "midi": 81,
                    "time": 228.86572200000253,
                    "velocity": 0.5196850393700787,
                    "duration": 0.42304200000000947
                },
                {
                    "name": "G5",
                    "midi": 79,
                    "time": 229.28876400000254,
                    "velocity": 0.5196850393700787,
                    "duration": 0.42304200000000947
                },
                {
                    "name": "G4",
                    "midi": 67,
                    "time": 229.28876400000254,
                    "velocity": 0.4409448818897638,
                    "duration": 0.42304200000000947
                },
                {
                    "name": "F#4",
                    "midi": 66,
                    "time": 229.71180600000255,
                    "velocity": 0.4330708661417323,
                    "duration": 0.42304200000000947
                },
                {
                    "name": "F#5",
                    "midi": 78,
                    "time": 229.71180600000255,
                    "velocity": 0.5039370078740157,
                    "duration": 0.42304200000000947
                },
                {
                    "name": "E4",
                    "midi": 64,
                    "time": 230.13484800000256,
                    "velocity": 0.44881889763779526,
                    "duration": 0.3172815000000071
                },
                {
                    "name": "E5",
                    "midi": 76,
                    "time": 230.13484800000256,
                    "velocity": 0.5511811023622047,
                    "duration": 0.3172815000000071
                },
                {
                    "name": "B5",
                    "midi": 83,
                    "time": 230.45212950000257,
                    "velocity": 0.4566929133858268,
                    "duration": 0.10576050000000237
                },
                {
                    "name": "A5",
                    "midi": 81,
                    "time": 230.55789000000257,
                    "velocity": 0.5196850393700787,
                    "duration": 0.10576050000000237
                },
                {
                    "name": "G5",
                    "midi": 79,
                    "time": 230.66365050000257,
                    "velocity": 0.49606299212598426,
                    "duration": 0.10576050000000237
                },
                {
                    "name": "F#5",
                    "midi": 78,
                    "time": 230.76941100000258,
                    "velocity": 0.49606299212598426,
                    "duration": 0.10576050000000237
                },
                {
                    "name": "E5",
                    "midi": 76,
                    "time": 230.87517150000258,
                    "velocity": 0.49606299212598426,
                    "duration": 0.10576050000000237
                },
                {
                    "name": "D5",
                    "midi": 74,
                    "time": 230.98093200000258,
                    "velocity": 0.5433070866141733,
                    "duration": 0.42304200000000947
                },
                {
                    "name": "E5",
                    "midi": 76,
                    "time": 231.4039740000026,
                    "velocity": 0.47244094488188976,
                    "duration": 0.05288024999998697
                },
                {
                    "name": "F#5",
                    "midi": 78,
                    "time": 231.45685425000258,
                    "velocity": 0.41732283464566927,
                    "duration": 0.05288024999998697
                },
                {
                    "name": "E5",
                    "midi": 76,
                    "time": 231.50973450000257,
                    "velocity": 0.48031496062992124,
                    "duration": 0.05288024999998697
                },
                {
                    "name": "F#5",
                    "midi": 78,
                    "time": 231.56261475000255,
                    "velocity": 0.4330708661417323,
                    "duration": 0.05288024999998697
                },
                {
                    "name": "E5",
                    "midi": 76,
                    "time": 231.61549500000254,
                    "velocity": 0.48031496062992124,
                    "duration": 0.0705069999999921
                },
                {
                    "name": "D5",
                    "midi": 74,
                    "time": 231.68600200000253,
                    "velocity": 0.4094488188976378,
                    "duration": 0.0705069999999921
                },
                {
                    "name": "E5",
                    "midi": 76,
                    "time": 231.75650900000252,
                    "velocity": 0.4094488188976378,
                    "duration": 0.0705069999999921
                },
                {
                    "name": "A4",
                    "midi": 69,
                    "time": 231.82701600000252,
                    "velocity": 0.4881889763779528,
                    "duration": 0.42304200000000947
                },
                {
                    "name": "D5",
                    "midi": 74,
                    "time": 231.82701600000252,
                    "velocity": 0.5826771653543307,
                    "duration": 0.42304200000000947
                },
                {
                    "name": "F#4",
                    "midi": 66,
                    "time": 231.82701600000252,
                    "velocity": 0.4881889763779528,
                    "duration": 0.42304200000000947
                },
                {
                    "name": "G5",
                    "midi": 79,
                    "time": 232.67310000000253,
                    "velocity": 0.5196850393700787,
                    "duration": 0.11633654999999976
                },
                {
                    "name": "F#5",
                    "midi": 78,
                    "time": 232.77886050000254,
                    "velocity": 0.4330708661417323,
                    "duration": 0.11633654999999976
                },
                {
                    "name": "E5",
                    "midi": 76,
                    "time": 232.88462100000254,
                    "velocity": 0.4251968503937008,
                    "duration": 0.11633654999999976
                },
                {
                    "name": "F#5",
                    "midi": 78,
                    "time": 232.99038150000254,
                    "velocity": 0.4251968503937008,
                    "duration": 0.11633654999999976
                },
                {
                    "name": "A5",
                    "midi": 81,
                    "time": 233.09614200000254,
                    "velocity": 0.5118110236220472,
                    "duration": 0.11633654999999976
                },
                {
                    "name": "G5",
                    "midi": 79,
                    "time": 233.20190250000255,
                    "velocity": 0.4330708661417323,
                    "duration": 0.11633654999999976
                },
                {
                    "name": "F#5",
                    "midi": 78,
                    "time": 233.30766300000255,
                    "velocity": 0.4330708661417323,
                    "duration": 0.11633654999999976
                },
                {
                    "name": "G5",
                    "midi": 79,
                    "time": 233.41342350000255,
                    "velocity": 0.4330708661417323,
                    "duration": 0.11633654999999976
                },
                {
                    "name": "A5",
                    "midi": 81,
                    "time": 233.51918400000255,
                    "velocity": 0.4881889763779528,
                    "duration": 0.42304200000000947
                },
                {
                    "name": "A5",
                    "midi": 81,
                    "time": 234.36526800000257,
                    "velocity": 0.3937007874015748,
                    "duration": 0.05288024999998697
                },
                {
                    "name": "B5",
                    "midi": 83,
                    "time": 234.57678900000255,
                    "velocity": 0.3543307086614173,
                    "duration": 0.05288024999998697
                },
                {
                    "name": "C#6",
                    "midi": 85,
                    "time": 234.78831000000253,
                    "velocity": 0.3543307086614173,
                    "duration": 0.05288024999998697
                },
                {
                    "name": "D6",
                    "midi": 86,
                    "time": 234.9998310000025,
                    "velocity": 0.3543307086614173,
                    "duration": 0.05288024999998697
                },
                {
                    "name": "A5",
                    "midi": 81,
                    "time": 235.21135200000248,
                    "velocity": 0.4251968503937008,
                    "duration": 0.42304200000000947
                },
                {
                    "name": "F#5",
                    "midi": 78,
                    "time": 235.6343940000025,
                    "velocity": 0.3543307086614173,
                    "duration": 0.42304200000000947
                },
                {
                    "name": "A5",
                    "midi": 81,
                    "time": 236.0574360000025,
                    "velocity": 0.3937007874015748,
                    "duration": 0.10576050000000237
                },
                {
                    "name": "G5",
                    "midi": 79,
                    "time": 236.1631965000025,
                    "velocity": 0.3464566929133858,
                    "duration": 0.10576050000000237
                },
                {
                    "name": "F#5",
                    "midi": 78,
                    "time": 236.2689570000025,
                    "velocity": 0.3464566929133858,
                    "duration": 0.10576050000000237
                },
                {
                    "name": "G5",
                    "midi": 79,
                    "time": 236.3747175000025,
                    "velocity": 0.3464566929133858,
                    "duration": 0.10576050000000237
                },
                {
                    "name": "A5",
                    "midi": 81,
                    "time": 236.4804780000025,
                    "velocity": 0.3858267716535433,
                    "duration": 0.05288024999998697
                },
                {
                    "name": "G5",
                    "midi": 79,
                    "time": 236.69199900000248,
                    "velocity": 0.36220472440944884,
                    "duration": 0.05288024999998697
                },
                {
                    "name": "F5",
                    "midi": 77,
                    "time": 236.90352000000246,
                    "velocity": 0.4251968503937008,
                    "duration": 0.21152100000000473
                },
                {
                    "name": "F#5",
                    "midi": 78,
                    "time": 237.11504100000246,
                    "velocity": 0.3543307086614173,
                    "duration": 0.21152100000000473
                },
                {
                    "name": "G5",
                    "midi": 79,
                    "time": 237.74960400000248,
                    "velocity": 0.5196850393700787,
                    "duration": 0.11633654999999976
                },
                {
                    "name": "F#5",
                    "midi": 78,
                    "time": 237.85536450000248,
                    "velocity": 0.4330708661417323,
                    "duration": 0.11633654999999976
                },
                {
                    "name": "E5",
                    "midi": 76,
                    "time": 237.96112500000248,
                    "velocity": 0.4251968503937008,
                    "duration": 0.11633654999999976
                },
                {
                    "name": "F#5",
                    "midi": 78,
                    "time": 238.06688550000248,
                    "velocity": 0.4251968503937008,
                    "duration": 0.11633654999999976
                },
                {
                    "name": "A5",
                    "midi": 81,
                    "time": 238.1726460000025,
                    "velocity": 0.5118110236220472,
                    "duration": 0.11633654999999976
                },
                {
                    "name": "G5",
                    "midi": 79,
                    "time": 238.2784065000025,
                    "velocity": 0.4330708661417323,
                    "duration": 0.11633654999999976
                },
                {
                    "name": "F#5",
                    "midi": 78,
                    "time": 238.3841670000025,
                    "velocity": 0.4330708661417323,
                    "duration": 0.11633654999999976
                },
                {
                    "name": "G5",
                    "midi": 79,
                    "time": 238.4899275000025,
                    "velocity": 0.4330708661417323,
                    "duration": 0.11633654999999976
                },
                {
                    "name": "A5",
                    "midi": 81,
                    "time": 238.5956880000025,
                    "velocity": 0.4881889763779528,
                    "duration": 0.42304200000000947
                },
                {
                    "name": "A5",
                    "midi": 81,
                    "time": 239.44177200000252,
                    "velocity": 0.3937007874015748,
                    "duration": 0.05288024999998697
                },
                {
                    "name": "B5",
                    "midi": 83,
                    "time": 239.6532930000025,
                    "velocity": 0.3543307086614173,
                    "duration": 0.05288024999998697
                },
                {
                    "name": "C#6",
                    "midi": 85,
                    "time": 239.86481400000247,
                    "velocity": 0.3543307086614173,
                    "duration": 0.05288024999998697
                },
                {
                    "name": "D6",
                    "midi": 86,
                    "time": 240.07633500000244,
                    "velocity": 0.3543307086614173,
                    "duration": 0.05288024999998697
                },
                {
                    "name": "A5",
                    "midi": 81,
                    "time": 240.28785600000242,
                    "velocity": 0.4251968503937008,
                    "duration": 0.42304200000000947
                },
                {
                    "name": "F#5",
                    "midi": 78,
                    "time": 240.71089800000243,
                    "velocity": 0.3543307086614173,
                    "duration": 0.42304200000000947
                },
                {
                    "name": "A5",
                    "midi": 81,
                    "time": 241.13394000000244,
                    "velocity": 0.3937007874015748,
                    "duration": 0.10576050000000237
                },
                {
                    "name": "G5",
                    "midi": 79,
                    "time": 241.23970050000244,
                    "velocity": 0.3464566929133858,
                    "duration": 0.10576050000000237
                },
                {
                    "name": "F#5",
                    "midi": 78,
                    "time": 241.34546100000244,
                    "velocity": 0.3464566929133858,
                    "duration": 0.10576050000000237
                },
                {
                    "name": "G5",
                    "midi": 79,
                    "time": 241.45122150000245,
                    "velocity": 0.3464566929133858,
                    "duration": 0.10576050000000237
                },
                {
                    "name": "A5",
                    "midi": 81,
                    "time": 241.55698200000245,
                    "velocity": 0.3937007874015748,
                    "duration": 0.10576050000000237
                },
                {
                    "name": "G5",
                    "midi": 79,
                    "time": 241.66274250000245,
                    "velocity": 0.3464566929133858,
                    "duration": 0.10576050000000237
                },
                {
                    "name": "F#5",
                    "midi": 78,
                    "time": 241.76850300000245,
                    "velocity": 0.3464566929133858,
                    "duration": 0.10576050000000237
                },
                {
                    "name": "E5",
                    "midi": 76,
                    "time": 241.87426350000246,
                    "velocity": 0.3464566929133858,
                    "duration": 0.10576050000000237
                },
                {
                    "name": "D5",
                    "midi": 74,
                    "time": 241.98002400000246,
                    "velocity": 0.3543307086614173,
                    "duration": 0.10576050000000237
                },
                {
                    "name": "E5",
                    "midi": 76,
                    "time": 242.08578450000246,
                    "velocity": 0.36220472440944884,
                    "duration": 0.10576050000000237
                },
                {
                    "name": "F#5",
                    "midi": 78,
                    "time": 242.19154500000246,
                    "velocity": 0.3779527559055118,
                    "duration": 0.10576050000000237
                },
                {
                    "name": "G5",
                    "midi": 79,
                    "time": 242.29730550000247,
                    "velocity": 0.3858267716535433,
                    "duration": 0.10576050000000237
                },
                {
                    "name": "A5",
                    "midi": 81,
                    "time": 242.40306600000247,
                    "velocity": 0.3937007874015748,
                    "duration": 0.10576050000000237
                },
                {
                    "name": "B5",
                    "midi": 83,
                    "time": 242.50882650000247,
                    "velocity": 0.4015748031496063,
                    "duration": 0.10576050000000237
                },
                {
                    "name": "C#6",
                    "midi": 85,
                    "time": 242.61458700000247,
                    "velocity": 0.41732283464566927,
                    "duration": 0.10576050000000237
                },
                {
                    "name": "D6",
                    "midi": 86,
                    "time": 242.72034750000248,
                    "velocity": 0.4251968503937008,
                    "duration": 0.09694712500001401
                },
                {
                    "name": "D6",
                    "midi": 86,
                    "time": 242.82610800000248,
                    "velocity": 0.4566929133858268,
                    "duration": 0.42304200000000947
                },
                {
                    "name": "B5",
                    "midi": 83,
                    "time": 243.2491500000025,
                    "velocity": 0.3858267716535433,
                    "duration": 0.10576050000000237
                },
                {
                    "name": "G5",
                    "midi": 79,
                    "time": 243.5664315000025,
                    "velocity": 0.4251968503937008,
                    "duration": 0.10576050000000237
                },
                {
                    "name": "F#5",
                    "midi": 78,
                    "time": 243.6721920000025,
                    "velocity": 0.4645669291338583,
                    "duration": 0.42304200000000947
                },
                {
                    "name": "A5",
                    "midi": 81,
                    "time": 244.0952340000025,
                    "velocity": 0.4251968503937008,
                    "duration": 0.21152100000000473
                },
                {
                    "name": "D5",
                    "midi": 74,
                    "time": 244.4125155000025,
                    "velocity": 0.4251968503937008,
                    "duration": 0.10576050000000237
                },
                {
                    "name": "E5",
                    "midi": 76,
                    "time": 244.51827600000252,
                    "velocity": 0.4645669291338583,
                    "duration": 0.42304200000000947
                },
                {
                    "name": "G5",
                    "midi": 79,
                    "time": 244.94131800000252,
                    "velocity": 0.4251968503937008,
                    "duration": 0.21152100000000473
                },
                {
                    "name": "C#5",
                    "midi": 73,
                    "time": 245.25859950000253,
                    "velocity": 0.4251968503937008,
                    "duration": 0.10576050000000237
                },
                {
                    "name": "D5",
                    "midi": 74,
                    "time": 245.36436000000253,
                    "velocity": 0.41732283464566927,
                    "duration": 0.10576050000000237
                },
                {
                    "name": "E5",
                    "midi": 76,
                    "time": 245.47012050000254,
                    "velocity": 0.41732283464566927,
                    "duration": 0.10576050000000237
                },
                {
                    "name": "F#5",
                    "midi": 78,
                    "time": 245.57588100000254,
                    "velocity": 0.4251968503937008,
                    "duration": 0.10576050000000237
                },
                {
                    "name": "G5",
                    "midi": 79,
                    "time": 245.68164150000254,
                    "velocity": 0.4330708661417323,
                    "duration": 0.10576050000000237
                },
                {
                    "name": "A5",
                    "midi": 81,
                    "time": 245.78740200000254,
                    "velocity": 0.4409448818897638,
                    "duration": 0.10576050000000237
                },
                {
                    "name": "B5",
                    "midi": 83,
                    "time": 245.89316250000255,
                    "velocity": 0.4409448818897638,
                    "duration": 0.10576050000000237
                },
                {
                    "name": "C#6",
                    "midi": 85,
                    "time": 245.99892300000255,
                    "velocity": 0.44881889763779526,
                    "duration": 0.10576050000000237
                },
                {
                    "name": "D6",
                    "midi": 86,
                    "time": 246.10468350000255,
                    "velocity": 0.47244094488188976,
                    "duration": 0.10576050000000237
                },
                {
                    "name": "E6",
                    "midi": 88,
                    "time": 246.21044400000255,
                    "velocity": 0.49606299212598426,
                    "duration": 0.10576050000000237
                },
                {
                    "name": "D6",
                    "midi": 86,
                    "time": 246.31620450000256,
                    "velocity": 0.4330708661417323,
                    "duration": 0.10576050000000237
                },
                {
                    "name": "C#6",
                    "midi": 85,
                    "time": 246.42196500000256,
                    "velocity": 0.4330708661417323,
                    "duration": 0.10576050000000237
                },
                {
                    "name": "D6",
                    "midi": 86,
                    "time": 246.52772550000256,
                    "velocity": 0.4330708661417323,
                    "duration": 0.10576050000000237
                },
                {
                    "name": "C#6",
                    "midi": 85,
                    "time": 246.63348600000256,
                    "velocity": 0.49606299212598426,
                    "duration": 0.10576050000000237
                },
                {
                    "name": "B5",
                    "midi": 83,
                    "time": 246.73924650000257,
                    "velocity": 0.4015748031496063,
                    "duration": 0.10576050000000237
                },
                {
                    "name": "A5",
                    "midi": 81,
                    "time": 246.84500700000257,
                    "velocity": 0.4251968503937008,
                    "duration": 0.10576050000000237
                },
                {
                    "name": "G5",
                    "midi": 79,
                    "time": 246.95076750000257,
                    "velocity": 0.4251968503937008,
                    "duration": 0.10576050000000237
                },
                {
                    "name": "F#5",
                    "midi": 78,
                    "time": 247.05652800000257,
                    "velocity": 0.48031496062992124,
                    "duration": 0.10576050000000237
                },
                {
                    "name": "G5",
                    "midi": 79,
                    "time": 247.16228850000257,
                    "velocity": 0.4015748031496063,
                    "duration": 0.10576050000000237
                },
                {
                    "name": "G#5",
                    "midi": 80,
                    "time": 247.26804900000258,
                    "velocity": 0.4251968503937008,
                    "duration": 0.10576050000000237
                },
                {
                    "name": "A5",
                    "midi": 81,
                    "time": 247.37380950000258,
                    "velocity": 0.4251968503937008,
                    "duration": 0.10576050000000237
                },
                {
                    "name": "G5",
                    "midi": 79,
                    "time": 247.47957000000258,
                    "velocity": 0.4566929133858268,
                    "duration": 0.10576050000000237
                },
                {
                    "name": "F#5",
                    "midi": 78,
                    "time": 247.58533050000258,
                    "velocity": 0.4015748031496063,
                    "duration": 0.10576050000000237
                },
                {
                    "name": "E5",
                    "midi": 76,
                    "time": 247.6910910000026,
                    "velocity": 0.4251968503937008,
                    "duration": 0.10576050000000237
                },
                {
                    "name": "D5",
                    "midi": 74,
                    "time": 247.7968515000026,
                    "velocity": 0.3937007874015748,
                    "duration": 0.10576050000000237
                },
                {
                    "name": "D#5",
                    "midi": 75,
                    "time": 247.9026120000026,
                    "velocity": 0.4645669291338583,
                    "duration": 0.10576050000000237
                },
                {
                    "name": "E5",
                    "midi": 76,
                    "time": 248.0083725000026,
                    "velocity": 0.4015748031496063,
                    "duration": 0.10576050000000237
                },
                {
                    "name": "F#5",
                    "midi": 78,
                    "time": 248.1141330000026,
                    "velocity": 0.4251968503937008,
                    "duration": 0.10576050000000237
                },
                {
                    "name": "G5",
                    "midi": 79,
                    "time": 248.2198935000026,
                    "velocity": 0.4251968503937008,
                    "duration": 0.10576050000000237
                },
                {
                    "name": "F#5",
                    "midi": 78,
                    "time": 248.3256540000026,
                    "velocity": 0.44881889763779526,
                    "duration": 0.10576050000000237
                },
                {
                    "name": "E5",
                    "midi": 76,
                    "time": 248.4314145000026,
                    "velocity": 0.41732283464566927,
                    "duration": 0.10576050000000237
                },
                {
                    "name": "D5",
                    "midi": 74,
                    "time": 248.5371750000026,
                    "velocity": 0.4409448818897638,
                    "duration": 0.10576050000000237
                },
                {
                    "name": "C#5",
                    "midi": 73,
                    "time": 248.6429355000026,
                    "velocity": 0.4251968503937008,
                    "duration": 0.10576050000000237
                },
                {
                    "name": "D5",
                    "midi": 74,
                    "time": 248.7486960000026,
                    "velocity": 0.5196850393700787,
                    "duration": 0.10576050000000237
                },
                {
                    "name": "A4",
                    "midi": 69,
                    "time": 248.8544565000026,
                    "velocity": 0.4645669291338583,
                    "duration": 0.10576050000000237
                },
                {
                    "name": "D5",
                    "midi": 74,
                    "time": 248.96021700000261,
                    "velocity": 0.5196850393700787,
                    "duration": 0.10576050000000237
                },
                {
                    "name": "F#5",
                    "midi": 78,
                    "time": 249.06597750000262,
                    "velocity": 0.4566929133858268,
                    "duration": 0.10576050000000237
                },
                {
                    "name": "A5",
                    "midi": 81,
                    "time": 249.17173800000262,
                    "velocity": 0.5196850393700787,
                    "duration": 0.10576050000000237
                },
                {
                    "name": "F#5",
                    "midi": 78,
                    "time": 249.27749850000262,
                    "velocity": 0.47244094488188976,
                    "duration": 0.10576050000000237
                },
                {
                    "name": "G5",
                    "midi": 79,
                    "time": 249.38325900000262,
                    "velocity": 0.5196850393700787,
                    "duration": 0.10576050000000237
                },
                {
                    "name": "E5",
                    "midi": 76,
                    "time": 249.48901950000263,
                    "velocity": 0.4645669291338583,
                    "duration": 0.10576050000000237
                },
                {
                    "name": "D5",
                    "midi": 74,
                    "time": 249.59478000000263,
                    "velocity": 0.5196850393700787,
                    "duration": 0.10576050000000237
                },
                {
                    "name": "A4",
                    "midi": 69,
                    "time": 249.70054050000263,
                    "velocity": 0.4645669291338583,
                    "duration": 0.10576050000000237
                },
                {
                    "name": "D5",
                    "midi": 74,
                    "time": 249.80630100000263,
                    "velocity": 0.5196850393700787,
                    "duration": 0.10576050000000237
                },
                {
                    "name": "F#5",
                    "midi": 78,
                    "time": 249.91206150000264,
                    "velocity": 0.4566929133858268,
                    "duration": 0.10576050000000237
                },
                {
                    "name": "A5",
                    "midi": 81,
                    "time": 250.01782200000264,
                    "velocity": 0.5196850393700787,
                    "duration": 0.10576050000000237
                },
                {
                    "name": "F#5",
                    "midi": 78,
                    "time": 250.12358250000264,
                    "velocity": 0.47244094488188976,
                    "duration": 0.10576050000000237
                },
                {
                    "name": "G5",
                    "midi": 79,
                    "time": 250.22934300000264,
                    "velocity": 0.5196850393700787,
                    "duration": 0.10576050000000237
                },
                {
                    "name": "E5",
                    "midi": 76,
                    "time": 250.33510350000265,
                    "velocity": 0.4645669291338583,
                    "duration": 0.10576050000000237
                },
                {
                    "name": "D5",
                    "midi": 74,
                    "time": 250.44086400000265,
                    "velocity": 0.5905511811023622,
                    "duration": 0.21152100000000473
                },
                {
                    "name": "C#6",
                    "midi": 85,
                    "time": 250.86390600000266,
                    "velocity": 0.5905511811023622,
                    "duration": 0.21152100000000473
                },
                {
                    "name": "G5",
                    "midi": 79,
                    "time": 250.86390600000266,
                    "velocity": 0.5039370078740157,
                    "duration": 0.21152100000000473
                },
                {
                    "name": "E5",
                    "midi": 76,
                    "time": 250.86390600000266,
                    "velocity": 0.5039370078740157,
                    "duration": 0.21152100000000473
                },
                {
                    "name": "F#5",
                    "midi": 78,
                    "time": 251.28694800000267,
                    "velocity": 0.5039370078740157,
                    "duration": 0.21152100000000473
                },
                {
                    "name": "D6",
                    "midi": 86,
                    "time": 251.28694800000267,
                    "velocity": 0.5905511811023622,
                    "duration": 0.21152100000000473
                },
                {
                    "name": "D5",
                    "midi": 74,
                    "time": 251.28694800000267,
                    "velocity": 0.5039370078740157,
                    "duration": 0.21152100000000473
                },
                {
                    "name": "G5",
                    "midi": 79,
                    "time": 252.1330320000027,
                    "velocity": 0.3700787401574803,
                    "duration": 0.21152100000000473
                },
                {
                    "name": "B4",
                    "midi": 71,
                    "time": 252.1330320000027,
                    "velocity": 0.30708661417322836,
                    "duration": 0.21152100000000473
                },
                {
                    "name": "A4",
                    "midi": 69,
                    "time": 252.3445530000027,
                    "velocity": 0.28346456692913385,
                    "duration": 0.10576050000000237
                },
                {
                    "name": "F#5",
                    "midi": 78,
                    "time": 252.3445530000027,
                    "velocity": 0.33858267716535434,
                    "duration": 0.10576050000000237
                },
                {
                    "name": "A4",
                    "midi": 69,
                    "time": 252.5560740000027,
                    "velocity": 0.30708661417322836,
                    "duration": 0.21152100000000473
                },
                {
                    "name": "F#5",
                    "midi": 78,
                    "time": 252.5560740000027,
                    "velocity": 0.3700787401574803,
                    "duration": 0.21152100000000473
                },
                {
                    "name": "E5",
                    "midi": 76,
                    "time": 252.7675950000027,
                    "velocity": 0.33070866141732286,
                    "duration": 0.10576050000000237
                },
                {
                    "name": "G4",
                    "midi": 67,
                    "time": 252.7675950000027,
                    "velocity": 0.2755905511811024,
                    "duration": 0.10576050000000237
                },
                {
                    "name": "E5",
                    "midi": 76,
                    "time": 252.9791160000027,
                    "velocity": 0.3700787401574803,
                    "duration": 0.21152100000000473
                },
                {
                    "name": "G4",
                    "midi": 67,
                    "time": 252.9791160000027,
                    "velocity": 0.30708661417322836,
                    "duration": 0.21152100000000473
                },
                {
                    "name": "D5",
                    "midi": 74,
                    "time": 253.1906370000027,
                    "velocity": 0.3228346456692913,
                    "duration": 0.10576050000000237
                },
                {
                    "name": "F#4",
                    "midi": 66,
                    "time": 253.1906370000027,
                    "velocity": 0.2677165354330709,
                    "duration": 0.10576050000000237
                },
                {
                    "name": "F#4",
                    "midi": 66,
                    "time": 253.40215800000271,
                    "velocity": 0.30708661417322836,
                    "duration": 0.21152100000000473
                },
                {
                    "name": "D5",
                    "midi": 74,
                    "time": 253.40215800000271,
                    "velocity": 0.3700787401574803,
                    "duration": 0.21152100000000473
                },
                {
                    "name": "E4",
                    "midi": 64,
                    "time": 253.61367900000272,
                    "velocity": 0.2677165354330709,
                    "duration": 0.10576050000000237
                },
                {
                    "name": "C#5",
                    "midi": 73,
                    "time": 253.61367900000272,
                    "velocity": 0.3228346456692913,
                    "duration": 0.10576050000000237
                },
                {
                    "name": "G4",
                    "midi": 67,
                    "time": 253.82520000000272,
                    "velocity": 0.3543307086614173,
                    "duration": 0.8460839999999905
                },
                {
                    "name": "C#5",
                    "midi": 73,
                    "time": 253.82520000000272,
                    "velocity": 0.4251968503937008,
                    "duration": 0.8460839999999905
                },
                {
                    "name": "E4",
                    "midi": 64,
                    "time": 253.82520000000272,
                    "velocity": 0.29133858267716534,
                    "duration": 0.8460839999999905
                },
                {
                    "name": "F#4",
                    "midi": 66,
                    "time": 254.67128400000271,
                    "velocity": 0.2755905511811024,
                    "duration": 0.42304200000000947
                },
                {
                    "name": "D5",
                    "midi": 74,
                    "time": 254.67128400000271,
                    "velocity": 0.33070866141732286,
                    "duration": 0.42304200000000947
                }
            ],
            "controlChanges": {
                "7": [
                    {
                        "number": 7,
                        "time": 0,
                        "value": 0.7874015748031497
                    }
                ],
                "10": [
                    {
                        "number": 10,
                        "time": 0,
                        "value": 0.5039370078740157
                    }
                ],
                "91": [
                    {
                        "number": 91,
                        "time": 0,
                        "value": 1
                    },
                    {
                        "number": 91,
                        "time": 65.99455200000038,
                        "value": 1
                    },
                    {
                        "number": 91,
                        "time": 231.82701600000252,
                        "value": 1
                    }
                ]
            },
            "id": 1,
            "name": "Piano right",
            "instrumentNumber": 0,
            "instrument": "acoustic grand piano",
            "instrumentFamily": "piano",
            "channelNumber": 0,
            "isPercussion": false
        },
        {
            "startTime": 0,
            "duration": 255.0943260000035,
            "length": 1453,
            "notes": [
                {
                    "name": "A2",
                    "midi": 45,
                    "time": 0,
                    "velocity": 0.44881889763779526,
                    "duration": 0.42304200000000003
                },
                {
                    "name": "D2",
                    "midi": 38,
                    "time": 0,
                    "velocity": 0.44881889763779526,
                    "duration": 0.42304200000000003
                },
                {
                    "name": "D3",
                    "midi": 50,
                    "time": 0,
                    "velocity": 0.5433070866141733,
                    "duration": 0.42304200000000003
                },
                {
                    "name": "F#4",
                    "midi": 66,
                    "time": 0.8460840000000001,
                    "velocity": 0.3543307086614173,
                    "duration": 0.4230419999999999
                },
                {
                    "name": "D4",
                    "midi": 62,
                    "time": 0.8460840000000001,
                    "velocity": 0.29133858267716534,
                    "duration": 0.4230419999999999
                },
                {
                    "name": "E4",
                    "midi": 64,
                    "time": 1.269126,
                    "velocity": 0.29133858267716534,
                    "duration": 0.42304200000000014
                },
                {
                    "name": "G4",
                    "midi": 67,
                    "time": 1.269126,
                    "velocity": 0.3543307086614173,
                    "duration": 0.42304200000000014
                },
                {
                    "name": "A4",
                    "midi": 69,
                    "time": 1.6921680000000001,
                    "velocity": 0.3543307086614173,
                    "duration": 0.42304200000000014
                },
                {
                    "name": "F#4",
                    "midi": 66,
                    "time": 1.6921680000000001,
                    "velocity": 0.29133858267716534,
                    "duration": 0.42304200000000014
                },
                {
                    "name": "F#3",
                    "midi": 54,
                    "time": 3.3843360000000002,
                    "velocity": 0.2992125984251969,
                    "duration": 0.21152099999999985
                },
                {
                    "name": "D4",
                    "midi": 62,
                    "time": 3.595857,
                    "velocity": 0.25196850393700787,
                    "duration": 0.21152099999999985
                },
                {
                    "name": "D3",
                    "midi": 50,
                    "time": 3.807378,
                    "velocity": 0.2992125984251969,
                    "duration": 0.2115210000000003
                },
                {
                    "name": "D4",
                    "midi": 62,
                    "time": 4.018899,
                    "velocity": 0.25984251968503935,
                    "duration": 0.2115210000000003
                },
                {
                    "name": "E3",
                    "midi": 52,
                    "time": 4.2304200000000005,
                    "velocity": 0.29133858267716534,
                    "duration": 0.2115210000000003
                },
                {
                    "name": "D4",
                    "midi": 62,
                    "time": 4.441941000000001,
                    "velocity": 0.25196850393700787,
                    "duration": 0.2115210000000003
                },
                {
                    "name": "A3",
                    "midi": 57,
                    "time": 4.653462000000001,
                    "velocity": 0.29133858267716534,
                    "duration": 0.052880250000000295
                },
                {
                    "name": "C#4",
                    "midi": 61,
                    "time": 4.864983000000001,
                    "velocity": 0.23622047244094488,
                    "duration": 0.052880250000000295
                },
                {
                    "name": "D3",
                    "midi": 50,
                    "time": 5.076504000000002,
                    "velocity": 0.33070866141732286,
                    "duration": 0.4230419999999997
                },
                {
                    "name": "D4",
                    "midi": 62,
                    "time": 5.076504000000002,
                    "velocity": 0.33070866141732286,
                    "duration": 0.4230419999999997
                },
                {
                    "name": "D4",
                    "midi": 62,
                    "time": 5.922588000000001,
                    "velocity": 0.29133858267716534,
                    "duration": 0.4230419999999997
                },
                {
                    "name": "F#4",
                    "midi": 66,
                    "time": 5.922588000000001,
                    "velocity": 0.3543307086614173,
                    "duration": 0.4230419999999997
                },
                {
                    "name": "E4",
                    "midi": 64,
                    "time": 6.345630000000001,
                    "velocity": 0.29133858267716534,
                    "duration": 0.4230419999999997
                },
                {
                    "name": "G4",
                    "midi": 67,
                    "time": 6.345630000000001,
                    "velocity": 0.3543307086614173,
                    "duration": 0.4230419999999997
                },
                {
                    "name": "F#4",
                    "midi": 66,
                    "time": 6.7686720000000005,
                    "velocity": 0.29133858267716534,
                    "duration": 0.4230419999999997
                },
                {
                    "name": "A4",
                    "midi": 69,
                    "time": 6.7686720000000005,
                    "velocity": 0.3543307086614173,
                    "duration": 0.4230419999999997
                },
                {
                    "name": "F#3",
                    "midi": 54,
                    "time": 8.460840000000001,
                    "velocity": 0.2992125984251969,
                    "duration": 0.2115209999999994
                },
                {
                    "name": "D4",
                    "midi": 62,
                    "time": 8.672361,
                    "velocity": 0.25196850393700787,
                    "duration": 0.2115209999999994
                },
                {
                    "name": "D3",
                    "midi": 50,
                    "time": 8.883882,
                    "velocity": 0.2992125984251969,
                    "duration": 0.2115209999999994
                },
                {
                    "name": "D4",
                    "midi": 62,
                    "time": 9.095403,
                    "velocity": 0.25984251968503935,
                    "duration": 0.2115209999999994
                },
                {
                    "name": "E3",
                    "midi": 52,
                    "time": 9.306923999999999,
                    "velocity": 0.29133858267716534,
                    "duration": 0.2115209999999994
                },
                {
                    "name": "D4",
                    "midi": 62,
                    "time": 9.518444999999998,
                    "velocity": 0.25196850393700787,
                    "duration": 0.2115209999999994
                },
                {
                    "name": "A3",
                    "midi": 57,
                    "time": 9.729965999999997,
                    "velocity": 0.29133858267716534,
                    "duration": 0.2115209999999994
                },
                {
                    "name": "C#4",
                    "midi": 61,
                    "time": 9.941486999999997,
                    "velocity": 0.25196850393700787,
                    "duration": 0.2115209999999994
                },
                {
                    "name": "D4",
                    "midi": 62,
                    "time": 10.153007999999996,
                    "velocity": 0.29133858267716534,
                    "duration": 0.10576050000000059
                },
                {
                    "name": "F#4",
                    "midi": 66,
                    "time": 10.364528999999997,
                    "velocity": 0.2047244094488189,
                    "duration": 0.10576050000000059
                },
                {
                    "name": "D4",
                    "midi": 62,
                    "time": 10.576049999999999,
                    "velocity": 0.2755905511811024,
                    "duration": 0.10576050000000059
                },
                {
                    "name": "F#4",
                    "midi": 66,
                    "time": 10.787571,
                    "velocity": 0.2204724409448819,
                    "duration": 0.10576050000000059
                },
                {
                    "name": "D4",
                    "midi": 62,
                    "time": 10.999092000000001,
                    "velocity": 0.28346456692913385,
                    "duration": 0.10576050000000059
                },
                {
                    "name": "F#4",
                    "midi": 66,
                    "time": 11.210613000000002,
                    "velocity": 0.2047244094488189,
                    "duration": 0.10576050000000059
                },
                {
                    "name": "D4",
                    "midi": 62,
                    "time": 11.422134000000003,
                    "velocity": 0.2755905511811024,
                    "duration": 0.10576050000000059
                },
                {
                    "name": "F#4",
                    "midi": 66,
                    "time": 11.633655000000005,
                    "velocity": 0.23622047244094488,
                    "duration": 0.10576050000000059
                },
                {
                    "name": "E4",
                    "midi": 64,
                    "time": 11.845176000000006,
                    "velocity": 0.29133858267716534,
                    "duration": 0.10576050000000059
                },
                {
                    "name": "G4",
                    "midi": 67,
                    "time": 12.056697000000007,
                    "velocity": 0.2283464566929134,
                    "duration": 0.10576050000000059
                },
                {
                    "name": "E4",
                    "midi": 64,
                    "time": 12.268218000000008,
                    "velocity": 0.29133858267716534,
                    "duration": 0.10576050000000059
                },
                {
                    "name": "G4",
                    "midi": 67,
                    "time": 12.47973900000001,
                    "velocity": 0.2283464566929134,
                    "duration": 0.10576050000000059
                },
                {
                    "name": "E4",
                    "midi": 64,
                    "time": 12.69126000000001,
                    "velocity": 0.33858267716535434,
                    "duration": 0.11633654999999976
                },
                {
                    "name": "F#4",
                    "midi": 66,
                    "time": 12.797020500000011,
                    "velocity": 0.2992125984251969,
                    "duration": 0.11633654999999798
                },
                {
                    "name": "G4",
                    "midi": 67,
                    "time": 12.90278100000001,
                    "velocity": 0.2992125984251969,
                    "duration": 0.11633654999999798
                },
                {
                    "name": "F#4",
                    "midi": 66,
                    "time": 13.008541500000009,
                    "velocity": 0.2992125984251969,
                    "duration": 0.11633654999999798
                },
                {
                    "name": "E4",
                    "midi": 64,
                    "time": 13.114302000000007,
                    "velocity": 0.2992125984251969,
                    "duration": 0.11633654999999798
                },
                {
                    "name": "D4",
                    "midi": 62,
                    "time": 13.220062500000006,
                    "velocity": 0.31496062992125984,
                    "duration": 0.11633654999999798
                },
                {
                    "name": "C#4",
                    "midi": 61,
                    "time": 13.325823000000005,
                    "velocity": 0.31496062992125984,
                    "duration": 0.11633654999999798
                },
                {
                    "name": "B3",
                    "midi": 59,
                    "time": 13.431583500000004,
                    "velocity": 0.31496062992125984,
                    "duration": 0.11633654999999798
                },
                {
                    "name": "A3",
                    "midi": 57,
                    "time": 13.537344000000003,
                    "velocity": 0.29133858267716534,
                    "duration": 0.10576049999999881
                },
                {
                    "name": "C#4",
                    "midi": 61,
                    "time": 13.748865000000002,
                    "velocity": 0.2047244094488189,
                    "duration": 0.10576050000000059
                },
                {
                    "name": "A3",
                    "midi": 57,
                    "time": 13.960386000000003,
                    "velocity": 0.2755905511811024,
                    "duration": 0.10576050000000059
                },
                {
                    "name": "C#4",
                    "midi": 61,
                    "time": 14.171907000000004,
                    "velocity": 0.2204724409448819,
                    "duration": 0.10576050000000059
                },
                {
                    "name": "A3",
                    "midi": 57,
                    "time": 14.383428000000006,
                    "velocity": 0.28346456692913385,
                    "duration": 0.10576050000000059
                },
                {
                    "name": "C#4",
                    "midi": 61,
                    "time": 14.594949000000007,
                    "velocity": 0.2047244094488189,
                    "duration": 0.10576050000000059
                },
                {
                    "name": "G3",
                    "midi": 55,
                    "time": 14.806470000000008,
                    "velocity": 0.2755905511811024,
                    "duration": 0.10576050000000059
                },
                {
                    "name": "C#4",
                    "midi": 61,
                    "time": 15.01799100000001,
                    "velocity": 0.23622047244094488,
                    "duration": 0.10576050000000059
                },
                {
                    "name": "F#3",
                    "midi": 54,
                    "time": 15.22951200000001,
                    "velocity": 0.29133858267716534,
                    "duration": 0.10576050000000059
                },
                {
                    "name": "D4",
                    "midi": 62,
                    "time": 15.441033000000012,
                    "velocity": 0.2283464566929134,
                    "duration": 0.10576050000000059
                },
                {
                    "name": "F#3",
                    "midi": 54,
                    "time": 15.652554000000013,
                    "velocity": 0.29133858267716534,
                    "duration": 0.10576050000000059
                },
                {
                    "name": "D4",
                    "midi": 62,
                    "time": 15.864075000000014,
                    "velocity": 0.2283464566929134,
                    "duration": 0.10576050000000059
                },
                {
                    "name": "F#3",
                    "midi": 54,
                    "time": 16.075596000000015,
                    "velocity": 0.33858267716535434,
                    "duration": 0.11633654999999976
                },
                {
                    "name": "D3",
                    "midi": 50,
                    "time": 16.181356500000014,
                    "velocity": 0.28346456692913385,
                    "duration": 0.11633655000000331
                },
                {
                    "name": "E3",
                    "midi": 52,
                    "time": 16.287117000000016,
                    "velocity": 0.29133858267716534,
                    "duration": 0.11633655000000331
                },
                {
                    "name": "F#3",
                    "midi": 54,
                    "time": 16.39287750000002,
                    "velocity": 0.2992125984251969,
                    "duration": 0.11633655000000331
                },
                {
                    "name": "G3",
                    "midi": 55,
                    "time": 16.49863800000002,
                    "velocity": 0.30708661417322836,
                    "duration": 0.11633655000000331
                },
                {
                    "name": "A3",
                    "midi": 57,
                    "time": 16.604398500000023,
                    "velocity": 0.31496062992125984,
                    "duration": 0.11633655000000331
                },
                {
                    "name": "B3",
                    "midi": 59,
                    "time": 16.710159000000026,
                    "velocity": 0.3228346456692913,
                    "duration": 0.11633655000000331
                },
                {
                    "name": "C#4",
                    "midi": 61,
                    "time": 16.815919500000028,
                    "velocity": 0.33070866141732286,
                    "duration": 0.11633655000000331
                },
                {
                    "name": "D4",
                    "midi": 62,
                    "time": 16.92168000000003,
                    "velocity": 0.3464566929133858,
                    "duration": 0.42304200000000236
                },
                {
                    "name": "A3",
                    "midi": 57,
                    "time": 17.979285000000033,
                    "velocity": 0.29133858267716534,
                    "duration": 0.10576049999999881
                },
                {
                    "name": "F#3",
                    "midi": 54,
                    "time": 17.979285000000033,
                    "velocity": 0.2440944881889764,
                    "duration": 0.10576049999999881
                },
                {
                    "name": "F#3",
                    "midi": 54,
                    "time": 18.19080600000003,
                    "velocity": 0.2440944881889764,
                    "duration": 0.10576049999999881
                },
                {
                    "name": "A3",
                    "midi": 57,
                    "time": 18.19080600000003,
                    "velocity": 0.29133858267716534,
                    "duration": 0.10576049999999881
                },
                {
                    "name": "A3",
                    "midi": 57,
                    "time": 18.402327000000028,
                    "velocity": 0.29133858267716534,
                    "duration": 0.10576049999999881
                },
                {
                    "name": "F#3",
                    "midi": 54,
                    "time": 18.402327000000028,
                    "velocity": 0.2440944881889764,
                    "duration": 0.10576049999999881
                },
                {
                    "name": "G3",
                    "midi": 55,
                    "time": 18.613848000000026,
                    "velocity": 0.29133858267716534,
                    "duration": 0.4230419999999988
                },
                {
                    "name": "B3",
                    "midi": 59,
                    "time": 18.613848000000026,
                    "velocity": 0.3464566929133858,
                    "duration": 0.4230419999999988
                },
                {
                    "name": "G3",
                    "midi": 55,
                    "time": 19.671453000000025,
                    "velocity": 0.23622047244094488,
                    "duration": 0.10576049999999881
                },
                {
                    "name": "B3",
                    "midi": 59,
                    "time": 19.671453000000025,
                    "velocity": 0.28346456692913385,
                    "duration": 0.10576049999999881
                },
                {
                    "name": "B3",
                    "midi": 59,
                    "time": 19.882974000000022,
                    "velocity": 0.28346456692913385,
                    "duration": 0.10576049999999881
                },
                {
                    "name": "G3",
                    "midi": 55,
                    "time": 19.882974000000022,
                    "velocity": 0.23622047244094488,
                    "duration": 0.10576049999999881
                },
                {
                    "name": "B3",
                    "midi": 59,
                    "time": 20.09449500000002,
                    "velocity": 0.28346456692913385,
                    "duration": 0.10576049999999881
                },
                {
                    "name": "G#3",
                    "midi": 56,
                    "time": 20.09449500000002,
                    "velocity": 0.23622047244094488,
                    "duration": 0.10576049999999881
                },
                {
                    "name": "A3",
                    "midi": 57,
                    "time": 20.306016000000017,
                    "velocity": 0.36220472440944884,
                    "duration": 0.21152100000000118
                },
                {
                    "name": "G3",
                    "midi": 55,
                    "time": 20.51753700000002,
                    "velocity": 0.31496062992125984,
                    "duration": 0.21152100000000118
                },
                {
                    "name": "F#3",
                    "midi": 54,
                    "time": 20.72905800000002,
                    "velocity": 0.31496062992125984,
                    "duration": 0.10576049999999881
                },
                {
                    "name": "D3",
                    "midi": 50,
                    "time": 20.940579000000017,
                    "velocity": 0.31496062992125984,
                    "duration": 0.10576049999999881
                },
                {
                    "name": "C#3",
                    "midi": 49,
                    "time": 21.152100000000015,
                    "velocity": 0.3937007874015748,
                    "duration": 0.21152100000000118
                },
                {
                    "name": "A2",
                    "midi": 45,
                    "time": 21.363621000000016,
                    "velocity": 0.3464566929133858,
                    "duration": 0.21152100000000118
                },
                {
                    "name": "D3",
                    "midi": 50,
                    "time": 21.575142000000017,
                    "velocity": 0.3464566929133858,
                    "duration": 0.10576049999999881
                },
                {
                    "name": "F#3",
                    "midi": 54,
                    "time": 21.786663000000015,
                    "velocity": 0.3464566929133858,
                    "duration": 0.10576049999999881
                },
                {
                    "name": "A3",
                    "midi": 57,
                    "time": 21.998184000000013,
                    "velocity": 0.4015748031496063,
                    "duration": 0.21152100000000118
                },
                {
                    "name": "G3",
                    "midi": 55,
                    "time": 22.209705000000014,
                    "velocity": 0.3464566929133858,
                    "duration": 0.21152100000000118
                },
                {
                    "name": "F#3",
                    "midi": 54,
                    "time": 22.421226000000015,
                    "velocity": 0.3543307086614173,
                    "duration": 0.10576049999999881
                },
                {
                    "name": "D3",
                    "midi": 50,
                    "time": 22.632747000000013,
                    "velocity": 0.3543307086614173,
                    "duration": 0.10576049999999881
                },
                {
                    "name": "C#3",
                    "midi": 49,
                    "time": 22.84426800000001,
                    "velocity": 0.4251968503937008,
                    "duration": 0.21152100000000118
                },
                {
                    "name": "A2",
                    "midi": 45,
                    "time": 23.05578900000001,
                    "velocity": 0.3700787401574803,
                    "duration": 0.21152100000000118
                },
                {
                    "name": "D3",
                    "midi": 50,
                    "time": 23.267310000000013,
                    "velocity": 0.3779527559055118,
                    "duration": 0.10576049999999881
                },
                {
                    "name": "F#3",
                    "midi": 54,
                    "time": 23.47883100000001,
                    "velocity": 0.3779527559055118,
                    "duration": 0.10576049999999881
                },
                {
                    "name": "E3",
                    "midi": 52,
                    "time": 23.690352000000008,
                    "velocity": 0.3937007874015748,
                    "duration": 0.21152100000000118
                },
                {
                    "name": "A3",
                    "midi": 57,
                    "time": 23.690352000000008,
                    "velocity": 0.47244094488188976,
                    "duration": 0.21152100000000118
                },
                {
                    "name": "A2",
                    "midi": 45,
                    "time": 23.690352000000008,
                    "velocity": 0.3937007874015748,
                    "duration": 0.21152100000000118
                },
                {
                    "name": "D3",
                    "midi": 50,
                    "time": 24.11339400000001,
                    "velocity": 0.4015748031496063,
                    "duration": 0.21152100000000118
                },
                {
                    "name": "A3",
                    "midi": 57,
                    "time": 24.11339400000001,
                    "velocity": 0.47244094488188976,
                    "duration": 0.21152100000000118
                },
                {
                    "name": "F#3",
                    "midi": 54,
                    "time": 24.11339400000001,
                    "velocity": 0.4015748031496063,
                    "duration": 0.21152100000000118
                },
                {
                    "name": "A3",
                    "midi": 57,
                    "time": 24.536436000000013,
                    "velocity": 0.48031496062992124,
                    "duration": 0.21152100000000118
                },
                {
                    "name": "E3",
                    "midi": 52,
                    "time": 24.536436000000013,
                    "velocity": 0.4015748031496063,
                    "duration": 0.21152100000000118
                },
                {
                    "name": "A2",
                    "midi": 45,
                    "time": 24.536436000000013,
                    "velocity": 0.4015748031496063,
                    "duration": 0.21152100000000118
                },
                {
                    "name": "D3",
                    "midi": 50,
                    "time": 24.959478000000015,
                    "velocity": 0.4094488188976378,
                    "duration": 0.21152100000000118
                },
                {
                    "name": "F#3",
                    "midi": 54,
                    "time": 24.959478000000015,
                    "velocity": 0.4094488188976378,
                    "duration": 0.21152100000000118
                },
                {
                    "name": "A3",
                    "midi": 57,
                    "time": 24.959478000000015,
                    "velocity": 0.4881889763779528,
                    "duration": 0.21152100000000118
                },
                {
                    "name": "A2",
                    "midi": 45,
                    "time": 25.594041000000015,
                    "velocity": 0.3543307086614173,
                    "duration": 0.07932037499999822
                },
                {
                    "name": "A3",
                    "midi": 57,
                    "time": 25.594041000000015,
                    "velocity": 0.4330708661417323,
                    "duration": 0.07932037499999822
                },
                {
                    "name": "E3",
                    "midi": 52,
                    "time": 25.594041000000015,
                    "velocity": 0.3543307086614173,
                    "duration": 0.07932037499999822
                },
                {
                    "name": "C#3",
                    "midi": 49,
                    "time": 25.594041000000015,
                    "velocity": 0.3543307086614173,
                    "duration": 0.07932037499999822
                },
                {
                    "name": "E3",
                    "midi": 52,
                    "time": 25.805562000000013,
                    "velocity": 0.3543307086614173,
                    "duration": 0.07932037499999822
                },
                {
                    "name": "C#3",
                    "midi": 49,
                    "time": 25.805562000000013,
                    "velocity": 0.3543307086614173,
                    "duration": 0.07932037499999822
                },
                {
                    "name": "A2",
                    "midi": 45,
                    "time": 25.805562000000013,
                    "velocity": 0.3543307086614173,
                    "duration": 0.07932037499999822
                },
                {
                    "name": "A3",
                    "midi": 57,
                    "time": 25.805562000000013,
                    "velocity": 0.4330708661417323,
                    "duration": 0.07932037499999822
                },
                {
                    "name": "A2",
                    "midi": 45,
                    "time": 26.01708300000001,
                    "velocity": 0.3543307086614173,
                    "duration": 0.07932037499999822
                },
                {
                    "name": "E3",
                    "midi": 52,
                    "time": 26.01708300000001,
                    "velocity": 0.3543307086614173,
                    "duration": 0.07932037499999822
                },
                {
                    "name": "C#3",
                    "midi": 49,
                    "time": 26.01708300000001,
                    "velocity": 0.3543307086614173,
                    "duration": 0.07932037499999822
                },
                {
                    "name": "A3",
                    "midi": 57,
                    "time": 26.01708300000001,
                    "velocity": 0.4330708661417323,
                    "duration": 0.07932037499999822
                },
                {
                    "name": "C#3",
                    "midi": 49,
                    "time": 26.228604000000008,
                    "velocity": 0.3858267716535433,
                    "duration": 0.3701617500000012
                },
                {
                    "name": "A3",
                    "midi": 57,
                    "time": 26.228604000000008,
                    "velocity": 0.4566929133858268,
                    "duration": 0.3701617500000012
                },
                {
                    "name": "E3",
                    "midi": 52,
                    "time": 26.228604000000008,
                    "velocity": 0.3858267716535433,
                    "duration": 0.3701617500000012
                },
                {
                    "name": "A2",
                    "midi": 45,
                    "time": 26.228604000000008,
                    "velocity": 0.3858267716535433,
                    "duration": 0.3701617500000012
                },
                {
                    "name": "A3",
                    "midi": 57,
                    "time": 27.07468800000001,
                    "velocity": 0.2677165354330709,
                    "duration": 0.21152100000000118
                },
                {
                    "name": "C#4",
                    "midi": 61,
                    "time": 27.28620900000001,
                    "velocity": 0.2125984251968504,
                    "duration": 0.21152100000000118
                },
                {
                    "name": "B3",
                    "midi": 59,
                    "time": 27.49773000000001,
                    "velocity": 0.23622047244094488,
                    "duration": 0.21152100000000118
                },
                {
                    "name": "D4",
                    "midi": 62,
                    "time": 27.709251000000013,
                    "velocity": 0.2125984251968504,
                    "duration": 0.21152100000000118
                },
                {
                    "name": "C#4",
                    "midi": 61,
                    "time": 27.920772000000014,
                    "velocity": 0.25196850393700787,
                    "duration": 0.21152100000000118
                },
                {
                    "name": "E4",
                    "midi": 64,
                    "time": 28.132293000000015,
                    "velocity": 0.2047244094488189,
                    "duration": 0.21152100000000118
                },
                {
                    "name": "A3",
                    "midi": 57,
                    "time": 28.343814000000016,
                    "velocity": 0.2283464566929134,
                    "duration": 0.21152100000000118
                },
                {
                    "name": "C#4",
                    "midi": 61,
                    "time": 28.555335000000017,
                    "velocity": 0.2047244094488189,
                    "duration": 0.21152100000000118
                },
                {
                    "name": "B3",
                    "midi": 59,
                    "time": 28.76685600000002,
                    "velocity": 0.2677165354330709,
                    "duration": 0.21152100000000118
                },
                {
                    "name": "F#4",
                    "midi": 66,
                    "time": 28.97837700000002,
                    "velocity": 0.2204724409448819,
                    "duration": 0.21152100000000118
                },
                {
                    "name": "D4",
                    "midi": 62,
                    "time": 29.18989800000002,
                    "velocity": 0.25196850393700787,
                    "duration": 0.21152100000000118
                },
                {
                    "name": "B3",
                    "midi": 59,
                    "time": 29.401419000000022,
                    "velocity": 0.2204724409448819,
                    "duration": 0.21152100000000118
                },
                {
                    "name": "G#3",
                    "midi": 56,
                    "time": 29.612940000000023,
                    "velocity": 0.2677165354330709,
                    "duration": 0.21152100000000118
                },
                {
                    "name": "B3",
                    "midi": 59,
                    "time": 29.824461000000024,
                    "velocity": 0.2283464566929134,
                    "duration": 0.21152100000000118
                },
                {
                    "name": "E3",
                    "midi": 52,
                    "time": 30.035982000000025,
                    "velocity": 0.23622047244094488,
                    "duration": 0.21152100000000118
                },
                {
                    "name": "D4",
                    "midi": 62,
                    "time": 30.247503000000027,
                    "velocity": 0.2204724409448819,
                    "duration": 0.21152100000000118
                },
                {
                    "name": "C#4",
                    "midi": 61,
                    "time": 30.459024000000028,
                    "velocity": 0.2677165354330709,
                    "duration": 0.21152100000000118
                },
                {
                    "name": "E4",
                    "midi": 64,
                    "time": 30.67054500000003,
                    "velocity": 0.2204724409448819,
                    "duration": 0.21152100000000118
                },
                {
                    "name": "G#3",
                    "midi": 56,
                    "time": 30.88206600000003,
                    "velocity": 0.23622047244094488,
                    "duration": 0.21152100000000118
                },
                {
                    "name": "E4",
                    "midi": 64,
                    "time": 31.09358700000003,
                    "velocity": 0.2204724409448819,
                    "duration": 0.21152100000000118
                },
                {
                    "name": "A3",
                    "midi": 57,
                    "time": 31.305108000000033,
                    "velocity": 0.2677165354330709,
                    "duration": 0.21152100000000118
                },
                {
                    "name": "E4",
                    "midi": 64,
                    "time": 31.516629000000034,
                    "velocity": 0.2047244094488189,
                    "duration": 0.21152100000000118
                },
                {
                    "name": "F#3",
                    "midi": 54,
                    "time": 31.728150000000035,
                    "velocity": 0.2283464566929134,
                    "duration": 0.21152100000000118
                },
                {
                    "name": "A3",
                    "midi": 57,
                    "time": 31.939671000000036,
                    "velocity": 0.2047244094488189,
                    "duration": 0.21152100000000118
                },
                {
                    "name": "E3",
                    "midi": 52,
                    "time": 32.15119200000004,
                    "velocity": 0.2677165354330709,
                    "duration": 0.21152099999999763
                },
                {
                    "name": "A3",
                    "midi": 57,
                    "time": 32.362713000000035,
                    "velocity": 0.2125984251968504,
                    "duration": 0.21152099999999763
                },
                {
                    "name": "C#4",
                    "midi": 61,
                    "time": 32.57423400000003,
                    "velocity": 0.23622047244094488,
                    "duration": 0.21152099999999763
                },
                {
                    "name": "A3",
                    "midi": 57,
                    "time": 32.78575500000003,
                    "velocity": 0.2125984251968504,
                    "duration": 0.21152099999999763
                },
                {
                    "name": "E3",
                    "midi": 52,
                    "time": 32.99727600000003,
                    "velocity": 0.25984251968503935,
                    "duration": 0.42304200000000236
                },
                {
                    "name": "G#3",
                    "midi": 56,
                    "time": 32.99727600000003,
                    "velocity": 0.25984251968503935,
                    "duration": 0.42304200000000236
                },
                {
                    "name": "A3",
                    "midi": 57,
                    "time": 33.84336000000003,
                    "velocity": 0.2677165354330709,
                    "duration": 0.21152099999999763
                },
                {
                    "name": "C#4",
                    "midi": 61,
                    "time": 34.05488100000003,
                    "velocity": 0.2125984251968504,
                    "duration": 0.21152099999999763
                },
                {
                    "name": "B3",
                    "midi": 59,
                    "time": 34.26640200000003,
                    "velocity": 0.23622047244094488,
                    "duration": 0.21152099999999763
                },
                {
                    "name": "D4",
                    "midi": 62,
                    "time": 34.477923000000025,
                    "velocity": 0.2125984251968504,
                    "duration": 0.21152099999999763
                },
                {
                    "name": "C#4",
                    "midi": 61,
                    "time": 34.68944400000002,
                    "velocity": 0.25196850393700787,
                    "duration": 0.21152099999999763
                },
                {
                    "name": "E4",
                    "midi": 64,
                    "time": 34.90096500000002,
                    "velocity": 0.2047244094488189,
                    "duration": 0.10576050000000237
                },
                {
                    "name": "A3",
                    "midi": 57,
                    "time": 35.112486000000025,
                    "velocity": 0.2283464566929134,
                    "duration": 0.21152099999999763
                },
                {
                    "name": "C#4",
                    "midi": 61,
                    "time": 35.32400700000002,
                    "velocity": 0.2047244094488189,
                    "duration": 0.10576050000000237
                },
                {
                    "name": "B3",
                    "midi": 59,
                    "time": 35.53552800000003,
                    "velocity": 0.2677165354330709,
                    "duration": 0.21152099999999763
                },
                {
                    "name": "F#4",
                    "midi": 66,
                    "time": 35.747049000000025,
                    "velocity": 0.2204724409448819,
                    "duration": 0.21152099999999763
                },
                {
                    "name": "D4",
                    "midi": 62,
                    "time": 35.95857000000002,
                    "velocity": 0.25196850393700787,
                    "duration": 0.21152099999999763
                },
                {
                    "name": "B3",
                    "midi": 59,
                    "time": 36.17009100000002,
                    "velocity": 0.2204724409448819,
                    "duration": 0.21152099999999763
                },
                {
                    "name": "G#3",
                    "midi": 56,
                    "time": 36.38161200000002,
                    "velocity": 0.2677165354330709,
                    "duration": 0.21152099999999763
                },
                {
                    "name": "B3",
                    "midi": 59,
                    "time": 36.593133000000016,
                    "velocity": 0.2283464566929134,
                    "duration": 0.10576050000000237
                },
                {
                    "name": "E3",
                    "midi": 52,
                    "time": 36.80465400000002,
                    "velocity": 0.23622047244094488,
                    "duration": 0.21152099999999763
                },
                {
                    "name": "G#3",
                    "midi": 56,
                    "time": 37.01617500000002,
                    "velocity": 0.2204724409448819,
                    "duration": 0.10576050000000237
                },
                {
                    "name": "A3",
                    "midi": 57,
                    "time": 37.22769600000002,
                    "velocity": 0.23622047244094488,
                    "duration": 0.42304200000000236
                },
                {
                    "name": "D4",
                    "midi": 62,
                    "time": 37.650738000000025,
                    "velocity": 0.23622047244094488,
                    "duration": 0.42304200000000236
                },
                {
                    "name": "D3",
                    "midi": 50,
                    "time": 37.650738000000025,
                    "velocity": 0.23622047244094488,
                    "duration": 0.42304200000000236
                },
                {
                    "name": "C#4",
                    "midi": 61,
                    "time": 38.07378000000003,
                    "velocity": 0.23622047244094488,
                    "duration": 0.42304200000000236
                },
                {
                    "name": "E3",
                    "midi": 52,
                    "time": 38.07378000000003,
                    "velocity": 0.23622047244094488,
                    "duration": 0.8460840000000047
                },
                {
                    "name": "B3",
                    "midi": 59,
                    "time": 38.49682200000003,
                    "velocity": 0.23622047244094488,
                    "duration": 0.42304200000000236
                },
                {
                    "name": "A3",
                    "midi": 57,
                    "time": 38.91986400000003,
                    "velocity": 0.2992125984251969,
                    "duration": 0.42304200000000236
                },
                {
                    "name": "A4",
                    "midi": 69,
                    "time": 39.55442700000003,
                    "velocity": 0.3858267716535433,
                    "duration": 0.10576050000000237
                },
                {
                    "name": "B4",
                    "midi": 71,
                    "time": 39.76594800000004,
                    "velocity": 0.4330708661417323,
                    "duration": 0.10576050000000237
                },
                {
                    "name": "A4",
                    "midi": 69,
                    "time": 39.97746900000004,
                    "velocity": 0.3858267716535433,
                    "duration": 0.10576050000000237
                },
                {
                    "name": "G#4",
                    "midi": 68,
                    "time": 40.18899000000005,
                    "velocity": 0.4409448818897638,
                    "duration": 0.10576050000000237
                },
                {
                    "name": "E4",
                    "midi": 64,
                    "time": 40.40051100000005,
                    "velocity": 0.3779527559055118,
                    "duration": 0.10576050000000237
                },
                {
                    "name": "A4",
                    "midi": 69,
                    "time": 40.612032000000056,
                    "velocity": 0.4330708661417323,
                    "duration": 0.42304200000000236
                },
                {
                    "name": "A3",
                    "midi": 57,
                    "time": 41.246595000000056,
                    "velocity": 0.3937007874015748,
                    "duration": 0.10576050000000237
                },
                {
                    "name": "B3",
                    "midi": 59,
                    "time": 41.45811600000006,
                    "velocity": 0.4409448818897638,
                    "duration": 0.10576050000000237
                },
                {
                    "name": "A3",
                    "midi": 57,
                    "time": 41.669637000000066,
                    "velocity": 0.3937007874015748,
                    "duration": 0.10576050000000237
                },
                {
                    "name": "G#3",
                    "midi": 56,
                    "time": 41.88115800000007,
                    "velocity": 0.4409448818897638,
                    "duration": 0.10576050000000237
                },
                {
                    "name": "E3",
                    "midi": 52,
                    "time": 42.092679000000075,
                    "velocity": 0.4015748031496063,
                    "duration": 0.10576050000000237
                },
                {
                    "name": "A3",
                    "midi": 57,
                    "time": 42.30420000000008,
                    "velocity": 0.3543307086614173,
                    "duration": 0.10576050000000237
                },
                {
                    "name": "E4",
                    "midi": 64,
                    "time": 42.40996050000008,
                    "velocity": 0.2755905511811024,
                    "duration": 0.10576050000000237
                },
                {
                    "name": "D#4",
                    "midi": 63,
                    "time": 42.515721000000084,
                    "velocity": 0.29133858267716534,
                    "duration": 0.10576050000000237
                },
                {
                    "name": "E4",
                    "midi": 64,
                    "time": 42.62148150000009,
                    "velocity": 0.2677165354330709,
                    "duration": 0.10576050000000237
                },
                {
                    "name": "F#4",
                    "midi": 66,
                    "time": 42.72724200000009,
                    "velocity": 0.31496062992125984,
                    "duration": 0.10576050000000237
                },
                {
                    "name": "E4",
                    "midi": 64,
                    "time": 42.83300250000009,
                    "velocity": 0.29133858267716534,
                    "duration": 0.10576050000000237
                },
                {
                    "name": "D#4",
                    "midi": 63,
                    "time": 42.938763000000094,
                    "velocity": 0.31496062992125984,
                    "duration": 0.10576050000000237
                },
                {
                    "name": "E4",
                    "midi": 64,
                    "time": 43.044523500000096,
                    "velocity": 0.31496062992125984,
                    "duration": 0.10576050000000237
                },
                {
                    "name": "D4",
                    "midi": 62,
                    "time": 43.1502840000001,
                    "velocity": 0.3700787401574803,
                    "duration": 0.10576050000000237
                },
                {
                    "name": "E4",
                    "midi": 64,
                    "time": 43.2560445000001,
                    "velocity": 0.30708661417322836,
                    "duration": 0.10576050000000237
                },
                {
                    "name": "D4",
                    "midi": 62,
                    "time": 43.3618050000001,
                    "velocity": 0.3228346456692913,
                    "duration": 0.10576050000000237
                },
                {
                    "name": "E4",
                    "midi": 64,
                    "time": 43.467565500000106,
                    "velocity": 0.30708661417322836,
                    "duration": 0.10576050000000237
                },
                {
                    "name": "D4",
                    "midi": 62,
                    "time": 43.57332600000011,
                    "velocity": 0.3858267716535433,
                    "duration": 0.10576050000000237
                },
                {
                    "name": "E4",
                    "midi": 64,
                    "time": 43.67908650000011,
                    "velocity": 0.30708661417322836,
                    "duration": 0.10576050000000237
                },
                {
                    "name": "D4",
                    "midi": 62,
                    "time": 43.78484700000011,
                    "velocity": 0.3228346456692913,
                    "duration": 0.10576050000000237
                },
                {
                    "name": "E4",
                    "midi": 64,
                    "time": 43.890607500000115,
                    "velocity": 0.30708661417322836,
                    "duration": 0.10576050000000237
                },
                {
                    "name": "C#4",
                    "midi": 61,
                    "time": 43.99636800000012,
                    "velocity": 0.30708661417322836,
                    "duration": 0.10576050000000237
                },
                {
                    "name": "E4",
                    "midi": 64,
                    "time": 44.10212850000012,
                    "velocity": 0.2755905511811024,
                    "duration": 0.10576050000000237
                },
                {
                    "name": "D#4",
                    "midi": 63,
                    "time": 44.20788900000012,
                    "velocity": 0.29133858267716534,
                    "duration": 0.10576050000000237
                },
                {
                    "name": "E4",
                    "midi": 64,
                    "time": 44.313649500000125,
                    "velocity": 0.2677165354330709,
                    "duration": 0.10576050000000237
                },
                {
                    "name": "F#4",
                    "midi": 66,
                    "time": 44.41941000000013,
                    "velocity": 0.31496062992125984,
                    "duration": 0.10576050000000237
                },
                {
                    "name": "E4",
                    "midi": 64,
                    "time": 44.52517050000013,
                    "velocity": 0.29133858267716534,
                    "duration": 0.10576050000000237
                },
                {
                    "name": "D#4",
                    "midi": 63,
                    "time": 44.63093100000013,
                    "velocity": 0.31496062992125984,
                    "duration": 0.10576050000000237
                },
                {
                    "name": "E4",
                    "midi": 64,
                    "time": 44.736691500000134,
                    "velocity": 0.31496062992125984,
                    "duration": 0.10576050000000237
                },
                {
                    "name": "D4",
                    "midi": 62,
                    "time": 44.84245200000014,
                    "velocity": 0.3700787401574803,
                    "duration": 0.10576050000000237
                },
                {
                    "name": "E4",
                    "midi": 64,
                    "time": 44.94821250000014,
                    "velocity": 0.30708661417322836,
                    "duration": 0.10576050000000237
                },
                {
                    "name": "D4",
                    "midi": 62,
                    "time": 45.05397300000014,
                    "velocity": 0.3228346456692913,
                    "duration": 0.10576050000000237
                },
                {
                    "name": "E4",
                    "midi": 64,
                    "time": 45.159733500000144,
                    "velocity": 0.30708661417322836,
                    "duration": 0.10576050000000237
                },
                {
                    "name": "D4",
                    "midi": 62,
                    "time": 45.265494000000146,
                    "velocity": 0.3858267716535433,
                    "duration": 0.10576050000000237
                },
                {
                    "name": "E4",
                    "midi": 64,
                    "time": 45.37125450000015,
                    "velocity": 0.30708661417322836,
                    "duration": 0.10576050000000237
                },
                {
                    "name": "D4",
                    "midi": 62,
                    "time": 45.47701500000015,
                    "velocity": 0.3228346456692913,
                    "duration": 0.10576050000000237
                },
                {
                    "name": "E4",
                    "midi": 64,
                    "time": 45.58277550000015,
                    "velocity": 0.30708661417322836,
                    "duration": 0.10576050000000237
                },
                {
                    "name": "C#4",
                    "midi": 61,
                    "time": 45.688536000000155,
                    "velocity": 0.3228346456692913,
                    "duration": 0.42304200000000236
                },
                {
                    "name": "C#4",
                    "midi": 61,
                    "time": 46.11157800000016,
                    "velocity": 0.2755905511811024,
                    "duration": 0.10576050000000237
                },
                {
                    "name": "A4",
                    "midi": 69,
                    "time": 46.21733850000016,
                    "velocity": 0.2283464566929134,
                    "duration": 0.10576050000000237
                },
                {
                    "name": "C#4",
                    "midi": 61,
                    "time": 46.32309900000016,
                    "velocity": 0.2283464566929134,
                    "duration": 0.10576050000000237
                },
                {
                    "name": "A4",
                    "midi": 69,
                    "time": 46.428859500000165,
                    "velocity": 0.2283464566929134,
                    "duration": 0.10576050000000237
                },
                {
                    "name": "B3",
                    "midi": 59,
                    "time": 46.53462000000017,
                    "velocity": 0.2755905511811024,
                    "duration": 0.10576050000000237
                },
                {
                    "name": "A4",
                    "midi": 69,
                    "time": 46.64038050000017,
                    "velocity": 0.23622047244094488,
                    "duration": 0.10576050000000237
                },
                {
                    "name": "B3",
                    "midi": 59,
                    "time": 46.74614100000017,
                    "velocity": 0.23622047244094488,
                    "duration": 0.10576050000000237
                },
                {
                    "name": "A4",
                    "midi": 69,
                    "time": 46.851901500000174,
                    "velocity": 0.23622047244094488,
                    "duration": 0.10576050000000237
                },
                {
                    "name": "A3",
                    "midi": 57,
                    "time": 46.95766200000018,
                    "velocity": 0.2755905511811024,
                    "duration": 0.10576050000000237
                },
                {
                    "name": "A4",
                    "midi": 69,
                    "time": 47.06342250000018,
                    "velocity": 0.2440944881889764,
                    "duration": 0.10576050000000237
                },
                {
                    "name": "A3",
                    "midi": 57,
                    "time": 47.16918300000018,
                    "velocity": 0.2440944881889764,
                    "duration": 0.10576050000000237
                },
                {
                    "name": "A4",
                    "midi": 69,
                    "time": 47.274943500000184,
                    "velocity": 0.2440944881889764,
                    "duration": 0.10576050000000237
                },
                {
                    "name": "D4",
                    "midi": 62,
                    "time": 47.380704000000186,
                    "velocity": 0.2755905511811024,
                    "duration": 0.10576050000000237
                },
                {
                    "name": "A4",
                    "midi": 69,
                    "time": 47.48646450000019,
                    "velocity": 0.23622047244094488,
                    "duration": 0.10576050000000237
                },
                {
                    "name": "G#4",
                    "midi": 68,
                    "time": 47.59222500000019,
                    "velocity": 0.23622047244094488,
                    "duration": 0.10576050000000237
                },
                {
                    "name": "A4",
                    "midi": 69,
                    "time": 47.69798550000019,
                    "velocity": 0.23622047244094488,
                    "duration": 0.10576050000000237
                },
                {
                    "name": "D4",
                    "midi": 62,
                    "time": 47.803746000000196,
                    "velocity": 0.2755905511811024,
                    "duration": 0.10576050000000237
                },
                {
                    "name": "A4",
                    "midi": 69,
                    "time": 47.9095065000002,
                    "velocity": 0.23622047244094488,
                    "duration": 0.10576050000000237
                },
                {
                    "name": "G#4",
                    "midi": 68,
                    "time": 48.0152670000002,
                    "velocity": 0.23622047244094488,
                    "duration": 0.10576050000000237
                },
                {
                    "name": "A4",
                    "midi": 69,
                    "time": 48.1210275000002,
                    "velocity": 0.23622047244094488,
                    "duration": 0.10576050000000237
                },
                {
                    "name": "D4",
                    "midi": 62,
                    "time": 48.226788000000205,
                    "velocity": 0.23622047244094488,
                    "duration": 0.10576050000000237
                },
                {
                    "name": "A4",
                    "midi": 69,
                    "time": 48.33254850000021,
                    "velocity": 0.25196850393700787,
                    "duration": 0.10576050000000237
                },
                {
                    "name": "G#4",
                    "midi": 68,
                    "time": 48.43830900000021,
                    "velocity": 0.25196850393700787,
                    "duration": 0.10576050000000237
                },
                {
                    "name": "A4",
                    "midi": 69,
                    "time": 48.54406950000021,
                    "velocity": 0.25196850393700787,
                    "duration": 0.10576050000000237
                },
                {
                    "name": "D4",
                    "midi": 62,
                    "time": 48.649830000000215,
                    "velocity": 0.2677165354330709,
                    "duration": 0.10576050000000237
                },
                {
                    "name": "A4",
                    "midi": 69,
                    "time": 48.75559050000022,
                    "velocity": 0.23622047244094488,
                    "duration": 0.10576050000000237
                },
                {
                    "name": "G#4",
                    "midi": 68,
                    "time": 48.86135100000022,
                    "velocity": 0.23622047244094488,
                    "duration": 0.10576050000000237
                },
                {
                    "name": "A4",
                    "midi": 69,
                    "time": 48.96711150000022,
                    "velocity": 0.23622047244094488,
                    "duration": 0.10576050000000237
                },
                {
                    "name": "C#4",
                    "midi": 61,
                    "time": 49.072872000000224,
                    "velocity": 0.29133858267716534,
                    "duration": 0.10576050000000237
                },
                {
                    "name": "A4",
                    "midi": 69,
                    "time": 49.17863250000023,
                    "velocity": 0.29133858267716534,
                    "duration": 0.10576050000000237
                },
                {
                    "name": "G#4",
                    "midi": 68,
                    "time": 49.28439300000023,
                    "velocity": 0.2204724409448819,
                    "duration": 0.10576050000000237
                },
                {
                    "name": "A4",
                    "midi": 69,
                    "time": 49.39015350000023,
                    "velocity": 0.2204724409448819,
                    "duration": 0.10576050000000237
                },
                {
                    "name": "C#4",
                    "midi": 61,
                    "time": 49.495914000000234,
                    "velocity": 0.3543307086614173,
                    "duration": 0.10576050000000237
                },
                {
                    "name": "A4",
                    "midi": 69,
                    "time": 49.601674500000236,
                    "velocity": 0.29133858267716534,
                    "duration": 0.10576050000000237
                },
                {
                    "name": "C#4",
                    "midi": 61,
                    "time": 49.70743500000024,
                    "velocity": 0.29133858267716534,
                    "duration": 0.10576050000000237
                },
                {
                    "name": "A4",
                    "midi": 69,
                    "time": 49.81319550000024,
                    "velocity": 0.29133858267716534,
                    "duration": 0.10576050000000237
                },
                {
                    "name": "B3",
                    "midi": 59,
                    "time": 49.91895600000024,
                    "velocity": 0.3543307086614173,
                    "duration": 0.10576050000000237
                },
                {
                    "name": "A4",
                    "midi": 69,
                    "time": 50.024716500000245,
                    "velocity": 0.30708661417322836,
                    "duration": 0.10576050000000237
                },
                {
                    "name": "B3",
                    "midi": 59,
                    "time": 50.13047700000025,
                    "velocity": 0.30708661417322836,
                    "duration": 0.10576050000000237
                },
                {
                    "name": "A4",
                    "midi": 69,
                    "time": 50.23623750000025,
                    "velocity": 0.30708661417322836,
                    "duration": 0.10576050000000237
                },
                {
                    "name": "A3",
                    "midi": 57,
                    "time": 50.34199800000025,
                    "velocity": 0.3543307086614173,
                    "duration": 0.10576050000000237
                },
                {
                    "name": "A4",
                    "midi": 69,
                    "time": 50.447758500000255,
                    "velocity": 0.31496062992125984,
                    "duration": 0.10576050000000237
                },
                {
                    "name": "A3",
                    "midi": 57,
                    "time": 50.55351900000026,
                    "velocity": 0.31496062992125984,
                    "duration": 0.10576050000000237
                },
                {
                    "name": "A4",
                    "midi": 69,
                    "time": 50.65927950000026,
                    "velocity": 0.31496062992125984,
                    "duration": 0.10576050000000237
                },
                {
                    "name": "D3",
                    "midi": 50,
                    "time": 50.76504000000026,
                    "velocity": 0.3543307086614173,
                    "duration": 0.10576050000000237
                },
                {
                    "name": "B3",
                    "midi": 59,
                    "time": 50.870800500000264,
                    "velocity": 0.30708661417322836,
                    "duration": 0.10576050000000237
                },
                {
                    "name": "F#3",
                    "midi": 54,
                    "time": 50.97656100000027,
                    "velocity": 0.30708661417322836,
                    "duration": 0.10576050000000237
                },
                {
                    "name": "B3",
                    "midi": 59,
                    "time": 51.08232150000027,
                    "velocity": 0.30708661417322836,
                    "duration": 0.10576050000000237
                },
                {
                    "name": "D3",
                    "midi": 50,
                    "time": 51.18808200000027,
                    "velocity": 0.3543307086614173,
                    "duration": 0.10576050000000237
                },
                {
                    "name": "B3",
                    "midi": 59,
                    "time": 51.293842500000274,
                    "velocity": 0.30708661417322836,
                    "duration": 0.10576050000000237
                },
                {
                    "name": "F#3",
                    "midi": 54,
                    "time": 51.399603000000276,
                    "velocity": 0.30708661417322836,
                    "duration": 0.10576050000000237
                },
                {
                    "name": "B3",
                    "midi": 59,
                    "time": 51.50536350000028,
                    "velocity": 0.30708661417322836,
                    "duration": 0.10576050000000237
                },
                {
                    "name": "E3",
                    "midi": 52,
                    "time": 51.61112400000028,
                    "velocity": 0.30708661417322836,
                    "duration": 0.10576050000000237
                },
                {
                    "name": "C#4",
                    "midi": 61,
                    "time": 51.71688450000028,
                    "velocity": 0.3228346456692913,
                    "duration": 0.10576050000000237
                },
                {
                    "name": "A3",
                    "midi": 57,
                    "time": 51.822645000000286,
                    "velocity": 0.3228346456692913,
                    "duration": 0.10576050000000237
                },
                {
                    "name": "C#4",
                    "midi": 61,
                    "time": 51.92840550000029,
                    "velocity": 0.3228346456692913,
                    "duration": 0.10576050000000237
                },
                {
                    "name": "E3",
                    "midi": 52,
                    "time": 52.03416600000029,
                    "velocity": 0.3464566929133858,
                    "duration": 0.10576050000000237
                },
                {
                    "name": "D4",
                    "midi": 62,
                    "time": 52.13992650000029,
                    "velocity": 0.30708661417322836,
                    "duration": 0.10576050000000237
                },
                {
                    "name": "G#3",
                    "midi": 56,
                    "time": 52.245687000000295,
                    "velocity": 0.30708661417322836,
                    "duration": 0.10576050000000237
                },
                {
                    "name": "D4",
                    "midi": 62,
                    "time": 52.3514475000003,
                    "velocity": 0.30708661417322836,
                    "duration": 0.10576050000000237
                },
                {
                    "name": "A3",
                    "midi": 57,
                    "time": 52.4572080000003,
                    "velocity": 0.3779527559055118,
                    "duration": 0.10576050000000237
                },
                {
                    "name": "E4",
                    "midi": 64,
                    "time": 52.5629685000003,
                    "velocity": 0.33070866141732286,
                    "duration": 0.10576050000000237
                },
                {
                    "name": "C#4",
                    "midi": 61,
                    "time": 52.668729000000305,
                    "velocity": 0.28346456692913385,
                    "duration": 0.10576050000000237
                },
                {
                    "name": "E4",
                    "midi": 64,
                    "time": 52.77448950000031,
                    "velocity": 0.28346456692913385,
                    "duration": 0.10576050000000237
                },
                {
                    "name": "C#4",
                    "midi": 61,
                    "time": 52.88025000000031,
                    "velocity": 0.2755905511811024,
                    "duration": 0.10576050000000237
                },
                {
                    "name": "A4",
                    "midi": 69,
                    "time": 52.98601050000031,
                    "velocity": 0.2283464566929134,
                    "duration": 0.10576050000000237
                },
                {
                    "name": "C#4",
                    "midi": 61,
                    "time": 53.091771000000314,
                    "velocity": 0.2283464566929134,
                    "duration": 0.10576050000000237
                },
                {
                    "name": "A4",
                    "midi": 69,
                    "time": 53.197531500000316,
                    "velocity": 0.2283464566929134,
                    "duration": 0.10576050000000237
                },
                {
                    "name": "B3",
                    "midi": 59,
                    "time": 53.30329200000032,
                    "velocity": 0.2755905511811024,
                    "duration": 0.10576050000000237
                },
                {
                    "name": "A4",
                    "midi": 69,
                    "time": 53.40905250000032,
                    "velocity": 0.23622047244094488,
                    "duration": 0.10576050000000237
                },
                {
                    "name": "B3",
                    "midi": 59,
                    "time": 53.51481300000032,
                    "velocity": 0.23622047244094488,
                    "duration": 0.10576050000000237
                },
                {
                    "name": "A4",
                    "midi": 69,
                    "time": 53.620573500000326,
                    "velocity": 0.23622047244094488,
                    "duration": 0.10576050000000237
                },
                {
                    "name": "A3",
                    "midi": 57,
                    "time": 53.72633400000033,
                    "velocity": 0.2755905511811024,
                    "duration": 0.10576050000000237
                },
                {
                    "name": "A4",
                    "midi": 69,
                    "time": 53.83209450000033,
                    "velocity": 0.2440944881889764,
                    "duration": 0.10576050000000237
                },
                {
                    "name": "A3",
                    "midi": 57,
                    "time": 53.93785500000033,
                    "velocity": 0.2440944881889764,
                    "duration": 0.10576050000000237
                },
                {
                    "name": "A4",
                    "midi": 69,
                    "time": 54.043615500000335,
                    "velocity": 0.2440944881889764,
                    "duration": 0.10576050000000237
                },
                {
                    "name": "D4",
                    "midi": 62,
                    "time": 54.14937600000034,
                    "velocity": 0.2755905511811024,
                    "duration": 0.10576050000000237
                },
                {
                    "name": "A4",
                    "midi": 69,
                    "time": 54.25513650000034,
                    "velocity": 0.23622047244094488,
                    "duration": 0.10576050000000237
                },
                {
                    "name": "G#4",
                    "midi": 68,
                    "time": 54.36089700000034,
                    "velocity": 0.23622047244094488,
                    "duration": 0.10576050000000237
                },
                {
                    "name": "A4",
                    "midi": 69,
                    "time": 54.466657500000345,
                    "velocity": 0.23622047244094488,
                    "duration": 0.10576050000000237
                },
                {
                    "name": "D4",
                    "midi": 62,
                    "time": 54.57241800000035,
                    "velocity": 0.2755905511811024,
                    "duration": 0.10576050000000237
                },
                {
                    "name": "A4",
                    "midi": 69,
                    "time": 54.67817850000035,
                    "velocity": 0.23622047244094488,
                    "duration": 0.10576050000000237
                },
                {
                    "name": "G#4",
                    "midi": 68,
                    "time": 54.78393900000035,
                    "velocity": 0.23622047244094488,
                    "duration": 0.10576050000000237
                },
                {
                    "name": "A4",
                    "midi": 69,
                    "time": 54.889699500000354,
                    "velocity": 0.23622047244094488,
                    "duration": 0.10576050000000237
                },
                {
                    "name": "D4",
                    "midi": 62,
                    "time": 54.99546000000036,
                    "velocity": 0.23622047244094488,
                    "duration": 0.10576050000000237
                },
                {
                    "name": "A4",
                    "midi": 69,
                    "time": 55.10122050000036,
                    "velocity": 0.25196850393700787,
                    "duration": 0.10576050000000237
                },
                {
                    "name": "G#4",
                    "midi": 68,
                    "time": 55.20698100000036,
                    "velocity": 0.25196850393700787,
                    "duration": 0.10576050000000237
                },
                {
                    "name": "A4",
                    "midi": 69,
                    "time": 55.312741500000364,
                    "velocity": 0.25196850393700787,
                    "duration": 0.10576050000000237
                },
                {
                    "name": "D4",
                    "midi": 62,
                    "time": 55.418502000000366,
                    "velocity": 0.2677165354330709,
                    "duration": 0.10576050000000237
                },
                {
                    "name": "A4",
                    "midi": 69,
                    "time": 55.52426250000037,
                    "velocity": 0.23622047244094488,
                    "duration": 0.10576050000000237
                },
                {
                    "name": "G#4",
                    "midi": 68,
                    "time": 55.63002300000037,
                    "velocity": 0.23622047244094488,
                    "duration": 0.10576050000000237
                },
                {
                    "name": "A4",
                    "midi": 69,
                    "time": 55.73578350000037,
                    "velocity": 0.23622047244094488,
                    "duration": 0.10576050000000237
                },
                {
                    "name": "C#4",
                    "midi": 61,
                    "time": 55.841544000000376,
                    "velocity": 0.29133858267716534,
                    "duration": 0.10576050000000237
                },
                {
                    "name": "A4",
                    "midi": 69,
                    "time": 55.94730450000038,
                    "velocity": 0.29133858267716534,
                    "duration": 0.10576050000000237
                },
                {
                    "name": "G#4",
                    "midi": 68,
                    "time": 56.05306500000038,
                    "velocity": 0.2204724409448819,
                    "duration": 0.10576050000000237
                },
                {
                    "name": "A4",
                    "midi": 69,
                    "time": 56.15882550000038,
                    "velocity": 0.2204724409448819,
                    "duration": 0.10576050000000237
                },
                {
                    "name": "C#4",
                    "midi": 61,
                    "time": 56.264586000000385,
                    "velocity": 0.3543307086614173,
                    "duration": 0.10576050000000237
                },
                {
                    "name": "A4",
                    "midi": 69,
                    "time": 56.37034650000039,
                    "velocity": 0.29133858267716534,
                    "duration": 0.10576050000000237
                },
                {
                    "name": "C#4",
                    "midi": 61,
                    "time": 56.47610700000039,
                    "velocity": 0.29133858267716534,
                    "duration": 0.10576050000000237
                },
                {
                    "name": "A4",
                    "midi": 69,
                    "time": 56.58186750000039,
                    "velocity": 0.29133858267716534,
                    "duration": 0.10576050000000237
                },
                {
                    "name": "B3",
                    "midi": 59,
                    "time": 56.687628000000394,
                    "velocity": 0.3543307086614173,
                    "duration": 0.10576050000000237
                },
                {
                    "name": "A4",
                    "midi": 69,
                    "time": 56.7933885000004,
                    "velocity": 0.30708661417322836,
                    "duration": 0.10576050000000237
                },
                {
                    "name": "B3",
                    "midi": 59,
                    "time": 56.8991490000004,
                    "velocity": 0.30708661417322836,
                    "duration": 0.10576050000000237
                },
                {
                    "name": "A4",
                    "midi": 69,
                    "time": 57.0049095000004,
                    "velocity": 0.30708661417322836,
                    "duration": 0.10576050000000237
                },
                {
                    "name": "A3",
                    "midi": 57,
                    "time": 57.110670000000404,
                    "velocity": 0.3543307086614173,
                    "duration": 0.10576050000000237
                },
                {
                    "name": "A4",
                    "midi": 69,
                    "time": 57.216430500000406,
                    "velocity": 0.31496062992125984,
                    "duration": 0.10576050000000237
                },
                {
                    "name": "A3",
                    "midi": 57,
                    "time": 57.32219100000041,
                    "velocity": 0.31496062992125984,
                    "duration": 0.10576050000000237
                },
                {
                    "name": "A4",
                    "midi": 69,
                    "time": 57.42795150000041,
                    "velocity": 0.31496062992125984,
                    "duration": 0.10576050000000237
                },
                {
                    "name": "D3",
                    "midi": 50,
                    "time": 57.53371200000041,
                    "velocity": 0.3543307086614173,
                    "duration": 0.10576050000000237
                },
                {
                    "name": "B3",
                    "midi": 59,
                    "time": 57.639472500000416,
                    "velocity": 0.30708661417322836,
                    "duration": 0.10576050000000237
                },
                {
                    "name": "F#3",
                    "midi": 54,
                    "time": 57.74523300000042,
                    "velocity": 0.30708661417322836,
                    "duration": 0.10576050000000237
                },
                {
                    "name": "B3",
                    "midi": 59,
                    "time": 57.85099350000042,
                    "velocity": 0.30708661417322836,
                    "duration": 0.10576050000000237
                },
                {
                    "name": "D3",
                    "midi": 50,
                    "time": 57.95675400000042,
                    "velocity": 0.3543307086614173,
                    "duration": 0.10576050000000237
                },
                {
                    "name": "B3",
                    "midi": 59,
                    "time": 58.062514500000425,
                    "velocity": 0.30708661417322836,
                    "duration": 0.10576050000000237
                },
                {
                    "name": "F#3",
                    "midi": 54,
                    "time": 58.16827500000043,
                    "velocity": 0.30708661417322836,
                    "duration": 0.10576050000000237
                },
                {
                    "name": "B3",
                    "midi": 59,
                    "time": 58.27403550000043,
                    "velocity": 0.30708661417322836,
                    "duration": 0.10576050000000237
                },
                {
                    "name": "E3",
                    "midi": 52,
                    "time": 58.37979600000043,
                    "velocity": 0.30708661417322836,
                    "duration": 0.10576050000000237
                },
                {
                    "name": "C#4",
                    "midi": 61,
                    "time": 58.485556500000435,
                    "velocity": 0.3228346456692913,
                    "duration": 0.10576050000000237
                },
                {
                    "name": "A3",
                    "midi": 57,
                    "time": 58.59131700000044,
                    "velocity": 0.3228346456692913,
                    "duration": 0.10576050000000237
                },
                {
                    "name": "C#4",
                    "midi": 61,
                    "time": 58.69707750000044,
                    "velocity": 0.3228346456692913,
                    "duration": 0.10576050000000237
                },
                {
                    "name": "E3",
                    "midi": 52,
                    "time": 58.80283800000044,
                    "velocity": 0.3464566929133858,
                    "duration": 0.10576050000000237
                },
                {
                    "name": "D4",
                    "midi": 62,
                    "time": 58.908598500000444,
                    "velocity": 0.30708661417322836,
                    "duration": 0.10576050000000237
                },
                {
                    "name": "G#3",
                    "midi": 56,
                    "time": 59.01435900000045,
                    "velocity": 0.30708661417322836,
                    "duration": 0.10576050000000237
                },
                {
                    "name": "D4",
                    "midi": 62,
                    "time": 59.12011950000045,
                    "velocity": 0.30708661417322836,
                    "duration": 0.10576050000000237
                },
                {
                    "name": "C#4",
                    "midi": 61,
                    "time": 59.22588000000045,
                    "velocity": 0.4251968503937008,
                    "duration": 0.42304200000000236
                },
                {
                    "name": "A3",
                    "midi": 57,
                    "time": 59.22588000000045,
                    "velocity": 0.3543307086614173,
                    "duration": 0.42304200000000236
                },
                {
                    "name": "E3",
                    "midi": 52,
                    "time": 59.86044300000045,
                    "velocity": 0.36220472440944884,
                    "duration": 0.10576050000000237
                },
                {
                    "name": "G#3",
                    "midi": 56,
                    "time": 59.86044300000045,
                    "velocity": 0.36220472440944884,
                    "duration": 0.10576050000000237
                },
                {
                    "name": "B3",
                    "midi": 59,
                    "time": 59.86044300000045,
                    "velocity": 0.4330708661417323,
                    "duration": 0.10576050000000237
                },
                {
                    "name": "A3",
                    "midi": 57,
                    "time": 60.071964000000456,
                    "velocity": 0.3543307086614173,
                    "duration": 0.42304200000000236
                },
                {
                    "name": "C#4",
                    "midi": 61,
                    "time": 60.071964000000456,
                    "velocity": 0.4251968503937008,
                    "duration": 0.42304200000000236
                },
                {
                    "name": "E3",
                    "midi": 52,
                    "time": 60.706527000000456,
                    "velocity": 0.36220472440944884,
                    "duration": 0.10576050000000237
                },
                {
                    "name": "B3",
                    "midi": 59,
                    "time": 60.706527000000456,
                    "velocity": 0.4330708661417323,
                    "duration": 0.10576050000000237
                },
                {
                    "name": "G#3",
                    "midi": 56,
                    "time": 60.706527000000456,
                    "velocity": 0.36220472440944884,
                    "duration": 0.10576050000000237
                },
                {
                    "name": "C#4",
                    "midi": 61,
                    "time": 60.91804800000046,
                    "velocity": 0.49606299212598426,
                    "duration": 0.21152099999999763
                },
                {
                    "name": "A3",
                    "midi": 57,
                    "time": 60.91804800000046,
                    "velocity": 0.4094488188976378,
                    "duration": 0.21152099999999763
                },
                {
                    "name": "F2",
                    "midi": 41,
                    "time": 61.341090000000456,
                    "velocity": 0.4094488188976378,
                    "duration": 0.21152099999999763
                },
                {
                    "name": "F3",
                    "midi": 53,
                    "time": 61.341090000000456,
                    "velocity": 0.49606299212598426,
                    "duration": 0.21152099999999763
                },
                {
                    "name": "F#2",
                    "midi": 42,
                    "time": 61.76413200000045,
                    "velocity": 0.4094488188976378,
                    "duration": 0.21152099999999763
                },
                {
                    "name": "F#3",
                    "midi": 54,
                    "time": 61.76413200000045,
                    "velocity": 0.49606299212598426,
                    "duration": 0.21152099999999763
                },
                {
                    "name": "D3",
                    "midi": 50,
                    "time": 62.61021600000045,
                    "velocity": 0.31496062992125984,
                    "duration": 0.8460839999999976
                },
                {
                    "name": "E3",
                    "midi": 52,
                    "time": 63.45630000000045,
                    "velocity": 0.31496062992125984,
                    "duration": 0.8460839999999976
                },
                {
                    "name": "A3",
                    "midi": 57,
                    "time": 64.30238400000044,
                    "velocity": 0.30708661417322836,
                    "duration": 0.42304199999999526
                },
                {
                    "name": "E3",
                    "midi": 52,
                    "time": 64.72542600000044,
                    "velocity": 0.30708661417322836,
                    "duration": 0.42304199999999526
                },
                {
                    "name": "A2",
                    "midi": 45,
                    "time": 65.14846800000043,
                    "velocity": 0.2755905511811024,
                    "duration": 0.42304199999999526
                },
                {
                    "name": "D2",
                    "midi": 38,
                    "time": 65.99455200000043,
                    "velocity": 0.44881889763779526,
                    "duration": 0.42304199999999526
                },
                {
                    "name": "D3",
                    "midi": 50,
                    "time": 65.99455200000043,
                    "velocity": 0.5433070866141733,
                    "duration": 0.42304199999999526
                },
                {
                    "name": "A2",
                    "midi": 45,
                    "time": 65.99455200000043,
                    "velocity": 0.44881889763779526,
                    "duration": 0.42304199999999526
                },
                {
                    "name": "F#4",
                    "midi": 66,
                    "time": 66.84063600000042,
                    "velocity": 0.3543307086614173,
                    "duration": 0.42304199999999526
                },
                {
                    "name": "D4",
                    "midi": 62,
                    "time": 66.84063600000042,
                    "velocity": 0.29133858267716534,
                    "duration": 0.42304199999999526
                },
                {
                    "name": "G4",
                    "midi": 67,
                    "time": 67.26367800000041,
                    "velocity": 0.3543307086614173,
                    "duration": 0.42304199999999526
                },
                {
                    "name": "E4",
                    "midi": 64,
                    "time": 67.26367800000041,
                    "velocity": 0.29133858267716534,
                    "duration": 0.42304199999999526
                },
                {
                    "name": "F#4",
                    "midi": 66,
                    "time": 67.6867200000004,
                    "velocity": 0.29133858267716534,
                    "duration": 0.42304199999999526
                },
                {
                    "name": "A4",
                    "midi": 69,
                    "time": 67.6867200000004,
                    "velocity": 0.3543307086614173,
                    "duration": 0.42304199999999526
                },
                {
                    "name": "F#3",
                    "midi": 54,
                    "time": 69.3788880000004,
                    "velocity": 0.2992125984251969,
                    "duration": 0.21152100000000473
                },
                {
                    "name": "D4",
                    "midi": 62,
                    "time": 69.5904090000004,
                    "velocity": 0.25196850393700787,
                    "duration": 0.21152100000000473
                },
                {
                    "name": "D3",
                    "midi": 50,
                    "time": 69.80193000000041,
                    "velocity": 0.2992125984251969,
                    "duration": 0.21152100000000473
                },
                {
                    "name": "D4",
                    "midi": 62,
                    "time": 70.01345100000042,
                    "velocity": 0.25984251968503935,
                    "duration": 0.21152100000000473
                },
                {
                    "name": "E3",
                    "midi": 52,
                    "time": 70.22497200000042,
                    "velocity": 0.29133858267716534,
                    "duration": 0.21152100000000473
                },
                {
                    "name": "D4",
                    "midi": 62,
                    "time": 70.43649300000043,
                    "velocity": 0.25196850393700787,
                    "duration": 0.21152100000000473
                },
                {
                    "name": "A3",
                    "midi": 57,
                    "time": 70.64801400000043,
                    "velocity": 0.29133858267716534,
                    "duration": 0.05288025000000118
                },
                {
                    "name": "C#4",
                    "midi": 61,
                    "time": 70.85953500000043,
                    "velocity": 0.23622047244094488,
                    "duration": 0.05288025000000118
                },
                {
                    "name": "D4",
                    "midi": 62,
                    "time": 71.07105600000044,
                    "velocity": 0.33070866141732286,
                    "duration": 0.42304199999999526
                },
                {
                    "name": "D3",
                    "midi": 50,
                    "time": 71.07105600000044,
                    "velocity": 0.33070866141732286,
                    "duration": 0.42304199999999526
                },
                {
                    "name": "D4",
                    "midi": 62,
                    "time": 71.91714000000043,
                    "velocity": 0.29133858267716534,
                    "duration": 0.42304199999999526
                },
                {
                    "name": "F#4",
                    "midi": 66,
                    "time": 71.91714000000043,
                    "velocity": 0.3543307086614173,
                    "duration": 0.42304199999999526
                },
                {
                    "name": "G4",
                    "midi": 67,
                    "time": 72.34018200000042,
                    "velocity": 0.3543307086614173,
                    "duration": 0.42304199999999526
                },
                {
                    "name": "E4",
                    "midi": 64,
                    "time": 72.34018200000042,
                    "velocity": 0.29133858267716534,
                    "duration": 0.42304199999999526
                },
                {
                    "name": "A4",
                    "midi": 69,
                    "time": 72.76322400000042,
                    "velocity": 0.3543307086614173,
                    "duration": 0.42304199999999526
                },
                {
                    "name": "F#4",
                    "midi": 66,
                    "time": 72.76322400000042,
                    "velocity": 0.29133858267716534,
                    "duration": 0.42304199999999526
                },
                {
                    "name": "F#3",
                    "midi": 54,
                    "time": 74.45539200000042,
                    "velocity": 0.2992125984251969,
                    "duration": 0.21152100000000473
                },
                {
                    "name": "D4",
                    "midi": 62,
                    "time": 74.66691300000042,
                    "velocity": 0.25196850393700787,
                    "duration": 0.21152100000000473
                },
                {
                    "name": "D3",
                    "midi": 50,
                    "time": 74.87843400000042,
                    "velocity": 0.2992125984251969,
                    "duration": 0.21152100000000473
                },
                {
                    "name": "D4",
                    "midi": 62,
                    "time": 75.08995500000043,
                    "velocity": 0.25984251968503935,
                    "duration": 0.21152100000000473
                },
                {
                    "name": "E3",
                    "midi": 52,
                    "time": 75.30147600000043,
                    "velocity": 0.29133858267716534,
                    "duration": 0.21152100000000473
                },
                {
                    "name": "D4",
                    "midi": 62,
                    "time": 75.51299700000044,
                    "velocity": 0.25196850393700787,
                    "duration": 0.21152100000000473
                },
                {
                    "name": "A3",
                    "midi": 57,
                    "time": 75.72451800000044,
                    "velocity": 0.29133858267716534,
                    "duration": 0.21152100000000473
                },
                {
                    "name": "C#4",
                    "midi": 61,
                    "time": 75.93603900000045,
                    "velocity": 0.25196850393700787,
                    "duration": 0.21152100000000473
                },
                {
                    "name": "D4",
                    "midi": 62,
                    "time": 76.14756000000045,
                    "velocity": 0.29133858267716534,
                    "duration": 0.10576050000000237
                },
                {
                    "name": "F#4",
                    "midi": 66,
                    "time": 76.35908100000046,
                    "velocity": 0.2047244094488189,
                    "duration": 0.10576050000000237
                },
                {
                    "name": "D4",
                    "midi": 62,
                    "time": 76.57060200000046,
                    "velocity": 0.2755905511811024,
                    "duration": 0.10576050000000237
                },
                {
                    "name": "F#4",
                    "midi": 66,
                    "time": 76.78212300000047,
                    "velocity": 0.2204724409448819,
                    "duration": 0.10576050000000237
                },
                {
                    "name": "D4",
                    "midi": 62,
                    "time": 76.99364400000047,
                    "velocity": 0.28346456692913385,
                    "duration": 0.10576050000000237
                },
                {
                    "name": "F#4",
                    "midi": 66,
                    "time": 77.20516500000048,
                    "velocity": 0.2047244094488189,
                    "duration": 0.10576050000000237
                },
                {
                    "name": "D4",
                    "midi": 62,
                    "time": 77.41668600000048,
                    "velocity": 0.2755905511811024,
                    "duration": 0.10576050000000237
                },
                {
                    "name": "F#4",
                    "midi": 66,
                    "time": 77.62820700000049,
                    "velocity": 0.23622047244094488,
                    "duration": 0.10576050000000237
                },
                {
                    "name": "E4",
                    "midi": 64,
                    "time": 77.83972800000049,
                    "velocity": 0.29133858267716534,
                    "duration": 0.10576050000000237
                },
                {
                    "name": "G4",
                    "midi": 67,
                    "time": 78.0512490000005,
                    "velocity": 0.2283464566929134,
                    "duration": 0.10576050000000237
                },
                {
                    "name": "E4",
                    "midi": 64,
                    "time": 78.2627700000005,
                    "velocity": 0.29133858267716534,
                    "duration": 0.10576050000000237
                },
                {
                    "name": "G4",
                    "midi": 67,
                    "time": 78.4742910000005,
                    "velocity": 0.2283464566929134,
                    "duration": 0.10576050000000237
                },
                {
                    "name": "E4",
                    "midi": 64,
                    "time": 78.68581200000051,
                    "velocity": 0.33858267716535434,
                    "duration": 0.11633654999999976
                },
                {
                    "name": "F#4",
                    "midi": 66,
                    "time": 78.79157250000051,
                    "velocity": 0.2992125984251969,
                    "duration": 0.11633654999999976
                },
                {
                    "name": "G4",
                    "midi": 67,
                    "time": 78.89733300000051,
                    "velocity": 0.2992125984251969,
                    "duration": 0.11633654999999976
                },
                {
                    "name": "F#4",
                    "midi": 66,
                    "time": 79.00309350000052,
                    "velocity": 0.2992125984251969,
                    "duration": 0.11633654999999976
                },
                {
                    "name": "E4",
                    "midi": 64,
                    "time": 79.10885400000052,
                    "velocity": 0.2992125984251969,
                    "duration": 0.11633654999999976
                },
                {
                    "name": "D4",
                    "midi": 62,
                    "time": 79.21461450000052,
                    "velocity": 0.31496062992125984,
                    "duration": 0.11633654999999976
                },
                {
                    "name": "C#4",
                    "midi": 61,
                    "time": 79.32037500000052,
                    "velocity": 0.31496062992125984,
                    "duration": 0.11633654999999976
                },
                {
                    "name": "B3",
                    "midi": 59,
                    "time": 79.42613550000053,
                    "velocity": 0.31496062992125984,
                    "duration": 0.11633654999999976
                },
                {
                    "name": "A3",
                    "midi": 57,
                    "time": 79.53189600000053,
                    "velocity": 0.29133858267716534,
                    "duration": 0.10576050000000237
                },
                {
                    "name": "C#4",
                    "midi": 61,
                    "time": 79.74341700000053,
                    "velocity": 0.2047244094488189,
                    "duration": 0.10576050000000237
                },
                {
                    "name": "A3",
                    "midi": 57,
                    "time": 79.95493800000054,
                    "velocity": 0.2755905511811024,
                    "duration": 0.10576050000000237
                },
                {
                    "name": "C#4",
                    "midi": 61,
                    "time": 80.16645900000054,
                    "velocity": 0.2204724409448819,
                    "duration": 0.10576050000000237
                },
                {
                    "name": "A3",
                    "midi": 57,
                    "time": 80.37798000000055,
                    "velocity": 0.28346456692913385,
                    "duration": 0.10576050000000237
                },
                {
                    "name": "C#4",
                    "midi": 61,
                    "time": 80.58950100000055,
                    "velocity": 0.2047244094488189,
                    "duration": 0.10576050000000237
                },
                {
                    "name": "G3",
                    "midi": 55,
                    "time": 80.80102200000056,
                    "velocity": 0.2755905511811024,
                    "duration": 0.10576050000000237
                },
                {
                    "name": "C#4",
                    "midi": 61,
                    "time": 81.01254300000056,
                    "velocity": 0.23622047244094488,
                    "duration": 0.10576050000000237
                },
                {
                    "name": "F#3",
                    "midi": 54,
                    "time": 81.22406400000057,
                    "velocity": 0.29133858267716534,
                    "duration": 0.10576050000000237
                },
                {
                    "name": "D4",
                    "midi": 62,
                    "time": 81.43558500000057,
                    "velocity": 0.2283464566929134,
                    "duration": 0.10576050000000237
                },
                {
                    "name": "F#3",
                    "midi": 54,
                    "time": 81.64710600000058,
                    "velocity": 0.29133858267716534,
                    "duration": 0.10576050000000237
                },
                {
                    "name": "D4",
                    "midi": 62,
                    "time": 81.85862700000058,
                    "velocity": 0.2283464566929134,
                    "duration": 0.10576050000000237
                },
                {
                    "name": "F#3",
                    "midi": 54,
                    "time": 82.07014800000059,
                    "velocity": 0.33858267716535434,
                    "duration": 0.11633654999999976
                },
                {
                    "name": "D3",
                    "midi": 50,
                    "time": 82.17590850000059,
                    "velocity": 0.28346456692913385,
                    "duration": 0.11633654999999976
                },
                {
                    "name": "E3",
                    "midi": 52,
                    "time": 82.28166900000059,
                    "velocity": 0.29133858267716534,
                    "duration": 0.11633654999999976
                },
                {
                    "name": "F#3",
                    "midi": 54,
                    "time": 82.3874295000006,
                    "velocity": 0.2992125984251969,
                    "duration": 0.11633654999999976
                },
                {
                    "name": "G3",
                    "midi": 55,
                    "time": 82.4931900000006,
                    "velocity": 0.30708661417322836,
                    "duration": 0.11633654999999976
                },
                {
                    "name": "A3",
                    "midi": 57,
                    "time": 82.5989505000006,
                    "velocity": 0.31496062992125984,
                    "duration": 0.11633654999999976
                },
                {
                    "name": "B3",
                    "midi": 59,
                    "time": 82.7047110000006,
                    "velocity": 0.3228346456692913,
                    "duration": 0.11633654999999976
                },
                {
                    "name": "C#4",
                    "midi": 61,
                    "time": 82.8104715000006,
                    "velocity": 0.33070866141732286,
                    "duration": 0.11633654999999976
                },
                {
                    "name": "D4",
                    "midi": 62,
                    "time": 82.9162320000006,
                    "velocity": 0.3464566929133858,
                    "duration": 0.42304199999999526
                },
                {
                    "name": "A3",
                    "midi": 57,
                    "time": 83.9738370000006,
                    "velocity": 0.29133858267716534,
                    "duration": 0.10576050000000237
                },
                {
                    "name": "F#3",
                    "midi": 54,
                    "time": 83.9738370000006,
                    "velocity": 0.2440944881889764,
                    "duration": 0.10576050000000237
                },
                {
                    "name": "A3",
                    "midi": 57,
                    "time": 84.1853580000006,
                    "velocity": 0.29133858267716534,
                    "duration": 0.10576050000000237
                },
                {
                    "name": "F#3",
                    "midi": 54,
                    "time": 84.1853580000006,
                    "velocity": 0.2440944881889764,
                    "duration": 0.10576050000000237
                },
                {
                    "name": "A3",
                    "midi": 57,
                    "time": 84.39687900000061,
                    "velocity": 0.29133858267716534,
                    "duration": 0.10576050000000237
                },
                {
                    "name": "F#3",
                    "midi": 54,
                    "time": 84.39687900000061,
                    "velocity": 0.2440944881889764,
                    "duration": 0.10576050000000237
                },
                {
                    "name": "B3",
                    "midi": 59,
                    "time": 84.60840000000061,
                    "velocity": 0.3464566929133858,
                    "duration": 0.42304199999999526
                },
                {
                    "name": "G3",
                    "midi": 55,
                    "time": 84.60840000000061,
                    "velocity": 0.29133858267716534,
                    "duration": 0.42304199999999526
                },
                {
                    "name": "B3",
                    "midi": 59,
                    "time": 85.66600500000061,
                    "velocity": 0.28346456692913385,
                    "duration": 0.10576050000000237
                },
                {
                    "name": "G3",
                    "midi": 55,
                    "time": 85.66600500000061,
                    "velocity": 0.23622047244094488,
                    "duration": 0.10576050000000237
                },
                {
                    "name": "B3",
                    "midi": 59,
                    "time": 85.87752600000061,
                    "velocity": 0.28346456692913385,
                    "duration": 0.10576050000000237
                },
                {
                    "name": "G3",
                    "midi": 55,
                    "time": 85.87752600000061,
                    "velocity": 0.23622047244094488,
                    "duration": 0.10576050000000237
                },
                {
                    "name": "G#3",
                    "midi": 56,
                    "time": 86.08904700000062,
                    "velocity": 0.23622047244094488,
                    "duration": 0.10576050000000237
                },
                {
                    "name": "B3",
                    "midi": 59,
                    "time": 86.08904700000062,
                    "velocity": 0.28346456692913385,
                    "duration": 0.10576050000000237
                },
                {
                    "name": "A3",
                    "midi": 57,
                    "time": 86.30056800000062,
                    "velocity": 0.36220472440944884,
                    "duration": 0.21152100000000473
                },
                {
                    "name": "G3",
                    "midi": 55,
                    "time": 86.51208900000063,
                    "velocity": 0.31496062992125984,
                    "duration": 0.21152100000000473
                },
                {
                    "name": "F#3",
                    "midi": 54,
                    "time": 86.72361000000063,
                    "velocity": 0.31496062992125984,
                    "duration": 0.10576050000000237
                },
                {
                    "name": "D3",
                    "midi": 50,
                    "time": 86.93513100000064,
                    "velocity": 0.31496062992125984,
                    "duration": 0.10576050000000237
                },
                {
                    "name": "C#3",
                    "midi": 49,
                    "time": 87.14665200000064,
                    "velocity": 0.3937007874015748,
                    "duration": 0.21152100000000473
                },
                {
                    "name": "A2",
                    "midi": 45,
                    "time": 87.35817300000065,
                    "velocity": 0.3464566929133858,
                    "duration": 0.21152100000000473
                },
                {
                    "name": "D3",
                    "midi": 50,
                    "time": 87.56969400000065,
                    "velocity": 0.3464566929133858,
                    "duration": 0.10576050000000237
                },
                {
                    "name": "F#3",
                    "midi": 54,
                    "time": 87.78121500000066,
                    "velocity": 0.3464566929133858,
                    "duration": 0.10576050000000237
                },
                {
                    "name": "A3",
                    "midi": 57,
                    "time": 87.99273600000066,
                    "velocity": 0.4015748031496063,
                    "duration": 0.21152100000000473
                },
                {
                    "name": "G3",
                    "midi": 55,
                    "time": 88.20425700000067,
                    "velocity": 0.3464566929133858,
                    "duration": 0.21152100000000473
                },
                {
                    "name": "F#3",
                    "midi": 54,
                    "time": 88.41577800000067,
                    "velocity": 0.3543307086614173,
                    "duration": 0.10576050000000237
                },
                {
                    "name": "D3",
                    "midi": 50,
                    "time": 88.62729900000068,
                    "velocity": 0.3543307086614173,
                    "duration": 0.10576050000000237
                },
                {
                    "name": "C#3",
                    "midi": 49,
                    "time": 88.83882000000068,
                    "velocity": 0.4251968503937008,
                    "duration": 0.21152100000000473
                },
                {
                    "name": "A2",
                    "midi": 45,
                    "time": 89.05034100000069,
                    "velocity": 0.3700787401574803,
                    "duration": 0.21152100000000473
                },
                {
                    "name": "D3",
                    "midi": 50,
                    "time": 89.26186200000069,
                    "velocity": 0.3779527559055118,
                    "duration": 0.10576050000000237
                },
                {
                    "name": "F#3",
                    "midi": 54,
                    "time": 89.4733830000007,
                    "velocity": 0.3779527559055118,
                    "duration": 0.10576050000000237
                },
                {
                    "name": "A2",
                    "midi": 45,
                    "time": 89.6849040000007,
                    "velocity": 0.3937007874015748,
                    "duration": 0.21152100000000473
                },
                {
                    "name": "A3",
                    "midi": 57,
                    "time": 89.6849040000007,
                    "velocity": 0.47244094488188976,
                    "duration": 0.21152100000000473
                },
                {
                    "name": "E3",
                    "midi": 52,
                    "time": 89.6849040000007,
                    "velocity": 0.3937007874015748,
                    "duration": 0.21152100000000473
                },
                {
                    "name": "F#3",
                    "midi": 54,
                    "time": 90.10794600000071,
                    "velocity": 0.4015748031496063,
                    "duration": 0.21152100000000473
                },
                {
                    "name": "D3",
                    "midi": 50,
                    "time": 90.10794600000071,
                    "velocity": 0.4015748031496063,
                    "duration": 0.21152100000000473
                },
                {
                    "name": "A3",
                    "midi": 57,
                    "time": 90.10794600000071,
                    "velocity": 0.47244094488188976,
                    "duration": 0.21152100000000473
                },
                {
                    "name": "E3",
                    "midi": 52,
                    "time": 90.53098800000072,
                    "velocity": 0.4015748031496063,
                    "duration": 0.21152100000000473
                },
                {
                    "name": "A2",
                    "midi": 45,
                    "time": 90.53098800000072,
                    "velocity": 0.4015748031496063,
                    "duration": 0.21152100000000473
                },
                {
                    "name": "A3",
                    "midi": 57,
                    "time": 90.53098800000072,
                    "velocity": 0.48031496062992124,
                    "duration": 0.21152100000000473
                },
                {
                    "name": "D3",
                    "midi": 50,
                    "time": 90.95403000000073,
                    "velocity": 0.4094488188976378,
                    "duration": 0.21152100000000473
                },
                {
                    "name": "F#3",
                    "midi": 54,
                    "time": 90.95403000000073,
                    "velocity": 0.4094488188976378,
                    "duration": 0.21152100000000473
                },
                {
                    "name": "A3",
                    "midi": 57,
                    "time": 90.95403000000073,
                    "velocity": 0.4881889763779528,
                    "duration": 0.21152100000000473
                },
                {
                    "name": "A2",
                    "midi": 45,
                    "time": 91.58859300000073,
                    "velocity": 0.3543307086614173,
                    "duration": 0.07932037499999467
                },
                {
                    "name": "C#3",
                    "midi": 49,
                    "time": 91.58859300000073,
                    "velocity": 0.3543307086614173,
                    "duration": 0.07932037499999467
                },
                {
                    "name": "A3",
                    "midi": 57,
                    "time": 91.58859300000073,
                    "velocity": 0.4330708661417323,
                    "duration": 0.07932037499999467
                },
                {
                    "name": "E3",
                    "midi": 52,
                    "time": 91.58859300000073,
                    "velocity": 0.3543307086614173,
                    "duration": 0.07932037499999467
                },
                {
                    "name": "C#3",
                    "midi": 49,
                    "time": 91.80011400000072,
                    "velocity": 0.3543307086614173,
                    "duration": 0.07932037499999467
                },
                {
                    "name": "A3",
                    "midi": 57,
                    "time": 91.80011400000072,
                    "velocity": 0.4330708661417323,
                    "duration": 0.07932037499999467
                },
                {
                    "name": "E3",
                    "midi": 52,
                    "time": 91.80011400000072,
                    "velocity": 0.3543307086614173,
                    "duration": 0.07932037499999467
                },
                {
                    "name": "A2",
                    "midi": 45,
                    "time": 91.80011400000072,
                    "velocity": 0.3543307086614173,
                    "duration": 0.07932037499999467
                },
                {
                    "name": "C#3",
                    "midi": 49,
                    "time": 92.01163500000071,
                    "velocity": 0.3543307086614173,
                    "duration": 0.07932037499999467
                },
                {
                    "name": "E3",
                    "midi": 52,
                    "time": 92.01163500000071,
                    "velocity": 0.3543307086614173,
                    "duration": 0.07932037499999467
                },
                {
                    "name": "A3",
                    "midi": 57,
                    "time": 92.01163500000071,
                    "velocity": 0.4330708661417323,
                    "duration": 0.07932037499999467
                },
                {
                    "name": "A2",
                    "midi": 45,
                    "time": 92.01163500000071,
                    "velocity": 0.3543307086614173,
                    "duration": 0.07932037499999467
                },
                {
                    "name": "E3",
                    "midi": 52,
                    "time": 92.2231560000007,
                    "velocity": 0.3858267716535433,
                    "duration": 0.37016174999999407
                },
                {
                    "name": "A3",
                    "midi": 57,
                    "time": 92.2231560000007,
                    "velocity": 0.4566929133858268,
                    "duration": 0.37016174999999407
                },
                {
                    "name": "C#3",
                    "midi": 49,
                    "time": 92.2231560000007,
                    "velocity": 0.3858267716535433,
                    "duration": 0.37016174999999407
                },
                {
                    "name": "A2",
                    "midi": 45,
                    "time": 92.2231560000007,
                    "velocity": 0.3858267716535433,
                    "duration": 0.37016174999999407
                },
                {
                    "name": "A3",
                    "midi": 57,
                    "time": 93.06924000000069,
                    "velocity": 0.2677165354330709,
                    "duration": 0.21152100000000473
                },
                {
                    "name": "C#4",
                    "midi": 61,
                    "time": 93.2807610000007,
                    "velocity": 0.2125984251968504,
                    "duration": 0.21152100000000473
                },
                {
                    "name": "B3",
                    "midi": 59,
                    "time": 93.4922820000007,
                    "velocity": 0.23622047244094488,
                    "duration": 0.21152100000000473
                },
                {
                    "name": "D4",
                    "midi": 62,
                    "time": 93.7038030000007,
                    "velocity": 0.2125984251968504,
                    "duration": 0.21152100000000473
                },
                {
                    "name": "C#4",
                    "midi": 61,
                    "time": 93.91532400000071,
                    "velocity": 0.25196850393700787,
                    "duration": 0.21152100000000473
                },
                {
                    "name": "E4",
                    "midi": 64,
                    "time": 94.12684500000071,
                    "velocity": 0.2047244094488189,
                    "duration": 0.21152100000000473
                },
                {
                    "name": "A3",
                    "midi": 57,
                    "time": 94.33836600000072,
                    "velocity": 0.2283464566929134,
                    "duration": 0.21152100000000473
                },
                {
                    "name": "C#4",
                    "midi": 61,
                    "time": 94.54988700000072,
                    "velocity": 0.2047244094488189,
                    "duration": 0.21152100000000473
                },
                {
                    "name": "B3",
                    "midi": 59,
                    "time": 94.76140800000073,
                    "velocity": 0.2677165354330709,
                    "duration": 0.21152100000000473
                },
                {
                    "name": "F#4",
                    "midi": 66,
                    "time": 94.97292900000073,
                    "velocity": 0.2204724409448819,
                    "duration": 0.21152100000000473
                },
                {
                    "name": "D4",
                    "midi": 62,
                    "time": 95.18445000000074,
                    "velocity": 0.25196850393700787,
                    "duration": 0.21152100000000473
                },
                {
                    "name": "B3",
                    "midi": 59,
                    "time": 95.39597100000074,
                    "velocity": 0.2204724409448819,
                    "duration": 0.21152100000000473
                },
                {
                    "name": "G#3",
                    "midi": 56,
                    "time": 95.60749200000075,
                    "velocity": 0.2677165354330709,
                    "duration": 0.21152100000000473
                },
                {
                    "name": "B3",
                    "midi": 59,
                    "time": 95.81901300000075,
                    "velocity": 0.2283464566929134,
                    "duration": 0.21152100000000473
                },
                {
                    "name": "E3",
                    "midi": 52,
                    "time": 96.03053400000076,
                    "velocity": 0.23622047244094488,
                    "duration": 0.21152100000000473
                },
                {
                    "name": "D4",
                    "midi": 62,
                    "time": 96.24205500000076,
                    "velocity": 0.2204724409448819,
                    "duration": 0.21152100000000473
                },
                {
                    "name": "C#4",
                    "midi": 61,
                    "time": 96.45357600000077,
                    "velocity": 0.2677165354330709,
                    "duration": 0.21152100000000473
                },
                {
                    "name": "E4",
                    "midi": 64,
                    "time": 96.66509700000077,
                    "velocity": 0.2204724409448819,
                    "duration": 0.21152100000000473
                },
                {
                    "name": "G#3",
                    "midi": 56,
                    "time": 96.87661800000078,
                    "velocity": 0.23622047244094488,
                    "duration": 0.21152100000000473
                },
                {
                    "name": "E4",
                    "midi": 64,
                    "time": 97.08813900000078,
                    "velocity": 0.2204724409448819,
                    "duration": 0.21152100000000473
                },
                {
                    "name": "A3",
                    "midi": 57,
                    "time": 97.29966000000078,
                    "velocity": 0.2677165354330709,
                    "duration": 0.21152100000000473
                },
                {
                    "name": "E4",
                    "midi": 64,
                    "time": 97.51118100000079,
                    "velocity": 0.2047244094488189,
                    "duration": 0.21152100000000473
                },
                {
                    "name": "F#3",
                    "midi": 54,
                    "time": 97.7227020000008,
                    "velocity": 0.2283464566929134,
                    "duration": 0.21152100000000473
                },
                {
                    "name": "A3",
                    "midi": 57,
                    "time": 97.9342230000008,
                    "velocity": 0.2047244094488189,
                    "duration": 0.21152100000000473
                },
                {
                    "name": "E3",
                    "midi": 52,
                    "time": 98.1457440000008,
                    "velocity": 0.2677165354330709,
                    "duration": 0.21152100000000473
                },
                {
                    "name": "A3",
                    "midi": 57,
                    "time": 98.35726500000081,
                    "velocity": 0.2125984251968504,
                    "duration": 0.21152100000000473
                },
                {
                    "name": "C#4",
                    "midi": 61,
                    "time": 98.56878600000081,
                    "velocity": 0.23622047244094488,
                    "duration": 0.21152100000000473
                },
                {
                    "name": "A3",
                    "midi": 57,
                    "time": 98.78030700000082,
                    "velocity": 0.2125984251968504,
                    "duration": 0.21152100000000473
                },
                {
                    "name": "G#3",
                    "midi": 56,
                    "time": 98.99182800000082,
                    "velocity": 0.25984251968503935,
                    "duration": 0.42304199999999526
                },
                {
                    "name": "E3",
                    "midi": 52,
                    "time": 98.99182800000082,
                    "velocity": 0.25984251968503935,
                    "duration": 0.42304199999999526
                },
                {
                    "name": "A3",
                    "midi": 57,
                    "time": 99.83791200000081,
                    "velocity": 0.2677165354330709,
                    "duration": 0.21152100000000473
                },
                {
                    "name": "C#4",
                    "midi": 61,
                    "time": 100.04943300000082,
                    "velocity": 0.2125984251968504,
                    "duration": 0.21152100000000473
                },
                {
                    "name": "B3",
                    "midi": 59,
                    "time": 100.26095400000082,
                    "velocity": 0.23622047244094488,
                    "duration": 0.21152100000000473
                },
                {
                    "name": "D4",
                    "midi": 62,
                    "time": 100.47247500000083,
                    "velocity": 0.2125984251968504,
                    "duration": 0.21152100000000473
                },
                {
                    "name": "C#4",
                    "midi": 61,
                    "time": 100.68399600000083,
                    "velocity": 0.25196850393700787,
                    "duration": 0.21152100000000473
                },
                {
                    "name": "E4",
                    "midi": 64,
                    "time": 100.89551700000084,
                    "velocity": 0.2047244094488189,
                    "duration": 0.10576050000000237
                },
                {
                    "name": "A3",
                    "midi": 57,
                    "time": 101.10703800000084,
                    "velocity": 0.2283464566929134,
                    "duration": 0.21152100000000473
                },
                {
                    "name": "C#4",
                    "midi": 61,
                    "time": 101.31855900000085,
                    "velocity": 0.2047244094488189,
                    "duration": 0.10576050000000237
                },
                {
                    "name": "B3",
                    "midi": 59,
                    "time": 101.53008000000085,
                    "velocity": 0.2677165354330709,
                    "duration": 0.21152100000000473
                },
                {
                    "name": "F#4",
                    "midi": 66,
                    "time": 101.74160100000086,
                    "velocity": 0.2204724409448819,
                    "duration": 0.21152100000000473
                },
                {
                    "name": "D4",
                    "midi": 62,
                    "time": 101.95312200000086,
                    "velocity": 0.25196850393700787,
                    "duration": 0.21152100000000473
                },
                {
                    "name": "B3",
                    "midi": 59,
                    "time": 102.16464300000086,
                    "velocity": 0.2204724409448819,
                    "duration": 0.21152100000000473
                },
                {
                    "name": "G#3",
                    "midi": 56,
                    "time": 102.37616400000087,
                    "velocity": 0.2677165354330709,
                    "duration": 0.21152100000000473
                },
                {
                    "name": "B3",
                    "midi": 59,
                    "time": 102.58768500000087,
                    "velocity": 0.2283464566929134,
                    "duration": 0.10576050000000237
                },
                {
                    "name": "E3",
                    "midi": 52,
                    "time": 102.79920600000088,
                    "velocity": 0.23622047244094488,
                    "duration": 0.21152100000000473
                },
                {
                    "name": "G#3",
                    "midi": 56,
                    "time": 103.01072700000088,
                    "velocity": 0.2204724409448819,
                    "duration": 0.10576050000000237
                },
                {
                    "name": "A3",
                    "midi": 57,
                    "time": 103.22224800000089,
                    "velocity": 0.23622047244094488,
                    "duration": 0.42304199999999526
                },
                {
                    "name": "D4",
                    "midi": 62,
                    "time": 103.64529000000088,
                    "velocity": 0.23622047244094488,
                    "duration": 0.42304199999999526
                },
                {
                    "name": "D3",
                    "midi": 50,
                    "time": 103.64529000000088,
                    "velocity": 0.23622047244094488,
                    "duration": 0.42304199999999526
                },
                {
                    "name": "E3",
                    "midi": 52,
                    "time": 104.06833200000088,
                    "velocity": 0.23622047244094488,
                    "duration": 0.8460839999999905
                },
                {
                    "name": "C#4",
                    "midi": 61,
                    "time": 104.06833200000088,
                    "velocity": 0.23622047244094488,
                    "duration": 0.42304199999999526
                },
                {
                    "name": "B3",
                    "midi": 59,
                    "time": 104.49137400000087,
                    "velocity": 0.23622047244094488,
                    "duration": 0.42304199999999526
                },
                {
                    "name": "A3",
                    "midi": 57,
                    "time": 104.91441600000087,
                    "velocity": 0.2992125984251969,
                    "duration": 0.42304199999999526
                },
                {
                    "name": "A4",
                    "midi": 69,
                    "time": 105.54897900000087,
                    "velocity": 0.4015748031496063,
                    "duration": 0.10576050000000237
                },
                {
                    "name": "B4",
                    "midi": 71,
                    "time": 105.76050000000087,
                    "velocity": 0.4330708661417323,
                    "duration": 0.10576050000000237
                },
                {
                    "name": "A4",
                    "midi": 69,
                    "time": 105.97202100000088,
                    "velocity": 0.4015748031496063,
                    "duration": 0.10576050000000237
                },
                {
                    "name": "G#4",
                    "midi": 68,
                    "time": 106.18354200000088,
                    "velocity": 0.4566929133858268,
                    "duration": 0.10576050000000237
                },
                {
                    "name": "E4",
                    "midi": 64,
                    "time": 106.39506300000089,
                    "velocity": 0.41732283464566927,
                    "duration": 0.10576050000000237
                },
                {
                    "name": "A4",
                    "midi": 69,
                    "time": 106.6065840000009,
                    "velocity": 0.4330708661417323,
                    "duration": 0.42304199999999526
                },
                {
                    "name": "A3",
                    "midi": 57,
                    "time": 107.2411470000009,
                    "velocity": 0.4094488188976378,
                    "duration": 0.10576050000000237
                },
                {
                    "name": "B3",
                    "midi": 59,
                    "time": 107.4526680000009,
                    "velocity": 0.44881889763779526,
                    "duration": 0.10576050000000237
                },
                {
                    "name": "A3",
                    "midi": 57,
                    "time": 107.6641890000009,
                    "velocity": 0.4015748031496063,
                    "duration": 0.10576050000000237
                },
                {
                    "name": "G#3",
                    "midi": 56,
                    "time": 107.87571000000091,
                    "velocity": 0.44881889763779526,
                    "duration": 0.10576050000000237
                },
                {
                    "name": "E3",
                    "midi": 52,
                    "time": 108.08723100000091,
                    "velocity": 0.41732283464566927,
                    "duration": 0.10576050000000237
                },
                {
                    "name": "A3",
                    "midi": 57,
                    "time": 108.29875200000092,
                    "velocity": 0.4409448818897638,
                    "duration": 0.10576050000000237
                },
                {
                    "name": "E4",
                    "midi": 64,
                    "time": 108.40451250000092,
                    "velocity": 0.2755905511811024,
                    "duration": 0.10576050000000237
                },
                {
                    "name": "D#4",
                    "midi": 63,
                    "time": 108.51027300000092,
                    "velocity": 0.29133858267716534,
                    "duration": 0.10576050000000237
                },
                {
                    "name": "E4",
                    "midi": 64,
                    "time": 108.61603350000092,
                    "velocity": 0.2677165354330709,
                    "duration": 0.10576050000000237
                },
                {
                    "name": "F#4",
                    "midi": 66,
                    "time": 108.72179400000093,
                    "velocity": 0.31496062992125984,
                    "duration": 0.10576050000000237
                },
                {
                    "name": "E4",
                    "midi": 64,
                    "time": 108.82755450000093,
                    "velocity": 0.29133858267716534,
                    "duration": 0.10576050000000237
                },
                {
                    "name": "D#4",
                    "midi": 63,
                    "time": 108.93331500000093,
                    "velocity": 0.31496062992125984,
                    "duration": 0.10576050000000237
                },
                {
                    "name": "E4",
                    "midi": 64,
                    "time": 109.03907550000093,
                    "velocity": 0.31496062992125984,
                    "duration": 0.10576050000000237
                },
                {
                    "name": "D4",
                    "midi": 62,
                    "time": 109.14483600000094,
                    "velocity": 0.3700787401574803,
                    "duration": 0.10576050000000237
                },
                {
                    "name": "E4",
                    "midi": 64,
                    "time": 109.25059650000094,
                    "velocity": 0.30708661417322836,
                    "duration": 0.10576050000000237
                },
                {
                    "name": "D4",
                    "midi": 62,
                    "time": 109.35635700000094,
                    "velocity": 0.3228346456692913,
                    "duration": 0.10576050000000237
                },
                {
                    "name": "E4",
                    "midi": 64,
                    "time": 109.46211750000094,
                    "velocity": 0.30708661417322836,
                    "duration": 0.10576050000000237
                },
                {
                    "name": "D4",
                    "midi": 62,
                    "time": 109.56787800000095,
                    "velocity": 0.3858267716535433,
                    "duration": 0.10576050000000237
                },
                {
                    "name": "E4",
                    "midi": 64,
                    "time": 109.67363850000095,
                    "velocity": 0.30708661417322836,
                    "duration": 0.10576050000000237
                },
                {
                    "name": "D4",
                    "midi": 62,
                    "time": 109.77939900000095,
                    "velocity": 0.3228346456692913,
                    "duration": 0.10576050000000237
                },
                {
                    "name": "E4",
                    "midi": 64,
                    "time": 109.88515950000095,
                    "velocity": 0.30708661417322836,
                    "duration": 0.10576050000000237
                },
                {
                    "name": "C#4",
                    "midi": 61,
                    "time": 109.99092000000095,
                    "velocity": 0.30708661417322836,
                    "duration": 0.10576050000000237
                },
                {
                    "name": "E4",
                    "midi": 64,
                    "time": 110.09668050000096,
                    "velocity": 0.2755905511811024,
                    "duration": 0.10576050000000237
                },
                {
                    "name": "D#4",
                    "midi": 63,
                    "time": 110.20244100000096,
                    "velocity": 0.29133858267716534,
                    "duration": 0.10576050000000237
                },
                {
                    "name": "E4",
                    "midi": 64,
                    "time": 110.30820150000096,
                    "velocity": 0.2677165354330709,
                    "duration": 0.10576050000000237
                },
                {
                    "name": "F#4",
                    "midi": 66,
                    "time": 110.41396200000096,
                    "velocity": 0.31496062992125984,
                    "duration": 0.10576050000000237
                },
                {
                    "name": "E4",
                    "midi": 64,
                    "time": 110.51972250000097,
                    "velocity": 0.29133858267716534,
                    "duration": 0.10576050000000237
                },
                {
                    "name": "D#4",
                    "midi": 63,
                    "time": 110.62548300000097,
                    "velocity": 0.31496062992125984,
                    "duration": 0.10576050000000237
                },
                {
                    "name": "E4",
                    "midi": 64,
                    "time": 110.73124350000097,
                    "velocity": 0.31496062992125984,
                    "duration": 0.10576050000000237
                },
                {
                    "name": "D4",
                    "midi": 62,
                    "time": 110.83700400000097,
                    "velocity": 0.3700787401574803,
                    "duration": 0.10576050000000237
                },
                {
                    "name": "E4",
                    "midi": 64,
                    "time": 110.94276450000098,
                    "velocity": 0.30708661417322836,
                    "duration": 0.10576050000000237
                },
                {
                    "name": "D4",
                    "midi": 62,
                    "time": 111.04852500000098,
                    "velocity": 0.3228346456692913,
                    "duration": 0.10576050000000237
                },
                {
                    "name": "E4",
                    "midi": 64,
                    "time": 111.15428550000098,
                    "velocity": 0.30708661417322836,
                    "duration": 0.10576050000000237
                },
                {
                    "name": "D4",
                    "midi": 62,
                    "time": 111.26004600000098,
                    "velocity": 0.3858267716535433,
                    "duration": 0.10576050000000237
                },
                {
                    "name": "E4",
                    "midi": 64,
                    "time": 111.36580650000099,
                    "velocity": 0.30708661417322836,
                    "duration": 0.10576050000000237
                },
                {
                    "name": "D4",
                    "midi": 62,
                    "time": 111.47156700000099,
                    "velocity": 0.3228346456692913,
                    "duration": 0.10576050000000237
                },
                {
                    "name": "E4",
                    "midi": 64,
                    "time": 111.57732750000099,
                    "velocity": 0.30708661417322836,
                    "duration": 0.10576050000000237
                },
                {
                    "name": "C#4",
                    "midi": 61,
                    "time": 111.68308800000099,
                    "velocity": 0.3228346456692913,
                    "duration": 0.42304199999999526
                },
                {
                    "name": "C#4",
                    "midi": 61,
                    "time": 112.10613000000099,
                    "velocity": 0.2755905511811024,
                    "duration": 0.10576050000000237
                },
                {
                    "name": "A4",
                    "midi": 69,
                    "time": 112.21189050000099,
                    "velocity": 0.2283464566929134,
                    "duration": 0.10576050000000237
                },
                {
                    "name": "C#4",
                    "midi": 61,
                    "time": 112.31765100000099,
                    "velocity": 0.2283464566929134,
                    "duration": 0.10576050000000237
                },
                {
                    "name": "A4",
                    "midi": 69,
                    "time": 112.423411500001,
                    "velocity": 0.2283464566929134,
                    "duration": 0.10576050000000237
                },
                {
                    "name": "B3",
                    "midi": 59,
                    "time": 112.529172000001,
                    "velocity": 0.2755905511811024,
                    "duration": 0.10576050000000237
                },
                {
                    "name": "A4",
                    "midi": 69,
                    "time": 112.634932500001,
                    "velocity": 0.23622047244094488,
                    "duration": 0.10576050000000237
                },
                {
                    "name": "B3",
                    "midi": 59,
                    "time": 112.740693000001,
                    "velocity": 0.23622047244094488,
                    "duration": 0.10576050000000237
                },
                {
                    "name": "A4",
                    "midi": 69,
                    "time": 112.846453500001,
                    "velocity": 0.23622047244094488,
                    "duration": 0.10576050000000237
                },
                {
                    "name": "A3",
                    "midi": 57,
                    "time": 112.952214000001,
                    "velocity": 0.2755905511811024,
                    "duration": 0.10576050000000237
                },
                {
                    "name": "A4",
                    "midi": 69,
                    "time": 113.05797450000101,
                    "velocity": 0.2440944881889764,
                    "duration": 0.10576050000000237
                },
                {
                    "name": "A3",
                    "midi": 57,
                    "time": 113.16373500000101,
                    "velocity": 0.2440944881889764,
                    "duration": 0.10576050000000237
                },
                {
                    "name": "A4",
                    "midi": 69,
                    "time": 113.26949550000101,
                    "velocity": 0.2440944881889764,
                    "duration": 0.10576050000000237
                },
                {
                    "name": "D4",
                    "midi": 62,
                    "time": 113.37525600000102,
                    "velocity": 0.2755905511811024,
                    "duration": 0.10576050000000237
                },
                {
                    "name": "A4",
                    "midi": 69,
                    "time": 113.48101650000102,
                    "velocity": 0.23622047244094488,
                    "duration": 0.10576050000000237
                },
                {
                    "name": "G#4",
                    "midi": 68,
                    "time": 113.58677700000102,
                    "velocity": 0.23622047244094488,
                    "duration": 0.10576050000000237
                },
                {
                    "name": "A4",
                    "midi": 69,
                    "time": 113.69253750000102,
                    "velocity": 0.23622047244094488,
                    "duration": 0.10576050000000237
                },
                {
                    "name": "D4",
                    "midi": 62,
                    "time": 113.79829800000103,
                    "velocity": 0.2755905511811024,
                    "duration": 0.10576050000000237
                },
                {
                    "name": "A4",
                    "midi": 69,
                    "time": 113.90405850000103,
                    "velocity": 0.23622047244094488,
                    "duration": 0.10576050000000237
                },
                {
                    "name": "G#4",
                    "midi": 68,
                    "time": 114.00981900000103,
                    "velocity": 0.23622047244094488,
                    "duration": 0.10576050000000237
                },
                {
                    "name": "A4",
                    "midi": 69,
                    "time": 114.11557950000103,
                    "velocity": 0.23622047244094488,
                    "duration": 0.10576050000000237
                },
                {
                    "name": "D4",
                    "midi": 62,
                    "time": 114.22134000000104,
                    "velocity": 0.23622047244094488,
                    "duration": 0.10576050000000237
                },
                {
                    "name": "A4",
                    "midi": 69,
                    "time": 114.32710050000104,
                    "velocity": 0.25196850393700787,
                    "duration": 0.10576050000000237
                },
                {
                    "name": "G#4",
                    "midi": 68,
                    "time": 114.43286100000104,
                    "velocity": 0.25196850393700787,
                    "duration": 0.10576050000000237
                },
                {
                    "name": "A4",
                    "midi": 69,
                    "time": 114.53862150000104,
                    "velocity": 0.25196850393700787,
                    "duration": 0.10576050000000237
                },
                {
                    "name": "D4",
                    "midi": 62,
                    "time": 114.64438200000104,
                    "velocity": 0.2677165354330709,
                    "duration": 0.10576050000000237
                },
                {
                    "name": "A4",
                    "midi": 69,
                    "time": 114.75014250000105,
                    "velocity": 0.23622047244094488,
                    "duration": 0.10576050000000237
                },
                {
                    "name": "G#4",
                    "midi": 68,
                    "time": 114.85590300000105,
                    "velocity": 0.23622047244094488,
                    "duration": 0.10576050000000237
                },
                {
                    "name": "A4",
                    "midi": 69,
                    "time": 114.96166350000105,
                    "velocity": 0.23622047244094488,
                    "duration": 0.10576050000000237
                },
                {
                    "name": "C#4",
                    "midi": 61,
                    "time": 115.06742400000105,
                    "velocity": 0.29133858267716534,
                    "duration": 0.10576050000000237
                },
                {
                    "name": "A4",
                    "midi": 69,
                    "time": 115.17318450000106,
                    "velocity": 0.29133858267716534,
                    "duration": 0.10576050000000237
                },
                {
                    "name": "G#4",
                    "midi": 68,
                    "time": 115.27894500000106,
                    "velocity": 0.2204724409448819,
                    "duration": 0.10576050000000237
                },
                {
                    "name": "A4",
                    "midi": 69,
                    "time": 115.38470550000106,
                    "velocity": 0.2204724409448819,
                    "duration": 0.10576050000000237
                },
                {
                    "name": "C#4",
                    "midi": 61,
                    "time": 115.49046600000106,
                    "velocity": 0.3543307086614173,
                    "duration": 0.10576050000000237
                },
                {
                    "name": "A4",
                    "midi": 69,
                    "time": 115.59622650000107,
                    "velocity": 0.29133858267716534,
                    "duration": 0.10576050000000237
                },
                {
                    "name": "C#4",
                    "midi": 61,
                    "time": 115.70198700000107,
                    "velocity": 0.29133858267716534,
                    "duration": 0.10576050000000237
                },
                {
                    "name": "A4",
                    "midi": 69,
                    "time": 115.80774750000107,
                    "velocity": 0.29133858267716534,
                    "duration": 0.10576050000000237
                },
                {
                    "name": "B3",
                    "midi": 59,
                    "time": 115.91350800000107,
                    "velocity": 0.3543307086614173,
                    "duration": 0.10576050000000237
                },
                {
                    "name": "A4",
                    "midi": 69,
                    "time": 116.01926850000108,
                    "velocity": 0.30708661417322836,
                    "duration": 0.10576050000000237
                },
                {
                    "name": "B3",
                    "midi": 59,
                    "time": 116.12502900000108,
                    "velocity": 0.30708661417322836,
                    "duration": 0.10576050000000237
                },
                {
                    "name": "A4",
                    "midi": 69,
                    "time": 116.23078950000108,
                    "velocity": 0.30708661417322836,
                    "duration": 0.10576050000000237
                },
                {
                    "name": "A3",
                    "midi": 57,
                    "time": 116.33655000000108,
                    "velocity": 0.3543307086614173,
                    "duration": 0.10576050000000237
                },
                {
                    "name": "A4",
                    "midi": 69,
                    "time": 116.44231050000108,
                    "velocity": 0.31496062992125984,
                    "duration": 0.10576050000000237
                },
                {
                    "name": "A3",
                    "midi": 57,
                    "time": 116.54807100000109,
                    "velocity": 0.31496062992125984,
                    "duration": 0.10576050000000237
                },
                {
                    "name": "A4",
                    "midi": 69,
                    "time": 116.65383150000109,
                    "velocity": 0.31496062992125984,
                    "duration": 0.10576050000000237
                },
                {
                    "name": "D3",
                    "midi": 50,
                    "time": 116.75959200000109,
                    "velocity": 0.3543307086614173,
                    "duration": 0.10576050000000237
                },
                {
                    "name": "B3",
                    "midi": 59,
                    "time": 116.8653525000011,
                    "velocity": 0.30708661417322836,
                    "duration": 0.10576050000000237
                },
                {
                    "name": "F#3",
                    "midi": 54,
                    "time": 116.9711130000011,
                    "velocity": 0.30708661417322836,
                    "duration": 0.10576050000000237
                },
                {
                    "name": "B3",
                    "midi": 59,
                    "time": 117.0768735000011,
                    "velocity": 0.30708661417322836,
                    "duration": 0.10576050000000237
                },
                {
                    "name": "D3",
                    "midi": 50,
                    "time": 117.1826340000011,
                    "velocity": 0.3543307086614173,
                    "duration": 0.10576050000000237
                },
                {
                    "name": "B3",
                    "midi": 59,
                    "time": 117.2883945000011,
                    "velocity": 0.30708661417322836,
                    "duration": 0.10576050000000237
                },
                {
                    "name": "F#3",
                    "midi": 54,
                    "time": 117.3941550000011,
                    "velocity": 0.30708661417322836,
                    "duration": 0.10576050000000237
                },
                {
                    "name": "B3",
                    "midi": 59,
                    "time": 117.49991550000111,
                    "velocity": 0.30708661417322836,
                    "duration": 0.10576050000000237
                },
                {
                    "name": "E3",
                    "midi": 52,
                    "time": 117.60567600000111,
                    "velocity": 0.30708661417322836,
                    "duration": 0.10576050000000237
                },
                {
                    "name": "C#4",
                    "midi": 61,
                    "time": 117.71143650000111,
                    "velocity": 0.3228346456692913,
                    "duration": 0.10576050000000237
                },
                {
                    "name": "A3",
                    "midi": 57,
                    "time": 117.81719700000112,
                    "velocity": 0.3228346456692913,
                    "duration": 0.10576050000000237
                },
                {
                    "name": "C#4",
                    "midi": 61,
                    "time": 117.92295750000112,
                    "velocity": 0.3228346456692913,
                    "duration": 0.10576050000000237
                },
                {
                    "name": "E3",
                    "midi": 52,
                    "time": 118.02871800000112,
                    "velocity": 0.3464566929133858,
                    "duration": 0.10576050000000237
                },
                {
                    "name": "D4",
                    "midi": 62,
                    "time": 118.13447850000112,
                    "velocity": 0.30708661417322836,
                    "duration": 0.10576050000000237
                },
                {
                    "name": "G#3",
                    "midi": 56,
                    "time": 118.24023900000113,
                    "velocity": 0.30708661417322836,
                    "duration": 0.10576050000000237
                },
                {
                    "name": "D4",
                    "midi": 62,
                    "time": 118.34599950000113,
                    "velocity": 0.30708661417322836,
                    "duration": 0.10576050000000237
                },
                {
                    "name": "A3",
                    "midi": 57,
                    "time": 118.45176000000113,
                    "velocity": 0.3779527559055118,
                    "duration": 0.10576050000000237
                },
                {
                    "name": "E4",
                    "midi": 64,
                    "time": 118.55752050000113,
                    "velocity": 0.33070866141732286,
                    "duration": 0.10576050000000237
                },
                {
                    "name": "C#4",
                    "midi": 61,
                    "time": 118.66328100000113,
                    "velocity": 0.28346456692913385,
                    "duration": 0.10576050000000237
                },
                {
                    "name": "E4",
                    "midi": 64,
                    "time": 118.76904150000114,
                    "velocity": 0.28346456692913385,
                    "duration": 0.10576050000000237
                },
                {
                    "name": "C#4",
                    "midi": 61,
                    "time": 118.87480200000114,
                    "velocity": 0.2755905511811024,
                    "duration": 0.10576050000000237
                },
                {
                    "name": "A4",
                    "midi": 69,
                    "time": 118.98056250000114,
                    "velocity": 0.2283464566929134,
                    "duration": 0.10576050000000237
                },
                {
                    "name": "C#4",
                    "midi": 61,
                    "time": 119.08632300000114,
                    "velocity": 0.2283464566929134,
                    "duration": 0.10576050000000237
                },
                {
                    "name": "A4",
                    "midi": 69,
                    "time": 119.19208350000115,
                    "velocity": 0.2283464566929134,
                    "duration": 0.10576050000000237
                },
                {
                    "name": "B3",
                    "midi": 59,
                    "time": 119.29784400000115,
                    "velocity": 0.2755905511811024,
                    "duration": 0.10576050000000237
                },
                {
                    "name": "A4",
                    "midi": 69,
                    "time": 119.40360450000115,
                    "velocity": 0.23622047244094488,
                    "duration": 0.10576050000000237
                },
                {
                    "name": "B3",
                    "midi": 59,
                    "time": 119.50936500000115,
                    "velocity": 0.23622047244094488,
                    "duration": 0.10576050000000237
                },
                {
                    "name": "A4",
                    "midi": 69,
                    "time": 119.61512550000116,
                    "velocity": 0.23622047244094488,
                    "duration": 0.10576050000000237
                },
                {
                    "name": "A3",
                    "midi": 57,
                    "time": 119.72088600000116,
                    "velocity": 0.2755905511811024,
                    "duration": 0.10576050000000237
                },
                {
                    "name": "A4",
                    "midi": 69,
                    "time": 119.82664650000116,
                    "velocity": 0.2440944881889764,
                    "duration": 0.10576050000000237
                },
                {
                    "name": "A3",
                    "midi": 57,
                    "time": 119.93240700000116,
                    "velocity": 0.2440944881889764,
                    "duration": 0.10576050000000237
                },
                {
                    "name": "A4",
                    "midi": 69,
                    "time": 120.03816750000117,
                    "velocity": 0.2440944881889764,
                    "duration": 0.10576050000000237
                },
                {
                    "name": "D4",
                    "midi": 62,
                    "time": 120.14392800000117,
                    "velocity": 0.2755905511811024,
                    "duration": 0.10576050000000237
                },
                {
                    "name": "A4",
                    "midi": 69,
                    "time": 120.24968850000117,
                    "velocity": 0.23622047244094488,
                    "duration": 0.10576050000000237
                },
                {
                    "name": "G#4",
                    "midi": 68,
                    "time": 120.35544900000117,
                    "velocity": 0.23622047244094488,
                    "duration": 0.10576050000000237
                },
                {
                    "name": "A4",
                    "midi": 69,
                    "time": 120.46120950000117,
                    "velocity": 0.23622047244094488,
                    "duration": 0.10576050000000237
                },
                {
                    "name": "D4",
                    "midi": 62,
                    "time": 120.56697000000118,
                    "velocity": 0.2755905511811024,
                    "duration": 0.10576050000000237
                },
                {
                    "name": "A4",
                    "midi": 69,
                    "time": 120.67273050000118,
                    "velocity": 0.23622047244094488,
                    "duration": 0.10576050000000237
                },
                {
                    "name": "G#4",
                    "midi": 68,
                    "time": 120.77849100000118,
                    "velocity": 0.23622047244094488,
                    "duration": 0.10576050000000237
                },
                {
                    "name": "A4",
                    "midi": 69,
                    "time": 120.88425150000118,
                    "velocity": 0.23622047244094488,
                    "duration": 0.10576050000000237
                },
                {
                    "name": "D4",
                    "midi": 62,
                    "time": 120.99001200000119,
                    "velocity": 0.23622047244094488,
                    "duration": 0.10576050000000237
                },
                {
                    "name": "A4",
                    "midi": 69,
                    "time": 121.09577250000119,
                    "velocity": 0.25196850393700787,
                    "duration": 0.10576050000000237
                },
                {
                    "name": "G#4",
                    "midi": 68,
                    "time": 121.20153300000119,
                    "velocity": 0.25196850393700787,
                    "duration": 0.10576050000000237
                },
                {
                    "name": "A4",
                    "midi": 69,
                    "time": 121.3072935000012,
                    "velocity": 0.25196850393700787,
                    "duration": 0.10576050000000237
                },
                {
                    "name": "D4",
                    "midi": 62,
                    "time": 121.4130540000012,
                    "velocity": 0.2677165354330709,
                    "duration": 0.10576050000000237
                },
                {
                    "name": "A4",
                    "midi": 69,
                    "time": 121.5188145000012,
                    "velocity": 0.23622047244094488,
                    "duration": 0.10576050000000237
                },
                {
                    "name": "G#4",
                    "midi": 68,
                    "time": 121.6245750000012,
                    "velocity": 0.23622047244094488,
                    "duration": 0.10576050000000237
                },
                {
                    "name": "A4",
                    "midi": 69,
                    "time": 121.7303355000012,
                    "velocity": 0.23622047244094488,
                    "duration": 0.10576050000000237
                },
                {
                    "name": "C#4",
                    "midi": 61,
                    "time": 121.8360960000012,
                    "velocity": 0.29133858267716534,
                    "duration": 0.10576050000000237
                },
                {
                    "name": "A4",
                    "midi": 69,
                    "time": 121.94185650000121,
                    "velocity": 0.29133858267716534,
                    "duration": 0.10576050000000237
                },
                {
                    "name": "G#4",
                    "midi": 68,
                    "time": 122.04761700000121,
                    "velocity": 0.2204724409448819,
                    "duration": 0.10576050000000237
                },
                {
                    "name": "A4",
                    "midi": 69,
                    "time": 122.15337750000121,
                    "velocity": 0.2204724409448819,
                    "duration": 0.10576050000000237
                },
                {
                    "name": "C#4",
                    "midi": 61,
                    "time": 122.25913800000122,
                    "velocity": 0.3543307086614173,
                    "duration": 0.10576050000000237
                },
                {
                    "name": "A4",
                    "midi": 69,
                    "time": 122.36489850000122,
                    "velocity": 0.29133858267716534,
                    "duration": 0.10576050000000237
                },
                {
                    "name": "C#4",
                    "midi": 61,
                    "time": 122.47065900000122,
                    "velocity": 0.29133858267716534,
                    "duration": 0.10576050000000237
                },
                {
                    "name": "A4",
                    "midi": 69,
                    "time": 122.57641950000122,
                    "velocity": 0.29133858267716534,
                    "duration": 0.10576050000000237
                },
                {
                    "name": "B3",
                    "midi": 59,
                    "time": 122.68218000000122,
                    "velocity": 0.3543307086614173,
                    "duration": 0.10576050000000237
                },
                {
                    "name": "A4",
                    "midi": 69,
                    "time": 122.78794050000123,
                    "velocity": 0.30708661417322836,
                    "duration": 0.10576050000000237
                },
                {
                    "name": "B3",
                    "midi": 59,
                    "time": 122.89370100000123,
                    "velocity": 0.30708661417322836,
                    "duration": 0.10576050000000237
                },
                {
                    "name": "A4",
                    "midi": 69,
                    "time": 122.99946150000123,
                    "velocity": 0.30708661417322836,
                    "duration": 0.10576050000000237
                },
                {
                    "name": "A3",
                    "midi": 57,
                    "time": 123.10522200000123,
                    "velocity": 0.3543307086614173,
                    "duration": 0.10576050000000237
                },
                {
                    "name": "A4",
                    "midi": 69,
                    "time": 123.21098250000124,
                    "velocity": 0.31496062992125984,
                    "duration": 0.10576050000000237
                },
                {
                    "name": "A3",
                    "midi": 57,
                    "time": 123.31674300000124,
                    "velocity": 0.31496062992125984,
                    "duration": 0.10576050000000237
                },
                {
                    "name": "A4",
                    "midi": 69,
                    "time": 123.42250350000124,
                    "velocity": 0.31496062992125984,
                    "duration": 0.10576050000000237
                },
                {
                    "name": "D3",
                    "midi": 50,
                    "time": 123.52826400000124,
                    "velocity": 0.3543307086614173,
                    "duration": 0.10576050000000237
                },
                {
                    "name": "B3",
                    "midi": 59,
                    "time": 123.63402450000125,
                    "velocity": 0.30708661417322836,
                    "duration": 0.10576050000000237
                },
                {
                    "name": "F#3",
                    "midi": 54,
                    "time": 123.73978500000125,
                    "velocity": 0.30708661417322836,
                    "duration": 0.10576050000000237
                },
                {
                    "name": "B3",
                    "midi": 59,
                    "time": 123.84554550000125,
                    "velocity": 0.30708661417322836,
                    "duration": 0.10576050000000237
                },
                {
                    "name": "D3",
                    "midi": 50,
                    "time": 123.95130600000125,
                    "velocity": 0.3543307086614173,
                    "duration": 0.10576050000000237
                },
                {
                    "name": "B3",
                    "midi": 59,
                    "time": 124.05706650000126,
                    "velocity": 0.30708661417322836,
                    "duration": 0.10576050000000237
                },
                {
                    "name": "F#3",
                    "midi": 54,
                    "time": 124.16282700000126,
                    "velocity": 0.30708661417322836,
                    "duration": 0.10576050000000237
                },
                {
                    "name": "B3",
                    "midi": 59,
                    "time": 124.26858750000126,
                    "velocity": 0.30708661417322836,
                    "duration": 0.10576050000000237
                },
                {
                    "name": "E3",
                    "midi": 52,
                    "time": 124.37434800000126,
                    "velocity": 0.30708661417322836,
                    "duration": 0.10576050000000237
                },
                {
                    "name": "C#4",
                    "midi": 61,
                    "time": 124.48010850000126,
                    "velocity": 0.3228346456692913,
                    "duration": 0.10576050000000237
                },
                {
                    "name": "A3",
                    "midi": 57,
                    "time": 124.58586900000127,
                    "velocity": 0.3228346456692913,
                    "duration": 0.10576050000000237
                },
                {
                    "name": "C#4",
                    "midi": 61,
                    "time": 124.69162950000127,
                    "velocity": 0.3228346456692913,
                    "duration": 0.10576050000000237
                },
                {
                    "name": "E3",
                    "midi": 52,
                    "time": 124.79739000000127,
                    "velocity": 0.3464566929133858,
                    "duration": 0.10576050000000237
                },
                {
                    "name": "D4",
                    "midi": 62,
                    "time": 124.90315050000127,
                    "velocity": 0.30708661417322836,
                    "duration": 0.10576050000000237
                },
                {
                    "name": "G#3",
                    "midi": 56,
                    "time": 125.00891100000128,
                    "velocity": 0.30708661417322836,
                    "duration": 0.10576050000000237
                },
                {
                    "name": "D4",
                    "midi": 62,
                    "time": 125.11467150000128,
                    "velocity": 0.30708661417322836,
                    "duration": 0.10576050000000237
                },
                {
                    "name": "A3",
                    "midi": 57,
                    "time": 125.22043200000128,
                    "velocity": 0.3543307086614173,
                    "duration": 0.42304199999999526
                },
                {
                    "name": "C#4",
                    "midi": 61,
                    "time": 125.22043200000128,
                    "velocity": 0.4251968503937008,
                    "duration": 0.42304199999999526
                },
                {
                    "name": "G#3",
                    "midi": 56,
                    "time": 125.85499500000128,
                    "velocity": 0.36220472440944884,
                    "duration": 0.10576050000000237
                },
                {
                    "name": "E3",
                    "midi": 52,
                    "time": 125.85499500000128,
                    "velocity": 0.36220472440944884,
                    "duration": 0.10576050000000237
                },
                {
                    "name": "B3",
                    "midi": 59,
                    "time": 125.85499500000128,
                    "velocity": 0.4330708661417323,
                    "duration": 0.10576050000000237
                },
                {
                    "name": "A3",
                    "midi": 57,
                    "time": 126.06651600000129,
                    "velocity": 0.3543307086614173,
                    "duration": 0.42304199999999526
                },
                {
                    "name": "C#4",
                    "midi": 61,
                    "time": 126.06651600000129,
                    "velocity": 0.4251968503937008,
                    "duration": 0.42304199999999526
                },
                {
                    "name": "E3",
                    "midi": 52,
                    "time": 126.70107900000129,
                    "velocity": 0.36220472440944884,
                    "duration": 0.10576050000000237
                },
                {
                    "name": "B3",
                    "midi": 59,
                    "time": 126.70107900000129,
                    "velocity": 0.4330708661417323,
                    "duration": 0.10576050000000237
                },
                {
                    "name": "G#3",
                    "midi": 56,
                    "time": 126.70107900000129,
                    "velocity": 0.36220472440944884,
                    "duration": 0.10576050000000237
                },
                {
                    "name": "A3",
                    "midi": 57,
                    "time": 126.91260000000129,
                    "velocity": 0.4094488188976378,
                    "duration": 0.21152100000000473
                },
                {
                    "name": "C#4",
                    "midi": 61,
                    "time": 126.91260000000129,
                    "velocity": 0.49606299212598426,
                    "duration": 0.21152100000000473
                },
                {
                    "name": "F2",
                    "midi": 41,
                    "time": 127.3356420000013,
                    "velocity": 0.4094488188976378,
                    "duration": 0.21152100000000473
                },
                {
                    "name": "F3",
                    "midi": 53,
                    "time": 127.3356420000013,
                    "velocity": 0.49606299212598426,
                    "duration": 0.21152100000000473
                },
                {
                    "name": "F#2",
                    "midi": 42,
                    "time": 127.75868400000131,
                    "velocity": 0.4094488188976378,
                    "duration": 0.21152100000000473
                },
                {
                    "name": "F#3",
                    "midi": 54,
                    "time": 127.75868400000131,
                    "velocity": 0.49606299212598426,
                    "duration": 0.21152100000000473
                },
                {
                    "name": "D3",
                    "midi": 50,
                    "time": 128.60476800000131,
                    "velocity": 0.31496062992125984,
                    "duration": 0.8460839999999905
                },
                {
                    "name": "E3",
                    "midi": 52,
                    "time": 129.4508520000013,
                    "velocity": 0.31496062992125984,
                    "duration": 0.8460839999999905
                },
                {
                    "name": "A3",
                    "midi": 57,
                    "time": 130.2969360000013,
                    "velocity": 0.30708661417322836,
                    "duration": 0.42304200000000947
                },
                {
                    "name": "E3",
                    "midi": 52,
                    "time": 130.7199780000013,
                    "velocity": 0.30708661417322836,
                    "duration": 0.42304200000000947
                },
                {
                    "name": "A2",
                    "midi": 45,
                    "time": 131.14302000000131,
                    "velocity": 0.2755905511811024,
                    "duration": 0.42304200000000947
                },
                {
                    "name": "B2",
                    "midi": 47,
                    "time": 133.68127200000131,
                    "velocity": 0.3464566929133858,
                    "duration": 1.6921680000000094
                },
                {
                    "name": "B3",
                    "midi": 59,
                    "time": 133.68127200000131,
                    "velocity": 0.3464566929133858,
                    "duration": 1.6921680000000094
                },
                {
                    "name": "B4",
                    "midi": 71,
                    "time": 135.79648200000133,
                    "velocity": 0.33858267716535434,
                    "duration": 0.21152100000000473
                },
                {
                    "name": "G4",
                    "midi": 67,
                    "time": 135.79648200000133,
                    "velocity": 0.28346456692913385,
                    "duration": 0.21152100000000473
                },
                {
                    "name": "D#4",
                    "midi": 63,
                    "time": 136.64256600000135,
                    "velocity": 0.28346456692913385,
                    "duration": 0.21152100000000473
                },
                {
                    "name": "B4",
                    "midi": 71,
                    "time": 136.64256600000135,
                    "velocity": 0.33858267716535434,
                    "duration": 0.21152100000000473
                },
                {
                    "name": "B2",
                    "midi": 47,
                    "time": 137.06560800000136,
                    "velocity": 0.5433070866141733,
                    "duration": 0.21152100000000473
                },
                {
                    "name": "A2",
                    "midi": 45,
                    "time": 137.27712900000137,
                    "velocity": 0.4881889763779528,
                    "duration": 0.10576050000000237
                },
                {
                    "name": "A2",
                    "midi": 45,
                    "time": 137.48865000000137,
                    "velocity": 0.5275590551181102,
                    "duration": 0.21152100000000473
                },
                {
                    "name": "G2",
                    "midi": 43,
                    "time": 137.70017100000138,
                    "velocity": 0.4645669291338583,
                    "duration": 0.10576050000000237
                },
                {
                    "name": "G2",
                    "midi": 43,
                    "time": 137.91169200000138,
                    "velocity": 0.48031496062992124,
                    "duration": 0.21152100000000473
                },
                {
                    "name": "F#2",
                    "midi": 42,
                    "time": 138.12321300000139,
                    "velocity": 0.4094488188976378,
                    "duration": 0.10576050000000237
                },
                {
                    "name": "F#2",
                    "midi": 42,
                    "time": 138.3347340000014,
                    "velocity": 0.4015748031496063,
                    "duration": 0.21152100000000473
                },
                {
                    "name": "E2",
                    "midi": 40,
                    "time": 138.5462550000014,
                    "velocity": 0.3543307086614173,
                    "duration": 0.10576050000000237
                },
                {
                    "name": "A2",
                    "midi": 45,
                    "time": 140.4499440000014,
                    "velocity": 0.3464566929133858,
                    "duration": 1.6921680000000094
                },
                {
                    "name": "A3",
                    "midi": 57,
                    "time": 140.4499440000014,
                    "velocity": 0.3464566929133858,
                    "duration": 1.6921680000000094
                },
                {
                    "name": "F#4",
                    "midi": 66,
                    "time": 142.56515400000143,
                    "velocity": 0.28346456692913385,
                    "duration": 0.21152100000000473
                },
                {
                    "name": "A4",
                    "midi": 69,
                    "time": 142.56515400000143,
                    "velocity": 0.33858267716535434,
                    "duration": 0.21152100000000473
                },
                {
                    "name": "A4",
                    "midi": 69,
                    "time": 143.41123800000145,
                    "velocity": 0.33858267716535434,
                    "duration": 0.21152100000000473
                },
                {
                    "name": "C#4",
                    "midi": 61,
                    "time": 143.41123800000145,
                    "velocity": 0.28346456692913385,
                    "duration": 0.21152100000000473
                },
                {
                    "name": "A2",
                    "midi": 45,
                    "time": 143.83428000000146,
                    "velocity": 0.5433070866141733,
                    "duration": 0.21152100000000473
                },
                {
                    "name": "G2",
                    "midi": 43,
                    "time": 144.04580100000146,
                    "velocity": 0.4881889763779528,
                    "duration": 0.10576050000000237
                },
                {
                    "name": "G2",
                    "midi": 43,
                    "time": 144.25732200000147,
                    "velocity": 0.5275590551181102,
                    "duration": 0.21152100000000473
                },
                {
                    "name": "F#2",
                    "midi": 42,
                    "time": 144.46884300000147,
                    "velocity": 0.4645669291338583,
                    "duration": 0.10576050000000237
                },
                {
                    "name": "F#2",
                    "midi": 42,
                    "time": 144.68036400000148,
                    "velocity": 0.48031496062992124,
                    "duration": 0.21152100000000473
                },
                {
                    "name": "E2",
                    "midi": 40,
                    "time": 144.89188500000148,
                    "velocity": 0.4094488188976378,
                    "duration": 0.10576050000000237
                },
                {
                    "name": "E2",
                    "midi": 40,
                    "time": 145.10340600000148,
                    "velocity": 0.4015748031496063,
                    "duration": 0.21152100000000473
                },
                {
                    "name": "D2",
                    "midi": 38,
                    "time": 145.3149270000015,
                    "velocity": 0.3543307086614173,
                    "duration": 0.10576050000000237
                },
                {
                    "name": "D4",
                    "midi": 62,
                    "time": 145.5264480000015,
                    "velocity": 0.3700787401574803,
                    "duration": 0.21152100000000473
                },
                {
                    "name": "C#4",
                    "midi": 61,
                    "time": 145.7379690000015,
                    "velocity": 0.33070866141732286,
                    "duration": 0.10576050000000237
                },
                {
                    "name": "C#4",
                    "midi": 61,
                    "time": 145.9494900000015,
                    "velocity": 0.41732283464566927,
                    "duration": 0.21152100000000473
                },
                {
                    "name": "B3",
                    "midi": 59,
                    "time": 146.1610110000015,
                    "velocity": 0.36220472440944884,
                    "duration": 0.10576050000000237
                },
                {
                    "name": "B3",
                    "midi": 59,
                    "time": 146.3725320000015,
                    "velocity": 0.4566929133858268,
                    "duration": 0.21152100000000473
                },
                {
                    "name": "A3",
                    "midi": 57,
                    "time": 146.58405300000152,
                    "velocity": 0.3937007874015748,
                    "duration": 0.10576050000000237
                },
                {
                    "name": "A3",
                    "midi": 57,
                    "time": 146.79557400000152,
                    "velocity": 0.47244094488188976,
                    "duration": 0.21152100000000473
                },
                {
                    "name": "G#3",
                    "midi": 56,
                    "time": 147.00709500000153,
                    "velocity": 0.4094488188976378,
                    "duration": 0.10576050000000237
                },
                {
                    "name": "G#3",
                    "midi": 56,
                    "time": 147.21861600000153,
                    "velocity": 0.5196850393700787,
                    "duration": 0.8460839999999905
                },
                {
                    "name": "G#2",
                    "midi": 44,
                    "time": 147.21861600000153,
                    "velocity": 0.4409448818897638,
                    "duration": 0.8460839999999905
                },
                {
                    "name": "A#3",
                    "midi": 58,
                    "time": 148.06470000000152,
                    "velocity": 0.48031496062992124,
                    "duration": 0.8460839999999905
                },
                {
                    "name": "A#2",
                    "midi": 46,
                    "time": 148.06470000000152,
                    "velocity": 0.4015748031496063,
                    "duration": 0.8460839999999905
                },
                {
                    "name": "B3",
                    "midi": 59,
                    "time": 148.9107840000015,
                    "velocity": 0.3700787401574803,
                    "duration": 0.21152100000000473
                },
                {
                    "name": "A3",
                    "midi": 57,
                    "time": 149.12230500000152,
                    "velocity": 0.33070866141732286,
                    "duration": 0.10576050000000237
                },
                {
                    "name": "A3",
                    "midi": 57,
                    "time": 149.33382600000152,
                    "velocity": 0.41732283464566927,
                    "duration": 0.21152100000000473
                },
                {
                    "name": "G3",
                    "midi": 55,
                    "time": 149.54534700000153,
                    "velocity": 0.36220472440944884,
                    "duration": 0.10576050000000237
                },
                {
                    "name": "G3",
                    "midi": 55,
                    "time": 149.75686800000153,
                    "velocity": 0.4566929133858268,
                    "duration": 0.21152100000000473
                },
                {
                    "name": "F#3",
                    "midi": 54,
                    "time": 149.96838900000154,
                    "velocity": 0.3937007874015748,
                    "duration": 0.10576050000000237
                },
                {
                    "name": "F#3",
                    "midi": 54,
                    "time": 150.17991000000154,
                    "velocity": 0.47244094488188976,
                    "duration": 0.21152100000000473
                },
                {
                    "name": "F3",
                    "midi": 53,
                    "time": 150.39143100000155,
                    "velocity": 0.4094488188976378,
                    "duration": 0.10576050000000237
                },
                {
                    "name": "F2",
                    "midi": 41,
                    "time": 150.60295200000155,
                    "velocity": 0.4409448818897638,
                    "duration": 0.8460839999999905
                },
                {
                    "name": "F3",
                    "midi": 53,
                    "time": 150.60295200000155,
                    "velocity": 0.5196850393700787,
                    "duration": 0.8460839999999905
                },
                {
                    "name": "F#2",
                    "midi": 42,
                    "time": 151.44903600000154,
                    "velocity": 0.4015748031496063,
                    "duration": 0.8460839999999905
                },
                {
                    "name": "F#3",
                    "midi": 54,
                    "time": 151.44903600000154,
                    "velocity": 0.48031496062992124,
                    "duration": 0.8460839999999905
                },
                {
                    "name": "G3",
                    "midi": 55,
                    "time": 152.29512000000153,
                    "velocity": 0.3228346456692913,
                    "duration": 0.10576050000000237
                },
                {
                    "name": "D4",
                    "midi": 62,
                    "time": 152.40088050000153,
                    "velocity": 0.28346456692913385,
                    "duration": 0.10576050000000237
                },
                {
                    "name": "B3",
                    "midi": 59,
                    "time": 152.50664100000154,
                    "velocity": 0.3228346456692913,
                    "duration": 0.10576050000000237
                },
                {
                    "name": "D4",
                    "midi": 62,
                    "time": 152.61240150000154,
                    "velocity": 0.2755905511811024,
                    "duration": 0.10576050000000237
                },
                {
                    "name": "G3",
                    "midi": 55,
                    "time": 152.71816200000154,
                    "velocity": 0.3228346456692913,
                    "duration": 0.10576050000000237
                },
                {
                    "name": "D4",
                    "midi": 62,
                    "time": 152.82392250000154,
                    "velocity": 0.28346456692913385,
                    "duration": 0.10576050000000237
                },
                {
                    "name": "B3",
                    "midi": 59,
                    "time": 152.92968300000155,
                    "velocity": 0.3228346456692913,
                    "duration": 0.10576050000000237
                },
                {
                    "name": "D4",
                    "midi": 62,
                    "time": 153.03544350000155,
                    "velocity": 0.2755905511811024,
                    "duration": 0.10576050000000237
                },
                {
                    "name": "G3",
                    "midi": 55,
                    "time": 153.14120400000155,
                    "velocity": 0.3228346456692913,
                    "duration": 0.10576050000000237
                },
                {
                    "name": "D4",
                    "midi": 62,
                    "time": 153.24696450000155,
                    "velocity": 0.28346456692913385,
                    "duration": 0.10576050000000237
                },
                {
                    "name": "B3",
                    "midi": 59,
                    "time": 153.35272500000156,
                    "velocity": 0.3228346456692913,
                    "duration": 0.10576050000000237
                },
                {
                    "name": "D4",
                    "midi": 62,
                    "time": 153.45848550000156,
                    "velocity": 0.2755905511811024,
                    "duration": 0.10576050000000237
                },
                {
                    "name": "G3",
                    "midi": 55,
                    "time": 153.56424600000156,
                    "velocity": 0.3228346456692913,
                    "duration": 0.10576050000000237
                },
                {
                    "name": "D4",
                    "midi": 62,
                    "time": 153.67000650000156,
                    "velocity": 0.28346456692913385,
                    "duration": 0.10576050000000237
                },
                {
                    "name": "B3",
                    "midi": 59,
                    "time": 153.77576700000157,
                    "velocity": 0.3228346456692913,
                    "duration": 0.10576050000000237
                },
                {
                    "name": "D4",
                    "midi": 62,
                    "time": 153.88152750000157,
                    "velocity": 0.2755905511811024,
                    "duration": 0.10576050000000237
                },
                {
                    "name": "F#3",
                    "midi": 54,
                    "time": 153.98728800000157,
                    "velocity": 0.3543307086614173,
                    "duration": 0.10576050000000237
                },
                {
                    "name": "C#4",
                    "midi": 61,
                    "time": 154.09304850000157,
                    "velocity": 0.30708661417322836,
                    "duration": 0.10576050000000237
                },
                {
                    "name": "A#3",
                    "midi": 58,
                    "time": 154.19880900000157,
                    "velocity": 0.3543307086614173,
                    "duration": 0.10576050000000237
                },
                {
                    "name": "C#4",
                    "midi": 61,
                    "time": 154.30456950000158,
                    "velocity": 0.2992125984251969,
                    "duration": 0.10576050000000237
                },
                {
                    "name": "F#3",
                    "midi": 54,
                    "time": 154.41033000000158,
                    "velocity": 0.3543307086614173,
                    "duration": 0.10576050000000237
                },
                {
                    "name": "C#4",
                    "midi": 61,
                    "time": 154.51609050000158,
                    "velocity": 0.30708661417322836,
                    "duration": 0.10576050000000237
                },
                {
                    "name": "A#3",
                    "midi": 58,
                    "time": 154.62185100000158,
                    "velocity": 0.3543307086614173,
                    "duration": 0.10576050000000237
                },
                {
                    "name": "C#4",
                    "midi": 61,
                    "time": 154.7276115000016,
                    "velocity": 0.2992125984251969,
                    "duration": 0.10576050000000237
                },
                {
                    "name": "F3",
                    "midi": 53,
                    "time": 154.8333720000016,
                    "velocity": 0.3543307086614173,
                    "duration": 0.10576050000000237
                },
                {
                    "name": "D4",
                    "midi": 62,
                    "time": 154.9391325000016,
                    "velocity": 0.30708661417322836,
                    "duration": 0.10576050000000237
                },
                {
                    "name": "G#3",
                    "midi": 56,
                    "time": 155.0448930000016,
                    "velocity": 0.3543307086614173,
                    "duration": 0.10576050000000237
                },
                {
                    "name": "D4",
                    "midi": 62,
                    "time": 155.1506535000016,
                    "velocity": 0.2992125984251969,
                    "duration": 0.10576050000000237
                },
                {
                    "name": "F3",
                    "midi": 53,
                    "time": 155.2564140000016,
                    "velocity": 0.3543307086614173,
                    "duration": 0.10576050000000237
                },
                {
                    "name": "D4",
                    "midi": 62,
                    "time": 155.3621745000016,
                    "velocity": 0.30708661417322836,
                    "duration": 0.10576050000000237
                },
                {
                    "name": "G#3",
                    "midi": 56,
                    "time": 155.4679350000016,
                    "velocity": 0.3543307086614173,
                    "duration": 0.10576050000000237
                },
                {
                    "name": "D4",
                    "midi": 62,
                    "time": 155.5736955000016,
                    "velocity": 0.2992125984251969,
                    "duration": 0.10576050000000237
                },
                {
                    "name": "F#3",
                    "midi": 54,
                    "time": 155.6794560000016,
                    "velocity": 0.31496062992125984,
                    "duration": 0.8460839999999905
                },
                {
                    "name": "F#2",
                    "midi": 42,
                    "time": 156.5255400000016,
                    "velocity": 0.31496062992125984,
                    "duration": 0.8460839999999905
                },
                {
                    "name": "B2",
                    "midi": 47,
                    "time": 157.3716240000016,
                    "velocity": 0.30708661417322836,
                    "duration": 0.42304200000000947
                },
                {
                    "name": "F#2",
                    "midi": 42,
                    "time": 157.7946660000016,
                    "velocity": 0.30708661417322836,
                    "duration": 0.42304200000000947
                },
                {
                    "name": "B1",
                    "midi": 35,
                    "time": 158.2177080000016,
                    "velocity": 0.2755905511811024,
                    "duration": 0.42304200000000947
                },
                {
                    "name": "B2",
                    "midi": 47,
                    "time": 159.06379200000163,
                    "velocity": 0.4251968503937008,
                    "duration": 0.8460839999999905
                },
                {
                    "name": "B3",
                    "midi": 59,
                    "time": 159.06379200000163,
                    "velocity": 0.5118110236220472,
                    "duration": 0.8460839999999905
                },
                {
                    "name": "A2",
                    "midi": 45,
                    "time": 159.90987600000162,
                    "velocity": 0.3858267716535433,
                    "duration": 0.42304200000000947
                },
                {
                    "name": "A3",
                    "midi": 57,
                    "time": 159.90987600000162,
                    "velocity": 0.4566929133858268,
                    "duration": 0.42304200000000947
                },
                {
                    "name": "G3",
                    "midi": 55,
                    "time": 160.75596000000164,
                    "velocity": 0.2992125984251969,
                    "duration": 0.8460839999999905
                },
                {
                    "name": "G2",
                    "midi": 43,
                    "time": 160.75596000000164,
                    "velocity": 0.25196850393700787,
                    "duration": 0.8460839999999905
                },
                {
                    "name": "F#3",
                    "midi": 54,
                    "time": 161.60204400000163,
                    "velocity": 0.2992125984251969,
                    "duration": 0.42304200000000947
                },
                {
                    "name": "F#2",
                    "midi": 42,
                    "time": 161.60204400000163,
                    "velocity": 0.25196850393700787,
                    "duration": 0.42304200000000947
                },
                {
                    "name": "B3",
                    "midi": 59,
                    "time": 162.87117000000163,
                    "velocity": 0.33070866141732286,
                    "duration": 0.10576050000000237
                },
                {
                    "name": "G4",
                    "midi": 67,
                    "time": 162.97693050000163,
                    "velocity": 0.2677165354330709,
                    "duration": 0.10576050000000237
                },
                {
                    "name": "B3",
                    "midi": 59,
                    "time": 163.08269100000163,
                    "velocity": 0.2677165354330709,
                    "duration": 0.10576050000000237
                },
                {
                    "name": "G4",
                    "midi": 67,
                    "time": 163.18845150000163,
                    "velocity": 0.2677165354330709,
                    "duration": 0.10576050000000237
                },
                {
                    "name": "A3",
                    "midi": 57,
                    "time": 163.29421200000164,
                    "velocity": 0.33070866141732286,
                    "duration": 0.10576050000000237
                },
                {
                    "name": "G4",
                    "midi": 67,
                    "time": 163.39997250000164,
                    "velocity": 0.28346456692913385,
                    "duration": 0.10576050000000237
                },
                {
                    "name": "A3",
                    "midi": 57,
                    "time": 163.50573300000164,
                    "velocity": 0.28346456692913385,
                    "duration": 0.10576050000000237
                },
                {
                    "name": "G4",
                    "midi": 67,
                    "time": 163.61149350000164,
                    "velocity": 0.28346456692913385,
                    "duration": 0.10576050000000237
                },
                {
                    "name": "G3",
                    "midi": 55,
                    "time": 163.71725400000165,
                    "velocity": 0.33070866141732286,
                    "duration": 0.10576050000000237
                },
                {
                    "name": "G4",
                    "midi": 67,
                    "time": 163.82301450000165,
                    "velocity": 0.29133858267716534,
                    "duration": 0.10576050000000237
                },
                {
                    "name": "G3",
                    "midi": 55,
                    "time": 163.92877500000165,
                    "velocity": 0.29133858267716534,
                    "duration": 0.10576050000000237
                },
                {
                    "name": "G4",
                    "midi": 67,
                    "time": 164.03453550000165,
                    "velocity": 0.29133858267716534,
                    "duration": 0.10576050000000237
                },
                {
                    "name": "C4",
                    "midi": 60,
                    "time": 164.14029600000165,
                    "velocity": 0.33070866141732286,
                    "duration": 0.10576050000000237
                },
                {
                    "name": "G4",
                    "midi": 67,
                    "time": 164.24605650000166,
                    "velocity": 0.28346456692913385,
                    "duration": 0.10576050000000237
                },
                {
                    "name": "F#4",
                    "midi": 66,
                    "time": 164.35181700000166,
                    "velocity": 0.28346456692913385,
                    "duration": 0.10576050000000237
                },
                {
                    "name": "G4",
                    "midi": 67,
                    "time": 164.45757750000166,
                    "velocity": 0.28346456692913385,
                    "duration": 0.10576050000000237
                },
                {
                    "name": "C4",
                    "midi": 60,
                    "time": 164.56333800000166,
                    "velocity": 0.33070866141732286,
                    "duration": 0.10576050000000237
                },
                {
                    "name": "G4",
                    "midi": 67,
                    "time": 164.66909850000167,
                    "velocity": 0.28346456692913385,
                    "duration": 0.10576050000000237
                },
                {
                    "name": "F#4",
                    "midi": 66,
                    "time": 164.77485900000167,
                    "velocity": 0.28346456692913385,
                    "duration": 0.10576050000000237
                },
                {
                    "name": "G4",
                    "midi": 67,
                    "time": 164.88061950000167,
                    "velocity": 0.28346456692913385,
                    "duration": 0.10576050000000237
                },
                {
                    "name": "C4",
                    "midi": 60,
                    "time": 164.98638000000167,
                    "velocity": 0.28346456692913385,
                    "duration": 0.10576050000000237
                },
                {
                    "name": "G4",
                    "midi": 67,
                    "time": 165.09214050000168,
                    "velocity": 0.2992125984251969,
                    "duration": 0.10576050000000237
                },
                {
                    "name": "F#4",
                    "midi": 66,
                    "time": 165.19790100000168,
                    "velocity": 0.2992125984251969,
                    "duration": 0.10576050000000237
                },
                {
                    "name": "G4",
                    "midi": 67,
                    "time": 165.30366150000168,
                    "velocity": 0.2992125984251969,
                    "duration": 0.10576050000000237
                },
                {
                    "name": "C4",
                    "midi": 60,
                    "time": 165.40942200000168,
                    "velocity": 0.31496062992125984,
                    "duration": 0.10576050000000237
                },
                {
                    "name": "G4",
                    "midi": 67,
                    "time": 165.51518250000169,
                    "velocity": 0.28346456692913385,
                    "duration": 0.10576050000000237
                },
                {
                    "name": "F#4",
                    "midi": 66,
                    "time": 165.6209430000017,
                    "velocity": 0.28346456692913385,
                    "duration": 0.10576050000000237
                },
                {
                    "name": "G4",
                    "midi": 67,
                    "time": 165.7267035000017,
                    "velocity": 0.28346456692913385,
                    "duration": 0.10576050000000237
                },
                {
                    "name": "B3",
                    "midi": 59,
                    "time": 165.8324640000017,
                    "velocity": 0.3464566929133858,
                    "duration": 0.10576050000000237
                },
                {
                    "name": "G4",
                    "midi": 67,
                    "time": 165.9382245000017,
                    "velocity": 0.3464566929133858,
                    "duration": 0.10576050000000237
                },
                {
                    "name": "F#4",
                    "midi": 66,
                    "time": 166.0439850000017,
                    "velocity": 0.25984251968503935,
                    "duration": 0.10576050000000237
                },
                {
                    "name": "G4",
                    "midi": 67,
                    "time": 166.1497455000017,
                    "velocity": 0.25984251968503935,
                    "duration": 0.10576050000000237
                },
                {
                    "name": "B3",
                    "midi": 59,
                    "time": 166.2555060000017,
                    "velocity": 0.29133858267716534,
                    "duration": 0.10576050000000237
                },
                {
                    "name": "G4",
                    "midi": 67,
                    "time": 166.3612665000017,
                    "velocity": 0.23622047244094488,
                    "duration": 0.10576050000000237
                },
                {
                    "name": "B3",
                    "midi": 59,
                    "time": 166.4670270000017,
                    "velocity": 0.23622047244094488,
                    "duration": 0.10576050000000237
                },
                {
                    "name": "G4",
                    "midi": 67,
                    "time": 166.5727875000017,
                    "velocity": 0.23622047244094488,
                    "duration": 0.10576050000000237
                },
                {
                    "name": "A3",
                    "midi": 57,
                    "time": 166.6785480000017,
                    "velocity": 0.29133858267716534,
                    "duration": 0.10576050000000237
                },
                {
                    "name": "G4",
                    "midi": 67,
                    "time": 166.7843085000017,
                    "velocity": 0.25196850393700787,
                    "duration": 0.10576050000000237
                },
                {
                    "name": "A3",
                    "midi": 57,
                    "time": 166.89006900000172,
                    "velocity": 0.25196850393700787,
                    "duration": 0.10576050000000237
                },
                {
                    "name": "G4",
                    "midi": 67,
                    "time": 166.99582950000172,
                    "velocity": 0.25196850393700787,
                    "duration": 0.10576050000000237
                },
                {
                    "name": "G3",
                    "midi": 55,
                    "time": 167.10159000000172,
                    "velocity": 0.29133858267716534,
                    "duration": 0.10576050000000237
                },
                {
                    "name": "G4",
                    "midi": 67,
                    "time": 167.20735050000172,
                    "velocity": 0.25984251968503935,
                    "duration": 0.10576050000000237
                },
                {
                    "name": "G3",
                    "midi": 55,
                    "time": 167.31311100000173,
                    "velocity": 0.25984251968503935,
                    "duration": 0.10576050000000237
                },
                {
                    "name": "G4",
                    "midi": 67,
                    "time": 167.41887150000173,
                    "velocity": 0.25984251968503935,
                    "duration": 0.10576050000000237
                },
                {
                    "name": "C3",
                    "midi": 48,
                    "time": 167.52463200000173,
                    "velocity": 0.29133858267716534,
                    "duration": 0.10576050000000237
                },
                {
                    "name": "A3",
                    "midi": 57,
                    "time": 167.63039250000173,
                    "velocity": 0.25196850393700787,
                    "duration": 0.10576050000000237
                },
                {
                    "name": "E3",
                    "midi": 52,
                    "time": 167.73615300000174,
                    "velocity": 0.25196850393700787,
                    "duration": 0.10576050000000237
                },
                {
                    "name": "A3",
                    "midi": 57,
                    "time": 167.84191350000174,
                    "velocity": 0.25196850393700787,
                    "duration": 0.10576050000000237
                },
                {
                    "name": "C3",
                    "midi": 48,
                    "time": 167.94767400000174,
                    "velocity": 0.29133858267716534,
                    "duration": 0.10576050000000237
                },
                {
                    "name": "A3",
                    "midi": 57,
                    "time": 168.05343450000174,
                    "velocity": 0.25196850393700787,
                    "duration": 0.10576050000000237
                },
                {
                    "name": "E3",
                    "midi": 52,
                    "time": 168.15919500000174,
                    "velocity": 0.25196850393700787,
                    "duration": 0.10576050000000237
                },
                {
                    "name": "A3",
                    "midi": 57,
                    "time": 168.26495550000175,
                    "velocity": 0.25196850393700787,
                    "duration": 0.10576050000000237
                },
                {
                    "name": "D3",
                    "midi": 50,
                    "time": 168.37071600000175,
                    "velocity": 0.25196850393700787,
                    "duration": 0.10576050000000237
                },
                {
                    "name": "B3",
                    "midi": 59,
                    "time": 168.47647650000175,
                    "velocity": 0.2677165354330709,
                    "duration": 0.10576050000000237
                },
                {
                    "name": "G3",
                    "midi": 55,
                    "time": 168.58223700000175,
                    "velocity": 0.2677165354330709,
                    "duration": 0.10576050000000237
                },
                {
                    "name": "B3",
                    "midi": 59,
                    "time": 168.68799750000176,
                    "velocity": 0.2677165354330709,
                    "duration": 0.10576050000000237
                },
                {
                    "name": "D3",
                    "midi": 50,
                    "time": 168.79375800000176,
                    "velocity": 0.28346456692913385,
                    "duration": 0.10576050000000237
                },
                {
                    "name": "C4",
                    "midi": 60,
                    "time": 168.89951850000176,
                    "velocity": 0.25196850393700787,
                    "duration": 0.10576050000000237
                },
                {
                    "name": "F#3",
                    "midi": 54,
                    "time": 169.00527900000176,
                    "velocity": 0.25196850393700787,
                    "duration": 0.10576050000000237
                },
                {
                    "name": "C4",
                    "midi": 60,
                    "time": 169.11103950000177,
                    "velocity": 0.25196850393700787,
                    "duration": 0.10576050000000237
                },
                {
                    "name": "G3",
                    "midi": 55,
                    "time": 169.21680000000177,
                    "velocity": 0.30708661417322836,
                    "duration": 0.10576050000000237
                },
                {
                    "name": "D4",
                    "midi": 62,
                    "time": 169.32256050000177,
                    "velocity": 0.2677165354330709,
                    "duration": 0.10576050000000237
                },
                {
                    "name": "B3",
                    "midi": 59,
                    "time": 169.42832100000177,
                    "velocity": 0.2283464566929134,
                    "duration": 0.10576050000000237
                },
                {
                    "name": "D4",
                    "midi": 62,
                    "time": 169.53408150000178,
                    "velocity": 0.2283464566929134,
                    "duration": 0.10576050000000237
                },
                {
                    "name": "B3",
                    "midi": 59,
                    "time": 169.63984200000178,
                    "velocity": 0.33070866141732286,
                    "duration": 0.10576050000000237
                },
                {
                    "name": "G4",
                    "midi": 67,
                    "time": 169.74560250000178,
                    "velocity": 0.2677165354330709,
                    "duration": 0.10576050000000237
                },
                {
                    "name": "B3",
                    "midi": 59,
                    "time": 169.85136300000178,
                    "velocity": 0.2677165354330709,
                    "duration": 0.10576050000000237
                },
                {
                    "name": "G4",
                    "midi": 67,
                    "time": 169.95712350000179,
                    "velocity": 0.2677165354330709,
                    "duration": 0.10576050000000237
                },
                {
                    "name": "A3",
                    "midi": 57,
                    "time": 170.0628840000018,
                    "velocity": 0.33070866141732286,
                    "duration": 0.10576050000000237
                },
                {
                    "name": "G4",
                    "midi": 67,
                    "time": 170.1686445000018,
                    "velocity": 0.28346456692913385,
                    "duration": 0.10576050000000237
                },
                {
                    "name": "A3",
                    "midi": 57,
                    "time": 170.2744050000018,
                    "velocity": 0.28346456692913385,
                    "duration": 0.10576050000000237
                },
                {
                    "name": "G4",
                    "midi": 67,
                    "time": 170.3801655000018,
                    "velocity": 0.28346456692913385,
                    "duration": 0.10576050000000237
                },
                {
                    "name": "G3",
                    "midi": 55,
                    "time": 170.4859260000018,
                    "velocity": 0.33070866141732286,
                    "duration": 0.10576050000000237
                },
                {
                    "name": "G4",
                    "midi": 67,
                    "time": 170.5916865000018,
                    "velocity": 0.29133858267716534,
                    "duration": 0.10576050000000237
                },
                {
                    "name": "G3",
                    "midi": 55,
                    "time": 170.6974470000018,
                    "velocity": 0.29133858267716534,
                    "duration": 0.10576050000000237
                },
                {
                    "name": "G4",
                    "midi": 67,
                    "time": 170.8032075000018,
                    "velocity": 0.29133858267716534,
                    "duration": 0.10576050000000237
                },
                {
                    "name": "C4",
                    "midi": 60,
                    "time": 170.9089680000018,
                    "velocity": 0.33070866141732286,
                    "duration": 0.10576050000000237
                },
                {
                    "name": "G4",
                    "midi": 67,
                    "time": 171.0147285000018,
                    "velocity": 0.28346456692913385,
                    "duration": 0.10576050000000237
                },
                {
                    "name": "F#4",
                    "midi": 66,
                    "time": 171.1204890000018,
                    "velocity": 0.28346456692913385,
                    "duration": 0.10576050000000237
                },
                {
                    "name": "G4",
                    "midi": 67,
                    "time": 171.2262495000018,
                    "velocity": 0.28346456692913385,
                    "duration": 0.10576050000000237
                },
                {
                    "name": "C4",
                    "midi": 60,
                    "time": 171.33201000000182,
                    "velocity": 0.33070866141732286,
                    "duration": 0.10576050000000237
                },
                {
                    "name": "G4",
                    "midi": 67,
                    "time": 171.43777050000182,
                    "velocity": 0.28346456692913385,
                    "duration": 0.10576050000000237
                },
                {
                    "name": "F#4",
                    "midi": 66,
                    "time": 171.54353100000182,
                    "velocity": 0.28346456692913385,
                    "duration": 0.10576050000000237
                },
                {
                    "name": "G4",
                    "midi": 67,
                    "time": 171.64929150000182,
                    "velocity": 0.28346456692913385,
                    "duration": 0.10576050000000237
                },
                {
                    "name": "C4",
                    "midi": 60,
                    "time": 171.75505200000183,
                    "velocity": 0.28346456692913385,
                    "duration": 0.10576050000000237
                },
                {
                    "name": "G4",
                    "midi": 67,
                    "time": 171.86081250000183,
                    "velocity": 0.2992125984251969,
                    "duration": 0.10576050000000237
                },
                {
                    "name": "F#4",
                    "midi": 66,
                    "time": 171.96657300000183,
                    "velocity": 0.2992125984251969,
                    "duration": 0.10576050000000237
                },
                {
                    "name": "G4",
                    "midi": 67,
                    "time": 172.07233350000183,
                    "velocity": 0.2992125984251969,
                    "duration": 0.10576050000000237
                },
                {
                    "name": "C4",
                    "midi": 60,
                    "time": 172.17809400000183,
                    "velocity": 0.31496062992125984,
                    "duration": 0.10576050000000237
                },
                {
                    "name": "G4",
                    "midi": 67,
                    "time": 172.28385450000184,
                    "velocity": 0.28346456692913385,
                    "duration": 0.10576050000000237
                },
                {
                    "name": "F#4",
                    "midi": 66,
                    "time": 172.38961500000184,
                    "velocity": 0.28346456692913385,
                    "duration": 0.10576050000000237
                },
                {
                    "name": "G4",
                    "midi": 67,
                    "time": 172.49537550000184,
                    "velocity": 0.28346456692913385,
                    "duration": 0.10576050000000237
                },
                {
                    "name": "B3",
                    "midi": 59,
                    "time": 172.60113600000184,
                    "velocity": 0.3464566929133858,
                    "duration": 0.10576050000000237
                },
                {
                    "name": "G4",
                    "midi": 67,
                    "time": 172.70689650000185,
                    "velocity": 0.3464566929133858,
                    "duration": 0.10576050000000237
                },
                {
                    "name": "F#4",
                    "midi": 66,
                    "time": 172.81265700000185,
                    "velocity": 0.25984251968503935,
                    "duration": 0.10576050000000237
                },
                {
                    "name": "G4",
                    "midi": 67,
                    "time": 172.91841750000185,
                    "velocity": 0.25984251968503935,
                    "duration": 0.10576050000000237
                },
                {
                    "name": "B3",
                    "midi": 59,
                    "time": 173.02417800000185,
                    "velocity": 0.29133858267716534,
                    "duration": 0.10576050000000237
                },
                {
                    "name": "G4",
                    "midi": 67,
                    "time": 173.12993850000186,
                    "velocity": 0.23622047244094488,
                    "duration": 0.10576050000000237
                },
                {
                    "name": "B3",
                    "midi": 59,
                    "time": 173.23569900000186,
                    "velocity": 0.23622047244094488,
                    "duration": 0.10576050000000237
                },
                {
                    "name": "G4",
                    "midi": 67,
                    "time": 173.34145950000186,
                    "velocity": 0.23622047244094488,
                    "duration": 0.10576050000000237
                },
                {
                    "name": "A3",
                    "midi": 57,
                    "time": 173.44722000000186,
                    "velocity": 0.29133858267716534,
                    "duration": 0.10576050000000237
                },
                {
                    "name": "G4",
                    "midi": 67,
                    "time": 173.55298050000187,
                    "velocity": 0.25196850393700787,
                    "duration": 0.10576050000000237
                },
                {
                    "name": "A3",
                    "midi": 57,
                    "time": 173.65874100000187,
                    "velocity": 0.25196850393700787,
                    "duration": 0.10576050000000237
                },
                {
                    "name": "G4",
                    "midi": 67,
                    "time": 173.76450150000187,
                    "velocity": 0.25196850393700787,
                    "duration": 0.10576050000000237
                },
                {
                    "name": "G3",
                    "midi": 55,
                    "time": 173.87026200000187,
                    "velocity": 0.29133858267716534,
                    "duration": 0.10576050000000237
                },
                {
                    "name": "G4",
                    "midi": 67,
                    "time": 173.97602250000187,
                    "velocity": 0.25984251968503935,
                    "duration": 0.10576050000000237
                },
                {
                    "name": "G3",
                    "midi": 55,
                    "time": 174.08178300000188,
                    "velocity": 0.25984251968503935,
                    "duration": 0.10576050000000237
                },
                {
                    "name": "G4",
                    "midi": 67,
                    "time": 174.18754350000188,
                    "velocity": 0.25984251968503935,
                    "duration": 0.10576050000000237
                },
                {
                    "name": "C3",
                    "midi": 48,
                    "time": 174.29330400000188,
                    "velocity": 0.29133858267716534,
                    "duration": 0.10576050000000237
                },
                {
                    "name": "A3",
                    "midi": 57,
                    "time": 174.39906450000188,
                    "velocity": 0.25196850393700787,
                    "duration": 0.10576050000000237
                },
                {
                    "name": "E3",
                    "midi": 52,
                    "time": 174.5048250000019,
                    "velocity": 0.25196850393700787,
                    "duration": 0.10576050000000237
                },
                {
                    "name": "A3",
                    "midi": 57,
                    "time": 174.6105855000019,
                    "velocity": 0.25196850393700787,
                    "duration": 0.10576050000000237
                },
                {
                    "name": "C3",
                    "midi": 48,
                    "time": 174.7163460000019,
                    "velocity": 0.29133858267716534,
                    "duration": 0.10576050000000237
                },
                {
                    "name": "A3",
                    "midi": 57,
                    "time": 174.8221065000019,
                    "velocity": 0.25196850393700787,
                    "duration": 0.10576050000000237
                },
                {
                    "name": "E3",
                    "midi": 52,
                    "time": 174.9278670000019,
                    "velocity": 0.25196850393700787,
                    "duration": 0.10576050000000237
                },
                {
                    "name": "A3",
                    "midi": 57,
                    "time": 175.0336275000019,
                    "velocity": 0.25196850393700787,
                    "duration": 0.10576050000000237
                },
                {
                    "name": "D3",
                    "midi": 50,
                    "time": 175.1393880000019,
                    "velocity": 0.25196850393700787,
                    "duration": 0.10576050000000237
                },
                {
                    "name": "B3",
                    "midi": 59,
                    "time": 175.2451485000019,
                    "velocity": 0.2677165354330709,
                    "duration": 0.10576050000000237
                },
                {
                    "name": "G3",
                    "midi": 55,
                    "time": 175.3509090000019,
                    "velocity": 0.2677165354330709,
                    "duration": 0.10576050000000237
                },
                {
                    "name": "B3",
                    "midi": 59,
                    "time": 175.4566695000019,
                    "velocity": 0.2677165354330709,
                    "duration": 0.10576050000000237
                },
                {
                    "name": "D3",
                    "midi": 50,
                    "time": 175.5624300000019,
                    "velocity": 0.28346456692913385,
                    "duration": 0.10576050000000237
                },
                {
                    "name": "C4",
                    "midi": 60,
                    "time": 175.6681905000019,
                    "velocity": 0.25196850393700787,
                    "duration": 0.10576050000000237
                },
                {
                    "name": "F#3",
                    "midi": 54,
                    "time": 175.77395100000192,
                    "velocity": 0.25196850393700787,
                    "duration": 0.10576050000000237
                },
                {
                    "name": "C4",
                    "midi": 60,
                    "time": 175.87971150000192,
                    "velocity": 0.25196850393700787,
                    "duration": 0.10576050000000237
                },
                {
                    "name": "B3",
                    "midi": 59,
                    "time": 175.98547200000192,
                    "velocity": 0.4094488188976378,
                    "duration": 0.42304200000000947
                },
                {
                    "name": "G3",
                    "midi": 55,
                    "time": 175.98547200000192,
                    "velocity": 0.3464566929133858,
                    "duration": 0.42304200000000947
                },
                {
                    "name": "F#3",
                    "midi": 54,
                    "time": 176.62003500000193,
                    "velocity": 0.31496062992125984,
                    "duration": 0.10576050000000237
                },
                {
                    "name": "D4",
                    "midi": 62,
                    "time": 176.62003500000193,
                    "velocity": 0.3779527559055118,
                    "duration": 0.10576050000000237
                },
                {
                    "name": "D4",
                    "midi": 62,
                    "time": 176.83155600000194,
                    "velocity": 0.4094488188976378,
                    "duration": 0.42304200000000947
                },
                {
                    "name": "G3",
                    "midi": 55,
                    "time": 176.83155600000194,
                    "velocity": 0.3464566929133858,
                    "duration": 0.42304200000000947
                },
                {
                    "name": "F#3",
                    "midi": 54,
                    "time": 177.46611900000195,
                    "velocity": 0.30708661417322836,
                    "duration": 0.10576050000000237
                },
                {
                    "name": "D4",
                    "midi": 62,
                    "time": 177.46611900000195,
                    "velocity": 0.3700787401574803,
                    "duration": 0.10576050000000237
                },
                {
                    "name": "G3",
                    "midi": 55,
                    "time": 177.67764000000196,
                    "velocity": 0.33858267716535434,
                    "duration": 0.42304200000000947
                },
                {
                    "name": "D4",
                    "midi": 62,
                    "time": 177.67764000000196,
                    "velocity": 0.4015748031496063,
                    "duration": 0.42304200000000947
                },
                {
                    "name": "D4",
                    "midi": 62,
                    "time": 178.31220300000197,
                    "velocity": 0.36220472440944884,
                    "duration": 0.10576050000000237
                },
                {
                    "name": "F#3",
                    "midi": 54,
                    "time": 178.31220300000197,
                    "velocity": 0.30708661417322836,
                    "duration": 0.10576050000000237
                },
                {
                    "name": "D4",
                    "midi": 62,
                    "time": 178.52372400000198,
                    "velocity": 0.3937007874015748,
                    "duration": 0.10576050000000237
                },
                {
                    "name": "G3",
                    "midi": 55,
                    "time": 178.52372400000198,
                    "velocity": 0.33070866141732286,
                    "duration": 0.10576050000000237
                },
                {
                    "name": "D4",
                    "midi": 62,
                    "time": 178.73524500000198,
                    "velocity": 0.36220472440944884,
                    "duration": 0.10576050000000237
                },
                {
                    "name": "F#3",
                    "midi": 54,
                    "time": 178.73524500000198,
                    "velocity": 0.30708661417322836,
                    "duration": 0.10576050000000237
                },
                {
                    "name": "D4",
                    "midi": 62,
                    "time": 178.946766000002,
                    "velocity": 0.36220472440944884,
                    "duration": 0.10576050000000237
                },
                {
                    "name": "G3",
                    "midi": 55,
                    "time": 178.946766000002,
                    "velocity": 0.30708661417322836,
                    "duration": 0.10576050000000237
                },
                {
                    "name": "G3",
                    "midi": 55,
                    "time": 179.158287000002,
                    "velocity": 0.36220472440944884,
                    "duration": 0.10576050000000237
                },
                {
                    "name": "E3",
                    "midi": 52,
                    "time": 179.158287000002,
                    "velocity": 0.30708661417322836,
                    "duration": 0.10576050000000237
                },
                {
                    "name": "A3",
                    "midi": 57,
                    "time": 179.369808000002,
                    "velocity": 0.3937007874015748,
                    "duration": 0.42304200000000947
                },
                {
                    "name": "F#3",
                    "midi": 54,
                    "time": 179.369808000002,
                    "velocity": 0.33070866141732286,
                    "duration": 0.42304200000000947
                },
                {
                    "name": "C#3",
                    "midi": 49,
                    "time": 180.004371000002,
                    "velocity": 0.33070866141732286,
                    "duration": 0.10576050000000237
                },
                {
                    "name": "A3",
                    "midi": 57,
                    "time": 180.004371000002,
                    "velocity": 0.3937007874015748,
                    "duration": 0.10576050000000237
                },
                {
                    "name": "A3",
                    "midi": 57,
                    "time": 180.21589200000201,
                    "velocity": 0.4094488188976378,
                    "duration": 0.42304200000000947
                },
                {
                    "name": "D3",
                    "midi": 50,
                    "time": 180.21589200000201,
                    "velocity": 0.3464566929133858,
                    "duration": 0.42304200000000947
                },
                {
                    "name": "A3",
                    "midi": 57,
                    "time": 180.85045500000203,
                    "velocity": 0.3937007874015748,
                    "duration": 0.10576050000000237
                },
                {
                    "name": "C#3",
                    "midi": 49,
                    "time": 180.85045500000203,
                    "velocity": 0.33070866141732286,
                    "duration": 0.10576050000000237
                },
                {
                    "name": "D3",
                    "midi": 50,
                    "time": 181.06197600000203,
                    "velocity": 0.3543307086614173,
                    "duration": 0.42304200000000947
                },
                {
                    "name": "A3",
                    "midi": 57,
                    "time": 181.06197600000203,
                    "velocity": 0.4251968503937008,
                    "duration": 0.42304200000000947
                },
                {
                    "name": "D#3",
                    "midi": 51,
                    "time": 181.69653900000205,
                    "velocity": 0.3543307086614173,
                    "duration": 0.10576050000000237
                },
                {
                    "name": "B3",
                    "midi": 59,
                    "time": 181.69653900000205,
                    "velocity": 0.4251968503937008,
                    "duration": 0.10576050000000237
                },
                {
                    "name": "B3",
                    "midi": 59,
                    "time": 181.90806000000205,
                    "velocity": 0.4409448818897638,
                    "duration": 0.42304200000000947
                },
                {
                    "name": "E3",
                    "midi": 52,
                    "time": 181.90806000000205,
                    "velocity": 0.3700787401574803,
                    "duration": 0.42304200000000947
                },
                {
                    "name": "B3",
                    "midi": 59,
                    "time": 182.54262300000207,
                    "velocity": 0.41732283464566927,
                    "duration": 0.10576050000000237
                },
                {
                    "name": "D#3",
                    "midi": 51,
                    "time": 182.54262300000207,
                    "velocity": 0.3543307086614173,
                    "duration": 0.10576050000000237
                },
                {
                    "name": "E3",
                    "midi": 52,
                    "time": 182.75414400000207,
                    "velocity": 0.4015748031496063,
                    "duration": 0.42304200000000947
                },
                {
                    "name": "B3",
                    "midi": 59,
                    "time": 182.75414400000207,
                    "velocity": 0.47244094488188976,
                    "duration": 0.42304200000000947
                },
                {
                    "name": "C#4",
                    "midi": 61,
                    "time": 183.38870700000209,
                    "velocity": 0.4330708661417323,
                    "duration": 0.10576050000000237
                },
                {
                    "name": "E3",
                    "midi": 52,
                    "time": 183.38870700000209,
                    "velocity": 0.36220472440944884,
                    "duration": 0.10576050000000237
                },
                {
                    "name": "D4",
                    "midi": 62,
                    "time": 183.6002280000021,
                    "velocity": 0.4881889763779528,
                    "duration": 0.42304200000000947
                },
                {
                    "name": "F#3",
                    "midi": 54,
                    "time": 183.6002280000021,
                    "velocity": 0.4094488188976378,
                    "duration": 0.42304200000000947
                },
                {
                    "name": "E3",
                    "midi": 52,
                    "time": 184.2347910000021,
                    "velocity": 0.3779527559055118,
                    "duration": 0.10576050000000237
                },
                {
                    "name": "C#4",
                    "midi": 61,
                    "time": 184.2347910000021,
                    "velocity": 0.44881889763779526,
                    "duration": 0.10576050000000237
                },
                {
                    "name": "F#3",
                    "midi": 54,
                    "time": 184.4463120000021,
                    "velocity": 0.4094488188976378,
                    "duration": 0.42304200000000947
                },
                {
                    "name": "D4",
                    "midi": 62,
                    "time": 184.4463120000021,
                    "velocity": 0.4881889763779528,
                    "duration": 0.42304200000000947
                },
                {
                    "name": "F#4",
                    "midi": 66,
                    "time": 185.08087500000212,
                    "velocity": 0.4251968503937008,
                    "duration": 0.10576050000000237
                },
                {
                    "name": "G4",
                    "midi": 67,
                    "time": 185.29239600000213,
                    "velocity": 0.4881889763779528,
                    "duration": 0.10576050000000237
                },
                {
                    "name": "F#4",
                    "midi": 66,
                    "time": 185.50391700000213,
                    "velocity": 0.4409448818897638,
                    "duration": 0.10576050000000237
                },
                {
                    "name": "G4",
                    "midi": 67,
                    "time": 185.71543800000214,
                    "velocity": 0.48031496062992124,
                    "duration": 0.10576050000000237
                },
                {
                    "name": "D#4",
                    "midi": 63,
                    "time": 185.92695900000214,
                    "velocity": 0.41732283464566927,
                    "duration": 0.10576050000000237
                },
                {
                    "name": "E4",
                    "midi": 64,
                    "time": 186.13848000000215,
                    "velocity": 0.4881889763779528,
                    "duration": 0.10576050000000237
                },
                {
                    "name": "D#4",
                    "midi": 63,
                    "time": 186.35000100000215,
                    "velocity": 0.4409448818897638,
                    "duration": 0.10576050000000237
                },
                {
                    "name": "E4",
                    "midi": 64,
                    "time": 186.56152200000216,
                    "velocity": 0.5039370078740157,
                    "duration": 0.10576050000000237
                },
                {
                    "name": "C#4",
                    "midi": 61,
                    "time": 186.77304300000216,
                    "velocity": 0.4409448818897638,
                    "duration": 0.10576050000000237
                },
                {
                    "name": "D4",
                    "midi": 62,
                    "time": 186.98456400000217,
                    "velocity": 0.5196850393700787,
                    "duration": 0.10576050000000237
                },
                {
                    "name": "C#4",
                    "midi": 61,
                    "time": 187.19608500000217,
                    "velocity": 0.44881889763779526,
                    "duration": 0.10576050000000237
                },
                {
                    "name": "D4",
                    "midi": 62,
                    "time": 187.40760600000218,
                    "velocity": 0.5196850393700787,
                    "duration": 0.10576050000000237
                },
                {
                    "name": "A#3",
                    "midi": 58,
                    "time": 187.61912700000218,
                    "velocity": 0.44881889763779526,
                    "duration": 0.10576050000000237
                },
                {
                    "name": "B3",
                    "midi": 59,
                    "time": 187.83064800000218,
                    "velocity": 0.5196850393700787,
                    "duration": 0.10576050000000237
                },
                {
                    "name": "A#3",
                    "midi": 58,
                    "time": 188.0421690000022,
                    "velocity": 0.44881889763779526,
                    "duration": 0.10576050000000237
                },
                {
                    "name": "B3",
                    "midi": 59,
                    "time": 188.2536900000022,
                    "velocity": 0.49606299212598426,
                    "duration": 0.10576050000000237
                },
                {
                    "name": "C4",
                    "midi": 60,
                    "time": 188.4652110000022,
                    "velocity": 0.44881889763779526,
                    "duration": 0.10576050000000237
                },
                {
                    "name": "A3",
                    "midi": 57,
                    "time": 188.4652110000022,
                    "velocity": 0.44881889763779526,
                    "duration": 0.10576050000000237
                },
                {
                    "name": "B3",
                    "midi": 59,
                    "time": 188.6767320000022,
                    "velocity": 0.5039370078740157,
                    "duration": 0.42304200000000947
                },
                {
                    "name": "G3",
                    "midi": 55,
                    "time": 188.6767320000022,
                    "velocity": 0.41732283464566927,
                    "duration": 0.42304200000000947
                },
                {
                    "name": "E4",
                    "midi": 64,
                    "time": 189.52281600000222,
                    "velocity": 0.3937007874015748,
                    "duration": 0.10576050000000237
                },
                {
                    "name": "G3",
                    "midi": 55,
                    "time": 189.52281600000222,
                    "velocity": 0.33070866141732286,
                    "duration": 0.10576050000000237
                },
                {
                    "name": "G3",
                    "midi": 55,
                    "time": 189.73433700000223,
                    "velocity": 0.2677165354330709,
                    "duration": 0.10576050000000237
                },
                {
                    "name": "E4",
                    "midi": 64,
                    "time": 189.73433700000223,
                    "velocity": 0.31496062992125984,
                    "duration": 0.10576050000000237
                },
                {
                    "name": "E4",
                    "midi": 64,
                    "time": 189.94585800000223,
                    "velocity": 0.31496062992125984,
                    "duration": 0.10576050000000237
                },
                {
                    "name": "G3",
                    "midi": 55,
                    "time": 189.94585800000223,
                    "velocity": 0.2677165354330709,
                    "duration": 0.10576050000000237
                },
                {
                    "name": "G3",
                    "midi": 55,
                    "time": 190.15737900000224,
                    "velocity": 0.2677165354330709,
                    "duration": 0.10576050000000237
                },
                {
                    "name": "E4",
                    "midi": 64,
                    "time": 190.15737900000224,
                    "velocity": 0.31496062992125984,
                    "duration": 0.10576050000000237
                },
                {
                    "name": "E4",
                    "midi": 64,
                    "time": 190.36890000000224,
                    "velocity": 0.3937007874015748,
                    "duration": 0.10576050000000237
                },
                {
                    "name": "G3",
                    "midi": 55,
                    "time": 190.36890000000224,
                    "velocity": 0.33070866141732286,
                    "duration": 0.10576050000000237
                },
                {
                    "name": "E4",
                    "midi": 64,
                    "time": 190.58042100000225,
                    "velocity": 0.31496062992125984,
                    "duration": 0.10576050000000237
                },
                {
                    "name": "G3",
                    "midi": 55,
                    "time": 190.58042100000225,
                    "velocity": 0.2677165354330709,
                    "duration": 0.10576050000000237
                },
                {
                    "name": "G#3",
                    "midi": 56,
                    "time": 190.79194200000225,
                    "velocity": 0.2677165354330709,
                    "duration": 0.10576050000000237
                },
                {
                    "name": "E4",
                    "midi": 64,
                    "time": 190.79194200000225,
                    "velocity": 0.31496062992125984,
                    "duration": 0.10576050000000237
                },
                {
                    "name": "E4",
                    "midi": 64,
                    "time": 191.00346300000226,
                    "velocity": 0.31496062992125984,
                    "duration": 0.10576050000000237
                },
                {
                    "name": "G#3",
                    "midi": 56,
                    "time": 191.00346300000226,
                    "velocity": 0.2677165354330709,
                    "duration": 0.10576050000000237
                },
                {
                    "name": "A3",
                    "midi": 57,
                    "time": 191.21498400000226,
                    "velocity": 0.3779527559055118,
                    "duration": 0.21152100000000473
                },
                {
                    "name": "G3",
                    "midi": 55,
                    "time": 191.42650500000227,
                    "velocity": 0.33070866141732286,
                    "duration": 0.21152100000000473
                },
                {
                    "name": "F#3",
                    "midi": 54,
                    "time": 191.63802600000227,
                    "velocity": 0.33070866141732286,
                    "duration": 0.10576050000000237
                },
                {
                    "name": "D3",
                    "midi": 50,
                    "time": 191.84954700000227,
                    "velocity": 0.33070866141732286,
                    "duration": 0.10576050000000237
                },
                {
                    "name": "C#3",
                    "midi": 49,
                    "time": 192.06106800000228,
                    "velocity": 0.4094488188976378,
                    "duration": 0.21152100000000473
                },
                {
                    "name": "A2",
                    "midi": 45,
                    "time": 192.27258900000228,
                    "velocity": 0.36220472440944884,
                    "duration": 0.21152100000000473
                },
                {
                    "name": "D3",
                    "midi": 50,
                    "time": 192.4841100000023,
                    "velocity": 0.36220472440944884,
                    "duration": 0.10576050000000237
                },
                {
                    "name": "F#3",
                    "midi": 54,
                    "time": 192.6956310000023,
                    "velocity": 0.36220472440944884,
                    "duration": 0.10576050000000237
                },
                {
                    "name": "A3",
                    "midi": 57,
                    "time": 192.9071520000023,
                    "velocity": 0.41732283464566927,
                    "duration": 0.21152100000000473
                },
                {
                    "name": "G3",
                    "midi": 55,
                    "time": 193.1186730000023,
                    "velocity": 0.36220472440944884,
                    "duration": 0.21152100000000473
                },
                {
                    "name": "F#3",
                    "midi": 54,
                    "time": 193.3301940000023,
                    "velocity": 0.3700787401574803,
                    "duration": 0.10576050000000237
                },
                {
                    "name": "D3",
                    "midi": 50,
                    "time": 193.5417150000023,
                    "velocity": 0.3700787401574803,
                    "duration": 0.10576050000000237
                },
                {
                    "name": "C#3",
                    "midi": 49,
                    "time": 193.75323600000232,
                    "velocity": 0.4409448818897638,
                    "duration": 0.21152100000000473
                },
                {
                    "name": "A2",
                    "midi": 45,
                    "time": 193.96475700000232,
                    "velocity": 0.3858267716535433,
                    "duration": 0.21152100000000473
                },
                {
                    "name": "D3",
                    "midi": 50,
                    "time": 194.17627800000233,
                    "velocity": 0.3937007874015748,
                    "duration": 0.10576050000000237
                },
                {
                    "name": "F#3",
                    "midi": 54,
                    "time": 194.38779900000233,
                    "velocity": 0.3937007874015748,
                    "duration": 0.10576050000000237
                },
                {
                    "name": "A3",
                    "midi": 57,
                    "time": 194.59932000000234,
                    "velocity": 0.47244094488188976,
                    "duration": 0.21152100000000473
                },
                {
                    "name": "A2",
                    "midi": 45,
                    "time": 194.59932000000234,
                    "velocity": 0.3937007874015748,
                    "duration": 0.21152100000000473
                },
                {
                    "name": "E3",
                    "midi": 52,
                    "time": 194.59932000000234,
                    "velocity": 0.3937007874015748,
                    "duration": 0.21152100000000473
                },
                {
                    "name": "A3",
                    "midi": 57,
                    "time": 195.02236200000235,
                    "velocity": 0.47244094488188976,
                    "duration": 0.21152100000000473
                },
                {
                    "name": "D3",
                    "midi": 50,
                    "time": 195.02236200000235,
                    "velocity": 0.4015748031496063,
                    "duration": 0.21152100000000473
                },
                {
                    "name": "F#3",
                    "midi": 54,
                    "time": 195.02236200000235,
                    "velocity": 0.4015748031496063,
                    "duration": 0.21152100000000473
                },
                {
                    "name": "A3",
                    "midi": 57,
                    "time": 195.44540400000236,
                    "velocity": 0.48031496062992124,
                    "duration": 0.21152100000000473
                },
                {
                    "name": "A2",
                    "midi": 45,
                    "time": 195.44540400000236,
                    "velocity": 0.4015748031496063,
                    "duration": 0.21152100000000473
                },
                {
                    "name": "E3",
                    "midi": 52,
                    "time": 195.44540400000236,
                    "velocity": 0.4015748031496063,
                    "duration": 0.21152100000000473
                },
                {
                    "name": "F#3",
                    "midi": 54,
                    "time": 195.86844600000236,
                    "velocity": 0.4094488188976378,
                    "duration": 0.21152100000000473
                },
                {
                    "name": "D3",
                    "midi": 50,
                    "time": 195.86844600000236,
                    "velocity": 0.4094488188976378,
                    "duration": 0.21152100000000473
                },
                {
                    "name": "A3",
                    "midi": 57,
                    "time": 195.86844600000236,
                    "velocity": 0.4881889763779528,
                    "duration": 0.21152100000000473
                },
                {
                    "name": "E3",
                    "midi": 52,
                    "time": 196.50300900000238,
                    "velocity": 0.3543307086614173,
                    "duration": 0.07932037500000888
                },
                {
                    "name": "A2",
                    "midi": 45,
                    "time": 196.50300900000238,
                    "velocity": 0.3543307086614173,
                    "duration": 0.07932037500000888
                },
                {
                    "name": "C#3",
                    "midi": 49,
                    "time": 196.50300900000238,
                    "velocity": 0.3543307086614173,
                    "duration": 0.07932037500000888
                },
                {
                    "name": "A3",
                    "midi": 57,
                    "time": 196.50300900000238,
                    "velocity": 0.4330708661417323,
                    "duration": 0.07932037500000888
                },
                {
                    "name": "E3",
                    "midi": 52,
                    "time": 196.71453000000238,
                    "velocity": 0.3543307086614173,
                    "duration": 0.07932037500000888
                },
                {
                    "name": "C#3",
                    "midi": 49,
                    "time": 196.71453000000238,
                    "velocity": 0.3543307086614173,
                    "duration": 0.07932037500000888
                },
                {
                    "name": "A2",
                    "midi": 45,
                    "time": 196.71453000000238,
                    "velocity": 0.3543307086614173,
                    "duration": 0.07932037500000888
                },
                {
                    "name": "A3",
                    "midi": 57,
                    "time": 196.71453000000238,
                    "velocity": 0.4330708661417323,
                    "duration": 0.07932037500000888
                },
                {
                    "name": "E3",
                    "midi": 52,
                    "time": 196.9260510000024,
                    "velocity": 0.3543307086614173,
                    "duration": 0.07932037500000888
                },
                {
                    "name": "C#3",
                    "midi": 49,
                    "time": 196.9260510000024,
                    "velocity": 0.3543307086614173,
                    "duration": 0.07932037500000888
                },
                {
                    "name": "A2",
                    "midi": 45,
                    "time": 196.9260510000024,
                    "velocity": 0.3543307086614173,
                    "duration": 0.07932037500000888
                },
                {
                    "name": "A3",
                    "midi": 57,
                    "time": 196.9260510000024,
                    "velocity": 0.4330708661417323,
                    "duration": 0.07932037500000888
                },
                {
                    "name": "C#3",
                    "midi": 49,
                    "time": 197.1375720000024,
                    "velocity": 0.3858267716535433,
                    "duration": 0.37016174999999407
                },
                {
                    "name": "A3",
                    "midi": 57,
                    "time": 197.1375720000024,
                    "velocity": 0.4566929133858268,
                    "duration": 0.37016174999999407
                },
                {
                    "name": "A2",
                    "midi": 45,
                    "time": 197.1375720000024,
                    "velocity": 0.3858267716535433,
                    "duration": 0.37016174999999407
                },
                {
                    "name": "E3",
                    "midi": 52,
                    "time": 197.1375720000024,
                    "velocity": 0.3858267716535433,
                    "duration": 0.37016174999999407
                },
                {
                    "name": "D4",
                    "midi": 62,
                    "time": 197.98365600000238,
                    "velocity": 0.23622047244094488,
                    "duration": 0.21152100000000473
                },
                {
                    "name": "F#4",
                    "midi": 66,
                    "time": 198.1951770000024,
                    "velocity": 0.18110236220472442,
                    "duration": 0.21152100000000473
                },
                {
                    "name": "E4",
                    "midi": 64,
                    "time": 198.4066980000024,
                    "velocity": 0.23622047244094488,
                    "duration": 0.21152100000000473
                },
                {
                    "name": "G4",
                    "midi": 67,
                    "time": 198.6182190000024,
                    "velocity": 0.2125984251968504,
                    "duration": 0.21152100000000473
                },
                {
                    "name": "F#4",
                    "midi": 66,
                    "time": 198.8297400000024,
                    "velocity": 0.25196850393700787,
                    "duration": 0.21152100000000473
                },
                {
                    "name": "A4",
                    "midi": 69,
                    "time": 199.0412610000024,
                    "velocity": 0.2047244094488189,
                    "duration": 0.21152100000000473
                },
                {
                    "name": "D4",
                    "midi": 62,
                    "time": 199.2527820000024,
                    "velocity": 0.2283464566929134,
                    "duration": 0.21152100000000473
                },
                {
                    "name": "F#4",
                    "midi": 66,
                    "time": 199.46430300000242,
                    "velocity": 0.2047244094488189,
                    "duration": 0.21152100000000473
                },
                {
                    "name": "E4",
                    "midi": 64,
                    "time": 199.67582400000242,
                    "velocity": 0.2677165354330709,
                    "duration": 0.21152100000000473
                },
                {
                    "name": "B4",
                    "midi": 71,
                    "time": 199.88734500000243,
                    "velocity": 0.2204724409448819,
                    "duration": 0.21152100000000473
                },
                {
                    "name": "G4",
                    "midi": 67,
                    "time": 200.09886600000243,
                    "velocity": 0.25196850393700787,
                    "duration": 0.21152100000000473
                },
                {
                    "name": "E4",
                    "midi": 64,
                    "time": 200.31038700000244,
                    "velocity": 0.2204724409448819,
                    "duration": 0.21152100000000473
                },
                {
                    "name": "C#4",
                    "midi": 61,
                    "time": 200.52190800000244,
                    "velocity": 0.2677165354330709,
                    "duration": 0.21152100000000473
                },
                {
                    "name": "E4",
                    "midi": 64,
                    "time": 200.73342900000245,
                    "velocity": 0.2283464566929134,
                    "duration": 0.21152100000000473
                },
                {
                    "name": "A3",
                    "midi": 57,
                    "time": 200.94495000000245,
                    "velocity": 0.23622047244094488,
                    "duration": 0.21152100000000473
                },
                {
                    "name": "G4",
                    "midi": 67,
                    "time": 201.15647100000245,
                    "velocity": 0.2204724409448819,
                    "duration": 0.21152100000000473
                },
                {
                    "name": "F#4",
                    "midi": 66,
                    "time": 201.36799200000246,
                    "velocity": 0.2677165354330709,
                    "duration": 0.21152100000000473
                },
                {
                    "name": "A4",
                    "midi": 69,
                    "time": 201.57951300000246,
                    "velocity": 0.2204724409448819,
                    "duration": 0.21152100000000473
                },
                {
                    "name": "C#4",
                    "midi": 61,
                    "time": 201.79103400000247,
                    "velocity": 0.23622047244094488,
                    "duration": 0.21152100000000473
                },
                {
                    "name": "A4",
                    "midi": 69,
                    "time": 202.00255500000247,
                    "velocity": 0.2204724409448819,
                    "duration": 0.21152100000000473
                },
                {
                    "name": "D4",
                    "midi": 62,
                    "time": 202.21407600000248,
                    "velocity": 0.2677165354330709,
                    "duration": 0.21152100000000473
                },
                {
                    "name": "A4",
                    "midi": 69,
                    "time": 202.42559700000248,
                    "velocity": 0.2047244094488189,
                    "duration": 0.21152100000000473
                },
                {
                    "name": "B3",
                    "midi": 59,
                    "time": 202.6371180000025,
                    "velocity": 0.2283464566929134,
                    "duration": 0.21152100000000473
                },
                {
                    "name": "D4",
                    "midi": 62,
                    "time": 202.8486390000025,
                    "velocity": 0.2047244094488189,
                    "duration": 0.21152100000000473
                },
                {
                    "name": "A3",
                    "midi": 57,
                    "time": 203.0601600000025,
                    "velocity": 0.2677165354330709,
                    "duration": 0.21152100000000473
                },
                {
                    "name": "D4",
                    "midi": 62,
                    "time": 203.2716810000025,
                    "velocity": 0.2125984251968504,
                    "duration": 0.21152100000000473
                },
                {
                    "name": "F#4",
                    "midi": 66,
                    "time": 203.4832020000025,
                    "velocity": 0.23622047244094488,
                    "duration": 0.21152100000000473
                },
                {
                    "name": "D4",
                    "midi": 62,
                    "time": 203.6947230000025,
                    "velocity": 0.2125984251968504,
                    "duration": 0.21152100000000473
                },
                {
                    "name": "C#4",
                    "midi": 61,
                    "time": 203.90624400000252,
                    "velocity": 0.25984251968503935,
                    "duration": 0.42304200000000947
                },
                {
                    "name": "A3",
                    "midi": 57,
                    "time": 203.90624400000252,
                    "velocity": 0.25984251968503935,
                    "duration": 0.42304200000000947
                },
                {
                    "name": "D4",
                    "midi": 62,
                    "time": 204.75232800000254,
                    "velocity": 0.2677165354330709,
                    "duration": 0.21152100000000473
                },
                {
                    "name": "F4",
                    "midi": 65,
                    "time": 204.96384900000254,
                    "velocity": 0.2125984251968504,
                    "duration": 0.21152100000000473
                },
                {
                    "name": "E4",
                    "midi": 64,
                    "time": 205.17537000000254,
                    "velocity": 0.23622047244094488,
                    "duration": 0.21152100000000473
                },
                {
                    "name": "G4",
                    "midi": 67,
                    "time": 205.38689100000255,
                    "velocity": 0.2125984251968504,
                    "duration": 0.21152100000000473
                },
                {
                    "name": "F4",
                    "midi": 65,
                    "time": 205.59841200000255,
                    "velocity": 0.25196850393700787,
                    "duration": 0.21152100000000473
                },
                {
                    "name": "A4",
                    "midi": 69,
                    "time": 205.80993300000256,
                    "velocity": 0.2047244094488189,
                    "duration": 0.10576050000000237
                },
                {
                    "name": "D4",
                    "midi": 62,
                    "time": 206.02145400000256,
                    "velocity": 0.2283464566929134,
                    "duration": 0.21152100000000473
                },
                {
                    "name": "F4",
                    "midi": 65,
                    "time": 206.23297500000257,
                    "velocity": 0.2047244094488189,
                    "duration": 0.10576050000000237
                },
                {
                    "name": "E4",
                    "midi": 64,
                    "time": 206.44449600000257,
                    "velocity": 0.2677165354330709,
                    "duration": 0.21152100000000473
                },
                {
                    "name": "A#4",
                    "midi": 70,
                    "time": 206.65601700000258,
                    "velocity": 0.2204724409448819,
                    "duration": 0.21152100000000473
                },
                {
                    "name": "G4",
                    "midi": 67,
                    "time": 206.86753800000258,
                    "velocity": 0.25196850393700787,
                    "duration": 0.21152100000000473
                },
                {
                    "name": "E4",
                    "midi": 64,
                    "time": 207.0790590000026,
                    "velocity": 0.2204724409448819,
                    "duration": 0.21152100000000473
                },
                {
                    "name": "C#4",
                    "midi": 61,
                    "time": 207.2905800000026,
                    "velocity": 0.2677165354330709,
                    "duration": 0.21152100000000473
                },
                {
                    "name": "E4",
                    "midi": 64,
                    "time": 207.5021010000026,
                    "velocity": 0.2283464566929134,
                    "duration": 0.10576050000000237
                },
                {
                    "name": "A3",
                    "midi": 57,
                    "time": 207.7136220000026,
                    "velocity": 0.23622047244094488,
                    "duration": 0.21152100000000473
                },
                {
                    "name": "C#4",
                    "midi": 61,
                    "time": 207.9251430000026,
                    "velocity": 0.2204724409448819,
                    "duration": 0.10576050000000237
                },
                {
                    "name": "D4",
                    "midi": 62,
                    "time": 208.1366640000026,
                    "velocity": 0.2677165354330709,
                    "duration": 0.21152100000000473
                },
                {
                    "name": "A4",
                    "midi": 69,
                    "time": 208.34818500000262,
                    "velocity": 0.2125984251968504,
                    "duration": 0.21152100000000473
                },
                {
                    "name": "C4",
                    "midi": 60,
                    "time": 208.55970600000262,
                    "velocity": 0.23622047244094488,
                    "duration": 0.21152100000000473
                },
                {
                    "name": "A4",
                    "midi": 69,
                    "time": 208.77122700000263,
                    "velocity": 0.2125984251968504,
                    "duration": 0.21152100000000473
                },
                {
                    "name": "A#3",
                    "midi": 58,
                    "time": 208.98274800000263,
                    "velocity": 0.25196850393700787,
                    "duration": 0.21152100000000473
                },
                {
                    "name": "F4",
                    "midi": 65,
                    "time": 209.19426900000263,
                    "velocity": 0.2047244094488189,
                    "duration": 0.21152100000000473
                },
                {
                    "name": "E4",
                    "midi": 64,
                    "time": 209.40579000000264,
                    "velocity": 0.2283464566929134,
                    "duration": 0.21152100000000473
                },
                {
                    "name": "D4",
                    "midi": 62,
                    "time": 209.61731100000264,
                    "velocity": 0.2047244094488189,
                    "duration": 0.21152100000000473
                },
                {
                    "name": "A3",
                    "midi": 57,
                    "time": 209.82883200000265,
                    "velocity": 0.25984251968503935,
                    "duration": 0.21152100000000473
                },
                {
                    "name": "D4",
                    "midi": 62,
                    "time": 210.04035300000265,
                    "velocity": 0.1732283464566929,
                    "duration": 0.21152100000000473
                },
                {
                    "name": "F4",
                    "midi": 65,
                    "time": 210.25187400000266,
                    "velocity": 0.2204724409448819,
                    "duration": 0.21152100000000473
                },
                {
                    "name": "D4",
                    "midi": 62,
                    "time": 210.46339500000266,
                    "velocity": 0.1889763779527559,
                    "duration": 0.21152100000000473
                },
                {
                    "name": "C#4",
                    "midi": 61,
                    "time": 210.67491600000267,
                    "velocity": 0.2440944881889764,
                    "duration": 0.21152100000000473
                },
                {
                    "name": "A3",
                    "midi": 57,
                    "time": 210.67491600000267,
                    "velocity": 0.1889763779527559,
                    "duration": 0.21152100000000473
                },
                {
                    "name": "G2",
                    "midi": 43,
                    "time": 210.88643700000267,
                    "velocity": 0.3543307086614173,
                    "duration": 0.10576050000000237
                },
                {
                    "name": "G3",
                    "midi": 55,
                    "time": 210.88643700000267,
                    "velocity": 0.41732283464566927,
                    "duration": 0.10576050000000237
                },
                {
                    "name": "F#2",
                    "midi": 42,
                    "time": 211.09795800000268,
                    "velocity": 0.3779527559055118,
                    "duration": 0.10576050000000237
                },
                {
                    "name": "F#3",
                    "midi": 54,
                    "time": 211.09795800000268,
                    "velocity": 0.44881889763779526,
                    "duration": 0.10576050000000237
                },
                {
                    "name": "E3",
                    "midi": 52,
                    "time": 211.30947900000268,
                    "velocity": 0.48031496062992124,
                    "duration": 0.10576050000000237
                },
                {
                    "name": "E2",
                    "midi": 40,
                    "time": 211.30947900000268,
                    "velocity": 0.4015748031496063,
                    "duration": 0.10576050000000237
                },
                {
                    "name": "D3",
                    "midi": 50,
                    "time": 211.5210000000027,
                    "velocity": 0.5118110236220472,
                    "duration": 0.42304200000000947
                },
                {
                    "name": "D2",
                    "midi": 38,
                    "time": 211.5210000000027,
                    "velocity": 0.4330708661417323,
                    "duration": 0.42304200000000947
                },
                {
                    "name": "D5",
                    "midi": 74,
                    "time": 212.1555630000027,
                    "velocity": 0.3858267716535433,
                    "duration": 0.10576050000000237
                },
                {
                    "name": "E5",
                    "midi": 76,
                    "time": 212.3670840000027,
                    "velocity": 0.4330708661417323,
                    "duration": 0.10576050000000237
                },
                {
                    "name": "D5",
                    "midi": 74,
                    "time": 212.5786050000027,
                    "velocity": 0.3858267716535433,
                    "duration": 0.10576050000000237
                },
                {
                    "name": "C#5",
                    "midi": 73,
                    "time": 212.79012600000272,
                    "velocity": 0.4566929133858268,
                    "duration": 0.10576050000000237
                },
                {
                    "name": "A4",
                    "midi": 69,
                    "time": 213.00164700000272,
                    "velocity": 0.3779527559055118,
                    "duration": 0.10576050000000237
                },
                {
                    "name": "D5",
                    "midi": 74,
                    "time": 213.21316800000272,
                    "velocity": 0.4251968503937008,
                    "duration": 0.42304200000000947
                },
                {
                    "name": "D4",
                    "midi": 62,
                    "time": 213.84773100000274,
                    "velocity": 0.3858267716535433,
                    "duration": 0.10576050000000237
                },
                {
                    "name": "E4",
                    "midi": 64,
                    "time": 214.05925200000274,
                    "velocity": 0.4330708661417323,
                    "duration": 0.10576050000000237
                },
                {
                    "name": "D4",
                    "midi": 62,
                    "time": 214.27077300000275,
                    "velocity": 0.3779527559055118,
                    "duration": 0.10576050000000237
                },
                {
                    "name": "C#4",
                    "midi": 61,
                    "time": 214.48229400000275,
                    "velocity": 0.4251968503937008,
                    "duration": 0.10576050000000237
                },
                {
                    "name": "A3",
                    "midi": 57,
                    "time": 214.69381500000276,
                    "velocity": 0.3700787401574803,
                    "duration": 0.10576050000000237
                },
                {
                    "name": "D4",
                    "midi": 62,
                    "time": 214.90533600000276,
                    "velocity": 0.4094488188976378,
                    "duration": 0.10576050000000237
                },
                {
                    "name": "A4",
                    "midi": 69,
                    "time": 215.01109650000276,
                    "velocity": 0.2755905511811024,
                    "duration": 0.10576050000000237
                },
                {
                    "name": "G#4",
                    "midi": 68,
                    "time": 215.11685700000277,
                    "velocity": 0.33070866141732286,
                    "duration": 0.10576050000000237
                },
                {
                    "name": "A4",
                    "midi": 69,
                    "time": 215.22261750000277,
                    "velocity": 0.2992125984251969,
                    "duration": 0.10576050000000237
                },
                {
                    "name": "B4",
                    "midi": 71,
                    "time": 215.32837800000277,
                    "velocity": 0.3700787401574803,
                    "duration": 0.10576050000000237
                },
                {
                    "name": "A4",
                    "midi": 69,
                    "time": 215.43413850000277,
                    "velocity": 0.30708661417322836,
                    "duration": 0.10576050000000237
                },
                {
                    "name": "G#4",
                    "midi": 68,
                    "time": 215.53989900000278,
                    "velocity": 0.3464566929133858,
                    "duration": 0.10576050000000237
                },
                {
                    "name": "A4",
                    "midi": 69,
                    "time": 215.64565950000278,
                    "velocity": 0.31496062992125984,
                    "duration": 0.10576050000000237
                },
                {
                    "name": "G4",
                    "midi": 67,
                    "time": 215.75142000000278,
                    "velocity": 0.3700787401574803,
                    "duration": 0.10576050000000237
                },
                {
                    "name": "A4",
                    "midi": 69,
                    "time": 215.85718050000278,
                    "velocity": 0.30708661417322836,
                    "duration": 0.10576050000000237
                },
                {
                    "name": "G4",
                    "midi": 67,
                    "time": 215.9629410000028,
                    "velocity": 0.3228346456692913,
                    "duration": 0.10576050000000237
                },
                {
                    "name": "A4",
                    "midi": 69,
                    "time": 216.0687015000028,
                    "velocity": 0.30708661417322836,
                    "duration": 0.10576050000000237
                },
                {
                    "name": "G4",
                    "midi": 67,
                    "time": 216.1744620000028,
                    "velocity": 0.3858267716535433,
                    "duration": 0.10576050000000237
                },
                {
                    "name": "A4",
                    "midi": 69,
                    "time": 216.2802225000028,
                    "velocity": 0.30708661417322836,
                    "duration": 0.10576050000000237
                },
                {
                    "name": "G4",
                    "midi": 67,
                    "time": 216.3859830000028,
                    "velocity": 0.3464566929133858,
                    "duration": 0.10576050000000237
                },
                {
                    "name": "A4",
                    "midi": 69,
                    "time": 216.4917435000028,
                    "velocity": 0.30708661417322836,
                    "duration": 0.10576050000000237
                },
                {
                    "name": "F#4",
                    "midi": 66,
                    "time": 216.5975040000028,
                    "velocity": 0.30708661417322836,
                    "duration": 0.10576050000000237
                },
                {
                    "name": "A4",
                    "midi": 69,
                    "time": 216.7032645000028,
                    "velocity": 0.2992125984251969,
                    "duration": 0.10576050000000237
                },
                {
                    "name": "G#4",
                    "midi": 68,
                    "time": 216.8090250000028,
                    "velocity": 0.3228346456692913,
                    "duration": 0.10576050000000237
                },
                {
                    "name": "A4",
                    "midi": 69,
                    "time": 216.9147855000028,
                    "velocity": 0.29133858267716534,
                    "duration": 0.10576050000000237
                },
                {
                    "name": "B4",
                    "midi": 71,
                    "time": 217.0205460000028,
                    "velocity": 0.31496062992125984,
                    "duration": 0.10576050000000237
                },
                {
                    "name": "A4",
                    "midi": 69,
                    "time": 217.1263065000028,
                    "velocity": 0.29133858267716534,
                    "duration": 0.10576050000000237
                },
                {
                    "name": "G#4",
                    "midi": 68,
                    "time": 217.23206700000281,
                    "velocity": 0.3464566929133858,
                    "duration": 0.10576050000000237
                },
                {
                    "name": "A4",
                    "midi": 69,
                    "time": 217.33782750000282,
                    "velocity": 0.31496062992125984,
                    "duration": 0.10576050000000237
                },
                {
                    "name": "G4",
                    "midi": 67,
                    "time": 217.44358800000282,
                    "velocity": 0.3700787401574803,
                    "duration": 0.10576050000000237
                },
                {
                    "name": "A4",
                    "midi": 69,
                    "time": 217.54934850000282,
                    "velocity": 0.33070866141732286,
                    "duration": 0.10576050000000237
                },
                {
                    "name": "G4",
                    "midi": 67,
                    "time": 217.65510900000282,
                    "velocity": 0.3464566929133858,
                    "duration": 0.10576050000000237
                },
                {
                    "name": "A4",
                    "midi": 69,
                    "time": 217.76086950000283,
                    "velocity": 0.30708661417322836,
                    "duration": 0.10576050000000237
                },
                {
                    "name": "G4",
                    "midi": 67,
                    "time": 217.86663000000283,
                    "velocity": 0.3858267716535433,
                    "duration": 0.10576050000000237
                },
                {
                    "name": "A4",
                    "midi": 69,
                    "time": 217.97239050000283,
                    "velocity": 0.33858267716535434,
                    "duration": 0.10576050000000237
                },
                {
                    "name": "G4",
                    "midi": 67,
                    "time": 218.07815100000283,
                    "velocity": 0.3700787401574803,
                    "duration": 0.10576050000000237
                },
                {
                    "name": "A4",
                    "midi": 69,
                    "time": 218.18391150000284,
                    "velocity": 0.30708661417322836,
                    "duration": 0.10576050000000237
                },
                {
                    "name": "F#4",
                    "midi": 66,
                    "time": 218.28967200000284,
                    "velocity": 0.3228346456692913,
                    "duration": 0.42304200000000947
                },
                {
                    "name": "F#4",
                    "midi": 66,
                    "time": 218.71271400000285,
                    "velocity": 0.2755905511811024,
                    "duration": 0.10576050000000237
                },
                {
                    "name": "D5",
                    "midi": 74,
                    "time": 218.81847450000285,
                    "velocity": 0.2283464566929134,
                    "duration": 0.10576050000000237
                },
                {
                    "name": "F#4",
                    "midi": 66,
                    "time": 218.92423500000285,
                    "velocity": 0.2283464566929134,
                    "duration": 0.10576050000000237
                },
                {
                    "name": "D5",
                    "midi": 74,
                    "time": 219.02999550000285,
                    "velocity": 0.2283464566929134,
                    "duration": 0.10576050000000237
                },
                {
                    "name": "E4",
                    "midi": 64,
                    "time": 219.13575600000286,
                    "velocity": 0.2755905511811024,
                    "duration": 0.10576050000000237
                },
                {
                    "name": "D5",
                    "midi": 74,
                    "time": 219.24151650000286,
                    "velocity": 0.23622047244094488,
                    "duration": 0.10576050000000237
                },
                {
                    "name": "E4",
                    "midi": 64,
                    "time": 219.34727700000286,
                    "velocity": 0.23622047244094488,
                    "duration": 0.10576050000000237
                },
                {
                    "name": "D5",
                    "midi": 74,
                    "time": 219.45303750000286,
                    "velocity": 0.23622047244094488,
                    "duration": 0.10576050000000237
                },
                {
                    "name": "D4",
                    "midi": 62,
                    "time": 219.55879800000287,
                    "velocity": 0.2755905511811024,
                    "duration": 0.10576050000000237
                },
                {
                    "name": "D5",
                    "midi": 74,
                    "time": 219.66455850000287,
                    "velocity": 0.2440944881889764,
                    "duration": 0.10576050000000237
                },
                {
                    "name": "D4",
                    "midi": 62,
                    "time": 219.77031900000287,
                    "velocity": 0.2440944881889764,
                    "duration": 0.10576050000000237
                },
                {
                    "name": "D5",
                    "midi": 74,
                    "time": 219.87607950000287,
                    "velocity": 0.2440944881889764,
                    "duration": 0.10576050000000237
                },
                {
                    "name": "G4",
                    "midi": 67,
                    "time": 219.98184000000288,
                    "velocity": 0.2755905511811024,
                    "duration": 0.10576050000000237
                },
                {
                    "name": "D5",
                    "midi": 74,
                    "time": 220.08760050000288,
                    "velocity": 0.23622047244094488,
                    "duration": 0.10576050000000237
                },
                {
                    "name": "C#5",
                    "midi": 73,
                    "time": 220.19336100000288,
                    "velocity": 0.23622047244094488,
                    "duration": 0.10576050000000237
                },
                {
                    "name": "D5",
                    "midi": 74,
                    "time": 220.29912150000288,
                    "velocity": 0.23622047244094488,
                    "duration": 0.10576050000000237
                },
                {
                    "name": "G4",
                    "midi": 67,
                    "time": 220.40488200000289,
                    "velocity": 0.2755905511811024,
                    "duration": 0.10576050000000237
                },
                {
                    "name": "D5",
                    "midi": 74,
                    "time": 220.5106425000029,
                    "velocity": 0.23622047244094488,
                    "duration": 0.10576050000000237
                },
                {
                    "name": "C#5",
                    "midi": 73,
                    "time": 220.6164030000029,
                    "velocity": 0.23622047244094488,
                    "duration": 0.10576050000000237
                },
                {
                    "name": "D5",
                    "midi": 74,
                    "time": 220.7221635000029,
                    "velocity": 0.23622047244094488,
                    "duration": 0.10576050000000237
                },
                {
                    "name": "G4",
                    "midi": 67,
                    "time": 220.8279240000029,
                    "velocity": 0.23622047244094488,
                    "duration": 0.10576050000000237
                },
                {
                    "name": "D5",
                    "midi": 74,
                    "time": 220.9336845000029,
                    "velocity": 0.25196850393700787,
                    "duration": 0.10576050000000237
                },
                {
                    "name": "C#5",
                    "midi": 73,
                    "time": 221.0394450000029,
                    "velocity": 0.25196850393700787,
                    "duration": 0.10576050000000237
                },
                {
                    "name": "D5",
                    "midi": 74,
                    "time": 221.1452055000029,
                    "velocity": 0.25196850393700787,
                    "duration": 0.10576050000000237
                },
                {
                    "name": "G4",
                    "midi": 67,
                    "time": 221.2509660000029,
                    "velocity": 0.2677165354330709,
                    "duration": 0.10576050000000237
                },
                {
                    "name": "D5",
                    "midi": 74,
                    "time": 221.3567265000029,
                    "velocity": 0.23622047244094488,
                    "duration": 0.10576050000000237
                },
                {
                    "name": "C#5",
                    "midi": 73,
                    "time": 221.4624870000029,
                    "velocity": 0.23622047244094488,
                    "duration": 0.10576050000000237
                },
                {
                    "name": "D5",
                    "midi": 74,
                    "time": 221.5682475000029,
                    "velocity": 0.23622047244094488,
                    "duration": 0.10576050000000237
                },
                {
                    "name": "F#4",
                    "midi": 66,
                    "time": 221.6740080000029,
                    "velocity": 0.29133858267716534,
                    "duration": 0.10576050000000237
                },
                {
                    "name": "D5",
                    "midi": 74,
                    "time": 221.77976850000292,
                    "velocity": 0.29133858267716534,
                    "duration": 0.10576050000000237
                },
                {
                    "name": "C#5",
                    "midi": 73,
                    "time": 221.88552900000292,
                    "velocity": 0.2204724409448819,
                    "duration": 0.10576050000000237
                },
                {
                    "name": "D5",
                    "midi": 74,
                    "time": 221.99128950000292,
                    "velocity": 0.2204724409448819,
                    "duration": 0.10576050000000237
                },
                {
                    "name": "F#4",
                    "midi": 66,
                    "time": 222.09705000000292,
                    "velocity": 0.3543307086614173,
                    "duration": 0.10576050000000237
                },
                {
                    "name": "D5",
                    "midi": 74,
                    "time": 222.20281050000293,
                    "velocity": 0.29133858267716534,
                    "duration": 0.10576050000000237
                },
                {
                    "name": "F#4",
                    "midi": 66,
                    "time": 222.30857100000293,
                    "velocity": 0.29133858267716534,
                    "duration": 0.10576050000000237
                },
                {
                    "name": "D5",
                    "midi": 74,
                    "time": 222.41433150000293,
                    "velocity": 0.29133858267716534,
                    "duration": 0.10576050000000237
                },
                {
                    "name": "E4",
                    "midi": 64,
                    "time": 222.52009200000293,
                    "velocity": 0.3543307086614173,
                    "duration": 0.10576050000000237
                },
                {
                    "name": "D5",
                    "midi": 74,
                    "time": 222.62585250000294,
                    "velocity": 0.30708661417322836,
                    "duration": 0.10576050000000237
                },
                {
                    "name": "E4",
                    "midi": 64,
                    "time": 222.73161300000294,
                    "velocity": 0.30708661417322836,
                    "duration": 0.10576050000000237
                },
                {
                    "name": "D5",
                    "midi": 74,
                    "time": 222.83737350000294,
                    "velocity": 0.30708661417322836,
                    "duration": 0.10576050000000237
                },
                {
                    "name": "D4",
                    "midi": 62,
                    "time": 222.94313400000294,
                    "velocity": 0.3543307086614173,
                    "duration": 0.10576050000000237
                },
                {
                    "name": "D5",
                    "midi": 74,
                    "time": 223.04889450000294,
                    "velocity": 0.31496062992125984,
                    "duration": 0.10576050000000237
                },
                {
                    "name": "D4",
                    "midi": 62,
                    "time": 223.15465500000295,
                    "velocity": 0.31496062992125984,
                    "duration": 0.10576050000000237
                },
                {
                    "name": "D5",
                    "midi": 74,
                    "time": 223.26041550000295,
                    "velocity": 0.31496062992125984,
                    "duration": 0.10576050000000237
                },
                {
                    "name": "G3",
                    "midi": 55,
                    "time": 223.36617600000295,
                    "velocity": 0.3543307086614173,
                    "duration": 0.10576050000000237
                },
                {
                    "name": "E4",
                    "midi": 64,
                    "time": 223.47193650000295,
                    "velocity": 0.30708661417322836,
                    "duration": 0.10576050000000237
                },
                {
                    "name": "B3",
                    "midi": 59,
                    "time": 223.57769700000296,
                    "velocity": 0.30708661417322836,
                    "duration": 0.10576050000000237
                },
                {
                    "name": "E4",
                    "midi": 64,
                    "time": 223.68345750000296,
                    "velocity": 0.30708661417322836,
                    "duration": 0.10576050000000237
                },
                {
                    "name": "G3",
                    "midi": 55,
                    "time": 223.78921800000296,
                    "velocity": 0.3543307086614173,
                    "duration": 0.10576050000000237
                },
                {
                    "name": "E4",
                    "midi": 64,
                    "time": 223.89497850000296,
                    "velocity": 0.30708661417322836,
                    "duration": 0.10576050000000237
                },
                {
                    "name": "B3",
                    "midi": 59,
                    "time": 224.00073900000297,
                    "velocity": 0.30708661417322836,
                    "duration": 0.10576050000000237
                },
                {
                    "name": "E4",
                    "midi": 64,
                    "time": 224.10649950000297,
                    "velocity": 0.30708661417322836,
                    "duration": 0.10576050000000237
                },
                {
                    "name": "A3",
                    "midi": 57,
                    "time": 224.21226000000297,
                    "velocity": 0.30708661417322836,
                    "duration": 0.10576050000000237
                },
                {
                    "name": "F#4",
                    "midi": 66,
                    "time": 224.31802050000297,
                    "velocity": 0.3228346456692913,
                    "duration": 0.10576050000000237
                },
                {
                    "name": "D4",
                    "midi": 62,
                    "time": 224.42378100000298,
                    "velocity": 0.3228346456692913,
                    "duration": 0.10576050000000237
                },
                {
                    "name": "F#4",
                    "midi": 66,
                    "time": 224.52954150000298,
                    "velocity": 0.3228346456692913,
                    "duration": 0.10576050000000237
                },
                {
                    "name": "A3",
                    "midi": 57,
                    "time": 224.63530200000298,
                    "velocity": 0.3464566929133858,
                    "duration": 0.10576050000000237
                },
                {
                    "name": "G4",
                    "midi": 67,
                    "time": 224.74106250000298,
                    "velocity": 0.30708661417322836,
                    "duration": 0.10576050000000237
                },
                {
                    "name": "C#4",
                    "midi": 61,
                    "time": 224.84682300000298,
                    "velocity": 0.30708661417322836,
                    "duration": 0.10576050000000237
                },
                {
                    "name": "G4",
                    "midi": 67,
                    "time": 224.952583500003,
                    "velocity": 0.30708661417322836,
                    "duration": 0.10576050000000237
                },
                {
                    "name": "D4",
                    "midi": 62,
                    "time": 225.058344000003,
                    "velocity": 0.3779527559055118,
                    "duration": 0.10576050000000237
                },
                {
                    "name": "F#4",
                    "midi": 66,
                    "time": 225.164104500003,
                    "velocity": 0.33070866141732286,
                    "duration": 0.10576050000000237
                },
                {
                    "name": "D4",
                    "midi": 62,
                    "time": 225.269865000003,
                    "velocity": 0.28346456692913385,
                    "duration": 0.10576050000000237
                },
                {
                    "name": "F#4",
                    "midi": 66,
                    "time": 225.375625500003,
                    "velocity": 0.28346456692913385,
                    "duration": 0.10576050000000237
                },
                {
                    "name": "F#3",
                    "midi": 54,
                    "time": 225.481386000003,
                    "velocity": 0.2755905511811024,
                    "duration": 0.10576050000000237
                },
                {
                    "name": "D4",
                    "midi": 62,
                    "time": 225.587146500003,
                    "velocity": 0.2283464566929134,
                    "duration": 0.10576050000000237
                },
                {
                    "name": "F#3",
                    "midi": 54,
                    "time": 225.692907000003,
                    "velocity": 0.2283464566929134,
                    "duration": 0.10576050000000237
                },
                {
                    "name": "D4",
                    "midi": 62,
                    "time": 225.798667500003,
                    "velocity": 0.2283464566929134,
                    "duration": 0.10576050000000237
                },
                {
                    "name": "E3",
                    "midi": 52,
                    "time": 225.904428000003,
                    "velocity": 0.2755905511811024,
                    "duration": 0.10576050000000237
                },
                {
                    "name": "D4",
                    "midi": 62,
                    "time": 226.010188500003,
                    "velocity": 0.23622047244094488,
                    "duration": 0.10576050000000237
                },
                {
                    "name": "E3",
                    "midi": 52,
                    "time": 226.115949000003,
                    "velocity": 0.23622047244094488,
                    "duration": 0.10576050000000237
                },
                {
                    "name": "D4",
                    "midi": 62,
                    "time": 226.22170950000302,
                    "velocity": 0.23622047244094488,
                    "duration": 0.10576050000000237
                },
                {
                    "name": "D3",
                    "midi": 50,
                    "time": 226.32747000000302,
                    "velocity": 0.2755905511811024,
                    "duration": 0.10576050000000237
                },
                {
                    "name": "D4",
                    "midi": 62,
                    "time": 226.43323050000302,
                    "velocity": 0.2440944881889764,
                    "duration": 0.10576050000000237
                },
                {
                    "name": "D3",
                    "midi": 50,
                    "time": 226.53899100000302,
                    "velocity": 0.2440944881889764,
                    "duration": 0.10576050000000237
                },
                {
                    "name": "D4",
                    "midi": 62,
                    "time": 226.64475150000303,
                    "velocity": 0.2440944881889764,
                    "duration": 0.10576050000000237
                },
                {
                    "name": "G3",
                    "midi": 55,
                    "time": 226.75051200000303,
                    "velocity": 0.2755905511811024,
                    "duration": 0.10576050000000237
                },
                {
                    "name": "D4",
                    "midi": 62,
                    "time": 226.85627250000303,
                    "velocity": 0.23622047244094488,
                    "duration": 0.10576050000000237
                },
                {
                    "name": "C#4",
                    "midi": 61,
                    "time": 226.96203300000303,
                    "velocity": 0.23622047244094488,
                    "duration": 0.10576050000000237
                },
                {
                    "name": "D4",
                    "midi": 62,
                    "time": 227.06779350000303,
                    "velocity": 0.23622047244094488,
                    "duration": 0.10576050000000237
                },
                {
                    "name": "G3",
                    "midi": 55,
                    "time": 227.17355400000304,
                    "velocity": 0.2755905511811024,
                    "duration": 0.10576050000000237
                },
                {
                    "name": "D4",
                    "midi": 62,
                    "time": 227.27931450000304,
                    "velocity": 0.23622047244094488,
                    "duration": 0.10576050000000237
                },
                {
                    "name": "C#4",
                    "midi": 61,
                    "time": 227.38507500000304,
                    "velocity": 0.23622047244094488,
                    "duration": 0.10576050000000237
                },
                {
                    "name": "D4",
                    "midi": 62,
                    "time": 227.49083550000304,
                    "velocity": 0.23622047244094488,
                    "duration": 0.10576050000000237
                },
                {
                    "name": "G3",
                    "midi": 55,
                    "time": 227.59659600000305,
                    "velocity": 0.23622047244094488,
                    "duration": 0.10576050000000237
                },
                {
                    "name": "D4",
                    "midi": 62,
                    "time": 227.70235650000305,
                    "velocity": 0.25196850393700787,
                    "duration": 0.10576050000000237
                },
                {
                    "name": "C#4",
                    "midi": 61,
                    "time": 227.80811700000305,
                    "velocity": 0.25196850393700787,
                    "duration": 0.10576050000000237
                },
                {
                    "name": "D4",
                    "midi": 62,
                    "time": 227.91387750000305,
                    "velocity": 0.25196850393700787,
                    "duration": 0.10576050000000237
                },
                {
                    "name": "G3",
                    "midi": 55,
                    "time": 228.01963800000306,
                    "velocity": 0.2677165354330709,
                    "duration": 0.10576050000000237
                },
                {
                    "name": "D4",
                    "midi": 62,
                    "time": 228.12539850000306,
                    "velocity": 0.23622047244094488,
                    "duration": 0.10576050000000237
                },
                {
                    "name": "C#4",
                    "midi": 61,
                    "time": 228.23115900000306,
                    "velocity": 0.23622047244094488,
                    "duration": 0.10576050000000237
                },
                {
                    "name": "D4",
                    "midi": 62,
                    "time": 228.33691950000306,
                    "velocity": 0.23622047244094488,
                    "duration": 0.10576050000000237
                },
                {
                    "name": "F#3",
                    "midi": 54,
                    "time": 228.44268000000307,
                    "velocity": 0.29133858267716534,
                    "duration": 0.10576050000000237
                },
                {
                    "name": "D4",
                    "midi": 62,
                    "time": 228.54844050000307,
                    "velocity": 0.29133858267716534,
                    "duration": 0.10576050000000237
                },
                {
                    "name": "C#4",
                    "midi": 61,
                    "time": 228.65420100000307,
                    "velocity": 0.2204724409448819,
                    "duration": 0.10576050000000237
                },
                {
                    "name": "D4",
                    "midi": 62,
                    "time": 228.75996150000307,
                    "velocity": 0.2204724409448819,
                    "duration": 0.10576050000000237
                },
                {
                    "name": "F#2",
                    "midi": 42,
                    "time": 228.86572200000307,
                    "velocity": 0.3858267716535433,
                    "duration": 0.10576050000000237
                },
                {
                    "name": "D3",
                    "midi": 50,
                    "time": 228.97148250000308,
                    "velocity": 0.31496062992125984,
                    "duration": 0.10576050000000237
                },
                {
                    "name": "F#2",
                    "midi": 42,
                    "time": 229.07724300000308,
                    "velocity": 0.31496062992125984,
                    "duration": 0.10576050000000237
                },
                {
                    "name": "D3",
                    "midi": 50,
                    "time": 229.18300350000308,
                    "velocity": 0.31496062992125984,
                    "duration": 0.10576050000000237
                },
                {
                    "name": "E2",
                    "midi": 40,
                    "time": 229.28876400000308,
                    "velocity": 0.3858267716535433,
                    "duration": 0.10576050000000237
                },
                {
                    "name": "D3",
                    "midi": 50,
                    "time": 229.3945245000031,
                    "velocity": 0.33070866141732286,
                    "duration": 0.10576050000000237
                },
                {
                    "name": "E2",
                    "midi": 40,
                    "time": 229.5002850000031,
                    "velocity": 0.33070866141732286,
                    "duration": 0.10576050000000237
                },
                {
                    "name": "D3",
                    "midi": 50,
                    "time": 229.6060455000031,
                    "velocity": 0.33070866141732286,
                    "duration": 0.10576050000000237
                },
                {
                    "name": "D2",
                    "midi": 38,
                    "time": 229.7118060000031,
                    "velocity": 0.3858267716535433,
                    "duration": 0.10576050000000237
                },
                {
                    "name": "D3",
                    "midi": 50,
                    "time": 229.8175665000031,
                    "velocity": 0.3464566929133858,
                    "duration": 0.10576050000000237
                },
                {
                    "name": "D2",
                    "midi": 38,
                    "time": 229.9233270000031,
                    "velocity": 0.3464566929133858,
                    "duration": 0.10576050000000237
                },
                {
                    "name": "D3",
                    "midi": 50,
                    "time": 230.0290875000031,
                    "velocity": 0.3464566929133858,
                    "duration": 0.10576050000000237
                },
                {
                    "name": "G2",
                    "midi": 43,
                    "time": 230.1348480000031,
                    "velocity": 0.3858267716535433,
                    "duration": 0.10576050000000237
                },
                {
                    "name": "E3",
                    "midi": 52,
                    "time": 230.2406085000031,
                    "velocity": 0.33070866141732286,
                    "duration": 0.10576050000000237
                },
                {
                    "name": "B2",
                    "midi": 47,
                    "time": 230.3463690000031,
                    "velocity": 0.33070866141732286,
                    "duration": 0.10576050000000237
                },
                {
                    "name": "E3",
                    "midi": 52,
                    "time": 230.4521295000031,
                    "velocity": 0.33070866141732286,
                    "duration": 0.10576050000000237
                },
                {
                    "name": "G2",
                    "midi": 43,
                    "time": 230.5578900000031,
                    "velocity": 0.3858267716535433,
                    "duration": 0.10576050000000237
                },
                {
                    "name": "E3",
                    "midi": 52,
                    "time": 230.66365050000311,
                    "velocity": 0.33070866141732286,
                    "duration": 0.10576050000000237
                },
                {
                    "name": "B2",
                    "midi": 47,
                    "time": 230.76941100000312,
                    "velocity": 0.33070866141732286,
                    "duration": 0.10576050000000237
                },
                {
                    "name": "E3",
                    "midi": 52,
                    "time": 230.87517150000312,
                    "velocity": 0.33070866141732286,
                    "duration": 0.10576050000000237
                },
                {
                    "name": "A2",
                    "midi": 45,
                    "time": 230.98093200000312,
                    "velocity": 0.33070866141732286,
                    "duration": 0.10576050000000237
                },
                {
                    "name": "F#3",
                    "midi": 54,
                    "time": 231.08669250000312,
                    "velocity": 0.3543307086614173,
                    "duration": 0.10576050000000237
                },
                {
                    "name": "D3",
                    "midi": 50,
                    "time": 231.19245300000313,
                    "velocity": 0.3543307086614173,
                    "duration": 0.10576050000000237
                },
                {
                    "name": "F#3",
                    "midi": 54,
                    "time": 231.29821350000313,
                    "velocity": 0.3543307086614173,
                    "duration": 0.10576050000000237
                },
                {
                    "name": "A2",
                    "midi": 45,
                    "time": 231.40397400000313,
                    "velocity": 0.3779527559055118,
                    "duration": 0.10576050000000237
                },
                {
                    "name": "G3",
                    "midi": 55,
                    "time": 231.50973450000313,
                    "velocity": 0.33070866141732286,
                    "duration": 0.10576050000000237
                },
                {
                    "name": "C#3",
                    "midi": 49,
                    "time": 231.61549500000314,
                    "velocity": 0.33070866141732286,
                    "duration": 0.10576050000000237
                },
                {
                    "name": "G3",
                    "midi": 55,
                    "time": 231.72125550000314,
                    "velocity": 0.33070866141732286,
                    "duration": 0.10576050000000237
                },
                {
                    "name": "D2",
                    "midi": 38,
                    "time": 231.82701600000314,
                    "velocity": 0.4645669291338583,
                    "duration": 0.42304200000000947
                },
                {
                    "name": "D3",
                    "midi": 50,
                    "time": 231.82701600000314,
                    "velocity": 0.5511811023622047,
                    "duration": 0.42304200000000947
                },
                {
                    "name": "A2",
                    "midi": 45,
                    "time": 231.82701600000314,
                    "velocity": 0.4645669291338583,
                    "duration": 0.42304200000000947
                },
                {
                    "name": "D4",
                    "midi": 62,
                    "time": 232.67310000000316,
                    "velocity": 0.29133858267716534,
                    "duration": 0.42304200000000947
                },
                {
                    "name": "F#4",
                    "midi": 66,
                    "time": 232.67310000000316,
                    "velocity": 0.3543307086614173,
                    "duration": 0.42304200000000947
                },
                {
                    "name": "E4",
                    "midi": 64,
                    "time": 233.09614200000317,
                    "velocity": 0.29133858267716534,
                    "duration": 0.42304200000000947
                },
                {
                    "name": "G4",
                    "midi": 67,
                    "time": 233.09614200000317,
                    "velocity": 0.3543307086614173,
                    "duration": 0.42304200000000947
                },
                {
                    "name": "A4",
                    "midi": 69,
                    "time": 233.51918400000318,
                    "velocity": 0.3543307086614173,
                    "duration": 0.42304200000000947
                },
                {
                    "name": "F#4",
                    "midi": 66,
                    "time": 233.51918400000318,
                    "velocity": 0.29133858267716534,
                    "duration": 0.42304200000000947
                },
                {
                    "name": "F#3",
                    "midi": 54,
                    "time": 235.2113520000032,
                    "velocity": 0.2992125984251969,
                    "duration": 0.21152100000000473
                },
                {
                    "name": "D4",
                    "midi": 62,
                    "time": 235.4228730000032,
                    "velocity": 0.25196850393700787,
                    "duration": 0.21152100000000473
                },
                {
                    "name": "D3",
                    "midi": 50,
                    "time": 235.6343940000032,
                    "velocity": 0.2992125984251969,
                    "duration": 0.21152100000000473
                },
                {
                    "name": "D4",
                    "midi": 62,
                    "time": 235.8459150000032,
                    "velocity": 0.25984251968503935,
                    "duration": 0.21152100000000473
                },
                {
                    "name": "E3",
                    "midi": 52,
                    "time": 236.0574360000032,
                    "velocity": 0.29133858267716534,
                    "duration": 0.21152100000000473
                },
                {
                    "name": "D4",
                    "midi": 62,
                    "time": 236.2689570000032,
                    "velocity": 0.25196850393700787,
                    "duration": 0.21152100000000473
                },
                {
                    "name": "A3",
                    "midi": 57,
                    "time": 236.48047800000322,
                    "velocity": 0.29133858267716534,
                    "duration": 0.05288024999998697
                },
                {
                    "name": "C#4",
                    "midi": 61,
                    "time": 236.6919990000032,
                    "velocity": 0.23622047244094488,
                    "duration": 0.05288024999998697
                },
                {
                    "name": "D4",
                    "midi": 62,
                    "time": 236.90352000000317,
                    "velocity": 0.33070866141732286,
                    "duration": 0.42304200000000947
                },
                {
                    "name": "D3",
                    "midi": 50,
                    "time": 236.90352000000317,
                    "velocity": 0.33070866141732286,
                    "duration": 0.42304200000000947
                },
                {
                    "name": "D4",
                    "midi": 62,
                    "time": 237.7496040000032,
                    "velocity": 0.29133858267716534,
                    "duration": 0.10576050000000237
                },
                {
                    "name": "F#4",
                    "midi": 66,
                    "time": 237.7496040000032,
                    "velocity": 0.3543307086614173,
                    "duration": 0.10576050000000237
                },
                {
                    "name": "D4",
                    "midi": 62,
                    "time": 237.9611250000032,
                    "velocity": 0.2440944881889764,
                    "duration": 0.10576050000000237
                },
                {
                    "name": "F#4",
                    "midi": 66,
                    "time": 237.9611250000032,
                    "velocity": 0.2992125984251969,
                    "duration": 0.10576050000000237
                },
                {
                    "name": "E4",
                    "midi": 64,
                    "time": 238.1726460000032,
                    "velocity": 0.29133858267716534,
                    "duration": 0.10576050000000237
                },
                {
                    "name": "G4",
                    "midi": 67,
                    "time": 238.1726460000032,
                    "velocity": 0.3543307086614173,
                    "duration": 0.10576050000000237
                },
                {
                    "name": "G4",
                    "midi": 67,
                    "time": 238.3841670000032,
                    "velocity": 0.2992125984251969,
                    "duration": 0.10576050000000237
                },
                {
                    "name": "E4",
                    "midi": 64,
                    "time": 238.3841670000032,
                    "velocity": 0.2440944881889764,
                    "duration": 0.10576050000000237
                },
                {
                    "name": "F#4",
                    "midi": 66,
                    "time": 238.5956880000032,
                    "velocity": 0.29133858267716534,
                    "duration": 0.42304200000000947
                },
                {
                    "name": "A4",
                    "midi": 69,
                    "time": 238.5956880000032,
                    "velocity": 0.3543307086614173,
                    "duration": 0.42304200000000947
                },
                {
                    "name": "F#3",
                    "midi": 54,
                    "time": 240.28785600000322,
                    "velocity": 0.2992125984251969,
                    "duration": 0.21152100000000473
                },
                {
                    "name": "D4",
                    "midi": 62,
                    "time": 240.49937700000322,
                    "velocity": 0.25196850393700787,
                    "duration": 0.21152100000000473
                },
                {
                    "name": "D3",
                    "midi": 50,
                    "time": 240.71089800000323,
                    "velocity": 0.2992125984251969,
                    "duration": 0.21152100000000473
                },
                {
                    "name": "D4",
                    "midi": 62,
                    "time": 240.92241900000323,
                    "velocity": 0.25984251968503935,
                    "duration": 0.21152100000000473
                },
                {
                    "name": "E3",
                    "midi": 52,
                    "time": 241.13394000000324,
                    "velocity": 0.29133858267716534,
                    "duration": 0.21152100000000473
                },
                {
                    "name": "D4",
                    "midi": 62,
                    "time": 241.34546100000324,
                    "velocity": 0.25196850393700787,
                    "duration": 0.21152100000000473
                },
                {
                    "name": "A3",
                    "midi": 57,
                    "time": 241.55698200000325,
                    "velocity": 0.29133858267716534,
                    "duration": 0.21152100000000473
                },
                {
                    "name": "C#4",
                    "midi": 61,
                    "time": 241.76850300000325,
                    "velocity": 0.25196850393700787,
                    "duration": 0.21152100000000473
                },
                {
                    "name": "F#3",
                    "midi": 54,
                    "time": 241.98002400000325,
                    "velocity": 0.3700787401574803,
                    "duration": 0.10576050000000237
                },
                {
                    "name": "D4",
                    "midi": 62,
                    "time": 242.08578450000326,
                    "velocity": 0.30708661417322836,
                    "duration": 0.10576050000000237
                },
                {
                    "name": "A3",
                    "midi": 57,
                    "time": 242.19154500000326,
                    "velocity": 0.30708661417322836,
                    "duration": 0.10576050000000237
                },
                {
                    "name": "D4",
                    "midi": 62,
                    "time": 242.29730550000326,
                    "velocity": 0.30708661417322836,
                    "duration": 0.10576050000000237
                },
                {
                    "name": "F#3",
                    "midi": 54,
                    "time": 242.40306600000326,
                    "velocity": 0.3779527559055118,
                    "duration": 0.10576050000000237
                },
                {
                    "name": "D4",
                    "midi": 62,
                    "time": 242.50882650000327,
                    "velocity": 0.31496062992125984,
                    "duration": 0.10576050000000237
                },
                {
                    "name": "A3",
                    "midi": 57,
                    "time": 242.61458700000327,
                    "velocity": 0.31496062992125984,
                    "duration": 0.10576050000000237
                },
                {
                    "name": "D4",
                    "midi": 62,
                    "time": 242.72034750000327,
                    "velocity": 0.31496062992125984,
                    "duration": 0.10576050000000237
                },
                {
                    "name": "G3",
                    "midi": 55,
                    "time": 242.82610800000327,
                    "velocity": 0.3779527559055118,
                    "duration": 0.10576050000000237
                },
                {
                    "name": "D4",
                    "midi": 62,
                    "time": 242.93186850000328,
                    "velocity": 0.31496062992125984,
                    "duration": 0.10576050000000237
                },
                {
                    "name": "B3",
                    "midi": 59,
                    "time": 243.03762900000328,
                    "velocity": 0.31496062992125984,
                    "duration": 0.10576050000000237
                },
                {
                    "name": "D4",
                    "midi": 62,
                    "time": 243.14338950000328,
                    "velocity": 0.31496062992125984,
                    "duration": 0.10576050000000237
                },
                {
                    "name": "G3",
                    "midi": 55,
                    "time": 243.24915000000328,
                    "velocity": 0.3858267716535433,
                    "duration": 0.10576050000000237
                },
                {
                    "name": "D4",
                    "midi": 62,
                    "time": 243.35491050000329,
                    "velocity": 0.31496062992125984,
                    "duration": 0.10576050000000237
                },
                {
                    "name": "B3",
                    "midi": 59,
                    "time": 243.4606710000033,
                    "velocity": 0.31496062992125984,
                    "duration": 0.10576050000000237
                },
                {
                    "name": "D4",
                    "midi": 62,
                    "time": 243.5664315000033,
                    "velocity": 0.31496062992125984,
                    "duration": 0.10576050000000237
                },
                {
                    "name": "A3",
                    "midi": 57,
                    "time": 243.6721920000033,
                    "velocity": 0.3700787401574803,
                    "duration": 0.10576050000000237
                },
                {
                    "name": "F#4",
                    "midi": 66,
                    "time": 243.7779525000033,
                    "velocity": 0.2992125984251969,
                    "duration": 0.10576050000000237
                },
                {
                    "name": "D4",
                    "midi": 62,
                    "time": 243.8837130000033,
                    "velocity": 0.2992125984251969,
                    "duration": 0.10576050000000237
                },
                {
                    "name": "F#4",
                    "midi": 66,
                    "time": 243.9894735000033,
                    "velocity": 0.2992125984251969,
                    "duration": 0.10576050000000237
                },
                {
                    "name": "A3",
                    "midi": 57,
                    "time": 244.0952340000033,
                    "velocity": 0.3779527559055118,
                    "duration": 0.10576050000000237
                },
                {
                    "name": "F#4",
                    "midi": 66,
                    "time": 244.2009945000033,
                    "velocity": 0.31496062992125984,
                    "duration": 0.10576050000000237
                },
                {
                    "name": "D4",
                    "midi": 62,
                    "time": 244.3067550000033,
                    "velocity": 0.31496062992125984,
                    "duration": 0.10576050000000237
                },
                {
                    "name": "F#4",
                    "midi": 66,
                    "time": 244.4125155000033,
                    "velocity": 0.31496062992125984,
                    "duration": 0.10576050000000237
                },
                {
                    "name": "A3",
                    "midi": 57,
                    "time": 244.5182760000033,
                    "velocity": 0.3779527559055118,
                    "duration": 0.10576050000000237
                },
                {
                    "name": "G4",
                    "midi": 67,
                    "time": 244.6240365000033,
                    "velocity": 0.30708661417322836,
                    "duration": 0.10576050000000237
                },
                {
                    "name": "E4",
                    "midi": 64,
                    "time": 244.72979700000332,
                    "velocity": 0.30708661417322836,
                    "duration": 0.10576050000000237
                },
                {
                    "name": "G4",
                    "midi": 67,
                    "time": 244.83555750000332,
                    "velocity": 0.30708661417322836,
                    "duration": 0.10576050000000237
                },
                {
                    "name": "A3",
                    "midi": 57,
                    "time": 244.94131800000332,
                    "velocity": 0.3858267716535433,
                    "duration": 0.10576050000000237
                },
                {
                    "name": "G4",
                    "midi": 67,
                    "time": 245.04707850000332,
                    "velocity": 0.31496062992125984,
                    "duration": 0.10576050000000237
                },
                {
                    "name": "E4",
                    "midi": 64,
                    "time": 245.15283900000333,
                    "velocity": 0.31496062992125984,
                    "duration": 0.10576050000000237
                },
                {
                    "name": "G4",
                    "midi": 67,
                    "time": 245.25859950000333,
                    "velocity": 0.31496062992125984,
                    "duration": 0.10576050000000237
                },
                {
                    "name": "F#3",
                    "midi": 54,
                    "time": 245.36436000000333,
                    "velocity": 0.3700787401574803,
                    "duration": 0.10576050000000237
                },
                {
                    "name": "D4",
                    "midi": 62,
                    "time": 245.47012050000333,
                    "velocity": 0.30708661417322836,
                    "duration": 0.10576050000000237
                },
                {
                    "name": "A3",
                    "midi": 57,
                    "time": 245.57588100000333,
                    "velocity": 0.3228346456692913,
                    "duration": 0.10576050000000237
                },
                {
                    "name": "D4",
                    "midi": 62,
                    "time": 245.68164150000334,
                    "velocity": 0.33070866141732286,
                    "duration": 0.10576050000000237
                },
                {
                    "name": "F#3",
                    "midi": 54,
                    "time": 245.78740200000334,
                    "velocity": 0.3779527559055118,
                    "duration": 0.10576050000000237
                },
                {
                    "name": "D4",
                    "midi": 62,
                    "time": 245.89316250000334,
                    "velocity": 0.3228346456692913,
                    "duration": 0.10576050000000237
                },
                {
                    "name": "A3",
                    "midi": 57,
                    "time": 245.99892300000334,
                    "velocity": 0.33070866141732286,
                    "duration": 0.10576050000000237
                },
                {
                    "name": "D4",
                    "midi": 62,
                    "time": 246.10468350000335,
                    "velocity": 0.3464566929133858,
                    "duration": 0.10576050000000237
                },
                {
                    "name": "G3",
                    "midi": 55,
                    "time": 246.21044400000335,
                    "velocity": 0.4094488188976378,
                    "duration": 0.10576050000000237
                },
                {
                    "name": "D4",
                    "midi": 62,
                    "time": 246.31620450000335,
                    "velocity": 0.33858267716535434,
                    "duration": 0.10576050000000237
                },
                {
                    "name": "B3",
                    "midi": 59,
                    "time": 246.42196500000335,
                    "velocity": 0.33858267716535434,
                    "duration": 0.10576050000000237
                },
                {
                    "name": "D4",
                    "midi": 62,
                    "time": 246.52772550000336,
                    "velocity": 0.33858267716535434,
                    "duration": 0.10576050000000237
                },
                {
                    "name": "G3",
                    "midi": 55,
                    "time": 246.63348600000336,
                    "velocity": 0.3858267716535433,
                    "duration": 0.10576050000000237
                },
                {
                    "name": "D4",
                    "midi": 62,
                    "time": 246.73924650000336,
                    "velocity": 0.31496062992125984,
                    "duration": 0.10576050000000237
                },
                {
                    "name": "B3",
                    "midi": 59,
                    "time": 246.84500700000336,
                    "velocity": 0.31496062992125984,
                    "duration": 0.10576050000000237
                },
                {
                    "name": "D4",
                    "midi": 62,
                    "time": 246.95076750000337,
                    "velocity": 0.31496062992125984,
                    "duration": 0.10576050000000237
                },
                {
                    "name": "A3",
                    "midi": 57,
                    "time": 247.05652800000337,
                    "velocity": 0.3700787401574803,
                    "duration": 0.10576050000000237
                },
                {
                    "name": "F#4",
                    "midi": 66,
                    "time": 247.16228850000337,
                    "velocity": 0.29133858267716534,
                    "duration": 0.10576050000000237
                },
                {
                    "name": "D4",
                    "midi": 62,
                    "time": 247.26804900000337,
                    "velocity": 0.29133858267716534,
                    "duration": 0.10576050000000237
                },
                {
                    "name": "F#4",
                    "midi": 66,
                    "time": 247.37380950000338,
                    "velocity": 0.29133858267716534,
                    "duration": 0.10576050000000237
                },
                {
                    "name": "A3",
                    "midi": 57,
                    "time": 247.47957000000338,
                    "velocity": 0.3779527559055118,
                    "duration": 0.10576050000000237
                },
                {
                    "name": "F#4",
                    "midi": 66,
                    "time": 247.58533050000338,
                    "velocity": 0.30708661417322836,
                    "duration": 0.10576050000000237
                },
                {
                    "name": "D4",
                    "midi": 62,
                    "time": 247.69109100000338,
                    "velocity": 0.30708661417322836,
                    "duration": 0.10576050000000237
                },
                {
                    "name": "F#4",
                    "midi": 66,
                    "time": 247.79685150000338,
                    "velocity": 0.30708661417322836,
                    "duration": 0.10576050000000237
                },
                {
                    "name": "A3",
                    "midi": 57,
                    "time": 247.9026120000034,
                    "velocity": 0.3700787401574803,
                    "duration": 0.10576050000000237
                },
                {
                    "name": "G4",
                    "midi": 67,
                    "time": 248.0083725000034,
                    "velocity": 0.29133858267716534,
                    "duration": 0.10576050000000237
                },
                {
                    "name": "E4",
                    "midi": 64,
                    "time": 248.1141330000034,
                    "velocity": 0.29133858267716534,
                    "duration": 0.10576050000000237
                },
                {
                    "name": "G4",
                    "midi": 67,
                    "time": 248.2198935000034,
                    "velocity": 0.29133858267716534,
                    "duration": 0.10576050000000237
                },
                {
                    "name": "A3",
                    "midi": 57,
                    "time": 248.3256540000034,
                    "velocity": 0.3779527559055118,
                    "duration": 0.10576050000000237
                },
                {
                    "name": "G4",
                    "midi": 67,
                    "time": 248.4314145000034,
                    "velocity": 0.2992125984251969,
                    "duration": 0.10576050000000237
                },
                {
                    "name": "E4",
                    "midi": 64,
                    "time": 248.5371750000034,
                    "velocity": 0.2992125984251969,
                    "duration": 0.10576050000000237
                },
                {
                    "name": "G4",
                    "midi": 67,
                    "time": 248.6429355000034,
                    "velocity": 0.2992125984251969,
                    "duration": 0.10576050000000237
                },
                {
                    "name": "D4",
                    "midi": 62,
                    "time": 248.7486960000034,
                    "velocity": 0.3543307086614173,
                    "duration": 0.42304200000000947
                },
                {
                    "name": "F#4",
                    "midi": 66,
                    "time": 248.7486960000034,
                    "velocity": 0.4251968503937008,
                    "duration": 0.42304200000000947
                },
                {
                    "name": "A3",
                    "midi": 57,
                    "time": 249.38325900000342,
                    "velocity": 0.36220472440944884,
                    "duration": 0.10576050000000237
                },
                {
                    "name": "E4",
                    "midi": 64,
                    "time": 249.38325900000342,
                    "velocity": 0.4330708661417323,
                    "duration": 0.10576050000000237
                },
                {
                    "name": "D4",
                    "midi": 62,
                    "time": 249.59478000000342,
                    "velocity": 0.3543307086614173,
                    "duration": 0.42304200000000947
                },
                {
                    "name": "F#4",
                    "midi": 66,
                    "time": 249.59478000000342,
                    "velocity": 0.4251968503937008,
                    "duration": 0.42304200000000947
                },
                {
                    "name": "A3",
                    "midi": 57,
                    "time": 250.22934300000344,
                    "velocity": 0.36220472440944884,
                    "duration": 0.10576050000000237
                },
                {
                    "name": "E4",
                    "midi": 64,
                    "time": 250.22934300000344,
                    "velocity": 0.4330708661417323,
                    "duration": 0.10576050000000237
                },
                {
                    "name": "F#4",
                    "midi": 66,
                    "time": 250.44086400000344,
                    "velocity": 0.49606299212598426,
                    "duration": 0.21152100000000473
                },
                {
                    "name": "D4",
                    "midi": 62,
                    "time": 250.44086400000344,
                    "velocity": 0.4094488188976378,
                    "duration": 0.21152100000000473
                },
                {
                    "name": "A#2",
                    "midi": 46,
                    "time": 250.86390600000345,
                    "velocity": 0.4094488188976378,
                    "duration": 0.21152100000000473
                },
                {
                    "name": "A#3",
                    "midi": 58,
                    "time": 250.86390600000345,
                    "velocity": 0.49606299212598426,
                    "duration": 0.21152100000000473
                },
                {
                    "name": "B2",
                    "midi": 47,
                    "time": 251.28694800000346,
                    "velocity": 0.4094488188976378,
                    "duration": 0.21152100000000473
                },
                {
                    "name": "B3",
                    "midi": 59,
                    "time": 251.28694800000346,
                    "velocity": 0.49606299212598426,
                    "duration": 0.21152100000000473
                },
                {
                    "name": "G2",
                    "midi": 43,
                    "time": 252.13303200000348,
                    "velocity": 0.31496062992125984,
                    "duration": 0.8460839999999905
                },
                {
                    "name": "G3",
                    "midi": 55,
                    "time": 252.13303200000348,
                    "velocity": 0.31496062992125984,
                    "duration": 0.8460839999999905
                },
                {
                    "name": "A2",
                    "midi": 45,
                    "time": 252.97911600000347,
                    "velocity": 0.31496062992125984,
                    "duration": 0.8460839999999905
                },
                {
                    "name": "A3",
                    "midi": 57,
                    "time": 252.97911600000347,
                    "velocity": 0.31496062992125984,
                    "duration": 0.8460839999999905
                },
                {
                    "name": "D3",
                    "midi": 50,
                    "time": 253.82520000000346,
                    "velocity": 0.30708661417322836,
                    "duration": 0.42304200000000947
                },
                {
                    "name": "A2",
                    "midi": 45,
                    "time": 254.24824200000347,
                    "velocity": 0.30708661417322836,
                    "duration": 0.42304200000000947
                },
                {
                    "name": "D2",
                    "midi": 38,
                    "time": 254.67128400000348,
                    "velocity": 0.2755905511811024,
                    "duration": 0.42304200000000947
                }
            ],
            "controlChanges": {
                "7": [
                    {
                        "number": 7,
                        "time": 0,
                        "value": 0.7874015748031497
                    }
                ],
                "10": [
                    {
                        "number": 10,
                        "time": 0,
                        "value": 0.5039370078740157
                    }
                ]
            },
            "id": 2,
            "name": "Piano left",
            "instrumentNumber": 0,
            "instrument": "acoustic grand piano",
            "instrumentFamily": "piano",
            "channelNumber": 0,
            "isPercussion": false
        },
        {
            "startTime": 0,
            "duration": 0,
            "length": 0,
            "notes": [],
            "controlChanges": {
                "64": [
                    {
                        "number": 64,
                        "time": 0,
                        "value": 1
                    },
                    {
                        "number": 64,
                        "time": 0.39836455000000004,
                        "value": 0
                    },
                    {
                        "number": 64,
                        "time": 3.3843360000000007,
                        "value": 1
                    },
                    {
                        "number": 64,
                        "time": 4.2304200000000005,
                        "value": 0
                    },
                    {
                        "number": 64,
                        "time": 8.523414962500002,
                        "value": 1
                    },
                    {
                        "number": 64,
                        "time": 9.306924000000002,
                        "value": 0
                    },
                    {
                        "number": 64,
                        "time": 23.690352000000004,
                        "value": 1
                    },
                    {
                        "number": 64,
                        "time": 24.129258075000003,
                        "value": 0
                    },
                    {
                        "number": 64,
                        "time": 24.219154500000002,
                        "value": 1
                    },
                    {
                        "number": 64,
                        "time": 24.548774725,
                        "value": 0
                    },
                    {
                        "number": 64,
                        "time": 24.6483658625,
                        "value": 1
                    },
                    {
                        "number": 64,
                        "time": 24.9656473625,
                        "value": 0
                    },
                    {
                        "number": 64,
                        "time": 25.022052962500002,
                        "value": 1
                    },
                    {
                        "number": 64,
                        "time": 25.382520000000003,
                        "value": 0
                    },
                    {
                        "number": 64,
                        "time": 26.272670875000003,
                        "value": 1
                    },
                    {
                        "number": 64,
                        "time": 26.577613650000004,
                        "value": 0
                    },
                    {
                        "number": 64,
                        "time": 27.113466850000002,
                        "value": 1
                    },
                    {
                        "number": 64,
                        "time": 27.3364452375,
                        "value": 0
                    },
                    {
                        "number": 64,
                        "time": 28.011549762500003,
                        "value": 1
                    },
                    {
                        "number": 64,
                        "time": 28.141106375000003,
                        "value": 0
                    },
                    {
                        "number": 64,
                        "time": 28.809160200000004,
                        "value": 1
                    },
                    {
                        "number": 64,
                        "time": 28.991597062500006,
                        "value": 0
                    },
                    {
                        "number": 64,
                        "time": 30.496040175000005,
                        "value": 1
                    },
                    {
                        "number": 64,
                        "time": 30.676714362500004,
                        "value": 0
                    },
                    {
                        "number": 64,
                        "time": 31.350937550000005,
                        "value": 1
                    },
                    {
                        "number": 64,
                        "time": 31.528086387500004,
                        "value": 0
                    },
                    {
                        "number": 64,
                        "time": 32.2120042875,
                        "value": 1
                    },
                    {
                        "number": 64,
                        "time": 33.007852050000004,
                        "value": 0
                    },
                    {
                        "number": 64,
                        "time": 33.843360000000004,
                        "value": 1
                    },
                    {
                        "number": 64,
                        "time": 34.066338387500004,
                        "value": 0
                    },
                    {
                        "number": 64,
                        "time": 34.288435437500006,
                        "value": 1
                    },
                    {
                        "number": 64,
                        "time": 34.4805670125,
                        "value": 0
                    },
                    {
                        "number": 64,
                        "time": 34.7643576875,
                        "value": 1
                    },
                    {
                        "number": 64,
                        "time": 34.9388625125,
                        "value": 0
                    },
                    {
                        "number": 64,
                        "time": 35.535528,
                        "value": 1
                    },
                    {
                        "number": 64,
                        "time": 35.7814211625,
                        "value": 0
                    },
                    {
                        "number": 64,
                        "time": 35.9682647125,
                        "value": 1
                    },
                    {
                        "number": 64,
                        "time": 36.1639216375,
                        "value": 0
                    },
                    {
                        "number": 64,
                        "time": 36.41950951250001,
                        "value": 1
                    },
                    {
                        "number": 64,
                        "time": 36.601946375000004,
                        "value": 0
                    },
                    {
                        "number": 64,
                        "time": 37.2303400125,
                        "value": 1
                    },
                    {
                        "number": 64,
                        "time": 37.66131405,
                        "value": 0
                    },
                    {
                        "number": 64,
                        "time": 37.7238890125,
                        "value": 1
                    },
                    {
                        "number": 64,
                        "time": 38.0799493625,
                        "value": 0
                    },
                    {
                        "number": 64,
                        "time": 38.139880312500004,
                        "value": 1
                    },
                    {
                        "number": 64,
                        "time": 38.508279387500004,
                        "value": 0
                    },
                    {
                        "number": 64,
                        "time": 38.5400075375,
                        "value": 1
                    },
                    {
                        "number": 64,
                        "time": 38.919864000000004,
                        "value": 0
                    },
                    {
                        "number": 64,
                        "time": 40.612032000000006,
                        "value": 0
                    },
                    {
                        "number": 64,
                        "time": 46.16181423750001,
                        "value": 1
                    },
                    {
                        "number": 64,
                        "time": 46.54519605000001,
                        "value": 0
                    },
                    {
                        "number": 64,
                        "time": 46.64654986250001,
                        "value": 1
                    },
                    {
                        "number": 64,
                        "time": 46.96823805000001,
                        "value": 0
                    },
                    {
                        "number": 64,
                        "time": 47.07576122500001,
                        "value": 1
                    },
                    {
                        "number": 64,
                        "time": 47.38070400000001,
                        "value": 0
                    },
                    {
                        "number": 64,
                        "time": 47.40978813750001,
                        "value": 1
                    },
                    {
                        "number": 64,
                        "time": 47.805508675000006,
                        "value": 0
                    },
                    {
                        "number": 64,
                        "time": 48.24529608750001,
                        "value": 1
                    },
                    {
                        "number": 64,
                        "time": 48.44888505000001,
                        "value": 0
                    },
                    {
                        "number": 64,
                        "time": 48.491189250000005,
                        "value": 1
                    },
                    {
                        "number": 64,
                        "time": 48.658643375000004,
                        "value": 0
                    },
                    {
                        "number": 64,
                        "time": 48.70271025,
                        "value": 1
                    },
                    {
                        "number": 64,
                        "time": 48.871045712500006,
                        "value": 0
                    },
                    {
                        "number": 64,
                        "time": 48.912468575000005,
                        "value": 1
                    },
                    {
                        "number": 64,
                        "time": 49.072872000000004,
                        "value": 0
                    },
                    {
                        "number": 64,
                        "time": 49.5461502375,
                        "value": 1
                    },
                    {
                        "number": 64,
                        "time": 49.92953205,
                        "value": 0
                    },
                    {
                        "number": 64,
                        "time": 50.0308858625,
                        "value": 1
                    },
                    {
                        "number": 64,
                        "time": 50.35257405,
                        "value": 0
                    },
                    {
                        "number": 64,
                        "time": 50.460097225,
                        "value": 1
                    },
                    {
                        "number": 64,
                        "time": 50.76504,
                        "value": 0
                    },
                    {
                        "number": 64,
                        "time": 50.7941241375,
                        "value": 1
                    },
                    {
                        "number": 64,
                        "time": 51.189844674999996,
                        "value": 0
                    },
                    {
                        "number": 64,
                        "time": 51.228623524999996,
                        "value": 1
                    },
                    {
                        "number": 64,
                        "time": 51.621700049999994,
                        "value": 0
                    },
                    {
                        "number": 64,
                        "time": 51.68251233749999,
                        "value": 1
                    },
                    {
                        "number": 64,
                        "time": 52.042979374999994,
                        "value": 0
                    },
                    {
                        "number": 64,
                        "time": 52.08704624999999,
                        "value": 1
                    },
                    {
                        "number": 64,
                        "time": 52.457207999999994,
                        "value": 0
                    },
                    {
                        "number": 64,
                        "time": 52.93048623749999,
                        "value": 1
                    },
                    {
                        "number": 64,
                        "time": 53.31386804999999,
                        "value": 0
                    },
                    {
                        "number": 64,
                        "time": 53.41522186249999,
                        "value": 1
                    },
                    {
                        "number": 64,
                        "time": 53.73691004999999,
                        "value": 0
                    },
                    {
                        "number": 64,
                        "time": 53.84443322499999,
                        "value": 1
                    },
                    {
                        "number": 64,
                        "time": 54.14937599999999,
                        "value": 0
                    },
                    {
                        "number": 64,
                        "time": 54.17846013749999,
                        "value": 1
                    },
                    {
                        "number": 64,
                        "time": 54.57418067499999,
                        "value": 0
                    },
                    {
                        "number": 64,
                        "time": 55.01396808749999,
                        "value": 1
                    },
                    {
                        "number": 64,
                        "time": 55.21755704999999,
                        "value": 0
                    },
                    {
                        "number": 64,
                        "time": 55.259861249999986,
                        "value": 1
                    },
                    {
                        "number": 64,
                        "time": 55.427315374999985,
                        "value": 0
                    },
                    {
                        "number": 64,
                        "time": 55.471382249999984,
                        "value": 1
                    },
                    {
                        "number": 64,
                        "time": 55.63971771249999,
                        "value": 0
                    },
                    {
                        "number": 64,
                        "time": 55.681140574999986,
                        "value": 1
                    },
                    {
                        "number": 64,
                        "time": 55.841543999999985,
                        "value": 0
                    },
                    {
                        "number": 64,
                        "time": 56.31482223749998,
                        "value": 1
                    },
                    {
                        "number": 64,
                        "time": 56.69820404999998,
                        "value": 0
                    },
                    {
                        "number": 64,
                        "time": 56.79955786249998,
                        "value": 1
                    },
                    {
                        "number": 64,
                        "time": 57.12124604999998,
                        "value": 0
                    },
                    {
                        "number": 64,
                        "time": 57.22876922499998,
                        "value": 1
                    },
                    {
                        "number": 64,
                        "time": 57.53371199999998,
                        "value": 0
                    },
                    {
                        "number": 64,
                        "time": 57.56279613749998,
                        "value": 1
                    },
                    {
                        "number": 64,
                        "time": 57.95851667499998,
                        "value": 0
                    },
                    {
                        "number": 64,
                        "time": 57.99729552499998,
                        "value": 1
                    },
                    {
                        "number": 64,
                        "time": 58.390372049999975,
                        "value": 0
                    },
                    {
                        "number": 64,
                        "time": 58.451184337499974,
                        "value": 1
                    },
                    {
                        "number": 64,
                        "time": 58.811651374999975,
                        "value": 0
                    },
                    {
                        "number": 64,
                        "time": 58.855718249999974,
                        "value": 1
                    },
                    {
                        "number": 64,
                        "time": 59.225879999999975,
                        "value": 0
                    },
                    {
                        "number": 64,
                        "time": 59.29198031249997,
                        "value": 1
                    },
                    {
                        "number": 64,
                        "time": 59.875425737499974,
                        "value": 0
                    },
                    {
                        "number": 64,
                        "time": 60.08165871249997,
                        "value": 0
                    },
                    {
                        "number": 64,
                        "time": 60.14775902499997,
                        "value": 1
                    },
                    {
                        "number": 64,
                        "time": 60.73120444999997,
                        "value": 0
                    },
                    {
                        "number": 64,
                        "time": 60.91804799999997,
                        "value": 1
                    },
                    {
                        "number": 64,
                        "time": 61.08990881249997,
                        "value": 0
                    },
                    {
                        "number": 64,
                        "time": 61.41159699999997,
                        "value": 1
                    },
                    {
                        "number": 64,
                        "time": 61.58345781249997,
                        "value": 0
                    },
                    {
                        "number": 64,
                        "time": 61.85490976249997,
                        "value": 1
                    },
                    {
                        "number": 64,
                        "time": 62.05673604999997,
                        "value": 0
                    },
                    {
                        "number": 64,
                        "time": 62.61021599999997,
                        "value": 1
                    },
                    {
                        "number": 64,
                        "time": 62.832313049999975,
                        "value": 0
                    },
                    {
                        "number": 64,
                        "time": 63.04383404999997,
                        "value": 1
                    },
                    {
                        "number": 64,
                        "time": 63.25799906249997,
                        "value": 0
                    },
                    {
                        "number": 64,
                        "time": 63.46687604999997,
                        "value": 1
                    },
                    {
                        "number": 64,
                        "time": 63.678397049999965,
                        "value": 0
                    },
                    {
                        "number": 64,
                        "time": 63.91459549999997,
                        "value": 1
                    },
                    {
                        "number": 64,
                        "time": 64.10232038749997,
                        "value": 0
                    },
                    {
                        "number": 64,
                        "time": 64.30238399999998,
                        "value": 1
                    },
                    {
                        "number": 64,
                        "time": 65.17490812499997,
                        "value": 0
                    },
                    {
                        "number": 64,
                        "time": 65.99455199999997,
                        "value": 1
                    },
                    {
                        "number": 64,
                        "time": 66.39291654999997,
                        "value": 0
                    },
                    {
                        "number": 64,
                        "time": 69.37888799999996,
                        "value": 1
                    },
                    {
                        "number": 64,
                        "time": 70.22497199999997,
                        "value": 0
                    },
                    {
                        "number": 64,
                        "time": 74.45539199999996,
                        "value": 1
                    },
                    {
                        "number": 64,
                        "time": 75.30147599999997,
                        "value": 0
                    },
                    {
                        "number": 64,
                        "time": 89.76598704999996,
                        "value": 1
                    },
                    {
                        "number": 64,
                        "time": 90.11675937499996,
                        "value": 0
                    },
                    {
                        "number": 64,
                        "time": 90.17669032499995,
                        "value": 1
                    },
                    {
                        "number": 64,
                        "time": 90.54332672499996,
                        "value": 0
                    },
                    {
                        "number": 64,
                        "time": 90.63057913749996,
                        "value": 1
                    },
                    {
                        "number": 64,
                        "time": 90.97077541249996,
                        "value": 0
                    },
                    {
                        "number": 64,
                        "time": 91.05362113749996,
                        "value": 1
                    },
                    {
                        "number": 64,
                        "time": 91.38059734999996,
                        "value": 0
                    },
                    {
                        "number": 64,
                        "time": 92.25752816249997,
                        "value": 1
                    },
                    {
                        "number": 64,
                        "time": 92.57216564999996,
                        "value": 0
                    },
                    {
                        "number": 64,
                        "time": 93.10801884999997,
                        "value": 1
                    },
                    {
                        "number": 64,
                        "time": 93.33099723749997,
                        "value": 0
                    },
                    {
                        "number": 64,
                        "time": 94.00610176249997,
                        "value": 1
                    },
                    {
                        "number": 64,
                        "time": 94.13565837499996,
                        "value": 0
                    },
                    {
                        "number": 64,
                        "time": 94.80371219999996,
                        "value": 1
                    },
                    {
                        "number": 64,
                        "time": 94.98614906249996,
                        "value": 0
                    },
                    {
                        "number": 64,
                        "time": 96.49059217499996,
                        "value": 1
                    },
                    {
                        "number": 64,
                        "time": 96.67126636249996,
                        "value": 0
                    },
                    {
                        "number": 64,
                        "time": 97.34548954999997,
                        "value": 1
                    },
                    {
                        "number": 64,
                        "time": 97.52263838749997,
                        "value": 0
                    },
                    {
                        "number": 64,
                        "time": 98.20655628749996,
                        "value": 1
                    },
                    {
                        "number": 64,
                        "time": 99.00240404999997,
                        "value": 0
                    },
                    {
                        "number": 64,
                        "time": 99.83791199999996,
                        "value": 1
                    },
                    {
                        "number": 64,
                        "time": 100.06089038749997,
                        "value": 0
                    },
                    {
                        "number": 64,
                        "time": 100.28298743749997,
                        "value": 1
                    },
                    {
                        "number": 64,
                        "time": 100.47511901249997,
                        "value": 0
                    },
                    {
                        "number": 64,
                        "time": 100.75890968749998,
                        "value": 1
                    },
                    {
                        "number": 64,
                        "time": 100.93341451249998,
                        "value": 0
                    },
                    {
                        "number": 64,
                        "time": 101.53007999999998,
                        "value": 1
                    },
                    {
                        "number": 64,
                        "time": 101.77597316249998,
                        "value": 0
                    },
                    {
                        "number": 64,
                        "time": 101.96281671249999,
                        "value": 1
                    },
                    {
                        "number": 64,
                        "time": 102.15847363749998,
                        "value": 0
                    },
                    {
                        "number": 64,
                        "time": 102.41406151249998,
                        "value": 1
                    },
                    {
                        "number": 64,
                        "time": 102.59649837499998,
                        "value": 0
                    },
                    {
                        "number": 64,
                        "time": 103.22489201249998,
                        "value": 1
                    },
                    {
                        "number": 64,
                        "time": 103.65586604999997,
                        "value": 0
                    },
                    {
                        "number": 64,
                        "time": 103.71844101249997,
                        "value": 1
                    },
                    {
                        "number": 64,
                        "time": 104.07450136249997,
                        "value": 0
                    },
                    {
                        "number": 64,
                        "time": 104.13443231249997,
                        "value": 1
                    },
                    {
                        "number": 64,
                        "time": 104.50283138749997,
                        "value": 0
                    },
                    {
                        "number": 64,
                        "time": 104.53455953749997,
                        "value": 1
                    },
                    {
                        "number": 64,
                        "time": 104.91441599999997,
                        "value": 0
                    },
                    {
                        "number": 64,
                        "time": 106.60658399999997,
                        "value": 0
                    },
                    {
                        "number": 64,
                        "time": 112.15636623749997,
                        "value": 1
                    },
                    {
                        "number": 64,
                        "time": 112.53974804999997,
                        "value": 0
                    },
                    {
                        "number": 64,
                        "time": 112.64110186249997,
                        "value": 1
                    },
                    {
                        "number": 64,
                        "time": 112.96279004999997,
                        "value": 0
                    },
                    {
                        "number": 64,
                        "time": 113.07031322499996,
                        "value": 1
                    },
                    {
                        "number": 64,
                        "time": 113.37525599999996,
                        "value": 0
                    },
                    {
                        "number": 64,
                        "time": 113.40434013749997,
                        "value": 1
                    },
                    {
                        "number": 64,
                        "time": 113.80006067499997,
                        "value": 0
                    },
                    {
                        "number": 64,
                        "time": 114.23984808749996,
                        "value": 1
                    },
                    {
                        "number": 64,
                        "time": 114.44343704999997,
                        "value": 0
                    },
                    {
                        "number": 64,
                        "time": 114.48574124999998,
                        "value": 1
                    },
                    {
                        "number": 64,
                        "time": 114.65319537499998,
                        "value": 0
                    },
                    {
                        "number": 64,
                        "time": 114.69726224999998,
                        "value": 1
                    },
                    {
                        "number": 64,
                        "time": 114.86559771249998,
                        "value": 0
                    },
                    {
                        "number": 64,
                        "time": 114.90702057499998,
                        "value": 1
                    },
                    {
                        "number": 64,
                        "time": 115.06742399999997,
                        "value": 0
                    },
                    {
                        "number": 64,
                        "time": 115.54070223749997,
                        "value": 1
                    },
                    {
                        "number": 64,
                        "time": 115.92408404999998,
                        "value": 0
                    },
                    {
                        "number": 64,
                        "time": 116.02543786249997,
                        "value": 1
                    },
                    {
                        "number": 64,
                        "time": 116.34712604999997,
                        "value": 0
                    },
                    {
                        "number": 64,
                        "time": 116.45464922499997,
                        "value": 1
                    },
                    {
                        "number": 64,
                        "time": 116.75959199999997,
                        "value": 0
                    },
                    {
                        "number": 64,
                        "time": 116.78867613749998,
                        "value": 1
                    },
                    {
                        "number": 64,
                        "time": 117.18439667499997,
                        "value": 0
                    },
                    {
                        "number": 64,
                        "time": 117.22317552499997,
                        "value": 1
                    },
                    {
                        "number": 64,
                        "time": 117.61625204999997,
                        "value": 0
                    },
                    {
                        "number": 64,
                        "time": 117.67706433749997,
                        "value": 1
                    },
                    {
                        "number": 64,
                        "time": 118.03753137499997,
                        "value": 0
                    },
                    {
                        "number": 64,
                        "time": 118.08159824999997,
                        "value": 1
                    },
                    {
                        "number": 64,
                        "time": 118.45175999999996,
                        "value": 0
                    },
                    {
                        "number": 64,
                        "time": 118.92503823749996,
                        "value": 1
                    },
                    {
                        "number": 64,
                        "time": 119.30842004999997,
                        "value": 0
                    },
                    {
                        "number": 64,
                        "time": 119.40977386249996,
                        "value": 1
                    },
                    {
                        "number": 64,
                        "time": 119.73146204999996,
                        "value": 0
                    },
                    {
                        "number": 64,
                        "time": 119.83898522499996,
                        "value": 1
                    },
                    {
                        "number": 64,
                        "time": 120.14392799999996,
                        "value": 0
                    },
                    {
                        "number": 64,
                        "time": 120.17301213749997,
                        "value": 1
                    },
                    {
                        "number": 64,
                        "time": 120.56873267499996,
                        "value": 0
                    },
                    {
                        "number": 64,
                        "time": 121.00852008749996,
                        "value": 1
                    },
                    {
                        "number": 64,
                        "time": 121.21210904999997,
                        "value": 0
                    },
                    {
                        "number": 64,
                        "time": 121.25441324999997,
                        "value": 1
                    },
                    {
                        "number": 64,
                        "time": 121.42186737499998,
                        "value": 0
                    },
                    {
                        "number": 64,
                        "time": 121.46593424999998,
                        "value": 1
                    },
                    {
                        "number": 64,
                        "time": 121.63426971249997,
                        "value": 0
                    },
                    {
                        "number": 64,
                        "time": 121.67569257499997,
                        "value": 1
                    },
                    {
                        "number": 64,
                        "time": 121.83609599999997,
                        "value": 0
                    },
                    {
                        "number": 64,
                        "time": 122.30937423749997,
                        "value": 1
                    },
                    {
                        "number": 64,
                        "time": 122.69275604999997,
                        "value": 0
                    },
                    {
                        "number": 64,
                        "time": 122.79410986249997,
                        "value": 1
                    },
                    {
                        "number": 64,
                        "time": 123.11579804999997,
                        "value": 0
                    },
                    {
                        "number": 64,
                        "time": 123.22332122499996,
                        "value": 1
                    },
                    {
                        "number": 64,
                        "time": 123.52826399999996,
                        "value": 0
                    },
                    {
                        "number": 64,
                        "time": 123.55734813749997,
                        "value": 1
                    },
                    {
                        "number": 64,
                        "time": 123.95306867499997,
                        "value": 0
                    },
                    {
                        "number": 64,
                        "time": 123.99184752499997,
                        "value": 1
                    },
                    {
                        "number": 64,
                        "time": 124.38492404999997,
                        "value": 0
                    },
                    {
                        "number": 64,
                        "time": 124.44573633749997,
                        "value": 1
                    },
                    {
                        "number": 64,
                        "time": 124.80620337499997,
                        "value": 0
                    },
                    {
                        "number": 64,
                        "time": 124.85027024999997,
                        "value": 1
                    },
                    {
                        "number": 64,
                        "time": 125.22043199999996,
                        "value": 0
                    },
                    {
                        "number": 64,
                        "time": 125.28653231249996,
                        "value": 1
                    },
                    {
                        "number": 64,
                        "time": 125.86997773749995,
                        "value": 0
                    },
                    {
                        "number": 64,
                        "time": 126.07621071249996,
                        "value": 0
                    },
                    {
                        "number": 64,
                        "time": 126.14231102499996,
                        "value": 1
                    },
                    {
                        "number": 64,
                        "time": 126.72575644999995,
                        "value": 0
                    },
                    {
                        "number": 64,
                        "time": 126.91259999999996,
                        "value": 1
                    },
                    {
                        "number": 64,
                        "time": 127.08446081249996,
                        "value": 0
                    },
                    {
                        "number": 64,
                        "time": 127.40614899999996,
                        "value": 1
                    },
                    {
                        "number": 64,
                        "time": 127.57800981249996,
                        "value": 0
                    },
                    {
                        "number": 64,
                        "time": 127.84946176249996,
                        "value": 1
                    },
                    {
                        "number": 64,
                        "time": 128.05128804999995,
                        "value": 0
                    },
                    {
                        "number": 64,
                        "time": 128.60476799999995,
                        "value": 1
                    },
                    {
                        "number": 64,
                        "time": 128.82686504999995,
                        "value": 0
                    },
                    {
                        "number": 64,
                        "time": 129.03838604999996,
                        "value": 1
                    },
                    {
                        "number": 64,
                        "time": 129.25255106249995,
                        "value": 0
                    },
                    {
                        "number": 64,
                        "time": 129.46142804999994,
                        "value": 1
                    },
                    {
                        "number": 64,
                        "time": 129.67294904999994,
                        "value": 0
                    },
                    {
                        "number": 64,
                        "time": 129.90914749999993,
                        "value": 1
                    },
                    {
                        "number": 64,
                        "time": 130.09687238749993,
                        "value": 0
                    },
                    {
                        "number": 64,
                        "time": 130.29693599999993,
                        "value": 1
                    },
                    {
                        "number": 64,
                        "time": 131.16946012499994,
                        "value": 0
                    },
                    {
                        "number": 64,
                        "time": 145.56875219999995,
                        "value": 1
                    },
                    {
                        "number": 64,
                        "time": 145.87898299999995,
                        "value": 0
                    },
                    {
                        "number": 64,
                        "time": 146.01999699999996,
                        "value": 1
                    },
                    {
                        "number": 64,
                        "time": 146.30202499999996,
                        "value": 0
                    },
                    {
                        "number": 64,
                        "time": 146.43863231249995,
                        "value": 1
                    },
                    {
                        "number": 64,
                        "time": 146.72506699999994,
                        "value": 0
                    },
                    {
                        "number": 64,
                        "time": 146.86608099999995,
                        "value": 1
                    },
                    {
                        "number": 64,
                        "time": 147.21861599999994,
                        "value": 0
                    },
                    {
                        "number": 64,
                        "time": 147.28119096249995,
                        "value": 1
                    },
                    {
                        "number": 64,
                        "time": 148.06998802499996,
                        "value": 0
                    },
                    {
                        "number": 64,
                        "time": 148.14578304999995,
                        "value": 1
                    },
                    {
                        "number": 64,
                        "time": 148.85790374999996,
                        "value": 0
                    },
                    {
                        "number": 64,
                        "time": 148.97952832499996,
                        "value": 1
                    },
                    {
                        "number": 64,
                        "time": 149.26331899999997,
                        "value": 0
                    },
                    {
                        "number": 64,
                        "time": 149.40433299999998,
                        "value": 1
                    },
                    {
                        "number": 64,
                        "time": 149.6837169875,
                        "value": 0
                    },
                    {
                        "number": 64,
                        "time": 149.8229683125,
                        "value": 1
                    },
                    {
                        "number": 64,
                        "time": 150.109403,
                        "value": 0
                    },
                    {
                        "number": 64,
                        "time": 150.250417,
                        "value": 1
                    },
                    {
                        "number": 64,
                        "time": 150.602952,
                        "value": 0
                    },
                    {
                        "number": 64,
                        "time": 150.7087125,
                        "value": 1
                    },
                    {
                        "number": 64,
                        "time": 151.45432402499998,
                        "value": 0
                    },
                    {
                        "number": 64,
                        "time": 151.53011904999997,
                        "value": 1
                    },
                    {
                        "number": 64,
                        "time": 152.29511999999997,
                        "value": 0
                    },
                    {
                        "number": 64,
                        "time": 152.35681362499997,
                        "value": 1
                    },
                    {
                        "number": 64,
                        "time": 152.73667008749996,
                        "value": 0
                    },
                    {
                        "number": 64,
                        "time": 152.79395702499997,
                        "value": 1
                    },
                    {
                        "number": 64,
                        "time": 153.14120399999996,
                        "value": 0
                    },
                    {
                        "number": 64,
                        "time": 153.20377896249997,
                        "value": 1
                    },
                    {
                        "number": 64,
                        "time": 153.58275408749998,
                        "value": 0
                    },
                    {
                        "number": 64,
                        "time": 153.640041025,
                        "value": 1
                    },
                    {
                        "number": 64,
                        "time": 153.98728799999998,
                        "value": 0
                    },
                    {
                        "number": 64,
                        "time": 154.0498629625,
                        "value": 1
                    },
                    {
                        "number": 64,
                        "time": 154.4288380875,
                        "value": 0
                    },
                    {
                        "number": 64,
                        "time": 154.486125025,
                        "value": 1
                    },
                    {
                        "number": 64,
                        "time": 154.833372,
                        "value": 0
                    },
                    {
                        "number": 64,
                        "time": 154.8959469625,
                        "value": 1
                    },
                    {
                        "number": 64,
                        "time": 155.27492208750002,
                        "value": 0
                    },
                    {
                        "number": 64,
                        "time": 155.33220902500003,
                        "value": 1
                    },
                    {
                        "number": 64,
                        "time": 155.67945600000002,
                        "value": 0
                    },
                    {
                        "number": 64,
                        "time": 155.74643765000002,
                        "value": 1
                    },
                    {
                        "number": 64,
                        "time": 155.90155305000002,
                        "value": 0
                    },
                    {
                        "number": 64,
                        "time": 156.11307405000002,
                        "value": 1
                    },
                    {
                        "number": 64,
                        "time": 156.3272390625,
                        "value": 0
                    },
                    {
                        "number": 64,
                        "time": 156.53611605,
                        "value": 1
                    },
                    {
                        "number": 64,
                        "time": 156.74763705,
                        "value": 0
                    },
                    {
                        "number": 64,
                        "time": 156.9838355,
                        "value": 1
                    },
                    {
                        "number": 64,
                        "time": 157.1715603875,
                        "value": 0
                    },
                    {
                        "number": 64,
                        "time": 157.371624,
                        "value": 1
                    },
                    {
                        "number": 64,
                        "time": 158.244148125,
                        "value": 0
                    },
                    {
                        "number": 64,
                        "time": 159.063792,
                        "value": 1
                    },
                    {
                        "number": 64,
                        "time": 159.9213333875,
                        "value": 0
                    },
                    {
                        "number": 64,
                        "time": 160.826467,
                        "value": 1
                    },
                    {
                        "number": 64,
                        "time": 161.610857375,
                        "value": 0
                    },
                    {
                        "number": 64,
                        "time": 162.9214062375,
                        "value": 1
                    },
                    {
                        "number": 64,
                        "time": 163.30478805,
                        "value": 0
                    },
                    {
                        "number": 64,
                        "time": 163.40614186250002,
                        "value": 1
                    },
                    {
                        "number": 64,
                        "time": 163.72783005000002,
                        "value": 0
                    },
                    {
                        "number": 64,
                        "time": 163.83535322500003,
                        "value": 1
                    },
                    {
                        "number": 64,
                        "time": 164.14029600000003,
                        "value": 0
                    },
                    {
                        "number": 64,
                        "time": 164.16938013750004,
                        "value": 1
                    },
                    {
                        "number": 64,
                        "time": 164.56510067500005,
                        "value": 0
                    },
                    {
                        "number": 64,
                        "time": 165.00488808750006,
                        "value": 1
                    },
                    {
                        "number": 64,
                        "time": 165.20847705000006,
                        "value": 0
                    },
                    {
                        "number": 64,
                        "time": 165.25078125000005,
                        "value": 1
                    },
                    {
                        "number": 64,
                        "time": 165.41823537500005,
                        "value": 0
                    },
                    {
                        "number": 64,
                        "time": 165.46230225000005,
                        "value": 1
                    },
                    {
                        "number": 64,
                        "time": 165.63063771250006,
                        "value": 0
                    },
                    {
                        "number": 64,
                        "time": 165.67206057500007,
                        "value": 1
                    },
                    {
                        "number": 64,
                        "time": 165.83246400000007,
                        "value": 0
                    },
                    {
                        "number": 64,
                        "time": 166.30574223750008,
                        "value": 1
                    },
                    {
                        "number": 64,
                        "time": 166.6891240500001,
                        "value": 0
                    },
                    {
                        "number": 64,
                        "time": 166.7904778625001,
                        "value": 1
                    },
                    {
                        "number": 64,
                        "time": 167.1121660500001,
                        "value": 0
                    },
                    {
                        "number": 64,
                        "time": 167.2196892250001,
                        "value": 1
                    },
                    {
                        "number": 64,
                        "time": 167.5246320000001,
                        "value": 0
                    },
                    {
                        "number": 64,
                        "time": 167.55371613750012,
                        "value": 1
                    },
                    {
                        "number": 64,
                        "time": 167.94943667500013,
                        "value": 0
                    },
                    {
                        "number": 64,
                        "time": 167.98821552500013,
                        "value": 1
                    },
                    {
                        "number": 64,
                        "time": 168.38129205000013,
                        "value": 0
                    },
                    {
                        "number": 64,
                        "time": 168.44210433750013,
                        "value": 1
                    },
                    {
                        "number": 64,
                        "time": 168.80257137500013,
                        "value": 0
                    },
                    {
                        "number": 64,
                        "time": 168.84663825000013,
                        "value": 1
                    },
                    {
                        "number": 64,
                        "time": 169.21680000000012,
                        "value": 0
                    },
                    {
                        "number": 64,
                        "time": 169.3040524125001,
                        "value": 1
                    },
                    {
                        "number": 64,
                        "time": 169.6460113625001,
                        "value": 0
                    },
                    {
                        "number": 64,
                        "time": 169.7456025000001,
                        "value": 1
                    },
                    {
                        "number": 64,
                        "time": 170.0734600500001,
                        "value": 0
                    },
                    {
                        "number": 64,
                        "time": 170.17481386250012,
                        "value": 1
                    },
                    {
                        "number": 64,
                        "time": 170.49650205000012,
                        "value": 0
                    },
                    {
                        "number": 64,
                        "time": 170.60402522500013,
                        "value": 1
                    },
                    {
                        "number": 64,
                        "time": 170.90896800000013,
                        "value": 0
                    },
                    {
                        "number": 64,
                        "time": 170.93805213750014,
                        "value": 1
                    },
                    {
                        "number": 64,
                        "time": 171.33377267500015,
                        "value": 0
                    },
                    {
                        "number": 64,
                        "time": 171.77356008750016,
                        "value": 1
                    },
                    {
                        "number": 64,
                        "time": 171.97714905000015,
                        "value": 0
                    },
                    {
                        "number": 64,
                        "time": 172.01945325000014,
                        "value": 1
                    },
                    {
                        "number": 64,
                        "time": 172.18690737500015,
                        "value": 0
                    },
                    {
                        "number": 64,
                        "time": 172.23097425000014,
                        "value": 1
                    },
                    {
                        "number": 64,
                        "time": 172.39930971250016,
                        "value": 0
                    },
                    {
                        "number": 64,
                        "time": 172.44073257500017,
                        "value": 1
                    },
                    {
                        "number": 64,
                        "time": 172.60113600000017,
                        "value": 0
                    },
                    {
                        "number": 64,
                        "time": 173.07441423750018,
                        "value": 1
                    },
                    {
                        "number": 64,
                        "time": 173.45779605000018,
                        "value": 0
                    },
                    {
                        "number": 64,
                        "time": 173.5591498625002,
                        "value": 1
                    },
                    {
                        "number": 64,
                        "time": 173.8808380500002,
                        "value": 0
                    },
                    {
                        "number": 64,
                        "time": 173.9883612250002,
                        "value": 1
                    },
                    {
                        "number": 64,
                        "time": 174.2933040000002,
                        "value": 0
                    },
                    {
                        "number": 64,
                        "time": 174.3223881375002,
                        "value": 1
                    },
                    {
                        "number": 64,
                        "time": 174.71810867500022,
                        "value": 0
                    },
                    {
                        "number": 64,
                        "time": 174.75688752500022,
                        "value": 1
                    },
                    {
                        "number": 64,
                        "time": 175.14996405000022,
                        "value": 0
                    },
                    {
                        "number": 64,
                        "time": 175.21077633750022,
                        "value": 1
                    },
                    {
                        "number": 64,
                        "time": 175.57124337500022,
                        "value": 0
                    },
                    {
                        "number": 64,
                        "time": 175.61531025000022,
                        "value": 1
                    },
                    {
                        "number": 64,
                        "time": 175.98547200000021,
                        "value": 0
                    },
                    {
                        "number": 64,
                        "time": 175.98547200000021,
                        "value": 0
                    },
                    {
                        "number": 64,
                        "time": 177.67764000000022,
                        "value": 0
                    },
                    {
                        "number": 64,
                        "time": 177.67764000000022,
                        "value": 0
                    },
                    {
                        "number": 64,
                        "time": 179.36980800000023,
                        "value": 0
                    },
                    {
                        "number": 64,
                        "time": 179.36980800000023,
                        "value": 0
                    },
                    {
                        "number": 64,
                        "time": 181.06197600000024,
                        "value": 0
                    },
                    {
                        "number": 64,
                        "time": 181.06197600000024,
                        "value": 0
                    },
                    {
                        "number": 64,
                        "time": 182.75414400000025,
                        "value": 0
                    },
                    {
                        "number": 64,
                        "time": 182.75414400000025,
                        "value": 0
                    },
                    {
                        "number": 64,
                        "time": 184.44631200000026,
                        "value": 0
                    },
                    {
                        "number": 64,
                        "time": 184.44631200000026,
                        "value": 0
                    },
                    {
                        "number": 64,
                        "time": 194.65572560000027,
                        "value": 1
                    },
                    {
                        "number": 64,
                        "time": 195.03029403750025,
                        "value": 0
                    },
                    {
                        "number": 64,
                        "time": 195.11578377500027,
                        "value": 1
                    },
                    {
                        "number": 64,
                        "time": 195.45686138750025,
                        "value": 0
                    },
                    {
                        "number": 64,
                        "time": 195.53265641250024,
                        "value": 1
                    },
                    {
                        "number": 64,
                        "time": 195.88166606250024,
                        "value": 0
                    },
                    {
                        "number": 64,
                        "time": 195.93719032500024,
                        "value": 1
                    },
                    {
                        "number": 64,
                        "time": 196.30118271250024,
                        "value": 0
                    },
                    {
                        "number": 64,
                        "time": 197.18780823750024,
                        "value": 1
                    },
                    {
                        "number": 64,
                        "time": 197.46719222500025,
                        "value": 0
                    },
                    {
                        "number": 64,
                        "time": 198.00216408750023,
                        "value": 1
                    },
                    {
                        "number": 64,
                        "time": 198.24541323750023,
                        "value": 0
                    },
                    {
                        "number": 64,
                        "time": 198.92051776250022,
                        "value": 1
                    },
                    {
                        "number": 64,
                        "time": 199.05007437500024,
                        "value": 0
                    },
                    {
                        "number": 64,
                        "time": 199.71812820000022,
                        "value": 1
                    },
                    {
                        "number": 64,
                        "time": 199.90056506250022,
                        "value": 0
                    },
                    {
                        "number": 64,
                        "time": 201.40500817500023,
                        "value": 1
                    },
                    {
                        "number": 64,
                        "time": 201.58568236250022,
                        "value": 0
                    },
                    {
                        "number": 64,
                        "time": 202.2599055500002,
                        "value": 1
                    },
                    {
                        "number": 64,
                        "time": 202.4370543875002,
                        "value": 0
                    },
                    {
                        "number": 64,
                        "time": 203.12097228750022,
                        "value": 1
                    },
                    {
                        "number": 64,
                        "time": 203.9168200500002,
                        "value": 0
                    },
                    {
                        "number": 64,
                        "time": 204.7523280000002,
                        "value": 1
                    },
                    {
                        "number": 64,
                        "time": 204.9753063875002,
                        "value": 0
                    },
                    {
                        "number": 64,
                        "time": 205.1974034375002,
                        "value": 1
                    },
                    {
                        "number": 64,
                        "time": 205.3895350125002,
                        "value": 0
                    },
                    {
                        "number": 64,
                        "time": 205.6733256875002,
                        "value": 1
                    },
                    {
                        "number": 64,
                        "time": 205.84783051250022,
                        "value": 0
                    },
                    {
                        "number": 64,
                        "time": 206.4823935125002,
                        "value": 1
                    },
                    {
                        "number": 64,
                        "time": 206.6903891625002,
                        "value": 0
                    },
                    {
                        "number": 64,
                        "time": 206.8772327125002,
                        "value": 1
                    },
                    {
                        "number": 64,
                        "time": 207.0728896375002,
                        "value": 0
                    },
                    {
                        "number": 64,
                        "time": 207.3284775125002,
                        "value": 1
                    },
                    {
                        "number": 64,
                        "time": 207.5109143750002,
                        "value": 0
                    },
                    {
                        "number": 64,
                        "time": 208.1974762875002,
                        "value": 1
                    },
                    {
                        "number": 64,
                        "time": 208.3596423875002,
                        "value": 0
                    },
                    {
                        "number": 64,
                        "time": 208.5817394375002,
                        "value": 1
                    },
                    {
                        "number": 64,
                        "time": 208.7738710125002,
                        "value": 0
                    },
                    {
                        "number": 64,
                        "time": 209.0576616875002,
                        "value": 1
                    },
                    {
                        "number": 64,
                        "time": 209.2321665125002,
                        "value": 0
                    },
                    {
                        "number": 64,
                        "time": 209.96015128750022,
                        "value": 1
                    },
                    {
                        "number": 64,
                        "time": 210.7057628125002,
                        "value": 0
                    },
                    {
                        "number": 64,
                        "time": 211.5210000000002,
                        "value": 0
                    },
                    {
                        "number": 64,
                        "time": 213.21316800000022,
                        "value": 0
                    },
                    {
                        "number": 64,
                        "time": 218.76295023750023,
                        "value": 1
                    },
                    {
                        "number": 64,
                        "time": 219.14633205000024,
                        "value": 0
                    },
                    {
                        "number": 64,
                        "time": 219.24768586250025,
                        "value": 1
                    },
                    {
                        "number": 64,
                        "time": 219.56937405000025,
                        "value": 0
                    },
                    {
                        "number": 64,
                        "time": 219.67689722500026,
                        "value": 1
                    },
                    {
                        "number": 64,
                        "time": 219.98184000000026,
                        "value": 0
                    },
                    {
                        "number": 64,
                        "time": 220.01092413750027,
                        "value": 1
                    },
                    {
                        "number": 64,
                        "time": 220.40664467500028,
                        "value": 0
                    },
                    {
                        "number": 64,
                        "time": 220.8464320875003,
                        "value": 1
                    },
                    {
                        "number": 64,
                        "time": 221.05002105000028,
                        "value": 0
                    },
                    {
                        "number": 64,
                        "time": 221.09232525000027,
                        "value": 1
                    },
                    {
                        "number": 64,
                        "time": 221.25977937500028,
                        "value": 0
                    },
                    {
                        "number": 64,
                        "time": 221.30384625000028,
                        "value": 1
                    },
                    {
                        "number": 64,
                        "time": 221.4721817125003,
                        "value": 0
                    },
                    {
                        "number": 64,
                        "time": 221.5136045750003,
                        "value": 1
                    },
                    {
                        "number": 64,
                        "time": 221.6740080000003,
                        "value": 0
                    },
                    {
                        "number": 64,
                        "time": 222.1472862375003,
                        "value": 1
                    },
                    {
                        "number": 64,
                        "time": 222.53066805000032,
                        "value": 0
                    },
                    {
                        "number": 64,
                        "time": 222.63202186250032,
                        "value": 1
                    },
                    {
                        "number": 64,
                        "time": 222.95371005000032,
                        "value": 0
                    },
                    {
                        "number": 64,
                        "time": 223.06123322500034,
                        "value": 1
                    },
                    {
                        "number": 64,
                        "time": 223.36617600000034,
                        "value": 0
                    },
                    {
                        "number": 64,
                        "time": 223.39526013750034,
                        "value": 1
                    },
                    {
                        "number": 64,
                        "time": 223.79098067500036,
                        "value": 0
                    },
                    {
                        "number": 64,
                        "time": 223.82975952500036,
                        "value": 1
                    },
                    {
                        "number": 64,
                        "time": 224.22283605000035,
                        "value": 0
                    },
                    {
                        "number": 64,
                        "time": 224.28364833750035,
                        "value": 1
                    },
                    {
                        "number": 64,
                        "time": 224.64411537500035,
                        "value": 0
                    },
                    {
                        "number": 64,
                        "time": 224.68818225000035,
                        "value": 1
                    },
                    {
                        "number": 64,
                        "time": 225.05834400000035,
                        "value": 0
                    },
                    {
                        "number": 64,
                        "time": 225.53162223750036,
                        "value": 1
                    },
                    {
                        "number": 64,
                        "time": 225.91500405000036,
                        "value": 0
                    },
                    {
                        "number": 64,
                        "time": 226.01635786250037,
                        "value": 1
                    },
                    {
                        "number": 64,
                        "time": 226.33804605000037,
                        "value": 0
                    },
                    {
                        "number": 64,
                        "time": 226.44556922500038,
                        "value": 1
                    },
                    {
                        "number": 64,
                        "time": 226.75051200000038,
                        "value": 0
                    },
                    {
                        "number": 64,
                        "time": 226.7795961375004,
                        "value": 1
                    },
                    {
                        "number": 64,
                        "time": 227.1753166750004,
                        "value": 0
                    },
                    {
                        "number": 64,
                        "time": 227.6151040875004,
                        "value": 1
                    },
                    {
                        "number": 64,
                        "time": 227.8186930500004,
                        "value": 0
                    },
                    {
                        "number": 64,
                        "time": 227.8609972500004,
                        "value": 1
                    },
                    {
                        "number": 64,
                        "time": 228.0284513750004,
                        "value": 0
                    },
                    {
                        "number": 64,
                        "time": 228.0725182500004,
                        "value": 1
                    },
                    {
                        "number": 64,
                        "time": 228.2408537125004,
                        "value": 0
                    },
                    {
                        "number": 64,
                        "time": 228.28227657500042,
                        "value": 1
                    },
                    {
                        "number": 64,
                        "time": 228.44268000000042,
                        "value": 0
                    },
                    {
                        "number": 64,
                        "time": 228.91595823750043,
                        "value": 1
                    },
                    {
                        "number": 64,
                        "time": 229.29934005000044,
                        "value": 0
                    },
                    {
                        "number": 64,
                        "time": 229.40069386250045,
                        "value": 1
                    },
                    {
                        "number": 64,
                        "time": 229.72238205000045,
                        "value": 0
                    },
                    {
                        "number": 64,
                        "time": 229.82990522500046,
                        "value": 1
                    },
                    {
                        "number": 64,
                        "time": 230.13484800000046,
                        "value": 0
                    },
                    {
                        "number": 64,
                        "time": 230.16393213750047,
                        "value": 1
                    },
                    {
                        "number": 64,
                        "time": 230.55965267500048,
                        "value": 0
                    },
                    {
                        "number": 64,
                        "time": 230.59843152500048,
                        "value": 1
                    },
                    {
                        "number": 64,
                        "time": 230.99150805000048,
                        "value": 0
                    },
                    {
                        "number": 64,
                        "time": 231.05232033750048,
                        "value": 1
                    },
                    {
                        "number": 64,
                        "time": 231.41278737500048,
                        "value": 0
                    },
                    {
                        "number": 64,
                        "time": 231.45685425000048,
                        "value": 1
                    },
                    {
                        "number": 64,
                        "time": 231.82701600000047,
                        "value": 0
                    },
                    {
                        "number": 64,
                        "time": 231.93894586250047,
                        "value": 1
                    },
                    {
                        "number": 64,
                        "time": 232.22538055000047,
                        "value": 0
                    },
                    {
                        "number": 64,
                        "time": 235.21135200000046,
                        "value": 1
                    },
                    {
                        "number": 64,
                        "time": 236.05743600000045,
                        "value": 0
                    },
                    {
                        "number": 64,
                        "time": 240.28785600000046,
                        "value": 1
                    },
                    {
                        "number": 64,
                        "time": 241.13394000000045,
                        "value": 0
                    },
                    {
                        "number": 64,
                        "time": 242.85783615000045,
                        "value": 1
                    },
                    {
                        "number": 64,
                        "time": 243.67219200000045,
                        "value": 0
                    },
                    {
                        "number": 64,
                        "time": 243.78412186250046,
                        "value": 1
                    },
                    {
                        "number": 64,
                        "time": 244.52885205000047,
                        "value": 0
                    },
                    {
                        "number": 64,
                        "time": 244.61786713750047,
                        "value": 1
                    },
                    {
                        "number": 64,
                        "time": 245.36436000000046,
                        "value": 0
                    },
                    {
                        "number": 64,
                        "time": 248.74869600000045,
                        "value": 0
                    },
                    {
                        "number": 64,
                        "time": 248.81479631250045,
                        "value": 1
                    },
                    {
                        "number": 64,
                        "time": 249.39824173750046,
                        "value": 0
                    },
                    {
                        "number": 64,
                        "time": 249.60447471250046,
                        "value": 0
                    },
                    {
                        "number": 64,
                        "time": 249.67057502500046,
                        "value": 1
                    },
                    {
                        "number": 64,
                        "time": 250.25402045000047,
                        "value": 0
                    },
                    {
                        "number": 64,
                        "time": 250.44086400000046,
                        "value": 1
                    },
                    {
                        "number": 64,
                        "time": 250.61272481250046,
                        "value": 0
                    },
                    {
                        "number": 64,
                        "time": 250.93441300000046,
                        "value": 1
                    },
                    {
                        "number": 64,
                        "time": 251.10627381250046,
                        "value": 0
                    },
                    {
                        "number": 64,
                        "time": 251.37772576250046,
                        "value": 1
                    },
                    {
                        "number": 64,
                        "time": 251.57955205000047,
                        "value": 0
                    },
                    {
                        "number": 64,
                        "time": 252.13303200000047,
                        "value": 1
                    },
                    {
                        "number": 64,
                        "time": 252.35512905000047,
                        "value": 0
                    },
                    {
                        "number": 64,
                        "time": 252.56665005000048,
                        "value": 1
                    },
                    {
                        "number": 64,
                        "time": 252.78081506250047,
                        "value": 0
                    },
                    {
                        "number": 64,
                        "time": 252.98969205000046,
                        "value": 1
                    },
                    {
                        "number": 64,
                        "time": 253.20121305000046,
                        "value": 0
                    },
                    {
                        "number": 64,
                        "time": 253.43741150000045,
                        "value": 1
                    },
                    {
                        "number": 64,
                        "time": 253.62513638750045,
                        "value": 0
                    },
                    {
                        "number": 64,
                        "time": 253.82520000000045,
                        "value": 1
                    },
                    {
                        "number": 64,
                        "time": 254.69772412500046,
                        "value": 0
                    }
                ]
            },
            "id": 3,
            "name": "Pedal",
            "instrumentNumber": 0,
            "instrument": "acoustic grand piano",
            "instrumentFamily": "piano",
            "channelNumber": 0,
            "isPercussion": false
        },
        {
            "startTime": 0,
            "duration": 0,
            "length": 0,
            "notes": [],
            "controlChanges": {},
            "id": 4,
            "name": "Mozart: Sonate KV 311"
        },
        {
            "startTime": 0,
            "duration": 0,
            "length": 0,
            "notes": [],
            "controlChanges": {},
            "id": 5,
            "name": "Copyright  2006 by Bernd Krger"
        },
        {
            "startTime": 0,
            "duration": 0,
            "length": 0,
            "notes": [],
            "controlChanges": {},
            "id": 6,
            "name": "http://www.piano-midi.de"
        },
        {
            "startTime": 0,
            "duration": 0,
            "length": 0,
            "notes": [],
            "controlChanges": {},
            "id": 7,
            "name": "Edition: 2013-06-05"
        },
        {
            "startTime": 0,
            "duration": 0,
            "length": 0,
            "notes": [],
            "controlChanges": {},
            "id": 8,
            "name": "Spur 8"
        },
        {
            "startTime": 0,
            "duration": 0,
            "length": 0,
            "notes": [],
            "controlChanges": {},
            "id": 9,
            "name": "Spur 9"
        }
    ]
}