{
    "header": {
        "PPQ": 480,
        "timeSignature": [
            6,
            8
        ],
        "bpm": 150.48984444366414,
        "name": "Klaviersonate Nr. 8 KV 311 3. Satz"
    },
    "startTime": 0,
    "duration": 330.42096749999826,
    "tracks": [
        {
            "startTime": 0,
            "duration": 0,
            "length": 0,
            "notes": [],
            "controlChanges": {},
            "id": 0,
            "name": "Klaviersonate Nr. 8 KV 311 3. Satz"
        },
        {
            "startTime": 0.49837249999999994,
            "duration": 330.42096749999234,
            "length": 2041,
            "notes": [
                {
                    "name": "A4",
                    "midi": 69,
                    "time": 0.49837249999999994,
                    "velocity": 0.33070866141732286,
                    "duration": 0.09967449999999994
                },
                {
                    "name": "A5",
                    "midi": 81,
                    "time": 0.5980469999999999,
                    "velocity": 0.3700787401574803,
                    "duration": 0.3986979999999999
                },
                {
                    "name": "F#5",
                    "midi": 78,
                    "time": 0.9967449999999998,
                    "velocity": 0.3464566929133858,
                    "duration": 0.14951175000000005
                },
                {
                    "name": "E5",
                    "midi": 76,
                    "time": 1.1462567499999998,
                    "velocity": 0.3464566929133858,
                    "duration": 0.049837249999999944
                },
                {
                    "name": "D5",
                    "midi": 74,
                    "time": 1.1960939999999998,
                    "velocity": 0.3858267716535433,
                    "duration": 0.07475587499999992
                },
                {
                    "name": "C#5",
                    "midi": 73,
                    "time": 1.3954429999999998,
                    "velocity": 0.3464566929133858,
                    "duration": 0.07475587499999992
                },
                {
                    "name": "D5",
                    "midi": 74,
                    "time": 1.5947919999999998,
                    "velocity": 0.3464566929133858,
                    "duration": 0.07475587499999992
                },
                {
                    "name": "E5",
                    "midi": 76,
                    "time": 1.7443037499999996,
                    "velocity": 0.33858267716535434,
                    "duration": 0.049837249999999944
                },
                {
                    "name": "D5",
                    "midi": 74,
                    "time": 1.7941409999999995,
                    "velocity": 0.3700787401574803,
                    "duration": 0.07475587499999992
                },
                {
                    "name": "C#5",
                    "midi": 73,
                    "time": 1.9934899999999995,
                    "velocity": 0.33858267716535434,
                    "duration": 0.07475587500000014
                },
                {
                    "name": "D5",
                    "midi": 74,
                    "time": 2.1928389999999998,
                    "velocity": 0.33070866141732286,
                    "duration": 0.07475587500000014
                },
                {
                    "name": "F#5",
                    "midi": 78,
                    "time": 2.392188,
                    "velocity": 0.3858267716535433,
                    "duration": 0.398698
                },
                {
                    "name": "D5",
                    "midi": 74,
                    "time": 2.392188,
                    "velocity": 0.3228346456692913,
                    "duration": 0.398698
                },
                {
                    "name": "E5",
                    "midi": 76,
                    "time": 2.790886,
                    "velocity": 0.3228346456692913,
                    "duration": 0.09967449999999989
                },
                {
                    "name": "C#5",
                    "midi": 73,
                    "time": 2.790886,
                    "velocity": 0.2755905511811024,
                    "duration": 0.09967449999999989
                },
                {
                    "name": "G4",
                    "midi": 67,
                    "time": 2.8905605,
                    "velocity": 0.33070866141732286,
                    "duration": 0.09967449999999989
                },
                {
                    "name": "G5",
                    "midi": 79,
                    "time": 2.9902349999999998,
                    "velocity": 0.3700787401574803,
                    "duration": 0.398698
                },
                {
                    "name": "E5",
                    "midi": 76,
                    "time": 3.3889329999999998,
                    "velocity": 0.3464566929133858,
                    "duration": 0.14951174999999983
                },
                {
                    "name": "D5",
                    "midi": 74,
                    "time": 3.5384447499999996,
                    "velocity": 0.3464566929133858,
                    "duration": 0.049837249999999944
                },
                {
                    "name": "C#5",
                    "midi": 73,
                    "time": 3.5882819999999995,
                    "velocity": 0.3858267716535433,
                    "duration": 0.07475587500000014
                },
                {
                    "name": "B4",
                    "midi": 71,
                    "time": 3.7876309999999997,
                    "velocity": 0.3464566929133858,
                    "duration": 0.07475587500000014
                },
                {
                    "name": "C#5",
                    "midi": 73,
                    "time": 3.98698,
                    "velocity": 0.3464566929133858,
                    "duration": 0.07475587500000014
                },
                {
                    "name": "A4",
                    "midi": 69,
                    "time": 4.186329,
                    "velocity": 0.3700787401574803,
                    "duration": 0.07475587500000014
                },
                {
                    "name": "E5",
                    "midi": 76,
                    "time": 4.3856779999999995,
                    "velocity": 0.33858267716535434,
                    "duration": 0.07475587500000014
                },
                {
                    "name": "A5",
                    "midi": 81,
                    "time": 4.585026999999999,
                    "velocity": 0.33070866141732286,
                    "duration": 0.07475587500000014
                },
                {
                    "name": "G5",
                    "midi": 79,
                    "time": 4.784375999999999,
                    "velocity": 0.3858267716535433,
                    "duration": 0.39869799999999955
                },
                {
                    "name": "E5",
                    "midi": 76,
                    "time": 4.784375999999999,
                    "velocity": 0.3228346456692913,
                    "duration": 0.39869799999999955
                },
                {
                    "name": "F#5",
                    "midi": 78,
                    "time": 5.183073999999999,
                    "velocity": 0.3228346456692913,
                    "duration": 0.14951175000000028
                },
                {
                    "name": "D5",
                    "midi": 74,
                    "time": 5.183073999999999,
                    "velocity": 0.2755905511811024,
                    "duration": 0.14951175000000028
                },
                {
                    "name": "D5",
                    "midi": 74,
                    "time": 5.332585749999999,
                    "velocity": 0.3779527559055118,
                    "duration": 0.04983725000000039
                },
                {
                    "name": "F#5",
                    "midi": 78,
                    "time": 5.382422999999999,
                    "velocity": 0.4094488188976378,
                    "duration": 0.39869799999999955
                },
                {
                    "name": "G5",
                    "midi": 79,
                    "time": 5.781120999999999,
                    "velocity": 0.3779527559055118,
                    "duration": 0.19934899999999978
                },
                {
                    "name": "B5",
                    "midi": 83,
                    "time": 5.980469999999999,
                    "velocity": 0.4645669291338583,
                    "duration": 0.09967449999999989
                },
                {
                    "name": "A5",
                    "midi": 81,
                    "time": 6.0801444999999985,
                    "velocity": 0.44881889763779526,
                    "duration": 0.09967449999999989
                },
                {
                    "name": "G5",
                    "midi": 79,
                    "time": 6.179818999999998,
                    "velocity": 0.4330708661417323,
                    "duration": 0.09967449999999989
                },
                {
                    "name": "F#5",
                    "midi": 78,
                    "time": 6.279493499999998,
                    "velocity": 0.41732283464566927,
                    "duration": 0.09967449999999989
                },
                {
                    "name": "E5",
                    "midi": 76,
                    "time": 6.379167999999998,
                    "velocity": 0.4015748031496063,
                    "duration": 0.09967449999999989
                },
                {
                    "name": "D5",
                    "midi": 74,
                    "time": 6.478842499999998,
                    "velocity": 0.3700787401574803,
                    "duration": 0.04817600833333291
                },
                {
                    "name": "D5",
                    "midi": 74,
                    "time": 6.528679749999998,
                    "velocity": 0.36220472440944884,
                    "duration": 0.04983725000000039
                },
                {
                    "name": "F#5",
                    "midi": 78,
                    "time": 6.578516999999998,
                    "velocity": 0.4566929133858268,
                    "duration": 0.39869799999999955
                },
                {
                    "name": "G5",
                    "midi": 79,
                    "time": 6.9772149999999975,
                    "velocity": 0.3858267716535433,
                    "duration": 0.19934899999999978
                },
                {
                    "name": "B5",
                    "midi": 83,
                    "time": 7.176563999999997,
                    "velocity": 0.4645669291338583,
                    "duration": 0.09967449999999989
                },
                {
                    "name": "A5",
                    "midi": 81,
                    "time": 7.276238499999997,
                    "velocity": 0.44881889763779526,
                    "duration": 0.09967449999999989
                },
                {
                    "name": "G5",
                    "midi": 79,
                    "time": 7.375912999999997,
                    "velocity": 0.4330708661417323,
                    "duration": 0.09967449999999989
                },
                {
                    "name": "F#5",
                    "midi": 78,
                    "time": 7.475587499999997,
                    "velocity": 0.41732283464566927,
                    "duration": 0.09967449999999989
                },
                {
                    "name": "E5",
                    "midi": 76,
                    "time": 7.575261999999997,
                    "velocity": 0.4015748031496063,
                    "duration": 0.09967449999999989
                },
                {
                    "name": "D5",
                    "midi": 74,
                    "time": 7.674936499999997,
                    "velocity": 0.4015748031496063,
                    "duration": 0.041531041666666546
                },
                {
                    "name": "D5",
                    "midi": 74,
                    "time": 7.724773749999996,
                    "velocity": 0.36220472440944884,
                    "duration": 0.04983725000000039
                },
                {
                    "name": "B5",
                    "midi": 83,
                    "time": 7.774610999999997,
                    "velocity": 0.4566929133858268,
                    "duration": 0.39869799999999955
                },
                {
                    "name": "C#6",
                    "midi": 85,
                    "time": 8.173308999999996,
                    "velocity": 0.3858267716535433,
                    "duration": 0.19934899999999978
                },
                {
                    "name": "D6",
                    "midi": 86,
                    "time": 8.372657999999996,
                    "velocity": 0.4645669291338583,
                    "duration": 0.09967450000000078
                },
                {
                    "name": "C#6",
                    "midi": 85,
                    "time": 8.472332499999997,
                    "velocity": 0.44881889763779526,
                    "duration": 0.09967450000000078
                },
                {
                    "name": "B5",
                    "midi": 83,
                    "time": 8.572006999999997,
                    "velocity": 0.4330708661417323,
                    "duration": 0.09967450000000078
                },
                {
                    "name": "A5",
                    "midi": 81,
                    "time": 8.671681499999998,
                    "velocity": 0.41732283464566927,
                    "duration": 0.09967450000000078
                },
                {
                    "name": "G5",
                    "midi": 79,
                    "time": 8.771355999999999,
                    "velocity": 0.4015748031496063,
                    "duration": 0.09967450000000078
                },
                {
                    "name": "F#5",
                    "midi": 78,
                    "time": 8.8710305,
                    "velocity": 0.4015748031496063,
                    "duration": 0.09967450000000078
                },
                {
                    "name": "B5",
                    "midi": 83,
                    "time": 8.970705,
                    "velocity": 0.4645669291338583,
                    "duration": 0.09967450000000078
                },
                {
                    "name": "A5",
                    "midi": 81,
                    "time": 9.070379500000001,
                    "velocity": 0.4566929133858268,
                    "duration": 0.09967450000000078
                },
                {
                    "name": "G5",
                    "midi": 79,
                    "time": 9.170054000000002,
                    "velocity": 0.4409448818897638,
                    "duration": 0.09967450000000078
                },
                {
                    "name": "F#5",
                    "midi": 78,
                    "time": 9.269728500000003,
                    "velocity": 0.4330708661417323,
                    "duration": 0.09967450000000078
                },
                {
                    "name": "E5",
                    "midi": 76,
                    "time": 9.369403000000004,
                    "velocity": 0.4566929133858268,
                    "duration": 0.09967450000000078
                },
                {
                    "name": "D5",
                    "midi": 74,
                    "time": 9.469077500000004,
                    "velocity": 0.4881889763779528,
                    "duration": 0.09967450000000078
                },
                {
                    "name": "C#5",
                    "midi": 73,
                    "time": 9.568752000000005,
                    "velocity": 0.3937007874015748,
                    "duration": 0.19934899999999978
                },
                {
                    "name": "E5",
                    "midi": 76,
                    "time": 9.568752000000005,
                    "velocity": 0.3937007874015748,
                    "duration": 0.19934899999999978
                },
                {
                    "name": "A5",
                    "midi": 81,
                    "time": 9.568752000000005,
                    "velocity": 0.4645669291338583,
                    "duration": 0.19934899999999978
                },
                {
                    "name": "A4",
                    "midi": 69,
                    "time": 10.067124500000006,
                    "velocity": 0.3543307086614173,
                    "duration": 0.09967450000000078
                },
                {
                    "name": "A5",
                    "midi": 81,
                    "time": 10.166799000000006,
                    "velocity": 0.3700787401574803,
                    "duration": 0.39869799999999955
                },
                {
                    "name": "F#5",
                    "midi": 78,
                    "time": 10.565497000000006,
                    "velocity": 0.3464566929133858,
                    "duration": 0.14951175000000028
                },
                {
                    "name": "E5",
                    "midi": 76,
                    "time": 10.715008750000006,
                    "velocity": 0.3464566929133858,
                    "duration": 0.0498372499999995
                },
                {
                    "name": "D5",
                    "midi": 74,
                    "time": 10.764846000000006,
                    "velocity": 0.3858267716535433,
                    "duration": 0.07475587499999925
                },
                {
                    "name": "C#5",
                    "midi": 73,
                    "time": 10.964195000000005,
                    "velocity": 0.3464566929133858,
                    "duration": 0.07475587499999925
                },
                {
                    "name": "D5",
                    "midi": 74,
                    "time": 11.163544000000005,
                    "velocity": 0.3464566929133858,
                    "duration": 0.07475587499999925
                },
                {
                    "name": "E5",
                    "midi": 76,
                    "time": 11.313055750000004,
                    "velocity": 0.33858267716535434,
                    "duration": 0.0498372499999995
                },
                {
                    "name": "D5",
                    "midi": 74,
                    "time": 11.362893000000003,
                    "velocity": 0.3700787401574803,
                    "duration": 0.07475587499999925
                },
                {
                    "name": "C#5",
                    "midi": 73,
                    "time": 11.562242000000003,
                    "velocity": 0.33858267716535434,
                    "duration": 0.07475587499999925
                },
                {
                    "name": "D5",
                    "midi": 74,
                    "time": 11.761591000000003,
                    "velocity": 0.33070866141732286,
                    "duration": 0.07475587499999925
                },
                {
                    "name": "F#5",
                    "midi": 78,
                    "time": 11.960940000000003,
                    "velocity": 0.3858267716535433,
                    "duration": 0.39869799999999955
                },
                {
                    "name": "D5",
                    "midi": 74,
                    "time": 11.960940000000003,
                    "velocity": 0.3228346456692913,
                    "duration": 0.39869799999999955
                },
                {
                    "name": "E5",
                    "midi": 76,
                    "time": 12.359638000000002,
                    "velocity": 0.3228346456692913,
                    "duration": 0.09967450000000078
                },
                {
                    "name": "C#5",
                    "midi": 73,
                    "time": 12.359638000000002,
                    "velocity": 0.2755905511811024,
                    "duration": 0.09967450000000078
                },
                {
                    "name": "G4",
                    "midi": 67,
                    "time": 12.459312500000003,
                    "velocity": 0.33070866141732286,
                    "duration": 0.09967450000000078
                },
                {
                    "name": "G5",
                    "midi": 79,
                    "time": 12.558987000000004,
                    "velocity": 0.3700787401574803,
                    "duration": 0.39869799999999955
                },
                {
                    "name": "E5",
                    "midi": 76,
                    "time": 12.957685000000003,
                    "velocity": 0.3464566929133858,
                    "duration": 0.14951175000000028
                },
                {
                    "name": "D5",
                    "midi": 74,
                    "time": 13.107196750000004,
                    "velocity": 0.3464566929133858,
                    "duration": 0.0498372499999995
                },
                {
                    "name": "C#5",
                    "midi": 73,
                    "time": 13.157034000000003,
                    "velocity": 0.3858267716535433,
                    "duration": 0.07475587499999925
                },
                {
                    "name": "B4",
                    "midi": 71,
                    "time": 13.356383000000003,
                    "velocity": 0.3464566929133858,
                    "duration": 0.07475587499999925
                },
                {
                    "name": "C#5",
                    "midi": 73,
                    "time": 13.555732000000003,
                    "velocity": 0.3464566929133858,
                    "duration": 0.07475587499999925
                },
                {
                    "name": "A4",
                    "midi": 69,
                    "time": 13.755081000000002,
                    "velocity": 0.3700787401574803,
                    "duration": 0.07475587499999925
                },
                {
                    "name": "E5",
                    "midi": 76,
                    "time": 13.954430000000002,
                    "velocity": 0.33858267716535434,
                    "duration": 0.07475587499999925
                },
                {
                    "name": "A5",
                    "midi": 81,
                    "time": 14.153779000000002,
                    "velocity": 0.33070866141732286,
                    "duration": 0.07475587499999925
                },
                {
                    "name": "E5",
                    "midi": 76,
                    "time": 14.353128000000002,
                    "velocity": 0.3228346456692913,
                    "duration": 0.39869799999999955
                },
                {
                    "name": "G5",
                    "midi": 79,
                    "time": 14.353128000000002,
                    "velocity": 0.3858267716535433,
                    "duration": 0.39869799999999955
                },
                {
                    "name": "D5",
                    "midi": 74,
                    "time": 14.751826000000001,
                    "velocity": 0.2755905511811024,
                    "duration": 0.14951175000000028
                },
                {
                    "name": "F#5",
                    "midi": 78,
                    "time": 14.751826000000001,
                    "velocity": 0.3228346456692913,
                    "duration": 0.14951175000000028
                },
                {
                    "name": "D5",
                    "midi": 74,
                    "time": 14.901337750000001,
                    "velocity": 0.3779527559055118,
                    "duration": 0.0498372499999995
                },
                {
                    "name": "F#5",
                    "midi": 78,
                    "time": 14.951175000000001,
                    "velocity": 0.4094488188976378,
                    "duration": 0.39869799999999955
                },
                {
                    "name": "G5",
                    "midi": 79,
                    "time": 15.349873,
                    "velocity": 0.3779527559055118,
                    "duration": 0.19934899999999978
                },
                {
                    "name": "B5",
                    "midi": 83,
                    "time": 15.549222,
                    "velocity": 0.4645669291338583,
                    "duration": 0.09967450000000078
                },
                {
                    "name": "A5",
                    "midi": 81,
                    "time": 15.648896500000001,
                    "velocity": 0.44881889763779526,
                    "duration": 0.09967450000000078
                },
                {
                    "name": "G5",
                    "midi": 79,
                    "time": 15.748571000000002,
                    "velocity": 0.4330708661417323,
                    "duration": 0.09967450000000078
                },
                {
                    "name": "F#5",
                    "midi": 78,
                    "time": 15.848245500000003,
                    "velocity": 0.41732283464566927,
                    "duration": 0.09967450000000078
                },
                {
                    "name": "E5",
                    "midi": 76,
                    "time": 15.947920000000003,
                    "velocity": 0.4015748031496063,
                    "duration": 0.099674499999999
                },
                {
                    "name": "D5",
                    "midi": 74,
                    "time": 16.047594500000002,
                    "velocity": 0.3700787401574803,
                    "duration": 0.046514766666668095
                },
                {
                    "name": "D5",
                    "midi": 74,
                    "time": 16.097431750000005,
                    "velocity": 0.36220472440944884,
                    "duration": 0.0498372499999995
                },
                {
                    "name": "B5",
                    "midi": 83,
                    "time": 16.147269000000005,
                    "velocity": 0.4566929133858268,
                    "duration": 0.39869799999999955
                },
                {
                    "name": "C#6",
                    "midi": 85,
                    "time": 16.545967000000005,
                    "velocity": 0.3858267716535433,
                    "duration": 0.19934900000000155
                },
                {
                    "name": "E6",
                    "midi": 88,
                    "time": 16.745316000000006,
                    "velocity": 0.4645669291338583,
                    "duration": 0.099674499999999
                },
                {
                    "name": "D6",
                    "midi": 86,
                    "time": 16.844990500000005,
                    "velocity": 0.44881889763779526,
                    "duration": 0.099674499999999
                },
                {
                    "name": "C#6",
                    "midi": 85,
                    "time": 16.944665000000004,
                    "velocity": 0.4330708661417323,
                    "duration": 0.099674499999999
                },
                {
                    "name": "B5",
                    "midi": 83,
                    "time": 17.044339500000003,
                    "velocity": 0.41732283464566927,
                    "duration": 0.099674499999999
                },
                {
                    "name": "A5",
                    "midi": 81,
                    "time": 17.144014000000002,
                    "velocity": 0.4015748031496063,
                    "duration": 0.099674499999999
                },
                {
                    "name": "G5",
                    "midi": 79,
                    "time": 17.2436885,
                    "velocity": 0.4015748031496063,
                    "duration": 0.099674499999999
                },
                {
                    "name": "C#6",
                    "midi": 85,
                    "time": 17.343363,
                    "velocity": 0.4645669291338583,
                    "duration": 0.099674499999999
                },
                {
                    "name": "B5",
                    "midi": 83,
                    "time": 17.4430375,
                    "velocity": 0.4566929133858268,
                    "duration": 0.099674499999999
                },
                {
                    "name": "A5",
                    "midi": 81,
                    "time": 17.542711999999998,
                    "velocity": 0.4409448818897638,
                    "duration": 0.099674499999999
                },
                {
                    "name": "G5",
                    "midi": 79,
                    "time": 17.642386499999997,
                    "velocity": 0.4330708661417323,
                    "duration": 0.099674499999999
                },
                {
                    "name": "F#5",
                    "midi": 78,
                    "time": 17.742060999999996,
                    "velocity": 0.4251968503937008,
                    "duration": 0.099674499999999
                },
                {
                    "name": "E5",
                    "midi": 76,
                    "time": 17.841735499999995,
                    "velocity": 0.4094488188976378,
                    "duration": 0.099674499999999
                },
                {
                    "name": "B5",
                    "midi": 83,
                    "time": 17.941409999999994,
                    "velocity": 0.49606299212598426,
                    "duration": 0.099674499999999
                },
                {
                    "name": "A5",
                    "midi": 81,
                    "time": 18.041084499999993,
                    "velocity": 0.48031496062992124,
                    "duration": 0.099674499999999
                },
                {
                    "name": "G5",
                    "midi": 79,
                    "time": 18.140758999999992,
                    "velocity": 0.4645669291338583,
                    "duration": 0.099674499999999
                },
                {
                    "name": "F#5",
                    "midi": 78,
                    "time": 18.24043349999999,
                    "velocity": 0.44881889763779526,
                    "duration": 0.099674499999999
                },
                {
                    "name": "E5",
                    "midi": 76,
                    "time": 18.34010799999999,
                    "velocity": 0.4409448818897638,
                    "duration": 0.099674499999999
                },
                {
                    "name": "D5",
                    "midi": 74,
                    "time": 18.43978249999999,
                    "velocity": 0.4251968503937008,
                    "duration": 0.099674499999999
                },
                {
                    "name": "A5",
                    "midi": 81,
                    "time": 18.539456999999988,
                    "velocity": 0.4645669291338583,
                    "duration": 0.099674499999999
                },
                {
                    "name": "G5",
                    "midi": 79,
                    "time": 18.639131499999987,
                    "velocity": 0.48031496062992124,
                    "duration": 0.099674499999999
                },
                {
                    "name": "F#5",
                    "midi": 78,
                    "time": 18.738805999999986,
                    "velocity": 0.47244094488188976,
                    "duration": 0.099674499999999
                },
                {
                    "name": "E5",
                    "midi": 76,
                    "time": 18.838480499999985,
                    "velocity": 0.4645669291338583,
                    "duration": 0.099674499999999
                },
                {
                    "name": "D5",
                    "midi": 74,
                    "time": 18.938154999999984,
                    "velocity": 0.4566929133858268,
                    "duration": 0.099674499999999
                },
                {
                    "name": "C#5",
                    "midi": 73,
                    "time": 19.037829499999983,
                    "velocity": 0.48031496062992124,
                    "duration": 0.099674499999999
                },
                {
                    "name": "D5",
                    "midi": 74,
                    "time": 19.137503999999982,
                    "velocity": 0.49606299212598426,
                    "duration": 0.099674499999999
                },
                {
                    "name": "D4",
                    "midi": 62,
                    "time": 19.53620199999998,
                    "velocity": 0.5196850393700787,
                    "duration": 0.099674499999999
                },
                {
                    "name": "F#4",
                    "midi": 66,
                    "time": 19.63587649999998,
                    "velocity": 0.5196850393700787,
                    "duration": 0.099674499999999
                },
                {
                    "name": "A4",
                    "midi": 69,
                    "time": 19.73555099999998,
                    "velocity": 0.5748031496062992,
                    "duration": 0.099674499999999
                },
                {
                    "name": "F#4",
                    "midi": 66,
                    "time": 20.13424899999998,
                    "velocity": 0.5511811023622047,
                    "duration": 0.099674499999999
                },
                {
                    "name": "A4",
                    "midi": 69,
                    "time": 20.233923499999978,
                    "velocity": 0.5511811023622047,
                    "duration": 0.099674499999999
                },
                {
                    "name": "D5",
                    "midi": 74,
                    "time": 20.333597999999977,
                    "velocity": 0.5905511811023622,
                    "duration": 0.099674499999999
                },
                {
                    "name": "A4",
                    "midi": 69,
                    "time": 20.732295999999977,
                    "velocity": 0.5433070866141733,
                    "duration": 0.099674499999999
                },
                {
                    "name": "D5",
                    "midi": 74,
                    "time": 20.831970499999976,
                    "velocity": 0.5433070866141733,
                    "duration": 0.099674499999999
                },
                {
                    "name": "F#5",
                    "midi": 78,
                    "time": 20.931644999999975,
                    "velocity": 0.6377952755905512,
                    "duration": 0.099674499999999
                },
                {
                    "name": "D5",
                    "midi": 74,
                    "time": 21.330342999999974,
                    "velocity": 0.5511811023622047,
                    "duration": 0.099674499999999
                },
                {
                    "name": "F#5",
                    "midi": 78,
                    "time": 21.430017499999973,
                    "velocity": 0.5511811023622047,
                    "duration": 0.099674499999999
                },
                {
                    "name": "A5",
                    "midi": 81,
                    "time": 21.529691999999972,
                    "velocity": 0.6456692913385826,
                    "duration": 0.099674499999999
                },
                {
                    "name": "A5",
                    "midi": 81,
                    "time": 22.72578599999997,
                    "velocity": 0.3543307086614173,
                    "duration": 0.49837249999999855
                },
                {
                    "name": "B5",
                    "midi": 83,
                    "time": 23.22415849999997,
                    "velocity": 0.33070866141732286,
                    "duration": 0.099674499999999
                },
                {
                    "name": "D5",
                    "midi": 74,
                    "time": 23.32383299999997,
                    "velocity": 0.3700787401574803,
                    "duration": 0.39869799999999955
                },
                {
                    "name": "C#5",
                    "midi": 73,
                    "time": 23.745788383333302,
                    "velocity": 0.3700787401574803,
                    "duration": 0.19934900000000155
                },
                {
                    "name": "D5",
                    "midi": 74,
                    "time": 23.92187999999997,
                    "velocity": 0.4330708661417323,
                    "duration": 0.14951175000000205
                },
                {
                    "name": "D6",
                    "midi": 86,
                    "time": 24.12122899999997,
                    "velocity": 0.4251968503937008,
                    "duration": 0.099674499999999
                },
                {
                    "name": "C#6",
                    "midi": 85,
                    "time": 24.32057799999997,
                    "velocity": 0.4094488188976378,
                    "duration": 0.099674499999999
                },
                {
                    "name": "B5",
                    "midi": 83,
                    "time": 24.519926999999967,
                    "velocity": 0.3937007874015748,
                    "duration": 0.099674499999999
                },
                {
                    "name": "A5",
                    "midi": 81,
                    "time": 24.719275999999965,
                    "velocity": 0.3858267716535433,
                    "duration": 0.099674499999999
                },
                {
                    "name": "G#5",
                    "midi": 80,
                    "time": 24.918624999999963,
                    "velocity": 0.3700787401574803,
                    "duration": 0.099674499999999
                },
                {
                    "name": "A5",
                    "midi": 81,
                    "time": 25.11797399999996,
                    "velocity": 0.3543307086614173,
                    "duration": 0.24918625000000105
                },
                {
                    "name": "B5",
                    "midi": 83,
                    "time": 25.367160249999962,
                    "velocity": 0.2755905511811024,
                    "duration": 0.0498372499999995
                },
                {
                    "name": "A5",
                    "midi": 81,
                    "time": 25.41699749999996,
                    "velocity": 0.2755905511811024,
                    "duration": 0.0498372499999995
                },
                {
                    "name": "G#5",
                    "midi": 80,
                    "time": 25.46683474999996,
                    "velocity": 0.2755905511811024,
                    "duration": 0.0498372499999995
                },
                {
                    "name": "A5",
                    "midi": 81,
                    "time": 25.51667199999996,
                    "velocity": 0.3543307086614173,
                    "duration": 0.099674499999999
                },
                {
                    "name": "B5",
                    "midi": 83,
                    "time": 25.61634649999996,
                    "velocity": 0.33070866141732286,
                    "duration": 0.099674499999999
                },
                {
                    "name": "D5",
                    "midi": 74,
                    "time": 25.71602099999996,
                    "velocity": 0.3700787401574803,
                    "duration": 0.39869799999999955
                },
                {
                    "name": "C#5",
                    "midi": 73,
                    "time": 26.137976383333292,
                    "velocity": 0.3700787401574803,
                    "duration": 0.19934900000000155
                },
                {
                    "name": "D5",
                    "midi": 74,
                    "time": 26.31406799999996,
                    "velocity": 0.4330708661417323,
                    "duration": 0.14951175000000205
                },
                {
                    "name": "D6",
                    "midi": 86,
                    "time": 26.51341699999996,
                    "velocity": 0.4251968503937008,
                    "duration": 0.099674499999999
                },
                {
                    "name": "C#6",
                    "midi": 85,
                    "time": 26.71276599999996,
                    "velocity": 0.4094488188976378,
                    "duration": 0.099674499999999
                },
                {
                    "name": "B5",
                    "midi": 83,
                    "time": 26.912114999999957,
                    "velocity": 0.3937007874015748,
                    "duration": 0.099674499999999
                },
                {
                    "name": "A5",
                    "midi": 81,
                    "time": 27.111463999999955,
                    "velocity": 0.3858267716535433,
                    "duration": 0.099674499999999
                },
                {
                    "name": "G#5",
                    "midi": 80,
                    "time": 27.310812999999953,
                    "velocity": 0.3700787401574803,
                    "duration": 0.099674499999999
                },
                {
                    "name": "A5",
                    "midi": 81,
                    "time": 27.51016199999995,
                    "velocity": 0.3543307086614173,
                    "duration": 0.24918625000000105
                },
                {
                    "name": "B5",
                    "midi": 83,
                    "time": 27.759348249999952,
                    "velocity": 0.2755905511811024,
                    "duration": 0.0498372499999995
                },
                {
                    "name": "A5",
                    "midi": 81,
                    "time": 27.809185499999952,
                    "velocity": 0.2755905511811024,
                    "duration": 0.0498372499999995
                },
                {
                    "name": "G#5",
                    "midi": 80,
                    "time": 27.85902274999995,
                    "velocity": 0.2755905511811024,
                    "duration": 0.0498372499999995
                },
                {
                    "name": "A5",
                    "midi": 81,
                    "time": 27.90885999999995,
                    "velocity": 0.3543307086614173,
                    "duration": 0.099674499999999
                },
                {
                    "name": "B5",
                    "midi": 83,
                    "time": 28.00853449999995,
                    "velocity": 0.33070866141732286,
                    "duration": 0.099674499999999
                },
                {
                    "name": "D5",
                    "midi": 74,
                    "time": 28.10820899999995,
                    "velocity": 0.3700787401574803,
                    "duration": 0.39869799999999955
                },
                {
                    "name": "C#5",
                    "midi": 73,
                    "time": 28.530164383333283,
                    "velocity": 0.3700787401574803,
                    "duration": 0.19934900000000155
                },
                {
                    "name": "D5",
                    "midi": 74,
                    "time": 28.70625599999995,
                    "velocity": 0.4094488188976378,
                    "duration": 0.19934900000000155
                },
                {
                    "name": "D4",
                    "midi": 62,
                    "time": 29.30430299999995,
                    "velocity": 0.2755905511811024,
                    "duration": 0.5980470000000011
                },
                {
                    "name": "F#3",
                    "midi": 54,
                    "time": 29.30430299999995,
                    "velocity": 0.2283464566929134,
                    "duration": 0.5980470000000011
                },
                {
                    "name": "B3",
                    "midi": 59,
                    "time": 29.30430299999995,
                    "velocity": 0.2283464566929134,
                    "duration": 0.5980470000000011
                },
                {
                    "name": "B3",
                    "midi": 59,
                    "time": 29.902349999999952,
                    "velocity": 0.25196850393700787,
                    "duration": 0.5980470000000011
                },
                {
                    "name": "E4",
                    "midi": 64,
                    "time": 29.902349999999952,
                    "velocity": 0.2992125984251969,
                    "duration": 0.5980470000000011
                },
                {
                    "name": "D4",
                    "midi": 62,
                    "time": 29.902349999999952,
                    "velocity": 0.25196850393700787,
                    "duration": 0.5980470000000011
                },
                {
                    "name": "E4",
                    "midi": 64,
                    "time": 30.500396999999953,
                    "velocity": 0.25984251968503935,
                    "duration": 0.5980470000000011
                },
                {
                    "name": "A4",
                    "midi": 69,
                    "time": 30.500396999999953,
                    "velocity": 0.30708661417322836,
                    "duration": 0.5980470000000011
                },
                {
                    "name": "C#4",
                    "midi": 61,
                    "time": 30.500396999999953,
                    "velocity": 0.25984251968503935,
                    "duration": 0.5980470000000011
                },
                {
                    "name": "A3",
                    "midi": 57,
                    "time": 31.098443999999954,
                    "velocity": 0.2283464566929134,
                    "duration": 0.19934900000000155
                },
                {
                    "name": "D4",
                    "midi": 62,
                    "time": 31.098443999999954,
                    "velocity": 0.2283464566929134,
                    "duration": 0.19934900000000155
                },
                {
                    "name": "F#4",
                    "midi": 66,
                    "time": 31.098443999999954,
                    "velocity": 0.2755905511811024,
                    "duration": 0.19934900000000155
                },
                {
                    "name": "D4",
                    "midi": 62,
                    "time": 31.895839999999957,
                    "velocity": 0.48031496062992124,
                    "duration": 0.07475587500000103
                },
                {
                    "name": "D4",
                    "midi": 62,
                    "time": 32.095188999999955,
                    "velocity": 0.4881889763779528,
                    "duration": 0.07475587500000103
                },
                {
                    "name": "E4",
                    "midi": 64,
                    "time": 32.194863499999954,
                    "velocity": 0.31496062992125984,
                    "duration": 0.03322483333333537
                },
                {
                    "name": "D4",
                    "midi": 62,
                    "time": 32.22808833333329,
                    "velocity": 0.31496062992125984,
                    "duration": 0.03322483333333537
                },
                {
                    "name": "C#4",
                    "midi": 61,
                    "time": 32.26214378749996,
                    "velocity": 0.31496062992125984,
                    "duration": 0.03322483333333537
                },
                {
                    "name": "D4",
                    "midi": 62,
                    "time": 32.29453799999996,
                    "velocity": 0.5433070866141733,
                    "duration": 0.3986980000000031
                },
                {
                    "name": "D4",
                    "midi": 62,
                    "time": 32.69323599999996,
                    "velocity": 0.47244094488188976,
                    "duration": 0.07475587500000103
                },
                {
                    "name": "E4",
                    "midi": 64,
                    "time": 32.79291049999996,
                    "velocity": 0.31496062992125984,
                    "duration": 0.03322483333333537
                },
                {
                    "name": "D4",
                    "midi": 62,
                    "time": 32.8261353333333,
                    "velocity": 0.31496062992125984,
                    "duration": 0.03322483333333537
                },
                {
                    "name": "C#4",
                    "midi": 61,
                    "time": 32.86019078749997,
                    "velocity": 0.31496062992125984,
                    "duration": 0.03322483333333537
                },
                {
                    "name": "D4",
                    "midi": 62,
                    "time": 32.89258499999997,
                    "velocity": 0.5039370078740157,
                    "duration": 0.3986980000000031
                },
                {
                    "name": "D4",
                    "midi": 62,
                    "time": 33.29128299999997,
                    "velocity": 0.4645669291338583,
                    "duration": 0.07475587500000103
                },
                {
                    "name": "C#4",
                    "midi": 61,
                    "time": 33.49063199999997,
                    "velocity": 0.5196850393700787,
                    "duration": 0.3986980000000031
                },
                {
                    "name": "E5",
                    "midi": 76,
                    "time": 33.98900449999997,
                    "velocity": 0.4251968503937008,
                    "duration": 0.099674499999999
                },
                {
                    "name": "A5",
                    "midi": 81,
                    "time": 34.08867899999997,
                    "velocity": 0.49606299212598426,
                    "duration": 0.7973959999999991
                },
                {
                    "name": "C#6",
                    "midi": 85,
                    "time": 34.88607499999997,
                    "velocity": 0.3543307086614173,
                    "duration": 0.07475587500000103
                },
                {
                    "name": "B5",
                    "midi": 83,
                    "time": 35.08542399999997,
                    "velocity": 0.33858267716535434,
                    "duration": 0.07475587500000103
                },
                {
                    "name": "A5",
                    "midi": 81,
                    "time": 35.284772999999966,
                    "velocity": 0.3228346456692913,
                    "duration": 0.07475587500000103
                },
                {
                    "name": "G#5",
                    "midi": 80,
                    "time": 35.484121999999964,
                    "velocity": 0.30708661417322836,
                    "duration": 0.07475587500000103
                },
                {
                    "name": "F#5",
                    "midi": 78,
                    "time": 35.68347099999996,
                    "velocity": 0.29133858267716534,
                    "duration": 0.07475587500000103
                },
                {
                    "name": "E5",
                    "midi": 76,
                    "time": 35.88281999999996,
                    "velocity": 0.2755905511811024,
                    "duration": 0.5980470000000011
                },
                {
                    "name": "D5",
                    "midi": 74,
                    "time": 36.48086699999996,
                    "velocity": 0.2755905511811024,
                    "duration": 0.199348999999998
                },
                {
                    "name": "B3",
                    "midi": 59,
                    "time": 36.68021599999996,
                    "velocity": 0.48031496062992124,
                    "duration": 0.07475587500000103
                },
                {
                    "name": "B3",
                    "midi": 59,
                    "time": 36.87956499999996,
                    "velocity": 0.4881889763779528,
                    "duration": 0.07475587500000103
                },
                {
                    "name": "C#4",
                    "midi": 61,
                    "time": 36.979239499999956,
                    "velocity": 0.31496062992125984,
                    "duration": 0.03322483333333537
                },
                {
                    "name": "B3",
                    "midi": 59,
                    "time": 37.01246433333329,
                    "velocity": 0.31496062992125984,
                    "duration": 0.03322483333333537
                },
                {
                    "name": "A#3",
                    "midi": 58,
                    "time": 37.04651978749996,
                    "velocity": 0.31496062992125984,
                    "duration": 0.03322483333333537
                },
                {
                    "name": "B3",
                    "midi": 59,
                    "time": 37.07891399999996,
                    "velocity": 0.5433070866141733,
                    "duration": 0.3986980000000031
                },
                {
                    "name": "B3",
                    "midi": 59,
                    "time": 37.477611999999965,
                    "velocity": 0.47244094488188976,
                    "duration": 0.07475587500000103
                },
                {
                    "name": "B3",
                    "midi": 59,
                    "time": 37.577286499999964,
                    "velocity": 0.31496062992125984,
                    "duration": 0.03322483333333537
                },
                {
                    "name": "A3",
                    "midi": 57,
                    "time": 37.6105113333333,
                    "velocity": 0.31496062992125984,
                    "duration": 0.03322483333333537
                },
                {
                    "name": "G#3",
                    "midi": 56,
                    "time": 37.64456678749997,
                    "velocity": 0.31496062992125984,
                    "duration": 0.03322483333333537
                },
                {
                    "name": "A3",
                    "midi": 57,
                    "time": 37.67696099999997,
                    "velocity": 0.5039370078740157,
                    "duration": 0.3986980000000031
                },
                {
                    "name": "A3",
                    "midi": 57,
                    "time": 38.07565899999997,
                    "velocity": 0.4645669291338583,
                    "duration": 0.07475587500000103
                },
                {
                    "name": "G#3",
                    "midi": 56,
                    "time": 38.27500799999997,
                    "velocity": 0.5196850393700787,
                    "duration": 0.199348999999998
                },
                {
                    "name": "E5",
                    "midi": 76,
                    "time": 38.773380499999966,
                    "velocity": 0.4251968503937008,
                    "duration": 0.099674499999999
                },
                {
                    "name": "D6",
                    "midi": 86,
                    "time": 38.873054999999965,
                    "velocity": 0.49606299212598426,
                    "duration": 0.6977215000000001
                },
                {
                    "name": "C#6",
                    "midi": 85,
                    "time": 39.570776499999965,
                    "velocity": 0.41732283464566927,
                    "duration": 0.099674499999999
                },
                {
                    "name": "B5",
                    "midi": 83,
                    "time": 39.670450999999964,
                    "velocity": 0.41732283464566927,
                    "duration": 0.099674499999999
                },
                {
                    "name": "A5",
                    "midi": 81,
                    "time": 39.77012549999996,
                    "velocity": 0.4094488188976378,
                    "duration": 0.099674499999999
                },
                {
                    "name": "G#5",
                    "midi": 80,
                    "time": 39.86979999999996,
                    "velocity": 0.4015748031496063,
                    "duration": 0.099674499999999
                },
                {
                    "name": "F#5",
                    "midi": 78,
                    "time": 39.96947449999996,
                    "velocity": 0.4015748031496063,
                    "duration": 0.099674499999999
                },
                {
                    "name": "E5",
                    "midi": 76,
                    "time": 40.06914899999996,
                    "velocity": 0.4251968503937008,
                    "duration": 0.099674499999999
                },
                {
                    "name": "F#5",
                    "midi": 78,
                    "time": 40.16882349999996,
                    "velocity": 0.3858267716535433,
                    "duration": 0.099674499999999
                },
                {
                    "name": "E5",
                    "midi": 76,
                    "time": 40.26849799999996,
                    "velocity": 0.3937007874015748,
                    "duration": 0.099674499999999
                },
                {
                    "name": "D5",
                    "midi": 74,
                    "time": 40.36817249999996,
                    "velocity": 0.3858267716535433,
                    "duration": 0.099674499999999
                },
                {
                    "name": "C#5",
                    "midi": 73,
                    "time": 40.467846999999956,
                    "velocity": 0.3779527559055118,
                    "duration": 0.099674499999999
                },
                {
                    "name": "B4",
                    "midi": 71,
                    "time": 40.567521499999955,
                    "velocity": 0.3700787401574803,
                    "duration": 0.099674499999999
                },
                {
                    "name": "C#5",
                    "midi": 73,
                    "time": 40.667195999999954,
                    "velocity": 0.3700787401574803,
                    "duration": 0.099674499999999
                },
                {
                    "name": "E5",
                    "midi": 76,
                    "time": 40.76687049999995,
                    "velocity": 0.3700787401574803,
                    "duration": 0.099674499999999
                },
                {
                    "name": "F#5",
                    "midi": 78,
                    "time": 40.86654499999995,
                    "velocity": 0.3779527559055118,
                    "duration": 0.099674499999999
                },
                {
                    "name": "G#5",
                    "midi": 80,
                    "time": 40.96621949999995,
                    "velocity": 0.3937007874015748,
                    "duration": 0.099674499999999
                },
                {
                    "name": "A5",
                    "midi": 81,
                    "time": 41.06589399999995,
                    "velocity": 0.4094488188976378,
                    "duration": 0.099674499999999
                },
                {
                    "name": "B5",
                    "midi": 83,
                    "time": 41.16556849999995,
                    "velocity": 0.41732283464566927,
                    "duration": 0.099674499999999
                },
                {
                    "name": "C#6",
                    "midi": 85,
                    "time": 41.26524299999995,
                    "velocity": 0.4330708661417323,
                    "duration": 0.099674499999999
                },
                {
                    "name": "D6",
                    "midi": 86,
                    "time": 41.36491749999995,
                    "velocity": 0.44881889763779526,
                    "duration": 0.099674499999999
                },
                {
                    "name": "E6",
                    "midi": 88,
                    "time": 41.464591999999946,
                    "velocity": 0.48031496062992124,
                    "duration": 0.099674499999999
                },
                {
                    "name": "C#6",
                    "midi": 85,
                    "time": 41.564266499999945,
                    "velocity": 0.44881889763779526,
                    "duration": 0.099674499999999
                },
                {
                    "name": "B5",
                    "midi": 83,
                    "time": 41.663940999999944,
                    "velocity": 0.44881889763779526,
                    "duration": 0.099674499999999
                },
                {
                    "name": "A5",
                    "midi": 81,
                    "time": 41.76361549999994,
                    "velocity": 0.41732283464566927,
                    "duration": 0.099674499999999
                },
                {
                    "name": "D6",
                    "midi": 86,
                    "time": 41.86328999999994,
                    "velocity": 0.4881889763779528,
                    "duration": 0.099674499999999
                },
                {
                    "name": "C#6",
                    "midi": 85,
                    "time": 41.96296449999994,
                    "velocity": 0.47244094488188976,
                    "duration": 0.099674499999999
                },
                {
                    "name": "B5",
                    "midi": 83,
                    "time": 42.06263899999994,
                    "velocity": 0.4566929133858268,
                    "duration": 0.099674499999999
                },
                {
                    "name": "A5",
                    "midi": 81,
                    "time": 42.16231349999994,
                    "velocity": 0.44881889763779526,
                    "duration": 0.099674499999999
                },
                {
                    "name": "G#5",
                    "midi": 80,
                    "time": 42.26198799999994,
                    "velocity": 0.4330708661417323,
                    "duration": 0.099674499999999
                },
                {
                    "name": "F#5",
                    "midi": 78,
                    "time": 42.36166249999994,
                    "velocity": 0.41732283464566927,
                    "duration": 0.099674499999999
                },
                {
                    "name": "E5",
                    "midi": 76,
                    "time": 42.461336999999936,
                    "velocity": 0.4645669291338583,
                    "duration": 0.099674499999999
                },
                {
                    "name": "F#5",
                    "midi": 78,
                    "time": 42.561011499999935,
                    "velocity": 0.4566929133858268,
                    "duration": 0.099674499999999
                },
                {
                    "name": "E5",
                    "midi": 76,
                    "time": 42.660685999999934,
                    "velocity": 0.4409448818897638,
                    "duration": 0.099674499999999
                },
                {
                    "name": "D5",
                    "midi": 74,
                    "time": 42.76036049999993,
                    "velocity": 0.4330708661417323,
                    "duration": 0.099674499999999
                },
                {
                    "name": "C#5",
                    "midi": 73,
                    "time": 42.86003499999993,
                    "velocity": 0.41732283464566927,
                    "duration": 0.099674499999999
                },
                {
                    "name": "B4",
                    "midi": 71,
                    "time": 42.95970949999993,
                    "velocity": 0.4094488188976378,
                    "duration": 0.099674499999999
                },
                {
                    "name": "C#5",
                    "midi": 73,
                    "time": 43.05938399999993,
                    "velocity": 0.3779527559055118,
                    "duration": 0.099674499999999
                },
                {
                    "name": "E5",
                    "midi": 76,
                    "time": 43.15905849999993,
                    "velocity": 0.3937007874015748,
                    "duration": 0.099674499999999
                },
                {
                    "name": "F#5",
                    "midi": 78,
                    "time": 43.25873299999993,
                    "velocity": 0.4015748031496063,
                    "duration": 0.099674499999999
                },
                {
                    "name": "G#5",
                    "midi": 80,
                    "time": 43.35840749999993,
                    "velocity": 0.4094488188976378,
                    "duration": 0.099674499999999
                },
                {
                    "name": "A5",
                    "midi": 81,
                    "time": 43.458081999999926,
                    "velocity": 0.4251968503937008,
                    "duration": 0.099674499999999
                },
                {
                    "name": "B5",
                    "midi": 83,
                    "time": 43.557756499999925,
                    "velocity": 0.4330708661417323,
                    "duration": 0.099674499999999
                },
                {
                    "name": "C#6",
                    "midi": 85,
                    "time": 43.657430999999924,
                    "velocity": 0.4409448818897638,
                    "duration": 0.099674499999999
                },
                {
                    "name": "D6",
                    "midi": 86,
                    "time": 43.75710549999992,
                    "velocity": 0.4566929133858268,
                    "duration": 0.099674499999999
                },
                {
                    "name": "E6",
                    "midi": 88,
                    "time": 43.85677999999992,
                    "velocity": 0.47244094488188976,
                    "duration": 0.099674499999999
                },
                {
                    "name": "C#6",
                    "midi": 85,
                    "time": 43.95645449999992,
                    "velocity": 0.4094488188976378,
                    "duration": 0.099674499999999
                },
                {
                    "name": "B5",
                    "midi": 83,
                    "time": 44.05612899999992,
                    "velocity": 0.4015748031496063,
                    "duration": 0.099674499999999
                },
                {
                    "name": "A5",
                    "midi": 81,
                    "time": 44.15580349999992,
                    "velocity": 0.4015748031496063,
                    "duration": 0.099674499999999
                },
                {
                    "name": "D6",
                    "midi": 86,
                    "time": 44.25547799999992,
                    "velocity": 0.49606299212598426,
                    "duration": 0.099674499999999
                },
                {
                    "name": "C#6",
                    "midi": 85,
                    "time": 44.35515249999992,
                    "velocity": 0.4645669291338583,
                    "duration": 0.099674499999999
                },
                {
                    "name": "B5",
                    "midi": 83,
                    "time": 44.454826999999916,
                    "velocity": 0.4645669291338583,
                    "duration": 0.099674499999999
                },
                {
                    "name": "A5",
                    "midi": 81,
                    "time": 44.554501499999915,
                    "velocity": 0.4566929133858268,
                    "duration": 0.099674499999999
                },
                {
                    "name": "G#5",
                    "midi": 80,
                    "time": 44.654175999999914,
                    "velocity": 0.4409448818897638,
                    "duration": 0.099674499999999
                },
                {
                    "name": "F#5",
                    "midi": 78,
                    "time": 44.75385049999991,
                    "velocity": 0.4251968503937008,
                    "duration": 0.099674499999999
                },
                {
                    "name": "E5",
                    "midi": 76,
                    "time": 44.85352499999991,
                    "velocity": 0.47244094488188976,
                    "duration": 0.099674499999999
                },
                {
                    "name": "F#5",
                    "midi": 78,
                    "time": 44.95319949999991,
                    "velocity": 0.4566929133858268,
                    "duration": 0.099674499999999
                },
                {
                    "name": "E5",
                    "midi": 76,
                    "time": 45.05287399999991,
                    "velocity": 0.4409448818897638,
                    "duration": 0.099674499999999
                },
                {
                    "name": "D5",
                    "midi": 74,
                    "time": 45.15254849999991,
                    "velocity": 0.4330708661417323,
                    "duration": 0.099674499999999
                },
                {
                    "name": "C#5",
                    "midi": 73,
                    "time": 45.25222299999991,
                    "velocity": 0.4251968503937008,
                    "duration": 0.099674499999999
                },
                {
                    "name": "B4",
                    "midi": 71,
                    "time": 45.35189749999991,
                    "velocity": 0.4094488188976378,
                    "duration": 0.099674499999999
                },
                {
                    "name": "C#5",
                    "midi": 73,
                    "time": 45.451571999999906,
                    "velocity": 0.4409448818897638,
                    "duration": 0.099674499999999
                },
                {
                    "name": "E5",
                    "midi": 76,
                    "time": 45.551246499999905,
                    "velocity": 0.3937007874015748,
                    "duration": 0.099674499999999
                },
                {
                    "name": "F#5",
                    "midi": 78,
                    "time": 45.650920999999904,
                    "velocity": 0.4094488188976378,
                    "duration": 0.099674499999999
                },
                {
                    "name": "G#5",
                    "midi": 80,
                    "time": 45.7505954999999,
                    "velocity": 0.41732283464566927,
                    "duration": 0.099674499999999
                },
                {
                    "name": "A5",
                    "midi": 81,
                    "time": 45.8502699999999,
                    "velocity": 0.4330708661417323,
                    "duration": 0.099674499999999
                },
                {
                    "name": "B5",
                    "midi": 83,
                    "time": 45.9499444999999,
                    "velocity": 0.44881889763779526,
                    "duration": 0.099674499999999
                },
                {
                    "name": "C#6",
                    "midi": 85,
                    "time": 46.0496189999999,
                    "velocity": 0.4881889763779528,
                    "duration": 0.099674499999999
                },
                {
                    "name": "B5",
                    "midi": 83,
                    "time": 46.1492934999999,
                    "velocity": 0.44881889763779526,
                    "duration": 0.099674499999999
                },
                {
                    "name": "A5",
                    "midi": 81,
                    "time": 46.2489679999999,
                    "velocity": 0.4409448818897638,
                    "duration": 0.099674499999999
                },
                {
                    "name": "G#5",
                    "midi": 80,
                    "time": 46.3486424999999,
                    "velocity": 0.4251968503937008,
                    "duration": 0.099674499999999
                },
                {
                    "name": "F#5",
                    "midi": 78,
                    "time": 46.448316999999896,
                    "velocity": 0.41732283464566927,
                    "duration": 0.099674499999999
                },
                {
                    "name": "E5",
                    "midi": 76,
                    "time": 46.547991499999895,
                    "velocity": 0.4094488188976378,
                    "duration": 0.099674499999999
                },
                {
                    "name": "F#5",
                    "midi": 78,
                    "time": 46.647665999999894,
                    "velocity": 0.47244094488188976,
                    "duration": 0.099674499999999
                },
                {
                    "name": "E5",
                    "midi": 76,
                    "time": 46.74734049999989,
                    "velocity": 0.4645669291338583,
                    "duration": 0.099674499999999
                },
                {
                    "name": "D5",
                    "midi": 74,
                    "time": 46.84701499999989,
                    "velocity": 0.44881889763779526,
                    "duration": 0.099674499999999
                },
                {
                    "name": "C#5",
                    "midi": 73,
                    "time": 46.94668949999989,
                    "velocity": 0.4409448818897638,
                    "duration": 0.099674499999999
                },
                {
                    "name": "B4",
                    "midi": 71,
                    "time": 47.04636399999989,
                    "velocity": 0.4330708661417323,
                    "duration": 0.099674499999999
                },
                {
                    "name": "A4",
                    "midi": 69,
                    "time": 47.14603849999989,
                    "velocity": 0.41732283464566927,
                    "duration": 0.099674499999999
                },
                {
                    "name": "D5",
                    "midi": 74,
                    "time": 47.24571299999989,
                    "velocity": 0.4094488188976378,
                    "duration": 0.099674499999999
                },
                {
                    "name": "C#5",
                    "midi": 73,
                    "time": 47.34538749999989,
                    "velocity": 0.4251968503937008,
                    "duration": 0.099674499999999
                },
                {
                    "name": "B4",
                    "midi": 71,
                    "time": 47.445061999999886,
                    "velocity": 0.44881889763779526,
                    "duration": 0.099674499999999
                },
                {
                    "name": "A4",
                    "midi": 69,
                    "time": 47.544736499999885,
                    "velocity": 0.47244094488188976,
                    "duration": 0.099674499999999
                },
                {
                    "name": "G#4",
                    "midi": 68,
                    "time": 47.644410999999884,
                    "velocity": 0.5039370078740157,
                    "duration": 0.099674499999999
                },
                {
                    "name": "F#4",
                    "midi": 66,
                    "time": 47.74408549999988,
                    "velocity": 0.5275590551181102,
                    "duration": 0.099674499999999
                },
                {
                    "name": "E4",
                    "midi": 64,
                    "time": 47.84375999999988,
                    "velocity": 0.5511811023622047,
                    "duration": 0.07475587500000103
                },
                {
                    "name": "G#4",
                    "midi": 68,
                    "time": 48.04310899999988,
                    "velocity": 0.4094488188976378,
                    "duration": 0.07475587500000103
                },
                {
                    "name": "E5",
                    "midi": 76,
                    "time": 48.04310899999988,
                    "velocity": 0.4881889763779528,
                    "duration": 0.07475587500000103
                },
                {
                    "name": "B4",
                    "midi": 71,
                    "time": 48.04310899999988,
                    "velocity": 0.4094488188976378,
                    "duration": 0.07475587500000103
                },
                {
                    "name": "B4",
                    "midi": 71,
                    "time": 48.24245799999988,
                    "velocity": 0.4094488188976378,
                    "duration": 0.07475587500000103
                },
                {
                    "name": "G#4",
                    "midi": 68,
                    "time": 48.24245799999988,
                    "velocity": 0.4094488188976378,
                    "duration": 0.07475587500000103
                },
                {
                    "name": "E5",
                    "midi": 76,
                    "time": 48.24245799999988,
                    "velocity": 0.4881889763779528,
                    "duration": 0.07475587500000103
                },
                {
                    "name": "B4",
                    "midi": 71,
                    "time": 48.441806999999876,
                    "velocity": 0.4409448818897638,
                    "duration": 0.07475587500000103
                },
                {
                    "name": "E5",
                    "midi": 76,
                    "time": 48.441806999999876,
                    "velocity": 0.5275590551181102,
                    "duration": 0.07475587500000103
                },
                {
                    "name": "G#4",
                    "midi": 68,
                    "time": 48.441806999999876,
                    "velocity": 0.4409448818897638,
                    "duration": 0.07475587500000103
                },
                {
                    "name": "C#5",
                    "midi": 73,
                    "time": 49.03985399999988,
                    "velocity": 0.3937007874015748,
                    "duration": 0.5980470000000011
                },
                {
                    "name": "E4",
                    "midi": 64,
                    "time": 49.03985399999988,
                    "velocity": 0.33070866141732286,
                    "duration": 0.5980470000000011
                },
                {
                    "name": "D4",
                    "midi": 62,
                    "time": 49.63790099999988,
                    "velocity": 0.30708661417322836,
                    "duration": 0.598046999999994
                },
                {
                    "name": "B4",
                    "midi": 71,
                    "time": 49.63790099999988,
                    "velocity": 0.3700787401574803,
                    "duration": 0.199348999999998
                },
                {
                    "name": "C#5",
                    "midi": 73,
                    "time": 49.83724999999988,
                    "velocity": 0.3464566929133858,
                    "duration": 0.199348999999998
                },
                {
                    "name": "B4",
                    "midi": 71,
                    "time": 50.036598999999875,
                    "velocity": 0.3464566929133858,
                    "duration": 0.199348999999998
                },
                {
                    "name": "C#4",
                    "midi": 61,
                    "time": 50.23594799999987,
                    "velocity": 0.33070866141732286,
                    "duration": 1.5947919999999982
                },
                {
                    "name": "A4",
                    "midi": 69,
                    "time": 50.23594799999987,
                    "velocity": 0.3937007874015748,
                    "duration": 1.5947919999999982
                },
                {
                    "name": "C#5",
                    "midi": 73,
                    "time": 51.83073999999987,
                    "velocity": 0.3937007874015748,
                    "duration": 0.199348999999998
                },
                {
                    "name": "A4",
                    "midi": 69,
                    "time": 52.03008899999987,
                    "velocity": 0.33070866141732286,
                    "duration": 0.5980470000000011
                },
                {
                    "name": "D5",
                    "midi": 74,
                    "time": 52.03008899999987,
                    "velocity": 0.3937007874015748,
                    "duration": 0.3986980000000031
                },
                {
                    "name": "F#5",
                    "midi": 78,
                    "time": 52.42878699999987,
                    "velocity": 0.4251968503937008,
                    "duration": 0.199348999999998
                },
                {
                    "name": "G#4",
                    "midi": 68,
                    "time": 52.62813599999987,
                    "velocity": 0.3543307086614173,
                    "duration": 0.199348999999998
                },
                {
                    "name": "E5",
                    "midi": 76,
                    "time": 52.62813599999987,
                    "velocity": 0.41732283464566927,
                    "duration": 0.398697999999996
                },
                {
                    "name": "A4",
                    "midi": 69,
                    "time": 52.82748499999987,
                    "velocity": 0.3937007874015748,
                    "duration": 0.199348999999998
                },
                {
                    "name": "B4",
                    "midi": 71,
                    "time": 53.026833999999866,
                    "velocity": 0.33070866141732286,
                    "duration": 0.199348999999998
                },
                {
                    "name": "D5",
                    "midi": 74,
                    "time": 53.026833999999866,
                    "velocity": 0.3937007874015748,
                    "duration": 0.199348999999998
                },
                {
                    "name": "A4",
                    "midi": 69,
                    "time": 53.226182999999864,
                    "velocity": 0.3543307086614173,
                    "duration": 0.3986980000000031
                },
                {
                    "name": "C#5",
                    "midi": 73,
                    "time": 53.226182999999864,
                    "velocity": 0.4251968503937008,
                    "duration": 0.3986980000000031
                },
                {
                    "name": "B4",
                    "midi": 71,
                    "time": 53.824229999999865,
                    "velocity": 0.3937007874015748,
                    "duration": 0.7973959999999991
                },
                {
                    "name": "C#5",
                    "midi": 73,
                    "time": 54.621625999999864,
                    "velocity": 0.3464566929133858,
                    "duration": 0.199348999999998
                },
                {
                    "name": "B4",
                    "midi": 71,
                    "time": 54.82097499999986,
                    "velocity": 0.3464566929133858,
                    "duration": 0.199348999999998
                },
                {
                    "name": "B4",
                    "midi": 71,
                    "time": 55.02032399999986,
                    "velocity": 0.3937007874015748,
                    "duration": 0.7973959999999991
                },
                {
                    "name": "C#5",
                    "midi": 73,
                    "time": 55.81771999999986,
                    "velocity": 0.3543307086614173,
                    "duration": 0.199348999999998
                },
                {
                    "name": "D5",
                    "midi": 74,
                    "time": 56.01706899999986,
                    "velocity": 0.36220472440944884,
                    "duration": 0.199348999999998
                },
                {
                    "name": "E5",
                    "midi": 76,
                    "time": 56.216417999999855,
                    "velocity": 0.4094488188976378,
                    "duration": 0.199348999999998
                },
                {
                    "name": "A5",
                    "midi": 81,
                    "time": 56.41576699999985,
                    "velocity": 0.3858267716535433,
                    "duration": 0.14951175000000205
                },
                {
                    "name": "G#5",
                    "midi": 80,
                    "time": 56.61511599999986,
                    "velocity": 0.3779527559055118,
                    "duration": 0.14951175000000205
                },
                {
                    "name": "F#5",
                    "midi": 78,
                    "time": 56.81446499999986,
                    "velocity": 0.3858267716535433,
                    "duration": 0.14951175000000205
                },
                {
                    "name": "E5",
                    "midi": 76,
                    "time": 57.01381399999987,
                    "velocity": 0.3779527559055118,
                    "duration": 0.14951175000000205
                },
                {
                    "name": "D5",
                    "midi": 74,
                    "time": 57.213162999999874,
                    "velocity": 0.36220472440944884,
                    "duration": 0.14951175000000205
                },
                {
                    "name": "C#5",
                    "midi": 73,
                    "time": 57.41251199999988,
                    "velocity": 0.3543307086614173,
                    "duration": 0.3986980000000031
                },
                {
                    "name": "D5",
                    "midi": 74,
                    "time": 57.81120999999988,
                    "velocity": 0.33070866141732286,
                    "duration": 0.099674499999999
                },
                {
                    "name": "C#5",
                    "midi": 73,
                    "time": 57.91088449999988,
                    "velocity": 0.33858267716535434,
                    "duration": 0.099674499999999
                },
                {
                    "name": "B4",
                    "midi": 71,
                    "time": 58.01055899999988,
                    "velocity": 0.29133858267716534,
                    "duration": 0.199348999999998
                },
                {
                    "name": "E4",
                    "midi": 64,
                    "time": 58.60860599999988,
                    "velocity": 0.33070866141732286,
                    "duration": 0.5980470000000011
                },
                {
                    "name": "C#5",
                    "midi": 73,
                    "time": 58.60860599999988,
                    "velocity": 0.3937007874015748,
                    "duration": 0.5980470000000011
                },
                {
                    "name": "B4",
                    "midi": 71,
                    "time": 59.20665299999988,
                    "velocity": 0.3700787401574803,
                    "duration": 0.199348999999998
                },
                {
                    "name": "D4",
                    "midi": 62,
                    "time": 59.20665299999988,
                    "velocity": 0.30708661417322836,
                    "duration": 0.598046999999994
                },
                {
                    "name": "C#5",
                    "midi": 73,
                    "time": 59.40600199999988,
                    "velocity": 0.3464566929133858,
                    "duration": 0.199348999999998
                },
                {
                    "name": "B4",
                    "midi": 71,
                    "time": 59.60535099999988,
                    "velocity": 0.3464566929133858,
                    "duration": 0.199348999999998
                },
                {
                    "name": "A4",
                    "midi": 69,
                    "time": 59.804699999999876,
                    "velocity": 0.3937007874015748,
                    "duration": 1.5947920000000053
                },
                {
                    "name": "C#4",
                    "midi": 61,
                    "time": 59.804699999999876,
                    "velocity": 0.33070866141732286,
                    "duration": 0.5980470000000011
                },
                {
                    "name": "G4",
                    "midi": 67,
                    "time": 60.40274699999988,
                    "velocity": 0.33070866141732286,
                    "duration": 0.5980470000000011
                },
                {
                    "name": "C#4",
                    "midi": 61,
                    "time": 60.40274699999988,
                    "velocity": 0.33070866141732286,
                    "duration": 0.5980470000000011
                },
                {
                    "name": "F#4",
                    "midi": 66,
                    "time": 61.00079399999988,
                    "velocity": 0.33070866141732286,
                    "duration": 0.3986980000000031
                },
                {
                    "name": "D4",
                    "midi": 62,
                    "time": 61.00079399999988,
                    "velocity": 0.33070866141732286,
                    "duration": 0.3986980000000031
                },
                {
                    "name": "E4",
                    "midi": 64,
                    "time": 61.39949199999988,
                    "velocity": 0.3937007874015748,
                    "duration": 0.199348999999998
                },
                {
                    "name": "A#4",
                    "midi": 70,
                    "time": 61.39949199999988,
                    "velocity": 0.3937007874015748,
                    "duration": 0.199348999999998
                },
                {
                    "name": "D4",
                    "midi": 62,
                    "time": 61.59884099999988,
                    "velocity": 0.33070866141732286,
                    "duration": 0.3986980000000031
                },
                {
                    "name": "F#4",
                    "midi": 66,
                    "time": 61.59884099999988,
                    "velocity": 0.33070866141732286,
                    "duration": 0.3986980000000031
                },
                {
                    "name": "B4",
                    "midi": 71,
                    "time": 61.59884099999988,
                    "velocity": 0.3937007874015748,
                    "duration": 0.3986980000000031
                },
                {
                    "name": "F#5",
                    "midi": 78,
                    "time": 61.99753899999988,
                    "velocity": 0.4251968503937008,
                    "duration": 0.199348999999998
                },
                {
                    "name": "C#5",
                    "midi": 73,
                    "time": 61.99753899999988,
                    "velocity": 0.4251968503937008,
                    "duration": 0.199348999999998
                },
                {
                    "name": "E5",
                    "midi": 76,
                    "time": 62.19688799999988,
                    "velocity": 0.41732283464566927,
                    "duration": 0.3986980000000031
                },
                {
                    "name": "B4",
                    "midi": 71,
                    "time": 62.19688799999988,
                    "velocity": 0.3543307086614173,
                    "duration": 0.3986980000000031
                },
                {
                    "name": "D5",
                    "midi": 74,
                    "time": 62.595585999999884,
                    "velocity": 0.3937007874015748,
                    "duration": 0.199348999999998
                },
                {
                    "name": "G#4",
                    "midi": 68,
                    "time": 62.595585999999884,
                    "velocity": 0.33070866141732286,
                    "duration": 0.199348999999998
                },
                {
                    "name": "C#5",
                    "midi": 73,
                    "time": 62.79493499999988,
                    "velocity": 0.4251968503937008,
                    "duration": 0.3986980000000031
                },
                {
                    "name": "A4",
                    "midi": 69,
                    "time": 62.79493499999988,
                    "velocity": 0.3543307086614173,
                    "duration": 0.3986980000000031
                },
                {
                    "name": "B4",
                    "midi": 71,
                    "time": 63.39298199999988,
                    "velocity": 0.3937007874015748,
                    "duration": 0.199348999999998
                },
                {
                    "name": "B5",
                    "midi": 83,
                    "time": 63.59233099999988,
                    "velocity": 0.4330708661417323,
                    "duration": 0.099674499999999
                },
                {
                    "name": "B5",
                    "midi": 83,
                    "time": 63.79167999999988,
                    "velocity": 0.4330708661417323,
                    "duration": 0.099674499999999
                },
                {
                    "name": "B5",
                    "midi": 83,
                    "time": 63.99102899999988,
                    "velocity": 0.4645669291338583,
                    "duration": 0.099674499999999
                },
                {
                    "name": "B5",
                    "midi": 83,
                    "time": 64.19037799999988,
                    "velocity": 0.41732283464566927,
                    "duration": 0.0996745000000061
                },
                {
                    "name": "B5",
                    "midi": 83,
                    "time": 64.3897269999999,
                    "velocity": 0.41732283464566927,
                    "duration": 0.0996745000000061
                },
                {
                    "name": "B5",
                    "midi": 83,
                    "time": 64.5890759999999,
                    "velocity": 0.47244094488188976,
                    "duration": 0.199348999999998
                },
                {
                    "name": "E5",
                    "midi": 76,
                    "time": 64.7884249999999,
                    "velocity": 0.41732283464566927,
                    "duration": 0.0996745000000061
                },
                {
                    "name": "E6",
                    "midi": 88,
                    "time": 64.98777399999992,
                    "velocity": 0.41732283464566927,
                    "duration": 0.0996745000000061
                },
                {
                    "name": "E6",
                    "midi": 88,
                    "time": 65.18712299999993,
                    "velocity": 0.4881889763779528,
                    "duration": 0.0996745000000061
                },
                {
                    "name": "A5",
                    "midi": 81,
                    "time": 65.38647199999994,
                    "velocity": 0.4409448818897638,
                    "duration": 0.0996745000000061
                },
                {
                    "name": "A5",
                    "midi": 81,
                    "time": 65.58582099999995,
                    "velocity": 0.4409448818897638,
                    "duration": 0.0996745000000061
                },
                {
                    "name": "A5",
                    "midi": 81,
                    "time": 65.78516999999997,
                    "velocity": 0.44881889763779526,
                    "duration": 0.0996745000000061
                },
                {
                    "name": "D5",
                    "midi": 74,
                    "time": 65.98451899999998,
                    "velocity": 0.3543307086614173,
                    "duration": 0.0996745000000061
                },
                {
                    "name": "F#5",
                    "midi": 78,
                    "time": 65.98451899999998,
                    "velocity": 0.41732283464566927,
                    "duration": 0.0996745000000061
                },
                {
                    "name": "E5",
                    "midi": 76,
                    "time": 66.18386799999999,
                    "velocity": 0.4251968503937008,
                    "duration": 0.0996745000000061
                },
                {
                    "name": "C#5",
                    "midi": 73,
                    "time": 66.18386799999999,
                    "velocity": 0.3543307086614173,
                    "duration": 0.0996745000000061
                },
                {
                    "name": "B4",
                    "midi": 71,
                    "time": 66.383217,
                    "velocity": 0.3700787401574803,
                    "duration": 0.0996745000000061
                },
                {
                    "name": "D5",
                    "midi": 74,
                    "time": 66.383217,
                    "velocity": 0.4409448818897638,
                    "duration": 0.0996745000000061
                },
                {
                    "name": "A4",
                    "midi": 69,
                    "time": 66.58256600000001,
                    "velocity": 0.3858267716535433,
                    "duration": 0.0996745000000061
                },
                {
                    "name": "C#5",
                    "midi": 73,
                    "time": 66.58256600000001,
                    "velocity": 0.4566929133858268,
                    "duration": 0.0996745000000061
                },
                {
                    "name": "B4",
                    "midi": 71,
                    "time": 66.78191500000003,
                    "velocity": 0.4645669291338583,
                    "duration": 0.0996745000000061
                },
                {
                    "name": "G#4",
                    "midi": 68,
                    "time": 66.78191500000003,
                    "velocity": 0.3937007874015748,
                    "duration": 0.0996745000000061
                },
                {
                    "name": "A4",
                    "midi": 69,
                    "time": 66.98126400000004,
                    "velocity": 0.5118110236220472,
                    "duration": 0.598046999999994
                },
                {
                    "name": "C#6",
                    "midi": 85,
                    "time": 67.57931100000003,
                    "velocity": 0.5118110236220472,
                    "duration": 0.598046999999994
                },
                {
                    "name": "D6",
                    "midi": 86,
                    "time": 68.17735800000003,
                    "velocity": 0.5275590551181102,
                    "duration": 0.0996745000000061
                },
                {
                    "name": "C#6",
                    "midi": 85,
                    "time": 68.27703250000003,
                    "velocity": 0.5118110236220472,
                    "duration": 0.0996745000000061
                },
                {
                    "name": "B5",
                    "midi": 83,
                    "time": 68.37670700000004,
                    "velocity": 0.5039370078740157,
                    "duration": 0.0996745000000061
                },
                {
                    "name": "A5",
                    "midi": 81,
                    "time": 68.47638150000004,
                    "velocity": 0.49606299212598426,
                    "duration": 0.0996745000000061
                },
                {
                    "name": "G#5",
                    "midi": 80,
                    "time": 68.57605600000005,
                    "velocity": 0.48031496062992124,
                    "duration": 0.0996745000000061
                },
                {
                    "name": "B5",
                    "midi": 83,
                    "time": 68.77540500000006,
                    "velocity": 0.5118110236220472,
                    "duration": 0.0996745000000061
                },
                {
                    "name": "A5",
                    "midi": 81,
                    "time": 68.87507950000007,
                    "velocity": 0.5039370078740157,
                    "duration": 0.0996745000000061
                },
                {
                    "name": "G#5",
                    "midi": 80,
                    "time": 68.97475400000008,
                    "velocity": 0.4881889763779528,
                    "duration": 0.0996745000000061
                },
                {
                    "name": "F#5",
                    "midi": 78,
                    "time": 69.07442850000008,
                    "velocity": 0.48031496062992124,
                    "duration": 0.0996745000000061
                },
                {
                    "name": "E5",
                    "midi": 76,
                    "time": 69.17410300000009,
                    "velocity": 0.47244094488188976,
                    "duration": 0.0996745000000061
                },
                {
                    "name": "D5",
                    "midi": 74,
                    "time": 69.2737775000001,
                    "velocity": 0.4566929133858268,
                    "duration": 0.0996745000000061
                },
                {
                    "name": "C#5",
                    "midi": 73,
                    "time": 69.3734520000001,
                    "velocity": 0.48031496062992124,
                    "duration": 0.0996745000000061
                },
                {
                    "name": "E5",
                    "midi": 76,
                    "time": 69.57280100000011,
                    "velocity": 0.3858267716535433,
                    "duration": 0.0996745000000061
                },
                {
                    "name": "A5",
                    "midi": 81,
                    "time": 69.77215000000012,
                    "velocity": 0.4094488188976378,
                    "duration": 0.0996745000000061
                },
                {
                    "name": "C#6",
                    "midi": 85,
                    "time": 69.97149900000014,
                    "velocity": 0.4330708661417323,
                    "duration": 0.0996745000000061
                },
                {
                    "name": "E6",
                    "midi": 88,
                    "time": 70.17084800000015,
                    "velocity": 0.4566929133858268,
                    "duration": 0.0996745000000061
                },
                {
                    "name": "D6",
                    "midi": 86,
                    "time": 70.56954600000016,
                    "velocity": 0.5275590551181102,
                    "duration": 0.0996745000000061
                },
                {
                    "name": "C#6",
                    "midi": 85,
                    "time": 70.66922050000016,
                    "velocity": 0.5118110236220472,
                    "duration": 0.0996745000000061
                },
                {
                    "name": "B5",
                    "midi": 83,
                    "time": 70.76889500000017,
                    "velocity": 0.5039370078740157,
                    "duration": 0.0996745000000061
                },
                {
                    "name": "A5",
                    "midi": 81,
                    "time": 70.86856950000018,
                    "velocity": 0.49606299212598426,
                    "duration": 0.0996745000000061
                },
                {
                    "name": "G#5",
                    "midi": 80,
                    "time": 70.96824400000018,
                    "velocity": 0.48031496062992124,
                    "duration": 0.0996745000000061
                },
                {
                    "name": "B5",
                    "midi": 83,
                    "time": 71.1675930000002,
                    "velocity": 0.5118110236220472,
                    "duration": 0.0996745000000061
                },
                {
                    "name": "A5",
                    "midi": 81,
                    "time": 71.2672675000002,
                    "velocity": 0.5039370078740157,
                    "duration": 0.0996745000000061
                },
                {
                    "name": "G#5",
                    "midi": 80,
                    "time": 71.36694200000021,
                    "velocity": 0.4881889763779528,
                    "duration": 0.0996745000000061
                },
                {
                    "name": "F#5",
                    "midi": 78,
                    "time": 71.46661650000021,
                    "velocity": 0.48031496062992124,
                    "duration": 0.0996745000000061
                },
                {
                    "name": "E5",
                    "midi": 76,
                    "time": 71.56629100000022,
                    "velocity": 0.47244094488188976,
                    "duration": 0.0996745000000061
                },
                {
                    "name": "D5",
                    "midi": 74,
                    "time": 71.66596550000023,
                    "velocity": 0.4566929133858268,
                    "duration": 0.0996745000000061
                },
                {
                    "name": "C#5",
                    "midi": 73,
                    "time": 71.76564000000023,
                    "velocity": 0.48031496062992124,
                    "duration": 0.0996745000000061
                },
                {
                    "name": "E5",
                    "midi": 76,
                    "time": 71.96498900000024,
                    "velocity": 0.3858267716535433,
                    "duration": 0.0996745000000061
                },
                {
                    "name": "A5",
                    "midi": 81,
                    "time": 72.16433800000026,
                    "velocity": 0.4094488188976378,
                    "duration": 0.0996745000000061
                },
                {
                    "name": "C#6",
                    "midi": 85,
                    "time": 72.36368700000027,
                    "velocity": 0.4330708661417323,
                    "duration": 0.0996745000000061
                },
                {
                    "name": "E6",
                    "midi": 88,
                    "time": 72.56303600000028,
                    "velocity": 0.4566929133858268,
                    "duration": 0.0996745000000061
                },
                {
                    "name": "F5",
                    "midi": 77,
                    "time": 73.16108300000029,
                    "velocity": 0.3543307086614173,
                    "duration": 0.199348999999998
                },
                {
                    "name": "F#5",
                    "midi": 78,
                    "time": 73.36043200000029,
                    "velocity": 0.3543307086614173,
                    "duration": 0.199348999999998
                },
                {
                    "name": "A5",
                    "midi": 81,
                    "time": 73.75913000000028,
                    "velocity": 0.3543307086614173,
                    "duration": 0.199348999999998
                },
                {
                    "name": "F#5",
                    "midi": 78,
                    "time": 73.95847900000028,
                    "velocity": 0.3543307086614173,
                    "duration": 0.199348999999998
                },
                {
                    "name": "D#5",
                    "midi": 75,
                    "time": 74.35717700000028,
                    "velocity": 0.3543307086614173,
                    "duration": 0.199348999999998
                },
                {
                    "name": "E5",
                    "midi": 76,
                    "time": 74.55652600000028,
                    "velocity": 0.3543307086614173,
                    "duration": 0.199348999999998
                },
                {
                    "name": "F#5",
                    "midi": 78,
                    "time": 74.95522400000027,
                    "velocity": 0.3543307086614173,
                    "duration": 0.199348999999998
                },
                {
                    "name": "D5",
                    "midi": 74,
                    "time": 75.15457300000027,
                    "velocity": 0.3543307086614173,
                    "duration": 0.199348999999998
                },
                {
                    "name": "C5",
                    "midi": 72,
                    "time": 75.55327100000027,
                    "velocity": 0.3543307086614173,
                    "duration": 0.199348999999998
                },
                {
                    "name": "C#5",
                    "midi": 73,
                    "time": 75.75262000000026,
                    "velocity": 0.3543307086614173,
                    "duration": 0.199348999999998
                },
                {
                    "name": "D5",
                    "midi": 74,
                    "time": 76.15131800000026,
                    "velocity": 0.3543307086614173,
                    "duration": 0.199348999999998
                },
                {
                    "name": "B4",
                    "midi": 71,
                    "time": 76.35066700000026,
                    "velocity": 0.3543307086614173,
                    "duration": 0.199348999999998
                },
                {
                    "name": "A4",
                    "midi": 69,
                    "time": 76.55001600000026,
                    "velocity": 0.5118110236220472,
                    "duration": 0.598046999999994
                },
                {
                    "name": "C#6",
                    "midi": 85,
                    "time": 77.14806300000025,
                    "velocity": 0.5118110236220472,
                    "duration": 0.598046999999994
                },
                {
                    "name": "D6",
                    "midi": 86,
                    "time": 77.74611000000024,
                    "velocity": 0.5275590551181102,
                    "duration": 0.0996745000000061
                },
                {
                    "name": "C#6",
                    "midi": 85,
                    "time": 77.84578450000025,
                    "velocity": 0.5118110236220472,
                    "duration": 0.0996745000000061
                },
                {
                    "name": "B5",
                    "midi": 83,
                    "time": 77.94545900000026,
                    "velocity": 0.5039370078740157,
                    "duration": 0.0996745000000061
                },
                {
                    "name": "A5",
                    "midi": 81,
                    "time": 78.04513350000026,
                    "velocity": 0.49606299212598426,
                    "duration": 0.0996745000000061
                },
                {
                    "name": "G#5",
                    "midi": 80,
                    "time": 78.14480800000027,
                    "velocity": 0.48031496062992124,
                    "duration": 0.0996745000000061
                },
                {
                    "name": "B5",
                    "midi": 83,
                    "time": 78.34415700000028,
                    "velocity": 0.5118110236220472,
                    "duration": 0.0996745000000061
                },
                {
                    "name": "A5",
                    "midi": 81,
                    "time": 78.44383150000029,
                    "velocity": 0.5039370078740157,
                    "duration": 0.0996745000000061
                },
                {
                    "name": "G#5",
                    "midi": 80,
                    "time": 78.54350600000029,
                    "velocity": 0.4881889763779528,
                    "duration": 0.0996745000000061
                },
                {
                    "name": "F#5",
                    "midi": 78,
                    "time": 78.6431805000003,
                    "velocity": 0.48031496062992124,
                    "duration": 0.0996745000000061
                },
                {
                    "name": "E5",
                    "midi": 76,
                    "time": 78.7428550000003,
                    "velocity": 0.47244094488188976,
                    "duration": 0.0996745000000061
                },
                {
                    "name": "D5",
                    "midi": 74,
                    "time": 78.84252950000031,
                    "velocity": 0.4566929133858268,
                    "duration": 0.0996745000000061
                },
                {
                    "name": "C#5",
                    "midi": 73,
                    "time": 78.94220400000032,
                    "velocity": 0.48031496062992124,
                    "duration": 0.0996745000000061
                },
                {
                    "name": "E5",
                    "midi": 76,
                    "time": 79.14155300000033,
                    "velocity": 0.3858267716535433,
                    "duration": 0.0996745000000061
                },
                {
                    "name": "A5",
                    "midi": 81,
                    "time": 79.34090200000034,
                    "velocity": 0.4094488188976378,
                    "duration": 0.0996745000000061
                },
                {
                    "name": "C#6",
                    "midi": 85,
                    "time": 79.54025100000035,
                    "velocity": 0.4330708661417323,
                    "duration": 0.0996745000000061
                },
                {
                    "name": "E6",
                    "midi": 88,
                    "time": 79.73960000000037,
                    "velocity": 0.4566929133858268,
                    "duration": 0.0996745000000061
                },
                {
                    "name": "D6",
                    "midi": 86,
                    "time": 80.13829800000038,
                    "velocity": 0.5275590551181102,
                    "duration": 0.0996745000000061
                },
                {
                    "name": "C#6",
                    "midi": 85,
                    "time": 80.23797250000038,
                    "velocity": 0.5118110236220472,
                    "duration": 0.0996745000000061
                },
                {
                    "name": "B5",
                    "midi": 83,
                    "time": 80.33764700000039,
                    "velocity": 0.5039370078740157,
                    "duration": 0.0996745000000061
                },
                {
                    "name": "A5",
                    "midi": 81,
                    "time": 80.4373215000004,
                    "velocity": 0.49606299212598426,
                    "duration": 0.0996745000000061
                },
                {
                    "name": "G#5",
                    "midi": 80,
                    "time": 80.5369960000004,
                    "velocity": 0.48031496062992124,
                    "duration": 0.0996745000000061
                },
                {
                    "name": "B5",
                    "midi": 83,
                    "time": 80.73634500000041,
                    "velocity": 0.5118110236220472,
                    "duration": 0.0996745000000061
                },
                {
                    "name": "A5",
                    "midi": 81,
                    "time": 80.83601950000042,
                    "velocity": 0.5039370078740157,
                    "duration": 0.0996745000000061
                },
                {
                    "name": "G#5",
                    "midi": 80,
                    "time": 80.93569400000042,
                    "velocity": 0.4881889763779528,
                    "duration": 0.0996745000000061
                },
                {
                    "name": "F#5",
                    "midi": 78,
                    "time": 81.03536850000043,
                    "velocity": 0.48031496062992124,
                    "duration": 0.0996745000000061
                },
                {
                    "name": "E5",
                    "midi": 76,
                    "time": 81.13504300000044,
                    "velocity": 0.47244094488188976,
                    "duration": 0.0996745000000061
                },
                {
                    "name": "D5",
                    "midi": 74,
                    "time": 81.23471750000044,
                    "velocity": 0.4566929133858268,
                    "duration": 0.0996745000000061
                },
                {
                    "name": "C#5",
                    "midi": 73,
                    "time": 81.33439200000045,
                    "velocity": 0.48031496062992124,
                    "duration": 0.0996745000000061
                },
                {
                    "name": "E5",
                    "midi": 76,
                    "time": 81.53374100000046,
                    "velocity": 0.3858267716535433,
                    "duration": 0.0996745000000061
                },
                {
                    "name": "A5",
                    "midi": 81,
                    "time": 81.73309000000047,
                    "velocity": 0.4094488188976378,
                    "duration": 0.0996745000000061
                },
                {
                    "name": "C#6",
                    "midi": 85,
                    "time": 81.93243900000049,
                    "velocity": 0.4330708661417323,
                    "duration": 0.0996745000000061
                },
                {
                    "name": "E6",
                    "midi": 88,
                    "time": 82.1317880000005,
                    "velocity": 0.4566929133858268,
                    "duration": 0.0996745000000061
                },
                {
                    "name": "F5",
                    "midi": 77,
                    "time": 82.7298350000005,
                    "velocity": 0.3543307086614173,
                    "duration": 0.199348999999998
                },
                {
                    "name": "F#5",
                    "midi": 78,
                    "time": 82.9291840000005,
                    "velocity": 0.33858267716535434,
                    "duration": 0.199348999999998
                },
                {
                    "name": "A5",
                    "midi": 81,
                    "time": 83.3278820000005,
                    "velocity": 0.3543307086614173,
                    "duration": 0.199348999999998
                },
                {
                    "name": "F#5",
                    "midi": 78,
                    "time": 83.5272310000005,
                    "velocity": 0.3228346456692913,
                    "duration": 0.199348999999998
                },
                {
                    "name": "D#5",
                    "midi": 75,
                    "time": 83.9259290000005,
                    "velocity": 0.3543307086614173,
                    "duration": 0.199348999999998
                },
                {
                    "name": "E5",
                    "midi": 76,
                    "time": 84.12527800000049,
                    "velocity": 0.3464566929133858,
                    "duration": 0.199348999999998
                },
                {
                    "name": "F#5",
                    "midi": 78,
                    "time": 84.52397600000049,
                    "velocity": 0.3543307086614173,
                    "duration": 0.199348999999998
                },
                {
                    "name": "D5",
                    "midi": 74,
                    "time": 84.72332500000049,
                    "velocity": 0.33858267716535434,
                    "duration": 0.199348999999998
                },
                {
                    "name": "C5",
                    "midi": 72,
                    "time": 85.12202300000048,
                    "velocity": 0.3543307086614173,
                    "duration": 0.199348999999998
                },
                {
                    "name": "C#5",
                    "midi": 73,
                    "time": 85.32137200000048,
                    "velocity": 0.33858267716535434,
                    "duration": 0.199348999999998
                },
                {
                    "name": "D5",
                    "midi": 74,
                    "time": 85.72007000000048,
                    "velocity": 0.3543307086614173,
                    "duration": 0.199348999999998
                },
                {
                    "name": "B4",
                    "midi": 71,
                    "time": 85.91941900000047,
                    "velocity": 0.33858267716535434,
                    "duration": 0.199348999999998
                },
                {
                    "name": "F5",
                    "midi": 77,
                    "time": 86.31811700000047,
                    "velocity": 0.5433070866141733,
                    "duration": 0.0996745000000061
                },
                {
                    "name": "F4",
                    "midi": 65,
                    "time": 86.31811700000047,
                    "velocity": 0.4566929133858268,
                    "duration": 0.0996745000000061
                },
                {
                    "name": "F#4",
                    "midi": 66,
                    "time": 86.51746600000048,
                    "velocity": 0.4409448818897638,
                    "duration": 0.0996745000000061
                },
                {
                    "name": "F#5",
                    "midi": 78,
                    "time": 86.51746600000048,
                    "velocity": 0.5275590551181102,
                    "duration": 0.0996745000000061
                },
                {
                    "name": "A5",
                    "midi": 81,
                    "time": 86.91616400000049,
                    "velocity": 0.5433070866141733,
                    "duration": 0.0996745000000061
                },
                {
                    "name": "A4",
                    "midi": 69,
                    "time": 86.91616400000049,
                    "velocity": 0.4566929133858268,
                    "duration": 0.0996745000000061
                },
                {
                    "name": "F#4",
                    "midi": 66,
                    "time": 87.1155130000005,
                    "velocity": 0.4409448818897638,
                    "duration": 0.0996745000000061
                },
                {
                    "name": "F#5",
                    "midi": 78,
                    "time": 87.1155130000005,
                    "velocity": 0.5275590551181102,
                    "duration": 0.0996745000000061
                },
                {
                    "name": "D#5",
                    "midi": 75,
                    "time": 87.51421100000051,
                    "velocity": 0.5433070866141733,
                    "duration": 0.0996745000000061
                },
                {
                    "name": "D#4",
                    "midi": 63,
                    "time": 87.51421100000051,
                    "velocity": 0.4566929133858268,
                    "duration": 0.0996745000000061
                },
                {
                    "name": "E4",
                    "midi": 64,
                    "time": 87.71356000000053,
                    "velocity": 0.4409448818897638,
                    "duration": 0.0996745000000061
                },
                {
                    "name": "E5",
                    "midi": 76,
                    "time": 87.71356000000053,
                    "velocity": 0.5275590551181102,
                    "duration": 0.0996745000000061
                },
                {
                    "name": "F#4",
                    "midi": 66,
                    "time": 88.11225800000054,
                    "velocity": 0.4566929133858268,
                    "duration": 0.0996745000000061
                },
                {
                    "name": "F#5",
                    "midi": 78,
                    "time": 88.11225800000054,
                    "velocity": 0.5433070866141733,
                    "duration": 0.0996745000000061
                },
                {
                    "name": "D4",
                    "midi": 62,
                    "time": 88.31160700000055,
                    "velocity": 0.4409448818897638,
                    "duration": 0.0996745000000061
                },
                {
                    "name": "D5",
                    "midi": 74,
                    "time": 88.31160700000055,
                    "velocity": 0.5275590551181102,
                    "duration": 0.0996745000000061
                },
                {
                    "name": "C5",
                    "midi": 72,
                    "time": 88.71030500000056,
                    "velocity": 0.5433070866141733,
                    "duration": 0.0996745000000061
                },
                {
                    "name": "C4",
                    "midi": 60,
                    "time": 88.71030500000056,
                    "velocity": 0.4566929133858268,
                    "duration": 0.0996745000000061
                },
                {
                    "name": "C#5",
                    "midi": 73,
                    "time": 88.90965400000057,
                    "velocity": 0.5275590551181102,
                    "duration": 0.0996745000000061
                },
                {
                    "name": "C#4",
                    "midi": 61,
                    "time": 88.90965400000057,
                    "velocity": 0.4409448818897638,
                    "duration": 0.0996745000000061
                },
                {
                    "name": "D4",
                    "midi": 62,
                    "time": 89.30835200000058,
                    "velocity": 0.4566929133858268,
                    "duration": 0.0996745000000061
                },
                {
                    "name": "D5",
                    "midi": 74,
                    "time": 89.30835200000058,
                    "velocity": 0.5433070866141733,
                    "duration": 0.0996745000000061
                },
                {
                    "name": "B4",
                    "midi": 71,
                    "time": 89.5077010000006,
                    "velocity": 0.5275590551181102,
                    "duration": 0.0996745000000061
                },
                {
                    "name": "B3",
                    "midi": 59,
                    "time": 89.5077010000006,
                    "velocity": 0.4409448818897638,
                    "duration": 0.0996745000000061
                },
                {
                    "name": "A4",
                    "midi": 69,
                    "time": 89.7070500000006,
                    "velocity": 0.5669291338582677,
                    "duration": 0.199348999999998
                },
                {
                    "name": "C#4",
                    "midi": 61,
                    "time": 89.7070500000006,
                    "velocity": 0.5669291338582677,
                    "duration": 0.199348999999998
                },
                {
                    "name": "C#5",
                    "midi": 73,
                    "time": 90.3050970000006,
                    "velocity": 0.4881889763779528,
                    "duration": 0.598046999999994
                },
                {
                    "name": "A5",
                    "midi": 81,
                    "time": 90.3050970000006,
                    "velocity": 0.5748031496062992,
                    "duration": 0.598046999999994
                },
                {
                    "name": "D5",
                    "midi": 74,
                    "time": 90.9031440000006,
                    "velocity": 0.49606299212598426,
                    "duration": 0.398697999999996
                },
                {
                    "name": "B5",
                    "midi": 83,
                    "time": 90.9031440000006,
                    "velocity": 0.5905511811023622,
                    "duration": 0.398697999999996
                },
                {
                    "name": "F#5",
                    "midi": 78,
                    "time": 91.30184200000059,
                    "velocity": 0.47244094488188976,
                    "duration": 0.14951175000000205
                },
                {
                    "name": "D6",
                    "midi": 86,
                    "time": 91.30184200000059,
                    "velocity": 0.5590551181102362,
                    "duration": 0.14951175000000205
                },
                {
                    "name": "B4",
                    "midi": 71,
                    "time": 91.45135375000059,
                    "velocity": 0.5118110236220472,
                    "duration": 0.04983724999999595
                },
                {
                    "name": "A5",
                    "midi": 81,
                    "time": 91.50119100000059,
                    "velocity": 0.5984251968503937,
                    "duration": 0.398697999999996
                },
                {
                    "name": "G#5",
                    "midi": 80,
                    "time": 91.89988900000058,
                    "velocity": 0.5433070866141733,
                    "duration": 0.03322483333333537
                },
                {
                    "name": "A5",
                    "midi": 81,
                    "time": 91.93311383333392,
                    "velocity": 0.4881889763779528,
                    "duration": 0.03322483333333537
                },
                {
                    "name": "G#5",
                    "midi": 80,
                    "time": 91.96633866666726,
                    "velocity": 0.49606299212598426,
                    "duration": 0.03322483333333537
                },
                {
                    "name": "F#5",
                    "midi": 78,
                    "time": 91.99956350000059,
                    "velocity": 0.5511811023622047,
                    "duration": 0.04983724999999595
                },
                {
                    "name": "G#5",
                    "midi": 80,
                    "time": 92.04940075000059,
                    "velocity": 0.5039370078740157,
                    "duration": 0.04983724999999595
                },
                {
                    "name": "A5",
                    "midi": 81,
                    "time": 92.09923800000058,
                    "velocity": 0.5669291338582677,
                    "duration": 0.199348999999998
                },
                {
                    "name": "C#5",
                    "midi": 73,
                    "time": 92.69728500000058,
                    "velocity": 0.4881889763779528,
                    "duration": 0.0996745000000061
                },
                {
                    "name": "A5",
                    "midi": 81,
                    "time": 92.69728500000058,
                    "velocity": 0.5748031496062992,
                    "duration": 0.0996745000000061
                },
                {
                    "name": "C#5",
                    "midi": 73,
                    "time": 92.89663400000059,
                    "velocity": 0.4881889763779528,
                    "duration": 0.0996745000000061
                },
                {
                    "name": "A5",
                    "midi": 81,
                    "time": 92.89663400000059,
                    "velocity": 0.5748031496062992,
                    "duration": 0.0996745000000061
                },
                {
                    "name": "C#5",
                    "midi": 73,
                    "time": 93.0959830000006,
                    "velocity": 0.4881889763779528,
                    "duration": 0.0996745000000061
                },
                {
                    "name": "A5",
                    "midi": 81,
                    "time": 93.0959830000006,
                    "velocity": 0.5748031496062992,
                    "duration": 0.0996745000000061
                },
                {
                    "name": "D5",
                    "midi": 74,
                    "time": 93.29533200000061,
                    "velocity": 0.49606299212598426,
                    "duration": 0.398697999999996
                },
                {
                    "name": "B5",
                    "midi": 83,
                    "time": 93.29533200000061,
                    "velocity": 0.5905511811023622,
                    "duration": 0.398697999999996
                },
                {
                    "name": "F#5",
                    "midi": 78,
                    "time": 93.69403000000061,
                    "velocity": 0.47244094488188976,
                    "duration": 0.14951175000000205
                },
                {
                    "name": "D6",
                    "midi": 86,
                    "time": 93.69403000000061,
                    "velocity": 0.5590551181102362,
                    "duration": 0.14951175000000205
                },
                {
                    "name": "B4",
                    "midi": 71,
                    "time": 93.84354175000061,
                    "velocity": 0.5118110236220472,
                    "duration": 0.04983724999999595
                },
                {
                    "name": "A5",
                    "midi": 81,
                    "time": 93.8933790000006,
                    "velocity": 0.5984251968503937,
                    "duration": 0.398697999999996
                },
                {
                    "name": "G#5",
                    "midi": 80,
                    "time": 94.2920770000006,
                    "velocity": 0.5433070866141733,
                    "duration": 0.03322483333333537
                },
                {
                    "name": "A5",
                    "midi": 81,
                    "time": 94.32530183333394,
                    "velocity": 0.4881889763779528,
                    "duration": 0.03322483333333537
                },
                {
                    "name": "G#5",
                    "midi": 80,
                    "time": 94.35852666666727,
                    "velocity": 0.49606299212598426,
                    "duration": 0.03322483333333537
                },
                {
                    "name": "F#5",
                    "midi": 78,
                    "time": 94.39175150000061,
                    "velocity": 0.5511811023622047,
                    "duration": 0.04983724999999595
                },
                {
                    "name": "G#5",
                    "midi": 80,
                    "time": 94.4415887500006,
                    "velocity": 0.5039370078740157,
                    "duration": 0.04983724999999595
                },
                {
                    "name": "A5",
                    "midi": 81,
                    "time": 94.4914260000006,
                    "velocity": 0.5669291338582677,
                    "duration": 0.0996745000000061
                },
                {
                    "name": "C#5",
                    "midi": 73,
                    "time": 94.69077500000061,
                    "velocity": 0.3543307086614173,
                    "duration": 0.199348999999998
                },
                {
                    "name": "D5",
                    "midi": 74,
                    "time": 94.89012400000061,
                    "velocity": 0.30708661417322836,
                    "duration": 0.199348999999998
                },
                {
                    "name": "E5",
                    "midi": 76,
                    "time": 95.08947300000061,
                    "velocity": 0.3543307086614173,
                    "duration": 0.199348999999998
                },
                {
                    "name": "F#5",
                    "midi": 78,
                    "time": 95.28882200000061,
                    "velocity": 0.3228346456692913,
                    "duration": 0.199348999999998
                },
                {
                    "name": "G#5",
                    "midi": 80,
                    "time": 95.4881710000006,
                    "velocity": 0.33070866141732286,
                    "duration": 0.199348999999998
                },
                {
                    "name": "A5",
                    "midi": 81,
                    "time": 95.6875200000006,
                    "velocity": 0.3700787401574803,
                    "duration": 0.199348999999998
                },
                {
                    "name": "C#5",
                    "midi": 73,
                    "time": 95.8868690000006,
                    "velocity": 0.31496062992125984,
                    "duration": 0.199348999999998
                },
                {
                    "name": "D5",
                    "midi": 74,
                    "time": 96.0862180000006,
                    "velocity": 0.29133858267716534,
                    "duration": 0.199348999999998
                },
                {
                    "name": "E5",
                    "midi": 76,
                    "time": 96.2855670000006,
                    "velocity": 0.3543307086614173,
                    "duration": 0.199348999999998
                },
                {
                    "name": "F#5",
                    "midi": 78,
                    "time": 96.4849160000006,
                    "velocity": 0.33070866141732286,
                    "duration": 0.199348999999998
                },
                {
                    "name": "G#5",
                    "midi": 80,
                    "time": 96.6842650000006,
                    "velocity": 0.3464566929133858,
                    "duration": 0.199348999999998
                },
                {
                    "name": "A5",
                    "midi": 81,
                    "time": 96.88361400000059,
                    "velocity": 0.3543307086614173,
                    "duration": 0.199348999999998
                },
                {
                    "name": "B4",
                    "midi": 71,
                    "time": 97.8803590000006,
                    "velocity": 0.2992125984251969,
                    "duration": 0.199348999999998
                },
                {
                    "name": "E4",
                    "midi": 64,
                    "time": 97.8803590000006,
                    "velocity": 0.2992125984251969,
                    "duration": 0.199348999999998
                },
                {
                    "name": "D5",
                    "midi": 74,
                    "time": 97.8803590000006,
                    "velocity": 0.3543307086614173,
                    "duration": 0.199348999999998
                },
                {
                    "name": "C#5",
                    "midi": 73,
                    "time": 98.0797080000006,
                    "velocity": 0.3543307086614173,
                    "duration": 0.0996745000000061
                },
                {
                    "name": "E4",
                    "midi": 64,
                    "time": 98.0797080000006,
                    "velocity": 0.2992125984251969,
                    "duration": 0.0996745000000061
                },
                {
                    "name": "A4",
                    "midi": 69,
                    "time": 98.0797080000006,
                    "velocity": 0.2992125984251969,
                    "duration": 0.0996745000000061
                },
                {
                    "name": "D5",
                    "midi": 74,
                    "time": 99.0764530000006,
                    "velocity": 0.3543307086614173,
                    "duration": 0.0996745000000061
                },
                {
                    "name": "B4",
                    "midi": 71,
                    "time": 99.0764530000006,
                    "velocity": 0.2992125984251969,
                    "duration": 0.0996745000000061
                },
                {
                    "name": "E4",
                    "midi": 64,
                    "time": 99.0764530000006,
                    "velocity": 0.2992125984251969,
                    "duration": 0.0996745000000061
                },
                {
                    "name": "C5",
                    "midi": 72,
                    "time": 99.47515100000061,
                    "velocity": 0.33858267716535434,
                    "duration": 0.199348999999998
                },
                {
                    "name": "C#5",
                    "midi": 73,
                    "time": 99.6745000000006,
                    "velocity": 0.31496062992125984,
                    "duration": 0.199348999999998
                },
                {
                    "name": "C#5",
                    "midi": 73,
                    "time": 100.0731980000006,
                    "velocity": 0.36220472440944884,
                    "duration": 0.199348999999998
                },
                {
                    "name": "D5",
                    "midi": 74,
                    "time": 100.2725470000006,
                    "velocity": 0.3543307086614173,
                    "duration": 0.199348999999998
                },
                {
                    "name": "D#5",
                    "midi": 75,
                    "time": 100.6712450000006,
                    "velocity": 0.5118110236220472,
                    "duration": 0.199348999999998
                },
                {
                    "name": "E5",
                    "midi": 76,
                    "time": 100.8705940000006,
                    "velocity": 0.48031496062992124,
                    "duration": 0.199348999999998
                },
                {
                    "name": "F5",
                    "midi": 77,
                    "time": 101.26929200000059,
                    "velocity": 0.5826771653543307,
                    "duration": 0.199348999999998
                },
                {
                    "name": "F#5",
                    "midi": 78,
                    "time": 101.46864100000059,
                    "velocity": 0.5511811023622047,
                    "duration": 0.199348999999998
                },
                {
                    "name": "F#5",
                    "midi": 78,
                    "time": 101.86733900000058,
                    "velocity": 0.6062992125984252,
                    "duration": 0.199348999999998
                },
                {
                    "name": "G5",
                    "midi": 79,
                    "time": 102.06668800000058,
                    "velocity": 0.5905511811023622,
                    "duration": 0.199348999999998
                },
                {
                    "name": "A4",
                    "midi": 69,
                    "time": 103.36245650000058,
                    "velocity": 0.33070866141732286,
                    "duration": 0.0996745000000061
                },
                {
                    "name": "A5",
                    "midi": 81,
                    "time": 103.46213100000058,
                    "velocity": 0.3700787401574803,
                    "duration": 0.398697999999996
                },
                {
                    "name": "F#5",
                    "midi": 78,
                    "time": 103.86082900000058,
                    "velocity": 0.3464566929133858,
                    "duration": 0.14951175000000205
                },
                {
                    "name": "E5",
                    "midi": 76,
                    "time": 104.01034075000058,
                    "velocity": 0.3464566929133858,
                    "duration": 0.04983724999999595
                },
                {
                    "name": "D5",
                    "midi": 74,
                    "time": 104.06017800000058,
                    "velocity": 0.3858267716535433,
                    "duration": 0.07475587499999392
                },
                {
                    "name": "C#5",
                    "midi": 73,
                    "time": 104.25952700000057,
                    "velocity": 0.3464566929133858,
                    "duration": 0.07475587499999392
                },
                {
                    "name": "D5",
                    "midi": 74,
                    "time": 104.45887600000057,
                    "velocity": 0.3464566929133858,
                    "duration": 0.07475587499999392
                },
                {
                    "name": "E5",
                    "midi": 76,
                    "time": 104.60838775000056,
                    "velocity": 0.33858267716535434,
                    "duration": 0.04983724999999595
                },
                {
                    "name": "D5",
                    "midi": 74,
                    "time": 104.65822500000056,
                    "velocity": 0.3700787401574803,
                    "duration": 0.07475587499999392
                },
                {
                    "name": "C#5",
                    "midi": 73,
                    "time": 104.85757400000055,
                    "velocity": 0.33858267716535434,
                    "duration": 0.07475587499999392
                },
                {
                    "name": "D5",
                    "midi": 74,
                    "time": 105.05692300000055,
                    "velocity": 0.33070866141732286,
                    "duration": 0.07475587499999392
                },
                {
                    "name": "D5",
                    "midi": 74,
                    "time": 105.25627200000055,
                    "velocity": 0.3228346456692913,
                    "duration": 0.398697999999996
                },
                {
                    "name": "F#5",
                    "midi": 78,
                    "time": 105.25627200000055,
                    "velocity": 0.3858267716535433,
                    "duration": 0.398697999999996
                },
                {
                    "name": "C#5",
                    "midi": 73,
                    "time": 105.65497000000055,
                    "velocity": 0.2755905511811024,
                    "duration": 0.0996745000000061
                },
                {
                    "name": "E5",
                    "midi": 76,
                    "time": 105.65497000000055,
                    "velocity": 0.3228346456692913,
                    "duration": 0.0996745000000061
                },
                {
                    "name": "G4",
                    "midi": 67,
                    "time": 105.75464450000055,
                    "velocity": 0.33070866141732286,
                    "duration": 0.0996745000000061
                },
                {
                    "name": "G5",
                    "midi": 79,
                    "time": 105.85431900000056,
                    "velocity": 0.3700787401574803,
                    "duration": 0.398697999999996
                },
                {
                    "name": "E5",
                    "midi": 76,
                    "time": 106.25301700000055,
                    "velocity": 0.3464566929133858,
                    "duration": 0.14951175000000205
                },
                {
                    "name": "D5",
                    "midi": 74,
                    "time": 106.40252875000056,
                    "velocity": 0.3464566929133858,
                    "duration": 0.04983724999999595
                },
                {
                    "name": "C#5",
                    "midi": 73,
                    "time": 106.45236600000055,
                    "velocity": 0.3858267716535433,
                    "duration": 0.07475587499999392
                },
                {
                    "name": "B4",
                    "midi": 71,
                    "time": 106.65171500000055,
                    "velocity": 0.3464566929133858,
                    "duration": 0.07475587499999392
                },
                {
                    "name": "C#5",
                    "midi": 73,
                    "time": 106.85106400000055,
                    "velocity": 0.3464566929133858,
                    "duration": 0.07475587499999392
                },
                {
                    "name": "A4",
                    "midi": 69,
                    "time": 107.05041300000055,
                    "velocity": 0.3700787401574803,
                    "duration": 0.07475587499999392
                },
                {
                    "name": "E5",
                    "midi": 76,
                    "time": 107.24976200000054,
                    "velocity": 0.33858267716535434,
                    "duration": 0.07475587499999392
                },
                {
                    "name": "A5",
                    "midi": 81,
                    "time": 107.44911100000054,
                    "velocity": 0.33070866141732286,
                    "duration": 0.07475587499999392
                },
                {
                    "name": "E5",
                    "midi": 76,
                    "time": 107.64846000000054,
                    "velocity": 0.3228346456692913,
                    "duration": 0.398697999999996
                },
                {
                    "name": "G5",
                    "midi": 79,
                    "time": 107.64846000000054,
                    "velocity": 0.3858267716535433,
                    "duration": 0.398697999999996
                },
                {
                    "name": "D5",
                    "midi": 74,
                    "time": 108.04715800000054,
                    "velocity": 0.2755905511811024,
                    "duration": 0.14951175000000205
                },
                {
                    "name": "F#5",
                    "midi": 78,
                    "time": 108.04715800000054,
                    "velocity": 0.3228346456692913,
                    "duration": 0.14951175000000205
                },
                {
                    "name": "D5",
                    "midi": 74,
                    "time": 108.19666975000054,
                    "velocity": 0.3779527559055118,
                    "duration": 0.04983724999999595
                },
                {
                    "name": "F#5",
                    "midi": 78,
                    "time": 108.24650700000053,
                    "velocity": 0.4094488188976378,
                    "duration": 0.398697999999996
                },
                {
                    "name": "G5",
                    "midi": 79,
                    "time": 108.64520500000053,
                    "velocity": 0.3779527559055118,
                    "duration": 0.199348999999998
                },
                {
                    "name": "B5",
                    "midi": 83,
                    "time": 108.84455400000053,
                    "velocity": 0.4645669291338583,
                    "duration": 0.0996745000000061
                },
                {
                    "name": "A5",
                    "midi": 81,
                    "time": 108.94422850000053,
                    "velocity": 0.44881889763779526,
                    "duration": 0.0996745000000061
                },
                {
                    "name": "G5",
                    "midi": 79,
                    "time": 109.04390300000054,
                    "velocity": 0.4330708661417323,
                    "duration": 0.0996745000000061
                },
                {
                    "name": "F#5",
                    "midi": 78,
                    "time": 109.14357750000055,
                    "velocity": 0.41732283464566927,
                    "duration": 0.0996745000000061
                },
                {
                    "name": "E5",
                    "midi": 76,
                    "time": 109.24325200000055,
                    "velocity": 0.4015748031496063,
                    "duration": 0.0996745000000061
                },
                {
                    "name": "D5",
                    "midi": 74,
                    "time": 109.34292650000056,
                    "velocity": 0.3700787401574803,
                    "duration": 0.047345387500001834
                },
                {
                    "name": "D5",
                    "midi": 74,
                    "time": 109.39276375000055,
                    "velocity": 0.36220472440944884,
                    "duration": 0.04983724999999595
                },
                {
                    "name": "F#5",
                    "midi": 78,
                    "time": 109.44260100000055,
                    "velocity": 0.4566929133858268,
                    "duration": 0.398697999999996
                },
                {
                    "name": "G5",
                    "midi": 79,
                    "time": 109.84129900000055,
                    "velocity": 0.3858267716535433,
                    "duration": 0.199348999999998
                },
                {
                    "name": "B5",
                    "midi": 83,
                    "time": 110.04064800000054,
                    "velocity": 0.4645669291338583,
                    "duration": 0.0996745000000061
                },
                {
                    "name": "A5",
                    "midi": 81,
                    "time": 110.14032250000055,
                    "velocity": 0.44881889763779526,
                    "duration": 0.0996745000000061
                },
                {
                    "name": "G5",
                    "midi": 79,
                    "time": 110.23999700000056,
                    "velocity": 0.4330708661417323,
                    "duration": 0.0996745000000061
                },
                {
                    "name": "F#5",
                    "midi": 78,
                    "time": 110.33967150000056,
                    "velocity": 0.41732283464566927,
                    "duration": 0.0996745000000061
                },
                {
                    "name": "E5",
                    "midi": 76,
                    "time": 110.43934600000057,
                    "velocity": 0.4015748031496063,
                    "duration": 0.0996745000000061
                },
                {
                    "name": "D5",
                    "midi": 74,
                    "time": 110.53902050000057,
                    "velocity": 0.4015748031496063,
                    "duration": 0.04153104166667276
                },
                {
                    "name": "D5",
                    "midi": 74,
                    "time": 110.58885775000059,
                    "velocity": 0.36220472440944884,
                    "duration": 0.04983724999999595
                },
                {
                    "name": "B5",
                    "midi": 83,
                    "time": 110.63869500000058,
                    "velocity": 0.4566929133858268,
                    "duration": 0.398697999999996
                },
                {
                    "name": "C#6",
                    "midi": 85,
                    "time": 111.03739300000058,
                    "velocity": 0.3858267716535433,
                    "duration": 0.199348999999998
                },
                {
                    "name": "D6",
                    "midi": 86,
                    "time": 111.23674200000058,
                    "velocity": 0.4645669291338583,
                    "duration": 0.0996745000000061
                },
                {
                    "name": "C#6",
                    "midi": 85,
                    "time": 111.33641650000058,
                    "velocity": 0.44881889763779526,
                    "duration": 0.0996745000000061
                },
                {
                    "name": "B5",
                    "midi": 83,
                    "time": 111.43609100000059,
                    "velocity": 0.4330708661417323,
                    "duration": 0.0996745000000061
                },
                {
                    "name": "A5",
                    "midi": 81,
                    "time": 111.5357655000006,
                    "velocity": 0.41732283464566927,
                    "duration": 0.0996745000000061
                },
                {
                    "name": "G5",
                    "midi": 79,
                    "time": 111.6354400000006,
                    "velocity": 0.4015748031496063,
                    "duration": 0.0996745000000061
                },
                {
                    "name": "F#5",
                    "midi": 78,
                    "time": 111.7351145000006,
                    "velocity": 0.4015748031496063,
                    "duration": 0.0996745000000061
                },
                {
                    "name": "B5",
                    "midi": 83,
                    "time": 111.83478900000061,
                    "velocity": 0.4645669291338583,
                    "duration": 0.0996745000000061
                },
                {
                    "name": "A5",
                    "midi": 81,
                    "time": 111.93446350000062,
                    "velocity": 0.4566929133858268,
                    "duration": 0.0996745000000061
                },
                {
                    "name": "G5",
                    "midi": 79,
                    "time": 112.03413800000062,
                    "velocity": 0.4409448818897638,
                    "duration": 0.0996745000000061
                },
                {
                    "name": "F#5",
                    "midi": 78,
                    "time": 112.13381250000063,
                    "velocity": 0.4330708661417323,
                    "duration": 0.0996745000000061
                },
                {
                    "name": "E5",
                    "midi": 76,
                    "time": 112.23348700000064,
                    "velocity": 0.4566929133858268,
                    "duration": 0.0996745000000061
                },
                {
                    "name": "D5",
                    "midi": 74,
                    "time": 112.33316150000064,
                    "velocity": 0.4881889763779528,
                    "duration": 0.0996745000000061
                },
                {
                    "name": "E5",
                    "midi": 76,
                    "time": 112.43283600000065,
                    "velocity": 0.3937007874015748,
                    "duration": 0.199348999999998
                },
                {
                    "name": "A5",
                    "midi": 81,
                    "time": 112.43283600000065,
                    "velocity": 0.4645669291338583,
                    "duration": 0.199348999999998
                },
                {
                    "name": "C#5",
                    "midi": 73,
                    "time": 112.43283600000065,
                    "velocity": 0.3937007874015748,
                    "duration": 0.199348999999998
                },
                {
                    "name": "A4",
                    "midi": 69,
                    "time": 112.93120850000065,
                    "velocity": 0.33070866141732286,
                    "duration": 0.0996745000000061
                },
                {
                    "name": "A5",
                    "midi": 81,
                    "time": 113.03088300000066,
                    "velocity": 0.3700787401574803,
                    "duration": 0.398697999999996
                },
                {
                    "name": "F#5",
                    "midi": 78,
                    "time": 113.42958100000065,
                    "velocity": 0.3464566929133858,
                    "duration": 0.14951175000000205
                },
                {
                    "name": "E5",
                    "midi": 76,
                    "time": 113.57909275000065,
                    "velocity": 0.3464566929133858,
                    "duration": 0.04983724999999595
                },
                {
                    "name": "D5",
                    "midi": 74,
                    "time": 113.62893000000065,
                    "velocity": 0.3858267716535433,
                    "duration": 0.07475587499999392
                },
                {
                    "name": "C#5",
                    "midi": 73,
                    "time": 113.82827900000065,
                    "velocity": 0.3464566929133858,
                    "duration": 0.07475587499999392
                },
                {
                    "name": "D5",
                    "midi": 74,
                    "time": 114.02762800000065,
                    "velocity": 0.3464566929133858,
                    "duration": 0.07475587499999392
                },
                {
                    "name": "E5",
                    "midi": 76,
                    "time": 114.17713975000063,
                    "velocity": 0.33858267716535434,
                    "duration": 0.04983724999999595
                },
                {
                    "name": "D5",
                    "midi": 74,
                    "time": 114.22697700000063,
                    "velocity": 0.3700787401574803,
                    "duration": 0.07475587499999392
                },
                {
                    "name": "C#5",
                    "midi": 73,
                    "time": 114.42632600000063,
                    "velocity": 0.33858267716535434,
                    "duration": 0.07475587499999392
                },
                {
                    "name": "D5",
                    "midi": 74,
                    "time": 114.62567500000063,
                    "velocity": 0.33070866141732286,
                    "duration": 0.07475587499999392
                },
                {
                    "name": "F#5",
                    "midi": 78,
                    "time": 114.82502400000062,
                    "velocity": 0.3858267716535433,
                    "duration": 0.398697999999996
                },
                {
                    "name": "D5",
                    "midi": 74,
                    "time": 114.82502400000062,
                    "velocity": 0.3228346456692913,
                    "duration": 0.398697999999996
                },
                {
                    "name": "C#5",
                    "midi": 73,
                    "time": 115.22372200000062,
                    "velocity": 0.2755905511811024,
                    "duration": 0.0996745000000061
                },
                {
                    "name": "E5",
                    "midi": 76,
                    "time": 115.22372200000062,
                    "velocity": 0.3228346456692913,
                    "duration": 0.0996745000000061
                },
                {
                    "name": "G4",
                    "midi": 67,
                    "time": 115.32339650000063,
                    "velocity": 0.33070866141732286,
                    "duration": 0.0996745000000061
                },
                {
                    "name": "G5",
                    "midi": 79,
                    "time": 115.42307100000063,
                    "velocity": 0.3700787401574803,
                    "duration": 0.398697999999996
                },
                {
                    "name": "E5",
                    "midi": 76,
                    "time": 115.82176900000063,
                    "velocity": 0.3464566929133858,
                    "duration": 0.14951175000000205
                },
                {
                    "name": "D5",
                    "midi": 74,
                    "time": 115.97128075000063,
                    "velocity": 0.3464566929133858,
                    "duration": 0.04983724999999595
                },
                {
                    "name": "C#5",
                    "midi": 73,
                    "time": 116.02111800000063,
                    "velocity": 0.3858267716535433,
                    "duration": 0.07475587499999392
                },
                {
                    "name": "B4",
                    "midi": 71,
                    "time": 116.22046700000062,
                    "velocity": 0.3464566929133858,
                    "duration": 0.07475587499999392
                },
                {
                    "name": "C#5",
                    "midi": 73,
                    "time": 116.41981600000062,
                    "velocity": 0.3464566929133858,
                    "duration": 0.07475587499999392
                },
                {
                    "name": "A4",
                    "midi": 69,
                    "time": 116.61916500000062,
                    "velocity": 0.3700787401574803,
                    "duration": 0.07475587499999392
                },
                {
                    "name": "E5",
                    "midi": 76,
                    "time": 116.81851400000062,
                    "velocity": 0.33858267716535434,
                    "duration": 0.07475587499999392
                },
                {
                    "name": "A5",
                    "midi": 81,
                    "time": 117.01786300000062,
                    "velocity": 0.33070866141732286,
                    "duration": 0.07475587499999392
                },
                {
                    "name": "E5",
                    "midi": 76,
                    "time": 117.21721200000061,
                    "velocity": 0.3228346456692913,
                    "duration": 0.398697999999996
                },
                {
                    "name": "G5",
                    "midi": 79,
                    "time": 117.21721200000061,
                    "velocity": 0.3858267716535433,
                    "duration": 0.398697999999996
                },
                {
                    "name": "D5",
                    "midi": 74,
                    "time": 117.61591000000061,
                    "velocity": 0.2755905511811024,
                    "duration": 0.14951175000000205
                },
                {
                    "name": "F#5",
                    "midi": 78,
                    "time": 117.61591000000061,
                    "velocity": 0.3228346456692913,
                    "duration": 0.14951175000000205
                },
                {
                    "name": "D5",
                    "midi": 74,
                    "time": 117.76542175000061,
                    "velocity": 0.3779527559055118,
                    "duration": 0.04983724999999595
                },
                {
                    "name": "F#5",
                    "midi": 78,
                    "time": 117.81525900000061,
                    "velocity": 0.4094488188976378,
                    "duration": 0.398697999999996
                },
                {
                    "name": "G5",
                    "midi": 79,
                    "time": 118.2139570000006,
                    "velocity": 0.3779527559055118,
                    "duration": 0.199348999999998
                },
                {
                    "name": "B5",
                    "midi": 83,
                    "time": 118.4133060000006,
                    "velocity": 0.4645669291338583,
                    "duration": 0.0996745000000061
                },
                {
                    "name": "A5",
                    "midi": 81,
                    "time": 118.51298050000061,
                    "velocity": 0.44881889763779526,
                    "duration": 0.0996745000000061
                },
                {
                    "name": "G5",
                    "midi": 79,
                    "time": 118.61265500000061,
                    "velocity": 0.4330708661417323,
                    "duration": 0.0996745000000061
                },
                {
                    "name": "F#5",
                    "midi": 78,
                    "time": 118.71232950000062,
                    "velocity": 0.41732283464566927,
                    "duration": 0.0996745000000061
                },
                {
                    "name": "E5",
                    "midi": 76,
                    "time": 118.81200400000063,
                    "velocity": 0.4015748031496063,
                    "duration": 0.0996745000000061
                },
                {
                    "name": "D5",
                    "midi": 74,
                    "time": 118.91167850000063,
                    "velocity": 0.3700787401574803,
                    "duration": 0.04651476666666099
                },
                {
                    "name": "D5",
                    "midi": 74,
                    "time": 118.96982195833397,
                    "velocity": 0.36220472440944884,
                    "duration": 0.04983725000001016
                },
                {
                    "name": "B5",
                    "midi": 83,
                    "time": 119.01135300000064,
                    "velocity": 0.4566929133858268,
                    "duration": 0.3986980000000102
                },
                {
                    "name": "C#6",
                    "midi": 85,
                    "time": 119.41005100000065,
                    "velocity": 0.3858267716535433,
                    "duration": 0.199348999999998
                },
                {
                    "name": "E6",
                    "midi": 88,
                    "time": 119.60940000000065,
                    "velocity": 0.4645669291338583,
                    "duration": 0.0996745000000061
                },
                {
                    "name": "D6",
                    "midi": 86,
                    "time": 119.70907450000065,
                    "velocity": 0.44881889763779526,
                    "duration": 0.0996745000000061
                },
                {
                    "name": "C#6",
                    "midi": 85,
                    "time": 119.80874900000066,
                    "velocity": 0.4330708661417323,
                    "duration": 0.0996745000000061
                },
                {
                    "name": "B5",
                    "midi": 83,
                    "time": 119.90842350000067,
                    "velocity": 0.41732283464566927,
                    "duration": 0.0996745000000061
                },
                {
                    "name": "A5",
                    "midi": 81,
                    "time": 120.00809800000067,
                    "velocity": 0.4015748031496063,
                    "duration": 0.0996745000000061
                },
                {
                    "name": "G5",
                    "midi": 79,
                    "time": 120.10777250000068,
                    "velocity": 0.4015748031496063,
                    "duration": 0.0996745000000061
                },
                {
                    "name": "C#6",
                    "midi": 85,
                    "time": 120.20744700000068,
                    "velocity": 0.4645669291338583,
                    "duration": 0.0996745000000061
                },
                {
                    "name": "B5",
                    "midi": 83,
                    "time": 120.30712150000069,
                    "velocity": 0.4566929133858268,
                    "duration": 0.0996745000000061
                },
                {
                    "name": "A5",
                    "midi": 81,
                    "time": 120.4067960000007,
                    "velocity": 0.4409448818897638,
                    "duration": 0.0996745000000061
                },
                {
                    "name": "G5",
                    "midi": 79,
                    "time": 120.5064705000007,
                    "velocity": 0.4330708661417323,
                    "duration": 0.0996745000000061
                },
                {
                    "name": "F#5",
                    "midi": 78,
                    "time": 120.60614500000071,
                    "velocity": 0.4251968503937008,
                    "duration": 0.0996745000000061
                },
                {
                    "name": "E5",
                    "midi": 76,
                    "time": 120.70581950000071,
                    "velocity": 0.4094488188976378,
                    "duration": 0.0996745000000061
                },
                {
                    "name": "B5",
                    "midi": 83,
                    "time": 120.80549400000072,
                    "velocity": 0.49606299212598426,
                    "duration": 0.0996745000000061
                },
                {
                    "name": "A5",
                    "midi": 81,
                    "time": 120.90516850000073,
                    "velocity": 0.48031496062992124,
                    "duration": 0.0996745000000061
                },
                {
                    "name": "G5",
                    "midi": 79,
                    "time": 121.00484300000073,
                    "velocity": 0.4645669291338583,
                    "duration": 0.0996745000000061
                },
                {
                    "name": "F#5",
                    "midi": 78,
                    "time": 121.10451750000074,
                    "velocity": 0.44881889763779526,
                    "duration": 0.0996745000000061
                },
                {
                    "name": "E5",
                    "midi": 76,
                    "time": 121.20419200000075,
                    "velocity": 0.4409448818897638,
                    "duration": 0.0996745000000061
                },
                {
                    "name": "D5",
                    "midi": 74,
                    "time": 121.30386650000075,
                    "velocity": 0.4251968503937008,
                    "duration": 0.0996745000000061
                },
                {
                    "name": "A5",
                    "midi": 81,
                    "time": 121.40354100000076,
                    "velocity": 0.4645669291338583,
                    "duration": 0.0996745000000061
                },
                {
                    "name": "G5",
                    "midi": 79,
                    "time": 121.50321550000076,
                    "velocity": 0.48031496062992124,
                    "duration": 0.0996745000000061
                },
                {
                    "name": "F#5",
                    "midi": 78,
                    "time": 121.60289000000077,
                    "velocity": 0.47244094488188976,
                    "duration": 0.0996745000000061
                },
                {
                    "name": "E5",
                    "midi": 76,
                    "time": 121.70256450000078,
                    "velocity": 0.4645669291338583,
                    "duration": 0.0996745000000061
                },
                {
                    "name": "D5",
                    "midi": 74,
                    "time": 121.80223900000078,
                    "velocity": 0.4566929133858268,
                    "duration": 0.0996745000000061
                },
                {
                    "name": "C#5",
                    "midi": 73,
                    "time": 121.90191350000079,
                    "velocity": 0.48031496062992124,
                    "duration": 0.0996745000000061
                },
                {
                    "name": "D5",
                    "midi": 74,
                    "time": 122.0015880000008,
                    "velocity": 0.49606299212598426,
                    "duration": 0.0996745000000061
                },
                {
                    "name": "F#4",
                    "midi": 66,
                    "time": 122.4002860000008,
                    "velocity": 0.5196850393700787,
                    "duration": 0.0996745000000061
                },
                {
                    "name": "A4",
                    "midi": 69,
                    "time": 122.49996050000081,
                    "velocity": 0.5196850393700787,
                    "duration": 0.0996745000000061
                },
                {
                    "name": "D5",
                    "midi": 74,
                    "time": 122.59963500000082,
                    "velocity": 0.5748031496062992,
                    "duration": 0.0996745000000061
                },
                {
                    "name": "A4",
                    "midi": 69,
                    "time": 122.99833300000083,
                    "velocity": 0.5511811023622047,
                    "duration": 0.0996745000000061
                },
                {
                    "name": "D5",
                    "midi": 74,
                    "time": 123.09800750000083,
                    "velocity": 0.5511811023622047,
                    "duration": 0.0996745000000061
                },
                {
                    "name": "F#5",
                    "midi": 78,
                    "time": 123.19768200000084,
                    "velocity": 0.5905511811023622,
                    "duration": 0.0996745000000061
                },
                {
                    "name": "D5",
                    "midi": 74,
                    "time": 123.59638000000085,
                    "velocity": 0.5433070866141733,
                    "duration": 0.0996745000000061
                },
                {
                    "name": "F#5",
                    "midi": 78,
                    "time": 123.69605450000086,
                    "velocity": 0.5433070866141733,
                    "duration": 0.0996745000000061
                },
                {
                    "name": "A5",
                    "midi": 81,
                    "time": 123.79572900000086,
                    "velocity": 0.6377952755905512,
                    "duration": 0.0996745000000061
                },
                {
                    "name": "F#5",
                    "midi": 78,
                    "time": 124.19442700000087,
                    "velocity": 0.4409448818897638,
                    "duration": 0.0996745000000061
                },
                {
                    "name": "A5",
                    "midi": 81,
                    "time": 124.29410150000088,
                    "velocity": 0.4409448818897638,
                    "duration": 0.0996745000000061
                },
                {
                    "name": "C6",
                    "midi": 84,
                    "time": 124.39377600000088,
                    "velocity": 0.5118110236220472,
                    "duration": 0.0996745000000061
                },
                {
                    "name": "D5",
                    "midi": 74,
                    "time": 125.58987000000089,
                    "velocity": 0.3543307086614173,
                    "duration": 0.4983725000000021
                },
                {
                    "name": "E5",
                    "midi": 76,
                    "time": 126.08824250000089,
                    "velocity": 0.33070866141732286,
                    "duration": 0.0996745000000061
                },
                {
                    "name": "G4",
                    "midi": 67,
                    "time": 126.1879170000009,
                    "velocity": 0.3700787401574803,
                    "duration": 0.398697999999996
                },
                {
                    "name": "F#4",
                    "midi": 66,
                    "time": 126.60987238333422,
                    "velocity": 0.3700787401574803,
                    "duration": 0.199348999999998
                },
                {
                    "name": "G4",
                    "midi": 67,
                    "time": 126.78596400000089,
                    "velocity": 0.4330708661417323,
                    "duration": 0.14951175000000205
                },
                {
                    "name": "G5",
                    "midi": 79,
                    "time": 126.98531300000089,
                    "velocity": 0.4251968503937008,
                    "duration": 0.0996745000000061
                },
                {
                    "name": "F#5",
                    "midi": 78,
                    "time": 127.1846620000009,
                    "velocity": 0.4094488188976378,
                    "duration": 0.0996745000000061
                },
                {
                    "name": "E5",
                    "midi": 76,
                    "time": 127.38401100000091,
                    "velocity": 0.3937007874015748,
                    "duration": 0.0996745000000061
                },
                {
                    "name": "D5",
                    "midi": 74,
                    "time": 127.58336000000092,
                    "velocity": 0.3858267716535433,
                    "duration": 0.0996745000000061
                },
                {
                    "name": "C#5",
                    "midi": 73,
                    "time": 127.78270900000093,
                    "velocity": 0.3700787401574803,
                    "duration": 0.0996745000000061
                },
                {
                    "name": "D5",
                    "midi": 74,
                    "time": 127.98205800000095,
                    "velocity": 0.3543307086614173,
                    "duration": 0.24918624999999395
                },
                {
                    "name": "E5",
                    "midi": 76,
                    "time": 128.23124425000094,
                    "velocity": 0.2755905511811024,
                    "duration": 0.04983724999999595
                },
                {
                    "name": "D5",
                    "midi": 74,
                    "time": 128.28108150000094,
                    "velocity": 0.2755905511811024,
                    "duration": 0.04983724999999595
                },
                {
                    "name": "C#5",
                    "midi": 73,
                    "time": 128.33091875000093,
                    "velocity": 0.2755905511811024,
                    "duration": 0.04983724999999595
                },
                {
                    "name": "D5",
                    "midi": 74,
                    "time": 128.38075600000093,
                    "velocity": 0.3543307086614173,
                    "duration": 0.0996744999999919
                },
                {
                    "name": "E5",
                    "midi": 76,
                    "time": 128.48043050000092,
                    "velocity": 0.33070866141732286,
                    "duration": 0.0996744999999919
                },
                {
                    "name": "G4",
                    "midi": 67,
                    "time": 128.5801050000009,
                    "velocity": 0.3700787401574803,
                    "duration": 0.398697999999996
                },
                {
                    "name": "F#4",
                    "midi": 66,
                    "time": 129.00206038333425,
                    "velocity": 0.3700787401574803,
                    "duration": 0.1993490000000122
                },
                {
                    "name": "G4",
                    "midi": 67,
                    "time": 129.17815200000092,
                    "velocity": 0.4330708661417323,
                    "duration": 0.14951175000001626
                },
                {
                    "name": "G5",
                    "midi": 79,
                    "time": 129.37750100000093,
                    "velocity": 0.4251968503937008,
                    "duration": 0.0996744999999919
                },
                {
                    "name": "F#5",
                    "midi": 78,
                    "time": 129.57685000000092,
                    "velocity": 0.4094488188976378,
                    "duration": 0.0996744999999919
                },
                {
                    "name": "E5",
                    "midi": 76,
                    "time": 129.7761990000009,
                    "velocity": 0.3937007874015748,
                    "duration": 0.0996744999999919
                },
                {
                    "name": "D5",
                    "midi": 74,
                    "time": 129.97554800000088,
                    "velocity": 0.3858267716535433,
                    "duration": 0.0996744999999919
                },
                {
                    "name": "C#5",
                    "midi": 73,
                    "time": 130.17489700000087,
                    "velocity": 0.3700787401574803,
                    "duration": 0.0996744999999919
                },
                {
                    "name": "D5",
                    "midi": 74,
                    "time": 130.37424600000085,
                    "velocity": 0.3543307086614173,
                    "duration": 0.24918625000000816
                },
                {
                    "name": "E5",
                    "midi": 76,
                    "time": 130.62343225000086,
                    "velocity": 0.2755905511811024,
                    "duration": 0.04983724999999595
                },
                {
                    "name": "D5",
                    "midi": 74,
                    "time": 130.67326950000086,
                    "velocity": 0.2755905511811024,
                    "duration": 0.04983724999999595
                },
                {
                    "name": "C#5",
                    "midi": 73,
                    "time": 130.72310675000085,
                    "velocity": 0.2755905511811024,
                    "duration": 0.04983724999999595
                },
                {
                    "name": "D5",
                    "midi": 74,
                    "time": 130.77294400000085,
                    "velocity": 0.3543307086614173,
                    "duration": 0.0996744999999919
                },
                {
                    "name": "E5",
                    "midi": 76,
                    "time": 130.87261850000084,
                    "velocity": 0.33070866141732286,
                    "duration": 0.0996744999999919
                },
                {
                    "name": "G4",
                    "midi": 67,
                    "time": 130.97229300000083,
                    "velocity": 0.3700787401574803,
                    "duration": 0.398697999999996
                },
                {
                    "name": "F#4",
                    "midi": 66,
                    "time": 131.37099100000083,
                    "velocity": 0.3700787401574803,
                    "duration": 0.1993490000000122
                },
                {
                    "name": "G4",
                    "midi": 67,
                    "time": 131.57034000000084,
                    "velocity": 0.4094488188976378,
                    "duration": 0.1993490000000122
                },
                {
                    "name": "E4",
                    "midi": 64,
                    "time": 132.16838700000085,
                    "velocity": 0.2283464566929134,
                    "duration": 0.5980470000000082
                },
                {
                    "name": "B3",
                    "midi": 59,
                    "time": 132.16838700000085,
                    "velocity": 0.2283464566929134,
                    "duration": 0.5980470000000082
                },
                {
                    "name": "G4",
                    "midi": 67,
                    "time": 132.16838700000085,
                    "velocity": 0.2755905511811024,
                    "duration": 0.5980470000000082
                },
                {
                    "name": "E4",
                    "midi": 64,
                    "time": 132.76643400000086,
                    "velocity": 0.25196850393700787,
                    "duration": 0.5980470000000082
                },
                {
                    "name": "A4",
                    "midi": 69,
                    "time": 132.76643400000086,
                    "velocity": 0.2992125984251969,
                    "duration": 0.5980470000000082
                },
                {
                    "name": "G4",
                    "midi": 67,
                    "time": 132.76643400000086,
                    "velocity": 0.25196850393700787,
                    "duration": 0.5980470000000082
                },
                {
                    "name": "F#4",
                    "midi": 66,
                    "time": 133.36448100000086,
                    "velocity": 0.25984251968503935,
                    "duration": 0.5980470000000082
                },
                {
                    "name": "A4",
                    "midi": 69,
                    "time": 133.36448100000086,
                    "velocity": 0.25984251968503935,
                    "duration": 0.5980470000000082
                },
                {
                    "name": "D5",
                    "midi": 74,
                    "time": 133.36448100000086,
                    "velocity": 0.30708661417322836,
                    "duration": 0.5980470000000082
                },
                {
                    "name": "D4",
                    "midi": 62,
                    "time": 133.96252800000087,
                    "velocity": 0.2283464566929134,
                    "duration": 0.1993490000000122
                },
                {
                    "name": "B4",
                    "midi": 71,
                    "time": 133.96252800000087,
                    "velocity": 0.2755905511811024,
                    "duration": 0.1993490000000122
                },
                {
                    "name": "G4",
                    "midi": 67,
                    "time": 133.96252800000087,
                    "velocity": 0.2283464566929134,
                    "duration": 0.1993490000000122
                },
                {
                    "name": "E4",
                    "midi": 64,
                    "time": 134.56057500000088,
                    "velocity": 0.4094488188976378,
                    "duration": 0.5980470000000082
                },
                {
                    "name": "G3",
                    "midi": 55,
                    "time": 134.56057500000088,
                    "velocity": 0.33858267716535434,
                    "duration": 0.5980470000000082
                },
                {
                    "name": "C4",
                    "midi": 60,
                    "time": 134.56057500000088,
                    "velocity": 0.33858267716535434,
                    "duration": 0.5980470000000082
                },
                {
                    "name": "F#4",
                    "midi": 66,
                    "time": 135.1586220000009,
                    "velocity": 0.44881889763779526,
                    "duration": 0.5980470000000082
                },
                {
                    "name": "C4",
                    "midi": 60,
                    "time": 135.1586220000009,
                    "velocity": 0.3779527559055118,
                    "duration": 0.5980470000000082
                },
                {
                    "name": "E4",
                    "midi": 64,
                    "time": 135.1586220000009,
                    "velocity": 0.3779527559055118,
                    "duration": 0.5980470000000082
                },
                {
                    "name": "F#4",
                    "midi": 66,
                    "time": 135.7566690000009,
                    "velocity": 0.3858267716535433,
                    "duration": 0.5980470000000082
                },
                {
                    "name": "D#4",
                    "midi": 63,
                    "time": 135.7566690000009,
                    "velocity": 0.3858267716535433,
                    "duration": 0.5980470000000082
                },
                {
                    "name": "B4",
                    "midi": 71,
                    "time": 135.7566690000009,
                    "velocity": 0.4566929133858268,
                    "duration": 0.5980470000000082
                },
                {
                    "name": "E4",
                    "midi": 64,
                    "time": 136.3547160000009,
                    "velocity": 0.33858267716535434,
                    "duration": 0.1993490000000122
                },
                {
                    "name": "G4",
                    "midi": 67,
                    "time": 136.3547160000009,
                    "velocity": 0.4094488188976378,
                    "duration": 0.1993490000000122
                },
                {
                    "name": "B3",
                    "midi": 59,
                    "time": 136.3547160000009,
                    "velocity": 0.33858267716535434,
                    "duration": 0.1993490000000122
                },
                {
                    "name": "B3",
                    "midi": 59,
                    "time": 136.9527630000009,
                    "velocity": 0.2283464566929134,
                    "duration": 0.5980470000000082
                },
                {
                    "name": "F#3",
                    "midi": 54,
                    "time": 136.9527630000009,
                    "velocity": 0.2283464566929134,
                    "duration": 0.5980470000000082
                },
                {
                    "name": "D4",
                    "midi": 62,
                    "time": 136.9527630000009,
                    "velocity": 0.2755905511811024,
                    "duration": 0.5980470000000082
                },
                {
                    "name": "E4",
                    "midi": 64,
                    "time": 137.55081000000092,
                    "velocity": 0.2992125984251969,
                    "duration": 0.5980470000000082
                },
                {
                    "name": "B3",
                    "midi": 59,
                    "time": 137.55081000000092,
                    "velocity": 0.25196850393700787,
                    "duration": 0.5980470000000082
                },
                {
                    "name": "D4",
                    "midi": 62,
                    "time": 137.55081000000092,
                    "velocity": 0.25196850393700787,
                    "duration": 0.5980470000000082
                },
                {
                    "name": "C#4",
                    "midi": 61,
                    "time": 138.14885700000093,
                    "velocity": 0.25984251968503935,
                    "duration": 0.5980470000000082
                },
                {
                    "name": "E4",
                    "midi": 64,
                    "time": 138.14885700000093,
                    "velocity": 0.25984251968503935,
                    "duration": 0.5980470000000082
                },
                {
                    "name": "A4",
                    "midi": 69,
                    "time": 138.14885700000093,
                    "velocity": 0.30708661417322836,
                    "duration": 0.5980470000000082
                },
                {
                    "name": "F#4",
                    "midi": 66,
                    "time": 138.74690400000094,
                    "velocity": 0.2755905511811024,
                    "duration": 0.1993490000000122
                },
                {
                    "name": "A3",
                    "midi": 57,
                    "time": 138.74690400000094,
                    "velocity": 0.2283464566929134,
                    "duration": 0.1993490000000122
                },
                {
                    "name": "D4",
                    "midi": 62,
                    "time": 138.74690400000094,
                    "velocity": 0.2283464566929134,
                    "duration": 0.1993490000000122
                },
                {
                    "name": "C#5",
                    "midi": 73,
                    "time": 139.34495100000095,
                    "velocity": 0.4094488188976378,
                    "duration": 0.5980470000000082
                },
                {
                    "name": "E4",
                    "midi": 64,
                    "time": 139.34495100000095,
                    "velocity": 0.33858267716535434,
                    "duration": 0.5980470000000082
                },
                {
                    "name": "G4",
                    "midi": 67,
                    "time": 139.34495100000095,
                    "velocity": 0.33858267716535434,
                    "duration": 0.5980470000000082
                },
                {
                    "name": "D4",
                    "midi": 62,
                    "time": 139.94299800000096,
                    "velocity": 0.3779527559055118,
                    "duration": 0.5980470000000082
                },
                {
                    "name": "D5",
                    "midi": 74,
                    "time": 139.94299800000096,
                    "velocity": 0.44881889763779526,
                    "duration": 0.5980470000000082
                },
                {
                    "name": "F#4",
                    "midi": 66,
                    "time": 139.94299800000096,
                    "velocity": 0.3779527559055118,
                    "duration": 0.5980470000000082
                },
                {
                    "name": "F5",
                    "midi": 77,
                    "time": 140.54104500000096,
                    "velocity": 0.47244094488188976,
                    "duration": 0.5980470000000082
                },
                {
                    "name": "B4",
                    "midi": 71,
                    "time": 140.54104500000096,
                    "velocity": 0.4015748031496063,
                    "duration": 0.5980470000000082
                },
                {
                    "name": "A#4",
                    "midi": 70,
                    "time": 141.13909200000097,
                    "velocity": 0.3543307086614173,
                    "duration": 0.1993490000000122
                },
                {
                    "name": "F#5",
                    "midi": 78,
                    "time": 141.13909200000097,
                    "velocity": 0.4251968503937008,
                    "duration": 0.1993490000000122
                },
                {
                    "name": "C#5",
                    "midi": 73,
                    "time": 141.13909200000097,
                    "velocity": 0.3543307086614173,
                    "duration": 0.1993490000000122
                },
                {
                    "name": "F#5",
                    "midi": 78,
                    "time": 142.53453500000097,
                    "velocity": 0.4094488188976378,
                    "duration": 0.0996744999999919
                },
                {
                    "name": "F#5",
                    "midi": 78,
                    "time": 142.73388400000096,
                    "velocity": 0.3779527559055118,
                    "duration": 0.0996744999999919
                },
                {
                    "name": "G5",
                    "midi": 79,
                    "time": 142.93323300000094,
                    "velocity": 0.3464566929133858,
                    "duration": 0.04983724999999595
                },
                {
                    "name": "A5",
                    "midi": 81,
                    "time": 142.98307025000094,
                    "velocity": 0.3464566929133858,
                    "duration": 0.04983724999999595
                },
                {
                    "name": "G5",
                    "midi": 79,
                    "time": 143.03290750000093,
                    "velocity": 0.41732283464566927,
                    "duration": 0.0996744999999919
                },
                {
                    "name": "F#5",
                    "midi": 78,
                    "time": 143.13258200000092,
                    "velocity": 0.3858267716535433,
                    "duration": 0.0996744999999919
                },
                {
                    "name": "F#5",
                    "midi": 78,
                    "time": 143.3319310000009,
                    "velocity": 0.36220472440944884,
                    "duration": 0.0996744999999919
                },
                {
                    "name": "G5",
                    "midi": 79,
                    "time": 143.5312800000009,
                    "velocity": 0.3779527559055118,
                    "duration": 0.04983724999999595
                },
                {
                    "name": "A5",
                    "midi": 81,
                    "time": 143.5811172500009,
                    "velocity": 0.3779527559055118,
                    "duration": 0.04983724999999595
                },
                {
                    "name": "G5",
                    "midi": 79,
                    "time": 143.63095450000088,
                    "velocity": 0.4094488188976378,
                    "duration": 0.0996744999999919
                },
                {
                    "name": "F#5",
                    "midi": 78,
                    "time": 143.73062900000087,
                    "velocity": 0.4094488188976378,
                    "duration": 0.0996744999999919
                },
                {
                    "name": "F#5",
                    "midi": 78,
                    "time": 143.92997800000086,
                    "velocity": 0.3779527559055118,
                    "duration": 0.0996744999999919
                },
                {
                    "name": "F#5",
                    "midi": 78,
                    "time": 144.12932700000084,
                    "velocity": 0.4094488188976378,
                    "duration": 0.398697999999996
                },
                {
                    "name": "G5",
                    "midi": 79,
                    "time": 144.52802500000084,
                    "velocity": 0.36220472440944884,
                    "duration": 0.0996744999999919
                },
                {
                    "name": "A5",
                    "midi": 81,
                    "time": 144.62769950000083,
                    "velocity": 0.3858267716535433,
                    "duration": 0.0996744999999919
                },
                {
                    "name": "B5",
                    "midi": 83,
                    "time": 144.72737400000082,
                    "velocity": 0.4094488188976378,
                    "duration": 0.1993490000000122
                },
                {
                    "name": "E5",
                    "midi": 76,
                    "time": 144.92672300000083,
                    "velocity": 0.3779527559055118,
                    "duration": 0.0996744999999919
                },
                {
                    "name": "E5",
                    "midi": 76,
                    "time": 145.12607200000082,
                    "velocity": 0.3779527559055118,
                    "duration": 0.0996744999999919
                },
                {
                    "name": "F#5",
                    "midi": 78,
                    "time": 145.3254210000008,
                    "velocity": 0.3779527559055118,
                    "duration": 0.04983724999999595
                },
                {
                    "name": "G5",
                    "midi": 79,
                    "time": 145.3752582500008,
                    "velocity": 0.3779527559055118,
                    "duration": 0.04983724999999595
                },
                {
                    "name": "F#5",
                    "midi": 78,
                    "time": 145.4250955000008,
                    "velocity": 0.4094488188976378,
                    "duration": 0.0996744999999919
                },
                {
                    "name": "E5",
                    "midi": 76,
                    "time": 145.52477000000079,
                    "velocity": 0.4094488188976378,
                    "duration": 0.0996744999999919
                },
                {
                    "name": "E5",
                    "midi": 76,
                    "time": 145.72411900000077,
                    "velocity": 0.3779527559055118,
                    "duration": 0.0996744999999919
                },
                {
                    "name": "E5",
                    "midi": 76,
                    "time": 145.92346800000075,
                    "velocity": 0.3779527559055118,
                    "duration": 0.04983724999999595
                },
                {
                    "name": "F#5",
                    "midi": 78,
                    "time": 145.97330525000075,
                    "velocity": 0.3779527559055118,
                    "duration": 0.04983724999999595
                },
                {
                    "name": "E5",
                    "midi": 76,
                    "time": 146.02314250000074,
                    "velocity": 0.4409448818897638,
                    "duration": 0.0996744999999919
                },
                {
                    "name": "D5",
                    "midi": 74,
                    "time": 146.12281700000074,
                    "velocity": 0.3779527559055118,
                    "duration": 0.0996744999999919
                },
                {
                    "name": "D5",
                    "midi": 74,
                    "time": 146.32216600000072,
                    "velocity": 0.4094488188976378,
                    "duration": 0.0996744999999919
                },
                {
                    "name": "D5",
                    "midi": 74,
                    "time": 146.5215150000007,
                    "velocity": 0.4094488188976378,
                    "duration": 0.398697999999996
                },
                {
                    "name": "E5",
                    "midi": 76,
                    "time": 146.9202130000007,
                    "velocity": 0.3700787401574803,
                    "duration": 0.0996744999999919
                },
                {
                    "name": "F#5",
                    "midi": 78,
                    "time": 147.0198875000007,
                    "velocity": 0.3937007874015748,
                    "duration": 0.0996744999999919
                },
                {
                    "name": "G5",
                    "midi": 79,
                    "time": 147.11956200000068,
                    "velocity": 0.41732283464566927,
                    "duration": 0.1993490000000122
                },
                {
                    "name": "C5",
                    "midi": 72,
                    "time": 147.3189110000007,
                    "velocity": 0.3937007874015748,
                    "duration": 0.0996744999999919
                },
                {
                    "name": "C5",
                    "midi": 72,
                    "time": 147.51826000000068,
                    "velocity": 0.3937007874015748,
                    "duration": 0.0996744999999919
                },
                {
                    "name": "D5",
                    "midi": 74,
                    "time": 147.71760900000066,
                    "velocity": 0.41732283464566927,
                    "duration": 0.03322483333332116
                },
                {
                    "name": "C5",
                    "midi": 72,
                    "time": 147.75083383333399,
                    "velocity": 0.33858267716535434,
                    "duration": 0.03322483333332116
                },
                {
                    "name": "B4",
                    "midi": 71,
                    "time": 147.7840586666673,
                    "velocity": 0.33858267716535434,
                    "duration": 0.03322483333332116
                },
                {
                    "name": "C5",
                    "midi": 72,
                    "time": 147.81728350000063,
                    "velocity": 0.3858267716535433,
                    "duration": 0.2990235000000041
                },
                {
                    "name": "G5",
                    "midi": 79,
                    "time": 148.11630700000063,
                    "velocity": 0.41732283464566927,
                    "duration": 0.1993490000000122
                },
                {
                    "name": "F#5",
                    "midi": 78,
                    "time": 148.31565600000064,
                    "velocity": 0.41732283464566927,
                    "duration": 0.1993490000000122
                },
                {
                    "name": "B4",
                    "midi": 71,
                    "time": 148.51500500000066,
                    "velocity": 0.3937007874015748,
                    "duration": 0.0996744999999919
                },
                {
                    "name": "B4",
                    "midi": 71,
                    "time": 148.71435400000064,
                    "velocity": 0.3937007874015748,
                    "duration": 0.0996744999999919
                },
                {
                    "name": "C#5",
                    "midi": 73,
                    "time": 148.91370300000062,
                    "velocity": 0.3858267716535433,
                    "duration": 0.03322483333332116
                },
                {
                    "name": "B4",
                    "midi": 71,
                    "time": 148.94692783333394,
                    "velocity": 0.2677165354330709,
                    "duration": 0.03322483333332116
                },
                {
                    "name": "A#4",
                    "midi": 70,
                    "time": 148.98015266666727,
                    "velocity": 0.2677165354330709,
                    "duration": 0.03322483333332116
                },
                {
                    "name": "B4",
                    "midi": 71,
                    "time": 149.0133775000006,
                    "velocity": 0.31496062992125984,
                    "duration": 0.2990235000000041
                },
                {
                    "name": "F#5",
                    "midi": 78,
                    "time": 149.3124010000006,
                    "velocity": 0.36220472440944884,
                    "duration": 0.1993490000000122
                },
                {
                    "name": "F#5",
                    "midi": 78,
                    "time": 149.5117500000006,
                    "velocity": 0.3937007874015748,
                    "duration": 0.1993490000000122
                },
                {
                    "name": "E5",
                    "midi": 76,
                    "time": 149.71109900000062,
                    "velocity": 0.36220472440944884,
                    "duration": 0.1993490000000122
                },
                {
                    "name": "C#5",
                    "midi": 73,
                    "time": 149.91044800000063,
                    "velocity": 0.36220472440944884,
                    "duration": 0.0996744999999919
                },
                {
                    "name": "E5",
                    "midi": 76,
                    "time": 150.1097970000006,
                    "velocity": 0.41732283464566927,
                    "duration": 0.1993490000000122
                },
                {
                    "name": "D5",
                    "midi": 74,
                    "time": 150.30914600000062,
                    "velocity": 0.3700787401574803,
                    "duration": 0.1993490000000122
                },
                {
                    "name": "B4",
                    "midi": 71,
                    "time": 150.50849500000064,
                    "velocity": 0.36220472440944884,
                    "duration": 0.0996744999999919
                },
                {
                    "name": "A#4",
                    "midi": 70,
                    "time": 150.70784400000062,
                    "velocity": 0.41732283464566927,
                    "duration": 0.10964194999999677
                },
                {
                    "name": "B4",
                    "midi": 71,
                    "time": 150.8075185000006,
                    "velocity": 0.3779527559055118,
                    "duration": 0.10964194999999677
                },
                {
                    "name": "C#5",
                    "midi": 73,
                    "time": 150.9071930000006,
                    "velocity": 0.4251968503937008,
                    "duration": 0.10964194999999677
                },
                {
                    "name": "D5",
                    "midi": 74,
                    "time": 151.0068675000006,
                    "velocity": 0.3937007874015748,
                    "duration": 0.10964194999999677
                },
                {
                    "name": "C#5",
                    "midi": 73,
                    "time": 151.1065420000006,
                    "velocity": 0.4251968503937008,
                    "duration": 0.10964194999999677
                },
                {
                    "name": "D5",
                    "midi": 74,
                    "time": 151.20621650000058,
                    "velocity": 0.3700787401574803,
                    "duration": 0.10964194999999677
                },
                {
                    "name": "C#5",
                    "midi": 73,
                    "time": 151.30589100000057,
                    "velocity": 0.4094488188976378,
                    "duration": 0.1993490000000122
                },
                {
                    "name": "D5",
                    "midi": 74,
                    "time": 151.90393800000058,
                    "velocity": 0.4409448818897638,
                    "duration": 0.0996744999999919
                },
                {
                    "name": "B5",
                    "midi": 83,
                    "time": 152.00361250000057,
                    "velocity": 0.3779527559055118,
                    "duration": 0.0996744999999919
                },
                {
                    "name": "D5",
                    "midi": 74,
                    "time": 152.10328700000056,
                    "velocity": 0.3779527559055118,
                    "duration": 0.0996744999999919
                },
                {
                    "name": "B5",
                    "midi": 83,
                    "time": 152.20296150000055,
                    "velocity": 0.3779527559055118,
                    "duration": 0.0996744999999919
                },
                {
                    "name": "D5",
                    "midi": 74,
                    "time": 152.30263600000055,
                    "velocity": 0.4409448818897638,
                    "duration": 0.0996744999999919
                },
                {
                    "name": "B5",
                    "midi": 83,
                    "time": 152.40231050000054,
                    "velocity": 0.3700787401574803,
                    "duration": 0.0996744999999919
                },
                {
                    "name": "D5",
                    "midi": 74,
                    "time": 152.50198500000053,
                    "velocity": 0.3700787401574803,
                    "duration": 0.0996744999999919
                },
                {
                    "name": "B5",
                    "midi": 83,
                    "time": 152.60165950000052,
                    "velocity": 0.36220472440944884,
                    "duration": 0.0996744999999919
                },
                {
                    "name": "D5",
                    "midi": 74,
                    "time": 152.70133400000051,
                    "velocity": 0.4409448818897638,
                    "duration": 0.0996744999999919
                },
                {
                    "name": "B5",
                    "midi": 83,
                    "time": 152.8010085000005,
                    "velocity": 0.3700787401574803,
                    "duration": 0.0996744999999919
                },
                {
                    "name": "D5",
                    "midi": 74,
                    "time": 152.9006830000005,
                    "velocity": 0.3700787401574803,
                    "duration": 0.0996744999999919
                },
                {
                    "name": "B5",
                    "midi": 83,
                    "time": 153.0003575000005,
                    "velocity": 0.3700787401574803,
                    "duration": 0.0996744999999919
                },
                {
                    "name": "C#5",
                    "midi": 73,
                    "time": 153.10003200000048,
                    "velocity": 0.4409448818897638,
                    "duration": 0.0996744999999919
                },
                {
                    "name": "B5",
                    "midi": 83,
                    "time": 153.19970650000047,
                    "velocity": 0.3779527559055118,
                    "duration": 0.0996744999999919
                },
                {
                    "name": "C#5",
                    "midi": 73,
                    "time": 153.29938100000047,
                    "velocity": 0.3779527559055118,
                    "duration": 0.0996744999999919
                },
                {
                    "name": "B5",
                    "midi": 83,
                    "time": 153.39905550000046,
                    "velocity": 0.3779527559055118,
                    "duration": 0.0996744999999919
                },
                {
                    "name": "C#5",
                    "midi": 73,
                    "time": 153.49873000000045,
                    "velocity": 0.4409448818897638,
                    "duration": 0.0996744999999919
                },
                {
                    "name": "B5",
                    "midi": 83,
                    "time": 153.59840450000044,
                    "velocity": 0.3700787401574803,
                    "duration": 0.0996744999999919
                },
                {
                    "name": "C#5",
                    "midi": 73,
                    "time": 153.69807900000043,
                    "velocity": 0.3700787401574803,
                    "duration": 0.0996744999999919
                },
                {
                    "name": "A5",
                    "midi": 81,
                    "time": 153.79775350000043,
                    "velocity": 0.36220472440944884,
                    "duration": 0.0996744999999919
                },
                {
                    "name": "C#5",
                    "midi": 73,
                    "time": 153.89742800000042,
                    "velocity": 0.4409448818897638,
                    "duration": 0.0996744999999919
                },
                {
                    "name": "A5",
                    "midi": 81,
                    "time": 153.9971025000004,
                    "velocity": 0.3700787401574803,
                    "duration": 0.0996744999999919
                },
                {
                    "name": "C#5",
                    "midi": 73,
                    "time": 154.0967770000004,
                    "velocity": 0.3700787401574803,
                    "duration": 0.0996744999999919
                },
                {
                    "name": "A5",
                    "midi": 81,
                    "time": 154.1964515000004,
                    "velocity": 0.3700787401574803,
                    "duration": 0.0996744999999919
                },
                {
                    "name": "D#5",
                    "midi": 75,
                    "time": 154.29612600000038,
                    "velocity": 0.4409448818897638,
                    "duration": 0.0996744999999919
                },
                {
                    "name": "A5",
                    "midi": 81,
                    "time": 154.39580050000038,
                    "velocity": 0.3779527559055118,
                    "duration": 0.0996744999999919
                },
                {
                    "name": "E5",
                    "midi": 76,
                    "time": 154.49547500000037,
                    "velocity": 0.3779527559055118,
                    "duration": 0.0996744999999919
                },
                {
                    "name": "G5",
                    "midi": 79,
                    "time": 154.59514950000036,
                    "velocity": 0.3779527559055118,
                    "duration": 0.0996744999999919
                },
                {
                    "name": "E5",
                    "midi": 76,
                    "time": 154.69482400000035,
                    "velocity": 0.4409448818897638,
                    "duration": 0.0996744999999919
                },
                {
                    "name": "G5",
                    "midi": 79,
                    "time": 154.79449850000034,
                    "velocity": 0.3700787401574803,
                    "duration": 0.0996744999999919
                },
                {
                    "name": "B4",
                    "midi": 71,
                    "time": 154.89417300000034,
                    "velocity": 0.3700787401574803,
                    "duration": 0.0996744999999919
                },
                {
                    "name": "G5",
                    "midi": 79,
                    "time": 154.99384750000033,
                    "velocity": 0.36220472440944884,
                    "duration": 0.0996744999999919
                },
                {
                    "name": "B4",
                    "midi": 71,
                    "time": 155.09352200000032,
                    "velocity": 0.4409448818897638,
                    "duration": 0.0996744999999919
                },
                {
                    "name": "G5",
                    "midi": 79,
                    "time": 155.1931965000003,
                    "velocity": 0.3700787401574803,
                    "duration": 0.0996744999999919
                },
                {
                    "name": "C#5",
                    "midi": 73,
                    "time": 155.2928710000003,
                    "velocity": 0.3700787401574803,
                    "duration": 0.0996744999999919
                },
                {
                    "name": "G5",
                    "midi": 79,
                    "time": 155.3925455000003,
                    "velocity": 0.3700787401574803,
                    "duration": 0.0996744999999919
                },
                {
                    "name": "A4",
                    "midi": 69,
                    "time": 155.4922200000003,
                    "velocity": 0.4409448818897638,
                    "duration": 0.0996744999999919
                },
                {
                    "name": "G5",
                    "midi": 79,
                    "time": 155.59189450000028,
                    "velocity": 0.3779527559055118,
                    "duration": 0.0996744999999919
                },
                {
                    "name": "A4",
                    "midi": 69,
                    "time": 155.69156900000027,
                    "velocity": 0.3779527559055118,
                    "duration": 0.0996744999999919
                },
                {
                    "name": "G5",
                    "midi": 79,
                    "time": 155.79124350000026,
                    "velocity": 0.3779527559055118,
                    "duration": 0.0996744999999919
                },
                {
                    "name": "A4",
                    "midi": 69,
                    "time": 155.89091800000026,
                    "velocity": 0.4409448818897638,
                    "duration": 0.0996744999999919
                },
                {
                    "name": "G5",
                    "midi": 79,
                    "time": 155.99059250000025,
                    "velocity": 0.3700787401574803,
                    "duration": 0.0996744999999919
                },
                {
                    "name": "A4",
                    "midi": 69,
                    "time": 156.09026700000024,
                    "velocity": 0.3700787401574803,
                    "duration": 0.0996744999999919
                },
                {
                    "name": "F#5",
                    "midi": 78,
                    "time": 156.18994150000023,
                    "velocity": 0.36220472440944884,
                    "duration": 0.0996744999999919
                },
                {
                    "name": "A4",
                    "midi": 69,
                    "time": 156.28961600000022,
                    "velocity": 0.4409448818897638,
                    "duration": 0.0996744999999919
                },
                {
                    "name": "F#5",
                    "midi": 78,
                    "time": 156.38929050000021,
                    "velocity": 0.3700787401574803,
                    "duration": 0.0996744999999919
                },
                {
                    "name": "A4",
                    "midi": 69,
                    "time": 156.4889650000002,
                    "velocity": 0.3700787401574803,
                    "duration": 0.0996744999999919
                },
                {
                    "name": "F#5",
                    "midi": 78,
                    "time": 156.5886395000002,
                    "velocity": 0.3700787401574803,
                    "duration": 0.0996744999999919
                },
                {
                    "name": "B4",
                    "midi": 71,
                    "time": 156.6883140000002,
                    "velocity": 0.4409448818897638,
                    "duration": 0.0996744999999919
                },
                {
                    "name": "F#5",
                    "midi": 78,
                    "time": 156.78798850000018,
                    "velocity": 0.3779527559055118,
                    "duration": 0.0996744999999919
                },
                {
                    "name": "B4",
                    "midi": 71,
                    "time": 156.88766300000017,
                    "velocity": 0.3779527559055118,
                    "duration": 0.0996744999999919
                },
                {
                    "name": "E5",
                    "midi": 76,
                    "time": 156.98733750000017,
                    "velocity": 0.3779527559055118,
                    "duration": 0.0996744999999919
                },
                {
                    "name": "B4",
                    "midi": 71,
                    "time": 157.08701200000016,
                    "velocity": 0.4409448818897638,
                    "duration": 0.0996744999999919
                },
                {
                    "name": "D#5",
                    "midi": 75,
                    "time": 157.18668650000015,
                    "velocity": 0.3700787401574803,
                    "duration": 0.0996744999999919
                },
                {
                    "name": "E5",
                    "midi": 76,
                    "time": 157.28636100000014,
                    "velocity": 0.3700787401574803,
                    "duration": 0.0996744999999919
                },
                {
                    "name": "B5",
                    "midi": 83,
                    "time": 157.38603550000013,
                    "velocity": 0.36220472440944884,
                    "duration": 0.0996744999999919
                },
                {
                    "name": "E5",
                    "midi": 76,
                    "time": 157.48571000000013,
                    "velocity": 0.4409448818897638,
                    "duration": 0.0996744999999919
                },
                {
                    "name": "A5",
                    "midi": 81,
                    "time": 157.58538450000012,
                    "velocity": 0.3700787401574803,
                    "duration": 0.0996744999999919
                },
                {
                    "name": "E5",
                    "midi": 76,
                    "time": 157.6850590000001,
                    "velocity": 0.3700787401574803,
                    "duration": 0.0996744999999919
                },
                {
                    "name": "G#5",
                    "midi": 80,
                    "time": 157.7847335000001,
                    "velocity": 0.3700787401574803,
                    "duration": 0.0996744999999919
                },
                {
                    "name": "E5",
                    "midi": 76,
                    "time": 157.8844080000001,
                    "velocity": 0.4409448818897638,
                    "duration": 0.0996744999999919
                },
                {
                    "name": "A5",
                    "midi": 81,
                    "time": 157.98408250000008,
                    "velocity": 0.3779527559055118,
                    "duration": 0.0996744999999919
                },
                {
                    "name": "D5",
                    "midi": 74,
                    "time": 158.08375700000008,
                    "velocity": 0.3779527559055118,
                    "duration": 0.0996744999999919
                },
                {
                    "name": "A5",
                    "midi": 81,
                    "time": 158.18343150000007,
                    "velocity": 0.3779527559055118,
                    "duration": 0.0996744999999919
                },
                {
                    "name": "C#5",
                    "midi": 73,
                    "time": 158.28310600000006,
                    "velocity": 0.4409448818897638,
                    "duration": 0.0996744999999919
                },
                {
                    "name": "A5",
                    "midi": 81,
                    "time": 158.38278050000005,
                    "velocity": 0.3700787401574803,
                    "duration": 0.0996744999999919
                },
                {
                    "name": "G5",
                    "midi": 79,
                    "time": 158.48245500000004,
                    "velocity": 0.3700787401574803,
                    "duration": 0.0996744999999919
                },
                {
                    "name": "A#5",
                    "midi": 82,
                    "time": 158.58212950000004,
                    "velocity": 0.36220472440944884,
                    "duration": 0.0996744999999919
                },
                {
                    "name": "F#5",
                    "midi": 78,
                    "time": 158.68180400000003,
                    "velocity": 0.4409448818897638,
                    "duration": 0.0996744999999919
                },
                {
                    "name": "B5",
                    "midi": 83,
                    "time": 158.78147850000002,
                    "velocity": 0.3700787401574803,
                    "duration": 0.0996744999999919
                },
                {
                    "name": "E5",
                    "midi": 76,
                    "time": 158.881153,
                    "velocity": 0.3700787401574803,
                    "duration": 0.0996744999999919
                },
                {
                    "name": "C#6",
                    "midi": 85,
                    "time": 158.9808275,
                    "velocity": 0.3700787401574803,
                    "duration": 0.0996744999999919
                },
                {
                    "name": "D5",
                    "midi": 74,
                    "time": 159.080502,
                    "velocity": 0.4409448818897638,
                    "duration": 0.0996744999999919
                },
                {
                    "name": "C#6",
                    "midi": 85,
                    "time": 159.1801765,
                    "velocity": 0.3779527559055118,
                    "duration": 0.0996744999999919
                },
                {
                    "name": "D5",
                    "midi": 74,
                    "time": 159.27985099999998,
                    "velocity": 0.3779527559055118,
                    "duration": 0.0996744999999919
                },
                {
                    "name": "C#6",
                    "midi": 85,
                    "time": 159.37952549999997,
                    "velocity": 0.3779527559055118,
                    "duration": 0.0996744999999919
                },
                {
                    "name": "D5",
                    "midi": 74,
                    "time": 159.47919999999996,
                    "velocity": 0.4409448818897638,
                    "duration": 0.0996744999999919
                },
                {
                    "name": "B5",
                    "midi": 83,
                    "time": 159.57887449999996,
                    "velocity": 0.3700787401574803,
                    "duration": 0.0996744999999919
                },
                {
                    "name": "C#5",
                    "midi": 73,
                    "time": 159.67854899999995,
                    "velocity": 0.3700787401574803,
                    "duration": 0.0996744999999919
                },
                {
                    "name": "B5",
                    "midi": 83,
                    "time": 159.77822349999994,
                    "velocity": 0.36220472440944884,
                    "duration": 0.0996744999999919
                },
                {
                    "name": "C#5",
                    "midi": 73,
                    "time": 159.87789799999993,
                    "velocity": 0.4409448818897638,
                    "duration": 0.0996744999999919
                },
                {
                    "name": "B5",
                    "midi": 83,
                    "time": 159.97757249999992,
                    "velocity": 0.3700787401574803,
                    "duration": 0.0996744999999919
                },
                {
                    "name": "C#5",
                    "midi": 73,
                    "time": 160.07724699999991,
                    "velocity": 0.3700787401574803,
                    "duration": 0.0996744999999919
                },
                {
                    "name": "A5",
                    "midi": 81,
                    "time": 160.1769214999999,
                    "velocity": 0.3700787401574803,
                    "duration": 0.0996744999999919
                },
                {
                    "name": "B4",
                    "midi": 71,
                    "time": 160.2765959999999,
                    "velocity": 0.4409448818897638,
                    "duration": 0.0996744999999919
                },
                {
                    "name": "A5",
                    "midi": 81,
                    "time": 160.3762704999999,
                    "velocity": 0.3779527559055118,
                    "duration": 0.0996744999999919
                },
                {
                    "name": "B4",
                    "midi": 71,
                    "time": 160.47594499999988,
                    "velocity": 0.3779527559055118,
                    "duration": 0.0996744999999919
                },
                {
                    "name": "A5",
                    "midi": 81,
                    "time": 160.57561949999987,
                    "velocity": 0.3779527559055118,
                    "duration": 0.0996744999999919
                },
                {
                    "name": "B4",
                    "midi": 71,
                    "time": 160.67529399999987,
                    "velocity": 0.4409448818897638,
                    "duration": 0.0996744999999919
                },
                {
                    "name": "G5",
                    "midi": 79,
                    "time": 160.77496849999986,
                    "velocity": 0.3700787401574803,
                    "duration": 0.0996744999999919
                },
                {
                    "name": "A4",
                    "midi": 69,
                    "time": 160.87464299999985,
                    "velocity": 0.3700787401574803,
                    "duration": 0.0996744999999919
                },
                {
                    "name": "G5",
                    "midi": 79,
                    "time": 160.97431749999984,
                    "velocity": 0.36220472440944884,
                    "duration": 0.0996744999999919
                },
                {
                    "name": "A4",
                    "midi": 69,
                    "time": 161.07399199999983,
                    "velocity": 0.4409448818897638,
                    "duration": 0.0996744999999919
                },
                {
                    "name": "G5",
                    "midi": 79,
                    "time": 161.17366649999983,
                    "velocity": 0.3700787401574803,
                    "duration": 0.0996744999999919
                },
                {
                    "name": "A4",
                    "midi": 69,
                    "time": 161.27334099999982,
                    "velocity": 0.3700787401574803,
                    "duration": 0.0996744999999919
                },
                {
                    "name": "F#5",
                    "midi": 78,
                    "time": 161.3730154999998,
                    "velocity": 0.3700787401574803,
                    "duration": 0.0996744999999919
                },
                {
                    "name": "G4",
                    "midi": 67,
                    "time": 161.4726899999998,
                    "velocity": 0.4409448818897638,
                    "duration": 0.0996744999999919
                },
                {
                    "name": "F#5",
                    "midi": 78,
                    "time": 161.5723644999998,
                    "velocity": 0.3779527559055118,
                    "duration": 0.0996744999999919
                },
                {
                    "name": "G4",
                    "midi": 67,
                    "time": 161.67203899999978,
                    "velocity": 0.3779527559055118,
                    "duration": 0.0996744999999919
                },
                {
                    "name": "F#5",
                    "midi": 78,
                    "time": 161.77171349999978,
                    "velocity": 0.3779527559055118,
                    "duration": 0.0996744999999919
                },
                {
                    "name": "G4",
                    "midi": 67,
                    "time": 161.87138799999977,
                    "velocity": 0.4409448818897638,
                    "duration": 0.0996744999999919
                },
                {
                    "name": "E5",
                    "midi": 76,
                    "time": 161.97106249999976,
                    "velocity": 0.3700787401574803,
                    "duration": 0.0996744999999919
                },
                {
                    "name": "F#4",
                    "midi": 66,
                    "time": 162.07073699999975,
                    "velocity": 0.3700787401574803,
                    "duration": 0.0996744999999919
                },
                {
                    "name": "E5",
                    "midi": 76,
                    "time": 162.17041149999974,
                    "velocity": 0.36220472440944884,
                    "duration": 0.0996744999999919
                },
                {
                    "name": "F#4",
                    "midi": 66,
                    "time": 162.27008599999974,
                    "velocity": 0.4409448818897638,
                    "duration": 0.0996744999999919
                },
                {
                    "name": "E5",
                    "midi": 76,
                    "time": 162.36976049999973,
                    "velocity": 0.3700787401574803,
                    "duration": 0.0996744999999919
                },
                {
                    "name": "F#4",
                    "midi": 66,
                    "time": 162.46943499999972,
                    "velocity": 0.3700787401574803,
                    "duration": 0.0996744999999919
                },
                {
                    "name": "D5",
                    "midi": 74,
                    "time": 162.5691094999997,
                    "velocity": 0.3700787401574803,
                    "duration": 0.0996744999999919
                },
                {
                    "name": "E4",
                    "midi": 64,
                    "time": 162.6687839999997,
                    "velocity": 0.4409448818897638,
                    "duration": 0.0996744999999919
                },
                {
                    "name": "D5",
                    "midi": 74,
                    "time": 162.7684584999997,
                    "velocity": 0.3779527559055118,
                    "duration": 0.0996744999999919
                },
                {
                    "name": "E4",
                    "midi": 64,
                    "time": 162.8681329999997,
                    "velocity": 0.3779527559055118,
                    "duration": 0.0996744999999919
                },
                {
                    "name": "D5",
                    "midi": 74,
                    "time": 162.96780749999968,
                    "velocity": 0.3779527559055118,
                    "duration": 0.0996744999999919
                },
                {
                    "name": "E4",
                    "midi": 64,
                    "time": 163.06748199999967,
                    "velocity": 0.4409448818897638,
                    "duration": 0.0996744999999919
                },
                {
                    "name": "C5",
                    "midi": 72,
                    "time": 163.16715649999966,
                    "velocity": 0.3700787401574803,
                    "duration": 0.0996744999999919
                },
                {
                    "name": "D4",
                    "midi": 62,
                    "time": 163.26683099999966,
                    "velocity": 0.3700787401574803,
                    "duration": 0.0996744999999919
                },
                {
                    "name": "C5",
                    "midi": 72,
                    "time": 163.36650549999965,
                    "velocity": 0.36220472440944884,
                    "duration": 0.0996744999999919
                },
                {
                    "name": "D4",
                    "midi": 62,
                    "time": 163.46617999999964,
                    "velocity": 0.4409448818897638,
                    "duration": 0.0996744999999919
                },
                {
                    "name": "C5",
                    "midi": 72,
                    "time": 163.56585449999963,
                    "velocity": 0.3700787401574803,
                    "duration": 0.0996744999999919
                },
                {
                    "name": "D4",
                    "midi": 62,
                    "time": 163.66552899999962,
                    "velocity": 0.3700787401574803,
                    "duration": 0.0996744999999919
                },
                {
                    "name": "B4",
                    "midi": 71,
                    "time": 163.76520349999961,
                    "velocity": 0.3700787401574803,
                    "duration": 0.0996744999999919
                },
                {
                    "name": "E4",
                    "midi": 64,
                    "time": 163.8648779999996,
                    "velocity": 0.41732283464566927,
                    "duration": 0.0996744999999919
                },
                {
                    "name": "B4",
                    "midi": 71,
                    "time": 163.9645524999996,
                    "velocity": 0.3464566929133858,
                    "duration": 0.0996744999999919
                },
                {
                    "name": "A4",
                    "midi": 69,
                    "time": 164.0642269999996,
                    "velocity": 0.3543307086614173,
                    "duration": 0.0996744999999919
                },
                {
                    "name": "G#4",
                    "midi": 68,
                    "time": 164.16390149999958,
                    "velocity": 0.3543307086614173,
                    "duration": 0.0996744999999919
                },
                {
                    "name": "A4",
                    "midi": 69,
                    "time": 164.26357599999957,
                    "velocity": 0.36220472440944884,
                    "duration": 0.0996744999999919
                },
                {
                    "name": "B4",
                    "midi": 71,
                    "time": 164.36325049999957,
                    "velocity": 0.3700787401574803,
                    "duration": 0.0996744999999919
                },
                {
                    "name": "C5",
                    "midi": 72,
                    "time": 164.46292499999956,
                    "velocity": 0.3858267716535433,
                    "duration": 0.0996744999999919
                },
                {
                    "name": "D5",
                    "midi": 74,
                    "time": 164.56259949999955,
                    "velocity": 0.4015748031496063,
                    "duration": 0.0996744999999919
                },
                {
                    "name": "E5",
                    "midi": 76,
                    "time": 164.66227399999954,
                    "velocity": 0.4015748031496063,
                    "duration": 0.0996744999999919
                },
                {
                    "name": "C5",
                    "midi": 72,
                    "time": 164.76194849999953,
                    "velocity": 0.3937007874015748,
                    "duration": 0.0996744999999919
                },
                {
                    "name": "B4",
                    "midi": 71,
                    "time": 164.86162299999953,
                    "velocity": 0.3858267716535433,
                    "duration": 0.0996744999999919
                },
                {
                    "name": "A4",
                    "midi": 69,
                    "time": 164.96129749999952,
                    "velocity": 0.3779527559055118,
                    "duration": 0.0996744999999919
                },
                {
                    "name": "B3",
                    "midi": 59,
                    "time": 165.0609719999995,
                    "velocity": 0.4330708661417323,
                    "duration": 0.5980470000000082
                },
                {
                    "name": "G4",
                    "midi": 67,
                    "time": 165.0609719999995,
                    "velocity": 0.4330708661417323,
                    "duration": 0.5980470000000082
                },
                {
                    "name": "F#4",
                    "midi": 66,
                    "time": 165.65901899999952,
                    "velocity": 0.3700787401574803,
                    "duration": 0.1993490000000122
                },
                {
                    "name": "A3",
                    "midi": 57,
                    "time": 165.65901899999952,
                    "velocity": 0.3700787401574803,
                    "duration": 0.1993490000000122
                },
                {
                    "name": "D5",
                    "midi": 74,
                    "time": 166.45641499999954,
                    "velocity": 0.3779527559055118,
                    "duration": 0.0996744999999919
                },
                {
                    "name": "D5",
                    "midi": 74,
                    "time": 166.65576399999952,
                    "velocity": 0.3858267716535433,
                    "duration": 0.0996744999999919
                },
                {
                    "name": "D5",
                    "midi": 74,
                    "time": 166.8551129999995,
                    "velocity": 0.4015748031496063,
                    "duration": 0.0996744999999919
                },
                {
                    "name": "D5",
                    "midi": 74,
                    "time": 167.0544619999995,
                    "velocity": 0.4094488188976378,
                    "duration": 0.0996744999999919
                },
                {
                    "name": "D5",
                    "midi": 74,
                    "time": 167.25381099999947,
                    "velocity": 0.4251968503937008,
                    "duration": 0.0996744999999919
                },
                {
                    "name": "D5",
                    "midi": 74,
                    "time": 167.45315999999946,
                    "velocity": 0.4409448818897638,
                    "duration": 0.5980470000000082
                },
                {
                    "name": "F#4",
                    "midi": 66,
                    "time": 168.05120699999947,
                    "velocity": 0.4094488188976378,
                    "duration": 0.1993490000000122
                },
                {
                    "name": "G4",
                    "midi": 67,
                    "time": 168.84860299999949,
                    "velocity": 0.3937007874015748,
                    "duration": 0.0996744999999919
                },
                {
                    "name": "B4",
                    "midi": 71,
                    "time": 169.04795199999947,
                    "velocity": 0.4015748031496063,
                    "duration": 0.0996744999999919
                },
                {
                    "name": "D5",
                    "midi": 74,
                    "time": 169.24730099999945,
                    "velocity": 0.41732283464566927,
                    "duration": 0.0996744999999919
                },
                {
                    "name": "G5",
                    "midi": 79,
                    "time": 169.44664999999944,
                    "velocity": 0.4251968503937008,
                    "duration": 0.0996744999999919
                },
                {
                    "name": "B5",
                    "midi": 83,
                    "time": 169.64599899999942,
                    "velocity": 0.4409448818897638,
                    "duration": 0.0996744999999919
                },
                {
                    "name": "D6",
                    "midi": 86,
                    "time": 169.8453479999994,
                    "velocity": 0.44881889763779526,
                    "duration": 0.5980470000000082
                },
                {
                    "name": "C6",
                    "midi": 84,
                    "time": 170.4433949999994,
                    "velocity": 0.4330708661417323,
                    "duration": 0.1993490000000122
                },
                {
                    "name": "B5",
                    "midi": 83,
                    "time": 171.24079099999943,
                    "velocity": 0.4094488188976378,
                    "duration": 0.0996744999999919
                },
                {
                    "name": "C6",
                    "midi": 84,
                    "time": 171.34046549999942,
                    "velocity": 0.4251968503937008,
                    "duration": 0.0996744999999919
                },
                {
                    "name": "D6",
                    "midi": 86,
                    "time": 171.44013999999942,
                    "velocity": 0.4330708661417323,
                    "duration": 0.0996744999999919
                },
                {
                    "name": "B5",
                    "midi": 83,
                    "time": 171.5398144999994,
                    "velocity": 0.4015748031496063,
                    "duration": 0.0996744999999919
                },
                {
                    "name": "G5",
                    "midi": 79,
                    "time": 171.6394889999994,
                    "velocity": 0.4330708661417323,
                    "duration": 0.0996744999999919
                },
                {
                    "name": "G5",
                    "midi": 79,
                    "time": 171.83883799999938,
                    "velocity": 0.41732283464566927,
                    "duration": 0.0996744999999919
                },
                {
                    "name": "A5",
                    "midi": 81,
                    "time": 171.93851249999938,
                    "velocity": 0.4330708661417323,
                    "duration": 0.0996744999999919
                },
                {
                    "name": "B5",
                    "midi": 83,
                    "time": 172.03818699999937,
                    "velocity": 0.4566929133858268,
                    "duration": 0.0996744999999919
                },
                {
                    "name": "G5",
                    "midi": 79,
                    "time": 172.13786149999936,
                    "velocity": 0.4094488188976378,
                    "duration": 0.0996744999999919
                },
                {
                    "name": "E5",
                    "midi": 76,
                    "time": 172.23753599999935,
                    "velocity": 0.4330708661417323,
                    "duration": 0.0996744999999919
                },
                {
                    "name": "E5",
                    "midi": 76,
                    "time": 172.43688499999934,
                    "velocity": 0.4015748031496063,
                    "duration": 0.0996744999999919
                },
                {
                    "name": "F#5",
                    "midi": 78,
                    "time": 172.53655949999933,
                    "velocity": 0.4251968503937008,
                    "duration": 0.0996744999999919
                },
                {
                    "name": "G5",
                    "midi": 79,
                    "time": 172.63623399999932,
                    "velocity": 0.4409448818897638,
                    "duration": 0.0996744999999919
                },
                {
                    "name": "E5",
                    "midi": 76,
                    "time": 172.7359084999993,
                    "velocity": 0.4015748031496063,
                    "duration": 0.0996744999999919
                },
                {
                    "name": "C#5",
                    "midi": 73,
                    "time": 172.8355829999993,
                    "velocity": 0.4330708661417323,
                    "duration": 0.0996744999999919
                },
                {
                    "name": "C#5",
                    "midi": 73,
                    "time": 173.0349319999993,
                    "velocity": 0.4015748031496063,
                    "duration": 0.0996744999999919
                },
                {
                    "name": "D5",
                    "midi": 74,
                    "time": 173.13460649999928,
                    "velocity": 0.41732283464566927,
                    "duration": 0.0996744999999919
                },
                {
                    "name": "E5",
                    "midi": 76,
                    "time": 173.23428099999927,
                    "velocity": 0.4409448818897638,
                    "duration": 0.0996744999999919
                },
                {
                    "name": "C#5",
                    "midi": 73,
                    "time": 173.33395549999926,
                    "velocity": 0.4094488188976378,
                    "duration": 0.0996744999999919
                },
                {
                    "name": "D5",
                    "midi": 74,
                    "time": 173.43362999999925,
                    "velocity": 0.4251968503937008,
                    "duration": 0.1993490000000122
                },
                {
                    "name": "E5",
                    "midi": 76,
                    "time": 173.63297899999927,
                    "velocity": 0.4409448818897638,
                    "duration": 0.1993490000000122
                },
                {
                    "name": "F#5",
                    "midi": 78,
                    "time": 173.83232799999928,
                    "velocity": 0.4566929133858268,
                    "duration": 0.1993490000000122
                },
                {
                    "name": "G5",
                    "midi": 79,
                    "time": 174.0316769999993,
                    "velocity": 0.48031496062992124,
                    "duration": 0.1993490000000122
                },
                {
                    "name": "E5",
                    "midi": 76,
                    "time": 174.2310259999993,
                    "velocity": 0.4566929133858268,
                    "duration": 0.0996744999999919
                },
                {
                    "name": "C5",
                    "midi": 72,
                    "time": 174.4303749999993,
                    "velocity": 0.4251968503937008,
                    "duration": 0.0996744999999919
                },
                {
                    "name": "G4",
                    "midi": 67,
                    "time": 174.62972399999927,
                    "velocity": 0.4330708661417323,
                    "duration": 0.5980470000000082
                },
                {
                    "name": "B4",
                    "midi": 71,
                    "time": 174.62972399999927,
                    "velocity": 0.4330708661417323,
                    "duration": 0.5980470000000082
                },
                {
                    "name": "F#4",
                    "midi": 66,
                    "time": 175.22777099999928,
                    "velocity": 0.3937007874015748,
                    "duration": 0.1993490000000122
                },
                {
                    "name": "A4",
                    "midi": 69,
                    "time": 175.22777099999928,
                    "velocity": 0.3937007874015748,
                    "duration": 0.1993490000000122
                },
                {
                    "name": "D5",
                    "midi": 74,
                    "time": 176.0251669999993,
                    "velocity": 0.3779527559055118,
                    "duration": 0.0996744999999919
                },
                {
                    "name": "D5",
                    "midi": 74,
                    "time": 176.22451599999928,
                    "velocity": 0.3858267716535433,
                    "duration": 0.0996744999999919
                },
                {
                    "name": "E5",
                    "midi": 76,
                    "time": 176.42386499999927,
                    "velocity": 0.4015748031496063,
                    "duration": 0.04983724999999595
                },
                {
                    "name": "F#5",
                    "midi": 78,
                    "time": 176.47370224999926,
                    "velocity": 0.4015748031496063,
                    "duration": 0.04983724999999595
                },
                {
                    "name": "E5",
                    "midi": 76,
                    "time": 176.52353949999926,
                    "velocity": 0.4015748031496063,
                    "duration": 0.0996744999999919
                },
                {
                    "name": "D5",
                    "midi": 74,
                    "time": 176.62321399999925,
                    "velocity": 0.4094488188976378,
                    "duration": 0.0996744999999919
                },
                {
                    "name": "D5",
                    "midi": 74,
                    "time": 176.82256299999923,
                    "velocity": 0.4251968503937008,
                    "duration": 0.0996744999999919
                },
                {
                    "name": "D5",
                    "midi": 74,
                    "time": 177.02191199999922,
                    "velocity": 0.4409448818897638,
                    "duration": 0.5980470000000082
                },
                {
                    "name": "F#4",
                    "midi": 66,
                    "time": 177.61995899999923,
                    "velocity": 0.4094488188976378,
                    "duration": 0.1993490000000122
                },
                {
                    "name": "G4",
                    "midi": 67,
                    "time": 178.31768049999923,
                    "velocity": 0.3937007874015748,
                    "duration": 0.0996744999999919
                },
                {
                    "name": "B4",
                    "midi": 71,
                    "time": 178.41735499999922,
                    "velocity": 0.4094488188976378,
                    "duration": 0.0996744999999919
                },
                {
                    "name": "G4",
                    "midi": 67,
                    "time": 178.5170294999992,
                    "velocity": 0.4094488188976378,
                    "duration": 0.0996744999999919
                },
                {
                    "name": "D5",
                    "midi": 74,
                    "time": 178.6167039999992,
                    "velocity": 0.41732283464566927,
                    "duration": 0.0996744999999919
                },
                {
                    "name": "B4",
                    "midi": 71,
                    "time": 178.7163784999992,
                    "velocity": 0.4251968503937008,
                    "duration": 0.0996744999999919
                },
                {
                    "name": "G5",
                    "midi": 79,
                    "time": 178.8160529999992,
                    "velocity": 0.4330708661417323,
                    "duration": 0.0996744999999919
                },
                {
                    "name": "D5",
                    "midi": 74,
                    "time": 178.91572749999918,
                    "velocity": 0.4409448818897638,
                    "duration": 0.0996744999999919
                },
                {
                    "name": "B5",
                    "midi": 83,
                    "time": 179.01540199999917,
                    "velocity": 0.44881889763779526,
                    "duration": 0.0996744999999919
                },
                {
                    "name": "G5",
                    "midi": 79,
                    "time": 179.11507649999916,
                    "velocity": 0.4566929133858268,
                    "duration": 0.0996744999999919
                },
                {
                    "name": "D6",
                    "midi": 86,
                    "time": 179.21475099999915,
                    "velocity": 0.4645669291338583,
                    "duration": 0.0996744999999919
                },
                {
                    "name": "B5",
                    "midi": 83,
                    "time": 179.31442549999915,
                    "velocity": 0.47244094488188976,
                    "duration": 0.0996744999999919
                },
                {
                    "name": "D6",
                    "midi": 86,
                    "time": 179.41409999999914,
                    "velocity": 0.5196850393700787,
                    "duration": 0.4983724999999879
                },
                {
                    "name": "C#6",
                    "midi": 85,
                    "time": 179.91247249999913,
                    "velocity": 0.44881889763779526,
                    "duration": 0.0996744999999919
                },
                {
                    "name": "C6",
                    "midi": 84,
                    "time": 180.01214699999912,
                    "velocity": 0.5039370078740157,
                    "duration": 0.1993490000000122
                },
                {
                    "name": "B5",
                    "midi": 83,
                    "time": 180.80954299999914,
                    "velocity": 0.4094488188976378,
                    "duration": 0.0996744999999919
                },
                {
                    "name": "C6",
                    "midi": 84,
                    "time": 180.90921749999913,
                    "velocity": 0.4251968503937008,
                    "duration": 0.0996744999999919
                },
                {
                    "name": "D6",
                    "midi": 86,
                    "time": 181.00889199999912,
                    "velocity": 0.4330708661417323,
                    "duration": 0.0996744999999919
                },
                {
                    "name": "B5",
                    "midi": 83,
                    "time": 181.1085664999991,
                    "velocity": 0.4015748031496063,
                    "duration": 0.0996744999999919
                },
                {
                    "name": "G5",
                    "midi": 79,
                    "time": 181.2082409999991,
                    "velocity": 0.4330708661417323,
                    "duration": 0.0996744999999919
                },
                {
                    "name": "G5",
                    "midi": 79,
                    "time": 181.4075899999991,
                    "velocity": 0.41732283464566927,
                    "duration": 0.0996744999999919
                },
                {
                    "name": "A5",
                    "midi": 81,
                    "time": 181.50726449999908,
                    "velocity": 0.4330708661417323,
                    "duration": 0.0996744999999919
                },
                {
                    "name": "B5",
                    "midi": 83,
                    "time": 181.60693899999907,
                    "velocity": 0.4566929133858268,
                    "duration": 0.0996744999999919
                },
                {
                    "name": "G5",
                    "midi": 79,
                    "time": 181.70661349999907,
                    "velocity": 0.4094488188976378,
                    "duration": 0.0996744999999919
                },
                {
                    "name": "E5",
                    "midi": 76,
                    "time": 181.80628799999906,
                    "velocity": 0.4330708661417323,
                    "duration": 0.0996744999999919
                },
                {
                    "name": "E5",
                    "midi": 76,
                    "time": 182.00563699999904,
                    "velocity": 0.4015748031496063,
                    "duration": 0.0996744999999919
                },
                {
                    "name": "F#5",
                    "midi": 78,
                    "time": 182.10531149999903,
                    "velocity": 0.4251968503937008,
                    "duration": 0.0996744999999919
                },
                {
                    "name": "G5",
                    "midi": 79,
                    "time": 182.20498599999902,
                    "velocity": 0.4409448818897638,
                    "duration": 0.0996744999999919
                },
                {
                    "name": "E5",
                    "midi": 76,
                    "time": 182.30466049999902,
                    "velocity": 0.4015748031496063,
                    "duration": 0.0996744999999919
                },
                {
                    "name": "C#5",
                    "midi": 73,
                    "time": 182.404334999999,
                    "velocity": 0.4330708661417323,
                    "duration": 0.0996744999999919
                },
                {
                    "name": "C#5",
                    "midi": 73,
                    "time": 182.603683999999,
                    "velocity": 0.4015748031496063,
                    "duration": 0.0996744999999919
                },
                {
                    "name": "D5",
                    "midi": 74,
                    "time": 182.70335849999898,
                    "velocity": 0.41732283464566927,
                    "duration": 0.0996744999999919
                },
                {
                    "name": "E5",
                    "midi": 76,
                    "time": 182.80303299999898,
                    "velocity": 0.4409448818897638,
                    "duration": 0.0996744999999919
                },
                {
                    "name": "C#5",
                    "midi": 73,
                    "time": 182.90270749999897,
                    "velocity": 0.4094488188976378,
                    "duration": 0.0996744999999919
                },
                {
                    "name": "D5",
                    "midi": 74,
                    "time": 183.00238199999896,
                    "velocity": 0.4251968503937008,
                    "duration": 0.1993490000000122
                },
                {
                    "name": "C#5",
                    "midi": 73,
                    "time": 183.20173099999897,
                    "velocity": 0.4409448818897638,
                    "duration": 0.1993490000000122
                },
                {
                    "name": "C5",
                    "midi": 72,
                    "time": 183.40107999999898,
                    "velocity": 0.4566929133858268,
                    "duration": 0.1993490000000122
                },
                {
                    "name": "B4",
                    "midi": 71,
                    "time": 183.600428999999,
                    "velocity": 0.48031496062992124,
                    "duration": 0.1993490000000122
                },
                {
                    "name": "C5",
                    "midi": 72,
                    "time": 183.799777999999,
                    "velocity": 0.4566929133858268,
                    "duration": 0.1993490000000122
                },
                {
                    "name": "A4",
                    "midi": 69,
                    "time": 183.99912699999902,
                    "velocity": 0.4330708661417323,
                    "duration": 0.03322483333332116
                },
                {
                    "name": "B4",
                    "midi": 71,
                    "time": 184.03235183333234,
                    "velocity": 0.3937007874015748,
                    "duration": 0.03322483333332116
                },
                {
                    "name": "A4",
                    "midi": 69,
                    "time": 184.06557666666566,
                    "velocity": 0.4015748031496063,
                    "duration": 0.03322483333332116
                },
                {
                    "name": "G4",
                    "midi": 67,
                    "time": 184.09880149999898,
                    "velocity": 0.4251968503937008,
                    "duration": 0.04983724999999595
                },
                {
                    "name": "A4",
                    "midi": 69,
                    "time": 184.14863874999898,
                    "velocity": 0.3858267716535433,
                    "duration": 0.04983724999999595
                },
                {
                    "name": "G4",
                    "midi": 67,
                    "time": 184.19847599999898,
                    "velocity": 0.4330708661417323,
                    "duration": 0.0996744999999919
                },
                {
                    "name": "B3",
                    "midi": 59,
                    "time": 184.59717399999897,
                    "velocity": 0.5196850393700787,
                    "duration": 0.0996744999999919
                },
                {
                    "name": "D4",
                    "midi": 62,
                    "time": 184.69684849999896,
                    "velocity": 0.5196850393700787,
                    "duration": 0.0996744999999919
                },
                {
                    "name": "G4",
                    "midi": 67,
                    "time": 184.79652299999896,
                    "velocity": 0.5748031496062992,
                    "duration": 0.0996744999999919
                },
                {
                    "name": "D4",
                    "midi": 62,
                    "time": 185.19522099999895,
                    "velocity": 0.5511811023622047,
                    "duration": 0.0996744999999919
                },
                {
                    "name": "G4",
                    "midi": 67,
                    "time": 185.29489549999894,
                    "velocity": 0.5511811023622047,
                    "duration": 0.0996744999999919
                },
                {
                    "name": "B4",
                    "midi": 71,
                    "time": 185.39456999999894,
                    "velocity": 0.5905511811023622,
                    "duration": 0.0996744999999919
                },
                {
                    "name": "G4",
                    "midi": 67,
                    "time": 185.79326799999893,
                    "velocity": 0.5433070866141733,
                    "duration": 0.0996744999999919
                },
                {
                    "name": "B4",
                    "midi": 71,
                    "time": 185.89294249999892,
                    "velocity": 0.5433070866141733,
                    "duration": 0.0996744999999919
                },
                {
                    "name": "D5",
                    "midi": 74,
                    "time": 185.99261699999892,
                    "velocity": 0.6377952755905512,
                    "duration": 0.0996744999999919
                },
                {
                    "name": "B4",
                    "midi": 71,
                    "time": 186.3913149999989,
                    "velocity": 0.5511811023622047,
                    "duration": 0.0996744999999919
                },
                {
                    "name": "D5",
                    "midi": 74,
                    "time": 186.4909894999989,
                    "velocity": 0.5511811023622047,
                    "duration": 0.0996744999999919
                },
                {
                    "name": "G5",
                    "midi": 79,
                    "time": 186.5906639999989,
                    "velocity": 0.6456692913385826,
                    "duration": 0.0996744999999919
                },
                {
                    "name": "B5",
                    "midi": 83,
                    "time": 187.78675799999888,
                    "velocity": 0.3543307086614173,
                    "duration": 0.4983724999999879
                },
                {
                    "name": "C6",
                    "midi": 84,
                    "time": 188.28513049999887,
                    "velocity": 0.33070866141732286,
                    "duration": 0.0996744999999919
                },
                {
                    "name": "E5",
                    "midi": 76,
                    "time": 188.38480499999886,
                    "velocity": 0.3700787401574803,
                    "duration": 0.398697999999996
                },
                {
                    "name": "D#5",
                    "midi": 75,
                    "time": 188.78350299999886,
                    "velocity": 0.3700787401574803,
                    "duration": 0.1993490000000122
                },
                {
                    "name": "E5",
                    "midi": 76,
                    "time": 188.98285199999887,
                    "velocity": 0.4330708661417323,
                    "duration": 0.14951174999998784
                },
                {
                    "name": "E6",
                    "midi": 88,
                    "time": 189.18220099999886,
                    "velocity": 0.4251968503937008,
                    "duration": 0.0996744999999919
                },
                {
                    "name": "D6",
                    "midi": 86,
                    "time": 189.38154999999884,
                    "velocity": 0.4094488188976378,
                    "duration": 0.0996744999999919
                },
                {
                    "name": "C6",
                    "midi": 84,
                    "time": 189.58089899999882,
                    "velocity": 0.3937007874015748,
                    "duration": 0.0996744999999919
                },
                {
                    "name": "B5",
                    "midi": 83,
                    "time": 189.7802479999988,
                    "velocity": 0.3858267716535433,
                    "duration": 0.0996744999999919
                },
                {
                    "name": "A#5",
                    "midi": 82,
                    "time": 189.9795969999988,
                    "velocity": 0.3700787401574803,
                    "duration": 0.0996744999999919
                },
                {
                    "name": "B5",
                    "midi": 83,
                    "time": 190.17894599999877,
                    "velocity": 0.3543307086614173,
                    "duration": 0.24918625000000816
                },
                {
                    "name": "C6",
                    "midi": 84,
                    "time": 190.42813224999878,
                    "velocity": 0.2755905511811024,
                    "duration": 0.04983724999999595
                },
                {
                    "name": "B5",
                    "midi": 83,
                    "time": 190.47796949999878,
                    "velocity": 0.2755905511811024,
                    "duration": 0.04983724999999595
                },
                {
                    "name": "A#5",
                    "midi": 82,
                    "time": 190.52780674999877,
                    "velocity": 0.2755905511811024,
                    "duration": 0.04983724999999595
                },
                {
                    "name": "B5",
                    "midi": 83,
                    "time": 190.57764399999877,
                    "velocity": 0.3543307086614173,
                    "duration": 0.0996744999999919
                },
                {
                    "name": "C6",
                    "midi": 84,
                    "time": 190.67731849999876,
                    "velocity": 0.33070866141732286,
                    "duration": 0.0996744999999919
                },
                {
                    "name": "E5",
                    "midi": 76,
                    "time": 190.77699299999875,
                    "velocity": 0.3700787401574803,
                    "duration": 0.398697999999996
                },
                {
                    "name": "D#5",
                    "midi": 75,
                    "time": 191.1989483833321,
                    "velocity": 0.3700787401574803,
                    "duration": 0.1993490000000122
                },
                {
                    "name": "E5",
                    "midi": 76,
                    "time": 191.37503999999876,
                    "velocity": 0.4330708661417323,
                    "duration": 0.14951175000001626
                },
                {
                    "name": "E6",
                    "midi": 88,
                    "time": 191.57438899999877,
                    "velocity": 0.4251968503937008,
                    "duration": 0.0996744999999919
                },
                {
                    "name": "D6",
                    "midi": 86,
                    "time": 191.77373799999876,
                    "velocity": 0.4094488188976378,
                    "duration": 0.0996744999999919
                },
                {
                    "name": "C6",
                    "midi": 84,
                    "time": 191.97308699999874,
                    "velocity": 0.3937007874015748,
                    "duration": 0.0996744999999919
                },
                {
                    "name": "B5",
                    "midi": 83,
                    "time": 192.17243599999873,
                    "velocity": 0.3858267716535433,
                    "duration": 0.0996744999999919
                },
                {
                    "name": "A#5",
                    "midi": 82,
                    "time": 192.3717849999987,
                    "velocity": 0.3700787401574803,
                    "duration": 0.0996744999999919
                },
                {
                    "name": "A5",
                    "midi": 81,
                    "time": 192.5711339999987,
                    "velocity": 0.3543307086614173,
                    "duration": 0.24918625000000816
                },
                {
                    "name": "B5",
                    "midi": 83,
                    "time": 192.8203202499987,
                    "velocity": 0.2755905511811024,
                    "duration": 0.04983724999999595
                },
                {
                    "name": "A5",
                    "midi": 81,
                    "time": 192.8701574999987,
                    "velocity": 0.2755905511811024,
                    "duration": 0.04983724999999595
                },
                {
                    "name": "G#5",
                    "midi": 80,
                    "time": 192.9199947499987,
                    "velocity": 0.2755905511811024,
                    "duration": 0.04983724999999595
                },
                {
                    "name": "A5",
                    "midi": 81,
                    "time": 192.9698319999987,
                    "velocity": 0.3543307086614173,
                    "duration": 0.0996744999999919
                },
                {
                    "name": "B5",
                    "midi": 83,
                    "time": 193.06950649999868,
                    "velocity": 0.33070866141732286,
                    "duration": 0.0996744999999919
                },
                {
                    "name": "D5",
                    "midi": 74,
                    "time": 193.16918099999867,
                    "velocity": 0.3700787401574803,
                    "duration": 0.398697999999996
                },
                {
                    "name": "C#5",
                    "midi": 73,
                    "time": 193.591136383332,
                    "velocity": 0.3700787401574803,
                    "duration": 0.1993490000000122
                },
                {
                    "name": "D5",
                    "midi": 74,
                    "time": 193.76722799999868,
                    "velocity": 0.4330708661417323,
                    "duration": 0.14951175000001626
                },
                {
                    "name": "D6",
                    "midi": 86,
                    "time": 193.9665769999987,
                    "velocity": 0.4251968503937008,
                    "duration": 0.0996744999999919
                },
                {
                    "name": "C#6",
                    "midi": 85,
                    "time": 194.16592599999868,
                    "velocity": 0.4094488188976378,
                    "duration": 0.0996744999999919
                },
                {
                    "name": "B5",
                    "midi": 83,
                    "time": 194.36527499999866,
                    "velocity": 0.3937007874015748,
                    "duration": 0.0996744999999919
                },
                {
                    "name": "A5",
                    "midi": 81,
                    "time": 194.56462399999864,
                    "velocity": 0.3858267716535433,
                    "duration": 0.0996744999999919
                },
                {
                    "name": "G#5",
                    "midi": 80,
                    "time": 194.76397299999863,
                    "velocity": 0.3700787401574803,
                    "duration": 0.0996744999999919
                },
                {
                    "name": "A5",
                    "midi": 81,
                    "time": 194.9633219999986,
                    "velocity": 0.3543307086614173,
                    "duration": 0.24918625000000816
                },
                {
                    "name": "B5",
                    "midi": 83,
                    "time": 195.21250824999862,
                    "velocity": 0.2755905511811024,
                    "duration": 0.04983724999999595
                },
                {
                    "name": "A5",
                    "midi": 81,
                    "time": 195.26234549999862,
                    "velocity": 0.2755905511811024,
                    "duration": 0.04983724999999595
                },
                {
                    "name": "G#5",
                    "midi": 80,
                    "time": 195.3121827499986,
                    "velocity": 0.2755905511811024,
                    "duration": 0.04983724999999595
                },
                {
                    "name": "A5",
                    "midi": 81,
                    "time": 195.3620199999986,
                    "velocity": 0.3543307086614173,
                    "duration": 0.0996744999999919
                },
                {
                    "name": "B5",
                    "midi": 83,
                    "time": 195.4616944999986,
                    "velocity": 0.33070866141732286,
                    "duration": 0.0996744999999919
                },
                {
                    "name": "D5",
                    "midi": 74,
                    "time": 195.5613689999986,
                    "velocity": 0.3700787401574803,
                    "duration": 0.398697999999996
                },
                {
                    "name": "C#5",
                    "midi": 73,
                    "time": 195.98332438333193,
                    "velocity": 0.3700787401574803,
                    "duration": 0.1993490000000122
                },
                {
                    "name": "D5",
                    "midi": 74,
                    "time": 196.1594159999986,
                    "velocity": 0.4330708661417323,
                    "duration": 0.14951175000001626
                },
                {
                    "name": "F#5",
                    "midi": 78,
                    "time": 196.3587649999986,
                    "velocity": 0.4251968503937008,
                    "duration": 0.0996744999999919
                },
                {
                    "name": "E5",
                    "midi": 76,
                    "time": 196.5581139999986,
                    "velocity": 0.4094488188976378,
                    "duration": 0.0996744999999919
                },
                {
                    "name": "D5",
                    "midi": 74,
                    "time": 196.75746299999858,
                    "velocity": 0.3937007874015748,
                    "duration": 0.0996744999999919
                },
                {
                    "name": "C#5",
                    "midi": 73,
                    "time": 196.95681199999856,
                    "velocity": 0.3858267716535433,
                    "duration": 0.0996744999999919
                },
                {
                    "name": "B4",
                    "midi": 71,
                    "time": 197.15616099999855,
                    "velocity": 0.3700787401574803,
                    "duration": 0.0996744999999919
                },
                {
                    "name": "E5",
                    "midi": 76,
                    "time": 197.35550999999853,
                    "velocity": 0.3543307086614173,
                    "duration": 0.24918625000000816
                },
                {
                    "name": "F#5",
                    "midi": 78,
                    "time": 197.60469624999854,
                    "velocity": 0.2755905511811024,
                    "duration": 0.04983724999999595
                },
                {
                    "name": "E5",
                    "midi": 76,
                    "time": 197.65453349999854,
                    "velocity": 0.2755905511811024,
                    "duration": 0.04983724999999595
                },
                {
                    "name": "D#5",
                    "midi": 75,
                    "time": 197.70437074999853,
                    "velocity": 0.2755905511811024,
                    "duration": 0.04983724999999595
                },
                {
                    "name": "E5",
                    "midi": 76,
                    "time": 197.75420799999853,
                    "velocity": 0.3543307086614173,
                    "duration": 0.0996744999999919
                },
                {
                    "name": "F#5",
                    "midi": 78,
                    "time": 197.85388249999852,
                    "velocity": 0.33070866141732286,
                    "duration": 0.0996744999999919
                },
                {
                    "name": "A4",
                    "midi": 69,
                    "time": 197.9535569999985,
                    "velocity": 0.3700787401574803,
                    "duration": 0.398697999999996
                },
                {
                    "name": "G#4",
                    "midi": 68,
                    "time": 198.3522549999985,
                    "velocity": 0.3700787401574803,
                    "duration": 0.1993490000000122
                },
                {
                    "name": "A4",
                    "midi": 69,
                    "time": 198.55160399999852,
                    "velocity": 0.4330708661417323,
                    "duration": 0.14951174999998784
                },
                {
                    "name": "A5",
                    "midi": 81,
                    "time": 198.7509529999985,
                    "velocity": 0.4251968503937008,
                    "duration": 0.0996744999999919
                },
                {
                    "name": "G#5",
                    "midi": 80,
                    "time": 198.9503019999985,
                    "velocity": 0.4094488188976378,
                    "duration": 0.0996744999999919
                },
                {
                    "name": "F#5",
                    "midi": 78,
                    "time": 199.14965099999847,
                    "velocity": 0.3937007874015748,
                    "duration": 0.0996744999999919
                },
                {
                    "name": "E5",
                    "midi": 76,
                    "time": 199.34899999999845,
                    "velocity": 0.3858267716535433,
                    "duration": 0.0996744999999919
                },
                {
                    "name": "D#5",
                    "midi": 75,
                    "time": 199.54834899999844,
                    "velocity": 0.3700787401574803,
                    "duration": 0.0996744999999919
                },
                {
                    "name": "E5",
                    "midi": 76,
                    "time": 199.74769799999842,
                    "velocity": 0.3543307086614173,
                    "duration": 0.24918625000000816
                },
                {
                    "name": "F#5",
                    "midi": 78,
                    "time": 199.99688424999843,
                    "velocity": 0.2755905511811024,
                    "duration": 0.04983724999999595
                },
                {
                    "name": "E5",
                    "midi": 76,
                    "time": 200.04672149999843,
                    "velocity": 0.2755905511811024,
                    "duration": 0.04983724999999595
                },
                {
                    "name": "D#5",
                    "midi": 75,
                    "time": 200.09655874999842,
                    "velocity": 0.2755905511811024,
                    "duration": 0.04983724999999595
                },
                {
                    "name": "E5",
                    "midi": 76,
                    "time": 200.14639599999842,
                    "velocity": 0.3543307086614173,
                    "duration": 0.0996744999999919
                },
                {
                    "name": "F#5",
                    "midi": 78,
                    "time": 200.2460704999984,
                    "velocity": 0.33070866141732286,
                    "duration": 0.0996744999999919
                },
                {
                    "name": "A4",
                    "midi": 69,
                    "time": 200.3457449999984,
                    "velocity": 0.3700787401574803,
                    "duration": 0.398697999999996
                },
                {
                    "name": "G#4",
                    "midi": 68,
                    "time": 200.7444429999984,
                    "velocity": 0.3700787401574803,
                    "duration": 0.1993490000000122
                },
                {
                    "name": "A4",
                    "midi": 69,
                    "time": 200.9437919999984,
                    "velocity": 0.28346456692913385,
                    "duration": 0.0996744999999919
                },
                {
                    "name": "E4",
                    "midi": 64,
                    "time": 201.0434664999984,
                    "velocity": 0.2204724409448819,
                    "duration": 0.0996744999999919
                },
                {
                    "name": "C#4",
                    "midi": 61,
                    "time": 201.1431409999984,
                    "velocity": 0.2204724409448819,
                    "duration": 0.0996744999999919
                },
                {
                    "name": "E4",
                    "midi": 64,
                    "time": 201.2428154999984,
                    "velocity": 0.2204724409448819,
                    "duration": 0.0996744999999919
                },
                {
                    "name": "A4",
                    "midi": 69,
                    "time": 201.34248999999838,
                    "velocity": 0.2204724409448819,
                    "duration": 0.0996744999999919
                },
                {
                    "name": "E4",
                    "midi": 64,
                    "time": 201.44216449999837,
                    "velocity": 0.2204724409448819,
                    "duration": 0.0996744999999919
                },
                {
                    "name": "A4",
                    "midi": 69,
                    "time": 201.54183899999836,
                    "velocity": 0.28346456692913385,
                    "duration": 0.0996744999999919
                },
                {
                    "name": "E4",
                    "midi": 64,
                    "time": 201.64151349999835,
                    "velocity": 0.2125984251968504,
                    "duration": 0.0996744999999919
                },
                {
                    "name": "C#4",
                    "midi": 61,
                    "time": 201.74118799999835,
                    "velocity": 0.2125984251968504,
                    "duration": 0.0996744999999919
                },
                {
                    "name": "E4",
                    "midi": 64,
                    "time": 201.84086249999834,
                    "velocity": 0.2125984251968504,
                    "duration": 0.0996744999999919
                },
                {
                    "name": "A4",
                    "midi": 69,
                    "time": 201.94053699999833,
                    "velocity": 0.2204724409448819,
                    "duration": 0.0996744999999919
                },
                {
                    "name": "E4",
                    "midi": 64,
                    "time": 202.04021149999832,
                    "velocity": 0.2204724409448819,
                    "duration": 0.0996744999999919
                },
                {
                    "name": "B4",
                    "midi": 71,
                    "time": 202.1398859999983,
                    "velocity": 0.2992125984251969,
                    "duration": 0.0996744999999919
                },
                {
                    "name": "E4",
                    "midi": 64,
                    "time": 202.2395604999983,
                    "velocity": 0.23622047244094488,
                    "duration": 0.0996744999999919
                },
                {
                    "name": "D4",
                    "midi": 62,
                    "time": 202.3392349999983,
                    "velocity": 0.2440944881889764,
                    "duration": 0.0996744999999919
                },
                {
                    "name": "E4",
                    "midi": 64,
                    "time": 202.4389094999983,
                    "velocity": 0.25196850393700787,
                    "duration": 0.0996744999999919
                },
                {
                    "name": "B4",
                    "midi": 71,
                    "time": 202.53858399999828,
                    "velocity": 0.25984251968503935,
                    "duration": 0.0996744999999919
                },
                {
                    "name": "E4",
                    "midi": 64,
                    "time": 202.63825849999827,
                    "velocity": 0.2755905511811024,
                    "duration": 0.0996744999999919
                },
                {
                    "name": "B4",
                    "midi": 71,
                    "time": 202.73793299999826,
                    "velocity": 0.36220472440944884,
                    "duration": 0.0996744999999919
                },
                {
                    "name": "E4",
                    "midi": 64,
                    "time": 202.83760749999826,
                    "velocity": 0.2755905511811024,
                    "duration": 0.0996744999999919
                },
                {
                    "name": "D4",
                    "midi": 62,
                    "time": 202.93728199999825,
                    "velocity": 0.28346456692913385,
                    "duration": 0.0996744999999919
                },
                {
                    "name": "E4",
                    "midi": 64,
                    "time": 203.03695649999824,
                    "velocity": 0.28346456692913385,
                    "duration": 0.0996744999999919
                },
                {
                    "name": "B4",
                    "midi": 71,
                    "time": 203.13663099999823,
                    "velocity": 0.2992125984251969,
                    "duration": 0.0996744999999919
                },
                {
                    "name": "E4",
                    "midi": 64,
                    "time": 203.23630549999822,
                    "velocity": 0.30708661417322836,
                    "duration": 0.0996744999999919
                },
                {
                    "name": "C#5",
                    "midi": 73,
                    "time": 203.33597999999822,
                    "velocity": 0.4094488188976378,
                    "duration": 0.0996744999999919
                },
                {
                    "name": "G4",
                    "midi": 67,
                    "time": 203.4356544999982,
                    "velocity": 0.3228346456692913,
                    "duration": 0.0996744999999919
                },
                {
                    "name": "E4",
                    "midi": 64,
                    "time": 203.5353289999982,
                    "velocity": 0.33070866141732286,
                    "duration": 0.0996744999999919
                },
                {
                    "name": "G4",
                    "midi": 67,
                    "time": 203.6350034999982,
                    "velocity": 0.3464566929133858,
                    "duration": 0.0996744999999919
                },
                {
                    "name": "C#5",
                    "midi": 73,
                    "time": 203.73467799999818,
                    "velocity": 0.3543307086614173,
                    "duration": 0.0996744999999919
                },
                {
                    "name": "E4",
                    "midi": 64,
                    "time": 203.83435249999818,
                    "velocity": 0.3543307086614173,
                    "duration": 0.0996744999999919
                },
                {
                    "name": "D5",
                    "midi": 74,
                    "time": 203.93402699999817,
                    "velocity": 0.47244094488188976,
                    "duration": 0.0996744999999919
                },
                {
                    "name": "A4",
                    "midi": 69,
                    "time": 204.03370149999816,
                    "velocity": 0.3858267716535433,
                    "duration": 0.0996744999999919
                },
                {
                    "name": "F#4",
                    "midi": 66,
                    "time": 204.13337599999815,
                    "velocity": 0.3937007874015748,
                    "duration": 0.0996744999999919
                },
                {
                    "name": "A4",
                    "midi": 69,
                    "time": 204.23305049999814,
                    "velocity": 0.4015748031496063,
                    "duration": 0.0996744999999919
                },
                {
                    "name": "D5",
                    "midi": 74,
                    "time": 204.33272499999813,
                    "velocity": 0.41732283464566927,
                    "duration": 0.0996744999999919
                },
                {
                    "name": "A4",
                    "midi": 69,
                    "time": 204.43239949999813,
                    "velocity": 0.4251968503937008,
                    "duration": 0.0996744999999919
                },
                {
                    "name": "E5",
                    "midi": 76,
                    "time": 204.53207399999812,
                    "velocity": 0.5433070866141733,
                    "duration": 0.0996744999999919
                },
                {
                    "name": "C#5",
                    "midi": 73,
                    "time": 204.6317484999981,
                    "velocity": 0.4566929133858268,
                    "duration": 0.0996744999999919
                },
                {
                    "name": "A4",
                    "midi": 69,
                    "time": 204.7314229999981,
                    "velocity": 0.4645669291338583,
                    "duration": 0.0996744999999919
                },
                {
                    "name": "C#5",
                    "midi": 73,
                    "time": 204.8310974999981,
                    "velocity": 0.48031496062992124,
                    "duration": 0.0996744999999919
                },
                {
                    "name": "E5",
                    "midi": 76,
                    "time": 204.9307719999981,
                    "velocity": 0.49606299212598426,
                    "duration": 0.0996744999999919
                },
                {
                    "name": "C#5",
                    "midi": 73,
                    "time": 205.03044649999808,
                    "velocity": 0.5118110236220472,
                    "duration": 0.0996744999999919
                },
                {
                    "name": "F#5",
                    "midi": 78,
                    "time": 205.13012099999807,
                    "velocity": 0.6062992125984252,
                    "duration": 0.0996744999999919
                },
                {
                    "name": "D5",
                    "midi": 74,
                    "time": 205.22979549999806,
                    "velocity": 0.5196850393700787,
                    "duration": 0.0996744999999919
                },
                {
                    "name": "A4",
                    "midi": 69,
                    "time": 205.32946999999805,
                    "velocity": 0.5354330708661418,
                    "duration": 0.0996744999999919
                },
                {
                    "name": "D5",
                    "midi": 74,
                    "time": 205.42914449999805,
                    "velocity": 0.5511811023622047,
                    "duration": 0.0996744999999919
                },
                {
                    "name": "F#5",
                    "midi": 78,
                    "time": 205.52881899999804,
                    "velocity": 0.5669291338582677,
                    "duration": 0.0996744999999919
                },
                {
                    "name": "D5",
                    "midi": 74,
                    "time": 205.62849349999803,
                    "velocity": 0.5748031496062992,
                    "duration": 0.0996744999999919
                },
                {
                    "name": "G5",
                    "midi": 79,
                    "time": 205.72816799999802,
                    "velocity": 0.5905511811023622,
                    "duration": 1.196093999999988
                },
                {
                    "name": "E5",
                    "midi": 76,
                    "time": 205.72816799999802,
                    "velocity": 0.49606299212598426,
                    "duration": 1.196093999999988
                },
                {
                    "name": "A4",
                    "midi": 69,
                    "time": 205.72816799999802,
                    "velocity": 0.49606299212598426,
                    "duration": 1.196093999999988
                },
                {
                    "name": "C#5",
                    "midi": 73,
                    "time": 205.72816799999802,
                    "velocity": 0.49606299212598426,
                    "duration": 1.196093999999988
                },
                {
                    "name": "G5",
                    "midi": 79,
                    "time": 206.924261999998,
                    "velocity": 0.5826771653543307,
                    "duration": 0.2990235000000041
                },
                {
                    "name": "E5",
                    "midi": 76,
                    "time": 207.223285499998,
                    "velocity": 0.5433070866141733,
                    "duration": 0.0996744999999919
                },
                {
                    "name": "C#6",
                    "midi": 85,
                    "time": 207.322959999998,
                    "velocity": 0.5984251968503937,
                    "duration": 0.2990235000000041
                },
                {
                    "name": "G5",
                    "midi": 79,
                    "time": 207.621983499998,
                    "velocity": 0.5433070866141733,
                    "duration": 0.0996744999999919
                },
                {
                    "name": "E6",
                    "midi": 88,
                    "time": 207.721657999998,
                    "velocity": 0.6062992125984252,
                    "duration": 0.5980470000000082
                },
                {
                    "name": "D6",
                    "midi": 86,
                    "time": 208.319704999998,
                    "velocity": 0.5039370078740157,
                    "duration": 0.1993490000000122
                },
                {
                    "name": "C#6",
                    "midi": 85,
                    "time": 208.51905399999802,
                    "velocity": 0.5196850393700787,
                    "duration": 0.20931645000001708
                },
                {
                    "name": "B5",
                    "midi": 83,
                    "time": 208.71840299999803,
                    "velocity": 0.49606299212598426,
                    "duration": 0.20931645000001708
                },
                {
                    "name": "A5",
                    "midi": 81,
                    "time": 208.91775199999805,
                    "velocity": 0.49606299212598426,
                    "duration": 0.20931645000001708
                },
                {
                    "name": "G#5",
                    "midi": 80,
                    "time": 209.11710099999806,
                    "velocity": 0.47244094488188976,
                    "duration": 0.20931645000001708
                },
                {
                    "name": "A5",
                    "midi": 81,
                    "time": 209.31644999999807,
                    "velocity": 0.44881889763779526,
                    "duration": 0.10964194999999677
                },
                {
                    "name": "A#5",
                    "midi": 82,
                    "time": 209.41612449999806,
                    "velocity": 0.41732283464566927,
                    "duration": 0.10964194999999677
                },
                {
                    "name": "B5",
                    "midi": 83,
                    "time": 209.51579899999805,
                    "velocity": 0.41732283464566927,
                    "duration": 0.10964194999999677
                },
                {
                    "name": "A5",
                    "midi": 81,
                    "time": 209.61547349999805,
                    "velocity": 0.4251968503937008,
                    "duration": 0.10964194999999677
                },
                {
                    "name": "G5",
                    "midi": 79,
                    "time": 209.71514799999804,
                    "velocity": 0.4251968503937008,
                    "duration": 0.10964194999999677
                },
                {
                    "name": "F#5",
                    "midi": 78,
                    "time": 209.81482249999803,
                    "velocity": 0.44881889763779526,
                    "duration": 0.10964194999999677
                },
                {
                    "name": "A5",
                    "midi": 81,
                    "time": 209.91449699999802,
                    "velocity": 0.47244094488188976,
                    "duration": 0.10964194999999677
                },
                {
                    "name": "G5",
                    "midi": 79,
                    "time": 210.014171499998,
                    "velocity": 0.44881889763779526,
                    "duration": 0.10964194999999677
                },
                {
                    "name": "B5",
                    "midi": 83,
                    "time": 210.113845999998,
                    "velocity": 0.47244094488188976,
                    "duration": 0.10964194999999677
                },
                {
                    "name": "A5",
                    "midi": 81,
                    "time": 210.213520499998,
                    "velocity": 0.44881889763779526,
                    "duration": 0.10964194999999677
                },
                {
                    "name": "G5",
                    "midi": 79,
                    "time": 210.313194999998,
                    "velocity": 0.4566929133858268,
                    "duration": 0.10964194999999677
                },
                {
                    "name": "F#5",
                    "midi": 78,
                    "time": 210.41286949999798,
                    "velocity": 0.4566929133858268,
                    "duration": 0.10964194999999677
                },
                {
                    "name": "E5",
                    "midi": 76,
                    "time": 210.51254399999797,
                    "velocity": 0.4881889763779528,
                    "duration": 0.10964194999999677
                },
                {
                    "name": "F#5",
                    "midi": 78,
                    "time": 210.61221849999797,
                    "velocity": 0.4566929133858268,
                    "duration": 0.10964194999999677
                },
                {
                    "name": "G5",
                    "midi": 79,
                    "time": 210.71189299999796,
                    "velocity": 0.4566929133858268,
                    "duration": 0.10964194999999677
                },
                {
                    "name": "F#5",
                    "midi": 78,
                    "time": 210.81156749999795,
                    "velocity": 0.4645669291338583,
                    "duration": 0.10964194999999677
                },
                {
                    "name": "A5",
                    "midi": 81,
                    "time": 210.91124199999794,
                    "velocity": 0.5039370078740157,
                    "duration": 0.10964194999999677
                },
                {
                    "name": "G5",
                    "midi": 79,
                    "time": 211.01091649999793,
                    "velocity": 0.48031496062992124,
                    "duration": 0.10964194999999677
                },
                {
                    "name": "F#5",
                    "midi": 78,
                    "time": 211.11059099999792,
                    "velocity": 0.49606299212598426,
                    "duration": 0.10964194999999677
                },
                {
                    "name": "E5",
                    "midi": 76,
                    "time": 211.21026549999792,
                    "velocity": 0.47244094488188976,
                    "duration": 0.10964194999999677
                },
                {
                    "name": "D5",
                    "midi": 74,
                    "time": 211.3099399999979,
                    "velocity": 0.49606299212598426,
                    "duration": 0.10964194999999677
                },
                {
                    "name": "C#5",
                    "midi": 73,
                    "time": 211.4096144999979,
                    "velocity": 0.4881889763779528,
                    "duration": 0.10964194999999677
                },
                {
                    "name": "B4",
                    "midi": 71,
                    "time": 211.5092889999979,
                    "velocity": 0.4881889763779528,
                    "duration": 0.10964194999999677
                },
                {
                    "name": "A4",
                    "midi": 69,
                    "time": 211.60896349999788,
                    "velocity": 0.49606299212598426,
                    "duration": 0.10964194999999677
                },
                {
                    "name": "G4",
                    "midi": 67,
                    "time": 211.70863799999788,
                    "velocity": 0.4881889763779528,
                    "duration": 0.04983724999999595
                },
                {
                    "name": "A4",
                    "midi": 69,
                    "time": 211.75847524999787,
                    "velocity": 0.41732283464566927,
                    "duration": 0.04983724999999595
                },
                {
                    "name": "G4",
                    "midi": 67,
                    "time": 211.80831249999787,
                    "velocity": 0.4881889763779528,
                    "duration": 0.04983724999999595
                },
                {
                    "name": "A4",
                    "midi": 69,
                    "time": 211.85814974999786,
                    "velocity": 0.41732283464566927,
                    "duration": 0.04983724999999595
                },
                {
                    "name": "G4",
                    "midi": 67,
                    "time": 211.90798699999786,
                    "velocity": 0.49606299212598426,
                    "duration": 0.04983724999999595
                },
                {
                    "name": "A4",
                    "midi": 69,
                    "time": 211.95782424999786,
                    "velocity": 0.41732283464566927,
                    "duration": 0.04983724999999595
                },
                {
                    "name": "G4",
                    "midi": 67,
                    "time": 212.00766149999785,
                    "velocity": 0.48031496062992124,
                    "duration": 0.04983724999999595
                },
                {
                    "name": "A4",
                    "midi": 69,
                    "time": 212.05749874999785,
                    "velocity": 0.41732283464566927,
                    "duration": 0.04983724999999595
                },
                {
                    "name": "G4",
                    "midi": 67,
                    "time": 212.10733599999784,
                    "velocity": 0.4881889763779528,
                    "duration": 0.04983724999999595
                },
                {
                    "name": "A4",
                    "midi": 69,
                    "time": 212.15717324999784,
                    "velocity": 0.41732283464566927,
                    "duration": 0.04983724999999595
                },
                {
                    "name": "G4",
                    "midi": 67,
                    "time": 212.20701049999784,
                    "velocity": 0.5118110236220472,
                    "duration": 0.04983724999999595
                },
                {
                    "name": "A4",
                    "midi": 69,
                    "time": 212.25684774999783,
                    "velocity": 0.44881889763779526,
                    "duration": 0.04983724999999595
                },
                {
                    "name": "G4",
                    "midi": 67,
                    "time": 212.30668499999783,
                    "velocity": 0.5354330708661418,
                    "duration": 0.04983724999999595
                },
                {
                    "name": "A4",
                    "midi": 69,
                    "time": 212.35652224999782,
                    "velocity": 0.47244094488188976,
                    "duration": 0.04983724999999595
                },
                {
                    "name": "G4",
                    "midi": 67,
                    "time": 212.40635949999782,
                    "velocity": 0.5196850393700787,
                    "duration": 0.04983724999999595
                },
                {
                    "name": "A4",
                    "midi": 69,
                    "time": 212.45619674999782,
                    "velocity": 0.44881889763779526,
                    "duration": 0.04983724999999595
                },
                {
                    "name": "G4",
                    "midi": 67,
                    "time": 212.5060339999978,
                    "velocity": 0.5196850393700787,
                    "duration": 0.06644966666667074
                },
                {
                    "name": "A4",
                    "midi": 69,
                    "time": 212.57248366666448,
                    "velocity": 0.47244094488188976,
                    "duration": 0.06644966666667074
                },
                {
                    "name": "G4",
                    "midi": 67,
                    "time": 212.63893333333115,
                    "velocity": 0.5354330708661418,
                    "duration": 0.06644966666667074
                },
                {
                    "name": "F#4",
                    "midi": 66,
                    "time": 212.70538299999782,
                    "velocity": 0.4645669291338583,
                    "duration": 0.0996744999999919
                },
                {
                    "name": "G4",
                    "midi": 67,
                    "time": 212.80505749999782,
                    "velocity": 0.49606299212598426,
                    "duration": 0.0996744999999919
                },
                {
                    "name": "G#4",
                    "midi": 68,
                    "time": 212.9047319999978,
                    "velocity": 0.5039370078740157,
                    "duration": 0.04983724999999595
                },
                {
                    "name": "A4",
                    "midi": 69,
                    "time": 212.9545692499978,
                    "velocity": 0.5039370078740157,
                    "duration": 0.04983724999999595
                },
                {
                    "name": "A#4",
                    "midi": 70,
                    "time": 213.0044064999978,
                    "velocity": 0.49606299212598426,
                    "duration": 0.04983724999999595
                },
                {
                    "name": "B4",
                    "midi": 71,
                    "time": 213.0542437499978,
                    "velocity": 0.4881889763779528,
                    "duration": 0.04983724999999595
                },
                {
                    "name": "C5",
                    "midi": 72,
                    "time": 213.1040809999978,
                    "velocity": 0.48031496062992124,
                    "duration": 0.04983724999999595
                },
                {
                    "name": "C#5",
                    "midi": 73,
                    "time": 213.1539182499978,
                    "velocity": 0.47244094488188976,
                    "duration": 0.04983724999999595
                },
                {
                    "name": "D5",
                    "midi": 74,
                    "time": 213.20375549999778,
                    "velocity": 0.4645669291338583,
                    "duration": 0.04983724999999595
                },
                {
                    "name": "D#5",
                    "midi": 75,
                    "time": 213.25359274999778,
                    "velocity": 0.4566929133858268,
                    "duration": 0.04983724999999595
                },
                {
                    "name": "E5",
                    "midi": 76,
                    "time": 213.30342999999777,
                    "velocity": 0.44881889763779526,
                    "duration": 0.04983724999999595
                },
                {
                    "name": "F5",
                    "midi": 77,
                    "time": 213.35326724999777,
                    "velocity": 0.4409448818897638,
                    "duration": 0.04983724999999595
                },
                {
                    "name": "F#5",
                    "midi": 78,
                    "time": 213.40310449999777,
                    "velocity": 0.4330708661417323,
                    "duration": 0.04983724999999595
                },
                {
                    "name": "G5",
                    "midi": 79,
                    "time": 213.45294174999776,
                    "velocity": 0.4251968503937008,
                    "duration": 0.04983724999999595
                },
                {
                    "name": "G#5",
                    "midi": 80,
                    "time": 213.50277899999776,
                    "velocity": 0.41732283464566927,
                    "duration": 0.06644966666667074
                },
                {
                    "name": "A5",
                    "midi": 81,
                    "time": 213.56922866666443,
                    "velocity": 0.41732283464566927,
                    "duration": 0.06644966666667074
                },
                {
                    "name": "A#5",
                    "midi": 82,
                    "time": 213.6356783333311,
                    "velocity": 0.4094488188976378,
                    "duration": 0.06644966666667074
                },
                {
                    "name": "B5",
                    "midi": 83,
                    "time": 213.70212799999777,
                    "velocity": 0.3937007874015748,
                    "duration": 0.1993490000000122
                },
                {
                    "name": "A5",
                    "midi": 81,
                    "time": 214.1008259999978,
                    "velocity": 0.4409448818897638,
                    "duration": 0.04983724999999595
                },
                {
                    "name": "G5",
                    "midi": 79,
                    "time": 214.1506632499978,
                    "velocity": 0.4015748031496063,
                    "duration": 0.14951174999998784
                },
                {
                    "name": "F#5",
                    "midi": 78,
                    "time": 214.4995239999978,
                    "velocity": 0.41732283464566927,
                    "duration": 0.04983724999999595
                },
                {
                    "name": "E5",
                    "midi": 76,
                    "time": 214.5493612499978,
                    "velocity": 0.3700787401574803,
                    "duration": 0.14951174999998784
                },
                {
                    "name": "F#5",
                    "midi": 78,
                    "time": 214.8982219999978,
                    "velocity": 0.41732283464566927,
                    "duration": 0.0996744999999919
                },
                {
                    "name": "G5",
                    "midi": 79,
                    "time": 214.99789649999778,
                    "velocity": 0.33858267716535434,
                    "duration": 0.024918624999997974
                },
                {
                    "name": "F#5",
                    "midi": 78,
                    "time": 215.02281512499778,
                    "velocity": 0.33858267716535434,
                    "duration": 0.024918624999997974
                },
                {
                    "name": "E5",
                    "midi": 76,
                    "time": 215.04773374999778,
                    "velocity": 0.33858267716535434,
                    "duration": 0.024918624999997974
                },
                {
                    "name": "F#5",
                    "midi": 78,
                    "time": 215.07265237499777,
                    "velocity": 0.33858267716535434,
                    "duration": 0.024918624999997974
                },
                {
                    "name": "A5",
                    "midi": 81,
                    "time": 215.09757099999777,
                    "velocity": 0.4330708661417323,
                    "duration": 0.14951174999998784
                },
                {
                    "name": "G5",
                    "midi": 79,
                    "time": 215.24708274999776,
                    "velocity": 0.3937007874015748,
                    "duration": 0.047345387500001834
                },
                {
                    "name": "G5",
                    "midi": 79,
                    "time": 215.29691999999775,
                    "velocity": 0.4251968503937008,
                    "duration": 0.0996744999999919
                },
                {
                    "name": "A5",
                    "midi": 81,
                    "time": 215.39659449999775,
                    "velocity": 0.3228346456692913,
                    "duration": 0.024918624999997974
                },
                {
                    "name": "G5",
                    "midi": 79,
                    "time": 215.42151312499774,
                    "velocity": 0.3228346456692913,
                    "duration": 0.024918624999997974
                },
                {
                    "name": "F#5",
                    "midi": 78,
                    "time": 215.44643174999774,
                    "velocity": 0.3228346456692913,
                    "duration": 0.024918624999997974
                },
                {
                    "name": "G5",
                    "midi": 79,
                    "time": 215.47135037499774,
                    "velocity": 0.3228346456692913,
                    "duration": 0.024918624999997974
                },
                {
                    "name": "G#5",
                    "midi": 80,
                    "time": 215.49626899999774,
                    "velocity": 0.41732283464566927,
                    "duration": 0.1993490000000122
                },
                {
                    "name": "B5",
                    "midi": 83,
                    "time": 215.69561799999775,
                    "velocity": 0.3937007874015748,
                    "duration": 0.1993490000000122
                },
                {
                    "name": "A5",
                    "midi": 81,
                    "time": 215.89496699999776,
                    "velocity": 0.3228346456692913,
                    "duration": 0.0996744999999919
                },
                {
                    "name": "A4",
                    "midi": 69,
                    "time": 215.99464149999775,
                    "velocity": 0.31496062992125984,
                    "duration": 0.0996744999999919
                },
                {
                    "name": "A5",
                    "midi": 81,
                    "time": 216.09431599999775,
                    "velocity": 0.3543307086614173,
                    "duration": 0.398697999999996
                },
                {
                    "name": "F#5",
                    "midi": 78,
                    "time": 216.49301399999774,
                    "velocity": 0.33070866141732286,
                    "duration": 0.14951174999998784
                },
                {
                    "name": "E5",
                    "midi": 76,
                    "time": 216.64252574999773,
                    "velocity": 0.33070866141732286,
                    "duration": 0.04983724999999595
                },
                {
                    "name": "D5",
                    "midi": 74,
                    "time": 216.69236299999773,
                    "velocity": 0.36220472440944884,
                    "duration": 0.07475587499999392
                },
                {
                    "name": "C#5",
                    "midi": 73,
                    "time": 216.8917119999977,
                    "velocity": 0.33070866141732286,
                    "duration": 0.07475587499999392
                },
                {
                    "name": "D5",
                    "midi": 74,
                    "time": 217.0910609999977,
                    "velocity": 0.33070866141732286,
                    "duration": 0.07475587499999392
                },
                {
                    "name": "E5",
                    "midi": 76,
                    "time": 217.24057274999768,
                    "velocity": 0.3228346456692913,
                    "duration": 0.04983724999999595
                },
                {
                    "name": "D5",
                    "midi": 74,
                    "time": 217.29040999999768,
                    "velocity": 0.3543307086614173,
                    "duration": 0.07475587499999392
                },
                {
                    "name": "C#5",
                    "midi": 73,
                    "time": 217.48975899999766,
                    "velocity": 0.3228346456692913,
                    "duration": 0.07475587499999392
                },
                {
                    "name": "D5",
                    "midi": 74,
                    "time": 217.68910799999765,
                    "velocity": 0.31496062992125984,
                    "duration": 0.07475587499999392
                },
                {
                    "name": "D5",
                    "midi": 74,
                    "time": 217.88845699999763,
                    "velocity": 0.30708661417322836,
                    "duration": 0.398697999999996
                },
                {
                    "name": "F#5",
                    "midi": 78,
                    "time": 217.88845699999763,
                    "velocity": 0.36220472440944884,
                    "duration": 0.398697999999996
                },
                {
                    "name": "C#5",
                    "midi": 73,
                    "time": 218.28715499999763,
                    "velocity": 0.25984251968503935,
                    "duration": 0.0996744999999919
                },
                {
                    "name": "E5",
                    "midi": 76,
                    "time": 218.28715499999763,
                    "velocity": 0.30708661417322836,
                    "duration": 0.0996744999999919
                },
                {
                    "name": "G4",
                    "midi": 67,
                    "time": 218.38682949999762,
                    "velocity": 0.31496062992125984,
                    "duration": 0.0996744999999919
                },
                {
                    "name": "G5",
                    "midi": 79,
                    "time": 218.4865039999976,
                    "velocity": 0.3543307086614173,
                    "duration": 0.398697999999996
                },
                {
                    "name": "E5",
                    "midi": 76,
                    "time": 218.8852019999976,
                    "velocity": 0.33070866141732286,
                    "duration": 0.14951174999998784
                },
                {
                    "name": "D5",
                    "midi": 74,
                    "time": 219.0347137499976,
                    "velocity": 0.33070866141732286,
                    "duration": 0.04983724999999595
                },
                {
                    "name": "C#5",
                    "midi": 73,
                    "time": 219.0845509999976,
                    "velocity": 0.36220472440944884,
                    "duration": 0.07475587499999392
                },
                {
                    "name": "B4",
                    "midi": 71,
                    "time": 219.28389999999757,
                    "velocity": 0.33070866141732286,
                    "duration": 0.07475587499999392
                },
                {
                    "name": "C#5",
                    "midi": 73,
                    "time": 219.48324899999756,
                    "velocity": 0.33070866141732286,
                    "duration": 0.07475587499999392
                },
                {
                    "name": "A4",
                    "midi": 69,
                    "time": 219.68259799999754,
                    "velocity": 0.3543307086614173,
                    "duration": 0.07475587499999392
                },
                {
                    "name": "E5",
                    "midi": 76,
                    "time": 219.88194699999752,
                    "velocity": 0.3228346456692913,
                    "duration": 0.07475587499999392
                },
                {
                    "name": "A5",
                    "midi": 81,
                    "time": 220.0812959999975,
                    "velocity": 0.31496062992125984,
                    "duration": 0.07475587499999392
                },
                {
                    "name": "G5",
                    "midi": 79,
                    "time": 220.2806449999975,
                    "velocity": 0.36220472440944884,
                    "duration": 0.398697999999996
                },
                {
                    "name": "E5",
                    "midi": 76,
                    "time": 220.2806449999975,
                    "velocity": 0.30708661417322836,
                    "duration": 0.398697999999996
                },
                {
                    "name": "D5",
                    "midi": 74,
                    "time": 220.6793429999975,
                    "velocity": 0.25984251968503935,
                    "duration": 0.14701988749999373
                },
                {
                    "name": "F#5",
                    "midi": 78,
                    "time": 220.6793429999975,
                    "velocity": 0.30708661417322836,
                    "duration": 0.14951174999998784
                },
                {
                    "name": "D5",
                    "midi": 74,
                    "time": 220.82885474999748,
                    "velocity": 0.3779527559055118,
                    "duration": 0.04983724999999595
                },
                {
                    "name": "F#5",
                    "midi": 78,
                    "time": 220.87869199999747,
                    "velocity": 0.4094488188976378,
                    "duration": 0.398697999999996
                },
                {
                    "name": "G5",
                    "midi": 79,
                    "time": 221.27738999999747,
                    "velocity": 0.3779527559055118,
                    "duration": 0.1993490000000122
                },
                {
                    "name": "B5",
                    "midi": 83,
                    "time": 221.47673899999748,
                    "velocity": 0.4645669291338583,
                    "duration": 0.0996744999999919
                },
                {
                    "name": "A5",
                    "midi": 81,
                    "time": 221.57641349999747,
                    "velocity": 0.44881889763779526,
                    "duration": 0.0996744999999919
                },
                {
                    "name": "G5",
                    "midi": 79,
                    "time": 221.67608799999746,
                    "velocity": 0.4330708661417323,
                    "duration": 0.0996744999999919
                },
                {
                    "name": "F#5",
                    "midi": 78,
                    "time": 221.77576249999746,
                    "velocity": 0.41732283464566927,
                    "duration": 0.0996744999999919
                },
                {
                    "name": "E5",
                    "midi": 76,
                    "time": 221.87543699999745,
                    "velocity": 0.4015748031496063,
                    "duration": 0.0996744999999919
                },
                {
                    "name": "D5",
                    "midi": 74,
                    "time": 221.97511149999744,
                    "velocity": 0.3700787401574803,
                    "duration": 0.047345387500001834
                },
                {
                    "name": "D5",
                    "midi": 74,
                    "time": 222.02494874999744,
                    "velocity": 0.36220472440944884,
                    "duration": 0.04983724999999595
                },
                {
                    "name": "F#5",
                    "midi": 78,
                    "time": 222.07478599999743,
                    "velocity": 0.4566929133858268,
                    "duration": 0.398697999999996
                },
                {
                    "name": "G5",
                    "midi": 79,
                    "time": 222.47348399999743,
                    "velocity": 0.3858267716535433,
                    "duration": 0.1993490000000122
                },
                {
                    "name": "B5",
                    "midi": 83,
                    "time": 222.67283299999744,
                    "velocity": 0.4645669291338583,
                    "duration": 0.0996744999999919
                },
                {
                    "name": "A5",
                    "midi": 81,
                    "time": 222.77250749999743,
                    "velocity": 0.44881889763779526,
                    "duration": 0.0996744999999919
                },
                {
                    "name": "G5",
                    "midi": 79,
                    "time": 222.87218199999742,
                    "velocity": 0.4330708661417323,
                    "duration": 0.0996744999999919
                },
                {
                    "name": "F#5",
                    "midi": 78,
                    "time": 222.97185649999741,
                    "velocity": 0.41732283464566927,
                    "duration": 0.0996744999999919
                },
                {
                    "name": "E5",
                    "midi": 76,
                    "time": 223.0715309999974,
                    "velocity": 0.4015748031496063,
                    "duration": 0.0996744999999919
                },
                {
                    "name": "D5",
                    "midi": 74,
                    "time": 223.1712054999974,
                    "velocity": 0.4015748031496063,
                    "duration": 0.04153104166667276
                },
                {
                    "name": "D5",
                    "midi": 74,
                    "time": 223.2210427499974,
                    "velocity": 0.36220472440944884,
                    "duration": 0.04983724999999595
                },
                {
                    "name": "B5",
                    "midi": 83,
                    "time": 223.2708799999974,
                    "velocity": 0.4566929133858268,
                    "duration": 0.398697999999996
                },
                {
                    "name": "C#6",
                    "midi": 85,
                    "time": 223.6695779999974,
                    "velocity": 0.3858267716535433,
                    "duration": 0.1993490000000122
                },
                {
                    "name": "D6",
                    "midi": 86,
                    "time": 223.8689269999974,
                    "velocity": 0.4645669291338583,
                    "duration": 0.0996744999999919
                },
                {
                    "name": "C#6",
                    "midi": 85,
                    "time": 223.9686014999974,
                    "velocity": 0.44881889763779526,
                    "duration": 0.0996744999999919
                },
                {
                    "name": "B5",
                    "midi": 83,
                    "time": 224.06827599999738,
                    "velocity": 0.4330708661417323,
                    "duration": 0.0996744999999919
                },
                {
                    "name": "A5",
                    "midi": 81,
                    "time": 224.16795049999737,
                    "velocity": 0.41732283464566927,
                    "duration": 0.0996744999999919
                },
                {
                    "name": "G5",
                    "midi": 79,
                    "time": 224.26762499999737,
                    "velocity": 0.4015748031496063,
                    "duration": 0.0996744999999919
                },
                {
                    "name": "F#5",
                    "midi": 78,
                    "time": 224.36729949999736,
                    "velocity": 0.4015748031496063,
                    "duration": 0.0996744999999919
                },
                {
                    "name": "B5",
                    "midi": 83,
                    "time": 224.46697399999735,
                    "velocity": 0.4645669291338583,
                    "duration": 0.0996744999999919
                },
                {
                    "name": "A5",
                    "midi": 81,
                    "time": 224.56664849999734,
                    "velocity": 0.4566929133858268,
                    "duration": 0.0996744999999919
                },
                {
                    "name": "G5",
                    "midi": 79,
                    "time": 224.66632299999733,
                    "velocity": 0.4409448818897638,
                    "duration": 0.0996744999999919
                },
                {
                    "name": "F#5",
                    "midi": 78,
                    "time": 224.76599749999733,
                    "velocity": 0.4330708661417323,
                    "duration": 0.0996744999999919
                },
                {
                    "name": "E5",
                    "midi": 76,
                    "time": 224.86567199999732,
                    "velocity": 0.4566929133858268,
                    "duration": 0.0996744999999919
                },
                {
                    "name": "D5",
                    "midi": 74,
                    "time": 224.9653464999973,
                    "velocity": 0.4881889763779528,
                    "duration": 0.0996744999999919
                },
                {
                    "name": "A5",
                    "midi": 81,
                    "time": 225.0650209999973,
                    "velocity": 0.4645669291338583,
                    "duration": 0.1993490000000122
                },
                {
                    "name": "E5",
                    "midi": 76,
                    "time": 225.0650209999973,
                    "velocity": 0.3937007874015748,
                    "duration": 0.1993490000000122
                },
                {
                    "name": "C#5",
                    "midi": 73,
                    "time": 225.0650209999973,
                    "velocity": 0.3937007874015748,
                    "duration": 0.1993490000000122
                },
                {
                    "name": "A3",
                    "midi": 57,
                    "time": 225.56339349999732,
                    "velocity": 0.31496062992125984,
                    "duration": 0.0996744999999919
                },
                {
                    "name": "A4",
                    "midi": 69,
                    "time": 225.6630679999973,
                    "velocity": 0.3543307086614173,
                    "duration": 0.398697999999996
                },
                {
                    "name": "F#4",
                    "midi": 66,
                    "time": 226.0617659999973,
                    "velocity": 0.33070866141732286,
                    "duration": 0.14951174999998784
                },
                {
                    "name": "E4",
                    "midi": 64,
                    "time": 226.2112777499973,
                    "velocity": 0.33070866141732286,
                    "duration": 0.04983724999999595
                },
                {
                    "name": "D4",
                    "midi": 62,
                    "time": 226.2611149999973,
                    "velocity": 0.36220472440944884,
                    "duration": 0.07475587499999392
                },
                {
                    "name": "C#4",
                    "midi": 61,
                    "time": 226.46046399999727,
                    "velocity": 0.33070866141732286,
                    "duration": 0.07475587499999392
                },
                {
                    "name": "D4",
                    "midi": 62,
                    "time": 226.65981299999726,
                    "velocity": 0.33070866141732286,
                    "duration": 0.07475587499999392
                },
                {
                    "name": "E4",
                    "midi": 64,
                    "time": 226.80932474999724,
                    "velocity": 0.3228346456692913,
                    "duration": 0.04983724999999595
                },
                {
                    "name": "D4",
                    "midi": 62,
                    "time": 226.85916199999724,
                    "velocity": 0.3543307086614173,
                    "duration": 0.07475587499999392
                },
                {
                    "name": "C#4",
                    "midi": 61,
                    "time": 227.05851099999722,
                    "velocity": 0.3228346456692913,
                    "duration": 0.07475587499999392
                },
                {
                    "name": "D4",
                    "midi": 62,
                    "time": 227.2578599999972,
                    "velocity": 0.31496062992125984,
                    "duration": 0.07475587499999392
                },
                {
                    "name": "D4",
                    "midi": 62,
                    "time": 227.4572089999972,
                    "velocity": 0.30708661417322836,
                    "duration": 0.398697999999996
                },
                {
                    "name": "F#4",
                    "midi": 66,
                    "time": 227.4572089999972,
                    "velocity": 0.36220472440944884,
                    "duration": 0.398697999999996
                },
                {
                    "name": "C#4",
                    "midi": 61,
                    "time": 227.8559069999972,
                    "velocity": 0.25984251968503935,
                    "duration": 0.0996744999999919
                },
                {
                    "name": "E4",
                    "midi": 64,
                    "time": 227.8559069999972,
                    "velocity": 0.30708661417322836,
                    "duration": 0.0996744999999919
                },
                {
                    "name": "G3",
                    "midi": 55,
                    "time": 227.95558149999718,
                    "velocity": 0.31496062992125984,
                    "duration": 0.0996744999999919
                },
                {
                    "name": "G4",
                    "midi": 67,
                    "time": 228.05525599999717,
                    "velocity": 0.3543307086614173,
                    "duration": 0.398697999999996
                },
                {
                    "name": "E4",
                    "midi": 64,
                    "time": 228.45395399999717,
                    "velocity": 0.33070866141732286,
                    "duration": 0.14951174999998784
                },
                {
                    "name": "D4",
                    "midi": 62,
                    "time": 228.60346574999716,
                    "velocity": 0.33070866141732286,
                    "duration": 0.04983724999999595
                },
                {
                    "name": "C#4",
                    "midi": 61,
                    "time": 228.65330299999715,
                    "velocity": 0.36220472440944884,
                    "duration": 0.07475587499999392
                },
                {
                    "name": "B3",
                    "midi": 59,
                    "time": 228.85265199999714,
                    "velocity": 0.33070866141732286,
                    "duration": 0.07475587499999392
                },
                {
                    "name": "C#4",
                    "midi": 61,
                    "time": 229.05200099999712,
                    "velocity": 0.33070866141732286,
                    "duration": 0.07475587499999392
                },
                {
                    "name": "A3",
                    "midi": 57,
                    "time": 229.2513499999971,
                    "velocity": 0.3543307086614173,
                    "duration": 0.07475587499999392
                },
                {
                    "name": "E4",
                    "midi": 64,
                    "time": 229.4506989999971,
                    "velocity": 0.3228346456692913,
                    "duration": 0.07475587499999392
                },
                {
                    "name": "A4",
                    "midi": 69,
                    "time": 229.65004799999707,
                    "velocity": 0.31496062992125984,
                    "duration": 0.07475587499999392
                },
                {
                    "name": "G4",
                    "midi": 67,
                    "time": 229.84939699999705,
                    "velocity": 0.36220472440944884,
                    "duration": 0.398697999999996
                },
                {
                    "name": "E4",
                    "midi": 64,
                    "time": 229.84939699999705,
                    "velocity": 0.30708661417322836,
                    "duration": 0.398697999999996
                },
                {
                    "name": "D4",
                    "midi": 62,
                    "time": 230.24809499999705,
                    "velocity": 0.25984251968503935,
                    "duration": 0.14951174999998784
                },
                {
                    "name": "F#4",
                    "midi": 66,
                    "time": 230.24809499999705,
                    "velocity": 0.30708661417322836,
                    "duration": 0.14951174999998784
                },
                {
                    "name": "D5",
                    "midi": 74,
                    "time": 230.39760674999704,
                    "velocity": 0.3779527559055118,
                    "duration": 0.04983724999999595
                },
                {
                    "name": "F#5",
                    "midi": 78,
                    "time": 230.44744399999703,
                    "velocity": 0.4094488188976378,
                    "duration": 0.398697999999996
                },
                {
                    "name": "G5",
                    "midi": 79,
                    "time": 230.84614199999703,
                    "velocity": 0.3779527559055118,
                    "duration": 0.1993490000000122
                },
                {
                    "name": "B5",
                    "midi": 83,
                    "time": 231.04549099999704,
                    "velocity": 0.4645669291338583,
                    "duration": 0.0996744999999919
                },
                {
                    "name": "A5",
                    "midi": 81,
                    "time": 231.14516549999703,
                    "velocity": 0.44881889763779526,
                    "duration": 0.0996744999999919
                },
                {
                    "name": "G5",
                    "midi": 79,
                    "time": 231.24483999999703,
                    "velocity": 0.4330708661417323,
                    "duration": 0.0996744999999919
                },
                {
                    "name": "F#5",
                    "midi": 78,
                    "time": 231.34451449999702,
                    "velocity": 0.41732283464566927,
                    "duration": 0.0996744999999919
                },
                {
                    "name": "E5",
                    "midi": 76,
                    "time": 231.444188999997,
                    "velocity": 0.4015748031496063,
                    "duration": 0.0996744999999919
                },
                {
                    "name": "D5",
                    "midi": 74,
                    "time": 231.543863499997,
                    "velocity": 0.3700787401574803,
                    "duration": 0.04983724999999595
                },
                {
                    "name": "G5",
                    "midi": 79,
                    "time": 231.593700749997,
                    "velocity": 0.36220472440944884,
                    "duration": 0.04983724999999595
                },
                {
                    "name": "B5",
                    "midi": 83,
                    "time": 231.643537999997,
                    "velocity": 0.4566929133858268,
                    "duration": 0.398697999999996
                },
                {
                    "name": "C#6",
                    "midi": 85,
                    "time": 232.042235999997,
                    "velocity": 0.3858267716535433,
                    "duration": 0.1993490000000122
                },
                {
                    "name": "E6",
                    "midi": 88,
                    "time": 232.241584999997,
                    "velocity": 0.4645669291338583,
                    "duration": 0.0996744999999919
                },
                {
                    "name": "D6",
                    "midi": 86,
                    "time": 232.341259499997,
                    "velocity": 0.44881889763779526,
                    "duration": 0.0996744999999919
                },
                {
                    "name": "C#6",
                    "midi": 85,
                    "time": 232.440933999997,
                    "velocity": 0.4330708661417323,
                    "duration": 0.0996744999999919
                },
                {
                    "name": "B5",
                    "midi": 83,
                    "time": 232.54060849999698,
                    "velocity": 0.41732283464566927,
                    "duration": 0.0996744999999919
                },
                {
                    "name": "A5",
                    "midi": 81,
                    "time": 232.64028299999697,
                    "velocity": 0.4015748031496063,
                    "duration": 0.0996744999999919
                },
                {
                    "name": "G5",
                    "midi": 79,
                    "time": 232.73995749999696,
                    "velocity": 0.4015748031496063,
                    "duration": 0.0996744999999919
                },
                {
                    "name": "C#6",
                    "midi": 85,
                    "time": 232.83963199999695,
                    "velocity": 0.4645669291338583,
                    "duration": 0.0996744999999919
                },
                {
                    "name": "B5",
                    "midi": 83,
                    "time": 232.93930649999695,
                    "velocity": 0.4566929133858268,
                    "duration": 0.0996744999999919
                },
                {
                    "name": "A5",
                    "midi": 81,
                    "time": 233.03898099999694,
                    "velocity": 0.4409448818897638,
                    "duration": 0.0996744999999919
                },
                {
                    "name": "G5",
                    "midi": 79,
                    "time": 233.13865549999693,
                    "velocity": 0.4330708661417323,
                    "duration": 0.0996744999999919
                },
                {
                    "name": "F#5",
                    "midi": 78,
                    "time": 233.23832999999692,
                    "velocity": 0.4251968503937008,
                    "duration": 0.0996744999999919
                },
                {
                    "name": "E5",
                    "midi": 76,
                    "time": 233.3380044999969,
                    "velocity": 0.4094488188976378,
                    "duration": 0.0996744999999919
                },
                {
                    "name": "B5",
                    "midi": 83,
                    "time": 233.4376789999969,
                    "velocity": 0.49606299212598426,
                    "duration": 0.0996744999999919
                },
                {
                    "name": "A5",
                    "midi": 81,
                    "time": 233.5373534999969,
                    "velocity": 0.48031496062992124,
                    "duration": 0.0996744999999919
                },
                {
                    "name": "G5",
                    "midi": 79,
                    "time": 233.6370279999969,
                    "velocity": 0.4645669291338583,
                    "duration": 0.0996744999999919
                },
                {
                    "name": "F#5",
                    "midi": 78,
                    "time": 233.73670249999688,
                    "velocity": 0.44881889763779526,
                    "duration": 0.0996744999999919
                },
                {
                    "name": "E5",
                    "midi": 76,
                    "time": 233.83637699999687,
                    "velocity": 0.4409448818897638,
                    "duration": 0.0996744999999919
                },
                {
                    "name": "D5",
                    "midi": 74,
                    "time": 233.93605149999686,
                    "velocity": 0.4251968503937008,
                    "duration": 0.0996744999999919
                },
                {
                    "name": "A5",
                    "midi": 81,
                    "time": 234.03572599999686,
                    "velocity": 0.4645669291338583,
                    "duration": 0.0996744999999919
                },
                {
                    "name": "G5",
                    "midi": 79,
                    "time": 234.13540049999685,
                    "velocity": 0.48031496062992124,
                    "duration": 0.0996744999999919
                },
                {
                    "name": "F#5",
                    "midi": 78,
                    "time": 234.23507499999684,
                    "velocity": 0.47244094488188976,
                    "duration": 0.0996744999999919
                },
                {
                    "name": "E5",
                    "midi": 76,
                    "time": 234.33474949999683,
                    "velocity": 0.4645669291338583,
                    "duration": 0.0996744999999919
                },
                {
                    "name": "D5",
                    "midi": 74,
                    "time": 234.43442399999682,
                    "velocity": 0.4566929133858268,
                    "duration": 0.0996744999999919
                },
                {
                    "name": "C#5",
                    "midi": 73,
                    "time": 234.53409849999682,
                    "velocity": 0.48031496062992124,
                    "duration": 0.0996744999999919
                },
                {
                    "name": "D5",
                    "midi": 74,
                    "time": 234.6337729999968,
                    "velocity": 0.49606299212598426,
                    "duration": 0.0996744999999919
                },
                {
                    "name": "D4",
                    "midi": 62,
                    "time": 235.4311689999968,
                    "velocity": 0.48031496062992124,
                    "duration": 0.07475587499999392
                },
                {
                    "name": "D4",
                    "midi": 62,
                    "time": 235.63051799999678,
                    "velocity": 0.4881889763779528,
                    "duration": 0.07475587499999392
                },
                {
                    "name": "E4",
                    "midi": 64,
                    "time": 235.73019249999678,
                    "velocity": 0.31496062992125984,
                    "duration": 0.03322483333332116
                },
                {
                    "name": "D4",
                    "midi": 62,
                    "time": 235.7634173333301,
                    "velocity": 0.31496062992125984,
                    "duration": 0.03322483333332116
                },
                {
                    "name": "C#4",
                    "midi": 61,
                    "time": 235.79747278749676,
                    "velocity": 0.31496062992125984,
                    "duration": 0.03322483333334958
                },
                {
                    "name": "D4",
                    "midi": 62,
                    "time": 235.82986699999677,
                    "velocity": 0.5433070866141733,
                    "duration": 0.398697999999996
                },
                {
                    "name": "D4",
                    "midi": 62,
                    "time": 236.22856499999676,
                    "velocity": 0.47244094488188976,
                    "duration": 0.07475587499999392
                },
                {
                    "name": "E4",
                    "midi": 64,
                    "time": 236.32823949999676,
                    "velocity": 0.31496062992125984,
                    "duration": 0.03322483333332116
                },
                {
                    "name": "D4",
                    "midi": 62,
                    "time": 236.36146433333008,
                    "velocity": 0.31496062992125984,
                    "duration": 0.03322483333332116
                },
                {
                    "name": "C#4",
                    "midi": 61,
                    "time": 236.39551978749674,
                    "velocity": 0.31496062992125984,
                    "duration": 0.03322483333334958
                },
                {
                    "name": "D4",
                    "midi": 62,
                    "time": 236.42791399999675,
                    "velocity": 0.5039370078740157,
                    "duration": 0.398697999999996
                },
                {
                    "name": "D4",
                    "midi": 62,
                    "time": 236.82661199999674,
                    "velocity": 0.4645669291338583,
                    "duration": 0.07475587499999392
                },
                {
                    "name": "C4",
                    "midi": 60,
                    "time": 237.02596099999673,
                    "velocity": 0.5196850393700787,
                    "duration": 0.398697999999996
                },
                {
                    "name": "A4",
                    "midi": 69,
                    "time": 237.52433349999671,
                    "velocity": 0.4251968503937008,
                    "duration": 0.0996744999999919
                },
                {
                    "name": "A5",
                    "midi": 81,
                    "time": 237.6240079999967,
                    "velocity": 0.49606299212598426,
                    "duration": 0.797395999999992
                },
                {
                    "name": "C6",
                    "midi": 84,
                    "time": 238.4214039999967,
                    "velocity": 0.3543307086614173,
                    "duration": 0.07475587499999392
                },
                {
                    "name": "B5",
                    "midi": 83,
                    "time": 238.62075299999668,
                    "velocity": 0.33858267716535434,
                    "duration": 0.07475587499999392
                },
                {
                    "name": "A5",
                    "midi": 81,
                    "time": 238.82010199999667,
                    "velocity": 0.3228346456692913,
                    "duration": 0.07475587499999392
                },
                {
                    "name": "G5",
                    "midi": 79,
                    "time": 239.01945099999665,
                    "velocity": 0.30708661417322836,
                    "duration": 0.07475587499999392
                },
                {
                    "name": "F#5",
                    "midi": 78,
                    "time": 239.21879999999663,
                    "velocity": 0.29133858267716534,
                    "duration": 0.07475587499999392
                },
                {
                    "name": "A5",
                    "midi": 81,
                    "time": 239.41814899999662,
                    "velocity": 0.2755905511811024,
                    "duration": 0.5980470000000082
                },
                {
                    "name": "G5",
                    "midi": 79,
                    "time": 240.01619599999663,
                    "velocity": 0.2755905511811024,
                    "duration": 0.1993490000000122
                },
                {
                    "name": "B3",
                    "midi": 59,
                    "time": 240.21554499999664,
                    "velocity": 0.48031496062992124,
                    "duration": 0.07475587499999392
                },
                {
                    "name": "B3",
                    "midi": 59,
                    "time": 240.41489399999662,
                    "velocity": 0.4881889763779528,
                    "duration": 0.07475587499999392
                },
                {
                    "name": "B3",
                    "midi": 59,
                    "time": 240.5145684999966,
                    "velocity": 0.31496062992125984,
                    "duration": 0.03322483333332116
                },
                {
                    "name": "A3",
                    "midi": 57,
                    "time": 240.54779333332993,
                    "velocity": 0.31496062992125984,
                    "duration": 0.03322483333332116
                },
                {
                    "name": "G#3",
                    "midi": 56,
                    "time": 240.58101816666326,
                    "velocity": 0.31496062992125984,
                    "duration": 0.03322483333332116
                },
                {
                    "name": "A3",
                    "midi": 57,
                    "time": 240.61424299999658,
                    "velocity": 0.5433070866141733,
                    "duration": 0.398697999999996
                },
                {
                    "name": "A3",
                    "midi": 57,
                    "time": 241.01294099999657,
                    "velocity": 0.47244094488188976,
                    "duration": 0.07475587499999392
                },
                {
                    "name": "A3",
                    "midi": 57,
                    "time": 241.11261549999656,
                    "velocity": 0.31496062992125984,
                    "duration": 0.03322483333332116
                },
                {
                    "name": "G3",
                    "midi": 55,
                    "time": 241.1458403333299,
                    "velocity": 0.31496062992125984,
                    "duration": 0.03322483333332116
                },
                {
                    "name": "F#3",
                    "midi": 54,
                    "time": 241.1790651666632,
                    "velocity": 0.31496062992125984,
                    "duration": 0.03322483333332116
                },
                {
                    "name": "G3",
                    "midi": 55,
                    "time": 241.21228999999653,
                    "velocity": 0.5039370078740157,
                    "duration": 0.398697999999996
                },
                {
                    "name": "G3",
                    "midi": 55,
                    "time": 241.61098799999652,
                    "velocity": 0.4645669291338583,
                    "duration": 0.07475587499999392
                },
                {
                    "name": "F#3",
                    "midi": 54,
                    "time": 241.8103369999965,
                    "velocity": 0.5196850393700787,
                    "duration": 0.398697999999996
                },
                {
                    "name": "D5",
                    "midi": 74,
                    "time": 242.3087094999965,
                    "velocity": 0.4251968503937008,
                    "duration": 0.0996744999999919
                },
                {
                    "name": "C6",
                    "midi": 84,
                    "time": 242.4083839999965,
                    "velocity": 0.49606299212598426,
                    "duration": 0.6977215000000001
                },
                {
                    "name": "B5",
                    "midi": 83,
                    "time": 243.1061054999965,
                    "velocity": 0.41732283464566927,
                    "duration": 0.0996744999999919
                },
                {
                    "name": "A5",
                    "midi": 81,
                    "time": 243.20577999999648,
                    "velocity": 0.41732283464566927,
                    "duration": 0.0996744999999919
                },
                {
                    "name": "G5",
                    "midi": 79,
                    "time": 243.30545449999647,
                    "velocity": 0.4094488188976378,
                    "duration": 0.0996744999999919
                },
                {
                    "name": "F#5",
                    "midi": 78,
                    "time": 243.40512899999646,
                    "velocity": 0.4015748031496063,
                    "duration": 0.0996744999999919
                },
                {
                    "name": "E5",
                    "midi": 76,
                    "time": 243.50480349999646,
                    "velocity": 0.4015748031496063,
                    "duration": 0.0996744999999919
                },
                {
                    "name": "D5",
                    "midi": 74,
                    "time": 243.60447799999645,
                    "velocity": 0.4251968503937008,
                    "duration": 0.0996744999999919
                },
                {
                    "name": "E5",
                    "midi": 76,
                    "time": 243.70415249999644,
                    "velocity": 0.3858267716535433,
                    "duration": 0.0996744999999919
                },
                {
                    "name": "D5",
                    "midi": 74,
                    "time": 243.80382699999643,
                    "velocity": 0.3937007874015748,
                    "duration": 0.0996744999999919
                },
                {
                    "name": "C5",
                    "midi": 72,
                    "time": 243.90350149999642,
                    "velocity": 0.3858267716535433,
                    "duration": 0.0996744999999919
                },
                {
                    "name": "B4",
                    "midi": 71,
                    "time": 244.00317599999642,
                    "velocity": 0.3779527559055118,
                    "duration": 0.0996744999999919
                },
                {
                    "name": "A4",
                    "midi": 69,
                    "time": 244.1028504999964,
                    "velocity": 0.3700787401574803,
                    "duration": 0.0996744999999919
                },
                {
                    "name": "B4",
                    "midi": 71,
                    "time": 244.2025249999964,
                    "velocity": 0.3700787401574803,
                    "duration": 0.0996744999999919
                },
                {
                    "name": "D5",
                    "midi": 74,
                    "time": 244.3021994999964,
                    "velocity": 0.3700787401574803,
                    "duration": 0.0996744999999919
                },
                {
                    "name": "E5",
                    "midi": 76,
                    "time": 244.40187399999638,
                    "velocity": 0.3779527559055118,
                    "duration": 0.0996744999999919
                },
                {
                    "name": "F#5",
                    "midi": 78,
                    "time": 244.50154849999637,
                    "velocity": 0.3937007874015748,
                    "duration": 0.0996744999999919
                },
                {
                    "name": "G5",
                    "midi": 79,
                    "time": 244.60122299999637,
                    "velocity": 0.4094488188976378,
                    "duration": 0.0996744999999919
                },
                {
                    "name": "A5",
                    "midi": 81,
                    "time": 244.70089749999636,
                    "velocity": 0.41732283464566927,
                    "duration": 0.0996744999999919
                },
                {
                    "name": "B5",
                    "midi": 83,
                    "time": 244.80057199999635,
                    "velocity": 0.4330708661417323,
                    "duration": 0.0996744999999919
                },
                {
                    "name": "C6",
                    "midi": 84,
                    "time": 244.90024649999634,
                    "velocity": 0.44881889763779526,
                    "duration": 0.0996744999999919
                },
                {
                    "name": "D6",
                    "midi": 86,
                    "time": 244.99992099999633,
                    "velocity": 0.48031496062992124,
                    "duration": 0.0996744999999919
                },
                {
                    "name": "B5",
                    "midi": 83,
                    "time": 245.09959549999633,
                    "velocity": 0.44881889763779526,
                    "duration": 0.0996744999999919
                },
                {
                    "name": "A5",
                    "midi": 81,
                    "time": 245.19926999999632,
                    "velocity": 0.44881889763779526,
                    "duration": 0.0996744999999919
                },
                {
                    "name": "G5",
                    "midi": 79,
                    "time": 245.2989444999963,
                    "velocity": 0.41732283464566927,
                    "duration": 0.0996744999999919
                },
                {
                    "name": "C6",
                    "midi": 84,
                    "time": 245.3986189999963,
                    "velocity": 0.4881889763779528,
                    "duration": 0.0996744999999919
                },
                {
                    "name": "B5",
                    "midi": 83,
                    "time": 245.4982934999963,
                    "velocity": 0.47244094488188976,
                    "duration": 0.0996744999999919
                },
                {
                    "name": "A5",
                    "midi": 81,
                    "time": 245.59796799999629,
                    "velocity": 0.4566929133858268,
                    "duration": 0.0996744999999919
                },
                {
                    "name": "G5",
                    "midi": 79,
                    "time": 245.69764249999628,
                    "velocity": 0.44881889763779526,
                    "duration": 0.0996744999999919
                },
                {
                    "name": "F#5",
                    "midi": 78,
                    "time": 245.79731699999627,
                    "velocity": 0.4330708661417323,
                    "duration": 0.0996744999999919
                },
                {
                    "name": "E5",
                    "midi": 76,
                    "time": 245.89699149999626,
                    "velocity": 0.41732283464566927,
                    "duration": 0.0996744999999919
                },
                {
                    "name": "D5",
                    "midi": 74,
                    "time": 245.99666599999625,
                    "velocity": 0.4645669291338583,
                    "duration": 0.0996744999999919
                },
                {
                    "name": "E5",
                    "midi": 76,
                    "time": 246.09634049999624,
                    "velocity": 0.4566929133858268,
                    "duration": 0.0996744999999919
                },
                {
                    "name": "D5",
                    "midi": 74,
                    "time": 246.19601499999624,
                    "velocity": 0.4409448818897638,
                    "duration": 0.0996744999999919
                },
                {
                    "name": "C5",
                    "midi": 72,
                    "time": 246.29568949999623,
                    "velocity": 0.4330708661417323,
                    "duration": 0.0996744999999919
                },
                {
                    "name": "B4",
                    "midi": 71,
                    "time": 246.39536399999622,
                    "velocity": 0.41732283464566927,
                    "duration": 0.0996744999999919
                },
                {
                    "name": "A4",
                    "midi": 69,
                    "time": 246.4950384999962,
                    "velocity": 0.4094488188976378,
                    "duration": 0.0996744999999919
                },
                {
                    "name": "B4",
                    "midi": 71,
                    "time": 246.5947129999962,
                    "velocity": 0.3779527559055118,
                    "duration": 0.0996744999999919
                },
                {
                    "name": "D5",
                    "midi": 74,
                    "time": 246.6943874999962,
                    "velocity": 0.3937007874015748,
                    "duration": 0.0996744999999919
                },
                {
                    "name": "E5",
                    "midi": 76,
                    "time": 246.7940619999962,
                    "velocity": 0.4015748031496063,
                    "duration": 0.0996744999999919
                },
                {
                    "name": "F#5",
                    "midi": 78,
                    "time": 246.89373649999618,
                    "velocity": 0.4094488188976378,
                    "duration": 0.0996744999999919
                },
                {
                    "name": "G5",
                    "midi": 79,
                    "time": 246.99341099999617,
                    "velocity": 0.4251968503937008,
                    "duration": 0.0996744999999919
                },
                {
                    "name": "A5",
                    "midi": 81,
                    "time": 247.09308549999616,
                    "velocity": 0.4330708661417323,
                    "duration": 0.0996744999999919
                },
                {
                    "name": "B5",
                    "midi": 83,
                    "time": 247.19275999999616,
                    "velocity": 0.4409448818897638,
                    "duration": 0.0996744999999919
                },
                {
                    "name": "C6",
                    "midi": 84,
                    "time": 247.29243449999615,
                    "velocity": 0.4566929133858268,
                    "duration": 0.0996744999999919
                },
                {
                    "name": "D6",
                    "midi": 86,
                    "time": 247.39210899999614,
                    "velocity": 0.47244094488188976,
                    "duration": 0.0996744999999919
                },
                {
                    "name": "B5",
                    "midi": 83,
                    "time": 247.49178349999613,
                    "velocity": 0.4094488188976378,
                    "duration": 0.0996744999999919
                },
                {
                    "name": "A5",
                    "midi": 81,
                    "time": 247.59145799999612,
                    "velocity": 0.4015748031496063,
                    "duration": 0.0996744999999919
                },
                {
                    "name": "G5",
                    "midi": 79,
                    "time": 247.69113249999612,
                    "velocity": 0.3700787401574803,
                    "duration": 0.0996744999999919
                },
                {
                    "name": "A5",
                    "midi": 81,
                    "time": 247.7908069999961,
                    "velocity": 0.41732283464566927,
                    "duration": 0.0996744999999919
                },
                {
                    "name": "G5",
                    "midi": 79,
                    "time": 247.8904814999961,
                    "velocity": 0.4015748031496063,
                    "duration": 0.0996744999999919
                },
                {
                    "name": "F#5",
                    "midi": 78,
                    "time": 247.9901559999961,
                    "velocity": 0.4015748031496063,
                    "duration": 0.0996744999999919
                },
                {
                    "name": "E5",
                    "midi": 76,
                    "time": 248.08983049999608,
                    "velocity": 0.3937007874015748,
                    "duration": 0.0996744999999919
                },
                {
                    "name": "D#5",
                    "midi": 75,
                    "time": 248.18950499999607,
                    "velocity": 0.3858267716535433,
                    "duration": 0.0996744999999919
                },
                {
                    "name": "C5",
                    "midi": 72,
                    "time": 248.28917949999607,
                    "velocity": 0.3779527559055118,
                    "duration": 0.0996744999999919
                },
                {
                    "name": "B4",
                    "midi": 71,
                    "time": 248.38885399999606,
                    "velocity": 0.4094488188976378,
                    "duration": 0.0996744999999919
                },
                {
                    "name": "C5",
                    "midi": 72,
                    "time": 248.48852849999605,
                    "velocity": 0.4094488188976378,
                    "duration": 0.0996744999999919
                },
                {
                    "name": "B4",
                    "midi": 71,
                    "time": 248.58820299999604,
                    "velocity": 0.4015748031496063,
                    "duration": 0.0996744999999919
                },
                {
                    "name": "A4",
                    "midi": 69,
                    "time": 248.68787749999603,
                    "velocity": 0.4015748031496063,
                    "duration": 0.0996744999999919
                },
                {
                    "name": "G4",
                    "midi": 67,
                    "time": 248.78755199999603,
                    "velocity": 0.3937007874015748,
                    "duration": 0.0996744999999919
                },
                {
                    "name": "F#4",
                    "midi": 66,
                    "time": 248.88722649999602,
                    "velocity": 0.3937007874015748,
                    "duration": 0.0996744999999919
                },
                {
                    "name": "G4",
                    "midi": 67,
                    "time": 248.986900999996,
                    "velocity": 0.4409448818897638,
                    "duration": 0.0996744999999919
                },
                {
                    "name": "B4",
                    "midi": 71,
                    "time": 249.086575499996,
                    "velocity": 0.3937007874015748,
                    "duration": 0.0996744999999919
                },
                {
                    "name": "C#5",
                    "midi": 73,
                    "time": 249.186249999996,
                    "velocity": 0.4094488188976378,
                    "duration": 0.0996744999999919
                },
                {
                    "name": "D#5",
                    "midi": 75,
                    "time": 249.28592449999599,
                    "velocity": 0.41732283464566927,
                    "duration": 0.0996744999999919
                },
                {
                    "name": "E5",
                    "midi": 76,
                    "time": 249.38559899999598,
                    "velocity": 0.4330708661417323,
                    "duration": 0.0996744999999919
                },
                {
                    "name": "F#5",
                    "midi": 78,
                    "time": 249.48527349999597,
                    "velocity": 0.44881889763779526,
                    "duration": 0.0996744999999919
                },
                {
                    "name": "G5",
                    "midi": 79,
                    "time": 249.58494799999596,
                    "velocity": 0.4881889763779528,
                    "duration": 0.0996744999999919
                },
                {
                    "name": "A5",
                    "midi": 81,
                    "time": 249.68462249999595,
                    "velocity": 0.44881889763779526,
                    "duration": 0.0996744999999919
                },
                {
                    "name": "B5",
                    "midi": 83,
                    "time": 249.78429699999595,
                    "velocity": 0.4409448818897638,
                    "duration": 0.0996744999999919
                },
                {
                    "name": "G5",
                    "midi": 79,
                    "time": 249.88397149999594,
                    "velocity": 0.4251968503937008,
                    "duration": 0.0996744999999919
                },
                {
                    "name": "F#5",
                    "midi": 78,
                    "time": 249.98364599999593,
                    "velocity": 0.41732283464566927,
                    "duration": 0.0996744999999919
                },
                {
                    "name": "E5",
                    "midi": 76,
                    "time": 250.08332049999592,
                    "velocity": 0.4094488188976378,
                    "duration": 0.0996744999999919
                },
                {
                    "name": "G5",
                    "midi": 79,
                    "time": 250.1829949999959,
                    "velocity": 0.49606299212598426,
                    "duration": 0.0996744999999919
                },
                {
                    "name": "F#5",
                    "midi": 78,
                    "time": 250.2826694999959,
                    "velocity": 0.48031496062992124,
                    "duration": 0.0996744999999919
                },
                {
                    "name": "E5",
                    "midi": 76,
                    "time": 250.3823439999959,
                    "velocity": 0.4645669291338583,
                    "duration": 0.0996744999999919
                },
                {
                    "name": "D5",
                    "midi": 74,
                    "time": 250.4820184999959,
                    "velocity": 0.4566929133858268,
                    "duration": 0.0996744999999919
                },
                {
                    "name": "C#5",
                    "midi": 73,
                    "time": 250.58169299999588,
                    "velocity": 0.4409448818897638,
                    "duration": 0.0996744999999919
                },
                {
                    "name": "B4",
                    "midi": 71,
                    "time": 250.68136749999587,
                    "velocity": 0.4251968503937008,
                    "duration": 0.0996744999999919
                },
                {
                    "name": "A4",
                    "midi": 69,
                    "time": 250.78104199999586,
                    "velocity": 0.47244094488188976,
                    "duration": 0.0996744999999919
                },
                {
                    "name": "B4",
                    "midi": 71,
                    "time": 250.88071649999586,
                    "velocity": 0.4566929133858268,
                    "duration": 0.0996744999999919
                },
                {
                    "name": "A4",
                    "midi": 69,
                    "time": 250.98039099999585,
                    "velocity": 0.4409448818897638,
                    "duration": 0.0996744999999919
                },
                {
                    "name": "G4",
                    "midi": 67,
                    "time": 251.08006549999584,
                    "velocity": 0.4330708661417323,
                    "duration": 0.0996744999999919
                },
                {
                    "name": "F#4",
                    "midi": 66,
                    "time": 251.17973999999583,
                    "velocity": 0.4251968503937008,
                    "duration": 0.0996744999999919
                },
                {
                    "name": "E4",
                    "midi": 64,
                    "time": 251.27941449999582,
                    "velocity": 0.4094488188976378,
                    "duration": 0.0996744999999919
                },
                {
                    "name": "F#4",
                    "midi": 66,
                    "time": 251.37908899999582,
                    "velocity": 0.4409448818897638,
                    "duration": 0.0996744999999919
                },
                {
                    "name": "A4",
                    "midi": 69,
                    "time": 251.4787634999958,
                    "velocity": 0.3937007874015748,
                    "duration": 0.0996744999999919
                },
                {
                    "name": "B4",
                    "midi": 71,
                    "time": 251.5784379999958,
                    "velocity": 0.4094488188976378,
                    "duration": 0.0996744999999919
                },
                {
                    "name": "C#5",
                    "midi": 73,
                    "time": 251.6781124999958,
                    "velocity": 0.41732283464566927,
                    "duration": 0.0996744999999919
                },
                {
                    "name": "D5",
                    "midi": 74,
                    "time": 251.77778699999578,
                    "velocity": 0.4330708661417323,
                    "duration": 0.0996744999999919
                },
                {
                    "name": "E5",
                    "midi": 76,
                    "time": 251.87746149999577,
                    "velocity": 0.44881889763779526,
                    "duration": 0.0996744999999919
                },
                {
                    "name": "F#5",
                    "midi": 78,
                    "time": 251.97713599999577,
                    "velocity": 0.4881889763779528,
                    "duration": 0.0996744999999919
                },
                {
                    "name": "G5",
                    "midi": 79,
                    "time": 252.07681049999576,
                    "velocity": 0.44881889763779526,
                    "duration": 0.0996744999999919
                },
                {
                    "name": "A5",
                    "midi": 81,
                    "time": 252.17648499999575,
                    "velocity": 0.4409448818897638,
                    "duration": 0.0996744999999919
                },
                {
                    "name": "B5",
                    "midi": 83,
                    "time": 252.27615949999574,
                    "velocity": 0.4251968503937008,
                    "duration": 0.0996744999999919
                },
                {
                    "name": "C#6",
                    "midi": 85,
                    "time": 252.37583399999573,
                    "velocity": 0.41732283464566927,
                    "duration": 0.0996744999999919
                },
                {
                    "name": "D6",
                    "midi": 86,
                    "time": 252.47550849999573,
                    "velocity": 0.4094488188976378,
                    "duration": 0.0996744999999919
                },
                {
                    "name": "B5",
                    "midi": 83,
                    "time": 252.57518299999572,
                    "velocity": 0.47244094488188976,
                    "duration": 0.0996744999999919
                },
                {
                    "name": "A5",
                    "midi": 81,
                    "time": 252.6748574999957,
                    "velocity": 0.4645669291338583,
                    "duration": 0.0996744999999919
                },
                {
                    "name": "G5",
                    "midi": 79,
                    "time": 252.7745319999957,
                    "velocity": 0.44881889763779526,
                    "duration": 0.0996744999999919
                },
                {
                    "name": "F#5",
                    "midi": 78,
                    "time": 252.8742064999957,
                    "velocity": 0.4409448818897638,
                    "duration": 0.0996744999999919
                },
                {
                    "name": "E5",
                    "midi": 76,
                    "time": 252.97388099999569,
                    "velocity": 0.4330708661417323,
                    "duration": 0.0996744999999919
                },
                {
                    "name": "D5",
                    "midi": 74,
                    "time": 253.07355549999568,
                    "velocity": 0.41732283464566927,
                    "duration": 0.0996744999999919
                },
                {
                    "name": "G5",
                    "midi": 79,
                    "time": 253.17322999999567,
                    "velocity": 0.4094488188976378,
                    "duration": 0.0996744999999919
                },
                {
                    "name": "F#5",
                    "midi": 78,
                    "time": 253.27290449999566,
                    "velocity": 0.4251968503937008,
                    "duration": 0.0996744999999919
                },
                {
                    "name": "E5",
                    "midi": 76,
                    "time": 253.37257899999565,
                    "velocity": 0.44881889763779526,
                    "duration": 0.0996744999999919
                },
                {
                    "name": "D5",
                    "midi": 74,
                    "time": 253.47225349999565,
                    "velocity": 0.47244094488188976,
                    "duration": 0.0996744999999919
                },
                {
                    "name": "C#5",
                    "midi": 73,
                    "time": 253.57192799999564,
                    "velocity": 0.5039370078740157,
                    "duration": 0.0996744999999919
                },
                {
                    "name": "B4",
                    "midi": 71,
                    "time": 253.67160249999563,
                    "velocity": 0.5275590551181102,
                    "duration": 0.0996744999999919
                },
                {
                    "name": "A4",
                    "midi": 69,
                    "time": 253.77127699999562,
                    "velocity": 0.5511811023622047,
                    "duration": 0.07475587499999392
                },
                {
                    "name": "E5",
                    "midi": 76,
                    "time": 253.9706259999956,
                    "velocity": 0.4094488188976378,
                    "duration": 0.07475587499999392
                },
                {
                    "name": "C#5",
                    "midi": 73,
                    "time": 253.9706259999956,
                    "velocity": 0.4094488188976378,
                    "duration": 0.07475587499999392
                },
                {
                    "name": "A5",
                    "midi": 81,
                    "time": 253.9706259999956,
                    "velocity": 0.4881889763779528,
                    "duration": 0.07475587499999392
                },
                {
                    "name": "C#5",
                    "midi": 73,
                    "time": 254.1699749999956,
                    "velocity": 0.4094488188976378,
                    "duration": 0.07475587499999392
                },
                {
                    "name": "E5",
                    "midi": 76,
                    "time": 254.1699749999956,
                    "velocity": 0.4094488188976378,
                    "duration": 0.07475587499999392
                },
                {
                    "name": "A5",
                    "midi": 81,
                    "time": 254.1699749999956,
                    "velocity": 0.4881889763779528,
                    "duration": 0.07475587499999392
                },
                {
                    "name": "E5",
                    "midi": 76,
                    "time": 254.36932399999557,
                    "velocity": 0.4409448818897638,
                    "duration": 0.07475587499999392
                },
                {
                    "name": "A5",
                    "midi": 81,
                    "time": 254.36932399999557,
                    "velocity": 0.5275590551181102,
                    "duration": 0.07475587499999392
                },
                {
                    "name": "C#5",
                    "midi": 73,
                    "time": 254.36932399999557,
                    "velocity": 0.4409448818897638,
                    "duration": 0.07475587499999392
                },
                {
                    "name": "A4",
                    "midi": 69,
                    "time": 254.96737099999555,
                    "velocity": 0.33070866141732286,
                    "duration": 0.5980470000000082
                },
                {
                    "name": "F#5",
                    "midi": 78,
                    "time": 254.96737099999555,
                    "velocity": 0.3937007874015748,
                    "duration": 0.5980470000000082
                },
                {
                    "name": "G4",
                    "midi": 67,
                    "time": 255.56541799999556,
                    "velocity": 0.30708661417322836,
                    "duration": 0.5980470000000366
                },
                {
                    "name": "E5",
                    "midi": 76,
                    "time": 255.56541799999556,
                    "velocity": 0.3700787401574803,
                    "duration": 0.1993490000000122
                },
                {
                    "name": "F#5",
                    "midi": 78,
                    "time": 255.76476699999557,
                    "velocity": 0.3464566929133858,
                    "duration": 0.1993490000000122
                },
                {
                    "name": "E5",
                    "midi": 76,
                    "time": 255.96411599999558,
                    "velocity": 0.3464566929133858,
                    "duration": 0.1993490000000122
                },
                {
                    "name": "F#4",
                    "midi": 66,
                    "time": 256.1634649999956,
                    "velocity": 0.33070866141732286,
                    "duration": 1.594791999999984
                },
                {
                    "name": "D5",
                    "midi": 74,
                    "time": 256.1634649999956,
                    "velocity": 0.3937007874015748,
                    "duration": 1.594791999999984
                },
                {
                    "name": "F#5",
                    "midi": 78,
                    "time": 257.7582569999956,
                    "velocity": 0.3937007874015748,
                    "duration": 0.1993489999999838
                },
                {
                    "name": "G5",
                    "midi": 79,
                    "time": 257.95760599999556,
                    "velocity": 0.3937007874015748,
                    "duration": 0.3986980000000244
                },
                {
                    "name": "D5",
                    "midi": 74,
                    "time": 257.95760599999556,
                    "velocity": 0.33070866141732286,
                    "duration": 0.5980470000000082
                },
                {
                    "name": "B5",
                    "midi": 83,
                    "time": 258.3563039999956,
                    "velocity": 0.4251968503937008,
                    "duration": 0.1993489999999838
                },
                {
                    "name": "C#5",
                    "midi": 73,
                    "time": 258.5556529999956,
                    "velocity": 0.3543307086614173,
                    "duration": 0.1993489999999838
                },
                {
                    "name": "A5",
                    "midi": 81,
                    "time": 258.5556529999956,
                    "velocity": 0.41732283464566927,
                    "duration": 0.3986979999999676
                },
                {
                    "name": "D5",
                    "midi": 74,
                    "time": 258.75500199999556,
                    "velocity": 0.3937007874015748,
                    "duration": 0.1993489999999838
                },
                {
                    "name": "G5",
                    "midi": 79,
                    "time": 258.95435099999554,
                    "velocity": 0.3937007874015748,
                    "duration": 0.1993489999999838
                },
                {
                    "name": "E5",
                    "midi": 76,
                    "time": 258.95435099999554,
                    "velocity": 0.33070866141732286,
                    "duration": 0.1993489999999838
                },
                {
                    "name": "F#5",
                    "midi": 78,
                    "time": 259.1536999999955,
                    "velocity": 0.4251968503937008,
                    "duration": 0.3986980000000244
                },
                {
                    "name": "D5",
                    "midi": 74,
                    "time": 259.1536999999955,
                    "velocity": 0.3543307086614173,
                    "duration": 0.3986980000000244
                },
                {
                    "name": "E5",
                    "midi": 76,
                    "time": 259.75174699999553,
                    "velocity": 0.3937007874015748,
                    "duration": 0.797395999999992
                },
                {
                    "name": "F#5",
                    "midi": 78,
                    "time": 260.5491429999955,
                    "velocity": 0.3464566929133858,
                    "duration": 0.1993489999999838
                },
                {
                    "name": "E5",
                    "midi": 76,
                    "time": 260.7484919999955,
                    "velocity": 0.3464566929133858,
                    "duration": 0.1993489999999838
                },
                {
                    "name": "E5",
                    "midi": 76,
                    "time": 260.9478409999955,
                    "velocity": 0.3937007874015748,
                    "duration": 0.797395999999992
                },
                {
                    "name": "F#5",
                    "midi": 78,
                    "time": 261.7452369999955,
                    "velocity": 0.3543307086614173,
                    "duration": 0.1993489999999838
                },
                {
                    "name": "G5",
                    "midi": 79,
                    "time": 261.94458599999547,
                    "velocity": 0.36220472440944884,
                    "duration": 0.1993489999999838
                },
                {
                    "name": "A5",
                    "midi": 81,
                    "time": 262.14393499999545,
                    "velocity": 0.4094488188976378,
                    "duration": 0.1993489999999838
                },
                {
                    "name": "D6",
                    "midi": 86,
                    "time": 262.34328399999544,
                    "velocity": 0.3858267716535433,
                    "duration": 0.14951174999998784
                },
                {
                    "name": "C#6",
                    "midi": 85,
                    "time": 262.5426329999954,
                    "velocity": 0.3779527559055118,
                    "duration": 0.14951174999998784
                },
                {
                    "name": "B5",
                    "midi": 83,
                    "time": 262.7419819999954,
                    "velocity": 0.3858267716535433,
                    "duration": 0.14951174999998784
                },
                {
                    "name": "A5",
                    "midi": 81,
                    "time": 262.9413309999954,
                    "velocity": 0.3779527559055118,
                    "duration": 0.14951174999998784
                },
                {
                    "name": "G5",
                    "midi": 79,
                    "time": 263.14067999999537,
                    "velocity": 0.36220472440944884,
                    "duration": 0.14951174999998784
                },
                {
                    "name": "F#5",
                    "midi": 78,
                    "time": 263.34002899999535,
                    "velocity": 0.3543307086614173,
                    "duration": 0.3986980000000244
                },
                {
                    "name": "G5",
                    "midi": 79,
                    "time": 263.7387269999954,
                    "velocity": 0.33070866141732286,
                    "duration": 0.0996744999999919
                },
                {
                    "name": "F#5",
                    "midi": 78,
                    "time": 263.83840149999537,
                    "velocity": 0.33858267716535434,
                    "duration": 0.0996744999999919
                },
                {
                    "name": "E5",
                    "midi": 76,
                    "time": 263.93807599999536,
                    "velocity": 0.29133858267716534,
                    "duration": 0.1993489999999838
                },
                {
                    "name": "A4",
                    "midi": 69,
                    "time": 264.53612299999537,
                    "velocity": 0.33070866141732286,
                    "duration": 0.5980470000000082
                },
                {
                    "name": "F#5",
                    "midi": 78,
                    "time": 264.53612299999537,
                    "velocity": 0.3937007874015748,
                    "duration": 0.5980470000000082
                },
                {
                    "name": "E5",
                    "midi": 76,
                    "time": 265.1341699999954,
                    "velocity": 0.3700787401574803,
                    "duration": 0.1993489999999838
                },
                {
                    "name": "G4",
                    "midi": 67,
                    "time": 265.1341699999954,
                    "velocity": 0.30708661417322836,
                    "duration": 0.5980469999999514
                },
                {
                    "name": "F#5",
                    "midi": 78,
                    "time": 265.33351899999536,
                    "velocity": 0.3464566929133858,
                    "duration": 0.1993489999999838
                },
                {
                    "name": "E5",
                    "midi": 76,
                    "time": 265.53286799999535,
                    "velocity": 0.3464566929133858,
                    "duration": 0.1993489999999838
                },
                {
                    "name": "F#4",
                    "midi": 66,
                    "time": 265.73221699999533,
                    "velocity": 0.33070866141732286,
                    "duration": 0.5980470000000082
                },
                {
                    "name": "D5",
                    "midi": 74,
                    "time": 265.73221699999533,
                    "velocity": 0.3937007874015748,
                    "duration": 1.5947920000000408
                },
                {
                    "name": "F#4",
                    "midi": 66,
                    "time": 266.33026399999534,
                    "velocity": 0.33070866141732286,
                    "duration": 0.5980470000000082
                },
                {
                    "name": "C5",
                    "midi": 72,
                    "time": 266.33026399999534,
                    "velocity": 0.33070866141732286,
                    "duration": 0.5980470000000082
                },
                {
                    "name": "B4",
                    "midi": 71,
                    "time": 266.92831099999535,
                    "velocity": 0.33070866141732286,
                    "duration": 0.3986980000000244
                },
                {
                    "name": "G4",
                    "midi": 67,
                    "time": 266.92831099999535,
                    "velocity": 0.33070866141732286,
                    "duration": 0.3986980000000244
                },
                {
                    "name": "D#5",
                    "midi": 75,
                    "time": 267.32700899999537,
                    "velocity": 0.3937007874015748,
                    "duration": 0.1993489999999838
                },
                {
                    "name": "A4",
                    "midi": 69,
                    "time": 267.32700899999537,
                    "velocity": 0.3937007874015748,
                    "duration": 0.1993489999999838
                },
                {
                    "name": "B4",
                    "midi": 71,
                    "time": 267.32700899999537,
                    "velocity": 0.3937007874015748,
                    "duration": 0.1993489999999838
                },
                {
                    "name": "E5",
                    "midi": 76,
                    "time": 267.52635799999535,
                    "velocity": 0.3937007874015748,
                    "duration": 0.3986980000000244
                },
                {
                    "name": "G4",
                    "midi": 67,
                    "time": 267.52635799999535,
                    "velocity": 0.33070866141732286,
                    "duration": 0.3986980000000244
                },
                {
                    "name": "B4",
                    "midi": 71,
                    "time": 267.52635799999535,
                    "velocity": 0.33070866141732286,
                    "duration": 0.3986980000000244
                },
                {
                    "name": "F#5",
                    "midi": 78,
                    "time": 267.9250559999954,
                    "velocity": 0.4251968503937008,
                    "duration": 0.1993489999999838
                },
                {
                    "name": "B5",
                    "midi": 83,
                    "time": 267.9250559999954,
                    "velocity": 0.4251968503937008,
                    "duration": 0.1993489999999838
                },
                {
                    "name": "E5",
                    "midi": 76,
                    "time": 268.12440499999536,
                    "velocity": 0.3543307086614173,
                    "duration": 0.3986980000000244
                },
                {
                    "name": "A5",
                    "midi": 81,
                    "time": 268.12440499999536,
                    "velocity": 0.41732283464566927,
                    "duration": 0.3986980000000244
                },
                {
                    "name": "C#5",
                    "midi": 73,
                    "time": 268.5231029999954,
                    "velocity": 0.33070866141732286,
                    "duration": 0.1993489999999838
                },
                {
                    "name": "G5",
                    "midi": 79,
                    "time": 268.5231029999954,
                    "velocity": 0.3937007874015748,
                    "duration": 0.1993489999999838
                },
                {
                    "name": "F#5",
                    "midi": 78,
                    "time": 268.72245199999537,
                    "velocity": 0.4251968503937008,
                    "duration": 0.3986980000000244
                },
                {
                    "name": "D5",
                    "midi": 74,
                    "time": 268.72245199999537,
                    "velocity": 0.3543307086614173,
                    "duration": 0.3986980000000244
                },
                {
                    "name": "E5",
                    "midi": 76,
                    "time": 269.3204989999954,
                    "velocity": 0.3937007874015748,
                    "duration": 0.1993489999999838
                },
                {
                    "name": "E6",
                    "midi": 88,
                    "time": 269.51984799999536,
                    "velocity": 0.4330708661417323,
                    "duration": 0.0996744999999919
                },
                {
                    "name": "E6",
                    "midi": 88,
                    "time": 269.71919699999535,
                    "velocity": 0.4330708661417323,
                    "duration": 0.0996744999999919
                },
                {
                    "name": "E6",
                    "midi": 88,
                    "time": 269.91854599999533,
                    "velocity": 0.4645669291338583,
                    "duration": 0.0996744999999919
                },
                {
                    "name": "E6",
                    "midi": 88,
                    "time": 270.1178949999953,
                    "velocity": 0.41732283464566927,
                    "duration": 0.0996744999999919
                },
                {
                    "name": "E6",
                    "midi": 88,
                    "time": 270.3172439999953,
                    "velocity": 0.41732283464566927,
                    "duration": 0.0996744999999919
                },
                {
                    "name": "E6",
                    "midi": 88,
                    "time": 270.5165929999953,
                    "velocity": 0.47244094488188976,
                    "duration": 0.1993489999999838
                },
                {
                    "name": "A5",
                    "midi": 81,
                    "time": 270.71594199999527,
                    "velocity": 0.41732283464566927,
                    "duration": 0.0996744999999919
                },
                {
                    "name": "A5",
                    "midi": 81,
                    "time": 270.91529099999525,
                    "velocity": 0.41732283464566927,
                    "duration": 0.0996744999999919
                },
                {
                    "name": "A5",
                    "midi": 81,
                    "time": 271.11463999999523,
                    "velocity": 0.4881889763779528,
                    "duration": 0.0996744999999919
                },
                {
                    "name": "D6",
                    "midi": 86,
                    "time": 271.3139889999952,
                    "velocity": 0.4409448818897638,
                    "duration": 0.0996744999999919
                },
                {
                    "name": "D6",
                    "midi": 86,
                    "time": 271.5133379999952,
                    "velocity": 0.4409448818897638,
                    "duration": 0.0996744999999919
                },
                {
                    "name": "D6",
                    "midi": 86,
                    "time": 271.7126869999952,
                    "velocity": 0.44881889763779526,
                    "duration": 0.0996744999999919
                },
                {
                    "name": "B5",
                    "midi": 83,
                    "time": 271.91203599999517,
                    "velocity": 0.41732283464566927,
                    "duration": 0.0996744999999919
                },
                {
                    "name": "G5",
                    "midi": 79,
                    "time": 271.91203599999517,
                    "velocity": 0.3543307086614173,
                    "duration": 0.0996744999999919
                },
                {
                    "name": "F#5",
                    "midi": 78,
                    "time": 272.11138499999515,
                    "velocity": 0.3543307086614173,
                    "duration": 0.0996744999999919
                },
                {
                    "name": "A5",
                    "midi": 81,
                    "time": 272.11138499999515,
                    "velocity": 0.4251968503937008,
                    "duration": 0.0996744999999919
                },
                {
                    "name": "E5",
                    "midi": 76,
                    "time": 272.31073399999514,
                    "velocity": 0.3700787401574803,
                    "duration": 0.0996744999999919
                },
                {
                    "name": "G5",
                    "midi": 79,
                    "time": 272.31073399999514,
                    "velocity": 0.4409448818897638,
                    "duration": 0.0996744999999919
                },
                {
                    "name": "D5",
                    "midi": 74,
                    "time": 272.5100829999951,
                    "velocity": 0.3858267716535433,
                    "duration": 0.0996744999999919
                },
                {
                    "name": "F#5",
                    "midi": 78,
                    "time": 272.5100829999951,
                    "velocity": 0.4566929133858268,
                    "duration": 0.0996744999999919
                },
                {
                    "name": "C#5",
                    "midi": 73,
                    "time": 272.7094319999951,
                    "velocity": 0.3937007874015748,
                    "duration": 0.0996744999999919
                },
                {
                    "name": "E5",
                    "midi": 76,
                    "time": 272.7094319999951,
                    "velocity": 0.4645669291338583,
                    "duration": 0.0996744999999919
                },
                {
                    "name": "D5",
                    "midi": 74,
                    "time": 272.9087809999951,
                    "velocity": 0.5118110236220472,
                    "duration": 0.5980470000000082
                },
                {
                    "name": "F#5",
                    "midi": 78,
                    "time": 273.5068279999951,
                    "velocity": 0.5118110236220472,
                    "duration": 0.5980470000000082
                },
                {
                    "name": "G5",
                    "midi": 79,
                    "time": 274.1048749999951,
                    "velocity": 0.5275590551181102,
                    "duration": 0.0996744999999919
                },
                {
                    "name": "F#5",
                    "midi": 78,
                    "time": 274.2045494999951,
                    "velocity": 0.5118110236220472,
                    "duration": 0.0996744999999919
                },
                {
                    "name": "E5",
                    "midi": 76,
                    "time": 274.3042239999951,
                    "velocity": 0.5039370078740157,
                    "duration": 0.0996744999999919
                },
                {
                    "name": "D5",
                    "midi": 74,
                    "time": 274.4038984999951,
                    "velocity": 0.49606299212598426,
                    "duration": 0.0996744999999919
                },
                {
                    "name": "C#5",
                    "midi": 73,
                    "time": 274.5035729999951,
                    "velocity": 0.48031496062992124,
                    "duration": 0.0996744999999919
                },
                {
                    "name": "E5",
                    "midi": 76,
                    "time": 274.70292199999506,
                    "velocity": 0.5118110236220472,
                    "duration": 0.0996744999999919
                },
                {
                    "name": "D5",
                    "midi": 74,
                    "time": 274.80259649999505,
                    "velocity": 0.5039370078740157,
                    "duration": 0.0996744999999919
                },
                {
                    "name": "C#5",
                    "midi": 73,
                    "time": 274.90227099999504,
                    "velocity": 0.4881889763779528,
                    "duration": 0.0996744999999919
                },
                {
                    "name": "B4",
                    "midi": 71,
                    "time": 275.00194549999503,
                    "velocity": 0.48031496062992124,
                    "duration": 0.0996744999999919
                },
                {
                    "name": "A4",
                    "midi": 69,
                    "time": 275.101619999995,
                    "velocity": 0.47244094488188976,
                    "duration": 0.0996744999999919
                },
                {
                    "name": "G4",
                    "midi": 67,
                    "time": 275.201294499995,
                    "velocity": 0.4566929133858268,
                    "duration": 0.0996744999999919
                },
                {
                    "name": "F#4",
                    "midi": 66,
                    "time": 275.300968999995,
                    "velocity": 0.48031496062992124,
                    "duration": 0.0996744999999919
                },
                {
                    "name": "A4",
                    "midi": 69,
                    "time": 275.500317999995,
                    "velocity": 0.3858267716535433,
                    "duration": 0.0996744999999919
                },
                {
                    "name": "D5",
                    "midi": 74,
                    "time": 275.699666999995,
                    "velocity": 0.4094488188976378,
                    "duration": 0.0996744999999919
                },
                {
                    "name": "F#5",
                    "midi": 78,
                    "time": 275.89901599999496,
                    "velocity": 0.4330708661417323,
                    "duration": 0.0996744999999919
                },
                {
                    "name": "A5",
                    "midi": 81,
                    "time": 276.09836499999494,
                    "velocity": 0.4566929133858268,
                    "duration": 0.0996744999999919
                },
                {
                    "name": "G5",
                    "midi": 79,
                    "time": 276.4970629999949,
                    "velocity": 0.5275590551181102,
                    "duration": 0.0996744999999919
                },
                {
                    "name": "F#5",
                    "midi": 78,
                    "time": 276.5967374999949,
                    "velocity": 0.5118110236220472,
                    "duration": 0.0996744999999919
                },
                {
                    "name": "E5",
                    "midi": 76,
                    "time": 276.6964119999949,
                    "velocity": 0.5039370078740157,
                    "duration": 0.0996744999999919
                },
                {
                    "name": "D5",
                    "midi": 74,
                    "time": 276.7960864999949,
                    "velocity": 0.49606299212598426,
                    "duration": 0.0996744999999919
                },
                {
                    "name": "C#5",
                    "midi": 73,
                    "time": 276.8957609999949,
                    "velocity": 0.48031496062992124,
                    "duration": 0.0996744999999919
                },
                {
                    "name": "E5",
                    "midi": 76,
                    "time": 277.09510999999486,
                    "velocity": 0.5118110236220472,
                    "duration": 0.0996744999999919
                },
                {
                    "name": "D5",
                    "midi": 74,
                    "time": 277.19478449999485,
                    "velocity": 0.5039370078740157,
                    "duration": 0.0996744999999919
                },
                {
                    "name": "C#5",
                    "midi": 73,
                    "time": 277.29445899999484,
                    "velocity": 0.4881889763779528,
                    "duration": 0.0996744999999919
                },
                {
                    "name": "B4",
                    "midi": 71,
                    "time": 277.39413349999484,
                    "velocity": 0.48031496062992124,
                    "duration": 0.0996744999999919
                },
                {
                    "name": "A4",
                    "midi": 69,
                    "time": 277.49380799999483,
                    "velocity": 0.47244094488188976,
                    "duration": 0.0996744999999919
                },
                {
                    "name": "G4",
                    "midi": 67,
                    "time": 277.5934824999948,
                    "velocity": 0.4566929133858268,
                    "duration": 0.0996744999999919
                },
                {
                    "name": "F#4",
                    "midi": 66,
                    "time": 277.6931569999948,
                    "velocity": 0.48031496062992124,
                    "duration": 0.0996744999999919
                },
                {
                    "name": "A4",
                    "midi": 69,
                    "time": 277.8925059999948,
                    "velocity": 0.3858267716535433,
                    "duration": 0.0996744999999919
                },
                {
                    "name": "D5",
                    "midi": 74,
                    "time": 278.0918549999948,
                    "velocity": 0.4094488188976378,
                    "duration": 0.0996744999999919
                },
                {
                    "name": "F#5",
                    "midi": 78,
                    "time": 278.29120399999476,
                    "velocity": 0.4330708661417323,
                    "duration": 0.0996744999999919
                },
                {
                    "name": "A5",
                    "midi": 81,
                    "time": 278.49055299999475,
                    "velocity": 0.4566929133858268,
                    "duration": 0.0996744999999919
                },
                {
                    "name": "A#5",
                    "midi": 82,
                    "time": 279.08859999999476,
                    "velocity": 0.3543307086614173,
                    "duration": 0.1993489999999838
                },
                {
                    "name": "B5",
                    "midi": 83,
                    "time": 279.28794899999474,
                    "velocity": 0.3543307086614173,
                    "duration": 0.1993489999999838
                },
                {
                    "name": "D6",
                    "midi": 86,
                    "time": 279.6866469999947,
                    "velocity": 0.3543307086614173,
                    "duration": 0.1993489999999838
                },
                {
                    "name": "B5",
                    "midi": 83,
                    "time": 279.8859959999947,
                    "velocity": 0.3543307086614173,
                    "duration": 0.1993489999999838
                },
                {
                    "name": "G#5",
                    "midi": 80,
                    "time": 280.28469399999466,
                    "velocity": 0.3543307086614173,
                    "duration": 0.1993489999999838
                },
                {
                    "name": "A5",
                    "midi": 81,
                    "time": 280.48404299999464,
                    "velocity": 0.3543307086614173,
                    "duration": 0.1993489999999838
                },
                {
                    "name": "B5",
                    "midi": 83,
                    "time": 280.8827409999946,
                    "velocity": 0.3543307086614173,
                    "duration": 0.1993489999999838
                },
                {
                    "name": "G5",
                    "midi": 79,
                    "time": 281.0820899999946,
                    "velocity": 0.3543307086614173,
                    "duration": 0.1993489999999838
                },
                {
                    "name": "F5",
                    "midi": 77,
                    "time": 281.48078799999456,
                    "velocity": 0.3543307086614173,
                    "duration": 0.1993489999999838
                },
                {
                    "name": "F#5",
                    "midi": 78,
                    "time": 281.68013699999455,
                    "velocity": 0.3543307086614173,
                    "duration": 0.1993489999999838
                },
                {
                    "name": "G5",
                    "midi": 79,
                    "time": 282.0788349999945,
                    "velocity": 0.3543307086614173,
                    "duration": 0.1993489999999838
                },
                {
                    "name": "E5",
                    "midi": 76,
                    "time": 282.2781839999945,
                    "velocity": 0.3543307086614173,
                    "duration": 0.1993489999999838
                },
                {
                    "name": "D5",
                    "midi": 74,
                    "time": 282.4775329999945,
                    "velocity": 0.5118110236220472,
                    "duration": 0.5980470000000082
                },
                {
                    "name": "F#5",
                    "midi": 78,
                    "time": 283.0755799999945,
                    "velocity": 0.5118110236220472,
                    "duration": 0.5980470000000082
                },
                {
                    "name": "G5",
                    "midi": 79,
                    "time": 283.6736269999945,
                    "velocity": 0.5275590551181102,
                    "duration": 0.0996744999999919
                },
                {
                    "name": "F#5",
                    "midi": 78,
                    "time": 283.7733014999945,
                    "velocity": 0.5118110236220472,
                    "duration": 0.0996744999999919
                },
                {
                    "name": "E5",
                    "midi": 76,
                    "time": 283.8729759999945,
                    "velocity": 0.5039370078740157,
                    "duration": 0.0996744999999919
                },
                {
                    "name": "D5",
                    "midi": 74,
                    "time": 283.9726504999945,
                    "velocity": 0.49606299212598426,
                    "duration": 0.0996744999999919
                },
                {
                    "name": "C#5",
                    "midi": 73,
                    "time": 284.07232499999446,
                    "velocity": 0.48031496062992124,
                    "duration": 0.0996744999999919
                },
                {
                    "name": "E5",
                    "midi": 76,
                    "time": 284.27167399999445,
                    "velocity": 0.5118110236220472,
                    "duration": 0.0996744999999919
                },
                {
                    "name": "D5",
                    "midi": 74,
                    "time": 284.37134849999444,
                    "velocity": 0.5039370078740157,
                    "duration": 0.0996744999999919
                },
                {
                    "name": "C#5",
                    "midi": 73,
                    "time": 284.47102299999443,
                    "velocity": 0.4881889763779528,
                    "duration": 0.0996744999999919
                },
                {
                    "name": "B4",
                    "midi": 71,
                    "time": 284.5706974999944,
                    "velocity": 0.48031496062992124,
                    "duration": 0.0996744999999919
                },
                {
                    "name": "A4",
                    "midi": 69,
                    "time": 284.6703719999944,
                    "velocity": 0.47244094488188976,
                    "duration": 0.0996744999999919
                },
                {
                    "name": "G4",
                    "midi": 67,
                    "time": 284.7700464999944,
                    "velocity": 0.4566929133858268,
                    "duration": 0.0996744999999919
                },
                {
                    "name": "F#4",
                    "midi": 66,
                    "time": 284.8697209999944,
                    "velocity": 0.48031496062992124,
                    "duration": 0.0996744999999919
                },
                {
                    "name": "A4",
                    "midi": 69,
                    "time": 285.0690699999944,
                    "velocity": 0.3858267716535433,
                    "duration": 0.0996744999999919
                },
                {
                    "name": "D5",
                    "midi": 74,
                    "time": 285.26841899999437,
                    "velocity": 0.4094488188976378,
                    "duration": 0.0996744999999919
                },
                {
                    "name": "F#5",
                    "midi": 78,
                    "time": 285.46776799999435,
                    "velocity": 0.4330708661417323,
                    "duration": 0.0996744999999919
                },
                {
                    "name": "A5",
                    "midi": 81,
                    "time": 285.66711699999433,
                    "velocity": 0.4566929133858268,
                    "duration": 0.0996744999999919
                },
                {
                    "name": "G5",
                    "midi": 79,
                    "time": 286.0658149999943,
                    "velocity": 0.5275590551181102,
                    "duration": 0.0996744999999919
                },
                {
                    "name": "F#5",
                    "midi": 78,
                    "time": 286.1654894999943,
                    "velocity": 0.5118110236220472,
                    "duration": 0.0996744999999919
                },
                {
                    "name": "E5",
                    "midi": 76,
                    "time": 286.2651639999943,
                    "velocity": 0.5039370078740157,
                    "duration": 0.0996744999999919
                },
                {
                    "name": "D5",
                    "midi": 74,
                    "time": 286.3648384999943,
                    "velocity": 0.49606299212598426,
                    "duration": 0.0996744999999919
                },
                {
                    "name": "C#5",
                    "midi": 73,
                    "time": 286.46451299999427,
                    "velocity": 0.48031496062992124,
                    "duration": 0.0996744999999919
                },
                {
                    "name": "E5",
                    "midi": 76,
                    "time": 286.66386199999425,
                    "velocity": 0.5118110236220472,
                    "duration": 0.0996744999999919
                },
                {
                    "name": "D5",
                    "midi": 74,
                    "time": 286.76353649999425,
                    "velocity": 0.5039370078740157,
                    "duration": 0.0996744999999919
                },
                {
                    "name": "C#5",
                    "midi": 73,
                    "time": 286.86321099999424,
                    "velocity": 0.4881889763779528,
                    "duration": 0.0996744999999919
                },
                {
                    "name": "B4",
                    "midi": 71,
                    "time": 286.96288549999423,
                    "velocity": 0.48031496062992124,
                    "duration": 0.0996744999999919
                },
                {
                    "name": "A4",
                    "midi": 69,
                    "time": 287.0625599999942,
                    "velocity": 0.47244094488188976,
                    "duration": 0.0996744999999919
                },
                {
                    "name": "G4",
                    "midi": 67,
                    "time": 287.1622344999942,
                    "velocity": 0.4566929133858268,
                    "duration": 0.0996744999999919
                },
                {
                    "name": "F#4",
                    "midi": 66,
                    "time": 287.2619089999942,
                    "velocity": 0.48031496062992124,
                    "duration": 0.0996744999999919
                },
                {
                    "name": "A4",
                    "midi": 69,
                    "time": 287.4612579999942,
                    "velocity": 0.3858267716535433,
                    "duration": 0.0996744999999919
                },
                {
                    "name": "D5",
                    "midi": 74,
                    "time": 287.6606069999942,
                    "velocity": 0.4094488188976378,
                    "duration": 0.0996744999999919
                },
                {
                    "name": "F#5",
                    "midi": 78,
                    "time": 287.85995599999416,
                    "velocity": 0.4330708661417323,
                    "duration": 0.0996744999999919
                },
                {
                    "name": "A5",
                    "midi": 81,
                    "time": 288.05930499999414,
                    "velocity": 0.4566929133858268,
                    "duration": 0.0996744999999919
                },
                {
                    "name": "A#5",
                    "midi": 82,
                    "time": 288.65735199999415,
                    "velocity": 0.3543307086614173,
                    "duration": 0.1993489999999838
                },
                {
                    "name": "B5",
                    "midi": 83,
                    "time": 288.85670099999413,
                    "velocity": 0.33858267716535434,
                    "duration": 0.1993489999999838
                },
                {
                    "name": "D6",
                    "midi": 86,
                    "time": 289.2553989999941,
                    "velocity": 0.3543307086614173,
                    "duration": 0.1993489999999838
                },
                {
                    "name": "B5",
                    "midi": 83,
                    "time": 289.4547479999941,
                    "velocity": 0.3228346456692913,
                    "duration": 0.1993489999999838
                },
                {
                    "name": "G#5",
                    "midi": 80,
                    "time": 289.85344599999405,
                    "velocity": 0.3543307086614173,
                    "duration": 0.1993489999999838
                },
                {
                    "name": "A5",
                    "midi": 81,
                    "time": 290.05279499999403,
                    "velocity": 0.3464566929133858,
                    "duration": 0.1993489999999838
                },
                {
                    "name": "B5",
                    "midi": 83,
                    "time": 290.451492999994,
                    "velocity": 0.3543307086614173,
                    "duration": 0.1993489999999838
                },
                {
                    "name": "G5",
                    "midi": 79,
                    "time": 290.650841999994,
                    "velocity": 0.33858267716535434,
                    "duration": 0.1993489999999838
                },
                {
                    "name": "F5",
                    "midi": 77,
                    "time": 291.04953999999395,
                    "velocity": 0.3543307086614173,
                    "duration": 0.1993489999999838
                },
                {
                    "name": "F#5",
                    "midi": 78,
                    "time": 291.24888899999394,
                    "velocity": 0.33858267716535434,
                    "duration": 0.1993489999999838
                },
                {
                    "name": "G5",
                    "midi": 79,
                    "time": 291.6475869999939,
                    "velocity": 0.3543307086614173,
                    "duration": 0.1993489999999838
                },
                {
                    "name": "E5",
                    "midi": 76,
                    "time": 291.8469359999939,
                    "velocity": 0.33858267716535434,
                    "duration": 0.1993489999999838
                },
                {
                    "name": "A#4",
                    "midi": 70,
                    "time": 292.24563399999386,
                    "velocity": 0.4566929133858268,
                    "duration": 0.0996744999999919
                },
                {
                    "name": "A#5",
                    "midi": 82,
                    "time": 292.24563399999386,
                    "velocity": 0.5433070866141733,
                    "duration": 0.0996744999999919
                },
                {
                    "name": "B5",
                    "midi": 83,
                    "time": 292.44498299999384,
                    "velocity": 0.5275590551181102,
                    "duration": 0.0996744999999919
                },
                {
                    "name": "B4",
                    "midi": 71,
                    "time": 292.44498299999384,
                    "velocity": 0.4409448818897638,
                    "duration": 0.0996744999999919
                },
                {
                    "name": "D5",
                    "midi": 74,
                    "time": 292.8436809999938,
                    "velocity": 0.4566929133858268,
                    "duration": 0.0996744999999919
                },
                {
                    "name": "D6",
                    "midi": 86,
                    "time": 292.8436809999938,
                    "velocity": 0.5433070866141733,
                    "duration": 0.0996744999999919
                },
                {
                    "name": "B4",
                    "midi": 71,
                    "time": 293.0430299999938,
                    "velocity": 0.4409448818897638,
                    "duration": 0.0996744999999919
                },
                {
                    "name": "B5",
                    "midi": 83,
                    "time": 293.0430299999938,
                    "velocity": 0.5275590551181102,
                    "duration": 0.0996744999999919
                },
                {
                    "name": "G#4",
                    "midi": 68,
                    "time": 293.44172799999376,
                    "velocity": 0.4566929133858268,
                    "duration": 0.0996744999999919
                },
                {
                    "name": "G#5",
                    "midi": 80,
                    "time": 293.44172799999376,
                    "velocity": 0.5433070866141733,
                    "duration": 0.0996744999999919
                },
                {
                    "name": "A4",
                    "midi": 69,
                    "time": 293.64107699999374,
                    "velocity": 0.4409448818897638,
                    "duration": 0.0996744999999919
                },
                {
                    "name": "A5",
                    "midi": 81,
                    "time": 293.64107699999374,
                    "velocity": 0.5275590551181102,
                    "duration": 0.0996744999999919
                },
                {
                    "name": "B4",
                    "midi": 71,
                    "time": 294.0397749999937,
                    "velocity": 0.4566929133858268,
                    "duration": 0.0996744999999919
                },
                {
                    "name": "B5",
                    "midi": 83,
                    "time": 294.0397749999937,
                    "velocity": 0.5433070866141733,
                    "duration": 0.0996744999999919
                },
                {
                    "name": "G5",
                    "midi": 79,
                    "time": 294.2391239999937,
                    "velocity": 0.5275590551181102,
                    "duration": 0.0996744999999919
                },
                {
                    "name": "G4",
                    "midi": 67,
                    "time": 294.2391239999937,
                    "velocity": 0.4409448818897638,
                    "duration": 0.0996744999999919
                },
                {
                    "name": "F5",
                    "midi": 77,
                    "time": 294.63782199999366,
                    "velocity": 0.5433070866141733,
                    "duration": 0.0996744999999919
                },
                {
                    "name": "F4",
                    "midi": 65,
                    "time": 294.63782199999366,
                    "velocity": 0.4566929133858268,
                    "duration": 0.0996744999999919
                },
                {
                    "name": "F#5",
                    "midi": 78,
                    "time": 294.83717099999365,
                    "velocity": 0.5275590551181102,
                    "duration": 0.0996744999999919
                },
                {
                    "name": "F#4",
                    "midi": 66,
                    "time": 294.83717099999365,
                    "velocity": 0.4409448818897638,
                    "duration": 0.0996744999999919
                },
                {
                    "name": "G4",
                    "midi": 67,
                    "time": 295.2358689999936,
                    "velocity": 0.4566929133858268,
                    "duration": 0.0996744999999919
                },
                {
                    "name": "G5",
                    "midi": 79,
                    "time": 295.2358689999936,
                    "velocity": 0.5433070866141733,
                    "duration": 0.0996744999999919
                },
                {
                    "name": "E4",
                    "midi": 64,
                    "time": 295.4352179999936,
                    "velocity": 0.4409448818897638,
                    "duration": 0.0996744999999919
                },
                {
                    "name": "E5",
                    "midi": 76,
                    "time": 295.4352179999936,
                    "velocity": 0.5275590551181102,
                    "duration": 0.0996744999999919
                },
                {
                    "name": "D5",
                    "midi": 74,
                    "time": 295.6345669999936,
                    "velocity": 0.5669291338582677,
                    "duration": 0.1993489999999838
                },
                {
                    "name": "F#4",
                    "midi": 66,
                    "time": 295.6345669999936,
                    "velocity": 0.5669291338582677,
                    "duration": 0.1993489999999838
                },
                {
                    "name": "D5",
                    "midi": 74,
                    "time": 296.2326139999936,
                    "velocity": 0.5748031496062992,
                    "duration": 0.5980470000000082
                },
                {
                    "name": "F#4",
                    "midi": 66,
                    "time": 296.2326139999936,
                    "velocity": 0.4881889763779528,
                    "duration": 0.5980470000000082
                },
                {
                    "name": "G4",
                    "midi": 67,
                    "time": 296.8306609999936,
                    "velocity": 0.49606299212598426,
                    "duration": 0.3986980000000244
                },
                {
                    "name": "E5",
                    "midi": 76,
                    "time": 296.8306609999936,
                    "velocity": 0.5905511811023622,
                    "duration": 0.3986980000000244
                },
                {
                    "name": "B4",
                    "midi": 71,
                    "time": 297.2293589999936,
                    "velocity": 0.47244094488188976,
                    "duration": 0.14951174999998784
                },
                {
                    "name": "G5",
                    "midi": 79,
                    "time": 297.2293589999936,
                    "velocity": 0.5590551181102362,
                    "duration": 0.14951174999998784
                },
                {
                    "name": "E4",
                    "midi": 64,
                    "time": 297.3788707499936,
                    "velocity": 0.5118110236220472,
                    "duration": 0.04983724999999595
                },
                {
                    "name": "D5",
                    "midi": 74,
                    "time": 297.4287079999936,
                    "velocity": 0.5984251968503937,
                    "duration": 0.3986980000000244
                },
                {
                    "name": "C#5",
                    "midi": 73,
                    "time": 297.82740599999363,
                    "velocity": 0.5433070866141733,
                    "duration": 0.03322483333334958
                },
                {
                    "name": "D5",
                    "midi": 74,
                    "time": 297.860630833327,
                    "velocity": 0.4881889763779528,
                    "duration": 0.03322483333334958
                },
                {
                    "name": "C#5",
                    "midi": 73,
                    "time": 297.89385566666033,
                    "velocity": 0.49606299212598426,
                    "duration": 0.03322483333334958
                },
                {
                    "name": "B4",
                    "midi": 71,
                    "time": 297.9270804999937,
                    "velocity": 0.5511811023622047,
                    "duration": 0.04983724999999595
                },
                {
                    "name": "C#5",
                    "midi": 73,
                    "time": 297.9769177499937,
                    "velocity": 0.5039370078740157,
                    "duration": 0.04983724999999595
                },
                {
                    "name": "D5",
                    "midi": 74,
                    "time": 298.02675499999367,
                    "velocity": 0.5669291338582677,
                    "duration": 0.1993489999999838
                },
                {
                    "name": "D5",
                    "midi": 74,
                    "time": 298.6248019999937,
                    "velocity": 0.5748031496062992,
                    "duration": 0.0996744999999919
                },
                {
                    "name": "F#4",
                    "midi": 66,
                    "time": 298.6248019999937,
                    "velocity": 0.4881889763779528,
                    "duration": 0.0996744999999919
                },
                {
                    "name": "D5",
                    "midi": 74,
                    "time": 298.82415099999366,
                    "velocity": 0.5748031496062992,
                    "duration": 0.0996744999999919
                },
                {
                    "name": "F#4",
                    "midi": 66,
                    "time": 298.82415099999366,
                    "velocity": 0.4881889763779528,
                    "duration": 0.0996744999999919
                },
                {
                    "name": "F#4",
                    "midi": 66,
                    "time": 299.02349999999365,
                    "velocity": 0.4881889763779528,
                    "duration": 0.0996744999999919
                },
                {
                    "name": "D5",
                    "midi": 74,
                    "time": 299.02349999999365,
                    "velocity": 0.5748031496062992,
                    "duration": 0.0996744999999919
                },
                {
                    "name": "E5",
                    "midi": 76,
                    "time": 299.22284899999363,
                    "velocity": 0.5905511811023622,
                    "duration": 0.3986980000000244
                },
                {
                    "name": "G4",
                    "midi": 67,
                    "time": 299.22284899999363,
                    "velocity": 0.49606299212598426,
                    "duration": 0.3986980000000244
                },
                {
                    "name": "G5",
                    "midi": 79,
                    "time": 299.62154699999365,
                    "velocity": 0.5590551181102362,
                    "duration": 0.14951174999998784
                },
                {
                    "name": "B4",
                    "midi": 71,
                    "time": 299.62154699999365,
                    "velocity": 0.47244094488188976,
                    "duration": 0.14951174999998784
                },
                {
                    "name": "E4",
                    "midi": 64,
                    "time": 299.77105874999364,
                    "velocity": 0.5118110236220472,
                    "duration": 0.04983724999999595
                },
                {
                    "name": "D5",
                    "midi": 74,
                    "time": 299.82089599999364,
                    "velocity": 0.5984251968503937,
                    "duration": 0.3986980000000244
                },
                {
                    "name": "C#5",
                    "midi": 73,
                    "time": 300.21959399999366,
                    "velocity": 0.5433070866141733,
                    "duration": 0.03322483333334958
                },
                {
                    "name": "D5",
                    "midi": 74,
                    "time": 300.252818833327,
                    "velocity": 0.4881889763779528,
                    "duration": 0.03322483333334958
                },
                {
                    "name": "C#5",
                    "midi": 73,
                    "time": 300.28604366666036,
                    "velocity": 0.49606299212598426,
                    "duration": 0.03322483333334958
                },
                {
                    "name": "B4",
                    "midi": 71,
                    "time": 300.3192684999937,
                    "velocity": 0.5511811023622047,
                    "duration": 0.04983724999999595
                },
                {
                    "name": "C#5",
                    "midi": 73,
                    "time": 300.3691057499937,
                    "velocity": 0.5039370078740157,
                    "duration": 0.04983724999999595
                },
                {
                    "name": "D5",
                    "midi": 74,
                    "time": 300.4189429999937,
                    "velocity": 0.5669291338582677,
                    "duration": 0.1993489999999838
                },
                {
                    "name": "F#4",
                    "midi": 66,
                    "time": 300.6182919999937,
                    "velocity": 0.3543307086614173,
                    "duration": 0.1993489999999838
                },
                {
                    "name": "A4",
                    "midi": 69,
                    "time": 300.81764099999367,
                    "velocity": 0.30708661417322836,
                    "duration": 0.1993489999999838
                },
                {
                    "name": "B4",
                    "midi": 71,
                    "time": 301.01698999999365,
                    "velocity": 0.3543307086614173,
                    "duration": 0.1993489999999838
                },
                {
                    "name": "C#5",
                    "midi": 73,
                    "time": 301.21633899999364,
                    "velocity": 0.3228346456692913,
                    "duration": 0.1993489999999838
                },
                {
                    "name": "D5",
                    "midi": 74,
                    "time": 301.4156879999936,
                    "velocity": 0.33070866141732286,
                    "duration": 0.1993489999999838
                },
                {
                    "name": "E5",
                    "midi": 76,
                    "time": 301.6150369999936,
                    "velocity": 0.3700787401574803,
                    "duration": 0.1993489999999838
                },
                {
                    "name": "A4",
                    "midi": 69,
                    "time": 301.8143859999936,
                    "velocity": 0.31496062992125984,
                    "duration": 0.1993489999999838
                },
                {
                    "name": "B4",
                    "midi": 71,
                    "time": 302.0137349999936,
                    "velocity": 0.29133858267716534,
                    "duration": 0.1993489999999838
                },
                {
                    "name": "C#5",
                    "midi": 73,
                    "time": 302.21308399999356,
                    "velocity": 0.36220472440944884,
                    "duration": 0.1993489999999838
                },
                {
                    "name": "D5",
                    "midi": 74,
                    "time": 302.41243299999354,
                    "velocity": 0.3464566929133858,
                    "duration": 0.1993489999999838
                },
                {
                    "name": "E5",
                    "midi": 76,
                    "time": 302.6117819999935,
                    "velocity": 0.3700787401574803,
                    "duration": 0.1993489999999838
                },
                {
                    "name": "F#5",
                    "midi": 78,
                    "time": 302.8111309999935,
                    "velocity": 0.3858267716535433,
                    "duration": 0.1993489999999838
                },
                {
                    "name": "F#4",
                    "midi": 66,
                    "time": 303.0104799999935,
                    "velocity": 0.29133858267716534,
                    "duration": 0.1993489999999838
                },
                {
                    "name": "A4",
                    "midi": 69,
                    "time": 303.0104799999935,
                    "velocity": 0.3464566929133858,
                    "duration": 0.1993489999999838
                },
                {
                    "name": "C#5",
                    "midi": 73,
                    "time": 303.2098289999935,
                    "velocity": 0.3228346456692913,
                    "duration": 0.1993489999999838
                },
                {
                    "name": "A4",
                    "midi": 69,
                    "time": 303.2098289999935,
                    "velocity": 0.2677165354330709,
                    "duration": 0.1993489999999838
                },
                {
                    "name": "D5",
                    "midi": 74,
                    "time": 303.40917799999346,
                    "velocity": 0.4094488188976378,
                    "duration": 0.1993489999999838
                },
                {
                    "name": "B4",
                    "midi": 71,
                    "time": 303.40917799999346,
                    "velocity": 0.3464566929133858,
                    "duration": 0.1993489999999838
                },
                {
                    "name": "E5",
                    "midi": 76,
                    "time": 303.60852699999344,
                    "velocity": 0.3937007874015748,
                    "duration": 0.1993489999999838
                },
                {
                    "name": "C#5",
                    "midi": 73,
                    "time": 303.60852699999344,
                    "velocity": 0.33070866141732286,
                    "duration": 0.1993489999999838
                },
                {
                    "name": "F#5",
                    "midi": 78,
                    "time": 303.8078759999934,
                    "velocity": 0.4251968503937008,
                    "duration": 0.1993489999999838
                },
                {
                    "name": "D5",
                    "midi": 74,
                    "time": 303.8078759999934,
                    "velocity": 0.3543307086614173,
                    "duration": 0.1993489999999838
                },
                {
                    "name": "E5",
                    "midi": 76,
                    "time": 304.0072249999934,
                    "velocity": 0.3779527559055118,
                    "duration": 0.1993489999999838
                },
                {
                    "name": "G5",
                    "midi": 79,
                    "time": 304.0072249999934,
                    "velocity": 0.44881889763779526,
                    "duration": 0.1993489999999838
                },
                {
                    "name": "A4",
                    "midi": 69,
                    "time": 304.2065739999934,
                    "velocity": 0.3543307086614173,
                    "duration": 0.1993489999999838
                },
                {
                    "name": "C#5",
                    "midi": 73,
                    "time": 304.2065739999934,
                    "velocity": 0.4094488188976378,
                    "duration": 0.1993489999999838
                },
                {
                    "name": "D5",
                    "midi": 74,
                    "time": 304.4059229999934,
                    "velocity": 0.3937007874015748,
                    "duration": 0.1993489999999838
                },
                {
                    "name": "B4",
                    "midi": 71,
                    "time": 304.4059229999934,
                    "velocity": 0.33070866141732286,
                    "duration": 0.1993489999999838
                },
                {
                    "name": "E5",
                    "midi": 76,
                    "time": 304.60527199999336,
                    "velocity": 0.4881889763779528,
                    "duration": 0.1993489999999838
                },
                {
                    "name": "C#5",
                    "midi": 73,
                    "time": 304.60527199999336,
                    "velocity": 0.41732283464566927,
                    "duration": 0.1993489999999838
                },
                {
                    "name": "F#5",
                    "midi": 78,
                    "time": 304.80462099999335,
                    "velocity": 0.4645669291338583,
                    "duration": 0.1993489999999838
                },
                {
                    "name": "D5",
                    "midi": 74,
                    "time": 304.80462099999335,
                    "velocity": 0.3937007874015748,
                    "duration": 0.1993489999999838
                },
                {
                    "name": "G5",
                    "midi": 79,
                    "time": 305.00396999999333,
                    "velocity": 0.5118110236220472,
                    "duration": 0.1993489999999838
                },
                {
                    "name": "E5",
                    "midi": 76,
                    "time": 305.00396999999333,
                    "velocity": 0.4251968503937008,
                    "duration": 0.1993489999999838
                },
                {
                    "name": "F#5",
                    "midi": 78,
                    "time": 305.2033189999933,
                    "velocity": 0.4566929133858268,
                    "duration": 0.1993489999999838
                },
                {
                    "name": "A5",
                    "midi": 81,
                    "time": 305.2033189999933,
                    "velocity": 0.5433070866141733,
                    "duration": 0.1993489999999838
                },
                {
                    "name": "A4",
                    "midi": 69,
                    "time": 305.7016914999933,
                    "velocity": 0.3543307086614173,
                    "duration": 0.0996744999999919
                },
                {
                    "name": "A5",
                    "midi": 81,
                    "time": 305.80136599999327,
                    "velocity": 0.3937007874015748,
                    "duration": 0.3986980000000244
                },
                {
                    "name": "F#5",
                    "midi": 78,
                    "time": 306.2000639999933,
                    "velocity": 0.3700787401574803,
                    "duration": 0.14951174999998784
                },
                {
                    "name": "E5",
                    "midi": 76,
                    "time": 306.3495757499933,
                    "velocity": 0.3700787401574803,
                    "duration": 0.04983724999999595
                },
                {
                    "name": "D5",
                    "midi": 74,
                    "time": 306.3994129999933,
                    "velocity": 0.4094488188976378,
                    "duration": 0.07475587499999392
                },
                {
                    "name": "C#5",
                    "midi": 73,
                    "time": 306.59876199999326,
                    "velocity": 0.3700787401574803,
                    "duration": 0.07475587499999392
                },
                {
                    "name": "D5",
                    "midi": 74,
                    "time": 306.79811099999324,
                    "velocity": 0.3700787401574803,
                    "duration": 0.07475587499999392
                },
                {
                    "name": "E5",
                    "midi": 76,
                    "time": 306.94762274999323,
                    "velocity": 0.36220472440944884,
                    "duration": 0.04983724999999595
                },
                {
                    "name": "D5",
                    "midi": 74,
                    "time": 306.9974599999932,
                    "velocity": 0.3937007874015748,
                    "duration": 0.07475587499999392
                },
                {
                    "name": "C#5",
                    "midi": 73,
                    "time": 307.1968089999932,
                    "velocity": 0.36220472440944884,
                    "duration": 0.07475587499999392
                },
                {
                    "name": "D5",
                    "midi": 74,
                    "time": 307.3961579999932,
                    "velocity": 0.3543307086614173,
                    "duration": 0.07475587499999392
                },
                {
                    "name": "F#5",
                    "midi": 78,
                    "time": 307.5955069999932,
                    "velocity": 0.4094488188976378,
                    "duration": 0.3986980000000244
                },
                {
                    "name": "D5",
                    "midi": 74,
                    "time": 307.5955069999932,
                    "velocity": 0.3464566929133858,
                    "duration": 0.3986980000000244
                },
                {
                    "name": "C#5",
                    "midi": 73,
                    "time": 307.9942049999932,
                    "velocity": 0.29133858267716534,
                    "duration": 0.0996744999999919
                },
                {
                    "name": "E5",
                    "midi": 76,
                    "time": 307.9942049999932,
                    "velocity": 0.3464566929133858,
                    "duration": 0.0996744999999919
                },
                {
                    "name": "G4",
                    "midi": 67,
                    "time": 308.0938794999932,
                    "velocity": 0.3543307086614173,
                    "duration": 0.0996744999999919
                },
                {
                    "name": "G5",
                    "midi": 79,
                    "time": 308.1935539999932,
                    "velocity": 0.3937007874015748,
                    "duration": 0.3986980000000244
                },
                {
                    "name": "E5",
                    "midi": 76,
                    "time": 308.5922519999932,
                    "velocity": 0.3700787401574803,
                    "duration": 0.14951174999998784
                },
                {
                    "name": "D5",
                    "midi": 74,
                    "time": 308.7417637499932,
                    "velocity": 0.3700787401574803,
                    "duration": 0.04983724999999595
                },
                {
                    "name": "C#5",
                    "midi": 73,
                    "time": 308.7916009999932,
                    "velocity": 0.4094488188976378,
                    "duration": 0.07475587499999392
                },
                {
                    "name": "B4",
                    "midi": 71,
                    "time": 308.9909499999932,
                    "velocity": 0.3700787401574803,
                    "duration": 0.07475587499999392
                },
                {
                    "name": "C#5",
                    "midi": 73,
                    "time": 309.19029899999316,
                    "velocity": 0.3700787401574803,
                    "duration": 0.07475587499999392
                },
                {
                    "name": "A4",
                    "midi": 69,
                    "time": 309.38964799999314,
                    "velocity": 0.3937007874015748,
                    "duration": 0.07475587499999392
                },
                {
                    "name": "E5",
                    "midi": 76,
                    "time": 309.5889969999931,
                    "velocity": 0.36220472440944884,
                    "duration": 0.07475587499999392
                },
                {
                    "name": "A5",
                    "midi": 81,
                    "time": 309.7883459999931,
                    "velocity": 0.3543307086614173,
                    "duration": 0.07475587499999392
                },
                {
                    "name": "G5",
                    "midi": 79,
                    "time": 309.9876949999931,
                    "velocity": 0.4094488188976378,
                    "duration": 0.3986980000000244
                },
                {
                    "name": "E5",
                    "midi": 76,
                    "time": 309.9876949999931,
                    "velocity": 0.3464566929133858,
                    "duration": 0.3986980000000244
                },
                {
                    "name": "D5",
                    "midi": 74,
                    "time": 310.3863929999931,
                    "velocity": 0.29133858267716534,
                    "duration": 0.14951174999998784
                },
                {
                    "name": "F#5",
                    "midi": 78,
                    "time": 310.3863929999931,
                    "velocity": 0.3464566929133858,
                    "duration": 0.14951174999998784
                },
                {
                    "name": "D5",
                    "midi": 74,
                    "time": 310.5359047499931,
                    "velocity": 0.3779527559055118,
                    "duration": 0.04983724999999595
                },
                {
                    "name": "F#5",
                    "midi": 78,
                    "time": 310.5857419999931,
                    "velocity": 0.4094488188976378,
                    "duration": 0.3986980000000244
                },
                {
                    "name": "G5",
                    "midi": 79,
                    "time": 310.9844399999931,
                    "velocity": 0.3779527559055118,
                    "duration": 0.1993489999999838
                },
                {
                    "name": "B5",
                    "midi": 83,
                    "time": 311.1837889999931,
                    "velocity": 0.4645669291338583,
                    "duration": 0.0996744999999919
                },
                {
                    "name": "A5",
                    "midi": 81,
                    "time": 311.2834634999931,
                    "velocity": 0.44881889763779526,
                    "duration": 0.0996744999999919
                },
                {
                    "name": "G5",
                    "midi": 79,
                    "time": 311.3831379999931,
                    "velocity": 0.4330708661417323,
                    "duration": 0.0996744999999919
                },
                {
                    "name": "F#5",
                    "midi": 78,
                    "time": 311.4828124999931,
                    "velocity": 0.41732283464566927,
                    "duration": 0.0996744999999919
                },
                {
                    "name": "E5",
                    "midi": 76,
                    "time": 311.5824869999931,
                    "velocity": 0.4015748031496063,
                    "duration": 0.0996744999999919
                },
                {
                    "name": "D5",
                    "midi": 74,
                    "time": 311.6821614999931,
                    "velocity": 0.3700787401574803,
                    "duration": 0.04983724999999595
                },
                {
                    "name": "G5",
                    "midi": 79,
                    "time": 311.73199874999307,
                    "velocity": 0.36220472440944884,
                    "duration": 0.04983724999999595
                },
                {
                    "name": "B5",
                    "midi": 83,
                    "time": 311.78183599999306,
                    "velocity": 0.4566929133858268,
                    "duration": 0.3986980000000244
                },
                {
                    "name": "C#6",
                    "midi": 85,
                    "time": 312.1805339999931,
                    "velocity": 0.3858267716535433,
                    "duration": 0.1993489999999838
                },
                {
                    "name": "E6",
                    "midi": 88,
                    "time": 312.3798829999931,
                    "velocity": 0.4645669291338583,
                    "duration": 0.0996744999999919
                },
                {
                    "name": "D6",
                    "midi": 86,
                    "time": 312.47955749999306,
                    "velocity": 0.44881889763779526,
                    "duration": 0.0996744999999919
                },
                {
                    "name": "C#6",
                    "midi": 85,
                    "time": 312.57923199999306,
                    "velocity": 0.4330708661417323,
                    "duration": 0.0996744999999919
                },
                {
                    "name": "B5",
                    "midi": 83,
                    "time": 312.67890649999305,
                    "velocity": 0.41732283464566927,
                    "duration": 0.0996744999999919
                },
                {
                    "name": "A5",
                    "midi": 81,
                    "time": 312.77858099999304,
                    "velocity": 0.4015748031496063,
                    "duration": 0.0996744999999919
                },
                {
                    "name": "G5",
                    "midi": 79,
                    "time": 312.87825549999303,
                    "velocity": 0.4015748031496063,
                    "duration": 0.0996744999999919
                },
                {
                    "name": "C#6",
                    "midi": 85,
                    "time": 312.977929999993,
                    "velocity": 0.4645669291338583,
                    "duration": 0.0996744999999919
                },
                {
                    "name": "B5",
                    "midi": 83,
                    "time": 313.077604499993,
                    "velocity": 0.4566929133858268,
                    "duration": 0.0996744999999919
                },
                {
                    "name": "A5",
                    "midi": 81,
                    "time": 313.177278999993,
                    "velocity": 0.4409448818897638,
                    "duration": 0.0996744999999919
                },
                {
                    "name": "G5",
                    "midi": 79,
                    "time": 313.276953499993,
                    "velocity": 0.4330708661417323,
                    "duration": 0.0996744999999919
                },
                {
                    "name": "F#5",
                    "midi": 78,
                    "time": 313.376627999993,
                    "velocity": 0.4566929133858268,
                    "duration": 0.0996744999999919
                },
                {
                    "name": "E5",
                    "midi": 76,
                    "time": 313.476302499993,
                    "velocity": 0.4881889763779528,
                    "duration": 0.0996744999999919
                },
                {
                    "name": "B5",
                    "midi": 83,
                    "time": 313.575976999993,
                    "velocity": 0.49606299212598426,
                    "duration": 0.0996744999999919
                },
                {
                    "name": "A5",
                    "midi": 81,
                    "time": 313.67565149999297,
                    "velocity": 0.48031496062992124,
                    "duration": 0.0996744999999919
                },
                {
                    "name": "G5",
                    "midi": 79,
                    "time": 313.77532599999296,
                    "velocity": 0.4645669291338583,
                    "duration": 0.0996744999999919
                },
                {
                    "name": "F#5",
                    "midi": 78,
                    "time": 313.87500049999295,
                    "velocity": 0.44881889763779526,
                    "duration": 0.0996744999999919
                },
                {
                    "name": "E5",
                    "midi": 76,
                    "time": 313.97467499999294,
                    "velocity": 0.4409448818897638,
                    "duration": 0.0996744999999919
                },
                {
                    "name": "D5",
                    "midi": 74,
                    "time": 314.07434949999293,
                    "velocity": 0.4251968503937008,
                    "duration": 0.0996744999999919
                },
                {
                    "name": "A5",
                    "midi": 81,
                    "time": 314.1740239999929,
                    "velocity": 0.4645669291338583,
                    "duration": 0.0996744999999919
                },
                {
                    "name": "G5",
                    "midi": 79,
                    "time": 314.2736984999929,
                    "velocity": 0.48031496062992124,
                    "duration": 0.0996744999999919
                },
                {
                    "name": "F#5",
                    "midi": 78,
                    "time": 314.3733729999929,
                    "velocity": 0.47244094488188976,
                    "duration": 0.0996744999999919
                },
                {
                    "name": "E5",
                    "midi": 76,
                    "time": 314.4730474999929,
                    "velocity": 0.4645669291338583,
                    "duration": 0.0996744999999919
                },
                {
                    "name": "D5",
                    "midi": 74,
                    "time": 314.5727219999929,
                    "velocity": 0.4566929133858268,
                    "duration": 0.0996744999999919
                },
                {
                    "name": "C#5",
                    "midi": 73,
                    "time": 314.6723964999929,
                    "velocity": 0.48031496062992124,
                    "duration": 0.0996744999999919
                },
                {
                    "name": "D5",
                    "midi": 74,
                    "time": 314.7720709999929,
                    "velocity": 0.49606299212598426,
                    "duration": 0.0996744999999919
                },
                {
                    "name": "D4",
                    "midi": 62,
                    "time": 315.17076899999284,
                    "velocity": 0.5196850393700787,
                    "duration": 0.0996744999999919
                },
                {
                    "name": "F#4",
                    "midi": 66,
                    "time": 315.27044349999284,
                    "velocity": 0.5196850393700787,
                    "duration": 0.0996744999999919
                },
                {
                    "name": "A4",
                    "midi": 69,
                    "time": 315.37011799999283,
                    "velocity": 0.5748031496062992,
                    "duration": 0.0996744999999919
                },
                {
                    "name": "F#4",
                    "midi": 66,
                    "time": 315.7688159999928,
                    "velocity": 0.5511811023622047,
                    "duration": 0.0996744999999919
                },
                {
                    "name": "A4",
                    "midi": 69,
                    "time": 315.8684904999928,
                    "velocity": 0.5511811023622047,
                    "duration": 0.0996744999999919
                },
                {
                    "name": "D5",
                    "midi": 74,
                    "time": 315.9681649999928,
                    "velocity": 0.5905511811023622,
                    "duration": 0.0996744999999919
                },
                {
                    "name": "A4",
                    "midi": 69,
                    "time": 316.36686299999275,
                    "velocity": 0.5433070866141733,
                    "duration": 0.0996744999999919
                },
                {
                    "name": "D5",
                    "midi": 74,
                    "time": 316.46653749999274,
                    "velocity": 0.5433070866141733,
                    "duration": 0.0996744999999919
                },
                {
                    "name": "F#5",
                    "midi": 78,
                    "time": 316.56621199999273,
                    "velocity": 0.6377952755905512,
                    "duration": 0.0996744999999919
                },
                {
                    "name": "D5",
                    "midi": 74,
                    "time": 316.9649099999927,
                    "velocity": 0.5511811023622047,
                    "duration": 0.0996744999999919
                },
                {
                    "name": "F#5",
                    "midi": 78,
                    "time": 317.0645844999927,
                    "velocity": 0.5511811023622047,
                    "duration": 0.0996744999999919
                },
                {
                    "name": "A5",
                    "midi": 81,
                    "time": 317.1642589999927,
                    "velocity": 0.6456692913385826,
                    "duration": 0.0996744999999919
                },
                {
                    "name": "A5",
                    "midi": 81,
                    "time": 318.3603529999927,
                    "velocity": 0.3543307086614173,
                    "duration": 0.4983725000000163
                },
                {
                    "name": "B5",
                    "midi": 83,
                    "time": 318.8587254999927,
                    "velocity": 0.33070866141732286,
                    "duration": 0.0996744999999919
                },
                {
                    "name": "D5",
                    "midi": 74,
                    "time": 318.9583999999927,
                    "velocity": 0.3700787401574803,
                    "duration": 0.3986980000000244
                },
                {
                    "name": "C#5",
                    "midi": 73,
                    "time": 319.38035538332605,
                    "velocity": 0.3700787401574803,
                    "duration": 0.1993489999999838
                },
                {
                    "name": "D5",
                    "midi": 74,
                    "time": 319.5564469999927,
                    "velocity": 0.4330708661417323,
                    "duration": 0.14951174999998784
                },
                {
                    "name": "D6",
                    "midi": 86,
                    "time": 319.7557959999927,
                    "velocity": 0.4251968503937008,
                    "duration": 0.0996744999999919
                },
                {
                    "name": "C#6",
                    "midi": 85,
                    "time": 319.9551449999927,
                    "velocity": 0.4094488188976378,
                    "duration": 0.0996744999999919
                },
                {
                    "name": "B5",
                    "midi": 83,
                    "time": 320.15449399999267,
                    "velocity": 0.3937007874015748,
                    "duration": 0.0996744999999919
                },
                {
                    "name": "A5",
                    "midi": 81,
                    "time": 320.35384299999265,
                    "velocity": 0.3858267716535433,
                    "duration": 0.0996744999999919
                },
                {
                    "name": "G#5",
                    "midi": 80,
                    "time": 320.55319199999263,
                    "velocity": 0.3700787401574803,
                    "duration": 0.0996744999999919
                },
                {
                    "name": "A5",
                    "midi": 81,
                    "time": 320.7525409999926,
                    "velocity": 0.3543307086614173,
                    "duration": 0.24918624999997974
                },
                {
                    "name": "B5",
                    "midi": 83,
                    "time": 321.0017272499926,
                    "velocity": 0.2755905511811024,
                    "duration": 0.04983724999999595
                },
                {
                    "name": "A5",
                    "midi": 81,
                    "time": 321.0515644999926,
                    "velocity": 0.2755905511811024,
                    "duration": 0.04983724999999595
                },
                {
                    "name": "G#5",
                    "midi": 80,
                    "time": 321.1014017499926,
                    "velocity": 0.2755905511811024,
                    "duration": 0.04983724999999595
                },
                {
                    "name": "A5",
                    "midi": 81,
                    "time": 321.1512389999926,
                    "velocity": 0.3543307086614173,
                    "duration": 0.0996744999999919
                },
                {
                    "name": "B5",
                    "midi": 83,
                    "time": 321.2509134999926,
                    "velocity": 0.33070866141732286,
                    "duration": 0.0996744999999919
                },
                {
                    "name": "D5",
                    "midi": 74,
                    "time": 321.35058799999257,
                    "velocity": 0.3700787401574803,
                    "duration": 0.3986980000000244
                },
                {
                    "name": "C#5",
                    "midi": 73,
                    "time": 321.7725433833259,
                    "velocity": 0.3700787401574803,
                    "duration": 0.1993489999999838
                },
                {
                    "name": "D5",
                    "midi": 74,
                    "time": 321.9486349999926,
                    "velocity": 0.4330708661417323,
                    "duration": 0.14951174999998784
                },
                {
                    "name": "D6",
                    "midi": 86,
                    "time": 322.14798399999256,
                    "velocity": 0.4251968503937008,
                    "duration": 0.0996744999999919
                },
                {
                    "name": "C#6",
                    "midi": 85,
                    "time": 322.34733299999255,
                    "velocity": 0.4094488188976378,
                    "duration": 0.0996744999999919
                },
                {
                    "name": "B5",
                    "midi": 83,
                    "time": 322.54668199999253,
                    "velocity": 0.3937007874015748,
                    "duration": 0.0996744999999919
                },
                {
                    "name": "A5",
                    "midi": 81,
                    "time": 322.7460309999925,
                    "velocity": 0.3858267716535433,
                    "duration": 0.0996744999999919
                },
                {
                    "name": "G#5",
                    "midi": 80,
                    "time": 322.9453799999925,
                    "velocity": 0.3700787401574803,
                    "duration": 0.0996744999999919
                },
                {
                    "name": "A5",
                    "midi": 81,
                    "time": 323.1447289999925,
                    "velocity": 0.3543307086614173,
                    "duration": 0.24918624999997974
                },
                {
                    "name": "B5",
                    "midi": 83,
                    "time": 323.39391524999246,
                    "velocity": 0.2755905511811024,
                    "duration": 0.04983724999999595
                },
                {
                    "name": "A5",
                    "midi": 81,
                    "time": 323.44375249999246,
                    "velocity": 0.2755905511811024,
                    "duration": 0.04983724999999595
                },
                {
                    "name": "G#5",
                    "midi": 80,
                    "time": 323.49358974999245,
                    "velocity": 0.2755905511811024,
                    "duration": 0.04983724999999595
                },
                {
                    "name": "A5",
                    "midi": 81,
                    "time": 323.54342699999245,
                    "velocity": 0.3543307086614173,
                    "duration": 0.0996744999999919
                },
                {
                    "name": "B5",
                    "midi": 83,
                    "time": 323.64310149999244,
                    "velocity": 0.33070866141732286,
                    "duration": 0.0996744999999919
                },
                {
                    "name": "D5",
                    "midi": 74,
                    "time": 323.74277599999243,
                    "velocity": 0.3700787401574803,
                    "duration": 0.3986980000000244
                },
                {
                    "name": "C#5",
                    "midi": 73,
                    "time": 324.1647313833258,
                    "velocity": 0.3700787401574803,
                    "duration": 0.1993489999999838
                },
                {
                    "name": "D5",
                    "midi": 74,
                    "time": 324.34082299999244,
                    "velocity": 0.4094488188976378,
                    "duration": 0.1993489999999838
                },
                {
                    "name": "B3",
                    "midi": 59,
                    "time": 324.93886999999245,
                    "velocity": 0.2283464566929134,
                    "duration": 0.5980470000000082
                },
                {
                    "name": "D4",
                    "midi": 62,
                    "time": 324.93886999999245,
                    "velocity": 0.2755905511811024,
                    "duration": 0.5980470000000082
                },
                {
                    "name": "F#3",
                    "midi": 54,
                    "time": 324.93886999999245,
                    "velocity": 0.2283464566929134,
                    "duration": 0.5980470000000082
                },
                {
                    "name": "B3",
                    "midi": 59,
                    "time": 325.53691699999246,
                    "velocity": 0.25196850393700787,
                    "duration": 0.5980470000000082
                },
                {
                    "name": "E4",
                    "midi": 64,
                    "time": 325.53691699999246,
                    "velocity": 0.2992125984251969,
                    "duration": 0.5980470000000082
                },
                {
                    "name": "D4",
                    "midi": 62,
                    "time": 325.53691699999246,
                    "velocity": 0.25196850393700787,
                    "duration": 0.5980470000000082
                },
                {
                    "name": "A4",
                    "midi": 69,
                    "time": 326.13496399999246,
                    "velocity": 0.30708661417322836,
                    "duration": 0.5980470000000082
                },
                {
                    "name": "E4",
                    "midi": 64,
                    "time": 326.13496399999246,
                    "velocity": 0.25984251968503935,
                    "duration": 0.5980470000000082
                },
                {
                    "name": "C#4",
                    "midi": 61,
                    "time": 326.13496399999246,
                    "velocity": 0.25984251968503935,
                    "duration": 0.5980470000000082
                },
                {
                    "name": "F#4",
                    "midi": 66,
                    "time": 326.7330109999925,
                    "velocity": 0.2755905511811024,
                    "duration": 0.1993489999999838
                },
                {
                    "name": "A3",
                    "midi": 57,
                    "time": 326.7330109999925,
                    "velocity": 0.2283464566929134,
                    "duration": 0.1993489999999838
                },
                {
                    "name": "D4",
                    "midi": 62,
                    "time": 326.7330109999925,
                    "velocity": 0.2283464566929134,
                    "duration": 0.1993489999999838
                },
                {
                    "name": "B5",
                    "midi": 83,
                    "time": 327.3310579999925,
                    "velocity": 0.4094488188976378,
                    "duration": 0.0996744999999919
                },
                {
                    "name": "F#5",
                    "midi": 78,
                    "time": 327.3310579999925,
                    "velocity": 0.3464566929133858,
                    "duration": 0.0996744999999919
                },
                {
                    "name": "D6",
                    "midi": 86,
                    "time": 327.4307324999925,
                    "velocity": 0.3700787401574803,
                    "duration": 0.0996744999999919
                },
                {
                    "name": "B5",
                    "midi": 83,
                    "time": 327.53040699999246,
                    "velocity": 0.4094488188976378,
                    "duration": 0.0996744999999919
                },
                {
                    "name": "F#5",
                    "midi": 78,
                    "time": 327.53040699999246,
                    "velocity": 0.3464566929133858,
                    "duration": 0.0996744999999919
                },
                {
                    "name": "D6",
                    "midi": 86,
                    "time": 327.63008149999246,
                    "velocity": 0.3700787401574803,
                    "duration": 0.0996744999999919
                },
                {
                    "name": "F#5",
                    "midi": 78,
                    "time": 327.72975599999245,
                    "velocity": 0.3543307086614173,
                    "duration": 0.0996744999999919
                },
                {
                    "name": "B5",
                    "midi": 83,
                    "time": 327.72975599999245,
                    "velocity": 0.41732283464566927,
                    "duration": 0.0996744999999919
                },
                {
                    "name": "D6",
                    "midi": 86,
                    "time": 327.82943049999244,
                    "velocity": 0.3858267716535433,
                    "duration": 0.0996744999999919
                },
                {
                    "name": "B5",
                    "midi": 83,
                    "time": 327.92910499999243,
                    "velocity": 0.4645669291338583,
                    "duration": 0.0996744999999919
                },
                {
                    "name": "E5",
                    "midi": 76,
                    "time": 327.92910499999243,
                    "velocity": 0.3937007874015748,
                    "duration": 0.0996744999999919
                },
                {
                    "name": "D6",
                    "midi": 86,
                    "time": 328.0287794999924,
                    "velocity": 0.41732283464566927,
                    "duration": 0.0996744999999919
                },
                {
                    "name": "E5",
                    "midi": 76,
                    "time": 328.1284539999924,
                    "velocity": 0.4015748031496063,
                    "duration": 0.0996744999999919
                },
                {
                    "name": "B5",
                    "midi": 83,
                    "time": 328.1284539999924,
                    "velocity": 0.4881889763779528,
                    "duration": 0.0996744999999919
                },
                {
                    "name": "D6",
                    "midi": 86,
                    "time": 328.2281284999924,
                    "velocity": 0.44881889763779526,
                    "duration": 0.0996744999999919
                },
                {
                    "name": "B5",
                    "midi": 83,
                    "time": 328.3278029999924,
                    "velocity": 0.5039370078740157,
                    "duration": 0.0996744999999919
                },
                {
                    "name": "E5",
                    "midi": 76,
                    "time": 328.3278029999924,
                    "velocity": 0.41732283464566927,
                    "duration": 0.0996744999999919
                },
                {
                    "name": "D6",
                    "midi": 86,
                    "time": 328.4274774999924,
                    "velocity": 0.4645669291338583,
                    "duration": 0.0996744999999919
                },
                {
                    "name": "G5",
                    "midi": 79,
                    "time": 328.5271519999924,
                    "velocity": 0.5354330708661418,
                    "duration": 0.0996744999999919
                },
                {
                    "name": "E5",
                    "midi": 76,
                    "time": 328.5271519999924,
                    "velocity": 0.44881889763779526,
                    "duration": 0.0996744999999919
                },
                {
                    "name": "C#6",
                    "midi": 85,
                    "time": 328.6268264999924,
                    "velocity": 0.4881889763779528,
                    "duration": 0.0996744999999919
                },
                {
                    "name": "E5",
                    "midi": 76,
                    "time": 328.72650099999237,
                    "velocity": 0.47244094488188976,
                    "duration": 0.0996744999999919
                },
                {
                    "name": "G5",
                    "midi": 79,
                    "time": 328.72650099999237,
                    "velocity": 0.5590551181102362,
                    "duration": 0.0996744999999919
                },
                {
                    "name": "C#6",
                    "midi": 85,
                    "time": 328.82617549999236,
                    "velocity": 0.5039370078740157,
                    "duration": 0.0996744999999919
                },
                {
                    "name": "E5",
                    "midi": 76,
                    "time": 328.92584999999235,
                    "velocity": 0.4881889763779528,
                    "duration": 0.0996744999999919
                },
                {
                    "name": "G5",
                    "midi": 79,
                    "time": 328.92584999999235,
                    "velocity": 0.5748031496062992,
                    "duration": 0.0996744999999919
                },
                {
                    "name": "C#6",
                    "midi": 85,
                    "time": 329.02552449999234,
                    "velocity": 0.5354330708661418,
                    "duration": 0.0996744999999919
                },
                {
                    "name": "D6",
                    "midi": 86,
                    "time": 329.12519899999234,
                    "velocity": 0.6929133858267716,
                    "duration": 0.0996744999999919
                },
                {
                    "name": "A5",
                    "midi": 81,
                    "time": 329.12519899999234,
                    "velocity": 0.5748031496062992,
                    "duration": 0.0996744999999919
                },
                {
                    "name": "F#5",
                    "midi": 78,
                    "time": 329.12519899999234,
                    "velocity": 0.5748031496062992,
                    "duration": 0.0996744999999919
                },
                {
                    "name": "D5",
                    "midi": 74,
                    "time": 329.12519899999234,
                    "velocity": 0.5748031496062992,
                    "duration": 0.0996744999999919
                },
                {
                    "name": "F#5",
                    "midi": 78,
                    "time": 329.72324599999234,
                    "velocity": 0.5669291338582677,
                    "duration": 0.0996744999999919
                },
                {
                    "name": "D5",
                    "midi": 74,
                    "time": 329.72324599999234,
                    "velocity": 0.5669291338582677,
                    "duration": 0.0996744999999919
                },
                {
                    "name": "A4",
                    "midi": 69,
                    "time": 329.72324599999234,
                    "velocity": 0.5669291338582677,
                    "duration": 0.0996744999999919
                },
                {
                    "name": "A5",
                    "midi": 81,
                    "time": 329.72324599999234,
                    "velocity": 0.6692913385826772,
                    "duration": 0.0996744999999919
                },
                {
                    "name": "F#5",
                    "midi": 78,
                    "time": 330.32129299999235,
                    "velocity": 0.6692913385826772,
                    "duration": 0.0996744999999919
                },
                {
                    "name": "D5",
                    "midi": 74,
                    "time": 330.32129299999235,
                    "velocity": 0.5669291338582677,
                    "duration": 0.0996744999999919
                },
                {
                    "name": "A4",
                    "midi": 69,
                    "time": 330.32129299999235,
                    "velocity": 0.5669291338582677,
                    "duration": 0.0996744999999919
                }
            ],
            "controlChanges": {
                "7": [
                    {
                        "number": 7,
                        "time": 0,
                        "value": 0.7874015748031497
                    }
                ],
                "10": [
                    {
                        "number": 10,
                        "time": 0,
                        "value": 0.5039370078740157
                    }
                ],
                "91": [
                    {
                        "number": 91,
                        "time": 0,
                        "value": 1
                    }
                ]
            },
            "id": 1,
            "name": "Piano right",
            "instrumentNumber": 0,
            "instrument": "acoustic grand piano",
            "instrumentFamily": "piano",
            "channelNumber": 0,
            "isPercussion": false
        },
        {
            "startTime": 1.1960939999999998,
            "duration": 330.42096749999826,
            "length": 1476,
            "notes": [
                {
                    "name": "D4",
                    "midi": 62,
                    "time": 1.1960939999999998,
                    "velocity": 0.2125984251968504,
                    "duration": 0.598047
                },
                {
                    "name": "F#4",
                    "midi": 66,
                    "time": 1.1960939999999998,
                    "velocity": 0.25984251968503935,
                    "duration": 0.598047
                },
                {
                    "name": "B3",
                    "midi": 59,
                    "time": 1.7941409999999998,
                    "velocity": 0.2125984251968504,
                    "duration": 0.5980469999999998
                },
                {
                    "name": "G#4",
                    "midi": 68,
                    "time": 1.7941409999999998,
                    "velocity": 0.25984251968503935,
                    "duration": 0.5980469999999998
                },
                {
                    "name": "A3",
                    "midi": 57,
                    "time": 2.3921879999999995,
                    "velocity": 0.2125984251968504,
                    "duration": 0.5980469999999998
                },
                {
                    "name": "A4",
                    "midi": 69,
                    "time": 2.3921879999999995,
                    "velocity": 0.25984251968503935,
                    "duration": 0.5980469999999998
                },
                {
                    "name": "E4",
                    "midi": 64,
                    "time": 3.588281999999999,
                    "velocity": 0.25984251968503935,
                    "duration": 0.5980469999999998
                },
                {
                    "name": "A3",
                    "midi": 57,
                    "time": 3.588281999999999,
                    "velocity": 0.2125984251968504,
                    "duration": 0.5980469999999998
                },
                {
                    "name": "C#4",
                    "midi": 61,
                    "time": 4.186328999999999,
                    "velocity": 0.2125984251968504,
                    "duration": 0.5980470000000002
                },
                {
                    "name": "E4",
                    "midi": 64,
                    "time": 4.186328999999999,
                    "velocity": 0.25984251968503935,
                    "duration": 0.5980470000000002
                },
                {
                    "name": "D4",
                    "midi": 62,
                    "time": 4.784375999999999,
                    "velocity": 0.2125984251968504,
                    "duration": 0.5980470000000002
                },
                {
                    "name": "A4",
                    "midi": 69,
                    "time": 4.784375999999999,
                    "velocity": 0.25984251968503935,
                    "duration": 0.5980470000000002
                },
                {
                    "name": "D3",
                    "midi": 50,
                    "time": 5.382422999999999,
                    "velocity": 0.4015748031496063,
                    "duration": 0.19934899999999978
                },
                {
                    "name": "D4",
                    "midi": 62,
                    "time": 5.581771999999999,
                    "velocity": 0.3543307086614173,
                    "duration": 0.09967449999999989
                },
                {
                    "name": "E4",
                    "midi": 64,
                    "time": 5.781120999999999,
                    "velocity": 0.3779527559055118,
                    "duration": 0.09967449999999989
                },
                {
                    "name": "F#4",
                    "midi": 66,
                    "time": 5.980469999999999,
                    "velocity": 0.4094488188976378,
                    "duration": 0.19934899999999978
                },
                {
                    "name": "D3",
                    "midi": 50,
                    "time": 6.578516999999998,
                    "velocity": 0.3937007874015748,
                    "duration": 0.19934899999999978
                },
                {
                    "name": "D4",
                    "midi": 62,
                    "time": 6.777865999999998,
                    "velocity": 0.3464566929133858,
                    "duration": 0.09967449999999989
                },
                {
                    "name": "E4",
                    "midi": 64,
                    "time": 6.9772149999999975,
                    "velocity": 0.3779527559055118,
                    "duration": 0.09967449999999989
                },
                {
                    "name": "F#4",
                    "midi": 66,
                    "time": 7.176563999999997,
                    "velocity": 0.41732283464566927,
                    "duration": 0.19934899999999978
                },
                {
                    "name": "G3",
                    "midi": 55,
                    "time": 7.774610999999997,
                    "velocity": 0.3937007874015748,
                    "duration": 0.19934899999999978
                },
                {
                    "name": "G4",
                    "midi": 67,
                    "time": 7.973959999999996,
                    "velocity": 0.3464566929133858,
                    "duration": 0.09967450000000078
                },
                {
                    "name": "E4",
                    "midi": 64,
                    "time": 8.173308999999998,
                    "velocity": 0.3779527559055118,
                    "duration": 0.09967450000000078
                },
                {
                    "name": "F#3",
                    "midi": 54,
                    "time": 8.372658,
                    "velocity": 0.3543307086614173,
                    "duration": 0.19934899999999978
                },
                {
                    "name": "F#4",
                    "midi": 66,
                    "time": 8.372658,
                    "velocity": 0.41732283464566927,
                    "duration": 0.19934899999999978
                },
                {
                    "name": "G4",
                    "midi": 67,
                    "time": 8.970704999999999,
                    "velocity": 0.41732283464566927,
                    "duration": 0.19934899999999978
                },
                {
                    "name": "G3",
                    "midi": 55,
                    "time": 8.970704999999999,
                    "velocity": 0.3543307086614173,
                    "duration": 0.19934899999999978
                },
                {
                    "name": "A4",
                    "midi": 69,
                    "time": 9.568751999999998,
                    "velocity": 0.41732283464566927,
                    "duration": 0.19934899999999978
                },
                {
                    "name": "A3",
                    "midi": 57,
                    "time": 9.568751999999998,
                    "velocity": 0.3543307086614173,
                    "duration": 0.19934899999999978
                },
                {
                    "name": "F#4",
                    "midi": 66,
                    "time": 10.764845999999999,
                    "velocity": 0.25984251968503935,
                    "duration": 0.5980469999999993
                },
                {
                    "name": "D4",
                    "midi": 62,
                    "time": 10.764845999999999,
                    "velocity": 0.2125984251968504,
                    "duration": 0.5980469999999993
                },
                {
                    "name": "B3",
                    "midi": 59,
                    "time": 11.362892999999998,
                    "velocity": 0.2125984251968504,
                    "duration": 0.5980469999999993
                },
                {
                    "name": "G#4",
                    "midi": 68,
                    "time": 11.362892999999998,
                    "velocity": 0.25984251968503935,
                    "duration": 0.5980469999999993
                },
                {
                    "name": "A4",
                    "midi": 69,
                    "time": 11.960939999999997,
                    "velocity": 0.25984251968503935,
                    "duration": 0.5980469999999993
                },
                {
                    "name": "A3",
                    "midi": 57,
                    "time": 11.960939999999997,
                    "velocity": 0.2125984251968504,
                    "duration": 0.5980469999999993
                },
                {
                    "name": "E4",
                    "midi": 64,
                    "time": 13.157033999999996,
                    "velocity": 0.25984251968503935,
                    "duration": 0.5980469999999993
                },
                {
                    "name": "A3",
                    "midi": 57,
                    "time": 13.157033999999996,
                    "velocity": 0.2125984251968504,
                    "duration": 0.5980469999999993
                },
                {
                    "name": "E4",
                    "midi": 64,
                    "time": 13.755080999999995,
                    "velocity": 0.25984251968503935,
                    "duration": 0.5980469999999993
                },
                {
                    "name": "C#4",
                    "midi": 61,
                    "time": 13.755080999999995,
                    "velocity": 0.2125984251968504,
                    "duration": 0.5980469999999993
                },
                {
                    "name": "D4",
                    "midi": 62,
                    "time": 14.353127999999995,
                    "velocity": 0.2125984251968504,
                    "duration": 0.5980469999999993
                },
                {
                    "name": "A4",
                    "midi": 69,
                    "time": 14.353127999999995,
                    "velocity": 0.25984251968503935,
                    "duration": 0.5980469999999993
                },
                {
                    "name": "D3",
                    "midi": 50,
                    "time": 14.951174999999994,
                    "velocity": 0.4015748031496063,
                    "duration": 0.19934899999999978
                },
                {
                    "name": "D4",
                    "midi": 62,
                    "time": 15.150523999999994,
                    "velocity": 0.3543307086614173,
                    "duration": 0.09967450000000078
                },
                {
                    "name": "E4",
                    "midi": 64,
                    "time": 15.349872999999995,
                    "velocity": 0.3779527559055118,
                    "duration": 0.09967450000000078
                },
                {
                    "name": "F#4",
                    "midi": 66,
                    "time": 15.549221999999997,
                    "velocity": 0.4094488188976378,
                    "duration": 0.19934899999999978
                },
                {
                    "name": "G2",
                    "midi": 43,
                    "time": 16.147268999999998,
                    "velocity": 0.3937007874015748,
                    "duration": 0.19934900000000155
                },
                {
                    "name": "G3",
                    "midi": 55,
                    "time": 16.346618,
                    "velocity": 0.3464566929133858,
                    "duration": 0.099674499999999
                },
                {
                    "name": "B3",
                    "midi": 59,
                    "time": 16.545966999999997,
                    "velocity": 0.3779527559055118,
                    "duration": 0.099674499999999
                },
                {
                    "name": "B3",
                    "midi": 59,
                    "time": 16.745315999999995,
                    "velocity": 0.41732283464566927,
                    "duration": 0.19934900000000155
                },
                {
                    "name": "E4",
                    "midi": 64,
                    "time": 17.343362999999997,
                    "velocity": 0.41732283464566927,
                    "duration": 0.099674499999999
                },
                {
                    "name": "B3",
                    "midi": 59,
                    "time": 17.343362999999997,
                    "velocity": 0.3543307086614173,
                    "duration": 0.099674499999999
                },
                {
                    "name": "G3",
                    "midi": 55,
                    "time": 17.35166920833333,
                    "velocity": 0.3543307086614173,
                    "duration": 0.099674499999999
                },
                {
                    "name": "D4",
                    "midi": 62,
                    "time": 17.941409999999998,
                    "velocity": 0.3543307086614173,
                    "duration": 0.099674499999999
                },
                {
                    "name": "A3",
                    "midi": 57,
                    "time": 17.941409999999998,
                    "velocity": 0.3543307086614173,
                    "duration": 0.099674499999999
                },
                {
                    "name": "F#4",
                    "midi": 66,
                    "time": 17.94971620833333,
                    "velocity": 0.41732283464566927,
                    "duration": 0.099674499999999
                },
                {
                    "name": "E4",
                    "midi": 64,
                    "time": 18.539457,
                    "velocity": 0.3543307086614173,
                    "duration": 0.099674499999999
                },
                {
                    "name": "A3",
                    "midi": 57,
                    "time": 18.539457,
                    "velocity": 0.3543307086614173,
                    "duration": 0.099674499999999
                },
                {
                    "name": "G4",
                    "midi": 67,
                    "time": 18.547763208333333,
                    "velocity": 0.41732283464566927,
                    "duration": 0.099674499999999
                },
                {
                    "name": "F#4",
                    "midi": 66,
                    "time": 19.137504,
                    "velocity": 0.41732283464566927,
                    "duration": 0.099674499999999
                },
                {
                    "name": "D4",
                    "midi": 62,
                    "time": 19.137504,
                    "velocity": 0.3543307086614173,
                    "duration": 0.099674499999999
                },
                {
                    "name": "D2",
                    "midi": 38,
                    "time": 19.536202,
                    "velocity": 0.3543307086614173,
                    "duration": 0.099674499999999
                },
                {
                    "name": "F#2",
                    "midi": 42,
                    "time": 19.6358765,
                    "velocity": 0.3543307086614173,
                    "duration": 0.099674499999999
                },
                {
                    "name": "A2",
                    "midi": 45,
                    "time": 19.735550999999997,
                    "velocity": 0.4094488188976378,
                    "duration": 0.099674499999999
                },
                {
                    "name": "F#2",
                    "midi": 42,
                    "time": 20.134248999999997,
                    "velocity": 0.3779527559055118,
                    "duration": 0.099674499999999
                },
                {
                    "name": "A2",
                    "midi": 45,
                    "time": 20.233923499999996,
                    "velocity": 0.3779527559055118,
                    "duration": 0.099674499999999
                },
                {
                    "name": "D3",
                    "midi": 50,
                    "time": 20.333597999999995,
                    "velocity": 0.44881889763779526,
                    "duration": 0.099674499999999
                },
                {
                    "name": "A2",
                    "midi": 45,
                    "time": 20.732295999999995,
                    "velocity": 0.4015748031496063,
                    "duration": 0.099674499999999
                },
                {
                    "name": "D3",
                    "midi": 50,
                    "time": 20.831970499999994,
                    "velocity": 0.4015748031496063,
                    "duration": 0.099674499999999
                },
                {
                    "name": "F#3",
                    "midi": 54,
                    "time": 20.931644999999993,
                    "velocity": 0.44881889763779526,
                    "duration": 0.099674499999999
                },
                {
                    "name": "D3",
                    "midi": 50,
                    "time": 21.330342999999992,
                    "velocity": 0.3779527559055118,
                    "duration": 0.099674499999999
                },
                {
                    "name": "F#3",
                    "midi": 54,
                    "time": 21.43001749999999,
                    "velocity": 0.3779527559055118,
                    "duration": 0.099674499999999
                },
                {
                    "name": "A3",
                    "midi": 57,
                    "time": 21.52969199999999,
                    "velocity": 0.44881889763779526,
                    "duration": 0.099674499999999
                },
                {
                    "name": "A3",
                    "midi": 57,
                    "time": 22.72578599999999,
                    "velocity": 0.2283464566929134,
                    "duration": 1.3954430000000038
                },
                {
                    "name": "F#4",
                    "midi": 66,
                    "time": 22.72578599999999,
                    "velocity": 0.2755905511811024,
                    "duration": 0.5980470000000011
                },
                {
                    "name": "D4",
                    "midi": 62,
                    "time": 22.72578599999999,
                    "velocity": 0.2283464566929134,
                    "duration": 0.5980470000000011
                },
                {
                    "name": "E4",
                    "midi": 64,
                    "time": 23.32383299999999,
                    "velocity": 0.2125984251968504,
                    "duration": 0.5980470000000011
                },
                {
                    "name": "G4",
                    "midi": 67,
                    "time": 23.32383299999999,
                    "velocity": 0.25196850393700787,
                    "duration": 0.5980470000000011
                },
                {
                    "name": "D4",
                    "midi": 62,
                    "time": 23.92187999999999,
                    "velocity": 0.2283464566929134,
                    "duration": 0.19934900000000155
                },
                {
                    "name": "F#4",
                    "midi": 66,
                    "time": 23.92187999999999,
                    "velocity": 0.2755905511811024,
                    "duration": 0.19934900000000155
                },
                {
                    "name": "A3",
                    "midi": 57,
                    "time": 25.117973999999993,
                    "velocity": 0.2283464566929134,
                    "duration": 1.3954430000000038
                },
                {
                    "name": "D4",
                    "midi": 62,
                    "time": 25.117973999999993,
                    "velocity": 0.2283464566929134,
                    "duration": 0.5980470000000011
                },
                {
                    "name": "F#4",
                    "midi": 66,
                    "time": 25.117973999999993,
                    "velocity": 0.2755905511811024,
                    "duration": 0.5980470000000011
                },
                {
                    "name": "G4",
                    "midi": 67,
                    "time": 25.716020999999994,
                    "velocity": 0.25196850393700787,
                    "duration": 0.5980470000000011
                },
                {
                    "name": "E4",
                    "midi": 64,
                    "time": 25.716020999999994,
                    "velocity": 0.2125984251968504,
                    "duration": 0.5980470000000011
                },
                {
                    "name": "D4",
                    "midi": 62,
                    "time": 26.314067999999995,
                    "velocity": 0.2283464566929134,
                    "duration": 0.19934900000000155
                },
                {
                    "name": "F#4",
                    "midi": 66,
                    "time": 26.314067999999995,
                    "velocity": 0.2755905511811024,
                    "duration": 0.19934900000000155
                },
                {
                    "name": "A3",
                    "midi": 57,
                    "time": 27.510161999999998,
                    "velocity": 0.2283464566929134,
                    "duration": 1.1960940000000022
                },
                {
                    "name": "D4",
                    "midi": 62,
                    "time": 27.510161999999998,
                    "velocity": 0.2283464566929134,
                    "duration": 0.5980470000000011
                },
                {
                    "name": "F#4",
                    "midi": 66,
                    "time": 27.510161999999998,
                    "velocity": 0.2755905511811024,
                    "duration": 0.5980470000000011
                },
                {
                    "name": "G4",
                    "midi": 67,
                    "time": 28.108209,
                    "velocity": 0.25196850393700787,
                    "duration": 0.5980470000000011
                },
                {
                    "name": "E4",
                    "midi": 64,
                    "time": 28.108209,
                    "velocity": 0.2125984251968504,
                    "duration": 0.5980470000000011
                },
                {
                    "name": "D4",
                    "midi": 62,
                    "time": 28.706256,
                    "velocity": 0.1889763779527559,
                    "duration": 0.19934900000000155
                },
                {
                    "name": "F#4",
                    "midi": 66,
                    "time": 28.706256,
                    "velocity": 0.25196850393700787,
                    "duration": 0.19934900000000155
                },
                {
                    "name": "B2",
                    "midi": 47,
                    "time": 29.304303,
                    "velocity": 0.2755905511811024,
                    "duration": 0.5980470000000011
                },
                {
                    "name": "G2",
                    "midi": 43,
                    "time": 29.902350000000002,
                    "velocity": 0.29133858267716534,
                    "duration": 0.5980470000000011
                },
                {
                    "name": "A2",
                    "midi": 45,
                    "time": 30.500397000000003,
                    "velocity": 0.30708661417322836,
                    "duration": 0.5980470000000011
                },
                {
                    "name": "D2",
                    "midi": 38,
                    "time": 31.098444000000004,
                    "velocity": 0.2755905511811024,
                    "duration": 0.19934900000000155
                },
                {
                    "name": "D2",
                    "midi": 38,
                    "time": 31.895840000000007,
                    "velocity": 0.3464566929133858,
                    "duration": 0.07475587500000103
                },
                {
                    "name": "D3",
                    "midi": 50,
                    "time": 31.895840000000007,
                    "velocity": 0.3464566929133858,
                    "duration": 0.07475587500000103
                },
                {
                    "name": "D2",
                    "midi": 38,
                    "time": 32.095189000000005,
                    "velocity": 0.3464566929133858,
                    "duration": 0.07475587500000103
                },
                {
                    "name": "D3",
                    "midi": 50,
                    "time": 32.095189000000005,
                    "velocity": 0.3464566929133858,
                    "duration": 0.07475587500000103
                },
                {
                    "name": "D3",
                    "midi": 50,
                    "time": 32.294538,
                    "velocity": 0.4094488188976378,
                    "duration": 0.3986980000000031
                },
                {
                    "name": "D2",
                    "midi": 38,
                    "time": 32.294538,
                    "velocity": 0.4094488188976378,
                    "duration": 0.3986980000000031
                },
                {
                    "name": "D3",
                    "midi": 50,
                    "time": 32.693236000000006,
                    "velocity": 0.3464566929133858,
                    "duration": 0.07475587500000103
                },
                {
                    "name": "D2",
                    "midi": 38,
                    "time": 32.693236000000006,
                    "velocity": 0.3464566929133858,
                    "duration": 0.07475587500000103
                },
                {
                    "name": "D3",
                    "midi": 50,
                    "time": 32.892585000000004,
                    "velocity": 0.3464566929133858,
                    "duration": 0.3986980000000031
                },
                {
                    "name": "D2",
                    "midi": 38,
                    "time": 32.892585000000004,
                    "velocity": 0.3464566929133858,
                    "duration": 0.3986980000000031
                },
                {
                    "name": "D2",
                    "midi": 38,
                    "time": 33.29128300000001,
                    "velocity": 0.3464566929133858,
                    "duration": 0.07475587500000103
                },
                {
                    "name": "D3",
                    "midi": 50,
                    "time": 33.29128300000001,
                    "velocity": 0.3464566929133858,
                    "duration": 0.07475587500000103
                },
                {
                    "name": "C#3",
                    "midi": 49,
                    "time": 33.490632000000005,
                    "velocity": 0.4094488188976378,
                    "duration": 0.3986980000000031
                },
                {
                    "name": "C#2",
                    "midi": 37,
                    "time": 33.490632000000005,
                    "velocity": 0.4094488188976378,
                    "duration": 0.3986980000000031
                },
                {
                    "name": "C#4",
                    "midi": 61,
                    "time": 34.68672600000001,
                    "velocity": 0.1968503937007874,
                    "duration": 0.07475587500000103
                },
                {
                    "name": "A4",
                    "midi": 69,
                    "time": 34.68672600000001,
                    "velocity": 0.23622047244094488,
                    "duration": 0.07475587500000103
                },
                {
                    "name": "A4",
                    "midi": 69,
                    "time": 34.886075000000005,
                    "velocity": 0.23622047244094488,
                    "duration": 0.07475587500000103
                },
                {
                    "name": "C#4",
                    "midi": 61,
                    "time": 34.886075000000005,
                    "velocity": 0.1968503937007874,
                    "duration": 0.07475587500000103
                },
                {
                    "name": "C#4",
                    "midi": 61,
                    "time": 35.085424,
                    "velocity": 0.1968503937007874,
                    "duration": 0.07475587500000103
                },
                {
                    "name": "A4",
                    "midi": 69,
                    "time": 35.085424,
                    "velocity": 0.23622047244094488,
                    "duration": 0.07475587500000103
                },
                {
                    "name": "C#4",
                    "midi": 61,
                    "time": 35.284773,
                    "velocity": 0.1968503937007874,
                    "duration": 0.07475587500000103
                },
                {
                    "name": "A4",
                    "midi": 69,
                    "time": 35.284773,
                    "velocity": 0.23622047244094488,
                    "duration": 0.07475587500000103
                },
                {
                    "name": "A4",
                    "midi": 69,
                    "time": 35.484122,
                    "velocity": 0.23622047244094488,
                    "duration": 0.07475587500000103
                },
                {
                    "name": "C#4",
                    "midi": 61,
                    "time": 35.484122,
                    "velocity": 0.1968503937007874,
                    "duration": 0.07475587500000103
                },
                {
                    "name": "A4",
                    "midi": 69,
                    "time": 35.683471,
                    "velocity": 0.23622047244094488,
                    "duration": 0.07475587500000103
                },
                {
                    "name": "C#4",
                    "midi": 61,
                    "time": 35.683471,
                    "velocity": 0.1968503937007874,
                    "duration": 0.07475587500000103
                },
                {
                    "name": "A4",
                    "midi": 69,
                    "time": 35.882819999999995,
                    "velocity": 0.2755905511811024,
                    "duration": 0.7973959999999991
                },
                {
                    "name": "B3",
                    "midi": 59,
                    "time": 35.882819999999995,
                    "velocity": 0.2283464566929134,
                    "duration": 0.7973959999999991
                },
                {
                    "name": "B2",
                    "midi": 47,
                    "time": 36.680215999999994,
                    "velocity": 0.3464566929133858,
                    "duration": 0.07475587500000103
                },
                {
                    "name": "B1",
                    "midi": 35,
                    "time": 36.680215999999994,
                    "velocity": 0.3464566929133858,
                    "duration": 0.07475587500000103
                },
                {
                    "name": "B2",
                    "midi": 47,
                    "time": 36.87956499999999,
                    "velocity": 0.3464566929133858,
                    "duration": 0.07475587500000103
                },
                {
                    "name": "B1",
                    "midi": 35,
                    "time": 36.87956499999999,
                    "velocity": 0.3464566929133858,
                    "duration": 0.07475587500000103
                },
                {
                    "name": "B1",
                    "midi": 35,
                    "time": 37.07891399999999,
                    "velocity": 0.4094488188976378,
                    "duration": 0.3986980000000031
                },
                {
                    "name": "B2",
                    "midi": 47,
                    "time": 37.07891399999999,
                    "velocity": 0.4094488188976378,
                    "duration": 0.3986980000000031
                },
                {
                    "name": "B1",
                    "midi": 35,
                    "time": 37.47761199999999,
                    "velocity": 0.3464566929133858,
                    "duration": 0.07475587500000103
                },
                {
                    "name": "B2",
                    "midi": 47,
                    "time": 37.47761199999999,
                    "velocity": 0.3464566929133858,
                    "duration": 0.07475587500000103
                },
                {
                    "name": "A1",
                    "midi": 33,
                    "time": 37.67696099999999,
                    "velocity": 0.3464566929133858,
                    "duration": 0.3986980000000031
                },
                {
                    "name": "A2",
                    "midi": 45,
                    "time": 37.67696099999999,
                    "velocity": 0.3464566929133858,
                    "duration": 0.3986980000000031
                },
                {
                    "name": "A1",
                    "midi": 33,
                    "time": 38.075658999999995,
                    "velocity": 0.3464566929133858,
                    "duration": 0.07475587500000103
                },
                {
                    "name": "A2",
                    "midi": 45,
                    "time": 38.075658999999995,
                    "velocity": 0.3464566929133858,
                    "duration": 0.07475587500000103
                },
                {
                    "name": "G#2",
                    "midi": 44,
                    "time": 38.27500799999999,
                    "velocity": 0.4094488188976378,
                    "duration": 0.199348999999998
                },
                {
                    "name": "G#1",
                    "midi": 32,
                    "time": 38.27500799999999,
                    "velocity": 0.4094488188976378,
                    "duration": 0.199348999999998
                },
                {
                    "name": "G#3",
                    "midi": 56,
                    "time": 39.47110199999999,
                    "velocity": 0.31496062992125984,
                    "duration": 0.598046999999994
                },
                {
                    "name": "B3",
                    "midi": 59,
                    "time": 39.670450999999986,
                    "velocity": 0.23622047244094488,
                    "duration": 0.199348999999998
                },
                {
                    "name": "E4",
                    "midi": 64,
                    "time": 39.869799999999984,
                    "velocity": 0.2047244094488189,
                    "duration": 0.199348999999998
                },
                {
                    "name": "G#3",
                    "midi": 56,
                    "time": 40.06914899999998,
                    "velocity": 0.31496062992125984,
                    "duration": 0.598046999999994
                },
                {
                    "name": "B3",
                    "midi": 59,
                    "time": 40.26849799999998,
                    "velocity": 0.23622047244094488,
                    "duration": 0.199348999999998
                },
                {
                    "name": "E4",
                    "midi": 64,
                    "time": 40.46784699999998,
                    "velocity": 0.2125984251968504,
                    "duration": 0.199348999999998
                },
                {
                    "name": "A3",
                    "midi": 57,
                    "time": 40.667195999999976,
                    "velocity": 0.31496062992125984,
                    "duration": 0.598046999999994
                },
                {
                    "name": "C#4",
                    "midi": 61,
                    "time": 40.866544999999974,
                    "velocity": 0.25984251968503935,
                    "duration": 0.199348999999998
                },
                {
                    "name": "E4",
                    "midi": 64,
                    "time": 41.06589399999997,
                    "velocity": 0.28346456692913385,
                    "duration": 0.199348999999998
                },
                {
                    "name": "A3",
                    "midi": 57,
                    "time": 41.26524299999997,
                    "velocity": 0.31496062992125984,
                    "duration": 0.598046999999994
                },
                {
                    "name": "C#4",
                    "midi": 61,
                    "time": 41.46459199999997,
                    "velocity": 0.25984251968503935,
                    "duration": 0.199348999999998
                },
                {
                    "name": "E4",
                    "midi": 64,
                    "time": 41.663940999999966,
                    "velocity": 0.25984251968503935,
                    "duration": 0.199348999999998
                },
                {
                    "name": "G#3",
                    "midi": 56,
                    "time": 41.863289999999964,
                    "velocity": 0.31496062992125984,
                    "duration": 0.598046999999994
                },
                {
                    "name": "B3",
                    "midi": 59,
                    "time": 42.06263899999996,
                    "velocity": 0.2677165354330709,
                    "duration": 0.199348999999998
                },
                {
                    "name": "E4",
                    "midi": 64,
                    "time": 42.26198799999996,
                    "velocity": 0.2440944881889764,
                    "duration": 0.199348999999998
                },
                {
                    "name": "G#3",
                    "midi": 56,
                    "time": 42.46133699999996,
                    "velocity": 0.31496062992125984,
                    "duration": 0.598046999999994
                },
                {
                    "name": "B3",
                    "midi": 59,
                    "time": 42.660685999999956,
                    "velocity": 0.25984251968503935,
                    "duration": 0.199348999999998
                },
                {
                    "name": "E4",
                    "midi": 64,
                    "time": 42.860034999999954,
                    "velocity": 0.2204724409448819,
                    "duration": 0.199348999999998
                },
                {
                    "name": "A3",
                    "midi": 57,
                    "time": 43.05938399999995,
                    "velocity": 0.31496062992125984,
                    "duration": 0.598046999999994
                },
                {
                    "name": "C#4",
                    "midi": 61,
                    "time": 43.25873299999995,
                    "velocity": 0.2677165354330709,
                    "duration": 0.199348999999998
                },
                {
                    "name": "E4",
                    "midi": 64,
                    "time": 43.45808199999995,
                    "velocity": 0.29133858267716534,
                    "duration": 0.199348999999998
                },
                {
                    "name": "A3",
                    "midi": 57,
                    "time": 43.657430999999946,
                    "velocity": 0.31496062992125984,
                    "duration": 0.598046999999994
                },
                {
                    "name": "C#4",
                    "midi": 61,
                    "time": 43.856779999999944,
                    "velocity": 0.2677165354330709,
                    "duration": 0.199348999999998
                },
                {
                    "name": "E4",
                    "midi": 64,
                    "time": 44.05612899999994,
                    "velocity": 0.2677165354330709,
                    "duration": 0.199348999999998
                },
                {
                    "name": "G#3",
                    "midi": 56,
                    "time": 44.25547799999994,
                    "velocity": 0.31496062992125984,
                    "duration": 0.598046999999994
                },
                {
                    "name": "B3",
                    "midi": 59,
                    "time": 44.45482699999994,
                    "velocity": 0.25984251968503935,
                    "duration": 0.199348999999998
                },
                {
                    "name": "E4",
                    "midi": 64,
                    "time": 44.654175999999936,
                    "velocity": 0.23622047244094488,
                    "duration": 0.199348999999998
                },
                {
                    "name": "G#3",
                    "midi": 56,
                    "time": 44.853524999999934,
                    "velocity": 0.31496062992125984,
                    "duration": 0.598046999999994
                },
                {
                    "name": "B3",
                    "midi": 59,
                    "time": 45.05287399999993,
                    "velocity": 0.2677165354330709,
                    "duration": 0.199348999999998
                },
                {
                    "name": "E4",
                    "midi": 64,
                    "time": 45.25222299999993,
                    "velocity": 0.25196850393700787,
                    "duration": 0.199348999999998
                },
                {
                    "name": "A3",
                    "midi": 57,
                    "time": 45.45157199999993,
                    "velocity": 0.36220472440944884,
                    "duration": 0.3986980000000031
                },
                {
                    "name": "C#3",
                    "midi": 49,
                    "time": 46.04961899999993,
                    "velocity": 0.33070866141732286,
                    "duration": 0.3986980000000031
                },
                {
                    "name": "A3",
                    "midi": 57,
                    "time": 46.04961899999993,
                    "velocity": 0.33070866141732286,
                    "duration": 0.3986980000000031
                },
                {
                    "name": "A3",
                    "midi": 57,
                    "time": 46.64766599999993,
                    "velocity": 0.36220472440944884,
                    "duration": 0.3986980000000031
                },
                {
                    "name": "D3",
                    "midi": 50,
                    "time": 46.64766599999993,
                    "velocity": 0.36220472440944884,
                    "duration": 0.3986980000000031
                },
                {
                    "name": "D4",
                    "midi": 62,
                    "time": 47.24571299999993,
                    "velocity": 0.3543307086614173,
                    "duration": 0.099674499999999
                },
                {
                    "name": "C#4",
                    "midi": 61,
                    "time": 47.34538749999993,
                    "velocity": 0.33070866141732286,
                    "duration": 0.099674499999999
                },
                {
                    "name": "B3",
                    "midi": 59,
                    "time": 47.44506199999993,
                    "velocity": 0.33858267716535434,
                    "duration": 0.099674499999999
                },
                {
                    "name": "A3",
                    "midi": 57,
                    "time": 47.54473649999993,
                    "velocity": 0.36220472440944884,
                    "duration": 0.099674499999999
                },
                {
                    "name": "G#3",
                    "midi": 56,
                    "time": 47.64441099999993,
                    "velocity": 0.3779527559055118,
                    "duration": 0.099674499999999
                },
                {
                    "name": "F#3",
                    "midi": 54,
                    "time": 47.744085499999926,
                    "velocity": 0.4015748031496063,
                    "duration": 0.099674499999999
                },
                {
                    "name": "E3",
                    "midi": 52,
                    "time": 47.843759999999925,
                    "velocity": 0.4251968503937008,
                    "duration": 0.07475587500000103
                },
                {
                    "name": "E3",
                    "midi": 52,
                    "time": 48.04310899999992,
                    "velocity": 0.3937007874015748,
                    "duration": 0.07475587500000103
                },
                {
                    "name": "E3",
                    "midi": 52,
                    "time": 48.24245799999992,
                    "velocity": 0.3937007874015748,
                    "duration": 0.07475587500000103
                },
                {
                    "name": "E3",
                    "midi": 52,
                    "time": 48.44180699999992,
                    "velocity": 0.4251968503937008,
                    "duration": 0.07475587500000103
                },
                {
                    "name": "A3",
                    "midi": 57,
                    "time": 50.23594799999992,
                    "velocity": 0.3228346456692913,
                    "duration": 0.5980470000000011
                },
                {
                    "name": "G#3",
                    "midi": 56,
                    "time": 50.83399499999992,
                    "velocity": 0.36220472440944884,
                    "duration": 0.199348999999998
                },
                {
                    "name": "A3",
                    "midi": 57,
                    "time": 51.03334399999992,
                    "velocity": 0.3464566929133858,
                    "duration": 0.199348999999998
                },
                {
                    "name": "G#3",
                    "midi": 56,
                    "time": 51.23269299999992,
                    "velocity": 0.3464566929133858,
                    "duration": 0.199348999999998
                },
                {
                    "name": "F#3",
                    "midi": 54,
                    "time": 51.43204199999992,
                    "velocity": 0.4015748031496063,
                    "duration": 0.9967449999999971
                },
                {
                    "name": "D3",
                    "midi": 50,
                    "time": 52.428786999999915,
                    "velocity": 0.28346456692913385,
                    "duration": 0.199348999999998
                },
                {
                    "name": "E3",
                    "midi": 52,
                    "time": 52.62813599999991,
                    "velocity": 0.3228346456692913,
                    "duration": 0.199348999999998
                },
                {
                    "name": "F#3",
                    "midi": 54,
                    "time": 52.82748499999991,
                    "velocity": 0.29133858267716534,
                    "duration": 0.199348999999998
                },
                {
                    "name": "G#3",
                    "midi": 56,
                    "time": 53.02683399999991,
                    "velocity": 0.29133858267716534,
                    "duration": 0.199348999999998
                },
                {
                    "name": "A3",
                    "midi": 57,
                    "time": 53.22618299999991,
                    "velocity": 0.33070866141732286,
                    "duration": 0.199348999999998
                },
                {
                    "name": "B3",
                    "midi": 59,
                    "time": 53.425531999999905,
                    "velocity": 0.2992125984251969,
                    "duration": 0.199348999999998
                },
                {
                    "name": "C#4",
                    "midi": 61,
                    "time": 53.6248809999999,
                    "velocity": 0.2992125984251969,
                    "duration": 0.199348999999998
                },
                {
                    "name": "D4",
                    "midi": 62,
                    "time": 53.8242299999999,
                    "velocity": 0.33070866141732286,
                    "duration": 0.5980470000000011
                },
                {
                    "name": "F#4",
                    "midi": 66,
                    "time": 53.8242299999999,
                    "velocity": 0.2755905511811024,
                    "duration": 1.1960940000000022
                },
                {
                    "name": "A4",
                    "midi": 69,
                    "time": 53.8242299999999,
                    "velocity": 0.2755905511811024,
                    "duration": 1.1960940000000022
                },
                {
                    "name": "D#4",
                    "midi": 63,
                    "time": 54.4222769999999,
                    "velocity": 0.33070866141732286,
                    "duration": 0.5980470000000011
                },
                {
                    "name": "E4",
                    "midi": 64,
                    "time": 55.0203239999999,
                    "velocity": 0.33070866141732286,
                    "duration": 0.5980470000000011
                },
                {
                    "name": "G#4",
                    "midi": 68,
                    "time": 55.0203239999999,
                    "velocity": 0.2755905511811024,
                    "duration": 0.5980470000000011
                },
                {
                    "name": "E4",
                    "midi": 64,
                    "time": 55.618370999999904,
                    "velocity": 0.2755905511811024,
                    "duration": 0.5980470000000011
                },
                {
                    "name": "D4",
                    "midi": 62,
                    "time": 55.618370999999904,
                    "velocity": 0.33070866141732286,
                    "duration": 0.5980470000000011
                },
                {
                    "name": "G#4",
                    "midi": 68,
                    "time": 55.618370999999904,
                    "velocity": 0.2755905511811024,
                    "duration": 0.5980470000000011
                },
                {
                    "name": "E4",
                    "midi": 64,
                    "time": 56.216417999999905,
                    "velocity": 0.2283464566929134,
                    "duration": 0.199348999999998
                },
                {
                    "name": "A4",
                    "midi": 69,
                    "time": 56.216417999999905,
                    "velocity": 0.2755905511811024,
                    "duration": 0.199348999999998
                },
                {
                    "name": "C#4",
                    "midi": 61,
                    "time": 56.216417999999905,
                    "velocity": 0.2283464566929134,
                    "duration": 0.199348999999998
                },
                {
                    "name": "D4",
                    "midi": 62,
                    "time": 56.814464999999906,
                    "velocity": 0.2755905511811024,
                    "duration": 0.3986980000000031
                },
                {
                    "name": "A3",
                    "midi": 57,
                    "time": 57.21316299999991,
                    "velocity": 0.2440944881889764,
                    "duration": 0.199348999999998
                },
                {
                    "name": "F#3",
                    "midi": 54,
                    "time": 57.21316299999991,
                    "velocity": 0.2047244094488189,
                    "duration": 0.199348999999998
                },
                {
                    "name": "A3",
                    "midi": 57,
                    "time": 57.41251199999991,
                    "velocity": 0.28346456692913385,
                    "duration": 0.5980470000000011
                },
                {
                    "name": "E3",
                    "midi": 52,
                    "time": 57.41251199999991,
                    "velocity": 0.23622047244094488,
                    "duration": 0.7973959999999991
                },
                {
                    "name": "G#3",
                    "midi": 56,
                    "time": 58.01055899999991,
                    "velocity": 0.25196850393700787,
                    "duration": 0.199348999999998
                },
                {
                    "name": "F#3",
                    "midi": 54,
                    "time": 59.804699999999904,
                    "velocity": 0.3228346456692913,
                    "duration": 0.5980470000000011
                },
                {
                    "name": "E3",
                    "midi": 52,
                    "time": 60.402746999999906,
                    "velocity": 0.36220472440944884,
                    "duration": 0.199348999999998
                },
                {
                    "name": "F#3",
                    "midi": 54,
                    "time": 60.602095999999904,
                    "velocity": 0.3464566929133858,
                    "duration": 0.199348999999998
                },
                {
                    "name": "E3",
                    "midi": 52,
                    "time": 60.8014449999999,
                    "velocity": 0.3464566929133858,
                    "duration": 0.199348999999998
                },
                {
                    "name": "D3",
                    "midi": 50,
                    "time": 61.0007939999999,
                    "velocity": 0.4015748031496063,
                    "duration": 0.3986980000000031
                },
                {
                    "name": "C#3",
                    "midi": 49,
                    "time": 61.3994919999999,
                    "velocity": 0.28346456692913385,
                    "duration": 0.199348999999998
                },
                {
                    "name": "B2",
                    "midi": 47,
                    "time": 61.5988409999999,
                    "velocity": 0.4015748031496063,
                    "duration": 0.3986980000000031
                },
                {
                    "name": "A2",
                    "midi": 45,
                    "time": 61.997538999999904,
                    "velocity": 0.28346456692913385,
                    "duration": 0.199348999999998
                },
                {
                    "name": "G#2",
                    "midi": 44,
                    "time": 62.1968879999999,
                    "velocity": 0.3228346456692913,
                    "duration": 0.3986980000000031
                },
                {
                    "name": "E2",
                    "midi": 40,
                    "time": 62.595585999999905,
                    "velocity": 0.29133858267716534,
                    "duration": 0.199348999999998
                },
                {
                    "name": "A2",
                    "midi": 45,
                    "time": 62.7949349999999,
                    "velocity": 0.33070866141732286,
                    "duration": 0.199348999999998
                },
                {
                    "name": "B2",
                    "midi": 47,
                    "time": 62.9942839999999,
                    "velocity": 0.2992125984251969,
                    "duration": 0.199348999999998
                },
                {
                    "name": "C#3",
                    "midi": 49,
                    "time": 63.1936329999999,
                    "velocity": 0.2992125984251969,
                    "duration": 0.199348999999998
                },
                {
                    "name": "A3",
                    "midi": 57,
                    "time": 63.3929819999999,
                    "velocity": 0.2755905511811024,
                    "duration": 1.196093999999995
                },
                {
                    "name": "D3",
                    "midi": 50,
                    "time": 63.3929819999999,
                    "velocity": 0.33070866141732286,
                    "duration": 0.5980470000000011
                },
                {
                    "name": "F#3",
                    "midi": 54,
                    "time": 63.3929819999999,
                    "velocity": 0.2755905511811024,
                    "duration": 1.196093999999995
                },
                {
                    "name": "D#3",
                    "midi": 51,
                    "time": 63.9910289999999,
                    "velocity": 0.33070866141732286,
                    "duration": 0.598046999999994
                },
                {
                    "name": "G#3",
                    "midi": 56,
                    "time": 64.58907599999989,
                    "velocity": 0.2755905511811024,
                    "duration": 0.598046999999994
                },
                {
                    "name": "E3",
                    "midi": 52,
                    "time": 64.58907599999989,
                    "velocity": 0.33070866141732286,
                    "duration": 0.598046999999994
                },
                {
                    "name": "D3",
                    "midi": 50,
                    "time": 64.58907599999989,
                    "velocity": 0.33070866141732286,
                    "duration": 0.598046999999994
                },
                {
                    "name": "G3",
                    "midi": 55,
                    "time": 65.18712299999989,
                    "velocity": 0.2755905511811024,
                    "duration": 0.598046999999994
                },
                {
                    "name": "C#3",
                    "midi": 49,
                    "time": 65.18712299999989,
                    "velocity": 0.33070866141732286,
                    "duration": 0.598046999999994
                },
                {
                    "name": "E3",
                    "midi": 52,
                    "time": 65.18712299999989,
                    "velocity": 0.2755905511811024,
                    "duration": 0.598046999999994
                },
                {
                    "name": "D3",
                    "midi": 50,
                    "time": 65.78516999999988,
                    "velocity": 0.2755905511811024,
                    "duration": 0.0996745000000061
                },
                {
                    "name": "F#3",
                    "midi": 54,
                    "time": 65.78516999999988,
                    "velocity": 0.33070866141732286,
                    "duration": 0.0996745000000061
                },
                {
                    "name": "E3",
                    "midi": 52,
                    "time": 66.38321699999989,
                    "velocity": 0.3700787401574803,
                    "duration": 0.0996745000000061
                },
                {
                    "name": "A3",
                    "midi": 57,
                    "time": 66.9812639999999,
                    "velocity": 0.47244094488188976,
                    "duration": 0.0996745000000061
                },
                {
                    "name": "E4",
                    "midi": 64,
                    "time": 67.0809384999999,
                    "velocity": 0.3464566929133858,
                    "duration": 0.0996745000000061
                },
                {
                    "name": "C#4",
                    "midi": 61,
                    "time": 67.18061299999991,
                    "velocity": 0.3464566929133858,
                    "duration": 0.0996745000000061
                },
                {
                    "name": "E4",
                    "midi": 64,
                    "time": 67.28028749999991,
                    "velocity": 0.3464566929133858,
                    "duration": 0.0996745000000061
                },
                {
                    "name": "C#4",
                    "midi": 61,
                    "time": 67.37996199999992,
                    "velocity": 0.3464566929133858,
                    "duration": 0.0996745000000061
                },
                {
                    "name": "E4",
                    "midi": 64,
                    "time": 67.47963649999993,
                    "velocity": 0.3464566929133858,
                    "duration": 0.0996745000000061
                },
                {
                    "name": "A3",
                    "midi": 57,
                    "time": 67.57931099999993,
                    "velocity": 0.4330708661417323,
                    "duration": 0.0996745000000061
                },
                {
                    "name": "E4",
                    "midi": 64,
                    "time": 67.67898549999994,
                    "velocity": 0.3779527559055118,
                    "duration": 0.0996745000000061
                },
                {
                    "name": "C#4",
                    "midi": 61,
                    "time": 67.77865999999995,
                    "velocity": 0.3543307086614173,
                    "duration": 0.0996745000000061
                },
                {
                    "name": "E4",
                    "midi": 64,
                    "time": 67.87833449999995,
                    "velocity": 0.33858267716535434,
                    "duration": 0.0996745000000061
                },
                {
                    "name": "C#4",
                    "midi": 61,
                    "time": 67.97800899999996,
                    "velocity": 0.33858267716535434,
                    "duration": 0.0996745000000061
                },
                {
                    "name": "E4",
                    "midi": 64,
                    "time": 68.07768349999996,
                    "velocity": 0.33858267716535434,
                    "duration": 0.0996745000000061
                },
                {
                    "name": "B3",
                    "midi": 59,
                    "time": 68.17735799999997,
                    "velocity": 0.47244094488188976,
                    "duration": 0.0996745000000061
                },
                {
                    "name": "E4",
                    "midi": 64,
                    "time": 68.27703249999998,
                    "velocity": 0.3464566929133858,
                    "duration": 0.0996745000000061
                },
                {
                    "name": "D4",
                    "midi": 62,
                    "time": 68.37670699999998,
                    "velocity": 0.3464566929133858,
                    "duration": 0.0996745000000061
                },
                {
                    "name": "E4",
                    "midi": 64,
                    "time": 68.47638149999999,
                    "velocity": 0.3464566929133858,
                    "duration": 0.0996745000000061
                },
                {
                    "name": "D4",
                    "midi": 62,
                    "time": 68.576056,
                    "velocity": 0.3464566929133858,
                    "duration": 0.0996745000000061
                },
                {
                    "name": "E4",
                    "midi": 64,
                    "time": 68.6757305,
                    "velocity": 0.3464566929133858,
                    "duration": 0.0996745000000061
                },
                {
                    "name": "G#3",
                    "midi": 56,
                    "time": 68.775405,
                    "velocity": 0.4330708661417323,
                    "duration": 0.0996745000000061
                },
                {
                    "name": "E4",
                    "midi": 64,
                    "time": 68.87507950000001,
                    "velocity": 0.33070866141732286,
                    "duration": 0.0996745000000061
                },
                {
                    "name": "B3",
                    "midi": 59,
                    "time": 68.97475400000002,
                    "velocity": 0.33070866141732286,
                    "duration": 0.0996745000000061
                },
                {
                    "name": "E4",
                    "midi": 64,
                    "time": 69.07442850000002,
                    "velocity": 0.33070866141732286,
                    "duration": 0.0996745000000061
                },
                {
                    "name": "B3",
                    "midi": 59,
                    "time": 69.17410300000003,
                    "velocity": 0.33070866141732286,
                    "duration": 0.0996745000000061
                },
                {
                    "name": "E4",
                    "midi": 64,
                    "time": 69.27377750000004,
                    "velocity": 0.33070866141732286,
                    "duration": 0.0996745000000061
                },
                {
                    "name": "A3",
                    "midi": 57,
                    "time": 69.37345200000004,
                    "velocity": 0.4015748031496063,
                    "duration": 0.0996745000000061
                },
                {
                    "name": "E4",
                    "midi": 64,
                    "time": 69.47312650000005,
                    "velocity": 0.30708661417322836,
                    "duration": 0.0996745000000061
                },
                {
                    "name": "C#4",
                    "midi": 61,
                    "time": 69.57280100000006,
                    "velocity": 0.30708661417322836,
                    "duration": 0.0996745000000061
                },
                {
                    "name": "E4",
                    "midi": 64,
                    "time": 69.67247550000006,
                    "velocity": 0.30708661417322836,
                    "duration": 0.0996745000000061
                },
                {
                    "name": "C#4",
                    "midi": 61,
                    "time": 69.77215000000007,
                    "velocity": 0.30708661417322836,
                    "duration": 0.0996745000000061
                },
                {
                    "name": "E4",
                    "midi": 64,
                    "time": 69.87182450000007,
                    "velocity": 0.30708661417322836,
                    "duration": 0.0996745000000061
                },
                {
                    "name": "A3",
                    "midi": 57,
                    "time": 69.97149900000008,
                    "velocity": 0.3937007874015748,
                    "duration": 0.0996745000000061
                },
                {
                    "name": "E4",
                    "midi": 64,
                    "time": 70.07117350000009,
                    "velocity": 0.31496062992125984,
                    "duration": 0.0996745000000061
                },
                {
                    "name": "C#4",
                    "midi": 61,
                    "time": 70.17084800000009,
                    "velocity": 0.31496062992125984,
                    "duration": 0.0996745000000061
                },
                {
                    "name": "E4",
                    "midi": 64,
                    "time": 70.2705225000001,
                    "velocity": 0.31496062992125984,
                    "duration": 0.0996745000000061
                },
                {
                    "name": "C#4",
                    "midi": 61,
                    "time": 70.3701970000001,
                    "velocity": 0.31496062992125984,
                    "duration": 0.0996745000000061
                },
                {
                    "name": "E4",
                    "midi": 64,
                    "time": 70.46987150000011,
                    "velocity": 0.31496062992125984,
                    "duration": 0.0996745000000061
                },
                {
                    "name": "B3",
                    "midi": 59,
                    "time": 70.56954600000012,
                    "velocity": 0.47244094488188976,
                    "duration": 0.0996745000000061
                },
                {
                    "name": "E4",
                    "midi": 64,
                    "time": 70.66922050000012,
                    "velocity": 0.3464566929133858,
                    "duration": 0.0996745000000061
                },
                {
                    "name": "D4",
                    "midi": 62,
                    "time": 70.76889500000013,
                    "velocity": 0.3464566929133858,
                    "duration": 0.0996745000000061
                },
                {
                    "name": "E4",
                    "midi": 64,
                    "time": 70.86856950000013,
                    "velocity": 0.3464566929133858,
                    "duration": 0.0996745000000061
                },
                {
                    "name": "D4",
                    "midi": 62,
                    "time": 70.96824400000014,
                    "velocity": 0.3464566929133858,
                    "duration": 0.0996745000000061
                },
                {
                    "name": "E4",
                    "midi": 64,
                    "time": 71.06791850000015,
                    "velocity": 0.3464566929133858,
                    "duration": 0.0996745000000061
                },
                {
                    "name": "G#3",
                    "midi": 56,
                    "time": 71.16759300000015,
                    "velocity": 0.4330708661417323,
                    "duration": 0.0996745000000061
                },
                {
                    "name": "E4",
                    "midi": 64,
                    "time": 71.26726750000016,
                    "velocity": 0.33070866141732286,
                    "duration": 0.0996745000000061
                },
                {
                    "name": "B3",
                    "midi": 59,
                    "time": 71.36694200000017,
                    "velocity": 0.33070866141732286,
                    "duration": 0.0996745000000061
                },
                {
                    "name": "E4",
                    "midi": 64,
                    "time": 71.46661650000017,
                    "velocity": 0.33070866141732286,
                    "duration": 0.0996745000000061
                },
                {
                    "name": "B3",
                    "midi": 59,
                    "time": 71.56629100000018,
                    "velocity": 0.33070866141732286,
                    "duration": 0.0996745000000061
                },
                {
                    "name": "E4",
                    "midi": 64,
                    "time": 71.66596550000018,
                    "velocity": 0.33070866141732286,
                    "duration": 0.0996745000000061
                },
                {
                    "name": "A3",
                    "midi": 57,
                    "time": 71.76564000000019,
                    "velocity": 0.4015748031496063,
                    "duration": 0.0996745000000061
                },
                {
                    "name": "E4",
                    "midi": 64,
                    "time": 71.8653145000002,
                    "velocity": 0.30708661417322836,
                    "duration": 0.0996745000000061
                },
                {
                    "name": "C#4",
                    "midi": 61,
                    "time": 71.9649890000002,
                    "velocity": 0.30708661417322836,
                    "duration": 0.0996745000000061
                },
                {
                    "name": "E4",
                    "midi": 64,
                    "time": 72.06466350000021,
                    "velocity": 0.30708661417322836,
                    "duration": 0.0996745000000061
                },
                {
                    "name": "C#4",
                    "midi": 61,
                    "time": 72.16433800000021,
                    "velocity": 0.30708661417322836,
                    "duration": 0.0996745000000061
                },
                {
                    "name": "E4",
                    "midi": 64,
                    "time": 72.26401250000022,
                    "velocity": 0.30708661417322836,
                    "duration": 0.0996745000000061
                },
                {
                    "name": "A3",
                    "midi": 57,
                    "time": 72.36368700000023,
                    "velocity": 0.3937007874015748,
                    "duration": 0.0996745000000061
                },
                {
                    "name": "E4",
                    "midi": 64,
                    "time": 72.46336150000023,
                    "velocity": 0.31496062992125984,
                    "duration": 0.0996745000000061
                },
                {
                    "name": "C#4",
                    "midi": 61,
                    "time": 72.56303600000024,
                    "velocity": 0.31496062992125984,
                    "duration": 0.0996745000000061
                },
                {
                    "name": "E4",
                    "midi": 64,
                    "time": 72.66271050000024,
                    "velocity": 0.31496062992125984,
                    "duration": 0.0996745000000061
                },
                {
                    "name": "C#4",
                    "midi": 61,
                    "time": 72.76238500000025,
                    "velocity": 0.31496062992125984,
                    "duration": 0.0996745000000061
                },
                {
                    "name": "E4",
                    "midi": 64,
                    "time": 72.86205950000026,
                    "velocity": 0.31496062992125984,
                    "duration": 0.0996745000000061
                },
                {
                    "name": "D4",
                    "midi": 62,
                    "time": 72.96173400000026,
                    "velocity": 0.3543307086614173,
                    "duration": 0.0996745000000061
                },
                {
                    "name": "D4",
                    "midi": 62,
                    "time": 73.55978100000027,
                    "velocity": 0.2677165354330709,
                    "duration": 0.0996745000000061
                },
                {
                    "name": "A4",
                    "midi": 69,
                    "time": 73.55978100000027,
                    "velocity": 0.31496062992125984,
                    "duration": 0.0996745000000061
                },
                {
                    "name": "A4",
                    "midi": 69,
                    "time": 74.15782800000028,
                    "velocity": 0.31496062992125984,
                    "duration": 0.0996745000000061
                },
                {
                    "name": "C#4",
                    "midi": 61,
                    "time": 74.15782800000028,
                    "velocity": 0.2677165354330709,
                    "duration": 0.0996745000000061
                },
                {
                    "name": "A4",
                    "midi": 69,
                    "time": 74.75587500000029,
                    "velocity": 0.31496062992125984,
                    "duration": 0.0996745000000061
                },
                {
                    "name": "D4",
                    "midi": 62,
                    "time": 74.75587500000029,
                    "velocity": 0.2677165354330709,
                    "duration": 0.0996745000000061
                },
                {
                    "name": "A4",
                    "midi": 69,
                    "time": 75.3539220000003,
                    "velocity": 0.31496062992125984,
                    "duration": 0.0996745000000061
                },
                {
                    "name": "E4",
                    "midi": 64,
                    "time": 75.3539220000003,
                    "velocity": 0.2677165354330709,
                    "duration": 0.0996745000000061
                },
                {
                    "name": "G#4",
                    "midi": 68,
                    "time": 75.9519690000003,
                    "velocity": 0.31496062992125984,
                    "duration": 0.0996745000000061
                },
                {
                    "name": "E4",
                    "midi": 64,
                    "time": 75.9519690000003,
                    "velocity": 0.2677165354330709,
                    "duration": 0.0996745000000061
                },
                {
                    "name": "A3",
                    "midi": 57,
                    "time": 76.55001600000031,
                    "velocity": 0.47244094488188976,
                    "duration": 0.0996745000000061
                },
                {
                    "name": "E4",
                    "midi": 64,
                    "time": 76.64969050000032,
                    "velocity": 0.3464566929133858,
                    "duration": 0.0996745000000061
                },
                {
                    "name": "C#4",
                    "midi": 61,
                    "time": 76.74936500000032,
                    "velocity": 0.3464566929133858,
                    "duration": 0.0996745000000061
                },
                {
                    "name": "E4",
                    "midi": 64,
                    "time": 76.84903950000033,
                    "velocity": 0.3464566929133858,
                    "duration": 0.0996745000000061
                },
                {
                    "name": "C#4",
                    "midi": 61,
                    "time": 76.94871400000034,
                    "velocity": 0.3464566929133858,
                    "duration": 0.0996745000000061
                },
                {
                    "name": "E4",
                    "midi": 64,
                    "time": 77.04838850000034,
                    "velocity": 0.3464566929133858,
                    "duration": 0.0996745000000061
                },
                {
                    "name": "A3",
                    "midi": 57,
                    "time": 77.14806300000035,
                    "velocity": 0.4330708661417323,
                    "duration": 0.0996745000000061
                },
                {
                    "name": "E4",
                    "midi": 64,
                    "time": 77.24773750000035,
                    "velocity": 0.3779527559055118,
                    "duration": 0.0996745000000061
                },
                {
                    "name": "C#4",
                    "midi": 61,
                    "time": 77.34741200000036,
                    "velocity": 0.3543307086614173,
                    "duration": 0.0996745000000061
                },
                {
                    "name": "E4",
                    "midi": 64,
                    "time": 77.44708650000037,
                    "velocity": 0.33858267716535434,
                    "duration": 0.0996745000000061
                },
                {
                    "name": "C#4",
                    "midi": 61,
                    "time": 77.54676100000037,
                    "velocity": 0.33858267716535434,
                    "duration": 0.0996745000000061
                },
                {
                    "name": "E4",
                    "midi": 64,
                    "time": 77.64643550000038,
                    "velocity": 0.33858267716535434,
                    "duration": 0.0996745000000061
                },
                {
                    "name": "B3",
                    "midi": 59,
                    "time": 77.74611000000039,
                    "velocity": 0.47244094488188976,
                    "duration": 0.0996745000000061
                },
                {
                    "name": "E4",
                    "midi": 64,
                    "time": 77.84578450000039,
                    "velocity": 0.3464566929133858,
                    "duration": 0.0996745000000061
                },
                {
                    "name": "D4",
                    "midi": 62,
                    "time": 77.9454590000004,
                    "velocity": 0.3464566929133858,
                    "duration": 0.0996745000000061
                },
                {
                    "name": "E4",
                    "midi": 64,
                    "time": 78.0451335000004,
                    "velocity": 0.3464566929133858,
                    "duration": 0.0996745000000061
                },
                {
                    "name": "D4",
                    "midi": 62,
                    "time": 78.14480800000041,
                    "velocity": 0.3464566929133858,
                    "duration": 0.0996745000000061
                },
                {
                    "name": "E4",
                    "midi": 64,
                    "time": 78.24448250000042,
                    "velocity": 0.3464566929133858,
                    "duration": 0.0996745000000061
                },
                {
                    "name": "G#3",
                    "midi": 56,
                    "time": 78.34415700000042,
                    "velocity": 0.4330708661417323,
                    "duration": 0.0996745000000061
                },
                {
                    "name": "E4",
                    "midi": 64,
                    "time": 78.44383150000043,
                    "velocity": 0.33070866141732286,
                    "duration": 0.0996745000000061
                },
                {
                    "name": "B3",
                    "midi": 59,
                    "time": 78.54350600000043,
                    "velocity": 0.33070866141732286,
                    "duration": 0.0996745000000061
                },
                {
                    "name": "E4",
                    "midi": 64,
                    "time": 78.64318050000044,
                    "velocity": 0.33070866141732286,
                    "duration": 0.0996745000000061
                },
                {
                    "name": "B3",
                    "midi": 59,
                    "time": 78.74285500000045,
                    "velocity": 0.33070866141732286,
                    "duration": 0.0996745000000061
                },
                {
                    "name": "E4",
                    "midi": 64,
                    "time": 78.84252950000045,
                    "velocity": 0.33070866141732286,
                    "duration": 0.0996745000000061
                },
                {
                    "name": "A3",
                    "midi": 57,
                    "time": 78.94220400000046,
                    "velocity": 0.4015748031496063,
                    "duration": 0.0996745000000061
                },
                {
                    "name": "E4",
                    "midi": 64,
                    "time": 79.04187850000046,
                    "velocity": 0.30708661417322836,
                    "duration": 0.0996745000000061
                },
                {
                    "name": "C#4",
                    "midi": 61,
                    "time": 79.14155300000047,
                    "velocity": 0.30708661417322836,
                    "duration": 0.0996745000000061
                },
                {
                    "name": "E4",
                    "midi": 64,
                    "time": 79.24122750000048,
                    "velocity": 0.30708661417322836,
                    "duration": 0.0996745000000061
                },
                {
                    "name": "C#4",
                    "midi": 61,
                    "time": 79.34090200000048,
                    "velocity": 0.30708661417322836,
                    "duration": 0.0996745000000061
                },
                {
                    "name": "E4",
                    "midi": 64,
                    "time": 79.44057650000049,
                    "velocity": 0.30708661417322836,
                    "duration": 0.0996745000000061
                },
                {
                    "name": "A3",
                    "midi": 57,
                    "time": 79.5402510000005,
                    "velocity": 0.3937007874015748,
                    "duration": 0.0996745000000061
                },
                {
                    "name": "E4",
                    "midi": 64,
                    "time": 79.6399255000005,
                    "velocity": 0.31496062992125984,
                    "duration": 0.0996745000000061
                },
                {
                    "name": "C#4",
                    "midi": 61,
                    "time": 79.73960000000051,
                    "velocity": 0.31496062992125984,
                    "duration": 0.0996745000000061
                },
                {
                    "name": "E4",
                    "midi": 64,
                    "time": 79.83927450000051,
                    "velocity": 0.31496062992125984,
                    "duration": 0.0996745000000061
                },
                {
                    "name": "C#4",
                    "midi": 61,
                    "time": 79.93894900000052,
                    "velocity": 0.31496062992125984,
                    "duration": 0.0996745000000061
                },
                {
                    "name": "E4",
                    "midi": 64,
                    "time": 80.03862350000053,
                    "velocity": 0.31496062992125984,
                    "duration": 0.0996745000000061
                },
                {
                    "name": "B3",
                    "midi": 59,
                    "time": 80.13829800000053,
                    "velocity": 0.47244094488188976,
                    "duration": 0.0996745000000061
                },
                {
                    "name": "E4",
                    "midi": 64,
                    "time": 80.23797250000054,
                    "velocity": 0.3464566929133858,
                    "duration": 0.0996745000000061
                },
                {
                    "name": "D4",
                    "midi": 62,
                    "time": 80.33764700000054,
                    "velocity": 0.3464566929133858,
                    "duration": 0.0996745000000061
                },
                {
                    "name": "E4",
                    "midi": 64,
                    "time": 80.43732150000055,
                    "velocity": 0.3464566929133858,
                    "duration": 0.0996745000000061
                },
                {
                    "name": "D4",
                    "midi": 62,
                    "time": 80.53699600000056,
                    "velocity": 0.3464566929133858,
                    "duration": 0.0996745000000061
                },
                {
                    "name": "E4",
                    "midi": 64,
                    "time": 80.63667050000056,
                    "velocity": 0.3464566929133858,
                    "duration": 0.0996745000000061
                },
                {
                    "name": "G#3",
                    "midi": 56,
                    "time": 80.73634500000057,
                    "velocity": 0.4330708661417323,
                    "duration": 0.0996745000000061
                },
                {
                    "name": "E4",
                    "midi": 64,
                    "time": 80.83601950000057,
                    "velocity": 0.33070866141732286,
                    "duration": 0.0996745000000061
                },
                {
                    "name": "B3",
                    "midi": 59,
                    "time": 80.93569400000058,
                    "velocity": 0.33070866141732286,
                    "duration": 0.0996745000000061
                },
                {
                    "name": "E4",
                    "midi": 64,
                    "time": 81.03536850000059,
                    "velocity": 0.33070866141732286,
                    "duration": 0.0996745000000061
                },
                {
                    "name": "B3",
                    "midi": 59,
                    "time": 81.13504300000059,
                    "velocity": 0.33070866141732286,
                    "duration": 0.0996745000000061
                },
                {
                    "name": "E4",
                    "midi": 64,
                    "time": 81.2347175000006,
                    "velocity": 0.33070866141732286,
                    "duration": 0.0996745000000061
                },
                {
                    "name": "A3",
                    "midi": 57,
                    "time": 81.3343920000006,
                    "velocity": 0.4015748031496063,
                    "duration": 0.0996745000000061
                },
                {
                    "name": "E4",
                    "midi": 64,
                    "time": 81.43406650000061,
                    "velocity": 0.30708661417322836,
                    "duration": 0.0996745000000061
                },
                {
                    "name": "C#4",
                    "midi": 61,
                    "time": 81.53374100000062,
                    "velocity": 0.30708661417322836,
                    "duration": 0.0996745000000061
                },
                {
                    "name": "E4",
                    "midi": 64,
                    "time": 81.63341550000062,
                    "velocity": 0.30708661417322836,
                    "duration": 0.0996745000000061
                },
                {
                    "name": "C#4",
                    "midi": 61,
                    "time": 81.73309000000063,
                    "velocity": 0.30708661417322836,
                    "duration": 0.0996745000000061
                },
                {
                    "name": "E4",
                    "midi": 64,
                    "time": 81.83276450000064,
                    "velocity": 0.30708661417322836,
                    "duration": 0.0996745000000061
                },
                {
                    "name": "A3",
                    "midi": 57,
                    "time": 81.93243900000064,
                    "velocity": 0.3937007874015748,
                    "duration": 0.0996745000000061
                },
                {
                    "name": "E4",
                    "midi": 64,
                    "time": 82.03211350000065,
                    "velocity": 0.31496062992125984,
                    "duration": 0.0996745000000061
                },
                {
                    "name": "C#4",
                    "midi": 61,
                    "time": 82.13178800000065,
                    "velocity": 0.31496062992125984,
                    "duration": 0.0996745000000061
                },
                {
                    "name": "E4",
                    "midi": 64,
                    "time": 82.23146250000066,
                    "velocity": 0.31496062992125984,
                    "duration": 0.0996745000000061
                },
                {
                    "name": "C#4",
                    "midi": 61,
                    "time": 82.33113700000067,
                    "velocity": 0.31496062992125984,
                    "duration": 0.0996745000000061
                },
                {
                    "name": "E4",
                    "midi": 64,
                    "time": 82.43081150000067,
                    "velocity": 0.31496062992125984,
                    "duration": 0.0996745000000061
                },
                {
                    "name": "D4",
                    "midi": 62,
                    "time": 82.53048600000068,
                    "velocity": 0.3543307086614173,
                    "duration": 0.0996745000000061
                },
                {
                    "name": "D4",
                    "midi": 62,
                    "time": 83.12853300000069,
                    "velocity": 0.2677165354330709,
                    "duration": 0.0996745000000061
                },
                {
                    "name": "A4",
                    "midi": 69,
                    "time": 83.12853300000069,
                    "velocity": 0.31496062992125984,
                    "duration": 0.0996745000000061
                },
                {
                    "name": "C#4",
                    "midi": 61,
                    "time": 83.7265800000007,
                    "velocity": 0.2677165354330709,
                    "duration": 0.0996745000000061
                },
                {
                    "name": "A4",
                    "midi": 69,
                    "time": 83.7265800000007,
                    "velocity": 0.31496062992125984,
                    "duration": 0.0996745000000061
                },
                {
                    "name": "A4",
                    "midi": 69,
                    "time": 84.3246270000007,
                    "velocity": 0.31496062992125984,
                    "duration": 0.0996745000000061
                },
                {
                    "name": "D4",
                    "midi": 62,
                    "time": 84.3246270000007,
                    "velocity": 0.2677165354330709,
                    "duration": 0.0996745000000061
                },
                {
                    "name": "A4",
                    "midi": 69,
                    "time": 84.92267400000071,
                    "velocity": 0.31496062992125984,
                    "duration": 0.0996745000000061
                },
                {
                    "name": "E4",
                    "midi": 64,
                    "time": 84.92267400000071,
                    "velocity": 0.2677165354330709,
                    "duration": 0.0996745000000061
                },
                {
                    "name": "G#4",
                    "midi": 68,
                    "time": 85.52072100000072,
                    "velocity": 0.31496062992125984,
                    "duration": 0.0996745000000061
                },
                {
                    "name": "E4",
                    "midi": 64,
                    "time": 85.52072100000072,
                    "velocity": 0.2677165354330709,
                    "duration": 0.0996745000000061
                },
                {
                    "name": "D3",
                    "midi": 50,
                    "time": 86.11876800000073,
                    "velocity": 0.4330708661417323,
                    "duration": 0.0996745000000061
                },
                {
                    "name": "A3",
                    "midi": 57,
                    "time": 86.11876800000073,
                    "velocity": 0.49606299212598426,
                    "duration": 0.0996745000000061
                },
                {
                    "name": "A3",
                    "midi": 57,
                    "time": 86.71681500000074,
                    "velocity": 0.44881889763779526,
                    "duration": 0.0996745000000061
                },
                {
                    "name": "D3",
                    "midi": 50,
                    "time": 86.71681500000074,
                    "velocity": 0.3779527559055118,
                    "duration": 0.0996745000000061
                },
                {
                    "name": "C#3",
                    "midi": 49,
                    "time": 87.31486200000074,
                    "velocity": 0.3779527559055118,
                    "duration": 0.0996745000000061
                },
                {
                    "name": "A3",
                    "midi": 57,
                    "time": 87.31486200000074,
                    "velocity": 0.44881889763779526,
                    "duration": 0.0996745000000061
                },
                {
                    "name": "D3",
                    "midi": 50,
                    "time": 87.91290900000075,
                    "velocity": 0.3779527559055118,
                    "duration": 0.0996745000000061
                },
                {
                    "name": "A3",
                    "midi": 57,
                    "time": 87.91290900000075,
                    "velocity": 0.44881889763779526,
                    "duration": 0.0996745000000061
                },
                {
                    "name": "A3",
                    "midi": 57,
                    "time": 88.51095600000076,
                    "velocity": 0.44881889763779526,
                    "duration": 0.0996745000000061
                },
                {
                    "name": "E3",
                    "midi": 52,
                    "time": 88.51095600000076,
                    "velocity": 0.3779527559055118,
                    "duration": 0.0996745000000061
                },
                {
                    "name": "E3",
                    "midi": 52,
                    "time": 89.10900300000077,
                    "velocity": 0.3779527559055118,
                    "duration": 0.0996745000000061
                },
                {
                    "name": "G#3",
                    "midi": 56,
                    "time": 89.10900300000077,
                    "velocity": 0.44881889763779526,
                    "duration": 0.0996745000000061
                },
                {
                    "name": "A2",
                    "midi": 45,
                    "time": 89.70705000000078,
                    "velocity": 0.5275590551181102,
                    "duration": 0.0996745000000061
                },
                {
                    "name": "A3",
                    "midi": 57,
                    "time": 89.80672450000078,
                    "velocity": 0.3464566929133858,
                    "duration": 0.0996745000000061
                },
                {
                    "name": "G#3",
                    "midi": 56,
                    "time": 89.90639900000079,
                    "velocity": 0.3779527559055118,
                    "duration": 0.0996745000000061
                },
                {
                    "name": "A3",
                    "midi": 57,
                    "time": 90.0060735000008,
                    "velocity": 0.3464566929133858,
                    "duration": 0.0996745000000061
                },
                {
                    "name": "G#3",
                    "midi": 56,
                    "time": 90.1057480000008,
                    "velocity": 0.3779527559055118,
                    "duration": 0.0996745000000061
                },
                {
                    "name": "A3",
                    "midi": 57,
                    "time": 90.20542250000081,
                    "velocity": 0.3464566929133858,
                    "duration": 0.0996745000000061
                },
                {
                    "name": "F#2",
                    "midi": 42,
                    "time": 90.30509700000081,
                    "velocity": 0.4881889763779528,
                    "duration": 0.0996745000000061
                },
                {
                    "name": "F#3",
                    "midi": 54,
                    "time": 90.40477150000082,
                    "velocity": 0.33858267716535434,
                    "duration": 0.0996745000000061
                },
                {
                    "name": "F3",
                    "midi": 53,
                    "time": 90.50444600000083,
                    "velocity": 0.3700787401574803,
                    "duration": 0.0996745000000061
                },
                {
                    "name": "F#3",
                    "midi": 54,
                    "time": 90.60412050000083,
                    "velocity": 0.33858267716535434,
                    "duration": 0.0996745000000061
                },
                {
                    "name": "F3",
                    "midi": 53,
                    "time": 90.70379500000084,
                    "velocity": 0.3700787401574803,
                    "duration": 0.0996745000000061
                },
                {
                    "name": "F#3",
                    "midi": 54,
                    "time": 90.80346950000084,
                    "velocity": 0.33858267716535434,
                    "duration": 0.0996745000000061
                },
                {
                    "name": "D2",
                    "midi": 38,
                    "time": 90.90314400000085,
                    "velocity": 0.5275590551181102,
                    "duration": 0.0996745000000061
                },
                {
                    "name": "D3",
                    "midi": 50,
                    "time": 91.00281850000086,
                    "velocity": 0.36220472440944884,
                    "duration": 0.0996745000000061
                },
                {
                    "name": "C#3",
                    "midi": 49,
                    "time": 91.10249300000086,
                    "velocity": 0.3937007874015748,
                    "duration": 0.0996745000000061
                },
                {
                    "name": "D3",
                    "midi": 50,
                    "time": 91.20216750000087,
                    "velocity": 0.36220472440944884,
                    "duration": 0.0996745000000061
                },
                {
                    "name": "C#3",
                    "midi": 49,
                    "time": 91.30184200000087,
                    "velocity": 0.4015748031496063,
                    "duration": 0.0996745000000061
                },
                {
                    "name": "D3",
                    "midi": 50,
                    "time": 91.40151650000088,
                    "velocity": 0.36220472440944884,
                    "duration": 0.0996745000000061
                },
                {
                    "name": "E2",
                    "midi": 40,
                    "time": 91.50119100000089,
                    "velocity": 0.4330708661417323,
                    "duration": 0.0996745000000061
                },
                {
                    "name": "E3",
                    "midi": 52,
                    "time": 91.60086550000089,
                    "velocity": 0.36220472440944884,
                    "duration": 0.0996745000000061
                },
                {
                    "name": "D#3",
                    "midi": 51,
                    "time": 91.7005400000009,
                    "velocity": 0.3858267716535433,
                    "duration": 0.0996745000000061
                },
                {
                    "name": "E3",
                    "midi": 52,
                    "time": 91.8002145000009,
                    "velocity": 0.36220472440944884,
                    "duration": 0.0996745000000061
                },
                {
                    "name": "D#3",
                    "midi": 51,
                    "time": 91.89988900000091,
                    "velocity": 0.3937007874015748,
                    "duration": 0.0996745000000061
                },
                {
                    "name": "E3",
                    "midi": 52,
                    "time": 91.99956350000092,
                    "velocity": 0.36220472440944884,
                    "duration": 0.0996745000000061
                },
                {
                    "name": "A2",
                    "midi": 45,
                    "time": 92.09923800000092,
                    "velocity": 0.5275590551181102,
                    "duration": 0.0996745000000061
                },
                {
                    "name": "A3",
                    "midi": 57,
                    "time": 92.19891250000093,
                    "velocity": 0.3464566929133858,
                    "duration": 0.0996745000000061
                },
                {
                    "name": "G#3",
                    "midi": 56,
                    "time": 92.29858700000094,
                    "velocity": 0.3779527559055118,
                    "duration": 0.0996745000000061
                },
                {
                    "name": "A3",
                    "midi": 57,
                    "time": 92.39826150000094,
                    "velocity": 0.3464566929133858,
                    "duration": 0.0996745000000061
                },
                {
                    "name": "G#3",
                    "midi": 56,
                    "time": 92.49793600000095,
                    "velocity": 0.3779527559055118,
                    "duration": 0.0996745000000061
                },
                {
                    "name": "A3",
                    "midi": 57,
                    "time": 92.59761050000095,
                    "velocity": 0.3464566929133858,
                    "duration": 0.0996745000000061
                },
                {
                    "name": "F#2",
                    "midi": 42,
                    "time": 92.69728500000096,
                    "velocity": 0.4881889763779528,
                    "duration": 0.0996745000000061
                },
                {
                    "name": "F#3",
                    "midi": 54,
                    "time": 92.79695950000097,
                    "velocity": 0.33858267716535434,
                    "duration": 0.0996745000000061
                },
                {
                    "name": "F3",
                    "midi": 53,
                    "time": 92.89663400000097,
                    "velocity": 0.3700787401574803,
                    "duration": 0.0996745000000061
                },
                {
                    "name": "F#3",
                    "midi": 54,
                    "time": 92.99630850000098,
                    "velocity": 0.33858267716535434,
                    "duration": 0.0996745000000061
                },
                {
                    "name": "F3",
                    "midi": 53,
                    "time": 93.09598300000098,
                    "velocity": 0.3700787401574803,
                    "duration": 0.0996745000000061
                },
                {
                    "name": "F#3",
                    "midi": 54,
                    "time": 93.19565750000099,
                    "velocity": 0.33858267716535434,
                    "duration": 0.0996745000000061
                },
                {
                    "name": "D2",
                    "midi": 38,
                    "time": 93.295332000001,
                    "velocity": 0.5275590551181102,
                    "duration": 0.0996745000000061
                },
                {
                    "name": "D3",
                    "midi": 50,
                    "time": 93.395006500001,
                    "velocity": 0.36220472440944884,
                    "duration": 0.0996745000000061
                },
                {
                    "name": "C#3",
                    "midi": 49,
                    "time": 93.49468100000101,
                    "velocity": 0.3937007874015748,
                    "duration": 0.0996745000000061
                },
                {
                    "name": "D3",
                    "midi": 50,
                    "time": 93.59435550000102,
                    "velocity": 0.36220472440944884,
                    "duration": 0.0996745000000061
                },
                {
                    "name": "C#3",
                    "midi": 49,
                    "time": 93.69403000000102,
                    "velocity": 0.4015748031496063,
                    "duration": 0.0996745000000061
                },
                {
                    "name": "D3",
                    "midi": 50,
                    "time": 93.79370450000103,
                    "velocity": 0.36220472440944884,
                    "duration": 0.0996745000000061
                },
                {
                    "name": "E2",
                    "midi": 40,
                    "time": 93.89337900000103,
                    "velocity": 0.4330708661417323,
                    "duration": 0.0996745000000061
                },
                {
                    "name": "E3",
                    "midi": 52,
                    "time": 93.99305350000104,
                    "velocity": 0.36220472440944884,
                    "duration": 0.0996745000000061
                },
                {
                    "name": "D#3",
                    "midi": 51,
                    "time": 94.09272800000105,
                    "velocity": 0.3858267716535433,
                    "duration": 0.0996745000000061
                },
                {
                    "name": "E3",
                    "midi": 52,
                    "time": 94.19240250000105,
                    "velocity": 0.36220472440944884,
                    "duration": 0.0996745000000061
                },
                {
                    "name": "D#3",
                    "midi": 51,
                    "time": 94.29207700000106,
                    "velocity": 0.3937007874015748,
                    "duration": 0.0996745000000061
                },
                {
                    "name": "E3",
                    "midi": 52,
                    "time": 94.39175150000106,
                    "velocity": 0.36220472440944884,
                    "duration": 0.0996745000000061
                },
                {
                    "name": "A2",
                    "midi": 45,
                    "time": 94.49142600000107,
                    "velocity": 0.5275590551181102,
                    "duration": 0.0996745000000061
                },
                {
                    "name": "D4",
                    "midi": 62,
                    "time": 95.48817100000107,
                    "velocity": 0.2992125984251969,
                    "duration": 0.199348999999998
                },
                {
                    "name": "B3",
                    "midi": 59,
                    "time": 95.48817100000107,
                    "velocity": 0.25196850393700787,
                    "duration": 0.199348999999998
                },
                {
                    "name": "E3",
                    "midi": 52,
                    "time": 95.48817100000107,
                    "velocity": 0.25196850393700787,
                    "duration": 0.199348999999998
                },
                {
                    "name": "A3",
                    "midi": 57,
                    "time": 95.68752000000107,
                    "velocity": 0.25196850393700787,
                    "duration": 0.0996745000000061
                },
                {
                    "name": "C#4",
                    "midi": 61,
                    "time": 95.68752000000107,
                    "velocity": 0.2992125984251969,
                    "duration": 0.0996745000000061
                },
                {
                    "name": "D4",
                    "midi": 62,
                    "time": 96.68426500000108,
                    "velocity": 0.2992125984251969,
                    "duration": 0.199348999999998
                },
                {
                    "name": "E3",
                    "midi": 52,
                    "time": 96.68426500000108,
                    "velocity": 0.25196850393700787,
                    "duration": 0.199348999999998
                },
                {
                    "name": "B3",
                    "midi": 59,
                    "time": 96.68426500000108,
                    "velocity": 0.25196850393700787,
                    "duration": 0.199348999999998
                },
                {
                    "name": "A3",
                    "midi": 57,
                    "time": 96.88361400000107,
                    "velocity": 0.25196850393700787,
                    "duration": 0.0996745000000061
                },
                {
                    "name": "C#4",
                    "midi": 61,
                    "time": 96.88361400000107,
                    "velocity": 0.2992125984251969,
                    "duration": 0.0996745000000061
                },
                {
                    "name": "C#3",
                    "midi": 49,
                    "time": 97.08296300000109,
                    "velocity": 0.30708661417322836,
                    "duration": 0.199348999999998
                },
                {
                    "name": "D3",
                    "midi": 50,
                    "time": 97.28231200000108,
                    "velocity": 0.31496062992125984,
                    "duration": 0.199348999999998
                },
                {
                    "name": "E3",
                    "midi": 52,
                    "time": 97.48166100000108,
                    "velocity": 0.33070866141732286,
                    "duration": 0.199348999999998
                },
                {
                    "name": "F#3",
                    "midi": 54,
                    "time": 97.68101000000108,
                    "velocity": 0.30708661417322836,
                    "duration": 0.199348999999998
                },
                {
                    "name": "G#3",
                    "midi": 56,
                    "time": 97.88035900000108,
                    "velocity": 0.33858267716535434,
                    "duration": 0.199348999999998
                },
                {
                    "name": "A3",
                    "midi": 57,
                    "time": 98.07970800000108,
                    "velocity": 0.36220472440944884,
                    "duration": 0.199348999999998
                },
                {
                    "name": "C#3",
                    "midi": 49,
                    "time": 98.27905700000107,
                    "velocity": 0.3228346456692913,
                    "duration": 0.199348999999998
                },
                {
                    "name": "D3",
                    "midi": 50,
                    "time": 98.47840600000107,
                    "velocity": 0.3228346456692913,
                    "duration": 0.199348999999998
                },
                {
                    "name": "E3",
                    "midi": 52,
                    "time": 98.67775500000107,
                    "velocity": 0.3543307086614173,
                    "duration": 0.199348999999998
                },
                {
                    "name": "F#3",
                    "midi": 54,
                    "time": 98.87710400000107,
                    "velocity": 0.3228346456692913,
                    "duration": 0.199348999999998
                },
                {
                    "name": "G#3",
                    "midi": 56,
                    "time": 99.07645300000107,
                    "velocity": 0.3543307086614173,
                    "duration": 0.199348999999998
                },
                {
                    "name": "A3",
                    "midi": 57,
                    "time": 99.27580200000106,
                    "velocity": 0.31496062992125984,
                    "duration": 0.0996745000000061
                },
                {
                    "name": "A3",
                    "midi": 57,
                    "time": 99.87384900000107,
                    "velocity": 0.2755905511811024,
                    "duration": 0.0996745000000061
                },
                {
                    "name": "B3",
                    "midi": 59,
                    "time": 99.87384900000107,
                    "velocity": 0.3228346456692913,
                    "duration": 0.0996745000000061
                },
                {
                    "name": "A3",
                    "midi": 57,
                    "time": 100.47189600000108,
                    "velocity": 0.3228346456692913,
                    "duration": 0.0996745000000061
                },
                {
                    "name": "C#4",
                    "midi": 61,
                    "time": 100.47189600000108,
                    "velocity": 0.3858267716535433,
                    "duration": 0.0996745000000061
                },
                {
                    "name": "D4",
                    "midi": 62,
                    "time": 101.06994300000109,
                    "velocity": 0.41732283464566927,
                    "duration": 0.0996745000000061
                },
                {
                    "name": "A3",
                    "midi": 57,
                    "time": 101.06994300000109,
                    "velocity": 0.3464566929133858,
                    "duration": 0.0996745000000061
                },
                {
                    "name": "A3",
                    "midi": 57,
                    "time": 101.6679900000011,
                    "velocity": 0.3937007874015748,
                    "duration": 0.0996745000000061
                },
                {
                    "name": "E4",
                    "midi": 64,
                    "time": 101.6679900000011,
                    "velocity": 0.47244094488188976,
                    "duration": 0.0996745000000061
                },
                {
                    "name": "F#4",
                    "midi": 66,
                    "time": 104.0601780000011,
                    "velocity": 0.25984251968503935,
                    "duration": 0.598046999999994
                },
                {
                    "name": "D4",
                    "midi": 62,
                    "time": 104.0601780000011,
                    "velocity": 0.2125984251968504,
                    "duration": 0.598046999999994
                },
                {
                    "name": "B3",
                    "midi": 59,
                    "time": 104.6582250000011,
                    "velocity": 0.2125984251968504,
                    "duration": 0.598046999999994
                },
                {
                    "name": "G#4",
                    "midi": 68,
                    "time": 104.6582250000011,
                    "velocity": 0.25984251968503935,
                    "duration": 0.598046999999994
                },
                {
                    "name": "A4",
                    "midi": 69,
                    "time": 105.25627200000109,
                    "velocity": 0.25984251968503935,
                    "duration": 0.598046999999994
                },
                {
                    "name": "A3",
                    "midi": 57,
                    "time": 105.25627200000109,
                    "velocity": 0.2125984251968504,
                    "duration": 0.598046999999994
                },
                {
                    "name": "E4",
                    "midi": 64,
                    "time": 106.45236600000108,
                    "velocity": 0.25984251968503935,
                    "duration": 0.598046999999994
                },
                {
                    "name": "A3",
                    "midi": 57,
                    "time": 106.45236600000108,
                    "velocity": 0.2125984251968504,
                    "duration": 0.598046999999994
                },
                {
                    "name": "E4",
                    "midi": 64,
                    "time": 107.05041300000107,
                    "velocity": 0.25984251968503935,
                    "duration": 0.598046999999994
                },
                {
                    "name": "C#4",
                    "midi": 61,
                    "time": 107.05041300000107,
                    "velocity": 0.2125984251968504,
                    "duration": 0.598046999999994
                },
                {
                    "name": "A4",
                    "midi": 69,
                    "time": 107.64846000000107,
                    "velocity": 0.25984251968503935,
                    "duration": 0.598046999999994
                },
                {
                    "name": "D4",
                    "midi": 62,
                    "time": 107.64846000000107,
                    "velocity": 0.2125984251968504,
                    "duration": 0.598046999999994
                },
                {
                    "name": "D3",
                    "midi": 50,
                    "time": 108.24650700000106,
                    "velocity": 0.4015748031496063,
                    "duration": 0.199348999999998
                },
                {
                    "name": "D4",
                    "midi": 62,
                    "time": 108.44585600000106,
                    "velocity": 0.3543307086614173,
                    "duration": 0.0996745000000061
                },
                {
                    "name": "E4",
                    "midi": 64,
                    "time": 108.64520500000107,
                    "velocity": 0.3779527559055118,
                    "duration": 0.0996745000000061
                },
                {
                    "name": "F#4",
                    "midi": 66,
                    "time": 108.84455400000108,
                    "velocity": 0.4094488188976378,
                    "duration": 0.199348999999998
                },
                {
                    "name": "D3",
                    "midi": 50,
                    "time": 109.44260100000108,
                    "velocity": 0.3937007874015748,
                    "duration": 0.199348999999998
                },
                {
                    "name": "D4",
                    "midi": 62,
                    "time": 109.64195000000107,
                    "velocity": 0.3464566929133858,
                    "duration": 0.0996745000000061
                },
                {
                    "name": "E4",
                    "midi": 64,
                    "time": 109.84129900000109,
                    "velocity": 0.3779527559055118,
                    "duration": 0.0996745000000061
                },
                {
                    "name": "F#4",
                    "midi": 66,
                    "time": 110.0406480000011,
                    "velocity": 0.41732283464566927,
                    "duration": 0.199348999999998
                },
                {
                    "name": "G3",
                    "midi": 55,
                    "time": 110.63869500000109,
                    "velocity": 0.3937007874015748,
                    "duration": 0.199348999999998
                },
                {
                    "name": "G4",
                    "midi": 67,
                    "time": 110.83804400000109,
                    "velocity": 0.3464566929133858,
                    "duration": 0.0996745000000061
                },
                {
                    "name": "E4",
                    "midi": 64,
                    "time": 111.0373930000011,
                    "velocity": 0.3779527559055118,
                    "duration": 0.0996745000000061
                },
                {
                    "name": "F#4",
                    "midi": 66,
                    "time": 111.23674200000112,
                    "velocity": 0.41732283464566927,
                    "duration": 0.199348999999998
                },
                {
                    "name": "F#3",
                    "midi": 54,
                    "time": 111.23674200000112,
                    "velocity": 0.3543307086614173,
                    "duration": 0.199348999999998
                },
                {
                    "name": "G4",
                    "midi": 67,
                    "time": 111.83478900000111,
                    "velocity": 0.41732283464566927,
                    "duration": 0.199348999999998
                },
                {
                    "name": "G3",
                    "midi": 55,
                    "time": 111.83478900000111,
                    "velocity": 0.3543307086614173,
                    "duration": 0.199348999999998
                },
                {
                    "name": "A4",
                    "midi": 69,
                    "time": 112.4328360000011,
                    "velocity": 0.41732283464566927,
                    "duration": 0.199348999999998
                },
                {
                    "name": "A3",
                    "midi": 57,
                    "time": 112.4328360000011,
                    "velocity": 0.3543307086614173,
                    "duration": 0.199348999999998
                },
                {
                    "name": "F#4",
                    "midi": 66,
                    "time": 113.6289300000011,
                    "velocity": 0.25984251968503935,
                    "duration": 0.598046999999994
                },
                {
                    "name": "D4",
                    "midi": 62,
                    "time": 113.6289300000011,
                    "velocity": 0.2125984251968504,
                    "duration": 0.598046999999994
                },
                {
                    "name": "B3",
                    "midi": 59,
                    "time": 114.2269770000011,
                    "velocity": 0.2125984251968504,
                    "duration": 0.598046999999994
                },
                {
                    "name": "G#4",
                    "midi": 68,
                    "time": 114.2269770000011,
                    "velocity": 0.25984251968503935,
                    "duration": 0.598046999999994
                },
                {
                    "name": "A4",
                    "midi": 69,
                    "time": 114.8250240000011,
                    "velocity": 0.25984251968503935,
                    "duration": 0.598046999999994
                },
                {
                    "name": "A3",
                    "midi": 57,
                    "time": 114.8250240000011,
                    "velocity": 0.2125984251968504,
                    "duration": 0.598046999999994
                },
                {
                    "name": "E4",
                    "midi": 64,
                    "time": 116.02111800000108,
                    "velocity": 0.25984251968503935,
                    "duration": 0.598046999999994
                },
                {
                    "name": "A3",
                    "midi": 57,
                    "time": 116.02111800000108,
                    "velocity": 0.2125984251968504,
                    "duration": 0.598046999999994
                },
                {
                    "name": "C#4",
                    "midi": 61,
                    "time": 116.61916500000108,
                    "velocity": 0.2125984251968504,
                    "duration": 0.598046999999994
                },
                {
                    "name": "E4",
                    "midi": 64,
                    "time": 116.61916500000108,
                    "velocity": 0.25984251968503935,
                    "duration": 0.598046999999994
                },
                {
                    "name": "D4",
                    "midi": 62,
                    "time": 117.21721200000107,
                    "velocity": 0.2125984251968504,
                    "duration": 0.598046999999994
                },
                {
                    "name": "A4",
                    "midi": 69,
                    "time": 117.21721200000107,
                    "velocity": 0.25984251968503935,
                    "duration": 0.598046999999994
                },
                {
                    "name": "D3",
                    "midi": 50,
                    "time": 117.81525900000106,
                    "velocity": 0.4015748031496063,
                    "duration": 0.199348999999998
                },
                {
                    "name": "D4",
                    "midi": 62,
                    "time": 118.01460800000106,
                    "velocity": 0.3543307086614173,
                    "duration": 0.0996745000000061
                },
                {
                    "name": "E4",
                    "midi": 64,
                    "time": 118.21395700000107,
                    "velocity": 0.3779527559055118,
                    "duration": 0.0996745000000061
                },
                {
                    "name": "F#4",
                    "midi": 66,
                    "time": 118.41330600000109,
                    "velocity": 0.4094488188976378,
                    "duration": 0.199348999999998
                },
                {
                    "name": "G2",
                    "midi": 43,
                    "time": 119.01135300000108,
                    "velocity": 0.3937007874015748,
                    "duration": 0.199348999999998
                },
                {
                    "name": "G3",
                    "midi": 55,
                    "time": 119.21070200000108,
                    "velocity": 0.3464566929133858,
                    "duration": 0.0996745000000061
                },
                {
                    "name": "B3",
                    "midi": 59,
                    "time": 119.41005100000109,
                    "velocity": 0.3779527559055118,
                    "duration": 0.0996745000000061
                },
                {
                    "name": "B3",
                    "midi": 59,
                    "time": 119.6094000000011,
                    "velocity": 0.41732283464566927,
                    "duration": 0.199348999999998
                },
                {
                    "name": "B3",
                    "midi": 59,
                    "time": 120.2074470000011,
                    "velocity": 0.3543307086614173,
                    "duration": 0.0996745000000061
                },
                {
                    "name": "E4",
                    "midi": 64,
                    "time": 120.2074470000011,
                    "velocity": 0.41732283464566927,
                    "duration": 0.0996745000000061
                },
                {
                    "name": "G3",
                    "midi": 55,
                    "time": 120.21575320833443,
                    "velocity": 0.3543307086614173,
                    "duration": 0.0996745000000061
                },
                {
                    "name": "A3",
                    "midi": 57,
                    "time": 120.8054940000011,
                    "velocity": 0.3543307086614173,
                    "duration": 0.0996745000000061
                },
                {
                    "name": "D4",
                    "midi": 62,
                    "time": 120.8054940000011,
                    "velocity": 0.3543307086614173,
                    "duration": 0.0996745000000061
                },
                {
                    "name": "F#4",
                    "midi": 66,
                    "time": 120.81380020833444,
                    "velocity": 0.41732283464566927,
                    "duration": 0.0996745000000061
                },
                {
                    "name": "E4",
                    "midi": 64,
                    "time": 121.40354100000111,
                    "velocity": 0.3543307086614173,
                    "duration": 0.0996745000000061
                },
                {
                    "name": "A3",
                    "midi": 57,
                    "time": 121.40354100000111,
                    "velocity": 0.3543307086614173,
                    "duration": 0.0996745000000061
                },
                {
                    "name": "G4",
                    "midi": 67,
                    "time": 121.41184720833445,
                    "velocity": 0.41732283464566927,
                    "duration": 0.0996745000000061
                },
                {
                    "name": "F#4",
                    "midi": 66,
                    "time": 122.00158800000112,
                    "velocity": 0.41732283464566927,
                    "duration": 0.0996745000000061
                },
                {
                    "name": "D4",
                    "midi": 62,
                    "time": 122.00158800000112,
                    "velocity": 0.3543307086614173,
                    "duration": 0.0996745000000061
                },
                {
                    "name": "F#2",
                    "midi": 42,
                    "time": 122.40028600000113,
                    "velocity": 0.3543307086614173,
                    "duration": 0.0996745000000061
                },
                {
                    "name": "A2",
                    "midi": 45,
                    "time": 122.49996050000114,
                    "velocity": 0.3543307086614173,
                    "duration": 0.0996745000000061
                },
                {
                    "name": "D3",
                    "midi": 50,
                    "time": 122.59963500000114,
                    "velocity": 0.4094488188976378,
                    "duration": 0.0996745000000061
                },
                {
                    "name": "A2",
                    "midi": 45,
                    "time": 122.99833300000115,
                    "velocity": 0.3779527559055118,
                    "duration": 0.0996745000000061
                },
                {
                    "name": "D3",
                    "midi": 50,
                    "time": 123.09800750000116,
                    "velocity": 0.3779527559055118,
                    "duration": 0.0996745000000061
                },
                {
                    "name": "F#3",
                    "midi": 54,
                    "time": 123.19768200000117,
                    "velocity": 0.44881889763779526,
                    "duration": 0.0996745000000061
                },
                {
                    "name": "D3",
                    "midi": 50,
                    "time": 123.59638000000118,
                    "velocity": 0.4015748031496063,
                    "duration": 0.0996745000000061
                },
                {
                    "name": "F#3",
                    "midi": 54,
                    "time": 123.69605450000118,
                    "velocity": 0.4015748031496063,
                    "duration": 0.0996745000000061
                },
                {
                    "name": "A3",
                    "midi": 57,
                    "time": 123.79572900000119,
                    "velocity": 0.44881889763779526,
                    "duration": 0.0996745000000061
                },
                {
                    "name": "F#3",
                    "midi": 54,
                    "time": 124.1944270000012,
                    "velocity": 0.3464566929133858,
                    "duration": 0.0996745000000061
                },
                {
                    "name": "A3",
                    "midi": 57,
                    "time": 124.2941015000012,
                    "velocity": 0.3464566929133858,
                    "duration": 0.0996745000000061
                },
                {
                    "name": "C4",
                    "midi": 60,
                    "time": 124.39377600000121,
                    "velocity": 0.41732283464566927,
                    "duration": 0.0996745000000061
                },
                {
                    "name": "B3",
                    "midi": 59,
                    "time": 125.58987000000121,
                    "velocity": 0.2755905511811024,
                    "duration": 0.598046999999994
                },
                {
                    "name": "D3",
                    "midi": 50,
                    "time": 125.58987000000121,
                    "velocity": 0.2283464566929134,
                    "duration": 1.395442999999986
                },
                {
                    "name": "G3",
                    "midi": 55,
                    "time": 125.58987000000121,
                    "velocity": 0.2283464566929134,
                    "duration": 0.598046999999994
                },
                {
                    "name": "A3",
                    "midi": 57,
                    "time": 126.1879170000012,
                    "velocity": 0.2125984251968504,
                    "duration": 0.598046999999994
                },
                {
                    "name": "C4",
                    "midi": 60,
                    "time": 126.1879170000012,
                    "velocity": 0.25196850393700787,
                    "duration": 0.598046999999994
                },
                {
                    "name": "G3",
                    "midi": 55,
                    "time": 126.7859640000012,
                    "velocity": 0.2283464566929134,
                    "duration": 0.199348999999998
                },
                {
                    "name": "B3",
                    "midi": 59,
                    "time": 126.7859640000012,
                    "velocity": 0.2755905511811024,
                    "duration": 0.199348999999998
                },
                {
                    "name": "B3",
                    "midi": 59,
                    "time": 127.9820580000012,
                    "velocity": 0.2755905511811024,
                    "duration": 0.598046999999994
                },
                {
                    "name": "G3",
                    "midi": 55,
                    "time": 127.9820580000012,
                    "velocity": 0.2283464566929134,
                    "duration": 0.598046999999994
                },
                {
                    "name": "D3",
                    "midi": 50,
                    "time": 127.9820580000012,
                    "velocity": 0.2283464566929134,
                    "duration": 1.3954430000000144
                },
                {
                    "name": "A3",
                    "midi": 57,
                    "time": 128.5801050000012,
                    "velocity": 0.2125984251968504,
                    "duration": 0.5980470000000082
                },
                {
                    "name": "C4",
                    "midi": 60,
                    "time": 128.5801050000012,
                    "velocity": 0.25196850393700787,
                    "duration": 0.5980470000000082
                },
                {
                    "name": "G3",
                    "midi": 55,
                    "time": 129.1781520000012,
                    "velocity": 0.2283464566929134,
                    "duration": 0.1993490000000122
                },
                {
                    "name": "B3",
                    "midi": 59,
                    "time": 129.1781520000012,
                    "velocity": 0.2755905511811024,
                    "duration": 0.1993490000000122
                },
                {
                    "name": "D3",
                    "midi": 50,
                    "time": 130.37424600000122,
                    "velocity": 0.2283464566929134,
                    "duration": 1.1960940000000164
                },
                {
                    "name": "B3",
                    "midi": 59,
                    "time": 130.37424600000122,
                    "velocity": 0.2755905511811024,
                    "duration": 0.5980470000000082
                },
                {
                    "name": "G3",
                    "midi": 55,
                    "time": 130.37424600000122,
                    "velocity": 0.2283464566929134,
                    "duration": 0.5980470000000082
                },
                {
                    "name": "C4",
                    "midi": 60,
                    "time": 130.97229300000123,
                    "velocity": 0.25196850393700787,
                    "duration": 0.5980470000000082
                },
                {
                    "name": "A3",
                    "midi": 57,
                    "time": 130.97229300000123,
                    "velocity": 0.2125984251968504,
                    "duration": 0.5980470000000082
                },
                {
                    "name": "G3",
                    "midi": 55,
                    "time": 131.57034000000124,
                    "velocity": 0.1889763779527559,
                    "duration": 0.1993490000000122
                },
                {
                    "name": "B3",
                    "midi": 59,
                    "time": 131.57034000000124,
                    "velocity": 0.25196850393700787,
                    "duration": 0.1993490000000122
                },
                {
                    "name": "E3",
                    "midi": 52,
                    "time": 132.16838700000125,
                    "velocity": 0.2755905511811024,
                    "duration": 0.5980470000000082
                },
                {
                    "name": "C3",
                    "midi": 48,
                    "time": 132.76643400000125,
                    "velocity": 0.29133858267716534,
                    "duration": 0.5980470000000082
                },
                {
                    "name": "D3",
                    "midi": 50,
                    "time": 133.36448100000126,
                    "velocity": 0.30708661417322836,
                    "duration": 0.5980470000000082
                },
                {
                    "name": "G2",
                    "midi": 43,
                    "time": 133.96252800000127,
                    "velocity": 0.2755905511811024,
                    "duration": 0.1993490000000122
                },
                {
                    "name": "C2",
                    "midi": 36,
                    "time": 134.56057500000128,
                    "velocity": 0.33858267716535434,
                    "duration": 0.5980470000000082
                },
                {
                    "name": "C3",
                    "midi": 48,
                    "time": 134.56057500000128,
                    "velocity": 0.4094488188976378,
                    "duration": 0.5980470000000082
                },
                {
                    "name": "A1",
                    "midi": 33,
                    "time": 135.1586220000013,
                    "velocity": 0.36220472440944884,
                    "duration": 0.5980470000000082
                },
                {
                    "name": "A2",
                    "midi": 45,
                    "time": 135.1586220000013,
                    "velocity": 0.4330708661417323,
                    "duration": 0.5980470000000082
                },
                {
                    "name": "B2",
                    "midi": 47,
                    "time": 135.7566690000013,
                    "velocity": 0.4566929133858268,
                    "duration": 0.5980470000000082
                },
                {
                    "name": "B1",
                    "midi": 35,
                    "time": 135.7566690000013,
                    "velocity": 0.3858267716535433,
                    "duration": 0.5980470000000082
                },
                {
                    "name": "E2",
                    "midi": 40,
                    "time": 136.3547160000013,
                    "velocity": 0.4094488188976378,
                    "duration": 0.1993490000000122
                },
                {
                    "name": "B2",
                    "midi": 47,
                    "time": 136.9527630000013,
                    "velocity": 0.2755905511811024,
                    "duration": 0.5980470000000082
                },
                {
                    "name": "G2",
                    "midi": 43,
                    "time": 137.55081000000132,
                    "velocity": 0.29133858267716534,
                    "duration": 0.5980470000000082
                },
                {
                    "name": "A2",
                    "midi": 45,
                    "time": 138.14885700000133,
                    "velocity": 0.30708661417322836,
                    "duration": 0.5980470000000082
                },
                {
                    "name": "D2",
                    "midi": 38,
                    "time": 138.74690400000134,
                    "velocity": 0.2755905511811024,
                    "duration": 0.1993490000000122
                },
                {
                    "name": "A#3",
                    "midi": 58,
                    "time": 139.34495100000134,
                    "velocity": 0.4094488188976378,
                    "duration": 0.5980470000000082
                },
                {
                    "name": "A#2",
                    "midi": 46,
                    "time": 139.34495100000134,
                    "velocity": 0.33858267716535434,
                    "duration": 0.5980470000000082
                },
                {
                    "name": "B2",
                    "midi": 47,
                    "time": 139.94299800000135,
                    "velocity": 0.36220472440944884,
                    "duration": 0.5980470000000082
                },
                {
                    "name": "B3",
                    "midi": 59,
                    "time": 139.94299800000135,
                    "velocity": 0.4330708661417323,
                    "duration": 0.5980470000000082
                },
                {
                    "name": "G3",
                    "midi": 55,
                    "time": 140.54104500000136,
                    "velocity": 0.4566929133858268,
                    "duration": 0.5980470000000082
                },
                {
                    "name": "G2",
                    "midi": 43,
                    "time": 140.54104500000136,
                    "velocity": 0.3858267716535433,
                    "duration": 0.5980470000000082
                },
                {
                    "name": "F#3",
                    "midi": 54,
                    "time": 141.13909200000137,
                    "velocity": 0.4094488188976378,
                    "duration": 0.0996744999999919
                },
                {
                    "name": "F#2",
                    "midi": 42,
                    "time": 141.13909200000137,
                    "velocity": 0.3779527559055118,
                    "duration": 0.0996744999999919
                },
                {
                    "name": "G3",
                    "midi": 55,
                    "time": 141.33844100000135,
                    "velocity": 0.4094488188976378,
                    "duration": 0.0996744999999919
                },
                {
                    "name": "F#3",
                    "midi": 54,
                    "time": 141.53779000000134,
                    "velocity": 0.4094488188976378,
                    "duration": 0.0996744999999919
                },
                {
                    "name": "E3",
                    "midi": 52,
                    "time": 141.73713900000132,
                    "velocity": 0.4094488188976378,
                    "duration": 0.0996744999999919
                },
                {
                    "name": "D3",
                    "midi": 50,
                    "time": 141.9364880000013,
                    "velocity": 0.4094488188976378,
                    "duration": 0.0996744999999919
                },
                {
                    "name": "C#3",
                    "midi": 49,
                    "time": 142.1358370000013,
                    "velocity": 0.4094488188976378,
                    "duration": 0.0996744999999919
                },
                {
                    "name": "B2",
                    "midi": 47,
                    "time": 142.33518600000127,
                    "velocity": 0.4094488188976378,
                    "duration": 0.1993490000000122
                },
                {
                    "name": "B4",
                    "midi": 71,
                    "time": 142.93323300000128,
                    "velocity": 0.31496062992125984,
                    "duration": 0.0996744999999919
                },
                {
                    "name": "D5",
                    "midi": 74,
                    "time": 143.03290750000127,
                    "velocity": 0.23622047244094488,
                    "duration": 0.0996744999999919
                },
                {
                    "name": "B4",
                    "midi": 71,
                    "time": 143.13258200000126,
                    "velocity": 0.25984251968503935,
                    "duration": 0.0996744999999919
                },
                {
                    "name": "D5",
                    "midi": 74,
                    "time": 143.23225650000126,
                    "velocity": 0.23622047244094488,
                    "duration": 0.0996744999999919
                },
                {
                    "name": "B4",
                    "midi": 71,
                    "time": 143.33193100000125,
                    "velocity": 0.25984251968503935,
                    "duration": 0.0996744999999919
                },
                {
                    "name": "D5",
                    "midi": 74,
                    "time": 143.43160550000124,
                    "velocity": 0.23622047244094488,
                    "duration": 0.0996744999999919
                },
                {
                    "name": "A#4",
                    "midi": 70,
                    "time": 143.53128000000123,
                    "velocity": 0.31496062992125984,
                    "duration": 0.0996744999999919
                },
                {
                    "name": "C#5",
                    "midi": 73,
                    "time": 143.63095450000122,
                    "velocity": 0.23622047244094488,
                    "duration": 0.0996744999999919
                },
                {
                    "name": "A#4",
                    "midi": 70,
                    "time": 143.73062900000122,
                    "velocity": 0.25984251968503935,
                    "duration": 0.0996744999999919
                },
                {
                    "name": "C#5",
                    "midi": 73,
                    "time": 143.8303035000012,
                    "velocity": 0.23622047244094488,
                    "duration": 0.0996744999999919
                },
                {
                    "name": "A#4",
                    "midi": 70,
                    "time": 143.9299780000012,
                    "velocity": 0.25984251968503935,
                    "duration": 0.0996744999999919
                },
                {
                    "name": "C#5",
                    "midi": 73,
                    "time": 144.0296525000012,
                    "velocity": 0.2440944881889764,
                    "duration": 0.0996744999999919
                },
                {
                    "name": "A4",
                    "midi": 69,
                    "time": 144.12932700000118,
                    "velocity": 0.31496062992125984,
                    "duration": 0.0996744999999919
                },
                {
                    "name": "C#5",
                    "midi": 73,
                    "time": 144.22900150000117,
                    "velocity": 0.2283464566929134,
                    "duration": 0.0996744999999919
                },
                {
                    "name": "A4",
                    "midi": 69,
                    "time": 144.32867600000117,
                    "velocity": 0.25196850393700787,
                    "duration": 0.0996744999999919
                },
                {
                    "name": "C#5",
                    "midi": 73,
                    "time": 144.42835050000116,
                    "velocity": 0.23622047244094488,
                    "duration": 0.0996744999999919
                },
                {
                    "name": "A4",
                    "midi": 69,
                    "time": 144.52802500000115,
                    "velocity": 0.25196850393700787,
                    "duration": 0.0996744999999919
                },
                {
                    "name": "C#5",
                    "midi": 73,
                    "time": 144.62769950000114,
                    "velocity": 0.23622047244094488,
                    "duration": 0.0996744999999919
                },
                {
                    "name": "G#4",
                    "midi": 68,
                    "time": 144.72737400000113,
                    "velocity": 0.31496062992125984,
                    "duration": 0.0996744999999919
                },
                {
                    "name": "B4",
                    "midi": 71,
                    "time": 144.82704850000113,
                    "velocity": 0.2440944881889764,
                    "duration": 0.0996744999999919
                },
                {
                    "name": "G#4",
                    "midi": 68,
                    "time": 144.92672300000112,
                    "velocity": 0.25984251968503935,
                    "duration": 0.0996744999999919
                },
                {
                    "name": "B4",
                    "midi": 71,
                    "time": 145.0263975000011,
                    "velocity": 0.2283464566929134,
                    "duration": 0.0996744999999919
                },
                {
                    "name": "G#4",
                    "midi": 68,
                    "time": 145.1260720000011,
                    "velocity": 0.25984251968503935,
                    "duration": 0.0996744999999919
                },
                {
                    "name": "B4",
                    "midi": 71,
                    "time": 145.2257465000011,
                    "velocity": 0.2440944881889764,
                    "duration": 0.0996744999999919
                },
                {
                    "name": "G4",
                    "midi": 67,
                    "time": 145.32542100000109,
                    "velocity": 0.31496062992125984,
                    "duration": 0.0996744999999919
                },
                {
                    "name": "B4",
                    "midi": 71,
                    "time": 145.42509550000108,
                    "velocity": 0.2440944881889764,
                    "duration": 0.0996744999999919
                },
                {
                    "name": "G4",
                    "midi": 67,
                    "time": 145.52477000000107,
                    "velocity": 0.2677165354330709,
                    "duration": 0.0996744999999919
                },
                {
                    "name": "B4",
                    "midi": 71,
                    "time": 145.62444450000106,
                    "velocity": 0.2440944881889764,
                    "duration": 0.0996744999999919
                },
                {
                    "name": "G4",
                    "midi": 67,
                    "time": 145.72411900000105,
                    "velocity": 0.2677165354330709,
                    "duration": 0.0996744999999919
                },
                {
                    "name": "B4",
                    "midi": 71,
                    "time": 145.82379350000105,
                    "velocity": 0.23622047244094488,
                    "duration": 0.0996744999999919
                },
                {
                    "name": "F#4",
                    "midi": 66,
                    "time": 145.92346800000104,
                    "velocity": 0.3543307086614173,
                    "duration": 0.0996744999999919
                },
                {
                    "name": "B4",
                    "midi": 71,
                    "time": 146.02314250000103,
                    "velocity": 0.25196850393700787,
                    "duration": 0.0996744999999919
                },
                {
                    "name": "F#4",
                    "midi": 66,
                    "time": 146.12281700000102,
                    "velocity": 0.2755905511811024,
                    "duration": 0.0996744999999919
                },
                {
                    "name": "B4",
                    "midi": 71,
                    "time": 146.222491500001,
                    "velocity": 0.25196850393700787,
                    "duration": 0.0996744999999919
                },
                {
                    "name": "F#4",
                    "midi": 66,
                    "time": 146.322166000001,
                    "velocity": 0.2755905511811024,
                    "duration": 0.0996744999999919
                },
                {
                    "name": "B4",
                    "midi": 71,
                    "time": 146.421840500001,
                    "velocity": 0.25984251968503935,
                    "duration": 0.0996744999999919
                },
                {
                    "name": "F#4",
                    "midi": 66,
                    "time": 146.521515000001,
                    "velocity": 0.36220472440944884,
                    "duration": 0.0996744999999919
                },
                {
                    "name": "A4",
                    "midi": 69,
                    "time": 146.62118950000098,
                    "velocity": 0.25984251968503935,
                    "duration": 0.0996744999999919
                },
                {
                    "name": "F#4",
                    "midi": 66,
                    "time": 146.72086400000097,
                    "velocity": 0.2755905511811024,
                    "duration": 0.0996744999999919
                },
                {
                    "name": "A4",
                    "midi": 69,
                    "time": 146.82053850000096,
                    "velocity": 0.25984251968503935,
                    "duration": 0.0996744999999919
                },
                {
                    "name": "F#4",
                    "midi": 66,
                    "time": 146.92021300000096,
                    "velocity": 0.2755905511811024,
                    "duration": 0.0996744999999919
                },
                {
                    "name": "A4",
                    "midi": 69,
                    "time": 147.01988750000095,
                    "velocity": 0.25196850393700787,
                    "duration": 0.0996744999999919
                },
                {
                    "name": "E4",
                    "midi": 64,
                    "time": 147.11956200000094,
                    "velocity": 0.31496062992125984,
                    "duration": 0.0996744999999919
                },
                {
                    "name": "G4",
                    "midi": 67,
                    "time": 147.21923650000093,
                    "velocity": 0.25984251968503935,
                    "duration": 0.0996744999999919
                },
                {
                    "name": "E4",
                    "midi": 64,
                    "time": 147.31891100000092,
                    "velocity": 0.2755905511811024,
                    "duration": 0.0996744999999919
                },
                {
                    "name": "G4",
                    "midi": 67,
                    "time": 147.41858550000092,
                    "velocity": 0.25984251968503935,
                    "duration": 0.0996744999999919
                },
                {
                    "name": "E4",
                    "midi": 64,
                    "time": 147.5182600000009,
                    "velocity": 0.2755905511811024,
                    "duration": 0.0996744999999919
                },
                {
                    "name": "G4",
                    "midi": 67,
                    "time": 147.6179345000009,
                    "velocity": 0.25984251968503935,
                    "duration": 0.0996744999999919
                },
                {
                    "name": "E4",
                    "midi": 64,
                    "time": 147.7176090000009,
                    "velocity": 0.31496062992125984,
                    "duration": 0.0996744999999919
                },
                {
                    "name": "G4",
                    "midi": 67,
                    "time": 147.81728350000088,
                    "velocity": 0.25196850393700787,
                    "duration": 0.0996744999999919
                },
                {
                    "name": "E4",
                    "midi": 64,
                    "time": 147.91695800000088,
                    "velocity": 0.2755905511811024,
                    "duration": 0.0996744999999919
                },
                {
                    "name": "G4",
                    "midi": 67,
                    "time": 148.01663250000087,
                    "velocity": 0.25196850393700787,
                    "duration": 0.0996744999999919
                },
                {
                    "name": "E4",
                    "midi": 64,
                    "time": 148.11630700000086,
                    "velocity": 0.2755905511811024,
                    "duration": 0.0996744999999919
                },
                {
                    "name": "G4",
                    "midi": 67,
                    "time": 148.21598150000085,
                    "velocity": 0.25984251968503935,
                    "duration": 0.0996744999999919
                },
                {
                    "name": "D4",
                    "midi": 62,
                    "time": 148.31565600000084,
                    "velocity": 0.31496062992125984,
                    "duration": 0.0996744999999919
                },
                {
                    "name": "F#4",
                    "midi": 66,
                    "time": 148.41533050000083,
                    "velocity": 0.25984251968503935,
                    "duration": 0.0996744999999919
                },
                {
                    "name": "D4",
                    "midi": 62,
                    "time": 148.51500500000083,
                    "velocity": 0.2755905511811024,
                    "duration": 0.0996744999999919
                },
                {
                    "name": "F#4",
                    "midi": 66,
                    "time": 148.61467950000082,
                    "velocity": 0.25984251968503935,
                    "duration": 0.0996744999999919
                },
                {
                    "name": "D4",
                    "midi": 62,
                    "time": 148.7143540000008,
                    "velocity": 0.2755905511811024,
                    "duration": 0.0996744999999919
                },
                {
                    "name": "F#4",
                    "midi": 66,
                    "time": 148.8140285000008,
                    "velocity": 0.25984251968503935,
                    "duration": 0.0996744999999919
                },
                {
                    "name": "D4",
                    "midi": 62,
                    "time": 148.9137030000008,
                    "velocity": 0.2755905511811024,
                    "duration": 0.0996744999999919
                },
                {
                    "name": "F#4",
                    "midi": 66,
                    "time": 149.0133775000008,
                    "velocity": 0.2283464566929134,
                    "duration": 0.0996744999999919
                },
                {
                    "name": "D4",
                    "midi": 62,
                    "time": 149.11305200000078,
                    "velocity": 0.2283464566929134,
                    "duration": 0.0996744999999919
                },
                {
                    "name": "F#4",
                    "midi": 66,
                    "time": 149.21272650000077,
                    "velocity": 0.2125984251968504,
                    "duration": 0.0996744999999919
                },
                {
                    "name": "D4",
                    "midi": 62,
                    "time": 149.31240100000076,
                    "velocity": 0.2283464566929134,
                    "duration": 0.0996744999999919
                },
                {
                    "name": "F#4",
                    "midi": 66,
                    "time": 149.41207550000075,
                    "velocity": 0.2204724409448819,
                    "duration": 0.0996744999999919
                },
                {
                    "name": "A#3",
                    "midi": 58,
                    "time": 149.51175000000075,
                    "velocity": 0.30708661417322836,
                    "duration": 0.0996744999999919
                },
                {
                    "name": "F#4",
                    "midi": 66,
                    "time": 149.61142450000074,
                    "velocity": 0.23622047244094488,
                    "duration": 0.0996744999999919
                },
                {
                    "name": "A#3",
                    "midi": 58,
                    "time": 149.71109900000073,
                    "velocity": 0.2755905511811024,
                    "duration": 0.0996744999999919
                },
                {
                    "name": "F#4",
                    "midi": 66,
                    "time": 149.81077350000072,
                    "velocity": 0.2283464566929134,
                    "duration": 0.0996744999999919
                },
                {
                    "name": "A#3",
                    "midi": 58,
                    "time": 149.9104480000007,
                    "velocity": 0.28346456692913385,
                    "duration": 0.0996744999999919
                },
                {
                    "name": "F#4",
                    "midi": 66,
                    "time": 150.0101225000007,
                    "velocity": 0.25984251968503935,
                    "duration": 0.0996744999999919
                },
                {
                    "name": "B3",
                    "midi": 59,
                    "time": 150.1097970000007,
                    "velocity": 0.31496062992125984,
                    "duration": 0.0996744999999919
                },
                {
                    "name": "F#4",
                    "midi": 66,
                    "time": 150.2094715000007,
                    "velocity": 0.25984251968503935,
                    "duration": 0.0996744999999919
                },
                {
                    "name": "B3",
                    "midi": 59,
                    "time": 150.30914600000068,
                    "velocity": 0.2755905511811024,
                    "duration": 0.0996744999999919
                },
                {
                    "name": "F#4",
                    "midi": 66,
                    "time": 150.40882050000067,
                    "velocity": 0.25984251968503935,
                    "duration": 0.0996744999999919
                },
                {
                    "name": "B3",
                    "midi": 59,
                    "time": 150.50849500000066,
                    "velocity": 0.2755905511811024,
                    "duration": 0.0996744999999919
                },
                {
                    "name": "F#4",
                    "midi": 66,
                    "time": 150.60816950000066,
                    "velocity": 0.25984251968503935,
                    "duration": 0.0996744999999919
                },
                {
                    "name": "F#3",
                    "midi": 54,
                    "time": 150.70784400000065,
                    "velocity": 0.25984251968503935,
                    "duration": 0.1993490000000122
                },
                {
                    "name": "F#3",
                    "midi": 54,
                    "time": 151.30589100000066,
                    "velocity": 0.3464566929133858,
                    "duration": 0.10964194999999677
                },
                {
                    "name": "G3",
                    "midi": 55,
                    "time": 151.40556550000065,
                    "velocity": 0.36220472440944884,
                    "duration": 0.10964194999999677
                },
                {
                    "name": "F#3",
                    "midi": 54,
                    "time": 151.50524000000064,
                    "velocity": 0.3700787401574803,
                    "duration": 0.10964194999999677
                },
                {
                    "name": "E3",
                    "midi": 52,
                    "time": 151.60491450000063,
                    "velocity": 0.3858267716535433,
                    "duration": 0.10964194999999677
                },
                {
                    "name": "D3",
                    "midi": 50,
                    "time": 151.70458900000062,
                    "velocity": 0.4015748031496063,
                    "duration": 0.10964194999999677
                },
                {
                    "name": "C#3",
                    "midi": 49,
                    "time": 151.80426350000062,
                    "velocity": 0.4094488188976378,
                    "duration": 0.10964194999999677
                },
                {
                    "name": "B2",
                    "midi": 47,
                    "time": 151.9039380000006,
                    "velocity": 0.4566929133858268,
                    "duration": 0.1993490000000122
                },
                {
                    "name": "F#4",
                    "midi": 66,
                    "time": 152.10328700000062,
                    "velocity": 0.4094488188976378,
                    "duration": 0.0996744999999919
                },
                {
                    "name": "F#4",
                    "midi": 66,
                    "time": 152.3026360000006,
                    "velocity": 0.3779527559055118,
                    "duration": 0.0996744999999919
                },
                {
                    "name": "G4",
                    "midi": 67,
                    "time": 152.5019850000006,
                    "velocity": 0.3464566929133858,
                    "duration": 0.04983724999999595
                },
                {
                    "name": "A4",
                    "midi": 69,
                    "time": 152.55182225000058,
                    "velocity": 0.3464566929133858,
                    "duration": 0.04983724999999595
                },
                {
                    "name": "G4",
                    "midi": 67,
                    "time": 152.60165950000058,
                    "velocity": 0.41732283464566927,
                    "duration": 0.0996744999999919
                },
                {
                    "name": "F#4",
                    "midi": 66,
                    "time": 152.70133400000057,
                    "velocity": 0.3858267716535433,
                    "duration": 0.0996744999999919
                },
                {
                    "name": "F#4",
                    "midi": 66,
                    "time": 152.90068300000056,
                    "velocity": 0.36220472440944884,
                    "duration": 0.0996744999999919
                },
                {
                    "name": "G4",
                    "midi": 67,
                    "time": 153.10003200000054,
                    "velocity": 0.3779527559055118,
                    "duration": 0.04983724999999595
                },
                {
                    "name": "A4",
                    "midi": 69,
                    "time": 153.14986925000053,
                    "velocity": 0.3779527559055118,
                    "duration": 0.04983724999999595
                },
                {
                    "name": "G4",
                    "midi": 67,
                    "time": 153.19970650000053,
                    "velocity": 0.4094488188976378,
                    "duration": 0.0996744999999919
                },
                {
                    "name": "F#4",
                    "midi": 66,
                    "time": 153.29938100000052,
                    "velocity": 0.4094488188976378,
                    "duration": 0.0996744999999919
                },
                {
                    "name": "F#4",
                    "midi": 66,
                    "time": 153.4987300000005,
                    "velocity": 0.3779527559055118,
                    "duration": 0.0996744999999919
                },
                {
                    "name": "F#4",
                    "midi": 66,
                    "time": 153.6980790000005,
                    "velocity": 0.4094488188976378,
                    "duration": 0.398697999999996
                },
                {
                    "name": "G4",
                    "midi": 67,
                    "time": 154.0967770000005,
                    "velocity": 0.36220472440944884,
                    "duration": 0.0996744999999919
                },
                {
                    "name": "A4",
                    "midi": 69,
                    "time": 154.19645150000048,
                    "velocity": 0.3858267716535433,
                    "duration": 0.0996744999999919
                },
                {
                    "name": "B4",
                    "midi": 71,
                    "time": 154.29612600000047,
                    "velocity": 0.4094488188976378,
                    "duration": 0.1993490000000122
                },
                {
                    "name": "E4",
                    "midi": 64,
                    "time": 154.49547500000048,
                    "velocity": 0.3779527559055118,
                    "duration": 0.0996744999999919
                },
                {
                    "name": "E4",
                    "midi": 64,
                    "time": 154.69482400000047,
                    "velocity": 0.3779527559055118,
                    "duration": 0.0996744999999919
                },
                {
                    "name": "F#4",
                    "midi": 66,
                    "time": 154.89417300000045,
                    "velocity": 0.3779527559055118,
                    "duration": 0.04983724999999595
                },
                {
                    "name": "G4",
                    "midi": 67,
                    "time": 154.94401025000045,
                    "velocity": 0.3779527559055118,
                    "duration": 0.04983724999999595
                },
                {
                    "name": "F#4",
                    "midi": 66,
                    "time": 154.99384750000044,
                    "velocity": 0.4094488188976378,
                    "duration": 0.0996744999999919
                },
                {
                    "name": "E4",
                    "midi": 64,
                    "time": 155.09352200000043,
                    "velocity": 0.4094488188976378,
                    "duration": 0.0996744999999919
                },
                {
                    "name": "E4",
                    "midi": 64,
                    "time": 155.29287100000042,
                    "velocity": 0.3779527559055118,
                    "duration": 0.0996744999999919
                },
                {
                    "name": "E4",
                    "midi": 64,
                    "time": 155.4922200000004,
                    "velocity": 0.3779527559055118,
                    "duration": 0.04983724999999595
                },
                {
                    "name": "F#4",
                    "midi": 66,
                    "time": 155.5420572500004,
                    "velocity": 0.3779527559055118,
                    "duration": 0.04983724999999595
                },
                {
                    "name": "E4",
                    "midi": 64,
                    "time": 155.5918945000004,
                    "velocity": 0.4409448818897638,
                    "duration": 0.0996744999999919
                },
                {
                    "name": "D4",
                    "midi": 62,
                    "time": 155.69156900000038,
                    "velocity": 0.3779527559055118,
                    "duration": 0.0996744999999919
                },
                {
                    "name": "D4",
                    "midi": 62,
                    "time": 155.89091800000037,
                    "velocity": 0.4094488188976378,
                    "duration": 0.0996744999999919
                },
                {
                    "name": "D4",
                    "midi": 62,
                    "time": 156.09026700000035,
                    "velocity": 0.4094488188976378,
                    "duration": 0.398697999999996
                },
                {
                    "name": "E4",
                    "midi": 64,
                    "time": 156.48896500000035,
                    "velocity": 0.3700787401574803,
                    "duration": 0.0996744999999919
                },
                {
                    "name": "F#4",
                    "midi": 66,
                    "time": 156.58863950000034,
                    "velocity": 0.3937007874015748,
                    "duration": 0.0996744999999919
                },
                {
                    "name": "G4",
                    "midi": 67,
                    "time": 156.68831400000033,
                    "velocity": 0.41732283464566927,
                    "duration": 0.1993490000000122
                },
                {
                    "name": "G3",
                    "midi": 55,
                    "time": 156.88766300000034,
                    "velocity": 0.3937007874015748,
                    "duration": 0.0996744999999919
                },
                {
                    "name": "G3",
                    "midi": 55,
                    "time": 157.08701200000033,
                    "velocity": 0.3937007874015748,
                    "duration": 0.0996744999999919
                },
                {
                    "name": "G3",
                    "midi": 55,
                    "time": 157.2863610000003,
                    "velocity": 0.3858267716535433,
                    "duration": 0.398697999999996
                },
                {
                    "name": "A3",
                    "midi": 57,
                    "time": 157.6850590000003,
                    "velocity": 0.3700787401574803,
                    "duration": 0.0996744999999919
                },
                {
                    "name": "B3",
                    "midi": 59,
                    "time": 157.7847335000003,
                    "velocity": 0.3937007874015748,
                    "duration": 0.0996744999999919
                },
                {
                    "name": "C#4",
                    "midi": 61,
                    "time": 157.8844080000003,
                    "velocity": 0.41732283464566927,
                    "duration": 0.1993490000000122
                },
                {
                    "name": "F#3",
                    "midi": 54,
                    "time": 158.0837570000003,
                    "velocity": 0.3700787401574803,
                    "duration": 0.0996744999999919
                },
                {
                    "name": "F#3",
                    "midi": 54,
                    "time": 158.2831060000003,
                    "velocity": 0.3700787401574803,
                    "duration": 0.0996744999999919
                },
                {
                    "name": "F#3",
                    "midi": 54,
                    "time": 158.48245500000027,
                    "velocity": 0.3858267716535433,
                    "duration": 0.398697999999996
                },
                {
                    "name": "G#3",
                    "midi": 56,
                    "time": 158.88115300000027,
                    "velocity": 0.3700787401574803,
                    "duration": 0.0996744999999919
                },
                {
                    "name": "A#3",
                    "midi": 58,
                    "time": 158.98082750000026,
                    "velocity": 0.3937007874015748,
                    "duration": 0.0996744999999919
                },
                {
                    "name": "B3",
                    "midi": 59,
                    "time": 159.08050200000025,
                    "velocity": 0.4566929133858268,
                    "duration": 0.1993490000000122
                },
                {
                    "name": "F#3",
                    "midi": 54,
                    "time": 159.27985100000026,
                    "velocity": 0.3858267716535433,
                    "duration": 0.1993490000000122
                },
                {
                    "name": "G3",
                    "midi": 55,
                    "time": 159.47920000000028,
                    "velocity": 0.3858267716535433,
                    "duration": 0.0996744999999919
                },
                {
                    "name": "E3",
                    "midi": 52,
                    "time": 159.67854900000026,
                    "velocity": 0.41732283464566927,
                    "duration": 0.0996744999999919
                },
                {
                    "name": "C#3",
                    "midi": 49,
                    "time": 159.87789800000024,
                    "velocity": 0.3858267716535433,
                    "duration": 0.0996744999999919
                },
                {
                    "name": "F#4",
                    "midi": 66,
                    "time": 160.07724700000023,
                    "velocity": 0.3858267716535433,
                    "duration": 0.0996744999999919
                },
                {
                    "name": "D#4",
                    "midi": 63,
                    "time": 160.2765960000002,
                    "velocity": 0.41732283464566927,
                    "duration": 0.1993490000000122
                },
                {
                    "name": "B3",
                    "midi": 59,
                    "time": 160.47594500000022,
                    "velocity": 0.3858267716535433,
                    "duration": 0.1993490000000122
                },
                {
                    "name": "E4",
                    "midi": 64,
                    "time": 160.67529400000024,
                    "velocity": 0.3858267716535433,
                    "duration": 0.0996744999999919
                },
                {
                    "name": "C#4",
                    "midi": 61,
                    "time": 160.87464300000022,
                    "velocity": 0.41732283464566927,
                    "duration": 0.0996744999999919
                },
                {
                    "name": "A3",
                    "midi": 57,
                    "time": 161.0739920000002,
                    "velocity": 0.3858267716535433,
                    "duration": 0.0996744999999919
                },
                {
                    "name": "D3",
                    "midi": 50,
                    "time": 161.2733410000002,
                    "velocity": 0.3858267716535433,
                    "duration": 0.0996744999999919
                },
                {
                    "name": "B2",
                    "midi": 47,
                    "time": 161.47269000000017,
                    "velocity": 0.4251968503937008,
                    "duration": 0.1993490000000122
                },
                {
                    "name": "G2",
                    "midi": 43,
                    "time": 161.67203900000018,
                    "velocity": 0.3937007874015748,
                    "duration": 0.0996744999999919
                },
                {
                    "name": "C#3",
                    "midi": 49,
                    "time": 161.87138800000017,
                    "velocity": 0.3937007874015748,
                    "duration": 0.0996744999999919
                },
                {
                    "name": "A#2",
                    "midi": 46,
                    "time": 162.07073700000015,
                    "velocity": 0.41732283464566927,
                    "duration": 0.0996744999999919
                },
                {
                    "name": "F#2",
                    "midi": 42,
                    "time": 162.27008600000013,
                    "velocity": 0.3858267716535433,
                    "duration": 0.0996744999999919
                },
                {
                    "name": "B3",
                    "midi": 59,
                    "time": 162.46943500000012,
                    "velocity": 0.3858267716535433,
                    "duration": 0.0996744999999919
                },
                {
                    "name": "G#3",
                    "midi": 56,
                    "time": 162.6687840000001,
                    "velocity": 0.41732283464566927,
                    "duration": 0.1993490000000122
                },
                {
                    "name": "E3",
                    "midi": 52,
                    "time": 162.8681330000001,
                    "velocity": 0.3858267716535433,
                    "duration": 0.0996744999999919
                },
                {
                    "name": "A3",
                    "midi": 57,
                    "time": 163.0674820000001,
                    "velocity": 0.3858267716535433,
                    "duration": 0.0996744999999919
                },
                {
                    "name": "F#3",
                    "midi": 54,
                    "time": 163.26683100000008,
                    "velocity": 0.41732283464566927,
                    "duration": 0.1993490000000122
                },
                {
                    "name": "D3",
                    "midi": 50,
                    "time": 163.4661800000001,
                    "velocity": 0.3937007874015748,
                    "duration": 0.0996744999999919
                },
                {
                    "name": "G3",
                    "midi": 55,
                    "time": 163.66552900000008,
                    "velocity": 0.3937007874015748,
                    "duration": 0.0996744999999919
                },
                {
                    "name": "C2",
                    "midi": 36,
                    "time": 163.86487800000006,
                    "velocity": 0.4645669291338583,
                    "duration": 1.196093999999988
                },
                {
                    "name": "C3",
                    "midi": 48,
                    "time": 163.86487800000006,
                    "velocity": 0.4645669291338583,
                    "duration": 1.196093999999988
                },
                {
                    "name": "D3",
                    "midi": 50,
                    "time": 165.26032100000006,
                    "velocity": 0.3700787401574803,
                    "duration": 0.0996744999999919
                },
                {
                    "name": "D3",
                    "midi": 50,
                    "time": 165.45967000000005,
                    "velocity": 0.3700787401574803,
                    "duration": 0.0996744999999919
                },
                {
                    "name": "D3",
                    "midi": 50,
                    "time": 165.65901900000003,
                    "velocity": 0.41732283464566927,
                    "duration": 0.0996744999999919
                },
                {
                    "name": "E3",
                    "midi": 52,
                    "time": 165.75869350000002,
                    "velocity": 0.3700787401574803,
                    "duration": 0.0996744999999919
                },
                {
                    "name": "D3",
                    "midi": 50,
                    "time": 165.858368,
                    "velocity": 0.41732283464566927,
                    "duration": 0.0996744999999919
                },
                {
                    "name": "C3",
                    "midi": 48,
                    "time": 165.9580425,
                    "velocity": 0.4015748031496063,
                    "duration": 0.0996744999999919
                },
                {
                    "name": "B2",
                    "midi": 47,
                    "time": 166.057717,
                    "velocity": 0.3937007874015748,
                    "duration": 0.0996744999999919
                },
                {
                    "name": "A2",
                    "midi": 45,
                    "time": 166.1573915,
                    "velocity": 0.3779527559055118,
                    "duration": 0.0996744999999919
                },
                {
                    "name": "G2",
                    "midi": 43,
                    "time": 166.25706599999998,
                    "velocity": 0.3700787401574803,
                    "duration": 0.1993490000000122
                },
                {
                    "name": "C4",
                    "midi": 60,
                    "time": 167.65250899999998,
                    "velocity": 0.1968503937007874,
                    "duration": 0.0996744999999919
                },
                {
                    "name": "A3",
                    "midi": 57,
                    "time": 167.65250899999998,
                    "velocity": 0.1968503937007874,
                    "duration": 0.0996744999999919
                },
                {
                    "name": "D4",
                    "midi": 62,
                    "time": 167.65250899999998,
                    "velocity": 0.23622047244094488,
                    "duration": 0.0996744999999919
                },
                {
                    "name": "A3",
                    "midi": 57,
                    "time": 167.85185799999996,
                    "velocity": 0.1968503937007874,
                    "duration": 0.0996744999999919
                },
                {
                    "name": "D4",
                    "midi": 62,
                    "time": 167.85185799999996,
                    "velocity": 0.23622047244094488,
                    "duration": 0.0996744999999919
                },
                {
                    "name": "C4",
                    "midi": 60,
                    "time": 167.85185799999996,
                    "velocity": 0.1968503937007874,
                    "duration": 0.0996744999999919
                },
                {
                    "name": "A3",
                    "midi": 57,
                    "time": 168.05120699999995,
                    "velocity": 0.2204724409448819,
                    "duration": 0.0996744999999919
                },
                {
                    "name": "C4",
                    "midi": 60,
                    "time": 168.05120699999995,
                    "velocity": 0.2204724409448819,
                    "duration": 0.0996744999999919
                },
                {
                    "name": "D4",
                    "midi": 62,
                    "time": 168.05120699999995,
                    "velocity": 0.2677165354330709,
                    "duration": 0.0996744999999919
                },
                {
                    "name": "A3",
                    "midi": 57,
                    "time": 168.25055599999993,
                    "velocity": 0.1968503937007874,
                    "duration": 0.0996744999999919
                },
                {
                    "name": "C4",
                    "midi": 60,
                    "time": 168.25055599999993,
                    "velocity": 0.1968503937007874,
                    "duration": 0.0996744999999919
                },
                {
                    "name": "D4",
                    "midi": 62,
                    "time": 168.25055599999993,
                    "velocity": 0.23622047244094488,
                    "duration": 0.0996744999999919
                },
                {
                    "name": "D4",
                    "midi": 62,
                    "time": 168.44990499999992,
                    "velocity": 0.2283464566929134,
                    "duration": 0.0996744999999919
                },
                {
                    "name": "A3",
                    "midi": 57,
                    "time": 168.44990499999992,
                    "velocity": 0.1968503937007874,
                    "duration": 0.0996744999999919
                },
                {
                    "name": "C4",
                    "midi": 60,
                    "time": 168.44990499999992,
                    "velocity": 0.1968503937007874,
                    "duration": 0.0996744999999919
                },
                {
                    "name": "B3",
                    "midi": 59,
                    "time": 168.6492539999999,
                    "velocity": 0.2677165354330709,
                    "duration": 0.1993490000000122
                },
                {
                    "name": "D4",
                    "midi": 62,
                    "time": 168.6492539999999,
                    "velocity": 0.3228346456692913,
                    "duration": 0.1993490000000122
                },
                {
                    "name": "D4",
                    "midi": 62,
                    "time": 170.0446969999999,
                    "velocity": 0.25984251968503935,
                    "duration": 0.0996744999999919
                },
                {
                    "name": "F#3",
                    "midi": 54,
                    "time": 170.0446969999999,
                    "velocity": 0.2204724409448819,
                    "duration": 0.0996744999999919
                },
                {
                    "name": "A3",
                    "midi": 57,
                    "time": 170.0446969999999,
                    "velocity": 0.2204724409448819,
                    "duration": 0.0996744999999919
                },
                {
                    "name": "F#3",
                    "midi": 54,
                    "time": 170.24404599999988,
                    "velocity": 0.2125984251968504,
                    "duration": 0.0996744999999919
                },
                {
                    "name": "A3",
                    "midi": 57,
                    "time": 170.24404599999988,
                    "velocity": 0.2125984251968504,
                    "duration": 0.0996744999999919
                },
                {
                    "name": "D4",
                    "midi": 62,
                    "time": 170.24404599999988,
                    "velocity": 0.25196850393700787,
                    "duration": 0.0996744999999919
                },
                {
                    "name": "A3",
                    "midi": 57,
                    "time": 170.44339499999987,
                    "velocity": 0.23622047244094488,
                    "duration": 0.0996744999999919
                },
                {
                    "name": "D4",
                    "midi": 62,
                    "time": 170.44339499999987,
                    "velocity": 0.28346456692913385,
                    "duration": 0.0996744999999919
                },
                {
                    "name": "F#3",
                    "midi": 54,
                    "time": 170.44339499999987,
                    "velocity": 0.23622047244094488,
                    "duration": 0.0996744999999919
                },
                {
                    "name": "A3",
                    "midi": 57,
                    "time": 170.64274399999985,
                    "velocity": 0.2047244094488189,
                    "duration": 0.0996744999999919
                },
                {
                    "name": "D4",
                    "midi": 62,
                    "time": 170.64274399999985,
                    "velocity": 0.2440944881889764,
                    "duration": 0.0996744999999919
                },
                {
                    "name": "F#3",
                    "midi": 54,
                    "time": 170.64274399999985,
                    "velocity": 0.2047244094488189,
                    "duration": 0.0996744999999919
                },
                {
                    "name": "D4",
                    "midi": 62,
                    "time": 170.84209299999984,
                    "velocity": 0.2440944881889764,
                    "duration": 0.0996744999999919
                },
                {
                    "name": "A3",
                    "midi": 57,
                    "time": 170.84209299999984,
                    "velocity": 0.1968503937007874,
                    "duration": 0.0996744999999919
                },
                {
                    "name": "F#3",
                    "midi": 54,
                    "time": 170.84209299999984,
                    "velocity": 0.1968503937007874,
                    "duration": 0.0996744999999919
                },
                {
                    "name": "D4",
                    "midi": 62,
                    "time": 171.04144199999982,
                    "velocity": 0.33070866141732286,
                    "duration": 0.0996744999999919
                },
                {
                    "name": "G3",
                    "midi": 55,
                    "time": 171.04144199999982,
                    "velocity": 0.2755905511811024,
                    "duration": 0.0996744999999919
                },
                {
                    "name": "B3",
                    "midi": 59,
                    "time": 171.6394889999998,
                    "velocity": 0.2755905511811024,
                    "duration": 0.0996744999999919
                },
                {
                    "name": "D4",
                    "midi": 62,
                    "time": 171.6394889999998,
                    "velocity": 0.33070866141732286,
                    "duration": 0.0996744999999919
                },
                {
                    "name": "G4",
                    "midi": 67,
                    "time": 172.23753599999978,
                    "velocity": 0.33070866141732286,
                    "duration": 0.0996744999999919
                },
                {
                    "name": "C4",
                    "midi": 60,
                    "time": 172.23753599999978,
                    "velocity": 0.2755905511811024,
                    "duration": 0.0996744999999919
                },
                {
                    "name": "G4",
                    "midi": 67,
                    "time": 172.83558299999976,
                    "velocity": 0.33070866141732286,
                    "duration": 0.0996744999999919
                },
                {
                    "name": "E4",
                    "midi": 64,
                    "time": 172.83558299999976,
                    "velocity": 0.2755905511811024,
                    "duration": 0.0996744999999919
                },
                {
                    "name": "D4",
                    "midi": 62,
                    "time": 173.43362999999974,
                    "velocity": 0.2992125984251969,
                    "duration": 0.1993490000000122
                },
                {
                    "name": "C#4",
                    "midi": 61,
                    "time": 173.63297899999975,
                    "velocity": 0.31496062992125984,
                    "duration": 0.1993490000000122
                },
                {
                    "name": "C4",
                    "midi": 60,
                    "time": 173.83232799999976,
                    "velocity": 0.33070866141732286,
                    "duration": 0.1993490000000122
                },
                {
                    "name": "B3",
                    "midi": 59,
                    "time": 174.03167699999977,
                    "velocity": 0.3464566929133858,
                    "duration": 0.1993490000000122
                },
                {
                    "name": "C4",
                    "midi": 60,
                    "time": 174.2310259999998,
                    "velocity": 0.33858267716535434,
                    "duration": 0.1993490000000122
                },
                {
                    "name": "E4",
                    "midi": 64,
                    "time": 174.4303749999998,
                    "velocity": 0.30708661417322836,
                    "duration": 0.1993490000000122
                },
                {
                    "name": "D4",
                    "midi": 62,
                    "time": 174.82907299999982,
                    "velocity": 0.3228346456692913,
                    "duration": 0.0996744999999919
                },
                {
                    "name": "D4",
                    "midi": 62,
                    "time": 175.0284219999998,
                    "velocity": 0.3228346456692913,
                    "duration": 0.0996744999999919
                },
                {
                    "name": "D4",
                    "midi": 62,
                    "time": 175.2277709999998,
                    "velocity": 0.2992125984251969,
                    "duration": 0.0996744999999919
                },
                {
                    "name": "E4",
                    "midi": 64,
                    "time": 175.32744549999978,
                    "velocity": 0.31496062992125984,
                    "duration": 0.0996744999999919
                },
                {
                    "name": "D4",
                    "midi": 62,
                    "time": 175.42711999999977,
                    "velocity": 0.33070866141732286,
                    "duration": 0.0996744999999919
                },
                {
                    "name": "C4",
                    "midi": 60,
                    "time": 175.52679449999977,
                    "velocity": 0.3464566929133858,
                    "duration": 0.0996744999999919
                },
                {
                    "name": "B3",
                    "midi": 59,
                    "time": 175.62646899999976,
                    "velocity": 0.33070866141732286,
                    "duration": 0.0996744999999919
                },
                {
                    "name": "A3",
                    "midi": 57,
                    "time": 175.72614349999975,
                    "velocity": 0.31496062992125984,
                    "duration": 0.0996744999999919
                },
                {
                    "name": "G3",
                    "midi": 55,
                    "time": 175.82581799999974,
                    "velocity": 0.3700787401574803,
                    "duration": 0.1993490000000122
                },
                {
                    "name": "C4",
                    "midi": 60,
                    "time": 177.22126099999974,
                    "velocity": 0.1968503937007874,
                    "duration": 0.0996744999999919
                },
                {
                    "name": "A3",
                    "midi": 57,
                    "time": 177.22126099999974,
                    "velocity": 0.1968503937007874,
                    "duration": 0.0996744999999919
                },
                {
                    "name": "D4",
                    "midi": 62,
                    "time": 177.22126099999974,
                    "velocity": 0.23622047244094488,
                    "duration": 0.0996744999999919
                },
                {
                    "name": "D4",
                    "midi": 62,
                    "time": 177.42060999999973,
                    "velocity": 0.23622047244094488,
                    "duration": 0.0996744999999919
                },
                {
                    "name": "C4",
                    "midi": 60,
                    "time": 177.42060999999973,
                    "velocity": 0.1968503937007874,
                    "duration": 0.0996744999999919
                },
                {
                    "name": "A3",
                    "midi": 57,
                    "time": 177.42060999999973,
                    "velocity": 0.1968503937007874,
                    "duration": 0.0996744999999919
                },
                {
                    "name": "C4",
                    "midi": 60,
                    "time": 177.6199589999997,
                    "velocity": 0.2204724409448819,
                    "duration": 0.0996744999999919
                },
                {
                    "name": "A3",
                    "midi": 57,
                    "time": 177.6199589999997,
                    "velocity": 0.2204724409448819,
                    "duration": 0.0996744999999919
                },
                {
                    "name": "D4",
                    "midi": 62,
                    "time": 177.6199589999997,
                    "velocity": 0.2677165354330709,
                    "duration": 0.0996744999999919
                },
                {
                    "name": "D4",
                    "midi": 62,
                    "time": 177.8193079999997,
                    "velocity": 0.23622047244094488,
                    "duration": 0.0996744999999919
                },
                {
                    "name": "C4",
                    "midi": 60,
                    "time": 177.8193079999997,
                    "velocity": 0.1968503937007874,
                    "duration": 0.0996744999999919
                },
                {
                    "name": "A3",
                    "midi": 57,
                    "time": 177.8193079999997,
                    "velocity": 0.1968503937007874,
                    "duration": 0.0996744999999919
                },
                {
                    "name": "D4",
                    "midi": 62,
                    "time": 178.01865699999968,
                    "velocity": 0.2283464566929134,
                    "duration": 0.0996744999999919
                },
                {
                    "name": "C4",
                    "midi": 60,
                    "time": 178.01865699999968,
                    "velocity": 0.1968503937007874,
                    "duration": 0.0996744999999919
                },
                {
                    "name": "A3",
                    "midi": 57,
                    "time": 178.01865699999968,
                    "velocity": 0.1968503937007874,
                    "duration": 0.0996744999999919
                },
                {
                    "name": "B3",
                    "midi": 59,
                    "time": 178.21800599999966,
                    "velocity": 0.2677165354330709,
                    "duration": 0.1993490000000122
                },
                {
                    "name": "D4",
                    "midi": 62,
                    "time": 178.21800599999966,
                    "velocity": 0.3228346456692913,
                    "duration": 0.1993490000000122
                },
                {
                    "name": "F#3",
                    "midi": 54,
                    "time": 179.61344899999966,
                    "velocity": 0.2204724409448819,
                    "duration": 0.0996744999999919
                },
                {
                    "name": "A3",
                    "midi": 57,
                    "time": 179.61344899999966,
                    "velocity": 0.2204724409448819,
                    "duration": 0.0996744999999919
                },
                {
                    "name": "D4",
                    "midi": 62,
                    "time": 179.61344899999966,
                    "velocity": 0.25984251968503935,
                    "duration": 0.0996744999999919
                },
                {
                    "name": "F#3",
                    "midi": 54,
                    "time": 179.81279799999965,
                    "velocity": 0.2125984251968504,
                    "duration": 0.0996744999999919
                },
                {
                    "name": "A3",
                    "midi": 57,
                    "time": 179.81279799999965,
                    "velocity": 0.2125984251968504,
                    "duration": 0.0996744999999919
                },
                {
                    "name": "D4",
                    "midi": 62,
                    "time": 179.81279799999965,
                    "velocity": 0.25196850393700787,
                    "duration": 0.0996744999999919
                },
                {
                    "name": "D4",
                    "midi": 62,
                    "time": 180.01214699999963,
                    "velocity": 0.28346456692913385,
                    "duration": 0.0996744999999919
                },
                {
                    "name": "A3",
                    "midi": 57,
                    "time": 180.01214699999963,
                    "velocity": 0.23622047244094488,
                    "duration": 0.0996744999999919
                },
                {
                    "name": "F#3",
                    "midi": 54,
                    "time": 180.01214699999963,
                    "velocity": 0.23622047244094488,
                    "duration": 0.0996744999999919
                },
                {
                    "name": "D4",
                    "midi": 62,
                    "time": 180.2114959999996,
                    "velocity": 0.2440944881889764,
                    "duration": 0.0996744999999919
                },
                {
                    "name": "A3",
                    "midi": 57,
                    "time": 180.2114959999996,
                    "velocity": 0.2047244094488189,
                    "duration": 0.0996744999999919
                },
                {
                    "name": "F#3",
                    "midi": 54,
                    "time": 180.2114959999996,
                    "velocity": 0.2047244094488189,
                    "duration": 0.0996744999999919
                },
                {
                    "name": "D4",
                    "midi": 62,
                    "time": 180.4108449999996,
                    "velocity": 0.2440944881889764,
                    "duration": 0.0996744999999919
                },
                {
                    "name": "F#3",
                    "midi": 54,
                    "time": 180.4108449999996,
                    "velocity": 0.1968503937007874,
                    "duration": 0.0996744999999919
                },
                {
                    "name": "A3",
                    "midi": 57,
                    "time": 180.4108449999996,
                    "velocity": 0.1968503937007874,
                    "duration": 0.0996744999999919
                },
                {
                    "name": "G3",
                    "midi": 55,
                    "time": 180.61019399999958,
                    "velocity": 0.2755905511811024,
                    "duration": 0.0996744999999919
                },
                {
                    "name": "D4",
                    "midi": 62,
                    "time": 180.61019399999958,
                    "velocity": 0.33070866141732286,
                    "duration": 0.0996744999999919
                },
                {
                    "name": "B3",
                    "midi": 59,
                    "time": 181.20824099999956,
                    "velocity": 0.2755905511811024,
                    "duration": 0.0996744999999919
                },
                {
                    "name": "D4",
                    "midi": 62,
                    "time": 181.20824099999956,
                    "velocity": 0.33070866141732286,
                    "duration": 0.0996744999999919
                },
                {
                    "name": "C4",
                    "midi": 60,
                    "time": 181.80628799999954,
                    "velocity": 0.2755905511811024,
                    "duration": 0.0996744999999919
                },
                {
                    "name": "G4",
                    "midi": 67,
                    "time": 181.80628799999954,
                    "velocity": 0.33070866141732286,
                    "duration": 0.0996744999999919
                },
                {
                    "name": "E4",
                    "midi": 64,
                    "time": 182.40433499999952,
                    "velocity": 0.2755905511811024,
                    "duration": 0.0996744999999919
                },
                {
                    "name": "G4",
                    "midi": 67,
                    "time": 182.40433499999952,
                    "velocity": 0.33070866141732286,
                    "duration": 0.0996744999999919
                },
                {
                    "name": "D3",
                    "midi": 50,
                    "time": 183.0023819999995,
                    "velocity": 0.2992125984251969,
                    "duration": 1.196093999999988
                },
                {
                    "name": "D4",
                    "midi": 62,
                    "time": 183.0023819999995,
                    "velocity": 0.2992125984251969,
                    "duration": 1.196093999999988
                },
                {
                    "name": "G3",
                    "midi": 55,
                    "time": 184.1984759999995,
                    "velocity": 0.36220472440944884,
                    "duration": 0.0996744999999919
                },
                {
                    "name": "B2",
                    "midi": 47,
                    "time": 184.59717399999948,
                    "velocity": 0.3543307086614173,
                    "duration": 0.0996744999999919
                },
                {
                    "name": "D3",
                    "midi": 50,
                    "time": 184.69684849999948,
                    "velocity": 0.3543307086614173,
                    "duration": 0.0996744999999919
                },
                {
                    "name": "G3",
                    "midi": 55,
                    "time": 184.79652299999947,
                    "velocity": 0.4094488188976378,
                    "duration": 0.0996744999999919
                },
                {
                    "name": "D3",
                    "midi": 50,
                    "time": 185.19522099999946,
                    "velocity": 0.3779527559055118,
                    "duration": 0.0996744999999919
                },
                {
                    "name": "G3",
                    "midi": 55,
                    "time": 185.29489549999946,
                    "velocity": 0.3779527559055118,
                    "duration": 0.0996744999999919
                },
                {
                    "name": "B3",
                    "midi": 59,
                    "time": 185.39456999999945,
                    "velocity": 0.44881889763779526,
                    "duration": 0.0996744999999919
                },
                {
                    "name": "G3",
                    "midi": 55,
                    "time": 185.79326799999944,
                    "velocity": 0.4015748031496063,
                    "duration": 0.0996744999999919
                },
                {
                    "name": "B3",
                    "midi": 59,
                    "time": 185.89294249999944,
                    "velocity": 0.4015748031496063,
                    "duration": 0.0996744999999919
                },
                {
                    "name": "D4",
                    "midi": 62,
                    "time": 185.99261699999943,
                    "velocity": 0.44881889763779526,
                    "duration": 0.0996744999999919
                },
                {
                    "name": "B3",
                    "midi": 59,
                    "time": 186.39131499999942,
                    "velocity": 0.3779527559055118,
                    "duration": 0.0996744999999919
                },
                {
                    "name": "D4",
                    "midi": 62,
                    "time": 186.49098949999942,
                    "velocity": 0.3779527559055118,
                    "duration": 0.0996744999999919
                },
                {
                    "name": "G4",
                    "midi": 67,
                    "time": 186.5906639999994,
                    "velocity": 0.44881889763779526,
                    "duration": 0.0996744999999919
                },
                {
                    "name": "F#4",
                    "midi": 66,
                    "time": 188.3848049999994,
                    "velocity": 0.2125984251968504,
                    "duration": 0.5980470000000082
                },
                {
                    "name": "A4",
                    "midi": 69,
                    "time": 188.3848049999994,
                    "velocity": 0.25196850393700787,
                    "duration": 0.5980470000000082
                },
                {
                    "name": "B3",
                    "midi": 59,
                    "time": 188.3848049999994,
                    "velocity": 0.2283464566929134,
                    "duration": 0.5980470000000082
                },
                {
                    "name": "G4",
                    "midi": 67,
                    "time": 188.9828519999994,
                    "velocity": 0.2755905511811024,
                    "duration": 0.1993490000000122
                },
                {
                    "name": "E4",
                    "midi": 64,
                    "time": 188.9828519999994,
                    "velocity": 0.2283464566929134,
                    "duration": 0.1993490000000122
                },
                {
                    "name": "A4",
                    "midi": 69,
                    "time": 190.77699299999944,
                    "velocity": 0.25196850393700787,
                    "duration": 0.5980470000000082
                },
                {
                    "name": "F#4",
                    "midi": 66,
                    "time": 190.77699299999944,
                    "velocity": 0.2125984251968504,
                    "duration": 0.5980470000000082
                },
                {
                    "name": "B3",
                    "midi": 59,
                    "time": 190.77699299999944,
                    "velocity": 0.2283464566929134,
                    "duration": 0.5980470000000082
                },
                {
                    "name": "E4",
                    "midi": 64,
                    "time": 191.37503999999944,
                    "velocity": 0.2283464566929134,
                    "duration": 0.1993490000000122
                },
                {
                    "name": "G4",
                    "midi": 67,
                    "time": 191.37503999999944,
                    "velocity": 0.2755905511811024,
                    "duration": 0.1993490000000122
                },
                {
                    "name": "A3",
                    "midi": 57,
                    "time": 193.16918099999947,
                    "velocity": 0.2283464566929134,
                    "duration": 0.5980470000000082
                },
                {
                    "name": "E4",
                    "midi": 64,
                    "time": 193.16918099999947,
                    "velocity": 0.2125984251968504,
                    "duration": 0.5980470000000082
                },
                {
                    "name": "G4",
                    "midi": 67,
                    "time": 193.16918099999947,
                    "velocity": 0.25196850393700787,
                    "duration": 0.5980470000000082
                },
                {
                    "name": "F#4",
                    "midi": 66,
                    "time": 193.76722799999948,
                    "velocity": 0.2755905511811024,
                    "duration": 0.1993490000000122
                },
                {
                    "name": "D4",
                    "midi": 62,
                    "time": 193.76722799999948,
                    "velocity": 0.2283464566929134,
                    "duration": 0.1993490000000122
                },
                {
                    "name": "E4",
                    "midi": 64,
                    "time": 195.5613689999995,
                    "velocity": 0.2125984251968504,
                    "duration": 0.5980470000000082
                },
                {
                    "name": "A3",
                    "midi": 57,
                    "time": 195.5613689999995,
                    "velocity": 0.2283464566929134,
                    "duration": 0.5980470000000082
                },
                {
                    "name": "G4",
                    "midi": 67,
                    "time": 195.5613689999995,
                    "velocity": 0.25196850393700787,
                    "duration": 0.5980470000000082
                },
                {
                    "name": "D4",
                    "midi": 62,
                    "time": 196.1594159999995,
                    "velocity": 0.2283464566929134,
                    "duration": 0.1993490000000122
                },
                {
                    "name": "F#4",
                    "midi": 66,
                    "time": 196.1594159999995,
                    "velocity": 0.2755905511811024,
                    "duration": 0.1993490000000122
                },
                {
                    "name": "B3",
                    "midi": 59,
                    "time": 197.95355699999953,
                    "velocity": 0.2125984251968504,
                    "duration": 0.5980470000000082
                },
                {
                    "name": "E3",
                    "midi": 52,
                    "time": 197.95355699999953,
                    "velocity": 0.2283464566929134,
                    "duration": 0.5980470000000082
                },
                {
                    "name": "D4",
                    "midi": 62,
                    "time": 197.95355699999953,
                    "velocity": 0.25196850393700787,
                    "duration": 0.5980470000000082
                },
                {
                    "name": "A3",
                    "midi": 57,
                    "time": 198.55160399999954,
                    "velocity": 0.2283464566929134,
                    "duration": 0.1993490000000122
                },
                {
                    "name": "C#4",
                    "midi": 61,
                    "time": 198.55160399999954,
                    "velocity": 0.2755905511811024,
                    "duration": 0.1993490000000122
                },
                {
                    "name": "D4",
                    "midi": 62,
                    "time": 200.34574499999957,
                    "velocity": 0.25196850393700787,
                    "duration": 0.5980470000000082
                },
                {
                    "name": "E3",
                    "midi": 52,
                    "time": 200.34574499999957,
                    "velocity": 0.2283464566929134,
                    "duration": 0.5980470000000082
                },
                {
                    "name": "B3",
                    "midi": 59,
                    "time": 200.34574499999957,
                    "velocity": 0.2125984251968504,
                    "duration": 0.5980470000000082
                },
                {
                    "name": "A3",
                    "midi": 57,
                    "time": 200.94379199999958,
                    "velocity": 0.23622047244094488,
                    "duration": 0.18938155000000734
                },
                {
                    "name": "A2",
                    "midi": 45,
                    "time": 200.94379199999958,
                    "velocity": 0.1968503937007874,
                    "duration": 0.18938155000000734
                },
                {
                    "name": "A2",
                    "midi": 45,
                    "time": 201.1431409999996,
                    "velocity": 0.15748031496062992,
                    "duration": 0.18938155000000734
                },
                {
                    "name": "A3",
                    "midi": 57,
                    "time": 201.1431409999996,
                    "velocity": 0.1889763779527559,
                    "duration": 0.18938155000000734
                },
                {
                    "name": "A2",
                    "midi": 45,
                    "time": 201.3424899999996,
                    "velocity": 0.15748031496062992,
                    "duration": 0.18938155000000734
                },
                {
                    "name": "A3",
                    "midi": 57,
                    "time": 201.3424899999996,
                    "velocity": 0.1889763779527559,
                    "duration": 0.18938155000000734
                },
                {
                    "name": "A2",
                    "midi": 45,
                    "time": 201.5418389999996,
                    "velocity": 0.1968503937007874,
                    "duration": 0.18938155000000734
                },
                {
                    "name": "A3",
                    "midi": 57,
                    "time": 201.5418389999996,
                    "velocity": 0.23622047244094488,
                    "duration": 0.18938155000000734
                },
                {
                    "name": "A3",
                    "midi": 57,
                    "time": 201.74118799999962,
                    "velocity": 0.18110236220472442,
                    "duration": 0.18938155000000734
                },
                {
                    "name": "A2",
                    "midi": 45,
                    "time": 201.74118799999962,
                    "velocity": 0.14960629921259844,
                    "duration": 0.18938155000000734
                },
                {
                    "name": "A3",
                    "midi": 57,
                    "time": 201.94053699999964,
                    "velocity": 0.18110236220472442,
                    "duration": 0.18938155000000734
                },
                {
                    "name": "A2",
                    "midi": 45,
                    "time": 201.94053699999964,
                    "velocity": 0.14960629921259844,
                    "duration": 0.18938155000000734
                },
                {
                    "name": "G#3",
                    "midi": 56,
                    "time": 202.13988599999965,
                    "velocity": 0.25196850393700787,
                    "duration": 0.18938155000000734
                },
                {
                    "name": "A2",
                    "midi": 45,
                    "time": 202.13988599999965,
                    "velocity": 0.2125984251968504,
                    "duration": 0.18938155000000734
                },
                {
                    "name": "G#3",
                    "midi": 56,
                    "time": 202.33923499999966,
                    "velocity": 0.2125984251968504,
                    "duration": 0.18938155000000734
                },
                {
                    "name": "A2",
                    "midi": 45,
                    "time": 202.33923499999966,
                    "velocity": 0.18110236220472442,
                    "duration": 0.18938155000000734
                },
                {
                    "name": "A2",
                    "midi": 45,
                    "time": 202.53858399999967,
                    "velocity": 0.18110236220472442,
                    "duration": 0.18938155000000734
                },
                {
                    "name": "G#3",
                    "midi": 56,
                    "time": 202.53858399999967,
                    "velocity": 0.2204724409448819,
                    "duration": 0.18938155000000734
                },
                {
                    "name": "G#3",
                    "midi": 56,
                    "time": 202.73793299999969,
                    "velocity": 0.2992125984251969,
                    "duration": 0.18938155000000734
                },
                {
                    "name": "A2",
                    "midi": 45,
                    "time": 202.73793299999969,
                    "velocity": 0.25196850393700787,
                    "duration": 0.18938155000000734
                },
                {
                    "name": "A2",
                    "midi": 45,
                    "time": 202.9372819999997,
                    "velocity": 0.1889763779527559,
                    "duration": 0.18938155000000734
                },
                {
                    "name": "G#3",
                    "midi": 56,
                    "time": 202.9372819999997,
                    "velocity": 0.23622047244094488,
                    "duration": 0.18938155000000734
                },
                {
                    "name": "G#3",
                    "midi": 56,
                    "time": 203.1366309999997,
                    "velocity": 0.25196850393700787,
                    "duration": 0.18938155000000734
                },
                {
                    "name": "A2",
                    "midi": 45,
                    "time": 203.1366309999997,
                    "velocity": 0.2125984251968504,
                    "duration": 0.18938155000000734
                },
                {
                    "name": "G3",
                    "midi": 55,
                    "time": 203.33597999999972,
                    "velocity": 0.3464566929133858,
                    "duration": 0.18938155000000734
                },
                {
                    "name": "A2",
                    "midi": 45,
                    "time": 203.33597999999972,
                    "velocity": 0.29133858267716534,
                    "duration": 0.18938155000000734
                },
                {
                    "name": "A2",
                    "midi": 45,
                    "time": 203.53532899999973,
                    "velocity": 0.23622047244094488,
                    "duration": 0.18938155000000734
                },
                {
                    "name": "G3",
                    "midi": 55,
                    "time": 203.53532899999973,
                    "velocity": 0.28346456692913385,
                    "duration": 0.18938155000000734
                },
                {
                    "name": "A2",
                    "midi": 45,
                    "time": 203.73467799999975,
                    "velocity": 0.25196850393700787,
                    "duration": 0.18938155000000734
                },
                {
                    "name": "G3",
                    "midi": 55,
                    "time": 203.73467799999975,
                    "velocity": 0.2992125984251969,
                    "duration": 0.18938155000000734
                },
                {
                    "name": "A2",
                    "midi": 45,
                    "time": 203.93402699999976,
                    "velocity": 0.33070866141732286,
                    "duration": 0.18938155000000734
                },
                {
                    "name": "F#3",
                    "midi": 54,
                    "time": 203.93402699999976,
                    "velocity": 0.3937007874015748,
                    "duration": 0.18938155000000734
                },
                {
                    "name": "A2",
                    "midi": 45,
                    "time": 204.13337599999977,
                    "velocity": 0.25984251968503935,
                    "duration": 0.18938155000000734
                },
                {
                    "name": "F#3",
                    "midi": 54,
                    "time": 204.13337599999977,
                    "velocity": 0.31496062992125984,
                    "duration": 0.18938155000000734
                },
                {
                    "name": "F#3",
                    "midi": 54,
                    "time": 204.33272499999978,
                    "velocity": 0.33070866141732286,
                    "duration": 0.18938155000000734
                },
                {
                    "name": "A2",
                    "midi": 45,
                    "time": 204.33272499999978,
                    "velocity": 0.2755905511811024,
                    "duration": 0.18938155000000734
                },
                {
                    "name": "E3",
                    "midi": 52,
                    "time": 204.5320739999998,
                    "velocity": 0.44881889763779526,
                    "duration": 0.18938155000000734
                },
                {
                    "name": "A2",
                    "midi": 45,
                    "time": 204.5320739999998,
                    "velocity": 0.3779527559055118,
                    "duration": 0.18938155000000734
                },
                {
                    "name": "A2",
                    "midi": 45,
                    "time": 204.7314229999998,
                    "velocity": 0.33070866141732286,
                    "duration": 0.18938155000000734
                },
                {
                    "name": "E3",
                    "midi": 52,
                    "time": 204.7314229999998,
                    "velocity": 0.3937007874015748,
                    "duration": 0.18938155000000734
                },
                {
                    "name": "A2",
                    "midi": 45,
                    "time": 204.93077199999982,
                    "velocity": 0.3543307086614173,
                    "duration": 0.18938155000000734
                },
                {
                    "name": "E3",
                    "midi": 52,
                    "time": 204.93077199999982,
                    "velocity": 0.4251968503937008,
                    "duration": 0.18938155000000734
                },
                {
                    "name": "D3",
                    "midi": 50,
                    "time": 205.13012099999983,
                    "velocity": 0.5039370078740157,
                    "duration": 0.18938155000000734
                },
                {
                    "name": "A2",
                    "midi": 45,
                    "time": 205.13012099999983,
                    "velocity": 0.41732283464566927,
                    "duration": 0.18938155000000734
                },
                {
                    "name": "D3",
                    "midi": 50,
                    "time": 205.32946999999984,
                    "velocity": 0.4409448818897638,
                    "duration": 0.18938155000000734
                },
                {
                    "name": "A2",
                    "midi": 45,
                    "time": 205.32946999999984,
                    "velocity": 0.3700787401574803,
                    "duration": 0.18938155000000734
                },
                {
                    "name": "D3",
                    "midi": 50,
                    "time": 205.52881899999986,
                    "velocity": 0.4645669291338583,
                    "duration": 0.18938155000000734
                },
                {
                    "name": "A2",
                    "midi": 45,
                    "time": 205.52881899999986,
                    "velocity": 0.3858267716535433,
                    "duration": 0.18938155000000734
                },
                {
                    "name": "A3",
                    "midi": 57,
                    "time": 205.72816799999987,
                    "velocity": 0.4566929133858268,
                    "duration": 1.196093999999988
                },
                {
                    "name": "E3",
                    "midi": 52,
                    "time": 205.72816799999987,
                    "velocity": 0.3858267716535433,
                    "duration": 1.196093999999988
                },
                {
                    "name": "C#3",
                    "midi": 49,
                    "time": 205.72816799999987,
                    "velocity": 0.3858267716535433,
                    "duration": 1.196093999999988
                },
                {
                    "name": "A2",
                    "midi": 45,
                    "time": 205.72816799999987,
                    "velocity": 0.3858267716535433,
                    "duration": 1.196093999999988
                },
                {
                    "name": "D4",
                    "midi": 62,
                    "time": 216.69236299999986,
                    "velocity": 0.2047244094488189,
                    "duration": 0.5980470000000082
                },
                {
                    "name": "F#4",
                    "midi": 66,
                    "time": 216.69236299999986,
                    "velocity": 0.2440944881889764,
                    "duration": 0.5980470000000082
                },
                {
                    "name": "G#4",
                    "midi": 68,
                    "time": 217.29040999999987,
                    "velocity": 0.2440944881889764,
                    "duration": 0.5980470000000082
                },
                {
                    "name": "B3",
                    "midi": 59,
                    "time": 217.29040999999987,
                    "velocity": 0.2047244094488189,
                    "duration": 0.5980470000000082
                },
                {
                    "name": "A4",
                    "midi": 69,
                    "time": 217.88845699999987,
                    "velocity": 0.2440944881889764,
                    "duration": 0.5980470000000082
                },
                {
                    "name": "A3",
                    "midi": 57,
                    "time": 217.88845699999987,
                    "velocity": 0.2047244094488189,
                    "duration": 0.5980470000000082
                },
                {
                    "name": "E4",
                    "midi": 64,
                    "time": 219.0845509999999,
                    "velocity": 0.2440944881889764,
                    "duration": 0.5980470000000082
                },
                {
                    "name": "A3",
                    "midi": 57,
                    "time": 219.0845509999999,
                    "velocity": 0.2047244094488189,
                    "duration": 0.5980470000000082
                },
                {
                    "name": "C#4",
                    "midi": 61,
                    "time": 219.6825979999999,
                    "velocity": 0.2047244094488189,
                    "duration": 0.5980470000000082
                },
                {
                    "name": "E4",
                    "midi": 64,
                    "time": 219.6825979999999,
                    "velocity": 0.2440944881889764,
                    "duration": 0.5980470000000082
                },
                {
                    "name": "D4",
                    "midi": 62,
                    "time": 220.2806449999999,
                    "velocity": 0.2047244094488189,
                    "duration": 0.5980470000000082
                },
                {
                    "name": "A4",
                    "midi": 69,
                    "time": 220.2806449999999,
                    "velocity": 0.2440944881889764,
                    "duration": 0.5980470000000082
                },
                {
                    "name": "D3",
                    "midi": 50,
                    "time": 220.87869199999992,
                    "velocity": 0.4015748031496063,
                    "duration": 0.1993490000000122
                },
                {
                    "name": "D4",
                    "midi": 62,
                    "time": 221.07804099999993,
                    "velocity": 0.3543307086614173,
                    "duration": 0.0996744999999919
                },
                {
                    "name": "E4",
                    "midi": 64,
                    "time": 221.2773899999999,
                    "velocity": 0.3779527559055118,
                    "duration": 0.0996744999999919
                },
                {
                    "name": "F#4",
                    "midi": 66,
                    "time": 221.4767389999999,
                    "velocity": 0.4094488188976378,
                    "duration": 0.1993490000000122
                },
                {
                    "name": "D3",
                    "midi": 50,
                    "time": 222.0747859999999,
                    "velocity": 0.3937007874015748,
                    "duration": 0.1993490000000122
                },
                {
                    "name": "D4",
                    "midi": 62,
                    "time": 222.27413499999992,
                    "velocity": 0.3464566929133858,
                    "duration": 0.0996744999999919
                },
                {
                    "name": "E4",
                    "midi": 64,
                    "time": 222.4734839999999,
                    "velocity": 0.3779527559055118,
                    "duration": 0.0996744999999919
                },
                {
                    "name": "F#4",
                    "midi": 66,
                    "time": 222.67283299999988,
                    "velocity": 0.41732283464566927,
                    "duration": 0.1993490000000122
                },
                {
                    "name": "G3",
                    "midi": 55,
                    "time": 223.2708799999999,
                    "velocity": 0.3937007874015748,
                    "duration": 0.1993490000000122
                },
                {
                    "name": "G4",
                    "midi": 67,
                    "time": 223.4702289999999,
                    "velocity": 0.3464566929133858,
                    "duration": 0.0996744999999919
                },
                {
                    "name": "E4",
                    "midi": 64,
                    "time": 223.6695779999999,
                    "velocity": 0.3779527559055118,
                    "duration": 0.0996744999999919
                },
                {
                    "name": "F#3",
                    "midi": 54,
                    "time": 223.86892699999987,
                    "velocity": 0.3543307086614173,
                    "duration": 0.1993490000000122
                },
                {
                    "name": "F#4",
                    "midi": 66,
                    "time": 223.86892699999987,
                    "velocity": 0.41732283464566927,
                    "duration": 0.1993490000000122
                },
                {
                    "name": "G4",
                    "midi": 67,
                    "time": 224.46697399999988,
                    "velocity": 0.41732283464566927,
                    "duration": 0.1993490000000122
                },
                {
                    "name": "G3",
                    "midi": 55,
                    "time": 224.46697399999988,
                    "velocity": 0.3543307086614173,
                    "duration": 0.1993490000000122
                },
                {
                    "name": "A3",
                    "midi": 57,
                    "time": 225.0650209999999,
                    "velocity": 0.3543307086614173,
                    "duration": 0.1993490000000122
                },
                {
                    "name": "A4",
                    "midi": 69,
                    "time": 225.0650209999999,
                    "velocity": 0.41732283464566927,
                    "duration": 0.1993490000000122
                },
                {
                    "name": "D3",
                    "midi": 50,
                    "time": 226.2611149999999,
                    "velocity": 0.2047244094488189,
                    "duration": 0.5980470000000082
                },
                {
                    "name": "F#3",
                    "midi": 54,
                    "time": 226.2611149999999,
                    "velocity": 0.2440944881889764,
                    "duration": 0.5980470000000082
                },
                {
                    "name": "G#3",
                    "midi": 56,
                    "time": 226.8591619999999,
                    "velocity": 0.2440944881889764,
                    "duration": 0.5980470000000082
                },
                {
                    "name": "B2",
                    "midi": 47,
                    "time": 226.8591619999999,
                    "velocity": 0.2047244094488189,
                    "duration": 0.5980470000000082
                },
                {
                    "name": "A2",
                    "midi": 45,
                    "time": 227.45720899999992,
                    "velocity": 0.2047244094488189,
                    "duration": 0.5980470000000082
                },
                {
                    "name": "A3",
                    "midi": 57,
                    "time": 227.45720899999992,
                    "velocity": 0.2440944881889764,
                    "duration": 0.5980470000000082
                },
                {
                    "name": "E3",
                    "midi": 52,
                    "time": 228.65330299999994,
                    "velocity": 0.2440944881889764,
                    "duration": 0.5980470000000082
                },
                {
                    "name": "A2",
                    "midi": 45,
                    "time": 228.65330299999994,
                    "velocity": 0.2047244094488189,
                    "duration": 0.5980470000000082
                },
                {
                    "name": "E3",
                    "midi": 52,
                    "time": 229.25134999999995,
                    "velocity": 0.2440944881889764,
                    "duration": 0.5980470000000082
                },
                {
                    "name": "C#3",
                    "midi": 49,
                    "time": 229.25134999999995,
                    "velocity": 0.2047244094488189,
                    "duration": 0.5980470000000082
                },
                {
                    "name": "A3",
                    "midi": 57,
                    "time": 229.84939699999995,
                    "velocity": 0.2440944881889764,
                    "duration": 0.5980470000000082
                },
                {
                    "name": "D3",
                    "midi": 50,
                    "time": 229.84939699999995,
                    "velocity": 0.2047244094488189,
                    "duration": 0.5980470000000082
                },
                {
                    "name": "D3",
                    "midi": 50,
                    "time": 230.44744399999996,
                    "velocity": 0.4015748031496063,
                    "duration": 0.1993490000000122
                },
                {
                    "name": "D4",
                    "midi": 62,
                    "time": 230.64679299999997,
                    "velocity": 0.3543307086614173,
                    "duration": 0.0996744999999919
                },
                {
                    "name": "E4",
                    "midi": 64,
                    "time": 230.84614199999996,
                    "velocity": 0.3779527559055118,
                    "duration": 0.0996744999999919
                },
                {
                    "name": "F#4",
                    "midi": 66,
                    "time": 231.04549099999994,
                    "velocity": 0.4094488188976378,
                    "duration": 0.1993490000000122
                },
                {
                    "name": "G2",
                    "midi": 43,
                    "time": 231.64353799999995,
                    "velocity": 0.3937007874015748,
                    "duration": 0.1993490000000122
                },
                {
                    "name": "G3",
                    "midi": 55,
                    "time": 231.84288699999996,
                    "velocity": 0.3464566929133858,
                    "duration": 0.0996744999999919
                },
                {
                    "name": "A3",
                    "midi": 57,
                    "time": 232.04223599999995,
                    "velocity": 0.3779527559055118,
                    "duration": 0.0996744999999919
                },
                {
                    "name": "B3",
                    "midi": 59,
                    "time": 232.24158499999993,
                    "velocity": 0.41732283464566927,
                    "duration": 0.1993490000000122
                },
                {
                    "name": "E4",
                    "midi": 64,
                    "time": 232.83963199999994,
                    "velocity": 0.41732283464566927,
                    "duration": 0.0996744999999919
                },
                {
                    "name": "B3",
                    "midi": 59,
                    "time": 232.83963199999994,
                    "velocity": 0.3543307086614173,
                    "duration": 0.0996744999999919
                },
                {
                    "name": "G3",
                    "midi": 55,
                    "time": 232.84793820833326,
                    "velocity": 0.3543307086614173,
                    "duration": 0.0996744999999919
                },
                {
                    "name": "F#4",
                    "midi": 66,
                    "time": 233.43767899999992,
                    "velocity": 0.41732283464566927,
                    "duration": 0.0996744999999919
                },
                {
                    "name": "D4",
                    "midi": 62,
                    "time": 233.43767899999992,
                    "velocity": 0.3543307086614173,
                    "duration": 0.0996744999999919
                },
                {
                    "name": "A3",
                    "midi": 57,
                    "time": 233.43767899999992,
                    "velocity": 0.3543307086614173,
                    "duration": 0.0996744999999919
                },
                {
                    "name": "G4",
                    "midi": 67,
                    "time": 234.0357259999999,
                    "velocity": 0.41732283464566927,
                    "duration": 0.0996744999999919
                },
                {
                    "name": "E4",
                    "midi": 64,
                    "time": 234.0357259999999,
                    "velocity": 0.3543307086614173,
                    "duration": 0.0996744999999919
                },
                {
                    "name": "A3",
                    "midi": 57,
                    "time": 234.0357259999999,
                    "velocity": 0.3543307086614173,
                    "duration": 0.0996744999999919
                },
                {
                    "name": "F#4",
                    "midi": 66,
                    "time": 234.63377299999988,
                    "velocity": 0.41732283464566927,
                    "duration": 0.0996744999999919
                },
                {
                    "name": "D4",
                    "midi": 62,
                    "time": 234.63377299999988,
                    "velocity": 0.3543307086614173,
                    "duration": 0.0996744999999919
                },
                {
                    "name": "D2",
                    "midi": 38,
                    "time": 235.43116899999987,
                    "velocity": 0.3464566929133858,
                    "duration": 0.07475587499999392
                },
                {
                    "name": "D3",
                    "midi": 50,
                    "time": 235.43116899999987,
                    "velocity": 0.3464566929133858,
                    "duration": 0.07475587499999392
                },
                {
                    "name": "D3",
                    "midi": 50,
                    "time": 235.63051799999985,
                    "velocity": 0.3464566929133858,
                    "duration": 0.07475587499999392
                },
                {
                    "name": "D2",
                    "midi": 38,
                    "time": 235.63051799999985,
                    "velocity": 0.3464566929133858,
                    "duration": 0.07475587499999392
                },
                {
                    "name": "D3",
                    "midi": 50,
                    "time": 235.82986699999984,
                    "velocity": 0.4094488188976378,
                    "duration": 0.398697999999996
                },
                {
                    "name": "D2",
                    "midi": 38,
                    "time": 235.82986699999984,
                    "velocity": 0.4094488188976378,
                    "duration": 0.398697999999996
                },
                {
                    "name": "D2",
                    "midi": 38,
                    "time": 236.22856499999983,
                    "velocity": 0.3464566929133858,
                    "duration": 0.07475587499999392
                },
                {
                    "name": "D3",
                    "midi": 50,
                    "time": 236.22856499999983,
                    "velocity": 0.3464566929133858,
                    "duration": 0.07475587499999392
                },
                {
                    "name": "D2",
                    "midi": 38,
                    "time": 236.42791399999982,
                    "velocity": 0.3464566929133858,
                    "duration": 0.398697999999996
                },
                {
                    "name": "D3",
                    "midi": 50,
                    "time": 236.42791399999982,
                    "velocity": 0.3464566929133858,
                    "duration": 0.398697999999996
                },
                {
                    "name": "D3",
                    "midi": 50,
                    "time": 236.8266119999998,
                    "velocity": 0.3464566929133858,
                    "duration": 0.07475587499999392
                },
                {
                    "name": "D2",
                    "midi": 38,
                    "time": 236.8266119999998,
                    "velocity": 0.3464566929133858,
                    "duration": 0.07475587499999392
                },
                {
                    "name": "C2",
                    "midi": 36,
                    "time": 237.0259609999998,
                    "velocity": 0.4094488188976378,
                    "duration": 0.398697999999996
                },
                {
                    "name": "C3",
                    "midi": 48,
                    "time": 237.0259609999998,
                    "velocity": 0.4094488188976378,
                    "duration": 0.398697999999996
                },
                {
                    "name": "D5",
                    "midi": 74,
                    "time": 238.22205499999978,
                    "velocity": 0.23622047244094488,
                    "duration": 0.07475587499999392
                },
                {
                    "name": "C5",
                    "midi": 72,
                    "time": 238.22205499999978,
                    "velocity": 0.1968503937007874,
                    "duration": 0.07475587499999392
                },
                {
                    "name": "D5",
                    "midi": 74,
                    "time": 238.42140399999977,
                    "velocity": 0.23622047244094488,
                    "duration": 0.07475587499999392
                },
                {
                    "name": "C5",
                    "midi": 72,
                    "time": 238.42140399999977,
                    "velocity": 0.1968503937007874,
                    "duration": 0.07475587499999392
                },
                {
                    "name": "C5",
                    "midi": 72,
                    "time": 238.62075299999975,
                    "velocity": 0.1968503937007874,
                    "duration": 0.07475587499999392
                },
                {
                    "name": "D5",
                    "midi": 74,
                    "time": 238.62075299999975,
                    "velocity": 0.23622047244094488,
                    "duration": 0.07475587499999392
                },
                {
                    "name": "C5",
                    "midi": 72,
                    "time": 238.82010199999974,
                    "velocity": 0.1968503937007874,
                    "duration": 0.07475587499999392
                },
                {
                    "name": "D5",
                    "midi": 74,
                    "time": 238.82010199999974,
                    "velocity": 0.23622047244094488,
                    "duration": 0.07475587499999392
                },
                {
                    "name": "C5",
                    "midi": 72,
                    "time": 239.01945099999972,
                    "velocity": 0.1968503937007874,
                    "duration": 0.07475587499999392
                },
                {
                    "name": "D5",
                    "midi": 74,
                    "time": 239.01945099999972,
                    "velocity": 0.23622047244094488,
                    "duration": 0.07475587499999392
                },
                {
                    "name": "D5",
                    "midi": 74,
                    "time": 239.2187999999997,
                    "velocity": 0.23622047244094488,
                    "duration": 0.07475587499999392
                },
                {
                    "name": "C5",
                    "midi": 72,
                    "time": 239.2187999999997,
                    "velocity": 0.1968503937007874,
                    "duration": 0.07475587499999392
                },
                {
                    "name": "D5",
                    "midi": 74,
                    "time": 239.4181489999997,
                    "velocity": 0.2755905511811024,
                    "duration": 0.797395999999992
                },
                {
                    "name": "B4",
                    "midi": 71,
                    "time": 239.4181489999997,
                    "velocity": 0.2283464566929134,
                    "duration": 0.797395999999992
                },
                {
                    "name": "B1",
                    "midi": 35,
                    "time": 240.21554499999968,
                    "velocity": 0.3464566929133858,
                    "duration": 0.07475587499999392
                },
                {
                    "name": "B2",
                    "midi": 47,
                    "time": 240.21554499999968,
                    "velocity": 0.3464566929133858,
                    "duration": 0.07475587499999392
                },
                {
                    "name": "B1",
                    "midi": 35,
                    "time": 240.41489399999966,
                    "velocity": 0.3464566929133858,
                    "duration": 0.07475587499999392
                },
                {
                    "name": "B2",
                    "midi": 47,
                    "time": 240.41489399999966,
                    "velocity": 0.3464566929133858,
                    "duration": 0.07475587499999392
                },
                {
                    "name": "A1",
                    "midi": 33,
                    "time": 240.61424299999965,
                    "velocity": 0.4094488188976378,
                    "duration": 0.398697999999996
                },
                {
                    "name": "A2",
                    "midi": 45,
                    "time": 240.61424299999965,
                    "velocity": 0.4094488188976378,
                    "duration": 0.398697999999996
                },
                {
                    "name": "A2",
                    "midi": 45,
                    "time": 241.01294099999964,
                    "velocity": 0.3464566929133858,
                    "duration": 0.07475587499999392
                },
                {
                    "name": "A1",
                    "midi": 33,
                    "time": 241.01294099999964,
                    "velocity": 0.3464566929133858,
                    "duration": 0.07475587499999392
                },
                {
                    "name": "G1",
                    "midi": 31,
                    "time": 241.21228999999963,
                    "velocity": 0.3464566929133858,
                    "duration": 0.398697999999996
                },
                {
                    "name": "G2",
                    "midi": 43,
                    "time": 241.21228999999963,
                    "velocity": 0.3464566929133858,
                    "duration": 0.398697999999996
                },
                {
                    "name": "G1",
                    "midi": 31,
                    "time": 241.61098799999962,
                    "velocity": 0.3464566929133858,
                    "duration": 0.07475587499999392
                },
                {
                    "name": "G2",
                    "midi": 43,
                    "time": 241.61098799999962,
                    "velocity": 0.3464566929133858,
                    "duration": 0.07475587499999392
                },
                {
                    "name": "F#2",
                    "midi": 42,
                    "time": 241.8103369999996,
                    "velocity": 0.4094488188976378,
                    "duration": 0.398697999999996
                },
                {
                    "name": "F#1",
                    "midi": 30,
                    "time": 241.8103369999996,
                    "velocity": 0.4094488188976378,
                    "duration": 0.398697999999996
                },
                {
                    "name": "F#3",
                    "midi": 54,
                    "time": 243.0064309999996,
                    "velocity": 0.31496062992125984,
                    "duration": 0.5980470000000366
                },
                {
                    "name": "A3",
                    "midi": 57,
                    "time": 243.2057799999996,
                    "velocity": 0.23622047244094488,
                    "duration": 0.1993490000000122
                },
                {
                    "name": "D4",
                    "midi": 62,
                    "time": 243.40512899999962,
                    "velocity": 0.2047244094488189,
                    "duration": 0.1993490000000122
                },
                {
                    "name": "F#3",
                    "midi": 54,
                    "time": 243.60447799999963,
                    "velocity": 0.31496062992125984,
                    "duration": 0.5980470000000366
                },
                {
                    "name": "A3",
                    "midi": 57,
                    "time": 243.80382699999964,
                    "velocity": 0.23622047244094488,
                    "duration": 0.1993490000000122
                },
                {
                    "name": "D4",
                    "midi": 62,
                    "time": 244.00317599999966,
                    "velocity": 0.2125984251968504,
                    "duration": 0.1993490000000122
                },
                {
                    "name": "G3",
                    "midi": 55,
                    "time": 244.20252499999967,
                    "velocity": 0.31496062992125984,
                    "duration": 0.5980470000000366
                },
                {
                    "name": "B3",
                    "midi": 59,
                    "time": 244.40187399999968,
                    "velocity": 0.25984251968503935,
                    "duration": 0.1993490000000122
                },
                {
                    "name": "D4",
                    "midi": 62,
                    "time": 244.6012229999997,
                    "velocity": 0.28346456692913385,
                    "duration": 0.1993490000000122
                },
                {
                    "name": "G3",
                    "midi": 55,
                    "time": 244.8005719999997,
                    "velocity": 0.31496062992125984,
                    "duration": 0.5980470000000366
                },
                {
                    "name": "B3",
                    "midi": 59,
                    "time": 244.99992099999972,
                    "velocity": 0.25984251968503935,
                    "duration": 0.1993490000000122
                },
                {
                    "name": "D4",
                    "midi": 62,
                    "time": 245.19926999999973,
                    "velocity": 0.25984251968503935,
                    "duration": 0.1993490000000122
                },
                {
                    "name": "F#3",
                    "midi": 54,
                    "time": 245.39861899999974,
                    "velocity": 0.31496062992125984,
                    "duration": 0.5980470000000366
                },
                {
                    "name": "A3",
                    "midi": 57,
                    "time": 245.59796799999975,
                    "velocity": 0.2677165354330709,
                    "duration": 0.1993490000000122
                },
                {
                    "name": "D4",
                    "midi": 62,
                    "time": 245.79731699999977,
                    "velocity": 0.2440944881889764,
                    "duration": 0.1993490000000122
                },
                {
                    "name": "F#3",
                    "midi": 54,
                    "time": 245.99666599999978,
                    "velocity": 0.31496062992125984,
                    "duration": 0.5980470000000366
                },
                {
                    "name": "A3",
                    "midi": 57,
                    "time": 246.1960149999998,
                    "velocity": 0.25984251968503935,
                    "duration": 0.1993490000000122
                },
                {
                    "name": "D4",
                    "midi": 62,
                    "time": 246.3953639999998,
                    "velocity": 0.2204724409448819,
                    "duration": 0.1993490000000122
                },
                {
                    "name": "G3",
                    "midi": 55,
                    "time": 246.5947129999998,
                    "velocity": 0.31496062992125984,
                    "duration": 0.5980470000000366
                },
                {
                    "name": "B3",
                    "midi": 59,
                    "time": 246.79406199999983,
                    "velocity": 0.2677165354330709,
                    "duration": 0.1993490000000122
                },
                {
                    "name": "D4",
                    "midi": 62,
                    "time": 246.99341099999984,
                    "velocity": 0.29133858267716534,
                    "duration": 0.1993490000000122
                },
                {
                    "name": "G3",
                    "midi": 55,
                    "time": 247.19275999999985,
                    "velocity": 0.31496062992125984,
                    "duration": 0.5980470000000366
                },
                {
                    "name": "B3",
                    "midi": 59,
                    "time": 247.39210899999986,
                    "velocity": 0.2677165354330709,
                    "duration": 0.1993490000000122
                },
                {
                    "name": "D4",
                    "midi": 62,
                    "time": 247.59145799999988,
                    "velocity": 0.2677165354330709,
                    "duration": 0.1993490000000122
                },
                {
                    "name": "D#3",
                    "midi": 51,
                    "time": 247.7908069999999,
                    "velocity": 0.31496062992125984,
                    "duration": 0.5980470000000366
                },
                {
                    "name": "F#3",
                    "midi": 54,
                    "time": 247.9901559999999,
                    "velocity": 0.25984251968503935,
                    "duration": 0.1993490000000122
                },
                {
                    "name": "B3",
                    "midi": 59,
                    "time": 248.1895049999999,
                    "velocity": 0.23622047244094488,
                    "duration": 0.1993490000000122
                },
                {
                    "name": "D#3",
                    "midi": 51,
                    "time": 248.38885399999992,
                    "velocity": 0.31496062992125984,
                    "duration": 0.5980470000000366
                },
                {
                    "name": "F#3",
                    "midi": 54,
                    "time": 248.58820299999994,
                    "velocity": 0.2677165354330709,
                    "duration": 0.1993490000000122
                },
                {
                    "name": "B3",
                    "midi": 59,
                    "time": 248.78755199999995,
                    "velocity": 0.25196850393700787,
                    "duration": 0.1993490000000122
                },
                {
                    "name": "E3",
                    "midi": 52,
                    "time": 248.98690099999996,
                    "velocity": 0.31496062992125984,
                    "duration": 0.5980470000000366
                },
                {
                    "name": "G3",
                    "midi": 55,
                    "time": 249.18624999999997,
                    "velocity": 0.25984251968503935,
                    "duration": 0.1993490000000122
                },
                {
                    "name": "B3",
                    "midi": 59,
                    "time": 249.38559899999998,
                    "velocity": 0.23622047244094488,
                    "duration": 0.1993490000000122
                },
                {
                    "name": "E3",
                    "midi": 52,
                    "time": 249.584948,
                    "velocity": 0.31496062992125984,
                    "duration": 0.5980470000000366
                },
                {
                    "name": "G3",
                    "midi": 55,
                    "time": 249.784297,
                    "velocity": 0.2677165354330709,
                    "duration": 0.1993490000000122
                },
                {
                    "name": "B3",
                    "midi": 59,
                    "time": 249.98364600000002,
                    "velocity": 0.25196850393700787,
                    "duration": 0.1993490000000122
                },
                {
                    "name": "C#3",
                    "midi": 49,
                    "time": 250.18299500000003,
                    "velocity": 0.31496062992125984,
                    "duration": 0.5980470000000366
                },
                {
                    "name": "E3",
                    "midi": 52,
                    "time": 250.38234400000005,
                    "velocity": 0.25984251968503935,
                    "duration": 0.1993490000000122
                },
                {
                    "name": "A3",
                    "midi": 57,
                    "time": 250.58169300000006,
                    "velocity": 0.23622047244094488,
                    "duration": 0.1993490000000122
                },
                {
                    "name": "C#3",
                    "midi": 49,
                    "time": 250.78104200000007,
                    "velocity": 0.31496062992125984,
                    "duration": 0.5980470000000366
                },
                {
                    "name": "E3",
                    "midi": 52,
                    "time": 250.98039100000008,
                    "velocity": 0.2677165354330709,
                    "duration": 0.1993490000000122
                },
                {
                    "name": "A3",
                    "midi": 57,
                    "time": 251.1797400000001,
                    "velocity": 0.25196850393700787,
                    "duration": 0.1993490000000122
                },
                {
                    "name": "D3",
                    "midi": 50,
                    "time": 251.3790890000001,
                    "velocity": 0.31496062992125984,
                    "duration": 0.5980470000000366
                },
                {
                    "name": "F#3",
                    "midi": 54,
                    "time": 251.57843800000012,
                    "velocity": 0.25984251968503935,
                    "duration": 0.1993490000000122
                },
                {
                    "name": "A3",
                    "midi": 57,
                    "time": 251.77778700000013,
                    "velocity": 0.23622047244094488,
                    "duration": 0.1993490000000122
                },
                {
                    "name": "D3",
                    "midi": 50,
                    "time": 251.97713600000014,
                    "velocity": 0.31496062992125984,
                    "duration": 0.5980470000000366
                },
                {
                    "name": "F#3",
                    "midi": 54,
                    "time": 252.17648500000016,
                    "velocity": 0.2677165354330709,
                    "duration": 0.1993490000000122
                },
                {
                    "name": "A3",
                    "midi": 57,
                    "time": 252.37583400000017,
                    "velocity": 0.25196850393700787,
                    "duration": 0.1993490000000122
                },
                {
                    "name": "G3",
                    "midi": 55,
                    "time": 252.57518300000018,
                    "velocity": 0.36220472440944884,
                    "duration": 0.398697999999996
                },
                {
                    "name": "G4",
                    "midi": 67,
                    "time": 253.1732300000002,
                    "velocity": 0.3543307086614173,
                    "duration": 0.0996744999999919
                },
                {
                    "name": "F#4",
                    "midi": 66,
                    "time": 253.27290450000018,
                    "velocity": 0.33070866141732286,
                    "duration": 0.0996744999999919
                },
                {
                    "name": "E4",
                    "midi": 64,
                    "time": 253.37257900000017,
                    "velocity": 0.33858267716535434,
                    "duration": 0.0996744999999919
                },
                {
                    "name": "D4",
                    "midi": 62,
                    "time": 253.47225350000016,
                    "velocity": 0.36220472440944884,
                    "duration": 0.0996744999999919
                },
                {
                    "name": "C#4",
                    "midi": 61,
                    "time": 253.57192800000016,
                    "velocity": 0.3779527559055118,
                    "duration": 0.0996744999999919
                },
                {
                    "name": "B3",
                    "midi": 59,
                    "time": 253.67160250000015,
                    "velocity": 0.4015748031496063,
                    "duration": 0.0996744999999919
                },
                {
                    "name": "A3",
                    "midi": 57,
                    "time": 253.77127700000014,
                    "velocity": 0.4251968503937008,
                    "duration": 0.07475587499999392
                },
                {
                    "name": "A2",
                    "midi": 45,
                    "time": 253.97062600000012,
                    "velocity": 0.33070866141732286,
                    "duration": 0.07475587499999392
                },
                {
                    "name": "A3",
                    "midi": 57,
                    "time": 253.97062600000012,
                    "velocity": 0.3937007874015748,
                    "duration": 0.07475587499999392
                },
                {
                    "name": "A2",
                    "midi": 45,
                    "time": 254.1699750000001,
                    "velocity": 0.33070866141732286,
                    "duration": 0.07475587499999392
                },
                {
                    "name": "A3",
                    "midi": 57,
                    "time": 254.1699750000001,
                    "velocity": 0.3937007874015748,
                    "duration": 0.07475587499999392
                },
                {
                    "name": "A2",
                    "midi": 45,
                    "time": 254.3693240000001,
                    "velocity": 0.3543307086614173,
                    "duration": 0.07475587499999392
                },
                {
                    "name": "A3",
                    "midi": 57,
                    "time": 254.3693240000001,
                    "velocity": 0.4251968503937008,
                    "duration": 0.07475587499999392
                },
                {
                    "name": "D4",
                    "midi": 62,
                    "time": 256.1634650000001,
                    "velocity": 0.3228346456692913,
                    "duration": 0.5980470000000082
                },
                {
                    "name": "C#4",
                    "midi": 61,
                    "time": 256.7615120000001,
                    "velocity": 0.36220472440944884,
                    "duration": 0.1993489999999838
                },
                {
                    "name": "D4",
                    "midi": 62,
                    "time": 256.9608610000001,
                    "velocity": 0.3464566929133858,
                    "duration": 0.1993489999999838
                },
                {
                    "name": "C#4",
                    "midi": 61,
                    "time": 257.16021000000006,
                    "velocity": 0.3464566929133858,
                    "duration": 0.1993489999999838
                },
                {
                    "name": "B3",
                    "midi": 59,
                    "time": 257.35955900000005,
                    "velocity": 0.4015748031496063,
                    "duration": 0.9967449999999758
                },
                {
                    "name": "G3",
                    "midi": 55,
                    "time": 258.356304,
                    "velocity": 0.28346456692913385,
                    "duration": 0.1993489999999838
                },
                {
                    "name": "A3",
                    "midi": 57,
                    "time": 258.555653,
                    "velocity": 0.3228346456692913,
                    "duration": 0.1993489999999838
                },
                {
                    "name": "B3",
                    "midi": 59,
                    "time": 258.755002,
                    "velocity": 0.29133858267716534,
                    "duration": 0.1993489999999838
                },
                {
                    "name": "C#4",
                    "midi": 61,
                    "time": 258.954351,
                    "velocity": 0.29133858267716534,
                    "duration": 0.1993489999999838
                },
                {
                    "name": "D4",
                    "midi": 62,
                    "time": 259.15369999999996,
                    "velocity": 0.33070866141732286,
                    "duration": 0.1993489999999838
                },
                {
                    "name": "E4",
                    "midi": 64,
                    "time": 259.35304899999994,
                    "velocity": 0.2992125984251969,
                    "duration": 0.1993489999999838
                },
                {
                    "name": "F#4",
                    "midi": 66,
                    "time": 259.5523979999999,
                    "velocity": 0.2992125984251969,
                    "duration": 0.1993489999999838
                },
                {
                    "name": "G4",
                    "midi": 67,
                    "time": 259.7517469999999,
                    "velocity": 0.33070866141732286,
                    "duration": 0.5980470000000082
                },
                {
                    "name": "B4",
                    "midi": 71,
                    "time": 259.7517469999999,
                    "velocity": 0.2755905511811024,
                    "duration": 1.1960940000000164
                },
                {
                    "name": "D5",
                    "midi": 74,
                    "time": 259.7517469999999,
                    "velocity": 0.2755905511811024,
                    "duration": 1.1960940000000164
                },
                {
                    "name": "G#4",
                    "midi": 68,
                    "time": 260.3497939999999,
                    "velocity": 0.33070866141732286,
                    "duration": 0.5980470000000082
                },
                {
                    "name": "C#5",
                    "midi": 73,
                    "time": 260.9478409999999,
                    "velocity": 0.2755905511811024,
                    "duration": 0.5980470000000082
                },
                {
                    "name": "A4",
                    "midi": 69,
                    "time": 260.9478409999999,
                    "velocity": 0.33070866141732286,
                    "duration": 0.5980470000000082
                },
                {
                    "name": "A4",
                    "midi": 69,
                    "time": 261.54588799999993,
                    "velocity": 0.2755905511811024,
                    "duration": 0.5980470000000082
                },
                {
                    "name": "C#5",
                    "midi": 73,
                    "time": 261.54588799999993,
                    "velocity": 0.2755905511811024,
                    "duration": 0.5980470000000082
                },
                {
                    "name": "G4",
                    "midi": 67,
                    "time": 261.54588799999993,
                    "velocity": 0.33070866141732286,
                    "duration": 0.5980470000000082
                },
                {
                    "name": "D5",
                    "midi": 74,
                    "time": 262.14393499999994,
                    "velocity": 0.2755905511811024,
                    "duration": 0.1993489999999838
                },
                {
                    "name": "A4",
                    "midi": 69,
                    "time": 262.14393499999994,
                    "velocity": 0.2283464566929134,
                    "duration": 0.1993489999999838
                },
                {
                    "name": "F#4",
                    "midi": 66,
                    "time": 262.14393499999994,
                    "velocity": 0.2283464566929134,
                    "duration": 0.1993489999999838
                },
                {
                    "name": "G4",
                    "midi": 67,
                    "time": 262.74198199999995,
                    "velocity": 0.2755905511811024,
                    "duration": 0.3986980000000244
                },
                {
                    "name": "D4",
                    "midi": 62,
                    "time": 263.14068,
                    "velocity": 0.2440944881889764,
                    "duration": 0.1993489999999838
                },
                {
                    "name": "B3",
                    "midi": 59,
                    "time": 263.14068,
                    "velocity": 0.2047244094488189,
                    "duration": 0.1993489999999838
                },
                {
                    "name": "D4",
                    "midi": 62,
                    "time": 263.34002899999996,
                    "velocity": 0.28346456692913385,
                    "duration": 0.5980470000000082
                },
                {
                    "name": "A3",
                    "midi": 57,
                    "time": 263.34002899999996,
                    "velocity": 0.23622047244094488,
                    "duration": 0.797395999999992
                },
                {
                    "name": "C#4",
                    "midi": 61,
                    "time": 263.93807599999997,
                    "velocity": 0.25196850393700787,
                    "duration": 0.1993489999999838
                },
                {
                    "name": "B3",
                    "midi": 59,
                    "time": 265.73221699999993,
                    "velocity": 0.3228346456692913,
                    "duration": 0.5980470000000082
                },
                {
                    "name": "A3",
                    "midi": 57,
                    "time": 266.33026399999994,
                    "velocity": 0.36220472440944884,
                    "duration": 0.1993489999999838
                },
                {
                    "name": "B3",
                    "midi": 59,
                    "time": 266.5296129999999,
                    "velocity": 0.3464566929133858,
                    "duration": 0.1993489999999838
                },
                {
                    "name": "A3",
                    "midi": 57,
                    "time": 266.7289619999999,
                    "velocity": 0.3464566929133858,
                    "duration": 0.1993489999999838
                },
                {
                    "name": "G3",
                    "midi": 55,
                    "time": 266.9283109999999,
                    "velocity": 0.4015748031496063,
                    "duration": 0.3986980000000244
                },
                {
                    "name": "F#3",
                    "midi": 54,
                    "time": 267.3270089999999,
                    "velocity": 0.28346456692913385,
                    "duration": 0.1993489999999838
                },
                {
                    "name": "E3",
                    "midi": 52,
                    "time": 267.5263579999999,
                    "velocity": 0.4015748031496063,
                    "duration": 0.3986980000000244
                },
                {
                    "name": "D3",
                    "midi": 50,
                    "time": 267.9250559999999,
                    "velocity": 0.28346456692913385,
                    "duration": 0.1993489999999838
                },
                {
                    "name": "C#3",
                    "midi": 49,
                    "time": 268.1244049999999,
                    "velocity": 0.3228346456692913,
                    "duration": 0.3986980000000244
                },
                {
                    "name": "A2",
                    "midi": 45,
                    "time": 268.52310299999994,
                    "velocity": 0.29133858267716534,
                    "duration": 0.1993489999999838
                },
                {
                    "name": "D3",
                    "midi": 50,
                    "time": 268.7224519999999,
                    "velocity": 0.33070866141732286,
                    "duration": 0.1993489999999838
                },
                {
                    "name": "E3",
                    "midi": 52,
                    "time": 268.9218009999999,
                    "velocity": 0.2992125984251969,
                    "duration": 0.1993489999999838
                },
                {
                    "name": "F#3",
                    "midi": 54,
                    "time": 269.1211499999999,
                    "velocity": 0.2992125984251969,
                    "duration": 0.1993489999999838
                },
                {
                    "name": "B3",
                    "midi": 59,
                    "time": 269.32049899999987,
                    "velocity": 0.2755905511811024,
                    "duration": 1.1960940000000164
                },
                {
                    "name": "G3",
                    "midi": 55,
                    "time": 269.32049899999987,
                    "velocity": 0.33070866141732286,
                    "duration": 0.5980470000000082
                },
                {
                    "name": "D4",
                    "midi": 62,
                    "time": 269.32049899999987,
                    "velocity": 0.2755905511811024,
                    "duration": 1.1960940000000164
                },
                {
                    "name": "G#3",
                    "midi": 56,
                    "time": 269.9185459999999,
                    "velocity": 0.33070866141732286,
                    "duration": 0.5980470000000082
                },
                {
                    "name": "C#4",
                    "midi": 61,
                    "time": 270.5165929999999,
                    "velocity": 0.2755905511811024,
                    "duration": 0.5980470000000082
                },
                {
                    "name": "G3",
                    "midi": 55,
                    "time": 270.5165929999999,
                    "velocity": 0.33070866141732286,
                    "duration": 0.5980470000000082
                },
                {
                    "name": "A3",
                    "midi": 57,
                    "time": 270.5165929999999,
                    "velocity": 0.33070866141732286,
                    "duration": 0.5980470000000082
                },
                {
                    "name": "C4",
                    "midi": 60,
                    "time": 271.1146399999999,
                    "velocity": 0.2755905511811024,
                    "duration": 0.5980470000000082
                },
                {
                    "name": "A3",
                    "midi": 57,
                    "time": 271.1146399999999,
                    "velocity": 0.2755905511811024,
                    "duration": 0.5980470000000082
                },
                {
                    "name": "F#3",
                    "midi": 54,
                    "time": 271.1146399999999,
                    "velocity": 0.33070866141732286,
                    "duration": 0.5980470000000082
                },
                {
                    "name": "B3",
                    "midi": 59,
                    "time": 271.7126869999999,
                    "velocity": 0.33070866141732286,
                    "duration": 0.0996744999999919
                },
                {
                    "name": "G3",
                    "midi": 55,
                    "time": 271.7126869999999,
                    "velocity": 0.2755905511811024,
                    "duration": 0.0996744999999919
                },
                {
                    "name": "A3",
                    "midi": 57,
                    "time": 272.3107339999999,
                    "velocity": 0.3700787401574803,
                    "duration": 0.0996744999999919
                },
                {
                    "name": "D3",
                    "midi": 50,
                    "time": 272.9087809999999,
                    "velocity": 0.47244094488188976,
                    "duration": 0.0996744999999919
                },
                {
                    "name": "A3",
                    "midi": 57,
                    "time": 273.0084554999999,
                    "velocity": 0.3464566929133858,
                    "duration": 0.0996744999999919
                },
                {
                    "name": "F#3",
                    "midi": 54,
                    "time": 273.1081299999999,
                    "velocity": 0.3464566929133858,
                    "duration": 0.0996744999999919
                },
                {
                    "name": "A3",
                    "midi": 57,
                    "time": 273.2078044999999,
                    "velocity": 0.3464566929133858,
                    "duration": 0.0996744999999919
                },
                {
                    "name": "F#3",
                    "midi": 54,
                    "time": 273.3074789999999,
                    "velocity": 0.3464566929133858,
                    "duration": 0.0996744999999919
                },
                {
                    "name": "A3",
                    "midi": 57,
                    "time": 273.4071534999999,
                    "velocity": 0.3464566929133858,
                    "duration": 0.0996744999999919
                },
                {
                    "name": "D3",
                    "midi": 50,
                    "time": 273.50682799999987,
                    "velocity": 0.4330708661417323,
                    "duration": 0.0996744999999919
                },
                {
                    "name": "A3",
                    "midi": 57,
                    "time": 273.60650249999986,
                    "velocity": 0.3779527559055118,
                    "duration": 0.0996744999999919
                },
                {
                    "name": "F#3",
                    "midi": 54,
                    "time": 273.70617699999985,
                    "velocity": 0.3543307086614173,
                    "duration": 0.0996744999999919
                },
                {
                    "name": "A3",
                    "midi": 57,
                    "time": 273.80585149999985,
                    "velocity": 0.33858267716535434,
                    "duration": 0.0996744999999919
                },
                {
                    "name": "F#3",
                    "midi": 54,
                    "time": 273.90552599999984,
                    "velocity": 0.33858267716535434,
                    "duration": 0.0996744999999919
                },
                {
                    "name": "A3",
                    "midi": 57,
                    "time": 274.00520049999983,
                    "velocity": 0.33858267716535434,
                    "duration": 0.0996744999999919
                },
                {
                    "name": "E3",
                    "midi": 52,
                    "time": 274.1048749999998,
                    "velocity": 0.47244094488188976,
                    "duration": 0.0996744999999919
                },
                {
                    "name": "A3",
                    "midi": 57,
                    "time": 274.2045494999998,
                    "velocity": 0.3464566929133858,
                    "duration": 0.0996744999999919
                },
                {
                    "name": "G3",
                    "midi": 55,
                    "time": 274.3042239999998,
                    "velocity": 0.3464566929133858,
                    "duration": 0.0996744999999919
                },
                {
                    "name": "A3",
                    "midi": 57,
                    "time": 274.4038984999998,
                    "velocity": 0.3464566929133858,
                    "duration": 0.0996744999999919
                },
                {
                    "name": "G3",
                    "midi": 55,
                    "time": 274.5035729999998,
                    "velocity": 0.3464566929133858,
                    "duration": 0.0996744999999919
                },
                {
                    "name": "A3",
                    "midi": 57,
                    "time": 274.6032474999998,
                    "velocity": 0.3464566929133858,
                    "duration": 0.0996744999999919
                },
                {
                    "name": "C#3",
                    "midi": 49,
                    "time": 274.7029219999998,
                    "velocity": 0.4330708661417323,
                    "duration": 0.0996744999999919
                },
                {
                    "name": "A3",
                    "midi": 57,
                    "time": 274.80259649999977,
                    "velocity": 0.33070866141732286,
                    "duration": 0.0996744999999919
                },
                {
                    "name": "E3",
                    "midi": 52,
                    "time": 274.90227099999976,
                    "velocity": 0.33070866141732286,
                    "duration": 0.0996744999999919
                },
                {
                    "name": "A3",
                    "midi": 57,
                    "time": 275.00194549999975,
                    "velocity": 0.33070866141732286,
                    "duration": 0.0996744999999919
                },
                {
                    "name": "E3",
                    "midi": 52,
                    "time": 275.10161999999974,
                    "velocity": 0.33070866141732286,
                    "duration": 0.0996744999999919
                },
                {
                    "name": "A3",
                    "midi": 57,
                    "time": 275.20129449999973,
                    "velocity": 0.33070866141732286,
                    "duration": 0.0996744999999919
                },
                {
                    "name": "D3",
                    "midi": 50,
                    "time": 275.3009689999997,
                    "velocity": 0.4015748031496063,
                    "duration": 0.0996744999999919
                },
                {
                    "name": "A3",
                    "midi": 57,
                    "time": 275.4006434999997,
                    "velocity": 0.30708661417322836,
                    "duration": 0.0996744999999919
                },
                {
                    "name": "F#3",
                    "midi": 54,
                    "time": 275.5003179999997,
                    "velocity": 0.30708661417322836,
                    "duration": 0.0996744999999919
                },
                {
                    "name": "A3",
                    "midi": 57,
                    "time": 275.5999924999997,
                    "velocity": 0.30708661417322836,
                    "duration": 0.0996744999999919
                },
                {
                    "name": "F#3",
                    "midi": 54,
                    "time": 275.6996669999997,
                    "velocity": 0.30708661417322836,
                    "duration": 0.0996744999999919
                },
                {
                    "name": "A3",
                    "midi": 57,
                    "time": 275.7993414999997,
                    "velocity": 0.30708661417322836,
                    "duration": 0.0996744999999919
                },
                {
                    "name": "D3",
                    "midi": 50,
                    "time": 275.8990159999997,
                    "velocity": 0.3937007874015748,
                    "duration": 0.0996744999999919
                },
                {
                    "name": "A3",
                    "midi": 57,
                    "time": 275.99869049999967,
                    "velocity": 0.31496062992125984,
                    "duration": 0.0996744999999919
                },
                {
                    "name": "F#3",
                    "midi": 54,
                    "time": 276.09836499999966,
                    "velocity": 0.31496062992125984,
                    "duration": 0.0996744999999919
                },
                {
                    "name": "A3",
                    "midi": 57,
                    "time": 276.19803949999965,
                    "velocity": 0.31496062992125984,
                    "duration": 0.0996744999999919
                },
                {
                    "name": "F#3",
                    "midi": 54,
                    "time": 276.29771399999964,
                    "velocity": 0.31496062992125984,
                    "duration": 0.0996744999999919
                },
                {
                    "name": "A3",
                    "midi": 57,
                    "time": 276.39738849999964,
                    "velocity": 0.31496062992125984,
                    "duration": 0.0996744999999919
                },
                {
                    "name": "E3",
                    "midi": 52,
                    "time": 276.4970629999996,
                    "velocity": 0.47244094488188976,
                    "duration": 0.0996744999999919
                },
                {
                    "name": "A3",
                    "midi": 57,
                    "time": 276.5967374999996,
                    "velocity": 0.3464566929133858,
                    "duration": 0.0996744999999919
                },
                {
                    "name": "G3",
                    "midi": 55,
                    "time": 276.6964119999996,
                    "velocity": 0.3464566929133858,
                    "duration": 0.0996744999999919
                },
                {
                    "name": "A3",
                    "midi": 57,
                    "time": 276.7960864999996,
                    "velocity": 0.3464566929133858,
                    "duration": 0.0996744999999919
                },
                {
                    "name": "G3",
                    "midi": 55,
                    "time": 276.8957609999996,
                    "velocity": 0.3464566929133858,
                    "duration": 0.0996744999999919
                },
                {
                    "name": "A3",
                    "midi": 57,
                    "time": 276.9954354999996,
                    "velocity": 0.3464566929133858,
                    "duration": 0.0996744999999919
                },
                {
                    "name": "C#3",
                    "midi": 49,
                    "time": 277.0951099999996,
                    "velocity": 0.4330708661417323,
                    "duration": 0.0996744999999919
                },
                {
                    "name": "A3",
                    "midi": 57,
                    "time": 277.19478449999957,
                    "velocity": 0.33070866141732286,
                    "duration": 0.0996744999999919
                },
                {
                    "name": "E3",
                    "midi": 52,
                    "time": 277.29445899999956,
                    "velocity": 0.33070866141732286,
                    "duration": 0.0996744999999919
                },
                {
                    "name": "A3",
                    "midi": 57,
                    "time": 277.39413349999955,
                    "velocity": 0.33070866141732286,
                    "duration": 0.0996744999999919
                },
                {
                    "name": "E3",
                    "midi": 52,
                    "time": 277.49380799999955,
                    "velocity": 0.33070866141732286,
                    "duration": 0.0996744999999919
                },
                {
                    "name": "A3",
                    "midi": 57,
                    "time": 277.59348249999954,
                    "velocity": 0.33070866141732286,
                    "duration": 0.0996744999999919
                },
                {
                    "name": "D3",
                    "midi": 50,
                    "time": 277.69315699999953,
                    "velocity": 0.4015748031496063,
                    "duration": 0.0996744999999919
                },
                {
                    "name": "A3",
                    "midi": 57,
                    "time": 277.7928314999995,
                    "velocity": 0.30708661417322836,
                    "duration": 0.0996744999999919
                },
                {
                    "name": "F#3",
                    "midi": 54,
                    "time": 277.8925059999995,
                    "velocity": 0.30708661417322836,
                    "duration": 0.0996744999999919
                },
                {
                    "name": "A3",
                    "midi": 57,
                    "time": 277.9921804999995,
                    "velocity": 0.30708661417322836,
                    "duration": 0.0996744999999919
                },
                {
                    "name": "F#3",
                    "midi": 54,
                    "time": 278.0918549999995,
                    "velocity": 0.30708661417322836,
                    "duration": 0.0996744999999919
                },
                {
                    "name": "A3",
                    "midi": 57,
                    "time": 278.1915294999995,
                    "velocity": 0.30708661417322836,
                    "duration": 0.0996744999999919
                },
                {
                    "name": "D3",
                    "midi": 50,
                    "time": 278.2912039999995,
                    "velocity": 0.3937007874015748,
                    "duration": 0.0996744999999919
                },
                {
                    "name": "A3",
                    "midi": 57,
                    "time": 278.3908784999995,
                    "velocity": 0.31496062992125984,
                    "duration": 0.0996744999999919
                },
                {
                    "name": "F#3",
                    "midi": 54,
                    "time": 278.49055299999947,
                    "velocity": 0.31496062992125984,
                    "duration": 0.0996744999999919
                },
                {
                    "name": "A3",
                    "midi": 57,
                    "time": 278.59022749999946,
                    "velocity": 0.31496062992125984,
                    "duration": 0.0996744999999919
                },
                {
                    "name": "F#3",
                    "midi": 54,
                    "time": 278.68990199999945,
                    "velocity": 0.31496062992125984,
                    "duration": 0.0996744999999919
                },
                {
                    "name": "A3",
                    "midi": 57,
                    "time": 278.78957649999944,
                    "velocity": 0.31496062992125984,
                    "duration": 0.0996744999999919
                },
                {
                    "name": "G3",
                    "midi": 55,
                    "time": 278.88925099999943,
                    "velocity": 0.3543307086614173,
                    "duration": 0.0996744999999919
                },
                {
                    "name": "G4",
                    "midi": 67,
                    "time": 279.48729799999944,
                    "velocity": 0.2677165354330709,
                    "duration": 0.0996744999999919
                },
                {
                    "name": "D5",
                    "midi": 74,
                    "time": 279.48729799999944,
                    "velocity": 0.31496062992125984,
                    "duration": 0.0996744999999919
                },
                {
                    "name": "F#4",
                    "midi": 66,
                    "time": 280.08534499999945,
                    "velocity": 0.2677165354330709,
                    "duration": 0.0996744999999919
                },
                {
                    "name": "D5",
                    "midi": 74,
                    "time": 280.08534499999945,
                    "velocity": 0.31496062992125984,
                    "duration": 0.0996744999999919
                },
                {
                    "name": "D5",
                    "midi": 74,
                    "time": 280.68339199999946,
                    "velocity": 0.31496062992125984,
                    "duration": 0.0996744999999919
                },
                {
                    "name": "G4",
                    "midi": 67,
                    "time": 280.68339199999946,
                    "velocity": 0.2677165354330709,
                    "duration": 0.0996744999999919
                },
                {
                    "name": "A4",
                    "midi": 69,
                    "time": 281.28143899999947,
                    "velocity": 0.2677165354330709,
                    "duration": 0.0996744999999919
                },
                {
                    "name": "D5",
                    "midi": 74,
                    "time": 281.28143899999947,
                    "velocity": 0.31496062992125984,
                    "duration": 0.0996744999999919
                },
                {
                    "name": "A4",
                    "midi": 69,
                    "time": 281.8794859999995,
                    "velocity": 0.2677165354330709,
                    "duration": 0.0996744999999919
                },
                {
                    "name": "C#5",
                    "midi": 73,
                    "time": 281.8794859999995,
                    "velocity": 0.31496062992125984,
                    "duration": 0.0996744999999919
                },
                {
                    "name": "D3",
                    "midi": 50,
                    "time": 282.4775329999995,
                    "velocity": 0.47244094488188976,
                    "duration": 0.0996744999999919
                },
                {
                    "name": "A3",
                    "midi": 57,
                    "time": 282.5772074999995,
                    "velocity": 0.3464566929133858,
                    "duration": 0.0996744999999919
                },
                {
                    "name": "F#3",
                    "midi": 54,
                    "time": 282.67688199999947,
                    "velocity": 0.3464566929133858,
                    "duration": 0.0996744999999919
                },
                {
                    "name": "A3",
                    "midi": 57,
                    "time": 282.77655649999946,
                    "velocity": 0.3464566929133858,
                    "duration": 0.0996744999999919
                },
                {
                    "name": "F#3",
                    "midi": 54,
                    "time": 282.87623099999945,
                    "velocity": 0.3464566929133858,
                    "duration": 0.0996744999999919
                },
                {
                    "name": "A3",
                    "midi": 57,
                    "time": 282.97590549999944,
                    "velocity": 0.3464566929133858,
                    "duration": 0.0996744999999919
                },
                {
                    "name": "D3",
                    "midi": 50,
                    "time": 283.07557999999943,
                    "velocity": 0.4330708661417323,
                    "duration": 0.0996744999999919
                },
                {
                    "name": "A3",
                    "midi": 57,
                    "time": 283.1752544999994,
                    "velocity": 0.3779527559055118,
                    "duration": 0.0996744999999919
                },
                {
                    "name": "F#3",
                    "midi": 54,
                    "time": 283.2749289999994,
                    "velocity": 0.3543307086614173,
                    "duration": 0.0996744999999919
                },
                {
                    "name": "A3",
                    "midi": 57,
                    "time": 283.3746034999994,
                    "velocity": 0.33858267716535434,
                    "duration": 0.0996744999999919
                },
                {
                    "name": "F#3",
                    "midi": 54,
                    "time": 283.4742779999994,
                    "velocity": 0.33858267716535434,
                    "duration": 0.0996744999999919
                },
                {
                    "name": "A3",
                    "midi": 57,
                    "time": 283.5739524999994,
                    "velocity": 0.33858267716535434,
                    "duration": 0.0996744999999919
                },
                {
                    "name": "E3",
                    "midi": 52,
                    "time": 283.6736269999994,
                    "velocity": 0.47244094488188976,
                    "duration": 0.0996744999999919
                },
                {
                    "name": "A3",
                    "midi": 57,
                    "time": 283.7733014999994,
                    "velocity": 0.3464566929133858,
                    "duration": 0.0996744999999919
                },
                {
                    "name": "G3",
                    "midi": 55,
                    "time": 283.87297599999937,
                    "velocity": 0.3464566929133858,
                    "duration": 0.0996744999999919
                },
                {
                    "name": "A3",
                    "midi": 57,
                    "time": 283.97265049999936,
                    "velocity": 0.3464566929133858,
                    "duration": 0.0996744999999919
                },
                {
                    "name": "G3",
                    "midi": 55,
                    "time": 284.07232499999935,
                    "velocity": 0.3464566929133858,
                    "duration": 0.0996744999999919
                },
                {
                    "name": "A3",
                    "midi": 57,
                    "time": 284.17199949999934,
                    "velocity": 0.3464566929133858,
                    "duration": 0.0996744999999919
                },
                {
                    "name": "C#3",
                    "midi": 49,
                    "time": 284.27167399999934,
                    "velocity": 0.4330708661417323,
                    "duration": 0.0996744999999919
                },
                {
                    "name": "A3",
                    "midi": 57,
                    "time": 284.3713484999993,
                    "velocity": 0.33070866141732286,
                    "duration": 0.0996744999999919
                },
                {
                    "name": "E3",
                    "midi": 52,
                    "time": 284.4710229999993,
                    "velocity": 0.33070866141732286,
                    "duration": 0.0996744999999919
                },
                {
                    "name": "A3",
                    "midi": 57,
                    "time": 284.5706974999993,
                    "velocity": 0.33070866141732286,
                    "duration": 0.0996744999999919
                },
                {
                    "name": "E3",
                    "midi": 52,
                    "time": 284.6703719999993,
                    "velocity": 0.33070866141732286,
                    "duration": 0.0996744999999919
                },
                {
                    "name": "A3",
                    "midi": 57,
                    "time": 284.7700464999993,
                    "velocity": 0.33070866141732286,
                    "duration": 0.0996744999999919
                },
                {
                    "name": "D3",
                    "midi": 50,
                    "time": 284.8697209999993,
                    "velocity": 0.4015748031496063,
                    "duration": 0.0996744999999919
                },
                {
                    "name": "A3",
                    "midi": 57,
                    "time": 284.9693954999993,
                    "velocity": 0.30708661417322836,
                    "duration": 0.0996744999999919
                },
                {
                    "name": "F#3",
                    "midi": 54,
                    "time": 285.0690699999993,
                    "velocity": 0.30708661417322836,
                    "duration": 0.0996744999999919
                },
                {
                    "name": "A3",
                    "midi": 57,
                    "time": 285.16874449999926,
                    "velocity": 0.30708661417322836,
                    "duration": 0.0996744999999919
                },
                {
                    "name": "F#3",
                    "midi": 54,
                    "time": 285.26841899999926,
                    "velocity": 0.30708661417322836,
                    "duration": 0.0996744999999919
                },
                {
                    "name": "A3",
                    "midi": 57,
                    "time": 285.36809349999925,
                    "velocity": 0.30708661417322836,
                    "duration": 0.0996744999999919
                },
                {
                    "name": "D3",
                    "midi": 50,
                    "time": 285.46776799999924,
                    "velocity": 0.3937007874015748,
                    "duration": 0.0996744999999919
                },
                {
                    "name": "A3",
                    "midi": 57,
                    "time": 285.56744249999923,
                    "velocity": 0.31496062992125984,
                    "duration": 0.0996744999999919
                },
                {
                    "name": "F#3",
                    "midi": 54,
                    "time": 285.6671169999992,
                    "velocity": 0.31496062992125984,
                    "duration": 0.0996744999999919
                },
                {
                    "name": "A3",
                    "midi": 57,
                    "time": 285.7667914999992,
                    "velocity": 0.31496062992125984,
                    "duration": 0.0996744999999919
                },
                {
                    "name": "F#3",
                    "midi": 54,
                    "time": 285.8664659999992,
                    "velocity": 0.31496062992125984,
                    "duration": 0.0996744999999919
                },
                {
                    "name": "A3",
                    "midi": 57,
                    "time": 285.9661404999992,
                    "velocity": 0.31496062992125984,
                    "duration": 0.0996744999999919
                },
                {
                    "name": "E3",
                    "midi": 52,
                    "time": 286.0658149999992,
                    "velocity": 0.47244094488188976,
                    "duration": 0.0996744999999919
                },
                {
                    "name": "A3",
                    "midi": 57,
                    "time": 286.1654894999992,
                    "velocity": 0.3464566929133858,
                    "duration": 0.0996744999999919
                },
                {
                    "name": "G3",
                    "midi": 55,
                    "time": 286.2651639999992,
                    "velocity": 0.3464566929133858,
                    "duration": 0.0996744999999919
                },
                {
                    "name": "A3",
                    "midi": 57,
                    "time": 286.36483849999917,
                    "velocity": 0.3464566929133858,
                    "duration": 0.0996744999999919
                },
                {
                    "name": "G3",
                    "midi": 55,
                    "time": 286.46451299999916,
                    "velocity": 0.3464566929133858,
                    "duration": 0.0996744999999919
                },
                {
                    "name": "A3",
                    "midi": 57,
                    "time": 286.56418749999915,
                    "velocity": 0.3464566929133858,
                    "duration": 0.0996744999999919
                },
                {
                    "name": "C#3",
                    "midi": 49,
                    "time": 286.66386199999914,
                    "velocity": 0.4330708661417323,
                    "duration": 0.0996744999999919
                },
                {
                    "name": "A3",
                    "midi": 57,
                    "time": 286.76353649999913,
                    "velocity": 0.33070866141732286,
                    "duration": 0.0996744999999919
                },
                {
                    "name": "E3",
                    "midi": 52,
                    "time": 286.8632109999991,
                    "velocity": 0.33070866141732286,
                    "duration": 0.0996744999999919
                },
                {
                    "name": "A3",
                    "midi": 57,
                    "time": 286.9628854999991,
                    "velocity": 0.33070866141732286,
                    "duration": 0.0996744999999919
                },
                {
                    "name": "E3",
                    "midi": 52,
                    "time": 287.0625599999991,
                    "velocity": 0.33070866141732286,
                    "duration": 0.0996744999999919
                },
                {
                    "name": "A3",
                    "midi": 57,
                    "time": 287.1622344999991,
                    "velocity": 0.33070866141732286,
                    "duration": 0.0996744999999919
                },
                {
                    "name": "D3",
                    "midi": 50,
                    "time": 287.2619089999991,
                    "velocity": 0.4015748031496063,
                    "duration": 0.0996744999999919
                },
                {
                    "name": "A3",
                    "midi": 57,
                    "time": 287.3615834999991,
                    "velocity": 0.30708661417322836,
                    "duration": 0.0996744999999919
                },
                {
                    "name": "F#3",
                    "midi": 54,
                    "time": 287.4612579999991,
                    "velocity": 0.30708661417322836,
                    "duration": 0.0996744999999919
                },
                {
                    "name": "A3",
                    "midi": 57,
                    "time": 287.56093249999907,
                    "velocity": 0.30708661417322836,
                    "duration": 0.0996744999999919
                },
                {
                    "name": "F#3",
                    "midi": 54,
                    "time": 287.66060699999906,
                    "velocity": 0.30708661417322836,
                    "duration": 0.0996744999999919
                },
                {
                    "name": "A3",
                    "midi": 57,
                    "time": 287.76028149999905,
                    "velocity": 0.30708661417322836,
                    "duration": 0.0996744999999919
                },
                {
                    "name": "D3",
                    "midi": 50,
                    "time": 287.85995599999904,
                    "velocity": 0.3937007874015748,
                    "duration": 0.0996744999999919
                },
                {
                    "name": "A3",
                    "midi": 57,
                    "time": 287.95963049999904,
                    "velocity": 0.31496062992125984,
                    "duration": 0.0996744999999919
                },
                {
                    "name": "F#3",
                    "midi": 54,
                    "time": 288.05930499999903,
                    "velocity": 0.31496062992125984,
                    "duration": 0.0996744999999919
                },
                {
                    "name": "A3",
                    "midi": 57,
                    "time": 288.158979499999,
                    "velocity": 0.31496062992125984,
                    "duration": 0.0996744999999919
                },
                {
                    "name": "F#3",
                    "midi": 54,
                    "time": 288.258653999999,
                    "velocity": 0.31496062992125984,
                    "duration": 0.0996744999999919
                },
                {
                    "name": "A3",
                    "midi": 57,
                    "time": 288.358328499999,
                    "velocity": 0.31496062992125984,
                    "duration": 0.0996744999999919
                },
                {
                    "name": "G3",
                    "midi": 55,
                    "time": 288.458002999999,
                    "velocity": 0.3543307086614173,
                    "duration": 0.0996744999999919
                },
                {
                    "name": "D5",
                    "midi": 74,
                    "time": 289.056049999999,
                    "velocity": 0.31496062992125984,
                    "duration": 0.0996744999999919
                },
                {
                    "name": "G4",
                    "midi": 67,
                    "time": 289.056049999999,
                    "velocity": 0.2677165354330709,
                    "duration": 0.0996744999999919
                },
                {
                    "name": "D5",
                    "midi": 74,
                    "time": 289.654096999999,
                    "velocity": 0.31496062992125984,
                    "duration": 0.0996744999999919
                },
                {
                    "name": "F#4",
                    "midi": 66,
                    "time": 289.654096999999,
                    "velocity": 0.2677165354330709,
                    "duration": 0.0996744999999919
                },
                {
                    "name": "D5",
                    "midi": 74,
                    "time": 290.252143999999,
                    "velocity": 0.31496062992125984,
                    "duration": 0.0996744999999919
                },
                {
                    "name": "G4",
                    "midi": 67,
                    "time": 290.252143999999,
                    "velocity": 0.2677165354330709,
                    "duration": 0.0996744999999919
                },
                {
                    "name": "D5",
                    "midi": 74,
                    "time": 290.85019099999903,
                    "velocity": 0.31496062992125984,
                    "duration": 0.0996744999999919
                },
                {
                    "name": "A4",
                    "midi": 69,
                    "time": 290.85019099999903,
                    "velocity": 0.2677165354330709,
                    "duration": 0.0996744999999919
                },
                {
                    "name": "C#5",
                    "midi": 73,
                    "time": 291.44823799999904,
                    "velocity": 0.31496062992125984,
                    "duration": 0.0996744999999919
                },
                {
                    "name": "A4",
                    "midi": 69,
                    "time": 291.44823799999904,
                    "velocity": 0.2677165354330709,
                    "duration": 0.0996744999999919
                },
                {
                    "name": "G3",
                    "midi": 55,
                    "time": 292.04628499999905,
                    "velocity": 0.4330708661417323,
                    "duration": 0.0996744999999919
                },
                {
                    "name": "D4",
                    "midi": 62,
                    "time": 292.04628499999905,
                    "velocity": 0.49606299212598426,
                    "duration": 0.0996744999999919
                },
                {
                    "name": "D4",
                    "midi": 62,
                    "time": 292.64433199999905,
                    "velocity": 0.44881889763779526,
                    "duration": 0.0996744999999919
                },
                {
                    "name": "G3",
                    "midi": 55,
                    "time": 292.64433199999905,
                    "velocity": 0.3779527559055118,
                    "duration": 0.0996744999999919
                },
                {
                    "name": "D4",
                    "midi": 62,
                    "time": 293.24237899999906,
                    "velocity": 0.44881889763779526,
                    "duration": 0.0996744999999919
                },
                {
                    "name": "F#3",
                    "midi": 54,
                    "time": 293.24237899999906,
                    "velocity": 0.3779527559055118,
                    "duration": 0.0996744999999919
                },
                {
                    "name": "G3",
                    "midi": 55,
                    "time": 293.84042599999907,
                    "velocity": 0.3779527559055118,
                    "duration": 0.0996744999999919
                },
                {
                    "name": "D4",
                    "midi": 62,
                    "time": 293.84042599999907,
                    "velocity": 0.44881889763779526,
                    "duration": 0.0996744999999919
                },
                {
                    "name": "D4",
                    "midi": 62,
                    "time": 294.4384729999991,
                    "velocity": 0.44881889763779526,
                    "duration": 0.0996744999999919
                },
                {
                    "name": "A3",
                    "midi": 57,
                    "time": 294.4384729999991,
                    "velocity": 0.3779527559055118,
                    "duration": 0.0996744999999919
                },
                {
                    "name": "A3",
                    "midi": 57,
                    "time": 295.0365199999991,
                    "velocity": 0.3779527559055118,
                    "duration": 0.0996744999999919
                },
                {
                    "name": "C#4",
                    "midi": 61,
                    "time": 295.0365199999991,
                    "velocity": 0.44881889763779526,
                    "duration": 0.0996744999999919
                },
                {
                    "name": "D3",
                    "midi": 50,
                    "time": 295.6345669999991,
                    "velocity": 0.5275590551181102,
                    "duration": 0.0996744999999919
                },
                {
                    "name": "D4",
                    "midi": 62,
                    "time": 295.7342414999991,
                    "velocity": 0.3464566929133858,
                    "duration": 0.0996744999999919
                },
                {
                    "name": "C#4",
                    "midi": 61,
                    "time": 295.8339159999991,
                    "velocity": 0.3779527559055118,
                    "duration": 0.0996744999999919
                },
                {
                    "name": "D4",
                    "midi": 62,
                    "time": 295.93359049999907,
                    "velocity": 0.3464566929133858,
                    "duration": 0.0996744999999919
                },
                {
                    "name": "C#4",
                    "midi": 61,
                    "time": 296.03326499999906,
                    "velocity": 0.3779527559055118,
                    "duration": 0.0996744999999919
                },
                {
                    "name": "D4",
                    "midi": 62,
                    "time": 296.13293949999905,
                    "velocity": 0.3464566929133858,
                    "duration": 0.0996744999999919
                },
                {
                    "name": "B2",
                    "midi": 47,
                    "time": 296.23261399999905,
                    "velocity": 0.4881889763779528,
                    "duration": 0.0996744999999919
                },
                {
                    "name": "B3",
                    "midi": 59,
                    "time": 296.33228849999904,
                    "velocity": 0.33858267716535434,
                    "duration": 0.0996744999999919
                },
                {
                    "name": "A#3",
                    "midi": 58,
                    "time": 296.43196299999903,
                    "velocity": 0.3700787401574803,
                    "duration": 0.0996744999999919
                },
                {
                    "name": "B3",
                    "midi": 59,
                    "time": 296.531637499999,
                    "velocity": 0.33858267716535434,
                    "duration": 0.0996744999999919
                },
                {
                    "name": "A#3",
                    "midi": 58,
                    "time": 296.631311999999,
                    "velocity": 0.3700787401574803,
                    "duration": 0.0996744999999919
                },
                {
                    "name": "B3",
                    "midi": 59,
                    "time": 296.730986499999,
                    "velocity": 0.33858267716535434,
                    "duration": 0.0996744999999919
                },
                {
                    "name": "G2",
                    "midi": 43,
                    "time": 296.830660999999,
                    "velocity": 0.5275590551181102,
                    "duration": 0.0996744999999919
                },
                {
                    "name": "G3",
                    "midi": 55,
                    "time": 296.930335499999,
                    "velocity": 0.36220472440944884,
                    "duration": 0.0996744999999919
                },
                {
                    "name": "F#3",
                    "midi": 54,
                    "time": 297.030009999999,
                    "velocity": 0.3937007874015748,
                    "duration": 0.0996744999999919
                },
                {
                    "name": "G3",
                    "midi": 55,
                    "time": 297.129684499999,
                    "velocity": 0.36220472440944884,
                    "duration": 0.0996744999999919
                },
                {
                    "name": "F#3",
                    "midi": 54,
                    "time": 297.22935899999896,
                    "velocity": 0.4015748031496063,
                    "duration": 0.0996744999999919
                },
                {
                    "name": "G3",
                    "midi": 55,
                    "time": 297.32903349999896,
                    "velocity": 0.36220472440944884,
                    "duration": 0.0996744999999919
                },
                {
                    "name": "A2",
                    "midi": 45,
                    "time": 297.42870799999895,
                    "velocity": 0.4330708661417323,
                    "duration": 0.0996744999999919
                },
                {
                    "name": "A3",
                    "midi": 57,
                    "time": 297.52838249999894,
                    "velocity": 0.36220472440944884,
                    "duration": 0.0996744999999919
                },
                {
                    "name": "G#3",
                    "midi": 56,
                    "time": 297.62805699999893,
                    "velocity": 0.3858267716535433,
                    "duration": 0.0996744999999919
                },
                {
                    "name": "A3",
                    "midi": 57,
                    "time": 297.7277314999989,
                    "velocity": 0.36220472440944884,
                    "duration": 0.0996744999999919
                },
                {
                    "name": "G#3",
                    "midi": 56,
                    "time": 297.8274059999989,
                    "velocity": 0.3937007874015748,
                    "duration": 0.0996744999999919
                },
                {
                    "name": "A3",
                    "midi": 57,
                    "time": 297.9270804999989,
                    "velocity": 0.36220472440944884,
                    "duration": 0.0996744999999919
                },
                {
                    "name": "D3",
                    "midi": 50,
                    "time": 298.0267549999989,
                    "velocity": 0.5275590551181102,
                    "duration": 0.0996744999999919
                },
                {
                    "name": "D4",
                    "midi": 62,
                    "time": 298.1264294999989,
                    "velocity": 0.3464566929133858,
                    "duration": 0.0996744999999919
                },
                {
                    "name": "C#4",
                    "midi": 61,
                    "time": 298.2261039999989,
                    "velocity": 0.3779527559055118,
                    "duration": 0.0996744999999919
                },
                {
                    "name": "D4",
                    "midi": 62,
                    "time": 298.3257784999989,
                    "velocity": 0.3464566929133858,
                    "duration": 0.0996744999999919
                },
                {
                    "name": "C#4",
                    "midi": 61,
                    "time": 298.42545299999887,
                    "velocity": 0.3779527559055118,
                    "duration": 0.0996744999999919
                },
                {
                    "name": "D4",
                    "midi": 62,
                    "time": 298.52512749999886,
                    "velocity": 0.3464566929133858,
                    "duration": 0.0996744999999919
                },
                {
                    "name": "B2",
                    "midi": 47,
                    "time": 298.62480199999885,
                    "velocity": 0.4881889763779528,
                    "duration": 0.0996744999999919
                },
                {
                    "name": "B3",
                    "midi": 59,
                    "time": 298.72447649999884,
                    "velocity": 0.33858267716535434,
                    "duration": 0.0996744999999919
                },
                {
                    "name": "A#3",
                    "midi": 58,
                    "time": 298.82415099999884,
                    "velocity": 0.3700787401574803,
                    "duration": 0.0996744999999919
                },
                {
                    "name": "B3",
                    "midi": 59,
                    "time": 298.9238254999988,
                    "velocity": 0.33858267716535434,
                    "duration": 0.0996744999999919
                },
                {
                    "name": "A#3",
                    "midi": 58,
                    "time": 299.0234999999988,
                    "velocity": 0.3700787401574803,
                    "duration": 0.0996744999999919
                },
                {
                    "name": "B3",
                    "midi": 59,
                    "time": 299.1231744999988,
                    "velocity": 0.33858267716535434,
                    "duration": 0.0996744999999919
                },
                {
                    "name": "G2",
                    "midi": 43,
                    "time": 299.2228489999988,
                    "velocity": 0.5275590551181102,
                    "duration": 0.0996744999999919
                },
                {
                    "name": "G3",
                    "midi": 55,
                    "time": 299.3225234999988,
                    "velocity": 0.36220472440944884,
                    "duration": 0.0996744999999919
                },
                {
                    "name": "F#3",
                    "midi": 54,
                    "time": 299.4221979999988,
                    "velocity": 0.3937007874015748,
                    "duration": 0.0996744999999919
                },
                {
                    "name": "G3",
                    "midi": 55,
                    "time": 299.5218724999988,
                    "velocity": 0.36220472440944884,
                    "duration": 0.0996744999999919
                },
                {
                    "name": "F#3",
                    "midi": 54,
                    "time": 299.62154699999877,
                    "velocity": 0.4015748031496063,
                    "duration": 0.0996744999999919
                },
                {
                    "name": "G3",
                    "midi": 55,
                    "time": 299.72122149999876,
                    "velocity": 0.36220472440944884,
                    "duration": 0.0996744999999919
                },
                {
                    "name": "A2",
                    "midi": 45,
                    "time": 299.82089599999875,
                    "velocity": 0.4330708661417323,
                    "duration": 0.0996744999999919
                },
                {
                    "name": "A3",
                    "midi": 57,
                    "time": 299.92057049999875,
                    "velocity": 0.36220472440944884,
                    "duration": 0.0996744999999919
                },
                {
                    "name": "G#3",
                    "midi": 56,
                    "time": 300.02024499999874,
                    "velocity": 0.3858267716535433,
                    "duration": 0.0996744999999919
                },
                {
                    "name": "A3",
                    "midi": 57,
                    "time": 300.11991949999873,
                    "velocity": 0.36220472440944884,
                    "duration": 0.0996744999999919
                },
                {
                    "name": "G#3",
                    "midi": 56,
                    "time": 300.2195939999987,
                    "velocity": 0.3937007874015748,
                    "duration": 0.0996744999999919
                },
                {
                    "name": "A3",
                    "midi": 57,
                    "time": 300.3192684999987,
                    "velocity": 0.36220472440944884,
                    "duration": 0.0996744999999919
                },
                {
                    "name": "C#4",
                    "midi": 61,
                    "time": 301.6150369999987,
                    "velocity": 0.2992125984251969,
                    "duration": 0.1993489999999838
                },
                {
                    "name": "A3",
                    "midi": 57,
                    "time": 301.6150369999987,
                    "velocity": 0.25196850393700787,
                    "duration": 0.1993489999999838
                },
                {
                    "name": "D4",
                    "midi": 62,
                    "time": 302.8111309999987,
                    "velocity": 0.3228346456692913,
                    "duration": 0.1993489999999838
                },
                {
                    "name": "D3",
                    "midi": 50,
                    "time": 302.8111309999987,
                    "velocity": 0.2677165354330709,
                    "duration": 0.1993489999999838
                },
                {
                    "name": "A3",
                    "midi": 57,
                    "time": 304.00722499999864,
                    "velocity": 0.3228346456692913,
                    "duration": 0.1993489999999838
                },
                {
                    "name": "E4",
                    "midi": 64,
                    "time": 304.00722499999864,
                    "velocity": 0.3779527559055118,
                    "duration": 0.1993489999999838
                },
                {
                    "name": "C#4",
                    "midi": 61,
                    "time": 304.00722499999864,
                    "velocity": 0.3228346456692913,
                    "duration": 0.1993489999999838
                },
                {
                    "name": "F#4",
                    "midi": 66,
                    "time": 305.2033189999986,
                    "velocity": 0.4566929133858268,
                    "duration": 0.1993489999999838
                },
                {
                    "name": "D4",
                    "midi": 62,
                    "time": 305.2033189999986,
                    "velocity": 0.3779527559055118,
                    "duration": 0.1993489999999838
                },
                {
                    "name": "D4",
                    "midi": 62,
                    "time": 306.39941299999856,
                    "velocity": 0.2283464566929134,
                    "duration": 0.5980470000000082
                },
                {
                    "name": "F#4",
                    "midi": 66,
                    "time": 306.39941299999856,
                    "velocity": 0.2755905511811024,
                    "duration": 0.5980470000000082
                },
                {
                    "name": "G#4",
                    "midi": 68,
                    "time": 306.99745999999857,
                    "velocity": 0.2755905511811024,
                    "duration": 0.5980470000000082
                },
                {
                    "name": "B3",
                    "midi": 59,
                    "time": 306.99745999999857,
                    "velocity": 0.2283464566929134,
                    "duration": 0.5980470000000082
                },
                {
                    "name": "A4",
                    "midi": 69,
                    "time": 307.5955069999986,
                    "velocity": 0.2755905511811024,
                    "duration": 0.5980470000000082
                },
                {
                    "name": "A3",
                    "midi": 57,
                    "time": 307.5955069999986,
                    "velocity": 0.2283464566929134,
                    "duration": 0.5980470000000082
                },
                {
                    "name": "E4",
                    "midi": 64,
                    "time": 308.7916009999986,
                    "velocity": 0.2755905511811024,
                    "duration": 0.5980470000000082
                },
                {
                    "name": "A3",
                    "midi": 57,
                    "time": 308.7916009999986,
                    "velocity": 0.2283464566929134,
                    "duration": 0.5980470000000082
                },
                {
                    "name": "C#4",
                    "midi": 61,
                    "time": 309.3896479999986,
                    "velocity": 0.2283464566929134,
                    "duration": 0.5980470000000082
                },
                {
                    "name": "E4",
                    "midi": 64,
                    "time": 309.3896479999986,
                    "velocity": 0.2755905511811024,
                    "duration": 0.5980470000000082
                },
                {
                    "name": "D4",
                    "midi": 62,
                    "time": 309.9876949999986,
                    "velocity": 0.2283464566929134,
                    "duration": 0.5980470000000082
                },
                {
                    "name": "A4",
                    "midi": 69,
                    "time": 309.9876949999986,
                    "velocity": 0.2755905511811024,
                    "duration": 0.5980470000000082
                },
                {
                    "name": "D3",
                    "midi": 50,
                    "time": 310.5857419999986,
                    "velocity": 0.4015748031496063,
                    "duration": 0.1993489999999838
                },
                {
                    "name": "D4",
                    "midi": 62,
                    "time": 310.7850909999986,
                    "velocity": 0.3543307086614173,
                    "duration": 0.0996744999999919
                },
                {
                    "name": "E4",
                    "midi": 64,
                    "time": 310.9844399999986,
                    "velocity": 0.3779527559055118,
                    "duration": 0.0996744999999919
                },
                {
                    "name": "F#4",
                    "midi": 66,
                    "time": 311.18378899999857,
                    "velocity": 0.4094488188976378,
                    "duration": 0.1993489999999838
                },
                {
                    "name": "G3",
                    "midi": 55,
                    "time": 311.7818359999986,
                    "velocity": 0.3937007874015748,
                    "duration": 0.1993489999999838
                },
                {
                    "name": "G4",
                    "midi": 67,
                    "time": 311.98118499999856,
                    "velocity": 0.3464566929133858,
                    "duration": 0.0996744999999919
                },
                {
                    "name": "A4",
                    "midi": 69,
                    "time": 312.18053399999854,
                    "velocity": 0.3779527559055118,
                    "duration": 0.0996744999999919
                },
                {
                    "name": "B4",
                    "midi": 71,
                    "time": 312.37988299999853,
                    "velocity": 0.41732283464566927,
                    "duration": 0.1993489999999838
                },
                {
                    "name": "B3",
                    "midi": 59,
                    "time": 312.97792999999854,
                    "velocity": 0.3543307086614173,
                    "duration": 0.1993489999999838
                },
                {
                    "name": "E4",
                    "midi": 64,
                    "time": 312.97792999999854,
                    "velocity": 0.41732283464566927,
                    "duration": 0.1993489999999838
                },
                {
                    "name": "G3",
                    "midi": 55,
                    "time": 312.97792999999854,
                    "velocity": 0.3543307086614173,
                    "duration": 0.1993489999999838
                },
                {
                    "name": "D4",
                    "midi": 62,
                    "time": 313.57597699999855,
                    "velocity": 0.3543307086614173,
                    "duration": 0.0996744999999919
                },
                {
                    "name": "A3",
                    "midi": 57,
                    "time": 313.57597699999855,
                    "velocity": 0.3543307086614173,
                    "duration": 0.0996744999999919
                },
                {
                    "name": "F#4",
                    "midi": 66,
                    "time": 313.5842832083319,
                    "velocity": 0.41732283464566927,
                    "duration": 0.0996744999999919
                },
                {
                    "name": "E4",
                    "midi": 64,
                    "time": 314.17402399999855,
                    "velocity": 0.3543307086614173,
                    "duration": 0.0996744999999919
                },
                {
                    "name": "A3",
                    "midi": 57,
                    "time": 314.17402399999855,
                    "velocity": 0.3543307086614173,
                    "duration": 0.0996744999999919
                },
                {
                    "name": "G4",
                    "midi": 67,
                    "time": 314.1823302083319,
                    "velocity": 0.41732283464566927,
                    "duration": 0.0996744999999919
                },
                {
                    "name": "F#4",
                    "midi": 66,
                    "time": 314.77207099999856,
                    "velocity": 0.41732283464566927,
                    "duration": 0.0996744999999919
                },
                {
                    "name": "D4",
                    "midi": 62,
                    "time": 314.77207099999856,
                    "velocity": 0.3543307086614173,
                    "duration": 0.0996744999999919
                },
                {
                    "name": "D2",
                    "midi": 38,
                    "time": 315.17076899999853,
                    "velocity": 0.3543307086614173,
                    "duration": 0.0996744999999919
                },
                {
                    "name": "F#2",
                    "midi": 42,
                    "time": 315.2704434999985,
                    "velocity": 0.3543307086614173,
                    "duration": 0.0996744999999919
                },
                {
                    "name": "A2",
                    "midi": 45,
                    "time": 315.3701179999985,
                    "velocity": 0.4094488188976378,
                    "duration": 0.0996744999999919
                },
                {
                    "name": "F#2",
                    "midi": 42,
                    "time": 315.7688159999985,
                    "velocity": 0.3779527559055118,
                    "duration": 0.0996744999999919
                },
                {
                    "name": "A2",
                    "midi": 45,
                    "time": 315.8684904999985,
                    "velocity": 0.3779527559055118,
                    "duration": 0.0996744999999919
                },
                {
                    "name": "D3",
                    "midi": 50,
                    "time": 315.96816499999846,
                    "velocity": 0.44881889763779526,
                    "duration": 0.0996744999999919
                },
                {
                    "name": "A2",
                    "midi": 45,
                    "time": 316.36686299999843,
                    "velocity": 0.4015748031496063,
                    "duration": 0.0996744999999919
                },
                {
                    "name": "D3",
                    "midi": 50,
                    "time": 316.4665374999984,
                    "velocity": 0.4015748031496063,
                    "duration": 0.0996744999999919
                },
                {
                    "name": "F#3",
                    "midi": 54,
                    "time": 316.5662119999984,
                    "velocity": 0.44881889763779526,
                    "duration": 0.0996744999999919
                },
                {
                    "name": "D3",
                    "midi": 50,
                    "time": 316.9649099999984,
                    "velocity": 0.3779527559055118,
                    "duration": 0.0996744999999919
                },
                {
                    "name": "F#3",
                    "midi": 54,
                    "time": 317.0645844999984,
                    "velocity": 0.3779527559055118,
                    "duration": 0.0996744999999919
                },
                {
                    "name": "A3",
                    "midi": 57,
                    "time": 317.16425899999837,
                    "velocity": 0.44881889763779526,
                    "duration": 0.0996744999999919
                },
                {
                    "name": "A3",
                    "midi": 57,
                    "time": 318.3603529999984,
                    "velocity": 0.2283464566929134,
                    "duration": 1.3954430000000002
                },
                {
                    "name": "F#4",
                    "midi": 66,
                    "time": 318.3603529999984,
                    "velocity": 0.2755905511811024,
                    "duration": 0.5980470000000082
                },
                {
                    "name": "D4",
                    "midi": 62,
                    "time": 318.3603529999984,
                    "velocity": 0.2283464566929134,
                    "duration": 0.5980470000000082
                },
                {
                    "name": "E4",
                    "midi": 64,
                    "time": 318.9583999999984,
                    "velocity": 0.2125984251968504,
                    "duration": 0.5980470000000082
                },
                {
                    "name": "G4",
                    "midi": 67,
                    "time": 318.9583999999984,
                    "velocity": 0.25196850393700787,
                    "duration": 0.5980470000000082
                },
                {
                    "name": "D4",
                    "midi": 62,
                    "time": 319.5564469999984,
                    "velocity": 0.2283464566929134,
                    "duration": 0.1993489999999838
                },
                {
                    "name": "F#4",
                    "midi": 66,
                    "time": 319.5564469999984,
                    "velocity": 0.2755905511811024,
                    "duration": 0.1993489999999838
                },
                {
                    "name": "A3",
                    "midi": 57,
                    "time": 320.75254099999836,
                    "velocity": 0.2283464566929134,
                    "duration": 1.3954430000000002
                },
                {
                    "name": "D4",
                    "midi": 62,
                    "time": 320.75254099999836,
                    "velocity": 0.2283464566929134,
                    "duration": 0.5980470000000082
                },
                {
                    "name": "F#4",
                    "midi": 66,
                    "time": 320.75254099999836,
                    "velocity": 0.2755905511811024,
                    "duration": 0.5980470000000082
                },
                {
                    "name": "G4",
                    "midi": 67,
                    "time": 321.35058799999837,
                    "velocity": 0.25196850393700787,
                    "duration": 0.5980470000000082
                },
                {
                    "name": "E4",
                    "midi": 64,
                    "time": 321.35058799999837,
                    "velocity": 0.2125984251968504,
                    "duration": 0.5980470000000082
                },
                {
                    "name": "D4",
                    "midi": 62,
                    "time": 321.9486349999984,
                    "velocity": 0.2283464566929134,
                    "duration": 0.1993489999999838
                },
                {
                    "name": "F#4",
                    "midi": 66,
                    "time": 321.9486349999984,
                    "velocity": 0.2755905511811024,
                    "duration": 0.1993489999999838
                },
                {
                    "name": "A3",
                    "midi": 57,
                    "time": 323.14472899999834,
                    "velocity": 0.2283464566929134,
                    "duration": 1.1960940000000164
                },
                {
                    "name": "D4",
                    "midi": 62,
                    "time": 323.14472899999834,
                    "velocity": 0.2283464566929134,
                    "duration": 0.5980470000000082
                },
                {
                    "name": "F#4",
                    "midi": 66,
                    "time": 323.14472899999834,
                    "velocity": 0.2755905511811024,
                    "duration": 0.5980470000000082
                },
                {
                    "name": "G4",
                    "midi": 67,
                    "time": 323.74277599999834,
                    "velocity": 0.25196850393700787,
                    "duration": 0.5980470000000082
                },
                {
                    "name": "E4",
                    "midi": 64,
                    "time": 323.74277599999834,
                    "velocity": 0.2125984251968504,
                    "duration": 0.5980470000000082
                },
                {
                    "name": "D4",
                    "midi": 62,
                    "time": 324.34082299999835,
                    "velocity": 0.1889763779527559,
                    "duration": 0.1993489999999838
                },
                {
                    "name": "F#4",
                    "midi": 66,
                    "time": 324.34082299999835,
                    "velocity": 0.25196850393700787,
                    "duration": 0.1993489999999838
                },
                {
                    "name": "B2",
                    "midi": 47,
                    "time": 324.93886999999836,
                    "velocity": 0.2755905511811024,
                    "duration": 0.5980470000000082
                },
                {
                    "name": "G2",
                    "midi": 43,
                    "time": 325.53691699999837,
                    "velocity": 0.29133858267716534,
                    "duration": 0.5980470000000082
                },
                {
                    "name": "A2",
                    "midi": 45,
                    "time": 326.1349639999984,
                    "velocity": 0.30708661417322836,
                    "duration": 0.5980470000000082
                },
                {
                    "name": "D2",
                    "midi": 38,
                    "time": 326.7330109999984,
                    "velocity": 0.2755905511811024,
                    "duration": 0.1993489999999838
                },
                {
                    "name": "B2",
                    "midi": 47,
                    "time": 327.3310579999984,
                    "velocity": 0.3937007874015748,
                    "duration": 0.0996744999999919
                },
                {
                    "name": "B3",
                    "midi": 59,
                    "time": 327.3310579999984,
                    "velocity": 0.47244094488188976,
                    "duration": 0.0996744999999919
                },
                {
                    "name": "B2",
                    "midi": 47,
                    "time": 327.5304069999984,
                    "velocity": 0.3543307086614173,
                    "duration": 0.0996744999999919
                },
                {
                    "name": "B3",
                    "midi": 59,
                    "time": 327.5304069999984,
                    "velocity": 0.41732283464566927,
                    "duration": 0.0996744999999919
                },
                {
                    "name": "B2",
                    "midi": 47,
                    "time": 327.72975599999836,
                    "velocity": 0.36220472440944884,
                    "duration": 0.0996744999999919
                },
                {
                    "name": "B3",
                    "midi": 59,
                    "time": 327.72975599999836,
                    "velocity": 0.4330708661417323,
                    "duration": 0.0996744999999919
                },
                {
                    "name": "G2",
                    "midi": 43,
                    "time": 327.92910499999834,
                    "velocity": 0.4645669291338583,
                    "duration": 0.0996744999999919
                },
                {
                    "name": "G3",
                    "midi": 55,
                    "time": 327.92910499999834,
                    "velocity": 0.5590551181102362,
                    "duration": 0.0996744999999919
                },
                {
                    "name": "G2",
                    "midi": 43,
                    "time": 328.1284539999983,
                    "velocity": 0.4094488188976378,
                    "duration": 0.0996744999999919
                },
                {
                    "name": "G3",
                    "midi": 55,
                    "time": 328.1284539999983,
                    "velocity": 0.49606299212598426,
                    "duration": 0.0996744999999919
                },
                {
                    "name": "G2",
                    "midi": 43,
                    "time": 328.3278029999983,
                    "velocity": 0.4330708661417323,
                    "duration": 0.0996744999999919
                },
                {
                    "name": "G3",
                    "midi": 55,
                    "time": 328.3278029999983,
                    "velocity": 0.5196850393700787,
                    "duration": 0.0996744999999919
                },
                {
                    "name": "A2",
                    "midi": 45,
                    "time": 328.5271519999983,
                    "velocity": 0.5275590551181102,
                    "duration": 0.0996744999999919
                },
                {
                    "name": "A3",
                    "midi": 57,
                    "time": 328.5271519999983,
                    "velocity": 0.6299212598425197,
                    "duration": 0.0996744999999919
                },
                {
                    "name": "A2",
                    "midi": 45,
                    "time": 328.7265009999983,
                    "velocity": 0.48031496062992124,
                    "duration": 0.0996744999999919
                },
                {
                    "name": "A3",
                    "midi": 57,
                    "time": 328.7265009999983,
                    "velocity": 0.5669291338582677,
                    "duration": 0.0996744999999919
                },
                {
                    "name": "A2",
                    "midi": 45,
                    "time": 328.92584999999826,
                    "velocity": 0.4881889763779528,
                    "duration": 0.0996744999999919
                },
                {
                    "name": "A3",
                    "midi": 57,
                    "time": 328.92584999999826,
                    "velocity": 0.5826771653543307,
                    "duration": 0.0996744999999919
                },
                {
                    "name": "D2",
                    "midi": 38,
                    "time": 329.12519899999825,
                    "velocity": 0.6141732283464567,
                    "duration": 0.0996744999999919
                },
                {
                    "name": "D3",
                    "midi": 50,
                    "time": 329.12519899999825,
                    "velocity": 0.7322834645669292,
                    "duration": 0.0996744999999919
                },
                {
                    "name": "D2",
                    "midi": 38,
                    "time": 329.72324599999826,
                    "velocity": 0.5669291338582677,
                    "duration": 0.0996744999999919
                },
                {
                    "name": "A2",
                    "midi": 45,
                    "time": 329.72324599999826,
                    "velocity": 0.5669291338582677,
                    "duration": 0.0996744999999919
                },
                {
                    "name": "F#2",
                    "midi": 42,
                    "time": 329.72324599999826,
                    "velocity": 0.5669291338582677,
                    "duration": 0.0996744999999919
                },
                {
                    "name": "D3",
                    "midi": 50,
                    "time": 329.72324599999826,
                    "velocity": 0.6692913385826772,
                    "duration": 0.0996744999999919
                },
                {
                    "name": "D2",
                    "midi": 38,
                    "time": 330.32129299999826,
                    "velocity": 0.5669291338582677,
                    "duration": 0.0996744999999919
                },
                {
                    "name": "F#2",
                    "midi": 42,
                    "time": 330.32129299999826,
                    "velocity": 0.5669291338582677,
                    "duration": 0.0996744999999919
                },
                {
                    "name": "A2",
                    "midi": 45,
                    "time": 330.32129299999826,
                    "velocity": 0.5669291338582677,
                    "duration": 0.0996744999999919
                },
                {
                    "name": "D3",
                    "midi": 50,
                    "time": 330.32129299999826,
                    "velocity": 0.6692913385826772,
                    "duration": 0.0996744999999919
                }
            ],
            "controlChanges": {
                "7": [
                    {
                        "number": 7,
                        "time": 0,
                        "value": 0.7874015748031497
                    }
                ],
                "10": [
                    {
                        "number": 10,
                        "time": 0,
                        "value": 0.5039370078740157
                    }
                ]
            },
            "id": 2,
            "name": "Piano left",
            "instrumentNumber": 0,
            "instrument": "acoustic grand piano",
            "instrumentFamily": "piano",
            "channelNumber": 0,
            "isPercussion": false
        },
        {
            "startTime": 0,
            "duration": 0,
            "length": 0,
            "notes": [],
            "controlChanges": {
                "64": [
                    {
                        "number": 64,
                        "time": 0.5041868458333333,
                        "value": 1
                    },
                    {
                        "number": 64,
                        "time": 1.0939276374999998,
                        "value": 0
                    },
                    {
                        "number": 64,
                        "time": 2.477741945833333,
                        "value": 1
                    },
                    {
                        "number": 64,
                        "time": 2.7975309666666663,
                        "value": 0
                    },
                    {
                        "number": 64,
                        "time": 2.9553489249999996,
                        "value": 1
                    },
                    {
                        "number": 64,
                        "time": 3.4038841749999995,
                        "value": 0
                    },
                    {
                        "number": 64,
                        "time": 4.8699299458333325,
                        "value": 1
                    },
                    {
                        "number": 64,
                        "time": 5.190549587499999,
                        "value": 0
                    },
                    {
                        "number": 64,
                        "time": 10.072938845833331,
                        "value": 1
                    },
                    {
                        "number": 64,
                        "time": 10.662679637499998,
                        "value": 0
                    },
                    {
                        "number": 64,
                        "time": 12.046493945833332,
                        "value": 1
                    },
                    {
                        "number": 64,
                        "time": 12.366282966666665,
                        "value": 0
                    },
                    {
                        "number": 64,
                        "time": 12.524100924999999,
                        "value": 1
                    },
                    {
                        "number": 64,
                        "time": 12.972636174999998,
                        "value": 0
                    },
                    {
                        "number": 64,
                        "time": 14.43868194583333,
                        "value": 1
                    },
                    {
                        "number": 64,
                        "time": 14.759301587499998,
                        "value": 0
                    },
                    {
                        "number": 64,
                        "time": 19.55945938333333,
                        "value": 1
                    },
                    {
                        "number": 64,
                        "time": 19.777082041666663,
                        "value": 0
                    },
                    {
                        "number": 64,
                        "time": 20.187408733333328,
                        "value": 1
                    },
                    {
                        "number": 64,
                        "time": 20.34522669166666,
                        "value": 0
                    },
                    {
                        "number": 64,
                        "time": 20.75555338333333,
                        "value": 1
                    },
                    {
                        "number": 64,
                        "time": 20.96736169583333,
                        "value": 0
                    },
                    {
                        "number": 64,
                        "time": 21.360245349999996,
                        "value": 1
                    },
                    {
                        "number": 64,
                        "time": 21.577037387499995,
                        "value": 0
                    },
                    {
                        "number": 64,
                        "time": 29.359954595833326,
                        "value": 1
                    },
                    {
                        "number": 64,
                        "time": 29.90650310416666,
                        "value": 0
                    },
                    {
                        "number": 64,
                        "time": 30.024451262499994,
                        "value": 1
                    },
                    {
                        "number": 64,
                        "time": 30.510364449999994,
                        "value": 0
                    },
                    {
                        "number": 64,
                        "time": 30.777824358333326,
                        "value": 1
                    },
                    {
                        "number": 64,
                        "time": 31.113395174999994,
                        "value": 0
                    },
                    {
                        "number": 64,
                        "time": 39.47110199999999,
                        "value": 1
                    },
                    {
                        "number": 64,
                        "time": 39.681249070833324,
                        "value": 0
                    },
                    {
                        "number": 64,
                        "time": 39.746868116666654,
                        "value": 1
                    },
                    {
                        "number": 64,
                        "time": 39.87727558749999,
                        "value": 0
                    },
                    {
                        "number": 64,
                        "time": 39.90800855833332,
                        "value": 1
                    },
                    {
                        "number": 64,
                        "time": 40.074963345833325,
                        "value": 0
                    },
                    {
                        "number": 64,
                        "time": 40.149719220833326,
                        "value": 1
                    },
                    {
                        "number": 64,
                        "time": 40.27763482916666,
                        "value": 0
                    },
                    {
                        "number": 64,
                        "time": 40.33993139166666,
                        "value": 1
                    },
                    {
                        "number": 64,
                        "time": 40.47615320833333,
                        "value": 0
                    },
                    {
                        "number": 64,
                        "time": 40.5251598375,
                        "value": 1
                    },
                    {
                        "number": 64,
                        "time": 40.667196,
                        "value": 0
                    },
                    {
                        "number": 64,
                        "time": 40.7145413875,
                        "value": 1
                    },
                    {
                        "number": 64,
                        "time": 40.875681829166666,
                        "value": 0
                    },
                    {
                        "number": 64,
                        "time": 40.95708267083333,
                        "value": 1
                    },
                    {
                        "number": 64,
                        "time": 41.07004710416666,
                        "value": 0
                    },
                    {
                        "number": 64,
                        "time": 41.12320683749999,
                        "value": 1
                    },
                    {
                        "number": 64,
                        "time": 41.275210449999996,
                        "value": 0
                    },
                    {
                        "number": 64,
                        "time": 41.3225558375,
                        "value": 1
                    },
                    {
                        "number": 64,
                        "time": 41.47455945,
                        "value": 0
                    },
                    {
                        "number": 64,
                        "time": 41.5268885625,
                        "value": 1
                    },
                    {
                        "number": 64,
                        "time": 41.673077829166665,
                        "value": 0
                    },
                    {
                        "number": 64,
                        "time": 41.74035811666666,
                        "value": 1
                    },
                    {
                        "number": 64,
                        "time": 41.87325745,
                        "value": 0
                    },
                    {
                        "number": 64,
                        "time": 41.92973966666666,
                        "value": 1
                    },
                    {
                        "number": 64,
                        "time": 42.068453345833326,
                        "value": 0
                    },
                    {
                        "number": 64,
                        "time": 42.134072391666656,
                        "value": 1
                    },
                    {
                        "number": 64,
                        "time": 42.276108554166655,
                        "value": 0
                    },
                    {
                        "number": 64,
                        "time": 42.32843766666665,
                        "value": 1
                    },
                    {
                        "number": 64,
                        "time": 42.465490104166655,
                        "value": 0
                    },
                    {
                        "number": 64,
                        "time": 42.51366611249999,
                        "value": 1
                    },
                    {
                        "number": 64,
                        "time": 42.67314531249999,
                        "value": 0
                    },
                    {
                        "number": 64,
                        "time": 42.71799883749999,
                        "value": 1
                    },
                    {
                        "number": 64,
                        "time": 42.87083307083332,
                        "value": 0
                    },
                    {
                        "number": 64,
                        "time": 42.907380387499984,
                        "value": 1
                    },
                    {
                        "number": 64,
                        "time": 43.06436772499998,
                        "value": 0
                    },
                    {
                        "number": 64,
                        "time": 43.10257628333331,
                        "value": 1
                    },
                    {
                        "number": 64,
                        "time": 43.267039208333316,
                        "value": 0
                    },
                    {
                        "number": 64,
                        "time": 43.32518266666665,
                        "value": 1
                    },
                    {
                        "number": 64,
                        "time": 43.46223510416665,
                        "value": 0
                    },
                    {
                        "number": 64,
                        "time": 43.520378562499985,
                        "value": 1
                    },
                    {
                        "number": 64,
                        "time": 43.66573720833332,
                        "value": 0
                    },
                    {
                        "number": 64,
                        "time": 43.709760112499985,
                        "value": 1
                    },
                    {
                        "number": 64,
                        "time": 43.86508620833332,
                        "value": 0
                    },
                    {
                        "number": 64,
                        "time": 43.90993973333332,
                        "value": 1
                    },
                    {
                        "number": 64,
                        "time": 44.06277396666665,
                        "value": 0
                    },
                    {
                        "number": 64,
                        "time": 44.12756239166665,
                        "value": 1
                    },
                    {
                        "number": 64,
                        "time": 44.260461724999985,
                        "value": 0
                    },
                    {
                        "number": 64,
                        "time": 44.341031945833315,
                        "value": 1
                    },
                    {
                        "number": 64,
                        "time": 44.46064134583332,
                        "value": 0
                    },
                    {
                        "number": 64,
                        "time": 44.50217238749998,
                        "value": 1
                    },
                    {
                        "number": 64,
                        "time": 44.66497407083332,
                        "value": 0
                    },
                    {
                        "number": 64,
                        "time": 44.69736828333332,
                        "value": 1
                    },
                    {
                        "number": 64,
                        "time": 44.86349244999999,
                        "value": 0
                    },
                    {
                        "number": 64,
                        "time": 44.93907894583332,
                        "value": 1
                    },
                    {
                        "number": 64,
                        "time": 45.062841449999986,
                        "value": 0
                    },
                    {
                        "number": 64,
                        "time": 45.13344422083332,
                        "value": 1
                    },
                    {
                        "number": 64,
                        "time": 45.26052920833332,
                        "value": 0
                    },
                    {
                        "number": 64,
                        "time": 45.29956838749998,
                        "value": 1
                    },
                    {
                        "number": 64,
                        "time": 45.455725104166646,
                        "value": 0
                    },
                    {
                        "number": 64,
                        "time": 45.50390111249998,
                        "value": 1
                    },
                    {
                        "number": 64,
                        "time": 45.66088844999998,
                        "value": 0
                    },
                    {
                        "number": 64,
                        "time": 45.70325011249998,
                        "value": 1
                    },
                    {
                        "number": 64,
                        "time": 45.85691496666664,
                        "value": 0
                    },
                    {
                        "number": 64,
                        "time": 45.90259911249998,
                        "value": 1
                    },
                    {
                        "number": 64,
                        "time": 46.059586449999976,
                        "value": 0
                    },
                    {
                        "number": 64,
                        "time": 46.13517294583331,
                        "value": 1
                    },
                    {
                        "number": 64,
                        "time": 46.25644358749998,
                        "value": 0
                    },
                    {
                        "number": 64,
                        "time": 46.30545021666665,
                        "value": 1
                    },
                    {
                        "number": 64,
                        "time": 46.46077631249998,
                        "value": 0
                    },
                    {
                        "number": 64,
                        "time": 46.51975039166665,
                        "value": 1
                    },
                    {
                        "number": 64,
                        "time": 46.64766599999998,
                        "value": 0
                    },
                    {
                        "number": 64,
                        "time": 46.70497883749998,
                        "value": 1
                    },
                    {
                        "number": 64,
                        "time": 46.855321208333315,
                        "value": 0
                    },
                    {
                        "number": 64,
                        "time": 46.89934411249998,
                        "value": 1
                    },
                    {
                        "number": 64,
                        "time": 47.05550082916665,
                        "value": 0
                    },
                    {
                        "number": 64,
                        "time": 47.09869311249998,
                        "value": 1
                    },
                    {
                        "number": 64,
                        "time": 47.25568044999998,
                        "value": 0
                    },
                    {
                        "number": 64,
                        "time": 47.312162666666644,
                        "value": 1
                    },
                    {
                        "number": 64,
                        "time": 47.45336820833331,
                        "value": 0
                    },
                    {
                        "number": 64,
                        "time": 47.497391112499976,
                        "value": 1
                    },
                    {
                        "number": 64,
                        "time": 47.843759999999975,
                        "value": 0
                    },
                    {
                        "number": 64,
                        "time": 67.02860938749997,
                        "value": 1
                    },
                    {
                        "number": 64,
                        "time": 67.5851253458333,
                        "value": 0
                    },
                    {
                        "number": 64,
                        "time": 67.66735680833331,
                        "value": 1
                    },
                    {
                        "number": 64,
                        "time": 68.19397041666664,
                        "value": 0
                    },
                    {
                        "number": 64,
                        "time": 68.2579282208333,
                        "value": 1
                    },
                    {
                        "number": 64,
                        "time": 68.67573049999997,
                        "value": 0
                    },
                    {
                        "number": 64,
                        "time": 68.78952555416664,
                        "value": 1
                    },
                    {
                        "number": 64,
                        "time": 69.37345199999997,
                        "value": 0
                    },
                    {
                        "number": 64,
                        "time": 70.58615841666663,
                        "value": 0
                    },
                    {
                        "number": 64,
                        "time": 70.6501162208333,
                        "value": 1
                    },
                    {
                        "number": 64,
                        "time": 71.06791849999996,
                        "value": 0
                    },
                    {
                        "number": 64,
                        "time": 71.18171355416663,
                        "value": 1
                    },
                    {
                        "number": 64,
                        "time": 71.76563999999996,
                        "value": 0
                    },
                    {
                        "number": 64,
                        "time": 76.59736138749996,
                        "value": 1
                    },
                    {
                        "number": 64,
                        "time": 77.1538773458333,
                        "value": 0
                    },
                    {
                        "number": 64,
                        "time": 77.2361088083333,
                        "value": 1
                    },
                    {
                        "number": 64,
                        "time": 77.76272241666663,
                        "value": 0
                    },
                    {
                        "number": 64,
                        "time": 77.8266802208333,
                        "value": 1
                    },
                    {
                        "number": 64,
                        "time": 78.1257037208333,
                        "value": 0
                    },
                    {
                        "number": 64,
                        "time": 78.35827755416663,
                        "value": 1
                    },
                    {
                        "number": 64,
                        "time": 78.94220399999996,
                        "value": 0
                    },
                    {
                        "number": 64,
                        "time": 80.15491041666662,
                        "value": 0
                    },
                    {
                        "number": 64,
                        "time": 80.21886822083329,
                        "value": 1
                    },
                    {
                        "number": 64,
                        "time": 80.51789172083329,
                        "value": 0
                    },
                    {
                        "number": 64,
                        "time": 80.75046555416662,
                        "value": 1
                    },
                    {
                        "number": 64,
                        "time": 81.33439199999995,
                        "value": 0
                    },
                    {
                        "number": 64,
                        "time": 89.76934656249995,
                        "value": 1
                    },
                    {
                        "number": 64,
                        "time": 90.32918500416662,
                        "value": 0
                    },
                    {
                        "number": 64,
                        "time": 90.37653039166662,
                        "value": 1
                    },
                    {
                        "number": 64,
                        "time": 90.91975641666662,
                        "value": 0
                    },
                    {
                        "number": 64,
                        "time": 90.95215062916661,
                        "value": 1
                    },
                    {
                        "number": 64,
                        "time": 91.30765634583328,
                        "value": 0
                    },
                    {
                        "number": 64,
                        "time": 91.31928503749995,
                        "value": 1
                    },
                    {
                        "number": 64,
                        "time": 91.50783596666662,
                        "value": 0
                    },
                    {
                        "number": 64,
                        "time": 91.52195652083329,
                        "value": 1
                    },
                    {
                        "number": 64,
                        "time": 91.91068707083329,
                        "value": 0
                    },
                    {
                        "number": 64,
                        "time": 91.92397700416663,
                        "value": 1
                    },
                    {
                        "number": 64,
                        "time": 92.10339110416663,
                        "value": 0
                    },
                    {
                        "number": 64,
                        "time": 92.20389622499997,
                        "value": 1
                    },
                    {
                        "number": 64,
                        "time": 92.72137300416664,
                        "value": 0
                    },
                    {
                        "number": 64,
                        "time": 92.76871839166664,
                        "value": 1
                    },
                    {
                        "number": 64,
                        "time": 93.31194441666663,
                        "value": 0
                    },
                    {
                        "number": 64,
                        "time": 93.34433862916663,
                        "value": 1
                    },
                    {
                        "number": 64,
                        "time": 93.6998443458333,
                        "value": 0
                    },
                    {
                        "number": 64,
                        "time": 93.71147303749997,
                        "value": 1
                    },
                    {
                        "number": 64,
                        "time": 93.90002396666664,
                        "value": 0
                    },
                    {
                        "number": 64,
                        "time": 93.9141445208333,
                        "value": 1
                    },
                    {
                        "number": 64,
                        "time": 94.30287507083331,
                        "value": 0
                    },
                    {
                        "number": 64,
                        "time": 94.31616500416665,
                        "value": 1
                    },
                    {
                        "number": 64,
                        "time": 94.49142599999998,
                        "value": 0
                    },
                    {
                        "number": 64,
                        "time": 103.36827084583331,
                        "value": 1
                    },
                    {
                        "number": 64,
                        "time": 103.95801163749998,
                        "value": 0
                    },
                    {
                        "number": 64,
                        "time": 105.3418259458333,
                        "value": 1
                    },
                    {
                        "number": 64,
                        "time": 105.66161496666663,
                        "value": 0
                    },
                    {
                        "number": 64,
                        "time": 105.81943292499997,
                        "value": 1
                    },
                    {
                        "number": 64,
                        "time": 106.26796817499998,
                        "value": 0
                    },
                    {
                        "number": 64,
                        "time": 107.73401394583331,
                        "value": 1
                    },
                    {
                        "number": 64,
                        "time": 108.05463358749998,
                        "value": 0
                    },
                    {
                        "number": 64,
                        "time": 112.93702284583331,
                        "value": 1
                    },
                    {
                        "number": 64,
                        "time": 113.52676363749998,
                        "value": 0
                    },
                    {
                        "number": 64,
                        "time": 114.91057794583331,
                        "value": 1
                    },
                    {
                        "number": 64,
                        "time": 115.23036696666664,
                        "value": 0
                    },
                    {
                        "number": 64,
                        "time": 115.38818492499998,
                        "value": 1
                    },
                    {
                        "number": 64,
                        "time": 115.83672017499998,
                        "value": 0
                    },
                    {
                        "number": 64,
                        "time": 117.30276594583331,
                        "value": 1
                    },
                    {
                        "number": 64,
                        "time": 117.62338558749998,
                        "value": 0
                    },
                    {
                        "number": 64,
                        "time": 122.42354338333331,
                        "value": 1
                    },
                    {
                        "number": 64,
                        "time": 122.64116604166665,
                        "value": 0
                    },
                    {
                        "number": 64,
                        "time": 123.05149273333332,
                        "value": 1
                    },
                    {
                        "number": 64,
                        "time": 123.20931069166666,
                        "value": 0
                    },
                    {
                        "number": 64,
                        "time": 123.61963738333333,
                        "value": 1
                    },
                    {
                        "number": 64,
                        "time": 123.83144569583332,
                        "value": 0
                    },
                    {
                        "number": 64,
                        "time": 124.22432934999999,
                        "value": 1
                    },
                    {
                        "number": 64,
                        "time": 124.44112138749999,
                        "value": 0
                    },
                    {
                        "number": 64,
                        "time": 132.22403859583332,
                        "value": 1
                    },
                    {
                        "number": 64,
                        "time": 132.77058710416665,
                        "value": 0
                    },
                    {
                        "number": 64,
                        "time": 132.88853526249997,
                        "value": 1
                    },
                    {
                        "number": 64,
                        "time": 133.37444844999996,
                        "value": 0
                    },
                    {
                        "number": 64,
                        "time": 133.6419083583333,
                        "value": 1
                    },
                    {
                        "number": 64,
                        "time": 133.97747917499996,
                        "value": 0
                    },
                    {
                        "number": 64,
                        "time": 134.6162265958333,
                        "value": 1
                    },
                    {
                        "number": 64,
                        "time": 135.16277510416663,
                        "value": 0
                    },
                    {
                        "number": 64,
                        "time": 135.28072326249995,
                        "value": 1
                    },
                    {
                        "number": 64,
                        "time": 135.76663644999994,
                        "value": 0
                    },
                    {
                        "number": 64,
                        "time": 136.03409635833327,
                        "value": 1
                    },
                    {
                        "number": 64,
                        "time": 136.36966717499993,
                        "value": 0
                    },
                    {
                        "number": 64,
                        "time": 137.00841459583327,
                        "value": 1
                    },
                    {
                        "number": 64,
                        "time": 137.5549631041666,
                        "value": 0
                    },
                    {
                        "number": 64,
                        "time": 137.67291126249992,
                        "value": 1
                    },
                    {
                        "number": 64,
                        "time": 138.1588244499999,
                        "value": 0
                    },
                    {
                        "number": 64,
                        "time": 138.42628435833325,
                        "value": 1
                    },
                    {
                        "number": 64,
                        "time": 138.7618551749999,
                        "value": 0
                    },
                    {
                        "number": 64,
                        "time": 139.40060259583325,
                        "value": 1
                    },
                    {
                        "number": 64,
                        "time": 139.94715110416658,
                        "value": 0
                    },
                    {
                        "number": 64,
                        "time": 140.0650992624999,
                        "value": 1
                    },
                    {
                        "number": 64,
                        "time": 140.5510124499999,
                        "value": 0
                    },
                    {
                        "number": 64,
                        "time": 140.81847235833322,
                        "value": 1
                    },
                    {
                        "number": 64,
                        "time": 141.15404317499988,
                        "value": 0
                    },
                    {
                        "number": 64,
                        "time": 142.93904734583322,
                        "value": 1
                    },
                    {
                        "number": 64,
                        "time": 143.12676765416654,
                        "value": 0
                    },
                    {
                        "number": 64,
                        "time": 143.53127999999987,
                        "value": 1
                    },
                    {
                        "number": 64,
                        "time": 143.7190003083332,
                        "value": 0
                    },
                    {
                        "number": 64,
                        "time": 144.1351413458332,
                        "value": 1
                    },
                    {
                        "number": 64,
                        "time": 144.5313474833332,
                        "value": 0
                    },
                    {
                        "number": 64,
                        "time": 144.75727634999987,
                        "value": 1
                    },
                    {
                        "number": 64,
                        "time": 144.93585982916653,
                        "value": 0
                    },
                    {
                        "number": 64,
                        "time": 145.3287434833332,
                        "value": 1
                    },
                    {
                        "number": 64,
                        "time": 145.54221303749986,
                        "value": 0
                    },
                    {
                        "number": 64,
                        "time": 145.9442335208332,
                        "value": 1
                    },
                    {
                        "number": 64,
                        "time": 146.12863134583318,
                        "value": 0
                    },
                    {
                        "number": 64,
                        "time": 146.5572316958332,
                        "value": 1
                    },
                    {
                        "number": 64,
                        "time": 146.95260721249986,
                        "value": 0
                    },
                    {
                        "number": 64,
                        "time": 147.11956199999986,
                        "value": 1
                    },
                    {
                        "number": 64,
                        "time": 147.3272172083332,
                        "value": 0
                    },
                    {
                        "number": 64,
                        "time": 147.72840707083319,
                        "value": 1
                    },
                    {
                        "number": 64,
                        "time": 147.83057343333317,
                        "value": 0
                    },
                    {
                        "number": 64,
                        "time": 147.87791882083317,
                        "value": 1
                    },
                    {
                        "number": 64,
                        "time": 148.32562344999985,
                        "value": 0
                    },
                    {
                        "number": 64,
                        "time": 148.35220331666653,
                        "value": 1
                    },
                    {
                        "number": 64,
                        "time": 148.5258030708332,
                        "value": 0
                    },
                    {
                        "number": 64,
                        "time": 148.9195173458332,
                        "value": 1
                    },
                    {
                        "number": 64,
                        "time": 149.02417557083322,
                        "value": 0
                    },
                    {
                        "number": 64,
                        "time": 149.0781659249999,
                        "value": 1
                    },
                    {
                        "number": 64,
                        "time": 149.5117499999999,
                        "value": 0
                    },
                    {
                        "number": 64,
                        "time": 149.5590953874999,
                        "value": 1
                    },
                    {
                        "number": 64,
                        "time": 149.72023582916657,
                        "value": 0
                    },
                    {
                        "number": 64,
                        "time": 149.7584443874999,
                        "value": 1
                    },
                    {
                        "number": 64,
                        "time": 149.91875420833324,
                        "value": 0
                    },
                    {
                        "number": 64,
                        "time": 150.12890127916657,
                        "value": 1
                    },
                    {
                        "number": 64,
                        "time": 150.31828282916658,
                        "value": 0
                    },
                    {
                        "number": 64,
                        "time": 150.3614751124999,
                        "value": 1
                    },
                    {
                        "number": 64,
                        "time": 150.51513996666657,
                        "value": 0
                    },
                    {
                        "number": 64,
                        "time": 151.9338403499999,
                        "value": 1
                    },
                    {
                        "number": 64,
                        "time": 152.11242382916657,
                        "value": 0
                    },
                    {
                        "number": 64,
                        "time": 152.5019849999999,
                        "value": 1
                    },
                    {
                        "number": 64,
                        "time": 152.69302779166657,
                        "value": 0
                    },
                    {
                        "number": 64,
                        "time": 153.10003199999989,
                        "value": 1
                    },
                    {
                        "number": 64,
                        "time": 153.31682403749988,
                        "value": 0
                    },
                    {
                        "number": 64,
                        "time": 153.73628755833323,
                        "value": 1
                    },
                    {
                        "number": 64,
                        "time": 154.12003438333323,
                        "value": 0
                    },
                    {
                        "number": 64,
                        "time": 154.2961259999999,
                        "value": 1
                    },
                    {
                        "number": 64,
                        "time": 154.4780319624999,
                        "value": 0
                    },
                    {
                        "number": 64,
                        "time": 154.88254430833322,
                        "value": 1
                    },
                    {
                        "number": 64,
                        "time": 155.01461302083322,
                        "value": 0
                    },
                    {
                        "number": 64,
                        "time": 155.4922199999999,
                        "value": 1
                    },
                    {
                        "number": 64,
                        "time": 155.6068456749999,
                        "value": 0
                    },
                    {
                        "number": 64,
                        "time": 156.12598369583324,
                        "value": 1
                    },
                    {
                        "number": 64,
                        "time": 156.50973052083324,
                        "value": 0
                    },
                    {
                        "number": 64,
                        "time": 156.6883139999999,
                        "value": 1
                    },
                    {
                        "number": 64,
                        "time": 156.87852617083323,
                        "value": 0
                    },
                    {
                        "number": 64,
                        "time": 157.28636099999989,
                        "value": 1
                    },
                    {
                        "number": 64,
                        "time": 157.67093844583323,
                        "value": 0
                    },
                    {
                        "number": 64,
                        "time": 157.8844079999999,
                        "value": 1
                    },
                    {
                        "number": 64,
                        "time": 158.09372444999988,
                        "value": 0
                    },
                    {
                        "number": 64,
                        "time": 158.51567983333322,
                        "value": 1
                    },
                    {
                        "number": 64,
                        "time": 158.8338076124999,
                        "value": 0
                    },
                    {
                        "number": 64,
                        "time": 159.0805019999999,
                        "value": 1
                    },
                    {
                        "number": 64,
                        "time": 159.51491669583325,
                        "value": 0
                    },
                    {
                        "number": 64,
                        "time": 160.27659599999993,
                        "value": 1
                    },
                    {
                        "number": 64,
                        "time": 160.68692269166658,
                        "value": 0
                    },
                    {
                        "number": 64,
                        "time": 161.47268999999991,
                        "value": 1
                    },
                    {
                        "number": 64,
                        "time": 161.71523128333325,
                        "value": 0
                    },
                    {
                        "number": 64,
                        "time": 162.69785572916658,
                        "value": 1
                    },
                    {
                        "number": 64,
                        "time": 162.88723727916658,
                        "value": 0
                    },
                    {
                        "number": 64,
                        "time": 163.2909190041666,
                        "value": 1
                    },
                    {
                        "number": 64,
                        "time": 163.4803005541666,
                        "value": 0
                    },
                    {
                        "number": 64,
                        "time": 178.21800599999995,
                        "value": 1
                    },
                    {
                        "number": 64,
                        "time": 179.41409999999993,
                        "value": 0
                    },
                    {
                        "number": 64,
                        "time": 184.04647238749993,
                        "value": 1
                    },
                    {
                        "number": 64,
                        "time": 184.19847599999994,
                        "value": 0
                    },
                    {
                        "number": 64,
                        "time": 184.62043138333328,
                        "value": 1
                    },
                    {
                        "number": 64,
                        "time": 184.83805404166662,
                        "value": 0
                    },
                    {
                        "number": 64,
                        "time": 185.24838073333328,
                        "value": 1
                    },
                    {
                        "number": 64,
                        "time": 185.40619869166662,
                        "value": 0
                    },
                    {
                        "number": 64,
                        "time": 185.81652538333327,
                        "value": 1
                    },
                    {
                        "number": 64,
                        "time": 186.02833369583328,
                        "value": 0
                    },
                    {
                        "number": 64,
                        "time": 186.42121734999995,
                        "value": 1
                    },
                    {
                        "number": 64,
                        "time": 186.63800938749995,
                        "value": 0
                    },
                    {
                        "number": 64,
                        "time": 201.00858042499993,
                        "value": 1
                    },
                    {
                        "number": 64,
                        "time": 201.5559595541666,
                        "value": 0
                    },
                    {
                        "number": 64,
                        "time": 201.63569915416662,
                        "value": 1
                    },
                    {
                        "number": 64,
                        "time": 202.1457003458333,
                        "value": 0
                    },
                    {
                        "number": 64,
                        "time": 202.21048877083328,
                        "value": 1
                    },
                    {
                        "number": 64,
                        "time": 202.7495616916666,
                        "value": 0
                    },
                    {
                        "number": 64,
                        "time": 202.80853577083326,
                        "value": 1
                    },
                    {
                        "number": 64,
                        "time": 203.3426249666666,
                        "value": 0
                    },
                    {
                        "number": 64,
                        "time": 203.41821146249993,
                        "value": 1
                    },
                    {
                        "number": 64,
                        "time": 203.9456556916666,
                        "value": 0
                    },
                    {
                        "number": 64,
                        "time": 204.03951584583325,
                        "value": 1
                    },
                    {
                        "number": 64,
                        "time": 204.5437026916666,
                        "value": 0
                    },
                    {
                        "number": 64,
                        "time": 204.64919153749992,
                        "value": 1
                    },
                    {
                        "number": 64,
                        "time": 205.14174969166658,
                        "value": 0
                    },
                    {
                        "number": 64,
                        "time": 205.20653811666656,
                        "value": 1
                    },
                    {
                        "number": 64,
                        "time": 205.73398234583323,
                        "value": 0
                    },
                    {
                        "number": 64,
                        "time": 205.86106733333324,
                        "value": 1
                    },
                    {
                        "number": 64,
                        "time": 206.65846333333323,
                        "value": 0
                    },
                    {
                        "number": 64,
                        "time": 206.92426199999989,
                        "value": 1
                    },
                    {
                        "number": 64,
                        "time": 207.81717939583322,
                        "value": 0
                    },
                    {
                        "number": 64,
                        "time": 207.87864533749988,
                        "value": 1
                    },
                    {
                        "number": 64,
                        "time": 208.53317455416655,
                        "value": 0
                    },
                    {
                        "number": 64,
                        "time": 211.73937097083322,
                        "value": 1
                    },
                    {
                        "number": 64,
                        "time": 212.90888510416656,
                        "value": 0
                    },
                    {
                        "number": 64,
                        "time": 212.94792428333324,
                        "value": 1
                    },
                    {
                        "number": 64,
                        "time": 213.7145873124999,
                        "value": 0
                    },
                    {
                        "number": 64,
                        "time": 216.00045584583324,
                        "value": 1
                    },
                    {
                        "number": 64,
                        "time": 216.5901966374999,
                        "value": 0
                    },
                    {
                        "number": 64,
                        "time": 217.97401094583324,
                        "value": 1
                    },
                    {
                        "number": 64,
                        "time": 218.29379996666657,
                        "value": 0
                    },
                    {
                        "number": 64,
                        "time": 218.4516179249999,
                        "value": 1
                    },
                    {
                        "number": 64,
                        "time": 218.9001531749999,
                        "value": 0
                    },
                    {
                        "number": 64,
                        "time": 220.36619894583325,
                        "value": 1
                    },
                    {
                        "number": 64,
                        "time": 220.6868185874999,
                        "value": 0
                    },
                    {
                        "number": 64,
                        "time": 225.56920784583323,
                        "value": 1
                    },
                    {
                        "number": 64,
                        "time": 226.1589486374999,
                        "value": 0
                    },
                    {
                        "number": 64,
                        "time": 227.54276294583323,
                        "value": 1
                    },
                    {
                        "number": 64,
                        "time": 227.86255196666656,
                        "value": 0
                    },
                    {
                        "number": 64,
                        "time": 228.0203699249999,
                        "value": 1
                    },
                    {
                        "number": 64,
                        "time": 228.4689051749999,
                        "value": 0
                    },
                    {
                        "number": 64,
                        "time": 229.93495094583324,
                        "value": 1
                    },
                    {
                        "number": 64,
                        "time": 230.2555705874999,
                        "value": 0
                    },
                    {
                        "number": 64,
                        "time": 243.0064309999999,
                        "value": 1
                    },
                    {
                        "number": 64,
                        "time": 243.21657807083324,
                        "value": 0
                    },
                    {
                        "number": 64,
                        "time": 243.28219711666657,
                        "value": 1
                    },
                    {
                        "number": 64,
                        "time": 243.4126045874999,
                        "value": 0
                    },
                    {
                        "number": 64,
                        "time": 243.44333755833324,
                        "value": 1
                    },
                    {
                        "number": 64,
                        "time": 243.61029234583324,
                        "value": 0
                    },
                    {
                        "number": 64,
                        "time": 243.68504822083324,
                        "value": 1
                    },
                    {
                        "number": 64,
                        "time": 243.81296382916656,
                        "value": 0
                    },
                    {
                        "number": 64,
                        "time": 243.87526039166656,
                        "value": 1
                    },
                    {
                        "number": 64,
                        "time": 244.01148220833323,
                        "value": 0
                    },
                    {
                        "number": 64,
                        "time": 244.0604888374999,
                        "value": 1
                    },
                    {
                        "number": 64,
                        "time": 244.2025249999999,
                        "value": 0
                    },
                    {
                        "number": 64,
                        "time": 244.2498703874999,
                        "value": 1
                    },
                    {
                        "number": 64,
                        "time": 244.41101082916657,
                        "value": 0
                    },
                    {
                        "number": 64,
                        "time": 244.49241167083323,
                        "value": 1
                    },
                    {
                        "number": 64,
                        "time": 244.60537610416657,
                        "value": 0
                    },
                    {
                        "number": 64,
                        "time": 244.6585358374999,
                        "value": 1
                    },
                    {
                        "number": 64,
                        "time": 244.8105394499999,
                        "value": 0
                    },
                    {
                        "number": 64,
                        "time": 244.8578848374999,
                        "value": 1
                    },
                    {
                        "number": 64,
                        "time": 245.00988844999992,
                        "value": 0
                    },
                    {
                        "number": 64,
                        "time": 245.0622175624999,
                        "value": 1
                    },
                    {
                        "number": 64,
                        "time": 245.20840682916656,
                        "value": 0
                    },
                    {
                        "number": 64,
                        "time": 245.27568711666657,
                        "value": 1
                    },
                    {
                        "number": 64,
                        "time": 245.40858644999992,
                        "value": 0
                    },
                    {
                        "number": 64,
                        "time": 245.46506866666658,
                        "value": 1
                    },
                    {
                        "number": 64,
                        "time": 245.60378234583325,
                        "value": 0
                    },
                    {
                        "number": 64,
                        "time": 245.66940139166658,
                        "value": 1
                    },
                    {
                        "number": 64,
                        "time": 245.8114375541666,
                        "value": 0
                    },
                    {
                        "number": 64,
                        "time": 245.86376666666658,
                        "value": 1
                    },
                    {
                        "number": 64,
                        "time": 246.00081910416657,
                        "value": 0
                    },
                    {
                        "number": 64,
                        "time": 246.0489951124999,
                        "value": 1
                    },
                    {
                        "number": 64,
                        "time": 246.2084743124999,
                        "value": 0
                    },
                    {
                        "number": 64,
                        "time": 246.2533278374999,
                        "value": 1
                    },
                    {
                        "number": 64,
                        "time": 246.40616207083323,
                        "value": 0
                    },
                    {
                        "number": 64,
                        "time": 246.4427093874999,
                        "value": 1
                    },
                    {
                        "number": 64,
                        "time": 246.5996967249999,
                        "value": 0
                    },
                    {
                        "number": 64,
                        "time": 246.63790528333323,
                        "value": 1
                    },
                    {
                        "number": 64,
                        "time": 246.80236820833323,
                        "value": 0
                    },
                    {
                        "number": 64,
                        "time": 246.86051166666655,
                        "value": 1
                    },
                    {
                        "number": 64,
                        "time": 246.99756410416654,
                        "value": 0
                    },
                    {
                        "number": 64,
                        "time": 247.05570756249986,
                        "value": 1
                    },
                    {
                        "number": 64,
                        "time": 247.2010662083332,
                        "value": 0
                    },
                    {
                        "number": 64,
                        "time": 247.24508911249987,
                        "value": 1
                    },
                    {
                        "number": 64,
                        "time": 247.40041520833321,
                        "value": 0
                    },
                    {
                        "number": 64,
                        "time": 247.44526873333322,
                        "value": 1
                    },
                    {
                        "number": 64,
                        "time": 247.59810296666654,
                        "value": 0
                    },
                    {
                        "number": 64,
                        "time": 247.66289139166653,
                        "value": 1
                    },
                    {
                        "number": 64,
                        "time": 247.79579072499988,
                        "value": 0
                    },
                    {
                        "number": 64,
                        "time": 247.8763609458332,
                        "value": 1
                    },
                    {
                        "number": 64,
                        "time": 247.9959703458332,
                        "value": 0
                    },
                    {
                        "number": 64,
                        "time": 248.03750138749987,
                        "value": 1
                    },
                    {
                        "number": 64,
                        "time": 248.2003030708332,
                        "value": 0
                    },
                    {
                        "number": 64,
                        "time": 248.2326972833332,
                        "value": 1
                    },
                    {
                        "number": 64,
                        "time": 248.39882144999987,
                        "value": 0
                    },
                    {
                        "number": 64,
                        "time": 248.4744079458332,
                        "value": 1
                    },
                    {
                        "number": 64,
                        "time": 248.59817044999988,
                        "value": 0
                    },
                    {
                        "number": 64,
                        "time": 248.66877322083323,
                        "value": 1
                    },
                    {
                        "number": 64,
                        "time": 248.79585820833324,
                        "value": 0
                    },
                    {
                        "number": 64,
                        "time": 248.83489738749992,
                        "value": 1
                    },
                    {
                        "number": 64,
                        "time": 248.99105410416658,
                        "value": 0
                    },
                    {
                        "number": 64,
                        "time": 249.03923011249992,
                        "value": 1
                    },
                    {
                        "number": 64,
                        "time": 249.19621744999992,
                        "value": 0
                    },
                    {
                        "number": 64,
                        "time": 249.23857911249993,
                        "value": 1
                    },
                    {
                        "number": 64,
                        "time": 249.3922439666666,
                        "value": 0
                    },
                    {
                        "number": 64,
                        "time": 249.43792811249992,
                        "value": 1
                    },
                    {
                        "number": 64,
                        "time": 249.59491544999992,
                        "value": 0
                    },
                    {
                        "number": 64,
                        "time": 249.67050194583325,
                        "value": 1
                    },
                    {
                        "number": 64,
                        "time": 249.7917725874999,
                        "value": 0
                    },
                    {
                        "number": 64,
                        "time": 249.84077921666656,
                        "value": 1
                    },
                    {
                        "number": 64,
                        "time": 249.9961053124999,
                        "value": 0
                    },
                    {
                        "number": 64,
                        "time": 250.05507939166657,
                        "value": 1
                    },
                    {
                        "number": 64,
                        "time": 250.1879787249999,
                        "value": 0
                    },
                    {
                        "number": 64,
                        "time": 250.26854894583323,
                        "value": 1
                    },
                    {
                        "number": 64,
                        "time": 250.38815834583323,
                        "value": 0
                    },
                    {
                        "number": 64,
                        "time": 250.4296893874999,
                        "value": 1
                    },
                    {
                        "number": 64,
                        "time": 250.59249107083323,
                        "value": 0
                    },
                    {
                        "number": 64,
                        "time": 250.62488528333324,
                        "value": 1
                    },
                    {
                        "number": 64,
                        "time": 250.7910094499999,
                        "value": 0
                    },
                    {
                        "number": 64,
                        "time": 250.86659594583324,
                        "value": 1
                    },
                    {
                        "number": 64,
                        "time": 250.99035844999992,
                        "value": 0
                    },
                    {
                        "number": 64,
                        "time": 251.06096122083326,
                        "value": 1
                    },
                    {
                        "number": 64,
                        "time": 251.18804620833328,
                        "value": 0
                    },
                    {
                        "number": 64,
                        "time": 251.22708538749995,
                        "value": 1
                    },
                    {
                        "number": 64,
                        "time": 251.3832421041666,
                        "value": 0
                    },
                    {
                        "number": 64,
                        "time": 251.43141811249995,
                        "value": 1
                    },
                    {
                        "number": 64,
                        "time": 251.58840544999995,
                        "value": 0
                    },
                    {
                        "number": 64,
                        "time": 251.63076711249997,
                        "value": 1
                    },
                    {
                        "number": 64,
                        "time": 251.78443196666663,
                        "value": 0
                    },
                    {
                        "number": 64,
                        "time": 251.83011611249995,
                        "value": 1
                    },
                    {
                        "number": 64,
                        "time": 251.98710344999995,
                        "value": 0
                    },
                    {
                        "number": 64,
                        "time": 252.06268994583328,
                        "value": 1
                    },
                    {
                        "number": 64,
                        "time": 252.18396058749994,
                        "value": 0
                    },
                    {
                        "number": 64,
                        "time": 252.2329672166666,
                        "value": 1
                    },
                    {
                        "number": 64,
                        "time": 252.38829331249994,
                        "value": 0
                    },
                    {
                        "number": 64,
                        "time": 252.4472673916666,
                        "value": 1
                    },
                    {
                        "number": 64,
                        "time": 252.57518299999992,
                        "value": 0
                    },
                    {
                        "number": 64,
                        "time": 252.63249583749993,
                        "value": 1
                    },
                    {
                        "number": 64,
                        "time": 252.78283820833326,
                        "value": 0
                    },
                    {
                        "number": 64,
                        "time": 252.82686111249993,
                        "value": 1
                    },
                    {
                        "number": 64,
                        "time": 252.98301782916658,
                        "value": 0
                    },
                    {
                        "number": 64,
                        "time": 253.0262101124999,
                        "value": 1
                    },
                    {
                        "number": 64,
                        "time": 253.1831974499999,
                        "value": 0
                    },
                    {
                        "number": 64,
                        "time": 253.23967966666658,
                        "value": 1
                    },
                    {
                        "number": 64,
                        "time": 253.38088520833324,
                        "value": 0
                    },
                    {
                        "number": 64,
                        "time": 253.4249081124999,
                        "value": 1
                    },
                    {
                        "number": 64,
                        "time": 253.7712769999999,
                        "value": 0
                    },
                    {
                        "number": 64,
                        "time": 272.9561263874999,
                        "value": 1
                    },
                    {
                        "number": 64,
                        "time": 273.5126423458332,
                        "value": 0
                    },
                    {
                        "number": 64,
                        "time": 273.5948738083332,
                        "value": 1
                    },
                    {
                        "number": 64,
                        "time": 274.1214874166665,
                        "value": 0
                    },
                    {
                        "number": 64,
                        "time": 274.1854452208332,
                        "value": 1
                    },
                    {
                        "number": 64,
                        "time": 274.60324749999984,
                        "value": 0
                    },
                    {
                        "number": 64,
                        "time": 274.7170425541665,
                        "value": 1
                    },
                    {
                        "number": 64,
                        "time": 275.30096899999984,
                        "value": 0
                    },
                    {
                        "number": 64,
                        "time": 276.5136754166665,
                        "value": 0
                    },
                    {
                        "number": 64,
                        "time": 276.57763322083315,
                        "value": 1
                    },
                    {
                        "number": 64,
                        "time": 276.9954354999998,
                        "value": 0
                    },
                    {
                        "number": 64,
                        "time": 277.10923055416646,
                        "value": 1
                    },
                    {
                        "number": 64,
                        "time": 277.6931569999998,
                        "value": 0
                    },
                    {
                        "number": 64,
                        "time": 282.5248783874998,
                        "value": 1
                    },
                    {
                        "number": 64,
                        "time": 283.08139434583313,
                        "value": 0
                    },
                    {
                        "number": 64,
                        "time": 283.1636258083331,
                        "value": 1
                    },
                    {
                        "number": 64,
                        "time": 283.69023941666643,
                        "value": 0
                    },
                    {
                        "number": 64,
                        "time": 283.7541972208331,
                        "value": 1
                    },
                    {
                        "number": 64,
                        "time": 284.05322072083305,
                        "value": 0
                    },
                    {
                        "number": 64,
                        "time": 284.2857945541664,
                        "value": 1
                    },
                    {
                        "number": 64,
                        "time": 284.86972099999974,
                        "value": 0
                    },
                    {
                        "number": 64,
                        "time": 286.0824274166664,
                        "value": 0
                    },
                    {
                        "number": 64,
                        "time": 286.14638522083305,
                        "value": 1
                    },
                    {
                        "number": 64,
                        "time": 286.44540872083303,
                        "value": 0
                    },
                    {
                        "number": 64,
                        "time": 286.67798255416636,
                        "value": 1
                    },
                    {
                        "number": 64,
                        "time": 287.2619089999997,
                        "value": 0
                    },
                    {
                        "number": 64,
                        "time": 295.65284065833305,
                        "value": 1
                    },
                    {
                        "number": 64,
                        "time": 296.25670200416636,
                        "value": 0
                    },
                    {
                        "number": 64,
                        "time": 296.30404739166636,
                        "value": 1
                    },
                    {
                        "number": 64,
                        "time": 296.8472734166664,
                        "value": 0
                    },
                    {
                        "number": 64,
                        "time": 296.87966762916636,
                        "value": 1
                    },
                    {
                        "number": 64,
                        "time": 297.235173345833,
                        "value": 0
                    },
                    {
                        "number": 64,
                        "time": 297.24680203749966,
                        "value": 1
                    },
                    {
                        "number": 64,
                        "time": 297.39133006249966,
                        "value": 0
                    },
                    {
                        "number": 64,
                        "time": 297.41874054999965,
                        "value": 1
                    },
                    {
                        "number": 64,
                        "time": 297.838204070833,
                        "value": 0
                    },
                    {
                        "number": 64,
                        "time": 297.85149400416634,
                        "value": 1
                    },
                    {
                        "number": 64,
                        "time": 298.0309081041663,
                        "value": 0
                    },
                    {
                        "number": 64,
                        "time": 298.1314132249997,
                        "value": 1
                    },
                    {
                        "number": 64,
                        "time": 298.64889000416633,
                        "value": 0
                    },
                    {
                        "number": 64,
                        "time": 298.69623539166633,
                        "value": 1
                    },
                    {
                        "number": 64,
                        "time": 299.23946141666636,
                        "value": 0
                    },
                    {
                        "number": 64,
                        "time": 299.27185562916634,
                        "value": 1
                    },
                    {
                        "number": 64,
                        "time": 299.627361345833,
                        "value": 0
                    },
                    {
                        "number": 64,
                        "time": 299.63899003749964,
                        "value": 1
                    },
                    {
                        "number": 64,
                        "time": 299.77853433749965,
                        "value": 0
                    },
                    {
                        "number": 64,
                        "time": 299.8134204124996,
                        "value": 1
                    },
                    {
                        "number": 64,
                        "time": 300.230392070833,
                        "value": 0
                    },
                    {
                        "number": 64,
                        "time": 300.2436820041663,
                        "value": 1
                    },
                    {
                        "number": 64,
                        "time": 300.4189429999997,
                        "value": 0
                    },
                    {
                        "number": 64,
                        "time": 300.651516833333,
                        "value": 1
                    },
                    {
                        "number": 64,
                        "time": 301.022804345833,
                        "value": 0
                    },
                    {
                        "number": 64,
                        "time": 301.1058664291663,
                        "value": 1
                    },
                    {
                        "number": 64,
                        "time": 301.61503699999963,
                        "value": 0
                    },
                    {
                        "number": 64,
                        "time": 301.8592395249996,
                        "value": 1
                    },
                    {
                        "number": 64,
                        "time": 302.2296964166663,
                        "value": 0
                    },
                    {
                        "number": 64,
                        "time": 302.3792081666663,
                        "value": 1
                    },
                    {
                        "number": 64,
                        "time": 302.8111309999996,
                        "value": 0
                    },
                    {
                        "number": 64,
                        "time": 303.08855835833293,
                        "value": 1
                    },
                    {
                        "number": 64,
                        "time": 303.41997607083294,
                        "value": 0
                    },
                    {
                        "number": 64,
                        "time": 303.60852699999964,
                        "value": 1
                    },
                    {
                        "number": 64,
                        "time": 304.00722499999966,
                        "value": 0
                    },
                    {
                        "number": 64,
                        "time": 304.284652358333,
                        "value": 1
                    },
                    {
                        "number": 64,
                        "time": 304.6218844166663,
                        "value": 0
                    },
                    {
                        "number": 64,
                        "time": 304.78302485833296,
                        "value": 1
                    },
                    {
                        "number": 64,
                        "time": 305.2033189999996,
                        "value": 0
                    },
                    {
                        "number": 64,
                        "time": 305.70750584583294,
                        "value": 1
                    },
                    {
                        "number": 64,
                        "time": 306.2972466374996,
                        "value": 0
                    },
                    {
                        "number": 64,
                        "time": 307.68106094583294,
                        "value": 1
                    },
                    {
                        "number": 64,
                        "time": 308.0008499666663,
                        "value": 0
                    },
                    {
                        "number": 64,
                        "time": 308.15866792499963,
                        "value": 1
                    },
                    {
                        "number": 64,
                        "time": 308.60720317499965,
                        "value": 0
                    },
                    {
                        "number": 64,
                        "time": 310.073248945833,
                        "value": 1
                    },
                    {
                        "number": 64,
                        "time": 310.39386858749964,
                        "value": 0
                    },
                    {
                        "number": 64,
                        "time": 315.194026383333,
                        "value": 1
                    },
                    {
                        "number": 64,
                        "time": 315.4116490416663,
                        "value": 0
                    },
                    {
                        "number": 64,
                        "time": 315.821975733333,
                        "value": 1
                    },
                    {
                        "number": 64,
                        "time": 315.9797936916663,
                        "value": 0
                    },
                    {
                        "number": 64,
                        "time": 316.390120383333,
                        "value": 1
                    },
                    {
                        "number": 64,
                        "time": 316.601928695833,
                        "value": 0
                    },
                    {
                        "number": 64,
                        "time": 316.9948123499997,
                        "value": 1
                    },
                    {
                        "number": 64,
                        "time": 317.2116043874997,
                        "value": 0
                    },
                    {
                        "number": 64,
                        "time": 324.994521595833,
                        "value": 1
                    },
                    {
                        "number": 64,
                        "time": 325.54107010416635,
                        "value": 0
                    },
                    {
                        "number": 64,
                        "time": 325.65901826249967,
                        "value": 1
                    },
                    {
                        "number": 64,
                        "time": 326.14493144999966,
                        "value": 0
                    },
                    {
                        "number": 64,
                        "time": 326.41239135833297,
                        "value": 1
                    },
                    {
                        "number": 64,
                        "time": 326.74796217499966,
                        "value": 0
                    },
                    {
                        "number": 64,
                        "time": 327.34850103749966,
                        "value": 1
                    },
                    {
                        "number": 64,
                        "time": 327.44734491666634,
                        "value": 0
                    },
                    {
                        "number": 64,
                        "time": 327.583566733333,
                        "value": 1
                    },
                    {
                        "number": 64,
                        "time": 327.66496757499965,
                        "value": 0
                    },
                    {
                        "number": 64,
                        "time": 327.753013383333,
                        "value": 1
                    },
                    {
                        "number": 64,
                        "time": 327.8410591916663,
                        "value": 0
                    },
                    {
                        "number": 64,
                        "time": 327.92910499999965,
                        "value": 1
                    },
                    {
                        "number": 64,
                        "time": 328.0404081916663,
                        "value": 0
                    },
                    {
                        "number": 64,
                        "time": 328.1583563499996,
                        "value": 1
                    },
                    {
                        "number": 64,
                        "time": 328.27547388749963,
                        "value": 0
                    },
                    {
                        "number": 64,
                        "time": 328.39840577083294,
                        "value": 1
                    },
                    {
                        "number": 64,
                        "time": 328.46651667916626,
                        "value": 0
                    },
                    {
                        "number": 64,
                        "time": 328.5803117333329,
                        "value": 1
                    },
                    {
                        "number": 64,
                        "time": 328.6700187833329,
                        "value": 0
                    },
                    {
                        "number": 64,
                        "time": 328.80291811666626,
                        "value": 1
                    },
                    {
                        "number": 64,
                        "time": 328.87518212916626,
                        "value": 0
                    },
                    {
                        "number": 64,
                        "time": 328.9557523499996,
                        "value": 1
                    },
                    {
                        "number": 64,
                        "time": 329.04878188333294,
                        "value": 0
                    },
                    {
                        "number": 64,
                        "time": 329.1251989999996,
                        "value": 1
                    },
                    {
                        "number": 64,
                        "time": 329.3012906166663,
                        "value": 0
                    },
                    {
                        "number": 64,
                        "time": 329.7705913874996,
                        "value": 1
                    },
                    {
                        "number": 64,
                        "time": 329.92840934583296,
                        "value": 0
                    },
                    {
                        "number": 64,
                        "time": 330.34455038333294,
                        "value": 1
                    },
                    {
                        "number": 64,
                        "time": 330.59124477083293,
                        "value": 0
                    }
                ]
            },
            "id": 3,
            "name": "Pedal",
            "instrumentNumber": 0,
            "instrument": "acoustic grand piano",
            "instrumentFamily": "piano",
            "channelNumber": 0,
            "isPercussion": false
        },
        {
            "startTime": 0,
            "duration": 0,
            "length": 0,
            "notes": [],
            "controlChanges": {},
            "id": 4,
            "name": "Mozart: Sonate KV 311"
        },
        {
            "startTime": 0,
            "duration": 0,
            "length": 0,
            "notes": [],
            "controlChanges": {},
            "id": 5,
            "name": "Copyright  2006 by Bernd Krger"
        },
        {
            "startTime": 0,
            "duration": 0,
            "length": 0,
            "notes": [],
            "controlChanges": {},
            "id": 6,
            "name": "http://www.piano-midi.de"
        },
        {
            "startTime": 0,
            "duration": 0,
            "length": 0,
            "notes": [],
            "controlChanges": {},
            "id": 7,
            "name": "Edition: 1.9.2006"
        },
        {
            "startTime": 0,
            "duration": 0,
            "length": 0,
            "notes": [],
            "controlChanges": {},
            "id": 8,
            "name": "Spur 8"
        },
        {
            "startTime": 0,
            "duration": 0,
            "length": 0,
            "notes": [],
            "controlChanges": {},
            "id": 9,
            "name": "Spur 9"
        }
    ]
}