{
    "header": {
        "PPQ": 480,
        "timeSignature": [
            2,
            4
        ],
        "bpm": 87.59993692804541,
        "name": "3. Satz"
    },
    "startTime": 0,
    "duration": 467.2948569999905,
    "tracks": [
        {
            "startTime": 0,
            "duration": 0,
            "length": 0,
            "notes": [],
            "controlChanges": {},
            "id": 0,
            "name": "3. Satz"
        },
        {
            "startTime": 0.0014269416666666667,
            "duration": 467.2948569999905,
            "length": 2270,
            "notes": [
                {
                    "name": "E5",
                    "midi": 76,
                    "time": 0.0014269416666666667,
                    "velocity": 0.47244094488188976,
                    "duration": 0.5122720583333333
                },
                {
                    "name": "F5",
                    "midi": 77,
                    "time": 0.513699,
                    "velocity": 0.4251968503937008,
                    "duration": 0.08561649999999998
                },
                {
                    "name": "G5",
                    "midi": 79,
                    "time": 0.5993155,
                    "velocity": 0.4251968503937008,
                    "duration": 0.08561649999999998
                },
                {
                    "name": "C5",
                    "midi": 72,
                    "time": 0.684932,
                    "velocity": 0.47244094488188976,
                    "duration": 0.34246600000000005
                },
                {
                    "name": "B4",
                    "midi": 71,
                    "time": 1.027398,
                    "velocity": 0.3858267716535433,
                    "duration": 0.34246599999999994
                },
                {
                    "name": "D5",
                    "midi": 74,
                    "time": 1.027398,
                    "velocity": 0.3858267716535433,
                    "duration": 0.34246599999999994
                },
                {
                    "name": "B4",
                    "midi": 71,
                    "time": 1.369864,
                    "velocity": 0.41732283464566927,
                    "duration": 0.34246599999999994
                },
                {
                    "name": "D5",
                    "midi": 74,
                    "time": 1.369864,
                    "velocity": 0.41732283464566927,
                    "duration": 0.25684949999999995
                },
                {
                    "name": "F5",
                    "midi": 77,
                    "time": 1.6267135,
                    "velocity": 0.3779527559055118,
                    "duration": 0.08561649999999998
                },
                {
                    "name": "E5",
                    "midi": 76,
                    "time": 1.71233,
                    "velocity": 0.41732283464566927,
                    "duration": 0.34246600000000016
                },
                {
                    "name": "C5",
                    "midi": 72,
                    "time": 1.71233,
                    "velocity": 0.41732283464566927,
                    "duration": 0.34246600000000016
                },
                {
                    "name": "B4",
                    "midi": 71,
                    "time": 2.054796,
                    "velocity": 0.3937007874015748,
                    "duration": 0.6849319999999999
                },
                {
                    "name": "D5",
                    "midi": 74,
                    "time": 2.054796,
                    "velocity": 0.3937007874015748,
                    "duration": 0.6849319999999999
                },
                {
                    "name": "E5",
                    "midi": 76,
                    "time": 2.739728,
                    "velocity": 0.47244094488188976,
                    "duration": 0.5136989999999999
                },
                {
                    "name": "F5",
                    "midi": 77,
                    "time": 3.253427,
                    "velocity": 0.4409448818897638,
                    "duration": 0.08561649999999998
                },
                {
                    "name": "G5",
                    "midi": 79,
                    "time": 3.3390435,
                    "velocity": 0.4409448818897638,
                    "duration": 0.08561649999999998
                },
                {
                    "name": "C5",
                    "midi": 72,
                    "time": 3.42466,
                    "velocity": 0.48031496062992124,
                    "duration": 0.34246599999999994
                },
                {
                    "name": "D5",
                    "midi": 74,
                    "time": 3.7671259999999998,
                    "velocity": 0.3858267716535433,
                    "duration": 0.17123299999999997
                },
                {
                    "name": "B4",
                    "midi": 71,
                    "time": 3.7671259999999998,
                    "velocity": 0.3858267716535433,
                    "duration": 0.17123299999999997
                },
                {
                    "name": "D5",
                    "midi": 74,
                    "time": 4.109592,
                    "velocity": 0.4251968503937008,
                    "duration": 0.34246599999999994
                },
                {
                    "name": "F5",
                    "midi": 77,
                    "time": 4.109592,
                    "velocity": 0.4251968503937008,
                    "duration": 0.34246599999999994
                },
                {
                    "name": "E5",
                    "midi": 76,
                    "time": 4.452058,
                    "velocity": 0.3858267716535433,
                    "duration": 0.06849319999999981
                },
                {
                    "name": "C5",
                    "midi": 72,
                    "time": 4.452058,
                    "velocity": 0.3858267716535433,
                    "duration": 0.34246599999999905
                },
                {
                    "name": "F5",
                    "midi": 77,
                    "time": 4.5205512,
                    "velocity": 0.3858267716535433,
                    "duration": 0.06849319999999981
                },
                {
                    "name": "E5",
                    "midi": 76,
                    "time": 4.5890444,
                    "velocity": 0.3858267716535433,
                    "duration": 0.06849319999999981
                },
                {
                    "name": "F5",
                    "midi": 77,
                    "time": 4.6575375999999995,
                    "velocity": 0.3858267716535433,
                    "duration": 0.06849319999999981
                },
                {
                    "name": "E5",
                    "midi": 76,
                    "time": 4.726030799999999,
                    "velocity": 0.3858267716535433,
                    "duration": 0.06849319999999981
                },
                {
                    "name": "B4",
                    "midi": 71,
                    "time": 4.794523999999999,
                    "velocity": 0.4094488188976378,
                    "duration": 0.6849319999999999
                },
                {
                    "name": "D5",
                    "midi": 74,
                    "time": 4.794523999999999,
                    "velocity": 0.4094488188976378,
                    "duration": 0.6849319999999999
                },
                {
                    "name": "F5",
                    "midi": 77,
                    "time": 5.479455999999999,
                    "velocity": 0.5039370078740157,
                    "duration": 0.5136989999999999
                },
                {
                    "name": "G5",
                    "midi": 79,
                    "time": 5.993154999999999,
                    "velocity": 0.47244094488188976,
                    "duration": 0.08561650000000043
                },
                {
                    "name": "F5",
                    "midi": 77,
                    "time": 6.078771499999999,
                    "velocity": 0.47244094488188976,
                    "duration": 0.08561650000000043
                },
                {
                    "name": "E5",
                    "midi": 76,
                    "time": 6.164388,
                    "velocity": 0.5039370078740157,
                    "duration": 0.34246599999999994
                },
                {
                    "name": "E5",
                    "midi": 76,
                    "time": 6.506854,
                    "velocity": 0.4881889763779528,
                    "duration": 0.17123299999999997
                },
                {
                    "name": "A5",
                    "midi": 81,
                    "time": 6.84932,
                    "velocity": 0.5433070866141733,
                    "duration": 0.5136989999999999
                },
                {
                    "name": "B5",
                    "midi": 83,
                    "time": 7.3630189999999995,
                    "velocity": 0.49606299212598426,
                    "duration": 0.08561650000000043
                },
                {
                    "name": "C6",
                    "midi": 84,
                    "time": 7.4486355,
                    "velocity": 0.49606299212598426,
                    "duration": 0.08561650000000043
                },
                {
                    "name": "G5",
                    "midi": 79,
                    "time": 7.534252,
                    "velocity": 0.5433070866141733,
                    "duration": 0.34246599999999994
                },
                {
                    "name": "G5",
                    "midi": 79,
                    "time": 7.876718,
                    "velocity": 0.5433070866141733,
                    "duration": 0.17123300000000086
                },
                {
                    "name": "G5",
                    "midi": 79,
                    "time": 8.219184000000002,
                    "velocity": 0.5354330708661418,
                    "duration": 0.17123300000000086
                },
                {
                    "name": "F5",
                    "midi": 77,
                    "time": 8.390417000000003,
                    "velocity": 0.49606299212598426,
                    "duration": 0.12842475000000064
                },
                {
                    "name": "F5",
                    "midi": 77,
                    "time": 8.561650000000004,
                    "velocity": 0.5039370078740157,
                    "duration": 0.17123300000000086
                },
                {
                    "name": "D5",
                    "midi": 74,
                    "time": 8.732883000000005,
                    "velocity": 0.49606299212598426,
                    "duration": 0.12842475000000064
                },
                {
                    "name": "F5",
                    "midi": 77,
                    "time": 8.904116000000005,
                    "velocity": 0.5433070866141733,
                    "duration": 0.17123300000000086
                },
                {
                    "name": "E5",
                    "midi": 76,
                    "time": 9.075349000000006,
                    "velocity": 0.5039370078740157,
                    "duration": 0.12842475000000064
                },
                {
                    "name": "E5",
                    "midi": 76,
                    "time": 9.246582000000007,
                    "velocity": 0.5196850393700787,
                    "duration": 0.17123300000000086
                },
                {
                    "name": "C5",
                    "midi": 72,
                    "time": 9.417815000000008,
                    "velocity": 0.5039370078740157,
                    "duration": 0.12842475000000064
                },
                {
                    "name": "C#5",
                    "midi": 73,
                    "time": 9.589048000000009,
                    "velocity": 0.5039370078740157,
                    "duration": 0.17123300000000086
                },
                {
                    "name": "D5",
                    "midi": 74,
                    "time": 9.76028100000001,
                    "velocity": 0.47244094488188976,
                    "duration": 0.17123300000000086
                },
                {
                    "name": "E5",
                    "midi": 76,
                    "time": 9.93151400000001,
                    "velocity": 0.5039370078740157,
                    "duration": 0.17123300000000086
                },
                {
                    "name": "D5",
                    "midi": 74,
                    "time": 10.102747000000011,
                    "velocity": 0.4881889763779528,
                    "duration": 0.17123300000000086
                },
                {
                    "name": "C5",
                    "midi": 72,
                    "time": 10.273980000000012,
                    "velocity": 0.49606299212598426,
                    "duration": 0.17123300000000086
                },
                {
                    "name": "B4",
                    "midi": 71,
                    "time": 10.445213000000013,
                    "velocity": 0.48031496062992124,
                    "duration": 0.17123300000000086
                },
                {
                    "name": "A4",
                    "midi": 69,
                    "time": 10.616446000000014,
                    "velocity": 0.48031496062992124,
                    "duration": 0.17123300000000086
                },
                {
                    "name": "G4",
                    "midi": 67,
                    "time": 10.787679000000015,
                    "velocity": 0.47244094488188976,
                    "duration": 0.17123300000000086
                },
                {
                    "name": "E5",
                    "midi": 76,
                    "time": 10.958912000000016,
                    "velocity": 0.5511811023622047,
                    "duration": 0.5136990000000008
                },
                {
                    "name": "F5",
                    "midi": 77,
                    "time": 11.472611000000017,
                    "velocity": 0.5039370078740157,
                    "duration": 0.08561650000000043
                },
                {
                    "name": "G5",
                    "midi": 79,
                    "time": 11.558227500000017,
                    "velocity": 0.5039370078740157,
                    "duration": 0.08561650000000043
                },
                {
                    "name": "C5",
                    "midi": 72,
                    "time": 11.643844000000017,
                    "velocity": 0.5511811023622047,
                    "duration": 0.34246599999999994
                },
                {
                    "name": "D5",
                    "midi": 74,
                    "time": 11.986310000000017,
                    "velocity": 0.47244094488188976,
                    "duration": 0.34246599999999994
                },
                {
                    "name": "B4",
                    "midi": 71,
                    "time": 11.986310000000017,
                    "velocity": 0.47244094488188976,
                    "duration": 0.34246599999999994
                },
                {
                    "name": "D5",
                    "midi": 74,
                    "time": 12.328776000000017,
                    "velocity": 0.49606299212598426,
                    "duration": 0.2568494999999995
                },
                {
                    "name": "B4",
                    "midi": 71,
                    "time": 12.328776000000017,
                    "velocity": 0.49606299212598426,
                    "duration": 0.34246599999999994
                },
                {
                    "name": "F5",
                    "midi": 77,
                    "time": 12.585625500000017,
                    "velocity": 0.44881889763779526,
                    "duration": 0.08561650000000043
                },
                {
                    "name": "C5",
                    "midi": 72,
                    "time": 12.671242000000017,
                    "velocity": 0.49606299212598426,
                    "duration": 0.34246599999999994
                },
                {
                    "name": "E5",
                    "midi": 76,
                    "time": 12.671242000000017,
                    "velocity": 0.49606299212598426,
                    "duration": 0.34246599999999994
                },
                {
                    "name": "B4",
                    "midi": 71,
                    "time": 13.013708000000017,
                    "velocity": 0.48031496062992124,
                    "duration": 0.6849319999999999
                },
                {
                    "name": "D5",
                    "midi": 74,
                    "time": 13.013708000000017,
                    "velocity": 0.48031496062992124,
                    "duration": 0.6849319999999999
                },
                {
                    "name": "E5",
                    "midi": 76,
                    "time": 13.698640000000017,
                    "velocity": 0.5511811023622047,
                    "duration": 0.5136990000000008
                },
                {
                    "name": "F5",
                    "midi": 77,
                    "time": 14.212339000000018,
                    "velocity": 0.5275590551181102,
                    "duration": 0.08561650000000043
                },
                {
                    "name": "G5",
                    "midi": 79,
                    "time": 14.297955500000018,
                    "velocity": 0.5275590551181102,
                    "duration": 0.08561650000000043
                },
                {
                    "name": "C5",
                    "midi": 72,
                    "time": 14.383572000000019,
                    "velocity": 0.5590551181102362,
                    "duration": 0.34246599999999994
                },
                {
                    "name": "D5",
                    "midi": 74,
                    "time": 14.726038000000019,
                    "velocity": 0.47244094488188976,
                    "duration": 0.17123300000000086
                },
                {
                    "name": "B4",
                    "midi": 71,
                    "time": 14.726038000000019,
                    "velocity": 0.47244094488188976,
                    "duration": 0.17123300000000086
                },
                {
                    "name": "F5",
                    "midi": 77,
                    "time": 15.06850400000002,
                    "velocity": 0.5039370078740157,
                    "duration": 0.34246599999999994
                },
                {
                    "name": "D5",
                    "midi": 74,
                    "time": 15.06850400000002,
                    "velocity": 0.5039370078740157,
                    "duration": 0.34246599999999994
                },
                {
                    "name": "C5",
                    "midi": 72,
                    "time": 15.41097000000002,
                    "velocity": 0.47244094488188976,
                    "duration": 0.3424660000000035
                },
                {
                    "name": "E5",
                    "midi": 76,
                    "time": 15.41097000000002,
                    "velocity": 0.47244094488188976,
                    "duration": 0.0684932000000007
                },
                {
                    "name": "F5",
                    "midi": 77,
                    "time": 15.479463200000021,
                    "velocity": 0.47244094488188976,
                    "duration": 0.0684932000000007
                },
                {
                    "name": "E5",
                    "midi": 76,
                    "time": 15.547956400000022,
                    "velocity": 0.47244094488188976,
                    "duration": 0.0684932000000007
                },
                {
                    "name": "F5",
                    "midi": 77,
                    "time": 15.616449600000022,
                    "velocity": 0.47244094488188976,
                    "duration": 0.0684932000000007
                },
                {
                    "name": "E5",
                    "midi": 76,
                    "time": 15.684942800000023,
                    "velocity": 0.47244094488188976,
                    "duration": 0.0684932000000007
                },
                {
                    "name": "B4",
                    "midi": 71,
                    "time": 15.753436000000024,
                    "velocity": 0.4881889763779528,
                    "duration": 0.6849320000000017
                },
                {
                    "name": "D5",
                    "midi": 74,
                    "time": 15.753436000000024,
                    "velocity": 0.4881889763779528,
                    "duration": 0.6849320000000017
                },
                {
                    "name": "F5",
                    "midi": 77,
                    "time": 16.438368000000025,
                    "velocity": 0.6062992125984252,
                    "duration": 0.513698999999999
                },
                {
                    "name": "G5",
                    "midi": 79,
                    "time": 16.952067000000024,
                    "velocity": 0.5511811023622047,
                    "duration": 0.08561650000000043
                },
                {
                    "name": "F5",
                    "midi": 77,
                    "time": 17.037683500000025,
                    "velocity": 0.5511811023622047,
                    "duration": 0.08561650000000043
                },
                {
                    "name": "E5",
                    "midi": 76,
                    "time": 17.123300000000025,
                    "velocity": 0.6062992125984252,
                    "duration": 0.3424660000000017
                },
                {
                    "name": "E5",
                    "midi": 76,
                    "time": 17.465766000000027,
                    "velocity": 0.5826771653543307,
                    "duration": 0.17123300000000086
                },
                {
                    "name": "A5",
                    "midi": 81,
                    "time": 17.80823200000003,
                    "velocity": 0.6141732283464567,
                    "duration": 0.513698999999999
                },
                {
                    "name": "B5",
                    "midi": 83,
                    "time": 18.321931000000028,
                    "velocity": 0.5590551181102362,
                    "duration": 0.08561650000000043
                },
                {
                    "name": "C6",
                    "midi": 84,
                    "time": 18.407547500000028,
                    "velocity": 0.5433070866141733,
                    "duration": 0.08561650000000043
                },
                {
                    "name": "G5",
                    "midi": 79,
                    "time": 18.49316400000003,
                    "velocity": 0.6220472440944882,
                    "duration": 0.3424660000000017
                },
                {
                    "name": "G5",
                    "midi": 79,
                    "time": 18.83563000000003,
                    "velocity": 0.6062992125984252,
                    "duration": 0.17123300000000086
                },
                {
                    "name": "G#5",
                    "midi": 80,
                    "time": 19.178096000000032,
                    "velocity": 0.6062992125984252,
                    "duration": 0.17123300000000086
                },
                {
                    "name": "A5",
                    "midi": 81,
                    "time": 19.349329000000033,
                    "velocity": 0.5826771653543307,
                    "duration": 0.17123300000000086
                },
                {
                    "name": "F5",
                    "midi": 77,
                    "time": 19.520562000000034,
                    "velocity": 0.5905511811023622,
                    "duration": 0.17123300000000086
                },
                {
                    "name": "D5",
                    "midi": 74,
                    "time": 19.691795000000035,
                    "velocity": 0.5669291338582677,
                    "duration": 0.17123300000000086
                },
                {
                    "name": "C5",
                    "midi": 72,
                    "time": 19.863028000000035,
                    "velocity": 0.5905511811023622,
                    "duration": 0.3424660000000017
                },
                {
                    "name": "B4",
                    "midi": 71,
                    "time": 20.205494000000037,
                    "velocity": 0.5590551181102362,
                    "duration": 0.3424660000000017
                },
                {
                    "name": "C5",
                    "midi": 72,
                    "time": 20.54796000000004,
                    "velocity": 0.5905511811023622,
                    "duration": 0.11415533333333272
                },
                {
                    "name": "G4",
                    "midi": 67,
                    "time": 20.66211533333337,
                    "velocity": 0.5433070866141733,
                    "duration": 0.11415533333333272
                },
                {
                    "name": "E5",
                    "midi": 76,
                    "time": 20.776270666666704,
                    "velocity": 0.5196850393700787,
                    "duration": 0.11415533333333272
                },
                {
                    "name": "C5",
                    "midi": 72,
                    "time": 20.890426000000037,
                    "velocity": 0.5905511811023622,
                    "duration": 0.11415533333333272
                },
                {
                    "name": "G5",
                    "midi": 79,
                    "time": 21.00458133333337,
                    "velocity": 0.5433070866141733,
                    "duration": 0.11415533333333272
                },
                {
                    "name": "E5",
                    "midi": 76,
                    "time": 21.118736666666702,
                    "velocity": 0.5196850393700787,
                    "duration": 0.11415533333333272
                },
                {
                    "name": "C6",
                    "midi": 84,
                    "time": 21.232892000000035,
                    "velocity": 0.5748031496062992,
                    "duration": 0.11415533333333272
                },
                {
                    "name": "B5",
                    "midi": 83,
                    "time": 21.347047333333368,
                    "velocity": 0.5196850393700787,
                    "duration": 0.11415533333333272
                },
                {
                    "name": "A5",
                    "midi": 81,
                    "time": 21.4612026666667,
                    "velocity": 0.5118110236220472,
                    "duration": 0.11415533333333272
                },
                {
                    "name": "G5",
                    "midi": 79,
                    "time": 21.575358000000033,
                    "velocity": 0.5511811023622047,
                    "duration": 0.11415533333333272
                },
                {
                    "name": "F5",
                    "midi": 77,
                    "time": 21.689513333333366,
                    "velocity": 0.5275590551181102,
                    "duration": 0.11415533333333272
                },
                {
                    "name": "E5",
                    "midi": 76,
                    "time": 21.8036686666667,
                    "velocity": 0.5118110236220472,
                    "duration": 0.11415533333333272
                },
                {
                    "name": "C#5",
                    "midi": 73,
                    "time": 21.91782400000003,
                    "velocity": 0.49606299212598426,
                    "duration": 0.11415533333333272
                },
                {
                    "name": "D5",
                    "midi": 74,
                    "time": 22.031979333333364,
                    "velocity": 0.47244094488188976,
                    "duration": 0.11415533333333272
                },
                {
                    "name": "F5",
                    "midi": 77,
                    "time": 22.146134666666697,
                    "velocity": 0.47244094488188976,
                    "duration": 0.11415533333333272
                },
                {
                    "name": "A5",
                    "midi": 81,
                    "time": 22.26029000000003,
                    "velocity": 0.4881889763779528,
                    "duration": 0.11415533333333272
                },
                {
                    "name": "F5",
                    "midi": 77,
                    "time": 22.374445333333362,
                    "velocity": 0.44881889763779526,
                    "duration": 0.11415533333333272
                },
                {
                    "name": "D5",
                    "midi": 74,
                    "time": 22.488600666666695,
                    "velocity": 0.44881889763779526,
                    "duration": 0.11415533333333272
                },
                {
                    "name": "G5",
                    "midi": 79,
                    "time": 22.602756000000028,
                    "velocity": 0.48031496062992124,
                    "duration": 0.11415533333333272
                },
                {
                    "name": "E5",
                    "midi": 76,
                    "time": 22.71691133333336,
                    "velocity": 0.44881889763779526,
                    "duration": 0.11415533333333272
                },
                {
                    "name": "C5",
                    "midi": 72,
                    "time": 22.831066666666693,
                    "velocity": 0.44881889763779526,
                    "duration": 0.11415533333333272
                },
                {
                    "name": "F5",
                    "midi": 77,
                    "time": 22.945222000000026,
                    "velocity": 0.48031496062992124,
                    "duration": 0.11415533333333272
                },
                {
                    "name": "D5",
                    "midi": 74,
                    "time": 23.05937733333336,
                    "velocity": 0.4330708661417323,
                    "duration": 0.11415533333333272
                },
                {
                    "name": "B4",
                    "midi": 71,
                    "time": 23.17353266666669,
                    "velocity": 0.4330708661417323,
                    "duration": 0.11415533333333272
                },
                {
                    "name": "C5",
                    "midi": 72,
                    "time": 23.287688000000024,
                    "velocity": 0.5905511811023622,
                    "duration": 0.11415533333333272
                },
                {
                    "name": "G4",
                    "midi": 67,
                    "time": 23.401843333333357,
                    "velocity": 0.5433070866141733,
                    "duration": 0.11415533333333272
                },
                {
                    "name": "E5",
                    "midi": 76,
                    "time": 23.51599866666669,
                    "velocity": 0.5275590551181102,
                    "duration": 0.11415533333333272
                },
                {
                    "name": "C5",
                    "midi": 72,
                    "time": 23.630154000000022,
                    "velocity": 0.5905511811023622,
                    "duration": 0.11415533333333272
                },
                {
                    "name": "G5",
                    "midi": 79,
                    "time": 23.744309333333355,
                    "velocity": 0.5433070866141733,
                    "duration": 0.11415533333333272
                },
                {
                    "name": "E5",
                    "midi": 76,
                    "time": 23.858464666666688,
                    "velocity": 0.5275590551181102,
                    "duration": 0.11415533333333272
                },
                {
                    "name": "C6",
                    "midi": 84,
                    "time": 23.97262000000002,
                    "velocity": 0.5748031496062992,
                    "duration": 0.11415533333333272
                },
                {
                    "name": "B5",
                    "midi": 83,
                    "time": 24.086775333333353,
                    "velocity": 0.5196850393700787,
                    "duration": 0.11415533333333272
                },
                {
                    "name": "A5",
                    "midi": 81,
                    "time": 24.200930666666686,
                    "velocity": 0.5039370078740157,
                    "duration": 0.11415533333333272
                },
                {
                    "name": "G5",
                    "midi": 79,
                    "time": 24.31508600000002,
                    "velocity": 0.5511811023622047,
                    "duration": 0.11415533333333272
                },
                {
                    "name": "F5",
                    "midi": 77,
                    "time": 24.42924133333335,
                    "velocity": 0.5275590551181102,
                    "duration": 0.11415533333333272
                },
                {
                    "name": "E5",
                    "midi": 76,
                    "time": 24.543396666666684,
                    "velocity": 0.5118110236220472,
                    "duration": 0.11415533333333272
                },
                {
                    "name": "C#5",
                    "midi": 73,
                    "time": 24.657552000000017,
                    "velocity": 0.49606299212598426,
                    "duration": 0.11415533333333272
                },
                {
                    "name": "D5",
                    "midi": 74,
                    "time": 24.77170733333335,
                    "velocity": 0.47244094488188976,
                    "duration": 0.11415533333333272
                },
                {
                    "name": "F5",
                    "midi": 77,
                    "time": 24.885862666666682,
                    "velocity": 0.4645669291338583,
                    "duration": 0.11415533333333272
                },
                {
                    "name": "A5",
                    "midi": 81,
                    "time": 25.000018000000015,
                    "velocity": 0.4881889763779528,
                    "duration": 0.11415533333333272
                },
                {
                    "name": "F5",
                    "midi": 77,
                    "time": 25.114173333333348,
                    "velocity": 0.44881889763779526,
                    "duration": 0.11415533333333272
                },
                {
                    "name": "D5",
                    "midi": 74,
                    "time": 25.22832866666668,
                    "velocity": 0.4330708661417323,
                    "duration": 0.11415533333333272
                },
                {
                    "name": "G5",
                    "midi": 79,
                    "time": 25.342484000000013,
                    "velocity": 0.48031496062992124,
                    "duration": 0.11415533333333272
                },
                {
                    "name": "E5",
                    "midi": 76,
                    "time": 25.456639333333346,
                    "velocity": 0.44881889763779526,
                    "duration": 0.11415533333333272
                },
                {
                    "name": "C5",
                    "midi": 72,
                    "time": 25.57079466666668,
                    "velocity": 0.4251968503937008,
                    "duration": 0.11415533333333272
                },
                {
                    "name": "F5",
                    "midi": 77,
                    "time": 25.68495000000001,
                    "velocity": 0.48031496062992124,
                    "duration": 0.11415533333333272
                },
                {
                    "name": "D5",
                    "midi": 74,
                    "time": 25.799105333333344,
                    "velocity": 0.4330708661417323,
                    "duration": 0.11415533333333272
                },
                {
                    "name": "B4",
                    "midi": 71,
                    "time": 25.913260666666677,
                    "velocity": 0.4330708661417323,
                    "duration": 0.11415533333333272
                },
                {
                    "name": "C5",
                    "midi": 72,
                    "time": 26.02741600000001,
                    "velocity": 0.4094488188976378,
                    "duration": 0.08561650000000043
                },
                {
                    "name": "G4",
                    "midi": 67,
                    "time": 26.36988200000001,
                    "velocity": 0.3937007874015748,
                    "duration": 0.08561650000000043
                },
                {
                    "name": "C4",
                    "midi": 60,
                    "time": 26.712348000000013,
                    "velocity": 0.3937007874015748,
                    "duration": 0.6849319999999999
                },
                {
                    "name": "E5",
                    "midi": 76,
                    "time": 27.397280000000013,
                    "velocity": 0.3937007874015748,
                    "duration": 0.6849319999999999
                },
                {
                    "name": "F5",
                    "midi": 77,
                    "time": 28.082212000000013,
                    "velocity": 0.36220472440944884,
                    "duration": 0.08561650000000043
                },
                {
                    "name": "E5",
                    "midi": 76,
                    "time": 28.167828500000013,
                    "velocity": 0.36220472440944884,
                    "duration": 0.08561650000000043
                },
                {
                    "name": "D5",
                    "midi": 74,
                    "time": 28.253445000000013,
                    "velocity": 0.36220472440944884,
                    "duration": 0.08561650000000043
                },
                {
                    "name": "E5",
                    "midi": 76,
                    "time": 28.339061500000014,
                    "velocity": 0.36220472440944884,
                    "duration": 0.08561650000000043
                },
                {
                    "name": "G5",
                    "midi": 79,
                    "time": 28.424678000000014,
                    "velocity": 0.3937007874015748,
                    "duration": 0.17123300000000086
                },
                {
                    "name": "F5",
                    "midi": 77,
                    "time": 28.595911000000015,
                    "velocity": 0.36220472440944884,
                    "duration": 0.17123300000000086
                },
                {
                    "name": "E5",
                    "midi": 76,
                    "time": 28.767144000000016,
                    "velocity": 0.4015748031496063,
                    "duration": 0.17123300000000086
                },
                {
                    "name": "D5",
                    "midi": 74,
                    "time": 28.938377000000017,
                    "velocity": 0.3858267716535433,
                    "duration": 0.17123300000000086
                },
                {
                    "name": "C5",
                    "midi": 72,
                    "time": 29.109610000000018,
                    "velocity": 0.3858267716535433,
                    "duration": 0.17123300000000086
                },
                {
                    "name": "B4",
                    "midi": 71,
                    "time": 29.28084300000002,
                    "velocity": 0.3858267716535433,
                    "duration": 0.17123300000000086
                },
                {
                    "name": "C5",
                    "midi": 72,
                    "time": 29.45207600000002,
                    "velocity": 0.4094488188976378,
                    "duration": 0.08561650000000043
                },
                {
                    "name": "C#5",
                    "midi": 73,
                    "time": 29.79454200000002,
                    "velocity": 0.4330708661417323,
                    "duration": 0.08561650000000043
                },
                {
                    "name": "D5",
                    "midi": 74,
                    "time": 30.137008000000023,
                    "velocity": 0.4409448818897638,
                    "duration": 0.08561650000000043
                },
                {
                    "name": "D#5",
                    "midi": 75,
                    "time": 30.479474000000025,
                    "velocity": 0.47244094488188976,
                    "duration": 0.08561650000000043
                },
                {
                    "name": "E5",
                    "midi": 76,
                    "time": 30.821940000000026,
                    "velocity": 0.49606299212598426,
                    "duration": 0.08561650000000043
                },
                {
                    "name": "G5",
                    "midi": 79,
                    "time": 31.164406000000028,
                    "velocity": 0.4881889763779528,
                    "duration": 0.17123300000000086
                },
                {
                    "name": "F5",
                    "midi": 77,
                    "time": 31.33563900000003,
                    "velocity": 0.44881889763779526,
                    "duration": 0.17123300000000086
                },
                {
                    "name": "E5",
                    "midi": 76,
                    "time": 31.50687200000003,
                    "velocity": 0.4881889763779528,
                    "duration": 0.5136990000000026
                },
                {
                    "name": "F5",
                    "midi": 77,
                    "time": 32.02057100000003,
                    "velocity": 0.4330708661417323,
                    "duration": 0.08561650000000043
                },
                {
                    "name": "E5",
                    "midi": 76,
                    "time": 32.10618750000003,
                    "velocity": 0.4330708661417323,
                    "duration": 0.08561650000000043
                },
                {
                    "name": "D5",
                    "midi": 74,
                    "time": 32.19180400000003,
                    "velocity": 0.4409448818897638,
                    "duration": 0.3424660000000017
                },
                {
                    "name": "F5",
                    "midi": 77,
                    "time": 32.87673600000004,
                    "velocity": 0.4566929133858268,
                    "duration": 0.6849320000000034
                },
                {
                    "name": "G5",
                    "midi": 79,
                    "time": 33.56166800000004,
                    "velocity": 0.3779527559055118,
                    "duration": 0.08561650000000043
                },
                {
                    "name": "F5",
                    "midi": 77,
                    "time": 33.64728450000004,
                    "velocity": 0.3858267716535433,
                    "duration": 0.08561650000000043
                },
                {
                    "name": "E5",
                    "midi": 76,
                    "time": 33.73290100000004,
                    "velocity": 0.3858267716535433,
                    "duration": 0.08561650000000043
                },
                {
                    "name": "F5",
                    "midi": 77,
                    "time": 33.81851750000004,
                    "velocity": 0.3858267716535433,
                    "duration": 0.08561650000000043
                },
                {
                    "name": "A5",
                    "midi": 81,
                    "time": 33.90413400000004,
                    "velocity": 0.4330708661417323,
                    "duration": 0.17123300000000086
                },
                {
                    "name": "G5",
                    "midi": 79,
                    "time": 34.07536700000004,
                    "velocity": 0.4094488188976378,
                    "duration": 0.17123300000000086
                },
                {
                    "name": "F5",
                    "midi": 77,
                    "time": 34.24660000000004,
                    "velocity": 0.4094488188976378,
                    "duration": 0.17123300000000086
                },
                {
                    "name": "E5",
                    "midi": 76,
                    "time": 34.417833000000044,
                    "velocity": 0.3937007874015748,
                    "duration": 0.17123300000000086
                },
                {
                    "name": "D5",
                    "midi": 74,
                    "time": 34.589066000000045,
                    "velocity": 0.3937007874015748,
                    "duration": 0.17123300000000086
                },
                {
                    "name": "C5",
                    "midi": 72,
                    "time": 34.760299000000046,
                    "velocity": 0.3937007874015748,
                    "duration": 0.17123300000000086
                },
                {
                    "name": "B4",
                    "midi": 71,
                    "time": 34.93153200000005,
                    "velocity": 0.3858267716535433,
                    "duration": 0.17123300000000086
                },
                {
                    "name": "C5",
                    "midi": 72,
                    "time": 35.10276500000005,
                    "velocity": 0.3937007874015748,
                    "duration": 0.08561650000000043
                },
                {
                    "name": "D5",
                    "midi": 74,
                    "time": 35.27399800000005,
                    "velocity": 0.4015748031496063,
                    "duration": 0.08561650000000043
                },
                {
                    "name": "E5",
                    "midi": 76,
                    "time": 35.44523100000005,
                    "velocity": 0.41732283464566927,
                    "duration": 0.08561650000000043
                },
                {
                    "name": "F5",
                    "midi": 77,
                    "time": 35.61646400000005,
                    "velocity": 0.4251968503937008,
                    "duration": 0.08561650000000043
                },
                {
                    "name": "G5",
                    "midi": 79,
                    "time": 35.78769700000005,
                    "velocity": 0.4330708661417323,
                    "duration": 0.08561650000000043
                },
                {
                    "name": "A5",
                    "midi": 81,
                    "time": 35.95893000000005,
                    "velocity": 0.4409448818897638,
                    "duration": 0.08561650000000043
                },
                {
                    "name": "B5",
                    "midi": 83,
                    "time": 36.13016300000005,
                    "velocity": 0.4566929133858268,
                    "duration": 0.08561650000000043
                },
                {
                    "name": "C6",
                    "midi": 84,
                    "time": 36.301396000000054,
                    "velocity": 0.47244094488188976,
                    "duration": 0.08561650000000043
                },
                {
                    "name": "D6",
                    "midi": 86,
                    "time": 36.472629000000055,
                    "velocity": 0.48031496062992124,
                    "duration": 0.08561650000000043
                },
                {
                    "name": "E6",
                    "midi": 88,
                    "time": 36.643862000000055,
                    "velocity": 0.4881889763779528,
                    "duration": 0.08561650000000043
                },
                {
                    "name": "F6",
                    "midi": 89,
                    "time": 36.815095000000056,
                    "velocity": 0.49606299212598426,
                    "duration": 0.08561650000000043
                },
                {
                    "name": "D#6",
                    "midi": 87,
                    "time": 36.98632800000006,
                    "velocity": 0.6220472440944882,
                    "duration": 0.6849320000000034
                },
                {
                    "name": "E6",
                    "midi": 88,
                    "time": 37.67126000000006,
                    "velocity": 0.5905511811023622,
                    "duration": 0.3424660000000017
                },
                {
                    "name": "E5",
                    "midi": 76,
                    "time": 38.356192000000064,
                    "velocity": 0.5039370078740157,
                    "duration": 0.4566213333333309
                },
                {
                    "name": "A5",
                    "midi": 81,
                    "time": 38.812813333333395,
                    "velocity": 0.47244094488188976,
                    "duration": 0.11415533333333627
                },
                {
                    "name": "C6",
                    "midi": 84,
                    "time": 38.92696866666673,
                    "velocity": 0.47244094488188976,
                    "duration": 0.11415533333333627
                },
                {
                    "name": "E6",
                    "midi": 88,
                    "time": 39.04112400000007,
                    "velocity": 0.47244094488188976,
                    "duration": 0.11415533333333627
                },
                {
                    "name": "C6",
                    "midi": 84,
                    "time": 39.155279333333404,
                    "velocity": 0.4566929133858268,
                    "duration": 0.11415533333333627
                },
                {
                    "name": "A5",
                    "midi": 81,
                    "time": 39.26943466666674,
                    "velocity": 0.4566929133858268,
                    "duration": 0.11415533333333627
                },
                {
                    "name": "C6",
                    "midi": 84,
                    "time": 39.383590000000076,
                    "velocity": 0.47244094488188976,
                    "duration": 0.11415533333333627
                },
                {
                    "name": "A5",
                    "midi": 81,
                    "time": 39.49774533333341,
                    "velocity": 0.4566929133858268,
                    "duration": 0.11415533333333627
                },
                {
                    "name": "E5",
                    "midi": 76,
                    "time": 39.61190066666675,
                    "velocity": 0.4566929133858268,
                    "duration": 0.11415533333333627
                },
                {
                    "name": "D5",
                    "midi": 74,
                    "time": 39.726056000000085,
                    "velocity": 0.5039370078740157,
                    "duration": 0.4566213333333309
                },
                {
                    "name": "G5",
                    "midi": 79,
                    "time": 40.182677333333416,
                    "velocity": 0.47244094488188976,
                    "duration": 0.11415533333333627
                },
                {
                    "name": "B5",
                    "midi": 83,
                    "time": 40.29683266666675,
                    "velocity": 0.47244094488188976,
                    "duration": 0.11415533333333627
                },
                {
                    "name": "D6",
                    "midi": 86,
                    "time": 40.41098800000009,
                    "velocity": 0.47244094488188976,
                    "duration": 0.11415533333333627
                },
                {
                    "name": "B5",
                    "midi": 83,
                    "time": 40.525143333333425,
                    "velocity": 0.4645669291338583,
                    "duration": 0.11415533333333627
                },
                {
                    "name": "G5",
                    "midi": 79,
                    "time": 40.63929866666676,
                    "velocity": 0.4645669291338583,
                    "duration": 0.11415533333333627
                },
                {
                    "name": "B5",
                    "midi": 83,
                    "time": 40.7534540000001,
                    "velocity": 0.47244094488188976,
                    "duration": 0.11415533333333627
                },
                {
                    "name": "G5",
                    "midi": 79,
                    "time": 40.867609333333434,
                    "velocity": 0.4566929133858268,
                    "duration": 0.11415533333333627
                },
                {
                    "name": "D5",
                    "midi": 74,
                    "time": 40.98176466666677,
                    "velocity": 0.4566929133858268,
                    "duration": 0.11415533333333627
                },
                {
                    "name": "D5",
                    "midi": 74,
                    "time": 41.21007533333344,
                    "velocity": 0.47244094488188976,
                    "duration": 0.11415533333333627
                },
                {
                    "name": "A5",
                    "midi": 81,
                    "time": 41.32423066666678,
                    "velocity": 0.47244094488188976,
                    "duration": 0.11415533333333627
                },
                {
                    "name": "C6",
                    "midi": 84,
                    "time": 41.438386000000115,
                    "velocity": 0.47244094488188976,
                    "duration": 0.11415533333333627
                },
                {
                    "name": "A5",
                    "midi": 81,
                    "time": 41.55254133333345,
                    "velocity": 0.4566929133858268,
                    "duration": 0.11415533333333627
                },
                {
                    "name": "D5",
                    "midi": 74,
                    "time": 41.66669666666679,
                    "velocity": 0.47244094488188976,
                    "duration": 0.11415533333333627
                },
                {
                    "name": "D5",
                    "midi": 74,
                    "time": 41.89500733333346,
                    "velocity": 0.47244094488188976,
                    "duration": 0.11415533333333627
                },
                {
                    "name": "G5",
                    "midi": 79,
                    "time": 42.009162666666796,
                    "velocity": 0.47244094488188976,
                    "duration": 0.11415533333333627
                },
                {
                    "name": "B5",
                    "midi": 83,
                    "time": 42.12331800000013,
                    "velocity": 0.47244094488188976,
                    "duration": 0.11415533333333627
                },
                {
                    "name": "G5",
                    "midi": 79,
                    "time": 42.23747333333347,
                    "velocity": 0.4645669291338583,
                    "duration": 0.11415533333333627
                },
                {
                    "name": "D5",
                    "midi": 74,
                    "time": 42.351628666666805,
                    "velocity": 0.47244094488188976,
                    "duration": 0.11415533333333627
                },
                {
                    "name": "A5",
                    "midi": 81,
                    "time": 42.46578400000014,
                    "velocity": 0.5354330708661418,
                    "duration": 0.2568495000000013
                },
                {
                    "name": "F#5",
                    "midi": 78,
                    "time": 42.72263350000014,
                    "velocity": 0.49606299212598426,
                    "duration": 0.08561650000000043
                },
                {
                    "name": "D5",
                    "midi": 74,
                    "time": 42.80825000000014,
                    "velocity": 0.47244094488188976,
                    "duration": 0.3424660000000017
                },
                {
                    "name": "G4",
                    "midi": 67,
                    "time": 43.75003150000015,
                    "velocity": 0.33858267716535434,
                    "duration": 0.08561650000000043
                },
                {
                    "name": "G5",
                    "midi": 79,
                    "time": 43.83564800000015,
                    "velocity": 0.5039370078740157,
                    "duration": 0.8561649999999972
                },
                {
                    "name": "F#5",
                    "midi": 78,
                    "time": 44.691813000000145,
                    "velocity": 0.3937007874015748,
                    "duration": 0.17123300000000086
                },
                {
                    "name": "E5",
                    "midi": 76,
                    "time": 44.863046000000146,
                    "velocity": 0.3937007874015748,
                    "duration": 0.17123300000000086
                },
                {
                    "name": "D5",
                    "midi": 74,
                    "time": 45.03427900000015,
                    "velocity": 0.3937007874015748,
                    "duration": 0.1655252333333337
                },
                {
                    "name": "D5",
                    "midi": 74,
                    "time": 45.20551200000015,
                    "velocity": 0.41732283464566927,
                    "duration": 0.17123300000000086
                },
                {
                    "name": "C5",
                    "midi": 72,
                    "time": 45.37674500000015,
                    "velocity": 0.3858267716535433,
                    "duration": 0.17123300000000086
                },
                {
                    "name": "B4",
                    "midi": 71,
                    "time": 45.54797800000015,
                    "velocity": 0.3937007874015748,
                    "duration": 0.17123300000000086
                },
                {
                    "name": "A4",
                    "midi": 69,
                    "time": 45.71921100000015,
                    "velocity": 0.3700787401574803,
                    "duration": 0.17123300000000086
                },
                {
                    "name": "D5",
                    "midi": 74,
                    "time": 45.89044400000015,
                    "velocity": 0.4251968503937008,
                    "duration": 0.08561650000000043
                },
                {
                    "name": "C5",
                    "midi": 72,
                    "time": 46.23291000000015,
                    "velocity": 0.4015748031496063,
                    "duration": 0.08561650000000043
                },
                {
                    "name": "A#4",
                    "midi": 70,
                    "time": 46.575376000000155,
                    "velocity": 0.41732283464566927,
                    "duration": 0.3424660000000017
                },
                {
                    "name": "B4",
                    "midi": 71,
                    "time": 46.91784200000016,
                    "velocity": 0.4015748031496063,
                    "duration": 0.3424660000000017
                },
                {
                    "name": "G4",
                    "midi": 67,
                    "time": 49.22948750000016,
                    "velocity": 0.33858267716535434,
                    "duration": 0.08561650000000043
                },
                {
                    "name": "G5",
                    "midi": 79,
                    "time": 49.31510400000016,
                    "velocity": 0.5039370078740157,
                    "duration": 0.8561649999999972
                },
                {
                    "name": "F#5",
                    "midi": 78,
                    "time": 50.17126900000016,
                    "velocity": 0.3937007874015748,
                    "duration": 0.17123300000000086
                },
                {
                    "name": "E5",
                    "midi": 76,
                    "time": 50.34250200000016,
                    "velocity": 0.3937007874015748,
                    "duration": 0.17123300000000086
                },
                {
                    "name": "D5",
                    "midi": 74,
                    "time": 50.51373500000016,
                    "velocity": 0.3779527559055118,
                    "duration": 0.16409829166666867
                },
                {
                    "name": "D5",
                    "midi": 74,
                    "time": 50.68496800000016,
                    "velocity": 0.41732283464566927,
                    "duration": 0.17123300000000086
                },
                {
                    "name": "C5",
                    "midi": 72,
                    "time": 50.85620100000016,
                    "velocity": 0.3700787401574803,
                    "duration": 0.17123300000000086
                },
                {
                    "name": "B4",
                    "midi": 71,
                    "time": 51.02743400000016,
                    "velocity": 0.3937007874015748,
                    "duration": 0.17123300000000086
                },
                {
                    "name": "A4",
                    "midi": 69,
                    "time": 51.198667000000164,
                    "velocity": 0.3937007874015748,
                    "duration": 0.17123300000000086
                },
                {
                    "name": "D5",
                    "midi": 74,
                    "time": 51.369900000000165,
                    "velocity": 0.4251968503937008,
                    "duration": 0.08561650000000043
                },
                {
                    "name": "C5",
                    "midi": 72,
                    "time": 51.712366000000166,
                    "velocity": 0.4015748031496063,
                    "duration": 0.08561650000000043
                },
                {
                    "name": "B4",
                    "midi": 71,
                    "time": 52.05483200000017,
                    "velocity": 0.4251968503937008,
                    "duration": 0.3424660000000017
                },
                {
                    "name": "E5",
                    "midi": 76,
                    "time": 52.73976400000017,
                    "velocity": 0.4094488188976378,
                    "duration": 0.08561650000000043
                },
                {
                    "name": "F#5",
                    "midi": 78,
                    "time": 52.82538050000017,
                    "velocity": 0.4330708661417323,
                    "duration": 0.08561650000000043
                },
                {
                    "name": "E5",
                    "midi": 76,
                    "time": 52.91099700000017,
                    "velocity": 0.41732283464566927,
                    "duration": 0.08561650000000043
                },
                {
                    "name": "F#5",
                    "midi": 78,
                    "time": 52.99661350000017,
                    "velocity": 0.4881889763779528,
                    "duration": 0.08561650000000043
                },
                {
                    "name": "G5",
                    "midi": 79,
                    "time": 53.08223000000017,
                    "velocity": 0.4881889763779528,
                    "duration": 0.17123300000000086
                },
                {
                    "name": "G5",
                    "midi": 79,
                    "time": 53.253463000000174,
                    "velocity": 0.47244094488188976,
                    "duration": 0.08561650000000043
                },
                {
                    "name": "G5",
                    "midi": 79,
                    "time": 53.424696000000175,
                    "velocity": 0.47244094488188976,
                    "duration": 0.3424660000000017
                },
                {
                    "name": "A5",
                    "midi": 81,
                    "time": 54.10962800000018,
                    "velocity": 0.4094488188976378,
                    "duration": 0.08561650000000043
                },
                {
                    "name": "B5",
                    "midi": 83,
                    "time": 54.19524450000018,
                    "velocity": 0.4330708661417323,
                    "duration": 0.08561650000000043
                },
                {
                    "name": "A5",
                    "midi": 81,
                    "time": 54.28086100000018,
                    "velocity": 0.4094488188976378,
                    "duration": 0.08561650000000043
                },
                {
                    "name": "B5",
                    "midi": 83,
                    "time": 54.36647750000018,
                    "velocity": 0.4881889763779528,
                    "duration": 0.08561650000000043
                },
                {
                    "name": "C6",
                    "midi": 84,
                    "time": 54.45209400000018,
                    "velocity": 0.4881889763779528,
                    "duration": 0.17123300000000086
                },
                {
                    "name": "C6",
                    "midi": 84,
                    "time": 54.62332700000018,
                    "velocity": 0.47244094488188976,
                    "duration": 0.08561650000000043
                },
                {
                    "name": "C6",
                    "midi": 84,
                    "time": 54.79456000000018,
                    "velocity": 0.47244094488188976,
                    "duration": 0.3424660000000017
                },
                {
                    "name": "C6",
                    "midi": 84,
                    "time": 55.479492000000185,
                    "velocity": 0.4015748031496063,
                    "duration": 0.08561650000000043
                },
                {
                    "name": "D6",
                    "midi": 86,
                    "time": 55.565108500000186,
                    "velocity": 0.4251968503937008,
                    "duration": 0.08561650000000043
                },
                {
                    "name": "C6",
                    "midi": 84,
                    "time": 55.650725000000186,
                    "velocity": 0.4015748031496063,
                    "duration": 0.08561650000000043
                },
                {
                    "name": "D6",
                    "midi": 86,
                    "time": 55.73634150000019,
                    "velocity": 0.49606299212598426,
                    "duration": 0.08561650000000043
                },
                {
                    "name": "E6",
                    "midi": 88,
                    "time": 55.82195800000019,
                    "velocity": 0.49606299212598426,
                    "duration": 0.17123300000000086
                },
                {
                    "name": "E6",
                    "midi": 88,
                    "time": 55.99319100000019,
                    "velocity": 0.47244094488188976,
                    "duration": 0.08561650000000043
                },
                {
                    "name": "E6",
                    "midi": 88,
                    "time": 56.16442400000019,
                    "velocity": 0.47244094488188976,
                    "duration": 0.17123300000000086
                },
                {
                    "name": "D6",
                    "midi": 86,
                    "time": 56.33565700000019,
                    "velocity": 0.48031496062992124,
                    "duration": 0.17123300000000086
                },
                {
                    "name": "C6",
                    "midi": 84,
                    "time": 56.50689000000019,
                    "velocity": 0.4409448818897638,
                    "duration": 0.08561650000000043
                },
                {
                    "name": "B5",
                    "midi": 83,
                    "time": 56.67812300000019,
                    "velocity": 0.4409448818897638,
                    "duration": 0.08561650000000043
                },
                {
                    "name": "A5",
                    "midi": 81,
                    "time": 56.84935600000019,
                    "velocity": 0.4409448818897638,
                    "duration": 0.08561650000000043
                },
                {
                    "name": "D6",
                    "midi": 86,
                    "time": 57.191822000000194,
                    "velocity": 0.4409448818897638,
                    "duration": 0.08561650000000043
                },
                {
                    "name": "C6",
                    "midi": 84,
                    "time": 57.534288000000195,
                    "velocity": 0.4881889763779528,
                    "duration": 0.3424660000000017
                },
                {
                    "name": "B5",
                    "midi": 83,
                    "time": 57.8767540000002,
                    "velocity": 0.4566929133858268,
                    "duration": 0.3424660000000017
                },
                {
                    "name": "E5",
                    "midi": 76,
                    "time": 58.2192200000002,
                    "velocity": 0.4015748031496063,
                    "duration": 0.08561650000000043
                },
                {
                    "name": "F#5",
                    "midi": 78,
                    "time": 58.3048365000002,
                    "velocity": 0.4251968503937008,
                    "duration": 0.08561650000000043
                },
                {
                    "name": "E5",
                    "midi": 76,
                    "time": 58.3904530000002,
                    "velocity": 0.4015748031496063,
                    "duration": 0.08561650000000043
                },
                {
                    "name": "F#5",
                    "midi": 78,
                    "time": 58.4760695000002,
                    "velocity": 0.5039370078740157,
                    "duration": 0.08561650000000043
                },
                {
                    "name": "G5",
                    "midi": 79,
                    "time": 58.5616860000002,
                    "velocity": 0.5039370078740157,
                    "duration": 0.17123300000000086
                },
                {
                    "name": "G5",
                    "midi": 79,
                    "time": 58.7329190000002,
                    "velocity": 0.47244094488188976,
                    "duration": 0.08561650000000043
                },
                {
                    "name": "G5",
                    "midi": 79,
                    "time": 58.9041520000002,
                    "velocity": 0.47244094488188976,
                    "duration": 0.3424660000000017
                },
                {
                    "name": "A5",
                    "midi": 81,
                    "time": 59.589084000000206,
                    "velocity": 0.3937007874015748,
                    "duration": 0.08561650000000043
                },
                {
                    "name": "B5",
                    "midi": 83,
                    "time": 59.674700500000206,
                    "velocity": 0.4251968503937008,
                    "duration": 0.08561650000000043
                },
                {
                    "name": "A5",
                    "midi": 81,
                    "time": 59.76031700000021,
                    "velocity": 0.4015748031496063,
                    "duration": 0.08561650000000043
                },
                {
                    "name": "B5",
                    "midi": 83,
                    "time": 59.84593350000021,
                    "velocity": 0.5196850393700787,
                    "duration": 0.08561650000000043
                },
                {
                    "name": "C6",
                    "midi": 84,
                    "time": 59.93155000000021,
                    "velocity": 0.5196850393700787,
                    "duration": 0.17123300000000086
                },
                {
                    "name": "C6",
                    "midi": 84,
                    "time": 60.10278300000021,
                    "velocity": 0.47244094488188976,
                    "duration": 0.08561650000000043
                },
                {
                    "name": "C6",
                    "midi": 84,
                    "time": 60.27401600000021,
                    "velocity": 0.47244094488188976,
                    "duration": 0.3424660000000017
                },
                {
                    "name": "C6",
                    "midi": 84,
                    "time": 60.95894800000021,
                    "velocity": 0.3937007874015748,
                    "duration": 0.08561650000000043
                },
                {
                    "name": "D6",
                    "midi": 86,
                    "time": 61.04456450000021,
                    "velocity": 0.4251968503937008,
                    "duration": 0.08561650000000043
                },
                {
                    "name": "C6",
                    "midi": 84,
                    "time": 61.13018100000021,
                    "velocity": 0.4015748031496063,
                    "duration": 0.08561650000000043
                },
                {
                    "name": "D6",
                    "midi": 86,
                    "time": 61.215797500000214,
                    "velocity": 0.5039370078740157,
                    "duration": 0.08561650000000043
                },
                {
                    "name": "E6",
                    "midi": 88,
                    "time": 61.301414000000214,
                    "velocity": 0.5039370078740157,
                    "duration": 0.17123300000000086
                },
                {
                    "name": "E6",
                    "midi": 88,
                    "time": 61.472647000000215,
                    "velocity": 0.48031496062992124,
                    "duration": 0.08561650000000043
                },
                {
                    "name": "E6",
                    "midi": 88,
                    "time": 61.643880000000216,
                    "velocity": 0.4881889763779528,
                    "duration": 0.17123300000000086
                },
                {
                    "name": "D6",
                    "midi": 86,
                    "time": 61.81511300000022,
                    "velocity": 0.48031496062992124,
                    "duration": 0.17123300000000086
                },
                {
                    "name": "C6",
                    "midi": 84,
                    "time": 61.98634600000022,
                    "velocity": 0.48031496062992124,
                    "duration": 0.08561650000000043
                },
                {
                    "name": "B5",
                    "midi": 83,
                    "time": 62.15757900000022,
                    "velocity": 0.48031496062992124,
                    "duration": 0.08561650000000043
                },
                {
                    "name": "B5",
                    "midi": 83,
                    "time": 62.32881200000022,
                    "velocity": 0.4881889763779528,
                    "duration": 0.17123300000000086
                },
                {
                    "name": "A5",
                    "midi": 81,
                    "time": 62.50004500000022,
                    "velocity": 0.48031496062992124,
                    "duration": 0.17123300000000086
                },
                {
                    "name": "G5",
                    "midi": 79,
                    "time": 62.67127800000022,
                    "velocity": 0.48031496062992124,
                    "duration": 0.08561650000000043
                },
                {
                    "name": "F#5",
                    "midi": 78,
                    "time": 62.84251100000022,
                    "velocity": 0.48031496062992124,
                    "duration": 0.08561650000000043
                },
                {
                    "name": "D6",
                    "midi": 86,
                    "time": 63.01374400000022,
                    "velocity": 0.6614173228346457,
                    "duration": 0.4566213333333309
                },
                {
                    "name": "B5",
                    "midi": 83,
                    "time": 63.470365333333554,
                    "velocity": 0.48031496062992124,
                    "duration": 0.11415533333333627
                },
                {
                    "name": "G5",
                    "midi": 79,
                    "time": 63.58452066666689,
                    "velocity": 0.48031496062992124,
                    "duration": 0.11415533333333627
                },
                {
                    "name": "F#5",
                    "midi": 78,
                    "time": 63.698676000000226,
                    "velocity": 0.49606299212598426,
                    "duration": 0.11415533333333627
                },
                {
                    "name": "A5",
                    "midi": 81,
                    "time": 63.81283133333356,
                    "velocity": 0.49606299212598426,
                    "duration": 0.11415533333333627
                },
                {
                    "name": "D5",
                    "midi": 74,
                    "time": 63.9269866666669,
                    "velocity": 0.48031496062992124,
                    "duration": 0.11415533333333627
                },
                {
                    "name": "G5",
                    "midi": 79,
                    "time": 64.04114200000024,
                    "velocity": 0.49606299212598426,
                    "duration": 0.11415533333332917
                },
                {
                    "name": "B5",
                    "midi": 83,
                    "time": 64.15529733333356,
                    "velocity": 0.48031496062992124,
                    "duration": 0.11415533333332917
                },
                {
                    "name": "D5",
                    "midi": 74,
                    "time": 64.2694526666669,
                    "velocity": 0.48031496062992124,
                    "duration": 0.11415533333332917
                },
                {
                    "name": "A5",
                    "midi": 81,
                    "time": 64.38360800000022,
                    "velocity": 0.5511811023622047,
                    "duration": 0.4566213333333309
                },
                {
                    "name": "F#5",
                    "midi": 78,
                    "time": 64.84022933333355,
                    "velocity": 0.4566929133858268,
                    "duration": 0.11415533333332917
                },
                {
                    "name": "D5",
                    "midi": 74,
                    "time": 64.95438466666688,
                    "velocity": 0.4645669291338583,
                    "duration": 0.11415533333332917
                },
                {
                    "name": "C#5",
                    "midi": 73,
                    "time": 65.06854000000021,
                    "velocity": 0.48031496062992124,
                    "duration": 0.11415533333332917
                },
                {
                    "name": "D5",
                    "midi": 74,
                    "time": 65.18269533333354,
                    "velocity": 0.44881889763779526,
                    "duration": 0.11415533333332917
                },
                {
                    "name": "A4",
                    "midi": 69,
                    "time": 65.29685066666687,
                    "velocity": 0.44881889763779526,
                    "duration": 0.11415533333332917
                },
                {
                    "name": "C5",
                    "midi": 72,
                    "time": 65.4110060000002,
                    "velocity": 0.47244094488188976,
                    "duration": 0.11415533333332917
                },
                {
                    "name": "D5",
                    "midi": 74,
                    "time": 65.52516133333353,
                    "velocity": 0.44881889763779526,
                    "duration": 0.11415533333332917
                },
                {
                    "name": "A4",
                    "midi": 69,
                    "time": 65.63931666666686,
                    "velocity": 0.44881889763779526,
                    "duration": 0.11415533333332917
                },
                {
                    "name": "D6",
                    "midi": 86,
                    "time": 65.75347200000019,
                    "velocity": 0.6062992125984252,
                    "duration": 0.4566213333333309
                },
                {
                    "name": "B5",
                    "midi": 83,
                    "time": 66.21009333333352,
                    "velocity": 0.48031496062992124,
                    "duration": 0.11415533333332917
                },
                {
                    "name": "G5",
                    "midi": 79,
                    "time": 66.32424866666685,
                    "velocity": 0.48031496062992124,
                    "duration": 0.11415533333332917
                },
                {
                    "name": "F#5",
                    "midi": 78,
                    "time": 66.43840400000018,
                    "velocity": 0.49606299212598426,
                    "duration": 0.11415533333332917
                },
                {
                    "name": "A5",
                    "midi": 81,
                    "time": 66.5525593333335,
                    "velocity": 0.49606299212598426,
                    "duration": 0.11415533333332917
                },
                {
                    "name": "D5",
                    "midi": 74,
                    "time": 66.66671466666683,
                    "velocity": 0.48031496062992124,
                    "duration": 0.11415533333332917
                },
                {
                    "name": "G5",
                    "midi": 79,
                    "time": 66.78087000000016,
                    "velocity": 0.49606299212598426,
                    "duration": 0.11415533333332917
                },
                {
                    "name": "B5",
                    "midi": 83,
                    "time": 66.89502533333349,
                    "velocity": 0.48031496062992124,
                    "duration": 0.11415533333332917
                },
                {
                    "name": "D5",
                    "midi": 74,
                    "time": 67.00918066666682,
                    "velocity": 0.48031496062992124,
                    "duration": 0.11415533333332917
                },
                {
                    "name": "A5",
                    "midi": 81,
                    "time": 67.12333600000015,
                    "velocity": 0.5590551181102362,
                    "duration": 0.4566213333333309
                },
                {
                    "name": "F#5",
                    "midi": 78,
                    "time": 67.57995733333348,
                    "velocity": 0.4330708661417323,
                    "duration": 0.11415533333332917
                },
                {
                    "name": "D5",
                    "midi": 74,
                    "time": 67.69411266666681,
                    "velocity": 0.4330708661417323,
                    "duration": 0.11415533333332917
                },
                {
                    "name": "C#5",
                    "midi": 73,
                    "time": 67.80826800000014,
                    "velocity": 0.44881889763779526,
                    "duration": 0.11415533333332917
                },
                {
                    "name": "D5",
                    "midi": 74,
                    "time": 67.92242333333347,
                    "velocity": 0.4251968503937008,
                    "duration": 0.11415533333332917
                },
                {
                    "name": "A4",
                    "midi": 69,
                    "time": 68.0365786666668,
                    "velocity": 0.4251968503937008,
                    "duration": 0.11415533333332917
                },
                {
                    "name": "C5",
                    "midi": 72,
                    "time": 68.15073400000013,
                    "velocity": 0.4330708661417323,
                    "duration": 0.11415533333332917
                },
                {
                    "name": "D5",
                    "midi": 74,
                    "time": 68.26488933333346,
                    "velocity": 0.41732283464566927,
                    "duration": 0.11415533333332917
                },
                {
                    "name": "A4",
                    "midi": 69,
                    "time": 68.37904466666679,
                    "velocity": 0.41732283464566927,
                    "duration": 0.11415533333332917
                },
                {
                    "name": "B4",
                    "midi": 71,
                    "time": 68.49320000000012,
                    "velocity": 0.41732283464566927,
                    "duration": 0.11415533333332917
                },
                {
                    "name": "G4",
                    "midi": 67,
                    "time": 68.60735533333344,
                    "velocity": 0.4251968503937008,
                    "duration": 0.11415533333332917
                },
                {
                    "name": "B4",
                    "midi": 71,
                    "time": 68.72151066666677,
                    "velocity": 0.4409448818897638,
                    "duration": 0.11415533333332917
                },
                {
                    "name": "D5",
                    "midi": 74,
                    "time": 68.8356660000001,
                    "velocity": 0.44881889763779526,
                    "duration": 0.11415533333332917
                },
                {
                    "name": "B4",
                    "midi": 71,
                    "time": 68.94982133333343,
                    "velocity": 0.4566929133858268,
                    "duration": 0.11415533333332917
                },
                {
                    "name": "D5",
                    "midi": 74,
                    "time": 69.06397666666676,
                    "velocity": 0.48031496062992124,
                    "duration": 0.11415533333332917
                },
                {
                    "name": "G5",
                    "midi": 79,
                    "time": 69.17813200000009,
                    "velocity": 0.48031496062992124,
                    "duration": 0.11415533333332917
                },
                {
                    "name": "D5",
                    "midi": 74,
                    "time": 69.29228733333342,
                    "velocity": 0.49606299212598426,
                    "duration": 0.11415533333332917
                },
                {
                    "name": "G5",
                    "midi": 79,
                    "time": 69.40644266666675,
                    "velocity": 0.5039370078740157,
                    "duration": 0.11415533333332917
                },
                {
                    "name": "B5",
                    "midi": 83,
                    "time": 69.52059800000008,
                    "velocity": 0.5039370078740157,
                    "duration": 0.11415533333332917
                },
                {
                    "name": "G5",
                    "midi": 79,
                    "time": 69.6347533333334,
                    "velocity": 0.5275590551181102,
                    "duration": 0.11415533333332917
                },
                {
                    "name": "B5",
                    "midi": 83,
                    "time": 69.74890866666674,
                    "velocity": 0.5354330708661418,
                    "duration": 0.11415533333332917
                },
                {
                    "name": "D6",
                    "midi": 86,
                    "time": 69.86306400000007,
                    "velocity": 0.5433070866141733,
                    "duration": 0.11415533333332917
                },
                {
                    "name": "B5",
                    "midi": 83,
                    "time": 69.9772193333334,
                    "velocity": 0.5511811023622047,
                    "duration": 0.11415533333332917
                },
                {
                    "name": "D6",
                    "midi": 86,
                    "time": 70.09137466666672,
                    "velocity": 0.5748031496062992,
                    "duration": 0.11415533333332917
                },
                {
                    "name": "F6",
                    "midi": 89,
                    "time": 70.20553000000005,
                    "velocity": 0.5748031496062992,
                    "duration": 0.11415533333332917
                },
                {
                    "name": "D6",
                    "midi": 86,
                    "time": 70.31968533333338,
                    "velocity": 0.5511811023622047,
                    "duration": 0.11415533333332917
                },
                {
                    "name": "B5",
                    "midi": 83,
                    "time": 70.43384066666671,
                    "velocity": 0.5354330708661418,
                    "duration": 0.11415533333332917
                },
                {
                    "name": "G5",
                    "midi": 79,
                    "time": 70.54799600000004,
                    "velocity": 0.5196850393700787,
                    "duration": 0.11415533333332917
                },
                {
                    "name": "F5",
                    "midi": 77,
                    "time": 70.66215133333337,
                    "velocity": 0.5039370078740157,
                    "duration": 0.11415533333332917
                },
                {
                    "name": "D5",
                    "midi": 74,
                    "time": 70.7763066666667,
                    "velocity": 0.48031496062992124,
                    "duration": 0.11415533333332917
                },
                {
                    "name": "B4",
                    "midi": 71,
                    "time": 70.89046200000003,
                    "velocity": 0.47244094488188976,
                    "duration": 0.11415533333332917
                },
                {
                    "name": "G4",
                    "midi": 67,
                    "time": 71.00461733333336,
                    "velocity": 0.4409448818897638,
                    "duration": 0.11415533333332917
                },
                {
                    "name": "F4",
                    "midi": 65,
                    "time": 71.11877266666669,
                    "velocity": 0.4251968503937008,
                    "duration": 0.11415533333332917
                },
                {
                    "name": "E4",
                    "midi": 64,
                    "time": 71.23292800000002,
                    "velocity": 0.4015748031496063,
                    "duration": 0.08561650000000043
                },
                {
                    "name": "E5",
                    "midi": 76,
                    "time": 71.40416100000002,
                    "velocity": 0.3779527559055118,
                    "duration": 0.17123300000000086
                },
                {
                    "name": "D#5",
                    "midi": 75,
                    "time": 71.57539400000002,
                    "velocity": 0.3779527559055118,
                    "duration": 0.17123300000000086
                },
                {
                    "name": "E5",
                    "midi": 76,
                    "time": 71.74662700000002,
                    "velocity": 0.3779527559055118,
                    "duration": 0.17123300000000086
                },
                {
                    "name": "D#5",
                    "midi": 75,
                    "time": 71.91786000000002,
                    "velocity": 0.3858267716535433,
                    "duration": 0.17123300000000086
                },
                {
                    "name": "E5",
                    "midi": 76,
                    "time": 72.08909300000002,
                    "velocity": 0.3858267716535433,
                    "duration": 0.17123300000000086
                },
                {
                    "name": "D#5",
                    "midi": 75,
                    "time": 72.26032600000002,
                    "velocity": 0.3858267716535433,
                    "duration": 0.17123300000000086
                },
                {
                    "name": "E5",
                    "midi": 76,
                    "time": 72.43155900000002,
                    "velocity": 0.3858267716535433,
                    "duration": 0.17123300000000086
                },
                {
                    "name": "G4",
                    "midi": 67,
                    "time": 72.60279200000002,
                    "velocity": 0.41732283464566927,
                    "duration": 1.0273980000000051
                },
                {
                    "name": "B4",
                    "midi": 71,
                    "time": 73.63019000000003,
                    "velocity": 0.3858267716535433,
                    "duration": 0.17123300000000086
                },
                {
                    "name": "F#4",
                    "midi": 66,
                    "time": 73.63019000000003,
                    "velocity": 0.3858267716535433,
                    "duration": 0.3424660000000017
                },
                {
                    "name": "A4",
                    "midi": 69,
                    "time": 73.80142300000003,
                    "velocity": 0.3858267716535433,
                    "duration": 0.17123300000000086
                },
                {
                    "name": "G4",
                    "midi": 67,
                    "time": 74.08681133333336,
                    "velocity": 0.4251968503937008,
                    "duration": 0.11415533333332917
                },
                {
                    "name": "B4",
                    "midi": 71,
                    "time": 74.20096666666669,
                    "velocity": 0.4409448818897638,
                    "duration": 0.11415533333332917
                },
                {
                    "name": "D5",
                    "midi": 74,
                    "time": 74.31512200000002,
                    "velocity": 0.44881889763779526,
                    "duration": 0.11415533333332917
                },
                {
                    "name": "B4",
                    "midi": 71,
                    "time": 74.42927733333335,
                    "velocity": 0.4566929133858268,
                    "duration": 0.11415533333332917
                },
                {
                    "name": "D5",
                    "midi": 74,
                    "time": 74.54343266666667,
                    "velocity": 0.48031496062992124,
                    "duration": 0.11415533333332917
                },
                {
                    "name": "G5",
                    "midi": 79,
                    "time": 74.657588,
                    "velocity": 0.48031496062992124,
                    "duration": 0.11415533333332917
                },
                {
                    "name": "D5",
                    "midi": 74,
                    "time": 74.77174333333333,
                    "velocity": 0.49606299212598426,
                    "duration": 0.11415533333332917
                },
                {
                    "name": "G5",
                    "midi": 79,
                    "time": 74.88589866666666,
                    "velocity": 0.5039370078740157,
                    "duration": 0.11415533333332917
                },
                {
                    "name": "B5",
                    "midi": 83,
                    "time": 75.00005399999999,
                    "velocity": 0.5039370078740157,
                    "duration": 0.11415533333332917
                },
                {
                    "name": "G5",
                    "midi": 79,
                    "time": 75.11420933333332,
                    "velocity": 0.5275590551181102,
                    "duration": 0.11415533333332917
                },
                {
                    "name": "B5",
                    "midi": 83,
                    "time": 75.22836466666665,
                    "velocity": 0.5354330708661418,
                    "duration": 0.11415533333332917
                },
                {
                    "name": "D6",
                    "midi": 86,
                    "time": 75.34251999999998,
                    "velocity": 0.5433070866141733,
                    "duration": 0.11415533333332917
                },
                {
                    "name": "B5",
                    "midi": 83,
                    "time": 75.45667533333331,
                    "velocity": 0.5511811023622047,
                    "duration": 0.11415533333332917
                },
                {
                    "name": "D6",
                    "midi": 86,
                    "time": 75.57083066666664,
                    "velocity": 0.5748031496062992,
                    "duration": 0.11415533333332917
                },
                {
                    "name": "F6",
                    "midi": 89,
                    "time": 75.68498599999997,
                    "velocity": 0.5748031496062992,
                    "duration": 0.11415533333332917
                },
                {
                    "name": "D6",
                    "midi": 86,
                    "time": 75.7991413333333,
                    "velocity": 0.5511811023622047,
                    "duration": 0.11415533333332917
                },
                {
                    "name": "B5",
                    "midi": 83,
                    "time": 75.91329666666662,
                    "velocity": 0.5354330708661418,
                    "duration": 0.11415533333332917
                },
                {
                    "name": "G5",
                    "midi": 79,
                    "time": 76.02745199999995,
                    "velocity": 0.5196850393700787,
                    "duration": 0.11415533333332917
                },
                {
                    "name": "F5",
                    "midi": 77,
                    "time": 76.14160733333328,
                    "velocity": 0.5039370078740157,
                    "duration": 0.11415533333332917
                },
                {
                    "name": "D5",
                    "midi": 74,
                    "time": 76.25576266666661,
                    "velocity": 0.48031496062992124,
                    "duration": 0.11415533333332917
                },
                {
                    "name": "B4",
                    "midi": 71,
                    "time": 76.36991799999994,
                    "velocity": 0.47244094488188976,
                    "duration": 0.11415533333332917
                },
                {
                    "name": "G4",
                    "midi": 67,
                    "time": 76.48407333333327,
                    "velocity": 0.4409448818897638,
                    "duration": 0.11415533333332917
                },
                {
                    "name": "F4",
                    "midi": 65,
                    "time": 76.5982286666666,
                    "velocity": 0.4251968503937008,
                    "duration": 0.11415533333332917
                },
                {
                    "name": "E4",
                    "midi": 64,
                    "time": 76.71238399999993,
                    "velocity": 0.4015748031496063,
                    "duration": 0.08561650000000043
                },
                {
                    "name": "E5",
                    "midi": 76,
                    "time": 76.88361699999993,
                    "velocity": 0.3779527559055118,
                    "duration": 0.17123300000000086
                },
                {
                    "name": "D#5",
                    "midi": 75,
                    "time": 77.05484999999993,
                    "velocity": 0.3779527559055118,
                    "duration": 0.17123300000000086
                },
                {
                    "name": "E5",
                    "midi": 76,
                    "time": 77.22608299999993,
                    "velocity": 0.36220472440944884,
                    "duration": 0.17123300000000086
                },
                {
                    "name": "D#5",
                    "midi": 75,
                    "time": 77.39731599999993,
                    "velocity": 0.3858267716535433,
                    "duration": 0.17123300000000086
                },
                {
                    "name": "E5",
                    "midi": 76,
                    "time": 77.56854899999993,
                    "velocity": 0.3700787401574803,
                    "duration": 0.17123300000000086
                },
                {
                    "name": "D#5",
                    "midi": 75,
                    "time": 77.73978199999993,
                    "velocity": 0.3858267716535433,
                    "duration": 0.17123300000000086
                },
                {
                    "name": "E5",
                    "midi": 76,
                    "time": 77.91101499999994,
                    "velocity": 0.3700787401574803,
                    "duration": 0.17123300000000086
                },
                {
                    "name": "G5",
                    "midi": 79,
                    "time": 78.25348099999994,
                    "velocity": 0.4251968503937008,
                    "duration": 0.17123300000000086
                },
                {
                    "name": "F#5",
                    "midi": 78,
                    "time": 78.42471399999994,
                    "velocity": 0.4566929133858268,
                    "duration": 0.17123300000000086
                },
                {
                    "name": "G5",
                    "midi": 79,
                    "time": 78.59594699999994,
                    "velocity": 0.4330708661417323,
                    "duration": 0.17123300000000086
                },
                {
                    "name": "F#5",
                    "midi": 78,
                    "time": 78.76717999999994,
                    "velocity": 0.48031496062992124,
                    "duration": 0.17123300000000086
                },
                {
                    "name": "G5",
                    "midi": 79,
                    "time": 78.93841299999994,
                    "velocity": 0.4645669291338583,
                    "duration": 0.17123300000000086
                },
                {
                    "name": "F#5",
                    "midi": 78,
                    "time": 79.10964599999994,
                    "velocity": 0.48031496062992124,
                    "duration": 0.17123300000000086
                },
                {
                    "name": "G5",
                    "midi": 79,
                    "time": 79.28087899999994,
                    "velocity": 0.5039370078740157,
                    "duration": 0.16409829166666157
                },
                {
                    "name": "G5",
                    "midi": 79,
                    "time": 79.45211199999994,
                    "velocity": 0.4881889763779528,
                    "duration": 0.17123300000000086
                },
                {
                    "name": "D5",
                    "midi": 74,
                    "time": 79.62334499999994,
                    "velocity": 0.4015748031496063,
                    "duration": 0.1569635833333365
                },
                {
                    "name": "D5",
                    "midi": 74,
                    "time": 79.79457799999994,
                    "velocity": 0.4251968503937008,
                    "duration": 0.08561650000000043
                },
                {
                    "name": "D5",
                    "midi": 74,
                    "time": 79.96581099999995,
                    "velocity": 0.4015748031496063,
                    "duration": 0.08561650000000043
                },
                {
                    "name": "E5",
                    "midi": 76,
                    "time": 80.13704399999995,
                    "velocity": 0.44881889763779526,
                    "duration": 0.17123300000000086
                },
                {
                    "name": "D5",
                    "midi": 74,
                    "time": 80.30827699999995,
                    "velocity": 0.41732283464566927,
                    "duration": 0.1569635833333365
                },
                {
                    "name": "C5",
                    "midi": 72,
                    "time": 80.47950999999995,
                    "velocity": 0.4094488188976378,
                    "duration": 0.08561650000000043
                },
                {
                    "name": "B4",
                    "midi": 71,
                    "time": 80.65074299999995,
                    "velocity": 0.4015748031496063,
                    "duration": 0.08561650000000043
                },
                {
                    "name": "B4",
                    "midi": 71,
                    "time": 80.82197599999995,
                    "velocity": 0.3858267716535433,
                    "duration": 0.3424660000000017
                },
                {
                    "name": "A4",
                    "midi": 69,
                    "time": 81.50690799999995,
                    "velocity": 0.3779527559055118,
                    "duration": 0.08561650000000043
                },
                {
                    "name": "B4",
                    "midi": 71,
                    "time": 81.59252449999995,
                    "velocity": 0.3543307086614173,
                    "duration": 0.08561650000000043
                },
                {
                    "name": "A4",
                    "midi": 69,
                    "time": 81.67814099999995,
                    "velocity": 0.3779527559055118,
                    "duration": 0.08561650000000043
                },
                {
                    "name": "B4",
                    "midi": 71,
                    "time": 81.76375749999995,
                    "velocity": 0.3543307086614173,
                    "duration": 0.08561650000000043
                },
                {
                    "name": "A4",
                    "midi": 69,
                    "time": 81.84937399999995,
                    "velocity": 0.3779527559055118,
                    "duration": 0.05707766666667169
                },
                {
                    "name": "B4",
                    "midi": 71,
                    "time": 81.90645166666663,
                    "velocity": 0.36220472440944884,
                    "duration": 0.05707766666667169
                },
                {
                    "name": "A4",
                    "midi": 69,
                    "time": 81.96495627499996,
                    "velocity": 0.36220472440944884,
                    "duration": 0.05707766666667169
                },
                {
                    "name": "G4",
                    "midi": 67,
                    "time": 82.02060699999997,
                    "velocity": 0.4015748031496063,
                    "duration": 0.08561650000000043
                },
                {
                    "name": "A4",
                    "midi": 69,
                    "time": 82.10622349999997,
                    "velocity": 0.3779527559055118,
                    "duration": 0.08561650000000043
                },
                {
                    "name": "G4",
                    "midi": 67,
                    "time": 82.19183999999997,
                    "velocity": 0.3937007874015748,
                    "duration": 0.3424660000000017
                },
                {
                    "name": "D5",
                    "midi": 74,
                    "time": 82.87677199999997,
                    "velocity": 0.3937007874015748,
                    "duration": 0.47089074999999525
                },
                {
                    "name": "F#5",
                    "midi": 78,
                    "time": 83.34766274999997,
                    "velocity": 0.3779527559055118,
                    "duration": 0.04280824999999311
                },
                {
                    "name": "E5",
                    "midi": 76,
                    "time": 83.39047099999996,
                    "velocity": 0.3779527559055118,
                    "duration": 0.08561650000000043
                },
                {
                    "name": "D5",
                    "midi": 74,
                    "time": 83.47608749999996,
                    "velocity": 0.3779527559055118,
                    "duration": 0.08561650000000043
                },
                {
                    "name": "D6",
                    "midi": 86,
                    "time": 83.56170399999996,
                    "velocity": 0.44881889763779526,
                    "duration": 0.08561650000000043
                },
                {
                    "name": "C6",
                    "midi": 84,
                    "time": 83.90416999999997,
                    "velocity": 0.4409448818897638,
                    "duration": 0.08561650000000043
                },
                {
                    "name": "B5",
                    "midi": 83,
                    "time": 84.24663599999997,
                    "velocity": 0.4251968503937008,
                    "duration": 0.08561650000000043
                },
                {
                    "name": "A5",
                    "midi": 81,
                    "time": 84.58910199999997,
                    "velocity": 0.4015748031496063,
                    "duration": 0.08561650000000043
                },
                {
                    "name": "G5",
                    "midi": 79,
                    "time": 84.93156799999997,
                    "velocity": 0.4330708661417323,
                    "duration": 0.6849320000000034
                },
                {
                    "name": "D5",
                    "midi": 74,
                    "time": 85.61649999999997,
                    "velocity": 0.3937007874015748,
                    "duration": 0.47089074999999525
                },
                {
                    "name": "F#5",
                    "midi": 78,
                    "time": 86.08739074999997,
                    "velocity": 0.3779527559055118,
                    "duration": 0.04280824999999311
                },
                {
                    "name": "E5",
                    "midi": 76,
                    "time": 86.13019899999996,
                    "velocity": 0.3779527559055118,
                    "duration": 0.08561650000000043
                },
                {
                    "name": "D5",
                    "midi": 74,
                    "time": 86.21581549999996,
                    "velocity": 0.3779527559055118,
                    "duration": 0.08561650000000043
                },
                {
                    "name": "D6",
                    "midi": 86,
                    "time": 86.30143199999996,
                    "velocity": 0.4409448818897638,
                    "duration": 0.08561650000000043
                },
                {
                    "name": "C6",
                    "midi": 84,
                    "time": 86.64389799999996,
                    "velocity": 0.41732283464566927,
                    "duration": 0.08561650000000043
                },
                {
                    "name": "B5",
                    "midi": 83,
                    "time": 86.98636399999997,
                    "velocity": 0.4094488188976378,
                    "duration": 0.08561650000000043
                },
                {
                    "name": "A5",
                    "midi": 81,
                    "time": 87.32882999999997,
                    "velocity": 0.3858267716535433,
                    "duration": 0.08561650000000043
                },
                {
                    "name": "G5",
                    "midi": 79,
                    "time": 87.67129599999997,
                    "velocity": 0.41732283464566927,
                    "duration": 0.3424660000000017
                },
                {
                    "name": "D5",
                    "midi": 74,
                    "time": 88.2991503333333,
                    "velocity": 0.4409448818897638,
                    "duration": 0.05707766666667169
                },
                {
                    "name": "D6",
                    "midi": 86,
                    "time": 88.35622799999997,
                    "velocity": 0.5511811023622047,
                    "duration": 0.5136990000000026
                },
                {
                    "name": "C6",
                    "midi": 84,
                    "time": 88.86992699999998,
                    "velocity": 0.4094488188976378,
                    "duration": 0.05707766666667169
                },
                {
                    "name": "B5",
                    "midi": 83,
                    "time": 88.92700466666665,
                    "velocity": 0.4015748031496063,
                    "duration": 0.05707766666667169
                },
                {
                    "name": "A5",
                    "midi": 81,
                    "time": 88.98408233333332,
                    "velocity": 0.3779527559055118,
                    "duration": 0.05707766666667169
                },
                {
                    "name": "G5",
                    "midi": 79,
                    "time": 89.04115999999999,
                    "velocity": 0.41732283464566927,
                    "duration": 0.3424660000000017
                },
                {
                    "name": "D5",
                    "midi": 74,
                    "time": 89.66901433333332,
                    "velocity": 0.4409448818897638,
                    "duration": 0.05707766666667169
                },
                {
                    "name": "D6",
                    "midi": 86,
                    "time": 89.726092,
                    "velocity": 0.5590551181102362,
                    "duration": 0.5136990000000026
                },
                {
                    "name": "C6",
                    "midi": 84,
                    "time": 90.239791,
                    "velocity": 0.41732283464566927,
                    "duration": 0.05707766666667169
                },
                {
                    "name": "B5",
                    "midi": 83,
                    "time": 90.29686866666667,
                    "velocity": 0.4015748031496063,
                    "duration": 0.05707766666667169
                },
                {
                    "name": "A5",
                    "midi": 81,
                    "time": 90.35394633333334,
                    "velocity": 0.3858267716535433,
                    "duration": 0.05707766666667169
                },
                {
                    "name": "G5",
                    "midi": 79,
                    "time": 90.41102400000001,
                    "velocity": 0.41732283464566927,
                    "duration": 0.3424660000000017
                },
                {
                    "name": "D4",
                    "midi": 62,
                    "time": 90.75349000000001,
                    "velocity": 0.33070866141732286,
                    "duration": 0.2568495000000013
                },
                {
                    "name": "G4",
                    "midi": 67,
                    "time": 91.01033950000001,
                    "velocity": 0.3228346456692913,
                    "duration": 0.08561650000000043
                },
                {
                    "name": "B4",
                    "midi": 71,
                    "time": 91.09595600000002,
                    "velocity": 0.33858267716535434,
                    "duration": 0.17123300000000086
                },
                {
                    "name": "A4",
                    "midi": 69,
                    "time": 91.43842200000002,
                    "velocity": 0.28346456692913385,
                    "duration": 0.3424660000000017
                },
                {
                    "name": "C4",
                    "midi": 60,
                    "time": 91.43842200000002,
                    "velocity": 0.28346456692913385,
                    "duration": 0.3424660000000017
                },
                {
                    "name": "C4",
                    "midi": 60,
                    "time": 91.78088800000002,
                    "velocity": 0.28346456692913385,
                    "duration": 0.6849320000000034
                },
                {
                    "name": "A4",
                    "midi": 69,
                    "time": 91.78088800000002,
                    "velocity": 0.28346456692913385,
                    "duration": 0.6849320000000034
                },
                {
                    "name": "G4",
                    "midi": 67,
                    "time": 92.46582000000002,
                    "velocity": 0.29133858267716534,
                    "duration": 0.3424660000000017
                },
                {
                    "name": "B3",
                    "midi": 59,
                    "time": 92.46582000000002,
                    "velocity": 0.29133858267716534,
                    "duration": 0.3424660000000017
                },
                {
                    "name": "E5",
                    "midi": 76,
                    "time": 93.15217894166669,
                    "velocity": 0.47244094488188976,
                    "duration": 0.5122720583333376
                },
                {
                    "name": "F5",
                    "midi": 77,
                    "time": 93.66445100000003,
                    "velocity": 0.4251968503937008,
                    "duration": 0.08561650000000043
                },
                {
                    "name": "G5",
                    "midi": 79,
                    "time": 93.75006750000003,
                    "velocity": 0.4251968503937008,
                    "duration": 0.08561650000000043
                },
                {
                    "name": "C5",
                    "midi": 72,
                    "time": 93.83568400000003,
                    "velocity": 0.47244094488188976,
                    "duration": 0.3424660000000017
                },
                {
                    "name": "B4",
                    "midi": 71,
                    "time": 94.17815000000003,
                    "velocity": 0.3858267716535433,
                    "duration": 0.3424660000000017
                },
                {
                    "name": "D5",
                    "midi": 74,
                    "time": 94.17815000000003,
                    "velocity": 0.3858267716535433,
                    "duration": 0.3424660000000017
                },
                {
                    "name": "B4",
                    "midi": 71,
                    "time": 94.52061600000003,
                    "velocity": 0.41732283464566927,
                    "duration": 0.3424660000000017
                },
                {
                    "name": "D5",
                    "midi": 74,
                    "time": 94.52061600000003,
                    "velocity": 0.41732283464566927,
                    "duration": 0.2568495000000013
                },
                {
                    "name": "F5",
                    "midi": 77,
                    "time": 94.77746550000003,
                    "velocity": 0.3779527559055118,
                    "duration": 0.08561650000000043
                },
                {
                    "name": "E5",
                    "midi": 76,
                    "time": 94.86308200000003,
                    "velocity": 0.41732283464566927,
                    "duration": 0.3424660000000017
                },
                {
                    "name": "C5",
                    "midi": 72,
                    "time": 94.86308200000003,
                    "velocity": 0.41732283464566927,
                    "duration": 0.3424660000000017
                },
                {
                    "name": "B4",
                    "midi": 71,
                    "time": 95.20554800000004,
                    "velocity": 0.3937007874015748,
                    "duration": 0.6849320000000034
                },
                {
                    "name": "D5",
                    "midi": 74,
                    "time": 95.20554800000004,
                    "velocity": 0.3937007874015748,
                    "duration": 0.6849320000000034
                },
                {
                    "name": "E5",
                    "midi": 76,
                    "time": 95.89048000000004,
                    "velocity": 0.47244094488188976,
                    "duration": 0.5136990000000026
                },
                {
                    "name": "F5",
                    "midi": 77,
                    "time": 96.40417900000004,
                    "velocity": 0.4409448818897638,
                    "duration": 0.08561650000000043
                },
                {
                    "name": "G5",
                    "midi": 79,
                    "time": 96.48979550000004,
                    "velocity": 0.4409448818897638,
                    "duration": 0.08561650000000043
                },
                {
                    "name": "C5",
                    "midi": 72,
                    "time": 96.57541200000004,
                    "velocity": 0.48031496062992124,
                    "duration": 0.3424660000000017
                },
                {
                    "name": "D5",
                    "midi": 74,
                    "time": 96.91787800000004,
                    "velocity": 0.3858267716535433,
                    "duration": 0.17123300000000086
                },
                {
                    "name": "B4",
                    "midi": 71,
                    "time": 96.91787800000004,
                    "velocity": 0.3858267716535433,
                    "duration": 0.17123300000000086
                },
                {
                    "name": "D5",
                    "midi": 74,
                    "time": 97.26034400000005,
                    "velocity": 0.4251968503937008,
                    "duration": 0.3424660000000017
                },
                {
                    "name": "F5",
                    "midi": 77,
                    "time": 97.26034400000005,
                    "velocity": 0.4251968503937008,
                    "duration": 0.3424660000000017
                },
                {
                    "name": "E5",
                    "midi": 76,
                    "time": 97.60281000000005,
                    "velocity": 0.3858267716535433,
                    "duration": 0.06849320000000603
                },
                {
                    "name": "C5",
                    "midi": 72,
                    "time": 97.60281000000005,
                    "velocity": 0.3858267716535433,
                    "duration": 0.34246600000003014
                },
                {
                    "name": "F5",
                    "midi": 77,
                    "time": 97.67130320000005,
                    "velocity": 0.3858267716535433,
                    "duration": 0.06849320000000603
                },
                {
                    "name": "E5",
                    "midi": 76,
                    "time": 97.73979640000006,
                    "velocity": 0.3858267716535433,
                    "duration": 0.06849320000000603
                },
                {
                    "name": "F5",
                    "midi": 77,
                    "time": 97.80828960000007,
                    "velocity": 0.3858267716535433,
                    "duration": 0.06849320000000603
                },
                {
                    "name": "E5",
                    "midi": 76,
                    "time": 97.87678280000007,
                    "velocity": 0.3858267716535433,
                    "duration": 0.06849320000000603
                },
                {
                    "name": "B4",
                    "midi": 71,
                    "time": 97.94527600000008,
                    "velocity": 0.4094488188976378,
                    "duration": 0.6849320000000034
                },
                {
                    "name": "D5",
                    "midi": 74,
                    "time": 97.94527600000008,
                    "velocity": 0.4094488188976378,
                    "duration": 0.6849320000000034
                },
                {
                    "name": "F5",
                    "midi": 77,
                    "time": 98.63020800000008,
                    "velocity": 0.5039370078740157,
                    "duration": 0.5136990000000026
                },
                {
                    "name": "G5",
                    "midi": 79,
                    "time": 99.14390700000008,
                    "velocity": 0.47244094488188976,
                    "duration": 0.08561650000000043
                },
                {
                    "name": "F5",
                    "midi": 77,
                    "time": 99.22952350000008,
                    "velocity": 0.47244094488188976,
                    "duration": 0.08561650000000043
                },
                {
                    "name": "E5",
                    "midi": 76,
                    "time": 99.31514000000008,
                    "velocity": 0.5039370078740157,
                    "duration": 0.3424660000000017
                },
                {
                    "name": "E5",
                    "midi": 76,
                    "time": 99.65760600000009,
                    "velocity": 0.4881889763779528,
                    "duration": 0.17123300000000086
                },
                {
                    "name": "A5",
                    "midi": 81,
                    "time": 100.00007200000009,
                    "velocity": 0.5433070866141733,
                    "duration": 0.5136990000000026
                },
                {
                    "name": "B5",
                    "midi": 83,
                    "time": 100.51377100000009,
                    "velocity": 0.49606299212598426,
                    "duration": 0.08561650000000043
                },
                {
                    "name": "C6",
                    "midi": 84,
                    "time": 100.59938750000009,
                    "velocity": 0.49606299212598426,
                    "duration": 0.08561650000000043
                },
                {
                    "name": "G5",
                    "midi": 79,
                    "time": 100.68500400000009,
                    "velocity": 0.5433070866141733,
                    "duration": 0.3424660000000017
                },
                {
                    "name": "G5",
                    "midi": 79,
                    "time": 101.0274700000001,
                    "velocity": 0.5433070866141733,
                    "duration": 0.17123300000000086
                },
                {
                    "name": "G5",
                    "midi": 79,
                    "time": 101.3699360000001,
                    "velocity": 0.5354330708661418,
                    "duration": 0.17123300000000086
                },
                {
                    "name": "F5",
                    "midi": 77,
                    "time": 101.5411690000001,
                    "velocity": 0.49606299212598426,
                    "duration": 0.12842474999999354
                },
                {
                    "name": "F5",
                    "midi": 77,
                    "time": 101.71240200000008,
                    "velocity": 0.5039370078740157,
                    "duration": 0.17123300000000086
                },
                {
                    "name": "D5",
                    "midi": 74,
                    "time": 101.88363500000008,
                    "velocity": 0.49606299212598426,
                    "duration": 0.12842474999999354
                },
                {
                    "name": "F5",
                    "midi": 77,
                    "time": 102.05486800000007,
                    "velocity": 0.5433070866141733,
                    "duration": 0.17123300000000086
                },
                {
                    "name": "E5",
                    "midi": 76,
                    "time": 102.22610100000007,
                    "velocity": 0.5039370078740157,
                    "duration": 0.12842474999999354
                },
                {
                    "name": "E5",
                    "midi": 76,
                    "time": 102.39733400000006,
                    "velocity": 0.5196850393700787,
                    "duration": 0.17123300000000086
                },
                {
                    "name": "C5",
                    "midi": 72,
                    "time": 102.56856700000006,
                    "velocity": 0.5039370078740157,
                    "duration": 0.12842474999999354
                },
                {
                    "name": "C#5",
                    "midi": 73,
                    "time": 102.73980000000005,
                    "velocity": 0.5039370078740157,
                    "duration": 0.17123300000000086
                },
                {
                    "name": "D5",
                    "midi": 74,
                    "time": 102.91103300000005,
                    "velocity": 0.47244094488188976,
                    "duration": 0.17123300000000086
                },
                {
                    "name": "E5",
                    "midi": 76,
                    "time": 103.08226600000005,
                    "velocity": 0.5039370078740157,
                    "duration": 0.17123300000000086
                },
                {
                    "name": "D5",
                    "midi": 74,
                    "time": 103.25349900000005,
                    "velocity": 0.4881889763779528,
                    "duration": 0.17123300000000086
                },
                {
                    "name": "C5",
                    "midi": 72,
                    "time": 103.42473200000005,
                    "velocity": 0.49606299212598426,
                    "duration": 0.17123300000000086
                },
                {
                    "name": "B4",
                    "midi": 71,
                    "time": 103.59596500000005,
                    "velocity": 0.48031496062992124,
                    "duration": 0.17123300000000086
                },
                {
                    "name": "A4",
                    "midi": 69,
                    "time": 103.76719800000005,
                    "velocity": 0.48031496062992124,
                    "duration": 0.17123300000000086
                },
                {
                    "name": "G4",
                    "midi": 67,
                    "time": 103.93843100000005,
                    "velocity": 0.47244094488188976,
                    "duration": 0.17123300000000086
                },
                {
                    "name": "E5",
                    "midi": 76,
                    "time": 104.10966400000005,
                    "velocity": 0.5511811023622047,
                    "duration": 0.5136990000000026
                },
                {
                    "name": "F5",
                    "midi": 77,
                    "time": 104.62336300000005,
                    "velocity": 0.5039370078740157,
                    "duration": 0.08561650000000043
                },
                {
                    "name": "G5",
                    "midi": 79,
                    "time": 104.70897950000005,
                    "velocity": 0.5039370078740157,
                    "duration": 0.08561650000000043
                },
                {
                    "name": "C5",
                    "midi": 72,
                    "time": 104.79459600000006,
                    "velocity": 0.5511811023622047,
                    "duration": 0.3424660000000017
                },
                {
                    "name": "D5",
                    "midi": 74,
                    "time": 105.13706200000006,
                    "velocity": 0.47244094488188976,
                    "duration": 0.3424660000000017
                },
                {
                    "name": "B4",
                    "midi": 71,
                    "time": 105.13706200000006,
                    "velocity": 0.47244094488188976,
                    "duration": 0.3424660000000017
                },
                {
                    "name": "D5",
                    "midi": 74,
                    "time": 105.47952800000006,
                    "velocity": 0.49606299212598426,
                    "duration": 0.2568495000000013
                },
                {
                    "name": "B4",
                    "midi": 71,
                    "time": 105.47952800000006,
                    "velocity": 0.49606299212598426,
                    "duration": 0.3424660000000017
                },
                {
                    "name": "F5",
                    "midi": 77,
                    "time": 105.73637750000006,
                    "velocity": 0.44881889763779526,
                    "duration": 0.08561650000000043
                },
                {
                    "name": "C5",
                    "midi": 72,
                    "time": 105.82199400000006,
                    "velocity": 0.49606299212598426,
                    "duration": 0.3424660000000017
                },
                {
                    "name": "E5",
                    "midi": 76,
                    "time": 105.82199400000006,
                    "velocity": 0.49606299212598426,
                    "duration": 0.3424660000000017
                },
                {
                    "name": "B4",
                    "midi": 71,
                    "time": 106.16446000000006,
                    "velocity": 0.48031496062992124,
                    "duration": 0.6849320000000034
                },
                {
                    "name": "D5",
                    "midi": 74,
                    "time": 106.16446000000006,
                    "velocity": 0.48031496062992124,
                    "duration": 0.6849320000000034
                },
                {
                    "name": "E5",
                    "midi": 76,
                    "time": 106.84939200000007,
                    "velocity": 0.5511811023622047,
                    "duration": 0.5136990000000026
                },
                {
                    "name": "F5",
                    "midi": 77,
                    "time": 107.36309100000007,
                    "velocity": 0.5275590551181102,
                    "duration": 0.08561650000000043
                },
                {
                    "name": "G5",
                    "midi": 79,
                    "time": 107.44870750000007,
                    "velocity": 0.5275590551181102,
                    "duration": 0.08561650000000043
                },
                {
                    "name": "C5",
                    "midi": 72,
                    "time": 107.53432400000007,
                    "velocity": 0.5590551181102362,
                    "duration": 0.3424660000000017
                },
                {
                    "name": "D5",
                    "midi": 74,
                    "time": 107.87679000000007,
                    "velocity": 0.47244094488188976,
                    "duration": 0.17123300000000086
                },
                {
                    "name": "B4",
                    "midi": 71,
                    "time": 107.87679000000007,
                    "velocity": 0.47244094488188976,
                    "duration": 0.17123300000000086
                },
                {
                    "name": "F5",
                    "midi": 77,
                    "time": 108.21925600000007,
                    "velocity": 0.5039370078740157,
                    "duration": 0.3424660000000017
                },
                {
                    "name": "D5",
                    "midi": 74,
                    "time": 108.21925600000007,
                    "velocity": 0.5039370078740157,
                    "duration": 0.3424660000000017
                },
                {
                    "name": "C5",
                    "midi": 72,
                    "time": 108.56172200000007,
                    "velocity": 0.47244094488188976,
                    "duration": 0.34246600000003014
                },
                {
                    "name": "E5",
                    "midi": 76,
                    "time": 108.56172200000007,
                    "velocity": 0.47244094488188976,
                    "duration": 0.06849320000000603
                },
                {
                    "name": "F5",
                    "midi": 77,
                    "time": 108.63021520000008,
                    "velocity": 0.47244094488188976,
                    "duration": 0.06849320000000603
                },
                {
                    "name": "E5",
                    "midi": 76,
                    "time": 108.69870840000009,
                    "velocity": 0.47244094488188976,
                    "duration": 0.06849320000000603
                },
                {
                    "name": "F5",
                    "midi": 77,
                    "time": 108.76720160000009,
                    "velocity": 0.47244094488188976,
                    "duration": 0.06849320000000603
                },
                {
                    "name": "E5",
                    "midi": 76,
                    "time": 108.8356948000001,
                    "velocity": 0.47244094488188976,
                    "duration": 0.06849320000000603
                },
                {
                    "name": "B4",
                    "midi": 71,
                    "time": 108.9041880000001,
                    "velocity": 0.4881889763779528,
                    "duration": 0.6849320000000034
                },
                {
                    "name": "D5",
                    "midi": 74,
                    "time": 108.9041880000001,
                    "velocity": 0.4881889763779528,
                    "duration": 0.6849320000000034
                },
                {
                    "name": "F5",
                    "midi": 77,
                    "time": 109.58912000000011,
                    "velocity": 0.6062992125984252,
                    "duration": 0.5136990000000026
                },
                {
                    "name": "G5",
                    "midi": 79,
                    "time": 110.10281900000011,
                    "velocity": 0.5511811023622047,
                    "duration": 0.08561650000000043
                },
                {
                    "name": "F5",
                    "midi": 77,
                    "time": 110.18843550000011,
                    "velocity": 0.5511811023622047,
                    "duration": 0.08561650000000043
                },
                {
                    "name": "E5",
                    "midi": 76,
                    "time": 110.27405200000011,
                    "velocity": 0.6062992125984252,
                    "duration": 0.3424660000000017
                },
                {
                    "name": "E5",
                    "midi": 76,
                    "time": 110.61651800000011,
                    "velocity": 0.5826771653543307,
                    "duration": 0.17123300000000086
                },
                {
                    "name": "A5",
                    "midi": 81,
                    "time": 110.95898400000011,
                    "velocity": 0.6141732283464567,
                    "duration": 0.5136990000000026
                },
                {
                    "name": "B5",
                    "midi": 83,
                    "time": 111.47268300000012,
                    "velocity": 0.5590551181102362,
                    "duration": 0.08561650000000043
                },
                {
                    "name": "C6",
                    "midi": 84,
                    "time": 111.55829950000012,
                    "velocity": 0.5433070866141733,
                    "duration": 0.08561650000000043
                },
                {
                    "name": "G5",
                    "midi": 79,
                    "time": 111.64391600000012,
                    "velocity": 0.6220472440944882,
                    "duration": 0.3424660000000017
                },
                {
                    "name": "G5",
                    "midi": 79,
                    "time": 111.98638200000012,
                    "velocity": 0.6062992125984252,
                    "duration": 0.17123300000000086
                },
                {
                    "name": "G#5",
                    "midi": 80,
                    "time": 112.32884800000012,
                    "velocity": 0.6062992125984252,
                    "duration": 0.17123300000000086
                },
                {
                    "name": "A5",
                    "midi": 81,
                    "time": 112.50008100000012,
                    "velocity": 0.5826771653543307,
                    "duration": 0.17123300000000086
                },
                {
                    "name": "F5",
                    "midi": 77,
                    "time": 112.67131400000012,
                    "velocity": 0.5905511811023622,
                    "duration": 0.17123300000000086
                },
                {
                    "name": "D5",
                    "midi": 74,
                    "time": 112.84254700000012,
                    "velocity": 0.5669291338582677,
                    "duration": 0.17123300000000086
                },
                {
                    "name": "C5",
                    "midi": 72,
                    "time": 113.01378000000012,
                    "velocity": 0.5905511811023622,
                    "duration": 0.3424660000000017
                },
                {
                    "name": "B4",
                    "midi": 71,
                    "time": 113.35624600000013,
                    "velocity": 0.5590551181102362,
                    "duration": 0.3424660000000017
                },
                {
                    "name": "C5",
                    "midi": 72,
                    "time": 113.69871200000013,
                    "velocity": 0.5905511811023622,
                    "duration": 0.11415533333332917
                },
                {
                    "name": "G4",
                    "midi": 67,
                    "time": 113.81286733333346,
                    "velocity": 0.5433070866141733,
                    "duration": 0.11415533333332917
                },
                {
                    "name": "E5",
                    "midi": 76,
                    "time": 113.92702266666679,
                    "velocity": 0.5196850393700787,
                    "duration": 0.11415533333332917
                },
                {
                    "name": "C5",
                    "midi": 72,
                    "time": 114.04117800000012,
                    "velocity": 0.5905511811023622,
                    "duration": 0.11415533333332917
                },
                {
                    "name": "G5",
                    "midi": 79,
                    "time": 114.15533333333345,
                    "velocity": 0.5433070866141733,
                    "duration": 0.11415533333332917
                },
                {
                    "name": "E5",
                    "midi": 76,
                    "time": 114.26948866666677,
                    "velocity": 0.5196850393700787,
                    "duration": 0.11415533333332917
                },
                {
                    "name": "C6",
                    "midi": 84,
                    "time": 114.3836440000001,
                    "velocity": 0.5748031496062992,
                    "duration": 0.11415533333332917
                },
                {
                    "name": "B5",
                    "midi": 83,
                    "time": 114.49779933333343,
                    "velocity": 0.5196850393700787,
                    "duration": 0.11415533333332917
                },
                {
                    "name": "A5",
                    "midi": 81,
                    "time": 114.61195466666676,
                    "velocity": 0.5118110236220472,
                    "duration": 0.11415533333332917
                },
                {
                    "name": "G5",
                    "midi": 79,
                    "time": 114.72611000000009,
                    "velocity": 0.5511811023622047,
                    "duration": 0.11415533333332917
                },
                {
                    "name": "F5",
                    "midi": 77,
                    "time": 114.84026533333342,
                    "velocity": 0.5275590551181102,
                    "duration": 0.11415533333332917
                },
                {
                    "name": "E5",
                    "midi": 76,
                    "time": 114.95442066666675,
                    "velocity": 0.5118110236220472,
                    "duration": 0.11415533333332917
                },
                {
                    "name": "C#5",
                    "midi": 73,
                    "time": 115.06857600000008,
                    "velocity": 0.49606299212598426,
                    "duration": 0.11415533333332917
                },
                {
                    "name": "D5",
                    "midi": 74,
                    "time": 115.18273133333341,
                    "velocity": 0.47244094488188976,
                    "duration": 0.11415533333332917
                },
                {
                    "name": "F5",
                    "midi": 77,
                    "time": 115.29688666666674,
                    "velocity": 0.47244094488188976,
                    "duration": 0.11415533333332917
                },
                {
                    "name": "A5",
                    "midi": 81,
                    "time": 115.41104200000007,
                    "velocity": 0.4881889763779528,
                    "duration": 0.11415533333332917
                },
                {
                    "name": "F5",
                    "midi": 77,
                    "time": 115.5251973333334,
                    "velocity": 0.44881889763779526,
                    "duration": 0.11415533333332917
                },
                {
                    "name": "D5",
                    "midi": 74,
                    "time": 115.63935266666672,
                    "velocity": 0.44881889763779526,
                    "duration": 0.11415533333332917
                },
                {
                    "name": "G5",
                    "midi": 79,
                    "time": 115.75350800000005,
                    "velocity": 0.48031496062992124,
                    "duration": 0.11415533333332917
                },
                {
                    "name": "E5",
                    "midi": 76,
                    "time": 115.86766333333338,
                    "velocity": 0.44881889763779526,
                    "duration": 0.11415533333332917
                },
                {
                    "name": "C5",
                    "midi": 72,
                    "time": 115.98181866666671,
                    "velocity": 0.44881889763779526,
                    "duration": 0.11415533333332917
                },
                {
                    "name": "F5",
                    "midi": 77,
                    "time": 116.09597400000004,
                    "velocity": 0.48031496062992124,
                    "duration": 0.11415533333332917
                },
                {
                    "name": "D5",
                    "midi": 74,
                    "time": 116.21012933333337,
                    "velocity": 0.4330708661417323,
                    "duration": 0.11415533333332917
                },
                {
                    "name": "B4",
                    "midi": 71,
                    "time": 116.3242846666667,
                    "velocity": 0.4330708661417323,
                    "duration": 0.11415533333332917
                },
                {
                    "name": "C5",
                    "midi": 72,
                    "time": 116.43844000000003,
                    "velocity": 0.5905511811023622,
                    "duration": 0.11415533333332917
                },
                {
                    "name": "G4",
                    "midi": 67,
                    "time": 116.55259533333336,
                    "velocity": 0.5433070866141733,
                    "duration": 0.11415533333332917
                },
                {
                    "name": "E5",
                    "midi": 76,
                    "time": 116.66675066666669,
                    "velocity": 0.5275590551181102,
                    "duration": 0.11415533333332917
                },
                {
                    "name": "C5",
                    "midi": 72,
                    "time": 116.78090600000002,
                    "velocity": 0.5905511811023622,
                    "duration": 0.11415533333332917
                },
                {
                    "name": "G5",
                    "midi": 79,
                    "time": 116.89506133333335,
                    "velocity": 0.5433070866141733,
                    "duration": 0.11415533333332917
                },
                {
                    "name": "E5",
                    "midi": 76,
                    "time": 117.00921666666667,
                    "velocity": 0.5275590551181102,
                    "duration": 0.11415533333332917
                },
                {
                    "name": "C6",
                    "midi": 84,
                    "time": 117.123372,
                    "velocity": 0.5748031496062992,
                    "duration": 0.11415533333332917
                },
                {
                    "name": "B5",
                    "midi": 83,
                    "time": 117.23752733333333,
                    "velocity": 0.5196850393700787,
                    "duration": 0.11415533333332917
                },
                {
                    "name": "A5",
                    "midi": 81,
                    "time": 117.35168266666666,
                    "velocity": 0.5039370078740157,
                    "duration": 0.11415533333332917
                },
                {
                    "name": "G5",
                    "midi": 79,
                    "time": 117.46583799999999,
                    "velocity": 0.5511811023622047,
                    "duration": 0.11415533333332917
                },
                {
                    "name": "F5",
                    "midi": 77,
                    "time": 117.57999333333332,
                    "velocity": 0.5275590551181102,
                    "duration": 0.11415533333332917
                },
                {
                    "name": "E5",
                    "midi": 76,
                    "time": 117.69414866666665,
                    "velocity": 0.5118110236220472,
                    "duration": 0.11415533333332917
                },
                {
                    "name": "C#5",
                    "midi": 73,
                    "time": 117.80830399999998,
                    "velocity": 0.49606299212598426,
                    "duration": 0.11415533333332917
                },
                {
                    "name": "D5",
                    "midi": 74,
                    "time": 117.92245933333331,
                    "velocity": 0.47244094488188976,
                    "duration": 0.11415533333332917
                },
                {
                    "name": "F5",
                    "midi": 77,
                    "time": 118.03661466666664,
                    "velocity": 0.4645669291338583,
                    "duration": 0.11415533333332917
                },
                {
                    "name": "A5",
                    "midi": 81,
                    "time": 118.15076999999997,
                    "velocity": 0.4881889763779528,
                    "duration": 0.11415533333332917
                },
                {
                    "name": "F5",
                    "midi": 77,
                    "time": 118.2649253333333,
                    "velocity": 0.44881889763779526,
                    "duration": 0.11415533333332917
                },
                {
                    "name": "D5",
                    "midi": 74,
                    "time": 118.37908066666662,
                    "velocity": 0.4330708661417323,
                    "duration": 0.11415533333332917
                },
                {
                    "name": "G5",
                    "midi": 79,
                    "time": 118.49323599999995,
                    "velocity": 0.48031496062992124,
                    "duration": 0.11415533333332917
                },
                {
                    "name": "E5",
                    "midi": 76,
                    "time": 118.60739133333328,
                    "velocity": 0.44881889763779526,
                    "duration": 0.11415533333332917
                },
                {
                    "name": "C5",
                    "midi": 72,
                    "time": 118.72154666666661,
                    "velocity": 0.4251968503937008,
                    "duration": 0.11415533333332917
                },
                {
                    "name": "F5",
                    "midi": 77,
                    "time": 118.83570199999994,
                    "velocity": 0.48031496062992124,
                    "duration": 0.11415533333332917
                },
                {
                    "name": "D5",
                    "midi": 74,
                    "time": 118.94985733333327,
                    "velocity": 0.4330708661417323,
                    "duration": 0.11415533333332917
                },
                {
                    "name": "B4",
                    "midi": 71,
                    "time": 119.0640126666666,
                    "velocity": 0.4330708661417323,
                    "duration": 0.11415533333332917
                },
                {
                    "name": "C5",
                    "midi": 72,
                    "time": 119.17816799999993,
                    "velocity": 0.4094488188976378,
                    "duration": 0.08561650000000043
                },
                {
                    "name": "G4",
                    "midi": 67,
                    "time": 119.52063399999993,
                    "velocity": 0.3937007874015748,
                    "duration": 0.08561650000000043
                },
                {
                    "name": "C4",
                    "midi": 60,
                    "time": 119.86309999999993,
                    "velocity": 0.3937007874015748,
                    "duration": 0.6849320000000034
                },
                {
                    "name": "E5",
                    "midi": 76,
                    "time": 120.54803199999994,
                    "velocity": 0.3937007874015748,
                    "duration": 0.6849320000000034
                },
                {
                    "name": "F5",
                    "midi": 77,
                    "time": 121.23296399999994,
                    "velocity": 0.36220472440944884,
                    "duration": 0.08561650000000043
                },
                {
                    "name": "E5",
                    "midi": 76,
                    "time": 121.31858049999994,
                    "velocity": 0.36220472440944884,
                    "duration": 0.08561650000000043
                },
                {
                    "name": "D5",
                    "midi": 74,
                    "time": 121.40419699999994,
                    "velocity": 0.36220472440944884,
                    "duration": 0.08561650000000043
                },
                {
                    "name": "E5",
                    "midi": 76,
                    "time": 121.48981349999994,
                    "velocity": 0.36220472440944884,
                    "duration": 0.08561650000000043
                },
                {
                    "name": "G5",
                    "midi": 79,
                    "time": 121.57542999999994,
                    "velocity": 0.3937007874015748,
                    "duration": 0.17123300000000086
                },
                {
                    "name": "F5",
                    "midi": 77,
                    "time": 121.74666299999994,
                    "velocity": 0.36220472440944884,
                    "duration": 0.17123300000000086
                },
                {
                    "name": "E5",
                    "midi": 76,
                    "time": 121.91789599999994,
                    "velocity": 0.4015748031496063,
                    "duration": 0.17123300000000086
                },
                {
                    "name": "D5",
                    "midi": 74,
                    "time": 122.08912899999994,
                    "velocity": 0.3858267716535433,
                    "duration": 0.17123300000000086
                },
                {
                    "name": "C5",
                    "midi": 72,
                    "time": 122.26036199999994,
                    "velocity": 0.3858267716535433,
                    "duration": 0.17123300000000086
                },
                {
                    "name": "B4",
                    "midi": 71,
                    "time": 122.43159499999994,
                    "velocity": 0.3858267716535433,
                    "duration": 0.17123300000000086
                },
                {
                    "name": "C5",
                    "midi": 72,
                    "time": 122.60282799999995,
                    "velocity": 0.4094488188976378,
                    "duration": 0.08561650000000043
                },
                {
                    "name": "C#5",
                    "midi": 73,
                    "time": 122.94529399999995,
                    "velocity": 0.4330708661417323,
                    "duration": 0.08561650000000043
                },
                {
                    "name": "D5",
                    "midi": 74,
                    "time": 123.28775999999995,
                    "velocity": 0.4409448818897638,
                    "duration": 0.08561650000000043
                },
                {
                    "name": "D#5",
                    "midi": 75,
                    "time": 123.63022599999995,
                    "velocity": 0.47244094488188976,
                    "duration": 0.08561650000000043
                },
                {
                    "name": "E5",
                    "midi": 76,
                    "time": 123.97269199999995,
                    "velocity": 0.49606299212598426,
                    "duration": 0.08561650000000043
                },
                {
                    "name": "G5",
                    "midi": 79,
                    "time": 124.31515799999995,
                    "velocity": 0.4881889763779528,
                    "duration": 0.17123300000000086
                },
                {
                    "name": "F5",
                    "midi": 77,
                    "time": 124.48639099999995,
                    "velocity": 0.44881889763779526,
                    "duration": 0.17123300000000086
                },
                {
                    "name": "E5",
                    "midi": 76,
                    "time": 124.65762399999996,
                    "velocity": 0.4881889763779528,
                    "duration": 0.5136990000000026
                },
                {
                    "name": "F5",
                    "midi": 77,
                    "time": 125.17132299999996,
                    "velocity": 0.4330708661417323,
                    "duration": 0.08561650000000043
                },
                {
                    "name": "E5",
                    "midi": 76,
                    "time": 125.25693949999996,
                    "velocity": 0.4330708661417323,
                    "duration": 0.08561650000000043
                },
                {
                    "name": "D5",
                    "midi": 74,
                    "time": 125.34255599999996,
                    "velocity": 0.4409448818897638,
                    "duration": 0.3424660000000017
                },
                {
                    "name": "F5",
                    "midi": 77,
                    "time": 126.02748799999996,
                    "velocity": 0.4566929133858268,
                    "duration": 0.6849320000000034
                },
                {
                    "name": "G5",
                    "midi": 79,
                    "time": 126.71241999999997,
                    "velocity": 0.3779527559055118,
                    "duration": 0.08561650000000043
                },
                {
                    "name": "F5",
                    "midi": 77,
                    "time": 126.79803649999997,
                    "velocity": 0.3858267716535433,
                    "duration": 0.08561650000000043
                },
                {
                    "name": "E5",
                    "midi": 76,
                    "time": 126.88365299999997,
                    "velocity": 0.3858267716535433,
                    "duration": 0.08561650000000043
                },
                {
                    "name": "F5",
                    "midi": 77,
                    "time": 126.96926949999997,
                    "velocity": 0.3858267716535433,
                    "duration": 0.08561650000000043
                },
                {
                    "name": "A5",
                    "midi": 81,
                    "time": 127.05488599999997,
                    "velocity": 0.4330708661417323,
                    "duration": 0.17123300000000086
                },
                {
                    "name": "G5",
                    "midi": 79,
                    "time": 127.22611899999997,
                    "velocity": 0.4094488188976378,
                    "duration": 0.17123300000000086
                },
                {
                    "name": "F5",
                    "midi": 77,
                    "time": 127.39735199999997,
                    "velocity": 0.4094488188976378,
                    "duration": 0.17123300000000086
                },
                {
                    "name": "E5",
                    "midi": 76,
                    "time": 127.56858499999997,
                    "velocity": 0.3937007874015748,
                    "duration": 0.17123300000000086
                },
                {
                    "name": "D5",
                    "midi": 74,
                    "time": 127.73981799999997,
                    "velocity": 0.3937007874015748,
                    "duration": 0.17123300000000086
                },
                {
                    "name": "C5",
                    "midi": 72,
                    "time": 127.91105099999997,
                    "velocity": 0.3937007874015748,
                    "duration": 0.17123299999998665
                },
                {
                    "name": "B4",
                    "midi": 71,
                    "time": 128.08228399999996,
                    "velocity": 0.3858267716535433,
                    "duration": 0.17123300000000086
                },
                {
                    "name": "C5",
                    "midi": 72,
                    "time": 128.25351699999996,
                    "velocity": 0.3937007874015748,
                    "duration": 0.08561649999998622
                },
                {
                    "name": "D5",
                    "midi": 74,
                    "time": 128.42474999999993,
                    "velocity": 0.4015748031496063,
                    "duration": 0.08561649999998622
                },
                {
                    "name": "E5",
                    "midi": 76,
                    "time": 128.5959829999999,
                    "velocity": 0.41732283464566927,
                    "duration": 0.08561649999998622
                },
                {
                    "name": "F5",
                    "midi": 77,
                    "time": 128.76721599999988,
                    "velocity": 0.4251968503937008,
                    "duration": 0.08561649999998622
                },
                {
                    "name": "G5",
                    "midi": 79,
                    "time": 128.93844899999985,
                    "velocity": 0.4330708661417323,
                    "duration": 0.08561649999998622
                },
                {
                    "name": "A5",
                    "midi": 81,
                    "time": 129.10968199999982,
                    "velocity": 0.4409448818897638,
                    "duration": 0.08561649999998622
                },
                {
                    "name": "B5",
                    "midi": 83,
                    "time": 129.2809149999998,
                    "velocity": 0.4566929133858268,
                    "duration": 0.08561649999998622
                },
                {
                    "name": "C6",
                    "midi": 84,
                    "time": 129.45214799999977,
                    "velocity": 0.47244094488188976,
                    "duration": 0.08561649999998622
                },
                {
                    "name": "D6",
                    "midi": 86,
                    "time": 129.62338099999974,
                    "velocity": 0.48031496062992124,
                    "duration": 0.08561649999998622
                },
                {
                    "name": "E6",
                    "midi": 88,
                    "time": 129.7946139999997,
                    "velocity": 0.4881889763779528,
                    "duration": 0.08561649999998622
                },
                {
                    "name": "F6",
                    "midi": 89,
                    "time": 129.96584699999968,
                    "velocity": 0.49606299212598426,
                    "duration": 0.08561649999998622
                },
                {
                    "name": "D#6",
                    "midi": 87,
                    "time": 130.13707999999966,
                    "velocity": 0.6220472440944882,
                    "duration": 0.6849320000000034
                },
                {
                    "name": "E6",
                    "midi": 88,
                    "time": 130.82201199999966,
                    "velocity": 0.5905511811023622,
                    "duration": 0.3424660000000017
                },
                {
                    "name": "E5",
                    "midi": 76,
                    "time": 131.50694399999966,
                    "velocity": 0.5039370078740157,
                    "duration": 0.4566213333333451
                },
                {
                    "name": "A5",
                    "midi": 81,
                    "time": 131.963565333333,
                    "velocity": 0.47244094488188976,
                    "duration": 0.11415533333334338
                },
                {
                    "name": "C6",
                    "midi": 84,
                    "time": 132.07772066666635,
                    "velocity": 0.47244094488188976,
                    "duration": 0.11415533333334338
                },
                {
                    "name": "E6",
                    "midi": 88,
                    "time": 132.1918759999997,
                    "velocity": 0.47244094488188976,
                    "duration": 0.11415533333334338
                },
                {
                    "name": "C6",
                    "midi": 84,
                    "time": 132.30603133333304,
                    "velocity": 0.4566929133858268,
                    "duration": 0.11415533333334338
                },
                {
                    "name": "A5",
                    "midi": 81,
                    "time": 132.42018666666638,
                    "velocity": 0.4566929133858268,
                    "duration": 0.11415533333334338
                },
                {
                    "name": "C6",
                    "midi": 84,
                    "time": 132.53434199999973,
                    "velocity": 0.47244094488188976,
                    "duration": 0.11415533333334338
                },
                {
                    "name": "A5",
                    "midi": 81,
                    "time": 132.64849733333307,
                    "velocity": 0.4566929133858268,
                    "duration": 0.11415533333334338
                },
                {
                    "name": "E5",
                    "midi": 76,
                    "time": 132.7626526666664,
                    "velocity": 0.4566929133858268,
                    "duration": 0.11415533333334338
                },
                {
                    "name": "D5",
                    "midi": 74,
                    "time": 132.87680799999976,
                    "velocity": 0.5039370078740157,
                    "duration": 0.4566213333333451
                },
                {
                    "name": "G5",
                    "midi": 79,
                    "time": 133.3334293333331,
                    "velocity": 0.47244094488188976,
                    "duration": 0.11415533333334338
                },
                {
                    "name": "B5",
                    "midi": 83,
                    "time": 133.44758466666644,
                    "velocity": 0.47244094488188976,
                    "duration": 0.11415533333334338
                },
                {
                    "name": "D6",
                    "midi": 86,
                    "time": 133.5617399999998,
                    "velocity": 0.47244094488188976,
                    "duration": 0.11415533333334338
                },
                {
                    "name": "B5",
                    "midi": 83,
                    "time": 133.67589533333313,
                    "velocity": 0.4645669291338583,
                    "duration": 0.11415533333334338
                },
                {
                    "name": "G5",
                    "midi": 79,
                    "time": 133.79005066666647,
                    "velocity": 0.4645669291338583,
                    "duration": 0.11415533333334338
                },
                {
                    "name": "B5",
                    "midi": 83,
                    "time": 133.90420599999982,
                    "velocity": 0.47244094488188976,
                    "duration": 0.11415533333334338
                },
                {
                    "name": "G5",
                    "midi": 79,
                    "time": 134.01836133333316,
                    "velocity": 0.4566929133858268,
                    "duration": 0.11415533333334338
                },
                {
                    "name": "D5",
                    "midi": 74,
                    "time": 134.1325166666665,
                    "velocity": 0.4566929133858268,
                    "duration": 0.11415533333334338
                },
                {
                    "name": "D5",
                    "midi": 74,
                    "time": 134.3608273333332,
                    "velocity": 0.47244094488188976,
                    "duration": 0.11415533333334338
                },
                {
                    "name": "A5",
                    "midi": 81,
                    "time": 134.47498266666653,
                    "velocity": 0.47244094488188976,
                    "duration": 0.11415533333334338
                },
                {
                    "name": "C6",
                    "midi": 84,
                    "time": 134.58913799999988,
                    "velocity": 0.47244094488188976,
                    "duration": 0.11415533333334338
                },
                {
                    "name": "A5",
                    "midi": 81,
                    "time": 134.70329333333322,
                    "velocity": 0.4566929133858268,
                    "duration": 0.11415533333334338
                },
                {
                    "name": "D5",
                    "midi": 74,
                    "time": 134.81744866666656,
                    "velocity": 0.47244094488188976,
                    "duration": 0.11415533333334338
                },
                {
                    "name": "D5",
                    "midi": 74,
                    "time": 135.04575933333325,
                    "velocity": 0.47244094488188976,
                    "duration": 0.11415533333334338
                },
                {
                    "name": "G5",
                    "midi": 79,
                    "time": 135.1599146666666,
                    "velocity": 0.47244094488188976,
                    "duration": 0.11415533333334338
                },
                {
                    "name": "B5",
                    "midi": 83,
                    "time": 135.27406999999994,
                    "velocity": 0.47244094488188976,
                    "duration": 0.11415533333334338
                },
                {
                    "name": "G5",
                    "midi": 79,
                    "time": 135.38822533333328,
                    "velocity": 0.4645669291338583,
                    "duration": 0.11415533333334338
                },
                {
                    "name": "D5",
                    "midi": 74,
                    "time": 135.50238066666662,
                    "velocity": 0.47244094488188976,
                    "duration": 0.11415533333334338
                },
                {
                    "name": "A5",
                    "midi": 81,
                    "time": 135.61653599999997,
                    "velocity": 0.5354330708661418,
                    "duration": 0.2568494999999871
                },
                {
                    "name": "F#5",
                    "midi": 78,
                    "time": 135.87338549999996,
                    "velocity": 0.49606299212598426,
                    "duration": 0.08561649999998622
                },
                {
                    "name": "D5",
                    "midi": 74,
                    "time": 135.95900199999994,
                    "velocity": 0.47244094488188976,
                    "duration": 0.3424660000000017
                },
                {
                    "name": "G4",
                    "midi": 67,
                    "time": 136.90078349999993,
                    "velocity": 0.33858267716535434,
                    "duration": 0.08561649999998622
                },
                {
                    "name": "G5",
                    "midi": 79,
                    "time": 136.98639999999992,
                    "velocity": 0.5039370078740157,
                    "duration": 0.8561650000000043
                },
                {
                    "name": "F#5",
                    "midi": 78,
                    "time": 137.84256499999992,
                    "velocity": 0.3937007874015748,
                    "duration": 0.17123300000000086
                },
                {
                    "name": "E5",
                    "midi": 76,
                    "time": 138.01379799999992,
                    "velocity": 0.3937007874015748,
                    "duration": 0.17123300000000086
                },
                {
                    "name": "D5",
                    "midi": 74,
                    "time": 138.18503099999992,
                    "velocity": 0.3937007874015748,
                    "duration": 0.1655252333333408
                },
                {
                    "name": "D5",
                    "midi": 74,
                    "time": 138.35626399999992,
                    "velocity": 0.41732283464566927,
                    "duration": 0.17123300000000086
                },
                {
                    "name": "C5",
                    "midi": 72,
                    "time": 138.52749699999993,
                    "velocity": 0.3858267716535433,
                    "duration": 0.17123300000000086
                },
                {
                    "name": "B4",
                    "midi": 71,
                    "time": 138.69872999999993,
                    "velocity": 0.3937007874015748,
                    "duration": 0.17123300000000086
                },
                {
                    "name": "A4",
                    "midi": 69,
                    "time": 138.86996299999993,
                    "velocity": 0.3700787401574803,
                    "duration": 0.17123300000000086
                },
                {
                    "name": "D5",
                    "midi": 74,
                    "time": 139.04119599999993,
                    "velocity": 0.4251968503937008,
                    "duration": 0.08561649999998622
                },
                {
                    "name": "C5",
                    "midi": 72,
                    "time": 139.3836619999999,
                    "velocity": 0.4015748031496063,
                    "duration": 0.08561649999998622
                },
                {
                    "name": "A#4",
                    "midi": 70,
                    "time": 139.72612799999987,
                    "velocity": 0.41732283464566927,
                    "duration": 0.3424660000000017
                },
                {
                    "name": "B4",
                    "midi": 71,
                    "time": 140.06859399999988,
                    "velocity": 0.4015748031496063,
                    "duration": 0.3424660000000017
                },
                {
                    "name": "G4",
                    "midi": 67,
                    "time": 142.38023949999987,
                    "velocity": 0.33858267716535434,
                    "duration": 0.08561649999998622
                },
                {
                    "name": "G5",
                    "midi": 79,
                    "time": 142.46585599999986,
                    "velocity": 0.5039370078740157,
                    "duration": 0.8561650000000043
                },
                {
                    "name": "F#5",
                    "midi": 78,
                    "time": 143.32202099999986,
                    "velocity": 0.3937007874015748,
                    "duration": 0.17123300000000086
                },
                {
                    "name": "E5",
                    "midi": 76,
                    "time": 143.49325399999987,
                    "velocity": 0.3937007874015748,
                    "duration": 0.17123300000000086
                },
                {
                    "name": "D5",
                    "midi": 74,
                    "time": 143.66448699999987,
                    "velocity": 0.3779527559055118,
                    "duration": 0.16409829166667578
                },
                {
                    "name": "D5",
                    "midi": 74,
                    "time": 143.83571999999987,
                    "velocity": 0.41732283464566927,
                    "duration": 0.17123300000000086
                },
                {
                    "name": "C5",
                    "midi": 72,
                    "time": 144.00695299999987,
                    "velocity": 0.3700787401574803,
                    "duration": 0.17123300000000086
                },
                {
                    "name": "B4",
                    "midi": 71,
                    "time": 144.17818599999987,
                    "velocity": 0.3937007874015748,
                    "duration": 0.17123300000000086
                },
                {
                    "name": "A4",
                    "midi": 69,
                    "time": 144.34941899999987,
                    "velocity": 0.3937007874015748,
                    "duration": 0.17123300000000086
                },
                {
                    "name": "D5",
                    "midi": 74,
                    "time": 144.52065199999987,
                    "velocity": 0.4251968503937008,
                    "duration": 0.08561649999998622
                },
                {
                    "name": "C5",
                    "midi": 72,
                    "time": 144.86311799999984,
                    "velocity": 0.4015748031496063,
                    "duration": 0.08561649999998622
                },
                {
                    "name": "B4",
                    "midi": 71,
                    "time": 145.20558399999982,
                    "velocity": 0.4251968503937008,
                    "duration": 0.3424660000000017
                },
                {
                    "name": "E5",
                    "midi": 76,
                    "time": 145.89051599999982,
                    "velocity": 0.4094488188976378,
                    "duration": 0.08561649999998622
                },
                {
                    "name": "F#5",
                    "midi": 78,
                    "time": 145.9761324999998,
                    "velocity": 0.4330708661417323,
                    "duration": 0.08561649999998622
                },
                {
                    "name": "E5",
                    "midi": 76,
                    "time": 146.0617489999998,
                    "velocity": 0.41732283464566927,
                    "duration": 0.08561649999998622
                },
                {
                    "name": "F#5",
                    "midi": 78,
                    "time": 146.14736549999978,
                    "velocity": 0.4881889763779528,
                    "duration": 0.08561649999998622
                },
                {
                    "name": "G5",
                    "midi": 79,
                    "time": 146.23298199999977,
                    "velocity": 0.4881889763779528,
                    "duration": 0.17123300000000086
                },
                {
                    "name": "G5",
                    "midi": 79,
                    "time": 146.40421499999977,
                    "velocity": 0.47244094488188976,
                    "duration": 0.08561649999998622
                },
                {
                    "name": "G5",
                    "midi": 79,
                    "time": 146.57544799999974,
                    "velocity": 0.47244094488188976,
                    "duration": 0.3424660000000017
                },
                {
                    "name": "A5",
                    "midi": 81,
                    "time": 147.26037999999974,
                    "velocity": 0.4094488188976378,
                    "duration": 0.08561649999998622
                },
                {
                    "name": "B5",
                    "midi": 83,
                    "time": 147.34599649999973,
                    "velocity": 0.4330708661417323,
                    "duration": 0.08561649999998622
                },
                {
                    "name": "A5",
                    "midi": 81,
                    "time": 147.43161299999971,
                    "velocity": 0.4094488188976378,
                    "duration": 0.08561649999998622
                },
                {
                    "name": "B5",
                    "midi": 83,
                    "time": 147.5172294999997,
                    "velocity": 0.4881889763779528,
                    "duration": 0.08561649999998622
                },
                {
                    "name": "C6",
                    "midi": 84,
                    "time": 147.6028459999997,
                    "velocity": 0.4881889763779528,
                    "duration": 0.17123300000000086
                },
                {
                    "name": "C6",
                    "midi": 84,
                    "time": 147.7740789999997,
                    "velocity": 0.47244094488188976,
                    "duration": 0.08561649999998622
                },
                {
                    "name": "C6",
                    "midi": 84,
                    "time": 147.94531199999966,
                    "velocity": 0.47244094488188976,
                    "duration": 0.3424660000000017
                },
                {
                    "name": "C6",
                    "midi": 84,
                    "time": 148.63024399999966,
                    "velocity": 0.4015748031496063,
                    "duration": 0.08561649999998622
                },
                {
                    "name": "D6",
                    "midi": 86,
                    "time": 148.71586049999965,
                    "velocity": 0.4251968503937008,
                    "duration": 0.08561649999998622
                },
                {
                    "name": "C6",
                    "midi": 84,
                    "time": 148.80147699999964,
                    "velocity": 0.4015748031496063,
                    "duration": 0.08561649999998622
                },
                {
                    "name": "D6",
                    "midi": 86,
                    "time": 148.88709349999962,
                    "velocity": 0.49606299212598426,
                    "duration": 0.08561649999998622
                },
                {
                    "name": "E6",
                    "midi": 88,
                    "time": 148.9727099999996,
                    "velocity": 0.49606299212598426,
                    "duration": 0.17123300000000086
                },
                {
                    "name": "E6",
                    "midi": 88,
                    "time": 149.1439429999996,
                    "velocity": 0.47244094488188976,
                    "duration": 0.08561649999998622
                },
                {
                    "name": "E6",
                    "midi": 88,
                    "time": 149.31517599999958,
                    "velocity": 0.47244094488188976,
                    "duration": 0.17123300000000086
                },
                {
                    "name": "D6",
                    "midi": 86,
                    "time": 149.48640899999958,
                    "velocity": 0.48031496062992124,
                    "duration": 0.17123300000000086
                },
                {
                    "name": "C6",
                    "midi": 84,
                    "time": 149.65764199999958,
                    "velocity": 0.4409448818897638,
                    "duration": 0.08561649999998622
                },
                {
                    "name": "B5",
                    "midi": 83,
                    "time": 149.82887499999956,
                    "velocity": 0.4409448818897638,
                    "duration": 0.08561649999998622
                },
                {
                    "name": "A5",
                    "midi": 81,
                    "time": 150.00010799999953,
                    "velocity": 0.4409448818897638,
                    "duration": 0.08561649999998622
                },
                {
                    "name": "D6",
                    "midi": 86,
                    "time": 150.3425739999995,
                    "velocity": 0.4409448818897638,
                    "duration": 0.08561649999998622
                },
                {
                    "name": "C6",
                    "midi": 84,
                    "time": 150.68503999999947,
                    "velocity": 0.4881889763779528,
                    "duration": 0.3424660000000017
                },
                {
                    "name": "B5",
                    "midi": 83,
                    "time": 151.02750599999948,
                    "velocity": 0.4566929133858268,
                    "duration": 0.3424660000000017
                },
                {
                    "name": "E5",
                    "midi": 76,
                    "time": 151.36997199999948,
                    "velocity": 0.4015748031496063,
                    "duration": 0.08561649999998622
                },
                {
                    "name": "F#5",
                    "midi": 78,
                    "time": 151.45558849999946,
                    "velocity": 0.4251968503937008,
                    "duration": 0.08561649999998622
                },
                {
                    "name": "E5",
                    "midi": 76,
                    "time": 151.54120499999945,
                    "velocity": 0.4015748031496063,
                    "duration": 0.08561649999998622
                },
                {
                    "name": "F#5",
                    "midi": 78,
                    "time": 151.62682149999944,
                    "velocity": 0.5039370078740157,
                    "duration": 0.08561649999998622
                },
                {
                    "name": "G5",
                    "midi": 79,
                    "time": 151.71243799999942,
                    "velocity": 0.5039370078740157,
                    "duration": 0.17123300000000086
                },
                {
                    "name": "G5",
                    "midi": 79,
                    "time": 151.88367099999942,
                    "velocity": 0.47244094488188976,
                    "duration": 0.08561649999998622
                },
                {
                    "name": "G5",
                    "midi": 79,
                    "time": 152.0549039999994,
                    "velocity": 0.47244094488188976,
                    "duration": 0.3424660000000017
                },
                {
                    "name": "A5",
                    "midi": 81,
                    "time": 152.7398359999994,
                    "velocity": 0.3937007874015748,
                    "duration": 0.08561649999998622
                },
                {
                    "name": "B5",
                    "midi": 83,
                    "time": 152.8254524999994,
                    "velocity": 0.4251968503937008,
                    "duration": 0.08561649999998622
                },
                {
                    "name": "A5",
                    "midi": 81,
                    "time": 152.91106899999937,
                    "velocity": 0.4015748031496063,
                    "duration": 0.08561649999998622
                },
                {
                    "name": "B5",
                    "midi": 83,
                    "time": 152.99668549999936,
                    "velocity": 0.5196850393700787,
                    "duration": 0.08561649999998622
                },
                {
                    "name": "C6",
                    "midi": 84,
                    "time": 153.08230199999934,
                    "velocity": 0.5196850393700787,
                    "duration": 0.17123300000000086
                },
                {
                    "name": "C6",
                    "midi": 84,
                    "time": 153.25353499999935,
                    "velocity": 0.47244094488188976,
                    "duration": 0.08561649999998622
                },
                {
                    "name": "C6",
                    "midi": 84,
                    "time": 153.42476799999932,
                    "velocity": 0.47244094488188976,
                    "duration": 0.3424660000000017
                },
                {
                    "name": "C6",
                    "midi": 84,
                    "time": 154.10969999999932,
                    "velocity": 0.3937007874015748,
                    "duration": 0.08561649999998622
                },
                {
                    "name": "D6",
                    "midi": 86,
                    "time": 154.1953164999993,
                    "velocity": 0.4251968503937008,
                    "duration": 0.08561649999998622
                },
                {
                    "name": "C6",
                    "midi": 84,
                    "time": 154.2809329999993,
                    "velocity": 0.4015748031496063,
                    "duration": 0.08561649999998622
                },
                {
                    "name": "D6",
                    "midi": 86,
                    "time": 154.36654949999928,
                    "velocity": 0.5039370078740157,
                    "duration": 0.08561649999998622
                },
                {
                    "name": "E6",
                    "midi": 88,
                    "time": 154.45216599999927,
                    "velocity": 0.5039370078740157,
                    "duration": 0.17123300000000086
                },
                {
                    "name": "E6",
                    "midi": 88,
                    "time": 154.62339899999927,
                    "velocity": 0.48031496062992124,
                    "duration": 0.08561649999998622
                },
                {
                    "name": "E6",
                    "midi": 88,
                    "time": 154.79463199999924,
                    "velocity": 0.4881889763779528,
                    "duration": 0.17123300000000086
                },
                {
                    "name": "D6",
                    "midi": 86,
                    "time": 154.96586499999924,
                    "velocity": 0.48031496062992124,
                    "duration": 0.17123300000000086
                },
                {
                    "name": "C6",
                    "midi": 84,
                    "time": 155.13709799999924,
                    "velocity": 0.48031496062992124,
                    "duration": 0.08561649999998622
                },
                {
                    "name": "B5",
                    "midi": 83,
                    "time": 155.3083309999992,
                    "velocity": 0.48031496062992124,
                    "duration": 0.08561649999998622
                },
                {
                    "name": "B5",
                    "midi": 83,
                    "time": 155.4795639999992,
                    "velocity": 0.4881889763779528,
                    "duration": 0.17123300000000086
                },
                {
                    "name": "A5",
                    "midi": 81,
                    "time": 155.6507969999992,
                    "velocity": 0.48031496062992124,
                    "duration": 0.17123300000000086
                },
                {
                    "name": "G5",
                    "midi": 79,
                    "time": 155.8220299999992,
                    "velocity": 0.48031496062992124,
                    "duration": 0.08561649999998622
                },
                {
                    "name": "F#5",
                    "midi": 78,
                    "time": 155.99326299999916,
                    "velocity": 0.48031496062992124,
                    "duration": 0.08561649999998622
                },
                {
                    "name": "D6",
                    "midi": 86,
                    "time": 156.16449599999913,
                    "velocity": 0.6614173228346457,
                    "duration": 0.4566213333333451
                },
                {
                    "name": "B5",
                    "midi": 83,
                    "time": 156.62111733333248,
                    "velocity": 0.48031496062992124,
                    "duration": 0.11415533333334338
                },
                {
                    "name": "G5",
                    "midi": 79,
                    "time": 156.73527266666582,
                    "velocity": 0.48031496062992124,
                    "duration": 0.11415533333334338
                },
                {
                    "name": "F#5",
                    "midi": 78,
                    "time": 156.84942799999916,
                    "velocity": 0.49606299212598426,
                    "duration": 0.11415533333334338
                },
                {
                    "name": "A5",
                    "midi": 81,
                    "time": 156.9635833333325,
                    "velocity": 0.49606299212598426,
                    "duration": 0.11415533333334338
                },
                {
                    "name": "D5",
                    "midi": 74,
                    "time": 157.07773866666585,
                    "velocity": 0.48031496062992124,
                    "duration": 0.11415533333334338
                },
                {
                    "name": "G5",
                    "midi": 79,
                    "time": 157.1918939999992,
                    "velocity": 0.49606299212598426,
                    "duration": 0.11415533333334338
                },
                {
                    "name": "B5",
                    "midi": 83,
                    "time": 157.30604933333254,
                    "velocity": 0.48031496062992124,
                    "duration": 0.11415533333334338
                },
                {
                    "name": "D5",
                    "midi": 74,
                    "time": 157.42020466666588,
                    "velocity": 0.48031496062992124,
                    "duration": 0.11415533333334338
                },
                {
                    "name": "A5",
                    "midi": 81,
                    "time": 157.53435999999923,
                    "velocity": 0.5511811023622047,
                    "duration": 0.4566213333333451
                },
                {
                    "name": "F#5",
                    "midi": 78,
                    "time": 157.99098133333257,
                    "velocity": 0.4566929133858268,
                    "duration": 0.11415533333334338
                },
                {
                    "name": "D5",
                    "midi": 74,
                    "time": 158.1051366666659,
                    "velocity": 0.4645669291338583,
                    "duration": 0.11415533333334338
                },
                {
                    "name": "C#5",
                    "midi": 73,
                    "time": 158.21929199999926,
                    "velocity": 0.48031496062992124,
                    "duration": 0.11415533333334338
                },
                {
                    "name": "D5",
                    "midi": 74,
                    "time": 158.3334473333326,
                    "velocity": 0.44881889763779526,
                    "duration": 0.11415533333334338
                },
                {
                    "name": "A4",
                    "midi": 69,
                    "time": 158.44760266666594,
                    "velocity": 0.44881889763779526,
                    "duration": 0.11415533333334338
                },
                {
                    "name": "C5",
                    "midi": 72,
                    "time": 158.5617579999993,
                    "velocity": 0.47244094488188976,
                    "duration": 0.11415533333334338
                },
                {
                    "name": "D5",
                    "midi": 74,
                    "time": 158.67591333333263,
                    "velocity": 0.44881889763779526,
                    "duration": 0.11415533333334338
                },
                {
                    "name": "A4",
                    "midi": 69,
                    "time": 158.79006866666597,
                    "velocity": 0.44881889763779526,
                    "duration": 0.11415533333334338
                },
                {
                    "name": "D6",
                    "midi": 86,
                    "time": 158.90422399999932,
                    "velocity": 0.6062992125984252,
                    "duration": 0.4566213333333451
                },
                {
                    "name": "B5",
                    "midi": 83,
                    "time": 159.36084533333266,
                    "velocity": 0.48031496062992124,
                    "duration": 0.11415533333334338
                },
                {
                    "name": "G5",
                    "midi": 79,
                    "time": 159.475000666666,
                    "velocity": 0.48031496062992124,
                    "duration": 0.11415533333334338
                },
                {
                    "name": "F#5",
                    "midi": 78,
                    "time": 159.58915599999935,
                    "velocity": 0.49606299212598426,
                    "duration": 0.11415533333334338
                },
                {
                    "name": "A5",
                    "midi": 81,
                    "time": 159.7033113333327,
                    "velocity": 0.49606299212598426,
                    "duration": 0.11415533333334338
                },
                {
                    "name": "D5",
                    "midi": 74,
                    "time": 159.81746666666604,
                    "velocity": 0.48031496062992124,
                    "duration": 0.11415533333334338
                },
                {
                    "name": "G5",
                    "midi": 79,
                    "time": 159.93162199999938,
                    "velocity": 0.49606299212598426,
                    "duration": 0.11415533333334338
                },
                {
                    "name": "B5",
                    "midi": 83,
                    "time": 160.04577733333272,
                    "velocity": 0.48031496062992124,
                    "duration": 0.11415533333334338
                },
                {
                    "name": "D5",
                    "midi": 74,
                    "time": 160.15993266666607,
                    "velocity": 0.48031496062992124,
                    "duration": 0.11415533333334338
                },
                {
                    "name": "A5",
                    "midi": 81,
                    "time": 160.2740879999994,
                    "velocity": 0.5590551181102362,
                    "duration": 0.4566213333333451
                },
                {
                    "name": "F#5",
                    "midi": 78,
                    "time": 160.73070933333275,
                    "velocity": 0.4330708661417323,
                    "duration": 0.11415533333334338
                },
                {
                    "name": "D5",
                    "midi": 74,
                    "time": 160.8448646666661,
                    "velocity": 0.4330708661417323,
                    "duration": 0.11415533333334338
                },
                {
                    "name": "C#5",
                    "midi": 73,
                    "time": 160.95901999999944,
                    "velocity": 0.44881889763779526,
                    "duration": 0.11415533333334338
                },
                {
                    "name": "D5",
                    "midi": 74,
                    "time": 161.07317533333278,
                    "velocity": 0.4251968503937008,
                    "duration": 0.11415533333334338
                },
                {
                    "name": "A4",
                    "midi": 69,
                    "time": 161.18733066666613,
                    "velocity": 0.4251968503937008,
                    "duration": 0.11415533333334338
                },
                {
                    "name": "C5",
                    "midi": 72,
                    "time": 161.30148599999947,
                    "velocity": 0.4330708661417323,
                    "duration": 0.11415533333334338
                },
                {
                    "name": "D5",
                    "midi": 74,
                    "time": 161.41564133333281,
                    "velocity": 0.41732283464566927,
                    "duration": 0.11415533333334338
                },
                {
                    "name": "A4",
                    "midi": 69,
                    "time": 161.52979666666616,
                    "velocity": 0.41732283464566927,
                    "duration": 0.11415533333334338
                },
                {
                    "name": "B4",
                    "midi": 71,
                    "time": 161.6439519999995,
                    "velocity": 0.41732283464566927,
                    "duration": 0.11415533333334338
                },
                {
                    "name": "G4",
                    "midi": 67,
                    "time": 161.75810733333284,
                    "velocity": 0.4251968503937008,
                    "duration": 0.11415533333334338
                },
                {
                    "name": "B4",
                    "midi": 71,
                    "time": 161.8722626666662,
                    "velocity": 0.4409448818897638,
                    "duration": 0.11415533333334338
                },
                {
                    "name": "D5",
                    "midi": 74,
                    "time": 161.98641799999953,
                    "velocity": 0.44881889763779526,
                    "duration": 0.11415533333334338
                },
                {
                    "name": "B4",
                    "midi": 71,
                    "time": 162.10057333333287,
                    "velocity": 0.4566929133858268,
                    "duration": 0.11415533333334338
                },
                {
                    "name": "D5",
                    "midi": 74,
                    "time": 162.21472866666622,
                    "velocity": 0.48031496062992124,
                    "duration": 0.11415533333334338
                },
                {
                    "name": "G5",
                    "midi": 79,
                    "time": 162.32888399999956,
                    "velocity": 0.48031496062992124,
                    "duration": 0.11415533333334338
                },
                {
                    "name": "D5",
                    "midi": 74,
                    "time": 162.4430393333329,
                    "velocity": 0.49606299212598426,
                    "duration": 0.11415533333334338
                },
                {
                    "name": "G5",
                    "midi": 79,
                    "time": 162.55719466666625,
                    "velocity": 0.5039370078740157,
                    "duration": 0.11415533333334338
                },
                {
                    "name": "B5",
                    "midi": 83,
                    "time": 162.6713499999996,
                    "velocity": 0.5039370078740157,
                    "duration": 0.11415533333334338
                },
                {
                    "name": "G5",
                    "midi": 79,
                    "time": 162.78550533333294,
                    "velocity": 0.5275590551181102,
                    "duration": 0.11415533333334338
                },
                {
                    "name": "B5",
                    "midi": 83,
                    "time": 162.89966066666628,
                    "velocity": 0.5354330708661418,
                    "duration": 0.11415533333334338
                },
                {
                    "name": "D6",
                    "midi": 86,
                    "time": 163.01381599999962,
                    "velocity": 0.5433070866141733,
                    "duration": 0.11415533333334338
                },
                {
                    "name": "B5",
                    "midi": 83,
                    "time": 163.12797133333297,
                    "velocity": 0.5511811023622047,
                    "duration": 0.11415533333334338
                },
                {
                    "name": "D6",
                    "midi": 86,
                    "time": 163.2421266666663,
                    "velocity": 0.5748031496062992,
                    "duration": 0.11415533333334338
                },
                {
                    "name": "F6",
                    "midi": 89,
                    "time": 163.35628199999965,
                    "velocity": 0.5748031496062992,
                    "duration": 0.11415533333334338
                },
                {
                    "name": "D6",
                    "midi": 86,
                    "time": 163.470437333333,
                    "velocity": 0.5511811023622047,
                    "duration": 0.11415533333334338
                },
                {
                    "name": "B5",
                    "midi": 83,
                    "time": 163.58459266666634,
                    "velocity": 0.5354330708661418,
                    "duration": 0.11415533333334338
                },
                {
                    "name": "G5",
                    "midi": 79,
                    "time": 163.69874799999968,
                    "velocity": 0.5196850393700787,
                    "duration": 0.11415533333334338
                },
                {
                    "name": "F5",
                    "midi": 77,
                    "time": 163.81290333333303,
                    "velocity": 0.5039370078740157,
                    "duration": 0.11415533333334338
                },
                {
                    "name": "D5",
                    "midi": 74,
                    "time": 163.92705866666637,
                    "velocity": 0.48031496062992124,
                    "duration": 0.11415533333334338
                },
                {
                    "name": "B4",
                    "midi": 71,
                    "time": 164.0412139999997,
                    "velocity": 0.47244094488188976,
                    "duration": 0.11415533333334338
                },
                {
                    "name": "G4",
                    "midi": 67,
                    "time": 164.15536933333306,
                    "velocity": 0.4409448818897638,
                    "duration": 0.11415533333334338
                },
                {
                    "name": "F4",
                    "midi": 65,
                    "time": 164.2695246666664,
                    "velocity": 0.4251968503937008,
                    "duration": 0.11415533333334338
                },
                {
                    "name": "E4",
                    "midi": 64,
                    "time": 164.38367999999974,
                    "velocity": 0.4015748031496063,
                    "duration": 0.08561649999998622
                },
                {
                    "name": "E5",
                    "midi": 76,
                    "time": 164.55491299999971,
                    "velocity": 0.3779527559055118,
                    "duration": 0.17123300000000086
                },
                {
                    "name": "D#5",
                    "midi": 75,
                    "time": 164.72614599999972,
                    "velocity": 0.3779527559055118,
                    "duration": 0.17123300000000086
                },
                {
                    "name": "E5",
                    "midi": 76,
                    "time": 164.89737899999972,
                    "velocity": 0.3779527559055118,
                    "duration": 0.17123300000000086
                },
                {
                    "name": "D#5",
                    "midi": 75,
                    "time": 165.06861199999972,
                    "velocity": 0.3858267716535433,
                    "duration": 0.17123300000000086
                },
                {
                    "name": "E5",
                    "midi": 76,
                    "time": 165.23984499999972,
                    "velocity": 0.3858267716535433,
                    "duration": 0.17123300000000086
                },
                {
                    "name": "D#5",
                    "midi": 75,
                    "time": 165.41107799999972,
                    "velocity": 0.3858267716535433,
                    "duration": 0.17123300000000086
                },
                {
                    "name": "E5",
                    "midi": 76,
                    "time": 165.58231099999972,
                    "velocity": 0.3858267716535433,
                    "duration": 0.17123300000000086
                },
                {
                    "name": "G4",
                    "midi": 67,
                    "time": 165.75354399999972,
                    "velocity": 0.41732283464566927,
                    "duration": 1.0273980000000051
                },
                {
                    "name": "B4",
                    "midi": 71,
                    "time": 166.78094199999973,
                    "velocity": 0.3858267716535433,
                    "duration": 0.17123300000000086
                },
                {
                    "name": "F#4",
                    "midi": 66,
                    "time": 166.78094199999973,
                    "velocity": 0.3858267716535433,
                    "duration": 0.3424660000000017
                },
                {
                    "name": "A4",
                    "midi": 69,
                    "time": 166.95217499999973,
                    "velocity": 0.3858267716535433,
                    "duration": 0.17123300000000086
                },
                {
                    "name": "G4",
                    "midi": 67,
                    "time": 167.23756333333307,
                    "velocity": 0.4251968503937008,
                    "duration": 0.11415533333334338
                },
                {
                    "name": "B4",
                    "midi": 71,
                    "time": 167.35171866666641,
                    "velocity": 0.4409448818897638,
                    "duration": 0.11415533333334338
                },
                {
                    "name": "D5",
                    "midi": 74,
                    "time": 167.46587399999976,
                    "velocity": 0.44881889763779526,
                    "duration": 0.11415533333334338
                },
                {
                    "name": "B4",
                    "midi": 71,
                    "time": 167.5800293333331,
                    "velocity": 0.4566929133858268,
                    "duration": 0.11415533333334338
                },
                {
                    "name": "D5",
                    "midi": 74,
                    "time": 167.69418466666644,
                    "velocity": 0.48031496062992124,
                    "duration": 0.11415533333334338
                },
                {
                    "name": "G5",
                    "midi": 79,
                    "time": 167.8083399999998,
                    "velocity": 0.48031496062992124,
                    "duration": 0.11415533333334338
                },
                {
                    "name": "D5",
                    "midi": 74,
                    "time": 167.92249533333313,
                    "velocity": 0.49606299212598426,
                    "duration": 0.11415533333334338
                },
                {
                    "name": "G5",
                    "midi": 79,
                    "time": 168.03665066666647,
                    "velocity": 0.5039370078740157,
                    "duration": 0.11415533333334338
                },
                {
                    "name": "B5",
                    "midi": 83,
                    "time": 168.15080599999982,
                    "velocity": 0.5039370078740157,
                    "duration": 0.11415533333334338
                },
                {
                    "name": "G5",
                    "midi": 79,
                    "time": 168.26496133333316,
                    "velocity": 0.5275590551181102,
                    "duration": 0.11415533333334338
                },
                {
                    "name": "B5",
                    "midi": 83,
                    "time": 168.3791166666665,
                    "velocity": 0.5354330708661418,
                    "duration": 0.11415533333334338
                },
                {
                    "name": "D6",
                    "midi": 86,
                    "time": 168.49327199999985,
                    "velocity": 0.5433070866141733,
                    "duration": 0.11415533333334338
                },
                {
                    "name": "B5",
                    "midi": 83,
                    "time": 168.6074273333332,
                    "velocity": 0.5511811023622047,
                    "duration": 0.11415533333334338
                },
                {
                    "name": "D6",
                    "midi": 86,
                    "time": 168.72158266666654,
                    "velocity": 0.5748031496062992,
                    "duration": 0.11415533333334338
                },
                {
                    "name": "F6",
                    "midi": 89,
                    "time": 168.83573799999988,
                    "velocity": 0.5748031496062992,
                    "duration": 0.11415533333334338
                },
                {
                    "name": "D6",
                    "midi": 86,
                    "time": 168.94989333333322,
                    "velocity": 0.5511811023622047,
                    "duration": 0.11415533333334338
                },
                {
                    "name": "B5",
                    "midi": 83,
                    "time": 169.06404866666657,
                    "velocity": 0.5354330708661418,
                    "duration": 0.11415533333334338
                },
                {
                    "name": "G5",
                    "midi": 79,
                    "time": 169.1782039999999,
                    "velocity": 0.5196850393700787,
                    "duration": 0.11415533333334338
                },
                {
                    "name": "F5",
                    "midi": 77,
                    "time": 169.29235933333325,
                    "velocity": 0.5039370078740157,
                    "duration": 0.11415533333334338
                },
                {
                    "name": "D5",
                    "midi": 74,
                    "time": 169.4065146666666,
                    "velocity": 0.48031496062992124,
                    "duration": 0.11415533333334338
                },
                {
                    "name": "B4",
                    "midi": 71,
                    "time": 169.52066999999994,
                    "velocity": 0.47244094488188976,
                    "duration": 0.11415533333334338
                },
                {
                    "name": "G4",
                    "midi": 67,
                    "time": 169.63482533333328,
                    "velocity": 0.4409448818897638,
                    "duration": 0.11415533333334338
                },
                {
                    "name": "F4",
                    "midi": 65,
                    "time": 169.74898066666663,
                    "velocity": 0.4251968503937008,
                    "duration": 0.11415533333334338
                },
                {
                    "name": "E4",
                    "midi": 64,
                    "time": 169.86313599999997,
                    "velocity": 0.4015748031496063,
                    "duration": 0.08561649999998622
                },
                {
                    "name": "E5",
                    "midi": 76,
                    "time": 170.03436899999994,
                    "velocity": 0.3779527559055118,
                    "duration": 0.17123300000000086
                },
                {
                    "name": "D#5",
                    "midi": 75,
                    "time": 170.20560199999994,
                    "velocity": 0.3779527559055118,
                    "duration": 0.17123300000000086
                },
                {
                    "name": "E5",
                    "midi": 76,
                    "time": 170.37683499999994,
                    "velocity": 0.36220472440944884,
                    "duration": 0.17123300000000086
                },
                {
                    "name": "D#5",
                    "midi": 75,
                    "time": 170.54806799999994,
                    "velocity": 0.3858267716535433,
                    "duration": 0.17123300000000086
                },
                {
                    "name": "E5",
                    "midi": 76,
                    "time": 170.71930099999994,
                    "velocity": 0.3700787401574803,
                    "duration": 0.17123300000000086
                },
                {
                    "name": "D#5",
                    "midi": 75,
                    "time": 170.89053399999995,
                    "velocity": 0.3858267716535433,
                    "duration": 0.17123300000000086
                },
                {
                    "name": "E5",
                    "midi": 76,
                    "time": 171.06176699999995,
                    "velocity": 0.3700787401574803,
                    "duration": 0.17123300000000086
                },
                {
                    "name": "G5",
                    "midi": 79,
                    "time": 171.40423299999995,
                    "velocity": 0.4251968503937008,
                    "duration": 0.17123300000000086
                },
                {
                    "name": "F#5",
                    "midi": 78,
                    "time": 171.57546599999995,
                    "velocity": 0.4566929133858268,
                    "duration": 0.17123300000000086
                },
                {
                    "name": "G5",
                    "midi": 79,
                    "time": 171.74669899999995,
                    "velocity": 0.4330708661417323,
                    "duration": 0.17123300000000086
                },
                {
                    "name": "F#5",
                    "midi": 78,
                    "time": 171.91793199999995,
                    "velocity": 0.48031496062992124,
                    "duration": 0.17123300000000086
                },
                {
                    "name": "G5",
                    "midi": 79,
                    "time": 172.08916499999995,
                    "velocity": 0.4645669291338583,
                    "duration": 0.17123300000000086
                },
                {
                    "name": "F#5",
                    "midi": 78,
                    "time": 172.26039799999995,
                    "velocity": 0.48031496062992124,
                    "duration": 0.17123300000000086
                },
                {
                    "name": "G5",
                    "midi": 79,
                    "time": 172.43163099999995,
                    "velocity": 0.5039370078740157,
                    "duration": 0.16409829166667578
                },
                {
                    "name": "G5",
                    "midi": 79,
                    "time": 172.60286399999995,
                    "velocity": 0.4881889763779528,
                    "duration": 0.17123300000000086
                },
                {
                    "name": "D5",
                    "midi": 74,
                    "time": 172.77409699999995,
                    "velocity": 0.4015748031496063,
                    "duration": 0.15696358333332228
                },
                {
                    "name": "D5",
                    "midi": 74,
                    "time": 172.94532999999996,
                    "velocity": 0.4251968503937008,
                    "duration": 0.08561649999998622
                },
                {
                    "name": "D5",
                    "midi": 74,
                    "time": 173.11656299999993,
                    "velocity": 0.4015748031496063,
                    "duration": 0.08561649999998622
                },
                {
                    "name": "E5",
                    "midi": 76,
                    "time": 173.2877959999999,
                    "velocity": 0.44881889763779526,
                    "duration": 0.17123300000000086
                },
                {
                    "name": "D5",
                    "midi": 74,
                    "time": 173.4590289999999,
                    "velocity": 0.41732283464566927,
                    "duration": 0.15696358333332228
                },
                {
                    "name": "C5",
                    "midi": 72,
                    "time": 173.6302619999999,
                    "velocity": 0.4094488188976378,
                    "duration": 0.08561649999998622
                },
                {
                    "name": "B4",
                    "midi": 71,
                    "time": 173.80149499999987,
                    "velocity": 0.4015748031496063,
                    "duration": 0.08561649999998622
                },
                {
                    "name": "B4",
                    "midi": 71,
                    "time": 173.97272799999985,
                    "velocity": 0.3858267716535433,
                    "duration": 0.3424660000000017
                },
                {
                    "name": "A4",
                    "midi": 69,
                    "time": 174.65765999999985,
                    "velocity": 0.3779527559055118,
                    "duration": 0.08561649999998622
                },
                {
                    "name": "B4",
                    "midi": 71,
                    "time": 174.74327649999984,
                    "velocity": 0.3543307086614173,
                    "duration": 0.08561649999998622
                },
                {
                    "name": "A4",
                    "midi": 69,
                    "time": 174.82889299999982,
                    "velocity": 0.3779527559055118,
                    "duration": 0.08561649999998622
                },
                {
                    "name": "B4",
                    "midi": 71,
                    "time": 174.9145094999998,
                    "velocity": 0.3543307086614173,
                    "duration": 0.08561649999998622
                },
                {
                    "name": "A4",
                    "midi": 69,
                    "time": 175.0001259999998,
                    "velocity": 0.3779527559055118,
                    "duration": 0.05707766666665748
                },
                {
                    "name": "B4",
                    "midi": 71,
                    "time": 175.05720366666645,
                    "velocity": 0.36220472440944884,
                    "duration": 0.05707766666665748
                },
                {
                    "name": "A4",
                    "midi": 69,
                    "time": 175.11570827499978,
                    "velocity": 0.36220472440944884,
                    "duration": 0.05707766666665748
                },
                {
                    "name": "G4",
                    "midi": 67,
                    "time": 175.17135899999977,
                    "velocity": 0.4015748031496063,
                    "duration": 0.08561649999998622
                },
                {
                    "name": "A4",
                    "midi": 69,
                    "time": 175.25697549999975,
                    "velocity": 0.3779527559055118,
                    "duration": 0.08561649999998622
                },
                {
                    "name": "G4",
                    "midi": 67,
                    "time": 175.34259199999974,
                    "velocity": 0.3937007874015748,
                    "duration": 0.3424660000000017
                },
                {
                    "name": "D5",
                    "midi": 74,
                    "time": 176.02752399999974,
                    "velocity": 0.3937007874015748,
                    "duration": 0.47089074999999525
                },
                {
                    "name": "F#5",
                    "midi": 78,
                    "time": 176.49841474999974,
                    "velocity": 0.3779527559055118,
                    "duration": 0.04280825000000732
                },
                {
                    "name": "E5",
                    "midi": 76,
                    "time": 176.54122299999975,
                    "velocity": 0.3779527559055118,
                    "duration": 0.08561649999998622
                },
                {
                    "name": "D5",
                    "midi": 74,
                    "time": 176.62683949999973,
                    "velocity": 0.3779527559055118,
                    "duration": 0.08561649999998622
                },
                {
                    "name": "D6",
                    "midi": 86,
                    "time": 176.71245599999972,
                    "velocity": 0.44881889763779526,
                    "duration": 0.08561649999998622
                },
                {
                    "name": "C6",
                    "midi": 84,
                    "time": 177.0549219999997,
                    "velocity": 0.4409448818897638,
                    "duration": 0.08561649999998622
                },
                {
                    "name": "B5",
                    "midi": 83,
                    "time": 177.39738799999967,
                    "velocity": 0.4251968503937008,
                    "duration": 0.08561649999998622
                },
                {
                    "name": "A5",
                    "midi": 81,
                    "time": 177.73985399999964,
                    "velocity": 0.4015748031496063,
                    "duration": 0.08561649999998622
                },
                {
                    "name": "G5",
                    "midi": 79,
                    "time": 178.0823199999996,
                    "velocity": 0.4330708661417323,
                    "duration": 0.6849320000000034
                },
                {
                    "name": "D5",
                    "midi": 74,
                    "time": 178.76725199999962,
                    "velocity": 0.3937007874015748,
                    "duration": 0.47089074999999525
                },
                {
                    "name": "F#5",
                    "midi": 78,
                    "time": 179.2381427499996,
                    "velocity": 0.3779527559055118,
                    "duration": 0.04280825000000732
                },
                {
                    "name": "E5",
                    "midi": 76,
                    "time": 179.28095099999962,
                    "velocity": 0.3779527559055118,
                    "duration": 0.08561649999998622
                },
                {
                    "name": "D5",
                    "midi": 74,
                    "time": 179.3665674999996,
                    "velocity": 0.3779527559055118,
                    "duration": 0.08561649999998622
                },
                {
                    "name": "D6",
                    "midi": 86,
                    "time": 179.4521839999996,
                    "velocity": 0.4409448818897638,
                    "duration": 0.08561649999998622
                },
                {
                    "name": "C6",
                    "midi": 84,
                    "time": 179.79464999999956,
                    "velocity": 0.41732283464566927,
                    "duration": 0.08561649999998622
                },
                {
                    "name": "B5",
                    "midi": 83,
                    "time": 180.13711599999954,
                    "velocity": 0.4094488188976378,
                    "duration": 0.08561649999998622
                },
                {
                    "name": "A5",
                    "midi": 81,
                    "time": 180.4795819999995,
                    "velocity": 0.3858267716535433,
                    "duration": 0.08561649999998622
                },
                {
                    "name": "G5",
                    "midi": 79,
                    "time": 180.82204799999948,
                    "velocity": 0.41732283464566927,
                    "duration": 0.3424660000000017
                },
                {
                    "name": "D5",
                    "midi": 74,
                    "time": 181.44990233333283,
                    "velocity": 0.4409448818897638,
                    "duration": 0.05707766666665748
                },
                {
                    "name": "D6",
                    "midi": 86,
                    "time": 181.5069799999995,
                    "velocity": 0.5511811023622047,
                    "duration": 0.5136990000000026
                },
                {
                    "name": "C6",
                    "midi": 84,
                    "time": 182.0206789999995,
                    "velocity": 0.4094488188976378,
                    "duration": 0.05707766666665748
                },
                {
                    "name": "B5",
                    "midi": 83,
                    "time": 182.07775666666615,
                    "velocity": 0.4015748031496063,
                    "duration": 0.05707766666665748
                },
                {
                    "name": "A5",
                    "midi": 81,
                    "time": 182.1348343333328,
                    "velocity": 0.3779527559055118,
                    "duration": 0.05707766666665748
                },
                {
                    "name": "G5",
                    "midi": 79,
                    "time": 182.19191199999946,
                    "velocity": 0.41732283464566927,
                    "duration": 0.3424660000000017
                },
                {
                    "name": "D5",
                    "midi": 74,
                    "time": 182.8197663333328,
                    "velocity": 0.4409448818897638,
                    "duration": 0.05707766666665748
                },
                {
                    "name": "D6",
                    "midi": 86,
                    "time": 182.87684399999947,
                    "velocity": 0.5590551181102362,
                    "duration": 0.5136990000000026
                },
                {
                    "name": "C6",
                    "midi": 84,
                    "time": 183.39054299999947,
                    "velocity": 0.41732283464566927,
                    "duration": 0.05707766666665748
                },
                {
                    "name": "B5",
                    "midi": 83,
                    "time": 183.44762066666613,
                    "velocity": 0.4015748031496063,
                    "duration": 0.05707766666665748
                },
                {
                    "name": "A5",
                    "midi": 81,
                    "time": 183.50469833333278,
                    "velocity": 0.3858267716535433,
                    "duration": 0.05707766666665748
                },
                {
                    "name": "G5",
                    "midi": 79,
                    "time": 183.56177599999944,
                    "velocity": 0.41732283464566927,
                    "duration": 0.3424660000000017
                },
                {
                    "name": "D4",
                    "midi": 62,
                    "time": 183.90424199999944,
                    "velocity": 0.33070866141732286,
                    "duration": 0.2568494999999871
                },
                {
                    "name": "G4",
                    "midi": 67,
                    "time": 184.16109149999943,
                    "velocity": 0.3228346456692913,
                    "duration": 0.08561649999998622
                },
                {
                    "name": "B4",
                    "midi": 71,
                    "time": 184.24670799999942,
                    "velocity": 0.33858267716535434,
                    "duration": 0.17123300000000086
                },
                {
                    "name": "A4",
                    "midi": 69,
                    "time": 184.58917399999942,
                    "velocity": 0.28346456692913385,
                    "duration": 0.3424660000000017
                },
                {
                    "name": "C4",
                    "midi": 60,
                    "time": 184.58917399999942,
                    "velocity": 0.28346456692913385,
                    "duration": 0.3424660000000017
                },
                {
                    "name": "C4",
                    "midi": 60,
                    "time": 184.93163999999942,
                    "velocity": 0.28346456692913385,
                    "duration": 0.6849320000000034
                },
                {
                    "name": "A4",
                    "midi": 69,
                    "time": 184.93163999999942,
                    "velocity": 0.28346456692913385,
                    "duration": 0.6849320000000034
                },
                {
                    "name": "G4",
                    "midi": 67,
                    "time": 185.61657199999942,
                    "velocity": 0.29133858267716534,
                    "duration": 0.3424660000000017
                },
                {
                    "name": "B3",
                    "midi": 59,
                    "time": 185.61657199999942,
                    "velocity": 0.29133858267716534,
                    "duration": 0.3424660000000017
                },
                {
                    "name": "D5",
                    "midi": 74,
                    "time": 186.30150399999943,
                    "velocity": 0.3700787401574803,
                    "duration": 0.3424660000000017
                },
                {
                    "name": "B4",
                    "midi": 71,
                    "time": 186.64396999999943,
                    "velocity": 0.33858267716535434,
                    "duration": 0.17123300000000086
                },
                {
                    "name": "B4",
                    "midi": 71,
                    "time": 186.98643599999943,
                    "velocity": 0.33858267716535434,
                    "duration": 0.17123300000000086
                },
                {
                    "name": "B4",
                    "midi": 71,
                    "time": 187.32890199999943,
                    "velocity": 0.28346456692913385,
                    "duration": 0.0342465999999888
                },
                {
                    "name": "C5",
                    "midi": 72,
                    "time": 187.36314859999942,
                    "velocity": 0.28346456692913385,
                    "duration": 0.0342465999999888
                },
                {
                    "name": "B4",
                    "midi": 71,
                    "time": 187.3973951999994,
                    "velocity": 0.28346456692913385,
                    "duration": 0.0342465999999888
                },
                {
                    "name": "C5",
                    "midi": 72,
                    "time": 187.4316417999994,
                    "velocity": 0.28346456692913385,
                    "duration": 0.0342465999999888
                },
                {
                    "name": "B4",
                    "midi": 71,
                    "time": 187.4658883999994,
                    "velocity": 0.28346456692913385,
                    "duration": 0.0342465999999888
                },
                {
                    "name": "A4",
                    "midi": 69,
                    "time": 187.50013499999937,
                    "velocity": 0.3228346456692913,
                    "duration": 0.08561649999998622
                },
                {
                    "name": "B4",
                    "midi": 71,
                    "time": 187.58575149999936,
                    "velocity": 0.3228346456692913,
                    "duration": 0.08561649999998622
                },
                {
                    "name": "D5",
                    "midi": 74,
                    "time": 187.67136799999935,
                    "velocity": 0.3858267716535433,
                    "duration": 0.3424660000000017
                },
                {
                    "name": "C5",
                    "midi": 72,
                    "time": 188.01383399999935,
                    "velocity": 0.33858267716535434,
                    "duration": 0.08561649999998622
                },
                {
                    "name": "A4",
                    "midi": 69,
                    "time": 188.35629999999932,
                    "velocity": 0.33858267716535434,
                    "duration": 0.6849320000000034
                },
                {
                    "name": "C5",
                    "midi": 72,
                    "time": 189.04123199999933,
                    "velocity": 0.4015748031496063,
                    "duration": 0.3424660000000017
                },
                {
                    "name": "B4",
                    "midi": 71,
                    "time": 189.38369799999933,
                    "velocity": 0.3464566929133858,
                    "duration": 0.08561649999998622
                },
                {
                    "name": "D5",
                    "midi": 74,
                    "time": 189.7261639999993,
                    "velocity": 0.41732283464566927,
                    "duration": 0.3424660000000017
                },
                {
                    "name": "C5",
                    "midi": 72,
                    "time": 190.0686299999993,
                    "velocity": 0.33858267716535434,
                    "duration": 0.08561649999998622
                },
                {
                    "name": "E5",
                    "midi": 76,
                    "time": 190.41109599999928,
                    "velocity": 0.47244094488188976,
                    "duration": 0.6849320000000034
                },
                {
                    "name": "D5",
                    "midi": 74,
                    "time": 191.09602799999928,
                    "velocity": 0.3858267716535433,
                    "duration": 0.3424660000000017
                },
                {
                    "name": "D5",
                    "midi": 74,
                    "time": 191.78095999999928,
                    "velocity": 0.47244094488188976,
                    "duration": 0.3424660000000017
                },
                {
                    "name": "G4",
                    "midi": 67,
                    "time": 192.12342599999928,
                    "velocity": 0.3937007874015748,
                    "duration": 0.17123300000000086
                },
                {
                    "name": "G4",
                    "midi": 67,
                    "time": 192.4658919999993,
                    "velocity": 0.3937007874015748,
                    "duration": 0.3424660000000017
                },
                {
                    "name": "G#4",
                    "midi": 68,
                    "time": 192.8083579999993,
                    "velocity": 0.33070866141732286,
                    "duration": 0.0342465999999888
                },
                {
                    "name": "A4",
                    "midi": 69,
                    "time": 192.84260459999928,
                    "velocity": 0.33070866141732286,
                    "duration": 0.0342465999999888
                },
                {
                    "name": "G#4",
                    "midi": 68,
                    "time": 192.87685119999927,
                    "velocity": 0.33070866141732286,
                    "duration": 0.0342465999999888
                },
                {
                    "name": "A4",
                    "midi": 69,
                    "time": 192.91109779999925,
                    "velocity": 0.33070866141732286,
                    "duration": 0.0342465999999888
                },
                {
                    "name": "G#4",
                    "midi": 68,
                    "time": 192.94534439999924,
                    "velocity": 0.33070866141732286,
                    "duration": 0.0342465999999888
                },
                {
                    "name": "F#4",
                    "midi": 66,
                    "time": 192.97959099999923,
                    "velocity": 0.33858267716535434,
                    "duration": 0.08561649999998622
                },
                {
                    "name": "G#4",
                    "midi": 68,
                    "time": 193.06520749999922,
                    "velocity": 0.33858267716535434,
                    "duration": 0.08561649999998622
                },
                {
                    "name": "A4",
                    "midi": 69,
                    "time": 193.1508239999992,
                    "velocity": 0.3937007874015748,
                    "duration": 0.3424660000000017
                },
                {
                    "name": "C5",
                    "midi": 72,
                    "time": 193.4932899999992,
                    "velocity": 0.3937007874015748,
                    "duration": 0.08561649999998622
                },
                {
                    "name": "E5",
                    "midi": 76,
                    "time": 193.83575599999918,
                    "velocity": 0.47244094488188976,
                    "duration": 0.6849320000000034
                },
                {
                    "name": "D5",
                    "midi": 74,
                    "time": 194.52068799999918,
                    "velocity": 0.3779527559055118,
                    "duration": 0.3424660000000017
                },
                {
                    "name": "G4",
                    "midi": 67,
                    "time": 194.86315399999918,
                    "velocity": 0.33858267716535434,
                    "duration": 0.08561649999998622
                },
                {
                    "name": "C5",
                    "midi": 72,
                    "time": 195.20561999999916,
                    "velocity": 0.3700787401574803,
                    "duration": 0.3424660000000017
                },
                {
                    "name": "F#4",
                    "midi": 66,
                    "time": 195.54808599999916,
                    "velocity": 0.33858267716535434,
                    "duration": 0.08561649999998622
                },
                {
                    "name": "A4",
                    "midi": 69,
                    "time": 195.89055199999913,
                    "velocity": 0.33858267716535434,
                    "duration": 0.6849320000000034
                },
                {
                    "name": "G4",
                    "midi": 67,
                    "time": 196.57548399999914,
                    "velocity": 0.3228346456692913,
                    "duration": 0.3424660000000017
                },
                {
                    "name": "D5",
                    "midi": 74,
                    "time": 197.26041599999914,
                    "velocity": 0.3700787401574803,
                    "duration": 0.3424660000000017
                },
                {
                    "name": "B4",
                    "midi": 71,
                    "time": 197.60288199999914,
                    "velocity": 0.33858267716535434,
                    "duration": 0.17123300000000086
                },
                {
                    "name": "B4",
                    "midi": 71,
                    "time": 197.94534799999914,
                    "velocity": 0.33858267716535434,
                    "duration": 0.17123300000000086
                },
                {
                    "name": "B4",
                    "midi": 71,
                    "time": 198.28781399999914,
                    "velocity": 0.28346456692913385,
                    "duration": 0.0342465999999888
                },
                {
                    "name": "C5",
                    "midi": 72,
                    "time": 198.32206059999913,
                    "velocity": 0.28346456692913385,
                    "duration": 0.0342465999999888
                },
                {
                    "name": "B4",
                    "midi": 71,
                    "time": 198.35630719999912,
                    "velocity": 0.28346456692913385,
                    "duration": 0.0342465999999888
                },
                {
                    "name": "C5",
                    "midi": 72,
                    "time": 198.3905537999991,
                    "velocity": 0.28346456692913385,
                    "duration": 0.0342465999999888
                },
                {
                    "name": "B4",
                    "midi": 71,
                    "time": 198.4248003999991,
                    "velocity": 0.28346456692913385,
                    "duration": 0.0342465999999888
                },
                {
                    "name": "A4",
                    "midi": 69,
                    "time": 198.4590469999991,
                    "velocity": 0.3228346456692913,
                    "duration": 0.08561649999998622
                },
                {
                    "name": "B4",
                    "midi": 71,
                    "time": 198.54466349999907,
                    "velocity": 0.3228346456692913,
                    "duration": 0.08561649999998622
                },
                {
                    "name": "D5",
                    "midi": 74,
                    "time": 198.63027999999906,
                    "velocity": 0.3858267716535433,
                    "duration": 0.3424660000000017
                },
                {
                    "name": "C5",
                    "midi": 72,
                    "time": 198.97274599999906,
                    "velocity": 0.33858267716535434,
                    "duration": 0.08561649999998622
                },
                {
                    "name": "A4",
                    "midi": 69,
                    "time": 199.31521199999904,
                    "velocity": 0.33858267716535434,
                    "duration": 0.6849320000000034
                },
                {
                    "name": "C5",
                    "midi": 72,
                    "time": 200.00014399999904,
                    "velocity": 0.4015748031496063,
                    "duration": 0.3424660000000017
                },
                {
                    "name": "B4",
                    "midi": 71,
                    "time": 200.34260999999904,
                    "velocity": 0.3464566929133858,
                    "duration": 0.08561649999998622
                },
                {
                    "name": "D5",
                    "midi": 74,
                    "time": 200.68507599999901,
                    "velocity": 0.41732283464566927,
                    "duration": 0.3424660000000017
                },
                {
                    "name": "C5",
                    "midi": 72,
                    "time": 201.02754199999902,
                    "velocity": 0.33858267716535434,
                    "duration": 0.08561649999998622
                },
                {
                    "name": "E5",
                    "midi": 76,
                    "time": 201.370007999999,
                    "velocity": 0.47244094488188976,
                    "duration": 0.6849320000000034
                },
                {
                    "name": "D5",
                    "midi": 74,
                    "time": 202.054939999999,
                    "velocity": 0.3858267716535433,
                    "duration": 0.3424660000000017
                },
                {
                    "name": "D5",
                    "midi": 74,
                    "time": 202.739871999999,
                    "velocity": 0.4251968503937008,
                    "duration": 0.3424660000000017
                },
                {
                    "name": "C5",
                    "midi": 72,
                    "time": 203.082337999999,
                    "velocity": 0.3700787401574803,
                    "duration": 0.08561649999998622
                },
                {
                    "name": "E5",
                    "midi": 76,
                    "time": 203.42480399999897,
                    "velocity": 0.4330708661417323,
                    "duration": 0.3424660000000017
                },
                {
                    "name": "D5",
                    "midi": 74,
                    "time": 203.76726999999897,
                    "velocity": 0.33858267716535434,
                    "duration": 0.08561649999998622
                },
                {
                    "name": "F5",
                    "midi": 77,
                    "time": 204.10973599999895,
                    "velocity": 0.48031496062992124,
                    "duration": 0.6849320000000034
                },
                {
                    "name": "E5",
                    "midi": 76,
                    "time": 204.79466799999895,
                    "velocity": 0.4015748031496063,
                    "duration": 0.3424660000000017
                },
                {
                    "name": "E5",
                    "midi": 76,
                    "time": 205.47959999999895,
                    "velocity": 0.4409448818897638,
                    "duration": 0.3424660000000017
                },
                {
                    "name": "D5",
                    "midi": 74,
                    "time": 205.82206599999896,
                    "velocity": 0.3858267716535433,
                    "duration": 0.08561649999998622
                },
                {
                    "name": "F5",
                    "midi": 77,
                    "time": 206.16453199999893,
                    "velocity": 0.44881889763779526,
                    "duration": 0.3424660000000017
                },
                {
                    "name": "E5",
                    "midi": 76,
                    "time": 206.50699799999893,
                    "velocity": 0.3700787401574803,
                    "duration": 0.08561649999998622
                },
                {
                    "name": "G5",
                    "midi": 79,
                    "time": 206.8494639999989,
                    "velocity": 0.5039370078740157,
                    "duration": 0.6849320000000034
                },
                {
                    "name": "F5",
                    "midi": 77,
                    "time": 207.5343959999989,
                    "velocity": 0.4251968503937008,
                    "duration": 0.3424660000000017
                },
                {
                    "name": "E5",
                    "midi": 76,
                    "time": 208.2193279999989,
                    "velocity": 0.4409448818897638,
                    "duration": 0.5136990000000026
                },
                {
                    "name": "F5",
                    "midi": 77,
                    "time": 208.7330269999989,
                    "velocity": 0.41732283464566927,
                    "duration": 0.08561649999998622
                },
                {
                    "name": "G5",
                    "midi": 79,
                    "time": 208.8186434999989,
                    "velocity": 0.41732283464566927,
                    "duration": 0.08561649999998622
                },
                {
                    "name": "F5",
                    "midi": 77,
                    "time": 208.90425999999889,
                    "velocity": 0.4409448818897638,
                    "duration": 0.3424660000000017
                },
                {
                    "name": "E5",
                    "midi": 76,
                    "time": 209.2467259999989,
                    "velocity": 0.4409448818897638,
                    "duration": 0.17123300000000086
                },
                {
                    "name": "D5",
                    "midi": 74,
                    "time": 209.5891919999989,
                    "velocity": 0.4330708661417323,
                    "duration": 0.6849320000000034
                },
                {
                    "name": "G5",
                    "midi": 79,
                    "time": 210.6165899999989,
                    "velocity": 0.5039370078740157,
                    "duration": 0.17123300000000086
                },
                {
                    "name": "F5",
                    "midi": 77,
                    "time": 210.9590559999989,
                    "velocity": 0.49606299212598426,
                    "duration": 0.3424660000000017
                },
                {
                    "name": "D#5",
                    "midi": 75,
                    "time": 211.3015219999989,
                    "velocity": 0.3464566929133858,
                    "duration": 0.3424660000000017
                },
                {
                    "name": "C5",
                    "midi": 72,
                    "time": 211.9864539999989,
                    "velocity": 0.33858267716535434,
                    "duration": 0.17123300000000086
                },
                {
                    "name": "B4",
                    "midi": 71,
                    "time": 212.3289199999989,
                    "velocity": 0.3937007874015748,
                    "duration": 0.3424660000000017
                },
                {
                    "name": "D5",
                    "midi": 74,
                    "time": 212.6713859999989,
                    "velocity": 0.3700787401574803,
                    "duration": 0.3424660000000017
                },
                {
                    "name": "G5",
                    "midi": 79,
                    "time": 213.3563179999989,
                    "velocity": 0.5039370078740157,
                    "duration": 0.17123300000000086
                },
                {
                    "name": "F5",
                    "midi": 77,
                    "time": 214.0412499999989,
                    "velocity": 0.3700787401574803,
                    "duration": 0.17123300000000086
                },
                {
                    "name": "D#5",
                    "midi": 75,
                    "time": 214.2124829999989,
                    "velocity": 0.3700787401574803,
                    "duration": 0.17123300000000086
                },
                {
                    "name": "D5",
                    "midi": 74,
                    "time": 214.72618199999891,
                    "velocity": 0.33858267716535434,
                    "duration": 0.17123300000000086
                },
                {
                    "name": "C5",
                    "midi": 72,
                    "time": 214.89741499999892,
                    "velocity": 0.33858267716535434,
                    "duration": 0.17123300000000086
                },
                {
                    "name": "B4",
                    "midi": 71,
                    "time": 215.06864799999892,
                    "velocity": 0.4015748031496063,
                    "duration": 0.3424660000000017
                },
                {
                    "name": "D5",
                    "midi": 74,
                    "time": 215.41111399999892,
                    "velocity": 0.33858267716535434,
                    "duration": 0.3424660000000017
                },
                {
                    "name": "G5",
                    "midi": 79,
                    "time": 215.92481299999892,
                    "velocity": 0.48031496062992124,
                    "duration": 0.17123300000000086
                },
                {
                    "name": "F#5",
                    "midi": 78,
                    "time": 216.09604599999892,
                    "velocity": 0.4881889763779528,
                    "duration": 0.17123300000000086
                },
                {
                    "name": "G5",
                    "midi": 79,
                    "time": 216.26727899999892,
                    "velocity": 0.48031496062992124,
                    "duration": 0.17123300000000086
                },
                {
                    "name": "D#5",
                    "midi": 75,
                    "time": 216.60974499999892,
                    "velocity": 0.44881889763779526,
                    "duration": 0.17123300000000086
                },
                {
                    "name": "D5",
                    "midi": 74,
                    "time": 216.78097799999892,
                    "velocity": 0.47244094488188976,
                    "duration": 0.17123300000000086
                },
                {
                    "name": "D#5",
                    "midi": 75,
                    "time": 216.95221099999893,
                    "velocity": 0.4566929133858268,
                    "duration": 0.17123300000000086
                },
                {
                    "name": "C5",
                    "midi": 72,
                    "time": 217.29467699999893,
                    "velocity": 0.4330708661417323,
                    "duration": 0.17123300000000086
                },
                {
                    "name": "B4",
                    "midi": 71,
                    "time": 217.46590999999893,
                    "velocity": 0.44881889763779526,
                    "duration": 0.17123300000000086
                },
                {
                    "name": "C5",
                    "midi": 72,
                    "time": 217.63714299999893,
                    "velocity": 0.4409448818897638,
                    "duration": 0.17123300000000086
                },
                {
                    "name": "B4",
                    "midi": 71,
                    "time": 217.80837599999893,
                    "velocity": 0.5039370078740157,
                    "duration": 0.3424660000000017
                },
                {
                    "name": "D5",
                    "midi": 74,
                    "time": 218.15084199999893,
                    "velocity": 0.4409448818897638,
                    "duration": 0.08561649999998622
                },
                {
                    "name": "B4",
                    "midi": 71,
                    "time": 218.4933079999989,
                    "velocity": 0.4881889763779528,
                    "duration": 0.3424660000000017
                },
                {
                    "name": "D5",
                    "midi": 74,
                    "time": 218.8357739999989,
                    "velocity": 0.4409448818897638,
                    "duration": 0.08561649999998622
                },
                {
                    "name": "B4",
                    "midi": 71,
                    "time": 219.17823999999888,
                    "velocity": 0.4881889763779528,
                    "duration": 0.3424660000000017
                },
                {
                    "name": "D5",
                    "midi": 74,
                    "time": 219.52070599999888,
                    "velocity": 0.4251968503937008,
                    "duration": 0.08561649999998622
                },
                {
                    "name": "D5",
                    "midi": 74,
                    "time": 220.54810399999886,
                    "velocity": 0.29133858267716534,
                    "duration": 0.3424660000000017
                },
                {
                    "name": "F5",
                    "midi": 77,
                    "time": 220.89056999999886,
                    "velocity": 0.2677165354330709,
                    "duration": 0.08561649999998622
                },
                {
                    "name": "D5",
                    "midi": 74,
                    "time": 221.23303599999883,
                    "velocity": 0.29133858267716534,
                    "duration": 0.3424660000000017
                },
                {
                    "name": "F5",
                    "midi": 77,
                    "time": 221.57550199999883,
                    "velocity": 0.2677165354330709,
                    "duration": 0.08561649999998622
                },
                {
                    "name": "D5",
                    "midi": 74,
                    "time": 221.9179679999988,
                    "velocity": 0.29133858267716534,
                    "duration": 0.3424660000000017
                },
                {
                    "name": "F5",
                    "midi": 77,
                    "time": 222.2604339999988,
                    "velocity": 0.2755905511811024,
                    "duration": 0.08561649999998622
                },
                {
                    "name": "E5",
                    "midi": 76,
                    "time": 223.28925894166545,
                    "velocity": 0.47244094488188976,
                    "duration": 0.5122720583333376
                },
                {
                    "name": "F5",
                    "midi": 77,
                    "time": 223.8015309999988,
                    "velocity": 0.4251968503937008,
                    "duration": 0.08561649999998622
                },
                {
                    "name": "G5",
                    "midi": 79,
                    "time": 223.88714749999878,
                    "velocity": 0.4251968503937008,
                    "duration": 0.08561649999998622
                },
                {
                    "name": "C5",
                    "midi": 72,
                    "time": 223.97276399999876,
                    "velocity": 0.47244094488188976,
                    "duration": 0.3424660000000017
                },
                {
                    "name": "B4",
                    "midi": 71,
                    "time": 224.31522999999876,
                    "velocity": 0.3858267716535433,
                    "duration": 0.3424660000000017
                },
                {
                    "name": "D5",
                    "midi": 74,
                    "time": 224.31522999999876,
                    "velocity": 0.3858267716535433,
                    "duration": 0.3424660000000017
                },
                {
                    "name": "B4",
                    "midi": 71,
                    "time": 224.65769599999877,
                    "velocity": 0.41732283464566927,
                    "duration": 0.3424659999999733
                },
                {
                    "name": "D5",
                    "midi": 74,
                    "time": 224.65769599999877,
                    "velocity": 0.41732283464566927,
                    "duration": 0.2568494999999871
                },
                {
                    "name": "F5",
                    "midi": 77,
                    "time": 224.91454549999875,
                    "velocity": 0.3779527559055118,
                    "duration": 0.08561649999998622
                },
                {
                    "name": "E5",
                    "midi": 76,
                    "time": 225.00016199999874,
                    "velocity": 0.41732283464566927,
                    "duration": 0.3424660000000017
                },
                {
                    "name": "C5",
                    "midi": 72,
                    "time": 225.00016199999874,
                    "velocity": 0.41732283464566927,
                    "duration": 0.3424660000000017
                },
                {
                    "name": "B4",
                    "midi": 71,
                    "time": 225.34262799999874,
                    "velocity": 0.3937007874015748,
                    "duration": 0.6849320000000034
                },
                {
                    "name": "D5",
                    "midi": 74,
                    "time": 225.34262799999874,
                    "velocity": 0.3937007874015748,
                    "duration": 0.6849320000000034
                },
                {
                    "name": "E5",
                    "midi": 76,
                    "time": 226.02755999999874,
                    "velocity": 0.47244094488188976,
                    "duration": 0.5136990000000026
                },
                {
                    "name": "F5",
                    "midi": 77,
                    "time": 226.54125899999875,
                    "velocity": 0.4409448818897638,
                    "duration": 0.08561649999998622
                },
                {
                    "name": "G5",
                    "midi": 79,
                    "time": 226.62687549999873,
                    "velocity": 0.4409448818897638,
                    "duration": 0.08561649999998622
                },
                {
                    "name": "C5",
                    "midi": 72,
                    "time": 226.71249199999872,
                    "velocity": 0.48031496062992124,
                    "duration": 0.3424660000000017
                },
                {
                    "name": "D5",
                    "midi": 74,
                    "time": 227.05495799999872,
                    "velocity": 0.3858267716535433,
                    "duration": 0.17123300000000086
                },
                {
                    "name": "B4",
                    "midi": 71,
                    "time": 227.05495799999872,
                    "velocity": 0.3858267716535433,
                    "duration": 0.17123300000000086
                },
                {
                    "name": "D5",
                    "midi": 74,
                    "time": 227.39742399999872,
                    "velocity": 0.4251968503937008,
                    "duration": 0.3424660000000017
                },
                {
                    "name": "F5",
                    "midi": 77,
                    "time": 227.39742399999872,
                    "velocity": 0.4251968503937008,
                    "duration": 0.3424660000000017
                },
                {
                    "name": "E5",
                    "midi": 76,
                    "time": 227.73988999999872,
                    "velocity": 0.3858267716535433,
                    "duration": 0.06849320000000603
                },
                {
                    "name": "C5",
                    "midi": 72,
                    "time": 227.73988999999872,
                    "velocity": 0.3858267716535433,
                    "duration": 0.34246600000003014
                },
                {
                    "name": "F5",
                    "midi": 77,
                    "time": 227.80838319999873,
                    "velocity": 0.3858267716535433,
                    "duration": 0.06849320000000603
                },
                {
                    "name": "E5",
                    "midi": 76,
                    "time": 227.87687639999874,
                    "velocity": 0.3858267716535433,
                    "duration": 0.06849320000000603
                },
                {
                    "name": "F5",
                    "midi": 77,
                    "time": 227.94536959999874,
                    "velocity": 0.3858267716535433,
                    "duration": 0.06849320000000603
                },
                {
                    "name": "E5",
                    "midi": 76,
                    "time": 228.01386279999875,
                    "velocity": 0.3858267716535433,
                    "duration": 0.06849320000000603
                },
                {
                    "name": "B4",
                    "midi": 71,
                    "time": 228.08235599999875,
                    "velocity": 0.4094488188976378,
                    "duration": 0.6849320000000034
                },
                {
                    "name": "D5",
                    "midi": 74,
                    "time": 228.08235599999875,
                    "velocity": 0.4094488188976378,
                    "duration": 0.6849320000000034
                },
                {
                    "name": "F5",
                    "midi": 77,
                    "time": 228.76728799999876,
                    "velocity": 0.5039370078740157,
                    "duration": 0.5136990000000026
                },
                {
                    "name": "G5",
                    "midi": 79,
                    "time": 229.28098699999876,
                    "velocity": 0.47244094488188976,
                    "duration": 0.08561649999998622
                },
                {
                    "name": "F5",
                    "midi": 77,
                    "time": 229.36660349999875,
                    "velocity": 0.47244094488188976,
                    "duration": 0.08561649999998622
                },
                {
                    "name": "E5",
                    "midi": 76,
                    "time": 229.45221999999873,
                    "velocity": 0.5039370078740157,
                    "duration": 0.3424660000000017
                },
                {
                    "name": "E5",
                    "midi": 76,
                    "time": 229.79468599999873,
                    "velocity": 0.4881889763779528,
                    "duration": 0.17123300000000086
                },
                {
                    "name": "A5",
                    "midi": 81,
                    "time": 230.13715199999874,
                    "velocity": 0.5433070866141733,
                    "duration": 0.5136990000000026
                },
                {
                    "name": "B5",
                    "midi": 83,
                    "time": 230.65085099999874,
                    "velocity": 0.49606299212598426,
                    "duration": 0.08561649999998622
                },
                {
                    "name": "C6",
                    "midi": 84,
                    "time": 230.73646749999872,
                    "velocity": 0.49606299212598426,
                    "duration": 0.08561649999998622
                },
                {
                    "name": "G5",
                    "midi": 79,
                    "time": 230.8220839999987,
                    "velocity": 0.5433070866141733,
                    "duration": 0.3424660000000017
                },
                {
                    "name": "G5",
                    "midi": 79,
                    "time": 231.1645499999987,
                    "velocity": 0.5433070866141733,
                    "duration": 0.17123300000000086
                },
                {
                    "name": "G5",
                    "midi": 79,
                    "time": 231.5070159999987,
                    "velocity": 0.5354330708661418,
                    "duration": 0.17123300000000086
                },
                {
                    "name": "F5",
                    "midi": 77,
                    "time": 231.67824899999871,
                    "velocity": 0.49606299212598426,
                    "duration": 0.12842474999999354
                },
                {
                    "name": "F5",
                    "midi": 77,
                    "time": 231.84948199999872,
                    "velocity": 0.5039370078740157,
                    "duration": 0.17123300000000086
                },
                {
                    "name": "D5",
                    "midi": 74,
                    "time": 232.02071499999872,
                    "velocity": 0.49606299212598426,
                    "duration": 0.12842474999999354
                },
                {
                    "name": "F5",
                    "midi": 77,
                    "time": 232.19194799999872,
                    "velocity": 0.5433070866141733,
                    "duration": 0.17123300000000086
                },
                {
                    "name": "E5",
                    "midi": 76,
                    "time": 232.36318099999872,
                    "velocity": 0.5039370078740157,
                    "duration": 0.12842474999999354
                },
                {
                    "name": "E5",
                    "midi": 76,
                    "time": 232.53441399999872,
                    "velocity": 0.5196850393700787,
                    "duration": 0.17123300000000086
                },
                {
                    "name": "C5",
                    "midi": 72,
                    "time": 232.70564699999872,
                    "velocity": 0.5039370078740157,
                    "duration": 0.12842474999999354
                },
                {
                    "name": "C#5",
                    "midi": 73,
                    "time": 232.87687999999872,
                    "velocity": 0.5039370078740157,
                    "duration": 0.17123300000000086
                },
                {
                    "name": "D5",
                    "midi": 74,
                    "time": 233.04811299999872,
                    "velocity": 0.47244094488188976,
                    "duration": 0.17123300000000086
                },
                {
                    "name": "E5",
                    "midi": 76,
                    "time": 233.21934599999872,
                    "velocity": 0.5039370078740157,
                    "duration": 0.17123300000000086
                },
                {
                    "name": "D5",
                    "midi": 74,
                    "time": 233.39057899999872,
                    "velocity": 0.4881889763779528,
                    "duration": 0.17123300000000086
                },
                {
                    "name": "C5",
                    "midi": 72,
                    "time": 233.56181199999872,
                    "velocity": 0.49606299212598426,
                    "duration": 0.17123300000000086
                },
                {
                    "name": "B4",
                    "midi": 71,
                    "time": 233.73304499999873,
                    "velocity": 0.48031496062992124,
                    "duration": 0.17123300000000086
                },
                {
                    "name": "A4",
                    "midi": 69,
                    "time": 233.90427799999873,
                    "velocity": 0.48031496062992124,
                    "duration": 0.17123300000000086
                },
                {
                    "name": "G4",
                    "midi": 67,
                    "time": 234.07551099999873,
                    "velocity": 0.47244094488188976,
                    "duration": 0.17123300000000086
                },
                {
                    "name": "E5",
                    "midi": 76,
                    "time": 234.24674399999873,
                    "velocity": 0.5511811023622047,
                    "duration": 0.5136990000000026
                },
                {
                    "name": "F5",
                    "midi": 77,
                    "time": 234.76044299999873,
                    "velocity": 0.5039370078740157,
                    "duration": 0.08561649999998622
                },
                {
                    "name": "G5",
                    "midi": 79,
                    "time": 234.84605949999872,
                    "velocity": 0.5039370078740157,
                    "duration": 0.08561649999998622
                },
                {
                    "name": "C5",
                    "midi": 72,
                    "time": 234.9316759999987,
                    "velocity": 0.5511811023622047,
                    "duration": 0.3424660000000017
                },
                {
                    "name": "D5",
                    "midi": 74,
                    "time": 235.2741419999987,
                    "velocity": 0.47244094488188976,
                    "duration": 0.3424660000000017
                },
                {
                    "name": "B4",
                    "midi": 71,
                    "time": 235.2741419999987,
                    "velocity": 0.47244094488188976,
                    "duration": 0.3424660000000017
                },
                {
                    "name": "D5",
                    "midi": 74,
                    "time": 235.6166079999987,
                    "velocity": 0.49606299212598426,
                    "duration": 0.2568494999999871
                },
                {
                    "name": "B4",
                    "midi": 71,
                    "time": 235.6166079999987,
                    "velocity": 0.49606299212598426,
                    "duration": 0.3424659999999733
                },
                {
                    "name": "F5",
                    "midi": 77,
                    "time": 235.8734574999987,
                    "velocity": 0.44881889763779526,
                    "duration": 0.08561649999998622
                },
                {
                    "name": "C5",
                    "midi": 72,
                    "time": 235.95907399999868,
                    "velocity": 0.49606299212598426,
                    "duration": 0.3424660000000017
                },
                {
                    "name": "E5",
                    "midi": 76,
                    "time": 235.95907399999868,
                    "velocity": 0.49606299212598426,
                    "duration": 0.3424660000000017
                },
                {
                    "name": "B4",
                    "midi": 71,
                    "time": 236.30153999999868,
                    "velocity": 0.48031496062992124,
                    "duration": 0.6849320000000034
                },
                {
                    "name": "D5",
                    "midi": 74,
                    "time": 236.30153999999868,
                    "velocity": 0.48031496062992124,
                    "duration": 0.6849320000000034
                },
                {
                    "name": "E5",
                    "midi": 76,
                    "time": 236.98647199999868,
                    "velocity": 0.5511811023622047,
                    "duration": 0.5136990000000026
                },
                {
                    "name": "F5",
                    "midi": 77,
                    "time": 237.5001709999987,
                    "velocity": 0.5275590551181102,
                    "duration": 0.08561649999998622
                },
                {
                    "name": "G5",
                    "midi": 79,
                    "time": 237.58578749999867,
                    "velocity": 0.5275590551181102,
                    "duration": 0.08561649999998622
                },
                {
                    "name": "C5",
                    "midi": 72,
                    "time": 237.67140399999866,
                    "velocity": 0.5590551181102362,
                    "duration": 0.3424660000000017
                },
                {
                    "name": "D5",
                    "midi": 74,
                    "time": 238.01386999999866,
                    "velocity": 0.47244094488188976,
                    "duration": 0.17123300000000086
                },
                {
                    "name": "B4",
                    "midi": 71,
                    "time": 238.01386999999866,
                    "velocity": 0.47244094488188976,
                    "duration": 0.17123300000000086
                },
                {
                    "name": "F5",
                    "midi": 77,
                    "time": 238.35633599999866,
                    "velocity": 0.5039370078740157,
                    "duration": 0.3424660000000017
                },
                {
                    "name": "D5",
                    "midi": 74,
                    "time": 238.35633599999866,
                    "velocity": 0.5039370078740157,
                    "duration": 0.3424660000000017
                },
                {
                    "name": "C5",
                    "midi": 72,
                    "time": 238.69880199999866,
                    "velocity": 0.47244094488188976,
                    "duration": 0.34246600000003014
                },
                {
                    "name": "E5",
                    "midi": 76,
                    "time": 238.69880199999866,
                    "velocity": 0.47244094488188976,
                    "duration": 0.06849320000000603
                },
                {
                    "name": "F5",
                    "midi": 77,
                    "time": 238.76729519999867,
                    "velocity": 0.47244094488188976,
                    "duration": 0.06849320000000603
                },
                {
                    "name": "E5",
                    "midi": 76,
                    "time": 238.83578839999868,
                    "velocity": 0.47244094488188976,
                    "duration": 0.06849320000000603
                },
                {
                    "name": "F5",
                    "midi": 77,
                    "time": 238.90428159999868,
                    "velocity": 0.47244094488188976,
                    "duration": 0.06849320000000603
                },
                {
                    "name": "E5",
                    "midi": 76,
                    "time": 238.9727747999987,
                    "velocity": 0.47244094488188976,
                    "duration": 0.06849320000000603
                },
                {
                    "name": "B4",
                    "midi": 71,
                    "time": 239.0412679999987,
                    "velocity": 0.4881889763779528,
                    "duration": 0.6849320000000034
                },
                {
                    "name": "D5",
                    "midi": 74,
                    "time": 239.0412679999987,
                    "velocity": 0.4881889763779528,
                    "duration": 0.6849320000000034
                },
                {
                    "name": "F5",
                    "midi": 77,
                    "time": 239.7261999999987,
                    "velocity": 0.6062992125984252,
                    "duration": 0.5136990000000026
                },
                {
                    "name": "G5",
                    "midi": 79,
                    "time": 240.2398989999987,
                    "velocity": 0.5511811023622047,
                    "duration": 0.08561649999998622
                },
                {
                    "name": "F5",
                    "midi": 77,
                    "time": 240.3255154999987,
                    "velocity": 0.5511811023622047,
                    "duration": 0.08561649999998622
                },
                {
                    "name": "E5",
                    "midi": 76,
                    "time": 240.41113199999867,
                    "velocity": 0.6062992125984252,
                    "duration": 0.3424660000000017
                },
                {
                    "name": "E5",
                    "midi": 76,
                    "time": 240.75359799999868,
                    "velocity": 0.5826771653543307,
                    "duration": 0.17123300000000086
                },
                {
                    "name": "A5",
                    "midi": 81,
                    "time": 241.09606399999868,
                    "velocity": 0.6141732283464567,
                    "duration": 0.5136990000000026
                },
                {
                    "name": "B5",
                    "midi": 83,
                    "time": 241.60976299999868,
                    "velocity": 0.5590551181102362,
                    "duration": 0.08561649999998622
                },
                {
                    "name": "C6",
                    "midi": 84,
                    "time": 241.69537949999867,
                    "velocity": 0.5433070866141733,
                    "duration": 0.08561649999998622
                },
                {
                    "name": "G5",
                    "midi": 79,
                    "time": 241.78099599999865,
                    "velocity": 0.6220472440944882,
                    "duration": 0.3424660000000017
                },
                {
                    "name": "G5",
                    "midi": 79,
                    "time": 242.12346199999865,
                    "velocity": 0.6062992125984252,
                    "duration": 0.17123300000000086
                },
                {
                    "name": "G#5",
                    "midi": 80,
                    "time": 242.46592799999866,
                    "velocity": 0.6062992125984252,
                    "duration": 0.17123300000000086
                },
                {
                    "name": "A5",
                    "midi": 81,
                    "time": 242.63716099999866,
                    "velocity": 0.5826771653543307,
                    "duration": 0.17123300000000086
                },
                {
                    "name": "F5",
                    "midi": 77,
                    "time": 242.80839399999866,
                    "velocity": 0.5905511811023622,
                    "duration": 0.17123300000000086
                },
                {
                    "name": "D5",
                    "midi": 74,
                    "time": 242.97962699999866,
                    "velocity": 0.5669291338582677,
                    "duration": 0.17123300000000086
                },
                {
                    "name": "C5",
                    "midi": 72,
                    "time": 243.15085999999866,
                    "velocity": 0.5905511811023622,
                    "duration": 0.3424660000000017
                },
                {
                    "name": "B4",
                    "midi": 71,
                    "time": 243.49332599999866,
                    "velocity": 0.5590551181102362,
                    "duration": 0.3424660000000017
                },
                {
                    "name": "C5",
                    "midi": 72,
                    "time": 243.83579199999866,
                    "velocity": 0.5905511811023622,
                    "duration": 0.11415533333334338
                },
                {
                    "name": "G4",
                    "midi": 67,
                    "time": 243.949947333332,
                    "velocity": 0.5433070866141733,
                    "duration": 0.11415533333334338
                },
                {
                    "name": "E5",
                    "midi": 76,
                    "time": 244.06410266666535,
                    "velocity": 0.5196850393700787,
                    "duration": 0.11415533333334338
                },
                {
                    "name": "C5",
                    "midi": 72,
                    "time": 244.1782579999987,
                    "velocity": 0.5905511811023622,
                    "duration": 0.11415533333334338
                },
                {
                    "name": "G5",
                    "midi": 79,
                    "time": 244.29241333333204,
                    "velocity": 0.5433070866141733,
                    "duration": 0.11415533333334338
                },
                {
                    "name": "E5",
                    "midi": 76,
                    "time": 244.40656866666538,
                    "velocity": 0.5196850393700787,
                    "duration": 0.11415533333334338
                },
                {
                    "name": "C6",
                    "midi": 84,
                    "time": 244.52072399999872,
                    "velocity": 0.5748031496062992,
                    "duration": 0.11415533333334338
                },
                {
                    "name": "B5",
                    "midi": 83,
                    "time": 244.63487933333207,
                    "velocity": 0.5196850393700787,
                    "duration": 0.11415533333334338
                },
                {
                    "name": "A5",
                    "midi": 81,
                    "time": 244.7490346666654,
                    "velocity": 0.5118110236220472,
                    "duration": 0.11415533333334338
                },
                {
                    "name": "G5",
                    "midi": 79,
                    "time": 244.86318999999875,
                    "velocity": 0.5511811023622047,
                    "duration": 0.11415533333334338
                },
                {
                    "name": "F5",
                    "midi": 77,
                    "time": 244.9773453333321,
                    "velocity": 0.5275590551181102,
                    "duration": 0.11415533333334338
                },
                {
                    "name": "E5",
                    "midi": 76,
                    "time": 245.09150066666544,
                    "velocity": 0.5118110236220472,
                    "duration": 0.11415533333334338
                },
                {
                    "name": "C#5",
                    "midi": 73,
                    "time": 245.20565599999878,
                    "velocity": 0.49606299212598426,
                    "duration": 0.11415533333334338
                },
                {
                    "name": "D5",
                    "midi": 74,
                    "time": 245.31981133333213,
                    "velocity": 0.47244094488188976,
                    "duration": 0.11415533333334338
                },
                {
                    "name": "F5",
                    "midi": 77,
                    "time": 245.43396666666547,
                    "velocity": 0.47244094488188976,
                    "duration": 0.11415533333334338
                },
                {
                    "name": "A5",
                    "midi": 81,
                    "time": 245.5481219999988,
                    "velocity": 0.4881889763779528,
                    "duration": 0.11415533333334338
                },
                {
                    "name": "F5",
                    "midi": 77,
                    "time": 245.66227733333216,
                    "velocity": 0.44881889763779526,
                    "duration": 0.11415533333334338
                },
                {
                    "name": "D5",
                    "midi": 74,
                    "time": 245.7764326666655,
                    "velocity": 0.44881889763779526,
                    "duration": 0.11415533333334338
                },
                {
                    "name": "G5",
                    "midi": 79,
                    "time": 245.89058799999884,
                    "velocity": 0.48031496062992124,
                    "duration": 0.11415533333334338
                },
                {
                    "name": "E5",
                    "midi": 76,
                    "time": 246.0047433333322,
                    "velocity": 0.44881889763779526,
                    "duration": 0.11415533333334338
                },
                {
                    "name": "C5",
                    "midi": 72,
                    "time": 246.11889866666553,
                    "velocity": 0.44881889763779526,
                    "duration": 0.11415533333334338
                },
                {
                    "name": "F5",
                    "midi": 77,
                    "time": 246.23305399999887,
                    "velocity": 0.48031496062992124,
                    "duration": 0.11415533333334338
                },
                {
                    "name": "D5",
                    "midi": 74,
                    "time": 246.34720933333222,
                    "velocity": 0.4330708661417323,
                    "duration": 0.11415533333334338
                },
                {
                    "name": "B4",
                    "midi": 71,
                    "time": 246.46136466666556,
                    "velocity": 0.4330708661417323,
                    "duration": 0.11415533333334338
                },
                {
                    "name": "C5",
                    "midi": 72,
                    "time": 246.5755199999989,
                    "velocity": 0.5905511811023622,
                    "duration": 0.11415533333334338
                },
                {
                    "name": "G4",
                    "midi": 67,
                    "time": 246.68967533333225,
                    "velocity": 0.5433070866141733,
                    "duration": 0.11415533333334338
                },
                {
                    "name": "E5",
                    "midi": 76,
                    "time": 246.8038306666656,
                    "velocity": 0.5275590551181102,
                    "duration": 0.11415533333334338
                },
                {
                    "name": "C5",
                    "midi": 72,
                    "time": 246.91798599999893,
                    "velocity": 0.5905511811023622,
                    "duration": 0.11415533333334338
                },
                {
                    "name": "G5",
                    "midi": 79,
                    "time": 247.03214133333228,
                    "velocity": 0.5433070866141733,
                    "duration": 0.11415533333334338
                },
                {
                    "name": "E5",
                    "midi": 76,
                    "time": 247.14629666666562,
                    "velocity": 0.5275590551181102,
                    "duration": 0.11415533333334338
                },
                {
                    "name": "C6",
                    "midi": 84,
                    "time": 247.26045199999896,
                    "velocity": 0.5748031496062992,
                    "duration": 0.11415533333334338
                },
                {
                    "name": "B5",
                    "midi": 83,
                    "time": 247.3746073333323,
                    "velocity": 0.5196850393700787,
                    "duration": 0.11415533333334338
                },
                {
                    "name": "A5",
                    "midi": 81,
                    "time": 247.48876266666565,
                    "velocity": 0.5039370078740157,
                    "duration": 0.11415533333334338
                },
                {
                    "name": "G5",
                    "midi": 79,
                    "time": 247.602917999999,
                    "velocity": 0.5511811023622047,
                    "duration": 0.11415533333334338
                },
                {
                    "name": "F5",
                    "midi": 77,
                    "time": 247.71707333333234,
                    "velocity": 0.5275590551181102,
                    "duration": 0.11415533333334338
                },
                {
                    "name": "E5",
                    "midi": 76,
                    "time": 247.83122866666568,
                    "velocity": 0.5118110236220472,
                    "duration": 0.11415533333334338
                },
                {
                    "name": "C#5",
                    "midi": 73,
                    "time": 247.94538399999902,
                    "velocity": 0.49606299212598426,
                    "duration": 0.11415533333334338
                },
                {
                    "name": "D5",
                    "midi": 74,
                    "time": 248.05953933333237,
                    "velocity": 0.47244094488188976,
                    "duration": 0.11415533333334338
                },
                {
                    "name": "F5",
                    "midi": 77,
                    "time": 248.1736946666657,
                    "velocity": 0.4645669291338583,
                    "duration": 0.11415533333334338
                },
                {
                    "name": "A5",
                    "midi": 81,
                    "time": 248.28784999999905,
                    "velocity": 0.4881889763779528,
                    "duration": 0.11415533333334338
                },
                {
                    "name": "F5",
                    "midi": 77,
                    "time": 248.4020053333324,
                    "velocity": 0.44881889763779526,
                    "duration": 0.11415533333334338
                },
                {
                    "name": "D5",
                    "midi": 74,
                    "time": 248.51616066666574,
                    "velocity": 0.4330708661417323,
                    "duration": 0.11415533333334338
                },
                {
                    "name": "G5",
                    "midi": 79,
                    "time": 248.63031599999908,
                    "velocity": 0.48031496062992124,
                    "duration": 0.11415533333334338
                },
                {
                    "name": "E5",
                    "midi": 76,
                    "time": 248.74447133333243,
                    "velocity": 0.44881889763779526,
                    "duration": 0.11415533333334338
                },
                {
                    "name": "C5",
                    "midi": 72,
                    "time": 248.85862666666577,
                    "velocity": 0.4251968503937008,
                    "duration": 0.11415533333334338
                },
                {
                    "name": "F5",
                    "midi": 77,
                    "time": 248.9727819999991,
                    "velocity": 0.48031496062992124,
                    "duration": 0.11415533333334338
                },
                {
                    "name": "D5",
                    "midi": 74,
                    "time": 249.08693733333246,
                    "velocity": 0.4330708661417323,
                    "duration": 0.11415533333334338
                },
                {
                    "name": "B4",
                    "midi": 71,
                    "time": 249.2010926666658,
                    "velocity": 0.4330708661417323,
                    "duration": 0.11415533333334338
                },
                {
                    "name": "C5",
                    "midi": 72,
                    "time": 249.31524799999914,
                    "velocity": 0.4094488188976378,
                    "duration": 0.08561649999998622
                },
                {
                    "name": "G4",
                    "midi": 67,
                    "time": 249.65771399999912,
                    "velocity": 0.3937007874015748,
                    "duration": 0.08561649999998622
                },
                {
                    "name": "C4",
                    "midi": 60,
                    "time": 250.0001799999991,
                    "velocity": 0.3937007874015748,
                    "duration": 0.6849320000000034
                },
                {
                    "name": "E5",
                    "midi": 76,
                    "time": 250.6851119999991,
                    "velocity": 0.3937007874015748,
                    "duration": 0.6849320000000034
                },
                {
                    "name": "F5",
                    "midi": 77,
                    "time": 251.3700439999991,
                    "velocity": 0.36220472440944884,
                    "duration": 0.08561649999998622
                },
                {
                    "name": "E5",
                    "midi": 76,
                    "time": 251.45566049999908,
                    "velocity": 0.36220472440944884,
                    "duration": 0.08561649999998622
                },
                {
                    "name": "D5",
                    "midi": 74,
                    "time": 251.54127699999907,
                    "velocity": 0.36220472440944884,
                    "duration": 0.08561649999998622
                },
                {
                    "name": "E5",
                    "midi": 76,
                    "time": 251.62689349999906,
                    "velocity": 0.36220472440944884,
                    "duration": 0.08561649999998622
                },
                {
                    "name": "G5",
                    "midi": 79,
                    "time": 251.71250999999904,
                    "velocity": 0.3937007874015748,
                    "duration": 0.17123300000000086
                },
                {
                    "name": "F5",
                    "midi": 77,
                    "time": 251.88374299999904,
                    "velocity": 0.36220472440944884,
                    "duration": 0.17123300000000086
                },
                {
                    "name": "E5",
                    "midi": 76,
                    "time": 252.05497599999904,
                    "velocity": 0.4015748031496063,
                    "duration": 0.17123300000000086
                },
                {
                    "name": "D5",
                    "midi": 74,
                    "time": 252.22620899999905,
                    "velocity": 0.3858267716535433,
                    "duration": 0.17123300000000086
                },
                {
                    "name": "C5",
                    "midi": 72,
                    "time": 252.39744199999905,
                    "velocity": 0.3858267716535433,
                    "duration": 0.17123300000000086
                },
                {
                    "name": "B4",
                    "midi": 71,
                    "time": 252.56867499999905,
                    "velocity": 0.3858267716535433,
                    "duration": 0.17123300000000086
                },
                {
                    "name": "C5",
                    "midi": 72,
                    "time": 252.73990799999905,
                    "velocity": 0.4094488188976378,
                    "duration": 0.08561649999998622
                },
                {
                    "name": "C#5",
                    "midi": 73,
                    "time": 253.08237399999902,
                    "velocity": 0.4330708661417323,
                    "duration": 0.08561649999998622
                },
                {
                    "name": "D5",
                    "midi": 74,
                    "time": 253.424839999999,
                    "velocity": 0.4409448818897638,
                    "duration": 0.08561649999998622
                },
                {
                    "name": "D#5",
                    "midi": 75,
                    "time": 253.76730599999897,
                    "velocity": 0.47244094488188976,
                    "duration": 0.08561649999998622
                },
                {
                    "name": "E5",
                    "midi": 76,
                    "time": 254.10977199999894,
                    "velocity": 0.49606299212598426,
                    "duration": 0.08561649999998622
                },
                {
                    "name": "G5",
                    "midi": 79,
                    "time": 254.4522379999989,
                    "velocity": 0.4881889763779528,
                    "duration": 0.17123300000000086
                },
                {
                    "name": "F5",
                    "midi": 77,
                    "time": 254.62347099999891,
                    "velocity": 0.44881889763779526,
                    "duration": 0.17123300000000086
                },
                {
                    "name": "E5",
                    "midi": 76,
                    "time": 254.79470399999892,
                    "velocity": 0.4881889763779528,
                    "duration": 0.5136990000000026
                },
                {
                    "name": "F5",
                    "midi": 77,
                    "time": 255.30840299999892,
                    "velocity": 0.4330708661417323,
                    "duration": 0.08561649999998622
                },
                {
                    "name": "E5",
                    "midi": 76,
                    "time": 255.3940194999989,
                    "velocity": 0.4330708661417323,
                    "duration": 0.08561649999998622
                },
                {
                    "name": "D5",
                    "midi": 74,
                    "time": 255.4796359999989,
                    "velocity": 0.4409448818897638,
                    "duration": 0.3424660000000017
                },
                {
                    "name": "F5",
                    "midi": 77,
                    "time": 256.1645679999989,
                    "velocity": 0.4566929133858268,
                    "duration": 0.6849320000000034
                },
                {
                    "name": "G5",
                    "midi": 79,
                    "time": 256.8494999999989,
                    "velocity": 0.3779527559055118,
                    "duration": 0.08561650000001464
                },
                {
                    "name": "F5",
                    "midi": 77,
                    "time": 256.9351164999989,
                    "velocity": 0.3858267716535433,
                    "duration": 0.08561650000001464
                },
                {
                    "name": "E5",
                    "midi": 76,
                    "time": 257.0207329999989,
                    "velocity": 0.3858267716535433,
                    "duration": 0.08561650000001464
                },
                {
                    "name": "F5",
                    "midi": 77,
                    "time": 257.10634949999894,
                    "velocity": 0.3858267716535433,
                    "duration": 0.08561650000001464
                },
                {
                    "name": "A5",
                    "midi": 81,
                    "time": 257.19196599999896,
                    "velocity": 0.4330708661417323,
                    "duration": 0.17123299999997244
                },
                {
                    "name": "G5",
                    "midi": 79,
                    "time": 257.36319899999893,
                    "velocity": 0.4094488188976378,
                    "duration": 0.17123299999997244
                },
                {
                    "name": "F5",
                    "midi": 77,
                    "time": 257.5344319999989,
                    "velocity": 0.4094488188976378,
                    "duration": 0.17123299999997244
                },
                {
                    "name": "E5",
                    "midi": 76,
                    "time": 257.7056649999989,
                    "velocity": 0.3937007874015748,
                    "duration": 0.17123299999997244
                },
                {
                    "name": "D5",
                    "midi": 74,
                    "time": 257.87689799999885,
                    "velocity": 0.3937007874015748,
                    "duration": 0.17123299999997244
                },
                {
                    "name": "C5",
                    "midi": 72,
                    "time": 258.0481309999988,
                    "velocity": 0.3937007874015748,
                    "duration": 0.17123299999997244
                },
                {
                    "name": "B4",
                    "midi": 71,
                    "time": 258.2193639999988,
                    "velocity": 0.3858267716535433,
                    "duration": 0.17123299999997244
                },
                {
                    "name": "C5",
                    "midi": 72,
                    "time": 258.39059699999876,
                    "velocity": 0.3937007874015748,
                    "duration": 0.08561650000001464
                },
                {
                    "name": "D5",
                    "midi": 74,
                    "time": 258.5618299999988,
                    "velocity": 0.4015748031496063,
                    "duration": 0.08561650000001464
                },
                {
                    "name": "E5",
                    "midi": 76,
                    "time": 258.7330629999988,
                    "velocity": 0.41732283464566927,
                    "duration": 0.08561650000001464
                },
                {
                    "name": "F5",
                    "midi": 77,
                    "time": 258.90429599999885,
                    "velocity": 0.4251968503937008,
                    "duration": 0.08561650000001464
                },
                {
                    "name": "G5",
                    "midi": 79,
                    "time": 259.0755289999989,
                    "velocity": 0.4330708661417323,
                    "duration": 0.08561650000001464
                },
                {
                    "name": "A5",
                    "midi": 81,
                    "time": 259.2467619999989,
                    "velocity": 0.4409448818897638,
                    "duration": 0.08561650000001464
                },
                {
                    "name": "B5",
                    "midi": 83,
                    "time": 259.41799499999894,
                    "velocity": 0.4566929133858268,
                    "duration": 0.08561650000001464
                },
                {
                    "name": "C6",
                    "midi": 84,
                    "time": 259.58922799999897,
                    "velocity": 0.47244094488188976,
                    "duration": 0.08561650000001464
                },
                {
                    "name": "D6",
                    "midi": 86,
                    "time": 259.760460999999,
                    "velocity": 0.48031496062992124,
                    "duration": 0.08561650000001464
                },
                {
                    "name": "E6",
                    "midi": 88,
                    "time": 259.931693999999,
                    "velocity": 0.4881889763779528,
                    "duration": 0.08561650000001464
                },
                {
                    "name": "F6",
                    "midi": 89,
                    "time": 260.10292699999906,
                    "velocity": 0.49606299212598426,
                    "duration": 0.08561650000001464
                },
                {
                    "name": "D#6",
                    "midi": 87,
                    "time": 260.2741599999991,
                    "velocity": 0.6220472440944882,
                    "duration": 0.6849320000000034
                },
                {
                    "name": "E6",
                    "midi": 88,
                    "time": 260.9590919999991,
                    "velocity": 0.5905511811023622,
                    "duration": 0.3424660000000017
                },
                {
                    "name": "A#4",
                    "midi": 70,
                    "time": 261.6440239999991,
                    "velocity": 0.5039370078740157,
                    "duration": 0.45662133333331667
                },
                {
                    "name": "E5",
                    "midi": 76,
                    "time": 262.1006453333324,
                    "velocity": 0.47244094488188976,
                    "duration": 0.11415533333331496
                },
                {
                    "name": "G5",
                    "midi": 79,
                    "time": 262.2148006666657,
                    "velocity": 0.47244094488188976,
                    "duration": 0.11415533333331496
                },
                {
                    "name": "A#5",
                    "midi": 82,
                    "time": 262.32895599999904,
                    "velocity": 0.47244094488188976,
                    "duration": 0.11415533333331496
                },
                {
                    "name": "G5",
                    "midi": 79,
                    "time": 262.44311133333235,
                    "velocity": 0.4566929133858268,
                    "duration": 0.11415533333331496
                },
                {
                    "name": "E5",
                    "midi": 76,
                    "time": 262.55726666666567,
                    "velocity": 0.4566929133858268,
                    "duration": 0.11415533333331496
                },
                {
                    "name": "G5",
                    "midi": 79,
                    "time": 262.671421999999,
                    "velocity": 0.47244094488188976,
                    "duration": 0.11415533333331496
                },
                {
                    "name": "E5",
                    "midi": 76,
                    "time": 262.7855773333323,
                    "velocity": 0.4566929133858268,
                    "duration": 0.11415533333331496
                },
                {
                    "name": "A#4",
                    "midi": 70,
                    "time": 262.8997326666656,
                    "velocity": 0.4566929133858268,
                    "duration": 0.11415533333331496
                },
                {
                    "name": "A4",
                    "midi": 69,
                    "time": 263.01388799999893,
                    "velocity": 0.5039370078740157,
                    "duration": 0.45662133333331667
                },
                {
                    "name": "C5",
                    "midi": 72,
                    "time": 263.47050933333225,
                    "velocity": 0.47244094488188976,
                    "duration": 0.11415533333331496
                },
                {
                    "name": "F5",
                    "midi": 77,
                    "time": 263.58466466666556,
                    "velocity": 0.4566929133858268,
                    "duration": 0.11415533333331496
                },
                {
                    "name": "A5",
                    "midi": 81,
                    "time": 263.6988199999989,
                    "velocity": 0.47244094488188976,
                    "duration": 0.11415533333331496
                },
                {
                    "name": "F5",
                    "midi": 77,
                    "time": 263.8129753333322,
                    "velocity": 0.4645669291338583,
                    "duration": 0.11415533333331496
                },
                {
                    "name": "C5",
                    "midi": 72,
                    "time": 263.9271306666655,
                    "velocity": 0.4645669291338583,
                    "duration": 0.11415533333331496
                },
                {
                    "name": "F5",
                    "midi": 77,
                    "time": 264.0412859999988,
                    "velocity": 0.47244094488188976,
                    "duration": 0.11415533333331496
                },
                {
                    "name": "C5",
                    "midi": 72,
                    "time": 264.15544133333213,
                    "velocity": 0.4645669291338583,
                    "duration": 0.11415533333331496
                },
                {
                    "name": "A4",
                    "midi": 69,
                    "time": 264.26959666666545,
                    "velocity": 0.4645669291338583,
                    "duration": 0.11415533333331496
                },
                {
                    "name": "G4",
                    "midi": 67,
                    "time": 264.38375199999876,
                    "velocity": 0.5039370078740157,
                    "duration": 0.45662133333331667
                },
                {
                    "name": "C#5",
                    "midi": 73,
                    "time": 264.8403733333321,
                    "velocity": 0.47244094488188976,
                    "duration": 0.11415533333331496
                },
                {
                    "name": "E5",
                    "midi": 76,
                    "time": 264.9545286666654,
                    "velocity": 0.4566929133858268,
                    "duration": 0.11415533333331496
                },
                {
                    "name": "G5",
                    "midi": 79,
                    "time": 265.0686839999987,
                    "velocity": 0.47244094488188976,
                    "duration": 0.11415533333331496
                },
                {
                    "name": "E5",
                    "midi": 76,
                    "time": 265.182839333332,
                    "velocity": 0.4566929133858268,
                    "duration": 0.11415533333331496
                },
                {
                    "name": "C#5",
                    "midi": 73,
                    "time": 265.29699466666534,
                    "velocity": 0.4566929133858268,
                    "duration": 0.11415533333331496
                },
                {
                    "name": "E5",
                    "midi": 76,
                    "time": 265.41114999999866,
                    "velocity": 0.47244094488188976,
                    "duration": 0.11415533333331496
                },
                {
                    "name": "C#5",
                    "midi": 73,
                    "time": 265.52530533333197,
                    "velocity": 0.4566929133858268,
                    "duration": 0.11415533333331496
                },
                {
                    "name": "G4",
                    "midi": 67,
                    "time": 265.6394606666653,
                    "velocity": 0.4566929133858268,
                    "duration": 0.11415533333331496
                },
                {
                    "name": "F#4",
                    "midi": 66,
                    "time": 265.7536159999986,
                    "velocity": 0.5039370078740157,
                    "duration": 0.45662133333331667
                },
                {
                    "name": "A4",
                    "midi": 69,
                    "time": 266.2102373333319,
                    "velocity": 0.47244094488188976,
                    "duration": 0.11415533333331496
                },
                {
                    "name": "D5",
                    "midi": 74,
                    "time": 266.32439266666523,
                    "velocity": 0.44881889763779526,
                    "duration": 0.11415533333331496
                },
                {
                    "name": "F#5",
                    "midi": 78,
                    "time": 266.43854799999855,
                    "velocity": 0.47244094488188976,
                    "duration": 0.11415533333331496
                },
                {
                    "name": "D5",
                    "midi": 74,
                    "time": 266.55270333333186,
                    "velocity": 0.4566929133858268,
                    "duration": 0.11415533333331496
                },
                {
                    "name": "A4",
                    "midi": 69,
                    "time": 266.6668586666652,
                    "velocity": 0.4566929133858268,
                    "duration": 0.11415533333331496
                },
                {
                    "name": "D5",
                    "midi": 74,
                    "time": 266.7810139999985,
                    "velocity": 0.47244094488188976,
                    "duration": 0.11415533333331496
                },
                {
                    "name": "A4",
                    "midi": 69,
                    "time": 266.8951693333318,
                    "velocity": 0.4566929133858268,
                    "duration": 0.11415533333331496
                },
                {
                    "name": "F#4",
                    "midi": 66,
                    "time": 267.0093246666651,
                    "velocity": 0.4566929133858268,
                    "duration": 0.11415533333331496
                },
                {
                    "name": "F4",
                    "midi": 65,
                    "time": 267.12347999999844,
                    "velocity": 0.5039370078740157,
                    "duration": 0.45662133333331667
                },
                {
                    "name": "B4",
                    "midi": 71,
                    "time": 267.58010133333175,
                    "velocity": 0.47244094488188976,
                    "duration": 0.11415533333331496
                },
                {
                    "name": "D5",
                    "midi": 74,
                    "time": 267.69425666666507,
                    "velocity": 0.4566929133858268,
                    "duration": 0.11415533333331496
                },
                {
                    "name": "F5",
                    "midi": 77,
                    "time": 267.8084119999984,
                    "velocity": 0.47244094488188976,
                    "duration": 0.11415533333331496
                },
                {
                    "name": "D5",
                    "midi": 74,
                    "time": 267.9225673333317,
                    "velocity": 0.4566929133858268,
                    "duration": 0.11415533333331496
                },
                {
                    "name": "B4",
                    "midi": 71,
                    "time": 268.036722666665,
                    "velocity": 0.4566929133858268,
                    "duration": 0.11415533333331496
                },
                {
                    "name": "D5",
                    "midi": 74,
                    "time": 268.15087799999833,
                    "velocity": 0.47244094488188976,
                    "duration": 0.11415533333331496
                },
                {
                    "name": "B4",
                    "midi": 71,
                    "time": 268.26503333333164,
                    "velocity": 0.4566929133858268,
                    "duration": 0.11415533333331496
                },
                {
                    "name": "F4",
                    "midi": 65,
                    "time": 268.37918866666496,
                    "velocity": 0.4645669291338583,
                    "duration": 0.11415533333331496
                },
                {
                    "name": "E4",
                    "midi": 64,
                    "time": 268.4933439999983,
                    "velocity": 0.5039370078740157,
                    "duration": 0.45662133333331667
                },
                {
                    "name": "G4",
                    "midi": 67,
                    "time": 268.9499653333316,
                    "velocity": 0.47244094488188976,
                    "duration": 0.11415533333331496
                },
                {
                    "name": "C5",
                    "midi": 72,
                    "time": 269.0641206666649,
                    "velocity": 0.47244094488188976,
                    "duration": 0.11415533333331496
                },
                {
                    "name": "E5",
                    "midi": 76,
                    "time": 269.1782759999982,
                    "velocity": 0.47244094488188976,
                    "duration": 0.11415533333331496
                },
                {
                    "name": "C5",
                    "midi": 72,
                    "time": 269.29243133333154,
                    "velocity": 0.4566929133858268,
                    "duration": 0.11415533333331496
                },
                {
                    "name": "G4",
                    "midi": 67,
                    "time": 269.40658666666485,
                    "velocity": 0.4566929133858268,
                    "duration": 0.11415533333331496
                },
                {
                    "name": "C5",
                    "midi": 72,
                    "time": 269.52074199999817,
                    "velocity": 0.47244094488188976,
                    "duration": 0.11415533333331496
                },
                {
                    "name": "G4",
                    "midi": 67,
                    "time": 269.6348973333315,
                    "velocity": 0.44881889763779526,
                    "duration": 0.11415533333331496
                },
                {
                    "name": "E4",
                    "midi": 64,
                    "time": 269.7490526666648,
                    "velocity": 0.44881889763779526,
                    "duration": 0.11415533333331496
                },
                {
                    "name": "D4",
                    "midi": 62,
                    "time": 269.9773633333314,
                    "velocity": 0.47244094488188976,
                    "duration": 0.11415533333331496
                },
                {
                    "name": "A4",
                    "midi": 69,
                    "time": 270.09151866666474,
                    "velocity": 0.4566929133858268,
                    "duration": 0.11415533333331496
                },
                {
                    "name": "D5",
                    "midi": 74,
                    "time": 270.20567399999806,
                    "velocity": 0.4566929133858268,
                    "duration": 0.11415533333331496
                },
                {
                    "name": "A4",
                    "midi": 69,
                    "time": 270.31982933333137,
                    "velocity": 0.47244094488188976,
                    "duration": 0.11415533333331496
                },
                {
                    "name": "D4",
                    "midi": 62,
                    "time": 270.4339846666647,
                    "velocity": 0.4566929133858268,
                    "duration": 0.11415533333331496
                },
                {
                    "name": "D4",
                    "midi": 62,
                    "time": 270.6622953333313,
                    "velocity": 0.47244094488188976,
                    "duration": 0.11415533333331496
                },
                {
                    "name": "A4",
                    "midi": 69,
                    "time": 270.77645066666463,
                    "velocity": 0.44881889763779526,
                    "duration": 0.11415533333331496
                },
                {
                    "name": "C5",
                    "midi": 72,
                    "time": 270.89060599999794,
                    "velocity": 0.47244094488188976,
                    "duration": 0.11415533333331496
                },
                {
                    "name": "A4",
                    "midi": 69,
                    "time": 271.00476133333126,
                    "velocity": 0.4566929133858268,
                    "duration": 0.11415533333331496
                },
                {
                    "name": "D4",
                    "midi": 62,
                    "time": 271.1189166666646,
                    "velocity": 0.4566929133858268,
                    "duration": 0.11415533333331496
                },
                {
                    "name": "B4",
                    "midi": 71,
                    "time": 271.2330719999979,
                    "velocity": 0.49606299212598426,
                    "duration": 0.3424660000000017
                },
                {
                    "name": "G5",
                    "midi": 79,
                    "time": 272.08923699999787,
                    "velocity": 0.4881889763779528,
                    "duration": 0.08561650000001464
                },
                {
                    "name": "A5",
                    "midi": 81,
                    "time": 272.2604699999979,
                    "velocity": 0.5039370078740157,
                    "duration": 0.08561650000001464
                },
                {
                    "name": "B5",
                    "midi": 83,
                    "time": 272.4317029999979,
                    "velocity": 0.5354330708661418,
                    "duration": 0.08561650000001464
                },
                {
                    "name": "C6",
                    "midi": 84,
                    "time": 272.60293599999795,
                    "velocity": 0.5039370078740157,
                    "duration": 0.8561649999999759
                },
                {
                    "name": "B5",
                    "midi": 83,
                    "time": 273.45910099999793,
                    "velocity": 0.3937007874015748,
                    "duration": 0.17123299999997244
                },
                {
                    "name": "A5",
                    "midi": 81,
                    "time": 273.6303339999979,
                    "velocity": 0.4015748031496063,
                    "duration": 0.17123299999997244
                },
                {
                    "name": "G5",
                    "midi": 79,
                    "time": 273.8015669999979,
                    "velocity": 0.3937007874015748,
                    "duration": 0.16409829166667578
                },
                {
                    "name": "G5",
                    "midi": 79,
                    "time": 273.9727999999979,
                    "velocity": 0.41732283464566927,
                    "duration": 0.17123299999997244
                },
                {
                    "name": "F5",
                    "midi": 77,
                    "time": 274.1440329999979,
                    "velocity": 0.3937007874015748,
                    "duration": 0.17123299999997244
                },
                {
                    "name": "E5",
                    "midi": 76,
                    "time": 274.31526599999785,
                    "velocity": 0.4015748031496063,
                    "duration": 0.17123299999997244
                },
                {
                    "name": "D5",
                    "midi": 74,
                    "time": 274.4864989999978,
                    "velocity": 0.3937007874015748,
                    "duration": 0.17123299999997244
                },
                {
                    "name": "G5",
                    "midi": 79,
                    "time": 274.6577319999978,
                    "velocity": 0.4251968503937008,
                    "duration": 0.08561650000001464
                },
                {
                    "name": "F5",
                    "midi": 77,
                    "time": 275.0001979999978,
                    "velocity": 0.4015748031496063,
                    "duration": 0.08561650000001464
                },
                {
                    "name": "D#5",
                    "midi": 75,
                    "time": 275.3426639999978,
                    "velocity": 0.41732283464566927,
                    "duration": 0.3424660000000017
                },
                {
                    "name": "E5",
                    "midi": 76,
                    "time": 275.6851299999978,
                    "velocity": 0.4015748031496063,
                    "duration": 0.3424660000000017
                },
                {
                    "name": "G5",
                    "midi": 79,
                    "time": 277.2262269999978,
                    "velocity": 0.4251968503937008,
                    "duration": 0.08561650000001464
                },
                {
                    "name": "G#5",
                    "midi": 80,
                    "time": 277.3974599999978,
                    "velocity": 0.44881889763779526,
                    "duration": 0.08561650000001464
                },
                {
                    "name": "A5",
                    "midi": 81,
                    "time": 277.56869299999784,
                    "velocity": 0.48031496062992124,
                    "duration": 0.08561650000001464
                },
                {
                    "name": "A#5",
                    "midi": 82,
                    "time": 277.73992599999787,
                    "velocity": 0.5039370078740157,
                    "duration": 0.08561650000001464
                },
                {
                    "name": "B5",
                    "midi": 83,
                    "time": 277.9111589999979,
                    "velocity": 0.5275590551181102,
                    "duration": 0.08561650000001464
                },
                {
                    "name": "C6",
                    "midi": 84,
                    "time": 278.0823919999979,
                    "velocity": 0.5748031496062992,
                    "duration": 0.8561649999999759
                },
                {
                    "name": "B5",
                    "midi": 83,
                    "time": 278.9385569999979,
                    "velocity": 0.3779527559055118,
                    "duration": 0.17123299999997244
                },
                {
                    "name": "A5",
                    "midi": 81,
                    "time": 279.1097899999979,
                    "velocity": 0.3937007874015748,
                    "duration": 0.17123299999997244
                },
                {
                    "name": "G5",
                    "midi": 79,
                    "time": 279.28102299999784,
                    "velocity": 0.3700787401574803,
                    "duration": 0.16552523333331237
                },
                {
                    "name": "G5",
                    "midi": 79,
                    "time": 279.4522559999978,
                    "velocity": 0.41732283464566927,
                    "duration": 0.17123299999997244
                },
                {
                    "name": "F5",
                    "midi": 77,
                    "time": 279.6234889999978,
                    "velocity": 0.3700787401574803,
                    "duration": 0.17123299999997244
                },
                {
                    "name": "E5",
                    "midi": 76,
                    "time": 279.79472199999776,
                    "velocity": 0.3937007874015748,
                    "duration": 0.17123299999997244
                },
                {
                    "name": "D5",
                    "midi": 74,
                    "time": 279.96595499999773,
                    "velocity": 0.3779527559055118,
                    "duration": 0.17123299999997244
                },
                {
                    "name": "G5",
                    "midi": 79,
                    "time": 280.1371879999977,
                    "velocity": 0.4251968503937008,
                    "duration": 0.08561650000001464
                },
                {
                    "name": "F5",
                    "midi": 77,
                    "time": 280.4796539999977,
                    "velocity": 0.4015748031496063,
                    "duration": 0.08561650000001464
                },
                {
                    "name": "E5",
                    "midi": 76,
                    "time": 280.8221199999977,
                    "velocity": 0.4015748031496063,
                    "duration": 0.3424660000000017
                },
                {
                    "name": "A5",
                    "midi": 81,
                    "time": 281.5070519999977,
                    "velocity": 0.49606299212598426,
                    "duration": 0.08561650000001464
                },
                {
                    "name": "B5",
                    "midi": 83,
                    "time": 281.5926684999977,
                    "velocity": 0.4409448818897638,
                    "duration": 0.08561650000001464
                },
                {
                    "name": "A5",
                    "midi": 81,
                    "time": 281.67828499999774,
                    "velocity": 0.4881889763779528,
                    "duration": 0.08561650000001464
                },
                {
                    "name": "B5",
                    "midi": 83,
                    "time": 281.76390149999776,
                    "velocity": 0.48031496062992124,
                    "duration": 0.08561650000001464
                },
                {
                    "name": "C6",
                    "midi": 84,
                    "time": 281.8495179999978,
                    "velocity": 0.5354330708661418,
                    "duration": 0.17123299999997244
                },
                {
                    "name": "C6",
                    "midi": 84,
                    "time": 282.02075099999774,
                    "velocity": 0.5196850393700787,
                    "duration": 0.08561650000001464
                },
                {
                    "name": "C6",
                    "midi": 84,
                    "time": 282.1919839999978,
                    "velocity": 0.5039370078740157,
                    "duration": 0.3424660000000017
                },
                {
                    "name": "D6",
                    "midi": 86,
                    "time": 282.8769159999978,
                    "velocity": 0.5354330708661418,
                    "duration": 0.08561650000001464
                },
                {
                    "name": "E6",
                    "midi": 88,
                    "time": 282.9625324999978,
                    "velocity": 0.4645669291338583,
                    "duration": 0.08561650000001464
                },
                {
                    "name": "D6",
                    "midi": 86,
                    "time": 283.0481489999978,
                    "velocity": 0.5118110236220472,
                    "duration": 0.08561650000001464
                },
                {
                    "name": "E6",
                    "midi": 88,
                    "time": 283.1337654999978,
                    "velocity": 0.5354330708661418,
                    "duration": 0.08561650000001464
                },
                {
                    "name": "F6",
                    "midi": 89,
                    "time": 283.21938199999784,
                    "velocity": 0.5354330708661418,
                    "duration": 0.17123299999997244
                },
                {
                    "name": "F6",
                    "midi": 89,
                    "time": 283.3906149999978,
                    "velocity": 0.5039370078740157,
                    "duration": 0.08561650000001464
                },
                {
                    "name": "F6",
                    "midi": 89,
                    "time": 283.56184799999784,
                    "velocity": 0.5039370078740157,
                    "duration": 0.3424660000000017
                },
                {
                    "name": "F5",
                    "midi": 77,
                    "time": 284.24677999999784,
                    "velocity": 0.4881889763779528,
                    "duration": 0.08561650000001464
                },
                {
                    "name": "G5",
                    "midi": 79,
                    "time": 284.33239649999786,
                    "velocity": 0.4251968503937008,
                    "duration": 0.08561650000001464
                },
                {
                    "name": "F5",
                    "midi": 77,
                    "time": 284.41801299999787,
                    "velocity": 0.4645669291338583,
                    "duration": 0.08561650000001464
                },
                {
                    "name": "G5",
                    "midi": 79,
                    "time": 284.5036294999979,
                    "velocity": 0.4409448818897638,
                    "duration": 0.08561650000001464
                },
                {
                    "name": "A5",
                    "midi": 81,
                    "time": 284.5892459999979,
                    "velocity": 0.5196850393700787,
                    "duration": 0.17123299999997244
                },
                {
                    "name": "A5",
                    "midi": 81,
                    "time": 284.7604789999979,
                    "velocity": 0.47244094488188976,
                    "duration": 0.08561650000001464
                },
                {
                    "name": "A5",
                    "midi": 81,
                    "time": 284.9317119999979,
                    "velocity": 0.47244094488188976,
                    "duration": 0.17123299999997244
                },
                {
                    "name": "G5",
                    "midi": 79,
                    "time": 285.1029449999979,
                    "velocity": 0.48031496062992124,
                    "duration": 0.17123299999997244
                },
                {
                    "name": "F5",
                    "midi": 77,
                    "time": 285.27417799999785,
                    "velocity": 0.4409448818897638,
                    "duration": 0.08561650000001464
                },
                {
                    "name": "E5",
                    "midi": 76,
                    "time": 285.4454109999979,
                    "velocity": 0.4409448818897638,
                    "duration": 0.08561650000001464
                },
                {
                    "name": "D5",
                    "midi": 74,
                    "time": 285.6166439999979,
                    "velocity": 0.4409448818897638,
                    "duration": 0.17123299999997244
                },
                {
                    "name": "G5",
                    "midi": 79,
                    "time": 285.95910999999785,
                    "velocity": 0.4409448818897638,
                    "duration": 0.17123299999997244
                },
                {
                    "name": "F5",
                    "midi": 77,
                    "time": 286.3015759999978,
                    "velocity": 0.4881889763779528,
                    "duration": 0.3424660000000017
                },
                {
                    "name": "E5",
                    "midi": 76,
                    "time": 286.6440419999978,
                    "velocity": 0.4566929133858268,
                    "duration": 0.3424660000000017
                },
                {
                    "name": "A4",
                    "midi": 69,
                    "time": 286.9865079999978,
                    "velocity": 0.44881889763779526,
                    "duration": 0.08561650000001464
                },
                {
                    "name": "B4",
                    "midi": 71,
                    "time": 287.0721244999978,
                    "velocity": 0.47244094488188976,
                    "duration": 0.08561650000001464
                },
                {
                    "name": "A4",
                    "midi": 69,
                    "time": 287.1577409999978,
                    "velocity": 0.44881889763779526,
                    "duration": 0.08561650000001464
                },
                {
                    "name": "B4",
                    "midi": 71,
                    "time": 287.24335749999784,
                    "velocity": 0.48031496062992124,
                    "duration": 0.08561650000001464
                },
                {
                    "name": "C5",
                    "midi": 72,
                    "time": 287.32897399999786,
                    "velocity": 0.5196850393700787,
                    "duration": 0.17123299999997244
                },
                {
                    "name": "C5",
                    "midi": 72,
                    "time": 287.50020699999783,
                    "velocity": 0.47244094488188976,
                    "duration": 0.08561650000001464
                },
                {
                    "name": "C5",
                    "midi": 72,
                    "time": 287.67143999999786,
                    "velocity": 0.47244094488188976,
                    "duration": 0.3424660000000017
                },
                {
                    "name": "D5",
                    "midi": 74,
                    "time": 288.35637199999786,
                    "velocity": 0.44881889763779526,
                    "duration": 0.08561650000001464
                },
                {
                    "name": "E5",
                    "midi": 76,
                    "time": 288.4419884999979,
                    "velocity": 0.47244094488188976,
                    "duration": 0.08561650000001464
                },
                {
                    "name": "D5",
                    "midi": 74,
                    "time": 288.5276049999979,
                    "velocity": 0.44881889763779526,
                    "duration": 0.08561650000001464
                },
                {
                    "name": "E5",
                    "midi": 76,
                    "time": 288.6132214999979,
                    "velocity": 0.5039370078740157,
                    "duration": 0.08561650000001464
                },
                {
                    "name": "F5",
                    "midi": 77,
                    "time": 288.6988379999979,
                    "velocity": 0.5196850393700787,
                    "duration": 0.17123299999997244
                },
                {
                    "name": "F5",
                    "midi": 77,
                    "time": 288.8700709999979,
                    "velocity": 0.47244094488188976,
                    "duration": 0.08561650000001464
                },
                {
                    "name": "F5",
                    "midi": 77,
                    "time": 289.0413039999979,
                    "velocity": 0.47244094488188976,
                    "duration": 0.3424660000000017
                },
                {
                    "name": "F5",
                    "midi": 77,
                    "time": 289.7262359999979,
                    "velocity": 0.44881889763779526,
                    "duration": 0.08561650000001464
                },
                {
                    "name": "G5",
                    "midi": 79,
                    "time": 289.81185249999794,
                    "velocity": 0.47244094488188976,
                    "duration": 0.08561650000001464
                },
                {
                    "name": "F5",
                    "midi": 77,
                    "time": 289.89746899999795,
                    "velocity": 0.44881889763779526,
                    "duration": 0.08561650000001464
                },
                {
                    "name": "G5",
                    "midi": 79,
                    "time": 289.98308549999797,
                    "velocity": 0.5354330708661418,
                    "duration": 0.08561650000001464
                },
                {
                    "name": "A5",
                    "midi": 81,
                    "time": 290.068701999998,
                    "velocity": 0.5039370078740157,
                    "duration": 0.17123299999997244
                },
                {
                    "name": "A5",
                    "midi": 81,
                    "time": 290.23993499999796,
                    "velocity": 0.48031496062992124,
                    "duration": 0.08561650000001464
                },
                {
                    "name": "A5",
                    "midi": 81,
                    "time": 290.411167999998,
                    "velocity": 0.4881889763779528,
                    "duration": 0.17123299999997244
                },
                {
                    "name": "G5",
                    "midi": 79,
                    "time": 290.58240099999796,
                    "velocity": 0.48031496062992124,
                    "duration": 0.17123299999997244
                },
                {
                    "name": "F5",
                    "midi": 77,
                    "time": 290.75363399999793,
                    "velocity": 0.48031496062992124,
                    "duration": 0.08561650000001464
                },
                {
                    "name": "E5",
                    "midi": 76,
                    "time": 290.92486699999796,
                    "velocity": 0.48031496062992124,
                    "duration": 0.08561650000001464
                },
                {
                    "name": "E5",
                    "midi": 76,
                    "time": 291.096099999998,
                    "velocity": 0.4881889763779528,
                    "duration": 0.17123299999997244
                },
                {
                    "name": "D5",
                    "midi": 74,
                    "time": 291.26733299999796,
                    "velocity": 0.47244094488188976,
                    "duration": 0.17123299999997244
                },
                {
                    "name": "C5",
                    "midi": 72,
                    "time": 291.43856599999793,
                    "velocity": 0.48031496062992124,
                    "duration": 0.08561650000001464
                },
                {
                    "name": "B4",
                    "midi": 71,
                    "time": 291.60979899999796,
                    "velocity": 0.4645669291338583,
                    "duration": 0.08561650000001464
                },
                {
                    "name": "G5",
                    "midi": 79,
                    "time": 291.781031999998,
                    "velocity": 0.6141732283464567,
                    "duration": 0.45662133333331667
                },
                {
                    "name": "E5",
                    "midi": 76,
                    "time": 292.2376533333313,
                    "velocity": 0.48031496062992124,
                    "duration": 0.11415533333331496
                },
                {
                    "name": "C5",
                    "midi": 72,
                    "time": 292.3518086666646,
                    "velocity": 0.48031496062992124,
                    "duration": 0.11415533333331496
                },
                {
                    "name": "B4",
                    "midi": 71,
                    "time": 292.46596399999794,
                    "velocity": 0.49606299212598426,
                    "duration": 0.11415533333331496
                },
                {
                    "name": "D5",
                    "midi": 74,
                    "time": 292.58011933333125,
                    "velocity": 0.49606299212598426,
                    "duration": 0.11415533333331496
                },
                {
                    "name": "G4",
                    "midi": 67,
                    "time": 292.69427466666457,
                    "velocity": 0.48031496062992124,
                    "duration": 0.11415533333331496
                },
                {
                    "name": "C5",
                    "midi": 72,
                    "time": 292.8084299999979,
                    "velocity": 0.49606299212598426,
                    "duration": 0.11415533333331496
                },
                {
                    "name": "E5",
                    "midi": 76,
                    "time": 292.9225853333312,
                    "velocity": 0.48031496062992124,
                    "duration": 0.11415533333331496
                },
                {
                    "name": "G4",
                    "midi": 67,
                    "time": 293.0367406666645,
                    "velocity": 0.4645669291338583,
                    "duration": 0.11415533333331496
                },
                {
                    "name": "D5",
                    "midi": 74,
                    "time": 293.15089599999783,
                    "velocity": 0.6062992125984252,
                    "duration": 0.45662133333331667
                },
                {
                    "name": "B4",
                    "midi": 71,
                    "time": 293.60751733333115,
                    "velocity": 0.4330708661417323,
                    "duration": 0.11415533333331496
                },
                {
                    "name": "G4",
                    "midi": 67,
                    "time": 293.72167266666446,
                    "velocity": 0.4094488188976378,
                    "duration": 0.11415533333331496
                },
                {
                    "name": "F#4",
                    "midi": 66,
                    "time": 293.8358279999978,
                    "velocity": 0.44881889763779526,
                    "duration": 0.11415533333331496
                },
                {
                    "name": "G4",
                    "midi": 67,
                    "time": 293.9499833333311,
                    "velocity": 0.4251968503937008,
                    "duration": 0.11415533333331496
                },
                {
                    "name": "D4",
                    "midi": 62,
                    "time": 294.0641386666644,
                    "velocity": 0.4251968503937008,
                    "duration": 0.11415533333331496
                },
                {
                    "name": "F4",
                    "midi": 65,
                    "time": 294.1782939999977,
                    "velocity": 0.4330708661417323,
                    "duration": 0.11415533333331496
                },
                {
                    "name": "G4",
                    "midi": 67,
                    "time": 294.29244933333104,
                    "velocity": 0.41732283464566927,
                    "duration": 0.11415533333331496
                },
                {
                    "name": "D4",
                    "midi": 62,
                    "time": 294.40660466666435,
                    "velocity": 0.41732283464566927,
                    "duration": 0.11415533333331496
                },
                {
                    "name": "G5",
                    "midi": 79,
                    "time": 294.52075999999767,
                    "velocity": 0.5905511811023622,
                    "duration": 0.45662133333331667
                },
                {
                    "name": "E5",
                    "midi": 76,
                    "time": 294.977381333331,
                    "velocity": 0.48031496062992124,
                    "duration": 0.11415533333331496
                },
                {
                    "name": "C5",
                    "midi": 72,
                    "time": 295.0915366666643,
                    "velocity": 0.47244094488188976,
                    "duration": 0.11415533333331496
                },
                {
                    "name": "B4",
                    "midi": 71,
                    "time": 295.2056919999976,
                    "velocity": 0.49606299212598426,
                    "duration": 0.11415533333331496
                },
                {
                    "name": "D5",
                    "midi": 74,
                    "time": 295.3198473333309,
                    "velocity": 0.49606299212598426,
                    "duration": 0.11415533333331496
                },
                {
                    "name": "G4",
                    "midi": 67,
                    "time": 295.43400266666424,
                    "velocity": 0.48031496062992124,
                    "duration": 0.11415533333331496
                },
                {
                    "name": "C5",
                    "midi": 72,
                    "time": 295.54815799999756,
                    "velocity": 0.49606299212598426,
                    "duration": 0.11415533333331496
                },
                {
                    "name": "E5",
                    "midi": 76,
                    "time": 295.66231333333087,
                    "velocity": 0.48031496062992124,
                    "duration": 0.11415533333331496
                },
                {
                    "name": "G4",
                    "midi": 67,
                    "time": 295.7764686666642,
                    "velocity": 0.48031496062992124,
                    "duration": 0.11415533333331496
                },
                {
                    "name": "D5",
                    "midi": 74,
                    "time": 295.8906239999975,
                    "velocity": 0.6062992125984252,
                    "duration": 0.45662133333331667
                },
                {
                    "name": "B4",
                    "midi": 71,
                    "time": 296.3472453333308,
                    "velocity": 0.4330708661417323,
                    "duration": 0.11415533333331496
                },
                {
                    "name": "G4",
                    "midi": 67,
                    "time": 296.46140066666413,
                    "velocity": 0.4330708661417323,
                    "duration": 0.11415533333331496
                },
                {
                    "name": "F#4",
                    "midi": 66,
                    "time": 296.57555599999745,
                    "velocity": 0.44881889763779526,
                    "duration": 0.11415533333331496
                },
                {
                    "name": "G4",
                    "midi": 67,
                    "time": 296.68971133333076,
                    "velocity": 0.4251968503937008,
                    "duration": 0.11415533333331496
                },
                {
                    "name": "D4",
                    "midi": 62,
                    "time": 296.8038666666641,
                    "velocity": 0.4251968503937008,
                    "duration": 0.11415533333331496
                },
                {
                    "name": "F4",
                    "midi": 65,
                    "time": 296.9180219999974,
                    "velocity": 0.4330708661417323,
                    "duration": 0.11415533333331496
                },
                {
                    "name": "G4",
                    "midi": 67,
                    "time": 297.0321773333307,
                    "velocity": 0.41732283464566927,
                    "duration": 0.11415533333331496
                },
                {
                    "name": "D4",
                    "midi": 62,
                    "time": 297.146332666664,
                    "velocity": 0.41732283464566927,
                    "duration": 0.11415533333331496
                },
                {
                    "name": "E4",
                    "midi": 64,
                    "time": 297.26048799999734,
                    "velocity": 0.41732283464566927,
                    "duration": 0.11415533333331496
                },
                {
                    "name": "C4",
                    "midi": 60,
                    "time": 297.37464333333065,
                    "velocity": 0.4251968503937008,
                    "duration": 0.11415533333331496
                },
                {
                    "name": "E4",
                    "midi": 64,
                    "time": 297.48879866666397,
                    "velocity": 0.4409448818897638,
                    "duration": 0.11415533333331496
                },
                {
                    "name": "G4",
                    "midi": 67,
                    "time": 297.6029539999973,
                    "velocity": 0.44881889763779526,
                    "duration": 0.11415533333331496
                },
                {
                    "name": "E4",
                    "midi": 64,
                    "time": 297.7171093333306,
                    "velocity": 0.4566929133858268,
                    "duration": 0.11415533333331496
                },
                {
                    "name": "G4",
                    "midi": 67,
                    "time": 297.8312646666639,
                    "velocity": 0.48031496062992124,
                    "duration": 0.11415533333331496
                },
                {
                    "name": "C5",
                    "midi": 72,
                    "time": 297.9454199999972,
                    "velocity": 0.48031496062992124,
                    "duration": 0.11415533333331496
                },
                {
                    "name": "G4",
                    "midi": 67,
                    "time": 298.05957533333054,
                    "velocity": 0.49606299212598426,
                    "duration": 0.11415533333331496
                },
                {
                    "name": "C5",
                    "midi": 72,
                    "time": 298.17373066666386,
                    "velocity": 0.5039370078740157,
                    "duration": 0.11415533333331496
                },
                {
                    "name": "E5",
                    "midi": 76,
                    "time": 298.2878859999972,
                    "velocity": 0.5039370078740157,
                    "duration": 0.11415533333331496
                },
                {
                    "name": "C5",
                    "midi": 72,
                    "time": 298.4020413333305,
                    "velocity": 0.5275590551181102,
                    "duration": 0.11415533333331496
                },
                {
                    "name": "E5",
                    "midi": 76,
                    "time": 298.5161966666638,
                    "velocity": 0.5354330708661418,
                    "duration": 0.11415533333331496
                },
                {
                    "name": "G5",
                    "midi": 79,
                    "time": 298.6303519999971,
                    "velocity": 0.5433070866141733,
                    "duration": 0.11415533333331496
                },
                {
                    "name": "E5",
                    "midi": 76,
                    "time": 298.74450733333043,
                    "velocity": 0.5511811023622047,
                    "duration": 0.11415533333331496
                },
                {
                    "name": "G5",
                    "midi": 79,
                    "time": 298.85866266666375,
                    "velocity": 0.5748031496062992,
                    "duration": 0.11415533333331496
                },
                {
                    "name": "A#5",
                    "midi": 82,
                    "time": 298.97281799999706,
                    "velocity": 0.5748031496062992,
                    "duration": 0.11415533333331496
                },
                {
                    "name": "G5",
                    "midi": 79,
                    "time": 299.0869733333304,
                    "velocity": 0.5511811023622047,
                    "duration": 0.11415533333331496
                },
                {
                    "name": "E5",
                    "midi": 76,
                    "time": 299.2011286666637,
                    "velocity": 0.5354330708661418,
                    "duration": 0.11415533333331496
                },
                {
                    "name": "C5",
                    "midi": 72,
                    "time": 299.315283999997,
                    "velocity": 0.5196850393700787,
                    "duration": 0.11415533333331496
                },
                {
                    "name": "A#4",
                    "midi": 70,
                    "time": 299.4294393333303,
                    "velocity": 0.5039370078740157,
                    "duration": 0.11415533333331496
                },
                {
                    "name": "G4",
                    "midi": 67,
                    "time": 299.54359466666364,
                    "velocity": 0.48031496062992124,
                    "duration": 0.11415533333331496
                },
                {
                    "name": "C5",
                    "midi": 72,
                    "time": 299.65774999999695,
                    "velocity": 0.47244094488188976,
                    "duration": 0.11415533333331496
                },
                {
                    "name": "A#4",
                    "midi": 70,
                    "time": 299.77190533333027,
                    "velocity": 0.4409448818897638,
                    "duration": 0.11415533333331496
                },
                {
                    "name": "G#4",
                    "midi": 68,
                    "time": 299.8860606666636,
                    "velocity": 0.4251968503937008,
                    "duration": 0.11415533333331496
                },
                {
                    "name": "A4",
                    "midi": 69,
                    "time": 300.0002159999969,
                    "velocity": 0.4015748031496063,
                    "duration": 0.08561650000001464
                },
                {
                    "name": "A5",
                    "midi": 81,
                    "time": 300.1714489999969,
                    "velocity": 0.4094488188976378,
                    "duration": 0.17123299999997244
                },
                {
                    "name": "G#5",
                    "midi": 80,
                    "time": 300.3426819999969,
                    "velocity": 0.4015748031496063,
                    "duration": 0.17123299999997244
                },
                {
                    "name": "A5",
                    "midi": 81,
                    "time": 300.51391499999687,
                    "velocity": 0.3779527559055118,
                    "duration": 0.17123299999997244
                },
                {
                    "name": "G#5",
                    "midi": 80,
                    "time": 300.68514799999684,
                    "velocity": 0.4094488188976378,
                    "duration": 0.17123299999997244
                },
                {
                    "name": "A5",
                    "midi": 81,
                    "time": 300.8563809999968,
                    "velocity": 0.3858267716535433,
                    "duration": 0.17123299999997244
                },
                {
                    "name": "G#5",
                    "midi": 80,
                    "time": 301.0276139999968,
                    "velocity": 0.4094488188976378,
                    "duration": 0.17123299999997244
                },
                {
                    "name": "A5",
                    "midi": 81,
                    "time": 301.19884699999676,
                    "velocity": 0.3858267716535433,
                    "duration": 0.17123299999997244
                },
                {
                    "name": "C5",
                    "midi": 72,
                    "time": 301.37007999999673,
                    "velocity": 0.41732283464566927,
                    "duration": 0.6849320000000034
                },
                {
                    "name": "D5",
                    "midi": 74,
                    "time": 302.05501199999674,
                    "velocity": 0.36220472440944884,
                    "duration": 0.08561650000001464
                },
                {
                    "name": "C5",
                    "midi": 72,
                    "time": 302.14062849999675,
                    "velocity": 0.3543307086614173,
                    "duration": 0.08561650000001464
                },
                {
                    "name": "B4",
                    "midi": 71,
                    "time": 302.22624499999677,
                    "velocity": 0.36220472440944884,
                    "duration": 0.08561650000001464
                },
                {
                    "name": "C5",
                    "midi": 72,
                    "time": 302.3118614999968,
                    "velocity": 0.3858267716535433,
                    "duration": 0.08561650000001464
                },
                {
                    "name": "E5",
                    "midi": 76,
                    "time": 302.3974779999968,
                    "velocity": 0.3464566929133858,
                    "duration": 0.17123299999997244
                },
                {
                    "name": "B4",
                    "midi": 71,
                    "time": 302.3974779999968,
                    "velocity": 0.3464566929133858,
                    "duration": 0.34246599999994487
                },
                {
                    "name": "D5",
                    "midi": 74,
                    "time": 302.56871099999677,
                    "velocity": 0.3858267716535433,
                    "duration": 0.17123299999997244
                },
                {
                    "name": "C5",
                    "midi": 72,
                    "time": 302.73994399999674,
                    "velocity": 0.4251968503937008,
                    "duration": 0.11415533333331496
                },
                {
                    "name": "G4",
                    "midi": 67,
                    "time": 302.85409933333005,
                    "velocity": 0.4251968503937008,
                    "duration": 0.11415533333331496
                },
                {
                    "name": "C5",
                    "midi": 72,
                    "time": 302.96825466666337,
                    "velocity": 0.4409448818897638,
                    "duration": 0.11415533333331496
                },
                {
                    "name": "E5",
                    "midi": 76,
                    "time": 303.0824099999967,
                    "velocity": 0.44881889763779526,
                    "duration": 0.11415533333331496
                },
                {
                    "name": "C5",
                    "midi": 72,
                    "time": 303.19656533333,
                    "velocity": 0.4566929133858268,
                    "duration": 0.11415533333331496
                },
                {
                    "name": "E5",
                    "midi": 76,
                    "time": 303.3107206666633,
                    "velocity": 0.48031496062992124,
                    "duration": 0.11415533333331496
                },
                {
                    "name": "G5",
                    "midi": 79,
                    "time": 303.42487599999663,
                    "velocity": 0.48031496062992124,
                    "duration": 0.11415533333331496
                },
                {
                    "name": "E5",
                    "midi": 76,
                    "time": 303.53903133332994,
                    "velocity": 0.49606299212598426,
                    "duration": 0.11415533333331496
                },
                {
                    "name": "G5",
                    "midi": 79,
                    "time": 303.65318666666326,
                    "velocity": 0.5039370078740157,
                    "duration": 0.11415533333331496
                },
                {
                    "name": "C6",
                    "midi": 84,
                    "time": 303.7673419999966,
                    "velocity": 0.5039370078740157,
                    "duration": 0.11415533333331496
                },
                {
                    "name": "D6",
                    "midi": 86,
                    "time": 303.8814973333299,
                    "velocity": 0.5275590551181102,
                    "duration": 0.11415533333331496
                },
                {
                    "name": "C6",
                    "midi": 84,
                    "time": 303.9956526666632,
                    "velocity": 0.5354330708661418,
                    "duration": 0.11415533333331496
                },
                {
                    "name": "A#5",
                    "midi": 82,
                    "time": 304.1098079999965,
                    "velocity": 0.5433070866141733,
                    "duration": 0.11415533333331496
                },
                {
                    "name": "A5",
                    "midi": 81,
                    "time": 304.22396333332983,
                    "velocity": 0.5511811023622047,
                    "duration": 0.11415533333331496
                },
                {
                    "name": "G5",
                    "midi": 79,
                    "time": 304.33811866666315,
                    "velocity": 0.5748031496062992,
                    "duration": 0.11415533333331496
                },
                {
                    "name": "F5",
                    "midi": 77,
                    "time": 304.45227399999646,
                    "velocity": 0.5748031496062992,
                    "duration": 0.11415533333331496
                },
                {
                    "name": "E5",
                    "midi": 76,
                    "time": 304.5664293333298,
                    "velocity": 0.5511811023622047,
                    "duration": 0.11415533333331496
                },
                {
                    "name": "D5",
                    "midi": 74,
                    "time": 304.6805846666631,
                    "velocity": 0.5354330708661418,
                    "duration": 0.11415533333331496
                },
                {
                    "name": "C5",
                    "midi": 72,
                    "time": 304.7947399999964,
                    "velocity": 0.5196850393700787,
                    "duration": 0.11415533333331496
                },
                {
                    "name": "D5",
                    "midi": 74,
                    "time": 304.9088953333297,
                    "velocity": 0.5039370078740157,
                    "duration": 0.11415533333331496
                },
                {
                    "name": "C5",
                    "midi": 72,
                    "time": 305.02305066666304,
                    "velocity": 0.48031496062992124,
                    "duration": 0.11415533333331496
                },
                {
                    "name": "A#4",
                    "midi": 70,
                    "time": 305.13720599999635,
                    "velocity": 0.47244094488188976,
                    "duration": 0.11415533333331496
                },
                {
                    "name": "A4",
                    "midi": 69,
                    "time": 305.25136133332967,
                    "velocity": 0.4409448818897638,
                    "duration": 0.11415533333331496
                },
                {
                    "name": "G#4",
                    "midi": 68,
                    "time": 305.365516666663,
                    "velocity": 0.4251968503937008,
                    "duration": 0.11415533333331496
                },
                {
                    "name": "A4",
                    "midi": 69,
                    "time": 305.4796719999963,
                    "velocity": 0.4015748031496063,
                    "duration": 0.08561650000001464
                },
                {
                    "name": "A5",
                    "midi": 81,
                    "time": 305.6509049999963,
                    "velocity": 0.3779527559055118,
                    "duration": 0.17123299999997244
                },
                {
                    "name": "G#5",
                    "midi": 80,
                    "time": 305.8221379999963,
                    "velocity": 0.4015748031496063,
                    "duration": 0.17123299999997244
                },
                {
                    "name": "A5",
                    "midi": 81,
                    "time": 305.9933709999963,
                    "velocity": 0.3779527559055118,
                    "duration": 0.17123299999997244
                },
                {
                    "name": "G#5",
                    "midi": 80,
                    "time": 306.16460399999625,
                    "velocity": 0.4094488188976378,
                    "duration": 0.17123299999997244
                },
                {
                    "name": "A5",
                    "midi": 81,
                    "time": 306.3358369999962,
                    "velocity": 0.3858267716535433,
                    "duration": 0.17123299999997244
                },
                {
                    "name": "G#5",
                    "midi": 80,
                    "time": 306.5070699999962,
                    "velocity": 0.4015748031496063,
                    "duration": 0.17123299999997244
                },
                {
                    "name": "A5",
                    "midi": 81,
                    "time": 306.67830299999616,
                    "velocity": 0.3858267716535433,
                    "duration": 0.17123299999997244
                },
                {
                    "name": "C6",
                    "midi": 84,
                    "time": 307.0207689999961,
                    "velocity": 0.47244094488188976,
                    "duration": 0.17123299999997244
                },
                {
                    "name": "B5",
                    "midi": 83,
                    "time": 307.1920019999961,
                    "velocity": 0.47244094488188976,
                    "duration": 0.17123299999997244
                },
                {
                    "name": "C6",
                    "midi": 84,
                    "time": 307.36323499999605,
                    "velocity": 0.44881889763779526,
                    "duration": 0.17123299999997244
                },
                {
                    "name": "B5",
                    "midi": 83,
                    "time": 307.534467999996,
                    "velocity": 0.47244094488188976,
                    "duration": 0.17123299999997244
                },
                {
                    "name": "C6",
                    "midi": 84,
                    "time": 307.705700999996,
                    "velocity": 0.48031496062992124,
                    "duration": 0.17123299999997244
                },
                {
                    "name": "B5",
                    "midi": 83,
                    "time": 307.87693399999597,
                    "velocity": 0.49606299212598426,
                    "duration": 0.17123299999997244
                },
                {
                    "name": "C6",
                    "midi": 84,
                    "time": 308.04816699999594,
                    "velocity": 0.5196850393700787,
                    "duration": 0.15696358333332228
                },
                {
                    "name": "C6",
                    "midi": 84,
                    "time": 308.2193999999959,
                    "velocity": 0.5354330708661418,
                    "duration": 0.17123299999997244
                },
                {
                    "name": "G5",
                    "midi": 79,
                    "time": 308.3906329999959,
                    "velocity": 0.47244094488188976,
                    "duration": 0.15696358333332228
                },
                {
                    "name": "G5",
                    "midi": 79,
                    "time": 308.56186599999586,
                    "velocity": 0.47244094488188976,
                    "duration": 0.08561650000001464
                },
                {
                    "name": "G5",
                    "midi": 79,
                    "time": 308.7330989999959,
                    "velocity": 0.47244094488188976,
                    "duration": 0.08561650000001464
                },
                {
                    "name": "A5",
                    "midi": 81,
                    "time": 308.9043319999959,
                    "velocity": 0.4881889763779528,
                    "duration": 0.17123299999997244
                },
                {
                    "name": "G5",
                    "midi": 79,
                    "time": 309.0755649999959,
                    "velocity": 0.4566929133858268,
                    "duration": 0.17123299999997244
                },
                {
                    "name": "F5",
                    "midi": 77,
                    "time": 309.24679799999586,
                    "velocity": 0.44881889763779526,
                    "duration": 0.08561650000001464
                },
                {
                    "name": "E5",
                    "midi": 76,
                    "time": 309.4180309999959,
                    "velocity": 0.4409448818897638,
                    "duration": 0.08561650000001464
                },
                {
                    "name": "E5",
                    "midi": 76,
                    "time": 309.5892639999959,
                    "velocity": 0.4251968503937008,
                    "duration": 0.3424660000000017
                },
                {
                    "name": "D5",
                    "midi": 74,
                    "time": 310.2741959999959,
                    "velocity": 0.3779527559055118,
                    "duration": 0.08561650000001464
                },
                {
                    "name": "E5",
                    "midi": 76,
                    "time": 310.35981249999594,
                    "velocity": 0.3543307086614173,
                    "duration": 0.08561650000001464
                },
                {
                    "name": "D5",
                    "midi": 74,
                    "time": 310.44542899999595,
                    "velocity": 0.3779527559055118,
                    "duration": 0.08561650000001464
                },
                {
                    "name": "E5",
                    "midi": 76,
                    "time": 310.53104549999597,
                    "velocity": 0.3543307086614173,
                    "duration": 0.08561650000001464
                },
                {
                    "name": "D5",
                    "midi": 74,
                    "time": 310.616661999996,
                    "velocity": 0.3779527559055118,
                    "duration": 0.05707766666665748
                },
                {
                    "name": "E5",
                    "midi": 76,
                    "time": 310.67373966666264,
                    "velocity": 0.36220472440944884,
                    "duration": 0.05707766666665748
                },
                {
                    "name": "D5",
                    "midi": 74,
                    "time": 310.732244274996,
                    "velocity": 0.36220472440944884,
                    "duration": 0.05707766666671432
                },
                {
                    "name": "C5",
                    "midi": 72,
                    "time": 310.787894999996,
                    "velocity": 0.4015748031496063,
                    "duration": 0.08561650000001464
                },
                {
                    "name": "D5",
                    "midi": 74,
                    "time": 310.873511499996,
                    "velocity": 0.3779527559055118,
                    "duration": 0.08561650000001464
                },
                {
                    "name": "C5",
                    "midi": 72,
                    "time": 310.95912799999604,
                    "velocity": 0.4330708661417323,
                    "duration": 0.3424660000000017
                },
                {
                    "name": "G4",
                    "midi": 67,
                    "time": 311.64405999999605,
                    "velocity": 0.3937007874015748,
                    "duration": 0.4708907500000237
                },
                {
                    "name": "B4",
                    "midi": 71,
                    "time": 312.11495074999607,
                    "velocity": 0.3779527559055118,
                    "duration": 0.04280825000000732
                },
                {
                    "name": "A4",
                    "midi": 69,
                    "time": 312.1577589999961,
                    "velocity": 0.3779527559055118,
                    "duration": 0.08561650000001464
                },
                {
                    "name": "G4",
                    "midi": 67,
                    "time": 312.2433754999961,
                    "velocity": 0.3779527559055118,
                    "duration": 0.08561650000001464
                },
                {
                    "name": "G5",
                    "midi": 79,
                    "time": 312.3289919999961,
                    "velocity": 0.44881889763779526,
                    "duration": 0.08561650000001464
                },
                {
                    "name": "F5",
                    "midi": 77,
                    "time": 312.6714579999961,
                    "velocity": 0.4409448818897638,
                    "duration": 0.08561650000001464
                },
                {
                    "name": "E5",
                    "midi": 76,
                    "time": 313.0139239999961,
                    "velocity": 0.4251968503937008,
                    "duration": 0.08561650000001464
                },
                {
                    "name": "D5",
                    "midi": 74,
                    "time": 313.3563899999961,
                    "velocity": 0.4015748031496063,
                    "duration": 0.08561650000001464
                },
                {
                    "name": "C5",
                    "midi": 72,
                    "time": 313.6988559999961,
                    "velocity": 0.4330708661417323,
                    "duration": 0.6849320000000034
                },
                {
                    "name": "G4",
                    "midi": 67,
                    "time": 314.3837879999961,
                    "velocity": 0.3937007874015748,
                    "duration": 0.4708907500000237
                },
                {
                    "name": "B4",
                    "midi": 71,
                    "time": 314.85467874999614,
                    "velocity": 0.3779527559055118,
                    "duration": 0.04280825000000732
                },
                {
                    "name": "A4",
                    "midi": 69,
                    "time": 314.89748699999615,
                    "velocity": 0.3779527559055118,
                    "duration": 0.08561650000001464
                },
                {
                    "name": "G4",
                    "midi": 67,
                    "time": 314.98310349999616,
                    "velocity": 0.3779527559055118,
                    "duration": 0.08561650000001464
                },
                {
                    "name": "G5",
                    "midi": 79,
                    "time": 315.0687199999962,
                    "velocity": 0.4409448818897638,
                    "duration": 0.08561650000001464
                },
                {
                    "name": "F5",
                    "midi": 77,
                    "time": 315.4111859999962,
                    "velocity": 0.41732283464566927,
                    "duration": 0.08561650000001464
                },
                {
                    "name": "E5",
                    "midi": 76,
                    "time": 315.7536519999962,
                    "velocity": 0.4094488188976378,
                    "duration": 0.08561650000001464
                },
                {
                    "name": "D5",
                    "midi": 74,
                    "time": 316.0961179999962,
                    "velocity": 0.3858267716535433,
                    "duration": 0.08561650000001464
                },
                {
                    "name": "C5",
                    "midi": 72,
                    "time": 316.4385839999962,
                    "velocity": 0.41732283464566927,
                    "duration": 0.3424660000000017
                },
                {
                    "name": "G4",
                    "midi": 67,
                    "time": 317.06643833332953,
                    "velocity": 0.4409448818897638,
                    "duration": 0.05707766666665748
                },
                {
                    "name": "G5",
                    "midi": 79,
                    "time": 317.1235159999962,
                    "velocity": 0.5196850393700787,
                    "duration": 0.5136989999999741
                },
                {
                    "name": "F5",
                    "midi": 77,
                    "time": 317.63721499999616,
                    "velocity": 0.4409448818897638,
                    "duration": 0.05707766666665748
                },
                {
                    "name": "E5",
                    "midi": 76,
                    "time": 317.6942926666628,
                    "velocity": 0.4409448818897638,
                    "duration": 0.05707766666665748
                },
                {
                    "name": "D5",
                    "midi": 74,
                    "time": 317.7513703333295,
                    "velocity": 0.4094488188976378,
                    "duration": 0.05707766666665748
                },
                {
                    "name": "C5",
                    "midi": 72,
                    "time": 317.80844799999613,
                    "velocity": 0.41732283464566927,
                    "duration": 0.3424660000000017
                },
                {
                    "name": "G4",
                    "midi": 67,
                    "time": 318.4363023333295,
                    "velocity": 0.4409448818897638,
                    "duration": 0.05707766666665748
                },
                {
                    "name": "G5",
                    "midi": 79,
                    "time": 318.49337999999614,
                    "velocity": 0.5196850393700787,
                    "duration": 0.5136989999999741
                },
                {
                    "name": "A5",
                    "midi": 81,
                    "time": 319.0070789999961,
                    "velocity": 0.47244094488188976,
                    "duration": 0.08561650000001464
                },
                {
                    "name": "B5",
                    "midi": 83,
                    "time": 319.0926954999961,
                    "velocity": 0.4330708661417323,
                    "duration": 0.08561650000001464
                },
                {
                    "name": "C6",
                    "midi": 84,
                    "time": 319.17831199999614,
                    "velocity": 0.5275590551181102,
                    "duration": 0.3424660000000017
                },
                {
                    "name": "G5",
                    "midi": 79,
                    "time": 319.86324399999614,
                    "velocity": 0.5433070866141733,
                    "duration": 0.11415533333331496
                },
                {
                    "name": "A5",
                    "midi": 81,
                    "time": 319.97739933332946,
                    "velocity": 0.49606299212598426,
                    "duration": 0.11415533333331496
                },
                {
                    "name": "G5",
                    "midi": 79,
                    "time": 320.0915546666628,
                    "velocity": 0.49606299212598426,
                    "duration": 0.11415533333331496
                },
                {
                    "name": "F5",
                    "midi": 77,
                    "time": 320.2057099999961,
                    "velocity": 0.5118110236220472,
                    "duration": 0.11415533333331496
                },
                {
                    "name": "E5",
                    "midi": 76,
                    "time": 320.3198653333294,
                    "velocity": 0.49606299212598426,
                    "duration": 0.11415533333331496
                },
                {
                    "name": "D5",
                    "midi": 74,
                    "time": 320.4340206666627,
                    "velocity": 0.4645669291338583,
                    "duration": 0.11415533333331496
                },
                {
                    "name": "C5",
                    "midi": 72,
                    "time": 320.54817599999603,
                    "velocity": 0.47244094488188976,
                    "duration": 0.3424660000000017
                },
                {
                    "name": "F#5",
                    "midi": 78,
                    "time": 321.23310799999604,
                    "velocity": 0.5669291338582677,
                    "duration": 0.11415533333331496
                },
                {
                    "name": "G5",
                    "midi": 79,
                    "time": 321.34726333332935,
                    "velocity": 0.5118110236220472,
                    "duration": 0.11415533333331496
                },
                {
                    "name": "G#5",
                    "midi": 80,
                    "time": 321.46141866666267,
                    "velocity": 0.5196850393700787,
                    "duration": 0.11415533333331496
                },
                {
                    "name": "A5",
                    "midi": 81,
                    "time": 321.575573999996,
                    "velocity": 0.5433070866141733,
                    "duration": 0.11415533333331496
                },
                {
                    "name": "A#5",
                    "midi": 82,
                    "time": 321.6897293333293,
                    "velocity": 0.5275590551181102,
                    "duration": 0.11415533333331496
                },
                {
                    "name": "B5",
                    "midi": 83,
                    "time": 321.8038846666626,
                    "velocity": 0.5118110236220472,
                    "duration": 0.11415533333331496
                },
                {
                    "name": "C6",
                    "midi": 84,
                    "time": 321.9180399999959,
                    "velocity": 0.47244094488188976,
                    "duration": 0.3424660000000017
                },
                {
                    "name": "G4",
                    "midi": 67,
                    "time": 322.2605059999959,
                    "velocity": 0.33070866141732286,
                    "duration": 0.2568494999999871
                },
                {
                    "name": "C5",
                    "midi": 72,
                    "time": 322.5173554999959,
                    "velocity": 0.33070866141732286,
                    "duration": 0.08561650000001464
                },
                {
                    "name": "E5",
                    "midi": 76,
                    "time": 322.60297199999593,
                    "velocity": 0.3464566929133858,
                    "duration": 0.08561650000001464
                },
                {
                    "name": "F4",
                    "midi": 65,
                    "time": 322.94543799999593,
                    "velocity": 0.3228346456692913,
                    "duration": 0.08561650000001464
                },
                {
                    "name": "D5",
                    "midi": 74,
                    "time": 322.94543799999593,
                    "velocity": 0.3228346456692913,
                    "duration": 0.08561650000001464
                },
                {
                    "name": "F4",
                    "midi": 65,
                    "time": 323.28790399999593,
                    "velocity": 0.33070866141732286,
                    "duration": 0.6849320000000034
                },
                {
                    "name": "D5",
                    "midi": 74,
                    "time": 323.28790399999593,
                    "velocity": 0.33070866141732286,
                    "duration": 0.6849320000000034
                },
                {
                    "name": "E4",
                    "midi": 64,
                    "time": 323.97283599999594,
                    "velocity": 0.28346456692913385,
                    "duration": 0.3424660000000017
                },
                {
                    "name": "C5",
                    "midi": 72,
                    "time": 323.97283599999594,
                    "velocity": 0.28346456692913385,
                    "duration": 0.3424660000000017
                },
                {
                    "name": "A5",
                    "midi": 81,
                    "time": 324.65776799999594,
                    "velocity": 0.6220472440944882,
                    "duration": 0.17123299999997244
                },
                {
                    "name": "F5",
                    "midi": 77,
                    "time": 324.65776799999594,
                    "velocity": 0.5196850393700787,
                    "duration": 0.17123299999997244
                },
                {
                    "name": "D5",
                    "midi": 74,
                    "time": 324.65776799999594,
                    "velocity": 0.5196850393700787,
                    "duration": 0.17123299999997244
                },
                {
                    "name": "A4",
                    "midi": 69,
                    "time": 324.65776799999594,
                    "velocity": 0.5196850393700787,
                    "duration": 0.17123299999997244
                },
                {
                    "name": "D4",
                    "midi": 62,
                    "time": 325.3426999999959,
                    "velocity": 0.5196850393700787,
                    "duration": 0.17123299999997244
                },
                {
                    "name": "F4",
                    "midi": 65,
                    "time": 325.3426999999959,
                    "velocity": 0.5196850393700787,
                    "duration": 0.17123299999997244
                },
                {
                    "name": "G4",
                    "midi": 67,
                    "time": 325.3426999999959,
                    "velocity": 0.5196850393700787,
                    "duration": 0.17123299999997244
                },
                {
                    "name": "B4",
                    "midi": 71,
                    "time": 325.3426999999959,
                    "velocity": 0.6220472440944882,
                    "duration": 0.17123299999997244
                },
                {
                    "name": "G4",
                    "midi": 67,
                    "time": 326.02763199999583,
                    "velocity": 0.5196850393700787,
                    "duration": 0.17123299999997244
                },
                {
                    "name": "C4",
                    "midi": 60,
                    "time": 326.02763199999583,
                    "velocity": 0.5196850393700787,
                    "duration": 0.17123299999997244
                },
                {
                    "name": "E4",
                    "midi": 64,
                    "time": 326.02763199999583,
                    "velocity": 0.5196850393700787,
                    "duration": 0.17123299999997244
                },
                {
                    "name": "C5",
                    "midi": 72,
                    "time": 326.02763199999583,
                    "velocity": 0.6220472440944882,
                    "duration": 0.17123299999997244
                },
                {
                    "name": "D5",
                    "midi": 74,
                    "time": 327.3974959999958,
                    "velocity": 0.3700787401574803,
                    "duration": 0.3424660000000017
                },
                {
                    "name": "B4",
                    "midi": 71,
                    "time": 327.7399619999958,
                    "velocity": 0.33858267716535434,
                    "duration": 0.17123299999997244
                },
                {
                    "name": "B4",
                    "midi": 71,
                    "time": 328.08242799999573,
                    "velocity": 0.33858267716535434,
                    "duration": 0.17123299999997244
                },
                {
                    "name": "B4",
                    "midi": 71,
                    "time": 328.4248939999957,
                    "velocity": 0.28346456692913385,
                    "duration": 0.034246600000017224
                },
                {
                    "name": "C5",
                    "midi": 72,
                    "time": 328.4591405999957,
                    "velocity": 0.28346456692913385,
                    "duration": 0.034246600000017224
                },
                {
                    "name": "B4",
                    "midi": 71,
                    "time": 328.4933871999957,
                    "velocity": 0.28346456692913385,
                    "duration": 0.034246600000017224
                },
                {
                    "name": "C5",
                    "midi": 72,
                    "time": 328.5276337999957,
                    "velocity": 0.28346456692913385,
                    "duration": 0.034246600000017224
                },
                {
                    "name": "B4",
                    "midi": 71,
                    "time": 328.56188039999574,
                    "velocity": 0.28346456692913385,
                    "duration": 0.034246600000017224
                },
                {
                    "name": "A4",
                    "midi": 69,
                    "time": 328.59612699999576,
                    "velocity": 0.3228346456692913,
                    "duration": 0.08561650000001464
                },
                {
                    "name": "B4",
                    "midi": 71,
                    "time": 328.6817434999958,
                    "velocity": 0.3228346456692913,
                    "duration": 0.08561650000001464
                },
                {
                    "name": "D5",
                    "midi": 74,
                    "time": 328.7673599999958,
                    "velocity": 0.3858267716535433,
                    "duration": 0.3424660000000017
                },
                {
                    "name": "C5",
                    "midi": 72,
                    "time": 329.1098259999958,
                    "velocity": 0.33858267716535434,
                    "duration": 0.08561650000001464
                },
                {
                    "name": "A4",
                    "midi": 69,
                    "time": 329.4522919999958,
                    "velocity": 0.33858267716535434,
                    "duration": 0.6849320000000034
                },
                {
                    "name": "C5",
                    "midi": 72,
                    "time": 330.1372239999958,
                    "velocity": 0.4015748031496063,
                    "duration": 0.3424660000000017
                },
                {
                    "name": "B4",
                    "midi": 71,
                    "time": 330.4796899999958,
                    "velocity": 0.3464566929133858,
                    "duration": 0.08561650000001464
                },
                {
                    "name": "D5",
                    "midi": 74,
                    "time": 330.8221559999958,
                    "velocity": 0.41732283464566927,
                    "duration": 0.3424660000000017
                },
                {
                    "name": "C5",
                    "midi": 72,
                    "time": 331.1646219999958,
                    "velocity": 0.33858267716535434,
                    "duration": 0.08561650000001464
                },
                {
                    "name": "E5",
                    "midi": 76,
                    "time": 331.5070879999958,
                    "velocity": 0.47244094488188976,
                    "duration": 0.6849320000000034
                },
                {
                    "name": "D5",
                    "midi": 74,
                    "time": 332.1920199999958,
                    "velocity": 0.3858267716535433,
                    "duration": 0.3424660000000017
                },
                {
                    "name": "D5",
                    "midi": 74,
                    "time": 332.8769519999958,
                    "velocity": 0.47244094488188976,
                    "duration": 0.3424660000000017
                },
                {
                    "name": "G4",
                    "midi": 67,
                    "time": 333.2194179999958,
                    "velocity": 0.3937007874015748,
                    "duration": 0.17123299999997244
                },
                {
                    "name": "G4",
                    "midi": 67,
                    "time": 333.56188399999576,
                    "velocity": 0.3937007874015748,
                    "duration": 0.3424660000000017
                },
                {
                    "name": "G#4",
                    "midi": 68,
                    "time": 333.90434999999576,
                    "velocity": 0.33070866141732286,
                    "duration": 0.034246600000017224
                },
                {
                    "name": "A4",
                    "midi": 69,
                    "time": 333.9385965999958,
                    "velocity": 0.33070866141732286,
                    "duration": 0.034246600000017224
                },
                {
                    "name": "G#4",
                    "midi": 68,
                    "time": 333.9728431999958,
                    "velocity": 0.33070866141732286,
                    "duration": 0.034246600000017224
                },
                {
                    "name": "A4",
                    "midi": 69,
                    "time": 334.0070897999958,
                    "velocity": 0.33070866141732286,
                    "duration": 0.034246600000017224
                },
                {
                    "name": "G#4",
                    "midi": 68,
                    "time": 334.0413363999958,
                    "velocity": 0.33070866141732286,
                    "duration": 0.034246600000017224
                },
                {
                    "name": "F#4",
                    "midi": 66,
                    "time": 334.07558299999585,
                    "velocity": 0.33858267716535434,
                    "duration": 0.08561650000001464
                },
                {
                    "name": "G#4",
                    "midi": 68,
                    "time": 334.16119949999586,
                    "velocity": 0.33858267716535434,
                    "duration": 0.08561650000001464
                },
                {
                    "name": "A4",
                    "midi": 69,
                    "time": 334.2468159999959,
                    "velocity": 0.3937007874015748,
                    "duration": 0.3424660000000017
                },
                {
                    "name": "C5",
                    "midi": 72,
                    "time": 334.5892819999959,
                    "velocity": 0.3937007874015748,
                    "duration": 0.08561650000001464
                },
                {
                    "name": "E5",
                    "midi": 76,
                    "time": 334.9317479999959,
                    "velocity": 0.47244094488188976,
                    "duration": 0.6849320000000034
                },
                {
                    "name": "D5",
                    "midi": 74,
                    "time": 335.6166799999959,
                    "velocity": 0.3779527559055118,
                    "duration": 0.3424660000000017
                },
                {
                    "name": "G4",
                    "midi": 67,
                    "time": 335.9591459999959,
                    "velocity": 0.33858267716535434,
                    "duration": 0.08561650000001464
                },
                {
                    "name": "C5",
                    "midi": 72,
                    "time": 336.3016119999959,
                    "velocity": 0.3700787401574803,
                    "duration": 0.3424660000000017
                },
                {
                    "name": "F#4",
                    "midi": 66,
                    "time": 336.6440779999959,
                    "velocity": 0.33858267716535434,
                    "duration": 0.08561650000001464
                },
                {
                    "name": "A4",
                    "midi": 69,
                    "time": 336.9865439999959,
                    "velocity": 0.33858267716535434,
                    "duration": 0.6849320000000034
                },
                {
                    "name": "G4",
                    "midi": 67,
                    "time": 337.6714759999959,
                    "velocity": 0.3228346456692913,
                    "duration": 0.3424660000000017
                },
                {
                    "name": "D5",
                    "midi": 74,
                    "time": 338.3564079999959,
                    "velocity": 0.3700787401574803,
                    "duration": 0.3424660000000017
                },
                {
                    "name": "B4",
                    "midi": 71,
                    "time": 338.6988739999959,
                    "velocity": 0.33858267716535434,
                    "duration": 0.17123299999997244
                },
                {
                    "name": "B4",
                    "midi": 71,
                    "time": 339.04133999999584,
                    "velocity": 0.33858267716535434,
                    "duration": 0.17123299999997244
                },
                {
                    "name": "B4",
                    "midi": 71,
                    "time": 339.3838059999958,
                    "velocity": 0.28346456692913385,
                    "duration": 0.034246600000017224
                },
                {
                    "name": "C5",
                    "midi": 72,
                    "time": 339.4180525999958,
                    "velocity": 0.28346456692913385,
                    "duration": 0.034246600000017224
                },
                {
                    "name": "B4",
                    "midi": 71,
                    "time": 339.4522991999958,
                    "velocity": 0.28346456692913385,
                    "duration": 0.034246600000017224
                },
                {
                    "name": "C5",
                    "midi": 72,
                    "time": 339.48654579999584,
                    "velocity": 0.28346456692913385,
                    "duration": 0.034246600000017224
                },
                {
                    "name": "B4",
                    "midi": 71,
                    "time": 339.52079239999586,
                    "velocity": 0.28346456692913385,
                    "duration": 0.034246600000017224
                },
                {
                    "name": "A4",
                    "midi": 69,
                    "time": 339.5550389999959,
                    "velocity": 0.3228346456692913,
                    "duration": 0.08561650000001464
                },
                {
                    "name": "B4",
                    "midi": 71,
                    "time": 339.6406554999959,
                    "velocity": 0.3228346456692913,
                    "duration": 0.08561650000001464
                },
                {
                    "name": "D5",
                    "midi": 74,
                    "time": 339.7262719999959,
                    "velocity": 0.3858267716535433,
                    "duration": 0.3424660000000017
                },
                {
                    "name": "C5",
                    "midi": 72,
                    "time": 340.0687379999959,
                    "velocity": 0.33858267716535434,
                    "duration": 0.08561650000001464
                },
                {
                    "name": "A4",
                    "midi": 69,
                    "time": 340.4112039999959,
                    "velocity": 0.33858267716535434,
                    "duration": 0.6849320000000034
                },
                {
                    "name": "C5",
                    "midi": 72,
                    "time": 341.0961359999959,
                    "velocity": 0.4015748031496063,
                    "duration": 0.3424660000000017
                },
                {
                    "name": "B4",
                    "midi": 71,
                    "time": 341.4386019999959,
                    "velocity": 0.3464566929133858,
                    "duration": 0.08561650000001464
                },
                {
                    "name": "D5",
                    "midi": 74,
                    "time": 341.7810679999959,
                    "velocity": 0.41732283464566927,
                    "duration": 0.3424660000000017
                },
                {
                    "name": "C5",
                    "midi": 72,
                    "time": 342.1235339999959,
                    "velocity": 0.33858267716535434,
                    "duration": 0.08561650000001464
                },
                {
                    "name": "E5",
                    "midi": 76,
                    "time": 342.4659999999959,
                    "velocity": 0.47244094488188976,
                    "duration": 0.6849320000000034
                },
                {
                    "name": "D5",
                    "midi": 74,
                    "time": 343.1509319999959,
                    "velocity": 0.3858267716535433,
                    "duration": 0.3424660000000017
                },
                {
                    "name": "D5",
                    "midi": 74,
                    "time": 343.8358639999959,
                    "velocity": 0.4251968503937008,
                    "duration": 0.3424660000000017
                },
                {
                    "name": "C5",
                    "midi": 72,
                    "time": 344.1783299999959,
                    "velocity": 0.3700787401574803,
                    "duration": 0.08561650000001464
                },
                {
                    "name": "E5",
                    "midi": 76,
                    "time": 344.5207959999959,
                    "velocity": 0.4330708661417323,
                    "duration": 0.3424660000000017
                },
                {
                    "name": "D5",
                    "midi": 74,
                    "time": 344.8632619999959,
                    "velocity": 0.33858267716535434,
                    "duration": 0.08561650000001464
                },
                {
                    "name": "F5",
                    "midi": 77,
                    "time": 345.20572799999593,
                    "velocity": 0.48031496062992124,
                    "duration": 0.6849320000000034
                },
                {
                    "name": "E5",
                    "midi": 76,
                    "time": 345.89065999999593,
                    "velocity": 0.4015748031496063,
                    "duration": 0.3424660000000017
                },
                {
                    "name": "E5",
                    "midi": 76,
                    "time": 346.57559199999594,
                    "velocity": 0.4409448818897638,
                    "duration": 0.3424660000000017
                },
                {
                    "name": "D5",
                    "midi": 74,
                    "time": 346.91805799999594,
                    "velocity": 0.3858267716535433,
                    "duration": 0.08561650000001464
                },
                {
                    "name": "F5",
                    "midi": 77,
                    "time": 347.26052399999594,
                    "velocity": 0.44881889763779526,
                    "duration": 0.3424660000000017
                },
                {
                    "name": "E5",
                    "midi": 76,
                    "time": 347.60298999999594,
                    "velocity": 0.3700787401574803,
                    "duration": 0.08561650000001464
                },
                {
                    "name": "G5",
                    "midi": 79,
                    "time": 347.94545599999594,
                    "velocity": 0.5039370078740157,
                    "duration": 0.6849320000000034
                },
                {
                    "name": "F5",
                    "midi": 77,
                    "time": 348.63038799999595,
                    "velocity": 0.4251968503937008,
                    "duration": 0.3424660000000017
                },
                {
                    "name": "E5",
                    "midi": 76,
                    "time": 349.31531999999595,
                    "velocity": 0.4409448818897638,
                    "duration": 0.5136989999999741
                },
                {
                    "name": "F5",
                    "midi": 77,
                    "time": 349.8290189999959,
                    "velocity": 0.41732283464566927,
                    "duration": 0.08561650000001464
                },
                {
                    "name": "G5",
                    "midi": 79,
                    "time": 349.91463549999594,
                    "velocity": 0.41732283464566927,
                    "duration": 0.08561650000001464
                },
                {
                    "name": "F5",
                    "midi": 77,
                    "time": 350.00025199999595,
                    "velocity": 0.4409448818897638,
                    "duration": 0.3424660000000017
                },
                {
                    "name": "E5",
                    "midi": 76,
                    "time": 350.34271799999595,
                    "velocity": 0.4409448818897638,
                    "duration": 0.17123299999997244
                },
                {
                    "name": "D5",
                    "midi": 74,
                    "time": 350.6851839999959,
                    "velocity": 0.4330708661417323,
                    "duration": 0.6849320000000034
                },
                {
                    "name": "G5",
                    "midi": 79,
                    "time": 351.7125819999959,
                    "velocity": 0.5039370078740157,
                    "duration": 0.17123299999997244
                },
                {
                    "name": "F5",
                    "midi": 77,
                    "time": 352.05504799999585,
                    "velocity": 0.49606299212598426,
                    "duration": 0.3424660000000017
                },
                {
                    "name": "D#5",
                    "midi": 75,
                    "time": 352.39751399999585,
                    "velocity": 0.3464566929133858,
                    "duration": 0.3424660000000017
                },
                {
                    "name": "C5",
                    "midi": 72,
                    "time": 353.08244599999585,
                    "velocity": 0.33858267716535434,
                    "duration": 0.17123299999997244
                },
                {
                    "name": "B4",
                    "midi": 71,
                    "time": 353.4249119999958,
                    "velocity": 0.3937007874015748,
                    "duration": 0.3424660000000017
                },
                {
                    "name": "D5",
                    "midi": 74,
                    "time": 353.7673779999958,
                    "velocity": 0.3700787401574803,
                    "duration": 0.3424660000000017
                },
                {
                    "name": "G5",
                    "midi": 79,
                    "time": 354.4523099999958,
                    "velocity": 0.5039370078740157,
                    "duration": 0.17123299999997244
                },
                {
                    "name": "F5",
                    "midi": 77,
                    "time": 355.13724199999575,
                    "velocity": 0.3700787401574803,
                    "duration": 0.17123299999997244
                },
                {
                    "name": "D#5",
                    "midi": 75,
                    "time": 355.3084749999957,
                    "velocity": 0.3700787401574803,
                    "duration": 0.17123299999997244
                },
                {
                    "name": "D5",
                    "midi": 74,
                    "time": 355.8221739999957,
                    "velocity": 0.33858267716535434,
                    "duration": 0.17123299999997244
                },
                {
                    "name": "C5",
                    "midi": 72,
                    "time": 355.99340699999567,
                    "velocity": 0.33858267716535434,
                    "duration": 0.17123299999997244
                },
                {
                    "name": "B4",
                    "midi": 71,
                    "time": 356.16463999999564,
                    "velocity": 0.4015748031496063,
                    "duration": 0.3424660000000017
                },
                {
                    "name": "D5",
                    "midi": 74,
                    "time": 356.50710599999564,
                    "velocity": 0.33858267716535434,
                    "duration": 0.3424660000000017
                },
                {
                    "name": "G5",
                    "midi": 79,
                    "time": 357.0208049999956,
                    "velocity": 0.48031496062992124,
                    "duration": 0.17123299999997244
                },
                {
                    "name": "F#5",
                    "midi": 78,
                    "time": 357.1920379999956,
                    "velocity": 0.4881889763779528,
                    "duration": 0.17123299999997244
                },
                {
                    "name": "G5",
                    "midi": 79,
                    "time": 357.36327099999556,
                    "velocity": 0.48031496062992124,
                    "duration": 0.17123299999997244
                },
                {
                    "name": "D#5",
                    "midi": 75,
                    "time": 357.7057369999955,
                    "velocity": 0.44881889763779526,
                    "duration": 0.17123299999997244
                },
                {
                    "name": "D5",
                    "midi": 74,
                    "time": 357.8769699999955,
                    "velocity": 0.47244094488188976,
                    "duration": 0.17123299999997244
                },
                {
                    "name": "D#5",
                    "midi": 75,
                    "time": 358.04820299999545,
                    "velocity": 0.4566929133858268,
                    "duration": 0.17123299999997244
                },
                {
                    "name": "C5",
                    "midi": 72,
                    "time": 358.3906689999954,
                    "velocity": 0.4330708661417323,
                    "duration": 0.17123299999997244
                },
                {
                    "name": "B4",
                    "midi": 71,
                    "time": 358.56190199999537,
                    "velocity": 0.44881889763779526,
                    "duration": 0.17123299999997244
                },
                {
                    "name": "C5",
                    "midi": 72,
                    "time": 358.73313499999534,
                    "velocity": 0.4409448818897638,
                    "duration": 0.17123299999997244
                },
                {
                    "name": "B4",
                    "midi": 71,
                    "time": 358.9043679999953,
                    "velocity": 0.5039370078740157,
                    "duration": 0.3424660000000017
                },
                {
                    "name": "D5",
                    "midi": 74,
                    "time": 359.2468339999953,
                    "velocity": 0.4409448818897638,
                    "duration": 0.08561650000001464
                },
                {
                    "name": "B4",
                    "midi": 71,
                    "time": 359.5892999999953,
                    "velocity": 0.4881889763779528,
                    "duration": 0.3424660000000017
                },
                {
                    "name": "D5",
                    "midi": 74,
                    "time": 359.9317659999953,
                    "velocity": 0.4409448818897638,
                    "duration": 0.08561650000001464
                },
                {
                    "name": "B4",
                    "midi": 71,
                    "time": 360.2742319999953,
                    "velocity": 0.4881889763779528,
                    "duration": 0.3424660000000017
                },
                {
                    "name": "D5",
                    "midi": 74,
                    "time": 360.6166979999953,
                    "velocity": 0.4251968503937008,
                    "duration": 0.08561650000001464
                },
                {
                    "name": "D5",
                    "midi": 74,
                    "time": 361.64409599999533,
                    "velocity": 0.29133858267716534,
                    "duration": 0.3424660000000017
                },
                {
                    "name": "F5",
                    "midi": 77,
                    "time": 361.98656199999533,
                    "velocity": 0.2677165354330709,
                    "duration": 0.08561650000001464
                },
                {
                    "name": "D5",
                    "midi": 74,
                    "time": 362.32902799999533,
                    "velocity": 0.29133858267716534,
                    "duration": 0.3424660000000017
                },
                {
                    "name": "F5",
                    "midi": 77,
                    "time": 362.67149399999533,
                    "velocity": 0.2677165354330709,
                    "duration": 0.08561650000001464
                },
                {
                    "name": "D5",
                    "midi": 74,
                    "time": 363.01395999999534,
                    "velocity": 0.29133858267716534,
                    "duration": 0.3424660000000017
                },
                {
                    "name": "F5",
                    "midi": 77,
                    "time": 363.35642599999534,
                    "velocity": 0.2755905511811024,
                    "duration": 0.08561650000001464
                },
                {
                    "name": "E5",
                    "midi": 76,
                    "time": 364.38525094166204,
                    "velocity": 0.47244094488188976,
                    "duration": 0.5122720583333376
                },
                {
                    "name": "F5",
                    "midi": 77,
                    "time": 364.8975229999954,
                    "velocity": 0.4251968503937008,
                    "duration": 0.08561650000001464
                },
                {
                    "name": "G5",
                    "midi": 79,
                    "time": 364.9831394999954,
                    "velocity": 0.4251968503937008,
                    "duration": 0.08561650000001464
                },
                {
                    "name": "C5",
                    "midi": 72,
                    "time": 365.0687559999954,
                    "velocity": 0.47244094488188976,
                    "duration": 0.3424660000000017
                },
                {
                    "name": "D5",
                    "midi": 74,
                    "time": 365.4112219999954,
                    "velocity": 0.3858267716535433,
                    "duration": 0.3424660000000017
                },
                {
                    "name": "B4",
                    "midi": 71,
                    "time": 365.4112219999954,
                    "velocity": 0.3858267716535433,
                    "duration": 0.3424660000000017
                },
                {
                    "name": "B4",
                    "midi": 71,
                    "time": 365.7536879999954,
                    "velocity": 0.41732283464566927,
                    "duration": 0.3424660000000017
                },
                {
                    "name": "D5",
                    "midi": 74,
                    "time": 365.7536879999954,
                    "velocity": 0.41732283464566927,
                    "duration": 0.2568494999999871
                },
                {
                    "name": "F5",
                    "midi": 77,
                    "time": 366.0105374999954,
                    "velocity": 0.3779527559055118,
                    "duration": 0.08561650000001464
                },
                {
                    "name": "E5",
                    "midi": 76,
                    "time": 366.0961539999954,
                    "velocity": 0.41732283464566927,
                    "duration": 0.3424660000000017
                },
                {
                    "name": "C5",
                    "midi": 72,
                    "time": 366.0961539999954,
                    "velocity": 0.41732283464566927,
                    "duration": 0.3424660000000017
                },
                {
                    "name": "B4",
                    "midi": 71,
                    "time": 366.4386199999954,
                    "velocity": 0.3937007874015748,
                    "duration": 0.6849320000000034
                },
                {
                    "name": "D5",
                    "midi": 74,
                    "time": 366.4386199999954,
                    "velocity": 0.3937007874015748,
                    "duration": 0.6849320000000034
                },
                {
                    "name": "E5",
                    "midi": 76,
                    "time": 367.1235519999954,
                    "velocity": 0.47244094488188976,
                    "duration": 0.5136989999999741
                },
                {
                    "name": "F5",
                    "midi": 77,
                    "time": 367.6372509999954,
                    "velocity": 0.4409448818897638,
                    "duration": 0.08561650000001464
                },
                {
                    "name": "G5",
                    "midi": 79,
                    "time": 367.7228674999954,
                    "velocity": 0.4409448818897638,
                    "duration": 0.08561650000001464
                },
                {
                    "name": "C5",
                    "midi": 72,
                    "time": 367.8084839999954,
                    "velocity": 0.48031496062992124,
                    "duration": 0.3424660000000017
                },
                {
                    "name": "D5",
                    "midi": 74,
                    "time": 368.1509499999954,
                    "velocity": 0.3858267716535433,
                    "duration": 0.17123299999997244
                },
                {
                    "name": "B4",
                    "midi": 71,
                    "time": 368.1509499999954,
                    "velocity": 0.3858267716535433,
                    "duration": 0.17123299999997244
                },
                {
                    "name": "F5",
                    "midi": 77,
                    "time": 368.49341599999536,
                    "velocity": 0.4251968503937008,
                    "duration": 0.3424660000000017
                },
                {
                    "name": "D5",
                    "midi": 74,
                    "time": 368.49341599999536,
                    "velocity": 0.4251968503937008,
                    "duration": 0.3424660000000017
                },
                {
                    "name": "E5",
                    "midi": 76,
                    "time": 368.83588199999537,
                    "velocity": 0.3858267716535433,
                    "duration": 0.0684931999999776
                },
                {
                    "name": "C5",
                    "midi": 72,
                    "time": 368.83588199999537,
                    "velocity": 0.3858267716535433,
                    "duration": 0.342465999999888
                },
                {
                    "name": "F5",
                    "midi": 77,
                    "time": 368.90437519999534,
                    "velocity": 0.3858267716535433,
                    "duration": 0.0684931999999776
                },
                {
                    "name": "E5",
                    "midi": 76,
                    "time": 368.9728683999953,
                    "velocity": 0.3858267716535433,
                    "duration": 0.0684931999999776
                },
                {
                    "name": "F5",
                    "midi": 77,
                    "time": 369.0413615999953,
                    "velocity": 0.3858267716535433,
                    "duration": 0.0684931999999776
                },
                {
                    "name": "E5",
                    "midi": 76,
                    "time": 369.1098547999953,
                    "velocity": 0.3858267716535433,
                    "duration": 0.0684931999999776
                },
                {
                    "name": "B4",
                    "midi": 71,
                    "time": 369.17834799999525,
                    "velocity": 0.4094488188976378,
                    "duration": 0.6849320000000034
                },
                {
                    "name": "D5",
                    "midi": 74,
                    "time": 369.17834799999525,
                    "velocity": 0.4094488188976378,
                    "duration": 0.6849320000000034
                },
                {
                    "name": "F5",
                    "midi": 77,
                    "time": 369.86327999999526,
                    "velocity": 0.5039370078740157,
                    "duration": 0.5136989999999741
                },
                {
                    "name": "G5",
                    "midi": 79,
                    "time": 370.37697899999523,
                    "velocity": 0.47244094488188976,
                    "duration": 0.08561650000001464
                },
                {
                    "name": "F5",
                    "midi": 77,
                    "time": 370.46259549999525,
                    "velocity": 0.47244094488188976,
                    "duration": 0.08561650000001464
                },
                {
                    "name": "E5",
                    "midi": 76,
                    "time": 370.54821199999526,
                    "velocity": 0.5039370078740157,
                    "duration": 0.3424660000000017
                },
                {
                    "name": "E5",
                    "midi": 76,
                    "time": 370.89067799999526,
                    "velocity": 0.4881889763779528,
                    "duration": 0.17123299999997244
                },
                {
                    "name": "A5",
                    "midi": 81,
                    "time": 371.2331439999952,
                    "velocity": 0.5433070866141733,
                    "duration": 0.5136989999999741
                },
                {
                    "name": "B5",
                    "midi": 83,
                    "time": 371.7468429999952,
                    "velocity": 0.49606299212598426,
                    "duration": 0.08561650000001464
                },
                {
                    "name": "C6",
                    "midi": 84,
                    "time": 371.8324594999952,
                    "velocity": 0.49606299212598426,
                    "duration": 0.08561650000001464
                },
                {
                    "name": "G5",
                    "midi": 79,
                    "time": 371.9180759999952,
                    "velocity": 0.5433070866141733,
                    "duration": 0.3424660000000017
                },
                {
                    "name": "G5",
                    "midi": 79,
                    "time": 372.2605419999952,
                    "velocity": 0.5433070866141733,
                    "duration": 0.17123299999997244
                },
                {
                    "name": "G5",
                    "midi": 79,
                    "time": 372.60300799999516,
                    "velocity": 0.5354330708661418,
                    "duration": 0.17123299999997244
                },
                {
                    "name": "F5",
                    "midi": 77,
                    "time": 372.77424099999513,
                    "velocity": 0.49606299212598426,
                    "duration": 0.12842475000002196
                },
                {
                    "name": "F5",
                    "midi": 77,
                    "time": 372.94547399999516,
                    "velocity": 0.5039370078740157,
                    "duration": 0.17123299999997244
                },
                {
                    "name": "D5",
                    "midi": 74,
                    "time": 373.11670699999513,
                    "velocity": 0.49606299212598426,
                    "duration": 0.12842475000002196
                },
                {
                    "name": "F5",
                    "midi": 77,
                    "time": 373.28793999999516,
                    "velocity": 0.5433070866141733,
                    "duration": 0.17123299999997244
                },
                {
                    "name": "E5",
                    "midi": 76,
                    "time": 373.45917299999513,
                    "velocity": 0.5039370078740157,
                    "duration": 0.12842475000002196
                },
                {
                    "name": "E5",
                    "midi": 76,
                    "time": 373.63040599999516,
                    "velocity": 0.5196850393700787,
                    "duration": 0.17123299999997244
                },
                {
                    "name": "C5",
                    "midi": 72,
                    "time": 373.80163899999513,
                    "velocity": 0.5039370078740157,
                    "duration": 0.12842475000002196
                },
                {
                    "name": "C#5",
                    "midi": 73,
                    "time": 373.97287199999516,
                    "velocity": 0.5039370078740157,
                    "duration": 0.17123299999997244
                },
                {
                    "name": "D5",
                    "midi": 74,
                    "time": 374.14410499999514,
                    "velocity": 0.47244094488188976,
                    "duration": 0.17123299999997244
                },
                {
                    "name": "E5",
                    "midi": 76,
                    "time": 374.3153379999951,
                    "velocity": 0.5039370078740157,
                    "duration": 0.17123299999997244
                },
                {
                    "name": "D5",
                    "midi": 74,
                    "time": 374.4865709999951,
                    "velocity": 0.4881889763779528,
                    "duration": 0.17123299999997244
                },
                {
                    "name": "C5",
                    "midi": 72,
                    "time": 374.65780399999505,
                    "velocity": 0.49606299212598426,
                    "duration": 0.17123299999997244
                },
                {
                    "name": "B4",
                    "midi": 71,
                    "time": 374.829036999995,
                    "velocity": 0.48031496062992124,
                    "duration": 0.17123299999997244
                },
                {
                    "name": "A4",
                    "midi": 69,
                    "time": 375.000269999995,
                    "velocity": 0.48031496062992124,
                    "duration": 0.17123299999997244
                },
                {
                    "name": "G4",
                    "midi": 67,
                    "time": 375.17150299999497,
                    "velocity": 0.47244094488188976,
                    "duration": 0.17123299999997244
                },
                {
                    "name": "E5",
                    "midi": 76,
                    "time": 375.34273599999494,
                    "velocity": 0.5511811023622047,
                    "duration": 0.5136989999999741
                },
                {
                    "name": "F5",
                    "midi": 77,
                    "time": 375.8564349999949,
                    "velocity": 0.5039370078740157,
                    "duration": 0.08561650000001464
                },
                {
                    "name": "G5",
                    "midi": 79,
                    "time": 375.94205149999493,
                    "velocity": 0.5039370078740157,
                    "duration": 0.08561650000001464
                },
                {
                    "name": "C5",
                    "midi": 72,
                    "time": 376.02766799999495,
                    "velocity": 0.5511811023622047,
                    "duration": 0.3424660000000017
                },
                {
                    "name": "B4",
                    "midi": 71,
                    "time": 376.37013399999495,
                    "velocity": 0.47244094488188976,
                    "duration": 0.3424660000000017
                },
                {
                    "name": "D5",
                    "midi": 74,
                    "time": 376.37013399999495,
                    "velocity": 0.47244094488188976,
                    "duration": 0.3424660000000017
                },
                {
                    "name": "D5",
                    "midi": 74,
                    "time": 376.71259999999495,
                    "velocity": 0.49606299212598426,
                    "duration": 0.2568494999999871
                },
                {
                    "name": "B4",
                    "midi": 71,
                    "time": 376.71259999999495,
                    "velocity": 0.49606299212598426,
                    "duration": 0.3424660000000017
                },
                {
                    "name": "F5",
                    "midi": 77,
                    "time": 376.96944949999494,
                    "velocity": 0.44881889763779526,
                    "duration": 0.08561650000001464
                },
                {
                    "name": "C5",
                    "midi": 72,
                    "time": 377.05506599999495,
                    "velocity": 0.49606299212598426,
                    "duration": 0.3424660000000017
                },
                {
                    "name": "E5",
                    "midi": 76,
                    "time": 377.05506599999495,
                    "velocity": 0.49606299212598426,
                    "duration": 0.3424660000000017
                },
                {
                    "name": "B4",
                    "midi": 71,
                    "time": 377.39753199999495,
                    "velocity": 0.48031496062992124,
                    "duration": 0.6849320000000034
                },
                {
                    "name": "D5",
                    "midi": 74,
                    "time": 377.39753199999495,
                    "velocity": 0.48031496062992124,
                    "duration": 0.6849320000000034
                },
                {
                    "name": "E5",
                    "midi": 76,
                    "time": 378.08246399999496,
                    "velocity": 0.5511811023622047,
                    "duration": 0.5136989999999741
                },
                {
                    "name": "F5",
                    "midi": 77,
                    "time": 378.59616299999493,
                    "velocity": 0.5275590551181102,
                    "duration": 0.08561650000001464
                },
                {
                    "name": "G5",
                    "midi": 79,
                    "time": 378.68177949999495,
                    "velocity": 0.5275590551181102,
                    "duration": 0.08561650000001464
                },
                {
                    "name": "C5",
                    "midi": 72,
                    "time": 378.76739599999496,
                    "velocity": 0.5590551181102362,
                    "duration": 0.3424660000000017
                },
                {
                    "name": "D5",
                    "midi": 74,
                    "time": 379.10986199999496,
                    "velocity": 0.47244094488188976,
                    "duration": 0.17123299999997244
                },
                {
                    "name": "B4",
                    "midi": 71,
                    "time": 379.10986199999496,
                    "velocity": 0.47244094488188976,
                    "duration": 0.17123299999997244
                },
                {
                    "name": "D5",
                    "midi": 74,
                    "time": 379.4523279999949,
                    "velocity": 0.5039370078740157,
                    "duration": 0.3424660000000017
                },
                {
                    "name": "F5",
                    "midi": 77,
                    "time": 379.4523279999949,
                    "velocity": 0.5039370078740157,
                    "duration": 0.3424660000000017
                },
                {
                    "name": "C5",
                    "midi": 72,
                    "time": 379.7947939999949,
                    "velocity": 0.47244094488188976,
                    "duration": 0.342465999999888
                },
                {
                    "name": "E5",
                    "midi": 76,
                    "time": 379.7947939999949,
                    "velocity": 0.47244094488188976,
                    "duration": 0.0684931999999776
                },
                {
                    "name": "F5",
                    "midi": 77,
                    "time": 379.8632871999949,
                    "velocity": 0.47244094488188976,
                    "duration": 0.0684931999999776
                },
                {
                    "name": "E5",
                    "midi": 76,
                    "time": 379.93178039999486,
                    "velocity": 0.47244094488188976,
                    "duration": 0.0684931999999776
                },
                {
                    "name": "F5",
                    "midi": 77,
                    "time": 380.00027359999484,
                    "velocity": 0.47244094488188976,
                    "duration": 0.0684931999999776
                },
                {
                    "name": "E5",
                    "midi": 76,
                    "time": 380.0687667999948,
                    "velocity": 0.47244094488188976,
                    "duration": 0.0684931999999776
                },
                {
                    "name": "B4",
                    "midi": 71,
                    "time": 380.1372599999948,
                    "velocity": 0.4881889763779528,
                    "duration": 0.6849320000000034
                },
                {
                    "name": "D5",
                    "midi": 74,
                    "time": 380.1372599999948,
                    "velocity": 0.4881889763779528,
                    "duration": 0.6849320000000034
                },
                {
                    "name": "F5",
                    "midi": 77,
                    "time": 380.8221919999948,
                    "velocity": 0.6062992125984252,
                    "duration": 0.5136989999999741
                },
                {
                    "name": "G5",
                    "midi": 79,
                    "time": 381.3358909999948,
                    "velocity": 0.5511811023622047,
                    "duration": 0.08561650000001464
                },
                {
                    "name": "F5",
                    "midi": 77,
                    "time": 381.4215074999948,
                    "velocity": 0.5511811023622047,
                    "duration": 0.08561650000001464
                },
                {
                    "name": "E5",
                    "midi": 76,
                    "time": 381.5071239999948,
                    "velocity": 0.6062992125984252,
                    "duration": 0.3424660000000017
                },
                {
                    "name": "E5",
                    "midi": 76,
                    "time": 381.8495899999948,
                    "velocity": 0.5826771653543307,
                    "duration": 0.17123299999997244
                },
                {
                    "name": "A5",
                    "midi": 81,
                    "time": 382.19205599999475,
                    "velocity": 0.6141732283464567,
                    "duration": 0.5136989999999741
                },
                {
                    "name": "B5",
                    "midi": 83,
                    "time": 382.7057549999947,
                    "velocity": 0.5590551181102362,
                    "duration": 0.08561650000001464
                },
                {
                    "name": "C6",
                    "midi": 84,
                    "time": 382.79137149999474,
                    "velocity": 0.5433070866141733,
                    "duration": 0.08561650000001464
                },
                {
                    "name": "G5",
                    "midi": 79,
                    "time": 382.87698799999475,
                    "velocity": 0.6220472440944882,
                    "duration": 0.3424660000000017
                },
                {
                    "name": "G5",
                    "midi": 79,
                    "time": 383.21945399999476,
                    "velocity": 0.6062992125984252,
                    "duration": 0.17123299999997244
                },
                {
                    "name": "G#5",
                    "midi": 80,
                    "time": 383.5619199999947,
                    "velocity": 0.6062992125984252,
                    "duration": 0.17123299999997244
                },
                {
                    "name": "A5",
                    "midi": 81,
                    "time": 383.7331529999947,
                    "velocity": 0.5826771653543307,
                    "duration": 0.17123299999997244
                },
                {
                    "name": "F5",
                    "midi": 77,
                    "time": 383.90438599999464,
                    "velocity": 0.5905511811023622,
                    "duration": 0.17123299999997244
                },
                {
                    "name": "D5",
                    "midi": 74,
                    "time": 384.0756189999946,
                    "velocity": 0.5669291338582677,
                    "duration": 0.17123299999997244
                },
                {
                    "name": "C5",
                    "midi": 72,
                    "time": 384.2468519999946,
                    "velocity": 0.5905511811023622,
                    "duration": 0.3424660000000017
                },
                {
                    "name": "B4",
                    "midi": 71,
                    "time": 384.5893179999946,
                    "velocity": 0.5590551181102362,
                    "duration": 0.3424660000000017
                },
                {
                    "name": "C5",
                    "midi": 72,
                    "time": 384.9317839999946,
                    "velocity": 0.5905511811023622,
                    "duration": 0.11415533333331496
                },
                {
                    "name": "G4",
                    "midi": 67,
                    "time": 385.0459393333279,
                    "velocity": 0.5433070866141733,
                    "duration": 0.11415533333331496
                },
                {
                    "name": "E5",
                    "midi": 76,
                    "time": 385.1600946666612,
                    "velocity": 0.5196850393700787,
                    "duration": 0.11415533333331496
                },
                {
                    "name": "C5",
                    "midi": 72,
                    "time": 385.27424999999454,
                    "velocity": 0.5905511811023622,
                    "duration": 0.11415533333331496
                },
                {
                    "name": "G5",
                    "midi": 79,
                    "time": 385.38840533332785,
                    "velocity": 0.5433070866141733,
                    "duration": 0.11415533333331496
                },
                {
                    "name": "E5",
                    "midi": 76,
                    "time": 385.50256066666117,
                    "velocity": 0.5196850393700787,
                    "duration": 0.11415533333331496
                },
                {
                    "name": "C6",
                    "midi": 84,
                    "time": 385.6167159999945,
                    "velocity": 0.5748031496062992,
                    "duration": 0.11415533333331496
                },
                {
                    "name": "B5",
                    "midi": 83,
                    "time": 385.7308713333278,
                    "velocity": 0.5196850393700787,
                    "duration": 0.11415533333331496
                },
                {
                    "name": "A5",
                    "midi": 81,
                    "time": 385.8450266666611,
                    "velocity": 0.5118110236220472,
                    "duration": 0.11415533333331496
                },
                {
                    "name": "G5",
                    "midi": 79,
                    "time": 385.9591819999944,
                    "velocity": 0.5511811023622047,
                    "duration": 0.11415533333331496
                },
                {
                    "name": "F5",
                    "midi": 77,
                    "time": 386.07333733332774,
                    "velocity": 0.5275590551181102,
                    "duration": 0.11415533333331496
                },
                {
                    "name": "E5",
                    "midi": 76,
                    "time": 386.18749266666106,
                    "velocity": 0.5118110236220472,
                    "duration": 0.11415533333331496
                },
                {
                    "name": "C#5",
                    "midi": 73,
                    "time": 386.3016479999944,
                    "velocity": 0.49606299212598426,
                    "duration": 0.11415533333331496
                },
                {
                    "name": "D5",
                    "midi": 74,
                    "time": 386.4158033333277,
                    "velocity": 0.47244094488188976,
                    "duration": 0.11415533333331496
                },
                {
                    "name": "F5",
                    "midi": 77,
                    "time": 386.529958666661,
                    "velocity": 0.47244094488188976,
                    "duration": 0.11415533333331496
                },
                {
                    "name": "A5",
                    "midi": 81,
                    "time": 386.6441139999943,
                    "velocity": 0.4881889763779528,
                    "duration": 0.11415533333331496
                },
                {
                    "name": "F5",
                    "midi": 77,
                    "time": 386.75826933332763,
                    "velocity": 0.44881889763779526,
                    "duration": 0.11415533333331496
                },
                {
                    "name": "D5",
                    "midi": 74,
                    "time": 386.87242466666095,
                    "velocity": 0.44881889763779526,
                    "duration": 0.11415533333331496
                },
                {
                    "name": "G5",
                    "midi": 79,
                    "time": 386.98657999999426,
                    "velocity": 0.48031496062992124,
                    "duration": 0.11415533333331496
                },
                {
                    "name": "E5",
                    "midi": 76,
                    "time": 387.1007353333276,
                    "velocity": 0.44881889763779526,
                    "duration": 0.11415533333331496
                },
                {
                    "name": "C5",
                    "midi": 72,
                    "time": 387.2148906666609,
                    "velocity": 0.44881889763779526,
                    "duration": 0.11415533333331496
                },
                {
                    "name": "F5",
                    "midi": 77,
                    "time": 387.3290459999942,
                    "velocity": 0.48031496062992124,
                    "duration": 0.11415533333331496
                },
                {
                    "name": "D5",
                    "midi": 74,
                    "time": 387.4432013333275,
                    "velocity": 0.4330708661417323,
                    "duration": 0.11415533333331496
                },
                {
                    "name": "B4",
                    "midi": 71,
                    "time": 387.55735666666084,
                    "velocity": 0.4330708661417323,
                    "duration": 0.11415533333331496
                },
                {
                    "name": "C5",
                    "midi": 72,
                    "time": 387.67151199999415,
                    "velocity": 0.5905511811023622,
                    "duration": 0.11415533333331496
                },
                {
                    "name": "G4",
                    "midi": 67,
                    "time": 387.78566733332747,
                    "velocity": 0.5433070866141733,
                    "duration": 0.11415533333331496
                },
                {
                    "name": "E5",
                    "midi": 76,
                    "time": 387.8998226666608,
                    "velocity": 0.5275590551181102,
                    "duration": 0.11415533333331496
                },
                {
                    "name": "C5",
                    "midi": 72,
                    "time": 388.0139779999941,
                    "velocity": 0.5905511811023622,
                    "duration": 0.11415533333331496
                },
                {
                    "name": "G5",
                    "midi": 79,
                    "time": 388.1281333333274,
                    "velocity": 0.5433070866141733,
                    "duration": 0.11415533333331496
                },
                {
                    "name": "E5",
                    "midi": 76,
                    "time": 388.2422886666607,
                    "velocity": 0.5275590551181102,
                    "duration": 0.11415533333331496
                },
                {
                    "name": "C6",
                    "midi": 84,
                    "time": 388.35644399999404,
                    "velocity": 0.5748031496062992,
                    "duration": 0.11415533333331496
                },
                {
                    "name": "B5",
                    "midi": 83,
                    "time": 388.47059933332736,
                    "velocity": 0.5196850393700787,
                    "duration": 0.11415533333331496
                },
                {
                    "name": "A5",
                    "midi": 81,
                    "time": 388.5847546666607,
                    "velocity": 0.5039370078740157,
                    "duration": 0.11415533333331496
                },
                {
                    "name": "G5",
                    "midi": 79,
                    "time": 388.698909999994,
                    "velocity": 0.5511811023622047,
                    "duration": 0.11415533333331496
                },
                {
                    "name": "F5",
                    "midi": 77,
                    "time": 388.8130653333273,
                    "velocity": 0.5275590551181102,
                    "duration": 0.11415533333331496
                },
                {
                    "name": "E5",
                    "midi": 76,
                    "time": 388.9272206666606,
                    "velocity": 0.5118110236220472,
                    "duration": 0.11415533333331496
                },
                {
                    "name": "C#5",
                    "midi": 73,
                    "time": 389.04137599999393,
                    "velocity": 0.49606299212598426,
                    "duration": 0.11415533333331496
                },
                {
                    "name": "D5",
                    "midi": 74,
                    "time": 389.15553133332725,
                    "velocity": 0.47244094488188976,
                    "duration": 0.11415533333331496
                },
                {
                    "name": "F5",
                    "midi": 77,
                    "time": 389.26968666666056,
                    "velocity": 0.4645669291338583,
                    "duration": 0.11415533333331496
                },
                {
                    "name": "A5",
                    "midi": 81,
                    "time": 389.3838419999939,
                    "velocity": 0.4881889763779528,
                    "duration": 0.11415533333331496
                },
                {
                    "name": "F5",
                    "midi": 77,
                    "time": 389.4979973333272,
                    "velocity": 0.44881889763779526,
                    "duration": 0.11415533333331496
                },
                {
                    "name": "D5",
                    "midi": 74,
                    "time": 389.6121526666605,
                    "velocity": 0.4330708661417323,
                    "duration": 0.11415533333331496
                },
                {
                    "name": "G5",
                    "midi": 79,
                    "time": 389.7263079999938,
                    "velocity": 0.48031496062992124,
                    "duration": 0.11415533333331496
                },
                {
                    "name": "E5",
                    "midi": 76,
                    "time": 389.84046333332714,
                    "velocity": 0.44881889763779526,
                    "duration": 0.11415533333331496
                },
                {
                    "name": "C5",
                    "midi": 72,
                    "time": 389.95461866666045,
                    "velocity": 0.4251968503937008,
                    "duration": 0.11415533333331496
                },
                {
                    "name": "F5",
                    "midi": 77,
                    "time": 390.06877399999377,
                    "velocity": 0.48031496062992124,
                    "duration": 0.11415533333331496
                },
                {
                    "name": "D5",
                    "midi": 74,
                    "time": 390.1829293333271,
                    "velocity": 0.4330708661417323,
                    "duration": 0.11415533333331496
                },
                {
                    "name": "B4",
                    "midi": 71,
                    "time": 390.2970846666604,
                    "velocity": 0.4330708661417323,
                    "duration": 0.11415533333331496
                },
                {
                    "name": "C5",
                    "midi": 72,
                    "time": 390.4112399999937,
                    "velocity": 0.4094488188976378,
                    "duration": 0.08561650000001464
                },
                {
                    "name": "G4",
                    "midi": 67,
                    "time": 390.7537059999937,
                    "velocity": 0.3937007874015748,
                    "duration": 0.08561650000001464
                },
                {
                    "name": "C4",
                    "midi": 60,
                    "time": 391.0961719999937,
                    "velocity": 0.3937007874015748,
                    "duration": 0.6849320000000034
                },
                {
                    "name": "E5",
                    "midi": 76,
                    "time": 391.7811039999937,
                    "velocity": 0.3937007874015748,
                    "duration": 0.6849320000000034
                },
                {
                    "name": "F5",
                    "midi": 77,
                    "time": 392.4660359999937,
                    "velocity": 0.36220472440944884,
                    "duration": 0.08561650000001464
                },
                {
                    "name": "E5",
                    "midi": 76,
                    "time": 392.55165249999374,
                    "velocity": 0.36220472440944884,
                    "duration": 0.08561650000001464
                },
                {
                    "name": "D5",
                    "midi": 74,
                    "time": 392.63726899999375,
                    "velocity": 0.36220472440944884,
                    "duration": 0.08561650000001464
                },
                {
                    "name": "E5",
                    "midi": 76,
                    "time": 392.72288549999377,
                    "velocity": 0.36220472440944884,
                    "duration": 0.08561650000001464
                },
                {
                    "name": "G5",
                    "midi": 79,
                    "time": 392.8085019999938,
                    "velocity": 0.3937007874015748,
                    "duration": 0.17123299999997244
                },
                {
                    "name": "F5",
                    "midi": 77,
                    "time": 392.97973499999375,
                    "velocity": 0.36220472440944884,
                    "duration": 0.17123299999997244
                },
                {
                    "name": "E5",
                    "midi": 76,
                    "time": 393.1509679999937,
                    "velocity": 0.4015748031496063,
                    "duration": 0.17123299999997244
                },
                {
                    "name": "D5",
                    "midi": 74,
                    "time": 393.3222009999937,
                    "velocity": 0.3858267716535433,
                    "duration": 0.17123299999997244
                },
                {
                    "name": "C5",
                    "midi": 72,
                    "time": 393.49343399999367,
                    "velocity": 0.3858267716535433,
                    "duration": 0.17123299999997244
                },
                {
                    "name": "B4",
                    "midi": 71,
                    "time": 393.66466699999364,
                    "velocity": 0.3858267716535433,
                    "duration": 0.17123299999997244
                },
                {
                    "name": "C5",
                    "midi": 72,
                    "time": 393.8358999999936,
                    "velocity": 0.4094488188976378,
                    "duration": 0.08561650000001464
                },
                {
                    "name": "C#5",
                    "midi": 73,
                    "time": 394.1783659999936,
                    "velocity": 0.4330708661417323,
                    "duration": 0.08561650000001464
                },
                {
                    "name": "D5",
                    "midi": 74,
                    "time": 394.5208319999936,
                    "velocity": 0.4409448818897638,
                    "duration": 0.08561650000001464
                },
                {
                    "name": "D#5",
                    "midi": 75,
                    "time": 394.8632979999936,
                    "velocity": 0.47244094488188976,
                    "duration": 0.08561650000001464
                },
                {
                    "name": "E5",
                    "midi": 76,
                    "time": 395.2057639999936,
                    "velocity": 0.49606299212598426,
                    "duration": 0.08561650000001464
                },
                {
                    "name": "G5",
                    "midi": 79,
                    "time": 395.5482299999936,
                    "velocity": 0.4881889763779528,
                    "duration": 0.17123299999997244
                },
                {
                    "name": "F5",
                    "midi": 77,
                    "time": 395.7194629999936,
                    "velocity": 0.44881889763779526,
                    "duration": 0.17123299999997244
                },
                {
                    "name": "E5",
                    "midi": 76,
                    "time": 395.89069599999357,
                    "velocity": 0.4881889763779528,
                    "duration": 0.5136989999999741
                },
                {
                    "name": "F5",
                    "midi": 77,
                    "time": 396.40439499999354,
                    "velocity": 0.4330708661417323,
                    "duration": 0.08561650000001464
                },
                {
                    "name": "E5",
                    "midi": 76,
                    "time": 396.49001149999356,
                    "velocity": 0.4330708661417323,
                    "duration": 0.08561650000001464
                },
                {
                    "name": "D5",
                    "midi": 74,
                    "time": 396.57562799999357,
                    "velocity": 0.4409448818897638,
                    "duration": 0.3424660000000017
                },
                {
                    "name": "F5",
                    "midi": 77,
                    "time": 397.2605599999936,
                    "velocity": 0.4566929133858268,
                    "duration": 0.6849320000000034
                },
                {
                    "name": "G5",
                    "midi": 79,
                    "time": 397.9454919999936,
                    "velocity": 0.3779527559055118,
                    "duration": 0.08561650000001464
                },
                {
                    "name": "F5",
                    "midi": 77,
                    "time": 398.0311084999936,
                    "velocity": 0.3858267716535433,
                    "duration": 0.08561650000001464
                },
                {
                    "name": "E5",
                    "midi": 76,
                    "time": 398.1167249999936,
                    "velocity": 0.3858267716535433,
                    "duration": 0.08561650000001464
                },
                {
                    "name": "F5",
                    "midi": 77,
                    "time": 398.2023414999936,
                    "velocity": 0.3858267716535433,
                    "duration": 0.08561650000001464
                },
                {
                    "name": "A5",
                    "midi": 81,
                    "time": 398.28795799999364,
                    "velocity": 0.4330708661417323,
                    "duration": 0.17123299999997244
                },
                {
                    "name": "G5",
                    "midi": 79,
                    "time": 398.4591909999936,
                    "velocity": 0.4094488188976378,
                    "duration": 0.17123299999997244
                },
                {
                    "name": "F5",
                    "midi": 77,
                    "time": 398.6304239999936,
                    "velocity": 0.4094488188976378,
                    "duration": 0.17123299999997244
                },
                {
                    "name": "E5",
                    "midi": 76,
                    "time": 398.80165699999355,
                    "velocity": 0.3937007874015748,
                    "duration": 0.17123299999997244
                },
                {
                    "name": "D5",
                    "midi": 74,
                    "time": 398.9728899999935,
                    "velocity": 0.3937007874015748,
                    "duration": 0.17123299999997244
                },
                {
                    "name": "C5",
                    "midi": 72,
                    "time": 399.1441229999935,
                    "velocity": 0.3937007874015748,
                    "duration": 0.17123299999997244
                },
                {
                    "name": "B4",
                    "midi": 71,
                    "time": 399.31535599999347,
                    "velocity": 0.3858267716535433,
                    "duration": 0.17123299999997244
                },
                {
                    "name": "C5",
                    "midi": 72,
                    "time": 399.48658899999344,
                    "velocity": 0.3937007874015748,
                    "duration": 0.08561650000001464
                },
                {
                    "name": "D5",
                    "midi": 74,
                    "time": 399.6578219999935,
                    "velocity": 0.4015748031496063,
                    "duration": 0.08561650000001464
                },
                {
                    "name": "E5",
                    "midi": 76,
                    "time": 399.8290549999935,
                    "velocity": 0.41732283464566927,
                    "duration": 0.08561650000001464
                },
                {
                    "name": "F5",
                    "midi": 77,
                    "time": 400.00028799999353,
                    "velocity": 0.4251968503937008,
                    "duration": 0.08561650000001464
                },
                {
                    "name": "G5",
                    "midi": 79,
                    "time": 400.17152099999356,
                    "velocity": 0.4330708661417323,
                    "duration": 0.08561650000001464
                },
                {
                    "name": "A5",
                    "midi": 81,
                    "time": 400.3427539999936,
                    "velocity": 0.4409448818897638,
                    "duration": 0.08561650000001464
                },
                {
                    "name": "B5",
                    "midi": 83,
                    "time": 400.5139869999936,
                    "velocity": 0.4566929133858268,
                    "duration": 0.08561650000001464
                },
                {
                    "name": "C6",
                    "midi": 84,
                    "time": 400.68521999999365,
                    "velocity": 0.47244094488188976,
                    "duration": 0.08561650000001464
                },
                {
                    "name": "D6",
                    "midi": 86,
                    "time": 400.8564529999937,
                    "velocity": 0.48031496062992124,
                    "duration": 0.08561650000001464
                },
                {
                    "name": "E6",
                    "midi": 88,
                    "time": 401.0276859999937,
                    "velocity": 0.4881889763779528,
                    "duration": 0.08561650000001464
                },
                {
                    "name": "F6",
                    "midi": 89,
                    "time": 401.19891899999374,
                    "velocity": 0.49606299212598426,
                    "duration": 0.08561650000001464
                },
                {
                    "name": "D#6",
                    "midi": 87,
                    "time": 401.37015199999377,
                    "velocity": 0.6220472440944882,
                    "duration": 0.6849320000000034
                },
                {
                    "name": "E6",
                    "midi": 88,
                    "time": 402.05508399999377,
                    "velocity": 0.5905511811023622,
                    "duration": 0.3424660000000017
                },
                {
                    "name": "A#4",
                    "midi": 70,
                    "time": 402.7400159999938,
                    "velocity": 0.5039370078740157,
                    "duration": 0.45662133333331667
                },
                {
                    "name": "E5",
                    "midi": 76,
                    "time": 403.1966373333271,
                    "velocity": 0.47244094488188976,
                    "duration": 0.11415533333331496
                },
                {
                    "name": "G5",
                    "midi": 79,
                    "time": 403.3107926666604,
                    "velocity": 0.47244094488188976,
                    "duration": 0.11415533333331496
                },
                {
                    "name": "A#5",
                    "midi": 82,
                    "time": 403.4249479999937,
                    "velocity": 0.47244094488188976,
                    "duration": 0.11415533333331496
                },
                {
                    "name": "G5",
                    "midi": 79,
                    "time": 403.53910333332703,
                    "velocity": 0.4566929133858268,
                    "duration": 0.11415533333331496
                },
                {
                    "name": "E5",
                    "midi": 76,
                    "time": 403.65325866666035,
                    "velocity": 0.4566929133858268,
                    "duration": 0.11415533333331496
                },
                {
                    "name": "G5",
                    "midi": 79,
                    "time": 403.76741399999366,
                    "velocity": 0.47244094488188976,
                    "duration": 0.11415533333331496
                },
                {
                    "name": "E5",
                    "midi": 76,
                    "time": 403.881569333327,
                    "velocity": 0.4566929133858268,
                    "duration": 0.11415533333331496
                },
                {
                    "name": "A#4",
                    "midi": 70,
                    "time": 403.9957246666603,
                    "velocity": 0.4566929133858268,
                    "duration": 0.11415533333331496
                },
                {
                    "name": "A4",
                    "midi": 69,
                    "time": 404.1098799999936,
                    "velocity": 0.5039370078740157,
                    "duration": 0.45662133333331667
                },
                {
                    "name": "C5",
                    "midi": 72,
                    "time": 404.5665013333269,
                    "velocity": 0.47244094488188976,
                    "duration": 0.11415533333331496
                },
                {
                    "name": "F5",
                    "midi": 77,
                    "time": 404.68065666666024,
                    "velocity": 0.4566929133858268,
                    "duration": 0.11415533333331496
                },
                {
                    "name": "A5",
                    "midi": 81,
                    "time": 404.79481199999356,
                    "velocity": 0.47244094488188976,
                    "duration": 0.11415533333331496
                },
                {
                    "name": "F5",
                    "midi": 77,
                    "time": 404.90896733332687,
                    "velocity": 0.4645669291338583,
                    "duration": 0.11415533333331496
                },
                {
                    "name": "C5",
                    "midi": 72,
                    "time": 405.0231226666602,
                    "velocity": 0.4645669291338583,
                    "duration": 0.11415533333331496
                },
                {
                    "name": "F5",
                    "midi": 77,
                    "time": 405.1372779999935,
                    "velocity": 0.47244094488188976,
                    "duration": 0.11415533333331496
                },
                {
                    "name": "C5",
                    "midi": 72,
                    "time": 405.2514333333268,
                    "velocity": 0.4645669291338583,
                    "duration": 0.11415533333331496
                },
                {
                    "name": "A4",
                    "midi": 69,
                    "time": 405.36558866666013,
                    "velocity": 0.4645669291338583,
                    "duration": 0.11415533333331496
                },
                {
                    "name": "G4",
                    "midi": 67,
                    "time": 405.47974399999345,
                    "velocity": 0.5039370078740157,
                    "duration": 0.45662133333331667
                },
                {
                    "name": "C#5",
                    "midi": 73,
                    "time": 405.93636533332676,
                    "velocity": 0.47244094488188976,
                    "duration": 0.11415533333331496
                },
                {
                    "name": "E5",
                    "midi": 76,
                    "time": 406.0505206666601,
                    "velocity": 0.4566929133858268,
                    "duration": 0.11415533333331496
                },
                {
                    "name": "G5",
                    "midi": 79,
                    "time": 406.1646759999934,
                    "velocity": 0.47244094488188976,
                    "duration": 0.11415533333331496
                },
                {
                    "name": "E5",
                    "midi": 76,
                    "time": 406.2788313333267,
                    "velocity": 0.4566929133858268,
                    "duration": 0.11415533333331496
                },
                {
                    "name": "C#5",
                    "midi": 73,
                    "time": 406.39298666666,
                    "velocity": 0.4566929133858268,
                    "duration": 0.11415533333331496
                },
                {
                    "name": "E5",
                    "midi": 76,
                    "time": 406.50714199999334,
                    "velocity": 0.47244094488188976,
                    "duration": 0.11415533333331496
                },
                {
                    "name": "C#5",
                    "midi": 73,
                    "time": 406.62129733332665,
                    "velocity": 0.4566929133858268,
                    "duration": 0.11415533333331496
                },
                {
                    "name": "G4",
                    "midi": 67,
                    "time": 406.73545266665997,
                    "velocity": 0.4566929133858268,
                    "duration": 0.11415533333331496
                },
                {
                    "name": "F#4",
                    "midi": 66,
                    "time": 406.8496079999933,
                    "velocity": 0.5039370078740157,
                    "duration": 0.45662133333331667
                },
                {
                    "name": "A4",
                    "midi": 69,
                    "time": 407.3062293333266,
                    "velocity": 0.47244094488188976,
                    "duration": 0.11415533333331496
                },
                {
                    "name": "D5",
                    "midi": 74,
                    "time": 407.4203846666599,
                    "velocity": 0.44881889763779526,
                    "duration": 0.11415533333331496
                },
                {
                    "name": "F#5",
                    "midi": 78,
                    "time": 407.5345399999932,
                    "velocity": 0.47244094488188976,
                    "duration": 0.11415533333331496
                },
                {
                    "name": "D5",
                    "midi": 74,
                    "time": 407.64869533332654,
                    "velocity": 0.4566929133858268,
                    "duration": 0.11415533333331496
                },
                {
                    "name": "A4",
                    "midi": 69,
                    "time": 407.76285066665986,
                    "velocity": 0.4566929133858268,
                    "duration": 0.11415533333331496
                },
                {
                    "name": "D5",
                    "midi": 74,
                    "time": 407.8770059999932,
                    "velocity": 0.47244094488188976,
                    "duration": 0.11415533333331496
                },
                {
                    "name": "A4",
                    "midi": 69,
                    "time": 407.9911613333265,
                    "velocity": 0.4566929133858268,
                    "duration": 0.11415533333331496
                },
                {
                    "name": "F#4",
                    "midi": 66,
                    "time": 408.1053166666598,
                    "velocity": 0.4566929133858268,
                    "duration": 0.11415533333331496
                },
                {
                    "name": "F4",
                    "midi": 65,
                    "time": 408.2194719999931,
                    "velocity": 0.5039370078740157,
                    "duration": 0.45662133333331667
                },
                {
                    "name": "B4",
                    "midi": 71,
                    "time": 408.67609333332643,
                    "velocity": 0.47244094488188976,
                    "duration": 0.11415533333331496
                },
                {
                    "name": "D5",
                    "midi": 74,
                    "time": 408.79024866665975,
                    "velocity": 0.4566929133858268,
                    "duration": 0.11415533333331496
                },
                {
                    "name": "F5",
                    "midi": 77,
                    "time": 408.90440399999306,
                    "velocity": 0.47244094488188976,
                    "duration": 0.11415533333331496
                },
                {
                    "name": "D5",
                    "midi": 74,
                    "time": 409.0185593333264,
                    "velocity": 0.4566929133858268,
                    "duration": 0.11415533333331496
                },
                {
                    "name": "B4",
                    "midi": 71,
                    "time": 409.1327146666597,
                    "velocity": 0.4566929133858268,
                    "duration": 0.11415533333331496
                },
                {
                    "name": "D5",
                    "midi": 74,
                    "time": 409.246869999993,
                    "velocity": 0.47244094488188976,
                    "duration": 0.11415533333331496
                },
                {
                    "name": "B4",
                    "midi": 71,
                    "time": 409.3610253333263,
                    "velocity": 0.4566929133858268,
                    "duration": 0.11415533333331496
                },
                {
                    "name": "F4",
                    "midi": 65,
                    "time": 409.47518066665964,
                    "velocity": 0.4645669291338583,
                    "duration": 0.11415533333331496
                },
                {
                    "name": "E4",
                    "midi": 64,
                    "time": 409.58933599999295,
                    "velocity": 0.5039370078740157,
                    "duration": 0.45662133333331667
                },
                {
                    "name": "G4",
                    "midi": 67,
                    "time": 410.04595733332627,
                    "velocity": 0.47244094488188976,
                    "duration": 0.11415533333331496
                },
                {
                    "name": "C5",
                    "midi": 72,
                    "time": 410.1601126666596,
                    "velocity": 0.47244094488188976,
                    "duration": 0.11415533333331496
                },
                {
                    "name": "E5",
                    "midi": 76,
                    "time": 410.2742679999929,
                    "velocity": 0.47244094488188976,
                    "duration": 0.11415533333331496
                },
                {
                    "name": "C5",
                    "midi": 72,
                    "time": 410.3884233333262,
                    "velocity": 0.4566929133858268,
                    "duration": 0.11415533333331496
                },
                {
                    "name": "G4",
                    "midi": 67,
                    "time": 410.50257866665953,
                    "velocity": 0.4566929133858268,
                    "duration": 0.11415533333331496
                },
                {
                    "name": "C5",
                    "midi": 72,
                    "time": 410.61673399999285,
                    "velocity": 0.47244094488188976,
                    "duration": 0.11415533333331496
                },
                {
                    "name": "G4",
                    "midi": 67,
                    "time": 410.73088933332616,
                    "velocity": 0.44881889763779526,
                    "duration": 0.11415533333331496
                },
                {
                    "name": "E4",
                    "midi": 64,
                    "time": 410.8450446666595,
                    "velocity": 0.44881889763779526,
                    "duration": 0.11415533333331496
                },
                {
                    "name": "D4",
                    "midi": 62,
                    "time": 411.0733553333261,
                    "velocity": 0.47244094488188976,
                    "duration": 0.11415533333331496
                },
                {
                    "name": "A4",
                    "midi": 69,
                    "time": 411.1875106666594,
                    "velocity": 0.4566929133858268,
                    "duration": 0.11415533333331496
                },
                {
                    "name": "D5",
                    "midi": 74,
                    "time": 411.30166599999274,
                    "velocity": 0.4566929133858268,
                    "duration": 0.11415533333331496
                },
                {
                    "name": "A4",
                    "midi": 69,
                    "time": 411.41582133332605,
                    "velocity": 0.47244094488188976,
                    "duration": 0.11415533333331496
                },
                {
                    "name": "D4",
                    "midi": 62,
                    "time": 411.52997666665937,
                    "velocity": 0.4566929133858268,
                    "duration": 0.11415533333331496
                },
                {
                    "name": "D4",
                    "midi": 62,
                    "time": 411.758287333326,
                    "velocity": 0.47244094488188976,
                    "duration": 0.11415533333331496
                },
                {
                    "name": "A4",
                    "midi": 69,
                    "time": 411.8724426666593,
                    "velocity": 0.44881889763779526,
                    "duration": 0.11415533333331496
                },
                {
                    "name": "C5",
                    "midi": 72,
                    "time": 411.9865979999926,
                    "velocity": 0.47244094488188976,
                    "duration": 0.11415533333331496
                },
                {
                    "name": "A4",
                    "midi": 69,
                    "time": 412.10075333332594,
                    "velocity": 0.4566929133858268,
                    "duration": 0.11415533333331496
                },
                {
                    "name": "D4",
                    "midi": 62,
                    "time": 412.21490866665926,
                    "velocity": 0.4566929133858268,
                    "duration": 0.11415533333331496
                },
                {
                    "name": "B4",
                    "midi": 71,
                    "time": 412.32906399999257,
                    "velocity": 0.49606299212598426,
                    "duration": 0.3424660000000017
                },
                {
                    "name": "G5",
                    "midi": 79,
                    "time": 413.18522899999255,
                    "velocity": 0.4881889763779528,
                    "duration": 0.08561650000001464
                },
                {
                    "name": "A5",
                    "midi": 81,
                    "time": 413.3564619999926,
                    "velocity": 0.5039370078740157,
                    "duration": 0.08561650000001464
                },
                {
                    "name": "B5",
                    "midi": 83,
                    "time": 413.5276949999926,
                    "velocity": 0.5354330708661418,
                    "duration": 0.08561650000001464
                },
                {
                    "name": "C6",
                    "midi": 84,
                    "time": 413.69892799999263,
                    "velocity": 0.5039370078740157,
                    "duration": 0.8561649999999759
                },
                {
                    "name": "B5",
                    "midi": 83,
                    "time": 414.5550929999926,
                    "velocity": 0.3937007874015748,
                    "duration": 0.17123299999997244
                },
                {
                    "name": "A5",
                    "midi": 81,
                    "time": 414.7263259999926,
                    "velocity": 0.4015748031496063,
                    "duration": 0.17123299999997244
                },
                {
                    "name": "G5",
                    "midi": 79,
                    "time": 414.89755899999255,
                    "velocity": 0.3937007874015748,
                    "duration": 0.16409829166667578
                },
                {
                    "name": "G5",
                    "midi": 79,
                    "time": 415.0687919999926,
                    "velocity": 0.41732283464566927,
                    "duration": 0.17123299999997244
                },
                {
                    "name": "F5",
                    "midi": 77,
                    "time": 415.24002499999256,
                    "velocity": 0.3937007874015748,
                    "duration": 0.17123299999997244
                },
                {
                    "name": "E5",
                    "midi": 76,
                    "time": 415.41125799999253,
                    "velocity": 0.4015748031496063,
                    "duration": 0.17123299999997244
                },
                {
                    "name": "D5",
                    "midi": 74,
                    "time": 415.5824909999925,
                    "velocity": 0.3937007874015748,
                    "duration": 0.17123299999997244
                },
                {
                    "name": "G5",
                    "midi": 79,
                    "time": 415.7537239999925,
                    "velocity": 0.4251968503937008,
                    "duration": 0.08561650000001464
                },
                {
                    "name": "F5",
                    "midi": 77,
                    "time": 416.0961899999925,
                    "velocity": 0.4015748031496063,
                    "duration": 0.08561650000001464
                },
                {
                    "name": "D#5",
                    "midi": 75,
                    "time": 416.4386559999925,
                    "velocity": 0.41732283464566927,
                    "duration": 0.3424660000000017
                },
                {
                    "name": "E5",
                    "midi": 76,
                    "time": 416.7811219999925,
                    "velocity": 0.4015748031496063,
                    "duration": 0.3424660000000017
                },
                {
                    "name": "G5",
                    "midi": 79,
                    "time": 418.32221899999246,
                    "velocity": 0.4251968503937008,
                    "duration": 0.08561650000001464
                },
                {
                    "name": "G#5",
                    "midi": 80,
                    "time": 418.4934519999925,
                    "velocity": 0.44881889763779526,
                    "duration": 0.08561650000001464
                },
                {
                    "name": "A5",
                    "midi": 81,
                    "time": 418.6646849999925,
                    "velocity": 0.48031496062992124,
                    "duration": 0.08561650000001464
                },
                {
                    "name": "A#5",
                    "midi": 82,
                    "time": 418.83591799999255,
                    "velocity": 0.5039370078740157,
                    "duration": 0.08561650000001464
                },
                {
                    "name": "B5",
                    "midi": 83,
                    "time": 419.0071509999926,
                    "velocity": 0.5275590551181102,
                    "duration": 0.08561650000001464
                },
                {
                    "name": "C6",
                    "midi": 84,
                    "time": 419.1783839999926,
                    "velocity": 0.5748031496062992,
                    "duration": 0.8561649999999759
                },
                {
                    "name": "B5",
                    "midi": 83,
                    "time": 420.0345489999926,
                    "velocity": 0.3779527559055118,
                    "duration": 0.17123299999997244
                },
                {
                    "name": "A5",
                    "midi": 81,
                    "time": 420.20578199999255,
                    "velocity": 0.3937007874015748,
                    "duration": 0.17123299999997244
                },
                {
                    "name": "G5",
                    "midi": 79,
                    "time": 420.3770149999925,
                    "velocity": 0.3700787401574803,
                    "duration": 0.16552523333331237
                },
                {
                    "name": "G5",
                    "midi": 79,
                    "time": 420.5482479999925,
                    "velocity": 0.41732283464566927,
                    "duration": 0.17123299999997244
                },
                {
                    "name": "F5",
                    "midi": 77,
                    "time": 420.71948099999247,
                    "velocity": 0.3700787401574803,
                    "duration": 0.17123299999997244
                },
                {
                    "name": "E5",
                    "midi": 76,
                    "time": 420.89071399999244,
                    "velocity": 0.3937007874015748,
                    "duration": 0.17123299999997244
                },
                {
                    "name": "D5",
                    "midi": 74,
                    "time": 421.0619469999924,
                    "velocity": 0.3779527559055118,
                    "duration": 0.17123299999997244
                },
                {
                    "name": "G5",
                    "midi": 79,
                    "time": 421.2331799999924,
                    "velocity": 0.4251968503937008,
                    "duration": 0.08561650000001464
                },
                {
                    "name": "F5",
                    "midi": 77,
                    "time": 421.5756459999924,
                    "velocity": 0.4015748031496063,
                    "duration": 0.08561650000001464
                },
                {
                    "name": "E5",
                    "midi": 76,
                    "time": 421.9181119999924,
                    "velocity": 0.4015748031496063,
                    "duration": 0.3424660000000017
                },
                {
                    "name": "A5",
                    "midi": 81,
                    "time": 422.6030439999924,
                    "velocity": 0.49606299212598426,
                    "duration": 0.08561650000001464
                },
                {
                    "name": "B5",
                    "midi": 83,
                    "time": 422.6886604999924,
                    "velocity": 0.4409448818897638,
                    "duration": 0.08561650000001464
                },
                {
                    "name": "A5",
                    "midi": 81,
                    "time": 422.7742769999924,
                    "velocity": 0.4881889763779528,
                    "duration": 0.08561650000001464
                },
                {
                    "name": "B5",
                    "midi": 83,
                    "time": 422.85989349999244,
                    "velocity": 0.48031496062992124,
                    "duration": 0.08561650000001464
                },
                {
                    "name": "C6",
                    "midi": 84,
                    "time": 422.94550999999245,
                    "velocity": 0.5354330708661418,
                    "duration": 0.17123299999997244
                },
                {
                    "name": "C6",
                    "midi": 84,
                    "time": 423.1167429999924,
                    "velocity": 0.5196850393700787,
                    "duration": 0.08561650000001464
                },
                {
                    "name": "C6",
                    "midi": 84,
                    "time": 423.28797599999245,
                    "velocity": 0.5039370078740157,
                    "duration": 0.3424660000000017
                },
                {
                    "name": "D6",
                    "midi": 86,
                    "time": 423.97290799999246,
                    "velocity": 0.5354330708661418,
                    "duration": 0.08561650000001464
                },
                {
                    "name": "E6",
                    "midi": 88,
                    "time": 424.0585244999925,
                    "velocity": 0.4645669291338583,
                    "duration": 0.08561650000001464
                },
                {
                    "name": "D6",
                    "midi": 86,
                    "time": 424.1441409999925,
                    "velocity": 0.5118110236220472,
                    "duration": 0.08561650000001464
                },
                {
                    "name": "E6",
                    "midi": 88,
                    "time": 424.2297574999925,
                    "velocity": 0.5354330708661418,
                    "duration": 0.08561650000001464
                },
                {
                    "name": "F6",
                    "midi": 89,
                    "time": 424.3153739999925,
                    "velocity": 0.5354330708661418,
                    "duration": 0.17123299999997244
                },
                {
                    "name": "F6",
                    "midi": 89,
                    "time": 424.4866069999925,
                    "velocity": 0.5039370078740157,
                    "duration": 0.08561650000001464
                },
                {
                    "name": "F6",
                    "midi": 89,
                    "time": 424.6578399999925,
                    "velocity": 0.5039370078740157,
                    "duration": 0.3424660000000017
                },
                {
                    "name": "F5",
                    "midi": 77,
                    "time": 425.3427719999925,
                    "velocity": 0.4881889763779528,
                    "duration": 0.08561650000001464
                },
                {
                    "name": "G5",
                    "midi": 79,
                    "time": 425.42838849999254,
                    "velocity": 0.4251968503937008,
                    "duration": 0.08561650000001464
                },
                {
                    "name": "F5",
                    "midi": 77,
                    "time": 425.51400499999255,
                    "velocity": 0.4645669291338583,
                    "duration": 0.08561650000001464
                },
                {
                    "name": "G5",
                    "midi": 79,
                    "time": 425.59962149999257,
                    "velocity": 0.4409448818897638,
                    "duration": 0.08561650000001464
                },
                {
                    "name": "A5",
                    "midi": 81,
                    "time": 425.6852379999926,
                    "velocity": 0.5196850393700787,
                    "duration": 0.17123299999997244
                },
                {
                    "name": "A5",
                    "midi": 81,
                    "time": 425.85647099999255,
                    "velocity": 0.47244094488188976,
                    "duration": 0.08561650000001464
                },
                {
                    "name": "A5",
                    "midi": 81,
                    "time": 426.0277039999926,
                    "velocity": 0.47244094488188976,
                    "duration": 0.17123299999997244
                },
                {
                    "name": "G5",
                    "midi": 79,
                    "time": 426.19893699999255,
                    "velocity": 0.48031496062992124,
                    "duration": 0.17123299999997244
                },
                {
                    "name": "F5",
                    "midi": 77,
                    "time": 426.3701699999925,
                    "velocity": 0.4409448818897638,
                    "duration": 0.08561650000001464
                },
                {
                    "name": "E5",
                    "midi": 76,
                    "time": 426.54140299999256,
                    "velocity": 0.4409448818897638,
                    "duration": 0.08561650000001464
                },
                {
                    "name": "D5",
                    "midi": 74,
                    "time": 426.7126359999926,
                    "velocity": 0.4409448818897638,
                    "duration": 0.17123299999997244
                },
                {
                    "name": "G5",
                    "midi": 79,
                    "time": 427.05510199999253,
                    "velocity": 0.4409448818897638,
                    "duration": 0.17123299999997244
                },
                {
                    "name": "F5",
                    "midi": 77,
                    "time": 427.3975679999925,
                    "velocity": 0.4881889763779528,
                    "duration": 0.3424660000000017
                },
                {
                    "name": "E5",
                    "midi": 76,
                    "time": 427.7400339999925,
                    "velocity": 0.4566929133858268,
                    "duration": 0.3424660000000017
                },
                {
                    "name": "A4",
                    "midi": 69,
                    "time": 428.0824999999925,
                    "velocity": 0.44881889763779526,
                    "duration": 0.08561650000001464
                },
                {
                    "name": "B4",
                    "midi": 71,
                    "time": 428.1681164999925,
                    "velocity": 0.47244094488188976,
                    "duration": 0.08561650000001464
                },
                {
                    "name": "A4",
                    "midi": 69,
                    "time": 428.2537329999925,
                    "velocity": 0.44881889763779526,
                    "duration": 0.08561650000001464
                },
                {
                    "name": "B4",
                    "midi": 71,
                    "time": 428.3393494999925,
                    "velocity": 0.48031496062992124,
                    "duration": 0.08561650000001464
                },
                {
                    "name": "C5",
                    "midi": 72,
                    "time": 428.42496599999254,
                    "velocity": 0.5196850393700787,
                    "duration": 0.17123299999997244
                },
                {
                    "name": "C5",
                    "midi": 72,
                    "time": 428.5961989999925,
                    "velocity": 0.47244094488188976,
                    "duration": 0.08561650000001464
                },
                {
                    "name": "C5",
                    "midi": 72,
                    "time": 428.76743199999254,
                    "velocity": 0.47244094488188976,
                    "duration": 0.3424660000000017
                },
                {
                    "name": "D5",
                    "midi": 74,
                    "time": 429.45236399999254,
                    "velocity": 0.44881889763779526,
                    "duration": 0.08561650000001464
                },
                {
                    "name": "E5",
                    "midi": 76,
                    "time": 429.53798049999256,
                    "velocity": 0.47244094488188976,
                    "duration": 0.08561650000001464
                },
                {
                    "name": "D5",
                    "midi": 74,
                    "time": 429.62359699999257,
                    "velocity": 0.44881889763779526,
                    "duration": 0.08561650000001464
                },
                {
                    "name": "E5",
                    "midi": 76,
                    "time": 429.7092134999926,
                    "velocity": 0.5039370078740157,
                    "duration": 0.08561650000001464
                },
                {
                    "name": "F5",
                    "midi": 77,
                    "time": 429.7948299999926,
                    "velocity": 0.5196850393700787,
                    "duration": 0.17123299999997244
                },
                {
                    "name": "F5",
                    "midi": 77,
                    "time": 429.9660629999926,
                    "velocity": 0.47244094488188976,
                    "duration": 0.08561650000001464
                },
                {
                    "name": "F5",
                    "midi": 77,
                    "time": 430.1372959999926,
                    "velocity": 0.47244094488188976,
                    "duration": 0.3424660000000017
                },
                {
                    "name": "F5",
                    "midi": 77,
                    "time": 430.8222279999926,
                    "velocity": 0.44881889763779526,
                    "duration": 0.08561650000001464
                },
                {
                    "name": "G5",
                    "midi": 79,
                    "time": 430.9078444999926,
                    "velocity": 0.47244094488188976,
                    "duration": 0.08561650000001464
                },
                {
                    "name": "F5",
                    "midi": 77,
                    "time": 430.99346099999264,
                    "velocity": 0.44881889763779526,
                    "duration": 0.08561650000001464
                },
                {
                    "name": "G5",
                    "midi": 79,
                    "time": 431.07907749999265,
                    "velocity": 0.5354330708661418,
                    "duration": 0.08561650000001464
                },
                {
                    "name": "A5",
                    "midi": 81,
                    "time": 431.16469399999266,
                    "velocity": 0.5039370078740157,
                    "duration": 0.17123299999997244
                },
                {
                    "name": "A5",
                    "midi": 81,
                    "time": 431.33592699999264,
                    "velocity": 0.48031496062992124,
                    "duration": 0.08561650000001464
                },
                {
                    "name": "A5",
                    "midi": 81,
                    "time": 431.50715999999267,
                    "velocity": 0.4881889763779528,
                    "duration": 0.17123299999997244
                },
                {
                    "name": "G5",
                    "midi": 79,
                    "time": 431.67839299999264,
                    "velocity": 0.48031496062992124,
                    "duration": 0.17123299999997244
                },
                {
                    "name": "F5",
                    "midi": 77,
                    "time": 431.8496259999926,
                    "velocity": 0.48031496062992124,
                    "duration": 0.08561650000001464
                },
                {
                    "name": "E5",
                    "midi": 76,
                    "time": 432.02085899999264,
                    "velocity": 0.48031496062992124,
                    "duration": 0.08561650000001464
                },
                {
                    "name": "E5",
                    "midi": 76,
                    "time": 432.19209199999267,
                    "velocity": 0.4881889763779528,
                    "duration": 0.17123299999997244
                },
                {
                    "name": "D5",
                    "midi": 74,
                    "time": 432.36332499999264,
                    "velocity": 0.47244094488188976,
                    "duration": 0.17123299999997244
                },
                {
                    "name": "C5",
                    "midi": 72,
                    "time": 432.5345579999926,
                    "velocity": 0.48031496062992124,
                    "duration": 0.08561650000001464
                },
                {
                    "name": "B4",
                    "midi": 71,
                    "time": 432.70579099999264,
                    "velocity": 0.4645669291338583,
                    "duration": 0.08561650000001464
                },
                {
                    "name": "G5",
                    "midi": 79,
                    "time": 432.8770239999927,
                    "velocity": 0.6141732283464567,
                    "duration": 0.45662133333331667
                },
                {
                    "name": "E5",
                    "midi": 76,
                    "time": 433.333645333326,
                    "velocity": 0.48031496062992124,
                    "duration": 0.11415533333331496
                },
                {
                    "name": "C5",
                    "midi": 72,
                    "time": 433.4478006666593,
                    "velocity": 0.48031496062992124,
                    "duration": 0.11415533333331496
                },
                {
                    "name": "B4",
                    "midi": 71,
                    "time": 433.5619559999926,
                    "velocity": 0.49606299212598426,
                    "duration": 0.11415533333331496
                },
                {
                    "name": "D5",
                    "midi": 74,
                    "time": 433.67611133332593,
                    "velocity": 0.49606299212598426,
                    "duration": 0.11415533333331496
                },
                {
                    "name": "G4",
                    "midi": 67,
                    "time": 433.79026666665925,
                    "velocity": 0.48031496062992124,
                    "duration": 0.11415533333331496
                },
                {
                    "name": "C5",
                    "midi": 72,
                    "time": 433.90442199999256,
                    "velocity": 0.49606299212598426,
                    "duration": 0.11415533333331496
                },
                {
                    "name": "E5",
                    "midi": 76,
                    "time": 434.0185773333259,
                    "velocity": 0.48031496062992124,
                    "duration": 0.11415533333331496
                },
                {
                    "name": "G4",
                    "midi": 67,
                    "time": 434.1327326666592,
                    "velocity": 0.4645669291338583,
                    "duration": 0.11415533333331496
                },
                {
                    "name": "D5",
                    "midi": 74,
                    "time": 434.2468879999925,
                    "velocity": 0.6062992125984252,
                    "duration": 0.45662133333331667
                },
                {
                    "name": "B4",
                    "midi": 71,
                    "time": 434.7035093333258,
                    "velocity": 0.4330708661417323,
                    "duration": 0.11415533333331496
                },
                {
                    "name": "G4",
                    "midi": 67,
                    "time": 434.81766466665914,
                    "velocity": 0.4094488188976378,
                    "duration": 0.11415533333331496
                },
                {
                    "name": "F#4",
                    "midi": 66,
                    "time": 434.93181999999246,
                    "velocity": 0.44881889763779526,
                    "duration": 0.11415533333331496
                },
                {
                    "name": "G4",
                    "midi": 67,
                    "time": 435.04597533332577,
                    "velocity": 0.4251968503937008,
                    "duration": 0.11415533333331496
                },
                {
                    "name": "D4",
                    "midi": 62,
                    "time": 435.1601306666591,
                    "velocity": 0.4251968503937008,
                    "duration": 0.11415533333331496
                },
                {
                    "name": "F4",
                    "midi": 65,
                    "time": 435.2742859999924,
                    "velocity": 0.4330708661417323,
                    "duration": 0.11415533333331496
                },
                {
                    "name": "G4",
                    "midi": 67,
                    "time": 435.3884413333257,
                    "velocity": 0.41732283464566927,
                    "duration": 0.11415533333331496
                },
                {
                    "name": "D4",
                    "midi": 62,
                    "time": 435.50259666665903,
                    "velocity": 0.41732283464566927,
                    "duration": 0.11415533333331496
                },
                {
                    "name": "G5",
                    "midi": 79,
                    "time": 435.61675199999235,
                    "velocity": 0.5905511811023622,
                    "duration": 0.45662133333331667
                },
                {
                    "name": "E5",
                    "midi": 76,
                    "time": 436.07337333332566,
                    "velocity": 0.48031496062992124,
                    "duration": 0.11415533333331496
                },
                {
                    "name": "C5",
                    "midi": 72,
                    "time": 436.187528666659,
                    "velocity": 0.47244094488188976,
                    "duration": 0.11415533333331496
                },
                {
                    "name": "B4",
                    "midi": 71,
                    "time": 436.3016839999923,
                    "velocity": 0.49606299212598426,
                    "duration": 0.11415533333331496
                },
                {
                    "name": "D5",
                    "midi": 74,
                    "time": 436.4158393333256,
                    "velocity": 0.49606299212598426,
                    "duration": 0.11415533333331496
                },
                {
                    "name": "G4",
                    "midi": 67,
                    "time": 436.5299946666589,
                    "velocity": 0.48031496062992124,
                    "duration": 0.11415533333331496
                },
                {
                    "name": "C5",
                    "midi": 72,
                    "time": 436.64414999999224,
                    "velocity": 0.49606299212598426,
                    "duration": 0.11415533333331496
                },
                {
                    "name": "E5",
                    "midi": 76,
                    "time": 436.75830533332555,
                    "velocity": 0.48031496062992124,
                    "duration": 0.11415533333331496
                },
                {
                    "name": "G4",
                    "midi": 67,
                    "time": 436.87246066665887,
                    "velocity": 0.48031496062992124,
                    "duration": 0.11415533333331496
                },
                {
                    "name": "D5",
                    "midi": 74,
                    "time": 436.9866159999922,
                    "velocity": 0.6062992125984252,
                    "duration": 0.45662133333331667
                },
                {
                    "name": "B4",
                    "midi": 71,
                    "time": 437.4432373333255,
                    "velocity": 0.4330708661417323,
                    "duration": 0.11415533333331496
                },
                {
                    "name": "G4",
                    "midi": 67,
                    "time": 437.5573926666588,
                    "velocity": 0.4330708661417323,
                    "duration": 0.11415533333331496
                },
                {
                    "name": "F#4",
                    "midi": 66,
                    "time": 437.67154799999213,
                    "velocity": 0.44881889763779526,
                    "duration": 0.11415533333331496
                },
                {
                    "name": "G4",
                    "midi": 67,
                    "time": 437.78570333332544,
                    "velocity": 0.4251968503937008,
                    "duration": 0.11415533333331496
                },
                {
                    "name": "D4",
                    "midi": 62,
                    "time": 437.89985866665876,
                    "velocity": 0.4251968503937008,
                    "duration": 0.11415533333331496
                },
                {
                    "name": "F4",
                    "midi": 65,
                    "time": 438.0140139999921,
                    "velocity": 0.4330708661417323,
                    "duration": 0.11415533333331496
                },
                {
                    "name": "G4",
                    "midi": 67,
                    "time": 438.1281693333254,
                    "velocity": 0.41732283464566927,
                    "duration": 0.11415533333331496
                },
                {
                    "name": "D4",
                    "midi": 62,
                    "time": 438.2423246666587,
                    "velocity": 0.41732283464566927,
                    "duration": 0.11415533333331496
                },
                {
                    "name": "E4",
                    "midi": 64,
                    "time": 438.356479999992,
                    "velocity": 0.41732283464566927,
                    "duration": 0.11415533333331496
                },
                {
                    "name": "C4",
                    "midi": 60,
                    "time": 438.47063533332533,
                    "velocity": 0.4251968503937008,
                    "duration": 0.11415533333331496
                },
                {
                    "name": "E4",
                    "midi": 64,
                    "time": 438.58479066665865,
                    "velocity": 0.4409448818897638,
                    "duration": 0.11415533333331496
                },
                {
                    "name": "G4",
                    "midi": 67,
                    "time": 438.69894599999196,
                    "velocity": 0.44881889763779526,
                    "duration": 0.11415533333331496
                },
                {
                    "name": "E4",
                    "midi": 64,
                    "time": 438.8131013333253,
                    "velocity": 0.4566929133858268,
                    "duration": 0.11415533333331496
                },
                {
                    "name": "G4",
                    "midi": 67,
                    "time": 438.9272566666586,
                    "velocity": 0.48031496062992124,
                    "duration": 0.11415533333331496
                },
                {
                    "name": "C5",
                    "midi": 72,
                    "time": 439.0414119999919,
                    "velocity": 0.48031496062992124,
                    "duration": 0.11415533333331496
                },
                {
                    "name": "G4",
                    "midi": 67,
                    "time": 439.1555673333252,
                    "velocity": 0.49606299212598426,
                    "duration": 0.11415533333331496
                },
                {
                    "name": "C5",
                    "midi": 72,
                    "time": 439.26972266665854,
                    "velocity": 0.5039370078740157,
                    "duration": 0.11415533333331496
                },
                {
                    "name": "E5",
                    "midi": 76,
                    "time": 439.38387799999185,
                    "velocity": 0.5039370078740157,
                    "duration": 0.11415533333331496
                },
                {
                    "name": "C5",
                    "midi": 72,
                    "time": 439.49803333332517,
                    "velocity": 0.5275590551181102,
                    "duration": 0.11415533333331496
                },
                {
                    "name": "E5",
                    "midi": 76,
                    "time": 439.6121886666585,
                    "velocity": 0.5354330708661418,
                    "duration": 0.11415533333331496
                },
                {
                    "name": "G5",
                    "midi": 79,
                    "time": 439.7263439999918,
                    "velocity": 0.5433070866141733,
                    "duration": 0.11415533333331496
                },
                {
                    "name": "E5",
                    "midi": 76,
                    "time": 439.8404993333251,
                    "velocity": 0.5511811023622047,
                    "duration": 0.11415533333331496
                },
                {
                    "name": "G5",
                    "midi": 79,
                    "time": 439.9546546666584,
                    "velocity": 0.5748031496062992,
                    "duration": 0.11415533333331496
                },
                {
                    "name": "A#5",
                    "midi": 82,
                    "time": 440.06880999999174,
                    "velocity": 0.5748031496062992,
                    "duration": 0.11415533333331496
                },
                {
                    "name": "G5",
                    "midi": 79,
                    "time": 440.18296533332506,
                    "velocity": 0.5511811023622047,
                    "duration": 0.11415533333331496
                },
                {
                    "name": "E5",
                    "midi": 76,
                    "time": 440.2971206666584,
                    "velocity": 0.5354330708661418,
                    "duration": 0.11415533333331496
                },
                {
                    "name": "C5",
                    "midi": 72,
                    "time": 440.4112759999917,
                    "velocity": 0.5196850393700787,
                    "duration": 0.11415533333331496
                },
                {
                    "name": "A#4",
                    "midi": 70,
                    "time": 440.525431333325,
                    "velocity": 0.5039370078740157,
                    "duration": 0.11415533333331496
                },
                {
                    "name": "G4",
                    "midi": 67,
                    "time": 440.6395866666583,
                    "velocity": 0.48031496062992124,
                    "duration": 0.11415533333331496
                },
                {
                    "name": "C5",
                    "midi": 72,
                    "time": 440.75374199999163,
                    "velocity": 0.47244094488188976,
                    "duration": 0.11415533333331496
                },
                {
                    "name": "A#4",
                    "midi": 70,
                    "time": 440.86789733332495,
                    "velocity": 0.4409448818897638,
                    "duration": 0.11415533333331496
                },
                {
                    "name": "G#4",
                    "midi": 68,
                    "time": 440.98205266665826,
                    "velocity": 0.4251968503937008,
                    "duration": 0.11415533333331496
                },
                {
                    "name": "A4",
                    "midi": 69,
                    "time": 441.0962079999916,
                    "velocity": 0.4015748031496063,
                    "duration": 0.08561650000001464
                },
                {
                    "name": "A5",
                    "midi": 81,
                    "time": 441.2674409999916,
                    "velocity": 0.4094488188976378,
                    "duration": 0.17123299999997244
                },
                {
                    "name": "G#5",
                    "midi": 80,
                    "time": 441.4386739999916,
                    "velocity": 0.4015748031496063,
                    "duration": 0.17123299999997244
                },
                {
                    "name": "A5",
                    "midi": 81,
                    "time": 441.60990699999155,
                    "velocity": 0.3779527559055118,
                    "duration": 0.17123299999997244
                },
                {
                    "name": "G#5",
                    "midi": 80,
                    "time": 441.7811399999915,
                    "velocity": 0.4094488188976378,
                    "duration": 0.17123299999997244
                },
                {
                    "name": "A5",
                    "midi": 81,
                    "time": 441.9523729999915,
                    "velocity": 0.3858267716535433,
                    "duration": 0.17123299999997244
                },
                {
                    "name": "G#5",
                    "midi": 80,
                    "time": 442.12360599999147,
                    "velocity": 0.4094488188976378,
                    "duration": 0.17123299999997244
                },
                {
                    "name": "A5",
                    "midi": 81,
                    "time": 442.29483899999144,
                    "velocity": 0.3858267716535433,
                    "duration": 0.17123299999997244
                },
                {
                    "name": "C5",
                    "midi": 72,
                    "time": 442.4660719999914,
                    "velocity": 0.41732283464566927,
                    "duration": 0.6849320000000034
                },
                {
                    "name": "D5",
                    "midi": 74,
                    "time": 443.1510039999914,
                    "velocity": 0.36220472440944884,
                    "duration": 0.08561650000001464
                },
                {
                    "name": "C5",
                    "midi": 72,
                    "time": 443.23662049999143,
                    "velocity": 0.3543307086614173,
                    "duration": 0.08561650000001464
                },
                {
                    "name": "B4",
                    "midi": 71,
                    "time": 443.32223699999145,
                    "velocity": 0.36220472440944884,
                    "duration": 0.08561650000001464
                },
                {
                    "name": "C5",
                    "midi": 72,
                    "time": 443.40785349999146,
                    "velocity": 0.3858267716535433,
                    "duration": 0.08561650000001464
                },
                {
                    "name": "B4",
                    "midi": 71,
                    "time": 443.4934699999915,
                    "velocity": 0.3464566929133858,
                    "duration": 0.34246599999994487
                },
                {
                    "name": "E5",
                    "midi": 76,
                    "time": 443.4934699999915,
                    "velocity": 0.3464566929133858,
                    "duration": 0.17123299999997244
                },
                {
                    "name": "D5",
                    "midi": 74,
                    "time": 443.66470299999145,
                    "velocity": 0.3858267716535433,
                    "duration": 0.17123299999997244
                },
                {
                    "name": "C5",
                    "midi": 72,
                    "time": 443.8359359999914,
                    "velocity": 0.4251968503937008,
                    "duration": 0.11415533333331496
                },
                {
                    "name": "G4",
                    "midi": 67,
                    "time": 443.95009133332474,
                    "velocity": 0.4251968503937008,
                    "duration": 0.11415533333331496
                },
                {
                    "name": "C5",
                    "midi": 72,
                    "time": 444.06424666665805,
                    "velocity": 0.4409448818897638,
                    "duration": 0.11415533333331496
                },
                {
                    "name": "E5",
                    "midi": 76,
                    "time": 444.17840199999137,
                    "velocity": 0.44881889763779526,
                    "duration": 0.11415533333331496
                },
                {
                    "name": "C5",
                    "midi": 72,
                    "time": 444.2925573333247,
                    "velocity": 0.4566929133858268,
                    "duration": 0.11415533333331496
                },
                {
                    "name": "E5",
                    "midi": 76,
                    "time": 444.406712666658,
                    "velocity": 0.48031496062992124,
                    "duration": 0.11415533333331496
                },
                {
                    "name": "G5",
                    "midi": 79,
                    "time": 444.5208679999913,
                    "velocity": 0.48031496062992124,
                    "duration": 0.11415533333331496
                },
                {
                    "name": "E5",
                    "midi": 76,
                    "time": 444.6350233333246,
                    "velocity": 0.49606299212598426,
                    "duration": 0.11415533333331496
                },
                {
                    "name": "G5",
                    "midi": 79,
                    "time": 444.74917866665794,
                    "velocity": 0.5039370078740157,
                    "duration": 0.11415533333331496
                },
                {
                    "name": "C6",
                    "midi": 84,
                    "time": 444.86333399999126,
                    "velocity": 0.5039370078740157,
                    "duration": 0.11415533333331496
                },
                {
                    "name": "D6",
                    "midi": 86,
                    "time": 444.97748933332457,
                    "velocity": 0.5275590551181102,
                    "duration": 0.11415533333331496
                },
                {
                    "name": "C6",
                    "midi": 84,
                    "time": 445.0916446666579,
                    "velocity": 0.5354330708661418,
                    "duration": 0.11415533333331496
                },
                {
                    "name": "A#5",
                    "midi": 82,
                    "time": 445.2057999999912,
                    "velocity": 0.5433070866141733,
                    "duration": 0.11415533333331496
                },
                {
                    "name": "A5",
                    "midi": 81,
                    "time": 445.3199553333245,
                    "velocity": 0.5511811023622047,
                    "duration": 0.11415533333331496
                },
                {
                    "name": "G5",
                    "midi": 79,
                    "time": 445.43411066665783,
                    "velocity": 0.5748031496062992,
                    "duration": 0.11415533333331496
                },
                {
                    "name": "F5",
                    "midi": 77,
                    "time": 445.54826599999114,
                    "velocity": 0.5748031496062992,
                    "duration": 0.11415533333331496
                },
                {
                    "name": "E5",
                    "midi": 76,
                    "time": 445.66242133332446,
                    "velocity": 0.5511811023622047,
                    "duration": 0.11415533333331496
                },
                {
                    "name": "D5",
                    "midi": 74,
                    "time": 445.7765766666578,
                    "velocity": 0.5354330708661418,
                    "duration": 0.11415533333331496
                },
                {
                    "name": "C5",
                    "midi": 72,
                    "time": 445.8907319999911,
                    "velocity": 0.5196850393700787,
                    "duration": 0.11415533333331496
                },
                {
                    "name": "D5",
                    "midi": 74,
                    "time": 446.0048873333244,
                    "velocity": 0.5039370078740157,
                    "duration": 0.11415533333331496
                },
                {
                    "name": "C5",
                    "midi": 72,
                    "time": 446.1190426666577,
                    "velocity": 0.48031496062992124,
                    "duration": 0.11415533333331496
                },
                {
                    "name": "A#4",
                    "midi": 70,
                    "time": 446.23319799999103,
                    "velocity": 0.47244094488188976,
                    "duration": 0.11415533333331496
                },
                {
                    "name": "A4",
                    "midi": 69,
                    "time": 446.34735333332435,
                    "velocity": 0.4409448818897638,
                    "duration": 0.11415533333331496
                },
                {
                    "name": "G#4",
                    "midi": 68,
                    "time": 446.46150866665766,
                    "velocity": 0.4251968503937008,
                    "duration": 0.11415533333331496
                },
                {
                    "name": "A4",
                    "midi": 69,
                    "time": 446.575663999991,
                    "velocity": 0.4015748031496063,
                    "duration": 0.08561650000001464
                },
                {
                    "name": "A5",
                    "midi": 81,
                    "time": 446.746896999991,
                    "velocity": 0.3779527559055118,
                    "duration": 0.17123299999997244
                },
                {
                    "name": "G#5",
                    "midi": 80,
                    "time": 446.918129999991,
                    "velocity": 0.4015748031496063,
                    "duration": 0.17123299999997244
                },
                {
                    "name": "A5",
                    "midi": 81,
                    "time": 447.08936299999095,
                    "velocity": 0.3779527559055118,
                    "duration": 0.17123299999997244
                },
                {
                    "name": "G#5",
                    "midi": 80,
                    "time": 447.2605959999909,
                    "velocity": 0.4094488188976378,
                    "duration": 0.17123299999997244
                },
                {
                    "name": "A5",
                    "midi": 81,
                    "time": 447.4318289999909,
                    "velocity": 0.3858267716535433,
                    "duration": 0.17123299999997244
                },
                {
                    "name": "G#5",
                    "midi": 80,
                    "time": 447.60306199999087,
                    "velocity": 0.4015748031496063,
                    "duration": 0.17123299999997244
                },
                {
                    "name": "A5",
                    "midi": 81,
                    "time": 447.77429499999084,
                    "velocity": 0.3858267716535433,
                    "duration": 0.17123299999997244
                },
                {
                    "name": "C6",
                    "midi": 84,
                    "time": 448.1167609999908,
                    "velocity": 0.47244094488188976,
                    "duration": 0.17123299999997244
                },
                {
                    "name": "B5",
                    "midi": 83,
                    "time": 448.28799399999076,
                    "velocity": 0.47244094488188976,
                    "duration": 0.17123299999997244
                },
                {
                    "name": "C6",
                    "midi": 84,
                    "time": 448.45922699999073,
                    "velocity": 0.44881889763779526,
                    "duration": 0.17123299999997244
                },
                {
                    "name": "B5",
                    "midi": 83,
                    "time": 448.6304599999907,
                    "velocity": 0.47244094488188976,
                    "duration": 0.17123299999997244
                },
                {
                    "name": "C6",
                    "midi": 84,
                    "time": 448.8016929999907,
                    "velocity": 0.48031496062992124,
                    "duration": 0.17123299999997244
                },
                {
                    "name": "B5",
                    "midi": 83,
                    "time": 448.97292599999065,
                    "velocity": 0.49606299212598426,
                    "duration": 0.17123299999997244
                },
                {
                    "name": "C6",
                    "midi": 84,
                    "time": 449.1441589999906,
                    "velocity": 0.5196850393700787,
                    "duration": 0.15696358333332228
                },
                {
                    "name": "C6",
                    "midi": 84,
                    "time": 449.3153919999906,
                    "velocity": 0.5354330708661418,
                    "duration": 0.17123299999997244
                },
                {
                    "name": "G5",
                    "midi": 79,
                    "time": 449.48662499999057,
                    "velocity": 0.47244094488188976,
                    "duration": 0.15696358333332228
                },
                {
                    "name": "G5",
                    "midi": 79,
                    "time": 449.65785799999054,
                    "velocity": 0.47244094488188976,
                    "duration": 0.08561650000001464
                },
                {
                    "name": "G5",
                    "midi": 79,
                    "time": 449.82909099999057,
                    "velocity": 0.47244094488188976,
                    "duration": 0.08561650000001464
                },
                {
                    "name": "A5",
                    "midi": 81,
                    "time": 450.0003239999906,
                    "velocity": 0.4881889763779528,
                    "duration": 0.17123299999997244
                },
                {
                    "name": "G5",
                    "midi": 79,
                    "time": 450.17155699999057,
                    "velocity": 0.4566929133858268,
                    "duration": 0.17123299999997244
                },
                {
                    "name": "F5",
                    "midi": 77,
                    "time": 450.34278999999054,
                    "velocity": 0.44881889763779526,
                    "duration": 0.08561650000001464
                },
                {
                    "name": "E5",
                    "midi": 76,
                    "time": 450.5140229999906,
                    "velocity": 0.4409448818897638,
                    "duration": 0.08561650000001464
                },
                {
                    "name": "E5",
                    "midi": 76,
                    "time": 450.6852559999906,
                    "velocity": 0.4251968503937008,
                    "duration": 0.3424660000000017
                },
                {
                    "name": "D5",
                    "midi": 74,
                    "time": 451.3701879999906,
                    "velocity": 0.3779527559055118,
                    "duration": 0.08561650000001464
                },
                {
                    "name": "E5",
                    "midi": 76,
                    "time": 451.4558044999906,
                    "velocity": 0.3543307086614173,
                    "duration": 0.08561650000001464
                },
                {
                    "name": "D5",
                    "midi": 74,
                    "time": 451.54142099999063,
                    "velocity": 0.3779527559055118,
                    "duration": 0.08561650000001464
                },
                {
                    "name": "E5",
                    "midi": 76,
                    "time": 451.62703749999065,
                    "velocity": 0.3543307086614173,
                    "duration": 0.08561650000001464
                },
                {
                    "name": "D5",
                    "midi": 74,
                    "time": 451.71265399999066,
                    "velocity": 0.3779527559055118,
                    "duration": 0.05707766666665748
                },
                {
                    "name": "E5",
                    "midi": 76,
                    "time": 451.7697316666573,
                    "velocity": 0.36220472440944884,
                    "duration": 0.05707766666665748
                },
                {
                    "name": "D5",
                    "midi": 74,
                    "time": 451.8282362749907,
                    "velocity": 0.36220472440944884,
                    "duration": 0.05707766666671432
                },
                {
                    "name": "C5",
                    "midi": 72,
                    "time": 451.8838869999907,
                    "velocity": 0.4015748031496063,
                    "duration": 0.08561650000001464
                },
                {
                    "name": "D5",
                    "midi": 74,
                    "time": 451.9695034999907,
                    "velocity": 0.3779527559055118,
                    "duration": 0.08561650000001464
                },
                {
                    "name": "C5",
                    "midi": 72,
                    "time": 452.0551199999907,
                    "velocity": 0.4330708661417323,
                    "duration": 0.3424660000000017
                },
                {
                    "name": "G4",
                    "midi": 67,
                    "time": 452.7400519999907,
                    "velocity": 0.3937007874015748,
                    "duration": 0.4708907500000237
                },
                {
                    "name": "B4",
                    "midi": 71,
                    "time": 453.21094274999075,
                    "velocity": 0.3779527559055118,
                    "duration": 0.04280825000000732
                },
                {
                    "name": "A4",
                    "midi": 69,
                    "time": 453.25375099999076,
                    "velocity": 0.3779527559055118,
                    "duration": 0.08561650000001464
                },
                {
                    "name": "G4",
                    "midi": 67,
                    "time": 453.3393674999908,
                    "velocity": 0.3779527559055118,
                    "duration": 0.08561650000001464
                },
                {
                    "name": "G5",
                    "midi": 79,
                    "time": 453.4249839999908,
                    "velocity": 0.44881889763779526,
                    "duration": 0.08561650000001464
                },
                {
                    "name": "F5",
                    "midi": 77,
                    "time": 453.7674499999908,
                    "velocity": 0.4409448818897638,
                    "duration": 0.08561650000001464
                },
                {
                    "name": "E5",
                    "midi": 76,
                    "time": 454.1099159999908,
                    "velocity": 0.4251968503937008,
                    "duration": 0.08561650000001464
                },
                {
                    "name": "D5",
                    "midi": 74,
                    "time": 454.4523819999908,
                    "velocity": 0.4015748031496063,
                    "duration": 0.08561650000001464
                },
                {
                    "name": "C5",
                    "midi": 72,
                    "time": 454.7948479999908,
                    "velocity": 0.4330708661417323,
                    "duration": 0.6849320000000034
                },
                {
                    "name": "G4",
                    "midi": 67,
                    "time": 455.4797799999908,
                    "velocity": 0.3937007874015748,
                    "duration": 0.4708907500000237
                },
                {
                    "name": "B4",
                    "midi": 71,
                    "time": 455.9506707499908,
                    "velocity": 0.3779527559055118,
                    "duration": 0.04280825000000732
                },
                {
                    "name": "A4",
                    "midi": 69,
                    "time": 455.9934789999908,
                    "velocity": 0.3779527559055118,
                    "duration": 0.08561650000001464
                },
                {
                    "name": "G4",
                    "midi": 67,
                    "time": 456.07909549999084,
                    "velocity": 0.3779527559055118,
                    "duration": 0.08561650000001464
                },
                {
                    "name": "G5",
                    "midi": 79,
                    "time": 456.16471199999086,
                    "velocity": 0.4409448818897638,
                    "duration": 0.08561650000001464
                },
                {
                    "name": "F5",
                    "midi": 77,
                    "time": 456.50717799999086,
                    "velocity": 0.41732283464566927,
                    "duration": 0.08561650000001464
                },
                {
                    "name": "E5",
                    "midi": 76,
                    "time": 456.84964399999086,
                    "velocity": 0.4094488188976378,
                    "duration": 0.08561650000001464
                },
                {
                    "name": "D5",
                    "midi": 74,
                    "time": 457.19210999999086,
                    "velocity": 0.3858267716535433,
                    "duration": 0.08561650000001464
                },
                {
                    "name": "C5",
                    "midi": 72,
                    "time": 457.53457599999086,
                    "velocity": 0.41732283464566927,
                    "duration": 0.3424660000000017
                },
                {
                    "name": "G4",
                    "midi": 67,
                    "time": 458.1624303333242,
                    "velocity": 0.4409448818897638,
                    "duration": 0.05707766666665748
                },
                {
                    "name": "G5",
                    "midi": 79,
                    "time": 458.21950799999087,
                    "velocity": 0.5196850393700787,
                    "duration": 0.5136989999999741
                },
                {
                    "name": "F5",
                    "midi": 77,
                    "time": 458.73320699999084,
                    "velocity": 0.4409448818897638,
                    "duration": 0.05707766666665748
                },
                {
                    "name": "E5",
                    "midi": 76,
                    "time": 458.7902846666575,
                    "velocity": 0.4409448818897638,
                    "duration": 0.05707766666665748
                },
                {
                    "name": "D5",
                    "midi": 74,
                    "time": 458.84736233332416,
                    "velocity": 0.4094488188976378,
                    "duration": 0.05707766666665748
                },
                {
                    "name": "C5",
                    "midi": 72,
                    "time": 458.9044399999908,
                    "velocity": 0.41732283464566927,
                    "duration": 0.3424660000000017
                },
                {
                    "name": "G4",
                    "midi": 67,
                    "time": 459.53229433332416,
                    "velocity": 0.4409448818897638,
                    "duration": 0.05707766666665748
                },
                {
                    "name": "G5",
                    "midi": 79,
                    "time": 459.5893719999908,
                    "velocity": 0.5196850393700787,
                    "duration": 0.5136989999999741
                },
                {
                    "name": "A5",
                    "midi": 81,
                    "time": 460.1030709999908,
                    "velocity": 0.47244094488188976,
                    "duration": 0.08561650000001464
                },
                {
                    "name": "B5",
                    "midi": 83,
                    "time": 460.1886874999908,
                    "velocity": 0.4330708661417323,
                    "duration": 0.08561650000001464
                },
                {
                    "name": "C6",
                    "midi": 84,
                    "time": 460.2743039999908,
                    "velocity": 0.5275590551181102,
                    "duration": 0.3424660000000017
                },
                {
                    "name": "G5",
                    "midi": 79,
                    "time": 460.9592359999908,
                    "velocity": 0.5433070866141733,
                    "duration": 0.11415533333331496
                },
                {
                    "name": "A5",
                    "midi": 81,
                    "time": 461.07339133332414,
                    "velocity": 0.49606299212598426,
                    "duration": 0.11415533333331496
                },
                {
                    "name": "G5",
                    "midi": 79,
                    "time": 461.18754666665745,
                    "velocity": 0.49606299212598426,
                    "duration": 0.11415533333331496
                },
                {
                    "name": "F5",
                    "midi": 77,
                    "time": 461.30170199999077,
                    "velocity": 0.5118110236220472,
                    "duration": 0.11415533333331496
                },
                {
                    "name": "E5",
                    "midi": 76,
                    "time": 461.4158573333241,
                    "velocity": 0.49606299212598426,
                    "duration": 0.11415533333331496
                },
                {
                    "name": "D5",
                    "midi": 74,
                    "time": 461.5300126666574,
                    "velocity": 0.4645669291338583,
                    "duration": 0.11415533333331496
                },
                {
                    "name": "C5",
                    "midi": 72,
                    "time": 461.6441679999907,
                    "velocity": 0.47244094488188976,
                    "duration": 0.3424660000000017
                },
                {
                    "name": "F#5",
                    "midi": 78,
                    "time": 462.3290999999907,
                    "velocity": 0.5669291338582677,
                    "duration": 0.11415533333331496
                },
                {
                    "name": "G5",
                    "midi": 79,
                    "time": 462.44325533332403,
                    "velocity": 0.5118110236220472,
                    "duration": 0.11415533333331496
                },
                {
                    "name": "G#5",
                    "midi": 80,
                    "time": 462.55741066665735,
                    "velocity": 0.5196850393700787,
                    "duration": 0.11415533333331496
                },
                {
                    "name": "A5",
                    "midi": 81,
                    "time": 462.67156599999066,
                    "velocity": 0.5433070866141733,
                    "duration": 0.11415533333331496
                },
                {
                    "name": "A#5",
                    "midi": 82,
                    "time": 462.785721333324,
                    "velocity": 0.5275590551181102,
                    "duration": 0.11415533333331496
                },
                {
                    "name": "B5",
                    "midi": 83,
                    "time": 462.8998766666573,
                    "velocity": 0.5118110236220472,
                    "duration": 0.11415533333331496
                },
                {
                    "name": "C6",
                    "midi": 84,
                    "time": 463.0140319999906,
                    "velocity": 0.47244094488188976,
                    "duration": 0.3424660000000017
                },
                {
                    "name": "G4",
                    "midi": 67,
                    "time": 463.3564979999906,
                    "velocity": 0.33070866141732286,
                    "duration": 0.2568494999999871
                },
                {
                    "name": "C5",
                    "midi": 72,
                    "time": 463.6133474999906,
                    "velocity": 0.33070866141732286,
                    "duration": 0.08561650000001464
                },
                {
                    "name": "E5",
                    "midi": 76,
                    "time": 463.6989639999906,
                    "velocity": 0.3464566929133858,
                    "duration": 0.08561650000001464
                },
                {
                    "name": "F4",
                    "midi": 65,
                    "time": 464.0414299999906,
                    "velocity": 0.3228346456692913,
                    "duration": 0.08561650000001464
                },
                {
                    "name": "D5",
                    "midi": 74,
                    "time": 464.0414299999906,
                    "velocity": 0.3228346456692913,
                    "duration": 0.08561650000001464
                },
                {
                    "name": "F4",
                    "midi": 65,
                    "time": 464.3838959999906,
                    "velocity": 0.33070866141732286,
                    "duration": 0.6849320000000034
                },
                {
                    "name": "D5",
                    "midi": 74,
                    "time": 464.3838959999906,
                    "velocity": 0.33070866141732286,
                    "duration": 0.6849320000000034
                },
                {
                    "name": "E4",
                    "midi": 64,
                    "time": 465.0688279999906,
                    "velocity": 0.28346456692913385,
                    "duration": 0.3424660000000017
                },
                {
                    "name": "C5",
                    "midi": 72,
                    "time": 465.0688279999906,
                    "velocity": 0.28346456692913385,
                    "duration": 0.3424660000000017
                },
                {
                    "name": "A5",
                    "midi": 81,
                    "time": 465.7537599999906,
                    "velocity": 0.6456692913385826,
                    "duration": 0.17123299999997244
                },
                {
                    "name": "F5",
                    "midi": 77,
                    "time": 465.7537599999906,
                    "velocity": 0.5433070866141733,
                    "duration": 0.17123299999997244
                },
                {
                    "name": "D5",
                    "midi": 74,
                    "time": 465.7537599999906,
                    "velocity": 0.5433070866141733,
                    "duration": 0.17123299999997244
                },
                {
                    "name": "A4",
                    "midi": 69,
                    "time": 465.7537599999906,
                    "velocity": 0.5433070866141733,
                    "duration": 0.17123299999997244
                },
                {
                    "name": "D4",
                    "midi": 62,
                    "time": 466.43869199999057,
                    "velocity": 0.5433070866141733,
                    "duration": 0.17123299999997244
                },
                {
                    "name": "F4",
                    "midi": 65,
                    "time": 466.43869199999057,
                    "velocity": 0.5433070866141733,
                    "duration": 0.17123299999997244
                },
                {
                    "name": "G4",
                    "midi": 67,
                    "time": 466.43869199999057,
                    "velocity": 0.5433070866141733,
                    "duration": 0.17123299999997244
                },
                {
                    "name": "B4",
                    "midi": 71,
                    "time": 466.43869199999057,
                    "velocity": 0.6456692913385826,
                    "duration": 0.17123299999997244
                },
                {
                    "name": "G4",
                    "midi": 67,
                    "time": 467.1236239999905,
                    "velocity": 0.5433070866141733,
                    "duration": 0.17123299999997244
                },
                {
                    "name": "C4",
                    "midi": 60,
                    "time": 467.1236239999905,
                    "velocity": 0.5433070866141733,
                    "duration": 0.17123299999997244
                },
                {
                    "name": "E4",
                    "midi": 64,
                    "time": 467.1236239999905,
                    "velocity": 0.5433070866141733,
                    "duration": 0.17123299999997244
                },
                {
                    "name": "C5",
                    "midi": 72,
                    "time": 467.1236239999905,
                    "velocity": 0.6456692913385826,
                    "duration": 0.17123299999997244
                }
            ],
            "controlChanges": {
                "7": [
                    {
                        "number": 7,
                        "time": 0,
                        "value": 0.7874015748031497
                    }
                ],
                "10": [
                    {
                        "number": 10,
                        "time": 0,
                        "value": 0.5039370078740157
                    }
                ],
                "91": [
                    {
                        "number": 91,
                        "time": 0,
                        "value": 1
                    },
                    {
                        "number": 91,
                        "time": 0,
                        "value": 1
                    },
                    {
                        "number": 91,
                        "time": 10.958912000000016,
                        "value": 1
                    },
                    {
                        "number": 91,
                        "time": 93.15075200000003,
                        "value": 1
                    },
                    {
                        "number": 91,
                        "time": 93.15075200000003,
                        "value": 1
                    },
                    {
                        "number": 91,
                        "time": 104.10966400000005,
                        "value": 1
                    },
                    {
                        "number": 91,
                        "time": 186.30150399999943,
                        "value": 1
                    },
                    {
                        "number": 91,
                        "time": 223.2878319999988,
                        "value": 1
                    },
                    {
                        "number": 91,
                        "time": 223.2878319999988,
                        "value": 1
                    },
                    {
                        "number": 91,
                        "time": 234.24674399999873,
                        "value": 1
                    },
                    {
                        "number": 91,
                        "time": 327.3974959999958,
                        "value": 1
                    },
                    {
                        "number": 91,
                        "time": 364.38382399999534,
                        "value": 1
                    },
                    {
                        "number": 91,
                        "time": 364.38382399999534,
                        "value": 1
                    },
                    {
                        "number": 91,
                        "time": 375.34273599999494,
                        "value": 1
                    }
                ]
            },
            "id": 1,
            "name": "Piano right",
            "instrumentNumber": 0,
            "instrument": "acoustic grand piano",
            "instrumentFamily": "piano",
            "channelNumber": 0,
            "isPercussion": false
        },
        {
            "startTime": 0.342466,
            "duration": 467.29485699998224,
            "length": 2090,
            "notes": [
                {
                    "name": "C3",
                    "midi": 48,
                    "time": 0.342466,
                    "velocity": 0.31496062992125984,
                    "duration": 0.342466
                },
                {
                    "name": "E3",
                    "midi": 52,
                    "time": 0.684932,
                    "velocity": 0.31496062992125984,
                    "duration": 0.34246600000000005
                },
                {
                    "name": "G3",
                    "midi": 55,
                    "time": 1.027398,
                    "velocity": 0.31496062992125984,
                    "duration": 0.34246599999999994
                },
                {
                    "name": "C4",
                    "midi": 60,
                    "time": 1.369864,
                    "velocity": 0.33858267716535434,
                    "duration": 0.34246599999999994
                },
                {
                    "name": "C3",
                    "midi": 48,
                    "time": 1.71233,
                    "velocity": 0.31496062992125984,
                    "duration": 0.34246600000000016
                },
                {
                    "name": "G3",
                    "midi": 55,
                    "time": 2.054796,
                    "velocity": 0.33858267716535434,
                    "duration": 0.34246599999999994
                },
                {
                    "name": "G2",
                    "midi": 43,
                    "time": 2.397262,
                    "velocity": 0.31496062992125984,
                    "duration": 0.34246599999999994
                },
                {
                    "name": "C3",
                    "midi": 48,
                    "time": 3.082194,
                    "velocity": 0.31496062992125984,
                    "duration": 0.34246599999999994
                },
                {
                    "name": "E3",
                    "midi": 52,
                    "time": 3.42466,
                    "velocity": 0.31496062992125984,
                    "duration": 0.34246599999999994
                },
                {
                    "name": "G3",
                    "midi": 55,
                    "time": 3.7671259999999998,
                    "velocity": 0.33858267716535434,
                    "duration": 0.3424660000000004
                },
                {
                    "name": "C4",
                    "midi": 60,
                    "time": 4.109592,
                    "velocity": 0.3464566929133858,
                    "duration": 0.34246599999999994
                },
                {
                    "name": "C3",
                    "midi": 48,
                    "time": 4.452058,
                    "velocity": 0.3228346456692913,
                    "duration": 0.34246599999999994
                },
                {
                    "name": "G3",
                    "midi": 55,
                    "time": 4.794524,
                    "velocity": 0.33858267716535434,
                    "duration": 0.34246599999999994
                },
                {
                    "name": "G2",
                    "midi": 43,
                    "time": 5.13699,
                    "velocity": 0.3228346456692913,
                    "duration": 0.34246599999999994
                },
                {
                    "name": "A3",
                    "midi": 57,
                    "time": 5.479456,
                    "velocity": 0.3700787401574803,
                    "duration": 0.34246599999999994
                },
                {
                    "name": "C4",
                    "midi": 60,
                    "time": 5.821922,
                    "velocity": 0.36220472440944884,
                    "duration": 0.34246599999999994
                },
                {
                    "name": "G3",
                    "midi": 55,
                    "time": 6.164388,
                    "velocity": 0.3858267716535433,
                    "duration": 0.34246599999999994
                },
                {
                    "name": "C4",
                    "midi": 60,
                    "time": 6.506854,
                    "velocity": 0.3543307086614173,
                    "duration": 0.34246599999999994
                },
                {
                    "name": "F3",
                    "midi": 53,
                    "time": 6.84932,
                    "velocity": 0.3858267716535433,
                    "duration": 0.34246599999999994
                },
                {
                    "name": "C4",
                    "midi": 60,
                    "time": 7.191786,
                    "velocity": 0.3700787401574803,
                    "duration": 0.34246599999999994
                },
                {
                    "name": "E3",
                    "midi": 52,
                    "time": 7.5342519999999995,
                    "velocity": 0.3937007874015748,
                    "duration": 0.34246599999999994
                },
                {
                    "name": "C4",
                    "midi": 60,
                    "time": 7.876717999999999,
                    "velocity": 0.36220472440944884,
                    "duration": 0.3424660000000008
                },
                {
                    "name": "G4",
                    "midi": 67,
                    "time": 8.56165,
                    "velocity": 0.33858267716535434,
                    "duration": 0.34246599999999994
                },
                {
                    "name": "B3",
                    "midi": 59,
                    "time": 8.56165,
                    "velocity": 0.33858267716535434,
                    "duration": 0.34246599999999994
                },
                {
                    "name": "G4",
                    "midi": 67,
                    "time": 9.246582,
                    "velocity": 0.33858267716535434,
                    "duration": 0.34246599999999994
                },
                {
                    "name": "C4",
                    "midi": 60,
                    "time": 9.246582,
                    "velocity": 0.33858267716535434,
                    "duration": 0.34246599999999994
                },
                {
                    "name": "B3",
                    "midi": 59,
                    "time": 9.589048,
                    "velocity": 0.3464566929133858,
                    "duration": 0.6849319999999999
                },
                {
                    "name": "G3",
                    "midi": 55,
                    "time": 9.589048,
                    "velocity": 0.3464566929133858,
                    "duration": 0.6849319999999999
                },
                {
                    "name": "C2",
                    "midi": 36,
                    "time": 10.958912,
                    "velocity": 0.5039370078740157,
                    "duration": 0.17123300000000086
                },
                {
                    "name": "E2",
                    "midi": 40,
                    "time": 11.130145,
                    "velocity": 0.4409448818897638,
                    "duration": 0.17123300000000086
                },
                {
                    "name": "G2",
                    "midi": 43,
                    "time": 11.301378000000001,
                    "velocity": 0.44881889763779526,
                    "duration": 0.17123300000000086
                },
                {
                    "name": "C3",
                    "midi": 48,
                    "time": 11.472611000000002,
                    "velocity": 0.4409448818897638,
                    "duration": 0.17123300000000086
                },
                {
                    "name": "E2",
                    "midi": 40,
                    "time": 11.643844000000003,
                    "velocity": 0.47244094488188976,
                    "duration": 0.17123300000000086
                },
                {
                    "name": "E3",
                    "midi": 52,
                    "time": 11.815077000000004,
                    "velocity": 0.44881889763779526,
                    "duration": 0.17123300000000086
                },
                {
                    "name": "G2",
                    "midi": 43,
                    "time": 11.986310000000005,
                    "velocity": 0.47244094488188976,
                    "duration": 0.17123300000000086
                },
                {
                    "name": "G3",
                    "midi": 55,
                    "time": 12.157543000000006,
                    "velocity": 0.44881889763779526,
                    "duration": 0.17123300000000086
                },
                {
                    "name": "C3",
                    "midi": 48,
                    "time": 12.328776000000007,
                    "velocity": 0.47244094488188976,
                    "duration": 0.17123300000000086
                },
                {
                    "name": "E3",
                    "midi": 52,
                    "time": 12.500009000000007,
                    "velocity": 0.4330708661417323,
                    "duration": 0.17123300000000086
                },
                {
                    "name": "G3",
                    "midi": 55,
                    "time": 12.671242000000008,
                    "velocity": 0.44881889763779526,
                    "duration": 0.17123300000000086
                },
                {
                    "name": "C4",
                    "midi": 60,
                    "time": 12.84247500000001,
                    "velocity": 0.4409448818897638,
                    "duration": 0.17123300000000086
                },
                {
                    "name": "G2",
                    "midi": 43,
                    "time": 13.01370800000001,
                    "velocity": 0.47244094488188976,
                    "duration": 0.17123300000000086
                },
                {
                    "name": "B2",
                    "midi": 47,
                    "time": 13.184941000000011,
                    "velocity": 0.44881889763779526,
                    "duration": 0.17123300000000086
                },
                {
                    "name": "D3",
                    "midi": 50,
                    "time": 13.356174000000012,
                    "velocity": 0.4645669291338583,
                    "duration": 0.17123300000000086
                },
                {
                    "name": "G3",
                    "midi": 55,
                    "time": 13.527407000000013,
                    "velocity": 0.44881889763779526,
                    "duration": 0.17123300000000086
                },
                {
                    "name": "C2",
                    "midi": 36,
                    "time": 13.698640000000013,
                    "velocity": 0.47244094488188976,
                    "duration": 0.17123300000000086
                },
                {
                    "name": "E2",
                    "midi": 40,
                    "time": 13.869873000000014,
                    "velocity": 0.4409448818897638,
                    "duration": 0.17123300000000086
                },
                {
                    "name": "G2",
                    "midi": 43,
                    "time": 14.041106000000015,
                    "velocity": 0.44881889763779526,
                    "duration": 0.17123300000000086
                },
                {
                    "name": "C3",
                    "midi": 48,
                    "time": 14.212339000000016,
                    "velocity": 0.4330708661417323,
                    "duration": 0.17123300000000086
                },
                {
                    "name": "E2",
                    "midi": 40,
                    "time": 14.383572000000017,
                    "velocity": 0.47244094488188976,
                    "duration": 0.17123300000000086
                },
                {
                    "name": "E3",
                    "midi": 52,
                    "time": 14.554805000000018,
                    "velocity": 0.44881889763779526,
                    "duration": 0.17123300000000086
                },
                {
                    "name": "G2",
                    "midi": 43,
                    "time": 14.726038000000019,
                    "velocity": 0.4566929133858268,
                    "duration": 0.17123300000000086
                },
                {
                    "name": "G3",
                    "midi": 55,
                    "time": 14.89727100000002,
                    "velocity": 0.44881889763779526,
                    "duration": 0.17123300000000086
                },
                {
                    "name": "C3",
                    "midi": 48,
                    "time": 15.06850400000002,
                    "velocity": 0.47244094488188976,
                    "duration": 0.17123300000000086
                },
                {
                    "name": "E3",
                    "midi": 52,
                    "time": 15.239737000000021,
                    "velocity": 0.4330708661417323,
                    "duration": 0.17123300000000086
                },
                {
                    "name": "G3",
                    "midi": 55,
                    "time": 15.410970000000022,
                    "velocity": 0.44881889763779526,
                    "duration": 0.17123300000000086
                },
                {
                    "name": "C4",
                    "midi": 60,
                    "time": 15.582203000000023,
                    "velocity": 0.4409448818897638,
                    "duration": 0.17123300000000086
                },
                {
                    "name": "G2",
                    "midi": 43,
                    "time": 15.753436000000024,
                    "velocity": 0.4881889763779528,
                    "duration": 0.17123300000000086
                },
                {
                    "name": "B2",
                    "midi": 47,
                    "time": 15.924669000000025,
                    "velocity": 0.4409448818897638,
                    "duration": 0.17123299999999908
                },
                {
                    "name": "D3",
                    "midi": 50,
                    "time": 16.095902000000024,
                    "velocity": 0.44881889763779526,
                    "duration": 0.17123300000000086
                },
                {
                    "name": "G3",
                    "midi": 55,
                    "time": 16.267135000000025,
                    "velocity": 0.4409448818897638,
                    "duration": 0.17123300000000086
                },
                {
                    "name": "A3",
                    "midi": 57,
                    "time": 16.438368000000025,
                    "velocity": 0.41732283464566927,
                    "duration": 0.17123300000000086
                },
                {
                    "name": "C4",
                    "midi": 60,
                    "time": 16.609601000000026,
                    "velocity": 0.3858267716535433,
                    "duration": 0.17123300000000086
                },
                {
                    "name": "A3",
                    "midi": 57,
                    "time": 16.780834000000027,
                    "velocity": 0.41732283464566927,
                    "duration": 0.17123300000000086
                },
                {
                    "name": "C4",
                    "midi": 60,
                    "time": 16.952067000000028,
                    "velocity": 0.3858267716535433,
                    "duration": 0.17123300000000086
                },
                {
                    "name": "G3",
                    "midi": 55,
                    "time": 17.12330000000003,
                    "velocity": 0.41732283464566927,
                    "duration": 0.17123300000000086
                },
                {
                    "name": "C4",
                    "midi": 60,
                    "time": 17.29453300000003,
                    "velocity": 0.3937007874015748,
                    "duration": 0.17123300000000086
                },
                {
                    "name": "G3",
                    "midi": 55,
                    "time": 17.46576600000003,
                    "velocity": 0.41732283464566927,
                    "duration": 0.17123300000000086
                },
                {
                    "name": "C4",
                    "midi": 60,
                    "time": 17.63699900000003,
                    "velocity": 0.3937007874015748,
                    "duration": 0.17123300000000086
                },
                {
                    "name": "F3",
                    "midi": 53,
                    "time": 17.808232000000032,
                    "velocity": 0.44881889763779526,
                    "duration": 0.17123300000000086
                },
                {
                    "name": "C4",
                    "midi": 60,
                    "time": 17.979465000000033,
                    "velocity": 0.41732283464566927,
                    "duration": 0.17123300000000086
                },
                {
                    "name": "F3",
                    "midi": 53,
                    "time": 18.150698000000034,
                    "velocity": 0.44881889763779526,
                    "duration": 0.17123300000000086
                },
                {
                    "name": "C4",
                    "midi": 60,
                    "time": 18.321931000000035,
                    "velocity": 0.41732283464566927,
                    "duration": 0.17123300000000086
                },
                {
                    "name": "E3",
                    "midi": 52,
                    "time": 18.493164000000036,
                    "velocity": 0.44881889763779526,
                    "duration": 0.17123300000000086
                },
                {
                    "name": "C4",
                    "midi": 60,
                    "time": 18.664397000000037,
                    "velocity": 0.41732283464566927,
                    "duration": 0.17123300000000086
                },
                {
                    "name": "E3",
                    "midi": 52,
                    "time": 18.835630000000037,
                    "velocity": 0.44881889763779526,
                    "duration": 0.17123300000000086
                },
                {
                    "name": "C4",
                    "midi": 60,
                    "time": 19.00686300000004,
                    "velocity": 0.4094488188976378,
                    "duration": 0.17123300000000086
                },
                {
                    "name": "D4",
                    "midi": 62,
                    "time": 19.52056200000004,
                    "velocity": 0.3858267716535433,
                    "duration": 0.17123300000000086
                },
                {
                    "name": "F3",
                    "midi": 53,
                    "time": 19.52056200000004,
                    "velocity": 0.3858267716535433,
                    "duration": 0.17123300000000086
                },
                {
                    "name": "E4",
                    "midi": 64,
                    "time": 19.863028000000043,
                    "velocity": 0.3858267716535433,
                    "duration": 0.3424660000000017
                },
                {
                    "name": "G3",
                    "midi": 55,
                    "time": 19.863028000000043,
                    "velocity": 0.3858267716535433,
                    "duration": 0.6849320000000034
                },
                {
                    "name": "D4",
                    "midi": 62,
                    "time": 20.205494000000044,
                    "velocity": 0.3858267716535433,
                    "duration": 0.3424660000000017
                },
                {
                    "name": "E4",
                    "midi": 64,
                    "time": 20.547960000000046,
                    "velocity": 0.3858267716535433,
                    "duration": 0.6849319999999999
                },
                {
                    "name": "C4",
                    "midi": 60,
                    "time": 20.547960000000046,
                    "velocity": 0.3858267716535433,
                    "duration": 0.6849319999999999
                },
                {
                    "name": "D4",
                    "midi": 62,
                    "time": 22.260290000000047,
                    "velocity": 0.2992125984251969,
                    "duration": 0.3424660000000017
                },
                {
                    "name": "F3",
                    "midi": 53,
                    "time": 22.260290000000047,
                    "velocity": 0.2992125984251969,
                    "duration": 0.3424660000000017
                },
                {
                    "name": "A3",
                    "midi": 57,
                    "time": 22.260290000000047,
                    "velocity": 0.2992125984251969,
                    "duration": 0.3424660000000017
                },
                {
                    "name": "C4",
                    "midi": 60,
                    "time": 22.60275600000005,
                    "velocity": 0.2992125984251969,
                    "duration": 0.3424660000000017
                },
                {
                    "name": "E4",
                    "midi": 64,
                    "time": 22.60275600000005,
                    "velocity": 0.2992125984251969,
                    "duration": 0.3424660000000017
                },
                {
                    "name": "G3",
                    "midi": 55,
                    "time": 22.60275600000005,
                    "velocity": 0.2992125984251969,
                    "duration": 0.6849320000000034
                },
                {
                    "name": "F4",
                    "midi": 65,
                    "time": 22.94522200000005,
                    "velocity": 0.3464566929133858,
                    "duration": 0.3424660000000017
                },
                {
                    "name": "D4",
                    "midi": 62,
                    "time": 22.94522200000005,
                    "velocity": 0.3464566929133858,
                    "duration": 0.3424660000000017
                },
                {
                    "name": "C4",
                    "midi": 60,
                    "time": 23.287688000000053,
                    "velocity": 0.3858267716535433,
                    "duration": 0.6849319999999999
                },
                {
                    "name": "E4",
                    "midi": 64,
                    "time": 23.287688000000053,
                    "velocity": 0.3858267716535433,
                    "duration": 0.6849319999999999
                },
                {
                    "name": "A3",
                    "midi": 57,
                    "time": 25.000018000000054,
                    "velocity": 0.2992125984251969,
                    "duration": 0.3424660000000017
                },
                {
                    "name": "D4",
                    "midi": 62,
                    "time": 25.000018000000054,
                    "velocity": 0.2992125984251969,
                    "duration": 0.3424660000000017
                },
                {
                    "name": "F3",
                    "midi": 53,
                    "time": 25.000018000000054,
                    "velocity": 0.2992125984251969,
                    "duration": 0.3424660000000017
                },
                {
                    "name": "C4",
                    "midi": 60,
                    "time": 25.342484000000056,
                    "velocity": 0.2992125984251969,
                    "duration": 0.3424660000000017
                },
                {
                    "name": "G3",
                    "midi": 55,
                    "time": 25.342484000000056,
                    "velocity": 0.2992125984251969,
                    "duration": 0.6849320000000034
                },
                {
                    "name": "E4",
                    "midi": 64,
                    "time": 25.342484000000056,
                    "velocity": 0.2992125984251969,
                    "duration": 0.3424660000000017
                },
                {
                    "name": "F4",
                    "midi": 65,
                    "time": 25.684950000000057,
                    "velocity": 0.31496062992125984,
                    "duration": 0.3424660000000017
                },
                {
                    "name": "D4",
                    "midi": 62,
                    "time": 25.684950000000057,
                    "velocity": 0.31496062992125984,
                    "duration": 0.3424660000000017
                },
                {
                    "name": "C4",
                    "midi": 60,
                    "time": 26.02741600000006,
                    "velocity": 0.2992125984251969,
                    "duration": 0.08561650000000043
                },
                {
                    "name": "E4",
                    "midi": 64,
                    "time": 26.02741600000006,
                    "velocity": 0.2992125984251969,
                    "duration": 0.08561650000000043
                },
                {
                    "name": "G3",
                    "midi": 55,
                    "time": 26.36988200000006,
                    "velocity": 0.2992125984251969,
                    "duration": 0.08561650000000043
                },
                {
                    "name": "C2",
                    "midi": 36,
                    "time": 26.712348000000063,
                    "velocity": 0.2992125984251969,
                    "duration": 0.6849319999999999
                },
                {
                    "name": "C3",
                    "midi": 48,
                    "time": 26.712348000000063,
                    "velocity": 0.2992125984251969,
                    "duration": 0.6849319999999999
                },
                {
                    "name": "C4",
                    "midi": 60,
                    "time": 27.397280000000062,
                    "velocity": 0.29133858267716534,
                    "duration": 0.17123300000000086
                },
                {
                    "name": "G4",
                    "midi": 67,
                    "time": 27.568513000000063,
                    "velocity": 0.23622047244094488,
                    "duration": 0.17123300000000086
                },
                {
                    "name": "F#4",
                    "midi": 66,
                    "time": 27.739746000000064,
                    "velocity": 0.25984251968503935,
                    "duration": 0.17123300000000086
                },
                {
                    "name": "G4",
                    "midi": 67,
                    "time": 27.910979000000065,
                    "velocity": 0.23622047244094488,
                    "duration": 0.17123300000000086
                },
                {
                    "name": "C4",
                    "midi": 60,
                    "time": 28.082212000000066,
                    "velocity": 0.29133858267716534,
                    "duration": 0.17123300000000086
                },
                {
                    "name": "G4",
                    "midi": 67,
                    "time": 28.253445000000067,
                    "velocity": 0.23622047244094488,
                    "duration": 0.17123300000000086
                },
                {
                    "name": "D4",
                    "midi": 62,
                    "time": 28.424678000000068,
                    "velocity": 0.25984251968503935,
                    "duration": 0.17123300000000086
                },
                {
                    "name": "G4",
                    "midi": 67,
                    "time": 28.59591100000007,
                    "velocity": 0.23622047244094488,
                    "duration": 0.17123300000000086
                },
                {
                    "name": "E4",
                    "midi": 64,
                    "time": 28.76714400000007,
                    "velocity": 0.29133858267716534,
                    "duration": 0.17123300000000086
                },
                {
                    "name": "G4",
                    "midi": 67,
                    "time": 28.93837700000007,
                    "velocity": 0.23622047244094488,
                    "duration": 0.17123300000000086
                },
                {
                    "name": "F4",
                    "midi": 65,
                    "time": 29.10961000000007,
                    "velocity": 0.25984251968503935,
                    "duration": 0.17123300000000086
                },
                {
                    "name": "G4",
                    "midi": 67,
                    "time": 29.280843000000072,
                    "velocity": 0.23622047244094488,
                    "duration": 0.17123300000000086
                },
                {
                    "name": "E4",
                    "midi": 64,
                    "time": 29.452076000000073,
                    "velocity": 0.29133858267716534,
                    "duration": 0.17123300000000086
                },
                {
                    "name": "G4",
                    "midi": 67,
                    "time": 29.623309000000074,
                    "velocity": 0.23622047244094488,
                    "duration": 0.17123300000000086
                },
                {
                    "name": "A#3",
                    "midi": 58,
                    "time": 29.794542000000074,
                    "velocity": 0.25984251968503935,
                    "duration": 0.17123300000000086
                },
                {
                    "name": "G4",
                    "midi": 67,
                    "time": 29.965775000000075,
                    "velocity": 0.2440944881889764,
                    "duration": 0.17123300000000086
                },
                {
                    "name": "B3",
                    "midi": 59,
                    "time": 30.137008000000076,
                    "velocity": 0.2992125984251969,
                    "duration": 0.17123300000000086
                },
                {
                    "name": "G4",
                    "midi": 67,
                    "time": 30.308241000000077,
                    "velocity": 0.2440944881889764,
                    "duration": 0.17123300000000086
                },
                {
                    "name": "B3",
                    "midi": 59,
                    "time": 30.479474000000078,
                    "velocity": 0.2755905511811024,
                    "duration": 0.17123300000000086
                },
                {
                    "name": "G4",
                    "midi": 67,
                    "time": 30.65070700000008,
                    "velocity": 0.25196850393700787,
                    "duration": 0.17123300000000086
                },
                {
                    "name": "C4",
                    "midi": 60,
                    "time": 30.82194000000008,
                    "velocity": 0.3228346456692913,
                    "duration": 0.17123300000000086
                },
                {
                    "name": "G4",
                    "midi": 67,
                    "time": 30.99317300000008,
                    "velocity": 0.25984251968503935,
                    "duration": 0.17123300000000086
                },
                {
                    "name": "D4",
                    "midi": 62,
                    "time": 31.16440600000008,
                    "velocity": 0.29133858267716534,
                    "duration": 0.17123300000000086
                },
                {
                    "name": "G4",
                    "midi": 67,
                    "time": 31.335639000000082,
                    "velocity": 0.25984251968503935,
                    "duration": 0.17123300000000086
                },
                {
                    "name": "C4",
                    "midi": 60,
                    "time": 31.506872000000083,
                    "velocity": 0.31496062992125984,
                    "duration": 0.17123300000000086
                },
                {
                    "name": "G4",
                    "midi": 67,
                    "time": 31.678105000000084,
                    "velocity": 0.23622047244094488,
                    "duration": 0.17123300000000086
                },
                {
                    "name": "F#4",
                    "midi": 66,
                    "time": 31.849338000000085,
                    "velocity": 0.25984251968503935,
                    "duration": 0.1712329999999973
                },
                {
                    "name": "G4",
                    "midi": 67,
                    "time": 32.02057100000008,
                    "velocity": 0.23622047244094488,
                    "duration": 0.17123300000000086
                },
                {
                    "name": "B3",
                    "midi": 59,
                    "time": 32.19180400000008,
                    "velocity": 0.29133858267716534,
                    "duration": 0.17123300000000086
                },
                {
                    "name": "G4",
                    "midi": 67,
                    "time": 32.363037000000084,
                    "velocity": 0.2440944881889764,
                    "duration": 0.17123300000000086
                },
                {
                    "name": "F#4",
                    "midi": 66,
                    "time": 32.534270000000085,
                    "velocity": 0.25984251968503935,
                    "duration": 0.17123300000000086
                },
                {
                    "name": "G4",
                    "midi": 67,
                    "time": 32.705503000000085,
                    "velocity": 0.25196850393700787,
                    "duration": 0.17123300000000086
                },
                {
                    "name": "B3",
                    "midi": 59,
                    "time": 32.876736000000086,
                    "velocity": 0.29133858267716534,
                    "duration": 0.17123300000000086
                },
                {
                    "name": "G4",
                    "midi": 67,
                    "time": 33.04796900000009,
                    "velocity": 0.2440944881889764,
                    "duration": 0.17123300000000086
                },
                {
                    "name": "F#4",
                    "midi": 66,
                    "time": 33.21920200000009,
                    "velocity": 0.25984251968503935,
                    "duration": 0.17123300000000086
                },
                {
                    "name": "G4",
                    "midi": 67,
                    "time": 33.39043500000009,
                    "velocity": 0.2440944881889764,
                    "duration": 0.17123300000000086
                },
                {
                    "name": "B3",
                    "midi": 59,
                    "time": 33.56166800000009,
                    "velocity": 0.29133858267716534,
                    "duration": 0.17123300000000086
                },
                {
                    "name": "G4",
                    "midi": 67,
                    "time": 33.73290100000009,
                    "velocity": 0.2440944881889764,
                    "duration": 0.17123300000000086
                },
                {
                    "name": "C4",
                    "midi": 60,
                    "time": 33.90413400000009,
                    "velocity": 0.25984251968503935,
                    "duration": 0.17123300000000086
                },
                {
                    "name": "G4",
                    "midi": 67,
                    "time": 34.07536700000009,
                    "velocity": 0.2440944881889764,
                    "duration": 0.17123300000000086
                },
                {
                    "name": "D4",
                    "midi": 62,
                    "time": 34.24660000000009,
                    "velocity": 0.29133858267716534,
                    "duration": 0.17123300000000086
                },
                {
                    "name": "G4",
                    "midi": 67,
                    "time": 34.417833000000094,
                    "velocity": 0.2440944881889764,
                    "duration": 0.17123300000000086
                },
                {
                    "name": "E4",
                    "midi": 64,
                    "time": 34.589066000000095,
                    "velocity": 0.25984251968503935,
                    "duration": 0.17123300000000086
                },
                {
                    "name": "G4",
                    "midi": 67,
                    "time": 34.760299000000096,
                    "velocity": 0.2440944881889764,
                    "duration": 0.17123300000000086
                },
                {
                    "name": "F4",
                    "midi": 65,
                    "time": 34.9315320000001,
                    "velocity": 0.29133858267716534,
                    "duration": 0.17123300000000086
                },
                {
                    "name": "G4",
                    "midi": 67,
                    "time": 35.1027650000001,
                    "velocity": 0.25196850393700787,
                    "duration": 0.17123300000000086
                },
                {
                    "name": "D4",
                    "midi": 62,
                    "time": 35.2739980000001,
                    "velocity": 0.2677165354330709,
                    "duration": 0.17123300000000086
                },
                {
                    "name": "G4",
                    "midi": 67,
                    "time": 35.4452310000001,
                    "velocity": 0.2440944881889764,
                    "duration": 0.17123300000000086
                },
                {
                    "name": "B3",
                    "midi": 59,
                    "time": 35.6164640000001,
                    "velocity": 0.31496062992125984,
                    "duration": 0.17123300000000086
                },
                {
                    "name": "G4",
                    "midi": 67,
                    "time": 35.7876970000001,
                    "velocity": 0.2440944881889764,
                    "duration": 0.17123300000000086
                },
                {
                    "name": "D4",
                    "midi": 62,
                    "time": 35.9589300000001,
                    "velocity": 0.2677165354330709,
                    "duration": 0.17123300000000086
                },
                {
                    "name": "G4",
                    "midi": 67,
                    "time": 36.1301630000001,
                    "velocity": 0.2440944881889764,
                    "duration": 0.17123300000000086
                },
                {
                    "name": "B3",
                    "midi": 59,
                    "time": 36.3013960000001,
                    "velocity": 0.36220472440944884,
                    "duration": 0.17123300000000086
                },
                {
                    "name": "G4",
                    "midi": 67,
                    "time": 36.472629000000104,
                    "velocity": 0.2755905511811024,
                    "duration": 0.17123300000000086
                },
                {
                    "name": "G3",
                    "midi": 55,
                    "time": 36.643862000000105,
                    "velocity": 0.29133858267716534,
                    "duration": 0.17123300000000086
                },
                {
                    "name": "G4",
                    "midi": 67,
                    "time": 36.815095000000106,
                    "velocity": 0.2755905511811024,
                    "duration": 0.17123300000000086
                },
                {
                    "name": "C4",
                    "midi": 60,
                    "time": 36.98632800000011,
                    "velocity": 0.3464566929133858,
                    "duration": 0.17123300000000086
                },
                {
                    "name": "G4",
                    "midi": 67,
                    "time": 37.15756100000011,
                    "velocity": 0.29133858267716534,
                    "duration": 0.17123300000000086
                },
                {
                    "name": "F4",
                    "midi": 65,
                    "time": 37.32879400000011,
                    "velocity": 0.31496062992125984,
                    "duration": 0.17123300000000086
                },
                {
                    "name": "G4",
                    "midi": 67,
                    "time": 37.50002700000011,
                    "velocity": 0.29133858267716534,
                    "duration": 0.17123300000000086
                },
                {
                    "name": "C4",
                    "midi": 60,
                    "time": 37.67126000000011,
                    "velocity": 0.3464566929133858,
                    "duration": 0.17123300000000086
                },
                {
                    "name": "G4",
                    "midi": 67,
                    "time": 37.84249300000011,
                    "velocity": 0.29133858267716534,
                    "duration": 0.17123300000000086
                },
                {
                    "name": "E4",
                    "midi": 64,
                    "time": 38.01372600000011,
                    "velocity": 0.31496062992125984,
                    "duration": 0.17123300000000086
                },
                {
                    "name": "G4",
                    "midi": 67,
                    "time": 38.18495900000011,
                    "velocity": 0.29133858267716534,
                    "duration": 0.17123300000000086
                },
                {
                    "name": "C4",
                    "midi": 60,
                    "time": 38.356192000000114,
                    "velocity": 0.3779527559055118,
                    "duration": 0.11415533333333627
                },
                {
                    "name": "E4",
                    "midi": 64,
                    "time": 38.47034733333345,
                    "velocity": 0.33858267716535434,
                    "duration": 0.11415533333333627
                },
                {
                    "name": "G4",
                    "midi": 67,
                    "time": 38.584502666666786,
                    "velocity": 0.33858267716535434,
                    "duration": 0.11415533333333627
                },
                {
                    "name": "C5",
                    "midi": 72,
                    "time": 38.69865800000012,
                    "velocity": 0.36220472440944884,
                    "duration": 0.3424660000000017
                },
                {
                    "name": "B3",
                    "midi": 59,
                    "time": 39.72605600000013,
                    "velocity": 0.3779527559055118,
                    "duration": 0.11415533333333627
                },
                {
                    "name": "D4",
                    "midi": 62,
                    "time": 39.840211333333464,
                    "velocity": 0.33858267716535434,
                    "duration": 0.11415533333333627
                },
                {
                    "name": "G4",
                    "midi": 67,
                    "time": 39.9543666666668,
                    "velocity": 0.33858267716535434,
                    "duration": 0.11415533333333627
                },
                {
                    "name": "B4",
                    "midi": 71,
                    "time": 40.06852200000014,
                    "velocity": 0.3779527559055118,
                    "duration": 0.3424660000000017
                },
                {
                    "name": "A3",
                    "midi": 57,
                    "time": 41.09592000000014,
                    "velocity": 0.3937007874015748,
                    "duration": 0.3424660000000017
                },
                {
                    "name": "D4",
                    "midi": 62,
                    "time": 41.09592000000014,
                    "velocity": 0.3937007874015748,
                    "duration": 0.3424660000000017
                },
                {
                    "name": "F#3",
                    "midi": 54,
                    "time": 41.09592000000014,
                    "velocity": 0.3937007874015748,
                    "duration": 0.3424660000000017
                },
                {
                    "name": "B3",
                    "midi": 59,
                    "time": 41.780852000000145,
                    "velocity": 0.4094488188976378,
                    "duration": 0.3424660000000017
                },
                {
                    "name": "G3",
                    "midi": 55,
                    "time": 41.780852000000145,
                    "velocity": 0.4094488188976378,
                    "duration": 0.3424660000000017
                },
                {
                    "name": "D4",
                    "midi": 62,
                    "time": 41.780852000000145,
                    "velocity": 0.4094488188976378,
                    "duration": 0.3424660000000017
                },
                {
                    "name": "D3",
                    "midi": 50,
                    "time": 42.46578400000015,
                    "velocity": 0.44881889763779526,
                    "duration": 0.17123300000000086
                },
                {
                    "name": "D4",
                    "midi": 62,
                    "time": 42.63701700000015,
                    "velocity": 0.30708661417322836,
                    "duration": 0.17123300000000086
                },
                {
                    "name": "C#4",
                    "midi": 61,
                    "time": 42.80825000000015,
                    "velocity": 0.31496062992125984,
                    "duration": 0.17123300000000086
                },
                {
                    "name": "D4",
                    "midi": 62,
                    "time": 42.97948300000015,
                    "velocity": 0.3228346456692913,
                    "duration": 0.17123300000000086
                },
                {
                    "name": "C#4",
                    "midi": 61,
                    "time": 43.15071600000015,
                    "velocity": 0.3464566929133858,
                    "duration": 0.17123300000000086
                },
                {
                    "name": "D4",
                    "midi": 62,
                    "time": 43.32194900000015,
                    "velocity": 0.3543307086614173,
                    "duration": 0.17123300000000086
                },
                {
                    "name": "C4",
                    "midi": 60,
                    "time": 43.493182000000154,
                    "velocity": 0.3700787401574803,
                    "duration": 0.17123300000000086
                },
                {
                    "name": "D4",
                    "midi": 62,
                    "time": 43.664415000000155,
                    "velocity": 0.3858267716535433,
                    "duration": 0.17123300000000086
                },
                {
                    "name": "B3",
                    "midi": 59,
                    "time": 43.835648000000155,
                    "velocity": 0.3858267716535433,
                    "duration": 0.17123300000000086
                },
                {
                    "name": "D4",
                    "midi": 62,
                    "time": 44.006881000000156,
                    "velocity": 0.3464566929133858,
                    "duration": 0.17123300000000086
                },
                {
                    "name": "G3",
                    "midi": 55,
                    "time": 44.17811400000016,
                    "velocity": 0.2755905511811024,
                    "duration": 0.17123300000000086
                },
                {
                    "name": "D4",
                    "midi": 62,
                    "time": 44.34934700000016,
                    "velocity": 0.23622047244094488,
                    "duration": 0.17123300000000086
                },
                {
                    "name": "B3",
                    "midi": 59,
                    "time": 44.52058000000016,
                    "velocity": 0.29133858267716534,
                    "duration": 0.17123300000000086
                },
                {
                    "name": "D4",
                    "midi": 62,
                    "time": 44.69181300000016,
                    "velocity": 0.25196850393700787,
                    "duration": 0.17123300000000086
                },
                {
                    "name": "G3",
                    "midi": 55,
                    "time": 44.86304600000016,
                    "velocity": 0.2755905511811024,
                    "duration": 0.17123300000000086
                },
                {
                    "name": "D4",
                    "midi": 62,
                    "time": 45.03427900000016,
                    "velocity": 0.2677165354330709,
                    "duration": 0.17123300000000086
                },
                {
                    "name": "A3",
                    "midi": 57,
                    "time": 45.20551200000016,
                    "velocity": 0.29133858267716534,
                    "duration": 0.17123300000000086
                },
                {
                    "name": "D4",
                    "midi": 62,
                    "time": 45.37674500000016,
                    "velocity": 0.2677165354330709,
                    "duration": 0.17123300000000086
                },
                {
                    "name": "G3",
                    "midi": 55,
                    "time": 45.547978000000164,
                    "velocity": 0.29133858267716534,
                    "duration": 0.17123300000000086
                },
                {
                    "name": "D4",
                    "midi": 62,
                    "time": 45.719211000000165,
                    "velocity": 0.2677165354330709,
                    "duration": 0.17123300000000086
                },
                {
                    "name": "F#3",
                    "midi": 54,
                    "time": 45.890444000000166,
                    "velocity": 0.29133858267716534,
                    "duration": 0.17123300000000086
                },
                {
                    "name": "D4",
                    "midi": 62,
                    "time": 46.06167700000017,
                    "velocity": 0.2677165354330709,
                    "duration": 0.17123300000000086
                },
                {
                    "name": "D3",
                    "midi": 50,
                    "time": 46.23291000000017,
                    "velocity": 0.29133858267716534,
                    "duration": 0.17123300000000086
                },
                {
                    "name": "D4",
                    "midi": 62,
                    "time": 46.40414300000017,
                    "velocity": 0.2677165354330709,
                    "duration": 0.17123300000000086
                },
                {
                    "name": "G3",
                    "midi": 55,
                    "time": 46.57537600000017,
                    "velocity": 0.2992125984251969,
                    "duration": 0.17123300000000086
                },
                {
                    "name": "D4",
                    "midi": 62,
                    "time": 46.74660900000017,
                    "velocity": 0.2677165354330709,
                    "duration": 0.17123300000000086
                },
                {
                    "name": "C#4",
                    "midi": 61,
                    "time": 46.91784200000017,
                    "velocity": 0.2677165354330709,
                    "duration": 0.17123300000000086
                },
                {
                    "name": "D4",
                    "midi": 62,
                    "time": 47.08907500000017,
                    "velocity": 0.2677165354330709,
                    "duration": 0.17123300000000086
                },
                {
                    "name": "C#4",
                    "midi": 61,
                    "time": 47.26030800000017,
                    "velocity": 0.30708661417322836,
                    "duration": 0.17123300000000086
                },
                {
                    "name": "D4",
                    "midi": 62,
                    "time": 47.43154100000017,
                    "velocity": 0.3228346456692913,
                    "duration": 0.17123300000000086
                },
                {
                    "name": "E4",
                    "midi": 64,
                    "time": 47.602774000000174,
                    "velocity": 0.3464566929133858,
                    "duration": 0.17123300000000086
                },
                {
                    "name": "D4",
                    "midi": 62,
                    "time": 47.774007000000175,
                    "velocity": 0.3228346456692913,
                    "duration": 0.17123300000000086
                },
                {
                    "name": "C4",
                    "midi": 60,
                    "time": 47.945240000000176,
                    "velocity": 0.3858267716535433,
                    "duration": 0.17123300000000086
                },
                {
                    "name": "D4",
                    "midi": 62,
                    "time": 48.11647300000018,
                    "velocity": 0.3700787401574803,
                    "duration": 0.17123300000000086
                },
                {
                    "name": "B3",
                    "midi": 59,
                    "time": 48.28770600000018,
                    "velocity": 0.3858267716535433,
                    "duration": 0.17123300000000086
                },
                {
                    "name": "D4",
                    "midi": 62,
                    "time": 48.45893900000018,
                    "velocity": 0.3700787401574803,
                    "duration": 0.17123300000000086
                },
                {
                    "name": "C4",
                    "midi": 60,
                    "time": 48.63017200000018,
                    "velocity": 0.3858267716535433,
                    "duration": 0.17123300000000086
                },
                {
                    "name": "D4",
                    "midi": 62,
                    "time": 48.80140500000018,
                    "velocity": 0.3700787401574803,
                    "duration": 0.17123300000000086
                },
                {
                    "name": "A3",
                    "midi": 57,
                    "time": 48.97263800000018,
                    "velocity": 0.3858267716535433,
                    "duration": 0.17123300000000086
                },
                {
                    "name": "D4",
                    "midi": 62,
                    "time": 49.14387100000018,
                    "velocity": 0.3700787401574803,
                    "duration": 0.17123300000000086
                },
                {
                    "name": "B3",
                    "midi": 59,
                    "time": 49.31510400000018,
                    "velocity": 0.3858267716535433,
                    "duration": 0.17123300000000086
                },
                {
                    "name": "D4",
                    "midi": 62,
                    "time": 49.486337000000184,
                    "velocity": 0.33070866141732286,
                    "duration": 0.17123300000000086
                },
                {
                    "name": "G3",
                    "midi": 55,
                    "time": 49.657570000000185,
                    "velocity": 0.2755905511811024,
                    "duration": 0.17123300000000086
                },
                {
                    "name": "D4",
                    "midi": 62,
                    "time": 49.828803000000185,
                    "velocity": 0.23622047244094488,
                    "duration": 0.17123300000000086
                },
                {
                    "name": "B3",
                    "midi": 59,
                    "time": 50.000036000000186,
                    "velocity": 0.29133858267716534,
                    "duration": 0.17123300000000086
                },
                {
                    "name": "D4",
                    "midi": 62,
                    "time": 50.17126900000019,
                    "velocity": 0.23622047244094488,
                    "duration": 0.17123300000000086
                },
                {
                    "name": "G3",
                    "midi": 55,
                    "time": 50.34250200000019,
                    "velocity": 0.2755905511811024,
                    "duration": 0.17123300000000086
                },
                {
                    "name": "D4",
                    "midi": 62,
                    "time": 50.51373500000019,
                    "velocity": 0.23622047244094488,
                    "duration": 0.17123300000000086
                },
                {
                    "name": "A3",
                    "midi": 57,
                    "time": 50.68496800000019,
                    "velocity": 0.29133858267716534,
                    "duration": 0.17123300000000086
                },
                {
                    "name": "D4",
                    "midi": 62,
                    "time": 50.85620100000019,
                    "velocity": 0.2677165354330709,
                    "duration": 0.17123300000000086
                },
                {
                    "name": "G3",
                    "midi": 55,
                    "time": 51.02743400000019,
                    "velocity": 0.29133858267716534,
                    "duration": 0.17123300000000086
                },
                {
                    "name": "D4",
                    "midi": 62,
                    "time": 51.19866700000019,
                    "velocity": 0.2677165354330709,
                    "duration": 0.17123300000000086
                },
                {
                    "name": "F#3",
                    "midi": 54,
                    "time": 51.36990000000019,
                    "velocity": 0.29133858267716534,
                    "duration": 0.17123300000000086
                },
                {
                    "name": "D4",
                    "midi": 62,
                    "time": 51.541133000000194,
                    "velocity": 0.2677165354330709,
                    "duration": 0.17123300000000086
                },
                {
                    "name": "D3",
                    "midi": 50,
                    "time": 51.712366000000195,
                    "velocity": 0.29133858267716534,
                    "duration": 0.17123300000000086
                },
                {
                    "name": "D4",
                    "midi": 62,
                    "time": 51.883599000000196,
                    "velocity": 0.2677165354330709,
                    "duration": 0.17123300000000086
                },
                {
                    "name": "G3",
                    "midi": 55,
                    "time": 52.0548320000002,
                    "velocity": 0.29133858267716534,
                    "duration": 0.17123300000000086
                },
                {
                    "name": "D4",
                    "midi": 62,
                    "time": 52.2260650000002,
                    "velocity": 0.2677165354330709,
                    "duration": 0.17123300000000086
                },
                {
                    "name": "B3",
                    "midi": 59,
                    "time": 52.3972980000002,
                    "velocity": 0.29133858267716534,
                    "duration": 0.17123300000000086
                },
                {
                    "name": "D4",
                    "midi": 62,
                    "time": 52.5685310000002,
                    "velocity": 0.2677165354330709,
                    "duration": 0.17123300000000086
                },
                {
                    "name": "G3",
                    "midi": 55,
                    "time": 52.7397640000002,
                    "velocity": 0.29133858267716534,
                    "duration": 0.17123300000000086
                },
                {
                    "name": "E4",
                    "midi": 64,
                    "time": 52.9109970000002,
                    "velocity": 0.2283464566929134,
                    "duration": 0.17123300000000086
                },
                {
                    "name": "C4",
                    "midi": 60,
                    "time": 53.0822300000002,
                    "velocity": 0.25196850393700787,
                    "duration": 0.17123300000000086
                },
                {
                    "name": "E4",
                    "midi": 64,
                    "time": 53.2534630000002,
                    "velocity": 0.2283464566929134,
                    "duration": 0.17123300000000086
                },
                {
                    "name": "G3",
                    "midi": 55,
                    "time": 53.4246960000002,
                    "velocity": 0.25196850393700787,
                    "duration": 0.17123300000000086
                },
                {
                    "name": "D4",
                    "midi": 62,
                    "time": 53.595929000000204,
                    "velocity": 0.23622047244094488,
                    "duration": 0.17123300000000086
                },
                {
                    "name": "B3",
                    "midi": 59,
                    "time": 53.767162000000205,
                    "velocity": 0.25196850393700787,
                    "duration": 0.17123300000000086
                },
                {
                    "name": "D4",
                    "midi": 62,
                    "time": 53.938395000000206,
                    "velocity": 0.2440944881889764,
                    "duration": 0.17123300000000086
                },
                {
                    "name": "F3",
                    "midi": 53,
                    "time": 54.10962800000021,
                    "velocity": 0.25196850393700787,
                    "duration": 0.17123300000000086
                },
                {
                    "name": "C4",
                    "midi": 60,
                    "time": 54.28086100000021,
                    "velocity": 0.23622047244094488,
                    "duration": 0.17123300000000086
                },
                {
                    "name": "A3",
                    "midi": 57,
                    "time": 54.45209400000021,
                    "velocity": 0.25196850393700787,
                    "duration": 0.17123300000000086
                },
                {
                    "name": "C4",
                    "midi": 60,
                    "time": 54.62332700000021,
                    "velocity": 0.23622047244094488,
                    "duration": 0.17123300000000086
                },
                {
                    "name": "E3",
                    "midi": 52,
                    "time": 54.79456000000021,
                    "velocity": 0.25196850393700787,
                    "duration": 0.17123300000000086
                },
                {
                    "name": "C4",
                    "midi": 60,
                    "time": 54.96579300000021,
                    "velocity": 0.23622047244094488,
                    "duration": 0.17123300000000086
                },
                {
                    "name": "G3",
                    "midi": 55,
                    "time": 55.13702600000021,
                    "velocity": 0.25196850393700787,
                    "duration": 0.17123300000000086
                },
                {
                    "name": "C4",
                    "midi": 60,
                    "time": 55.30825900000021,
                    "velocity": 0.23622047244094488,
                    "duration": 0.17123300000000086
                },
                {
                    "name": "C3",
                    "midi": 48,
                    "time": 55.479492000000214,
                    "velocity": 0.31496062992125984,
                    "duration": 0.17123300000000086
                },
                {
                    "name": "G3",
                    "midi": 55,
                    "time": 55.650725000000214,
                    "velocity": 0.2677165354330709,
                    "duration": 0.17123300000000086
                },
                {
                    "name": "E3",
                    "midi": 52,
                    "time": 55.821958000000215,
                    "velocity": 0.31496062992125984,
                    "duration": 0.17123300000000086
                },
                {
                    "name": "G3",
                    "midi": 55,
                    "time": 55.993191000000216,
                    "velocity": 0.25984251968503935,
                    "duration": 0.17123300000000086
                },
                {
                    "name": "D3",
                    "midi": 50,
                    "time": 56.16442400000022,
                    "velocity": 0.30708661417322836,
                    "duration": 0.17123300000000086
                },
                {
                    "name": "B3",
                    "midi": 59,
                    "time": 56.33565700000022,
                    "velocity": 0.2677165354330709,
                    "duration": 0.17123300000000086
                },
                {
                    "name": "G3",
                    "midi": 55,
                    "time": 56.50689000000022,
                    "velocity": 0.30708661417322836,
                    "duration": 0.17123300000000086
                },
                {
                    "name": "B3",
                    "midi": 59,
                    "time": 56.67812300000022,
                    "velocity": 0.2677165354330709,
                    "duration": 0.17123300000000086
                },
                {
                    "name": "D3",
                    "midi": 50,
                    "time": 56.84935600000022,
                    "velocity": 0.30708661417322836,
                    "duration": 0.17123300000000086
                },
                {
                    "name": "C4",
                    "midi": 60,
                    "time": 57.02058900000022,
                    "velocity": 0.2677165354330709,
                    "duration": 0.17123300000000086
                },
                {
                    "name": "F#3",
                    "midi": 54,
                    "time": 57.19182200000022,
                    "velocity": 0.2992125984251969,
                    "duration": 0.17123300000000086
                },
                {
                    "name": "C4",
                    "midi": 60,
                    "time": 57.36305500000022,
                    "velocity": 0.25984251968503935,
                    "duration": 0.17123300000000086
                },
                {
                    "name": "G3",
                    "midi": 55,
                    "time": 57.534288000000224,
                    "velocity": 0.31496062992125984,
                    "duration": 0.17123300000000086
                },
                {
                    "name": "D4",
                    "midi": 62,
                    "time": 57.705521000000225,
                    "velocity": 0.2755905511811024,
                    "duration": 0.17123300000000086
                },
                {
                    "name": "B3",
                    "midi": 59,
                    "time": 57.876754000000226,
                    "velocity": 0.31496062992125984,
                    "duration": 0.17123300000000086
                },
                {
                    "name": "D4",
                    "midi": 62,
                    "time": 58.04798700000023,
                    "velocity": 0.2677165354330709,
                    "duration": 0.17123300000000086
                },
                {
                    "name": "G3",
                    "midi": 55,
                    "time": 58.21922000000023,
                    "velocity": 0.25196850393700787,
                    "duration": 0.17123300000000086
                },
                {
                    "name": "E4",
                    "midi": 64,
                    "time": 58.39045300000023,
                    "velocity": 0.23622047244094488,
                    "duration": 0.17123300000000086
                },
                {
                    "name": "C4",
                    "midi": 60,
                    "time": 58.56168600000023,
                    "velocity": 0.25196850393700787,
                    "duration": 0.17123300000000086
                },
                {
                    "name": "E4",
                    "midi": 64,
                    "time": 58.73291900000023,
                    "velocity": 0.23622047244094488,
                    "duration": 0.17123300000000086
                },
                {
                    "name": "G3",
                    "midi": 55,
                    "time": 58.90415200000023,
                    "velocity": 0.25196850393700787,
                    "duration": 0.17123300000000086
                },
                {
                    "name": "D4",
                    "midi": 62,
                    "time": 59.07538500000023,
                    "velocity": 0.23622047244094488,
                    "duration": 0.17123300000000086
                },
                {
                    "name": "B3",
                    "midi": 59,
                    "time": 59.24661800000023,
                    "velocity": 0.25196850393700787,
                    "duration": 0.17123300000000086
                },
                {
                    "name": "D4",
                    "midi": 62,
                    "time": 59.41785100000023,
                    "velocity": 0.23622047244094488,
                    "duration": 0.17123300000000086
                },
                {
                    "name": "F3",
                    "midi": 53,
                    "time": 59.589084000000234,
                    "velocity": 0.25196850393700787,
                    "duration": 0.17123300000000086
                },
                {
                    "name": "C4",
                    "midi": 60,
                    "time": 59.760317000000235,
                    "velocity": 0.2283464566929134,
                    "duration": 0.17123300000000086
                },
                {
                    "name": "A3",
                    "midi": 57,
                    "time": 59.931550000000236,
                    "velocity": 0.25196850393700787,
                    "duration": 0.17123300000000086
                },
                {
                    "name": "C4",
                    "midi": 60,
                    "time": 60.10278300000024,
                    "velocity": 0.2283464566929134,
                    "duration": 0.17123300000000086
                },
                {
                    "name": "E3",
                    "midi": 52,
                    "time": 60.27401600000024,
                    "velocity": 0.2677165354330709,
                    "duration": 0.17123300000000086
                },
                {
                    "name": "C4",
                    "midi": 60,
                    "time": 60.44524900000024,
                    "velocity": 0.23622047244094488,
                    "duration": 0.17123300000000086
                },
                {
                    "name": "G3",
                    "midi": 55,
                    "time": 60.61648200000024,
                    "velocity": 0.25984251968503935,
                    "duration": 0.17123300000000086
                },
                {
                    "name": "C4",
                    "midi": 60,
                    "time": 60.78771500000024,
                    "velocity": 0.2283464566929134,
                    "duration": 0.17123300000000086
                },
                {
                    "name": "C3",
                    "midi": 48,
                    "time": 60.95894800000024,
                    "velocity": 0.3228346456692913,
                    "duration": 0.17123300000000086
                },
                {
                    "name": "G3",
                    "midi": 55,
                    "time": 61.13018100000024,
                    "velocity": 0.2992125984251969,
                    "duration": 0.17123300000000086
                },
                {
                    "name": "E3",
                    "midi": 52,
                    "time": 61.30141400000024,
                    "velocity": 0.31496062992125984,
                    "duration": 0.17123300000000086
                },
                {
                    "name": "G3",
                    "midi": 55,
                    "time": 61.472647000000244,
                    "velocity": 0.29133858267716534,
                    "duration": 0.17123300000000086
                },
                {
                    "name": "D3",
                    "midi": 50,
                    "time": 61.643880000000244,
                    "velocity": 0.31496062992125984,
                    "duration": 0.17123300000000086
                },
                {
                    "name": "B3",
                    "midi": 59,
                    "time": 61.815113000000245,
                    "velocity": 0.29133858267716534,
                    "duration": 0.17123300000000086
                },
                {
                    "name": "G3",
                    "midi": 55,
                    "time": 61.986346000000246,
                    "velocity": 0.30708661417322836,
                    "duration": 0.17123300000000086
                },
                {
                    "name": "B3",
                    "midi": 59,
                    "time": 62.15757900000025,
                    "velocity": 0.25196850393700787,
                    "duration": 0.17123300000000086
                },
                {
                    "name": "D3",
                    "midi": 50,
                    "time": 62.32881200000025,
                    "velocity": 0.2992125984251969,
                    "duration": 0.17123300000000086
                },
                {
                    "name": "C4",
                    "midi": 60,
                    "time": 62.50004500000025,
                    "velocity": 0.25984251968503935,
                    "duration": 0.17123300000000086
                },
                {
                    "name": "A3",
                    "midi": 57,
                    "time": 62.67127800000025,
                    "velocity": 0.2992125984251969,
                    "duration": 0.17123300000000086
                },
                {
                    "name": "C4",
                    "midi": 60,
                    "time": 62.84251100000025,
                    "velocity": 0.25196850393700787,
                    "duration": 0.17123300000000086
                },
                {
                    "name": "B3",
                    "midi": 59,
                    "time": 63.35621000000025,
                    "velocity": 0.2992125984251969,
                    "duration": 0.3424660000000017
                },
                {
                    "name": "G3",
                    "midi": 55,
                    "time": 63.35621000000025,
                    "velocity": 0.2992125984251969,
                    "duration": 0.3424660000000017
                },
                {
                    "name": "A3",
                    "midi": 57,
                    "time": 63.698676000000255,
                    "velocity": 0.3464566929133858,
                    "duration": 0.3424659999999946
                },
                {
                    "name": "C4",
                    "midi": 60,
                    "time": 63.698676000000255,
                    "velocity": 0.3464566929133858,
                    "duration": 0.3424659999999946
                },
                {
                    "name": "B3",
                    "midi": 59,
                    "time": 64.04114200000025,
                    "velocity": 0.3858267716535433,
                    "duration": 0.3424660000000017
                },
                {
                    "name": "D4",
                    "midi": 62,
                    "time": 64.04114200000025,
                    "velocity": 0.3858267716535433,
                    "duration": 0.3424660000000017
                },
                {
                    "name": "F#3",
                    "midi": 54,
                    "time": 64.72607400000025,
                    "velocity": 0.29133858267716534,
                    "duration": 0.3424660000000017
                },
                {
                    "name": "D3",
                    "midi": 50,
                    "time": 64.72607400000025,
                    "velocity": 0.29133858267716534,
                    "duration": 0.3424660000000017
                },
                {
                    "name": "G3",
                    "midi": 55,
                    "time": 65.06854000000025,
                    "velocity": 0.31496062992125984,
                    "duration": 0.3424660000000017
                },
                {
                    "name": "E3",
                    "midi": 52,
                    "time": 65.06854000000025,
                    "velocity": 0.31496062992125984,
                    "duration": 0.3424660000000017
                },
                {
                    "name": "A3",
                    "midi": 57,
                    "time": 65.41100600000026,
                    "velocity": 0.3464566929133858,
                    "duration": 0.3424660000000017
                },
                {
                    "name": "F#3",
                    "midi": 54,
                    "time": 65.41100600000026,
                    "velocity": 0.3464566929133858,
                    "duration": 0.3424660000000017
                },
                {
                    "name": "G3",
                    "midi": 55,
                    "time": 66.09593800000026,
                    "velocity": 0.2992125984251969,
                    "duration": 0.3424660000000017
                },
                {
                    "name": "B3",
                    "midi": 59,
                    "time": 66.09593800000026,
                    "velocity": 0.2992125984251969,
                    "duration": 0.3424660000000017
                },
                {
                    "name": "A3",
                    "midi": 57,
                    "time": 66.43840400000026,
                    "velocity": 0.3464566929133858,
                    "duration": 0.3424660000000017
                },
                {
                    "name": "C4",
                    "midi": 60,
                    "time": 66.43840400000026,
                    "velocity": 0.3464566929133858,
                    "duration": 0.3424660000000017
                },
                {
                    "name": "D4",
                    "midi": 62,
                    "time": 66.78087000000026,
                    "velocity": 0.3858267716535433,
                    "duration": 0.3424660000000017
                },
                {
                    "name": "B3",
                    "midi": 59,
                    "time": 66.78087000000026,
                    "velocity": 0.3858267716535433,
                    "duration": 0.3424660000000017
                },
                {
                    "name": "D3",
                    "midi": 50,
                    "time": 67.46580200000027,
                    "velocity": 0.29133858267716534,
                    "duration": 0.3424660000000017
                },
                {
                    "name": "F#3",
                    "midi": 54,
                    "time": 67.46580200000027,
                    "velocity": 0.29133858267716534,
                    "duration": 0.3424660000000017
                },
                {
                    "name": "G3",
                    "midi": 55,
                    "time": 67.80826800000027,
                    "velocity": 0.31496062992125984,
                    "duration": 0.3424660000000017
                },
                {
                    "name": "E3",
                    "midi": 52,
                    "time": 67.80826800000027,
                    "velocity": 0.31496062992125984,
                    "duration": 0.3424660000000017
                },
                {
                    "name": "A3",
                    "midi": 57,
                    "time": 68.15073400000027,
                    "velocity": 0.3464566929133858,
                    "duration": 0.3424660000000017
                },
                {
                    "name": "F#3",
                    "midi": 54,
                    "time": 68.15073400000027,
                    "velocity": 0.3464566929133858,
                    "duration": 0.3424660000000017
                },
                {
                    "name": "G3",
                    "midi": 55,
                    "time": 68.49320000000027,
                    "velocity": 0.3464566929133858,
                    "duration": 0.6849320000000034
                },
                {
                    "name": "G2",
                    "midi": 43,
                    "time": 69.86306400000028,
                    "velocity": 0.3464566929133858,
                    "duration": 1.3698640000000069
                },
                {
                    "name": "G3",
                    "midi": 55,
                    "time": 69.86306400000028,
                    "velocity": 0.3464566929133858,
                    "duration": 2.0547960000000103
                },
                {
                    "name": "D3",
                    "midi": 50,
                    "time": 69.86306400000028,
                    "velocity": 0.3464566929133858,
                    "duration": 1.3698640000000069
                },
                {
                    "name": "B2",
                    "midi": 47,
                    "time": 69.86306400000028,
                    "velocity": 0.3464566929133858,
                    "duration": 1.3698640000000069
                },
                {
                    "name": "C3",
                    "midi": 48,
                    "time": 71.23292800000029,
                    "velocity": 0.2992125984251969,
                    "duration": 0.6849320000000034
                },
                {
                    "name": "C#3",
                    "midi": 49,
                    "time": 72.9452580000003,
                    "velocity": 0.29133858267716534,
                    "duration": 0.3424660000000017
                },
                {
                    "name": "A#3",
                    "midi": 58,
                    "time": 72.9452580000003,
                    "velocity": 0.29133858267716534,
                    "duration": 0.3424660000000017
                },
                {
                    "name": "D3",
                    "midi": 50,
                    "time": 73.2877240000003,
                    "velocity": 0.31496062992125984,
                    "duration": 0.3424660000000017
                },
                {
                    "name": "B3",
                    "midi": 59,
                    "time": 73.2877240000003,
                    "velocity": 0.31496062992125984,
                    "duration": 0.3424660000000017
                },
                {
                    "name": "C4",
                    "midi": 60,
                    "time": 73.6301900000003,
                    "velocity": 0.3464566929133858,
                    "duration": 0.3424660000000017
                },
                {
                    "name": "G3",
                    "midi": 55,
                    "time": 73.9726560000003,
                    "velocity": 0.3464566929133858,
                    "duration": 0.6849320000000034
                },
                {
                    "name": "B3",
                    "midi": 59,
                    "time": 73.9726560000003,
                    "velocity": 0.3464566929133858,
                    "duration": 0.6849320000000034
                },
                {
                    "name": "G2",
                    "midi": 43,
                    "time": 75.3425200000003,
                    "velocity": 0.3464566929133858,
                    "duration": 1.3698640000000069
                },
                {
                    "name": "G3",
                    "midi": 55,
                    "time": 75.3425200000003,
                    "velocity": 0.3464566929133858,
                    "duration": 2.0547960000000103
                },
                {
                    "name": "D3",
                    "midi": 50,
                    "time": 75.3425200000003,
                    "velocity": 0.3464566929133858,
                    "duration": 1.3698640000000069
                },
                {
                    "name": "B2",
                    "midi": 47,
                    "time": 75.3425200000003,
                    "velocity": 0.3464566929133858,
                    "duration": 1.3698640000000069
                },
                {
                    "name": "C3",
                    "midi": 48,
                    "time": 76.71238400000031,
                    "velocity": 0.2992125984251969,
                    "duration": 0.6849320000000034
                },
                {
                    "name": "A#3",
                    "midi": 58,
                    "time": 78.08224800000032,
                    "velocity": 0.3228346456692913,
                    "duration": 0.6849320000000034
                },
                {
                    "name": "C#3",
                    "midi": 49,
                    "time": 78.08224800000032,
                    "velocity": 0.3228346456692913,
                    "duration": 0.6849320000000034
                },
                {
                    "name": "D3",
                    "midi": 50,
                    "time": 79.45211200000033,
                    "velocity": 0.3779527559055118,
                    "duration": 0.17123300000000086
                },
                {
                    "name": "B3",
                    "midi": 59,
                    "time": 79.62334500000033,
                    "velocity": 0.31496062992125984,
                    "duration": 0.17123300000000086
                },
                {
                    "name": "G3",
                    "midi": 55,
                    "time": 79.79457800000033,
                    "velocity": 0.3228346456692913,
                    "duration": 0.17123300000000086
                },
                {
                    "name": "B3",
                    "midi": 59,
                    "time": 79.96581100000033,
                    "velocity": 0.30708661417322836,
                    "duration": 0.17123300000000086
                },
                {
                    "name": "D3",
                    "midi": 50,
                    "time": 80.13704400000033,
                    "velocity": 0.3779527559055118,
                    "duration": 0.17123300000000086
                },
                {
                    "name": "B3",
                    "midi": 59,
                    "time": 80.30827700000033,
                    "velocity": 0.31496062992125984,
                    "duration": 0.17123300000000086
                },
                {
                    "name": "G3",
                    "midi": 55,
                    "time": 80.47951000000033,
                    "velocity": 0.3228346456692913,
                    "duration": 0.17123300000000086
                },
                {
                    "name": "B3",
                    "midi": 59,
                    "time": 80.65074300000033,
                    "velocity": 0.31496062992125984,
                    "duration": 0.17123300000000086
                },
                {
                    "name": "D3",
                    "midi": 50,
                    "time": 80.82197600000033,
                    "velocity": 0.33858267716535434,
                    "duration": 0.17123300000000086
                },
                {
                    "name": "D4",
                    "midi": 62,
                    "time": 80.99320900000033,
                    "velocity": 0.29133858267716534,
                    "duration": 0.17123300000000086
                },
                {
                    "name": "G3",
                    "midi": 55,
                    "time": 81.16444200000034,
                    "velocity": 0.2992125984251969,
                    "duration": 0.17123300000000086
                },
                {
                    "name": "D4",
                    "midi": 62,
                    "time": 81.33567500000034,
                    "velocity": 0.28346456692913385,
                    "duration": 0.17123300000000086
                },
                {
                    "name": "D3",
                    "midi": 50,
                    "time": 81.50690800000034,
                    "velocity": 0.30708661417322836,
                    "duration": 0.17123300000000086
                },
                {
                    "name": "C4",
                    "midi": 60,
                    "time": 81.67814100000034,
                    "velocity": 0.23622047244094488,
                    "duration": 0.17123300000000086
                },
                {
                    "name": "F#3",
                    "midi": 54,
                    "time": 81.84937400000034,
                    "velocity": 0.25196850393700787,
                    "duration": 0.17123300000000086
                },
                {
                    "name": "C4",
                    "midi": 60,
                    "time": 82.02060700000034,
                    "velocity": 0.23622047244094488,
                    "duration": 0.17123300000000086
                },
                {
                    "name": "G3",
                    "midi": 55,
                    "time": 82.19184000000034,
                    "velocity": 0.2755905511811024,
                    "duration": 0.17123300000000086
                },
                {
                    "name": "B3",
                    "midi": 59,
                    "time": 82.36307300000034,
                    "velocity": 0.23622047244094488,
                    "duration": 0.17123300000000086
                },
                {
                    "name": "G4",
                    "midi": 67,
                    "time": 82.53430600000034,
                    "velocity": 0.25196850393700787,
                    "duration": 0.17123300000000086
                },
                {
                    "name": "B3",
                    "midi": 59,
                    "time": 82.70553900000034,
                    "velocity": 0.23622047244094488,
                    "duration": 0.17123300000000086
                },
                {
                    "name": "G3",
                    "midi": 55,
                    "time": 82.87677200000034,
                    "velocity": 0.2755905511811024,
                    "duration": 0.17123300000000086
                },
                {
                    "name": "B3",
                    "midi": 59,
                    "time": 83.04800500000034,
                    "velocity": 0.23622047244094488,
                    "duration": 0.17123300000000086
                },
                {
                    "name": "G4",
                    "midi": 67,
                    "time": 83.21923800000035,
                    "velocity": 0.25196850393700787,
                    "duration": 0.17123300000000086
                },
                {
                    "name": "B3",
                    "midi": 59,
                    "time": 83.39047100000035,
                    "velocity": 0.23622047244094488,
                    "duration": 0.17123300000000086
                },
                {
                    "name": "G3",
                    "midi": 55,
                    "time": 83.56170400000035,
                    "velocity": 0.2755905511811024,
                    "duration": 0.17123300000000086
                },
                {
                    "name": "A3",
                    "midi": 57,
                    "time": 83.73293700000035,
                    "velocity": 0.23622047244094488,
                    "duration": 0.17123300000000086
                },
                {
                    "name": "F#4",
                    "midi": 66,
                    "time": 83.90417000000035,
                    "velocity": 0.25196850393700787,
                    "duration": 0.17123300000000086
                },
                {
                    "name": "A3",
                    "midi": 57,
                    "time": 84.07540300000035,
                    "velocity": 0.23622047244094488,
                    "duration": 0.17123300000000086
                },
                {
                    "name": "G3",
                    "midi": 55,
                    "time": 84.24663600000035,
                    "velocity": 0.2755905511811024,
                    "duration": 0.17123300000000086
                },
                {
                    "name": "C4",
                    "midi": 60,
                    "time": 84.41786900000035,
                    "velocity": 0.23622047244094488,
                    "duration": 0.17123300000000086
                },
                {
                    "name": "F#4",
                    "midi": 66,
                    "time": 84.58910200000035,
                    "velocity": 0.25196850393700787,
                    "duration": 0.17123300000000086
                },
                {
                    "name": "C4",
                    "midi": 60,
                    "time": 84.76033500000035,
                    "velocity": 0.23622047244094488,
                    "duration": 0.17123300000000086
                },
                {
                    "name": "G3",
                    "midi": 55,
                    "time": 84.93156800000035,
                    "velocity": 0.2755905511811024,
                    "duration": 0.17123300000000086
                },
                {
                    "name": "B3",
                    "midi": 59,
                    "time": 85.10280100000035,
                    "velocity": 0.23622047244094488,
                    "duration": 0.17123300000000086
                },
                {
                    "name": "G4",
                    "midi": 67,
                    "time": 85.27403400000036,
                    "velocity": 0.25196850393700787,
                    "duration": 0.17123300000000086
                },
                {
                    "name": "B3",
                    "midi": 59,
                    "time": 85.44526700000036,
                    "velocity": 0.2440944881889764,
                    "duration": 0.17123300000000086
                },
                {
                    "name": "G3",
                    "midi": 55,
                    "time": 85.61650000000036,
                    "velocity": 0.2755905511811024,
                    "duration": 0.17123300000000086
                },
                {
                    "name": "B3",
                    "midi": 59,
                    "time": 85.78773300000036,
                    "velocity": 0.23622047244094488,
                    "duration": 0.17123300000000086
                },
                {
                    "name": "G4",
                    "midi": 67,
                    "time": 85.95896600000036,
                    "velocity": 0.25196850393700787,
                    "duration": 0.17123300000000086
                },
                {
                    "name": "B3",
                    "midi": 59,
                    "time": 86.13019900000036,
                    "velocity": 0.23622047244094488,
                    "duration": 0.17123300000000086
                },
                {
                    "name": "G3",
                    "midi": 55,
                    "time": 86.30143200000036,
                    "velocity": 0.2755905511811024,
                    "duration": 0.17123300000000086
                },
                {
                    "name": "A3",
                    "midi": 57,
                    "time": 86.47266500000036,
                    "velocity": 0.23622047244094488,
                    "duration": 0.17123300000000086
                },
                {
                    "name": "F#4",
                    "midi": 66,
                    "time": 86.64389800000036,
                    "velocity": 0.25196850393700787,
                    "duration": 0.17123300000000086
                },
                {
                    "name": "A3",
                    "midi": 57,
                    "time": 86.81513100000036,
                    "velocity": 0.23622047244094488,
                    "duration": 0.17123300000000086
                },
                {
                    "name": "G3",
                    "midi": 55,
                    "time": 86.98636400000036,
                    "velocity": 0.2755905511811024,
                    "duration": 0.17123300000000086
                },
                {
                    "name": "C4",
                    "midi": 60,
                    "time": 87.15759700000037,
                    "velocity": 0.23622047244094488,
                    "duration": 0.17123300000000086
                },
                {
                    "name": "F#4",
                    "midi": 66,
                    "time": 87.32883000000037,
                    "velocity": 0.25196850393700787,
                    "duration": 0.17123300000000086
                },
                {
                    "name": "C4",
                    "midi": 60,
                    "time": 87.50006300000037,
                    "velocity": 0.23622047244094488,
                    "duration": 0.17123300000000086
                },
                {
                    "name": "G3",
                    "midi": 55,
                    "time": 87.67129600000037,
                    "velocity": 0.2755905511811024,
                    "duration": 0.17123300000000086
                },
                {
                    "name": "B3",
                    "midi": 59,
                    "time": 87.84252900000037,
                    "velocity": 0.23622047244094488,
                    "duration": 0.17123300000000086
                },
                {
                    "name": "G4",
                    "midi": 67,
                    "time": 88.01376200000037,
                    "velocity": 0.25196850393700787,
                    "duration": 0.17123300000000086
                },
                {
                    "name": "B3",
                    "midi": 59,
                    "time": 88.18499500000037,
                    "velocity": 0.23622047244094488,
                    "duration": 0.17123300000000086
                },
                {
                    "name": "G3",
                    "midi": 55,
                    "time": 88.35622800000037,
                    "velocity": 0.2755905511811024,
                    "duration": 0.17123300000000086
                },
                {
                    "name": "C4",
                    "midi": 60,
                    "time": 88.52746100000037,
                    "velocity": 0.23622047244094488,
                    "duration": 0.17123300000000086
                },
                {
                    "name": "F#4",
                    "midi": 66,
                    "time": 88.69869400000037,
                    "velocity": 0.25196850393700787,
                    "duration": 0.17123300000000086
                },
                {
                    "name": "C4",
                    "midi": 60,
                    "time": 88.86992700000037,
                    "velocity": 0.23622047244094488,
                    "duration": 0.17123300000000086
                },
                {
                    "name": "G3",
                    "midi": 55,
                    "time": 89.04116000000037,
                    "velocity": 0.2755905511811024,
                    "duration": 0.17123300000000086
                },
                {
                    "name": "B3",
                    "midi": 59,
                    "time": 89.21239300000038,
                    "velocity": 0.23622047244094488,
                    "duration": 0.17123300000000086
                },
                {
                    "name": "G4",
                    "midi": 67,
                    "time": 89.38362600000038,
                    "velocity": 0.25196850393700787,
                    "duration": 0.17123300000000086
                },
                {
                    "name": "B3",
                    "midi": 59,
                    "time": 89.55485900000038,
                    "velocity": 0.23622047244094488,
                    "duration": 0.17123300000000086
                },
                {
                    "name": "G3",
                    "midi": 55,
                    "time": 89.72609200000038,
                    "velocity": 0.2755905511811024,
                    "duration": 0.17123300000000086
                },
                {
                    "name": "C4",
                    "midi": 60,
                    "time": 89.89732500000038,
                    "velocity": 0.23622047244094488,
                    "duration": 0.17123300000000086
                },
                {
                    "name": "F#4",
                    "midi": 66,
                    "time": 90.06855800000038,
                    "velocity": 0.25196850393700787,
                    "duration": 0.17123300000000086
                },
                {
                    "name": "C4",
                    "midi": 60,
                    "time": 90.23979100000038,
                    "velocity": 0.23622047244094488,
                    "duration": 0.17123300000000086
                },
                {
                    "name": "G4",
                    "midi": 67,
                    "time": 90.41102400000038,
                    "velocity": 0.2440944881889764,
                    "duration": 0.3424660000000017
                },
                {
                    "name": "B3",
                    "midi": 59,
                    "time": 90.41102400000038,
                    "velocity": 0.2440944881889764,
                    "duration": 0.3424660000000017
                },
                {
                    "name": "G3",
                    "midi": 55,
                    "time": 90.41102400000038,
                    "velocity": 0.2440944881889764,
                    "duration": 0.3424660000000017
                },
                {
                    "name": "D3",
                    "midi": 50,
                    "time": 91.43842200000039,
                    "velocity": 0.23622047244094488,
                    "duration": 0.3424660000000017
                },
                {
                    "name": "G3",
                    "midi": 55,
                    "time": 91.78088800000039,
                    "velocity": 0.25984251968503935,
                    "duration": 0.3424660000000017
                },
                {
                    "name": "D3",
                    "midi": 50,
                    "time": 92.12335400000039,
                    "velocity": 0.25196850393700787,
                    "duration": 0.3424660000000017
                },
                {
                    "name": "G2",
                    "midi": 43,
                    "time": 92.46582000000039,
                    "velocity": 0.25984251968503935,
                    "duration": 0.3424660000000017
                },
                {
                    "name": "C3",
                    "midi": 48,
                    "time": 93.4932180000004,
                    "velocity": 0.31496062992125984,
                    "duration": 0.3424660000000017
                },
                {
                    "name": "E3",
                    "midi": 52,
                    "time": 93.8356840000004,
                    "velocity": 0.31496062992125984,
                    "duration": 0.3424660000000017
                },
                {
                    "name": "G3",
                    "midi": 55,
                    "time": 94.1781500000004,
                    "velocity": 0.31496062992125984,
                    "duration": 0.3424660000000017
                },
                {
                    "name": "C4",
                    "midi": 60,
                    "time": 94.5206160000004,
                    "velocity": 0.33858267716535434,
                    "duration": 0.3424660000000017
                },
                {
                    "name": "C3",
                    "midi": 48,
                    "time": 94.8630820000004,
                    "velocity": 0.31496062992125984,
                    "duration": 0.3424660000000017
                },
                {
                    "name": "G3",
                    "midi": 55,
                    "time": 95.2055480000004,
                    "velocity": 0.33858267716535434,
                    "duration": 0.3424660000000017
                },
                {
                    "name": "G2",
                    "midi": 43,
                    "time": 95.5480140000004,
                    "velocity": 0.31496062992125984,
                    "duration": 0.3424660000000017
                },
                {
                    "name": "C3",
                    "midi": 48,
                    "time": 96.23294600000041,
                    "velocity": 0.31496062992125984,
                    "duration": 0.3424660000000017
                },
                {
                    "name": "E3",
                    "midi": 52,
                    "time": 96.57541200000041,
                    "velocity": 0.31496062992125984,
                    "duration": 0.3424660000000017
                },
                {
                    "name": "G3",
                    "midi": 55,
                    "time": 96.91787800000041,
                    "velocity": 0.33858267716535434,
                    "duration": 0.3424660000000017
                },
                {
                    "name": "C4",
                    "midi": 60,
                    "time": 97.26034400000042,
                    "velocity": 0.3464566929133858,
                    "duration": 0.3424660000000017
                },
                {
                    "name": "C3",
                    "midi": 48,
                    "time": 97.60281000000042,
                    "velocity": 0.3228346456692913,
                    "duration": 0.3424660000000017
                },
                {
                    "name": "G3",
                    "midi": 55,
                    "time": 97.94527600000042,
                    "velocity": 0.33858267716535434,
                    "duration": 0.3424660000000017
                },
                {
                    "name": "G2",
                    "midi": 43,
                    "time": 98.28774200000042,
                    "velocity": 0.3228346456692913,
                    "duration": 0.3424660000000017
                },
                {
                    "name": "A3",
                    "midi": 57,
                    "time": 98.63020800000042,
                    "velocity": 0.3700787401574803,
                    "duration": 0.3424660000000017
                },
                {
                    "name": "C4",
                    "midi": 60,
                    "time": 98.97267400000042,
                    "velocity": 0.36220472440944884,
                    "duration": 0.3424660000000017
                },
                {
                    "name": "G3",
                    "midi": 55,
                    "time": 99.31514000000043,
                    "velocity": 0.3858267716535433,
                    "duration": 0.3424660000000017
                },
                {
                    "name": "C4",
                    "midi": 60,
                    "time": 99.65760600000043,
                    "velocity": 0.3543307086614173,
                    "duration": 0.3424660000000017
                },
                {
                    "name": "F3",
                    "midi": 53,
                    "time": 100.00007200000043,
                    "velocity": 0.3858267716535433,
                    "duration": 0.3424660000000017
                },
                {
                    "name": "C4",
                    "midi": 60,
                    "time": 100.34253800000043,
                    "velocity": 0.3700787401574803,
                    "duration": 0.3424660000000017
                },
                {
                    "name": "E3",
                    "midi": 52,
                    "time": 100.68500400000043,
                    "velocity": 0.3937007874015748,
                    "duration": 0.3424660000000017
                },
                {
                    "name": "C4",
                    "midi": 60,
                    "time": 101.02747000000043,
                    "velocity": 0.36220472440944884,
                    "duration": 0.3424660000000017
                },
                {
                    "name": "G4",
                    "midi": 67,
                    "time": 101.71240200000044,
                    "velocity": 0.33858267716535434,
                    "duration": 0.3424660000000017
                },
                {
                    "name": "B3",
                    "midi": 59,
                    "time": 101.71240200000044,
                    "velocity": 0.33858267716535434,
                    "duration": 0.3424660000000017
                },
                {
                    "name": "G4",
                    "midi": 67,
                    "time": 102.39733400000044,
                    "velocity": 0.33858267716535434,
                    "duration": 0.3424660000000017
                },
                {
                    "name": "C4",
                    "midi": 60,
                    "time": 102.39733400000044,
                    "velocity": 0.33858267716535434,
                    "duration": 0.3424660000000017
                },
                {
                    "name": "B3",
                    "midi": 59,
                    "time": 102.73980000000044,
                    "velocity": 0.3464566929133858,
                    "duration": 0.6849320000000034
                },
                {
                    "name": "G3",
                    "midi": 55,
                    "time": 102.73980000000044,
                    "velocity": 0.3464566929133858,
                    "duration": 0.6849320000000034
                },
                {
                    "name": "C2",
                    "midi": 36,
                    "time": 104.10966400000045,
                    "velocity": 0.5039370078740157,
                    "duration": 0.17123300000000086
                },
                {
                    "name": "E2",
                    "midi": 40,
                    "time": 104.28089700000045,
                    "velocity": 0.4409448818897638,
                    "duration": 0.17123300000000086
                },
                {
                    "name": "G2",
                    "midi": 43,
                    "time": 104.45213000000045,
                    "velocity": 0.44881889763779526,
                    "duration": 0.17123300000000086
                },
                {
                    "name": "C3",
                    "midi": 48,
                    "time": 104.62336300000045,
                    "velocity": 0.4409448818897638,
                    "duration": 0.17123300000000086
                },
                {
                    "name": "E2",
                    "midi": 40,
                    "time": 104.79459600000045,
                    "velocity": 0.47244094488188976,
                    "duration": 0.17123300000000086
                },
                {
                    "name": "E3",
                    "midi": 52,
                    "time": 104.96582900000045,
                    "velocity": 0.44881889763779526,
                    "duration": 0.17123300000000086
                },
                {
                    "name": "G2",
                    "midi": 43,
                    "time": 105.13706200000045,
                    "velocity": 0.47244094488188976,
                    "duration": 0.17123300000000086
                },
                {
                    "name": "G3",
                    "midi": 55,
                    "time": 105.30829500000046,
                    "velocity": 0.44881889763779526,
                    "duration": 0.17123300000000086
                },
                {
                    "name": "C3",
                    "midi": 48,
                    "time": 105.47952800000046,
                    "velocity": 0.47244094488188976,
                    "duration": 0.17123300000000086
                },
                {
                    "name": "E3",
                    "midi": 52,
                    "time": 105.65076100000046,
                    "velocity": 0.4330708661417323,
                    "duration": 0.17123300000000086
                },
                {
                    "name": "G3",
                    "midi": 55,
                    "time": 105.82199400000046,
                    "velocity": 0.44881889763779526,
                    "duration": 0.17123300000000086
                },
                {
                    "name": "C4",
                    "midi": 60,
                    "time": 105.99322700000046,
                    "velocity": 0.4409448818897638,
                    "duration": 0.17123300000000086
                },
                {
                    "name": "G2",
                    "midi": 43,
                    "time": 106.16446000000046,
                    "velocity": 0.47244094488188976,
                    "duration": 0.17123300000000086
                },
                {
                    "name": "B2",
                    "midi": 47,
                    "time": 106.33569300000046,
                    "velocity": 0.44881889763779526,
                    "duration": 0.17123300000000086
                },
                {
                    "name": "D3",
                    "midi": 50,
                    "time": 106.50692600000046,
                    "velocity": 0.4645669291338583,
                    "duration": 0.17123300000000086
                },
                {
                    "name": "G3",
                    "midi": 55,
                    "time": 106.67815900000046,
                    "velocity": 0.44881889763779526,
                    "duration": 0.17123300000000086
                },
                {
                    "name": "C2",
                    "midi": 36,
                    "time": 106.84939200000046,
                    "velocity": 0.47244094488188976,
                    "duration": 0.17123300000000086
                },
                {
                    "name": "E2",
                    "midi": 40,
                    "time": 107.02062500000046,
                    "velocity": 0.4409448818897638,
                    "duration": 0.17123300000000086
                },
                {
                    "name": "G2",
                    "midi": 43,
                    "time": 107.19185800000047,
                    "velocity": 0.44881889763779526,
                    "duration": 0.17123300000000086
                },
                {
                    "name": "C3",
                    "midi": 48,
                    "time": 107.36309100000047,
                    "velocity": 0.4330708661417323,
                    "duration": 0.17123300000000086
                },
                {
                    "name": "E2",
                    "midi": 40,
                    "time": 107.53432400000047,
                    "velocity": 0.47244094488188976,
                    "duration": 0.17123300000000086
                },
                {
                    "name": "E3",
                    "midi": 52,
                    "time": 107.70555700000047,
                    "velocity": 0.44881889763779526,
                    "duration": 0.17123300000000086
                },
                {
                    "name": "G2",
                    "midi": 43,
                    "time": 107.87679000000047,
                    "velocity": 0.4566929133858268,
                    "duration": 0.17123300000000086
                },
                {
                    "name": "G3",
                    "midi": 55,
                    "time": 108.04802300000047,
                    "velocity": 0.44881889763779526,
                    "duration": 0.17123300000000086
                },
                {
                    "name": "C3",
                    "midi": 48,
                    "time": 108.21925600000047,
                    "velocity": 0.47244094488188976,
                    "duration": 0.17123300000000086
                },
                {
                    "name": "E3",
                    "midi": 52,
                    "time": 108.39048900000047,
                    "velocity": 0.4330708661417323,
                    "duration": 0.17123300000000086
                },
                {
                    "name": "G3",
                    "midi": 55,
                    "time": 108.56172200000047,
                    "velocity": 0.44881889763779526,
                    "duration": 0.17123300000000086
                },
                {
                    "name": "C4",
                    "midi": 60,
                    "time": 108.73295500000047,
                    "velocity": 0.4409448818897638,
                    "duration": 0.17123300000000086
                },
                {
                    "name": "G2",
                    "midi": 43,
                    "time": 108.90418800000047,
                    "velocity": 0.4881889763779528,
                    "duration": 0.17123300000000086
                },
                {
                    "name": "B2",
                    "midi": 47,
                    "time": 109.07542100000047,
                    "velocity": 0.4409448818897638,
                    "duration": 0.17123300000000086
                },
                {
                    "name": "D3",
                    "midi": 50,
                    "time": 109.24665400000048,
                    "velocity": 0.44881889763779526,
                    "duration": 0.17123300000000086
                },
                {
                    "name": "G3",
                    "midi": 55,
                    "time": 109.41788700000048,
                    "velocity": 0.4409448818897638,
                    "duration": 0.17123300000000086
                },
                {
                    "name": "A3",
                    "midi": 57,
                    "time": 109.58912000000048,
                    "velocity": 0.41732283464566927,
                    "duration": 0.17123300000000086
                },
                {
                    "name": "C4",
                    "midi": 60,
                    "time": 109.76035300000048,
                    "velocity": 0.3858267716535433,
                    "duration": 0.17123300000000086
                },
                {
                    "name": "A3",
                    "midi": 57,
                    "time": 109.93158600000048,
                    "velocity": 0.41732283464566927,
                    "duration": 0.17123300000000086
                },
                {
                    "name": "C4",
                    "midi": 60,
                    "time": 110.10281900000048,
                    "velocity": 0.3858267716535433,
                    "duration": 0.17123300000000086
                },
                {
                    "name": "G3",
                    "midi": 55,
                    "time": 110.27405200000048,
                    "velocity": 0.41732283464566927,
                    "duration": 0.17123300000000086
                },
                {
                    "name": "C4",
                    "midi": 60,
                    "time": 110.44528500000048,
                    "velocity": 0.3937007874015748,
                    "duration": 0.17123300000000086
                },
                {
                    "name": "G3",
                    "midi": 55,
                    "time": 110.61651800000048,
                    "velocity": 0.41732283464566927,
                    "duration": 0.17123300000000086
                },
                {
                    "name": "C4",
                    "midi": 60,
                    "time": 110.78775100000048,
                    "velocity": 0.3937007874015748,
                    "duration": 0.17123300000000086
                },
                {
                    "name": "F3",
                    "midi": 53,
                    "time": 110.95898400000048,
                    "velocity": 0.44881889763779526,
                    "duration": 0.17123300000000086
                },
                {
                    "name": "C4",
                    "midi": 60,
                    "time": 111.13021700000048,
                    "velocity": 0.41732283464566927,
                    "duration": 0.17123300000000086
                },
                {
                    "name": "F3",
                    "midi": 53,
                    "time": 111.30145000000049,
                    "velocity": 0.44881889763779526,
                    "duration": 0.17123300000000086
                },
                {
                    "name": "C4",
                    "midi": 60,
                    "time": 111.47268300000049,
                    "velocity": 0.41732283464566927,
                    "duration": 0.17123300000000086
                },
                {
                    "name": "E3",
                    "midi": 52,
                    "time": 111.64391600000049,
                    "velocity": 0.44881889763779526,
                    "duration": 0.17123300000000086
                },
                {
                    "name": "C4",
                    "midi": 60,
                    "time": 111.81514900000049,
                    "velocity": 0.41732283464566927,
                    "duration": 0.17123300000000086
                },
                {
                    "name": "E3",
                    "midi": 52,
                    "time": 111.98638200000049,
                    "velocity": 0.44881889763779526,
                    "duration": 0.17123300000000086
                },
                {
                    "name": "C4",
                    "midi": 60,
                    "time": 112.15761500000049,
                    "velocity": 0.4094488188976378,
                    "duration": 0.17123300000000086
                },
                {
                    "name": "D4",
                    "midi": 62,
                    "time": 112.67131400000049,
                    "velocity": 0.3858267716535433,
                    "duration": 0.17123300000000086
                },
                {
                    "name": "F3",
                    "midi": 53,
                    "time": 112.67131400000049,
                    "velocity": 0.3858267716535433,
                    "duration": 0.17123300000000086
                },
                {
                    "name": "E4",
                    "midi": 64,
                    "time": 113.0137800000005,
                    "velocity": 0.3858267716535433,
                    "duration": 0.3424660000000017
                },
                {
                    "name": "G3",
                    "midi": 55,
                    "time": 113.0137800000005,
                    "velocity": 0.3858267716535433,
                    "duration": 0.6849320000000034
                },
                {
                    "name": "D4",
                    "midi": 62,
                    "time": 113.3562460000005,
                    "velocity": 0.3858267716535433,
                    "duration": 0.3424660000000017
                },
                {
                    "name": "E4",
                    "midi": 64,
                    "time": 113.6987120000005,
                    "velocity": 0.3858267716535433,
                    "duration": 0.6849320000000034
                },
                {
                    "name": "C4",
                    "midi": 60,
                    "time": 113.6987120000005,
                    "velocity": 0.3858267716535433,
                    "duration": 0.6849320000000034
                },
                {
                    "name": "D4",
                    "midi": 62,
                    "time": 115.4110420000005,
                    "velocity": 0.2992125984251969,
                    "duration": 0.3424660000000017
                },
                {
                    "name": "F3",
                    "midi": 53,
                    "time": 115.4110420000005,
                    "velocity": 0.2992125984251969,
                    "duration": 0.3424660000000017
                },
                {
                    "name": "A3",
                    "midi": 57,
                    "time": 115.4110420000005,
                    "velocity": 0.2992125984251969,
                    "duration": 0.3424660000000017
                },
                {
                    "name": "C4",
                    "midi": 60,
                    "time": 115.75350800000051,
                    "velocity": 0.2992125984251969,
                    "duration": 0.3424660000000017
                },
                {
                    "name": "E4",
                    "midi": 64,
                    "time": 115.75350800000051,
                    "velocity": 0.2992125984251969,
                    "duration": 0.3424660000000017
                },
                {
                    "name": "G3",
                    "midi": 55,
                    "time": 115.75350800000051,
                    "velocity": 0.2992125984251969,
                    "duration": 0.6849320000000034
                },
                {
                    "name": "F4",
                    "midi": 65,
                    "time": 116.09597400000051,
                    "velocity": 0.3464566929133858,
                    "duration": 0.3424660000000017
                },
                {
                    "name": "D4",
                    "midi": 62,
                    "time": 116.09597400000051,
                    "velocity": 0.3464566929133858,
                    "duration": 0.3424660000000017
                },
                {
                    "name": "C4",
                    "midi": 60,
                    "time": 116.43844000000051,
                    "velocity": 0.3858267716535433,
                    "duration": 0.6849320000000034
                },
                {
                    "name": "E4",
                    "midi": 64,
                    "time": 116.43844000000051,
                    "velocity": 0.3858267716535433,
                    "duration": 0.6849320000000034
                },
                {
                    "name": "A3",
                    "midi": 57,
                    "time": 118.15077000000052,
                    "velocity": 0.2992125984251969,
                    "duration": 0.3424660000000017
                },
                {
                    "name": "D4",
                    "midi": 62,
                    "time": 118.15077000000052,
                    "velocity": 0.2992125984251969,
                    "duration": 0.3424660000000017
                },
                {
                    "name": "F3",
                    "midi": 53,
                    "time": 118.15077000000052,
                    "velocity": 0.2992125984251969,
                    "duration": 0.3424660000000017
                },
                {
                    "name": "C4",
                    "midi": 60,
                    "time": 118.49323600000052,
                    "velocity": 0.2992125984251969,
                    "duration": 0.3424660000000017
                },
                {
                    "name": "G3",
                    "midi": 55,
                    "time": 118.49323600000052,
                    "velocity": 0.2992125984251969,
                    "duration": 0.6849320000000034
                },
                {
                    "name": "E4",
                    "midi": 64,
                    "time": 118.49323600000052,
                    "velocity": 0.2992125984251969,
                    "duration": 0.3424660000000017
                },
                {
                    "name": "F4",
                    "midi": 65,
                    "time": 118.83570200000052,
                    "velocity": 0.31496062992125984,
                    "duration": 0.3424660000000017
                },
                {
                    "name": "D4",
                    "midi": 62,
                    "time": 118.83570200000052,
                    "velocity": 0.31496062992125984,
                    "duration": 0.3424660000000017
                },
                {
                    "name": "C4",
                    "midi": 60,
                    "time": 119.17816800000053,
                    "velocity": 0.2992125984251969,
                    "duration": 0.08561650000000043
                },
                {
                    "name": "E4",
                    "midi": 64,
                    "time": 119.17816800000053,
                    "velocity": 0.2992125984251969,
                    "duration": 0.08561650000000043
                },
                {
                    "name": "G3",
                    "midi": 55,
                    "time": 119.52063400000053,
                    "velocity": 0.2992125984251969,
                    "duration": 0.08561650000000043
                },
                {
                    "name": "C2",
                    "midi": 36,
                    "time": 119.86310000000053,
                    "velocity": 0.2992125984251969,
                    "duration": 0.6849320000000034
                },
                {
                    "name": "C3",
                    "midi": 48,
                    "time": 119.86310000000053,
                    "velocity": 0.2992125984251969,
                    "duration": 0.6849320000000034
                },
                {
                    "name": "C4",
                    "midi": 60,
                    "time": 120.54803200000053,
                    "velocity": 0.29133858267716534,
                    "duration": 0.17123300000000086
                },
                {
                    "name": "G4",
                    "midi": 67,
                    "time": 120.71926500000053,
                    "velocity": 0.23622047244094488,
                    "duration": 0.17123300000000086
                },
                {
                    "name": "F#4",
                    "midi": 66,
                    "time": 120.89049800000053,
                    "velocity": 0.25984251968503935,
                    "duration": 0.17123300000000086
                },
                {
                    "name": "G4",
                    "midi": 67,
                    "time": 121.06173100000053,
                    "velocity": 0.23622047244094488,
                    "duration": 0.17123300000000086
                },
                {
                    "name": "C4",
                    "midi": 60,
                    "time": 121.23296400000054,
                    "velocity": 0.29133858267716534,
                    "duration": 0.17123300000000086
                },
                {
                    "name": "G4",
                    "midi": 67,
                    "time": 121.40419700000054,
                    "velocity": 0.23622047244094488,
                    "duration": 0.17123300000000086
                },
                {
                    "name": "D4",
                    "midi": 62,
                    "time": 121.57543000000054,
                    "velocity": 0.25984251968503935,
                    "duration": 0.17123300000000086
                },
                {
                    "name": "G4",
                    "midi": 67,
                    "time": 121.74666300000054,
                    "velocity": 0.23622047244094488,
                    "duration": 0.17123300000000086
                },
                {
                    "name": "E4",
                    "midi": 64,
                    "time": 121.91789600000054,
                    "velocity": 0.29133858267716534,
                    "duration": 0.17123300000000086
                },
                {
                    "name": "G4",
                    "midi": 67,
                    "time": 122.08912900000054,
                    "velocity": 0.23622047244094488,
                    "duration": 0.17123300000000086
                },
                {
                    "name": "F4",
                    "midi": 65,
                    "time": 122.26036200000054,
                    "velocity": 0.25984251968503935,
                    "duration": 0.17123300000000086
                },
                {
                    "name": "G4",
                    "midi": 67,
                    "time": 122.43159500000054,
                    "velocity": 0.23622047244094488,
                    "duration": 0.17123300000000086
                },
                {
                    "name": "E4",
                    "midi": 64,
                    "time": 122.60282800000054,
                    "velocity": 0.29133858267716534,
                    "duration": 0.17123300000000086
                },
                {
                    "name": "G4",
                    "midi": 67,
                    "time": 122.77406100000054,
                    "velocity": 0.23622047244094488,
                    "duration": 0.17123300000000086
                },
                {
                    "name": "A#3",
                    "midi": 58,
                    "time": 122.94529400000054,
                    "velocity": 0.25984251968503935,
                    "duration": 0.17123300000000086
                },
                {
                    "name": "G4",
                    "midi": 67,
                    "time": 123.11652700000054,
                    "velocity": 0.2440944881889764,
                    "duration": 0.17123300000000086
                },
                {
                    "name": "B3",
                    "midi": 59,
                    "time": 123.28776000000055,
                    "velocity": 0.2992125984251969,
                    "duration": 0.17123300000000086
                },
                {
                    "name": "G4",
                    "midi": 67,
                    "time": 123.45899300000055,
                    "velocity": 0.2440944881889764,
                    "duration": 0.17123300000000086
                },
                {
                    "name": "B3",
                    "midi": 59,
                    "time": 123.63022600000055,
                    "velocity": 0.2755905511811024,
                    "duration": 0.17123300000000086
                },
                {
                    "name": "G4",
                    "midi": 67,
                    "time": 123.80145900000055,
                    "velocity": 0.25196850393700787,
                    "duration": 0.17123300000000086
                },
                {
                    "name": "C4",
                    "midi": 60,
                    "time": 123.97269200000055,
                    "velocity": 0.3228346456692913,
                    "duration": 0.17123300000000086
                },
                {
                    "name": "G4",
                    "midi": 67,
                    "time": 124.14392500000055,
                    "velocity": 0.25984251968503935,
                    "duration": 0.17123300000000086
                },
                {
                    "name": "D4",
                    "midi": 62,
                    "time": 124.31515800000055,
                    "velocity": 0.29133858267716534,
                    "duration": 0.17123300000000086
                },
                {
                    "name": "G4",
                    "midi": 67,
                    "time": 124.48639100000055,
                    "velocity": 0.25984251968503935,
                    "duration": 0.17123300000000086
                },
                {
                    "name": "C4",
                    "midi": 60,
                    "time": 124.65762400000055,
                    "velocity": 0.31496062992125984,
                    "duration": 0.17123300000000086
                },
                {
                    "name": "G4",
                    "midi": 67,
                    "time": 124.82885700000055,
                    "velocity": 0.23622047244094488,
                    "duration": 0.17123300000000086
                },
                {
                    "name": "F#4",
                    "midi": 66,
                    "time": 125.00009000000055,
                    "velocity": 0.25984251968503935,
                    "duration": 0.17123300000000086
                },
                {
                    "name": "G4",
                    "midi": 67,
                    "time": 125.17132300000056,
                    "velocity": 0.23622047244094488,
                    "duration": 0.17123300000000086
                },
                {
                    "name": "B3",
                    "midi": 59,
                    "time": 125.34255600000056,
                    "velocity": 0.29133858267716534,
                    "duration": 0.17123300000000086
                },
                {
                    "name": "G4",
                    "midi": 67,
                    "time": 125.51378900000056,
                    "velocity": 0.2440944881889764,
                    "duration": 0.17123300000000086
                },
                {
                    "name": "F#4",
                    "midi": 66,
                    "time": 125.68502200000056,
                    "velocity": 0.25984251968503935,
                    "duration": 0.17123300000000086
                },
                {
                    "name": "G4",
                    "midi": 67,
                    "time": 125.85625500000056,
                    "velocity": 0.25196850393700787,
                    "duration": 0.17123300000000086
                },
                {
                    "name": "B3",
                    "midi": 59,
                    "time": 126.02748800000056,
                    "velocity": 0.29133858267716534,
                    "duration": 0.17123300000000086
                },
                {
                    "name": "G4",
                    "midi": 67,
                    "time": 126.19872100000056,
                    "velocity": 0.2440944881889764,
                    "duration": 0.17123300000000086
                },
                {
                    "name": "F#4",
                    "midi": 66,
                    "time": 126.36995400000056,
                    "velocity": 0.25984251968503935,
                    "duration": 0.17123300000000086
                },
                {
                    "name": "G4",
                    "midi": 67,
                    "time": 126.54118700000056,
                    "velocity": 0.2440944881889764,
                    "duration": 0.17123300000000086
                },
                {
                    "name": "B3",
                    "midi": 59,
                    "time": 126.71242000000056,
                    "velocity": 0.29133858267716534,
                    "duration": 0.17123300000000086
                },
                {
                    "name": "G4",
                    "midi": 67,
                    "time": 126.88365300000056,
                    "velocity": 0.2440944881889764,
                    "duration": 0.17123300000000086
                },
                {
                    "name": "C4",
                    "midi": 60,
                    "time": 127.05488600000056,
                    "velocity": 0.25984251968503935,
                    "duration": 0.17123300000000086
                },
                {
                    "name": "G4",
                    "midi": 67,
                    "time": 127.22611900000057,
                    "velocity": 0.2440944881889764,
                    "duration": 0.17123300000000086
                },
                {
                    "name": "D4",
                    "midi": 62,
                    "time": 127.39735200000057,
                    "velocity": 0.29133858267716534,
                    "duration": 0.17123300000000086
                },
                {
                    "name": "G4",
                    "midi": 67,
                    "time": 127.56858500000057,
                    "velocity": 0.2440944881889764,
                    "duration": 0.17123300000000086
                },
                {
                    "name": "E4",
                    "midi": 64,
                    "time": 127.73981800000057,
                    "velocity": 0.25984251968503935,
                    "duration": 0.17123300000000086
                },
                {
                    "name": "G4",
                    "midi": 67,
                    "time": 127.91105100000057,
                    "velocity": 0.2440944881889764,
                    "duration": 0.17123299999998665
                },
                {
                    "name": "F4",
                    "midi": 65,
                    "time": 128.08228400000056,
                    "velocity": 0.29133858267716534,
                    "duration": 0.17123300000000086
                },
                {
                    "name": "G4",
                    "midi": 67,
                    "time": 128.25351700000056,
                    "velocity": 0.25196850393700787,
                    "duration": 0.17123300000000086
                },
                {
                    "name": "D4",
                    "midi": 62,
                    "time": 128.42475000000056,
                    "velocity": 0.2677165354330709,
                    "duration": 0.17123300000000086
                },
                {
                    "name": "G4",
                    "midi": 67,
                    "time": 128.59598300000056,
                    "velocity": 0.2440944881889764,
                    "duration": 0.17123300000000086
                },
                {
                    "name": "B3",
                    "midi": 59,
                    "time": 128.76721600000056,
                    "velocity": 0.31496062992125984,
                    "duration": 0.17123300000000086
                },
                {
                    "name": "G4",
                    "midi": 67,
                    "time": 128.93844900000056,
                    "velocity": 0.2440944881889764,
                    "duration": 0.17123300000000086
                },
                {
                    "name": "D4",
                    "midi": 62,
                    "time": 129.10968200000056,
                    "velocity": 0.2677165354330709,
                    "duration": 0.17123300000000086
                },
                {
                    "name": "G4",
                    "midi": 67,
                    "time": 129.28091500000056,
                    "velocity": 0.2440944881889764,
                    "duration": 0.17123300000000086
                },
                {
                    "name": "B3",
                    "midi": 59,
                    "time": 129.45214800000056,
                    "velocity": 0.36220472440944884,
                    "duration": 0.17123300000000086
                },
                {
                    "name": "G4",
                    "midi": 67,
                    "time": 129.62338100000056,
                    "velocity": 0.2755905511811024,
                    "duration": 0.17123300000000086
                },
                {
                    "name": "G3",
                    "midi": 55,
                    "time": 129.79461400000056,
                    "velocity": 0.29133858267716534,
                    "duration": 0.17123300000000086
                },
                {
                    "name": "G4",
                    "midi": 67,
                    "time": 129.96584700000057,
                    "velocity": 0.2755905511811024,
                    "duration": 0.17123300000000086
                },
                {
                    "name": "C4",
                    "midi": 60,
                    "time": 130.13708000000057,
                    "velocity": 0.3464566929133858,
                    "duration": 0.17123300000000086
                },
                {
                    "name": "G4",
                    "midi": 67,
                    "time": 130.30831300000057,
                    "velocity": 0.29133858267716534,
                    "duration": 0.17123300000000086
                },
                {
                    "name": "F4",
                    "midi": 65,
                    "time": 130.47954600000057,
                    "velocity": 0.31496062992125984,
                    "duration": 0.17123300000000086
                },
                {
                    "name": "G4",
                    "midi": 67,
                    "time": 130.65077900000057,
                    "velocity": 0.29133858267716534,
                    "duration": 0.17123300000000086
                },
                {
                    "name": "C4",
                    "midi": 60,
                    "time": 130.82201200000057,
                    "velocity": 0.3464566929133858,
                    "duration": 0.17123300000000086
                },
                {
                    "name": "G4",
                    "midi": 67,
                    "time": 130.99324500000057,
                    "velocity": 0.29133858267716534,
                    "duration": 0.17123300000000086
                },
                {
                    "name": "E4",
                    "midi": 64,
                    "time": 131.16447800000057,
                    "velocity": 0.31496062992125984,
                    "duration": 0.17123300000000086
                },
                {
                    "name": "G4",
                    "midi": 67,
                    "time": 131.33571100000057,
                    "velocity": 0.29133858267716534,
                    "duration": 0.17123300000000086
                },
                {
                    "name": "C4",
                    "midi": 60,
                    "time": 131.50694400000057,
                    "velocity": 0.3779527559055118,
                    "duration": 0.11415533333334338
                },
                {
                    "name": "E4",
                    "midi": 64,
                    "time": 131.62109933333392,
                    "velocity": 0.33858267716535434,
                    "duration": 0.11415533333334338
                },
                {
                    "name": "G4",
                    "midi": 67,
                    "time": 131.73525466666726,
                    "velocity": 0.33858267716535434,
                    "duration": 0.11415533333334338
                },
                {
                    "name": "C5",
                    "midi": 72,
                    "time": 131.8494100000006,
                    "velocity": 0.36220472440944884,
                    "duration": 0.3424660000000017
                },
                {
                    "name": "B3",
                    "midi": 59,
                    "time": 132.8768080000006,
                    "velocity": 0.3779527559055118,
                    "duration": 0.11415533333334338
                },
                {
                    "name": "D4",
                    "midi": 62,
                    "time": 132.99096333333395,
                    "velocity": 0.33858267716535434,
                    "duration": 0.11415533333334338
                },
                {
                    "name": "G4",
                    "midi": 67,
                    "time": 133.1051186666673,
                    "velocity": 0.33858267716535434,
                    "duration": 0.11415533333334338
                },
                {
                    "name": "B4",
                    "midi": 71,
                    "time": 133.21927400000064,
                    "velocity": 0.3779527559055118,
                    "duration": 0.3424660000000017
                },
                {
                    "name": "A3",
                    "midi": 57,
                    "time": 134.24667200000064,
                    "velocity": 0.3937007874015748,
                    "duration": 0.3424660000000017
                },
                {
                    "name": "D4",
                    "midi": 62,
                    "time": 134.24667200000064,
                    "velocity": 0.3937007874015748,
                    "duration": 0.3424660000000017
                },
                {
                    "name": "F#3",
                    "midi": 54,
                    "time": 134.24667200000064,
                    "velocity": 0.3937007874015748,
                    "duration": 0.3424660000000017
                },
                {
                    "name": "B3",
                    "midi": 59,
                    "time": 134.93160400000065,
                    "velocity": 0.4094488188976378,
                    "duration": 0.3424660000000017
                },
                {
                    "name": "G3",
                    "midi": 55,
                    "time": 134.93160400000065,
                    "velocity": 0.4094488188976378,
                    "duration": 0.3424660000000017
                },
                {
                    "name": "D4",
                    "midi": 62,
                    "time": 134.93160400000065,
                    "velocity": 0.4094488188976378,
                    "duration": 0.3424660000000017
                },
                {
                    "name": "D3",
                    "midi": 50,
                    "time": 135.61653600000065,
                    "velocity": 0.44881889763779526,
                    "duration": 0.17123300000000086
                },
                {
                    "name": "D4",
                    "midi": 62,
                    "time": 135.78776900000065,
                    "velocity": 0.30708661417322836,
                    "duration": 0.17123300000000086
                },
                {
                    "name": "C#4",
                    "midi": 61,
                    "time": 135.95900200000065,
                    "velocity": 0.31496062992125984,
                    "duration": 0.17123300000000086
                },
                {
                    "name": "D4",
                    "midi": 62,
                    "time": 136.13023500000065,
                    "velocity": 0.3228346456692913,
                    "duration": 0.17123300000000086
                },
                {
                    "name": "C#4",
                    "midi": 61,
                    "time": 136.30146800000065,
                    "velocity": 0.3464566929133858,
                    "duration": 0.17123300000000086
                },
                {
                    "name": "D4",
                    "midi": 62,
                    "time": 136.47270100000065,
                    "velocity": 0.3543307086614173,
                    "duration": 0.17123300000000086
                },
                {
                    "name": "C4",
                    "midi": 60,
                    "time": 136.64393400000066,
                    "velocity": 0.3700787401574803,
                    "duration": 0.17123300000000086
                },
                {
                    "name": "D4",
                    "midi": 62,
                    "time": 136.81516700000066,
                    "velocity": 0.3858267716535433,
                    "duration": 0.17123300000000086
                },
                {
                    "name": "B3",
                    "midi": 59,
                    "time": 136.98640000000066,
                    "velocity": 0.3858267716535433,
                    "duration": 0.17123300000000086
                },
                {
                    "name": "D4",
                    "midi": 62,
                    "time": 137.15763300000066,
                    "velocity": 0.3464566929133858,
                    "duration": 0.17123300000000086
                },
                {
                    "name": "G3",
                    "midi": 55,
                    "time": 137.32886600000066,
                    "velocity": 0.2755905511811024,
                    "duration": 0.17123300000000086
                },
                {
                    "name": "D4",
                    "midi": 62,
                    "time": 137.50009900000066,
                    "velocity": 0.23622047244094488,
                    "duration": 0.17123300000000086
                },
                {
                    "name": "B3",
                    "midi": 59,
                    "time": 137.67133200000066,
                    "velocity": 0.29133858267716534,
                    "duration": 0.17123300000000086
                },
                {
                    "name": "D4",
                    "midi": 62,
                    "time": 137.84256500000066,
                    "velocity": 0.25196850393700787,
                    "duration": 0.17123300000000086
                },
                {
                    "name": "G3",
                    "midi": 55,
                    "time": 138.01379800000066,
                    "velocity": 0.2755905511811024,
                    "duration": 0.17123300000000086
                },
                {
                    "name": "D4",
                    "midi": 62,
                    "time": 138.18503100000066,
                    "velocity": 0.2677165354330709,
                    "duration": 0.17123300000000086
                },
                {
                    "name": "A3",
                    "midi": 57,
                    "time": 138.35626400000066,
                    "velocity": 0.29133858267716534,
                    "duration": 0.17123300000000086
                },
                {
                    "name": "D4",
                    "midi": 62,
                    "time": 138.52749700000066,
                    "velocity": 0.2677165354330709,
                    "duration": 0.17123300000000086
                },
                {
                    "name": "G3",
                    "midi": 55,
                    "time": 138.69873000000067,
                    "velocity": 0.29133858267716534,
                    "duration": 0.17123300000000086
                },
                {
                    "name": "D4",
                    "midi": 62,
                    "time": 138.86996300000067,
                    "velocity": 0.2677165354330709,
                    "duration": 0.17123300000000086
                },
                {
                    "name": "F#3",
                    "midi": 54,
                    "time": 139.04119600000067,
                    "velocity": 0.29133858267716534,
                    "duration": 0.17123300000000086
                },
                {
                    "name": "D4",
                    "midi": 62,
                    "time": 139.21242900000067,
                    "velocity": 0.2677165354330709,
                    "duration": 0.17123300000000086
                },
                {
                    "name": "D3",
                    "midi": 50,
                    "time": 139.38366200000067,
                    "velocity": 0.29133858267716534,
                    "duration": 0.17123300000000086
                },
                {
                    "name": "D4",
                    "midi": 62,
                    "time": 139.55489500000067,
                    "velocity": 0.2677165354330709,
                    "duration": 0.17123300000000086
                },
                {
                    "name": "G3",
                    "midi": 55,
                    "time": 139.72612800000067,
                    "velocity": 0.2992125984251969,
                    "duration": 0.17123300000000086
                },
                {
                    "name": "D4",
                    "midi": 62,
                    "time": 139.89736100000067,
                    "velocity": 0.2677165354330709,
                    "duration": 0.17123300000000086
                },
                {
                    "name": "C#4",
                    "midi": 61,
                    "time": 140.06859400000067,
                    "velocity": 0.2677165354330709,
                    "duration": 0.17123300000000086
                },
                {
                    "name": "D4",
                    "midi": 62,
                    "time": 140.23982700000067,
                    "velocity": 0.2677165354330709,
                    "duration": 0.17123300000000086
                },
                {
                    "name": "C#4",
                    "midi": 61,
                    "time": 140.41106000000067,
                    "velocity": 0.30708661417322836,
                    "duration": 0.17123300000000086
                },
                {
                    "name": "D4",
                    "midi": 62,
                    "time": 140.58229300000067,
                    "velocity": 0.3228346456692913,
                    "duration": 0.17123300000000086
                },
                {
                    "name": "E4",
                    "midi": 64,
                    "time": 140.75352600000068,
                    "velocity": 0.3464566929133858,
                    "duration": 0.17123300000000086
                },
                {
                    "name": "D4",
                    "midi": 62,
                    "time": 140.92475900000068,
                    "velocity": 0.3228346456692913,
                    "duration": 0.17123300000000086
                },
                {
                    "name": "C4",
                    "midi": 60,
                    "time": 141.09599200000068,
                    "velocity": 0.3858267716535433,
                    "duration": 0.17123300000000086
                },
                {
                    "name": "D4",
                    "midi": 62,
                    "time": 141.26722500000068,
                    "velocity": 0.3700787401574803,
                    "duration": 0.17123300000000086
                },
                {
                    "name": "B3",
                    "midi": 59,
                    "time": 141.43845800000068,
                    "velocity": 0.3858267716535433,
                    "duration": 0.17123300000000086
                },
                {
                    "name": "D4",
                    "midi": 62,
                    "time": 141.60969100000068,
                    "velocity": 0.3700787401574803,
                    "duration": 0.17123300000000086
                },
                {
                    "name": "C4",
                    "midi": 60,
                    "time": 141.78092400000068,
                    "velocity": 0.3858267716535433,
                    "duration": 0.17123300000000086
                },
                {
                    "name": "D4",
                    "midi": 62,
                    "time": 141.95215700000068,
                    "velocity": 0.3700787401574803,
                    "duration": 0.17123300000000086
                },
                {
                    "name": "A3",
                    "midi": 57,
                    "time": 142.12339000000068,
                    "velocity": 0.3858267716535433,
                    "duration": 0.17123300000000086
                },
                {
                    "name": "D4",
                    "midi": 62,
                    "time": 142.29462300000068,
                    "velocity": 0.3700787401574803,
                    "duration": 0.17123300000000086
                },
                {
                    "name": "B3",
                    "midi": 59,
                    "time": 142.46585600000068,
                    "velocity": 0.3858267716535433,
                    "duration": 0.17123300000000086
                },
                {
                    "name": "D4",
                    "midi": 62,
                    "time": 142.63708900000069,
                    "velocity": 0.33070866141732286,
                    "duration": 0.17123300000000086
                },
                {
                    "name": "G3",
                    "midi": 55,
                    "time": 142.8083220000007,
                    "velocity": 0.2755905511811024,
                    "duration": 0.17123300000000086
                },
                {
                    "name": "D4",
                    "midi": 62,
                    "time": 142.9795550000007,
                    "velocity": 0.23622047244094488,
                    "duration": 0.17123300000000086
                },
                {
                    "name": "B3",
                    "midi": 59,
                    "time": 143.1507880000007,
                    "velocity": 0.29133858267716534,
                    "duration": 0.17123300000000086
                },
                {
                    "name": "D4",
                    "midi": 62,
                    "time": 143.3220210000007,
                    "velocity": 0.23622047244094488,
                    "duration": 0.17123300000000086
                },
                {
                    "name": "G3",
                    "midi": 55,
                    "time": 143.4932540000007,
                    "velocity": 0.2755905511811024,
                    "duration": 0.17123300000000086
                },
                {
                    "name": "D4",
                    "midi": 62,
                    "time": 143.6644870000007,
                    "velocity": 0.23622047244094488,
                    "duration": 0.17123300000000086
                },
                {
                    "name": "A3",
                    "midi": 57,
                    "time": 143.8357200000007,
                    "velocity": 0.29133858267716534,
                    "duration": 0.17123300000000086
                },
                {
                    "name": "D4",
                    "midi": 62,
                    "time": 144.0069530000007,
                    "velocity": 0.2677165354330709,
                    "duration": 0.17123300000000086
                },
                {
                    "name": "G3",
                    "midi": 55,
                    "time": 144.1781860000007,
                    "velocity": 0.29133858267716534,
                    "duration": 0.17123300000000086
                },
                {
                    "name": "D4",
                    "midi": 62,
                    "time": 144.3494190000007,
                    "velocity": 0.2677165354330709,
                    "duration": 0.17123300000000086
                },
                {
                    "name": "F#3",
                    "midi": 54,
                    "time": 144.5206520000007,
                    "velocity": 0.29133858267716534,
                    "duration": 0.17123300000000086
                },
                {
                    "name": "D4",
                    "midi": 62,
                    "time": 144.6918850000007,
                    "velocity": 0.2677165354330709,
                    "duration": 0.17123300000000086
                },
                {
                    "name": "D3",
                    "midi": 50,
                    "time": 144.8631180000007,
                    "velocity": 0.29133858267716534,
                    "duration": 0.17123300000000086
                },
                {
                    "name": "D4",
                    "midi": 62,
                    "time": 145.0343510000007,
                    "velocity": 0.2677165354330709,
                    "duration": 0.17123300000000086
                },
                {
                    "name": "G3",
                    "midi": 55,
                    "time": 145.2055840000007,
                    "velocity": 0.29133858267716534,
                    "duration": 0.17123300000000086
                },
                {
                    "name": "D4",
                    "midi": 62,
                    "time": 145.3768170000007,
                    "velocity": 0.2677165354330709,
                    "duration": 0.17123300000000086
                },
                {
                    "name": "B3",
                    "midi": 59,
                    "time": 145.5480500000007,
                    "velocity": 0.29133858267716534,
                    "duration": 0.17123300000000086
                },
                {
                    "name": "D4",
                    "midi": 62,
                    "time": 145.7192830000007,
                    "velocity": 0.2677165354330709,
                    "duration": 0.17123300000000086
                },
                {
                    "name": "G3",
                    "midi": 55,
                    "time": 145.8905160000007,
                    "velocity": 0.29133858267716534,
                    "duration": 0.17123300000000086
                },
                {
                    "name": "E4",
                    "midi": 64,
                    "time": 146.0617490000007,
                    "velocity": 0.2283464566929134,
                    "duration": 0.17123300000000086
                },
                {
                    "name": "C4",
                    "midi": 60,
                    "time": 146.2329820000007,
                    "velocity": 0.25196850393700787,
                    "duration": 0.17123300000000086
                },
                {
                    "name": "E4",
                    "midi": 64,
                    "time": 146.4042150000007,
                    "velocity": 0.2283464566929134,
                    "duration": 0.17123300000000086
                },
                {
                    "name": "G3",
                    "midi": 55,
                    "time": 146.5754480000007,
                    "velocity": 0.25196850393700787,
                    "duration": 0.17123300000000086
                },
                {
                    "name": "D4",
                    "midi": 62,
                    "time": 146.7466810000007,
                    "velocity": 0.23622047244094488,
                    "duration": 0.17123300000000086
                },
                {
                    "name": "B3",
                    "midi": 59,
                    "time": 146.9179140000007,
                    "velocity": 0.25196850393700787,
                    "duration": 0.17123300000000086
                },
                {
                    "name": "D4",
                    "midi": 62,
                    "time": 147.0891470000007,
                    "velocity": 0.2440944881889764,
                    "duration": 0.17123300000000086
                },
                {
                    "name": "F3",
                    "midi": 53,
                    "time": 147.2603800000007,
                    "velocity": 0.25196850393700787,
                    "duration": 0.17123300000000086
                },
                {
                    "name": "C4",
                    "midi": 60,
                    "time": 147.4316130000007,
                    "velocity": 0.23622047244094488,
                    "duration": 0.17123300000000086
                },
                {
                    "name": "A3",
                    "midi": 57,
                    "time": 147.6028460000007,
                    "velocity": 0.25196850393700787,
                    "duration": 0.17123300000000086
                },
                {
                    "name": "C4",
                    "midi": 60,
                    "time": 147.7740790000007,
                    "velocity": 0.23622047244094488,
                    "duration": 0.17123300000000086
                },
                {
                    "name": "E3",
                    "midi": 52,
                    "time": 147.9453120000007,
                    "velocity": 0.25196850393700787,
                    "duration": 0.17123300000000086
                },
                {
                    "name": "C4",
                    "midi": 60,
                    "time": 148.1165450000007,
                    "velocity": 0.23622047244094488,
                    "duration": 0.17123300000000086
                },
                {
                    "name": "G3",
                    "midi": 55,
                    "time": 148.2877780000007,
                    "velocity": 0.25196850393700787,
                    "duration": 0.17123300000000086
                },
                {
                    "name": "C4",
                    "midi": 60,
                    "time": 148.45901100000071,
                    "velocity": 0.23622047244094488,
                    "duration": 0.17123300000000086
                },
                {
                    "name": "C3",
                    "midi": 48,
                    "time": 148.63024400000072,
                    "velocity": 0.31496062992125984,
                    "duration": 0.17123300000000086
                },
                {
                    "name": "G3",
                    "midi": 55,
                    "time": 148.80147700000072,
                    "velocity": 0.2677165354330709,
                    "duration": 0.17123300000000086
                },
                {
                    "name": "E3",
                    "midi": 52,
                    "time": 148.97271000000072,
                    "velocity": 0.31496062992125984,
                    "duration": 0.17123300000000086
                },
                {
                    "name": "G3",
                    "midi": 55,
                    "time": 149.14394300000072,
                    "velocity": 0.25984251968503935,
                    "duration": 0.17123300000000086
                },
                {
                    "name": "D3",
                    "midi": 50,
                    "time": 149.31517600000072,
                    "velocity": 0.30708661417322836,
                    "duration": 0.17123300000000086
                },
                {
                    "name": "B3",
                    "midi": 59,
                    "time": 149.48640900000072,
                    "velocity": 0.2677165354330709,
                    "duration": 0.17123300000000086
                },
                {
                    "name": "G3",
                    "midi": 55,
                    "time": 149.65764200000072,
                    "velocity": 0.30708661417322836,
                    "duration": 0.17123300000000086
                },
                {
                    "name": "B3",
                    "midi": 59,
                    "time": 149.82887500000072,
                    "velocity": 0.2677165354330709,
                    "duration": 0.17123300000000086
                },
                {
                    "name": "D3",
                    "midi": 50,
                    "time": 150.00010800000072,
                    "velocity": 0.30708661417322836,
                    "duration": 0.17123300000000086
                },
                {
                    "name": "C4",
                    "midi": 60,
                    "time": 150.17134100000072,
                    "velocity": 0.2677165354330709,
                    "duration": 0.17123300000000086
                },
                {
                    "name": "F#3",
                    "midi": 54,
                    "time": 150.34257400000072,
                    "velocity": 0.2992125984251969,
                    "duration": 0.17123300000000086
                },
                {
                    "name": "C4",
                    "midi": 60,
                    "time": 150.51380700000072,
                    "velocity": 0.25984251968503935,
                    "duration": 0.17123300000000086
                },
                {
                    "name": "G3",
                    "midi": 55,
                    "time": 150.68504000000073,
                    "velocity": 0.31496062992125984,
                    "duration": 0.17123300000000086
                },
                {
                    "name": "D4",
                    "midi": 62,
                    "time": 150.85627300000073,
                    "velocity": 0.2755905511811024,
                    "duration": 0.17123300000000086
                },
                {
                    "name": "B3",
                    "midi": 59,
                    "time": 151.02750600000073,
                    "velocity": 0.31496062992125984,
                    "duration": 0.17123300000000086
                },
                {
                    "name": "D4",
                    "midi": 62,
                    "time": 151.19873900000073,
                    "velocity": 0.2677165354330709,
                    "duration": 0.17123300000000086
                },
                {
                    "name": "G3",
                    "midi": 55,
                    "time": 151.36997200000073,
                    "velocity": 0.25196850393700787,
                    "duration": 0.17123300000000086
                },
                {
                    "name": "E4",
                    "midi": 64,
                    "time": 151.54120500000073,
                    "velocity": 0.23622047244094488,
                    "duration": 0.17123300000000086
                },
                {
                    "name": "C4",
                    "midi": 60,
                    "time": 151.71243800000073,
                    "velocity": 0.25196850393700787,
                    "duration": 0.17123300000000086
                },
                {
                    "name": "E4",
                    "midi": 64,
                    "time": 151.88367100000073,
                    "velocity": 0.23622047244094488,
                    "duration": 0.17123300000000086
                },
                {
                    "name": "G3",
                    "midi": 55,
                    "time": 152.05490400000073,
                    "velocity": 0.25196850393700787,
                    "duration": 0.17123300000000086
                },
                {
                    "name": "D4",
                    "midi": 62,
                    "time": 152.22613700000073,
                    "velocity": 0.23622047244094488,
                    "duration": 0.17123300000000086
                },
                {
                    "name": "B3",
                    "midi": 59,
                    "time": 152.39737000000073,
                    "velocity": 0.25196850393700787,
                    "duration": 0.17123300000000086
                },
                {
                    "name": "D4",
                    "midi": 62,
                    "time": 152.56860300000073,
                    "velocity": 0.23622047244094488,
                    "duration": 0.17123300000000086
                },
                {
                    "name": "F3",
                    "midi": 53,
                    "time": 152.73983600000074,
                    "velocity": 0.25196850393700787,
                    "duration": 0.17123300000000086
                },
                {
                    "name": "C4",
                    "midi": 60,
                    "time": 152.91106900000074,
                    "velocity": 0.2283464566929134,
                    "duration": 0.17123300000000086
                },
                {
                    "name": "A3",
                    "midi": 57,
                    "time": 153.08230200000074,
                    "velocity": 0.25196850393700787,
                    "duration": 0.17123300000000086
                },
                {
                    "name": "C4",
                    "midi": 60,
                    "time": 153.25353500000074,
                    "velocity": 0.2283464566929134,
                    "duration": 0.17123300000000086
                },
                {
                    "name": "E3",
                    "midi": 52,
                    "time": 153.42476800000074,
                    "velocity": 0.2677165354330709,
                    "duration": 0.17123300000000086
                },
                {
                    "name": "C4",
                    "midi": 60,
                    "time": 153.59600100000074,
                    "velocity": 0.23622047244094488,
                    "duration": 0.17123300000000086
                },
                {
                    "name": "G3",
                    "midi": 55,
                    "time": 153.76723400000074,
                    "velocity": 0.25984251968503935,
                    "duration": 0.17123300000000086
                },
                {
                    "name": "C4",
                    "midi": 60,
                    "time": 153.93846700000074,
                    "velocity": 0.2283464566929134,
                    "duration": 0.17123300000000086
                },
                {
                    "name": "C3",
                    "midi": 48,
                    "time": 154.10970000000074,
                    "velocity": 0.3228346456692913,
                    "duration": 0.17123300000000086
                },
                {
                    "name": "G3",
                    "midi": 55,
                    "time": 154.28093300000074,
                    "velocity": 0.2992125984251969,
                    "duration": 0.17123300000000086
                },
                {
                    "name": "E3",
                    "midi": 52,
                    "time": 154.45216600000074,
                    "velocity": 0.31496062992125984,
                    "duration": 0.17123300000000086
                },
                {
                    "name": "G3",
                    "midi": 55,
                    "time": 154.62339900000075,
                    "velocity": 0.29133858267716534,
                    "duration": 0.17123300000000086
                },
                {
                    "name": "D3",
                    "midi": 50,
                    "time": 154.79463200000075,
                    "velocity": 0.31496062992125984,
                    "duration": 0.17123300000000086
                },
                {
                    "name": "B3",
                    "midi": 59,
                    "time": 154.96586500000075,
                    "velocity": 0.29133858267716534,
                    "duration": 0.17123300000000086
                },
                {
                    "name": "G3",
                    "midi": 55,
                    "time": 155.13709800000075,
                    "velocity": 0.30708661417322836,
                    "duration": 0.17123300000000086
                },
                {
                    "name": "B3",
                    "midi": 59,
                    "time": 155.30833100000075,
                    "velocity": 0.25196850393700787,
                    "duration": 0.17123300000000086
                },
                {
                    "name": "D3",
                    "midi": 50,
                    "time": 155.47956400000075,
                    "velocity": 0.2992125984251969,
                    "duration": 0.17123300000000086
                },
                {
                    "name": "C4",
                    "midi": 60,
                    "time": 155.65079700000075,
                    "velocity": 0.25984251968503935,
                    "duration": 0.17123300000000086
                },
                {
                    "name": "A3",
                    "midi": 57,
                    "time": 155.82203000000075,
                    "velocity": 0.2992125984251969,
                    "duration": 0.17123300000000086
                },
                {
                    "name": "C4",
                    "midi": 60,
                    "time": 155.99326300000075,
                    "velocity": 0.25196850393700787,
                    "duration": 0.17123300000000086
                },
                {
                    "name": "B3",
                    "midi": 59,
                    "time": 156.50696200000075,
                    "velocity": 0.2992125984251969,
                    "duration": 0.3424660000000017
                },
                {
                    "name": "G3",
                    "midi": 55,
                    "time": 156.50696200000075,
                    "velocity": 0.2992125984251969,
                    "duration": 0.3424660000000017
                },
                {
                    "name": "A3",
                    "midi": 57,
                    "time": 156.84942800000076,
                    "velocity": 0.3464566929133858,
                    "duration": 0.3424660000000017
                },
                {
                    "name": "C4",
                    "midi": 60,
                    "time": 156.84942800000076,
                    "velocity": 0.3464566929133858,
                    "duration": 0.3424660000000017
                },
                {
                    "name": "B3",
                    "midi": 59,
                    "time": 157.19189400000076,
                    "velocity": 0.3858267716535433,
                    "duration": 0.3424660000000017
                },
                {
                    "name": "D4",
                    "midi": 62,
                    "time": 157.19189400000076,
                    "velocity": 0.3858267716535433,
                    "duration": 0.3424660000000017
                },
                {
                    "name": "F#3",
                    "midi": 54,
                    "time": 157.87682600000076,
                    "velocity": 0.29133858267716534,
                    "duration": 0.3424660000000017
                },
                {
                    "name": "D3",
                    "midi": 50,
                    "time": 157.87682600000076,
                    "velocity": 0.29133858267716534,
                    "duration": 0.3424660000000017
                },
                {
                    "name": "G3",
                    "midi": 55,
                    "time": 158.21929200000076,
                    "velocity": 0.31496062992125984,
                    "duration": 0.3424660000000017
                },
                {
                    "name": "E3",
                    "midi": 52,
                    "time": 158.21929200000076,
                    "velocity": 0.31496062992125984,
                    "duration": 0.3424660000000017
                },
                {
                    "name": "A3",
                    "midi": 57,
                    "time": 158.56175800000076,
                    "velocity": 0.3464566929133858,
                    "duration": 0.3424660000000017
                },
                {
                    "name": "F#3",
                    "midi": 54,
                    "time": 158.56175800000076,
                    "velocity": 0.3464566929133858,
                    "duration": 0.3424660000000017
                },
                {
                    "name": "G3",
                    "midi": 55,
                    "time": 159.24669000000077,
                    "velocity": 0.2992125984251969,
                    "duration": 0.3424660000000017
                },
                {
                    "name": "B3",
                    "midi": 59,
                    "time": 159.24669000000077,
                    "velocity": 0.2992125984251969,
                    "duration": 0.3424660000000017
                },
                {
                    "name": "A3",
                    "midi": 57,
                    "time": 159.58915600000077,
                    "velocity": 0.3464566929133858,
                    "duration": 0.3424660000000017
                },
                {
                    "name": "C4",
                    "midi": 60,
                    "time": 159.58915600000077,
                    "velocity": 0.3464566929133858,
                    "duration": 0.3424660000000017
                },
                {
                    "name": "D4",
                    "midi": 62,
                    "time": 159.93162200000077,
                    "velocity": 0.3858267716535433,
                    "duration": 0.3424660000000017
                },
                {
                    "name": "B3",
                    "midi": 59,
                    "time": 159.93162200000077,
                    "velocity": 0.3858267716535433,
                    "duration": 0.3424660000000017
                },
                {
                    "name": "D3",
                    "midi": 50,
                    "time": 160.61655400000078,
                    "velocity": 0.29133858267716534,
                    "duration": 0.3424660000000017
                },
                {
                    "name": "F#3",
                    "midi": 54,
                    "time": 160.61655400000078,
                    "velocity": 0.29133858267716534,
                    "duration": 0.3424660000000017
                },
                {
                    "name": "G3",
                    "midi": 55,
                    "time": 160.95902000000078,
                    "velocity": 0.31496062992125984,
                    "duration": 0.3424660000000017
                },
                {
                    "name": "E3",
                    "midi": 52,
                    "time": 160.95902000000078,
                    "velocity": 0.31496062992125984,
                    "duration": 0.3424660000000017
                },
                {
                    "name": "A3",
                    "midi": 57,
                    "time": 161.30148600000078,
                    "velocity": 0.3464566929133858,
                    "duration": 0.3424660000000017
                },
                {
                    "name": "F#3",
                    "midi": 54,
                    "time": 161.30148600000078,
                    "velocity": 0.3464566929133858,
                    "duration": 0.3424660000000017
                },
                {
                    "name": "G3",
                    "midi": 55,
                    "time": 161.64395200000078,
                    "velocity": 0.3464566929133858,
                    "duration": 0.6849320000000034
                },
                {
                    "name": "G2",
                    "midi": 43,
                    "time": 163.0138160000008,
                    "velocity": 0.3464566929133858,
                    "duration": 1.3698640000000069
                },
                {
                    "name": "G3",
                    "midi": 55,
                    "time": 163.0138160000008,
                    "velocity": 0.3464566929133858,
                    "duration": 2.0547960000000103
                },
                {
                    "name": "D3",
                    "midi": 50,
                    "time": 163.0138160000008,
                    "velocity": 0.3464566929133858,
                    "duration": 1.3698640000000069
                },
                {
                    "name": "B2",
                    "midi": 47,
                    "time": 163.0138160000008,
                    "velocity": 0.3464566929133858,
                    "duration": 1.3698640000000069
                },
                {
                    "name": "C3",
                    "midi": 48,
                    "time": 164.3836800000008,
                    "velocity": 0.2992125984251969,
                    "duration": 0.6849320000000034
                },
                {
                    "name": "C#3",
                    "midi": 49,
                    "time": 166.0960100000008,
                    "velocity": 0.29133858267716534,
                    "duration": 0.3424660000000017
                },
                {
                    "name": "A#3",
                    "midi": 58,
                    "time": 166.0960100000008,
                    "velocity": 0.29133858267716534,
                    "duration": 0.3424660000000017
                },
                {
                    "name": "D3",
                    "midi": 50,
                    "time": 166.4384760000008,
                    "velocity": 0.31496062992125984,
                    "duration": 0.3424660000000017
                },
                {
                    "name": "B3",
                    "midi": 59,
                    "time": 166.4384760000008,
                    "velocity": 0.31496062992125984,
                    "duration": 0.3424660000000017
                },
                {
                    "name": "C4",
                    "midi": 60,
                    "time": 166.7809420000008,
                    "velocity": 0.3464566929133858,
                    "duration": 0.3424660000000017
                },
                {
                    "name": "G3",
                    "midi": 55,
                    "time": 167.1234080000008,
                    "velocity": 0.3464566929133858,
                    "duration": 0.6849320000000034
                },
                {
                    "name": "B3",
                    "midi": 59,
                    "time": 167.1234080000008,
                    "velocity": 0.3464566929133858,
                    "duration": 0.6849320000000034
                },
                {
                    "name": "G2",
                    "midi": 43,
                    "time": 168.49327200000081,
                    "velocity": 0.3464566929133858,
                    "duration": 1.3698640000000069
                },
                {
                    "name": "G3",
                    "midi": 55,
                    "time": 168.49327200000081,
                    "velocity": 0.3464566929133858,
                    "duration": 2.0547960000000103
                },
                {
                    "name": "D3",
                    "midi": 50,
                    "time": 168.49327200000081,
                    "velocity": 0.3464566929133858,
                    "duration": 1.3698640000000069
                },
                {
                    "name": "B2",
                    "midi": 47,
                    "time": 168.49327200000081,
                    "velocity": 0.3464566929133858,
                    "duration": 1.3698640000000069
                },
                {
                    "name": "C3",
                    "midi": 48,
                    "time": 169.86313600000082,
                    "velocity": 0.2992125984251969,
                    "duration": 0.6849320000000034
                },
                {
                    "name": "A#3",
                    "midi": 58,
                    "time": 171.23300000000083,
                    "velocity": 0.3228346456692913,
                    "duration": 0.6849320000000034
                },
                {
                    "name": "C#3",
                    "midi": 49,
                    "time": 171.23300000000083,
                    "velocity": 0.3228346456692913,
                    "duration": 0.6849320000000034
                },
                {
                    "name": "D3",
                    "midi": 50,
                    "time": 172.60286400000084,
                    "velocity": 0.3779527559055118,
                    "duration": 0.17123300000000086
                },
                {
                    "name": "B3",
                    "midi": 59,
                    "time": 172.77409700000084,
                    "velocity": 0.31496062992125984,
                    "duration": 0.17123300000000086
                },
                {
                    "name": "G3",
                    "midi": 55,
                    "time": 172.94533000000084,
                    "velocity": 0.3228346456692913,
                    "duration": 0.17123300000000086
                },
                {
                    "name": "B3",
                    "midi": 59,
                    "time": 173.11656300000084,
                    "velocity": 0.30708661417322836,
                    "duration": 0.17123300000000086
                },
                {
                    "name": "D3",
                    "midi": 50,
                    "time": 173.28779600000084,
                    "velocity": 0.3779527559055118,
                    "duration": 0.17123300000000086
                },
                {
                    "name": "B3",
                    "midi": 59,
                    "time": 173.45902900000084,
                    "velocity": 0.31496062992125984,
                    "duration": 0.17123300000000086
                },
                {
                    "name": "G3",
                    "midi": 55,
                    "time": 173.63026200000084,
                    "velocity": 0.3228346456692913,
                    "duration": 0.17123300000000086
                },
                {
                    "name": "B3",
                    "midi": 59,
                    "time": 173.80149500000084,
                    "velocity": 0.31496062992125984,
                    "duration": 0.17123300000000086
                },
                {
                    "name": "D3",
                    "midi": 50,
                    "time": 173.97272800000084,
                    "velocity": 0.33858267716535434,
                    "duration": 0.17123300000000086
                },
                {
                    "name": "D4",
                    "midi": 62,
                    "time": 174.14396100000084,
                    "velocity": 0.29133858267716534,
                    "duration": 0.17123300000000086
                },
                {
                    "name": "G3",
                    "midi": 55,
                    "time": 174.31519400000084,
                    "velocity": 0.2992125984251969,
                    "duration": 0.17123300000000086
                },
                {
                    "name": "D4",
                    "midi": 62,
                    "time": 174.48642700000084,
                    "velocity": 0.28346456692913385,
                    "duration": 0.17123300000000086
                },
                {
                    "name": "D3",
                    "midi": 50,
                    "time": 174.65766000000085,
                    "velocity": 0.30708661417322836,
                    "duration": 0.17123300000000086
                },
                {
                    "name": "C4",
                    "midi": 60,
                    "time": 174.82889300000085,
                    "velocity": 0.23622047244094488,
                    "duration": 0.17123300000000086
                },
                {
                    "name": "F#3",
                    "midi": 54,
                    "time": 175.00012600000085,
                    "velocity": 0.25196850393700787,
                    "duration": 0.17123300000000086
                },
                {
                    "name": "C4",
                    "midi": 60,
                    "time": 175.17135900000085,
                    "velocity": 0.23622047244094488,
                    "duration": 0.17123300000000086
                },
                {
                    "name": "G3",
                    "midi": 55,
                    "time": 175.34259200000085,
                    "velocity": 0.2755905511811024,
                    "duration": 0.17123300000000086
                },
                {
                    "name": "B3",
                    "midi": 59,
                    "time": 175.51382500000085,
                    "velocity": 0.23622047244094488,
                    "duration": 0.17123300000000086
                },
                {
                    "name": "G4",
                    "midi": 67,
                    "time": 175.68505800000085,
                    "velocity": 0.25196850393700787,
                    "duration": 0.17123300000000086
                },
                {
                    "name": "B3",
                    "midi": 59,
                    "time": 175.85629100000085,
                    "velocity": 0.23622047244094488,
                    "duration": 0.17123300000000086
                },
                {
                    "name": "G3",
                    "midi": 55,
                    "time": 176.02752400000085,
                    "velocity": 0.2755905511811024,
                    "duration": 0.17123300000000086
                },
                {
                    "name": "B3",
                    "midi": 59,
                    "time": 176.19875700000085,
                    "velocity": 0.23622047244094488,
                    "duration": 0.17123300000000086
                },
                {
                    "name": "G4",
                    "midi": 67,
                    "time": 176.36999000000085,
                    "velocity": 0.25196850393700787,
                    "duration": 0.17123300000000086
                },
                {
                    "name": "B3",
                    "midi": 59,
                    "time": 176.54122300000085,
                    "velocity": 0.23622047244094488,
                    "duration": 0.17123300000000086
                },
                {
                    "name": "G3",
                    "midi": 55,
                    "time": 176.71245600000086,
                    "velocity": 0.2755905511811024,
                    "duration": 0.17123300000000086
                },
                {
                    "name": "A3",
                    "midi": 57,
                    "time": 176.88368900000086,
                    "velocity": 0.23622047244094488,
                    "duration": 0.17123300000000086
                },
                {
                    "name": "F#4",
                    "midi": 66,
                    "time": 177.05492200000086,
                    "velocity": 0.25196850393700787,
                    "duration": 0.17123300000000086
                },
                {
                    "name": "A3",
                    "midi": 57,
                    "time": 177.22615500000086,
                    "velocity": 0.23622047244094488,
                    "duration": 0.17123300000000086
                },
                {
                    "name": "G3",
                    "midi": 55,
                    "time": 177.39738800000086,
                    "velocity": 0.2755905511811024,
                    "duration": 0.17123300000000086
                },
                {
                    "name": "C4",
                    "midi": 60,
                    "time": 177.56862100000086,
                    "velocity": 0.23622047244094488,
                    "duration": 0.17123300000000086
                },
                {
                    "name": "F#4",
                    "midi": 66,
                    "time": 177.73985400000086,
                    "velocity": 0.25196850393700787,
                    "duration": 0.17123300000000086
                },
                {
                    "name": "C4",
                    "midi": 60,
                    "time": 177.91108700000086,
                    "velocity": 0.23622047244094488,
                    "duration": 0.17123300000000086
                },
                {
                    "name": "G3",
                    "midi": 55,
                    "time": 178.08232000000086,
                    "velocity": 0.2755905511811024,
                    "duration": 0.17123300000000086
                },
                {
                    "name": "B3",
                    "midi": 59,
                    "time": 178.25355300000086,
                    "velocity": 0.23622047244094488,
                    "duration": 0.17123300000000086
                },
                {
                    "name": "G4",
                    "midi": 67,
                    "time": 178.42478600000086,
                    "velocity": 0.25196850393700787,
                    "duration": 0.17123300000000086
                },
                {
                    "name": "B3",
                    "midi": 59,
                    "time": 178.59601900000087,
                    "velocity": 0.2440944881889764,
                    "duration": 0.17123300000000086
                },
                {
                    "name": "G3",
                    "midi": 55,
                    "time": 178.76725200000087,
                    "velocity": 0.2755905511811024,
                    "duration": 0.17123300000000086
                },
                {
                    "name": "B3",
                    "midi": 59,
                    "time": 178.93848500000087,
                    "velocity": 0.23622047244094488,
                    "duration": 0.17123300000000086
                },
                {
                    "name": "G4",
                    "midi": 67,
                    "time": 179.10971800000087,
                    "velocity": 0.25196850393700787,
                    "duration": 0.17123300000000086
                },
                {
                    "name": "B3",
                    "midi": 59,
                    "time": 179.28095100000087,
                    "velocity": 0.23622047244094488,
                    "duration": 0.17123300000000086
                },
                {
                    "name": "G3",
                    "midi": 55,
                    "time": 179.45218400000087,
                    "velocity": 0.2755905511811024,
                    "duration": 0.17123300000000086
                },
                {
                    "name": "A3",
                    "midi": 57,
                    "time": 179.62341700000087,
                    "velocity": 0.23622047244094488,
                    "duration": 0.17123300000000086
                },
                {
                    "name": "F#4",
                    "midi": 66,
                    "time": 179.79465000000087,
                    "velocity": 0.25196850393700787,
                    "duration": 0.17123300000000086
                },
                {
                    "name": "A3",
                    "midi": 57,
                    "time": 179.96588300000087,
                    "velocity": 0.23622047244094488,
                    "duration": 0.17123300000000086
                },
                {
                    "name": "G3",
                    "midi": 55,
                    "time": 180.13711600000087,
                    "velocity": 0.2755905511811024,
                    "duration": 0.17123300000000086
                },
                {
                    "name": "C4",
                    "midi": 60,
                    "time": 180.30834900000087,
                    "velocity": 0.23622047244094488,
                    "duration": 0.17123300000000086
                },
                {
                    "name": "F#4",
                    "midi": 66,
                    "time": 180.47958200000087,
                    "velocity": 0.25196850393700787,
                    "duration": 0.17123300000000086
                },
                {
                    "name": "C4",
                    "midi": 60,
                    "time": 180.65081500000088,
                    "velocity": 0.23622047244094488,
                    "duration": 0.17123300000000086
                },
                {
                    "name": "G3",
                    "midi": 55,
                    "time": 180.82204800000088,
                    "velocity": 0.2755905511811024,
                    "duration": 0.17123300000000086
                },
                {
                    "name": "B3",
                    "midi": 59,
                    "time": 180.99328100000088,
                    "velocity": 0.23622047244094488,
                    "duration": 0.17123300000000086
                },
                {
                    "name": "G4",
                    "midi": 67,
                    "time": 181.16451400000088,
                    "velocity": 0.25196850393700787,
                    "duration": 0.17123300000000086
                },
                {
                    "name": "B3",
                    "midi": 59,
                    "time": 181.33574700000088,
                    "velocity": 0.23622047244094488,
                    "duration": 0.17123300000000086
                },
                {
                    "name": "G3",
                    "midi": 55,
                    "time": 181.50698000000088,
                    "velocity": 0.2755905511811024,
                    "duration": 0.17123300000000086
                },
                {
                    "name": "C4",
                    "midi": 60,
                    "time": 181.67821300000088,
                    "velocity": 0.23622047244094488,
                    "duration": 0.17123300000000086
                },
                {
                    "name": "F#4",
                    "midi": 66,
                    "time": 181.84944600000088,
                    "velocity": 0.25196850393700787,
                    "duration": 0.17123300000000086
                },
                {
                    "name": "C4",
                    "midi": 60,
                    "time": 182.02067900000088,
                    "velocity": 0.23622047244094488,
                    "duration": 0.17123300000000086
                },
                {
                    "name": "G3",
                    "midi": 55,
                    "time": 182.19191200000088,
                    "velocity": 0.2755905511811024,
                    "duration": 0.17123300000000086
                },
                {
                    "name": "B3",
                    "midi": 59,
                    "time": 182.36314500000088,
                    "velocity": 0.23622047244094488,
                    "duration": 0.17123300000000086
                },
                {
                    "name": "G4",
                    "midi": 67,
                    "time": 182.53437800000088,
                    "velocity": 0.25196850393700787,
                    "duration": 0.17123300000000086
                },
                {
                    "name": "B3",
                    "midi": 59,
                    "time": 182.70561100000089,
                    "velocity": 0.23622047244094488,
                    "duration": 0.17123300000000086
                },
                {
                    "name": "G3",
                    "midi": 55,
                    "time": 182.8768440000009,
                    "velocity": 0.2755905511811024,
                    "duration": 0.17123300000000086
                },
                {
                    "name": "C4",
                    "midi": 60,
                    "time": 183.0480770000009,
                    "velocity": 0.23622047244094488,
                    "duration": 0.17123300000000086
                },
                {
                    "name": "F#4",
                    "midi": 66,
                    "time": 183.2193100000009,
                    "velocity": 0.25196850393700787,
                    "duration": 0.17123300000000086
                },
                {
                    "name": "C4",
                    "midi": 60,
                    "time": 183.3905430000009,
                    "velocity": 0.23622047244094488,
                    "duration": 0.17123300000000086
                },
                {
                    "name": "G4",
                    "midi": 67,
                    "time": 183.5617760000009,
                    "velocity": 0.2440944881889764,
                    "duration": 0.3424660000000017
                },
                {
                    "name": "B3",
                    "midi": 59,
                    "time": 183.5617760000009,
                    "velocity": 0.2440944881889764,
                    "duration": 0.3424660000000017
                },
                {
                    "name": "G3",
                    "midi": 55,
                    "time": 183.5617760000009,
                    "velocity": 0.2440944881889764,
                    "duration": 0.3424660000000017
                },
                {
                    "name": "D3",
                    "midi": 50,
                    "time": 184.5891740000009,
                    "velocity": 0.23622047244094488,
                    "duration": 0.3424660000000017
                },
                {
                    "name": "G3",
                    "midi": 55,
                    "time": 184.9316400000009,
                    "velocity": 0.25984251968503935,
                    "duration": 0.3424660000000017
                },
                {
                    "name": "D3",
                    "midi": 50,
                    "time": 185.2741060000009,
                    "velocity": 0.25196850393700787,
                    "duration": 0.3424660000000017
                },
                {
                    "name": "G2",
                    "midi": 43,
                    "time": 185.6165720000009,
                    "velocity": 0.25984251968503935,
                    "duration": 0.3424660000000017
                },
                {
                    "name": "D4",
                    "midi": 62,
                    "time": 186.3015040000009,
                    "velocity": 0.30708661417322836,
                    "duration": 0.6849320000000034
                },
                {
                    "name": "B3",
                    "midi": 59,
                    "time": 186.3015040000009,
                    "velocity": 0.30708661417322836,
                    "duration": 0.3424660000000017
                },
                {
                    "name": "G3",
                    "midi": 55,
                    "time": 186.6439700000009,
                    "velocity": 0.2992125984251969,
                    "duration": 0.17123300000000086
                },
                {
                    "name": "D4",
                    "midi": 62,
                    "time": 186.9864360000009,
                    "velocity": 0.31496062992125984,
                    "duration": 0.17123300000000086
                },
                {
                    "name": "G3",
                    "midi": 55,
                    "time": 186.9864360000009,
                    "velocity": 0.31496062992125984,
                    "duration": 0.17123300000000086
                },
                {
                    "name": "D4",
                    "midi": 62,
                    "time": 187.3289020000009,
                    "velocity": 0.2992125984251969,
                    "duration": 0.3424660000000017
                },
                {
                    "name": "G3",
                    "midi": 55,
                    "time": 187.3289020000009,
                    "velocity": 0.2992125984251969,
                    "duration": 0.3424660000000017
                },
                {
                    "name": "B3",
                    "midi": 59,
                    "time": 187.6713680000009,
                    "velocity": 0.31496062992125984,
                    "duration": 0.3424660000000017
                },
                {
                    "name": "D4",
                    "midi": 62,
                    "time": 187.6713680000009,
                    "velocity": 0.31496062992125984,
                    "duration": 0.684931999999975
                },
                {
                    "name": "A3",
                    "midi": 57,
                    "time": 188.0138340000009,
                    "velocity": 0.2992125984251969,
                    "duration": 0.08561649999998622
                },
                {
                    "name": "F#3",
                    "midi": 54,
                    "time": 188.35630000000089,
                    "velocity": 0.2992125984251969,
                    "duration": 0.6849320000000034
                },
                {
                    "name": "D4",
                    "midi": 62,
                    "time": 188.35630000000089,
                    "velocity": 0.2992125984251969,
                    "duration": 0.6849320000000034
                },
                {
                    "name": "D4",
                    "midi": 62,
                    "time": 189.0412320000009,
                    "velocity": 0.3228346456692913,
                    "duration": 0.684931999999975
                },
                {
                    "name": "A3",
                    "midi": 57,
                    "time": 189.0412320000009,
                    "velocity": 0.3228346456692913,
                    "duration": 0.3424660000000017
                },
                {
                    "name": "G3",
                    "midi": 55,
                    "time": 189.3836980000009,
                    "velocity": 0.2992125984251969,
                    "duration": 0.08561649999998622
                },
                {
                    "name": "D4",
                    "midi": 62,
                    "time": 189.72616400000086,
                    "velocity": 0.31496062992125984,
                    "duration": 0.684931999999975
                },
                {
                    "name": "B3",
                    "midi": 59,
                    "time": 189.72616400000086,
                    "velocity": 0.31496062992125984,
                    "duration": 0.3424660000000017
                },
                {
                    "name": "A3",
                    "midi": 57,
                    "time": 190.06863000000087,
                    "velocity": 0.2992125984251969,
                    "duration": 0.08561649999998622
                },
                {
                    "name": "D4",
                    "midi": 62,
                    "time": 190.41109600000084,
                    "velocity": 0.3937007874015748,
                    "duration": 1.0273980000000051
                },
                {
                    "name": "C4",
                    "midi": 60,
                    "time": 190.41109600000084,
                    "velocity": 0.3937007874015748,
                    "duration": 0.6849320000000034
                },
                {
                    "name": "B3",
                    "midi": 59,
                    "time": 191.09602800000084,
                    "velocity": 0.31496062992125984,
                    "duration": 0.3424660000000017
                },
                {
                    "name": "B2",
                    "midi": 47,
                    "time": 192.46589200000085,
                    "velocity": 0.2992125984251969,
                    "duration": 0.6849320000000034
                },
                {
                    "name": "D3",
                    "midi": 50,
                    "time": 192.46589200000085,
                    "velocity": 0.2992125984251969,
                    "duration": 0.6849320000000034
                },
                {
                    "name": "C3",
                    "midi": 48,
                    "time": 193.15082400000085,
                    "velocity": 0.2992125984251969,
                    "duration": 0.6849320000000034
                },
                {
                    "name": "E3",
                    "midi": 52,
                    "time": 193.15082400000085,
                    "velocity": 0.2992125984251969,
                    "duration": 0.6849320000000034
                },
                {
                    "name": "C#3",
                    "midi": 49,
                    "time": 193.83575600000086,
                    "velocity": 0.31496062992125984,
                    "duration": 0.6849320000000034
                },
                {
                    "name": "G3",
                    "midi": 55,
                    "time": 193.83575600000086,
                    "velocity": 0.31496062992125984,
                    "duration": 0.6849320000000034
                },
                {
                    "name": "D3",
                    "midi": 50,
                    "time": 194.52068800000086,
                    "velocity": 0.2677165354330709,
                    "duration": 1.3698640000000069
                },
                {
                    "name": "B3",
                    "midi": 59,
                    "time": 194.52068800000086,
                    "velocity": 0.2677165354330709,
                    "duration": 0.6849320000000034
                },
                {
                    "name": "A3",
                    "midi": 57,
                    "time": 195.20562000000086,
                    "velocity": 0.2677165354330709,
                    "duration": 0.6849320000000034
                },
                {
                    "name": "C4",
                    "midi": 60,
                    "time": 195.89055200000087,
                    "velocity": 0.30708661417322836,
                    "duration": 0.6849320000000034
                },
                {
                    "name": "G3",
                    "midi": 55,
                    "time": 195.89055200000087,
                    "velocity": 0.30708661417322836,
                    "duration": 1.0273980000000051
                },
                {
                    "name": "B3",
                    "midi": 59,
                    "time": 196.57548400000087,
                    "velocity": 0.2755905511811024,
                    "duration": 0.3424660000000017
                },
                {
                    "name": "B3",
                    "midi": 59,
                    "time": 197.26041600000087,
                    "velocity": 0.2992125984251969,
                    "duration": 0.17123300000000086
                },
                {
                    "name": "D4",
                    "midi": 62,
                    "time": 197.43164900000087,
                    "velocity": 0.23622047244094488,
                    "duration": 0.17123300000000086
                },
                {
                    "name": "G3",
                    "midi": 55,
                    "time": 197.60288200000087,
                    "velocity": 0.2755905511811024,
                    "duration": 0.17123300000000086
                },
                {
                    "name": "D4",
                    "midi": 62,
                    "time": 197.77411500000088,
                    "velocity": 0.23622047244094488,
                    "duration": 0.17123300000000086
                },
                {
                    "name": "G3",
                    "midi": 55,
                    "time": 197.94534800000088,
                    "velocity": 0.2992125984251969,
                    "duration": 0.17123300000000086
                },
                {
                    "name": "D4",
                    "midi": 62,
                    "time": 198.11658100000088,
                    "velocity": 0.25196850393700787,
                    "duration": 0.17123300000000086
                },
                {
                    "name": "G#3",
                    "midi": 56,
                    "time": 198.28781400000088,
                    "velocity": 0.29133858267716534,
                    "duration": 0.17123300000000086
                },
                {
                    "name": "D4",
                    "midi": 62,
                    "time": 198.45904700000088,
                    "velocity": 0.25196850393700787,
                    "duration": 0.17123300000000086
                },
                {
                    "name": "A3",
                    "midi": 57,
                    "time": 198.63028000000088,
                    "velocity": 0.31496062992125984,
                    "duration": 0.17123300000000086
                },
                {
                    "name": "D4",
                    "midi": 62,
                    "time": 198.80151300000088,
                    "velocity": 0.2440944881889764,
                    "duration": 0.17123300000000086
                },
                {
                    "name": "G3",
                    "midi": 55,
                    "time": 198.97274600000088,
                    "velocity": 0.2755905511811024,
                    "duration": 0.17123300000000086
                },
                {
                    "name": "D4",
                    "midi": 62,
                    "time": 199.14397900000088,
                    "velocity": 0.23622047244094488,
                    "duration": 0.17123300000000086
                },
                {
                    "name": "F#3",
                    "midi": 54,
                    "time": 199.31521200000088,
                    "velocity": 0.2992125984251969,
                    "duration": 0.17123300000000086
                },
                {
                    "name": "D4",
                    "midi": 62,
                    "time": 199.48644500000088,
                    "velocity": 0.2755905511811024,
                    "duration": 0.17123300000000086
                },
                {
                    "name": "D3",
                    "midi": 50,
                    "time": 199.65767800000089,
                    "velocity": 0.2992125984251969,
                    "duration": 0.17123300000000086
                },
                {
                    "name": "D4",
                    "midi": 62,
                    "time": 199.8289110000009,
                    "velocity": 0.2677165354330709,
                    "duration": 0.17123300000000086
                },
                {
                    "name": "G3",
                    "midi": 55,
                    "time": 200.0001440000009,
                    "velocity": 0.2992125984251969,
                    "duration": 0.17123300000000086
                },
                {
                    "name": "G4",
                    "midi": 67,
                    "time": 200.1713770000009,
                    "velocity": 0.2677165354330709,
                    "duration": 0.17123300000000086
                },
                {
                    "name": "B3",
                    "midi": 59,
                    "time": 200.3426100000009,
                    "velocity": 0.2992125984251969,
                    "duration": 0.17123300000000086
                },
                {
                    "name": "G4",
                    "midi": 67,
                    "time": 200.5138430000009,
                    "velocity": 0.25984251968503935,
                    "duration": 0.17123300000000086
                },
                {
                    "name": "A3",
                    "midi": 57,
                    "time": 200.6850760000009,
                    "velocity": 0.31496062992125984,
                    "duration": 0.17123300000000086
                },
                {
                    "name": "G4",
                    "midi": 67,
                    "time": 200.8563090000009,
                    "velocity": 0.2992125984251969,
                    "duration": 0.17123300000000086
                },
                {
                    "name": "C4",
                    "midi": 60,
                    "time": 201.0275420000009,
                    "velocity": 0.31496062992125984,
                    "duration": 0.17123300000000086
                },
                {
                    "name": "G4",
                    "midi": 67,
                    "time": 201.1987750000009,
                    "velocity": 0.2992125984251969,
                    "duration": 0.17123300000000086
                },
                {
                    "name": "C4",
                    "midi": 60,
                    "time": 201.3700080000009,
                    "velocity": 0.3700787401574803,
                    "duration": 0.17123300000000086
                },
                {
                    "name": "G4",
                    "midi": 67,
                    "time": 201.5412410000009,
                    "velocity": 0.2992125984251969,
                    "duration": 0.17123300000000086
                },
                {
                    "name": "E4",
                    "midi": 64,
                    "time": 201.7124740000009,
                    "velocity": 0.31496062992125984,
                    "duration": 0.17123300000000086
                },
                {
                    "name": "G4",
                    "midi": 67,
                    "time": 201.8837070000009,
                    "velocity": 0.2992125984251969,
                    "duration": 0.17123300000000086
                },
                {
                    "name": "B3",
                    "midi": 59,
                    "time": 202.0549400000009,
                    "velocity": 0.31496062992125984,
                    "duration": 0.17123300000000086
                },
                {
                    "name": "G4",
                    "midi": 67,
                    "time": 202.2261730000009,
                    "velocity": 0.25984251968503935,
                    "duration": 0.17123300000000086
                },
                {
                    "name": "D4",
                    "midi": 62,
                    "time": 202.3974060000009,
                    "velocity": 0.2992125984251969,
                    "duration": 0.17123300000000086
                },
                {
                    "name": "G4",
                    "midi": 67,
                    "time": 202.5686390000009,
                    "velocity": 0.2677165354330709,
                    "duration": 0.17123300000000086
                },
                {
                    "name": "A3",
                    "midi": 57,
                    "time": 202.7398720000009,
                    "velocity": 0.30708661417322836,
                    "duration": 0.17123300000000086
                },
                {
                    "name": "G4",
                    "midi": 67,
                    "time": 202.9111050000009,
                    "velocity": 0.2755905511811024,
                    "duration": 0.17123300000000086
                },
                {
                    "name": "C4",
                    "midi": 60,
                    "time": 203.0823380000009,
                    "velocity": 0.30708661417322836,
                    "duration": 0.17123300000000086
                },
                {
                    "name": "G4",
                    "midi": 67,
                    "time": 203.2535710000009,
                    "velocity": 0.2677165354330709,
                    "duration": 0.17123300000000086
                },
                {
                    "name": "B3",
                    "midi": 59,
                    "time": 203.4248040000009,
                    "velocity": 0.3228346456692913,
                    "duration": 0.17123300000000086
                },
                {
                    "name": "G4",
                    "midi": 67,
                    "time": 203.5960370000009,
                    "velocity": 0.29133858267716534,
                    "duration": 0.17123300000000086
                },
                {
                    "name": "D4",
                    "midi": 62,
                    "time": 203.7672700000009,
                    "velocity": 0.31496062992125984,
                    "duration": 0.17123300000000086
                },
                {
                    "name": "G4",
                    "midi": 67,
                    "time": 203.9385030000009,
                    "velocity": 0.29133858267716534,
                    "duration": 0.17123300000000086
                },
                {
                    "name": "D4",
                    "midi": 62,
                    "time": 204.1097360000009,
                    "velocity": 0.3937007874015748,
                    "duration": 0.17123300000000086
                },
                {
                    "name": "G4",
                    "midi": 67,
                    "time": 204.2809690000009,
                    "velocity": 0.2992125984251969,
                    "duration": 0.17123300000000086
                },
                {
                    "name": "F4",
                    "midi": 65,
                    "time": 204.4522020000009,
                    "velocity": 0.3228346456692913,
                    "duration": 0.17123300000000086
                },
                {
                    "name": "G4",
                    "midi": 67,
                    "time": 204.6234350000009,
                    "velocity": 0.2992125984251969,
                    "duration": 0.17123300000000086
                },
                {
                    "name": "C4",
                    "midi": 60,
                    "time": 204.7946680000009,
                    "velocity": 0.3228346456692913,
                    "duration": 0.17123300000000086
                },
                {
                    "name": "G4",
                    "midi": 67,
                    "time": 204.9659010000009,
                    "velocity": 0.29133858267716534,
                    "duration": 0.17123300000000086
                },
                {
                    "name": "E4",
                    "midi": 64,
                    "time": 205.1371340000009,
                    "velocity": 0.30708661417322836,
                    "duration": 0.17123300000000086
                },
                {
                    "name": "G4",
                    "midi": 67,
                    "time": 205.3083670000009,
                    "velocity": 0.29133858267716534,
                    "duration": 0.17123300000000086
                },
                {
                    "name": "B3",
                    "midi": 59,
                    "time": 205.47960000000091,
                    "velocity": 0.31496062992125984,
                    "duration": 0.17123300000000086
                },
                {
                    "name": "G4",
                    "midi": 67,
                    "time": 205.65083300000092,
                    "velocity": 0.2992125984251969,
                    "duration": 0.17123300000000086
                },
                {
                    "name": "D4",
                    "midi": 62,
                    "time": 205.82206600000092,
                    "velocity": 0.31496062992125984,
                    "duration": 0.17123300000000086
                },
                {
                    "name": "G4",
                    "midi": 67,
                    "time": 205.99329900000092,
                    "velocity": 0.29133858267716534,
                    "duration": 0.17123300000000086
                },
                {
                    "name": "C4",
                    "midi": 60,
                    "time": 206.16453200000092,
                    "velocity": 0.3543307086614173,
                    "duration": 0.17123300000000086
                },
                {
                    "name": "G4",
                    "midi": 67,
                    "time": 206.33576500000092,
                    "velocity": 0.31496062992125984,
                    "duration": 0.17123300000000086
                },
                {
                    "name": "E4",
                    "midi": 64,
                    "time": 206.50699800000092,
                    "velocity": 0.3543307086614173,
                    "duration": 0.17123300000000086
                },
                {
                    "name": "G4",
                    "midi": 67,
                    "time": 206.67823100000092,
                    "velocity": 0.31496062992125984,
                    "duration": 0.17123300000000086
                },
                {
                    "name": "E4",
                    "midi": 64,
                    "time": 206.84946400000092,
                    "velocity": 0.4094488188976378,
                    "duration": 0.17123300000000086
                },
                {
                    "name": "G4",
                    "midi": 67,
                    "time": 207.02069700000092,
                    "velocity": 0.3228346456692913,
                    "duration": 0.17123300000000086
                },
                {
                    "name": "F#4",
                    "midi": 66,
                    "time": 207.19193000000092,
                    "velocity": 0.3543307086614173,
                    "duration": 0.17123300000000086
                },
                {
                    "name": "G4",
                    "midi": 67,
                    "time": 207.36316300000092,
                    "velocity": 0.31496062992125984,
                    "duration": 0.17123300000000086
                },
                {
                    "name": "D4",
                    "midi": 62,
                    "time": 207.53439600000092,
                    "velocity": 0.3543307086614173,
                    "duration": 0.17123300000000086
                },
                {
                    "name": "G4",
                    "midi": 67,
                    "time": 207.70562900000093,
                    "velocity": 0.2992125984251969,
                    "duration": 0.17123300000000086
                },
                {
                    "name": "F#4",
                    "midi": 66,
                    "time": 207.87686200000093,
                    "velocity": 0.31496062992125984,
                    "duration": 0.17123300000000086
                },
                {
                    "name": "G4",
                    "midi": 67,
                    "time": 208.04809500000093,
                    "velocity": 0.2992125984251969,
                    "duration": 0.17123300000000086
                },
                {
                    "name": "C4",
                    "midi": 60,
                    "time": 208.21932800000093,
                    "velocity": 0.31496062992125984,
                    "duration": 0.17123300000000086
                },
                {
                    "name": "G4",
                    "midi": 67,
                    "time": 208.39056100000093,
                    "velocity": 0.2755905511811024,
                    "duration": 0.17123300000000086
                },
                {
                    "name": "F#4",
                    "midi": 66,
                    "time": 208.56179400000093,
                    "velocity": 0.29133858267716534,
                    "duration": 0.17123300000000086
                },
                {
                    "name": "G4",
                    "midi": 67,
                    "time": 208.73302700000093,
                    "velocity": 0.2755905511811024,
                    "duration": 0.17123300000000086
                },
                {
                    "name": "B3",
                    "midi": 59,
                    "time": 208.90426000000093,
                    "velocity": 0.31496062992125984,
                    "duration": 0.17123300000000086
                },
                {
                    "name": "G4",
                    "midi": 67,
                    "time": 209.07549300000093,
                    "velocity": 0.2755905511811024,
                    "duration": 0.17123300000000086
                },
                {
                    "name": "C4",
                    "midi": 60,
                    "time": 209.24672600000093,
                    "velocity": 0.29133858267716534,
                    "duration": 0.17123300000000086
                },
                {
                    "name": "G4",
                    "midi": 67,
                    "time": 209.41795900000093,
                    "velocity": 0.2677165354330709,
                    "duration": 0.17123300000000086
                },
                {
                    "name": "G3",
                    "midi": 55,
                    "time": 209.58919200000093,
                    "velocity": 0.29133858267716534,
                    "duration": 0.17123300000000086
                },
                {
                    "name": "G4",
                    "midi": 67,
                    "time": 209.76042500000094,
                    "velocity": 0.23622047244094488,
                    "duration": 0.17123300000000086
                },
                {
                    "name": "B3",
                    "midi": 59,
                    "time": 209.93165800000094,
                    "velocity": 0.25984251968503935,
                    "duration": 0.17123300000000086
                },
                {
                    "name": "G4",
                    "midi": 67,
                    "time": 210.10289100000094,
                    "velocity": 0.23622047244094488,
                    "duration": 0.17123300000000086
                },
                {
                    "name": "G3",
                    "midi": 55,
                    "time": 210.27412400000094,
                    "velocity": 0.2992125984251969,
                    "duration": 0.17123300000000086
                },
                {
                    "name": "G4",
                    "midi": 67,
                    "time": 210.44535700000094,
                    "velocity": 0.25984251968503935,
                    "duration": 0.17123300000000086
                },
                {
                    "name": "B3",
                    "midi": 59,
                    "time": 210.61659000000094,
                    "velocity": 0.2440944881889764,
                    "duration": 0.17123300000000086
                },
                {
                    "name": "G4",
                    "midi": 67,
                    "time": 210.78782300000094,
                    "velocity": 0.2440944881889764,
                    "duration": 0.17123300000000086
                },
                {
                    "name": "G3",
                    "midi": 55,
                    "time": 210.95905600000094,
                    "velocity": 0.2677165354330709,
                    "duration": 0.17123300000000086
                },
                {
                    "name": "G4",
                    "midi": 67,
                    "time": 211.13028900000094,
                    "velocity": 0.2283464566929134,
                    "duration": 0.17123300000000086
                },
                {
                    "name": "C4",
                    "midi": 60,
                    "time": 211.30152200000094,
                    "velocity": 0.2440944881889764,
                    "duration": 0.17123300000000086
                },
                {
                    "name": "G4",
                    "midi": 67,
                    "time": 211.47275500000094,
                    "velocity": 0.23622047244094488,
                    "duration": 0.17123300000000086
                },
                {
                    "name": "G3",
                    "midi": 55,
                    "time": 211.64398800000095,
                    "velocity": 0.25984251968503935,
                    "duration": 0.17123300000000086
                },
                {
                    "name": "G4",
                    "midi": 67,
                    "time": 211.81522100000095,
                    "velocity": 0.23622047244094488,
                    "duration": 0.17123300000000086
                },
                {
                    "name": "D#4",
                    "midi": 63,
                    "time": 211.98645400000095,
                    "velocity": 0.2440944881889764,
                    "duration": 0.17123300000000086
                },
                {
                    "name": "G4",
                    "midi": 67,
                    "time": 212.15768700000095,
                    "velocity": 0.2283464566929134,
                    "duration": 0.17123300000000086
                },
                {
                    "name": "G3",
                    "midi": 55,
                    "time": 212.32892000000095,
                    "velocity": 0.25196850393700787,
                    "duration": 0.17123300000000086
                },
                {
                    "name": "G4",
                    "midi": 67,
                    "time": 212.50015300000095,
                    "velocity": 0.23622047244094488,
                    "duration": 0.17123300000000086
                },
                {
                    "name": "D4",
                    "midi": 62,
                    "time": 212.67138600000095,
                    "velocity": 0.25196850393700787,
                    "duration": 0.17123300000000086
                },
                {
                    "name": "G4",
                    "midi": 67,
                    "time": 212.84261900000095,
                    "velocity": 0.23622047244094488,
                    "duration": 0.17123300000000086
                },
                {
                    "name": "G3",
                    "midi": 55,
                    "time": 213.01385200000095,
                    "velocity": 0.29133858267716534,
                    "duration": 0.17123300000000086
                },
                {
                    "name": "G4",
                    "midi": 67,
                    "time": 213.18508500000095,
                    "velocity": 0.23622047244094488,
                    "duration": 0.17123300000000086
                },
                {
                    "name": "B3",
                    "midi": 59,
                    "time": 213.35631800000095,
                    "velocity": 0.25196850393700787,
                    "duration": 0.17123300000000086
                },
                {
                    "name": "G4",
                    "midi": 67,
                    "time": 213.52755100000095,
                    "velocity": 0.23622047244094488,
                    "duration": 0.17123300000000086
                },
                {
                    "name": "G3",
                    "midi": 55,
                    "time": 213.69878400000096,
                    "velocity": 0.2755905511811024,
                    "duration": 0.17123300000000086
                },
                {
                    "name": "G4",
                    "midi": 67,
                    "time": 213.87001700000096,
                    "velocity": 0.23622047244094488,
                    "duration": 0.17123300000000086
                },
                {
                    "name": "C4",
                    "midi": 60,
                    "time": 214.04125000000096,
                    "velocity": 0.25196850393700787,
                    "duration": 0.17123300000000086
                },
                {
                    "name": "G4",
                    "midi": 67,
                    "time": 214.21248300000096,
                    "velocity": 0.23622047244094488,
                    "duration": 0.17123300000000086
                },
                {
                    "name": "G3",
                    "midi": 55,
                    "time": 214.38371600000096,
                    "velocity": 0.29133858267716534,
                    "duration": 0.17123300000000086
                },
                {
                    "name": "G4",
                    "midi": 67,
                    "time": 214.55494900000096,
                    "velocity": 0.23622047244094488,
                    "duration": 0.17123300000000086
                },
                {
                    "name": "D#4",
                    "midi": 63,
                    "time": 214.72618200000096,
                    "velocity": 0.25984251968503935,
                    "duration": 0.17123300000000086
                },
                {
                    "name": "G4",
                    "midi": 67,
                    "time": 214.89741500000096,
                    "velocity": 0.23622047244094488,
                    "duration": 0.17123300000000086
                },
                {
                    "name": "G3",
                    "midi": 55,
                    "time": 215.06864800000096,
                    "velocity": 0.2755905511811024,
                    "duration": 0.17123300000000086
                },
                {
                    "name": "G4",
                    "midi": 67,
                    "time": 215.23988100000096,
                    "velocity": 0.23622047244094488,
                    "duration": 0.17123300000000086
                },
                {
                    "name": "D4",
                    "midi": 62,
                    "time": 215.41111400000096,
                    "velocity": 0.25196850393700787,
                    "duration": 0.17123300000000086
                },
                {
                    "name": "G4",
                    "midi": 67,
                    "time": 215.58234700000096,
                    "velocity": 0.23622047244094488,
                    "duration": 0.17123300000000086
                },
                {
                    "name": "G3",
                    "midi": 55,
                    "time": 215.75358000000097,
                    "velocity": 0.3543307086614173,
                    "duration": 0.17123300000000086
                },
                {
                    "name": "G4",
                    "midi": 67,
                    "time": 215.92481300000097,
                    "velocity": 0.2755905511811024,
                    "duration": 0.17123300000000086
                },
                {
                    "name": "B3",
                    "midi": 59,
                    "time": 216.09604600000097,
                    "velocity": 0.2992125984251969,
                    "duration": 0.17123300000000086
                },
                {
                    "name": "G4",
                    "midi": 67,
                    "time": 216.26727900000097,
                    "velocity": 0.28346456692913385,
                    "duration": 0.17123300000000086
                },
                {
                    "name": "G#3",
                    "midi": 56,
                    "time": 216.43851200000097,
                    "velocity": 0.3543307086614173,
                    "duration": 0.17123300000000086
                },
                {
                    "name": "G4",
                    "midi": 67,
                    "time": 216.60974500000097,
                    "velocity": 0.23622047244094488,
                    "duration": 0.17123300000000086
                },
                {
                    "name": "C4",
                    "midi": 60,
                    "time": 216.78097800000097,
                    "velocity": 0.25984251968503935,
                    "duration": 0.17123300000000086
                },
                {
                    "name": "G4",
                    "midi": 67,
                    "time": 216.95221100000097,
                    "velocity": 0.23622047244094488,
                    "duration": 0.17123300000000086
                },
                {
                    "name": "G#3",
                    "midi": 56,
                    "time": 217.12344400000097,
                    "velocity": 0.3543307086614173,
                    "duration": 0.17123300000000086
                },
                {
                    "name": "F#4",
                    "midi": 66,
                    "time": 217.29467700000097,
                    "velocity": 0.25984251968503935,
                    "duration": 0.17123300000000086
                },
                {
                    "name": "C4",
                    "midi": 60,
                    "time": 217.46591000000097,
                    "velocity": 0.25984251968503935,
                    "duration": 0.17123300000000086
                },
                {
                    "name": "F#4",
                    "midi": 66,
                    "time": 217.63714300000098,
                    "velocity": 0.25984251968503935,
                    "duration": 0.17123300000000086
                },
                {
                    "name": "G3",
                    "midi": 55,
                    "time": 217.80837600000098,
                    "velocity": 0.3543307086614173,
                    "duration": 0.3424660000000017
                },
                {
                    "name": "G4",
                    "midi": 67,
                    "time": 217.80837600000098,
                    "velocity": 0.3543307086614173,
                    "duration": 0.3424660000000017
                },
                {
                    "name": "G3",
                    "midi": 55,
                    "time": 218.49330800000098,
                    "velocity": 0.33858267716535434,
                    "duration": 0.3424660000000017
                },
                {
                    "name": "G4",
                    "midi": 67,
                    "time": 218.49330800000098,
                    "velocity": 0.33858267716535434,
                    "duration": 0.3424660000000017
                },
                {
                    "name": "G3",
                    "midi": 55,
                    "time": 219.17824000000098,
                    "velocity": 0.3464566929133858,
                    "duration": 0.3424660000000017
                },
                {
                    "name": "G4",
                    "midi": 67,
                    "time": 219.17824000000098,
                    "velocity": 0.3464566929133858,
                    "duration": 0.3424660000000017
                },
                {
                    "name": "G3",
                    "midi": 55,
                    "time": 220.548104000001,
                    "velocity": 0.1889763779527559,
                    "duration": 0.3424660000000017
                },
                {
                    "name": "B3",
                    "midi": 59,
                    "time": 220.548104000001,
                    "velocity": 0.1889763779527559,
                    "duration": 0.3424660000000017
                },
                {
                    "name": "D4",
                    "midi": 62,
                    "time": 220.548104000001,
                    "velocity": 0.1889763779527559,
                    "duration": 0.3424660000000017
                },
                {
                    "name": "F4",
                    "midi": 65,
                    "time": 220.548104000001,
                    "velocity": 0.1889763779527559,
                    "duration": 0.3424660000000017
                },
                {
                    "name": "G3",
                    "midi": 55,
                    "time": 221.233036000001,
                    "velocity": 0.1889763779527559,
                    "duration": 0.3424660000000017
                },
                {
                    "name": "B3",
                    "midi": 59,
                    "time": 221.233036000001,
                    "velocity": 0.1889763779527559,
                    "duration": 0.3424660000000017
                },
                {
                    "name": "D4",
                    "midi": 62,
                    "time": 221.233036000001,
                    "velocity": 0.1889763779527559,
                    "duration": 0.3424660000000017
                },
                {
                    "name": "F4",
                    "midi": 65,
                    "time": 221.233036000001,
                    "velocity": 0.1889763779527559,
                    "duration": 0.3424660000000017
                },
                {
                    "name": "G3",
                    "midi": 55,
                    "time": 221.917968000001,
                    "velocity": 0.1889763779527559,
                    "duration": 0.3424660000000017
                },
                {
                    "name": "B3",
                    "midi": 59,
                    "time": 221.917968000001,
                    "velocity": 0.1889763779527559,
                    "duration": 0.3424660000000017
                },
                {
                    "name": "D4",
                    "midi": 62,
                    "time": 221.917968000001,
                    "velocity": 0.1889763779527559,
                    "duration": 0.3424660000000017
                },
                {
                    "name": "F4",
                    "midi": 65,
                    "time": 221.917968000001,
                    "velocity": 0.1889763779527559,
                    "duration": 0.3424660000000017
                },
                {
                    "name": "C3",
                    "midi": 48,
                    "time": 223.630298000001,
                    "velocity": 0.31496062992125984,
                    "duration": 0.3424660000000017
                },
                {
                    "name": "E3",
                    "midi": 52,
                    "time": 223.972764000001,
                    "velocity": 0.31496062992125984,
                    "duration": 0.3424660000000017
                },
                {
                    "name": "G3",
                    "midi": 55,
                    "time": 224.315230000001,
                    "velocity": 0.31496062992125984,
                    "duration": 0.3424660000000017
                },
                {
                    "name": "C4",
                    "midi": 60,
                    "time": 224.657696000001,
                    "velocity": 0.33858267716535434,
                    "duration": 0.3424660000000017
                },
                {
                    "name": "C3",
                    "midi": 48,
                    "time": 225.000162000001,
                    "velocity": 0.31496062992125984,
                    "duration": 0.3424660000000017
                },
                {
                    "name": "G3",
                    "midi": 55,
                    "time": 225.342628000001,
                    "velocity": 0.33858267716535434,
                    "duration": 0.3424660000000017
                },
                {
                    "name": "G2",
                    "midi": 43,
                    "time": 225.68509400000102,
                    "velocity": 0.31496062992125984,
                    "duration": 0.3424660000000017
                },
                {
                    "name": "C3",
                    "midi": 48,
                    "time": 226.37002600000102,
                    "velocity": 0.31496062992125984,
                    "duration": 0.3424660000000017
                },
                {
                    "name": "E3",
                    "midi": 52,
                    "time": 226.71249200000102,
                    "velocity": 0.31496062992125984,
                    "duration": 0.3424660000000017
                },
                {
                    "name": "G3",
                    "midi": 55,
                    "time": 227.05495800000102,
                    "velocity": 0.33858267716535434,
                    "duration": 0.3424660000000017
                },
                {
                    "name": "C4",
                    "midi": 60,
                    "time": 227.39742400000102,
                    "velocity": 0.3464566929133858,
                    "duration": 0.3424660000000017
                },
                {
                    "name": "C3",
                    "midi": 48,
                    "time": 227.73989000000103,
                    "velocity": 0.3228346456692913,
                    "duration": 0.3424660000000017
                },
                {
                    "name": "G3",
                    "midi": 55,
                    "time": 228.08235600000103,
                    "velocity": 0.33858267716535434,
                    "duration": 0.3424660000000017
                },
                {
                    "name": "G2",
                    "midi": 43,
                    "time": 228.42482200000103,
                    "velocity": 0.3228346456692913,
                    "duration": 0.3424660000000017
                },
                {
                    "name": "A3",
                    "midi": 57,
                    "time": 228.76728800000103,
                    "velocity": 0.3700787401574803,
                    "duration": 0.3424660000000017
                },
                {
                    "name": "C4",
                    "midi": 60,
                    "time": 229.10975400000103,
                    "velocity": 0.36220472440944884,
                    "duration": 0.3424660000000017
                },
                {
                    "name": "G3",
                    "midi": 55,
                    "time": 229.45222000000103,
                    "velocity": 0.3858267716535433,
                    "duration": 0.3424660000000017
                },
                {
                    "name": "C4",
                    "midi": 60,
                    "time": 229.79468600000104,
                    "velocity": 0.3543307086614173,
                    "duration": 0.3424660000000017
                },
                {
                    "name": "F3",
                    "midi": 53,
                    "time": 230.13715200000104,
                    "velocity": 0.3858267716535433,
                    "duration": 0.3424660000000017
                },
                {
                    "name": "C4",
                    "midi": 60,
                    "time": 230.47961800000104,
                    "velocity": 0.3700787401574803,
                    "duration": 0.3424660000000017
                },
                {
                    "name": "E3",
                    "midi": 52,
                    "time": 230.82208400000104,
                    "velocity": 0.3937007874015748,
                    "duration": 0.3424660000000017
                },
                {
                    "name": "C4",
                    "midi": 60,
                    "time": 231.16455000000104,
                    "velocity": 0.36220472440944884,
                    "duration": 0.3424660000000017
                },
                {
                    "name": "G4",
                    "midi": 67,
                    "time": 231.84948200000105,
                    "velocity": 0.33858267716535434,
                    "duration": 0.3424660000000017
                },
                {
                    "name": "B3",
                    "midi": 59,
                    "time": 231.84948200000105,
                    "velocity": 0.33858267716535434,
                    "duration": 0.3424660000000017
                },
                {
                    "name": "G4",
                    "midi": 67,
                    "time": 232.53441400000105,
                    "velocity": 0.33858267716535434,
                    "duration": 0.3424660000000017
                },
                {
                    "name": "C4",
                    "midi": 60,
                    "time": 232.53441400000105,
                    "velocity": 0.33858267716535434,
                    "duration": 0.3424660000000017
                },
                {
                    "name": "B3",
                    "midi": 59,
                    "time": 232.87688000000105,
                    "velocity": 0.3464566929133858,
                    "duration": 0.6849320000000034
                },
                {
                    "name": "G3",
                    "midi": 55,
                    "time": 232.87688000000105,
                    "velocity": 0.3464566929133858,
                    "duration": 0.6849320000000034
                },
                {
                    "name": "C2",
                    "midi": 36,
                    "time": 234.24674400000106,
                    "velocity": 0.5039370078740157,
                    "duration": 0.17123300000000086
                },
                {
                    "name": "E2",
                    "midi": 40,
                    "time": 234.41797700000106,
                    "velocity": 0.4409448818897638,
                    "duration": 0.17123300000000086
                },
                {
                    "name": "G2",
                    "midi": 43,
                    "time": 234.58921000000106,
                    "velocity": 0.44881889763779526,
                    "duration": 0.17123300000000086
                },
                {
                    "name": "C3",
                    "midi": 48,
                    "time": 234.76044300000106,
                    "velocity": 0.4409448818897638,
                    "duration": 0.17123300000000086
                },
                {
                    "name": "E2",
                    "midi": 40,
                    "time": 234.93167600000106,
                    "velocity": 0.47244094488188976,
                    "duration": 0.17123300000000086
                },
                {
                    "name": "E3",
                    "midi": 52,
                    "time": 235.10290900000106,
                    "velocity": 0.44881889763779526,
                    "duration": 0.17123300000000086
                },
                {
                    "name": "G2",
                    "midi": 43,
                    "time": 235.27414200000106,
                    "velocity": 0.47244094488188976,
                    "duration": 0.17123300000000086
                },
                {
                    "name": "G3",
                    "midi": 55,
                    "time": 235.44537500000106,
                    "velocity": 0.44881889763779526,
                    "duration": 0.17123300000000086
                },
                {
                    "name": "C3",
                    "midi": 48,
                    "time": 235.61660800000107,
                    "velocity": 0.47244094488188976,
                    "duration": 0.17123300000000086
                },
                {
                    "name": "E3",
                    "midi": 52,
                    "time": 235.78784100000107,
                    "velocity": 0.4330708661417323,
                    "duration": 0.17123300000000086
                },
                {
                    "name": "G3",
                    "midi": 55,
                    "time": 235.95907400000107,
                    "velocity": 0.44881889763779526,
                    "duration": 0.17123300000000086
                },
                {
                    "name": "C4",
                    "midi": 60,
                    "time": 236.13030700000107,
                    "velocity": 0.4409448818897638,
                    "duration": 0.17123300000000086
                },
                {
                    "name": "G2",
                    "midi": 43,
                    "time": 236.30154000000107,
                    "velocity": 0.47244094488188976,
                    "duration": 0.17123300000000086
                },
                {
                    "name": "B2",
                    "midi": 47,
                    "time": 236.47277300000107,
                    "velocity": 0.44881889763779526,
                    "duration": 0.17123300000000086
                },
                {
                    "name": "D3",
                    "midi": 50,
                    "time": 236.64400600000107,
                    "velocity": 0.4645669291338583,
                    "duration": 0.17123300000000086
                },
                {
                    "name": "G3",
                    "midi": 55,
                    "time": 236.81523900000107,
                    "velocity": 0.44881889763779526,
                    "duration": 0.17123300000000086
                },
                {
                    "name": "C2",
                    "midi": 36,
                    "time": 236.98647200000107,
                    "velocity": 0.47244094488188976,
                    "duration": 0.17123300000000086
                },
                {
                    "name": "E2",
                    "midi": 40,
                    "time": 237.15770500000107,
                    "velocity": 0.4409448818897638,
                    "duration": 0.17123300000000086
                },
                {
                    "name": "G2",
                    "midi": 43,
                    "time": 237.32893800000107,
                    "velocity": 0.44881889763779526,
                    "duration": 0.17123300000000086
                },
                {
                    "name": "C3",
                    "midi": 48,
                    "time": 237.50017100000107,
                    "velocity": 0.4330708661417323,
                    "duration": 0.17123300000000086
                },
                {
                    "name": "E2",
                    "midi": 40,
                    "time": 237.67140400000108,
                    "velocity": 0.47244094488188976,
                    "duration": 0.17123300000000086
                },
                {
                    "name": "E3",
                    "midi": 52,
                    "time": 237.84263700000108,
                    "velocity": 0.44881889763779526,
                    "duration": 0.17123300000000086
                },
                {
                    "name": "G2",
                    "midi": 43,
                    "time": 238.01387000000108,
                    "velocity": 0.4566929133858268,
                    "duration": 0.17123300000000086
                },
                {
                    "name": "G3",
                    "midi": 55,
                    "time": 238.18510300000108,
                    "velocity": 0.44881889763779526,
                    "duration": 0.17123300000000086
                },
                {
                    "name": "C3",
                    "midi": 48,
                    "time": 238.35633600000108,
                    "velocity": 0.47244094488188976,
                    "duration": 0.17123300000000086
                },
                {
                    "name": "E3",
                    "midi": 52,
                    "time": 238.52756900000108,
                    "velocity": 0.4330708661417323,
                    "duration": 0.17123300000000086
                },
                {
                    "name": "G3",
                    "midi": 55,
                    "time": 238.69880200000108,
                    "velocity": 0.44881889763779526,
                    "duration": 0.17123300000000086
                },
                {
                    "name": "C4",
                    "midi": 60,
                    "time": 238.87003500000108,
                    "velocity": 0.4409448818897638,
                    "duration": 0.17123300000000086
                },
                {
                    "name": "G2",
                    "midi": 43,
                    "time": 239.04126800000108,
                    "velocity": 0.4881889763779528,
                    "duration": 0.17123300000000086
                },
                {
                    "name": "B2",
                    "midi": 47,
                    "time": 239.21250100000108,
                    "velocity": 0.4409448818897638,
                    "duration": 0.17123300000000086
                },
                {
                    "name": "D3",
                    "midi": 50,
                    "time": 239.38373400000108,
                    "velocity": 0.44881889763779526,
                    "duration": 0.17123300000000086
                },
                {
                    "name": "G3",
                    "midi": 55,
                    "time": 239.55496700000108,
                    "velocity": 0.4409448818897638,
                    "duration": 0.17123300000000086
                },
                {
                    "name": "A3",
                    "midi": 57,
                    "time": 239.72620000000109,
                    "velocity": 0.41732283464566927,
                    "duration": 0.17123300000000086
                },
                {
                    "name": "C4",
                    "midi": 60,
                    "time": 239.8974330000011,
                    "velocity": 0.3858267716535433,
                    "duration": 0.17123300000000086
                },
                {
                    "name": "A3",
                    "midi": 57,
                    "time": 240.0686660000011,
                    "velocity": 0.41732283464566927,
                    "duration": 0.17123300000000086
                },
                {
                    "name": "C4",
                    "midi": 60,
                    "time": 240.2398990000011,
                    "velocity": 0.3858267716535433,
                    "duration": 0.17123300000000086
                },
                {
                    "name": "G3",
                    "midi": 55,
                    "time": 240.4111320000011,
                    "velocity": 0.41732283464566927,
                    "duration": 0.17123300000000086
                },
                {
                    "name": "C4",
                    "midi": 60,
                    "time": 240.5823650000011,
                    "velocity": 0.3937007874015748,
                    "duration": 0.17123300000000086
                },
                {
                    "name": "G3",
                    "midi": 55,
                    "time": 240.7535980000011,
                    "velocity": 0.41732283464566927,
                    "duration": 0.17123300000000086
                },
                {
                    "name": "C4",
                    "midi": 60,
                    "time": 240.9248310000011,
                    "velocity": 0.3937007874015748,
                    "duration": 0.17123300000000086
                },
                {
                    "name": "F3",
                    "midi": 53,
                    "time": 241.0960640000011,
                    "velocity": 0.44881889763779526,
                    "duration": 0.17123300000000086
                },
                {
                    "name": "C4",
                    "midi": 60,
                    "time": 241.2672970000011,
                    "velocity": 0.41732283464566927,
                    "duration": 0.17123300000000086
                },
                {
                    "name": "F3",
                    "midi": 53,
                    "time": 241.4385300000011,
                    "velocity": 0.44881889763779526,
                    "duration": 0.17123300000000086
                },
                {
                    "name": "C4",
                    "midi": 60,
                    "time": 241.6097630000011,
                    "velocity": 0.41732283464566927,
                    "duration": 0.17123300000000086
                },
                {
                    "name": "E3",
                    "midi": 52,
                    "time": 241.7809960000011,
                    "velocity": 0.44881889763779526,
                    "duration": 0.17123300000000086
                },
                {
                    "name": "C4",
                    "midi": 60,
                    "time": 241.9522290000011,
                    "velocity": 0.41732283464566927,
                    "duration": 0.17123300000000086
                },
                {
                    "name": "E3",
                    "midi": 52,
                    "time": 242.1234620000011,
                    "velocity": 0.44881889763779526,
                    "duration": 0.17123300000000086
                },
                {
                    "name": "C4",
                    "midi": 60,
                    "time": 242.2946950000011,
                    "velocity": 0.4094488188976378,
                    "duration": 0.17123300000000086
                },
                {
                    "name": "D4",
                    "midi": 62,
                    "time": 242.8083940000011,
                    "velocity": 0.3858267716535433,
                    "duration": 0.17123300000000086
                },
                {
                    "name": "F3",
                    "midi": 53,
                    "time": 242.8083940000011,
                    "velocity": 0.3858267716535433,
                    "duration": 0.17123300000000086
                },
                {
                    "name": "E4",
                    "midi": 64,
                    "time": 243.1508600000011,
                    "velocity": 0.3858267716535433,
                    "duration": 0.3424660000000017
                },
                {
                    "name": "G3",
                    "midi": 55,
                    "time": 243.1508600000011,
                    "velocity": 0.3858267716535433,
                    "duration": 0.6849320000000034
                },
                {
                    "name": "D4",
                    "midi": 62,
                    "time": 243.4933260000011,
                    "velocity": 0.3858267716535433,
                    "duration": 0.3424660000000017
                },
                {
                    "name": "E4",
                    "midi": 64,
                    "time": 243.8357920000011,
                    "velocity": 0.3858267716535433,
                    "duration": 0.6849320000000034
                },
                {
                    "name": "C4",
                    "midi": 60,
                    "time": 243.8357920000011,
                    "velocity": 0.3858267716535433,
                    "duration": 0.6849320000000034
                },
                {
                    "name": "D4",
                    "midi": 62,
                    "time": 245.54812200000111,
                    "velocity": 0.2992125984251969,
                    "duration": 0.3424660000000017
                },
                {
                    "name": "F3",
                    "midi": 53,
                    "time": 245.54812200000111,
                    "velocity": 0.2992125984251969,
                    "duration": 0.3424660000000017
                },
                {
                    "name": "A3",
                    "midi": 57,
                    "time": 245.54812200000111,
                    "velocity": 0.2992125984251969,
                    "duration": 0.3424660000000017
                },
                {
                    "name": "C4",
                    "midi": 60,
                    "time": 245.89058800000112,
                    "velocity": 0.2992125984251969,
                    "duration": 0.3424660000000017
                },
                {
                    "name": "E4",
                    "midi": 64,
                    "time": 245.89058800000112,
                    "velocity": 0.2992125984251969,
                    "duration": 0.3424660000000017
                },
                {
                    "name": "G3",
                    "midi": 55,
                    "time": 245.89058800000112,
                    "velocity": 0.2992125984251969,
                    "duration": 0.6849320000000034
                },
                {
                    "name": "F4",
                    "midi": 65,
                    "time": 246.23305400000112,
                    "velocity": 0.3464566929133858,
                    "duration": 0.3424660000000017
                },
                {
                    "name": "D4",
                    "midi": 62,
                    "time": 246.23305400000112,
                    "velocity": 0.3464566929133858,
                    "duration": 0.3424660000000017
                },
                {
                    "name": "C4",
                    "midi": 60,
                    "time": 246.57552000000112,
                    "velocity": 0.3858267716535433,
                    "duration": 0.6849320000000034
                },
                {
                    "name": "E4",
                    "midi": 64,
                    "time": 246.57552000000112,
                    "velocity": 0.3858267716535433,
                    "duration": 0.6849320000000034
                },
                {
                    "name": "A3",
                    "midi": 57,
                    "time": 248.28785000000113,
                    "velocity": 0.2992125984251969,
                    "duration": 0.3424660000000017
                },
                {
                    "name": "D4",
                    "midi": 62,
                    "time": 248.28785000000113,
                    "velocity": 0.2992125984251969,
                    "duration": 0.3424660000000017
                },
                {
                    "name": "F3",
                    "midi": 53,
                    "time": 248.28785000000113,
                    "velocity": 0.2992125984251969,
                    "duration": 0.3424660000000017
                },
                {
                    "name": "C4",
                    "midi": 60,
                    "time": 248.63031600000113,
                    "velocity": 0.2992125984251969,
                    "duration": 0.3424660000000017
                },
                {
                    "name": "G3",
                    "midi": 55,
                    "time": 248.63031600000113,
                    "velocity": 0.2992125984251969,
                    "duration": 0.6849320000000034
                },
                {
                    "name": "E4",
                    "midi": 64,
                    "time": 248.63031600000113,
                    "velocity": 0.2992125984251969,
                    "duration": 0.3424660000000017
                },
                {
                    "name": "F4",
                    "midi": 65,
                    "time": 248.97278200000113,
                    "velocity": 0.31496062992125984,
                    "duration": 0.3424660000000017
                },
                {
                    "name": "D4",
                    "midi": 62,
                    "time": 248.97278200000113,
                    "velocity": 0.31496062992125984,
                    "duration": 0.3424660000000017
                },
                {
                    "name": "C4",
                    "midi": 60,
                    "time": 249.31524800000113,
                    "velocity": 0.2992125984251969,
                    "duration": 0.08561649999998622
                },
                {
                    "name": "E4",
                    "midi": 64,
                    "time": 249.31524800000113,
                    "velocity": 0.2992125984251969,
                    "duration": 0.08561649999998622
                },
                {
                    "name": "G3",
                    "midi": 55,
                    "time": 249.6577140000011,
                    "velocity": 0.2992125984251969,
                    "duration": 0.08561649999998622
                },
                {
                    "name": "C2",
                    "midi": 36,
                    "time": 250.00018000000108,
                    "velocity": 0.2992125984251969,
                    "duration": 0.6849320000000034
                },
                {
                    "name": "C3",
                    "midi": 48,
                    "time": 250.00018000000108,
                    "velocity": 0.2992125984251969,
                    "duration": 0.6849320000000034
                },
                {
                    "name": "C4",
                    "midi": 60,
                    "time": 250.68511200000108,
                    "velocity": 0.29133858267716534,
                    "duration": 0.17123300000000086
                },
                {
                    "name": "G4",
                    "midi": 67,
                    "time": 250.85634500000108,
                    "velocity": 0.23622047244094488,
                    "duration": 0.17123300000000086
                },
                {
                    "name": "F#4",
                    "midi": 66,
                    "time": 251.02757800000109,
                    "velocity": 0.25984251968503935,
                    "duration": 0.17123300000000086
                },
                {
                    "name": "G4",
                    "midi": 67,
                    "time": 251.1988110000011,
                    "velocity": 0.23622047244094488,
                    "duration": 0.17123300000000086
                },
                {
                    "name": "C4",
                    "midi": 60,
                    "time": 251.3700440000011,
                    "velocity": 0.29133858267716534,
                    "duration": 0.17123300000000086
                },
                {
                    "name": "G4",
                    "midi": 67,
                    "time": 251.5412770000011,
                    "velocity": 0.23622047244094488,
                    "duration": 0.17123300000000086
                },
                {
                    "name": "D4",
                    "midi": 62,
                    "time": 251.7125100000011,
                    "velocity": 0.25984251968503935,
                    "duration": 0.17123300000000086
                },
                {
                    "name": "G4",
                    "midi": 67,
                    "time": 251.8837430000011,
                    "velocity": 0.23622047244094488,
                    "duration": 0.17123300000000086
                },
                {
                    "name": "E4",
                    "midi": 64,
                    "time": 252.0549760000011,
                    "velocity": 0.29133858267716534,
                    "duration": 0.17123300000000086
                },
                {
                    "name": "G4",
                    "midi": 67,
                    "time": 252.2262090000011,
                    "velocity": 0.23622047244094488,
                    "duration": 0.17123300000000086
                },
                {
                    "name": "F4",
                    "midi": 65,
                    "time": 252.3974420000011,
                    "velocity": 0.25984251968503935,
                    "duration": 0.17123300000000086
                },
                {
                    "name": "G4",
                    "midi": 67,
                    "time": 252.5686750000011,
                    "velocity": 0.23622047244094488,
                    "duration": 0.17123300000000086
                },
                {
                    "name": "E4",
                    "midi": 64,
                    "time": 252.7399080000011,
                    "velocity": 0.29133858267716534,
                    "duration": 0.17123300000000086
                },
                {
                    "name": "G4",
                    "midi": 67,
                    "time": 252.9111410000011,
                    "velocity": 0.23622047244094488,
                    "duration": 0.17123300000000086
                },
                {
                    "name": "A#3",
                    "midi": 58,
                    "time": 253.0823740000011,
                    "velocity": 0.25984251968503935,
                    "duration": 0.17123300000000086
                },
                {
                    "name": "G4",
                    "midi": 67,
                    "time": 253.2536070000011,
                    "velocity": 0.2440944881889764,
                    "duration": 0.17123300000000086
                },
                {
                    "name": "B3",
                    "midi": 59,
                    "time": 253.4248400000011,
                    "velocity": 0.2992125984251969,
                    "duration": 0.17123300000000086
                },
                {
                    "name": "G4",
                    "midi": 67,
                    "time": 253.5960730000011,
                    "velocity": 0.2440944881889764,
                    "duration": 0.17123300000000086
                },
                {
                    "name": "B3",
                    "midi": 59,
                    "time": 253.7673060000011,
                    "velocity": 0.2755905511811024,
                    "duration": 0.17123300000000086
                },
                {
                    "name": "G4",
                    "midi": 67,
                    "time": 253.9385390000011,
                    "velocity": 0.25196850393700787,
                    "duration": 0.17123300000000086
                },
                {
                    "name": "C4",
                    "midi": 60,
                    "time": 254.1097720000011,
                    "velocity": 0.3228346456692913,
                    "duration": 0.17123300000000086
                },
                {
                    "name": "G4",
                    "midi": 67,
                    "time": 254.2810050000011,
                    "velocity": 0.25984251968503935,
                    "duration": 0.17123300000000086
                },
                {
                    "name": "D4",
                    "midi": 62,
                    "time": 254.4522380000011,
                    "velocity": 0.29133858267716534,
                    "duration": 0.17123300000000086
                },
                {
                    "name": "G4",
                    "midi": 67,
                    "time": 254.6234710000011,
                    "velocity": 0.25984251968503935,
                    "duration": 0.17123300000000086
                },
                {
                    "name": "C4",
                    "midi": 60,
                    "time": 254.7947040000011,
                    "velocity": 0.31496062992125984,
                    "duration": 0.17123300000000086
                },
                {
                    "name": "G4",
                    "midi": 67,
                    "time": 254.9659370000011,
                    "velocity": 0.23622047244094488,
                    "duration": 0.17123300000000086
                },
                {
                    "name": "F#4",
                    "midi": 66,
                    "time": 255.1371700000011,
                    "velocity": 0.25984251968503935,
                    "duration": 0.17123300000000086
                },
                {
                    "name": "G4",
                    "midi": 67,
                    "time": 255.3084030000011,
                    "velocity": 0.23622047244094488,
                    "duration": 0.17123300000000086
                },
                {
                    "name": "B3",
                    "midi": 59,
                    "time": 255.4796360000011,
                    "velocity": 0.29133858267716534,
                    "duration": 0.17123300000000086
                },
                {
                    "name": "G4",
                    "midi": 67,
                    "time": 255.6508690000011,
                    "velocity": 0.2440944881889764,
                    "duration": 0.17123300000000086
                },
                {
                    "name": "F#4",
                    "midi": 66,
                    "time": 255.8221020000011,
                    "velocity": 0.25984251968503935,
                    "duration": 0.17123300000000086
                },
                {
                    "name": "G4",
                    "midi": 67,
                    "time": 255.9933350000011,
                    "velocity": 0.25196850393700787,
                    "duration": 0.17123300000000086
                },
                {
                    "name": "B3",
                    "midi": 59,
                    "time": 256.1645680000011,
                    "velocity": 0.29133858267716534,
                    "duration": 0.17123299999997244
                },
                {
                    "name": "G4",
                    "midi": 67,
                    "time": 256.3358010000011,
                    "velocity": 0.2440944881889764,
                    "duration": 0.17123299999997244
                },
                {
                    "name": "F#4",
                    "midi": 66,
                    "time": 256.50703400000106,
                    "velocity": 0.25984251968503935,
                    "duration": 0.17123299999997244
                },
                {
                    "name": "G4",
                    "midi": 67,
                    "time": 256.67826700000103,
                    "velocity": 0.2440944881889764,
                    "duration": 0.17123299999997244
                },
                {
                    "name": "B3",
                    "midi": 59,
                    "time": 256.849500000001,
                    "velocity": 0.29133858267716534,
                    "duration": 0.17123299999997244
                },
                {
                    "name": "G4",
                    "midi": 67,
                    "time": 257.020733000001,
                    "velocity": 0.2440944881889764,
                    "duration": 0.17123299999997244
                },
                {
                    "name": "C4",
                    "midi": 60,
                    "time": 257.19196600000095,
                    "velocity": 0.25984251968503935,
                    "duration": 0.17123299999997244
                },
                {
                    "name": "G4",
                    "midi": 67,
                    "time": 257.3631990000009,
                    "velocity": 0.2440944881889764,
                    "duration": 0.17123299999997244
                },
                {
                    "name": "D4",
                    "midi": 62,
                    "time": 257.5344320000009,
                    "velocity": 0.29133858267716534,
                    "duration": 0.17123299999997244
                },
                {
                    "name": "G4",
                    "midi": 67,
                    "time": 257.70566500000086,
                    "velocity": 0.2440944881889764,
                    "duration": 0.17123299999997244
                },
                {
                    "name": "E4",
                    "midi": 64,
                    "time": 257.87689800000084,
                    "velocity": 0.25984251968503935,
                    "duration": 0.17123299999997244
                },
                {
                    "name": "G4",
                    "midi": 67,
                    "time": 258.0481310000008,
                    "velocity": 0.2440944881889764,
                    "duration": 0.17123299999997244
                },
                {
                    "name": "F4",
                    "midi": 65,
                    "time": 258.2193640000008,
                    "velocity": 0.29133858267716534,
                    "duration": 0.17123299999997244
                },
                {
                    "name": "G4",
                    "midi": 67,
                    "time": 258.39059700000075,
                    "velocity": 0.25196850393700787,
                    "duration": 0.17123299999997244
                },
                {
                    "name": "D4",
                    "midi": 62,
                    "time": 258.5618300000007,
                    "velocity": 0.2677165354330709,
                    "duration": 0.17123299999997244
                },
                {
                    "name": "G4",
                    "midi": 67,
                    "time": 258.7330630000007,
                    "velocity": 0.2440944881889764,
                    "duration": 0.17123299999997244
                },
                {
                    "name": "B3",
                    "midi": 59,
                    "time": 258.90429600000067,
                    "velocity": 0.31496062992125984,
                    "duration": 0.17123299999997244
                },
                {
                    "name": "G4",
                    "midi": 67,
                    "time": 259.07552900000064,
                    "velocity": 0.2440944881889764,
                    "duration": 0.17123299999997244
                },
                {
                    "name": "D4",
                    "midi": 62,
                    "time": 259.2467620000006,
                    "velocity": 0.2677165354330709,
                    "duration": 0.17123299999997244
                },
                {
                    "name": "G4",
                    "midi": 67,
                    "time": 259.4179950000006,
                    "velocity": 0.2440944881889764,
                    "duration": 0.17123299999997244
                },
                {
                    "name": "B3",
                    "midi": 59,
                    "time": 259.58922800000056,
                    "velocity": 0.36220472440944884,
                    "duration": 0.17123299999997244
                },
                {
                    "name": "G4",
                    "midi": 67,
                    "time": 259.76046100000053,
                    "velocity": 0.2755905511811024,
                    "duration": 0.17123299999997244
                },
                {
                    "name": "G3",
                    "midi": 55,
                    "time": 259.9316940000005,
                    "velocity": 0.29133858267716534,
                    "duration": 0.17123299999997244
                },
                {
                    "name": "G4",
                    "midi": 67,
                    "time": 260.1029270000005,
                    "velocity": 0.2755905511811024,
                    "duration": 0.17123299999997244
                },
                {
                    "name": "C4",
                    "midi": 60,
                    "time": 260.27416000000045,
                    "velocity": 0.3464566929133858,
                    "duration": 0.17123299999997244
                },
                {
                    "name": "G4",
                    "midi": 67,
                    "time": 260.4453930000004,
                    "velocity": 0.29133858267716534,
                    "duration": 0.17123299999997244
                },
                {
                    "name": "F4",
                    "midi": 65,
                    "time": 260.6166260000004,
                    "velocity": 0.31496062992125984,
                    "duration": 0.17123299999997244
                },
                {
                    "name": "G4",
                    "midi": 67,
                    "time": 260.78785900000037,
                    "velocity": 0.29133858267716534,
                    "duration": 0.17123299999997244
                },
                {
                    "name": "C4",
                    "midi": 60,
                    "time": 260.95909200000034,
                    "velocity": 0.3464566929133858,
                    "duration": 0.17123299999997244
                },
                {
                    "name": "G4",
                    "midi": 67,
                    "time": 261.1303250000003,
                    "velocity": 0.29133858267716534,
                    "duration": 0.17123299999997244
                },
                {
                    "name": "E4",
                    "midi": 64,
                    "time": 261.3015580000003,
                    "velocity": 0.31496062992125984,
                    "duration": 0.17123299999997244
                },
                {
                    "name": "G4",
                    "midi": 67,
                    "time": 261.47279100000026,
                    "velocity": 0.29133858267716534,
                    "duration": 0.17123299999997244
                },
                {
                    "name": "C3",
                    "midi": 48,
                    "time": 261.64402400000023,
                    "velocity": 0.3779527559055118,
                    "duration": 0.11415533333331496
                },
                {
                    "name": "E3",
                    "midi": 52,
                    "time": 261.75817933333354,
                    "velocity": 0.33858267716535434,
                    "duration": 0.11415533333331496
                },
                {
                    "name": "G3",
                    "midi": 55,
                    "time": 261.87233466666686,
                    "velocity": 0.3228346456692913,
                    "duration": 0.11415533333331496
                },
                {
                    "name": "C4",
                    "midi": 60,
                    "time": 261.9864900000002,
                    "velocity": 0.36220472440944884,
                    "duration": 0.3424660000000017
                },
                {
                    "name": "F2",
                    "midi": 41,
                    "time": 263.0138880000002,
                    "velocity": 0.3779527559055118,
                    "duration": 0.11415533333331496
                },
                {
                    "name": "A2",
                    "midi": 45,
                    "time": 263.1280433333335,
                    "velocity": 0.33858267716535434,
                    "duration": 0.11415533333331496
                },
                {
                    "name": "C3",
                    "midi": 48,
                    "time": 263.2421986666668,
                    "velocity": 0.3228346456692913,
                    "duration": 0.11415533333331496
                },
                {
                    "name": "F3",
                    "midi": 53,
                    "time": 263.3563540000001,
                    "velocity": 0.3779527559055118,
                    "duration": 0.3424660000000017
                },
                {
                    "name": "A2",
                    "midi": 45,
                    "time": 264.38375200000013,
                    "velocity": 0.3779527559055118,
                    "duration": 0.11415533333331496
                },
                {
                    "name": "C#3",
                    "midi": 49,
                    "time": 264.49790733333344,
                    "velocity": 0.33858267716535434,
                    "duration": 0.11415533333331496
                },
                {
                    "name": "E3",
                    "midi": 52,
                    "time": 264.61206266666676,
                    "velocity": 0.31496062992125984,
                    "duration": 0.11415533333331496
                },
                {
                    "name": "A3",
                    "midi": 57,
                    "time": 264.7262180000001,
                    "velocity": 0.3779527559055118,
                    "duration": 0.3424660000000017
                },
                {
                    "name": "D3",
                    "midi": 50,
                    "time": 265.7536160000001,
                    "velocity": 0.3779527559055118,
                    "duration": 0.11415533333331496
                },
                {
                    "name": "F#3",
                    "midi": 54,
                    "time": 265.8677713333334,
                    "velocity": 0.33858267716535434,
                    "duration": 0.11415533333331496
                },
                {
                    "name": "A3",
                    "midi": 57,
                    "time": 265.9819266666667,
                    "velocity": 0.31496062992125984,
                    "duration": 0.11415533333331496
                },
                {
                    "name": "D4",
                    "midi": 62,
                    "time": 266.096082,
                    "velocity": 0.3779527559055118,
                    "duration": 0.3424660000000017
                },
                {
                    "name": "B2",
                    "midi": 47,
                    "time": 267.12348000000003,
                    "velocity": 0.3779527559055118,
                    "duration": 0.11415533333331496
                },
                {
                    "name": "D3",
                    "midi": 50,
                    "time": 267.23763533333334,
                    "velocity": 0.33858267716535434,
                    "duration": 0.11415533333331496
                },
                {
                    "name": "G3",
                    "midi": 55,
                    "time": 267.35179066666666,
                    "velocity": 0.31496062992125984,
                    "duration": 0.11415533333331496
                },
                {
                    "name": "B3",
                    "midi": 59,
                    "time": 267.465946,
                    "velocity": 0.3779527559055118,
                    "duration": 0.3424660000000017
                },
                {
                    "name": "C3",
                    "midi": 48,
                    "time": 268.493344,
                    "velocity": 0.3779527559055118,
                    "duration": 0.11415533333331496
                },
                {
                    "name": "E3",
                    "midi": 52,
                    "time": 268.6074993333333,
                    "velocity": 0.33858267716535434,
                    "duration": 0.11415533333331496
                },
                {
                    "name": "G3",
                    "midi": 55,
                    "time": 268.7216546666666,
                    "velocity": 0.31496062992125984,
                    "duration": 0.11415533333331496
                },
                {
                    "name": "C4",
                    "midi": 60,
                    "time": 268.8358099999999,
                    "velocity": 0.3779527559055118,
                    "duration": 0.3424660000000017
                },
                {
                    "name": "F3",
                    "midi": 53,
                    "time": 269.86320799999993,
                    "velocity": 0.3937007874015748,
                    "duration": 0.3424660000000017
                },
                {
                    "name": "A3",
                    "midi": 57,
                    "time": 269.86320799999993,
                    "velocity": 0.3937007874015748,
                    "duration": 0.3424660000000017
                },
                {
                    "name": "A3",
                    "midi": 57,
                    "time": 270.54813999999993,
                    "velocity": 0.4094488188976378,
                    "duration": 0.3424660000000017
                },
                {
                    "name": "F#3",
                    "midi": 54,
                    "time": 270.54813999999993,
                    "velocity": 0.4094488188976378,
                    "duration": 0.3424660000000017
                },
                {
                    "name": "G3",
                    "midi": 55,
                    "time": 271.23307199999994,
                    "velocity": 0.44881889763779526,
                    "duration": 0.08561650000001464
                },
                {
                    "name": "G4",
                    "midi": 67,
                    "time": 271.40430499999997,
                    "velocity": 0.31496062992125984,
                    "duration": 0.17123299999997244
                },
                {
                    "name": "F#4",
                    "midi": 66,
                    "time": 271.57553799999994,
                    "velocity": 0.3464566929133858,
                    "duration": 0.17123299999997244
                },
                {
                    "name": "G4",
                    "midi": 67,
                    "time": 271.7467709999999,
                    "velocity": 0.31496062992125984,
                    "duration": 0.17123299999997244
                },
                {
                    "name": "F#4",
                    "midi": 66,
                    "time": 271.9180039999999,
                    "velocity": 0.3464566929133858,
                    "duration": 0.17123299999997244
                },
                {
                    "name": "G4",
                    "midi": 67,
                    "time": 272.08923699999986,
                    "velocity": 0.3228346456692913,
                    "duration": 0.17123299999997244
                },
                {
                    "name": "F4",
                    "midi": 65,
                    "time": 272.2604699999998,
                    "velocity": 0.3464566929133858,
                    "duration": 0.17123299999997244
                },
                {
                    "name": "G4",
                    "midi": 67,
                    "time": 272.4317029999998,
                    "velocity": 0.31496062992125984,
                    "duration": 0.17123299999997244
                },
                {
                    "name": "E4",
                    "midi": 64,
                    "time": 272.6029359999998,
                    "velocity": 0.3858267716535433,
                    "duration": 0.17123299999997244
                },
                {
                    "name": "G4",
                    "midi": 67,
                    "time": 272.77416899999974,
                    "velocity": 0.31496062992125984,
                    "duration": 0.17123299999997244
                },
                {
                    "name": "C4",
                    "midi": 60,
                    "time": 272.9454019999997,
                    "velocity": 0.2755905511811024,
                    "duration": 0.17123299999997244
                },
                {
                    "name": "G4",
                    "midi": 67,
                    "time": 273.1166349999997,
                    "velocity": 0.23622047244094488,
                    "duration": 0.17123299999997244
                },
                {
                    "name": "E4",
                    "midi": 64,
                    "time": 273.28786799999966,
                    "velocity": 0.29133858267716534,
                    "duration": 0.17123299999997244
                },
                {
                    "name": "G4",
                    "midi": 67,
                    "time": 273.45910099999963,
                    "velocity": 0.2440944881889764,
                    "duration": 0.17123299999997244
                },
                {
                    "name": "C4",
                    "midi": 60,
                    "time": 273.6303339999996,
                    "velocity": 0.2755905511811024,
                    "duration": 0.17123299999997244
                },
                {
                    "name": "G4",
                    "midi": 67,
                    "time": 273.8015669999996,
                    "velocity": 0.2440944881889764,
                    "duration": 0.17123299999997244
                },
                {
                    "name": "D4",
                    "midi": 62,
                    "time": 273.97279999999955,
                    "velocity": 0.29133858267716534,
                    "duration": 0.17123299999997244
                },
                {
                    "name": "G4",
                    "midi": 67,
                    "time": 274.1440329999995,
                    "velocity": 0.2677165354330709,
                    "duration": 0.17123299999997244
                },
                {
                    "name": "C4",
                    "midi": 60,
                    "time": 274.3152659999995,
                    "velocity": 0.29133858267716534,
                    "duration": 0.17123299999997244
                },
                {
                    "name": "G4",
                    "midi": 67,
                    "time": 274.48649899999947,
                    "velocity": 0.2677165354330709,
                    "duration": 0.17123299999997244
                },
                {
                    "name": "B3",
                    "midi": 59,
                    "time": 274.65773199999944,
                    "velocity": 0.29133858267716534,
                    "duration": 0.17123299999997244
                },
                {
                    "name": "G4",
                    "midi": 67,
                    "time": 274.8289649999994,
                    "velocity": 0.2677165354330709,
                    "duration": 0.17123299999997244
                },
                {
                    "name": "G3",
                    "midi": 55,
                    "time": 275.0001979999994,
                    "velocity": 0.29133858267716534,
                    "duration": 0.17123299999997244
                },
                {
                    "name": "G4",
                    "midi": 67,
                    "time": 275.17143099999936,
                    "velocity": 0.2677165354330709,
                    "duration": 0.17123299999997244
                },
                {
                    "name": "C4",
                    "midi": 60,
                    "time": 275.34266399999933,
                    "velocity": 0.2992125984251969,
                    "duration": 0.17123299999997244
                },
                {
                    "name": "G4",
                    "midi": 67,
                    "time": 275.5138969999993,
                    "velocity": 0.2440944881889764,
                    "duration": 0.17123299999997244
                },
                {
                    "name": "F#4",
                    "midi": 66,
                    "time": 275.6851299999993,
                    "velocity": 0.2677165354330709,
                    "duration": 0.17123299999997244
                },
                {
                    "name": "G4",
                    "midi": 67,
                    "time": 275.85636299999925,
                    "velocity": 0.2440944881889764,
                    "duration": 0.17123299999997244
                },
                {
                    "name": "F#4",
                    "midi": 66,
                    "time": 276.0275959999992,
                    "velocity": 0.30708661417322836,
                    "duration": 0.17123299999997244
                },
                {
                    "name": "G4",
                    "midi": 67,
                    "time": 276.1988289999992,
                    "velocity": 0.3228346456692913,
                    "duration": 0.17123299999997244
                },
                {
                    "name": "A4",
                    "midi": 69,
                    "time": 276.37006199999917,
                    "velocity": 0.3464566929133858,
                    "duration": 0.17123299999997244
                },
                {
                    "name": "G4",
                    "midi": 67,
                    "time": 276.54129499999914,
                    "velocity": 0.3228346456692913,
                    "duration": 0.17123299999997244
                },
                {
                    "name": "F4",
                    "midi": 65,
                    "time": 276.7125279999991,
                    "velocity": 0.3858267716535433,
                    "duration": 0.17123299999997244
                },
                {
                    "name": "G4",
                    "midi": 67,
                    "time": 276.8837609999991,
                    "velocity": 0.3700787401574803,
                    "duration": 0.17123299999997244
                },
                {
                    "name": "E4",
                    "midi": 64,
                    "time": 277.05499399999906,
                    "velocity": 0.3858267716535433,
                    "duration": 0.17123299999997244
                },
                {
                    "name": "G4",
                    "midi": 67,
                    "time": 277.226226999999,
                    "velocity": 0.3543307086614173,
                    "duration": 0.17123299999997244
                },
                {
                    "name": "F4",
                    "midi": 65,
                    "time": 277.397459999999,
                    "velocity": 0.3858267716535433,
                    "duration": 0.17123299999997244
                },
                {
                    "name": "G4",
                    "midi": 67,
                    "time": 277.568692999999,
                    "velocity": 0.36220472440944884,
                    "duration": 0.17123299999997244
                },
                {
                    "name": "D4",
                    "midi": 62,
                    "time": 277.73992599999895,
                    "velocity": 0.3858267716535433,
                    "duration": 0.17123299999997244
                },
                {
                    "name": "G4",
                    "midi": 67,
                    "time": 277.9111589999989,
                    "velocity": 0.36220472440944884,
                    "duration": 0.17123299999997244
                },
                {
                    "name": "E4",
                    "midi": 64,
                    "time": 278.0823919999989,
                    "velocity": 0.3858267716535433,
                    "duration": 0.17123299999997244
                },
                {
                    "name": "G4",
                    "midi": 67,
                    "time": 278.25362499999886,
                    "velocity": 0.3228346456692913,
                    "duration": 0.17123299999997244
                },
                {
                    "name": "C4",
                    "midi": 60,
                    "time": 278.42485799999884,
                    "velocity": 0.2755905511811024,
                    "duration": 0.17123299999997244
                },
                {
                    "name": "G4",
                    "midi": 67,
                    "time": 278.5960909999988,
                    "velocity": 0.2440944881889764,
                    "duration": 0.17123299999997244
                },
                {
                    "name": "E4",
                    "midi": 64,
                    "time": 278.7673239999988,
                    "velocity": 0.29133858267716534,
                    "duration": 0.17123299999997244
                },
                {
                    "name": "G4",
                    "midi": 67,
                    "time": 278.93855699999875,
                    "velocity": 0.2440944881889764,
                    "duration": 0.17123299999997244
                },
                {
                    "name": "C4",
                    "midi": 60,
                    "time": 279.1097899999987,
                    "velocity": 0.2755905511811024,
                    "duration": 0.17123299999997244
                },
                {
                    "name": "G4",
                    "midi": 67,
                    "time": 279.2810229999987,
                    "velocity": 0.2440944881889764,
                    "duration": 0.17123299999997244
                },
                {
                    "name": "D4",
                    "midi": 62,
                    "time": 279.45225599999867,
                    "velocity": 0.29133858267716534,
                    "duration": 0.17123299999997244
                },
                {
                    "name": "G4",
                    "midi": 67,
                    "time": 279.62348899999864,
                    "velocity": 0.2677165354330709,
                    "duration": 0.17123299999997244
                },
                {
                    "name": "C4",
                    "midi": 60,
                    "time": 279.7947219999986,
                    "velocity": 0.29133858267716534,
                    "duration": 0.17123299999997244
                },
                {
                    "name": "G4",
                    "midi": 67,
                    "time": 279.9659549999986,
                    "velocity": 0.2677165354330709,
                    "duration": 0.17123299999997244
                },
                {
                    "name": "B3",
                    "midi": 59,
                    "time": 280.13718799999856,
                    "velocity": 0.29133858267716534,
                    "duration": 0.17123299999997244
                },
                {
                    "name": "G4",
                    "midi": 67,
                    "time": 280.30842099999853,
                    "velocity": 0.2677165354330709,
                    "duration": 0.17123299999997244
                },
                {
                    "name": "G3",
                    "midi": 55,
                    "time": 280.4796539999985,
                    "velocity": 0.29133858267716534,
                    "duration": 0.17123299999997244
                },
                {
                    "name": "G4",
                    "midi": 67,
                    "time": 280.6508869999985,
                    "velocity": 0.2677165354330709,
                    "duration": 0.17123299999997244
                },
                {
                    "name": "C4",
                    "midi": 60,
                    "time": 280.82211999999845,
                    "velocity": 0.2677165354330709,
                    "duration": 0.17123299999997244
                },
                {
                    "name": "G4",
                    "midi": 67,
                    "time": 280.9933529999984,
                    "velocity": 0.25196850393700787,
                    "duration": 0.17123299999997244
                },
                {
                    "name": "E4",
                    "midi": 64,
                    "time": 281.1645859999984,
                    "velocity": 0.25196850393700787,
                    "duration": 0.17123299999997244
                },
                {
                    "name": "G4",
                    "midi": 67,
                    "time": 281.33581899999837,
                    "velocity": 0.25196850393700787,
                    "duration": 0.17123299999997244
                },
                {
                    "name": "C4",
                    "midi": 60,
                    "time": 281.50705199999834,
                    "velocity": 0.29133858267716534,
                    "duration": 0.17123299999997244
                },
                {
                    "name": "A4",
                    "midi": 69,
                    "time": 281.6782849999983,
                    "velocity": 0.2283464566929134,
                    "duration": 0.17123299999997244
                },
                {
                    "name": "F4",
                    "midi": 65,
                    "time": 281.8495179999983,
                    "velocity": 0.25196850393700787,
                    "duration": 0.17123299999997244
                },
                {
                    "name": "A4",
                    "midi": 69,
                    "time": 282.02075099999826,
                    "velocity": 0.2283464566929134,
                    "duration": 0.17123299999997244
                },
                {
                    "name": "C4",
                    "midi": 60,
                    "time": 282.19198399999823,
                    "velocity": 0.25196850393700787,
                    "duration": 0.17123299999997244
                },
                {
                    "name": "G4",
                    "midi": 67,
                    "time": 282.3632169999982,
                    "velocity": 0.23622047244094488,
                    "duration": 0.17123299999997244
                },
                {
                    "name": "E4",
                    "midi": 64,
                    "time": 282.5344499999982,
                    "velocity": 0.25196850393700787,
                    "duration": 0.17123299999997244
                },
                {
                    "name": "G4",
                    "midi": 67,
                    "time": 282.70568299999815,
                    "velocity": 0.2440944881889764,
                    "duration": 0.17123299999997244
                },
                {
                    "name": "A#3",
                    "midi": 58,
                    "time": 282.8769159999981,
                    "velocity": 0.25196850393700787,
                    "duration": 0.17123299999997244
                },
                {
                    "name": "F4",
                    "midi": 65,
                    "time": 283.0481489999981,
                    "velocity": 0.23622047244094488,
                    "duration": 0.17123299999997244
                },
                {
                    "name": "D4",
                    "midi": 62,
                    "time": 283.21938199999806,
                    "velocity": 0.25196850393700787,
                    "duration": 0.17123299999997244
                },
                {
                    "name": "F4",
                    "midi": 65,
                    "time": 283.39061499999804,
                    "velocity": 0.23622047244094488,
                    "duration": 0.17123299999997244
                },
                {
                    "name": "A3",
                    "midi": 57,
                    "time": 283.561847999998,
                    "velocity": 0.25196850393700787,
                    "duration": 0.17123299999997244
                },
                {
                    "name": "F4",
                    "midi": 65,
                    "time": 283.733080999998,
                    "velocity": 0.23622047244094488,
                    "duration": 0.17123299999997244
                },
                {
                    "name": "C4",
                    "midi": 60,
                    "time": 283.90431399999795,
                    "velocity": 0.25196850393700787,
                    "duration": 0.17123299999997244
                },
                {
                    "name": "F4",
                    "midi": 65,
                    "time": 284.0755469999979,
                    "velocity": 0.23622047244094488,
                    "duration": 0.17123299999997244
                },
                {
                    "name": "F3",
                    "midi": 53,
                    "time": 284.2467799999979,
                    "velocity": 0.31496062992125984,
                    "duration": 0.17123299999997244
                },
                {
                    "name": "D4",
                    "midi": 62,
                    "time": 284.41801299999787,
                    "velocity": 0.2677165354330709,
                    "duration": 0.17123299999997244
                },
                {
                    "name": "A3",
                    "midi": 57,
                    "time": 284.58924599999784,
                    "velocity": 0.31496062992125984,
                    "duration": 0.17123299999997244
                },
                {
                    "name": "D4",
                    "midi": 62,
                    "time": 284.7604789999978,
                    "velocity": 0.25984251968503935,
                    "duration": 0.17123299999997244
                },
                {
                    "name": "G3",
                    "midi": 55,
                    "time": 284.9317119999978,
                    "velocity": 0.30708661417322836,
                    "duration": 0.17123299999997244
                },
                {
                    "name": "E4",
                    "midi": 64,
                    "time": 285.10294499999776,
                    "velocity": 0.2677165354330709,
                    "duration": 0.17123299999997244
                },
                {
                    "name": "C4",
                    "midi": 60,
                    "time": 285.27417799999773,
                    "velocity": 0.30708661417322836,
                    "duration": 0.17123299999997244
                },
                {
                    "name": "E4",
                    "midi": 64,
                    "time": 285.4454109999977,
                    "velocity": 0.2677165354330709,
                    "duration": 0.17123299999997244
                },
                {
                    "name": "G3",
                    "midi": 55,
                    "time": 285.6166439999977,
                    "velocity": 0.30708661417322836,
                    "duration": 0.17123299999997244
                },
                {
                    "name": "F4",
                    "midi": 65,
                    "time": 285.78787699999765,
                    "velocity": 0.2677165354330709,
                    "duration": 0.17123299999997244
                },
                {
                    "name": "B3",
                    "midi": 59,
                    "time": 285.9591099999976,
                    "velocity": 0.2992125984251969,
                    "duration": 0.17123299999997244
                },
                {
                    "name": "F4",
                    "midi": 65,
                    "time": 286.1303429999976,
                    "velocity": 0.25984251968503935,
                    "duration": 0.17123299999997244
                },
                {
                    "name": "C3",
                    "midi": 48,
                    "time": 286.30157599999757,
                    "velocity": 0.31496062992125984,
                    "duration": 0.17123299999997244
                },
                {
                    "name": "G3",
                    "midi": 55,
                    "time": 286.47280899999754,
                    "velocity": 0.2755905511811024,
                    "duration": 0.17123299999997244
                },
                {
                    "name": "E3",
                    "midi": 52,
                    "time": 286.6440419999975,
                    "velocity": 0.31496062992125984,
                    "duration": 0.17123299999997244
                },
                {
                    "name": "G3",
                    "midi": 55,
                    "time": 286.8152749999975,
                    "velocity": 0.2677165354330709,
                    "duration": 0.17123299999997244
                },
                {
                    "name": "C3",
                    "midi": 48,
                    "time": 286.98650799999746,
                    "velocity": 0.25196850393700787,
                    "duration": 0.17123299999997244
                },
                {
                    "name": "A3",
                    "midi": 57,
                    "time": 287.15774099999743,
                    "velocity": 0.23622047244094488,
                    "duration": 0.17123299999997244
                },
                {
                    "name": "F3",
                    "midi": 53,
                    "time": 287.3289739999974,
                    "velocity": 0.25196850393700787,
                    "duration": 0.17123299999997244
                },
                {
                    "name": "A3",
                    "midi": 57,
                    "time": 287.5002069999974,
                    "velocity": 0.23622047244094488,
                    "duration": 0.17123299999997244
                },
                {
                    "name": "C3",
                    "midi": 48,
                    "time": 287.67143999999735,
                    "velocity": 0.25196850393700787,
                    "duration": 0.17123299999997244
                },
                {
                    "name": "G3",
                    "midi": 55,
                    "time": 287.8426729999973,
                    "velocity": 0.23622047244094488,
                    "duration": 0.17123299999997244
                },
                {
                    "name": "E3",
                    "midi": 52,
                    "time": 288.0139059999973,
                    "velocity": 0.25196850393700787,
                    "duration": 0.17123299999997244
                },
                {
                    "name": "G3",
                    "midi": 55,
                    "time": 288.18513899999726,
                    "velocity": 0.23622047244094488,
                    "duration": 0.17123299999997244
                },
                {
                    "name": "A#2",
                    "midi": 46,
                    "time": 288.35637199999724,
                    "velocity": 0.25196850393700787,
                    "duration": 0.17123299999997244
                },
                {
                    "name": "F3",
                    "midi": 53,
                    "time": 288.5276049999972,
                    "velocity": 0.2283464566929134,
                    "duration": 0.17123299999997244
                },
                {
                    "name": "D3",
                    "midi": 50,
                    "time": 288.6988379999972,
                    "velocity": 0.25196850393700787,
                    "duration": 0.17123299999997244
                },
                {
                    "name": "F3",
                    "midi": 53,
                    "time": 288.87007099999715,
                    "velocity": 0.2283464566929134,
                    "duration": 0.17123299999997244
                },
                {
                    "name": "A2",
                    "midi": 45,
                    "time": 289.0413039999971,
                    "velocity": 0.2677165354330709,
                    "duration": 0.17123299999997244
                },
                {
                    "name": "F3",
                    "midi": 53,
                    "time": 289.2125369999971,
                    "velocity": 0.23622047244094488,
                    "duration": 0.17123299999997244
                },
                {
                    "name": "C3",
                    "midi": 48,
                    "time": 289.38376999999707,
                    "velocity": 0.25984251968503935,
                    "duration": 0.17123299999997244
                },
                {
                    "name": "F3",
                    "midi": 53,
                    "time": 289.55500299999704,
                    "velocity": 0.2283464566929134,
                    "duration": 0.17123299999997244
                },
                {
                    "name": "F2",
                    "midi": 41,
                    "time": 289.726235999997,
                    "velocity": 0.3228346456692913,
                    "duration": 0.17123299999997244
                },
                {
                    "name": "D3",
                    "midi": 50,
                    "time": 289.897468999997,
                    "velocity": 0.2992125984251969,
                    "duration": 0.17123299999997244
                },
                {
                    "name": "A2",
                    "midi": 45,
                    "time": 290.06870199999696,
                    "velocity": 0.31496062992125984,
                    "duration": 0.17123299999997244
                },
                {
                    "name": "D3",
                    "midi": 50,
                    "time": 290.23993499999693,
                    "velocity": 0.29133858267716534,
                    "duration": 0.17123299999997244
                },
                {
                    "name": "G2",
                    "midi": 43,
                    "time": 290.4111679999969,
                    "velocity": 0.31496062992125984,
                    "duration": 0.17123299999997244
                },
                {
                    "name": "E3",
                    "midi": 52,
                    "time": 290.5824009999969,
                    "velocity": 0.29133858267716534,
                    "duration": 0.17123299999997244
                },
                {
                    "name": "C3",
                    "midi": 48,
                    "time": 290.75363399999685,
                    "velocity": 0.30708661417322836,
                    "duration": 0.17123299999997244
                },
                {
                    "name": "E3",
                    "midi": 52,
                    "time": 290.9248669999968,
                    "velocity": 0.25196850393700787,
                    "duration": 0.17123299999997244
                },
                {
                    "name": "G2",
                    "midi": 43,
                    "time": 291.0960999999968,
                    "velocity": 0.2992125984251969,
                    "duration": 0.17123299999997244
                },
                {
                    "name": "F3",
                    "midi": 53,
                    "time": 291.26733299999677,
                    "velocity": 0.25984251968503935,
                    "duration": 0.17123299999997244
                },
                {
                    "name": "D3",
                    "midi": 50,
                    "time": 291.43856599999674,
                    "velocity": 0.2992125984251969,
                    "duration": 0.17123299999997244
                },
                {
                    "name": "F3",
                    "midi": 53,
                    "time": 291.6097989999967,
                    "velocity": 0.25196850393700787,
                    "duration": 0.17123299999997244
                },
                {
                    "name": "C3",
                    "midi": 48,
                    "time": 292.1234979999967,
                    "velocity": 0.2992125984251969,
                    "duration": 0.3424660000000017
                },
                {
                    "name": "E3",
                    "midi": 52,
                    "time": 292.1234979999967,
                    "velocity": 0.2992125984251969,
                    "duration": 0.3424660000000017
                },
                {
                    "name": "D3",
                    "midi": 50,
                    "time": 292.4659639999967,
                    "velocity": 0.3464566929133858,
                    "duration": 0.3424660000000017
                },
                {
                    "name": "F3",
                    "midi": 53,
                    "time": 292.4659639999967,
                    "velocity": 0.3464566929133858,
                    "duration": 0.3424660000000017
                },
                {
                    "name": "G3",
                    "midi": 55,
                    "time": 292.8084299999967,
                    "velocity": 0.3858267716535433,
                    "duration": 0.3424660000000017
                },
                {
                    "name": "E3",
                    "midi": 52,
                    "time": 292.8084299999967,
                    "velocity": 0.3858267716535433,
                    "duration": 0.3424660000000017
                },
                {
                    "name": "G2",
                    "midi": 43,
                    "time": 293.4933619999967,
                    "velocity": 0.29133858267716534,
                    "duration": 0.3424660000000017
                },
                {
                    "name": "B2",
                    "midi": 47,
                    "time": 293.4933619999967,
                    "velocity": 0.29133858267716534,
                    "duration": 0.3424660000000017
                },
                {
                    "name": "A2",
                    "midi": 45,
                    "time": 293.8358279999967,
                    "velocity": 0.31496062992125984,
                    "duration": 0.3424660000000017
                },
                {
                    "name": "C3",
                    "midi": 48,
                    "time": 293.8358279999967,
                    "velocity": 0.31496062992125984,
                    "duration": 0.3424660000000017
                },
                {
                    "name": "B2",
                    "midi": 47,
                    "time": 294.1782939999967,
                    "velocity": 0.3464566929133858,
                    "duration": 0.3424660000000017
                },
                {
                    "name": "D3",
                    "midi": 50,
                    "time": 294.1782939999967,
                    "velocity": 0.3464566929133858,
                    "duration": 0.3424660000000017
                },
                {
                    "name": "C3",
                    "midi": 48,
                    "time": 294.8632259999967,
                    "velocity": 0.2992125984251969,
                    "duration": 0.3424660000000017
                },
                {
                    "name": "E3",
                    "midi": 52,
                    "time": 294.8632259999967,
                    "velocity": 0.2992125984251969,
                    "duration": 0.3424660000000017
                },
                {
                    "name": "D3",
                    "midi": 50,
                    "time": 295.2056919999967,
                    "velocity": 0.3464566929133858,
                    "duration": 0.3424660000000017
                },
                {
                    "name": "F3",
                    "midi": 53,
                    "time": 295.2056919999967,
                    "velocity": 0.3464566929133858,
                    "duration": 0.3424660000000017
                },
                {
                    "name": "G3",
                    "midi": 55,
                    "time": 295.5481579999967,
                    "velocity": 0.3858267716535433,
                    "duration": 0.3424660000000017
                },
                {
                    "name": "E3",
                    "midi": 52,
                    "time": 295.5481579999967,
                    "velocity": 0.3858267716535433,
                    "duration": 0.3424660000000017
                },
                {
                    "name": "G2",
                    "midi": 43,
                    "time": 296.2330899999967,
                    "velocity": 0.29133858267716534,
                    "duration": 0.3424660000000017
                },
                {
                    "name": "B2",
                    "midi": 47,
                    "time": 296.2330899999967,
                    "velocity": 0.29133858267716534,
                    "duration": 0.3424660000000017
                },
                {
                    "name": "A2",
                    "midi": 45,
                    "time": 296.5755559999967,
                    "velocity": 0.31496062992125984,
                    "duration": 0.3424660000000017
                },
                {
                    "name": "C3",
                    "midi": 48,
                    "time": 296.5755559999967,
                    "velocity": 0.31496062992125984,
                    "duration": 0.3424660000000017
                },
                {
                    "name": "B2",
                    "midi": 47,
                    "time": 296.9180219999967,
                    "velocity": 0.3464566929133858,
                    "duration": 0.3424660000000017
                },
                {
                    "name": "D3",
                    "midi": 50,
                    "time": 296.9180219999967,
                    "velocity": 0.3464566929133858,
                    "duration": 0.3424660000000017
                },
                {
                    "name": "C3",
                    "midi": 48,
                    "time": 297.2604879999967,
                    "velocity": 0.3464566929133858,
                    "duration": 0.6849320000000034
                },
                {
                    "name": "G3",
                    "midi": 55,
                    "time": 298.6303519999967,
                    "velocity": 0.3464566929133858,
                    "duration": 1.0273980000000051
                },
                {
                    "name": "C4",
                    "midi": 60,
                    "time": 298.6303519999967,
                    "velocity": 0.3464566929133858,
                    "duration": 2.0547960000000103
                },
                {
                    "name": "E3",
                    "midi": 52,
                    "time": 298.6303519999967,
                    "velocity": 0.3464566929133858,
                    "duration": 1.3698640000000069
                },
                {
                    "name": "A#3",
                    "midi": 58,
                    "time": 299.6577499999967,
                    "velocity": 0.3464566929133858,
                    "duration": 0.3424660000000017
                },
                {
                    "name": "F3",
                    "midi": 53,
                    "time": 300.0002159999967,
                    "velocity": 0.2992125984251969,
                    "duration": 0.6849320000000034
                },
                {
                    "name": "F#3",
                    "midi": 54,
                    "time": 301.71254599999673,
                    "velocity": 0.29133858267716534,
                    "duration": 0.3424660000000017
                },
                {
                    "name": "D#4",
                    "midi": 63,
                    "time": 301.71254599999673,
                    "velocity": 0.29133858267716534,
                    "duration": 0.3424660000000017
                },
                {
                    "name": "G3",
                    "midi": 55,
                    "time": 302.05501199999674,
                    "velocity": 0.31496062992125984,
                    "duration": 0.3424660000000017
                },
                {
                    "name": "E4",
                    "midi": 64,
                    "time": 302.05501199999674,
                    "velocity": 0.31496062992125984,
                    "duration": 0.3424660000000017
                },
                {
                    "name": "F4",
                    "midi": 65,
                    "time": 302.39747799999674,
                    "velocity": 0.3464566929133858,
                    "duration": 0.3424660000000017
                },
                {
                    "name": "E4",
                    "midi": 64,
                    "time": 302.73994399999674,
                    "velocity": 0.3464566929133858,
                    "duration": 0.6849320000000034
                },
                {
                    "name": "C4",
                    "midi": 60,
                    "time": 302.73994399999674,
                    "velocity": 0.3464566929133858,
                    "duration": 0.6849320000000034
                },
                {
                    "name": "G3",
                    "midi": 55,
                    "time": 304.10980799999675,
                    "velocity": 0.3464566929133858,
                    "duration": 1.0273980000000051
                },
                {
                    "name": "C4",
                    "midi": 60,
                    "time": 304.10980799999675,
                    "velocity": 0.3464566929133858,
                    "duration": 2.0547960000000103
                },
                {
                    "name": "E3",
                    "midi": 52,
                    "time": 304.10980799999675,
                    "velocity": 0.3464566929133858,
                    "duration": 1.3698640000000069
                },
                {
                    "name": "A#3",
                    "midi": 58,
                    "time": 305.13720599999675,
                    "velocity": 0.3464566929133858,
                    "duration": 0.3424660000000017
                },
                {
                    "name": "A3",
                    "midi": 57,
                    "time": 305.47967199999675,
                    "velocity": 0.2992125984251969,
                    "duration": 0.6849320000000034
                },
                {
                    "name": "F3",
                    "midi": 53,
                    "time": 305.47967199999675,
                    "velocity": 0.2992125984251969,
                    "duration": 0.6849320000000034
                },
                {
                    "name": "F#3",
                    "midi": 54,
                    "time": 306.84953599999676,
                    "velocity": 0.3228346456692913,
                    "duration": 0.6849320000000034
                },
                {
                    "name": "D#4",
                    "midi": 63,
                    "time": 306.84953599999676,
                    "velocity": 0.3228346456692913,
                    "duration": 0.6849320000000034
                },
                {
                    "name": "G3",
                    "midi": 55,
                    "time": 308.21939999999677,
                    "velocity": 0.3779527559055118,
                    "duration": 0.17123299999997244
                },
                {
                    "name": "E4",
                    "midi": 64,
                    "time": 308.39063299999674,
                    "velocity": 0.30708661417322836,
                    "duration": 0.17123299999997244
                },
                {
                    "name": "C4",
                    "midi": 60,
                    "time": 308.5618659999967,
                    "velocity": 0.3228346456692913,
                    "duration": 0.17123299999997244
                },
                {
                    "name": "E4",
                    "midi": 64,
                    "time": 308.7330989999967,
                    "velocity": 0.30708661417322836,
                    "duration": 0.17123299999997244
                },
                {
                    "name": "G3",
                    "midi": 55,
                    "time": 308.90433199999666,
                    "velocity": 0.3779527559055118,
                    "duration": 0.17123299999997244
                },
                {
                    "name": "E4",
                    "midi": 64,
                    "time": 309.07556499999663,
                    "velocity": 0.2992125984251969,
                    "duration": 0.17123299999997244
                },
                {
                    "name": "C4",
                    "midi": 60,
                    "time": 309.2467979999966,
                    "velocity": 0.3228346456692913,
                    "duration": 0.17123299999997244
                },
                {
                    "name": "E4",
                    "midi": 64,
                    "time": 309.4180309999966,
                    "velocity": 0.30708661417322836,
                    "duration": 0.17123299999997244
                },
                {
                    "name": "G3",
                    "midi": 55,
                    "time": 309.58926399999655,
                    "velocity": 0.33858267716535434,
                    "duration": 0.17123299999997244
                },
                {
                    "name": "G4",
                    "midi": 67,
                    "time": 309.7604969999965,
                    "velocity": 0.28346456692913385,
                    "duration": 0.17123299999997244
                },
                {
                    "name": "C4",
                    "midi": 60,
                    "time": 309.9317299999965,
                    "velocity": 0.2992125984251969,
                    "duration": 0.17123299999997244
                },
                {
                    "name": "G4",
                    "midi": 67,
                    "time": 310.10296299999646,
                    "velocity": 0.2755905511811024,
                    "duration": 0.17123299999997244
                },
                {
                    "name": "G3",
                    "midi": 55,
                    "time": 310.27419599999644,
                    "velocity": 0.30708661417322836,
                    "duration": 0.17123299999997244
                },
                {
                    "name": "F4",
                    "midi": 65,
                    "time": 310.4454289999964,
                    "velocity": 0.23622047244094488,
                    "duration": 0.17123299999997244
                },
                {
                    "name": "B3",
                    "midi": 59,
                    "time": 310.6166619999964,
                    "velocity": 0.25196850393700787,
                    "duration": 0.17123299999997244
                },
                {
                    "name": "F4",
                    "midi": 65,
                    "time": 310.78789499999635,
                    "velocity": 0.23622047244094488,
                    "duration": 0.17123299999997244
                },
                {
                    "name": "C3",
                    "midi": 48,
                    "time": 310.9591279999963,
                    "velocity": 0.2755905511811024,
                    "duration": 0.17123299999997244
                },
                {
                    "name": "E3",
                    "midi": 52,
                    "time": 311.1303609999963,
                    "velocity": 0.23622047244094488,
                    "duration": 0.17123299999997244
                },
                {
                    "name": "C4",
                    "midi": 60,
                    "time": 311.30159399999627,
                    "velocity": 0.25196850393700787,
                    "duration": 0.17123299999997244
                },
                {
                    "name": "E3",
                    "midi": 52,
                    "time": 311.47282699999624,
                    "velocity": 0.23622047244094488,
                    "duration": 0.17123299999997244
                },
                {
                    "name": "C3",
                    "midi": 48,
                    "time": 311.6440599999962,
                    "velocity": 0.2755905511811024,
                    "duration": 0.17123299999997244
                },
                {
                    "name": "E3",
                    "midi": 52,
                    "time": 311.8152929999962,
                    "velocity": 0.23622047244094488,
                    "duration": 0.17123299999997244
                },
                {
                    "name": "C4",
                    "midi": 60,
                    "time": 311.98652599999616,
                    "velocity": 0.25196850393700787,
                    "duration": 0.17123299999997244
                },
                {
                    "name": "E3",
                    "midi": 52,
                    "time": 312.15775899999613,
                    "velocity": 0.23622047244094488,
                    "duration": 0.17123299999997244
                },
                {
                    "name": "C3",
                    "midi": 48,
                    "time": 312.3289919999961,
                    "velocity": 0.2755905511811024,
                    "duration": 0.17123299999997244
                },
                {
                    "name": "D3",
                    "midi": 50,
                    "time": 312.5002249999961,
                    "velocity": 0.23622047244094488,
                    "duration": 0.17123299999997244
                },
                {
                    "name": "B3",
                    "midi": 59,
                    "time": 312.67145799999605,
                    "velocity": 0.25196850393700787,
                    "duration": 0.17123299999997244
                },
                {
                    "name": "D3",
                    "midi": 50,
                    "time": 312.842690999996,
                    "velocity": 0.23622047244094488,
                    "duration": 0.17123299999997244
                },
                {
                    "name": "C3",
                    "midi": 48,
                    "time": 313.013923999996,
                    "velocity": 0.2755905511811024,
                    "duration": 0.17123299999997244
                },
                {
                    "name": "F3",
                    "midi": 53,
                    "time": 313.18515699999597,
                    "velocity": 0.23622047244094488,
                    "duration": 0.17123299999997244
                },
                {
                    "name": "B3",
                    "midi": 59,
                    "time": 313.35638999999594,
                    "velocity": 0.25196850393700787,
                    "duration": 0.17123299999997244
                },
                {
                    "name": "F3",
                    "midi": 53,
                    "time": 313.5276229999959,
                    "velocity": 0.23622047244094488,
                    "duration": 0.17123299999997244
                },
                {
                    "name": "C3",
                    "midi": 48,
                    "time": 313.6988559999959,
                    "velocity": 0.2755905511811024,
                    "duration": 0.17123299999997244
                },
                {
                    "name": "E3",
                    "midi": 52,
                    "time": 313.87008899999586,
                    "velocity": 0.23622047244094488,
                    "duration": 0.17123299999997244
                },
                {
                    "name": "C4",
                    "midi": 60,
                    "time": 314.04132199999583,
                    "velocity": 0.25196850393700787,
                    "duration": 0.17123299999997244
                },
                {
                    "name": "E3",
                    "midi": 52,
                    "time": 314.2125549999958,
                    "velocity": 0.23622047244094488,
                    "duration": 0.17123299999997244
                },
                {
                    "name": "C3",
                    "midi": 48,
                    "time": 314.3837879999958,
                    "velocity": 0.2755905511811024,
                    "duration": 0.17123299999997244
                },
                {
                    "name": "E3",
                    "midi": 52,
                    "time": 314.55502099999575,
                    "velocity": 0.23622047244094488,
                    "duration": 0.17123299999997244
                },
                {
                    "name": "C4",
                    "midi": 60,
                    "time": 314.7262539999957,
                    "velocity": 0.25196850393700787,
                    "duration": 0.17123299999997244
                },
                {
                    "name": "E3",
                    "midi": 52,
                    "time": 314.8974869999957,
                    "velocity": 0.23622047244094488,
                    "duration": 0.17123299999997244
                },
                {
                    "name": "C3",
                    "midi": 48,
                    "time": 315.06871999999566,
                    "velocity": 0.2755905511811024,
                    "duration": 0.17123299999997244
                },
                {
                    "name": "D3",
                    "midi": 50,
                    "time": 315.23995299999564,
                    "velocity": 0.23622047244094488,
                    "duration": 0.17123299999997244
                },
                {
                    "name": "B3",
                    "midi": 59,
                    "time": 315.4111859999956,
                    "velocity": 0.25196850393700787,
                    "duration": 0.17123299999997244
                },
                {
                    "name": "D3",
                    "midi": 50,
                    "time": 315.5824189999956,
                    "velocity": 0.23622047244094488,
                    "duration": 0.17123299999997244
                },
                {
                    "name": "C3",
                    "midi": 48,
                    "time": 315.75365199999555,
                    "velocity": 0.2755905511811024,
                    "duration": 0.17123299999997244
                },
                {
                    "name": "F3",
                    "midi": 53,
                    "time": 315.9248849999955,
                    "velocity": 0.23622047244094488,
                    "duration": 0.17123299999997244
                },
                {
                    "name": "B3",
                    "midi": 59,
                    "time": 316.0961179999955,
                    "velocity": 0.25196850393700787,
                    "duration": 0.17123299999997244
                },
                {
                    "name": "F3",
                    "midi": 53,
                    "time": 316.2673509999955,
                    "velocity": 0.23622047244094488,
                    "duration": 0.17123299999997244
                },
                {
                    "name": "C3",
                    "midi": 48,
                    "time": 316.43858399999544,
                    "velocity": 0.2755905511811024,
                    "duration": 0.17123299999997244
                },
                {
                    "name": "E3",
                    "midi": 52,
                    "time": 316.6098169999954,
                    "velocity": 0.23622047244094488,
                    "duration": 0.17123299999997244
                },
                {
                    "name": "C4",
                    "midi": 60,
                    "time": 316.7810499999954,
                    "velocity": 0.25196850393700787,
                    "duration": 0.17123299999997244
                },
                {
                    "name": "E3",
                    "midi": 52,
                    "time": 316.95228299999536,
                    "velocity": 0.23622047244094488,
                    "duration": 0.17123299999997244
                },
                {
                    "name": "C3",
                    "midi": 48,
                    "time": 317.12351599999533,
                    "velocity": 0.2755905511811024,
                    "duration": 0.17123299999997244
                },
                {
                    "name": "F3",
                    "midi": 53,
                    "time": 317.2947489999953,
                    "velocity": 0.23622047244094488,
                    "duration": 0.17123299999997244
                },
                {
                    "name": "B3",
                    "midi": 59,
                    "time": 317.4659819999953,
                    "velocity": 0.25196850393700787,
                    "duration": 0.17123299999997244
                },
                {
                    "name": "F3",
                    "midi": 53,
                    "time": 317.63721499999525,
                    "velocity": 0.23622047244094488,
                    "duration": 0.17123299999997244
                },
                {
                    "name": "C3",
                    "midi": 48,
                    "time": 317.8084479999952,
                    "velocity": 0.2755905511811024,
                    "duration": 0.17123299999997244
                },
                {
                    "name": "E3",
                    "midi": 52,
                    "time": 317.9796809999952,
                    "velocity": 0.23622047244094488,
                    "duration": 0.17123299999997244
                },
                {
                    "name": "C4",
                    "midi": 60,
                    "time": 318.15091399999517,
                    "velocity": 0.25196850393700787,
                    "duration": 0.17123299999997244
                },
                {
                    "name": "E3",
                    "midi": 52,
                    "time": 318.32214699999514,
                    "velocity": 0.23622047244094488,
                    "duration": 0.17123299999997244
                },
                {
                    "name": "C3",
                    "midi": 48,
                    "time": 318.4933799999951,
                    "velocity": 0.2755905511811024,
                    "duration": 0.17123299999997244
                },
                {
                    "name": "F3",
                    "midi": 53,
                    "time": 318.6646129999951,
                    "velocity": 0.23622047244094488,
                    "duration": 0.17123299999997244
                },
                {
                    "name": "B3",
                    "midi": 59,
                    "time": 318.83584599999506,
                    "velocity": 0.25196850393700787,
                    "duration": 0.17123299999997244
                },
                {
                    "name": "F3",
                    "midi": 53,
                    "time": 319.00707899999503,
                    "velocity": 0.23622047244094488,
                    "duration": 0.17123299999997244
                },
                {
                    "name": "C3",
                    "midi": 48,
                    "time": 319.178311999995,
                    "velocity": 0.2755905511811024,
                    "duration": 0.17123299999997244
                },
                {
                    "name": "E3",
                    "midi": 52,
                    "time": 319.349544999995,
                    "velocity": 0.23622047244094488,
                    "duration": 0.17123299999997244
                },
                {
                    "name": "C4",
                    "midi": 60,
                    "time": 319.52077799999495,
                    "velocity": 0.25196850393700787,
                    "duration": 0.17123299999997244
                },
                {
                    "name": "E3",
                    "midi": 52,
                    "time": 319.6920109999949,
                    "velocity": 0.2440944881889764,
                    "duration": 0.17123299999997244
                },
                {
                    "name": "C3",
                    "midi": 48,
                    "time": 319.8632439999949,
                    "velocity": 0.3228346456692913,
                    "duration": 0.17123299999997244
                },
                {
                    "name": "F3",
                    "midi": 53,
                    "time": 320.03447699999487,
                    "velocity": 0.2755905511811024,
                    "duration": 0.17123299999997244
                },
                {
                    "name": "B3",
                    "midi": 59,
                    "time": 320.20570999999484,
                    "velocity": 0.2755905511811024,
                    "duration": 0.17123299999997244
                },
                {
                    "name": "F3",
                    "midi": 53,
                    "time": 320.3769429999948,
                    "velocity": 0.25196850393700787,
                    "duration": 0.17123299999997244
                },
                {
                    "name": "C3",
                    "midi": 48,
                    "time": 320.5481759999948,
                    "velocity": 0.2755905511811024,
                    "duration": 0.17123299999997244
                },
                {
                    "name": "E3",
                    "midi": 52,
                    "time": 320.71940899999476,
                    "velocity": 0.23622047244094488,
                    "duration": 0.17123299999997244
                },
                {
                    "name": "C4",
                    "midi": 60,
                    "time": 320.8906419999947,
                    "velocity": 0.25196850393700787,
                    "duration": 0.17123299999997244
                },
                {
                    "name": "E3",
                    "midi": 52,
                    "time": 321.0618749999947,
                    "velocity": 0.23622047244094488,
                    "duration": 0.17123299999997244
                },
                {
                    "name": "C3",
                    "midi": 48,
                    "time": 321.2331079999947,
                    "velocity": 0.3228346456692913,
                    "duration": 0.17123299999997244
                },
                {
                    "name": "F3",
                    "midi": 53,
                    "time": 321.40434099999464,
                    "velocity": 0.2755905511811024,
                    "duration": 0.17123299999997244
                },
                {
                    "name": "B3",
                    "midi": 59,
                    "time": 321.5755739999946,
                    "velocity": 0.25196850393700787,
                    "duration": 0.17123299999997244
                },
                {
                    "name": "F3",
                    "midi": 53,
                    "time": 321.7468069999946,
                    "velocity": 0.23622047244094488,
                    "duration": 0.17123299999997244
                },
                {
                    "name": "C3",
                    "midi": 48,
                    "time": 321.91803999999456,
                    "velocity": 0.2755905511811024,
                    "duration": 0.6849320000000034
                },
                {
                    "name": "E3",
                    "midi": 52,
                    "time": 321.91803999999456,
                    "velocity": 0.2755905511811024,
                    "duration": 0.6849320000000034
                },
                {
                    "name": "G#3",
                    "midi": 56,
                    "time": 322.94543799999457,
                    "velocity": 0.25984251968503935,
                    "duration": 0.08561650000001464
                },
                {
                    "name": "A3",
                    "midi": 57,
                    "time": 323.28790399999457,
                    "velocity": 0.25984251968503935,
                    "duration": 1.0273980000000051
                },
                {
                    "name": "F2",
                    "midi": 41,
                    "time": 324.6577679999946,
                    "velocity": 0.3937007874015748,
                    "duration": 0.17123299999997244
                },
                {
                    "name": "F3",
                    "midi": 53,
                    "time": 324.6577679999946,
                    "velocity": 0.4645669291338583,
                    "duration": 0.17123299999997244
                },
                {
                    "name": "G2",
                    "midi": 43,
                    "time": 325.3426999999945,
                    "velocity": 0.3937007874015748,
                    "duration": 0.17123299999997244
                },
                {
                    "name": "G3",
                    "midi": 55,
                    "time": 325.3426999999945,
                    "velocity": 0.4645669291338583,
                    "duration": 0.17123299999997244
                },
                {
                    "name": "C2",
                    "midi": 36,
                    "time": 326.02763199999447,
                    "velocity": 0.3700787401574803,
                    "duration": 0.17123299999997244
                },
                {
                    "name": "E2",
                    "midi": 40,
                    "time": 326.02763199999447,
                    "velocity": 0.3700787401574803,
                    "duration": 0.17123299999997244
                },
                {
                    "name": "G2",
                    "midi": 43,
                    "time": 326.02763199999447,
                    "velocity": 0.3700787401574803,
                    "duration": 0.17123299999997244
                },
                {
                    "name": "C3",
                    "midi": 48,
                    "time": 326.02763199999447,
                    "velocity": 0.44881889763779526,
                    "duration": 0.17123299999997244
                },
                {
                    "name": "D4",
                    "midi": 62,
                    "time": 327.3974959999944,
                    "velocity": 0.30708661417322836,
                    "duration": 0.6849319999999466
                },
                {
                    "name": "B3",
                    "midi": 59,
                    "time": 327.3974959999944,
                    "velocity": 0.30708661417322836,
                    "duration": 0.3424660000000017
                },
                {
                    "name": "G3",
                    "midi": 55,
                    "time": 327.7399619999944,
                    "velocity": 0.2992125984251969,
                    "duration": 0.17123299999997244
                },
                {
                    "name": "D4",
                    "midi": 62,
                    "time": 328.08242799999437,
                    "velocity": 0.31496062992125984,
                    "duration": 0.17123299999997244
                },
                {
                    "name": "G3",
                    "midi": 55,
                    "time": 328.08242799999437,
                    "velocity": 0.31496062992125984,
                    "duration": 0.17123299999997244
                },
                {
                    "name": "D4",
                    "midi": 62,
                    "time": 328.4248939999943,
                    "velocity": 0.2992125984251969,
                    "duration": 0.3424660000000017
                },
                {
                    "name": "G3",
                    "midi": 55,
                    "time": 328.4248939999943,
                    "velocity": 0.2992125984251969,
                    "duration": 0.3424660000000017
                },
                {
                    "name": "D4",
                    "midi": 62,
                    "time": 328.7673599999943,
                    "velocity": 0.31496062992125984,
                    "duration": 0.6849320000000034
                },
                {
                    "name": "B3",
                    "midi": 59,
                    "time": 328.7673599999943,
                    "velocity": 0.31496062992125984,
                    "duration": 0.3424660000000017
                },
                {
                    "name": "A3",
                    "midi": 57,
                    "time": 329.1098259999943,
                    "velocity": 0.2992125984251969,
                    "duration": 0.08561650000001464
                },
                {
                    "name": "F#3",
                    "midi": 54,
                    "time": 329.4522919999943,
                    "velocity": 0.2992125984251969,
                    "duration": 0.6849320000000034
                },
                {
                    "name": "D4",
                    "midi": 62,
                    "time": 329.4522919999943,
                    "velocity": 0.2992125984251969,
                    "duration": 0.6849320000000034
                },
                {
                    "name": "A3",
                    "midi": 57,
                    "time": 330.1372239999943,
                    "velocity": 0.3228346456692913,
                    "duration": 0.3424660000000017
                },
                {
                    "name": "D4",
                    "midi": 62,
                    "time": 330.1372239999943,
                    "velocity": 0.3228346456692913,
                    "duration": 0.6849320000000034
                },
                {
                    "name": "G3",
                    "midi": 55,
                    "time": 330.4796899999943,
                    "velocity": 0.2992125984251969,
                    "duration": 0.08561650000001464
                },
                {
                    "name": "D4",
                    "midi": 62,
                    "time": 330.8221559999943,
                    "velocity": 0.31496062992125984,
                    "duration": 0.6849320000000034
                },
                {
                    "name": "B3",
                    "midi": 59,
                    "time": 330.8221559999943,
                    "velocity": 0.31496062992125984,
                    "duration": 0.3424660000000017
                },
                {
                    "name": "A3",
                    "midi": 57,
                    "time": 331.1646219999943,
                    "velocity": 0.2992125984251969,
                    "duration": 0.08561650000001464
                },
                {
                    "name": "C4",
                    "midi": 60,
                    "time": 331.5070879999943,
                    "velocity": 0.3937007874015748,
                    "duration": 0.6849320000000034
                },
                {
                    "name": "D4",
                    "midi": 62,
                    "time": 331.5070879999943,
                    "velocity": 0.3937007874015748,
                    "duration": 1.0273980000000051
                },
                {
                    "name": "B3",
                    "midi": 59,
                    "time": 332.19201999999433,
                    "velocity": 0.31496062992125984,
                    "duration": 0.3424660000000017
                },
                {
                    "name": "B2",
                    "midi": 47,
                    "time": 333.56188399999434,
                    "velocity": 0.2992125984251969,
                    "duration": 0.6849320000000034
                },
                {
                    "name": "D3",
                    "midi": 50,
                    "time": 333.56188399999434,
                    "velocity": 0.2992125984251969,
                    "duration": 0.6849320000000034
                },
                {
                    "name": "E3",
                    "midi": 52,
                    "time": 334.24681599999434,
                    "velocity": 0.2992125984251969,
                    "duration": 0.6849320000000034
                },
                {
                    "name": "C3",
                    "midi": 48,
                    "time": 334.24681599999434,
                    "velocity": 0.2992125984251969,
                    "duration": 0.6849320000000034
                },
                {
                    "name": "C#3",
                    "midi": 49,
                    "time": 334.93174799999434,
                    "velocity": 0.31496062992125984,
                    "duration": 0.6849320000000034
                },
                {
                    "name": "G3",
                    "midi": 55,
                    "time": 334.93174799999434,
                    "velocity": 0.31496062992125984,
                    "duration": 0.6849320000000034
                },
                {
                    "name": "B3",
                    "midi": 59,
                    "time": 335.61667999999435,
                    "velocity": 0.2677165354330709,
                    "duration": 0.6849320000000034
                },
                {
                    "name": "D3",
                    "midi": 50,
                    "time": 335.61667999999435,
                    "velocity": 0.2677165354330709,
                    "duration": 1.3698640000000069
                },
                {
                    "name": "A3",
                    "midi": 57,
                    "time": 336.30161199999435,
                    "velocity": 0.2677165354330709,
                    "duration": 0.6849320000000034
                },
                {
                    "name": "C4",
                    "midi": 60,
                    "time": 336.98654399999435,
                    "velocity": 0.30708661417322836,
                    "duration": 0.6849320000000034
                },
                {
                    "name": "G3",
                    "midi": 55,
                    "time": 336.98654399999435,
                    "velocity": 0.30708661417322836,
                    "duration": 1.0273980000000051
                },
                {
                    "name": "B3",
                    "midi": 59,
                    "time": 337.67147599999436,
                    "velocity": 0.2755905511811024,
                    "duration": 0.3424660000000017
                },
                {
                    "name": "B3",
                    "midi": 59,
                    "time": 338.35640799999436,
                    "velocity": 0.2992125984251969,
                    "duration": 0.17123299999997244
                },
                {
                    "name": "D4",
                    "midi": 62,
                    "time": 338.52764099999433,
                    "velocity": 0.23622047244094488,
                    "duration": 0.17123299999997244
                },
                {
                    "name": "G3",
                    "midi": 55,
                    "time": 338.6988739999943,
                    "velocity": 0.2755905511811024,
                    "duration": 0.17123299999997244
                },
                {
                    "name": "D4",
                    "midi": 62,
                    "time": 338.8701069999943,
                    "velocity": 0.23622047244094488,
                    "duration": 0.17123299999997244
                },
                {
                    "name": "G3",
                    "midi": 55,
                    "time": 339.04133999999425,
                    "velocity": 0.2992125984251969,
                    "duration": 0.17123299999997244
                },
                {
                    "name": "D4",
                    "midi": 62,
                    "time": 339.2125729999942,
                    "velocity": 0.25196850393700787,
                    "duration": 0.17123299999997244
                },
                {
                    "name": "G#3",
                    "midi": 56,
                    "time": 339.3838059999942,
                    "velocity": 0.29133858267716534,
                    "duration": 0.17123299999997244
                },
                {
                    "name": "D4",
                    "midi": 62,
                    "time": 339.55503899999417,
                    "velocity": 0.25196850393700787,
                    "duration": 0.17123299999997244
                },
                {
                    "name": "A3",
                    "midi": 57,
                    "time": 339.72627199999414,
                    "velocity": 0.31496062992125984,
                    "duration": 0.17123299999997244
                },
                {
                    "name": "D4",
                    "midi": 62,
                    "time": 339.8975049999941,
                    "velocity": 0.2440944881889764,
                    "duration": 0.17123299999997244
                },
                {
                    "name": "G3",
                    "midi": 55,
                    "time": 340.0687379999941,
                    "velocity": 0.2755905511811024,
                    "duration": 0.17123299999997244
                },
                {
                    "name": "D4",
                    "midi": 62,
                    "time": 340.23997099999406,
                    "velocity": 0.23622047244094488,
                    "duration": 0.17123299999997244
                },
                {
                    "name": "F#3",
                    "midi": 54,
                    "time": 340.41120399999403,
                    "velocity": 0.2992125984251969,
                    "duration": 0.17123299999997244
                },
                {
                    "name": "D4",
                    "midi": 62,
                    "time": 340.582436999994,
                    "velocity": 0.2755905511811024,
                    "duration": 0.17123299999997244
                },
                {
                    "name": "D3",
                    "midi": 50,
                    "time": 340.753669999994,
                    "velocity": 0.2992125984251969,
                    "duration": 0.17123299999997244
                },
                {
                    "name": "D4",
                    "midi": 62,
                    "time": 340.92490299999395,
                    "velocity": 0.2677165354330709,
                    "duration": 0.17123299999997244
                },
                {
                    "name": "G3",
                    "midi": 55,
                    "time": 341.0961359999939,
                    "velocity": 0.2992125984251969,
                    "duration": 0.17123299999997244
                },
                {
                    "name": "G4",
                    "midi": 67,
                    "time": 341.2673689999939,
                    "velocity": 0.2677165354330709,
                    "duration": 0.17123299999997244
                },
                {
                    "name": "B3",
                    "midi": 59,
                    "time": 341.43860199999386,
                    "velocity": 0.2992125984251969,
                    "duration": 0.17123299999997244
                },
                {
                    "name": "G4",
                    "midi": 67,
                    "time": 341.60983499999384,
                    "velocity": 0.25984251968503935,
                    "duration": 0.17123299999997244
                },
                {
                    "name": "A3",
                    "midi": 57,
                    "time": 341.7810679999938,
                    "velocity": 0.31496062992125984,
                    "duration": 0.17123299999997244
                },
                {
                    "name": "G4",
                    "midi": 67,
                    "time": 341.9523009999938,
                    "velocity": 0.2992125984251969,
                    "duration": 0.17123299999997244
                },
                {
                    "name": "C4",
                    "midi": 60,
                    "time": 342.12353399999375,
                    "velocity": 0.31496062992125984,
                    "duration": 0.17123299999997244
                },
                {
                    "name": "G4",
                    "midi": 67,
                    "time": 342.2947669999937,
                    "velocity": 0.2992125984251969,
                    "duration": 0.17123299999997244
                },
                {
                    "name": "C4",
                    "midi": 60,
                    "time": 342.4659999999937,
                    "velocity": 0.3700787401574803,
                    "duration": 0.17123299999997244
                },
                {
                    "name": "G4",
                    "midi": 67,
                    "time": 342.63723299999367,
                    "velocity": 0.2992125984251969,
                    "duration": 0.17123299999997244
                },
                {
                    "name": "E4",
                    "midi": 64,
                    "time": 342.80846599999364,
                    "velocity": 0.31496062992125984,
                    "duration": 0.17123299999997244
                },
                {
                    "name": "G4",
                    "midi": 67,
                    "time": 342.9796989999936,
                    "velocity": 0.2992125984251969,
                    "duration": 0.17123299999997244
                },
                {
                    "name": "B3",
                    "midi": 59,
                    "time": 343.1509319999936,
                    "velocity": 0.31496062992125984,
                    "duration": 0.17123299999997244
                },
                {
                    "name": "G4",
                    "midi": 67,
                    "time": 343.32216499999356,
                    "velocity": 0.25984251968503935,
                    "duration": 0.17123299999997244
                },
                {
                    "name": "D4",
                    "midi": 62,
                    "time": 343.49339799999353,
                    "velocity": 0.2992125984251969,
                    "duration": 0.17123299999997244
                },
                {
                    "name": "G4",
                    "midi": 67,
                    "time": 343.6646309999935,
                    "velocity": 0.2677165354330709,
                    "duration": 0.17123299999997244
                },
                {
                    "name": "A3",
                    "midi": 57,
                    "time": 343.8358639999935,
                    "velocity": 0.30708661417322836,
                    "duration": 0.17123299999997244
                },
                {
                    "name": "G4",
                    "midi": 67,
                    "time": 344.00709699999345,
                    "velocity": 0.2755905511811024,
                    "duration": 0.17123299999997244
                },
                {
                    "name": "C4",
                    "midi": 60,
                    "time": 344.1783299999934,
                    "velocity": 0.30708661417322836,
                    "duration": 0.17123299999997244
                },
                {
                    "name": "G4",
                    "midi": 67,
                    "time": 344.3495629999934,
                    "velocity": 0.2677165354330709,
                    "duration": 0.17123299999997244
                },
                {
                    "name": "B3",
                    "midi": 59,
                    "time": 344.52079599999337,
                    "velocity": 0.3228346456692913,
                    "duration": 0.17123299999997244
                },
                {
                    "name": "G4",
                    "midi": 67,
                    "time": 344.69202899999334,
                    "velocity": 0.29133858267716534,
                    "duration": 0.17123299999997244
                },
                {
                    "name": "D4",
                    "midi": 62,
                    "time": 344.8632619999933,
                    "velocity": 0.31496062992125984,
                    "duration": 0.17123299999997244
                },
                {
                    "name": "G4",
                    "midi": 67,
                    "time": 345.0344949999933,
                    "velocity": 0.29133858267716534,
                    "duration": 0.17123299999997244
                },
                {
                    "name": "D4",
                    "midi": 62,
                    "time": 345.20572799999326,
                    "velocity": 0.3937007874015748,
                    "duration": 0.17123299999997244
                },
                {
                    "name": "G4",
                    "midi": 67,
                    "time": 345.37696099999323,
                    "velocity": 0.2992125984251969,
                    "duration": 0.17123299999997244
                },
                {
                    "name": "F4",
                    "midi": 65,
                    "time": 345.5481939999932,
                    "velocity": 0.3228346456692913,
                    "duration": 0.17123299999997244
                },
                {
                    "name": "G4",
                    "midi": 67,
                    "time": 345.7194269999932,
                    "velocity": 0.2992125984251969,
                    "duration": 0.17123299999997244
                },
                {
                    "name": "C4",
                    "midi": 60,
                    "time": 345.89065999999315,
                    "velocity": 0.3228346456692913,
                    "duration": 0.17123299999997244
                },
                {
                    "name": "G4",
                    "midi": 67,
                    "time": 346.0618929999931,
                    "velocity": 0.29133858267716534,
                    "duration": 0.17123299999997244
                },
                {
                    "name": "E4",
                    "midi": 64,
                    "time": 346.2331259999931,
                    "velocity": 0.30708661417322836,
                    "duration": 0.17123299999997244
                },
                {
                    "name": "G4",
                    "midi": 67,
                    "time": 346.40435899999306,
                    "velocity": 0.29133858267716534,
                    "duration": 0.17123299999997244
                },
                {
                    "name": "B3",
                    "midi": 59,
                    "time": 346.57559199999304,
                    "velocity": 0.31496062992125984,
                    "duration": 0.17123299999997244
                },
                {
                    "name": "G4",
                    "midi": 67,
                    "time": 346.746824999993,
                    "velocity": 0.2992125984251969,
                    "duration": 0.17123299999997244
                },
                {
                    "name": "D4",
                    "midi": 62,
                    "time": 346.918057999993,
                    "velocity": 0.31496062992125984,
                    "duration": 0.17123299999997244
                },
                {
                    "name": "G4",
                    "midi": 67,
                    "time": 347.08929099999295,
                    "velocity": 0.29133858267716534,
                    "duration": 0.17123299999997244
                },
                {
                    "name": "C4",
                    "midi": 60,
                    "time": 347.2605239999929,
                    "velocity": 0.3543307086614173,
                    "duration": 0.17123299999997244
                },
                {
                    "name": "G4",
                    "midi": 67,
                    "time": 347.4317569999929,
                    "velocity": 0.31496062992125984,
                    "duration": 0.17123299999997244
                },
                {
                    "name": "E4",
                    "midi": 64,
                    "time": 347.6029899999929,
                    "velocity": 0.3543307086614173,
                    "duration": 0.17123299999997244
                },
                {
                    "name": "G4",
                    "midi": 67,
                    "time": 347.77422299999284,
                    "velocity": 0.31496062992125984,
                    "duration": 0.17123299999997244
                },
                {
                    "name": "E4",
                    "midi": 64,
                    "time": 347.9454559999928,
                    "velocity": 0.4094488188976378,
                    "duration": 0.17123299999997244
                },
                {
                    "name": "G4",
                    "midi": 67,
                    "time": 348.1166889999928,
                    "velocity": 0.3228346456692913,
                    "duration": 0.17123299999997244
                },
                {
                    "name": "F#4",
                    "midi": 66,
                    "time": 348.28792199999276,
                    "velocity": 0.3543307086614173,
                    "duration": 0.17123299999997244
                },
                {
                    "name": "G4",
                    "midi": 67,
                    "time": 348.45915499999273,
                    "velocity": 0.31496062992125984,
                    "duration": 0.17123299999997244
                },
                {
                    "name": "D4",
                    "midi": 62,
                    "time": 348.6303879999927,
                    "velocity": 0.3543307086614173,
                    "duration": 0.17123299999997244
                },
                {
                    "name": "G4",
                    "midi": 67,
                    "time": 348.8016209999927,
                    "velocity": 0.2992125984251969,
                    "duration": 0.17123299999997244
                },
                {
                    "name": "F#4",
                    "midi": 66,
                    "time": 348.97285399999265,
                    "velocity": 0.31496062992125984,
                    "duration": 0.17123299999997244
                },
                {
                    "name": "G4",
                    "midi": 67,
                    "time": 349.1440869999926,
                    "velocity": 0.2992125984251969,
                    "duration": 0.17123299999997244
                },
                {
                    "name": "C4",
                    "midi": 60,
                    "time": 349.3153199999926,
                    "velocity": 0.31496062992125984,
                    "duration": 0.17123299999997244
                },
                {
                    "name": "G4",
                    "midi": 67,
                    "time": 349.48655299999257,
                    "velocity": 0.2755905511811024,
                    "duration": 0.17123299999997244
                },
                {
                    "name": "F#4",
                    "midi": 66,
                    "time": 349.65778599999254,
                    "velocity": 0.29133858267716534,
                    "duration": 0.17123299999997244
                },
                {
                    "name": "G4",
                    "midi": 67,
                    "time": 349.8290189999925,
                    "velocity": 0.2755905511811024,
                    "duration": 0.17123299999997244
                },
                {
                    "name": "B3",
                    "midi": 59,
                    "time": 350.0002519999925,
                    "velocity": 0.31496062992125984,
                    "duration": 0.17123299999997244
                },
                {
                    "name": "G4",
                    "midi": 67,
                    "time": 350.17148499999246,
                    "velocity": 0.2755905511811024,
                    "duration": 0.17123299999997244
                },
                {
                    "name": "C4",
                    "midi": 60,
                    "time": 350.34271799999243,
                    "velocity": 0.29133858267716534,
                    "duration": 0.17123299999997244
                },
                {
                    "name": "G4",
                    "midi": 67,
                    "time": 350.5139509999924,
                    "velocity": 0.2677165354330709,
                    "duration": 0.17123299999997244
                },
                {
                    "name": "G3",
                    "midi": 55,
                    "time": 350.6851839999924,
                    "velocity": 0.29133858267716534,
                    "duration": 0.17123299999997244
                },
                {
                    "name": "G4",
                    "midi": 67,
                    "time": 350.85641699999235,
                    "velocity": 0.23622047244094488,
                    "duration": 0.17123299999997244
                },
                {
                    "name": "B3",
                    "midi": 59,
                    "time": 351.0276499999923,
                    "velocity": 0.25984251968503935,
                    "duration": 0.17123299999997244
                },
                {
                    "name": "G4",
                    "midi": 67,
                    "time": 351.1988829999923,
                    "velocity": 0.23622047244094488,
                    "duration": 0.17123299999997244
                },
                {
                    "name": "G3",
                    "midi": 55,
                    "time": 351.37011599999227,
                    "velocity": 0.2992125984251969,
                    "duration": 0.17123299999997244
                },
                {
                    "name": "G4",
                    "midi": 67,
                    "time": 351.54134899999224,
                    "velocity": 0.25984251968503935,
                    "duration": 0.17123299999997244
                },
                {
                    "name": "B3",
                    "midi": 59,
                    "time": 351.7125819999922,
                    "velocity": 0.2440944881889764,
                    "duration": 0.17123299999997244
                },
                {
                    "name": "G4",
                    "midi": 67,
                    "time": 351.8838149999922,
                    "velocity": 0.2440944881889764,
                    "duration": 0.17123299999997244
                },
                {
                    "name": "G3",
                    "midi": 55,
                    "time": 352.05504799999215,
                    "velocity": 0.2677165354330709,
                    "duration": 0.17123299999997244
                },
                {
                    "name": "G4",
                    "midi": 67,
                    "time": 352.2262809999921,
                    "velocity": 0.2283464566929134,
                    "duration": 0.17123299999997244
                },
                {
                    "name": "C4",
                    "midi": 60,
                    "time": 352.3975139999921,
                    "velocity": 0.2440944881889764,
                    "duration": 0.17123299999997244
                },
                {
                    "name": "G4",
                    "midi": 67,
                    "time": 352.5687469999921,
                    "velocity": 0.23622047244094488,
                    "duration": 0.17123299999997244
                },
                {
                    "name": "G3",
                    "midi": 55,
                    "time": 352.73997999999204,
                    "velocity": 0.25984251968503935,
                    "duration": 0.17123299999997244
                },
                {
                    "name": "G4",
                    "midi": 67,
                    "time": 352.911212999992,
                    "velocity": 0.23622047244094488,
                    "duration": 0.17123299999997244
                },
                {
                    "name": "D#4",
                    "midi": 63,
                    "time": 353.082445999992,
                    "velocity": 0.2440944881889764,
                    "duration": 0.17123299999997244
                },
                {
                    "name": "G4",
                    "midi": 67,
                    "time": 353.25367899999196,
                    "velocity": 0.2283464566929134,
                    "duration": 0.17123299999997244
                },
                {
                    "name": "G3",
                    "midi": 55,
                    "time": 353.42491199999193,
                    "velocity": 0.25196850393700787,
                    "duration": 0.17123299999997244
                },
                {
                    "name": "G4",
                    "midi": 67,
                    "time": 353.5961449999919,
                    "velocity": 0.23622047244094488,
                    "duration": 0.17123299999997244
                },
                {
                    "name": "D4",
                    "midi": 62,
                    "time": 353.7673779999919,
                    "velocity": 0.25196850393700787,
                    "duration": 0.17123299999997244
                },
                {
                    "name": "G4",
                    "midi": 67,
                    "time": 353.93861099999185,
                    "velocity": 0.23622047244094488,
                    "duration": 0.17123299999997244
                },
                {
                    "name": "G3",
                    "midi": 55,
                    "time": 354.1098439999918,
                    "velocity": 0.29133858267716534,
                    "duration": 0.17123299999997244
                },
                {
                    "name": "G4",
                    "midi": 67,
                    "time": 354.2810769999918,
                    "velocity": 0.23622047244094488,
                    "duration": 0.17123299999997244
                },
                {
                    "name": "B3",
                    "midi": 59,
                    "time": 354.45230999999177,
                    "velocity": 0.25196850393700787,
                    "duration": 0.17123299999997244
                },
                {
                    "name": "G4",
                    "midi": 67,
                    "time": 354.62354299999174,
                    "velocity": 0.23622047244094488,
                    "duration": 0.17123299999997244
                },
                {
                    "name": "G3",
                    "midi": 55,
                    "time": 354.7947759999917,
                    "velocity": 0.2755905511811024,
                    "duration": 0.17123299999997244
                },
                {
                    "name": "G4",
                    "midi": 67,
                    "time": 354.9660089999917,
                    "velocity": 0.23622047244094488,
                    "duration": 0.17123299999997244
                },
                {
                    "name": "C4",
                    "midi": 60,
                    "time": 355.13724199999166,
                    "velocity": 0.25196850393700787,
                    "duration": 0.17123299999997244
                },
                {
                    "name": "G4",
                    "midi": 67,
                    "time": 355.30847499999163,
                    "velocity": 0.23622047244094488,
                    "duration": 0.17123299999997244
                },
                {
                    "name": "G3",
                    "midi": 55,
                    "time": 355.4797079999916,
                    "velocity": 0.29133858267716534,
                    "duration": 0.17123299999997244
                },
                {
                    "name": "G4",
                    "midi": 67,
                    "time": 355.6509409999916,
                    "velocity": 0.23622047244094488,
                    "duration": 0.17123299999997244
                },
                {
                    "name": "D#4",
                    "midi": 63,
                    "time": 355.82217399999155,
                    "velocity": 0.25984251968503935,
                    "duration": 0.17123299999997244
                },
                {
                    "name": "G4",
                    "midi": 67,
                    "time": 355.9934069999915,
                    "velocity": 0.23622047244094488,
                    "duration": 0.17123299999997244
                },
                {
                    "name": "G3",
                    "midi": 55,
                    "time": 356.1646399999915,
                    "velocity": 0.2755905511811024,
                    "duration": 0.17123299999997244
                },
                {
                    "name": "G4",
                    "midi": 67,
                    "time": 356.33587299999147,
                    "velocity": 0.23622047244094488,
                    "duration": 0.17123299999997244
                },
                {
                    "name": "D4",
                    "midi": 62,
                    "time": 356.50710599999144,
                    "velocity": 0.25196850393700787,
                    "duration": 0.17123299999997244
                },
                {
                    "name": "G4",
                    "midi": 67,
                    "time": 356.6783389999914,
                    "velocity": 0.23622047244094488,
                    "duration": 0.17123299999997244
                },
                {
                    "name": "G3",
                    "midi": 55,
                    "time": 356.8495719999914,
                    "velocity": 0.3543307086614173,
                    "duration": 0.17123299999997244
                },
                {
                    "name": "G4",
                    "midi": 67,
                    "time": 357.02080499999136,
                    "velocity": 0.2755905511811024,
                    "duration": 0.17123299999997244
                },
                {
                    "name": "B3",
                    "midi": 59,
                    "time": 357.1920379999913,
                    "velocity": 0.2992125984251969,
                    "duration": 0.17123299999997244
                },
                {
                    "name": "G4",
                    "midi": 67,
                    "time": 357.3632709999913,
                    "velocity": 0.28346456692913385,
                    "duration": 0.17123299999997244
                },
                {
                    "name": "G#3",
                    "midi": 56,
                    "time": 357.5345039999913,
                    "velocity": 0.3543307086614173,
                    "duration": 0.17123299999997244
                },
                {
                    "name": "G4",
                    "midi": 67,
                    "time": 357.70573699999125,
                    "velocity": 0.23622047244094488,
                    "duration": 0.17123299999997244
                },
                {
                    "name": "C4",
                    "midi": 60,
                    "time": 357.8769699999912,
                    "velocity": 0.25984251968503935,
                    "duration": 0.17123299999997244
                },
                {
                    "name": "G4",
                    "midi": 67,
                    "time": 358.0482029999912,
                    "velocity": 0.23622047244094488,
                    "duration": 0.17123299999997244
                },
                {
                    "name": "G#3",
                    "midi": 56,
                    "time": 358.21943599999116,
                    "velocity": 0.3543307086614173,
                    "duration": 0.17123299999997244
                },
                {
                    "name": "F#4",
                    "midi": 66,
                    "time": 358.39066899999114,
                    "velocity": 0.25984251968503935,
                    "duration": 0.17123299999997244
                },
                {
                    "name": "C4",
                    "midi": 60,
                    "time": 358.5619019999911,
                    "velocity": 0.25984251968503935,
                    "duration": 0.17123299999997244
                },
                {
                    "name": "F#4",
                    "midi": 66,
                    "time": 358.7331349999911,
                    "velocity": 0.25984251968503935,
                    "duration": 0.17123299999997244
                },
                {
                    "name": "G4",
                    "midi": 67,
                    "time": 358.90436799999105,
                    "velocity": 0.3543307086614173,
                    "duration": 0.3424660000000017
                },
                {
                    "name": "G3",
                    "midi": 55,
                    "time": 358.90436799999105,
                    "velocity": 0.3543307086614173,
                    "duration": 0.3424660000000017
                },
                {
                    "name": "G3",
                    "midi": 55,
                    "time": 359.58929999999106,
                    "velocity": 0.33858267716535434,
                    "duration": 0.3424660000000017
                },
                {
                    "name": "G4",
                    "midi": 67,
                    "time": 359.58929999999106,
                    "velocity": 0.33858267716535434,
                    "duration": 0.3424660000000017
                },
                {
                    "name": "G3",
                    "midi": 55,
                    "time": 360.27423199999106,
                    "velocity": 0.3464566929133858,
                    "duration": 0.3424660000000017
                },
                {
                    "name": "G4",
                    "midi": 67,
                    "time": 360.27423199999106,
                    "velocity": 0.3464566929133858,
                    "duration": 0.3424660000000017
                },
                {
                    "name": "B3",
                    "midi": 59,
                    "time": 361.64409599999107,
                    "velocity": 0.1889763779527559,
                    "duration": 0.3424660000000017
                },
                {
                    "name": "G3",
                    "midi": 55,
                    "time": 361.64409599999107,
                    "velocity": 0.1889763779527559,
                    "duration": 0.3424660000000017
                },
                {
                    "name": "D4",
                    "midi": 62,
                    "time": 361.64409599999107,
                    "velocity": 0.1889763779527559,
                    "duration": 0.3424660000000017
                },
                {
                    "name": "F4",
                    "midi": 65,
                    "time": 361.64409599999107,
                    "velocity": 0.1889763779527559,
                    "duration": 0.3424660000000017
                },
                {
                    "name": "F4",
                    "midi": 65,
                    "time": 362.32902799999107,
                    "velocity": 0.1889763779527559,
                    "duration": 0.3424660000000017
                },
                {
                    "name": "D4",
                    "midi": 62,
                    "time": 362.32902799999107,
                    "velocity": 0.1889763779527559,
                    "duration": 0.3424660000000017
                },
                {
                    "name": "G3",
                    "midi": 55,
                    "time": 362.32902799999107,
                    "velocity": 0.1889763779527559,
                    "duration": 0.3424660000000017
                },
                {
                    "name": "B3",
                    "midi": 59,
                    "time": 362.32902799999107,
                    "velocity": 0.1889763779527559,
                    "duration": 0.3424660000000017
                },
                {
                    "name": "G3",
                    "midi": 55,
                    "time": 363.0139599999911,
                    "velocity": 0.1889763779527559,
                    "duration": 0.3424660000000017
                },
                {
                    "name": "B3",
                    "midi": 59,
                    "time": 363.0139599999911,
                    "velocity": 0.1889763779527559,
                    "duration": 0.3424660000000017
                },
                {
                    "name": "D4",
                    "midi": 62,
                    "time": 363.0139599999911,
                    "velocity": 0.1889763779527559,
                    "duration": 0.3424660000000017
                },
                {
                    "name": "F4",
                    "midi": 65,
                    "time": 363.0139599999911,
                    "velocity": 0.1889763779527559,
                    "duration": 0.3424660000000017
                },
                {
                    "name": "C3",
                    "midi": 48,
                    "time": 364.7262899999911,
                    "velocity": 0.31496062992125984,
                    "duration": 0.3424660000000017
                },
                {
                    "name": "E3",
                    "midi": 52,
                    "time": 365.0687559999911,
                    "velocity": 0.31496062992125984,
                    "duration": 0.3424660000000017
                },
                {
                    "name": "G3",
                    "midi": 55,
                    "time": 365.4112219999911,
                    "velocity": 0.31496062992125984,
                    "duration": 0.3424660000000017
                },
                {
                    "name": "C4",
                    "midi": 60,
                    "time": 365.7536879999911,
                    "velocity": 0.33858267716535434,
                    "duration": 0.3424660000000017
                },
                {
                    "name": "C3",
                    "midi": 48,
                    "time": 366.0961539999911,
                    "velocity": 0.31496062992125984,
                    "duration": 0.3424660000000017
                },
                {
                    "name": "G3",
                    "midi": 55,
                    "time": 366.4386199999911,
                    "velocity": 0.33858267716535434,
                    "duration": 0.3424660000000017
                },
                {
                    "name": "G2",
                    "midi": 43,
                    "time": 366.7810859999911,
                    "velocity": 0.31496062992125984,
                    "duration": 0.3424660000000017
                },
                {
                    "name": "C3",
                    "midi": 48,
                    "time": 367.4660179999911,
                    "velocity": 0.31496062992125984,
                    "duration": 0.3424660000000017
                },
                {
                    "name": "E3",
                    "midi": 52,
                    "time": 367.8084839999911,
                    "velocity": 0.31496062992125984,
                    "duration": 0.3424660000000017
                },
                {
                    "name": "G3",
                    "midi": 55,
                    "time": 368.1509499999911,
                    "velocity": 0.33858267716535434,
                    "duration": 0.3424660000000017
                },
                {
                    "name": "C4",
                    "midi": 60,
                    "time": 368.4934159999911,
                    "velocity": 0.3464566929133858,
                    "duration": 0.3424660000000017
                },
                {
                    "name": "C3",
                    "midi": 48,
                    "time": 368.8358819999911,
                    "velocity": 0.3228346456692913,
                    "duration": 0.3424660000000017
                },
                {
                    "name": "G3",
                    "midi": 55,
                    "time": 369.1783479999911,
                    "velocity": 0.33858267716535434,
                    "duration": 0.3424660000000017
                },
                {
                    "name": "G2",
                    "midi": 43,
                    "time": 369.5208139999911,
                    "velocity": 0.3228346456692913,
                    "duration": 0.3424660000000017
                },
                {
                    "name": "A3",
                    "midi": 57,
                    "time": 369.8632799999911,
                    "velocity": 0.3700787401574803,
                    "duration": 0.3424660000000017
                },
                {
                    "name": "C4",
                    "midi": 60,
                    "time": 370.2057459999911,
                    "velocity": 0.36220472440944884,
                    "duration": 0.3424660000000017
                },
                {
                    "name": "G3",
                    "midi": 55,
                    "time": 370.5482119999911,
                    "velocity": 0.3858267716535433,
                    "duration": 0.3424660000000017
                },
                {
                    "name": "C4",
                    "midi": 60,
                    "time": 370.8906779999911,
                    "velocity": 0.3543307086614173,
                    "duration": 0.3424660000000017
                },
                {
                    "name": "F3",
                    "midi": 53,
                    "time": 371.2331439999911,
                    "velocity": 0.3858267716535433,
                    "duration": 0.3424660000000017
                },
                {
                    "name": "C4",
                    "midi": 60,
                    "time": 371.5756099999911,
                    "velocity": 0.3700787401574803,
                    "duration": 0.3424660000000017
                },
                {
                    "name": "E3",
                    "midi": 52,
                    "time": 371.9180759999911,
                    "velocity": 0.3937007874015748,
                    "duration": 0.3424660000000017
                },
                {
                    "name": "C4",
                    "midi": 60,
                    "time": 372.2605419999911,
                    "velocity": 0.36220472440944884,
                    "duration": 0.3424660000000017
                },
                {
                    "name": "G4",
                    "midi": 67,
                    "time": 372.9454739999911,
                    "velocity": 0.33858267716535434,
                    "duration": 0.3424660000000017
                },
                {
                    "name": "B3",
                    "midi": 59,
                    "time": 372.9454739999911,
                    "velocity": 0.33858267716535434,
                    "duration": 0.3424660000000017
                },
                {
                    "name": "C4",
                    "midi": 60,
                    "time": 373.6304059999911,
                    "velocity": 0.33858267716535434,
                    "duration": 0.3424660000000017
                },
                {
                    "name": "G4",
                    "midi": 67,
                    "time": 373.6304059999911,
                    "velocity": 0.33858267716535434,
                    "duration": 0.3424660000000017
                },
                {
                    "name": "G3",
                    "midi": 55,
                    "time": 373.9728719999911,
                    "velocity": 0.3464566929133858,
                    "duration": 0.6849320000000034
                },
                {
                    "name": "B3",
                    "midi": 59,
                    "time": 373.9728719999911,
                    "velocity": 0.3464566929133858,
                    "duration": 0.6849320000000034
                },
                {
                    "name": "C2",
                    "midi": 36,
                    "time": 375.34273599999113,
                    "velocity": 0.5039370078740157,
                    "duration": 0.17123299999997244
                },
                {
                    "name": "E2",
                    "midi": 40,
                    "time": 375.5139689999911,
                    "velocity": 0.4409448818897638,
                    "duration": 0.17123299999997244
                },
                {
                    "name": "G2",
                    "midi": 43,
                    "time": 375.6852019999911,
                    "velocity": 0.44881889763779526,
                    "duration": 0.17123299999997244
                },
                {
                    "name": "C3",
                    "midi": 48,
                    "time": 375.85643499999105,
                    "velocity": 0.4409448818897638,
                    "duration": 0.17123299999997244
                },
                {
                    "name": "E2",
                    "midi": 40,
                    "time": 376.027667999991,
                    "velocity": 0.47244094488188976,
                    "duration": 0.17123299999997244
                },
                {
                    "name": "E3",
                    "midi": 52,
                    "time": 376.198900999991,
                    "velocity": 0.44881889763779526,
                    "duration": 0.17123299999997244
                },
                {
                    "name": "G2",
                    "midi": 43,
                    "time": 376.37013399999097,
                    "velocity": 0.47244094488188976,
                    "duration": 0.17123299999997244
                },
                {
                    "name": "G3",
                    "midi": 55,
                    "time": 376.54136699999094,
                    "velocity": 0.44881889763779526,
                    "duration": 0.17123299999997244
                },
                {
                    "name": "C3",
                    "midi": 48,
                    "time": 376.7125999999909,
                    "velocity": 0.47244094488188976,
                    "duration": 0.17123299999997244
                },
                {
                    "name": "E3",
                    "midi": 52,
                    "time": 376.8838329999909,
                    "velocity": 0.4330708661417323,
                    "duration": 0.17123299999997244
                },
                {
                    "name": "G3",
                    "midi": 55,
                    "time": 377.05506599999086,
                    "velocity": 0.44881889763779526,
                    "duration": 0.17123299999997244
                },
                {
                    "name": "C4",
                    "midi": 60,
                    "time": 377.22629899999083,
                    "velocity": 0.4409448818897638,
                    "duration": 0.17123299999997244
                },
                {
                    "name": "G2",
                    "midi": 43,
                    "time": 377.3975319999908,
                    "velocity": 0.47244094488188976,
                    "duration": 0.17123299999997244
                },
                {
                    "name": "B2",
                    "midi": 47,
                    "time": 377.5687649999908,
                    "velocity": 0.44881889763779526,
                    "duration": 0.17123299999997244
                },
                {
                    "name": "D3",
                    "midi": 50,
                    "time": 377.73999799999075,
                    "velocity": 0.4645669291338583,
                    "duration": 0.17123299999997244
                },
                {
                    "name": "G3",
                    "midi": 55,
                    "time": 377.9112309999907,
                    "velocity": 0.44881889763779526,
                    "duration": 0.17123299999997244
                },
                {
                    "name": "C2",
                    "midi": 36,
                    "time": 378.0824639999907,
                    "velocity": 0.47244094488188976,
                    "duration": 0.17123299999997244
                },
                {
                    "name": "E2",
                    "midi": 40,
                    "time": 378.25369699999067,
                    "velocity": 0.4409448818897638,
                    "duration": 0.17123299999997244
                },
                {
                    "name": "G2",
                    "midi": 43,
                    "time": 378.42492999999064,
                    "velocity": 0.44881889763779526,
                    "duration": 0.17123299999997244
                },
                {
                    "name": "C3",
                    "midi": 48,
                    "time": 378.5961629999906,
                    "velocity": 0.4330708661417323,
                    "duration": 0.17123299999997244
                },
                {
                    "name": "E2",
                    "midi": 40,
                    "time": 378.7673959999906,
                    "velocity": 0.47244094488188976,
                    "duration": 0.17123299999997244
                },
                {
                    "name": "E3",
                    "midi": 52,
                    "time": 378.93862899999056,
                    "velocity": 0.44881889763779526,
                    "duration": 0.17123299999997244
                },
                {
                    "name": "G2",
                    "midi": 43,
                    "time": 379.1098619999905,
                    "velocity": 0.4566929133858268,
                    "duration": 0.17123299999997244
                },
                {
                    "name": "G3",
                    "midi": 55,
                    "time": 379.2810949999905,
                    "velocity": 0.44881889763779526,
                    "duration": 0.17123299999997244
                },
                {
                    "name": "C3",
                    "midi": 48,
                    "time": 379.4523279999905,
                    "velocity": 0.47244094488188976,
                    "duration": 0.17123299999997244
                },
                {
                    "name": "E3",
                    "midi": 52,
                    "time": 379.62356099999045,
                    "velocity": 0.4330708661417323,
                    "duration": 0.17123299999997244
                },
                {
                    "name": "G3",
                    "midi": 55,
                    "time": 379.7947939999904,
                    "velocity": 0.44881889763779526,
                    "duration": 0.17123299999997244
                },
                {
                    "name": "C4",
                    "midi": 60,
                    "time": 379.9660269999904,
                    "velocity": 0.4409448818897638,
                    "duration": 0.17123299999997244
                },
                {
                    "name": "G2",
                    "midi": 43,
                    "time": 380.13725999999036,
                    "velocity": 0.4881889763779528,
                    "duration": 0.17123299999997244
                },
                {
                    "name": "B2",
                    "midi": 47,
                    "time": 380.30849299999034,
                    "velocity": 0.4409448818897638,
                    "duration": 0.17123299999997244
                },
                {
                    "name": "D3",
                    "midi": 50,
                    "time": 380.4797259999903,
                    "velocity": 0.44881889763779526,
                    "duration": 0.17123299999997244
                },
                {
                    "name": "G3",
                    "midi": 55,
                    "time": 380.6509589999903,
                    "velocity": 0.4409448818897638,
                    "duration": 0.17123299999997244
                },
                {
                    "name": "A3",
                    "midi": 57,
                    "time": 380.82219199999025,
                    "velocity": 0.41732283464566927,
                    "duration": 0.17123299999997244
                },
                {
                    "name": "C4",
                    "midi": 60,
                    "time": 380.9934249999902,
                    "velocity": 0.3858267716535433,
                    "duration": 0.17123299999997244
                },
                {
                    "name": "A3",
                    "midi": 57,
                    "time": 381.1646579999902,
                    "velocity": 0.41732283464566927,
                    "duration": 0.17123299999997244
                },
                {
                    "name": "C4",
                    "midi": 60,
                    "time": 381.33589099999017,
                    "velocity": 0.3858267716535433,
                    "duration": 0.17123299999997244
                },
                {
                    "name": "G3",
                    "midi": 55,
                    "time": 381.50712399999014,
                    "velocity": 0.41732283464566927,
                    "duration": 0.17123299999997244
                },
                {
                    "name": "C4",
                    "midi": 60,
                    "time": 381.6783569999901,
                    "velocity": 0.3937007874015748,
                    "duration": 0.17123299999997244
                },
                {
                    "name": "G3",
                    "midi": 55,
                    "time": 381.8495899999901,
                    "velocity": 0.41732283464566927,
                    "duration": 0.17123299999997244
                },
                {
                    "name": "C4",
                    "midi": 60,
                    "time": 382.02082299999006,
                    "velocity": 0.3937007874015748,
                    "duration": 0.17123299999997244
                },
                {
                    "name": "F3",
                    "midi": 53,
                    "time": 382.19205599999003,
                    "velocity": 0.44881889763779526,
                    "duration": 0.17123299999997244
                },
                {
                    "name": "C4",
                    "midi": 60,
                    "time": 382.36328899999,
                    "velocity": 0.41732283464566927,
                    "duration": 0.17123299999997244
                },
                {
                    "name": "F3",
                    "midi": 53,
                    "time": 382.53452199999,
                    "velocity": 0.44881889763779526,
                    "duration": 0.17123299999997244
                },
                {
                    "name": "C4",
                    "midi": 60,
                    "time": 382.70575499998995,
                    "velocity": 0.41732283464566927,
                    "duration": 0.17123299999997244
                },
                {
                    "name": "E3",
                    "midi": 52,
                    "time": 382.8769879999899,
                    "velocity": 0.44881889763779526,
                    "duration": 0.17123299999997244
                },
                {
                    "name": "C4",
                    "midi": 60,
                    "time": 383.0482209999899,
                    "velocity": 0.41732283464566927,
                    "duration": 0.17123299999997244
                },
                {
                    "name": "E3",
                    "midi": 52,
                    "time": 383.21945399998987,
                    "velocity": 0.44881889763779526,
                    "duration": 0.17123299999997244
                },
                {
                    "name": "C4",
                    "midi": 60,
                    "time": 383.39068699998984,
                    "velocity": 0.4094488188976378,
                    "duration": 0.17123299999997244
                },
                {
                    "name": "D4",
                    "midi": 62,
                    "time": 383.9043859999898,
                    "velocity": 0.3858267716535433,
                    "duration": 0.17123299999997244
                },
                {
                    "name": "F3",
                    "midi": 53,
                    "time": 383.9043859999898,
                    "velocity": 0.3858267716535433,
                    "duration": 0.17123299999997244
                },
                {
                    "name": "G3",
                    "midi": 55,
                    "time": 384.24685199998976,
                    "velocity": 0.3858267716535433,
                    "duration": 0.6849320000000034
                },
                {
                    "name": "E4",
                    "midi": 64,
                    "time": 384.24685199998976,
                    "velocity": 0.3858267716535433,
                    "duration": 0.3424660000000017
                },
                {
                    "name": "D4",
                    "midi": 62,
                    "time": 384.58931799998976,
                    "velocity": 0.3858267716535433,
                    "duration": 0.3424660000000017
                },
                {
                    "name": "E4",
                    "midi": 64,
                    "time": 384.93178399998976,
                    "velocity": 0.3858267716535433,
                    "duration": 0.6849320000000034
                },
                {
                    "name": "C4",
                    "midi": 60,
                    "time": 384.93178399998976,
                    "velocity": 0.3858267716535433,
                    "duration": 0.6849320000000034
                },
                {
                    "name": "F3",
                    "midi": 53,
                    "time": 386.64411399998977,
                    "velocity": 0.2992125984251969,
                    "duration": 0.3424660000000017
                },
                {
                    "name": "A3",
                    "midi": 57,
                    "time": 386.64411399998977,
                    "velocity": 0.2992125984251969,
                    "duration": 0.3424660000000017
                },
                {
                    "name": "D4",
                    "midi": 62,
                    "time": 386.64411399998977,
                    "velocity": 0.2992125984251969,
                    "duration": 0.3424660000000017
                },
                {
                    "name": "G3",
                    "midi": 55,
                    "time": 386.9865799999898,
                    "velocity": 0.2992125984251969,
                    "duration": 0.6849320000000034
                },
                {
                    "name": "C4",
                    "midi": 60,
                    "time": 386.9865799999898,
                    "velocity": 0.2992125984251969,
                    "duration": 0.3424660000000017
                },
                {
                    "name": "E4",
                    "midi": 64,
                    "time": 386.9865799999898,
                    "velocity": 0.2992125984251969,
                    "duration": 0.3424660000000017
                },
                {
                    "name": "D4",
                    "midi": 62,
                    "time": 387.3290459999898,
                    "velocity": 0.3464566929133858,
                    "duration": 0.3424660000000017
                },
                {
                    "name": "F4",
                    "midi": 65,
                    "time": 387.3290459999898,
                    "velocity": 0.3464566929133858,
                    "duration": 0.3424660000000017
                },
                {
                    "name": "C4",
                    "midi": 60,
                    "time": 387.6715119999898,
                    "velocity": 0.3858267716535433,
                    "duration": 0.6849320000000034
                },
                {
                    "name": "E4",
                    "midi": 64,
                    "time": 387.6715119999898,
                    "velocity": 0.3858267716535433,
                    "duration": 0.6849320000000034
                },
                {
                    "name": "A3",
                    "midi": 57,
                    "time": 389.3838419999898,
                    "velocity": 0.2992125984251969,
                    "duration": 0.3424660000000017
                },
                {
                    "name": "F3",
                    "midi": 53,
                    "time": 389.3838419999898,
                    "velocity": 0.2992125984251969,
                    "duration": 0.3424660000000017
                },
                {
                    "name": "D4",
                    "midi": 62,
                    "time": 389.3838419999898,
                    "velocity": 0.2992125984251969,
                    "duration": 0.3424660000000017
                },
                {
                    "name": "C4",
                    "midi": 60,
                    "time": 389.7263079999898,
                    "velocity": 0.2992125984251969,
                    "duration": 0.3424660000000017
                },
                {
                    "name": "G3",
                    "midi": 55,
                    "time": 389.7263079999898,
                    "velocity": 0.2992125984251969,
                    "duration": 0.6849320000000034
                },
                {
                    "name": "E4",
                    "midi": 64,
                    "time": 389.7263079999898,
                    "velocity": 0.2992125984251969,
                    "duration": 0.3424660000000017
                },
                {
                    "name": "D4",
                    "midi": 62,
                    "time": 390.0687739999898,
                    "velocity": 0.31496062992125984,
                    "duration": 0.3424660000000017
                },
                {
                    "name": "F4",
                    "midi": 65,
                    "time": 390.0687739999898,
                    "velocity": 0.31496062992125984,
                    "duration": 0.3424660000000017
                },
                {
                    "name": "C4",
                    "midi": 60,
                    "time": 390.4112399999898,
                    "velocity": 0.2992125984251969,
                    "duration": 0.08561650000001464
                },
                {
                    "name": "E4",
                    "midi": 64,
                    "time": 390.4112399999898,
                    "velocity": 0.2992125984251969,
                    "duration": 0.08561650000001464
                },
                {
                    "name": "G3",
                    "midi": 55,
                    "time": 390.7537059999898,
                    "velocity": 0.2992125984251969,
                    "duration": 0.08561650000001464
                },
                {
                    "name": "C3",
                    "midi": 48,
                    "time": 391.0961719999898,
                    "velocity": 0.2992125984251969,
                    "duration": 0.6849320000000034
                },
                {
                    "name": "C2",
                    "midi": 36,
                    "time": 391.0961719999898,
                    "velocity": 0.2992125984251969,
                    "duration": 0.6849320000000034
                },
                {
                    "name": "C4",
                    "midi": 60,
                    "time": 391.7811039999898,
                    "velocity": 0.29133858267716534,
                    "duration": 0.17123299999997244
                },
                {
                    "name": "G4",
                    "midi": 67,
                    "time": 391.95233699998977,
                    "velocity": 0.23622047244094488,
                    "duration": 0.17123299999997244
                },
                {
                    "name": "F#4",
                    "midi": 66,
                    "time": 392.12356999998974,
                    "velocity": 0.25984251968503935,
                    "duration": 0.17123299999997244
                },
                {
                    "name": "G4",
                    "midi": 67,
                    "time": 392.2948029999897,
                    "velocity": 0.23622047244094488,
                    "duration": 0.17123299999997244
                },
                {
                    "name": "C4",
                    "midi": 60,
                    "time": 392.4660359999897,
                    "velocity": 0.29133858267716534,
                    "duration": 0.17123299999997244
                },
                {
                    "name": "G4",
                    "midi": 67,
                    "time": 392.63726899998966,
                    "velocity": 0.23622047244094488,
                    "duration": 0.17123299999997244
                },
                {
                    "name": "D4",
                    "midi": 62,
                    "time": 392.80850199998963,
                    "velocity": 0.25984251968503935,
                    "duration": 0.17123299999997244
                },
                {
                    "name": "G4",
                    "midi": 67,
                    "time": 392.9797349999896,
                    "velocity": 0.23622047244094488,
                    "duration": 0.17123299999997244
                },
                {
                    "name": "E4",
                    "midi": 64,
                    "time": 393.1509679999896,
                    "velocity": 0.29133858267716534,
                    "duration": 0.17123299999997244
                },
                {
                    "name": "G4",
                    "midi": 67,
                    "time": 393.32220099998955,
                    "velocity": 0.23622047244094488,
                    "duration": 0.17123299999997244
                },
                {
                    "name": "F4",
                    "midi": 65,
                    "time": 393.4934339999895,
                    "velocity": 0.25984251968503935,
                    "duration": 0.17123299999997244
                },
                {
                    "name": "G4",
                    "midi": 67,
                    "time": 393.6646669999895,
                    "velocity": 0.23622047244094488,
                    "duration": 0.17123299999997244
                },
                {
                    "name": "E4",
                    "midi": 64,
                    "time": 393.83589999998946,
                    "velocity": 0.29133858267716534,
                    "duration": 0.17123299999997244
                },
                {
                    "name": "G4",
                    "midi": 67,
                    "time": 394.00713299998944,
                    "velocity": 0.23622047244094488,
                    "duration": 0.17123299999997244
                },
                {
                    "name": "A#3",
                    "midi": 58,
                    "time": 394.1783659999894,
                    "velocity": 0.25984251968503935,
                    "duration": 0.17123299999997244
                },
                {
                    "name": "G4",
                    "midi": 67,
                    "time": 394.3495989999894,
                    "velocity": 0.2440944881889764,
                    "duration": 0.17123299999997244
                },
                {
                    "name": "B3",
                    "midi": 59,
                    "time": 394.52083199998935,
                    "velocity": 0.2992125984251969,
                    "duration": 0.17123299999997244
                },
                {
                    "name": "G4",
                    "midi": 67,
                    "time": 394.6920649999893,
                    "velocity": 0.2440944881889764,
                    "duration": 0.17123299999997244
                },
                {
                    "name": "B3",
                    "midi": 59,
                    "time": 394.8632979999893,
                    "velocity": 0.2755905511811024,
                    "duration": 0.17123299999997244
                },
                {
                    "name": "G4",
                    "midi": 67,
                    "time": 395.0345309999893,
                    "velocity": 0.25196850393700787,
                    "duration": 0.17123299999997244
                },
                {
                    "name": "C4",
                    "midi": 60,
                    "time": 395.20576399998924,
                    "velocity": 0.3228346456692913,
                    "duration": 0.17123299999997244
                },
                {
                    "name": "G4",
                    "midi": 67,
                    "time": 395.3769969999892,
                    "velocity": 0.25984251968503935,
                    "duration": 0.17123299999997244
                },
                {
                    "name": "D4",
                    "midi": 62,
                    "time": 395.5482299999892,
                    "velocity": 0.29133858267716534,
                    "duration": 0.17123299999997244
                },
                {
                    "name": "G4",
                    "midi": 67,
                    "time": 395.71946299998916,
                    "velocity": 0.25984251968503935,
                    "duration": 0.17123299999997244
                },
                {
                    "name": "C4",
                    "midi": 60,
                    "time": 395.89069599998913,
                    "velocity": 0.31496062992125984,
                    "duration": 0.17123299999997244
                },
                {
                    "name": "G4",
                    "midi": 67,
                    "time": 396.0619289999891,
                    "velocity": 0.23622047244094488,
                    "duration": 0.17123299999997244
                },
                {
                    "name": "F#4",
                    "midi": 66,
                    "time": 396.2331619999891,
                    "velocity": 0.25984251968503935,
                    "duration": 0.17123299999997244
                },
                {
                    "name": "G4",
                    "midi": 67,
                    "time": 396.40439499998905,
                    "velocity": 0.23622047244094488,
                    "duration": 0.17123299999997244
                },
                {
                    "name": "B3",
                    "midi": 59,
                    "time": 396.575627999989,
                    "velocity": 0.29133858267716534,
                    "duration": 0.17123299999997244
                },
                {
                    "name": "G4",
                    "midi": 67,
                    "time": 396.746860999989,
                    "velocity": 0.2440944881889764,
                    "duration": 0.17123299999997244
                },
                {
                    "name": "F#4",
                    "midi": 66,
                    "time": 396.91809399998897,
                    "velocity": 0.25984251968503935,
                    "duration": 0.17123299999997244
                },
                {
                    "name": "G4",
                    "midi": 67,
                    "time": 397.08932699998894,
                    "velocity": 0.25196850393700787,
                    "duration": 0.17123299999997244
                },
                {
                    "name": "B3",
                    "midi": 59,
                    "time": 397.2605599999889,
                    "velocity": 0.29133858267716534,
                    "duration": 0.17123299999997244
                },
                {
                    "name": "G4",
                    "midi": 67,
                    "time": 397.4317929999889,
                    "velocity": 0.2440944881889764,
                    "duration": 0.17123299999997244
                },
                {
                    "name": "F#4",
                    "midi": 66,
                    "time": 397.60302599998886,
                    "velocity": 0.25984251968503935,
                    "duration": 0.17123299999997244
                },
                {
                    "name": "G4",
                    "midi": 67,
                    "time": 397.77425899998883,
                    "velocity": 0.2440944881889764,
                    "duration": 0.17123299999997244
                },
                {
                    "name": "B3",
                    "midi": 59,
                    "time": 397.9454919999888,
                    "velocity": 0.29133858267716534,
                    "duration": 0.17123299999997244
                },
                {
                    "name": "G4",
                    "midi": 67,
                    "time": 398.1167249999888,
                    "velocity": 0.2440944881889764,
                    "duration": 0.17123299999997244
                },
                {
                    "name": "C4",
                    "midi": 60,
                    "time": 398.28795799998875,
                    "velocity": 0.25984251968503935,
                    "duration": 0.17123299999997244
                },
                {
                    "name": "G4",
                    "midi": 67,
                    "time": 398.4591909999887,
                    "velocity": 0.2440944881889764,
                    "duration": 0.17123299999997244
                },
                {
                    "name": "D4",
                    "midi": 62,
                    "time": 398.6304239999887,
                    "velocity": 0.29133858267716534,
                    "duration": 0.17123299999997244
                },
                {
                    "name": "G4",
                    "midi": 67,
                    "time": 398.80165699998867,
                    "velocity": 0.2440944881889764,
                    "duration": 0.17123299999997244
                },
                {
                    "name": "E4",
                    "midi": 64,
                    "time": 398.97288999998864,
                    "velocity": 0.25984251968503935,
                    "duration": 0.17123299999997244
                },
                {
                    "name": "G4",
                    "midi": 67,
                    "time": 399.1441229999886,
                    "velocity": 0.2440944881889764,
                    "duration": 0.17123299999997244
                },
                {
                    "name": "F4",
                    "midi": 65,
                    "time": 399.3153559999886,
                    "velocity": 0.29133858267716534,
                    "duration": 0.17123299999997244
                },
                {
                    "name": "G4",
                    "midi": 67,
                    "time": 399.48658899998856,
                    "velocity": 0.25196850393700787,
                    "duration": 0.17123299999997244
                },
                {
                    "name": "D4",
                    "midi": 62,
                    "time": 399.6578219999885,
                    "velocity": 0.2677165354330709,
                    "duration": 0.17123299999997244
                },
                {
                    "name": "G4",
                    "midi": 67,
                    "time": 399.8290549999885,
                    "velocity": 0.2440944881889764,
                    "duration": 0.17123299999997244
                },
                {
                    "name": "B3",
                    "midi": 59,
                    "time": 400.0002879999885,
                    "velocity": 0.31496062992125984,
                    "duration": 0.17123299999997244
                },
                {
                    "name": "G4",
                    "midi": 67,
                    "time": 400.17152099998845,
                    "velocity": 0.2440944881889764,
                    "duration": 0.17123299999997244
                },
                {
                    "name": "D4",
                    "midi": 62,
                    "time": 400.3427539999884,
                    "velocity": 0.2677165354330709,
                    "duration": 0.17123299999997244
                },
                {
                    "name": "G4",
                    "midi": 67,
                    "time": 400.5139869999884,
                    "velocity": 0.2440944881889764,
                    "duration": 0.17123299999997244
                },
                {
                    "name": "B3",
                    "midi": 59,
                    "time": 400.68521999998836,
                    "velocity": 0.36220472440944884,
                    "duration": 0.17123299999997244
                },
                {
                    "name": "G4",
                    "midi": 67,
                    "time": 400.85645299998833,
                    "velocity": 0.2755905511811024,
                    "duration": 0.17123299999997244
                },
                {
                    "name": "G3",
                    "midi": 55,
                    "time": 401.0276859999883,
                    "velocity": 0.29133858267716534,
                    "duration": 0.17123299999997244
                },
                {
                    "name": "G4",
                    "midi": 67,
                    "time": 401.1989189999883,
                    "velocity": 0.2755905511811024,
                    "duration": 0.17123299999997244
                },
                {
                    "name": "C4",
                    "midi": 60,
                    "time": 401.37015199998825,
                    "velocity": 0.3464566929133858,
                    "duration": 0.17123299999997244
                },
                {
                    "name": "G4",
                    "midi": 67,
                    "time": 401.5413849999882,
                    "velocity": 0.29133858267716534,
                    "duration": 0.17123299999997244
                },
                {
                    "name": "F4",
                    "midi": 65,
                    "time": 401.7126179999882,
                    "velocity": 0.31496062992125984,
                    "duration": 0.17123299999997244
                },
                {
                    "name": "G4",
                    "midi": 67,
                    "time": 401.88385099998817,
                    "velocity": 0.29133858267716534,
                    "duration": 0.17123299999997244
                },
                {
                    "name": "C4",
                    "midi": 60,
                    "time": 402.05508399998814,
                    "velocity": 0.3464566929133858,
                    "duration": 0.17123299999997244
                },
                {
                    "name": "G4",
                    "midi": 67,
                    "time": 402.2263169999881,
                    "velocity": 0.29133858267716534,
                    "duration": 0.17123299999997244
                },
                {
                    "name": "E4",
                    "midi": 64,
                    "time": 402.3975499999881,
                    "velocity": 0.31496062992125984,
                    "duration": 0.17123299999997244
                },
                {
                    "name": "G4",
                    "midi": 67,
                    "time": 402.56878299998806,
                    "velocity": 0.29133858267716534,
                    "duration": 0.17123299999997244
                },
                {
                    "name": "C3",
                    "midi": 48,
                    "time": 402.74001599998803,
                    "velocity": 0.3779527559055118,
                    "duration": 0.11415533333331496
                },
                {
                    "name": "E3",
                    "midi": 52,
                    "time": 402.85417133332135,
                    "velocity": 0.33858267716535434,
                    "duration": 0.11415533333331496
                },
                {
                    "name": "G3",
                    "midi": 55,
                    "time": 402.96832666665466,
                    "velocity": 0.3228346456692913,
                    "duration": 0.11415533333331496
                },
                {
                    "name": "C4",
                    "midi": 60,
                    "time": 403.082481999988,
                    "velocity": 0.36220472440944884,
                    "duration": 0.3424660000000017
                },
                {
                    "name": "F2",
                    "midi": 41,
                    "time": 404.109879999988,
                    "velocity": 0.3779527559055118,
                    "duration": 0.11415533333331496
                },
                {
                    "name": "A2",
                    "midi": 45,
                    "time": 404.2240353333213,
                    "velocity": 0.33858267716535434,
                    "duration": 0.11415533333331496
                },
                {
                    "name": "C3",
                    "midi": 48,
                    "time": 404.3381906666546,
                    "velocity": 0.3228346456692913,
                    "duration": 0.11415533333331496
                },
                {
                    "name": "F3",
                    "midi": 53,
                    "time": 404.4523459999879,
                    "velocity": 0.3779527559055118,
                    "duration": 0.3424660000000017
                },
                {
                    "name": "A2",
                    "midi": 45,
                    "time": 405.47974399998793,
                    "velocity": 0.3779527559055118,
                    "duration": 0.11415533333331496
                },
                {
                    "name": "C#3",
                    "midi": 49,
                    "time": 405.59389933332125,
                    "velocity": 0.33858267716535434,
                    "duration": 0.11415533333331496
                },
                {
                    "name": "E3",
                    "midi": 52,
                    "time": 405.70805466665456,
                    "velocity": 0.31496062992125984,
                    "duration": 0.11415533333331496
                },
                {
                    "name": "A3",
                    "midi": 57,
                    "time": 405.8222099999879,
                    "velocity": 0.3779527559055118,
                    "duration": 0.3424660000000017
                },
                {
                    "name": "D3",
                    "midi": 50,
                    "time": 406.8496079999879,
                    "velocity": 0.3779527559055118,
                    "duration": 0.11415533333331496
                },
                {
                    "name": "F#3",
                    "midi": 54,
                    "time": 406.9637633333212,
                    "velocity": 0.33858267716535434,
                    "duration": 0.11415533333331496
                },
                {
                    "name": "A3",
                    "midi": 57,
                    "time": 407.0779186666545,
                    "velocity": 0.31496062992125984,
                    "duration": 0.11415533333331496
                },
                {
                    "name": "D4",
                    "midi": 62,
                    "time": 407.1920739999878,
                    "velocity": 0.3779527559055118,
                    "duration": 0.3424660000000017
                },
                {
                    "name": "B2",
                    "midi": 47,
                    "time": 408.21947199998783,
                    "velocity": 0.3779527559055118,
                    "duration": 0.11415533333331496
                },
                {
                    "name": "D3",
                    "midi": 50,
                    "time": 408.33362733332115,
                    "velocity": 0.33858267716535434,
                    "duration": 0.11415533333331496
                },
                {
                    "name": "G3",
                    "midi": 55,
                    "time": 408.44778266665446,
                    "velocity": 0.31496062992125984,
                    "duration": 0.11415533333331496
                },
                {
                    "name": "B3",
                    "midi": 59,
                    "time": 408.5619379999878,
                    "velocity": 0.3779527559055118,
                    "duration": 0.3424660000000017
                },
                {
                    "name": "C3",
                    "midi": 48,
                    "time": 409.5893359999878,
                    "velocity": 0.3779527559055118,
                    "duration": 0.11415533333331496
                },
                {
                    "name": "E3",
                    "midi": 52,
                    "time": 409.7034913333211,
                    "velocity": 0.33858267716535434,
                    "duration": 0.11415533333331496
                },
                {
                    "name": "G3",
                    "midi": 55,
                    "time": 409.8176466666544,
                    "velocity": 0.31496062992125984,
                    "duration": 0.11415533333331496
                },
                {
                    "name": "C4",
                    "midi": 60,
                    "time": 409.9318019999877,
                    "velocity": 0.3779527559055118,
                    "duration": 0.3424660000000017
                },
                {
                    "name": "F3",
                    "midi": 53,
                    "time": 410.95919999998773,
                    "velocity": 0.3937007874015748,
                    "duration": 0.3424660000000017
                },
                {
                    "name": "A3",
                    "midi": 57,
                    "time": 410.95919999998773,
                    "velocity": 0.3937007874015748,
                    "duration": 0.3424660000000017
                },
                {
                    "name": "A3",
                    "midi": 57,
                    "time": 411.64413199998774,
                    "velocity": 0.4094488188976378,
                    "duration": 0.3424660000000017
                },
                {
                    "name": "F#3",
                    "midi": 54,
                    "time": 411.64413199998774,
                    "velocity": 0.4094488188976378,
                    "duration": 0.3424660000000017
                },
                {
                    "name": "G3",
                    "midi": 55,
                    "time": 412.32906399998774,
                    "velocity": 0.44881889763779526,
                    "duration": 0.08561650000001464
                },
                {
                    "name": "G4",
                    "midi": 67,
                    "time": 412.50029699998777,
                    "velocity": 0.31496062992125984,
                    "duration": 0.17123299999997244
                },
                {
                    "name": "F#4",
                    "midi": 66,
                    "time": 412.67152999998774,
                    "velocity": 0.3464566929133858,
                    "duration": 0.17123299999997244
                },
                {
                    "name": "G4",
                    "midi": 67,
                    "time": 412.8427629999877,
                    "velocity": 0.31496062992125984,
                    "duration": 0.17123299999997244
                },
                {
                    "name": "F#4",
                    "midi": 66,
                    "time": 413.0139959999877,
                    "velocity": 0.3464566929133858,
                    "duration": 0.17123299999997244
                },
                {
                    "name": "G4",
                    "midi": 67,
                    "time": 413.18522899998766,
                    "velocity": 0.3228346456692913,
                    "duration": 0.17123299999997244
                },
                {
                    "name": "F4",
                    "midi": 65,
                    "time": 413.35646199998763,
                    "velocity": 0.3464566929133858,
                    "duration": 0.17123299999997244
                },
                {
                    "name": "G4",
                    "midi": 67,
                    "time": 413.5276949999876,
                    "velocity": 0.31496062992125984,
                    "duration": 0.17123299999997244
                },
                {
                    "name": "E4",
                    "midi": 64,
                    "time": 413.6989279999876,
                    "velocity": 0.3858267716535433,
                    "duration": 0.17123299999997244
                },
                {
                    "name": "G4",
                    "midi": 67,
                    "time": 413.87016099998755,
                    "velocity": 0.31496062992125984,
                    "duration": 0.17123299999997244
                },
                {
                    "name": "C4",
                    "midi": 60,
                    "time": 414.0413939999875,
                    "velocity": 0.2755905511811024,
                    "duration": 0.17123299999997244
                },
                {
                    "name": "G4",
                    "midi": 67,
                    "time": 414.2126269999875,
                    "velocity": 0.23622047244094488,
                    "duration": 0.17123299999997244
                },
                {
                    "name": "E4",
                    "midi": 64,
                    "time": 414.38385999998746,
                    "velocity": 0.29133858267716534,
                    "duration": 0.17123299999997244
                },
                {
                    "name": "G4",
                    "midi": 67,
                    "time": 414.55509299998744,
                    "velocity": 0.2440944881889764,
                    "duration": 0.17123299999997244
                },
                {
                    "name": "C4",
                    "midi": 60,
                    "time": 414.7263259999874,
                    "velocity": 0.2755905511811024,
                    "duration": 0.17123299999997244
                },
                {
                    "name": "G4",
                    "midi": 67,
                    "time": 414.8975589999874,
                    "velocity": 0.2440944881889764,
                    "duration": 0.17123299999997244
                },
                {
                    "name": "D4",
                    "midi": 62,
                    "time": 415.06879199998735,
                    "velocity": 0.29133858267716534,
                    "duration": 0.17123299999997244
                },
                {
                    "name": "G4",
                    "midi": 67,
                    "time": 415.2400249999873,
                    "velocity": 0.2677165354330709,
                    "duration": 0.17123299999997244
                },
                {
                    "name": "C4",
                    "midi": 60,
                    "time": 415.4112579999873,
                    "velocity": 0.29133858267716534,
                    "duration": 0.17123299999997244
                },
                {
                    "name": "G4",
                    "midi": 67,
                    "time": 415.5824909999873,
                    "velocity": 0.2677165354330709,
                    "duration": 0.17123299999997244
                },
                {
                    "name": "B3",
                    "midi": 59,
                    "time": 415.75372399998724,
                    "velocity": 0.29133858267716534,
                    "duration": 0.17123299999997244
                },
                {
                    "name": "G4",
                    "midi": 67,
                    "time": 415.9249569999872,
                    "velocity": 0.2677165354330709,
                    "duration": 0.17123299999997244
                },
                {
                    "name": "G3",
                    "midi": 55,
                    "time": 416.0961899999872,
                    "velocity": 0.29133858267716534,
                    "duration": 0.17123299999997244
                },
                {
                    "name": "G4",
                    "midi": 67,
                    "time": 416.26742299998716,
                    "velocity": 0.2677165354330709,
                    "duration": 0.17123299999997244
                },
                {
                    "name": "C4",
                    "midi": 60,
                    "time": 416.43865599998713,
                    "velocity": 0.2992125984251969,
                    "duration": 0.17123299999997244
                },
                {
                    "name": "G4",
                    "midi": 67,
                    "time": 416.6098889999871,
                    "velocity": 0.2440944881889764,
                    "duration": 0.17123299999997244
                },
                {
                    "name": "F#4",
                    "midi": 66,
                    "time": 416.7811219999871,
                    "velocity": 0.2677165354330709,
                    "duration": 0.17123299999997244
                },
                {
                    "name": "G4",
                    "midi": 67,
                    "time": 416.95235499998705,
                    "velocity": 0.2440944881889764,
                    "duration": 0.17123299999997244
                },
                {
                    "name": "F#4",
                    "midi": 66,
                    "time": 417.123587999987,
                    "velocity": 0.30708661417322836,
                    "duration": 0.17123299999997244
                },
                {
                    "name": "G4",
                    "midi": 67,
                    "time": 417.294820999987,
                    "velocity": 0.3228346456692913,
                    "duration": 0.17123299999997244
                },
                {
                    "name": "A4",
                    "midi": 69,
                    "time": 417.46605399998697,
                    "velocity": 0.3464566929133858,
                    "duration": 0.17123299999997244
                },
                {
                    "name": "G4",
                    "midi": 67,
                    "time": 417.63728699998694,
                    "velocity": 0.3228346456692913,
                    "duration": 0.17123299999997244
                },
                {
                    "name": "F4",
                    "midi": 65,
                    "time": 417.8085199999869,
                    "velocity": 0.3858267716535433,
                    "duration": 0.17123299999997244
                },
                {
                    "name": "G4",
                    "midi": 67,
                    "time": 417.9797529999869,
                    "velocity": 0.3700787401574803,
                    "duration": 0.17123299999997244
                },
                {
                    "name": "E4",
                    "midi": 64,
                    "time": 418.15098599998686,
                    "velocity": 0.3858267716535433,
                    "duration": 0.17123299999997244
                },
                {
                    "name": "G4",
                    "midi": 67,
                    "time": 418.32221899998683,
                    "velocity": 0.3543307086614173,
                    "duration": 0.17123299999997244
                },
                {
                    "name": "F4",
                    "midi": 65,
                    "time": 418.4934519999868,
                    "velocity": 0.3858267716535433,
                    "duration": 0.17123299999997244
                },
                {
                    "name": "G4",
                    "midi": 67,
                    "time": 418.6646849999868,
                    "velocity": 0.36220472440944884,
                    "duration": 0.17123299999997244
                },
                {
                    "name": "D4",
                    "midi": 62,
                    "time": 418.83591799998675,
                    "velocity": 0.3858267716535433,
                    "duration": 0.17123299999997244
                },
                {
                    "name": "G4",
                    "midi": 67,
                    "time": 419.0071509999867,
                    "velocity": 0.36220472440944884,
                    "duration": 0.17123299999997244
                },
                {
                    "name": "E4",
                    "midi": 64,
                    "time": 419.1783839999867,
                    "velocity": 0.3858267716535433,
                    "duration": 0.17123299999997244
                },
                {
                    "name": "G4",
                    "midi": 67,
                    "time": 419.34961699998667,
                    "velocity": 0.3228346456692913,
                    "duration": 0.17123299999997244
                },
                {
                    "name": "C4",
                    "midi": 60,
                    "time": 419.52084999998664,
                    "velocity": 0.2755905511811024,
                    "duration": 0.17123299999997244
                },
                {
                    "name": "G4",
                    "midi": 67,
                    "time": 419.6920829999866,
                    "velocity": 0.2440944881889764,
                    "duration": 0.17123299999997244
                },
                {
                    "name": "E4",
                    "midi": 64,
                    "time": 419.8633159999866,
                    "velocity": 0.29133858267716534,
                    "duration": 0.17123299999997244
                },
                {
                    "name": "G4",
                    "midi": 67,
                    "time": 420.03454899998655,
                    "velocity": 0.2440944881889764,
                    "duration": 0.17123299999997244
                },
                {
                    "name": "C4",
                    "midi": 60,
                    "time": 420.2057819999865,
                    "velocity": 0.2755905511811024,
                    "duration": 0.17123299999997244
                },
                {
                    "name": "G4",
                    "midi": 67,
                    "time": 420.3770149999865,
                    "velocity": 0.2440944881889764,
                    "duration": 0.17123299999997244
                },
                {
                    "name": "D4",
                    "midi": 62,
                    "time": 420.5482479999865,
                    "velocity": 0.29133858267716534,
                    "duration": 0.17123299999997244
                },
                {
                    "name": "G4",
                    "midi": 67,
                    "time": 420.71948099998644,
                    "velocity": 0.2677165354330709,
                    "duration": 0.17123299999997244
                },
                {
                    "name": "C4",
                    "midi": 60,
                    "time": 420.8907139999864,
                    "velocity": 0.29133858267716534,
                    "duration": 0.17123299999997244
                },
                {
                    "name": "G4",
                    "midi": 67,
                    "time": 421.0619469999864,
                    "velocity": 0.2677165354330709,
                    "duration": 0.17123299999997244
                },
                {
                    "name": "B3",
                    "midi": 59,
                    "time": 421.23317999998636,
                    "velocity": 0.29133858267716534,
                    "duration": 0.17123299999997244
                },
                {
                    "name": "G4",
                    "midi": 67,
                    "time": 421.40441299998633,
                    "velocity": 0.2677165354330709,
                    "duration": 0.17123299999997244
                },
                {
                    "name": "G3",
                    "midi": 55,
                    "time": 421.5756459999863,
                    "velocity": 0.29133858267716534,
                    "duration": 0.17123299999997244
                },
                {
                    "name": "G4",
                    "midi": 67,
                    "time": 421.7468789999863,
                    "velocity": 0.2677165354330709,
                    "duration": 0.17123299999997244
                },
                {
                    "name": "C4",
                    "midi": 60,
                    "time": 421.91811199998625,
                    "velocity": 0.2677165354330709,
                    "duration": 0.17123299999997244
                },
                {
                    "name": "G4",
                    "midi": 67,
                    "time": 422.0893449999862,
                    "velocity": 0.25196850393700787,
                    "duration": 0.17123299999997244
                },
                {
                    "name": "E4",
                    "midi": 64,
                    "time": 422.2605779999862,
                    "velocity": 0.25196850393700787,
                    "duration": 0.17123299999997244
                },
                {
                    "name": "G4",
                    "midi": 67,
                    "time": 422.43181099998617,
                    "velocity": 0.25196850393700787,
                    "duration": 0.17123299999997244
                },
                {
                    "name": "C4",
                    "midi": 60,
                    "time": 422.60304399998614,
                    "velocity": 0.29133858267716534,
                    "duration": 0.17123299999997244
                },
                {
                    "name": "A4",
                    "midi": 69,
                    "time": 422.7742769999861,
                    "velocity": 0.2283464566929134,
                    "duration": 0.17123299999997244
                },
                {
                    "name": "F4",
                    "midi": 65,
                    "time": 422.9455099999861,
                    "velocity": 0.25196850393700787,
                    "duration": 0.17123299999997244
                },
                {
                    "name": "A4",
                    "midi": 69,
                    "time": 423.11674299998606,
                    "velocity": 0.2283464566929134,
                    "duration": 0.17123299999997244
                },
                {
                    "name": "C4",
                    "midi": 60,
                    "time": 423.28797599998603,
                    "velocity": 0.25196850393700787,
                    "duration": 0.17123299999997244
                },
                {
                    "name": "G4",
                    "midi": 67,
                    "time": 423.459208999986,
                    "velocity": 0.23622047244094488,
                    "duration": 0.17123299999997244
                },
                {
                    "name": "E4",
                    "midi": 64,
                    "time": 423.630441999986,
                    "velocity": 0.25196850393700787,
                    "duration": 0.17123299999997244
                },
                {
                    "name": "G4",
                    "midi": 67,
                    "time": 423.80167499998595,
                    "velocity": 0.2440944881889764,
                    "duration": 0.17123299999997244
                },
                {
                    "name": "A#3",
                    "midi": 58,
                    "time": 423.9729079999859,
                    "velocity": 0.25196850393700787,
                    "duration": 0.17123299999997244
                },
                {
                    "name": "F4",
                    "midi": 65,
                    "time": 424.1441409999859,
                    "velocity": 0.23622047244094488,
                    "duration": 0.17123299999997244
                },
                {
                    "name": "D4",
                    "midi": 62,
                    "time": 424.31537399998587,
                    "velocity": 0.25196850393700787,
                    "duration": 0.17123299999997244
                },
                {
                    "name": "F4",
                    "midi": 65,
                    "time": 424.48660699998584,
                    "velocity": 0.23622047244094488,
                    "duration": 0.17123299999997244
                },
                {
                    "name": "A3",
                    "midi": 57,
                    "time": 424.6578399999858,
                    "velocity": 0.25196850393700787,
                    "duration": 0.17123299999997244
                },
                {
                    "name": "F4",
                    "midi": 65,
                    "time": 424.8290729999858,
                    "velocity": 0.23622047244094488,
                    "duration": 0.17123299999997244
                },
                {
                    "name": "C4",
                    "midi": 60,
                    "time": 425.00030599998576,
                    "velocity": 0.25196850393700787,
                    "duration": 0.17123299999997244
                },
                {
                    "name": "F4",
                    "midi": 65,
                    "time": 425.1715389999857,
                    "velocity": 0.23622047244094488,
                    "duration": 0.17123299999997244
                },
                {
                    "name": "F3",
                    "midi": 53,
                    "time": 425.3427719999857,
                    "velocity": 0.31496062992125984,
                    "duration": 0.17123299999997244
                },
                {
                    "name": "D4",
                    "midi": 62,
                    "time": 425.5140049999857,
                    "velocity": 0.2677165354330709,
                    "duration": 0.17123299999997244
                },
                {
                    "name": "A3",
                    "midi": 57,
                    "time": 425.68523799998565,
                    "velocity": 0.31496062992125984,
                    "duration": 0.17123299999997244
                },
                {
                    "name": "D4",
                    "midi": 62,
                    "time": 425.8564709999856,
                    "velocity": 0.25984251968503935,
                    "duration": 0.17123299999997244
                },
                {
                    "name": "G3",
                    "midi": 55,
                    "time": 426.0277039999856,
                    "velocity": 0.30708661417322836,
                    "duration": 0.17123299999997244
                },
                {
                    "name": "E4",
                    "midi": 64,
                    "time": 426.19893699998556,
                    "velocity": 0.2677165354330709,
                    "duration": 0.17123299999997244
                },
                {
                    "name": "C4",
                    "midi": 60,
                    "time": 426.37016999998554,
                    "velocity": 0.30708661417322836,
                    "duration": 0.17123299999997244
                },
                {
                    "name": "E4",
                    "midi": 64,
                    "time": 426.5414029999855,
                    "velocity": 0.2677165354330709,
                    "duration": 0.17123299999997244
                },
                {
                    "name": "G3",
                    "midi": 55,
                    "time": 426.7126359999855,
                    "velocity": 0.30708661417322836,
                    "duration": 0.17123299999997244
                },
                {
                    "name": "F4",
                    "midi": 65,
                    "time": 426.88386899998545,
                    "velocity": 0.2677165354330709,
                    "duration": 0.17123299999997244
                },
                {
                    "name": "B3",
                    "midi": 59,
                    "time": 427.0551019999854,
                    "velocity": 0.2992125984251969,
                    "duration": 0.17123299999997244
                },
                {
                    "name": "F4",
                    "midi": 65,
                    "time": 427.2263349999854,
                    "velocity": 0.25984251968503935,
                    "duration": 0.17123299999997244
                },
                {
                    "name": "C3",
                    "midi": 48,
                    "time": 427.39756799998537,
                    "velocity": 0.31496062992125984,
                    "duration": 0.17123299999997244
                },
                {
                    "name": "G3",
                    "midi": 55,
                    "time": 427.56880099998534,
                    "velocity": 0.2755905511811024,
                    "duration": 0.17123299999997244
                },
                {
                    "name": "E3",
                    "midi": 52,
                    "time": 427.7400339999853,
                    "velocity": 0.31496062992125984,
                    "duration": 0.17123299999997244
                },
                {
                    "name": "G3",
                    "midi": 55,
                    "time": 427.9112669999853,
                    "velocity": 0.2677165354330709,
                    "duration": 0.17123299999997244
                },
                {
                    "name": "C3",
                    "midi": 48,
                    "time": 428.08249999998526,
                    "velocity": 0.25196850393700787,
                    "duration": 0.17123299999997244
                },
                {
                    "name": "A3",
                    "midi": 57,
                    "time": 428.25373299998523,
                    "velocity": 0.23622047244094488,
                    "duration": 0.17123299999997244
                },
                {
                    "name": "F3",
                    "midi": 53,
                    "time": 428.4249659999852,
                    "velocity": 0.25196850393700787,
                    "duration": 0.17123299999997244
                },
                {
                    "name": "A3",
                    "midi": 57,
                    "time": 428.5961989999852,
                    "velocity": 0.23622047244094488,
                    "duration": 0.17123299999997244
                },
                {
                    "name": "C3",
                    "midi": 48,
                    "time": 428.76743199998515,
                    "velocity": 0.25196850393700787,
                    "duration": 0.17123299999997244
                },
                {
                    "name": "G3",
                    "midi": 55,
                    "time": 428.9386649999851,
                    "velocity": 0.23622047244094488,
                    "duration": 0.17123299999997244
                },
                {
                    "name": "E3",
                    "midi": 52,
                    "time": 429.1098979999851,
                    "velocity": 0.25196850393700787,
                    "duration": 0.17123299999997244
                },
                {
                    "name": "G3",
                    "midi": 55,
                    "time": 429.28113099998507,
                    "velocity": 0.23622047244094488,
                    "duration": 0.17123299999997244
                },
                {
                    "name": "A#2",
                    "midi": 46,
                    "time": 429.45236399998504,
                    "velocity": 0.25196850393700787,
                    "duration": 0.17123299999997244
                },
                {
                    "name": "F3",
                    "midi": 53,
                    "time": 429.623596999985,
                    "velocity": 0.2283464566929134,
                    "duration": 0.17123299999997244
                },
                {
                    "name": "D3",
                    "midi": 50,
                    "time": 429.794829999985,
                    "velocity": 0.25196850393700787,
                    "duration": 0.17123299999997244
                },
                {
                    "name": "F3",
                    "midi": 53,
                    "time": 429.96606299998496,
                    "velocity": 0.2283464566929134,
                    "duration": 0.17123299999997244
                },
                {
                    "name": "A2",
                    "midi": 45,
                    "time": 430.13729599998493,
                    "velocity": 0.2677165354330709,
                    "duration": 0.17123299999997244
                },
                {
                    "name": "F3",
                    "midi": 53,
                    "time": 430.3085289999849,
                    "velocity": 0.23622047244094488,
                    "duration": 0.17123299999997244
                },
                {
                    "name": "C3",
                    "midi": 48,
                    "time": 430.4797619999849,
                    "velocity": 0.25984251968503935,
                    "duration": 0.17123299999997244
                },
                {
                    "name": "F3",
                    "midi": 53,
                    "time": 430.65099499998485,
                    "velocity": 0.2283464566929134,
                    "duration": 0.17123299999997244
                },
                {
                    "name": "F2",
                    "midi": 41,
                    "time": 430.8222279999848,
                    "velocity": 0.3228346456692913,
                    "duration": 0.17123299999997244
                },
                {
                    "name": "D3",
                    "midi": 50,
                    "time": 430.9934609999848,
                    "velocity": 0.2992125984251969,
                    "duration": 0.17123299999997244
                },
                {
                    "name": "A2",
                    "midi": 45,
                    "time": 431.16469399998476,
                    "velocity": 0.31496062992125984,
                    "duration": 0.17123299999997244
                },
                {
                    "name": "D3",
                    "midi": 50,
                    "time": 431.33592699998474,
                    "velocity": 0.29133858267716534,
                    "duration": 0.17123299999997244
                },
                {
                    "name": "G2",
                    "midi": 43,
                    "time": 431.5071599999847,
                    "velocity": 0.31496062992125984,
                    "duration": 0.17123299999997244
                },
                {
                    "name": "E3",
                    "midi": 52,
                    "time": 431.6783929999847,
                    "velocity": 0.29133858267716534,
                    "duration": 0.17123299999997244
                },
                {
                    "name": "C3",
                    "midi": 48,
                    "time": 431.84962599998465,
                    "velocity": 0.30708661417322836,
                    "duration": 0.17123299999997244
                },
                {
                    "name": "E3",
                    "midi": 52,
                    "time": 432.0208589999846,
                    "velocity": 0.25196850393700787,
                    "duration": 0.17123299999997244
                },
                {
                    "name": "G2",
                    "midi": 43,
                    "time": 432.1920919999846,
                    "velocity": 0.2992125984251969,
                    "duration": 0.17123299999997244
                },
                {
                    "name": "F3",
                    "midi": 53,
                    "time": 432.36332499998457,
                    "velocity": 0.25984251968503935,
                    "duration": 0.17123299999997244
                },
                {
                    "name": "D3",
                    "midi": 50,
                    "time": 432.53455799998454,
                    "velocity": 0.2992125984251969,
                    "duration": 0.17123299999997244
                },
                {
                    "name": "F3",
                    "midi": 53,
                    "time": 432.7057909999845,
                    "velocity": 0.25196850393700787,
                    "duration": 0.17123299999997244
                },
                {
                    "name": "C3",
                    "midi": 48,
                    "time": 433.2194899999845,
                    "velocity": 0.2992125984251969,
                    "duration": 0.3424660000000017
                },
                {
                    "name": "E3",
                    "midi": 52,
                    "time": 433.2194899999845,
                    "velocity": 0.2992125984251969,
                    "duration": 0.3424660000000017
                },
                {
                    "name": "D3",
                    "midi": 50,
                    "time": 433.5619559999845,
                    "velocity": 0.3464566929133858,
                    "duration": 0.3424660000000017
                },
                {
                    "name": "F3",
                    "midi": 53,
                    "time": 433.5619559999845,
                    "velocity": 0.3464566929133858,
                    "duration": 0.3424660000000017
                },
                {
                    "name": "G3",
                    "midi": 55,
                    "time": 433.9044219999845,
                    "velocity": 0.3858267716535433,
                    "duration": 0.3424660000000017
                },
                {
                    "name": "E3",
                    "midi": 52,
                    "time": 433.9044219999845,
                    "velocity": 0.3858267716535433,
                    "duration": 0.3424660000000017
                },
                {
                    "name": "G2",
                    "midi": 43,
                    "time": 434.5893539999845,
                    "velocity": 0.29133858267716534,
                    "duration": 0.3424660000000017
                },
                {
                    "name": "B2",
                    "midi": 47,
                    "time": 434.5893539999845,
                    "velocity": 0.29133858267716534,
                    "duration": 0.3424660000000017
                },
                {
                    "name": "A2",
                    "midi": 45,
                    "time": 434.9318199999845,
                    "velocity": 0.31496062992125984,
                    "duration": 0.3424660000000017
                },
                {
                    "name": "C3",
                    "midi": 48,
                    "time": 434.9318199999845,
                    "velocity": 0.31496062992125984,
                    "duration": 0.3424660000000017
                },
                {
                    "name": "B2",
                    "midi": 47,
                    "time": 435.2742859999845,
                    "velocity": 0.3464566929133858,
                    "duration": 0.3424660000000017
                },
                {
                    "name": "D3",
                    "midi": 50,
                    "time": 435.2742859999845,
                    "velocity": 0.3464566929133858,
                    "duration": 0.3424660000000017
                },
                {
                    "name": "C3",
                    "midi": 48,
                    "time": 435.9592179999845,
                    "velocity": 0.2992125984251969,
                    "duration": 0.3424660000000017
                },
                {
                    "name": "E3",
                    "midi": 52,
                    "time": 435.9592179999845,
                    "velocity": 0.2992125984251969,
                    "duration": 0.3424660000000017
                },
                {
                    "name": "D3",
                    "midi": 50,
                    "time": 436.3016839999845,
                    "velocity": 0.3464566929133858,
                    "duration": 0.3424660000000017
                },
                {
                    "name": "F3",
                    "midi": 53,
                    "time": 436.3016839999845,
                    "velocity": 0.3464566929133858,
                    "duration": 0.3424660000000017
                },
                {
                    "name": "G3",
                    "midi": 55,
                    "time": 436.6441499999845,
                    "velocity": 0.3858267716535433,
                    "duration": 0.3424660000000017
                },
                {
                    "name": "E3",
                    "midi": 52,
                    "time": 436.6441499999845,
                    "velocity": 0.3858267716535433,
                    "duration": 0.3424660000000017
                },
                {
                    "name": "G2",
                    "midi": 43,
                    "time": 437.3290819999845,
                    "velocity": 0.29133858267716534,
                    "duration": 0.3424660000000017
                },
                {
                    "name": "B2",
                    "midi": 47,
                    "time": 437.3290819999845,
                    "velocity": 0.29133858267716534,
                    "duration": 0.3424660000000017
                },
                {
                    "name": "A2",
                    "midi": 45,
                    "time": 437.6715479999845,
                    "velocity": 0.31496062992125984,
                    "duration": 0.3424660000000017
                },
                {
                    "name": "C3",
                    "midi": 48,
                    "time": 437.6715479999845,
                    "velocity": 0.31496062992125984,
                    "duration": 0.3424660000000017
                },
                {
                    "name": "B2",
                    "midi": 47,
                    "time": 438.0140139999845,
                    "velocity": 0.3464566929133858,
                    "duration": 0.3424660000000017
                },
                {
                    "name": "D3",
                    "midi": 50,
                    "time": 438.0140139999845,
                    "velocity": 0.3464566929133858,
                    "duration": 0.3424660000000017
                },
                {
                    "name": "C3",
                    "midi": 48,
                    "time": 438.3564799999845,
                    "velocity": 0.3464566929133858,
                    "duration": 0.6849320000000034
                },
                {
                    "name": "G3",
                    "midi": 55,
                    "time": 439.7263439999845,
                    "velocity": 0.3464566929133858,
                    "duration": 1.0273980000000051
                },
                {
                    "name": "C4",
                    "midi": 60,
                    "time": 439.7263439999845,
                    "velocity": 0.3464566929133858,
                    "duration": 2.0547960000000103
                },
                {
                    "name": "E3",
                    "midi": 52,
                    "time": 439.7263439999845,
                    "velocity": 0.3464566929133858,
                    "duration": 1.3698640000000069
                },
                {
                    "name": "A#3",
                    "midi": 58,
                    "time": 440.7537419999845,
                    "velocity": 0.3464566929133858,
                    "duration": 0.3424660000000017
                },
                {
                    "name": "F3",
                    "midi": 53,
                    "time": 441.09620799998453,
                    "velocity": 0.2992125984251969,
                    "duration": 0.6849320000000034
                },
                {
                    "name": "F#3",
                    "midi": 54,
                    "time": 442.80853799998454,
                    "velocity": 0.29133858267716534,
                    "duration": 0.3424660000000017
                },
                {
                    "name": "D#4",
                    "midi": 63,
                    "time": 442.80853799998454,
                    "velocity": 0.29133858267716534,
                    "duration": 0.3424660000000017
                },
                {
                    "name": "G3",
                    "midi": 55,
                    "time": 443.15100399998454,
                    "velocity": 0.31496062992125984,
                    "duration": 0.3424660000000017
                },
                {
                    "name": "E4",
                    "midi": 64,
                    "time": 443.15100399998454,
                    "velocity": 0.31496062992125984,
                    "duration": 0.3424660000000017
                },
                {
                    "name": "F4",
                    "midi": 65,
                    "time": 443.49346999998454,
                    "velocity": 0.3464566929133858,
                    "duration": 0.3424660000000017
                },
                {
                    "name": "E4",
                    "midi": 64,
                    "time": 443.83593599998454,
                    "velocity": 0.3464566929133858,
                    "duration": 0.6849320000000034
                },
                {
                    "name": "C4",
                    "midi": 60,
                    "time": 443.83593599998454,
                    "velocity": 0.3464566929133858,
                    "duration": 0.6849320000000034
                },
                {
                    "name": "G3",
                    "midi": 55,
                    "time": 445.20579999998455,
                    "velocity": 0.3464566929133858,
                    "duration": 1.0273980000000051
                },
                {
                    "name": "C4",
                    "midi": 60,
                    "time": 445.20579999998455,
                    "velocity": 0.3464566929133858,
                    "duration": 2.0547960000000103
                },
                {
                    "name": "E3",
                    "midi": 52,
                    "time": 445.20579999998455,
                    "velocity": 0.3464566929133858,
                    "duration": 1.3698640000000069
                },
                {
                    "name": "A#3",
                    "midi": 58,
                    "time": 446.23319799998455,
                    "velocity": 0.3464566929133858,
                    "duration": 0.3424660000000017
                },
                {
                    "name": "A3",
                    "midi": 57,
                    "time": 446.57566399998456,
                    "velocity": 0.2992125984251969,
                    "duration": 0.6849320000000034
                },
                {
                    "name": "F3",
                    "midi": 53,
                    "time": 446.57566399998456,
                    "velocity": 0.2992125984251969,
                    "duration": 0.6849320000000034
                },
                {
                    "name": "F#3",
                    "midi": 54,
                    "time": 447.94552799998456,
                    "velocity": 0.3228346456692913,
                    "duration": 0.6849320000000034
                },
                {
                    "name": "D#4",
                    "midi": 63,
                    "time": 447.94552799998456,
                    "velocity": 0.3228346456692913,
                    "duration": 0.6849320000000034
                },
                {
                    "name": "G3",
                    "midi": 55,
                    "time": 449.31539199998457,
                    "velocity": 0.3779527559055118,
                    "duration": 0.17123299999997244
                },
                {
                    "name": "E4",
                    "midi": 64,
                    "time": 449.48662499998454,
                    "velocity": 0.30708661417322836,
                    "duration": 0.17123299999997244
                },
                {
                    "name": "C4",
                    "midi": 60,
                    "time": 449.6578579999845,
                    "velocity": 0.3228346456692913,
                    "duration": 0.17123299999997244
                },
                {
                    "name": "E4",
                    "midi": 64,
                    "time": 449.8290909999845,
                    "velocity": 0.30708661417322836,
                    "duration": 0.17123299999997244
                },
                {
                    "name": "G3",
                    "midi": 55,
                    "time": 450.00032399998446,
                    "velocity": 0.3779527559055118,
                    "duration": 0.17123299999997244
                },
                {
                    "name": "E4",
                    "midi": 64,
                    "time": 450.17155699998443,
                    "velocity": 0.2992125984251969,
                    "duration": 0.17123299999997244
                },
                {
                    "name": "C4",
                    "midi": 60,
                    "time": 450.3427899999844,
                    "velocity": 0.3228346456692913,
                    "duration": 0.17123299999997244
                },
                {
                    "name": "E4",
                    "midi": 64,
                    "time": 450.5140229999844,
                    "velocity": 0.30708661417322836,
                    "duration": 0.17123299999997244
                },
                {
                    "name": "G3",
                    "midi": 55,
                    "time": 450.68525599998435,
                    "velocity": 0.33858267716535434,
                    "duration": 0.17123299999997244
                },
                {
                    "name": "G4",
                    "midi": 67,
                    "time": 450.8564889999843,
                    "velocity": 0.28346456692913385,
                    "duration": 0.17123299999997244
                },
                {
                    "name": "C4",
                    "midi": 60,
                    "time": 451.0277219999843,
                    "velocity": 0.2992125984251969,
                    "duration": 0.17123299999997244
                },
                {
                    "name": "G4",
                    "midi": 67,
                    "time": 451.19895499998427,
                    "velocity": 0.2755905511811024,
                    "duration": 0.17123299999997244
                },
                {
                    "name": "G3",
                    "midi": 55,
                    "time": 451.37018799998424,
                    "velocity": 0.30708661417322836,
                    "duration": 0.17123299999997244
                },
                {
                    "name": "F4",
                    "midi": 65,
                    "time": 451.5414209999842,
                    "velocity": 0.23622047244094488,
                    "duration": 0.17123299999997244
                },
                {
                    "name": "B3",
                    "midi": 59,
                    "time": 451.7126539999842,
                    "velocity": 0.25196850393700787,
                    "duration": 0.17123299999997244
                },
                {
                    "name": "F4",
                    "midi": 65,
                    "time": 451.88388699998416,
                    "velocity": 0.23622047244094488,
                    "duration": 0.17123299999997244
                },
                {
                    "name": "C3",
                    "midi": 48,
                    "time": 452.05511999998413,
                    "velocity": 0.2755905511811024,
                    "duration": 0.17123299999997244
                },
                {
                    "name": "E3",
                    "midi": 52,
                    "time": 452.2263529999841,
                    "velocity": 0.23622047244094488,
                    "duration": 0.17123299999997244
                },
                {
                    "name": "C4",
                    "midi": 60,
                    "time": 452.3975859999841,
                    "velocity": 0.25196850393700787,
                    "duration": 0.17123299999997244
                },
                {
                    "name": "E3",
                    "midi": 52,
                    "time": 452.56881899998405,
                    "velocity": 0.23622047244094488,
                    "duration": 0.17123299999997244
                },
                {
                    "name": "C3",
                    "midi": 48,
                    "time": 452.740051999984,
                    "velocity": 0.2755905511811024,
                    "duration": 0.17123299999997244
                },
                {
                    "name": "E3",
                    "midi": 52,
                    "time": 452.911284999984,
                    "velocity": 0.23622047244094488,
                    "duration": 0.17123299999997244
                },
                {
                    "name": "C4",
                    "midi": 60,
                    "time": 453.08251799998396,
                    "velocity": 0.25196850393700787,
                    "duration": 0.17123299999997244
                },
                {
                    "name": "E3",
                    "midi": 52,
                    "time": 453.25375099998394,
                    "velocity": 0.23622047244094488,
                    "duration": 0.17123299999997244
                },
                {
                    "name": "C3",
                    "midi": 48,
                    "time": 453.4249839999839,
                    "velocity": 0.2755905511811024,
                    "duration": 0.17123299999997244
                },
                {
                    "name": "D3",
                    "midi": 50,
                    "time": 453.5962169999839,
                    "velocity": 0.23622047244094488,
                    "duration": 0.17123299999997244
                },
                {
                    "name": "B3",
                    "midi": 59,
                    "time": 453.76744999998385,
                    "velocity": 0.25196850393700787,
                    "duration": 0.17123299999997244
                },
                {
                    "name": "D3",
                    "midi": 50,
                    "time": 453.9386829999838,
                    "velocity": 0.23622047244094488,
                    "duration": 0.17123299999997244
                },
                {
                    "name": "C3",
                    "midi": 48,
                    "time": 454.1099159999838,
                    "velocity": 0.2755905511811024,
                    "duration": 0.17123299999997244
                },
                {
                    "name": "F3",
                    "midi": 53,
                    "time": 454.28114899998377,
                    "velocity": 0.23622047244094488,
                    "duration": 0.17123299999997244
                },
                {
                    "name": "B3",
                    "midi": 59,
                    "time": 454.45238199998374,
                    "velocity": 0.25196850393700787,
                    "duration": 0.17123299999997244
                },
                {
                    "name": "F3",
                    "midi": 53,
                    "time": 454.6236149999837,
                    "velocity": 0.23622047244094488,
                    "duration": 0.17123299999997244
                },
                {
                    "name": "C3",
                    "midi": 48,
                    "time": 454.7948479999837,
                    "velocity": 0.2755905511811024,
                    "duration": 0.17123299999997244
                },
                {
                    "name": "E3",
                    "midi": 52,
                    "time": 454.96608099998366,
                    "velocity": 0.23622047244094488,
                    "duration": 0.17123299999997244
                },
                {
                    "name": "C4",
                    "midi": 60,
                    "time": 455.13731399998363,
                    "velocity": 0.25196850393700787,
                    "duration": 0.17123299999997244
                },
                {
                    "name": "E3",
                    "midi": 52,
                    "time": 455.3085469999836,
                    "velocity": 0.23622047244094488,
                    "duration": 0.17123299999997244
                },
                {
                    "name": "C3",
                    "midi": 48,
                    "time": 455.4797799999836,
                    "velocity": 0.2755905511811024,
                    "duration": 0.17123299999997244
                },
                {
                    "name": "E3",
                    "midi": 52,
                    "time": 455.65101299998355,
                    "velocity": 0.23622047244094488,
                    "duration": 0.17123299999997244
                },
                {
                    "name": "C4",
                    "midi": 60,
                    "time": 455.8222459999835,
                    "velocity": 0.25196850393700787,
                    "duration": 0.17123299999997244
                },
                {
                    "name": "E3",
                    "midi": 52,
                    "time": 455.9934789999835,
                    "velocity": 0.23622047244094488,
                    "duration": 0.17123299999997244
                },
                {
                    "name": "C3",
                    "midi": 48,
                    "time": 456.16471199998347,
                    "velocity": 0.2755905511811024,
                    "duration": 0.17123299999997244
                },
                {
                    "name": "D3",
                    "midi": 50,
                    "time": 456.33594499998344,
                    "velocity": 0.23622047244094488,
                    "duration": 0.17123299999997244
                },
                {
                    "name": "B3",
                    "midi": 59,
                    "time": 456.5071779999834,
                    "velocity": 0.25196850393700787,
                    "duration": 0.17123299999997244
                },
                {
                    "name": "D3",
                    "midi": 50,
                    "time": 456.6784109999834,
                    "velocity": 0.23622047244094488,
                    "duration": 0.17123299999997244
                },
                {
                    "name": "C3",
                    "midi": 48,
                    "time": 456.84964399998336,
                    "velocity": 0.2755905511811024,
                    "duration": 0.17123299999997244
                },
                {
                    "name": "F3",
                    "midi": 53,
                    "time": 457.02087699998333,
                    "velocity": 0.23622047244094488,
                    "duration": 0.17123299999997244
                },
                {
                    "name": "B3",
                    "midi": 59,
                    "time": 457.1921099999833,
                    "velocity": 0.25196850393700787,
                    "duration": 0.17123299999997244
                },
                {
                    "name": "F3",
                    "midi": 53,
                    "time": 457.3633429999833,
                    "velocity": 0.23622047244094488,
                    "duration": 0.17123299999997244
                },
                {
                    "name": "C3",
                    "midi": 48,
                    "time": 457.53457599998325,
                    "velocity": 0.2755905511811024,
                    "duration": 0.17123299999997244
                },
                {
                    "name": "E3",
                    "midi": 52,
                    "time": 457.7058089999832,
                    "velocity": 0.23622047244094488,
                    "duration": 0.17123299999997244
                },
                {
                    "name": "C4",
                    "midi": 60,
                    "time": 457.8770419999832,
                    "velocity": 0.25196850393700787,
                    "duration": 0.17123299999997244
                },
                {
                    "name": "E3",
                    "midi": 52,
                    "time": 458.04827499998316,
                    "velocity": 0.23622047244094488,
                    "duration": 0.17123299999997244
                },
                {
                    "name": "C3",
                    "midi": 48,
                    "time": 458.21950799998314,
                    "velocity": 0.2755905511811024,
                    "duration": 0.17123299999997244
                },
                {
                    "name": "F3",
                    "midi": 53,
                    "time": 458.3907409999831,
                    "velocity": 0.23622047244094488,
                    "duration": 0.17123299999997244
                },
                {
                    "name": "B3",
                    "midi": 59,
                    "time": 458.5619739999831,
                    "velocity": 0.25196850393700787,
                    "duration": 0.17123299999997244
                },
                {
                    "name": "F3",
                    "midi": 53,
                    "time": 458.73320699998305,
                    "velocity": 0.23622047244094488,
                    "duration": 0.17123299999997244
                },
                {
                    "name": "C3",
                    "midi": 48,
                    "time": 458.904439999983,
                    "velocity": 0.2755905511811024,
                    "duration": 0.17123299999997244
                },
                {
                    "name": "E3",
                    "midi": 52,
                    "time": 459.075672999983,
                    "velocity": 0.23622047244094488,
                    "duration": 0.17123299999997244
                },
                {
                    "name": "C4",
                    "midi": 60,
                    "time": 459.24690599998297,
                    "velocity": 0.25196850393700787,
                    "duration": 0.17123299999997244
                },
                {
                    "name": "E3",
                    "midi": 52,
                    "time": 459.41813899998294,
                    "velocity": 0.23622047244094488,
                    "duration": 0.17123299999997244
                },
                {
                    "name": "C3",
                    "midi": 48,
                    "time": 459.5893719999829,
                    "velocity": 0.2755905511811024,
                    "duration": 0.17123299999997244
                },
                {
                    "name": "F3",
                    "midi": 53,
                    "time": 459.7606049999829,
                    "velocity": 0.23622047244094488,
                    "duration": 0.17123299999997244
                },
                {
                    "name": "B3",
                    "midi": 59,
                    "time": 459.93183799998286,
                    "velocity": 0.25196850393700787,
                    "duration": 0.17123299999997244
                },
                {
                    "name": "F3",
                    "midi": 53,
                    "time": 460.10307099998283,
                    "velocity": 0.23622047244094488,
                    "duration": 0.17123299999997244
                },
                {
                    "name": "C3",
                    "midi": 48,
                    "time": 460.2743039999828,
                    "velocity": 0.2755905511811024,
                    "duration": 0.17123299999997244
                },
                {
                    "name": "E3",
                    "midi": 52,
                    "time": 460.4455369999828,
                    "velocity": 0.23622047244094488,
                    "duration": 0.17123299999997244
                },
                {
                    "name": "C4",
                    "midi": 60,
                    "time": 460.61676999998275,
                    "velocity": 0.25196850393700787,
                    "duration": 0.17123299999997244
                },
                {
                    "name": "E3",
                    "midi": 52,
                    "time": 460.7880029999827,
                    "velocity": 0.2440944881889764,
                    "duration": 0.17123299999997244
                },
                {
                    "name": "C3",
                    "midi": 48,
                    "time": 460.9592359999827,
                    "velocity": 0.3228346456692913,
                    "duration": 0.17123299999997244
                },
                {
                    "name": "F3",
                    "midi": 53,
                    "time": 461.13046899998267,
                    "velocity": 0.2755905511811024,
                    "duration": 0.17123299999997244
                },
                {
                    "name": "B3",
                    "midi": 59,
                    "time": 461.30170199998264,
                    "velocity": 0.2755905511811024,
                    "duration": 0.17123299999997244
                },
                {
                    "name": "F3",
                    "midi": 53,
                    "time": 461.4729349999826,
                    "velocity": 0.25196850393700787,
                    "duration": 0.17123299999997244
                },
                {
                    "name": "C3",
                    "midi": 48,
                    "time": 461.6441679999826,
                    "velocity": 0.2755905511811024,
                    "duration": 0.17123299999997244
                },
                {
                    "name": "E3",
                    "midi": 52,
                    "time": 461.81540099998256,
                    "velocity": 0.23622047244094488,
                    "duration": 0.17123299999997244
                },
                {
                    "name": "C4",
                    "midi": 60,
                    "time": 461.98663399998253,
                    "velocity": 0.25196850393700787,
                    "duration": 0.17123299999997244
                },
                {
                    "name": "E3",
                    "midi": 52,
                    "time": 462.1578669999825,
                    "velocity": 0.23622047244094488,
                    "duration": 0.17123299999997244
                },
                {
                    "name": "C3",
                    "midi": 48,
                    "time": 462.3290999999825,
                    "velocity": 0.3228346456692913,
                    "duration": 0.17123299999997244
                },
                {
                    "name": "F3",
                    "midi": 53,
                    "time": 462.50033299998245,
                    "velocity": 0.2755905511811024,
                    "duration": 0.17123299999997244
                },
                {
                    "name": "B3",
                    "midi": 59,
                    "time": 462.6715659999824,
                    "velocity": 0.25196850393700787,
                    "duration": 0.17123299999997244
                },
                {
                    "name": "F3",
                    "midi": 53,
                    "time": 462.8427989999824,
                    "velocity": 0.23622047244094488,
                    "duration": 0.17123299999997244
                },
                {
                    "name": "C3",
                    "midi": 48,
                    "time": 463.01403199998236,
                    "velocity": 0.2755905511811024,
                    "duration": 0.6849320000000034
                },
                {
                    "name": "E3",
                    "midi": 52,
                    "time": 463.01403199998236,
                    "velocity": 0.2755905511811024,
                    "duration": 0.6849320000000034
                },
                {
                    "name": "G#3",
                    "midi": 56,
                    "time": 464.04142999998237,
                    "velocity": 0.25984251968503935,
                    "duration": 0.08561650000001464
                },
                {
                    "name": "A3",
                    "midi": 57,
                    "time": 464.38389599998237,
                    "velocity": 0.25984251968503935,
                    "duration": 1.0273980000000051
                },
                {
                    "name": "F2",
                    "midi": 41,
                    "time": 465.7537599999824,
                    "velocity": 0.4094488188976378,
                    "duration": 0.17123299999997244
                },
                {
                    "name": "F3",
                    "midi": 53,
                    "time": 465.7537599999824,
                    "velocity": 0.48031496062992124,
                    "duration": 0.17123299999997244
                },
                {
                    "name": "G2",
                    "midi": 43,
                    "time": 466.4386919999823,
                    "velocity": 0.4094488188976378,
                    "duration": 0.17123299999997244
                },
                {
                    "name": "G3",
                    "midi": 55,
                    "time": 466.4386919999823,
                    "velocity": 0.48031496062992124,
                    "duration": 0.17123299999997244
                },
                {
                    "name": "C2",
                    "midi": 36,
                    "time": 467.12362399998227,
                    "velocity": 0.3858267716535433,
                    "duration": 0.17123299999997244
                },
                {
                    "name": "E2",
                    "midi": 40,
                    "time": 467.12362399998227,
                    "velocity": 0.3858267716535433,
                    "duration": 0.17123299999997244
                },
                {
                    "name": "G2",
                    "midi": 43,
                    "time": 467.12362399998227,
                    "velocity": 0.3858267716535433,
                    "duration": 0.17123299999997244
                },
                {
                    "name": "C3",
                    "midi": 48,
                    "time": 467.12362399998227,
                    "velocity": 0.4645669291338583,
                    "duration": 0.17123299999997244
                }
            ],
            "controlChanges": {
                "7": [
                    {
                        "number": 7,
                        "time": 0,
                        "value": 0.7874015748031497
                    }
                ],
                "10": [
                    {
                        "number": 10,
                        "time": 0,
                        "value": 0.5039370078740157
                    }
                ],
                "91": [
                    {
                        "number": 91,
                        "time": 0,
                        "value": 1
                    },
                    {
                        "number": 91,
                        "time": 93.1507520000004,
                        "value": 1
                    },
                    {
                        "number": 91,
                        "time": 186.3015040000009,
                        "value": 1
                    },
                    {
                        "number": 91,
                        "time": 223.287832000001,
                        "value": 1
                    },
                    {
                        "number": 91,
                        "time": 327.3974959999944,
                        "value": 1
                    },
                    {
                        "number": 91,
                        "time": 364.3838239999911,
                        "value": 1
                    }
                ]
            },
            "id": 2,
            "name": "Piano left",
            "instrumentNumber": 0,
            "instrument": "acoustic grand piano",
            "instrumentFamily": "piano",
            "channelNumber": 0,
            "isPercussion": false
        },
        {
            "startTime": 0,
            "duration": 0,
            "length": 0,
            "notes": [],
            "controlChanges": {
                "64": [
                    {
                        "number": 64,
                        "time": 0,
                        "value": 0
                    },
                    {
                        "number": 64,
                        "time": 8.551661408333334,
                        "value": 1
                    },
                    {
                        "number": 64,
                        "time": 8.921239300000002,
                        "value": 0
                    },
                    {
                        "number": 64,
                        "time": 9.276547775000001,
                        "value": 1
                    },
                    {
                        "number": 64,
                        "time": 9.600463533333334,
                        "value": 0
                    },
                    {
                        "number": 64,
                        "time": 11.004574133333334,
                        "value": 1
                    },
                    {
                        "number": 64,
                        "time": 11.653832591666667,
                        "value": 0
                    },
                    {
                        "number": 64,
                        "time": 11.705202491666666,
                        "value": 1
                    },
                    {
                        "number": 64,
                        "time": 11.999152474999999,
                        "value": 0
                    },
                    {
                        "number": 64,
                        "time": 12.047668491666666,
                        "value": 1
                    },
                    {
                        "number": 64,
                        "time": 12.341618474999999,
                        "value": 0
                    },
                    {
                        "number": 64,
                        "time": 12.736881316666665,
                        "value": 1
                    },
                    {
                        "number": 64,
                        "time": 13.025123533333332,
                        "value": 0
                    },
                    {
                        "number": 64,
                        "time": 13.109313091666666,
                        "value": 1
                    },
                    {
                        "number": 64,
                        "time": 13.718617183333333,
                        "value": 0
                    },
                    {
                        "number": 64,
                        "time": 13.754290724999999,
                        "value": 1
                    },
                    {
                        "number": 64,
                        "time": 14.403549183333332,
                        "value": 0
                    },
                    {
                        "number": 64,
                        "time": 14.479177091666665,
                        "value": 1
                    },
                    {
                        "number": 64,
                        "time": 14.746015183333332,
                        "value": 0
                    },
                    {
                        "number": 64,
                        "time": 14.781688724999999,
                        "value": 1
                    },
                    {
                        "number": 64,
                        "time": 14.922955949999999,
                        "value": 0
                    },
                    {
                        "number": 64,
                        "time": 15.442362716666665,
                        "value": 1
                    },
                    {
                        "number": 64,
                        "time": 15.761997649999998,
                        "value": 0
                    },
                    {
                        "number": 64,
                        "time": 15.826210024999998,
                        "value": 1
                    },
                    {
                        "number": 64,
                        "time": 16.438367999999997,
                        "value": 0
                    },
                    {
                        "number": 64,
                        "time": 20.619307083333332,
                        "value": 1
                    },
                    {
                        "number": 64,
                        "time": 21.202926225,
                        "value": 0
                    },
                    {
                        "number": 64,
                        "time": 23.353327316666665,
                        "value": 1
                    },
                    {
                        "number": 64,
                        "time": 23.952642816666664,
                        "value": 0
                    },
                    {
                        "number": 64,
                        "time": 27.462919316666664,
                        "value": 1
                    },
                    {
                        "number": 64,
                        "time": 28.112177774999996,
                        "value": 0
                    },
                    {
                        "number": 64,
                        "time": 28.163547674999997,
                        "value": 1
                    },
                    {
                        "number": 64,
                        "time": 28.434666591666662,
                        "value": 0
                    },
                    {
                        "number": 64,
                        "time": 31.60818485833333,
                        "value": 1
                    },
                    {
                        "number": 64,
                        "time": 32.02913265,
                        "value": 0
                    },
                    {
                        "number": 64,
                        "time": 32.93809449166667,
                        "value": 1
                    },
                    {
                        "number": 64,
                        "time": 33.58877989166667,
                        "value": 0
                    },
                    {
                        "number": 64,
                        "time": 33.652992266666665,
                        "value": 1
                    },
                    {
                        "number": 64,
                        "time": 33.909841766666666,
                        "value": 0
                    },
                    {
                        "number": 64,
                        "time": 33.96977331666667,
                        "value": 1
                    },
                    {
                        "number": 64,
                        "time": 34.25658859166667,
                        "value": 0
                    },
                    {
                        "number": 64,
                        "time": 37.067663675000006,
                        "value": 1
                    },
                    {
                        "number": 64,
                        "time": 37.688383300000005,
                        "value": 0
                    },
                    {
                        "number": 64,
                        "time": 37.832504408333335,
                        "value": 1
                    },
                    {
                        "number": 64,
                        "time": 38.356192,
                        "value": 0
                    },
                    {
                        "number": 64,
                        "time": 38.40185413333333,
                        "value": 1
                    },
                    {
                        "number": 64,
                        "time": 39.726056,
                        "value": 0
                    },
                    {
                        "number": 64,
                        "time": 39.78741449166667,
                        "value": 1
                    },
                    {
                        "number": 64,
                        "time": 41.108762475,
                        "value": 0
                    },
                    {
                        "number": 64,
                        "time": 41.151570725,
                        "value": 1
                    },
                    {
                        "number": 64,
                        "time": 41.79512141666667,
                        "value": 0
                    },
                    {
                        "number": 64,
                        "time": 41.88216485833333,
                        "value": 1
                    },
                    {
                        "number": 64,
                        "time": 42.49004200833333,
                        "value": 0
                    },
                    {
                        "number": 64,
                        "time": 42.527142491666666,
                        "value": 1
                    },
                    {
                        "number": 64,
                        "time": 42.81681165,
                        "value": 0
                    },
                    {
                        "number": 64,
                        "time": 43.916983675,
                        "value": 1
                    },
                    {
                        "number": 64,
                        "time": 44.54483800833333,
                        "value": 0
                    },
                    {
                        "number": 64,
                        "time": 46.59249929999999,
                        "value": 1
                    },
                    {
                        "number": 64,
                        "time": 46.924976708333325,
                        "value": 0
                    },
                    {
                        "number": 64,
                        "time": 46.99204296666666,
                        "value": 1
                    },
                    {
                        "number": 64,
                        "time": 47.26458882499999,
                        "value": 0
                    },
                    {
                        "number": 64,
                        "time": 49.31510399999999,
                        "value": 1
                    },
                    {
                        "number": 64,
                        "time": 50.01145153333332,
                        "value": 0
                    },
                    {
                        "number": 64,
                        "time": 52.10477495833332,
                        "value": 1
                    },
                    {
                        "number": 64,
                        "time": 52.75688729999999,
                        "value": 0
                    },
                    {
                        "number": 64,
                        "time": 52.81396496666665,
                        "value": 1
                    },
                    {
                        "number": 64,
                        "time": 53.09507247499999,
                        "value": 0
                    },
                    {
                        "number": 64,
                        "time": 53.50603167499999,
                        "value": 1
                    },
                    {
                        "number": 64,
                        "time": 54.122470474999986,
                        "value": 0
                    },
                    {
                        "number": 64,
                        "time": 54.18097508333332,
                        "value": 1
                    },
                    {
                        "number": 64,
                        "time": 54.467790358333325,
                        "value": 0
                    },
                    {
                        "number": 64,
                        "time": 54.86019931666666,
                        "value": 1
                    },
                    {
                        "number": 64,
                        "time": 55.489480591666656,
                        "value": 0
                    },
                    {
                        "number": 64,
                        "time": 55.555119908333324,
                        "value": 1
                    },
                    {
                        "number": 64,
                        "time": 55.83194659166666,
                        "value": 0
                    },
                    {
                        "number": 64,
                        "time": 57.58423095833332,
                        "value": 1
                    },
                    {
                        "number": 64,
                        "time": 57.88959647499999,
                        "value": 0
                    },
                    {
                        "number": 64,
                        "time": 57.94239331666666,
                        "value": 1
                    },
                    {
                        "number": 64,
                        "time": 58.240624125,
                        "value": 0
                    },
                    {
                        "number": 64,
                        "time": 58.276297666666665,
                        "value": 1
                    },
                    {
                        "number": 64,
                        "time": 58.578809299999996,
                        "value": 0
                    },
                    {
                        "number": 64,
                        "time": 58.97549908333333,
                        "value": 1
                    },
                    {
                        "number": 64,
                        "time": 59.6062073,
                        "value": 0
                    },
                    {
                        "number": 64,
                        "time": 59.65472331666667,
                        "value": 1
                    },
                    {
                        "number": 64,
                        "time": 59.95723495,
                        "value": 0
                    },
                    {
                        "number": 64,
                        "time": 60.336801433333335,
                        "value": 1
                    },
                    {
                        "number": 64,
                        "time": 60.974644358333336,
                        "value": 0
                    },
                    {
                        "number": 64,
                        "time": 61.03457590833334,
                        "value": 1
                    },
                    {
                        "number": 64,
                        "time": 61.32709895000001,
                        "value": 0
                    },
                    {
                        "number": 64,
                        "time": 63.09936050000001,
                        "value": 1
                    },
                    {
                        "number": 64,
                        "time": 63.70723765000001,
                        "value": 0
                    },
                    {
                        "number": 64,
                        "time": 63.751472841666676,
                        "value": 1
                    },
                    {
                        "number": 64,
                        "time": 64.05398447500001,
                        "value": 0
                    },
                    {
                        "number": 64,
                        "time": 64.11962379166667,
                        "value": 1
                    },
                    {
                        "number": 64,
                        "time": 64.39930435833334,
                        "value": 0
                    },
                    {
                        "number": 64,
                        "time": 64.59194148333334,
                        "value": 1
                    },
                    {
                        "number": 64,
                        "time": 65.09137106666668,
                        "value": 0
                    },
                    {
                        "number": 64,
                        "time": 65.13417931666667,
                        "value": 1
                    },
                    {
                        "number": 64,
                        "time": 65.42670235833334,
                        "value": 0
                    },
                    {
                        "number": 64,
                        "time": 65.46808366666667,
                        "value": 1
                    },
                    {
                        "number": 64,
                        "time": 65.76346059166667,
                        "value": 0
                    },
                    {
                        "number": 64,
                        "time": 65.90044699166667,
                        "value": 1
                    },
                    {
                        "number": 64,
                        "time": 66.451246475,
                        "value": 0
                    },
                    {
                        "number": 64,
                        "time": 66.49120084166667,
                        "value": 1
                    },
                    {
                        "number": 64,
                        "time": 66.79656635833334,
                        "value": 0
                    },
                    {
                        "number": 64,
                        "time": 66.83794766666666,
                        "value": 1
                    },
                    {
                        "number": 64,
                        "time": 67.15044789166666,
                        "value": 0
                    },
                    {
                        "number": 64,
                        "time": 67.26174934166666,
                        "value": 1
                    },
                    {
                        "number": 64,
                        "time": 67.821110475,
                        "value": 0
                    },
                    {
                        "number": 64,
                        "time": 67.86106484166666,
                        "value": 1
                    },
                    {
                        "number": 64,
                        "time": 68.15929564999999,
                        "value": 0
                    },
                    {
                        "number": 64,
                        "time": 68.22921579166666,
                        "value": 1
                    },
                    {
                        "number": 64,
                        "time": 68.506042475,
                        "value": 0
                    },
                    {
                        "number": 64,
                        "time": 68.58452426666666,
                        "value": 1
                    },
                    {
                        "number": 64,
                        "time": 71.25861295,
                        "value": 0
                    },
                    {
                        "number": 64,
                        "time": 72.744059225,
                        "value": 1
                    },
                    {
                        "number": 64,
                        "time": 73.300566475,
                        "value": 0
                    },
                    {
                        "number": 64,
                        "time": 73.39902545,
                        "value": 1
                    },
                    {
                        "number": 64,
                        "time": 73.99263318333333,
                        "value": 0
                    },
                    {
                        "number": 64,
                        "time": 74.05399167499999,
                        "value": 1
                    },
                    {
                        "number": 64,
                        "time": 76.72665341666666,
                        "value": 0
                    },
                    {
                        "number": 64,
                        "time": 79.51775131666666,
                        "value": 1
                    },
                    {
                        "number": 64,
                        "time": 80.14560565,
                        "value": 0
                    },
                    {
                        "number": 64,
                        "time": 80.20839108333332,
                        "value": 1
                    },
                    {
                        "number": 64,
                        "time": 80.83481847499999,
                        "value": 0
                    },
                    {
                        "number": 64,
                        "time": 80.88048060833333,
                        "value": 1
                    },
                    {
                        "number": 64,
                        "time": 81.52545824166667,
                        "value": 0
                    },
                    {
                        "number": 64,
                        "time": 81.588243675,
                        "value": 1
                    },
                    {
                        "number": 64,
                        "time": 82.21609800833333,
                        "value": 0
                    },
                    {
                        "number": 64,
                        "time": 82.298860625,
                        "value": 1
                    },
                    {
                        "number": 64,
                        "time": 82.88818753333334,
                        "value": 0
                    },
                    {
                        "number": 64,
                        "time": 82.95810767500001,
                        "value": 1
                    },
                    {
                        "number": 64,
                        "time": 83.58168118333334,
                        "value": 0
                    },
                    {
                        "number": 64,
                        "time": 84.98864566666668,
                        "value": 1
                    },
                    {
                        "number": 64,
                        "time": 85.62648859166669,
                        "value": 0
                    },
                    {
                        "number": 64,
                        "time": 85.67785849166668,
                        "value": 1
                    },
                    {
                        "number": 64,
                        "time": 86.31284753333335,
                        "value": 0
                    },
                    {
                        "number": 64,
                        "time": 87.74835085000002,
                        "value": 1
                    },
                    {
                        "number": 64,
                        "time": 88.37335130000002,
                        "value": 0
                    },
                    {
                        "number": 64,
                        "time": 88.44612532500003,
                        "value": 1
                    },
                    {
                        "number": 64,
                        "time": 89.05400247500002,
                        "value": 0
                    },
                    {
                        "number": 64,
                        "time": 89.10394543333335,
                        "value": 1
                    },
                    {
                        "number": 64,
                        "time": 89.74178835833335,
                        "value": 0
                    },
                    {
                        "number": 64,
                        "time": 89.78887743333335,
                        "value": 1
                    },
                    {
                        "number": 64,
                        "time": 90.42529341666669,
                        "value": 0
                    },
                    {
                        "number": 64,
                        "time": 91.96210959166669,
                        "value": 1
                    },
                    {
                        "number": 64,
                        "time": 92.48008941666669,
                        "value": 0
                    },
                    {
                        "number": 64,
                        "time": 92.66701877500002,
                        "value": 1
                    },
                    {
                        "number": 64,
                        "time": 92.90959885833335,
                        "value": 0
                    },
                    {
                        "number": 64,
                        "time": 101.70241340833336,
                        "value": 1
                    },
                    {
                        "number": 64,
                        "time": 102.07199130000002,
                        "value": 0
                    },
                    {
                        "number": 64,
                        "time": 102.42729977500002,
                        "value": 1
                    },
                    {
                        "number": 64,
                        "time": 102.75121553333335,
                        "value": 0
                    },
                    {
                        "number": 64,
                        "time": 104.15532613333335,
                        "value": 1
                    },
                    {
                        "number": 64,
                        "time": 104.80458459166668,
                        "value": 0
                    },
                    {
                        "number": 64,
                        "time": 104.85595449166668,
                        "value": 1
                    },
                    {
                        "number": 64,
                        "time": 105.14990447500001,
                        "value": 0
                    },
                    {
                        "number": 64,
                        "time": 105.19842049166668,
                        "value": 1
                    },
                    {
                        "number": 64,
                        "time": 105.49237047500002,
                        "value": 0
                    },
                    {
                        "number": 64,
                        "time": 105.88763331666668,
                        "value": 1
                    },
                    {
                        "number": 64,
                        "time": 106.17587553333334,
                        "value": 0
                    },
                    {
                        "number": 64,
                        "time": 106.26006509166668,
                        "value": 1
                    },
                    {
                        "number": 64,
                        "time": 106.86936918333335,
                        "value": 0
                    },
                    {
                        "number": 64,
                        "time": 106.90504272500002,
                        "value": 1
                    },
                    {
                        "number": 64,
                        "time": 107.55430118333335,
                        "value": 0
                    },
                    {
                        "number": 64,
                        "time": 107.62992909166668,
                        "value": 1
                    },
                    {
                        "number": 64,
                        "time": 107.89676718333335,
                        "value": 0
                    },
                    {
                        "number": 64,
                        "time": 107.93244072500002,
                        "value": 1
                    },
                    {
                        "number": 64,
                        "time": 108.07370795000003,
                        "value": 0
                    },
                    {
                        "number": 64,
                        "time": 108.59311471666669,
                        "value": 1
                    },
                    {
                        "number": 64,
                        "time": 108.91274965000002,
                        "value": 0
                    },
                    {
                        "number": 64,
                        "time": 108.97696202500002,
                        "value": 1
                    },
                    {
                        "number": 64,
                        "time": 109.58912000000002,
                        "value": 0
                    },
                    {
                        "number": 64,
                        "time": 113.77005908333335,
                        "value": 1
                    },
                    {
                        "number": 64,
                        "time": 114.35367822500002,
                        "value": 0
                    },
                    {
                        "number": 64,
                        "time": 116.50407931666669,
                        "value": 1
                    },
                    {
                        "number": 64,
                        "time": 117.1033948166667,
                        "value": 0
                    },
                    {
                        "number": 64,
                        "time": 120.6136713166667,
                        "value": 1
                    },
                    {
                        "number": 64,
                        "time": 121.26292977500003,
                        "value": 0
                    },
                    {
                        "number": 64,
                        "time": 121.31429967500003,
                        "value": 1
                    },
                    {
                        "number": 64,
                        "time": 121.5854185916667,
                        "value": 0
                    },
                    {
                        "number": 64,
                        "time": 124.75893685833336,
                        "value": 1
                    },
                    {
                        "number": 64,
                        "time": 125.17988465000002,
                        "value": 0
                    },
                    {
                        "number": 64,
                        "time": 126.08884649166669,
                        "value": 1
                    },
                    {
                        "number": 64,
                        "time": 126.73953189166669,
                        "value": 0
                    },
                    {
                        "number": 64,
                        "time": 126.80374426666668,
                        "value": 1
                    },
                    {
                        "number": 64,
                        "time": 127.06059376666668,
                        "value": 0
                    },
                    {
                        "number": 64,
                        "time": 127.12052531666669,
                        "value": 1
                    },
                    {
                        "number": 64,
                        "time": 127.40734059166668,
                        "value": 0
                    },
                    {
                        "number": 64,
                        "time": 130.21841567500002,
                        "value": 1
                    },
                    {
                        "number": 64,
                        "time": 130.8391353,
                        "value": 0
                    },
                    {
                        "number": 64,
                        "time": 130.98325640833335,
                        "value": 1
                    },
                    {
                        "number": 64,
                        "time": 131.506944,
                        "value": 0
                    },
                    {
                        "number": 64,
                        "time": 131.55260613333334,
                        "value": 1
                    },
                    {
                        "number": 64,
                        "time": 132.876808,
                        "value": 0
                    },
                    {
                        "number": 64,
                        "time": 132.93816649166666,
                        "value": 1
                    },
                    {
                        "number": 64,
                        "time": 134.259514475,
                        "value": 0
                    },
                    {
                        "number": 64,
                        "time": 134.302322725,
                        "value": 1
                    },
                    {
                        "number": 64,
                        "time": 134.94587341666667,
                        "value": 0
                    },
                    {
                        "number": 64,
                        "time": 135.03291685833335,
                        "value": 1
                    },
                    {
                        "number": 64,
                        "time": 135.64079400833336,
                        "value": 0
                    },
                    {
                        "number": 64,
                        "time": 135.6778944916667,
                        "value": 1
                    },
                    {
                        "number": 64,
                        "time": 135.96756365000005,
                        "value": 0
                    },
                    {
                        "number": 64,
                        "time": 137.06773567500005,
                        "value": 1
                    },
                    {
                        "number": 64,
                        "time": 137.6955900083334,
                        "value": 0
                    },
                    {
                        "number": 64,
                        "time": 139.74325130000005,
                        "value": 1
                    },
                    {
                        "number": 64,
                        "time": 140.0757287083334,
                        "value": 0
                    },
                    {
                        "number": 64,
                        "time": 140.14279496666674,
                        "value": 1
                    },
                    {
                        "number": 64,
                        "time": 140.41534082500007,
                        "value": 0
                    },
                    {
                        "number": 64,
                        "time": 142.46585600000006,
                        "value": 1
                    },
                    {
                        "number": 64,
                        "time": 143.16220353333338,
                        "value": 0
                    },
                    {
                        "number": 64,
                        "time": 145.25552695833338,
                        "value": 1
                    },
                    {
                        "number": 64,
                        "time": 145.90763930000006,
                        "value": 0
                    },
                    {
                        "number": 64,
                        "time": 145.9647169666667,
                        "value": 1
                    },
                    {
                        "number": 64,
                        "time": 146.24582447500003,
                        "value": 0
                    },
                    {
                        "number": 64,
                        "time": 146.65678367500004,
                        "value": 1
                    },
                    {
                        "number": 64,
                        "time": 147.27322247500004,
                        "value": 0
                    },
                    {
                        "number": 64,
                        "time": 147.33172708333336,
                        "value": 1
                    },
                    {
                        "number": 64,
                        "time": 147.61854235833337,
                        "value": 0
                    },
                    {
                        "number": 64,
                        "time": 148.0109513166667,
                        "value": 1
                    },
                    {
                        "number": 64,
                        "time": 148.64023259166672,
                        "value": 0
                    },
                    {
                        "number": 64,
                        "time": 148.7058719083334,
                        "value": 1
                    },
                    {
                        "number": 64,
                        "time": 148.98269859166672,
                        "value": 0
                    },
                    {
                        "number": 64,
                        "time": 150.73498295833338,
                        "value": 1
                    },
                    {
                        "number": 64,
                        "time": 151.04034847500003,
                        "value": 0
                    },
                    {
                        "number": 64,
                        "time": 151.0931453166667,
                        "value": 1
                    },
                    {
                        "number": 64,
                        "time": 151.39137612500002,
                        "value": 0
                    },
                    {
                        "number": 64,
                        "time": 151.42704966666668,
                        "value": 1
                    },
                    {
                        "number": 64,
                        "time": 151.7295613,
                        "value": 0
                    },
                    {
                        "number": 64,
                        "time": 152.12625108333333,
                        "value": 1
                    },
                    {
                        "number": 64,
                        "time": 152.7569593,
                        "value": 0
                    },
                    {
                        "number": 64,
                        "time": 152.80547531666667,
                        "value": 1
                    },
                    {
                        "number": 64,
                        "time": 153.10798695,
                        "value": 0
                    },
                    {
                        "number": 64,
                        "time": 153.48755343333332,
                        "value": 1
                    },
                    {
                        "number": 64,
                        "time": 154.12539635833332,
                        "value": 0
                    },
                    {
                        "number": 64,
                        "time": 154.1853279083333,
                        "value": 1
                    },
                    {
                        "number": 64,
                        "time": 154.47785094999998,
                        "value": 0
                    },
                    {
                        "number": 64,
                        "time": 156.25011249999997,
                        "value": 1
                    },
                    {
                        "number": 64,
                        "time": 156.85798964999998,
                        "value": 0
                    },
                    {
                        "number": 64,
                        "time": 156.90222484166665,
                        "value": 1
                    },
                    {
                        "number": 64,
                        "time": 157.20473647499998,
                        "value": 0
                    },
                    {
                        "number": 64,
                        "time": 157.27037579166665,
                        "value": 1
                    },
                    {
                        "number": 64,
                        "time": 157.5500563583333,
                        "value": 0
                    },
                    {
                        "number": 64,
                        "time": 157.7426934833333,
                        "value": 1
                    },
                    {
                        "number": 64,
                        "time": 158.24212306666664,
                        "value": 0
                    },
                    {
                        "number": 64,
                        "time": 158.28493131666664,
                        "value": 1
                    },
                    {
                        "number": 64,
                        "time": 158.5774543583333,
                        "value": 0
                    },
                    {
                        "number": 64,
                        "time": 158.61883566666666,
                        "value": 1
                    },
                    {
                        "number": 64,
                        "time": 158.91421259166665,
                        "value": 0
                    },
                    {
                        "number": 64,
                        "time": 159.05119899166667,
                        "value": 1
                    },
                    {
                        "number": 64,
                        "time": 159.601998475,
                        "value": 0
                    },
                    {
                        "number": 64,
                        "time": 159.64195284166667,
                        "value": 1
                    },
                    {
                        "number": 64,
                        "time": 159.94731835833332,
                        "value": 0
                    },
                    {
                        "number": 64,
                        "time": 159.98869966666666,
                        "value": 1
                    },
                    {
                        "number": 64,
                        "time": 160.30119989166667,
                        "value": 0
                    },
                    {
                        "number": 64,
                        "time": 160.41250134166668,
                        "value": 1
                    },
                    {
                        "number": 64,
                        "time": 160.97186247500002,
                        "value": 0
                    },
                    {
                        "number": 64,
                        "time": 161.0118168416667,
                        "value": 1
                    },
                    {
                        "number": 64,
                        "time": 161.31004765000003,
                        "value": 0
                    },
                    {
                        "number": 64,
                        "time": 161.3799677916667,
                        "value": 1
                    },
                    {
                        "number": 64,
                        "time": 161.65679447500003,
                        "value": 0
                    },
                    {
                        "number": 64,
                        "time": 161.7352762666667,
                        "value": 1
                    },
                    {
                        "number": 64,
                        "time": 164.40936495000003,
                        "value": 0
                    },
                    {
                        "number": 64,
                        "time": 165.894811225,
                        "value": 1
                    },
                    {
                        "number": 64,
                        "time": 166.45131847500002,
                        "value": 0
                    },
                    {
                        "number": 64,
                        "time": 166.54977745000002,
                        "value": 1
                    },
                    {
                        "number": 64,
                        "time": 167.14338518333335,
                        "value": 0
                    },
                    {
                        "number": 64,
                        "time": 167.204743675,
                        "value": 1
                    },
                    {
                        "number": 64,
                        "time": 169.87740541666668,
                        "value": 0
                    },
                    {
                        "number": 64,
                        "time": 172.6685033166667,
                        "value": 1
                    },
                    {
                        "number": 64,
                        "time": 173.29635765000003,
                        "value": 0
                    },
                    {
                        "number": 64,
                        "time": 173.35914308333338,
                        "value": 1
                    },
                    {
                        "number": 64,
                        "time": 173.98557047500003,
                        "value": 0
                    },
                    {
                        "number": 64,
                        "time": 174.03123260833337,
                        "value": 1
                    },
                    {
                        "number": 64,
                        "time": 174.6762102416667,
                        "value": 0
                    },
                    {
                        "number": 64,
                        "time": 174.73899567500004,
                        "value": 1
                    },
                    {
                        "number": 64,
                        "time": 175.3668500083334,
                        "value": 0
                    },
                    {
                        "number": 64,
                        "time": 175.44961262500004,
                        "value": 1
                    },
                    {
                        "number": 64,
                        "time": 176.03893953333338,
                        "value": 0
                    },
                    {
                        "number": 64,
                        "time": 176.10885967500005,
                        "value": 1
                    },
                    {
                        "number": 64,
                        "time": 176.73243318333337,
                        "value": 0
                    },
                    {
                        "number": 64,
                        "time": 178.1393976666667,
                        "value": 1
                    },
                    {
                        "number": 64,
                        "time": 178.7772405916667,
                        "value": 0
                    },
                    {
                        "number": 64,
                        "time": 178.8286104916667,
                        "value": 1
                    },
                    {
                        "number": 64,
                        "time": 179.46359953333337,
                        "value": 0
                    },
                    {
                        "number": 64,
                        "time": 180.89910285000002,
                        "value": 1
                    },
                    {
                        "number": 64,
                        "time": 181.5241033,
                        "value": 0
                    },
                    {
                        "number": 64,
                        "time": 181.596877325,
                        "value": 1
                    },
                    {
                        "number": 64,
                        "time": 182.20475447500002,
                        "value": 0
                    },
                    {
                        "number": 64,
                        "time": 182.25469743333335,
                        "value": 1
                    },
                    {
                        "number": 64,
                        "time": 182.89254035833335,
                        "value": 0
                    },
                    {
                        "number": 64,
                        "time": 182.93962943333335,
                        "value": 1
                    },
                    {
                        "number": 64,
                        "time": 183.5760454166667,
                        "value": 0
                    },
                    {
                        "number": 64,
                        "time": 185.1128615916667,
                        "value": 1
                    },
                    {
                        "number": 64,
                        "time": 185.6308414166667,
                        "value": 0
                    },
                    {
                        "number": 64,
                        "time": 185.81777077500004,
                        "value": 1
                    },
                    {
                        "number": 64,
                        "time": 186.06035085833338,
                        "value": 0
                    },
                    {
                        "number": 64,
                        "time": 186.36999720000006,
                        "value": 1
                    },
                    {
                        "number": 64,
                        "time": 186.7838102833334,
                        "value": 0
                    },
                    {
                        "number": 64,
                        "time": 187.36029471666671,
                        "value": 1
                    },
                    {
                        "number": 64,
                        "time": 187.6813565916667,
                        "value": 0
                    },
                    {
                        "number": 64,
                        "time": 189.1468256833334,
                        "value": 1
                    },
                    {
                        "number": 64,
                        "time": 189.4493373166667,
                        "value": 0
                    },
                    {
                        "number": 64,
                        "time": 189.8317576833334,
                        "value": 1
                    },
                    {
                        "number": 64,
                        "time": 190.11429213333338,
                        "value": 0
                    },
                    {
                        "number": 64,
                        "time": 190.47245449166672,
                        "value": 1
                    },
                    {
                        "number": 64,
                        "time": 191.11600518333339,
                        "value": 0
                    },
                    {
                        "number": 64,
                        "time": 191.80379106666672,
                        "value": 1
                    },
                    {
                        "number": 64,
                        "time": 192.82690824166673,
                        "value": 0
                    },
                    {
                        "number": 64,
                        "time": 192.8711434333334,
                        "value": 1
                    },
                    {
                        "number": 64,
                        "time": 193.1622395333334,
                        "value": 0
                    },
                    {
                        "number": 64,
                        "time": 193.24642909166673,
                        "value": 1
                    },
                    {
                        "number": 64,
                        "time": 193.5689179083334,
                        "value": 0
                    },
                    {
                        "number": 64,
                        "time": 193.88712590000006,
                        "value": 1
                    },
                    {
                        "number": 64,
                        "time": 194.53353047500005,
                        "value": 0
                    },
                    {
                        "number": 64,
                        "time": 194.5948889666667,
                        "value": 1
                    },
                    {
                        "number": 64,
                        "time": 194.91309695833337,
                        "value": 0
                    },
                    {
                        "number": 64,
                        "time": 195.2669784916667,
                        "value": 1
                    },
                    {
                        "number": 64,
                        "time": 195.646544975,
                        "value": 0
                    },
                    {
                        "number": 64,
                        "time": 195.971887675,
                        "value": 1
                    },
                    {
                        "number": 64,
                        "time": 196.76669418333333,
                        "value": 0
                    },
                    {
                        "number": 64,
                        "time": 197.32320143333334,
                        "value": 1
                    },
                    {
                        "number": 64,
                        "time": 198.292094825,
                        "value": 0
                    },
                    {
                        "number": 64,
                        "time": 198.35059943333331,
                        "value": 1
                    },
                    {
                        "number": 64,
                        "time": 198.63027999999997,
                        "value": 0
                    },
                    {
                        "number": 64,
                        "time": 198.7059079083333,
                        "value": 1
                    },
                    {
                        "number": 64,
                        "time": 198.98844235833332,
                        "value": 0
                    },
                    {
                        "number": 64,
                        "time": 199.0440930833333,
                        "value": 1
                    },
                    {
                        "number": 64,
                        "time": 199.3266275333333,
                        "value": 0
                    },
                    {
                        "number": 64,
                        "time": 199.38655908333328,
                        "value": 1
                    },
                    {
                        "number": 64,
                        "time": 200.02582894999995,
                        "value": 0
                    },
                    {
                        "number": 64,
                        "time": 200.07577190833328,
                        "value": 1
                    },
                    {
                        "number": 64,
                        "time": 200.39397989999995,
                        "value": 0
                    },
                    {
                        "number": 64,
                        "time": 200.77069249999994,
                        "value": 1
                    },
                    {
                        "number": 64,
                        "time": 201.0931813166666,
                        "value": 0
                    },
                    {
                        "number": 64,
                        "time": 201.42137789999992,
                        "value": 1
                    },
                    {
                        "number": 64,
                        "time": 202.07634412499993,
                        "value": 0
                    },
                    {
                        "number": 64,
                        "time": 202.18621863333325,
                        "value": 1
                    },
                    {
                        "number": 64,
                        "time": 202.76983777499993,
                        "value": 0
                    },
                    {
                        "number": 64,
                        "time": 202.8354770916666,
                        "value": 1
                    },
                    {
                        "number": 64,
                        "time": 203.2079088666666,
                        "value": 0
                    },
                    {
                        "number": 64,
                        "time": 203.49044331666659,
                        "value": 1
                    },
                    {
                        "number": 64,
                        "time": 203.9484915916666,
                        "value": 0
                    },
                    {
                        "number": 64,
                        "time": 204.19107167499993,
                        "value": 1
                    },
                    {
                        "number": 64,
                        "time": 204.82463377499994,
                        "value": 0
                    },
                    {
                        "number": 64,
                        "time": 204.95591240833326,
                        "value": 1
                    },
                    {
                        "number": 64,
                        "time": 205.50100412499992,
                        "value": 0
                    },
                    {
                        "number": 64,
                        "time": 205.5609356749999,
                        "value": 1
                    },
                    {
                        "number": 64,
                        "time": 205.94763686666658,
                        "value": 0
                    },
                    {
                        "number": 64,
                        "time": 206.26584485833325,
                        "value": 1
                    },
                    {
                        "number": 64,
                        "time": 206.64826522499993,
                        "value": 0
                    },
                    {
                        "number": 64,
                        "time": 206.84946399999993,
                        "value": 1
                    },
                    {
                        "number": 64,
                        "time": 207.55865400833326,
                        "value": 0
                    },
                    {
                        "number": 64,
                        "time": 207.62429332499994,
                        "value": 1
                    },
                    {
                        "number": 64,
                        "time": 208.23217047499995,
                        "value": 0
                    },
                    {
                        "number": 64,
                        "time": 208.27497872499995,
                        "value": 1
                    },
                    {
                        "number": 64,
                        "time": 208.9285180083333,
                        "value": 0
                    },
                    {
                        "number": 64,
                        "time": 208.98987649999995,
                        "value": 1
                    },
                    {
                        "number": 64,
                        "time": 209.26670318333328,
                        "value": 0
                    },
                    {
                        "number": 64,
                        "time": 209.30237672499993,
                        "value": 1
                    },
                    {
                        "number": 64,
                        "time": 209.60631529999992,
                        "value": 0
                    },
                    {
                        "number": 64,
                        "time": 209.74044781666657,
                        "value": 1
                    },
                    {
                        "number": 64,
                        "time": 210.4967268999999,
                        "value": 0
                    },
                    {
                        "number": 64,
                        "time": 210.98331400833325,
                        "value": 1
                    },
                    {
                        "number": 64,
                        "time": 211.31721835833326,
                        "value": 0
                    },
                    {
                        "number": 64,
                        "time": 211.39141932499993,
                        "value": 1
                    },
                    {
                        "number": 64,
                        "time": 211.90511832499993,
                        "value": 0
                    },
                    {
                        "number": 64,
                        "time": 212.41025567499995,
                        "value": 1
                    },
                    {
                        "number": 64,
                        "time": 213.21505077499995,
                        "value": 0
                    },
                    {
                        "number": 64,
                        "time": 214.0655080083333,
                        "value": 1
                    },
                    {
                        "number": 64,
                        "time": 214.3994123583333,
                        "value": 0
                    },
                    {
                        "number": 64,
                        "time": 214.7675633083333,
                        "value": 1
                    },
                    {
                        "number": 64,
                        "time": 215.0971868333333,
                        "value": 0
                    },
                    {
                        "number": 64,
                        "time": 215.1913649833333,
                        "value": 1
                    },
                    {
                        "number": 64,
                        "time": 215.78069189166663,
                        "value": 0
                    },
                    {
                        "number": 64,
                        "time": 215.8848586333333,
                        "value": 1
                    },
                    {
                        "number": 64,
                        "time": 216.44707364999996,
                        "value": 0
                    },
                    {
                        "number": 64,
                        "time": 216.5526673333333,
                        "value": 1
                    },
                    {
                        "number": 64,
                        "time": 217.14056729999996,
                        "value": 0
                    },
                    {
                        "number": 64,
                        "time": 217.22190297499995,
                        "value": 1
                    },
                    {
                        "number": 64,
                        "time": 217.82121847499994,
                        "value": 0
                    },
                    {
                        "number": 64,
                        "time": 217.8997002666666,
                        "value": 1
                    },
                    {
                        "number": 64,
                        "time": 218.29210922499993,
                        "value": 0
                    },
                    {
                        "number": 64,
                        "time": 218.56465508333326,
                        "value": 1
                    },
                    {
                        "number": 64,
                        "time": 218.9313790916666,
                        "value": 0
                    },
                    {
                        "number": 64,
                        "time": 219.2695642666666,
                        "value": 1
                    },
                    {
                        "number": 64,
                        "time": 219.71762394999993,
                        "value": 0
                    },
                    {
                        "number": 64,
                        "time": 220.57806977499993,
                        "value": 1
                    },
                    {
                        "number": 64,
                        "time": 221.00615227499992,
                        "value": 0
                    },
                    {
                        "number": 64,
                        "time": 221.2844058999999,
                        "value": 1
                    },
                    {
                        "number": 64,
                        "time": 221.69108427499992,
                        "value": 0
                    },
                    {
                        "number": 64,
                        "time": 222.00358449999993,
                        "value": 1
                    },
                    {
                        "number": 64,
                        "time": 222.45164418333326,
                        "value": 0
                    },
                    {
                        "number": 64,
                        "time": 231.83949340833325,
                        "value": 1
                    },
                    {
                        "number": 64,
                        "time": 232.20907129999992,
                        "value": 0
                    },
                    {
                        "number": 64,
                        "time": 232.5643797749999,
                        "value": 1
                    },
                    {
                        "number": 64,
                        "time": 232.88829553333323,
                        "value": 0
                    },
                    {
                        "number": 64,
                        "time": 234.29240613333323,
                        "value": 1
                    },
                    {
                        "number": 64,
                        "time": 234.94166459166655,
                        "value": 0
                    },
                    {
                        "number": 64,
                        "time": 234.99303449166655,
                        "value": 1
                    },
                    {
                        "number": 64,
                        "time": 235.28698447499988,
                        "value": 0
                    },
                    {
                        "number": 64,
                        "time": 235.33550049166655,
                        "value": 1
                    },
                    {
                        "number": 64,
                        "time": 235.62945047499989,
                        "value": 0
                    },
                    {
                        "number": 64,
                        "time": 236.02471331666655,
                        "value": 1
                    },
                    {
                        "number": 64,
                        "time": 236.31295553333322,
                        "value": 0
                    },
                    {
                        "number": 64,
                        "time": 236.39714509166654,
                        "value": 1
                    },
                    {
                        "number": 64,
                        "time": 237.00644918333322,
                        "value": 0
                    },
                    {
                        "number": 64,
                        "time": 237.04212272499987,
                        "value": 1
                    },
                    {
                        "number": 64,
                        "time": 237.6913811833332,
                        "value": 0
                    },
                    {
                        "number": 64,
                        "time": 237.76700909166652,
                        "value": 1
                    },
                    {
                        "number": 64,
                        "time": 238.0338471833332,
                        "value": 0
                    },
                    {
                        "number": 64,
                        "time": 238.06952072499985,
                        "value": 1
                    },
                    {
                        "number": 64,
                        "time": 238.21078794999985,
                        "value": 0
                    },
                    {
                        "number": 64,
                        "time": 238.73019471666652,
                        "value": 1
                    },
                    {
                        "number": 64,
                        "time": 239.04982964999985,
                        "value": 0
                    },
                    {
                        "number": 64,
                        "time": 239.11404202499986,
                        "value": 1
                    },
                    {
                        "number": 64,
                        "time": 239.72619999999986,
                        "value": 0
                    },
                    {
                        "number": 64,
                        "time": 243.9071390833332,
                        "value": 1
                    },
                    {
                        "number": 64,
                        "time": 244.49075822499987,
                        "value": 0
                    },
                    {
                        "number": 64,
                        "time": 246.64115931666655,
                        "value": 1
                    },
                    {
                        "number": 64,
                        "time": 247.24047481666653,
                        "value": 0
                    },
                    {
                        "number": 64,
                        "time": 250.75075131666654,
                        "value": 1
                    },
                    {
                        "number": 64,
                        "time": 251.40000977499986,
                        "value": 0
                    },
                    {
                        "number": 64,
                        "time": 251.45137967499986,
                        "value": 1
                    },
                    {
                        "number": 64,
                        "time": 251.72249859166652,
                        "value": 0
                    },
                    {
                        "number": 64,
                        "time": 254.89601685833318,
                        "value": 1
                    },
                    {
                        "number": 64,
                        "time": 255.31696464999985,
                        "value": 0
                    },
                    {
                        "number": 64,
                        "time": 256.22592649166654,
                        "value": 1
                    },
                    {
                        "number": 64,
                        "time": 256.8766118916665,
                        "value": 0
                    },
                    {
                        "number": 64,
                        "time": 256.94082426666654,
                        "value": 1
                    },
                    {
                        "number": 64,
                        "time": 257.1976737666665,
                        "value": 0
                    },
                    {
                        "number": 64,
                        "time": 257.2576053166665,
                        "value": 1
                    },
                    {
                        "number": 64,
                        "time": 257.5444205916665,
                        "value": 0
                    },
                    {
                        "number": 64,
                        "time": 260.3554956749998,
                        "value": 1
                    },
                    {
                        "number": 64,
                        "time": 260.9762152999998,
                        "value": 0
                    },
                    {
                        "number": 64,
                        "time": 261.1203364083331,
                        "value": 1
                    },
                    {
                        "number": 64,
                        "time": 261.6511587083331,
                        "value": 0
                    },
                    {
                        "number": 64,
                        "time": 261.71394414166645,
                        "value": 1
                    },
                    {
                        "number": 64,
                        "time": 263.0267304749998,
                        "value": 0
                    },
                    {
                        "number": 64,
                        "time": 263.0895159083331,
                        "value": 1
                    },
                    {
                        "number": 64,
                        "time": 264.40087529999977,
                        "value": 0
                    },
                    {
                        "number": 64,
                        "time": 264.4365488416664,
                        "value": 1
                    },
                    {
                        "number": 64,
                        "time": 265.76788541666645,
                        "value": 0
                    },
                    {
                        "number": 64,
                        "time": 265.8349516749998,
                        "value": 1
                    },
                    {
                        "number": 64,
                        "time": 267.1434571833331,
                        "value": 0
                    },
                    {
                        "number": 64,
                        "time": 267.1848384916664,
                        "value": 1
                    },
                    {
                        "number": 64,
                        "time": 268.5047595333331,
                        "value": 0
                    },
                    {
                        "number": 64,
                        "time": 268.5846682666664,
                        "value": 1
                    },
                    {
                        "number": 64,
                        "time": 269.8760504749998,
                        "value": 0
                    },
                    {
                        "number": 64,
                        "time": 269.92884731666646,
                        "value": 1
                    },
                    {
                        "number": 64,
                        "time": 270.56240941666647,
                        "value": 0
                    },
                    {
                        "number": 64,
                        "time": 270.60949849166644,
                        "value": 1
                    },
                    {
                        "number": 64,
                        "time": 271.2459144749998,
                        "value": 0
                    },
                    {
                        "number": 64,
                        "time": 272.71423744999976,
                        "value": 1
                    },
                    {
                        "number": 64,
                        "time": 273.2950027083331,
                        "value": 0
                    },
                    {
                        "number": 64,
                        "time": 275.4168649666664,
                        "value": 1
                    },
                    {
                        "number": 64,
                        "time": 275.69939941666644,
                        "value": 0
                    },
                    {
                        "number": 64,
                        "time": 278.1737162666664,
                        "value": 1
                    },
                    {
                        "number": 64,
                        "time": 278.77873953333307,
                        "value": 0
                    },
                    {
                        "number": 64,
                        "time": 280.8834784916664,
                        "value": 1
                    },
                    {
                        "number": 64,
                        "time": 281.53273694999973,
                        "value": 0
                    },
                    {
                        "number": 64,
                        "time": 281.57839908333307,
                        "value": 1
                    },
                    {
                        "number": 64,
                        "time": 281.86521435833305,
                        "value": 0
                    },
                    {
                        "number": 64,
                        "time": 282.2319383666664,
                        "value": 1
                    },
                    {
                        "number": 64,
                        "time": 282.88262376666637,
                        "value": 0
                    },
                    {
                        "number": 64,
                        "time": 282.95254390833304,
                        "value": 1
                    },
                    {
                        "number": 64,
                        "time": 283.2493477749997,
                        "value": 0
                    },
                    {
                        "number": 64,
                        "time": 283.62748731666636,
                        "value": 1
                    },
                    {
                        "number": 64,
                        "time": 284.262476358333,
                        "value": 0
                    },
                    {
                        "number": 64,
                        "time": 284.322407908333,
                        "value": 1
                    },
                    {
                        "number": 64,
                        "time": 284.6020884749997,
                        "value": 0
                    },
                    {
                        "number": 64,
                        "time": 286.347238133333,
                        "value": 1
                    },
                    {
                        "number": 64,
                        "time": 286.64974976666633,
                        "value": 0
                    },
                    {
                        "number": 64,
                        "time": 286.7096813166663,
                        "value": 1
                    },
                    {
                        "number": 64,
                        "time": 286.9964965916663,
                        "value": 0
                    },
                    {
                        "number": 64,
                        "time": 287.04215872499964,
                        "value": 1
                    },
                    {
                        "number": 64,
                        "time": 287.3389625916663,
                        "value": 0
                    },
                    {
                        "number": 64,
                        "time": 287.71710213333296,
                        "value": 1
                    },
                    {
                        "number": 64,
                        "time": 288.3706414166663,
                        "value": 0
                    },
                    {
                        "number": 64,
                        "time": 288.42201131666627,
                        "value": 1
                    },
                    {
                        "number": 64,
                        "time": 288.71025353333295,
                        "value": 0
                    },
                    {
                        "number": 64,
                        "time": 289.0712697749996,
                        "value": 1
                    },
                    {
                        "number": 64,
                        "time": 289.74621318333294,
                        "value": 0
                    },
                    {
                        "number": 64,
                        "time": 289.7918753166663,
                        "value": 1
                    },
                    {
                        "number": 64,
                        "time": 290.08011753333295,
                        "value": 0
                    },
                    {
                        "number": 64,
                        "time": 291.93799558333296,
                        "value": 1
                    },
                    {
                        "number": 64,
                        "time": 292.47880647499966,
                        "value": 0
                    },
                    {
                        "number": 64,
                        "time": 292.54729967499964,
                        "value": 1
                    },
                    {
                        "number": 64,
                        "time": 292.8269802416663,
                        "value": 0
                    },
                    {
                        "number": 64,
                        "time": 292.879777083333,
                        "value": 1
                    },
                    {
                        "number": 64,
                        "time": 293.16373847499966,
                        "value": 0
                    },
                    {
                        "number": 64,
                        "time": 293.31784817499965,
                        "value": 1
                    },
                    {
                        "number": 64,
                        "time": 293.8500974166663,
                        "value": 0
                    },
                    {
                        "number": 64,
                        "time": 293.8971864916663,
                        "value": 1
                    },
                    {
                        "number": 64,
                        "time": 294.19541729999963,
                        "value": 0
                    },
                    {
                        "number": 64,
                        "time": 294.2439333166663,
                        "value": 1
                    },
                    {
                        "number": 64,
                        "time": 294.5307485916663,
                        "value": 0
                    },
                    {
                        "number": 64,
                        "time": 294.7576323166663,
                        "value": 1
                    },
                    {
                        "number": 64,
                        "time": 295.23280389166626,
                        "value": 0
                    },
                    {
                        "number": 64,
                        "time": 295.27133131666625,
                        "value": 1
                    },
                    {
                        "number": 64,
                        "time": 295.5638543583329,
                        "value": 0
                    },
                    {
                        "number": 64,
                        "time": 295.62949367499954,
                        "value": 1
                    },
                    {
                        "number": 64,
                        "time": 295.8963317666662,
                        "value": 0
                    },
                    {
                        "number": 64,
                        "time": 296.1032383083329,
                        "value": 1
                    },
                    {
                        "number": 64,
                        "time": 296.5898254166662,
                        "value": 0
                    },
                    {
                        "number": 64,
                        "time": 296.6411953166662,
                        "value": 1
                    },
                    {
                        "number": 64,
                        "time": 296.93514529999953,
                        "value": 0
                    },
                    {
                        "number": 64,
                        "time": 296.9750996666662,
                        "value": 1
                    },
                    {
                        "number": 64,
                        "time": 297.2719035333329,
                        "value": 0
                    },
                    {
                        "number": 64,
                        "time": 297.33183508333286,
                        "value": 1
                    },
                    {
                        "number": 64,
                        "time": 299.66631164999956,
                        "value": 0
                    },
                    {
                        "number": 64,
                        "time": 299.7148276666662,
                        "value": 1
                    },
                    {
                        "number": 64,
                        "time": 300.0201931833329,
                        "value": 0
                    },
                    {
                        "number": 64,
                        "time": 301.7739044916662,
                        "value": 1
                    },
                    {
                        "number": 64,
                        "time": 302.0735622416662,
                        "value": 0
                    },
                    {
                        "number": 64,
                        "time": 302.1663134499995,
                        "value": 1
                    },
                    {
                        "number": 64,
                        "time": 302.40746659166615,
                        "value": 0
                    },
                    {
                        "number": 64,
                        "time": 302.81129108333283,
                        "value": 1
                    },
                    {
                        "number": 64,
                        "time": 305.14862153333286,
                        "value": 0
                    },
                    {
                        "number": 64,
                        "time": 305.2114069666662,
                        "value": 1
                    },
                    {
                        "number": 64,
                        "time": 305.4953683583328,
                        "value": 0
                    },
                    {
                        "number": 64,
                        "time": 308.2750507249995,
                        "value": 1
                    },
                    {
                        "number": 64,
                        "time": 308.9186014166662,
                        "value": 0
                    },
                    {
                        "number": 64,
                        "time": 308.97567908333286,
                        "value": 1
                    },
                    {
                        "number": 64,
                        "time": 309.6163758916662,
                        "value": 0
                    },
                    {
                        "number": 64,
                        "time": 309.6434877833329,
                        "value": 1
                    },
                    {
                        "number": 64,
                        "time": 310.3013078916662,
                        "value": 0
                    },
                    {
                        "number": 64,
                        "time": 310.3740819166662,
                        "value": 1
                    },
                    {
                        "number": 64,
                        "time": 310.9791051833329,
                        "value": 0
                    },
                    {
                        "number": 64,
                        "time": 311.01477872499953,
                        "value": 1
                    },
                    {
                        "number": 64,
                        "time": 311.6569024749995,
                        "value": 0
                    },
                    {
                        "number": 64,
                        "time": 311.7253956749995,
                        "value": 1
                    },
                    {
                        "number": 64,
                        "time": 312.00222235833286,
                        "value": 0
                    },
                    {
                        "number": 64,
                        "time": 313.7602144916662,
                        "value": 1
                    },
                    {
                        "number": 64,
                        "time": 314.7419503583329,
                        "value": 0
                    },
                    {
                        "number": 64,
                        "time": 316.50136943333285,
                        "value": 1
                    },
                    {
                        "number": 64,
                        "time": 317.1392123583328,
                        "value": 0
                    },
                    {
                        "number": 64,
                        "time": 317.22340191666615,
                        "value": 1
                    },
                    {
                        "number": 64,
                        "time": 317.8212904749995,
                        "value": 0
                    },
                    {
                        "number": 64,
                        "time": 317.91974944999953,
                        "value": 1
                    },
                    {
                        "number": 64,
                        "time": 318.51478412499955,
                        "value": 0
                    },
                    {
                        "number": 64,
                        "time": 318.5989736833329,
                        "value": 1
                    },
                    {
                        "number": 64,
                        "time": 319.1883005916662,
                        "value": 0
                    },
                    {
                        "number": 64,
                        "time": 319.2439513166662,
                        "value": 1
                    },
                    {
                        "number": 64,
                        "time": 319.88322118333286,
                        "value": 0
                    },
                    {
                        "number": 64,
                        "time": 319.9288833166662,
                        "value": 1
                    },
                    {
                        "number": 64,
                        "time": 320.5538837666662,
                        "value": 0
                    },
                    {
                        "number": 64,
                        "time": 320.67089298333286,
                        "value": 1
                    },
                    {
                        "number": 64,
                        "time": 321.25023129999954,
                        "value": 0
                    },
                    {
                        "number": 64,
                        "time": 321.2987473166662,
                        "value": 1
                    },
                    {
                        "number": 64,
                        "time": 321.91803999999956,
                        "value": 0
                    },
                    {
                        "number": 64,
                        "time": 322.0364761583329,
                        "value": 1
                    },
                    {
                        "number": 64,
                        "time": 322.28333706666626,
                        "value": 0
                    },
                    {
                        "number": 64,
                        "time": 324.67631824166625,
                        "value": 1
                    },
                    {
                        "number": 64,
                        "time": 324.9188983249996,
                        "value": 0
                    },
                    {
                        "number": 64,
                        "time": 325.4054854333329,
                        "value": 1
                    },
                    {
                        "number": 64,
                        "time": 325.6138189166662,
                        "value": 0
                    },
                    {
                        "number": 64,
                        "time": 326.1089676749996,
                        "value": 1
                    },
                    {
                        "number": 64,
                        "time": 326.3601094083329,
                        "value": 0
                    },
                    {
                        "number": 64,
                        "time": 327.46598919999957,
                        "value": 1
                    },
                    {
                        "number": 64,
                        "time": 327.8798022833329,
                        "value": 0
                    },
                    {
                        "number": 64,
                        "time": 328.4562867166662,
                        "value": 1
                    },
                    {
                        "number": 64,
                        "time": 328.7773485916662,
                        "value": 0
                    },
                    {
                        "number": 64,
                        "time": 330.2428176833329,
                        "value": 1
                    },
                    {
                        "number": 64,
                        "time": 330.5453293166662,
                        "value": 0
                    },
                    {
                        "number": 64,
                        "time": 330.9277496833329,
                        "value": 1
                    },
                    {
                        "number": 64,
                        "time": 331.2102841333329,
                        "value": 0
                    },
                    {
                        "number": 64,
                        "time": 331.56844649166624,
                        "value": 1
                    },
                    {
                        "number": 64,
                        "time": 332.2119971833329,
                        "value": 0
                    },
                    {
                        "number": 64,
                        "time": 332.89978306666626,
                        "value": 1
                    },
                    {
                        "number": 64,
                        "time": 333.92290024166624,
                        "value": 0
                    },
                    {
                        "number": 64,
                        "time": 333.9671354333329,
                        "value": 1
                    },
                    {
                        "number": 64,
                        "time": 334.2582315333329,
                        "value": 0
                    },
                    {
                        "number": 64,
                        "time": 334.3424210916662,
                        "value": 1
                    },
                    {
                        "number": 64,
                        "time": 334.6649099083329,
                        "value": 0
                    },
                    {
                        "number": 64,
                        "time": 334.98311789999957,
                        "value": 1
                    },
                    {
                        "number": 64,
                        "time": 335.6295224749996,
                        "value": 0
                    },
                    {
                        "number": 64,
                        "time": 335.69088096666627,
                        "value": 1
                    },
                    {
                        "number": 64,
                        "time": 336.00908895833294,
                        "value": 0
                    },
                    {
                        "number": 64,
                        "time": 336.36297049166626,
                        "value": 1
                    },
                    {
                        "number": 64,
                        "time": 336.7425369749996,
                        "value": 0
                    },
                    {
                        "number": 64,
                        "time": 337.06787967499963,
                        "value": 1
                    },
                    {
                        "number": 64,
                        "time": 337.862686183333,
                        "value": 0
                    },
                    {
                        "number": 64,
                        "time": 338.41919343333296,
                        "value": 1
                    },
                    {
                        "number": 64,
                        "time": 339.3880868249996,
                        "value": 0
                    },
                    {
                        "number": 64,
                        "time": 339.44659143333297,
                        "value": 1
                    },
                    {
                        "number": 64,
                        "time": 339.72627199999965,
                        "value": 0
                    },
                    {
                        "number": 64,
                        "time": 339.801899908333,
                        "value": 1
                    },
                    {
                        "number": 64,
                        "time": 340.084434358333,
                        "value": 0
                    },
                    {
                        "number": 64,
                        "time": 340.140085083333,
                        "value": 1
                    },
                    {
                        "number": 64,
                        "time": 340.42261953333303,
                        "value": 0
                    },
                    {
                        "number": 64,
                        "time": 340.482551083333,
                        "value": 1
                    },
                    {
                        "number": 64,
                        "time": 341.1218209499997,
                        "value": 0
                    },
                    {
                        "number": 64,
                        "time": 341.17176390833305,
                        "value": 1
                    },
                    {
                        "number": 64,
                        "time": 341.4899718999997,
                        "value": 0
                    },
                    {
                        "number": 64,
                        "time": 341.86668449999974,
                        "value": 1
                    },
                    {
                        "number": 64,
                        "time": 342.1891733166664,
                        "value": 0
                    },
                    {
                        "number": 64,
                        "time": 342.5173698999998,
                        "value": 1
                    },
                    {
                        "number": 64,
                        "time": 343.1723361249998,
                        "value": 0
                    },
                    {
                        "number": 64,
                        "time": 343.28221063333314,
                        "value": 1
                    },
                    {
                        "number": 64,
                        "time": 343.8658297749998,
                        "value": 0
                    },
                    {
                        "number": 64,
                        "time": 343.93146909166643,
                        "value": 1
                    },
                    {
                        "number": 64,
                        "time": 344.3039008666664,
                        "value": 0
                    },
                    {
                        "number": 64,
                        "time": 344.58643531666644,
                        "value": 1
                    },
                    {
                        "number": 64,
                        "time": 345.04448359166645,
                        "value": 0
                    },
                    {
                        "number": 64,
                        "time": 345.2870636749998,
                        "value": 1
                    },
                    {
                        "number": 64,
                        "time": 345.9206257749998,
                        "value": 0
                    },
                    {
                        "number": 64,
                        "time": 346.05190440833314,
                        "value": 1
                    },
                    {
                        "number": 64,
                        "time": 346.5969961249998,
                        "value": 0
                    },
                    {
                        "number": 64,
                        "time": 346.6569276749998,
                        "value": 1
                    },
                    {
                        "number": 64,
                        "time": 347.04362886666644,
                        "value": 0
                    },
                    {
                        "number": 64,
                        "time": 347.3618368583331,
                        "value": 1
                    },
                    {
                        "number": 64,
                        "time": 347.7442572249998,
                        "value": 0
                    },
                    {
                        "number": 64,
                        "time": 347.9454559999998,
                        "value": 1
                    },
                    {
                        "number": 64,
                        "time": 348.65464600833315,
                        "value": 0
                    },
                    {
                        "number": 64,
                        "time": 348.7202853249998,
                        "value": 1
                    },
                    {
                        "number": 64,
                        "time": 349.3281624749998,
                        "value": 0
                    },
                    {
                        "number": 64,
                        "time": 349.3709707249998,
                        "value": 1
                    },
                    {
                        "number": 64,
                        "time": 350.0245100083331,
                        "value": 0
                    },
                    {
                        "number": 64,
                        "time": 350.0858684999998,
                        "value": 1
                    },
                    {
                        "number": 64,
                        "time": 350.36269518333313,
                        "value": 0
                    },
                    {
                        "number": 64,
                        "time": 350.3983687249998,
                        "value": 1
                    },
                    {
                        "number": 64,
                        "time": 350.7023072999998,
                        "value": 0
                    },
                    {
                        "number": 64,
                        "time": 350.8364398166665,
                        "value": 1
                    },
                    {
                        "number": 64,
                        "time": 351.5927188999998,
                        "value": 0
                    },
                    {
                        "number": 64,
                        "time": 352.0793060083331,
                        "value": 1
                    },
                    {
                        "number": 64,
                        "time": 352.4132103583331,
                        "value": 0
                    },
                    {
                        "number": 64,
                        "time": 352.4874113249998,
                        "value": 1
                    },
                    {
                        "number": 64,
                        "time": 353.0011103249998,
                        "value": 0
                    },
                    {
                        "number": 64,
                        "time": 353.50624767499977,
                        "value": 1
                    },
                    {
                        "number": 64,
                        "time": 354.31104277499975,
                        "value": 0
                    },
                    {
                        "number": 64,
                        "time": 355.16150000833306,
                        "value": 1
                    },
                    {
                        "number": 64,
                        "time": 355.4954043583331,
                        "value": 0
                    },
                    {
                        "number": 64,
                        "time": 355.86355530833305,
                        "value": 1
                    },
                    {
                        "number": 64,
                        "time": 356.19317883333304,
                        "value": 0
                    },
                    {
                        "number": 64,
                        "time": 356.28735698333304,
                        "value": 1
                    },
                    {
                        "number": 64,
                        "time": 356.87668389166635,
                        "value": 0
                    },
                    {
                        "number": 64,
                        "time": 356.98085063333303,
                        "value": 1
                    },
                    {
                        "number": 64,
                        "time": 357.5430656499997,
                        "value": 0
                    },
                    {
                        "number": 64,
                        "time": 357.648659333333,
                        "value": 1
                    },
                    {
                        "number": 64,
                        "time": 358.23655929999967,
                        "value": 0
                    },
                    {
                        "number": 64,
                        "time": 358.31789497499966,
                        "value": 1
                    },
                    {
                        "number": 64,
                        "time": 358.91721047499965,
                        "value": 0
                    },
                    {
                        "number": 64,
                        "time": 358.9956922666663,
                        "value": 1
                    },
                    {
                        "number": 64,
                        "time": 359.3881012249996,
                        "value": 0
                    },
                    {
                        "number": 64,
                        "time": 359.66064708333295,
                        "value": 1
                    },
                    {
                        "number": 64,
                        "time": 360.0273710916663,
                        "value": 0
                    },
                    {
                        "number": 64,
                        "time": 360.36555626666626,
                        "value": 1
                    },
                    {
                        "number": 64,
                        "time": 360.8136159499996,
                        "value": 0
                    },
                    {
                        "number": 64,
                        "time": 361.6740617749996,
                        "value": 1
                    },
                    {
                        "number": 64,
                        "time": 362.1021442749996,
                        "value": 0
                    },
                    {
                        "number": 64,
                        "time": 362.3803978999996,
                        "value": 1
                    },
                    {
                        "number": 64,
                        "time": 362.7870762749996,
                        "value": 0
                    },
                    {
                        "number": 64,
                        "time": 363.0995764999996,
                        "value": 1
                    },
                    {
                        "number": 64,
                        "time": 363.54763618333294,
                        "value": 0
                    },
                    {
                        "number": 64,
                        "time": 372.93548540833297,
                        "value": 1
                    },
                    {
                        "number": 64,
                        "time": 373.30506329999963,
                        "value": 0
                    },
                    {
                        "number": 64,
                        "time": 373.66037177499965,
                        "value": 1
                    },
                    {
                        "number": 64,
                        "time": 373.984287533333,
                        "value": 0
                    },
                    {
                        "number": 64,
                        "time": 375.388398133333,
                        "value": 1
                    },
                    {
                        "number": 64,
                        "time": 376.03765659166635,
                        "value": 0
                    },
                    {
                        "number": 64,
                        "time": 376.08902649166635,
                        "value": 1
                    },
                    {
                        "number": 64,
                        "time": 376.3829764749997,
                        "value": 0
                    },
                    {
                        "number": 64,
                        "time": 376.43149249166635,
                        "value": 1
                    },
                    {
                        "number": 64,
                        "time": 376.7254424749997,
                        "value": 0
                    },
                    {
                        "number": 64,
                        "time": 377.1207053166664,
                        "value": 1
                    },
                    {
                        "number": 64,
                        "time": 377.40894753333305,
                        "value": 0
                    },
                    {
                        "number": 64,
                        "time": 377.49313709166637,
                        "value": 1
                    },
                    {
                        "number": 64,
                        "time": 378.10244118333304,
                        "value": 0
                    },
                    {
                        "number": 64,
                        "time": 378.1381147249997,
                        "value": 1
                    },
                    {
                        "number": 64,
                        "time": 378.78737318333305,
                        "value": 0
                    },
                    {
                        "number": 64,
                        "time": 378.8630010916664,
                        "value": 1
                    },
                    {
                        "number": 64,
                        "time": 379.12983918333305,
                        "value": 0
                    },
                    {
                        "number": 64,
                        "time": 379.1655127249997,
                        "value": 1
                    },
                    {
                        "number": 64,
                        "time": 379.3067799499997,
                        "value": 0
                    },
                    {
                        "number": 64,
                        "time": 379.82618671666637,
                        "value": 1
                    },
                    {
                        "number": 64,
                        "time": 380.14582164999973,
                        "value": 0
                    },
                    {
                        "number": 64,
                        "time": 380.21003402499974,
                        "value": 1
                    },
                    {
                        "number": 64,
                        "time": 380.82219199999975,
                        "value": 0
                    },
                    {
                        "number": 64,
                        "time": 385.0031310833331,
                        "value": 1
                    },
                    {
                        "number": 64,
                        "time": 385.5867502249997,
                        "value": 0
                    },
                    {
                        "number": 64,
                        "time": 387.73715131666637,
                        "value": 1
                    },
                    {
                        "number": 64,
                        "time": 388.33646681666636,
                        "value": 0
                    },
                    {
                        "number": 64,
                        "time": 391.84674331666633,
                        "value": 1
                    },
                    {
                        "number": 64,
                        "time": 392.4960017749997,
                        "value": 0
                    },
                    {
                        "number": 64,
                        "time": 392.5473716749997,
                        "value": 1
                    },
                    {
                        "number": 64,
                        "time": 392.8184905916664,
                        "value": 0
                    },
                    {
                        "number": 64,
                        "time": 395.99200885833307,
                        "value": 1
                    },
                    {
                        "number": 64,
                        "time": 396.4129566499997,
                        "value": 0
                    },
                    {
                        "number": 64,
                        "time": 397.3219184916664,
                        "value": 1
                    },
                    {
                        "number": 64,
                        "time": 397.9726038916664,
                        "value": 0
                    },
                    {
                        "number": 64,
                        "time": 398.0368162666664,
                        "value": 1
                    },
                    {
                        "number": 64,
                        "time": 398.2936657666664,
                        "value": 0
                    },
                    {
                        "number": 64,
                        "time": 398.35359731666637,
                        "value": 1
                    },
                    {
                        "number": 64,
                        "time": 398.64041259166635,
                        "value": 0
                    },
                    {
                        "number": 64,
                        "time": 401.45148767499967,
                        "value": 1
                    },
                    {
                        "number": 64,
                        "time": 402.07220729999966,
                        "value": 0
                    },
                    {
                        "number": 64,
                        "time": 402.21632840833297,
                        "value": 1
                    },
                    {
                        "number": 64,
                        "time": 402.747150708333,
                        "value": 0
                    },
                    {
                        "number": 64,
                        "time": 402.8099361416663,
                        "value": 1
                    },
                    {
                        "number": 64,
                        "time": 404.12272247499965,
                        "value": 0
                    },
                    {
                        "number": 64,
                        "time": 404.18550790833297,
                        "value": 1
                    },
                    {
                        "number": 64,
                        "time": 405.4968672999996,
                        "value": 0
                    },
                    {
                        "number": 64,
                        "time": 405.5325408416663,
                        "value": 1
                    },
                    {
                        "number": 64,
                        "time": 406.8638774166663,
                        "value": 0
                    },
                    {
                        "number": 64,
                        "time": 406.93094367499964,
                        "value": 1
                    },
                    {
                        "number": 64,
                        "time": 408.23944918333297,
                        "value": 0
                    },
                    {
                        "number": 64,
                        "time": 408.2808304916663,
                        "value": 1
                    },
                    {
                        "number": 64,
                        "time": 409.6007515333329,
                        "value": 0
                    },
                    {
                        "number": 64,
                        "time": 409.6806602666663,
                        "value": 1
                    },
                    {
                        "number": 64,
                        "time": 410.9720424749996,
                        "value": 0
                    },
                    {
                        "number": 64,
                        "time": 411.0248393166663,
                        "value": 1
                    },
                    {
                        "number": 64,
                        "time": 411.6584014166663,
                        "value": 0
                    },
                    {
                        "number": 64,
                        "time": 411.7054904916663,
                        "value": 1
                    },
                    {
                        "number": 64,
                        "time": 412.34190647499963,
                        "value": 0
                    },
                    {
                        "number": 64,
                        "time": 413.8102294499996,
                        "value": 1
                    },
                    {
                        "number": 64,
                        "time": 414.3909947083329,
                        "value": 0
                    },
                    {
                        "number": 64,
                        "time": 416.5128569666663,
                        "value": 1
                    },
                    {
                        "number": 64,
                        "time": 416.7953914166663,
                        "value": 0
                    },
                    {
                        "number": 64,
                        "time": 419.26970826666627,
                        "value": 1
                    },
                    {
                        "number": 64,
                        "time": 419.8747315333329,
                        "value": 0
                    },
                    {
                        "number": 64,
                        "time": 421.97947049166623,
                        "value": 1
                    },
                    {
                        "number": 64,
                        "time": 422.6287289499996,
                        "value": 0
                    },
                    {
                        "number": 64,
                        "time": 422.6743910833329,
                        "value": 1
                    },
                    {
                        "number": 64,
                        "time": 422.9612063583329,
                        "value": 0
                    },
                    {
                        "number": 64,
                        "time": 423.32793036666624,
                        "value": 1
                    },
                    {
                        "number": 64,
                        "time": 423.9786157666662,
                        "value": 0
                    },
                    {
                        "number": 64,
                        "time": 424.0485359083329,
                        "value": 1
                    },
                    {
                        "number": 64,
                        "time": 424.34533977499956,
                        "value": 0
                    },
                    {
                        "number": 64,
                        "time": 424.7234793166662,
                        "value": 1
                    },
                    {
                        "number": 64,
                        "time": 425.35846835833286,
                        "value": 0
                    },
                    {
                        "number": 64,
                        "time": 425.41839990833284,
                        "value": 1
                    },
                    {
                        "number": 64,
                        "time": 425.69808047499953,
                        "value": 0
                    },
                    {
                        "number": 64,
                        "time": 427.44323013333286,
                        "value": 1
                    },
                    {
                        "number": 64,
                        "time": 427.7457417666662,
                        "value": 0
                    },
                    {
                        "number": 64,
                        "time": 427.8056733166662,
                        "value": 1
                    },
                    {
                        "number": 64,
                        "time": 428.09248859166615,
                        "value": 0
                    },
                    {
                        "number": 64,
                        "time": 428.1381507249995,
                        "value": 1
                    },
                    {
                        "number": 64,
                        "time": 428.43495459166616,
                        "value": 0
                    },
                    {
                        "number": 64,
                        "time": 428.8130941333328,
                        "value": 1
                    },
                    {
                        "number": 64,
                        "time": 429.4666334166661,
                        "value": 0
                    },
                    {
                        "number": 64,
                        "time": 429.5180033166661,
                        "value": 1
                    },
                    {
                        "number": 64,
                        "time": 429.8062455333328,
                        "value": 0
                    },
                    {
                        "number": 64,
                        "time": 430.1672617749995,
                        "value": 1
                    },
                    {
                        "number": 64,
                        "time": 430.8422051833328,
                        "value": 0
                    },
                    {
                        "number": 64,
                        "time": 430.88786731666613,
                        "value": 1
                    },
                    {
                        "number": 64,
                        "time": 431.1761095333328,
                        "value": 0
                    },
                    {
                        "number": 64,
                        "time": 433.0339875833328,
                        "value": 1
                    },
                    {
                        "number": 64,
                        "time": 433.5747984749995,
                        "value": 0
                    },
                    {
                        "number": 64,
                        "time": 433.6432916749995,
                        "value": 1
                    },
                    {
                        "number": 64,
                        "time": 433.9229722416662,
                        "value": 0
                    },
                    {
                        "number": 64,
                        "time": 433.97576908333286,
                        "value": 1
                    },
                    {
                        "number": 64,
                        "time": 434.2597304749995,
                        "value": 0
                    },
                    {
                        "number": 64,
                        "time": 434.4138401749995,
                        "value": 1
                    },
                    {
                        "number": 64,
                        "time": 434.94608941666615,
                        "value": 0
                    },
                    {
                        "number": 64,
                        "time": 434.99317849166613,
                        "value": 1
                    },
                    {
                        "number": 64,
                        "time": 435.2914092999995,
                        "value": 0
                    },
                    {
                        "number": 64,
                        "time": 435.33992531666615,
                        "value": 1
                    },
                    {
                        "number": 64,
                        "time": 435.62674059166613,
                        "value": 0
                    },
                    {
                        "number": 64,
                        "time": 435.8536243166661,
                        "value": 1
                    },
                    {
                        "number": 64,
                        "time": 436.3287958916661,
                        "value": 0
                    },
                    {
                        "number": 64,
                        "time": 436.3673233166661,
                        "value": 1
                    },
                    {
                        "number": 64,
                        "time": 436.65984635833274,
                        "value": 0
                    },
                    {
                        "number": 64,
                        "time": 436.7254856749994,
                        "value": 1
                    },
                    {
                        "number": 64,
                        "time": 436.99232376666606,
                        "value": 0
                    },
                    {
                        "number": 64,
                        "time": 437.19923030833274,
                        "value": 1
                    },
                    {
                        "number": 64,
                        "time": 437.68581741666605,
                        "value": 0
                    },
                    {
                        "number": 64,
                        "time": 437.73718731666605,
                        "value": 1
                    },
                    {
                        "number": 64,
                        "time": 438.0311372999994,
                        "value": 0
                    },
                    {
                        "number": 64,
                        "time": 438.07109166666606,
                        "value": 1
                    },
                    {
                        "number": 64,
                        "time": 438.3678955333327,
                        "value": 0
                    },
                    {
                        "number": 64,
                        "time": 438.4278270833327,
                        "value": 1
                    },
                    {
                        "number": 64,
                        "time": 440.7623036499994,
                        "value": 0
                    },
                    {
                        "number": 64,
                        "time": 440.8108196666661,
                        "value": 1
                    },
                    {
                        "number": 64,
                        "time": 441.11618518333273,
                        "value": 0
                    },
                    {
                        "number": 64,
                        "time": 442.86989649166605,
                        "value": 1
                    },
                    {
                        "number": 64,
                        "time": 443.16955424166605,
                        "value": 0
                    },
                    {
                        "number": 64,
                        "time": 443.26230544999936,
                        "value": 1
                    },
                    {
                        "number": 64,
                        "time": 443.503458591666,
                        "value": 0
                    },
                    {
                        "number": 64,
                        "time": 443.9072830833327,
                        "value": 1
                    },
                    {
                        "number": 64,
                        "time": 446.2446135333327,
                        "value": 0
                    },
                    {
                        "number": 64,
                        "time": 446.307398966666,
                        "value": 1
                    },
                    {
                        "number": 64,
                        "time": 446.5913603583327,
                        "value": 0
                    },
                    {
                        "number": 64,
                        "time": 449.37104272499937,
                        "value": 1
                    },
                    {
                        "number": 64,
                        "time": 450.01459341666606,
                        "value": 0
                    },
                    {
                        "number": 64,
                        "time": 450.0716710833327,
                        "value": 1
                    },
                    {
                        "number": 64,
                        "time": 450.7123678916661,
                        "value": 0
                    },
                    {
                        "number": 64,
                        "time": 450.73947978333274,
                        "value": 1
                    },
                    {
                        "number": 64,
                        "time": 451.3972998916661,
                        "value": 0
                    },
                    {
                        "number": 64,
                        "time": 451.4700739166661,
                        "value": 1
                    },
                    {
                        "number": 64,
                        "time": 452.07509718333273,
                        "value": 0
                    },
                    {
                        "number": 64,
                        "time": 452.1107707249994,
                        "value": 1
                    },
                    {
                        "number": 64,
                        "time": 452.7528944749994,
                        "value": 0
                    },
                    {
                        "number": 64,
                        "time": 452.82138767499936,
                        "value": 1
                    },
                    {
                        "number": 64,
                        "time": 453.0982143583327,
                        "value": 0
                    },
                    {
                        "number": 64,
                        "time": 454.85620649166606,
                        "value": 1
                    },
                    {
                        "number": 64,
                        "time": 455.8379423583327,
                        "value": 0
                    },
                    {
                        "number": 64,
                        "time": 457.5973614333327,
                        "value": 1
                    },
                    {
                        "number": 64,
                        "time": 458.2352043583327,
                        "value": 0
                    },
                    {
                        "number": 64,
                        "time": 458.319393916666,
                        "value": 1
                    },
                    {
                        "number": 64,
                        "time": 458.91728247499935,
                        "value": 0
                    },
                    {
                        "number": 64,
                        "time": 459.0157414499994,
                        "value": 1
                    },
                    {
                        "number": 64,
                        "time": 459.6107761249994,
                        "value": 0
                    },
                    {
                        "number": 64,
                        "time": 459.6949656833327,
                        "value": 1
                    },
                    {
                        "number": 64,
                        "time": 460.28429259166603,
                        "value": 0
                    },
                    {
                        "number": 64,
                        "time": 460.33994331666605,
                        "value": 1
                    },
                    {
                        "number": 64,
                        "time": 460.9792131833327,
                        "value": 0
                    },
                    {
                        "number": 64,
                        "time": 461.02487531666605,
                        "value": 1
                    },
                    {
                        "number": 64,
                        "time": 461.64987576666607,
                        "value": 0
                    },
                    {
                        "number": 64,
                        "time": 461.7668849833327,
                        "value": 1
                    },
                    {
                        "number": 64,
                        "time": 462.3462232999994,
                        "value": 0
                    },
                    {
                        "number": 64,
                        "time": 462.39473931666606,
                        "value": 1
                    },
                    {
                        "number": 64,
                        "time": 463.0140319999994,
                        "value": 0
                    },
                    {
                        "number": 64,
                        "time": 463.13246815833276,
                        "value": 1
                    },
                    {
                        "number": 64,
                        "time": 463.3793290666661,
                        "value": 0
                    },
                    {
                        "number": 64,
                        "time": 465.7723102416661,
                        "value": 1
                    },
                    {
                        "number": 64,
                        "time": 466.01489032499944,
                        "value": 0
                    },
                    {
                        "number": 64,
                        "time": 466.50147743333275,
                        "value": 1
                    },
                    {
                        "number": 64,
                        "time": 466.7098109166661,
                        "value": 0
                    },
                    {
                        "number": 64,
                        "time": 467.20495967499943,
                        "value": 1
                    },
                    {
                        "number": 64,
                        "time": 467.45610140833276,
                        "value": 0
                    }
                ]
            },
            "id": 3,
            "name": "Pedale"
        },
        {
            "startTime": 0,
            "duration": 0,
            "length": 0,
            "notes": [],
            "controlChanges": {},
            "id": 4,
            "name": "Mozart: Klaviersonate C-Dur KV 330 3. Satz"
        },
        {
            "startTime": 0,
            "duration": 0,
            "length": 0,
            "notes": [],
            "controlChanges": {},
            "id": 5,
            "name": "Copyright  1997 by Bernd Krger"
        },
        {
            "startTime": 0,
            "duration": 0,
            "length": 0,
            "notes": [],
            "controlChanges": {},
            "id": 6,
            "name": "http://www.piano-midi.de"
        },
        {
            "startTime": 0,
            "duration": 0,
            "length": 0,
            "notes": [],
            "controlChanges": {},
            "id": 7,
            "name": "Editon: 2013-06-24"
        },
        {
            "startTime": 0,
            "duration": 0,
            "length": 0,
            "notes": [],
            "controlChanges": {},
            "id": 8,
            "name": "Spur 8"
        }
    ]
}