{
    "header": {
        "PPQ": 480,
        "timeSignature": [
            3,
            4
        ],
        "bpm": 50.23997963606159,
        "name": "2. Satz"
    },
    "startTime": 0,
    "duration": 359.47466800000154,
    "tracks": [
        {
            "startTime": 0,
            "duration": 0,
            "length": 0,
            "notes": [],
            "controlChanges": {},
            "id": 0,
            "name": "2. Satz"
        },
        {
            "startTime": 1.7914019999999997,
            "duration": 359.47466800000007,
            "length": 823,
            "notes": [
                {
                    "name": "C5",
                    "midi": 72,
                    "time": 1.7914019999999997,
                    "velocity": 0.3937007874015748,
                    "duration": 0.597134
                },
                {
                    "name": "C5",
                    "midi": 72,
                    "time": 2.3885359999999998,
                    "velocity": 0.3937007874015748,
                    "duration": 0.597134
                },
                {
                    "name": "C5",
                    "midi": 72,
                    "time": 2.98567,
                    "velocity": 0.3937007874015748,
                    "duration": 0.597134
                },
                {
                    "name": "C5",
                    "midi": 72,
                    "time": 3.582804,
                    "velocity": 0.4094488188976378,
                    "duration": 0.2985669999999998
                },
                {
                    "name": "D5",
                    "midi": 74,
                    "time": 3.8813709999999997,
                    "velocity": 0.3700787401574803,
                    "duration": 0.09952233333333327
                },
                {
                    "name": "C5",
                    "midi": 72,
                    "time": 3.980893333333333,
                    "velocity": 0.36220472440944884,
                    "duration": 0.09952233333333327
                },
                {
                    "name": "B4",
                    "midi": 71,
                    "time": 4.080415666666666,
                    "velocity": 0.36220472440944884,
                    "duration": 0.09952233333333371
                },
                {
                    "name": "C5",
                    "midi": 72,
                    "time": 4.179938,
                    "velocity": 0.4094488188976378,
                    "duration": 0.29856700000000025
                },
                {
                    "name": "F5",
                    "midi": 77,
                    "time": 4.478505,
                    "velocity": 0.31496062992125984,
                    "duration": 0.29856700000000025
                },
                {
                    "name": "C5",
                    "midi": 72,
                    "time": 4.777072,
                    "velocity": 0.3464566929133858,
                    "duration": 0.29856700000000025
                },
                {
                    "name": "A4",
                    "midi": 69,
                    "time": 5.374206000000001,
                    "velocity": 0.33858267716535434,
                    "duration": 0.5971339999999996
                },
                {
                    "name": "C5",
                    "midi": 72,
                    "time": 5.9713400000000005,
                    "velocity": 0.3779527559055118,
                    "duration": 0.5971339999999996
                },
                {
                    "name": "E4",
                    "midi": 64,
                    "time": 6.568474,
                    "velocity": 0.3464566929133858,
                    "duration": 0.5971339999999996
                },
                {
                    "name": "G4",
                    "midi": 67,
                    "time": 7.165608,
                    "velocity": 0.41732283464566927,
                    "duration": 1.194268
                },
                {
                    "name": "F4",
                    "midi": 65,
                    "time": 8.359876,
                    "velocity": 0.3779527559055118,
                    "duration": 0.5971340000000005
                },
                {
                    "name": "C4",
                    "midi": 60,
                    "time": 8.95701,
                    "velocity": 0.31496062992125984,
                    "duration": 0.5971340000000005
                },
                {
                    "name": "F4",
                    "midi": 65,
                    "time": 8.95701,
                    "velocity": 0.5748031496062992,
                    "duration": 0.5971340000000005
                },
                {
                    "name": "E4",
                    "midi": 64,
                    "time": 9.554144,
                    "velocity": 0.4015748031496063,
                    "duration": 0.5971340000000005
                },
                {
                    "name": "G4",
                    "midi": 67,
                    "time": 9.554144,
                    "velocity": 0.5905511811023622,
                    "duration": 0.5971340000000005
                },
                {
                    "name": "C4",
                    "midi": 60,
                    "time": 10.151278000000001,
                    "velocity": 0.31496062992125984,
                    "duration": 0.5971340000000005
                },
                {
                    "name": "F4",
                    "midi": 65,
                    "time": 10.151278000000001,
                    "velocity": 0.4094488188976378,
                    "duration": 0.5971340000000005
                },
                {
                    "name": "A4",
                    "midi": 69,
                    "time": 10.151278000000001,
                    "velocity": 0.5984251968503937,
                    "duration": 0.5971340000000005
                },
                {
                    "name": "F4",
                    "midi": 65,
                    "time": 10.748412000000002,
                    "velocity": 0.49606299212598426,
                    "duration": 0.895700999999999
                },
                {
                    "name": "A#4",
                    "midi": 70,
                    "time": 10.748412000000002,
                    "velocity": 0.6062992125984252,
                    "duration": 0.895700999999999
                },
                {
                    "name": "C5",
                    "midi": 72,
                    "time": 11.644113,
                    "velocity": 0.48031496062992124,
                    "duration": 0.14928349999999924
                },
                {
                    "name": "D5",
                    "midi": 74,
                    "time": 11.7933965,
                    "velocity": 0.44881889763779526,
                    "duration": 0.14928349999999924
                },
                {
                    "name": "C5",
                    "midi": 72,
                    "time": 11.94268,
                    "velocity": 0.4330708661417323,
                    "duration": 0.29856700000000025
                },
                {
                    "name": "F4",
                    "midi": 65,
                    "time": 12.539814,
                    "velocity": 0.36220472440944884,
                    "duration": 0.5971340000000005
                },
                {
                    "name": "B3",
                    "midi": 59,
                    "time": 13.136948,
                    "velocity": 0.1968503937007874,
                    "duration": 1.194268000000001
                },
                {
                    "name": "E4",
                    "midi": 64,
                    "time": 13.136948,
                    "velocity": 0.4094488188976378,
                    "duration": 0.5971340000000005
                },
                {
                    "name": "F4",
                    "midi": 65,
                    "time": 13.734082,
                    "velocity": 0.36220472440944884,
                    "duration": 0.5971340000000005
                },
                {
                    "name": "C4",
                    "midi": 60,
                    "time": 14.331216000000001,
                    "velocity": 0.25196850393700787,
                    "duration": 2.3885359999999984
                },
                {
                    "name": "F4",
                    "midi": 65,
                    "time": 14.331216000000001,
                    "velocity": 0.25196850393700787,
                    "duration": 1.1942679999999992
                },
                {
                    "name": "A4",
                    "midi": 69,
                    "time": 14.331216000000001,
                    "velocity": 0.3700787401574803,
                    "duration": 1.1942679999999992
                },
                {
                    "name": "G4",
                    "midi": 67,
                    "time": 15.525484,
                    "velocity": 0.36220472440944884,
                    "duration": 0.5971339999999987
                },
                {
                    "name": "E4",
                    "midi": 64,
                    "time": 15.525484,
                    "velocity": 0.16535433070866143,
                    "duration": 0.5971339999999987
                },
                {
                    "name": "G4",
                    "midi": 67,
                    "time": 16.122618,
                    "velocity": 0.4251968503937008,
                    "duration": 0.5971340000000005
                },
                {
                    "name": "G4",
                    "midi": 67,
                    "time": 16.719752,
                    "velocity": 0.4645669291338583,
                    "duration": 0.5971340000000005
                },
                {
                    "name": "G4",
                    "midi": 67,
                    "time": 17.316886,
                    "velocity": 0.5118110236220472,
                    "duration": 0.44785050000000126
                },
                {
                    "name": "G4",
                    "midi": 67,
                    "time": 17.7647365,
                    "velocity": 0.5196850393700787,
                    "duration": 0.14928349999999924
                },
                {
                    "name": "G5",
                    "midi": 79,
                    "time": 17.91402,
                    "velocity": 0.5826771653543307,
                    "duration": 0.895700999999999
                },
                {
                    "name": "D5",
                    "midi": 74,
                    "time": 18.809721,
                    "velocity": 0.3937007874015748,
                    "duration": 0.14928349999999924
                },
                {
                    "name": "B4",
                    "midi": 71,
                    "time": 18.9590045,
                    "velocity": 0.36220472440944884,
                    "duration": 0.14928349999999924
                },
                {
                    "name": "G4",
                    "midi": 67,
                    "time": 19.108287999999998,
                    "velocity": 0.3779527559055118,
                    "duration": 0.5971340000000005
                },
                {
                    "name": "G4",
                    "midi": 67,
                    "time": 19.705422,
                    "velocity": 0.4330708661417323,
                    "duration": 0.5971340000000005
                },
                {
                    "name": "G4",
                    "midi": 67,
                    "time": 20.302556,
                    "velocity": 0.49606299212598426,
                    "duration": 0.5971340000000005
                },
                {
                    "name": "G4",
                    "midi": 67,
                    "time": 20.89969,
                    "velocity": 0.5433070866141733,
                    "duration": 0.44785050000000126
                },
                {
                    "name": "G4",
                    "midi": 67,
                    "time": 21.3475405,
                    "velocity": 0.5354330708661418,
                    "duration": 0.14928349999999924
                },
                {
                    "name": "G5",
                    "midi": 79,
                    "time": 21.496824,
                    "velocity": 0.5748031496062992,
                    "duration": 1.6421184999999987
                },
                {
                    "name": "A5",
                    "midi": 81,
                    "time": 23.1389425,
                    "velocity": 0.4409448818897638,
                    "duration": 0.0746417500000014
                },
                {
                    "name": "B5",
                    "midi": 83,
                    "time": 23.21358425,
                    "velocity": 0.3858267716535433,
                    "duration": 0.0746417500000014
                },
                {
                    "name": "C6",
                    "midi": 84,
                    "time": 23.288226,
                    "velocity": 0.4330708661417323,
                    "duration": 0.2985669999999985
                },
                {
                    "name": "B5",
                    "midi": 83,
                    "time": 23.586793,
                    "velocity": 0.3858267716535433,
                    "duration": 0.2985669999999985
                },
                {
                    "name": "A5",
                    "midi": 81,
                    "time": 23.88536,
                    "velocity": 0.4330708661417323,
                    "duration": 0.2985669999999985
                },
                {
                    "name": "G5",
                    "midi": 79,
                    "time": 24.183926999999997,
                    "velocity": 0.36220472440944884,
                    "duration": 0.2985669999999985
                },
                {
                    "name": "F5",
                    "midi": 77,
                    "time": 24.482493999999996,
                    "velocity": 0.4015748031496063,
                    "duration": 0.2985669999999985
                },
                {
                    "name": "E5",
                    "midi": 76,
                    "time": 24.781060999999994,
                    "velocity": 0.3700787401574803,
                    "duration": 0.2985669999999985
                },
                {
                    "name": "C#5",
                    "midi": 73,
                    "time": 25.079627999999992,
                    "velocity": 0.4094488188976378,
                    "duration": 0.2985669999999985
                },
                {
                    "name": "D5",
                    "midi": 74,
                    "time": 25.37819499999999,
                    "velocity": 0.3779527559055118,
                    "duration": 0.2985669999999985
                },
                {
                    "name": "F5",
                    "midi": 77,
                    "time": 25.67676199999999,
                    "velocity": 0.3858267716535433,
                    "duration": 0.2985669999999985
                },
                {
                    "name": "A5",
                    "midi": 81,
                    "time": 25.975328999999988,
                    "velocity": 0.36220472440944884,
                    "duration": 0.2985669999999985
                },
                {
                    "name": "C5",
                    "midi": 72,
                    "time": 26.273895999999986,
                    "velocity": 0.4251968503937008,
                    "duration": 1.791401999999998
                },
                {
                    "name": "E5",
                    "midi": 76,
                    "time": 28.065297999999984,
                    "velocity": 0.3779527559055118,
                    "duration": 0.2985669999999985
                },
                {
                    "name": "B4",
                    "midi": 71,
                    "time": 28.065297999999984,
                    "velocity": 0.29133858267716534,
                    "duration": 0.597133999999997
                },
                {
                    "name": "D5",
                    "midi": 74,
                    "time": 28.363864999999983,
                    "velocity": 0.3700787401574803,
                    "duration": 0.2985669999999985
                },
                {
                    "name": "C5",
                    "midi": 72,
                    "time": 28.66243199999998,
                    "velocity": 0.3700787401574803,
                    "duration": 1.194268000000001
                },
                {
                    "name": "C5",
                    "midi": 72,
                    "time": 30.453833999999983,
                    "velocity": 0.3937007874015748,
                    "duration": 0.5971340000000005
                },
                {
                    "name": "C5",
                    "midi": 72,
                    "time": 31.050967999999983,
                    "velocity": 0.3937007874015748,
                    "duration": 0.5971340000000005
                },
                {
                    "name": "C5",
                    "midi": 72,
                    "time": 31.648101999999984,
                    "velocity": 0.3937007874015748,
                    "duration": 0.5971340000000005
                },
                {
                    "name": "C5",
                    "midi": 72,
                    "time": 32.245235999999984,
                    "velocity": 0.4094488188976378,
                    "duration": 0.2985669999999985
                },
                {
                    "name": "D5",
                    "midi": 74,
                    "time": 32.54380299999998,
                    "velocity": 0.3700787401574803,
                    "duration": 0.09952233333333282
                },
                {
                    "name": "C5",
                    "midi": 72,
                    "time": 32.643325333333316,
                    "velocity": 0.36220472440944884,
                    "duration": 0.09952233333333282
                },
                {
                    "name": "B4",
                    "midi": 71,
                    "time": 32.74284766666665,
                    "velocity": 0.36220472440944884,
                    "duration": 0.09952233333333282
                },
                {
                    "name": "C5",
                    "midi": 72,
                    "time": 32.84236999999998,
                    "velocity": 0.4094488188976378,
                    "duration": 0.2985669999999985
                },
                {
                    "name": "F5",
                    "midi": 77,
                    "time": 33.14093699999998,
                    "velocity": 0.33858267716535434,
                    "duration": 0.2985669999999985
                },
                {
                    "name": "C5",
                    "midi": 72,
                    "time": 33.43950399999998,
                    "velocity": 0.3700787401574803,
                    "duration": 0.2985669999999985
                },
                {
                    "name": "A4",
                    "midi": 69,
                    "time": 34.036637999999975,
                    "velocity": 0.3700787401574803,
                    "duration": 0.597133999999997
                },
                {
                    "name": "C5",
                    "midi": 72,
                    "time": 34.63377199999997,
                    "velocity": 0.3779527559055118,
                    "duration": 0.597133999999997
                },
                {
                    "name": "E4",
                    "midi": 64,
                    "time": 35.23090599999997,
                    "velocity": 0.3543307086614173,
                    "duration": 0.597133999999997
                },
                {
                    "name": "G4",
                    "midi": 67,
                    "time": 35.828039999999966,
                    "velocity": 0.4251968503937008,
                    "duration": 1.194268000000001
                },
                {
                    "name": "F4",
                    "midi": 65,
                    "time": 37.02230799999997,
                    "velocity": 0.3779527559055118,
                    "duration": 0.597133999999997
                },
                {
                    "name": "C4",
                    "midi": 60,
                    "time": 37.619441999999964,
                    "velocity": 0.31496062992125984,
                    "duration": 0.597133999999997
                },
                {
                    "name": "F4",
                    "midi": 65,
                    "time": 37.619441999999964,
                    "velocity": 0.5748031496062992,
                    "duration": 0.597133999999997
                },
                {
                    "name": "E4",
                    "midi": 64,
                    "time": 38.21657599999996,
                    "velocity": 0.4015748031496063,
                    "duration": 0.597133999999997
                },
                {
                    "name": "G4",
                    "midi": 67,
                    "time": 38.21657599999996,
                    "velocity": 0.5905511811023622,
                    "duration": 0.597133999999997
                },
                {
                    "name": "F4",
                    "midi": 65,
                    "time": 38.81370999999996,
                    "velocity": 0.4094488188976378,
                    "duration": 0.597133999999997
                },
                {
                    "name": "C4",
                    "midi": 60,
                    "time": 38.81370999999996,
                    "velocity": 0.31496062992125984,
                    "duration": 0.597133999999997
                },
                {
                    "name": "A4",
                    "midi": 69,
                    "time": 38.81370999999996,
                    "velocity": 0.5984251968503937,
                    "duration": 0.597133999999997
                },
                {
                    "name": "F4",
                    "midi": 65,
                    "time": 39.410843999999955,
                    "velocity": 0.49606299212598426,
                    "duration": 0.8957010000000025
                },
                {
                    "name": "A#4",
                    "midi": 70,
                    "time": 39.410843999999955,
                    "velocity": 0.6062992125984252,
                    "duration": 0.8957010000000025
                },
                {
                    "name": "C5",
                    "midi": 72,
                    "time": 40.30654499999996,
                    "velocity": 0.4645669291338583,
                    "duration": 0.1492835000000028
                },
                {
                    "name": "D5",
                    "midi": 74,
                    "time": 40.45582849999996,
                    "velocity": 0.4409448818897638,
                    "duration": 0.1492835000000028
                },
                {
                    "name": "C5",
                    "midi": 72,
                    "time": 40.60511199999996,
                    "velocity": 0.4409448818897638,
                    "duration": 0.2985669999999985
                },
                {
                    "name": "F4",
                    "midi": 65,
                    "time": 41.20224599999996,
                    "velocity": 0.3700787401574803,
                    "duration": 0.597133999999997
                },
                {
                    "name": "B3",
                    "midi": 59,
                    "time": 41.79937999999996,
                    "velocity": 0.2440944881889764,
                    "duration": 1.194267999999994
                },
                {
                    "name": "E4",
                    "midi": 64,
                    "time": 41.79937999999996,
                    "velocity": 0.4094488188976378,
                    "duration": 0.597133999999997
                },
                {
                    "name": "F4",
                    "midi": 65,
                    "time": 42.396513999999954,
                    "velocity": 0.3543307086614173,
                    "duration": 0.597133999999997
                },
                {
                    "name": "C4",
                    "midi": 60,
                    "time": 42.99364799999995,
                    "velocity": 0.25196850393700787,
                    "duration": 2.388535999999995
                },
                {
                    "name": "F4",
                    "midi": 65,
                    "time": 42.99364799999995,
                    "velocity": 0.25196850393700787,
                    "duration": 1.194268000000001
                },
                {
                    "name": "A4",
                    "midi": 69,
                    "time": 42.99364799999995,
                    "velocity": 0.3700787401574803,
                    "duration": 1.194268000000001
                },
                {
                    "name": "E4",
                    "midi": 64,
                    "time": 44.18791599999995,
                    "velocity": 0.2440944881889764,
                    "duration": 0.597133999999997
                },
                {
                    "name": "G4",
                    "midi": 67,
                    "time": 44.18791599999995,
                    "velocity": 0.36220472440944884,
                    "duration": 0.597133999999997
                },
                {
                    "name": "G4",
                    "midi": 67,
                    "time": 44.78504999999995,
                    "velocity": 0.4251968503937008,
                    "duration": 0.597133999999997
                },
                {
                    "name": "G4",
                    "midi": 67,
                    "time": 45.382183999999945,
                    "velocity": 0.4645669291338583,
                    "duration": 0.597133999999997
                },
                {
                    "name": "G4",
                    "midi": 67,
                    "time": 45.97931799999994,
                    "velocity": 0.5118110236220472,
                    "duration": 0.44785050000000126
                },
                {
                    "name": "G4",
                    "midi": 67,
                    "time": 46.427168499999944,
                    "velocity": 0.5196850393700787,
                    "duration": 0.1492835000000028
                },
                {
                    "name": "G5",
                    "midi": 79,
                    "time": 46.57645199999995,
                    "velocity": 0.5826771653543307,
                    "duration": 0.8957010000000025
                },
                {
                    "name": "D5",
                    "midi": 74,
                    "time": 47.47215299999995,
                    "velocity": 0.3937007874015748,
                    "duration": 0.1492835000000028
                },
                {
                    "name": "B4",
                    "midi": 71,
                    "time": 47.62143649999995,
                    "velocity": 0.36220472440944884,
                    "duration": 0.1492835000000028
                },
                {
                    "name": "G4",
                    "midi": 67,
                    "time": 47.770719999999955,
                    "velocity": 0.4015748031496063,
                    "duration": 0.597133999999997
                },
                {
                    "name": "G4",
                    "midi": 67,
                    "time": 48.36785399999995,
                    "velocity": 0.4645669291338583,
                    "duration": 0.597133999999997
                },
                {
                    "name": "G4",
                    "midi": 67,
                    "time": 48.96498799999995,
                    "velocity": 0.49606299212598426,
                    "duration": 0.597133999999997
                },
                {
                    "name": "G4",
                    "midi": 67,
                    "time": 49.562121999999945,
                    "velocity": 0.5433070866141733,
                    "duration": 0.44785050000000126
                },
                {
                    "name": "G4",
                    "midi": 67,
                    "time": 50.00997249999995,
                    "velocity": 0.5354330708661418,
                    "duration": 0.1492835000000028
                },
                {
                    "name": "G5",
                    "midi": 79,
                    "time": 50.15925599999995,
                    "velocity": 0.5748031496062992,
                    "duration": 1.6421185000000023
                },
                {
                    "name": "A5",
                    "midi": 81,
                    "time": 51.80137449999995,
                    "velocity": 0.4409448818897638,
                    "duration": 0.07464174999999784
                },
                {
                    "name": "B5",
                    "midi": 83,
                    "time": 51.87601624999995,
                    "velocity": 0.3858267716535433,
                    "duration": 0.07464174999999784
                },
                {
                    "name": "C6",
                    "midi": 84,
                    "time": 51.95065799999995,
                    "velocity": 0.41732283464566927,
                    "duration": 0.2985669999999985
                },
                {
                    "name": "B5",
                    "midi": 83,
                    "time": 52.249224999999946,
                    "velocity": 0.3858267716535433,
                    "duration": 0.2985669999999985
                },
                {
                    "name": "A5",
                    "midi": 81,
                    "time": 52.547791999999944,
                    "velocity": 0.4094488188976378,
                    "duration": 0.2985669999999985
                },
                {
                    "name": "G5",
                    "midi": 79,
                    "time": 52.84635899999994,
                    "velocity": 0.3858267716535433,
                    "duration": 0.2985669999999985
                },
                {
                    "name": "F5",
                    "midi": 77,
                    "time": 53.14492599999994,
                    "velocity": 0.4015748031496063,
                    "duration": 0.2985669999999985
                },
                {
                    "name": "E5",
                    "midi": 76,
                    "time": 53.44349299999994,
                    "velocity": 0.3937007874015748,
                    "duration": 0.2985669999999985
                },
                {
                    "name": "C#5",
                    "midi": 73,
                    "time": 53.74205999999994,
                    "velocity": 0.4094488188976378,
                    "duration": 0.2985669999999985
                },
                {
                    "name": "D5",
                    "midi": 74,
                    "time": 54.04062699999994,
                    "velocity": 0.3779527559055118,
                    "duration": 0.2985669999999985
                },
                {
                    "name": "F5",
                    "midi": 77,
                    "time": 54.339193999999935,
                    "velocity": 0.3858267716535433,
                    "duration": 0.2985669999999985
                },
                {
                    "name": "A5",
                    "midi": 81,
                    "time": 54.637760999999934,
                    "velocity": 0.3779527559055118,
                    "duration": 0.2985669999999985
                },
                {
                    "name": "C5",
                    "midi": 72,
                    "time": 54.93632799999993,
                    "velocity": 0.4251968503937008,
                    "duration": 1.791401999999998
                },
                {
                    "name": "E5",
                    "midi": 76,
                    "time": 56.72772999999993,
                    "velocity": 0.3779527559055118,
                    "duration": 0.2985669999999985
                },
                {
                    "name": "B4",
                    "midi": 71,
                    "time": 56.72772999999993,
                    "velocity": 0.33858267716535434,
                    "duration": 0.597133999999997
                },
                {
                    "name": "D5",
                    "midi": 74,
                    "time": 57.02629699999993,
                    "velocity": 0.3700787401574803,
                    "duration": 0.2985669999999985
                },
                {
                    "name": "C5",
                    "midi": 72,
                    "time": 57.32486399999993,
                    "velocity": 0.3700787401574803,
                    "duration": 1.194268000000001
                },
                {
                    "name": "C5",
                    "midi": 72,
                    "time": 59.116265999999925,
                    "velocity": 0.3937007874015748,
                    "duration": 0.597133999999997
                },
                {
                    "name": "D5",
                    "midi": 74,
                    "time": 59.71339999999992,
                    "velocity": 0.4251968503937008,
                    "duration": 0.32344758333333345
                },
                {
                    "name": "C5",
                    "midi": 72,
                    "time": 60.01196699999992,
                    "velocity": 0.3937007874015748,
                    "duration": 0.32344758333333345
                },
                {
                    "name": "A#4",
                    "midi": 70,
                    "time": 60.31053399999992,
                    "velocity": 0.4330708661417323,
                    "duration": 0.32344758333333345
                },
                {
                    "name": "A4",
                    "midi": 69,
                    "time": 60.60910099999992,
                    "velocity": 0.3858267716535433,
                    "duration": 0.32344758333333345
                },
                {
                    "name": "G4",
                    "midi": 67,
                    "time": 60.907667999999916,
                    "velocity": 0.48031496062992124,
                    "duration": 1.194268000000001
                },
                {
                    "name": "F#4",
                    "midi": 66,
                    "time": 62.10193599999992,
                    "velocity": 0.4015748031496063,
                    "duration": 0.597133999999997
                },
                {
                    "name": "F#4",
                    "midi": 66,
                    "time": 62.699069999999914,
                    "velocity": 0.49606299212598426,
                    "duration": 0.597133999999997
                },
                {
                    "name": "G4",
                    "midi": 67,
                    "time": 63.29620399999991,
                    "velocity": 0.5118110236220472,
                    "duration": 0.597133999999997
                },
                {
                    "name": "F#4",
                    "midi": 66,
                    "time": 63.89333799999991,
                    "velocity": 0.4094488188976378,
                    "duration": 0.44785049999999416
                },
                {
                    "name": "A4",
                    "midi": 69,
                    "time": 63.89333799999991,
                    "velocity": 0.5196850393700787,
                    "duration": 0.44785049999999416
                },
                {
                    "name": "F#4",
                    "midi": 66,
                    "time": 64.4904719999999,
                    "velocity": 0.4015748031496063,
                    "duration": 1.194267999999994
                },
                {
                    "name": "A4",
                    "midi": 69,
                    "time": 64.4904719999999,
                    "velocity": 0.5118110236220472,
                    "duration": 1.194267999999994
                },
                {
                    "name": "G4",
                    "midi": 67,
                    "time": 65.68473999999989,
                    "velocity": 0.3543307086614173,
                    "duration": 0.5374206000000044
                },
                {
                    "name": "A#4",
                    "midi": 70,
                    "time": 65.68473999999989,
                    "velocity": 0.4409448818897638,
                    "duration": 0.5374206000000044
                },
                {
                    "name": "E4",
                    "midi": 64,
                    "time": 66.2818739999999,
                    "velocity": 0.4015748031496063,
                    "duration": 0.597133999999997
                },
                {
                    "name": "F4",
                    "midi": 65,
                    "time": 66.8790079999999,
                    "velocity": 0.4330708661417323,
                    "duration": 0.597133999999997
                },
                {
                    "name": "E4",
                    "midi": 64,
                    "time": 67.4761419999999,
                    "velocity": 0.41732283464566927,
                    "duration": 0.44785050000000126
                },
                {
                    "name": "G4",
                    "midi": 67,
                    "time": 67.4761419999999,
                    "velocity": 0.41732283464566927,
                    "duration": 0.44785050000000126
                },
                {
                    "name": "F4",
                    "midi": 65,
                    "time": 68.0732759999999,
                    "velocity": 0.4330708661417323,
                    "duration": 2.9856699999999847
                },
                {
                    "name": "A4",
                    "midi": 69,
                    "time": 68.0732759999999,
                    "velocity": 0.48031496062992124,
                    "duration": 0.597133999999997
                },
                {
                    "name": "A#4",
                    "midi": 70,
                    "time": 68.67040999999989,
                    "velocity": 0.5354330708661418,
                    "duration": 0.597133999999997
                },
                {
                    "name": "C5",
                    "midi": 72,
                    "time": 69.26754399999989,
                    "velocity": 0.5275590551181102,
                    "duration": 0.597133999999997
                },
                {
                    "name": "C#5",
                    "midi": 73,
                    "time": 69.86467799999988,
                    "velocity": 0.5511811023622047,
                    "duration": 0.597133999999997
                },
                {
                    "name": "E5",
                    "midi": 76,
                    "time": 70.46181199999988,
                    "velocity": 0.5669291338582677,
                    "duration": 0.32344758333333345
                },
                {
                    "name": "D5",
                    "midi": 74,
                    "time": 70.76037899999989,
                    "velocity": 0.4566929133858268,
                    "duration": 0.32344758333331924
                },
                {
                    "name": "C5",
                    "midi": 72,
                    "time": 71.05894599999988,
                    "velocity": 0.5118110236220472,
                    "duration": 0.32344758333331924
                },
                {
                    "name": "G4",
                    "midi": 67,
                    "time": 71.35751299999987,
                    "velocity": 0.4330708661417323,
                    "duration": 0.32344758333331924
                },
                {
                    "name": "A#4",
                    "midi": 70,
                    "time": 71.35751299999987,
                    "velocity": 0.4330708661417323,
                    "duration": 0.32344758333331924
                },
                {
                    "name": "F4",
                    "midi": 65,
                    "time": 71.65607999999986,
                    "velocity": 0.36220472440944884,
                    "duration": 1.194267999999994
                },
                {
                    "name": "A4",
                    "midi": 69,
                    "time": 71.65607999999986,
                    "velocity": 0.44881889763779526,
                    "duration": 1.194267999999994
                },
                {
                    "name": "E4",
                    "midi": 64,
                    "time": 72.85034799999985,
                    "velocity": 0.31496062992125984,
                    "duration": 0.597133999999997
                },
                {
                    "name": "G4",
                    "midi": 67,
                    "time": 72.85034799999985,
                    "velocity": 0.4015748031496063,
                    "duration": 0.597133999999997
                },
                {
                    "name": "C5",
                    "midi": 72,
                    "time": 73.44748199999985,
                    "velocity": 0.5118110236220472,
                    "duration": 0.597133999999997
                },
                {
                    "name": "C5",
                    "midi": 72,
                    "time": 74.04461599999985,
                    "velocity": 0.5196850393700787,
                    "duration": 0.597133999999997
                },
                {
                    "name": "C5",
                    "midi": 72,
                    "time": 74.64174999999985,
                    "velocity": 0.5669291338582677,
                    "duration": 0.597133999999997
                },
                {
                    "name": "C5",
                    "midi": 72,
                    "time": 75.23888399999984,
                    "velocity": 0.6377952755905512,
                    "duration": 5.971339999999984
                },
                {
                    "name": "A#5",
                    "midi": 82,
                    "time": 75.23888399999984,
                    "velocity": 0.6377952755905512,
                    "duration": 1.791402000000005
                },
                {
                    "name": "A5",
                    "midi": 81,
                    "time": 77.03028599999985,
                    "velocity": 0.5433070866141733,
                    "duration": 0.597133999999997
                },
                {
                    "name": "G5",
                    "midi": 79,
                    "time": 77.62741999999984,
                    "velocity": 0.5511811023622047,
                    "duration": 0.597133999999997
                },
                {
                    "name": "A#4",
                    "midi": 70,
                    "time": 77.62741999999984,
                    "velocity": 0.4566929133858268,
                    "duration": 0.597133999999997
                },
                {
                    "name": "A4",
                    "midi": 69,
                    "time": 78.22455399999984,
                    "velocity": 0.4409448818897638,
                    "duration": 0.597133999999997
                },
                {
                    "name": "F5",
                    "midi": 77,
                    "time": 78.22455399999984,
                    "velocity": 0.5196850393700787,
                    "duration": 0.597133999999997
                },
                {
                    "name": "F5",
                    "midi": 77,
                    "time": 78.82168799999984,
                    "velocity": 0.5196850393700787,
                    "duration": 1.194267999999994
                },
                {
                    "name": "G4",
                    "midi": 67,
                    "time": 78.82168799999984,
                    "velocity": 0.4330708661417323,
                    "duration": 2.388535999999988
                },
                {
                    "name": "E5",
                    "midi": 76,
                    "time": 80.01595599999983,
                    "velocity": 0.4409448818897638,
                    "duration": 0.597133999999997
                },
                {
                    "name": "D#5",
                    "midi": 75,
                    "time": 80.61308999999983,
                    "velocity": 0.4015748031496063,
                    "duration": 0.597133999999997
                },
                {
                    "name": "D#5",
                    "midi": 75,
                    "time": 81.21022399999983,
                    "velocity": 0.3779527559055118,
                    "duration": 0.597133999999997
                },
                {
                    "name": "D#5",
                    "midi": 75,
                    "time": 81.80735799999982,
                    "velocity": 0.3700787401574803,
                    "duration": 0.597133999999997
                },
                {
                    "name": "D#5",
                    "midi": 75,
                    "time": 82.40449199999982,
                    "velocity": 0.30708661417322836,
                    "duration": 0.07464174999999784
                },
                {
                    "name": "F5",
                    "midi": 77,
                    "time": 82.47913374999982,
                    "velocity": 0.31496062992125984,
                    "duration": 0.07464174999999784
                },
                {
                    "name": "D#5",
                    "midi": 75,
                    "time": 82.55377549999982,
                    "velocity": 0.33070866141732286,
                    "duration": 0.07464174999999784
                },
                {
                    "name": "F5",
                    "midi": 77,
                    "time": 82.62841724999981,
                    "velocity": 0.33070866141732286,
                    "duration": 0.07464174999999784
                },
                {
                    "name": "D#5",
                    "midi": 75,
                    "time": 82.70305899999981,
                    "velocity": 0.33070866141732286,
                    "duration": 0.07464174999999784
                },
                {
                    "name": "F5",
                    "midi": 77,
                    "time": 82.77770074999981,
                    "velocity": 0.33070866141732286,
                    "duration": 0.07464174999999784
                },
                {
                    "name": "D#5",
                    "midi": 75,
                    "time": 82.8523424999998,
                    "velocity": 0.30708661417322836,
                    "duration": 0.07464174999999784
                },
                {
                    "name": "F5",
                    "midi": 77,
                    "time": 82.9269842499998,
                    "velocity": 0.2992125984251969,
                    "duration": 0.07464174999999784
                },
                {
                    "name": "D#5",
                    "midi": 75,
                    "time": 83.0016259999998,
                    "velocity": 0.36220472440944884,
                    "duration": 0.2985670000000056
                },
                {
                    "name": "F5",
                    "midi": 77,
                    "time": 83.30019299999981,
                    "velocity": 0.3937007874015748,
                    "duration": 0.2985670000000056
                },
                {
                    "name": "G5",
                    "midi": 79,
                    "time": 83.59875999999981,
                    "velocity": 0.4330708661417323,
                    "duration": 0.597133999999997
                },
                {
                    "name": "F5",
                    "midi": 77,
                    "time": 84.19589399999981,
                    "velocity": 0.4251968503937008,
                    "duration": 0.2985670000000056
                },
                {
                    "name": "D#5",
                    "midi": 75,
                    "time": 84.49446099999982,
                    "velocity": 0.4015748031496063,
                    "duration": 0.2985670000000056
                },
                {
                    "name": "D#5",
                    "midi": 75,
                    "time": 84.79302799999982,
                    "velocity": 0.41732283464566927,
                    "duration": 0.2985670000000056
                },
                {
                    "name": "D5",
                    "midi": 74,
                    "time": 85.09159499999983,
                    "velocity": 0.3858267716535433,
                    "duration": 0.2836386500000003
                },
                {
                    "name": "D5",
                    "midi": 74,
                    "time": 85.39016199999983,
                    "velocity": 0.4094488188976378,
                    "duration": 0.2985670000000056
                },
                {
                    "name": "C#5",
                    "midi": 73,
                    "time": 85.68872899999984,
                    "velocity": 0.3937007874015748,
                    "duration": 0.2786625333333319
                },
                {
                    "name": "C#5",
                    "midi": 73,
                    "time": 85.98729599999984,
                    "velocity": 0.4330708661417323,
                    "duration": 1.194267999999994
                },
                {
                    "name": "D5",
                    "midi": 74,
                    "time": 87.18156399999984,
                    "velocity": 0.3937007874015748,
                    "duration": 0.597133999999997
                },
                {
                    "name": "F5",
                    "midi": 77,
                    "time": 87.77869799999984,
                    "velocity": 0.4251968503937008,
                    "duration": 0.2985670000000056
                },
                {
                    "name": "E5",
                    "midi": 76,
                    "time": 88.07726499999984,
                    "velocity": 0.4015748031496063,
                    "duration": 0.2985670000000056
                },
                {
                    "name": "G5",
                    "midi": 79,
                    "time": 88.37583199999985,
                    "velocity": 0.4645669291338583,
                    "duration": 0.2985670000000056
                },
                {
                    "name": "F5",
                    "midi": 77,
                    "time": 88.67439899999985,
                    "velocity": 0.41732283464566927,
                    "duration": 0.2985670000000056
                },
                {
                    "name": "E5",
                    "midi": 76,
                    "time": 88.97296599999986,
                    "velocity": 0.4251968503937008,
                    "duration": 0.2985670000000056
                },
                {
                    "name": "D5",
                    "midi": 74,
                    "time": 89.27153299999986,
                    "velocity": 0.3858267716535433,
                    "duration": 0.2786625333333319
                },
                {
                    "name": "D5",
                    "midi": 74,
                    "time": 89.57009999999987,
                    "velocity": 0.3858267716535433,
                    "duration": 1.194267999999994
                },
                {
                    "name": "C5",
                    "midi": 72,
                    "time": 90.76436799999986,
                    "velocity": 0.3779527559055118,
                    "duration": 0.597133999999997
                },
                {
                    "name": "F5",
                    "midi": 77,
                    "time": 91.36150199999986,
                    "velocity": 0.44881889763779526,
                    "duration": 0.44785050000000126
                },
                {
                    "name": "C5",
                    "midi": 72,
                    "time": 91.80935249999986,
                    "velocity": 0.4015748031496063,
                    "duration": 0.14928349999999568
                },
                {
                    "name": "A5",
                    "midi": 81,
                    "time": 91.95863599999986,
                    "velocity": 0.5118110236220472,
                    "duration": 0.44785050000000126
                },
                {
                    "name": "F5",
                    "midi": 77,
                    "time": 92.40648649999986,
                    "velocity": 0.4566929133858268,
                    "duration": 0.14928349999999568
                },
                {
                    "name": "C5",
                    "midi": 72,
                    "time": 92.55576999999985,
                    "velocity": 0.5196850393700787,
                    "duration": 0.44785050000000126
                },
                {
                    "name": "A4",
                    "midi": 69,
                    "time": 93.00362049999985,
                    "velocity": 0.44881889763779526,
                    "duration": 0.14928349999999568
                },
                {
                    "name": "C5",
                    "midi": 72,
                    "time": 93.15290399999985,
                    "velocity": 0.5433070866141733,
                    "duration": 0.8957010000000025
                },
                {
                    "name": "B4",
                    "midi": 71,
                    "time": 94.04860499999985,
                    "velocity": 0.4330708661417323,
                    "duration": 0.2985670000000056
                },
                {
                    "name": "A#4",
                    "midi": 70,
                    "time": 94.34717199999986,
                    "velocity": 0.4330708661417323,
                    "duration": 0.597133999999997
                },
                {
                    "name": "G4",
                    "midi": 67,
                    "time": 94.94430599999986,
                    "velocity": 0.5905511811023622,
                    "duration": 0.597133999999997
                },
                {
                    "name": "E4",
                    "midi": 64,
                    "time": 94.94430599999986,
                    "velocity": 0.5275590551181102,
                    "duration": 0.44785050000000126
                },
                {
                    "name": "C4",
                    "midi": 60,
                    "time": 95.39215649999986,
                    "velocity": 0.5039370078740157,
                    "duration": 0.14928349999999568
                },
                {
                    "name": "F4",
                    "midi": 65,
                    "time": 95.54143999999985,
                    "velocity": 0.5433070866141733,
                    "duration": 0.44785050000000126
                },
                {
                    "name": "A4",
                    "midi": 69,
                    "time": 95.54143999999985,
                    "velocity": 0.5984251968503937,
                    "duration": 0.597133999999997
                },
                {
                    "name": "C4",
                    "midi": 60,
                    "time": 95.98929049999985,
                    "velocity": 0.5118110236220472,
                    "duration": 0.14928349999999568
                },
                {
                    "name": "A#4",
                    "midi": 70,
                    "time": 96.13857399999985,
                    "velocity": 0.6141732283464567,
                    "duration": 0.597133999999997
                },
                {
                    "name": "G4",
                    "midi": 67,
                    "time": 96.13857399999985,
                    "velocity": 0.5511811023622047,
                    "duration": 0.44785050000000126
                },
                {
                    "name": "C4",
                    "midi": 60,
                    "time": 96.58642449999985,
                    "velocity": 0.5433070866141733,
                    "duration": 0.14928349999999568
                },
                {
                    "name": "A4",
                    "midi": 69,
                    "time": 96.73570799999985,
                    "velocity": 0.5511811023622047,
                    "duration": 0.5971340000000112
                },
                {
                    "name": "C5",
                    "midi": 72,
                    "time": 96.73570799999985,
                    "velocity": 0.6299212598425197,
                    "duration": 0.2985670000000056
                },
                {
                    "name": "D5",
                    "midi": 74,
                    "time": 97.03427499999985,
                    "velocity": 0.41732283464566927,
                    "duration": 0.2985670000000056
                },
                {
                    "name": "E5",
                    "midi": 76,
                    "time": 97.33284199999986,
                    "velocity": 0.4251968503937008,
                    "duration": 0.2985670000000056
                },
                {
                    "name": "F5",
                    "midi": 77,
                    "time": 97.63140899999986,
                    "velocity": 0.3700787401574803,
                    "duration": 0.2985670000000056
                },
                {
                    "name": "C4",
                    "midi": 60,
                    "time": 97.92997599999987,
                    "velocity": 0.2992125984251969,
                    "duration": 1.791402000000005
                },
                {
                    "name": "F4",
                    "midi": 65,
                    "time": 97.92997599999987,
                    "velocity": 0.3858267716535433,
                    "duration": 1.791402000000005
                },
                {
                    "name": "E4",
                    "midi": 64,
                    "time": 99.72137799999987,
                    "velocity": 0.29133858267716534,
                    "duration": 0.5971340000000112
                },
                {
                    "name": "A4",
                    "midi": 69,
                    "time": 99.72137799999987,
                    "velocity": 0.3700787401574803,
                    "duration": 0.2985670000000056
                },
                {
                    "name": "G4",
                    "midi": 67,
                    "time": 100.01994499999988,
                    "velocity": 0.3464566929133858,
                    "duration": 0.2985670000000056
                },
                {
                    "name": "F4",
                    "midi": 65,
                    "time": 100.31851199999988,
                    "velocity": 0.3700787401574803,
                    "duration": 1.194267999999994
                },
                {
                    "name": "C5",
                    "midi": 72,
                    "time": 102.10991399999988,
                    "velocity": 0.3937007874015748,
                    "duration": 0.597133999999997
                },
                {
                    "name": "D5",
                    "midi": 74,
                    "time": 102.70704799999987,
                    "velocity": 0.4251968503937008,
                    "duration": 0.32344758333333345
                },
                {
                    "name": "C5",
                    "midi": 72,
                    "time": 103.00561499999988,
                    "velocity": 0.3937007874015748,
                    "duration": 0.32344758333331924
                },
                {
                    "name": "A#4",
                    "midi": 70,
                    "time": 103.30418199999987,
                    "velocity": 0.4330708661417323,
                    "duration": 0.32344758333331924
                },
                {
                    "name": "A4",
                    "midi": 69,
                    "time": 103.60274899999986,
                    "velocity": 0.3858267716535433,
                    "duration": 0.32344758333331924
                },
                {
                    "name": "G4",
                    "midi": 67,
                    "time": 103.90131599999985,
                    "velocity": 0.48031496062992124,
                    "duration": 1.194267999999994
                },
                {
                    "name": "F#4",
                    "midi": 66,
                    "time": 105.09558399999985,
                    "velocity": 0.4015748031496063,
                    "duration": 0.584693708333333
                },
                {
                    "name": "F#4",
                    "midi": 66,
                    "time": 105.69271799999984,
                    "velocity": 0.49606299212598426,
                    "duration": 0.597133999999997
                },
                {
                    "name": "G4",
                    "midi": 67,
                    "time": 106.28985199999984,
                    "velocity": 0.5118110236220472,
                    "duration": 0.597133999999997
                },
                {
                    "name": "F#4",
                    "midi": 66,
                    "time": 106.88698599999984,
                    "velocity": 0.4094488188976378,
                    "duration": 0.44785050000000126
                },
                {
                    "name": "A4",
                    "midi": 69,
                    "time": 106.88698599999984,
                    "velocity": 0.5196850393700787,
                    "duration": 0.44785050000000126
                },
                {
                    "name": "F#4",
                    "midi": 66,
                    "time": 107.48411999999983,
                    "velocity": 0.4015748031496063,
                    "duration": 1.194267999999994
                },
                {
                    "name": "A4",
                    "midi": 69,
                    "time": 107.48411999999983,
                    "velocity": 0.5118110236220472,
                    "duration": 1.194267999999994
                },
                {
                    "name": "G4",
                    "midi": 67,
                    "time": 108.67838799999983,
                    "velocity": 0.3543307086614173,
                    "duration": 0.5374206000000044
                },
                {
                    "name": "A#4",
                    "midi": 70,
                    "time": 108.67838799999983,
                    "velocity": 0.4409448818897638,
                    "duration": 0.5374206000000044
                },
                {
                    "name": "E4",
                    "midi": 64,
                    "time": 109.27552199999984,
                    "velocity": 0.4015748031496063,
                    "duration": 0.597133999999997
                },
                {
                    "name": "F4",
                    "midi": 65,
                    "time": 109.87265599999984,
                    "velocity": 0.4330708661417323,
                    "duration": 0.597133999999997
                },
                {
                    "name": "E4",
                    "midi": 64,
                    "time": 110.46978999999983,
                    "velocity": 0.41732283464566927,
                    "duration": 0.44785050000000126
                },
                {
                    "name": "G4",
                    "midi": 67,
                    "time": 110.46978999999983,
                    "velocity": 0.41732283464566927,
                    "duration": 0.44785050000000126
                },
                {
                    "name": "F4",
                    "midi": 65,
                    "time": 111.06692399999983,
                    "velocity": 0.4330708661417323,
                    "duration": 2.9856699999999847
                },
                {
                    "name": "A4",
                    "midi": 69,
                    "time": 111.06692399999983,
                    "velocity": 0.48031496062992124,
                    "duration": 0.597133999999997
                },
                {
                    "name": "A#4",
                    "midi": 70,
                    "time": 111.66405799999983,
                    "velocity": 0.5354330708661418,
                    "duration": 0.597133999999997
                },
                {
                    "name": "C5",
                    "midi": 72,
                    "time": 112.26119199999982,
                    "velocity": 0.5511811023622047,
                    "duration": 0.597133999999997
                },
                {
                    "name": "C#5",
                    "midi": 73,
                    "time": 112.85832599999982,
                    "velocity": 0.5511811023622047,
                    "duration": 0.597133999999997
                },
                {
                    "name": "E5",
                    "midi": 76,
                    "time": 113.45545999999982,
                    "velocity": 0.5511811023622047,
                    "duration": 0.32344758333333345
                },
                {
                    "name": "D5",
                    "midi": 74,
                    "time": 113.75402699999982,
                    "velocity": 0.4566929133858268,
                    "duration": 0.32344758333331924
                },
                {
                    "name": "C5",
                    "midi": 72,
                    "time": 114.05259399999981,
                    "velocity": 0.5118110236220472,
                    "duration": 0.32344758333331924
                },
                {
                    "name": "G4",
                    "midi": 67,
                    "time": 114.3511609999998,
                    "velocity": 0.4330708661417323,
                    "duration": 0.32344758333331924
                },
                {
                    "name": "A#4",
                    "midi": 70,
                    "time": 114.3511609999998,
                    "velocity": 0.4330708661417323,
                    "duration": 0.32344758333331924
                },
                {
                    "name": "F4",
                    "midi": 65,
                    "time": 114.6497279999998,
                    "velocity": 0.36220472440944884,
                    "duration": 1.194267999999994
                },
                {
                    "name": "A4",
                    "midi": 69,
                    "time": 114.6497279999998,
                    "velocity": 0.44881889763779526,
                    "duration": 1.194267999999994
                },
                {
                    "name": "E4",
                    "midi": 64,
                    "time": 115.84399599999979,
                    "velocity": 0.31496062992125984,
                    "duration": 0.597133999999997
                },
                {
                    "name": "G4",
                    "midi": 67,
                    "time": 115.84399599999979,
                    "velocity": 0.4015748031496063,
                    "duration": 0.597133999999997
                },
                {
                    "name": "C5",
                    "midi": 72,
                    "time": 116.44112999999979,
                    "velocity": 0.5118110236220472,
                    "duration": 0.597133999999997
                },
                {
                    "name": "C5",
                    "midi": 72,
                    "time": 117.03826399999978,
                    "velocity": 0.5196850393700787,
                    "duration": 0.597133999999997
                },
                {
                    "name": "C5",
                    "midi": 72,
                    "time": 117.63539799999978,
                    "velocity": 0.5669291338582677,
                    "duration": 0.597133999999997
                },
                {
                    "name": "C5",
                    "midi": 72,
                    "time": 118.23253199999978,
                    "velocity": 0.6377952755905512,
                    "duration": 5.971339999999984
                },
                {
                    "name": "A#5",
                    "midi": 82,
                    "time": 118.23253199999978,
                    "velocity": 0.6377952755905512,
                    "duration": 1.791402000000005
                },
                {
                    "name": "A5",
                    "midi": 81,
                    "time": 120.02393399999978,
                    "velocity": 0.5433070866141733,
                    "duration": 0.597133999999997
                },
                {
                    "name": "A#4",
                    "midi": 70,
                    "time": 120.62106799999978,
                    "velocity": 0.4566929133858268,
                    "duration": 0.597133999999997
                },
                {
                    "name": "G5",
                    "midi": 79,
                    "time": 120.62106799999978,
                    "velocity": 0.5511811023622047,
                    "duration": 0.597133999999997
                },
                {
                    "name": "A4",
                    "midi": 69,
                    "time": 121.21820199999978,
                    "velocity": 0.4409448818897638,
                    "duration": 0.597133999999997
                },
                {
                    "name": "F5",
                    "midi": 77,
                    "time": 121.21820199999978,
                    "velocity": 0.5196850393700787,
                    "duration": 0.597133999999997
                },
                {
                    "name": "G4",
                    "midi": 67,
                    "time": 121.81533599999977,
                    "velocity": 0.47244094488188976,
                    "duration": 2.388535999999988
                },
                {
                    "name": "F5",
                    "midi": 77,
                    "time": 121.81533599999977,
                    "velocity": 0.47244094488188976,
                    "duration": 1.194267999999994
                },
                {
                    "name": "E5",
                    "midi": 76,
                    "time": 123.00960399999977,
                    "velocity": 0.4409448818897638,
                    "duration": 0.597133999999997
                },
                {
                    "name": "D#5",
                    "midi": 75,
                    "time": 123.60673799999977,
                    "velocity": 0.4015748031496063,
                    "duration": 0.597133999999997
                },
                {
                    "name": "D#5",
                    "midi": 75,
                    "time": 124.20387199999976,
                    "velocity": 0.3937007874015748,
                    "duration": 0.597133999999997
                },
                {
                    "name": "D#5",
                    "midi": 75,
                    "time": 124.80100599999976,
                    "velocity": 0.36220472440944884,
                    "duration": 0.597133999999997
                },
                {
                    "name": "D#5",
                    "midi": 75,
                    "time": 125.39813999999976,
                    "velocity": 0.31496062992125984,
                    "duration": 0.07464174999999784
                },
                {
                    "name": "F5",
                    "midi": 77,
                    "time": 125.47278174999975,
                    "velocity": 0.33070866141732286,
                    "duration": 0.07464174999999784
                },
                {
                    "name": "D#5",
                    "midi": 75,
                    "time": 125.54742349999975,
                    "velocity": 0.33858267716535434,
                    "duration": 0.07464174999999784
                },
                {
                    "name": "F5",
                    "midi": 77,
                    "time": 125.62206524999975,
                    "velocity": 0.3543307086614173,
                    "duration": 0.07464174999999784
                },
                {
                    "name": "D#5",
                    "midi": 75,
                    "time": 125.69670699999975,
                    "velocity": 0.3543307086614173,
                    "duration": 0.07464174999999784
                },
                {
                    "name": "F5",
                    "midi": 77,
                    "time": 125.77134874999975,
                    "velocity": 0.3543307086614173,
                    "duration": 0.07464174999999784
                },
                {
                    "name": "D#5",
                    "midi": 75,
                    "time": 125.84599049999974,
                    "velocity": 0.33858267716535434,
                    "duration": 0.07464174999999784
                },
                {
                    "name": "F5",
                    "midi": 77,
                    "time": 125.92063224999974,
                    "velocity": 0.33070866141732286,
                    "duration": 0.07464174999999784
                },
                {
                    "name": "D#5",
                    "midi": 75,
                    "time": 125.99527399999974,
                    "velocity": 0.3700787401574803,
                    "duration": 0.2985670000000056
                },
                {
                    "name": "F5",
                    "midi": 77,
                    "time": 126.29384099999974,
                    "velocity": 0.3700787401574803,
                    "duration": 0.2985670000000056
                },
                {
                    "name": "G5",
                    "midi": 79,
                    "time": 126.59240799999975,
                    "velocity": 0.4251968503937008,
                    "duration": 0.597133999999997
                },
                {
                    "name": "F5",
                    "midi": 77,
                    "time": 127.18954199999975,
                    "velocity": 0.4251968503937008,
                    "duration": 0.2985670000000056
                },
                {
                    "name": "D#5",
                    "midi": 75,
                    "time": 127.48810899999975,
                    "velocity": 0.4015748031496063,
                    "duration": 0.28612670833332743
                },
                {
                    "name": "D#5",
                    "midi": 75,
                    "time": 127.78667599999974,
                    "velocity": 0.4251968503937008,
                    "duration": 0.29856699999999137
                },
                {
                    "name": "D5",
                    "midi": 74,
                    "time": 128.08524299999974,
                    "velocity": 0.3858267716535433,
                    "duration": 0.28861476666665453
                },
                {
                    "name": "D5",
                    "midi": 74,
                    "time": 128.38380999999973,
                    "velocity": 0.41732283464566927,
                    "duration": 0.29856699999999137
                },
                {
                    "name": "C#5",
                    "midi": 73,
                    "time": 128.68237699999972,
                    "velocity": 0.3858267716535433,
                    "duration": 0.28612670833334164
                },
                {
                    "name": "C#5",
                    "midi": 73,
                    "time": 128.98094399999974,
                    "velocity": 0.4330708661417323,
                    "duration": 1.194267999999994
                },
                {
                    "name": "D5",
                    "midi": 74,
                    "time": 130.17521199999973,
                    "velocity": 0.3937007874015748,
                    "duration": 0.5971340000000112
                },
                {
                    "name": "F5",
                    "midi": 77,
                    "time": 130.77234599999974,
                    "velocity": 0.4409448818897638,
                    "duration": 0.29856699999999137
                },
                {
                    "name": "E5",
                    "midi": 76,
                    "time": 131.07091299999973,
                    "velocity": 0.41732283464566927,
                    "duration": 0.29856699999999137
                },
                {
                    "name": "G5",
                    "midi": 79,
                    "time": 131.36947999999973,
                    "velocity": 0.4645669291338583,
                    "duration": 0.29856699999999137
                },
                {
                    "name": "F5",
                    "midi": 77,
                    "time": 131.66804699999972,
                    "velocity": 0.41732283464566927,
                    "duration": 0.29856699999999137
                },
                {
                    "name": "E5",
                    "midi": 76,
                    "time": 131.9666139999997,
                    "velocity": 0.4251968503937008,
                    "duration": 0.29856699999999137
                },
                {
                    "name": "D5",
                    "midi": 74,
                    "time": 132.2651809999997,
                    "velocity": 0.3937007874015748,
                    "duration": 0.28612670833334164
                },
                {
                    "name": "D5",
                    "midi": 74,
                    "time": 132.56374799999972,
                    "velocity": 0.3858267716535433,
                    "duration": 1.194267999999994
                },
                {
                    "name": "C5",
                    "midi": 72,
                    "time": 133.7580159999997,
                    "velocity": 0.3779527559055118,
                    "duration": 0.5971340000000112
                },
                {
                    "name": "F5",
                    "midi": 77,
                    "time": 134.35514999999972,
                    "velocity": 0.44881889763779526,
                    "duration": 0.44785049999998705
                },
                {
                    "name": "C5",
                    "midi": 72,
                    "time": 134.8030004999997,
                    "velocity": 0.4015748031496063,
                    "duration": 0.14928349999999568
                },
                {
                    "name": "A5",
                    "midi": 81,
                    "time": 134.9522839999997,
                    "velocity": 0.5118110236220472,
                    "duration": 0.44785049999998705
                },
                {
                    "name": "F5",
                    "midi": 77,
                    "time": 135.4001344999997,
                    "velocity": 0.4566929133858268,
                    "duration": 0.14928349999999568
                },
                {
                    "name": "C5",
                    "midi": 72,
                    "time": 135.5494179999997,
                    "velocity": 0.5196850393700787,
                    "duration": 0.44785049999998705
                },
                {
                    "name": "A4",
                    "midi": 69,
                    "time": 135.99726849999968,
                    "velocity": 0.44881889763779526,
                    "duration": 0.14928349999999568
                },
                {
                    "name": "C5",
                    "midi": 72,
                    "time": 136.14655199999967,
                    "velocity": 0.5433070866141733,
                    "duration": 0.8957010000000025
                },
                {
                    "name": "B4",
                    "midi": 71,
                    "time": 137.04225299999968,
                    "velocity": 0.5118110236220472,
                    "duration": 0.29856699999999137
                },
                {
                    "name": "A#4",
                    "midi": 70,
                    "time": 137.34081999999967,
                    "velocity": 0.5118110236220472,
                    "duration": 0.5971340000000112
                },
                {
                    "name": "E4",
                    "midi": 64,
                    "time": 137.93795399999968,
                    "velocity": 0.5275590551181102,
                    "duration": 0.44785049999998705
                },
                {
                    "name": "G4",
                    "midi": 67,
                    "time": 137.93795399999968,
                    "velocity": 0.5905511811023622,
                    "duration": 0.5971339999999827
                },
                {
                    "name": "C4",
                    "midi": 60,
                    "time": 138.38580449999967,
                    "velocity": 0.5039370078740157,
                    "duration": 0.14928349999999568
                },
                {
                    "name": "F4",
                    "midi": 65,
                    "time": 138.53508799999966,
                    "velocity": 0.5433070866141733,
                    "duration": 0.44785049999998705
                },
                {
                    "name": "A4",
                    "midi": 69,
                    "time": 138.53508799999966,
                    "velocity": 0.5984251968503937,
                    "duration": 0.5971339999999827
                },
                {
                    "name": "C4",
                    "midi": 60,
                    "time": 138.98293849999965,
                    "velocity": 0.5118110236220472,
                    "duration": 0.14928349999999568
                },
                {
                    "name": "G4",
                    "midi": 67,
                    "time": 139.13222199999964,
                    "velocity": 0.5590551181102362,
                    "duration": 0.44785049999998705
                },
                {
                    "name": "A#4",
                    "midi": 70,
                    "time": 139.13222199999964,
                    "velocity": 0.6141732283464567,
                    "duration": 0.5971339999999827
                },
                {
                    "name": "C4",
                    "midi": 60,
                    "time": 139.58007249999963,
                    "velocity": 0.5433070866141733,
                    "duration": 0.14928349999999568
                },
                {
                    "name": "C5",
                    "midi": 72,
                    "time": 139.72935599999963,
                    "velocity": 0.6299212598425197,
                    "duration": 0.29856699999999137
                },
                {
                    "name": "A4",
                    "midi": 69,
                    "time": 139.72935599999963,
                    "velocity": 0.5590551181102362,
                    "duration": 0.5971339999999827
                },
                {
                    "name": "D5",
                    "midi": 74,
                    "time": 140.02792299999962,
                    "velocity": 0.4015748031496063,
                    "duration": 0.29856699999999137
                },
                {
                    "name": "E5",
                    "midi": 76,
                    "time": 140.3264899999996,
                    "velocity": 0.4251968503937008,
                    "duration": 0.29856699999999137
                },
                {
                    "name": "F5",
                    "midi": 77,
                    "time": 140.6250569999996,
                    "velocity": 0.3700787401574803,
                    "duration": 0.29856699999999137
                },
                {
                    "name": "C4",
                    "midi": 60,
                    "time": 140.9236239999996,
                    "velocity": 0.2992125984251969,
                    "duration": 1.791402000000005
                },
                {
                    "name": "F4",
                    "midi": 65,
                    "time": 140.9236239999996,
                    "velocity": 0.3858267716535433,
                    "duration": 1.791402000000005
                },
                {
                    "name": "A4",
                    "midi": 69,
                    "time": 142.7150259999996,
                    "velocity": 0.3700787401574803,
                    "duration": 0.29856699999999137
                },
                {
                    "name": "E4",
                    "midi": 64,
                    "time": 142.7150259999996,
                    "velocity": 0.29133858267716534,
                    "duration": 0.5971339999999827
                },
                {
                    "name": "G4",
                    "midi": 67,
                    "time": 143.0135929999996,
                    "velocity": 0.3464566929133858,
                    "duration": 0.29856699999999137
                },
                {
                    "name": "F4",
                    "midi": 65,
                    "time": 143.31215999999958,
                    "velocity": 0.3700787401574803,
                    "duration": 1.194267999999994
                },
                {
                    "name": "G#4",
                    "midi": 68,
                    "time": 145.10356199999958,
                    "velocity": 0.29133858267716534,
                    "duration": 0.5672773000000007
                },
                {
                    "name": "C4",
                    "midi": 60,
                    "time": 145.10356199999958,
                    "velocity": 0.29133858267716534,
                    "duration": 0.5672773000000007
                },
                {
                    "name": "G#4",
                    "midi": 68,
                    "time": 145.7006959999996,
                    "velocity": 0.29133858267716534,
                    "duration": 0.5672773000000007
                },
                {
                    "name": "C4",
                    "midi": 60,
                    "time": 145.7006959999996,
                    "velocity": 0.29133858267716534,
                    "duration": 0.5672773000000007
                },
                {
                    "name": "C4",
                    "midi": 60,
                    "time": 146.2978299999996,
                    "velocity": 0.29133858267716534,
                    "duration": 0.5672773000000007
                },
                {
                    "name": "G#4",
                    "midi": 68,
                    "time": 146.2978299999996,
                    "velocity": 0.29133858267716534,
                    "duration": 0.5672773000000007
                },
                {
                    "name": "G#4",
                    "midi": 68,
                    "time": 146.89496399999962,
                    "velocity": 0.31496062992125984,
                    "duration": 1.791402000000005
                },
                {
                    "name": "C4",
                    "midi": 60,
                    "time": 146.89496399999962,
                    "velocity": 0.31496062992125984,
                    "duration": 1.791402000000005
                },
                {
                    "name": "G4",
                    "midi": 67,
                    "time": 148.68636599999962,
                    "velocity": 0.29133858267716534,
                    "duration": 0.5971340000000112
                },
                {
                    "name": "A#3",
                    "midi": 58,
                    "time": 148.68636599999962,
                    "velocity": 0.29133858267716534,
                    "duration": 0.5971340000000112
                },
                {
                    "name": "A#4",
                    "midi": 70,
                    "time": 149.28349999999963,
                    "velocity": 0.29133858267716534,
                    "duration": 0.5971340000000112
                },
                {
                    "name": "C#4",
                    "midi": 61,
                    "time": 149.28349999999963,
                    "velocity": 0.29133858267716534,
                    "duration": 0.5971340000000112
                },
                {
                    "name": "G3",
                    "midi": 55,
                    "time": 149.88063399999965,
                    "velocity": 0.29133858267716534,
                    "duration": 0.5971340000000112
                },
                {
                    "name": "E4",
                    "midi": 64,
                    "time": 149.88063399999965,
                    "velocity": 0.29133858267716534,
                    "duration": 0.5971340000000112
                },
                {
                    "name": "F4",
                    "midi": 65,
                    "time": 150.47776799999966,
                    "velocity": 0.33070866141732286,
                    "duration": 1.791402000000005
                },
                {
                    "name": "G#3",
                    "midi": 56,
                    "time": 150.47776799999966,
                    "velocity": 0.33070866141732286,
                    "duration": 1.791402000000005
                },
                {
                    "name": "C5",
                    "midi": 72,
                    "time": 152.26916999999966,
                    "velocity": 0.33070866141732286,
                    "duration": 0.5672773000000007
                },
                {
                    "name": "G#4",
                    "midi": 68,
                    "time": 152.26916999999966,
                    "velocity": 0.33070866141732286,
                    "duration": 0.5672773000000007
                },
                {
                    "name": "C5",
                    "midi": 72,
                    "time": 152.86630399999967,
                    "velocity": 0.3464566929133858,
                    "duration": 0.5672773000000007
                },
                {
                    "name": "G#4",
                    "midi": 68,
                    "time": 152.86630399999967,
                    "velocity": 0.3464566929133858,
                    "duration": 0.5672773000000007
                },
                {
                    "name": "G#4",
                    "midi": 68,
                    "time": 153.46343799999968,
                    "velocity": 0.31496062992125984,
                    "duration": 0.5672773000000007
                },
                {
                    "name": "C5",
                    "midi": 72,
                    "time": 153.46343799999968,
                    "velocity": 0.31496062992125984,
                    "duration": 0.5672773000000007
                },
                {
                    "name": "C5",
                    "midi": 72,
                    "time": 154.0605719999997,
                    "velocity": 0.3937007874015748,
                    "duration": 1.791402000000005
                },
                {
                    "name": "G4",
                    "midi": 67,
                    "time": 154.0605719999997,
                    "velocity": 0.3937007874015748,
                    "duration": 3.58280400000001
                },
                {
                    "name": "C#5",
                    "midi": 73,
                    "time": 155.8519739999997,
                    "velocity": 0.4015748031496063,
                    "duration": 0.5971340000000112
                },
                {
                    "name": "C5",
                    "midi": 72,
                    "time": 156.4491079999997,
                    "velocity": 0.3937007874015748,
                    "duration": 0.5971340000000112
                },
                {
                    "name": "A#4",
                    "midi": 70,
                    "time": 157.04624199999972,
                    "velocity": 0.3779527559055118,
                    "duration": 0.44785049999998705
                },
                {
                    "name": "C5",
                    "midi": 72,
                    "time": 157.4940924999997,
                    "velocity": 0.36220472440944884,
                    "duration": 0.14928349999999568
                },
                {
                    "name": "A#4",
                    "midi": 70,
                    "time": 157.6433759999997,
                    "velocity": 0.41732283464566927,
                    "duration": 0.5971340000000112
                },
                {
                    "name": "G4",
                    "midi": 67,
                    "time": 157.6433759999997,
                    "velocity": 0.41732283464566927,
                    "duration": 0.5971340000000112
                },
                {
                    "name": "F4",
                    "midi": 65,
                    "time": 158.24050999999972,
                    "velocity": 0.3464566929133858,
                    "duration": 0.5971340000000112
                },
                {
                    "name": "G#4",
                    "midi": 68,
                    "time": 158.24050999999972,
                    "velocity": 0.3464566929133858,
                    "duration": 0.5971340000000112
                },
                {
                    "name": "G#4",
                    "midi": 68,
                    "time": 159.43477799999974,
                    "velocity": 0.41732283464566927,
                    "duration": 0.5971340000000112
                },
                {
                    "name": "A#4",
                    "midi": 70,
                    "time": 160.03191199999975,
                    "velocity": 0.4566929133858268,
                    "duration": 0.5971340000000112
                },
                {
                    "name": "C5",
                    "midi": 72,
                    "time": 160.62904599999976,
                    "velocity": 0.41732283464566927,
                    "duration": 0.5971340000000112
                },
                {
                    "name": "D#5",
                    "midi": 75,
                    "time": 161.22617999999977,
                    "velocity": 0.48031496062992124,
                    "duration": 0.5971340000000112
                },
                {
                    "name": "C#5",
                    "midi": 73,
                    "time": 161.82331399999978,
                    "velocity": 0.44881889763779526,
                    "duration": 0.5971340000000112
                },
                {
                    "name": "C5",
                    "midi": 72,
                    "time": 162.9429402499998,
                    "velocity": 0.47244094488188976,
                    "duration": 0.07464175000001205
                },
                {
                    "name": "C#5",
                    "midi": 73,
                    "time": 163.0175819999998,
                    "velocity": 0.5826771653543307,
                    "duration": 0.5224922499999991
                },
                {
                    "name": "C5",
                    "midi": 72,
                    "time": 163.5400742499998,
                    "velocity": 0.5039370078740157,
                    "duration": 0.07464175000001205
                },
                {
                    "name": "C#5",
                    "midi": 73,
                    "time": 163.61471599999982,
                    "velocity": 0.6299212598425197,
                    "duration": 0.5224922499999991
                },
                {
                    "name": "C5",
                    "midi": 72,
                    "time": 164.13720824999982,
                    "velocity": 0.5354330708661418,
                    "duration": 0.07464175000001205
                },
                {
                    "name": "C#5",
                    "midi": 73,
                    "time": 164.21184999999983,
                    "velocity": 0.7007874015748031,
                    "duration": 0.5971340000000112
                },
                {
                    "name": "C#5",
                    "midi": 73,
                    "time": 164.80898399999984,
                    "velocity": 0.7086614173228346,
                    "duration": 0.29856699999999137
                },
                {
                    "name": "D#5",
                    "midi": 75,
                    "time": 165.10755099999983,
                    "velocity": 0.5039370078740157,
                    "duration": 0.09952233333333993
                },
                {
                    "name": "C#5",
                    "midi": 73,
                    "time": 165.20707333333317,
                    "velocity": 0.44881889763779526,
                    "duration": 0.09952233333333993
                },
                {
                    "name": "C5",
                    "midi": 72,
                    "time": 165.3065956666665,
                    "velocity": 0.5039370078740157,
                    "duration": 0.09952233333333993
                },
                {
                    "name": "C#5",
                    "midi": 73,
                    "time": 165.40611799999985,
                    "velocity": 0.5039370078740157,
                    "duration": 0.29856699999999137
                },
                {
                    "name": "D#5",
                    "midi": 75,
                    "time": 165.70468499999984,
                    "velocity": 0.4409448818897638,
                    "duration": 0.29856699999999137
                },
                {
                    "name": "F5",
                    "midi": 77,
                    "time": 166.00325199999983,
                    "velocity": 0.3700787401574803,
                    "duration": 1.791402000000005
                },
                {
                    "name": "D#5",
                    "midi": 75,
                    "time": 167.79465399999984,
                    "velocity": 0.3700787401574803,
                    "duration": 0.29856699999999137
                },
                {
                    "name": "C#5",
                    "midi": 73,
                    "time": 168.09322099999983,
                    "velocity": 0.3700787401574803,
                    "duration": 0.29856699999999137
                },
                {
                    "name": "C5",
                    "midi": 72,
                    "time": 168.39178799999982,
                    "velocity": 0.4015748031496063,
                    "duration": 0.29856699999999137
                },
                {
                    "name": "D#5",
                    "midi": 75,
                    "time": 168.6903549999998,
                    "velocity": 0.3700787401574803,
                    "duration": 0.29856699999999137
                },
                {
                    "name": "C#5",
                    "midi": 73,
                    "time": 168.9889219999998,
                    "velocity": 0.3700787401574803,
                    "duration": 0.29856699999999137
                },
                {
                    "name": "A#4",
                    "midi": 70,
                    "time": 169.2874889999998,
                    "velocity": 0.3700787401574803,
                    "duration": 0.29856699999999137
                },
                {
                    "name": "G#4",
                    "midi": 68,
                    "time": 169.5860559999998,
                    "velocity": 0.41732283464566927,
                    "duration": 1.791402000000005
                },
                {
                    "name": "G4",
                    "midi": 67,
                    "time": 171.3774579999998,
                    "velocity": 0.33858267716535434,
                    "duration": 0.5971339999999827
                },
                {
                    "name": "C5",
                    "midi": 72,
                    "time": 171.3774579999998,
                    "velocity": 0.33858267716535434,
                    "duration": 0.29856699999999137
                },
                {
                    "name": "A#4",
                    "midi": 70,
                    "time": 171.67602499999978,
                    "velocity": 0.33858267716535434,
                    "duration": 0.29856699999999137
                },
                {
                    "name": "G#4",
                    "midi": 68,
                    "time": 171.97459199999977,
                    "velocity": 0.3700787401574803,
                    "duration": 1.194267999999994
                },
                {
                    "name": "C4",
                    "midi": 60,
                    "time": 173.76599399999978,
                    "velocity": 0.29133858267716534,
                    "duration": 0.5672773000000007
                },
                {
                    "name": "G#4",
                    "midi": 68,
                    "time": 173.76599399999978,
                    "velocity": 0.29133858267716534,
                    "duration": 0.5672773000000007
                },
                {
                    "name": "C4",
                    "midi": 60,
                    "time": 174.3631279999998,
                    "velocity": 0.29133858267716534,
                    "duration": 0.5672773000000007
                },
                {
                    "name": "G#4",
                    "midi": 68,
                    "time": 174.3631279999998,
                    "velocity": 0.29133858267716534,
                    "duration": 0.5672773000000007
                },
                {
                    "name": "C4",
                    "midi": 60,
                    "time": 174.9602619999998,
                    "velocity": 0.29133858267716534,
                    "duration": 0.5672773000000007
                },
                {
                    "name": "G#4",
                    "midi": 68,
                    "time": 174.9602619999998,
                    "velocity": 0.29133858267716534,
                    "duration": 0.5672773000000007
                },
                {
                    "name": "C4",
                    "midi": 60,
                    "time": 175.5573959999998,
                    "velocity": 0.31496062992125984,
                    "duration": 1.791402000000005
                },
                {
                    "name": "G#4",
                    "midi": 68,
                    "time": 175.5573959999998,
                    "velocity": 0.31496062992125984,
                    "duration": 1.791402000000005
                },
                {
                    "name": "A#3",
                    "midi": 58,
                    "time": 177.34879799999982,
                    "velocity": 0.29133858267716534,
                    "duration": 0.5971340000000112
                },
                {
                    "name": "G4",
                    "midi": 67,
                    "time": 177.34879799999982,
                    "velocity": 0.29133858267716534,
                    "duration": 0.5971340000000112
                },
                {
                    "name": "C#4",
                    "midi": 61,
                    "time": 177.94593199999983,
                    "velocity": 0.29133858267716534,
                    "duration": 0.5971340000000112
                },
                {
                    "name": "A#4",
                    "midi": 70,
                    "time": 177.94593199999983,
                    "velocity": 0.29133858267716534,
                    "duration": 0.5971340000000112
                },
                {
                    "name": "G3",
                    "midi": 55,
                    "time": 178.54306599999984,
                    "velocity": 0.29133858267716534,
                    "duration": 0.5971340000000112
                },
                {
                    "name": "E4",
                    "midi": 64,
                    "time": 178.54306599999984,
                    "velocity": 0.29133858267716534,
                    "duration": 0.5971340000000112
                },
                {
                    "name": "G#3",
                    "midi": 56,
                    "time": 179.14019999999985,
                    "velocity": 0.33070866141732286,
                    "duration": 1.791402000000005
                },
                {
                    "name": "F4",
                    "midi": 65,
                    "time": 179.14019999999985,
                    "velocity": 0.33070866141732286,
                    "duration": 1.791402000000005
                },
                {
                    "name": "G#4",
                    "midi": 68,
                    "time": 180.93160199999986,
                    "velocity": 0.33070866141732286,
                    "duration": 0.5672773000000007
                },
                {
                    "name": "C5",
                    "midi": 72,
                    "time": 180.93160199999986,
                    "velocity": 0.33070866141732286,
                    "duration": 0.5672773000000007
                },
                {
                    "name": "G#4",
                    "midi": 68,
                    "time": 181.52873599999987,
                    "velocity": 0.3464566929133858,
                    "duration": 0.5672773000000007
                },
                {
                    "name": "C5",
                    "midi": 72,
                    "time": 181.52873599999987,
                    "velocity": 0.3464566929133858,
                    "duration": 0.5672773000000007
                },
                {
                    "name": "G#4",
                    "midi": 68,
                    "time": 182.12586999999988,
                    "velocity": 0.31496062992125984,
                    "duration": 0.5672773000000007
                },
                {
                    "name": "C5",
                    "midi": 72,
                    "time": 182.12586999999988,
                    "velocity": 0.31496062992125984,
                    "duration": 0.5672773000000007
                },
                {
                    "name": "C5",
                    "midi": 72,
                    "time": 182.7230039999999,
                    "velocity": 0.3937007874015748,
                    "duration": 1.791402000000005
                },
                {
                    "name": "G4",
                    "midi": 67,
                    "time": 182.7230039999999,
                    "velocity": 0.3937007874015748,
                    "duration": 3.58280400000001
                },
                {
                    "name": "C#5",
                    "midi": 73,
                    "time": 184.5144059999999,
                    "velocity": 0.4015748031496063,
                    "duration": 0.5971340000000112
                },
                {
                    "name": "C5",
                    "midi": 72,
                    "time": 185.1115399999999,
                    "velocity": 0.3937007874015748,
                    "duration": 0.5971340000000112
                },
                {
                    "name": "A#4",
                    "midi": 70,
                    "time": 185.70867399999992,
                    "velocity": 0.3779527559055118,
                    "duration": 0.44785049999998705
                },
                {
                    "name": "C5",
                    "midi": 72,
                    "time": 186.1565244999999,
                    "velocity": 0.36220472440944884,
                    "duration": 0.14928349999999568
                },
                {
                    "name": "G4",
                    "midi": 67,
                    "time": 186.3058079999999,
                    "velocity": 0.41732283464566927,
                    "duration": 0.5971340000000112
                },
                {
                    "name": "A#4",
                    "midi": 70,
                    "time": 186.3058079999999,
                    "velocity": 0.41732283464566927,
                    "duration": 0.5971340000000112
                },
                {
                    "name": "F4",
                    "midi": 65,
                    "time": 186.9029419999999,
                    "velocity": 0.3464566929133858,
                    "duration": 0.5971340000000112
                },
                {
                    "name": "G#4",
                    "midi": 68,
                    "time": 186.9029419999999,
                    "velocity": 0.3464566929133858,
                    "duration": 0.5971340000000112
                },
                {
                    "name": "G#4",
                    "midi": 68,
                    "time": 188.09720999999993,
                    "velocity": 0.41732283464566927,
                    "duration": 0.5971340000000112
                },
                {
                    "name": "A#4",
                    "midi": 70,
                    "time": 188.69434399999994,
                    "velocity": 0.4566929133858268,
                    "duration": 0.5971340000000112
                },
                {
                    "name": "C5",
                    "midi": 72,
                    "time": 189.29147799999996,
                    "velocity": 0.41732283464566927,
                    "duration": 0.5971340000000112
                },
                {
                    "name": "D#5",
                    "midi": 75,
                    "time": 189.88861199999997,
                    "velocity": 0.48031496062992124,
                    "duration": 0.5971340000000112
                },
                {
                    "name": "C#5",
                    "midi": 73,
                    "time": 190.48574599999998,
                    "velocity": 0.44881889763779526,
                    "duration": 0.5971340000000112
                },
                {
                    "name": "C5",
                    "midi": 72,
                    "time": 191.60537225,
                    "velocity": 0.44881889763779526,
                    "duration": 0.07464175000001205
                },
                {
                    "name": "C#5",
                    "midi": 73,
                    "time": 191.680014,
                    "velocity": 0.5669291338582677,
                    "duration": 0.5224922499999991
                },
                {
                    "name": "C5",
                    "midi": 72,
                    "time": 192.20250625,
                    "velocity": 0.49606299212598426,
                    "duration": 0.07464175000001205
                },
                {
                    "name": "C#5",
                    "midi": 73,
                    "time": 192.277148,
                    "velocity": 0.6141732283464567,
                    "duration": 0.5224922499999991
                },
                {
                    "name": "C5",
                    "midi": 72,
                    "time": 192.79964025,
                    "velocity": 0.5433070866141733,
                    "duration": 0.07464175000001205
                },
                {
                    "name": "C#5",
                    "midi": 73,
                    "time": 192.87428200000002,
                    "velocity": 0.6771653543307087,
                    "duration": 0.5971340000000112
                },
                {
                    "name": "C#5",
                    "midi": 73,
                    "time": 193.47141600000003,
                    "velocity": 0.7480314960629921,
                    "duration": 0.29856699999999137
                },
                {
                    "name": "D#5",
                    "midi": 75,
                    "time": 193.76998300000002,
                    "velocity": 0.47244094488188976,
                    "duration": 0.09952233333333993
                },
                {
                    "name": "C#5",
                    "midi": 73,
                    "time": 193.86950533333336,
                    "velocity": 0.4409448818897638,
                    "duration": 0.09952233333333993
                },
                {
                    "name": "C5",
                    "midi": 72,
                    "time": 193.9690276666667,
                    "velocity": 0.47244094488188976,
                    "duration": 0.09952233333333993
                },
                {
                    "name": "C#5",
                    "midi": 73,
                    "time": 194.06855000000004,
                    "velocity": 0.48031496062992124,
                    "duration": 0.29856699999999137
                },
                {
                    "name": "D#5",
                    "midi": 75,
                    "time": 194.36711700000004,
                    "velocity": 0.41732283464566927,
                    "duration": 0.29856699999999137
                },
                {
                    "name": "F5",
                    "midi": 77,
                    "time": 194.66568400000003,
                    "velocity": 0.3700787401574803,
                    "duration": 1.791402000000005
                },
                {
                    "name": "D#5",
                    "midi": 75,
                    "time": 196.45708600000003,
                    "velocity": 0.3700787401574803,
                    "duration": 0.29856699999999137
                },
                {
                    "name": "C#5",
                    "midi": 73,
                    "time": 196.75565300000002,
                    "velocity": 0.3464566929133858,
                    "duration": 0.29856699999999137
                },
                {
                    "name": "C5",
                    "midi": 72,
                    "time": 197.05422000000002,
                    "velocity": 0.4015748031496063,
                    "duration": 0.29856699999999137
                },
                {
                    "name": "D#5",
                    "midi": 75,
                    "time": 197.352787,
                    "velocity": 0.3464566929133858,
                    "duration": 0.29856699999999137
                },
                {
                    "name": "C#5",
                    "midi": 73,
                    "time": 197.651354,
                    "velocity": 0.3700787401574803,
                    "duration": 0.29856699999999137
                },
                {
                    "name": "A#4",
                    "midi": 70,
                    "time": 197.949921,
                    "velocity": 0.36220472440944884,
                    "duration": 0.29856699999999137
                },
                {
                    "name": "G#4",
                    "midi": 68,
                    "time": 198.24848799999998,
                    "velocity": 0.41732283464566927,
                    "duration": 1.791402000000005
                },
                {
                    "name": "G4",
                    "midi": 67,
                    "time": 200.03988999999999,
                    "velocity": 0.33858267716535434,
                    "duration": 0.5971339999999827
                },
                {
                    "name": "C5",
                    "midi": 72,
                    "time": 200.03988999999999,
                    "velocity": 0.33858267716535434,
                    "duration": 0.29856699999999137
                },
                {
                    "name": "A#4",
                    "midi": 70,
                    "time": 200.33845699999998,
                    "velocity": 0.33858267716535434,
                    "duration": 0.29856699999999137
                },
                {
                    "name": "G#4",
                    "midi": 68,
                    "time": 200.63702399999997,
                    "velocity": 0.3700787401574803,
                    "duration": 1.194267999999994
                },
                {
                    "name": "D#4",
                    "midi": 63,
                    "time": 202.42842599999997,
                    "velocity": 0.41732283464566927,
                    "duration": 0.5971340000000112
                },
                {
                    "name": "G#4",
                    "midi": 68,
                    "time": 203.02555999999998,
                    "velocity": 0.41732283464566927,
                    "duration": 0.5971340000000112
                },
                {
                    "name": "C5",
                    "midi": 72,
                    "time": 203.622694,
                    "velocity": 0.4015748031496063,
                    "duration": 0.5971340000000112
                },
                {
                    "name": "D#5",
                    "midi": 75,
                    "time": 204.219828,
                    "velocity": 0.4566929133858268,
                    "duration": 1.791402000000005
                },
                {
                    "name": "C#5",
                    "midi": 73,
                    "time": 206.01123,
                    "velocity": 0.3937007874015748,
                    "duration": 0.29856699999999137
                },
                {
                    "name": "C5",
                    "midi": 72,
                    "time": 206.309797,
                    "velocity": 0.3700787401574803,
                    "duration": 0.29856699999999137
                },
                {
                    "name": "A#4",
                    "midi": 70,
                    "time": 206.608364,
                    "velocity": 0.3937007874015748,
                    "duration": 0.5971340000000112
                },
                {
                    "name": "G#4",
                    "midi": 68,
                    "time": 207.205498,
                    "velocity": 0.3700787401574803,
                    "duration": 0.44785049999998705
                },
                {
                    "name": "C5",
                    "midi": 72,
                    "time": 207.802632,
                    "velocity": 0.41732283464566927,
                    "duration": 1.194267999999994
                },
                {
                    "name": "A#4",
                    "midi": 70,
                    "time": 208.99689999999998,
                    "velocity": 0.3858267716535433,
                    "duration": 0.5971340000000112
                },
                {
                    "name": "C4",
                    "midi": 60,
                    "time": 209.594034,
                    "velocity": 0.5275590551181102,
                    "duration": 0.5971340000000112
                },
                {
                    "name": "F4",
                    "midi": 65,
                    "time": 210.191168,
                    "velocity": 0.5433070866141733,
                    "duration": 0.5971340000000112
                },
                {
                    "name": "G#4",
                    "midi": 68,
                    "time": 210.78830200000002,
                    "velocity": 0.5275590551181102,
                    "duration": 0.5971340000000112
                },
                {
                    "name": "C5",
                    "midi": 72,
                    "time": 211.38543600000003,
                    "velocity": 0.5590551181102362,
                    "duration": 1.791402000000005
                },
                {
                    "name": "A#4",
                    "midi": 70,
                    "time": 213.17683800000003,
                    "velocity": 0.41732283464566927,
                    "duration": 0.29856699999999137
                },
                {
                    "name": "G#4",
                    "midi": 68,
                    "time": 213.47540500000002,
                    "velocity": 0.3937007874015748,
                    "duration": 0.29856699999999137
                },
                {
                    "name": "G4",
                    "midi": 67,
                    "time": 213.77397200000001,
                    "velocity": 0.41732283464566927,
                    "duration": 0.5971340000000112
                },
                {
                    "name": "F4",
                    "midi": 65,
                    "time": 214.37110600000003,
                    "velocity": 0.3464566929133858,
                    "duration": 0.44785049999998705
                },
                {
                    "name": "F4",
                    "midi": 65,
                    "time": 214.96824,
                    "velocity": 0.3858267716535433,
                    "duration": 1.194267999999994
                },
                {
                    "name": "G#4",
                    "midi": 68,
                    "time": 214.96824,
                    "velocity": 0.3858267716535433,
                    "duration": 1.194267999999994
                },
                {
                    "name": "G4",
                    "midi": 67,
                    "time": 216.162508,
                    "velocity": 0.36220472440944884,
                    "duration": 0.5971340000000112
                },
                {
                    "name": "E4",
                    "midi": 64,
                    "time": 216.162508,
                    "velocity": 0.36220472440944884,
                    "duration": 0.5971340000000112
                },
                {
                    "name": "C5",
                    "midi": 72,
                    "time": 216.759642,
                    "velocity": 0.47244094488188976,
                    "duration": 0.5971340000000112
                },
                {
                    "name": "F5",
                    "midi": 77,
                    "time": 217.35677600000002,
                    "velocity": 0.47244094488188976,
                    "duration": 0.5971340000000112
                },
                {
                    "name": "G#5",
                    "midi": 80,
                    "time": 217.95391000000004,
                    "velocity": 0.4645669291338583,
                    "duration": 0.5971340000000112
                },
                {
                    "name": "G5",
                    "midi": 79,
                    "time": 218.55104400000005,
                    "velocity": 0.5196850393700787,
                    "duration": 0.5971340000000112
                },
                {
                    "name": "F5",
                    "midi": 77,
                    "time": 219.14817800000006,
                    "velocity": 0.5118110236220472,
                    "duration": 0.5971340000000112
                },
                {
                    "name": "C5",
                    "midi": 72,
                    "time": 220.34244600000008,
                    "velocity": 0.5196850393700787,
                    "duration": 0.5971340000000112
                },
                {
                    "name": "F5",
                    "midi": 77,
                    "time": 220.9395800000001,
                    "velocity": 0.5354330708661418,
                    "duration": 0.5971340000000112
                },
                {
                    "name": "G#5",
                    "midi": 80,
                    "time": 221.5367140000001,
                    "velocity": 0.5196850393700787,
                    "duration": 0.5971340000000112
                },
                {
                    "name": "G5",
                    "midi": 79,
                    "time": 222.1338480000001,
                    "velocity": 0.5669291338582677,
                    "duration": 0.5971340000000112
                },
                {
                    "name": "F5",
                    "midi": 77,
                    "time": 222.73098200000013,
                    "velocity": 0.5433070866141733,
                    "duration": 0.5971340000000112
                },
                {
                    "name": "A4",
                    "midi": 69,
                    "time": 223.92525000000015,
                    "velocity": 0.48031496062992124,
                    "duration": 0.5672773000000007
                },
                {
                    "name": "D#5",
                    "midi": 75,
                    "time": 223.92525000000015,
                    "velocity": 0.5669291338582677,
                    "duration": 0.5672773000000007
                },
                {
                    "name": "F5",
                    "midi": 77,
                    "time": 223.92525000000015,
                    "velocity": 0.5669291338582677,
                    "duration": 0.5672773000000007
                },
                {
                    "name": "C5",
                    "midi": 72,
                    "time": 223.92525000000015,
                    "velocity": 0.48031496062992124,
                    "duration": 0.5672773000000007
                },
                {
                    "name": "D#5",
                    "midi": 75,
                    "time": 224.52238400000016,
                    "velocity": 0.5748031496062992,
                    "duration": 0.5672773000000007
                },
                {
                    "name": "A4",
                    "midi": 69,
                    "time": 224.52238400000016,
                    "velocity": 0.48031496062992124,
                    "duration": 0.5672773000000007
                },
                {
                    "name": "C5",
                    "midi": 72,
                    "time": 224.52238400000016,
                    "velocity": 0.48031496062992124,
                    "duration": 0.5672773000000007
                },
                {
                    "name": "F5",
                    "midi": 77,
                    "time": 224.52238400000016,
                    "velocity": 0.5748031496062992,
                    "duration": 0.5672773000000007
                },
                {
                    "name": "D#5",
                    "midi": 75,
                    "time": 225.11951800000017,
                    "velocity": 0.5669291338582677,
                    "duration": 0.5672773000000007
                },
                {
                    "name": "A4",
                    "midi": 69,
                    "time": 225.11951800000017,
                    "velocity": 0.47244094488188976,
                    "duration": 0.5672773000000007
                },
                {
                    "name": "C5",
                    "midi": 72,
                    "time": 225.11951800000017,
                    "velocity": 0.47244094488188976,
                    "duration": 0.5672773000000007
                },
                {
                    "name": "F5",
                    "midi": 77,
                    "time": 225.11951800000017,
                    "velocity": 0.5669291338582677,
                    "duration": 0.5672773000000007
                },
                {
                    "name": "F5",
                    "midi": 77,
                    "time": 225.71665200000018,
                    "velocity": 0.49606299212598426,
                    "duration": 0.29856699999999137
                },
                {
                    "name": "C#5",
                    "midi": 73,
                    "time": 225.71665200000018,
                    "velocity": 0.49606299212598426,
                    "duration": 0.29856699999999137
                },
                {
                    "name": "C#5",
                    "midi": 73,
                    "time": 226.01521900000017,
                    "velocity": 0.4330708661417323,
                    "duration": 0.2687103000000093
                },
                {
                    "name": "A#4",
                    "midi": 70,
                    "time": 226.01521900000017,
                    "velocity": 0.4330708661417323,
                    "duration": 0.2687103000000093
                },
                {
                    "name": "A#4",
                    "midi": 70,
                    "time": 226.3137860000002,
                    "velocity": 0.41732283464566927,
                    "duration": 0.29856699999999137
                },
                {
                    "name": "C#5",
                    "midi": 73,
                    "time": 226.3137860000002,
                    "velocity": 0.41732283464566927,
                    "duration": 0.29856699999999137
                },
                {
                    "name": "A#4",
                    "midi": 70,
                    "time": 226.61235300000018,
                    "velocity": 0.3779527559055118,
                    "duration": 0.2687103000000093
                },
                {
                    "name": "G4",
                    "midi": 67,
                    "time": 226.61235300000018,
                    "velocity": 0.3779527559055118,
                    "duration": 0.2687103000000093
                },
                {
                    "name": "F4",
                    "midi": 65,
                    "time": 226.9109200000002,
                    "velocity": 0.36220472440944884,
                    "duration": 1.0449844999999982
                },
                {
                    "name": "G#4",
                    "midi": 68,
                    "time": 226.9109200000002,
                    "velocity": 0.36220472440944884,
                    "duration": 1.0449844999999982
                },
                {
                    "name": "G#4",
                    "midi": 68,
                    "time": 227.9559045000002,
                    "velocity": 0.36220472440944884,
                    "duration": 0.14928349999999568
                },
                {
                    "name": "G4",
                    "midi": 67,
                    "time": 228.1051880000002,
                    "velocity": 0.3858267716535433,
                    "duration": 0.5971340000000112
                },
                {
                    "name": "E4",
                    "midi": 64,
                    "time": 228.1051880000002,
                    "velocity": 0.3858267716535433,
                    "duration": 0.5971340000000112
                },
                {
                    "name": "F4",
                    "midi": 65,
                    "time": 228.7023220000002,
                    "velocity": 0.36220472440944884,
                    "duration": 0.29856699999999137
                },
                {
                    "name": "G4",
                    "midi": 67,
                    "time": 229.0008890000002,
                    "velocity": 0.33858267716535434,
                    "duration": 0.29856699999999137
                },
                {
                    "name": "F4",
                    "midi": 65,
                    "time": 229.2994560000002,
                    "velocity": 0.3858267716535433,
                    "duration": 1.194267999999994
                },
                {
                    "name": "D#4",
                    "midi": 63,
                    "time": 231.0908580000002,
                    "velocity": 0.41732283464566927,
                    "duration": 0.5971340000000112
                },
                {
                    "name": "G#4",
                    "midi": 68,
                    "time": 231.6879920000002,
                    "velocity": 0.41732283464566927,
                    "duration": 0.5971340000000112
                },
                {
                    "name": "C5",
                    "midi": 72,
                    "time": 232.28512600000022,
                    "velocity": 0.4015748031496063,
                    "duration": 0.5971340000000112
                },
                {
                    "name": "D#5",
                    "midi": 75,
                    "time": 232.88226000000023,
                    "velocity": 0.4566929133858268,
                    "duration": 1.791402000000005
                },
                {
                    "name": "C#5",
                    "midi": 73,
                    "time": 234.67366200000023,
                    "velocity": 0.3937007874015748,
                    "duration": 0.29856699999999137
                },
                {
                    "name": "C5",
                    "midi": 72,
                    "time": 234.97222900000023,
                    "velocity": 0.3700787401574803,
                    "duration": 0.29856699999999137
                },
                {
                    "name": "A#4",
                    "midi": 70,
                    "time": 235.27079600000022,
                    "velocity": 0.3937007874015748,
                    "duration": 0.5971340000000112
                },
                {
                    "name": "G#4",
                    "midi": 68,
                    "time": 235.86793000000023,
                    "velocity": 0.3700787401574803,
                    "duration": 0.44785049999998705
                },
                {
                    "name": "C5",
                    "midi": 72,
                    "time": 236.4650640000002,
                    "velocity": 0.41732283464566927,
                    "duration": 1.194267999999994
                },
                {
                    "name": "A#4",
                    "midi": 70,
                    "time": 237.6593320000002,
                    "velocity": 0.3858267716535433,
                    "duration": 0.5971340000000112
                },
                {
                    "name": "C4",
                    "midi": 60,
                    "time": 238.25646600000022,
                    "velocity": 0.5275590551181102,
                    "duration": 0.5971340000000112
                },
                {
                    "name": "F4",
                    "midi": 65,
                    "time": 238.85360000000023,
                    "velocity": 0.5433070866141733,
                    "duration": 0.5971340000000112
                },
                {
                    "name": "G#4",
                    "midi": 68,
                    "time": 239.45073400000024,
                    "velocity": 0.5275590551181102,
                    "duration": 0.5971340000000112
                },
                {
                    "name": "C5",
                    "midi": 72,
                    "time": 240.04786800000025,
                    "velocity": 0.5590551181102362,
                    "duration": 1.791402000000005
                },
                {
                    "name": "A#4",
                    "midi": 70,
                    "time": 241.83927000000025,
                    "velocity": 0.41732283464566927,
                    "duration": 0.29856699999999137
                },
                {
                    "name": "G#4",
                    "midi": 68,
                    "time": 242.13783700000025,
                    "velocity": 0.3937007874015748,
                    "duration": 0.29856699999999137
                },
                {
                    "name": "G4",
                    "midi": 67,
                    "time": 242.43640400000024,
                    "velocity": 0.41732283464566927,
                    "duration": 0.5971340000000112
                },
                {
                    "name": "F4",
                    "midi": 65,
                    "time": 243.03353800000025,
                    "velocity": 0.3700787401574803,
                    "duration": 0.44785049999998705
                },
                {
                    "name": "F4",
                    "midi": 65,
                    "time": 243.63067200000023,
                    "velocity": 0.3858267716535433,
                    "duration": 1.194267999999994
                },
                {
                    "name": "G#4",
                    "midi": 68,
                    "time": 243.63067200000023,
                    "velocity": 0.3858267716535433,
                    "duration": 1.194267999999994
                },
                {
                    "name": "E4",
                    "midi": 64,
                    "time": 244.82494000000023,
                    "velocity": 0.36220472440944884,
                    "duration": 0.5971340000000112
                },
                {
                    "name": "G4",
                    "midi": 67,
                    "time": 244.82494000000023,
                    "velocity": 0.36220472440944884,
                    "duration": 0.5971340000000112
                },
                {
                    "name": "C5",
                    "midi": 72,
                    "time": 245.42207400000024,
                    "velocity": 0.47244094488188976,
                    "duration": 0.5971340000000112
                },
                {
                    "name": "F5",
                    "midi": 77,
                    "time": 246.01920800000025,
                    "velocity": 0.47244094488188976,
                    "duration": 0.5971340000000112
                },
                {
                    "name": "G#5",
                    "midi": 80,
                    "time": 246.61634200000026,
                    "velocity": 0.4645669291338583,
                    "duration": 0.5971340000000112
                },
                {
                    "name": "G5",
                    "midi": 79,
                    "time": 247.21347600000027,
                    "velocity": 0.5196850393700787,
                    "duration": 0.5971340000000112
                },
                {
                    "name": "F5",
                    "midi": 77,
                    "time": 247.81061000000028,
                    "velocity": 0.5118110236220472,
                    "duration": 0.5971340000000112
                },
                {
                    "name": "C5",
                    "midi": 72,
                    "time": 249.0048780000003,
                    "velocity": 0.5196850393700787,
                    "duration": 0.5971340000000112
                },
                {
                    "name": "F5",
                    "midi": 77,
                    "time": 249.60201200000031,
                    "velocity": 0.5354330708661418,
                    "duration": 0.5971340000000112
                },
                {
                    "name": "G#5",
                    "midi": 80,
                    "time": 250.19914600000033,
                    "velocity": 0.5196850393700787,
                    "duration": 0.5971340000000112
                },
                {
                    "name": "G5",
                    "midi": 79,
                    "time": 250.79628000000034,
                    "velocity": 0.5669291338582677,
                    "duration": 0.5971340000000112
                },
                {
                    "name": "F5",
                    "midi": 77,
                    "time": 251.39341400000035,
                    "velocity": 0.5433070866141733,
                    "duration": 0.5971340000000112
                },
                {
                    "name": "C5",
                    "midi": 72,
                    "time": 252.58768200000037,
                    "velocity": 0.48031496062992124,
                    "duration": 0.5672773000000007
                },
                {
                    "name": "A4",
                    "midi": 69,
                    "time": 252.58768200000037,
                    "velocity": 0.48031496062992124,
                    "duration": 0.5672773000000007
                },
                {
                    "name": "D#5",
                    "midi": 75,
                    "time": 252.58768200000037,
                    "velocity": 0.5669291338582677,
                    "duration": 0.5672773000000007
                },
                {
                    "name": "F5",
                    "midi": 77,
                    "time": 252.58768200000037,
                    "velocity": 0.5669291338582677,
                    "duration": 0.5672773000000007
                },
                {
                    "name": "A4",
                    "midi": 69,
                    "time": 253.18481600000038,
                    "velocity": 0.48031496062992124,
                    "duration": 0.5672773000000007
                },
                {
                    "name": "C5",
                    "midi": 72,
                    "time": 253.18481600000038,
                    "velocity": 0.48031496062992124,
                    "duration": 0.5672773000000007
                },
                {
                    "name": "D#5",
                    "midi": 75,
                    "time": 253.18481600000038,
                    "velocity": 0.5748031496062992,
                    "duration": 0.5672773000000007
                },
                {
                    "name": "F5",
                    "midi": 77,
                    "time": 253.18481600000038,
                    "velocity": 0.5748031496062992,
                    "duration": 0.5672773000000007
                },
                {
                    "name": "A4",
                    "midi": 69,
                    "time": 253.7819500000004,
                    "velocity": 0.47244094488188976,
                    "duration": 0.5672773000000007
                },
                {
                    "name": "C5",
                    "midi": 72,
                    "time": 253.7819500000004,
                    "velocity": 0.47244094488188976,
                    "duration": 0.5672773000000007
                },
                {
                    "name": "D#5",
                    "midi": 75,
                    "time": 253.7819500000004,
                    "velocity": 0.5669291338582677,
                    "duration": 0.5672773000000007
                },
                {
                    "name": "F5",
                    "midi": 77,
                    "time": 253.7819500000004,
                    "velocity": 0.5669291338582677,
                    "duration": 0.5672773000000007
                },
                {
                    "name": "C#5",
                    "midi": 73,
                    "time": 254.3790840000004,
                    "velocity": 0.49606299212598426,
                    "duration": 0.29856699999999137
                },
                {
                    "name": "F5",
                    "midi": 77,
                    "time": 254.3790840000004,
                    "velocity": 0.49606299212598426,
                    "duration": 0.29856699999999137
                },
                {
                    "name": "A#4",
                    "midi": 70,
                    "time": 254.6776510000004,
                    "velocity": 0.4330708661417323,
                    "duration": 0.2687103000000093
                },
                {
                    "name": "C#5",
                    "midi": 73,
                    "time": 254.6776510000004,
                    "velocity": 0.4330708661417323,
                    "duration": 0.2687103000000093
                },
                {
                    "name": "A#4",
                    "midi": 70,
                    "time": 254.97621800000042,
                    "velocity": 0.41732283464566927,
                    "duration": 0.29856699999999137
                },
                {
                    "name": "C#5",
                    "midi": 73,
                    "time": 254.97621800000042,
                    "velocity": 0.41732283464566927,
                    "duration": 0.29856699999999137
                },
                {
                    "name": "A#4",
                    "midi": 70,
                    "time": 255.2747850000004,
                    "velocity": 0.3779527559055118,
                    "duration": 0.2687103000000093
                },
                {
                    "name": "G4",
                    "midi": 67,
                    "time": 255.2747850000004,
                    "velocity": 0.3779527559055118,
                    "duration": 0.2687103000000093
                },
                {
                    "name": "F4",
                    "midi": 65,
                    "time": 255.57335200000043,
                    "velocity": 0.36220472440944884,
                    "duration": 1.0449845000000266
                },
                {
                    "name": "G#4",
                    "midi": 68,
                    "time": 255.57335200000043,
                    "velocity": 0.36220472440944884,
                    "duration": 1.0449845000000266
                },
                {
                    "name": "G#4",
                    "midi": 68,
                    "time": 256.61833650000045,
                    "velocity": 0.36220472440944884,
                    "duration": 0.1492835000000241
                },
                {
                    "name": "E4",
                    "midi": 64,
                    "time": 256.7676200000005,
                    "velocity": 0.3858267716535433,
                    "duration": 0.5971339999999827
                },
                {
                    "name": "G4",
                    "midi": 67,
                    "time": 256.7676200000005,
                    "velocity": 0.3858267716535433,
                    "duration": 0.5971339999999827
                },
                {
                    "name": "F4",
                    "midi": 65,
                    "time": 257.36475400000046,
                    "velocity": 0.36220472440944884,
                    "duration": 0.29856699999999137
                },
                {
                    "name": "G4",
                    "midi": 67,
                    "time": 257.66332100000045,
                    "velocity": 0.33858267716535434,
                    "duration": 0.29856699999999137
                },
                {
                    "name": "F4",
                    "midi": 65,
                    "time": 257.96188800000044,
                    "velocity": 0.3858267716535433,
                    "duration": 1.1942680000000223
                },
                {
                    "name": "G#4",
                    "midi": 68,
                    "time": 259.75329000000045,
                    "velocity": 0.29133858267716534,
                    "duration": 0.5672773000000007
                },
                {
                    "name": "C4",
                    "midi": 60,
                    "time": 259.75329000000045,
                    "velocity": 0.29133858267716534,
                    "duration": 0.5672773000000007
                },
                {
                    "name": "C4",
                    "midi": 60,
                    "time": 260.35042400000043,
                    "velocity": 0.29133858267716534,
                    "duration": 0.5672773000000007
                },
                {
                    "name": "G#4",
                    "midi": 68,
                    "time": 260.35042400000043,
                    "velocity": 0.29133858267716534,
                    "duration": 0.5672773000000007
                },
                {
                    "name": "C4",
                    "midi": 60,
                    "time": 260.9475580000004,
                    "velocity": 0.2755905511811024,
                    "duration": 0.5672773000000007
                },
                {
                    "name": "G#4",
                    "midi": 68,
                    "time": 260.9475580000004,
                    "velocity": 0.2755905511811024,
                    "duration": 0.5672773000000007
                },
                {
                    "name": "C4",
                    "midi": 60,
                    "time": 261.5446920000004,
                    "velocity": 0.31496062992125984,
                    "duration": 1.791402000000005
                },
                {
                    "name": "G#4",
                    "midi": 68,
                    "time": 261.5446920000004,
                    "velocity": 0.31496062992125984,
                    "duration": 1.791402000000005
                },
                {
                    "name": "G4",
                    "midi": 67,
                    "time": 263.3360940000004,
                    "velocity": 0.29133858267716534,
                    "duration": 0.5971339999999827
                },
                {
                    "name": "A#3",
                    "midi": 58,
                    "time": 263.3360940000004,
                    "velocity": 0.29133858267716534,
                    "duration": 0.5971339999999827
                },
                {
                    "name": "A#4",
                    "midi": 70,
                    "time": 263.9332280000004,
                    "velocity": 0.30708661417322836,
                    "duration": 0.5971339999999827
                },
                {
                    "name": "C#4",
                    "midi": 61,
                    "time": 263.9332280000004,
                    "velocity": 0.30708661417322836,
                    "duration": 0.5971339999999827
                },
                {
                    "name": "G3",
                    "midi": 55,
                    "time": 264.53036200000037,
                    "velocity": 0.29133858267716534,
                    "duration": 0.5971339999999827
                },
                {
                    "name": "E4",
                    "midi": 64,
                    "time": 264.53036200000037,
                    "velocity": 0.29133858267716534,
                    "duration": 0.5971339999999827
                },
                {
                    "name": "G#3",
                    "midi": 56,
                    "time": 265.12749600000035,
                    "velocity": 0.33070866141732286,
                    "duration": 1.791402000000005
                },
                {
                    "name": "F4",
                    "midi": 65,
                    "time": 265.12749600000035,
                    "velocity": 0.33070866141732286,
                    "duration": 1.791402000000005
                },
                {
                    "name": "C5",
                    "midi": 72,
                    "time": 266.91889800000035,
                    "velocity": 0.2677165354330709,
                    "duration": 0.5672773000000007
                },
                {
                    "name": "G#4",
                    "midi": 68,
                    "time": 266.91889800000035,
                    "velocity": 0.2677165354330709,
                    "duration": 0.5672773000000007
                },
                {
                    "name": "C5",
                    "midi": 72,
                    "time": 267.51603200000034,
                    "velocity": 0.2755905511811024,
                    "duration": 0.5672773000000007
                },
                {
                    "name": "G#4",
                    "midi": 68,
                    "time": 267.51603200000034,
                    "velocity": 0.2755905511811024,
                    "duration": 0.5672773000000007
                },
                {
                    "name": "G#4",
                    "midi": 68,
                    "time": 268.1131660000003,
                    "velocity": 0.2677165354330709,
                    "duration": 0.5672773000000007
                },
                {
                    "name": "C5",
                    "midi": 72,
                    "time": 268.1131660000003,
                    "velocity": 0.2677165354330709,
                    "duration": 0.5672773000000007
                },
                {
                    "name": "C5",
                    "midi": 72,
                    "time": 268.7103000000003,
                    "velocity": 0.2992125984251969,
                    "duration": 1.791402000000005
                },
                {
                    "name": "G#4",
                    "midi": 68,
                    "time": 268.7103000000003,
                    "velocity": 0.2992125984251969,
                    "duration": 1.791402000000005
                },
                {
                    "name": "E4",
                    "midi": 64,
                    "time": 268.7103000000003,
                    "velocity": 0.2992125984251969,
                    "duration": 2.9856699999999705
                },
                {
                    "name": "G4",
                    "midi": 67,
                    "time": 270.5017020000003,
                    "velocity": 0.2677165354330709,
                    "duration": 0.5971339999999827
                },
                {
                    "name": "A#4",
                    "midi": 70,
                    "time": 270.5017020000003,
                    "velocity": 0.2677165354330709,
                    "duration": 0.5971339999999827
                },
                {
                    "name": "A#4",
                    "midi": 70,
                    "time": 271.0988360000003,
                    "velocity": 0.29133858267716534,
                    "duration": 0.5971339999999827
                },
                {
                    "name": "C#5",
                    "midi": 73,
                    "time": 271.0988360000003,
                    "velocity": 0.29133858267716534,
                    "duration": 0.5971339999999827
                },
                {
                    "name": "C4",
                    "midi": 60,
                    "time": 271.6959700000003,
                    "velocity": 0.25196850393700787,
                    "duration": 0.5971340000000396
                },
                {
                    "name": "E4",
                    "midi": 64,
                    "time": 271.6959700000003,
                    "velocity": 0.25196850393700787,
                    "duration": 0.5971340000000396
                },
                {
                    "name": "A#3",
                    "midi": 58,
                    "time": 271.71338640833363,
                    "velocity": 0.25196850393700787,
                    "duration": 0.5971340000000396
                },
                {
                    "name": "F4",
                    "midi": 65,
                    "time": 272.2931040000003,
                    "velocity": 0.25196850393700787,
                    "duration": 1.1942680000000223
                },
                {
                    "name": "C4",
                    "midi": 60,
                    "time": 272.2931040000003,
                    "velocity": 0.25196850393700787,
                    "duration": 1.1942680000000223
                },
                {
                    "name": "G#3",
                    "midi": 56,
                    "time": 272.2931040000003,
                    "velocity": 0.25196850393700787,
                    "duration": 1.1942680000000223
                },
                {
                    "name": "C5",
                    "midi": 72,
                    "time": 274.0845060000003,
                    "velocity": 0.3937007874015748,
                    "duration": 0.5971339999999827
                },
                {
                    "name": "C5",
                    "midi": 72,
                    "time": 274.6816400000003,
                    "velocity": 0.3937007874015748,
                    "duration": 0.5971339999999827
                },
                {
                    "name": "C5",
                    "midi": 72,
                    "time": 275.2787740000003,
                    "velocity": 0.3937007874015748,
                    "duration": 0.5971339999999827
                },
                {
                    "name": "C5",
                    "midi": 72,
                    "time": 275.87590800000027,
                    "velocity": 0.4094488188976378,
                    "duration": 0.29856699999999137
                },
                {
                    "name": "D5",
                    "midi": 74,
                    "time": 276.17447500000026,
                    "velocity": 0.3700787401574803,
                    "duration": 0.09952233333331151
                },
                {
                    "name": "C5",
                    "midi": 72,
                    "time": 276.27399733333357,
                    "velocity": 0.36220472440944884,
                    "duration": 0.09952233333331151
                },
                {
                    "name": "B4",
                    "midi": 71,
                    "time": 276.3735196666669,
                    "velocity": 0.36220472440944884,
                    "duration": 0.09952233333331151
                },
                {
                    "name": "C5",
                    "midi": 72,
                    "time": 276.4730420000002,
                    "velocity": 0.4094488188976378,
                    "duration": 0.29856699999999137
                },
                {
                    "name": "F5",
                    "midi": 77,
                    "time": 276.7716090000002,
                    "velocity": 0.3858267716535433,
                    "duration": 0.29856699999999137
                },
                {
                    "name": "C5",
                    "midi": 72,
                    "time": 277.0701760000002,
                    "velocity": 0.3700787401574803,
                    "duration": 0.29856699999999137
                },
                {
                    "name": "A4",
                    "midi": 69,
                    "time": 277.66731000000016,
                    "velocity": 0.3700787401574803,
                    "duration": 0.5971339999999827
                },
                {
                    "name": "C5",
                    "midi": 72,
                    "time": 278.26444400000014,
                    "velocity": 0.3779527559055118,
                    "duration": 0.5971339999999827
                },
                {
                    "name": "E4",
                    "midi": 64,
                    "time": 278.8615780000001,
                    "velocity": 0.3700787401574803,
                    "duration": 0.5971339999999827
                },
                {
                    "name": "G4",
                    "midi": 67,
                    "time": 279.4587120000001,
                    "velocity": 0.4251968503937008,
                    "duration": 1.1942680000000223
                },
                {
                    "name": "F4",
                    "midi": 65,
                    "time": 280.6529800000001,
                    "velocity": 0.3779527559055118,
                    "duration": 0.5971339999999827
                },
                {
                    "name": "C4",
                    "midi": 60,
                    "time": 281.2501140000001,
                    "velocity": 0.31496062992125984,
                    "duration": 0.5971339999999827
                },
                {
                    "name": "F4",
                    "midi": 65,
                    "time": 281.2501140000001,
                    "velocity": 0.5748031496062992,
                    "duration": 0.5971339999999827
                },
                {
                    "name": "E4",
                    "midi": 64,
                    "time": 281.8472480000001,
                    "velocity": 0.4015748031496063,
                    "duration": 0.5971339999999827
                },
                {
                    "name": "G4",
                    "midi": 67,
                    "time": 281.8472480000001,
                    "velocity": 0.5905511811023622,
                    "duration": 0.5971339999999827
                },
                {
                    "name": "F4",
                    "midi": 65,
                    "time": 282.4443820000001,
                    "velocity": 0.4094488188976378,
                    "duration": 0.5971339999999827
                },
                {
                    "name": "C4",
                    "midi": 60,
                    "time": 282.4443820000001,
                    "velocity": 0.31496062992125984,
                    "duration": 0.5971339999999827
                },
                {
                    "name": "A4",
                    "midi": 69,
                    "time": 282.4443820000001,
                    "velocity": 0.5984251968503937,
                    "duration": 0.5971339999999827
                },
                {
                    "name": "F4",
                    "midi": 65,
                    "time": 283.04151600000006,
                    "velocity": 0.49606299212598426,
                    "duration": 0.8957009999999741
                },
                {
                    "name": "A#4",
                    "midi": 70,
                    "time": 283.04151600000006,
                    "velocity": 0.6062992125984252,
                    "duration": 0.8957009999999741
                },
                {
                    "name": "C5",
                    "midi": 72,
                    "time": 283.93721700000003,
                    "velocity": 0.49606299212598426,
                    "duration": 0.1492835000000241
                },
                {
                    "name": "D5",
                    "midi": 74,
                    "time": 284.08650050000006,
                    "velocity": 0.44881889763779526,
                    "duration": 0.1492835000000241
                },
                {
                    "name": "C5",
                    "midi": 72,
                    "time": 284.2357840000001,
                    "velocity": 0.4409448818897638,
                    "duration": 0.29856699999999137
                },
                {
                    "name": "F4",
                    "midi": 65,
                    "time": 284.83291800000006,
                    "velocity": 0.4015748031496063,
                    "duration": 0.5971339999999827
                },
                {
                    "name": "B3",
                    "midi": 59,
                    "time": 285.43005200000005,
                    "velocity": 0.28346456692913385,
                    "duration": 1.1942679999999655
                },
                {
                    "name": "E4",
                    "midi": 64,
                    "time": 285.43005200000005,
                    "velocity": 0.4094488188976378,
                    "duration": 0.5971339999999827
                },
                {
                    "name": "F4",
                    "midi": 65,
                    "time": 286.02718600000003,
                    "velocity": 0.3543307086614173,
                    "duration": 0.5971339999999827
                },
                {
                    "name": "C4",
                    "midi": 60,
                    "time": 286.62432,
                    "velocity": 0.25196850393700787,
                    "duration": 2.388535999999988
                },
                {
                    "name": "F4",
                    "midi": 65,
                    "time": 286.62432,
                    "velocity": 0.25196850393700787,
                    "duration": 1.1942680000000223
                },
                {
                    "name": "A4",
                    "midi": 69,
                    "time": 286.62432,
                    "velocity": 0.3700787401574803,
                    "duration": 1.1942680000000223
                },
                {
                    "name": "E4",
                    "midi": 64,
                    "time": 287.81858800000003,
                    "velocity": 0.2440944881889764,
                    "duration": 0.5971339999999827
                },
                {
                    "name": "G4",
                    "midi": 67,
                    "time": 287.81858800000003,
                    "velocity": 0.36220472440944884,
                    "duration": 0.5971339999999827
                },
                {
                    "name": "G4",
                    "midi": 67,
                    "time": 288.415722,
                    "velocity": 0.4251968503937008,
                    "duration": 0.5971339999999827
                },
                {
                    "name": "G4",
                    "midi": 67,
                    "time": 289.012856,
                    "velocity": 0.4645669291338583,
                    "duration": 0.5971339999999827
                },
                {
                    "name": "G4",
                    "midi": 67,
                    "time": 289.60999,
                    "velocity": 0.5118110236220472,
                    "duration": 0.4478505000000155
                },
                {
                    "name": "G4",
                    "midi": 67,
                    "time": 290.0578405,
                    "velocity": 0.5118110236220472,
                    "duration": 0.1492835000000241
                },
                {
                    "name": "G5",
                    "midi": 79,
                    "time": 290.207124,
                    "velocity": 0.5748031496062992,
                    "duration": 0.8957009999999741
                },
                {
                    "name": "D5",
                    "midi": 74,
                    "time": 291.102825,
                    "velocity": 0.3937007874015748,
                    "duration": 0.1492835000000241
                },
                {
                    "name": "B4",
                    "midi": 71,
                    "time": 291.2521085,
                    "velocity": 0.36220472440944884,
                    "duration": 0.1492835000000241
                },
                {
                    "name": "G4",
                    "midi": 67,
                    "time": 291.40139200000004,
                    "velocity": 0.3858267716535433,
                    "duration": 0.5971339999999827
                },
                {
                    "name": "G4",
                    "midi": 67,
                    "time": 291.998526,
                    "velocity": 0.4645669291338583,
                    "duration": 0.5971339999999827
                },
                {
                    "name": "G4",
                    "midi": 67,
                    "time": 292.59566,
                    "velocity": 0.49606299212598426,
                    "duration": 0.5971339999999827
                },
                {
                    "name": "G4",
                    "midi": 67,
                    "time": 293.192794,
                    "velocity": 0.5433070866141733,
                    "duration": 0.4478505000000155
                },
                {
                    "name": "G4",
                    "midi": 67,
                    "time": 293.6406445,
                    "velocity": 0.5275590551181102,
                    "duration": 0.1492835000000241
                },
                {
                    "name": "G5",
                    "midi": 79,
                    "time": 293.78992800000003,
                    "velocity": 0.5669291338582677,
                    "duration": 1.642118499999981
                },
                {
                    "name": "A5",
                    "midi": 81,
                    "time": 295.4320465,
                    "velocity": 0.4409448818897638,
                    "duration": 0.07464175000001205
                },
                {
                    "name": "B5",
                    "midi": 83,
                    "time": 295.50668825,
                    "velocity": 0.3858267716535433,
                    "duration": 0.07464175000001205
                },
                {
                    "name": "C6",
                    "midi": 84,
                    "time": 295.58133000000004,
                    "velocity": 0.4566929133858268,
                    "duration": 0.29856699999999137
                },
                {
                    "name": "B5",
                    "midi": 83,
                    "time": 295.879897,
                    "velocity": 0.4015748031496063,
                    "duration": 0.29856699999999137
                },
                {
                    "name": "A5",
                    "midi": 81,
                    "time": 296.178464,
                    "velocity": 0.4409448818897638,
                    "duration": 0.29856699999999137
                },
                {
                    "name": "G5",
                    "midi": 79,
                    "time": 296.477031,
                    "velocity": 0.3937007874015748,
                    "duration": 0.29856699999999137
                },
                {
                    "name": "F5",
                    "midi": 77,
                    "time": 296.775598,
                    "velocity": 0.4251968503937008,
                    "duration": 0.29856699999999137
                },
                {
                    "name": "E5",
                    "midi": 76,
                    "time": 297.074165,
                    "velocity": 0.4094488188976378,
                    "duration": 0.29856699999999137
                },
                {
                    "name": "C#5",
                    "midi": 73,
                    "time": 297.372732,
                    "velocity": 0.4251968503937008,
                    "duration": 0.29856699999999137
                },
                {
                    "name": "D5",
                    "midi": 74,
                    "time": 297.671299,
                    "velocity": 0.3858267716535433,
                    "duration": 0.29856699999999137
                },
                {
                    "name": "F5",
                    "midi": 77,
                    "time": 297.96986599999997,
                    "velocity": 0.3858267716535433,
                    "duration": 0.29856699999999137
                },
                {
                    "name": "A5",
                    "midi": 81,
                    "time": 298.26843299999996,
                    "velocity": 0.3779527559055118,
                    "duration": 0.29856699999999137
                },
                {
                    "name": "C5",
                    "midi": 72,
                    "time": 298.56699999999995,
                    "velocity": 0.4251968503937008,
                    "duration": 1.791402000000005
                },
                {
                    "name": "E5",
                    "midi": 76,
                    "time": 300.35840199999996,
                    "velocity": 0.3779527559055118,
                    "duration": 0.29856699999999137
                },
                {
                    "name": "B4",
                    "midi": 71,
                    "time": 300.35840199999996,
                    "velocity": 0.3779527559055118,
                    "duration": 0.5971339999999827
                },
                {
                    "name": "D5",
                    "midi": 74,
                    "time": 300.65696899999995,
                    "velocity": 0.3700787401574803,
                    "duration": 0.29856699999999137
                },
                {
                    "name": "C5",
                    "midi": 72,
                    "time": 300.95553599999994,
                    "velocity": 0.3700787401574803,
                    "duration": 1.1942680000000223
                },
                {
                    "name": "C5",
                    "midi": 72,
                    "time": 302.74693799999994,
                    "velocity": 0.3937007874015748,
                    "duration": 0.5971339999999827
                },
                {
                    "name": "D5",
                    "midi": 74,
                    "time": 303.3440719999999,
                    "velocity": 0.4251968503937008,
                    "duration": 0.32344758333334767
                },
                {
                    "name": "C5",
                    "midi": 72,
                    "time": 303.6426389999999,
                    "velocity": 0.3937007874015748,
                    "duration": 0.3234475833334045
                },
                {
                    "name": "A#4",
                    "midi": 70,
                    "time": 303.94120599999997,
                    "velocity": 0.4330708661417323,
                    "duration": 0.3234475833334045
                },
                {
                    "name": "A4",
                    "midi": 69,
                    "time": 304.239773,
                    "velocity": 0.3858267716535433,
                    "duration": 0.3234475833334045
                },
                {
                    "name": "G4",
                    "midi": 67,
                    "time": 304.53834000000006,
                    "velocity": 0.48031496062992124,
                    "duration": 1.1942680000000223
                },
                {
                    "name": "F#4",
                    "midi": 66,
                    "time": 305.7326080000001,
                    "velocity": 0.4015748031496063,
                    "duration": 0.5846937083333614
                },
                {
                    "name": "F#4",
                    "midi": 66,
                    "time": 306.3297420000001,
                    "velocity": 0.49606299212598426,
                    "duration": 0.5971339999999827
                },
                {
                    "name": "G4",
                    "midi": 67,
                    "time": 306.9268760000001,
                    "velocity": 0.5118110236220472,
                    "duration": 0.5971339999999827
                },
                {
                    "name": "F#4",
                    "midi": 66,
                    "time": 307.5240100000001,
                    "velocity": 0.4094488188976378,
                    "duration": 0.4478505000000155
                },
                {
                    "name": "A4",
                    "midi": 69,
                    "time": 307.5240100000001,
                    "velocity": 0.5196850393700787,
                    "duration": 0.4478505000000155
                },
                {
                    "name": "F#4",
                    "midi": 66,
                    "time": 308.12114400000013,
                    "velocity": 0.4015748031496063,
                    "duration": 1.1942680000000223
                },
                {
                    "name": "A4",
                    "midi": 69,
                    "time": 308.12114400000013,
                    "velocity": 0.5118110236220472,
                    "duration": 1.1942680000000223
                },
                {
                    "name": "G4",
                    "midi": 67,
                    "time": 309.31541200000015,
                    "velocity": 0.3543307086614173,
                    "duration": 0.5374206000000186
                },
                {
                    "name": "A#4",
                    "midi": 70,
                    "time": 309.31541200000015,
                    "velocity": 0.4409448818897638,
                    "duration": 0.5374206000000186
                },
                {
                    "name": "E4",
                    "midi": 64,
                    "time": 309.9125460000002,
                    "velocity": 0.4015748031496063,
                    "duration": 0.5971339999999827
                },
                {
                    "name": "F4",
                    "midi": 65,
                    "time": 310.5096800000002,
                    "velocity": 0.4330708661417323,
                    "duration": 0.5971339999999827
                },
                {
                    "name": "E4",
                    "midi": 64,
                    "time": 311.10681400000016,
                    "velocity": 0.41732283464566927,
                    "duration": 0.4478505000000155
                },
                {
                    "name": "G4",
                    "midi": 67,
                    "time": 311.10681400000016,
                    "velocity": 0.41732283464566927,
                    "duration": 0.4478505000000155
                },
                {
                    "name": "F4",
                    "midi": 65,
                    "time": 311.7039480000002,
                    "velocity": 0.4409448818897638,
                    "duration": 2.9856699999999705
                },
                {
                    "name": "A4",
                    "midi": 69,
                    "time": 311.7039480000002,
                    "velocity": 0.48031496062992124,
                    "duration": 0.5971339999999827
                },
                {
                    "name": "A#4",
                    "midi": 70,
                    "time": 312.3010820000002,
                    "velocity": 0.5354330708661418,
                    "duration": 0.5971339999999827
                },
                {
                    "name": "C5",
                    "midi": 72,
                    "time": 312.89821600000016,
                    "velocity": 0.5275590551181102,
                    "duration": 0.5971339999999827
                },
                {
                    "name": "C#5",
                    "midi": 73,
                    "time": 313.49535000000014,
                    "velocity": 0.5511811023622047,
                    "duration": 0.5971339999999827
                },
                {
                    "name": "E5",
                    "midi": 76,
                    "time": 314.0924840000001,
                    "velocity": 0.5669291338582677,
                    "duration": 0.32344758333334767
                },
                {
                    "name": "D5",
                    "midi": 74,
                    "time": 314.3910510000001,
                    "velocity": 0.5118110236220472,
                    "duration": 0.3234475833334045
                },
                {
                    "name": "C5",
                    "midi": 72,
                    "time": 314.68961800000017,
                    "velocity": 0.5039370078740157,
                    "duration": 0.3234475833334045
                },
                {
                    "name": "G4",
                    "midi": 67,
                    "time": 314.9881850000002,
                    "velocity": 0.3700787401574803,
                    "duration": 0.3234475833334045
                },
                {
                    "name": "A#4",
                    "midi": 70,
                    "time": 314.9881850000002,
                    "velocity": 0.4566929133858268,
                    "duration": 0.3234475833334045
                },
                {
                    "name": "F4",
                    "midi": 65,
                    "time": 315.28675200000026,
                    "velocity": 0.36220472440944884,
                    "duration": 1.1942680000000223
                },
                {
                    "name": "A4",
                    "midi": 69,
                    "time": 315.28675200000026,
                    "velocity": 0.44881889763779526,
                    "duration": 1.1942680000000223
                },
                {
                    "name": "E4",
                    "midi": 64,
                    "time": 316.4810200000003,
                    "velocity": 0.31496062992125984,
                    "duration": 0.5971339999999827
                },
                {
                    "name": "G4",
                    "midi": 67,
                    "time": 316.4810200000003,
                    "velocity": 0.4015748031496063,
                    "duration": 0.5971339999999827
                },
                {
                    "name": "C5",
                    "midi": 72,
                    "time": 317.07815400000027,
                    "velocity": 0.5118110236220472,
                    "duration": 0.5672773000000007
                },
                {
                    "name": "C5",
                    "midi": 72,
                    "time": 317.67528800000025,
                    "velocity": 0.5196850393700787,
                    "duration": 0.5672773000000007
                },
                {
                    "name": "C5",
                    "midi": 72,
                    "time": 318.27242200000023,
                    "velocity": 0.5669291338582677,
                    "duration": 0.5672773000000007
                },
                {
                    "name": "C5",
                    "midi": 72,
                    "time": 318.8695560000002,
                    "velocity": 0.6377952755905512,
                    "duration": 5.971339999999941
                },
                {
                    "name": "A#5",
                    "midi": 82,
                    "time": 318.8695560000002,
                    "velocity": 0.6377952755905512,
                    "duration": 1.791402000000005
                },
                {
                    "name": "A5",
                    "midi": 81,
                    "time": 320.6609580000002,
                    "velocity": 0.5433070866141733,
                    "duration": 0.5971339999999827
                },
                {
                    "name": "A#4",
                    "midi": 70,
                    "time": 321.2580920000002,
                    "velocity": 0.4566929133858268,
                    "duration": 0.5971339999999827
                },
                {
                    "name": "G5",
                    "midi": 79,
                    "time": 321.2580920000002,
                    "velocity": 0.5511811023622047,
                    "duration": 0.5971339999999827
                },
                {
                    "name": "A4",
                    "midi": 69,
                    "time": 321.8552260000002,
                    "velocity": 0.4409448818897638,
                    "duration": 0.5971339999999827
                },
                {
                    "name": "F5",
                    "midi": 77,
                    "time": 321.8552260000002,
                    "velocity": 0.5196850393700787,
                    "duration": 0.5971339999999827
                },
                {
                    "name": "G4",
                    "midi": 67,
                    "time": 322.45236000000017,
                    "velocity": 0.4330708661417323,
                    "duration": 2.388535999999988
                },
                {
                    "name": "F5",
                    "midi": 77,
                    "time": 322.45236000000017,
                    "velocity": 0.5196850393700787,
                    "duration": 1.1942680000000223
                },
                {
                    "name": "E5",
                    "midi": 76,
                    "time": 323.6466280000002,
                    "velocity": 0.4409448818897638,
                    "duration": 0.5672773000000007
                },
                {
                    "name": "D#5",
                    "midi": 75,
                    "time": 324.2437620000002,
                    "velocity": 0.4015748031496063,
                    "duration": 0.5672773000000007
                },
                {
                    "name": "D#5",
                    "midi": 75,
                    "time": 324.84089600000016,
                    "velocity": 0.3937007874015748,
                    "duration": 0.5672773000000007
                },
                {
                    "name": "D#5",
                    "midi": 75,
                    "time": 325.43803000000014,
                    "velocity": 0.3700787401574803,
                    "duration": 0.5672773000000007
                },
                {
                    "name": "D#5",
                    "midi": 75,
                    "time": 326.0351640000001,
                    "velocity": 0.30708661417322836,
                    "duration": 0.07464175000001205
                },
                {
                    "name": "F5",
                    "midi": 77,
                    "time": 326.10980575000013,
                    "velocity": 0.30708661417322836,
                    "duration": 0.07464175000001205
                },
                {
                    "name": "D#5",
                    "midi": 75,
                    "time": 326.18444750000015,
                    "velocity": 0.30708661417322836,
                    "duration": 0.07464175000001205
                },
                {
                    "name": "F5",
                    "midi": 77,
                    "time": 326.25908925000016,
                    "velocity": 0.31496062992125984,
                    "duration": 0.07464175000001205
                },
                {
                    "name": "D#5",
                    "midi": 75,
                    "time": 326.33373100000017,
                    "velocity": 0.33070866141732286,
                    "duration": 0.07464175000001205
                },
                {
                    "name": "F5",
                    "midi": 77,
                    "time": 326.4083727500002,
                    "velocity": 0.31496062992125984,
                    "duration": 0.07464175000001205
                },
                {
                    "name": "D#5",
                    "midi": 75,
                    "time": 326.4830145000002,
                    "velocity": 0.31496062992125984,
                    "duration": 0.07464175000001205
                },
                {
                    "name": "F5",
                    "midi": 77,
                    "time": 326.5576562500002,
                    "velocity": 0.31496062992125984,
                    "duration": 0.07464175000001205
                },
                {
                    "name": "D#5",
                    "midi": 75,
                    "time": 326.6322980000002,
                    "velocity": 0.33070866141732286,
                    "duration": 0.29856699999999137
                },
                {
                    "name": "F5",
                    "midi": 77,
                    "time": 326.9308650000002,
                    "velocity": 0.3700787401574803,
                    "duration": 0.29856699999999137
                },
                {
                    "name": "G5",
                    "midi": 79,
                    "time": 327.2294320000002,
                    "velocity": 0.4566929133858268,
                    "duration": 0.5971339999999827
                },
                {
                    "name": "F5",
                    "midi": 77,
                    "time": 327.8265660000002,
                    "velocity": 0.4251968503937008,
                    "duration": 0.29856699999999137
                },
                {
                    "name": "D#5",
                    "midi": 75,
                    "time": 328.1251330000002,
                    "velocity": 0.4015748031496063,
                    "duration": 0.2687103000000093
                },
                {
                    "name": "D#5",
                    "midi": 75,
                    "time": 328.42370000000017,
                    "velocity": 0.4251968503937008,
                    "duration": 0.29856699999999137
                },
                {
                    "name": "D5",
                    "midi": 74,
                    "time": 328.72226700000016,
                    "velocity": 0.4015748031496063,
                    "duration": 0.2687103000000093
                },
                {
                    "name": "D5",
                    "midi": 74,
                    "time": 329.02083400000015,
                    "velocity": 0.41732283464566927,
                    "duration": 0.29856699999999137
                },
                {
                    "name": "C#5",
                    "midi": 73,
                    "time": 329.31940100000014,
                    "velocity": 0.4015748031496063,
                    "duration": 0.2687103000000093
                },
                {
                    "name": "C#5",
                    "midi": 73,
                    "time": 329.61796800000013,
                    "velocity": 0.4330708661417323,
                    "duration": 1.1942680000000223
                },
                {
                    "name": "D5",
                    "midi": 74,
                    "time": 330.81223600000015,
                    "velocity": 0.4015748031496063,
                    "duration": 0.5971339999999827
                },
                {
                    "name": "F5",
                    "midi": 77,
                    "time": 331.40937000000014,
                    "velocity": 0.4409448818897638,
                    "duration": 0.29856699999999137
                },
                {
                    "name": "E5",
                    "midi": 76,
                    "time": 331.70793700000013,
                    "velocity": 0.41732283464566927,
                    "duration": 0.29856699999999137
                },
                {
                    "name": "G5",
                    "midi": 79,
                    "time": 332.0065040000001,
                    "velocity": 0.4566929133858268,
                    "duration": 0.29856699999999137
                },
                {
                    "name": "F5",
                    "midi": 77,
                    "time": 332.3050710000001,
                    "velocity": 0.41732283464566927,
                    "duration": 0.29856699999999137
                },
                {
                    "name": "E5",
                    "midi": 76,
                    "time": 332.6036380000001,
                    "velocity": 0.4094488188976378,
                    "duration": 0.29856699999999137
                },
                {
                    "name": "D5",
                    "midi": 74,
                    "time": 332.9022050000001,
                    "velocity": 0.3858267716535433,
                    "duration": 0.28861476666668295
                },
                {
                    "name": "D5",
                    "midi": 74,
                    "time": 333.2007720000001,
                    "velocity": 0.3858267716535433,
                    "duration": 1.1942680000000223
                },
                {
                    "name": "C5",
                    "midi": 72,
                    "time": 334.3950400000001,
                    "velocity": 0.3779527559055118,
                    "duration": 0.5971339999999827
                },
                {
                    "name": "F5",
                    "midi": 77,
                    "time": 334.9921740000001,
                    "velocity": 0.44881889763779526,
                    "duration": 0.4478505000000155
                },
                {
                    "name": "C5",
                    "midi": 72,
                    "time": 335.4400245000001,
                    "velocity": 0.4015748031496063,
                    "duration": 0.1492835000000241
                },
                {
                    "name": "A5",
                    "midi": 81,
                    "time": 335.58930800000013,
                    "velocity": 0.5118110236220472,
                    "duration": 0.4478505000000155
                },
                {
                    "name": "F5",
                    "midi": 77,
                    "time": 336.03715850000015,
                    "velocity": 0.4566929133858268,
                    "duration": 0.1492835000000241
                },
                {
                    "name": "C5",
                    "midi": 72,
                    "time": 336.18644200000017,
                    "velocity": 0.5196850393700787,
                    "duration": 0.4478505000000155
                },
                {
                    "name": "A4",
                    "midi": 69,
                    "time": 336.6342925000002,
                    "velocity": 0.44881889763779526,
                    "duration": 0.1492835000000241
                },
                {
                    "name": "C5",
                    "midi": 72,
                    "time": 336.7835760000002,
                    "velocity": 0.5433070866141733,
                    "duration": 0.8957009999999741
                },
                {
                    "name": "B4",
                    "midi": 71,
                    "time": 337.6792770000002,
                    "velocity": 0.5118110236220472,
                    "duration": 0.29856699999999137
                },
                {
                    "name": "A#4",
                    "midi": 70,
                    "time": 337.9778440000002,
                    "velocity": 0.5118110236220472,
                    "duration": 0.5971339999999827
                },
                {
                    "name": "E4",
                    "midi": 64,
                    "time": 338.57497800000016,
                    "velocity": 0.5275590551181102,
                    "duration": 0.4478505000000155
                },
                {
                    "name": "G4",
                    "midi": 67,
                    "time": 338.57497800000016,
                    "velocity": 0.5905511811023622,
                    "duration": 0.5971340000000396
                },
                {
                    "name": "C4",
                    "midi": 60,
                    "time": 339.0228285000002,
                    "velocity": 0.5039370078740157,
                    "duration": 0.1492835000000241
                },
                {
                    "name": "A4",
                    "midi": 69,
                    "time": 339.1721120000002,
                    "velocity": 0.5905511811023622,
                    "duration": 0.5971340000000396
                },
                {
                    "name": "F4",
                    "midi": 65,
                    "time": 339.1721120000002,
                    "velocity": 0.5275590551181102,
                    "duration": 0.4478505000000155
                },
                {
                    "name": "C4",
                    "midi": 60,
                    "time": 339.6199625000002,
                    "velocity": 0.49606299212598426,
                    "duration": 0.1492835000000241
                },
                {
                    "name": "G4",
                    "midi": 67,
                    "time": 339.76924600000024,
                    "velocity": 0.5275590551181102,
                    "duration": 0.4478505000000155
                },
                {
                    "name": "A#4",
                    "midi": 70,
                    "time": 339.76924600000024,
                    "velocity": 0.5905511811023622,
                    "duration": 0.5971340000000396
                },
                {
                    "name": "C4",
                    "midi": 60,
                    "time": 340.21709650000025,
                    "velocity": 0.5039370078740157,
                    "duration": 0.1492835000000241
                },
                {
                    "name": "C5",
                    "midi": 72,
                    "time": 340.3663800000003,
                    "velocity": 0.5984251968503937,
                    "duration": 0.29856699999999137
                },
                {
                    "name": "A4",
                    "midi": 69,
                    "time": 340.3663800000003,
                    "velocity": 0.48031496062992124,
                    "duration": 0.5971339999999827
                },
                {
                    "name": "D5",
                    "midi": 74,
                    "time": 340.66494700000027,
                    "velocity": 0.41732283464566927,
                    "duration": 0.29856699999999137
                },
                {
                    "name": "E5",
                    "midi": 76,
                    "time": 340.96351400000026,
                    "velocity": 0.44881889763779526,
                    "duration": 0.29856699999999137
                },
                {
                    "name": "F5",
                    "midi": 77,
                    "time": 341.26208100000025,
                    "velocity": 0.41732283464566927,
                    "duration": 0.29856699999999137
                },
                {
                    "name": "C4",
                    "midi": 60,
                    "time": 341.56064800000024,
                    "velocity": 0.2992125984251969,
                    "duration": 1.791402000000005
                },
                {
                    "name": "F4",
                    "midi": 65,
                    "time": 341.56064800000024,
                    "velocity": 0.3858267716535433,
                    "duration": 1.791402000000005
                },
                {
                    "name": "E4",
                    "midi": 64,
                    "time": 343.35205000000025,
                    "velocity": 0.29133858267716534,
                    "duration": 0.5971339999999827
                },
                {
                    "name": "A4",
                    "midi": 69,
                    "time": 343.35205000000025,
                    "velocity": 0.3700787401574803,
                    "duration": 0.29856699999999137
                },
                {
                    "name": "G4",
                    "midi": 67,
                    "time": 343.65061700000024,
                    "velocity": 0.3464566929133858,
                    "duration": 0.29856699999999137
                },
                {
                    "name": "F4",
                    "midi": 65,
                    "time": 343.94918400000023,
                    "velocity": 0.3700787401574803,
                    "duration": 1.1942680000000223
                },
                {
                    "name": "C4",
                    "midi": 60,
                    "time": 345.74058600000023,
                    "velocity": 0.25984251968503935,
                    "duration": 0.5672773000000007
                },
                {
                    "name": "A4",
                    "midi": 69,
                    "time": 345.74058600000023,
                    "velocity": 0.29133858267716534,
                    "duration": 0.5672773000000007
                },
                {
                    "name": "C4",
                    "midi": 60,
                    "time": 346.3377200000002,
                    "velocity": 0.28346456692913385,
                    "duration": 0.5672773000000007
                },
                {
                    "name": "A4",
                    "midi": 69,
                    "time": 346.3377200000002,
                    "velocity": 0.31496062992125984,
                    "duration": 0.5672773000000007
                },
                {
                    "name": "C4",
                    "midi": 60,
                    "time": 346.9348540000002,
                    "velocity": 0.25984251968503935,
                    "duration": 0.5672773000000007
                },
                {
                    "name": "A4",
                    "midi": 69,
                    "time": 346.9348540000002,
                    "velocity": 0.29133858267716534,
                    "duration": 0.5672773000000007
                },
                {
                    "name": "A4",
                    "midi": 69,
                    "time": 347.5319880000002,
                    "velocity": 0.31496062992125984,
                    "duration": 1.791402000000005
                },
                {
                    "name": "C4",
                    "midi": 60,
                    "time": 347.5319880000002,
                    "velocity": 0.28346456692913385,
                    "duration": 1.791402000000005
                },
                {
                    "name": "F4",
                    "midi": 65,
                    "time": 349.3233900000002,
                    "velocity": 0.33070866141732286,
                    "duration": 0.5971339999999827
                },
                {
                    "name": "A3",
                    "midi": 57,
                    "time": 349.3233900000002,
                    "velocity": 0.29133858267716534,
                    "duration": 0.5971339999999827
                },
                {
                    "name": "G4",
                    "midi": 67,
                    "time": 349.92052400000017,
                    "velocity": 0.30708661417322836,
                    "duration": 0.5971339999999827
                },
                {
                    "name": "A#4",
                    "midi": 70,
                    "time": 349.92052400000017,
                    "velocity": 0.3543307086614173,
                    "duration": 0.5971339999999827
                },
                {
                    "name": "E4",
                    "midi": 64,
                    "time": 350.51765800000015,
                    "velocity": 0.29133858267716534,
                    "duration": 0.5971339999999827
                },
                {
                    "name": "G4",
                    "midi": 67,
                    "time": 350.51765800000015,
                    "velocity": 0.33070866141732286,
                    "duration": 0.5971339999999827
                },
                {
                    "name": "C5",
                    "midi": 72,
                    "time": 351.11479200000014,
                    "velocity": 0.3858267716535433,
                    "duration": 1.791402000000005
                },
                {
                    "name": "A4",
                    "midi": 69,
                    "time": 351.11479200000014,
                    "velocity": 0.3464566929133858,
                    "duration": 1.791402000000005
                },
                {
                    "name": "F5",
                    "midi": 77,
                    "time": 352.90619400000014,
                    "velocity": 0.4251968503937008,
                    "duration": 0.5672773000000007
                },
                {
                    "name": "A4",
                    "midi": 69,
                    "time": 352.90619400000014,
                    "velocity": 0.3779527559055118,
                    "duration": 0.5672773000000007
                },
                {
                    "name": "A4",
                    "midi": 69,
                    "time": 353.5033280000001,
                    "velocity": 0.3937007874015748,
                    "duration": 0.5672773000000007
                },
                {
                    "name": "F5",
                    "midi": 77,
                    "time": 353.5033280000001,
                    "velocity": 0.4409448818897638,
                    "duration": 0.5672773000000007
                },
                {
                    "name": "F5",
                    "midi": 77,
                    "time": 354.1004620000001,
                    "velocity": 0.41732283464566927,
                    "duration": 0.5672773000000007
                },
                {
                    "name": "A4",
                    "midi": 69,
                    "time": 354.1004620000001,
                    "velocity": 0.3700787401574803,
                    "duration": 0.5672773000000007
                },
                {
                    "name": "A4",
                    "midi": 69,
                    "time": 354.6975960000001,
                    "velocity": 0.3700787401574803,
                    "duration": 1.791402000000005
                },
                {
                    "name": "F4",
                    "midi": 65,
                    "time": 354.6975960000001,
                    "velocity": 0.33070866141732286,
                    "duration": 1.791402000000005
                },
                {
                    "name": "A4",
                    "midi": 69,
                    "time": 356.4889980000001,
                    "velocity": 0.23622047244094488,
                    "duration": 0.5971339999999827
                },
                {
                    "name": "C5",
                    "midi": 72,
                    "time": 356.4889980000001,
                    "velocity": 0.2677165354330709,
                    "duration": 0.5971339999999827
                },
                {
                    "name": "G4",
                    "midi": 67,
                    "time": 357.0861320000001,
                    "velocity": 0.2283464566929134,
                    "duration": 0.5971339999999827
                },
                {
                    "name": "A#4",
                    "midi": 70,
                    "time": 357.0861320000001,
                    "velocity": 0.25984251968503935,
                    "duration": 0.5971339999999827
                },
                {
                    "name": "E4",
                    "midi": 64,
                    "time": 357.68326600000006,
                    "velocity": 0.23622047244094488,
                    "duration": 0.5971339999999827
                },
                {
                    "name": "A#3",
                    "midi": 58,
                    "time": 357.68326600000006,
                    "velocity": 0.2125984251968504,
                    "duration": 0.5971339999999827
                },
                {
                    "name": "G4",
                    "midi": 67,
                    "time": 357.68326600000006,
                    "velocity": 0.23622047244094488,
                    "duration": 0.5971339999999827
                },
                {
                    "name": "F4",
                    "midi": 65,
                    "time": 358.28040000000004,
                    "velocity": 0.23622047244094488,
                    "duration": 1.1942680000000223
                },
                {
                    "name": "A3",
                    "midi": 57,
                    "time": 358.28040000000004,
                    "velocity": 0.2125984251968504,
                    "duration": 1.1942680000000223
                }
            ],
            "controlChanges": {
                "7": [
                    {
                        "number": 7,
                        "time": 0,
                        "value": 0.7874015748031497
                    }
                ],
                "10": [
                    {
                        "number": 10,
                        "time": 0,
                        "value": 0.5039370078740157
                    }
                ],
                "91": [
                    {
                        "number": 91,
                        "time": 0,
                        "value": 1
                    },
                    {
                        "number": 91,
                        "time": 1.1942679999999999,
                        "value": 1
                    },
                    {
                        "number": 91,
                        "time": 59.116265999999925,
                        "value": 1
                    },
                    {
                        "number": 91,
                        "time": 102.10991399999988,
                        "value": 1
                    },
                    {
                        "number": 91,
                        "time": 145.10356199999958,
                        "value": 1
                    },
                    {
                        "number": 91,
                        "time": 173.76599399999978,
                        "value": 1
                    },
                    {
                        "number": 91,
                        "time": 202.42842599999997,
                        "value": 1
                    },
                    {
                        "number": 91,
                        "time": 231.0908580000002,
                        "value": 1
                    },
                    {
                        "number": 91,
                        "time": 259.75329000000045,
                        "value": 1
                    },
                    {
                        "number": 91,
                        "time": 302.74693799999994,
                        "value": 1
                    },
                    {
                        "number": 91,
                        "time": 345.74058600000023,
                        "value": 1
                    }
                ]
            },
            "id": 1,
            "name": "Piano right",
            "instrumentNumber": 0,
            "instrument": "acoustic grand piano",
            "instrumentFamily": "piano",
            "channelNumber": 0,
            "isPercussion": false
        },
        {
            "startTime": 3.5828039999999994,
            "duration": 359.47466800000154,
            "length": 664,
            "notes": [
                {
                    "name": "F3",
                    "midi": 53,
                    "time": 3.5828039999999994,
                    "velocity": 0.23622047244094488,
                    "duration": 2.388536
                },
                {
                    "name": "A3",
                    "midi": 57,
                    "time": 3.5828039999999994,
                    "velocity": 0.23622047244094488,
                    "duration": 2.388536
                },
                {
                    "name": "C4",
                    "midi": 60,
                    "time": 3.5828039999999994,
                    "velocity": 0.2677165354330709,
                    "duration": 2.388536
                },
                {
                    "name": "G3",
                    "midi": 55,
                    "time": 5.97134,
                    "velocity": 0.2125984251968504,
                    "duration": 1.194268
                },
                {
                    "name": "A#3",
                    "midi": 58,
                    "time": 5.97134,
                    "velocity": 0.23622047244094488,
                    "duration": 1.194268
                },
                {
                    "name": "C3",
                    "midi": 48,
                    "time": 5.97134,
                    "velocity": 0.2125984251968504,
                    "duration": 1.194268
                },
                {
                    "name": "D3",
                    "midi": 50,
                    "time": 7.165608,
                    "velocity": 0.29133858267716534,
                    "duration": 1.7914020000000006
                },
                {
                    "name": "A#3",
                    "midi": 58,
                    "time": 7.165608,
                    "velocity": 0.29133858267716534,
                    "duration": 1.194268
                },
                {
                    "name": "A3",
                    "midi": 57,
                    "time": 8.359876,
                    "velocity": 0.29133858267716534,
                    "duration": 0.5971340000000005
                },
                {
                    "name": "A2",
                    "midi": 45,
                    "time": 8.95701,
                    "velocity": 0.44881889763779526,
                    "duration": 0.5971340000000005
                },
                {
                    "name": "A3",
                    "midi": 57,
                    "time": 8.95701,
                    "velocity": 0.44881889763779526,
                    "duration": 0.5971340000000005
                },
                {
                    "name": "G2",
                    "midi": 43,
                    "time": 9.554144,
                    "velocity": 0.4645669291338583,
                    "duration": 0.5971340000000005
                },
                {
                    "name": "G3",
                    "midi": 55,
                    "time": 9.554144,
                    "velocity": 0.4645669291338583,
                    "duration": 0.5971340000000005
                },
                {
                    "name": "F2",
                    "midi": 41,
                    "time": 10.151278000000001,
                    "velocity": 0.44881889763779526,
                    "duration": 0.5971340000000005
                },
                {
                    "name": "F3",
                    "midi": 53,
                    "time": 10.151278000000001,
                    "velocity": 0.44881889763779526,
                    "duration": 0.5971340000000005
                },
                {
                    "name": "D4",
                    "midi": 62,
                    "time": 10.748412000000002,
                    "velocity": 0.4409448818897638,
                    "duration": 0.5971340000000005
                },
                {
                    "name": "D3",
                    "midi": 50,
                    "time": 10.748412000000002,
                    "velocity": 0.3858267716535433,
                    "duration": 0.5971340000000005
                },
                {
                    "name": "A#2",
                    "midi": 46,
                    "time": 11.345546000000002,
                    "velocity": 0.3464566929133858,
                    "duration": 0.5971340000000005
                },
                {
                    "name": "A#3",
                    "midi": 58,
                    "time": 11.345546000000002,
                    "velocity": 0.3464566929133858,
                    "duration": 0.5971340000000005
                },
                {
                    "name": "A3",
                    "midi": 57,
                    "time": 11.942680000000003,
                    "velocity": 0.2125984251968504,
                    "duration": 0.29856700000000025
                },
                {
                    "name": "A2",
                    "midi": 45,
                    "time": 11.942680000000003,
                    "velocity": 0.14960629921259844,
                    "duration": 0.29856700000000025
                },
                {
                    "name": "D3",
                    "midi": 50,
                    "time": 13.136948000000004,
                    "velocity": 0.2283464566929134,
                    "duration": 1.1942679999999992
                },
                {
                    "name": "C3",
                    "midi": 48,
                    "time": 14.331216000000003,
                    "velocity": 0.2125984251968504,
                    "duration": 2.388536
                },
                {
                    "name": "C4",
                    "midi": 60,
                    "time": 16.719752000000003,
                    "velocity": 0.30708661417322836,
                    "duration": 1.194268000000001
                },
                {
                    "name": "E4",
                    "midi": 64,
                    "time": 16.719752000000003,
                    "velocity": 0.30708661417322836,
                    "duration": 1.194268000000001
                },
                {
                    "name": "B3",
                    "midi": 59,
                    "time": 17.914020000000004,
                    "velocity": 0.4015748031496063,
                    "duration": 2.3885359999999984
                },
                {
                    "name": "F4",
                    "midi": 65,
                    "time": 17.914020000000004,
                    "velocity": 0.4015748031496063,
                    "duration": 2.3885359999999984
                },
                {
                    "name": "D4",
                    "midi": 62,
                    "time": 17.914020000000004,
                    "velocity": 0.4015748031496063,
                    "duration": 2.3885359999999984
                },
                {
                    "name": "E4",
                    "midi": 64,
                    "time": 20.302556000000003,
                    "velocity": 0.33858267716535434,
                    "duration": 1.194268000000001
                },
                {
                    "name": "C4",
                    "midi": 60,
                    "time": 20.302556000000003,
                    "velocity": 0.33858267716535434,
                    "duration": 1.194268000000001
                },
                {
                    "name": "F3",
                    "midi": 53,
                    "time": 21.496824000000004,
                    "velocity": 0.4094488188976378,
                    "duration": 1.194268000000001
                },
                {
                    "name": "B3",
                    "midi": 59,
                    "time": 21.496824000000004,
                    "velocity": 0.4094488188976378,
                    "duration": 1.194268000000001
                },
                {
                    "name": "D3",
                    "midi": 50,
                    "time": 21.496824000000004,
                    "velocity": 0.4094488188976378,
                    "duration": 1.194268000000001
                },
                {
                    "name": "G3",
                    "midi": 55,
                    "time": 22.691092000000005,
                    "velocity": 0.29133858267716534,
                    "duration": 1.194268000000001
                },
                {
                    "name": "C4",
                    "midi": 60,
                    "time": 22.691092000000005,
                    "velocity": 0.29133858267716534,
                    "duration": 1.194268000000001
                },
                {
                    "name": "E3",
                    "midi": 52,
                    "time": 22.691092000000005,
                    "velocity": 0.29133858267716534,
                    "duration": 1.194268000000001
                },
                {
                    "name": "A3",
                    "midi": 57,
                    "time": 25.676762000000004,
                    "velocity": 0.23622047244094488,
                    "duration": 0.5971340000000005
                },
                {
                    "name": "D4",
                    "midi": 62,
                    "time": 25.676762000000004,
                    "velocity": 0.23622047244094488,
                    "duration": 0.5971340000000005
                },
                {
                    "name": "F3",
                    "midi": 53,
                    "time": 25.676762000000004,
                    "velocity": 0.23622047244094488,
                    "duration": 0.5971340000000005
                },
                {
                    "name": "C4",
                    "midi": 60,
                    "time": 26.273896000000004,
                    "velocity": 0.1889763779527559,
                    "duration": 1.194268000000001
                },
                {
                    "name": "E4",
                    "midi": 64,
                    "time": 26.273896000000004,
                    "velocity": 0.2125984251968504,
                    "duration": 1.194268000000001
                },
                {
                    "name": "G3",
                    "midi": 55,
                    "time": 26.273896000000004,
                    "velocity": 0.1968503937007874,
                    "duration": 2.388536000000002
                },
                {
                    "name": "F4",
                    "midi": 65,
                    "time": 27.468164000000005,
                    "velocity": 0.2047244094488189,
                    "duration": 1.194268000000001
                },
                {
                    "name": "D4",
                    "midi": 62,
                    "time": 27.468164000000005,
                    "velocity": 0.18110236220472442,
                    "duration": 1.194268000000001
                },
                {
                    "name": "C4",
                    "midi": 60,
                    "time": 28.662432000000006,
                    "velocity": 0.23622047244094488,
                    "duration": 1.194268000000001
                },
                {
                    "name": "E4",
                    "midi": 64,
                    "time": 28.662432000000006,
                    "velocity": 0.2677165354330709,
                    "duration": 1.194268000000001
                },
                {
                    "name": "C3",
                    "midi": 48,
                    "time": 29.856700000000007,
                    "velocity": 0.2047244094488189,
                    "duration": 0.5971340000000005
                },
                {
                    "name": "F3",
                    "midi": 53,
                    "time": 32.245236000000006,
                    "velocity": 0.23622047244094488,
                    "duration": 2.388536000000002
                },
                {
                    "name": "A3",
                    "midi": 57,
                    "time": 32.245236000000006,
                    "velocity": 0.23622047244094488,
                    "duration": 2.388536000000002
                },
                {
                    "name": "C4",
                    "midi": 60,
                    "time": 32.245236000000006,
                    "velocity": 0.2677165354330709,
                    "duration": 2.388536000000002
                },
                {
                    "name": "C3",
                    "midi": 48,
                    "time": 34.63377200000001,
                    "velocity": 0.2125984251968504,
                    "duration": 1.194268000000001
                },
                {
                    "name": "G3",
                    "midi": 55,
                    "time": 34.63377200000001,
                    "velocity": 0.2125984251968504,
                    "duration": 1.194268000000001
                },
                {
                    "name": "A#3",
                    "midi": 58,
                    "time": 34.63377200000001,
                    "velocity": 0.23622047244094488,
                    "duration": 1.194268000000001
                },
                {
                    "name": "D3",
                    "midi": 50,
                    "time": 35.82804000000001,
                    "velocity": 0.29133858267716534,
                    "duration": 1.791401999999998
                },
                {
                    "name": "A#3",
                    "midi": 58,
                    "time": 35.82804000000001,
                    "velocity": 0.29133858267716534,
                    "duration": 1.194268000000001
                },
                {
                    "name": "A3",
                    "midi": 57,
                    "time": 37.02230800000001,
                    "velocity": 0.29133858267716534,
                    "duration": 0.597133999999997
                },
                {
                    "name": "A2",
                    "midi": 45,
                    "time": 37.61944200000001,
                    "velocity": 0.44881889763779526,
                    "duration": 0.597133999999997
                },
                {
                    "name": "A3",
                    "midi": 57,
                    "time": 37.61944200000001,
                    "velocity": 0.44881889763779526,
                    "duration": 0.597133999999997
                },
                {
                    "name": "G2",
                    "midi": 43,
                    "time": 38.216576,
                    "velocity": 0.4645669291338583,
                    "duration": 0.597133999999997
                },
                {
                    "name": "G3",
                    "midi": 55,
                    "time": 38.216576,
                    "velocity": 0.4645669291338583,
                    "duration": 0.597133999999997
                },
                {
                    "name": "F2",
                    "midi": 41,
                    "time": 38.81371,
                    "velocity": 0.44881889763779526,
                    "duration": 0.597133999999997
                },
                {
                    "name": "F3",
                    "midi": 53,
                    "time": 38.81371,
                    "velocity": 0.44881889763779526,
                    "duration": 0.597133999999997
                },
                {
                    "name": "D3",
                    "midi": 50,
                    "time": 39.410844,
                    "velocity": 0.3858267716535433,
                    "duration": 0.597133999999997
                },
                {
                    "name": "D4",
                    "midi": 62,
                    "time": 39.410844,
                    "velocity": 0.4409448818897638,
                    "duration": 0.597133999999997
                },
                {
                    "name": "A#2",
                    "midi": 46,
                    "time": 40.007977999999994,
                    "velocity": 0.3543307086614173,
                    "duration": 0.597133999999997
                },
                {
                    "name": "A#3",
                    "midi": 58,
                    "time": 40.007977999999994,
                    "velocity": 0.3543307086614173,
                    "duration": 0.597133999999997
                },
                {
                    "name": "A3",
                    "midi": 57,
                    "time": 40.60511199999999,
                    "velocity": 0.2283464566929134,
                    "duration": 0.2985669999999985
                },
                {
                    "name": "D3",
                    "midi": 50,
                    "time": 41.79937999999999,
                    "velocity": 0.2677165354330709,
                    "duration": 1.194268000000001
                },
                {
                    "name": "C3",
                    "midi": 48,
                    "time": 42.99364799999999,
                    "velocity": 0.2125984251968504,
                    "duration": 2.388536000000002
                },
                {
                    "name": "C4",
                    "midi": 60,
                    "time": 45.382183999999995,
                    "velocity": 0.30708661417322836,
                    "duration": 1.194268000000001
                },
                {
                    "name": "E4",
                    "midi": 64,
                    "time": 45.382183999999995,
                    "velocity": 0.30708661417322836,
                    "duration": 1.194268000000001
                },
                {
                    "name": "B3",
                    "midi": 59,
                    "time": 46.576451999999996,
                    "velocity": 0.4015748031496063,
                    "duration": 2.388536000000002
                },
                {
                    "name": "D4",
                    "midi": 62,
                    "time": 46.576451999999996,
                    "velocity": 0.4015748031496063,
                    "duration": 2.388536000000002
                },
                {
                    "name": "F4",
                    "midi": 65,
                    "time": 46.576451999999996,
                    "velocity": 0.4015748031496063,
                    "duration": 2.388536000000002
                },
                {
                    "name": "C4",
                    "midi": 60,
                    "time": 48.964988,
                    "velocity": 0.33858267716535434,
                    "duration": 1.194268000000001
                },
                {
                    "name": "E4",
                    "midi": 64,
                    "time": 48.964988,
                    "velocity": 0.33858267716535434,
                    "duration": 1.194268000000001
                },
                {
                    "name": "D3",
                    "midi": 50,
                    "time": 50.159256,
                    "velocity": 0.4094488188976378,
                    "duration": 1.194268000000001
                },
                {
                    "name": "F3",
                    "midi": 53,
                    "time": 50.159256,
                    "velocity": 0.4094488188976378,
                    "duration": 1.194268000000001
                },
                {
                    "name": "B3",
                    "midi": 59,
                    "time": 50.159256,
                    "velocity": 0.4094488188976378,
                    "duration": 1.194268000000001
                },
                {
                    "name": "E3",
                    "midi": 52,
                    "time": 51.353524,
                    "velocity": 0.29133858267716534,
                    "duration": 1.194268000000001
                },
                {
                    "name": "G3",
                    "midi": 55,
                    "time": 51.353524,
                    "velocity": 0.29133858267716534,
                    "duration": 1.194268000000001
                },
                {
                    "name": "C4",
                    "midi": 60,
                    "time": 51.353524,
                    "velocity": 0.29133858267716534,
                    "duration": 1.194268000000001
                },
                {
                    "name": "D4",
                    "midi": 62,
                    "time": 54.339194,
                    "velocity": 0.23622047244094488,
                    "duration": 0.597133999999997
                },
                {
                    "name": "A3",
                    "midi": 57,
                    "time": 54.339194,
                    "velocity": 0.23622047244094488,
                    "duration": 0.597133999999997
                },
                {
                    "name": "F3",
                    "midi": 53,
                    "time": 54.339194,
                    "velocity": 0.23622047244094488,
                    "duration": 0.597133999999997
                },
                {
                    "name": "E4",
                    "midi": 64,
                    "time": 54.936327999999996,
                    "velocity": 0.2125984251968504,
                    "duration": 1.194268000000001
                },
                {
                    "name": "C4",
                    "midi": 60,
                    "time": 54.936327999999996,
                    "velocity": 0.1889763779527559,
                    "duration": 1.194268000000001
                },
                {
                    "name": "G3",
                    "midi": 55,
                    "time": 54.936327999999996,
                    "velocity": 0.1889763779527559,
                    "duration": 2.388536000000002
                },
                {
                    "name": "F4",
                    "midi": 65,
                    "time": 56.130596,
                    "velocity": 0.2047244094488189,
                    "duration": 1.194268000000001
                },
                {
                    "name": "D4",
                    "midi": 62,
                    "time": 56.130596,
                    "velocity": 0.18110236220472442,
                    "duration": 1.194268000000001
                },
                {
                    "name": "E4",
                    "midi": 64,
                    "time": 57.324864,
                    "velocity": 0.2677165354330709,
                    "duration": 1.194268000000001
                },
                {
                    "name": "C4",
                    "midi": 60,
                    "time": 57.324864,
                    "velocity": 0.23622047244094488,
                    "duration": 1.194268000000001
                },
                {
                    "name": "C3",
                    "midi": 48,
                    "time": 58.519132,
                    "velocity": 0.2125984251968504,
                    "duration": 0.597133999999997
                },
                {
                    "name": "C4",
                    "midi": 60,
                    "time": 60.907667999999994,
                    "velocity": 0.33070866141732286,
                    "duration": 1.791401999999998
                },
                {
                    "name": "D#4",
                    "midi": 63,
                    "time": 60.907667999999994,
                    "velocity": 0.36220472440944884,
                    "duration": 1.791401999999998
                },
                {
                    "name": "D#4",
                    "midi": 63,
                    "time": 62.69906999999999,
                    "velocity": 0.36220472440944884,
                    "duration": 0.597133999999997
                },
                {
                    "name": "C4",
                    "midi": 60,
                    "time": 62.69906999999999,
                    "velocity": 0.36220472440944884,
                    "duration": 0.597133999999997
                },
                {
                    "name": "D4",
                    "midi": 62,
                    "time": 63.29620399999999,
                    "velocity": 0.3700787401574803,
                    "duration": 0.597133999999997
                },
                {
                    "name": "A#3",
                    "midi": 58,
                    "time": 63.29620399999999,
                    "velocity": 0.3700787401574803,
                    "duration": 0.597133999999997
                },
                {
                    "name": "A3",
                    "midi": 57,
                    "time": 63.893337999999986,
                    "velocity": 0.3700787401574803,
                    "duration": 0.597133999999997
                },
                {
                    "name": "D4",
                    "midi": 62,
                    "time": 63.893337999999986,
                    "velocity": 0.3700787401574803,
                    "duration": 0.597133999999997
                },
                {
                    "name": "C4",
                    "midi": 60,
                    "time": 63.893337999999986,
                    "velocity": 0.3700787401574803,
                    "duration": 0.597133999999997
                },
                {
                    "name": "C4",
                    "midi": 60,
                    "time": 64.49047199999998,
                    "velocity": 0.3937007874015748,
                    "duration": 1.194267999999994
                },
                {
                    "name": "G3",
                    "midi": 55,
                    "time": 64.49047199999998,
                    "velocity": 0.3937007874015748,
                    "duration": 1.791402000000005
                },
                {
                    "name": "D4",
                    "midi": 62,
                    "time": 64.49047199999998,
                    "velocity": 0.3937007874015748,
                    "duration": 1.791402000000005
                },
                {
                    "name": "A#3",
                    "midi": 58,
                    "time": 65.68473999999998,
                    "velocity": 0.3779527559055118,
                    "duration": 0.5374206000000044
                },
                {
                    "name": "A#3",
                    "midi": 58,
                    "time": 66.28187399999999,
                    "velocity": 0.3464566929133858,
                    "duration": 0.597133999999997
                },
                {
                    "name": "C#4",
                    "midi": 61,
                    "time": 66.28187399999999,
                    "velocity": 0.3464566929133858,
                    "duration": 0.597133999999997
                },
                {
                    "name": "C4",
                    "midi": 60,
                    "time": 66.87900799999998,
                    "velocity": 0.3779527559055118,
                    "duration": 0.597133999999997
                },
                {
                    "name": "A3",
                    "midi": 57,
                    "time": 66.87900799999998,
                    "velocity": 0.3779527559055118,
                    "duration": 0.597133999999997
                },
                {
                    "name": "G3",
                    "midi": 55,
                    "time": 67.47614199999998,
                    "velocity": 0.3543307086614173,
                    "duration": 0.597133999999997
                },
                {
                    "name": "C4",
                    "midi": 60,
                    "time": 67.47614199999998,
                    "velocity": 0.3543307086614173,
                    "duration": 0.597133999999997
                },
                {
                    "name": "A#3",
                    "midi": 58,
                    "time": 67.47614199999998,
                    "velocity": 0.3543307086614173,
                    "duration": 0.597133999999997
                },
                {
                    "name": "A3",
                    "midi": 57,
                    "time": 68.07327599999998,
                    "velocity": 0.3779527559055118,
                    "duration": 0.597133999999997
                },
                {
                    "name": "C4",
                    "midi": 60,
                    "time": 68.07327599999998,
                    "velocity": 0.3779527559055118,
                    "duration": 0.597133999999997
                },
                {
                    "name": "F3",
                    "midi": 53,
                    "time": 68.07327599999998,
                    "velocity": 0.3779527559055118,
                    "duration": 0.597133999999997
                },
                {
                    "name": "D3",
                    "midi": 50,
                    "time": 68.67040999999998,
                    "velocity": 0.3937007874015748,
                    "duration": 0.597133999999997
                },
                {
                    "name": "A2",
                    "midi": 45,
                    "time": 69.26754399999997,
                    "velocity": 0.4251968503937008,
                    "duration": 1.194267999999994
                },
                {
                    "name": "A#2",
                    "midi": 46,
                    "time": 70.46181199999997,
                    "velocity": 0.3858267716535433,
                    "duration": 0.597133999999997
                },
                {
                    "name": "G2",
                    "midi": 43,
                    "time": 71.05894599999996,
                    "velocity": 0.36220472440944884,
                    "duration": 0.2985670000000056
                },
                {
                    "name": "C3",
                    "midi": 48,
                    "time": 71.65607999999997,
                    "velocity": 0.33858267716535434,
                    "duration": 2.388536000000002
                },
                {
                    "name": "C2",
                    "midi": 36,
                    "time": 75.23888399999997,
                    "velocity": 0.41732283464566927,
                    "duration": 0.8957010000000025
                },
                {
                    "name": "C3",
                    "midi": 48,
                    "time": 75.23888399999997,
                    "velocity": 0.5039370078740157,
                    "duration": 0.8957010000000025
                },
                {
                    "name": "D2",
                    "midi": 38,
                    "time": 76.13458499999997,
                    "velocity": 0.4015748031496063,
                    "duration": 0.2985670000000056
                },
                {
                    "name": "D3",
                    "midi": 50,
                    "time": 76.13458499999997,
                    "velocity": 0.47244094488188976,
                    "duration": 0.2985670000000056
                },
                {
                    "name": "E3",
                    "midi": 52,
                    "time": 76.43315199999998,
                    "velocity": 0.5039370078740157,
                    "duration": 0.44785050000000126
                },
                {
                    "name": "E2",
                    "midi": 40,
                    "time": 76.43315199999998,
                    "velocity": 0.41732283464566927,
                    "duration": 0.44785050000000126
                },
                {
                    "name": "F2",
                    "midi": 41,
                    "time": 77.03028599999998,
                    "velocity": 0.31496062992125984,
                    "duration": 0.44785050000000126
                },
                {
                    "name": "F3",
                    "midi": 53,
                    "time": 77.03028599999998,
                    "velocity": 0.3779527559055118,
                    "duration": 0.44785050000000126
                },
                {
                    "name": "G3",
                    "midi": 55,
                    "time": 77.62741999999997,
                    "velocity": 0.41732283464566927,
                    "duration": 0.44785050000000126
                },
                {
                    "name": "G2",
                    "midi": 43,
                    "time": 77.62741999999997,
                    "velocity": 0.3543307086614173,
                    "duration": 0.44785050000000126
                },
                {
                    "name": "A2",
                    "midi": 45,
                    "time": 78.22455399999997,
                    "velocity": 0.33070866141732286,
                    "duration": 0.44785050000000126
                },
                {
                    "name": "A3",
                    "midi": 57,
                    "time": 78.22455399999997,
                    "velocity": 0.3937007874015748,
                    "duration": 0.44785050000000126
                },
                {
                    "name": "A#2",
                    "midi": 46,
                    "time": 78.82168799999997,
                    "velocity": 0.3543307086614173,
                    "duration": 2.388536000000002
                },
                {
                    "name": "A#3",
                    "midi": 58,
                    "time": 78.82168799999997,
                    "velocity": 0.41732283464566927,
                    "duration": 2.388536000000002
                },
                {
                    "name": "F4",
                    "midi": 65,
                    "time": 82.40449199999996,
                    "velocity": 0.33858267716535434,
                    "duration": 1.194267999999994
                },
                {
                    "name": "A3",
                    "midi": 57,
                    "time": 82.40449199999996,
                    "velocity": 0.29133858267716534,
                    "duration": 1.194267999999994
                },
                {
                    "name": "C4",
                    "midi": 60,
                    "time": 82.40449199999996,
                    "velocity": 0.29133858267716534,
                    "duration": 1.194267999999994
                },
                {
                    "name": "F4",
                    "midi": 65,
                    "time": 83.59875999999996,
                    "velocity": 0.33858267716535434,
                    "duration": 1.194267999999994
                },
                {
                    "name": "A3",
                    "midi": 57,
                    "time": 83.59875999999996,
                    "velocity": 0.29133858267716534,
                    "duration": 1.194267999999994
                },
                {
                    "name": "C4",
                    "midi": 60,
                    "time": 83.59875999999996,
                    "velocity": 0.29133858267716534,
                    "duration": 1.194267999999994
                },
                {
                    "name": "F4",
                    "midi": 65,
                    "time": 84.79302799999995,
                    "velocity": 0.29133858267716534,
                    "duration": 1.194267999999994
                },
                {
                    "name": "A3",
                    "midi": 57,
                    "time": 84.79302799999995,
                    "velocity": 0.25984251968503935,
                    "duration": 1.194267999999994
                },
                {
                    "name": "D#4",
                    "midi": 63,
                    "time": 84.79302799999995,
                    "velocity": 0.25984251968503935,
                    "duration": 1.194267999999994
                },
                {
                    "name": "D4",
                    "midi": 62,
                    "time": 85.98729599999994,
                    "velocity": 0.1732283464566929,
                    "duration": 2.388536000000002
                },
                {
                    "name": "A#3",
                    "midi": 58,
                    "time": 85.98729599999994,
                    "velocity": 0.1732283464566929,
                    "duration": 2.388536000000002
                },
                {
                    "name": "F4",
                    "midi": 65,
                    "time": 85.98729599999994,
                    "velocity": 0.2204724409448819,
                    "duration": 2.388536000000002
                },
                {
                    "name": "A#3",
                    "midi": 58,
                    "time": 89.57009999999994,
                    "velocity": 0.2204724409448819,
                    "duration": 1.194267999999994
                },
                {
                    "name": "F3",
                    "midi": 53,
                    "time": 89.57009999999994,
                    "velocity": 0.2204724409448819,
                    "duration": 2.388535999999988
                },
                {
                    "name": "D4",
                    "midi": 62,
                    "time": 89.57009999999994,
                    "velocity": 0.2755905511811024,
                    "duration": 1.194267999999994
                },
                {
                    "name": "A3",
                    "midi": 57,
                    "time": 90.76436799999993,
                    "velocity": 0.2047244094488189,
                    "duration": 1.194267999999994
                },
                {
                    "name": "C4",
                    "midi": 60,
                    "time": 90.76436799999993,
                    "velocity": 0.25984251968503935,
                    "duration": 1.194267999999994
                },
                {
                    "name": "E3",
                    "midi": 52,
                    "time": 93.15290399999992,
                    "velocity": 0.33858267716535434,
                    "duration": 1.791402000000005
                },
                {
                    "name": "C4",
                    "midi": 60,
                    "time": 93.15290399999992,
                    "velocity": 0.33858267716535434,
                    "duration": 1.791402000000005
                },
                {
                    "name": "G3",
                    "midi": 55,
                    "time": 93.15290399999992,
                    "velocity": 0.33858267716535434,
                    "duration": 1.791402000000005
                },
                {
                    "name": "A#3",
                    "midi": 58,
                    "time": 94.94430599999993,
                    "velocity": 0.3779527559055118,
                    "duration": 0.597133999999997
                },
                {
                    "name": "A#2",
                    "midi": 46,
                    "time": 94.94430599999993,
                    "velocity": 0.33070866141732286,
                    "duration": 0.597133999999997
                },
                {
                    "name": "A3",
                    "midi": 57,
                    "time": 95.54143999999992,
                    "velocity": 0.3937007874015748,
                    "duration": 0.597133999999997
                },
                {
                    "name": "A2",
                    "midi": 45,
                    "time": 95.54143999999992,
                    "velocity": 0.3464566929133858,
                    "duration": 0.597133999999997
                },
                {
                    "name": "G3",
                    "midi": 55,
                    "time": 96.13857399999992,
                    "velocity": 0.3937007874015748,
                    "duration": 0.597133999999997
                },
                {
                    "name": "G2",
                    "midi": 43,
                    "time": 96.13857399999992,
                    "velocity": 0.3464566929133858,
                    "duration": 0.597133999999997
                },
                {
                    "name": "F3",
                    "midi": 53,
                    "time": 96.73570799999992,
                    "velocity": 0.4251968503937008,
                    "duration": 0.597133999999997
                },
                {
                    "name": "F2",
                    "midi": 41,
                    "time": 96.73570799999992,
                    "velocity": 0.3858267716535433,
                    "duration": 0.597133999999997
                },
                {
                    "name": "C3",
                    "midi": 48,
                    "time": 97.92997599999991,
                    "velocity": 0.25984251968503935,
                    "duration": 2.388535999999988
                },
                {
                    "name": "A3",
                    "midi": 57,
                    "time": 97.92997599999991,
                    "velocity": 0.2992125984251969,
                    "duration": 1.194267999999994
                },
                {
                    "name": "A#3",
                    "midi": 58,
                    "time": 99.1242439999999,
                    "velocity": 0.25196850393700787,
                    "duration": 1.194267999999994
                },
                {
                    "name": "F3",
                    "midi": 53,
                    "time": 100.3185119999999,
                    "velocity": 0.2204724409448819,
                    "duration": 1.194267999999994
                },
                {
                    "name": "A3",
                    "midi": 57,
                    "time": 100.3185119999999,
                    "velocity": 0.2677165354330709,
                    "duration": 1.194267999999994
                },
                {
                    "name": "F2",
                    "midi": 41,
                    "time": 101.51277999999989,
                    "velocity": 0.2204724409448819,
                    "duration": 0.597133999999997
                },
                {
                    "name": "D#4",
                    "midi": 63,
                    "time": 103.9013159999999,
                    "velocity": 0.36220472440944884,
                    "duration": 1.791402000000005
                },
                {
                    "name": "C4",
                    "midi": 60,
                    "time": 103.9013159999999,
                    "velocity": 0.36220472440944884,
                    "duration": 1.791402000000005
                },
                {
                    "name": "D#4",
                    "midi": 63,
                    "time": 105.6927179999999,
                    "velocity": 0.36220472440944884,
                    "duration": 0.597133999999997
                },
                {
                    "name": "C4",
                    "midi": 60,
                    "time": 105.6927179999999,
                    "velocity": 0.36220472440944884,
                    "duration": 0.597133999999997
                },
                {
                    "name": "D4",
                    "midi": 62,
                    "time": 106.2898519999999,
                    "velocity": 0.3700787401574803,
                    "duration": 0.597133999999997
                },
                {
                    "name": "A#3",
                    "midi": 58,
                    "time": 106.2898519999999,
                    "velocity": 0.3700787401574803,
                    "duration": 0.597133999999997
                },
                {
                    "name": "A3",
                    "midi": 57,
                    "time": 106.8869859999999,
                    "velocity": 0.3700787401574803,
                    "duration": 0.597133999999997
                },
                {
                    "name": "C4",
                    "midi": 60,
                    "time": 106.8869859999999,
                    "velocity": 0.3700787401574803,
                    "duration": 0.597133999999997
                },
                {
                    "name": "D4",
                    "midi": 62,
                    "time": 106.8869859999999,
                    "velocity": 0.3700787401574803,
                    "duration": 0.597133999999997
                },
                {
                    "name": "C4",
                    "midi": 60,
                    "time": 107.48411999999989,
                    "velocity": 0.3937007874015748,
                    "duration": 1.194267999999994
                },
                {
                    "name": "D4",
                    "midi": 62,
                    "time": 107.48411999999989,
                    "velocity": 0.3937007874015748,
                    "duration": 1.791402000000005
                },
                {
                    "name": "G3",
                    "midi": 55,
                    "time": 107.48411999999989,
                    "velocity": 0.3937007874015748,
                    "duration": 1.791402000000005
                },
                {
                    "name": "A#3",
                    "midi": 58,
                    "time": 108.67838799999988,
                    "velocity": 0.3779527559055118,
                    "duration": 0.5374206000000044
                },
                {
                    "name": "C#4",
                    "midi": 61,
                    "time": 109.2755219999999,
                    "velocity": 0.3464566929133858,
                    "duration": 0.597133999999997
                },
                {
                    "name": "A#3",
                    "midi": 58,
                    "time": 109.2755219999999,
                    "velocity": 0.3464566929133858,
                    "duration": 0.597133999999997
                },
                {
                    "name": "C4",
                    "midi": 60,
                    "time": 109.87265599999989,
                    "velocity": 0.3779527559055118,
                    "duration": 0.597133999999997
                },
                {
                    "name": "A3",
                    "midi": 57,
                    "time": 109.87265599999989,
                    "velocity": 0.3779527559055118,
                    "duration": 0.597133999999997
                },
                {
                    "name": "G3",
                    "midi": 55,
                    "time": 110.46978999999989,
                    "velocity": 0.3543307086614173,
                    "duration": 0.597133999999997
                },
                {
                    "name": "A#3",
                    "midi": 58,
                    "time": 110.46978999999989,
                    "velocity": 0.3543307086614173,
                    "duration": 0.597133999999997
                },
                {
                    "name": "C4",
                    "midi": 60,
                    "time": 110.46978999999989,
                    "velocity": 0.3543307086614173,
                    "duration": 0.597133999999997
                },
                {
                    "name": "F3",
                    "midi": 53,
                    "time": 111.06692399999989,
                    "velocity": 0.3779527559055118,
                    "duration": 0.597133999999997
                },
                {
                    "name": "A3",
                    "midi": 57,
                    "time": 111.06692399999989,
                    "velocity": 0.3779527559055118,
                    "duration": 0.597133999999997
                },
                {
                    "name": "C4",
                    "midi": 60,
                    "time": 111.06692399999989,
                    "velocity": 0.3779527559055118,
                    "duration": 0.597133999999997
                },
                {
                    "name": "D3",
                    "midi": 50,
                    "time": 111.66405799999988,
                    "velocity": 0.3937007874015748,
                    "duration": 0.597133999999997
                },
                {
                    "name": "A2",
                    "midi": 45,
                    "time": 112.26119199999988,
                    "velocity": 0.4251968503937008,
                    "duration": 1.194267999999994
                },
                {
                    "name": "A#2",
                    "midi": 46,
                    "time": 113.45545999999987,
                    "velocity": 0.41732283464566927,
                    "duration": 0.597133999999997
                },
                {
                    "name": "G2",
                    "midi": 43,
                    "time": 114.05259399999987,
                    "velocity": 0.36220472440944884,
                    "duration": 0.2985670000000056
                },
                {
                    "name": "C3",
                    "midi": 48,
                    "time": 114.64972799999988,
                    "velocity": 0.33858267716535434,
                    "duration": 2.388536000000002
                },
                {
                    "name": "C2",
                    "midi": 36,
                    "time": 118.23253199999988,
                    "velocity": 0.41732283464566927,
                    "duration": 0.8957010000000025
                },
                {
                    "name": "C3",
                    "midi": 48,
                    "time": 118.23253199999988,
                    "velocity": 0.5039370078740157,
                    "duration": 0.8957010000000025
                },
                {
                    "name": "D2",
                    "midi": 38,
                    "time": 119.12823299999988,
                    "velocity": 0.4015748031496063,
                    "duration": 0.2985670000000056
                },
                {
                    "name": "D3",
                    "midi": 50,
                    "time": 119.12823299999988,
                    "velocity": 0.47244094488188976,
                    "duration": 0.2985670000000056
                },
                {
                    "name": "E2",
                    "midi": 40,
                    "time": 119.42679999999989,
                    "velocity": 0.41732283464566927,
                    "duration": 0.44785050000000126
                },
                {
                    "name": "E3",
                    "midi": 52,
                    "time": 119.42679999999989,
                    "velocity": 0.5039370078740157,
                    "duration": 0.44785050000000126
                },
                {
                    "name": "F2",
                    "midi": 41,
                    "time": 120.02393399999988,
                    "velocity": 0.31496062992125984,
                    "duration": 0.44785050000000126
                },
                {
                    "name": "F3",
                    "midi": 53,
                    "time": 120.02393399999988,
                    "velocity": 0.3779527559055118,
                    "duration": 0.44785050000000126
                },
                {
                    "name": "G2",
                    "midi": 43,
                    "time": 120.62106799999988,
                    "velocity": 0.3543307086614173,
                    "duration": 0.44785050000000126
                },
                {
                    "name": "G3",
                    "midi": 55,
                    "time": 120.62106799999988,
                    "velocity": 0.41732283464566927,
                    "duration": 0.44785050000000126
                },
                {
                    "name": "A2",
                    "midi": 45,
                    "time": 121.21820199999988,
                    "velocity": 0.33070866141732286,
                    "duration": 0.44785050000000126
                },
                {
                    "name": "A3",
                    "midi": 57,
                    "time": 121.21820199999988,
                    "velocity": 0.3937007874015748,
                    "duration": 0.44785050000000126
                },
                {
                    "name": "A#2",
                    "midi": 46,
                    "time": 121.81533599999987,
                    "velocity": 0.3543307086614173,
                    "duration": 2.388536000000002
                },
                {
                    "name": "A#3",
                    "midi": 58,
                    "time": 121.81533599999987,
                    "velocity": 0.41732283464566927,
                    "duration": 2.388536000000002
                },
                {
                    "name": "F4",
                    "midi": 65,
                    "time": 125.39813999999987,
                    "velocity": 0.33858267716535434,
                    "duration": 1.194267999999994
                },
                {
                    "name": "C4",
                    "midi": 60,
                    "time": 125.39813999999987,
                    "velocity": 0.29133858267716534,
                    "duration": 1.194267999999994
                },
                {
                    "name": "A3",
                    "midi": 57,
                    "time": 125.39813999999987,
                    "velocity": 0.29133858267716534,
                    "duration": 1.194267999999994
                },
                {
                    "name": "F4",
                    "midi": 65,
                    "time": 126.59240799999986,
                    "velocity": 0.33858267716535434,
                    "duration": 1.194267999999994
                },
                {
                    "name": "A3",
                    "midi": 57,
                    "time": 126.59240799999986,
                    "velocity": 0.29133858267716534,
                    "duration": 1.194267999999994
                },
                {
                    "name": "C4",
                    "midi": 60,
                    "time": 126.59240799999986,
                    "velocity": 0.29133858267716534,
                    "duration": 1.194267999999994
                },
                {
                    "name": "F4",
                    "midi": 65,
                    "time": 127.78667599999986,
                    "velocity": 0.29133858267716534,
                    "duration": 1.194267999999994
                },
                {
                    "name": "A3",
                    "midi": 57,
                    "time": 127.78667599999986,
                    "velocity": 0.25984251968503935,
                    "duration": 1.194267999999994
                },
                {
                    "name": "D#4",
                    "midi": 63,
                    "time": 127.78667599999986,
                    "velocity": 0.25984251968503935,
                    "duration": 1.194267999999994
                },
                {
                    "name": "D4",
                    "midi": 62,
                    "time": 128.98094399999985,
                    "velocity": 0.1732283464566929,
                    "duration": 2.388535999999988
                },
                {
                    "name": "A#3",
                    "midi": 58,
                    "time": 128.98094399999985,
                    "velocity": 0.1732283464566929,
                    "duration": 2.388535999999988
                },
                {
                    "name": "F4",
                    "midi": 65,
                    "time": 128.98094399999985,
                    "velocity": 0.2204724409448819,
                    "duration": 2.388535999999988
                },
                {
                    "name": "A#3",
                    "midi": 58,
                    "time": 132.56374799999983,
                    "velocity": 0.2204724409448819,
                    "duration": 1.194267999999994
                },
                {
                    "name": "F3",
                    "midi": 53,
                    "time": 132.56374799999983,
                    "velocity": 0.2204724409448819,
                    "duration": 2.388535999999988
                },
                {
                    "name": "D4",
                    "midi": 62,
                    "time": 132.56374799999983,
                    "velocity": 0.2755905511811024,
                    "duration": 1.194267999999994
                },
                {
                    "name": "A3",
                    "midi": 57,
                    "time": 133.75801599999983,
                    "velocity": 0.2047244094488189,
                    "duration": 1.194267999999994
                },
                {
                    "name": "C4",
                    "midi": 60,
                    "time": 133.75801599999983,
                    "velocity": 0.25984251968503935,
                    "duration": 1.194267999999994
                },
                {
                    "name": "G3",
                    "midi": 55,
                    "time": 136.14655199999982,
                    "velocity": 0.33858267716535434,
                    "duration": 1.791402000000005
                },
                {
                    "name": "C4",
                    "midi": 60,
                    "time": 136.14655199999982,
                    "velocity": 0.33858267716535434,
                    "duration": 1.791402000000005
                },
                {
                    "name": "E3",
                    "midi": 52,
                    "time": 136.14655199999982,
                    "velocity": 0.33858267716535434,
                    "duration": 1.791402000000005
                },
                {
                    "name": "A#2",
                    "midi": 46,
                    "time": 137.93795399999982,
                    "velocity": 0.33070866141732286,
                    "duration": 0.5971340000000112
                },
                {
                    "name": "A#3",
                    "midi": 58,
                    "time": 137.93795399999982,
                    "velocity": 0.3779527559055118,
                    "duration": 0.5971340000000112
                },
                {
                    "name": "A3",
                    "midi": 57,
                    "time": 138.53508799999983,
                    "velocity": 0.3937007874015748,
                    "duration": 0.5971340000000112
                },
                {
                    "name": "A2",
                    "midi": 45,
                    "time": 138.53508799999983,
                    "velocity": 0.3464566929133858,
                    "duration": 0.5971340000000112
                },
                {
                    "name": "G3",
                    "midi": 55,
                    "time": 139.13222199999984,
                    "velocity": 0.3937007874015748,
                    "duration": 0.5971340000000112
                },
                {
                    "name": "G2",
                    "midi": 43,
                    "time": 139.13222199999984,
                    "velocity": 0.3464566929133858,
                    "duration": 0.5971340000000112
                },
                {
                    "name": "F2",
                    "midi": 41,
                    "time": 139.72935599999985,
                    "velocity": 0.3858267716535433,
                    "duration": 0.5971340000000112
                },
                {
                    "name": "F3",
                    "midi": 53,
                    "time": 139.72935599999985,
                    "velocity": 0.4251968503937008,
                    "duration": 0.5971340000000112
                },
                {
                    "name": "A3",
                    "midi": 57,
                    "time": 140.92362399999988,
                    "velocity": 0.29133858267716534,
                    "duration": 1.194267999999994
                },
                {
                    "name": "C3",
                    "midi": 48,
                    "time": 140.92362399999988,
                    "velocity": 0.2283464566929134,
                    "duration": 2.388535999999988
                },
                {
                    "name": "A#3",
                    "midi": 58,
                    "time": 142.11789199999987,
                    "velocity": 0.2204724409448819,
                    "duration": 1.194267999999994
                },
                {
                    "name": "F3",
                    "midi": 53,
                    "time": 143.31215999999986,
                    "velocity": 0.25196850393700787,
                    "duration": 1.194267999999994
                },
                {
                    "name": "A3",
                    "midi": 57,
                    "time": 143.31215999999986,
                    "velocity": 0.25196850393700787,
                    "duration": 1.194267999999994
                },
                {
                    "name": "F2",
                    "midi": 41,
                    "time": 144.50642799999986,
                    "velocity": 0.2047244094488189,
                    "duration": 0.5971340000000112
                },
                {
                    "name": "F2",
                    "midi": 41,
                    "time": 146.89496399999987,
                    "velocity": 0.31496062992125984,
                    "duration": 0.29856699999999137
                },
                {
                    "name": "F3",
                    "midi": 53,
                    "time": 147.19353099999987,
                    "velocity": 0.2047244094488189,
                    "duration": 0.2687103000000093
                },
                {
                    "name": "F3",
                    "midi": 53,
                    "time": 147.49209799999988,
                    "velocity": 0.2204724409448819,
                    "duration": 0.2687103000000093
                },
                {
                    "name": "F3",
                    "midi": 53,
                    "time": 147.7906649999999,
                    "velocity": 0.2047244094488189,
                    "duration": 0.2687103000000093
                },
                {
                    "name": "F3",
                    "midi": 53,
                    "time": 148.08923199999992,
                    "velocity": 0.1889763779527559,
                    "duration": 0.2687103000000093
                },
                {
                    "name": "F3",
                    "midi": 53,
                    "time": 148.38779899999994,
                    "velocity": 0.1732283464566929,
                    "duration": 0.2687103000000093
                },
                {
                    "name": "F3",
                    "midi": 53,
                    "time": 148.68636599999996,
                    "velocity": 0.1968503937007874,
                    "duration": 0.2687103000000093
                },
                {
                    "name": "F3",
                    "midi": 53,
                    "time": 148.98493299999998,
                    "velocity": 0.1732283464566929,
                    "duration": 0.2687103000000093
                },
                {
                    "name": "F3",
                    "midi": 53,
                    "time": 149.2835,
                    "velocity": 0.2283464566929134,
                    "duration": 0.2687103000000093
                },
                {
                    "name": "F3",
                    "midi": 53,
                    "time": 149.58206700000002,
                    "velocity": 0.1968503937007874,
                    "duration": 0.2687103000000093
                },
                {
                    "name": "F3",
                    "midi": 53,
                    "time": 149.88063400000004,
                    "velocity": 0.2125984251968504,
                    "duration": 0.2687103000000093
                },
                {
                    "name": "F3",
                    "midi": 53,
                    "time": 150.17920100000006,
                    "velocity": 0.1968503937007874,
                    "duration": 0.2687103000000093
                },
                {
                    "name": "F2",
                    "midi": 41,
                    "time": 150.47776800000008,
                    "velocity": 0.2677165354330709,
                    "duration": 0.29856699999999137
                },
                {
                    "name": "F3",
                    "midi": 53,
                    "time": 150.77633500000007,
                    "velocity": 0.1889763779527559,
                    "duration": 0.2687103000000093
                },
                {
                    "name": "F3",
                    "midi": 53,
                    "time": 151.0749020000001,
                    "velocity": 0.2047244094488189,
                    "duration": 0.2687103000000093
                },
                {
                    "name": "F3",
                    "midi": 53,
                    "time": 151.3734690000001,
                    "velocity": 0.18110236220472442,
                    "duration": 0.2687103000000093
                },
                {
                    "name": "F3",
                    "midi": 53,
                    "time": 151.67203600000013,
                    "velocity": 0.1968503937007874,
                    "duration": 0.2687103000000093
                },
                {
                    "name": "F3",
                    "midi": 53,
                    "time": 151.97060300000015,
                    "velocity": 0.1732283464566929,
                    "duration": 0.2687103000000093
                },
                {
                    "name": "F3",
                    "midi": 53,
                    "time": 152.26917000000017,
                    "velocity": 0.1968503937007874,
                    "duration": 0.2687103000000093
                },
                {
                    "name": "F3",
                    "midi": 53,
                    "time": 152.5677370000002,
                    "velocity": 0.1732283464566929,
                    "duration": 0.2687103000000093
                },
                {
                    "name": "F3",
                    "midi": 53,
                    "time": 152.8663040000002,
                    "velocity": 0.2204724409448819,
                    "duration": 0.2687103000000093
                },
                {
                    "name": "F3",
                    "midi": 53,
                    "time": 153.16487100000023,
                    "velocity": 0.1968503937007874,
                    "duration": 0.2687103000000093
                },
                {
                    "name": "F3",
                    "midi": 53,
                    "time": 153.46343800000025,
                    "velocity": 0.2204724409448819,
                    "duration": 0.2687103000000093
                },
                {
                    "name": "F3",
                    "midi": 53,
                    "time": 153.76200500000027,
                    "velocity": 0.2125984251968504,
                    "duration": 0.2687103000000093
                },
                {
                    "name": "E2",
                    "midi": 40,
                    "time": 154.0605720000003,
                    "velocity": 0.25984251968503935,
                    "duration": 0.29856699999999137
                },
                {
                    "name": "E3",
                    "midi": 52,
                    "time": 154.35913900000028,
                    "velocity": 0.2283464566929134,
                    "duration": 0.2687103000000093
                },
                {
                    "name": "E3",
                    "midi": 52,
                    "time": 154.6577060000003,
                    "velocity": 0.2125984251968504,
                    "duration": 0.2687103000000093
                },
                {
                    "name": "E3",
                    "midi": 52,
                    "time": 154.95627300000032,
                    "velocity": 0.1889763779527559,
                    "duration": 0.2687103000000093
                },
                {
                    "name": "E3",
                    "midi": 52,
                    "time": 155.25484000000034,
                    "velocity": 0.2283464566929134,
                    "duration": 0.2687103000000093
                },
                {
                    "name": "E3",
                    "midi": 52,
                    "time": 155.55340700000036,
                    "velocity": 0.18110236220472442,
                    "duration": 0.2687103000000093
                },
                {
                    "name": "E3",
                    "midi": 52,
                    "time": 155.85197400000038,
                    "velocity": 0.1968503937007874,
                    "duration": 0.2687103000000093
                },
                {
                    "name": "E3",
                    "midi": 52,
                    "time": 156.1505410000004,
                    "velocity": 0.1732283464566929,
                    "duration": 0.2687103000000093
                },
                {
                    "name": "E3",
                    "midi": 52,
                    "time": 156.44910800000042,
                    "velocity": 0.2283464566929134,
                    "duration": 0.2687103000000093
                },
                {
                    "name": "E3",
                    "midi": 52,
                    "time": 156.74767500000044,
                    "velocity": 0.2125984251968504,
                    "duration": 0.2687103000000093
                },
                {
                    "name": "E3",
                    "midi": 52,
                    "time": 157.04624200000046,
                    "velocity": 0.2283464566929134,
                    "duration": 0.2687103000000093
                },
                {
                    "name": "E3",
                    "midi": 52,
                    "time": 157.34480900000048,
                    "velocity": 0.2047244094488189,
                    "duration": 0.2687103000000093
                },
                {
                    "name": "F2",
                    "midi": 41,
                    "time": 157.6433760000005,
                    "velocity": 0.2283464566929134,
                    "duration": 0.29856699999999137
                },
                {
                    "name": "F3",
                    "midi": 53,
                    "time": 157.9419430000005,
                    "velocity": 0.2204724409448819,
                    "duration": 0.2687103000000093
                },
                {
                    "name": "F3",
                    "midi": 53,
                    "time": 158.2405100000005,
                    "velocity": 0.2283464566929134,
                    "duration": 0.2687103000000093
                },
                {
                    "name": "F3",
                    "midi": 53,
                    "time": 158.53907700000053,
                    "velocity": 0.2047244094488189,
                    "duration": 0.2687103000000093
                },
                {
                    "name": "F3",
                    "midi": 53,
                    "time": 158.83764400000055,
                    "velocity": 0.25196850393700787,
                    "duration": 1.194267999999994
                },
                {
                    "name": "C#4",
                    "midi": 61,
                    "time": 161.82331400000055,
                    "velocity": 0.25984251968503935,
                    "duration": 0.5672773000000007
                },
                {
                    "name": "F3",
                    "midi": 53,
                    "time": 161.82331400000055,
                    "velocity": 0.25984251968503935,
                    "duration": 0.5672773000000007
                },
                {
                    "name": "G#3",
                    "midi": 56,
                    "time": 161.82331400000055,
                    "velocity": 0.25984251968503935,
                    "duration": 0.5672773000000007
                },
                {
                    "name": "C#4",
                    "midi": 61,
                    "time": 162.42044800000056,
                    "velocity": 0.28346456692913385,
                    "duration": 0.5672773000000007
                },
                {
                    "name": "F3",
                    "midi": 53,
                    "time": 162.42044800000056,
                    "velocity": 0.28346456692913385,
                    "duration": 0.5672773000000007
                },
                {
                    "name": "G#3",
                    "midi": 56,
                    "time": 162.42044800000056,
                    "velocity": 0.28346456692913385,
                    "duration": 0.5672773000000007
                },
                {
                    "name": "C#4",
                    "midi": 61,
                    "time": 163.01758200000057,
                    "velocity": 0.31496062992125984,
                    "duration": 0.5672773000000007
                },
                {
                    "name": "F3",
                    "midi": 53,
                    "time": 163.01758200000057,
                    "velocity": 0.31496062992125984,
                    "duration": 0.5672773000000007
                },
                {
                    "name": "G#3",
                    "midi": 56,
                    "time": 163.01758200000057,
                    "velocity": 0.31496062992125984,
                    "duration": 0.5672773000000007
                },
                {
                    "name": "G#3",
                    "midi": 56,
                    "time": 163.61471600000058,
                    "velocity": 0.36220472440944884,
                    "duration": 0.5672773000000007
                },
                {
                    "name": "F3",
                    "midi": 53,
                    "time": 163.61471600000058,
                    "velocity": 0.36220472440944884,
                    "duration": 0.5672773000000007
                },
                {
                    "name": "C#4",
                    "midi": 61,
                    "time": 163.61471600000058,
                    "velocity": 0.36220472440944884,
                    "duration": 0.5672773000000007
                },
                {
                    "name": "C#4",
                    "midi": 61,
                    "time": 164.2118500000006,
                    "velocity": 0.3858267716535433,
                    "duration": 0.5672773000000007
                },
                {
                    "name": "F3",
                    "midi": 53,
                    "time": 164.2118500000006,
                    "velocity": 0.3858267716535433,
                    "duration": 0.5672773000000007
                },
                {
                    "name": "G#3",
                    "midi": 56,
                    "time": 164.2118500000006,
                    "velocity": 0.3858267716535433,
                    "duration": 0.5672773000000007
                },
                {
                    "name": "C#4",
                    "midi": 61,
                    "time": 164.8089840000006,
                    "velocity": 0.3858267716535433,
                    "duration": 2.388535999999988
                },
                {
                    "name": "D#4",
                    "midi": 63,
                    "time": 164.8089840000006,
                    "velocity": 0.4566929133858268,
                    "duration": 2.388535999999988
                },
                {
                    "name": "G3",
                    "midi": 55,
                    "time": 164.8089840000006,
                    "velocity": 0.3858267716535433,
                    "duration": 2.388535999999988
                },
                {
                    "name": "A#3",
                    "midi": 58,
                    "time": 164.8089840000006,
                    "velocity": 0.3858267716535433,
                    "duration": 2.388535999999988
                },
                {
                    "name": "G#3",
                    "midi": 56,
                    "time": 168.3917880000006,
                    "velocity": 0.2677165354330709,
                    "duration": 0.5971340000000112
                },
                {
                    "name": "A#3",
                    "midi": 58,
                    "time": 168.9889220000006,
                    "velocity": 0.23622047244094488,
                    "duration": 0.5971340000000112
                },
                {
                    "name": "C#3",
                    "midi": 49,
                    "time": 168.9889220000006,
                    "velocity": 0.23622047244094488,
                    "duration": 0.5971340000000112
                },
                {
                    "name": "D#3",
                    "midi": 51,
                    "time": 169.5860560000006,
                    "velocity": 0.2677165354330709,
                    "duration": 2.388535999999988
                },
                {
                    "name": "C4",
                    "midi": 60,
                    "time": 169.5860560000006,
                    "velocity": 0.2677165354330709,
                    "duration": 1.194267999999994
                },
                {
                    "name": "C#4",
                    "midi": 61,
                    "time": 170.7803240000006,
                    "velocity": 0.1889763779527559,
                    "duration": 1.194267999999994
                },
                {
                    "name": "G#3",
                    "midi": 56,
                    "time": 171.9745920000006,
                    "velocity": 0.2283464566929134,
                    "duration": 1.194267999999994
                },
                {
                    "name": "C4",
                    "midi": 60,
                    "time": 171.9745920000006,
                    "velocity": 0.2677165354330709,
                    "duration": 1.194267999999994
                },
                {
                    "name": "G#2",
                    "midi": 44,
                    "time": 173.1688600000006,
                    "velocity": 0.2125984251968504,
                    "duration": 0.5971340000000112
                },
                {
                    "name": "F2",
                    "midi": 41,
                    "time": 175.5573960000006,
                    "velocity": 0.31496062992125984,
                    "duration": 0.29856699999999137
                },
                {
                    "name": "F3",
                    "midi": 53,
                    "time": 175.8559630000006,
                    "velocity": 0.2047244094488189,
                    "duration": 0.2687103000000093
                },
                {
                    "name": "F3",
                    "midi": 53,
                    "time": 176.15453000000062,
                    "velocity": 0.2283464566929134,
                    "duration": 0.2687103000000093
                },
                {
                    "name": "F3",
                    "midi": 53,
                    "time": 176.45309700000064,
                    "velocity": 0.2047244094488189,
                    "duration": 0.2687103000000093
                },
                {
                    "name": "F3",
                    "midi": 53,
                    "time": 176.75166400000066,
                    "velocity": 0.2125984251968504,
                    "duration": 0.2687103000000093
                },
                {
                    "name": "F3",
                    "midi": 53,
                    "time": 177.05023100000068,
                    "velocity": 0.18110236220472442,
                    "duration": 0.2687103000000093
                },
                {
                    "name": "F3",
                    "midi": 53,
                    "time": 177.3487980000007,
                    "velocity": 0.2047244094488189,
                    "duration": 0.2687103000000093
                },
                {
                    "name": "F3",
                    "midi": 53,
                    "time": 177.64736500000072,
                    "velocity": 0.18110236220472442,
                    "duration": 0.2687103000000093
                },
                {
                    "name": "F3",
                    "midi": 53,
                    "time": 177.94593200000074,
                    "velocity": 0.2283464566929134,
                    "duration": 0.2687103000000093
                },
                {
                    "name": "F3",
                    "midi": 53,
                    "time": 178.24449900000076,
                    "velocity": 0.1968503937007874,
                    "duration": 0.2687103000000093
                },
                {
                    "name": "F3",
                    "midi": 53,
                    "time": 178.54306600000078,
                    "velocity": 0.2125984251968504,
                    "duration": 0.2687103000000093
                },
                {
                    "name": "F3",
                    "midi": 53,
                    "time": 178.8416330000008,
                    "velocity": 0.2047244094488189,
                    "duration": 0.2687103000000093
                },
                {
                    "name": "F2",
                    "midi": 41,
                    "time": 179.14020000000082,
                    "velocity": 0.2677165354330709,
                    "duration": 0.29856699999999137
                },
                {
                    "name": "F3",
                    "midi": 53,
                    "time": 179.4387670000008,
                    "velocity": 0.2047244094488189,
                    "duration": 0.2687103000000093
                },
                {
                    "name": "F3",
                    "midi": 53,
                    "time": 179.73733400000083,
                    "velocity": 0.2125984251968504,
                    "duration": 0.2687103000000093
                },
                {
                    "name": "F3",
                    "midi": 53,
                    "time": 180.03590100000085,
                    "velocity": 0.18110236220472442,
                    "duration": 0.2687103000000093
                },
                {
                    "name": "F3",
                    "midi": 53,
                    "time": 180.33446800000087,
                    "velocity": 0.2047244094488189,
                    "duration": 0.2687103000000093
                },
                {
                    "name": "F3",
                    "midi": 53,
                    "time": 180.6330350000009,
                    "velocity": 0.18110236220472442,
                    "duration": 0.2687103000000093
                },
                {
                    "name": "F3",
                    "midi": 53,
                    "time": 180.9316020000009,
                    "velocity": 0.1968503937007874,
                    "duration": 0.2687103000000093
                },
                {
                    "name": "F3",
                    "midi": 53,
                    "time": 181.23016900000093,
                    "velocity": 0.18110236220472442,
                    "duration": 0.2687103000000093
                },
                {
                    "name": "F3",
                    "midi": 53,
                    "time": 181.52873600000095,
                    "velocity": 0.2204724409448819,
                    "duration": 0.2687103000000093
                },
                {
                    "name": "F3",
                    "midi": 53,
                    "time": 181.82730300000097,
                    "velocity": 0.2047244094488189,
                    "duration": 0.2687103000000093
                },
                {
                    "name": "F3",
                    "midi": 53,
                    "time": 182.125870000001,
                    "velocity": 0.2204724409448819,
                    "duration": 0.2687103000000093
                },
                {
                    "name": "F3",
                    "midi": 53,
                    "time": 182.424437000001,
                    "velocity": 0.2047244094488189,
                    "duration": 0.2687103000000093
                },
                {
                    "name": "E2",
                    "midi": 40,
                    "time": 182.72300400000103,
                    "velocity": 0.25984251968503935,
                    "duration": 0.29856699999999137
                },
                {
                    "name": "E3",
                    "midi": 52,
                    "time": 183.02157100000102,
                    "velocity": 0.2283464566929134,
                    "duration": 0.2687103000000093
                },
                {
                    "name": "E3",
                    "midi": 52,
                    "time": 183.32013800000104,
                    "velocity": 0.2125984251968504,
                    "duration": 0.2687103000000093
                },
                {
                    "name": "E3",
                    "midi": 52,
                    "time": 183.61870500000106,
                    "velocity": 0.2125984251968504,
                    "duration": 0.2687103000000093
                },
                {
                    "name": "E3",
                    "midi": 52,
                    "time": 183.91727200000108,
                    "velocity": 0.2204724409448819,
                    "duration": 0.2687103000000093
                },
                {
                    "name": "E3",
                    "midi": 52,
                    "time": 184.2158390000011,
                    "velocity": 0.18110236220472442,
                    "duration": 0.2687103000000093
                },
                {
                    "name": "E3",
                    "midi": 52,
                    "time": 184.51440600000112,
                    "velocity": 0.2047244094488189,
                    "duration": 0.2687103000000093
                },
                {
                    "name": "E3",
                    "midi": 52,
                    "time": 184.81297300000114,
                    "velocity": 0.1889763779527559,
                    "duration": 0.2687103000000093
                },
                {
                    "name": "E3",
                    "midi": 52,
                    "time": 185.11154000000116,
                    "velocity": 0.2283464566929134,
                    "duration": 0.2687103000000093
                },
                {
                    "name": "E3",
                    "midi": 52,
                    "time": 185.41010700000118,
                    "velocity": 0.2125984251968504,
                    "duration": 0.2687103000000093
                },
                {
                    "name": "E3",
                    "midi": 52,
                    "time": 185.7086740000012,
                    "velocity": 0.2283464566929134,
                    "duration": 0.2687103000000093
                },
                {
                    "name": "E3",
                    "midi": 52,
                    "time": 186.00724100000122,
                    "velocity": 0.2047244094488189,
                    "duration": 0.2687103000000093
                },
                {
                    "name": "F2",
                    "midi": 41,
                    "time": 186.30580800000124,
                    "velocity": 0.2283464566929134,
                    "duration": 0.29856699999999137
                },
                {
                    "name": "F3",
                    "midi": 53,
                    "time": 186.60437500000123,
                    "velocity": 0.2125984251968504,
                    "duration": 0.2687103000000093
                },
                {
                    "name": "F3",
                    "midi": 53,
                    "time": 186.90294200000125,
                    "velocity": 0.2283464566929134,
                    "duration": 0.2687103000000093
                },
                {
                    "name": "F3",
                    "midi": 53,
                    "time": 187.20150900000127,
                    "velocity": 0.2204724409448819,
                    "duration": 0.2687103000000093
                },
                {
                    "name": "F3",
                    "midi": 53,
                    "time": 187.5000760000013,
                    "velocity": 0.25984251968503935,
                    "duration": 1.194267999999994
                },
                {
                    "name": "C#4",
                    "midi": 61,
                    "time": 190.48574600000128,
                    "velocity": 0.25984251968503935,
                    "duration": 0.5672773000000007
                },
                {
                    "name": "G#3",
                    "midi": 56,
                    "time": 190.48574600000128,
                    "velocity": 0.25984251968503935,
                    "duration": 0.5672773000000007
                },
                {
                    "name": "F3",
                    "midi": 53,
                    "time": 190.48574600000128,
                    "velocity": 0.25984251968503935,
                    "duration": 0.5672773000000007
                },
                {
                    "name": "C#4",
                    "midi": 61,
                    "time": 191.0828800000013,
                    "velocity": 0.28346456692913385,
                    "duration": 0.5672773000000007
                },
                {
                    "name": "G#3",
                    "midi": 56,
                    "time": 191.0828800000013,
                    "velocity": 0.28346456692913385,
                    "duration": 0.5672773000000007
                },
                {
                    "name": "F3",
                    "midi": 53,
                    "time": 191.0828800000013,
                    "velocity": 0.28346456692913385,
                    "duration": 0.5672773000000007
                },
                {
                    "name": "C#4",
                    "midi": 61,
                    "time": 191.6800140000013,
                    "velocity": 0.31496062992125984,
                    "duration": 0.5672773000000007
                },
                {
                    "name": "G#3",
                    "midi": 56,
                    "time": 191.6800140000013,
                    "velocity": 0.31496062992125984,
                    "duration": 0.5672773000000007
                },
                {
                    "name": "F3",
                    "midi": 53,
                    "time": 191.6800140000013,
                    "velocity": 0.31496062992125984,
                    "duration": 0.5672773000000007
                },
                {
                    "name": "C#4",
                    "midi": 61,
                    "time": 192.27714800000132,
                    "velocity": 0.36220472440944884,
                    "duration": 0.5672773000000007
                },
                {
                    "name": "G#3",
                    "midi": 56,
                    "time": 192.27714800000132,
                    "velocity": 0.36220472440944884,
                    "duration": 0.5672773000000007
                },
                {
                    "name": "F3",
                    "midi": 53,
                    "time": 192.27714800000132,
                    "velocity": 0.36220472440944884,
                    "duration": 0.5672773000000007
                },
                {
                    "name": "C#4",
                    "midi": 61,
                    "time": 192.87428200000133,
                    "velocity": 0.3858267716535433,
                    "duration": 0.5672773000000007
                },
                {
                    "name": "G#3",
                    "midi": 56,
                    "time": 192.87428200000133,
                    "velocity": 0.3858267716535433,
                    "duration": 0.5672773000000007
                },
                {
                    "name": "F3",
                    "midi": 53,
                    "time": 192.87428200000133,
                    "velocity": 0.3858267716535433,
                    "duration": 0.5672773000000007
                },
                {
                    "name": "D#4",
                    "midi": 63,
                    "time": 193.47141600000134,
                    "velocity": 0.44881889763779526,
                    "duration": 2.388535999999988
                },
                {
                    "name": "C#4",
                    "midi": 61,
                    "time": 193.47141600000134,
                    "velocity": 0.3779527559055118,
                    "duration": 2.388535999999988
                },
                {
                    "name": "A#3",
                    "midi": 58,
                    "time": 193.47141600000134,
                    "velocity": 0.3779527559055118,
                    "duration": 2.388535999999988
                },
                {
                    "name": "G3",
                    "midi": 55,
                    "time": 193.47141600000134,
                    "velocity": 0.3779527559055118,
                    "duration": 2.388535999999988
                },
                {
                    "name": "G#3",
                    "midi": 56,
                    "time": 197.05422000000132,
                    "velocity": 0.2677165354330709,
                    "duration": 0.5971340000000112
                },
                {
                    "name": "C#3",
                    "midi": 49,
                    "time": 197.65135400000133,
                    "velocity": 0.23622047244094488,
                    "duration": 0.5971340000000112
                },
                {
                    "name": "A#3",
                    "midi": 58,
                    "time": 197.65135400000133,
                    "velocity": 0.23622047244094488,
                    "duration": 0.5971340000000112
                },
                {
                    "name": "D#3",
                    "midi": 51,
                    "time": 198.24848800000134,
                    "velocity": 0.2677165354330709,
                    "duration": 2.388535999999988
                },
                {
                    "name": "C4",
                    "midi": 60,
                    "time": 198.24848800000134,
                    "velocity": 0.2677165354330709,
                    "duration": 1.194267999999994
                },
                {
                    "name": "C#4",
                    "midi": 61,
                    "time": 199.44275600000134,
                    "velocity": 0.18110236220472442,
                    "duration": 1.194267999999994
                },
                {
                    "name": "G#3",
                    "midi": 56,
                    "time": 200.63702400000133,
                    "velocity": 0.2283464566929134,
                    "duration": 1.194267999999994
                },
                {
                    "name": "C4",
                    "midi": 60,
                    "time": 200.63702400000133,
                    "velocity": 0.2677165354330709,
                    "duration": 1.194267999999994
                },
                {
                    "name": "G#2",
                    "midi": 44,
                    "time": 201.83129200000133,
                    "velocity": 0.23622047244094488,
                    "duration": 0.5971340000000112
                },
                {
                    "name": "G#3",
                    "midi": 56,
                    "time": 204.81696200000133,
                    "velocity": 0.33858267716535434,
                    "duration": 0.5971340000000112
                },
                {
                    "name": "C4",
                    "midi": 60,
                    "time": 205.41409600000134,
                    "velocity": 0.3543307086614173,
                    "duration": 0.5971340000000112
                },
                {
                    "name": "D#4",
                    "midi": 63,
                    "time": 206.01123000000135,
                    "velocity": 0.3543307086614173,
                    "duration": 0.5971340000000112
                },
                {
                    "name": "F3",
                    "midi": 53,
                    "time": 206.60836400000136,
                    "velocity": 0.3700787401574803,
                    "duration": 0.5971340000000112
                },
                {
                    "name": "D4",
                    "midi": 62,
                    "time": 207.20549800000137,
                    "velocity": 0.33858267716535434,
                    "duration": 0.5971340000000112
                },
                {
                    "name": "D#3",
                    "midi": 51,
                    "time": 208.3997660000014,
                    "velocity": 0.31496062992125984,
                    "duration": 0.5971340000000112
                },
                {
                    "name": "G3",
                    "midi": 55,
                    "time": 208.9969000000014,
                    "velocity": 0.31496062992125984,
                    "duration": 0.5971340000000112
                },
                {
                    "name": "A#3",
                    "midi": 58,
                    "time": 209.59403400000141,
                    "velocity": 0.4566929133858268,
                    "duration": 0.5971340000000112
                },
                {
                    "name": "E3",
                    "midi": 52,
                    "time": 209.59403400000141,
                    "velocity": 0.4566929133858268,
                    "duration": 0.5971340000000112
                },
                {
                    "name": "G#3",
                    "midi": 56,
                    "time": 210.19116800000143,
                    "velocity": 0.4566929133858268,
                    "duration": 1.194267999999994
                },
                {
                    "name": "F3",
                    "midi": 53,
                    "time": 210.19116800000143,
                    "velocity": 0.4566929133858268,
                    "duration": 1.194267999999994
                },
                {
                    "name": "C#3",
                    "midi": 49,
                    "time": 211.98257000000143,
                    "velocity": 0.4251968503937008,
                    "duration": 2.985670000000056
                },
                {
                    "name": "F3",
                    "midi": 53,
                    "time": 212.57970400000144,
                    "velocity": 0.4094488188976378,
                    "duration": 0.5971340000000112
                },
                {
                    "name": "G#3",
                    "midi": 56,
                    "time": 213.17683800000145,
                    "velocity": 0.3543307086614173,
                    "duration": 0.5971340000000112
                },
                {
                    "name": "A#3",
                    "midi": 58,
                    "time": 213.77397200000146,
                    "velocity": 0.3543307086614173,
                    "duration": 0.5971340000000112
                },
                {
                    "name": "B3",
                    "midi": 59,
                    "time": 214.37110600000148,
                    "velocity": 0.33070866141732286,
                    "duration": 0.5971340000000112
                },
                {
                    "name": "C3",
                    "midi": 48,
                    "time": 214.9682400000015,
                    "velocity": 0.29133858267716534,
                    "duration": 1.791402000000005
                },
                {
                    "name": "C4",
                    "midi": 60,
                    "time": 214.9682400000015,
                    "velocity": 0.29133858267716534,
                    "duration": 1.791402000000005
                },
                {
                    "name": "G#2",
                    "midi": 44,
                    "time": 217.95391000000149,
                    "velocity": 0.3858267716535433,
                    "duration": 0.5971340000000112
                },
                {
                    "name": "A#2",
                    "midi": 46,
                    "time": 218.5510440000015,
                    "velocity": 0.41732283464566927,
                    "duration": 0.5971340000000112
                },
                {
                    "name": "A#3",
                    "midi": 58,
                    "time": 219.1481780000015,
                    "velocity": 0.4015748031496063,
                    "duration": 0.5971340000000112
                },
                {
                    "name": "B3",
                    "midi": 59,
                    "time": 219.74531200000152,
                    "velocity": 0.41732283464566927,
                    "duration": 0.5971340000000112
                },
                {
                    "name": "C4",
                    "midi": 60,
                    "time": 220.34244600000153,
                    "velocity": 0.4015748031496063,
                    "duration": 0.5971340000000112
                },
                {
                    "name": "C3",
                    "midi": 48,
                    "time": 221.53671400000155,
                    "velocity": 0.4409448818897638,
                    "duration": 0.5971340000000112
                },
                {
                    "name": "C#3",
                    "midi": 49,
                    "time": 222.13384800000156,
                    "velocity": 0.4566929133858268,
                    "duration": 0.5971340000000112
                },
                {
                    "name": "C#4",
                    "midi": 61,
                    "time": 222.73098200000157,
                    "velocity": 0.4566929133858268,
                    "duration": 0.5971340000000112
                },
                {
                    "name": "D#4",
                    "midi": 63,
                    "time": 223.3281160000016,
                    "velocity": 0.5118110236220472,
                    "duration": 0.5971340000000112
                },
                {
                    "name": "C4",
                    "midi": 60,
                    "time": 223.9252500000016,
                    "velocity": 0.48031496062992124,
                    "duration": 0.5672773000000007
                },
                {
                    "name": "C3",
                    "midi": 48,
                    "time": 223.9252500000016,
                    "velocity": 0.4015748031496063,
                    "duration": 0.5672773000000007
                },
                {
                    "name": "A2",
                    "midi": 45,
                    "time": 224.5223840000016,
                    "velocity": 0.3937007874015748,
                    "duration": 0.5672773000000007
                },
                {
                    "name": "A3",
                    "midi": 57,
                    "time": 224.5223840000016,
                    "velocity": 0.4645669291338583,
                    "duration": 0.5672773000000007
                },
                {
                    "name": "F2",
                    "midi": 41,
                    "time": 225.11951800000162,
                    "velocity": 0.3937007874015748,
                    "duration": 0.5672773000000007
                },
                {
                    "name": "F3",
                    "midi": 53,
                    "time": 225.11951800000162,
                    "velocity": 0.4645669291338583,
                    "duration": 0.5672773000000007
                },
                {
                    "name": "A#3",
                    "midi": 58,
                    "time": 225.71665200000163,
                    "velocity": 0.36220472440944884,
                    "duration": 1.194267999999994
                },
                {
                    "name": "A#2",
                    "midi": 46,
                    "time": 225.71665200000163,
                    "velocity": 0.36220472440944884,
                    "duration": 1.194267999999994
                },
                {
                    "name": "C4",
                    "midi": 60,
                    "time": 226.91092000000162,
                    "velocity": 0.29133858267716534,
                    "duration": 1.194267999999994
                },
                {
                    "name": "C3",
                    "midi": 48,
                    "time": 226.91092000000162,
                    "velocity": 0.29133858267716534,
                    "duration": 1.194267999999994
                },
                {
                    "name": "C3",
                    "midi": 48,
                    "time": 228.10518800000162,
                    "velocity": 0.29133858267716534,
                    "duration": 1.194267999999994
                },
                {
                    "name": "A#3",
                    "midi": 58,
                    "time": 228.10518800000162,
                    "velocity": 0.29133858267716534,
                    "duration": 1.194267999999994
                },
                {
                    "name": "G#3",
                    "midi": 56,
                    "time": 229.2994560000016,
                    "velocity": 0.29133858267716534,
                    "duration": 1.194267999999994
                },
                {
                    "name": "F3",
                    "midi": 53,
                    "time": 229.2994560000016,
                    "velocity": 0.29133858267716534,
                    "duration": 1.194267999999994
                },
                {
                    "name": "F2",
                    "midi": 41,
                    "time": 230.4937240000016,
                    "velocity": 0.23622047244094488,
                    "duration": 0.5971340000000112
                },
                {
                    "name": "G#3",
                    "midi": 56,
                    "time": 233.4793940000016,
                    "velocity": 0.3543307086614173,
                    "duration": 0.5971340000000112
                },
                {
                    "name": "C4",
                    "midi": 60,
                    "time": 234.07652800000162,
                    "velocity": 0.3779527559055118,
                    "duration": 0.5971340000000112
                },
                {
                    "name": "D#4",
                    "midi": 63,
                    "time": 234.67366200000163,
                    "velocity": 0.3543307086614173,
                    "duration": 0.5971340000000112
                },
                {
                    "name": "F3",
                    "midi": 53,
                    "time": 235.27079600000164,
                    "velocity": 0.3858267716535433,
                    "duration": 0.5971340000000112
                },
                {
                    "name": "D4",
                    "midi": 62,
                    "time": 235.86793000000165,
                    "velocity": 0.33858267716535434,
                    "duration": 0.5971340000000112
                },
                {
                    "name": "D#3",
                    "midi": 51,
                    "time": 237.06219800000167,
                    "velocity": 0.31496062992125984,
                    "duration": 0.5971340000000112
                },
                {
                    "name": "G3",
                    "midi": 55,
                    "time": 237.65933200000168,
                    "velocity": 0.31496062992125984,
                    "duration": 0.5971340000000112
                },
                {
                    "name": "E3",
                    "midi": 52,
                    "time": 238.2564660000017,
                    "velocity": 0.4566929133858268,
                    "duration": 0.5971340000000112
                },
                {
                    "name": "A#3",
                    "midi": 58,
                    "time": 238.2564660000017,
                    "velocity": 0.4566929133858268,
                    "duration": 0.5971340000000112
                },
                {
                    "name": "F3",
                    "midi": 53,
                    "time": 238.8536000000017,
                    "velocity": 0.4566929133858268,
                    "duration": 1.194267999999994
                },
                {
                    "name": "G#3",
                    "midi": 56,
                    "time": 238.8536000000017,
                    "velocity": 0.4566929133858268,
                    "duration": 1.194267999999994
                },
                {
                    "name": "C#3",
                    "midi": 49,
                    "time": 240.6450020000017,
                    "velocity": 0.4251968503937008,
                    "duration": 2.985670000000056
                },
                {
                    "name": "F3",
                    "midi": 53,
                    "time": 241.24213600000172,
                    "velocity": 0.4094488188976378,
                    "duration": 0.5971340000000112
                },
                {
                    "name": "G#3",
                    "midi": 56,
                    "time": 241.83927000000173,
                    "velocity": 0.3543307086614173,
                    "duration": 0.5971340000000112
                },
                {
                    "name": "A#3",
                    "midi": 58,
                    "time": 242.43640400000174,
                    "velocity": 0.3543307086614173,
                    "duration": 0.5971340000000112
                },
                {
                    "name": "B3",
                    "midi": 59,
                    "time": 243.03353800000176,
                    "velocity": 0.30708661417322836,
                    "duration": 0.5971340000000112
                },
                {
                    "name": "C3",
                    "midi": 48,
                    "time": 243.63067200000177,
                    "velocity": 0.29133858267716534,
                    "duration": 1.791402000000005
                },
                {
                    "name": "C4",
                    "midi": 60,
                    "time": 243.63067200000177,
                    "velocity": 0.29133858267716534,
                    "duration": 1.791402000000005
                },
                {
                    "name": "G#2",
                    "midi": 44,
                    "time": 246.61634200000177,
                    "velocity": 0.3858267716535433,
                    "duration": 0.5971340000000112
                },
                {
                    "name": "A#2",
                    "midi": 46,
                    "time": 247.21347600000178,
                    "velocity": 0.41732283464566927,
                    "duration": 0.5971340000000112
                },
                {
                    "name": "A#3",
                    "midi": 58,
                    "time": 247.8106100000018,
                    "velocity": 0.4015748031496063,
                    "duration": 0.5971340000000112
                },
                {
                    "name": "B3",
                    "midi": 59,
                    "time": 248.4077440000018,
                    "velocity": 0.41732283464566927,
                    "duration": 0.5971340000000112
                },
                {
                    "name": "C4",
                    "midi": 60,
                    "time": 249.0048780000018,
                    "velocity": 0.4015748031496063,
                    "duration": 0.5971340000000112
                },
                {
                    "name": "C3",
                    "midi": 48,
                    "time": 250.19914600000183,
                    "velocity": 0.4409448818897638,
                    "duration": 0.5971340000000112
                },
                {
                    "name": "C#3",
                    "midi": 49,
                    "time": 250.79628000000184,
                    "velocity": 0.4566929133858268,
                    "duration": 0.5971340000000112
                },
                {
                    "name": "C#4",
                    "midi": 61,
                    "time": 251.39341400000185,
                    "velocity": 0.4566929133858268,
                    "duration": 0.5971340000000112
                },
                {
                    "name": "D#4",
                    "midi": 63,
                    "time": 251.99054800000187,
                    "velocity": 0.5118110236220472,
                    "duration": 0.5971340000000112
                },
                {
                    "name": "C3",
                    "midi": 48,
                    "time": 252.58768200000188,
                    "velocity": 0.4015748031496063,
                    "duration": 0.5672773000000007
                },
                {
                    "name": "C4",
                    "midi": 60,
                    "time": 252.58768200000188,
                    "velocity": 0.48031496062992124,
                    "duration": 0.5672773000000007
                },
                {
                    "name": "A2",
                    "midi": 45,
                    "time": 253.1848160000019,
                    "velocity": 0.3937007874015748,
                    "duration": 0.5672773000000007
                },
                {
                    "name": "A3",
                    "midi": 57,
                    "time": 253.1848160000019,
                    "velocity": 0.4645669291338583,
                    "duration": 0.5672773000000007
                },
                {
                    "name": "F2",
                    "midi": 41,
                    "time": 253.7819500000019,
                    "velocity": 0.3937007874015748,
                    "duration": 0.5672773000000007
                },
                {
                    "name": "F3",
                    "midi": 53,
                    "time": 253.7819500000019,
                    "velocity": 0.4645669291338583,
                    "duration": 0.5672773000000007
                },
                {
                    "name": "A#2",
                    "midi": 46,
                    "time": 254.3790840000019,
                    "velocity": 0.36220472440944884,
                    "duration": 1.194267999999994
                },
                {
                    "name": "A#3",
                    "midi": 58,
                    "time": 254.3790840000019,
                    "velocity": 0.36220472440944884,
                    "duration": 1.194267999999994
                },
                {
                    "name": "C3",
                    "midi": 48,
                    "time": 255.5733520000019,
                    "velocity": 0.29133858267716534,
                    "duration": 1.194267999999994
                },
                {
                    "name": "C4",
                    "midi": 60,
                    "time": 255.5733520000019,
                    "velocity": 0.29133858267716534,
                    "duration": 1.194267999999994
                },
                {
                    "name": "C3",
                    "midi": 48,
                    "time": 256.7676200000019,
                    "velocity": 0.29133858267716534,
                    "duration": 1.1942680000000223
                },
                {
                    "name": "A#3",
                    "midi": 58,
                    "time": 256.7676200000019,
                    "velocity": 0.29133858267716534,
                    "duration": 1.1942680000000223
                },
                {
                    "name": "F3",
                    "midi": 53,
                    "time": 257.9618880000019,
                    "velocity": 0.29133858267716534,
                    "duration": 1.1942680000000223
                },
                {
                    "name": "G#3",
                    "midi": 56,
                    "time": 257.9618880000019,
                    "velocity": 0.29133858267716534,
                    "duration": 1.1942680000000223
                },
                {
                    "name": "F2",
                    "midi": 41,
                    "time": 259.15615600000194,
                    "velocity": 0.2204724409448819,
                    "duration": 0.5971339999999827
                },
                {
                    "name": "F2",
                    "midi": 41,
                    "time": 261.54469200000193,
                    "velocity": 0.31496062992125984,
                    "duration": 0.29856699999999137
                },
                {
                    "name": "F3",
                    "midi": 53,
                    "time": 261.8432590000019,
                    "velocity": 0.2125984251968504,
                    "duration": 0.2687103000000093
                },
                {
                    "name": "F3",
                    "midi": 53,
                    "time": 262.1418260000019,
                    "velocity": 0.2283464566929134,
                    "duration": 0.2687103000000093
                },
                {
                    "name": "F3",
                    "midi": 53,
                    "time": 262.4403930000019,
                    "velocity": 0.2204724409448819,
                    "duration": 0.2687103000000093
                },
                {
                    "name": "F3",
                    "midi": 53,
                    "time": 262.7389600000019,
                    "velocity": 0.2283464566929134,
                    "duration": 0.2687103000000093
                },
                {
                    "name": "F3",
                    "midi": 53,
                    "time": 263.0375270000019,
                    "velocity": 0.1968503937007874,
                    "duration": 0.2687103000000093
                },
                {
                    "name": "F3",
                    "midi": 53,
                    "time": 263.3360940000019,
                    "velocity": 0.2204724409448819,
                    "duration": 0.2687103000000093
                },
                {
                    "name": "F3",
                    "midi": 53,
                    "time": 263.63466100000187,
                    "velocity": 0.2047244094488189,
                    "duration": 0.2687103000000093
                },
                {
                    "name": "F3",
                    "midi": 53,
                    "time": 263.93322800000186,
                    "velocity": 0.2283464566929134,
                    "duration": 0.2687103000000093
                },
                {
                    "name": "F3",
                    "midi": 53,
                    "time": 264.23179500000185,
                    "velocity": 0.2125984251968504,
                    "duration": 0.2687103000000093
                },
                {
                    "name": "F3",
                    "midi": 53,
                    "time": 264.53036200000184,
                    "velocity": 0.2283464566929134,
                    "duration": 0.2687103000000093
                },
                {
                    "name": "F3",
                    "midi": 53,
                    "time": 264.82892900000184,
                    "velocity": 0.2125984251968504,
                    "duration": 0.2687103000000093
                },
                {
                    "name": "F2",
                    "midi": 41,
                    "time": 265.1274960000018,
                    "velocity": 0.2677165354330709,
                    "duration": 0.29856699999999137
                },
                {
                    "name": "F3",
                    "midi": 53,
                    "time": 265.4260630000018,
                    "velocity": 0.2047244094488189,
                    "duration": 0.2687103000000093
                },
                {
                    "name": "F3",
                    "midi": 53,
                    "time": 265.7246300000018,
                    "velocity": 0.2204724409448819,
                    "duration": 0.2687103000000093
                },
                {
                    "name": "F3",
                    "midi": 53,
                    "time": 266.0231970000018,
                    "velocity": 0.2047244094488189,
                    "duration": 0.2687103000000093
                },
                {
                    "name": "F3",
                    "midi": 53,
                    "time": 266.3217640000018,
                    "velocity": 0.1968503937007874,
                    "duration": 0.2687103000000093
                },
                {
                    "name": "F3",
                    "midi": 53,
                    "time": 266.6203310000018,
                    "velocity": 0.18110236220472442,
                    "duration": 0.2687103000000093
                },
                {
                    "name": "F3",
                    "midi": 53,
                    "time": 266.9188980000018,
                    "velocity": 0.2047244094488189,
                    "duration": 0.2687103000000093
                },
                {
                    "name": "F3",
                    "midi": 53,
                    "time": 267.21746500000177,
                    "velocity": 0.18110236220472442,
                    "duration": 0.2687103000000093
                },
                {
                    "name": "F3",
                    "midi": 53,
                    "time": 267.51603200000176,
                    "velocity": 0.2204724409448819,
                    "duration": 0.2687103000000093
                },
                {
                    "name": "F3",
                    "midi": 53,
                    "time": 267.81459900000175,
                    "velocity": 0.2125984251968504,
                    "duration": 0.2687103000000093
                },
                {
                    "name": "F3",
                    "midi": 53,
                    "time": 268.11316600000174,
                    "velocity": 0.2204724409448819,
                    "duration": 0.2687103000000093
                },
                {
                    "name": "F3",
                    "midi": 53,
                    "time": 268.41173300000173,
                    "velocity": 0.2125984251968504,
                    "duration": 0.2687103000000093
                },
                {
                    "name": "F2",
                    "midi": 41,
                    "time": 268.7103000000017,
                    "velocity": 0.25984251968503935,
                    "duration": 0.29856699999999137
                },
                {
                    "name": "F3",
                    "midi": 53,
                    "time": 269.0088670000017,
                    "velocity": 0.1732283464566929,
                    "duration": 0.2687103000000093
                },
                {
                    "name": "F3",
                    "midi": 53,
                    "time": 269.3074340000017,
                    "velocity": 0.2047244094488189,
                    "duration": 0.2687103000000093
                },
                {
                    "name": "F3",
                    "midi": 53,
                    "time": 269.6060010000017,
                    "velocity": 0.1889763779527559,
                    "duration": 0.2687103000000093
                },
                {
                    "name": "F3",
                    "midi": 53,
                    "time": 269.9045680000017,
                    "velocity": 0.2047244094488189,
                    "duration": 0.2687103000000093
                },
                {
                    "name": "F3",
                    "midi": 53,
                    "time": 270.2031350000017,
                    "velocity": 0.18110236220472442,
                    "duration": 0.2687103000000093
                },
                {
                    "name": "F3",
                    "midi": 53,
                    "time": 270.50170200000167,
                    "velocity": 0.2047244094488189,
                    "duration": 0.2687103000000093
                },
                {
                    "name": "F3",
                    "midi": 53,
                    "time": 270.80026900000166,
                    "velocity": 0.18110236220472442,
                    "duration": 0.2687103000000093
                },
                {
                    "name": "F3",
                    "midi": 53,
                    "time": 271.09883600000165,
                    "velocity": 0.1889763779527559,
                    "duration": 0.2687103000000093
                },
                {
                    "name": "F3",
                    "midi": 53,
                    "time": 271.39740300000165,
                    "velocity": 0.1732283464566929,
                    "duration": 0.2687103000000093
                },
                {
                    "name": "F3",
                    "midi": 53,
                    "time": 271.69597000000164,
                    "velocity": 0.1889763779527559,
                    "duration": 0.2687103000000093
                },
                {
                    "name": "F3",
                    "midi": 53,
                    "time": 271.9945370000016,
                    "velocity": 0.18110236220472442,
                    "duration": 0.2687103000000093
                },
                {
                    "name": "F3",
                    "midi": 53,
                    "time": 272.2931040000016,
                    "velocity": 0.23622047244094488,
                    "duration": 1.1942680000000223
                },
                {
                    "name": "F3",
                    "midi": 53,
                    "time": 275.87590800000163,
                    "velocity": 0.2677165354330709,
                    "duration": 2.388535999999988
                },
                {
                    "name": "A3",
                    "midi": 57,
                    "time": 275.87590800000163,
                    "velocity": 0.2677165354330709,
                    "duration": 2.388535999999988
                },
                {
                    "name": "C4",
                    "midi": 60,
                    "time": 275.87590800000163,
                    "velocity": 0.2677165354330709,
                    "duration": 2.388535999999988
                },
                {
                    "name": "C3",
                    "midi": 48,
                    "time": 278.2644440000016,
                    "velocity": 0.23622047244094488,
                    "duration": 1.1942680000000223
                },
                {
                    "name": "G3",
                    "midi": 55,
                    "time": 278.2644440000016,
                    "velocity": 0.23622047244094488,
                    "duration": 1.1942680000000223
                },
                {
                    "name": "A#3",
                    "midi": 58,
                    "time": 278.2644440000016,
                    "velocity": 0.23622047244094488,
                    "duration": 1.1942680000000223
                },
                {
                    "name": "D3",
                    "midi": 50,
                    "time": 279.45871200000164,
                    "velocity": 0.29133858267716534,
                    "duration": 1.791402000000005
                },
                {
                    "name": "A#3",
                    "midi": 58,
                    "time": 279.45871200000164,
                    "velocity": 0.29133858267716534,
                    "duration": 1.1942680000000223
                },
                {
                    "name": "A3",
                    "midi": 57,
                    "time": 280.65298000000166,
                    "velocity": 0.29133858267716534,
                    "duration": 0.5971339999999827
                },
                {
                    "name": "A2",
                    "midi": 45,
                    "time": 281.25011400000164,
                    "velocity": 0.44881889763779526,
                    "duration": 0.5971339999999827
                },
                {
                    "name": "A3",
                    "midi": 57,
                    "time": 281.25011400000164,
                    "velocity": 0.44881889763779526,
                    "duration": 0.5971339999999827
                },
                {
                    "name": "G2",
                    "midi": 43,
                    "time": 281.8472480000016,
                    "velocity": 0.4645669291338583,
                    "duration": 0.5971339999999827
                },
                {
                    "name": "G3",
                    "midi": 55,
                    "time": 281.8472480000016,
                    "velocity": 0.4645669291338583,
                    "duration": 0.5971339999999827
                },
                {
                    "name": "F2",
                    "midi": 41,
                    "time": 282.4443820000016,
                    "velocity": 0.44881889763779526,
                    "duration": 0.5971339999999827
                },
                {
                    "name": "F3",
                    "midi": 53,
                    "time": 282.4443820000016,
                    "velocity": 0.44881889763779526,
                    "duration": 0.5971339999999827
                },
                {
                    "name": "D3",
                    "midi": 50,
                    "time": 283.0415160000016,
                    "velocity": 0.3858267716535433,
                    "duration": 0.5971339999999827
                },
                {
                    "name": "D4",
                    "midi": 62,
                    "time": 283.0415160000016,
                    "velocity": 0.4409448818897638,
                    "duration": 0.5971339999999827
                },
                {
                    "name": "A#2",
                    "midi": 46,
                    "time": 283.6386500000016,
                    "velocity": 0.3779527559055118,
                    "duration": 0.5971339999999827
                },
                {
                    "name": "A#3",
                    "midi": 58,
                    "time": 283.6386500000016,
                    "velocity": 0.4251968503937008,
                    "duration": 0.5971339999999827
                },
                {
                    "name": "A2",
                    "midi": 45,
                    "time": 284.23578400000156,
                    "velocity": 0.1889763779527559,
                    "duration": 0.29856699999999137
                },
                {
                    "name": "A3",
                    "midi": 57,
                    "time": 284.23578400000156,
                    "velocity": 0.2283464566929134,
                    "duration": 0.29856699999999137
                },
                {
                    "name": "D3",
                    "midi": 50,
                    "time": 285.4300520000015,
                    "velocity": 0.2677165354330709,
                    "duration": 1.1942680000000223
                },
                {
                    "name": "C3",
                    "midi": 48,
                    "time": 286.62432000000155,
                    "velocity": 0.2125984251968504,
                    "duration": 2.388535999999988
                },
                {
                    "name": "C4",
                    "midi": 60,
                    "time": 289.01285600000153,
                    "velocity": 0.30708661417322836,
                    "duration": 1.1942680000000223
                },
                {
                    "name": "E4",
                    "midi": 64,
                    "time": 289.01285600000153,
                    "velocity": 0.30708661417322836,
                    "duration": 1.1942680000000223
                },
                {
                    "name": "B3",
                    "midi": 59,
                    "time": 290.20712400000156,
                    "velocity": 0.4015748031496063,
                    "duration": 2.388535999999988
                },
                {
                    "name": "D4",
                    "midi": 62,
                    "time": 290.20712400000156,
                    "velocity": 0.4015748031496063,
                    "duration": 2.388535999999988
                },
                {
                    "name": "F4",
                    "midi": 65,
                    "time": 290.20712400000156,
                    "velocity": 0.4015748031496063,
                    "duration": 2.388535999999988
                },
                {
                    "name": "C4",
                    "midi": 60,
                    "time": 292.59566000000154,
                    "velocity": 0.33858267716535434,
                    "duration": 1.1942680000000223
                },
                {
                    "name": "E4",
                    "midi": 64,
                    "time": 292.59566000000154,
                    "velocity": 0.33858267716535434,
                    "duration": 1.1942680000000223
                },
                {
                    "name": "D3",
                    "midi": 50,
                    "time": 293.78992800000157,
                    "velocity": 0.4015748031496063,
                    "duration": 1.1942680000000223
                },
                {
                    "name": "F3",
                    "midi": 53,
                    "time": 293.78992800000157,
                    "velocity": 0.4015748031496063,
                    "duration": 1.1942680000000223
                },
                {
                    "name": "B3",
                    "midi": 59,
                    "time": 293.78992800000157,
                    "velocity": 0.4015748031496063,
                    "duration": 1.1942680000000223
                },
                {
                    "name": "E3",
                    "midi": 52,
                    "time": 294.9841960000016,
                    "velocity": 0.29133858267716534,
                    "duration": 1.1942680000000223
                },
                {
                    "name": "G3",
                    "midi": 55,
                    "time": 294.9841960000016,
                    "velocity": 0.29133858267716534,
                    "duration": 1.1942680000000223
                },
                {
                    "name": "C4",
                    "midi": 60,
                    "time": 294.9841960000016,
                    "velocity": 0.29133858267716534,
                    "duration": 1.1942680000000223
                },
                {
                    "name": "D4",
                    "midi": 62,
                    "time": 297.9698660000016,
                    "velocity": 0.23622047244094488,
                    "duration": 0.5971339999999827
                },
                {
                    "name": "A3",
                    "midi": 57,
                    "time": 297.9698660000016,
                    "velocity": 0.23622047244094488,
                    "duration": 0.5971339999999827
                },
                {
                    "name": "F3",
                    "midi": 53,
                    "time": 297.9698660000016,
                    "velocity": 0.23622047244094488,
                    "duration": 0.5971339999999827
                },
                {
                    "name": "E4",
                    "midi": 64,
                    "time": 298.5670000000016,
                    "velocity": 0.2125984251968504,
                    "duration": 1.1942680000000223
                },
                {
                    "name": "C4",
                    "midi": 60,
                    "time": 298.5670000000016,
                    "velocity": 0.16535433070866143,
                    "duration": 1.1942680000000223
                },
                {
                    "name": "G3",
                    "midi": 55,
                    "time": 298.5670000000016,
                    "velocity": 0.16535433070866143,
                    "duration": 2.3885360000000446
                },
                {
                    "name": "F4",
                    "midi": 65,
                    "time": 299.7612680000016,
                    "velocity": 0.2283464566929134,
                    "duration": 1.1942680000000223
                },
                {
                    "name": "D4",
                    "midi": 62,
                    "time": 299.7612680000016,
                    "velocity": 0.18110236220472442,
                    "duration": 1.1942680000000223
                },
                {
                    "name": "E4",
                    "midi": 64,
                    "time": 300.95553600000164,
                    "velocity": 0.2677165354330709,
                    "duration": 1.1942680000000223
                },
                {
                    "name": "C4",
                    "midi": 60,
                    "time": 300.95553600000164,
                    "velocity": 0.2125984251968504,
                    "duration": 1.1942680000000223
                },
                {
                    "name": "C3",
                    "midi": 48,
                    "time": 302.14980400000167,
                    "velocity": 0.2283464566929134,
                    "duration": 0.5971339999999827
                },
                {
                    "name": "D#4",
                    "midi": 63,
                    "time": 304.53834000000165,
                    "velocity": 0.36220472440944884,
                    "duration": 1.791402000000005
                },
                {
                    "name": "C4",
                    "midi": 60,
                    "time": 304.53834000000165,
                    "velocity": 0.36220472440944884,
                    "duration": 1.791402000000005
                },
                {
                    "name": "D#4",
                    "midi": 63,
                    "time": 306.32974200000166,
                    "velocity": 0.36220472440944884,
                    "duration": 0.5971339999999827
                },
                {
                    "name": "C4",
                    "midi": 60,
                    "time": 306.32974200000166,
                    "velocity": 0.36220472440944884,
                    "duration": 0.5971339999999827
                },
                {
                    "name": "D4",
                    "midi": 62,
                    "time": 306.92687600000164,
                    "velocity": 0.3700787401574803,
                    "duration": 0.5971339999999827
                },
                {
                    "name": "A#3",
                    "midi": 58,
                    "time": 306.92687600000164,
                    "velocity": 0.3700787401574803,
                    "duration": 0.5971339999999827
                },
                {
                    "name": "A3",
                    "midi": 57,
                    "time": 307.5240100000016,
                    "velocity": 0.3700787401574803,
                    "duration": 0.5971339999999827
                },
                {
                    "name": "C4",
                    "midi": 60,
                    "time": 307.5240100000016,
                    "velocity": 0.3700787401574803,
                    "duration": 0.5971339999999827
                },
                {
                    "name": "D4",
                    "midi": 62,
                    "time": 307.5240100000016,
                    "velocity": 0.3700787401574803,
                    "duration": 0.5971339999999827
                },
                {
                    "name": "C4",
                    "midi": 60,
                    "time": 308.1211440000016,
                    "velocity": 0.3937007874015748,
                    "duration": 1.1942680000000223
                },
                {
                    "name": "D4",
                    "midi": 62,
                    "time": 308.1211440000016,
                    "velocity": 0.3937007874015748,
                    "duration": 1.791402000000062
                },
                {
                    "name": "G3",
                    "midi": 55,
                    "time": 308.1211440000016,
                    "velocity": 0.3937007874015748,
                    "duration": 1.791402000000062
                },
                {
                    "name": "A#3",
                    "midi": 58,
                    "time": 309.31541200000163,
                    "velocity": 0.3779527559055118,
                    "duration": 0.5374206000000186
                },
                {
                    "name": "C#4",
                    "midi": 61,
                    "time": 309.91254600000167,
                    "velocity": 0.3464566929133858,
                    "duration": 0.5971339999999827
                },
                {
                    "name": "A#3",
                    "midi": 58,
                    "time": 309.91254600000167,
                    "velocity": 0.3464566929133858,
                    "duration": 0.5971339999999827
                },
                {
                    "name": "C4",
                    "midi": 60,
                    "time": 310.50968000000165,
                    "velocity": 0.3779527559055118,
                    "duration": 0.5971339999999827
                },
                {
                    "name": "A3",
                    "midi": 57,
                    "time": 310.50968000000165,
                    "velocity": 0.3779527559055118,
                    "duration": 0.5971339999999827
                },
                {
                    "name": "G3",
                    "midi": 55,
                    "time": 311.10681400000163,
                    "velocity": 0.3543307086614173,
                    "duration": 0.5971339999999827
                },
                {
                    "name": "A#3",
                    "midi": 58,
                    "time": 311.10681400000163,
                    "velocity": 0.3543307086614173,
                    "duration": 0.5971339999999827
                },
                {
                    "name": "C4",
                    "midi": 60,
                    "time": 311.10681400000163,
                    "velocity": 0.3543307086614173,
                    "duration": 0.5971339999999827
                },
                {
                    "name": "F3",
                    "midi": 53,
                    "time": 311.7039480000016,
                    "velocity": 0.3779527559055118,
                    "duration": 0.5971339999999827
                },
                {
                    "name": "A3",
                    "midi": 57,
                    "time": 311.7039480000016,
                    "velocity": 0.3779527559055118,
                    "duration": 0.5971339999999827
                },
                {
                    "name": "C4",
                    "midi": 60,
                    "time": 311.7039480000016,
                    "velocity": 0.3779527559055118,
                    "duration": 0.5971339999999827
                },
                {
                    "name": "D3",
                    "midi": 50,
                    "time": 312.3010820000016,
                    "velocity": 0.3937007874015748,
                    "duration": 0.5971339999999827
                },
                {
                    "name": "A2",
                    "midi": 45,
                    "time": 312.8982160000016,
                    "velocity": 0.4409448818897638,
                    "duration": 1.1942680000000223
                },
                {
                    "name": "A#2",
                    "midi": 46,
                    "time": 314.0924840000016,
                    "velocity": 0.41732283464566927,
                    "duration": 0.5971339999999827
                },
                {
                    "name": "G2",
                    "midi": 43,
                    "time": 314.6896180000016,
                    "velocity": 0.36220472440944884,
                    "duration": 0.29856699999999137
                },
                {
                    "name": "C3",
                    "midi": 48,
                    "time": 315.28675200000157,
                    "velocity": 0.33858267716535434,
                    "duration": 2.388535999999988
                },
                {
                    "name": "C2",
                    "midi": 36,
                    "time": 318.8695560000016,
                    "velocity": 0.41732283464566927,
                    "duration": 0.8957009999999741
                },
                {
                    "name": "C3",
                    "midi": 48,
                    "time": 318.8695560000016,
                    "velocity": 0.5039370078740157,
                    "duration": 0.8957009999999741
                },
                {
                    "name": "D2",
                    "midi": 38,
                    "time": 319.76525700000155,
                    "velocity": 0.4015748031496063,
                    "duration": 0.29856699999999137
                },
                {
                    "name": "D3",
                    "midi": 50,
                    "time": 319.76525700000155,
                    "velocity": 0.47244094488188976,
                    "duration": 0.29856699999999137
                },
                {
                    "name": "E2",
                    "midi": 40,
                    "time": 320.06382400000155,
                    "velocity": 0.41732283464566927,
                    "duration": 0.4478505000000155
                },
                {
                    "name": "E3",
                    "midi": 52,
                    "time": 320.06382400000155,
                    "velocity": 0.5039370078740157,
                    "duration": 0.4478505000000155
                },
                {
                    "name": "F2",
                    "midi": 41,
                    "time": 320.6609580000016,
                    "velocity": 0.31496062992125984,
                    "duration": 0.4478505000000155
                },
                {
                    "name": "F3",
                    "midi": 53,
                    "time": 320.6609580000016,
                    "velocity": 0.3779527559055118,
                    "duration": 0.4478505000000155
                },
                {
                    "name": "G2",
                    "midi": 43,
                    "time": 321.2580920000016,
                    "velocity": 0.3543307086614173,
                    "duration": 0.4478505000000155
                },
                {
                    "name": "G3",
                    "midi": 55,
                    "time": 321.2580920000016,
                    "velocity": 0.41732283464566927,
                    "duration": 0.4478505000000155
                },
                {
                    "name": "A2",
                    "midi": 45,
                    "time": 321.85522600000166,
                    "velocity": 0.33070866141732286,
                    "duration": 0.4478505000000155
                },
                {
                    "name": "A3",
                    "midi": 57,
                    "time": 321.85522600000166,
                    "velocity": 0.3937007874015748,
                    "duration": 0.4478505000000155
                },
                {
                    "name": "A#2",
                    "midi": 46,
                    "time": 322.4523600000017,
                    "velocity": 0.3543307086614173,
                    "duration": 2.388535999999988
                },
                {
                    "name": "A#3",
                    "midi": 58,
                    "time": 322.4523600000017,
                    "velocity": 0.41732283464566927,
                    "duration": 2.388535999999988
                },
                {
                    "name": "F4",
                    "midi": 65,
                    "time": 326.0351640000017,
                    "velocity": 0.33858267716535434,
                    "duration": 1.1942680000000223
                },
                {
                    "name": "C4",
                    "midi": 60,
                    "time": 326.0351640000017,
                    "velocity": 0.29133858267716534,
                    "duration": 1.1942680000000223
                },
                {
                    "name": "A3",
                    "midi": 57,
                    "time": 326.0351640000017,
                    "velocity": 0.29133858267716534,
                    "duration": 1.1942680000000223
                },
                {
                    "name": "C4",
                    "midi": 60,
                    "time": 327.22943200000174,
                    "velocity": 0.29133858267716534,
                    "duration": 1.1942680000000223
                },
                {
                    "name": "F4",
                    "midi": 65,
                    "time": 327.22943200000174,
                    "velocity": 0.33858267716535434,
                    "duration": 1.1942680000000223
                },
                {
                    "name": "A3",
                    "midi": 57,
                    "time": 327.22943200000174,
                    "velocity": 0.29133858267716534,
                    "duration": 1.1942680000000223
                },
                {
                    "name": "F4",
                    "midi": 65,
                    "time": 328.42370000000176,
                    "velocity": 0.29133858267716534,
                    "duration": 1.1942680000000223
                },
                {
                    "name": "A3",
                    "midi": 57,
                    "time": 328.42370000000176,
                    "velocity": 0.25984251968503935,
                    "duration": 1.1942680000000223
                },
                {
                    "name": "D#4",
                    "midi": 63,
                    "time": 328.42370000000176,
                    "velocity": 0.29133858267716534,
                    "duration": 1.1942680000000223
                },
                {
                    "name": "D4",
                    "midi": 62,
                    "time": 329.6179680000018,
                    "velocity": 0.2204724409448819,
                    "duration": 2.388535999999988
                },
                {
                    "name": "A#3",
                    "midi": 58,
                    "time": 329.6179680000018,
                    "velocity": 0.2204724409448819,
                    "duration": 2.388535999999988
                },
                {
                    "name": "F4",
                    "midi": 65,
                    "time": 329.6179680000018,
                    "velocity": 0.28346456692913385,
                    "duration": 2.388535999999988
                },
                {
                    "name": "A#3",
                    "midi": 58,
                    "time": 333.2007720000018,
                    "velocity": 0.2204724409448819,
                    "duration": 1.1942680000000223
                },
                {
                    "name": "F3",
                    "midi": 53,
                    "time": 333.2007720000018,
                    "velocity": 0.2204724409448819,
                    "duration": 2.3885360000000446
                },
                {
                    "name": "D4",
                    "midi": 62,
                    "time": 333.2007720000018,
                    "velocity": 0.2755905511811024,
                    "duration": 1.1942680000000223
                },
                {
                    "name": "A3",
                    "midi": 57,
                    "time": 334.3950400000018,
                    "velocity": 0.2047244094488189,
                    "duration": 1.1942680000000223
                },
                {
                    "name": "C4",
                    "midi": 60,
                    "time": 334.3950400000018,
                    "velocity": 0.25984251968503935,
                    "duration": 1.1942680000000223
                },
                {
                    "name": "G3",
                    "midi": 55,
                    "time": 336.78357600000186,
                    "velocity": 0.33858267716535434,
                    "duration": 1.791402000000005
                },
                {
                    "name": "C4",
                    "midi": 60,
                    "time": 336.78357600000186,
                    "velocity": 0.33858267716535434,
                    "duration": 1.791402000000005
                },
                {
                    "name": "E3",
                    "midi": 52,
                    "time": 336.78357600000186,
                    "velocity": 0.33858267716535434,
                    "duration": 1.791402000000005
                },
                {
                    "name": "A#2",
                    "midi": 46,
                    "time": 338.57497800000186,
                    "velocity": 0.33070866141732286,
                    "duration": 0.5971339999999827
                },
                {
                    "name": "A#3",
                    "midi": 58,
                    "time": 338.57497800000186,
                    "velocity": 0.3779527559055118,
                    "duration": 0.5971339999999827
                },
                {
                    "name": "A3",
                    "midi": 57,
                    "time": 339.17211200000185,
                    "velocity": 0.3937007874015748,
                    "duration": 0.5971339999999827
                },
                {
                    "name": "A2",
                    "midi": 45,
                    "time": 339.17211200000185,
                    "velocity": 0.3464566929133858,
                    "duration": 0.5971339999999827
                },
                {
                    "name": "G2",
                    "midi": 43,
                    "time": 339.76924600000183,
                    "velocity": 0.3464566929133858,
                    "duration": 0.5971339999999827
                },
                {
                    "name": "G3",
                    "midi": 55,
                    "time": 339.76924600000183,
                    "velocity": 0.3937007874015748,
                    "duration": 0.5971339999999827
                },
                {
                    "name": "F2",
                    "midi": 41,
                    "time": 340.3663800000018,
                    "velocity": 0.3858267716535433,
                    "duration": 0.5971339999999827
                },
                {
                    "name": "F3",
                    "midi": 53,
                    "time": 340.3663800000018,
                    "velocity": 0.4251968503937008,
                    "duration": 0.5971339999999827
                },
                {
                    "name": "A3",
                    "midi": 57,
                    "time": 341.5606480000018,
                    "velocity": 0.29133858267716534,
                    "duration": 1.1942680000000223
                },
                {
                    "name": "C3",
                    "midi": 48,
                    "time": 341.5606480000018,
                    "velocity": 0.2283464566929134,
                    "duration": 2.3885360000000446
                },
                {
                    "name": "A#3",
                    "midi": 58,
                    "time": 342.7549160000018,
                    "velocity": 0.2283464566929134,
                    "duration": 1.1942680000000223
                },
                {
                    "name": "F3",
                    "midi": 53,
                    "time": 343.9491840000018,
                    "velocity": 0.25984251968503935,
                    "duration": 1.1942680000000223
                },
                {
                    "name": "A3",
                    "midi": 57,
                    "time": 343.9491840000018,
                    "velocity": 0.25984251968503935,
                    "duration": 1.1942680000000223
                },
                {
                    "name": "F2",
                    "midi": 41,
                    "time": 345.14345200000184,
                    "velocity": 0.2283464566929134,
                    "duration": 0.5971339999999827
                },
                {
                    "name": "F2",
                    "midi": 41,
                    "time": 347.53198800000183,
                    "velocity": 0.31496062992125984,
                    "duration": 0.29856699999999137
                },
                {
                    "name": "F3",
                    "midi": 53,
                    "time": 347.8305550000018,
                    "velocity": 0.2204724409448819,
                    "duration": 0.2687103000000093
                },
                {
                    "name": "F3",
                    "midi": 53,
                    "time": 348.1291220000018,
                    "velocity": 0.2283464566929134,
                    "duration": 0.2687103000000093
                },
                {
                    "name": "F3",
                    "midi": 53,
                    "time": 348.4276890000018,
                    "velocity": 0.2204724409448819,
                    "duration": 0.2687103000000093
                },
                {
                    "name": "F3",
                    "midi": 53,
                    "time": 348.7262560000018,
                    "velocity": 0.25196850393700787,
                    "duration": 0.2687103000000093
                },
                {
                    "name": "F3",
                    "midi": 53,
                    "time": 349.0248230000018,
                    "velocity": 0.2283464566929134,
                    "duration": 0.2687103000000093
                },
                {
                    "name": "F3",
                    "midi": 53,
                    "time": 349.3233900000018,
                    "velocity": 0.2283464566929134,
                    "duration": 0.2687103000000093
                },
                {
                    "name": "F3",
                    "midi": 53,
                    "time": 349.62195700000177,
                    "velocity": 0.2204724409448819,
                    "duration": 0.2687103000000093
                },
                {
                    "name": "F3",
                    "midi": 53,
                    "time": 349.92052400000176,
                    "velocity": 0.25196850393700787,
                    "duration": 0.2687103000000093
                },
                {
                    "name": "F3",
                    "midi": 53,
                    "time": 350.21909100000175,
                    "velocity": 0.2283464566929134,
                    "duration": 0.2687103000000093
                },
                {
                    "name": "F3",
                    "midi": 53,
                    "time": 350.51765800000175,
                    "velocity": 0.23622047244094488,
                    "duration": 0.2687103000000093
                },
                {
                    "name": "F3",
                    "midi": 53,
                    "time": 350.81622500000174,
                    "velocity": 0.2204724409448819,
                    "duration": 0.2687103000000093
                },
                {
                    "name": "F2",
                    "midi": 41,
                    "time": 351.1147920000017,
                    "velocity": 0.31496062992125984,
                    "duration": 0.29856699999999137
                },
                {
                    "name": "F3",
                    "midi": 53,
                    "time": 351.4133590000017,
                    "velocity": 0.2204724409448819,
                    "duration": 0.2687103000000093
                },
                {
                    "name": "F3",
                    "midi": 53,
                    "time": 351.7119260000017,
                    "velocity": 0.2440944881889764,
                    "duration": 0.2687103000000093
                },
                {
                    "name": "F3",
                    "midi": 53,
                    "time": 352.0104930000017,
                    "velocity": 0.2204724409448819,
                    "duration": 0.2687103000000093
                },
                {
                    "name": "D2",
                    "midi": 38,
                    "time": 352.3090600000017,
                    "velocity": 0.3779527559055118,
                    "duration": 0.29856699999999137
                },
                {
                    "name": "D3",
                    "midi": 50,
                    "time": 352.6076270000017,
                    "velocity": 0.25984251968503935,
                    "duration": 0.2687103000000093
                },
                {
                    "name": "D3",
                    "midi": 50,
                    "time": 352.9061940000017,
                    "velocity": 0.29133858267716534,
                    "duration": 0.2687103000000093
                },
                {
                    "name": "D3",
                    "midi": 50,
                    "time": 353.20476100000167,
                    "velocity": 0.25984251968503935,
                    "duration": 0.2687103000000093
                },
                {
                    "name": "B1",
                    "midi": 35,
                    "time": 353.50332800000166,
                    "velocity": 0.3937007874015748,
                    "duration": 0.29856699999999137
                },
                {
                    "name": "B2",
                    "midi": 47,
                    "time": 353.80189500000165,
                    "velocity": 0.2992125984251969,
                    "duration": 0.2687103000000093
                },
                {
                    "name": "B2",
                    "midi": 47,
                    "time": 354.10046200000164,
                    "velocity": 0.33070866141732286,
                    "duration": 0.2687103000000093
                },
                {
                    "name": "B2",
                    "midi": 47,
                    "time": 354.39902900000163,
                    "velocity": 0.2992125984251969,
                    "duration": 0.2687103000000093
                },
                {
                    "name": "C2",
                    "midi": 36,
                    "time": 354.6975960000016,
                    "velocity": 0.25984251968503935,
                    "duration": 0.29856699999999137
                },
                {
                    "name": "C3",
                    "midi": 48,
                    "time": 354.9961630000016,
                    "velocity": 0.2047244094488189,
                    "duration": 0.2687103000000093
                },
                {
                    "name": "C3",
                    "midi": 48,
                    "time": 355.2947300000016,
                    "velocity": 0.2204724409448819,
                    "duration": 0.2687103000000093
                },
                {
                    "name": "C3",
                    "midi": 48,
                    "time": 355.5932970000016,
                    "velocity": 0.2047244094488189,
                    "duration": 0.2687103000000093
                },
                {
                    "name": "C3",
                    "midi": 48,
                    "time": 355.8918640000016,
                    "velocity": 0.23622047244094488,
                    "duration": 0.2687103000000093
                },
                {
                    "name": "C3",
                    "midi": 48,
                    "time": 356.1904310000016,
                    "velocity": 0.1732283464566929,
                    "duration": 0.2687103000000093
                },
                {
                    "name": "C3",
                    "midi": 48,
                    "time": 356.4889980000016,
                    "velocity": 0.1968503937007874,
                    "duration": 0.2687103000000093
                },
                {
                    "name": "C3",
                    "midi": 48,
                    "time": 356.78756500000156,
                    "velocity": 0.18110236220472442,
                    "duration": 0.2687103000000093
                },
                {
                    "name": "C3",
                    "midi": 48,
                    "time": 357.08613200000156,
                    "velocity": 0.2204724409448819,
                    "duration": 0.2687103000000093
                },
                {
                    "name": "C3",
                    "midi": 48,
                    "time": 357.38469900000155,
                    "velocity": 0.1889763779527559,
                    "duration": 0.2687103000000093
                },
                {
                    "name": "C3",
                    "midi": 48,
                    "time": 357.68326600000154,
                    "velocity": 0.2047244094488189,
                    "duration": 0.2687103000000093
                },
                {
                    "name": "C3",
                    "midi": 48,
                    "time": 357.98183300000153,
                    "velocity": 0.1889763779527559,
                    "duration": 0.2687103000000093
                },
                {
                    "name": "F2",
                    "midi": 41,
                    "time": 358.2804000000015,
                    "velocity": 0.2204724409448819,
                    "duration": 1.1942680000000223
                }
            ],
            "controlChanges": {
                "7": [
                    {
                        "number": 7,
                        "time": 0,
                        "value": 0.7874015748031497
                    }
                ],
                "10": [
                    {
                        "number": 10,
                        "time": 0,
                        "value": 0.5039370078740157
                    }
                ],
                "91": [
                    {
                        "number": 91,
                        "time": 1.1942679999999999,
                        "value": 1
                    },
                    {
                        "number": 91,
                        "time": 59.116265999999996,
                        "value": 1
                    },
                    {
                        "number": 91,
                        "time": 102.10991399999989,
                        "value": 1
                    },
                    {
                        "number": 91,
                        "time": 145.10356199999987,
                        "value": 1
                    },
                    {
                        "number": 91,
                        "time": 173.7659940000006,
                        "value": 1
                    },
                    {
                        "number": 91,
                        "time": 202.42842600000134,
                        "value": 1
                    },
                    {
                        "number": 91,
                        "time": 231.09085800000162,
                        "value": 1
                    },
                    {
                        "number": 91,
                        "time": 259.7532900000019,
                        "value": 1
                    },
                    {
                        "number": 91,
                        "time": 302.74693800000165,
                        "value": 1
                    },
                    {
                        "number": 91,
                        "time": 345.7405860000018,
                        "value": 1
                    }
                ]
            },
            "id": 2,
            "name": "Piano left",
            "instrumentNumber": 0,
            "instrument": "acoustic grand piano",
            "instrumentFamily": "piano",
            "channelNumber": 0,
            "isPercussion": false
        },
        {
            "startTime": 0,
            "duration": 0,
            "length": 0,
            "notes": [],
            "controlChanges": {
                "64": [
                    {
                        "number": 64,
                        "time": 0,
                        "value": 0
                    },
                    {
                        "number": 64,
                        "time": 1.9332213249999997,
                        "value": 1
                    },
                    {
                        "number": 64,
                        "time": 3.610172641666666,
                        "value": 0
                    },
                    {
                        "number": 64,
                        "time": 3.662421866666666,
                        "value": 1
                    },
                    {
                        "number": 64,
                        "time": 4.202330524999999,
                        "value": 0
                    },
                    {
                        "number": 64,
                        "time": 4.279460333333332,
                        "value": 1
                    },
                    {
                        "number": 64,
                        "time": 4.884058508333331,
                        "value": 0
                    },
                    {
                        "number": 64,
                        "time": 6.100719033333331,
                        "value": 1
                    },
                    {
                        "number": 64,
                        "time": 7.175560233333331,
                        "value": 0
                    },
                    {
                        "number": 64,
                        "time": 7.658243549999998,
                        "value": 1
                    },
                    {
                        "number": 64,
                        "time": 8.392220758333332,
                        "value": 0
                    },
                    {
                        "number": 64,
                        "time": 8.710692224999999,
                        "value": 1
                    },
                    {
                        "number": 64,
                        "time": 9.601417108333333,
                        "value": 0
                    },
                    {
                        "number": 64,
                        "time": 9.870127408333333,
                        "value": 1
                    },
                    {
                        "number": 64,
                        "time": 10.1811347,
                        "value": 0
                    },
                    {
                        "number": 64,
                        "time": 10.397595775,
                        "value": 1
                    },
                    {
                        "number": 64,
                        "time": 10.768316466666667,
                        "value": 0
                    },
                    {
                        "number": 64,
                        "time": 10.949944725,
                        "value": 1
                    },
                    {
                        "number": 64,
                        "time": 11.982488933333332,
                        "value": 0
                    },
                    {
                        "number": 64,
                        "time": 13.321064316666666,
                        "value": 1
                    },
                    {
                        "number": 64,
                        "time": 14.353608524999999,
                        "value": 0
                    },
                    {
                        "number": 64,
                        "time": 14.445666683333332,
                        "value": 1
                    },
                    {
                        "number": 64,
                        "time": 15.567780991666666,
                        "value": 0
                    },
                    {
                        "number": 64,
                        "time": 15.692183908333332,
                        "value": 1
                    },
                    {
                        "number": 64,
                        "time": 16.727216175,
                        "value": 0
                    },
                    {
                        "number": 64,
                        "time": 16.966069774999998,
                        "value": 1
                    },
                    {
                        "number": 64,
                        "time": 17.642821641666664,
                        "value": 0
                    },
                    {
                        "number": 64,
                        "time": 17.792105141666664,
                        "value": 1
                    },
                    {
                        "number": 64,
                        "time": 20.332412699999995,
                        "value": 0
                    },
                    {
                        "number": 64,
                        "time": 20.53145736666666,
                        "value": 1
                    },
                    {
                        "number": 64,
                        "time": 21.28285098333333,
                        "value": 0
                    },
                    {
                        "number": 64,
                        "time": 21.362468849999996,
                        "value": 1
                    },
                    {
                        "number": 64,
                        "time": 22.723436758333328,
                        "value": 0
                    },
                    {
                        "number": 64,
                        "time": 25.706618699999993,
                        "value": 1
                    },
                    {
                        "number": 64,
                        "time": 26.306240758333328,
                        "value": 0
                    },
                    {
                        "number": 64,
                        "time": 26.62968834166666,
                        "value": 1
                    },
                    {
                        "number": 64,
                        "time": 27.507972933333328,
                        "value": 0
                    },
                    {
                        "number": 64,
                        "time": 27.682137016666662,
                        "value": 1
                    },
                    {
                        "number": 64,
                        "time": 28.704728991666663,
                        "value": 0
                    },
                    {
                        "number": 64,
                        "time": 29.013248224999995,
                        "value": 1
                    },
                    {
                        "number": 64,
                        "time": 29.901485049999994,
                        "value": 0
                    },
                    {
                        "number": 64,
                        "time": 30.595653324999994,
                        "value": 1
                    },
                    {
                        "number": 64,
                        "time": 32.275092699999995,
                        "value": 0
                    },
                    {
                        "number": 64,
                        "time": 32.324853866666665,
                        "value": 1
                    },
                    {
                        "number": 64,
                        "time": 32.86725058333333,
                        "value": 0
                    },
                    {
                        "number": 64,
                        "time": 32.94438039166666,
                        "value": 1
                    },
                    {
                        "number": 64,
                        "time": 33.54897856666666,
                        "value": 0
                    },
                    {
                        "number": 64,
                        "time": 34.76315103333333,
                        "value": 1
                    },
                    {
                        "number": 64,
                        "time": 35.840480291666665,
                        "value": 0
                    },
                    {
                        "number": 64,
                        "time": 36.32067555,
                        "value": 1
                    },
                    {
                        "number": 64,
                        "time": 37.05714081666667,
                        "value": 0
                    },
                    {
                        "number": 64,
                        "time": 37.37561228333333,
                        "value": 1
                    },
                    {
                        "number": 64,
                        "time": 38.266337166666666,
                        "value": 0
                    },
                    {
                        "number": 64,
                        "time": 38.53504746666667,
                        "value": 1
                    },
                    {
                        "number": 64,
                        "time": 38.84605475833334,
                        "value": 0
                    },
                    {
                        "number": 64,
                        "time": 39.062515833333336,
                        "value": 1
                    },
                    {
                        "number": 64,
                        "time": 39.433236525000005,
                        "value": 0
                    },
                    {
                        "number": 64,
                        "time": 39.61486478333334,
                        "value": 1
                    },
                    {
                        "number": 64,
                        "time": 40.64740899166667,
                        "value": 0
                    },
                    {
                        "number": 64,
                        "time": 41.98598437500001,
                        "value": 1
                    },
                    {
                        "number": 64,
                        "time": 43.01852858333334,
                        "value": 0
                    },
                    {
                        "number": 64,
                        "time": 43.11058674166667,
                        "value": 1
                    },
                    {
                        "number": 64,
                        "time": 44.23270105,
                        "value": 0
                    },
                    {
                        "number": 64,
                        "time": 44.35710396666667,
                        "value": 1
                    },
                    {
                        "number": 64,
                        "time": 45.40706458333334,
                        "value": 0
                    },
                    {
                        "number": 64,
                        "time": 45.57625255000001,
                        "value": 1
                    },
                    {
                        "number": 64,
                        "time": 46.30774170000001,
                        "value": 0
                    },
                    {
                        "number": 64,
                        "time": 46.45453714166668,
                        "value": 1
                    },
                    {
                        "number": 64,
                        "time": 49.00728499166668,
                        "value": 0
                    },
                    {
                        "number": 64,
                        "time": 49.136664025000016,
                        "value": 1
                    },
                    {
                        "number": 64,
                        "time": 49.947771041666684,
                        "value": 0
                    },
                    {
                        "number": 64,
                        "time": 50.024900850000016,
                        "value": 1
                    },
                    {
                        "number": 64,
                        "time": 51.38835681666668,
                        "value": 0
                    },
                    {
                        "number": 64,
                        "time": 54.46857303333334,
                        "value": 1
                    },
                    {
                        "number": 64,
                        "time": 54.971160816666675,
                        "value": 0
                    },
                    {
                        "number": 64,
                        "time": 55.29460840000001,
                        "value": 1
                    },
                    {
                        "number": 64,
                        "time": 56.17289299166667,
                        "value": 0
                    },
                    {
                        "number": 64,
                        "time": 56.34456901666667,
                        "value": 1
                    },
                    {
                        "number": 64,
                        "time": 57.36964905,
                        "value": 0
                    },
                    {
                        "number": 64,
                        "time": 57.678168283333335,
                        "value": 1
                    },
                    {
                        "number": 64,
                        "time": 58.566405108333335,
                        "value": 0
                    },
                    {
                        "number": 64,
                        "time": 60.997238100000004,
                        "value": 1
                    },
                    {
                        "number": 64,
                        "time": 62.12184046666667,
                        "value": 0
                    },
                    {
                        "number": 64,
                        "time": 62.233803091666665,
                        "value": 1
                    },
                    {
                        "number": 64,
                        "time": 63.31610846666666,
                        "value": 0
                    },
                    {
                        "number": 64,
                        "time": 63.41065468333333,
                        "value": 1
                    },
                    {
                        "number": 64,
                        "time": 63.92070664166666,
                        "value": 0
                    },
                    {
                        "number": 64,
                        "time": 64.0426215,
                        "value": 1
                    },
                    {
                        "number": 64,
                        "time": 64.51535258333332,
                        "value": 0
                    },
                    {
                        "number": 64,
                        "time": 64.61487491666666,
                        "value": 1
                    },
                    {
                        "number": 64,
                        "time": 65.71957281666667,
                        "value": 0
                    },
                    {
                        "number": 64,
                        "time": 65.81660709166667,
                        "value": 1
                    },
                    {
                        "number": 64,
                        "time": 66.29929040833333,
                        "value": 0
                    },
                    {
                        "number": 64,
                        "time": 66.423693325,
                        "value": 1
                    },
                    {
                        "number": 64,
                        "time": 66.91384081666666,
                        "value": 0
                    },
                    {
                        "number": 64,
                        "time": 66.99345868333333,
                        "value": 1
                    },
                    {
                        "number": 64,
                        "time": 67.51097481666666,
                        "value": 0
                    },
                    {
                        "number": 64,
                        "time": 67.60054491666666,
                        "value": 1
                    },
                    {
                        "number": 64,
                        "time": 68.08820435,
                        "value": 0
                    },
                    {
                        "number": 64,
                        "time": 68.230023675,
                        "value": 1
                    },
                    {
                        "number": 64,
                        "time": 68.68533835,
                        "value": 0
                    },
                    {
                        "number": 64,
                        "time": 68.827157675,
                        "value": 1
                    },
                    {
                        "number": 64,
                        "time": 69.30984099166666,
                        "value": 0
                    },
                    {
                        "number": 64,
                        "time": 69.56611099999999,
                        "value": 1
                    },
                    {
                        "number": 64,
                        "time": 70.51157316666666,
                        "value": 0
                    },
                    {
                        "number": 64,
                        "time": 70.66085666666666,
                        "value": 1
                    },
                    {
                        "number": 64,
                        "time": 71.096266875,
                        "value": 0
                    },
                    {
                        "number": 64,
                        "time": 71.28784736666667,
                        "value": 1
                    },
                    {
                        "number": 64,
                        "time": 71.67598446666666,
                        "value": 0
                    },
                    {
                        "number": 64,
                        "time": 71.902397775,
                        "value": 1
                    },
                    {
                        "number": 64,
                        "time": 72.89015693333333,
                        "value": 0
                    },
                    {
                        "number": 64,
                        "time": 73.693799775,
                        "value": 1
                    },
                    {
                        "number": 64,
                        "time": 75.26625264166667,
                        "value": 0
                    },
                    {
                        "number": 64,
                        "time": 75.34587050833333,
                        "value": 1
                    },
                    {
                        "number": 64,
                        "time": 76.470472875,
                        "value": 0
                    },
                    {
                        "number": 64,
                        "time": 77.15468891666667,
                        "value": 1
                    },
                    {
                        "number": 64,
                        "time": 77.66722893333333,
                        "value": 0
                    },
                    {
                        "number": 64,
                        "time": 77.78665573333333,
                        "value": 1
                    },
                    {
                        "number": 64,
                        "time": 78.24197040833333,
                        "value": 0
                    },
                    {
                        "number": 64,
                        "time": 78.33900468333333,
                        "value": 1
                    },
                    {
                        "number": 64,
                        "time": 78.844080525,
                        "value": 0
                    },
                    {
                        "number": 64,
                        "time": 79.27700267499999,
                        "value": 1
                    },
                    {
                        "number": 64,
                        "time": 80.053276875,
                        "value": 0
                    },
                    {
                        "number": 64,
                        "time": 80.92658535,
                        "value": 1
                    },
                    {
                        "number": 64,
                        "time": 82.40449199999999,
                        "value": 0
                    },
                    {
                        "number": 64,
                        "time": 82.47664569166666,
                        "value": 1
                    },
                    {
                        "number": 64,
                        "time": 83.6286167,
                        "value": 0
                    },
                    {
                        "number": 64,
                        "time": 83.70077039166667,
                        "value": 1
                    },
                    {
                        "number": 64,
                        "time": 84.82537275833333,
                        "value": 0
                    },
                    {
                        "number": 64,
                        "time": 84.87762198333333,
                        "value": 1
                    },
                    {
                        "number": 64,
                        "time": 85.4200187,
                        "value": 0
                    },
                    {
                        "number": 64,
                        "time": 85.4797321,
                        "value": 1
                    },
                    {
                        "number": 64,
                        "time": 86.00222435,
                        "value": 0
                    },
                    {
                        "number": 64,
                        "time": 86.35552863333334,
                        "value": 1
                    },
                    {
                        "number": 64,
                        "time": 87.21639681666667,
                        "value": 0
                    },
                    {
                        "number": 64,
                        "time": 89.66713427500001,
                        "value": 1
                    },
                    {
                        "number": 64,
                        "time": 90.79173664166667,
                        "value": 0
                    },
                    {
                        "number": 64,
                        "time": 90.92360373333334,
                        "value": 1
                    },
                    {
                        "number": 64,
                        "time": 93.17280846666667,
                        "value": 0
                    },
                    {
                        "number": 64,
                        "time": 93.27730691666666,
                        "value": 1
                    },
                    {
                        "number": 64,
                        "time": 94.07846169999999,
                        "value": 0
                    },
                    {
                        "number": 64,
                        "time": 95.07617309166666,
                        "value": 1
                    },
                    {
                        "number": 64,
                        "time": 95.563832525,
                        "value": 0
                    },
                    {
                        "number": 64,
                        "time": 95.6310101,
                        "value": 1
                    },
                    {
                        "number": 64,
                        "time": 96.18087099166667,
                        "value": 0
                    },
                    {
                        "number": 64,
                        "time": 96.29780973333334,
                        "value": 1
                    },
                    {
                        "number": 64,
                        "time": 96.5864245,
                        "value": 0
                    },
                    {
                        "number": 64,
                        "time": 98.12404455000001,
                        "value": 1
                    },
                    {
                        "number": 64,
                        "time": 99.05457836666668,
                        "value": 0
                    },
                    {
                        "number": 64,
                        "time": 99.28347973333334,
                        "value": 1
                    },
                    {
                        "number": 64,
                        "time": 100.33592840833333,
                        "value": 0
                    },
                    {
                        "number": 64,
                        "time": 100.52999695833333,
                        "value": 1
                    },
                    {
                        "number": 64,
                        "time": 101.88101263333333,
                        "value": 0
                    },
                    {
                        "number": 64,
                        "time": 103.9908861,
                        "value": 1
                    },
                    {
                        "number": 64,
                        "time": 105.117976525,
                        "value": 0
                    },
                    {
                        "number": 64,
                        "time": 105.22993915,
                        "value": 1
                    },
                    {
                        "number": 64,
                        "time": 106.31224452500001,
                        "value": 0
                    },
                    {
                        "number": 64,
                        "time": 106.40679074166668,
                        "value": 1
                    },
                    {
                        "number": 64,
                        "time": 106.91684270000002,
                        "value": 0
                    },
                    {
                        "number": 64,
                        "time": 107.03875755833334,
                        "value": 1
                    },
                    {
                        "number": 64,
                        "time": 107.51148864166667,
                        "value": 0
                    },
                    {
                        "number": 64,
                        "time": 107.60852291666667,
                        "value": 1
                    },
                    {
                        "number": 64,
                        "time": 108.715708875,
                        "value": 0
                    },
                    {
                        "number": 64,
                        "time": 108.81274315,
                        "value": 1
                    },
                    {
                        "number": 64,
                        "time": 109.29542646666667,
                        "value": 0
                    },
                    {
                        "number": 64,
                        "time": 109.417341325,
                        "value": 1
                    },
                    {
                        "number": 64,
                        "time": 109.909976875,
                        "value": 0
                    },
                    {
                        "number": 64,
                        "time": 109.98959474166666,
                        "value": 1
                    },
                    {
                        "number": 64,
                        "time": 110.507110875,
                        "value": 0
                    },
                    {
                        "number": 64,
                        "time": 110.59419291666666,
                        "value": 1
                    },
                    {
                        "number": 64,
                        "time": 111.08434040833332,
                        "value": 0
                    },
                    {
                        "number": 64,
                        "time": 111.22615973333332,
                        "value": 1
                    },
                    {
                        "number": 64,
                        "time": 111.68147440833332,
                        "value": 0
                    },
                    {
                        "number": 64,
                        "time": 111.82329373333332,
                        "value": 1
                    },
                    {
                        "number": 64,
                        "time": 112.30597704999998,
                        "value": 0
                    },
                    {
                        "number": 64,
                        "time": 112.56224705833331,
                        "value": 1
                    },
                    {
                        "number": 64,
                        "time": 113.50770922499999,
                        "value": 0
                    },
                    {
                        "number": 64,
                        "time": 113.65699272499998,
                        "value": 1
                    },
                    {
                        "number": 64,
                        "time": 114.09240293333332,
                        "value": 0
                    },
                    {
                        "number": 64,
                        "time": 114.28149536666665,
                        "value": 1
                    },
                    {
                        "number": 64,
                        "time": 114.67212052499998,
                        "value": 0
                    },
                    {
                        "number": 64,
                        "time": 114.89853383333332,
                        "value": 1
                    },
                    {
                        "number": 64,
                        "time": 115.88629299166665,
                        "value": 0
                    },
                    {
                        "number": 64,
                        "time": 116.68993583333332,
                        "value": 1
                    },
                    {
                        "number": 64,
                        "time": 118.26238869999999,
                        "value": 0
                    },
                    {
                        "number": 64,
                        "time": 118.33951850833333,
                        "value": 1
                    },
                    {
                        "number": 64,
                        "time": 119.46660893333333,
                        "value": 0
                    },
                    {
                        "number": 64,
                        "time": 120.14833691666666,
                        "value": 1
                    },
                    {
                        "number": 64,
                        "time": 120.66336499166667,
                        "value": 0
                    },
                    {
                        "number": 64,
                        "time": 120.78030373333334,
                        "value": 1
                    },
                    {
                        "number": 64,
                        "time": 121.23810646666668,
                        "value": 0
                    },
                    {
                        "number": 64,
                        "time": 121.33514074166668,
                        "value": 1
                    },
                    {
                        "number": 64,
                        "time": 121.84021658333334,
                        "value": 0
                    },
                    {
                        "number": 64,
                        "time": 122.27313873333334,
                        "value": 1
                    },
                    {
                        "number": 64,
                        "time": 123.04941293333334,
                        "value": 0
                    },
                    {
                        "number": 64,
                        "time": 123.92023335,
                        "value": 1
                    },
                    {
                        "number": 64,
                        "time": 125.40062805833334,
                        "value": 0
                    },
                    {
                        "number": 64,
                        "time": 125.47278175000001,
                        "value": 1
                    },
                    {
                        "number": 64,
                        "time": 126.62475275833334,
                        "value": 0
                    },
                    {
                        "number": 64,
                        "time": 126.69441839166667,
                        "value": 1
                    },
                    {
                        "number": 64,
                        "time": 127.82150881666668,
                        "value": 0
                    },
                    {
                        "number": 64,
                        "time": 127.87375804166668,
                        "value": 1
                    },
                    {
                        "number": 64,
                        "time": 128.41615475833333,
                        "value": 0
                    },
                    {
                        "number": 64,
                        "time": 128.4733801,
                        "value": 1
                    },
                    {
                        "number": 64,
                        "time": 128.99836040833335,
                        "value": 0
                    },
                    {
                        "number": 64,
                        "time": 129.35166469166668,
                        "value": 1
                    },
                    {
                        "number": 64,
                        "time": 130.21253287500002,
                        "value": 0
                    },
                    {
                        "number": 64,
                        "time": 132.66327033333334,
                        "value": 1
                    },
                    {
                        "number": 64,
                        "time": 133.7878727,
                        "value": 0
                    },
                    {
                        "number": 64,
                        "time": 133.91725173333333,
                        "value": 1
                    },
                    {
                        "number": 64,
                        "time": 136.168944525,
                        "value": 0
                    },
                    {
                        "number": 64,
                        "time": 136.27095491666665,
                        "value": 1
                    },
                    {
                        "number": 64,
                        "time": 137.0745977583333,
                        "value": 0
                    },
                    {
                        "number": 64,
                        "time": 138.07230914999997,
                        "value": 1
                    },
                    {
                        "number": 64,
                        "time": 138.5599685833333,
                        "value": 0
                    },
                    {
                        "number": 64,
                        "time": 138.62465809999998,
                        "value": 1
                    },
                    {
                        "number": 64,
                        "time": 139.17700705,
                        "value": 0
                    },
                    {
                        "number": 64,
                        "time": 139.29145773333332,
                        "value": 1
                    },
                    {
                        "number": 64,
                        "time": 139.5825605583333,
                        "value": 0
                    },
                    {
                        "number": 64,
                        "time": 141.11769255,
                        "value": 1
                    },
                    {
                        "number": 64,
                        "time": 142.050714425,
                        "value": 0
                    },
                    {
                        "number": 64,
                        "time": 142.27712773333332,
                        "value": 1
                    },
                    {
                        "number": 64,
                        "time": 143.33206446666665,
                        "value": 0
                    },
                    {
                        "number": 64,
                        "time": 143.5236449583333,
                        "value": 1
                    },
                    {
                        "number": 64,
                        "time": 144.87714869166663,
                        "value": 0
                    },
                    {
                        "number": 64,
                        "time": 145.24538132499995,
                        "value": 1
                    },
                    {
                        "number": 64,
                        "time": 146.92482069999994,
                        "value": 0
                    },
                    {
                        "number": 64,
                        "time": 147.0716161416666,
                        "value": 1
                    },
                    {
                        "number": 64,
                        "time": 148.69631823333327,
                        "value": 0
                    },
                    {
                        "number": 64,
                        "time": 148.88043454999993,
                        "value": 1
                    },
                    {
                        "number": 64,
                        "time": 149.89058623333327,
                        "value": 0
                    },
                    {
                        "number": 64,
                        "time": 150.0572861416666,
                        "value": 1
                    },
                    {
                        "number": 64,
                        "time": 150.50016052499993,
                        "value": 0
                    },
                    {
                        "number": 64,
                        "time": 150.82858422499993,
                        "value": 1
                    },
                    {
                        "number": 64,
                        "time": 152.30400281666658,
                        "value": 0
                    },
                    {
                        "number": 64,
                        "time": 152.49807136666658,
                        "value": 1
                    },
                    {
                        "number": 64,
                        "time": 154.07798840833325,
                        "value": 0
                    },
                    {
                        "number": 64,
                        "time": 154.32430618333325,
                        "value": 1
                    },
                    {
                        "number": 64,
                        "time": 155.86939040833326,
                        "value": 0
                    },
                    {
                        "number": 64,
                        "time": 155.96642468333326,
                        "value": 1
                    },
                    {
                        "number": 64,
                        "time": 156.48891693333326,
                        "value": 0
                    },
                    {
                        "number": 64,
                        "time": 156.5809750916666,
                        "value": 1
                    },
                    {
                        "number": 64,
                        "time": 157.66825658333326,
                        "value": 0
                    },
                    {
                        "number": 64,
                        "time": 157.85486095833326,
                        "value": 1
                    },
                    {
                        "number": 64,
                        "time": 158.26787864166658,
                        "value": 0
                    },
                    {
                        "number": 64,
                        "time": 158.41716214166658,
                        "value": 1
                    },
                    {
                        "number": 64,
                        "time": 159.08396177499992,
                        "value": 0
                    },
                    {
                        "number": 64,
                        "time": 162.07958400833326,
                        "value": 1
                    },
                    {
                        "number": 64,
                        "time": 162.95538054166659,
                        "value": 0
                    },
                    {
                        "number": 64,
                        "time": 163.06983122499992,
                        "value": 1
                    },
                    {
                        "number": 64,
                        "time": 163.5525145416666,
                        "value": 0
                    },
                    {
                        "number": 64,
                        "time": 163.70428609999993,
                        "value": 1
                    },
                    {
                        "number": 64,
                        "time": 164.17701718333328,
                        "value": 0
                    },
                    {
                        "number": 64,
                        "time": 164.28151563333327,
                        "value": 1
                    },
                    {
                        "number": 64,
                        "time": 164.81644817499995,
                        "value": 0
                    },
                    {
                        "number": 64,
                        "time": 164.95826749999995,
                        "value": 1
                    },
                    {
                        "number": 64,
                        "time": 166.0380848166666,
                        "value": 0
                    },
                    {
                        "number": 64,
                        "time": 166.20727278333328,
                        "value": 1
                    },
                    {
                        "number": 64,
                        "time": 167.58316904166662,
                        "value": 0
                    },
                    {
                        "number": 64,
                        "time": 168.5510237333333,
                        "value": 1
                    },
                    {
                        "number": 64,
                        "time": 169.00882646666662,
                        "value": 0
                    },
                    {
                        "number": 64,
                        "time": 169.1655741416666,
                        "value": 1
                    },
                    {
                        "number": 64,
                        "time": 169.63084104999993,
                        "value": 0
                    },
                    {
                        "number": 64,
                        "time": 169.84979018333325,
                        "value": 1
                    },
                    {
                        "number": 64,
                        "time": 170.8151568166666,
                        "value": 0
                    },
                    {
                        "number": 64,
                        "time": 171.04405818333325,
                        "value": 1
                    },
                    {
                        "number": 64,
                        "time": 171.9820561749999,
                        "value": 0
                    },
                    {
                        "number": 64,
                        "time": 172.50206036666657,
                        "value": 1
                    },
                    {
                        "number": 64,
                        "time": 173.20369281666657,
                        "value": 0
                    },
                    {
                        "number": 64,
                        "time": 173.90781332499992,
                        "value": 1
                    },
                    {
                        "number": 64,
                        "time": 175.5872526999999,
                        "value": 0
                    },
                    {
                        "number": 64,
                        "time": 175.73404814166656,
                        "value": 1
                    },
                    {
                        "number": 64,
                        "time": 177.35875023333324,
                        "value": 0
                    },
                    {
                        "number": 64,
                        "time": 177.5428665499999,
                        "value": 1
                    },
                    {
                        "number": 64,
                        "time": 178.55301823333323,
                        "value": 0
                    },
                    {
                        "number": 64,
                        "time": 178.71971814166656,
                        "value": 1
                    },
                    {
                        "number": 64,
                        "time": 179.1625925249999,
                        "value": 0
                    },
                    {
                        "number": 64,
                        "time": 179.4910162249999,
                        "value": 1
                    },
                    {
                        "number": 64,
                        "time": 180.96643481666655,
                        "value": 0
                    },
                    {
                        "number": 64,
                        "time": 181.16050336666655,
                        "value": 1
                    },
                    {
                        "number": 64,
                        "time": 182.74042040833322,
                        "value": 0
                    },
                    {
                        "number": 64,
                        "time": 182.98673818333322,
                        "value": 1
                    },
                    {
                        "number": 64,
                        "time": 184.53182240833323,
                        "value": 0
                    },
                    {
                        "number": 64,
                        "time": 184.62885668333323,
                        "value": 1
                    },
                    {
                        "number": 64,
                        "time": 185.15134893333322,
                        "value": 0
                    },
                    {
                        "number": 64,
                        "time": 185.24340709166657,
                        "value": 1
                    },
                    {
                        "number": 64,
                        "time": 186.33068858333323,
                        "value": 0
                    },
                    {
                        "number": 64,
                        "time": 186.51729295833323,
                        "value": 1
                    },
                    {
                        "number": 64,
                        "time": 186.93031064166655,
                        "value": 0
                    },
                    {
                        "number": 64,
                        "time": 187.07959414166655,
                        "value": 1
                    },
                    {
                        "number": 64,
                        "time": 187.7463937749999,
                        "value": 0
                    },
                    {
                        "number": 64,
                        "time": 190.74201600833322,
                        "value": 1
                    },
                    {
                        "number": 64,
                        "time": 191.61781254166655,
                        "value": 0
                    },
                    {
                        "number": 64,
                        "time": 191.73226322499988,
                        "value": 1
                    },
                    {
                        "number": 64,
                        "time": 192.21494654166656,
                        "value": 0
                    },
                    {
                        "number": 64,
                        "time": 192.3667180999999,
                        "value": 1
                    },
                    {
                        "number": 64,
                        "time": 192.83944918333324,
                        "value": 0
                    },
                    {
                        "number": 64,
                        "time": 192.94394763333324,
                        "value": 1
                    },
                    {
                        "number": 64,
                        "time": 193.47888017499992,
                        "value": 0
                    },
                    {
                        "number": 64,
                        "time": 193.62069949999992,
                        "value": 1
                    },
                    {
                        "number": 64,
                        "time": 194.70051681666658,
                        "value": 0
                    },
                    {
                        "number": 64,
                        "time": 194.86970478333325,
                        "value": 1
                    },
                    {
                        "number": 64,
                        "time": 196.2456010416666,
                        "value": 0
                    },
                    {
                        "number": 64,
                        "time": 197.21345573333326,
                        "value": 1
                    },
                    {
                        "number": 64,
                        "time": 197.6712584666666,
                        "value": 0
                    },
                    {
                        "number": 64,
                        "time": 197.82800614166658,
                        "value": 1
                    },
                    {
                        "number": 64,
                        "time": 198.2932730499999,
                        "value": 0
                    },
                    {
                        "number": 64,
                        "time": 198.51222218333322,
                        "value": 1
                    },
                    {
                        "number": 64,
                        "time": 199.47758881666655,
                        "value": 0
                    },
                    {
                        "number": 64,
                        "time": 199.70649018333322,
                        "value": 1
                    },
                    {
                        "number": 64,
                        "time": 200.64448817499988,
                        "value": 0
                    },
                    {
                        "number": 64,
                        "time": 201.16449236666654,
                        "value": 1
                    },
                    {
                        "number": 64,
                        "time": 201.86612481666654,
                        "value": 0
                    },
                    {
                        "number": 64,
                        "time": 215.11005932499987,
                        "value": 1
                    },
                    {
                        "number": 64,
                        "time": 216.1799244083332,
                        "value": 0
                    },
                    {
                        "number": 64,
                        "time": 216.4187780083332,
                        "value": 1
                    },
                    {
                        "number": 64,
                        "time": 216.7994509333332,
                        "value": 0
                    },
                    {
                        "number": 64,
                        "time": 223.96754699166652,
                        "value": 1
                    },
                    {
                        "number": 64,
                        "time": 225.71665199999987,
                        "value": 0
                    },
                    {
                        "number": 64,
                        "time": 225.8311026833332,
                        "value": 1
                    },
                    {
                        "number": 64,
                        "time": 226.93082446666654,
                        "value": 0
                    },
                    {
                        "number": 64,
                        "time": 227.04278709166653,
                        "value": 1
                    },
                    {
                        "number": 64,
                        "time": 228.14997304999986,
                        "value": 0
                    },
                    {
                        "number": 64,
                        "time": 228.29925654999985,
                        "value": 1
                    },
                    {
                        "number": 64,
                        "time": 229.32184852499987,
                        "value": 0
                    },
                    {
                        "number": 64,
                        "time": 229.7572587333332,
                        "value": 1
                    },
                    {
                        "number": 64,
                        "time": 230.9515267333332,
                        "value": 0
                    },
                    {
                        "number": 64,
                        "time": 243.8869420083332,
                        "value": 1
                    },
                    {
                        "number": 64,
                        "time": 244.85479669999987,
                        "value": 0
                    },
                    {
                        "number": 64,
                        "time": 245.0812100083332,
                        "value": 1
                    },
                    {
                        "number": 64,
                        "time": 245.65097536666653,
                        "value": 0
                    },
                    {
                        "number": 64,
                        "time": 252.71208491666653,
                        "value": 1
                    },
                    {
                        "number": 64,
                        "time": 254.41391681666653,
                        "value": 0
                    },
                    {
                        "number": 64,
                        "time": 254.4860705083332,
                        "value": 1
                    },
                    {
                        "number": 64,
                        "time": 255.59325646666653,
                        "value": 0
                    },
                    {
                        "number": 64,
                        "time": 255.6878026833332,
                        "value": 1
                    },
                    {
                        "number": 64,
                        "time": 256.8124050499999,
                        "value": 0
                    },
                    {
                        "number": 64,
                        "time": 257.10101981666656,
                        "value": 1
                    },
                    {
                        "number": 64,
                        "time": 258.0091611083332,
                        "value": 0
                    },
                    {
                        "number": 64,
                        "time": 258.2778714083332,
                        "value": 1
                    },
                    {
                        "number": 64,
                        "time": 259.6139587333332,
                        "value": 0
                    },
                    {
                        "number": 64,
                        "time": 260.03444059166657,
                        "value": 1
                    },
                    {
                        "number": 64,
                        "time": 261.56957258333324,
                        "value": 0
                    },
                    {
                        "number": 64,
                        "time": 261.7387605499999,
                        "value": 1
                    },
                    {
                        "number": 64,
                        "time": 263.37092681666655,
                        "value": 0
                    },
                    {
                        "number": 64,
                        "time": 263.56499536666655,
                        "value": 1
                    },
                    {
                        "number": 64,
                        "time": 265.16730493333324,
                        "value": 0
                    },
                    {
                        "number": 64,
                        "time": 265.3738137749999,
                        "value": 1
                    },
                    {
                        "number": 64,
                        "time": 266.95124275833325,
                        "value": 0
                    },
                    {
                        "number": 64,
                        "time": 267.0955501416666,
                        "value": 1
                    },
                    {
                        "number": 64,
                        "time": 268.7227402916666,
                        "value": 0
                    },
                    {
                        "number": 64,
                        "time": 268.9043685499999,
                        "value": 1
                    },
                    {
                        "number": 64,
                        "time": 270.5116542333332,
                        "value": 0
                    },
                    {
                        "number": 64,
                        "time": 270.66093773333324,
                        "value": 1
                    },
                    {
                        "number": 64,
                        "time": 271.71338640833324,
                        "value": 0
                    },
                    {
                        "number": 64,
                        "time": 271.8552057333332,
                        "value": 1
                    },
                    {
                        "number": 64,
                        "time": 272.3105204083332,
                        "value": 0
                    },
                    {
                        "number": 64,
                        "time": 272.6090874083332,
                        "value": 1
                    },
                    {
                        "number": 64,
                        "time": 273.42517054166655,
                        "value": 0
                    },
                    {
                        "number": 64,
                        "time": 274.2263253249999,
                        "value": 1
                    },
                    {
                        "number": 64,
                        "time": 275.9057646999999,
                        "value": 0
                    },
                    {
                        "number": 64,
                        "time": 275.95552586666656,
                        "value": 1
                    },
                    {
                        "number": 64,
                        "time": 276.4979225833332,
                        "value": 0
                    },
                    {
                        "number": 64,
                        "time": 276.57505239166653,
                        "value": 1
                    },
                    {
                        "number": 64,
                        "time": 277.1796505666665,
                        "value": 0
                    },
                    {
                        "number": 64,
                        "time": 278.39382303333315,
                        "value": 1
                    },
                    {
                        "number": 64,
                        "time": 279.4711522916665,
                        "value": 0
                    },
                    {
                        "number": 64,
                        "time": 279.9513475499998,
                        "value": 1
                    },
                    {
                        "number": 64,
                        "time": 280.68781281666645,
                        "value": 0
                    },
                    {
                        "number": 64,
                        "time": 281.0062842833331,
                        "value": 1
                    },
                    {
                        "number": 64,
                        "time": 281.89700916666646,
                        "value": 0
                    },
                    {
                        "number": 64,
                        "time": 282.1657194666665,
                        "value": 1
                    },
                    {
                        "number": 64,
                        "time": 282.47672675833314,
                        "value": 0
                    },
                    {
                        "number": 64,
                        "time": 282.6931878333331,
                        "value": 1
                    },
                    {
                        "number": 64,
                        "time": 283.0639085249998,
                        "value": 0
                    },
                    {
                        "number": 64,
                        "time": 283.24553678333314,
                        "value": 1
                    },
                    {
                        "number": 64,
                        "time": 284.27808099166646,
                        "value": 0
                    },
                    {
                        "number": 64,
                        "time": 285.61665637499976,
                        "value": 1
                    },
                    {
                        "number": 64,
                        "time": 286.6492005833331,
                        "value": 0
                    },
                    {
                        "number": 64,
                        "time": 286.7412587416664,
                        "value": 1
                    },
                    {
                        "number": 64,
                        "time": 287.8633730499997,
                        "value": 0
                    },
                    {
                        "number": 64,
                        "time": 287.9877759666664,
                        "value": 1
                    },
                    {
                        "number": 64,
                        "time": 289.03773658333307,
                        "value": 0
                    },
                    {
                        "number": 64,
                        "time": 289.25917377499974,
                        "value": 1
                    },
                    {
                        "number": 64,
                        "time": 289.9384136999997,
                        "value": 0
                    },
                    {
                        "number": 64,
                        "time": 290.0852091416664,
                        "value": 1
                    },
                    {
                        "number": 64,
                        "time": 292.6255166999997,
                        "value": 0
                    },
                    {
                        "number": 64,
                        "time": 292.7822643749997,
                        "value": 1
                    },
                    {
                        "number": 64,
                        "time": 293.5784430416664,
                        "value": 0
                    },
                    {
                        "number": 64,
                        "time": 293.6555728499997,
                        "value": 1
                    },
                    {
                        "number": 64,
                        "time": 295.0190288166664,
                        "value": 0
                    },
                    {
                        "number": 64,
                        "time": 297.9997226999997,
                        "value": 1
                    },
                    {
                        "number": 64,
                        "time": 298.6018328166664,
                        "value": 0
                    },
                    {
                        "number": 64,
                        "time": 298.92528039999974,
                        "value": 1
                    },
                    {
                        "number": 64,
                        "time": 299.8035649916664,
                        "value": 0
                    },
                    {
                        "number": 64,
                        "time": 299.9752410166664,
                        "value": 1
                    },
                    {
                        "number": 64,
                        "time": 301.00032104999974,
                        "value": 0
                    },
                    {
                        "number": 64,
                        "time": 301.3088402833331,
                        "value": 1
                    },
                    {
                        "number": 64,
                        "time": 302.1970771083331,
                        "value": 0
                    },
                    {
                        "number": 64,
                        "time": 304.6279100999997,
                        "value": 1
                    },
                    {
                        "number": 64,
                        "time": 305.7525124666664,
                        "value": 0
                    },
                    {
                        "number": 64,
                        "time": 305.8644750916664,
                        "value": 1
                    },
                    {
                        "number": 64,
                        "time": 306.9467804666664,
                        "value": 0
                    },
                    {
                        "number": 64,
                        "time": 307.04132668333307,
                        "value": 1
                    },
                    {
                        "number": 64,
                        "time": 307.5513786416664,
                        "value": 0
                    },
                    {
                        "number": 64,
                        "time": 307.6732934999998,
                        "value": 1
                    },
                    {
                        "number": 64,
                        "time": 308.1460245833331,
                        "value": 0
                    },
                    {
                        "number": 64,
                        "time": 308.2455469166664,
                        "value": 1
                    },
                    {
                        "number": 64,
                        "time": 309.3502448166664,
                        "value": 0
                    },
                    {
                        "number": 64,
                        "time": 309.4472790916664,
                        "value": 1
                    },
                    {
                        "number": 64,
                        "time": 309.9299624083331,
                        "value": 0
                    },
                    {
                        "number": 64,
                        "time": 310.05436532499976,
                        "value": 1
                    },
                    {
                        "number": 64,
                        "time": 310.54451281666644,
                        "value": 0
                    },
                    {
                        "number": 64,
                        "time": 310.62413068333314,
                        "value": 1
                    },
                    {
                        "number": 64,
                        "time": 311.1416468166665,
                        "value": 0
                    },
                    {
                        "number": 64,
                        "time": 311.2312169166665,
                        "value": 1
                    },
                    {
                        "number": 64,
                        "time": 311.7188763499998,
                        "value": 0
                    },
                    {
                        "number": 64,
                        "time": 311.86069567499976,
                        "value": 1
                    },
                    {
                        "number": 64,
                        "time": 312.3160103499998,
                        "value": 0
                    },
                    {
                        "number": 64,
                        "time": 312.45782967499974,
                        "value": 1
                    },
                    {
                        "number": 64,
                        "time": 312.9405129916664,
                        "value": 0
                    },
                    {
                        "number": 64,
                        "time": 313.19678299999975,
                        "value": 1
                    },
                    {
                        "number": 64,
                        "time": 314.14224516666644,
                        "value": 0
                    },
                    {
                        "number": 64,
                        "time": 314.29152866666647,
                        "value": 1
                    },
                    {
                        "number": 64,
                        "time": 314.7269388749998,
                        "value": 0
                    },
                    {
                        "number": 64,
                        "time": 314.9185193666665,
                        "value": 1
                    },
                    {
                        "number": 64,
                        "time": 315.3066564666665,
                        "value": 0
                    },
                    {
                        "number": 64,
                        "time": 315.53306977499983,
                        "value": 1
                    },
                    {
                        "number": 64,
                        "time": 316.5208289333332,
                        "value": 0
                    },
                    {
                        "number": 64,
                        "time": 317.32447177499984,
                        "value": 1
                    },
                    {
                        "number": 64,
                        "time": 318.8969246416665,
                        "value": 0
                    },
                    {
                        "number": 64,
                        "time": 318.9765425083332,
                        "value": 1
                    },
                    {
                        "number": 64,
                        "time": 320.1011448749999,
                        "value": 0
                    },
                    {
                        "number": 64,
                        "time": 320.78536091666655,
                        "value": 1
                    },
                    {
                        "number": 64,
                        "time": 321.2979009333332,
                        "value": 0
                    },
                    {
                        "number": 64,
                        "time": 321.4173277333332,
                        "value": 1
                    },
                    {
                        "number": 64,
                        "time": 321.8726424083332,
                        "value": 0
                    },
                    {
                        "number": 64,
                        "time": 321.9696766833332,
                        "value": 1
                    },
                    {
                        "number": 64,
                        "time": 322.4747525249999,
                        "value": 0
                    },
                    {
                        "number": 64,
                        "time": 322.9076746749999,
                        "value": 1
                    },
                    {
                        "number": 64,
                        "time": 323.6839488749999,
                        "value": 0
                    },
                    {
                        "number": 64,
                        "time": 324.5572573499999,
                        "value": 1
                    },
                    {
                        "number": 64,
                        "time": 326.0351639999999,
                        "value": 0
                    },
                    {
                        "number": 64,
                        "time": 326.10731769166654,
                        "value": 1
                    },
                    {
                        "number": 64,
                        "time": 327.25928869999984,
                        "value": 0
                    },
                    {
                        "number": 64,
                        "time": 327.3314423916665,
                        "value": 1
                    },
                    {
                        "number": 64,
                        "time": 328.4560447583332,
                        "value": 0
                    },
                    {
                        "number": 64,
                        "time": 328.5082939833332,
                        "value": 1
                    },
                    {
                        "number": 64,
                        "time": 329.05069069999985,
                        "value": 0
                    },
                    {
                        "number": 64,
                        "time": 329.11040409999987,
                        "value": 1
                    },
                    {
                        "number": 64,
                        "time": 329.6328963499999,
                        "value": 0
                    },
                    {
                        "number": 64,
                        "time": 329.9862006333332,
                        "value": 1
                    },
                    {
                        "number": 64,
                        "time": 330.84706881666654,
                        "value": 0
                    },
                    {
                        "number": 64,
                        "time": 333.29780627499986,
                        "value": 1
                    },
                    {
                        "number": 64,
                        "time": 334.42240864166655,
                        "value": 0
                    },
                    {
                        "number": 64,
                        "time": 334.5542757333332,
                        "value": 1
                    },
                    {
                        "number": 64,
                        "time": 336.80348046666654,
                        "value": 0
                    },
                    {
                        "number": 64,
                        "time": 336.90797891666654,
                        "value": 1
                    },
                    {
                        "number": 64,
                        "time": 337.7091336999999,
                        "value": 0
                    },
                    {
                        "number": 64,
                        "time": 338.70684509166654,
                        "value": 1
                    },
                    {
                        "number": 64,
                        "time": 339.19450452499984,
                        "value": 0
                    },
                    {
                        "number": 64,
                        "time": 339.26168209999986,
                        "value": 1
                    },
                    {
                        "number": 64,
                        "time": 339.8115429916665,
                        "value": 0
                    },
                    {
                        "number": 64,
                        "time": 339.9284817333332,
                        "value": 1
                    },
                    {
                        "number": 64,
                        "time": 340.21709649999985,
                        "value": 0
                    },
                    {
                        "number": 64,
                        "time": 341.75471654999984,
                        "value": 1
                    },
                    {
                        "number": 64,
                        "time": 342.6852503666665,
                        "value": 0
                    },
                    {
                        "number": 64,
                        "time": 342.91415173333314,
                        "value": 1
                    },
                    {
                        "number": 64,
                        "time": 343.96660040833314,
                        "value": 0
                    },
                    {
                        "number": 64,
                        "time": 344.16066895833313,
                        "value": 1
                    },
                    {
                        "number": 64,
                        "time": 345.5116846333331,
                        "value": 0
                    },
                    {
                        "number": 64,
                        "time": 346.1287230999998,
                        "value": 1
                    },
                    {
                        "number": 64,
                        "time": 347.54442829166646,
                        "value": 0
                    },
                    {
                        "number": 64,
                        "time": 347.7783057749998,
                        "value": 1
                    },
                    {
                        "number": 64,
                        "time": 349.9578448749998,
                        "value": 0
                    },
                    {
                        "number": 64,
                        "time": 350.1668417749998,
                        "value": 1
                    },
                    {
                        "number": 64,
                        "time": 351.1521128749998,
                        "value": 0
                    },
                    {
                        "number": 64,
                        "time": 351.3138366666664,
                        "value": 1
                    },
                    {
                        "number": 64,
                        "time": 352.3513569916664,
                        "value": 0
                    },
                    {
                        "number": 64,
                        "time": 352.5504016583331,
                        "value": 1
                    },
                    {
                        "number": 64,
                        "time": 353.5431369333331,
                        "value": 0
                    },
                    {
                        "number": 64,
                        "time": 353.75959800833306,
                        "value": 1
                    },
                    {
                        "number": 64,
                        "time": 354.73740493333304,
                        "value": 0
                    },
                    {
                        "number": 64,
                        "time": 354.90908095833305,
                        "value": 1
                    },
                    {
                        "number": 64,
                        "time": 357.1284289916664,
                        "value": 0
                    },
                    {
                        "number": 64,
                        "time": 357.25780802499975,
                        "value": 1
                    },
                    {
                        "number": 64,
                        "time": 358.29284029166644,
                        "value": 0
                    },
                    {
                        "number": 64,
                        "time": 358.8128444833331,
                        "value": 1
                    },
                    {
                        "number": 64,
                        "time": 360.4052018166664,
                        "value": 0
                    }
                ]
            },
            "id": 3,
            "name": "Pedale"
        },
        {
            "startTime": 0,
            "duration": 0,
            "length": 0,
            "notes": [],
            "controlChanges": {},
            "id": 4,
            "name": "Mozart: Klaviersonate C-Dur KV 330 2. Satz"
        },
        {
            "startTime": 0,
            "duration": 0,
            "length": 0,
            "notes": [],
            "controlChanges": {},
            "id": 5,
            "name": "Copyright  1997 by Bernd Krger"
        },
        {
            "startTime": 0,
            "duration": 0,
            "length": 0,
            "notes": [],
            "controlChanges": {},
            "id": 6,
            "name": "http://www.piano-midi.de"
        },
        {
            "startTime": 0,
            "duration": 0,
            "length": 0,
            "notes": [],
            "controlChanges": {},
            "id": 7,
            "name": "Edition: 2013-06-20"
        },
        {
            "startTime": 0,
            "duration": 0,
            "length": 0,
            "notes": [],
            "controlChanges": {},
            "id": 8,
            "name": "Spur 8"
        }
    ]
}