{
    "header": {
        "PPQ": 480,
        "timeSignature": [
            4,
            4
        ],
        "bpm": 128.72000823808054,
        "name": "1. Satz"
    },
    "startTime": 0,
    "duration": 616.5708120000222,
    "tracks": [
        {
            "startTime": 0,
            "duration": 0,
            "length": 0,
            "notes": [],
            "controlChanges": {},
            "id": 0,
            "name": "1. Satz"
        },
        {
            "startTime": 1.398384,
            "duration": 616.5708120000222,
            "length": 3344,
            "notes": [
                {
                    "name": "G5",
                    "midi": 79,
                    "time": 1.398384,
                    "velocity": 0.44881889763779526,
                    "duration": 0.11653200000000008
                },
                {
                    "name": "F5",
                    "midi": 77,
                    "time": 1.5149160000000002,
                    "velocity": 0.4409448818897638,
                    "duration": 0.11653200000000008
                },
                {
                    "name": "D#5",
                    "midi": 75,
                    "time": 1.6314480000000002,
                    "velocity": 0.4251968503937008,
                    "duration": 0.11653200000000008
                },
                {
                    "name": "D5",
                    "midi": 74,
                    "time": 1.7479800000000003,
                    "velocity": 0.4094488188976378,
                    "duration": 0.11653200000000008
                },
                {
                    "name": "C5",
                    "midi": 72,
                    "time": 1.8645120000000004,
                    "velocity": 0.47244094488188976,
                    "duration": 0.23306400000000016
                },
                {
                    "name": "A#4",
                    "midi": 70,
                    "time": 2.0975760000000006,
                    "velocity": 0.4251968503937008,
                    "duration": 0.2233529999999999
                },
                {
                    "name": "A#4",
                    "midi": 70,
                    "time": 2.3306400000000003,
                    "velocity": 0.4015748031496063,
                    "duration": 0.699192
                },
                {
                    "name": "D5",
                    "midi": 74,
                    "time": 3.0298320000000003,
                    "velocity": 0.44881889763779526,
                    "duration": 0.23306400000000016
                },
                {
                    "name": "G5",
                    "midi": 79,
                    "time": 3.2628960000000005,
                    "velocity": 0.47244094488188976,
                    "duration": 0.23306400000000016
                },
                {
                    "name": "D5",
                    "midi": 74,
                    "time": 3.4959600000000006,
                    "velocity": 0.4330708661417323,
                    "duration": 0.23306400000000016
                },
                {
                    "name": "F5",
                    "midi": 77,
                    "time": 3.729024000000001,
                    "velocity": 0.47244094488188976,
                    "duration": 0.4661280000000003
                },
                {
                    "name": "D#5",
                    "midi": 75,
                    "time": 4.195152000000001,
                    "velocity": 0.4409448818897638,
                    "duration": 0.699192
                },
                {
                    "name": "F5",
                    "midi": 77,
                    "time": 4.894344000000001,
                    "velocity": 0.47244094488188976,
                    "duration": 0.1165320000000003
                },
                {
                    "name": "G5",
                    "midi": 79,
                    "time": 5.010876000000001,
                    "velocity": 0.4409448818897638,
                    "duration": 0.1165320000000003
                },
                {
                    "name": "F5",
                    "midi": 77,
                    "time": 5.127408000000002,
                    "velocity": 0.48031496062992124,
                    "duration": 0.1165320000000003
                },
                {
                    "name": "D#5",
                    "midi": 75,
                    "time": 5.243940000000002,
                    "velocity": 0.4251968503937008,
                    "duration": 0.1165320000000003
                },
                {
                    "name": "D5",
                    "midi": 74,
                    "time": 5.360472000000002,
                    "velocity": 0.4566929133858268,
                    "duration": 0.1165320000000003
                },
                {
                    "name": "C5",
                    "midi": 72,
                    "time": 5.477004000000003,
                    "velocity": 0.41732283464566927,
                    "duration": 0.1165320000000003
                },
                {
                    "name": "A#4",
                    "midi": 70,
                    "time": 5.593536000000003,
                    "velocity": 0.5196850393700787,
                    "duration": 0.4661280000000003
                },
                {
                    "name": "A4",
                    "midi": 69,
                    "time": 6.059664000000003,
                    "velocity": 0.44881889763779526,
                    "duration": 0.6923943000000001
                },
                {
                    "name": "A4",
                    "midi": 69,
                    "time": 6.758856000000003,
                    "velocity": 0.4881889763779528,
                    "duration": 0.23306399999999972
                },
                {
                    "name": "A#4",
                    "midi": 70,
                    "time": 6.991920000000003,
                    "velocity": 0.5118110236220472,
                    "duration": 0.23306399999999972
                },
                {
                    "name": "C5",
                    "midi": 72,
                    "time": 7.224984000000003,
                    "velocity": 0.48031496062992124,
                    "duration": 0.22335300000000036
                },
                {
                    "name": "A4",
                    "midi": 69,
                    "time": 7.458048000000003,
                    "velocity": 0.4094488188976378,
                    "duration": 0.4661280000000003
                },
                {
                    "name": "C5",
                    "midi": 72,
                    "time": 7.458048000000003,
                    "velocity": 0.48031496062992124,
                    "duration": 0.4661280000000003
                },
                {
                    "name": "A#4",
                    "midi": 70,
                    "time": 7.924176000000004,
                    "velocity": 0.3858267716535433,
                    "duration": 0.4661280000000003
                },
                {
                    "name": "D5",
                    "midi": 74,
                    "time": 7.924176000000004,
                    "velocity": 0.4566929133858268,
                    "duration": 0.4661280000000003
                },
                {
                    "name": "F5",
                    "midi": 77,
                    "time": 8.623368000000005,
                    "velocity": 0.5039370078740157,
                    "duration": 0.11653199999999941
                },
                {
                    "name": "E5",
                    "midi": 76,
                    "time": 8.739900000000004,
                    "velocity": 0.49606299212598426,
                    "duration": 0.11653199999999941
                },
                {
                    "name": "G5",
                    "midi": 79,
                    "time": 8.856432000000003,
                    "velocity": 0.5196850393700787,
                    "duration": 0.11653199999999941
                },
                {
                    "name": "F5",
                    "midi": 77,
                    "time": 8.972964000000003,
                    "velocity": 0.49606299212598426,
                    "duration": 0.11653199999999941
                },
                {
                    "name": "D#5",
                    "midi": 75,
                    "time": 9.089496000000002,
                    "velocity": 0.49606299212598426,
                    "duration": 0.11653199999999941
                },
                {
                    "name": "D5",
                    "midi": 74,
                    "time": 9.206028000000002,
                    "velocity": 0.48031496062992124,
                    "duration": 0.10682100000000005
                },
                {
                    "name": "D5",
                    "midi": 74,
                    "time": 9.322560000000001,
                    "velocity": 0.5354330708661418,
                    "duration": 0.2330640000000006
                },
                {
                    "name": "C5",
                    "midi": 72,
                    "time": 9.555624000000002,
                    "velocity": 0.48031496062992124,
                    "duration": 0.46612799999999943
                },
                {
                    "name": "A#4",
                    "midi": 70,
                    "time": 10.021752000000001,
                    "velocity": 0.48031496062992124,
                    "duration": 0.2330640000000006
                },
                {
                    "name": "D5",
                    "midi": 74,
                    "time": 10.254816000000002,
                    "velocity": 0.5275590551181102,
                    "duration": 0.2330640000000006
                },
                {
                    "name": "C5",
                    "midi": 72,
                    "time": 10.487880000000002,
                    "velocity": 0.4881889763779528,
                    "duration": 0.46612799999999943
                },
                {
                    "name": "A4",
                    "midi": 69,
                    "time": 10.954008000000002,
                    "velocity": 0.5039370078740157,
                    "duration": 0.2330640000000006
                },
                {
                    "name": "A#4",
                    "midi": 70,
                    "time": 11.187072000000002,
                    "velocity": 0.5354330708661418,
                    "duration": 0.11653199999999941
                },
                {
                    "name": "C5",
                    "midi": 72,
                    "time": 11.303604000000002,
                    "velocity": 0.4645669291338583,
                    "duration": 0.11653199999999941
                },
                {
                    "name": "A#4",
                    "midi": 70,
                    "time": 11.420136000000001,
                    "velocity": 0.4881889763779528,
                    "duration": 0.11653199999999941
                },
                {
                    "name": "A4",
                    "midi": 69,
                    "time": 11.536668,
                    "velocity": 0.4566929133858268,
                    "duration": 0.11653199999999941
                },
                {
                    "name": "A#4",
                    "midi": 70,
                    "time": 11.6532,
                    "velocity": 0.5196850393700787,
                    "duration": 0.11653199999999941
                },
                {
                    "name": "C5",
                    "midi": 72,
                    "time": 11.769732,
                    "velocity": 0.47244094488188976,
                    "duration": 0.11653199999999941
                },
                {
                    "name": "D5",
                    "midi": 74,
                    "time": 11.886263999999999,
                    "velocity": 0.49606299212598426,
                    "duration": 0.11653199999999941
                },
                {
                    "name": "D#5",
                    "midi": 75,
                    "time": 12.002795999999998,
                    "velocity": 0.48031496062992124,
                    "duration": 0.11653199999999941
                },
                {
                    "name": "E5",
                    "midi": 76,
                    "time": 12.119327999999998,
                    "velocity": 0.5433070866141733,
                    "duration": 0.11653199999999941
                },
                {
                    "name": "F5",
                    "midi": 77,
                    "time": 12.235859999999997,
                    "velocity": 0.5118110236220472,
                    "duration": 0.11653199999999941
                },
                {
                    "name": "E5",
                    "midi": 76,
                    "time": 12.352391999999996,
                    "velocity": 0.5433070866141733,
                    "duration": 0.11653199999999941
                },
                {
                    "name": "F5",
                    "midi": 77,
                    "time": 12.468923999999996,
                    "velocity": 0.5118110236220472,
                    "duration": 0.11653199999999941
                },
                {
                    "name": "G5",
                    "midi": 79,
                    "time": 12.585455999999995,
                    "velocity": 0.5433070866141733,
                    "duration": 0.11653199999999941
                },
                {
                    "name": "F5",
                    "midi": 77,
                    "time": 12.701987999999995,
                    "velocity": 0.5275590551181102,
                    "duration": 0.11653199999999941
                },
                {
                    "name": "D#5",
                    "midi": 75,
                    "time": 12.818519999999994,
                    "velocity": 0.5196850393700787,
                    "duration": 0.11653199999999941
                },
                {
                    "name": "D5",
                    "midi": 74,
                    "time": 12.935051999999994,
                    "velocity": 0.5118110236220472,
                    "duration": 0.10682100000000005
                },
                {
                    "name": "D5",
                    "midi": 74,
                    "time": 13.051583999999993,
                    "velocity": 0.5669291338582677,
                    "duration": 0.2330640000000006
                },
                {
                    "name": "C5",
                    "midi": 72,
                    "time": 13.284647999999994,
                    "velocity": 0.4251968503937008,
                    "duration": 0.22335299999999947
                },
                {
                    "name": "C5",
                    "midi": 72,
                    "time": 13.517711999999992,
                    "velocity": 0.4409448818897638,
                    "duration": 0.2330640000000006
                },
                {
                    "name": "A#4",
                    "midi": 70,
                    "time": 13.750775999999993,
                    "velocity": 0.4251968503937008,
                    "duration": 0.2330640000000006
                },
                {
                    "name": "D5",
                    "midi": 74,
                    "time": 13.983839999999994,
                    "velocity": 0.5118110236220472,
                    "duration": 0.2330640000000006
                },
                {
                    "name": "C5",
                    "midi": 72,
                    "time": 14.216903999999994,
                    "velocity": 0.4251968503937008,
                    "duration": 0.22335299999999947
                },
                {
                    "name": "C5",
                    "midi": 72,
                    "time": 14.449967999999993,
                    "velocity": 0.44881889763779526,
                    "duration": 0.2330640000000006
                },
                {
                    "name": "A4",
                    "midi": 69,
                    "time": 14.683031999999994,
                    "velocity": 0.41732283464566927,
                    "duration": 0.2330640000000006
                },
                {
                    "name": "A#4",
                    "midi": 70,
                    "time": 14.916095999999994,
                    "velocity": 0.5196850393700787,
                    "duration": 0.2330640000000006
                },
                {
                    "name": "C5",
                    "midi": 72,
                    "time": 15.149159999999995,
                    "velocity": 0.44881889763779526,
                    "duration": 0.11653199999999941
                },
                {
                    "name": "D5",
                    "midi": 74,
                    "time": 15.265691999999994,
                    "velocity": 0.4566929133858268,
                    "duration": 0.11653199999999941
                },
                {
                    "name": "D#5",
                    "midi": 75,
                    "time": 15.382223999999994,
                    "velocity": 0.4645669291338583,
                    "duration": 0.11653199999999941
                },
                {
                    "name": "F5",
                    "midi": 77,
                    "time": 15.498755999999993,
                    "velocity": 0.47244094488188976,
                    "duration": 0.11653199999999941
                },
                {
                    "name": "G5",
                    "midi": 79,
                    "time": 15.615287999999993,
                    "velocity": 0.48031496062992124,
                    "duration": 0.11653199999999941
                },
                {
                    "name": "A5",
                    "midi": 81,
                    "time": 15.731819999999992,
                    "velocity": 0.5039370078740157,
                    "duration": 0.11653199999999941
                },
                {
                    "name": "A#5",
                    "midi": 82,
                    "time": 15.848351999999991,
                    "velocity": 0.5196850393700787,
                    "duration": 0.11653199999999941
                },
                {
                    "name": "C6",
                    "midi": 84,
                    "time": 15.96488399999999,
                    "velocity": 0.5275590551181102,
                    "duration": 0.11653199999999941
                },
                {
                    "name": "D6",
                    "midi": 86,
                    "time": 16.08141599999999,
                    "velocity": 0.5354330708661418,
                    "duration": 0.11653199999999941
                },
                {
                    "name": "D#6",
                    "midi": 87,
                    "time": 16.19794799999999,
                    "velocity": 0.5433070866141733,
                    "duration": 0.11653199999999941
                },
                {
                    "name": "F6",
                    "midi": 89,
                    "time": 16.31447999999999,
                    "velocity": 0.5984251968503937,
                    "duration": 0.11653199999999941
                },
                {
                    "name": "F6",
                    "midi": 89,
                    "time": 16.547543999999988,
                    "velocity": 0.5905511811023622,
                    "duration": 0.11653199999999941
                },
                {
                    "name": "F5",
                    "midi": 77,
                    "time": 16.780607999999987,
                    "velocity": 0.5984251968503937,
                    "duration": 1.1653199999999977
                },
                {
                    "name": "F6",
                    "midi": 89,
                    "time": 16.780607999999987,
                    "velocity": 0.5984251968503937,
                    "duration": 0.23306399999999883
                },
                {
                    "name": "D#6",
                    "midi": 87,
                    "time": 17.013671999999985,
                    "velocity": 0.5826771653543307,
                    "duration": 0.4661280000000012
                },
                {
                    "name": "D6",
                    "midi": 86,
                    "time": 17.479799999999987,
                    "velocity": 0.5748031496062992,
                    "duration": 0.23306399999999883
                },
                {
                    "name": "D6",
                    "midi": 86,
                    "time": 17.712863999999986,
                    "velocity": 0.5905511811023622,
                    "duration": 0.23306399999999883
                },
                {
                    "name": "D#5",
                    "midi": 75,
                    "time": 17.945927999999984,
                    "velocity": 0.5039370078740157,
                    "duration": 0.11653199999999941
                },
                {
                    "name": "C6",
                    "midi": 84,
                    "time": 17.945927999999984,
                    "velocity": 0.5039370078740157,
                    "duration": 0.11653199999999941
                },
                {
                    "name": "D5",
                    "midi": 74,
                    "time": 18.178991999999983,
                    "velocity": 0.5669291338582677,
                    "duration": 0.11653199999999941
                },
                {
                    "name": "A#5",
                    "midi": 82,
                    "time": 18.178991999999983,
                    "velocity": 0.5669291338582677,
                    "duration": 0.11653199999999941
                },
                {
                    "name": "C5",
                    "midi": 72,
                    "time": 18.412055999999982,
                    "velocity": 0.5039370078740157,
                    "duration": 0.11653199999999941
                },
                {
                    "name": "A5",
                    "midi": 81,
                    "time": 18.412055999999982,
                    "velocity": 0.5039370078740157,
                    "duration": 0.11653199999999941
                },
                {
                    "name": "A#5",
                    "midi": 82,
                    "time": 18.64511999999998,
                    "velocity": 0.5984251968503937,
                    "duration": 0.23306399999999883
                },
                {
                    "name": "D5",
                    "midi": 74,
                    "time": 18.64511999999998,
                    "velocity": 0.5984251968503937,
                    "duration": 0.23306399999999883
                },
                {
                    "name": "A#4",
                    "midi": 70,
                    "time": 19.11124799999998,
                    "velocity": 0.5669291338582677,
                    "duration": 0.23306399999999883
                },
                {
                    "name": "G4",
                    "midi": 67,
                    "time": 20.043503999999977,
                    "velocity": 0.4094488188976378,
                    "duration": 0.11653199999999941
                },
                {
                    "name": "F4",
                    "midi": 65,
                    "time": 20.160035999999977,
                    "velocity": 0.3858267716535433,
                    "duration": 0.11653199999999941
                },
                {
                    "name": "D#4",
                    "midi": 63,
                    "time": 20.276567999999976,
                    "velocity": 0.4094488188976378,
                    "duration": 0.11653199999999941
                },
                {
                    "name": "D4",
                    "midi": 62,
                    "time": 20.393099999999976,
                    "velocity": 0.3937007874015748,
                    "duration": 0.11653199999999941
                },
                {
                    "name": "C4",
                    "midi": 60,
                    "time": 20.509631999999975,
                    "velocity": 0.4409448818897638,
                    "duration": 0.23306399999999883
                },
                {
                    "name": "A#3",
                    "midi": 58,
                    "time": 20.742695999999974,
                    "velocity": 0.41732283464566927,
                    "duration": 0.22335299999999947
                },
                {
                    "name": "A#3",
                    "midi": 58,
                    "time": 20.975759999999973,
                    "velocity": 0.41732283464566927,
                    "duration": 0.699192
                },
                {
                    "name": "A#4",
                    "midi": 70,
                    "time": 21.674951999999973,
                    "velocity": 0.49606299212598426,
                    "duration": 0.23306399999999883
                },
                {
                    "name": "A4",
                    "midi": 69,
                    "time": 21.90801599999997,
                    "velocity": 0.4566929133858268,
                    "duration": 0.23306399999999883
                },
                {
                    "name": "G4",
                    "midi": 67,
                    "time": 22.14107999999997,
                    "velocity": 0.4409448818897638,
                    "duration": 0.23306399999999883
                },
                {
                    "name": "F4",
                    "midi": 65,
                    "time": 22.37414399999997,
                    "velocity": 0.5039370078740157,
                    "duration": 0.4661280000000012
                },
                {
                    "name": "E4",
                    "midi": 64,
                    "time": 22.84027199999997,
                    "velocity": 0.4015748031496063,
                    "duration": 0.5826600000000006
                },
                {
                    "name": "G4",
                    "midi": 67,
                    "time": 23.42293199999997,
                    "velocity": 0.4094488188976378,
                    "duration": 0.11653199999999941
                },
                {
                    "name": "F4",
                    "midi": 65,
                    "time": 23.53946399999997,
                    "velocity": 0.4409448818897638,
                    "duration": 0.11653199999999941
                },
                {
                    "name": "A4",
                    "midi": 69,
                    "time": 23.65599599999997,
                    "velocity": 0.4094488188976378,
                    "duration": 0.11653199999999941
                },
                {
                    "name": "G4",
                    "midi": 67,
                    "time": 23.77252799999997,
                    "velocity": 0.4409448818897638,
                    "duration": 0.11653199999999941
                },
                {
                    "name": "A#4",
                    "midi": 70,
                    "time": 23.88905999999997,
                    "velocity": 0.41732283464566927,
                    "duration": 0.11653199999999941
                },
                {
                    "name": "A4",
                    "midi": 69,
                    "time": 24.005591999999968,
                    "velocity": 0.4409448818897638,
                    "duration": 0.11653199999999941
                },
                {
                    "name": "C5",
                    "midi": 72,
                    "time": 24.122123999999967,
                    "velocity": 0.41732283464566927,
                    "duration": 0.11653199999999941
                },
                {
                    "name": "A#4",
                    "midi": 70,
                    "time": 24.238655999999967,
                    "velocity": 0.4409448818897638,
                    "duration": 0.11653199999999941
                },
                {
                    "name": "G4",
                    "midi": 67,
                    "time": 24.355187999999966,
                    "velocity": 0.4566929133858268,
                    "duration": 0.11653199999999941
                },
                {
                    "name": "E5",
                    "midi": 76,
                    "time": 24.471719999999966,
                    "velocity": 0.48031496062992124,
                    "duration": 0.11653199999999941
                },
                {
                    "name": "C5",
                    "midi": 72,
                    "time": 24.588251999999965,
                    "velocity": 0.4881889763779528,
                    "duration": 0.11653199999999941
                },
                {
                    "name": "G5",
                    "midi": 79,
                    "time": 24.704783999999965,
                    "velocity": 0.5039370078740157,
                    "duration": 0.11653199999999941
                },
                {
                    "name": "E5",
                    "midi": 76,
                    "time": 24.821315999999964,
                    "velocity": 0.5275590551181102,
                    "duration": 0.11653199999999941
                },
                {
                    "name": "A#5",
                    "midi": 82,
                    "time": 24.937847999999963,
                    "velocity": 0.5511811023622047,
                    "duration": 0.11653199999999941
                },
                {
                    "name": "A5",
                    "midi": 81,
                    "time": 25.054379999999963,
                    "velocity": 0.5433070866141733,
                    "duration": 0.11653199999999941
                },
                {
                    "name": "A#5",
                    "midi": 82,
                    "time": 25.170911999999962,
                    "velocity": 0.5590551181102362,
                    "duration": 0.11653199999999941
                },
                {
                    "name": "A5",
                    "midi": 81,
                    "time": 25.28744399999996,
                    "velocity": 0.5275590551181102,
                    "duration": 0.11653199999999941
                },
                {
                    "name": "G5",
                    "midi": 79,
                    "time": 25.40397599999996,
                    "velocity": 0.5433070866141733,
                    "duration": 0.11653199999999941
                },
                {
                    "name": "F5",
                    "midi": 77,
                    "time": 25.52050799999996,
                    "velocity": 0.5118110236220472,
                    "duration": 0.11653199999999941
                },
                {
                    "name": "E5",
                    "midi": 76,
                    "time": 25.63703999999996,
                    "velocity": 0.5196850393700787,
                    "duration": 0.11653199999999941
                },
                {
                    "name": "D5",
                    "midi": 74,
                    "time": 25.75357199999996,
                    "velocity": 0.5118110236220472,
                    "duration": 0.11653199999999941
                },
                {
                    "name": "C5",
                    "midi": 72,
                    "time": 25.87010399999996,
                    "velocity": 0.5039370078740157,
                    "duration": 0.11653199999999941
                },
                {
                    "name": "A#4",
                    "midi": 70,
                    "time": 25.986635999999958,
                    "velocity": 0.49606299212598426,
                    "duration": 0.10682100000000005
                },
                {
                    "name": "A#4",
                    "midi": 70,
                    "time": 26.103167999999958,
                    "velocity": 0.5433070866141733,
                    "duration": 0.11653199999999941
                },
                {
                    "name": "A4",
                    "midi": 69,
                    "time": 26.219699999999957,
                    "velocity": 0.4409448818897638,
                    "duration": 0.11653199999999941
                },
                {
                    "name": "D5",
                    "midi": 74,
                    "time": 26.336231999999956,
                    "velocity": 0.5039370078740157,
                    "duration": 0.11653199999999941
                },
                {
                    "name": "C5",
                    "midi": 72,
                    "time": 26.452763999999956,
                    "velocity": 0.4251968503937008,
                    "duration": 0.10682100000000005
                },
                {
                    "name": "C5",
                    "midi": 72,
                    "time": 26.569295999999955,
                    "velocity": 0.4251968503937008,
                    "duration": 0.4661280000000012
                },
                {
                    "name": "D6",
                    "midi": 86,
                    "time": 27.501551999999958,
                    "velocity": 0.5433070866141733,
                    "duration": 0.11653199999999941
                },
                {
                    "name": "C6",
                    "midi": 84,
                    "time": 27.618083999999957,
                    "velocity": 0.5196850393700787,
                    "duration": 0.11653199999999941
                },
                {
                    "name": "A#5",
                    "midi": 82,
                    "time": 27.734615999999956,
                    "velocity": 0.5433070866141733,
                    "duration": 0.11653199999999941
                },
                {
                    "name": "A5",
                    "midi": 81,
                    "time": 27.851147999999956,
                    "velocity": 0.5196850393700787,
                    "duration": 0.11653199999999941
                },
                {
                    "name": "G5",
                    "midi": 79,
                    "time": 27.967679999999955,
                    "velocity": 0.5669291338582677,
                    "duration": 0.699192
                },
                {
                    "name": "E5",
                    "midi": 76,
                    "time": 28.666871999999955,
                    "velocity": 0.49606299212598426,
                    "duration": 0.23306399999999883
                },
                {
                    "name": "F5",
                    "midi": 77,
                    "time": 28.899935999999954,
                    "velocity": 0.5196850393700787,
                    "duration": 0.05826599999999971
                },
                {
                    "name": "C6",
                    "midi": 84,
                    "time": 29.016467999999954,
                    "velocity": 0.5511811023622047,
                    "duration": 0.13983839999999859
                },
                {
                    "name": "B5",
                    "midi": 83,
                    "time": 29.132999999999953,
                    "velocity": 0.5511811023622047,
                    "duration": 0.13983839999999859
                },
                {
                    "name": "C6",
                    "midi": 84,
                    "time": 29.249531999999952,
                    "velocity": 0.5275590551181102,
                    "duration": 0.13983839999999859
                },
                {
                    "name": "D6",
                    "midi": 86,
                    "time": 29.36606399999995,
                    "velocity": 0.5748031496062992,
                    "duration": 0.13983839999999859
                },
                {
                    "name": "C6",
                    "midi": 84,
                    "time": 29.48259599999995,
                    "velocity": 0.5354330708661418,
                    "duration": 0.13983839999999859
                },
                {
                    "name": "A#5",
                    "midi": 82,
                    "time": 29.59912799999995,
                    "velocity": 0.5590551181102362,
                    "duration": 0.13983839999999859
                },
                {
                    "name": "A5",
                    "midi": 81,
                    "time": 29.71565999999995,
                    "velocity": 0.5354330708661418,
                    "duration": 0.13983839999999859
                },
                {
                    "name": "G5",
                    "midi": 79,
                    "time": 29.83219199999995,
                    "velocity": 0.6377952755905512,
                    "duration": 0.11653199999999941
                },
                {
                    "name": "G5",
                    "midi": 79,
                    "time": 30.06525599999995,
                    "velocity": 0.5905511811023622,
                    "duration": 0.4661280000000012
                },
                {
                    "name": "E5",
                    "midi": 76,
                    "time": 30.53138399999995,
                    "velocity": 0.5039370078740157,
                    "duration": 0.23306399999999883
                },
                {
                    "name": "F5",
                    "midi": 77,
                    "time": 30.76444799999995,
                    "velocity": 0.49606299212598426,
                    "duration": 0.05826599999999971
                },
                {
                    "name": "C6",
                    "midi": 84,
                    "time": 30.880979999999948,
                    "velocity": 0.5511811023622047,
                    "duration": 0.13983839999999859
                },
                {
                    "name": "B5",
                    "midi": 83,
                    "time": 30.997511999999947,
                    "velocity": 0.5433070866141733,
                    "duration": 0.13983839999999859
                },
                {
                    "name": "C6",
                    "midi": 84,
                    "time": 31.114043999999947,
                    "velocity": 0.5354330708661418,
                    "duration": 0.13983839999999859
                },
                {
                    "name": "D6",
                    "midi": 86,
                    "time": 31.230575999999946,
                    "velocity": 0.5905511811023622,
                    "duration": 0.13983839999999859
                },
                {
                    "name": "C6",
                    "midi": 84,
                    "time": 31.347107999999945,
                    "velocity": 0.5433070866141733,
                    "duration": 0.13983839999999859
                },
                {
                    "name": "A#5",
                    "midi": 82,
                    "time": 31.463639999999945,
                    "velocity": 0.5590551181102362,
                    "duration": 0.12818520000000078
                },
                {
                    "name": "A5",
                    "midi": 81,
                    "time": 31.580171999999944,
                    "velocity": 0.5275590551181102,
                    "duration": 0.11653200000000297
                },
                {
                    "name": "A5",
                    "midi": 81,
                    "time": 31.696703999999947,
                    "velocity": 0.5748031496062992,
                    "duration": 0.23306399999999883
                },
                {
                    "name": "G5",
                    "midi": 79,
                    "time": 31.929767999999946,
                    "velocity": 0.5511811023622047,
                    "duration": 0.23306399999999883
                },
                {
                    "name": "G5",
                    "midi": 79,
                    "time": 32.395895999999944,
                    "velocity": 0.5669291338582677,
                    "duration": 0.22335300000000302
                },
                {
                    "name": "G5",
                    "midi": 79,
                    "time": 32.62895999999995,
                    "velocity": 0.6141732283464567,
                    "duration": 0.23306399999999883
                },
                {
                    "name": "F5",
                    "midi": 77,
                    "time": 32.86202399999995,
                    "velocity": 0.5669291338582677,
                    "duration": 0.23306399999999883
                },
                {
                    "name": "F5",
                    "midi": 77,
                    "time": 33.328151999999946,
                    "velocity": 0.5669291338582677,
                    "duration": 0.23306399999999883
                },
                {
                    "name": "E5",
                    "midi": 76,
                    "time": 33.561215999999945,
                    "velocity": 0.5748031496062992,
                    "duration": 0.11653199999999941
                },
                {
                    "name": "F5",
                    "midi": 77,
                    "time": 33.677747999999944,
                    "velocity": 0.5196850393700787,
                    "duration": 0.11653199999999941
                },
                {
                    "name": "E5",
                    "midi": 76,
                    "time": 33.794279999999944,
                    "velocity": 0.5354330708661418,
                    "duration": 0.11653199999999941
                },
                {
                    "name": "C5",
                    "midi": 72,
                    "time": 33.91081199999994,
                    "velocity": 0.5118110236220472,
                    "duration": 0.11653199999999941
                },
                {
                    "name": "F5",
                    "midi": 77,
                    "time": 34.02734399999994,
                    "velocity": 0.5905511811023622,
                    "duration": 0.11653199999999941
                },
                {
                    "name": "G5",
                    "midi": 79,
                    "time": 34.14387599999994,
                    "velocity": 0.5354330708661418,
                    "duration": 0.11653199999999941
                },
                {
                    "name": "F5",
                    "midi": 77,
                    "time": 34.26040799999994,
                    "velocity": 0.5354330708661418,
                    "duration": 0.11653199999999941
                },
                {
                    "name": "C5",
                    "midi": 72,
                    "time": 34.37693999999994,
                    "velocity": 0.5118110236220472,
                    "duration": 0.11653199999999941
                },
                {
                    "name": "G5",
                    "midi": 79,
                    "time": 34.49347199999994,
                    "velocity": 0.6299212598425197,
                    "duration": 0.11653199999999941
                },
                {
                    "name": "A5",
                    "midi": 81,
                    "time": 34.61000399999994,
                    "velocity": 0.5354330708661418,
                    "duration": 0.11653199999999941
                },
                {
                    "name": "G5",
                    "midi": 79,
                    "time": 34.72653599999994,
                    "velocity": 0.5669291338582677,
                    "duration": 0.11653199999999941
                },
                {
                    "name": "C5",
                    "midi": 72,
                    "time": 34.84306799999994,
                    "velocity": 0.5275590551181102,
                    "duration": 0.11653199999999941
                },
                {
                    "name": "A5",
                    "midi": 81,
                    "time": 34.95959999999994,
                    "velocity": 0.6377952755905512,
                    "duration": 0.11653199999999941
                },
                {
                    "name": "A#5",
                    "midi": 82,
                    "time": 35.07613199999994,
                    "velocity": 0.5826771653543307,
                    "duration": 0.11653199999999941
                },
                {
                    "name": "A5",
                    "midi": 81,
                    "time": 35.19266399999994,
                    "velocity": 0.5984251968503937,
                    "duration": 0.11653199999999941
                },
                {
                    "name": "C5",
                    "midi": 72,
                    "time": 35.309195999999936,
                    "velocity": 0.5433070866141733,
                    "duration": 0.11653199999999941
                },
                {
                    "name": "A#5",
                    "midi": 82,
                    "time": 35.425727999999935,
                    "velocity": 0.6692913385826772,
                    "duration": 0.11653199999999941
                },
                {
                    "name": "A#5",
                    "midi": 82,
                    "time": 35.658791999999934,
                    "velocity": 0.6535433070866141,
                    "duration": 0.11653199999999941
                },
                {
                    "name": "G5",
                    "midi": 79,
                    "time": 36.12491999999993,
                    "velocity": 0.6062992125984252,
                    "duration": 0.11653199999999941
                },
                {
                    "name": "A#5",
                    "midi": 82,
                    "time": 36.35798399999993,
                    "velocity": 0.6377952755905512,
                    "duration": 0.23306399999999883
                },
                {
                    "name": "A5",
                    "midi": 81,
                    "time": 36.59104799999993,
                    "velocity": 0.5590551181102362,
                    "duration": 0.11653199999999941
                },
                {
                    "name": "G5",
                    "midi": 79,
                    "time": 36.82411199999993,
                    "velocity": 0.5984251968503937,
                    "duration": 0.11653199999999941
                },
                {
                    "name": "F5",
                    "midi": 77,
                    "time": 37.05717599999993,
                    "velocity": 0.5748031496062992,
                    "duration": 0.11653199999999941
                },
                {
                    "name": "E5",
                    "midi": 76,
                    "time": 37.290239999999926,
                    "velocity": 0.6141732283464567,
                    "duration": 0.11653199999999941
                },
                {
                    "name": "C5",
                    "midi": 72,
                    "time": 37.406771999999926,
                    "velocity": 0.5669291338582677,
                    "duration": 0.11653199999999941
                },
                {
                    "name": "B5",
                    "midi": 83,
                    "time": 37.523303999999925,
                    "velocity": 0.5669291338582677,
                    "duration": 0.11653199999999941
                },
                {
                    "name": "C6",
                    "midi": 84,
                    "time": 37.639835999999924,
                    "velocity": 0.5354330708661418,
                    "duration": 0.11653199999999941
                },
                {
                    "name": "F5",
                    "midi": 77,
                    "time": 37.756367999999924,
                    "velocity": 0.6299212598425197,
                    "duration": 0.11653199999999941
                },
                {
                    "name": "C5",
                    "midi": 72,
                    "time": 37.87289999999992,
                    "velocity": 0.5748031496062992,
                    "duration": 0.11653199999999941
                },
                {
                    "name": "B5",
                    "midi": 83,
                    "time": 37.98943199999992,
                    "velocity": 0.5748031496062992,
                    "duration": 0.11653199999999941
                },
                {
                    "name": "C6",
                    "midi": 84,
                    "time": 38.10596399999992,
                    "velocity": 0.5433070866141733,
                    "duration": 0.11653199999999941
                },
                {
                    "name": "G5",
                    "midi": 79,
                    "time": 38.22249599999992,
                    "velocity": 0.6377952755905512,
                    "duration": 0.11653199999999941
                },
                {
                    "name": "C5",
                    "midi": 72,
                    "time": 38.33902799999992,
                    "velocity": 0.5984251968503937,
                    "duration": 0.11653199999999941
                },
                {
                    "name": "B5",
                    "midi": 83,
                    "time": 38.45555999999992,
                    "velocity": 0.5984251968503937,
                    "duration": 0.11653199999999941
                },
                {
                    "name": "C6",
                    "midi": 84,
                    "time": 38.57209199999992,
                    "velocity": 0.5748031496062992,
                    "duration": 0.11653199999999941
                },
                {
                    "name": "A5",
                    "midi": 81,
                    "time": 38.68862399999992,
                    "velocity": 0.6614173228346457,
                    "duration": 0.11653199999999941
                },
                {
                    "name": "C5",
                    "midi": 72,
                    "time": 38.80515599999992,
                    "velocity": 0.5984251968503937,
                    "duration": 0.11653199999999941
                },
                {
                    "name": "B5",
                    "midi": 83,
                    "time": 38.92168799999992,
                    "velocity": 0.5984251968503937,
                    "duration": 0.11653199999999941
                },
                {
                    "name": "C6",
                    "midi": 84,
                    "time": 39.03821999999992,
                    "velocity": 0.5905511811023622,
                    "duration": 0.11653199999999941
                },
                {
                    "name": "A#5",
                    "midi": 82,
                    "time": 39.15475199999992,
                    "velocity": 0.7007874015748031,
                    "duration": 0.11653199999999941
                },
                {
                    "name": "A#5",
                    "midi": 82,
                    "time": 39.387815999999916,
                    "velocity": 0.6614173228346457,
                    "duration": 0.11653199999999941
                },
                {
                    "name": "G5",
                    "midi": 79,
                    "time": 39.85394399999991,
                    "velocity": 0.5433070866141733,
                    "duration": 0.05826600000000326
                },
                {
                    "name": "A5",
                    "midi": 81,
                    "time": 39.91220999999992,
                    "velocity": 0.5196850393700787,
                    "duration": 0.05826600000000326
                },
                {
                    "name": "G5",
                    "midi": 79,
                    "time": 39.97047599999992,
                    "velocity": 0.5433070866141733,
                    "duration": 0.05826600000000326
                },
                {
                    "name": "A5",
                    "midi": 81,
                    "time": 40.02874199999992,
                    "velocity": 0.5275590551181102,
                    "duration": 0.05826600000000326
                },
                {
                    "name": "A#5",
                    "midi": 82,
                    "time": 40.087007999999926,
                    "velocity": 0.6220472440944882,
                    "duration": 0.23306399999999883
                },
                {
                    "name": "A5",
                    "midi": 81,
                    "time": 40.320071999999925,
                    "velocity": 0.5984251968503937,
                    "duration": 0.11653199999999941
                },
                {
                    "name": "G5",
                    "midi": 79,
                    "time": 40.553135999999924,
                    "velocity": 0.5984251968503937,
                    "duration": 0.11653199999999941
                },
                {
                    "name": "F5",
                    "midi": 77,
                    "time": 40.78619999999992,
                    "velocity": 0.5905511811023622,
                    "duration": 0.11653199999999941
                },
                {
                    "name": "E5",
                    "midi": 76,
                    "time": 41.01926399999992,
                    "velocity": 0.6220472440944882,
                    "duration": 0.11653199999999941
                },
                {
                    "name": "C6",
                    "midi": 84,
                    "time": 41.13579599999992,
                    "velocity": 0.5590551181102362,
                    "duration": 0.11653199999999941
                },
                {
                    "name": "G5",
                    "midi": 79,
                    "time": 41.25232799999992,
                    "velocity": 0.5669291338582677,
                    "duration": 0.11653199999999941
                },
                {
                    "name": "E5",
                    "midi": 76,
                    "time": 41.36885999999992,
                    "velocity": 0.5511811023622047,
                    "duration": 0.11653199999999941
                },
                {
                    "name": "C5",
                    "midi": 72,
                    "time": 41.48539199999992,
                    "velocity": 0.5984251968503937,
                    "duration": 0.11653199999999941
                },
                {
                    "name": "G4",
                    "midi": 67,
                    "time": 41.60192399999992,
                    "velocity": 0.5433070866141733,
                    "duration": 0.11653199999999941
                },
                {
                    "name": "E4",
                    "midi": 64,
                    "time": 41.71845599999992,
                    "velocity": 0.5590551181102362,
                    "duration": 0.11653199999999941
                },
                {
                    "name": "C4",
                    "midi": 60,
                    "time": 41.83498799999992,
                    "velocity": 0.5511811023622047,
                    "duration": 0.11653199999999941
                },
                {
                    "name": "A4",
                    "midi": 69,
                    "time": 42.88377599999992,
                    "velocity": 0.5511811023622047,
                    "duration": 0.6991920000000036
                },
                {
                    "name": "F4",
                    "midi": 65,
                    "time": 42.88377599999992,
                    "velocity": 0.5511811023622047,
                    "duration": 0.6991920000000036
                },
                {
                    "name": "C4",
                    "midi": 60,
                    "time": 42.88377599999992,
                    "velocity": 0.5511811023622047,
                    "duration": 0.6991920000000036
                },
                {
                    "name": "C5",
                    "midi": 72,
                    "time": 42.88377599999992,
                    "velocity": 0.5511811023622047,
                    "duration": 0.6991920000000036
                },
                {
                    "name": "D5",
                    "midi": 74,
                    "time": 43.58296799999992,
                    "velocity": 0.3779527559055118,
                    "duration": 0.11653199999999941
                },
                {
                    "name": "C5",
                    "midi": 72,
                    "time": 43.69949999999992,
                    "velocity": 0.3779527559055118,
                    "duration": 0.11653199999999941
                },
                {
                    "name": "A#4",
                    "midi": 70,
                    "time": 43.81603199999992,
                    "velocity": 0.4094488188976378,
                    "duration": 0.11653199999999941
                },
                {
                    "name": "A4",
                    "midi": 69,
                    "time": 44.04909599999992,
                    "velocity": 0.3779527559055118,
                    "duration": 0.11653199999999941
                },
                {
                    "name": "G4",
                    "midi": 67,
                    "time": 44.28215999999992,
                    "velocity": 0.3779527559055118,
                    "duration": 0.11653199999999941
                },
                {
                    "name": "F4",
                    "midi": 65,
                    "time": 44.51522399999992,
                    "velocity": 0.3779527559055118,
                    "duration": 0.11653199999999941
                },
                {
                    "name": "F4",
                    "midi": 65,
                    "time": 44.74828799999992,
                    "velocity": 0.4251968503937008,
                    "duration": 0.23306400000000593
                },
                {
                    "name": "D5",
                    "midi": 74,
                    "time": 44.97164099999992,
                    "velocity": 0.3937007874015748,
                    "duration": 0.23306400000000593
                },
                {
                    "name": "F4",
                    "midi": 65,
                    "time": 45.21441599999993,
                    "velocity": 0.5669291338582677,
                    "duration": 0.6991919999999965
                },
                {
                    "name": "D5",
                    "midi": 74,
                    "time": 45.21441599999993,
                    "velocity": 0.5669291338582677,
                    "duration": 0.6991919999999965
                },
                {
                    "name": "C5",
                    "midi": 72,
                    "time": 45.913607999999925,
                    "velocity": 0.41732283464566927,
                    "duration": 0.23306399999999883
                },
                {
                    "name": "E5",
                    "midi": 76,
                    "time": 46.146671999999924,
                    "velocity": 0.4409448818897638,
                    "duration": 0.23306399999999883
                },
                {
                    "name": "F5",
                    "midi": 77,
                    "time": 46.37973599999992,
                    "velocity": 0.41732283464566927,
                    "duration": 0.23306399999999883
                },
                {
                    "name": "F5",
                    "midi": 77,
                    "time": 46.61279999999992,
                    "velocity": 0.48031496062992124,
                    "duration": 0.23306399999999883
                },
                {
                    "name": "G4",
                    "midi": 67,
                    "time": 46.84586399999992,
                    "velocity": 0.41732283464566927,
                    "duration": 0.46612799999999766
                },
                {
                    "name": "A4",
                    "midi": 69,
                    "time": 47.31199199999992,
                    "velocity": 0.41732283464566927,
                    "duration": 0.23306399999999883
                },
                {
                    "name": "F5",
                    "midi": 77,
                    "time": 47.54505599999992,
                    "velocity": 0.48031496062992124,
                    "duration": 0.23306399999999883
                },
                {
                    "name": "G4",
                    "midi": 67,
                    "time": 47.778119999999916,
                    "velocity": 0.41732283464566927,
                    "duration": 0.46612799999999766
                },
                {
                    "name": "A4",
                    "midi": 69,
                    "time": 48.244247999999914,
                    "velocity": 0.41732283464566927,
                    "duration": 0.23306399999999883
                },
                {
                    "name": "C5",
                    "midi": 72,
                    "time": 48.47731199999991,
                    "velocity": 0.4566929133858268,
                    "duration": 0.46612799999999766
                },
                {
                    "name": "A#4",
                    "midi": 70,
                    "time": 48.94343999999991,
                    "velocity": 0.4094488188976378,
                    "duration": 0.05826600000000326
                },
                {
                    "name": "C5",
                    "midi": 72,
                    "time": 49.00170599999991,
                    "velocity": 0.3779527559055118,
                    "duration": 0.05826600000000326
                },
                {
                    "name": "A#4",
                    "midi": 70,
                    "time": 49.05997199999992,
                    "velocity": 0.4094488188976378,
                    "duration": 0.05826600000000326
                },
                {
                    "name": "C5",
                    "midi": 72,
                    "time": 49.11823799999992,
                    "velocity": 0.3779527559055118,
                    "duration": 0.05826600000000326
                },
                {
                    "name": "A#4",
                    "midi": 70,
                    "time": 49.17650399999992,
                    "velocity": 0.4094488188976378,
                    "duration": 0.038843999999997436
                },
                {
                    "name": "C5",
                    "midi": 72,
                    "time": 49.21534799999992,
                    "velocity": 0.3779527559055118,
                    "duration": 0.038843999999997436
                },
                {
                    "name": "A#4",
                    "midi": 70,
                    "time": 49.25419199999992,
                    "velocity": 0.3779527559055118,
                    "duration": 0.038843999999997436
                },
                {
                    "name": "A4",
                    "midi": 69,
                    "time": 49.293035999999915,
                    "velocity": 0.4094488188976378,
                    "duration": 0.05826600000000326
                },
                {
                    "name": "A#4",
                    "midi": 70,
                    "time": 49.35130199999992,
                    "velocity": 0.3858267716535433,
                    "duration": 0.05826600000000326
                },
                {
                    "name": "A4",
                    "midi": 69,
                    "time": 49.40956799999992,
                    "velocity": 0.44881889763779526,
                    "duration": 0.11653199999999941
                },
                {
                    "name": "A4",
                    "midi": 69,
                    "time": 49.64263199999992,
                    "velocity": 0.41732283464566927,
                    "duration": 0.23306399999999883
                },
                {
                    "name": "A#4",
                    "midi": 70,
                    "time": 49.87569599999992,
                    "velocity": 0.4409448818897638,
                    "duration": 0.23306399999999883
                },
                {
                    "name": "C5",
                    "midi": 72,
                    "time": 50.10875999999992,
                    "velocity": 0.41732283464566927,
                    "duration": 0.23306399999999883
                },
                {
                    "name": "C#5",
                    "midi": 73,
                    "time": 50.34182399999992,
                    "velocity": 0.5118110236220472,
                    "duration": 0.23306399999999883
                },
                {
                    "name": "D5",
                    "midi": 74,
                    "time": 50.574887999999916,
                    "velocity": 0.4251968503937008,
                    "duration": 0.46612799999999766
                },
                {
                    "name": "C5",
                    "midi": 72,
                    "time": 51.041015999999914,
                    "velocity": 0.4251968503937008,
                    "duration": 0.11653199999999941
                },
                {
                    "name": "A#4",
                    "midi": 70,
                    "time": 51.15754799999991,
                    "velocity": 0.3937007874015748,
                    "duration": 0.11653199999999941
                },
                {
                    "name": "A4",
                    "midi": 69,
                    "time": 51.27407999999991,
                    "velocity": 0.4251968503937008,
                    "duration": 0.23306399999999883
                },
                {
                    "name": "G4",
                    "midi": 67,
                    "time": 51.50714399999991,
                    "velocity": 0.41732283464566927,
                    "duration": 0.23306399999999883
                },
                {
                    "name": "A4",
                    "midi": 69,
                    "time": 51.74020799999991,
                    "velocity": 0.4251968503937008,
                    "duration": 0.23306399999999883
                },
                {
                    "name": "A#4",
                    "midi": 70,
                    "time": 51.97327199999991,
                    "velocity": 0.4094488188976378,
                    "duration": 0.23306399999999883
                },
                {
                    "name": "D5",
                    "midi": 74,
                    "time": 52.20633599999991,
                    "velocity": 0.49606299212598426,
                    "duration": 0.23306399999999883
                },
                {
                    "name": "C5",
                    "midi": 72,
                    "time": 52.43939999999991,
                    "velocity": 0.41732283464566927,
                    "duration": 0.46612799999999766
                },
                {
                    "name": "A#4",
                    "midi": 70,
                    "time": 52.905527999999904,
                    "velocity": 0.4251968503937008,
                    "duration": 0.11653199999999941
                },
                {
                    "name": "A4",
                    "midi": 69,
                    "time": 53.022059999999904,
                    "velocity": 0.4094488188976378,
                    "duration": 0.11653199999999941
                },
                {
                    "name": "G4",
                    "midi": 67,
                    "time": 53.1385919999999,
                    "velocity": 0.4409448818897638,
                    "duration": 0.23306399999999883
                },
                {
                    "name": "F4",
                    "midi": 65,
                    "time": 53.3716559999999,
                    "velocity": 0.4251968503937008,
                    "duration": 0.23306399999999883
                },
                {
                    "name": "G4",
                    "midi": 67,
                    "time": 53.6047199999999,
                    "velocity": 0.4251968503937008,
                    "duration": 0.23306399999999883
                },
                {
                    "name": "A4",
                    "midi": 69,
                    "time": 53.8377839999999,
                    "velocity": 0.4251968503937008,
                    "duration": 0.23306399999999883
                },
                {
                    "name": "C5",
                    "midi": 72,
                    "time": 54.0708479999999,
                    "velocity": 0.49606299212598426,
                    "duration": 0.23306399999999883
                },
                {
                    "name": "A#4",
                    "midi": 70,
                    "time": 54.3039119999999,
                    "velocity": 0.4015748031496063,
                    "duration": 0.46612799999999766
                },
                {
                    "name": "G4",
                    "midi": 67,
                    "time": 54.770039999999895,
                    "velocity": 0.4015748031496063,
                    "duration": 0.23306399999999883
                },
                {
                    "name": "A#4",
                    "midi": 70,
                    "time": 55.003103999999894,
                    "velocity": 0.4881889763779528,
                    "duration": 0.23306399999999883
                },
                {
                    "name": "A4",
                    "midi": 69,
                    "time": 55.23616799999989,
                    "velocity": 0.4094488188976378,
                    "duration": 0.46612799999999766
                },
                {
                    "name": "F4",
                    "midi": 65,
                    "time": 55.70229599999989,
                    "velocity": 0.4094488188976378,
                    "duration": 0.23306399999999883
                },
                {
                    "name": "E4",
                    "midi": 64,
                    "time": 55.93535999999989,
                    "velocity": 0.48031496062992124,
                    "duration": 0.11653199999999941
                },
                {
                    "name": "F4",
                    "midi": 65,
                    "time": 56.05189199999989,
                    "velocity": 0.41732283464566927,
                    "duration": 0.11653199999999941
                },
                {
                    "name": "G4",
                    "midi": 67,
                    "time": 56.16842399999989,
                    "velocity": 0.41732283464566927,
                    "duration": 0.11653199999999941
                },
                {
                    "name": "A4",
                    "midi": 69,
                    "time": 56.28495599999989,
                    "velocity": 0.3937007874015748,
                    "duration": 0.11653199999999941
                },
                {
                    "name": "B4",
                    "midi": 71,
                    "time": 56.40148799999989,
                    "velocity": 0.4645669291338583,
                    "duration": 0.11653199999999941
                },
                {
                    "name": "C5",
                    "midi": 72,
                    "time": 56.518019999999886,
                    "velocity": 0.4251968503937008,
                    "duration": 0.11653199999999941
                },
                {
                    "name": "B4",
                    "midi": 71,
                    "time": 56.634551999999886,
                    "velocity": 0.4251968503937008,
                    "duration": 0.11653199999999941
                },
                {
                    "name": "C5",
                    "midi": 72,
                    "time": 56.751083999999885,
                    "velocity": 0.4015748031496063,
                    "duration": 0.11653199999999941
                },
                {
                    "name": "C4",
                    "midi": 60,
                    "time": 56.867615999999884,
                    "velocity": 0.4409448818897638,
                    "duration": 0.46612799999999766
                },
                {
                    "name": "C5",
                    "midi": 72,
                    "time": 57.79987199999988,
                    "velocity": 0.5590551181102362,
                    "duration": 0.6991919999999965
                },
                {
                    "name": "A4",
                    "midi": 69,
                    "time": 57.79987199999988,
                    "velocity": 0.5590551181102362,
                    "duration": 0.6991919999999965
                },
                {
                    "name": "D5",
                    "midi": 74,
                    "time": 58.499063999999876,
                    "velocity": 0.4015748031496063,
                    "duration": 0.11653199999999941
                },
                {
                    "name": "C5",
                    "midi": 72,
                    "time": 58.615595999999876,
                    "velocity": 0.4015748031496063,
                    "duration": 0.11653199999999941
                },
                {
                    "name": "A#4",
                    "midi": 70,
                    "time": 58.732127999999875,
                    "velocity": 0.44881889763779526,
                    "duration": 0.11653199999999941
                },
                {
                    "name": "A4",
                    "midi": 69,
                    "time": 58.965191999999874,
                    "velocity": 0.3937007874015748,
                    "duration": 0.11653199999999941
                },
                {
                    "name": "G4",
                    "midi": 67,
                    "time": 59.19825599999987,
                    "velocity": 0.3937007874015748,
                    "duration": 0.11653199999999941
                },
                {
                    "name": "F4",
                    "midi": 65,
                    "time": 59.43131999999987,
                    "velocity": 0.3937007874015748,
                    "duration": 0.11653199999999941
                },
                {
                    "name": "F4",
                    "midi": 65,
                    "time": 59.66438399999987,
                    "velocity": 0.4251968503937008,
                    "duration": 0.23306399999999883
                },
                {
                    "name": "D5",
                    "midi": 74,
                    "time": 59.89744799999987,
                    "velocity": 0.3937007874015748,
                    "duration": 0.22335300000000302
                },
                {
                    "name": "D5",
                    "midi": 74,
                    "time": 60.130511999999875,
                    "velocity": 0.5590551181102362,
                    "duration": 0.6991920000000036
                },
                {
                    "name": "F4",
                    "midi": 65,
                    "time": 60.130511999999875,
                    "velocity": 0.5590551181102362,
                    "duration": 0.6991920000000036
                },
                {
                    "name": "C5",
                    "midi": 72,
                    "time": 60.82970399999988,
                    "velocity": 0.41732283464566927,
                    "duration": 0.23306399999999883
                },
                {
                    "name": "E5",
                    "midi": 76,
                    "time": 61.06276799999988,
                    "velocity": 0.5196850393700787,
                    "duration": 0.23306399999999883
                },
                {
                    "name": "F5",
                    "midi": 77,
                    "time": 61.295831999999876,
                    "velocity": 0.49606299212598426,
                    "duration": 0.46612799999999766
                },
                {
                    "name": "G4",
                    "midi": 67,
                    "time": 61.761959999999874,
                    "velocity": 0.41732283464566927,
                    "duration": 0.23306399999999883
                },
                {
                    "name": "A4",
                    "midi": 69,
                    "time": 61.99502399999987,
                    "velocity": 0.41732283464566927,
                    "duration": 0.23306399999999883
                },
                {
                    "name": "F5",
                    "midi": 77,
                    "time": 62.22808799999987,
                    "velocity": 0.5433070866141733,
                    "duration": 0.46612799999999766
                },
                {
                    "name": "G4",
                    "midi": 67,
                    "time": 62.69421599999987,
                    "velocity": 0.41732283464566927,
                    "duration": 0.23306399999999883
                },
                {
                    "name": "A4",
                    "midi": 69,
                    "time": 62.92727999999987,
                    "velocity": 0.41732283464566927,
                    "duration": 0.23306399999999883
                },
                {
                    "name": "F5",
                    "midi": 77,
                    "time": 63.16034399999987,
                    "velocity": 0.5433070866141733,
                    "duration": 0.11653199999999941
                },
                {
                    "name": "C5",
                    "midi": 72,
                    "time": 63.393407999999866,
                    "velocity": 0.4251968503937008,
                    "duration": 0.46612799999999766
                },
                {
                    "name": "B4",
                    "midi": 71,
                    "time": 63.85953599999986,
                    "velocity": 0.41732283464566927,
                    "duration": 0.23306399999999883
                },
                {
                    "name": "A#4",
                    "midi": 70,
                    "time": 64.09259999999986,
                    "velocity": 0.41732283464566927,
                    "duration": 0.23306399999999883
                },
                {
                    "name": "A4",
                    "midi": 69,
                    "time": 64.32566399999986,
                    "velocity": 0.3779527559055118,
                    "duration": 0.11653200000000652
                },
                {
                    "name": "A4",
                    "midi": 69,
                    "time": 64.55872799999987,
                    "velocity": 0.4251968503937008,
                    "duration": 0.23306399999999883
                },
                {
                    "name": "A#4",
                    "midi": 70,
                    "time": 64.79179199999987,
                    "velocity": 0.47244094488188976,
                    "duration": 0.23306399999999883
                },
                {
                    "name": "C5",
                    "midi": 72,
                    "time": 65.02485599999987,
                    "velocity": 0.5039370078740157,
                    "duration": 0.23306399999999883
                },
                {
                    "name": "C#5",
                    "midi": 73,
                    "time": 65.25791999999987,
                    "velocity": 0.5905511811023622,
                    "duration": 0.05826600000000326
                },
                {
                    "name": "D5",
                    "midi": 74,
                    "time": 65.31618599999987,
                    "velocity": 0.5511811023622047,
                    "duration": 0.6409259999999932
                },
                {
                    "name": "E5",
                    "midi": 76,
                    "time": 65.95711199999987,
                    "velocity": 0.5511811023622047,
                    "duration": 0.11653200000000652
                },
                {
                    "name": "F#5",
                    "midi": 78,
                    "time": 66.07364399999987,
                    "velocity": 0.5275590551181102,
                    "duration": 0.11653200000000652
                },
                {
                    "name": "G5",
                    "midi": 79,
                    "time": 66.19017599999988,
                    "velocity": 0.5511811023622047,
                    "duration": 0.11653200000000652
                },
                {
                    "name": "A5",
                    "midi": 81,
                    "time": 66.30670799999989,
                    "velocity": 0.5275590551181102,
                    "duration": 0.11653200000000652
                },
                {
                    "name": "A#5",
                    "midi": 82,
                    "time": 66.4232399999999,
                    "velocity": 0.5511811023622047,
                    "duration": 0.11653200000000652
                },
                {
                    "name": "A5",
                    "midi": 81,
                    "time": 66.5397719999999,
                    "velocity": 0.5275590551181102,
                    "duration": 0.11653200000000652
                },
                {
                    "name": "G5",
                    "midi": 79,
                    "time": 66.6563039999999,
                    "velocity": 0.5511811023622047,
                    "duration": 0.11653200000000652
                },
                {
                    "name": "A5",
                    "midi": 81,
                    "time": 66.77283599999991,
                    "velocity": 0.5275590551181102,
                    "duration": 0.11653200000000652
                },
                {
                    "name": "F5",
                    "midi": 77,
                    "time": 66.88936799999992,
                    "velocity": 0.5511811023622047,
                    "duration": 0.11653200000000652
                },
                {
                    "name": "G5",
                    "midi": 79,
                    "time": 67.00589999999993,
                    "velocity": 0.5275590551181102,
                    "duration": 0.11653200000000652
                },
                {
                    "name": "E5",
                    "midi": 76,
                    "time": 67.12243199999993,
                    "velocity": 0.5590551181102362,
                    "duration": 0.11653200000000652
                },
                {
                    "name": "F5",
                    "midi": 77,
                    "time": 67.23896399999994,
                    "velocity": 0.5196850393700787,
                    "duration": 0.11653200000000652
                },
                {
                    "name": "D5",
                    "midi": 74,
                    "time": 67.35549599999995,
                    "velocity": 0.5590551181102362,
                    "duration": 0.11653200000000652
                },
                {
                    "name": "E5",
                    "midi": 76,
                    "time": 67.47202799999995,
                    "velocity": 0.5275590551181102,
                    "duration": 0.11653200000000652
                },
                {
                    "name": "C5",
                    "midi": 72,
                    "time": 67.58855999999996,
                    "velocity": 0.5511811023622047,
                    "duration": 0.11653200000000652
                },
                {
                    "name": "D5",
                    "midi": 74,
                    "time": 67.70509199999996,
                    "velocity": 0.5118110236220472,
                    "duration": 0.11653200000000652
                },
                {
                    "name": "A#4",
                    "midi": 70,
                    "time": 67.82162399999997,
                    "velocity": 0.5354330708661418,
                    "duration": 0.11653200000000652
                },
                {
                    "name": "C5",
                    "midi": 72,
                    "time": 67.93815599999998,
                    "velocity": 0.48031496062992124,
                    "duration": 0.11653200000000652
                },
                {
                    "name": "A4",
                    "midi": 69,
                    "time": 68.05468799999998,
                    "velocity": 0.5196850393700787,
                    "duration": 0.11653200000000652
                },
                {
                    "name": "A#4",
                    "midi": 70,
                    "time": 68.17121999999999,
                    "velocity": 0.5039370078740157,
                    "duration": 0.11653200000000652
                },
                {
                    "name": "C5",
                    "midi": 72,
                    "time": 68.287752,
                    "velocity": 0.5354330708661418,
                    "duration": 0.11653200000000652
                },
                {
                    "name": "D5",
                    "midi": 74,
                    "time": 68.404284,
                    "velocity": 0.5039370078740157,
                    "duration": 0.11653200000000652
                },
                {
                    "name": "E5",
                    "midi": 76,
                    "time": 68.52081600000001,
                    "velocity": 0.5590551181102362,
                    "duration": 0.11653200000000652
                },
                {
                    "name": "F5",
                    "midi": 77,
                    "time": 68.63734800000002,
                    "velocity": 0.5354330708661418,
                    "duration": 0.11653200000000652
                },
                {
                    "name": "E5",
                    "midi": 76,
                    "time": 68.75388000000002,
                    "velocity": 0.5590551181102362,
                    "duration": 0.11653200000000652
                },
                {
                    "name": "F5",
                    "midi": 77,
                    "time": 68.87041200000003,
                    "velocity": 0.5354330708661418,
                    "duration": 0.11653200000000652
                },
                {
                    "name": "G5",
                    "midi": 79,
                    "time": 68.98694400000004,
                    "velocity": 0.5669291338582677,
                    "duration": 0.11653200000000652
                },
                {
                    "name": "F5",
                    "midi": 77,
                    "time": 69.10347600000004,
                    "velocity": 0.5511811023622047,
                    "duration": 0.11653200000000652
                },
                {
                    "name": "E5",
                    "midi": 76,
                    "time": 69.22000800000005,
                    "velocity": 0.5433070866141733,
                    "duration": 0.11653200000000652
                },
                {
                    "name": "D5",
                    "midi": 74,
                    "time": 69.33654000000006,
                    "velocity": 0.5275590551181102,
                    "duration": 0.11653200000000652
                },
                {
                    "name": "E5",
                    "midi": 76,
                    "time": 69.45307200000006,
                    "velocity": 0.5669291338582677,
                    "duration": 0.11653200000000652
                },
                {
                    "name": "D5",
                    "midi": 74,
                    "time": 69.56960400000007,
                    "velocity": 0.5511811023622047,
                    "duration": 0.11653200000000652
                },
                {
                    "name": "C5",
                    "midi": 72,
                    "time": 69.68613600000008,
                    "velocity": 0.5433070866141733,
                    "duration": 0.11653200000000652
                },
                {
                    "name": "A#4",
                    "midi": 70,
                    "time": 69.80266800000008,
                    "velocity": 0.5275590551181102,
                    "duration": 0.11653200000000652
                },
                {
                    "name": "A4",
                    "midi": 69,
                    "time": 69.91920000000009,
                    "velocity": 0.5590551181102362,
                    "duration": 0.46612799999999766
                },
                {
                    "name": "G4",
                    "midi": 67,
                    "time": 70.38532800000009,
                    "velocity": 0.4566929133858268,
                    "duration": 0.05826600000000326
                },
                {
                    "name": "E4",
                    "midi": 64,
                    "time": 70.38532800000009,
                    "velocity": 0.4566929133858268,
                    "duration": 0.46612800000001187
                },
                {
                    "name": "A4",
                    "midi": 69,
                    "time": 70.44359400000009,
                    "velocity": 0.4015748031496063,
                    "duration": 0.05826600000000326
                },
                {
                    "name": "G4",
                    "midi": 67,
                    "time": 70.5018600000001,
                    "velocity": 0.4566929133858268,
                    "duration": 0.05826600000000326
                },
                {
                    "name": "A4",
                    "midi": 69,
                    "time": 70.5601260000001,
                    "velocity": 0.4094488188976378,
                    "duration": 0.05826600000000326
                },
                {
                    "name": "G4",
                    "midi": 67,
                    "time": 70.6183920000001,
                    "velocity": 0.4566929133858268,
                    "duration": 0.038843999999997436
                },
                {
                    "name": "A4",
                    "midi": 69,
                    "time": 70.6572360000001,
                    "velocity": 0.41732283464566927,
                    "duration": 0.038843999999997436
                },
                {
                    "name": "G4",
                    "midi": 67,
                    "time": 70.6960800000001,
                    "velocity": 0.41732283464566927,
                    "duration": 0.038843999999997436
                },
                {
                    "name": "F4",
                    "midi": 65,
                    "time": 70.73492400000009,
                    "velocity": 0.5196850393700787,
                    "duration": 0.05826600000000326
                },
                {
                    "name": "G4",
                    "midi": 67,
                    "time": 70.7931900000001,
                    "velocity": 0.4881889763779528,
                    "duration": 0.05826600000000326
                },
                {
                    "name": "F4",
                    "midi": 65,
                    "time": 70.8514560000001,
                    "velocity": 0.5905511811023622,
                    "duration": 0.46612799999999766
                },
                {
                    "name": "A#5",
                    "midi": 82,
                    "time": 72.71596800000009,
                    "velocity": 0.7559055118110236,
                    "duration": 0.23306399999999883
                },
                {
                    "name": "G5",
                    "midi": 79,
                    "time": 72.94903200000009,
                    "velocity": 0.4881889763779528,
                    "duration": 0.11653200000000652
                },
                {
                    "name": "E5",
                    "midi": 76,
                    "time": 73.1820960000001,
                    "velocity": 0.5196850393700787,
                    "duration": 0.11653200000000652
                },
                {
                    "name": "E5",
                    "midi": 76,
                    "time": 73.41516000000011,
                    "velocity": 0.4881889763779528,
                    "duration": 0.11653200000000652
                },
                {
                    "name": "A#5",
                    "midi": 82,
                    "time": 73.64822400000013,
                    "velocity": 0.7559055118110236,
                    "duration": 0.23306399999999883
                },
                {
                    "name": "G5",
                    "midi": 79,
                    "time": 73.88128800000013,
                    "velocity": 0.4645669291338583,
                    "duration": 0.11653200000000652
                },
                {
                    "name": "E5",
                    "midi": 76,
                    "time": 74.11435200000014,
                    "velocity": 0.49606299212598426,
                    "duration": 0.11653200000000652
                },
                {
                    "name": "E5",
                    "midi": 76,
                    "time": 74.34741600000015,
                    "velocity": 0.47244094488188976,
                    "duration": 0.11653200000000652
                },
                {
                    "name": "F5",
                    "midi": 77,
                    "time": 74.58048000000016,
                    "velocity": 0.4881889763779528,
                    "duration": 0.11653200000000652
                },
                {
                    "name": "G5",
                    "midi": 79,
                    "time": 74.81354400000018,
                    "velocity": 0.49606299212598426,
                    "duration": 0.11653200000000652
                },
                {
                    "name": "A5",
                    "midi": 81,
                    "time": 75.04660800000019,
                    "velocity": 0.5039370078740157,
                    "duration": 0.11653200000000652
                },
                {
                    "name": "A#5",
                    "midi": 82,
                    "time": 75.2796720000002,
                    "velocity": 0.5196850393700787,
                    "duration": 0.11653200000000652
                },
                {
                    "name": "B5",
                    "midi": 83,
                    "time": 75.51273600000022,
                    "velocity": 0.7322834645669292,
                    "duration": 0.23306399999999883
                },
                {
                    "name": "C6",
                    "midi": 84,
                    "time": 75.74580000000022,
                    "velocity": 0.5905511811023622,
                    "duration": 0.23306399999999883
                },
                {
                    "name": "B5",
                    "midi": 83,
                    "time": 75.97886400000021,
                    "velocity": 0.7322834645669292,
                    "duration": 0.23306399999999883
                },
                {
                    "name": "C6",
                    "midi": 84,
                    "time": 76.21192800000021,
                    "velocity": 0.5905511811023622,
                    "duration": 0.23306399999999883
                },
                {
                    "name": "A#5",
                    "midi": 82,
                    "time": 76.44499200000021,
                    "velocity": 0.7480314960629921,
                    "duration": 0.23306399999999883
                },
                {
                    "name": "G5",
                    "midi": 79,
                    "time": 76.67805600000021,
                    "velocity": 0.4881889763779528,
                    "duration": 0.11653200000000652
                },
                {
                    "name": "E5",
                    "midi": 76,
                    "time": 76.91112000000022,
                    "velocity": 0.5275590551181102,
                    "duration": 0.11653200000000652
                },
                {
                    "name": "E5",
                    "midi": 76,
                    "time": 77.14418400000024,
                    "velocity": 0.4881889763779528,
                    "duration": 0.11653200000000652
                },
                {
                    "name": "A#5",
                    "midi": 82,
                    "time": 77.37724800000025,
                    "velocity": 0.7637795275590551,
                    "duration": 0.23306399999999883
                },
                {
                    "name": "G5",
                    "midi": 79,
                    "time": 77.61031200000025,
                    "velocity": 0.4645669291338583,
                    "duration": 0.11653200000000652
                },
                {
                    "name": "E5",
                    "midi": 76,
                    "time": 77.84337600000026,
                    "velocity": 0.5118110236220472,
                    "duration": 0.11653200000000652
                },
                {
                    "name": "E5",
                    "midi": 76,
                    "time": 78.07644000000028,
                    "velocity": 0.47244094488188976,
                    "duration": 0.11653200000000652
                },
                {
                    "name": "F5",
                    "midi": 77,
                    "time": 78.30950400000029,
                    "velocity": 0.4881889763779528,
                    "duration": 0.11653200000000652
                },
                {
                    "name": "G5",
                    "midi": 79,
                    "time": 78.5425680000003,
                    "velocity": 0.49606299212598426,
                    "duration": 0.11653200000000652
                },
                {
                    "name": "A5",
                    "midi": 81,
                    "time": 78.77563200000031,
                    "velocity": 0.5039370078740157,
                    "duration": 0.11653200000000652
                },
                {
                    "name": "A#5",
                    "midi": 82,
                    "time": 79.00869600000033,
                    "velocity": 0.5196850393700787,
                    "duration": 0.11653200000000652
                },
                {
                    "name": "B5",
                    "midi": 83,
                    "time": 79.24176000000034,
                    "velocity": 0.7322834645669292,
                    "duration": 0.23306399999999883
                },
                {
                    "name": "C6",
                    "midi": 84,
                    "time": 79.47482400000034,
                    "velocity": 0.5905511811023622,
                    "duration": 0.23306399999999883
                },
                {
                    "name": "B5",
                    "midi": 83,
                    "time": 79.70788800000034,
                    "velocity": 0.7322834645669292,
                    "duration": 0.23306399999999883
                },
                {
                    "name": "C6",
                    "midi": 84,
                    "time": 79.94095200000034,
                    "velocity": 0.5905511811023622,
                    "duration": 0.23306399999999883
                },
                {
                    "name": "D5",
                    "midi": 74,
                    "time": 80.17401600000034,
                    "velocity": 0.6141732283464567,
                    "duration": 0.9322559999999953
                },
                {
                    "name": "D6",
                    "midi": 86,
                    "time": 80.17401600000034,
                    "velocity": 0.6141732283464567,
                    "duration": 0.9322559999999953
                },
                {
                    "name": "E5",
                    "midi": 76,
                    "time": 81.10627200000033,
                    "velocity": 0.5039370078740157,
                    "duration": 0.9322559999999953
                },
                {
                    "name": "E4",
                    "midi": 64,
                    "time": 81.10627200000033,
                    "velocity": 0.5039370078740157,
                    "duration": 0.9322559999999953
                },
                {
                    "name": "A#4",
                    "midi": 70,
                    "time": 82.03852800000033,
                    "velocity": 0.5590551181102362,
                    "duration": 0.9322559999999953
                },
                {
                    "name": "A#5",
                    "midi": 82,
                    "time": 82.03852800000033,
                    "velocity": 0.5590551181102362,
                    "duration": 0.9322559999999953
                },
                {
                    "name": "A4",
                    "midi": 69,
                    "time": 82.97078400000032,
                    "velocity": 0.5196850393700787,
                    "duration": 0.9322559999999953
                },
                {
                    "name": "A5",
                    "midi": 81,
                    "time": 82.97078400000032,
                    "velocity": 0.5196850393700787,
                    "duration": 0.9322559999999953
                },
                {
                    "name": "A5",
                    "midi": 81,
                    "time": 83.90304000000032,
                    "velocity": 0.5905511811023622,
                    "duration": 0.11653200000000652
                },
                {
                    "name": "G5",
                    "midi": 79,
                    "time": 84.01957200000032,
                    "velocity": 0.5354330708661418,
                    "duration": 0.11653200000000652
                },
                {
                    "name": "A#5",
                    "midi": 82,
                    "time": 84.13610400000033,
                    "velocity": 0.5669291338582677,
                    "duration": 0.11653200000000652
                },
                {
                    "name": "A5",
                    "midi": 81,
                    "time": 84.25263600000034,
                    "velocity": 0.5354330708661418,
                    "duration": 0.11653200000000652
                },
                {
                    "name": "C6",
                    "midi": 84,
                    "time": 84.36916800000034,
                    "velocity": 0.5669291338582677,
                    "duration": 0.11653200000000652
                },
                {
                    "name": "A#5",
                    "midi": 82,
                    "time": 84.48570000000035,
                    "velocity": 0.5590551181102362,
                    "duration": 0.11653200000000652
                },
                {
                    "name": "A5",
                    "midi": 81,
                    "time": 84.60223200000036,
                    "velocity": 0.5590551181102362,
                    "duration": 0.11653200000000652
                },
                {
                    "name": "G5",
                    "midi": 79,
                    "time": 84.71876400000036,
                    "velocity": 0.5433070866141733,
                    "duration": 0.11653200000000652
                },
                {
                    "name": "F5",
                    "midi": 77,
                    "time": 84.83529600000037,
                    "velocity": 0.5669291338582677,
                    "duration": 0.46612799999999766
                },
                {
                    "name": "E5",
                    "midi": 76,
                    "time": 85.30142400000037,
                    "velocity": 0.49606299212598426,
                    "duration": 0.46612799999999766
                },
                {
                    "name": "F5",
                    "midi": 77,
                    "time": 86.00061600000036,
                    "velocity": 0.3543307086614173,
                    "duration": 0.23306399999999883
                },
                {
                    "name": "E5",
                    "midi": 76,
                    "time": 86.23368000000036,
                    "velocity": 0.3858267716535433,
                    "duration": 0.23306399999999883
                },
                {
                    "name": "F5",
                    "midi": 77,
                    "time": 86.46674400000036,
                    "velocity": 0.3543307086614173,
                    "duration": 0.23306399999999883
                },
                {
                    "name": "D#5",
                    "midi": 75,
                    "time": 86.93287200000036,
                    "velocity": 0.3543307086614173,
                    "duration": 0.23306399999999883
                },
                {
                    "name": "D5",
                    "midi": 74,
                    "time": 87.16593600000036,
                    "velocity": 0.3937007874015748,
                    "duration": 0.23306399999999883
                },
                {
                    "name": "D#5",
                    "midi": 75,
                    "time": 87.39900000000036,
                    "velocity": 0.36220472440944884,
                    "duration": 0.23306399999999883
                },
                {
                    "name": "D5",
                    "midi": 74,
                    "time": 87.86512800000035,
                    "velocity": 0.4251968503937008,
                    "duration": 0.23306399999999883
                },
                {
                    "name": "D6",
                    "midi": 86,
                    "time": 88.09819200000035,
                    "velocity": 0.5275590551181102,
                    "duration": 0.23306399999999883
                },
                {
                    "name": "D6",
                    "midi": 86,
                    "time": 88.33125600000035,
                    "velocity": 0.49606299212598426,
                    "duration": 0.11653200000000652
                },
                {
                    "name": "D6",
                    "midi": 86,
                    "time": 88.79738400000036,
                    "velocity": 0.48031496062992124,
                    "duration": 0.23306399999999883
                },
                {
                    "name": "D5",
                    "midi": 74,
                    "time": 89.03044800000036,
                    "velocity": 0.4015748031496063,
                    "duration": 0.23306399999999883
                },
                {
                    "name": "D5",
                    "midi": 74,
                    "time": 89.26351200000036,
                    "velocity": 0.3700787401574803,
                    "duration": 0.11653200000000652
                },
                {
                    "name": "C5",
                    "midi": 72,
                    "time": 89.72964000000037,
                    "velocity": 0.3858267716535433,
                    "duration": 0.23306399999999883
                },
                {
                    "name": "C6",
                    "midi": 84,
                    "time": 89.96270400000037,
                    "velocity": 0.4881889763779528,
                    "duration": 0.23306399999999883
                },
                {
                    "name": "C6",
                    "midi": 84,
                    "time": 90.19576800000037,
                    "velocity": 0.44881889763779526,
                    "duration": 0.11653200000000652
                },
                {
                    "name": "C6",
                    "midi": 84,
                    "time": 90.66189600000038,
                    "velocity": 0.4409448818897638,
                    "duration": 0.23306399999999883
                },
                {
                    "name": "C5",
                    "midi": 72,
                    "time": 90.89496000000038,
                    "velocity": 0.3779527559055118,
                    "duration": 0.23306399999999883
                },
                {
                    "name": "C5",
                    "midi": 72,
                    "time": 91.12802400000038,
                    "velocity": 0.3543307086614173,
                    "duration": 0.11653200000000652
                },
                {
                    "name": "C#5",
                    "midi": 73,
                    "time": 91.3610880000004,
                    "velocity": 0.36220472440944884,
                    "duration": 0.23306399999999883
                },
                {
                    "name": "D5",
                    "midi": 74,
                    "time": 91.59415200000039,
                    "velocity": 0.3937007874015748,
                    "duration": 0.23306399999999883
                },
                {
                    "name": "E5",
                    "midi": 76,
                    "time": 91.82721600000039,
                    "velocity": 0.4251968503937008,
                    "duration": 0.23306399999999883
                },
                {
                    "name": "F5",
                    "midi": 77,
                    "time": 92.06028000000039,
                    "velocity": 0.3858267716535433,
                    "duration": 0.23306399999999883
                },
                {
                    "name": "F4",
                    "midi": 65,
                    "time": 92.29334400000039,
                    "velocity": 0.3543307086614173,
                    "duration": 0.46612799999999766
                },
                {
                    "name": "E4",
                    "midi": 64,
                    "time": 92.75947200000039,
                    "velocity": 0.33070866141732286,
                    "duration": 0.46612799999999766
                },
                {
                    "name": "A4",
                    "midi": 69,
                    "time": 92.75947200000039,
                    "velocity": 0.33070866141732286,
                    "duration": 0.23306399999999883
                },
                {
                    "name": "G4",
                    "midi": 67,
                    "time": 92.99253600000038,
                    "velocity": 0.33070866141732286,
                    "duration": 0.23306399999999883
                },
                {
                    "name": "F4",
                    "midi": 65,
                    "time": 93.22560000000038,
                    "velocity": 0.3543307086614173,
                    "duration": 0.11653200000000652
                },
                {
                    "name": "F4",
                    "midi": 65,
                    "time": 93.4586640000004,
                    "velocity": 0.3700787401574803,
                    "duration": 0.11653200000000652
                },
                {
                    "name": "A4",
                    "midi": 69,
                    "time": 93.5751960000004,
                    "velocity": 0.3543307086614173,
                    "duration": 0.11653200000000652
                },
                {
                    "name": "G4",
                    "midi": 67,
                    "time": 93.69172800000041,
                    "velocity": 0.3700787401574803,
                    "duration": 0.11653200000000652
                },
                {
                    "name": "A#4",
                    "midi": 70,
                    "time": 93.80826000000042,
                    "velocity": 0.3543307086614173,
                    "duration": 0.11653200000000652
                },
                {
                    "name": "A4",
                    "midi": 69,
                    "time": 93.92479200000042,
                    "velocity": 0.3700787401574803,
                    "duration": 0.11653200000000652
                },
                {
                    "name": "C5",
                    "midi": 72,
                    "time": 94.04132400000043,
                    "velocity": 0.3543307086614173,
                    "duration": 0.11653200000000652
                },
                {
                    "name": "A#4",
                    "midi": 70,
                    "time": 94.15785600000044,
                    "velocity": 0.3779527559055118,
                    "duration": 0.11653200000000652
                },
                {
                    "name": "F4",
                    "midi": 65,
                    "time": 94.39092000000045,
                    "velocity": 0.4094488188976378,
                    "duration": 0.11653200000000652
                },
                {
                    "name": "A4",
                    "midi": 69,
                    "time": 94.50745200000046,
                    "velocity": 0.3779527559055118,
                    "duration": 0.11653200000000652
                },
                {
                    "name": "G4",
                    "midi": 67,
                    "time": 94.62398400000046,
                    "velocity": 0.4094488188976378,
                    "duration": 0.11653200000000652
                },
                {
                    "name": "A#4",
                    "midi": 70,
                    "time": 94.74051600000047,
                    "velocity": 0.3779527559055118,
                    "duration": 0.11653200000000652
                },
                {
                    "name": "A4",
                    "midi": 69,
                    "time": 94.85704800000047,
                    "velocity": 0.4094488188976378,
                    "duration": 0.11653200000000652
                },
                {
                    "name": "C5",
                    "midi": 72,
                    "time": 94.97358000000048,
                    "velocity": 0.3779527559055118,
                    "duration": 0.11653200000000652
                },
                {
                    "name": "A#4",
                    "midi": 70,
                    "time": 95.09011200000049,
                    "velocity": 0.4094488188976378,
                    "duration": 0.11653200000000652
                },
                {
                    "name": "F4",
                    "midi": 65,
                    "time": 95.3231760000005,
                    "velocity": 0.3779527559055118,
                    "duration": 0.11653200000000652
                },
                {
                    "name": "A4",
                    "midi": 69,
                    "time": 95.43970800000051,
                    "velocity": 0.3937007874015748,
                    "duration": 0.11653200000000652
                },
                {
                    "name": "G4",
                    "midi": 67,
                    "time": 95.55624000000051,
                    "velocity": 0.4094488188976378,
                    "duration": 0.11653200000000652
                },
                {
                    "name": "A#4",
                    "midi": 70,
                    "time": 95.67277200000052,
                    "velocity": 0.41732283464566927,
                    "duration": 0.11653200000000652
                },
                {
                    "name": "A4",
                    "midi": 69,
                    "time": 95.78930400000053,
                    "velocity": 0.4251968503937008,
                    "duration": 0.11653200000000652
                },
                {
                    "name": "C5",
                    "midi": 72,
                    "time": 95.90583600000053,
                    "velocity": 0.44881889763779526,
                    "duration": 0.11653200000000652
                },
                {
                    "name": "A#4",
                    "midi": 70,
                    "time": 96.02236800000054,
                    "velocity": 0.4566929133858268,
                    "duration": 0.11653200000000652
                },
                {
                    "name": "D5",
                    "midi": 74,
                    "time": 96.13890000000055,
                    "velocity": 0.47244094488188976,
                    "duration": 0.11653200000000652
                },
                {
                    "name": "C5",
                    "midi": 72,
                    "time": 96.25543200000055,
                    "velocity": 0.48031496062992124,
                    "duration": 0.11653200000000652
                },
                {
                    "name": "D#5",
                    "midi": 75,
                    "time": 96.37196400000056,
                    "velocity": 0.49606299212598426,
                    "duration": 0.11653200000000652
                },
                {
                    "name": "D5",
                    "midi": 74,
                    "time": 96.48849600000057,
                    "velocity": 0.5039370078740157,
                    "duration": 0.11653200000000652
                },
                {
                    "name": "F5",
                    "midi": 77,
                    "time": 96.60502800000057,
                    "velocity": 0.5118110236220472,
                    "duration": 0.11653200000000652
                },
                {
                    "name": "E5",
                    "midi": 76,
                    "time": 96.72156000000058,
                    "velocity": 0.5275590551181102,
                    "duration": 0.11653200000000652
                },
                {
                    "name": "G5",
                    "midi": 79,
                    "time": 96.83809200000059,
                    "velocity": 0.5433070866141733,
                    "duration": 0.11653200000000652
                },
                {
                    "name": "F5",
                    "midi": 77,
                    "time": 96.95462400000059,
                    "velocity": 0.5511811023622047,
                    "duration": 0.11653200000000652
                },
                {
                    "name": "G5",
                    "midi": 79,
                    "time": 97.0711560000006,
                    "velocity": 0.5669291338582677,
                    "duration": 0.11653200000000652
                },
                {
                    "name": "A5",
                    "midi": 81,
                    "time": 97.1876880000006,
                    "velocity": 0.5905511811023622,
                    "duration": 0.11653200000000652
                },
                {
                    "name": "G5",
                    "midi": 79,
                    "time": 97.30422000000061,
                    "velocity": 0.5905511811023622,
                    "duration": 0.11653200000000652
                },
                {
                    "name": "F5",
                    "midi": 77,
                    "time": 97.42075200000062,
                    "velocity": 0.5748031496062992,
                    "duration": 0.11653200000000652
                },
                {
                    "name": "D#5",
                    "midi": 75,
                    "time": 97.53728400000062,
                    "velocity": 0.5669291338582677,
                    "duration": 0.11653200000000652
                },
                {
                    "name": "D5",
                    "midi": 74,
                    "time": 97.65381600000063,
                    "velocity": 0.5590551181102362,
                    "duration": 0.11653200000000652
                },
                {
                    "name": "C#5",
                    "midi": 73,
                    "time": 97.77034800000064,
                    "velocity": 0.5511811023622047,
                    "duration": 0.11653200000000652
                },
                {
                    "name": "D5",
                    "midi": 74,
                    "time": 97.88688000000064,
                    "velocity": 0.5669291338582677,
                    "duration": 0.11653200000000652
                },
                {
                    "name": "C5",
                    "midi": 72,
                    "time": 98.00341200000065,
                    "velocity": 0.5433070866141733,
                    "duration": 0.11653200000000652
                },
                {
                    "name": "A#4",
                    "midi": 70,
                    "time": 98.11994400000066,
                    "velocity": 0.5590551181102362,
                    "duration": 0.11653200000000652
                },
                {
                    "name": "A4",
                    "midi": 69,
                    "time": 98.23647600000066,
                    "velocity": 0.5354330708661418,
                    "duration": 0.11653200000000652
                },
                {
                    "name": "G4",
                    "midi": 67,
                    "time": 98.35300800000067,
                    "velocity": 0.5511811023622047,
                    "duration": 0.11653200000000652
                },
                {
                    "name": "F4",
                    "midi": 65,
                    "time": 98.46954000000068,
                    "velocity": 0.5275590551181102,
                    "duration": 0.11653200000000652
                },
                {
                    "name": "E4",
                    "midi": 64,
                    "time": 98.58607200000068,
                    "velocity": 0.5433070866141733,
                    "duration": 0.11653200000000652
                },
                {
                    "name": "D4",
                    "midi": 62,
                    "time": 98.70260400000069,
                    "velocity": 0.5118110236220472,
                    "duration": 0.11653200000000652
                },
                {
                    "name": "C4",
                    "midi": 60,
                    "time": 98.8191360000007,
                    "velocity": 0.5354330708661418,
                    "duration": 0.11653200000000652
                },
                {
                    "name": "F4",
                    "midi": 65,
                    "time": 98.9356680000007,
                    "velocity": 0.5118110236220472,
                    "duration": 0.11653200000000652
                },
                {
                    "name": "A4",
                    "midi": 69,
                    "time": 99.05220000000071,
                    "velocity": 0.5354330708661418,
                    "duration": 0.11653200000000652
                },
                {
                    "name": "C5",
                    "midi": 72,
                    "time": 99.16873200000072,
                    "velocity": 0.5118110236220472,
                    "duration": 0.11653200000000652
                },
                {
                    "name": "F5",
                    "midi": 77,
                    "time": 99.28526400000072,
                    "velocity": 0.5669291338582677,
                    "duration": 0.11653200000000652
                },
                {
                    "name": "F4",
                    "midi": 65,
                    "time": 99.51832800000074,
                    "velocity": 0.4645669291338583,
                    "duration": 0.11653200000000652
                },
                {
                    "name": "A4",
                    "midi": 69,
                    "time": 99.51832800000074,
                    "velocity": 0.4645669291338583,
                    "duration": 0.11653200000000652
                },
                {
                    "name": "A4",
                    "midi": 69,
                    "time": 99.75139200000075,
                    "velocity": 0.5039370078740157,
                    "duration": 0.23306399999999883
                },
                {
                    "name": "C5",
                    "midi": 72,
                    "time": 99.75139200000075,
                    "velocity": 0.5039370078740157,
                    "duration": 0.23306399999999883
                },
                {
                    "name": "A#4",
                    "midi": 70,
                    "time": 99.98445600000075,
                    "velocity": 0.47244094488188976,
                    "duration": 0.11653200000000652
                },
                {
                    "name": "G4",
                    "midi": 67,
                    "time": 99.98445600000075,
                    "velocity": 0.47244094488188976,
                    "duration": 0.11653200000000652
                },
                {
                    "name": "A4",
                    "midi": 69,
                    "time": 100.21752000000076,
                    "velocity": 0.48031496062992124,
                    "duration": 0.11653200000000652
                },
                {
                    "name": "F4",
                    "midi": 65,
                    "time": 100.21752000000076,
                    "velocity": 0.48031496062992124,
                    "duration": 0.11653200000000652
                },
                {
                    "name": "E4",
                    "midi": 64,
                    "time": 100.45058400000077,
                    "velocity": 0.4566929133858268,
                    "duration": 0.11653200000000652
                },
                {
                    "name": "G4",
                    "midi": 67,
                    "time": 100.45058400000077,
                    "velocity": 0.4566929133858268,
                    "duration": 0.11653200000000652
                },
                {
                    "name": "F4",
                    "midi": 65,
                    "time": 100.68364800000079,
                    "velocity": 0.48031496062992124,
                    "duration": 0.11653200000000652
                },
                {
                    "name": "F5",
                    "midi": 77,
                    "time": 100.9167120000008,
                    "velocity": 0.3700787401574803,
                    "duration": 0.11653200000000652
                },
                {
                    "name": "A5",
                    "midi": 81,
                    "time": 101.0332440000008,
                    "velocity": 0.3543307086614173,
                    "duration": 0.11653200000000652
                },
                {
                    "name": "G5",
                    "midi": 79,
                    "time": 101.14977600000081,
                    "velocity": 0.3700787401574803,
                    "duration": 0.11653200000000652
                },
                {
                    "name": "A#5",
                    "midi": 82,
                    "time": 101.26630800000082,
                    "velocity": 0.3543307086614173,
                    "duration": 0.11653200000000652
                },
                {
                    "name": "A5",
                    "midi": 81,
                    "time": 101.38284000000083,
                    "velocity": 0.3700787401574803,
                    "duration": 0.11653200000000652
                },
                {
                    "name": "C6",
                    "midi": 84,
                    "time": 101.49937200000083,
                    "velocity": 0.3543307086614173,
                    "duration": 0.11653200000000652
                },
                {
                    "name": "A#5",
                    "midi": 82,
                    "time": 101.61590400000084,
                    "velocity": 0.3779527559055118,
                    "duration": 0.11653200000000652
                },
                {
                    "name": "F5",
                    "midi": 77,
                    "time": 101.84896800000085,
                    "velocity": 0.4251968503937008,
                    "duration": 0.11653200000000652
                },
                {
                    "name": "A5",
                    "midi": 81,
                    "time": 101.96550000000086,
                    "velocity": 0.3937007874015748,
                    "duration": 0.11653200000000652
                },
                {
                    "name": "G5",
                    "midi": 79,
                    "time": 102.08203200000086,
                    "velocity": 0.4251968503937008,
                    "duration": 0.11653200000000652
                },
                {
                    "name": "A#5",
                    "midi": 82,
                    "time": 102.19856400000087,
                    "velocity": 0.4015748031496063,
                    "duration": 0.11653200000000652
                },
                {
                    "name": "A5",
                    "midi": 81,
                    "time": 102.31509600000088,
                    "velocity": 0.4251968503937008,
                    "duration": 0.11653200000000652
                },
                {
                    "name": "C6",
                    "midi": 84,
                    "time": 102.43162800000088,
                    "velocity": 0.3937007874015748,
                    "duration": 0.11653200000000652
                },
                {
                    "name": "A#5",
                    "midi": 82,
                    "time": 102.54816000000089,
                    "velocity": 0.4251968503937008,
                    "duration": 0.11653200000000652
                },
                {
                    "name": "F5",
                    "midi": 77,
                    "time": 102.7812240000009,
                    "velocity": 0.4330708661417323,
                    "duration": 0.11653200000000652
                },
                {
                    "name": "A5",
                    "midi": 81,
                    "time": 102.89775600000091,
                    "velocity": 0.4409448818897638,
                    "duration": 0.11653200000000652
                },
                {
                    "name": "G5",
                    "midi": 79,
                    "time": 103.01428800000092,
                    "velocity": 0.4566929133858268,
                    "duration": 0.11653200000000652
                },
                {
                    "name": "A#5",
                    "midi": 82,
                    "time": 103.13082000000092,
                    "velocity": 0.4645669291338583,
                    "duration": 0.11653200000000652
                },
                {
                    "name": "A5",
                    "midi": 81,
                    "time": 103.24735200000093,
                    "velocity": 0.48031496062992124,
                    "duration": 0.11653200000000652
                },
                {
                    "name": "C6",
                    "midi": 84,
                    "time": 103.36388400000094,
                    "velocity": 0.49606299212598426,
                    "duration": 0.11653200000000652
                },
                {
                    "name": "A#5",
                    "midi": 82,
                    "time": 103.48041600000094,
                    "velocity": 0.5039370078740157,
                    "duration": 0.11653200000000652
                },
                {
                    "name": "F5",
                    "midi": 77,
                    "time": 103.59694800000095,
                    "velocity": 0.5275590551181102,
                    "duration": 0.11653200000000652
                },
                {
                    "name": "C6",
                    "midi": 84,
                    "time": 103.71348000000096,
                    "velocity": 0.5354330708661418,
                    "duration": 0.11653200000000652
                },
                {
                    "name": "F5",
                    "midi": 77,
                    "time": 103.83001200000096,
                    "velocity": 0.5433070866141733,
                    "duration": 0.11653200000000652
                },
                {
                    "name": "D6",
                    "midi": 86,
                    "time": 103.94654400000097,
                    "velocity": 0.5511811023622047,
                    "duration": 0.11653200000000652
                },
                {
                    "name": "F5",
                    "midi": 77,
                    "time": 104.06307600000098,
                    "velocity": 0.5669291338582677,
                    "duration": 0.11653200000000652
                },
                {
                    "name": "E6",
                    "midi": 88,
                    "time": 104.17960800000098,
                    "velocity": 0.5826771653543307,
                    "duration": 0.11653200000000652
                },
                {
                    "name": "F5",
                    "midi": 77,
                    "time": 104.29614000000099,
                    "velocity": 0.5905511811023622,
                    "duration": 0.11653200000000652
                },
                {
                    "name": "F6",
                    "midi": 89,
                    "time": 104.412672000001,
                    "velocity": 0.6141732283464567,
                    "duration": 0.11653200000000652
                },
                {
                    "name": "E6",
                    "midi": 88,
                    "time": 104.529204000001,
                    "velocity": 0.6141732283464567,
                    "duration": 0.11653200000000652
                },
                {
                    "name": "D6",
                    "midi": 86,
                    "time": 104.64573600000101,
                    "velocity": 0.6062992125984252,
                    "duration": 0.11653200000000652
                },
                {
                    "name": "C6",
                    "midi": 84,
                    "time": 104.76226800000101,
                    "velocity": 0.5905511811023622,
                    "duration": 0.11653200000000652
                },
                {
                    "name": "A#5",
                    "midi": 82,
                    "time": 104.87880000000102,
                    "velocity": 0.5826771653543307,
                    "duration": 0.11653200000000652
                },
                {
                    "name": "A5",
                    "midi": 81,
                    "time": 104.99533200000103,
                    "velocity": 0.5748031496062992,
                    "duration": 0.11653200000000652
                },
                {
                    "name": "G5",
                    "midi": 79,
                    "time": 105.11186400000103,
                    "velocity": 0.5669291338582677,
                    "duration": 0.11653200000000652
                },
                {
                    "name": "F5",
                    "midi": 77,
                    "time": 105.22839600000104,
                    "velocity": 0.5590551181102362,
                    "duration": 0.11653200000000652
                },
                {
                    "name": "D6",
                    "midi": 86,
                    "time": 105.34492800000105,
                    "velocity": 0.6220472440944882,
                    "duration": 0.11653200000000652
                },
                {
                    "name": "C6",
                    "midi": 84,
                    "time": 105.46146000000105,
                    "velocity": 0.5905511811023622,
                    "duration": 0.11653200000000652
                },
                {
                    "name": "A#5",
                    "midi": 82,
                    "time": 105.57799200000106,
                    "velocity": 0.6141732283464567,
                    "duration": 0.11653200000000652
                },
                {
                    "name": "A5",
                    "midi": 81,
                    "time": 105.69452400000107,
                    "velocity": 0.6062992125984252,
                    "duration": 0.11653200000000652
                },
                {
                    "name": "G5",
                    "midi": 79,
                    "time": 105.81105600000107,
                    "velocity": 0.5905511811023622,
                    "duration": 0.11653200000000652
                },
                {
                    "name": "F5",
                    "midi": 77,
                    "time": 105.92758800000108,
                    "velocity": 0.5590551181102362,
                    "duration": 0.11653200000000652
                },
                {
                    "name": "E5",
                    "midi": 76,
                    "time": 106.04412000000109,
                    "velocity": 0.5748031496062992,
                    "duration": 0.11653200000000652
                },
                {
                    "name": "D5",
                    "midi": 74,
                    "time": 106.1606520000011,
                    "velocity": 0.5511811023622047,
                    "duration": 0.11653200000000652
                },
                {
                    "name": "C5",
                    "midi": 72,
                    "time": 106.2771840000011,
                    "velocity": 0.6141732283464567,
                    "duration": 0.23306399999999883
                },
                {
                    "name": "C6",
                    "midi": 84,
                    "time": 106.5102480000011,
                    "velocity": 0.5905511811023622,
                    "duration": 0.11653200000000652
                },
                {
                    "name": "C6",
                    "midi": 84,
                    "time": 106.74331200000111,
                    "velocity": 0.6141732283464567,
                    "duration": 0.11653200000000652
                },
                {
                    "name": "C6",
                    "midi": 84,
                    "time": 106.97637600000112,
                    "velocity": 0.6062992125984252,
                    "duration": 0.11653200000000652
                },
                {
                    "name": "C6",
                    "midi": 84,
                    "time": 107.20944000000114,
                    "velocity": 0.5905511811023622,
                    "duration": 0.11653200000000652
                },
                {
                    "name": "A5",
                    "midi": 81,
                    "time": 107.32597200000114,
                    "velocity": 0.5669291338582677,
                    "duration": 0.11653200000000652
                },
                {
                    "name": "F5",
                    "midi": 77,
                    "time": 107.44250400000115,
                    "velocity": 0.5511811023622047,
                    "duration": 0.11653200000000652
                },
                {
                    "name": "C5",
                    "midi": 72,
                    "time": 107.55903600000116,
                    "velocity": 0.5511811023622047,
                    "duration": 0.11653200000000652
                },
                {
                    "name": "F5",
                    "midi": 77,
                    "time": 107.67556800000116,
                    "velocity": 0.5905511811023622,
                    "duration": 0.11653200000000652
                },
                {
                    "name": "C5",
                    "midi": 72,
                    "time": 107.79210000000117,
                    "velocity": 0.5748031496062992,
                    "duration": 0.11653200000000652
                },
                {
                    "name": "A4",
                    "midi": 69,
                    "time": 107.90863200000118,
                    "velocity": 0.5511811023622047,
                    "duration": 0.11653200000000652
                },
                {
                    "name": "F4",
                    "midi": 65,
                    "time": 108.02516400000118,
                    "velocity": 0.5511811023622047,
                    "duration": 0.11653200000000652
                },
                {
                    "name": "G4",
                    "midi": 67,
                    "time": 108.14169600000119,
                    "velocity": 0.4015748031496063,
                    "duration": 0.07768799999999487
                },
                {
                    "name": "A4",
                    "midi": 69,
                    "time": 108.21938400000118,
                    "velocity": 0.36220472440944884,
                    "duration": 0.07768799999999487
                },
                {
                    "name": "G4",
                    "midi": 67,
                    "time": 108.29707200000118,
                    "velocity": 0.4015748031496063,
                    "duration": 0.07768799999999487
                },
                {
                    "name": "A4",
                    "midi": 69,
                    "time": 108.37476000000117,
                    "velocity": 0.36220472440944884,
                    "duration": 0.07768799999999487
                },
                {
                    "name": "G4",
                    "midi": 67,
                    "time": 108.45244800000117,
                    "velocity": 0.4015748031496063,
                    "duration": 0.07768799999999487
                },
                {
                    "name": "A4",
                    "midi": 69,
                    "time": 108.53013600000116,
                    "velocity": 0.36220472440944884,
                    "duration": 0.07768799999999487
                },
                {
                    "name": "G4",
                    "midi": 67,
                    "time": 108.60782400000116,
                    "velocity": 0.4015748031496063,
                    "duration": 0.07768799999999487
                },
                {
                    "name": "A4",
                    "midi": 69,
                    "time": 108.68551200000115,
                    "velocity": 0.36220472440944884,
                    "duration": 0.07768799999999487
                },
                {
                    "name": "G4",
                    "midi": 67,
                    "time": 108.76320000000115,
                    "velocity": 0.4015748031496063,
                    "duration": 0.07768799999999487
                },
                {
                    "name": "A4",
                    "midi": 69,
                    "time": 108.84088800000114,
                    "velocity": 0.36220472440944884,
                    "duration": 0.07768799999999487
                },
                {
                    "name": "G4",
                    "midi": 67,
                    "time": 108.91857600000114,
                    "velocity": 0.4015748031496063,
                    "duration": 0.07768799999999487
                },
                {
                    "name": "A4",
                    "midi": 69,
                    "time": 108.99626400000113,
                    "velocity": 0.36220472440944884,
                    "duration": 0.07768799999999487
                },
                {
                    "name": "G4",
                    "midi": 67,
                    "time": 109.07395200000113,
                    "velocity": 0.4015748031496063,
                    "duration": 0.07768799999999487
                },
                {
                    "name": "A4",
                    "midi": 69,
                    "time": 109.15164000000112,
                    "velocity": 0.36220472440944884,
                    "duration": 0.07768799999999487
                },
                {
                    "name": "G4",
                    "midi": 67,
                    "time": 109.22932800000112,
                    "velocity": 0.4015748031496063,
                    "duration": 0.07768799999999487
                },
                {
                    "name": "A4",
                    "midi": 69,
                    "time": 109.30701600000111,
                    "velocity": 0.3779527559055118,
                    "duration": 0.07768799999999487
                },
                {
                    "name": "G4",
                    "midi": 67,
                    "time": 109.38470400000111,
                    "velocity": 0.4015748031496063,
                    "duration": 0.07768799999999487
                },
                {
                    "name": "A4",
                    "midi": 69,
                    "time": 109.4623920000011,
                    "velocity": 0.3700787401574803,
                    "duration": 0.07768799999999487
                },
                {
                    "name": "G4",
                    "midi": 67,
                    "time": 109.5400800000011,
                    "velocity": 0.4015748031496063,
                    "duration": 0.05826600000000326
                },
                {
                    "name": "A4",
                    "midi": 69,
                    "time": 109.5983460000011,
                    "velocity": 0.3779527559055118,
                    "duration": 0.05826600000000326
                },
                {
                    "name": "G4",
                    "midi": 67,
                    "time": 109.6566120000011,
                    "velocity": 0.4015748031496063,
                    "duration": 0.05826600000000326
                },
                {
                    "name": "A4",
                    "midi": 69,
                    "time": 109.71487800000111,
                    "velocity": 0.3700787401574803,
                    "duration": 0.05826600000000326
                },
                {
                    "name": "G4",
                    "midi": 67,
                    "time": 109.77314400000111,
                    "velocity": 0.4015748031496063,
                    "duration": 0.038843999999997436
                },
                {
                    "name": "A4",
                    "midi": 69,
                    "time": 109.81198800000111,
                    "velocity": 0.3779527559055118,
                    "duration": 0.038843999999997436
                },
                {
                    "name": "G4",
                    "midi": 67,
                    "time": 109.8508320000011,
                    "velocity": 0.3779527559055118,
                    "duration": 0.038843999999997436
                },
                {
                    "name": "F4",
                    "midi": 65,
                    "time": 109.8896760000011,
                    "velocity": 0.4881889763779528,
                    "duration": 0.05826600000000326
                },
                {
                    "name": "G4",
                    "midi": 67,
                    "time": 109.9479420000011,
                    "velocity": 0.4566929133858268,
                    "duration": 0.05826600000000326
                },
                {
                    "name": "F4",
                    "midi": 65,
                    "time": 110.00620800000111,
                    "velocity": 0.5590551181102362,
                    "duration": 0.22335300000000302
                },
                {
                    "name": "F5",
                    "midi": 77,
                    "time": 110.23927200000111,
                    "velocity": 0.4251968503937008,
                    "duration": 0.23306399999999883
                },
                {
                    "name": "F5",
                    "midi": 77,
                    "time": 110.7054000000011,
                    "velocity": 0.41732283464566927,
                    "duration": 0.23306399999999883
                },
                {
                    "name": "E5",
                    "midi": 76,
                    "time": 110.9384640000011,
                    "velocity": 0.4015748031496063,
                    "duration": 0.23306399999999883
                },
                {
                    "name": "F5",
                    "midi": 77,
                    "time": 111.1715280000011,
                    "velocity": 0.4566929133858268,
                    "duration": 0.23306399999999883
                },
                {
                    "name": "G5",
                    "midi": 79,
                    "time": 111.4045920000011,
                    "velocity": 0.47244094488188976,
                    "duration": 0.23306399999999883
                },
                {
                    "name": "A5",
                    "midi": 81,
                    "time": 111.6376560000011,
                    "velocity": 0.5196850393700787,
                    "duration": 0.23306399999999883
                },
                {
                    "name": "A#5",
                    "midi": 82,
                    "time": 111.8707200000011,
                    "velocity": 0.5511811023622047,
                    "duration": 0.11653200000000652
                },
                {
                    "name": "C6",
                    "midi": 84,
                    "time": 111.9872520000011,
                    "velocity": 0.5354330708661418,
                    "duration": 0.11653200000000652
                },
                {
                    "name": "D6",
                    "midi": 86,
                    "time": 112.10378400000111,
                    "velocity": 0.5669291338582677,
                    "duration": 0.11653200000000652
                },
                {
                    "name": "C6",
                    "midi": 84,
                    "time": 112.22031600000112,
                    "velocity": 0.5275590551181102,
                    "duration": 0.11653200000000652
                },
                {
                    "name": "A#5",
                    "midi": 82,
                    "time": 112.33684800000113,
                    "velocity": 0.5511811023622047,
                    "duration": 0.11653200000000652
                },
                {
                    "name": "G#5",
                    "midi": 80,
                    "time": 112.45338000000113,
                    "velocity": 0.5275590551181102,
                    "duration": 0.11653200000000652
                },
                {
                    "name": "G5",
                    "midi": 79,
                    "time": 112.56991200000114,
                    "velocity": 0.5354330708661418,
                    "duration": 0.11653200000000652
                },
                {
                    "name": "F5",
                    "midi": 77,
                    "time": 112.68644400000115,
                    "velocity": 0.5118110236220472,
                    "duration": 0.11653200000000652
                },
                {
                    "name": "E5",
                    "midi": 76,
                    "time": 112.80297600000115,
                    "velocity": 0.5275590551181102,
                    "duration": 0.11653200000000652
                },
                {
                    "name": "F5",
                    "midi": 77,
                    "time": 112.91950800000116,
                    "velocity": 0.5354330708661418,
                    "duration": 0.11653200000000652
                },
                {
                    "name": "G5",
                    "midi": 79,
                    "time": 113.03604000000117,
                    "velocity": 0.5433070866141733,
                    "duration": 0.11653200000000652
                },
                {
                    "name": "F5",
                    "midi": 77,
                    "time": 113.15257200000117,
                    "velocity": 0.5354330708661418,
                    "duration": 0.11653200000000652
                },
                {
                    "name": "E5",
                    "midi": 76,
                    "time": 113.26910400000118,
                    "velocity": 0.5275590551181102,
                    "duration": 0.11653200000000652
                },
                {
                    "name": "D5",
                    "midi": 74,
                    "time": 113.38563600000118,
                    "velocity": 0.5118110236220472,
                    "duration": 0.11653200000000652
                },
                {
                    "name": "C5",
                    "midi": 72,
                    "time": 113.50216800000119,
                    "velocity": 0.5039370078740157,
                    "duration": 0.11653200000000652
                },
                {
                    "name": "A#4",
                    "midi": 70,
                    "time": 113.6187000000012,
                    "velocity": 0.49606299212598426,
                    "duration": 0.11653200000000652
                },
                {
                    "name": "A4",
                    "midi": 69,
                    "time": 113.7352320000012,
                    "velocity": 0.4881889763779528,
                    "duration": 0.11653200000000652
                },
                {
                    "name": "A4",
                    "midi": 69,
                    "time": 113.96829600000122,
                    "velocity": 0.3858267716535433,
                    "duration": 0.11653200000000652
                },
                {
                    "name": "F4",
                    "midi": 65,
                    "time": 114.43442400000123,
                    "velocity": 0.41732283464566927,
                    "duration": 0.23306399999999883
                },
                {
                    "name": "E4",
                    "midi": 64,
                    "time": 114.66748800000123,
                    "velocity": 0.3858267716535433,
                    "duration": 0.23306399999999883
                },
                {
                    "name": "F4",
                    "midi": 65,
                    "time": 114.90055200000123,
                    "velocity": 0.3858267716535433,
                    "duration": 0.23306399999999883
                },
                {
                    "name": "G4",
                    "midi": 67,
                    "time": 115.13361600000123,
                    "velocity": 0.3858267716535433,
                    "duration": 0.23306399999999883
                },
                {
                    "name": "A4",
                    "midi": 69,
                    "time": 115.36668000000122,
                    "velocity": 0.3858267716535433,
                    "duration": 0.23306399999999883
                },
                {
                    "name": "A#4",
                    "midi": 70,
                    "time": 115.59974400000122,
                    "velocity": 0.4094488188976378,
                    "duration": 0.11653200000000652
                },
                {
                    "name": "C5",
                    "midi": 72,
                    "time": 115.83280800000124,
                    "velocity": 0.4094488188976378,
                    "duration": 0.05826600000000326
                },
                {
                    "name": "A#4",
                    "midi": 70,
                    "time": 115.89107400000124,
                    "velocity": 0.3858267716535433,
                    "duration": 0.05826600000000326
                },
                {
                    "name": "A4",
                    "midi": 69,
                    "time": 115.94934000000124,
                    "velocity": 0.4094488188976378,
                    "duration": 0.05826600000000326
                },
                {
                    "name": "A#4",
                    "midi": 70,
                    "time": 116.00760600000125,
                    "velocity": 0.3858267716535433,
                    "duration": 0.05826600000000326
                },
                {
                    "name": "C5",
                    "midi": 72,
                    "time": 116.06587200000125,
                    "velocity": 0.4566929133858268,
                    "duration": 0.23306399999999883
                },
                {
                    "name": "D5",
                    "midi": 74,
                    "time": 116.29893600000125,
                    "velocity": 0.4645669291338583,
                    "duration": 0.22335300000000302
                },
                {
                    "name": "A#4",
                    "midi": 70,
                    "time": 116.53200000000125,
                    "velocity": 0.3937007874015748,
                    "duration": 0.23306399999999883
                },
                {
                    "name": "D5",
                    "midi": 74,
                    "time": 116.53200000000125,
                    "velocity": 0.3937007874015748,
                    "duration": 0.23306399999999883
                },
                {
                    "name": "C5",
                    "midi": 72,
                    "time": 116.76506400000125,
                    "velocity": 0.36220472440944884,
                    "duration": 0.23306399999999883
                },
                {
                    "name": "A4",
                    "midi": 69,
                    "time": 116.76506400000125,
                    "velocity": 0.36220472440944884,
                    "duration": 0.23306399999999883
                },
                {
                    "name": "A#3",
                    "midi": 58,
                    "time": 117.23119200000124,
                    "velocity": 0.25984251968503935,
                    "duration": 0.23306399999999883
                },
                {
                    "name": "E4",
                    "midi": 64,
                    "time": 117.23119200000124,
                    "velocity": 0.25984251968503935,
                    "duration": 0.23306399999999883
                },
                {
                    "name": "A#3",
                    "midi": 58,
                    "time": 117.46425600000124,
                    "velocity": 0.3543307086614173,
                    "duration": 0.9322559999999953
                },
                {
                    "name": "G4",
                    "midi": 67,
                    "time": 117.46425600000124,
                    "velocity": 0.3543307086614173,
                    "duration": 0.9322559999999953
                },
                {
                    "name": "A3",
                    "midi": 57,
                    "time": 118.39651200000124,
                    "velocity": 0.2677165354330709,
                    "duration": 0.34959600000000535
                },
                {
                    "name": "F4",
                    "midi": 65,
                    "time": 118.39651200000124,
                    "velocity": 0.2677165354330709,
                    "duration": 0.34959600000000535
                },
                {
                    "name": "G5",
                    "midi": 79,
                    "time": 118.86264000000125,
                    "velocity": 0.44881889763779526,
                    "duration": 0.11653200000000652
                },
                {
                    "name": "F5",
                    "midi": 77,
                    "time": 118.97917200000126,
                    "velocity": 0.4409448818897638,
                    "duration": 0.11653200000000652
                },
                {
                    "name": "D#5",
                    "midi": 75,
                    "time": 119.09570400000126,
                    "velocity": 0.4251968503937008,
                    "duration": 0.11653200000000652
                },
                {
                    "name": "D5",
                    "midi": 74,
                    "time": 119.21223600000127,
                    "velocity": 0.4094488188976378,
                    "duration": 0.11653200000000652
                },
                {
                    "name": "C5",
                    "midi": 72,
                    "time": 119.32876800000128,
                    "velocity": 0.47244094488188976,
                    "duration": 0.23306399999999883
                },
                {
                    "name": "A#4",
                    "midi": 70,
                    "time": 119.56183200000127,
                    "velocity": 0.4251968503937008,
                    "duration": 0.22335300000000302
                },
                {
                    "name": "A#4",
                    "midi": 70,
                    "time": 119.79489600000127,
                    "velocity": 0.4015748031496063,
                    "duration": 0.6991919999999965
                },
                {
                    "name": "D5",
                    "midi": 74,
                    "time": 120.49408800000127,
                    "velocity": 0.44881889763779526,
                    "duration": 0.23306399999999883
                },
                {
                    "name": "G5",
                    "midi": 79,
                    "time": 120.72715200000127,
                    "velocity": 0.47244094488188976,
                    "duration": 0.23306399999999883
                },
                {
                    "name": "D5",
                    "midi": 74,
                    "time": 120.96021600000127,
                    "velocity": 0.4330708661417323,
                    "duration": 0.23306399999999883
                },
                {
                    "name": "F5",
                    "midi": 77,
                    "time": 121.19328000000127,
                    "velocity": 0.47244094488188976,
                    "duration": 0.46612799999999766
                },
                {
                    "name": "D#5",
                    "midi": 75,
                    "time": 121.65940800000126,
                    "velocity": 0.4409448818897638,
                    "duration": 0.6991919999999965
                },
                {
                    "name": "F5",
                    "midi": 77,
                    "time": 122.35860000000126,
                    "velocity": 0.47244094488188976,
                    "duration": 0.11653200000000652
                },
                {
                    "name": "G5",
                    "midi": 79,
                    "time": 122.47513200000127,
                    "velocity": 0.4409448818897638,
                    "duration": 0.11653200000000652
                },
                {
                    "name": "F5",
                    "midi": 77,
                    "time": 122.59166400000127,
                    "velocity": 0.48031496062992124,
                    "duration": 0.11653200000000652
                },
                {
                    "name": "D#5",
                    "midi": 75,
                    "time": 122.70819600000128,
                    "velocity": 0.4251968503937008,
                    "duration": 0.11653200000000652
                },
                {
                    "name": "D5",
                    "midi": 74,
                    "time": 122.82472800000129,
                    "velocity": 0.4566929133858268,
                    "duration": 0.11653200000000652
                },
                {
                    "name": "C5",
                    "midi": 72,
                    "time": 122.9412600000013,
                    "velocity": 0.41732283464566927,
                    "duration": 0.11653200000000652
                },
                {
                    "name": "A#4",
                    "midi": 70,
                    "time": 123.0577920000013,
                    "velocity": 0.5196850393700787,
                    "duration": 0.46612799999999766
                },
                {
                    "name": "A4",
                    "midi": 69,
                    "time": 123.5239200000013,
                    "velocity": 0.44881889763779526,
                    "duration": 0.6923943000000037
                },
                {
                    "name": "A4",
                    "midi": 69,
                    "time": 124.22311200000131,
                    "velocity": 0.4881889763779528,
                    "duration": 0.23306399999999883
                },
                {
                    "name": "A#4",
                    "midi": 70,
                    "time": 124.4561760000013,
                    "velocity": 0.5118110236220472,
                    "duration": 0.23306399999999883
                },
                {
                    "name": "C5",
                    "midi": 72,
                    "time": 124.6892400000013,
                    "velocity": 0.48031496062992124,
                    "duration": 0.22335300000000302
                },
                {
                    "name": "A4",
                    "midi": 69,
                    "time": 124.9223040000013,
                    "velocity": 0.4094488188976378,
                    "duration": 0.46612799999999766
                },
                {
                    "name": "C5",
                    "midi": 72,
                    "time": 124.9223040000013,
                    "velocity": 0.48031496062992124,
                    "duration": 0.46612799999999766
                },
                {
                    "name": "A#4",
                    "midi": 70,
                    "time": 125.3884320000013,
                    "velocity": 0.3858267716535433,
                    "duration": 0.46612799999999766
                },
                {
                    "name": "D5",
                    "midi": 74,
                    "time": 125.3884320000013,
                    "velocity": 0.4566929133858268,
                    "duration": 0.46612799999999766
                },
                {
                    "name": "F5",
                    "midi": 77,
                    "time": 126.0876240000013,
                    "velocity": 0.5039370078740157,
                    "duration": 0.11653200000000652
                },
                {
                    "name": "E5",
                    "midi": 76,
                    "time": 126.2041560000013,
                    "velocity": 0.49606299212598426,
                    "duration": 0.11653200000000652
                },
                {
                    "name": "G5",
                    "midi": 79,
                    "time": 126.32068800000131,
                    "velocity": 0.5196850393700787,
                    "duration": 0.11653200000000652
                },
                {
                    "name": "F5",
                    "midi": 77,
                    "time": 126.43722000000132,
                    "velocity": 0.49606299212598426,
                    "duration": 0.11653200000000652
                },
                {
                    "name": "D#5",
                    "midi": 75,
                    "time": 126.55375200000132,
                    "velocity": 0.49606299212598426,
                    "duration": 0.11653200000000652
                },
                {
                    "name": "D5",
                    "midi": 74,
                    "time": 126.67028400000133,
                    "velocity": 0.48031496062992124,
                    "duration": 0.1068209999999965
                },
                {
                    "name": "D5",
                    "midi": 74,
                    "time": 126.78681600000132,
                    "velocity": 0.5354330708661418,
                    "duration": 0.23306399999999883
                },
                {
                    "name": "C5",
                    "midi": 72,
                    "time": 127.01988000000132,
                    "velocity": 0.48031496062992124,
                    "duration": 0.46612799999999766
                },
                {
                    "name": "A#4",
                    "midi": 70,
                    "time": 127.48600800000132,
                    "velocity": 0.48031496062992124,
                    "duration": 0.23306399999999883
                },
                {
                    "name": "D5",
                    "midi": 74,
                    "time": 127.71907200000132,
                    "velocity": 0.5275590551181102,
                    "duration": 0.23306399999999883
                },
                {
                    "name": "C5",
                    "midi": 72,
                    "time": 127.95213600000132,
                    "velocity": 0.4881889763779528,
                    "duration": 0.46612800000001187
                },
                {
                    "name": "A4",
                    "midi": 69,
                    "time": 128.41826400000133,
                    "velocity": 0.5039370078740157,
                    "duration": 0.23306400000001304
                },
                {
                    "name": "A#4",
                    "midi": 70,
                    "time": 128.65132800000134,
                    "velocity": 0.5354330708661418,
                    "duration": 0.11653200000000652
                },
                {
                    "name": "C5",
                    "midi": 72,
                    "time": 128.76786000000135,
                    "velocity": 0.4645669291338583,
                    "duration": 0.11653200000000652
                },
                {
                    "name": "A#4",
                    "midi": 70,
                    "time": 128.88439200000136,
                    "velocity": 0.4881889763779528,
                    "duration": 0.11653200000000652
                },
                {
                    "name": "A4",
                    "midi": 69,
                    "time": 129.00092400000136,
                    "velocity": 0.4566929133858268,
                    "duration": 0.11653200000000652
                },
                {
                    "name": "A#4",
                    "midi": 70,
                    "time": 129.11745600000137,
                    "velocity": 0.5196850393700787,
                    "duration": 0.11653200000000652
                },
                {
                    "name": "C5",
                    "midi": 72,
                    "time": 129.23398800000137,
                    "velocity": 0.47244094488188976,
                    "duration": 0.11653200000000652
                },
                {
                    "name": "D5",
                    "midi": 74,
                    "time": 129.35052000000138,
                    "velocity": 0.49606299212598426,
                    "duration": 0.11653200000000652
                },
                {
                    "name": "D#5",
                    "midi": 75,
                    "time": 129.4670520000014,
                    "velocity": 0.48031496062992124,
                    "duration": 0.11653200000000652
                },
                {
                    "name": "E5",
                    "midi": 76,
                    "time": 129.5835840000014,
                    "velocity": 0.5433070866141733,
                    "duration": 0.11653200000000652
                },
                {
                    "name": "F5",
                    "midi": 77,
                    "time": 129.7001160000014,
                    "velocity": 0.5118110236220472,
                    "duration": 0.11653200000000652
                },
                {
                    "name": "E5",
                    "midi": 76,
                    "time": 129.8166480000014,
                    "velocity": 0.5433070866141733,
                    "duration": 0.11653200000000652
                },
                {
                    "name": "F5",
                    "midi": 77,
                    "time": 129.9331800000014,
                    "velocity": 0.5118110236220472,
                    "duration": 0.11653200000000652
                },
                {
                    "name": "G5",
                    "midi": 79,
                    "time": 130.04971200000142,
                    "velocity": 0.5433070866141733,
                    "duration": 0.11653200000000652
                },
                {
                    "name": "F5",
                    "midi": 77,
                    "time": 130.16624400000143,
                    "velocity": 0.5275590551181102,
                    "duration": 0.11653200000000652
                },
                {
                    "name": "D#5",
                    "midi": 75,
                    "time": 130.28277600000143,
                    "velocity": 0.5196850393700787,
                    "duration": 0.11653200000000652
                },
                {
                    "name": "D5",
                    "midi": 74,
                    "time": 130.39930800000144,
                    "velocity": 0.5118110236220472,
                    "duration": 0.1068209999999965
                },
                {
                    "name": "D5",
                    "midi": 74,
                    "time": 130.51584000000145,
                    "velocity": 0.5669291338582677,
                    "duration": 0.23306400000001304
                },
                {
                    "name": "C5",
                    "midi": 72,
                    "time": 130.74890400000146,
                    "velocity": 0.4251968503937008,
                    "duration": 0.22335300000000302
                },
                {
                    "name": "C5",
                    "midi": 72,
                    "time": 130.98196800000147,
                    "velocity": 0.4409448818897638,
                    "duration": 0.23306400000001304
                },
                {
                    "name": "A#4",
                    "midi": 70,
                    "time": 131.2150320000015,
                    "velocity": 0.4251968503937008,
                    "duration": 0.23306400000001304
                },
                {
                    "name": "D5",
                    "midi": 74,
                    "time": 131.4480960000015,
                    "velocity": 0.5118110236220472,
                    "duration": 0.23306400000001304
                },
                {
                    "name": "C5",
                    "midi": 72,
                    "time": 131.6811600000015,
                    "velocity": 0.4251968503937008,
                    "duration": 0.22335300000000302
                },
                {
                    "name": "C5",
                    "midi": 72,
                    "time": 131.91422400000152,
                    "velocity": 0.44881889763779526,
                    "duration": 0.23306400000001304
                },
                {
                    "name": "A4",
                    "midi": 69,
                    "time": 132.14728800000154,
                    "velocity": 0.41732283464566927,
                    "duration": 0.23306400000001304
                },
                {
                    "name": "A#4",
                    "midi": 70,
                    "time": 132.38035200000155,
                    "velocity": 0.5196850393700787,
                    "duration": 0.23306400000001304
                },
                {
                    "name": "C5",
                    "midi": 72,
                    "time": 132.61341600000156,
                    "velocity": 0.44881889763779526,
                    "duration": 0.11653200000000652
                },
                {
                    "name": "D5",
                    "midi": 74,
                    "time": 132.72994800000157,
                    "velocity": 0.4566929133858268,
                    "duration": 0.11653200000000652
                },
                {
                    "name": "D#5",
                    "midi": 75,
                    "time": 132.84648000000158,
                    "velocity": 0.4645669291338583,
                    "duration": 0.11653200000000652
                },
                {
                    "name": "F5",
                    "midi": 77,
                    "time": 132.96301200000158,
                    "velocity": 0.47244094488188976,
                    "duration": 0.11653200000000652
                },
                {
                    "name": "G5",
                    "midi": 79,
                    "time": 133.0795440000016,
                    "velocity": 0.48031496062992124,
                    "duration": 0.11653200000000652
                },
                {
                    "name": "A5",
                    "midi": 81,
                    "time": 133.1960760000016,
                    "velocity": 0.5039370078740157,
                    "duration": 0.11653200000000652
                },
                {
                    "name": "A#5",
                    "midi": 82,
                    "time": 133.3126080000016,
                    "velocity": 0.5196850393700787,
                    "duration": 0.11653200000000652
                },
                {
                    "name": "C6",
                    "midi": 84,
                    "time": 133.4291400000016,
                    "velocity": 0.5275590551181102,
                    "duration": 0.11653200000000652
                },
                {
                    "name": "D6",
                    "midi": 86,
                    "time": 133.54567200000162,
                    "velocity": 0.5354330708661418,
                    "duration": 0.11653200000000652
                },
                {
                    "name": "D#6",
                    "midi": 87,
                    "time": 133.66220400000162,
                    "velocity": 0.5433070866141733,
                    "duration": 0.11653200000000652
                },
                {
                    "name": "F6",
                    "midi": 89,
                    "time": 133.77873600000163,
                    "velocity": 0.5984251968503937,
                    "duration": 0.11653200000000652
                },
                {
                    "name": "F6",
                    "midi": 89,
                    "time": 134.01180000000164,
                    "velocity": 0.5905511811023622,
                    "duration": 0.11653200000000652
                },
                {
                    "name": "F5",
                    "midi": 77,
                    "time": 134.24486400000166,
                    "velocity": 0.5984251968503937,
                    "duration": 1.1653200000000368
                },
                {
                    "name": "F6",
                    "midi": 89,
                    "time": 134.24486400000166,
                    "velocity": 0.5984251968503937,
                    "duration": 0.23306400000001304
                },
                {
                    "name": "D#6",
                    "midi": 87,
                    "time": 134.47792800000167,
                    "velocity": 0.5826771653543307,
                    "duration": 0.46612799999999766
                },
                {
                    "name": "D6",
                    "midi": 86,
                    "time": 134.94405600000167,
                    "velocity": 0.5748031496062992,
                    "duration": 0.23306400000001304
                },
                {
                    "name": "D6",
                    "midi": 86,
                    "time": 135.17712000000168,
                    "velocity": 0.5905511811023622,
                    "duration": 0.23306400000001304
                },
                {
                    "name": "D#5",
                    "midi": 75,
                    "time": 135.4101840000017,
                    "velocity": 0.5039370078740157,
                    "duration": 0.11653200000000652
                },
                {
                    "name": "C6",
                    "midi": 84,
                    "time": 135.4101840000017,
                    "velocity": 0.5039370078740157,
                    "duration": 0.11653200000000652
                },
                {
                    "name": "D5",
                    "midi": 74,
                    "time": 135.6432480000017,
                    "velocity": 0.5669291338582677,
                    "duration": 0.11653200000000652
                },
                {
                    "name": "A#5",
                    "midi": 82,
                    "time": 135.6432480000017,
                    "velocity": 0.5669291338582677,
                    "duration": 0.11653200000000652
                },
                {
                    "name": "C5",
                    "midi": 72,
                    "time": 135.87631200000172,
                    "velocity": 0.5039370078740157,
                    "duration": 0.11653200000000652
                },
                {
                    "name": "A5",
                    "midi": 81,
                    "time": 135.87631200000172,
                    "velocity": 0.5039370078740157,
                    "duration": 0.11653200000000652
                },
                {
                    "name": "A#5",
                    "midi": 82,
                    "time": 136.10937600000173,
                    "velocity": 0.5984251968503937,
                    "duration": 0.23306400000001304
                },
                {
                    "name": "D5",
                    "midi": 74,
                    "time": 136.10937600000173,
                    "velocity": 0.5984251968503937,
                    "duration": 0.23306400000001304
                },
                {
                    "name": "A#4",
                    "midi": 70,
                    "time": 136.57550400000176,
                    "velocity": 0.5669291338582677,
                    "duration": 0.23306400000001304
                },
                {
                    "name": "G4",
                    "midi": 67,
                    "time": 137.50776000000178,
                    "velocity": 0.4094488188976378,
                    "duration": 0.11653200000000652
                },
                {
                    "name": "F4",
                    "midi": 65,
                    "time": 137.6242920000018,
                    "velocity": 0.3858267716535433,
                    "duration": 0.11653200000000652
                },
                {
                    "name": "D#4",
                    "midi": 63,
                    "time": 137.7408240000018,
                    "velocity": 0.4094488188976378,
                    "duration": 0.11653200000000652
                },
                {
                    "name": "D4",
                    "midi": 62,
                    "time": 137.8573560000018,
                    "velocity": 0.3937007874015748,
                    "duration": 0.11653200000000652
                },
                {
                    "name": "C4",
                    "midi": 60,
                    "time": 137.9738880000018,
                    "velocity": 0.4409448818897638,
                    "duration": 0.23306400000001304
                },
                {
                    "name": "A#3",
                    "midi": 58,
                    "time": 138.20695200000182,
                    "velocity": 0.41732283464566927,
                    "duration": 0.22335300000000302
                },
                {
                    "name": "A#3",
                    "midi": 58,
                    "time": 138.44001600000183,
                    "velocity": 0.41732283464566927,
                    "duration": 0.6991920000000107
                },
                {
                    "name": "A#4",
                    "midi": 70,
                    "time": 139.13920800000184,
                    "velocity": 0.49606299212598426,
                    "duration": 0.23306400000001304
                },
                {
                    "name": "A4",
                    "midi": 69,
                    "time": 139.37227200000186,
                    "velocity": 0.4566929133858268,
                    "duration": 0.23306400000001304
                },
                {
                    "name": "G4",
                    "midi": 67,
                    "time": 139.60533600000187,
                    "velocity": 0.4409448818897638,
                    "duration": 0.23306400000001304
                },
                {
                    "name": "F4",
                    "midi": 65,
                    "time": 139.83840000000188,
                    "velocity": 0.5039370078740157,
                    "duration": 0.46612799999999766
                },
                {
                    "name": "E4",
                    "midi": 64,
                    "time": 140.30452800000188,
                    "velocity": 0.4015748031496063,
                    "duration": 0.5826600000000042
                },
                {
                    "name": "G4",
                    "midi": 67,
                    "time": 140.88718800000188,
                    "velocity": 0.4094488188976378,
                    "duration": 0.11653200000000652
                },
                {
                    "name": "F4",
                    "midi": 65,
                    "time": 141.0037200000019,
                    "velocity": 0.4409448818897638,
                    "duration": 0.11653200000000652
                },
                {
                    "name": "A4",
                    "midi": 69,
                    "time": 141.1202520000019,
                    "velocity": 0.4094488188976378,
                    "duration": 0.11653200000000652
                },
                {
                    "name": "G4",
                    "midi": 67,
                    "time": 141.2367840000019,
                    "velocity": 0.4409448818897638,
                    "duration": 0.11653200000000652
                },
                {
                    "name": "A#4",
                    "midi": 70,
                    "time": 141.3533160000019,
                    "velocity": 0.41732283464566927,
                    "duration": 0.11653200000000652
                },
                {
                    "name": "A4",
                    "midi": 69,
                    "time": 141.46984800000192,
                    "velocity": 0.4409448818897638,
                    "duration": 0.11653200000000652
                },
                {
                    "name": "C5",
                    "midi": 72,
                    "time": 141.58638000000192,
                    "velocity": 0.41732283464566927,
                    "duration": 0.11653200000000652
                },
                {
                    "name": "A#4",
                    "midi": 70,
                    "time": 141.70291200000193,
                    "velocity": 0.4409448818897638,
                    "duration": 0.11653200000000652
                },
                {
                    "name": "G4",
                    "midi": 67,
                    "time": 141.81944400000194,
                    "velocity": 0.4566929133858268,
                    "duration": 0.11653200000000652
                },
                {
                    "name": "E5",
                    "midi": 76,
                    "time": 141.93597600000194,
                    "velocity": 0.48031496062992124,
                    "duration": 0.11653200000000652
                },
                {
                    "name": "C5",
                    "midi": 72,
                    "time": 142.05250800000195,
                    "velocity": 0.4881889763779528,
                    "duration": 0.11653200000000652
                },
                {
                    "name": "G5",
                    "midi": 79,
                    "time": 142.16904000000196,
                    "velocity": 0.5039370078740157,
                    "duration": 0.11653200000000652
                },
                {
                    "name": "E5",
                    "midi": 76,
                    "time": 142.28557200000196,
                    "velocity": 0.5275590551181102,
                    "duration": 0.11653200000000652
                },
                {
                    "name": "A#5",
                    "midi": 82,
                    "time": 142.40210400000197,
                    "velocity": 0.5511811023622047,
                    "duration": 0.11653200000000652
                },
                {
                    "name": "A5",
                    "midi": 81,
                    "time": 142.51863600000198,
                    "velocity": 0.5433070866141733,
                    "duration": 0.11653200000000652
                },
                {
                    "name": "A#5",
                    "midi": 82,
                    "time": 142.63516800000198,
                    "velocity": 0.5590551181102362,
                    "duration": 0.11653200000000652
                },
                {
                    "name": "A5",
                    "midi": 81,
                    "time": 142.751700000002,
                    "velocity": 0.5275590551181102,
                    "duration": 0.11653200000000652
                },
                {
                    "name": "G5",
                    "midi": 79,
                    "time": 142.868232000002,
                    "velocity": 0.5433070866141733,
                    "duration": 0.11653200000000652
                },
                {
                    "name": "F5",
                    "midi": 77,
                    "time": 142.984764000002,
                    "velocity": 0.5118110236220472,
                    "duration": 0.11653200000000652
                },
                {
                    "name": "E5",
                    "midi": 76,
                    "time": 143.101296000002,
                    "velocity": 0.5196850393700787,
                    "duration": 0.11653200000000652
                },
                {
                    "name": "D5",
                    "midi": 74,
                    "time": 143.21782800000202,
                    "velocity": 0.5118110236220472,
                    "duration": 0.11653200000000652
                },
                {
                    "name": "C5",
                    "midi": 72,
                    "time": 143.33436000000202,
                    "velocity": 0.5039370078740157,
                    "duration": 0.11653200000000652
                },
                {
                    "name": "A#4",
                    "midi": 70,
                    "time": 143.45089200000203,
                    "velocity": 0.49606299212598426,
                    "duration": 0.1068209999999965
                },
                {
                    "name": "A#4",
                    "midi": 70,
                    "time": 143.56742400000203,
                    "velocity": 0.5433070866141733,
                    "duration": 0.11653200000000652
                },
                {
                    "name": "A4",
                    "midi": 69,
                    "time": 143.68395600000204,
                    "velocity": 0.4409448818897638,
                    "duration": 0.11653200000000652
                },
                {
                    "name": "D5",
                    "midi": 74,
                    "time": 143.80048800000205,
                    "velocity": 0.5039370078740157,
                    "duration": 0.11653200000000652
                },
                {
                    "name": "C5",
                    "midi": 72,
                    "time": 143.91702000000205,
                    "velocity": 0.4251968503937008,
                    "duration": 0.1068209999999965
                },
                {
                    "name": "C5",
                    "midi": 72,
                    "time": 144.03355200000206,
                    "velocity": 0.4251968503937008,
                    "duration": 0.46612799999999766
                },
                {
                    "name": "D6",
                    "midi": 86,
                    "time": 144.96580800000206,
                    "velocity": 0.5433070866141733,
                    "duration": 0.11653200000000652
                },
                {
                    "name": "C6",
                    "midi": 84,
                    "time": 145.08234000000206,
                    "velocity": 0.5196850393700787,
                    "duration": 0.11653200000000652
                },
                {
                    "name": "A#5",
                    "midi": 82,
                    "time": 145.19887200000207,
                    "velocity": 0.5433070866141733,
                    "duration": 0.11653200000000652
                },
                {
                    "name": "A5",
                    "midi": 81,
                    "time": 145.31540400000208,
                    "velocity": 0.5196850393700787,
                    "duration": 0.11653200000000652
                },
                {
                    "name": "G5",
                    "midi": 79,
                    "time": 145.43193600000208,
                    "velocity": 0.5669291338582677,
                    "duration": 0.6991920000000107
                },
                {
                    "name": "E5",
                    "midi": 76,
                    "time": 146.1311280000021,
                    "velocity": 0.49606299212598426,
                    "duration": 0.23306400000001304
                },
                {
                    "name": "F5",
                    "midi": 77,
                    "time": 146.3641920000021,
                    "velocity": 0.5196850393700787,
                    "duration": 0.05826600000000326
                },
                {
                    "name": "C6",
                    "midi": 84,
                    "time": 146.4807240000021,
                    "velocity": 0.5511811023622047,
                    "duration": 0.13983840000000214
                },
                {
                    "name": "B5",
                    "midi": 83,
                    "time": 146.59725600000212,
                    "velocity": 0.5511811023622047,
                    "duration": 0.13983840000000214
                },
                {
                    "name": "C6",
                    "midi": 84,
                    "time": 146.71378800000213,
                    "velocity": 0.5275590551181102,
                    "duration": 0.13983840000000214
                },
                {
                    "name": "D6",
                    "midi": 86,
                    "time": 146.83032000000213,
                    "velocity": 0.5748031496062992,
                    "duration": 0.13983840000000214
                },
                {
                    "name": "C6",
                    "midi": 84,
                    "time": 146.94685200000214,
                    "velocity": 0.5354330708661418,
                    "duration": 0.13983840000000214
                },
                {
                    "name": "A#5",
                    "midi": 82,
                    "time": 147.06338400000215,
                    "velocity": 0.5590551181102362,
                    "duration": 0.13983840000000214
                },
                {
                    "name": "A5",
                    "midi": 81,
                    "time": 147.17991600000215,
                    "velocity": 0.5354330708661418,
                    "duration": 0.13983840000000214
                },
                {
                    "name": "G5",
                    "midi": 79,
                    "time": 147.29644800000216,
                    "velocity": 0.6377952755905512,
                    "duration": 0.11653200000000652
                },
                {
                    "name": "G5",
                    "midi": 79,
                    "time": 147.52951200000217,
                    "velocity": 0.5905511811023622,
                    "duration": 0.46612799999999766
                },
                {
                    "name": "E5",
                    "midi": 76,
                    "time": 147.99564000000217,
                    "velocity": 0.5039370078740157,
                    "duration": 0.23306400000001304
                },
                {
                    "name": "F5",
                    "midi": 77,
                    "time": 148.22870400000218,
                    "velocity": 0.49606299212598426,
                    "duration": 0.05826600000000326
                },
                {
                    "name": "C6",
                    "midi": 84,
                    "time": 148.3452360000022,
                    "velocity": 0.5511811023622047,
                    "duration": 0.13983840000000214
                },
                {
                    "name": "B5",
                    "midi": 83,
                    "time": 148.4617680000022,
                    "velocity": 0.5433070866141733,
                    "duration": 0.13983840000000214
                },
                {
                    "name": "C6",
                    "midi": 84,
                    "time": 148.5783000000022,
                    "velocity": 0.5354330708661418,
                    "duration": 0.13983840000000214
                },
                {
                    "name": "D6",
                    "midi": 86,
                    "time": 148.6948320000022,
                    "velocity": 0.5905511811023622,
                    "duration": 0.13983840000000214
                },
                {
                    "name": "C6",
                    "midi": 84,
                    "time": 148.81136400000221,
                    "velocity": 0.5433070866141733,
                    "duration": 0.13983840000000214
                },
                {
                    "name": "A#5",
                    "midi": 82,
                    "time": 148.92789600000222,
                    "velocity": 0.5590551181102362,
                    "duration": 0.12818520000001854
                },
                {
                    "name": "A5",
                    "midi": 81,
                    "time": 149.04442800000223,
                    "velocity": 0.5275590551181102,
                    "duration": 0.10682100000002492
                },
                {
                    "name": "A5",
                    "midi": 81,
                    "time": 149.16096000000226,
                    "velocity": 0.5748031496062992,
                    "duration": 0.23306400000001304
                },
                {
                    "name": "G5",
                    "midi": 79,
                    "time": 149.39402400000228,
                    "velocity": 0.5511811023622047,
                    "duration": 0.23306400000001304
                },
                {
                    "name": "G5",
                    "midi": 79,
                    "time": 149.8601520000023,
                    "velocity": 0.5669291338582677,
                    "duration": 0.22335300000000302
                },
                {
                    "name": "G5",
                    "midi": 79,
                    "time": 150.09321600000231,
                    "velocity": 0.6141732283464567,
                    "duration": 0.23306400000001304
                },
                {
                    "name": "F5",
                    "midi": 77,
                    "time": 150.32628000000233,
                    "velocity": 0.5669291338582677,
                    "duration": 0.23306400000001304
                },
                {
                    "name": "F5",
                    "midi": 77,
                    "time": 150.79240800000235,
                    "velocity": 0.5669291338582677,
                    "duration": 0.23306400000001304
                },
                {
                    "name": "E5",
                    "midi": 76,
                    "time": 151.02547200000237,
                    "velocity": 0.5748031496062992,
                    "duration": 0.11653200000000652
                },
                {
                    "name": "F5",
                    "midi": 77,
                    "time": 151.14200400000237,
                    "velocity": 0.5196850393700787,
                    "duration": 0.11653200000000652
                },
                {
                    "name": "E5",
                    "midi": 76,
                    "time": 151.25853600000238,
                    "velocity": 0.5354330708661418,
                    "duration": 0.11653200000000652
                },
                {
                    "name": "C5",
                    "midi": 72,
                    "time": 151.3750680000024,
                    "velocity": 0.5118110236220472,
                    "duration": 0.11653200000000652
                },
                {
                    "name": "F5",
                    "midi": 77,
                    "time": 151.4916000000024,
                    "velocity": 0.5905511811023622,
                    "duration": 0.11653200000000652
                },
                {
                    "name": "G5",
                    "midi": 79,
                    "time": 151.6081320000024,
                    "velocity": 0.5354330708661418,
                    "duration": 0.11653200000000652
                },
                {
                    "name": "F5",
                    "midi": 77,
                    "time": 151.7246640000024,
                    "velocity": 0.5354330708661418,
                    "duration": 0.11653200000000652
                },
                {
                    "name": "C5",
                    "midi": 72,
                    "time": 151.8411960000024,
                    "velocity": 0.5118110236220472,
                    "duration": 0.11653200000000652
                },
                {
                    "name": "G5",
                    "midi": 79,
                    "time": 151.95772800000242,
                    "velocity": 0.6299212598425197,
                    "duration": 0.11653200000000652
                },
                {
                    "name": "A5",
                    "midi": 81,
                    "time": 152.07426000000243,
                    "velocity": 0.5354330708661418,
                    "duration": 0.11653200000000652
                },
                {
                    "name": "G5",
                    "midi": 79,
                    "time": 152.19079200000243,
                    "velocity": 0.5669291338582677,
                    "duration": 0.11653200000000652
                },
                {
                    "name": "C5",
                    "midi": 72,
                    "time": 152.30732400000244,
                    "velocity": 0.5275590551181102,
                    "duration": 0.11653200000000652
                },
                {
                    "name": "A5",
                    "midi": 81,
                    "time": 152.42385600000244,
                    "velocity": 0.6377952755905512,
                    "duration": 0.11653200000000652
                },
                {
                    "name": "A#5",
                    "midi": 82,
                    "time": 152.54038800000245,
                    "velocity": 0.5826771653543307,
                    "duration": 0.11653200000000652
                },
                {
                    "name": "A5",
                    "midi": 81,
                    "time": 152.65692000000246,
                    "velocity": 0.5984251968503937,
                    "duration": 0.11653200000000652
                },
                {
                    "name": "C5",
                    "midi": 72,
                    "time": 152.77345200000246,
                    "velocity": 0.5433070866141733,
                    "duration": 0.11653200000000652
                },
                {
                    "name": "A#5",
                    "midi": 82,
                    "time": 152.88998400000247,
                    "velocity": 0.6692913385826772,
                    "duration": 0.11653200000000652
                },
                {
                    "name": "A#5",
                    "midi": 82,
                    "time": 153.12304800000248,
                    "velocity": 0.6535433070866141,
                    "duration": 0.11653200000000652
                },
                {
                    "name": "G5",
                    "midi": 79,
                    "time": 153.58917600000248,
                    "velocity": 0.6062992125984252,
                    "duration": 0.11653200000000652
                },
                {
                    "name": "A#5",
                    "midi": 82,
                    "time": 153.8222400000025,
                    "velocity": 0.6377952755905512,
                    "duration": 0.23306400000001304
                },
                {
                    "name": "A5",
                    "midi": 81,
                    "time": 154.0553040000025,
                    "velocity": 0.5590551181102362,
                    "duration": 0.11653200000000652
                },
                {
                    "name": "G5",
                    "midi": 79,
                    "time": 154.28836800000252,
                    "velocity": 0.5984251968503937,
                    "duration": 0.11653200000000652
                },
                {
                    "name": "F5",
                    "midi": 77,
                    "time": 154.52143200000253,
                    "velocity": 0.5748031496062992,
                    "duration": 0.11653200000000652
                },
                {
                    "name": "E5",
                    "midi": 76,
                    "time": 154.75449600000255,
                    "velocity": 0.6141732283464567,
                    "duration": 0.11653200000000652
                },
                {
                    "name": "C5",
                    "midi": 72,
                    "time": 154.87102800000255,
                    "velocity": 0.5669291338582677,
                    "duration": 0.11653200000000652
                },
                {
                    "name": "B5",
                    "midi": 83,
                    "time": 154.98756000000256,
                    "velocity": 0.5669291338582677,
                    "duration": 0.11653200000000652
                },
                {
                    "name": "C6",
                    "midi": 84,
                    "time": 155.10409200000257,
                    "velocity": 0.5354330708661418,
                    "duration": 0.11653200000000652
                },
                {
                    "name": "F5",
                    "midi": 77,
                    "time": 155.22062400000257,
                    "velocity": 0.6299212598425197,
                    "duration": 0.11653200000000652
                },
                {
                    "name": "C5",
                    "midi": 72,
                    "time": 155.33715600000258,
                    "velocity": 0.5748031496062992,
                    "duration": 0.11653200000000652
                },
                {
                    "name": "B5",
                    "midi": 83,
                    "time": 155.4536880000026,
                    "velocity": 0.5748031496062992,
                    "duration": 0.11653200000000652
                },
                {
                    "name": "C6",
                    "midi": 84,
                    "time": 155.5702200000026,
                    "velocity": 0.5433070866141733,
                    "duration": 0.11653200000000652
                },
                {
                    "name": "G5",
                    "midi": 79,
                    "time": 155.6867520000026,
                    "velocity": 0.6377952755905512,
                    "duration": 0.11653200000000652
                },
                {
                    "name": "C5",
                    "midi": 72,
                    "time": 155.8032840000026,
                    "velocity": 0.5984251968503937,
                    "duration": 0.11653200000000652
                },
                {
                    "name": "B5",
                    "midi": 83,
                    "time": 155.9198160000026,
                    "velocity": 0.5984251968503937,
                    "duration": 0.11653200000000652
                },
                {
                    "name": "C6",
                    "midi": 84,
                    "time": 156.03634800000262,
                    "velocity": 0.5748031496062992,
                    "duration": 0.11653200000000652
                },
                {
                    "name": "A5",
                    "midi": 81,
                    "time": 156.15288000000263,
                    "velocity": 0.6614173228346457,
                    "duration": 0.11653200000000652
                },
                {
                    "name": "C5",
                    "midi": 72,
                    "time": 156.26941200000263,
                    "velocity": 0.5984251968503937,
                    "duration": 0.11653200000000652
                },
                {
                    "name": "B5",
                    "midi": 83,
                    "time": 156.38594400000264,
                    "velocity": 0.5984251968503937,
                    "duration": 0.11653200000000652
                },
                {
                    "name": "C6",
                    "midi": 84,
                    "time": 156.50247600000264,
                    "velocity": 0.5905511811023622,
                    "duration": 0.11653200000000652
                },
                {
                    "name": "A#5",
                    "midi": 82,
                    "time": 156.61900800000265,
                    "velocity": 0.7007874015748031,
                    "duration": 0.11653200000000652
                },
                {
                    "name": "A#5",
                    "midi": 82,
                    "time": 156.85207200000266,
                    "velocity": 0.6614173228346457,
                    "duration": 0.11653200000000652
                },
                {
                    "name": "G5",
                    "midi": 79,
                    "time": 157.31820000000266,
                    "velocity": 0.5433070866141733,
                    "duration": 0.05826600000000326
                },
                {
                    "name": "A5",
                    "midi": 81,
                    "time": 157.37646600000267,
                    "velocity": 0.5196850393700787,
                    "duration": 0.05826600000000326
                },
                {
                    "name": "G5",
                    "midi": 79,
                    "time": 157.43473200000267,
                    "velocity": 0.5433070866141733,
                    "duration": 0.05826600000000326
                },
                {
                    "name": "A5",
                    "midi": 81,
                    "time": 157.49299800000267,
                    "velocity": 0.5275590551181102,
                    "duration": 0.05826600000000326
                },
                {
                    "name": "A#5",
                    "midi": 82,
                    "time": 157.55126400000267,
                    "velocity": 0.6220472440944882,
                    "duration": 0.23306400000001304
                },
                {
                    "name": "A5",
                    "midi": 81,
                    "time": 157.7843280000027,
                    "velocity": 0.5984251968503937,
                    "duration": 0.11653200000000652
                },
                {
                    "name": "G5",
                    "midi": 79,
                    "time": 158.0173920000027,
                    "velocity": 0.5984251968503937,
                    "duration": 0.11653200000000652
                },
                {
                    "name": "F5",
                    "midi": 77,
                    "time": 158.2504560000027,
                    "velocity": 0.5905511811023622,
                    "duration": 0.11653200000000652
                },
                {
                    "name": "E5",
                    "midi": 76,
                    "time": 158.48352000000273,
                    "velocity": 0.6220472440944882,
                    "duration": 0.11653200000000652
                },
                {
                    "name": "C6",
                    "midi": 84,
                    "time": 158.60005200000273,
                    "velocity": 0.5590551181102362,
                    "duration": 0.11653200000000652
                },
                {
                    "name": "G5",
                    "midi": 79,
                    "time": 158.71658400000274,
                    "velocity": 0.5669291338582677,
                    "duration": 0.11653200000000652
                },
                {
                    "name": "E5",
                    "midi": 76,
                    "time": 158.83311600000275,
                    "velocity": 0.5511811023622047,
                    "duration": 0.11653200000000652
                },
                {
                    "name": "C5",
                    "midi": 72,
                    "time": 158.94964800000275,
                    "velocity": 0.5984251968503937,
                    "duration": 0.11653200000000652
                },
                {
                    "name": "G4",
                    "midi": 67,
                    "time": 159.06618000000276,
                    "velocity": 0.5433070866141733,
                    "duration": 0.11653200000000652
                },
                {
                    "name": "E4",
                    "midi": 64,
                    "time": 159.18271200000277,
                    "velocity": 0.5590551181102362,
                    "duration": 0.11653200000000652
                },
                {
                    "name": "C4",
                    "midi": 60,
                    "time": 159.29924400000277,
                    "velocity": 0.5511811023622047,
                    "duration": 0.11653200000000652
                },
                {
                    "name": "A4",
                    "midi": 69,
                    "time": 160.34803200000277,
                    "velocity": 0.5511811023622047,
                    "duration": 0.6991920000000107
                },
                {
                    "name": "F4",
                    "midi": 65,
                    "time": 160.34803200000277,
                    "velocity": 0.5511811023622047,
                    "duration": 0.6991920000000107
                },
                {
                    "name": "C4",
                    "midi": 60,
                    "time": 160.34803200000277,
                    "velocity": 0.5511811023622047,
                    "duration": 0.6991920000000107
                },
                {
                    "name": "C5",
                    "midi": 72,
                    "time": 160.34803200000277,
                    "velocity": 0.5511811023622047,
                    "duration": 0.6991920000000107
                },
                {
                    "name": "D5",
                    "midi": 74,
                    "time": 161.04722400000279,
                    "velocity": 0.3779527559055118,
                    "duration": 0.11653200000000652
                },
                {
                    "name": "C5",
                    "midi": 72,
                    "time": 161.1637560000028,
                    "velocity": 0.3779527559055118,
                    "duration": 0.11653200000000652
                },
                {
                    "name": "A#4",
                    "midi": 70,
                    "time": 161.2802880000028,
                    "velocity": 0.4094488188976378,
                    "duration": 0.11653200000000652
                },
                {
                    "name": "A4",
                    "midi": 69,
                    "time": 161.5133520000028,
                    "velocity": 0.3779527559055118,
                    "duration": 0.11653200000000652
                },
                {
                    "name": "G4",
                    "midi": 67,
                    "time": 161.74641600000282,
                    "velocity": 0.3779527559055118,
                    "duration": 0.11653200000000652
                },
                {
                    "name": "F4",
                    "midi": 65,
                    "time": 161.97948000000284,
                    "velocity": 0.3779527559055118,
                    "duration": 0.11653200000000652
                },
                {
                    "name": "F4",
                    "midi": 65,
                    "time": 162.21254400000285,
                    "velocity": 0.4251968503937008,
                    "duration": 0.23306400000001304
                },
                {
                    "name": "D5",
                    "midi": 74,
                    "time": 162.43589700000285,
                    "velocity": 0.3937007874015748,
                    "duration": 0.23306400000001304
                },
                {
                    "name": "F4",
                    "midi": 65,
                    "time": 162.67867200000288,
                    "velocity": 0.5669291338582677,
                    "duration": 0.6991920000000107
                },
                {
                    "name": "D5",
                    "midi": 74,
                    "time": 162.67867200000288,
                    "velocity": 0.5669291338582677,
                    "duration": 0.6991920000000107
                },
                {
                    "name": "C5",
                    "midi": 72,
                    "time": 163.3778640000029,
                    "velocity": 0.41732283464566927,
                    "duration": 0.23306400000001304
                },
                {
                    "name": "E5",
                    "midi": 76,
                    "time": 163.6109280000029,
                    "velocity": 0.4409448818897638,
                    "duration": 0.23306400000001304
                },
                {
                    "name": "F5",
                    "midi": 77,
                    "time": 163.8439920000029,
                    "velocity": 0.41732283464566927,
                    "duration": 0.23306400000001304
                },
                {
                    "name": "F5",
                    "midi": 77,
                    "time": 164.07705600000293,
                    "velocity": 0.48031496062992124,
                    "duration": 0.23306400000001304
                },
                {
                    "name": "G4",
                    "midi": 67,
                    "time": 164.31012000000294,
                    "velocity": 0.41732283464566927,
                    "duration": 0.46612799999999766
                },
                {
                    "name": "A4",
                    "midi": 69,
                    "time": 164.77624800000294,
                    "velocity": 0.41732283464566927,
                    "duration": 0.23306400000001304
                },
                {
                    "name": "F5",
                    "midi": 77,
                    "time": 165.00931200000295,
                    "velocity": 0.48031496062992124,
                    "duration": 0.23306400000001304
                },
                {
                    "name": "G4",
                    "midi": 67,
                    "time": 165.24237600000296,
                    "velocity": 0.41732283464566927,
                    "duration": 0.46612799999999766
                },
                {
                    "name": "A4",
                    "midi": 69,
                    "time": 165.70850400000296,
                    "velocity": 0.41732283464566927,
                    "duration": 0.23306400000001304
                },
                {
                    "name": "C5",
                    "midi": 72,
                    "time": 165.94156800000297,
                    "velocity": 0.4566929133858268,
                    "duration": 0.46612799999999766
                },
                {
                    "name": "A#4",
                    "midi": 70,
                    "time": 166.40769600000297,
                    "velocity": 0.4094488188976378,
                    "duration": 0.05826600000000326
                },
                {
                    "name": "C5",
                    "midi": 72,
                    "time": 166.46596200000297,
                    "velocity": 0.3779527559055118,
                    "duration": 0.05826600000000326
                },
                {
                    "name": "A#4",
                    "midi": 70,
                    "time": 166.52422800000298,
                    "velocity": 0.4094488188976378,
                    "duration": 0.05826600000000326
                },
                {
                    "name": "C5",
                    "midi": 72,
                    "time": 166.58249400000298,
                    "velocity": 0.3779527559055118,
                    "duration": 0.05826600000000326
                },
                {
                    "name": "A#4",
                    "midi": 70,
                    "time": 166.64076000000298,
                    "velocity": 0.4094488188976378,
                    "duration": 0.03884400000001165
                },
                {
                    "name": "C5",
                    "midi": 72,
                    "time": 166.679604000003,
                    "velocity": 0.3779527559055118,
                    "duration": 0.03884400000001165
                },
                {
                    "name": "A#4",
                    "midi": 70,
                    "time": 166.718448000003,
                    "velocity": 0.3779527559055118,
                    "duration": 0.03884400000001165
                },
                {
                    "name": "A4",
                    "midi": 69,
                    "time": 166.75729200000302,
                    "velocity": 0.4094488188976378,
                    "duration": 0.05826600000000326
                },
                {
                    "name": "A#4",
                    "midi": 70,
                    "time": 166.81555800000302,
                    "velocity": 0.3858267716535433,
                    "duration": 0.05826600000000326
                },
                {
                    "name": "A4",
                    "midi": 69,
                    "time": 166.87382400000303,
                    "velocity": 0.44881889763779526,
                    "duration": 0.11653200000000652
                },
                {
                    "name": "A4",
                    "midi": 69,
                    "time": 167.10688800000304,
                    "velocity": 0.41732283464566927,
                    "duration": 0.23306400000001304
                },
                {
                    "name": "A#4",
                    "midi": 70,
                    "time": 167.33995200000305,
                    "velocity": 0.4409448818897638,
                    "duration": 0.23306400000001304
                },
                {
                    "name": "C5",
                    "midi": 72,
                    "time": 167.57301600000307,
                    "velocity": 0.41732283464566927,
                    "duration": 0.23306400000001304
                },
                {
                    "name": "C#5",
                    "midi": 73,
                    "time": 167.80608000000308,
                    "velocity": 0.5118110236220472,
                    "duration": 0.23306400000001304
                },
                {
                    "name": "D5",
                    "midi": 74,
                    "time": 168.0391440000031,
                    "velocity": 0.4251968503937008,
                    "duration": 0.46612799999999766
                },
                {
                    "name": "C5",
                    "midi": 72,
                    "time": 168.5052720000031,
                    "velocity": 0.4251968503937008,
                    "duration": 0.11653200000000652
                },
                {
                    "name": "A#4",
                    "midi": 70,
                    "time": 168.6218040000031,
                    "velocity": 0.3937007874015748,
                    "duration": 0.11653200000000652
                },
                {
                    "name": "A4",
                    "midi": 69,
                    "time": 168.7383360000031,
                    "velocity": 0.4251968503937008,
                    "duration": 0.23306400000001304
                },
                {
                    "name": "G4",
                    "midi": 67,
                    "time": 168.97140000000311,
                    "velocity": 0.41732283464566927,
                    "duration": 0.23306400000001304
                },
                {
                    "name": "A4",
                    "midi": 69,
                    "time": 169.20446400000313,
                    "velocity": 0.4251968503937008,
                    "duration": 0.23306400000001304
                },
                {
                    "name": "A#4",
                    "midi": 70,
                    "time": 169.43752800000314,
                    "velocity": 0.4094488188976378,
                    "duration": 0.23306400000001304
                },
                {
                    "name": "D5",
                    "midi": 74,
                    "time": 169.67059200000315,
                    "velocity": 0.49606299212598426,
                    "duration": 0.23306400000001304
                },
                {
                    "name": "C5",
                    "midi": 72,
                    "time": 169.90365600000317,
                    "velocity": 0.41732283464566927,
                    "duration": 0.46612799999999766
                },
                {
                    "name": "A#4",
                    "midi": 70,
                    "time": 170.36978400000316,
                    "velocity": 0.4251968503937008,
                    "duration": 0.11653200000000652
                },
                {
                    "name": "A4",
                    "midi": 69,
                    "time": 170.48631600000317,
                    "velocity": 0.4094488188976378,
                    "duration": 0.11653200000000652
                },
                {
                    "name": "G4",
                    "midi": 67,
                    "time": 170.60284800000318,
                    "velocity": 0.4409448818897638,
                    "duration": 0.23306400000001304
                },
                {
                    "name": "F4",
                    "midi": 65,
                    "time": 170.8359120000032,
                    "velocity": 0.4251968503937008,
                    "duration": 0.23306400000001304
                },
                {
                    "name": "G4",
                    "midi": 67,
                    "time": 171.0689760000032,
                    "velocity": 0.4251968503937008,
                    "duration": 0.23306400000001304
                },
                {
                    "name": "A4",
                    "midi": 69,
                    "time": 171.30204000000322,
                    "velocity": 0.4251968503937008,
                    "duration": 0.23306400000001304
                },
                {
                    "name": "C5",
                    "midi": 72,
                    "time": 171.53510400000323,
                    "velocity": 0.49606299212598426,
                    "duration": 0.23306400000001304
                },
                {
                    "name": "A#4",
                    "midi": 70,
                    "time": 171.76816800000324,
                    "velocity": 0.4015748031496063,
                    "duration": 0.46612799999999766
                },
                {
                    "name": "G4",
                    "midi": 67,
                    "time": 172.23429600000324,
                    "velocity": 0.4015748031496063,
                    "duration": 0.23306400000001304
                },
                {
                    "name": "A#4",
                    "midi": 70,
                    "time": 172.46736000000325,
                    "velocity": 0.4881889763779528,
                    "duration": 0.23306400000001304
                },
                {
                    "name": "A4",
                    "midi": 69,
                    "time": 172.70042400000327,
                    "velocity": 0.4094488188976378,
                    "duration": 0.46612799999999766
                },
                {
                    "name": "F4",
                    "midi": 65,
                    "time": 173.16655200000326,
                    "velocity": 0.4094488188976378,
                    "duration": 0.23306400000001304
                },
                {
                    "name": "E4",
                    "midi": 64,
                    "time": 173.39961600000328,
                    "velocity": 0.48031496062992124,
                    "duration": 0.11653200000000652
                },
                {
                    "name": "F4",
                    "midi": 65,
                    "time": 173.51614800000328,
                    "velocity": 0.41732283464566927,
                    "duration": 0.11653200000000652
                },
                {
                    "name": "G4",
                    "midi": 67,
                    "time": 173.6326800000033,
                    "velocity": 0.41732283464566927,
                    "duration": 0.11653200000000652
                },
                {
                    "name": "A4",
                    "midi": 69,
                    "time": 173.7492120000033,
                    "velocity": 0.3937007874015748,
                    "duration": 0.11653200000000652
                },
                {
                    "name": "B4",
                    "midi": 71,
                    "time": 173.8657440000033,
                    "velocity": 0.4645669291338583,
                    "duration": 0.11653200000000652
                },
                {
                    "name": "C5",
                    "midi": 72,
                    "time": 173.9822760000033,
                    "velocity": 0.4251968503937008,
                    "duration": 0.11653200000000652
                },
                {
                    "name": "B4",
                    "midi": 71,
                    "time": 174.09880800000332,
                    "velocity": 0.4251968503937008,
                    "duration": 0.11653200000000652
                },
                {
                    "name": "C5",
                    "midi": 72,
                    "time": 174.21534000000332,
                    "velocity": 0.4015748031496063,
                    "duration": 0.11653200000000652
                },
                {
                    "name": "C4",
                    "midi": 60,
                    "time": 174.33187200000333,
                    "velocity": 0.4409448818897638,
                    "duration": 0.46612799999999766
                },
                {
                    "name": "C5",
                    "midi": 72,
                    "time": 175.26412800000332,
                    "velocity": 0.5590551181102362,
                    "duration": 0.6991920000000107
                },
                {
                    "name": "A4",
                    "midi": 69,
                    "time": 175.26412800000332,
                    "velocity": 0.5590551181102362,
                    "duration": 0.6991920000000107
                },
                {
                    "name": "D5",
                    "midi": 74,
                    "time": 175.96332000000334,
                    "velocity": 0.4015748031496063,
                    "duration": 0.11653200000000652
                },
                {
                    "name": "C5",
                    "midi": 72,
                    "time": 176.07985200000334,
                    "velocity": 0.4015748031496063,
                    "duration": 0.11653200000000652
                },
                {
                    "name": "A#4",
                    "midi": 70,
                    "time": 176.19638400000335,
                    "velocity": 0.44881889763779526,
                    "duration": 0.11653200000000652
                },
                {
                    "name": "A4",
                    "midi": 69,
                    "time": 176.42944800000336,
                    "velocity": 0.3937007874015748,
                    "duration": 0.11653200000000652
                },
                {
                    "name": "G4",
                    "midi": 67,
                    "time": 176.66251200000337,
                    "velocity": 0.3937007874015748,
                    "duration": 0.11653200000000652
                },
                {
                    "name": "F4",
                    "midi": 65,
                    "time": 176.8955760000034,
                    "velocity": 0.3937007874015748,
                    "duration": 0.11653200000000652
                },
                {
                    "name": "F4",
                    "midi": 65,
                    "time": 177.1286400000034,
                    "velocity": 0.4251968503937008,
                    "duration": 0.23306400000001304
                },
                {
                    "name": "D5",
                    "midi": 74,
                    "time": 177.3617040000034,
                    "velocity": 0.3937007874015748,
                    "duration": 0.22335300000000302
                },
                {
                    "name": "D5",
                    "midi": 74,
                    "time": 177.59476800000343,
                    "velocity": 0.5590551181102362,
                    "duration": 0.6991920000000107
                },
                {
                    "name": "F4",
                    "midi": 65,
                    "time": 177.59476800000343,
                    "velocity": 0.5590551181102362,
                    "duration": 0.6991920000000107
                },
                {
                    "name": "C5",
                    "midi": 72,
                    "time": 178.29396000000344,
                    "velocity": 0.41732283464566927,
                    "duration": 0.23306400000001304
                },
                {
                    "name": "E5",
                    "midi": 76,
                    "time": 178.52702400000345,
                    "velocity": 0.5196850393700787,
                    "duration": 0.23306400000001304
                },
                {
                    "name": "F5",
                    "midi": 77,
                    "time": 178.76008800000346,
                    "velocity": 0.49606299212598426,
                    "duration": 0.46612799999999766
                },
                {
                    "name": "G4",
                    "midi": 67,
                    "time": 179.22621600000346,
                    "velocity": 0.41732283464566927,
                    "duration": 0.23306400000001304
                },
                {
                    "name": "A4",
                    "midi": 69,
                    "time": 179.45928000000347,
                    "velocity": 0.41732283464566927,
                    "duration": 0.23306400000001304
                },
                {
                    "name": "F5",
                    "midi": 77,
                    "time": 179.6923440000035,
                    "velocity": 0.5433070866141733,
                    "duration": 0.46612799999999766
                },
                {
                    "name": "G4",
                    "midi": 67,
                    "time": 180.15847200000348,
                    "velocity": 0.41732283464566927,
                    "duration": 0.23306400000001304
                },
                {
                    "name": "A4",
                    "midi": 69,
                    "time": 180.3915360000035,
                    "velocity": 0.41732283464566927,
                    "duration": 0.23306400000001304
                },
                {
                    "name": "F5",
                    "midi": 77,
                    "time": 180.6246000000035,
                    "velocity": 0.5433070866141733,
                    "duration": 0.11653200000000652
                },
                {
                    "name": "C5",
                    "midi": 72,
                    "time": 180.85766400000352,
                    "velocity": 0.4251968503937008,
                    "duration": 0.46612799999999766
                },
                {
                    "name": "B4",
                    "midi": 71,
                    "time": 181.32379200000352,
                    "velocity": 0.41732283464566927,
                    "duration": 0.23306400000001304
                },
                {
                    "name": "A#4",
                    "midi": 70,
                    "time": 181.55685600000353,
                    "velocity": 0.41732283464566927,
                    "duration": 0.23306400000001304
                },
                {
                    "name": "A4",
                    "midi": 69,
                    "time": 181.78992000000355,
                    "velocity": 0.3779527559055118,
                    "duration": 0.11653200000000652
                },
                {
                    "name": "A4",
                    "midi": 69,
                    "time": 182.02298400000356,
                    "velocity": 0.4251968503937008,
                    "duration": 0.23306400000001304
                },
                {
                    "name": "A#4",
                    "midi": 70,
                    "time": 182.25604800000357,
                    "velocity": 0.47244094488188976,
                    "duration": 0.23306400000001304
                },
                {
                    "name": "C5",
                    "midi": 72,
                    "time": 182.4891120000036,
                    "velocity": 0.5039370078740157,
                    "duration": 0.23306400000001304
                },
                {
                    "name": "C#5",
                    "midi": 73,
                    "time": 182.7221760000036,
                    "velocity": 0.5905511811023622,
                    "duration": 0.05826600000000326
                },
                {
                    "name": "D5",
                    "midi": 74,
                    "time": 182.7804420000036,
                    "velocity": 0.5511811023622047,
                    "duration": 0.6409260000000074
                },
                {
                    "name": "E5",
                    "midi": 76,
                    "time": 183.4213680000036,
                    "velocity": 0.5511811023622047,
                    "duration": 0.11653200000000652
                },
                {
                    "name": "F#5",
                    "midi": 78,
                    "time": 183.53790000000362,
                    "velocity": 0.5275590551181102,
                    "duration": 0.11653200000000652
                },
                {
                    "name": "G5",
                    "midi": 79,
                    "time": 183.65443200000362,
                    "velocity": 0.5511811023622047,
                    "duration": 0.11653200000000652
                },
                {
                    "name": "A5",
                    "midi": 81,
                    "time": 183.77096400000363,
                    "velocity": 0.5275590551181102,
                    "duration": 0.11653200000000652
                },
                {
                    "name": "A#5",
                    "midi": 82,
                    "time": 183.88749600000364,
                    "velocity": 0.5511811023622047,
                    "duration": 0.11653200000000652
                },
                {
                    "name": "A5",
                    "midi": 81,
                    "time": 184.00402800000364,
                    "velocity": 0.5275590551181102,
                    "duration": 0.11653200000000652
                },
                {
                    "name": "G5",
                    "midi": 79,
                    "time": 184.12056000000365,
                    "velocity": 0.5511811023622047,
                    "duration": 0.11653200000000652
                },
                {
                    "name": "A5",
                    "midi": 81,
                    "time": 184.23709200000366,
                    "velocity": 0.5275590551181102,
                    "duration": 0.11653200000000652
                },
                {
                    "name": "F5",
                    "midi": 77,
                    "time": 184.35362400000366,
                    "velocity": 0.5511811023622047,
                    "duration": 0.11653200000000652
                },
                {
                    "name": "G5",
                    "midi": 79,
                    "time": 184.47015600000367,
                    "velocity": 0.5275590551181102,
                    "duration": 0.11653200000000652
                },
                {
                    "name": "E5",
                    "midi": 76,
                    "time": 184.58668800000368,
                    "velocity": 0.5590551181102362,
                    "duration": 0.11653200000000652
                },
                {
                    "name": "F5",
                    "midi": 77,
                    "time": 184.70322000000368,
                    "velocity": 0.5196850393700787,
                    "duration": 0.11653200000000652
                },
                {
                    "name": "D5",
                    "midi": 74,
                    "time": 184.8197520000037,
                    "velocity": 0.5590551181102362,
                    "duration": 0.11653200000000652
                },
                {
                    "name": "E5",
                    "midi": 76,
                    "time": 184.9362840000037,
                    "velocity": 0.5275590551181102,
                    "duration": 0.11653200000000652
                },
                {
                    "name": "C5",
                    "midi": 72,
                    "time": 185.0528160000037,
                    "velocity": 0.5511811023622047,
                    "duration": 0.11653200000000652
                },
                {
                    "name": "D5",
                    "midi": 74,
                    "time": 185.1693480000037,
                    "velocity": 0.5118110236220472,
                    "duration": 0.11653200000000652
                },
                {
                    "name": "A#4",
                    "midi": 70,
                    "time": 185.28588000000371,
                    "velocity": 0.5354330708661418,
                    "duration": 0.11653200000000652
                },
                {
                    "name": "C5",
                    "midi": 72,
                    "time": 185.40241200000372,
                    "velocity": 0.48031496062992124,
                    "duration": 0.11653200000000652
                },
                {
                    "name": "A4",
                    "midi": 69,
                    "time": 185.51894400000373,
                    "velocity": 0.5196850393700787,
                    "duration": 0.11653200000000652
                },
                {
                    "name": "A#4",
                    "midi": 70,
                    "time": 185.63547600000373,
                    "velocity": 0.5039370078740157,
                    "duration": 0.11653200000000652
                },
                {
                    "name": "C5",
                    "midi": 72,
                    "time": 185.75200800000374,
                    "velocity": 0.5354330708661418,
                    "duration": 0.11653200000000652
                },
                {
                    "name": "D5",
                    "midi": 74,
                    "time": 185.86854000000375,
                    "velocity": 0.5039370078740157,
                    "duration": 0.11653200000000652
                },
                {
                    "name": "E5",
                    "midi": 76,
                    "time": 185.98507200000375,
                    "velocity": 0.5590551181102362,
                    "duration": 0.11653200000000652
                },
                {
                    "name": "F5",
                    "midi": 77,
                    "time": 186.10160400000376,
                    "velocity": 0.5354330708661418,
                    "duration": 0.11653200000000652
                },
                {
                    "name": "E5",
                    "midi": 76,
                    "time": 186.21813600000377,
                    "velocity": 0.5590551181102362,
                    "duration": 0.11653200000000652
                },
                {
                    "name": "F5",
                    "midi": 77,
                    "time": 186.33466800000377,
                    "velocity": 0.5354330708661418,
                    "duration": 0.11653200000000652
                },
                {
                    "name": "G5",
                    "midi": 79,
                    "time": 186.45120000000378,
                    "velocity": 0.5669291338582677,
                    "duration": 0.11653200000000652
                },
                {
                    "name": "F5",
                    "midi": 77,
                    "time": 186.5677320000038,
                    "velocity": 0.5511811023622047,
                    "duration": 0.11653200000000652
                },
                {
                    "name": "E5",
                    "midi": 76,
                    "time": 186.6842640000038,
                    "velocity": 0.5433070866141733,
                    "duration": 0.11653200000000652
                },
                {
                    "name": "D5",
                    "midi": 74,
                    "time": 186.8007960000038,
                    "velocity": 0.5275590551181102,
                    "duration": 0.11653200000000652
                },
                {
                    "name": "E5",
                    "midi": 76,
                    "time": 186.9173280000038,
                    "velocity": 0.5669291338582677,
                    "duration": 0.11653200000000652
                },
                {
                    "name": "D5",
                    "midi": 74,
                    "time": 187.0338600000038,
                    "velocity": 0.5511811023622047,
                    "duration": 0.11653200000000652
                },
                {
                    "name": "C5",
                    "midi": 72,
                    "time": 187.15039200000382,
                    "velocity": 0.5433070866141733,
                    "duration": 0.11653200000000652
                },
                {
                    "name": "A#4",
                    "midi": 70,
                    "time": 187.26692400000383,
                    "velocity": 0.5275590551181102,
                    "duration": 0.11653200000000652
                },
                {
                    "name": "A4",
                    "midi": 69,
                    "time": 187.38345600000383,
                    "velocity": 0.5590551181102362,
                    "duration": 0.46612799999999766
                },
                {
                    "name": "G4",
                    "midi": 67,
                    "time": 187.84958400000383,
                    "velocity": 0.4566929133858268,
                    "duration": 0.05826600000000326
                },
                {
                    "name": "E4",
                    "midi": 64,
                    "time": 187.84958400000383,
                    "velocity": 0.4566929133858268,
                    "duration": 0.4661280000000545
                },
                {
                    "name": "A4",
                    "midi": 69,
                    "time": 187.90785000000383,
                    "velocity": 0.4015748031496063,
                    "duration": 0.05826600000000326
                },
                {
                    "name": "G4",
                    "midi": 67,
                    "time": 187.96611600000384,
                    "velocity": 0.4566929133858268,
                    "duration": 0.05826600000000326
                },
                {
                    "name": "A4",
                    "midi": 69,
                    "time": 188.02438200000384,
                    "velocity": 0.4094488188976378,
                    "duration": 0.05826600000000326
                },
                {
                    "name": "G4",
                    "midi": 67,
                    "time": 188.08264800000384,
                    "velocity": 0.4566929133858268,
                    "duration": 0.03884400000001165
                },
                {
                    "name": "A4",
                    "midi": 69,
                    "time": 188.12149200000385,
                    "velocity": 0.41732283464566927,
                    "duration": 0.03884400000001165
                },
                {
                    "name": "G4",
                    "midi": 67,
                    "time": 188.16033600000387,
                    "velocity": 0.41732283464566927,
                    "duration": 0.03884400000001165
                },
                {
                    "name": "F4",
                    "midi": 65,
                    "time": 188.19918000000388,
                    "velocity": 0.5196850393700787,
                    "duration": 0.05826600000000326
                },
                {
                    "name": "G4",
                    "midi": 67,
                    "time": 188.25744600000388,
                    "velocity": 0.4881889763779528,
                    "duration": 0.05826600000000326
                },
                {
                    "name": "F4",
                    "midi": 65,
                    "time": 188.31571200000388,
                    "velocity": 0.5905511811023622,
                    "duration": 0.46612799999999766
                },
                {
                    "name": "A#5",
                    "midi": 82,
                    "time": 190.18022400000388,
                    "velocity": 0.7559055118110236,
                    "duration": 0.23306400000001304
                },
                {
                    "name": "G5",
                    "midi": 79,
                    "time": 190.4132880000039,
                    "velocity": 0.4881889763779528,
                    "duration": 0.11653200000000652
                },
                {
                    "name": "E5",
                    "midi": 76,
                    "time": 190.6463520000039,
                    "velocity": 0.5196850393700787,
                    "duration": 0.11653200000000652
                },
                {
                    "name": "E5",
                    "midi": 76,
                    "time": 190.8794160000039,
                    "velocity": 0.4881889763779528,
                    "duration": 0.11653200000000652
                },
                {
                    "name": "A#5",
                    "midi": 82,
                    "time": 191.11248000000393,
                    "velocity": 0.7559055118110236,
                    "duration": 0.23306400000001304
                },
                {
                    "name": "G5",
                    "midi": 79,
                    "time": 191.34554400000394,
                    "velocity": 0.4645669291338583,
                    "duration": 0.11653200000000652
                },
                {
                    "name": "E5",
                    "midi": 76,
                    "time": 191.57860800000395,
                    "velocity": 0.49606299212598426,
                    "duration": 0.11653200000000652
                },
                {
                    "name": "E5",
                    "midi": 76,
                    "time": 191.81167200000397,
                    "velocity": 0.47244094488188976,
                    "duration": 0.11653200000000652
                },
                {
                    "name": "F5",
                    "midi": 77,
                    "time": 192.04473600000398,
                    "velocity": 0.4881889763779528,
                    "duration": 0.11653200000000652
                },
                {
                    "name": "G5",
                    "midi": 79,
                    "time": 192.277800000004,
                    "velocity": 0.49606299212598426,
                    "duration": 0.11653200000000652
                },
                {
                    "name": "A5",
                    "midi": 81,
                    "time": 192.510864000004,
                    "velocity": 0.5039370078740157,
                    "duration": 0.11653200000000652
                },
                {
                    "name": "A#5",
                    "midi": 82,
                    "time": 192.74392800000402,
                    "velocity": 0.5196850393700787,
                    "duration": 0.11653200000000652
                },
                {
                    "name": "B5",
                    "midi": 83,
                    "time": 192.97699200000403,
                    "velocity": 0.7322834645669292,
                    "duration": 0.23306400000001304
                },
                {
                    "name": "C6",
                    "midi": 84,
                    "time": 193.21005600000404,
                    "velocity": 0.5905511811023622,
                    "duration": 0.23306400000001304
                },
                {
                    "name": "B5",
                    "midi": 83,
                    "time": 193.44312000000406,
                    "velocity": 0.7322834645669292,
                    "duration": 0.23306400000001304
                },
                {
                    "name": "C6",
                    "midi": 84,
                    "time": 193.67618400000407,
                    "velocity": 0.5905511811023622,
                    "duration": 0.23306400000001304
                },
                {
                    "name": "A#5",
                    "midi": 82,
                    "time": 193.90924800000408,
                    "velocity": 0.7480314960629921,
                    "duration": 0.23306400000001304
                },
                {
                    "name": "G5",
                    "midi": 79,
                    "time": 194.1423120000041,
                    "velocity": 0.4881889763779528,
                    "duration": 0.11653200000000652
                },
                {
                    "name": "E5",
                    "midi": 76,
                    "time": 194.3753760000041,
                    "velocity": 0.5275590551181102,
                    "duration": 0.11653200000000652
                },
                {
                    "name": "E5",
                    "midi": 76,
                    "time": 194.60844000000412,
                    "velocity": 0.4881889763779528,
                    "duration": 0.11653200000000652
                },
                {
                    "name": "A#5",
                    "midi": 82,
                    "time": 194.84150400000414,
                    "velocity": 0.7637795275590551,
                    "duration": 0.23306400000001304
                },
                {
                    "name": "G5",
                    "midi": 79,
                    "time": 195.07456800000415,
                    "velocity": 0.4645669291338583,
                    "duration": 0.11653200000000652
                },
                {
                    "name": "E5",
                    "midi": 76,
                    "time": 195.30763200000416,
                    "velocity": 0.5118110236220472,
                    "duration": 0.11653200000000652
                },
                {
                    "name": "E5",
                    "midi": 76,
                    "time": 195.54069600000417,
                    "velocity": 0.47244094488188976,
                    "duration": 0.11653200000000652
                },
                {
                    "name": "F5",
                    "midi": 77,
                    "time": 195.7737600000042,
                    "velocity": 0.4881889763779528,
                    "duration": 0.11653200000000652
                },
                {
                    "name": "G5",
                    "midi": 79,
                    "time": 196.0068240000042,
                    "velocity": 0.49606299212598426,
                    "duration": 0.11653200000000652
                },
                {
                    "name": "A5",
                    "midi": 81,
                    "time": 196.2398880000042,
                    "velocity": 0.5039370078740157,
                    "duration": 0.11653200000000652
                },
                {
                    "name": "A#5",
                    "midi": 82,
                    "time": 196.47295200000423,
                    "velocity": 0.5196850393700787,
                    "duration": 0.11653200000000652
                },
                {
                    "name": "B5",
                    "midi": 83,
                    "time": 196.70601600000424,
                    "velocity": 0.7322834645669292,
                    "duration": 0.23306400000001304
                },
                {
                    "name": "C6",
                    "midi": 84,
                    "time": 196.93908000000425,
                    "velocity": 0.5905511811023622,
                    "duration": 0.23306400000001304
                },
                {
                    "name": "B5",
                    "midi": 83,
                    "time": 197.17214400000427,
                    "velocity": 0.7322834645669292,
                    "duration": 0.23306400000001304
                },
                {
                    "name": "C6",
                    "midi": 84,
                    "time": 197.40520800000428,
                    "velocity": 0.5905511811023622,
                    "duration": 0.23306400000001304
                },
                {
                    "name": "D5",
                    "midi": 74,
                    "time": 197.6382720000043,
                    "velocity": 0.6141732283464567,
                    "duration": 0.9322559999999953
                },
                {
                    "name": "D6",
                    "midi": 86,
                    "time": 197.6382720000043,
                    "velocity": 0.6141732283464567,
                    "duration": 0.9322559999999953
                },
                {
                    "name": "E5",
                    "midi": 76,
                    "time": 198.5705280000043,
                    "velocity": 0.5039370078740157,
                    "duration": 0.9322559999999953
                },
                {
                    "name": "E4",
                    "midi": 64,
                    "time": 198.5705280000043,
                    "velocity": 0.5039370078740157,
                    "duration": 0.9322559999999953
                },
                {
                    "name": "A#4",
                    "midi": 70,
                    "time": 199.50278400000428,
                    "velocity": 0.5590551181102362,
                    "duration": 0.9322559999999953
                },
                {
                    "name": "A#5",
                    "midi": 82,
                    "time": 199.50278400000428,
                    "velocity": 0.5590551181102362,
                    "duration": 0.9322559999999953
                },
                {
                    "name": "A4",
                    "midi": 69,
                    "time": 200.43504000000428,
                    "velocity": 0.5196850393700787,
                    "duration": 0.9322559999999953
                },
                {
                    "name": "A5",
                    "midi": 81,
                    "time": 200.43504000000428,
                    "velocity": 0.5196850393700787,
                    "duration": 0.9322559999999953
                },
                {
                    "name": "A5",
                    "midi": 81,
                    "time": 201.36729600000427,
                    "velocity": 0.5905511811023622,
                    "duration": 0.11653200000000652
                },
                {
                    "name": "G5",
                    "midi": 79,
                    "time": 201.48382800000428,
                    "velocity": 0.5354330708661418,
                    "duration": 0.11653200000000652
                },
                {
                    "name": "A#5",
                    "midi": 82,
                    "time": 201.6003600000043,
                    "velocity": 0.5669291338582677,
                    "duration": 0.11653200000000652
                },
                {
                    "name": "A5",
                    "midi": 81,
                    "time": 201.7168920000043,
                    "velocity": 0.5354330708661418,
                    "duration": 0.11653200000000652
                },
                {
                    "name": "C6",
                    "midi": 84,
                    "time": 201.8334240000043,
                    "velocity": 0.5669291338582677,
                    "duration": 0.11653200000000652
                },
                {
                    "name": "A#5",
                    "midi": 82,
                    "time": 201.9499560000043,
                    "velocity": 0.5590551181102362,
                    "duration": 0.11653200000000652
                },
                {
                    "name": "A5",
                    "midi": 81,
                    "time": 202.0664880000043,
                    "velocity": 0.5590551181102362,
                    "duration": 0.11653200000000652
                },
                {
                    "name": "G5",
                    "midi": 79,
                    "time": 202.18302000000432,
                    "velocity": 0.5433070866141733,
                    "duration": 0.11653200000000652
                },
                {
                    "name": "F5",
                    "midi": 77,
                    "time": 202.29955200000433,
                    "velocity": 0.5669291338582677,
                    "duration": 0.46612799999999766
                },
                {
                    "name": "E5",
                    "midi": 76,
                    "time": 202.76568000000432,
                    "velocity": 0.49606299212598426,
                    "duration": 0.46612799999999766
                },
                {
                    "name": "F5",
                    "midi": 77,
                    "time": 203.46487200000433,
                    "velocity": 0.3543307086614173,
                    "duration": 0.23306400000001304
                },
                {
                    "name": "E5",
                    "midi": 76,
                    "time": 203.69793600000435,
                    "velocity": 0.3858267716535433,
                    "duration": 0.23306400000001304
                },
                {
                    "name": "F5",
                    "midi": 77,
                    "time": 203.93100000000436,
                    "velocity": 0.3543307086614173,
                    "duration": 0.23306400000001304
                },
                {
                    "name": "D#5",
                    "midi": 75,
                    "time": 204.3971280000044,
                    "velocity": 0.3543307086614173,
                    "duration": 0.23306400000001304
                },
                {
                    "name": "D5",
                    "midi": 74,
                    "time": 204.6301920000044,
                    "velocity": 0.3937007874015748,
                    "duration": 0.23306400000001304
                },
                {
                    "name": "D#5",
                    "midi": 75,
                    "time": 204.8632560000044,
                    "velocity": 0.36220472440944884,
                    "duration": 0.23306400000001304
                },
                {
                    "name": "D5",
                    "midi": 74,
                    "time": 205.32938400000444,
                    "velocity": 0.4251968503937008,
                    "duration": 0.23306400000001304
                },
                {
                    "name": "D6",
                    "midi": 86,
                    "time": 205.56244800000445,
                    "velocity": 0.5275590551181102,
                    "duration": 0.23306400000001304
                },
                {
                    "name": "D6",
                    "midi": 86,
                    "time": 205.79551200000446,
                    "velocity": 0.49606299212598426,
                    "duration": 0.11653200000000652
                },
                {
                    "name": "D6",
                    "midi": 86,
                    "time": 206.26164000000446,
                    "velocity": 0.48031496062992124,
                    "duration": 0.23306400000001304
                },
                {
                    "name": "D5",
                    "midi": 74,
                    "time": 206.49470400000448,
                    "velocity": 0.4015748031496063,
                    "duration": 0.23306400000001304
                },
                {
                    "name": "D5",
                    "midi": 74,
                    "time": 206.7277680000045,
                    "velocity": 0.3700787401574803,
                    "duration": 0.11653200000000652
                },
                {
                    "name": "C5",
                    "midi": 72,
                    "time": 207.1938960000045,
                    "velocity": 0.3858267716535433,
                    "duration": 0.23306400000001304
                },
                {
                    "name": "C6",
                    "midi": 84,
                    "time": 207.4269600000045,
                    "velocity": 0.4881889763779528,
                    "duration": 0.23306400000001304
                },
                {
                    "name": "C6",
                    "midi": 84,
                    "time": 207.6600240000045,
                    "velocity": 0.44881889763779526,
                    "duration": 0.11653200000000652
                },
                {
                    "name": "C6",
                    "midi": 84,
                    "time": 208.1261520000045,
                    "velocity": 0.4409448818897638,
                    "duration": 0.23306400000001304
                },
                {
                    "name": "C5",
                    "midi": 72,
                    "time": 208.35921600000452,
                    "velocity": 0.3779527559055118,
                    "duration": 0.23306400000001304
                },
                {
                    "name": "C5",
                    "midi": 72,
                    "time": 208.59228000000454,
                    "velocity": 0.3543307086614173,
                    "duration": 0.11653200000000652
                },
                {
                    "name": "C#5",
                    "midi": 73,
                    "time": 208.82534400000455,
                    "velocity": 0.36220472440944884,
                    "duration": 0.23306400000001304
                },
                {
                    "name": "D5",
                    "midi": 74,
                    "time": 209.05840800000456,
                    "velocity": 0.3937007874015748,
                    "duration": 0.23306400000001304
                },
                {
                    "name": "E5",
                    "midi": 76,
                    "time": 209.29147200000457,
                    "velocity": 0.4251968503937008,
                    "duration": 0.23306400000001304
                },
                {
                    "name": "F5",
                    "midi": 77,
                    "time": 209.5245360000046,
                    "velocity": 0.3858267716535433,
                    "duration": 0.23306400000001304
                },
                {
                    "name": "F4",
                    "midi": 65,
                    "time": 209.7576000000046,
                    "velocity": 0.3543307086614173,
                    "duration": 0.46612799999999766
                },
                {
                    "name": "E4",
                    "midi": 64,
                    "time": 210.2237280000046,
                    "velocity": 0.33070866141732286,
                    "duration": 0.4661280000000261
                },
                {
                    "name": "A4",
                    "midi": 69,
                    "time": 210.2237280000046,
                    "velocity": 0.33070866141732286,
                    "duration": 0.23306400000001304
                },
                {
                    "name": "G4",
                    "midi": 67,
                    "time": 210.4567920000046,
                    "velocity": 0.33070866141732286,
                    "duration": 0.23306400000001304
                },
                {
                    "name": "F4",
                    "midi": 65,
                    "time": 210.68985600000462,
                    "velocity": 0.3543307086614173,
                    "duration": 0.11653200000000652
                },
                {
                    "name": "F4",
                    "midi": 65,
                    "time": 210.92292000000464,
                    "velocity": 0.3700787401574803,
                    "duration": 0.11653200000000652
                },
                {
                    "name": "A4",
                    "midi": 69,
                    "time": 211.03945200000464,
                    "velocity": 0.3543307086614173,
                    "duration": 0.11653200000000652
                },
                {
                    "name": "G4",
                    "midi": 67,
                    "time": 211.15598400000465,
                    "velocity": 0.3700787401574803,
                    "duration": 0.11653200000000652
                },
                {
                    "name": "A#4",
                    "midi": 70,
                    "time": 211.27251600000466,
                    "velocity": 0.3543307086614173,
                    "duration": 0.11653200000000652
                },
                {
                    "name": "A4",
                    "midi": 69,
                    "time": 211.38904800000466,
                    "velocity": 0.3700787401574803,
                    "duration": 0.11653200000000652
                },
                {
                    "name": "C5",
                    "midi": 72,
                    "time": 211.50558000000467,
                    "velocity": 0.3543307086614173,
                    "duration": 0.11653200000000652
                },
                {
                    "name": "A#4",
                    "midi": 70,
                    "time": 211.62211200000468,
                    "velocity": 0.3779527559055118,
                    "duration": 0.11653200000000652
                },
                {
                    "name": "F4",
                    "midi": 65,
                    "time": 211.8551760000047,
                    "velocity": 0.4094488188976378,
                    "duration": 0.11653200000000652
                },
                {
                    "name": "A4",
                    "midi": 69,
                    "time": 211.9717080000047,
                    "velocity": 0.3779527559055118,
                    "duration": 0.11653200000000652
                },
                {
                    "name": "G4",
                    "midi": 67,
                    "time": 212.0882400000047,
                    "velocity": 0.4094488188976378,
                    "duration": 0.11653200000000652
                },
                {
                    "name": "A#4",
                    "midi": 70,
                    "time": 212.2047720000047,
                    "velocity": 0.3779527559055118,
                    "duration": 0.11653200000000652
                },
                {
                    "name": "A4",
                    "midi": 69,
                    "time": 212.32130400000472,
                    "velocity": 0.4094488188976378,
                    "duration": 0.11653200000000652
                },
                {
                    "name": "C5",
                    "midi": 72,
                    "time": 212.43783600000472,
                    "velocity": 0.3779527559055118,
                    "duration": 0.11653200000000652
                },
                {
                    "name": "A#4",
                    "midi": 70,
                    "time": 212.55436800000473,
                    "velocity": 0.4094488188976378,
                    "duration": 0.11653200000000652
                },
                {
                    "name": "F4",
                    "midi": 65,
                    "time": 212.78743200000474,
                    "velocity": 0.3779527559055118,
                    "duration": 0.11653200000000652
                },
                {
                    "name": "A4",
                    "midi": 69,
                    "time": 212.90396400000475,
                    "velocity": 0.3937007874015748,
                    "duration": 0.11653200000000652
                },
                {
                    "name": "G4",
                    "midi": 67,
                    "time": 213.02049600000475,
                    "velocity": 0.4094488188976378,
                    "duration": 0.11653200000000652
                },
                {
                    "name": "A#4",
                    "midi": 70,
                    "time": 213.13702800000476,
                    "velocity": 0.41732283464566927,
                    "duration": 0.11653200000000652
                },
                {
                    "name": "A4",
                    "midi": 69,
                    "time": 213.25356000000477,
                    "velocity": 0.4251968503937008,
                    "duration": 0.11653200000000652
                },
                {
                    "name": "C5",
                    "midi": 72,
                    "time": 213.37009200000477,
                    "velocity": 0.44881889763779526,
                    "duration": 0.11653200000000652
                },
                {
                    "name": "A#4",
                    "midi": 70,
                    "time": 213.48662400000478,
                    "velocity": 0.4566929133858268,
                    "duration": 0.11653200000000652
                },
                {
                    "name": "D5",
                    "midi": 74,
                    "time": 213.6031560000048,
                    "velocity": 0.47244094488188976,
                    "duration": 0.11653200000000652
                },
                {
                    "name": "C5",
                    "midi": 72,
                    "time": 213.7196880000048,
                    "velocity": 0.48031496062992124,
                    "duration": 0.11653200000000652
                },
                {
                    "name": "D#5",
                    "midi": 75,
                    "time": 213.8362200000048,
                    "velocity": 0.49606299212598426,
                    "duration": 0.11653200000000652
                },
                {
                    "name": "D5",
                    "midi": 74,
                    "time": 213.9527520000048,
                    "velocity": 0.5039370078740157,
                    "duration": 0.11653200000000652
                },
                {
                    "name": "F5",
                    "midi": 77,
                    "time": 214.0692840000048,
                    "velocity": 0.5118110236220472,
                    "duration": 0.11653200000000652
                },
                {
                    "name": "E5",
                    "midi": 76,
                    "time": 214.18581600000482,
                    "velocity": 0.5275590551181102,
                    "duration": 0.11653200000000652
                },
                {
                    "name": "G5",
                    "midi": 79,
                    "time": 214.30234800000483,
                    "velocity": 0.5433070866141733,
                    "duration": 0.11653200000000652
                },
                {
                    "name": "F5",
                    "midi": 77,
                    "time": 214.41888000000483,
                    "velocity": 0.5511811023622047,
                    "duration": 0.11653200000000652
                },
                {
                    "name": "G5",
                    "midi": 79,
                    "time": 214.53541200000484,
                    "velocity": 0.5669291338582677,
                    "duration": 0.11653200000000652
                },
                {
                    "name": "A5",
                    "midi": 81,
                    "time": 214.65194400000485,
                    "velocity": 0.5905511811023622,
                    "duration": 0.11653200000000652
                },
                {
                    "name": "G5",
                    "midi": 79,
                    "time": 214.76847600000485,
                    "velocity": 0.5905511811023622,
                    "duration": 0.11653200000000652
                },
                {
                    "name": "F5",
                    "midi": 77,
                    "time": 214.88500800000486,
                    "velocity": 0.5748031496062992,
                    "duration": 0.11653200000000652
                },
                {
                    "name": "D#5",
                    "midi": 75,
                    "time": 215.00154000000487,
                    "velocity": 0.5669291338582677,
                    "duration": 0.11653200000000652
                },
                {
                    "name": "D5",
                    "midi": 74,
                    "time": 215.11807200000487,
                    "velocity": 0.5590551181102362,
                    "duration": 0.11653200000000652
                },
                {
                    "name": "C#5",
                    "midi": 73,
                    "time": 215.23460400000488,
                    "velocity": 0.5511811023622047,
                    "duration": 0.11653200000000652
                },
                {
                    "name": "D5",
                    "midi": 74,
                    "time": 215.35113600000489,
                    "velocity": 0.5669291338582677,
                    "duration": 0.11653200000000652
                },
                {
                    "name": "C5",
                    "midi": 72,
                    "time": 215.4676680000049,
                    "velocity": 0.5433070866141733,
                    "duration": 0.11653200000000652
                },
                {
                    "name": "A#4",
                    "midi": 70,
                    "time": 215.5842000000049,
                    "velocity": 0.5590551181102362,
                    "duration": 0.11653200000000652
                },
                {
                    "name": "A4",
                    "midi": 69,
                    "time": 215.7007320000049,
                    "velocity": 0.5354330708661418,
                    "duration": 0.11653200000000652
                },
                {
                    "name": "G4",
                    "midi": 67,
                    "time": 215.8172640000049,
                    "velocity": 0.5511811023622047,
                    "duration": 0.11653200000000652
                },
                {
                    "name": "F4",
                    "midi": 65,
                    "time": 215.93379600000492,
                    "velocity": 0.5275590551181102,
                    "duration": 0.11653200000000652
                },
                {
                    "name": "E4",
                    "midi": 64,
                    "time": 216.05032800000492,
                    "velocity": 0.5433070866141733,
                    "duration": 0.11653200000000652
                },
                {
                    "name": "D4",
                    "midi": 62,
                    "time": 216.16686000000493,
                    "velocity": 0.5118110236220472,
                    "duration": 0.11653200000000652
                },
                {
                    "name": "C4",
                    "midi": 60,
                    "time": 216.28339200000494,
                    "velocity": 0.5354330708661418,
                    "duration": 0.11653200000000652
                },
                {
                    "name": "F4",
                    "midi": 65,
                    "time": 216.39992400000494,
                    "velocity": 0.5118110236220472,
                    "duration": 0.11653200000000652
                },
                {
                    "name": "A4",
                    "midi": 69,
                    "time": 216.51645600000495,
                    "velocity": 0.5354330708661418,
                    "duration": 0.11653200000000652
                },
                {
                    "name": "C5",
                    "midi": 72,
                    "time": 216.63298800000496,
                    "velocity": 0.5118110236220472,
                    "duration": 0.11653200000000652
                },
                {
                    "name": "F5",
                    "midi": 77,
                    "time": 216.74952000000496,
                    "velocity": 0.5669291338582677,
                    "duration": 0.11653200000000652
                },
                {
                    "name": "F4",
                    "midi": 65,
                    "time": 216.98258400000498,
                    "velocity": 0.4645669291338583,
                    "duration": 0.11653200000000652
                },
                {
                    "name": "A4",
                    "midi": 69,
                    "time": 216.98258400000498,
                    "velocity": 0.4645669291338583,
                    "duration": 0.11653200000000652
                },
                {
                    "name": "A4",
                    "midi": 69,
                    "time": 217.215648000005,
                    "velocity": 0.5039370078740157,
                    "duration": 0.23306400000001304
                },
                {
                    "name": "C5",
                    "midi": 72,
                    "time": 217.215648000005,
                    "velocity": 0.5039370078740157,
                    "duration": 0.23306400000001304
                },
                {
                    "name": "A#4",
                    "midi": 70,
                    "time": 217.448712000005,
                    "velocity": 0.47244094488188976,
                    "duration": 0.11653200000000652
                },
                {
                    "name": "G4",
                    "midi": 67,
                    "time": 217.448712000005,
                    "velocity": 0.47244094488188976,
                    "duration": 0.11653200000000652
                },
                {
                    "name": "A4",
                    "midi": 69,
                    "time": 217.68177600000502,
                    "velocity": 0.48031496062992124,
                    "duration": 0.11653200000000652
                },
                {
                    "name": "F4",
                    "midi": 65,
                    "time": 217.68177600000502,
                    "velocity": 0.48031496062992124,
                    "duration": 0.11653200000000652
                },
                {
                    "name": "E4",
                    "midi": 64,
                    "time": 217.91484000000503,
                    "velocity": 0.4566929133858268,
                    "duration": 0.11653200000000652
                },
                {
                    "name": "G4",
                    "midi": 67,
                    "time": 217.91484000000503,
                    "velocity": 0.4566929133858268,
                    "duration": 0.11653200000000652
                },
                {
                    "name": "F4",
                    "midi": 65,
                    "time": 218.14790400000504,
                    "velocity": 0.48031496062992124,
                    "duration": 0.11653200000000652
                },
                {
                    "name": "F5",
                    "midi": 77,
                    "time": 218.38096800000505,
                    "velocity": 0.3700787401574803,
                    "duration": 0.11653200000000652
                },
                {
                    "name": "A5",
                    "midi": 81,
                    "time": 218.49750000000506,
                    "velocity": 0.3543307086614173,
                    "duration": 0.11653200000000652
                },
                {
                    "name": "G5",
                    "midi": 79,
                    "time": 218.61403200000507,
                    "velocity": 0.3700787401574803,
                    "duration": 0.11653200000000652
                },
                {
                    "name": "A#5",
                    "midi": 82,
                    "time": 218.73056400000507,
                    "velocity": 0.3543307086614173,
                    "duration": 0.11653200000000652
                },
                {
                    "name": "A5",
                    "midi": 81,
                    "time": 218.84709600000508,
                    "velocity": 0.3700787401574803,
                    "duration": 0.11653200000000652
                },
                {
                    "name": "C6",
                    "midi": 84,
                    "time": 218.9636280000051,
                    "velocity": 0.3543307086614173,
                    "duration": 0.11653200000000652
                },
                {
                    "name": "A#5",
                    "midi": 82,
                    "time": 219.0801600000051,
                    "velocity": 0.3779527559055118,
                    "duration": 0.11653200000000652
                },
                {
                    "name": "F5",
                    "midi": 77,
                    "time": 219.3132240000051,
                    "velocity": 0.4251968503937008,
                    "duration": 0.11653200000000652
                },
                {
                    "name": "A5",
                    "midi": 81,
                    "time": 219.4297560000051,
                    "velocity": 0.3937007874015748,
                    "duration": 0.11653200000000652
                },
                {
                    "name": "G5",
                    "midi": 79,
                    "time": 219.54628800000512,
                    "velocity": 0.4251968503937008,
                    "duration": 0.11653200000000652
                },
                {
                    "name": "A#5",
                    "midi": 82,
                    "time": 219.66282000000513,
                    "velocity": 0.4015748031496063,
                    "duration": 0.11653200000000652
                },
                {
                    "name": "A5",
                    "midi": 81,
                    "time": 219.77935200000513,
                    "velocity": 0.4251968503937008,
                    "duration": 0.11653200000000652
                },
                {
                    "name": "C6",
                    "midi": 84,
                    "time": 219.89588400000514,
                    "velocity": 0.3937007874015748,
                    "duration": 0.11653200000000652
                },
                {
                    "name": "A#5",
                    "midi": 82,
                    "time": 220.01241600000515,
                    "velocity": 0.4251968503937008,
                    "duration": 0.11653200000000652
                },
                {
                    "name": "F5",
                    "midi": 77,
                    "time": 220.24548000000516,
                    "velocity": 0.4330708661417323,
                    "duration": 0.11653200000000652
                },
                {
                    "name": "A5",
                    "midi": 81,
                    "time": 220.36201200000517,
                    "velocity": 0.4409448818897638,
                    "duration": 0.11653200000000652
                },
                {
                    "name": "G5",
                    "midi": 79,
                    "time": 220.47854400000517,
                    "velocity": 0.4566929133858268,
                    "duration": 0.11653200000000652
                },
                {
                    "name": "A#5",
                    "midi": 82,
                    "time": 220.59507600000518,
                    "velocity": 0.4645669291338583,
                    "duration": 0.11653200000000652
                },
                {
                    "name": "A5",
                    "midi": 81,
                    "time": 220.71160800000519,
                    "velocity": 0.48031496062992124,
                    "duration": 0.11653200000000652
                },
                {
                    "name": "C6",
                    "midi": 84,
                    "time": 220.8281400000052,
                    "velocity": 0.49606299212598426,
                    "duration": 0.11653200000000652
                },
                {
                    "name": "A#5",
                    "midi": 82,
                    "time": 220.9446720000052,
                    "velocity": 0.5039370078740157,
                    "duration": 0.11653200000000652
                },
                {
                    "name": "F5",
                    "midi": 77,
                    "time": 221.0612040000052,
                    "velocity": 0.5275590551181102,
                    "duration": 0.11653200000000652
                },
                {
                    "name": "C6",
                    "midi": 84,
                    "time": 221.1777360000052,
                    "velocity": 0.5354330708661418,
                    "duration": 0.11653200000000652
                },
                {
                    "name": "F5",
                    "midi": 77,
                    "time": 221.29426800000522,
                    "velocity": 0.5433070866141733,
                    "duration": 0.11653200000000652
                },
                {
                    "name": "D6",
                    "midi": 86,
                    "time": 221.41080000000522,
                    "velocity": 0.5511811023622047,
                    "duration": 0.11653200000000652
                },
                {
                    "name": "F5",
                    "midi": 77,
                    "time": 221.52733200000523,
                    "velocity": 0.5669291338582677,
                    "duration": 0.11653200000000652
                },
                {
                    "name": "E6",
                    "midi": 88,
                    "time": 221.64386400000524,
                    "velocity": 0.5826771653543307,
                    "duration": 0.11653200000000652
                },
                {
                    "name": "F5",
                    "midi": 77,
                    "time": 221.76039600000524,
                    "velocity": 0.5905511811023622,
                    "duration": 0.11653200000000652
                },
                {
                    "name": "F6",
                    "midi": 89,
                    "time": 221.87692800000525,
                    "velocity": 0.6141732283464567,
                    "duration": 0.11653200000000652
                },
                {
                    "name": "E6",
                    "midi": 88,
                    "time": 221.99346000000526,
                    "velocity": 0.6141732283464567,
                    "duration": 0.11653200000000652
                },
                {
                    "name": "D6",
                    "midi": 86,
                    "time": 222.10999200000526,
                    "velocity": 0.6062992125984252,
                    "duration": 0.11653200000000652
                },
                {
                    "name": "C6",
                    "midi": 84,
                    "time": 222.22652400000527,
                    "velocity": 0.5905511811023622,
                    "duration": 0.11653200000000652
                },
                {
                    "name": "A#5",
                    "midi": 82,
                    "time": 222.34305600000528,
                    "velocity": 0.5826771653543307,
                    "duration": 0.11653200000000652
                },
                {
                    "name": "A5",
                    "midi": 81,
                    "time": 222.45958800000528,
                    "velocity": 0.5748031496062992,
                    "duration": 0.11653200000000652
                },
                {
                    "name": "G5",
                    "midi": 79,
                    "time": 222.5761200000053,
                    "velocity": 0.5669291338582677,
                    "duration": 0.11653200000000652
                },
                {
                    "name": "F5",
                    "midi": 77,
                    "time": 222.6926520000053,
                    "velocity": 0.5590551181102362,
                    "duration": 0.11653200000000652
                },
                {
                    "name": "D6",
                    "midi": 86,
                    "time": 222.8091840000053,
                    "velocity": 0.6220472440944882,
                    "duration": 0.11653200000000652
                },
                {
                    "name": "C6",
                    "midi": 84,
                    "time": 222.9257160000053,
                    "velocity": 0.5905511811023622,
                    "duration": 0.11653200000000652
                },
                {
                    "name": "A#5",
                    "midi": 82,
                    "time": 223.04224800000532,
                    "velocity": 0.6141732283464567,
                    "duration": 0.11653200000000652
                },
                {
                    "name": "A5",
                    "midi": 81,
                    "time": 223.15878000000532,
                    "velocity": 0.6062992125984252,
                    "duration": 0.11653200000000652
                },
                {
                    "name": "G5",
                    "midi": 79,
                    "time": 223.27531200000533,
                    "velocity": 0.5905511811023622,
                    "duration": 0.11653200000000652
                },
                {
                    "name": "F5",
                    "midi": 77,
                    "time": 223.39184400000534,
                    "velocity": 0.5590551181102362,
                    "duration": 0.11653200000000652
                },
                {
                    "name": "E5",
                    "midi": 76,
                    "time": 223.50837600000534,
                    "velocity": 0.5748031496062992,
                    "duration": 0.11653200000000652
                },
                {
                    "name": "D5",
                    "midi": 74,
                    "time": 223.62490800000535,
                    "velocity": 0.5511811023622047,
                    "duration": 0.11653200000000652
                },
                {
                    "name": "C5",
                    "midi": 72,
                    "time": 223.74144000000535,
                    "velocity": 0.6141732283464567,
                    "duration": 0.23306400000001304
                },
                {
                    "name": "C6",
                    "midi": 84,
                    "time": 223.97450400000537,
                    "velocity": 0.5905511811023622,
                    "duration": 0.11653200000000652
                },
                {
                    "name": "C6",
                    "midi": 84,
                    "time": 224.20756800000538,
                    "velocity": 0.6141732283464567,
                    "duration": 0.11653200000000652
                },
                {
                    "name": "C6",
                    "midi": 84,
                    "time": 224.4406320000054,
                    "velocity": 0.6062992125984252,
                    "duration": 0.11653200000000652
                },
                {
                    "name": "C6",
                    "midi": 84,
                    "time": 224.6736960000054,
                    "velocity": 0.5905511811023622,
                    "duration": 0.11653200000000652
                },
                {
                    "name": "A5",
                    "midi": 81,
                    "time": 224.7902280000054,
                    "velocity": 0.5669291338582677,
                    "duration": 0.11653200000000652
                },
                {
                    "name": "F5",
                    "midi": 77,
                    "time": 224.90676000000542,
                    "velocity": 0.5511811023622047,
                    "duration": 0.11653200000000652
                },
                {
                    "name": "C5",
                    "midi": 72,
                    "time": 225.02329200000543,
                    "velocity": 0.5511811023622047,
                    "duration": 0.11653200000000652
                },
                {
                    "name": "F5",
                    "midi": 77,
                    "time": 225.13982400000543,
                    "velocity": 0.5905511811023622,
                    "duration": 0.11653200000000652
                },
                {
                    "name": "C5",
                    "midi": 72,
                    "time": 225.25635600000544,
                    "velocity": 0.5748031496062992,
                    "duration": 0.11653200000000652
                },
                {
                    "name": "A4",
                    "midi": 69,
                    "time": 225.37288800000545,
                    "velocity": 0.5511811023622047,
                    "duration": 0.11653200000000652
                },
                {
                    "name": "F4",
                    "midi": 65,
                    "time": 225.48942000000545,
                    "velocity": 0.5511811023622047,
                    "duration": 0.11653200000000652
                },
                {
                    "name": "G4",
                    "midi": 67,
                    "time": 225.60595200000546,
                    "velocity": 0.4015748031496063,
                    "duration": 0.07768799999999487
                },
                {
                    "name": "A4",
                    "midi": 69,
                    "time": 225.68364000000545,
                    "velocity": 0.36220472440944884,
                    "duration": 0.07768799999999487
                },
                {
                    "name": "G4",
                    "midi": 67,
                    "time": 225.76132800000545,
                    "velocity": 0.4015748031496063,
                    "duration": 0.07768799999999487
                },
                {
                    "name": "A4",
                    "midi": 69,
                    "time": 225.83901600000544,
                    "velocity": 0.36220472440944884,
                    "duration": 0.07768799999999487
                },
                {
                    "name": "G4",
                    "midi": 67,
                    "time": 225.91670400000544,
                    "velocity": 0.4015748031496063,
                    "duration": 0.07768799999999487
                },
                {
                    "name": "A4",
                    "midi": 69,
                    "time": 225.99439200000543,
                    "velocity": 0.36220472440944884,
                    "duration": 0.07768799999999487
                },
                {
                    "name": "G4",
                    "midi": 67,
                    "time": 226.07208000000543,
                    "velocity": 0.4015748031496063,
                    "duration": 0.07768799999999487
                },
                {
                    "name": "A4",
                    "midi": 69,
                    "time": 226.14976800000542,
                    "velocity": 0.36220472440944884,
                    "duration": 0.07768799999999487
                },
                {
                    "name": "G4",
                    "midi": 67,
                    "time": 226.22745600000542,
                    "velocity": 0.4015748031496063,
                    "duration": 0.07768799999999487
                },
                {
                    "name": "A4",
                    "midi": 69,
                    "time": 226.3051440000054,
                    "velocity": 0.36220472440944884,
                    "duration": 0.07768799999999487
                },
                {
                    "name": "G4",
                    "midi": 67,
                    "time": 226.3828320000054,
                    "velocity": 0.4015748031496063,
                    "duration": 0.07768799999999487
                },
                {
                    "name": "A4",
                    "midi": 69,
                    "time": 226.4605200000054,
                    "velocity": 0.36220472440944884,
                    "duration": 0.07768799999999487
                },
                {
                    "name": "G4",
                    "midi": 67,
                    "time": 226.5382080000054,
                    "velocity": 0.4015748031496063,
                    "duration": 0.07768799999999487
                },
                {
                    "name": "A4",
                    "midi": 69,
                    "time": 226.6158960000054,
                    "velocity": 0.36220472440944884,
                    "duration": 0.07768799999999487
                },
                {
                    "name": "G4",
                    "midi": 67,
                    "time": 226.6935840000054,
                    "velocity": 0.4015748031496063,
                    "duration": 0.07768799999999487
                },
                {
                    "name": "A4",
                    "midi": 69,
                    "time": 226.77127200000538,
                    "velocity": 0.3779527559055118,
                    "duration": 0.07768799999999487
                },
                {
                    "name": "G4",
                    "midi": 67,
                    "time": 226.84896000000538,
                    "velocity": 0.4015748031496063,
                    "duration": 0.07768799999999487
                },
                {
                    "name": "A4",
                    "midi": 69,
                    "time": 226.92664800000537,
                    "velocity": 0.3700787401574803,
                    "duration": 0.07768799999999487
                },
                {
                    "name": "G4",
                    "midi": 67,
                    "time": 227.00433600000537,
                    "velocity": 0.4015748031496063,
                    "duration": 0.05826600000000326
                },
                {
                    "name": "A4",
                    "midi": 69,
                    "time": 227.06260200000537,
                    "velocity": 0.3779527559055118,
                    "duration": 0.05826600000000326
                },
                {
                    "name": "G4",
                    "midi": 67,
                    "time": 227.12086800000537,
                    "velocity": 0.4015748031496063,
                    "duration": 0.05826600000000326
                },
                {
                    "name": "A4",
                    "midi": 69,
                    "time": 227.17913400000538,
                    "velocity": 0.3700787401574803,
                    "duration": 0.05826600000000326
                },
                {
                    "name": "G4",
                    "midi": 67,
                    "time": 227.23740000000538,
                    "velocity": 0.4015748031496063,
                    "duration": 0.03884400000001165
                },
                {
                    "name": "A4",
                    "midi": 69,
                    "time": 227.2762440000054,
                    "velocity": 0.3779527559055118,
                    "duration": 0.03884400000001165
                },
                {
                    "name": "G4",
                    "midi": 67,
                    "time": 227.3150880000054,
                    "velocity": 0.3779527559055118,
                    "duration": 0.03884400000001165
                },
                {
                    "name": "F4",
                    "midi": 65,
                    "time": 227.35393200000541,
                    "velocity": 0.4881889763779528,
                    "duration": 0.05826600000000326
                },
                {
                    "name": "G4",
                    "midi": 67,
                    "time": 227.41219800000542,
                    "velocity": 0.4566929133858268,
                    "duration": 0.05826600000000326
                },
                {
                    "name": "F4",
                    "midi": 65,
                    "time": 227.47046400000542,
                    "velocity": 0.5590551181102362,
                    "duration": 0.22335300000000302
                },
                {
                    "name": "F5",
                    "midi": 77,
                    "time": 227.70352800000543,
                    "velocity": 0.4251968503937008,
                    "duration": 0.23306400000001304
                },
                {
                    "name": "F5",
                    "midi": 77,
                    "time": 228.16965600000546,
                    "velocity": 0.41732283464566927,
                    "duration": 0.23306400000001304
                },
                {
                    "name": "E5",
                    "midi": 76,
                    "time": 228.40272000000547,
                    "velocity": 0.4015748031496063,
                    "duration": 0.23306400000001304
                },
                {
                    "name": "F5",
                    "midi": 77,
                    "time": 228.6357840000055,
                    "velocity": 0.4566929133858268,
                    "duration": 0.23306400000001304
                },
                {
                    "name": "G5",
                    "midi": 79,
                    "time": 228.8688480000055,
                    "velocity": 0.47244094488188976,
                    "duration": 0.23306400000001304
                },
                {
                    "name": "A5",
                    "midi": 81,
                    "time": 229.1019120000055,
                    "velocity": 0.5196850393700787,
                    "duration": 0.23306400000001304
                },
                {
                    "name": "A#5",
                    "midi": 82,
                    "time": 229.33497600000553,
                    "velocity": 0.5511811023622047,
                    "duration": 0.11653200000000652
                },
                {
                    "name": "C6",
                    "midi": 84,
                    "time": 229.45150800000553,
                    "velocity": 0.5354330708661418,
                    "duration": 0.11653200000000652
                },
                {
                    "name": "D6",
                    "midi": 86,
                    "time": 229.56804000000554,
                    "velocity": 0.5669291338582677,
                    "duration": 0.11653200000000652
                },
                {
                    "name": "C6",
                    "midi": 84,
                    "time": 229.68457200000555,
                    "velocity": 0.5275590551181102,
                    "duration": 0.11653200000000652
                },
                {
                    "name": "A#5",
                    "midi": 82,
                    "time": 229.80110400000555,
                    "velocity": 0.5511811023622047,
                    "duration": 0.11653200000000652
                },
                {
                    "name": "G#5",
                    "midi": 80,
                    "time": 229.91763600000556,
                    "velocity": 0.5275590551181102,
                    "duration": 0.11653200000000652
                },
                {
                    "name": "G5",
                    "midi": 79,
                    "time": 230.03416800000556,
                    "velocity": 0.5354330708661418,
                    "duration": 0.11653200000000652
                },
                {
                    "name": "F5",
                    "midi": 77,
                    "time": 230.15070000000557,
                    "velocity": 0.5118110236220472,
                    "duration": 0.11653200000000652
                },
                {
                    "name": "E5",
                    "midi": 76,
                    "time": 230.26723200000558,
                    "velocity": 0.5275590551181102,
                    "duration": 0.11653200000000652
                },
                {
                    "name": "F5",
                    "midi": 77,
                    "time": 230.38376400000558,
                    "velocity": 0.5354330708661418,
                    "duration": 0.11653200000000652
                },
                {
                    "name": "G5",
                    "midi": 79,
                    "time": 230.5002960000056,
                    "velocity": 0.5433070866141733,
                    "duration": 0.11653200000000652
                },
                {
                    "name": "F5",
                    "midi": 77,
                    "time": 230.6168280000056,
                    "velocity": 0.5354330708661418,
                    "duration": 0.11653200000000652
                },
                {
                    "name": "E5",
                    "midi": 76,
                    "time": 230.7333600000056,
                    "velocity": 0.5275590551181102,
                    "duration": 0.11653200000000652
                },
                {
                    "name": "D5",
                    "midi": 74,
                    "time": 230.8498920000056,
                    "velocity": 0.5118110236220472,
                    "duration": 0.11653200000000652
                },
                {
                    "name": "C5",
                    "midi": 72,
                    "time": 230.96642400000562,
                    "velocity": 0.5039370078740157,
                    "duration": 0.11653200000000652
                },
                {
                    "name": "A#4",
                    "midi": 70,
                    "time": 231.08295600000562,
                    "velocity": 0.49606299212598426,
                    "duration": 0.11653200000000652
                },
                {
                    "name": "A4",
                    "midi": 69,
                    "time": 231.19948800000563,
                    "velocity": 0.4881889763779528,
                    "duration": 0.11653200000000652
                },
                {
                    "name": "A4",
                    "midi": 69,
                    "time": 231.43255200000564,
                    "velocity": 0.3858267716535433,
                    "duration": 0.11653200000000652
                },
                {
                    "name": "F4",
                    "midi": 65,
                    "time": 231.89868000000564,
                    "velocity": 0.41732283464566927,
                    "duration": 0.23306400000001304
                },
                {
                    "name": "E4",
                    "midi": 64,
                    "time": 232.13174400000565,
                    "velocity": 0.3858267716535433,
                    "duration": 0.23306400000001304
                },
                {
                    "name": "F4",
                    "midi": 65,
                    "time": 232.36480800000567,
                    "velocity": 0.3858267716535433,
                    "duration": 0.23306400000001304
                },
                {
                    "name": "G4",
                    "midi": 67,
                    "time": 232.59787200000568,
                    "velocity": 0.3858267716535433,
                    "duration": 0.23306400000001304
                },
                {
                    "name": "A4",
                    "midi": 69,
                    "time": 232.8309360000057,
                    "velocity": 0.3858267716535433,
                    "duration": 0.23306400000001304
                },
                {
                    "name": "A#4",
                    "midi": 70,
                    "time": 233.0640000000057,
                    "velocity": 0.4094488188976378,
                    "duration": 0.11653200000000652
                },
                {
                    "name": "C5",
                    "midi": 72,
                    "time": 233.29706400000572,
                    "velocity": 0.4094488188976378,
                    "duration": 0.05826600000000326
                },
                {
                    "name": "A#4",
                    "midi": 70,
                    "time": 233.35533000000572,
                    "velocity": 0.3858267716535433,
                    "duration": 0.05826600000000326
                },
                {
                    "name": "A4",
                    "midi": 69,
                    "time": 233.41359600000573,
                    "velocity": 0.4094488188976378,
                    "duration": 0.05826600000000326
                },
                {
                    "name": "A#4",
                    "midi": 70,
                    "time": 233.47186200000573,
                    "velocity": 0.3858267716535433,
                    "duration": 0.05826600000000326
                },
                {
                    "name": "C5",
                    "midi": 72,
                    "time": 233.53012800000573,
                    "velocity": 0.4566929133858268,
                    "duration": 0.23306400000001304
                },
                {
                    "name": "D5",
                    "midi": 74,
                    "time": 233.76319200000574,
                    "velocity": 0.4645669291338583,
                    "duration": 0.22335300000000302
                },
                {
                    "name": "A#4",
                    "midi": 70,
                    "time": 233.99625600000576,
                    "velocity": 0.3937007874015748,
                    "duration": 0.23306400000001304
                },
                {
                    "name": "D5",
                    "midi": 74,
                    "time": 233.99625600000576,
                    "velocity": 0.3937007874015748,
                    "duration": 0.23306400000001304
                },
                {
                    "name": "C5",
                    "midi": 72,
                    "time": 234.22932000000577,
                    "velocity": 0.36220472440944884,
                    "duration": 0.23306400000001304
                },
                {
                    "name": "A4",
                    "midi": 69,
                    "time": 234.22932000000577,
                    "velocity": 0.36220472440944884,
                    "duration": 0.23306400000001304
                },
                {
                    "name": "A#3",
                    "midi": 58,
                    "time": 234.6954480000058,
                    "velocity": 0.25984251968503935,
                    "duration": 0.23306400000001304
                },
                {
                    "name": "E4",
                    "midi": 64,
                    "time": 234.6954480000058,
                    "velocity": 0.25984251968503935,
                    "duration": 0.23306400000001304
                },
                {
                    "name": "A#3",
                    "midi": 58,
                    "time": 234.9285120000058,
                    "velocity": 0.3543307086614173,
                    "duration": 0.9322559999999953
                },
                {
                    "name": "G4",
                    "midi": 67,
                    "time": 234.9285120000058,
                    "velocity": 0.3543307086614173,
                    "duration": 0.9322559999999953
                },
                {
                    "name": "A3",
                    "midi": 57,
                    "time": 235.8607680000058,
                    "velocity": 0.2677165354330709,
                    "duration": 0.34959599999999114
                },
                {
                    "name": "F4",
                    "midi": 65,
                    "time": 235.8607680000058,
                    "velocity": 0.2677165354330709,
                    "duration": 0.34959599999999114
                },
                {
                    "name": "D5",
                    "midi": 74,
                    "time": 236.3268960000058,
                    "velocity": 0.44881889763779526,
                    "duration": 0.11653200000000652
                },
                {
                    "name": "C5",
                    "midi": 72,
                    "time": 236.4434280000058,
                    "velocity": 0.4409448818897638,
                    "duration": 0.11653200000000652
                },
                {
                    "name": "A#4",
                    "midi": 70,
                    "time": 236.55996000000582,
                    "velocity": 0.4251968503937008,
                    "duration": 0.11653200000000652
                },
                {
                    "name": "A4",
                    "midi": 69,
                    "time": 236.67649200000582,
                    "velocity": 0.4094488188976378,
                    "duration": 0.11653200000000652
                },
                {
                    "name": "G4",
                    "midi": 67,
                    "time": 236.79302400000583,
                    "velocity": 0.47244094488188976,
                    "duration": 0.23306400000001304
                },
                {
                    "name": "F4",
                    "midi": 65,
                    "time": 237.02608800000584,
                    "velocity": 0.3700787401574803,
                    "duration": 0.22335300000000302
                },
                {
                    "name": "F4",
                    "midi": 65,
                    "time": 237.25915200000586,
                    "velocity": 0.3700787401574803,
                    "duration": 0.6991920000000107
                },
                {
                    "name": "F5",
                    "midi": 77,
                    "time": 237.95834400000587,
                    "velocity": 0.4094488188976378,
                    "duration": 0.23306400000001304
                },
                {
                    "name": "G5",
                    "midi": 79,
                    "time": 238.19140800000588,
                    "velocity": 0.44881889763779526,
                    "duration": 0.23306400000001304
                },
                {
                    "name": "A5",
                    "midi": 81,
                    "time": 238.4244720000059,
                    "velocity": 0.48031496062992124,
                    "duration": 0.23306400000001304
                },
                {
                    "name": "E5",
                    "midi": 76,
                    "time": 238.5992700000059,
                    "velocity": 0.4330708661417323,
                    "duration": 0.05826600000000326
                },
                {
                    "name": "A#5",
                    "midi": 82,
                    "time": 238.6575360000059,
                    "velocity": 0.5433070866141733,
                    "duration": 0.34959599999999114
                },
                {
                    "name": "G5",
                    "midi": 79,
                    "time": 239.0071320000059,
                    "velocity": 0.5039370078740157,
                    "duration": 0.11653200000000652
                },
                {
                    "name": "E5",
                    "midi": 76,
                    "time": 239.1236640000059,
                    "velocity": 0.4409448818897638,
                    "duration": 0.46612799999999766
                },
                {
                    "name": "C5",
                    "midi": 72,
                    "time": 240.0559200000059,
                    "velocity": 0.3779527559055118,
                    "duration": 0.11653200000000652
                },
                {
                    "name": "A#4",
                    "midi": 70,
                    "time": 240.1724520000059,
                    "velocity": 0.3779527559055118,
                    "duration": 0.11653200000000652
                },
                {
                    "name": "A4",
                    "midi": 69,
                    "time": 240.2889840000059,
                    "velocity": 0.3779527559055118,
                    "duration": 0.11653200000000652
                },
                {
                    "name": "G4",
                    "midi": 67,
                    "time": 240.40551600000592,
                    "velocity": 0.36220472440944884,
                    "duration": 0.11653200000000652
                },
                {
                    "name": "F4",
                    "midi": 65,
                    "time": 240.52204800000592,
                    "velocity": 0.41732283464566927,
                    "duration": 0.23306400000001304
                },
                {
                    "name": "E4",
                    "midi": 64,
                    "time": 240.75511200000594,
                    "velocity": 0.3700787401574803,
                    "duration": 0.22335300000000302
                },
                {
                    "name": "E4",
                    "midi": 64,
                    "time": 240.98817600000595,
                    "velocity": 0.3700787401574803,
                    "duration": 0.6991920000000107
                },
                {
                    "name": "G5",
                    "midi": 79,
                    "time": 241.68736800000596,
                    "velocity": 0.41732283464566927,
                    "duration": 0.23306400000001304
                },
                {
                    "name": "A5",
                    "midi": 81,
                    "time": 241.92043200000597,
                    "velocity": 0.4566929133858268,
                    "duration": 0.23306400000001304
                },
                {
                    "name": "A#5",
                    "midi": 82,
                    "time": 242.153496000006,
                    "velocity": 0.49606299212598426,
                    "duration": 0.23306400000001304
                },
                {
                    "name": "F#5",
                    "midi": 78,
                    "time": 242.328294000006,
                    "velocity": 0.4094488188976378,
                    "duration": 0.05826600000000326
                },
                {
                    "name": "C6",
                    "midi": 84,
                    "time": 242.386560000006,
                    "velocity": 0.5354330708661418,
                    "duration": 0.34959599999999114
                },
                {
                    "name": "A5",
                    "midi": 81,
                    "time": 242.736156000006,
                    "velocity": 0.5118110236220472,
                    "duration": 0.11653200000000652
                },
                {
                    "name": "F#5",
                    "midi": 78,
                    "time": 242.852688000006,
                    "velocity": 0.44881889763779526,
                    "duration": 0.46612799999999766
                },
                {
                    "name": "A5",
                    "midi": 81,
                    "time": 243.551880000006,
                    "velocity": 0.47244094488188976,
                    "duration": 0.23306400000001304
                },
                {
                    "name": "A#5",
                    "midi": 82,
                    "time": 243.78494400000602,
                    "velocity": 0.5039370078740157,
                    "duration": 0.23306400000001304
                },
                {
                    "name": "C6",
                    "midi": 84,
                    "time": 244.01800800000603,
                    "velocity": 0.5433070866141733,
                    "duration": 0.23306400000001304
                },
                {
                    "name": "G5",
                    "midi": 79,
                    "time": 244.19280600000604,
                    "velocity": 0.5196850393700787,
                    "duration": 0.05826600000000326
                },
                {
                    "name": "D6",
                    "midi": 86,
                    "time": 244.25107200000605,
                    "velocity": 0.6614173228346457,
                    "duration": 0.34959599999999114
                },
                {
                    "name": "A#5",
                    "midi": 82,
                    "time": 244.60066800000604,
                    "velocity": 0.6062992125984252,
                    "duration": 0.11653200000000652
                },
                {
                    "name": "G5",
                    "midi": 79,
                    "time": 244.71720000000605,
                    "velocity": 0.5669291338582677,
                    "duration": 0.23306400000001304
                },
                {
                    "name": "E5",
                    "midi": 76,
                    "time": 245.12506200000607,
                    "velocity": 0.5590551181102362,
                    "duration": 0.05826600000000326
                },
                {
                    "name": "A#5",
                    "midi": 82,
                    "time": 245.18332800000607,
                    "velocity": 0.6692913385826772,
                    "duration": 0.34959599999999114
                },
                {
                    "name": "G5",
                    "midi": 79,
                    "time": 245.53292400000606,
                    "velocity": 0.5984251968503937,
                    "duration": 0.11653200000000652
                },
                {
                    "name": "E5",
                    "midi": 76,
                    "time": 245.64945600000607,
                    "velocity": 0.5669291338582677,
                    "duration": 0.23306400000001304
                },
                {
                    "name": "B4",
                    "midi": 71,
                    "time": 246.0573180000061,
                    "velocity": 0.5354330708661418,
                    "duration": 0.05826600000000326
                },
                {
                    "name": "F5",
                    "midi": 77,
                    "time": 246.1155840000061,
                    "velocity": 0.6220472440944882,
                    "duration": 0.34959599999999114
                },
                {
                    "name": "D5",
                    "midi": 74,
                    "time": 246.4651800000061,
                    "velocity": 0.5748031496062992,
                    "duration": 0.11653200000000652
                },
                {
                    "name": "B4",
                    "midi": 71,
                    "time": 246.5817120000061,
                    "velocity": 0.5433070866141733,
                    "duration": 0.46612799999999766
                },
                {
                    "name": "B4",
                    "midi": 71,
                    "time": 247.2809040000061,
                    "velocity": 0.5354330708661418,
                    "duration": 0.22335300000000302
                },
                {
                    "name": "B4",
                    "midi": 71,
                    "time": 247.51396800000612,
                    "velocity": 0.5433070866141733,
                    "duration": 0.22335300000000302
                },
                {
                    "name": "B4",
                    "midi": 71,
                    "time": 247.74703200000613,
                    "velocity": 0.5275590551181102,
                    "duration": 0.22335300000000302
                },
                {
                    "name": "C5",
                    "midi": 72,
                    "time": 247.98009600000614,
                    "velocity": 0.5984251968503937,
                    "duration": 0.11653200000000652
                },
                {
                    "name": "A5",
                    "midi": 81,
                    "time": 248.09662800000615,
                    "velocity": 0.5433070866141733,
                    "duration": 0.11653200000000652
                },
                {
                    "name": "F5",
                    "midi": 77,
                    "time": 248.21316000000616,
                    "velocity": 0.5669291338582677,
                    "duration": 0.11653200000000652
                },
                {
                    "name": "C5",
                    "midi": 72,
                    "time": 248.32969200000616,
                    "velocity": 0.5511811023622047,
                    "duration": 0.11653200000000652
                },
                {
                    "name": "A4",
                    "midi": 69,
                    "time": 248.44622400000617,
                    "velocity": 0.5984251968503937,
                    "duration": 0.11653200000000652
                },
                {
                    "name": "F5",
                    "midi": 77,
                    "time": 248.56275600000617,
                    "velocity": 0.5511811023622047,
                    "duration": 0.11653200000000652
                },
                {
                    "name": "C5",
                    "midi": 72,
                    "time": 248.67928800000618,
                    "velocity": 0.5669291338582677,
                    "duration": 0.11653200000000652
                },
                {
                    "name": "A4",
                    "midi": 69,
                    "time": 248.7958200000062,
                    "velocity": 0.5275590551181102,
                    "duration": 0.10973430000001372
                },
                {
                    "name": "A4",
                    "midi": 69,
                    "time": 248.9123520000062,
                    "velocity": 0.48031496062992124,
                    "duration": 0.23306400000001304
                },
                {
                    "name": "C5",
                    "midi": 72,
                    "time": 248.9123520000062,
                    "velocity": 0.5669291338582677,
                    "duration": 0.23306400000001304
                },
                {
                    "name": "G4",
                    "midi": 67,
                    "time": 249.1454160000062,
                    "velocity": 0.41732283464566927,
                    "duration": 0.23306400000001304
                },
                {
                    "name": "A#4",
                    "midi": 70,
                    "time": 249.1454160000062,
                    "velocity": 0.49606299212598426,
                    "duration": 0.23306400000001304
                },
                {
                    "name": "F4",
                    "midi": 65,
                    "time": 249.37848000000622,
                    "velocity": 0.4015748031496063,
                    "duration": 0.11653200000000652
                },
                {
                    "name": "A4",
                    "midi": 69,
                    "time": 249.37848000000622,
                    "velocity": 0.48031496062992124,
                    "duration": 0.11653200000000652
                },
                {
                    "name": "E4",
                    "midi": 64,
                    "time": 249.61154400000623,
                    "velocity": 0.3858267716535433,
                    "duration": 0.11653200000000652
                },
                {
                    "name": "G4",
                    "midi": 67,
                    "time": 249.61154400000623,
                    "velocity": 0.4566929133858268,
                    "duration": 0.11653200000000652
                },
                {
                    "name": "F4",
                    "midi": 65,
                    "time": 249.84460800000625,
                    "velocity": 0.4251968503937008,
                    "duration": 0.46612799999999766
                },
                {
                    "name": "F4",
                    "midi": 65,
                    "time": 250.89339600000625,
                    "velocity": 0.4251968503937008,
                    "duration": 0.11653200000000652
                },
                {
                    "name": "G4",
                    "midi": 67,
                    "time": 251.00992800000625,
                    "velocity": 0.4566929133858268,
                    "duration": 0.11653200000000652
                },
                {
                    "name": "G#4",
                    "midi": 68,
                    "time": 251.12646000000626,
                    "velocity": 0.48031496062992124,
                    "duration": 0.11653200000000652
                },
                {
                    "name": "A#4",
                    "midi": 70,
                    "time": 251.24299200000627,
                    "velocity": 0.49606299212598426,
                    "duration": 0.11653200000000652
                },
                {
                    "name": "C5",
                    "midi": 72,
                    "time": 251.35952400000627,
                    "velocity": 0.5118110236220472,
                    "duration": 0.11653200000000652
                },
                {
                    "name": "D5",
                    "midi": 74,
                    "time": 251.47605600000628,
                    "velocity": 0.5354330708661418,
                    "duration": 0.11653200000000652
                },
                {
                    "name": "E5",
                    "midi": 76,
                    "time": 251.5925880000063,
                    "velocity": 0.5590551181102362,
                    "duration": 0.11653200000000652
                },
                {
                    "name": "F5",
                    "midi": 77,
                    "time": 251.7091200000063,
                    "velocity": 0.5905511811023622,
                    "duration": 0.11653200000000652
                },
                {
                    "name": "C5",
                    "midi": 72,
                    "time": 251.8256520000063,
                    "velocity": 0.5590551181102362,
                    "duration": 0.11653200000000652
                },
                {
                    "name": "G#5",
                    "midi": 80,
                    "time": 251.9421840000063,
                    "velocity": 0.5905511811023622,
                    "duration": 0.11653200000000652
                },
                {
                    "name": "G5",
                    "midi": 79,
                    "time": 252.0587160000063,
                    "velocity": 0.5669291338582677,
                    "duration": 0.11653200000000652
                },
                {
                    "name": "F5",
                    "midi": 77,
                    "time": 252.17524800000632,
                    "velocity": 0.5905511811023622,
                    "duration": 0.11653200000000652
                },
                {
                    "name": "C5",
                    "midi": 72,
                    "time": 252.29178000000633,
                    "velocity": 0.5590551181102362,
                    "duration": 0.11653200000000652
                },
                {
                    "name": "G#5",
                    "midi": 80,
                    "time": 252.40831200000633,
                    "velocity": 0.5669291338582677,
                    "duration": 0.11653200000000652
                },
                {
                    "name": "G5",
                    "midi": 79,
                    "time": 252.52484400000634,
                    "velocity": 0.5511811023622047,
                    "duration": 0.11653200000000652
                },
                {
                    "name": "F5",
                    "midi": 77,
                    "time": 252.64137600000635,
                    "velocity": 0.5669291338582677,
                    "duration": 0.13983840000000214
                },
                {
                    "name": "G5",
                    "midi": 79,
                    "time": 252.75790800000635,
                    "velocity": 0.5275590551181102,
                    "duration": 0.13983840000000214
                },
                {
                    "name": "D#5",
                    "midi": 75,
                    "time": 252.87444000000636,
                    "velocity": 0.5590551181102362,
                    "duration": 0.13983840000000214
                },
                {
                    "name": "F5",
                    "midi": 77,
                    "time": 252.99097200000637,
                    "velocity": 0.5039370078740157,
                    "duration": 0.13983840000000214
                },
                {
                    "name": "D5",
                    "midi": 74,
                    "time": 253.10750400000637,
                    "velocity": 0.5511811023622047,
                    "duration": 0.13983840000000214
                },
                {
                    "name": "D#5",
                    "midi": 75,
                    "time": 253.22403600000638,
                    "velocity": 0.49606299212598426,
                    "duration": 0.13983840000000214
                },
                {
                    "name": "C5",
                    "midi": 72,
                    "time": 253.34056800000639,
                    "velocity": 0.5354330708661418,
                    "duration": 0.13983840000000214
                },
                {
                    "name": "D5",
                    "midi": 74,
                    "time": 253.4571000000064,
                    "velocity": 0.5039370078740157,
                    "duration": 0.13983840000000214
                },
                {
                    "name": "B4",
                    "midi": 71,
                    "time": 253.5736320000064,
                    "velocity": 0.5275590551181102,
                    "duration": 0.23306399999998462
                },
                {
                    "name": "F6",
                    "midi": 89,
                    "time": 253.80669600000638,
                    "velocity": 0.7086614173228346,
                    "duration": 0.46612799999999766
                },
                {
                    "name": "D#6",
                    "midi": 87,
                    "time": 254.27282400000638,
                    "velocity": 0.7007874015748031,
                    "duration": 0.46612799999999766
                },
                {
                    "name": "D6",
                    "midi": 86,
                    "time": 254.73895200000638,
                    "velocity": 0.6929133858267716,
                    "duration": 0.46612799999999766
                },
                {
                    "name": "C6",
                    "midi": 84,
                    "time": 255.20508000000638,
                    "velocity": 0.6850393700787402,
                    "duration": 0.46612799999999766
                },
                {
                    "name": "B5",
                    "midi": 83,
                    "time": 255.67120800000637,
                    "velocity": 0.6614173228346457,
                    "duration": 0.46612799999999766
                },
                {
                    "name": "G#5",
                    "midi": 80,
                    "time": 256.13733600000637,
                    "velocity": 0.6141732283464567,
                    "duration": 0.4661280000000261
                },
                {
                    "name": "G5",
                    "midi": 79,
                    "time": 256.6034640000064,
                    "velocity": 0.6535433070866141,
                    "duration": 0.4661280000000261
                },
                {
                    "name": "F5",
                    "midi": 77,
                    "time": 257.0695920000064,
                    "velocity": 0.6141732283464567,
                    "duration": 0.2233529999999746
                },
                {
                    "name": "F5",
                    "midi": 77,
                    "time": 257.3026560000064,
                    "velocity": 0.6299212598425197,
                    "duration": 0.23306400000001304
                },
                {
                    "name": "E5",
                    "midi": 76,
                    "time": 257.5357200000064,
                    "velocity": 0.6062992125984252,
                    "duration": 0.23306400000001304
                },
                {
                    "name": "D#5",
                    "midi": 75,
                    "time": 257.7687840000064,
                    "velocity": 0.5275590551181102,
                    "duration": 0.4661280000000261
                },
                {
                    "name": "D#5",
                    "midi": 75,
                    "time": 258.35144400000644,
                    "velocity": 0.5118110236220472,
                    "duration": 0.13983840000003056
                },
                {
                    "name": "D5",
                    "midi": 74,
                    "time": 258.46797600000644,
                    "velocity": 0.5354330708661418,
                    "duration": 0.13983840000003056
                },
                {
                    "name": "D#5",
                    "midi": 75,
                    "time": 258.58450800000645,
                    "velocity": 0.5196850393700787,
                    "duration": 0.13983840000003056
                },
                {
                    "name": "F5",
                    "midi": 77,
                    "time": 258.70104000000646,
                    "velocity": 0.5354330708661418,
                    "duration": 0.13983840000003056
                },
                {
                    "name": "D#5",
                    "midi": 75,
                    "time": 258.81757200000646,
                    "velocity": 0.5196850393700787,
                    "duration": 0.13983840000003056
                },
                {
                    "name": "D5",
                    "midi": 74,
                    "time": 258.93410400000647,
                    "velocity": 0.5354330708661418,
                    "duration": 0.13983840000003056
                },
                {
                    "name": "D#5",
                    "midi": 75,
                    "time": 259.0506360000065,
                    "velocity": 0.5118110236220472,
                    "duration": 0.13983840000003056
                },
                {
                    "name": "F#5",
                    "midi": 78,
                    "time": 259.1671680000065,
                    "velocity": 0.6062992125984252,
                    "duration": 0.34959600000001956
                },
                {
                    "name": "D#5",
                    "midi": 75,
                    "time": 259.5167640000065,
                    "velocity": 0.5433070866141733,
                    "duration": 0.10682100000002492
                },
                {
                    "name": "D#5",
                    "midi": 75,
                    "time": 259.6332960000065,
                    "velocity": 0.5118110236220472,
                    "duration": 0.05826600000000326
                },
                {
                    "name": "F5",
                    "midi": 77,
                    "time": 259.6915620000065,
                    "velocity": 0.4881889763779528,
                    "duration": 0.05826600000000326
                },
                {
                    "name": "D#5",
                    "midi": 75,
                    "time": 259.7498280000065,
                    "velocity": 0.5118110236220472,
                    "duration": 0.05826600000000326
                },
                {
                    "name": "F5",
                    "midi": 77,
                    "time": 259.8080940000065,
                    "velocity": 0.49606299212598426,
                    "duration": 0.05826600000000326
                },
                {
                    "name": "D#5",
                    "midi": 75,
                    "time": 259.8663600000065,
                    "velocity": 0.5196850393700787,
                    "duration": 0.038843999999983225
                },
                {
                    "name": "F5",
                    "midi": 77,
                    "time": 259.9052040000065,
                    "velocity": 0.5039370078740157,
                    "duration": 0.038843999999983225
                },
                {
                    "name": "D#5",
                    "midi": 75,
                    "time": 259.9440480000065,
                    "velocity": 0.5039370078740157,
                    "duration": 0.038843999999983225
                },
                {
                    "name": "D5",
                    "midi": 74,
                    "time": 259.9828920000065,
                    "velocity": 0.5590551181102362,
                    "duration": 0.05826600000000326
                },
                {
                    "name": "D#5",
                    "midi": 75,
                    "time": 260.0411580000065,
                    "velocity": 0.5433070866141733,
                    "duration": 0.05826600000000326
                },
                {
                    "name": "A#5",
                    "midi": 82,
                    "time": 260.0994240000065,
                    "velocity": 0.6141732283464567,
                    "duration": 0.34959600000001956
                },
                {
                    "name": "D#5",
                    "midi": 75,
                    "time": 260.4490200000065,
                    "velocity": 0.5354330708661418,
                    "duration": 0.10682100000002492
                },
                {
                    "name": "D#5",
                    "midi": 75,
                    "time": 260.5655520000065,
                    "velocity": 0.5039370078740157,
                    "duration": 0.05826600000000326
                },
                {
                    "name": "F5",
                    "midi": 77,
                    "time": 260.6238180000065,
                    "velocity": 0.4881889763779528,
                    "duration": 0.05826600000000326
                },
                {
                    "name": "D#5",
                    "midi": 75,
                    "time": 260.6820840000065,
                    "velocity": 0.5039370078740157,
                    "duration": 0.05826600000000326
                },
                {
                    "name": "F5",
                    "midi": 77,
                    "time": 260.7403500000065,
                    "velocity": 0.4881889763779528,
                    "duration": 0.05826600000000326
                },
                {
                    "name": "D#5",
                    "midi": 75,
                    "time": 260.7986160000065,
                    "velocity": 0.5039370078740157,
                    "duration": 0.038843999999983225
                },
                {
                    "name": "F5",
                    "midi": 77,
                    "time": 260.8374600000065,
                    "velocity": 0.49606299212598426,
                    "duration": 0.038843999999983225
                },
                {
                    "name": "D#5",
                    "midi": 75,
                    "time": 260.8763040000065,
                    "velocity": 0.49606299212598426,
                    "duration": 0.038843999999983225
                },
                {
                    "name": "D5",
                    "midi": 74,
                    "time": 260.91514800000647,
                    "velocity": 0.5590551181102362,
                    "duration": 0.05826600000000326
                },
                {
                    "name": "D#5",
                    "midi": 75,
                    "time": 260.97341400000647,
                    "velocity": 0.5354330708661418,
                    "duration": 0.05826600000000326
                },
                {
                    "name": "A5",
                    "midi": 81,
                    "time": 261.0316800000065,
                    "velocity": 0.6377952755905512,
                    "duration": 0.11653200000000652
                },
                {
                    "name": "C6",
                    "midi": 84,
                    "time": 261.2647440000065,
                    "velocity": 0.6692913385826772,
                    "duration": 0.11653200000000652
                },
                {
                    "name": "D#6",
                    "midi": 87,
                    "time": 261.4978080000065,
                    "velocity": 0.7007874015748031,
                    "duration": 0.5826599999999758
                },
                {
                    "name": "F6",
                    "midi": 89,
                    "time": 262.0804680000065,
                    "velocity": 0.5590551181102362,
                    "duration": 0.13983840000003056
                },
                {
                    "name": "D6",
                    "midi": 86,
                    "time": 262.1970000000065,
                    "velocity": 0.6062992125984252,
                    "duration": 0.13983840000003056
                },
                {
                    "name": "D#6",
                    "midi": 87,
                    "time": 262.3135320000065,
                    "velocity": 0.5590551181102362,
                    "duration": 0.13983840000003056
                },
                {
                    "name": "C6",
                    "midi": 84,
                    "time": 262.4300640000065,
                    "velocity": 0.6062992125984252,
                    "duration": 0.13983840000003056
                },
                {
                    "name": "D6",
                    "midi": 86,
                    "time": 262.5465960000065,
                    "velocity": 0.5590551181102362,
                    "duration": 0.13983840000003056
                },
                {
                    "name": "A#5",
                    "midi": 82,
                    "time": 262.6631280000065,
                    "velocity": 0.6062992125984252,
                    "duration": 0.13983840000003056
                },
                {
                    "name": "C6",
                    "midi": 84,
                    "time": 262.7796600000065,
                    "velocity": 0.5590551181102362,
                    "duration": 0.13983840000003056
                },
                {
                    "name": "A5",
                    "midi": 81,
                    "time": 262.8961920000065,
                    "velocity": 0.5669291338582677,
                    "duration": 0.13983840000003056
                },
                {
                    "name": "A#5",
                    "midi": 82,
                    "time": 263.01272400000653,
                    "velocity": 0.5748031496062992,
                    "duration": 0.13983840000003056
                },
                {
                    "name": "C6",
                    "midi": 84,
                    "time": 263.12925600000654,
                    "velocity": 0.6062992125984252,
                    "duration": 0.13983840000003056
                },
                {
                    "name": "A#5",
                    "midi": 82,
                    "time": 263.24578800000654,
                    "velocity": 0.5669291338582677,
                    "duration": 0.13983840000003056
                },
                {
                    "name": "A5",
                    "midi": 81,
                    "time": 263.36232000000655,
                    "velocity": 0.5590551181102362,
                    "duration": 0.13983840000003056
                },
                {
                    "name": "A#5",
                    "midi": 82,
                    "time": 263.47885200000655,
                    "velocity": 0.5669291338582677,
                    "duration": 0.13983840000003056
                },
                {
                    "name": "C6",
                    "midi": 84,
                    "time": 263.59538400000656,
                    "velocity": 0.5748031496062992,
                    "duration": 0.13983840000003056
                },
                {
                    "name": "D6",
                    "midi": 86,
                    "time": 263.71191600000657,
                    "velocity": 0.5511811023622047,
                    "duration": 0.13983840000003056
                },
                {
                    "name": "D#6",
                    "midi": 87,
                    "time": 263.8284480000066,
                    "velocity": 0.5905511811023622,
                    "duration": 0.13983840000003056
                },
                {
                    "name": "D6",
                    "midi": 86,
                    "time": 263.9449800000066,
                    "velocity": 0.5511811023622047,
                    "duration": 0.13983840000003056
                },
                {
                    "name": "C6",
                    "midi": 84,
                    "time": 264.0615120000066,
                    "velocity": 0.5669291338582677,
                    "duration": 0.13983840000003056
                },
                {
                    "name": "A#5",
                    "midi": 82,
                    "time": 264.1780440000066,
                    "velocity": 0.5669291338582677,
                    "duration": 0.13983840000003056
                },
                {
                    "name": "A5",
                    "midi": 81,
                    "time": 264.2945760000066,
                    "velocity": 0.5590551181102362,
                    "duration": 0.13983840000003056
                },
                {
                    "name": "G5",
                    "midi": 79,
                    "time": 264.4111080000066,
                    "velocity": 0.5511811023622047,
                    "duration": 0.13983840000003056
                },
                {
                    "name": "F5",
                    "midi": 77,
                    "time": 264.5276400000066,
                    "velocity": 0.5433070866141733,
                    "duration": 0.13983840000003056
                },
                {
                    "name": "D#5",
                    "midi": 75,
                    "time": 264.6441720000066,
                    "velocity": 0.5354330708661418,
                    "duration": 0.10584990000000971
                },
                {
                    "name": "D#5",
                    "midi": 75,
                    "time": 264.7607040000066,
                    "velocity": 0.5354330708661418,
                    "duration": 0.05826600000000326
                },
                {
                    "name": "F5",
                    "midi": 77,
                    "time": 264.81897000000663,
                    "velocity": 0.5039370078740157,
                    "duration": 0.05826600000000326
                },
                {
                    "name": "D#5",
                    "midi": 75,
                    "time": 264.87723600000663,
                    "velocity": 0.5118110236220472,
                    "duration": 0.038843999999983225
                },
                {
                    "name": "F5",
                    "midi": 77,
                    "time": 264.9160800000066,
                    "velocity": 0.49606299212598426,
                    "duration": 0.038843999999983225
                },
                {
                    "name": "D#5",
                    "midi": 75,
                    "time": 264.9549240000066,
                    "velocity": 0.49606299212598426,
                    "duration": 0.038843999999983225
                },
                {
                    "name": "D5",
                    "midi": 74,
                    "time": 264.9937680000066,
                    "velocity": 0.5354330708661418,
                    "duration": 0.23306400000001304
                },
                {
                    "name": "D5",
                    "midi": 74,
                    "time": 265.2268320000066,
                    "velocity": 0.5354330708661418,
                    "duration": 0.6991919999999823
                },
                {
                    "name": "D5",
                    "midi": 74,
                    "time": 265.9260240000066,
                    "velocity": 0.5669291338582677,
                    "duration": 0.23306400000001304
                },
                {
                    "name": "D6",
                    "midi": 86,
                    "time": 266.1590880000066,
                    "velocity": 0.6377952755905512,
                    "duration": 0.23306400000001304
                },
                {
                    "name": "C6",
                    "midi": 84,
                    "time": 266.3921520000066,
                    "velocity": 0.6062992125984252,
                    "duration": 0.4661280000000261
                },
                {
                    "name": "A#5",
                    "midi": 82,
                    "time": 266.85828000000663,
                    "velocity": 0.6141732283464567,
                    "duration": 0.4661280000000261
                },
                {
                    "name": "A5",
                    "midi": 81,
                    "time": 267.32440800000666,
                    "velocity": 0.6062992125984252,
                    "duration": 0.34959600000001956
                },
                {
                    "name": "G5",
                    "midi": 79,
                    "time": 267.6740040000067,
                    "velocity": 0.5511811023622047,
                    "duration": 0.13983840000003056
                },
                {
                    "name": "A#5",
                    "midi": 82,
                    "time": 267.7905360000067,
                    "velocity": 0.5748031496062992,
                    "duration": 0.13983840000003056
                },
                {
                    "name": "A5",
                    "midi": 81,
                    "time": 267.9070680000067,
                    "velocity": 0.5511811023622047,
                    "duration": 0.13983840000003056
                },
                {
                    "name": "C6",
                    "midi": 84,
                    "time": 268.0236000000067,
                    "velocity": 0.5748031496062992,
                    "duration": 0.13983840000003056
                },
                {
                    "name": "A#5",
                    "midi": 82,
                    "time": 268.1401320000067,
                    "velocity": 0.5433070866141733,
                    "duration": 0.13983840000003056
                },
                {
                    "name": "A5",
                    "midi": 81,
                    "time": 268.2566640000067,
                    "velocity": 0.5748031496062992,
                    "duration": 0.13983840000003056
                },
                {
                    "name": "G5",
                    "midi": 79,
                    "time": 268.3731960000067,
                    "velocity": 0.5275590551181102,
                    "duration": 0.13983840000003056
                },
                {
                    "name": "F#5",
                    "midi": 78,
                    "time": 268.4897280000067,
                    "velocity": 0.5590551181102362,
                    "duration": 0.05826600000000326
                },
                {
                    "name": "D5",
                    "midi": 74,
                    "time": 268.6062600000067,
                    "velocity": 0.4566929133858268,
                    "duration": 0.11653200000000652
                },
                {
                    "name": "D6",
                    "midi": 86,
                    "time": 268.72279200000673,
                    "velocity": 0.44881889763779526,
                    "duration": 0.11653200000000652
                },
                {
                    "name": "C#6",
                    "midi": 85,
                    "time": 268.83932400000674,
                    "velocity": 0.44881889763779526,
                    "duration": 0.11653200000000652
                },
                {
                    "name": "D6",
                    "midi": 86,
                    "time": 268.95585600000675,
                    "velocity": 0.4409448818897638,
                    "duration": 0.11653200000000652
                },
                {
                    "name": "C#6",
                    "midi": 85,
                    "time": 269.07238800000675,
                    "velocity": 0.4409448818897638,
                    "duration": 0.11653200000000652
                },
                {
                    "name": "D6",
                    "midi": 86,
                    "time": 269.18892000000676,
                    "velocity": 0.44881889763779526,
                    "duration": 0.11653200000000652
                },
                {
                    "name": "C#6",
                    "midi": 85,
                    "time": 269.30545200000677,
                    "velocity": 0.4566929133858268,
                    "duration": 0.11653200000000652
                },
                {
                    "name": "D6",
                    "midi": 86,
                    "time": 269.4219840000068,
                    "velocity": 0.4645669291338583,
                    "duration": 0.11653200000000652
                },
                {
                    "name": "D#6",
                    "midi": 87,
                    "time": 269.5385160000068,
                    "velocity": 0.4645669291338583,
                    "duration": 0.11653200000000652
                },
                {
                    "name": "C6",
                    "midi": 84,
                    "time": 269.6550480000068,
                    "velocity": 0.47244094488188976,
                    "duration": 0.11653200000000652
                },
                {
                    "name": "D6",
                    "midi": 86,
                    "time": 269.7715800000068,
                    "velocity": 0.4566929133858268,
                    "duration": 0.11653200000000652
                },
                {
                    "name": "A#5",
                    "midi": 82,
                    "time": 269.8881120000068,
                    "velocity": 0.4881889763779528,
                    "duration": 0.11653200000000652
                },
                {
                    "name": "C6",
                    "midi": 84,
                    "time": 270.0046440000068,
                    "velocity": 0.47244094488188976,
                    "duration": 0.11653200000000652
                },
                {
                    "name": "A5",
                    "midi": 81,
                    "time": 270.1211760000068,
                    "velocity": 0.49606299212598426,
                    "duration": 0.11653200000000652
                },
                {
                    "name": "A#5",
                    "midi": 82,
                    "time": 270.2377080000068,
                    "velocity": 0.48031496062992124,
                    "duration": 0.11653200000000652
                },
                {
                    "name": "G5",
                    "midi": 79,
                    "time": 270.3542400000068,
                    "velocity": 0.5039370078740157,
                    "duration": 0.13983840000003056
                },
                {
                    "name": "A5",
                    "midi": 81,
                    "time": 270.47077200000683,
                    "velocity": 0.49606299212598426,
                    "duration": 0.13983840000003056
                },
                {
                    "name": "F5",
                    "midi": 77,
                    "time": 270.58730400000684,
                    "velocity": 0.5196850393700787,
                    "duration": 0.13983840000003056
                },
                {
                    "name": "G5",
                    "midi": 79,
                    "time": 270.70383600000685,
                    "velocity": 0.49606299212598426,
                    "duration": 0.13983840000003056
                },
                {
                    "name": "D#5",
                    "midi": 75,
                    "time": 270.82036800000685,
                    "velocity": 0.5275590551181102,
                    "duration": 0.13983840000003056
                },
                {
                    "name": "F5",
                    "midi": 77,
                    "time": 270.93690000000686,
                    "velocity": 0.4881889763779528,
                    "duration": 0.13983840000003056
                },
                {
                    "name": "D5",
                    "midi": 74,
                    "time": 271.05343200000686,
                    "velocity": 0.5433070866141733,
                    "duration": 0.13983840000003056
                },
                {
                    "name": "D#5",
                    "midi": 75,
                    "time": 271.16996400000687,
                    "velocity": 0.5039370078740157,
                    "duration": 0.13983840000003056
                },
                {
                    "name": "C#5",
                    "midi": 73,
                    "time": 271.2864960000069,
                    "velocity": 0.5511811023622047,
                    "duration": 0.11653200000000652
                },
                {
                    "name": "A#5",
                    "midi": 82,
                    "time": 271.5195600000069,
                    "velocity": 0.5433070866141733,
                    "duration": 0.23306400000001304
                },
                {
                    "name": "A5",
                    "midi": 81,
                    "time": 271.7526240000069,
                    "velocity": 0.5511811023622047,
                    "duration": 0.23306400000001304
                },
                {
                    "name": "G5",
                    "midi": 79,
                    "time": 271.9856880000069,
                    "velocity": 0.5354330708661418,
                    "duration": 0.23306400000001304
                },
                {
                    "name": "F#5",
                    "midi": 78,
                    "time": 272.21875200000693,
                    "velocity": 0.5590551181102362,
                    "duration": 0.05826600000000326
                },
                {
                    "name": "C#5",
                    "midi": 73,
                    "time": 272.33528400000694,
                    "velocity": 0.4094488188976378,
                    "duration": 0.11653200000000652
                },
                {
                    "name": "D5",
                    "midi": 74,
                    "time": 272.45181600000694,
                    "velocity": 0.44881889763779526,
                    "duration": 0.11653200000000652
                },
                {
                    "name": "C#5",
                    "midi": 73,
                    "time": 272.56834800000695,
                    "velocity": 0.4094488188976378,
                    "duration": 0.11653200000000652
                },
                {
                    "name": "D5",
                    "midi": 74,
                    "time": 272.68488000000696,
                    "velocity": 0.44881889763779526,
                    "duration": 0.11653200000000652
                },
                {
                    "name": "C#5",
                    "midi": 73,
                    "time": 272.80141200000696,
                    "velocity": 0.41732283464566927,
                    "duration": 0.11653200000000652
                },
                {
                    "name": "D5",
                    "midi": 74,
                    "time": 272.91794400000697,
                    "velocity": 0.44881889763779526,
                    "duration": 0.11653200000000652
                },
                {
                    "name": "C#5",
                    "midi": 73,
                    "time": 273.034476000007,
                    "velocity": 0.41732283464566927,
                    "duration": 0.11653200000000652
                },
                {
                    "name": "D5",
                    "midi": 74,
                    "time": 273.151008000007,
                    "velocity": 0.4251968503937008,
                    "duration": 0.11653200000000652
                },
                {
                    "name": "D#5",
                    "midi": 75,
                    "time": 273.267540000007,
                    "velocity": 0.4015748031496063,
                    "duration": 0.11653200000000652
                },
                {
                    "name": "C5",
                    "midi": 72,
                    "time": 273.384072000007,
                    "velocity": 0.41732283464566927,
                    "duration": 0.11653200000000652
                },
                {
                    "name": "D5",
                    "midi": 74,
                    "time": 273.500604000007,
                    "velocity": 0.3858267716535433,
                    "duration": 0.11653200000000652
                },
                {
                    "name": "A#4",
                    "midi": 70,
                    "time": 273.617136000007,
                    "velocity": 0.4094488188976378,
                    "duration": 0.11653200000000652
                },
                {
                    "name": "C5",
                    "midi": 72,
                    "time": 273.733668000007,
                    "velocity": 0.3858267716535433,
                    "duration": 0.11653200000000652
                },
                {
                    "name": "A4",
                    "midi": 69,
                    "time": 273.850200000007,
                    "velocity": 0.3937007874015748,
                    "duration": 0.11653200000000652
                },
                {
                    "name": "A#4",
                    "midi": 70,
                    "time": 273.966732000007,
                    "velocity": 0.36220472440944884,
                    "duration": 0.11653200000000652
                },
                {
                    "name": "G4",
                    "midi": 67,
                    "time": 274.08326400000703,
                    "velocity": 0.3779527559055118,
                    "duration": 0.13983840000003056
                },
                {
                    "name": "A4",
                    "midi": 69,
                    "time": 274.19979600000704,
                    "velocity": 0.36220472440944884,
                    "duration": 0.13983840000003056
                },
                {
                    "name": "F4",
                    "midi": 65,
                    "time": 274.31632800000705,
                    "velocity": 0.36220472440944884,
                    "duration": 0.13983840000003056
                },
                {
                    "name": "G4",
                    "midi": 67,
                    "time": 274.43286000000705,
                    "velocity": 0.3543307086614173,
                    "duration": 0.13983840000003056
                },
                {
                    "name": "D#4",
                    "midi": 63,
                    "time": 274.54939200000706,
                    "velocity": 0.3543307086614173,
                    "duration": 0.13983840000003056
                },
                {
                    "name": "F4",
                    "midi": 65,
                    "time": 274.66592400000707,
                    "velocity": 0.3464566929133858,
                    "duration": 0.13983840000003056
                },
                {
                    "name": "D4",
                    "midi": 62,
                    "time": 274.7824560000071,
                    "velocity": 0.33858267716535434,
                    "duration": 0.13983840000003056
                },
                {
                    "name": "D#4",
                    "midi": 63,
                    "time": 274.8989880000071,
                    "velocity": 0.33070866141732286,
                    "duration": 0.13983840000003056
                },
                {
                    "name": "C#4",
                    "midi": 61,
                    "time": 275.0155200000071,
                    "velocity": 0.3228346456692913,
                    "duration": 0.11653200000000652
                },
                {
                    "name": "G4",
                    "midi": 67,
                    "time": 275.2485840000071,
                    "velocity": 0.3228346456692913,
                    "duration": 0.23306400000001304
                },
                {
                    "name": "A#4",
                    "midi": 70,
                    "time": 275.4816480000071,
                    "velocity": 0.3543307086614173,
                    "duration": 0.23306400000001304
                },
                {
                    "name": "C#4",
                    "midi": 61,
                    "time": 275.7147120000071,
                    "velocity": 0.33070866141732286,
                    "duration": 0.23306400000001304
                },
                {
                    "name": "D4",
                    "midi": 62,
                    "time": 275.94777600000714,
                    "velocity": 0.30708661417322836,
                    "duration": 0.11653200000000652
                },
                {
                    "name": "D5",
                    "midi": 74,
                    "time": 276.18084000000715,
                    "velocity": 0.36220472440944884,
                    "duration": 0.11653200000000652
                },
                {
                    "name": "D5",
                    "midi": 74,
                    "time": 276.6469680000072,
                    "velocity": 0.3858267716535433,
                    "duration": 0.23306400000001304
                },
                {
                    "name": "D5",
                    "midi": 74,
                    "time": 277.1130960000072,
                    "velocity": 0.36220472440944884,
                    "duration": 0.23306400000001304
                },
                {
                    "name": "D5",
                    "midi": 74,
                    "time": 277.57922400000723,
                    "velocity": 0.3779527559055118,
                    "duration": 0.23306400000001304
                },
                {
                    "name": "D5",
                    "midi": 74,
                    "time": 278.04535200000726,
                    "velocity": 0.33858267716535434,
                    "duration": 0.23306400000001304
                },
                {
                    "name": "C#5",
                    "midi": 73,
                    "time": 278.27841600000727,
                    "velocity": 0.36220472440944884,
                    "duration": 0.23306400000001304
                },
                {
                    "name": "D5",
                    "midi": 74,
                    "time": 278.5114800000073,
                    "velocity": 0.3858267716535433,
                    "duration": 0.23306400000001304
                },
                {
                    "name": "C#5",
                    "midi": 73,
                    "time": 278.7445440000073,
                    "velocity": 0.41732283464566927,
                    "duration": 0.23306400000001304
                },
                {
                    "name": "D5",
                    "midi": 74,
                    "time": 278.9776080000073,
                    "velocity": 0.4409448818897638,
                    "duration": 0.23306400000001304
                },
                {
                    "name": "C#5",
                    "midi": 73,
                    "time": 279.2106720000073,
                    "velocity": 0.47244094488188976,
                    "duration": 0.23306400000001304
                },
                {
                    "name": "D5",
                    "midi": 74,
                    "time": 279.44373600000733,
                    "velocity": 0.49606299212598426,
                    "duration": 0.23306400000001304
                },
                {
                    "name": "F5",
                    "midi": 77,
                    "time": 279.67680000000735,
                    "velocity": 0.5196850393700787,
                    "duration": 0.4661280000000261
                },
                {
                    "name": "D#5",
                    "midi": 75,
                    "time": 280.1429280000074,
                    "velocity": 0.5039370078740157,
                    "duration": 0.4661280000000261
                },
                {
                    "name": "D#5",
                    "midi": 75,
                    "time": 280.7255880000074,
                    "velocity": 0.41732283464566927,
                    "duration": 0.11653200000000652
                },
                {
                    "name": "D5",
                    "midi": 74,
                    "time": 280.8421200000074,
                    "velocity": 0.4409448818897638,
                    "duration": 0.11653200000000652
                },
                {
                    "name": "D#5",
                    "midi": 75,
                    "time": 280.9586520000074,
                    "velocity": 0.41732283464566927,
                    "duration": 0.11653200000000652
                },
                {
                    "name": "F5",
                    "midi": 77,
                    "time": 281.0751840000074,
                    "velocity": 0.4409448818897638,
                    "duration": 0.11653200000000652
                },
                {
                    "name": "D#5",
                    "midi": 75,
                    "time": 281.19171600000743,
                    "velocity": 0.4251968503937008,
                    "duration": 0.11653200000000652
                },
                {
                    "name": "D5",
                    "midi": 74,
                    "time": 281.30824800000744,
                    "velocity": 0.4409448818897638,
                    "duration": 0.11653200000000652
                },
                {
                    "name": "D#5",
                    "midi": 75,
                    "time": 281.42478000000744,
                    "velocity": 0.41732283464566927,
                    "duration": 0.11653200000000652
                },
                {
                    "name": "A#5",
                    "midi": 82,
                    "time": 281.54131200000745,
                    "velocity": 0.5511811023622047,
                    "duration": 0.4661280000000261
                },
                {
                    "name": "A5",
                    "midi": 81,
                    "time": 282.0074400000075,
                    "velocity": 0.5196850393700787,
                    "duration": 0.4661280000000261
                },
                {
                    "name": "A5",
                    "midi": 81,
                    "time": 282.5901000000075,
                    "velocity": 0.48031496062992124,
                    "duration": 0.11653200000000652
                },
                {
                    "name": "G5",
                    "midi": 79,
                    "time": 282.7066320000075,
                    "velocity": 0.49606299212598426,
                    "duration": 0.11653200000000652
                },
                {
                    "name": "A5",
                    "midi": 81,
                    "time": 282.8231640000075,
                    "velocity": 0.48031496062992124,
                    "duration": 0.11653200000000652
                },
                {
                    "name": "A#5",
                    "midi": 82,
                    "time": 282.93969600000753,
                    "velocity": 0.49606299212598426,
                    "duration": 0.11653200000000652
                },
                {
                    "name": "A5",
                    "midi": 81,
                    "time": 283.05622800000754,
                    "velocity": 0.48031496062992124,
                    "duration": 0.11653200000000652
                },
                {
                    "name": "G5",
                    "midi": 79,
                    "time": 283.17276000000754,
                    "velocity": 0.49606299212598426,
                    "duration": 0.11653200000000652
                },
                {
                    "name": "A5",
                    "midi": 81,
                    "time": 283.28929200000755,
                    "velocity": 0.48031496062992124,
                    "duration": 0.11653200000000652
                },
                {
                    "name": "F6",
                    "midi": 89,
                    "time": 283.40582400000756,
                    "velocity": 0.6062992125984252,
                    "duration": 0.4661280000000261
                },
                {
                    "name": "D#6",
                    "midi": 87,
                    "time": 283.8719520000076,
                    "velocity": 0.5905511811023622,
                    "duration": 0.4661280000000261
                },
                {
                    "name": "D#6",
                    "midi": 87,
                    "time": 284.4546120000076,
                    "velocity": 0.5196850393700787,
                    "duration": 0.11653200000000652
                },
                {
                    "name": "D6",
                    "midi": 86,
                    "time": 284.5711440000076,
                    "velocity": 0.5354330708661418,
                    "duration": 0.11653200000000652
                },
                {
                    "name": "D#6",
                    "midi": 87,
                    "time": 284.6876760000076,
                    "velocity": 0.5118110236220472,
                    "duration": 0.11653200000000652
                },
                {
                    "name": "F6",
                    "midi": 89,
                    "time": 284.80420800000763,
                    "velocity": 0.5354330708661418,
                    "duration": 0.11653200000000652
                },
                {
                    "name": "D#6",
                    "midi": 87,
                    "time": 284.92074000000764,
                    "velocity": 0.5118110236220472,
                    "duration": 0.11653200000000652
                },
                {
                    "name": "C#6",
                    "midi": 85,
                    "time": 285.03727200000765,
                    "velocity": 0.5354330708661418,
                    "duration": 0.11653200000000652
                },
                {
                    "name": "C6",
                    "midi": 84,
                    "time": 285.15380400000765,
                    "velocity": 0.5118110236220472,
                    "duration": 0.11653200000000652
                },
                {
                    "name": "A#5",
                    "midi": 82,
                    "time": 285.27033600000766,
                    "velocity": 0.6062992125984252,
                    "duration": 0.4661280000000261
                },
                {
                    "name": "A5",
                    "midi": 81,
                    "time": 285.7364640000077,
                    "velocity": 0.5433070866141733,
                    "duration": 0.4661280000000261
                },
                {
                    "name": "D#6",
                    "midi": 87,
                    "time": 286.3191240000077,
                    "velocity": 0.5275590551181102,
                    "duration": 0.13983840000003056
                },
                {
                    "name": "D6",
                    "midi": 86,
                    "time": 286.4356560000077,
                    "velocity": 0.5433070866141733,
                    "duration": 0.13983840000003056
                },
                {
                    "name": "D#6",
                    "midi": 87,
                    "time": 286.55218800000773,
                    "velocity": 0.5196850393700787,
                    "duration": 0.13983840000003056
                },
                {
                    "name": "F6",
                    "midi": 89,
                    "time": 286.66872000000774,
                    "velocity": 0.5511811023622047,
                    "duration": 0.13983840000003056
                },
                {
                    "name": "D#6",
                    "midi": 87,
                    "time": 286.78525200000774,
                    "velocity": 0.5275590551181102,
                    "duration": 0.13983840000003056
                },
                {
                    "name": "C#6",
                    "midi": 85,
                    "time": 286.90178400000775,
                    "velocity": 0.5354330708661418,
                    "duration": 0.13983840000003056
                },
                {
                    "name": "C6",
                    "midi": 84,
                    "time": 287.01831600000776,
                    "velocity": 0.5275590551181102,
                    "duration": 0.11653200000000652
                },
                {
                    "name": "A#5",
                    "midi": 82,
                    "time": 287.13484800000776,
                    "velocity": 0.5196850393700787,
                    "duration": 0.13983840000003056
                },
                {
                    "name": "A5",
                    "midi": 81,
                    "time": 287.25138000000777,
                    "velocity": 0.5118110236220472,
                    "duration": 0.13983840000003056
                },
                {
                    "name": "D#6",
                    "midi": 87,
                    "time": 287.3679120000078,
                    "velocity": 0.5433070866141733,
                    "duration": 0.13983840000003056
                },
                {
                    "name": "D6",
                    "midi": 86,
                    "time": 287.4844440000078,
                    "velocity": 0.5196850393700787,
                    "duration": 0.13983840000003056
                },
                {
                    "name": "F6",
                    "midi": 89,
                    "time": 287.6009760000078,
                    "velocity": 0.5590551181102362,
                    "duration": 0.13983840000003056
                },
                {
                    "name": "D#6",
                    "midi": 87,
                    "time": 287.7175080000078,
                    "velocity": 0.5354330708661418,
                    "duration": 0.13983840000003056
                },
                {
                    "name": "C#6",
                    "midi": 85,
                    "time": 287.8340400000078,
                    "velocity": 0.5433070866141733,
                    "duration": 0.13983840000003056
                },
                {
                    "name": "C6",
                    "midi": 84,
                    "time": 287.9505720000078,
                    "velocity": 0.5275590551181102,
                    "duration": 0.13983840000003056
                },
                {
                    "name": "A#5",
                    "midi": 82,
                    "time": 288.0671040000078,
                    "velocity": 0.5196850393700787,
                    "duration": 0.13983840000003056
                },
                {
                    "name": "A5",
                    "midi": 81,
                    "time": 288.1836360000078,
                    "velocity": 0.5118110236220472,
                    "duration": 0.13983840000003056
                },
                {
                    "name": "D#6",
                    "midi": 87,
                    "time": 288.30016800000783,
                    "velocity": 0.5511811023622047,
                    "duration": 0.13983840000003056
                },
                {
                    "name": "D6",
                    "midi": 86,
                    "time": 288.41670000000784,
                    "velocity": 0.5275590551181102,
                    "duration": 0.13983840000003056
                },
                {
                    "name": "F6",
                    "midi": 89,
                    "time": 288.53323200000784,
                    "velocity": 0.5590551181102362,
                    "duration": 0.13983840000003056
                },
                {
                    "name": "D#6",
                    "midi": 87,
                    "time": 288.64976400000785,
                    "velocity": 0.5354330708661418,
                    "duration": 0.13983840000003056
                },
                {
                    "name": "C#6",
                    "midi": 85,
                    "time": 288.76629600000786,
                    "velocity": 0.5511811023622047,
                    "duration": 0.13983840000003056
                },
                {
                    "name": "C6",
                    "midi": 84,
                    "time": 288.88282800000786,
                    "velocity": 0.5433070866141733,
                    "duration": 0.11653200000000652
                },
                {
                    "name": "A#5",
                    "midi": 82,
                    "time": 288.99936000000787,
                    "velocity": 0.5354330708661418,
                    "duration": 0.13983840000003056
                },
                {
                    "name": "A5",
                    "midi": 81,
                    "time": 289.1158920000079,
                    "velocity": 0.5275590551181102,
                    "duration": 0.13983840000003056
                },
                {
                    "name": "C6",
                    "midi": 84,
                    "time": 289.2324240000079,
                    "velocity": 0.5354330708661418,
                    "duration": 0.13983840000003056
                },
                {
                    "name": "B5",
                    "midi": 83,
                    "time": 289.3489560000079,
                    "velocity": 0.5039370078740157,
                    "duration": 0.13983840000003056
                },
                {
                    "name": "D6",
                    "midi": 86,
                    "time": 289.4654880000079,
                    "velocity": 0.5354330708661418,
                    "duration": 0.13983840000003056
                },
                {
                    "name": "C6",
                    "midi": 84,
                    "time": 289.5820200000079,
                    "velocity": 0.5275590551181102,
                    "duration": 0.13983840000003056
                },
                {
                    "name": "A#5",
                    "midi": 82,
                    "time": 289.6985520000079,
                    "velocity": 0.5118110236220472,
                    "duration": 0.13983840000003056
                },
                {
                    "name": "A5",
                    "midi": 81,
                    "time": 289.8150840000079,
                    "velocity": 0.49606299212598426,
                    "duration": 0.13983840000003056
                },
                {
                    "name": "G5",
                    "midi": 79,
                    "time": 289.9316160000079,
                    "velocity": 0.49606299212598426,
                    "duration": 0.13983840000003056
                },
                {
                    "name": "F5",
                    "midi": 77,
                    "time": 290.0481480000079,
                    "velocity": 0.48031496062992124,
                    "duration": 0.13983840000003056
                },
                {
                    "name": "G5",
                    "midi": 79,
                    "time": 290.16468000000793,
                    "velocity": 0.4645669291338583,
                    "duration": 0.13983840000003056
                },
                {
                    "name": "F#5",
                    "midi": 78,
                    "time": 290.28121200000794,
                    "velocity": 0.4566929133858268,
                    "duration": 0.13983840000003056
                },
                {
                    "name": "A5",
                    "midi": 81,
                    "time": 290.39774400000795,
                    "velocity": 0.4645669291338583,
                    "duration": 0.13983840000003056
                },
                {
                    "name": "G5",
                    "midi": 79,
                    "time": 290.51427600000795,
                    "velocity": 0.44881889763779526,
                    "duration": 0.13983840000003056
                },
                {
                    "name": "F5",
                    "midi": 77,
                    "time": 290.63080800000796,
                    "velocity": 0.4409448818897638,
                    "duration": 0.13983840000003056
                },
                {
                    "name": "D#5",
                    "midi": 75,
                    "time": 290.74734000000797,
                    "velocity": 0.4251968503937008,
                    "duration": 0.11653200000000652
                },
                {
                    "name": "D5",
                    "midi": 74,
                    "time": 290.863872000008,
                    "velocity": 0.4094488188976378,
                    "duration": 0.23306400000001304
                },
                {
                    "name": "C5",
                    "midi": 72,
                    "time": 291.096936000008,
                    "velocity": 0.4094488188976378,
                    "duration": 0.23306400000001304
                },
                {
                    "name": "D5",
                    "midi": 74,
                    "time": 291.330000000008,
                    "velocity": 0.4251968503937008,
                    "duration": 0.11653200000000652
                },
                {
                    "name": "D#5",
                    "midi": 75,
                    "time": 291.563064000008,
                    "velocity": 0.4409448818897638,
                    "duration": 0.11653200000000652
                },
                {
                    "name": "E5",
                    "midi": 76,
                    "time": 291.796128000008,
                    "velocity": 0.4566929133858268,
                    "duration": 0.11653200000000652
                },
                {
                    "name": "F5",
                    "midi": 77,
                    "time": 292.02919200000804,
                    "velocity": 0.48031496062992124,
                    "duration": 0.11653200000000652
                },
                {
                    "name": "G5",
                    "midi": 79,
                    "time": 292.26225600000805,
                    "velocity": 0.44881889763779526,
                    "duration": 0.11653200000000652
                },
                {
                    "name": "F5",
                    "midi": 77,
                    "time": 292.37878800000806,
                    "velocity": 0.4409448818897638,
                    "duration": 0.11653200000000652
                },
                {
                    "name": "D#5",
                    "midi": 75,
                    "time": 292.49532000000806,
                    "velocity": 0.4251968503937008,
                    "duration": 0.11653200000000652
                },
                {
                    "name": "D5",
                    "midi": 74,
                    "time": 292.61185200000807,
                    "velocity": 0.4094488188976378,
                    "duration": 0.11653200000000652
                },
                {
                    "name": "C5",
                    "midi": 72,
                    "time": 292.7283840000081,
                    "velocity": 0.47244094488188976,
                    "duration": 0.23306400000001304
                },
                {
                    "name": "A#4",
                    "midi": 70,
                    "time": 292.9614480000081,
                    "velocity": 0.4251968503937008,
                    "duration": 0.2233529999999746
                },
                {
                    "name": "A#4",
                    "midi": 70,
                    "time": 293.19451200000805,
                    "velocity": 0.4015748031496063,
                    "duration": 0.6991919999999823
                },
                {
                    "name": "D5",
                    "midi": 74,
                    "time": 293.89370400000803,
                    "velocity": 0.44881889763779526,
                    "duration": 0.23306400000001304
                },
                {
                    "name": "G5",
                    "midi": 79,
                    "time": 294.12676800000804,
                    "velocity": 0.47244094488188976,
                    "duration": 0.23306400000001304
                },
                {
                    "name": "D5",
                    "midi": 74,
                    "time": 294.35983200000805,
                    "velocity": 0.4330708661417323,
                    "duration": 0.23306400000001304
                },
                {
                    "name": "F5",
                    "midi": 77,
                    "time": 294.59289600000807,
                    "velocity": 0.47244094488188976,
                    "duration": 0.4661280000000261
                },
                {
                    "name": "D#5",
                    "midi": 75,
                    "time": 295.0590240000081,
                    "velocity": 0.4409448818897638,
                    "duration": 0.6991919999999823
                },
                {
                    "name": "F5",
                    "midi": 77,
                    "time": 295.7582160000081,
                    "velocity": 0.47244094488188976,
                    "duration": 0.11653200000000652
                },
                {
                    "name": "G5",
                    "midi": 79,
                    "time": 295.8747480000081,
                    "velocity": 0.4409448818897638,
                    "duration": 0.11653200000000652
                },
                {
                    "name": "F5",
                    "midi": 77,
                    "time": 295.9912800000081,
                    "velocity": 0.48031496062992124,
                    "duration": 0.11653200000000652
                },
                {
                    "name": "D#5",
                    "midi": 75,
                    "time": 296.1078120000081,
                    "velocity": 0.4251968503937008,
                    "duration": 0.11653200000000652
                },
                {
                    "name": "D5",
                    "midi": 74,
                    "time": 296.2243440000081,
                    "velocity": 0.4566929133858268,
                    "duration": 0.11653200000000652
                },
                {
                    "name": "C5",
                    "midi": 72,
                    "time": 296.3408760000081,
                    "velocity": 0.41732283464566927,
                    "duration": 0.11653200000000652
                },
                {
                    "name": "A#4",
                    "midi": 70,
                    "time": 296.4574080000081,
                    "velocity": 0.5196850393700787,
                    "duration": 0.4661280000000261
                },
                {
                    "name": "A4",
                    "midi": 69,
                    "time": 296.92353600000814,
                    "velocity": 0.44881889763779526,
                    "duration": 0.6923942999999895
                },
                {
                    "name": "A4",
                    "midi": 69,
                    "time": 297.6227280000081,
                    "velocity": 0.4881889763779528,
                    "duration": 0.23306400000001304
                },
                {
                    "name": "A#4",
                    "midi": 70,
                    "time": 297.85579200000814,
                    "velocity": 0.5118110236220472,
                    "duration": 0.23306400000001304
                },
                {
                    "name": "C5",
                    "midi": 72,
                    "time": 298.08885600000815,
                    "velocity": 0.48031496062992124,
                    "duration": 0.2233529999999746
                },
                {
                    "name": "A4",
                    "midi": 69,
                    "time": 298.3219200000081,
                    "velocity": 0.4094488188976378,
                    "duration": 0.4661280000000261
                },
                {
                    "name": "C5",
                    "midi": 72,
                    "time": 298.3219200000081,
                    "velocity": 0.48031496062992124,
                    "duration": 0.4661280000000261
                },
                {
                    "name": "A#4",
                    "midi": 70,
                    "time": 298.78804800000813,
                    "velocity": 0.3858267716535433,
                    "duration": 0.4661280000000261
                },
                {
                    "name": "D5",
                    "midi": 74,
                    "time": 298.78804800000813,
                    "velocity": 0.4566929133858268,
                    "duration": 0.4661280000000261
                },
                {
                    "name": "F5",
                    "midi": 77,
                    "time": 299.48724000000817,
                    "velocity": 0.5039370078740157,
                    "duration": 0.11653200000000652
                },
                {
                    "name": "E5",
                    "midi": 76,
                    "time": 299.6037720000082,
                    "velocity": 0.49606299212598426,
                    "duration": 0.11653200000000652
                },
                {
                    "name": "G5",
                    "midi": 79,
                    "time": 299.7203040000082,
                    "velocity": 0.5196850393700787,
                    "duration": 0.11653200000000652
                },
                {
                    "name": "F5",
                    "midi": 77,
                    "time": 299.8368360000082,
                    "velocity": 0.49606299212598426,
                    "duration": 0.11653200000000652
                },
                {
                    "name": "D#5",
                    "midi": 75,
                    "time": 299.9533680000082,
                    "velocity": 0.49606299212598426,
                    "duration": 0.11653200000000652
                },
                {
                    "name": "D5",
                    "midi": 74,
                    "time": 300.0699000000082,
                    "velocity": 0.48031496062992124,
                    "duration": 0.10682100000002492
                },
                {
                    "name": "D5",
                    "midi": 74,
                    "time": 300.1864320000082,
                    "velocity": 0.5354330708661418,
                    "duration": 0.23306400000001304
                },
                {
                    "name": "C5",
                    "midi": 72,
                    "time": 300.4194960000082,
                    "velocity": 0.48031496062992124,
                    "duration": 0.4661280000000261
                },
                {
                    "name": "A#4",
                    "midi": 70,
                    "time": 300.88562400000825,
                    "velocity": 0.48031496062992124,
                    "duration": 0.23306400000001304
                },
                {
                    "name": "D5",
                    "midi": 74,
                    "time": 301.11868800000826,
                    "velocity": 0.5275590551181102,
                    "duration": 0.23306400000001304
                },
                {
                    "name": "C5",
                    "midi": 72,
                    "time": 301.3517520000083,
                    "velocity": 0.4881889763779528,
                    "duration": 0.4661280000000261
                },
                {
                    "name": "A4",
                    "midi": 69,
                    "time": 301.8178800000083,
                    "velocity": 0.5039370078740157,
                    "duration": 0.23306400000001304
                },
                {
                    "name": "A#4",
                    "midi": 70,
                    "time": 302.0509440000083,
                    "velocity": 0.5354330708661418,
                    "duration": 0.11653200000000652
                },
                {
                    "name": "C5",
                    "midi": 72,
                    "time": 302.1674760000083,
                    "velocity": 0.4645669291338583,
                    "duration": 0.11653200000000652
                },
                {
                    "name": "A#4",
                    "midi": 70,
                    "time": 302.2840080000083,
                    "velocity": 0.4881889763779528,
                    "duration": 0.11653200000000652
                },
                {
                    "name": "A4",
                    "midi": 69,
                    "time": 302.40054000000833,
                    "velocity": 0.4566929133858268,
                    "duration": 0.11653200000000652
                },
                {
                    "name": "A#4",
                    "midi": 70,
                    "time": 302.51707200000834,
                    "velocity": 0.5196850393700787,
                    "duration": 0.11653200000000652
                },
                {
                    "name": "C5",
                    "midi": 72,
                    "time": 302.63360400000835,
                    "velocity": 0.47244094488188976,
                    "duration": 0.11653200000000652
                },
                {
                    "name": "D5",
                    "midi": 74,
                    "time": 302.75013600000835,
                    "velocity": 0.49606299212598426,
                    "duration": 0.11653200000000652
                },
                {
                    "name": "D#5",
                    "midi": 75,
                    "time": 302.86666800000836,
                    "velocity": 0.48031496062992124,
                    "duration": 0.11653200000000652
                },
                {
                    "name": "E5",
                    "midi": 76,
                    "time": 302.98320000000837,
                    "velocity": 0.5433070866141733,
                    "duration": 0.11653200000000652
                },
                {
                    "name": "F5",
                    "midi": 77,
                    "time": 303.0997320000084,
                    "velocity": 0.5118110236220472,
                    "duration": 0.11653200000000652
                },
                {
                    "name": "E5",
                    "midi": 76,
                    "time": 303.2162640000084,
                    "velocity": 0.5433070866141733,
                    "duration": 0.11653200000000652
                },
                {
                    "name": "F5",
                    "midi": 77,
                    "time": 303.3327960000084,
                    "velocity": 0.5118110236220472,
                    "duration": 0.11653200000000652
                },
                {
                    "name": "G5",
                    "midi": 79,
                    "time": 303.4493280000084,
                    "velocity": 0.5433070866141733,
                    "duration": 0.11653200000000652
                },
                {
                    "name": "F5",
                    "midi": 77,
                    "time": 303.5658600000084,
                    "velocity": 0.5275590551181102,
                    "duration": 0.11653200000000652
                },
                {
                    "name": "D#5",
                    "midi": 75,
                    "time": 303.6823920000084,
                    "velocity": 0.5196850393700787,
                    "duration": 0.11653200000000652
                },
                {
                    "name": "D5",
                    "midi": 74,
                    "time": 303.7989240000084,
                    "velocity": 0.5118110236220472,
                    "duration": 0.10682100000002492
                },
                {
                    "name": "D5",
                    "midi": 74,
                    "time": 303.9154560000084,
                    "velocity": 0.5669291338582677,
                    "duration": 0.23306400000001304
                },
                {
                    "name": "C5",
                    "midi": 72,
                    "time": 304.14852000000843,
                    "velocity": 0.4251968503937008,
                    "duration": 0.2233529999999746
                },
                {
                    "name": "C5",
                    "midi": 72,
                    "time": 304.3815840000084,
                    "velocity": 0.4409448818897638,
                    "duration": 0.23306400000001304
                },
                {
                    "name": "A#4",
                    "midi": 70,
                    "time": 304.6146480000084,
                    "velocity": 0.4251968503937008,
                    "duration": 0.23306400000001304
                },
                {
                    "name": "D5",
                    "midi": 74,
                    "time": 304.8477120000084,
                    "velocity": 0.5118110236220472,
                    "duration": 0.23306400000001304
                },
                {
                    "name": "C5",
                    "midi": 72,
                    "time": 305.0807760000084,
                    "velocity": 0.4251968503937008,
                    "duration": 0.2233529999999746
                },
                {
                    "name": "C5",
                    "midi": 72,
                    "time": 305.3138400000084,
                    "velocity": 0.44881889763779526,
                    "duration": 0.23306400000001304
                },
                {
                    "name": "A4",
                    "midi": 69,
                    "time": 305.5469040000084,
                    "velocity": 0.41732283464566927,
                    "duration": 0.23306400000001304
                },
                {
                    "name": "A#4",
                    "midi": 70,
                    "time": 305.7799680000084,
                    "velocity": 0.5196850393700787,
                    "duration": 0.23306400000001304
                },
                {
                    "name": "C5",
                    "midi": 72,
                    "time": 306.0130320000084,
                    "velocity": 0.44881889763779526,
                    "duration": 0.11653200000000652
                },
                {
                    "name": "D5",
                    "midi": 74,
                    "time": 306.12956400000843,
                    "velocity": 0.4566929133858268,
                    "duration": 0.11653200000000652
                },
                {
                    "name": "D#5",
                    "midi": 75,
                    "time": 306.24609600000844,
                    "velocity": 0.4645669291338583,
                    "duration": 0.11653200000000652
                },
                {
                    "name": "F5",
                    "midi": 77,
                    "time": 306.36262800000844,
                    "velocity": 0.47244094488188976,
                    "duration": 0.11653200000000652
                },
                {
                    "name": "G5",
                    "midi": 79,
                    "time": 306.47916000000845,
                    "velocity": 0.48031496062992124,
                    "duration": 0.11653200000000652
                },
                {
                    "name": "A5",
                    "midi": 81,
                    "time": 306.59569200000846,
                    "velocity": 0.5039370078740157,
                    "duration": 0.11653200000000652
                },
                {
                    "name": "A#5",
                    "midi": 82,
                    "time": 306.71222400000846,
                    "velocity": 0.5196850393700787,
                    "duration": 0.11653200000000652
                },
                {
                    "name": "C6",
                    "midi": 84,
                    "time": 306.82875600000847,
                    "velocity": 0.5275590551181102,
                    "duration": 0.11653200000000652
                },
                {
                    "name": "D6",
                    "midi": 86,
                    "time": 306.9452880000085,
                    "velocity": 0.5354330708661418,
                    "duration": 0.11653200000000652
                },
                {
                    "name": "D#6",
                    "midi": 87,
                    "time": 307.0618200000085,
                    "velocity": 0.5433070866141733,
                    "duration": 0.11653200000000652
                },
                {
                    "name": "F6",
                    "midi": 89,
                    "time": 307.1783520000085,
                    "velocity": 0.5984251968503937,
                    "duration": 0.11653200000000652
                },
                {
                    "name": "F6",
                    "midi": 89,
                    "time": 307.4114160000085,
                    "velocity": 0.5905511811023622,
                    "duration": 0.11653200000000652
                },
                {
                    "name": "F5",
                    "midi": 77,
                    "time": 307.6444800000085,
                    "velocity": 0.5984251968503937,
                    "duration": 1.1653200000000652
                },
                {
                    "name": "F6",
                    "midi": 89,
                    "time": 307.6444800000085,
                    "velocity": 0.5984251968503937,
                    "duration": 0.23306400000001304
                },
                {
                    "name": "D#6",
                    "midi": 87,
                    "time": 307.8775440000085,
                    "velocity": 0.5826771653543307,
                    "duration": 0.4661280000000261
                },
                {
                    "name": "D6",
                    "midi": 86,
                    "time": 308.34367200000855,
                    "velocity": 0.5748031496062992,
                    "duration": 0.23306400000001304
                },
                {
                    "name": "D6",
                    "midi": 86,
                    "time": 308.57673600000857,
                    "velocity": 0.5905511811023622,
                    "duration": 0.23306400000001304
                },
                {
                    "name": "D#5",
                    "midi": 75,
                    "time": 308.8098000000086,
                    "velocity": 0.5039370078740157,
                    "duration": 0.11653200000000652
                },
                {
                    "name": "C6",
                    "midi": 84,
                    "time": 308.8098000000086,
                    "velocity": 0.5039370078740157,
                    "duration": 0.11653200000000652
                },
                {
                    "name": "D5",
                    "midi": 74,
                    "time": 309.0428640000086,
                    "velocity": 0.5669291338582677,
                    "duration": 0.11653200000000652
                },
                {
                    "name": "A#5",
                    "midi": 82,
                    "time": 309.0428640000086,
                    "velocity": 0.5669291338582677,
                    "duration": 0.11653200000000652
                },
                {
                    "name": "C5",
                    "midi": 72,
                    "time": 309.2759280000086,
                    "velocity": 0.5039370078740157,
                    "duration": 0.11653200000000652
                },
                {
                    "name": "A5",
                    "midi": 81,
                    "time": 309.2759280000086,
                    "velocity": 0.5039370078740157,
                    "duration": 0.11653200000000652
                },
                {
                    "name": "A#5",
                    "midi": 82,
                    "time": 309.5089920000086,
                    "velocity": 0.5984251968503937,
                    "duration": 0.23306400000001304
                },
                {
                    "name": "D5",
                    "midi": 74,
                    "time": 309.5089920000086,
                    "velocity": 0.5984251968503937,
                    "duration": 0.23306400000001304
                },
                {
                    "name": "A#4",
                    "midi": 70,
                    "time": 309.97512000000864,
                    "velocity": 0.5669291338582677,
                    "duration": 0.23306400000001304
                },
                {
                    "name": "G4",
                    "midi": 67,
                    "time": 310.90737600000864,
                    "velocity": 0.4094488188976378,
                    "duration": 0.11653200000000652
                },
                {
                    "name": "F4",
                    "midi": 65,
                    "time": 311.02390800000865,
                    "velocity": 0.3779527559055118,
                    "duration": 0.11653200000000652
                },
                {
                    "name": "D#4",
                    "midi": 63,
                    "time": 311.14044000000865,
                    "velocity": 0.4094488188976378,
                    "duration": 0.11653200000000652
                },
                {
                    "name": "D4",
                    "midi": 62,
                    "time": 311.25697200000866,
                    "velocity": 0.3779527559055118,
                    "duration": 0.11653200000000652
                },
                {
                    "name": "C4",
                    "midi": 60,
                    "time": 311.37350400000867,
                    "velocity": 0.4409448818897638,
                    "duration": 0.23306400000001304
                },
                {
                    "name": "A#3",
                    "midi": 58,
                    "time": 311.6065680000087,
                    "velocity": 0.41732283464566927,
                    "duration": 0.23306400000001304
                },
                {
                    "name": "A#3",
                    "midi": 58,
                    "time": 311.8396320000087,
                    "velocity": 0.41732283464566927,
                    "duration": 0.6991919999999823
                },
                {
                    "name": "A#4",
                    "midi": 70,
                    "time": 312.5388240000087,
                    "velocity": 0.4251968503937008,
                    "duration": 0.11653200000000652
                },
                {
                    "name": "A#4",
                    "midi": 70,
                    "time": 312.7718880000087,
                    "velocity": 0.4251968503937008,
                    "duration": 0.23306400000001304
                },
                {
                    "name": "C5",
                    "midi": 72,
                    "time": 313.0049520000087,
                    "velocity": 0.4015748031496063,
                    "duration": 0.23306400000001304
                },
                {
                    "name": "A#4",
                    "midi": 70,
                    "time": 313.2380160000087,
                    "velocity": 0.48031496062992124,
                    "duration": 0.23306400000001304
                },
                {
                    "name": "A4",
                    "midi": 69,
                    "time": 313.4710800000087,
                    "velocity": 0.41732283464566927,
                    "duration": 0.23306400000001304
                },
                {
                    "name": "G#4",
                    "midi": 68,
                    "time": 313.70414400000874,
                    "velocity": 0.4015748031496063,
                    "duration": 0.6894810000000007
                },
                {
                    "name": "G#4",
                    "midi": 68,
                    "time": 314.4033360000087,
                    "velocity": 0.4566929133858268,
                    "duration": 0.2233529999999746
                },
                {
                    "name": "G#4",
                    "midi": 68,
                    "time": 314.6364000000087,
                    "velocity": 0.5118110236220472,
                    "duration": 0.2233529999999746
                },
                {
                    "name": "G#4",
                    "midi": 68,
                    "time": 314.86946400000863,
                    "velocity": 0.5669291338582677,
                    "duration": 0.23306400000001304
                },
                {
                    "name": "G#5",
                    "midi": 80,
                    "time": 315.10252800000865,
                    "velocity": 0.6141732283464567,
                    "duration": 0.11653200000000652
                },
                {
                    "name": "A#5",
                    "midi": 82,
                    "time": 315.21906000000865,
                    "velocity": 0.5590551181102362,
                    "duration": 0.11653200000000652
                },
                {
                    "name": "G5",
                    "midi": 79,
                    "time": 315.33559200000866,
                    "velocity": 0.6141732283464567,
                    "duration": 0.11653200000000652
                },
                {
                    "name": "G#5",
                    "midi": 80,
                    "time": 315.45212400000867,
                    "velocity": 0.5511811023622047,
                    "duration": 0.11653200000000652
                },
                {
                    "name": "F5",
                    "midi": 77,
                    "time": 315.5686560000087,
                    "velocity": 0.6220472440944882,
                    "duration": 0.11653200000000652
                },
                {
                    "name": "G5",
                    "midi": 79,
                    "time": 315.6851880000087,
                    "velocity": 0.5433070866141733,
                    "duration": 0.11653200000000652
                },
                {
                    "name": "D#5",
                    "midi": 75,
                    "time": 315.8017200000087,
                    "velocity": 0.6062992125984252,
                    "duration": 0.11653200000000652
                },
                {
                    "name": "F5",
                    "midi": 77,
                    "time": 315.9182520000087,
                    "velocity": 0.5511811023622047,
                    "duration": 0.11653200000000652
                },
                {
                    "name": "D5",
                    "midi": 74,
                    "time": 316.0347840000087,
                    "velocity": 0.6220472440944882,
                    "duration": 0.11653200000000652
                },
                {
                    "name": "D#5",
                    "midi": 75,
                    "time": 316.1513160000087,
                    "velocity": 0.5511811023622047,
                    "duration": 0.11653200000000652
                },
                {
                    "name": "C5",
                    "midi": 72,
                    "time": 316.2678480000087,
                    "velocity": 0.5905511811023622,
                    "duration": 0.11653200000000652
                },
                {
                    "name": "D5",
                    "midi": 74,
                    "time": 316.3843800000087,
                    "velocity": 0.5433070866141733,
                    "duration": 0.11653200000000652
                },
                {
                    "name": "A#4",
                    "midi": 70,
                    "time": 316.5009120000087,
                    "velocity": 0.5984251968503937,
                    "duration": 0.11653200000000652
                },
                {
                    "name": "C5",
                    "midi": 72,
                    "time": 316.61744400000873,
                    "velocity": 0.5511811023622047,
                    "duration": 0.11653200000000652
                },
                {
                    "name": "G#4",
                    "midi": 68,
                    "time": 316.73397600000874,
                    "velocity": 0.5669291338582677,
                    "duration": 0.11653200000000652
                },
                {
                    "name": "A#4",
                    "midi": 70,
                    "time": 316.85050800000874,
                    "velocity": 0.5275590551181102,
                    "duration": 0.11653200000000652
                },
                {
                    "name": "G#4",
                    "midi": 68,
                    "time": 316.96704000000875,
                    "velocity": 0.5669291338582677,
                    "duration": 0.23306400000001304
                },
                {
                    "name": "G4",
                    "midi": 67,
                    "time": 317.20010400000876,
                    "velocity": 0.5275590551181102,
                    "duration": 0.2233529999999746
                },
                {
                    "name": "G4",
                    "midi": 67,
                    "time": 317.4331680000087,
                    "velocity": 0.4645669291338583,
                    "duration": 0.6991919999999823
                },
                {
                    "name": "G5",
                    "midi": 79,
                    "time": 318.1323600000087,
                    "velocity": 0.4251968503937008,
                    "duration": 0.11653200000000652
                },
                {
                    "name": "G5",
                    "midi": 79,
                    "time": 318.3654240000087,
                    "velocity": 0.47244094488188976,
                    "duration": 0.23306400000001304
                },
                {
                    "name": "F5",
                    "midi": 77,
                    "time": 318.59848800000873,
                    "velocity": 0.4251968503937008,
                    "duration": 0.2233529999999746
                },
                {
                    "name": "F5",
                    "midi": 77,
                    "time": 318.8315520000087,
                    "velocity": 0.49606299212598426,
                    "duration": 0.23306400000001304
                },
                {
                    "name": "E5",
                    "midi": 76,
                    "time": 319.0646160000087,
                    "velocity": 0.4251968503937008,
                    "duration": 0.2233529999999746
                },
                {
                    "name": "E5",
                    "midi": 76,
                    "time": 319.29768000000865,
                    "velocity": 0.4251968503937008,
                    "duration": 0.6991919999999823
                },
                {
                    "name": "C#6",
                    "midi": 85,
                    "time": 319.99687200000864,
                    "velocity": 0.4645669291338583,
                    "duration": 0.11653200000000652
                },
                {
                    "name": "C#6",
                    "midi": 85,
                    "time": 320.22993600000865,
                    "velocity": 0.48031496062992124,
                    "duration": 0.23306400000001304
                },
                {
                    "name": "E5",
                    "midi": 76,
                    "time": 320.46300000000866,
                    "velocity": 0.4409448818897638,
                    "duration": 0.23306400000001304
                },
                {
                    "name": "G5",
                    "midi": 79,
                    "time": 320.6960640000087,
                    "velocity": 0.48031496062992124,
                    "duration": 0.23306400000001304
                },
                {
                    "name": "F5",
                    "midi": 77,
                    "time": 320.9291280000087,
                    "velocity": 0.4251968503937008,
                    "duration": 0.2233529999999746
                },
                {
                    "name": "F5",
                    "midi": 77,
                    "time": 321.16219200000864,
                    "velocity": 0.4251968503937008,
                    "duration": 0.6991919999999823
                },
                {
                    "name": "F#5",
                    "midi": 78,
                    "time": 321.8613840000086,
                    "velocity": 0.4094488188976378,
                    "duration": 0.23306400000001304
                },
                {
                    "name": "G5",
                    "midi": 79,
                    "time": 322.09444800000864,
                    "velocity": 0.4251968503937008,
                    "duration": 0.23306400000001304
                },
                {
                    "name": "D#5",
                    "midi": 75,
                    "time": 322.32751200000865,
                    "velocity": 0.4094488188976378,
                    "duration": 0.23306400000001304
                },
                {
                    "name": "C#5",
                    "midi": 73,
                    "time": 322.56057600000867,
                    "velocity": 0.44881889763779526,
                    "duration": 0.23306400000001304
                },
                {
                    "name": "D5",
                    "midi": 74,
                    "time": 322.7936400000087,
                    "velocity": 0.4094488188976378,
                    "duration": 0.2233529999999746
                },
                {
                    "name": "D5",
                    "midi": 74,
                    "time": 323.02670400000864,
                    "velocity": 0.4094488188976378,
                    "duration": 0.4661280000000261
                },
                {
                    "name": "F5",
                    "midi": 77,
                    "time": 323.7258960000087,
                    "velocity": 0.4251968503937008,
                    "duration": 0.23306400000001304
                },
                {
                    "name": "G5",
                    "midi": 79,
                    "time": 323.9589600000087,
                    "velocity": 0.48031496062992124,
                    "duration": 0.11653200000000652
                },
                {
                    "name": "F5",
                    "midi": 77,
                    "time": 324.0754920000087,
                    "velocity": 0.44881889763779526,
                    "duration": 0.11653200000000652
                },
                {
                    "name": "D#5",
                    "midi": 75,
                    "time": 324.1920240000087,
                    "velocity": 0.48031496062992124,
                    "duration": 0.11653200000000652
                },
                {
                    "name": "D5",
                    "midi": 74,
                    "time": 324.3085560000087,
                    "velocity": 0.4409448818897638,
                    "duration": 0.11653200000000652
                },
                {
                    "name": "C5",
                    "midi": 72,
                    "time": 324.4250880000087,
                    "velocity": 0.48031496062992124,
                    "duration": 0.6991919999999823
                },
                {
                    "name": "A4",
                    "midi": 69,
                    "time": 325.1242800000087,
                    "velocity": 0.4094488188976378,
                    "duration": 0.23306400000001304
                },
                {
                    "name": "A#4",
                    "midi": 70,
                    "time": 325.3573440000087,
                    "velocity": 0.4094488188976378,
                    "duration": 0.05826600000000326
                },
                {
                    "name": "F5",
                    "midi": 77,
                    "time": 325.4738760000087,
                    "velocity": 0.4409448818897638,
                    "duration": 0.13983840000003056
                },
                {
                    "name": "E5",
                    "midi": 76,
                    "time": 325.5904080000087,
                    "velocity": 0.4409448818897638,
                    "duration": 0.13983840000003056
                },
                {
                    "name": "F5",
                    "midi": 77,
                    "time": 325.70694000000873,
                    "velocity": 0.4094488188976378,
                    "duration": 0.13983840000003056
                },
                {
                    "name": "G5",
                    "midi": 79,
                    "time": 325.82347200000873,
                    "velocity": 0.49606299212598426,
                    "duration": 0.13983840000003056
                },
                {
                    "name": "F5",
                    "midi": 77,
                    "time": 325.94000400000874,
                    "velocity": 0.4251968503937008,
                    "duration": 0.13983840000003056
                },
                {
                    "name": "D#5",
                    "midi": 75,
                    "time": 326.05653600000875,
                    "velocity": 0.4645669291338583,
                    "duration": 0.13983840000003056
                },
                {
                    "name": "D5",
                    "midi": 74,
                    "time": 326.17306800000875,
                    "velocity": 0.41732283464566927,
                    "duration": 0.13983840000003056
                },
                {
                    "name": "C5",
                    "midi": 72,
                    "time": 326.28960000000876,
                    "velocity": 0.49606299212598426,
                    "duration": 0.11653200000000652
                },
                {
                    "name": "C5",
                    "midi": 72,
                    "time": 326.5226640000088,
                    "velocity": 0.49606299212598426,
                    "duration": 0.4661280000000261
                },
                {
                    "name": "A4",
                    "midi": 69,
                    "time": 326.9887920000088,
                    "velocity": 0.4251968503937008,
                    "duration": 0.23306400000001304
                },
                {
                    "name": "A#4",
                    "midi": 70,
                    "time": 327.2218560000088,
                    "velocity": 0.4251968503937008,
                    "duration": 0.05826600000000326
                },
                {
                    "name": "F5",
                    "midi": 77,
                    "time": 327.3383880000088,
                    "velocity": 0.4015748031496063,
                    "duration": 0.13983840000003056
                },
                {
                    "name": "E5",
                    "midi": 76,
                    "time": 327.4549200000088,
                    "velocity": 0.4409448818897638,
                    "duration": 0.13983840000003056
                },
                {
                    "name": "F5",
                    "midi": 77,
                    "time": 327.57145200000883,
                    "velocity": 0.41732283464566927,
                    "duration": 0.13983840000003056
                },
                {
                    "name": "G5",
                    "midi": 79,
                    "time": 327.68798400000884,
                    "velocity": 0.4881889763779528,
                    "duration": 0.13983840000003056
                },
                {
                    "name": "F5",
                    "midi": 77,
                    "time": 327.80451600000885,
                    "velocity": 0.41732283464566927,
                    "duration": 0.13983840000003056
                },
                {
                    "name": "D#5",
                    "midi": 75,
                    "time": 327.92104800000885,
                    "velocity": 0.44881889763779526,
                    "duration": 0.13983840000003056
                },
                {
                    "name": "D5",
                    "midi": 74,
                    "time": 328.03758000000886,
                    "velocity": 0.4251968503937008,
                    "duration": 0.10682100000002492
                },
                {
                    "name": "D5",
                    "midi": 74,
                    "time": 328.15411200000887,
                    "velocity": 0.49606299212598426,
                    "duration": 0.23306400000001304
                },
                {
                    "name": "C5",
                    "midi": 72,
                    "time": 328.3871760000089,
                    "velocity": 0.47244094488188976,
                    "duration": 0.23306400000001304
                },
                {
                    "name": "C5",
                    "midi": 72,
                    "time": 328.8533040000089,
                    "velocity": 0.4645669291338583,
                    "duration": 0.23306400000001304
                },
                {
                    "name": "C5",
                    "midi": 72,
                    "time": 329.0863680000089,
                    "velocity": 0.49606299212598426,
                    "duration": 0.23306400000001304
                },
                {
                    "name": "A#4",
                    "midi": 70,
                    "time": 329.31943200000893,
                    "velocity": 0.4645669291338583,
                    "duration": 0.23306400000001304
                },
                {
                    "name": "A#4",
                    "midi": 70,
                    "time": 329.78556000000896,
                    "velocity": 0.4094488188976378,
                    "duration": 0.23306400000001304
                },
                {
                    "name": "A4",
                    "midi": 69,
                    "time": 330.01862400000897,
                    "velocity": 0.5039370078740157,
                    "duration": 0.11653200000000652
                },
                {
                    "name": "A#4",
                    "midi": 70,
                    "time": 330.135156000009,
                    "velocity": 0.4566929133858268,
                    "duration": 0.11653200000000652
                },
                {
                    "name": "A4",
                    "midi": 69,
                    "time": 330.251688000009,
                    "velocity": 0.4881889763779528,
                    "duration": 0.11653200000000652
                },
                {
                    "name": "F4",
                    "midi": 65,
                    "time": 330.368220000009,
                    "velocity": 0.4566929133858268,
                    "duration": 0.11653200000000652
                },
                {
                    "name": "A#4",
                    "midi": 70,
                    "time": 330.484752000009,
                    "velocity": 0.5433070866141733,
                    "duration": 0.11653200000000652
                },
                {
                    "name": "C5",
                    "midi": 72,
                    "time": 330.601284000009,
                    "velocity": 0.4881889763779528,
                    "duration": 0.11653200000000652
                },
                {
                    "name": "A#4",
                    "midi": 70,
                    "time": 330.717816000009,
                    "velocity": 0.5275590551181102,
                    "duration": 0.11653200000000652
                },
                {
                    "name": "F4",
                    "midi": 65,
                    "time": 330.834348000009,
                    "velocity": 0.4645669291338583,
                    "duration": 0.11653200000000652
                },
                {
                    "name": "C5",
                    "midi": 72,
                    "time": 330.950880000009,
                    "velocity": 0.5511811023622047,
                    "duration": 0.11653200000000652
                },
                {
                    "name": "D5",
                    "midi": 74,
                    "time": 331.067412000009,
                    "velocity": 0.5039370078740157,
                    "duration": 0.11653200000000652
                },
                {
                    "name": "C5",
                    "midi": 72,
                    "time": 331.18394400000903,
                    "velocity": 0.5433070866141733,
                    "duration": 0.11653200000000652
                },
                {
                    "name": "F4",
                    "midi": 65,
                    "time": 331.30047600000904,
                    "velocity": 0.49606299212598426,
                    "duration": 0.11653200000000652
                },
                {
                    "name": "D5",
                    "midi": 74,
                    "time": 331.41700800000905,
                    "velocity": 0.6062992125984252,
                    "duration": 0.11653200000000652
                },
                {
                    "name": "D#5",
                    "midi": 75,
                    "time": 331.53354000000905,
                    "velocity": 0.5275590551181102,
                    "duration": 0.11653200000000652
                },
                {
                    "name": "D5",
                    "midi": 74,
                    "time": 331.65007200000906,
                    "velocity": 0.5669291338582677,
                    "duration": 0.11653200000000652
                },
                {
                    "name": "F4",
                    "midi": 65,
                    "time": 331.76660400000907,
                    "velocity": 0.5275590551181102,
                    "duration": 0.11653200000000652
                },
                {
                    "name": "D#5",
                    "midi": 75,
                    "time": 331.8831360000091,
                    "velocity": 0.6141732283464567,
                    "duration": 0.11653200000000652
                },
                {
                    "name": "D#5",
                    "midi": 75,
                    "time": 332.1162000000091,
                    "velocity": 0.6141732283464567,
                    "duration": 0.11653200000000652
                },
                {
                    "name": "C5",
                    "midi": 72,
                    "time": 332.5823280000091,
                    "velocity": 0.5748031496062992,
                    "duration": 0.11653200000000652
                },
                {
                    "name": "D#5",
                    "midi": 75,
                    "time": 332.8153920000091,
                    "velocity": 0.6220472440944882,
                    "duration": 0.23306400000001304
                },
                {
                    "name": "D5",
                    "midi": 74,
                    "time": 333.04845600000914,
                    "velocity": 0.5669291338582677,
                    "duration": 0.11653200000000652
                },
                {
                    "name": "C5",
                    "midi": 72,
                    "time": 333.28152000000915,
                    "velocity": 0.5826771653543307,
                    "duration": 0.11653200000000652
                },
                {
                    "name": "A#4",
                    "midi": 70,
                    "time": 333.51458400000917,
                    "velocity": 0.5590551181102362,
                    "duration": 0.11653200000000652
                },
                {
                    "name": "A4",
                    "midi": 69,
                    "time": 333.7476480000092,
                    "velocity": 0.5275590551181102,
                    "duration": 0.11653200000000652
                },
                {
                    "name": "F4",
                    "midi": 65,
                    "time": 333.8641800000092,
                    "velocity": 0.4645669291338583,
                    "duration": 0.11653200000000652
                },
                {
                    "name": "E5",
                    "midi": 76,
                    "time": 333.9807120000092,
                    "velocity": 0.48031496062992124,
                    "duration": 0.11653200000000652
                },
                {
                    "name": "F5",
                    "midi": 77,
                    "time": 334.0972440000092,
                    "velocity": 0.4645669291338583,
                    "duration": 0.11653200000000652
                },
                {
                    "name": "A#4",
                    "midi": 70,
                    "time": 334.2137760000092,
                    "velocity": 0.5511811023622047,
                    "duration": 0.11653200000000652
                },
                {
                    "name": "F4",
                    "midi": 65,
                    "time": 334.3303080000092,
                    "velocity": 0.4645669291338583,
                    "duration": 0.11653200000000652
                },
                {
                    "name": "E5",
                    "midi": 76,
                    "time": 334.4468400000092,
                    "velocity": 0.5196850393700787,
                    "duration": 0.11653200000000652
                },
                {
                    "name": "F5",
                    "midi": 77,
                    "time": 334.5633720000092,
                    "velocity": 0.48031496062992124,
                    "duration": 0.11653200000000652
                },
                {
                    "name": "C5",
                    "midi": 72,
                    "time": 334.67990400000923,
                    "velocity": 0.5826771653543307,
                    "duration": 0.11653200000000652
                },
                {
                    "name": "F4",
                    "midi": 65,
                    "time": 334.79643600000924,
                    "velocity": 0.5039370078740157,
                    "duration": 0.11653200000000652
                },
                {
                    "name": "E5",
                    "midi": 76,
                    "time": 334.91296800000924,
                    "velocity": 0.5433070866141733,
                    "duration": 0.11653200000000652
                },
                {
                    "name": "F5",
                    "midi": 77,
                    "time": 335.02950000000925,
                    "velocity": 0.4881889763779528,
                    "duration": 0.11653200000000652
                },
                {
                    "name": "D5",
                    "midi": 74,
                    "time": 335.14603200000926,
                    "velocity": 0.6220472440944882,
                    "duration": 0.11653200000000652
                },
                {
                    "name": "F4",
                    "midi": 65,
                    "time": 335.26256400000926,
                    "velocity": 0.5433070866141733,
                    "duration": 0.11653200000000652
                },
                {
                    "name": "E5",
                    "midi": 76,
                    "time": 335.37909600000927,
                    "velocity": 0.5748031496062992,
                    "duration": 0.11653200000000652
                },
                {
                    "name": "F5",
                    "midi": 77,
                    "time": 335.4956280000093,
                    "velocity": 0.5433070866141733,
                    "duration": 0.11653200000000652
                },
                {
                    "name": "D#5",
                    "midi": 75,
                    "time": 335.6121600000093,
                    "velocity": 0.6220472440944882,
                    "duration": 0.11653200000000652
                },
                {
                    "name": "D#5",
                    "midi": 75,
                    "time": 335.8452240000093,
                    "velocity": 0.6220472440944882,
                    "duration": 0.11653200000000652
                },
                {
                    "name": "C5",
                    "midi": 72,
                    "time": 336.3113520000093,
                    "velocity": 0.44881889763779526,
                    "duration": 0.05826600000000326
                },
                {
                    "name": "D5",
                    "midi": 74,
                    "time": 336.36670470000934,
                    "velocity": 0.4094488188976378,
                    "duration": 0.05826600000000326
                },
                {
                    "name": "C5",
                    "midi": 72,
                    "time": 336.4278840000093,
                    "velocity": 0.44881889763779526,
                    "duration": 0.05826600000000326
                },
                {
                    "name": "D5",
                    "midi": 74,
                    "time": 336.48615000000933,
                    "velocity": 0.4094488188976378,
                    "duration": 0.05826600000000326
                },
                {
                    "name": "D#5",
                    "midi": 75,
                    "time": 336.54441600000933,
                    "velocity": 0.5669291338582677,
                    "duration": 0.23306400000001304
                },
                {
                    "name": "D5",
                    "midi": 74,
                    "time": 336.77748000000935,
                    "velocity": 0.5590551181102362,
                    "duration": 0.11653200000000652
                },
                {
                    "name": "C5",
                    "midi": 72,
                    "time": 337.01054400000936,
                    "velocity": 0.5590551181102362,
                    "duration": 0.11653200000000652
                },
                {
                    "name": "A#4",
                    "midi": 70,
                    "time": 337.2436080000094,
                    "velocity": 0.5354330708661418,
                    "duration": 0.11653200000000652
                },
                {
                    "name": "A4",
                    "midi": 69,
                    "time": 337.4766720000094,
                    "velocity": 0.6141732283464567,
                    "duration": 0.11653200000000652
                },
                {
                    "name": "F5",
                    "midi": 77,
                    "time": 337.5932040000094,
                    "velocity": 0.5433070866141733,
                    "duration": 0.11653200000000652
                },
                {
                    "name": "C5",
                    "midi": 72,
                    "time": 337.7097360000094,
                    "velocity": 0.5748031496062992,
                    "duration": 0.11653200000000652
                },
                {
                    "name": "A4",
                    "midi": 69,
                    "time": 337.8262680000094,
                    "velocity": 0.5511811023622047,
                    "duration": 0.11653200000000652
                },
                {
                    "name": "F4",
                    "midi": 65,
                    "time": 337.9428000000094,
                    "velocity": 0.6062992125984252,
                    "duration": 0.11653200000000652
                },
                {
                    "name": "C4",
                    "midi": 60,
                    "time": 338.0593320000094,
                    "velocity": 0.5433070866141733,
                    "duration": 0.11653200000000652
                },
                {
                    "name": "A3",
                    "midi": 57,
                    "time": 338.1758640000094,
                    "velocity": 0.5511811023622047,
                    "duration": 0.11653200000000652
                },
                {
                    "name": "F3",
                    "midi": 53,
                    "time": 338.29239600000943,
                    "velocity": 0.5275590551181102,
                    "duration": 0.11653200000000652
                },
                {
                    "name": "F3",
                    "midi": 53,
                    "time": 339.34118400000943,
                    "velocity": 0.5669291338582677,
                    "duration": 0.6991919999999823
                },
                {
                    "name": "A#3",
                    "midi": 58,
                    "time": 339.34118400000943,
                    "velocity": 0.5669291338582677,
                    "duration": 0.6991919999999823
                },
                {
                    "name": "D4",
                    "midi": 62,
                    "time": 339.34118400000943,
                    "velocity": 0.5669291338582677,
                    "duration": 0.6991919999999823
                },
                {
                    "name": "F4",
                    "midi": 65,
                    "time": 339.34118400000943,
                    "velocity": 0.5669291338582677,
                    "duration": 0.6991919999999823
                },
                {
                    "name": "G4",
                    "midi": 67,
                    "time": 340.0403760000094,
                    "velocity": 0.3779527559055118,
                    "duration": 0.11653200000000652
                },
                {
                    "name": "F4",
                    "midi": 65,
                    "time": 340.1569080000094,
                    "velocity": 0.3543307086614173,
                    "duration": 0.11653200000000652
                },
                {
                    "name": "D#4",
                    "midi": 63,
                    "time": 340.27344000000943,
                    "velocity": 0.4094488188976378,
                    "duration": 0.11653200000000652
                },
                {
                    "name": "D4",
                    "midi": 62,
                    "time": 340.50650400000944,
                    "velocity": 0.3779527559055118,
                    "duration": 0.11653200000000652
                },
                {
                    "name": "C4",
                    "midi": 60,
                    "time": 340.73956800000946,
                    "velocity": 0.4094488188976378,
                    "duration": 0.11653200000000652
                },
                {
                    "name": "A#3",
                    "midi": 58,
                    "time": 340.97263200000947,
                    "velocity": 0.3779527559055118,
                    "duration": 0.11653200000000652
                },
                {
                    "name": "A#3",
                    "midi": 58,
                    "time": 341.2056960000095,
                    "velocity": 0.4251968503937008,
                    "duration": 0.23306400000001304
                },
                {
                    "name": "G4",
                    "midi": 67,
                    "time": 341.4387600000095,
                    "velocity": 0.3858267716535433,
                    "duration": 0.2233529999999746
                },
                {
                    "name": "A#3",
                    "midi": 58,
                    "time": 341.67182400000945,
                    "velocity": 0.5669291338582677,
                    "duration": 0.6991919999999823
                },
                {
                    "name": "G4",
                    "midi": 67,
                    "time": 341.67182400000945,
                    "velocity": 0.5669291338582677,
                    "duration": 0.6991919999999823
                },
                {
                    "name": "F4",
                    "midi": 65,
                    "time": 342.37101600000943,
                    "velocity": 0.41732283464566927,
                    "duration": 0.23306400000001304
                },
                {
                    "name": "A4",
                    "midi": 69,
                    "time": 342.60408000000945,
                    "velocity": 0.41732283464566927,
                    "duration": 0.23306400000001304
                },
                {
                    "name": "A#4",
                    "midi": 70,
                    "time": 342.83714400000946,
                    "velocity": 0.4094488188976378,
                    "duration": 0.2233529999999746
                },
                {
                    "name": "A#4",
                    "midi": 70,
                    "time": 343.0702080000094,
                    "velocity": 0.48031496062992124,
                    "duration": 0.23306400000001304
                },
                {
                    "name": "C4",
                    "midi": 60,
                    "time": 343.30327200000943,
                    "velocity": 0.41732283464566927,
                    "duration": 0.4661280000000261
                },
                {
                    "name": "D4",
                    "midi": 62,
                    "time": 343.76940000000945,
                    "velocity": 0.41732283464566927,
                    "duration": 0.23306400000001304
                },
                {
                    "name": "A#4",
                    "midi": 70,
                    "time": 344.00246400000947,
                    "velocity": 0.48031496062992124,
                    "duration": 0.23306400000001304
                },
                {
                    "name": "C4",
                    "midi": 60,
                    "time": 344.2355280000095,
                    "velocity": 0.4015748031496063,
                    "duration": 0.4661280000000261
                },
                {
                    "name": "D4",
                    "midi": 62,
                    "time": 344.7016560000095,
                    "velocity": 0.41732283464566927,
                    "duration": 0.23306400000001304
                },
                {
                    "name": "F4",
                    "midi": 65,
                    "time": 344.9347200000095,
                    "velocity": 0.4566929133858268,
                    "duration": 0.4661280000000261
                },
                {
                    "name": "D#4",
                    "midi": 63,
                    "time": 345.40084800000955,
                    "velocity": 0.4094488188976378,
                    "duration": 0.05826600000000326
                },
                {
                    "name": "F4",
                    "midi": 65,
                    "time": 345.45911400000955,
                    "velocity": 0.3700787401574803,
                    "duration": 0.05826600000000326
                },
                {
                    "name": "D#4",
                    "midi": 63,
                    "time": 345.51738000000955,
                    "velocity": 0.4094488188976378,
                    "duration": 0.05826600000000326
                },
                {
                    "name": "F4",
                    "midi": 65,
                    "time": 345.57564600000956,
                    "velocity": 0.3858267716535433,
                    "duration": 0.05826600000000326
                },
                {
                    "name": "D#4",
                    "midi": 63,
                    "time": 345.63391200000956,
                    "velocity": 0.4094488188976378,
                    "duration": 0.038843999999983225
                },
                {
                    "name": "F4",
                    "midi": 65,
                    "time": 345.67275600000954,
                    "velocity": 0.3858267716535433,
                    "duration": 0.038843999999983225
                },
                {
                    "name": "D#4",
                    "midi": 63,
                    "time": 345.7116000000095,
                    "velocity": 0.3858267716535433,
                    "duration": 0.038843999999983225
                },
                {
                    "name": "D4",
                    "midi": 62,
                    "time": 345.7504440000095,
                    "velocity": 0.4094488188976378,
                    "duration": 0.05826600000000326
                },
                {
                    "name": "D#4",
                    "midi": 63,
                    "time": 345.8087100000095,
                    "velocity": 0.3779527559055118,
                    "duration": 0.05826600000000326
                },
                {
                    "name": "D4",
                    "midi": 62,
                    "time": 345.8669760000095,
                    "velocity": 0.44881889763779526,
                    "duration": 0.11653200000000652
                },
                {
                    "name": "D4",
                    "midi": 62,
                    "time": 346.1000400000095,
                    "velocity": 0.4015748031496063,
                    "duration": 0.23306400000001304
                },
                {
                    "name": "D#4",
                    "midi": 63,
                    "time": 346.33310400000954,
                    "velocity": 0.41732283464566927,
                    "duration": 0.23306400000001304
                },
                {
                    "name": "F4",
                    "midi": 65,
                    "time": 346.56616800000955,
                    "velocity": 0.4015748031496063,
                    "duration": 0.23306400000001304
                },
                {
                    "name": "F#4",
                    "midi": 66,
                    "time": 346.79923200000957,
                    "velocity": 0.5118110236220472,
                    "duration": 0.23306400000001304
                },
                {
                    "name": "G4",
                    "midi": 67,
                    "time": 347.0322960000096,
                    "velocity": 0.4251968503937008,
                    "duration": 0.4661280000000261
                },
                {
                    "name": "F4",
                    "midi": 65,
                    "time": 347.4984240000096,
                    "velocity": 0.41732283464566927,
                    "duration": 0.11653200000000652
                },
                {
                    "name": "D#4",
                    "midi": 63,
                    "time": 347.6149560000096,
                    "velocity": 0.3937007874015748,
                    "duration": 0.11653200000000652
                },
                {
                    "name": "D4",
                    "midi": 62,
                    "time": 347.7314880000096,
                    "velocity": 0.4251968503937008,
                    "duration": 0.23306400000001304
                },
                {
                    "name": "C4",
                    "midi": 60,
                    "time": 347.96455200000963,
                    "velocity": 0.4015748031496063,
                    "duration": 0.23306400000001304
                },
                {
                    "name": "D4",
                    "midi": 62,
                    "time": 348.19761600000965,
                    "velocity": 0.4094488188976378,
                    "duration": 0.23306400000001304
                },
                {
                    "name": "D#4",
                    "midi": 63,
                    "time": 348.43068000000966,
                    "velocity": 0.4015748031496063,
                    "duration": 0.23306400000001304
                },
                {
                    "name": "G4",
                    "midi": 67,
                    "time": 348.6637440000097,
                    "velocity": 0.49606299212598426,
                    "duration": 0.23306400000001304
                },
                {
                    "name": "F4",
                    "midi": 65,
                    "time": 348.8968080000097,
                    "velocity": 0.41732283464566927,
                    "duration": 0.4661280000000261
                },
                {
                    "name": "D#4",
                    "midi": 63,
                    "time": 349.3629360000097,
                    "velocity": 0.4251968503937008,
                    "duration": 0.11653200000000652
                },
                {
                    "name": "D4",
                    "midi": 62,
                    "time": 349.4794680000097,
                    "velocity": 0.3858267716535433,
                    "duration": 0.11653200000000652
                },
                {
                    "name": "C4",
                    "midi": 60,
                    "time": 349.5960000000097,
                    "velocity": 0.4409448818897638,
                    "duration": 0.23306400000001304
                },
                {
                    "name": "A#3",
                    "midi": 58,
                    "time": 349.82906400000974,
                    "velocity": 0.4094488188976378,
                    "duration": 0.23306400000001304
                },
                {
                    "name": "C4",
                    "midi": 60,
                    "time": 350.06212800000975,
                    "velocity": 0.4251968503937008,
                    "duration": 0.23306400000001304
                },
                {
                    "name": "D4",
                    "midi": 62,
                    "time": 350.29519200000976,
                    "velocity": 0.3937007874015748,
                    "duration": 0.23306400000001304
                },
                {
                    "name": "F4",
                    "midi": 65,
                    "time": 350.5282560000098,
                    "velocity": 0.49606299212598426,
                    "duration": 0.23306400000001304
                },
                {
                    "name": "D#4",
                    "midi": 63,
                    "time": 350.7613200000098,
                    "velocity": 0.4015748031496063,
                    "duration": 0.4661280000000261
                },
                {
                    "name": "C4",
                    "midi": 60,
                    "time": 351.2274480000098,
                    "velocity": 0.4015748031496063,
                    "duration": 0.23306400000001304
                },
                {
                    "name": "D#4",
                    "midi": 63,
                    "time": 351.4605120000098,
                    "velocity": 0.4881889763779528,
                    "duration": 0.23306400000001304
                },
                {
                    "name": "D4",
                    "midi": 62,
                    "time": 351.69357600000984,
                    "velocity": 0.4094488188976378,
                    "duration": 0.4661280000000261
                },
                {
                    "name": "A#3",
                    "midi": 58,
                    "time": 352.15970400000987,
                    "velocity": 0.4094488188976378,
                    "duration": 0.23306400000001304
                },
                {
                    "name": "A3",
                    "midi": 57,
                    "time": 352.3927680000099,
                    "velocity": 0.3779527559055118,
                    "duration": 0.13983840000003056
                },
                {
                    "name": "A#3",
                    "midi": 58,
                    "time": 352.5093000000099,
                    "velocity": 0.3858267716535433,
                    "duration": 0.13983840000003056
                },
                {
                    "name": "B3",
                    "midi": 59,
                    "time": 352.6258320000099,
                    "velocity": 0.3937007874015748,
                    "duration": 0.13983840000003056
                },
                {
                    "name": "C4",
                    "midi": 60,
                    "time": 352.7423640000099,
                    "velocity": 0.4015748031496063,
                    "duration": 0.13983840000003056
                },
                {
                    "name": "C#4",
                    "midi": 61,
                    "time": 352.8588960000099,
                    "velocity": 0.4094488188976378,
                    "duration": 0.13983840000003056
                },
                {
                    "name": "D4",
                    "midi": 62,
                    "time": 352.9754280000099,
                    "velocity": 0.41732283464566927,
                    "duration": 0.13983840000003056
                },
                {
                    "name": "D#4",
                    "midi": 63,
                    "time": 353.0919600000099,
                    "velocity": 0.4251968503937008,
                    "duration": 0.13983840000003056
                },
                {
                    "name": "E4",
                    "midi": 64,
                    "time": 353.2084920000099,
                    "velocity": 0.4251968503937008,
                    "duration": 0.13983840000003056
                },
                {
                    "name": "F4",
                    "midi": 65,
                    "time": 353.32502400000993,
                    "velocity": 0.4409448818897638,
                    "duration": 0.4661280000000261
                },
                {
                    "name": "F4",
                    "midi": 65,
                    "time": 354.25728000001,
                    "velocity": 0.5748031496062992,
                    "duration": 0.6991919999999823
                },
                {
                    "name": "A#4",
                    "midi": 70,
                    "time": 354.25728000001,
                    "velocity": 0.5748031496062992,
                    "duration": 0.6991919999999823
                },
                {
                    "name": "D5",
                    "midi": 74,
                    "time": 354.25728000001,
                    "velocity": 0.5748031496062992,
                    "duration": 0.6991919999999823
                },
                {
                    "name": "F5",
                    "midi": 77,
                    "time": 354.25728000001,
                    "velocity": 0.5748031496062992,
                    "duration": 0.6991919999999823
                },
                {
                    "name": "G5",
                    "midi": 79,
                    "time": 354.95647200000997,
                    "velocity": 0.4015748031496063,
                    "duration": 0.11653200000000652
                },
                {
                    "name": "F5",
                    "midi": 77,
                    "time": 355.07300400001,
                    "velocity": 0.3858267716535433,
                    "duration": 0.11653200000000652
                },
                {
                    "name": "D#5",
                    "midi": 75,
                    "time": 355.18953600001,
                    "velocity": 0.44881889763779526,
                    "duration": 0.11653200000000652
                },
                {
                    "name": "D5",
                    "midi": 74,
                    "time": 355.42260000001,
                    "velocity": 0.3937007874015748,
                    "duration": 0.11653200000000652
                },
                {
                    "name": "C5",
                    "midi": 72,
                    "time": 355.65566400001,
                    "velocity": 0.3937007874015748,
                    "duration": 0.11653200000000652
                },
                {
                    "name": "A#4",
                    "midi": 70,
                    "time": 355.88872800001,
                    "velocity": 0.3700787401574803,
                    "duration": 0.11653200000000652
                },
                {
                    "name": "A#4",
                    "midi": 70,
                    "time": 356.12179200001003,
                    "velocity": 0.41732283464566927,
                    "duration": 0.23306400000001304
                },
                {
                    "name": "G5",
                    "midi": 79,
                    "time": 356.35485600001005,
                    "velocity": 0.3937007874015748,
                    "duration": 0.2233529999999746
                },
                {
                    "name": "A#4",
                    "midi": 70,
                    "time": 356.58792000001,
                    "velocity": 0.5039370078740157,
                    "duration": 0.6991919999999823
                },
                {
                    "name": "G5",
                    "midi": 79,
                    "time": 356.58792000001,
                    "velocity": 0.5590551181102362,
                    "duration": 0.6991919999999823
                },
                {
                    "name": "F5",
                    "midi": 77,
                    "time": 357.28711200001,
                    "velocity": 0.41732283464566927,
                    "duration": 0.23306400000001304
                },
                {
                    "name": "A5",
                    "midi": 81,
                    "time": 357.52017600001,
                    "velocity": 0.5196850393700787,
                    "duration": 0.23306400000001304
                },
                {
                    "name": "A#5",
                    "midi": 82,
                    "time": 357.75324000001,
                    "velocity": 0.49606299212598426,
                    "duration": 0.4661280000000261
                },
                {
                    "name": "C5",
                    "midi": 72,
                    "time": 358.21936800001004,
                    "velocity": 0.41732283464566927,
                    "duration": 0.23306400000001304
                },
                {
                    "name": "D5",
                    "midi": 74,
                    "time": 358.45243200001005,
                    "velocity": 0.41732283464566927,
                    "duration": 0.23306400000001304
                },
                {
                    "name": "A#5",
                    "midi": 82,
                    "time": 358.68549600001006,
                    "velocity": 0.5354330708661418,
                    "duration": 0.4661280000000261
                },
                {
                    "name": "C5",
                    "midi": 72,
                    "time": 359.1516240000101,
                    "velocity": 0.41732283464566927,
                    "duration": 0.23306400000001304
                },
                {
                    "name": "D5",
                    "midi": 74,
                    "time": 359.3846880000101,
                    "velocity": 0.41732283464566927,
                    "duration": 0.23306400000001304
                },
                {
                    "name": "A#5",
                    "midi": 82,
                    "time": 359.6177520000101,
                    "velocity": 0.5275590551181102,
                    "duration": 0.11653200000000652
                },
                {
                    "name": "F5",
                    "midi": 77,
                    "time": 359.8508160000101,
                    "velocity": 0.4251968503937008,
                    "duration": 0.4661280000000261
                },
                {
                    "name": "E5",
                    "midi": 76,
                    "time": 360.31694400001015,
                    "velocity": 0.41732283464566927,
                    "duration": 0.23306400000001304
                },
                {
                    "name": "D#5",
                    "midi": 75,
                    "time": 360.55000800001017,
                    "velocity": 0.41732283464566927,
                    "duration": 0.23306400000001304
                },
                {
                    "name": "D5",
                    "midi": 74,
                    "time": 360.7830720000102,
                    "velocity": 0.3779527559055118,
                    "duration": 0.11653200000000652
                },
                {
                    "name": "D5",
                    "midi": 74,
                    "time": 361.0161360000102,
                    "velocity": 0.4251968503937008,
                    "duration": 0.23306400000001304
                },
                {
                    "name": "D#5",
                    "midi": 75,
                    "time": 361.2492000000102,
                    "velocity": 0.47244094488188976,
                    "duration": 0.23306400000001304
                },
                {
                    "name": "F5",
                    "midi": 77,
                    "time": 361.4822640000102,
                    "velocity": 0.5039370078740157,
                    "duration": 0.23306400000001304
                },
                {
                    "name": "G5",
                    "midi": 79,
                    "time": 361.71532800001023,
                    "velocity": 0.5511811023622047,
                    "duration": 0.6991919999999823
                },
                {
                    "name": "A5",
                    "midi": 81,
                    "time": 362.4145200000102,
                    "velocity": 0.5511811023622047,
                    "duration": 0.11653200000000652
                },
                {
                    "name": "B5",
                    "midi": 83,
                    "time": 362.5310520000102,
                    "velocity": 0.5275590551181102,
                    "duration": 0.11653200000000652
                },
                {
                    "name": "C6",
                    "midi": 84,
                    "time": 362.6475840000102,
                    "velocity": 0.5511811023622047,
                    "duration": 0.11653200000000652
                },
                {
                    "name": "D6",
                    "midi": 86,
                    "time": 362.76411600001023,
                    "velocity": 0.5275590551181102,
                    "duration": 0.11653200000000652
                },
                {
                    "name": "D#6",
                    "midi": 87,
                    "time": 362.88064800001024,
                    "velocity": 0.5511811023622047,
                    "duration": 0.11653200000000652
                },
                {
                    "name": "D6",
                    "midi": 86,
                    "time": 362.99718000001025,
                    "velocity": 0.5196850393700787,
                    "duration": 0.11653200000000652
                },
                {
                    "name": "C6",
                    "midi": 84,
                    "time": 363.11371200001025,
                    "velocity": 0.5511811023622047,
                    "duration": 0.11653200000000652
                },
                {
                    "name": "D6",
                    "midi": 86,
                    "time": 363.23024400001026,
                    "velocity": 0.5275590551181102,
                    "duration": 0.11653200000000652
                },
                {
                    "name": "A#5",
                    "midi": 82,
                    "time": 363.34677600001027,
                    "velocity": 0.5511811023622047,
                    "duration": 0.11653200000000652
                },
                {
                    "name": "C6",
                    "midi": 84,
                    "time": 363.4633080000103,
                    "velocity": 0.5275590551181102,
                    "duration": 0.11653200000000652
                },
                {
                    "name": "A5",
                    "midi": 81,
                    "time": 363.5798400000103,
                    "velocity": 0.5433070866141733,
                    "duration": 0.11653200000000652
                },
                {
                    "name": "A#5",
                    "midi": 82,
                    "time": 363.6963720000103,
                    "velocity": 0.5196850393700787,
                    "duration": 0.11653200000000652
                },
                {
                    "name": "G5",
                    "midi": 79,
                    "time": 363.8129040000103,
                    "velocity": 0.5433070866141733,
                    "duration": 0.11653200000000652
                },
                {
                    "name": "A5",
                    "midi": 81,
                    "time": 363.9294360000103,
                    "velocity": 0.5039370078740157,
                    "duration": 0.11653200000000652
                },
                {
                    "name": "F5",
                    "midi": 77,
                    "time": 364.0459680000103,
                    "velocity": 0.5590551181102362,
                    "duration": 0.11653200000000652
                },
                {
                    "name": "G5",
                    "midi": 79,
                    "time": 364.1625000000103,
                    "velocity": 0.5275590551181102,
                    "duration": 0.11653200000000652
                },
                {
                    "name": "D#5",
                    "midi": 75,
                    "time": 364.2790320000103,
                    "velocity": 0.5590551181102362,
                    "duration": 0.11653200000000652
                },
                {
                    "name": "F5",
                    "midi": 77,
                    "time": 364.3955640000103,
                    "velocity": 0.5275590551181102,
                    "duration": 0.11653200000000652
                },
                {
                    "name": "D5",
                    "midi": 74,
                    "time": 364.51209600001033,
                    "velocity": 0.5354330708661418,
                    "duration": 0.11653200000000652
                },
                {
                    "name": "D#5",
                    "midi": 75,
                    "time": 364.62862800001034,
                    "velocity": 0.5039370078740157,
                    "duration": 0.11653200000000652
                },
                {
                    "name": "F5",
                    "midi": 77,
                    "time": 364.74516000001034,
                    "velocity": 0.5354330708661418,
                    "duration": 0.11653200000000652
                },
                {
                    "name": "G5",
                    "midi": 79,
                    "time": 364.86169200001035,
                    "velocity": 0.5118110236220472,
                    "duration": 0.11653200000000652
                },
                {
                    "name": "A5",
                    "midi": 81,
                    "time": 364.97822400001036,
                    "velocity": 0.5511811023622047,
                    "duration": 0.11653200000000652
                },
                {
                    "name": "A#5",
                    "midi": 82,
                    "time": 365.09475600001036,
                    "velocity": 0.5196850393700787,
                    "duration": 0.11653200000000652
                },
                {
                    "name": "A5",
                    "midi": 81,
                    "time": 365.21128800001037,
                    "velocity": 0.5433070866141733,
                    "duration": 0.11653200000000652
                },
                {
                    "name": "A#5",
                    "midi": 82,
                    "time": 365.3278200000104,
                    "velocity": 0.5118110236220472,
                    "duration": 0.11653200000000652
                },
                {
                    "name": "C6",
                    "midi": 84,
                    "time": 365.4443520000104,
                    "velocity": 0.5669291338582677,
                    "duration": 0.11653200000000652
                },
                {
                    "name": "A#5",
                    "midi": 82,
                    "time": 365.5608840000104,
                    "velocity": 0.5511811023622047,
                    "duration": 0.11653200000000652
                },
                {
                    "name": "A5",
                    "midi": 81,
                    "time": 365.6774160000104,
                    "velocity": 0.5433070866141733,
                    "duration": 0.11653200000000652
                },
                {
                    "name": "G5",
                    "midi": 79,
                    "time": 365.7939480000104,
                    "velocity": 0.5275590551181102,
                    "duration": 0.11653200000000652
                },
                {
                    "name": "A5",
                    "midi": 81,
                    "time": 365.9104800000104,
                    "velocity": 0.5669291338582677,
                    "duration": 0.11653200000000652
                },
                {
                    "name": "G5",
                    "midi": 79,
                    "time": 366.0270120000104,
                    "velocity": 0.5511811023622047,
                    "duration": 0.11653200000000652
                },
                {
                    "name": "F5",
                    "midi": 77,
                    "time": 366.1435440000104,
                    "velocity": 0.5433070866141733,
                    "duration": 0.11653200000000652
                },
                {
                    "name": "D#5",
                    "midi": 75,
                    "time": 366.26007600001043,
                    "velocity": 0.5275590551181102,
                    "duration": 0.11653200000000652
                },
                {
                    "name": "D5",
                    "midi": 74,
                    "time": 366.37660800001044,
                    "velocity": 0.5590551181102362,
                    "duration": 0.4661280000000261
                },
                {
                    "name": "C5",
                    "midi": 72,
                    "time": 366.84273600001046,
                    "velocity": 0.4566929133858268,
                    "duration": 0.05826600000000326
                },
                {
                    "name": "A4",
                    "midi": 69,
                    "time": 366.84273600001046,
                    "velocity": 0.4566929133858268,
                    "duration": 0.46612799999996923
                },
                {
                    "name": "D5",
                    "midi": 74,
                    "time": 366.90100200001046,
                    "velocity": 0.4251968503937008,
                    "duration": 0.05826600000000326
                },
                {
                    "name": "C5",
                    "midi": 72,
                    "time": 366.95926800001047,
                    "velocity": 0.4566929133858268,
                    "duration": 0.05826600000000326
                },
                {
                    "name": "D5",
                    "midi": 74,
                    "time": 367.01753400001047,
                    "velocity": 0.41732283464566927,
                    "duration": 0.05826600000000326
                },
                {
                    "name": "C5",
                    "midi": 72,
                    "time": 367.0758000000105,
                    "velocity": 0.4566929133858268,
                    "duration": 0.038843999999983225
                },
                {
                    "name": "D5",
                    "midi": 74,
                    "time": 367.11464400001046,
                    "velocity": 0.4251968503937008,
                    "duration": 0.038843999999983225
                },
                {
                    "name": "C5",
                    "midi": 72,
                    "time": 367.15348800001044,
                    "velocity": 0.4251968503937008,
                    "duration": 0.038843999999983225
                },
                {
                    "name": "A#4",
                    "midi": 70,
                    "time": 367.1923320000104,
                    "velocity": 0.5196850393700787,
                    "duration": 0.05826600000000326
                },
                {
                    "name": "C5",
                    "midi": 72,
                    "time": 367.2505980000104,
                    "velocity": 0.4881889763779528,
                    "duration": 0.05826600000000326
                },
                {
                    "name": "A#4",
                    "midi": 70,
                    "time": 367.30886400001043,
                    "velocity": 0.5905511811023622,
                    "duration": 0.4661280000000261
                },
                {
                    "name": "D#5",
                    "midi": 75,
                    "time": 369.1733760000105,
                    "velocity": 0.6692913385826772,
                    "duration": 0.23306400000001304
                },
                {
                    "name": "C5",
                    "midi": 72,
                    "time": 369.4064400000105,
                    "velocity": 0.4409448818897638,
                    "duration": 0.11653200000000652
                },
                {
                    "name": "A4",
                    "midi": 69,
                    "time": 369.6395040000105,
                    "velocity": 0.4881889763779528,
                    "duration": 0.11653200000000652
                },
                {
                    "name": "A4",
                    "midi": 69,
                    "time": 369.8725680000105,
                    "velocity": 0.4409448818897638,
                    "duration": 0.11653200000000652
                },
                {
                    "name": "D#5",
                    "midi": 75,
                    "time": 370.10563200001053,
                    "velocity": 0.6692913385826772,
                    "duration": 0.23306400000001304
                },
                {
                    "name": "C5",
                    "midi": 72,
                    "time": 370.33869600001054,
                    "velocity": 0.4251968503937008,
                    "duration": 0.11653200000000652
                },
                {
                    "name": "A4",
                    "midi": 69,
                    "time": 370.57176000001056,
                    "velocity": 0.47244094488188976,
                    "duration": 0.11653200000000652
                },
                {
                    "name": "A4",
                    "midi": 69,
                    "time": 370.80482400001057,
                    "velocity": 0.4251968503937008,
                    "duration": 0.11653200000000652
                },
                {
                    "name": "A#4",
                    "midi": 70,
                    "time": 371.0378880000106,
                    "velocity": 0.4881889763779528,
                    "duration": 0.11653200000000652
                },
                {
                    "name": "C5",
                    "midi": 72,
                    "time": 371.2709520000106,
                    "velocity": 0.49606299212598426,
                    "duration": 0.11653200000000652
                },
                {
                    "name": "D5",
                    "midi": 74,
                    "time": 371.5040160000106,
                    "velocity": 0.5039370078740157,
                    "duration": 0.11653200000000652
                },
                {
                    "name": "D#5",
                    "midi": 75,
                    "time": 371.7370800000106,
                    "velocity": 0.5196850393700787,
                    "duration": 0.11653200000000652
                },
                {
                    "name": "E5",
                    "midi": 76,
                    "time": 371.97014400001063,
                    "velocity": 0.6929133858267716,
                    "duration": 0.23306400000001304
                },
                {
                    "name": "F5",
                    "midi": 77,
                    "time": 372.20320800001065,
                    "velocity": 0.5905511811023622,
                    "duration": 0.23306400000001304
                },
                {
                    "name": "E5",
                    "midi": 76,
                    "time": 372.43627200001066,
                    "velocity": 0.6850393700787402,
                    "duration": 0.23306400000001304
                },
                {
                    "name": "F5",
                    "midi": 77,
                    "time": 372.6693360000107,
                    "velocity": 0.5905511811023622,
                    "duration": 0.23306400000001304
                },
                {
                    "name": "D#6",
                    "midi": 87,
                    "time": 372.9024000000107,
                    "velocity": 0.7637795275590551,
                    "duration": 0.23306400000001304
                },
                {
                    "name": "D#5",
                    "midi": 75,
                    "time": 372.9024000000107,
                    "velocity": 0.6456692913385826,
                    "duration": 0.23306400000001304
                },
                {
                    "name": "C6",
                    "midi": 84,
                    "time": 373.1354640000107,
                    "velocity": 0.44881889763779526,
                    "duration": 0.11653200000000652
                },
                {
                    "name": "C5",
                    "midi": 72,
                    "time": 373.1354640000107,
                    "velocity": 0.3779527559055118,
                    "duration": 0.11653200000000652
                },
                {
                    "name": "A5",
                    "midi": 81,
                    "time": 373.3685280000107,
                    "velocity": 0.4881889763779528,
                    "duration": 0.11653200000000652
                },
                {
                    "name": "A4",
                    "midi": 69,
                    "time": 373.3685280000107,
                    "velocity": 0.4094488188976378,
                    "duration": 0.11653200000000652
                },
                {
                    "name": "A5",
                    "midi": 81,
                    "time": 373.6015920000107,
                    "velocity": 0.4409448818897638,
                    "duration": 0.11653200000000652
                },
                {
                    "name": "A4",
                    "midi": 69,
                    "time": 373.6015920000107,
                    "velocity": 0.3700787401574803,
                    "duration": 0.11653200000000652
                },
                {
                    "name": "D#6",
                    "midi": 87,
                    "time": 373.83465600001074,
                    "velocity": 0.7637795275590551,
                    "duration": 0.23306400000001304
                },
                {
                    "name": "D#5",
                    "midi": 75,
                    "time": 373.83465600001074,
                    "velocity": 0.6456692913385826,
                    "duration": 0.23306400000001304
                },
                {
                    "name": "C6",
                    "midi": 84,
                    "time": 374.06772000001075,
                    "velocity": 0.4251968503937008,
                    "duration": 0.11653200000000652
                },
                {
                    "name": "C5",
                    "midi": 72,
                    "time": 374.06772000001075,
                    "velocity": 0.3543307086614173,
                    "duration": 0.11653200000000652
                },
                {
                    "name": "A5",
                    "midi": 81,
                    "time": 374.30078400001076,
                    "velocity": 0.47244094488188976,
                    "duration": 0.11653200000000652
                },
                {
                    "name": "A4",
                    "midi": 69,
                    "time": 374.30078400001076,
                    "velocity": 0.4015748031496063,
                    "duration": 0.11653200000000652
                },
                {
                    "name": "A5",
                    "midi": 81,
                    "time": 374.5338480000108,
                    "velocity": 0.4251968503937008,
                    "duration": 0.11653200000000652
                },
                {
                    "name": "A4",
                    "midi": 69,
                    "time": 374.5338480000108,
                    "velocity": 0.3543307086614173,
                    "duration": 0.11653200000000652
                },
                {
                    "name": "A#5",
                    "midi": 82,
                    "time": 374.7669120000108,
                    "velocity": 0.4881889763779528,
                    "duration": 0.11653200000000652
                },
                {
                    "name": "A#4",
                    "midi": 70,
                    "time": 374.7669120000108,
                    "velocity": 0.4094488188976378,
                    "duration": 0.11653200000000652
                },
                {
                    "name": "C6",
                    "midi": 84,
                    "time": 374.9999760000108,
                    "velocity": 0.49606299212598426,
                    "duration": 0.11653200000000652
                },
                {
                    "name": "C5",
                    "midi": 72,
                    "time": 374.9999760000108,
                    "velocity": 0.41732283464566927,
                    "duration": 0.11653200000000652
                },
                {
                    "name": "D6",
                    "midi": 86,
                    "time": 375.2330400000108,
                    "velocity": 0.5039370078740157,
                    "duration": 0.11653200000000652
                },
                {
                    "name": "D5",
                    "midi": 74,
                    "time": 375.2330400000108,
                    "velocity": 0.4251968503937008,
                    "duration": 0.11653200000000652
                },
                {
                    "name": "D#6",
                    "midi": 87,
                    "time": 375.46610400001083,
                    "velocity": 0.5196850393700787,
                    "duration": 0.11653200000000652
                },
                {
                    "name": "D#5",
                    "midi": 75,
                    "time": 375.46610400001083,
                    "velocity": 0.4409448818897638,
                    "duration": 0.11653200000000652
                },
                {
                    "name": "E6",
                    "midi": 88,
                    "time": 375.69916800001084,
                    "velocity": 0.7086614173228346,
                    "duration": 0.23306400000001304
                },
                {
                    "name": "E5",
                    "midi": 76,
                    "time": 375.69916800001084,
                    "velocity": 0.5984251968503937,
                    "duration": 0.23306400000001304
                },
                {
                    "name": "F6",
                    "midi": 89,
                    "time": 375.93223200001086,
                    "velocity": 0.5905511811023622,
                    "duration": 0.23306400000001304
                },
                {
                    "name": "F5",
                    "midi": 77,
                    "time": 375.93223200001086,
                    "velocity": 0.49606299212598426,
                    "duration": 0.23306400000001304
                },
                {
                    "name": "E6",
                    "midi": 88,
                    "time": 376.16529600001087,
                    "velocity": 0.7165354330708661,
                    "duration": 0.23306400000001304
                },
                {
                    "name": "E5",
                    "midi": 76,
                    "time": 376.16529600001087,
                    "velocity": 0.6062992125984252,
                    "duration": 0.23306400000001304
                },
                {
                    "name": "F6",
                    "midi": 89,
                    "time": 376.3983600000109,
                    "velocity": 0.5905511811023622,
                    "duration": 0.23306400000001304
                },
                {
                    "name": "F5",
                    "midi": 77,
                    "time": 376.3983600000109,
                    "velocity": 0.49606299212598426,
                    "duration": 0.23306400000001304
                },
                {
                    "name": "G4",
                    "midi": 67,
                    "time": 376.6314240000109,
                    "velocity": 0.4409448818897638,
                    "duration": 0.9322559999999953
                },
                {
                    "name": "G5",
                    "midi": 79,
                    "time": 376.6314240000109,
                    "velocity": 0.5196850393700787,
                    "duration": 0.9322559999999953
                },
                {
                    "name": "A3",
                    "midi": 57,
                    "time": 377.5636800000109,
                    "velocity": 0.3543307086614173,
                    "duration": 0.9322559999999953
                },
                {
                    "name": "A4",
                    "midi": 69,
                    "time": 377.5636800000109,
                    "velocity": 0.4251968503937008,
                    "duration": 0.9322559999999953
                },
                {
                    "name": "D#5",
                    "midi": 75,
                    "time": 378.4959360000109,
                    "velocity": 0.5118110236220472,
                    "duration": 0.9322559999999953
                },
                {
                    "name": "D#6",
                    "midi": 87,
                    "time": 378.4959360000109,
                    "velocity": 0.6062992125984252,
                    "duration": 0.9322559999999953
                },
                {
                    "name": "D5",
                    "midi": 74,
                    "time": 379.4281920000109,
                    "velocity": 0.44881889763779526,
                    "duration": 0.9322559999999953
                },
                {
                    "name": "D6",
                    "midi": 86,
                    "time": 379.4281920000109,
                    "velocity": 0.5354330708661418,
                    "duration": 0.9322559999999953
                },
                {
                    "name": "D6",
                    "midi": 86,
                    "time": 380.3604480000109,
                    "velocity": 0.5905511811023622,
                    "duration": 0.13983840000003056
                },
                {
                    "name": "C6",
                    "midi": 84,
                    "time": 380.4769800000109,
                    "velocity": 0.5354330708661418,
                    "duration": 0.13983840000003056
                },
                {
                    "name": "D#6",
                    "midi": 87,
                    "time": 380.5935120000109,
                    "velocity": 0.5669291338582677,
                    "duration": 0.13983840000003056
                },
                {
                    "name": "D6",
                    "midi": 86,
                    "time": 380.7100440000109,
                    "velocity": 0.5275590551181102,
                    "duration": 0.13983840000003056
                },
                {
                    "name": "F6",
                    "midi": 89,
                    "time": 380.8265760000109,
                    "velocity": 0.5905511811023622,
                    "duration": 0.13983840000003056
                },
                {
                    "name": "D#6",
                    "midi": 87,
                    "time": 380.9431080000109,
                    "velocity": 0.5590551181102362,
                    "duration": 0.13983840000003056
                },
                {
                    "name": "D6",
                    "midi": 86,
                    "time": 381.0596400000109,
                    "velocity": 0.5669291338582677,
                    "duration": 0.13983840000003056
                },
                {
                    "name": "C6",
                    "midi": 84,
                    "time": 381.1761720000109,
                    "velocity": 0.5354330708661418,
                    "duration": 0.13983840000003056
                },
                {
                    "name": "A#5",
                    "midi": 82,
                    "time": 381.29270400001093,
                    "velocity": 0.5905511811023622,
                    "duration": 0.4661280000000261
                },
                {
                    "name": "A5",
                    "midi": 81,
                    "time": 381.75883200001095,
                    "velocity": 0.49606299212598426,
                    "duration": 0.4661280000000261
                },
                {
                    "name": "A#5",
                    "midi": 82,
                    "time": 382.458024000011,
                    "velocity": 0.3700787401574803,
                    "duration": 0.23306400000001304
                },
                {
                    "name": "A5",
                    "midi": 81,
                    "time": 382.691088000011,
                    "velocity": 0.3937007874015748,
                    "duration": 0.23306400000001304
                },
                {
                    "name": "A#5",
                    "midi": 82,
                    "time": 382.924152000011,
                    "velocity": 0.3700787401574803,
                    "duration": 0.23306400000001304
                },
                {
                    "name": "G#5",
                    "midi": 80,
                    "time": 383.39028000001105,
                    "velocity": 0.36220472440944884,
                    "duration": 0.23306400000001304
                },
                {
                    "name": "G5",
                    "midi": 79,
                    "time": 383.62334400001106,
                    "velocity": 0.4015748031496063,
                    "duration": 0.23306400000001304
                },
                {
                    "name": "G#5",
                    "midi": 80,
                    "time": 383.8564080000111,
                    "velocity": 0.36220472440944884,
                    "duration": 0.23306400000001304
                },
                {
                    "name": "G5",
                    "midi": 79,
                    "time": 384.3225360000111,
                    "velocity": 0.3464566929133858,
                    "duration": 0.23306400000001304
                },
                {
                    "name": "F#5",
                    "midi": 78,
                    "time": 384.5556000000111,
                    "velocity": 0.3779527559055118,
                    "duration": 0.23306400000001304
                },
                {
                    "name": "G5",
                    "midi": 79,
                    "time": 384.7886640000111,
                    "velocity": 0.3543307086614173,
                    "duration": 0.23306400000001304
                },
                {
                    "name": "G5",
                    "midi": 79,
                    "time": 385.25479200001115,
                    "velocity": 0.3464566929133858,
                    "duration": 0.23306400000001304
                },
                {
                    "name": "G6",
                    "midi": 91,
                    "time": 385.48785600001116,
                    "velocity": 0.4015748031496063,
                    "duration": 0.23306400000001304
                },
                {
                    "name": "G6",
                    "midi": 91,
                    "time": 385.7209200000112,
                    "velocity": 0.3779527559055118,
                    "duration": 0.11653200000000652
                },
                {
                    "name": "G6",
                    "midi": 91,
                    "time": 386.1870480000112,
                    "velocity": 0.3937007874015748,
                    "duration": 0.23306400000001304
                },
                {
                    "name": "F5",
                    "midi": 77,
                    "time": 386.4201120000112,
                    "velocity": 0.3464566929133858,
                    "duration": 0.23306400000001304
                },
                {
                    "name": "F5",
                    "midi": 77,
                    "time": 386.65317600001123,
                    "velocity": 0.3464566929133858,
                    "duration": 0.11653200000000652
                },
                {
                    "name": "F5",
                    "midi": 77,
                    "time": 387.11930400001125,
                    "velocity": 0.36220472440944884,
                    "duration": 0.23306400000001304
                },
                {
                    "name": "D6",
                    "midi": 86,
                    "time": 387.35236800001127,
                    "velocity": 0.4015748031496063,
                    "duration": 0.23306400000001304
                },
                {
                    "name": "D6",
                    "midi": 86,
                    "time": 387.5854320000113,
                    "velocity": 0.3779527559055118,
                    "duration": 0.11653200000000652
                },
                {
                    "name": "D6",
                    "midi": 86,
                    "time": 388.0515600000113,
                    "velocity": 0.3858267716535433,
                    "duration": 0.23306400000001304
                },
                {
                    "name": "D#5",
                    "midi": 75,
                    "time": 388.2846240000113,
                    "velocity": 0.3543307086614173,
                    "duration": 0.23306400000001304
                },
                {
                    "name": "D#5",
                    "midi": 75,
                    "time": 388.51768800001133,
                    "velocity": 0.3543307086614173,
                    "duration": 0.11653200000000652
                },
                {
                    "name": "D#5",
                    "midi": 75,
                    "time": 388.98381600001136,
                    "velocity": 0.3464566929133858,
                    "duration": 0.23306400000001304
                },
                {
                    "name": "C6",
                    "midi": 84,
                    "time": 389.2168800000114,
                    "velocity": 0.3937007874015748,
                    "duration": 0.23306400000001304
                },
                {
                    "name": "C6",
                    "midi": 84,
                    "time": 389.4499440000114,
                    "velocity": 0.3700787401574803,
                    "duration": 0.11653200000000652
                },
                {
                    "name": "C6",
                    "midi": 84,
                    "time": 389.9160720000114,
                    "velocity": 0.3779527559055118,
                    "duration": 0.23306400000001304
                },
                {
                    "name": "D5",
                    "midi": 74,
                    "time": 390.1491360000114,
                    "velocity": 0.3464566929133858,
                    "duration": 0.23306400000001304
                },
                {
                    "name": "D5",
                    "midi": 74,
                    "time": 390.38220000001144,
                    "velocity": 0.3464566929133858,
                    "duration": 0.11653200000000652
                },
                {
                    "name": "D5",
                    "midi": 74,
                    "time": 390.84832800001146,
                    "velocity": 0.3464566929133858,
                    "duration": 0.23306400000001304
                },
                {
                    "name": "A#5",
                    "midi": 82,
                    "time": 391.0813920000115,
                    "velocity": 0.3858267716535433,
                    "duration": 0.23306400000001304
                },
                {
                    "name": "A#5",
                    "midi": 82,
                    "time": 391.3144560000115,
                    "velocity": 0.36220472440944884,
                    "duration": 0.11653200000000652
                },
                {
                    "name": "A#5",
                    "midi": 82,
                    "time": 391.5475200000115,
                    "velocity": 0.4251968503937008,
                    "duration": 0.23306400000001304
                },
                {
                    "name": "C5",
                    "midi": 72,
                    "time": 391.7805840000115,
                    "velocity": 0.3464566929133858,
                    "duration": 0.11653200000000652
                },
                {
                    "name": "A#5",
                    "midi": 82,
                    "time": 392.4797760000115,
                    "velocity": 0.49606299212598426,
                    "duration": 0.23306400000001304
                },
                {
                    "name": "D5",
                    "midi": 74,
                    "time": 392.7128400000115,
                    "velocity": 0.4094488188976378,
                    "duration": 0.11653200000000652
                },
                {
                    "name": "A#5",
                    "midi": 82,
                    "time": 393.4120320000115,
                    "velocity": 0.5433070866141733,
                    "duration": 0.23306400000001304
                },
                {
                    "name": "D#5",
                    "midi": 75,
                    "time": 393.6450960000115,
                    "velocity": 0.4251968503937008,
                    "duration": 0.11653200000000652
                },
                {
                    "name": "A#5",
                    "midi": 82,
                    "time": 394.3442880000115,
                    "velocity": 0.6377952755905512,
                    "duration": 0.23306400000001304
                },
                {
                    "name": "E5",
                    "midi": 76,
                    "time": 394.5773520000115,
                    "velocity": 0.5275590551181102,
                    "duration": 0.11653200000000652
                },
                {
                    "name": "A#5",
                    "midi": 82,
                    "time": 395.2765440000115,
                    "velocity": 0.7007874015748031,
                    "duration": 0.23306400000001304
                },
                {
                    "name": "F5",
                    "midi": 77,
                    "time": 395.5096080000115,
                    "velocity": 0.6535433070866141,
                    "duration": 0.11653200000000652
                },
                {
                    "name": "A#5",
                    "midi": 82,
                    "time": 395.7426720000115,
                    "velocity": 0.7007874015748031,
                    "duration": 0.23306400000001304
                },
                {
                    "name": "F#5",
                    "midi": 78,
                    "time": 395.9757360000115,
                    "velocity": 0.6535433070866141,
                    "duration": 0.11653200000000652
                },
                {
                    "name": "A#5",
                    "midi": 82,
                    "time": 396.20880000001154,
                    "velocity": 0.7007874015748031,
                    "duration": 0.23306400000001304
                },
                {
                    "name": "G5",
                    "midi": 79,
                    "time": 396.44186400001155,
                    "velocity": 0.6692913385826772,
                    "duration": 0.23306400000001304
                },
                {
                    "name": "D#6",
                    "midi": 87,
                    "time": 396.67492800001156,
                    "velocity": 0.7007874015748031,
                    "duration": 0.23306400000001304
                },
                {
                    "name": "A5",
                    "midi": 81,
                    "time": 396.9079920000116,
                    "velocity": 0.6692913385826772,
                    "duration": 0.23306400000001304
                },
                {
                    "name": "D6",
                    "midi": 86,
                    "time": 397.1410560000116,
                    "velocity": 0.6456692913385826,
                    "duration": 0.04661279999999124
                },
                {
                    "name": "D#6",
                    "midi": 87,
                    "time": 397.1876688000116,
                    "velocity": 0.6377952755905512,
                    "duration": 0.04661279999999124
                },
                {
                    "name": "D6",
                    "midi": 86,
                    "time": 397.23428160001157,
                    "velocity": 0.6692913385826772,
                    "duration": 0.04661279999999124
                },
                {
                    "name": "D#6",
                    "midi": 87,
                    "time": 397.28089440001156,
                    "velocity": 0.6141732283464567,
                    "duration": 0.04661279999999124
                },
                {
                    "name": "D6",
                    "midi": 86,
                    "time": 397.32750720001155,
                    "velocity": 0.6141732283464567,
                    "duration": 0.04661279999999124
                },
                {
                    "name": "F6",
                    "midi": 89,
                    "time": 397.37412000001154,
                    "velocity": 0.7401574803149606,
                    "duration": 0.23306400000001304
                },
                {
                    "name": "A#5",
                    "midi": 82,
                    "time": 397.60718400001156,
                    "velocity": 0.6377952755905512,
                    "duration": 0.04661279999999124
                },
                {
                    "name": "C6",
                    "midi": 84,
                    "time": 397.65379680001155,
                    "velocity": 0.5984251968503937,
                    "duration": 0.04661279999999124
                },
                {
                    "name": "A#5",
                    "midi": 82,
                    "time": 397.70040960001154,
                    "velocity": 0.6377952755905512,
                    "duration": 0.04661279999999124
                },
                {
                    "name": "C6",
                    "midi": 84,
                    "time": 397.74702240001153,
                    "velocity": 0.5905511811023622,
                    "duration": 0.04661279999999124
                },
                {
                    "name": "A#5",
                    "midi": 82,
                    "time": 397.7936352000115,
                    "velocity": 0.5905511811023622,
                    "duration": 0.04661279999999124
                },
                {
                    "name": "D6",
                    "midi": 86,
                    "time": 397.8402480000115,
                    "velocity": 0.7244094488188977,
                    "duration": 0.23306400000001304
                },
                {
                    "name": "G5",
                    "midi": 79,
                    "time": 398.0733120000115,
                    "velocity": 0.5905511811023622,
                    "duration": 0.04661279999999124
                },
                {
                    "name": "A5",
                    "midi": 81,
                    "time": 398.1199248000115,
                    "velocity": 0.5433070866141733,
                    "duration": 0.04661279999999124
                },
                {
                    "name": "G5",
                    "midi": 79,
                    "time": 398.1665376000115,
                    "velocity": 0.5905511811023622,
                    "duration": 0.04661279999999124
                },
                {
                    "name": "A5",
                    "midi": 81,
                    "time": 398.2131504000115,
                    "velocity": 0.5590551181102362,
                    "duration": 0.04661279999999124
                },
                {
                    "name": "G5",
                    "midi": 79,
                    "time": 398.2636476000115,
                    "velocity": 0.5590551181102362,
                    "duration": 0.04272839999998723
                },
                {
                    "name": "A#5",
                    "midi": 82,
                    "time": 398.3063760000115,
                    "velocity": 0.6929133858267716,
                    "duration": 0.23306400000001304
                },
                {
                    "name": "C5",
                    "midi": 72,
                    "time": 398.5394400000115,
                    "velocity": 0.5590551181102362,
                    "duration": 0.04661279999999124
                },
                {
                    "name": "D5",
                    "midi": 74,
                    "time": 398.5860528000115,
                    "velocity": 0.5196850393700787,
                    "duration": 0.04661279999999124
                },
                {
                    "name": "C5",
                    "midi": 72,
                    "time": 398.6326656000115,
                    "velocity": 0.5590551181102362,
                    "duration": 0.04661279999999124
                },
                {
                    "name": "D5",
                    "midi": 74,
                    "time": 398.67927840001147,
                    "velocity": 0.5275590551181102,
                    "duration": 0.04661279999999124
                },
                {
                    "name": "C5",
                    "midi": 72,
                    "time": 398.72589120001146,
                    "velocity": 0.5275590551181102,
                    "duration": 0.04661279999999124
                },
                {
                    "name": "D#5",
                    "midi": 75,
                    "time": 398.77250400001145,
                    "velocity": 0.6220472440944882,
                    "duration": 0.23306400000001304
                },
                {
                    "name": "F4",
                    "midi": 65,
                    "time": 399.00556800001146,
                    "velocity": 0.5826771653543307,
                    "duration": 0.05826600000000326
                },
                {
                    "name": "F5",
                    "midi": 77,
                    "time": 399.12210000001147,
                    "velocity": 0.5984251968503937,
                    "duration": 0.13983840000003056
                },
                {
                    "name": "G5",
                    "midi": 79,
                    "time": 399.2386320000115,
                    "velocity": 0.6141732283464567,
                    "duration": 0.13983840000003056
                },
                {
                    "name": "F5",
                    "midi": 77,
                    "time": 399.3551640000115,
                    "velocity": 0.5984251968503937,
                    "duration": 0.13983840000003056
                },
                {
                    "name": "D#5",
                    "midi": 75,
                    "time": 399.4716960000115,
                    "velocity": 0.5984251968503937,
                    "duration": 0.13983840000003056
                },
                {
                    "name": "D5",
                    "midi": 74,
                    "time": 399.5882280000115,
                    "velocity": 0.5590551181102362,
                    "duration": 0.13983840000003056
                },
                {
                    "name": "C5",
                    "midi": 72,
                    "time": 399.7047600000115,
                    "velocity": 0.5669291338582677,
                    "duration": 0.13983840000003056
                },
                {
                    "name": "A#4",
                    "midi": 70,
                    "time": 399.8212920000115,
                    "velocity": 0.5511811023622047,
                    "duration": 0.13983840000003056
                },
                {
                    "name": "C5",
                    "midi": 72,
                    "time": 399.9378240000115,
                    "velocity": 0.4251968503937008,
                    "duration": 0.05826600000000326
                },
                {
                    "name": "D5",
                    "midi": 74,
                    "time": 399.9960900000115,
                    "velocity": 0.3937007874015748,
                    "duration": 0.05826600000000326
                },
                {
                    "name": "C5",
                    "midi": 72,
                    "time": 400.0543560000115,
                    "velocity": 0.4251968503937008,
                    "duration": 0.05826600000000326
                },
                {
                    "name": "D5",
                    "midi": 74,
                    "time": 400.1126220000115,
                    "velocity": 0.3858267716535433,
                    "duration": 0.05826600000000326
                },
                {
                    "name": "C5",
                    "midi": 72,
                    "time": 400.17088800001153,
                    "velocity": 0.4251968503937008,
                    "duration": 0.05826600000000326
                },
                {
                    "name": "D5",
                    "midi": 74,
                    "time": 400.22915400001153,
                    "velocity": 0.3858267716535433,
                    "duration": 0.05826600000000326
                },
                {
                    "name": "C5",
                    "midi": 72,
                    "time": 400.28742000001154,
                    "velocity": 0.4251968503937008,
                    "duration": 0.05826600000000326
                },
                {
                    "name": "D5",
                    "midi": 74,
                    "time": 400.34568600001154,
                    "velocity": 0.3858267716535433,
                    "duration": 0.05826600000000326
                },
                {
                    "name": "C5",
                    "midi": 72,
                    "time": 400.40395200001154,
                    "velocity": 0.4251968503937008,
                    "duration": 0.05826600000000326
                },
                {
                    "name": "D5",
                    "midi": 74,
                    "time": 400.46221800001155,
                    "velocity": 0.3858267716535433,
                    "duration": 0.05826600000000326
                },
                {
                    "name": "C5",
                    "midi": 72,
                    "time": 400.52048400001155,
                    "velocity": 0.4251968503937008,
                    "duration": 0.05826600000000326
                },
                {
                    "name": "D5",
                    "midi": 74,
                    "time": 400.57875000001155,
                    "velocity": 0.4015748031496063,
                    "duration": 0.05826600000000326
                },
                {
                    "name": "C5",
                    "midi": 72,
                    "time": 400.63701600001156,
                    "velocity": 0.4251968503937008,
                    "duration": 0.038843999999983225
                },
                {
                    "name": "D5",
                    "midi": 74,
                    "time": 400.67586000001154,
                    "velocity": 0.3937007874015748,
                    "duration": 0.038843999999983225
                },
                {
                    "name": "C5",
                    "midi": 72,
                    "time": 400.7147040000115,
                    "velocity": 0.3937007874015748,
                    "duration": 0.038843999999983225
                },
                {
                    "name": "A#4",
                    "midi": 70,
                    "time": 400.7535480000115,
                    "velocity": 0.5196850393700787,
                    "duration": 0.05826600000000326
                },
                {
                    "name": "C5",
                    "midi": 72,
                    "time": 400.8118140000115,
                    "velocity": 0.4881889763779528,
                    "duration": 0.05826600000000326
                },
                {
                    "name": "A#4",
                    "midi": 70,
                    "time": 400.8700800000115,
                    "velocity": 0.5511811023622047,
                    "duration": 0.11653200000000652
                },
                {
                    "name": "A#3",
                    "midi": 58,
                    "time": 401.1031440000115,
                    "velocity": 0.3700787401574803,
                    "duration": 0.11653200000000652
                },
                {
                    "name": "D4",
                    "midi": 62,
                    "time": 401.21967600001153,
                    "velocity": 0.3543307086614173,
                    "duration": 0.11653200000000652
                },
                {
                    "name": "C4",
                    "midi": 60,
                    "time": 401.33620800001154,
                    "velocity": 0.3700787401574803,
                    "duration": 0.11653200000000652
                },
                {
                    "name": "D#4",
                    "midi": 63,
                    "time": 401.45274000001154,
                    "velocity": 0.3543307086614173,
                    "duration": 0.11653200000000652
                },
                {
                    "name": "D4",
                    "midi": 62,
                    "time": 401.56927200001155,
                    "velocity": 0.3700787401574803,
                    "duration": 0.11653200000000652
                },
                {
                    "name": "F4",
                    "midi": 65,
                    "time": 401.68580400001156,
                    "velocity": 0.3543307086614173,
                    "duration": 0.11653200000000652
                },
                {
                    "name": "D#4",
                    "midi": 63,
                    "time": 401.80233600001156,
                    "velocity": 0.3779527559055118,
                    "duration": 0.11653200000000652
                },
                {
                    "name": "A#3",
                    "midi": 58,
                    "time": 402.0354000000116,
                    "velocity": 0.4094488188976378,
                    "duration": 0.11653200000000652
                },
                {
                    "name": "D4",
                    "midi": 62,
                    "time": 402.1519320000116,
                    "velocity": 0.3779527559055118,
                    "duration": 0.11653200000000652
                },
                {
                    "name": "C4",
                    "midi": 60,
                    "time": 402.2684640000116,
                    "velocity": 0.4094488188976378,
                    "duration": 0.11653200000000652
                },
                {
                    "name": "D#4",
                    "midi": 63,
                    "time": 402.3849960000116,
                    "velocity": 0.3779527559055118,
                    "duration": 0.11653200000000652
                },
                {
                    "name": "D4",
                    "midi": 62,
                    "time": 402.5015280000116,
                    "velocity": 0.4094488188976378,
                    "duration": 0.11653200000000652
                },
                {
                    "name": "F4",
                    "midi": 65,
                    "time": 402.6180600000116,
                    "velocity": 0.3779527559055118,
                    "duration": 0.11653200000000652
                },
                {
                    "name": "D#4",
                    "midi": 63,
                    "time": 402.7345920000116,
                    "velocity": 0.4094488188976378,
                    "duration": 0.11653200000000652
                },
                {
                    "name": "A#3",
                    "midi": 58,
                    "time": 402.96765600001163,
                    "velocity": 0.4094488188976378,
                    "duration": 0.11653200000000652
                },
                {
                    "name": "D4",
                    "midi": 62,
                    "time": 403.08418800001164,
                    "velocity": 0.4330708661417323,
                    "duration": 0.11653200000000652
                },
                {
                    "name": "C4",
                    "midi": 60,
                    "time": 403.20072000001164,
                    "velocity": 0.44881889763779526,
                    "duration": 0.11653200000000652
                },
                {
                    "name": "D#4",
                    "midi": 63,
                    "time": 403.31725200001165,
                    "velocity": 0.4566929133858268,
                    "duration": 0.11653200000000652
                },
                {
                    "name": "D4",
                    "midi": 62,
                    "time": 403.43378400001166,
                    "velocity": 0.4645669291338583,
                    "duration": 0.11653200000000652
                },
                {
                    "name": "F4",
                    "midi": 65,
                    "time": 403.55031600001166,
                    "velocity": 0.4881889763779528,
                    "duration": 0.11653200000000652
                },
                {
                    "name": "D#4",
                    "midi": 63,
                    "time": 403.66684800001167,
                    "velocity": 0.49606299212598426,
                    "duration": 0.11653200000000652
                },
                {
                    "name": "G4",
                    "midi": 67,
                    "time": 403.7833800000117,
                    "velocity": 0.5196850393700787,
                    "duration": 0.11653200000000652
                },
                {
                    "name": "F4",
                    "midi": 65,
                    "time": 403.8999120000117,
                    "velocity": 0.5275590551181102,
                    "duration": 0.11653200000000652
                },
                {
                    "name": "G#4",
                    "midi": 68,
                    "time": 404.0164440000117,
                    "velocity": 0.5433070866141733,
                    "duration": 0.11653200000000652
                },
                {
                    "name": "G4",
                    "midi": 67,
                    "time": 404.1329760000117,
                    "velocity": 0.5511811023622047,
                    "duration": 0.11653200000000652
                },
                {
                    "name": "A#4",
                    "midi": 70,
                    "time": 404.2495080000117,
                    "velocity": 0.5590551181102362,
                    "duration": 0.11653200000000652
                },
                {
                    "name": "A4",
                    "midi": 69,
                    "time": 404.3660400000117,
                    "velocity": 0.5748031496062992,
                    "duration": 0.11653200000000652
                },
                {
                    "name": "C5",
                    "midi": 72,
                    "time": 404.4825720000117,
                    "velocity": 0.5905511811023622,
                    "duration": 0.11653200000000652
                },
                {
                    "name": "A#4",
                    "midi": 70,
                    "time": 404.5991040000117,
                    "velocity": 0.6062992125984252,
                    "duration": 0.11653200000000652
                },
                {
                    "name": "C5",
                    "midi": 72,
                    "time": 404.7156360000117,
                    "velocity": 0.6220472440944882,
                    "duration": 0.11653200000000652
                },
                {
                    "name": "D5",
                    "midi": 74,
                    "time": 404.83216800001173,
                    "velocity": 0.6456692913385826,
                    "duration": 0.11653200000000652
                },
                {
                    "name": "C5",
                    "midi": 72,
                    "time": 404.94870000001174,
                    "velocity": 0.6456692913385826,
                    "duration": 0.11653200000000652
                },
                {
                    "name": "A#4",
                    "midi": 70,
                    "time": 405.06523200001175,
                    "velocity": 0.6299212598425197,
                    "duration": 0.11653200000000652
                },
                {
                    "name": "G#4",
                    "midi": 68,
                    "time": 405.18176400001175,
                    "velocity": 0.6220472440944882,
                    "duration": 0.11653200000000652
                },
                {
                    "name": "G4",
                    "midi": 67,
                    "time": 405.29829600001176,
                    "velocity": 0.6141732283464567,
                    "duration": 0.11653200000000652
                },
                {
                    "name": "F#4",
                    "midi": 66,
                    "time": 405.41482800001177,
                    "velocity": 0.6062992125984252,
                    "duration": 0.11653200000000652
                },
                {
                    "name": "G4",
                    "midi": 67,
                    "time": 405.5313600000118,
                    "velocity": 0.6141732283464567,
                    "duration": 0.11653200000000652
                },
                {
                    "name": "C5",
                    "midi": 72,
                    "time": 405.6478920000118,
                    "velocity": 0.6220472440944882,
                    "duration": 0.11653200000000652
                },
                {
                    "name": "D#5",
                    "midi": 75,
                    "time": 405.7644240000118,
                    "velocity": 0.6299212598425197,
                    "duration": 0.11653200000000652
                },
                {
                    "name": "D5",
                    "midi": 74,
                    "time": 405.8809560000118,
                    "velocity": 0.6220472440944882,
                    "duration": 0.11653200000000652
                },
                {
                    "name": "C5",
                    "midi": 72,
                    "time": 405.9974880000118,
                    "velocity": 0.6220472440944882,
                    "duration": 0.11653200000000652
                },
                {
                    "name": "A#4",
                    "midi": 70,
                    "time": 406.1140200000118,
                    "velocity": 0.6141732283464567,
                    "duration": 0.11653200000000652
                },
                {
                    "name": "A4",
                    "midi": 69,
                    "time": 406.2305520000118,
                    "velocity": 0.5905511811023622,
                    "duration": 0.11653200000000652
                },
                {
                    "name": "G4",
                    "midi": 67,
                    "time": 406.3470840000118,
                    "velocity": 0.5826771653543307,
                    "duration": 0.11653200000000652
                },
                {
                    "name": "F4",
                    "midi": 65,
                    "time": 406.4636160000118,
                    "velocity": 0.5905511811023622,
                    "duration": 0.11653200000000652
                },
                {
                    "name": "A#4",
                    "midi": 70,
                    "time": 406.58014800001183,
                    "velocity": 0.6220472440944882,
                    "duration": 0.11653200000000652
                },
                {
                    "name": "D5",
                    "midi": 74,
                    "time": 406.69668000001184,
                    "velocity": 0.6456692913385826,
                    "duration": 0.11653200000000652
                },
                {
                    "name": "F5",
                    "midi": 77,
                    "time": 406.81321200001184,
                    "velocity": 0.6929133858267716,
                    "duration": 0.11653200000000652
                },
                {
                    "name": "A#5",
                    "midi": 82,
                    "time": 406.92974400001185,
                    "velocity": 0.7401574803149606,
                    "duration": 0.11653200000000652
                },
                {
                    "name": "A#4",
                    "midi": 70,
                    "time": 407.16280800001186,
                    "velocity": 0.5039370078740157,
                    "duration": 0.11653200000000652
                },
                {
                    "name": "D5",
                    "midi": 74,
                    "time": 407.16280800001186,
                    "velocity": 0.5039370078740157,
                    "duration": 0.11653200000000652
                },
                {
                    "name": "D5",
                    "midi": 74,
                    "time": 407.3958720000119,
                    "velocity": 0.5511811023622047,
                    "duration": 0.23306400000001304
                },
                {
                    "name": "F5",
                    "midi": 77,
                    "time": 407.3958720000119,
                    "velocity": 0.5511811023622047,
                    "duration": 0.23306400000001304
                },
                {
                    "name": "C5",
                    "midi": 72,
                    "time": 407.6289360000119,
                    "velocity": 0.5196850393700787,
                    "duration": 0.11653200000000652
                },
                {
                    "name": "D#5",
                    "midi": 75,
                    "time": 407.6289360000119,
                    "velocity": 0.5196850393700787,
                    "duration": 0.11653200000000652
                },
                {
                    "name": "A#4",
                    "midi": 70,
                    "time": 407.8620000000119,
                    "velocity": 0.5275590551181102,
                    "duration": 0.11653200000000652
                },
                {
                    "name": "D5",
                    "midi": 74,
                    "time": 407.8620000000119,
                    "velocity": 0.5275590551181102,
                    "duration": 0.11653200000000652
                },
                {
                    "name": "A4",
                    "midi": 69,
                    "time": 408.0950640000119,
                    "velocity": 0.5275590551181102,
                    "duration": 0.11653200000000652
                },
                {
                    "name": "C5",
                    "midi": 72,
                    "time": 408.0950640000119,
                    "velocity": 0.5275590551181102,
                    "duration": 0.11653200000000652
                },
                {
                    "name": "A#4",
                    "midi": 70,
                    "time": 408.32812800001193,
                    "velocity": 0.5275590551181102,
                    "duration": 0.11653200000000652
                },
                {
                    "name": "A#4",
                    "midi": 70,
                    "time": 408.56119200001194,
                    "velocity": 0.3700787401574803,
                    "duration": 0.11653200000000652
                },
                {
                    "name": "D5",
                    "midi": 74,
                    "time": 408.67772400001195,
                    "velocity": 0.3543307086614173,
                    "duration": 0.11653200000000652
                },
                {
                    "name": "C5",
                    "midi": 72,
                    "time": 408.79425600001196,
                    "velocity": 0.3700787401574803,
                    "duration": 0.11653200000000652
                },
                {
                    "name": "D#5",
                    "midi": 75,
                    "time": 408.91078800001196,
                    "velocity": 0.3543307086614173,
                    "duration": 0.11653200000000652
                },
                {
                    "name": "D5",
                    "midi": 74,
                    "time": 409.02732000001197,
                    "velocity": 0.3700787401574803,
                    "duration": 0.11653200000000652
                },
                {
                    "name": "F5",
                    "midi": 77,
                    "time": 409.143852000012,
                    "velocity": 0.3543307086614173,
                    "duration": 0.11653200000000652
                },
                {
                    "name": "D#5",
                    "midi": 75,
                    "time": 409.260384000012,
                    "velocity": 0.3779527559055118,
                    "duration": 0.11653200000000652
                },
                {
                    "name": "A#5",
                    "midi": 82,
                    "time": 409.493448000012,
                    "velocity": 0.4881889763779528,
                    "duration": 0.11653200000000652
                },
                {
                    "name": "D6",
                    "midi": 86,
                    "time": 409.609980000012,
                    "velocity": 0.4566929133858268,
                    "duration": 0.11653200000000652
                },
                {
                    "name": "C6",
                    "midi": 84,
                    "time": 409.726512000012,
                    "velocity": 0.4881889763779528,
                    "duration": 0.11653200000000652
                },
                {
                    "name": "D#6",
                    "midi": 87,
                    "time": 409.843044000012,
                    "velocity": 0.4645669291338583,
                    "duration": 0.11653200000000652
                },
                {
                    "name": "D6",
                    "midi": 86,
                    "time": 409.959576000012,
                    "velocity": 0.4881889763779528,
                    "duration": 0.11653200000000652
                },
                {
                    "name": "F6",
                    "midi": 89,
                    "time": 410.076108000012,
                    "velocity": 0.4566929133858268,
                    "duration": 0.11653200000000652
                },
                {
                    "name": "D#6",
                    "midi": 87,
                    "time": 410.19264000001203,
                    "velocity": 0.5354330708661418,
                    "duration": 0.11653200000000652
                },
                {
                    "name": "A#4",
                    "midi": 70,
                    "time": 410.42570400001205,
                    "velocity": 0.4330708661417323,
                    "duration": 0.11653200000000652
                },
                {
                    "name": "D5",
                    "midi": 74,
                    "time": 410.54223600001205,
                    "velocity": 0.4409448818897638,
                    "duration": 0.11653200000000652
                },
                {
                    "name": "C5",
                    "midi": 72,
                    "time": 410.65876800001206,
                    "velocity": 0.4566929133858268,
                    "duration": 0.11653200000000652
                },
                {
                    "name": "D#5",
                    "midi": 75,
                    "time": 410.77530000001207,
                    "velocity": 0.4645669291338583,
                    "duration": 0.11653200000000652
                },
                {
                    "name": "D5",
                    "midi": 74,
                    "time": 410.8918320000121,
                    "velocity": 0.48031496062992124,
                    "duration": 0.11653200000000652
                },
                {
                    "name": "F5",
                    "midi": 77,
                    "time": 411.0083640000121,
                    "velocity": 0.49606299212598426,
                    "duration": 0.11653200000000652
                },
                {
                    "name": "D#5",
                    "midi": 75,
                    "time": 411.1248960000121,
                    "velocity": 0.5039370078740157,
                    "duration": 0.11653200000000652
                },
                {
                    "name": "A#4",
                    "midi": 70,
                    "time": 411.2414280000121,
                    "velocity": 0.5275590551181102,
                    "duration": 0.11653200000000652
                },
                {
                    "name": "F5",
                    "midi": 77,
                    "time": 411.3579600000121,
                    "velocity": 0.5354330708661418,
                    "duration": 0.11653200000000652
                },
                {
                    "name": "A#4",
                    "midi": 70,
                    "time": 411.4744920000121,
                    "velocity": 0.5433070866141733,
                    "duration": 0.11653200000000652
                },
                {
                    "name": "G5",
                    "midi": 79,
                    "time": 411.5910240000121,
                    "velocity": 0.5511811023622047,
                    "duration": 0.11653200000000652
                },
                {
                    "name": "A#4",
                    "midi": 70,
                    "time": 411.7075560000121,
                    "velocity": 0.5669291338582677,
                    "duration": 0.11653200000000652
                },
                {
                    "name": "A5",
                    "midi": 81,
                    "time": 411.8240880000121,
                    "velocity": 0.5826771653543307,
                    "duration": 0.11653200000000652
                },
                {
                    "name": "A#4",
                    "midi": 70,
                    "time": 411.94062000001213,
                    "velocity": 0.5905511811023622,
                    "duration": 0.11653200000000652
                },
                {
                    "name": "A#5",
                    "midi": 82,
                    "time": 412.05715200001214,
                    "velocity": 0.6141732283464567,
                    "duration": 0.11653200000000652
                },
                {
                    "name": "C6",
                    "midi": 84,
                    "time": 412.17368400001214,
                    "velocity": 0.6141732283464567,
                    "duration": 0.11653200000000652
                },
                {
                    "name": "D6",
                    "midi": 86,
                    "time": 412.29021600001215,
                    "velocity": 0.6062992125984252,
                    "duration": 0.11653200000000652
                },
                {
                    "name": "C6",
                    "midi": 84,
                    "time": 412.40674800001216,
                    "velocity": 0.5905511811023622,
                    "duration": 0.11653200000000652
                },
                {
                    "name": "A#5",
                    "midi": 82,
                    "time": 412.52328000001216,
                    "velocity": 0.5826771653543307,
                    "duration": 0.11653200000000652
                },
                {
                    "name": "G#5",
                    "midi": 80,
                    "time": 412.63981200001217,
                    "velocity": 0.5748031496062992,
                    "duration": 0.11653200000000652
                },
                {
                    "name": "G5",
                    "midi": 79,
                    "time": 412.7563440000122,
                    "velocity": 0.5669291338582677,
                    "duration": 0.11653200000000652
                },
                {
                    "name": "F#5",
                    "midi": 78,
                    "time": 412.8728760000122,
                    "velocity": 0.5590551181102362,
                    "duration": 0.11653200000000652
                },
                {
                    "name": "G5",
                    "midi": 79,
                    "time": 412.9894080000122,
                    "velocity": 0.6220472440944882,
                    "duration": 0.11653200000000652
                },
                {
                    "name": "F5",
                    "midi": 77,
                    "time": 413.1059400000122,
                    "velocity": 0.6220472440944882,
                    "duration": 0.11653200000000652
                },
                {
                    "name": "D#5",
                    "midi": 75,
                    "time": 413.2224720000122,
                    "velocity": 0.6141732283464567,
                    "duration": 0.11653200000000652
                },
                {
                    "name": "D5",
                    "midi": 74,
                    "time": 413.3390040000122,
                    "velocity": 0.6062992125984252,
                    "duration": 0.11653200000000652
                },
                {
                    "name": "C5",
                    "midi": 72,
                    "time": 413.4555360000122,
                    "velocity": 0.5905511811023622,
                    "duration": 0.11653200000000652
                },
                {
                    "name": "A#4",
                    "midi": 70,
                    "time": 413.5720680000122,
                    "velocity": 0.5826771653543307,
                    "duration": 0.11653200000000652
                },
                {
                    "name": "A4",
                    "midi": 69,
                    "time": 413.68860000001223,
                    "velocity": 0.5748031496062992,
                    "duration": 0.11653200000000652
                },
                {
                    "name": "G4",
                    "midi": 67,
                    "time": 413.80513200001224,
                    "velocity": 0.5748031496062992,
                    "duration": 0.11653200000000652
                },
                {
                    "name": "F4",
                    "midi": 65,
                    "time": 413.92166400001224,
                    "velocity": 0.6456692913385826,
                    "duration": 0.23306400000001304
                },
                {
                    "name": "F6",
                    "midi": 89,
                    "time": 414.15472800001226,
                    "velocity": 0.6456692913385826,
                    "duration": 0.11653200000000652
                },
                {
                    "name": "F6",
                    "midi": 89,
                    "time": 414.38779200001227,
                    "velocity": 0.6456692913385826,
                    "duration": 0.11653200000000652
                },
                {
                    "name": "F6",
                    "midi": 89,
                    "time": 414.6208560000123,
                    "velocity": 0.6456692913385826,
                    "duration": 0.11653200000000652
                },
                {
                    "name": "F6",
                    "midi": 89,
                    "time": 414.8539200000123,
                    "velocity": 0.6377952755905512,
                    "duration": 0.11653200000000652
                },
                {
                    "name": "D6",
                    "midi": 86,
                    "time": 414.9704520000123,
                    "velocity": 0.5984251968503937,
                    "duration": 0.11653200000000652
                },
                {
                    "name": "A#5",
                    "midi": 82,
                    "time": 415.0869840000123,
                    "velocity": 0.5590551181102362,
                    "duration": 0.11653200000000652
                },
                {
                    "name": "F5",
                    "midi": 77,
                    "time": 415.2035160000123,
                    "velocity": 0.5433070866141733,
                    "duration": 0.11653200000000652
                },
                {
                    "name": "A#5",
                    "midi": 82,
                    "time": 415.3200480000123,
                    "velocity": 0.6377952755905512,
                    "duration": 0.11653200000000652
                },
                {
                    "name": "F5",
                    "midi": 77,
                    "time": 415.4365800000123,
                    "velocity": 0.5905511811023622,
                    "duration": 0.11653200000000652
                },
                {
                    "name": "D5",
                    "midi": 74,
                    "time": 415.55311200001233,
                    "velocity": 0.5590551181102362,
                    "duration": 0.11653200000000652
                },
                {
                    "name": "A#4",
                    "midi": 70,
                    "time": 415.66964400001234,
                    "velocity": 0.5433070866141733,
                    "duration": 0.11653200000000652
                },
                {
                    "name": "C5",
                    "midi": 72,
                    "time": 415.78617600001235,
                    "velocity": 0.4015748031496063,
                    "duration": 0.0776880000000233
                },
                {
                    "name": "D5",
                    "midi": 74,
                    "time": 415.86386400001237,
                    "velocity": 0.36220472440944884,
                    "duration": 0.0776880000000233
                },
                {
                    "name": "C5",
                    "midi": 72,
                    "time": 415.9415520000124,
                    "velocity": 0.4015748031496063,
                    "duration": 0.0776880000000233
                },
                {
                    "name": "D5",
                    "midi": 74,
                    "time": 416.0192400000124,
                    "velocity": 0.36220472440944884,
                    "duration": 0.0776880000000233
                },
                {
                    "name": "C5",
                    "midi": 72,
                    "time": 416.09692800001244,
                    "velocity": 0.4015748031496063,
                    "duration": 0.0776880000000233
                },
                {
                    "name": "D5",
                    "midi": 74,
                    "time": 416.17461600001246,
                    "velocity": 0.36220472440944884,
                    "duration": 0.0776880000000233
                },
                {
                    "name": "C5",
                    "midi": 72,
                    "time": 416.2523040000125,
                    "velocity": 0.4015748031496063,
                    "duration": 0.0776880000000233
                },
                {
                    "name": "D5",
                    "midi": 74,
                    "time": 416.3299920000125,
                    "velocity": 0.36220472440944884,
                    "duration": 0.0776880000000233
                },
                {
                    "name": "C5",
                    "midi": 72,
                    "time": 416.40768000001253,
                    "velocity": 0.4015748031496063,
                    "duration": 0.0776880000000233
                },
                {
                    "name": "D5",
                    "midi": 74,
                    "time": 416.48536800001256,
                    "velocity": 0.36220472440944884,
                    "duration": 0.0776880000000233
                },
                {
                    "name": "C5",
                    "midi": 72,
                    "time": 416.5630560000126,
                    "velocity": 0.4015748031496063,
                    "duration": 0.0776880000000233
                },
                {
                    "name": "D5",
                    "midi": 74,
                    "time": 416.6407440000126,
                    "velocity": 0.36220472440944884,
                    "duration": 0.0776880000000233
                },
                {
                    "name": "C5",
                    "midi": 72,
                    "time": 416.7184320000126,
                    "velocity": 0.4015748031496063,
                    "duration": 0.0776880000000233
                },
                {
                    "name": "D5",
                    "midi": 74,
                    "time": 416.79612000001265,
                    "velocity": 0.36220472440944884,
                    "duration": 0.0776880000000233
                },
                {
                    "name": "C5",
                    "midi": 72,
                    "time": 416.8738080000127,
                    "velocity": 0.4015748031496063,
                    "duration": 0.0776880000000233
                },
                {
                    "name": "D5",
                    "midi": 74,
                    "time": 416.9514960000127,
                    "velocity": 0.3779527559055118,
                    "duration": 0.0776880000000233
                },
                {
                    "name": "C5",
                    "midi": 72,
                    "time": 417.0291840000127,
                    "velocity": 0.4015748031496063,
                    "duration": 0.0776880000000233
                },
                {
                    "name": "D5",
                    "midi": 74,
                    "time": 417.10687200001274,
                    "velocity": 0.3700787401574803,
                    "duration": 0.0776880000000233
                },
                {
                    "name": "C5",
                    "midi": 72,
                    "time": 417.18456000001277,
                    "velocity": 0.4015748031496063,
                    "duration": 0.05826600000000326
                },
                {
                    "name": "D5",
                    "midi": 74,
                    "time": 417.24282600001277,
                    "velocity": 0.3779527559055118,
                    "duration": 0.05826600000000326
                },
                {
                    "name": "C5",
                    "midi": 72,
                    "time": 417.3010920000128,
                    "velocity": 0.4015748031496063,
                    "duration": 0.05826600000000326
                },
                {
                    "name": "D5",
                    "midi": 74,
                    "time": 417.3593580000128,
                    "velocity": 0.3700787401574803,
                    "duration": 0.05826600000000326
                },
                {
                    "name": "C5",
                    "midi": 72,
                    "time": 417.4176240000128,
                    "velocity": 0.4015748031496063,
                    "duration": 0.038843999999983225
                },
                {
                    "name": "D5",
                    "midi": 74,
                    "time": 417.45646800001276,
                    "velocity": 0.3779527559055118,
                    "duration": 0.038843999999983225
                },
                {
                    "name": "C5",
                    "midi": 72,
                    "time": 417.49531200001275,
                    "velocity": 0.3779527559055118,
                    "duration": 0.038843999999983225
                },
                {
                    "name": "A#4",
                    "midi": 70,
                    "time": 417.53415600001273,
                    "velocity": 0.4881889763779528,
                    "duration": 0.05826600000000326
                },
                {
                    "name": "C5",
                    "midi": 72,
                    "time": 417.59242200001273,
                    "velocity": 0.4566929133858268,
                    "duration": 0.05826600000000326
                },
                {
                    "name": "A#4",
                    "midi": 70,
                    "time": 417.65068800001274,
                    "velocity": 0.5433070866141733,
                    "duration": 0.22917960000000903
                },
                {
                    "name": "A#5",
                    "midi": 82,
                    "time": 417.88375200001275,
                    "velocity": 0.4251968503937008,
                    "duration": 0.23306400000001304
                },
                {
                    "name": "A#5",
                    "midi": 82,
                    "time": 418.3498800000128,
                    "velocity": 0.4566929133858268,
                    "duration": 0.23306400000001304
                },
                {
                    "name": "A5",
                    "midi": 81,
                    "time": 418.5829440000128,
                    "velocity": 0.4409448818897638,
                    "duration": 0.23306400000001304
                },
                {
                    "name": "A#5",
                    "midi": 82,
                    "time": 418.8160080000128,
                    "velocity": 0.48031496062992124,
                    "duration": 0.23306400000001304
                },
                {
                    "name": "C6",
                    "midi": 84,
                    "time": 419.0490720000128,
                    "velocity": 0.5354330708661418,
                    "duration": 0.23306400000001304
                },
                {
                    "name": "D6",
                    "midi": 86,
                    "time": 419.2821360000128,
                    "velocity": 0.5669291338582677,
                    "duration": 0.23306400000001304
                },
                {
                    "name": "D#6",
                    "midi": 87,
                    "time": 419.51520000001284,
                    "velocity": 0.6220472440944882,
                    "duration": 0.11653200000000652
                },
                {
                    "name": "D6",
                    "midi": 86,
                    "time": 419.63173200001285,
                    "velocity": 0.5748031496062992,
                    "duration": 0.11653200000000652
                },
                {
                    "name": "D#6",
                    "midi": 87,
                    "time": 419.74826400001285,
                    "velocity": 0.5984251968503937,
                    "duration": 0.11653200000000652
                },
                {
                    "name": "D6",
                    "midi": 86,
                    "time": 419.86479600001286,
                    "velocity": 0.5511811023622047,
                    "duration": 0.11653200000000652
                },
                {
                    "name": "D#6",
                    "midi": 87,
                    "time": 419.98132800001287,
                    "velocity": 0.5905511811023622,
                    "duration": 0.11653200000000652
                },
                {
                    "name": "C#6",
                    "midi": 85,
                    "time": 420.0978600000129,
                    "velocity": 0.5275590551181102,
                    "duration": 0.11653200000000652
                },
                {
                    "name": "C6",
                    "midi": 84,
                    "time": 420.2143920000129,
                    "velocity": 0.5433070866141733,
                    "duration": 0.11653200000000652
                },
                {
                    "name": "A#5",
                    "midi": 82,
                    "time": 420.3309240000129,
                    "velocity": 0.5118110236220472,
                    "duration": 0.11653200000000652
                },
                {
                    "name": "A5",
                    "midi": 81,
                    "time": 420.4474560000129,
                    "velocity": 0.5275590551181102,
                    "duration": 0.11653200000000652
                },
                {
                    "name": "A#5",
                    "midi": 82,
                    "time": 420.5639880000129,
                    "velocity": 0.5511811023622047,
                    "duration": 0.11653200000000652
                },
                {
                    "name": "C6",
                    "midi": 84,
                    "time": 420.6805200000129,
                    "velocity": 0.5669291338582677,
                    "duration": 0.11653200000000652
                },
                {
                    "name": "A#5",
                    "midi": 82,
                    "time": 420.7970520000129,
                    "velocity": 0.5275590551181102,
                    "duration": 0.11653200000000652
                },
                {
                    "name": "A5",
                    "midi": 81,
                    "time": 420.9135840000129,
                    "velocity": 0.5433070866141733,
                    "duration": 0.11653200000000652
                },
                {
                    "name": "G5",
                    "midi": 79,
                    "time": 421.0301160000129,
                    "velocity": 0.5196850393700787,
                    "duration": 0.11653200000000652
                },
                {
                    "name": "F5",
                    "midi": 77,
                    "time": 421.14664800001293,
                    "velocity": 0.5196850393700787,
                    "duration": 0.11653200000000652
                },
                {
                    "name": "D#5",
                    "midi": 75,
                    "time": 421.26318000001294,
                    "velocity": 0.5118110236220472,
                    "duration": 0.11653200000000652
                },
                {
                    "name": "D5",
                    "midi": 74,
                    "time": 421.37971200001294,
                    "velocity": 0.49606299212598426,
                    "duration": 0.11653200000000652
                },
                {
                    "name": "D5",
                    "midi": 74,
                    "time": 421.61277600001296,
                    "velocity": 0.3858267716535433,
                    "duration": 0.11653200000000652
                },
                {
                    "name": "A#4",
                    "midi": 70,
                    "time": 422.078904000013,
                    "velocity": 0.41732283464566927,
                    "duration": 0.23306400000001304
                },
                {
                    "name": "A4",
                    "midi": 69,
                    "time": 422.311968000013,
                    "velocity": 0.3858267716535433,
                    "duration": 0.23306400000001304
                },
                {
                    "name": "A#4",
                    "midi": 70,
                    "time": 422.545032000013,
                    "velocity": 0.3858267716535433,
                    "duration": 0.23306400000001304
                },
                {
                    "name": "C5",
                    "midi": 72,
                    "time": 422.778096000013,
                    "velocity": 0.3858267716535433,
                    "duration": 0.23306400000001304
                },
                {
                    "name": "D5",
                    "midi": 74,
                    "time": 423.01116000001304,
                    "velocity": 0.3858267716535433,
                    "duration": 0.23306400000001304
                },
                {
                    "name": "D#5",
                    "midi": 75,
                    "time": 423.24422400001305,
                    "velocity": 0.4094488188976378,
                    "duration": 0.11653200000000652
                },
                {
                    "name": "F5",
                    "midi": 77,
                    "time": 423.47728800001306,
                    "velocity": 0.4094488188976378,
                    "duration": 0.05826600000000326
                },
                {
                    "name": "D#5",
                    "midi": 75,
                    "time": 423.53555400001306,
                    "velocity": 0.3858267716535433,
                    "duration": 0.05826600000000326
                },
                {
                    "name": "D5",
                    "midi": 74,
                    "time": 423.59382000001307,
                    "velocity": 0.4094488188976378,
                    "duration": 0.05826600000000326
                },
                {
                    "name": "D#5",
                    "midi": 75,
                    "time": 423.65208600001307,
                    "velocity": 0.3779527559055118,
                    "duration": 0.05826600000000326
                },
                {
                    "name": "F5",
                    "midi": 77,
                    "time": 423.7103520000131,
                    "velocity": 0.4251968503937008,
                    "duration": 0.23306400000001304
                },
                {
                    "name": "G5",
                    "midi": 79,
                    "time": 423.9434160000131,
                    "velocity": 0.48031496062992124,
                    "duration": 0.2233529999999746
                },
                {
                    "name": "D#5",
                    "midi": 75,
                    "time": 424.17648000001304,
                    "velocity": 0.3858267716535433,
                    "duration": 0.23306400000001304
                },
                {
                    "name": "G5",
                    "midi": 79,
                    "time": 424.17648000001304,
                    "velocity": 0.3858267716535433,
                    "duration": 0.23306400000001304
                },
                {
                    "name": "D5",
                    "midi": 74,
                    "time": 424.40954400001306,
                    "velocity": 0.33070866141732286,
                    "duration": 0.23306400000001304
                },
                {
                    "name": "F5",
                    "midi": 77,
                    "time": 424.40954400001306,
                    "velocity": 0.33070866141732286,
                    "duration": 0.23306400000001304
                },
                {
                    "name": "D#4",
                    "midi": 63,
                    "time": 424.8756720000131,
                    "velocity": 0.23622047244094488,
                    "duration": 0.23306400000001304
                },
                {
                    "name": "A4",
                    "midi": 69,
                    "time": 424.8756720000131,
                    "velocity": 0.23622047244094488,
                    "duration": 0.23306400000001304
                },
                {
                    "name": "D#4",
                    "midi": 63,
                    "time": 425.1087360000131,
                    "velocity": 0.3543307086614173,
                    "duration": 0.9322559999999953
                },
                {
                    "name": "C5",
                    "midi": 72,
                    "time": 425.1087360000131,
                    "velocity": 0.3543307086614173,
                    "duration": 0.9322559999999953
                },
                {
                    "name": "D4",
                    "midi": 62,
                    "time": 426.0409920000131,
                    "velocity": 0.25196850393700787,
                    "duration": 0.34959600000001956
                },
                {
                    "name": "A#4",
                    "midi": 70,
                    "time": 426.0409920000131,
                    "velocity": 0.25196850393700787,
                    "duration": 0.34959600000001956
                },
                {
                    "name": "D5",
                    "midi": 74,
                    "time": 426.5071200000131,
                    "velocity": 0.44881889763779526,
                    "duration": 0.11653200000000652
                },
                {
                    "name": "C5",
                    "midi": 72,
                    "time": 426.6236520000131,
                    "velocity": 0.4409448818897638,
                    "duration": 0.11653200000000652
                },
                {
                    "name": "A#4",
                    "midi": 70,
                    "time": 426.74018400001313,
                    "velocity": 0.4251968503937008,
                    "duration": 0.11653200000000652
                },
                {
                    "name": "A4",
                    "midi": 69,
                    "time": 426.85671600001314,
                    "velocity": 0.4094488188976378,
                    "duration": 0.11653200000000652
                },
                {
                    "name": "G4",
                    "midi": 67,
                    "time": 426.97324800001314,
                    "velocity": 0.47244094488188976,
                    "duration": 0.23306400000001304
                },
                {
                    "name": "F4",
                    "midi": 65,
                    "time": 427.20631200001316,
                    "velocity": 0.3700787401574803,
                    "duration": 0.2233529999999746
                },
                {
                    "name": "F4",
                    "midi": 65,
                    "time": 427.4393760000131,
                    "velocity": 0.3700787401574803,
                    "duration": 0.6991919999999823
                },
                {
                    "name": "F5",
                    "midi": 77,
                    "time": 428.1385680000131,
                    "velocity": 0.4094488188976378,
                    "duration": 0.23306400000001304
                },
                {
                    "name": "G5",
                    "midi": 79,
                    "time": 428.3716320000131,
                    "velocity": 0.44881889763779526,
                    "duration": 0.23306400000001304
                },
                {
                    "name": "A5",
                    "midi": 81,
                    "time": 428.6046960000131,
                    "velocity": 0.48031496062992124,
                    "duration": 0.23306400000001304
                },
                {
                    "name": "E5",
                    "midi": 76,
                    "time": 428.77949400001313,
                    "velocity": 0.4330708661417323,
                    "duration": 0.05826600000000326
                },
                {
                    "name": "A#5",
                    "midi": 82,
                    "time": 428.83776000001313,
                    "velocity": 0.5433070866141733,
                    "duration": 0.34959600000001956
                },
                {
                    "name": "G5",
                    "midi": 79,
                    "time": 429.18735600001315,
                    "velocity": 0.5039370078740157,
                    "duration": 0.11653200000000652
                },
                {
                    "name": "E5",
                    "midi": 76,
                    "time": 429.30388800001316,
                    "velocity": 0.4409448818897638,
                    "duration": 0.4661280000000261
                },
                {
                    "name": "C5",
                    "midi": 72,
                    "time": 430.2361440000132,
                    "velocity": 0.3779527559055118,
                    "duration": 0.11653200000000652
                },
                {
                    "name": "A#4",
                    "midi": 70,
                    "time": 430.3526760000132,
                    "velocity": 0.3779527559055118,
                    "duration": 0.11653200000000652
                },
                {
                    "name": "A4",
                    "midi": 69,
                    "time": 430.4692080000132,
                    "velocity": 0.3779527559055118,
                    "duration": 0.11653200000000652
                },
                {
                    "name": "G4",
                    "midi": 67,
                    "time": 430.58574000001323,
                    "velocity": 0.36220472440944884,
                    "duration": 0.11653200000000652
                },
                {
                    "name": "F4",
                    "midi": 65,
                    "time": 430.70227200001324,
                    "velocity": 0.41732283464566927,
                    "duration": 0.23306400000001304
                },
                {
                    "name": "E4",
                    "midi": 64,
                    "time": 430.93533600001325,
                    "velocity": 0.3700787401574803,
                    "duration": 0.2233529999999746
                },
                {
                    "name": "E4",
                    "midi": 64,
                    "time": 431.1684000000132,
                    "velocity": 0.3700787401574803,
                    "duration": 0.6991919999999823
                },
                {
                    "name": "G5",
                    "midi": 79,
                    "time": 431.8675920000132,
                    "velocity": 0.41732283464566927,
                    "duration": 0.23306400000001304
                },
                {
                    "name": "A5",
                    "midi": 81,
                    "time": 432.1006560000132,
                    "velocity": 0.4566929133858268,
                    "duration": 0.23306400000001304
                },
                {
                    "name": "A#5",
                    "midi": 82,
                    "time": 432.3337200000132,
                    "velocity": 0.49606299212598426,
                    "duration": 0.23306400000001304
                },
                {
                    "name": "F#5",
                    "midi": 78,
                    "time": 432.5085180000132,
                    "velocity": 0.4094488188976378,
                    "duration": 0.05826600000000326
                },
                {
                    "name": "C6",
                    "midi": 84,
                    "time": 432.56678400001323,
                    "velocity": 0.5354330708661418,
                    "duration": 0.34959600000001956
                },
                {
                    "name": "A5",
                    "midi": 81,
                    "time": 432.91638000001325,
                    "velocity": 0.5118110236220472,
                    "duration": 0.11653200000000652
                },
                {
                    "name": "F#5",
                    "midi": 78,
                    "time": 433.03291200001325,
                    "velocity": 0.44881889763779526,
                    "duration": 0.4661280000000261
                },
                {
                    "name": "A5",
                    "midi": 81,
                    "time": 433.7321040000133,
                    "velocity": 0.47244094488188976,
                    "duration": 0.23306400000001304
                },
                {
                    "name": "A#5",
                    "midi": 82,
                    "time": 433.9651680000133,
                    "velocity": 0.5039370078740157,
                    "duration": 0.23306400000001304
                },
                {
                    "name": "C6",
                    "midi": 84,
                    "time": 434.1982320000133,
                    "velocity": 0.5433070866141733,
                    "duration": 0.23306400000001304
                },
                {
                    "name": "G5",
                    "midi": 79,
                    "time": 434.37303000001333,
                    "velocity": 0.5196850393700787,
                    "duration": 0.05826600000000326
                },
                {
                    "name": "D6",
                    "midi": 86,
                    "time": 434.43129600001333,
                    "velocity": 0.6614173228346457,
                    "duration": 0.34959600000001956
                },
                {
                    "name": "A#5",
                    "midi": 82,
                    "time": 434.78089200001335,
                    "velocity": 0.6062992125984252,
                    "duration": 0.11653200000000652
                },
                {
                    "name": "G5",
                    "midi": 79,
                    "time": 434.89742400001336,
                    "velocity": 0.5669291338582677,
                    "duration": 0.23306400000001304
                },
                {
                    "name": "E5",
                    "midi": 76,
                    "time": 435.3052860000134,
                    "velocity": 0.5590551181102362,
                    "duration": 0.05826600000000326
                },
                {
                    "name": "A#5",
                    "midi": 82,
                    "time": 435.3635520000134,
                    "velocity": 0.6692913385826772,
                    "duration": 0.34959600000001956
                },
                {
                    "name": "G5",
                    "midi": 79,
                    "time": 435.7131480000134,
                    "velocity": 0.5984251968503937,
                    "duration": 0.11653200000000652
                },
                {
                    "name": "E5",
                    "midi": 76,
                    "time": 435.8296800000134,
                    "velocity": 0.5669291338582677,
                    "duration": 0.23306400000001304
                },
                {
                    "name": "B4",
                    "midi": 71,
                    "time": 436.23754200001343,
                    "velocity": 0.5354330708661418,
                    "duration": 0.05826600000000326
                },
                {
                    "name": "F5",
                    "midi": 77,
                    "time": 436.29580800001344,
                    "velocity": 0.6220472440944882,
                    "duration": 0.34959600000001956
                },
                {
                    "name": "D5",
                    "midi": 74,
                    "time": 436.64540400001346,
                    "velocity": 0.5748031496062992,
                    "duration": 0.11653200000000652
                },
                {
                    "name": "B4",
                    "midi": 71,
                    "time": 436.76193600001346,
                    "velocity": 0.5433070866141733,
                    "duration": 0.4661280000000261
                },
                {
                    "name": "B4",
                    "midi": 71,
                    "time": 437.4611280000135,
                    "velocity": 0.5354330708661418,
                    "duration": 0.2233529999999746
                },
                {
                    "name": "B4",
                    "midi": 71,
                    "time": 437.69419200001346,
                    "velocity": 0.5433070866141733,
                    "duration": 0.2233529999999746
                },
                {
                    "name": "B4",
                    "midi": 71,
                    "time": 437.9272560000134,
                    "velocity": 0.5275590551181102,
                    "duration": 0.2233529999999746
                },
                {
                    "name": "C5",
                    "midi": 72,
                    "time": 438.16032000001337,
                    "velocity": 0.5984251968503937,
                    "duration": 0.11653200000000652
                },
                {
                    "name": "A5",
                    "midi": 81,
                    "time": 438.2768520000134,
                    "velocity": 0.5433070866141733,
                    "duration": 0.11653200000000652
                },
                {
                    "name": "F5",
                    "midi": 77,
                    "time": 438.3933840000134,
                    "velocity": 0.5669291338582677,
                    "duration": 0.11653200000000652
                },
                {
                    "name": "C5",
                    "midi": 72,
                    "time": 438.5099160000134,
                    "velocity": 0.5511811023622047,
                    "duration": 0.11653200000000652
                },
                {
                    "name": "A4",
                    "midi": 69,
                    "time": 438.6264480000134,
                    "velocity": 0.5984251968503937,
                    "duration": 0.11653200000000652
                },
                {
                    "name": "F5",
                    "midi": 77,
                    "time": 438.7429800000134,
                    "velocity": 0.5511811023622047,
                    "duration": 0.11653200000000652
                },
                {
                    "name": "C5",
                    "midi": 72,
                    "time": 438.8595120000134,
                    "velocity": 0.5669291338582677,
                    "duration": 0.11653200000000652
                },
                {
                    "name": "A4",
                    "midi": 69,
                    "time": 438.9760440000134,
                    "velocity": 0.5275590551181102,
                    "duration": 0.10973430000001372
                },
                {
                    "name": "A4",
                    "midi": 69,
                    "time": 439.0925760000134,
                    "velocity": 0.48031496062992124,
                    "duration": 0.23306400000001304
                },
                {
                    "name": "C5",
                    "midi": 72,
                    "time": 439.0925760000134,
                    "velocity": 0.5669291338582677,
                    "duration": 0.23306400000001304
                },
                {
                    "name": "G4",
                    "midi": 67,
                    "time": 439.32564000001344,
                    "velocity": 0.41732283464566927,
                    "duration": 0.23306400000001304
                },
                {
                    "name": "A#4",
                    "midi": 70,
                    "time": 439.32564000001344,
                    "velocity": 0.49606299212598426,
                    "duration": 0.23306400000001304
                },
                {
                    "name": "F4",
                    "midi": 65,
                    "time": 439.55870400001345,
                    "velocity": 0.4015748031496063,
                    "duration": 0.11653200000000652
                },
                {
                    "name": "A4",
                    "midi": 69,
                    "time": 439.55870400001345,
                    "velocity": 0.48031496062992124,
                    "duration": 0.11653200000000652
                },
                {
                    "name": "E4",
                    "midi": 64,
                    "time": 439.79176800001346,
                    "velocity": 0.3858267716535433,
                    "duration": 0.11653200000000652
                },
                {
                    "name": "G4",
                    "midi": 67,
                    "time": 439.79176800001346,
                    "velocity": 0.4566929133858268,
                    "duration": 0.11653200000000652
                },
                {
                    "name": "F4",
                    "midi": 65,
                    "time": 440.0248320000135,
                    "velocity": 0.4251968503937008,
                    "duration": 0.4661280000000261
                },
                {
                    "name": "F4",
                    "midi": 65,
                    "time": 441.0736200000135,
                    "velocity": 0.4251968503937008,
                    "duration": 0.11653200000000652
                },
                {
                    "name": "G4",
                    "midi": 67,
                    "time": 441.1901520000135,
                    "velocity": 0.4566929133858268,
                    "duration": 0.11653200000000652
                },
                {
                    "name": "G#4",
                    "midi": 68,
                    "time": 441.3066840000135,
                    "velocity": 0.48031496062992124,
                    "duration": 0.11653200000000652
                },
                {
                    "name": "A#4",
                    "midi": 70,
                    "time": 441.4232160000135,
                    "velocity": 0.49606299212598426,
                    "duration": 0.11653200000000652
                },
                {
                    "name": "C5",
                    "midi": 72,
                    "time": 441.5397480000135,
                    "velocity": 0.5118110236220472,
                    "duration": 0.11653200000000652
                },
                {
                    "name": "D5",
                    "midi": 74,
                    "time": 441.6562800000135,
                    "velocity": 0.5354330708661418,
                    "duration": 0.11653200000000652
                },
                {
                    "name": "E5",
                    "midi": 76,
                    "time": 441.7728120000135,
                    "velocity": 0.5590551181102362,
                    "duration": 0.11653200000000652
                },
                {
                    "name": "F5",
                    "midi": 77,
                    "time": 441.8893440000135,
                    "velocity": 0.5905511811023622,
                    "duration": 0.11653200000000652
                },
                {
                    "name": "C5",
                    "midi": 72,
                    "time": 442.00587600001353,
                    "velocity": 0.5590551181102362,
                    "duration": 0.11653200000000652
                },
                {
                    "name": "G#5",
                    "midi": 80,
                    "time": 442.12240800001354,
                    "velocity": 0.5905511811023622,
                    "duration": 0.11653200000000652
                },
                {
                    "name": "G5",
                    "midi": 79,
                    "time": 442.23894000001354,
                    "velocity": 0.5669291338582677,
                    "duration": 0.11653200000000652
                },
                {
                    "name": "F5",
                    "midi": 77,
                    "time": 442.35547200001355,
                    "velocity": 0.5905511811023622,
                    "duration": 0.11653200000000652
                },
                {
                    "name": "C5",
                    "midi": 72,
                    "time": 442.47200400001356,
                    "velocity": 0.5590551181102362,
                    "duration": 0.11653200000000652
                },
                {
                    "name": "G#5",
                    "midi": 80,
                    "time": 442.58853600001356,
                    "velocity": 0.5669291338582677,
                    "duration": 0.11653200000000652
                },
                {
                    "name": "G5",
                    "midi": 79,
                    "time": 442.70506800001357,
                    "velocity": 0.5511811023622047,
                    "duration": 0.11653200000000652
                },
                {
                    "name": "F5",
                    "midi": 77,
                    "time": 442.8216000000136,
                    "velocity": 0.5669291338582677,
                    "duration": 0.13983840000003056
                },
                {
                    "name": "G5",
                    "midi": 79,
                    "time": 442.9381320000136,
                    "velocity": 0.5275590551181102,
                    "duration": 0.13983840000003056
                },
                {
                    "name": "D#5",
                    "midi": 75,
                    "time": 443.0546640000136,
                    "velocity": 0.5590551181102362,
                    "duration": 0.13983840000003056
                },
                {
                    "name": "F5",
                    "midi": 77,
                    "time": 443.1711960000136,
                    "velocity": 0.5039370078740157,
                    "duration": 0.13983840000003056
                },
                {
                    "name": "D5",
                    "midi": 74,
                    "time": 443.2877280000136,
                    "velocity": 0.5511811023622047,
                    "duration": 0.13983840000003056
                },
                {
                    "name": "D#5",
                    "midi": 75,
                    "time": 443.4042600000136,
                    "velocity": 0.49606299212598426,
                    "duration": 0.13983840000003056
                },
                {
                    "name": "C5",
                    "midi": 72,
                    "time": 443.5207920000136,
                    "velocity": 0.5354330708661418,
                    "duration": 0.13983840000003056
                },
                {
                    "name": "D5",
                    "midi": 74,
                    "time": 443.6373240000136,
                    "velocity": 0.5039370078740157,
                    "duration": 0.13983840000003056
                },
                {
                    "name": "B4",
                    "midi": 71,
                    "time": 443.7538560000136,
                    "velocity": 0.5275590551181102,
                    "duration": 0.23306400000001304
                },
                {
                    "name": "F6",
                    "midi": 89,
                    "time": 443.98692000001364,
                    "velocity": 0.7086614173228346,
                    "duration": 0.4661280000000261
                },
                {
                    "name": "D#6",
                    "midi": 87,
                    "time": 444.45304800001367,
                    "velocity": 0.7007874015748031,
                    "duration": 0.4661280000000261
                },
                {
                    "name": "D6",
                    "midi": 86,
                    "time": 444.9191760000137,
                    "velocity": 0.6929133858267716,
                    "duration": 0.4661280000000261
                },
                {
                    "name": "C6",
                    "midi": 84,
                    "time": 445.3853040000137,
                    "velocity": 0.6850393700787402,
                    "duration": 0.4661280000000261
                },
                {
                    "name": "B5",
                    "midi": 83,
                    "time": 445.85143200001374,
                    "velocity": 0.6614173228346457,
                    "duration": 0.4661280000000261
                },
                {
                    "name": "G#5",
                    "midi": 80,
                    "time": 446.31756000001377,
                    "velocity": 0.6141732283464567,
                    "duration": 0.4661280000000261
                },
                {
                    "name": "G5",
                    "midi": 79,
                    "time": 446.7836880000138,
                    "velocity": 0.6535433070866141,
                    "duration": 0.4661280000000261
                },
                {
                    "name": "F5",
                    "midi": 77,
                    "time": 447.2498160000138,
                    "velocity": 0.6141732283464567,
                    "duration": 0.2233529999999746
                },
                {
                    "name": "F5",
                    "midi": 77,
                    "time": 447.4828800000138,
                    "velocity": 0.6299212598425197,
                    "duration": 0.23306400000001304
                },
                {
                    "name": "E5",
                    "midi": 76,
                    "time": 447.7159440000138,
                    "velocity": 0.6062992125984252,
                    "duration": 0.23306400000001304
                },
                {
                    "name": "D#5",
                    "midi": 75,
                    "time": 447.9490080000138,
                    "velocity": 0.5275590551181102,
                    "duration": 0.4661280000000261
                },
                {
                    "name": "D#5",
                    "midi": 75,
                    "time": 448.53166800001384,
                    "velocity": 0.5118110236220472,
                    "duration": 0.13983840000003056
                },
                {
                    "name": "D5",
                    "midi": 74,
                    "time": 448.64820000001384,
                    "velocity": 0.5354330708661418,
                    "duration": 0.13983840000003056
                },
                {
                    "name": "D#5",
                    "midi": 75,
                    "time": 448.76473200001385,
                    "velocity": 0.5196850393700787,
                    "duration": 0.13983840000003056
                },
                {
                    "name": "F5",
                    "midi": 77,
                    "time": 448.88126400001386,
                    "velocity": 0.5354330708661418,
                    "duration": 0.13983840000003056
                },
                {
                    "name": "D#5",
                    "midi": 75,
                    "time": 448.99779600001386,
                    "velocity": 0.5196850393700787,
                    "duration": 0.13983840000003056
                },
                {
                    "name": "D5",
                    "midi": 74,
                    "time": 449.11432800001387,
                    "velocity": 0.5354330708661418,
                    "duration": 0.13983840000003056
                },
                {
                    "name": "D#5",
                    "midi": 75,
                    "time": 449.2308600000139,
                    "velocity": 0.5118110236220472,
                    "duration": 0.13983840000003056
                },
                {
                    "name": "F#5",
                    "midi": 78,
                    "time": 449.3473920000139,
                    "velocity": 0.6062992125984252,
                    "duration": 0.34959600000001956
                },
                {
                    "name": "D#5",
                    "midi": 75,
                    "time": 449.6969880000139,
                    "velocity": 0.5433070866141733,
                    "duration": 0.10682100000002492
                },
                {
                    "name": "D#5",
                    "midi": 75,
                    "time": 449.8135200000139,
                    "velocity": 0.5118110236220472,
                    "duration": 0.05826600000000326
                },
                {
                    "name": "F5",
                    "midi": 77,
                    "time": 449.8717860000139,
                    "velocity": 0.4881889763779528,
                    "duration": 0.05826600000000326
                },
                {
                    "name": "D#5",
                    "midi": 75,
                    "time": 449.9300520000139,
                    "velocity": 0.5118110236220472,
                    "duration": 0.05826600000000326
                },
                {
                    "name": "F5",
                    "midi": 77,
                    "time": 449.9883180000139,
                    "velocity": 0.49606299212598426,
                    "duration": 0.05826600000000326
                },
                {
                    "name": "D#5",
                    "midi": 75,
                    "time": 450.0465840000139,
                    "velocity": 0.5196850393700787,
                    "duration": 0.038843999999983225
                },
                {
                    "name": "F5",
                    "midi": 77,
                    "time": 450.0854280000139,
                    "velocity": 0.5039370078740157,
                    "duration": 0.038843999999983225
                },
                {
                    "name": "D#5",
                    "midi": 75,
                    "time": 450.1242720000139,
                    "velocity": 0.5039370078740157,
                    "duration": 0.038843999999983225
                },
                {
                    "name": "D5",
                    "midi": 74,
                    "time": 450.1631160000139,
                    "velocity": 0.5590551181102362,
                    "duration": 0.05826600000000326
                },
                {
                    "name": "D#5",
                    "midi": 75,
                    "time": 450.2213820000139,
                    "velocity": 0.5433070866141733,
                    "duration": 0.05826600000000326
                },
                {
                    "name": "A#5",
                    "midi": 82,
                    "time": 450.2796480000139,
                    "velocity": 0.6141732283464567,
                    "duration": 0.34959600000001956
                },
                {
                    "name": "D#5",
                    "midi": 75,
                    "time": 450.6292440000139,
                    "velocity": 0.5354330708661418,
                    "duration": 0.10682100000002492
                },
                {
                    "name": "D#5",
                    "midi": 75,
                    "time": 450.7457760000139,
                    "velocity": 0.5039370078740157,
                    "duration": 0.05826600000000326
                },
                {
                    "name": "F5",
                    "midi": 77,
                    "time": 450.8040420000139,
                    "velocity": 0.4881889763779528,
                    "duration": 0.05826600000000326
                },
                {
                    "name": "D#5",
                    "midi": 75,
                    "time": 450.8623080000139,
                    "velocity": 0.5039370078740157,
                    "duration": 0.05826600000000326
                },
                {
                    "name": "F5",
                    "midi": 77,
                    "time": 450.9205740000139,
                    "velocity": 0.4881889763779528,
                    "duration": 0.05826600000000326
                },
                {
                    "name": "D#5",
                    "midi": 75,
                    "time": 450.9788400000139,
                    "velocity": 0.5039370078740157,
                    "duration": 0.038843999999983225
                },
                {
                    "name": "F5",
                    "midi": 77,
                    "time": 451.0176840000139,
                    "velocity": 0.49606299212598426,
                    "duration": 0.038843999999983225
                },
                {
                    "name": "D#5",
                    "midi": 75,
                    "time": 451.0565280000139,
                    "velocity": 0.49606299212598426,
                    "duration": 0.038843999999983225
                },
                {
                    "name": "D5",
                    "midi": 74,
                    "time": 451.09537200001387,
                    "velocity": 0.5590551181102362,
                    "duration": 0.05826600000000326
                },
                {
                    "name": "D#5",
                    "midi": 75,
                    "time": 451.15363800001387,
                    "velocity": 0.5354330708661418,
                    "duration": 0.05826600000000326
                },
                {
                    "name": "A5",
                    "midi": 81,
                    "time": 451.2119040000139,
                    "velocity": 0.6377952755905512,
                    "duration": 0.11653200000000652
                },
                {
                    "name": "C6",
                    "midi": 84,
                    "time": 451.4449680000139,
                    "velocity": 0.6692913385826772,
                    "duration": 0.11653200000000652
                },
                {
                    "name": "D#6",
                    "midi": 87,
                    "time": 451.6780320000139,
                    "velocity": 0.7007874015748031,
                    "duration": 0.5826599999999758
                },
                {
                    "name": "F6",
                    "midi": 89,
                    "time": 452.2606920000139,
                    "velocity": 0.5590551181102362,
                    "duration": 0.13983840000003056
                },
                {
                    "name": "D6",
                    "midi": 86,
                    "time": 452.3772240000139,
                    "velocity": 0.6062992125984252,
                    "duration": 0.13983840000003056
                },
                {
                    "name": "D#6",
                    "midi": 87,
                    "time": 452.4937560000139,
                    "velocity": 0.5590551181102362,
                    "duration": 0.13983840000003056
                },
                {
                    "name": "C6",
                    "midi": 84,
                    "time": 452.6102880000139,
                    "velocity": 0.6062992125984252,
                    "duration": 0.13983840000003056
                },
                {
                    "name": "D6",
                    "midi": 86,
                    "time": 452.7268200000139,
                    "velocity": 0.5590551181102362,
                    "duration": 0.13983840000003056
                },
                {
                    "name": "A#5",
                    "midi": 82,
                    "time": 452.8433520000139,
                    "velocity": 0.6062992125984252,
                    "duration": 0.13983840000003056
                },
                {
                    "name": "C6",
                    "midi": 84,
                    "time": 452.9598840000139,
                    "velocity": 0.5590551181102362,
                    "duration": 0.13983840000003056
                },
                {
                    "name": "A5",
                    "midi": 81,
                    "time": 453.0764160000139,
                    "velocity": 0.5669291338582677,
                    "duration": 0.13983840000003056
                },
                {
                    "name": "A#5",
                    "midi": 82,
                    "time": 453.1929480000139,
                    "velocity": 0.5748031496062992,
                    "duration": 0.13983840000003056
                },
                {
                    "name": "C6",
                    "midi": 84,
                    "time": 453.30948000001393,
                    "velocity": 0.6062992125984252,
                    "duration": 0.13983840000003056
                },
                {
                    "name": "A#5",
                    "midi": 82,
                    "time": 453.42601200001394,
                    "velocity": 0.5669291338582677,
                    "duration": 0.13983840000003056
                },
                {
                    "name": "A5",
                    "midi": 81,
                    "time": 453.54254400001395,
                    "velocity": 0.5590551181102362,
                    "duration": 0.13983840000003056
                },
                {
                    "name": "A#5",
                    "midi": 82,
                    "time": 453.65907600001395,
                    "velocity": 0.5669291338582677,
                    "duration": 0.13983840000003056
                },
                {
                    "name": "C6",
                    "midi": 84,
                    "time": 453.77560800001396,
                    "velocity": 0.5748031496062992,
                    "duration": 0.13983840000003056
                },
                {
                    "name": "D6",
                    "midi": 86,
                    "time": 453.89214000001397,
                    "velocity": 0.5511811023622047,
                    "duration": 0.13983840000003056
                },
                {
                    "name": "D#6",
                    "midi": 87,
                    "time": 454.008672000014,
                    "velocity": 0.5905511811023622,
                    "duration": 0.13983840000003056
                },
                {
                    "name": "D6",
                    "midi": 86,
                    "time": 454.125204000014,
                    "velocity": 0.5511811023622047,
                    "duration": 0.13983840000003056
                },
                {
                    "name": "C6",
                    "midi": 84,
                    "time": 454.241736000014,
                    "velocity": 0.5669291338582677,
                    "duration": 0.13983840000003056
                },
                {
                    "name": "A#5",
                    "midi": 82,
                    "time": 454.358268000014,
                    "velocity": 0.5669291338582677,
                    "duration": 0.13983840000003056
                },
                {
                    "name": "A5",
                    "midi": 81,
                    "time": 454.474800000014,
                    "velocity": 0.5590551181102362,
                    "duration": 0.13983840000003056
                },
                {
                    "name": "G5",
                    "midi": 79,
                    "time": 454.591332000014,
                    "velocity": 0.5511811023622047,
                    "duration": 0.13983840000003056
                },
                {
                    "name": "F5",
                    "midi": 77,
                    "time": 454.707864000014,
                    "velocity": 0.5433070866141733,
                    "duration": 0.13983840000003056
                },
                {
                    "name": "D#5",
                    "midi": 75,
                    "time": 454.824396000014,
                    "velocity": 0.5354330708661418,
                    "duration": 0.10584990000000971
                },
                {
                    "name": "D#5",
                    "midi": 75,
                    "time": 454.940928000014,
                    "velocity": 0.5354330708661418,
                    "duration": 0.05826600000000326
                },
                {
                    "name": "F5",
                    "midi": 77,
                    "time": 454.99919400001403,
                    "velocity": 0.5039370078740157,
                    "duration": 0.05826600000000326
                },
                {
                    "name": "D#5",
                    "midi": 75,
                    "time": 455.05746000001403,
                    "velocity": 0.5118110236220472,
                    "duration": 0.038843999999983225
                },
                {
                    "name": "F5",
                    "midi": 77,
                    "time": 455.096304000014,
                    "velocity": 0.49606299212598426,
                    "duration": 0.038843999999983225
                },
                {
                    "name": "D#5",
                    "midi": 75,
                    "time": 455.135148000014,
                    "velocity": 0.49606299212598426,
                    "duration": 0.038843999999983225
                },
                {
                    "name": "D5",
                    "midi": 74,
                    "time": 455.173992000014,
                    "velocity": 0.5354330708661418,
                    "duration": 0.23306400000001304
                },
                {
                    "name": "D5",
                    "midi": 74,
                    "time": 455.407056000014,
                    "velocity": 0.5354330708661418,
                    "duration": 0.6991919999999823
                },
                {
                    "name": "D5",
                    "midi": 74,
                    "time": 456.106248000014,
                    "velocity": 0.5669291338582677,
                    "duration": 0.23306400000001304
                },
                {
                    "name": "D6",
                    "midi": 86,
                    "time": 456.339312000014,
                    "velocity": 0.6377952755905512,
                    "duration": 0.23306400000001304
                },
                {
                    "name": "C6",
                    "midi": 84,
                    "time": 456.572376000014,
                    "velocity": 0.6062992125984252,
                    "duration": 0.4661280000000261
                },
                {
                    "name": "A#5",
                    "midi": 82,
                    "time": 457.03850400001403,
                    "velocity": 0.6141732283464567,
                    "duration": 0.4661280000000261
                },
                {
                    "name": "A5",
                    "midi": 81,
                    "time": 457.50463200001406,
                    "velocity": 0.6062992125984252,
                    "duration": 0.34959600000001956
                },
                {
                    "name": "G5",
                    "midi": 79,
                    "time": 457.8542280000141,
                    "velocity": 0.5511811023622047,
                    "duration": 0.13983840000003056
                },
                {
                    "name": "A#5",
                    "midi": 82,
                    "time": 457.9707600000141,
                    "velocity": 0.5748031496062992,
                    "duration": 0.13983840000003056
                },
                {
                    "name": "A5",
                    "midi": 81,
                    "time": 458.0872920000141,
                    "velocity": 0.5511811023622047,
                    "duration": 0.13983840000003056
                },
                {
                    "name": "C6",
                    "midi": 84,
                    "time": 458.2038240000141,
                    "velocity": 0.5748031496062992,
                    "duration": 0.13983840000003056
                },
                {
                    "name": "A#5",
                    "midi": 82,
                    "time": 458.3203560000141,
                    "velocity": 0.5433070866141733,
                    "duration": 0.13983840000003056
                },
                {
                    "name": "A5",
                    "midi": 81,
                    "time": 458.4368880000141,
                    "velocity": 0.5748031496062992,
                    "duration": 0.13983840000003056
                },
                {
                    "name": "G5",
                    "midi": 79,
                    "time": 458.5534200000141,
                    "velocity": 0.5275590551181102,
                    "duration": 0.13983840000003056
                },
                {
                    "name": "F#5",
                    "midi": 78,
                    "time": 458.6699520000141,
                    "velocity": 0.5590551181102362,
                    "duration": 0.05826600000000326
                },
                {
                    "name": "D5",
                    "midi": 74,
                    "time": 458.7864840000141,
                    "velocity": 0.4566929133858268,
                    "duration": 0.11653200000000652
                },
                {
                    "name": "D6",
                    "midi": 86,
                    "time": 458.90301600001413,
                    "velocity": 0.44881889763779526,
                    "duration": 0.11653200000000652
                },
                {
                    "name": "C#6",
                    "midi": 85,
                    "time": 459.01954800001414,
                    "velocity": 0.44881889763779526,
                    "duration": 0.11653200000000652
                },
                {
                    "name": "D6",
                    "midi": 86,
                    "time": 459.13608000001415,
                    "velocity": 0.4409448818897638,
                    "duration": 0.11653200000000652
                },
                {
                    "name": "C#6",
                    "midi": 85,
                    "time": 459.25261200001415,
                    "velocity": 0.4409448818897638,
                    "duration": 0.11653200000000652
                },
                {
                    "name": "D6",
                    "midi": 86,
                    "time": 459.36914400001416,
                    "velocity": 0.44881889763779526,
                    "duration": 0.11653200000000652
                },
                {
                    "name": "C#6",
                    "midi": 85,
                    "time": 459.48567600001417,
                    "velocity": 0.4566929133858268,
                    "duration": 0.11653200000000652
                },
                {
                    "name": "D6",
                    "midi": 86,
                    "time": 459.6022080000142,
                    "velocity": 0.4645669291338583,
                    "duration": 0.11653200000000652
                },
                {
                    "name": "D#6",
                    "midi": 87,
                    "time": 459.7187400000142,
                    "velocity": 0.4645669291338583,
                    "duration": 0.11653200000000652
                },
                {
                    "name": "C6",
                    "midi": 84,
                    "time": 459.8352720000142,
                    "velocity": 0.47244094488188976,
                    "duration": 0.11653200000000652
                },
                {
                    "name": "D6",
                    "midi": 86,
                    "time": 459.9518040000142,
                    "velocity": 0.4566929133858268,
                    "duration": 0.11653200000000652
                },
                {
                    "name": "A#5",
                    "midi": 82,
                    "time": 460.0683360000142,
                    "velocity": 0.4881889763779528,
                    "duration": 0.11653200000000652
                },
                {
                    "name": "C6",
                    "midi": 84,
                    "time": 460.1848680000142,
                    "velocity": 0.47244094488188976,
                    "duration": 0.11653200000000652
                },
                {
                    "name": "A5",
                    "midi": 81,
                    "time": 460.3014000000142,
                    "velocity": 0.49606299212598426,
                    "duration": 0.11653200000000652
                },
                {
                    "name": "A#5",
                    "midi": 82,
                    "time": 460.4179320000142,
                    "velocity": 0.48031496062992124,
                    "duration": 0.11653200000000652
                },
                {
                    "name": "G5",
                    "midi": 79,
                    "time": 460.5344640000142,
                    "velocity": 0.5039370078740157,
                    "duration": 0.13983840000003056
                },
                {
                    "name": "A5",
                    "midi": 81,
                    "time": 460.65099600001423,
                    "velocity": 0.49606299212598426,
                    "duration": 0.13983840000003056
                },
                {
                    "name": "F5",
                    "midi": 77,
                    "time": 460.76752800001424,
                    "velocity": 0.5196850393700787,
                    "duration": 0.13983840000003056
                },
                {
                    "name": "G5",
                    "midi": 79,
                    "time": 460.88406000001424,
                    "velocity": 0.49606299212598426,
                    "duration": 0.13983840000003056
                },
                {
                    "name": "D#5",
                    "midi": 75,
                    "time": 461.00059200001425,
                    "velocity": 0.5275590551181102,
                    "duration": 0.13983840000003056
                },
                {
                    "name": "F5",
                    "midi": 77,
                    "time": 461.11712400001426,
                    "velocity": 0.4881889763779528,
                    "duration": 0.13983840000003056
                },
                {
                    "name": "D5",
                    "midi": 74,
                    "time": 461.23365600001426,
                    "velocity": 0.5433070866141733,
                    "duration": 0.13983840000003056
                },
                {
                    "name": "D#5",
                    "midi": 75,
                    "time": 461.35018800001427,
                    "velocity": 0.5039370078740157,
                    "duration": 0.13983840000003056
                },
                {
                    "name": "C#5",
                    "midi": 73,
                    "time": 461.4667200000143,
                    "velocity": 0.5511811023622047,
                    "duration": 0.11653200000000652
                },
                {
                    "name": "A#5",
                    "midi": 82,
                    "time": 461.6997840000143,
                    "velocity": 0.5433070866141733,
                    "duration": 0.23306400000001304
                },
                {
                    "name": "A5",
                    "midi": 81,
                    "time": 461.9328480000143,
                    "velocity": 0.5511811023622047,
                    "duration": 0.23306400000001304
                },
                {
                    "name": "G5",
                    "midi": 79,
                    "time": 462.1659120000143,
                    "velocity": 0.5354330708661418,
                    "duration": 0.23306400000001304
                },
                {
                    "name": "F#5",
                    "midi": 78,
                    "time": 462.39897600001433,
                    "velocity": 0.5590551181102362,
                    "duration": 0.05826600000000326
                },
                {
                    "name": "C#5",
                    "midi": 73,
                    "time": 462.51550800001434,
                    "velocity": 0.4094488188976378,
                    "duration": 0.11653200000000652
                },
                {
                    "name": "D5",
                    "midi": 74,
                    "time": 462.63204000001434,
                    "velocity": 0.44881889763779526,
                    "duration": 0.11653200000000652
                },
                {
                    "name": "C#5",
                    "midi": 73,
                    "time": 462.74857200001435,
                    "velocity": 0.4094488188976378,
                    "duration": 0.11653200000000652
                },
                {
                    "name": "D5",
                    "midi": 74,
                    "time": 462.86510400001436,
                    "velocity": 0.44881889763779526,
                    "duration": 0.11653200000000652
                },
                {
                    "name": "C#5",
                    "midi": 73,
                    "time": 462.98163600001436,
                    "velocity": 0.41732283464566927,
                    "duration": 0.11653200000000652
                },
                {
                    "name": "D5",
                    "midi": 74,
                    "time": 463.09816800001437,
                    "velocity": 0.44881889763779526,
                    "duration": 0.11653200000000652
                },
                {
                    "name": "C#5",
                    "midi": 73,
                    "time": 463.2147000000144,
                    "velocity": 0.41732283464566927,
                    "duration": 0.11653200000000652
                },
                {
                    "name": "D5",
                    "midi": 74,
                    "time": 463.3312320000144,
                    "velocity": 0.4251968503937008,
                    "duration": 0.11653200000000652
                },
                {
                    "name": "D#5",
                    "midi": 75,
                    "time": 463.4477640000144,
                    "velocity": 0.4015748031496063,
                    "duration": 0.11653200000000652
                },
                {
                    "name": "C5",
                    "midi": 72,
                    "time": 463.5642960000144,
                    "velocity": 0.41732283464566927,
                    "duration": 0.11653200000000652
                },
                {
                    "name": "D5",
                    "midi": 74,
                    "time": 463.6808280000144,
                    "velocity": 0.3858267716535433,
                    "duration": 0.11653200000000652
                },
                {
                    "name": "A#4",
                    "midi": 70,
                    "time": 463.7973600000144,
                    "velocity": 0.4094488188976378,
                    "duration": 0.11653200000000652
                },
                {
                    "name": "C5",
                    "midi": 72,
                    "time": 463.9138920000144,
                    "velocity": 0.3858267716535433,
                    "duration": 0.11653200000000652
                },
                {
                    "name": "A4",
                    "midi": 69,
                    "time": 464.0304240000144,
                    "velocity": 0.3937007874015748,
                    "duration": 0.11653200000000652
                },
                {
                    "name": "A#4",
                    "midi": 70,
                    "time": 464.1469560000144,
                    "velocity": 0.36220472440944884,
                    "duration": 0.11653200000000652
                },
                {
                    "name": "G4",
                    "midi": 67,
                    "time": 464.26348800001443,
                    "velocity": 0.3779527559055118,
                    "duration": 0.13983840000003056
                },
                {
                    "name": "A4",
                    "midi": 69,
                    "time": 464.38002000001444,
                    "velocity": 0.36220472440944884,
                    "duration": 0.13983840000003056
                },
                {
                    "name": "F4",
                    "midi": 65,
                    "time": 464.49655200001445,
                    "velocity": 0.36220472440944884,
                    "duration": 0.13983840000003056
                },
                {
                    "name": "G4",
                    "midi": 67,
                    "time": 464.61308400001445,
                    "velocity": 0.3543307086614173,
                    "duration": 0.13983840000003056
                },
                {
                    "name": "D#4",
                    "midi": 63,
                    "time": 464.72961600001446,
                    "velocity": 0.3543307086614173,
                    "duration": 0.13983840000003056
                },
                {
                    "name": "F4",
                    "midi": 65,
                    "time": 464.84614800001447,
                    "velocity": 0.3464566929133858,
                    "duration": 0.13983840000003056
                },
                {
                    "name": "D4",
                    "midi": 62,
                    "time": 464.9626800000145,
                    "velocity": 0.33858267716535434,
                    "duration": 0.13983840000003056
                },
                {
                    "name": "D#4",
                    "midi": 63,
                    "time": 465.0792120000145,
                    "velocity": 0.33070866141732286,
                    "duration": 0.13983840000003056
                },
                {
                    "name": "C#4",
                    "midi": 61,
                    "time": 465.1957440000145,
                    "velocity": 0.3228346456692913,
                    "duration": 0.11653200000000652
                },
                {
                    "name": "G4",
                    "midi": 67,
                    "time": 465.4288080000145,
                    "velocity": 0.3228346456692913,
                    "duration": 0.23306400000001304
                },
                {
                    "name": "A#4",
                    "midi": 70,
                    "time": 465.6618720000145,
                    "velocity": 0.3543307086614173,
                    "duration": 0.23306400000001304
                },
                {
                    "name": "C#4",
                    "midi": 61,
                    "time": 465.8949360000145,
                    "velocity": 0.33070866141732286,
                    "duration": 0.23306400000001304
                },
                {
                    "name": "D4",
                    "midi": 62,
                    "time": 466.12800000001454,
                    "velocity": 0.30708661417322836,
                    "duration": 0.11653200000000652
                },
                {
                    "name": "D5",
                    "midi": 74,
                    "time": 466.36106400001455,
                    "velocity": 0.36220472440944884,
                    "duration": 0.11653200000000652
                },
                {
                    "name": "D5",
                    "midi": 74,
                    "time": 466.8271920000146,
                    "velocity": 0.3858267716535433,
                    "duration": 0.23306400000001304
                },
                {
                    "name": "D5",
                    "midi": 74,
                    "time": 467.2933200000146,
                    "velocity": 0.36220472440944884,
                    "duration": 0.23306400000001304
                },
                {
                    "name": "D5",
                    "midi": 74,
                    "time": 467.75944800001463,
                    "velocity": 0.3779527559055118,
                    "duration": 0.23306400000001304
                },
                {
                    "name": "D5",
                    "midi": 74,
                    "time": 468.22557600001466,
                    "velocity": 0.33858267716535434,
                    "duration": 0.23306400000001304
                },
                {
                    "name": "C#5",
                    "midi": 73,
                    "time": 468.45864000001467,
                    "velocity": 0.36220472440944884,
                    "duration": 0.23306400000001304
                },
                {
                    "name": "D5",
                    "midi": 74,
                    "time": 468.6917040000147,
                    "velocity": 0.3858267716535433,
                    "duration": 0.23306400000001304
                },
                {
                    "name": "C#5",
                    "midi": 73,
                    "time": 468.9247680000147,
                    "velocity": 0.41732283464566927,
                    "duration": 0.23306400000001304
                },
                {
                    "name": "D5",
                    "midi": 74,
                    "time": 469.1578320000147,
                    "velocity": 0.4409448818897638,
                    "duration": 0.23306400000001304
                },
                {
                    "name": "C#5",
                    "midi": 73,
                    "time": 469.3908960000147,
                    "velocity": 0.47244094488188976,
                    "duration": 0.23306400000001304
                },
                {
                    "name": "D5",
                    "midi": 74,
                    "time": 469.62396000001473,
                    "velocity": 0.49606299212598426,
                    "duration": 0.23306400000001304
                },
                {
                    "name": "F5",
                    "midi": 77,
                    "time": 469.85702400001475,
                    "velocity": 0.5196850393700787,
                    "duration": 0.4661280000000261
                },
                {
                    "name": "D#5",
                    "midi": 75,
                    "time": 470.3231520000148,
                    "velocity": 0.5039370078740157,
                    "duration": 0.4661280000000261
                },
                {
                    "name": "D#5",
                    "midi": 75,
                    "time": 470.9058120000148,
                    "velocity": 0.41732283464566927,
                    "duration": 0.11653200000000652
                },
                {
                    "name": "D5",
                    "midi": 74,
                    "time": 471.0223440000148,
                    "velocity": 0.4409448818897638,
                    "duration": 0.11653200000000652
                },
                {
                    "name": "D#5",
                    "midi": 75,
                    "time": 471.1388760000148,
                    "velocity": 0.41732283464566927,
                    "duration": 0.11653200000000652
                },
                {
                    "name": "F5",
                    "midi": 77,
                    "time": 471.2554080000148,
                    "velocity": 0.4409448818897638,
                    "duration": 0.11653200000000652
                },
                {
                    "name": "D#5",
                    "midi": 75,
                    "time": 471.37194000001483,
                    "velocity": 0.4251968503937008,
                    "duration": 0.11653200000000652
                },
                {
                    "name": "D5",
                    "midi": 74,
                    "time": 471.48847200001484,
                    "velocity": 0.4409448818897638,
                    "duration": 0.11653200000000652
                },
                {
                    "name": "D#5",
                    "midi": 75,
                    "time": 471.60500400001484,
                    "velocity": 0.41732283464566927,
                    "duration": 0.11653200000000652
                },
                {
                    "name": "A#5",
                    "midi": 82,
                    "time": 471.72153600001485,
                    "velocity": 0.5511811023622047,
                    "duration": 0.4661280000000261
                },
                {
                    "name": "A5",
                    "midi": 81,
                    "time": 472.1876640000149,
                    "velocity": 0.5196850393700787,
                    "duration": 0.4661280000000261
                },
                {
                    "name": "A5",
                    "midi": 81,
                    "time": 472.7703240000149,
                    "velocity": 0.48031496062992124,
                    "duration": 0.11653200000000652
                },
                {
                    "name": "G5",
                    "midi": 79,
                    "time": 472.8868560000149,
                    "velocity": 0.49606299212598426,
                    "duration": 0.11653200000000652
                },
                {
                    "name": "A5",
                    "midi": 81,
                    "time": 473.0033880000149,
                    "velocity": 0.48031496062992124,
                    "duration": 0.11653200000000652
                },
                {
                    "name": "A#5",
                    "midi": 82,
                    "time": 473.11992000001493,
                    "velocity": 0.49606299212598426,
                    "duration": 0.11653200000000652
                },
                {
                    "name": "A5",
                    "midi": 81,
                    "time": 473.23645200001494,
                    "velocity": 0.48031496062992124,
                    "duration": 0.11653200000000652
                },
                {
                    "name": "G5",
                    "midi": 79,
                    "time": 473.35298400001494,
                    "velocity": 0.49606299212598426,
                    "duration": 0.11653200000000652
                },
                {
                    "name": "A5",
                    "midi": 81,
                    "time": 473.46951600001495,
                    "velocity": 0.48031496062992124,
                    "duration": 0.11653200000000652
                },
                {
                    "name": "F6",
                    "midi": 89,
                    "time": 473.58604800001496,
                    "velocity": 0.6062992125984252,
                    "duration": 0.4661280000000261
                },
                {
                    "name": "D#6",
                    "midi": 87,
                    "time": 474.052176000015,
                    "velocity": 0.5905511811023622,
                    "duration": 0.4661280000000261
                },
                {
                    "name": "D#6",
                    "midi": 87,
                    "time": 474.634836000015,
                    "velocity": 0.5196850393700787,
                    "duration": 0.11653200000000652
                },
                {
                    "name": "D6",
                    "midi": 86,
                    "time": 474.751368000015,
                    "velocity": 0.5354330708661418,
                    "duration": 0.11653200000000652
                },
                {
                    "name": "D#6",
                    "midi": 87,
                    "time": 474.867900000015,
                    "velocity": 0.5118110236220472,
                    "duration": 0.11653200000000652
                },
                {
                    "name": "F6",
                    "midi": 89,
                    "time": 474.98443200001503,
                    "velocity": 0.5354330708661418,
                    "duration": 0.11653200000000652
                },
                {
                    "name": "D#6",
                    "midi": 87,
                    "time": 475.10096400001504,
                    "velocity": 0.5118110236220472,
                    "duration": 0.11653200000000652
                },
                {
                    "name": "C#6",
                    "midi": 85,
                    "time": 475.21749600001505,
                    "velocity": 0.5354330708661418,
                    "duration": 0.11653200000000652
                },
                {
                    "name": "C6",
                    "midi": 84,
                    "time": 475.33402800001505,
                    "velocity": 0.5118110236220472,
                    "duration": 0.11653200000000652
                },
                {
                    "name": "A#5",
                    "midi": 82,
                    "time": 475.45056000001506,
                    "velocity": 0.6062992125984252,
                    "duration": 0.4661280000000261
                },
                {
                    "name": "A5",
                    "midi": 81,
                    "time": 475.9166880000151,
                    "velocity": 0.5433070866141733,
                    "duration": 0.4661280000000261
                },
                {
                    "name": "D#6",
                    "midi": 87,
                    "time": 476.4993480000151,
                    "velocity": 0.5275590551181102,
                    "duration": 0.13983840000003056
                },
                {
                    "name": "D6",
                    "midi": 86,
                    "time": 476.6158800000151,
                    "velocity": 0.5433070866141733,
                    "duration": 0.13983840000003056
                },
                {
                    "name": "D#6",
                    "midi": 87,
                    "time": 476.73241200001513,
                    "velocity": 0.5196850393700787,
                    "duration": 0.13983840000003056
                },
                {
                    "name": "F6",
                    "midi": 89,
                    "time": 476.84894400001514,
                    "velocity": 0.5511811023622047,
                    "duration": 0.13983840000003056
                },
                {
                    "name": "D#6",
                    "midi": 87,
                    "time": 476.96547600001514,
                    "velocity": 0.5275590551181102,
                    "duration": 0.13983840000003056
                },
                {
                    "name": "C#6",
                    "midi": 85,
                    "time": 477.08200800001515,
                    "velocity": 0.5354330708661418,
                    "duration": 0.13983840000003056
                },
                {
                    "name": "C6",
                    "midi": 84,
                    "time": 477.19854000001516,
                    "velocity": 0.5275590551181102,
                    "duration": 0.11653200000000652
                },
                {
                    "name": "A#5",
                    "midi": 82,
                    "time": 477.31507200001516,
                    "velocity": 0.5196850393700787,
                    "duration": 0.13983840000003056
                },
                {
                    "name": "A5",
                    "midi": 81,
                    "time": 477.43160400001517,
                    "velocity": 0.5118110236220472,
                    "duration": 0.13983840000003056
                },
                {
                    "name": "D#6",
                    "midi": 87,
                    "time": 477.5481360000152,
                    "velocity": 0.5433070866141733,
                    "duration": 0.13983840000003056
                },
                {
                    "name": "D6",
                    "midi": 86,
                    "time": 477.6646680000152,
                    "velocity": 0.5196850393700787,
                    "duration": 0.13983840000003056
                },
                {
                    "name": "F6",
                    "midi": 89,
                    "time": 477.7812000000152,
                    "velocity": 0.5590551181102362,
                    "duration": 0.13983840000003056
                },
                {
                    "name": "D#6",
                    "midi": 87,
                    "time": 477.8977320000152,
                    "velocity": 0.5354330708661418,
                    "duration": 0.13983840000003056
                },
                {
                    "name": "C#6",
                    "midi": 85,
                    "time": 478.0142640000152,
                    "velocity": 0.5433070866141733,
                    "duration": 0.13983840000003056
                },
                {
                    "name": "C6",
                    "midi": 84,
                    "time": 478.1307960000152,
                    "velocity": 0.5275590551181102,
                    "duration": 0.13983840000003056
                },
                {
                    "name": "A#5",
                    "midi": 82,
                    "time": 478.2473280000152,
                    "velocity": 0.5196850393700787,
                    "duration": 0.13983840000003056
                },
                {
                    "name": "A5",
                    "midi": 81,
                    "time": 478.3638600000152,
                    "velocity": 0.5118110236220472,
                    "duration": 0.13983840000003056
                },
                {
                    "name": "D#6",
                    "midi": 87,
                    "time": 478.48039200001523,
                    "velocity": 0.5511811023622047,
                    "duration": 0.13983840000003056
                },
                {
                    "name": "D6",
                    "midi": 86,
                    "time": 478.59692400001524,
                    "velocity": 0.5275590551181102,
                    "duration": 0.13983840000003056
                },
                {
                    "name": "F6",
                    "midi": 89,
                    "time": 478.71345600001524,
                    "velocity": 0.5590551181102362,
                    "duration": 0.13983840000003056
                },
                {
                    "name": "D#6",
                    "midi": 87,
                    "time": 478.82998800001525,
                    "velocity": 0.5354330708661418,
                    "duration": 0.13983840000003056
                },
                {
                    "name": "C#6",
                    "midi": 85,
                    "time": 478.94652000001525,
                    "velocity": 0.5511811023622047,
                    "duration": 0.13983840000003056
                },
                {
                    "name": "C6",
                    "midi": 84,
                    "time": 479.06305200001526,
                    "velocity": 0.5433070866141733,
                    "duration": 0.11653200000000652
                },
                {
                    "name": "A#5",
                    "midi": 82,
                    "time": 479.17958400001527,
                    "velocity": 0.5354330708661418,
                    "duration": 0.13983840000003056
                },
                {
                    "name": "A5",
                    "midi": 81,
                    "time": 479.2961160000153,
                    "velocity": 0.5275590551181102,
                    "duration": 0.13983840000003056
                },
                {
                    "name": "C6",
                    "midi": 84,
                    "time": 479.4126480000153,
                    "velocity": 0.5354330708661418,
                    "duration": 0.13983840000003056
                },
                {
                    "name": "B5",
                    "midi": 83,
                    "time": 479.5291800000153,
                    "velocity": 0.5039370078740157,
                    "duration": 0.13983840000003056
                },
                {
                    "name": "D6",
                    "midi": 86,
                    "time": 479.6457120000153,
                    "velocity": 0.5354330708661418,
                    "duration": 0.13983840000003056
                },
                {
                    "name": "C6",
                    "midi": 84,
                    "time": 479.7622440000153,
                    "velocity": 0.5275590551181102,
                    "duration": 0.13983840000003056
                },
                {
                    "name": "A#5",
                    "midi": 82,
                    "time": 479.8787760000153,
                    "velocity": 0.5118110236220472,
                    "duration": 0.13983840000003056
                },
                {
                    "name": "A5",
                    "midi": 81,
                    "time": 479.9953080000153,
                    "velocity": 0.49606299212598426,
                    "duration": 0.13983840000003056
                },
                {
                    "name": "G5",
                    "midi": 79,
                    "time": 480.1118400000153,
                    "velocity": 0.49606299212598426,
                    "duration": 0.13983840000003056
                },
                {
                    "name": "F5",
                    "midi": 77,
                    "time": 480.2283720000153,
                    "velocity": 0.48031496062992124,
                    "duration": 0.13983840000003056
                },
                {
                    "name": "G5",
                    "midi": 79,
                    "time": 480.34490400001533,
                    "velocity": 0.4645669291338583,
                    "duration": 0.13983840000003056
                },
                {
                    "name": "F#5",
                    "midi": 78,
                    "time": 480.46143600001534,
                    "velocity": 0.4566929133858268,
                    "duration": 0.13983840000003056
                },
                {
                    "name": "A5",
                    "midi": 81,
                    "time": 480.57796800001535,
                    "velocity": 0.4645669291338583,
                    "duration": 0.13983840000003056
                },
                {
                    "name": "G5",
                    "midi": 79,
                    "time": 480.69450000001535,
                    "velocity": 0.44881889763779526,
                    "duration": 0.13983840000003056
                },
                {
                    "name": "F5",
                    "midi": 77,
                    "time": 480.81103200001536,
                    "velocity": 0.4409448818897638,
                    "duration": 0.13983840000003056
                },
                {
                    "name": "D#5",
                    "midi": 75,
                    "time": 480.92756400001537,
                    "velocity": 0.4251968503937008,
                    "duration": 0.11653200000000652
                },
                {
                    "name": "D5",
                    "midi": 74,
                    "time": 481.0440960000154,
                    "velocity": 0.4094488188976378,
                    "duration": 0.23306400000001304
                },
                {
                    "name": "C5",
                    "midi": 72,
                    "time": 481.2771600000154,
                    "velocity": 0.4094488188976378,
                    "duration": 0.23306400000001304
                },
                {
                    "name": "D5",
                    "midi": 74,
                    "time": 481.5102240000154,
                    "velocity": 0.4251968503937008,
                    "duration": 0.11653200000000652
                },
                {
                    "name": "D#5",
                    "midi": 75,
                    "time": 481.7432880000154,
                    "velocity": 0.4409448818897638,
                    "duration": 0.11653200000000652
                },
                {
                    "name": "E5",
                    "midi": 76,
                    "time": 481.9763520000154,
                    "velocity": 0.4566929133858268,
                    "duration": 0.11653200000000652
                },
                {
                    "name": "F5",
                    "midi": 77,
                    "time": 482.20941600001544,
                    "velocity": 0.48031496062992124,
                    "duration": 0.11653200000000652
                },
                {
                    "name": "G5",
                    "midi": 79,
                    "time": 482.44248000001545,
                    "velocity": 0.44881889763779526,
                    "duration": 0.11653200000000652
                },
                {
                    "name": "F5",
                    "midi": 77,
                    "time": 482.55901200001546,
                    "velocity": 0.4409448818897638,
                    "duration": 0.11653200000000652
                },
                {
                    "name": "D#5",
                    "midi": 75,
                    "time": 482.67554400001546,
                    "velocity": 0.4251968503937008,
                    "duration": 0.11653200000000652
                },
                {
                    "name": "D5",
                    "midi": 74,
                    "time": 482.79207600001547,
                    "velocity": 0.4094488188976378,
                    "duration": 0.11653200000000652
                },
                {
                    "name": "C5",
                    "midi": 72,
                    "time": 482.9086080000155,
                    "velocity": 0.47244094488188976,
                    "duration": 0.23306400000001304
                },
                {
                    "name": "A#4",
                    "midi": 70,
                    "time": 483.1416720000155,
                    "velocity": 0.4251968503937008,
                    "duration": 0.2233529999999746
                },
                {
                    "name": "A#4",
                    "midi": 70,
                    "time": 483.37473600001545,
                    "velocity": 0.4015748031496063,
                    "duration": 0.6991919999999823
                },
                {
                    "name": "D5",
                    "midi": 74,
                    "time": 484.0739280000154,
                    "velocity": 0.44881889763779526,
                    "duration": 0.23306400000001304
                },
                {
                    "name": "G5",
                    "midi": 79,
                    "time": 484.30699200001544,
                    "velocity": 0.47244094488188976,
                    "duration": 0.23306400000001304
                },
                {
                    "name": "D5",
                    "midi": 74,
                    "time": 484.54005600001545,
                    "velocity": 0.4330708661417323,
                    "duration": 0.23306400000001304
                },
                {
                    "name": "F5",
                    "midi": 77,
                    "time": 484.77312000001547,
                    "velocity": 0.47244094488188976,
                    "duration": 0.4661280000000261
                },
                {
                    "name": "D#5",
                    "midi": 75,
                    "time": 485.2392480000155,
                    "velocity": 0.4409448818897638,
                    "duration": 0.6991919999999823
                },
                {
                    "name": "F5",
                    "midi": 77,
                    "time": 485.9384400000155,
                    "velocity": 0.47244094488188976,
                    "duration": 0.11653200000000652
                },
                {
                    "name": "G5",
                    "midi": 79,
                    "time": 486.0549720000155,
                    "velocity": 0.4409448818897638,
                    "duration": 0.11653200000000652
                },
                {
                    "name": "F5",
                    "midi": 77,
                    "time": 486.1715040000155,
                    "velocity": 0.48031496062992124,
                    "duration": 0.11653200000000652
                },
                {
                    "name": "D#5",
                    "midi": 75,
                    "time": 486.2880360000155,
                    "velocity": 0.4251968503937008,
                    "duration": 0.11653200000000652
                },
                {
                    "name": "D5",
                    "midi": 74,
                    "time": 486.4045680000155,
                    "velocity": 0.4566929133858268,
                    "duration": 0.11653200000000652
                },
                {
                    "name": "C5",
                    "midi": 72,
                    "time": 486.5211000000155,
                    "velocity": 0.41732283464566927,
                    "duration": 0.11653200000000652
                },
                {
                    "name": "A#4",
                    "midi": 70,
                    "time": 486.6376320000155,
                    "velocity": 0.5196850393700787,
                    "duration": 0.4661280000000261
                },
                {
                    "name": "A4",
                    "midi": 69,
                    "time": 487.10376000001554,
                    "velocity": 0.44881889763779526,
                    "duration": 0.6923942999999895
                },
                {
                    "name": "A4",
                    "midi": 69,
                    "time": 487.8029520000155,
                    "velocity": 0.4881889763779528,
                    "duration": 0.23306400000001304
                },
                {
                    "name": "A#4",
                    "midi": 70,
                    "time": 488.03601600001554,
                    "velocity": 0.5118110236220472,
                    "duration": 0.23306400000001304
                },
                {
                    "name": "C5",
                    "midi": 72,
                    "time": 488.26908000001555,
                    "velocity": 0.48031496062992124,
                    "duration": 0.2233529999999746
                },
                {
                    "name": "A4",
                    "midi": 69,
                    "time": 488.5021440000155,
                    "velocity": 0.4094488188976378,
                    "duration": 0.4661280000000261
                },
                {
                    "name": "C5",
                    "midi": 72,
                    "time": 488.5021440000155,
                    "velocity": 0.48031496062992124,
                    "duration": 0.4661280000000261
                },
                {
                    "name": "A#4",
                    "midi": 70,
                    "time": 488.96827200001553,
                    "velocity": 0.3858267716535433,
                    "duration": 0.4661280000000261
                },
                {
                    "name": "D5",
                    "midi": 74,
                    "time": 488.96827200001553,
                    "velocity": 0.4566929133858268,
                    "duration": 0.4661280000000261
                },
                {
                    "name": "F5",
                    "midi": 77,
                    "time": 489.66746400001557,
                    "velocity": 0.5039370078740157,
                    "duration": 0.11653200000000652
                },
                {
                    "name": "E5",
                    "midi": 76,
                    "time": 489.7839960000156,
                    "velocity": 0.49606299212598426,
                    "duration": 0.11653200000000652
                },
                {
                    "name": "G5",
                    "midi": 79,
                    "time": 489.9005280000156,
                    "velocity": 0.5196850393700787,
                    "duration": 0.11653200000000652
                },
                {
                    "name": "F5",
                    "midi": 77,
                    "time": 490.0170600000156,
                    "velocity": 0.49606299212598426,
                    "duration": 0.11653200000000652
                },
                {
                    "name": "D#5",
                    "midi": 75,
                    "time": 490.1335920000156,
                    "velocity": 0.49606299212598426,
                    "duration": 0.11653200000000652
                },
                {
                    "name": "D5",
                    "midi": 74,
                    "time": 490.2501240000156,
                    "velocity": 0.48031496062992124,
                    "duration": 0.10682100000002492
                },
                {
                    "name": "D5",
                    "midi": 74,
                    "time": 490.3666560000156,
                    "velocity": 0.5354330708661418,
                    "duration": 0.23306400000001304
                },
                {
                    "name": "C5",
                    "midi": 72,
                    "time": 490.5997200000156,
                    "velocity": 0.48031496062992124,
                    "duration": 0.4661280000000261
                },
                {
                    "name": "A#4",
                    "midi": 70,
                    "time": 491.06584800001565,
                    "velocity": 0.48031496062992124,
                    "duration": 0.23306400000001304
                },
                {
                    "name": "D5",
                    "midi": 74,
                    "time": 491.29891200001566,
                    "velocity": 0.5275590551181102,
                    "duration": 0.23306400000001304
                },
                {
                    "name": "C5",
                    "midi": 72,
                    "time": 491.5319760000157,
                    "velocity": 0.4881889763779528,
                    "duration": 0.4661280000000261
                },
                {
                    "name": "A4",
                    "midi": 69,
                    "time": 491.9981040000157,
                    "velocity": 0.5039370078740157,
                    "duration": 0.23306400000001304
                },
                {
                    "name": "A#4",
                    "midi": 70,
                    "time": 492.2311680000157,
                    "velocity": 0.5354330708661418,
                    "duration": 0.11653200000000652
                },
                {
                    "name": "C5",
                    "midi": 72,
                    "time": 492.3477000000157,
                    "velocity": 0.4645669291338583,
                    "duration": 0.11653200000000652
                },
                {
                    "name": "A#4",
                    "midi": 70,
                    "time": 492.4642320000157,
                    "velocity": 0.4881889763779528,
                    "duration": 0.11653200000000652
                },
                {
                    "name": "A4",
                    "midi": 69,
                    "time": 492.58076400001573,
                    "velocity": 0.4566929133858268,
                    "duration": 0.11653200000000652
                },
                {
                    "name": "A#4",
                    "midi": 70,
                    "time": 492.69729600001574,
                    "velocity": 0.5196850393700787,
                    "duration": 0.11653200000000652
                },
                {
                    "name": "C5",
                    "midi": 72,
                    "time": 492.81382800001575,
                    "velocity": 0.47244094488188976,
                    "duration": 0.11653200000000652
                },
                {
                    "name": "D5",
                    "midi": 74,
                    "time": 492.93036000001575,
                    "velocity": 0.49606299212598426,
                    "duration": 0.11653200000000652
                },
                {
                    "name": "D#5",
                    "midi": 75,
                    "time": 493.04689200001576,
                    "velocity": 0.48031496062992124,
                    "duration": 0.11653200000000652
                },
                {
                    "name": "E5",
                    "midi": 76,
                    "time": 493.16342400001577,
                    "velocity": 0.5433070866141733,
                    "duration": 0.11653200000000652
                },
                {
                    "name": "F5",
                    "midi": 77,
                    "time": 493.2799560000158,
                    "velocity": 0.5118110236220472,
                    "duration": 0.11653200000000652
                },
                {
                    "name": "E5",
                    "midi": 76,
                    "time": 493.3964880000158,
                    "velocity": 0.5433070866141733,
                    "duration": 0.11653200000000652
                },
                {
                    "name": "F5",
                    "midi": 77,
                    "time": 493.5130200000158,
                    "velocity": 0.5118110236220472,
                    "duration": 0.11653200000000652
                },
                {
                    "name": "G5",
                    "midi": 79,
                    "time": 493.6295520000158,
                    "velocity": 0.5433070866141733,
                    "duration": 0.11653200000000652
                },
                {
                    "name": "F5",
                    "midi": 77,
                    "time": 493.7460840000158,
                    "velocity": 0.5275590551181102,
                    "duration": 0.11653200000000652
                },
                {
                    "name": "D#5",
                    "midi": 75,
                    "time": 493.8626160000158,
                    "velocity": 0.5196850393700787,
                    "duration": 0.11653200000000652
                },
                {
                    "name": "D5",
                    "midi": 74,
                    "time": 493.9791480000158,
                    "velocity": 0.5118110236220472,
                    "duration": 0.10682100000002492
                },
                {
                    "name": "D5",
                    "midi": 74,
                    "time": 494.0956800000158,
                    "velocity": 0.5669291338582677,
                    "duration": 0.23306400000001304
                },
                {
                    "name": "C5",
                    "midi": 72,
                    "time": 494.32874400001583,
                    "velocity": 0.4251968503937008,
                    "duration": 0.2233529999999746
                },
                {
                    "name": "C5",
                    "midi": 72,
                    "time": 494.5618080000158,
                    "velocity": 0.4409448818897638,
                    "duration": 0.23306400000001304
                },
                {
                    "name": "A#4",
                    "midi": 70,
                    "time": 494.7948720000158,
                    "velocity": 0.4251968503937008,
                    "duration": 0.23306400000001304
                },
                {
                    "name": "D5",
                    "midi": 74,
                    "time": 495.0279360000158,
                    "velocity": 0.5118110236220472,
                    "duration": 0.23306400000001304
                },
                {
                    "name": "C5",
                    "midi": 72,
                    "time": 495.2610000000158,
                    "velocity": 0.4251968503937008,
                    "duration": 0.2233529999999746
                },
                {
                    "name": "C5",
                    "midi": 72,
                    "time": 495.4940640000158,
                    "velocity": 0.44881889763779526,
                    "duration": 0.23306400000001304
                },
                {
                    "name": "A4",
                    "midi": 69,
                    "time": 495.7271280000158,
                    "velocity": 0.41732283464566927,
                    "duration": 0.23306400000001304
                },
                {
                    "name": "A#4",
                    "midi": 70,
                    "time": 495.9601920000158,
                    "velocity": 0.5196850393700787,
                    "duration": 0.23306400000001304
                },
                {
                    "name": "C5",
                    "midi": 72,
                    "time": 496.1932560000158,
                    "velocity": 0.44881889763779526,
                    "duration": 0.11653200000000652
                },
                {
                    "name": "D5",
                    "midi": 74,
                    "time": 496.3097880000158,
                    "velocity": 0.4566929133858268,
                    "duration": 0.11653200000000652
                },
                {
                    "name": "D#5",
                    "midi": 75,
                    "time": 496.42632000001583,
                    "velocity": 0.4645669291338583,
                    "duration": 0.11653200000000652
                },
                {
                    "name": "F5",
                    "midi": 77,
                    "time": 496.54285200001584,
                    "velocity": 0.47244094488188976,
                    "duration": 0.11653200000000652
                },
                {
                    "name": "G5",
                    "midi": 79,
                    "time": 496.65938400001585,
                    "velocity": 0.48031496062992124,
                    "duration": 0.11653200000000652
                },
                {
                    "name": "A5",
                    "midi": 81,
                    "time": 496.77591600001585,
                    "velocity": 0.5039370078740157,
                    "duration": 0.11653200000000652
                },
                {
                    "name": "A#5",
                    "midi": 82,
                    "time": 496.89244800001586,
                    "velocity": 0.5196850393700787,
                    "duration": 0.11653200000000652
                },
                {
                    "name": "C6",
                    "midi": 84,
                    "time": 497.00898000001587,
                    "velocity": 0.5275590551181102,
                    "duration": 0.11653200000000652
                },
                {
                    "name": "D6",
                    "midi": 86,
                    "time": 497.1255120000159,
                    "velocity": 0.5354330708661418,
                    "duration": 0.11653200000000652
                },
                {
                    "name": "D#6",
                    "midi": 87,
                    "time": 497.2420440000159,
                    "velocity": 0.5433070866141733,
                    "duration": 0.11653200000000652
                },
                {
                    "name": "F6",
                    "midi": 89,
                    "time": 497.3585760000159,
                    "velocity": 0.5984251968503937,
                    "duration": 0.11653200000000652
                },
                {
                    "name": "F6",
                    "midi": 89,
                    "time": 497.5916400000159,
                    "velocity": 0.5905511811023622,
                    "duration": 0.11653200000000652
                },
                {
                    "name": "F5",
                    "midi": 77,
                    "time": 497.8247040000159,
                    "velocity": 0.5984251968503937,
                    "duration": 1.1653200000000652
                },
                {
                    "name": "F6",
                    "midi": 89,
                    "time": 497.8247040000159,
                    "velocity": 0.5984251968503937,
                    "duration": 0.23306400000001304
                },
                {
                    "name": "D#6",
                    "midi": 87,
                    "time": 498.0577680000159,
                    "velocity": 0.5826771653543307,
                    "duration": 0.4661280000000261
                },
                {
                    "name": "D6",
                    "midi": 86,
                    "time": 498.52389600001595,
                    "velocity": 0.5748031496062992,
                    "duration": 0.23306400000001304
                },
                {
                    "name": "D6",
                    "midi": 86,
                    "time": 498.75696000001597,
                    "velocity": 0.5905511811023622,
                    "duration": 0.23306400000001304
                },
                {
                    "name": "D#5",
                    "midi": 75,
                    "time": 498.990024000016,
                    "velocity": 0.5039370078740157,
                    "duration": 0.11653200000000652
                },
                {
                    "name": "C6",
                    "midi": 84,
                    "time": 498.990024000016,
                    "velocity": 0.5039370078740157,
                    "duration": 0.11653200000000652
                },
                {
                    "name": "D5",
                    "midi": 74,
                    "time": 499.223088000016,
                    "velocity": 0.5669291338582677,
                    "duration": 0.11653200000000652
                },
                {
                    "name": "A#5",
                    "midi": 82,
                    "time": 499.223088000016,
                    "velocity": 0.5669291338582677,
                    "duration": 0.11653200000000652
                },
                {
                    "name": "C5",
                    "midi": 72,
                    "time": 499.456152000016,
                    "velocity": 0.5039370078740157,
                    "duration": 0.11653200000000652
                },
                {
                    "name": "A5",
                    "midi": 81,
                    "time": 499.456152000016,
                    "velocity": 0.5039370078740157,
                    "duration": 0.11653200000000652
                },
                {
                    "name": "A#5",
                    "midi": 82,
                    "time": 499.689216000016,
                    "velocity": 0.5984251968503937,
                    "duration": 0.23306400000001304
                },
                {
                    "name": "D5",
                    "midi": 74,
                    "time": 499.689216000016,
                    "velocity": 0.5984251968503937,
                    "duration": 0.23306400000001304
                },
                {
                    "name": "A#4",
                    "midi": 70,
                    "time": 500.15534400001604,
                    "velocity": 0.5669291338582677,
                    "duration": 0.23306400000001304
                },
                {
                    "name": "G4",
                    "midi": 67,
                    "time": 501.08760000001604,
                    "velocity": 0.4094488188976378,
                    "duration": 0.11653200000000652
                },
                {
                    "name": "F4",
                    "midi": 65,
                    "time": 501.20413200001605,
                    "velocity": 0.3779527559055118,
                    "duration": 0.11653200000000652
                },
                {
                    "name": "D#4",
                    "midi": 63,
                    "time": 501.32066400001605,
                    "velocity": 0.4094488188976378,
                    "duration": 0.11653200000000652
                },
                {
                    "name": "D4",
                    "midi": 62,
                    "time": 501.43719600001606,
                    "velocity": 0.3779527559055118,
                    "duration": 0.11653200000000652
                },
                {
                    "name": "C4",
                    "midi": 60,
                    "time": 501.55372800001606,
                    "velocity": 0.4409448818897638,
                    "duration": 0.23306400000001304
                },
                {
                    "name": "A#3",
                    "midi": 58,
                    "time": 501.7867920000161,
                    "velocity": 0.41732283464566927,
                    "duration": 0.23306400000001304
                },
                {
                    "name": "A#3",
                    "midi": 58,
                    "time": 502.0198560000161,
                    "velocity": 0.41732283464566927,
                    "duration": 0.6991919999999823
                },
                {
                    "name": "A#4",
                    "midi": 70,
                    "time": 502.7190480000161,
                    "velocity": 0.4251968503937008,
                    "duration": 0.11653200000000652
                },
                {
                    "name": "A#4",
                    "midi": 70,
                    "time": 502.9521120000161,
                    "velocity": 0.4251968503937008,
                    "duration": 0.23306400000001304
                },
                {
                    "name": "C5",
                    "midi": 72,
                    "time": 503.1851760000161,
                    "velocity": 0.4015748031496063,
                    "duration": 0.23306400000001304
                },
                {
                    "name": "A#4",
                    "midi": 70,
                    "time": 503.4182400000161,
                    "velocity": 0.48031496062992124,
                    "duration": 0.23306400000001304
                },
                {
                    "name": "A4",
                    "midi": 69,
                    "time": 503.6513040000161,
                    "velocity": 0.41732283464566927,
                    "duration": 0.23306400000001304
                },
                {
                    "name": "G#4",
                    "midi": 68,
                    "time": 503.88436800001614,
                    "velocity": 0.4015748031496063,
                    "duration": 0.6894810000000007
                },
                {
                    "name": "G#4",
                    "midi": 68,
                    "time": 504.5835600000161,
                    "velocity": 0.4566929133858268,
                    "duration": 0.2233529999999746
                },
                {
                    "name": "G#4",
                    "midi": 68,
                    "time": 504.8166240000161,
                    "velocity": 0.5118110236220472,
                    "duration": 0.2233529999999746
                },
                {
                    "name": "G#4",
                    "midi": 68,
                    "time": 505.04968800001603,
                    "velocity": 0.5669291338582677,
                    "duration": 0.23306400000001304
                },
                {
                    "name": "G#5",
                    "midi": 80,
                    "time": 505.28275200001605,
                    "velocity": 0.6141732283464567,
                    "duration": 0.11653200000000652
                },
                {
                    "name": "A#5",
                    "midi": 82,
                    "time": 505.39928400001605,
                    "velocity": 0.5590551181102362,
                    "duration": 0.11653200000000652
                },
                {
                    "name": "G5",
                    "midi": 79,
                    "time": 505.51581600001606,
                    "velocity": 0.6141732283464567,
                    "duration": 0.11653200000000652
                },
                {
                    "name": "G#5",
                    "midi": 80,
                    "time": 505.63234800001607,
                    "velocity": 0.5511811023622047,
                    "duration": 0.11653200000000652
                },
                {
                    "name": "F5",
                    "midi": 77,
                    "time": 505.7488800000161,
                    "velocity": 0.6220472440944882,
                    "duration": 0.11653200000000652
                },
                {
                    "name": "G5",
                    "midi": 79,
                    "time": 505.8654120000161,
                    "velocity": 0.5433070866141733,
                    "duration": 0.11653200000000652
                },
                {
                    "name": "D#5",
                    "midi": 75,
                    "time": 505.9819440000161,
                    "velocity": 0.6062992125984252,
                    "duration": 0.11653200000000652
                },
                {
                    "name": "F5",
                    "midi": 77,
                    "time": 506.0984760000161,
                    "velocity": 0.5511811023622047,
                    "duration": 0.11653200000000652
                },
                {
                    "name": "D5",
                    "midi": 74,
                    "time": 506.2150080000161,
                    "velocity": 0.6220472440944882,
                    "duration": 0.11653200000000652
                },
                {
                    "name": "D#5",
                    "midi": 75,
                    "time": 506.3315400000161,
                    "velocity": 0.5511811023622047,
                    "duration": 0.11653200000000652
                },
                {
                    "name": "C5",
                    "midi": 72,
                    "time": 506.4480720000161,
                    "velocity": 0.5905511811023622,
                    "duration": 0.11653200000000652
                },
                {
                    "name": "D5",
                    "midi": 74,
                    "time": 506.5646040000161,
                    "velocity": 0.5433070866141733,
                    "duration": 0.11653200000000652
                },
                {
                    "name": "A#4",
                    "midi": 70,
                    "time": 506.6811360000161,
                    "velocity": 0.5984251968503937,
                    "duration": 0.11653200000000652
                },
                {
                    "name": "C5",
                    "midi": 72,
                    "time": 506.79766800001613,
                    "velocity": 0.5511811023622047,
                    "duration": 0.11653200000000652
                },
                {
                    "name": "G#4",
                    "midi": 68,
                    "time": 506.91420000001614,
                    "velocity": 0.5669291338582677,
                    "duration": 0.11653200000000652
                },
                {
                    "name": "A#4",
                    "midi": 70,
                    "time": 507.03073200001614,
                    "velocity": 0.5275590551181102,
                    "duration": 0.11653200000000652
                },
                {
                    "name": "G#4",
                    "midi": 68,
                    "time": 507.14726400001615,
                    "velocity": 0.5669291338582677,
                    "duration": 0.23306400000001304
                },
                {
                    "name": "G4",
                    "midi": 67,
                    "time": 507.38032800001616,
                    "velocity": 0.5275590551181102,
                    "duration": 0.2233529999999746
                },
                {
                    "name": "G4",
                    "midi": 67,
                    "time": 507.6133920000161,
                    "velocity": 0.4645669291338583,
                    "duration": 0.6991919999999823
                },
                {
                    "name": "G5",
                    "midi": 79,
                    "time": 508.3125840000161,
                    "velocity": 0.4251968503937008,
                    "duration": 0.11653200000000652
                },
                {
                    "name": "G5",
                    "midi": 79,
                    "time": 508.5456480000161,
                    "velocity": 0.47244094488188976,
                    "duration": 0.23306400000001304
                },
                {
                    "name": "F5",
                    "midi": 77,
                    "time": 508.7787120000161,
                    "velocity": 0.4251968503937008,
                    "duration": 0.2233529999999746
                },
                {
                    "name": "F5",
                    "midi": 77,
                    "time": 509.0117760000161,
                    "velocity": 0.49606299212598426,
                    "duration": 0.23306400000001304
                },
                {
                    "name": "E5",
                    "midi": 76,
                    "time": 509.2448400000161,
                    "velocity": 0.4251968503937008,
                    "duration": 0.2233529999999746
                },
                {
                    "name": "E5",
                    "midi": 76,
                    "time": 509.47790400001605,
                    "velocity": 0.4251968503937008,
                    "duration": 0.6991919999999823
                },
                {
                    "name": "C#6",
                    "midi": 85,
                    "time": 510.17709600001604,
                    "velocity": 0.4645669291338583,
                    "duration": 0.11653200000000652
                },
                {
                    "name": "C#6",
                    "midi": 85,
                    "time": 510.41016000001605,
                    "velocity": 0.48031496062992124,
                    "duration": 0.23306400000001304
                },
                {
                    "name": "E5",
                    "midi": 76,
                    "time": 510.64322400001606,
                    "velocity": 0.4409448818897638,
                    "duration": 0.23306400000001304
                },
                {
                    "name": "G5",
                    "midi": 79,
                    "time": 510.8762880000161,
                    "velocity": 0.48031496062992124,
                    "duration": 0.23306400000001304
                },
                {
                    "name": "F5",
                    "midi": 77,
                    "time": 511.1093520000161,
                    "velocity": 0.4251968503937008,
                    "duration": 0.2233529999999746
                },
                {
                    "name": "F5",
                    "midi": 77,
                    "time": 511.34241600001604,
                    "velocity": 0.4251968503937008,
                    "duration": 0.6991919999999823
                },
                {
                    "name": "F#5",
                    "midi": 78,
                    "time": 512.041608000016,
                    "velocity": 0.4094488188976378,
                    "duration": 0.23306400000001304
                },
                {
                    "name": "G5",
                    "midi": 79,
                    "time": 512.274672000016,
                    "velocity": 0.4251968503937008,
                    "duration": 0.23306400000001304
                },
                {
                    "name": "D#5",
                    "midi": 75,
                    "time": 512.507736000016,
                    "velocity": 0.4094488188976378,
                    "duration": 0.23306400000001304
                },
                {
                    "name": "C#5",
                    "midi": 73,
                    "time": 512.7408000000161,
                    "velocity": 0.44881889763779526,
                    "duration": 0.23306400000001304
                },
                {
                    "name": "D5",
                    "midi": 74,
                    "time": 512.9738640000161,
                    "velocity": 0.4094488188976378,
                    "duration": 0.2233529999999746
                },
                {
                    "name": "D5",
                    "midi": 74,
                    "time": 513.2069280000161,
                    "velocity": 0.4094488188976378,
                    "duration": 0.4661280000000261
                },
                {
                    "name": "F5",
                    "midi": 77,
                    "time": 513.9061200000161,
                    "velocity": 0.4251968503937008,
                    "duration": 0.23306400000001304
                },
                {
                    "name": "G5",
                    "midi": 79,
                    "time": 514.1391840000161,
                    "velocity": 0.48031496062992124,
                    "duration": 0.11653200000000652
                },
                {
                    "name": "F5",
                    "midi": 77,
                    "time": 514.2557160000162,
                    "velocity": 0.44881889763779526,
                    "duration": 0.11653200000000652
                },
                {
                    "name": "D#5",
                    "midi": 75,
                    "time": 514.3722480000162,
                    "velocity": 0.48031496062992124,
                    "duration": 0.11653200000000652
                },
                {
                    "name": "D5",
                    "midi": 74,
                    "time": 514.4887800000162,
                    "velocity": 0.4409448818897638,
                    "duration": 0.11653200000000652
                },
                {
                    "name": "C5",
                    "midi": 72,
                    "time": 514.6053120000162,
                    "velocity": 0.48031496062992124,
                    "duration": 0.6991920000000391
                },
                {
                    "name": "A4",
                    "midi": 69,
                    "time": 515.3045040000162,
                    "velocity": 0.4094488188976378,
                    "duration": 0.23306400000001304
                },
                {
                    "name": "A#4",
                    "midi": 70,
                    "time": 515.5375680000162,
                    "velocity": 0.4094488188976378,
                    "duration": 0.05826600000000326
                },
                {
                    "name": "F5",
                    "midi": 77,
                    "time": 515.6541000000162,
                    "velocity": 0.4409448818897638,
                    "duration": 0.13983840000003056
                },
                {
                    "name": "E5",
                    "midi": 76,
                    "time": 515.7706320000162,
                    "velocity": 0.4409448818897638,
                    "duration": 0.13983840000003056
                },
                {
                    "name": "F5",
                    "midi": 77,
                    "time": 515.8871640000162,
                    "velocity": 0.4094488188976378,
                    "duration": 0.13983840000003056
                },
                {
                    "name": "G5",
                    "midi": 79,
                    "time": 516.0036960000162,
                    "velocity": 0.49606299212598426,
                    "duration": 0.13983840000003056
                },
                {
                    "name": "F5",
                    "midi": 77,
                    "time": 516.1202280000163,
                    "velocity": 0.4251968503937008,
                    "duration": 0.13983840000003056
                },
                {
                    "name": "D#5",
                    "midi": 75,
                    "time": 516.2367600000163,
                    "velocity": 0.4645669291338583,
                    "duration": 0.13983840000003056
                },
                {
                    "name": "D5",
                    "midi": 74,
                    "time": 516.3532920000163,
                    "velocity": 0.41732283464566927,
                    "duration": 0.13983840000003056
                },
                {
                    "name": "C5",
                    "midi": 72,
                    "time": 516.4698240000163,
                    "velocity": 0.49606299212598426,
                    "duration": 0.11653200000000652
                },
                {
                    "name": "C5",
                    "midi": 72,
                    "time": 516.7028880000163,
                    "velocity": 0.49606299212598426,
                    "duration": 0.4661280000000261
                },
                {
                    "name": "A4",
                    "midi": 69,
                    "time": 517.1690160000163,
                    "velocity": 0.4251968503937008,
                    "duration": 0.23306400000001304
                },
                {
                    "name": "A#4",
                    "midi": 70,
                    "time": 517.4020800000163,
                    "velocity": 0.4251968503937008,
                    "duration": 0.05826600000000326
                },
                {
                    "name": "F5",
                    "midi": 77,
                    "time": 517.5186120000163,
                    "velocity": 0.4015748031496063,
                    "duration": 0.13983840000003056
                },
                {
                    "name": "E5",
                    "midi": 76,
                    "time": 517.6351440000163,
                    "velocity": 0.4409448818897638,
                    "duration": 0.13983840000003056
                },
                {
                    "name": "F5",
                    "midi": 77,
                    "time": 517.7516760000163,
                    "velocity": 0.41732283464566927,
                    "duration": 0.13983840000003056
                },
                {
                    "name": "G5",
                    "midi": 79,
                    "time": 517.8682080000164,
                    "velocity": 0.4881889763779528,
                    "duration": 0.13983840000003056
                },
                {
                    "name": "F5",
                    "midi": 77,
                    "time": 517.9847400000164,
                    "velocity": 0.41732283464566927,
                    "duration": 0.13983840000003056
                },
                {
                    "name": "D#5",
                    "midi": 75,
                    "time": 518.1012720000164,
                    "velocity": 0.44881889763779526,
                    "duration": 0.13983840000003056
                },
                {
                    "name": "D5",
                    "midi": 74,
                    "time": 518.2178040000164,
                    "velocity": 0.4251968503937008,
                    "duration": 0.10682099999996808
                },
                {
                    "name": "D5",
                    "midi": 74,
                    "time": 518.3343360000164,
                    "velocity": 0.49606299212598426,
                    "duration": 0.23306400000001304
                },
                {
                    "name": "C5",
                    "midi": 72,
                    "time": 518.5674000000164,
                    "velocity": 0.47244094488188976,
                    "duration": 0.23306400000001304
                },
                {
                    "name": "C5",
                    "midi": 72,
                    "time": 519.0335280000164,
                    "velocity": 0.4645669291338583,
                    "duration": 0.23306400000001304
                },
                {
                    "name": "C5",
                    "midi": 72,
                    "time": 519.2665920000164,
                    "velocity": 0.49606299212598426,
                    "duration": 0.23306400000001304
                },
                {
                    "name": "A#4",
                    "midi": 70,
                    "time": 519.4996560000164,
                    "velocity": 0.4645669291338583,
                    "duration": 0.23306400000001304
                },
                {
                    "name": "A#4",
                    "midi": 70,
                    "time": 519.9657840000165,
                    "velocity": 0.4094488188976378,
                    "duration": 0.23306400000001304
                },
                {
                    "name": "A4",
                    "midi": 69,
                    "time": 520.1988480000165,
                    "velocity": 0.5039370078740157,
                    "duration": 0.11653200000000652
                },
                {
                    "name": "A#4",
                    "midi": 70,
                    "time": 520.3153800000165,
                    "velocity": 0.4566929133858268,
                    "duration": 0.11653200000000652
                },
                {
                    "name": "A4",
                    "midi": 69,
                    "time": 520.4319120000165,
                    "velocity": 0.4881889763779528,
                    "duration": 0.11653200000000652
                },
                {
                    "name": "F4",
                    "midi": 65,
                    "time": 520.5484440000165,
                    "velocity": 0.4566929133858268,
                    "duration": 0.11653200000000652
                },
                {
                    "name": "A#4",
                    "midi": 70,
                    "time": 520.6649760000165,
                    "velocity": 0.5433070866141733,
                    "duration": 0.11653200000000652
                },
                {
                    "name": "C5",
                    "midi": 72,
                    "time": 520.7815080000165,
                    "velocity": 0.4881889763779528,
                    "duration": 0.11653200000000652
                },
                {
                    "name": "A#4",
                    "midi": 70,
                    "time": 520.8980400000165,
                    "velocity": 0.5275590551181102,
                    "duration": 0.11653200000000652
                },
                {
                    "name": "F4",
                    "midi": 65,
                    "time": 521.0145720000165,
                    "velocity": 0.4645669291338583,
                    "duration": 0.11653200000000652
                },
                {
                    "name": "C5",
                    "midi": 72,
                    "time": 521.1311040000165,
                    "velocity": 0.5511811023622047,
                    "duration": 0.11653200000000652
                },
                {
                    "name": "D5",
                    "midi": 74,
                    "time": 521.2476360000165,
                    "velocity": 0.5039370078740157,
                    "duration": 0.11653200000000652
                },
                {
                    "name": "C5",
                    "midi": 72,
                    "time": 521.3641680000165,
                    "velocity": 0.5433070866141733,
                    "duration": 0.11653200000000652
                },
                {
                    "name": "F4",
                    "midi": 65,
                    "time": 521.4807000000166,
                    "velocity": 0.49606299212598426,
                    "duration": 0.11653200000000652
                },
                {
                    "name": "D5",
                    "midi": 74,
                    "time": 521.5972320000166,
                    "velocity": 0.6062992125984252,
                    "duration": 0.11653200000000652
                },
                {
                    "name": "D#5",
                    "midi": 75,
                    "time": 521.7137640000166,
                    "velocity": 0.5275590551181102,
                    "duration": 0.11653200000000652
                },
                {
                    "name": "D5",
                    "midi": 74,
                    "time": 521.8302960000166,
                    "velocity": 0.5669291338582677,
                    "duration": 0.11653200000000652
                },
                {
                    "name": "F4",
                    "midi": 65,
                    "time": 521.9468280000166,
                    "velocity": 0.5275590551181102,
                    "duration": 0.11653200000000652
                },
                {
                    "name": "D#5",
                    "midi": 75,
                    "time": 522.0633600000166,
                    "velocity": 0.6141732283464567,
                    "duration": 0.11653200000000652
                },
                {
                    "name": "D#5",
                    "midi": 75,
                    "time": 522.2964240000166,
                    "velocity": 0.6141732283464567,
                    "duration": 0.11653200000000652
                },
                {
                    "name": "C5",
                    "midi": 72,
                    "time": 522.7625520000166,
                    "velocity": 0.5748031496062992,
                    "duration": 0.11653200000000652
                },
                {
                    "name": "D#5",
                    "midi": 75,
                    "time": 522.9956160000166,
                    "velocity": 0.6220472440944882,
                    "duration": 0.23306400000001304
                },
                {
                    "name": "D5",
                    "midi": 74,
                    "time": 523.2286800000167,
                    "velocity": 0.5669291338582677,
                    "duration": 0.11653200000000652
                },
                {
                    "name": "C5",
                    "midi": 72,
                    "time": 523.4617440000167,
                    "velocity": 0.5826771653543307,
                    "duration": 0.11653200000000652
                },
                {
                    "name": "A#4",
                    "midi": 70,
                    "time": 523.6948080000167,
                    "velocity": 0.5590551181102362,
                    "duration": 0.11653200000000652
                },
                {
                    "name": "A4",
                    "midi": 69,
                    "time": 523.9278720000167,
                    "velocity": 0.5275590551181102,
                    "duration": 0.11653200000000652
                },
                {
                    "name": "F4",
                    "midi": 65,
                    "time": 524.0444040000167,
                    "velocity": 0.4645669291338583,
                    "duration": 0.11653200000000652
                },
                {
                    "name": "E5",
                    "midi": 76,
                    "time": 524.1609360000167,
                    "velocity": 0.48031496062992124,
                    "duration": 0.11653200000000652
                },
                {
                    "name": "F5",
                    "midi": 77,
                    "time": 524.2774680000167,
                    "velocity": 0.4645669291338583,
                    "duration": 0.11653200000000652
                },
                {
                    "name": "A#4",
                    "midi": 70,
                    "time": 524.3940000000167,
                    "velocity": 0.5511811023622047,
                    "duration": 0.11653200000000652
                },
                {
                    "name": "F4",
                    "midi": 65,
                    "time": 524.5105320000167,
                    "velocity": 0.4645669291338583,
                    "duration": 0.11653200000000652
                },
                {
                    "name": "E5",
                    "midi": 76,
                    "time": 524.6270640000167,
                    "velocity": 0.5196850393700787,
                    "duration": 0.11653200000000652
                },
                {
                    "name": "F5",
                    "midi": 77,
                    "time": 524.7435960000167,
                    "velocity": 0.48031496062992124,
                    "duration": 0.11653200000000652
                },
                {
                    "name": "C5",
                    "midi": 72,
                    "time": 524.8601280000167,
                    "velocity": 0.5826771653543307,
                    "duration": 0.11653200000000652
                },
                {
                    "name": "F4",
                    "midi": 65,
                    "time": 524.9766600000168,
                    "velocity": 0.5039370078740157,
                    "duration": 0.11653200000000652
                },
                {
                    "name": "E5",
                    "midi": 76,
                    "time": 525.0931920000168,
                    "velocity": 0.5433070866141733,
                    "duration": 0.11653200000000652
                },
                {
                    "name": "F5",
                    "midi": 77,
                    "time": 525.2097240000168,
                    "velocity": 0.4881889763779528,
                    "duration": 0.11653200000000652
                },
                {
                    "name": "D5",
                    "midi": 74,
                    "time": 525.3262560000168,
                    "velocity": 0.6220472440944882,
                    "duration": 0.11653200000000652
                },
                {
                    "name": "F4",
                    "midi": 65,
                    "time": 525.4427880000168,
                    "velocity": 0.5433070866141733,
                    "duration": 0.11653200000000652
                },
                {
                    "name": "E5",
                    "midi": 76,
                    "time": 525.5593200000168,
                    "velocity": 0.5748031496062992,
                    "duration": 0.11653200000000652
                },
                {
                    "name": "F5",
                    "midi": 77,
                    "time": 525.6758520000168,
                    "velocity": 0.5433070866141733,
                    "duration": 0.11653200000000652
                },
                {
                    "name": "D#5",
                    "midi": 75,
                    "time": 525.7923840000168,
                    "velocity": 0.6220472440944882,
                    "duration": 0.11653200000000652
                },
                {
                    "name": "D#5",
                    "midi": 75,
                    "time": 526.0254480000168,
                    "velocity": 0.6220472440944882,
                    "duration": 0.11653200000000652
                },
                {
                    "name": "C5",
                    "midi": 72,
                    "time": 526.4915760000168,
                    "velocity": 0.44881889763779526,
                    "duration": 0.05826600000000326
                },
                {
                    "name": "D5",
                    "midi": 74,
                    "time": 526.5469287000168,
                    "velocity": 0.4094488188976378,
                    "duration": 0.05826600000000326
                },
                {
                    "name": "C5",
                    "midi": 72,
                    "time": 526.6081080000168,
                    "velocity": 0.44881889763779526,
                    "duration": 0.05826600000000326
                },
                {
                    "name": "D5",
                    "midi": 74,
                    "time": 526.6663740000168,
                    "velocity": 0.4094488188976378,
                    "duration": 0.05826600000000326
                },
                {
                    "name": "D#5",
                    "midi": 75,
                    "time": 526.7246400000168,
                    "velocity": 0.5669291338582677,
                    "duration": 0.23306400000001304
                },
                {
                    "name": "D5",
                    "midi": 74,
                    "time": 526.9577040000169,
                    "velocity": 0.5590551181102362,
                    "duration": 0.11653200000000652
                },
                {
                    "name": "C5",
                    "midi": 72,
                    "time": 527.1907680000169,
                    "velocity": 0.5590551181102362,
                    "duration": 0.11653200000000652
                },
                {
                    "name": "A#4",
                    "midi": 70,
                    "time": 527.4238320000169,
                    "velocity": 0.5354330708661418,
                    "duration": 0.11653200000000652
                },
                {
                    "name": "A4",
                    "midi": 69,
                    "time": 527.6568960000169,
                    "velocity": 0.6141732283464567,
                    "duration": 0.11653200000000652
                },
                {
                    "name": "F5",
                    "midi": 77,
                    "time": 527.7734280000169,
                    "velocity": 0.5433070866141733,
                    "duration": 0.11653200000000652
                },
                {
                    "name": "C5",
                    "midi": 72,
                    "time": 527.8899600000169,
                    "velocity": 0.5748031496062992,
                    "duration": 0.11653200000000652
                },
                {
                    "name": "A4",
                    "midi": 69,
                    "time": 528.0064920000169,
                    "velocity": 0.5511811023622047,
                    "duration": 0.11653200000000652
                },
                {
                    "name": "F4",
                    "midi": 65,
                    "time": 528.1230240000169,
                    "velocity": 0.6062992125984252,
                    "duration": 0.11653200000000652
                },
                {
                    "name": "C4",
                    "midi": 60,
                    "time": 528.2395560000169,
                    "velocity": 0.5433070866141733,
                    "duration": 0.11653200000000652
                },
                {
                    "name": "A3",
                    "midi": 57,
                    "time": 528.3560880000169,
                    "velocity": 0.5511811023622047,
                    "duration": 0.11653200000000652
                },
                {
                    "name": "F3",
                    "midi": 53,
                    "time": 528.472620000017,
                    "velocity": 0.5275590551181102,
                    "duration": 0.11653200000000652
                },
                {
                    "name": "F3",
                    "midi": 53,
                    "time": 529.521408000017,
                    "velocity": 0.5669291338582677,
                    "duration": 0.6991920000000391
                },
                {
                    "name": "A#3",
                    "midi": 58,
                    "time": 529.521408000017,
                    "velocity": 0.5669291338582677,
                    "duration": 0.6991920000000391
                },
                {
                    "name": "D4",
                    "midi": 62,
                    "time": 529.521408000017,
                    "velocity": 0.5669291338582677,
                    "duration": 0.6991920000000391
                },
                {
                    "name": "F4",
                    "midi": 65,
                    "time": 529.521408000017,
                    "velocity": 0.5669291338582677,
                    "duration": 0.6991920000000391
                },
                {
                    "name": "G4",
                    "midi": 67,
                    "time": 530.220600000017,
                    "velocity": 0.3779527559055118,
                    "duration": 0.11653200000000652
                },
                {
                    "name": "F4",
                    "midi": 65,
                    "time": 530.337132000017,
                    "velocity": 0.3543307086614173,
                    "duration": 0.11653200000000652
                },
                {
                    "name": "D#4",
                    "midi": 63,
                    "time": 530.453664000017,
                    "velocity": 0.4094488188976378,
                    "duration": 0.11653200000000652
                },
                {
                    "name": "D4",
                    "midi": 62,
                    "time": 530.6867280000171,
                    "velocity": 0.3779527559055118,
                    "duration": 0.11653200000000652
                },
                {
                    "name": "C4",
                    "midi": 60,
                    "time": 530.9197920000171,
                    "velocity": 0.4094488188976378,
                    "duration": 0.11653200000000652
                },
                {
                    "name": "A#3",
                    "midi": 58,
                    "time": 531.1528560000171,
                    "velocity": 0.3779527559055118,
                    "duration": 0.11653200000000652
                },
                {
                    "name": "A#3",
                    "midi": 58,
                    "time": 531.3859200000171,
                    "velocity": 0.4251968503937008,
                    "duration": 0.23306400000001304
                },
                {
                    "name": "G4",
                    "midi": 67,
                    "time": 531.6189840000171,
                    "velocity": 0.3858267716535433,
                    "duration": 0.2233529999999746
                },
                {
                    "name": "A#3",
                    "midi": 58,
                    "time": 531.8520480000171,
                    "velocity": 0.5669291338582677,
                    "duration": 0.6991920000000391
                },
                {
                    "name": "G4",
                    "midi": 67,
                    "time": 531.8520480000171,
                    "velocity": 0.5669291338582677,
                    "duration": 0.6991920000000391
                },
                {
                    "name": "F4",
                    "midi": 65,
                    "time": 532.5512400000172,
                    "velocity": 0.41732283464566927,
                    "duration": 0.23306400000001304
                },
                {
                    "name": "A4",
                    "midi": 69,
                    "time": 532.7843040000172,
                    "velocity": 0.41732283464566927,
                    "duration": 0.23306400000001304
                },
                {
                    "name": "A#4",
                    "midi": 70,
                    "time": 533.0173680000172,
                    "velocity": 0.4094488188976378,
                    "duration": 0.2233529999999746
                },
                {
                    "name": "A#4",
                    "midi": 70,
                    "time": 533.2504320000172,
                    "velocity": 0.48031496062992124,
                    "duration": 0.23306400000001304
                },
                {
                    "name": "C4",
                    "midi": 60,
                    "time": 533.4834960000172,
                    "velocity": 0.41732283464566927,
                    "duration": 0.4661280000000261
                },
                {
                    "name": "D4",
                    "midi": 62,
                    "time": 533.9496240000173,
                    "velocity": 0.41732283464566927,
                    "duration": 0.23306400000001304
                },
                {
                    "name": "A#4",
                    "midi": 70,
                    "time": 534.1826880000173,
                    "velocity": 0.48031496062992124,
                    "duration": 0.23306400000001304
                },
                {
                    "name": "C4",
                    "midi": 60,
                    "time": 534.4157520000173,
                    "velocity": 0.4015748031496063,
                    "duration": 0.4661280000000261
                },
                {
                    "name": "D4",
                    "midi": 62,
                    "time": 534.8818800000173,
                    "velocity": 0.41732283464566927,
                    "duration": 0.23306400000001304
                },
                {
                    "name": "F4",
                    "midi": 65,
                    "time": 535.1149440000173,
                    "velocity": 0.4566929133858268,
                    "duration": 0.4661280000000261
                },
                {
                    "name": "D#4",
                    "midi": 63,
                    "time": 535.5810720000173,
                    "velocity": 0.4094488188976378,
                    "duration": 0.05826600000000326
                },
                {
                    "name": "F4",
                    "midi": 65,
                    "time": 535.6393380000173,
                    "velocity": 0.3700787401574803,
                    "duration": 0.05826600000000326
                },
                {
                    "name": "D#4",
                    "midi": 63,
                    "time": 535.6976040000173,
                    "velocity": 0.4094488188976378,
                    "duration": 0.05826600000000326
                },
                {
                    "name": "F4",
                    "midi": 65,
                    "time": 535.7558700000174,
                    "velocity": 0.3858267716535433,
                    "duration": 0.05826600000000326
                },
                {
                    "name": "D#4",
                    "midi": 63,
                    "time": 535.8141360000174,
                    "velocity": 0.4094488188976378,
                    "duration": 0.03884400000004007
                },
                {
                    "name": "F4",
                    "midi": 65,
                    "time": 535.8529800000174,
                    "velocity": 0.3858267716535433,
                    "duration": 0.03884400000004007
                },
                {
                    "name": "D#4",
                    "midi": 63,
                    "time": 535.8918240000174,
                    "velocity": 0.3858267716535433,
                    "duration": 0.03884400000004007
                },
                {
                    "name": "D4",
                    "midi": 62,
                    "time": 535.9306680000175,
                    "velocity": 0.4094488188976378,
                    "duration": 0.05826600000000326
                },
                {
                    "name": "D#4",
                    "midi": 63,
                    "time": 535.9889340000175,
                    "velocity": 0.3779527559055118,
                    "duration": 0.05826600000000326
                },
                {
                    "name": "D4",
                    "midi": 62,
                    "time": 536.0472000000175,
                    "velocity": 0.44881889763779526,
                    "duration": 0.11653200000000652
                },
                {
                    "name": "D4",
                    "midi": 62,
                    "time": 536.2802640000175,
                    "velocity": 0.4015748031496063,
                    "duration": 0.23306400000001304
                },
                {
                    "name": "D#4",
                    "midi": 63,
                    "time": 536.5133280000175,
                    "velocity": 0.41732283464566927,
                    "duration": 0.23306400000001304
                },
                {
                    "name": "F4",
                    "midi": 65,
                    "time": 536.7463920000175,
                    "velocity": 0.4015748031496063,
                    "duration": 0.23306400000001304
                },
                {
                    "name": "F#4",
                    "midi": 66,
                    "time": 536.9794560000175,
                    "velocity": 0.5118110236220472,
                    "duration": 0.23306400000001304
                },
                {
                    "name": "G4",
                    "midi": 67,
                    "time": 537.2125200000175,
                    "velocity": 0.4251968503937008,
                    "duration": 0.4661280000000261
                },
                {
                    "name": "F4",
                    "midi": 65,
                    "time": 537.6786480000176,
                    "velocity": 0.41732283464566927,
                    "duration": 0.11653200000000652
                },
                {
                    "name": "D#4",
                    "midi": 63,
                    "time": 537.7951800000176,
                    "velocity": 0.3937007874015748,
                    "duration": 0.11653200000000652
                },
                {
                    "name": "D4",
                    "midi": 62,
                    "time": 537.9117120000176,
                    "velocity": 0.4251968503937008,
                    "duration": 0.23306400000001304
                },
                {
                    "name": "C4",
                    "midi": 60,
                    "time": 538.1447760000176,
                    "velocity": 0.4015748031496063,
                    "duration": 0.23306400000001304
                },
                {
                    "name": "D4",
                    "midi": 62,
                    "time": 538.3778400000176,
                    "velocity": 0.4094488188976378,
                    "duration": 0.23306400000001304
                },
                {
                    "name": "D#4",
                    "midi": 63,
                    "time": 538.6109040000176,
                    "velocity": 0.4015748031496063,
                    "duration": 0.23306400000001304
                },
                {
                    "name": "G4",
                    "midi": 67,
                    "time": 538.8439680000176,
                    "velocity": 0.49606299212598426,
                    "duration": 0.23306400000001304
                },
                {
                    "name": "F4",
                    "midi": 65,
                    "time": 539.0770320000177,
                    "velocity": 0.41732283464566927,
                    "duration": 0.4661280000000261
                },
                {
                    "name": "D#4",
                    "midi": 63,
                    "time": 539.5431600000177,
                    "velocity": 0.4251968503937008,
                    "duration": 0.11653200000000652
                },
                {
                    "name": "D4",
                    "midi": 62,
                    "time": 539.6596920000177,
                    "velocity": 0.3858267716535433,
                    "duration": 0.11653200000000652
                },
                {
                    "name": "C4",
                    "midi": 60,
                    "time": 539.7762240000177,
                    "velocity": 0.4409448818897638,
                    "duration": 0.23306400000001304
                },
                {
                    "name": "A#3",
                    "midi": 58,
                    "time": 540.0092880000177,
                    "velocity": 0.4094488188976378,
                    "duration": 0.23306400000001304
                },
                {
                    "name": "C4",
                    "midi": 60,
                    "time": 540.2423520000177,
                    "velocity": 0.4251968503937008,
                    "duration": 0.23306400000001304
                },
                {
                    "name": "D4",
                    "midi": 62,
                    "time": 540.4754160000177,
                    "velocity": 0.3937007874015748,
                    "duration": 0.23306400000001304
                },
                {
                    "name": "F4",
                    "midi": 65,
                    "time": 540.7084800000177,
                    "velocity": 0.49606299212598426,
                    "duration": 0.23306400000001304
                },
                {
                    "name": "D#4",
                    "midi": 63,
                    "time": 540.9415440000178,
                    "velocity": 0.4015748031496063,
                    "duration": 0.4661280000000261
                },
                {
                    "name": "C4",
                    "midi": 60,
                    "time": 541.4076720000178,
                    "velocity": 0.4015748031496063,
                    "duration": 0.23306400000001304
                },
                {
                    "name": "D#4",
                    "midi": 63,
                    "time": 541.6407360000178,
                    "velocity": 0.4881889763779528,
                    "duration": 0.23306400000001304
                },
                {
                    "name": "D4",
                    "midi": 62,
                    "time": 541.8738000000178,
                    "velocity": 0.4094488188976378,
                    "duration": 0.4661280000000261
                },
                {
                    "name": "A#3",
                    "midi": 58,
                    "time": 542.3399280000178,
                    "velocity": 0.4094488188976378,
                    "duration": 0.23306400000001304
                },
                {
                    "name": "A3",
                    "midi": 57,
                    "time": 542.5729920000178,
                    "velocity": 0.3779527559055118,
                    "duration": 0.13983840000003056
                },
                {
                    "name": "A#3",
                    "midi": 58,
                    "time": 542.6895240000179,
                    "velocity": 0.3858267716535433,
                    "duration": 0.13983840000003056
                },
                {
                    "name": "B3",
                    "midi": 59,
                    "time": 542.8060560000179,
                    "velocity": 0.3937007874015748,
                    "duration": 0.13983840000003056
                },
                {
                    "name": "C4",
                    "midi": 60,
                    "time": 542.9225880000179,
                    "velocity": 0.4015748031496063,
                    "duration": 0.13983840000003056
                },
                {
                    "name": "C#4",
                    "midi": 61,
                    "time": 543.0391200000179,
                    "velocity": 0.4094488188976378,
                    "duration": 0.13983840000003056
                },
                {
                    "name": "D4",
                    "midi": 62,
                    "time": 543.1556520000179,
                    "velocity": 0.41732283464566927,
                    "duration": 0.13983840000003056
                },
                {
                    "name": "D#4",
                    "midi": 63,
                    "time": 543.2721840000179,
                    "velocity": 0.4251968503937008,
                    "duration": 0.13983840000003056
                },
                {
                    "name": "E4",
                    "midi": 64,
                    "time": 543.3887160000179,
                    "velocity": 0.4251968503937008,
                    "duration": 0.13983840000003056
                },
                {
                    "name": "F4",
                    "midi": 65,
                    "time": 543.5052480000179,
                    "velocity": 0.4409448818897638,
                    "duration": 0.4661280000000261
                },
                {
                    "name": "F4",
                    "midi": 65,
                    "time": 544.437504000018,
                    "velocity": 0.5748031496062992,
                    "duration": 0.6991920000000391
                },
                {
                    "name": "A#4",
                    "midi": 70,
                    "time": 544.437504000018,
                    "velocity": 0.5748031496062992,
                    "duration": 0.6991920000000391
                },
                {
                    "name": "D5",
                    "midi": 74,
                    "time": 544.437504000018,
                    "velocity": 0.5748031496062992,
                    "duration": 0.6991920000000391
                },
                {
                    "name": "F5",
                    "midi": 77,
                    "time": 544.437504000018,
                    "velocity": 0.5748031496062992,
                    "duration": 0.6991920000000391
                },
                {
                    "name": "G5",
                    "midi": 79,
                    "time": 545.136696000018,
                    "velocity": 0.4015748031496063,
                    "duration": 0.11653200000000652
                },
                {
                    "name": "F5",
                    "midi": 77,
                    "time": 545.253228000018,
                    "velocity": 0.3858267716535433,
                    "duration": 0.11653200000000652
                },
                {
                    "name": "D#5",
                    "midi": 75,
                    "time": 545.369760000018,
                    "velocity": 0.44881889763779526,
                    "duration": 0.11653200000000652
                },
                {
                    "name": "D5",
                    "midi": 74,
                    "time": 545.602824000018,
                    "velocity": 0.3937007874015748,
                    "duration": 0.11653200000000652
                },
                {
                    "name": "C5",
                    "midi": 72,
                    "time": 545.835888000018,
                    "velocity": 0.3937007874015748,
                    "duration": 0.11653200000000652
                },
                {
                    "name": "A#4",
                    "midi": 70,
                    "time": 546.068952000018,
                    "velocity": 0.3700787401574803,
                    "duration": 0.11653200000000652
                },
                {
                    "name": "A#4",
                    "midi": 70,
                    "time": 546.302016000018,
                    "velocity": 0.41732283464566927,
                    "duration": 0.23306400000001304
                },
                {
                    "name": "G5",
                    "midi": 79,
                    "time": 546.5350800000181,
                    "velocity": 0.3937007874015748,
                    "duration": 0.2233529999999746
                },
                {
                    "name": "A#4",
                    "midi": 70,
                    "time": 546.7681440000181,
                    "velocity": 0.5039370078740157,
                    "duration": 0.6991920000000391
                },
                {
                    "name": "G5",
                    "midi": 79,
                    "time": 546.7681440000181,
                    "velocity": 0.5590551181102362,
                    "duration": 0.6991920000000391
                },
                {
                    "name": "F5",
                    "midi": 77,
                    "time": 547.4673360000181,
                    "velocity": 0.41732283464566927,
                    "duration": 0.23306400000001304
                },
                {
                    "name": "A5",
                    "midi": 81,
                    "time": 547.7004000000181,
                    "velocity": 0.5196850393700787,
                    "duration": 0.23306400000001304
                },
                {
                    "name": "A#5",
                    "midi": 82,
                    "time": 547.9334640000181,
                    "velocity": 0.49606299212598426,
                    "duration": 0.4661280000000261
                },
                {
                    "name": "C5",
                    "midi": 72,
                    "time": 548.3995920000182,
                    "velocity": 0.41732283464566927,
                    "duration": 0.23306400000001304
                },
                {
                    "name": "D5",
                    "midi": 74,
                    "time": 548.6326560000182,
                    "velocity": 0.41732283464566927,
                    "duration": 0.23306400000001304
                },
                {
                    "name": "A#5",
                    "midi": 82,
                    "time": 548.8657200000182,
                    "velocity": 0.5354330708661418,
                    "duration": 0.4661280000000261
                },
                {
                    "name": "C5",
                    "midi": 72,
                    "time": 549.3318480000182,
                    "velocity": 0.41732283464566927,
                    "duration": 0.23306400000001304
                },
                {
                    "name": "D5",
                    "midi": 74,
                    "time": 549.5649120000182,
                    "velocity": 0.41732283464566927,
                    "duration": 0.23306400000001304
                },
                {
                    "name": "A#5",
                    "midi": 82,
                    "time": 549.7979760000183,
                    "velocity": 0.5275590551181102,
                    "duration": 0.11653200000000652
                },
                {
                    "name": "F5",
                    "midi": 77,
                    "time": 550.0310400000183,
                    "velocity": 0.4251968503937008,
                    "duration": 0.4661280000000261
                },
                {
                    "name": "E5",
                    "midi": 76,
                    "time": 550.4971680000183,
                    "velocity": 0.41732283464566927,
                    "duration": 0.23306400000001304
                },
                {
                    "name": "D#5",
                    "midi": 75,
                    "time": 550.7302320000183,
                    "velocity": 0.41732283464566927,
                    "duration": 0.23306400000001304
                },
                {
                    "name": "D5",
                    "midi": 74,
                    "time": 550.9632960000183,
                    "velocity": 0.3779527559055118,
                    "duration": 0.11653200000000652
                },
                {
                    "name": "D5",
                    "midi": 74,
                    "time": 551.1963600000183,
                    "velocity": 0.4251968503937008,
                    "duration": 0.23306400000001304
                },
                {
                    "name": "D#5",
                    "midi": 75,
                    "time": 551.4294240000183,
                    "velocity": 0.47244094488188976,
                    "duration": 0.23306400000001304
                },
                {
                    "name": "F5",
                    "midi": 77,
                    "time": 551.6624880000184,
                    "velocity": 0.5039370078740157,
                    "duration": 0.23306400000001304
                },
                {
                    "name": "G5",
                    "midi": 79,
                    "time": 551.8955520000184,
                    "velocity": 0.5511811023622047,
                    "duration": 0.6991920000000391
                },
                {
                    "name": "A5",
                    "midi": 81,
                    "time": 552.5947440000184,
                    "velocity": 0.5511811023622047,
                    "duration": 0.11653200000000652
                },
                {
                    "name": "B5",
                    "midi": 83,
                    "time": 552.7112760000184,
                    "velocity": 0.5275590551181102,
                    "duration": 0.11653200000000652
                },
                {
                    "name": "C6",
                    "midi": 84,
                    "time": 552.8278080000184,
                    "velocity": 0.5511811023622047,
                    "duration": 0.11653200000000652
                },
                {
                    "name": "D6",
                    "midi": 86,
                    "time": 552.9443400000184,
                    "velocity": 0.5275590551181102,
                    "duration": 0.11653200000000652
                },
                {
                    "name": "D#6",
                    "midi": 87,
                    "time": 553.0608720000184,
                    "velocity": 0.5511811023622047,
                    "duration": 0.11653200000000652
                },
                {
                    "name": "D6",
                    "midi": 86,
                    "time": 553.1774040000184,
                    "velocity": 0.5196850393700787,
                    "duration": 0.11653200000000652
                },
                {
                    "name": "C6",
                    "midi": 84,
                    "time": 553.2939360000184,
                    "velocity": 0.5511811023622047,
                    "duration": 0.11653200000000652
                },
                {
                    "name": "D6",
                    "midi": 86,
                    "time": 553.4104680000185,
                    "velocity": 0.5275590551181102,
                    "duration": 0.11653200000000652
                },
                {
                    "name": "A#5",
                    "midi": 82,
                    "time": 553.5270000000185,
                    "velocity": 0.5511811023622047,
                    "duration": 0.11653200000000652
                },
                {
                    "name": "C6",
                    "midi": 84,
                    "time": 553.6435320000185,
                    "velocity": 0.5275590551181102,
                    "duration": 0.11653200000000652
                },
                {
                    "name": "A5",
                    "midi": 81,
                    "time": 553.7600640000185,
                    "velocity": 0.5433070866141733,
                    "duration": 0.11653200000000652
                },
                {
                    "name": "A#5",
                    "midi": 82,
                    "time": 553.8765960000185,
                    "velocity": 0.5196850393700787,
                    "duration": 0.11653200000000652
                },
                {
                    "name": "G5",
                    "midi": 79,
                    "time": 553.9931280000185,
                    "velocity": 0.5433070866141733,
                    "duration": 0.11653200000000652
                },
                {
                    "name": "A5",
                    "midi": 81,
                    "time": 554.1096600000185,
                    "velocity": 0.5039370078740157,
                    "duration": 0.11653200000000652
                },
                {
                    "name": "F5",
                    "midi": 77,
                    "time": 554.2261920000185,
                    "velocity": 0.5590551181102362,
                    "duration": 0.11653200000000652
                },
                {
                    "name": "G5",
                    "midi": 79,
                    "time": 554.3427240000185,
                    "velocity": 0.5275590551181102,
                    "duration": 0.11653200000000652
                },
                {
                    "name": "D#5",
                    "midi": 75,
                    "time": 554.4592560000185,
                    "velocity": 0.5590551181102362,
                    "duration": 0.11653200000000652
                },
                {
                    "name": "F5",
                    "midi": 77,
                    "time": 554.5757880000185,
                    "velocity": 0.5275590551181102,
                    "duration": 0.11653200000000652
                },
                {
                    "name": "D5",
                    "midi": 74,
                    "time": 554.6923200000185,
                    "velocity": 0.5354330708661418,
                    "duration": 0.11653200000000652
                },
                {
                    "name": "D#5",
                    "midi": 75,
                    "time": 554.8088520000185,
                    "velocity": 0.5039370078740157,
                    "duration": 0.11653200000000652
                },
                {
                    "name": "F5",
                    "midi": 77,
                    "time": 554.9253840000185,
                    "velocity": 0.5354330708661418,
                    "duration": 0.11653200000000652
                },
                {
                    "name": "G5",
                    "midi": 79,
                    "time": 555.0419160000185,
                    "velocity": 0.5118110236220472,
                    "duration": 0.11653200000000652
                },
                {
                    "name": "A5",
                    "midi": 81,
                    "time": 555.1584480000186,
                    "velocity": 0.5511811023622047,
                    "duration": 0.11653200000000652
                },
                {
                    "name": "A#5",
                    "midi": 82,
                    "time": 555.2749800000186,
                    "velocity": 0.5196850393700787,
                    "duration": 0.11653200000000652
                },
                {
                    "name": "A5",
                    "midi": 81,
                    "time": 555.3915120000186,
                    "velocity": 0.5433070866141733,
                    "duration": 0.11653200000000652
                },
                {
                    "name": "A#5",
                    "midi": 82,
                    "time": 555.5080440000186,
                    "velocity": 0.5118110236220472,
                    "duration": 0.11653200000000652
                },
                {
                    "name": "C6",
                    "midi": 84,
                    "time": 555.6245760000186,
                    "velocity": 0.5669291338582677,
                    "duration": 0.11653200000000652
                },
                {
                    "name": "A#5",
                    "midi": 82,
                    "time": 555.7411080000186,
                    "velocity": 0.5511811023622047,
                    "duration": 0.11653200000000652
                },
                {
                    "name": "A5",
                    "midi": 81,
                    "time": 555.8576400000186,
                    "velocity": 0.5433070866141733,
                    "duration": 0.11653200000000652
                },
                {
                    "name": "G5",
                    "midi": 79,
                    "time": 555.9741720000186,
                    "velocity": 0.5275590551181102,
                    "duration": 0.11653200000000652
                },
                {
                    "name": "A5",
                    "midi": 81,
                    "time": 556.0907040000186,
                    "velocity": 0.5669291338582677,
                    "duration": 0.11653200000000652
                },
                {
                    "name": "G5",
                    "midi": 79,
                    "time": 556.2072360000186,
                    "velocity": 0.5511811023622047,
                    "duration": 0.11653200000000652
                },
                {
                    "name": "F5",
                    "midi": 77,
                    "time": 556.3237680000186,
                    "velocity": 0.5433070866141733,
                    "duration": 0.11653200000000652
                },
                {
                    "name": "D#5",
                    "midi": 75,
                    "time": 556.4403000000186,
                    "velocity": 0.5275590551181102,
                    "duration": 0.11653200000000652
                },
                {
                    "name": "D5",
                    "midi": 74,
                    "time": 556.5568320000186,
                    "velocity": 0.5590551181102362,
                    "duration": 0.4661280000000261
                },
                {
                    "name": "C5",
                    "midi": 72,
                    "time": 557.0229600000187,
                    "velocity": 0.4566929133858268,
                    "duration": 0.05826600000000326
                },
                {
                    "name": "A4",
                    "midi": 69,
                    "time": 557.0229600000187,
                    "velocity": 0.4566929133858268,
                    "duration": 0.46612800000013976
                },
                {
                    "name": "D5",
                    "midi": 74,
                    "time": 557.0812260000187,
                    "velocity": 0.4251968503937008,
                    "duration": 0.05826600000000326
                },
                {
                    "name": "C5",
                    "midi": 72,
                    "time": 557.1394920000187,
                    "velocity": 0.4566929133858268,
                    "duration": 0.05826600000000326
                },
                {
                    "name": "D5",
                    "midi": 74,
                    "time": 557.1977580000187,
                    "velocity": 0.41732283464566927,
                    "duration": 0.05826600000000326
                },
                {
                    "name": "C5",
                    "midi": 72,
                    "time": 557.2560240000187,
                    "velocity": 0.4566929133858268,
                    "duration": 0.03884400000004007
                },
                {
                    "name": "D5",
                    "midi": 74,
                    "time": 557.2948680000187,
                    "velocity": 0.4251968503937008,
                    "duration": 0.03884400000004007
                },
                {
                    "name": "C5",
                    "midi": 72,
                    "time": 557.3337120000187,
                    "velocity": 0.4251968503937008,
                    "duration": 0.03884400000004007
                },
                {
                    "name": "A#4",
                    "midi": 70,
                    "time": 557.3725560000188,
                    "velocity": 0.5196850393700787,
                    "duration": 0.05826600000000326
                },
                {
                    "name": "C5",
                    "midi": 72,
                    "time": 557.4308220000188,
                    "velocity": 0.4881889763779528,
                    "duration": 0.05826600000000326
                },
                {
                    "name": "A#4",
                    "midi": 70,
                    "time": 557.4890880000188,
                    "velocity": 0.5905511811023622,
                    "duration": 0.4661280000000261
                },
                {
                    "name": "D#5",
                    "midi": 75,
                    "time": 559.3536000000188,
                    "velocity": 0.6692913385826772,
                    "duration": 0.23306400000001304
                },
                {
                    "name": "C5",
                    "midi": 72,
                    "time": 559.5866640000188,
                    "velocity": 0.4409448818897638,
                    "duration": 0.11653200000000652
                },
                {
                    "name": "A4",
                    "midi": 69,
                    "time": 559.8197280000188,
                    "velocity": 0.4881889763779528,
                    "duration": 0.11653200000000652
                },
                {
                    "name": "A4",
                    "midi": 69,
                    "time": 560.0527920000188,
                    "velocity": 0.4409448818897638,
                    "duration": 0.11653200000000652
                },
                {
                    "name": "D#5",
                    "midi": 75,
                    "time": 560.2858560000188,
                    "velocity": 0.6692913385826772,
                    "duration": 0.23306400000001304
                },
                {
                    "name": "C5",
                    "midi": 72,
                    "time": 560.5189200000189,
                    "velocity": 0.4251968503937008,
                    "duration": 0.11653200000000652
                },
                {
                    "name": "A4",
                    "midi": 69,
                    "time": 560.7519840000189,
                    "velocity": 0.47244094488188976,
                    "duration": 0.11653200000000652
                },
                {
                    "name": "A4",
                    "midi": 69,
                    "time": 560.9850480000189,
                    "velocity": 0.4251968503937008,
                    "duration": 0.11653200000000652
                },
                {
                    "name": "A#4",
                    "midi": 70,
                    "time": 561.2181120000189,
                    "velocity": 0.4881889763779528,
                    "duration": 0.11653200000000652
                },
                {
                    "name": "C5",
                    "midi": 72,
                    "time": 561.4511760000189,
                    "velocity": 0.49606299212598426,
                    "duration": 0.11653200000000652
                },
                {
                    "name": "D5",
                    "midi": 74,
                    "time": 561.6842400000189,
                    "velocity": 0.5039370078740157,
                    "duration": 0.11653200000000652
                },
                {
                    "name": "D#5",
                    "midi": 75,
                    "time": 561.9173040000189,
                    "velocity": 0.5196850393700787,
                    "duration": 0.11653200000000652
                },
                {
                    "name": "E5",
                    "midi": 76,
                    "time": 562.150368000019,
                    "velocity": 0.6929133858267716,
                    "duration": 0.23306400000001304
                },
                {
                    "name": "F5",
                    "midi": 77,
                    "time": 562.383432000019,
                    "velocity": 0.5905511811023622,
                    "duration": 0.23306400000001304
                },
                {
                    "name": "E5",
                    "midi": 76,
                    "time": 562.616496000019,
                    "velocity": 0.6850393700787402,
                    "duration": 0.23306400000001304
                },
                {
                    "name": "F5",
                    "midi": 77,
                    "time": 562.849560000019,
                    "velocity": 0.5905511811023622,
                    "duration": 0.23306400000001304
                },
                {
                    "name": "D#6",
                    "midi": 87,
                    "time": 563.082624000019,
                    "velocity": 0.7637795275590551,
                    "duration": 0.23306400000001304
                },
                {
                    "name": "D#5",
                    "midi": 75,
                    "time": 563.082624000019,
                    "velocity": 0.6456692913385826,
                    "duration": 0.23306400000001304
                },
                {
                    "name": "C6",
                    "midi": 84,
                    "time": 563.315688000019,
                    "velocity": 0.44881889763779526,
                    "duration": 0.11653200000000652
                },
                {
                    "name": "C5",
                    "midi": 72,
                    "time": 563.315688000019,
                    "velocity": 0.3779527559055118,
                    "duration": 0.11653200000000652
                },
                {
                    "name": "A5",
                    "midi": 81,
                    "time": 563.548752000019,
                    "velocity": 0.4881889763779528,
                    "duration": 0.11653200000000652
                },
                {
                    "name": "A4",
                    "midi": 69,
                    "time": 563.548752000019,
                    "velocity": 0.4094488188976378,
                    "duration": 0.11653200000000652
                },
                {
                    "name": "A5",
                    "midi": 81,
                    "time": 563.781816000019,
                    "velocity": 0.4409448818897638,
                    "duration": 0.11653200000000652
                },
                {
                    "name": "A4",
                    "midi": 69,
                    "time": 563.781816000019,
                    "velocity": 0.3700787401574803,
                    "duration": 0.11653200000000652
                },
                {
                    "name": "D#6",
                    "midi": 87,
                    "time": 564.014880000019,
                    "velocity": 0.7637795275590551,
                    "duration": 0.23306400000001304
                },
                {
                    "name": "D#5",
                    "midi": 75,
                    "time": 564.014880000019,
                    "velocity": 0.6456692913385826,
                    "duration": 0.23306400000001304
                },
                {
                    "name": "C6",
                    "midi": 84,
                    "time": 564.2479440000191,
                    "velocity": 0.4251968503937008,
                    "duration": 0.11653200000000652
                },
                {
                    "name": "C5",
                    "midi": 72,
                    "time": 564.2479440000191,
                    "velocity": 0.3543307086614173,
                    "duration": 0.11653200000000652
                },
                {
                    "name": "A5",
                    "midi": 81,
                    "time": 564.4810080000191,
                    "velocity": 0.47244094488188976,
                    "duration": 0.11653200000000652
                },
                {
                    "name": "A4",
                    "midi": 69,
                    "time": 564.4810080000191,
                    "velocity": 0.4015748031496063,
                    "duration": 0.11653200000000652
                },
                {
                    "name": "A5",
                    "midi": 81,
                    "time": 564.7140720000191,
                    "velocity": 0.4251968503937008,
                    "duration": 0.11653200000000652
                },
                {
                    "name": "A4",
                    "midi": 69,
                    "time": 564.7140720000191,
                    "velocity": 0.3543307086614173,
                    "duration": 0.11653200000000652
                },
                {
                    "name": "A#5",
                    "midi": 82,
                    "time": 564.9471360000191,
                    "velocity": 0.4881889763779528,
                    "duration": 0.11653200000000652
                },
                {
                    "name": "A#4",
                    "midi": 70,
                    "time": 564.9471360000191,
                    "velocity": 0.4094488188976378,
                    "duration": 0.11653200000000652
                },
                {
                    "name": "C6",
                    "midi": 84,
                    "time": 565.1802000000191,
                    "velocity": 0.49606299212598426,
                    "duration": 0.11653200000000652
                },
                {
                    "name": "C5",
                    "midi": 72,
                    "time": 565.1802000000191,
                    "velocity": 0.41732283464566927,
                    "duration": 0.11653200000000652
                },
                {
                    "name": "D6",
                    "midi": 86,
                    "time": 565.4132640000191,
                    "velocity": 0.5039370078740157,
                    "duration": 0.11653200000000652
                },
                {
                    "name": "D5",
                    "midi": 74,
                    "time": 565.4132640000191,
                    "velocity": 0.4251968503937008,
                    "duration": 0.11653200000000652
                },
                {
                    "name": "D#6",
                    "midi": 87,
                    "time": 565.6463280000191,
                    "velocity": 0.5196850393700787,
                    "duration": 0.11653200000000652
                },
                {
                    "name": "D#5",
                    "midi": 75,
                    "time": 565.6463280000191,
                    "velocity": 0.4409448818897638,
                    "duration": 0.11653200000000652
                },
                {
                    "name": "E6",
                    "midi": 88,
                    "time": 565.8793920000192,
                    "velocity": 0.7086614173228346,
                    "duration": 0.23306400000001304
                },
                {
                    "name": "E5",
                    "midi": 76,
                    "time": 565.8793920000192,
                    "velocity": 0.5984251968503937,
                    "duration": 0.23306400000001304
                },
                {
                    "name": "F6",
                    "midi": 89,
                    "time": 566.1124560000192,
                    "velocity": 0.5905511811023622,
                    "duration": 0.23306400000001304
                },
                {
                    "name": "F5",
                    "midi": 77,
                    "time": 566.1124560000192,
                    "velocity": 0.49606299212598426,
                    "duration": 0.23306400000001304
                },
                {
                    "name": "E6",
                    "midi": 88,
                    "time": 566.3455200000192,
                    "velocity": 0.7165354330708661,
                    "duration": 0.23306400000001304
                },
                {
                    "name": "E5",
                    "midi": 76,
                    "time": 566.3455200000192,
                    "velocity": 0.6062992125984252,
                    "duration": 0.23306400000001304
                },
                {
                    "name": "F6",
                    "midi": 89,
                    "time": 566.5785840000192,
                    "velocity": 0.5905511811023622,
                    "duration": 0.23306400000001304
                },
                {
                    "name": "F5",
                    "midi": 77,
                    "time": 566.5785840000192,
                    "velocity": 0.49606299212598426,
                    "duration": 0.23306400000001304
                },
                {
                    "name": "G4",
                    "midi": 67,
                    "time": 566.8116480000192,
                    "velocity": 0.4409448818897638,
                    "duration": 0.9322560000000522
                },
                {
                    "name": "G5",
                    "midi": 79,
                    "time": 566.8116480000192,
                    "velocity": 0.5196850393700787,
                    "duration": 0.9322560000000522
                },
                {
                    "name": "A3",
                    "midi": 57,
                    "time": 567.7439040000193,
                    "velocity": 0.3543307086614173,
                    "duration": 0.9322560000000522
                },
                {
                    "name": "A4",
                    "midi": 69,
                    "time": 567.7439040000193,
                    "velocity": 0.4251968503937008,
                    "duration": 0.9322560000000522
                },
                {
                    "name": "D#5",
                    "midi": 75,
                    "time": 568.6761600000193,
                    "velocity": 0.5118110236220472,
                    "duration": 0.9322560000000522
                },
                {
                    "name": "D#6",
                    "midi": 87,
                    "time": 568.6761600000193,
                    "velocity": 0.6062992125984252,
                    "duration": 0.9322560000000522
                },
                {
                    "name": "D5",
                    "midi": 74,
                    "time": 569.6084160000194,
                    "velocity": 0.44881889763779526,
                    "duration": 0.9322560000000522
                },
                {
                    "name": "D6",
                    "midi": 86,
                    "time": 569.6084160000194,
                    "velocity": 0.5354330708661418,
                    "duration": 0.9322560000000522
                },
                {
                    "name": "D6",
                    "midi": 86,
                    "time": 570.5406720000194,
                    "velocity": 0.5905511811023622,
                    "duration": 0.13983840000003056
                },
                {
                    "name": "C6",
                    "midi": 84,
                    "time": 570.6572040000194,
                    "velocity": 0.5354330708661418,
                    "duration": 0.13983840000003056
                },
                {
                    "name": "D#6",
                    "midi": 87,
                    "time": 570.7737360000194,
                    "velocity": 0.5669291338582677,
                    "duration": 0.13983840000003056
                },
                {
                    "name": "D6",
                    "midi": 86,
                    "time": 570.8902680000194,
                    "velocity": 0.5275590551181102,
                    "duration": 0.13983840000003056
                },
                {
                    "name": "F6",
                    "midi": 89,
                    "time": 571.0068000000194,
                    "velocity": 0.5905511811023622,
                    "duration": 0.13983840000003056
                },
                {
                    "name": "D#6",
                    "midi": 87,
                    "time": 571.1233320000194,
                    "velocity": 0.5590551181102362,
                    "duration": 0.13983840000003056
                },
                {
                    "name": "D6",
                    "midi": 86,
                    "time": 571.2398640000195,
                    "velocity": 0.5669291338582677,
                    "duration": 0.13983840000003056
                },
                {
                    "name": "C6",
                    "midi": 84,
                    "time": 571.3563960000195,
                    "velocity": 0.5354330708661418,
                    "duration": 0.13983840000003056
                },
                {
                    "name": "A#5",
                    "midi": 82,
                    "time": 571.4729280000195,
                    "velocity": 0.5905511811023622,
                    "duration": 0.4661280000000261
                },
                {
                    "name": "A5",
                    "midi": 81,
                    "time": 571.9390560000195,
                    "velocity": 0.49606299212598426,
                    "duration": 0.4661280000000261
                },
                {
                    "name": "A#5",
                    "midi": 82,
                    "time": 572.6382480000195,
                    "velocity": 0.3700787401574803,
                    "duration": 0.23306400000001304
                },
                {
                    "name": "A5",
                    "midi": 81,
                    "time": 572.8713120000195,
                    "velocity": 0.3937007874015748,
                    "duration": 0.23306400000001304
                },
                {
                    "name": "A#5",
                    "midi": 82,
                    "time": 573.1043760000196,
                    "velocity": 0.3700787401574803,
                    "duration": 0.23306400000001304
                },
                {
                    "name": "G#5",
                    "midi": 80,
                    "time": 573.5705040000196,
                    "velocity": 0.36220472440944884,
                    "duration": 0.23306400000001304
                },
                {
                    "name": "G5",
                    "midi": 79,
                    "time": 573.8035680000196,
                    "velocity": 0.4015748031496063,
                    "duration": 0.23306400000001304
                },
                {
                    "name": "G#5",
                    "midi": 80,
                    "time": 574.0366320000196,
                    "velocity": 0.36220472440944884,
                    "duration": 0.23306400000001304
                },
                {
                    "name": "G5",
                    "midi": 79,
                    "time": 574.5027600000196,
                    "velocity": 0.3464566929133858,
                    "duration": 0.23306400000001304
                },
                {
                    "name": "F#5",
                    "midi": 78,
                    "time": 574.7358240000196,
                    "velocity": 0.3779527559055118,
                    "duration": 0.23306400000001304
                },
                {
                    "name": "G5",
                    "midi": 79,
                    "time": 574.9688880000197,
                    "velocity": 0.3543307086614173,
                    "duration": 0.23306400000001304
                },
                {
                    "name": "G5",
                    "midi": 79,
                    "time": 575.4350160000197,
                    "velocity": 0.3464566929133858,
                    "duration": 0.23306400000001304
                },
                {
                    "name": "G6",
                    "midi": 91,
                    "time": 575.6680800000197,
                    "velocity": 0.4015748031496063,
                    "duration": 0.23306400000001304
                },
                {
                    "name": "G6",
                    "midi": 91,
                    "time": 575.9011440000197,
                    "velocity": 0.3779527559055118,
                    "duration": 0.11653200000000652
                },
                {
                    "name": "G6",
                    "midi": 91,
                    "time": 576.3672720000197,
                    "velocity": 0.3937007874015748,
                    "duration": 0.23306400000001304
                },
                {
                    "name": "F5",
                    "midi": 77,
                    "time": 576.6003360000198,
                    "velocity": 0.3464566929133858,
                    "duration": 0.23306400000001304
                },
                {
                    "name": "F5",
                    "midi": 77,
                    "time": 576.8334000000198,
                    "velocity": 0.3464566929133858,
                    "duration": 0.11653200000000652
                },
                {
                    "name": "F5",
                    "midi": 77,
                    "time": 577.2995280000198,
                    "velocity": 0.36220472440944884,
                    "duration": 0.23306400000001304
                },
                {
                    "name": "D6",
                    "midi": 86,
                    "time": 577.5325920000198,
                    "velocity": 0.4015748031496063,
                    "duration": 0.23306400000001304
                },
                {
                    "name": "D6",
                    "midi": 86,
                    "time": 577.7656560000198,
                    "velocity": 0.3779527559055118,
                    "duration": 0.11653200000000652
                },
                {
                    "name": "D6",
                    "midi": 86,
                    "time": 578.2317840000198,
                    "velocity": 0.3858267716535433,
                    "duration": 0.23306400000001304
                },
                {
                    "name": "D#5",
                    "midi": 75,
                    "time": 578.4648480000199,
                    "velocity": 0.3543307086614173,
                    "duration": 0.23306400000001304
                },
                {
                    "name": "D#5",
                    "midi": 75,
                    "time": 578.6979120000199,
                    "velocity": 0.3543307086614173,
                    "duration": 0.11653200000000652
                },
                {
                    "name": "D#5",
                    "midi": 75,
                    "time": 579.1640400000199,
                    "velocity": 0.3464566929133858,
                    "duration": 0.23306400000001304
                },
                {
                    "name": "C6",
                    "midi": 84,
                    "time": 579.3971040000199,
                    "velocity": 0.3937007874015748,
                    "duration": 0.23306400000001304
                },
                {
                    "name": "C6",
                    "midi": 84,
                    "time": 579.6301680000199,
                    "velocity": 0.3700787401574803,
                    "duration": 0.11653200000000652
                },
                {
                    "name": "C6",
                    "midi": 84,
                    "time": 580.09629600002,
                    "velocity": 0.3779527559055118,
                    "duration": 0.23306400000001304
                },
                {
                    "name": "D5",
                    "midi": 74,
                    "time": 580.32936000002,
                    "velocity": 0.3464566929133858,
                    "duration": 0.23306400000001304
                },
                {
                    "name": "D5",
                    "midi": 74,
                    "time": 580.56242400002,
                    "velocity": 0.3464566929133858,
                    "duration": 0.11653200000000652
                },
                {
                    "name": "D5",
                    "midi": 74,
                    "time": 581.02855200002,
                    "velocity": 0.3464566929133858,
                    "duration": 0.23306400000001304
                },
                {
                    "name": "A#5",
                    "midi": 82,
                    "time": 581.26161600002,
                    "velocity": 0.3858267716535433,
                    "duration": 0.23306400000001304
                },
                {
                    "name": "A#5",
                    "midi": 82,
                    "time": 581.49468000002,
                    "velocity": 0.36220472440944884,
                    "duration": 0.11653200000000652
                },
                {
                    "name": "A#5",
                    "midi": 82,
                    "time": 581.72774400002,
                    "velocity": 0.4251968503937008,
                    "duration": 0.23306400000001304
                },
                {
                    "name": "C5",
                    "midi": 72,
                    "time": 581.96080800002,
                    "velocity": 0.3464566929133858,
                    "duration": 0.11653200000000652
                },
                {
                    "name": "A#5",
                    "midi": 82,
                    "time": 582.6600000000201,
                    "velocity": 0.49606299212598426,
                    "duration": 0.23306400000001304
                },
                {
                    "name": "D5",
                    "midi": 74,
                    "time": 582.8930640000201,
                    "velocity": 0.4094488188976378,
                    "duration": 0.11653200000000652
                },
                {
                    "name": "A#5",
                    "midi": 82,
                    "time": 583.5922560000201,
                    "velocity": 0.5433070866141733,
                    "duration": 0.23306400000001304
                },
                {
                    "name": "D#5",
                    "midi": 75,
                    "time": 583.8253200000202,
                    "velocity": 0.4251968503937008,
                    "duration": 0.11653200000000652
                },
                {
                    "name": "A#5",
                    "midi": 82,
                    "time": 584.5245120000202,
                    "velocity": 0.6377952755905512,
                    "duration": 0.23306400000001304
                },
                {
                    "name": "E5",
                    "midi": 76,
                    "time": 584.7575760000202,
                    "velocity": 0.5275590551181102,
                    "duration": 0.11653200000000652
                },
                {
                    "name": "A#5",
                    "midi": 82,
                    "time": 585.4567680000202,
                    "velocity": 0.7007874015748031,
                    "duration": 0.23306400000001304
                },
                {
                    "name": "F5",
                    "midi": 77,
                    "time": 585.6898320000203,
                    "velocity": 0.6535433070866141,
                    "duration": 0.11653200000000652
                },
                {
                    "name": "A#5",
                    "midi": 82,
                    "time": 585.9228960000203,
                    "velocity": 0.7007874015748031,
                    "duration": 0.23306400000001304
                },
                {
                    "name": "F#5",
                    "midi": 78,
                    "time": 586.1559600000203,
                    "velocity": 0.6535433070866141,
                    "duration": 0.11653200000000652
                },
                {
                    "name": "A#5",
                    "midi": 82,
                    "time": 586.3890240000203,
                    "velocity": 0.7007874015748031,
                    "duration": 0.23306400000001304
                },
                {
                    "name": "G5",
                    "midi": 79,
                    "time": 586.6220880000203,
                    "velocity": 0.6692913385826772,
                    "duration": 0.23306400000001304
                },
                {
                    "name": "D#6",
                    "midi": 87,
                    "time": 586.8551520000203,
                    "velocity": 0.7007874015748031,
                    "duration": 0.23306400000001304
                },
                {
                    "name": "A5",
                    "midi": 81,
                    "time": 587.0882160000203,
                    "velocity": 0.6692913385826772,
                    "duration": 0.23306400000001304
                },
                {
                    "name": "D6",
                    "midi": 86,
                    "time": 587.3212800000204,
                    "velocity": 0.6456692913385826,
                    "duration": 0.04661280000004808
                },
                {
                    "name": "D#6",
                    "midi": 87,
                    "time": 587.3678928000204,
                    "velocity": 0.6377952755905512,
                    "duration": 0.04661280000004808
                },
                {
                    "name": "D6",
                    "midi": 86,
                    "time": 587.4145056000204,
                    "velocity": 0.6692913385826772,
                    "duration": 0.04661280000004808
                },
                {
                    "name": "D#6",
                    "midi": 87,
                    "time": 587.4611184000205,
                    "velocity": 0.6141732283464567,
                    "duration": 0.04661280000004808
                },
                {
                    "name": "D6",
                    "midi": 86,
                    "time": 587.5077312000205,
                    "velocity": 0.6141732283464567,
                    "duration": 0.04661280000004808
                },
                {
                    "name": "F6",
                    "midi": 89,
                    "time": 587.5543440000206,
                    "velocity": 0.7401574803149606,
                    "duration": 0.23306400000001304
                },
                {
                    "name": "A#5",
                    "midi": 82,
                    "time": 587.7874080000206,
                    "velocity": 0.6377952755905512,
                    "duration": 0.04661280000004808
                },
                {
                    "name": "C6",
                    "midi": 84,
                    "time": 587.8340208000207,
                    "velocity": 0.5984251968503937,
                    "duration": 0.04661280000004808
                },
                {
                    "name": "A#5",
                    "midi": 82,
                    "time": 587.8806336000207,
                    "velocity": 0.6377952755905512,
                    "duration": 0.04661280000004808
                },
                {
                    "name": "C6",
                    "midi": 84,
                    "time": 587.9272464000207,
                    "velocity": 0.5905511811023622,
                    "duration": 0.04661280000004808
                },
                {
                    "name": "A#5",
                    "midi": 82,
                    "time": 587.9738592000208,
                    "velocity": 0.5905511811023622,
                    "duration": 0.04661280000004808
                },
                {
                    "name": "D6",
                    "midi": 86,
                    "time": 588.0204720000208,
                    "velocity": 0.7244094488188977,
                    "duration": 0.23306400000001304
                },
                {
                    "name": "G5",
                    "midi": 79,
                    "time": 588.2535360000209,
                    "velocity": 0.5905511811023622,
                    "duration": 0.04661280000004808
                },
                {
                    "name": "A5",
                    "midi": 81,
                    "time": 588.3001488000209,
                    "velocity": 0.5433070866141733,
                    "duration": 0.04661280000004808
                },
                {
                    "name": "G5",
                    "midi": 79,
                    "time": 588.346761600021,
                    "velocity": 0.5905511811023622,
                    "duration": 0.04661280000004808
                },
                {
                    "name": "A5",
                    "midi": 81,
                    "time": 588.393374400021,
                    "velocity": 0.5590551181102362,
                    "duration": 0.04661280000004808
                },
                {
                    "name": "G5",
                    "midi": 79,
                    "time": 588.443871600021,
                    "velocity": 0.5590551181102362,
                    "duration": 0.04272839999998723
                },
                {
                    "name": "A#5",
                    "midi": 82,
                    "time": 588.486600000021,
                    "velocity": 0.6929133858267716,
                    "duration": 0.23306400000001304
                },
                {
                    "name": "C5",
                    "midi": 72,
                    "time": 588.719664000021,
                    "velocity": 0.5590551181102362,
                    "duration": 0.04661280000004808
                },
                {
                    "name": "D5",
                    "midi": 74,
                    "time": 588.766276800021,
                    "velocity": 0.5196850393700787,
                    "duration": 0.04661280000004808
                },
                {
                    "name": "C5",
                    "midi": 72,
                    "time": 588.8128896000211,
                    "velocity": 0.5590551181102362,
                    "duration": 0.04661280000004808
                },
                {
                    "name": "D5",
                    "midi": 74,
                    "time": 588.8595024000211,
                    "velocity": 0.5275590551181102,
                    "duration": 0.04661280000004808
                },
                {
                    "name": "C5",
                    "midi": 72,
                    "time": 588.9061152000212,
                    "velocity": 0.5275590551181102,
                    "duration": 0.04661280000004808
                },
                {
                    "name": "D#5",
                    "midi": 75,
                    "time": 588.9527280000212,
                    "velocity": 0.6220472440944882,
                    "duration": 0.23306400000001304
                },
                {
                    "name": "F4",
                    "midi": 65,
                    "time": 589.1857920000213,
                    "velocity": 0.5826771653543307,
                    "duration": 0.05826600000000326
                },
                {
                    "name": "F5",
                    "midi": 77,
                    "time": 589.3023240000213,
                    "velocity": 0.5984251968503937,
                    "duration": 0.13983840000003056
                },
                {
                    "name": "G5",
                    "midi": 79,
                    "time": 589.4188560000213,
                    "velocity": 0.6141732283464567,
                    "duration": 0.13983840000003056
                },
                {
                    "name": "F5",
                    "midi": 77,
                    "time": 589.5353880000213,
                    "velocity": 0.5984251968503937,
                    "duration": 0.13983840000003056
                },
                {
                    "name": "D#5",
                    "midi": 75,
                    "time": 589.6519200000213,
                    "velocity": 0.5984251968503937,
                    "duration": 0.13983840000003056
                },
                {
                    "name": "D5",
                    "midi": 74,
                    "time": 589.7684520000213,
                    "velocity": 0.5590551181102362,
                    "duration": 0.13983840000003056
                },
                {
                    "name": "C5",
                    "midi": 72,
                    "time": 589.8849840000213,
                    "velocity": 0.5669291338582677,
                    "duration": 0.13983840000003056
                },
                {
                    "name": "A#4",
                    "midi": 70,
                    "time": 590.0015160000213,
                    "velocity": 0.5511811023622047,
                    "duration": 0.13983840000003056
                },
                {
                    "name": "C5",
                    "midi": 72,
                    "time": 590.1180480000213,
                    "velocity": 0.4251968503937008,
                    "duration": 0.05826600000000326
                },
                {
                    "name": "D5",
                    "midi": 74,
                    "time": 590.1763140000213,
                    "velocity": 0.3937007874015748,
                    "duration": 0.05826600000000326
                },
                {
                    "name": "C5",
                    "midi": 72,
                    "time": 590.2345800000213,
                    "velocity": 0.4251968503937008,
                    "duration": 0.05826600000000326
                },
                {
                    "name": "D5",
                    "midi": 74,
                    "time": 590.2928460000213,
                    "velocity": 0.3858267716535433,
                    "duration": 0.05826600000000326
                },
                {
                    "name": "C5",
                    "midi": 72,
                    "time": 590.3511120000213,
                    "velocity": 0.4251968503937008,
                    "duration": 0.05826600000000326
                },
                {
                    "name": "D5",
                    "midi": 74,
                    "time": 590.4093780000213,
                    "velocity": 0.3858267716535433,
                    "duration": 0.05826600000000326
                },
                {
                    "name": "C5",
                    "midi": 72,
                    "time": 590.4676440000213,
                    "velocity": 0.4251968503937008,
                    "duration": 0.05826600000000326
                },
                {
                    "name": "D5",
                    "midi": 74,
                    "time": 590.5259100000213,
                    "velocity": 0.3858267716535433,
                    "duration": 0.05826600000000326
                },
                {
                    "name": "C5",
                    "midi": 72,
                    "time": 590.5841760000213,
                    "velocity": 0.4251968503937008,
                    "duration": 0.05826600000000326
                },
                {
                    "name": "D5",
                    "midi": 74,
                    "time": 590.6424420000213,
                    "velocity": 0.3858267716535433,
                    "duration": 0.05826600000000326
                },
                {
                    "name": "C5",
                    "midi": 72,
                    "time": 590.7007080000213,
                    "velocity": 0.4251968503937008,
                    "duration": 0.05826600000000326
                },
                {
                    "name": "D5",
                    "midi": 74,
                    "time": 590.7589740000213,
                    "velocity": 0.4015748031496063,
                    "duration": 0.05826600000000326
                },
                {
                    "name": "C5",
                    "midi": 72,
                    "time": 590.8172400000213,
                    "velocity": 0.4251968503937008,
                    "duration": 0.03884400000004007
                },
                {
                    "name": "D5",
                    "midi": 74,
                    "time": 590.8560840000214,
                    "velocity": 0.3937007874015748,
                    "duration": 0.03884400000004007
                },
                {
                    "name": "C5",
                    "midi": 72,
                    "time": 590.8949280000214,
                    "velocity": 0.3937007874015748,
                    "duration": 0.03884400000004007
                },
                {
                    "name": "A#4",
                    "midi": 70,
                    "time": 590.9337720000215,
                    "velocity": 0.5196850393700787,
                    "duration": 0.05826600000000326
                },
                {
                    "name": "C5",
                    "midi": 72,
                    "time": 590.9920380000215,
                    "velocity": 0.4881889763779528,
                    "duration": 0.05826600000000326
                },
                {
                    "name": "A#4",
                    "midi": 70,
                    "time": 591.0503040000215,
                    "velocity": 0.5511811023622047,
                    "duration": 0.11653200000000652
                },
                {
                    "name": "A#3",
                    "midi": 58,
                    "time": 591.2833680000215,
                    "velocity": 0.3700787401574803,
                    "duration": 0.11653200000000652
                },
                {
                    "name": "D4",
                    "midi": 62,
                    "time": 591.3999000000215,
                    "velocity": 0.3543307086614173,
                    "duration": 0.11653200000000652
                },
                {
                    "name": "C4",
                    "midi": 60,
                    "time": 591.5164320000215,
                    "velocity": 0.3700787401574803,
                    "duration": 0.11653200000000652
                },
                {
                    "name": "D#4",
                    "midi": 63,
                    "time": 591.6329640000215,
                    "velocity": 0.3543307086614173,
                    "duration": 0.11653200000000652
                },
                {
                    "name": "D4",
                    "midi": 62,
                    "time": 591.7494960000215,
                    "velocity": 0.3700787401574803,
                    "duration": 0.11653200000000652
                },
                {
                    "name": "F4",
                    "midi": 65,
                    "time": 591.8660280000215,
                    "velocity": 0.3543307086614173,
                    "duration": 0.11653200000000652
                },
                {
                    "name": "D#4",
                    "midi": 63,
                    "time": 591.9825600000215,
                    "velocity": 0.3779527559055118,
                    "duration": 0.11653200000000652
                },
                {
                    "name": "A#3",
                    "midi": 58,
                    "time": 592.2156240000215,
                    "velocity": 0.4094488188976378,
                    "duration": 0.11653200000000652
                },
                {
                    "name": "D4",
                    "midi": 62,
                    "time": 592.3321560000215,
                    "velocity": 0.3779527559055118,
                    "duration": 0.11653200000000652
                },
                {
                    "name": "C4",
                    "midi": 60,
                    "time": 592.4486880000215,
                    "velocity": 0.4094488188976378,
                    "duration": 0.11653200000000652
                },
                {
                    "name": "D#4",
                    "midi": 63,
                    "time": 592.5652200000216,
                    "velocity": 0.3779527559055118,
                    "duration": 0.11653200000000652
                },
                {
                    "name": "D4",
                    "midi": 62,
                    "time": 592.6817520000216,
                    "velocity": 0.4094488188976378,
                    "duration": 0.11653200000000652
                },
                {
                    "name": "F4",
                    "midi": 65,
                    "time": 592.7982840000216,
                    "velocity": 0.3779527559055118,
                    "duration": 0.11653200000000652
                },
                {
                    "name": "D#4",
                    "midi": 63,
                    "time": 592.9148160000216,
                    "velocity": 0.4094488188976378,
                    "duration": 0.11653200000000652
                },
                {
                    "name": "A#3",
                    "midi": 58,
                    "time": 593.1478800000216,
                    "velocity": 0.4094488188976378,
                    "duration": 0.11653200000000652
                },
                {
                    "name": "D4",
                    "midi": 62,
                    "time": 593.2644120000216,
                    "velocity": 0.4330708661417323,
                    "duration": 0.11653200000000652
                },
                {
                    "name": "C4",
                    "midi": 60,
                    "time": 593.3809440000216,
                    "velocity": 0.44881889763779526,
                    "duration": 0.11653200000000652
                },
                {
                    "name": "D#4",
                    "midi": 63,
                    "time": 593.4974760000216,
                    "velocity": 0.4566929133858268,
                    "duration": 0.11653200000000652
                },
                {
                    "name": "D4",
                    "midi": 62,
                    "time": 593.6140080000216,
                    "velocity": 0.4645669291338583,
                    "duration": 0.11653200000000652
                },
                {
                    "name": "F4",
                    "midi": 65,
                    "time": 593.7305400000216,
                    "velocity": 0.4881889763779528,
                    "duration": 0.11653200000000652
                },
                {
                    "name": "D#4",
                    "midi": 63,
                    "time": 593.8470720000216,
                    "velocity": 0.49606299212598426,
                    "duration": 0.11653200000000652
                },
                {
                    "name": "G4",
                    "midi": 67,
                    "time": 593.9636040000216,
                    "velocity": 0.5196850393700787,
                    "duration": 0.11653200000000652
                },
                {
                    "name": "F4",
                    "midi": 65,
                    "time": 594.0801360000216,
                    "velocity": 0.5275590551181102,
                    "duration": 0.11653200000000652
                },
                {
                    "name": "G#4",
                    "midi": 68,
                    "time": 594.1966680000216,
                    "velocity": 0.5433070866141733,
                    "duration": 0.11653200000000652
                },
                {
                    "name": "G4",
                    "midi": 67,
                    "time": 594.3132000000217,
                    "velocity": 0.5511811023622047,
                    "duration": 0.11653200000000652
                },
                {
                    "name": "A#4",
                    "midi": 70,
                    "time": 594.4297320000217,
                    "velocity": 0.5590551181102362,
                    "duration": 0.11653200000000652
                },
                {
                    "name": "A4",
                    "midi": 69,
                    "time": 594.5462640000217,
                    "velocity": 0.5748031496062992,
                    "duration": 0.11653200000000652
                },
                {
                    "name": "C5",
                    "midi": 72,
                    "time": 594.6627960000217,
                    "velocity": 0.5905511811023622,
                    "duration": 0.11653200000000652
                },
                {
                    "name": "A#4",
                    "midi": 70,
                    "time": 594.7793280000217,
                    "velocity": 0.6062992125984252,
                    "duration": 0.11653200000000652
                },
                {
                    "name": "C5",
                    "midi": 72,
                    "time": 594.8958600000217,
                    "velocity": 0.6220472440944882,
                    "duration": 0.11653200000000652
                },
                {
                    "name": "D5",
                    "midi": 74,
                    "time": 595.0123920000217,
                    "velocity": 0.6456692913385826,
                    "duration": 0.11653200000000652
                },
                {
                    "name": "C5",
                    "midi": 72,
                    "time": 595.1289240000217,
                    "velocity": 0.6456692913385826,
                    "duration": 0.11653200000000652
                },
                {
                    "name": "A#4",
                    "midi": 70,
                    "time": 595.2454560000217,
                    "velocity": 0.6299212598425197,
                    "duration": 0.11653200000000652
                },
                {
                    "name": "G#4",
                    "midi": 68,
                    "time": 595.3619880000217,
                    "velocity": 0.6220472440944882,
                    "duration": 0.11653200000000652
                },
                {
                    "name": "G4",
                    "midi": 67,
                    "time": 595.4785200000217,
                    "velocity": 0.6141732283464567,
                    "duration": 0.11653200000000652
                },
                {
                    "name": "F#4",
                    "midi": 66,
                    "time": 595.5950520000217,
                    "velocity": 0.6062992125984252,
                    "duration": 0.11653200000000652
                },
                {
                    "name": "G4",
                    "midi": 67,
                    "time": 595.7115840000217,
                    "velocity": 0.6141732283464567,
                    "duration": 0.11653200000000652
                },
                {
                    "name": "C5",
                    "midi": 72,
                    "time": 595.8281160000217,
                    "velocity": 0.6220472440944882,
                    "duration": 0.11653200000000652
                },
                {
                    "name": "D#5",
                    "midi": 75,
                    "time": 595.9446480000217,
                    "velocity": 0.6299212598425197,
                    "duration": 0.11653200000000652
                },
                {
                    "name": "D5",
                    "midi": 74,
                    "time": 596.0611800000217,
                    "velocity": 0.6220472440944882,
                    "duration": 0.11653200000000652
                },
                {
                    "name": "C5",
                    "midi": 72,
                    "time": 596.1777120000218,
                    "velocity": 0.6220472440944882,
                    "duration": 0.11653200000000652
                },
                {
                    "name": "A#4",
                    "midi": 70,
                    "time": 596.2942440000218,
                    "velocity": 0.6141732283464567,
                    "duration": 0.11653200000000652
                },
                {
                    "name": "A4",
                    "midi": 69,
                    "time": 596.4107760000218,
                    "velocity": 0.5905511811023622,
                    "duration": 0.11653200000000652
                },
                {
                    "name": "G4",
                    "midi": 67,
                    "time": 596.5273080000218,
                    "velocity": 0.5826771653543307,
                    "duration": 0.11653200000000652
                },
                {
                    "name": "F4",
                    "midi": 65,
                    "time": 596.6438400000218,
                    "velocity": 0.5905511811023622,
                    "duration": 0.11653200000000652
                },
                {
                    "name": "A#4",
                    "midi": 70,
                    "time": 596.7603720000218,
                    "velocity": 0.6220472440944882,
                    "duration": 0.11653200000000652
                },
                {
                    "name": "D5",
                    "midi": 74,
                    "time": 596.8769040000218,
                    "velocity": 0.6456692913385826,
                    "duration": 0.11653200000000652
                },
                {
                    "name": "F5",
                    "midi": 77,
                    "time": 596.9934360000218,
                    "velocity": 0.6929133858267716,
                    "duration": 0.11653200000000652
                },
                {
                    "name": "A#5",
                    "midi": 82,
                    "time": 597.1099680000218,
                    "velocity": 0.7401574803149606,
                    "duration": 0.11653200000000652
                },
                {
                    "name": "A#4",
                    "midi": 70,
                    "time": 597.3430320000218,
                    "velocity": 0.5039370078740157,
                    "duration": 0.11653200000000652
                },
                {
                    "name": "D5",
                    "midi": 74,
                    "time": 597.3430320000218,
                    "velocity": 0.5039370078740157,
                    "duration": 0.11653200000000652
                },
                {
                    "name": "D5",
                    "midi": 74,
                    "time": 597.5760960000218,
                    "velocity": 0.5511811023622047,
                    "duration": 0.23306400000001304
                },
                {
                    "name": "F5",
                    "midi": 77,
                    "time": 597.5760960000218,
                    "velocity": 0.5511811023622047,
                    "duration": 0.23306400000001304
                },
                {
                    "name": "C5",
                    "midi": 72,
                    "time": 597.8091600000218,
                    "velocity": 0.5196850393700787,
                    "duration": 0.11653200000000652
                },
                {
                    "name": "D#5",
                    "midi": 75,
                    "time": 597.8091600000218,
                    "velocity": 0.5196850393700787,
                    "duration": 0.11653200000000652
                },
                {
                    "name": "A#4",
                    "midi": 70,
                    "time": 598.0422240000219,
                    "velocity": 0.5275590551181102,
                    "duration": 0.11653200000000652
                },
                {
                    "name": "D5",
                    "midi": 74,
                    "time": 598.0422240000219,
                    "velocity": 0.5275590551181102,
                    "duration": 0.11653200000000652
                },
                {
                    "name": "A4",
                    "midi": 69,
                    "time": 598.2752880000219,
                    "velocity": 0.5275590551181102,
                    "duration": 0.11653200000000652
                },
                {
                    "name": "C5",
                    "midi": 72,
                    "time": 598.2752880000219,
                    "velocity": 0.5275590551181102,
                    "duration": 0.11653200000000652
                },
                {
                    "name": "A#4",
                    "midi": 70,
                    "time": 598.5083520000219,
                    "velocity": 0.5275590551181102,
                    "duration": 0.11653200000000652
                },
                {
                    "name": "A#4",
                    "midi": 70,
                    "time": 598.7414160000219,
                    "velocity": 0.3700787401574803,
                    "duration": 0.11653200000000652
                },
                {
                    "name": "D5",
                    "midi": 74,
                    "time": 598.8579480000219,
                    "velocity": 0.3543307086614173,
                    "duration": 0.11653200000000652
                },
                {
                    "name": "C5",
                    "midi": 72,
                    "time": 598.9744800000219,
                    "velocity": 0.3700787401574803,
                    "duration": 0.11653200000000652
                },
                {
                    "name": "D#5",
                    "midi": 75,
                    "time": 599.0910120000219,
                    "velocity": 0.3543307086614173,
                    "duration": 0.11653200000000652
                },
                {
                    "name": "D5",
                    "midi": 74,
                    "time": 599.2075440000219,
                    "velocity": 0.3700787401574803,
                    "duration": 0.11653200000000652
                },
                {
                    "name": "F5",
                    "midi": 77,
                    "time": 599.3240760000219,
                    "velocity": 0.3543307086614173,
                    "duration": 0.11653200000000652
                },
                {
                    "name": "D#5",
                    "midi": 75,
                    "time": 599.4406080000219,
                    "velocity": 0.3779527559055118,
                    "duration": 0.11653200000000652
                },
                {
                    "name": "A#5",
                    "midi": 82,
                    "time": 599.673672000022,
                    "velocity": 0.4881889763779528,
                    "duration": 0.11653200000000652
                },
                {
                    "name": "D6",
                    "midi": 86,
                    "time": 599.790204000022,
                    "velocity": 0.4566929133858268,
                    "duration": 0.11653200000000652
                },
                {
                    "name": "C6",
                    "midi": 84,
                    "time": 599.906736000022,
                    "velocity": 0.4881889763779528,
                    "duration": 0.11653200000000652
                },
                {
                    "name": "D#6",
                    "midi": 87,
                    "time": 600.023268000022,
                    "velocity": 0.4645669291338583,
                    "duration": 0.11653200000000652
                },
                {
                    "name": "D6",
                    "midi": 86,
                    "time": 600.139800000022,
                    "velocity": 0.4881889763779528,
                    "duration": 0.11653200000000652
                },
                {
                    "name": "F6",
                    "midi": 89,
                    "time": 600.256332000022,
                    "velocity": 0.4566929133858268,
                    "duration": 0.11653200000000652
                },
                {
                    "name": "D#6",
                    "midi": 87,
                    "time": 600.372864000022,
                    "velocity": 0.5354330708661418,
                    "duration": 0.11653200000000652
                },
                {
                    "name": "A#4",
                    "midi": 70,
                    "time": 600.605928000022,
                    "velocity": 0.4330708661417323,
                    "duration": 0.11653200000000652
                },
                {
                    "name": "D5",
                    "midi": 74,
                    "time": 600.722460000022,
                    "velocity": 0.4409448818897638,
                    "duration": 0.11653200000000652
                },
                {
                    "name": "C5",
                    "midi": 72,
                    "time": 600.838992000022,
                    "velocity": 0.4566929133858268,
                    "duration": 0.11653200000000652
                },
                {
                    "name": "D#5",
                    "midi": 75,
                    "time": 600.955524000022,
                    "velocity": 0.4645669291338583,
                    "duration": 0.11653200000000652
                },
                {
                    "name": "D5",
                    "midi": 74,
                    "time": 601.072056000022,
                    "velocity": 0.48031496062992124,
                    "duration": 0.11653200000000652
                },
                {
                    "name": "F5",
                    "midi": 77,
                    "time": 601.188588000022,
                    "velocity": 0.49606299212598426,
                    "duration": 0.11653200000000652
                },
                {
                    "name": "D#5",
                    "midi": 75,
                    "time": 601.305120000022,
                    "velocity": 0.5039370078740157,
                    "duration": 0.11653200000000652
                },
                {
                    "name": "A#4",
                    "midi": 70,
                    "time": 601.421652000022,
                    "velocity": 0.5275590551181102,
                    "duration": 0.11653200000000652
                },
                {
                    "name": "F5",
                    "midi": 77,
                    "time": 601.538184000022,
                    "velocity": 0.5354330708661418,
                    "duration": 0.11653200000000652
                },
                {
                    "name": "A#4",
                    "midi": 70,
                    "time": 601.6547160000221,
                    "velocity": 0.5433070866141733,
                    "duration": 0.11653200000000652
                },
                {
                    "name": "G5",
                    "midi": 79,
                    "time": 601.7712480000221,
                    "velocity": 0.5511811023622047,
                    "duration": 0.11653200000000652
                },
                {
                    "name": "A#4",
                    "midi": 70,
                    "time": 601.8877800000221,
                    "velocity": 0.5669291338582677,
                    "duration": 0.11653200000000652
                },
                {
                    "name": "A5",
                    "midi": 81,
                    "time": 602.0043120000221,
                    "velocity": 0.5826771653543307,
                    "duration": 0.11653200000000652
                },
                {
                    "name": "A#4",
                    "midi": 70,
                    "time": 602.1208440000221,
                    "velocity": 0.5905511811023622,
                    "duration": 0.11653200000000652
                },
                {
                    "name": "A#5",
                    "midi": 82,
                    "time": 602.2373760000221,
                    "velocity": 0.6141732283464567,
                    "duration": 0.11653200000000652
                },
                {
                    "name": "C6",
                    "midi": 84,
                    "time": 602.3539080000221,
                    "velocity": 0.6141732283464567,
                    "duration": 0.11653200000000652
                },
                {
                    "name": "D6",
                    "midi": 86,
                    "time": 602.4704400000221,
                    "velocity": 0.6062992125984252,
                    "duration": 0.11653200000000652
                },
                {
                    "name": "C6",
                    "midi": 84,
                    "time": 602.5869720000221,
                    "velocity": 0.5905511811023622,
                    "duration": 0.11653200000000652
                },
                {
                    "name": "A#5",
                    "midi": 82,
                    "time": 602.7035040000221,
                    "velocity": 0.5826771653543307,
                    "duration": 0.11653200000000652
                },
                {
                    "name": "G#5",
                    "midi": 80,
                    "time": 602.8200360000221,
                    "velocity": 0.5748031496062992,
                    "duration": 0.11653200000000652
                },
                {
                    "name": "G5",
                    "midi": 79,
                    "time": 602.9365680000221,
                    "velocity": 0.5669291338582677,
                    "duration": 0.11653200000000652
                },
                {
                    "name": "F#5",
                    "midi": 78,
                    "time": 603.0531000000221,
                    "velocity": 0.5590551181102362,
                    "duration": 0.11653200000000652
                },
                {
                    "name": "G5",
                    "midi": 79,
                    "time": 603.1696320000221,
                    "velocity": 0.6220472440944882,
                    "duration": 0.11653200000000652
                },
                {
                    "name": "F5",
                    "midi": 77,
                    "time": 603.2861640000222,
                    "velocity": 0.6220472440944882,
                    "duration": 0.11653200000000652
                },
                {
                    "name": "D#5",
                    "midi": 75,
                    "time": 603.4026960000222,
                    "velocity": 0.6141732283464567,
                    "duration": 0.11653200000000652
                },
                {
                    "name": "D5",
                    "midi": 74,
                    "time": 603.5192280000222,
                    "velocity": 0.6062992125984252,
                    "duration": 0.11653200000000652
                },
                {
                    "name": "C5",
                    "midi": 72,
                    "time": 603.6357600000222,
                    "velocity": 0.5905511811023622,
                    "duration": 0.11653200000000652
                },
                {
                    "name": "A#4",
                    "midi": 70,
                    "time": 603.7522920000222,
                    "velocity": 0.5826771653543307,
                    "duration": 0.11653200000000652
                },
                {
                    "name": "A4",
                    "midi": 69,
                    "time": 603.8688240000222,
                    "velocity": 0.5748031496062992,
                    "duration": 0.11653200000000652
                },
                {
                    "name": "G4",
                    "midi": 67,
                    "time": 603.9853560000222,
                    "velocity": 0.5748031496062992,
                    "duration": 0.11653200000000652
                },
                {
                    "name": "F4",
                    "midi": 65,
                    "time": 604.1018880000222,
                    "velocity": 0.6456692913385826,
                    "duration": 0.23306400000001304
                },
                {
                    "name": "F6",
                    "midi": 89,
                    "time": 604.3349520000222,
                    "velocity": 0.6456692913385826,
                    "duration": 0.11653200000000652
                },
                {
                    "name": "F6",
                    "midi": 89,
                    "time": 604.5680160000222,
                    "velocity": 0.6456692913385826,
                    "duration": 0.11653200000000652
                },
                {
                    "name": "F6",
                    "midi": 89,
                    "time": 604.8010800000222,
                    "velocity": 0.6456692913385826,
                    "duration": 0.11653200000000652
                },
                {
                    "name": "F6",
                    "midi": 89,
                    "time": 605.0341440000223,
                    "velocity": 0.6377952755905512,
                    "duration": 0.11653200000000652
                },
                {
                    "name": "D6",
                    "midi": 86,
                    "time": 605.1506760000223,
                    "velocity": 0.5984251968503937,
                    "duration": 0.11653200000000652
                },
                {
                    "name": "A#5",
                    "midi": 82,
                    "time": 605.2672080000223,
                    "velocity": 0.5590551181102362,
                    "duration": 0.11653200000000652
                },
                {
                    "name": "F5",
                    "midi": 77,
                    "time": 605.3837400000223,
                    "velocity": 0.5433070866141733,
                    "duration": 0.11653200000000652
                },
                {
                    "name": "A#5",
                    "midi": 82,
                    "time": 605.5002720000223,
                    "velocity": 0.6377952755905512,
                    "duration": 0.11653200000000652
                },
                {
                    "name": "F5",
                    "midi": 77,
                    "time": 605.6168040000223,
                    "velocity": 0.5905511811023622,
                    "duration": 0.11653200000000652
                },
                {
                    "name": "D5",
                    "midi": 74,
                    "time": 605.7333360000223,
                    "velocity": 0.5590551181102362,
                    "duration": 0.11653200000000652
                },
                {
                    "name": "A#4",
                    "midi": 70,
                    "time": 605.8498680000223,
                    "velocity": 0.5433070866141733,
                    "duration": 0.11653200000000652
                },
                {
                    "name": "C5",
                    "midi": 72,
                    "time": 605.9664000000223,
                    "velocity": 0.4015748031496063,
                    "duration": 0.07768799999996645
                },
                {
                    "name": "D5",
                    "midi": 74,
                    "time": 606.0440880000223,
                    "velocity": 0.36220472440944884,
                    "duration": 0.07768799999996645
                },
                {
                    "name": "C5",
                    "midi": 72,
                    "time": 606.1217760000222,
                    "velocity": 0.4015748031496063,
                    "duration": 0.07768799999996645
                },
                {
                    "name": "D5",
                    "midi": 74,
                    "time": 606.1994640000222,
                    "velocity": 0.36220472440944884,
                    "duration": 0.07768799999996645
                },
                {
                    "name": "C5",
                    "midi": 72,
                    "time": 606.2771520000222,
                    "velocity": 0.4015748031496063,
                    "duration": 0.07768799999996645
                },
                {
                    "name": "D5",
                    "midi": 74,
                    "time": 606.3548400000221,
                    "velocity": 0.36220472440944884,
                    "duration": 0.07768799999996645
                },
                {
                    "name": "C5",
                    "midi": 72,
                    "time": 606.4325280000221,
                    "velocity": 0.4015748031496063,
                    "duration": 0.07768799999996645
                },
                {
                    "name": "D5",
                    "midi": 74,
                    "time": 606.5102160000221,
                    "velocity": 0.36220472440944884,
                    "duration": 0.07768799999996645
                },
                {
                    "name": "C5",
                    "midi": 72,
                    "time": 606.587904000022,
                    "velocity": 0.4015748031496063,
                    "duration": 0.07768799999996645
                },
                {
                    "name": "D5",
                    "midi": 74,
                    "time": 606.665592000022,
                    "velocity": 0.36220472440944884,
                    "duration": 0.07768799999996645
                },
                {
                    "name": "C5",
                    "midi": 72,
                    "time": 606.743280000022,
                    "velocity": 0.4015748031496063,
                    "duration": 0.07768799999996645
                },
                {
                    "name": "D5",
                    "midi": 74,
                    "time": 606.8209680000219,
                    "velocity": 0.36220472440944884,
                    "duration": 0.07768799999996645
                },
                {
                    "name": "C5",
                    "midi": 72,
                    "time": 606.8986560000219,
                    "velocity": 0.4015748031496063,
                    "duration": 0.07768799999996645
                },
                {
                    "name": "D5",
                    "midi": 74,
                    "time": 606.9763440000219,
                    "velocity": 0.36220472440944884,
                    "duration": 0.07768799999996645
                },
                {
                    "name": "C5",
                    "midi": 72,
                    "time": 607.0540320000218,
                    "velocity": 0.4015748031496063,
                    "duration": 0.07768799999996645
                },
                {
                    "name": "D5",
                    "midi": 74,
                    "time": 607.1317200000218,
                    "velocity": 0.3779527559055118,
                    "duration": 0.07768799999996645
                },
                {
                    "name": "C5",
                    "midi": 72,
                    "time": 607.2094080000218,
                    "velocity": 0.4015748031496063,
                    "duration": 0.07768799999996645
                },
                {
                    "name": "D5",
                    "midi": 74,
                    "time": 607.2870960000217,
                    "velocity": 0.3700787401574803,
                    "duration": 0.07768799999996645
                },
                {
                    "name": "C5",
                    "midi": 72,
                    "time": 607.3647840000217,
                    "velocity": 0.4015748031496063,
                    "duration": 0.05826600000000326
                },
                {
                    "name": "D5",
                    "midi": 74,
                    "time": 607.4230500000217,
                    "velocity": 0.3779527559055118,
                    "duration": 0.05826600000000326
                },
                {
                    "name": "C5",
                    "midi": 72,
                    "time": 607.4813160000217,
                    "velocity": 0.4015748031496063,
                    "duration": 0.05826600000000326
                },
                {
                    "name": "D5",
                    "midi": 74,
                    "time": 607.5395820000217,
                    "velocity": 0.3700787401574803,
                    "duration": 0.05826600000000326
                },
                {
                    "name": "C5",
                    "midi": 72,
                    "time": 607.5978480000217,
                    "velocity": 0.4015748031496063,
                    "duration": 0.03884400000004007
                },
                {
                    "name": "D5",
                    "midi": 74,
                    "time": 607.6366920000218,
                    "velocity": 0.3779527559055118,
                    "duration": 0.03884400000004007
                },
                {
                    "name": "C5",
                    "midi": 72,
                    "time": 607.6755360000218,
                    "velocity": 0.3779527559055118,
                    "duration": 0.03884400000004007
                },
                {
                    "name": "A#4",
                    "midi": 70,
                    "time": 607.7143800000218,
                    "velocity": 0.4881889763779528,
                    "duration": 0.05826600000000326
                },
                {
                    "name": "C5",
                    "midi": 72,
                    "time": 607.7726460000218,
                    "velocity": 0.4566929133858268,
                    "duration": 0.05826600000000326
                },
                {
                    "name": "A#4",
                    "midi": 70,
                    "time": 607.8309120000218,
                    "velocity": 0.5433070866141733,
                    "duration": 0.2291795999999522
                },
                {
                    "name": "A#5",
                    "midi": 82,
                    "time": 608.0639760000217,
                    "velocity": 0.4251968503937008,
                    "duration": 0.23306400000001304
                },
                {
                    "name": "A#5",
                    "midi": 82,
                    "time": 608.5301040000218,
                    "velocity": 0.4566929133858268,
                    "duration": 0.23306400000001304
                },
                {
                    "name": "A5",
                    "midi": 81,
                    "time": 608.7631680000218,
                    "velocity": 0.4409448818897638,
                    "duration": 0.23306400000001304
                },
                {
                    "name": "A#5",
                    "midi": 82,
                    "time": 608.9962320000218,
                    "velocity": 0.48031496062992124,
                    "duration": 0.23306400000001304
                },
                {
                    "name": "C6",
                    "midi": 84,
                    "time": 609.2292960000218,
                    "velocity": 0.5354330708661418,
                    "duration": 0.23306400000001304
                },
                {
                    "name": "D6",
                    "midi": 86,
                    "time": 609.4623600000218,
                    "velocity": 0.5669291338582677,
                    "duration": 0.23306400000001304
                },
                {
                    "name": "D#6",
                    "midi": 87,
                    "time": 609.6954240000218,
                    "velocity": 0.6220472440944882,
                    "duration": 0.11653200000000652
                },
                {
                    "name": "D6",
                    "midi": 86,
                    "time": 609.8119560000218,
                    "velocity": 0.5748031496062992,
                    "duration": 0.11653200000000652
                },
                {
                    "name": "D#6",
                    "midi": 87,
                    "time": 609.9284880000218,
                    "velocity": 0.5984251968503937,
                    "duration": 0.11653200000000652
                },
                {
                    "name": "D6",
                    "midi": 86,
                    "time": 610.0450200000219,
                    "velocity": 0.5511811023622047,
                    "duration": 0.11653200000000652
                },
                {
                    "name": "D#6",
                    "midi": 87,
                    "time": 610.1615520000219,
                    "velocity": 0.5905511811023622,
                    "duration": 0.11653200000000652
                },
                {
                    "name": "C#6",
                    "midi": 85,
                    "time": 610.2780840000219,
                    "velocity": 0.5275590551181102,
                    "duration": 0.11653200000000652
                },
                {
                    "name": "C6",
                    "midi": 84,
                    "time": 610.3946160000219,
                    "velocity": 0.5433070866141733,
                    "duration": 0.11653200000000652
                },
                {
                    "name": "A#5",
                    "midi": 82,
                    "time": 610.5111480000219,
                    "velocity": 0.5118110236220472,
                    "duration": 0.11653200000000652
                },
                {
                    "name": "A5",
                    "midi": 81,
                    "time": 610.6276800000219,
                    "velocity": 0.5275590551181102,
                    "duration": 0.11653200000000652
                },
                {
                    "name": "A#5",
                    "midi": 82,
                    "time": 610.7442120000219,
                    "velocity": 0.5511811023622047,
                    "duration": 0.11653200000000652
                },
                {
                    "name": "C6",
                    "midi": 84,
                    "time": 610.8607440000219,
                    "velocity": 0.5669291338582677,
                    "duration": 0.11653200000000652
                },
                {
                    "name": "A#5",
                    "midi": 82,
                    "time": 610.9772760000219,
                    "velocity": 0.5275590551181102,
                    "duration": 0.11653200000000652
                },
                {
                    "name": "A5",
                    "midi": 81,
                    "time": 611.0938080000219,
                    "velocity": 0.5433070866141733,
                    "duration": 0.11653200000000652
                },
                {
                    "name": "G5",
                    "midi": 79,
                    "time": 611.2103400000219,
                    "velocity": 0.5196850393700787,
                    "duration": 0.11653200000000652
                },
                {
                    "name": "F5",
                    "midi": 77,
                    "time": 611.3268720000219,
                    "velocity": 0.5196850393700787,
                    "duration": 0.11653200000000652
                },
                {
                    "name": "D#5",
                    "midi": 75,
                    "time": 611.4434040000219,
                    "velocity": 0.5118110236220472,
                    "duration": 0.11653200000000652
                },
                {
                    "name": "D5",
                    "midi": 74,
                    "time": 611.5599360000219,
                    "velocity": 0.49606299212598426,
                    "duration": 0.11653200000000652
                },
                {
                    "name": "D5",
                    "midi": 74,
                    "time": 611.793000000022,
                    "velocity": 0.3858267716535433,
                    "duration": 0.11653200000000652
                },
                {
                    "name": "A#4",
                    "midi": 70,
                    "time": 612.259128000022,
                    "velocity": 0.41732283464566927,
                    "duration": 0.23306400000001304
                },
                {
                    "name": "A4",
                    "midi": 69,
                    "time": 612.492192000022,
                    "velocity": 0.3858267716535433,
                    "duration": 0.23306400000001304
                },
                {
                    "name": "A#4",
                    "midi": 70,
                    "time": 612.725256000022,
                    "velocity": 0.3858267716535433,
                    "duration": 0.23306400000001304
                },
                {
                    "name": "C5",
                    "midi": 72,
                    "time": 612.958320000022,
                    "velocity": 0.3858267716535433,
                    "duration": 0.23306400000001304
                },
                {
                    "name": "D5",
                    "midi": 74,
                    "time": 613.191384000022,
                    "velocity": 0.3858267716535433,
                    "duration": 0.23306400000001304
                },
                {
                    "name": "D#5",
                    "midi": 75,
                    "time": 613.424448000022,
                    "velocity": 0.4094488188976378,
                    "duration": 0.11653200000000652
                },
                {
                    "name": "F5",
                    "midi": 77,
                    "time": 613.657512000022,
                    "velocity": 0.4094488188976378,
                    "duration": 0.05826600000000326
                },
                {
                    "name": "D#5",
                    "midi": 75,
                    "time": 613.715778000022,
                    "velocity": 0.3858267716535433,
                    "duration": 0.05826600000000326
                },
                {
                    "name": "D5",
                    "midi": 74,
                    "time": 613.7740440000221,
                    "velocity": 0.4094488188976378,
                    "duration": 0.05826600000000326
                },
                {
                    "name": "D#5",
                    "midi": 75,
                    "time": 613.8323100000221,
                    "velocity": 0.3779527559055118,
                    "duration": 0.05826600000000326
                },
                {
                    "name": "F5",
                    "midi": 77,
                    "time": 613.8905760000221,
                    "velocity": 0.4251968503937008,
                    "duration": 0.23306400000001304
                },
                {
                    "name": "G5",
                    "midi": 79,
                    "time": 614.1236400000221,
                    "velocity": 0.48031496062992124,
                    "duration": 0.2233529999999746
                },
                {
                    "name": "D#5",
                    "midi": 75,
                    "time": 614.3567040000221,
                    "velocity": 0.3858267716535433,
                    "duration": 0.23306400000001304
                },
                {
                    "name": "G5",
                    "midi": 79,
                    "time": 614.3567040000221,
                    "velocity": 0.3858267716535433,
                    "duration": 0.23306400000001304
                },
                {
                    "name": "D5",
                    "midi": 74,
                    "time": 614.5897680000221,
                    "velocity": 0.33070866141732286,
                    "duration": 0.23306400000001304
                },
                {
                    "name": "F5",
                    "midi": 77,
                    "time": 614.5897680000221,
                    "velocity": 0.33070866141732286,
                    "duration": 0.23306400000001304
                },
                {
                    "name": "D#4",
                    "midi": 63,
                    "time": 615.0558960000221,
                    "velocity": 0.23622047244094488,
                    "duration": 0.23306400000001304
                },
                {
                    "name": "A4",
                    "midi": 69,
                    "time": 615.0558960000221,
                    "velocity": 0.23622047244094488,
                    "duration": 0.23306400000001304
                },
                {
                    "name": "D#4",
                    "midi": 63,
                    "time": 615.2889600000221,
                    "velocity": 0.3543307086614173,
                    "duration": 0.9322560000000522
                },
                {
                    "name": "C5",
                    "midi": 72,
                    "time": 615.2889600000221,
                    "velocity": 0.3543307086614173,
                    "duration": 0.9322560000000522
                },
                {
                    "name": "D4",
                    "midi": 62,
                    "time": 616.2212160000222,
                    "velocity": 0.25196850393700787,
                    "duration": 0.34959600000001956
                },
                {
                    "name": "A#4",
                    "midi": 70,
                    "time": 616.2212160000222,
                    "velocity": 0.25196850393700787,
                    "duration": 0.34959600000001956
                }
            ],
            "controlChanges": {
                "7": [
                    {
                        "number": 7,
                        "time": 0,
                        "value": 0.7874015748031497
                    }
                ],
                "10": [
                    {
                        "number": 10,
                        "time": 0,
                        "value": 0.5039370078740157
                    }
                ],
                "91": [
                    {
                        "number": 91,
                        "time": 0,
                        "value": 1
                    },
                    {
                        "number": 91,
                        "time": 1.398384,
                        "value": 1
                    },
                    {
                        "number": 91,
                        "time": 72.71596800000009,
                        "value": 1
                    },
                    {
                        "number": 91,
                        "time": 118.86264000000125,
                        "value": 1
                    },
                    {
                        "number": 91,
                        "time": 190.18022400000388,
                        "value": 1
                    },
                    {
                        "number": 91,
                        "time": 236.3268960000058,
                        "value": 1
                    },
                    {
                        "number": 91,
                        "time": 236.3268960000058,
                        "value": 1
                    },
                    {
                        "number": 91,
                        "time": 292.26225600000805,
                        "value": 1
                    },
                    {
                        "number": 91,
                        "time": 369.1733760000105,
                        "value": 1
                    },
                    {
                        "number": 91,
                        "time": 426.5071200000131,
                        "value": 1
                    },
                    {
                        "number": 91,
                        "time": 426.5071200000131,
                        "value": 1
                    },
                    {
                        "number": 91,
                        "time": 482.44248000001545,
                        "value": 1
                    },
                    {
                        "number": 91,
                        "time": 559.3536000000188,
                        "value": 1
                    },
                    {
                        "number": 91,
                        "time": 616.6873440000222,
                        "value": 1
                    }
                ]
            },
            "id": 1,
            "name": "Piano right",
            "instrumentNumber": 0,
            "instrument": "acoustic grand piano",
            "instrumentFamily": "piano",
            "channelNumber": 0,
            "isPercussion": false
        },
        {
            "startTime": 2.097576,
            "duration": 616.5708120000209,
            "length": 2434,
            "notes": [
                {
                    "name": "A#3",
                    "midi": 58,
                    "time": 2.097576,
                    "velocity": 0.29133858267716534,
                    "duration": 0.23306400000000016
                },
                {
                    "name": "D4",
                    "midi": 62,
                    "time": 2.3306400000000003,
                    "velocity": 0.29133858267716534,
                    "duration": 0.23306400000000016
                },
                {
                    "name": "F4",
                    "midi": 65,
                    "time": 2.5637040000000004,
                    "velocity": 0.25984251968503935,
                    "duration": 0.23306400000000016
                },
                {
                    "name": "D4",
                    "midi": 62,
                    "time": 2.7967680000000006,
                    "velocity": 0.28346456692913385,
                    "duration": 0.23306400000000016
                },
                {
                    "name": "A#3",
                    "midi": 58,
                    "time": 3.0298320000000007,
                    "velocity": 0.25984251968503935,
                    "duration": 0.23306400000000016
                },
                {
                    "name": "D4",
                    "midi": 62,
                    "time": 3.262896000000001,
                    "velocity": 0.3228346456692913,
                    "duration": 0.23306400000000016
                },
                {
                    "name": "G4",
                    "midi": 67,
                    "time": 3.495960000000001,
                    "velocity": 0.2992125984251969,
                    "duration": 0.23306400000000016
                },
                {
                    "name": "C4",
                    "midi": 60,
                    "time": 3.9620880000000014,
                    "velocity": 0.2677165354330709,
                    "duration": 0.23306399999999972
                },
                {
                    "name": "D#4",
                    "midi": 63,
                    "time": 4.195152000000001,
                    "velocity": 0.30708661417322836,
                    "duration": 0.23306399999999972
                },
                {
                    "name": "G4",
                    "midi": 67,
                    "time": 4.428216000000001,
                    "velocity": 0.28346456692913385,
                    "duration": 0.23306399999999972
                },
                {
                    "name": "D#4",
                    "midi": 63,
                    "time": 4.6612800000000005,
                    "velocity": 0.3464566929133858,
                    "duration": 0.23306399999999972
                },
                {
                    "name": "C4",
                    "midi": 60,
                    "time": 4.894344,
                    "velocity": 0.29133858267716534,
                    "duration": 0.23306399999999972
                },
                {
                    "name": "D#4",
                    "midi": 63,
                    "time": 5.127408,
                    "velocity": 0.2992125984251969,
                    "duration": 0.23306399999999972
                },
                {
                    "name": "G4",
                    "midi": 67,
                    "time": 5.360472,
                    "velocity": 0.2677165354330709,
                    "duration": 0.23306399999999972
                },
                {
                    "name": "F3",
                    "midi": 53,
                    "time": 5.826599999999999,
                    "velocity": 0.2755905511811024,
                    "duration": 0.23306399999999972
                },
                {
                    "name": "C4",
                    "midi": 60,
                    "time": 6.059663999999999,
                    "velocity": 0.2755905511811024,
                    "duration": 0.23306399999999972
                },
                {
                    "name": "D#4",
                    "midi": 63,
                    "time": 6.2927279999999985,
                    "velocity": 0.2677165354330709,
                    "duration": 0.23306399999999972
                },
                {
                    "name": "C4",
                    "midi": 60,
                    "time": 6.525791999999998,
                    "velocity": 0.3700787401574803,
                    "duration": 0.23306399999999972
                },
                {
                    "name": "F3",
                    "midi": 53,
                    "time": 6.758855999999998,
                    "velocity": 0.28346456692913385,
                    "duration": 0.23306399999999972
                },
                {
                    "name": "C4",
                    "midi": 60,
                    "time": 6.991919999999998,
                    "velocity": 0.33858267716535434,
                    "duration": 0.23306399999999972
                },
                {
                    "name": "D#4",
                    "midi": 63,
                    "time": 7.224983999999997,
                    "velocity": 0.28346456692913385,
                    "duration": 0.23306399999999972
                },
                {
                    "name": "A#3",
                    "midi": 58,
                    "time": 7.691111999999997,
                    "velocity": 0.33070866141732286,
                    "duration": 0.23306399999999972
                },
                {
                    "name": "D4",
                    "midi": 62,
                    "time": 7.9241759999999966,
                    "velocity": 0.33070866141732286,
                    "duration": 0.23306399999999972
                },
                {
                    "name": "F4",
                    "midi": 65,
                    "time": 8.157239999999996,
                    "velocity": 0.28346456692913385,
                    "duration": 0.2330640000000006
                },
                {
                    "name": "D4",
                    "midi": 62,
                    "time": 8.390303999999997,
                    "velocity": 0.3543307086614173,
                    "duration": 0.2330640000000006
                },
                {
                    "name": "A#3",
                    "midi": 58,
                    "time": 8.623367999999997,
                    "velocity": 0.33070866141732286,
                    "duration": 0.2330640000000006
                },
                {
                    "name": "D4",
                    "midi": 62,
                    "time": 8.856431999999998,
                    "velocity": 0.33070866141732286,
                    "duration": 0.2330640000000006
                },
                {
                    "name": "F4",
                    "midi": 65,
                    "time": 9.089495999999999,
                    "velocity": 0.30708661417322836,
                    "duration": 0.2330640000000006
                },
                {
                    "name": "D#4",
                    "midi": 63,
                    "time": 9.32256,
                    "velocity": 0.3543307086614173,
                    "duration": 0.2330640000000006
                },
                {
                    "name": "G4",
                    "midi": 67,
                    "time": 9.555624,
                    "velocity": 0.29133858267716534,
                    "duration": 0.2330640000000006
                },
                {
                    "name": "D4",
                    "midi": 62,
                    "time": 9.788688,
                    "velocity": 0.31496062992125984,
                    "duration": 0.2330640000000006
                },
                {
                    "name": "F4",
                    "midi": 65,
                    "time": 10.021752000000001,
                    "velocity": 0.2755905511811024,
                    "duration": 0.2330640000000006
                },
                {
                    "name": "D#4",
                    "midi": 63,
                    "time": 10.254816000000002,
                    "velocity": 0.3543307086614173,
                    "duration": 0.2330640000000006
                },
                {
                    "name": "G4",
                    "midi": 67,
                    "time": 10.487880000000002,
                    "velocity": 0.2755905511811024,
                    "duration": 0.2330640000000006
                },
                {
                    "name": "C4",
                    "midi": 60,
                    "time": 10.720944000000003,
                    "velocity": 0.2992125984251969,
                    "duration": 0.2330640000000006
                },
                {
                    "name": "D#4",
                    "midi": 63,
                    "time": 10.954008000000004,
                    "velocity": 0.25196850393700787,
                    "duration": 0.2330640000000006
                },
                {
                    "name": "D4",
                    "midi": 62,
                    "time": 11.187072000000004,
                    "velocity": 0.33070866141732286,
                    "duration": 0.46612799999999943
                },
                {
                    "name": "F4",
                    "midi": 65,
                    "time": 11.187072000000004,
                    "velocity": 0.33070866141732286,
                    "duration": 0.46612799999999943
                },
                {
                    "name": "D#4",
                    "midi": 63,
                    "time": 13.051584000000004,
                    "velocity": 0.3700787401574803,
                    "duration": 0.2330640000000006
                },
                {
                    "name": "G4",
                    "midi": 67,
                    "time": 13.284648000000004,
                    "velocity": 0.28346456692913385,
                    "duration": 0.2330640000000006
                },
                {
                    "name": "D4",
                    "midi": 62,
                    "time": 13.517712000000005,
                    "velocity": 0.31496062992125984,
                    "duration": 0.2330640000000006
                },
                {
                    "name": "F4",
                    "midi": 65,
                    "time": 13.750776000000005,
                    "velocity": 0.25984251968503935,
                    "duration": 0.2330640000000006
                },
                {
                    "name": "D#4",
                    "midi": 63,
                    "time": 13.983840000000006,
                    "velocity": 0.3700787401574803,
                    "duration": 0.2330640000000006
                },
                {
                    "name": "G4",
                    "midi": 67,
                    "time": 14.216904000000007,
                    "velocity": 0.29133858267716534,
                    "duration": 0.2330640000000006
                },
                {
                    "name": "C4",
                    "midi": 60,
                    "time": 14.449968000000007,
                    "velocity": 0.30708661417322836,
                    "duration": 0.2330640000000006
                },
                {
                    "name": "D#4",
                    "midi": 63,
                    "time": 14.683032000000008,
                    "velocity": 0.25196850393700787,
                    "duration": 0.2330640000000006
                },
                {
                    "name": "F4",
                    "midi": 65,
                    "time": 14.916096000000008,
                    "velocity": 0.3700787401574803,
                    "duration": 0.46612799999999943
                },
                {
                    "name": "D4",
                    "midi": 62,
                    "time": 14.916096000000008,
                    "velocity": 0.3700787401574803,
                    "duration": 0.46612799999999943
                },
                {
                    "name": "A3",
                    "midi": 57,
                    "time": 16.780608000000008,
                    "velocity": 0.48031496062992124,
                    "duration": 0.4661280000000012
                },
                {
                    "name": "A#3",
                    "midi": 58,
                    "time": 17.24673600000001,
                    "velocity": 0.4330708661417323,
                    "duration": 0.4661280000000012
                },
                {
                    "name": "D#3",
                    "midi": 51,
                    "time": 17.71286400000001,
                    "velocity": 0.49606299212598426,
                    "duration": 0.4661280000000012
                },
                {
                    "name": "F3",
                    "midi": 53,
                    "time": 18.17899200000001,
                    "velocity": 0.44881889763779526,
                    "duration": 0.4661280000000012
                },
                {
                    "name": "A#2",
                    "midi": 46,
                    "time": 18.87818400000001,
                    "velocity": 0.4094488188976378,
                    "duration": 0.11653199999999941
                },
                {
                    "name": "D3",
                    "midi": 50,
                    "time": 19.11124800000001,
                    "velocity": 0.4330708661417323,
                    "duration": 0.11653199999999941
                },
                {
                    "name": "F3",
                    "midi": 53,
                    "time": 19.34431200000001,
                    "velocity": 0.3937007874015748,
                    "duration": 0.11653199999999941
                },
                {
                    "name": "A#3",
                    "midi": 58,
                    "time": 19.577376000000008,
                    "velocity": 0.48031496062992124,
                    "duration": 0.4661280000000012
                },
                {
                    "name": "A#2",
                    "midi": 46,
                    "time": 20.74269600000001,
                    "velocity": 0.2677165354330709,
                    "duration": 0.23306399999999883
                },
                {
                    "name": "D3",
                    "midi": 50,
                    "time": 20.975760000000008,
                    "velocity": 0.29133858267716534,
                    "duration": 0.23306399999999883
                },
                {
                    "name": "F3",
                    "midi": 53,
                    "time": 21.208824000000007,
                    "velocity": 0.2755905511811024,
                    "duration": 0.23306399999999883
                },
                {
                    "name": "D3",
                    "midi": 50,
                    "time": 21.441888000000006,
                    "velocity": 0.33858267716535434,
                    "duration": 0.23306399999999883
                },
                {
                    "name": "A#2",
                    "midi": 46,
                    "time": 21.674952000000005,
                    "velocity": 0.30708661417322836,
                    "duration": 0.23306399999999883
                },
                {
                    "name": "D3",
                    "midi": 50,
                    "time": 21.908016000000003,
                    "velocity": 0.30708661417322836,
                    "duration": 0.23306399999999883
                },
                {
                    "name": "G3",
                    "midi": 55,
                    "time": 22.141080000000002,
                    "velocity": 0.2755905511811024,
                    "duration": 0.23306399999999883
                },
                {
                    "name": "C3",
                    "midi": 48,
                    "time": 22.607208,
                    "velocity": 0.28346456692913385,
                    "duration": 0.23306399999999883
                },
                {
                    "name": "G3",
                    "midi": 55,
                    "time": 22.840272,
                    "velocity": 0.30708661417322836,
                    "duration": 0.23306399999999883
                },
                {
                    "name": "A#3",
                    "midi": 58,
                    "time": 23.073335999999998,
                    "velocity": 0.2755905511811024,
                    "duration": 0.23306399999999883
                },
                {
                    "name": "G3",
                    "midi": 55,
                    "time": 23.306399999999996,
                    "velocity": 0.33070866141732286,
                    "duration": 0.23306399999999883
                },
                {
                    "name": "C3",
                    "midi": 48,
                    "time": 23.539463999999995,
                    "velocity": 0.2677165354330709,
                    "duration": 0.23306399999999883
                },
                {
                    "name": "G3",
                    "midi": 55,
                    "time": 23.772527999999994,
                    "velocity": 0.2992125984251969,
                    "duration": 0.23306399999999883
                },
                {
                    "name": "A#3",
                    "midi": 58,
                    "time": 24.005591999999993,
                    "velocity": 0.2677165354330709,
                    "duration": 0.23306399999999883
                },
                {
                    "name": "E3",
                    "midi": 52,
                    "time": 24.47171999999999,
                    "velocity": 0.30708661417322836,
                    "duration": 0.23306399999999883
                },
                {
                    "name": "G3",
                    "midi": 55,
                    "time": 24.70478399999999,
                    "velocity": 0.33858267716535434,
                    "duration": 0.23306399999999883
                },
                {
                    "name": "C4",
                    "midi": 60,
                    "time": 24.93784799999999,
                    "velocity": 0.36220472440944884,
                    "duration": 0.23306399999999883
                },
                {
                    "name": "G3",
                    "midi": 55,
                    "time": 25.170911999999987,
                    "velocity": 0.3858267716535433,
                    "duration": 0.23306399999999883
                },
                {
                    "name": "E3",
                    "midi": 52,
                    "time": 25.403975999999986,
                    "velocity": 0.3700787401574803,
                    "duration": 0.23306399999999883
                },
                {
                    "name": "G3",
                    "midi": 55,
                    "time": 25.637039999999985,
                    "velocity": 0.3937007874015748,
                    "duration": 0.23306399999999883
                },
                {
                    "name": "C4",
                    "midi": 60,
                    "time": 25.870103999999984,
                    "velocity": 0.4251968503937008,
                    "duration": 0.23306399999999883
                },
                {
                    "name": "F3",
                    "midi": 53,
                    "time": 26.33623199999998,
                    "velocity": 0.33070866141732286,
                    "duration": 0.23306399999999883
                },
                {
                    "name": "A3",
                    "midi": 57,
                    "time": 26.56929599999998,
                    "velocity": 0.3228346456692913,
                    "duration": 0.23306399999999883
                },
                {
                    "name": "C4",
                    "midi": 60,
                    "time": 26.80235999999998,
                    "velocity": 0.2677165354330709,
                    "duration": 0.23306399999999883
                },
                {
                    "name": "A3",
                    "midi": 57,
                    "time": 27.035423999999978,
                    "velocity": 0.29133858267716534,
                    "duration": 0.23306399999999883
                },
                {
                    "name": "F3",
                    "midi": 53,
                    "time": 27.268487999999977,
                    "velocity": 0.2677165354330709,
                    "duration": 0.23306399999999883
                },
                {
                    "name": "A3",
                    "midi": 57,
                    "time": 27.501551999999975,
                    "velocity": 0.28346456692913385,
                    "duration": 0.23306399999999883
                },
                {
                    "name": "C4",
                    "midi": 60,
                    "time": 27.734615999999974,
                    "velocity": 0.25196850393700787,
                    "duration": 0.23306399999999883
                },
                {
                    "name": "A#3",
                    "midi": 58,
                    "time": 27.967679999999973,
                    "velocity": 0.3700787401574803,
                    "duration": 0.23306399999999883
                },
                {
                    "name": "C4",
                    "midi": 60,
                    "time": 28.200743999999972,
                    "velocity": 0.25196850393700787,
                    "duration": 0.23306399999999883
                },
                {
                    "name": "A#3",
                    "midi": 58,
                    "time": 28.43380799999997,
                    "velocity": 0.29133858267716534,
                    "duration": 0.23306399999999883
                },
                {
                    "name": "C4",
                    "midi": 60,
                    "time": 28.66687199999997,
                    "velocity": 0.2440944881889764,
                    "duration": 0.23306399999999883
                },
                {
                    "name": "A3",
                    "midi": 57,
                    "time": 28.89993599999997,
                    "velocity": 0.3937007874015748,
                    "duration": 0.23306399999999883
                },
                {
                    "name": "C4",
                    "midi": 60,
                    "time": 29.132999999999967,
                    "velocity": 0.3228346456692913,
                    "duration": 0.23306399999999883
                },
                {
                    "name": "A3",
                    "midi": 57,
                    "time": 29.366063999999966,
                    "velocity": 0.3464566929133858,
                    "duration": 0.23306399999999883
                },
                {
                    "name": "C4",
                    "midi": 60,
                    "time": 29.599127999999965,
                    "velocity": 0.3228346456692913,
                    "duration": 0.23306399999999883
                },
                {
                    "name": "A#3",
                    "midi": 58,
                    "time": 29.832191999999964,
                    "velocity": 0.3858267716535433,
                    "duration": 0.23306399999999883
                },
                {
                    "name": "C4",
                    "midi": 60,
                    "time": 30.065255999999962,
                    "velocity": 0.28346456692913385,
                    "duration": 0.23306399999999883
                },
                {
                    "name": "A#3",
                    "midi": 58,
                    "time": 30.29831999999996,
                    "velocity": 0.33070866141732286,
                    "duration": 0.23306399999999883
                },
                {
                    "name": "C4",
                    "midi": 60,
                    "time": 30.53138399999996,
                    "velocity": 0.28346456692913385,
                    "duration": 0.23306399999999883
                },
                {
                    "name": "A3",
                    "midi": 57,
                    "time": 30.76444799999996,
                    "velocity": 0.41732283464566927,
                    "duration": 0.23306399999999883
                },
                {
                    "name": "C4",
                    "midi": 60,
                    "time": 30.997511999999958,
                    "velocity": 0.3543307086614173,
                    "duration": 0.23306399999999883
                },
                {
                    "name": "A3",
                    "midi": 57,
                    "time": 31.230575999999957,
                    "velocity": 0.36220472440944884,
                    "duration": 0.23306399999999883
                },
                {
                    "name": "C4",
                    "midi": 60,
                    "time": 31.463639999999955,
                    "velocity": 0.3464566929133858,
                    "duration": 0.23306399999999883
                },
                {
                    "name": "A#3",
                    "midi": 58,
                    "time": 31.696703999999954,
                    "velocity": 0.4015748031496063,
                    "duration": 0.23306399999999883
                },
                {
                    "name": "D4",
                    "midi": 62,
                    "time": 31.929767999999953,
                    "velocity": 0.36220472440944884,
                    "duration": 0.23306399999999883
                },
                {
                    "name": "A#3",
                    "midi": 58,
                    "time": 32.16283199999995,
                    "velocity": 0.4015748031496063,
                    "duration": 0.23306399999999883
                },
                {
                    "name": "D4",
                    "midi": 62,
                    "time": 32.39589599999995,
                    "velocity": 0.36220472440944884,
                    "duration": 0.23306399999999883
                },
                {
                    "name": "B3",
                    "midi": 59,
                    "time": 32.62895999999995,
                    "velocity": 0.3937007874015748,
                    "duration": 0.23306399999999883
                },
                {
                    "name": "D4",
                    "midi": 62,
                    "time": 32.86202399999995,
                    "velocity": 0.36220472440944884,
                    "duration": 0.23306399999999883
                },
                {
                    "name": "B3",
                    "midi": 59,
                    "time": 33.09508799999995,
                    "velocity": 0.4094488188976378,
                    "duration": 0.23306399999999883
                },
                {
                    "name": "D4",
                    "midi": 62,
                    "time": 33.328151999999946,
                    "velocity": 0.3779527559055118,
                    "duration": 0.23306399999999883
                },
                {
                    "name": "C4",
                    "midi": 60,
                    "time": 33.561215999999945,
                    "velocity": 0.4645669291338583,
                    "duration": 0.46612799999999766
                },
                {
                    "name": "D4",
                    "midi": 62,
                    "time": 34.02734399999994,
                    "velocity": 0.48031496062992124,
                    "duration": 0.46612799999999766
                },
                {
                    "name": "E4",
                    "midi": 64,
                    "time": 34.49347199999994,
                    "velocity": 0.49606299212598426,
                    "duration": 0.46612799999999766
                },
                {
                    "name": "F4",
                    "midi": 65,
                    "time": 34.95959999999994,
                    "velocity": 0.5118110236220472,
                    "duration": 0.46612799999999766
                },
                {
                    "name": "G4",
                    "midi": 67,
                    "time": 35.425727999999935,
                    "velocity": 0.5118110236220472,
                    "duration": 0.23306399999999883
                },
                {
                    "name": "C5",
                    "midi": 72,
                    "time": 35.658791999999934,
                    "velocity": 0.41732283464566927,
                    "duration": 0.23306399999999883
                },
                {
                    "name": "E4",
                    "midi": 64,
                    "time": 35.89185599999993,
                    "velocity": 0.47244094488188976,
                    "duration": 0.23306399999999883
                },
                {
                    "name": "C5",
                    "midi": 72,
                    "time": 36.12491999999993,
                    "velocity": 0.41732283464566927,
                    "duration": 0.23306399999999883
                },
                {
                    "name": "F4",
                    "midi": 65,
                    "time": 36.35798399999993,
                    "velocity": 0.4645669291338583,
                    "duration": 0.23306399999999883
                },
                {
                    "name": "C5",
                    "midi": 72,
                    "time": 36.59104799999993,
                    "velocity": 0.3937007874015748,
                    "duration": 0.23306399999999883
                },
                {
                    "name": "D4",
                    "midi": 62,
                    "time": 36.82411199999993,
                    "velocity": 0.4409448818897638,
                    "duration": 0.23306399999999883
                },
                {
                    "name": "C5",
                    "midi": 72,
                    "time": 37.05717599999993,
                    "velocity": 0.4094488188976378,
                    "duration": 0.23306399999999883
                },
                {
                    "name": "C4",
                    "midi": 60,
                    "time": 37.290239999999926,
                    "velocity": 0.47244094488188976,
                    "duration": 0.46612799999999766
                },
                {
                    "name": "D4",
                    "midi": 62,
                    "time": 37.756367999999924,
                    "velocity": 0.4881889763779528,
                    "duration": 0.46612799999999766
                },
                {
                    "name": "E4",
                    "midi": 64,
                    "time": 38.22249599999992,
                    "velocity": 0.5118110236220472,
                    "duration": 0.46612799999999766
                },
                {
                    "name": "F4",
                    "midi": 65,
                    "time": 38.68862399999992,
                    "velocity": 0.5354330708661418,
                    "duration": 0.46612799999999766
                },
                {
                    "name": "G4",
                    "midi": 67,
                    "time": 39.15475199999992,
                    "velocity": 0.5196850393700787,
                    "duration": 0.11653199999999941
                },
                {
                    "name": "C5",
                    "midi": 72,
                    "time": 39.271283999999916,
                    "velocity": 0.3464566929133858,
                    "duration": 0.11653199999999941
                },
                {
                    "name": "B4",
                    "midi": 71,
                    "time": 39.387815999999916,
                    "velocity": 0.3700787401574803,
                    "duration": 0.11653199999999941
                },
                {
                    "name": "C5",
                    "midi": 72,
                    "time": 39.504347999999915,
                    "velocity": 0.3464566929133858,
                    "duration": 0.11653199999999941
                },
                {
                    "name": "E4",
                    "midi": 64,
                    "time": 39.620879999999914,
                    "velocity": 0.44881889763779526,
                    "duration": 0.11653199999999941
                },
                {
                    "name": "C5",
                    "midi": 72,
                    "time": 39.737411999999914,
                    "velocity": 0.3543307086614173,
                    "duration": 0.11653199999999941
                },
                {
                    "name": "B4",
                    "midi": 71,
                    "time": 39.85394399999991,
                    "velocity": 0.3779527559055118,
                    "duration": 0.11653199999999941
                },
                {
                    "name": "C5",
                    "midi": 72,
                    "time": 39.97047599999991,
                    "velocity": 0.3464566929133858,
                    "duration": 0.11653199999999941
                },
                {
                    "name": "F4",
                    "midi": 65,
                    "time": 40.08700799999991,
                    "velocity": 0.44881889763779526,
                    "duration": 0.11653199999999941
                },
                {
                    "name": "C5",
                    "midi": 72,
                    "time": 40.20353999999991,
                    "velocity": 0.3464566929133858,
                    "duration": 0.11653199999999941
                },
                {
                    "name": "B4",
                    "midi": 71,
                    "time": 40.32007199999991,
                    "velocity": 0.36220472440944884,
                    "duration": 0.11653199999999941
                },
                {
                    "name": "C5",
                    "midi": 72,
                    "time": 40.43660399999991,
                    "velocity": 0.3464566929133858,
                    "duration": 0.11653199999999941
                },
                {
                    "name": "D4",
                    "midi": 62,
                    "time": 40.55313599999991,
                    "velocity": 0.4409448818897638,
                    "duration": 0.11653199999999941
                },
                {
                    "name": "B4",
                    "midi": 71,
                    "time": 40.66966799999991,
                    "velocity": 0.3543307086614173,
                    "duration": 0.11653199999999941
                },
                {
                    "name": "A4",
                    "midi": 69,
                    "time": 40.78619999999991,
                    "velocity": 0.3543307086614173,
                    "duration": 0.11653199999999941
                },
                {
                    "name": "B4",
                    "midi": 71,
                    "time": 40.90273199999991,
                    "velocity": 0.33858267716535434,
                    "duration": 0.11653199999999941
                },
                {
                    "name": "C5",
                    "midi": 72,
                    "time": 41.01926399999991,
                    "velocity": 0.4409448818897638,
                    "duration": 0.46127249999999975
                },
                {
                    "name": "C4",
                    "midi": 60,
                    "time": 41.01926399999991,
                    "velocity": 0.4409448818897638,
                    "duration": 0.46127249999999975
                },
                {
                    "name": "C3",
                    "midi": 48,
                    "time": 41.95151999999991,
                    "velocity": 0.5748031496062992,
                    "duration": 0.23306399999999883
                },
                {
                    "name": "C2",
                    "midi": 36,
                    "time": 41.95151999999991,
                    "velocity": 0.5748031496062992,
                    "duration": 0.23306399999999883
                },
                {
                    "name": "F2",
                    "midi": 41,
                    "time": 42.88377599999991,
                    "velocity": 0.5196850393700787,
                    "duration": 0.9322560000000024
                },
                {
                    "name": "F3",
                    "midi": 53,
                    "time": 42.88377599999991,
                    "velocity": 0.5196850393700787,
                    "duration": 0.9322560000000024
                },
                {
                    "name": "A#3",
                    "midi": 58,
                    "time": 45.214415999999915,
                    "velocity": 0.5354330708661418,
                    "duration": 0.9322560000000024
                },
                {
                    "name": "A#2",
                    "midi": 46,
                    "time": 45.214415999999915,
                    "velocity": 0.5354330708661418,
                    "duration": 0.9322560000000024
                },
                {
                    "name": "A3",
                    "midi": 57,
                    "time": 46.14667199999992,
                    "velocity": 0.3464566929133858,
                    "duration": 0.46612799999999766
                },
                {
                    "name": "B3",
                    "midi": 59,
                    "time": 46.612799999999915,
                    "velocity": 0.2992125984251969,
                    "duration": 0.46612799999999766
                },
                {
                    "name": "D4",
                    "midi": 62,
                    "time": 46.612799999999915,
                    "velocity": 0.2992125984251969,
                    "duration": 0.46612799999999766
                },
                {
                    "name": "C4",
                    "midi": 60,
                    "time": 47.07892799999991,
                    "velocity": 0.2992125984251969,
                    "duration": 0.46612799999999766
                },
                {
                    "name": "D4",
                    "midi": 62,
                    "time": 47.54505599999991,
                    "velocity": 0.2992125984251969,
                    "duration": 0.46612799999999766
                },
                {
                    "name": "B3",
                    "midi": 59,
                    "time": 47.54505599999991,
                    "velocity": 0.2992125984251969,
                    "duration": 0.46612799999999766
                },
                {
                    "name": "C4",
                    "midi": 60,
                    "time": 48.01118399999991,
                    "velocity": 0.31496062992125984,
                    "duration": 0.46612799999999766
                },
                {
                    "name": "D4",
                    "midi": 62,
                    "time": 48.477311999999905,
                    "velocity": 0.30708661417322836,
                    "duration": 0.46612799999999766
                },
                {
                    "name": "E4",
                    "midi": 64,
                    "time": 48.9434399999999,
                    "velocity": 0.2755905511811024,
                    "duration": 0.46612799999999766
                },
                {
                    "name": "F4",
                    "midi": 65,
                    "time": 49.4095679999999,
                    "velocity": 0.2755905511811024,
                    "duration": 0.46612799999999766
                },
                {
                    "name": "A#2",
                    "midi": 46,
                    "time": 50.5748879999999,
                    "velocity": 0.3543307086614173,
                    "duration": 0.23306399999999883
                },
                {
                    "name": "D3",
                    "midi": 50,
                    "time": 50.8079519999999,
                    "velocity": 0.36220472440944884,
                    "duration": 0.23306399999999883
                },
                {
                    "name": "G3",
                    "midi": 55,
                    "time": 51.0410159999999,
                    "velocity": 0.3543307086614173,
                    "duration": 0.23306399999999883
                },
                {
                    "name": "A#3",
                    "midi": 58,
                    "time": 51.2740799999999,
                    "velocity": 0.4094488188976378,
                    "duration": 0.46612799999999766
                },
                {
                    "name": "A2",
                    "midi": 45,
                    "time": 52.43939999999989,
                    "velocity": 0.3464566929133858,
                    "duration": 0.23306399999999883
                },
                {
                    "name": "C3",
                    "midi": 48,
                    "time": 52.67246399999989,
                    "velocity": 0.3464566929133858,
                    "duration": 0.23306399999999883
                },
                {
                    "name": "F3",
                    "midi": 53,
                    "time": 52.90552799999989,
                    "velocity": 0.33070866141732286,
                    "duration": 0.23306399999999883
                },
                {
                    "name": "A3",
                    "midi": 57,
                    "time": 53.13859199999989,
                    "velocity": 0.4094488188976378,
                    "duration": 0.46612799999999766
                },
                {
                    "name": "G3",
                    "midi": 55,
                    "time": 54.070847999999884,
                    "velocity": 0.3464566929133858,
                    "duration": 0.46612799999999766
                },
                {
                    "name": "E3",
                    "midi": 52,
                    "time": 54.53697599999988,
                    "velocity": 0.3228346456692913,
                    "duration": 0.46612799999999766
                },
                {
                    "name": "F3",
                    "midi": 53,
                    "time": 55.00310399999988,
                    "velocity": 0.33858267716535434,
                    "duration": 0.46612799999999766
                },
                {
                    "name": "D3",
                    "midi": 50,
                    "time": 55.46923199999988,
                    "velocity": 0.33070866141732286,
                    "duration": 0.46612799999999766
                },
                {
                    "name": "C3",
                    "midi": 48,
                    "time": 55.935359999999875,
                    "velocity": 0.3464566929133858,
                    "duration": 0.46612799999999766
                },
                {
                    "name": "C3",
                    "midi": 48,
                    "time": 56.86761599999987,
                    "velocity": 0.41732283464566927,
                    "duration": 0.11653199999999941
                },
                {
                    "name": "D3",
                    "midi": 50,
                    "time": 56.98414799999987,
                    "velocity": 0.3858267716535433,
                    "duration": 0.11653199999999941
                },
                {
                    "name": "A#2",
                    "midi": 46,
                    "time": 57.10067999999987,
                    "velocity": 0.4251968503937008,
                    "duration": 0.11653199999999941
                },
                {
                    "name": "C3",
                    "midi": 48,
                    "time": 57.21721199999987,
                    "velocity": 0.3858267716535433,
                    "duration": 0.11653199999999941
                },
                {
                    "name": "A2",
                    "midi": 45,
                    "time": 57.33374399999987,
                    "velocity": 0.4251968503937008,
                    "duration": 0.11653199999999941
                },
                {
                    "name": "A#2",
                    "midi": 46,
                    "time": 57.45027599999987,
                    "velocity": 0.3858267716535433,
                    "duration": 0.11653199999999941
                },
                {
                    "name": "G2",
                    "midi": 43,
                    "time": 57.56680799999987,
                    "velocity": 0.4409448818897638,
                    "duration": 0.11653199999999941
                },
                {
                    "name": "A2",
                    "midi": 45,
                    "time": 57.683339999999866,
                    "velocity": 0.3858267716535433,
                    "duration": 0.11653199999999941
                },
                {
                    "name": "F2",
                    "midi": 41,
                    "time": 57.799871999999866,
                    "velocity": 0.5196850393700787,
                    "duration": 0.46612799999999766
                },
                {
                    "name": "F3",
                    "midi": 53,
                    "time": 58.26599999999986,
                    "velocity": 0.36220472440944884,
                    "duration": 0.46612799999999766
                },
                {
                    "name": "A#2",
                    "midi": 46,
                    "time": 60.13051199999986,
                    "velocity": 0.4645669291338583,
                    "duration": 0.9322560000000024
                },
                {
                    "name": "A#3",
                    "midi": 58,
                    "time": 60.13051199999986,
                    "velocity": 0.4645669291338583,
                    "duration": 0.9322560000000024
                },
                {
                    "name": "A3",
                    "midi": 57,
                    "time": 61.06276799999986,
                    "velocity": 0.33858267716535434,
                    "duration": 0.46612799999999766
                },
                {
                    "name": "B3",
                    "midi": 59,
                    "time": 61.52889599999986,
                    "velocity": 0.33858267716535434,
                    "duration": 0.46612799999999766
                },
                {
                    "name": "D4",
                    "midi": 62,
                    "time": 61.52889599999986,
                    "velocity": 0.33858267716535434,
                    "duration": 0.46612799999999766
                },
                {
                    "name": "C4",
                    "midi": 60,
                    "time": 61.99502399999986,
                    "velocity": 0.33858267716535434,
                    "duration": 0.46612799999999766
                },
                {
                    "name": "D4",
                    "midi": 62,
                    "time": 62.461151999999856,
                    "velocity": 0.33858267716535434,
                    "duration": 0.46612799999999766
                },
                {
                    "name": "B3",
                    "midi": 59,
                    "time": 62.461151999999856,
                    "velocity": 0.33858267716535434,
                    "duration": 0.46612799999999766
                },
                {
                    "name": "C4",
                    "midi": 60,
                    "time": 62.927279999999854,
                    "velocity": 0.33858267716535434,
                    "duration": 0.46612799999999766
                },
                {
                    "name": "F4",
                    "midi": 65,
                    "time": 63.39340799999985,
                    "velocity": 0.33858267716535434,
                    "duration": 0.46612799999999766
                },
                {
                    "name": "D4",
                    "midi": 62,
                    "time": 63.39340799999985,
                    "velocity": 0.33858267716535434,
                    "duration": 0.46612799999999766
                },
                {
                    "name": "G4",
                    "midi": 67,
                    "time": 63.85953599999985,
                    "velocity": 0.33858267716535434,
                    "duration": 0.46612799999999766
                },
                {
                    "name": "E4",
                    "midi": 64,
                    "time": 63.85953599999985,
                    "velocity": 0.33858267716535434,
                    "duration": 0.46612799999999766
                },
                {
                    "name": "F4",
                    "midi": 65,
                    "time": 64.32566399999985,
                    "velocity": 0.36220472440944884,
                    "duration": 0.46612799999999766
                },
                {
                    "name": "D3",
                    "midi": 50,
                    "time": 65.49098399999984,
                    "velocity": 0.4251968503937008,
                    "duration": 0.23306399999999883
                },
                {
                    "name": "D4",
                    "midi": 62,
                    "time": 65.72404799999984,
                    "velocity": 0.48031496062992124,
                    "duration": 0.11653200000000652
                },
                {
                    "name": "C4",
                    "midi": 60,
                    "time": 65.95711199999985,
                    "velocity": 0.41732283464566927,
                    "duration": 0.11653200000000652
                },
                {
                    "name": "A#3",
                    "midi": 58,
                    "time": 66.19017599999987,
                    "velocity": 0.47244094488188976,
                    "duration": 0.11653200000000652
                },
                {
                    "name": "A#2",
                    "midi": 46,
                    "time": 66.42323999999988,
                    "velocity": 0.41732283464566927,
                    "duration": 0.23306399999999883
                },
                {
                    "name": "A#3",
                    "midi": 58,
                    "time": 66.65630399999988,
                    "velocity": 0.48031496062992124,
                    "duration": 0.11653200000000652
                },
                {
                    "name": "A3",
                    "midi": 57,
                    "time": 66.88936799999989,
                    "velocity": 0.41732283464566927,
                    "duration": 0.11653200000000652
                },
                {
                    "name": "G3",
                    "midi": 55,
                    "time": 67.1224319999999,
                    "velocity": 0.44881889763779526,
                    "duration": 0.23306399999999883
                },
                {
                    "name": "F3",
                    "midi": 53,
                    "time": 67.3554959999999,
                    "velocity": 0.41732283464566927,
                    "duration": 0.23306399999999883
                },
                {
                    "name": "E3",
                    "midi": 52,
                    "time": 67.5885599999999,
                    "velocity": 0.41732283464566927,
                    "duration": 0.23306399999999883
                },
                {
                    "name": "C3",
                    "midi": 48,
                    "time": 67.8216239999999,
                    "velocity": 0.41732283464566927,
                    "duration": 0.23306399999999883
                },
                {
                    "name": "F3",
                    "midi": 53,
                    "time": 68.0546879999999,
                    "velocity": 0.47244094488188976,
                    "duration": 0.46612799999999766
                },
                {
                    "name": "A2",
                    "midi": 45,
                    "time": 68.5208159999999,
                    "velocity": 0.4409448818897638,
                    "duration": 0.46612799999999766
                },
                {
                    "name": "A#2",
                    "midi": 46,
                    "time": 68.9869439999999,
                    "velocity": 0.4645669291338583,
                    "duration": 0.46612799999999766
                },
                {
                    "name": "A#3",
                    "midi": 58,
                    "time": 69.45307199999989,
                    "velocity": 0.41732283464566927,
                    "duration": 0.46612799999999766
                },
                {
                    "name": "C4",
                    "midi": 60,
                    "time": 69.91919999999989,
                    "velocity": 0.4251968503937008,
                    "duration": 0.46612799999999766
                },
                {
                    "name": "C3",
                    "midi": 48,
                    "time": 70.38532799999989,
                    "velocity": 0.41732283464566927,
                    "duration": 0.46612799999999766
                },
                {
                    "name": "F3",
                    "midi": 53,
                    "time": 70.85145599999989,
                    "velocity": 0.41732283464566927,
                    "duration": 0.11653200000000652
                },
                {
                    "name": "C4",
                    "midi": 60,
                    "time": 70.96798799999989,
                    "velocity": 0.36220472440944884,
                    "duration": 0.11653200000000652
                },
                {
                    "name": "B3",
                    "midi": 59,
                    "time": 71.0845199999999,
                    "velocity": 0.3858267716535433,
                    "duration": 0.11653200000000652
                },
                {
                    "name": "C4",
                    "midi": 60,
                    "time": 71.2010519999999,
                    "velocity": 0.36220472440944884,
                    "duration": 0.11653200000000652
                },
                {
                    "name": "D4",
                    "midi": 62,
                    "time": 71.31758399999991,
                    "velocity": 0.41732283464566927,
                    "duration": 0.11653200000000652
                },
                {
                    "name": "C4",
                    "midi": 60,
                    "time": 71.43411599999992,
                    "velocity": 0.36220472440944884,
                    "duration": 0.11653200000000652
                },
                {
                    "name": "B3",
                    "midi": 59,
                    "time": 71.55064799999992,
                    "velocity": 0.3858267716535433,
                    "duration": 0.11653200000000652
                },
                {
                    "name": "C4",
                    "midi": 60,
                    "time": 71.66717999999993,
                    "velocity": 0.36220472440944884,
                    "duration": 0.11653200000000652
                },
                {
                    "name": "A#3",
                    "midi": 58,
                    "time": 71.78371199999994,
                    "velocity": 0.41732283464566927,
                    "duration": 0.11653200000000652
                },
                {
                    "name": "C4",
                    "midi": 60,
                    "time": 71.90024399999994,
                    "velocity": 0.3937007874015748,
                    "duration": 0.11653200000000652
                },
                {
                    "name": "A3",
                    "midi": 57,
                    "time": 72.01677599999995,
                    "velocity": 0.41732283464566927,
                    "duration": 0.11653200000000652
                },
                {
                    "name": "C4",
                    "midi": 60,
                    "time": 72.13330799999996,
                    "velocity": 0.3858267716535433,
                    "duration": 0.11653200000000652
                },
                {
                    "name": "G3",
                    "midi": 55,
                    "time": 72.24983999999996,
                    "velocity": 0.41732283464566927,
                    "duration": 0.11653200000000652
                },
                {
                    "name": "C4",
                    "midi": 60,
                    "time": 72.36637199999997,
                    "velocity": 0.3937007874015748,
                    "duration": 0.11653200000000652
                },
                {
                    "name": "F3",
                    "midi": 53,
                    "time": 72.48290399999998,
                    "velocity": 0.41732283464566927,
                    "duration": 0.11653200000000652
                },
                {
                    "name": "C4",
                    "midi": 60,
                    "time": 72.59943599999998,
                    "velocity": 0.3937007874015748,
                    "duration": 0.11653200000000652
                },
                {
                    "name": "E3",
                    "midi": 52,
                    "time": 72.71596799999999,
                    "velocity": 0.3779527559055118,
                    "duration": 0.11653200000000652
                },
                {
                    "name": "C4",
                    "midi": 60,
                    "time": 72.8325,
                    "velocity": 0.33070866141732286,
                    "duration": 0.11653200000000652
                },
                {
                    "name": "G3",
                    "midi": 55,
                    "time": 72.949032,
                    "velocity": 0.33070866141732286,
                    "duration": 0.11653200000000652
                },
                {
                    "name": "C4",
                    "midi": 60,
                    "time": 73.06556400000001,
                    "velocity": 0.31496062992125984,
                    "duration": 0.11653200000000652
                },
                {
                    "name": "A#3",
                    "midi": 58,
                    "time": 73.18209600000002,
                    "velocity": 0.3779527559055118,
                    "duration": 0.11653200000000652
                },
                {
                    "name": "C4",
                    "midi": 60,
                    "time": 73.29862800000002,
                    "velocity": 0.33070866141732286,
                    "duration": 0.11653200000000652
                },
                {
                    "name": "A#3",
                    "midi": 58,
                    "time": 73.41516000000003,
                    "velocity": 0.33070866141732286,
                    "duration": 0.11653200000000652
                },
                {
                    "name": "C4",
                    "midi": 60,
                    "time": 73.53169200000004,
                    "velocity": 0.3228346456692913,
                    "duration": 0.11653200000000652
                },
                {
                    "name": "E3",
                    "midi": 52,
                    "time": 73.64822400000004,
                    "velocity": 0.3700787401574803,
                    "duration": 0.11653200000000652
                },
                {
                    "name": "C4",
                    "midi": 60,
                    "time": 73.76475600000005,
                    "velocity": 0.33858267716535434,
                    "duration": 0.11653200000000652
                },
                {
                    "name": "G3",
                    "midi": 55,
                    "time": 73.88128800000005,
                    "velocity": 0.33858267716535434,
                    "duration": 0.11653200000000652
                },
                {
                    "name": "C4",
                    "midi": 60,
                    "time": 73.99782000000006,
                    "velocity": 0.33070866141732286,
                    "duration": 0.11653200000000652
                },
                {
                    "name": "A#3",
                    "midi": 58,
                    "time": 74.11435200000007,
                    "velocity": 0.3779527559055118,
                    "duration": 0.11653200000000652
                },
                {
                    "name": "C4",
                    "midi": 60,
                    "time": 74.23088400000007,
                    "velocity": 0.33070866141732286,
                    "duration": 0.11653200000000652
                },
                {
                    "name": "A#3",
                    "midi": 58,
                    "time": 74.34741600000008,
                    "velocity": 0.33070866141732286,
                    "duration": 0.11653200000000652
                },
                {
                    "name": "C4",
                    "midi": 60,
                    "time": 74.46394800000009,
                    "velocity": 0.33070866141732286,
                    "duration": 0.11653200000000652
                },
                {
                    "name": "A3",
                    "midi": 57,
                    "time": 74.5804800000001,
                    "velocity": 0.3464566929133858,
                    "duration": 0.11653200000000652
                },
                {
                    "name": "C4",
                    "midi": 60,
                    "time": 74.6970120000001,
                    "velocity": 0.3543307086614173,
                    "duration": 0.11653200000000652
                },
                {
                    "name": "E3",
                    "midi": 52,
                    "time": 74.8135440000001,
                    "velocity": 0.3543307086614173,
                    "duration": 0.11653200000000652
                },
                {
                    "name": "C4",
                    "midi": 60,
                    "time": 74.93007600000011,
                    "velocity": 0.3543307086614173,
                    "duration": 0.11653200000000652
                },
                {
                    "name": "F3",
                    "midi": 53,
                    "time": 75.04660800000012,
                    "velocity": 0.36220472440944884,
                    "duration": 0.11653200000000652
                },
                {
                    "name": "C4",
                    "midi": 60,
                    "time": 75.16314000000013,
                    "velocity": 0.3700787401574803,
                    "duration": 0.11653200000000652
                },
                {
                    "name": "G3",
                    "midi": 55,
                    "time": 75.27967200000013,
                    "velocity": 0.3779527559055118,
                    "duration": 0.11653200000000652
                },
                {
                    "name": "C4",
                    "midi": 60,
                    "time": 75.39620400000014,
                    "velocity": 0.3858267716535433,
                    "duration": 0.11653200000000652
                },
                {
                    "name": "G#3",
                    "midi": 56,
                    "time": 75.51273600000015,
                    "velocity": 0.41732283464566927,
                    "duration": 0.11653200000000652
                },
                {
                    "name": "C4",
                    "midi": 60,
                    "time": 75.62926800000015,
                    "velocity": 0.3779527559055118,
                    "duration": 0.11653200000000652
                },
                {
                    "name": "A3",
                    "midi": 57,
                    "time": 75.74580000000016,
                    "velocity": 0.41732283464566927,
                    "duration": 0.11653200000000652
                },
                {
                    "name": "C4",
                    "midi": 60,
                    "time": 75.86233200000017,
                    "velocity": 0.36220472440944884,
                    "duration": 0.11653200000000652
                },
                {
                    "name": "G#3",
                    "midi": 56,
                    "time": 75.97886400000017,
                    "velocity": 0.41732283464566927,
                    "duration": 0.11653200000000652
                },
                {
                    "name": "C4",
                    "midi": 60,
                    "time": 76.09539600000018,
                    "velocity": 0.36220472440944884,
                    "duration": 0.11653200000000652
                },
                {
                    "name": "A3",
                    "midi": 57,
                    "time": 76.21192800000019,
                    "velocity": 0.41732283464566927,
                    "duration": 0.11653200000000652
                },
                {
                    "name": "C4",
                    "midi": 60,
                    "time": 76.32846000000019,
                    "velocity": 0.3700787401574803,
                    "duration": 0.11653200000000652
                },
                {
                    "name": "E3",
                    "midi": 52,
                    "time": 76.4449920000002,
                    "velocity": 0.3779527559055118,
                    "duration": 0.11653200000000652
                },
                {
                    "name": "C4",
                    "midi": 60,
                    "time": 76.5615240000002,
                    "velocity": 0.2992125984251969,
                    "duration": 0.11653200000000652
                },
                {
                    "name": "G3",
                    "midi": 55,
                    "time": 76.67805600000021,
                    "velocity": 0.33070866141732286,
                    "duration": 0.11653200000000652
                },
                {
                    "name": "C4",
                    "midi": 60,
                    "time": 76.79458800000022,
                    "velocity": 0.30708661417322836,
                    "duration": 0.11653200000000652
                },
                {
                    "name": "A#3",
                    "midi": 58,
                    "time": 76.91112000000022,
                    "velocity": 0.3779527559055118,
                    "duration": 0.11653200000000652
                },
                {
                    "name": "C4",
                    "midi": 60,
                    "time": 77.02765200000023,
                    "velocity": 0.30708661417322836,
                    "duration": 0.11653200000000652
                },
                {
                    "name": "A#3",
                    "midi": 58,
                    "time": 77.14418400000024,
                    "velocity": 0.33070866141732286,
                    "duration": 0.11653200000000652
                },
                {
                    "name": "C4",
                    "midi": 60,
                    "time": 77.26071600000024,
                    "velocity": 0.31496062992125984,
                    "duration": 0.11653200000000652
                },
                {
                    "name": "E3",
                    "midi": 52,
                    "time": 77.37724800000025,
                    "velocity": 0.3700787401574803,
                    "duration": 0.11653200000000652
                },
                {
                    "name": "C4",
                    "midi": 60,
                    "time": 77.49378000000026,
                    "velocity": 0.3228346456692913,
                    "duration": 0.11653200000000652
                },
                {
                    "name": "G3",
                    "midi": 55,
                    "time": 77.61031200000026,
                    "velocity": 0.33858267716535434,
                    "duration": 0.11653200000000652
                },
                {
                    "name": "C4",
                    "midi": 60,
                    "time": 77.72684400000027,
                    "velocity": 0.31496062992125984,
                    "duration": 0.11653200000000652
                },
                {
                    "name": "A#3",
                    "midi": 58,
                    "time": 77.84337600000028,
                    "velocity": 0.3779527559055118,
                    "duration": 0.11653200000000652
                },
                {
                    "name": "C4",
                    "midi": 60,
                    "time": 77.95990800000028,
                    "velocity": 0.2992125984251969,
                    "duration": 0.11653200000000652
                },
                {
                    "name": "A#3",
                    "midi": 58,
                    "time": 78.07644000000029,
                    "velocity": 0.33070866141732286,
                    "duration": 0.11653200000000652
                },
                {
                    "name": "C4",
                    "midi": 60,
                    "time": 78.1929720000003,
                    "velocity": 0.31496062992125984,
                    "duration": 0.11653200000000652
                },
                {
                    "name": "A3",
                    "midi": 57,
                    "time": 78.3095040000003,
                    "velocity": 0.3464566929133858,
                    "duration": 0.11653200000000652
                },
                {
                    "name": "C4",
                    "midi": 60,
                    "time": 78.42603600000031,
                    "velocity": 0.33858267716535434,
                    "duration": 0.11653200000000652
                },
                {
                    "name": "E3",
                    "midi": 52,
                    "time": 78.54256800000032,
                    "velocity": 0.3543307086614173,
                    "duration": 0.11653200000000652
                },
                {
                    "name": "C4",
                    "midi": 60,
                    "time": 78.65910000000032,
                    "velocity": 0.3543307086614173,
                    "duration": 0.11653200000000652
                },
                {
                    "name": "F3",
                    "midi": 53,
                    "time": 78.77563200000033,
                    "velocity": 0.36220472440944884,
                    "duration": 0.11653200000000652
                },
                {
                    "name": "C4",
                    "midi": 60,
                    "time": 78.89216400000034,
                    "velocity": 0.3543307086614173,
                    "duration": 0.11653200000000652
                },
                {
                    "name": "G3",
                    "midi": 55,
                    "time": 79.00869600000034,
                    "velocity": 0.3779527559055118,
                    "duration": 0.11653200000000652
                },
                {
                    "name": "C4",
                    "midi": 60,
                    "time": 79.12522800000035,
                    "velocity": 0.3700787401574803,
                    "duration": 0.11653200000000652
                },
                {
                    "name": "G#3",
                    "midi": 56,
                    "time": 79.24176000000035,
                    "velocity": 0.41732283464566927,
                    "duration": 0.11653200000000652
                },
                {
                    "name": "C4",
                    "midi": 60,
                    "time": 79.35829200000036,
                    "velocity": 0.3779527559055118,
                    "duration": 0.11653200000000652
                },
                {
                    "name": "A3",
                    "midi": 57,
                    "time": 79.47482400000037,
                    "velocity": 0.41732283464566927,
                    "duration": 0.11653200000000652
                },
                {
                    "name": "C4",
                    "midi": 60,
                    "time": 79.59135600000037,
                    "velocity": 0.36220472440944884,
                    "duration": 0.11653200000000652
                },
                {
                    "name": "G#3",
                    "midi": 56,
                    "time": 79.70788800000038,
                    "velocity": 0.41732283464566927,
                    "duration": 0.11653200000000652
                },
                {
                    "name": "C4",
                    "midi": 60,
                    "time": 79.82442000000039,
                    "velocity": 0.36220472440944884,
                    "duration": 0.11653200000000652
                },
                {
                    "name": "A3",
                    "midi": 57,
                    "time": 79.9409520000004,
                    "velocity": 0.41732283464566927,
                    "duration": 0.11653200000000652
                },
                {
                    "name": "C4",
                    "midi": 60,
                    "time": 80.0574840000004,
                    "velocity": 0.3700787401574803,
                    "duration": 0.11653200000000652
                },
                {
                    "name": "A#3",
                    "midi": 58,
                    "time": 80.4070800000004,
                    "velocity": 0.28346456692913385,
                    "duration": 0.23306399999999883
                },
                {
                    "name": "A3",
                    "midi": 57,
                    "time": 80.6401440000004,
                    "velocity": 0.2992125984251969,
                    "duration": 0.23306399999999883
                },
                {
                    "name": "A#3",
                    "midi": 58,
                    "time": 80.8732080000004,
                    "velocity": 0.28346456692913385,
                    "duration": 0.23306399999999883
                },
                {
                    "name": "C4",
                    "midi": 60,
                    "time": 81.3393360000004,
                    "velocity": 0.2677165354330709,
                    "duration": 0.23306399999999883
                },
                {
                    "name": "B3",
                    "midi": 59,
                    "time": 81.5724000000004,
                    "velocity": 0.2992125984251969,
                    "duration": 0.23306399999999883
                },
                {
                    "name": "C4",
                    "midi": 60,
                    "time": 81.8054640000004,
                    "velocity": 0.25984251968503935,
                    "duration": 0.23306399999999883
                },
                {
                    "name": "C#4",
                    "midi": 61,
                    "time": 82.2715920000004,
                    "velocity": 0.2677165354330709,
                    "duration": 0.23306399999999883
                },
                {
                    "name": "B3",
                    "midi": 59,
                    "time": 82.5046560000004,
                    "velocity": 0.28346456692913385,
                    "duration": 0.23306399999999883
                },
                {
                    "name": "C#4",
                    "midi": 61,
                    "time": 82.7377200000004,
                    "velocity": 0.2677165354330709,
                    "duration": 0.23306399999999883
                },
                {
                    "name": "D4",
                    "midi": 62,
                    "time": 83.20384800000039,
                    "velocity": 0.2992125984251969,
                    "duration": 0.23306399999999883
                },
                {
                    "name": "C#4",
                    "midi": 61,
                    "time": 83.43691200000039,
                    "velocity": 0.31496062992125984,
                    "duration": 0.23306399999999883
                },
                {
                    "name": "D4",
                    "midi": 62,
                    "time": 83.66997600000039,
                    "velocity": 0.2992125984251969,
                    "duration": 0.23306399999999883
                },
                {
                    "name": "A#3",
                    "midi": 58,
                    "time": 84.36916800000039,
                    "velocity": 0.4251968503937008,
                    "duration": 0.46612799999999766
                },
                {
                    "name": "G4",
                    "midi": 67,
                    "time": 84.36916800000039,
                    "velocity": 0.4251968503937008,
                    "duration": 0.46612799999999766
                },
                {
                    "name": "C4",
                    "midi": 60,
                    "time": 84.83529600000038,
                    "velocity": 0.4251968503937008,
                    "duration": 0.9322559999999953
                },
                {
                    "name": "A4",
                    "midi": 69,
                    "time": 84.83529600000038,
                    "velocity": 0.4251968503937008,
                    "duration": 0.46612799999999766
                },
                {
                    "name": "A#4",
                    "midi": 70,
                    "time": 85.30142400000038,
                    "velocity": 0.3543307086614173,
                    "duration": 0.46612799999999766
                },
                {
                    "name": "A4",
                    "midi": 69,
                    "time": 85.76755200000038,
                    "velocity": 0.31496062992125984,
                    "duration": 0.9322559999999953
                },
                {
                    "name": "F4",
                    "midi": 65,
                    "time": 85.76755200000038,
                    "velocity": 0.2677165354330709,
                    "duration": 0.9322559999999953
                },
                {
                    "name": "A4",
                    "midi": 69,
                    "time": 86.69980800000037,
                    "velocity": 0.28346456692913385,
                    "duration": 0.9322559999999953
                },
                {
                    "name": "F4",
                    "midi": 65,
                    "time": 86.69980800000037,
                    "velocity": 0.23622047244094488,
                    "duration": 0.9322559999999953
                },
                {
                    "name": "F#3",
                    "midi": 54,
                    "time": 87.63206400000037,
                    "velocity": 0.23622047244094488,
                    "duration": 0.9322559999999953
                },
                {
                    "name": "A3",
                    "midi": 57,
                    "time": 87.63206400000037,
                    "velocity": 0.23622047244094488,
                    "duration": 0.9322559999999953
                },
                {
                    "name": "C4",
                    "midi": 60,
                    "time": 87.63206400000037,
                    "velocity": 0.28346456692913385,
                    "duration": 0.9322559999999953
                },
                {
                    "name": "G3",
                    "midi": 55,
                    "time": 88.56432000000036,
                    "velocity": 0.23622047244094488,
                    "duration": 0.9322559999999953
                },
                {
                    "name": "A#3",
                    "midi": 58,
                    "time": 88.56432000000036,
                    "velocity": 0.28346456692913385,
                    "duration": 0.9322559999999953
                },
                {
                    "name": "E3",
                    "midi": 52,
                    "time": 89.49657600000036,
                    "velocity": 0.2283464566929134,
                    "duration": 0.9322559999999953
                },
                {
                    "name": "A#3",
                    "midi": 58,
                    "time": 89.49657600000036,
                    "velocity": 0.2755905511811024,
                    "duration": 0.9322559999999953
                },
                {
                    "name": "G3",
                    "midi": 55,
                    "time": 89.49657600000036,
                    "velocity": 0.2283464566929134,
                    "duration": 0.9322559999999953
                },
                {
                    "name": "A3",
                    "midi": 57,
                    "time": 90.42883200000036,
                    "velocity": 0.2755905511811024,
                    "duration": 0.9322559999999953
                },
                {
                    "name": "F3",
                    "midi": 53,
                    "time": 90.42883200000036,
                    "velocity": 0.2283464566929134,
                    "duration": 0.9322559999999953
                },
                {
                    "name": "G3",
                    "midi": 55,
                    "time": 91.82721600000035,
                    "velocity": 0.25196850393700787,
                    "duration": 0.46612799999999766
                },
                {
                    "name": "B2",
                    "midi": 47,
                    "time": 91.82721600000035,
                    "velocity": 0.25196850393700787,
                    "duration": 0.46612799999999766
                },
                {
                    "name": "A3",
                    "midi": 57,
                    "time": 92.29334400000035,
                    "velocity": 0.28346456692913385,
                    "duration": 0.46612799999999766
                },
                {
                    "name": "C3",
                    "midi": 48,
                    "time": 92.29334400000035,
                    "velocity": 0.28346456692913385,
                    "duration": 0.9322559999999953
                },
                {
                    "name": "A#3",
                    "midi": 58,
                    "time": 92.75947200000034,
                    "velocity": 0.2755905511811024,
                    "duration": 0.46612799999999766
                },
                {
                    "name": "A3",
                    "midi": 57,
                    "time": 93.22560000000034,
                    "velocity": 0.33858267716535434,
                    "duration": 0.11653200000000652
                },
                {
                    "name": "F3",
                    "midi": 53,
                    "time": 93.22560000000034,
                    "velocity": 0.33858267716535434,
                    "duration": 0.11653200000000652
                },
                {
                    "name": "E4",
                    "midi": 64,
                    "time": 93.69172800000035,
                    "velocity": 0.2755905511811024,
                    "duration": 0.23306399999999883
                },
                {
                    "name": "D#4",
                    "midi": 63,
                    "time": 93.92479200000035,
                    "velocity": 0.2755905511811024,
                    "duration": 0.23306399999999883
                },
                {
                    "name": "D4",
                    "midi": 62,
                    "time": 94.15785600000035,
                    "velocity": 0.33858267716535434,
                    "duration": 0.11653200000000652
                },
                {
                    "name": "F3",
                    "midi": 53,
                    "time": 94.15785600000035,
                    "velocity": 0.33858267716535434,
                    "duration": 0.11653200000000652
                },
                {
                    "name": "E4",
                    "midi": 64,
                    "time": 94.62398400000036,
                    "velocity": 0.2755905511811024,
                    "duration": 0.23306399999999883
                },
                {
                    "name": "D#4",
                    "midi": 63,
                    "time": 94.85704800000036,
                    "velocity": 0.2755905511811024,
                    "duration": 0.23306399999999883
                },
                {
                    "name": "D4",
                    "midi": 62,
                    "time": 95.09011200000036,
                    "velocity": 0.33070866141732286,
                    "duration": 0.11653200000000652
                },
                {
                    "name": "F3",
                    "midi": 53,
                    "time": 95.09011200000036,
                    "velocity": 0.33070866141732286,
                    "duration": 0.11653200000000652
                },
                {
                    "name": "E4",
                    "midi": 64,
                    "time": 95.55624000000037,
                    "velocity": 0.33858267716535434,
                    "duration": 0.23306399999999883
                },
                {
                    "name": "D#4",
                    "midi": 63,
                    "time": 95.78930400000037,
                    "velocity": 0.33858267716535434,
                    "duration": 0.23306399999999883
                },
                {
                    "name": "D4",
                    "midi": 62,
                    "time": 96.02236800000037,
                    "velocity": 0.3700787401574803,
                    "duration": 0.23306399999999883
                },
                {
                    "name": "A3",
                    "midi": 57,
                    "time": 96.25543200000037,
                    "velocity": 0.3464566929133858,
                    "duration": 0.23306399999999883
                },
                {
                    "name": "A#3",
                    "midi": 58,
                    "time": 96.48849600000037,
                    "velocity": 0.36220472440944884,
                    "duration": 0.23306399999999883
                },
                {
                    "name": "G3",
                    "midi": 55,
                    "time": 96.72156000000037,
                    "velocity": 0.3464566929133858,
                    "duration": 0.23306399999999883
                },
                {
                    "name": "A3",
                    "midi": 57,
                    "time": 96.95462400000036,
                    "velocity": 0.4094488188976378,
                    "duration": 0.46612799999999766
                },
                {
                    "name": "A#3",
                    "midi": 58,
                    "time": 97.88688000000036,
                    "velocity": 0.3858267716535433,
                    "duration": 0.46612799999999766
                },
                {
                    "name": "C3",
                    "midi": 48,
                    "time": 98.81913600000036,
                    "velocity": 0.3779527559055118,
                    "duration": 0.23306399999999883
                },
                {
                    "name": "F3",
                    "midi": 53,
                    "time": 99.05220000000035,
                    "velocity": 0.3464566929133858,
                    "duration": 0.23306399999999883
                },
                {
                    "name": "A3",
                    "midi": 57,
                    "time": 99.28526400000035,
                    "velocity": 0.3464566929133858,
                    "duration": 0.11653200000000652
                },
                {
                    "name": "F3",
                    "midi": 53,
                    "time": 99.51832800000037,
                    "velocity": 0.3228346456692913,
                    "duration": 0.23306399999999883
                },
                {
                    "name": "C3",
                    "midi": 48,
                    "time": 99.75139200000037,
                    "velocity": 0.3858267716535433,
                    "duration": 0.23306399999999883
                },
                {
                    "name": "G3",
                    "midi": 55,
                    "time": 99.98445600000036,
                    "velocity": 0.33858267716535434,
                    "duration": 0.11653200000000652
                },
                {
                    "name": "A#3",
                    "midi": 58,
                    "time": 100.21752000000038,
                    "velocity": 0.3543307086614173,
                    "duration": 0.11653200000000652
                },
                {
                    "name": "G3",
                    "midi": 55,
                    "time": 100.45058400000039,
                    "velocity": 0.33858267716535434,
                    "duration": 0.11653200000000652
                },
                {
                    "name": "A3",
                    "midi": 57,
                    "time": 100.6836480000004,
                    "velocity": 0.4015748031496063,
                    "duration": 0.11653200000000652
                },
                {
                    "name": "F3",
                    "midi": 53,
                    "time": 100.6836480000004,
                    "velocity": 0.4015748031496063,
                    "duration": 0.11653200000000652
                },
                {
                    "name": "F4",
                    "midi": 65,
                    "time": 100.91671200000042,
                    "velocity": 0.2755905511811024,
                    "duration": 0.23306399999999883
                },
                {
                    "name": "E4",
                    "midi": 64,
                    "time": 101.14977600000041,
                    "velocity": 0.2755905511811024,
                    "duration": 0.23306399999999883
                },
                {
                    "name": "D#4",
                    "midi": 63,
                    "time": 101.38284000000041,
                    "velocity": 0.25196850393700787,
                    "duration": 0.23306399999999883
                },
                {
                    "name": "F3",
                    "midi": 53,
                    "time": 101.61590400000041,
                    "velocity": 0.33858267716535434,
                    "duration": 0.11653200000000652
                },
                {
                    "name": "D4",
                    "midi": 62,
                    "time": 101.61590400000041,
                    "velocity": 0.33858267716535434,
                    "duration": 0.11653200000000652
                },
                {
                    "name": "F4",
                    "midi": 65,
                    "time": 101.84896800000043,
                    "velocity": 0.25196850393700787,
                    "duration": 0.23306399999999883
                },
                {
                    "name": "E4",
                    "midi": 64,
                    "time": 102.08203200000042,
                    "velocity": 0.2755905511811024,
                    "duration": 0.23306399999999883
                },
                {
                    "name": "D#4",
                    "midi": 63,
                    "time": 102.31509600000042,
                    "velocity": 0.25984251968503935,
                    "duration": 0.23306399999999883
                },
                {
                    "name": "F3",
                    "midi": 53,
                    "time": 102.54816000000042,
                    "velocity": 0.33070866141732286,
                    "duration": 0.11653200000000652
                },
                {
                    "name": "D4",
                    "midi": 62,
                    "time": 102.54816000000042,
                    "velocity": 0.33070866141732286,
                    "duration": 0.11653200000000652
                },
                {
                    "name": "F4",
                    "midi": 65,
                    "time": 102.78122400000044,
                    "velocity": 0.2755905511811024,
                    "duration": 0.23306399999999883
                },
                {
                    "name": "E4",
                    "midi": 64,
                    "time": 103.01428800000043,
                    "velocity": 0.33858267716535434,
                    "duration": 0.23306399999999883
                },
                {
                    "name": "D#4",
                    "midi": 63,
                    "time": 103.24735200000043,
                    "velocity": 0.33858267716535434,
                    "duration": 0.23306399999999883
                },
                {
                    "name": "D4",
                    "midi": 62,
                    "time": 103.48041600000043,
                    "velocity": 0.3700787401574803,
                    "duration": 0.23306399999999883
                },
                {
                    "name": "A3",
                    "midi": 57,
                    "time": 103.71348000000043,
                    "velocity": 0.3464566929133858,
                    "duration": 0.23306399999999883
                },
                {
                    "name": "A#3",
                    "midi": 58,
                    "time": 103.94654400000043,
                    "velocity": 0.36220472440944884,
                    "duration": 0.23306399999999883
                },
                {
                    "name": "G3",
                    "midi": 55,
                    "time": 104.17960800000043,
                    "velocity": 0.3464566929133858,
                    "duration": 0.23306399999999883
                },
                {
                    "name": "A3",
                    "midi": 57,
                    "time": 104.41267200000043,
                    "velocity": 0.4881889763779528,
                    "duration": 0.46612799999999766
                },
                {
                    "name": "A2",
                    "midi": 45,
                    "time": 104.41267200000043,
                    "velocity": 0.4881889763779528,
                    "duration": 0.46612799999999766
                },
                {
                    "name": "A#2",
                    "midi": 46,
                    "time": 105.34492800000042,
                    "velocity": 0.49606299212598426,
                    "duration": 0.46612799999999766
                },
                {
                    "name": "A#3",
                    "midi": 58,
                    "time": 105.34492800000042,
                    "velocity": 0.49606299212598426,
                    "duration": 0.46612799999999766
                },
                {
                    "name": "C3",
                    "midi": 48,
                    "time": 106.27718400000042,
                    "velocity": 0.3779527559055118,
                    "duration": 0.11653200000000652
                },
                {
                    "name": "A3",
                    "midi": 57,
                    "time": 106.39371600000042,
                    "velocity": 0.31496062992125984,
                    "duration": 0.11653200000000652
                },
                {
                    "name": "F3",
                    "midi": 53,
                    "time": 106.51024800000043,
                    "velocity": 0.3464566929133858,
                    "duration": 0.11653200000000652
                },
                {
                    "name": "A3",
                    "midi": 57,
                    "time": 106.62678000000044,
                    "velocity": 0.3228346456692913,
                    "duration": 0.11653200000000652
                },
                {
                    "name": "C3",
                    "midi": 48,
                    "time": 106.74331200000044,
                    "velocity": 0.3779527559055118,
                    "duration": 0.11653200000000652
                },
                {
                    "name": "A3",
                    "midi": 57,
                    "time": 106.85984400000045,
                    "velocity": 0.31496062992125984,
                    "duration": 0.11653200000000652
                },
                {
                    "name": "F3",
                    "midi": 53,
                    "time": 106.97637600000046,
                    "velocity": 0.3464566929133858,
                    "duration": 0.11653200000000652
                },
                {
                    "name": "A3",
                    "midi": 57,
                    "time": 107.09290800000046,
                    "velocity": 0.31496062992125984,
                    "duration": 0.11653200000000652
                },
                {
                    "name": "C3",
                    "midi": 48,
                    "time": 107.20944000000047,
                    "velocity": 0.3779527559055118,
                    "duration": 0.11653200000000652
                },
                {
                    "name": "A3",
                    "midi": 57,
                    "time": 107.32597200000048,
                    "velocity": 0.33070866141732286,
                    "duration": 0.11653200000000652
                },
                {
                    "name": "F3",
                    "midi": 53,
                    "time": 107.44250400000048,
                    "velocity": 0.36220472440944884,
                    "duration": 0.11653200000000652
                },
                {
                    "name": "A3",
                    "midi": 57,
                    "time": 107.55903600000049,
                    "velocity": 0.33070866141732286,
                    "duration": 0.11653200000000652
                },
                {
                    "name": "C3",
                    "midi": 48,
                    "time": 107.6755680000005,
                    "velocity": 0.3779527559055118,
                    "duration": 0.11653200000000652
                },
                {
                    "name": "A3",
                    "midi": 57,
                    "time": 107.7921000000005,
                    "velocity": 0.33858267716535434,
                    "duration": 0.11653200000000652
                },
                {
                    "name": "F3",
                    "midi": 53,
                    "time": 107.90863200000051,
                    "velocity": 0.36220472440944884,
                    "duration": 0.11653200000000652
                },
                {
                    "name": "A3",
                    "midi": 57,
                    "time": 108.02516400000052,
                    "velocity": 0.33858267716535434,
                    "duration": 0.11653200000000652
                },
                {
                    "name": "C3",
                    "midi": 48,
                    "time": 108.14169600000052,
                    "velocity": 0.3779527559055118,
                    "duration": 0.11653200000000652
                },
                {
                    "name": "A#3",
                    "midi": 58,
                    "time": 108.25822800000053,
                    "velocity": 0.31496062992125984,
                    "duration": 0.11653200000000652
                },
                {
                    "name": "E3",
                    "midi": 52,
                    "time": 108.37476000000053,
                    "velocity": 0.33858267716535434,
                    "duration": 0.11653200000000652
                },
                {
                    "name": "A#3",
                    "midi": 58,
                    "time": 108.49129200000054,
                    "velocity": 0.31496062992125984,
                    "duration": 0.11653200000000652
                },
                {
                    "name": "C3",
                    "midi": 48,
                    "time": 108.60782400000055,
                    "velocity": 0.3779527559055118,
                    "duration": 0.11653200000000652
                },
                {
                    "name": "A#3",
                    "midi": 58,
                    "time": 108.72435600000055,
                    "velocity": 0.33070866141732286,
                    "duration": 0.11653200000000652
                },
                {
                    "name": "E3",
                    "midi": 52,
                    "time": 108.84088800000056,
                    "velocity": 0.33858267716535434,
                    "duration": 0.11653200000000652
                },
                {
                    "name": "A#3",
                    "midi": 58,
                    "time": 108.95742000000057,
                    "velocity": 0.33070866141732286,
                    "duration": 0.11653200000000652
                },
                {
                    "name": "C3",
                    "midi": 48,
                    "time": 109.07395200000057,
                    "velocity": 0.3779527559055118,
                    "duration": 0.11653200000000652
                },
                {
                    "name": "A#3",
                    "midi": 58,
                    "time": 109.19048400000058,
                    "velocity": 0.3228346456692913,
                    "duration": 0.11653200000000652
                },
                {
                    "name": "E3",
                    "midi": 52,
                    "time": 109.30701600000059,
                    "velocity": 0.33858267716535434,
                    "duration": 0.11653200000000652
                },
                {
                    "name": "A#3",
                    "midi": 58,
                    "time": 109.4235480000006,
                    "velocity": 0.3228346456692913,
                    "duration": 0.11653200000000652
                },
                {
                    "name": "C3",
                    "midi": 48,
                    "time": 109.5400800000006,
                    "velocity": 0.3779527559055118,
                    "duration": 0.11653200000000652
                },
                {
                    "name": "A#3",
                    "midi": 58,
                    "time": 109.6566120000006,
                    "velocity": 0.33070866141732286,
                    "duration": 0.11653200000000652
                },
                {
                    "name": "E3",
                    "midi": 52,
                    "time": 109.77314400000061,
                    "velocity": 0.3543307086614173,
                    "duration": 0.11653200000000652
                },
                {
                    "name": "A#3",
                    "midi": 58,
                    "time": 109.88967600000062,
                    "velocity": 0.33070866141732286,
                    "duration": 0.11653200000000652
                },
                {
                    "name": "F3",
                    "midi": 53,
                    "time": 110.00620800000063,
                    "velocity": 0.4015748031496063,
                    "duration": 0.23306399999999883
                },
                {
                    "name": "F4",
                    "midi": 65,
                    "time": 110.23927200000062,
                    "velocity": 0.3464566929133858,
                    "duration": 0.23306399999999883
                },
                {
                    "name": "E4",
                    "midi": 64,
                    "time": 110.47233600000062,
                    "velocity": 0.3464566929133858,
                    "duration": 0.23306399999999883
                },
                {
                    "name": "F4",
                    "midi": 65,
                    "time": 110.70540000000062,
                    "velocity": 0.3464566929133858,
                    "duration": 0.23306399999999883
                },
                {
                    "name": "G4",
                    "midi": 67,
                    "time": 110.93846400000062,
                    "velocity": 0.3543307086614173,
                    "duration": 0.23306399999999883
                },
                {
                    "name": "F4",
                    "midi": 65,
                    "time": 111.17152800000062,
                    "velocity": 0.3779527559055118,
                    "duration": 0.23306399999999883
                },
                {
                    "name": "E4",
                    "midi": 64,
                    "time": 111.40459200000062,
                    "velocity": 0.4015748031496063,
                    "duration": 0.23306399999999883
                },
                {
                    "name": "D#4",
                    "midi": 63,
                    "time": 111.63765600000062,
                    "velocity": 0.4251968503937008,
                    "duration": 0.23306399999999883
                },
                {
                    "name": "D4",
                    "midi": 62,
                    "time": 111.87072000000062,
                    "velocity": 0.4645669291338583,
                    "duration": 0.23306399999999883
                },
                {
                    "name": "F3",
                    "midi": 53,
                    "time": 112.10378400000062,
                    "velocity": 0.3543307086614173,
                    "duration": 0.23306399999999883
                },
                {
                    "name": "C#4",
                    "midi": 61,
                    "time": 112.33684800000061,
                    "velocity": 0.41732283464566927,
                    "duration": 0.23306399999999883
                },
                {
                    "name": "F3",
                    "midi": 53,
                    "time": 112.56991200000061,
                    "velocity": 0.3543307086614173,
                    "duration": 0.23306399999999883
                },
                {
                    "name": "C4",
                    "midi": 60,
                    "time": 112.80297600000061,
                    "velocity": 0.4094488188976378,
                    "duration": 0.23306399999999883
                },
                {
                    "name": "F3",
                    "midi": 53,
                    "time": 113.03604000000061,
                    "velocity": 0.3464566929133858,
                    "duration": 0.23306399999999883
                },
                {
                    "name": "E4",
                    "midi": 64,
                    "time": 113.26910400000061,
                    "velocity": 0.3937007874015748,
                    "duration": 0.23306399999999883
                },
                {
                    "name": "F3",
                    "midi": 53,
                    "time": 113.50216800000061,
                    "velocity": 0.3464566929133858,
                    "duration": 0.23306399999999883
                },
                {
                    "name": "F4",
                    "midi": 65,
                    "time": 113.73523200000061,
                    "velocity": 0.41732283464566927,
                    "duration": 0.11653200000000652
                },
                {
                    "name": "F3",
                    "midi": 53,
                    "time": 113.96829600000062,
                    "velocity": 0.3228346456692913,
                    "duration": 0.23306399999999883
                },
                {
                    "name": "E3",
                    "midi": 52,
                    "time": 114.20136000000062,
                    "velocity": 0.3228346456692913,
                    "duration": 0.23306399999999883
                },
                {
                    "name": "F3",
                    "midi": 53,
                    "time": 114.43442400000062,
                    "velocity": 0.3228346456692913,
                    "duration": 0.23306399999999883
                },
                {
                    "name": "G3",
                    "midi": 55,
                    "time": 114.66748800000062,
                    "velocity": 0.3543307086614173,
                    "duration": 0.23306399999999883
                },
                {
                    "name": "F3",
                    "midi": 53,
                    "time": 114.90055200000062,
                    "velocity": 0.33858267716535434,
                    "duration": 0.23306399999999883
                },
                {
                    "name": "E3",
                    "midi": 52,
                    "time": 115.13361600000061,
                    "velocity": 0.33858267716535434,
                    "duration": 0.23306399999999883
                },
                {
                    "name": "D#3",
                    "midi": 51,
                    "time": 115.36668000000061,
                    "velocity": 0.33858267716535434,
                    "duration": 0.23306399999999883
                },
                {
                    "name": "D3",
                    "midi": 50,
                    "time": 115.59974400000061,
                    "velocity": 0.3543307086614173,
                    "duration": 0.46612799999999766
                },
                {
                    "name": "A#2",
                    "midi": 46,
                    "time": 116.06587200000061,
                    "velocity": 0.2755905511811024,
                    "duration": 0.46612799999999766
                },
                {
                    "name": "C3",
                    "midi": 48,
                    "time": 116.53200000000061,
                    "velocity": 0.2755905511811024,
                    "duration": 0.46612799999999766
                },
                {
                    "name": "C3",
                    "midi": 48,
                    "time": 116.9981280000006,
                    "velocity": 0.2755905511811024,
                    "duration": 0.46612799999999766
                },
                {
                    "name": "F3",
                    "midi": 53,
                    "time": 117.4642560000006,
                    "velocity": 0.29133858267716534,
                    "duration": 0.46612799999999766
                },
                {
                    "name": "C3",
                    "midi": 48,
                    "time": 117.9303840000006,
                    "velocity": 0.2204724409448819,
                    "duration": 0.46612799999999766
                },
                {
                    "name": "F2",
                    "midi": 41,
                    "time": 118.3965120000006,
                    "velocity": 0.2204724409448819,
                    "duration": 0.34959600000000535
                },
                {
                    "name": "A#3",
                    "midi": 58,
                    "time": 119.5618320000006,
                    "velocity": 0.29133858267716534,
                    "duration": 0.23306399999999883
                },
                {
                    "name": "D4",
                    "midi": 62,
                    "time": 119.7948960000006,
                    "velocity": 0.29133858267716534,
                    "duration": 0.23306399999999883
                },
                {
                    "name": "F4",
                    "midi": 65,
                    "time": 120.0279600000006,
                    "velocity": 0.25984251968503935,
                    "duration": 0.23306399999999883
                },
                {
                    "name": "D4",
                    "midi": 62,
                    "time": 120.2610240000006,
                    "velocity": 0.28346456692913385,
                    "duration": 0.23306399999999883
                },
                {
                    "name": "A#3",
                    "midi": 58,
                    "time": 120.4940880000006,
                    "velocity": 0.25984251968503935,
                    "duration": 0.23306399999999883
                },
                {
                    "name": "D4",
                    "midi": 62,
                    "time": 120.7271520000006,
                    "velocity": 0.3228346456692913,
                    "duration": 0.23306399999999883
                },
                {
                    "name": "G4",
                    "midi": 67,
                    "time": 120.9602160000006,
                    "velocity": 0.2992125984251969,
                    "duration": 0.23306399999999883
                },
                {
                    "name": "C4",
                    "midi": 60,
                    "time": 121.4263440000006,
                    "velocity": 0.2677165354330709,
                    "duration": 0.23306399999999883
                },
                {
                    "name": "D#4",
                    "midi": 63,
                    "time": 121.6594080000006,
                    "velocity": 0.30708661417322836,
                    "duration": 0.23306399999999883
                },
                {
                    "name": "G4",
                    "midi": 67,
                    "time": 121.8924720000006,
                    "velocity": 0.28346456692913385,
                    "duration": 0.23306399999999883
                },
                {
                    "name": "D#4",
                    "midi": 63,
                    "time": 122.1255360000006,
                    "velocity": 0.3464566929133858,
                    "duration": 0.23306399999999883
                },
                {
                    "name": "C4",
                    "midi": 60,
                    "time": 122.35860000000059,
                    "velocity": 0.29133858267716534,
                    "duration": 0.23306399999999883
                },
                {
                    "name": "D#4",
                    "midi": 63,
                    "time": 122.59166400000059,
                    "velocity": 0.2992125984251969,
                    "duration": 0.23306399999999883
                },
                {
                    "name": "G4",
                    "midi": 67,
                    "time": 122.82472800000059,
                    "velocity": 0.2677165354330709,
                    "duration": 0.23306399999999883
                },
                {
                    "name": "F3",
                    "midi": 53,
                    "time": 123.29085600000059,
                    "velocity": 0.2755905511811024,
                    "duration": 0.23306399999999883
                },
                {
                    "name": "C4",
                    "midi": 60,
                    "time": 123.52392000000059,
                    "velocity": 0.2755905511811024,
                    "duration": 0.23306399999999883
                },
                {
                    "name": "D#4",
                    "midi": 63,
                    "time": 123.75698400000059,
                    "velocity": 0.2677165354330709,
                    "duration": 0.23306399999999883
                },
                {
                    "name": "C4",
                    "midi": 60,
                    "time": 123.99004800000058,
                    "velocity": 0.3700787401574803,
                    "duration": 0.23306399999999883
                },
                {
                    "name": "F3",
                    "midi": 53,
                    "time": 124.22311200000058,
                    "velocity": 0.28346456692913385,
                    "duration": 0.23306399999999883
                },
                {
                    "name": "C4",
                    "midi": 60,
                    "time": 124.45617600000058,
                    "velocity": 0.33858267716535434,
                    "duration": 0.23306399999999883
                },
                {
                    "name": "D#4",
                    "midi": 63,
                    "time": 124.68924000000058,
                    "velocity": 0.28346456692913385,
                    "duration": 0.23306399999999883
                },
                {
                    "name": "A#3",
                    "midi": 58,
                    "time": 125.15536800000058,
                    "velocity": 0.33070866141732286,
                    "duration": 0.23306399999999883
                },
                {
                    "name": "D4",
                    "midi": 62,
                    "time": 125.38843200000058,
                    "velocity": 0.33070866141732286,
                    "duration": 0.23306399999999883
                },
                {
                    "name": "F4",
                    "midi": 65,
                    "time": 125.62149600000058,
                    "velocity": 0.28346456692913385,
                    "duration": 0.23306399999999883
                },
                {
                    "name": "D4",
                    "midi": 62,
                    "time": 125.85456000000057,
                    "velocity": 0.3543307086614173,
                    "duration": 0.23306399999999883
                },
                {
                    "name": "A#3",
                    "midi": 58,
                    "time": 126.08762400000057,
                    "velocity": 0.33070866141732286,
                    "duration": 0.23306399999999883
                },
                {
                    "name": "D4",
                    "midi": 62,
                    "time": 126.32068800000057,
                    "velocity": 0.33070866141732286,
                    "duration": 0.23306399999999883
                },
                {
                    "name": "F4",
                    "midi": 65,
                    "time": 126.55375200000057,
                    "velocity": 0.30708661417322836,
                    "duration": 0.23306399999999883
                },
                {
                    "name": "D#4",
                    "midi": 63,
                    "time": 126.78681600000057,
                    "velocity": 0.3543307086614173,
                    "duration": 0.23306399999999883
                },
                {
                    "name": "G4",
                    "midi": 67,
                    "time": 127.01988000000057,
                    "velocity": 0.29133858267716534,
                    "duration": 0.23306399999999883
                },
                {
                    "name": "D4",
                    "midi": 62,
                    "time": 127.25294400000057,
                    "velocity": 0.31496062992125984,
                    "duration": 0.23306399999999883
                },
                {
                    "name": "F4",
                    "midi": 65,
                    "time": 127.48600800000057,
                    "velocity": 0.2755905511811024,
                    "duration": 0.23306399999999883
                },
                {
                    "name": "D#4",
                    "midi": 63,
                    "time": 127.71907200000057,
                    "velocity": 0.3543307086614173,
                    "duration": 0.23306399999999883
                },
                {
                    "name": "G4",
                    "midi": 67,
                    "time": 127.95213600000056,
                    "velocity": 0.2755905511811024,
                    "duration": 0.23306400000001304
                },
                {
                    "name": "C4",
                    "midi": 60,
                    "time": 128.18520000000058,
                    "velocity": 0.2992125984251969,
                    "duration": 0.23306400000001304
                },
                {
                    "name": "D#4",
                    "midi": 63,
                    "time": 128.4182640000006,
                    "velocity": 0.25196850393700787,
                    "duration": 0.23306400000001304
                },
                {
                    "name": "D4",
                    "midi": 62,
                    "time": 128.6513280000006,
                    "velocity": 0.33070866141732286,
                    "duration": 0.46612799999999766
                },
                {
                    "name": "F4",
                    "midi": 65,
                    "time": 128.6513280000006,
                    "velocity": 0.33070866141732286,
                    "duration": 0.46612799999999766
                },
                {
                    "name": "D#4",
                    "midi": 63,
                    "time": 130.5158400000006,
                    "velocity": 0.3700787401574803,
                    "duration": 0.23306400000001304
                },
                {
                    "name": "G4",
                    "midi": 67,
                    "time": 130.7489040000006,
                    "velocity": 0.28346456692913385,
                    "duration": 0.23306400000001304
                },
                {
                    "name": "D4",
                    "midi": 62,
                    "time": 130.98196800000062,
                    "velocity": 0.31496062992125984,
                    "duration": 0.23306400000001304
                },
                {
                    "name": "F4",
                    "midi": 65,
                    "time": 131.21503200000063,
                    "velocity": 0.25984251968503935,
                    "duration": 0.23306400000001304
                },
                {
                    "name": "D#4",
                    "midi": 63,
                    "time": 131.44809600000065,
                    "velocity": 0.3700787401574803,
                    "duration": 0.23306400000001304
                },
                {
                    "name": "G4",
                    "midi": 67,
                    "time": 131.68116000000066,
                    "velocity": 0.29133858267716534,
                    "duration": 0.23306400000001304
                },
                {
                    "name": "C4",
                    "midi": 60,
                    "time": 131.91422400000067,
                    "velocity": 0.30708661417322836,
                    "duration": 0.23306400000001304
                },
                {
                    "name": "D#4",
                    "midi": 63,
                    "time": 132.14728800000069,
                    "velocity": 0.25196850393700787,
                    "duration": 0.23306400000001304
                },
                {
                    "name": "F4",
                    "midi": 65,
                    "time": 132.3803520000007,
                    "velocity": 0.3700787401574803,
                    "duration": 0.46612799999999766
                },
                {
                    "name": "D4",
                    "midi": 62,
                    "time": 132.3803520000007,
                    "velocity": 0.3700787401574803,
                    "duration": 0.46612799999999766
                },
                {
                    "name": "A3",
                    "midi": 57,
                    "time": 134.2448640000007,
                    "velocity": 0.48031496062992124,
                    "duration": 0.46612799999999766
                },
                {
                    "name": "A#3",
                    "midi": 58,
                    "time": 134.7109920000007,
                    "velocity": 0.4330708661417323,
                    "duration": 0.46612799999999766
                },
                {
                    "name": "D#3",
                    "midi": 51,
                    "time": 135.17712000000068,
                    "velocity": 0.49606299212598426,
                    "duration": 0.46612799999999766
                },
                {
                    "name": "F3",
                    "midi": 53,
                    "time": 135.64324800000068,
                    "velocity": 0.44881889763779526,
                    "duration": 0.46612799999999766
                },
                {
                    "name": "A#2",
                    "midi": 46,
                    "time": 136.3424400000007,
                    "velocity": 0.4094488188976378,
                    "duration": 0.11653200000000652
                },
                {
                    "name": "D3",
                    "midi": 50,
                    "time": 136.5755040000007,
                    "velocity": 0.4330708661417323,
                    "duration": 0.11653200000000652
                },
                {
                    "name": "F3",
                    "midi": 53,
                    "time": 136.80856800000072,
                    "velocity": 0.3937007874015748,
                    "duration": 0.11653200000000652
                },
                {
                    "name": "A#3",
                    "midi": 58,
                    "time": 137.04163200000073,
                    "velocity": 0.48031496062992124,
                    "duration": 0.46612799999999766
                },
                {
                    "name": "A#2",
                    "midi": 46,
                    "time": 138.20695200000074,
                    "velocity": 0.2677165354330709,
                    "duration": 0.23306400000001304
                },
                {
                    "name": "D3",
                    "midi": 50,
                    "time": 138.44001600000075,
                    "velocity": 0.29133858267716534,
                    "duration": 0.23306400000001304
                },
                {
                    "name": "F3",
                    "midi": 53,
                    "time": 138.67308000000077,
                    "velocity": 0.2755905511811024,
                    "duration": 0.23306400000001304
                },
                {
                    "name": "D3",
                    "midi": 50,
                    "time": 138.90614400000078,
                    "velocity": 0.33858267716535434,
                    "duration": 0.23306400000001304
                },
                {
                    "name": "A#2",
                    "midi": 46,
                    "time": 139.1392080000008,
                    "velocity": 0.30708661417322836,
                    "duration": 0.23306400000001304
                },
                {
                    "name": "D3",
                    "midi": 50,
                    "time": 139.3722720000008,
                    "velocity": 0.30708661417322836,
                    "duration": 0.23306400000001304
                },
                {
                    "name": "G3",
                    "midi": 55,
                    "time": 139.60533600000082,
                    "velocity": 0.2755905511811024,
                    "duration": 0.23306400000001304
                },
                {
                    "name": "C3",
                    "midi": 48,
                    "time": 140.07146400000084,
                    "velocity": 0.28346456692913385,
                    "duration": 0.23306400000001304
                },
                {
                    "name": "G3",
                    "midi": 55,
                    "time": 140.30452800000086,
                    "velocity": 0.30708661417322836,
                    "duration": 0.23306400000001304
                },
                {
                    "name": "A#3",
                    "midi": 58,
                    "time": 140.53759200000087,
                    "velocity": 0.2755905511811024,
                    "duration": 0.23306400000001304
                },
                {
                    "name": "G3",
                    "midi": 55,
                    "time": 140.77065600000088,
                    "velocity": 0.33070866141732286,
                    "duration": 0.23306400000001304
                },
                {
                    "name": "C3",
                    "midi": 48,
                    "time": 141.0037200000009,
                    "velocity": 0.2677165354330709,
                    "duration": 0.23306400000001304
                },
                {
                    "name": "G3",
                    "midi": 55,
                    "time": 141.2367840000009,
                    "velocity": 0.2992125984251969,
                    "duration": 0.23306400000001304
                },
                {
                    "name": "A#3",
                    "midi": 58,
                    "time": 141.46984800000092,
                    "velocity": 0.2677165354330709,
                    "duration": 0.23306400000001304
                },
                {
                    "name": "E3",
                    "midi": 52,
                    "time": 141.93597600000095,
                    "velocity": 0.30708661417322836,
                    "duration": 0.23306400000001304
                },
                {
                    "name": "G3",
                    "midi": 55,
                    "time": 142.16904000000096,
                    "velocity": 0.33858267716535434,
                    "duration": 0.23306400000001304
                },
                {
                    "name": "C4",
                    "midi": 60,
                    "time": 142.40210400000097,
                    "velocity": 0.36220472440944884,
                    "duration": 0.23306400000001304
                },
                {
                    "name": "G3",
                    "midi": 55,
                    "time": 142.635168000001,
                    "velocity": 0.3858267716535433,
                    "duration": 0.23306400000001304
                },
                {
                    "name": "E3",
                    "midi": 52,
                    "time": 142.868232000001,
                    "velocity": 0.3700787401574803,
                    "duration": 0.23306400000001304
                },
                {
                    "name": "G3",
                    "midi": 55,
                    "time": 143.101296000001,
                    "velocity": 0.3937007874015748,
                    "duration": 0.23306400000001304
                },
                {
                    "name": "C4",
                    "midi": 60,
                    "time": 143.33436000000103,
                    "velocity": 0.4251968503937008,
                    "duration": 0.23306400000001304
                },
                {
                    "name": "F3",
                    "midi": 53,
                    "time": 143.80048800000105,
                    "velocity": 0.33070866141732286,
                    "duration": 0.23306400000001304
                },
                {
                    "name": "A3",
                    "midi": 57,
                    "time": 144.03355200000107,
                    "velocity": 0.3228346456692913,
                    "duration": 0.23306400000001304
                },
                {
                    "name": "C4",
                    "midi": 60,
                    "time": 144.26661600000108,
                    "velocity": 0.2677165354330709,
                    "duration": 0.23306400000001304
                },
                {
                    "name": "A3",
                    "midi": 57,
                    "time": 144.4996800000011,
                    "velocity": 0.29133858267716534,
                    "duration": 0.23306400000001304
                },
                {
                    "name": "F3",
                    "midi": 53,
                    "time": 144.7327440000011,
                    "velocity": 0.2677165354330709,
                    "duration": 0.23306400000001304
                },
                {
                    "name": "A3",
                    "midi": 57,
                    "time": 144.96580800000112,
                    "velocity": 0.28346456692913385,
                    "duration": 0.23306400000001304
                },
                {
                    "name": "C4",
                    "midi": 60,
                    "time": 145.19887200000113,
                    "velocity": 0.25196850393700787,
                    "duration": 0.23306400000001304
                },
                {
                    "name": "A#3",
                    "midi": 58,
                    "time": 145.43193600000114,
                    "velocity": 0.3700787401574803,
                    "duration": 0.23306400000001304
                },
                {
                    "name": "C4",
                    "midi": 60,
                    "time": 145.66500000000116,
                    "velocity": 0.25196850393700787,
                    "duration": 0.23306400000001304
                },
                {
                    "name": "A#3",
                    "midi": 58,
                    "time": 145.89806400000117,
                    "velocity": 0.29133858267716534,
                    "duration": 0.23306400000001304
                },
                {
                    "name": "C4",
                    "midi": 60,
                    "time": 146.13112800000118,
                    "velocity": 0.2440944881889764,
                    "duration": 0.23306400000001304
                },
                {
                    "name": "A3",
                    "midi": 57,
                    "time": 146.3641920000012,
                    "velocity": 0.3937007874015748,
                    "duration": 0.23306400000001304
                },
                {
                    "name": "C4",
                    "midi": 60,
                    "time": 146.5972560000012,
                    "velocity": 0.3228346456692913,
                    "duration": 0.23306400000001304
                },
                {
                    "name": "A3",
                    "midi": 57,
                    "time": 146.83032000000122,
                    "velocity": 0.3464566929133858,
                    "duration": 0.23306400000001304
                },
                {
                    "name": "C4",
                    "midi": 60,
                    "time": 147.06338400000124,
                    "velocity": 0.3228346456692913,
                    "duration": 0.23306400000001304
                },
                {
                    "name": "A#3",
                    "midi": 58,
                    "time": 147.29644800000125,
                    "velocity": 0.3858267716535433,
                    "duration": 0.23306400000001304
                },
                {
                    "name": "C4",
                    "midi": 60,
                    "time": 147.52951200000126,
                    "velocity": 0.28346456692913385,
                    "duration": 0.23306400000001304
                },
                {
                    "name": "A#3",
                    "midi": 58,
                    "time": 147.76257600000127,
                    "velocity": 0.33070866141732286,
                    "duration": 0.23306400000001304
                },
                {
                    "name": "C4",
                    "midi": 60,
                    "time": 147.9956400000013,
                    "velocity": 0.28346456692913385,
                    "duration": 0.23306400000001304
                },
                {
                    "name": "A3",
                    "midi": 57,
                    "time": 148.2287040000013,
                    "velocity": 0.41732283464566927,
                    "duration": 0.23306400000001304
                },
                {
                    "name": "C4",
                    "midi": 60,
                    "time": 148.4617680000013,
                    "velocity": 0.3543307086614173,
                    "duration": 0.23306400000001304
                },
                {
                    "name": "A3",
                    "midi": 57,
                    "time": 148.69483200000133,
                    "velocity": 0.36220472440944884,
                    "duration": 0.23306400000001304
                },
                {
                    "name": "C4",
                    "midi": 60,
                    "time": 148.92789600000134,
                    "velocity": 0.3464566929133858,
                    "duration": 0.23306400000001304
                },
                {
                    "name": "A#3",
                    "midi": 58,
                    "time": 149.16096000000135,
                    "velocity": 0.4015748031496063,
                    "duration": 0.23306400000001304
                },
                {
                    "name": "D4",
                    "midi": 62,
                    "time": 149.39402400000137,
                    "velocity": 0.36220472440944884,
                    "duration": 0.23306400000001304
                },
                {
                    "name": "A#3",
                    "midi": 58,
                    "time": 149.62708800000138,
                    "velocity": 0.4015748031496063,
                    "duration": 0.23306400000001304
                },
                {
                    "name": "D4",
                    "midi": 62,
                    "time": 149.8601520000014,
                    "velocity": 0.36220472440944884,
                    "duration": 0.23306400000001304
                },
                {
                    "name": "B3",
                    "midi": 59,
                    "time": 150.0932160000014,
                    "velocity": 0.3937007874015748,
                    "duration": 0.23306400000001304
                },
                {
                    "name": "D4",
                    "midi": 62,
                    "time": 150.32628000000142,
                    "velocity": 0.36220472440944884,
                    "duration": 0.23306400000001304
                },
                {
                    "name": "B3",
                    "midi": 59,
                    "time": 150.55934400000143,
                    "velocity": 0.4094488188976378,
                    "duration": 0.23306400000001304
                },
                {
                    "name": "D4",
                    "midi": 62,
                    "time": 150.79240800000144,
                    "velocity": 0.3779527559055118,
                    "duration": 0.23306400000001304
                },
                {
                    "name": "C4",
                    "midi": 60,
                    "time": 151.02547200000146,
                    "velocity": 0.4645669291338583,
                    "duration": 0.46612799999999766
                },
                {
                    "name": "D4",
                    "midi": 62,
                    "time": 151.49160000000145,
                    "velocity": 0.48031496062992124,
                    "duration": 0.46612799999999766
                },
                {
                    "name": "E4",
                    "midi": 64,
                    "time": 151.95772800000145,
                    "velocity": 0.49606299212598426,
                    "duration": 0.46612799999999766
                },
                {
                    "name": "F4",
                    "midi": 65,
                    "time": 152.42385600000145,
                    "velocity": 0.5118110236220472,
                    "duration": 0.46612799999999766
                },
                {
                    "name": "G4",
                    "midi": 67,
                    "time": 152.88998400000145,
                    "velocity": 0.5118110236220472,
                    "duration": 0.23306400000001304
                },
                {
                    "name": "C5",
                    "midi": 72,
                    "time": 153.12304800000146,
                    "velocity": 0.41732283464566927,
                    "duration": 0.23306400000001304
                },
                {
                    "name": "E4",
                    "midi": 64,
                    "time": 153.35611200000147,
                    "velocity": 0.47244094488188976,
                    "duration": 0.23306400000001304
                },
                {
                    "name": "C5",
                    "midi": 72,
                    "time": 153.5891760000015,
                    "velocity": 0.41732283464566927,
                    "duration": 0.23306400000001304
                },
                {
                    "name": "F4",
                    "midi": 65,
                    "time": 153.8222400000015,
                    "velocity": 0.4645669291338583,
                    "duration": 0.23306400000001304
                },
                {
                    "name": "C5",
                    "midi": 72,
                    "time": 154.0553040000015,
                    "velocity": 0.3937007874015748,
                    "duration": 0.23306400000001304
                },
                {
                    "name": "D4",
                    "midi": 62,
                    "time": 154.28836800000153,
                    "velocity": 0.4409448818897638,
                    "duration": 0.23306400000001304
                },
                {
                    "name": "C5",
                    "midi": 72,
                    "time": 154.52143200000154,
                    "velocity": 0.4094488188976378,
                    "duration": 0.23306400000001304
                },
                {
                    "name": "C4",
                    "midi": 60,
                    "time": 154.75449600000155,
                    "velocity": 0.47244094488188976,
                    "duration": 0.46612799999999766
                },
                {
                    "name": "D4",
                    "midi": 62,
                    "time": 155.22062400000155,
                    "velocity": 0.4881889763779528,
                    "duration": 0.46612799999999766
                },
                {
                    "name": "E4",
                    "midi": 64,
                    "time": 155.68675200000155,
                    "velocity": 0.5118110236220472,
                    "duration": 0.46612799999999766
                },
                {
                    "name": "F4",
                    "midi": 65,
                    "time": 156.15288000000155,
                    "velocity": 0.5354330708661418,
                    "duration": 0.46612799999999766
                },
                {
                    "name": "G4",
                    "midi": 67,
                    "time": 156.61900800000154,
                    "velocity": 0.5196850393700787,
                    "duration": 0.11653200000000652
                },
                {
                    "name": "C5",
                    "midi": 72,
                    "time": 156.73554000000155,
                    "velocity": 0.3464566929133858,
                    "duration": 0.11653200000000652
                },
                {
                    "name": "B4",
                    "midi": 71,
                    "time": 156.85207200000156,
                    "velocity": 0.3700787401574803,
                    "duration": 0.11653200000000652
                },
                {
                    "name": "C5",
                    "midi": 72,
                    "time": 156.96860400000156,
                    "velocity": 0.3464566929133858,
                    "duration": 0.11653200000000652
                },
                {
                    "name": "E4",
                    "midi": 64,
                    "time": 157.08513600000157,
                    "velocity": 0.44881889763779526,
                    "duration": 0.11653200000000652
                },
                {
                    "name": "C5",
                    "midi": 72,
                    "time": 157.20166800000158,
                    "velocity": 0.3543307086614173,
                    "duration": 0.11653200000000652
                },
                {
                    "name": "B4",
                    "midi": 71,
                    "time": 157.31820000000158,
                    "velocity": 0.3779527559055118,
                    "duration": 0.11653200000000652
                },
                {
                    "name": "C5",
                    "midi": 72,
                    "time": 157.4347320000016,
                    "velocity": 0.3464566929133858,
                    "duration": 0.11653200000000652
                },
                {
                    "name": "F4",
                    "midi": 65,
                    "time": 157.5512640000016,
                    "velocity": 0.44881889763779526,
                    "duration": 0.11653200000000652
                },
                {
                    "name": "C5",
                    "midi": 72,
                    "time": 157.6677960000016,
                    "velocity": 0.3464566929133858,
                    "duration": 0.11653200000000652
                },
                {
                    "name": "B4",
                    "midi": 71,
                    "time": 157.7843280000016,
                    "velocity": 0.36220472440944884,
                    "duration": 0.11653200000000652
                },
                {
                    "name": "C5",
                    "midi": 72,
                    "time": 157.90086000000161,
                    "velocity": 0.3464566929133858,
                    "duration": 0.11653200000000652
                },
                {
                    "name": "D4",
                    "midi": 62,
                    "time": 158.01739200000162,
                    "velocity": 0.4409448818897638,
                    "duration": 0.11653200000000652
                },
                {
                    "name": "B4",
                    "midi": 71,
                    "time": 158.13392400000163,
                    "velocity": 0.3543307086614173,
                    "duration": 0.11653200000000652
                },
                {
                    "name": "A4",
                    "midi": 69,
                    "time": 158.25045600000163,
                    "velocity": 0.3543307086614173,
                    "duration": 0.11653200000000652
                },
                {
                    "name": "B4",
                    "midi": 71,
                    "time": 158.36698800000164,
                    "velocity": 0.33858267716535434,
                    "duration": 0.11653200000000652
                },
                {
                    "name": "C5",
                    "midi": 72,
                    "time": 158.48352000000165,
                    "velocity": 0.4409448818897638,
                    "duration": 0.46127250000000686
                },
                {
                    "name": "C4",
                    "midi": 60,
                    "time": 158.48352000000165,
                    "velocity": 0.4409448818897638,
                    "duration": 0.46127250000000686
                },
                {
                    "name": "C3",
                    "midi": 48,
                    "time": 159.41577600000164,
                    "velocity": 0.5748031496062992,
                    "duration": 0.23306400000001304
                },
                {
                    "name": "C2",
                    "midi": 36,
                    "time": 159.41577600000164,
                    "velocity": 0.5748031496062992,
                    "duration": 0.23306400000001304
                },
                {
                    "name": "F2",
                    "midi": 41,
                    "time": 160.34803200000167,
                    "velocity": 0.5196850393700787,
                    "duration": 0.9322559999999953
                },
                {
                    "name": "F3",
                    "midi": 53,
                    "time": 160.34803200000167,
                    "velocity": 0.5196850393700787,
                    "duration": 0.9322559999999953
                },
                {
                    "name": "A#3",
                    "midi": 58,
                    "time": 162.67867200000165,
                    "velocity": 0.5354330708661418,
                    "duration": 0.9322559999999953
                },
                {
                    "name": "A#2",
                    "midi": 46,
                    "time": 162.67867200000165,
                    "velocity": 0.5354330708661418,
                    "duration": 0.9322559999999953
                },
                {
                    "name": "A3",
                    "midi": 57,
                    "time": 163.61092800000165,
                    "velocity": 0.3464566929133858,
                    "duration": 0.46612799999999766
                },
                {
                    "name": "B3",
                    "midi": 59,
                    "time": 164.07705600000165,
                    "velocity": 0.2992125984251969,
                    "duration": 0.46612799999999766
                },
                {
                    "name": "D4",
                    "midi": 62,
                    "time": 164.07705600000165,
                    "velocity": 0.2992125984251969,
                    "duration": 0.46612799999999766
                },
                {
                    "name": "C4",
                    "midi": 60,
                    "time": 164.54318400000165,
                    "velocity": 0.2992125984251969,
                    "duration": 0.46612799999999766
                },
                {
                    "name": "D4",
                    "midi": 62,
                    "time": 165.00931200000164,
                    "velocity": 0.2992125984251969,
                    "duration": 0.46612799999999766
                },
                {
                    "name": "B3",
                    "midi": 59,
                    "time": 165.00931200000164,
                    "velocity": 0.2992125984251969,
                    "duration": 0.46612799999999766
                },
                {
                    "name": "C4",
                    "midi": 60,
                    "time": 165.47544000000164,
                    "velocity": 0.31496062992125984,
                    "duration": 0.46612799999999766
                },
                {
                    "name": "D4",
                    "midi": 62,
                    "time": 165.94156800000164,
                    "velocity": 0.30708661417322836,
                    "duration": 0.46612799999999766
                },
                {
                    "name": "E4",
                    "midi": 64,
                    "time": 166.40769600000164,
                    "velocity": 0.2755905511811024,
                    "duration": 0.46612799999999766
                },
                {
                    "name": "F4",
                    "midi": 65,
                    "time": 166.87382400000163,
                    "velocity": 0.2755905511811024,
                    "duration": 0.46612799999999766
                },
                {
                    "name": "A#2",
                    "midi": 46,
                    "time": 168.03914400000164,
                    "velocity": 0.3543307086614173,
                    "duration": 0.23306400000001304
                },
                {
                    "name": "D3",
                    "midi": 50,
                    "time": 168.27220800000165,
                    "velocity": 0.36220472440944884,
                    "duration": 0.23306400000001304
                },
                {
                    "name": "G3",
                    "midi": 55,
                    "time": 168.50527200000167,
                    "velocity": 0.3543307086614173,
                    "duration": 0.23306400000001304
                },
                {
                    "name": "A#3",
                    "midi": 58,
                    "time": 168.73833600000168,
                    "velocity": 0.4094488188976378,
                    "duration": 0.46612799999999766
                },
                {
                    "name": "A2",
                    "midi": 45,
                    "time": 169.9036560000017,
                    "velocity": 0.3464566929133858,
                    "duration": 0.23306400000001304
                },
                {
                    "name": "C3",
                    "midi": 48,
                    "time": 170.1367200000017,
                    "velocity": 0.3464566929133858,
                    "duration": 0.23306400000001304
                },
                {
                    "name": "F3",
                    "midi": 53,
                    "time": 170.36978400000172,
                    "velocity": 0.33070866141732286,
                    "duration": 0.23306400000001304
                },
                {
                    "name": "A3",
                    "midi": 57,
                    "time": 170.60284800000173,
                    "velocity": 0.4094488188976378,
                    "duration": 0.46612799999999766
                },
                {
                    "name": "G3",
                    "midi": 55,
                    "time": 171.53510400000172,
                    "velocity": 0.3464566929133858,
                    "duration": 0.46612799999999766
                },
                {
                    "name": "E3",
                    "midi": 52,
                    "time": 172.00123200000172,
                    "velocity": 0.3228346456692913,
                    "duration": 0.46612799999999766
                },
                {
                    "name": "F3",
                    "midi": 53,
                    "time": 172.46736000000172,
                    "velocity": 0.33858267716535434,
                    "duration": 0.46612799999999766
                },
                {
                    "name": "D3",
                    "midi": 50,
                    "time": 172.93348800000172,
                    "velocity": 0.33070866141732286,
                    "duration": 0.46612799999999766
                },
                {
                    "name": "C3",
                    "midi": 48,
                    "time": 173.3996160000017,
                    "velocity": 0.3464566929133858,
                    "duration": 0.46612799999999766
                },
                {
                    "name": "C3",
                    "midi": 48,
                    "time": 174.3318720000017,
                    "velocity": 0.41732283464566927,
                    "duration": 0.11653200000000652
                },
                {
                    "name": "D3",
                    "midi": 50,
                    "time": 174.44840400000172,
                    "velocity": 0.3858267716535433,
                    "duration": 0.11653200000000652
                },
                {
                    "name": "A#2",
                    "midi": 46,
                    "time": 174.56493600000172,
                    "velocity": 0.4251968503937008,
                    "duration": 0.11653200000000652
                },
                {
                    "name": "C3",
                    "midi": 48,
                    "time": 174.68146800000173,
                    "velocity": 0.3858267716535433,
                    "duration": 0.11653200000000652
                },
                {
                    "name": "A2",
                    "midi": 45,
                    "time": 174.79800000000174,
                    "velocity": 0.4251968503937008,
                    "duration": 0.11653200000000652
                },
                {
                    "name": "A#2",
                    "midi": 46,
                    "time": 174.91453200000174,
                    "velocity": 0.3858267716535433,
                    "duration": 0.11653200000000652
                },
                {
                    "name": "G2",
                    "midi": 43,
                    "time": 175.03106400000175,
                    "velocity": 0.4409448818897638,
                    "duration": 0.11653200000000652
                },
                {
                    "name": "A2",
                    "midi": 45,
                    "time": 175.14759600000176,
                    "velocity": 0.3858267716535433,
                    "duration": 0.11653200000000652
                },
                {
                    "name": "F2",
                    "midi": 41,
                    "time": 175.26412800000176,
                    "velocity": 0.5196850393700787,
                    "duration": 0.46612799999999766
                },
                {
                    "name": "F3",
                    "midi": 53,
                    "time": 175.73025600000176,
                    "velocity": 0.36220472440944884,
                    "duration": 0.46612799999999766
                },
                {
                    "name": "A#2",
                    "midi": 46,
                    "time": 177.59476800000175,
                    "velocity": 0.4645669291338583,
                    "duration": 0.9322559999999953
                },
                {
                    "name": "A#3",
                    "midi": 58,
                    "time": 177.59476800000175,
                    "velocity": 0.4645669291338583,
                    "duration": 0.9322559999999953
                },
                {
                    "name": "A3",
                    "midi": 57,
                    "time": 178.52702400000175,
                    "velocity": 0.33858267716535434,
                    "duration": 0.46612799999999766
                },
                {
                    "name": "B3",
                    "midi": 59,
                    "time": 178.99315200000174,
                    "velocity": 0.33858267716535434,
                    "duration": 0.46612799999999766
                },
                {
                    "name": "D4",
                    "midi": 62,
                    "time": 178.99315200000174,
                    "velocity": 0.33858267716535434,
                    "duration": 0.46612799999999766
                },
                {
                    "name": "C4",
                    "midi": 60,
                    "time": 179.45928000000174,
                    "velocity": 0.33858267716535434,
                    "duration": 0.46612799999999766
                },
                {
                    "name": "D4",
                    "midi": 62,
                    "time": 179.92540800000174,
                    "velocity": 0.33858267716535434,
                    "duration": 0.46612799999999766
                },
                {
                    "name": "B3",
                    "midi": 59,
                    "time": 179.92540800000174,
                    "velocity": 0.33858267716535434,
                    "duration": 0.46612799999999766
                },
                {
                    "name": "C4",
                    "midi": 60,
                    "time": 180.39153600000174,
                    "velocity": 0.33858267716535434,
                    "duration": 0.46612799999999766
                },
                {
                    "name": "F4",
                    "midi": 65,
                    "time": 180.85766400000173,
                    "velocity": 0.33858267716535434,
                    "duration": 0.46612799999999766
                },
                {
                    "name": "D4",
                    "midi": 62,
                    "time": 180.85766400000173,
                    "velocity": 0.33858267716535434,
                    "duration": 0.46612799999999766
                },
                {
                    "name": "G4",
                    "midi": 67,
                    "time": 181.32379200000173,
                    "velocity": 0.33858267716535434,
                    "duration": 0.46612799999999766
                },
                {
                    "name": "E4",
                    "midi": 64,
                    "time": 181.32379200000173,
                    "velocity": 0.33858267716535434,
                    "duration": 0.46612799999999766
                },
                {
                    "name": "F4",
                    "midi": 65,
                    "time": 181.78992000000173,
                    "velocity": 0.36220472440944884,
                    "duration": 0.46612799999999766
                },
                {
                    "name": "D3",
                    "midi": 50,
                    "time": 182.95524000000174,
                    "velocity": 0.4251968503937008,
                    "duration": 0.23306400000001304
                },
                {
                    "name": "D4",
                    "midi": 62,
                    "time": 183.18830400000175,
                    "velocity": 0.48031496062992124,
                    "duration": 0.11653200000000652
                },
                {
                    "name": "C4",
                    "midi": 60,
                    "time": 183.42136800000176,
                    "velocity": 0.41732283464566927,
                    "duration": 0.11653200000000652
                },
                {
                    "name": "A#3",
                    "midi": 58,
                    "time": 183.65443200000178,
                    "velocity": 0.47244094488188976,
                    "duration": 0.11653200000000652
                },
                {
                    "name": "A#2",
                    "midi": 46,
                    "time": 183.8874960000018,
                    "velocity": 0.41732283464566927,
                    "duration": 0.23306400000001304
                },
                {
                    "name": "A#3",
                    "midi": 58,
                    "time": 184.1205600000018,
                    "velocity": 0.48031496062992124,
                    "duration": 0.11653200000000652
                },
                {
                    "name": "A3",
                    "midi": 57,
                    "time": 184.35362400000182,
                    "velocity": 0.41732283464566927,
                    "duration": 0.11653200000000652
                },
                {
                    "name": "G3",
                    "midi": 55,
                    "time": 184.58668800000183,
                    "velocity": 0.44881889763779526,
                    "duration": 0.23306400000001304
                },
                {
                    "name": "F3",
                    "midi": 53,
                    "time": 184.81975200000184,
                    "velocity": 0.41732283464566927,
                    "duration": 0.23306400000001304
                },
                {
                    "name": "E3",
                    "midi": 52,
                    "time": 185.05281600000185,
                    "velocity": 0.41732283464566927,
                    "duration": 0.23306400000001304
                },
                {
                    "name": "C3",
                    "midi": 48,
                    "time": 185.28588000000187,
                    "velocity": 0.41732283464566927,
                    "duration": 0.23306400000001304
                },
                {
                    "name": "F3",
                    "midi": 53,
                    "time": 185.51894400000188,
                    "velocity": 0.47244094488188976,
                    "duration": 0.46612799999999766
                },
                {
                    "name": "A2",
                    "midi": 45,
                    "time": 185.98507200000188,
                    "velocity": 0.4409448818897638,
                    "duration": 0.46612799999999766
                },
                {
                    "name": "A#2",
                    "midi": 46,
                    "time": 186.45120000000188,
                    "velocity": 0.4645669291338583,
                    "duration": 0.46612799999999766
                },
                {
                    "name": "A#3",
                    "midi": 58,
                    "time": 186.91732800000187,
                    "velocity": 0.41732283464566927,
                    "duration": 0.46612799999999766
                },
                {
                    "name": "C4",
                    "midi": 60,
                    "time": 187.38345600000187,
                    "velocity": 0.4251968503937008,
                    "duration": 0.46612799999999766
                },
                {
                    "name": "C3",
                    "midi": 48,
                    "time": 187.84958400000187,
                    "velocity": 0.41732283464566927,
                    "duration": 0.46612799999999766
                },
                {
                    "name": "F3",
                    "midi": 53,
                    "time": 188.31571200000187,
                    "velocity": 0.41732283464566927,
                    "duration": 0.11653200000000652
                },
                {
                    "name": "C4",
                    "midi": 60,
                    "time": 188.43224400000187,
                    "velocity": 0.36220472440944884,
                    "duration": 0.11653200000000652
                },
                {
                    "name": "B3",
                    "midi": 59,
                    "time": 188.54877600000188,
                    "velocity": 0.3858267716535433,
                    "duration": 0.11653200000000652
                },
                {
                    "name": "C4",
                    "midi": 60,
                    "time": 188.6653080000019,
                    "velocity": 0.36220472440944884,
                    "duration": 0.11653200000000652
                },
                {
                    "name": "D4",
                    "midi": 62,
                    "time": 188.7818400000019,
                    "velocity": 0.41732283464566927,
                    "duration": 0.11653200000000652
                },
                {
                    "name": "C4",
                    "midi": 60,
                    "time": 188.8983720000019,
                    "velocity": 0.36220472440944884,
                    "duration": 0.11653200000000652
                },
                {
                    "name": "B3",
                    "midi": 59,
                    "time": 189.0149040000019,
                    "velocity": 0.3858267716535433,
                    "duration": 0.11653200000000652
                },
                {
                    "name": "C4",
                    "midi": 60,
                    "time": 189.1314360000019,
                    "velocity": 0.36220472440944884,
                    "duration": 0.11653200000000652
                },
                {
                    "name": "A#3",
                    "midi": 58,
                    "time": 189.24796800000192,
                    "velocity": 0.41732283464566927,
                    "duration": 0.11653200000000652
                },
                {
                    "name": "C4",
                    "midi": 60,
                    "time": 189.36450000000193,
                    "velocity": 0.3937007874015748,
                    "duration": 0.11653200000000652
                },
                {
                    "name": "A3",
                    "midi": 57,
                    "time": 189.48103200000193,
                    "velocity": 0.41732283464566927,
                    "duration": 0.11653200000000652
                },
                {
                    "name": "C4",
                    "midi": 60,
                    "time": 189.59756400000194,
                    "velocity": 0.3858267716535433,
                    "duration": 0.11653200000000652
                },
                {
                    "name": "G3",
                    "midi": 55,
                    "time": 189.71409600000194,
                    "velocity": 0.41732283464566927,
                    "duration": 0.11653200000000652
                },
                {
                    "name": "C4",
                    "midi": 60,
                    "time": 189.83062800000195,
                    "velocity": 0.3937007874015748,
                    "duration": 0.11653200000000652
                },
                {
                    "name": "F3",
                    "midi": 53,
                    "time": 189.94716000000196,
                    "velocity": 0.41732283464566927,
                    "duration": 0.11653200000000652
                },
                {
                    "name": "C4",
                    "midi": 60,
                    "time": 190.06369200000196,
                    "velocity": 0.3937007874015748,
                    "duration": 0.11653200000000652
                },
                {
                    "name": "E3",
                    "midi": 52,
                    "time": 190.18022400000197,
                    "velocity": 0.3779527559055118,
                    "duration": 0.11653200000000652
                },
                {
                    "name": "C4",
                    "midi": 60,
                    "time": 190.29675600000198,
                    "velocity": 0.33070866141732286,
                    "duration": 0.11653200000000652
                },
                {
                    "name": "G3",
                    "midi": 55,
                    "time": 190.41328800000198,
                    "velocity": 0.33070866141732286,
                    "duration": 0.11653200000000652
                },
                {
                    "name": "C4",
                    "midi": 60,
                    "time": 190.529820000002,
                    "velocity": 0.31496062992125984,
                    "duration": 0.11653200000000652
                },
                {
                    "name": "A#3",
                    "midi": 58,
                    "time": 190.646352000002,
                    "velocity": 0.3779527559055118,
                    "duration": 0.11653200000000652
                },
                {
                    "name": "C4",
                    "midi": 60,
                    "time": 190.762884000002,
                    "velocity": 0.33070866141732286,
                    "duration": 0.11653200000000652
                },
                {
                    "name": "A#3",
                    "midi": 58,
                    "time": 190.879416000002,
                    "velocity": 0.33070866141732286,
                    "duration": 0.11653200000000652
                },
                {
                    "name": "C4",
                    "midi": 60,
                    "time": 190.99594800000202,
                    "velocity": 0.3228346456692913,
                    "duration": 0.11653200000000652
                },
                {
                    "name": "E3",
                    "midi": 52,
                    "time": 191.11248000000202,
                    "velocity": 0.3700787401574803,
                    "duration": 0.11653200000000652
                },
                {
                    "name": "C4",
                    "midi": 60,
                    "time": 191.22901200000203,
                    "velocity": 0.33858267716535434,
                    "duration": 0.11653200000000652
                },
                {
                    "name": "G3",
                    "midi": 55,
                    "time": 191.34554400000204,
                    "velocity": 0.33858267716535434,
                    "duration": 0.11653200000000652
                },
                {
                    "name": "C4",
                    "midi": 60,
                    "time": 191.46207600000204,
                    "velocity": 0.33070866141732286,
                    "duration": 0.11653200000000652
                },
                {
                    "name": "A#3",
                    "midi": 58,
                    "time": 191.57860800000205,
                    "velocity": 0.3779527559055118,
                    "duration": 0.11653200000000652
                },
                {
                    "name": "C4",
                    "midi": 60,
                    "time": 191.69514000000206,
                    "velocity": 0.33070866141732286,
                    "duration": 0.11653200000000652
                },
                {
                    "name": "A#3",
                    "midi": 58,
                    "time": 191.81167200000206,
                    "velocity": 0.33070866141732286,
                    "duration": 0.11653200000000652
                },
                {
                    "name": "C4",
                    "midi": 60,
                    "time": 191.92820400000207,
                    "velocity": 0.33070866141732286,
                    "duration": 0.11653200000000652
                },
                {
                    "name": "A3",
                    "midi": 57,
                    "time": 192.04473600000208,
                    "velocity": 0.3464566929133858,
                    "duration": 0.11653200000000652
                },
                {
                    "name": "C4",
                    "midi": 60,
                    "time": 192.16126800000208,
                    "velocity": 0.3543307086614173,
                    "duration": 0.11653200000000652
                },
                {
                    "name": "E3",
                    "midi": 52,
                    "time": 192.2778000000021,
                    "velocity": 0.3543307086614173,
                    "duration": 0.11653200000000652
                },
                {
                    "name": "C4",
                    "midi": 60,
                    "time": 192.3943320000021,
                    "velocity": 0.3543307086614173,
                    "duration": 0.11653200000000652
                },
                {
                    "name": "F3",
                    "midi": 53,
                    "time": 192.5108640000021,
                    "velocity": 0.36220472440944884,
                    "duration": 0.11653200000000652
                },
                {
                    "name": "C4",
                    "midi": 60,
                    "time": 192.6273960000021,
                    "velocity": 0.3700787401574803,
                    "duration": 0.11653200000000652
                },
                {
                    "name": "G3",
                    "midi": 55,
                    "time": 192.74392800000211,
                    "velocity": 0.3779527559055118,
                    "duration": 0.11653200000000652
                },
                {
                    "name": "C4",
                    "midi": 60,
                    "time": 192.86046000000212,
                    "velocity": 0.3858267716535433,
                    "duration": 0.11653200000000652
                },
                {
                    "name": "G#3",
                    "midi": 56,
                    "time": 192.97699200000213,
                    "velocity": 0.41732283464566927,
                    "duration": 0.11653200000000652
                },
                {
                    "name": "C4",
                    "midi": 60,
                    "time": 193.09352400000213,
                    "velocity": 0.3779527559055118,
                    "duration": 0.11653200000000652
                },
                {
                    "name": "A3",
                    "midi": 57,
                    "time": 193.21005600000214,
                    "velocity": 0.41732283464566927,
                    "duration": 0.11653200000000652
                },
                {
                    "name": "C4",
                    "midi": 60,
                    "time": 193.32658800000215,
                    "velocity": 0.36220472440944884,
                    "duration": 0.11653200000000652
                },
                {
                    "name": "G#3",
                    "midi": 56,
                    "time": 193.44312000000215,
                    "velocity": 0.41732283464566927,
                    "duration": 0.11653200000000652
                },
                {
                    "name": "C4",
                    "midi": 60,
                    "time": 193.55965200000216,
                    "velocity": 0.36220472440944884,
                    "duration": 0.11653200000000652
                },
                {
                    "name": "A3",
                    "midi": 57,
                    "time": 193.67618400000217,
                    "velocity": 0.41732283464566927,
                    "duration": 0.11653200000000652
                },
                {
                    "name": "C4",
                    "midi": 60,
                    "time": 193.79271600000217,
                    "velocity": 0.3700787401574803,
                    "duration": 0.11653200000000652
                },
                {
                    "name": "E3",
                    "midi": 52,
                    "time": 193.90924800000218,
                    "velocity": 0.3779527559055118,
                    "duration": 0.11653200000000652
                },
                {
                    "name": "C4",
                    "midi": 60,
                    "time": 194.0257800000022,
                    "velocity": 0.2992125984251969,
                    "duration": 0.11653200000000652
                },
                {
                    "name": "G3",
                    "midi": 55,
                    "time": 194.1423120000022,
                    "velocity": 0.33070866141732286,
                    "duration": 0.11653200000000652
                },
                {
                    "name": "C4",
                    "midi": 60,
                    "time": 194.2588440000022,
                    "velocity": 0.30708661417322836,
                    "duration": 0.11653200000000652
                },
                {
                    "name": "A#3",
                    "midi": 58,
                    "time": 194.3753760000022,
                    "velocity": 0.3779527559055118,
                    "duration": 0.11653200000000652
                },
                {
                    "name": "C4",
                    "midi": 60,
                    "time": 194.4919080000022,
                    "velocity": 0.30708661417322836,
                    "duration": 0.11653200000000652
                },
                {
                    "name": "A#3",
                    "midi": 58,
                    "time": 194.60844000000222,
                    "velocity": 0.33070866141732286,
                    "duration": 0.11653200000000652
                },
                {
                    "name": "C4",
                    "midi": 60,
                    "time": 194.72497200000223,
                    "velocity": 0.31496062992125984,
                    "duration": 0.11653200000000652
                },
                {
                    "name": "E3",
                    "midi": 52,
                    "time": 194.84150400000223,
                    "velocity": 0.3700787401574803,
                    "duration": 0.11653200000000652
                },
                {
                    "name": "C4",
                    "midi": 60,
                    "time": 194.95803600000224,
                    "velocity": 0.3228346456692913,
                    "duration": 0.11653200000000652
                },
                {
                    "name": "G3",
                    "midi": 55,
                    "time": 195.07456800000224,
                    "velocity": 0.33858267716535434,
                    "duration": 0.11653200000000652
                },
                {
                    "name": "C4",
                    "midi": 60,
                    "time": 195.19110000000225,
                    "velocity": 0.31496062992125984,
                    "duration": 0.11653200000000652
                },
                {
                    "name": "A#3",
                    "midi": 58,
                    "time": 195.30763200000226,
                    "velocity": 0.3779527559055118,
                    "duration": 0.11653200000000652
                },
                {
                    "name": "C4",
                    "midi": 60,
                    "time": 195.42416400000226,
                    "velocity": 0.2992125984251969,
                    "duration": 0.11653200000000652
                },
                {
                    "name": "A#3",
                    "midi": 58,
                    "time": 195.54069600000227,
                    "velocity": 0.33070866141732286,
                    "duration": 0.11653200000000652
                },
                {
                    "name": "C4",
                    "midi": 60,
                    "time": 195.65722800000228,
                    "velocity": 0.31496062992125984,
                    "duration": 0.11653200000000652
                },
                {
                    "name": "A3",
                    "midi": 57,
                    "time": 195.77376000000228,
                    "velocity": 0.3464566929133858,
                    "duration": 0.11653200000000652
                },
                {
                    "name": "C4",
                    "midi": 60,
                    "time": 195.8902920000023,
                    "velocity": 0.33858267716535434,
                    "duration": 0.11653200000000652
                },
                {
                    "name": "E3",
                    "midi": 52,
                    "time": 196.0068240000023,
                    "velocity": 0.3543307086614173,
                    "duration": 0.11653200000000652
                },
                {
                    "name": "C4",
                    "midi": 60,
                    "time": 196.1233560000023,
                    "velocity": 0.3543307086614173,
                    "duration": 0.11653200000000652
                },
                {
                    "name": "F3",
                    "midi": 53,
                    "time": 196.2398880000023,
                    "velocity": 0.36220472440944884,
                    "duration": 0.11653200000000652
                },
                {
                    "name": "C4",
                    "midi": 60,
                    "time": 196.35642000000232,
                    "velocity": 0.3543307086614173,
                    "duration": 0.11653200000000652
                },
                {
                    "name": "G3",
                    "midi": 55,
                    "time": 196.47295200000232,
                    "velocity": 0.3779527559055118,
                    "duration": 0.11653200000000652
                },
                {
                    "name": "C4",
                    "midi": 60,
                    "time": 196.58948400000233,
                    "velocity": 0.3700787401574803,
                    "duration": 0.11653200000000652
                },
                {
                    "name": "G#3",
                    "midi": 56,
                    "time": 196.70601600000234,
                    "velocity": 0.41732283464566927,
                    "duration": 0.11653200000000652
                },
                {
                    "name": "C4",
                    "midi": 60,
                    "time": 196.82254800000234,
                    "velocity": 0.3779527559055118,
                    "duration": 0.11653200000000652
                },
                {
                    "name": "A3",
                    "midi": 57,
                    "time": 196.93908000000235,
                    "velocity": 0.41732283464566927,
                    "duration": 0.11653200000000652
                },
                {
                    "name": "C4",
                    "midi": 60,
                    "time": 197.05561200000236,
                    "velocity": 0.36220472440944884,
                    "duration": 0.11653200000000652
                },
                {
                    "name": "G#3",
                    "midi": 56,
                    "time": 197.17214400000236,
                    "velocity": 0.41732283464566927,
                    "duration": 0.11653200000000652
                },
                {
                    "name": "C4",
                    "midi": 60,
                    "time": 197.28867600000237,
                    "velocity": 0.36220472440944884,
                    "duration": 0.11653200000000652
                },
                {
                    "name": "A3",
                    "midi": 57,
                    "time": 197.40520800000238,
                    "velocity": 0.41732283464566927,
                    "duration": 0.11653200000000652
                },
                {
                    "name": "C4",
                    "midi": 60,
                    "time": 197.52174000000238,
                    "velocity": 0.3700787401574803,
                    "duration": 0.11653200000000652
                },
                {
                    "name": "A#3",
                    "midi": 58,
                    "time": 197.8713360000024,
                    "velocity": 0.28346456692913385,
                    "duration": 0.23306400000001304
                },
                {
                    "name": "A3",
                    "midi": 57,
                    "time": 198.1044000000024,
                    "velocity": 0.2992125984251969,
                    "duration": 0.23306400000001304
                },
                {
                    "name": "A#3",
                    "midi": 58,
                    "time": 198.33746400000243,
                    "velocity": 0.28346456692913385,
                    "duration": 0.23306400000001304
                },
                {
                    "name": "C4",
                    "midi": 60,
                    "time": 198.80359200000245,
                    "velocity": 0.2677165354330709,
                    "duration": 0.23306400000001304
                },
                {
                    "name": "B3",
                    "midi": 59,
                    "time": 199.03665600000247,
                    "velocity": 0.2992125984251969,
                    "duration": 0.23306400000001304
                },
                {
                    "name": "C4",
                    "midi": 60,
                    "time": 199.26972000000248,
                    "velocity": 0.25984251968503935,
                    "duration": 0.23306400000001304
                },
                {
                    "name": "C#4",
                    "midi": 61,
                    "time": 199.7358480000025,
                    "velocity": 0.2677165354330709,
                    "duration": 0.23306400000001304
                },
                {
                    "name": "B3",
                    "midi": 59,
                    "time": 199.96891200000252,
                    "velocity": 0.28346456692913385,
                    "duration": 0.23306400000001304
                },
                {
                    "name": "C#4",
                    "midi": 61,
                    "time": 200.20197600000253,
                    "velocity": 0.2677165354330709,
                    "duration": 0.23306400000001304
                },
                {
                    "name": "D4",
                    "midi": 62,
                    "time": 200.66810400000256,
                    "velocity": 0.2992125984251969,
                    "duration": 0.23306400000001304
                },
                {
                    "name": "C#4",
                    "midi": 61,
                    "time": 200.90116800000257,
                    "velocity": 0.31496062992125984,
                    "duration": 0.23306400000001304
                },
                {
                    "name": "D4",
                    "midi": 62,
                    "time": 201.13423200000258,
                    "velocity": 0.2992125984251969,
                    "duration": 0.23306400000001304
                },
                {
                    "name": "A#3",
                    "midi": 58,
                    "time": 201.8334240000026,
                    "velocity": 0.4251968503937008,
                    "duration": 0.46612799999999766
                },
                {
                    "name": "G4",
                    "midi": 67,
                    "time": 201.8334240000026,
                    "velocity": 0.4251968503937008,
                    "duration": 0.46612799999999766
                },
                {
                    "name": "C4",
                    "midi": 60,
                    "time": 202.2995520000026,
                    "velocity": 0.4251968503937008,
                    "duration": 0.9322559999999953
                },
                {
                    "name": "A4",
                    "midi": 69,
                    "time": 202.2995520000026,
                    "velocity": 0.4251968503937008,
                    "duration": 0.46612799999999766
                },
                {
                    "name": "A#4",
                    "midi": 70,
                    "time": 202.7656800000026,
                    "velocity": 0.3543307086614173,
                    "duration": 0.46612799999999766
                },
                {
                    "name": "A4",
                    "midi": 69,
                    "time": 203.2318080000026,
                    "velocity": 0.31496062992125984,
                    "duration": 0.9322559999999953
                },
                {
                    "name": "F4",
                    "midi": 65,
                    "time": 203.2318080000026,
                    "velocity": 0.2677165354330709,
                    "duration": 0.9322559999999953
                },
                {
                    "name": "A4",
                    "midi": 69,
                    "time": 204.16406400000258,
                    "velocity": 0.28346456692913385,
                    "duration": 0.9322559999999953
                },
                {
                    "name": "F4",
                    "midi": 65,
                    "time": 204.16406400000258,
                    "velocity": 0.23622047244094488,
                    "duration": 0.9322559999999953
                },
                {
                    "name": "F#3",
                    "midi": 54,
                    "time": 205.09632000000258,
                    "velocity": 0.23622047244094488,
                    "duration": 0.9322559999999953
                },
                {
                    "name": "A3",
                    "midi": 57,
                    "time": 205.09632000000258,
                    "velocity": 0.23622047244094488,
                    "duration": 0.9322559999999953
                },
                {
                    "name": "C4",
                    "midi": 60,
                    "time": 205.09632000000258,
                    "velocity": 0.28346456692913385,
                    "duration": 0.9322559999999953
                },
                {
                    "name": "G3",
                    "midi": 55,
                    "time": 206.02857600000257,
                    "velocity": 0.23622047244094488,
                    "duration": 0.9322559999999953
                },
                {
                    "name": "A#3",
                    "midi": 58,
                    "time": 206.02857600000257,
                    "velocity": 0.28346456692913385,
                    "duration": 0.9322559999999953
                },
                {
                    "name": "E3",
                    "midi": 52,
                    "time": 206.96083200000257,
                    "velocity": 0.2283464566929134,
                    "duration": 0.9322559999999953
                },
                {
                    "name": "A#3",
                    "midi": 58,
                    "time": 206.96083200000257,
                    "velocity": 0.2755905511811024,
                    "duration": 0.9322559999999953
                },
                {
                    "name": "G3",
                    "midi": 55,
                    "time": 206.96083200000257,
                    "velocity": 0.2283464566929134,
                    "duration": 0.9322559999999953
                },
                {
                    "name": "A3",
                    "midi": 57,
                    "time": 207.89308800000256,
                    "velocity": 0.2755905511811024,
                    "duration": 0.9322559999999953
                },
                {
                    "name": "F3",
                    "midi": 53,
                    "time": 207.89308800000256,
                    "velocity": 0.2283464566929134,
                    "duration": 0.9322559999999953
                },
                {
                    "name": "G3",
                    "midi": 55,
                    "time": 209.29147200000256,
                    "velocity": 0.25196850393700787,
                    "duration": 0.46612799999999766
                },
                {
                    "name": "B2",
                    "midi": 47,
                    "time": 209.29147200000256,
                    "velocity": 0.25196850393700787,
                    "duration": 0.46612799999999766
                },
                {
                    "name": "A3",
                    "midi": 57,
                    "time": 209.75760000000255,
                    "velocity": 0.28346456692913385,
                    "duration": 0.46612799999999766
                },
                {
                    "name": "C3",
                    "midi": 48,
                    "time": 209.75760000000255,
                    "velocity": 0.28346456692913385,
                    "duration": 0.9322559999999953
                },
                {
                    "name": "A#3",
                    "midi": 58,
                    "time": 210.22372800000255,
                    "velocity": 0.2755905511811024,
                    "duration": 0.46612799999999766
                },
                {
                    "name": "A3",
                    "midi": 57,
                    "time": 210.68985600000255,
                    "velocity": 0.33858267716535434,
                    "duration": 0.11653200000000652
                },
                {
                    "name": "F3",
                    "midi": 53,
                    "time": 210.68985600000255,
                    "velocity": 0.33858267716535434,
                    "duration": 0.11653200000000652
                },
                {
                    "name": "E4",
                    "midi": 64,
                    "time": 211.15598400000255,
                    "velocity": 0.2755905511811024,
                    "duration": 0.23306400000001304
                },
                {
                    "name": "D#4",
                    "midi": 63,
                    "time": 211.38904800000256,
                    "velocity": 0.2755905511811024,
                    "duration": 0.23306400000001304
                },
                {
                    "name": "D4",
                    "midi": 62,
                    "time": 211.62211200000257,
                    "velocity": 0.33858267716535434,
                    "duration": 0.11653200000000652
                },
                {
                    "name": "F3",
                    "midi": 53,
                    "time": 211.62211200000257,
                    "velocity": 0.33858267716535434,
                    "duration": 0.11653200000000652
                },
                {
                    "name": "E4",
                    "midi": 64,
                    "time": 212.08824000000257,
                    "velocity": 0.2755905511811024,
                    "duration": 0.23306400000001304
                },
                {
                    "name": "D#4",
                    "midi": 63,
                    "time": 212.32130400000258,
                    "velocity": 0.2755905511811024,
                    "duration": 0.23306400000001304
                },
                {
                    "name": "D4",
                    "midi": 62,
                    "time": 212.5543680000026,
                    "velocity": 0.33070866141732286,
                    "duration": 0.11653200000000652
                },
                {
                    "name": "F3",
                    "midi": 53,
                    "time": 212.5543680000026,
                    "velocity": 0.33070866141732286,
                    "duration": 0.11653200000000652
                },
                {
                    "name": "E4",
                    "midi": 64,
                    "time": 213.0204960000026,
                    "velocity": 0.33858267716535434,
                    "duration": 0.23306400000001304
                },
                {
                    "name": "D#4",
                    "midi": 63,
                    "time": 213.2535600000026,
                    "velocity": 0.33858267716535434,
                    "duration": 0.23306400000001304
                },
                {
                    "name": "D4",
                    "midi": 62,
                    "time": 213.48662400000262,
                    "velocity": 0.3700787401574803,
                    "duration": 0.23306400000001304
                },
                {
                    "name": "A3",
                    "midi": 57,
                    "time": 213.71968800000263,
                    "velocity": 0.3464566929133858,
                    "duration": 0.23306400000001304
                },
                {
                    "name": "A#3",
                    "midi": 58,
                    "time": 213.95275200000265,
                    "velocity": 0.36220472440944884,
                    "duration": 0.23306400000001304
                },
                {
                    "name": "G3",
                    "midi": 55,
                    "time": 214.18581600000266,
                    "velocity": 0.3464566929133858,
                    "duration": 0.23306400000001304
                },
                {
                    "name": "A3",
                    "midi": 57,
                    "time": 214.41888000000267,
                    "velocity": 0.4094488188976378,
                    "duration": 0.46612799999999766
                },
                {
                    "name": "A#3",
                    "midi": 58,
                    "time": 215.35113600000267,
                    "velocity": 0.3858267716535433,
                    "duration": 0.46612799999999766
                },
                {
                    "name": "C3",
                    "midi": 48,
                    "time": 216.28339200000266,
                    "velocity": 0.3779527559055118,
                    "duration": 0.23306400000001304
                },
                {
                    "name": "F3",
                    "midi": 53,
                    "time": 216.51645600000268,
                    "velocity": 0.3464566929133858,
                    "duration": 0.23306400000001304
                },
                {
                    "name": "A3",
                    "midi": 57,
                    "time": 216.7495200000027,
                    "velocity": 0.3464566929133858,
                    "duration": 0.11653200000000652
                },
                {
                    "name": "F3",
                    "midi": 53,
                    "time": 216.9825840000027,
                    "velocity": 0.3228346456692913,
                    "duration": 0.23306400000001304
                },
                {
                    "name": "C3",
                    "midi": 48,
                    "time": 217.21564800000272,
                    "velocity": 0.3858267716535433,
                    "duration": 0.23306400000001304
                },
                {
                    "name": "G3",
                    "midi": 55,
                    "time": 217.44871200000273,
                    "velocity": 0.33858267716535434,
                    "duration": 0.11653200000000652
                },
                {
                    "name": "A#3",
                    "midi": 58,
                    "time": 217.68177600000274,
                    "velocity": 0.3543307086614173,
                    "duration": 0.11653200000000652
                },
                {
                    "name": "G3",
                    "midi": 55,
                    "time": 217.91484000000276,
                    "velocity": 0.33858267716535434,
                    "duration": 0.11653200000000652
                },
                {
                    "name": "A3",
                    "midi": 57,
                    "time": 218.14790400000277,
                    "velocity": 0.4015748031496063,
                    "duration": 0.11653200000000652
                },
                {
                    "name": "F3",
                    "midi": 53,
                    "time": 218.14790400000277,
                    "velocity": 0.4015748031496063,
                    "duration": 0.11653200000000652
                },
                {
                    "name": "F4",
                    "midi": 65,
                    "time": 218.38096800000278,
                    "velocity": 0.2755905511811024,
                    "duration": 0.23306400000001304
                },
                {
                    "name": "E4",
                    "midi": 64,
                    "time": 218.6140320000028,
                    "velocity": 0.2755905511811024,
                    "duration": 0.23306400000001304
                },
                {
                    "name": "D#4",
                    "midi": 63,
                    "time": 218.8470960000028,
                    "velocity": 0.25196850393700787,
                    "duration": 0.23306400000001304
                },
                {
                    "name": "F3",
                    "midi": 53,
                    "time": 219.08016000000282,
                    "velocity": 0.33858267716535434,
                    "duration": 0.11653200000000652
                },
                {
                    "name": "D4",
                    "midi": 62,
                    "time": 219.08016000000282,
                    "velocity": 0.33858267716535434,
                    "duration": 0.11653200000000652
                },
                {
                    "name": "F4",
                    "midi": 65,
                    "time": 219.31322400000283,
                    "velocity": 0.25196850393700787,
                    "duration": 0.23306400000001304
                },
                {
                    "name": "E4",
                    "midi": 64,
                    "time": 219.54628800000285,
                    "velocity": 0.2755905511811024,
                    "duration": 0.23306400000001304
                },
                {
                    "name": "D#4",
                    "midi": 63,
                    "time": 219.77935200000286,
                    "velocity": 0.25984251968503935,
                    "duration": 0.23306400000001304
                },
                {
                    "name": "F3",
                    "midi": 53,
                    "time": 220.01241600000287,
                    "velocity": 0.33070866141732286,
                    "duration": 0.11653200000000652
                },
                {
                    "name": "D4",
                    "midi": 62,
                    "time": 220.01241600000287,
                    "velocity": 0.33070866141732286,
                    "duration": 0.11653200000000652
                },
                {
                    "name": "F4",
                    "midi": 65,
                    "time": 220.24548000000289,
                    "velocity": 0.2755905511811024,
                    "duration": 0.23306400000001304
                },
                {
                    "name": "E4",
                    "midi": 64,
                    "time": 220.4785440000029,
                    "velocity": 0.33858267716535434,
                    "duration": 0.23306400000001304
                },
                {
                    "name": "D#4",
                    "midi": 63,
                    "time": 220.7116080000029,
                    "velocity": 0.33858267716535434,
                    "duration": 0.23306400000001304
                },
                {
                    "name": "D4",
                    "midi": 62,
                    "time": 220.94467200000292,
                    "velocity": 0.3700787401574803,
                    "duration": 0.23306400000001304
                },
                {
                    "name": "A3",
                    "midi": 57,
                    "time": 221.17773600000294,
                    "velocity": 0.3464566929133858,
                    "duration": 0.23306400000001304
                },
                {
                    "name": "A#3",
                    "midi": 58,
                    "time": 221.41080000000295,
                    "velocity": 0.36220472440944884,
                    "duration": 0.23306400000001304
                },
                {
                    "name": "G3",
                    "midi": 55,
                    "time": 221.64386400000296,
                    "velocity": 0.3464566929133858,
                    "duration": 0.23306400000001304
                },
                {
                    "name": "A3",
                    "midi": 57,
                    "time": 221.87692800000298,
                    "velocity": 0.4881889763779528,
                    "duration": 0.46612799999999766
                },
                {
                    "name": "A2",
                    "midi": 45,
                    "time": 221.87692800000298,
                    "velocity": 0.4881889763779528,
                    "duration": 0.46612799999999766
                },
                {
                    "name": "A#2",
                    "midi": 46,
                    "time": 222.80918400000297,
                    "velocity": 0.49606299212598426,
                    "duration": 0.46612799999999766
                },
                {
                    "name": "A#3",
                    "midi": 58,
                    "time": 222.80918400000297,
                    "velocity": 0.49606299212598426,
                    "duration": 0.46612799999999766
                },
                {
                    "name": "C3",
                    "midi": 48,
                    "time": 223.74144000000297,
                    "velocity": 0.3779527559055118,
                    "duration": 0.11653200000000652
                },
                {
                    "name": "A3",
                    "midi": 57,
                    "time": 223.85797200000297,
                    "velocity": 0.31496062992125984,
                    "duration": 0.11653200000000652
                },
                {
                    "name": "F3",
                    "midi": 53,
                    "time": 223.97450400000298,
                    "velocity": 0.3464566929133858,
                    "duration": 0.11653200000000652
                },
                {
                    "name": "A3",
                    "midi": 57,
                    "time": 224.091036000003,
                    "velocity": 0.3228346456692913,
                    "duration": 0.11653200000000652
                },
                {
                    "name": "C3",
                    "midi": 48,
                    "time": 224.207568000003,
                    "velocity": 0.3779527559055118,
                    "duration": 0.11653200000000652
                },
                {
                    "name": "A3",
                    "midi": 57,
                    "time": 224.324100000003,
                    "velocity": 0.31496062992125984,
                    "duration": 0.11653200000000652
                },
                {
                    "name": "F3",
                    "midi": 53,
                    "time": 224.440632000003,
                    "velocity": 0.3464566929133858,
                    "duration": 0.11653200000000652
                },
                {
                    "name": "A3",
                    "midi": 57,
                    "time": 224.557164000003,
                    "velocity": 0.31496062992125984,
                    "duration": 0.11653200000000652
                },
                {
                    "name": "C3",
                    "midi": 48,
                    "time": 224.67369600000302,
                    "velocity": 0.3779527559055118,
                    "duration": 0.11653200000000652
                },
                {
                    "name": "A3",
                    "midi": 57,
                    "time": 224.79022800000303,
                    "velocity": 0.33070866141732286,
                    "duration": 0.11653200000000652
                },
                {
                    "name": "F3",
                    "midi": 53,
                    "time": 224.90676000000303,
                    "velocity": 0.36220472440944884,
                    "duration": 0.11653200000000652
                },
                {
                    "name": "A3",
                    "midi": 57,
                    "time": 225.02329200000304,
                    "velocity": 0.33070866141732286,
                    "duration": 0.11653200000000652
                },
                {
                    "name": "C3",
                    "midi": 48,
                    "time": 225.13982400000305,
                    "velocity": 0.3779527559055118,
                    "duration": 0.11653200000000652
                },
                {
                    "name": "A3",
                    "midi": 57,
                    "time": 225.25635600000305,
                    "velocity": 0.33858267716535434,
                    "duration": 0.11653200000000652
                },
                {
                    "name": "F3",
                    "midi": 53,
                    "time": 225.37288800000306,
                    "velocity": 0.36220472440944884,
                    "duration": 0.11653200000000652
                },
                {
                    "name": "A3",
                    "midi": 57,
                    "time": 225.48942000000307,
                    "velocity": 0.33858267716535434,
                    "duration": 0.11653200000000652
                },
                {
                    "name": "C3",
                    "midi": 48,
                    "time": 225.60595200000307,
                    "velocity": 0.3779527559055118,
                    "duration": 0.11653200000000652
                },
                {
                    "name": "A#3",
                    "midi": 58,
                    "time": 225.72248400000308,
                    "velocity": 0.31496062992125984,
                    "duration": 0.11653200000000652
                },
                {
                    "name": "E3",
                    "midi": 52,
                    "time": 225.83901600000308,
                    "velocity": 0.33858267716535434,
                    "duration": 0.11653200000000652
                },
                {
                    "name": "A#3",
                    "midi": 58,
                    "time": 225.9555480000031,
                    "velocity": 0.31496062992125984,
                    "duration": 0.11653200000000652
                },
                {
                    "name": "C3",
                    "midi": 48,
                    "time": 226.0720800000031,
                    "velocity": 0.3779527559055118,
                    "duration": 0.11653200000000652
                },
                {
                    "name": "A#3",
                    "midi": 58,
                    "time": 226.1886120000031,
                    "velocity": 0.33070866141732286,
                    "duration": 0.11653200000000652
                },
                {
                    "name": "E3",
                    "midi": 52,
                    "time": 226.3051440000031,
                    "velocity": 0.33858267716535434,
                    "duration": 0.11653200000000652
                },
                {
                    "name": "A#3",
                    "midi": 58,
                    "time": 226.42167600000312,
                    "velocity": 0.33070866141732286,
                    "duration": 0.11653200000000652
                },
                {
                    "name": "C3",
                    "midi": 48,
                    "time": 226.53820800000312,
                    "velocity": 0.3779527559055118,
                    "duration": 0.11653200000000652
                },
                {
                    "name": "A#3",
                    "midi": 58,
                    "time": 226.65474000000313,
                    "velocity": 0.3228346456692913,
                    "duration": 0.11653200000000652
                },
                {
                    "name": "E3",
                    "midi": 52,
                    "time": 226.77127200000314,
                    "velocity": 0.33858267716535434,
                    "duration": 0.11653200000000652
                },
                {
                    "name": "A#3",
                    "midi": 58,
                    "time": 226.88780400000314,
                    "velocity": 0.3228346456692913,
                    "duration": 0.11653200000000652
                },
                {
                    "name": "C3",
                    "midi": 48,
                    "time": 227.00433600000315,
                    "velocity": 0.3779527559055118,
                    "duration": 0.11653200000000652
                },
                {
                    "name": "A#3",
                    "midi": 58,
                    "time": 227.12086800000316,
                    "velocity": 0.33070866141732286,
                    "duration": 0.11653200000000652
                },
                {
                    "name": "E3",
                    "midi": 52,
                    "time": 227.23740000000316,
                    "velocity": 0.3543307086614173,
                    "duration": 0.11653200000000652
                },
                {
                    "name": "A#3",
                    "midi": 58,
                    "time": 227.35393200000317,
                    "velocity": 0.33070866141732286,
                    "duration": 0.11653200000000652
                },
                {
                    "name": "F3",
                    "midi": 53,
                    "time": 227.47046400000318,
                    "velocity": 0.4015748031496063,
                    "duration": 0.23306400000001304
                },
                {
                    "name": "F4",
                    "midi": 65,
                    "time": 227.7035280000032,
                    "velocity": 0.3464566929133858,
                    "duration": 0.23306400000001304
                },
                {
                    "name": "E4",
                    "midi": 64,
                    "time": 227.9365920000032,
                    "velocity": 0.3464566929133858,
                    "duration": 0.23306400000001304
                },
                {
                    "name": "F4",
                    "midi": 65,
                    "time": 228.16965600000322,
                    "velocity": 0.3464566929133858,
                    "duration": 0.23306400000001304
                },
                {
                    "name": "G4",
                    "midi": 67,
                    "time": 228.40272000000323,
                    "velocity": 0.3543307086614173,
                    "duration": 0.23306400000001304
                },
                {
                    "name": "F4",
                    "midi": 65,
                    "time": 228.63578400000324,
                    "velocity": 0.3779527559055118,
                    "duration": 0.23306400000001304
                },
                {
                    "name": "E4",
                    "midi": 64,
                    "time": 228.86884800000325,
                    "velocity": 0.4015748031496063,
                    "duration": 0.23306400000001304
                },
                {
                    "name": "D#4",
                    "midi": 63,
                    "time": 229.10191200000327,
                    "velocity": 0.4251968503937008,
                    "duration": 0.23306400000001304
                },
                {
                    "name": "D4",
                    "midi": 62,
                    "time": 229.33497600000328,
                    "velocity": 0.4645669291338583,
                    "duration": 0.23306400000001304
                },
                {
                    "name": "F3",
                    "midi": 53,
                    "time": 229.5680400000033,
                    "velocity": 0.3543307086614173,
                    "duration": 0.23306400000001304
                },
                {
                    "name": "C#4",
                    "midi": 61,
                    "time": 229.8011040000033,
                    "velocity": 0.41732283464566927,
                    "duration": 0.23306400000001304
                },
                {
                    "name": "F3",
                    "midi": 53,
                    "time": 230.03416800000332,
                    "velocity": 0.3543307086614173,
                    "duration": 0.23306400000001304
                },
                {
                    "name": "C4",
                    "midi": 60,
                    "time": 230.26723200000333,
                    "velocity": 0.4094488188976378,
                    "duration": 0.23306400000001304
                },
                {
                    "name": "F3",
                    "midi": 53,
                    "time": 230.50029600000335,
                    "velocity": 0.3464566929133858,
                    "duration": 0.23306400000001304
                },
                {
                    "name": "E4",
                    "midi": 64,
                    "time": 230.73336000000336,
                    "velocity": 0.3937007874015748,
                    "duration": 0.23306400000001304
                },
                {
                    "name": "F3",
                    "midi": 53,
                    "time": 230.96642400000337,
                    "velocity": 0.3464566929133858,
                    "duration": 0.23306400000001304
                },
                {
                    "name": "F4",
                    "midi": 65,
                    "time": 231.19948800000338,
                    "velocity": 0.41732283464566927,
                    "duration": 0.11653200000000652
                },
                {
                    "name": "F3",
                    "midi": 53,
                    "time": 231.4325520000034,
                    "velocity": 0.3228346456692913,
                    "duration": 0.23306400000001304
                },
                {
                    "name": "E3",
                    "midi": 52,
                    "time": 231.6656160000034,
                    "velocity": 0.3228346456692913,
                    "duration": 0.23306400000001304
                },
                {
                    "name": "F3",
                    "midi": 53,
                    "time": 231.89868000000342,
                    "velocity": 0.3228346456692913,
                    "duration": 0.23306400000001304
                },
                {
                    "name": "G3",
                    "midi": 55,
                    "time": 232.13174400000344,
                    "velocity": 0.3543307086614173,
                    "duration": 0.23306400000001304
                },
                {
                    "name": "F3",
                    "midi": 53,
                    "time": 232.36480800000345,
                    "velocity": 0.33858267716535434,
                    "duration": 0.23306400000001304
                },
                {
                    "name": "E3",
                    "midi": 52,
                    "time": 232.59787200000346,
                    "velocity": 0.33858267716535434,
                    "duration": 0.23306400000001304
                },
                {
                    "name": "D#3",
                    "midi": 51,
                    "time": 232.83093600000348,
                    "velocity": 0.33858267716535434,
                    "duration": 0.23306400000001304
                },
                {
                    "name": "D3",
                    "midi": 50,
                    "time": 233.0640000000035,
                    "velocity": 0.3543307086614173,
                    "duration": 0.46612799999999766
                },
                {
                    "name": "A#2",
                    "midi": 46,
                    "time": 233.5301280000035,
                    "velocity": 0.2755905511811024,
                    "duration": 0.46612799999999766
                },
                {
                    "name": "C3",
                    "midi": 48,
                    "time": 233.99625600000348,
                    "velocity": 0.2755905511811024,
                    "duration": 0.46612799999999766
                },
                {
                    "name": "C3",
                    "midi": 48,
                    "time": 234.46238400000348,
                    "velocity": 0.2755905511811024,
                    "duration": 0.46612799999999766
                },
                {
                    "name": "F3",
                    "midi": 53,
                    "time": 234.92851200000348,
                    "velocity": 0.29133858267716534,
                    "duration": 0.46612799999999766
                },
                {
                    "name": "C3",
                    "midi": 48,
                    "time": 235.39464000000348,
                    "velocity": 0.2204724409448819,
                    "duration": 0.46612799999999766
                },
                {
                    "name": "F2",
                    "midi": 41,
                    "time": 235.86076800000347,
                    "velocity": 0.2204724409448819,
                    "duration": 0.34959599999999114
                },
                {
                    "name": "F2",
                    "midi": 41,
                    "time": 237.02608800000348,
                    "velocity": 0.25984251968503935,
                    "duration": 0.23306400000001304
                },
                {
                    "name": "A2",
                    "midi": 45,
                    "time": 237.2591520000035,
                    "velocity": 0.2755905511811024,
                    "duration": 0.23306400000001304
                },
                {
                    "name": "C3",
                    "midi": 48,
                    "time": 237.4922160000035,
                    "velocity": 0.25984251968503935,
                    "duration": 0.23306400000001304
                },
                {
                    "name": "A2",
                    "midi": 45,
                    "time": 237.72528000000352,
                    "velocity": 0.2992125984251969,
                    "duration": 0.23306400000001304
                },
                {
                    "name": "F2",
                    "midi": 41,
                    "time": 237.95834400000354,
                    "velocity": 0.25196850393700787,
                    "duration": 0.23306400000001304
                },
                {
                    "name": "A2",
                    "midi": 45,
                    "time": 238.19140800000355,
                    "velocity": 0.2677165354330709,
                    "duration": 0.23306400000001304
                },
                {
                    "name": "C3",
                    "midi": 48,
                    "time": 238.42447200000356,
                    "velocity": 0.25196850393700787,
                    "duration": 0.23306400000001304
                },
                {
                    "name": "G3",
                    "midi": 55,
                    "time": 238.8906000000036,
                    "velocity": 0.25196850393700787,
                    "duration": 0.23306400000001304
                },
                {
                    "name": "A#3",
                    "midi": 58,
                    "time": 239.1236640000036,
                    "velocity": 0.2755905511811024,
                    "duration": 0.23306400000001304
                },
                {
                    "name": "E4",
                    "midi": 64,
                    "time": 239.3567280000036,
                    "velocity": 0.25984251968503935,
                    "duration": 0.23306400000001304
                },
                {
                    "name": "A#3",
                    "midi": 58,
                    "time": 239.58979200000363,
                    "velocity": 0.2677165354330709,
                    "duration": 0.23306400000001304
                },
                {
                    "name": "G3",
                    "midi": 55,
                    "time": 239.82285600000364,
                    "velocity": 0.23622047244094488,
                    "duration": 0.23306400000001304
                },
                {
                    "name": "A#3",
                    "midi": 58,
                    "time": 240.05592000000365,
                    "velocity": 0.2677165354330709,
                    "duration": 0.23306400000001304
                },
                {
                    "name": "E4",
                    "midi": 64,
                    "time": 240.28898400000367,
                    "velocity": 0.23622047244094488,
                    "duration": 0.23306400000001304
                },
                {
                    "name": "G2",
                    "midi": 43,
                    "time": 240.7551120000037,
                    "velocity": 0.25196850393700787,
                    "duration": 0.23306400000001304
                },
                {
                    "name": "A#2",
                    "midi": 46,
                    "time": 240.9881760000037,
                    "velocity": 0.2755905511811024,
                    "duration": 0.23306400000001304
                },
                {
                    "name": "E3",
                    "midi": 52,
                    "time": 241.22124000000372,
                    "velocity": 0.25196850393700787,
                    "duration": 0.23306400000001304
                },
                {
                    "name": "A#2",
                    "midi": 46,
                    "time": 241.45430400000373,
                    "velocity": 0.30708661417322836,
                    "duration": 0.23306400000001304
                },
                {
                    "name": "G2",
                    "midi": 43,
                    "time": 241.68736800000374,
                    "velocity": 0.25984251968503935,
                    "duration": 0.23306400000001304
                },
                {
                    "name": "A#2",
                    "midi": 46,
                    "time": 241.92043200000376,
                    "velocity": 0.2755905511811024,
                    "duration": 0.23306400000001304
                },
                {
                    "name": "E3",
                    "midi": 52,
                    "time": 242.15349600000377,
                    "velocity": 0.25984251968503935,
                    "duration": 0.23306400000001304
                },
                {
                    "name": "A3",
                    "midi": 57,
                    "time": 242.6196240000038,
                    "velocity": 0.25984251968503935,
                    "duration": 0.23306400000001304
                },
                {
                    "name": "C4",
                    "midi": 60,
                    "time": 242.8526880000038,
                    "velocity": 0.2755905511811024,
                    "duration": 0.23306400000001304
                },
                {
                    "name": "D#4",
                    "midi": 63,
                    "time": 243.08575200000382,
                    "velocity": 0.2677165354330709,
                    "duration": 0.23306400000001304
                },
                {
                    "name": "C4",
                    "midi": 60,
                    "time": 243.31881600000384,
                    "velocity": 0.29133858267716534,
                    "duration": 0.23306400000001304
                },
                {
                    "name": "A3",
                    "midi": 57,
                    "time": 243.55188000000385,
                    "velocity": 0.25196850393700787,
                    "duration": 0.23306400000001304
                },
                {
                    "name": "C4",
                    "midi": 60,
                    "time": 243.78494400000386,
                    "velocity": 0.2677165354330709,
                    "duration": 0.23306400000001304
                },
                {
                    "name": "D#4",
                    "midi": 63,
                    "time": 244.01800800000387,
                    "velocity": 0.2677165354330709,
                    "duration": 0.23306400000001304
                },
                {
                    "name": "A#2",
                    "midi": 46,
                    "time": 244.4841360000039,
                    "velocity": 0.3228346456692913,
                    "duration": 0.23306400000001304
                },
                {
                    "name": "D3",
                    "midi": 50,
                    "time": 244.7172000000039,
                    "velocity": 0.3700787401574803,
                    "duration": 0.23306400000001304
                },
                {
                    "name": "G3",
                    "midi": 55,
                    "time": 244.95026400000393,
                    "velocity": 0.3464566929133858,
                    "duration": 0.23306400000001304
                },
                {
                    "name": "C3",
                    "midi": 48,
                    "time": 245.41639200000395,
                    "velocity": 0.36220472440944884,
                    "duration": 0.23306400000001304
                },
                {
                    "name": "G3",
                    "midi": 55,
                    "time": 245.64945600000397,
                    "velocity": 0.3858267716535433,
                    "duration": 0.23306400000001304
                },
                {
                    "name": "A#3",
                    "midi": 58,
                    "time": 245.88252000000398,
                    "velocity": 0.36220472440944884,
                    "duration": 0.23306400000001304
                },
                {
                    "name": "D3",
                    "midi": 50,
                    "time": 246.348648000004,
                    "velocity": 0.3779527559055118,
                    "duration": 0.23306400000001304
                },
                {
                    "name": "F3",
                    "midi": 53,
                    "time": 246.58171200000402,
                    "velocity": 0.3937007874015748,
                    "duration": 0.23306400000001304
                },
                {
                    "name": "G#3",
                    "midi": 56,
                    "time": 246.81477600000403,
                    "velocity": 0.3543307086614173,
                    "duration": 0.23306400000001304
                },
                {
                    "name": "F3",
                    "midi": 53,
                    "time": 247.04784000000404,
                    "velocity": 0.4094488188976378,
                    "duration": 0.23306400000001304
                },
                {
                    "name": "D3",
                    "midi": 50,
                    "time": 247.28090400000406,
                    "velocity": 0.3858267716535433,
                    "duration": 0.23306400000001304
                },
                {
                    "name": "F3",
                    "midi": 53,
                    "time": 247.51396800000407,
                    "velocity": 0.41732283464566927,
                    "duration": 0.23306400000001304
                },
                {
                    "name": "G#3",
                    "midi": 56,
                    "time": 247.74703200000408,
                    "velocity": 0.3937007874015748,
                    "duration": 0.23306400000001304
                },
                {
                    "name": "C3",
                    "midi": 48,
                    "time": 247.9800960000041,
                    "velocity": 0.49606299212598426,
                    "duration": 0.9322559999999953
                },
                {
                    "name": "A3",
                    "midi": 57,
                    "time": 247.9800960000041,
                    "velocity": 0.49606299212598426,
                    "duration": 0.9322559999999953
                },
                {
                    "name": "C4",
                    "midi": 60,
                    "time": 248.9123520000041,
                    "velocity": 0.3779527559055118,
                    "duration": 0.46612799999999766
                },
                {
                    "name": "C3",
                    "midi": 48,
                    "time": 249.3784800000041,
                    "velocity": 0.3543307086614173,
                    "duration": 0.46612799999999766
                },
                {
                    "name": "F3",
                    "midi": 53,
                    "time": 249.8446080000041,
                    "velocity": 0.3228346456692913,
                    "duration": 0.11653200000000652
                },
                {
                    "name": "C4",
                    "midi": 60,
                    "time": 249.9611400000041,
                    "velocity": 0.2677165354330709,
                    "duration": 0.11653200000000652
                },
                {
                    "name": "G#3",
                    "midi": 56,
                    "time": 250.0776720000041,
                    "velocity": 0.29133858267716534,
                    "duration": 0.11653200000000652
                },
                {
                    "name": "C4",
                    "midi": 60,
                    "time": 250.1942040000041,
                    "velocity": 0.2677165354330709,
                    "duration": 0.11653200000000652
                },
                {
                    "name": "F3",
                    "midi": 53,
                    "time": 250.3107360000041,
                    "velocity": 0.3228346456692913,
                    "duration": 0.13983840000000214
                },
                {
                    "name": "C4",
                    "midi": 60,
                    "time": 250.42726800000412,
                    "velocity": 0.2677165354330709,
                    "duration": 0.13983840000000214
                },
                {
                    "name": "G#3",
                    "midi": 56,
                    "time": 250.54380000000413,
                    "velocity": 0.29133858267716534,
                    "duration": 0.13983840000000214
                },
                {
                    "name": "C4",
                    "midi": 60,
                    "time": 250.66033200000413,
                    "velocity": 0.2677165354330709,
                    "duration": 0.13983840000000214
                },
                {
                    "name": "F3",
                    "midi": 53,
                    "time": 250.77686400000414,
                    "velocity": 0.36220472440944884,
                    "duration": 0.13983840000000214
                },
                {
                    "name": "C4",
                    "midi": 60,
                    "time": 250.89339600000415,
                    "velocity": 0.28346456692913385,
                    "duration": 0.13983840000000214
                },
                {
                    "name": "G#3",
                    "midi": 56,
                    "time": 251.00992800000415,
                    "velocity": 0.3228346456692913,
                    "duration": 0.13983840000000214
                },
                {
                    "name": "C4",
                    "midi": 60,
                    "time": 251.12646000000416,
                    "velocity": 0.29133858267716534,
                    "duration": 0.13983840000000214
                },
                {
                    "name": "F3",
                    "midi": 53,
                    "time": 251.24299200000416,
                    "velocity": 0.3858267716535433,
                    "duration": 0.13983840000000214
                },
                {
                    "name": "C4",
                    "midi": 60,
                    "time": 251.35952400000417,
                    "velocity": 0.30708661417322836,
                    "duration": 0.13983840000000214
                },
                {
                    "name": "G#3",
                    "midi": 56,
                    "time": 251.47605600000418,
                    "velocity": 0.3464566929133858,
                    "duration": 0.13983840000000214
                },
                {
                    "name": "C4",
                    "midi": 60,
                    "time": 251.59258800000418,
                    "velocity": 0.30708661417322836,
                    "duration": 0.13983840000000214
                },
                {
                    "name": "F3",
                    "midi": 53,
                    "time": 251.7091200000042,
                    "velocity": 0.3858267716535433,
                    "duration": 0.13983840000000214
                },
                {
                    "name": "C4",
                    "midi": 60,
                    "time": 251.8256520000042,
                    "velocity": 0.33858267716535434,
                    "duration": 0.13983840000000214
                },
                {
                    "name": "G#3",
                    "midi": 56,
                    "time": 251.9421840000042,
                    "velocity": 0.3543307086614173,
                    "duration": 0.13983840000000214
                },
                {
                    "name": "C4",
                    "midi": 60,
                    "time": 252.0587160000042,
                    "velocity": 0.33858267716535434,
                    "duration": 0.13983840000000214
                },
                {
                    "name": "F3",
                    "midi": 53,
                    "time": 252.17524800000422,
                    "velocity": 0.3858267716535433,
                    "duration": 0.13983840000000214
                },
                {
                    "name": "C4",
                    "midi": 60,
                    "time": 252.29178000000422,
                    "velocity": 0.33858267716535434,
                    "duration": 0.13983840000000214
                },
                {
                    "name": "G#3",
                    "midi": 56,
                    "time": 252.40831200000423,
                    "velocity": 0.3543307086614173,
                    "duration": 0.13983840000000214
                },
                {
                    "name": "C4",
                    "midi": 60,
                    "time": 252.52484400000424,
                    "velocity": 0.33858267716535434,
                    "duration": 0.13983840000000214
                },
                {
                    "name": "F3",
                    "midi": 53,
                    "time": 252.64137600000424,
                    "velocity": 0.3779527559055118,
                    "duration": 0.13983840000000214
                },
                {
                    "name": "D4",
                    "midi": 62,
                    "time": 252.75790800000425,
                    "velocity": 0.30708661417322836,
                    "duration": 0.13983840000000214
                },
                {
                    "name": "G#3",
                    "midi": 56,
                    "time": 252.87444000000426,
                    "velocity": 0.3543307086614173,
                    "duration": 0.13983840000000214
                },
                {
                    "name": "D4",
                    "midi": 62,
                    "time": 252.99097200000426,
                    "velocity": 0.31496062992125984,
                    "duration": 0.13983840000000214
                },
                {
                    "name": "F3",
                    "midi": 53,
                    "time": 253.10750400000427,
                    "velocity": 0.3700787401574803,
                    "duration": 0.13983840000000214
                },
                {
                    "name": "D4",
                    "midi": 62,
                    "time": 253.22403600000428,
                    "velocity": 0.31496062992125984,
                    "duration": 0.13983840000000214
                },
                {
                    "name": "G#3",
                    "midi": 56,
                    "time": 253.34056800000428,
                    "velocity": 0.3543307086614173,
                    "duration": 0.13983840000000214
                },
                {
                    "name": "D4",
                    "midi": 62,
                    "time": 253.4571000000043,
                    "velocity": 0.31496062992125984,
                    "duration": 0.13983840000000214
                },
                {
                    "name": "G3",
                    "midi": 55,
                    "time": 253.5736320000043,
                    "velocity": 0.4251968503937008,
                    "duration": 0.11653200000000652
                },
                {
                    "name": "F4",
                    "midi": 65,
                    "time": 253.6901640000043,
                    "velocity": 0.36220472440944884,
                    "duration": 0.11653200000000652
                },
                {
                    "name": "D4",
                    "midi": 62,
                    "time": 253.8066960000043,
                    "velocity": 0.3779527559055118,
                    "duration": 0.11653200000000652
                },
                {
                    "name": "F4",
                    "midi": 65,
                    "time": 253.92322800000431,
                    "velocity": 0.3543307086614173,
                    "duration": 0.11653200000000652
                },
                {
                    "name": "G3",
                    "midi": 55,
                    "time": 254.03976000000432,
                    "velocity": 0.4251968503937008,
                    "duration": 0.11653200000000652
                },
                {
                    "name": "F4",
                    "midi": 65,
                    "time": 254.15629200000433,
                    "velocity": 0.3543307086614173,
                    "duration": 0.11653200000000652
                },
                {
                    "name": "D4",
                    "midi": 62,
                    "time": 254.27282400000433,
                    "velocity": 0.3779527559055118,
                    "duration": 0.11653200000000652
                },
                {
                    "name": "F4",
                    "midi": 65,
                    "time": 254.38935600000434,
                    "velocity": 0.3543307086614173,
                    "duration": 0.11653200000000652
                },
                {
                    "name": "G3",
                    "midi": 55,
                    "time": 254.50588800000435,
                    "velocity": 0.4251968503937008,
                    "duration": 0.11653200000000652
                },
                {
                    "name": "F4",
                    "midi": 65,
                    "time": 254.62242000000435,
                    "velocity": 0.36220472440944884,
                    "duration": 0.11653200000000652
                },
                {
                    "name": "D4",
                    "midi": 62,
                    "time": 254.73895200000436,
                    "velocity": 0.3779527559055118,
                    "duration": 0.11653200000000652
                },
                {
                    "name": "F4",
                    "midi": 65,
                    "time": 254.85548400000437,
                    "velocity": 0.3543307086614173,
                    "duration": 0.11653200000000652
                },
                {
                    "name": "G3",
                    "midi": 55,
                    "time": 254.97201600000437,
                    "velocity": 0.4094488188976378,
                    "duration": 0.11653200000000652
                },
                {
                    "name": "F4",
                    "midi": 65,
                    "time": 255.08854800000438,
                    "velocity": 0.3543307086614173,
                    "duration": 0.11653200000000652
                },
                {
                    "name": "D4",
                    "midi": 62,
                    "time": 255.2050800000044,
                    "velocity": 0.3779527559055118,
                    "duration": 0.11653200000000652
                },
                {
                    "name": "F4",
                    "midi": 65,
                    "time": 255.3216120000044,
                    "velocity": 0.3543307086614173,
                    "duration": 0.11653200000000652
                },
                {
                    "name": "G3",
                    "midi": 55,
                    "time": 255.4381440000044,
                    "velocity": 0.41732283464566927,
                    "duration": 0.11653200000000652
                },
                {
                    "name": "F4",
                    "midi": 65,
                    "time": 255.5546760000044,
                    "velocity": 0.3543307086614173,
                    "duration": 0.11653200000000652
                },
                {
                    "name": "D4",
                    "midi": 62,
                    "time": 255.6712080000044,
                    "velocity": 0.3779527559055118,
                    "duration": 0.11653200000000652
                },
                {
                    "name": "F4",
                    "midi": 65,
                    "time": 255.78774000000442,
                    "velocity": 0.3543307086614173,
                    "duration": 0.11653200000000652
                },
                {
                    "name": "G3",
                    "midi": 55,
                    "time": 255.90427200000443,
                    "velocity": 0.41732283464566927,
                    "duration": 0.11653200000000652
                },
                {
                    "name": "F4",
                    "midi": 65,
                    "time": 256.02080400000443,
                    "velocity": 0.3543307086614173,
                    "duration": 0.11653200000000652
                },
                {
                    "name": "D4",
                    "midi": 62,
                    "time": 256.13733600000444,
                    "velocity": 0.3779527559055118,
                    "duration": 0.11653200000000652
                },
                {
                    "name": "F4",
                    "midi": 65,
                    "time": 256.25386800000445,
                    "velocity": 0.3543307086614173,
                    "duration": 0.11653200000000652
                },
                {
                    "name": "G3",
                    "midi": 55,
                    "time": 256.37040000000445,
                    "velocity": 0.41732283464566927,
                    "duration": 0.11653200000000652
                },
                {
                    "name": "D4",
                    "midi": 62,
                    "time": 256.48693200000446,
                    "velocity": 0.36220472440944884,
                    "duration": 0.11653200000000652
                },
                {
                    "name": "B3",
                    "midi": 59,
                    "time": 256.60346400000446,
                    "velocity": 0.3779527559055118,
                    "duration": 0.11653200000000652
                },
                {
                    "name": "D4",
                    "midi": 62,
                    "time": 256.71999600000447,
                    "velocity": 0.3543307086614173,
                    "duration": 0.11653200000000652
                },
                {
                    "name": "G3",
                    "midi": 55,
                    "time": 256.8365280000045,
                    "velocity": 0.41732283464566927,
                    "duration": 0.11653200000000652
                },
                {
                    "name": "D4",
                    "midi": 62,
                    "time": 256.9530600000045,
                    "velocity": 0.3543307086614173,
                    "duration": 0.11653200000000652
                },
                {
                    "name": "B3",
                    "midi": 59,
                    "time": 257.0695920000045,
                    "velocity": 0.3779527559055118,
                    "duration": 0.11653200000000652
                },
                {
                    "name": "D4",
                    "midi": 62,
                    "time": 257.1861240000045,
                    "velocity": 0.3543307086614173,
                    "duration": 0.11653200000000652
                },
                {
                    "name": "G3",
                    "midi": 55,
                    "time": 257.3026560000045,
                    "velocity": 0.3779527559055118,
                    "duration": 0.11653200000000652
                },
                {
                    "name": "E4",
                    "midi": 64,
                    "time": 257.4191880000045,
                    "velocity": 0.30708661417322836,
                    "duration": 0.11653200000000652
                },
                {
                    "name": "C4",
                    "midi": 60,
                    "time": 257.5357200000045,
                    "velocity": 0.3464566929133858,
                    "duration": 0.11653200000000652
                },
                {
                    "name": "E4",
                    "midi": 64,
                    "time": 257.6522520000045,
                    "velocity": 0.30708661417322836,
                    "duration": 0.11653200000000652
                },
                {
                    "name": "G3",
                    "midi": 55,
                    "time": 257.76878400000453,
                    "velocity": 0.3779527559055118,
                    "duration": 0.11653200000000652
                },
                {
                    "name": "D#4",
                    "midi": 63,
                    "time": 257.88531600000454,
                    "velocity": 0.3228346456692913,
                    "duration": 0.11653200000000652
                },
                {
                    "name": "C4",
                    "midi": 60,
                    "time": 258.00184800000454,
                    "velocity": 0.3464566929133858,
                    "duration": 0.11653200000000652
                },
                {
                    "name": "D#4",
                    "midi": 63,
                    "time": 258.11838000000455,
                    "velocity": 0.3228346456692913,
                    "duration": 0.11653200000000652
                },
                {
                    "name": "G3",
                    "midi": 55,
                    "time": 258.23491200000456,
                    "velocity": 0.3779527559055118,
                    "duration": 0.13983840000003056
                },
                {
                    "name": "D#4",
                    "midi": 63,
                    "time": 258.35144400000456,
                    "velocity": 0.31496062992125984,
                    "duration": 0.13983840000003056
                },
                {
                    "name": "C4",
                    "midi": 60,
                    "time": 258.46797600000457,
                    "velocity": 0.3464566929133858,
                    "duration": 0.13983840000003056
                },
                {
                    "name": "D#4",
                    "midi": 63,
                    "time": 258.5845080000046,
                    "velocity": 0.2992125984251969,
                    "duration": 0.13983840000003056
                },
                {
                    "name": "G3",
                    "midi": 55,
                    "time": 258.7010400000046,
                    "velocity": 0.3779527559055118,
                    "duration": 0.13983840000003056
                },
                {
                    "name": "D#4",
                    "midi": 63,
                    "time": 258.8175720000046,
                    "velocity": 0.31496062992125984,
                    "duration": 0.13983840000003056
                },
                {
                    "name": "C4",
                    "midi": 60,
                    "time": 258.9341040000046,
                    "velocity": 0.3543307086614173,
                    "duration": 0.13983840000003056
                },
                {
                    "name": "D#4",
                    "midi": 63,
                    "time": 259.0506360000046,
                    "velocity": 0.31496062992125984,
                    "duration": 0.13983840000003056
                },
                {
                    "name": "F#3",
                    "midi": 54,
                    "time": 259.1671680000046,
                    "velocity": 0.4251968503937008,
                    "duration": 0.11653200000000652
                },
                {
                    "name": "D#4",
                    "midi": 63,
                    "time": 259.2837000000046,
                    "velocity": 0.31496062992125984,
                    "duration": 0.11653200000000652
                },
                {
                    "name": "A#3",
                    "midi": 58,
                    "time": 259.4002320000046,
                    "velocity": 0.3464566929133858,
                    "duration": 0.11653200000000652
                },
                {
                    "name": "D#4",
                    "midi": 63,
                    "time": 259.5167640000046,
                    "velocity": 0.3228346456692913,
                    "duration": 0.11653200000000652
                },
                {
                    "name": "F#3",
                    "midi": 54,
                    "time": 259.63329600000463,
                    "velocity": 0.3858267716535433,
                    "duration": 0.11653200000000652
                },
                {
                    "name": "D#4",
                    "midi": 63,
                    "time": 259.74982800000464,
                    "velocity": 0.33070866141732286,
                    "duration": 0.11653200000000652
                },
                {
                    "name": "A#3",
                    "midi": 58,
                    "time": 259.86636000000465,
                    "velocity": 0.3543307086614173,
                    "duration": 0.11653200000000652
                },
                {
                    "name": "D#4",
                    "midi": 63,
                    "time": 259.98289200000465,
                    "velocity": 0.31496062992125984,
                    "duration": 0.11653200000000652
                },
                {
                    "name": "F#3",
                    "midi": 54,
                    "time": 260.09942400000466,
                    "velocity": 0.4251968503937008,
                    "duration": 0.11653200000000652
                },
                {
                    "name": "D#4",
                    "midi": 63,
                    "time": 260.21595600000467,
                    "velocity": 0.33070866141732286,
                    "duration": 0.11653200000000652
                },
                {
                    "name": "A#3",
                    "midi": 58,
                    "time": 260.3324880000047,
                    "velocity": 0.3543307086614173,
                    "duration": 0.11653200000000652
                },
                {
                    "name": "D#4",
                    "midi": 63,
                    "time": 260.4490200000047,
                    "velocity": 0.33070866141732286,
                    "duration": 0.11653200000000652
                },
                {
                    "name": "F#3",
                    "midi": 54,
                    "time": 260.5655520000047,
                    "velocity": 0.3779527559055118,
                    "duration": 0.11653200000000652
                },
                {
                    "name": "D#4",
                    "midi": 63,
                    "time": 260.6820840000047,
                    "velocity": 0.31496062992125984,
                    "duration": 0.11653200000000652
                },
                {
                    "name": "A#3",
                    "midi": 58,
                    "time": 260.7986160000047,
                    "velocity": 0.3543307086614173,
                    "duration": 0.11653200000000652
                },
                {
                    "name": "D#4",
                    "midi": 63,
                    "time": 260.9151480000047,
                    "velocity": 0.31496062992125984,
                    "duration": 0.11653200000000652
                },
                {
                    "name": "F3",
                    "midi": 53,
                    "time": 261.0316800000047,
                    "velocity": 0.3858267716535433,
                    "duration": 0.11653200000000652
                },
                {
                    "name": "D#4",
                    "midi": 63,
                    "time": 261.1482120000047,
                    "velocity": 0.31496062992125984,
                    "duration": 0.11653200000000652
                },
                {
                    "name": "C4",
                    "midi": 60,
                    "time": 261.2647440000047,
                    "velocity": 0.3543307086614173,
                    "duration": 0.11653200000000652
                },
                {
                    "name": "D#4",
                    "midi": 63,
                    "time": 261.38127600000473,
                    "velocity": 0.3228346456692913,
                    "duration": 0.11653200000000652
                },
                {
                    "name": "F3",
                    "midi": 53,
                    "time": 261.49780800000474,
                    "velocity": 0.3937007874015748,
                    "duration": 0.11653200000000652
                },
                {
                    "name": "D#4",
                    "midi": 63,
                    "time": 261.61434000000474,
                    "velocity": 0.33070866141732286,
                    "duration": 0.11653200000000652
                },
                {
                    "name": "C4",
                    "midi": 60,
                    "time": 261.73087200000475,
                    "velocity": 0.3543307086614173,
                    "duration": 0.11653200000000652
                },
                {
                    "name": "D#4",
                    "midi": 63,
                    "time": 261.84740400000476,
                    "velocity": 0.31496062992125984,
                    "duration": 0.11653200000000652
                },
                {
                    "name": "F3",
                    "midi": 53,
                    "time": 261.96393600000476,
                    "velocity": 0.3937007874015748,
                    "duration": 0.13983840000003056
                },
                {
                    "name": "D#4",
                    "midi": 63,
                    "time": 262.08046800000477,
                    "velocity": 0.33858267716535434,
                    "duration": 0.13983840000003056
                },
                {
                    "name": "C4",
                    "midi": 60,
                    "time": 262.1970000000048,
                    "velocity": 0.3779527559055118,
                    "duration": 0.13983840000003056
                },
                {
                    "name": "D#4",
                    "midi": 63,
                    "time": 262.3135320000048,
                    "velocity": 0.33858267716535434,
                    "duration": 0.13983840000003056
                },
                {
                    "name": "F3",
                    "midi": 53,
                    "time": 262.4300640000048,
                    "velocity": 0.4251968503937008,
                    "duration": 0.13983840000003056
                },
                {
                    "name": "D#4",
                    "midi": 63,
                    "time": 262.5465960000048,
                    "velocity": 0.3543307086614173,
                    "duration": 0.13983840000003056
                },
                {
                    "name": "C4",
                    "midi": 60,
                    "time": 262.6631280000048,
                    "velocity": 0.3779527559055118,
                    "duration": 0.13983840000003056
                },
                {
                    "name": "D#4",
                    "midi": 63,
                    "time": 262.7796600000048,
                    "velocity": 0.3543307086614173,
                    "duration": 0.13983840000003056
                },
                {
                    "name": "F3",
                    "midi": 53,
                    "time": 262.8961920000048,
                    "velocity": 0.4251968503937008,
                    "duration": 0.13983840000003056
                },
                {
                    "name": "D#4",
                    "midi": 63,
                    "time": 263.0127240000048,
                    "velocity": 0.3543307086614173,
                    "duration": 0.13983840000003056
                },
                {
                    "name": "C4",
                    "midi": 60,
                    "time": 263.12925600000483,
                    "velocity": 0.3779527559055118,
                    "duration": 0.13983840000003056
                },
                {
                    "name": "D#4",
                    "midi": 63,
                    "time": 263.24578800000484,
                    "velocity": 0.3464566929133858,
                    "duration": 0.13983840000003056
                },
                {
                    "name": "F3",
                    "midi": 53,
                    "time": 263.36232000000484,
                    "velocity": 0.4251968503937008,
                    "duration": 0.13983840000003056
                },
                {
                    "name": "D#4",
                    "midi": 63,
                    "time": 263.47885200000485,
                    "velocity": 0.3543307086614173,
                    "duration": 0.13983840000003056
                },
                {
                    "name": "C4",
                    "midi": 60,
                    "time": 263.59538400000486,
                    "velocity": 0.3779527559055118,
                    "duration": 0.13983840000003056
                },
                {
                    "name": "D#4",
                    "midi": 63,
                    "time": 263.71191600000486,
                    "velocity": 0.3464566929133858,
                    "duration": 0.13983840000003056
                },
                {
                    "name": "F3",
                    "midi": 53,
                    "time": 263.82844800000487,
                    "velocity": 0.4094488188976378,
                    "duration": 0.13983840000003056
                },
                {
                    "name": "C4",
                    "midi": 60,
                    "time": 263.9449800000049,
                    "velocity": 0.3464566929133858,
                    "duration": 0.13983840000003056
                },
                {
                    "name": "A3",
                    "midi": 57,
                    "time": 264.0615120000049,
                    "velocity": 0.3779527559055118,
                    "duration": 0.13983840000003056
                },
                {
                    "name": "C4",
                    "midi": 60,
                    "time": 264.1780440000049,
                    "velocity": 0.3464566929133858,
                    "duration": 0.13983840000003056
                },
                {
                    "name": "F3",
                    "midi": 53,
                    "time": 264.2945760000049,
                    "velocity": 0.41732283464566927,
                    "duration": 0.13983840000003056
                },
                {
                    "name": "C4",
                    "midi": 60,
                    "time": 264.4111080000049,
                    "velocity": 0.3464566929133858,
                    "duration": 0.13983840000003056
                },
                {
                    "name": "A3",
                    "midi": 57,
                    "time": 264.5276400000049,
                    "velocity": 0.3700787401574803,
                    "duration": 0.13983840000003056
                },
                {
                    "name": "C4",
                    "midi": 60,
                    "time": 264.6441720000049,
                    "velocity": 0.3464566929133858,
                    "duration": 0.13983840000003056
                },
                {
                    "name": "F#3",
                    "midi": 54,
                    "time": 264.7607040000049,
                    "velocity": 0.3464566929133858,
                    "duration": 0.11653200000000652
                },
                {
                    "name": "C4",
                    "midi": 60,
                    "time": 264.8772360000049,
                    "velocity": 0.30708661417322836,
                    "duration": 0.11653200000000652
                },
                {
                    "name": "A3",
                    "midi": 57,
                    "time": 264.99376800000493,
                    "velocity": 0.31496062992125984,
                    "duration": 0.13983840000003056
                },
                {
                    "name": "C4",
                    "midi": 60,
                    "time": 265.11030000000494,
                    "velocity": 0.2755905511811024,
                    "duration": 0.13983840000003056
                },
                {
                    "name": "F#3",
                    "midi": 54,
                    "time": 265.22683200000495,
                    "velocity": 0.3464566929133858,
                    "duration": 0.11653200000000652
                },
                {
                    "name": "C4",
                    "midi": 60,
                    "time": 265.34336400000495,
                    "velocity": 0.25984251968503935,
                    "duration": 0.11653200000000652
                },
                {
                    "name": "A3",
                    "midi": 57,
                    "time": 265.45989600000496,
                    "velocity": 0.30708661417322836,
                    "duration": 0.11653200000000652
                },
                {
                    "name": "C4",
                    "midi": 60,
                    "time": 265.57642800000497,
                    "velocity": 0.2677165354330709,
                    "duration": 0.11653200000000652
                },
                {
                    "name": "F#3",
                    "midi": 54,
                    "time": 265.692960000005,
                    "velocity": 0.3464566929133858,
                    "duration": 0.11653200000000652
                },
                {
                    "name": "C4",
                    "midi": 60,
                    "time": 265.809492000005,
                    "velocity": 0.25984251968503935,
                    "duration": 0.11653200000000652
                },
                {
                    "name": "A3",
                    "midi": 57,
                    "time": 265.926024000005,
                    "velocity": 0.30708661417322836,
                    "duration": 0.11653200000000652
                },
                {
                    "name": "C4",
                    "midi": 60,
                    "time": 266.042556000005,
                    "velocity": 0.25984251968503935,
                    "duration": 0.11653200000000652
                },
                {
                    "name": "F#3",
                    "midi": 54,
                    "time": 266.159088000005,
                    "velocity": 0.3464566929133858,
                    "duration": 0.11653200000000652
                },
                {
                    "name": "D4",
                    "midi": 62,
                    "time": 266.275620000005,
                    "velocity": 0.2755905511811024,
                    "duration": 0.11653200000000652
                },
                {
                    "name": "A3",
                    "midi": 57,
                    "time": 266.392152000005,
                    "velocity": 0.30708661417322836,
                    "duration": 0.11653200000000652
                },
                {
                    "name": "D4",
                    "midi": 62,
                    "time": 266.508684000005,
                    "velocity": 0.2677165354330709,
                    "duration": 0.11653200000000652
                },
                {
                    "name": "G3",
                    "midi": 55,
                    "time": 266.625216000005,
                    "velocity": 0.3779527559055118,
                    "duration": 0.11653200000000652
                },
                {
                    "name": "D4",
                    "midi": 62,
                    "time": 266.74174800000503,
                    "velocity": 0.30708661417322836,
                    "duration": 0.11653200000000652
                },
                {
                    "name": "A#3",
                    "midi": 58,
                    "time": 266.85828000000504,
                    "velocity": 0.3464566929133858,
                    "duration": 0.11653200000000652
                },
                {
                    "name": "D4",
                    "midi": 62,
                    "time": 266.97481200000504,
                    "velocity": 0.30708661417322836,
                    "duration": 0.11653200000000652
                },
                {
                    "name": "F3",
                    "midi": 53,
                    "time": 267.09134400000505,
                    "velocity": 0.3779527559055118,
                    "duration": 0.11653200000000652
                },
                {
                    "name": "D4",
                    "midi": 62,
                    "time": 267.20787600000506,
                    "velocity": 0.2992125984251969,
                    "duration": 0.11653200000000652
                },
                {
                    "name": "A3",
                    "midi": 57,
                    "time": 267.32440800000506,
                    "velocity": 0.3464566929133858,
                    "duration": 0.11653200000000652
                },
                {
                    "name": "D4",
                    "midi": 62,
                    "time": 267.44094000000507,
                    "velocity": 0.2992125984251969,
                    "duration": 0.11653200000000652
                },
                {
                    "name": "E3",
                    "midi": 52,
                    "time": 267.5574720000051,
                    "velocity": 0.3779527559055118,
                    "duration": 0.13983840000003056
                },
                {
                    "name": "D4",
                    "midi": 62,
                    "time": 267.6740040000051,
                    "velocity": 0.2992125984251969,
                    "duration": 0.13983840000003056
                },
                {
                    "name": "G3",
                    "midi": 55,
                    "time": 267.7905360000051,
                    "velocity": 0.3464566929133858,
                    "duration": 0.13983840000003056
                },
                {
                    "name": "D4",
                    "midi": 62,
                    "time": 267.9070680000051,
                    "velocity": 0.29133858267716534,
                    "duration": 0.13983840000003056
                },
                {
                    "name": "D#3",
                    "midi": 51,
                    "time": 268.0236000000051,
                    "velocity": 0.3779527559055118,
                    "duration": 0.13983840000003056
                },
                {
                    "name": "C#4",
                    "midi": 61,
                    "time": 268.1401320000051,
                    "velocity": 0.2992125984251969,
                    "duration": 0.13983840000003056
                },
                {
                    "name": "G3",
                    "midi": 55,
                    "time": 268.2566640000051,
                    "velocity": 0.3464566929133858,
                    "duration": 0.13983840000003056
                },
                {
                    "name": "C#4",
                    "midi": 61,
                    "time": 268.3731960000051,
                    "velocity": 0.30708661417322836,
                    "duration": 0.13983840000003056
                },
                {
                    "name": "D3",
                    "midi": 50,
                    "time": 268.48972800000513,
                    "velocity": 0.2992125984251969,
                    "duration": 0.4661280000000261
                },
                {
                    "name": "D4",
                    "midi": 62,
                    "time": 268.48972800000513,
                    "velocity": 0.2992125984251969,
                    "duration": 0.4661280000000261
                },
                {
                    "name": "D4",
                    "midi": 62,
                    "time": 269.88811200000515,
                    "velocity": 0.3543307086614173,
                    "duration": 0.4661280000000261
                },
                {
                    "name": "F#4",
                    "midi": 66,
                    "time": 269.88811200000515,
                    "velocity": 0.3543307086614173,
                    "duration": 0.4661280000000261
                },
                {
                    "name": "D#4",
                    "midi": 63,
                    "time": 270.3542400000052,
                    "velocity": 0.3543307086614173,
                    "duration": 0.4661280000000261
                },
                {
                    "name": "G4",
                    "midi": 67,
                    "time": 270.3542400000052,
                    "velocity": 0.3543307086614173,
                    "duration": 0.4661280000000261
                },
                {
                    "name": "D#3",
                    "midi": 51,
                    "time": 271.7526240000052,
                    "velocity": 0.4251968503937008,
                    "duration": 0.4661280000000261
                },
                {
                    "name": "C#4",
                    "midi": 61,
                    "time": 271.7526240000052,
                    "velocity": 0.4251968503937008,
                    "duration": 0.4661280000000261
                },
                {
                    "name": "D3",
                    "midi": 50,
                    "time": 272.2187520000052,
                    "velocity": 0.3858267716535433,
                    "duration": 0.4661280000000261
                },
                {
                    "name": "D4",
                    "midi": 62,
                    "time": 272.2187520000052,
                    "velocity": 0.3858267716535433,
                    "duration": 0.4661280000000261
                },
                {
                    "name": "D3",
                    "midi": 50,
                    "time": 273.61713600000525,
                    "velocity": 0.3543307086614173,
                    "duration": 0.4661280000000261
                },
                {
                    "name": "C4",
                    "midi": 60,
                    "time": 273.61713600000525,
                    "velocity": 0.3543307086614173,
                    "duration": 0.4661280000000261
                },
                {
                    "name": "D#3",
                    "midi": 51,
                    "time": 274.0832640000053,
                    "velocity": 0.33070866141732286,
                    "duration": 0.4661280000000261
                },
                {
                    "name": "A#3",
                    "midi": 58,
                    "time": 274.0832640000053,
                    "velocity": 0.33070866141732286,
                    "duration": 0.4661280000000261
                },
                {
                    "name": "D#3",
                    "midi": 51,
                    "time": 275.4816480000053,
                    "velocity": 0.25196850393700787,
                    "duration": 0.4661280000000261
                },
                {
                    "name": "G3",
                    "midi": 55,
                    "time": 275.4816480000053,
                    "velocity": 0.25196850393700787,
                    "duration": 0.4661280000000261
                },
                {
                    "name": "D3",
                    "midi": 50,
                    "time": 275.9477760000053,
                    "velocity": 0.1889763779527559,
                    "duration": 0.23306400000001304
                },
                {
                    "name": "F#3",
                    "midi": 54,
                    "time": 275.9477760000053,
                    "velocity": 0.1889763779527559,
                    "duration": 0.23306400000001304
                },
                {
                    "name": "D3",
                    "midi": 50,
                    "time": 276.41390400000535,
                    "velocity": 0.2125984251968504,
                    "duration": 0.23306400000001304
                },
                {
                    "name": "G3",
                    "midi": 55,
                    "time": 276.41390400000535,
                    "velocity": 0.2125984251968504,
                    "duration": 0.23306400000001304
                },
                {
                    "name": "A#3",
                    "midi": 58,
                    "time": 276.41390400000535,
                    "velocity": 0.2125984251968504,
                    "duration": 0.23306400000001304
                },
                {
                    "name": "D3",
                    "midi": 50,
                    "time": 276.8800320000054,
                    "velocity": 0.2204724409448819,
                    "duration": 0.23306400000001304
                },
                {
                    "name": "F#3",
                    "midi": 54,
                    "time": 276.8800320000054,
                    "velocity": 0.2204724409448819,
                    "duration": 0.23306400000001304
                },
                {
                    "name": "A3",
                    "midi": 57,
                    "time": 276.8800320000054,
                    "velocity": 0.2204724409448819,
                    "duration": 0.23306400000001304
                },
                {
                    "name": "D3",
                    "midi": 50,
                    "time": 277.3461600000054,
                    "velocity": 0.25196850393700787,
                    "duration": 0.23306400000001304
                },
                {
                    "name": "G3",
                    "midi": 55,
                    "time": 277.3461600000054,
                    "velocity": 0.25196850393700787,
                    "duration": 0.23306400000001304
                },
                {
                    "name": "A#3",
                    "midi": 58,
                    "time": 277.3461600000054,
                    "velocity": 0.25196850393700787,
                    "duration": 0.23306400000001304
                },
                {
                    "name": "D3",
                    "midi": 50,
                    "time": 277.8122880000054,
                    "velocity": 0.2677165354330709,
                    "duration": 0.4661280000000261
                },
                {
                    "name": "F#3",
                    "midi": 54,
                    "time": 277.8122880000054,
                    "velocity": 0.2677165354330709,
                    "duration": 0.4661280000000261
                },
                {
                    "name": "A3",
                    "midi": 57,
                    "time": 277.8122880000054,
                    "velocity": 0.2677165354330709,
                    "duration": 0.4661280000000261
                },
                {
                    "name": "C4",
                    "midi": 60,
                    "time": 279.9098640000054,
                    "velocity": 0.23622047244094488,
                    "duration": 0.23306400000001304
                },
                {
                    "name": "F4",
                    "midi": 65,
                    "time": 279.9098640000054,
                    "velocity": 0.23622047244094488,
                    "duration": 0.23306400000001304
                },
                {
                    "name": "A4",
                    "midi": 69,
                    "time": 279.9098640000054,
                    "velocity": 0.2677165354330709,
                    "duration": 0.23306400000001304
                },
                {
                    "name": "C4",
                    "midi": 60,
                    "time": 280.14292800000544,
                    "velocity": 0.25984251968503935,
                    "duration": 0.23306400000001304
                },
                {
                    "name": "F4",
                    "midi": 65,
                    "time": 280.14292800000544,
                    "velocity": 0.25984251968503935,
                    "duration": 0.23306400000001304
                },
                {
                    "name": "A4",
                    "midi": 69,
                    "time": 280.14292800000544,
                    "velocity": 0.29133858267716534,
                    "duration": 0.23306400000001304
                },
                {
                    "name": "C4",
                    "midi": 60,
                    "time": 280.37599200000545,
                    "velocity": 0.28346456692913385,
                    "duration": 0.23306400000001304
                },
                {
                    "name": "F4",
                    "midi": 65,
                    "time": 280.37599200000545,
                    "velocity": 0.28346456692913385,
                    "duration": 0.23306400000001304
                },
                {
                    "name": "A4",
                    "midi": 69,
                    "time": 280.37599200000545,
                    "velocity": 0.31496062992125984,
                    "duration": 0.23306400000001304
                },
                {
                    "name": "C4",
                    "midi": 60,
                    "time": 280.60905600000547,
                    "velocity": 0.30708661417322836,
                    "duration": 0.4661280000000261
                },
                {
                    "name": "F4",
                    "midi": 65,
                    "time": 280.60905600000547,
                    "velocity": 0.30708661417322836,
                    "duration": 0.4661280000000261
                },
                {
                    "name": "A4",
                    "midi": 69,
                    "time": 280.60905600000547,
                    "velocity": 0.3464566929133858,
                    "duration": 0.4661280000000261
                },
                {
                    "name": "F4",
                    "midi": 65,
                    "time": 281.7743760000055,
                    "velocity": 0.25196850393700787,
                    "duration": 0.23306400000001304
                },
                {
                    "name": "C5",
                    "midi": 72,
                    "time": 281.7743760000055,
                    "velocity": 0.25196850393700787,
                    "duration": 0.23306400000001304
                },
                {
                    "name": "D#5",
                    "midi": 75,
                    "time": 281.7743760000055,
                    "velocity": 0.28346456692913385,
                    "duration": 0.23306400000001304
                },
                {
                    "name": "F4",
                    "midi": 65,
                    "time": 282.0074400000055,
                    "velocity": 0.28346456692913385,
                    "duration": 0.23306400000001304
                },
                {
                    "name": "C5",
                    "midi": 72,
                    "time": 282.0074400000055,
                    "velocity": 0.28346456692913385,
                    "duration": 0.23306400000001304
                },
                {
                    "name": "D#5",
                    "midi": 75,
                    "time": 282.0074400000055,
                    "velocity": 0.31496062992125984,
                    "duration": 0.23306400000001304
                },
                {
                    "name": "F4",
                    "midi": 65,
                    "time": 282.2405040000055,
                    "velocity": 0.30708661417322836,
                    "duration": 0.23306400000001304
                },
                {
                    "name": "C5",
                    "midi": 72,
                    "time": 282.2405040000055,
                    "velocity": 0.30708661417322836,
                    "duration": 0.23306400000001304
                },
                {
                    "name": "D#5",
                    "midi": 75,
                    "time": 282.2405040000055,
                    "velocity": 0.3464566929133858,
                    "duration": 0.23306400000001304
                },
                {
                    "name": "F4",
                    "midi": 65,
                    "time": 282.4735680000055,
                    "velocity": 0.33070866141732286,
                    "duration": 0.4661280000000261
                },
                {
                    "name": "C5",
                    "midi": 72,
                    "time": 282.4735680000055,
                    "velocity": 0.33070866141732286,
                    "duration": 0.4661280000000261
                },
                {
                    "name": "D#5",
                    "midi": 75,
                    "time": 282.4735680000055,
                    "velocity": 0.3700787401574803,
                    "duration": 0.4661280000000261
                },
                {
                    "name": "F4",
                    "midi": 65,
                    "time": 283.6388880000055,
                    "velocity": 0.3700787401574803,
                    "duration": 0.23306400000001304
                },
                {
                    "name": "C5",
                    "midi": 72,
                    "time": 283.87195200000554,
                    "velocity": 0.3543307086614173,
                    "duration": 0.23306400000001304
                },
                {
                    "name": "D#5",
                    "midi": 75,
                    "time": 284.10501600000555,
                    "velocity": 0.3543307086614173,
                    "duration": 0.23306400000001304
                },
                {
                    "name": "F#4",
                    "midi": 66,
                    "time": 284.33808000000556,
                    "velocity": 0.3700787401574803,
                    "duration": 0.9322559999999953
                },
                {
                    "name": "F4",
                    "midi": 65,
                    "time": 285.50340000000557,
                    "velocity": 0.2992125984251969,
                    "duration": 0.23306400000001304
                },
                {
                    "name": "C5",
                    "midi": 72,
                    "time": 285.7364640000056,
                    "velocity": 0.3228346456692913,
                    "duration": 0.23306400000001304
                },
                {
                    "name": "D#5",
                    "midi": 75,
                    "time": 285.9695280000056,
                    "velocity": 0.29133858267716534,
                    "duration": 0.23306400000001304
                },
                {
                    "name": "F#4",
                    "midi": 66,
                    "time": 286.2025920000056,
                    "velocity": 0.3858267716535433,
                    "duration": 0.9322559999999953
                },
                {
                    "name": "F4",
                    "midi": 65,
                    "time": 287.1348480000056,
                    "velocity": 0.36220472440944884,
                    "duration": 0.23306400000001304
                },
                {
                    "name": "F#4",
                    "midi": 66,
                    "time": 287.60097600000563,
                    "velocity": 0.4094488188976378,
                    "duration": 0.4661280000000261
                },
                {
                    "name": "C5",
                    "midi": 72,
                    "time": 287.60097600000563,
                    "velocity": 0.4094488188976378,
                    "duration": 0.9322560000000522
                },
                {
                    "name": "D#5",
                    "midi": 75,
                    "time": 287.60097600000563,
                    "velocity": 0.4094488188976378,
                    "duration": 0.9322560000000522
                },
                {
                    "name": "F4",
                    "midi": 65,
                    "time": 288.06710400000566,
                    "velocity": 0.3858267716535433,
                    "duration": 0.4661280000000261
                },
                {
                    "name": "C5",
                    "midi": 72,
                    "time": 288.5332320000057,
                    "velocity": 0.41732283464566927,
                    "duration": 0.9322560000000522
                },
                {
                    "name": "D#5",
                    "midi": 75,
                    "time": 288.5332320000057,
                    "velocity": 0.41732283464566927,
                    "duration": 0.9322560000000522
                },
                {
                    "name": "F#4",
                    "midi": 66,
                    "time": 288.5332320000057,
                    "velocity": 0.41732283464566927,
                    "duration": 0.4661280000000261
                },
                {
                    "name": "F4",
                    "midi": 65,
                    "time": 288.9993600000057,
                    "velocity": 0.3937007874015748,
                    "duration": 0.4661280000000261
                },
                {
                    "name": "A#3",
                    "midi": 58,
                    "time": 292.9614480000057,
                    "velocity": 0.29133858267716534,
                    "duration": 0.23306400000001304
                },
                {
                    "name": "D4",
                    "midi": 62,
                    "time": 293.1945120000057,
                    "velocity": 0.29133858267716534,
                    "duration": 0.23306400000001304
                },
                {
                    "name": "F4",
                    "midi": 65,
                    "time": 293.42757600000573,
                    "velocity": 0.25984251968503935,
                    "duration": 0.23306400000001304
                },
                {
                    "name": "D4",
                    "midi": 62,
                    "time": 293.66064000000574,
                    "velocity": 0.28346456692913385,
                    "duration": 0.23306400000001304
                },
                {
                    "name": "A#3",
                    "midi": 58,
                    "time": 293.89370400000576,
                    "velocity": 0.25984251968503935,
                    "duration": 0.23306400000001304
                },
                {
                    "name": "D4",
                    "midi": 62,
                    "time": 294.12676800000577,
                    "velocity": 0.3228346456692913,
                    "duration": 0.23306400000001304
                },
                {
                    "name": "G4",
                    "midi": 67,
                    "time": 294.3598320000058,
                    "velocity": 0.2992125984251969,
                    "duration": 0.23306400000001304
                },
                {
                    "name": "C4",
                    "midi": 60,
                    "time": 294.8259600000058,
                    "velocity": 0.2677165354330709,
                    "duration": 0.23306400000001304
                },
                {
                    "name": "D#4",
                    "midi": 63,
                    "time": 295.0590240000058,
                    "velocity": 0.30708661417322836,
                    "duration": 0.23306400000001304
                },
                {
                    "name": "G4",
                    "midi": 67,
                    "time": 295.29208800000583,
                    "velocity": 0.28346456692913385,
                    "duration": 0.23306400000001304
                },
                {
                    "name": "D#4",
                    "midi": 63,
                    "time": 295.52515200000585,
                    "velocity": 0.3464566929133858,
                    "duration": 0.23306400000001304
                },
                {
                    "name": "C4",
                    "midi": 60,
                    "time": 295.75821600000586,
                    "velocity": 0.29133858267716534,
                    "duration": 0.23306400000001304
                },
                {
                    "name": "D#4",
                    "midi": 63,
                    "time": 295.9912800000059,
                    "velocity": 0.2992125984251969,
                    "duration": 0.23306400000001304
                },
                {
                    "name": "G4",
                    "midi": 67,
                    "time": 296.2243440000059,
                    "velocity": 0.2677165354330709,
                    "duration": 0.23306400000001304
                },
                {
                    "name": "F3",
                    "midi": 53,
                    "time": 296.6904720000059,
                    "velocity": 0.2755905511811024,
                    "duration": 0.23306400000001304
                },
                {
                    "name": "C4",
                    "midi": 60,
                    "time": 296.9235360000059,
                    "velocity": 0.2755905511811024,
                    "duration": 0.23306400000001304
                },
                {
                    "name": "D#4",
                    "midi": 63,
                    "time": 297.15660000000594,
                    "velocity": 0.2677165354330709,
                    "duration": 0.23306400000001304
                },
                {
                    "name": "C4",
                    "midi": 60,
                    "time": 297.38966400000595,
                    "velocity": 0.3700787401574803,
                    "duration": 0.23306400000001304
                },
                {
                    "name": "F3",
                    "midi": 53,
                    "time": 297.62272800000596,
                    "velocity": 0.28346456692913385,
                    "duration": 0.23306400000001304
                },
                {
                    "name": "C4",
                    "midi": 60,
                    "time": 297.855792000006,
                    "velocity": 0.33858267716535434,
                    "duration": 0.23306400000001304
                },
                {
                    "name": "D#4",
                    "midi": 63,
                    "time": 298.088856000006,
                    "velocity": 0.28346456692913385,
                    "duration": 0.23306400000001304
                },
                {
                    "name": "A#3",
                    "midi": 58,
                    "time": 298.554984000006,
                    "velocity": 0.33070866141732286,
                    "duration": 0.23306400000001304
                },
                {
                    "name": "D4",
                    "midi": 62,
                    "time": 298.78804800000603,
                    "velocity": 0.33070866141732286,
                    "duration": 0.23306400000001304
                },
                {
                    "name": "F4",
                    "midi": 65,
                    "time": 299.02111200000604,
                    "velocity": 0.28346456692913385,
                    "duration": 0.23306400000001304
                },
                {
                    "name": "D4",
                    "midi": 62,
                    "time": 299.25417600000605,
                    "velocity": 0.3543307086614173,
                    "duration": 0.23306400000001304
                },
                {
                    "name": "A#3",
                    "midi": 58,
                    "time": 299.48724000000607,
                    "velocity": 0.33070866141732286,
                    "duration": 0.23306400000001304
                },
                {
                    "name": "D4",
                    "midi": 62,
                    "time": 299.7203040000061,
                    "velocity": 0.33070866141732286,
                    "duration": 0.23306400000001304
                },
                {
                    "name": "F4",
                    "midi": 65,
                    "time": 299.9533680000061,
                    "velocity": 0.30708661417322836,
                    "duration": 0.23306400000001304
                },
                {
                    "name": "D#4",
                    "midi": 63,
                    "time": 300.1864320000061,
                    "velocity": 0.3543307086614173,
                    "duration": 0.23306400000001304
                },
                {
                    "name": "G4",
                    "midi": 67,
                    "time": 300.4194960000061,
                    "velocity": 0.29133858267716534,
                    "duration": 0.23306400000001304
                },
                {
                    "name": "D4",
                    "midi": 62,
                    "time": 300.65256000000613,
                    "velocity": 0.31496062992125984,
                    "duration": 0.23306400000001304
                },
                {
                    "name": "F4",
                    "midi": 65,
                    "time": 300.88562400000615,
                    "velocity": 0.2755905511811024,
                    "duration": 0.23306400000001304
                },
                {
                    "name": "D#4",
                    "midi": 63,
                    "time": 301.11868800000616,
                    "velocity": 0.3543307086614173,
                    "duration": 0.23306400000001304
                },
                {
                    "name": "G4",
                    "midi": 67,
                    "time": 301.3517520000062,
                    "velocity": 0.2755905511811024,
                    "duration": 0.23306400000001304
                },
                {
                    "name": "C4",
                    "midi": 60,
                    "time": 301.5848160000062,
                    "velocity": 0.2992125984251969,
                    "duration": 0.23306400000001304
                },
                {
                    "name": "D#4",
                    "midi": 63,
                    "time": 301.8178800000062,
                    "velocity": 0.25196850393700787,
                    "duration": 0.23306400000001304
                },
                {
                    "name": "D4",
                    "midi": 62,
                    "time": 302.0509440000062,
                    "velocity": 0.33070866141732286,
                    "duration": 0.4661280000000261
                },
                {
                    "name": "F4",
                    "midi": 65,
                    "time": 302.0509440000062,
                    "velocity": 0.33070866141732286,
                    "duration": 0.4661280000000261
                },
                {
                    "name": "D#4",
                    "midi": 63,
                    "time": 303.91545600000626,
                    "velocity": 0.3700787401574803,
                    "duration": 0.23306400000001304
                },
                {
                    "name": "G4",
                    "midi": 67,
                    "time": 304.1485200000063,
                    "velocity": 0.28346456692913385,
                    "duration": 0.23306400000001304
                },
                {
                    "name": "D4",
                    "midi": 62,
                    "time": 304.3815840000063,
                    "velocity": 0.31496062992125984,
                    "duration": 0.23306400000001304
                },
                {
                    "name": "F4",
                    "midi": 65,
                    "time": 304.6146480000063,
                    "velocity": 0.25984251968503935,
                    "duration": 0.23306400000001304
                },
                {
                    "name": "D#4",
                    "midi": 63,
                    "time": 304.8477120000063,
                    "velocity": 0.3700787401574803,
                    "duration": 0.23306400000001304
                },
                {
                    "name": "G4",
                    "midi": 67,
                    "time": 305.0807760000063,
                    "velocity": 0.29133858267716534,
                    "duration": 0.23306400000001304
                },
                {
                    "name": "C4",
                    "midi": 60,
                    "time": 305.31384000000634,
                    "velocity": 0.30708661417322836,
                    "duration": 0.23306400000001304
                },
                {
                    "name": "D#4",
                    "midi": 63,
                    "time": 305.54690400000635,
                    "velocity": 0.25196850393700787,
                    "duration": 0.23306400000001304
                },
                {
                    "name": "F4",
                    "midi": 65,
                    "time": 305.77996800000636,
                    "velocity": 0.3700787401574803,
                    "duration": 0.4661280000000261
                },
                {
                    "name": "D4",
                    "midi": 62,
                    "time": 305.77996800000636,
                    "velocity": 0.3700787401574803,
                    "duration": 0.4661280000000261
                },
                {
                    "name": "A3",
                    "midi": 57,
                    "time": 307.6444800000064,
                    "velocity": 0.48031496062992124,
                    "duration": 0.4661280000000261
                },
                {
                    "name": "A#3",
                    "midi": 58,
                    "time": 308.11060800000644,
                    "velocity": 0.4330708661417323,
                    "duration": 0.4661280000000261
                },
                {
                    "name": "D#3",
                    "midi": 51,
                    "time": 308.57673600000646,
                    "velocity": 0.49606299212598426,
                    "duration": 0.4661280000000261
                },
                {
                    "name": "F3",
                    "midi": 53,
                    "time": 309.0428640000065,
                    "velocity": 0.44881889763779526,
                    "duration": 0.4661280000000261
                },
                {
                    "name": "A#2",
                    "midi": 46,
                    "time": 309.7420560000065,
                    "velocity": 0.4094488188976378,
                    "duration": 0.11653200000000652
                },
                {
                    "name": "D3",
                    "midi": 50,
                    "time": 309.97512000000654,
                    "velocity": 0.4330708661417323,
                    "duration": 0.11653200000000652
                },
                {
                    "name": "F3",
                    "midi": 53,
                    "time": 310.20818400000655,
                    "velocity": 0.3937007874015748,
                    "duration": 0.11653200000000652
                },
                {
                    "name": "A#3",
                    "midi": 58,
                    "time": 310.44124800000657,
                    "velocity": 0.48031496062992124,
                    "duration": 0.4661280000000261
                },
                {
                    "name": "A#2",
                    "midi": 46,
                    "time": 311.6065680000066,
                    "velocity": 0.2677165354330709,
                    "duration": 0.23306400000001304
                },
                {
                    "name": "D3",
                    "midi": 50,
                    "time": 311.8396320000066,
                    "velocity": 0.29133858267716534,
                    "duration": 0.23306400000001304
                },
                {
                    "name": "F3",
                    "midi": 53,
                    "time": 312.0726960000066,
                    "velocity": 0.2677165354330709,
                    "duration": 0.23306400000001304
                },
                {
                    "name": "D3",
                    "midi": 50,
                    "time": 312.3057600000066,
                    "velocity": 0.33858267716535434,
                    "duration": 0.23306400000001304
                },
                {
                    "name": "A#2",
                    "midi": 46,
                    "time": 312.5388240000066,
                    "velocity": 0.2755905511811024,
                    "duration": 0.23306400000001304
                },
                {
                    "name": "D3",
                    "midi": 50,
                    "time": 312.77188800000664,
                    "velocity": 0.30708661417322836,
                    "duration": 0.23306400000001304
                },
                {
                    "name": "F3",
                    "midi": 53,
                    "time": 313.00495200000665,
                    "velocity": 0.30708661417322836,
                    "duration": 0.23306400000001304
                },
                {
                    "name": "A#2",
                    "midi": 46,
                    "time": 313.4710800000067,
                    "velocity": 0.29133858267716534,
                    "duration": 0.23306400000001304
                },
                {
                    "name": "D3",
                    "midi": 50,
                    "time": 313.7041440000067,
                    "velocity": 0.3228346456692913,
                    "duration": 0.23306400000001304
                },
                {
                    "name": "F3",
                    "midi": 53,
                    "time": 313.9372080000067,
                    "velocity": 0.29133858267716534,
                    "duration": 0.23306400000001304
                },
                {
                    "name": "D3",
                    "midi": 50,
                    "time": 314.1702720000067,
                    "velocity": 0.33858267716535434,
                    "duration": 0.23306400000001304
                },
                {
                    "name": "A#2",
                    "midi": 46,
                    "time": 314.40333600000673,
                    "velocity": 0.2992125984251969,
                    "duration": 0.23306400000001304
                },
                {
                    "name": "D3",
                    "midi": 50,
                    "time": 314.63640000000674,
                    "velocity": 0.2992125984251969,
                    "duration": 0.23306400000001304
                },
                {
                    "name": "F3",
                    "midi": 53,
                    "time": 314.86946400000676,
                    "velocity": 0.2677165354330709,
                    "duration": 0.23306400000001304
                },
                {
                    "name": "A#2",
                    "midi": 46,
                    "time": 315.3355920000068,
                    "velocity": 0.3700787401574803,
                    "duration": 0.23306400000001304
                },
                {
                    "name": "D3",
                    "midi": 50,
                    "time": 315.5686560000068,
                    "velocity": 0.3700787401574803,
                    "duration": 0.23306400000001304
                },
                {
                    "name": "F3",
                    "midi": 53,
                    "time": 315.8017200000068,
                    "velocity": 0.3543307086614173,
                    "duration": 0.23306400000001304
                },
                {
                    "name": "G#3",
                    "midi": 56,
                    "time": 316.0347840000068,
                    "velocity": 0.41732283464566927,
                    "duration": 0.23306400000001304
                },
                {
                    "name": "F3",
                    "midi": 53,
                    "time": 316.26784800000684,
                    "velocity": 0.3543307086614173,
                    "duration": 0.23306400000001304
                },
                {
                    "name": "D3",
                    "midi": 50,
                    "time": 316.50091200000685,
                    "velocity": 0.3779527559055118,
                    "duration": 0.23306400000001304
                },
                {
                    "name": "A#2",
                    "midi": 46,
                    "time": 316.73397600000686,
                    "velocity": 0.3543307086614173,
                    "duration": 0.23306400000001304
                },
                {
                    "name": "B2",
                    "midi": 47,
                    "time": 317.2001040000069,
                    "velocity": 0.28346456692913385,
                    "duration": 0.23306400000001304
                },
                {
                    "name": "D3",
                    "midi": 50,
                    "time": 317.4331680000069,
                    "velocity": 0.28346456692913385,
                    "duration": 0.23306400000001304
                },
                {
                    "name": "F3",
                    "midi": 53,
                    "time": 317.6662320000069,
                    "velocity": 0.28346456692913385,
                    "duration": 0.23306400000001304
                },
                {
                    "name": "G3",
                    "midi": 55,
                    "time": 317.8992960000069,
                    "velocity": 0.3228346456692913,
                    "duration": 0.23306400000001304
                },
                {
                    "name": "F3",
                    "midi": 53,
                    "time": 318.13236000000694,
                    "velocity": 0.25984251968503935,
                    "duration": 0.23306400000001304
                },
                {
                    "name": "D3",
                    "midi": 50,
                    "time": 318.36542400000695,
                    "velocity": 0.2677165354330709,
                    "duration": 0.23306400000001304
                },
                {
                    "name": "B2",
                    "midi": 47,
                    "time": 318.59848800000697,
                    "velocity": 0.25196850393700787,
                    "duration": 0.23306400000001304
                },
                {
                    "name": "A#3",
                    "midi": 58,
                    "time": 319.064616000007,
                    "velocity": 0.25984251968503935,
                    "duration": 0.23306400000001304
                },
                {
                    "name": "C#4",
                    "midi": 61,
                    "time": 319.297680000007,
                    "velocity": 0.28346456692913385,
                    "duration": 0.23306400000001304
                },
                {
                    "name": "E4",
                    "midi": 64,
                    "time": 319.530744000007,
                    "velocity": 0.25196850393700787,
                    "duration": 0.23306400000001304
                },
                {
                    "name": "G4",
                    "midi": 67,
                    "time": 319.76380800000703,
                    "velocity": 0.31496062992125984,
                    "duration": 0.4661280000000261
                },
                {
                    "name": "A3",
                    "midi": 57,
                    "time": 320.92912800000704,
                    "velocity": 0.2677165354330709,
                    "duration": 0.23306400000001304
                },
                {
                    "name": "C4",
                    "midi": 60,
                    "time": 321.16219200000705,
                    "velocity": 0.2677165354330709,
                    "duration": 0.23306400000001304
                },
                {
                    "name": "F4",
                    "midi": 65,
                    "time": 321.39525600000707,
                    "velocity": 0.25196850393700787,
                    "duration": 0.23306400000001304
                },
                {
                    "name": "A4",
                    "midi": 69,
                    "time": 321.6283200000071,
                    "velocity": 0.30708661417322836,
                    "duration": 0.4661280000000261
                },
                {
                    "name": "A#3",
                    "midi": 58,
                    "time": 322.7936400000071,
                    "velocity": 0.25196850393700787,
                    "duration": 0.23306400000001304
                },
                {
                    "name": "D4",
                    "midi": 62,
                    "time": 323.0267040000071,
                    "velocity": 0.2677165354330709,
                    "duration": 0.23306400000001304
                },
                {
                    "name": "F4",
                    "midi": 65,
                    "time": 323.2597680000071,
                    "velocity": 0.23622047244094488,
                    "duration": 0.23306400000001304
                },
                {
                    "name": "A#4",
                    "midi": 70,
                    "time": 323.4928320000071,
                    "velocity": 0.2992125984251969,
                    "duration": 0.4661280000000261
                },
                {
                    "name": "D#4",
                    "midi": 63,
                    "time": 324.4250880000072,
                    "velocity": 0.33070866141732286,
                    "duration": 0.23306400000001304
                },
                {
                    "name": "G4",
                    "midi": 67,
                    "time": 324.6581520000072,
                    "velocity": 0.2992125984251969,
                    "duration": 0.23306400000001304
                },
                {
                    "name": "D#4",
                    "midi": 63,
                    "time": 324.8912160000072,
                    "velocity": 0.33070866141732286,
                    "duration": 0.23306400000001304
                },
                {
                    "name": "F4",
                    "midi": 65,
                    "time": 325.1242800000072,
                    "velocity": 0.2992125984251969,
                    "duration": 0.23306400000001304
                },
                {
                    "name": "D4",
                    "midi": 62,
                    "time": 325.35734400000723,
                    "velocity": 0.3228346456692913,
                    "duration": 0.23306400000001304
                },
                {
                    "name": "F4",
                    "midi": 65,
                    "time": 325.59040800000724,
                    "velocity": 0.2992125984251969,
                    "duration": 0.23306400000001304
                },
                {
                    "name": "D4",
                    "midi": 62,
                    "time": 325.82347200000726,
                    "velocity": 0.3228346456692913,
                    "duration": 0.23306400000001304
                },
                {
                    "name": "F4",
                    "midi": 65,
                    "time": 326.05653600000727,
                    "velocity": 0.2992125984251969,
                    "duration": 0.23306400000001304
                },
                {
                    "name": "D#4",
                    "midi": 63,
                    "time": 326.2896000000073,
                    "velocity": 0.3228346456692913,
                    "duration": 0.23306400000001304
                },
                {
                    "name": "F4",
                    "midi": 65,
                    "time": 326.5226640000073,
                    "velocity": 0.2992125984251969,
                    "duration": 0.23306400000001304
                },
                {
                    "name": "D#4",
                    "midi": 63,
                    "time": 326.7557280000073,
                    "velocity": 0.3228346456692913,
                    "duration": 0.23306400000001304
                },
                {
                    "name": "F4",
                    "midi": 65,
                    "time": 326.9887920000073,
                    "velocity": 0.2992125984251969,
                    "duration": 0.23306400000001304
                },
                {
                    "name": "D4",
                    "midi": 62,
                    "time": 327.22185600000734,
                    "velocity": 0.3228346456692913,
                    "duration": 0.23306400000001304
                },
                {
                    "name": "F4",
                    "midi": 65,
                    "time": 327.45492000000735,
                    "velocity": 0.2992125984251969,
                    "duration": 0.23306400000001304
                },
                {
                    "name": "D4",
                    "midi": 62,
                    "time": 327.68798400000736,
                    "velocity": 0.3228346456692913,
                    "duration": 0.23306400000001304
                },
                {
                    "name": "F4",
                    "midi": 65,
                    "time": 327.9210480000074,
                    "velocity": 0.2992125984251969,
                    "duration": 0.23306400000001304
                },
                {
                    "name": "D#4",
                    "midi": 63,
                    "time": 328.1541120000074,
                    "velocity": 0.3228346456692913,
                    "duration": 0.23306400000001304
                },
                {
                    "name": "G4",
                    "midi": 67,
                    "time": 328.3871760000074,
                    "velocity": 0.2992125984251969,
                    "duration": 0.23306400000001304
                },
                {
                    "name": "D#4",
                    "midi": 63,
                    "time": 328.6202400000074,
                    "velocity": 0.3228346456692913,
                    "duration": 0.23306400000001304
                },
                {
                    "name": "G4",
                    "midi": 67,
                    "time": 328.8533040000074,
                    "velocity": 0.2992125984251969,
                    "duration": 0.23306400000001304
                },
                {
                    "name": "E4",
                    "midi": 64,
                    "time": 329.08636800000744,
                    "velocity": 0.3228346456692913,
                    "duration": 0.23306400000001304
                },
                {
                    "name": "G4",
                    "midi": 67,
                    "time": 329.31943200000745,
                    "velocity": 0.2992125984251969,
                    "duration": 0.23306400000001304
                },
                {
                    "name": "E4",
                    "midi": 64,
                    "time": 329.55249600000747,
                    "velocity": 0.3228346456692913,
                    "duration": 0.23306400000001304
                },
                {
                    "name": "G4",
                    "midi": 67,
                    "time": 329.7855600000075,
                    "velocity": 0.2992125984251969,
                    "duration": 0.23306400000001304
                },
                {
                    "name": "F3",
                    "midi": 53,
                    "time": 330.0186240000075,
                    "velocity": 0.3228346456692913,
                    "duration": 0.4661280000000261
                },
                {
                    "name": "G3",
                    "midi": 55,
                    "time": 330.4847520000075,
                    "velocity": 0.3700787401574803,
                    "duration": 0.4661280000000261
                },
                {
                    "name": "A3",
                    "midi": 57,
                    "time": 330.95088000000754,
                    "velocity": 0.4094488188976378,
                    "duration": 0.4661280000000261
                },
                {
                    "name": "A#3",
                    "midi": 58,
                    "time": 331.41700800000757,
                    "velocity": 0.4566929133858268,
                    "duration": 0.4661280000000261
                },
                {
                    "name": "C4",
                    "midi": 60,
                    "time": 331.8831360000076,
                    "velocity": 0.5039370078740157,
                    "duration": 0.23306400000001304
                },
                {
                    "name": "F4",
                    "midi": 65,
                    "time": 332.1162000000076,
                    "velocity": 0.3543307086614173,
                    "duration": 0.23306400000001304
                },
                {
                    "name": "A3",
                    "midi": 57,
                    "time": 332.3492640000076,
                    "velocity": 0.4015748031496063,
                    "duration": 0.23306400000001304
                },
                {
                    "name": "F4",
                    "midi": 65,
                    "time": 332.58232800000764,
                    "velocity": 0.36220472440944884,
                    "duration": 0.23306400000001304
                },
                {
                    "name": "A#3",
                    "midi": 58,
                    "time": 332.81539200000765,
                    "velocity": 0.4094488188976378,
                    "duration": 0.23306400000001304
                },
                {
                    "name": "F4",
                    "midi": 65,
                    "time": 333.04845600000766,
                    "velocity": 0.36220472440944884,
                    "duration": 0.23306400000001304
                },
                {
                    "name": "G3",
                    "midi": 55,
                    "time": 333.2815200000077,
                    "velocity": 0.4094488188976378,
                    "duration": 0.23306400000001304
                },
                {
                    "name": "F4",
                    "midi": 65,
                    "time": 333.5145840000077,
                    "velocity": 0.36220472440944884,
                    "duration": 0.23306400000001304
                },
                {
                    "name": "F3",
                    "midi": 53,
                    "time": 333.7476480000077,
                    "velocity": 0.31496062992125984,
                    "duration": 0.4661280000000261
                },
                {
                    "name": "G3",
                    "midi": 55,
                    "time": 334.2137760000077,
                    "velocity": 0.36220472440944884,
                    "duration": 0.4661280000000261
                },
                {
                    "name": "A3",
                    "midi": 57,
                    "time": 334.67990400000775,
                    "velocity": 0.4015748031496063,
                    "duration": 0.4661280000000261
                },
                {
                    "name": "A#3",
                    "midi": 58,
                    "time": 335.1460320000078,
                    "velocity": 0.4566929133858268,
                    "duration": 0.4661280000000261
                },
                {
                    "name": "C4",
                    "midi": 60,
                    "time": 335.6121600000078,
                    "velocity": 0.5039370078740157,
                    "duration": 0.11653200000000652
                },
                {
                    "name": "F4",
                    "midi": 65,
                    "time": 335.7286920000078,
                    "velocity": 0.3543307086614173,
                    "duration": 0.11653200000000652
                },
                {
                    "name": "E4",
                    "midi": 64,
                    "time": 335.8452240000078,
                    "velocity": 0.3858267716535433,
                    "duration": 0.11653200000000652
                },
                {
                    "name": "F4",
                    "midi": 65,
                    "time": 335.9617560000078,
                    "velocity": 0.3543307086614173,
                    "duration": 0.11653200000000652
                },
                {
                    "name": "A3",
                    "midi": 57,
                    "time": 336.07828800000783,
                    "velocity": 0.4409448818897638,
                    "duration": 0.11653200000000652
                },
                {
                    "name": "F4",
                    "midi": 65,
                    "time": 336.19482000000784,
                    "velocity": 0.36220472440944884,
                    "duration": 0.11653200000000652
                },
                {
                    "name": "E4",
                    "midi": 64,
                    "time": 336.31135200000784,
                    "velocity": 0.3858267716535433,
                    "duration": 0.11653200000000652
                },
                {
                    "name": "F4",
                    "midi": 65,
                    "time": 336.42788400000785,
                    "velocity": 0.36220472440944884,
                    "duration": 0.11653200000000652
                },
                {
                    "name": "A#3",
                    "midi": 58,
                    "time": 336.54441600000786,
                    "velocity": 0.4409448818897638,
                    "duration": 0.11653200000000652
                },
                {
                    "name": "F4",
                    "midi": 65,
                    "time": 336.66094800000786,
                    "velocity": 0.36220472440944884,
                    "duration": 0.11653200000000652
                },
                {
                    "name": "E4",
                    "midi": 64,
                    "time": 336.77748000000787,
                    "velocity": 0.3858267716535433,
                    "duration": 0.11653200000000652
                },
                {
                    "name": "F4",
                    "midi": 65,
                    "time": 336.8940120000079,
                    "velocity": 0.3700787401574803,
                    "duration": 0.11653200000000652
                },
                {
                    "name": "G3",
                    "midi": 55,
                    "time": 337.0105440000079,
                    "velocity": 0.44881889763779526,
                    "duration": 0.11653200000000652
                },
                {
                    "name": "E4",
                    "midi": 64,
                    "time": 337.1270760000079,
                    "velocity": 0.3543307086614173,
                    "duration": 0.11653200000000652
                },
                {
                    "name": "D4",
                    "midi": 62,
                    "time": 337.2436080000079,
                    "velocity": 0.3858267716535433,
                    "duration": 0.11653200000000652
                },
                {
                    "name": "E4",
                    "midi": 64,
                    "time": 337.3601400000079,
                    "velocity": 0.36220472440944884,
                    "duration": 0.11653200000000652
                },
                {
                    "name": "F3",
                    "midi": 53,
                    "time": 337.4766720000079,
                    "velocity": 0.4645669291338583,
                    "duration": 0.46127250000000686
                },
                {
                    "name": "F4",
                    "midi": 65,
                    "time": 337.4766720000079,
                    "velocity": 0.4645669291338583,
                    "duration": 0.46127250000000686
                },
                {
                    "name": "F1",
                    "midi": 29,
                    "time": 338.4089280000079,
                    "velocity": 0.5905511811023622,
                    "duration": 0.23306400000001304
                },
                {
                    "name": "F2",
                    "midi": 41,
                    "time": 338.4089280000079,
                    "velocity": 0.5905511811023622,
                    "duration": 0.23306400000001304
                },
                {
                    "name": "A#1",
                    "midi": 34,
                    "time": 339.3411840000079,
                    "velocity": 0.4566929133858268,
                    "duration": 0.9322559999999953
                },
                {
                    "name": "A#2",
                    "midi": 46,
                    "time": 339.3411840000079,
                    "velocity": 0.4566929133858268,
                    "duration": 0.9322559999999953
                },
                {
                    "name": "D#2",
                    "midi": 39,
                    "time": 341.6718240000079,
                    "velocity": 0.44881889763779526,
                    "duration": 0.9322559999999953
                },
                {
                    "name": "D#3",
                    "midi": 51,
                    "time": 341.6718240000079,
                    "velocity": 0.44881889763779526,
                    "duration": 0.9322559999999953
                },
                {
                    "name": "D3",
                    "midi": 50,
                    "time": 342.6040800000079,
                    "velocity": 0.3464566929133858,
                    "duration": 0.4661280000000261
                },
                {
                    "name": "E3",
                    "midi": 52,
                    "time": 343.07020800000794,
                    "velocity": 0.2992125984251969,
                    "duration": 0.4661280000000261
                },
                {
                    "name": "G3",
                    "midi": 55,
                    "time": 343.07020800000794,
                    "velocity": 0.2992125984251969,
                    "duration": 0.4661280000000261
                },
                {
                    "name": "F3",
                    "midi": 53,
                    "time": 343.53633600000796,
                    "velocity": 0.2992125984251969,
                    "duration": 0.4661280000000261
                },
                {
                    "name": "G3",
                    "midi": 55,
                    "time": 344.002464000008,
                    "velocity": 0.2992125984251969,
                    "duration": 0.4661280000000261
                },
                {
                    "name": "E3",
                    "midi": 52,
                    "time": 344.002464000008,
                    "velocity": 0.2992125984251969,
                    "duration": 0.4661280000000261
                },
                {
                    "name": "F3",
                    "midi": 53,
                    "time": 344.468592000008,
                    "velocity": 0.31496062992125984,
                    "duration": 0.4661280000000261
                },
                {
                    "name": "G3",
                    "midi": 55,
                    "time": 344.93472000000804,
                    "velocity": 0.30708661417322836,
                    "duration": 0.4661280000000261
                },
                {
                    "name": "A3",
                    "midi": 57,
                    "time": 345.40084800000807,
                    "velocity": 0.2755905511811024,
                    "duration": 0.4661280000000261
                },
                {
                    "name": "A#3",
                    "midi": 58,
                    "time": 345.8669760000081,
                    "velocity": 0.2755905511811024,
                    "duration": 0.4661280000000261
                },
                {
                    "name": "D#2",
                    "midi": 39,
                    "time": 347.0322960000081,
                    "velocity": 0.36220472440944884,
                    "duration": 0.23306400000001304
                },
                {
                    "name": "G2",
                    "midi": 43,
                    "time": 347.2653600000081,
                    "velocity": 0.36220472440944884,
                    "duration": 0.23306400000001304
                },
                {
                    "name": "C3",
                    "midi": 48,
                    "time": 347.49842400000813,
                    "velocity": 0.3543307086614173,
                    "duration": 0.23306400000001304
                },
                {
                    "name": "D#3",
                    "midi": 51,
                    "time": 347.73148800000814,
                    "velocity": 0.4094488188976378,
                    "duration": 0.4661280000000261
                },
                {
                    "name": "D2",
                    "midi": 38,
                    "time": 348.89680800000815,
                    "velocity": 0.3464566929133858,
                    "duration": 0.23306400000001304
                },
                {
                    "name": "F2",
                    "midi": 41,
                    "time": 349.12987200000816,
                    "velocity": 0.3464566929133858,
                    "duration": 0.23306400000001304
                },
                {
                    "name": "A#2",
                    "midi": 46,
                    "time": 349.3629360000082,
                    "velocity": 0.33858267716535434,
                    "duration": 0.23306400000001304
                },
                {
                    "name": "D3",
                    "midi": 50,
                    "time": 349.5960000000082,
                    "velocity": 0.4094488188976378,
                    "duration": 0.4661280000000261
                },
                {
                    "name": "C3",
                    "midi": 48,
                    "time": 350.52825600000824,
                    "velocity": 0.3464566929133858,
                    "duration": 0.4661280000000261
                },
                {
                    "name": "A2",
                    "midi": 45,
                    "time": 350.99438400000827,
                    "velocity": 0.3228346456692913,
                    "duration": 0.4661280000000261
                },
                {
                    "name": "A#2",
                    "midi": 46,
                    "time": 351.4605120000083,
                    "velocity": 0.33858267716535434,
                    "duration": 0.4661280000000261
                },
                {
                    "name": "G2",
                    "midi": 43,
                    "time": 351.9266400000083,
                    "velocity": 0.33070866141732286,
                    "duration": 0.4661280000000261
                },
                {
                    "name": "F2",
                    "midi": 41,
                    "time": 352.39276800000835,
                    "velocity": 0.3464566929133858,
                    "duration": 0.4661280000000261
                },
                {
                    "name": "F3",
                    "midi": 53,
                    "time": 353.3250240000084,
                    "velocity": 0.41732283464566927,
                    "duration": 0.11653200000000652
                },
                {
                    "name": "G3",
                    "midi": 55,
                    "time": 353.4415560000084,
                    "velocity": 0.3858267716535433,
                    "duration": 0.11653200000000652
                },
                {
                    "name": "D#3",
                    "midi": 51,
                    "time": 353.5580880000084,
                    "velocity": 0.4251968503937008,
                    "duration": 0.11653200000000652
                },
                {
                    "name": "F3",
                    "midi": 53,
                    "time": 353.6746200000084,
                    "velocity": 0.3858267716535433,
                    "duration": 0.11653200000000652
                },
                {
                    "name": "D3",
                    "midi": 50,
                    "time": 353.7911520000084,
                    "velocity": 0.4251968503937008,
                    "duration": 0.11653200000000652
                },
                {
                    "name": "D#3",
                    "midi": 51,
                    "time": 353.90768400000843,
                    "velocity": 0.3858267716535433,
                    "duration": 0.11653200000000652
                },
                {
                    "name": "C3",
                    "midi": 48,
                    "time": 354.02421600000844,
                    "velocity": 0.4409448818897638,
                    "duration": 0.11653200000000652
                },
                {
                    "name": "D3",
                    "midi": 50,
                    "time": 354.14074800000844,
                    "velocity": 0.3858267716535433,
                    "duration": 0.11653200000000652
                },
                {
                    "name": "A#2",
                    "midi": 46,
                    "time": 354.25728000000845,
                    "velocity": 0.5433070866141733,
                    "duration": 0.4661280000000261
                },
                {
                    "name": "A#3",
                    "midi": 58,
                    "time": 354.7234080000085,
                    "velocity": 0.4566929133858268,
                    "duration": 0.4661280000000261
                },
                {
                    "name": "D#3",
                    "midi": 51,
                    "time": 356.5879200000085,
                    "velocity": 0.4645669291338583,
                    "duration": 0.9322559999999953
                },
                {
                    "name": "D#4",
                    "midi": 63,
                    "time": 356.5879200000085,
                    "velocity": 0.4645669291338583,
                    "duration": 0.9322559999999953
                },
                {
                    "name": "D4",
                    "midi": 62,
                    "time": 357.5201760000085,
                    "velocity": 0.33858267716535434,
                    "duration": 0.4661280000000261
                },
                {
                    "name": "E4",
                    "midi": 64,
                    "time": 357.98630400000854,
                    "velocity": 0.33858267716535434,
                    "duration": 0.4661280000000261
                },
                {
                    "name": "G4",
                    "midi": 67,
                    "time": 357.98630400000854,
                    "velocity": 0.33858267716535434,
                    "duration": 0.4661280000000261
                },
                {
                    "name": "F4",
                    "midi": 65,
                    "time": 358.45243200000857,
                    "velocity": 0.33858267716535434,
                    "duration": 0.4661280000000261
                },
                {
                    "name": "E4",
                    "midi": 64,
                    "time": 358.9185600000086,
                    "velocity": 0.33858267716535434,
                    "duration": 0.4661280000000261
                },
                {
                    "name": "G4",
                    "midi": 67,
                    "time": 358.9185600000086,
                    "velocity": 0.33858267716535434,
                    "duration": 0.4661280000000261
                },
                {
                    "name": "F4",
                    "midi": 65,
                    "time": 359.3846880000086,
                    "velocity": 0.3228346456692913,
                    "duration": 0.4661280000000261
                },
                {
                    "name": "G4",
                    "midi": 67,
                    "time": 359.85081600000865,
                    "velocity": 0.33858267716535434,
                    "duration": 0.4661280000000261
                },
                {
                    "name": "A#4",
                    "midi": 70,
                    "time": 359.85081600000865,
                    "velocity": 0.33858267716535434,
                    "duration": 0.4661280000000261
                },
                {
                    "name": "A4",
                    "midi": 69,
                    "time": 360.3169440000087,
                    "velocity": 0.33858267716535434,
                    "duration": 0.4661280000000261
                },
                {
                    "name": "C5",
                    "midi": 72,
                    "time": 360.3169440000087,
                    "velocity": 0.33858267716535434,
                    "duration": 0.4661280000000261
                },
                {
                    "name": "A#4",
                    "midi": 70,
                    "time": 360.7830720000087,
                    "velocity": 0.36220472440944884,
                    "duration": 0.4661280000000261
                },
                {
                    "name": "G3",
                    "midi": 55,
                    "time": 361.9483920000087,
                    "velocity": 0.4251968503937008,
                    "duration": 0.23306400000001304
                },
                {
                    "name": "G4",
                    "midi": 67,
                    "time": 362.1814560000087,
                    "velocity": 0.48031496062992124,
                    "duration": 0.11653200000000652
                },
                {
                    "name": "F4",
                    "midi": 65,
                    "time": 362.41452000000874,
                    "velocity": 0.41732283464566927,
                    "duration": 0.11653200000000652
                },
                {
                    "name": "D#4",
                    "midi": 63,
                    "time": 362.64758400000875,
                    "velocity": 0.47244094488188976,
                    "duration": 0.11653200000000652
                },
                {
                    "name": "D#3",
                    "midi": 51,
                    "time": 362.88064800000876,
                    "velocity": 0.41732283464566927,
                    "duration": 0.23306400000001304
                },
                {
                    "name": "D#4",
                    "midi": 63,
                    "time": 363.1137120000088,
                    "velocity": 0.48031496062992124,
                    "duration": 0.11653200000000652
                },
                {
                    "name": "D4",
                    "midi": 62,
                    "time": 363.3467760000088,
                    "velocity": 0.41732283464566927,
                    "duration": 0.11653200000000652
                },
                {
                    "name": "C4",
                    "midi": 60,
                    "time": 363.5798400000088,
                    "velocity": 0.44881889763779526,
                    "duration": 0.23306400000001304
                },
                {
                    "name": "A#3",
                    "midi": 58,
                    "time": 363.8129040000088,
                    "velocity": 0.41732283464566927,
                    "duration": 0.23306400000001304
                },
                {
                    "name": "A3",
                    "midi": 57,
                    "time": 364.0459680000088,
                    "velocity": 0.41732283464566927,
                    "duration": 0.23306400000001304
                },
                {
                    "name": "F3",
                    "midi": 53,
                    "time": 364.27903200000884,
                    "velocity": 0.41732283464566927,
                    "duration": 0.23306400000001304
                },
                {
                    "name": "A#3",
                    "midi": 58,
                    "time": 364.51209600000885,
                    "velocity": 0.47244094488188976,
                    "duration": 0.4661280000000261
                },
                {
                    "name": "D3",
                    "midi": 50,
                    "time": 364.9782240000089,
                    "velocity": 0.4251968503937008,
                    "duration": 0.4661280000000261
                },
                {
                    "name": "D#3",
                    "midi": 51,
                    "time": 365.4443520000089,
                    "velocity": 0.4645669291338583,
                    "duration": 0.4661280000000261
                },
                {
                    "name": "D#4",
                    "midi": 63,
                    "time": 365.91048000000893,
                    "velocity": 0.41732283464566927,
                    "duration": 0.4661280000000261
                },
                {
                    "name": "F4",
                    "midi": 65,
                    "time": 366.37660800000896,
                    "velocity": 0.4251968503937008,
                    "duration": 0.4661280000000261
                },
                {
                    "name": "F3",
                    "midi": 53,
                    "time": 366.842736000009,
                    "velocity": 0.41732283464566927,
                    "duration": 0.4661280000000261
                },
                {
                    "name": "A#3",
                    "midi": 58,
                    "time": 367.308864000009,
                    "velocity": 0.41732283464566927,
                    "duration": 0.11653200000000652
                },
                {
                    "name": "F4",
                    "midi": 65,
                    "time": 367.425396000009,
                    "velocity": 0.36220472440944884,
                    "duration": 0.11653200000000652
                },
                {
                    "name": "E4",
                    "midi": 64,
                    "time": 367.541928000009,
                    "velocity": 0.3858267716535433,
                    "duration": 0.11653200000000652
                },
                {
                    "name": "F4",
                    "midi": 65,
                    "time": 367.65846000000903,
                    "velocity": 0.36220472440944884,
                    "duration": 0.11653200000000652
                },
                {
                    "name": "G4",
                    "midi": 67,
                    "time": 367.77499200000904,
                    "velocity": 0.41732283464566927,
                    "duration": 0.11653200000000652
                },
                {
                    "name": "F4",
                    "midi": 65,
                    "time": 367.89152400000904,
                    "velocity": 0.3700787401574803,
                    "duration": 0.11653200000000652
                },
                {
                    "name": "E4",
                    "midi": 64,
                    "time": 368.00805600000905,
                    "velocity": 0.3858267716535433,
                    "duration": 0.11653200000000652
                },
                {
                    "name": "F4",
                    "midi": 65,
                    "time": 368.12458800000906,
                    "velocity": 0.36220472440944884,
                    "duration": 0.11653200000000652
                },
                {
                    "name": "D#4",
                    "midi": 63,
                    "time": 368.24112000000906,
                    "velocity": 0.41732283464566927,
                    "duration": 0.11653200000000652
                },
                {
                    "name": "F4",
                    "midi": 65,
                    "time": 368.35765200000907,
                    "velocity": 0.4015748031496063,
                    "duration": 0.11653200000000652
                },
                {
                    "name": "D4",
                    "midi": 62,
                    "time": 368.4741840000091,
                    "velocity": 0.41732283464566927,
                    "duration": 0.11653200000000652
                },
                {
                    "name": "F4",
                    "midi": 65,
                    "time": 368.5907160000091,
                    "velocity": 0.3858267716535433,
                    "duration": 0.11653200000000652
                },
                {
                    "name": "C4",
                    "midi": 60,
                    "time": 368.7072480000091,
                    "velocity": 0.41732283464566927,
                    "duration": 0.11653200000000652
                },
                {
                    "name": "F4",
                    "midi": 65,
                    "time": 368.8237800000091,
                    "velocity": 0.3937007874015748,
                    "duration": 0.11653200000000652
                },
                {
                    "name": "A#3",
                    "midi": 58,
                    "time": 368.9403120000091,
                    "velocity": 0.41732283464566927,
                    "duration": 0.11653200000000652
                },
                {
                    "name": "F4",
                    "midi": 65,
                    "time": 369.0568440000091,
                    "velocity": 0.3937007874015748,
                    "duration": 0.11653200000000652
                },
                {
                    "name": "A3",
                    "midi": 57,
                    "time": 369.1733760000091,
                    "velocity": 0.3779527559055118,
                    "duration": 0.11653200000000652
                },
                {
                    "name": "F4",
                    "midi": 65,
                    "time": 369.2899080000091,
                    "velocity": 0.31496062992125984,
                    "duration": 0.11653200000000652
                },
                {
                    "name": "C4",
                    "midi": 60,
                    "time": 369.4064400000091,
                    "velocity": 0.33070866141732286,
                    "duration": 0.11653200000000652
                },
                {
                    "name": "F4",
                    "midi": 65,
                    "time": 369.52297200000913,
                    "velocity": 0.2992125984251969,
                    "duration": 0.11653200000000652
                },
                {
                    "name": "D#4",
                    "midi": 63,
                    "time": 369.63950400000914,
                    "velocity": 0.3779527559055118,
                    "duration": 0.11653200000000652
                },
                {
                    "name": "F4",
                    "midi": 65,
                    "time": 369.75603600000915,
                    "velocity": 0.31496062992125984,
                    "duration": 0.11653200000000652
                },
                {
                    "name": "D#4",
                    "midi": 63,
                    "time": 369.87256800000915,
                    "velocity": 0.33070866141732286,
                    "duration": 0.11653200000000652
                },
                {
                    "name": "F4",
                    "midi": 65,
                    "time": 369.98910000000916,
                    "velocity": 0.30708661417322836,
                    "duration": 0.11653200000000652
                },
                {
                    "name": "A3",
                    "midi": 57,
                    "time": 370.10563200000917,
                    "velocity": 0.3700787401574803,
                    "duration": 0.11653200000000652
                },
                {
                    "name": "F4",
                    "midi": 65,
                    "time": 370.2221640000092,
                    "velocity": 0.31496062992125984,
                    "duration": 0.11653200000000652
                },
                {
                    "name": "C4",
                    "midi": 60,
                    "time": 370.3386960000092,
                    "velocity": 0.33858267716535434,
                    "duration": 0.11653200000000652
                },
                {
                    "name": "F4",
                    "midi": 65,
                    "time": 370.4552280000092,
                    "velocity": 0.31496062992125984,
                    "duration": 0.11653200000000652
                },
                {
                    "name": "D#4",
                    "midi": 63,
                    "time": 370.5717600000092,
                    "velocity": 0.3779527559055118,
                    "duration": 0.11653200000000652
                },
                {
                    "name": "F4",
                    "midi": 65,
                    "time": 370.6882920000092,
                    "velocity": 0.33070866141732286,
                    "duration": 0.11653200000000652
                },
                {
                    "name": "D#4",
                    "midi": 63,
                    "time": 370.8048240000092,
                    "velocity": 0.33070866141732286,
                    "duration": 0.11653200000000652
                },
                {
                    "name": "F4",
                    "midi": 65,
                    "time": 370.9213560000092,
                    "velocity": 0.33070866141732286,
                    "duration": 0.11653200000000652
                },
                {
                    "name": "D4",
                    "midi": 62,
                    "time": 371.0378880000092,
                    "velocity": 0.3464566929133858,
                    "duration": 0.11653200000000652
                },
                {
                    "name": "F4",
                    "midi": 65,
                    "time": 371.1544200000092,
                    "velocity": 0.3543307086614173,
                    "duration": 0.11653200000000652
                },
                {
                    "name": "A3",
                    "midi": 57,
                    "time": 371.27095200000923,
                    "velocity": 0.3543307086614173,
                    "duration": 0.11653200000000652
                },
                {
                    "name": "F4",
                    "midi": 65,
                    "time": 371.38748400000924,
                    "velocity": 0.3543307086614173,
                    "duration": 0.11653200000000652
                },
                {
                    "name": "A#3",
                    "midi": 58,
                    "time": 371.50401600000924,
                    "velocity": 0.36220472440944884,
                    "duration": 0.11653200000000652
                },
                {
                    "name": "F4",
                    "midi": 65,
                    "time": 371.62054800000925,
                    "velocity": 0.3700787401574803,
                    "duration": 0.11653200000000652
                },
                {
                    "name": "C4",
                    "midi": 60,
                    "time": 371.73708000000926,
                    "velocity": 0.3779527559055118,
                    "duration": 0.11653200000000652
                },
                {
                    "name": "F4",
                    "midi": 65,
                    "time": 371.85361200000926,
                    "velocity": 0.3858267716535433,
                    "duration": 0.11653200000000652
                },
                {
                    "name": "C#4",
                    "midi": 61,
                    "time": 371.97014400000927,
                    "velocity": 0.41732283464566927,
                    "duration": 0.11653200000000652
                },
                {
                    "name": "F4",
                    "midi": 65,
                    "time": 372.0866760000093,
                    "velocity": 0.3779527559055118,
                    "duration": 0.11653200000000652
                },
                {
                    "name": "D4",
                    "midi": 62,
                    "time": 372.2032080000093,
                    "velocity": 0.41732283464566927,
                    "duration": 0.11653200000000652
                },
                {
                    "name": "F4",
                    "midi": 65,
                    "time": 372.3197400000093,
                    "velocity": 0.36220472440944884,
                    "duration": 0.11653200000000652
                },
                {
                    "name": "C#4",
                    "midi": 61,
                    "time": 372.4362720000093,
                    "velocity": 0.41732283464566927,
                    "duration": 0.11653200000000652
                },
                {
                    "name": "F4",
                    "midi": 65,
                    "time": 372.5528040000093,
                    "velocity": 0.36220472440944884,
                    "duration": 0.11653200000000652
                },
                {
                    "name": "D4",
                    "midi": 62,
                    "time": 372.6693360000093,
                    "velocity": 0.41732283464566927,
                    "duration": 0.11653200000000652
                },
                {
                    "name": "F4",
                    "midi": 65,
                    "time": 372.7858680000093,
                    "velocity": 0.3700787401574803,
                    "duration": 0.11653200000000652
                },
                {
                    "name": "A3",
                    "midi": 57,
                    "time": 372.9024000000093,
                    "velocity": 0.3779527559055118,
                    "duration": 0.11653200000000652
                },
                {
                    "name": "F4",
                    "midi": 65,
                    "time": 373.01893200000933,
                    "velocity": 0.30708661417322836,
                    "duration": 0.11653200000000652
                },
                {
                    "name": "C4",
                    "midi": 60,
                    "time": 373.13546400000934,
                    "velocity": 0.33070866141732286,
                    "duration": 0.11653200000000652
                },
                {
                    "name": "F4",
                    "midi": 65,
                    "time": 373.25199600000934,
                    "velocity": 0.30708661417322836,
                    "duration": 0.11653200000000652
                },
                {
                    "name": "D#4",
                    "midi": 63,
                    "time": 373.36852800000935,
                    "velocity": 0.3779527559055118,
                    "duration": 0.11653200000000652
                },
                {
                    "name": "F4",
                    "midi": 65,
                    "time": 373.48506000000936,
                    "velocity": 0.31496062992125984,
                    "duration": 0.11653200000000652
                },
                {
                    "name": "D#4",
                    "midi": 63,
                    "time": 373.60159200000936,
                    "velocity": 0.33070866141732286,
                    "duration": 0.11653200000000652
                },
                {
                    "name": "F4",
                    "midi": 65,
                    "time": 373.71812400000937,
                    "velocity": 0.30708661417322836,
                    "duration": 0.11653200000000652
                },
                {
                    "name": "A3",
                    "midi": 57,
                    "time": 373.8346560000094,
                    "velocity": 0.3700787401574803,
                    "duration": 0.11653200000000652
                },
                {
                    "name": "F4",
                    "midi": 65,
                    "time": 373.9511880000094,
                    "velocity": 0.30708661417322836,
                    "duration": 0.11653200000000652
                },
                {
                    "name": "C4",
                    "midi": 60,
                    "time": 374.0677200000094,
                    "velocity": 0.33858267716535434,
                    "duration": 0.11653200000000652
                },
                {
                    "name": "F4",
                    "midi": 65,
                    "time": 374.1842520000094,
                    "velocity": 0.30708661417322836,
                    "duration": 0.11653200000000652
                },
                {
                    "name": "D#4",
                    "midi": 63,
                    "time": 374.3007840000094,
                    "velocity": 0.3779527559055118,
                    "duration": 0.11653200000000652
                },
                {
                    "name": "F4",
                    "midi": 65,
                    "time": 374.4173160000094,
                    "velocity": 0.33070866141732286,
                    "duration": 0.11653200000000652
                },
                {
                    "name": "D#4",
                    "midi": 63,
                    "time": 374.5338480000094,
                    "velocity": 0.33070866141732286,
                    "duration": 0.11653200000000652
                },
                {
                    "name": "F4",
                    "midi": 65,
                    "time": 374.6503800000094,
                    "velocity": 0.33070866141732286,
                    "duration": 0.11653200000000652
                },
                {
                    "name": "D4",
                    "midi": 62,
                    "time": 374.7669120000094,
                    "velocity": 0.3464566929133858,
                    "duration": 0.11653200000000652
                },
                {
                    "name": "F4",
                    "midi": 65,
                    "time": 374.88344400000943,
                    "velocity": 0.3543307086614173,
                    "duration": 0.11653200000000652
                },
                {
                    "name": "A3",
                    "midi": 57,
                    "time": 374.99997600000944,
                    "velocity": 0.3543307086614173,
                    "duration": 0.11653200000000652
                },
                {
                    "name": "F4",
                    "midi": 65,
                    "time": 375.11650800000945,
                    "velocity": 0.3543307086614173,
                    "duration": 0.11653200000000652
                },
                {
                    "name": "A#3",
                    "midi": 58,
                    "time": 375.23304000000945,
                    "velocity": 0.36220472440944884,
                    "duration": 0.11653200000000652
                },
                {
                    "name": "F4",
                    "midi": 65,
                    "time": 375.34957200000946,
                    "velocity": 0.3700787401574803,
                    "duration": 0.11653200000000652
                },
                {
                    "name": "C4",
                    "midi": 60,
                    "time": 375.46610400000947,
                    "velocity": 0.3779527559055118,
                    "duration": 0.11653200000000652
                },
                {
                    "name": "F4",
                    "midi": 65,
                    "time": 375.5826360000095,
                    "velocity": 0.3858267716535433,
                    "duration": 0.11653200000000652
                },
                {
                    "name": "C#4",
                    "midi": 61,
                    "time": 375.6991680000095,
                    "velocity": 0.41732283464566927,
                    "duration": 0.11653200000000652
                },
                {
                    "name": "F4",
                    "midi": 65,
                    "time": 375.8157000000095,
                    "velocity": 0.3779527559055118,
                    "duration": 0.11653200000000652
                },
                {
                    "name": "D4",
                    "midi": 62,
                    "time": 375.9322320000095,
                    "velocity": 0.41732283464566927,
                    "duration": 0.11653200000000652
                },
                {
                    "name": "F4",
                    "midi": 65,
                    "time": 376.0487640000095,
                    "velocity": 0.36220472440944884,
                    "duration": 0.11653200000000652
                },
                {
                    "name": "C#4",
                    "midi": 61,
                    "time": 376.1652960000095,
                    "velocity": 0.41732283464566927,
                    "duration": 0.11653200000000652
                },
                {
                    "name": "F4",
                    "midi": 65,
                    "time": 376.2818280000095,
                    "velocity": 0.36220472440944884,
                    "duration": 0.11653200000000652
                },
                {
                    "name": "D4",
                    "midi": 62,
                    "time": 376.3983600000095,
                    "velocity": 0.41732283464566927,
                    "duration": 0.11653200000000652
                },
                {
                    "name": "F4",
                    "midi": 65,
                    "time": 376.5148920000095,
                    "velocity": 0.3700787401574803,
                    "duration": 0.11653200000000652
                },
                {
                    "name": "D#3",
                    "midi": 51,
                    "time": 376.86448800000954,
                    "velocity": 0.2992125984251969,
                    "duration": 0.23306400000001304
                },
                {
                    "name": "D3",
                    "midi": 50,
                    "time": 377.09755200000956,
                    "velocity": 0.31496062992125984,
                    "duration": 0.23306400000001304
                },
                {
                    "name": "D#3",
                    "midi": 51,
                    "time": 377.33061600000957,
                    "velocity": 0.2992125984251969,
                    "duration": 0.23306400000001304
                },
                {
                    "name": "F3",
                    "midi": 53,
                    "time": 377.7967440000096,
                    "velocity": 0.2992125984251969,
                    "duration": 0.23306400000001304
                },
                {
                    "name": "E3",
                    "midi": 52,
                    "time": 378.0298080000096,
                    "velocity": 0.31496062992125984,
                    "duration": 0.23306400000001304
                },
                {
                    "name": "F3",
                    "midi": 53,
                    "time": 378.2628720000096,
                    "velocity": 0.2992125984251969,
                    "duration": 0.23306400000001304
                },
                {
                    "name": "F#3",
                    "midi": 54,
                    "time": 378.72900000000965,
                    "velocity": 0.2992125984251969,
                    "duration": 0.23306400000001304
                },
                {
                    "name": "E3",
                    "midi": 52,
                    "time": 378.96206400000966,
                    "velocity": 0.33070866141732286,
                    "duration": 0.23306400000001304
                },
                {
                    "name": "F#3",
                    "midi": 54,
                    "time": 379.1951280000097,
                    "velocity": 0.2992125984251969,
                    "duration": 0.23306400000001304
                },
                {
                    "name": "G3",
                    "midi": 55,
                    "time": 379.6612560000097,
                    "velocity": 0.31496062992125984,
                    "duration": 0.23306400000001304
                },
                {
                    "name": "F#3",
                    "midi": 54,
                    "time": 379.8943200000097,
                    "velocity": 0.33070866141732286,
                    "duration": 0.23306400000001304
                },
                {
                    "name": "G3",
                    "midi": 55,
                    "time": 380.1273840000097,
                    "velocity": 0.30708661417322836,
                    "duration": 0.23306400000001304
                },
                {
                    "name": "D#4",
                    "midi": 63,
                    "time": 380.82657600000977,
                    "velocity": 0.4251968503937008,
                    "duration": 0.4661280000000261
                },
                {
                    "name": "C5",
                    "midi": 72,
                    "time": 380.82657600000977,
                    "velocity": 0.4251968503937008,
                    "duration": 0.4661280000000261
                },
                {
                    "name": "F4",
                    "midi": 65,
                    "time": 381.2927040000098,
                    "velocity": 0.4251968503937008,
                    "duration": 0.9322560000000522
                },
                {
                    "name": "D5",
                    "midi": 74,
                    "time": 381.2927040000098,
                    "velocity": 0.4251968503937008,
                    "duration": 0.4661280000000261
                },
                {
                    "name": "D#5",
                    "midi": 75,
                    "time": 381.7588320000098,
                    "velocity": 0.3543307086614173,
                    "duration": 0.4661280000000261
                },
                {
                    "name": "A#4",
                    "midi": 70,
                    "time": 382.22496000000984,
                    "velocity": 0.2677165354330709,
                    "duration": 0.9322559999999953
                },
                {
                    "name": "D5",
                    "midi": 74,
                    "time": 382.22496000000984,
                    "velocity": 0.3228346456692913,
                    "duration": 0.9322559999999953
                },
                {
                    "name": "A#4",
                    "midi": 70,
                    "time": 383.15721600000984,
                    "velocity": 0.2204724409448819,
                    "duration": 0.9322559999999953
                },
                {
                    "name": "D5",
                    "midi": 74,
                    "time": 383.15721600000984,
                    "velocity": 0.2677165354330709,
                    "duration": 0.9322559999999953
                },
                {
                    "name": "B4",
                    "midi": 71,
                    "time": 384.08947200000983,
                    "velocity": 0.2283464566929134,
                    "duration": 0.9322559999999953
                },
                {
                    "name": "D5",
                    "midi": 74,
                    "time": 384.08947200000983,
                    "velocity": 0.2283464566929134,
                    "duration": 0.9322559999999953
                },
                {
                    "name": "F5",
                    "midi": 77,
                    "time": 384.08947200000983,
                    "velocity": 0.2755905511811024,
                    "duration": 0.9322559999999953
                },
                {
                    "name": "C5",
                    "midi": 72,
                    "time": 385.02172800000983,
                    "velocity": 0.2204724409448819,
                    "duration": 0.9322559999999953
                },
                {
                    "name": "D#5",
                    "midi": 75,
                    "time": 385.02172800000983,
                    "velocity": 0.2677165354330709,
                    "duration": 0.9322559999999953
                },
                {
                    "name": "A4",
                    "midi": 69,
                    "time": 385.9539840000098,
                    "velocity": 0.2283464566929134,
                    "duration": 0.9322559999999953
                },
                {
                    "name": "C5",
                    "midi": 72,
                    "time": 385.9539840000098,
                    "velocity": 0.2283464566929134,
                    "duration": 0.9322559999999953
                },
                {
                    "name": "D#5",
                    "midi": 75,
                    "time": 385.9539840000098,
                    "velocity": 0.2755905511811024,
                    "duration": 0.9322559999999953
                },
                {
                    "name": "A#4",
                    "midi": 70,
                    "time": 386.8862400000098,
                    "velocity": 0.2204724409448819,
                    "duration": 0.9322559999999953
                },
                {
                    "name": "D5",
                    "midi": 74,
                    "time": 386.8862400000098,
                    "velocity": 0.25984251968503935,
                    "duration": 0.9322559999999953
                },
                {
                    "name": "G4",
                    "midi": 67,
                    "time": 387.8184960000098,
                    "velocity": 0.2283464566929134,
                    "duration": 0.9322559999999953
                },
                {
                    "name": "A#4",
                    "midi": 70,
                    "time": 387.8184960000098,
                    "velocity": 0.2283464566929134,
                    "duration": 0.9322559999999953
                },
                {
                    "name": "D5",
                    "midi": 74,
                    "time": 387.8184960000098,
                    "velocity": 0.2755905511811024,
                    "duration": 0.9322559999999953
                },
                {
                    "name": "A4",
                    "midi": 69,
                    "time": 388.7507520000098,
                    "velocity": 0.2204724409448819,
                    "duration": 0.9322559999999953
                },
                {
                    "name": "C5",
                    "midi": 72,
                    "time": 388.7507520000098,
                    "velocity": 0.25984251968503935,
                    "duration": 0.9322559999999953
                },
                {
                    "name": "F#4",
                    "midi": 66,
                    "time": 389.6830080000098,
                    "velocity": 0.2204724409448819,
                    "duration": 0.9322559999999953
                },
                {
                    "name": "A4",
                    "midi": 69,
                    "time": 389.6830080000098,
                    "velocity": 0.2204724409448819,
                    "duration": 0.9322559999999953
                },
                {
                    "name": "C5",
                    "midi": 72,
                    "time": 389.6830080000098,
                    "velocity": 0.25984251968503935,
                    "duration": 0.9322559999999953
                },
                {
                    "name": "G4",
                    "midi": 67,
                    "time": 390.6152640000098,
                    "velocity": 0.2204724409448819,
                    "duration": 0.9322559999999953
                },
                {
                    "name": "A#4",
                    "midi": 70,
                    "time": 390.6152640000098,
                    "velocity": 0.2677165354330709,
                    "duration": 0.9322559999999953
                },
                {
                    "name": "E4",
                    "midi": 64,
                    "time": 391.7805840000098,
                    "velocity": 0.23622047244094488,
                    "duration": 0.23209289999999783
                },
                {
                    "name": "A#4",
                    "midi": 70,
                    "time": 391.7805840000098,
                    "velocity": 0.28346456692913385,
                    "duration": 0.23209289999999783
                },
                {
                    "name": "E4",
                    "midi": 64,
                    "time": 392.0136480000098,
                    "velocity": 0.2755905511811024,
                    "duration": 0.23306400000001304
                },
                {
                    "name": "A#4",
                    "midi": 70,
                    "time": 392.0136480000098,
                    "velocity": 0.33070866141732286,
                    "duration": 0.23209289999999783
                },
                {
                    "name": "E4",
                    "midi": 64,
                    "time": 392.24671200000984,
                    "velocity": 0.25196850393700787,
                    "duration": 0.23306400000001304
                },
                {
                    "name": "A#4",
                    "midi": 70,
                    "time": 392.24671200000984,
                    "velocity": 0.2992125984251969,
                    "duration": 0.23306400000001304
                },
                {
                    "name": "F4",
                    "midi": 65,
                    "time": 392.71284000000986,
                    "velocity": 0.2677165354330709,
                    "duration": 0.23306400000001304
                },
                {
                    "name": "A#4",
                    "midi": 70,
                    "time": 392.71284000000986,
                    "velocity": 0.3228346456692913,
                    "duration": 0.23306400000001304
                },
                {
                    "name": "F4",
                    "midi": 65,
                    "time": 392.9459040000099,
                    "velocity": 0.30708661417322836,
                    "duration": 0.23306400000001304
                },
                {
                    "name": "A#4",
                    "midi": 70,
                    "time": 392.9459040000099,
                    "velocity": 0.36220472440944884,
                    "duration": 0.23306400000001304
                },
                {
                    "name": "F4",
                    "midi": 65,
                    "time": 393.1789680000099,
                    "velocity": 0.29133858267716534,
                    "duration": 0.23306400000001304
                },
                {
                    "name": "A#4",
                    "midi": 70,
                    "time": 393.1789680000099,
                    "velocity": 0.3464566929133858,
                    "duration": 0.23306400000001304
                },
                {
                    "name": "G4",
                    "midi": 67,
                    "time": 393.6450960000099,
                    "velocity": 0.30708661417322836,
                    "duration": 0.23306400000001304
                },
                {
                    "name": "A#4",
                    "midi": 70,
                    "time": 393.6450960000099,
                    "velocity": 0.36220472440944884,
                    "duration": 0.23306400000001304
                },
                {
                    "name": "G4",
                    "midi": 67,
                    "time": 393.8781600000099,
                    "velocity": 0.3543307086614173,
                    "duration": 0.23306400000001304
                },
                {
                    "name": "A#4",
                    "midi": 70,
                    "time": 393.8781600000099,
                    "velocity": 0.41732283464566927,
                    "duration": 0.23306400000001304
                },
                {
                    "name": "G4",
                    "midi": 67,
                    "time": 394.11122400000994,
                    "velocity": 0.33070866141732286,
                    "duration": 0.23306400000001304
                },
                {
                    "name": "A#4",
                    "midi": 70,
                    "time": 394.11122400000994,
                    "velocity": 0.3937007874015748,
                    "duration": 0.23306400000001304
                },
                {
                    "name": "F#4",
                    "midi": 66,
                    "time": 394.57735200000997,
                    "velocity": 0.41732283464566927,
                    "duration": 0.23306400000001304
                },
                {
                    "name": "A#4",
                    "midi": 70,
                    "time": 394.57735200000997,
                    "velocity": 0.49606299212598426,
                    "duration": 0.23306400000001304
                },
                {
                    "name": "F#4",
                    "midi": 66,
                    "time": 394.81041600001,
                    "velocity": 0.4566929133858268,
                    "duration": 0.23306400000001304
                },
                {
                    "name": "A#4",
                    "midi": 70,
                    "time": 394.81041600001,
                    "velocity": 0.5433070866141733,
                    "duration": 0.23306400000001304
                },
                {
                    "name": "F#4",
                    "midi": 66,
                    "time": 395.04348000001,
                    "velocity": 0.4251968503937008,
                    "duration": 0.23306400000001304
                },
                {
                    "name": "A#4",
                    "midi": 70,
                    "time": 395.04348000001,
                    "velocity": 0.5039370078740157,
                    "duration": 0.23306400000001304
                },
                {
                    "name": "F4",
                    "midi": 65,
                    "time": 395.27654400001,
                    "velocity": 0.41732283464566927,
                    "duration": 0.4661280000000261
                },
                {
                    "name": "A#4",
                    "midi": 70,
                    "time": 395.27654400001,
                    "velocity": 0.49606299212598426,
                    "duration": 0.4661280000000261
                },
                {
                    "name": "D4",
                    "midi": 62,
                    "time": 395.74267200001003,
                    "velocity": 0.41732283464566927,
                    "duration": 0.4661280000000261
                },
                {
                    "name": "A#4",
                    "midi": 70,
                    "time": 395.74267200001003,
                    "velocity": 0.49606299212598426,
                    "duration": 0.4661280000000261
                },
                {
                    "name": "D#4",
                    "midi": 63,
                    "time": 396.20880000001006,
                    "velocity": 0.41732283464566927,
                    "duration": 0.4661280000000261
                },
                {
                    "name": "A#4",
                    "midi": 70,
                    "time": 396.20880000001006,
                    "velocity": 0.49606299212598426,
                    "duration": 0.4661280000000261
                },
                {
                    "name": "C4",
                    "midi": 60,
                    "time": 396.6749280000101,
                    "velocity": 0.41732283464566927,
                    "duration": 0.4661280000000261
                },
                {
                    "name": "F4",
                    "midi": 65,
                    "time": 396.6749280000101,
                    "velocity": 0.49606299212598426,
                    "duration": 0.4661280000000261
                },
                {
                    "name": "A#3",
                    "midi": 58,
                    "time": 397.1410560000101,
                    "velocity": 0.4015748031496063,
                    "duration": 0.4661280000000261
                },
                {
                    "name": "F4",
                    "midi": 65,
                    "time": 397.1410560000101,
                    "velocity": 0.47244094488188976,
                    "duration": 0.4661280000000261
                },
                {
                    "name": "D3",
                    "midi": 50,
                    "time": 397.60718400001014,
                    "velocity": 0.33858267716535434,
                    "duration": 0.4661280000000261
                },
                {
                    "name": "F3",
                    "midi": 53,
                    "time": 397.60718400001014,
                    "velocity": 0.4015748031496063,
                    "duration": 0.4661280000000261
                },
                {
                    "name": "D#3",
                    "midi": 51,
                    "time": 398.07331200001016,
                    "velocity": 0.33070866141732286,
                    "duration": 0.4661280000000261
                },
                {
                    "name": "A#3",
                    "midi": 58,
                    "time": 398.07331200001016,
                    "velocity": 0.3937007874015748,
                    "duration": 0.4661280000000261
                },
                {
                    "name": "D#3",
                    "midi": 51,
                    "time": 398.5394400000102,
                    "velocity": 0.30708661417322836,
                    "duration": 0.4661280000000261
                },
                {
                    "name": "G3",
                    "midi": 55,
                    "time": 398.5394400000102,
                    "velocity": 0.36220472440944884,
                    "duration": 0.4661280000000261
                },
                {
                    "name": "A#3",
                    "midi": 58,
                    "time": 399.47169600001024,
                    "velocity": 0.36220472440944884,
                    "duration": 0.9322560000000522
                },
                {
                    "name": "D3",
                    "midi": 50,
                    "time": 399.47169600001024,
                    "velocity": 0.36220472440944884,
                    "duration": 0.4661280000000261
                },
                {
                    "name": "D#3",
                    "midi": 51,
                    "time": 399.93782400001027,
                    "velocity": 0.36220472440944884,
                    "duration": 0.4661280000000261
                },
                {
                    "name": "A3",
                    "midi": 57,
                    "time": 400.4039520000103,
                    "velocity": 0.36220472440944884,
                    "duration": 0.4661280000000261
                },
                {
                    "name": "F3",
                    "midi": 53,
                    "time": 400.4039520000103,
                    "velocity": 0.36220472440944884,
                    "duration": 0.4661280000000261
                },
                {
                    "name": "A#2",
                    "midi": 46,
                    "time": 400.8700800000103,
                    "velocity": 0.4094488188976378,
                    "duration": 0.11653200000000652
                },
                {
                    "name": "A#3",
                    "midi": 58,
                    "time": 400.8700800000103,
                    "velocity": 0.4094488188976378,
                    "duration": 0.11653200000000652
                },
                {
                    "name": "A3",
                    "midi": 57,
                    "time": 401.33620800001034,
                    "velocity": 0.2755905511811024,
                    "duration": 0.23306400000001304
                },
                {
                    "name": "G#3",
                    "midi": 56,
                    "time": 401.56927200001036,
                    "velocity": 0.25984251968503935,
                    "duration": 0.23306400000001304
                },
                {
                    "name": "A#2",
                    "midi": 46,
                    "time": 401.80233600001037,
                    "velocity": 0.33858267716535434,
                    "duration": 0.11653200000000652
                },
                {
                    "name": "G3",
                    "midi": 55,
                    "time": 401.80233600001037,
                    "velocity": 0.33858267716535434,
                    "duration": 0.11653200000000652
                },
                {
                    "name": "A3",
                    "midi": 57,
                    "time": 402.2684640000104,
                    "velocity": 0.2755905511811024,
                    "duration": 0.23306400000001304
                },
                {
                    "name": "G#3",
                    "midi": 56,
                    "time": 402.5015280000104,
                    "velocity": 0.25984251968503935,
                    "duration": 0.23306400000001304
                },
                {
                    "name": "A#2",
                    "midi": 46,
                    "time": 402.7345920000104,
                    "velocity": 0.33070866141732286,
                    "duration": 0.11653200000000652
                },
                {
                    "name": "G3",
                    "midi": 55,
                    "time": 402.7345920000104,
                    "velocity": 0.33070866141732286,
                    "duration": 0.11653200000000652
                },
                {
                    "name": "A3",
                    "midi": 57,
                    "time": 403.20072000001045,
                    "velocity": 0.3700787401574803,
                    "duration": 0.23306400000001304
                },
                {
                    "name": "G#3",
                    "midi": 56,
                    "time": 403.43378400001046,
                    "velocity": 0.3700787401574803,
                    "duration": 0.23306400000001304
                },
                {
                    "name": "G3",
                    "midi": 55,
                    "time": 403.6668480000105,
                    "velocity": 0.4015748031496063,
                    "duration": 0.23306400000001304
                },
                {
                    "name": "D3",
                    "midi": 50,
                    "time": 403.8999120000105,
                    "velocity": 0.3937007874015748,
                    "duration": 0.23306400000001304
                },
                {
                    "name": "D#3",
                    "midi": 51,
                    "time": 404.1329760000105,
                    "velocity": 0.3937007874015748,
                    "duration": 0.23306400000001304
                },
                {
                    "name": "C3",
                    "midi": 48,
                    "time": 404.3660400000105,
                    "velocity": 0.3937007874015748,
                    "duration": 0.23306400000001304
                },
                {
                    "name": "D3",
                    "midi": 50,
                    "time": 404.5991040000105,
                    "velocity": 0.44881889763779526,
                    "duration": 0.4661280000000261
                },
                {
                    "name": "D#3",
                    "midi": 51,
                    "time": 405.5313600000106,
                    "velocity": 0.41732283464566927,
                    "duration": 0.4661280000000261
                },
                {
                    "name": "F3",
                    "midi": 53,
                    "time": 406.46361600001063,
                    "velocity": 0.4094488188976378,
                    "duration": 0.23306400000001304
                },
                {
                    "name": "A#3",
                    "midi": 58,
                    "time": 406.69668000001064,
                    "velocity": 0.3779527559055118,
                    "duration": 0.23306400000001304
                },
                {
                    "name": "D4",
                    "midi": 62,
                    "time": 406.92974400001066,
                    "velocity": 0.3779527559055118,
                    "duration": 0.23306400000001304
                },
                {
                    "name": "A#3",
                    "midi": 58,
                    "time": 407.16280800001067,
                    "velocity": 0.3779527559055118,
                    "duration": 0.23306400000001304
                },
                {
                    "name": "F3",
                    "midi": 53,
                    "time": 407.3958720000107,
                    "velocity": 0.41732283464566927,
                    "duration": 0.23306400000001304
                },
                {
                    "name": "C4",
                    "midi": 60,
                    "time": 407.6289360000107,
                    "velocity": 0.3858267716535433,
                    "duration": 0.23306400000001304
                },
                {
                    "name": "D#4",
                    "midi": 63,
                    "time": 407.8620000000107,
                    "velocity": 0.3858267716535433,
                    "duration": 0.23306400000001304
                },
                {
                    "name": "C4",
                    "midi": 60,
                    "time": 408.0950640000107,
                    "velocity": 0.3779527559055118,
                    "duration": 0.23306400000001304
                },
                {
                    "name": "A#3",
                    "midi": 58,
                    "time": 408.32812800001074,
                    "velocity": 0.4409448818897638,
                    "duration": 0.11653200000000652
                },
                {
                    "name": "D4",
                    "midi": 62,
                    "time": 408.32812800001074,
                    "velocity": 0.4409448818897638,
                    "duration": 0.11653200000000652
                },
                {
                    "name": "A4",
                    "midi": 69,
                    "time": 408.79425600001076,
                    "velocity": 0.2755905511811024,
                    "duration": 0.23306400000001304
                },
                {
                    "name": "G#4",
                    "midi": 68,
                    "time": 409.0273200000108,
                    "velocity": 0.2755905511811024,
                    "duration": 0.23306400000001304
                },
                {
                    "name": "A#3",
                    "midi": 58,
                    "time": 409.2603840000108,
                    "velocity": 0.33858267716535434,
                    "duration": 0.11653200000000652
                },
                {
                    "name": "G4",
                    "midi": 67,
                    "time": 409.2603840000108,
                    "velocity": 0.33858267716535434,
                    "duration": 0.11653200000000652
                },
                {
                    "name": "A#4",
                    "midi": 70,
                    "time": 409.4934480000108,
                    "velocity": 0.2755905511811024,
                    "duration": 0.23306400000001304
                },
                {
                    "name": "A4",
                    "midi": 69,
                    "time": 409.7265120000108,
                    "velocity": 0.2755905511811024,
                    "duration": 0.23306400000001304
                },
                {
                    "name": "G#4",
                    "midi": 68,
                    "time": 409.9595760000108,
                    "velocity": 0.2755905511811024,
                    "duration": 0.23306400000001304
                },
                {
                    "name": "A#3",
                    "midi": 58,
                    "time": 410.19264000001084,
                    "velocity": 0.36220472440944884,
                    "duration": 0.11653200000000652
                },
                {
                    "name": "G4",
                    "midi": 67,
                    "time": 410.19264000001084,
                    "velocity": 0.36220472440944884,
                    "duration": 0.11653200000000652
                },
                {
                    "name": "A#4",
                    "midi": 70,
                    "time": 410.42570400001085,
                    "velocity": 0.2992125984251969,
                    "duration": 0.23306400000001304
                },
                {
                    "name": "A4",
                    "midi": 69,
                    "time": 410.65876800001087,
                    "velocity": 0.3700787401574803,
                    "duration": 0.23306400000001304
                },
                {
                    "name": "G#4",
                    "midi": 68,
                    "time": 410.8918320000109,
                    "velocity": 0.3700787401574803,
                    "duration": 0.23306400000001304
                },
                {
                    "name": "G4",
                    "midi": 67,
                    "time": 411.1248960000109,
                    "velocity": 0.4015748031496063,
                    "duration": 0.23306400000001304
                },
                {
                    "name": "D4",
                    "midi": 62,
                    "time": 411.3579600000109,
                    "velocity": 0.3858267716535433,
                    "duration": 0.23306400000001304
                },
                {
                    "name": "D#4",
                    "midi": 63,
                    "time": 411.5910240000109,
                    "velocity": 0.3937007874015748,
                    "duration": 0.23306400000001304
                },
                {
                    "name": "C4",
                    "midi": 60,
                    "time": 411.82408800001093,
                    "velocity": 0.3937007874015748,
                    "duration": 0.23306400000001304
                },
                {
                    "name": "D3",
                    "midi": 50,
                    "time": 412.05715200001094,
                    "velocity": 0.5354330708661418,
                    "duration": 0.4661280000000261
                },
                {
                    "name": "D4",
                    "midi": 62,
                    "time": 412.05715200001094,
                    "velocity": 0.5354330708661418,
                    "duration": 0.4661280000000261
                },
                {
                    "name": "D#4",
                    "midi": 63,
                    "time": 412.989408000011,
                    "velocity": 0.5433070866141733,
                    "duration": 0.4661280000000261
                },
                {
                    "name": "D#3",
                    "midi": 51,
                    "time": 412.989408000011,
                    "velocity": 0.5433070866141733,
                    "duration": 0.4661280000000261
                },
                {
                    "name": "F3",
                    "midi": 53,
                    "time": 413.92166400001105,
                    "velocity": 0.3779527559055118,
                    "duration": 0.11653200000000652
                },
                {
                    "name": "D4",
                    "midi": 62,
                    "time": 414.03819600001106,
                    "velocity": 0.3228346456692913,
                    "duration": 0.11653200000000652
                },
                {
                    "name": "A#3",
                    "midi": 58,
                    "time": 414.15472800001106,
                    "velocity": 0.3464566929133858,
                    "duration": 0.11653200000000652
                },
                {
                    "name": "D4",
                    "midi": 62,
                    "time": 414.27126000001107,
                    "velocity": 0.30708661417322836,
                    "duration": 0.11653200000000652
                },
                {
                    "name": "F3",
                    "midi": 53,
                    "time": 414.3877920000111,
                    "velocity": 0.3779527559055118,
                    "duration": 0.11653200000000652
                },
                {
                    "name": "D4",
                    "midi": 62,
                    "time": 414.5043240000111,
                    "velocity": 0.31496062992125984,
                    "duration": 0.11653200000000652
                },
                {
                    "name": "A#3",
                    "midi": 58,
                    "time": 414.6208560000111,
                    "velocity": 0.3464566929133858,
                    "duration": 0.11653200000000652
                },
                {
                    "name": "D4",
                    "midi": 62,
                    "time": 414.7373880000111,
                    "velocity": 0.3228346456692913,
                    "duration": 0.11653200000000652
                },
                {
                    "name": "F3",
                    "midi": 53,
                    "time": 414.8539200000111,
                    "velocity": 0.3779527559055118,
                    "duration": 0.11653200000000652
                },
                {
                    "name": "D4",
                    "midi": 62,
                    "time": 414.9704520000111,
                    "velocity": 0.33070866141732286,
                    "duration": 0.11653200000000652
                },
                {
                    "name": "A#3",
                    "midi": 58,
                    "time": 415.0869840000111,
                    "velocity": 0.36220472440944884,
                    "duration": 0.11653200000000652
                },
                {
                    "name": "D4",
                    "midi": 62,
                    "time": 415.2035160000111,
                    "velocity": 0.33070866141732286,
                    "duration": 0.11653200000000652
                },
                {
                    "name": "F3",
                    "midi": 53,
                    "time": 415.3200480000111,
                    "velocity": 0.3779527559055118,
                    "duration": 0.11653200000000652
                },
                {
                    "name": "D4",
                    "midi": 62,
                    "time": 415.43658000001113,
                    "velocity": 0.3464566929133858,
                    "duration": 0.11653200000000652
                },
                {
                    "name": "A#3",
                    "midi": 58,
                    "time": 415.55311200001114,
                    "velocity": 0.36220472440944884,
                    "duration": 0.11653200000000652
                },
                {
                    "name": "D4",
                    "midi": 62,
                    "time": 415.66964400001115,
                    "velocity": 0.33858267716535434,
                    "duration": 0.11653200000000652
                },
                {
                    "name": "F3",
                    "midi": 53,
                    "time": 415.78617600001115,
                    "velocity": 0.3779527559055118,
                    "duration": 0.11653200000000652
                },
                {
                    "name": "D#4",
                    "midi": 63,
                    "time": 415.90270800001116,
                    "velocity": 0.31496062992125984,
                    "duration": 0.11653200000000652
                },
                {
                    "name": "A3",
                    "midi": 57,
                    "time": 416.01924000001117,
                    "velocity": 0.33858267716535434,
                    "duration": 0.11653200000000652
                },
                {
                    "name": "D#4",
                    "midi": 63,
                    "time": 416.1357720000112,
                    "velocity": 0.31496062992125984,
                    "duration": 0.11653200000000652
                },
                {
                    "name": "F3",
                    "midi": 53,
                    "time": 416.2523040000112,
                    "velocity": 0.3779527559055118,
                    "duration": 0.11653200000000652
                },
                {
                    "name": "D#4",
                    "midi": 63,
                    "time": 416.3688360000112,
                    "velocity": 0.30708661417322836,
                    "duration": 0.11653200000000652
                },
                {
                    "name": "A3",
                    "midi": 57,
                    "time": 416.4853680000112,
                    "velocity": 0.33858267716535434,
                    "duration": 0.11653200000000652
                },
                {
                    "name": "D#4",
                    "midi": 63,
                    "time": 416.6019000000112,
                    "velocity": 0.30708661417322836,
                    "duration": 0.11653200000000652
                },
                {
                    "name": "F3",
                    "midi": 53,
                    "time": 416.7184320000112,
                    "velocity": 0.3779527559055118,
                    "duration": 0.11653200000000652
                },
                {
                    "name": "D#4",
                    "midi": 63,
                    "time": 416.8349640000112,
                    "velocity": 0.30708661417322836,
                    "duration": 0.11653200000000652
                },
                {
                    "name": "A3",
                    "midi": 57,
                    "time": 416.9514960000112,
                    "velocity": 0.33858267716535434,
                    "duration": 0.11653200000000652
                },
                {
                    "name": "D#4",
                    "midi": 63,
                    "time": 417.0680280000112,
                    "velocity": 0.2992125984251969,
                    "duration": 0.11653200000000652
                },
                {
                    "name": "F3",
                    "midi": 53,
                    "time": 417.18456000001123,
                    "velocity": 0.3779527559055118,
                    "duration": 0.11653200000000652
                },
                {
                    "name": "D#4",
                    "midi": 63,
                    "time": 417.30109200001124,
                    "velocity": 0.33070866141732286,
                    "duration": 0.11653200000000652
                },
                {
                    "name": "A3",
                    "midi": 57,
                    "time": 417.41762400001124,
                    "velocity": 0.3543307086614173,
                    "duration": 0.11653200000000652
                },
                {
                    "name": "D#4",
                    "midi": 63,
                    "time": 417.53415600001125,
                    "velocity": 0.31496062992125984,
                    "duration": 0.11653200000000652
                },
                {
                    "name": "A#3",
                    "midi": 58,
                    "time": 417.65068800001126,
                    "velocity": 0.4015748031496063,
                    "duration": 0.23306400000001304
                },
                {
                    "name": "A#4",
                    "midi": 70,
                    "time": 417.88375200001127,
                    "velocity": 0.3464566929133858,
                    "duration": 0.23306400000001304
                },
                {
                    "name": "A4",
                    "midi": 69,
                    "time": 418.1168160000113,
                    "velocity": 0.3464566929133858,
                    "duration": 0.23306400000001304
                },
                {
                    "name": "A#4",
                    "midi": 70,
                    "time": 418.3498800000113,
                    "velocity": 0.3779527559055118,
                    "duration": 0.23306400000001304
                },
                {
                    "name": "C5",
                    "midi": 72,
                    "time": 418.5829440000113,
                    "velocity": 0.3858267716535433,
                    "duration": 0.23306400000001304
                },
                {
                    "name": "A#4",
                    "midi": 70,
                    "time": 418.8160080000113,
                    "velocity": 0.4094488188976378,
                    "duration": 0.23306400000001304
                },
                {
                    "name": "A4",
                    "midi": 69,
                    "time": 419.04907200001134,
                    "velocity": 0.4409448818897638,
                    "duration": 0.23306400000001304
                },
                {
                    "name": "G#4",
                    "midi": 68,
                    "time": 419.28213600001135,
                    "velocity": 0.4645669291338583,
                    "duration": 0.23306400000001304
                },
                {
                    "name": "G4",
                    "midi": 67,
                    "time": 419.51520000001136,
                    "velocity": 0.5039370078740157,
                    "duration": 0.23306400000001304
                },
                {
                    "name": "A#3",
                    "midi": 58,
                    "time": 419.7482640000114,
                    "velocity": 0.3858267716535433,
                    "duration": 0.23306400000001304
                },
                {
                    "name": "F#4",
                    "midi": 66,
                    "time": 419.9813280000114,
                    "velocity": 0.4566929133858268,
                    "duration": 0.23306400000001304
                },
                {
                    "name": "A#3",
                    "midi": 58,
                    "time": 420.2143920000114,
                    "velocity": 0.3858267716535433,
                    "duration": 0.23306400000001304
                },
                {
                    "name": "F4",
                    "midi": 65,
                    "time": 420.4474560000114,
                    "velocity": 0.44881889763779526,
                    "duration": 0.23306400000001304
                },
                {
                    "name": "A#3",
                    "midi": 58,
                    "time": 420.6805200000114,
                    "velocity": 0.3779527559055118,
                    "duration": 0.23306400000001304
                },
                {
                    "name": "A4",
                    "midi": 69,
                    "time": 420.91358400001144,
                    "velocity": 0.4330708661417323,
                    "duration": 0.23306400000001304
                },
                {
                    "name": "A#3",
                    "midi": 58,
                    "time": 421.14664800001145,
                    "velocity": 0.3779527559055118,
                    "duration": 0.23306400000001304
                },
                {
                    "name": "A#4",
                    "midi": 70,
                    "time": 421.37971200001147,
                    "velocity": 0.41732283464566927,
                    "duration": 0.11653200000000652
                },
                {
                    "name": "A#3",
                    "midi": 58,
                    "time": 421.6127760000115,
                    "velocity": 0.3228346456692913,
                    "duration": 0.23306400000001304
                },
                {
                    "name": "A3",
                    "midi": 57,
                    "time": 421.8458400000115,
                    "velocity": 0.3228346456692913,
                    "duration": 0.23306400000001304
                },
                {
                    "name": "A#3",
                    "midi": 58,
                    "time": 422.0789040000115,
                    "velocity": 0.29133858267716534,
                    "duration": 0.23306400000001304
                },
                {
                    "name": "C4",
                    "midi": 60,
                    "time": 422.3119680000115,
                    "velocity": 0.3543307086614173,
                    "duration": 0.23306400000001304
                },
                {
                    "name": "A#3",
                    "midi": 58,
                    "time": 422.54503200001153,
                    "velocity": 0.33858267716535434,
                    "duration": 0.23306400000001304
                },
                {
                    "name": "A3",
                    "midi": 57,
                    "time": 422.77809600001154,
                    "velocity": 0.33858267716535434,
                    "duration": 0.23306400000001304
                },
                {
                    "name": "G#3",
                    "midi": 56,
                    "time": 423.01116000001156,
                    "velocity": 0.2992125984251969,
                    "duration": 0.23306400000001304
                },
                {
                    "name": "G3",
                    "midi": 55,
                    "time": 423.24422400001157,
                    "velocity": 0.3543307086614173,
                    "duration": 0.4661280000000261
                },
                {
                    "name": "D#3",
                    "midi": 51,
                    "time": 423.7103520000116,
                    "velocity": 0.2755905511811024,
                    "duration": 0.4661280000000261
                },
                {
                    "name": "F3",
                    "midi": 53,
                    "time": 424.1764800000116,
                    "velocity": 0.2755905511811024,
                    "duration": 0.4661280000000261
                },
                {
                    "name": "F3",
                    "midi": 53,
                    "time": 424.64260800001165,
                    "velocity": 0.2755905511811024,
                    "duration": 0.4661280000000261
                },
                {
                    "name": "A#3",
                    "midi": 58,
                    "time": 425.1087360000117,
                    "velocity": 0.29133858267716534,
                    "duration": 0.4661280000000261
                },
                {
                    "name": "F3",
                    "midi": 53,
                    "time": 425.5748640000117,
                    "velocity": 0.2204724409448819,
                    "duration": 0.4661280000000261
                },
                {
                    "name": "A#2",
                    "midi": 46,
                    "time": 426.0409920000117,
                    "velocity": 0.2204724409448819,
                    "duration": 0.34959600000001956
                },
                {
                    "name": "F2",
                    "midi": 41,
                    "time": 427.20631200001174,
                    "velocity": 0.25984251968503935,
                    "duration": 0.23306400000001304
                },
                {
                    "name": "A2",
                    "midi": 45,
                    "time": 427.43937600001175,
                    "velocity": 0.2755905511811024,
                    "duration": 0.23306400000001304
                },
                {
                    "name": "C3",
                    "midi": 48,
                    "time": 427.67244000001176,
                    "velocity": 0.25984251968503935,
                    "duration": 0.23306400000001304
                },
                {
                    "name": "A2",
                    "midi": 45,
                    "time": 427.9055040000118,
                    "velocity": 0.2992125984251969,
                    "duration": 0.23306400000001304
                },
                {
                    "name": "F2",
                    "midi": 41,
                    "time": 428.1385680000118,
                    "velocity": 0.25196850393700787,
                    "duration": 0.23306400000001304
                },
                {
                    "name": "A2",
                    "midi": 45,
                    "time": 428.3716320000118,
                    "velocity": 0.2677165354330709,
                    "duration": 0.23306400000001304
                },
                {
                    "name": "C3",
                    "midi": 48,
                    "time": 428.6046960000118,
                    "velocity": 0.25196850393700787,
                    "duration": 0.23306400000001304
                },
                {
                    "name": "G3",
                    "midi": 55,
                    "time": 429.07082400001184,
                    "velocity": 0.25196850393700787,
                    "duration": 0.23306400000001304
                },
                {
                    "name": "A#3",
                    "midi": 58,
                    "time": 429.30388800001185,
                    "velocity": 0.2755905511811024,
                    "duration": 0.23306400000001304
                },
                {
                    "name": "E4",
                    "midi": 64,
                    "time": 429.53695200001187,
                    "velocity": 0.25984251968503935,
                    "duration": 0.23306400000001304
                },
                {
                    "name": "A#3",
                    "midi": 58,
                    "time": 429.7700160000119,
                    "velocity": 0.2677165354330709,
                    "duration": 0.23306400000001304
                },
                {
                    "name": "G3",
                    "midi": 55,
                    "time": 430.0030800000119,
                    "velocity": 0.23622047244094488,
                    "duration": 0.23306400000001304
                },
                {
                    "name": "A#3",
                    "midi": 58,
                    "time": 430.2361440000119,
                    "velocity": 0.2677165354330709,
                    "duration": 0.23306400000001304
                },
                {
                    "name": "E4",
                    "midi": 64,
                    "time": 430.4692080000119,
                    "velocity": 0.23622047244094488,
                    "duration": 0.23306400000001304
                },
                {
                    "name": "G2",
                    "midi": 43,
                    "time": 430.93533600001194,
                    "velocity": 0.25196850393700787,
                    "duration": 0.23306400000001304
                },
                {
                    "name": "A#2",
                    "midi": 46,
                    "time": 431.16840000001196,
                    "velocity": 0.2755905511811024,
                    "duration": 0.23306400000001304
                },
                {
                    "name": "E3",
                    "midi": 52,
                    "time": 431.40146400001197,
                    "velocity": 0.25196850393700787,
                    "duration": 0.23306400000001304
                },
                {
                    "name": "A#2",
                    "midi": 46,
                    "time": 431.634528000012,
                    "velocity": 0.30708661417322836,
                    "duration": 0.23306400000001304
                },
                {
                    "name": "G2",
                    "midi": 43,
                    "time": 431.867592000012,
                    "velocity": 0.25984251968503935,
                    "duration": 0.23306400000001304
                },
                {
                    "name": "A#2",
                    "midi": 46,
                    "time": 432.100656000012,
                    "velocity": 0.2755905511811024,
                    "duration": 0.23306400000001304
                },
                {
                    "name": "E3",
                    "midi": 52,
                    "time": 432.333720000012,
                    "velocity": 0.25984251968503935,
                    "duration": 0.23306400000001304
                },
                {
                    "name": "A3",
                    "midi": 57,
                    "time": 432.79984800001205,
                    "velocity": 0.25984251968503935,
                    "duration": 0.23306400000001304
                },
                {
                    "name": "C4",
                    "midi": 60,
                    "time": 433.03291200001206,
                    "velocity": 0.2755905511811024,
                    "duration": 0.23306400000001304
                },
                {
                    "name": "D#4",
                    "midi": 63,
                    "time": 433.2659760000121,
                    "velocity": 0.2677165354330709,
                    "duration": 0.23306400000001304
                },
                {
                    "name": "C4",
                    "midi": 60,
                    "time": 433.4990400000121,
                    "velocity": 0.29133858267716534,
                    "duration": 0.23306400000001304
                },
                {
                    "name": "A3",
                    "midi": 57,
                    "time": 433.7321040000121,
                    "velocity": 0.25196850393700787,
                    "duration": 0.23306400000001304
                },
                {
                    "name": "C4",
                    "midi": 60,
                    "time": 433.9651680000121,
                    "velocity": 0.2677165354330709,
                    "duration": 0.23306400000001304
                },
                {
                    "name": "D#4",
                    "midi": 63,
                    "time": 434.1982320000121,
                    "velocity": 0.2677165354330709,
                    "duration": 0.23306400000001304
                },
                {
                    "name": "A#2",
                    "midi": 46,
                    "time": 434.66436000001215,
                    "velocity": 0.3228346456692913,
                    "duration": 0.23306400000001304
                },
                {
                    "name": "D3",
                    "midi": 50,
                    "time": 434.89742400001217,
                    "velocity": 0.3700787401574803,
                    "duration": 0.23306400000001304
                },
                {
                    "name": "G3",
                    "midi": 55,
                    "time": 435.1304880000122,
                    "velocity": 0.3464566929133858,
                    "duration": 0.23306400000001304
                },
                {
                    "name": "C3",
                    "midi": 48,
                    "time": 435.5966160000122,
                    "velocity": 0.36220472440944884,
                    "duration": 0.23306400000001304
                },
                {
                    "name": "G3",
                    "midi": 55,
                    "time": 435.8296800000122,
                    "velocity": 0.3858267716535433,
                    "duration": 0.23306400000001304
                },
                {
                    "name": "A#3",
                    "midi": 58,
                    "time": 436.06274400001223,
                    "velocity": 0.36220472440944884,
                    "duration": 0.23306400000001304
                },
                {
                    "name": "D3",
                    "midi": 50,
                    "time": 436.52887200001226,
                    "velocity": 0.3779527559055118,
                    "duration": 0.23306400000001304
                },
                {
                    "name": "F3",
                    "midi": 53,
                    "time": 436.76193600001227,
                    "velocity": 0.3937007874015748,
                    "duration": 0.23306400000001304
                },
                {
                    "name": "G#3",
                    "midi": 56,
                    "time": 436.9950000000123,
                    "velocity": 0.3543307086614173,
                    "duration": 0.23306400000001304
                },
                {
                    "name": "F3",
                    "midi": 53,
                    "time": 437.2280640000123,
                    "velocity": 0.4094488188976378,
                    "duration": 0.23306400000001304
                },
                {
                    "name": "D3",
                    "midi": 50,
                    "time": 437.4611280000123,
                    "velocity": 0.3858267716535433,
                    "duration": 0.23306400000001304
                },
                {
                    "name": "F3",
                    "midi": 53,
                    "time": 437.6941920000123,
                    "velocity": 0.41732283464566927,
                    "duration": 0.23306400000001304
                },
                {
                    "name": "G#3",
                    "midi": 56,
                    "time": 437.92725600001233,
                    "velocity": 0.3937007874015748,
                    "duration": 0.23306400000001304
                },
                {
                    "name": "C3",
                    "midi": 48,
                    "time": 438.16032000001235,
                    "velocity": 0.49606299212598426,
                    "duration": 0.9322559999999953
                },
                {
                    "name": "A3",
                    "midi": 57,
                    "time": 438.16032000001235,
                    "velocity": 0.49606299212598426,
                    "duration": 0.9322559999999953
                },
                {
                    "name": "C4",
                    "midi": 60,
                    "time": 439.09257600001234,
                    "velocity": 0.3779527559055118,
                    "duration": 0.4661280000000261
                },
                {
                    "name": "C3",
                    "midi": 48,
                    "time": 439.55870400001237,
                    "velocity": 0.3543307086614173,
                    "duration": 0.4661280000000261
                },
                {
                    "name": "F3",
                    "midi": 53,
                    "time": 440.0248320000124,
                    "velocity": 0.3228346456692913,
                    "duration": 0.11653200000000652
                },
                {
                    "name": "C4",
                    "midi": 60,
                    "time": 440.1413640000124,
                    "velocity": 0.2677165354330709,
                    "duration": 0.11653200000000652
                },
                {
                    "name": "G#3",
                    "midi": 56,
                    "time": 440.2578960000124,
                    "velocity": 0.29133858267716534,
                    "duration": 0.11653200000000652
                },
                {
                    "name": "C4",
                    "midi": 60,
                    "time": 440.3744280000124,
                    "velocity": 0.2677165354330709,
                    "duration": 0.11653200000000652
                },
                {
                    "name": "F3",
                    "midi": 53,
                    "time": 440.4909600000124,
                    "velocity": 0.3228346456692913,
                    "duration": 0.13983840000003056
                },
                {
                    "name": "C4",
                    "midi": 60,
                    "time": 440.6074920000124,
                    "velocity": 0.2677165354330709,
                    "duration": 0.13983840000003056
                },
                {
                    "name": "G#3",
                    "midi": 56,
                    "time": 440.72402400001243,
                    "velocity": 0.29133858267716534,
                    "duration": 0.13983840000003056
                },
                {
                    "name": "C4",
                    "midi": 60,
                    "time": 440.84055600001244,
                    "velocity": 0.2677165354330709,
                    "duration": 0.13983840000003056
                },
                {
                    "name": "F3",
                    "midi": 53,
                    "time": 440.95708800001245,
                    "velocity": 0.36220472440944884,
                    "duration": 0.13983840000003056
                },
                {
                    "name": "C4",
                    "midi": 60,
                    "time": 441.07362000001245,
                    "velocity": 0.28346456692913385,
                    "duration": 0.13983840000003056
                },
                {
                    "name": "G#3",
                    "midi": 56,
                    "time": 441.19015200001246,
                    "velocity": 0.3228346456692913,
                    "duration": 0.13983840000003056
                },
                {
                    "name": "C4",
                    "midi": 60,
                    "time": 441.30668400001247,
                    "velocity": 0.29133858267716534,
                    "duration": 0.13983840000003056
                },
                {
                    "name": "F3",
                    "midi": 53,
                    "time": 441.4232160000125,
                    "velocity": 0.3858267716535433,
                    "duration": 0.13983840000003056
                },
                {
                    "name": "C4",
                    "midi": 60,
                    "time": 441.5397480000125,
                    "velocity": 0.30708661417322836,
                    "duration": 0.13983840000003056
                },
                {
                    "name": "G#3",
                    "midi": 56,
                    "time": 441.6562800000125,
                    "velocity": 0.3464566929133858,
                    "duration": 0.13983840000003056
                },
                {
                    "name": "C4",
                    "midi": 60,
                    "time": 441.7728120000125,
                    "velocity": 0.30708661417322836,
                    "duration": 0.13983840000003056
                },
                {
                    "name": "F3",
                    "midi": 53,
                    "time": 441.8893440000125,
                    "velocity": 0.3858267716535433,
                    "duration": 0.13983840000003056
                },
                {
                    "name": "C4",
                    "midi": 60,
                    "time": 442.0058760000125,
                    "velocity": 0.33858267716535434,
                    "duration": 0.13983840000003056
                },
                {
                    "name": "G#3",
                    "midi": 56,
                    "time": 442.1224080000125,
                    "velocity": 0.3543307086614173,
                    "duration": 0.13983840000003056
                },
                {
                    "name": "C4",
                    "midi": 60,
                    "time": 442.2389400000125,
                    "velocity": 0.33858267716535434,
                    "duration": 0.13983840000003056
                },
                {
                    "name": "F3",
                    "midi": 53,
                    "time": 442.3554720000125,
                    "velocity": 0.3858267716535433,
                    "duration": 0.13983840000003056
                },
                {
                    "name": "C4",
                    "midi": 60,
                    "time": 442.47200400001253,
                    "velocity": 0.33858267716535434,
                    "duration": 0.13983840000003056
                },
                {
                    "name": "G#3",
                    "midi": 56,
                    "time": 442.58853600001254,
                    "velocity": 0.3543307086614173,
                    "duration": 0.13983840000003056
                },
                {
                    "name": "C4",
                    "midi": 60,
                    "time": 442.70506800001255,
                    "velocity": 0.33858267716535434,
                    "duration": 0.13983840000003056
                },
                {
                    "name": "F3",
                    "midi": 53,
                    "time": 442.82160000001255,
                    "velocity": 0.3779527559055118,
                    "duration": 0.13983840000003056
                },
                {
                    "name": "D4",
                    "midi": 62,
                    "time": 442.93813200001256,
                    "velocity": 0.30708661417322836,
                    "duration": 0.13983840000003056
                },
                {
                    "name": "G#3",
                    "midi": 56,
                    "time": 443.05466400001256,
                    "velocity": 0.3543307086614173,
                    "duration": 0.13983840000003056
                },
                {
                    "name": "D4",
                    "midi": 62,
                    "time": 443.17119600001257,
                    "velocity": 0.31496062992125984,
                    "duration": 0.13983840000003056
                },
                {
                    "name": "F3",
                    "midi": 53,
                    "time": 443.2877280000126,
                    "velocity": 0.3700787401574803,
                    "duration": 0.13983840000003056
                },
                {
                    "name": "D4",
                    "midi": 62,
                    "time": 443.4042600000126,
                    "velocity": 0.31496062992125984,
                    "duration": 0.13983840000003056
                },
                {
                    "name": "G#3",
                    "midi": 56,
                    "time": 443.5207920000126,
                    "velocity": 0.3543307086614173,
                    "duration": 0.13983840000003056
                },
                {
                    "name": "D4",
                    "midi": 62,
                    "time": 443.6373240000126,
                    "velocity": 0.31496062992125984,
                    "duration": 0.13983840000003056
                },
                {
                    "name": "G3",
                    "midi": 55,
                    "time": 443.7538560000126,
                    "velocity": 0.4251968503937008,
                    "duration": 0.11653200000000652
                },
                {
                    "name": "F4",
                    "midi": 65,
                    "time": 443.8703880000126,
                    "velocity": 0.36220472440944884,
                    "duration": 0.11653200000000652
                },
                {
                    "name": "D4",
                    "midi": 62,
                    "time": 443.9869200000126,
                    "velocity": 0.3779527559055118,
                    "duration": 0.11653200000000652
                },
                {
                    "name": "F4",
                    "midi": 65,
                    "time": 444.1034520000126,
                    "velocity": 0.3543307086614173,
                    "duration": 0.11653200000000652
                },
                {
                    "name": "G3",
                    "midi": 55,
                    "time": 444.21998400001263,
                    "velocity": 0.4251968503937008,
                    "duration": 0.11653200000000652
                },
                {
                    "name": "F4",
                    "midi": 65,
                    "time": 444.33651600001264,
                    "velocity": 0.3543307086614173,
                    "duration": 0.11653200000000652
                },
                {
                    "name": "D4",
                    "midi": 62,
                    "time": 444.45304800001264,
                    "velocity": 0.3779527559055118,
                    "duration": 0.11653200000000652
                },
                {
                    "name": "F4",
                    "midi": 65,
                    "time": 444.56958000001265,
                    "velocity": 0.3543307086614173,
                    "duration": 0.11653200000000652
                },
                {
                    "name": "G3",
                    "midi": 55,
                    "time": 444.68611200001266,
                    "velocity": 0.4251968503937008,
                    "duration": 0.11653200000000652
                },
                {
                    "name": "F4",
                    "midi": 65,
                    "time": 444.80264400001266,
                    "velocity": 0.36220472440944884,
                    "duration": 0.11653200000000652
                },
                {
                    "name": "D4",
                    "midi": 62,
                    "time": 444.91917600001267,
                    "velocity": 0.3779527559055118,
                    "duration": 0.11653200000000652
                },
                {
                    "name": "F4",
                    "midi": 65,
                    "time": 445.0357080000127,
                    "velocity": 0.3543307086614173,
                    "duration": 0.11653200000000652
                },
                {
                    "name": "G3",
                    "midi": 55,
                    "time": 445.1522400000127,
                    "velocity": 0.4094488188976378,
                    "duration": 0.11653200000000652
                },
                {
                    "name": "F4",
                    "midi": 65,
                    "time": 445.2687720000127,
                    "velocity": 0.3543307086614173,
                    "duration": 0.11653200000000652
                },
                {
                    "name": "D4",
                    "midi": 62,
                    "time": 445.3853040000127,
                    "velocity": 0.3779527559055118,
                    "duration": 0.11653200000000652
                },
                {
                    "name": "F4",
                    "midi": 65,
                    "time": 445.5018360000127,
                    "velocity": 0.3543307086614173,
                    "duration": 0.11653200000000652
                },
                {
                    "name": "G3",
                    "midi": 55,
                    "time": 445.6183680000127,
                    "velocity": 0.41732283464566927,
                    "duration": 0.11653200000000652
                },
                {
                    "name": "F4",
                    "midi": 65,
                    "time": 445.7349000000127,
                    "velocity": 0.3543307086614173,
                    "duration": 0.11653200000000652
                },
                {
                    "name": "D4",
                    "midi": 62,
                    "time": 445.8514320000127,
                    "velocity": 0.3779527559055118,
                    "duration": 0.11653200000000652
                },
                {
                    "name": "F4",
                    "midi": 65,
                    "time": 445.9679640000127,
                    "velocity": 0.3543307086614173,
                    "duration": 0.11653200000000652
                },
                {
                    "name": "G3",
                    "midi": 55,
                    "time": 446.08449600001273,
                    "velocity": 0.41732283464566927,
                    "duration": 0.11653200000000652
                },
                {
                    "name": "F4",
                    "midi": 65,
                    "time": 446.20102800001274,
                    "velocity": 0.3543307086614173,
                    "duration": 0.11653200000000652
                },
                {
                    "name": "D4",
                    "midi": 62,
                    "time": 446.31756000001275,
                    "velocity": 0.3779527559055118,
                    "duration": 0.11653200000000652
                },
                {
                    "name": "F4",
                    "midi": 65,
                    "time": 446.43409200001275,
                    "velocity": 0.3543307086614173,
                    "duration": 0.11653200000000652
                },
                {
                    "name": "G3",
                    "midi": 55,
                    "time": 446.55062400001276,
                    "velocity": 0.41732283464566927,
                    "duration": 0.11653200000000652
                },
                {
                    "name": "D4",
                    "midi": 62,
                    "time": 446.66715600001277,
                    "velocity": 0.36220472440944884,
                    "duration": 0.11653200000000652
                },
                {
                    "name": "B3",
                    "midi": 59,
                    "time": 446.7836880000128,
                    "velocity": 0.3779527559055118,
                    "duration": 0.11653200000000652
                },
                {
                    "name": "D4",
                    "midi": 62,
                    "time": 446.9002200000128,
                    "velocity": 0.3543307086614173,
                    "duration": 0.11653200000000652
                },
                {
                    "name": "G3",
                    "midi": 55,
                    "time": 447.0167520000128,
                    "velocity": 0.41732283464566927,
                    "duration": 0.11653200000000652
                },
                {
                    "name": "D4",
                    "midi": 62,
                    "time": 447.1332840000128,
                    "velocity": 0.3543307086614173,
                    "duration": 0.11653200000000652
                },
                {
                    "name": "B3",
                    "midi": 59,
                    "time": 447.2498160000128,
                    "velocity": 0.3779527559055118,
                    "duration": 0.11653200000000652
                },
                {
                    "name": "D4",
                    "midi": 62,
                    "time": 447.3663480000128,
                    "velocity": 0.3543307086614173,
                    "duration": 0.11653200000000652
                },
                {
                    "name": "G3",
                    "midi": 55,
                    "time": 447.4828800000128,
                    "velocity": 0.3779527559055118,
                    "duration": 0.11653200000000652
                },
                {
                    "name": "E4",
                    "midi": 64,
                    "time": 447.5994120000128,
                    "velocity": 0.30708661417322836,
                    "duration": 0.11653200000000652
                },
                {
                    "name": "C4",
                    "midi": 60,
                    "time": 447.7159440000128,
                    "velocity": 0.3464566929133858,
                    "duration": 0.11653200000000652
                },
                {
                    "name": "E4",
                    "midi": 64,
                    "time": 447.83247600001283,
                    "velocity": 0.30708661417322836,
                    "duration": 0.11653200000000652
                },
                {
                    "name": "G3",
                    "midi": 55,
                    "time": 447.94900800001284,
                    "velocity": 0.3779527559055118,
                    "duration": 0.11653200000000652
                },
                {
                    "name": "D#4",
                    "midi": 63,
                    "time": 448.06554000001285,
                    "velocity": 0.3228346456692913,
                    "duration": 0.11653200000000652
                },
                {
                    "name": "C4",
                    "midi": 60,
                    "time": 448.18207200001285,
                    "velocity": 0.3464566929133858,
                    "duration": 0.11653200000000652
                },
                {
                    "name": "D#4",
                    "midi": 63,
                    "time": 448.29860400001286,
                    "velocity": 0.3228346456692913,
                    "duration": 0.11653200000000652
                },
                {
                    "name": "G3",
                    "midi": 55,
                    "time": 448.41513600001286,
                    "velocity": 0.3779527559055118,
                    "duration": 0.13983840000003056
                },
                {
                    "name": "D#4",
                    "midi": 63,
                    "time": 448.53166800001287,
                    "velocity": 0.31496062992125984,
                    "duration": 0.13983840000003056
                },
                {
                    "name": "C4",
                    "midi": 60,
                    "time": 448.6482000000129,
                    "velocity": 0.3464566929133858,
                    "duration": 0.13983840000003056
                },
                {
                    "name": "D#4",
                    "midi": 63,
                    "time": 448.7647320000129,
                    "velocity": 0.2992125984251969,
                    "duration": 0.13983840000003056
                },
                {
                    "name": "G3",
                    "midi": 55,
                    "time": 448.8812640000129,
                    "velocity": 0.3779527559055118,
                    "duration": 0.13983840000003056
                },
                {
                    "name": "D#4",
                    "midi": 63,
                    "time": 448.9977960000129,
                    "velocity": 0.31496062992125984,
                    "duration": 0.13983840000003056
                },
                {
                    "name": "C4",
                    "midi": 60,
                    "time": 449.1143280000129,
                    "velocity": 0.3543307086614173,
                    "duration": 0.13983840000003056
                },
                {
                    "name": "D#4",
                    "midi": 63,
                    "time": 449.2308600000129,
                    "velocity": 0.31496062992125984,
                    "duration": 0.13983840000003056
                },
                {
                    "name": "F#3",
                    "midi": 54,
                    "time": 449.3473920000129,
                    "velocity": 0.4251968503937008,
                    "duration": 0.11653200000000652
                },
                {
                    "name": "D#4",
                    "midi": 63,
                    "time": 449.4639240000129,
                    "velocity": 0.31496062992125984,
                    "duration": 0.11653200000000652
                },
                {
                    "name": "A#3",
                    "midi": 58,
                    "time": 449.58045600001293,
                    "velocity": 0.3464566929133858,
                    "duration": 0.11653200000000652
                },
                {
                    "name": "D#4",
                    "midi": 63,
                    "time": 449.69698800001294,
                    "velocity": 0.3228346456692913,
                    "duration": 0.11653200000000652
                },
                {
                    "name": "F#3",
                    "midi": 54,
                    "time": 449.81352000001294,
                    "velocity": 0.3858267716535433,
                    "duration": 0.11653200000000652
                },
                {
                    "name": "D#4",
                    "midi": 63,
                    "time": 449.93005200001295,
                    "velocity": 0.33070866141732286,
                    "duration": 0.11653200000000652
                },
                {
                    "name": "A#3",
                    "midi": 58,
                    "time": 450.04658400001296,
                    "velocity": 0.3543307086614173,
                    "duration": 0.11653200000000652
                },
                {
                    "name": "D#4",
                    "midi": 63,
                    "time": 450.16311600001296,
                    "velocity": 0.31496062992125984,
                    "duration": 0.11653200000000652
                },
                {
                    "name": "F#3",
                    "midi": 54,
                    "time": 450.27964800001297,
                    "velocity": 0.4251968503937008,
                    "duration": 0.11653200000000652
                },
                {
                    "name": "D#4",
                    "midi": 63,
                    "time": 450.396180000013,
                    "velocity": 0.33070866141732286,
                    "duration": 0.11653200000000652
                },
                {
                    "name": "A#3",
                    "midi": 58,
                    "time": 450.512712000013,
                    "velocity": 0.3543307086614173,
                    "duration": 0.11653200000000652
                },
                {
                    "name": "D#4",
                    "midi": 63,
                    "time": 450.629244000013,
                    "velocity": 0.33070866141732286,
                    "duration": 0.11653200000000652
                },
                {
                    "name": "F#3",
                    "midi": 54,
                    "time": 450.745776000013,
                    "velocity": 0.3779527559055118,
                    "duration": 0.11653200000000652
                },
                {
                    "name": "D#4",
                    "midi": 63,
                    "time": 450.862308000013,
                    "velocity": 0.31496062992125984,
                    "duration": 0.11653200000000652
                },
                {
                    "name": "A#3",
                    "midi": 58,
                    "time": 450.978840000013,
                    "velocity": 0.3543307086614173,
                    "duration": 0.11653200000000652
                },
                {
                    "name": "D#4",
                    "midi": 63,
                    "time": 451.095372000013,
                    "velocity": 0.31496062992125984,
                    "duration": 0.11653200000000652
                },
                {
                    "name": "F3",
                    "midi": 53,
                    "time": 451.211904000013,
                    "velocity": 0.3858267716535433,
                    "duration": 0.11653200000000652
                },
                {
                    "name": "D#4",
                    "midi": 63,
                    "time": 451.328436000013,
                    "velocity": 0.31496062992125984,
                    "duration": 0.11653200000000652
                },
                {
                    "name": "C4",
                    "midi": 60,
                    "time": 451.44496800001303,
                    "velocity": 0.3543307086614173,
                    "duration": 0.11653200000000652
                },
                {
                    "name": "D#4",
                    "midi": 63,
                    "time": 451.56150000001304,
                    "velocity": 0.3228346456692913,
                    "duration": 0.11653200000000652
                },
                {
                    "name": "F3",
                    "midi": 53,
                    "time": 451.67803200001305,
                    "velocity": 0.3937007874015748,
                    "duration": 0.11653200000000652
                },
                {
                    "name": "D#4",
                    "midi": 63,
                    "time": 451.79456400001305,
                    "velocity": 0.33070866141732286,
                    "duration": 0.11653200000000652
                },
                {
                    "name": "C4",
                    "midi": 60,
                    "time": 451.91109600001306,
                    "velocity": 0.3543307086614173,
                    "duration": 0.11653200000000652
                },
                {
                    "name": "D#4",
                    "midi": 63,
                    "time": 452.02762800001307,
                    "velocity": 0.31496062992125984,
                    "duration": 0.11653200000000652
                },
                {
                    "name": "F3",
                    "midi": 53,
                    "time": 452.1441600000131,
                    "velocity": 0.3937007874015748,
                    "duration": 0.13983840000003056
                },
                {
                    "name": "D#4",
                    "midi": 63,
                    "time": 452.2606920000131,
                    "velocity": 0.33858267716535434,
                    "duration": 0.13983840000003056
                },
                {
                    "name": "C4",
                    "midi": 60,
                    "time": 452.3772240000131,
                    "velocity": 0.3779527559055118,
                    "duration": 0.13983840000003056
                },
                {
                    "name": "D#4",
                    "midi": 63,
                    "time": 452.4937560000131,
                    "velocity": 0.33858267716535434,
                    "duration": 0.13983840000003056
                },
                {
                    "name": "F3",
                    "midi": 53,
                    "time": 452.6102880000131,
                    "velocity": 0.4251968503937008,
                    "duration": 0.13983840000003056
                },
                {
                    "name": "D#4",
                    "midi": 63,
                    "time": 452.7268200000131,
                    "velocity": 0.3543307086614173,
                    "duration": 0.13983840000003056
                },
                {
                    "name": "C4",
                    "midi": 60,
                    "time": 452.8433520000131,
                    "velocity": 0.3779527559055118,
                    "duration": 0.13983840000003056
                },
                {
                    "name": "D#4",
                    "midi": 63,
                    "time": 452.9598840000131,
                    "velocity": 0.3543307086614173,
                    "duration": 0.13983840000003056
                },
                {
                    "name": "F3",
                    "midi": 53,
                    "time": 453.0764160000131,
                    "velocity": 0.4251968503937008,
                    "duration": 0.13983840000003056
                },
                {
                    "name": "D#4",
                    "midi": 63,
                    "time": 453.19294800001313,
                    "velocity": 0.3543307086614173,
                    "duration": 0.13983840000003056
                },
                {
                    "name": "C4",
                    "midi": 60,
                    "time": 453.30948000001314,
                    "velocity": 0.3779527559055118,
                    "duration": 0.13983840000003056
                },
                {
                    "name": "D#4",
                    "midi": 63,
                    "time": 453.42601200001315,
                    "velocity": 0.3464566929133858,
                    "duration": 0.13983840000003056
                },
                {
                    "name": "F3",
                    "midi": 53,
                    "time": 453.54254400001315,
                    "velocity": 0.4251968503937008,
                    "duration": 0.13983840000003056
                },
                {
                    "name": "D#4",
                    "midi": 63,
                    "time": 453.65907600001316,
                    "velocity": 0.3543307086614173,
                    "duration": 0.13983840000003056
                },
                {
                    "name": "C4",
                    "midi": 60,
                    "time": 453.77560800001316,
                    "velocity": 0.3779527559055118,
                    "duration": 0.13983840000003056
                },
                {
                    "name": "D#4",
                    "midi": 63,
                    "time": 453.89214000001317,
                    "velocity": 0.3464566929133858,
                    "duration": 0.13983840000003056
                },
                {
                    "name": "F3",
                    "midi": 53,
                    "time": 454.0086720000132,
                    "velocity": 0.4094488188976378,
                    "duration": 0.13983840000003056
                },
                {
                    "name": "C4",
                    "midi": 60,
                    "time": 454.1252040000132,
                    "velocity": 0.3464566929133858,
                    "duration": 0.13983840000003056
                },
                {
                    "name": "A3",
                    "midi": 57,
                    "time": 454.2417360000132,
                    "velocity": 0.3779527559055118,
                    "duration": 0.13983840000003056
                },
                {
                    "name": "C4",
                    "midi": 60,
                    "time": 454.3582680000132,
                    "velocity": 0.3464566929133858,
                    "duration": 0.13983840000003056
                },
                {
                    "name": "F3",
                    "midi": 53,
                    "time": 454.4748000000132,
                    "velocity": 0.41732283464566927,
                    "duration": 0.13983840000003056
                },
                {
                    "name": "C4",
                    "midi": 60,
                    "time": 454.5913320000132,
                    "velocity": 0.3464566929133858,
                    "duration": 0.13983840000003056
                },
                {
                    "name": "A3",
                    "midi": 57,
                    "time": 454.7078640000132,
                    "velocity": 0.3700787401574803,
                    "duration": 0.13983840000003056
                },
                {
                    "name": "C4",
                    "midi": 60,
                    "time": 454.8243960000132,
                    "velocity": 0.3464566929133858,
                    "duration": 0.13983840000003056
                },
                {
                    "name": "F#3",
                    "midi": 54,
                    "time": 454.94092800001323,
                    "velocity": 0.3464566929133858,
                    "duration": 0.11653200000000652
                },
                {
                    "name": "C4",
                    "midi": 60,
                    "time": 455.05746000001324,
                    "velocity": 0.30708661417322836,
                    "duration": 0.11653200000000652
                },
                {
                    "name": "A3",
                    "midi": 57,
                    "time": 455.17399200001324,
                    "velocity": 0.31496062992125984,
                    "duration": 0.13983840000003056
                },
                {
                    "name": "C4",
                    "midi": 60,
                    "time": 455.29052400001325,
                    "velocity": 0.2755905511811024,
                    "duration": 0.13983840000003056
                },
                {
                    "name": "F#3",
                    "midi": 54,
                    "time": 455.40705600001326,
                    "velocity": 0.3464566929133858,
                    "duration": 0.11653200000000652
                },
                {
                    "name": "C4",
                    "midi": 60,
                    "time": 455.52358800001326,
                    "velocity": 0.25984251968503935,
                    "duration": 0.11653200000000652
                },
                {
                    "name": "A3",
                    "midi": 57,
                    "time": 455.64012000001327,
                    "velocity": 0.30708661417322836,
                    "duration": 0.11653200000000652
                },
                {
                    "name": "C4",
                    "midi": 60,
                    "time": 455.7566520000133,
                    "velocity": 0.2677165354330709,
                    "duration": 0.11653200000000652
                },
                {
                    "name": "F#3",
                    "midi": 54,
                    "time": 455.8731840000133,
                    "velocity": 0.3464566929133858,
                    "duration": 0.11653200000000652
                },
                {
                    "name": "C4",
                    "midi": 60,
                    "time": 455.9897160000133,
                    "velocity": 0.25984251968503935,
                    "duration": 0.11653200000000652
                },
                {
                    "name": "A3",
                    "midi": 57,
                    "time": 456.1062480000133,
                    "velocity": 0.30708661417322836,
                    "duration": 0.11653200000000652
                },
                {
                    "name": "C4",
                    "midi": 60,
                    "time": 456.2227800000133,
                    "velocity": 0.25984251968503935,
                    "duration": 0.11653200000000652
                },
                {
                    "name": "F#3",
                    "midi": 54,
                    "time": 456.3393120000133,
                    "velocity": 0.3464566929133858,
                    "duration": 0.11653200000000652
                },
                {
                    "name": "D4",
                    "midi": 62,
                    "time": 456.4558440000133,
                    "velocity": 0.2755905511811024,
                    "duration": 0.11653200000000652
                },
                {
                    "name": "A3",
                    "midi": 57,
                    "time": 456.5723760000133,
                    "velocity": 0.30708661417322836,
                    "duration": 0.11653200000000652
                },
                {
                    "name": "D4",
                    "midi": 62,
                    "time": 456.6889080000133,
                    "velocity": 0.2677165354330709,
                    "duration": 0.11653200000000652
                },
                {
                    "name": "G3",
                    "midi": 55,
                    "time": 456.80544000001333,
                    "velocity": 0.3779527559055118,
                    "duration": 0.11653200000000652
                },
                {
                    "name": "D4",
                    "midi": 62,
                    "time": 456.92197200001334,
                    "velocity": 0.30708661417322836,
                    "duration": 0.11653200000000652
                },
                {
                    "name": "A#3",
                    "midi": 58,
                    "time": 457.03850400001335,
                    "velocity": 0.3464566929133858,
                    "duration": 0.11653200000000652
                },
                {
                    "name": "D4",
                    "midi": 62,
                    "time": 457.15503600001335,
                    "velocity": 0.30708661417322836,
                    "duration": 0.11653200000000652
                },
                {
                    "name": "F3",
                    "midi": 53,
                    "time": 457.27156800001336,
                    "velocity": 0.3779527559055118,
                    "duration": 0.11653200000000652
                },
                {
                    "name": "D4",
                    "midi": 62,
                    "time": 457.38810000001337,
                    "velocity": 0.2992125984251969,
                    "duration": 0.11653200000000652
                },
                {
                    "name": "A3",
                    "midi": 57,
                    "time": 457.5046320000134,
                    "velocity": 0.3464566929133858,
                    "duration": 0.11653200000000652
                },
                {
                    "name": "D4",
                    "midi": 62,
                    "time": 457.6211640000134,
                    "velocity": 0.2992125984251969,
                    "duration": 0.11653200000000652
                },
                {
                    "name": "E3",
                    "midi": 52,
                    "time": 457.7376960000134,
                    "velocity": 0.3779527559055118,
                    "duration": 0.13983840000003056
                },
                {
                    "name": "D4",
                    "midi": 62,
                    "time": 457.8542280000134,
                    "velocity": 0.2992125984251969,
                    "duration": 0.13983840000003056
                },
                {
                    "name": "G3",
                    "midi": 55,
                    "time": 457.9707600000134,
                    "velocity": 0.3464566929133858,
                    "duration": 0.13983840000003056
                },
                {
                    "name": "D4",
                    "midi": 62,
                    "time": 458.0872920000134,
                    "velocity": 0.29133858267716534,
                    "duration": 0.13983840000003056
                },
                {
                    "name": "D#3",
                    "midi": 51,
                    "time": 458.2038240000134,
                    "velocity": 0.3779527559055118,
                    "duration": 0.13983840000003056
                },
                {
                    "name": "C#4",
                    "midi": 61,
                    "time": 458.3203560000134,
                    "velocity": 0.2992125984251969,
                    "duration": 0.13983840000003056
                },
                {
                    "name": "G3",
                    "midi": 55,
                    "time": 458.4368880000134,
                    "velocity": 0.3464566929133858,
                    "duration": 0.13983840000003056
                },
                {
                    "name": "C#4",
                    "midi": 61,
                    "time": 458.55342000001343,
                    "velocity": 0.30708661417322836,
                    "duration": 0.13983840000003056
                },
                {
                    "name": "D3",
                    "midi": 50,
                    "time": 458.66995200001344,
                    "velocity": 0.2992125984251969,
                    "duration": 0.4661280000000261
                },
                {
                    "name": "D4",
                    "midi": 62,
                    "time": 458.66995200001344,
                    "velocity": 0.2992125984251969,
                    "duration": 0.4661280000000261
                },
                {
                    "name": "D4",
                    "midi": 62,
                    "time": 460.06833600001346,
                    "velocity": 0.3543307086614173,
                    "duration": 0.4661280000000261
                },
                {
                    "name": "F#4",
                    "midi": 66,
                    "time": 460.06833600001346,
                    "velocity": 0.3543307086614173,
                    "duration": 0.4661280000000261
                },
                {
                    "name": "D#4",
                    "midi": 63,
                    "time": 460.5344640000135,
                    "velocity": 0.3543307086614173,
                    "duration": 0.4661280000000261
                },
                {
                    "name": "G4",
                    "midi": 67,
                    "time": 460.5344640000135,
                    "velocity": 0.3543307086614173,
                    "duration": 0.4661280000000261
                },
                {
                    "name": "D#3",
                    "midi": 51,
                    "time": 461.9328480000135,
                    "velocity": 0.4251968503937008,
                    "duration": 0.4661280000000261
                },
                {
                    "name": "C#4",
                    "midi": 61,
                    "time": 461.9328480000135,
                    "velocity": 0.4251968503937008,
                    "duration": 0.4661280000000261
                },
                {
                    "name": "D3",
                    "midi": 50,
                    "time": 462.39897600001353,
                    "velocity": 0.3858267716535433,
                    "duration": 0.4661280000000261
                },
                {
                    "name": "D4",
                    "midi": 62,
                    "time": 462.39897600001353,
                    "velocity": 0.3858267716535433,
                    "duration": 0.4661280000000261
                },
                {
                    "name": "D3",
                    "midi": 50,
                    "time": 463.79736000001355,
                    "velocity": 0.3543307086614173,
                    "duration": 0.4661280000000261
                },
                {
                    "name": "C4",
                    "midi": 60,
                    "time": 463.79736000001355,
                    "velocity": 0.3543307086614173,
                    "duration": 0.4661280000000261
                },
                {
                    "name": "D#3",
                    "midi": 51,
                    "time": 464.2634880000136,
                    "velocity": 0.33070866141732286,
                    "duration": 0.4661280000000261
                },
                {
                    "name": "A#3",
                    "midi": 58,
                    "time": 464.2634880000136,
                    "velocity": 0.33070866141732286,
                    "duration": 0.4661280000000261
                },
                {
                    "name": "D#3",
                    "midi": 51,
                    "time": 465.6618720000136,
                    "velocity": 0.25196850393700787,
                    "duration": 0.4661280000000261
                },
                {
                    "name": "G3",
                    "midi": 55,
                    "time": 465.6618720000136,
                    "velocity": 0.25196850393700787,
                    "duration": 0.4661280000000261
                },
                {
                    "name": "D3",
                    "midi": 50,
                    "time": 466.1280000000136,
                    "velocity": 0.1889763779527559,
                    "duration": 0.23306400000001304
                },
                {
                    "name": "F#3",
                    "midi": 54,
                    "time": 466.1280000000136,
                    "velocity": 0.1889763779527559,
                    "duration": 0.23306400000001304
                },
                {
                    "name": "D3",
                    "midi": 50,
                    "time": 466.59412800001365,
                    "velocity": 0.2125984251968504,
                    "duration": 0.23306400000001304
                },
                {
                    "name": "G3",
                    "midi": 55,
                    "time": 466.59412800001365,
                    "velocity": 0.2125984251968504,
                    "duration": 0.23306400000001304
                },
                {
                    "name": "A#3",
                    "midi": 58,
                    "time": 466.59412800001365,
                    "velocity": 0.2125984251968504,
                    "duration": 0.23306400000001304
                },
                {
                    "name": "D3",
                    "midi": 50,
                    "time": 467.0602560000137,
                    "velocity": 0.2204724409448819,
                    "duration": 0.23306400000001304
                },
                {
                    "name": "F#3",
                    "midi": 54,
                    "time": 467.0602560000137,
                    "velocity": 0.2204724409448819,
                    "duration": 0.23306400000001304
                },
                {
                    "name": "A3",
                    "midi": 57,
                    "time": 467.0602560000137,
                    "velocity": 0.2204724409448819,
                    "duration": 0.23306400000001304
                },
                {
                    "name": "D3",
                    "midi": 50,
                    "time": 467.5263840000137,
                    "velocity": 0.25196850393700787,
                    "duration": 0.23306400000001304
                },
                {
                    "name": "G3",
                    "midi": 55,
                    "time": 467.5263840000137,
                    "velocity": 0.25196850393700787,
                    "duration": 0.23306400000001304
                },
                {
                    "name": "A#3",
                    "midi": 58,
                    "time": 467.5263840000137,
                    "velocity": 0.25196850393700787,
                    "duration": 0.23306400000001304
                },
                {
                    "name": "D3",
                    "midi": 50,
                    "time": 467.99251200001373,
                    "velocity": 0.2677165354330709,
                    "duration": 0.4661280000000261
                },
                {
                    "name": "F#3",
                    "midi": 54,
                    "time": 467.99251200001373,
                    "velocity": 0.2677165354330709,
                    "duration": 0.4661280000000261
                },
                {
                    "name": "A3",
                    "midi": 57,
                    "time": 467.99251200001373,
                    "velocity": 0.2677165354330709,
                    "duration": 0.4661280000000261
                },
                {
                    "name": "C4",
                    "midi": 60,
                    "time": 470.09008800001374,
                    "velocity": 0.23622047244094488,
                    "duration": 0.23306400000001304
                },
                {
                    "name": "F4",
                    "midi": 65,
                    "time": 470.09008800001374,
                    "velocity": 0.23622047244094488,
                    "duration": 0.23306400000001304
                },
                {
                    "name": "A4",
                    "midi": 69,
                    "time": 470.09008800001374,
                    "velocity": 0.2677165354330709,
                    "duration": 0.23306400000001304
                },
                {
                    "name": "C4",
                    "midi": 60,
                    "time": 470.32315200001375,
                    "velocity": 0.25984251968503935,
                    "duration": 0.23306400000001304
                },
                {
                    "name": "F4",
                    "midi": 65,
                    "time": 470.32315200001375,
                    "velocity": 0.25984251968503935,
                    "duration": 0.23306400000001304
                },
                {
                    "name": "A4",
                    "midi": 69,
                    "time": 470.32315200001375,
                    "velocity": 0.29133858267716534,
                    "duration": 0.23306400000001304
                },
                {
                    "name": "C4",
                    "midi": 60,
                    "time": 470.55621600001376,
                    "velocity": 0.28346456692913385,
                    "duration": 0.23306400000001304
                },
                {
                    "name": "F4",
                    "midi": 65,
                    "time": 470.55621600001376,
                    "velocity": 0.28346456692913385,
                    "duration": 0.23306400000001304
                },
                {
                    "name": "A4",
                    "midi": 69,
                    "time": 470.55621600001376,
                    "velocity": 0.31496062992125984,
                    "duration": 0.23306400000001304
                },
                {
                    "name": "C4",
                    "midi": 60,
                    "time": 470.7892800000138,
                    "velocity": 0.30708661417322836,
                    "duration": 0.4661280000000261
                },
                {
                    "name": "F4",
                    "midi": 65,
                    "time": 470.7892800000138,
                    "velocity": 0.30708661417322836,
                    "duration": 0.4661280000000261
                },
                {
                    "name": "A4",
                    "midi": 69,
                    "time": 470.7892800000138,
                    "velocity": 0.3464566929133858,
                    "duration": 0.4661280000000261
                },
                {
                    "name": "F4",
                    "midi": 65,
                    "time": 471.9546000000138,
                    "velocity": 0.25196850393700787,
                    "duration": 0.23306400000001304
                },
                {
                    "name": "C5",
                    "midi": 72,
                    "time": 471.9546000000138,
                    "velocity": 0.25196850393700787,
                    "duration": 0.23306400000001304
                },
                {
                    "name": "D#5",
                    "midi": 75,
                    "time": 471.9546000000138,
                    "velocity": 0.28346456692913385,
                    "duration": 0.23306400000001304
                },
                {
                    "name": "F4",
                    "midi": 65,
                    "time": 472.1876640000138,
                    "velocity": 0.28346456692913385,
                    "duration": 0.23306400000001304
                },
                {
                    "name": "C5",
                    "midi": 72,
                    "time": 472.1876640000138,
                    "velocity": 0.28346456692913385,
                    "duration": 0.23306400000001304
                },
                {
                    "name": "D#5",
                    "midi": 75,
                    "time": 472.1876640000138,
                    "velocity": 0.31496062992125984,
                    "duration": 0.23306400000001304
                },
                {
                    "name": "F4",
                    "midi": 65,
                    "time": 472.4207280000138,
                    "velocity": 0.30708661417322836,
                    "duration": 0.23306400000001304
                },
                {
                    "name": "C5",
                    "midi": 72,
                    "time": 472.4207280000138,
                    "velocity": 0.30708661417322836,
                    "duration": 0.23306400000001304
                },
                {
                    "name": "D#5",
                    "midi": 75,
                    "time": 472.4207280000138,
                    "velocity": 0.3464566929133858,
                    "duration": 0.23306400000001304
                },
                {
                    "name": "F4",
                    "midi": 65,
                    "time": 472.6537920000138,
                    "velocity": 0.33070866141732286,
                    "duration": 0.4661280000000261
                },
                {
                    "name": "C5",
                    "midi": 72,
                    "time": 472.6537920000138,
                    "velocity": 0.33070866141732286,
                    "duration": 0.4661280000000261
                },
                {
                    "name": "D#5",
                    "midi": 75,
                    "time": 472.6537920000138,
                    "velocity": 0.3700787401574803,
                    "duration": 0.4661280000000261
                },
                {
                    "name": "F4",
                    "midi": 65,
                    "time": 473.81911200001383,
                    "velocity": 0.3700787401574803,
                    "duration": 0.23306400000001304
                },
                {
                    "name": "C5",
                    "midi": 72,
                    "time": 474.05217600001384,
                    "velocity": 0.3543307086614173,
                    "duration": 0.23306400000001304
                },
                {
                    "name": "D#5",
                    "midi": 75,
                    "time": 474.28524000001386,
                    "velocity": 0.3543307086614173,
                    "duration": 0.23306400000001304
                },
                {
                    "name": "F#4",
                    "midi": 66,
                    "time": 474.51830400001387,
                    "velocity": 0.3700787401574803,
                    "duration": 0.9322559999999953
                },
                {
                    "name": "F4",
                    "midi": 65,
                    "time": 475.6836240000139,
                    "velocity": 0.2992125984251969,
                    "duration": 0.23306400000001304
                },
                {
                    "name": "C5",
                    "midi": 72,
                    "time": 475.9166880000139,
                    "velocity": 0.3228346456692913,
                    "duration": 0.23306400000001304
                },
                {
                    "name": "D#5",
                    "midi": 75,
                    "time": 476.1497520000139,
                    "velocity": 0.29133858267716534,
                    "duration": 0.23306400000001304
                },
                {
                    "name": "F#4",
                    "midi": 66,
                    "time": 476.3828160000139,
                    "velocity": 0.3858267716535433,
                    "duration": 0.9322559999999953
                },
                {
                    "name": "F4",
                    "midi": 65,
                    "time": 477.3150720000139,
                    "velocity": 0.36220472440944884,
                    "duration": 0.23306400000001304
                },
                {
                    "name": "F#4",
                    "midi": 66,
                    "time": 477.78120000001394,
                    "velocity": 0.4094488188976378,
                    "duration": 0.4661280000000261
                },
                {
                    "name": "C5",
                    "midi": 72,
                    "time": 477.78120000001394,
                    "velocity": 0.4094488188976378,
                    "duration": 0.9322560000000522
                },
                {
                    "name": "D#5",
                    "midi": 75,
                    "time": 477.78120000001394,
                    "velocity": 0.4094488188976378,
                    "duration": 0.9322560000000522
                },
                {
                    "name": "F4",
                    "midi": 65,
                    "time": 478.24732800001397,
                    "velocity": 0.3858267716535433,
                    "duration": 0.4661280000000261
                },
                {
                    "name": "C5",
                    "midi": 72,
                    "time": 478.713456000014,
                    "velocity": 0.41732283464566927,
                    "duration": 0.9322560000000522
                },
                {
                    "name": "D#5",
                    "midi": 75,
                    "time": 478.713456000014,
                    "velocity": 0.41732283464566927,
                    "duration": 0.9322560000000522
                },
                {
                    "name": "F#4",
                    "midi": 66,
                    "time": 478.713456000014,
                    "velocity": 0.41732283464566927,
                    "duration": 0.4661280000000261
                },
                {
                    "name": "F4",
                    "midi": 65,
                    "time": 479.179584000014,
                    "velocity": 0.3937007874015748,
                    "duration": 0.4661280000000261
                },
                {
                    "name": "A#3",
                    "midi": 58,
                    "time": 483.141672000014,
                    "velocity": 0.29133858267716534,
                    "duration": 0.23306400000001304
                },
                {
                    "name": "D4",
                    "midi": 62,
                    "time": 483.374736000014,
                    "velocity": 0.29133858267716534,
                    "duration": 0.23306400000001304
                },
                {
                    "name": "F4",
                    "midi": 65,
                    "time": 483.60780000001404,
                    "velocity": 0.25984251968503935,
                    "duration": 0.23306400000001304
                },
                {
                    "name": "D4",
                    "midi": 62,
                    "time": 483.84086400001405,
                    "velocity": 0.28346456692913385,
                    "duration": 0.23306400000001304
                },
                {
                    "name": "A#3",
                    "midi": 58,
                    "time": 484.07392800001406,
                    "velocity": 0.25984251968503935,
                    "duration": 0.23306400000001304
                },
                {
                    "name": "D4",
                    "midi": 62,
                    "time": 484.3069920000141,
                    "velocity": 0.3228346456692913,
                    "duration": 0.23306400000001304
                },
                {
                    "name": "G4",
                    "midi": 67,
                    "time": 484.5400560000141,
                    "velocity": 0.2992125984251969,
                    "duration": 0.23306400000001304
                },
                {
                    "name": "C4",
                    "midi": 60,
                    "time": 485.0061840000141,
                    "velocity": 0.2677165354330709,
                    "duration": 0.23306400000001304
                },
                {
                    "name": "D#4",
                    "midi": 63,
                    "time": 485.23924800001413,
                    "velocity": 0.30708661417322836,
                    "duration": 0.23306400000001304
                },
                {
                    "name": "G4",
                    "midi": 67,
                    "time": 485.47231200001414,
                    "velocity": 0.28346456692913385,
                    "duration": 0.23306400000001304
                },
                {
                    "name": "D#4",
                    "midi": 63,
                    "time": 485.70537600001416,
                    "velocity": 0.3464566929133858,
                    "duration": 0.23306400000001304
                },
                {
                    "name": "C4",
                    "midi": 60,
                    "time": 485.93844000001417,
                    "velocity": 0.29133858267716534,
                    "duration": 0.23306400000001304
                },
                {
                    "name": "D#4",
                    "midi": 63,
                    "time": 486.1715040000142,
                    "velocity": 0.2992125984251969,
                    "duration": 0.23306400000001304
                },
                {
                    "name": "G4",
                    "midi": 67,
                    "time": 486.4045680000142,
                    "velocity": 0.2677165354330709,
                    "duration": 0.23306400000001304
                },
                {
                    "name": "F3",
                    "midi": 53,
                    "time": 486.8706960000142,
                    "velocity": 0.2755905511811024,
                    "duration": 0.23306400000001304
                },
                {
                    "name": "C4",
                    "midi": 60,
                    "time": 487.10376000001423,
                    "velocity": 0.2755905511811024,
                    "duration": 0.23306400000001304
                },
                {
                    "name": "D#4",
                    "midi": 63,
                    "time": 487.33682400001425,
                    "velocity": 0.2677165354330709,
                    "duration": 0.23306400000001304
                },
                {
                    "name": "C4",
                    "midi": 60,
                    "time": 487.56988800001426,
                    "velocity": 0.3700787401574803,
                    "duration": 0.23306400000001304
                },
                {
                    "name": "F3",
                    "midi": 53,
                    "time": 487.8029520000143,
                    "velocity": 0.28346456692913385,
                    "duration": 0.23306400000001304
                },
                {
                    "name": "C4",
                    "midi": 60,
                    "time": 488.0360160000143,
                    "velocity": 0.33858267716535434,
                    "duration": 0.23306400000001304
                },
                {
                    "name": "D#4",
                    "midi": 63,
                    "time": 488.2690800000143,
                    "velocity": 0.28346456692913385,
                    "duration": 0.23306400000001304
                },
                {
                    "name": "A#3",
                    "midi": 58,
                    "time": 488.7352080000143,
                    "velocity": 0.33070866141732286,
                    "duration": 0.23306400000001304
                },
                {
                    "name": "D4",
                    "midi": 62,
                    "time": 488.96827200001434,
                    "velocity": 0.33070866141732286,
                    "duration": 0.23306400000001304
                },
                {
                    "name": "F4",
                    "midi": 65,
                    "time": 489.20133600001435,
                    "velocity": 0.28346456692913385,
                    "duration": 0.23306400000001304
                },
                {
                    "name": "D4",
                    "midi": 62,
                    "time": 489.43440000001436,
                    "velocity": 0.3543307086614173,
                    "duration": 0.23306400000001304
                },
                {
                    "name": "A#3",
                    "midi": 58,
                    "time": 489.6674640000144,
                    "velocity": 0.33070866141732286,
                    "duration": 0.23306400000001304
                },
                {
                    "name": "D4",
                    "midi": 62,
                    "time": 489.9005280000144,
                    "velocity": 0.33070866141732286,
                    "duration": 0.23306400000001304
                },
                {
                    "name": "F4",
                    "midi": 65,
                    "time": 490.1335920000144,
                    "velocity": 0.30708661417322836,
                    "duration": 0.23306400000001304
                },
                {
                    "name": "D#4",
                    "midi": 63,
                    "time": 490.3666560000144,
                    "velocity": 0.3543307086614173,
                    "duration": 0.23306400000001304
                },
                {
                    "name": "G4",
                    "midi": 67,
                    "time": 490.59972000001443,
                    "velocity": 0.29133858267716534,
                    "duration": 0.23306400000001304
                },
                {
                    "name": "D4",
                    "midi": 62,
                    "time": 490.83278400001444,
                    "velocity": 0.31496062992125984,
                    "duration": 0.23306400000001304
                },
                {
                    "name": "F4",
                    "midi": 65,
                    "time": 491.06584800001446,
                    "velocity": 0.2755905511811024,
                    "duration": 0.23306400000001304
                },
                {
                    "name": "D#4",
                    "midi": 63,
                    "time": 491.29891200001447,
                    "velocity": 0.3543307086614173,
                    "duration": 0.23306400000001304
                },
                {
                    "name": "G4",
                    "midi": 67,
                    "time": 491.5319760000145,
                    "velocity": 0.2755905511811024,
                    "duration": 0.23306400000001304
                },
                {
                    "name": "C4",
                    "midi": 60,
                    "time": 491.7650400000145,
                    "velocity": 0.2992125984251969,
                    "duration": 0.23306400000001304
                },
                {
                    "name": "D#4",
                    "midi": 63,
                    "time": 491.9981040000145,
                    "velocity": 0.25196850393700787,
                    "duration": 0.23306400000001304
                },
                {
                    "name": "D4",
                    "midi": 62,
                    "time": 492.2311680000145,
                    "velocity": 0.33070866141732286,
                    "duration": 0.4661280000000261
                },
                {
                    "name": "F4",
                    "midi": 65,
                    "time": 492.2311680000145,
                    "velocity": 0.33070866141732286,
                    "duration": 0.4661280000000261
                },
                {
                    "name": "D#4",
                    "midi": 63,
                    "time": 494.09568000001457,
                    "velocity": 0.3700787401574803,
                    "duration": 0.23306400000001304
                },
                {
                    "name": "G4",
                    "midi": 67,
                    "time": 494.3287440000146,
                    "velocity": 0.28346456692913385,
                    "duration": 0.23306400000001304
                },
                {
                    "name": "D4",
                    "midi": 62,
                    "time": 494.5618080000146,
                    "velocity": 0.31496062992125984,
                    "duration": 0.23306400000001304
                },
                {
                    "name": "F4",
                    "midi": 65,
                    "time": 494.7948720000146,
                    "velocity": 0.25984251968503935,
                    "duration": 0.23306400000001304
                },
                {
                    "name": "D#4",
                    "midi": 63,
                    "time": 495.0279360000146,
                    "velocity": 0.3700787401574803,
                    "duration": 0.23306400000001304
                },
                {
                    "name": "G4",
                    "midi": 67,
                    "time": 495.26100000001463,
                    "velocity": 0.29133858267716534,
                    "duration": 0.23306400000001304
                },
                {
                    "name": "C4",
                    "midi": 60,
                    "time": 495.49406400001465,
                    "velocity": 0.30708661417322836,
                    "duration": 0.23306400000001304
                },
                {
                    "name": "D#4",
                    "midi": 63,
                    "time": 495.72712800001466,
                    "velocity": 0.25196850393700787,
                    "duration": 0.23306400000001304
                },
                {
                    "name": "F4",
                    "midi": 65,
                    "time": 495.9601920000147,
                    "velocity": 0.3700787401574803,
                    "duration": 0.4661280000000261
                },
                {
                    "name": "D4",
                    "midi": 62,
                    "time": 495.9601920000147,
                    "velocity": 0.3700787401574803,
                    "duration": 0.4661280000000261
                },
                {
                    "name": "A3",
                    "midi": 57,
                    "time": 497.8247040000147,
                    "velocity": 0.48031496062992124,
                    "duration": 0.4661280000000261
                },
                {
                    "name": "A#3",
                    "midi": 58,
                    "time": 498.29083200001475,
                    "velocity": 0.4330708661417323,
                    "duration": 0.4661280000000261
                },
                {
                    "name": "D#3",
                    "midi": 51,
                    "time": 498.7569600000148,
                    "velocity": 0.49606299212598426,
                    "duration": 0.4661280000000261
                },
                {
                    "name": "F3",
                    "midi": 53,
                    "time": 499.2230880000148,
                    "velocity": 0.44881889763779526,
                    "duration": 0.4661280000000261
                },
                {
                    "name": "A#2",
                    "midi": 46,
                    "time": 499.92228000001484,
                    "velocity": 0.4094488188976378,
                    "duration": 0.11653200000000652
                },
                {
                    "name": "D3",
                    "midi": 50,
                    "time": 500.15534400001485,
                    "velocity": 0.4330708661417323,
                    "duration": 0.11653200000000652
                },
                {
                    "name": "F3",
                    "midi": 53,
                    "time": 500.38840800001486,
                    "velocity": 0.3937007874015748,
                    "duration": 0.11653200000000652
                },
                {
                    "name": "A#3",
                    "midi": 58,
                    "time": 500.6214720000149,
                    "velocity": 0.48031496062992124,
                    "duration": 0.4661280000000261
                },
                {
                    "name": "A#2",
                    "midi": 46,
                    "time": 501.7867920000149,
                    "velocity": 0.2677165354330709,
                    "duration": 0.23306400000001304
                },
                {
                    "name": "D3",
                    "midi": 50,
                    "time": 502.0198560000149,
                    "velocity": 0.29133858267716534,
                    "duration": 0.23306400000001304
                },
                {
                    "name": "F3",
                    "midi": 53,
                    "time": 502.2529200000149,
                    "velocity": 0.2677165354330709,
                    "duration": 0.23306400000001304
                },
                {
                    "name": "D3",
                    "midi": 50,
                    "time": 502.4859840000149,
                    "velocity": 0.33858267716535434,
                    "duration": 0.23306400000001304
                },
                {
                    "name": "A#2",
                    "midi": 46,
                    "time": 502.71904800001494,
                    "velocity": 0.2755905511811024,
                    "duration": 0.23306400000001304
                },
                {
                    "name": "D3",
                    "midi": 50,
                    "time": 502.95211200001495,
                    "velocity": 0.30708661417322836,
                    "duration": 0.23306400000001304
                },
                {
                    "name": "F3",
                    "midi": 53,
                    "time": 503.18517600001496,
                    "velocity": 0.30708661417322836,
                    "duration": 0.23306400000001304
                },
                {
                    "name": "A#2",
                    "midi": 46,
                    "time": 503.651304000015,
                    "velocity": 0.29133858267716534,
                    "duration": 0.23306400000001304
                },
                {
                    "name": "D3",
                    "midi": 50,
                    "time": 503.884368000015,
                    "velocity": 0.3228346456692913,
                    "duration": 0.23306400000001304
                },
                {
                    "name": "F3",
                    "midi": 53,
                    "time": 504.117432000015,
                    "velocity": 0.29133858267716534,
                    "duration": 0.23306400000001304
                },
                {
                    "name": "D3",
                    "midi": 50,
                    "time": 504.350496000015,
                    "velocity": 0.33858267716535434,
                    "duration": 0.23306400000001304
                },
                {
                    "name": "A#2",
                    "midi": 46,
                    "time": 504.58356000001504,
                    "velocity": 0.2992125984251969,
                    "duration": 0.23306400000001304
                },
                {
                    "name": "D3",
                    "midi": 50,
                    "time": 504.81662400001505,
                    "velocity": 0.2992125984251969,
                    "duration": 0.23306400000001304
                },
                {
                    "name": "F3",
                    "midi": 53,
                    "time": 505.04968800001507,
                    "velocity": 0.2677165354330709,
                    "duration": 0.23306400000001304
                },
                {
                    "name": "A#2",
                    "midi": 46,
                    "time": 505.5158160000151,
                    "velocity": 0.3700787401574803,
                    "duration": 0.23306400000001304
                },
                {
                    "name": "D3",
                    "midi": 50,
                    "time": 505.7488800000151,
                    "velocity": 0.3700787401574803,
                    "duration": 0.23306400000001304
                },
                {
                    "name": "F3",
                    "midi": 53,
                    "time": 505.9819440000151,
                    "velocity": 0.3543307086614173,
                    "duration": 0.23306400000001304
                },
                {
                    "name": "G#3",
                    "midi": 56,
                    "time": 506.21500800001513,
                    "velocity": 0.41732283464566927,
                    "duration": 0.23306400000001304
                },
                {
                    "name": "F3",
                    "midi": 53,
                    "time": 506.44807200001515,
                    "velocity": 0.3543307086614173,
                    "duration": 0.23306400000001304
                },
                {
                    "name": "D3",
                    "midi": 50,
                    "time": 506.68113600001516,
                    "velocity": 0.3779527559055118,
                    "duration": 0.23306400000001304
                },
                {
                    "name": "A#2",
                    "midi": 46,
                    "time": 506.91420000001517,
                    "velocity": 0.3543307086614173,
                    "duration": 0.23306400000001304
                },
                {
                    "name": "B2",
                    "midi": 47,
                    "time": 507.3803280000152,
                    "velocity": 0.28346456692913385,
                    "duration": 0.23306400000001304
                },
                {
                    "name": "D3",
                    "midi": 50,
                    "time": 507.6133920000152,
                    "velocity": 0.28346456692913385,
                    "duration": 0.23306400000001304
                },
                {
                    "name": "F3",
                    "midi": 53,
                    "time": 507.8464560000152,
                    "velocity": 0.28346456692913385,
                    "duration": 0.23306400000001304
                },
                {
                    "name": "G3",
                    "midi": 55,
                    "time": 508.07952000001524,
                    "velocity": 0.3228346456692913,
                    "duration": 0.23306400000001304
                },
                {
                    "name": "F3",
                    "midi": 53,
                    "time": 508.31258400001525,
                    "velocity": 0.25984251968503935,
                    "duration": 0.23306400000001304
                },
                {
                    "name": "D3",
                    "midi": 50,
                    "time": 508.54564800001526,
                    "velocity": 0.2677165354330709,
                    "duration": 0.23306400000001304
                },
                {
                    "name": "B2",
                    "midi": 47,
                    "time": 508.7787120000153,
                    "velocity": 0.25196850393700787,
                    "duration": 0.23306400000001304
                },
                {
                    "name": "A#3",
                    "midi": 58,
                    "time": 509.2448400000153,
                    "velocity": 0.25984251968503935,
                    "duration": 0.23306400000001304
                },
                {
                    "name": "C#4",
                    "midi": 61,
                    "time": 509.4779040000153,
                    "velocity": 0.28346456692913385,
                    "duration": 0.23306400000001304
                },
                {
                    "name": "E4",
                    "midi": 64,
                    "time": 509.7109680000153,
                    "velocity": 0.25196850393700787,
                    "duration": 0.23306400000001304
                },
                {
                    "name": "G4",
                    "midi": 67,
                    "time": 509.94403200001534,
                    "velocity": 0.31496062992125984,
                    "duration": 0.4661280000000261
                },
                {
                    "name": "A3",
                    "midi": 57,
                    "time": 511.10935200001535,
                    "velocity": 0.2677165354330709,
                    "duration": 0.23306400000001304
                },
                {
                    "name": "C4",
                    "midi": 60,
                    "time": 511.34241600001536,
                    "velocity": 0.2677165354330709,
                    "duration": 0.23306400000001304
                },
                {
                    "name": "F4",
                    "midi": 65,
                    "time": 511.5754800000154,
                    "velocity": 0.25196850393700787,
                    "duration": 0.23306400000001304
                },
                {
                    "name": "A4",
                    "midi": 69,
                    "time": 511.8085440000154,
                    "velocity": 0.30708661417322836,
                    "duration": 0.46612799999996923
                },
                {
                    "name": "A#3",
                    "midi": 58,
                    "time": 512.9738640000154,
                    "velocity": 0.25196850393700787,
                    "duration": 0.23306400000001304
                },
                {
                    "name": "D4",
                    "midi": 62,
                    "time": 513.2069280000154,
                    "velocity": 0.2677165354330709,
                    "duration": 0.23306400000001304
                },
                {
                    "name": "F4",
                    "midi": 65,
                    "time": 513.4399920000154,
                    "velocity": 0.23622047244094488,
                    "duration": 0.23306400000001304
                },
                {
                    "name": "A#4",
                    "midi": 70,
                    "time": 513.6730560000154,
                    "velocity": 0.2992125984251969,
                    "duration": 0.4661280000000261
                },
                {
                    "name": "D#4",
                    "midi": 63,
                    "time": 514.6053120000155,
                    "velocity": 0.33070866141732286,
                    "duration": 0.23306400000001304
                },
                {
                    "name": "G4",
                    "midi": 67,
                    "time": 514.8383760000155,
                    "velocity": 0.2992125984251969,
                    "duration": 0.23306400000001304
                },
                {
                    "name": "D#4",
                    "midi": 63,
                    "time": 515.0714400000155,
                    "velocity": 0.33070866141732286,
                    "duration": 0.23306400000001304
                },
                {
                    "name": "F4",
                    "midi": 65,
                    "time": 515.3045040000155,
                    "velocity": 0.2992125984251969,
                    "duration": 0.23306400000001304
                },
                {
                    "name": "D4",
                    "midi": 62,
                    "time": 515.5375680000155,
                    "velocity": 0.3228346456692913,
                    "duration": 0.23306400000001304
                },
                {
                    "name": "F4",
                    "midi": 65,
                    "time": 515.7706320000156,
                    "velocity": 0.2992125984251969,
                    "duration": 0.23306400000001304
                },
                {
                    "name": "D4",
                    "midi": 62,
                    "time": 516.0036960000156,
                    "velocity": 0.3228346456692913,
                    "duration": 0.23306400000001304
                },
                {
                    "name": "F4",
                    "midi": 65,
                    "time": 516.2367600000156,
                    "velocity": 0.2992125984251969,
                    "duration": 0.23306400000001304
                },
                {
                    "name": "D#4",
                    "midi": 63,
                    "time": 516.4698240000156,
                    "velocity": 0.3228346456692913,
                    "duration": 0.23306400000001304
                },
                {
                    "name": "F4",
                    "midi": 65,
                    "time": 516.7028880000156,
                    "velocity": 0.2992125984251969,
                    "duration": 0.23306400000001304
                },
                {
                    "name": "D#4",
                    "midi": 63,
                    "time": 516.9359520000156,
                    "velocity": 0.3228346456692913,
                    "duration": 0.23306400000001304
                },
                {
                    "name": "F4",
                    "midi": 65,
                    "time": 517.1690160000156,
                    "velocity": 0.2992125984251969,
                    "duration": 0.23306400000001304
                },
                {
                    "name": "D4",
                    "midi": 62,
                    "time": 517.4020800000156,
                    "velocity": 0.3228346456692913,
                    "duration": 0.23306400000001304
                },
                {
                    "name": "F4",
                    "midi": 65,
                    "time": 517.6351440000157,
                    "velocity": 0.2992125984251969,
                    "duration": 0.23306400000001304
                },
                {
                    "name": "D4",
                    "midi": 62,
                    "time": 517.8682080000157,
                    "velocity": 0.3228346456692913,
                    "duration": 0.23306400000001304
                },
                {
                    "name": "F4",
                    "midi": 65,
                    "time": 518.1012720000157,
                    "velocity": 0.2992125984251969,
                    "duration": 0.23306400000001304
                },
                {
                    "name": "D#4",
                    "midi": 63,
                    "time": 518.3343360000157,
                    "velocity": 0.3228346456692913,
                    "duration": 0.23306400000001304
                },
                {
                    "name": "G4",
                    "midi": 67,
                    "time": 518.5674000000157,
                    "velocity": 0.2992125984251969,
                    "duration": 0.23306400000001304
                },
                {
                    "name": "D#4",
                    "midi": 63,
                    "time": 518.8004640000157,
                    "velocity": 0.3228346456692913,
                    "duration": 0.23306400000001304
                },
                {
                    "name": "G4",
                    "midi": 67,
                    "time": 519.0335280000157,
                    "velocity": 0.2992125984251969,
                    "duration": 0.23306400000001304
                },
                {
                    "name": "E4",
                    "midi": 64,
                    "time": 519.2665920000157,
                    "velocity": 0.3228346456692913,
                    "duration": 0.23306400000001304
                },
                {
                    "name": "G4",
                    "midi": 67,
                    "time": 519.4996560000158,
                    "velocity": 0.2992125984251969,
                    "duration": 0.23306400000001304
                },
                {
                    "name": "E4",
                    "midi": 64,
                    "time": 519.7327200000158,
                    "velocity": 0.3228346456692913,
                    "duration": 0.23306400000001304
                },
                {
                    "name": "G4",
                    "midi": 67,
                    "time": 519.9657840000158,
                    "velocity": 0.2992125984251969,
                    "duration": 0.23306400000001304
                },
                {
                    "name": "F3",
                    "midi": 53,
                    "time": 520.1988480000158,
                    "velocity": 0.3228346456692913,
                    "duration": 0.4661280000000261
                },
                {
                    "name": "G3",
                    "midi": 55,
                    "time": 520.6649760000158,
                    "velocity": 0.3700787401574803,
                    "duration": 0.4661280000000261
                },
                {
                    "name": "A3",
                    "midi": 57,
                    "time": 521.1311040000159,
                    "velocity": 0.4094488188976378,
                    "duration": 0.4661280000000261
                },
                {
                    "name": "A#3",
                    "midi": 58,
                    "time": 521.5972320000159,
                    "velocity": 0.4566929133858268,
                    "duration": 0.4661280000000261
                },
                {
                    "name": "C4",
                    "midi": 60,
                    "time": 522.0633600000159,
                    "velocity": 0.5039370078740157,
                    "duration": 0.23306400000001304
                },
                {
                    "name": "F4",
                    "midi": 65,
                    "time": 522.2964240000159,
                    "velocity": 0.3543307086614173,
                    "duration": 0.23306400000001304
                },
                {
                    "name": "A3",
                    "midi": 57,
                    "time": 522.5294880000159,
                    "velocity": 0.4015748031496063,
                    "duration": 0.23306400000001304
                },
                {
                    "name": "F4",
                    "midi": 65,
                    "time": 522.762552000016,
                    "velocity": 0.36220472440944884,
                    "duration": 0.23306400000001304
                },
                {
                    "name": "A#3",
                    "midi": 58,
                    "time": 522.995616000016,
                    "velocity": 0.4094488188976378,
                    "duration": 0.23306400000001304
                },
                {
                    "name": "F4",
                    "midi": 65,
                    "time": 523.228680000016,
                    "velocity": 0.36220472440944884,
                    "duration": 0.23306400000001304
                },
                {
                    "name": "G3",
                    "midi": 55,
                    "time": 523.461744000016,
                    "velocity": 0.4094488188976378,
                    "duration": 0.23306400000001304
                },
                {
                    "name": "F4",
                    "midi": 65,
                    "time": 523.694808000016,
                    "velocity": 0.36220472440944884,
                    "duration": 0.23306400000001304
                },
                {
                    "name": "F3",
                    "midi": 53,
                    "time": 523.927872000016,
                    "velocity": 0.31496062992125984,
                    "duration": 0.4661280000000261
                },
                {
                    "name": "G3",
                    "midi": 55,
                    "time": 524.394000000016,
                    "velocity": 0.36220472440944884,
                    "duration": 0.4661280000000261
                },
                {
                    "name": "A3",
                    "midi": 57,
                    "time": 524.8601280000161,
                    "velocity": 0.4015748031496063,
                    "duration": 0.4661280000000261
                },
                {
                    "name": "A#3",
                    "midi": 58,
                    "time": 525.3262560000161,
                    "velocity": 0.4566929133858268,
                    "duration": 0.4661280000000261
                },
                {
                    "name": "C4",
                    "midi": 60,
                    "time": 525.7923840000161,
                    "velocity": 0.5039370078740157,
                    "duration": 0.11653200000000652
                },
                {
                    "name": "F4",
                    "midi": 65,
                    "time": 525.9089160000161,
                    "velocity": 0.3543307086614173,
                    "duration": 0.11653200000000652
                },
                {
                    "name": "E4",
                    "midi": 64,
                    "time": 526.0254480000161,
                    "velocity": 0.3858267716535433,
                    "duration": 0.11653200000000652
                },
                {
                    "name": "F4",
                    "midi": 65,
                    "time": 526.1419800000161,
                    "velocity": 0.3543307086614173,
                    "duration": 0.11653200000000652
                },
                {
                    "name": "A3",
                    "midi": 57,
                    "time": 526.2585120000161,
                    "velocity": 0.4409448818897638,
                    "duration": 0.11653200000000652
                },
                {
                    "name": "F4",
                    "midi": 65,
                    "time": 526.3750440000161,
                    "velocity": 0.36220472440944884,
                    "duration": 0.11653200000000652
                },
                {
                    "name": "E4",
                    "midi": 64,
                    "time": 526.4915760000162,
                    "velocity": 0.3858267716535433,
                    "duration": 0.11653200000000652
                },
                {
                    "name": "F4",
                    "midi": 65,
                    "time": 526.6081080000162,
                    "velocity": 0.36220472440944884,
                    "duration": 0.11653200000000652
                },
                {
                    "name": "A#3",
                    "midi": 58,
                    "time": 526.7246400000162,
                    "velocity": 0.4409448818897638,
                    "duration": 0.11653200000000652
                },
                {
                    "name": "F4",
                    "midi": 65,
                    "time": 526.8411720000162,
                    "velocity": 0.36220472440944884,
                    "duration": 0.11653200000000652
                },
                {
                    "name": "E4",
                    "midi": 64,
                    "time": 526.9577040000162,
                    "velocity": 0.3858267716535433,
                    "duration": 0.11653200000000652
                },
                {
                    "name": "F4",
                    "midi": 65,
                    "time": 527.0742360000162,
                    "velocity": 0.3700787401574803,
                    "duration": 0.11653200000000652
                },
                {
                    "name": "G3",
                    "midi": 55,
                    "time": 527.1907680000162,
                    "velocity": 0.44881889763779526,
                    "duration": 0.11653200000000652
                },
                {
                    "name": "E4",
                    "midi": 64,
                    "time": 527.3073000000162,
                    "velocity": 0.3543307086614173,
                    "duration": 0.11653200000000652
                },
                {
                    "name": "D4",
                    "midi": 62,
                    "time": 527.4238320000162,
                    "velocity": 0.3858267716535433,
                    "duration": 0.11653200000000652
                },
                {
                    "name": "E4",
                    "midi": 64,
                    "time": 527.5403640000162,
                    "velocity": 0.36220472440944884,
                    "duration": 0.11653200000000652
                },
                {
                    "name": "F3",
                    "midi": 53,
                    "time": 527.6568960000162,
                    "velocity": 0.4645669291338583,
                    "duration": 0.46127249999995
                },
                {
                    "name": "F4",
                    "midi": 65,
                    "time": 527.6568960000162,
                    "velocity": 0.4645669291338583,
                    "duration": 0.46127249999995
                },
                {
                    "name": "F1",
                    "midi": 29,
                    "time": 528.5891520000162,
                    "velocity": 0.5905511811023622,
                    "duration": 0.23306400000001304
                },
                {
                    "name": "F2",
                    "midi": 41,
                    "time": 528.5891520000162,
                    "velocity": 0.5905511811023622,
                    "duration": 0.23306400000001304
                },
                {
                    "name": "A#1",
                    "midi": 34,
                    "time": 529.5214080000162,
                    "velocity": 0.4566929133858268,
                    "duration": 0.9322560000000522
                },
                {
                    "name": "A#2",
                    "midi": 46,
                    "time": 529.5214080000162,
                    "velocity": 0.4566929133858268,
                    "duration": 0.9322560000000522
                },
                {
                    "name": "D#2",
                    "midi": 39,
                    "time": 531.8520480000162,
                    "velocity": 0.44881889763779526,
                    "duration": 0.9322560000000522
                },
                {
                    "name": "D#3",
                    "midi": 51,
                    "time": 531.8520480000162,
                    "velocity": 0.44881889763779526,
                    "duration": 0.9322560000000522
                },
                {
                    "name": "D3",
                    "midi": 50,
                    "time": 532.7843040000163,
                    "velocity": 0.3464566929133858,
                    "duration": 0.4661280000000261
                },
                {
                    "name": "E3",
                    "midi": 52,
                    "time": 533.2504320000163,
                    "velocity": 0.2992125984251969,
                    "duration": 0.4661280000000261
                },
                {
                    "name": "G3",
                    "midi": 55,
                    "time": 533.2504320000163,
                    "velocity": 0.2992125984251969,
                    "duration": 0.4661280000000261
                },
                {
                    "name": "F3",
                    "midi": 53,
                    "time": 533.7165600000163,
                    "velocity": 0.2992125984251969,
                    "duration": 0.4661280000000261
                },
                {
                    "name": "G3",
                    "midi": 55,
                    "time": 534.1826880000164,
                    "velocity": 0.2992125984251969,
                    "duration": 0.4661280000000261
                },
                {
                    "name": "E3",
                    "midi": 52,
                    "time": 534.1826880000164,
                    "velocity": 0.2992125984251969,
                    "duration": 0.4661280000000261
                },
                {
                    "name": "F3",
                    "midi": 53,
                    "time": 534.6488160000164,
                    "velocity": 0.31496062992125984,
                    "duration": 0.4661280000000261
                },
                {
                    "name": "G3",
                    "midi": 55,
                    "time": 535.1149440000164,
                    "velocity": 0.30708661417322836,
                    "duration": 0.4661280000000261
                },
                {
                    "name": "A3",
                    "midi": 57,
                    "time": 535.5810720000164,
                    "velocity": 0.2755905511811024,
                    "duration": 0.4661280000000261
                },
                {
                    "name": "A#3",
                    "midi": 58,
                    "time": 536.0472000000165,
                    "velocity": 0.2755905511811024,
                    "duration": 0.4661280000000261
                },
                {
                    "name": "D#2",
                    "midi": 39,
                    "time": 537.2125200000165,
                    "velocity": 0.36220472440944884,
                    "duration": 0.23306400000001304
                },
                {
                    "name": "G2",
                    "midi": 43,
                    "time": 537.4455840000165,
                    "velocity": 0.36220472440944884,
                    "duration": 0.23306400000001304
                },
                {
                    "name": "C3",
                    "midi": 48,
                    "time": 537.6786480000166,
                    "velocity": 0.3543307086614173,
                    "duration": 0.23306400000001304
                },
                {
                    "name": "D#3",
                    "midi": 51,
                    "time": 537.9117120000166,
                    "velocity": 0.4094488188976378,
                    "duration": 0.4661280000000261
                },
                {
                    "name": "D2",
                    "midi": 38,
                    "time": 539.0770320000166,
                    "velocity": 0.3464566929133858,
                    "duration": 0.23306400000001304
                },
                {
                    "name": "F2",
                    "midi": 41,
                    "time": 539.3100960000166,
                    "velocity": 0.3464566929133858,
                    "duration": 0.23306400000001304
                },
                {
                    "name": "A#2",
                    "midi": 46,
                    "time": 539.5431600000167,
                    "velocity": 0.33858267716535434,
                    "duration": 0.23306400000001304
                },
                {
                    "name": "D3",
                    "midi": 50,
                    "time": 539.7762240000167,
                    "velocity": 0.4094488188976378,
                    "duration": 0.4661280000000261
                },
                {
                    "name": "C3",
                    "midi": 48,
                    "time": 540.7084800000167,
                    "velocity": 0.3464566929133858,
                    "duration": 0.4661280000000261
                },
                {
                    "name": "A2",
                    "midi": 45,
                    "time": 541.1746080000167,
                    "velocity": 0.3228346456692913,
                    "duration": 0.4661280000000261
                },
                {
                    "name": "A#2",
                    "midi": 46,
                    "time": 541.6407360000168,
                    "velocity": 0.33858267716535434,
                    "duration": 0.4661280000000261
                },
                {
                    "name": "G2",
                    "midi": 43,
                    "time": 542.1068640000168,
                    "velocity": 0.33070866141732286,
                    "duration": 0.4661280000000261
                },
                {
                    "name": "F2",
                    "midi": 41,
                    "time": 542.5729920000168,
                    "velocity": 0.3464566929133858,
                    "duration": 0.4661280000000261
                },
                {
                    "name": "F3",
                    "midi": 53,
                    "time": 543.5052480000169,
                    "velocity": 0.41732283464566927,
                    "duration": 0.11653200000000652
                },
                {
                    "name": "G3",
                    "midi": 55,
                    "time": 543.6217800000169,
                    "velocity": 0.3858267716535433,
                    "duration": 0.11653200000000652
                },
                {
                    "name": "D#3",
                    "midi": 51,
                    "time": 543.7383120000169,
                    "velocity": 0.4251968503937008,
                    "duration": 0.11653200000000652
                },
                {
                    "name": "F3",
                    "midi": 53,
                    "time": 543.8548440000169,
                    "velocity": 0.3858267716535433,
                    "duration": 0.11653200000000652
                },
                {
                    "name": "D3",
                    "midi": 50,
                    "time": 543.9713760000169,
                    "velocity": 0.4251968503937008,
                    "duration": 0.11653200000000652
                },
                {
                    "name": "D#3",
                    "midi": 51,
                    "time": 544.0879080000169,
                    "velocity": 0.3858267716535433,
                    "duration": 0.11653200000000652
                },
                {
                    "name": "C3",
                    "midi": 48,
                    "time": 544.2044400000169,
                    "velocity": 0.4409448818897638,
                    "duration": 0.11653200000000652
                },
                {
                    "name": "D3",
                    "midi": 50,
                    "time": 544.3209720000169,
                    "velocity": 0.3858267716535433,
                    "duration": 0.11653200000000652
                },
                {
                    "name": "A#2",
                    "midi": 46,
                    "time": 544.4375040000169,
                    "velocity": 0.5433070866141733,
                    "duration": 0.4661280000000261
                },
                {
                    "name": "A#3",
                    "midi": 58,
                    "time": 544.903632000017,
                    "velocity": 0.4566929133858268,
                    "duration": 0.4661280000000261
                },
                {
                    "name": "D#3",
                    "midi": 51,
                    "time": 546.768144000017,
                    "velocity": 0.4645669291338583,
                    "duration": 0.9322560000000522
                },
                {
                    "name": "D#4",
                    "midi": 63,
                    "time": 546.768144000017,
                    "velocity": 0.4645669291338583,
                    "duration": 0.9322560000000522
                },
                {
                    "name": "D4",
                    "midi": 62,
                    "time": 547.700400000017,
                    "velocity": 0.33858267716535434,
                    "duration": 0.4661280000000261
                },
                {
                    "name": "E4",
                    "midi": 64,
                    "time": 548.166528000017,
                    "velocity": 0.33858267716535434,
                    "duration": 0.4661280000000261
                },
                {
                    "name": "G4",
                    "midi": 67,
                    "time": 548.166528000017,
                    "velocity": 0.33858267716535434,
                    "duration": 0.4661280000000261
                },
                {
                    "name": "F4",
                    "midi": 65,
                    "time": 548.632656000017,
                    "velocity": 0.33858267716535434,
                    "duration": 0.4661280000000261
                },
                {
                    "name": "E4",
                    "midi": 64,
                    "time": 549.0987840000171,
                    "velocity": 0.33858267716535434,
                    "duration": 0.4661280000000261
                },
                {
                    "name": "G4",
                    "midi": 67,
                    "time": 549.0987840000171,
                    "velocity": 0.33858267716535434,
                    "duration": 0.4661280000000261
                },
                {
                    "name": "F4",
                    "midi": 65,
                    "time": 549.5649120000171,
                    "velocity": 0.3228346456692913,
                    "duration": 0.4661280000000261
                },
                {
                    "name": "G4",
                    "midi": 67,
                    "time": 550.0310400000171,
                    "velocity": 0.33858267716535434,
                    "duration": 0.4661280000000261
                },
                {
                    "name": "A#4",
                    "midi": 70,
                    "time": 550.0310400000171,
                    "velocity": 0.33858267716535434,
                    "duration": 0.4661280000000261
                },
                {
                    "name": "A4",
                    "midi": 69,
                    "time": 550.4971680000172,
                    "velocity": 0.33858267716535434,
                    "duration": 0.4661280000000261
                },
                {
                    "name": "C5",
                    "midi": 72,
                    "time": 550.4971680000172,
                    "velocity": 0.33858267716535434,
                    "duration": 0.4661280000000261
                },
                {
                    "name": "A#4",
                    "midi": 70,
                    "time": 550.9632960000172,
                    "velocity": 0.36220472440944884,
                    "duration": 0.4661280000000261
                },
                {
                    "name": "G3",
                    "midi": 55,
                    "time": 552.1286160000172,
                    "velocity": 0.4251968503937008,
                    "duration": 0.23306400000001304
                },
                {
                    "name": "G4",
                    "midi": 67,
                    "time": 552.3616800000173,
                    "velocity": 0.48031496062992124,
                    "duration": 0.11653200000000652
                },
                {
                    "name": "F4",
                    "midi": 65,
                    "time": 552.5947440000173,
                    "velocity": 0.41732283464566927,
                    "duration": 0.11653200000000652
                },
                {
                    "name": "D#4",
                    "midi": 63,
                    "time": 552.8278080000173,
                    "velocity": 0.47244094488188976,
                    "duration": 0.11653200000000652
                },
                {
                    "name": "D#3",
                    "midi": 51,
                    "time": 553.0608720000173,
                    "velocity": 0.41732283464566927,
                    "duration": 0.23306400000001304
                },
                {
                    "name": "D#4",
                    "midi": 63,
                    "time": 553.2939360000173,
                    "velocity": 0.48031496062992124,
                    "duration": 0.11653200000000652
                },
                {
                    "name": "D4",
                    "midi": 62,
                    "time": 553.5270000000173,
                    "velocity": 0.41732283464566927,
                    "duration": 0.11653200000000652
                },
                {
                    "name": "C4",
                    "midi": 60,
                    "time": 553.7600640000173,
                    "velocity": 0.44881889763779526,
                    "duration": 0.23306400000001304
                },
                {
                    "name": "A#3",
                    "midi": 58,
                    "time": 553.9931280000174,
                    "velocity": 0.41732283464566927,
                    "duration": 0.23306400000001304
                },
                {
                    "name": "A3",
                    "midi": 57,
                    "time": 554.2261920000174,
                    "velocity": 0.41732283464566927,
                    "duration": 0.23306400000001304
                },
                {
                    "name": "F3",
                    "midi": 53,
                    "time": 554.4592560000174,
                    "velocity": 0.41732283464566927,
                    "duration": 0.23306400000001304
                },
                {
                    "name": "A#3",
                    "midi": 58,
                    "time": 554.6923200000174,
                    "velocity": 0.47244094488188976,
                    "duration": 0.4661280000000261
                },
                {
                    "name": "D3",
                    "midi": 50,
                    "time": 555.1584480000174,
                    "velocity": 0.4251968503937008,
                    "duration": 0.4661280000000261
                },
                {
                    "name": "D#3",
                    "midi": 51,
                    "time": 555.6245760000174,
                    "velocity": 0.4645669291338583,
                    "duration": 0.4661280000000261
                },
                {
                    "name": "D#4",
                    "midi": 63,
                    "time": 556.0907040000175,
                    "velocity": 0.41732283464566927,
                    "duration": 0.4661280000000261
                },
                {
                    "name": "F4",
                    "midi": 65,
                    "time": 556.5568320000175,
                    "velocity": 0.4251968503937008,
                    "duration": 0.4661280000000261
                },
                {
                    "name": "F3",
                    "midi": 53,
                    "time": 557.0229600000175,
                    "velocity": 0.41732283464566927,
                    "duration": 0.4661280000000261
                },
                {
                    "name": "A#3",
                    "midi": 58,
                    "time": 557.4890880000175,
                    "velocity": 0.41732283464566927,
                    "duration": 0.11653200000000652
                },
                {
                    "name": "F4",
                    "midi": 65,
                    "time": 557.6056200000176,
                    "velocity": 0.36220472440944884,
                    "duration": 0.11653200000000652
                },
                {
                    "name": "E4",
                    "midi": 64,
                    "time": 557.7221520000176,
                    "velocity": 0.3858267716535433,
                    "duration": 0.11653200000000652
                },
                {
                    "name": "F4",
                    "midi": 65,
                    "time": 557.8386840000176,
                    "velocity": 0.36220472440944884,
                    "duration": 0.11653200000000652
                },
                {
                    "name": "G4",
                    "midi": 67,
                    "time": 557.9552160000176,
                    "velocity": 0.41732283464566927,
                    "duration": 0.11653200000000652
                },
                {
                    "name": "F4",
                    "midi": 65,
                    "time": 558.0717480000176,
                    "velocity": 0.3700787401574803,
                    "duration": 0.11653200000000652
                },
                {
                    "name": "E4",
                    "midi": 64,
                    "time": 558.1882800000176,
                    "velocity": 0.3858267716535433,
                    "duration": 0.11653200000000652
                },
                {
                    "name": "F4",
                    "midi": 65,
                    "time": 558.3048120000176,
                    "velocity": 0.36220472440944884,
                    "duration": 0.11653200000000652
                },
                {
                    "name": "D#4",
                    "midi": 63,
                    "time": 558.4213440000176,
                    "velocity": 0.41732283464566927,
                    "duration": 0.11653200000000652
                },
                {
                    "name": "F4",
                    "midi": 65,
                    "time": 558.5378760000176,
                    "velocity": 0.4015748031496063,
                    "duration": 0.11653200000000652
                },
                {
                    "name": "D4",
                    "midi": 62,
                    "time": 558.6544080000176,
                    "velocity": 0.41732283464566927,
                    "duration": 0.11653200000000652
                },
                {
                    "name": "F4",
                    "midi": 65,
                    "time": 558.7709400000176,
                    "velocity": 0.3858267716535433,
                    "duration": 0.11653200000000652
                },
                {
                    "name": "C4",
                    "midi": 60,
                    "time": 558.8874720000176,
                    "velocity": 0.41732283464566927,
                    "duration": 0.11653200000000652
                },
                {
                    "name": "F4",
                    "midi": 65,
                    "time": 559.0040040000176,
                    "velocity": 0.3937007874015748,
                    "duration": 0.11653200000000652
                },
                {
                    "name": "A#3",
                    "midi": 58,
                    "time": 559.1205360000176,
                    "velocity": 0.41732283464566927,
                    "duration": 0.11653200000000652
                },
                {
                    "name": "F4",
                    "midi": 65,
                    "time": 559.2370680000176,
                    "velocity": 0.3937007874015748,
                    "duration": 0.11653200000000652
                },
                {
                    "name": "A3",
                    "midi": 57,
                    "time": 559.3536000000177,
                    "velocity": 0.3779527559055118,
                    "duration": 0.11653200000000652
                },
                {
                    "name": "F4",
                    "midi": 65,
                    "time": 559.4701320000177,
                    "velocity": 0.31496062992125984,
                    "duration": 0.11653200000000652
                },
                {
                    "name": "C4",
                    "midi": 60,
                    "time": 559.5866640000177,
                    "velocity": 0.33070866141732286,
                    "duration": 0.11653200000000652
                },
                {
                    "name": "F4",
                    "midi": 65,
                    "time": 559.7031960000177,
                    "velocity": 0.2992125984251969,
                    "duration": 0.11653200000000652
                },
                {
                    "name": "D#4",
                    "midi": 63,
                    "time": 559.8197280000177,
                    "velocity": 0.3779527559055118,
                    "duration": 0.11653200000000652
                },
                {
                    "name": "F4",
                    "midi": 65,
                    "time": 559.9362600000177,
                    "velocity": 0.31496062992125984,
                    "duration": 0.11653200000000652
                },
                {
                    "name": "D#4",
                    "midi": 63,
                    "time": 560.0527920000177,
                    "velocity": 0.33070866141732286,
                    "duration": 0.11653200000000652
                },
                {
                    "name": "F4",
                    "midi": 65,
                    "time": 560.1693240000177,
                    "velocity": 0.30708661417322836,
                    "duration": 0.11653200000000652
                },
                {
                    "name": "A3",
                    "midi": 57,
                    "time": 560.2858560000177,
                    "velocity": 0.3700787401574803,
                    "duration": 0.11653200000000652
                },
                {
                    "name": "F4",
                    "midi": 65,
                    "time": 560.4023880000177,
                    "velocity": 0.31496062992125984,
                    "duration": 0.11653200000000652
                },
                {
                    "name": "C4",
                    "midi": 60,
                    "time": 560.5189200000177,
                    "velocity": 0.33858267716535434,
                    "duration": 0.11653200000000652
                },
                {
                    "name": "F4",
                    "midi": 65,
                    "time": 560.6354520000177,
                    "velocity": 0.31496062992125984,
                    "duration": 0.11653200000000652
                },
                {
                    "name": "D#4",
                    "midi": 63,
                    "time": 560.7519840000177,
                    "velocity": 0.3779527559055118,
                    "duration": 0.11653200000000652
                },
                {
                    "name": "F4",
                    "midi": 65,
                    "time": 560.8685160000177,
                    "velocity": 0.33070866141732286,
                    "duration": 0.11653200000000652
                },
                {
                    "name": "D#4",
                    "midi": 63,
                    "time": 560.9850480000177,
                    "velocity": 0.33070866141732286,
                    "duration": 0.11653200000000652
                },
                {
                    "name": "F4",
                    "midi": 65,
                    "time": 561.1015800000177,
                    "velocity": 0.33070866141732286,
                    "duration": 0.11653200000000652
                },
                {
                    "name": "D4",
                    "midi": 62,
                    "time": 561.2181120000178,
                    "velocity": 0.3464566929133858,
                    "duration": 0.11653200000000652
                },
                {
                    "name": "F4",
                    "midi": 65,
                    "time": 561.3346440000178,
                    "velocity": 0.3543307086614173,
                    "duration": 0.11653200000000652
                },
                {
                    "name": "A3",
                    "midi": 57,
                    "time": 561.4511760000178,
                    "velocity": 0.3543307086614173,
                    "duration": 0.11653200000000652
                },
                {
                    "name": "F4",
                    "midi": 65,
                    "time": 561.5677080000178,
                    "velocity": 0.3543307086614173,
                    "duration": 0.11653200000000652
                },
                {
                    "name": "A#3",
                    "midi": 58,
                    "time": 561.6842400000178,
                    "velocity": 0.36220472440944884,
                    "duration": 0.11653200000000652
                },
                {
                    "name": "F4",
                    "midi": 65,
                    "time": 561.8007720000178,
                    "velocity": 0.3700787401574803,
                    "duration": 0.11653200000000652
                },
                {
                    "name": "C4",
                    "midi": 60,
                    "time": 561.9173040000178,
                    "velocity": 0.3779527559055118,
                    "duration": 0.11653200000000652
                },
                {
                    "name": "F4",
                    "midi": 65,
                    "time": 562.0338360000178,
                    "velocity": 0.3858267716535433,
                    "duration": 0.11653200000000652
                },
                {
                    "name": "C#4",
                    "midi": 61,
                    "time": 562.1503680000178,
                    "velocity": 0.41732283464566927,
                    "duration": 0.11653200000000652
                },
                {
                    "name": "F4",
                    "midi": 65,
                    "time": 562.2669000000178,
                    "velocity": 0.3779527559055118,
                    "duration": 0.11653200000000652
                },
                {
                    "name": "D4",
                    "midi": 62,
                    "time": 562.3834320000178,
                    "velocity": 0.41732283464566927,
                    "duration": 0.11653200000000652
                },
                {
                    "name": "F4",
                    "midi": 65,
                    "time": 562.4999640000178,
                    "velocity": 0.36220472440944884,
                    "duration": 0.11653200000000652
                },
                {
                    "name": "C#4",
                    "midi": 61,
                    "time": 562.6164960000178,
                    "velocity": 0.41732283464566927,
                    "duration": 0.11653200000000652
                },
                {
                    "name": "F4",
                    "midi": 65,
                    "time": 562.7330280000178,
                    "velocity": 0.36220472440944884,
                    "duration": 0.11653200000000652
                },
                {
                    "name": "D4",
                    "midi": 62,
                    "time": 562.8495600000178,
                    "velocity": 0.41732283464566927,
                    "duration": 0.11653200000000652
                },
                {
                    "name": "F4",
                    "midi": 65,
                    "time": 562.9660920000179,
                    "velocity": 0.3700787401574803,
                    "duration": 0.11653200000000652
                },
                {
                    "name": "A3",
                    "midi": 57,
                    "time": 563.0826240000179,
                    "velocity": 0.3779527559055118,
                    "duration": 0.11653200000000652
                },
                {
                    "name": "F4",
                    "midi": 65,
                    "time": 563.1991560000179,
                    "velocity": 0.30708661417322836,
                    "duration": 0.11653200000000652
                },
                {
                    "name": "C4",
                    "midi": 60,
                    "time": 563.3156880000179,
                    "velocity": 0.33070866141732286,
                    "duration": 0.11653200000000652
                },
                {
                    "name": "F4",
                    "midi": 65,
                    "time": 563.4322200000179,
                    "velocity": 0.30708661417322836,
                    "duration": 0.11653200000000652
                },
                {
                    "name": "D#4",
                    "midi": 63,
                    "time": 563.5487520000179,
                    "velocity": 0.3779527559055118,
                    "duration": 0.11653200000000652
                },
                {
                    "name": "F4",
                    "midi": 65,
                    "time": 563.6652840000179,
                    "velocity": 0.31496062992125984,
                    "duration": 0.11653200000000652
                },
                {
                    "name": "D#4",
                    "midi": 63,
                    "time": 563.7818160000179,
                    "velocity": 0.33070866141732286,
                    "duration": 0.11653200000000652
                },
                {
                    "name": "F4",
                    "midi": 65,
                    "time": 563.8983480000179,
                    "velocity": 0.30708661417322836,
                    "duration": 0.11653200000000652
                },
                {
                    "name": "A3",
                    "midi": 57,
                    "time": 564.0148800000179,
                    "velocity": 0.3700787401574803,
                    "duration": 0.11653200000000652
                },
                {
                    "name": "F4",
                    "midi": 65,
                    "time": 564.1314120000179,
                    "velocity": 0.30708661417322836,
                    "duration": 0.11653200000000652
                },
                {
                    "name": "C4",
                    "midi": 60,
                    "time": 564.2479440000179,
                    "velocity": 0.33858267716535434,
                    "duration": 0.11653200000000652
                },
                {
                    "name": "F4",
                    "midi": 65,
                    "time": 564.3644760000179,
                    "velocity": 0.30708661417322836,
                    "duration": 0.11653200000000652
                },
                {
                    "name": "D#4",
                    "midi": 63,
                    "time": 564.4810080000179,
                    "velocity": 0.3779527559055118,
                    "duration": 0.11653200000000652
                },
                {
                    "name": "F4",
                    "midi": 65,
                    "time": 564.597540000018,
                    "velocity": 0.33070866141732286,
                    "duration": 0.11653200000000652
                },
                {
                    "name": "D#4",
                    "midi": 63,
                    "time": 564.714072000018,
                    "velocity": 0.33070866141732286,
                    "duration": 0.11653200000000652
                },
                {
                    "name": "F4",
                    "midi": 65,
                    "time": 564.830604000018,
                    "velocity": 0.33070866141732286,
                    "duration": 0.11653200000000652
                },
                {
                    "name": "D4",
                    "midi": 62,
                    "time": 564.947136000018,
                    "velocity": 0.3464566929133858,
                    "duration": 0.11653200000000652
                },
                {
                    "name": "F4",
                    "midi": 65,
                    "time": 565.063668000018,
                    "velocity": 0.3543307086614173,
                    "duration": 0.11653200000000652
                },
                {
                    "name": "A3",
                    "midi": 57,
                    "time": 565.180200000018,
                    "velocity": 0.3543307086614173,
                    "duration": 0.11653200000000652
                },
                {
                    "name": "F4",
                    "midi": 65,
                    "time": 565.296732000018,
                    "velocity": 0.3543307086614173,
                    "duration": 0.11653200000000652
                },
                {
                    "name": "A#3",
                    "midi": 58,
                    "time": 565.413264000018,
                    "velocity": 0.36220472440944884,
                    "duration": 0.11653200000000652
                },
                {
                    "name": "F4",
                    "midi": 65,
                    "time": 565.529796000018,
                    "velocity": 0.3700787401574803,
                    "duration": 0.11653200000000652
                },
                {
                    "name": "C4",
                    "midi": 60,
                    "time": 565.646328000018,
                    "velocity": 0.3779527559055118,
                    "duration": 0.11653200000000652
                },
                {
                    "name": "F4",
                    "midi": 65,
                    "time": 565.762860000018,
                    "velocity": 0.3858267716535433,
                    "duration": 0.11653200000000652
                },
                {
                    "name": "C#4",
                    "midi": 61,
                    "time": 565.879392000018,
                    "velocity": 0.41732283464566927,
                    "duration": 0.11653200000000652
                },
                {
                    "name": "F4",
                    "midi": 65,
                    "time": 565.995924000018,
                    "velocity": 0.3779527559055118,
                    "duration": 0.11653200000000652
                },
                {
                    "name": "D4",
                    "midi": 62,
                    "time": 566.112456000018,
                    "velocity": 0.41732283464566927,
                    "duration": 0.11653200000000652
                },
                {
                    "name": "F4",
                    "midi": 65,
                    "time": 566.228988000018,
                    "velocity": 0.36220472440944884,
                    "duration": 0.11653200000000652
                },
                {
                    "name": "C#4",
                    "midi": 61,
                    "time": 566.345520000018,
                    "velocity": 0.41732283464566927,
                    "duration": 0.11653200000000652
                },
                {
                    "name": "F4",
                    "midi": 65,
                    "time": 566.462052000018,
                    "velocity": 0.36220472440944884,
                    "duration": 0.11653200000000652
                },
                {
                    "name": "D4",
                    "midi": 62,
                    "time": 566.578584000018,
                    "velocity": 0.41732283464566927,
                    "duration": 0.11653200000000652
                },
                {
                    "name": "F4",
                    "midi": 65,
                    "time": 566.6951160000181,
                    "velocity": 0.3700787401574803,
                    "duration": 0.11653200000000652
                },
                {
                    "name": "D#3",
                    "midi": 51,
                    "time": 567.0447120000181,
                    "velocity": 0.2992125984251969,
                    "duration": 0.23306400000001304
                },
                {
                    "name": "D3",
                    "midi": 50,
                    "time": 567.2777760000181,
                    "velocity": 0.31496062992125984,
                    "duration": 0.23306400000001304
                },
                {
                    "name": "D#3",
                    "midi": 51,
                    "time": 567.5108400000181,
                    "velocity": 0.2992125984251969,
                    "duration": 0.23306400000001304
                },
                {
                    "name": "F3",
                    "midi": 53,
                    "time": 567.9769680000181,
                    "velocity": 0.2992125984251969,
                    "duration": 0.23306400000001304
                },
                {
                    "name": "E3",
                    "midi": 52,
                    "time": 568.2100320000181,
                    "velocity": 0.31496062992125984,
                    "duration": 0.23306400000001304
                },
                {
                    "name": "F3",
                    "midi": 53,
                    "time": 568.4430960000182,
                    "velocity": 0.2992125984251969,
                    "duration": 0.23306400000001304
                },
                {
                    "name": "F#3",
                    "midi": 54,
                    "time": 568.9092240000182,
                    "velocity": 0.2992125984251969,
                    "duration": 0.23306400000001304
                },
                {
                    "name": "E3",
                    "midi": 52,
                    "time": 569.1422880000182,
                    "velocity": 0.33070866141732286,
                    "duration": 0.23306400000001304
                },
                {
                    "name": "F#3",
                    "midi": 54,
                    "time": 569.3753520000182,
                    "velocity": 0.2992125984251969,
                    "duration": 0.23306400000001304
                },
                {
                    "name": "G3",
                    "midi": 55,
                    "time": 569.8414800000182,
                    "velocity": 0.31496062992125984,
                    "duration": 0.23306400000001304
                },
                {
                    "name": "F#3",
                    "midi": 54,
                    "time": 570.0745440000182,
                    "velocity": 0.33070866141732286,
                    "duration": 0.23306400000001304
                },
                {
                    "name": "G3",
                    "midi": 55,
                    "time": 570.3076080000183,
                    "velocity": 0.30708661417322836,
                    "duration": 0.23306400000001304
                },
                {
                    "name": "D#4",
                    "midi": 63,
                    "time": 571.0068000000183,
                    "velocity": 0.4251968503937008,
                    "duration": 0.4661280000000261
                },
                {
                    "name": "C5",
                    "midi": 72,
                    "time": 571.0068000000183,
                    "velocity": 0.4251968503937008,
                    "duration": 0.4661280000000261
                },
                {
                    "name": "F4",
                    "midi": 65,
                    "time": 571.4729280000183,
                    "velocity": 0.4251968503937008,
                    "duration": 0.9322560000000522
                },
                {
                    "name": "D5",
                    "midi": 74,
                    "time": 571.4729280000183,
                    "velocity": 0.4251968503937008,
                    "duration": 0.4661280000000261
                },
                {
                    "name": "D#5",
                    "midi": 75,
                    "time": 571.9390560000184,
                    "velocity": 0.3543307086614173,
                    "duration": 0.4661280000000261
                },
                {
                    "name": "A#4",
                    "midi": 70,
                    "time": 572.4051840000184,
                    "velocity": 0.2677165354330709,
                    "duration": 0.9322560000000522
                },
                {
                    "name": "D5",
                    "midi": 74,
                    "time": 572.4051840000184,
                    "velocity": 0.3228346456692913,
                    "duration": 0.9322560000000522
                },
                {
                    "name": "A#4",
                    "midi": 70,
                    "time": 573.3374400000184,
                    "velocity": 0.2204724409448819,
                    "duration": 0.9322560000000522
                },
                {
                    "name": "D5",
                    "midi": 74,
                    "time": 573.3374400000184,
                    "velocity": 0.2677165354330709,
                    "duration": 0.9322560000000522
                },
                {
                    "name": "B4",
                    "midi": 71,
                    "time": 574.2696960000185,
                    "velocity": 0.2283464566929134,
                    "duration": 0.9322560000000522
                },
                {
                    "name": "D5",
                    "midi": 74,
                    "time": 574.2696960000185,
                    "velocity": 0.2283464566929134,
                    "duration": 0.9322560000000522
                },
                {
                    "name": "F5",
                    "midi": 77,
                    "time": 574.2696960000185,
                    "velocity": 0.2755905511811024,
                    "duration": 0.9322560000000522
                },
                {
                    "name": "C5",
                    "midi": 72,
                    "time": 575.2019520000185,
                    "velocity": 0.2204724409448819,
                    "duration": 0.9322560000000522
                },
                {
                    "name": "D#5",
                    "midi": 75,
                    "time": 575.2019520000185,
                    "velocity": 0.2677165354330709,
                    "duration": 0.9322560000000522
                },
                {
                    "name": "A4",
                    "midi": 69,
                    "time": 576.1342080000186,
                    "velocity": 0.2283464566929134,
                    "duration": 0.9322560000000522
                },
                {
                    "name": "C5",
                    "midi": 72,
                    "time": 576.1342080000186,
                    "velocity": 0.2283464566929134,
                    "duration": 0.9322560000000522
                },
                {
                    "name": "D#5",
                    "midi": 75,
                    "time": 576.1342080000186,
                    "velocity": 0.2755905511811024,
                    "duration": 0.9322560000000522
                },
                {
                    "name": "A#4",
                    "midi": 70,
                    "time": 577.0664640000186,
                    "velocity": 0.2204724409448819,
                    "duration": 0.9322560000000522
                },
                {
                    "name": "D5",
                    "midi": 74,
                    "time": 577.0664640000186,
                    "velocity": 0.25984251968503935,
                    "duration": 0.9322560000000522
                },
                {
                    "name": "G4",
                    "midi": 67,
                    "time": 577.9987200000187,
                    "velocity": 0.2283464566929134,
                    "duration": 0.9322560000000522
                },
                {
                    "name": "A#4",
                    "midi": 70,
                    "time": 577.9987200000187,
                    "velocity": 0.2283464566929134,
                    "duration": 0.9322560000000522
                },
                {
                    "name": "D5",
                    "midi": 74,
                    "time": 577.9987200000187,
                    "velocity": 0.2755905511811024,
                    "duration": 0.9322560000000522
                },
                {
                    "name": "A4",
                    "midi": 69,
                    "time": 578.9309760000187,
                    "velocity": 0.2204724409448819,
                    "duration": 0.9322560000000522
                },
                {
                    "name": "C5",
                    "midi": 72,
                    "time": 578.9309760000187,
                    "velocity": 0.25984251968503935,
                    "duration": 0.9322560000000522
                },
                {
                    "name": "F#4",
                    "midi": 66,
                    "time": 579.8632320000188,
                    "velocity": 0.2204724409448819,
                    "duration": 0.9322560000000522
                },
                {
                    "name": "A4",
                    "midi": 69,
                    "time": 579.8632320000188,
                    "velocity": 0.2204724409448819,
                    "duration": 0.9322560000000522
                },
                {
                    "name": "C5",
                    "midi": 72,
                    "time": 579.8632320000188,
                    "velocity": 0.25984251968503935,
                    "duration": 0.9322560000000522
                },
                {
                    "name": "G4",
                    "midi": 67,
                    "time": 580.7954880000188,
                    "velocity": 0.2204724409448819,
                    "duration": 0.9322560000000522
                },
                {
                    "name": "A#4",
                    "midi": 70,
                    "time": 580.7954880000188,
                    "velocity": 0.2677165354330709,
                    "duration": 0.9322560000000522
                },
                {
                    "name": "E4",
                    "midi": 64,
                    "time": 581.9608080000189,
                    "velocity": 0.23622047244094488,
                    "duration": 0.23209289999999783
                },
                {
                    "name": "A#4",
                    "midi": 70,
                    "time": 581.9608080000189,
                    "velocity": 0.28346456692913385,
                    "duration": 0.23209289999999783
                },
                {
                    "name": "E4",
                    "midi": 64,
                    "time": 582.1938720000189,
                    "velocity": 0.2755905511811024,
                    "duration": 0.23306400000001304
                },
                {
                    "name": "A#4",
                    "midi": 70,
                    "time": 582.1938720000189,
                    "velocity": 0.33070866141732286,
                    "duration": 0.23209289999999783
                },
                {
                    "name": "E4",
                    "midi": 64,
                    "time": 582.4269360000189,
                    "velocity": 0.25196850393700787,
                    "duration": 0.23306400000001304
                },
                {
                    "name": "A#4",
                    "midi": 70,
                    "time": 582.4269360000189,
                    "velocity": 0.2992125984251969,
                    "duration": 0.23306400000001304
                },
                {
                    "name": "F4",
                    "midi": 65,
                    "time": 582.893064000019,
                    "velocity": 0.2677165354330709,
                    "duration": 0.23306400000001304
                },
                {
                    "name": "A#4",
                    "midi": 70,
                    "time": 582.893064000019,
                    "velocity": 0.3228346456692913,
                    "duration": 0.23306400000001304
                },
                {
                    "name": "F4",
                    "midi": 65,
                    "time": 583.126128000019,
                    "velocity": 0.30708661417322836,
                    "duration": 0.23306400000001304
                },
                {
                    "name": "A#4",
                    "midi": 70,
                    "time": 583.126128000019,
                    "velocity": 0.36220472440944884,
                    "duration": 0.23306400000001304
                },
                {
                    "name": "F4",
                    "midi": 65,
                    "time": 583.359192000019,
                    "velocity": 0.29133858267716534,
                    "duration": 0.23306400000001304
                },
                {
                    "name": "A#4",
                    "midi": 70,
                    "time": 583.359192000019,
                    "velocity": 0.3464566929133858,
                    "duration": 0.23306400000001304
                },
                {
                    "name": "G4",
                    "midi": 67,
                    "time": 583.825320000019,
                    "velocity": 0.30708661417322836,
                    "duration": 0.23306400000001304
                },
                {
                    "name": "A#4",
                    "midi": 70,
                    "time": 583.825320000019,
                    "velocity": 0.36220472440944884,
                    "duration": 0.23306400000001304
                },
                {
                    "name": "G4",
                    "midi": 67,
                    "time": 584.058384000019,
                    "velocity": 0.3543307086614173,
                    "duration": 0.23306400000001304
                },
                {
                    "name": "A#4",
                    "midi": 70,
                    "time": 584.058384000019,
                    "velocity": 0.41732283464566927,
                    "duration": 0.23306400000001304
                },
                {
                    "name": "G4",
                    "midi": 67,
                    "time": 584.291448000019,
                    "velocity": 0.33070866141732286,
                    "duration": 0.23306400000001304
                },
                {
                    "name": "A#4",
                    "midi": 70,
                    "time": 584.291448000019,
                    "velocity": 0.3937007874015748,
                    "duration": 0.23306400000001304
                },
                {
                    "name": "F#4",
                    "midi": 66,
                    "time": 584.7575760000191,
                    "velocity": 0.41732283464566927,
                    "duration": 0.23306400000001304
                },
                {
                    "name": "A#4",
                    "midi": 70,
                    "time": 584.7575760000191,
                    "velocity": 0.49606299212598426,
                    "duration": 0.23306400000001304
                },
                {
                    "name": "F#4",
                    "midi": 66,
                    "time": 584.9906400000191,
                    "velocity": 0.4566929133858268,
                    "duration": 0.23306400000001304
                },
                {
                    "name": "A#4",
                    "midi": 70,
                    "time": 584.9906400000191,
                    "velocity": 0.5433070866141733,
                    "duration": 0.23306400000001304
                },
                {
                    "name": "F#4",
                    "midi": 66,
                    "time": 585.2237040000191,
                    "velocity": 0.4251968503937008,
                    "duration": 0.23306400000001304
                },
                {
                    "name": "A#4",
                    "midi": 70,
                    "time": 585.2237040000191,
                    "velocity": 0.5039370078740157,
                    "duration": 0.23306400000001304
                },
                {
                    "name": "F4",
                    "midi": 65,
                    "time": 585.4567680000191,
                    "velocity": 0.41732283464566927,
                    "duration": 0.4661280000000261
                },
                {
                    "name": "A#4",
                    "midi": 70,
                    "time": 585.4567680000191,
                    "velocity": 0.49606299212598426,
                    "duration": 0.4661280000000261
                },
                {
                    "name": "D4",
                    "midi": 62,
                    "time": 585.9228960000191,
                    "velocity": 0.41732283464566927,
                    "duration": 0.4661280000000261
                },
                {
                    "name": "A#4",
                    "midi": 70,
                    "time": 585.9228960000191,
                    "velocity": 0.49606299212598426,
                    "duration": 0.4661280000000261
                },
                {
                    "name": "D#4",
                    "midi": 63,
                    "time": 586.3890240000192,
                    "velocity": 0.41732283464566927,
                    "duration": 0.4661280000000261
                },
                {
                    "name": "A#4",
                    "midi": 70,
                    "time": 586.3890240000192,
                    "velocity": 0.49606299212598426,
                    "duration": 0.4661280000000261
                },
                {
                    "name": "C4",
                    "midi": 60,
                    "time": 586.8551520000192,
                    "velocity": 0.41732283464566927,
                    "duration": 0.4661280000000261
                },
                {
                    "name": "F4",
                    "midi": 65,
                    "time": 586.8551520000192,
                    "velocity": 0.49606299212598426,
                    "duration": 0.4661280000000261
                },
                {
                    "name": "A#3",
                    "midi": 58,
                    "time": 587.3212800000192,
                    "velocity": 0.4015748031496063,
                    "duration": 0.4661280000000261
                },
                {
                    "name": "F4",
                    "midi": 65,
                    "time": 587.3212800000192,
                    "velocity": 0.47244094488188976,
                    "duration": 0.4661280000000261
                },
                {
                    "name": "D3",
                    "midi": 50,
                    "time": 587.7874080000192,
                    "velocity": 0.33858267716535434,
                    "duration": 0.4661280000000261
                },
                {
                    "name": "F3",
                    "midi": 53,
                    "time": 587.7874080000192,
                    "velocity": 0.4015748031496063,
                    "duration": 0.4661280000000261
                },
                {
                    "name": "D#3",
                    "midi": 51,
                    "time": 588.2535360000193,
                    "velocity": 0.33070866141732286,
                    "duration": 0.4661280000000261
                },
                {
                    "name": "A#3",
                    "midi": 58,
                    "time": 588.2535360000193,
                    "velocity": 0.3937007874015748,
                    "duration": 0.4661280000000261
                },
                {
                    "name": "D#3",
                    "midi": 51,
                    "time": 588.7196640000193,
                    "velocity": 0.30708661417322836,
                    "duration": 0.4661280000000261
                },
                {
                    "name": "G3",
                    "midi": 55,
                    "time": 588.7196640000193,
                    "velocity": 0.36220472440944884,
                    "duration": 0.4661280000000261
                },
                {
                    "name": "A#3",
                    "midi": 58,
                    "time": 589.6519200000193,
                    "velocity": 0.36220472440944884,
                    "duration": 0.9322560000000522
                },
                {
                    "name": "D3",
                    "midi": 50,
                    "time": 589.6519200000193,
                    "velocity": 0.36220472440944884,
                    "duration": 0.4661280000000261
                },
                {
                    "name": "D#3",
                    "midi": 51,
                    "time": 590.1180480000194,
                    "velocity": 0.36220472440944884,
                    "duration": 0.4661280000000261
                },
                {
                    "name": "A3",
                    "midi": 57,
                    "time": 590.5841760000194,
                    "velocity": 0.36220472440944884,
                    "duration": 0.4661280000000261
                },
                {
                    "name": "F3",
                    "midi": 53,
                    "time": 590.5841760000194,
                    "velocity": 0.36220472440944884,
                    "duration": 0.4661280000000261
                },
                {
                    "name": "A#2",
                    "midi": 46,
                    "time": 591.0503040000194,
                    "velocity": 0.4094488188976378,
                    "duration": 0.11653200000000652
                },
                {
                    "name": "A#3",
                    "midi": 58,
                    "time": 591.0503040000194,
                    "velocity": 0.4094488188976378,
                    "duration": 0.11653200000000652
                },
                {
                    "name": "A3",
                    "midi": 57,
                    "time": 591.5164320000194,
                    "velocity": 0.2755905511811024,
                    "duration": 0.23306400000001304
                },
                {
                    "name": "G#3",
                    "midi": 56,
                    "time": 591.7494960000195,
                    "velocity": 0.25984251968503935,
                    "duration": 0.23306400000001304
                },
                {
                    "name": "A#2",
                    "midi": 46,
                    "time": 591.9825600000195,
                    "velocity": 0.33858267716535434,
                    "duration": 0.11653200000000652
                },
                {
                    "name": "G3",
                    "midi": 55,
                    "time": 591.9825600000195,
                    "velocity": 0.33858267716535434,
                    "duration": 0.11653200000000652
                },
                {
                    "name": "A3",
                    "midi": 57,
                    "time": 592.4486880000195,
                    "velocity": 0.2755905511811024,
                    "duration": 0.23306400000001304
                },
                {
                    "name": "G#3",
                    "midi": 56,
                    "time": 592.6817520000195,
                    "velocity": 0.25984251968503935,
                    "duration": 0.23306400000001304
                },
                {
                    "name": "A#2",
                    "midi": 46,
                    "time": 592.9148160000195,
                    "velocity": 0.33070866141732286,
                    "duration": 0.11653200000000652
                },
                {
                    "name": "G3",
                    "midi": 55,
                    "time": 592.9148160000195,
                    "velocity": 0.33070866141732286,
                    "duration": 0.11653200000000652
                },
                {
                    "name": "A3",
                    "midi": 57,
                    "time": 593.3809440000196,
                    "velocity": 0.3700787401574803,
                    "duration": 0.23306400000001304
                },
                {
                    "name": "G#3",
                    "midi": 56,
                    "time": 593.6140080000196,
                    "velocity": 0.3700787401574803,
                    "duration": 0.23306400000001304
                },
                {
                    "name": "G3",
                    "midi": 55,
                    "time": 593.8470720000196,
                    "velocity": 0.4015748031496063,
                    "duration": 0.23306400000001304
                },
                {
                    "name": "D3",
                    "midi": 50,
                    "time": 594.0801360000196,
                    "velocity": 0.3937007874015748,
                    "duration": 0.23306400000001304
                },
                {
                    "name": "D#3",
                    "midi": 51,
                    "time": 594.3132000000196,
                    "velocity": 0.3937007874015748,
                    "duration": 0.23306400000001304
                },
                {
                    "name": "C3",
                    "midi": 48,
                    "time": 594.5462640000196,
                    "velocity": 0.3937007874015748,
                    "duration": 0.23306400000001304
                },
                {
                    "name": "D3",
                    "midi": 50,
                    "time": 594.7793280000196,
                    "velocity": 0.44881889763779526,
                    "duration": 0.4661280000000261
                },
                {
                    "name": "D#3",
                    "midi": 51,
                    "time": 595.7115840000197,
                    "velocity": 0.41732283464566927,
                    "duration": 0.4661280000000261
                },
                {
                    "name": "F3",
                    "midi": 53,
                    "time": 596.6438400000197,
                    "velocity": 0.4094488188976378,
                    "duration": 0.23306400000001304
                },
                {
                    "name": "A#3",
                    "midi": 58,
                    "time": 596.8769040000197,
                    "velocity": 0.3779527559055118,
                    "duration": 0.23306400000001304
                },
                {
                    "name": "D4",
                    "midi": 62,
                    "time": 597.1099680000198,
                    "velocity": 0.3779527559055118,
                    "duration": 0.23306400000001304
                },
                {
                    "name": "A#3",
                    "midi": 58,
                    "time": 597.3430320000198,
                    "velocity": 0.3779527559055118,
                    "duration": 0.23306400000001304
                },
                {
                    "name": "F3",
                    "midi": 53,
                    "time": 597.5760960000198,
                    "velocity": 0.41732283464566927,
                    "duration": 0.23306400000001304
                },
                {
                    "name": "C4",
                    "midi": 60,
                    "time": 597.8091600000198,
                    "velocity": 0.3858267716535433,
                    "duration": 0.23306400000001304
                },
                {
                    "name": "D#4",
                    "midi": 63,
                    "time": 598.0422240000198,
                    "velocity": 0.3858267716535433,
                    "duration": 0.23306400000001304
                },
                {
                    "name": "C4",
                    "midi": 60,
                    "time": 598.2752880000198,
                    "velocity": 0.3779527559055118,
                    "duration": 0.23306400000001304
                },
                {
                    "name": "A#3",
                    "midi": 58,
                    "time": 598.5083520000198,
                    "velocity": 0.4409448818897638,
                    "duration": 0.11653200000000652
                },
                {
                    "name": "D4",
                    "midi": 62,
                    "time": 598.5083520000198,
                    "velocity": 0.4409448818897638,
                    "duration": 0.11653200000000652
                },
                {
                    "name": "A4",
                    "midi": 69,
                    "time": 598.9744800000199,
                    "velocity": 0.2755905511811024,
                    "duration": 0.23306400000001304
                },
                {
                    "name": "G#4",
                    "midi": 68,
                    "time": 599.2075440000199,
                    "velocity": 0.2755905511811024,
                    "duration": 0.23306400000001304
                },
                {
                    "name": "A#3",
                    "midi": 58,
                    "time": 599.4406080000199,
                    "velocity": 0.33858267716535434,
                    "duration": 0.11653200000000652
                },
                {
                    "name": "G4",
                    "midi": 67,
                    "time": 599.4406080000199,
                    "velocity": 0.33858267716535434,
                    "duration": 0.11653200000000652
                },
                {
                    "name": "A#4",
                    "midi": 70,
                    "time": 599.6736720000199,
                    "velocity": 0.2755905511811024,
                    "duration": 0.23306400000001304
                },
                {
                    "name": "A4",
                    "midi": 69,
                    "time": 599.9067360000199,
                    "velocity": 0.2755905511811024,
                    "duration": 0.23306400000001304
                },
                {
                    "name": "G#4",
                    "midi": 68,
                    "time": 600.1398000000199,
                    "velocity": 0.2755905511811024,
                    "duration": 0.23306400000001304
                },
                {
                    "name": "A#3",
                    "midi": 58,
                    "time": 600.37286400002,
                    "velocity": 0.36220472440944884,
                    "duration": 0.11653200000000652
                },
                {
                    "name": "G4",
                    "midi": 67,
                    "time": 600.37286400002,
                    "velocity": 0.36220472440944884,
                    "duration": 0.11653200000000652
                },
                {
                    "name": "A#4",
                    "midi": 70,
                    "time": 600.60592800002,
                    "velocity": 0.2992125984251969,
                    "duration": 0.23306400000001304
                },
                {
                    "name": "A4",
                    "midi": 69,
                    "time": 600.83899200002,
                    "velocity": 0.3700787401574803,
                    "duration": 0.23306400000001304
                },
                {
                    "name": "G#4",
                    "midi": 68,
                    "time": 601.07205600002,
                    "velocity": 0.3700787401574803,
                    "duration": 0.23306400000001304
                },
                {
                    "name": "G4",
                    "midi": 67,
                    "time": 601.30512000002,
                    "velocity": 0.4015748031496063,
                    "duration": 0.23306400000001304
                },
                {
                    "name": "D4",
                    "midi": 62,
                    "time": 601.53818400002,
                    "velocity": 0.3858267716535433,
                    "duration": 0.23306400000001304
                },
                {
                    "name": "D#4",
                    "midi": 63,
                    "time": 601.77124800002,
                    "velocity": 0.3937007874015748,
                    "duration": 0.23306400000001304
                },
                {
                    "name": "C4",
                    "midi": 60,
                    "time": 602.00431200002,
                    "velocity": 0.3937007874015748,
                    "duration": 0.23306400000001304
                },
                {
                    "name": "D3",
                    "midi": 50,
                    "time": 602.23737600002,
                    "velocity": 0.5354330708661418,
                    "duration": 0.4661280000000261
                },
                {
                    "name": "D4",
                    "midi": 62,
                    "time": 602.23737600002,
                    "velocity": 0.5354330708661418,
                    "duration": 0.4661280000000261
                },
                {
                    "name": "D#4",
                    "midi": 63,
                    "time": 603.1696320000201,
                    "velocity": 0.5433070866141733,
                    "duration": 0.4661280000000261
                },
                {
                    "name": "D#3",
                    "midi": 51,
                    "time": 603.1696320000201,
                    "velocity": 0.5433070866141733,
                    "duration": 0.4661280000000261
                },
                {
                    "name": "F3",
                    "midi": 53,
                    "time": 604.1018880000202,
                    "velocity": 0.3779527559055118,
                    "duration": 0.11653200000000652
                },
                {
                    "name": "D4",
                    "midi": 62,
                    "time": 604.2184200000202,
                    "velocity": 0.3228346456692913,
                    "duration": 0.11653200000000652
                },
                {
                    "name": "A#3",
                    "midi": 58,
                    "time": 604.3349520000202,
                    "velocity": 0.3464566929133858,
                    "duration": 0.11653200000000652
                },
                {
                    "name": "D4",
                    "midi": 62,
                    "time": 604.4514840000202,
                    "velocity": 0.30708661417322836,
                    "duration": 0.11653200000000652
                },
                {
                    "name": "F3",
                    "midi": 53,
                    "time": 604.5680160000202,
                    "velocity": 0.3779527559055118,
                    "duration": 0.11653200000000652
                },
                {
                    "name": "D4",
                    "midi": 62,
                    "time": 604.6845480000202,
                    "velocity": 0.31496062992125984,
                    "duration": 0.11653200000000652
                },
                {
                    "name": "A#3",
                    "midi": 58,
                    "time": 604.8010800000202,
                    "velocity": 0.3464566929133858,
                    "duration": 0.11653200000000652
                },
                {
                    "name": "D4",
                    "midi": 62,
                    "time": 604.9176120000202,
                    "velocity": 0.3228346456692913,
                    "duration": 0.11653200000000652
                },
                {
                    "name": "F3",
                    "midi": 53,
                    "time": 605.0341440000202,
                    "velocity": 0.3779527559055118,
                    "duration": 0.11653200000000652
                },
                {
                    "name": "D4",
                    "midi": 62,
                    "time": 605.1506760000202,
                    "velocity": 0.33070866141732286,
                    "duration": 0.11653200000000652
                },
                {
                    "name": "A#3",
                    "midi": 58,
                    "time": 605.2672080000202,
                    "velocity": 0.36220472440944884,
                    "duration": 0.11653200000000652
                },
                {
                    "name": "D4",
                    "midi": 62,
                    "time": 605.3837400000202,
                    "velocity": 0.33070866141732286,
                    "duration": 0.11653200000000652
                },
                {
                    "name": "F3",
                    "midi": 53,
                    "time": 605.5002720000202,
                    "velocity": 0.3779527559055118,
                    "duration": 0.11653200000000652
                },
                {
                    "name": "D4",
                    "midi": 62,
                    "time": 605.6168040000202,
                    "velocity": 0.3464566929133858,
                    "duration": 0.11653200000000652
                },
                {
                    "name": "A#3",
                    "midi": 58,
                    "time": 605.7333360000202,
                    "velocity": 0.36220472440944884,
                    "duration": 0.11653200000000652
                },
                {
                    "name": "D4",
                    "midi": 62,
                    "time": 605.8498680000203,
                    "velocity": 0.33858267716535434,
                    "duration": 0.11653200000000652
                },
                {
                    "name": "F3",
                    "midi": 53,
                    "time": 605.9664000000203,
                    "velocity": 0.3779527559055118,
                    "duration": 0.11653200000000652
                },
                {
                    "name": "D#4",
                    "midi": 63,
                    "time": 606.0829320000203,
                    "velocity": 0.31496062992125984,
                    "duration": 0.11653200000000652
                },
                {
                    "name": "A3",
                    "midi": 57,
                    "time": 606.1994640000203,
                    "velocity": 0.33858267716535434,
                    "duration": 0.11653200000000652
                },
                {
                    "name": "D#4",
                    "midi": 63,
                    "time": 606.3159960000203,
                    "velocity": 0.31496062992125984,
                    "duration": 0.11653200000000652
                },
                {
                    "name": "F3",
                    "midi": 53,
                    "time": 606.4325280000203,
                    "velocity": 0.3779527559055118,
                    "duration": 0.11653200000000652
                },
                {
                    "name": "D#4",
                    "midi": 63,
                    "time": 606.5490600000203,
                    "velocity": 0.30708661417322836,
                    "duration": 0.11653200000000652
                },
                {
                    "name": "A3",
                    "midi": 57,
                    "time": 606.6655920000203,
                    "velocity": 0.33858267716535434,
                    "duration": 0.11653200000000652
                },
                {
                    "name": "D#4",
                    "midi": 63,
                    "time": 606.7821240000203,
                    "velocity": 0.30708661417322836,
                    "duration": 0.11653200000000652
                },
                {
                    "name": "F3",
                    "midi": 53,
                    "time": 606.8986560000203,
                    "velocity": 0.3779527559055118,
                    "duration": 0.11653200000000652
                },
                {
                    "name": "D#4",
                    "midi": 63,
                    "time": 607.0151880000203,
                    "velocity": 0.30708661417322836,
                    "duration": 0.11653200000000652
                },
                {
                    "name": "A3",
                    "midi": 57,
                    "time": 607.1317200000203,
                    "velocity": 0.33858267716535434,
                    "duration": 0.11653200000000652
                },
                {
                    "name": "D#4",
                    "midi": 63,
                    "time": 607.2482520000203,
                    "velocity": 0.2992125984251969,
                    "duration": 0.11653200000000652
                },
                {
                    "name": "F3",
                    "midi": 53,
                    "time": 607.3647840000203,
                    "velocity": 0.3779527559055118,
                    "duration": 0.11653200000000652
                },
                {
                    "name": "D#4",
                    "midi": 63,
                    "time": 607.4813160000203,
                    "velocity": 0.33070866141732286,
                    "duration": 0.11653200000000652
                },
                {
                    "name": "A3",
                    "midi": 57,
                    "time": 607.5978480000203,
                    "velocity": 0.3543307086614173,
                    "duration": 0.11653200000000652
                },
                {
                    "name": "D#4",
                    "midi": 63,
                    "time": 607.7143800000204,
                    "velocity": 0.31496062992125984,
                    "duration": 0.11653200000000652
                },
                {
                    "name": "A#3",
                    "midi": 58,
                    "time": 607.8309120000204,
                    "velocity": 0.4015748031496063,
                    "duration": 0.23306400000001304
                },
                {
                    "name": "A#4",
                    "midi": 70,
                    "time": 608.0639760000204,
                    "velocity": 0.3464566929133858,
                    "duration": 0.23306400000001304
                },
                {
                    "name": "A4",
                    "midi": 69,
                    "time": 608.2970400000204,
                    "velocity": 0.3464566929133858,
                    "duration": 0.23306400000001304
                },
                {
                    "name": "A#4",
                    "midi": 70,
                    "time": 608.5301040000204,
                    "velocity": 0.3779527559055118,
                    "duration": 0.23306400000001304
                },
                {
                    "name": "C5",
                    "midi": 72,
                    "time": 608.7631680000204,
                    "velocity": 0.3858267716535433,
                    "duration": 0.23306400000001304
                },
                {
                    "name": "A#4",
                    "midi": 70,
                    "time": 608.9962320000204,
                    "velocity": 0.4094488188976378,
                    "duration": 0.23306400000001304
                },
                {
                    "name": "A4",
                    "midi": 69,
                    "time": 609.2292960000204,
                    "velocity": 0.4409448818897638,
                    "duration": 0.23306400000001304
                },
                {
                    "name": "G#4",
                    "midi": 68,
                    "time": 609.4623600000205,
                    "velocity": 0.4645669291338583,
                    "duration": 0.23306400000001304
                },
                {
                    "name": "G4",
                    "midi": 67,
                    "time": 609.6954240000205,
                    "velocity": 0.5039370078740157,
                    "duration": 0.23306400000001304
                },
                {
                    "name": "A#3",
                    "midi": 58,
                    "time": 609.9284880000205,
                    "velocity": 0.3858267716535433,
                    "duration": 0.23306400000001304
                },
                {
                    "name": "F#4",
                    "midi": 66,
                    "time": 610.1615520000205,
                    "velocity": 0.4566929133858268,
                    "duration": 0.23306400000001304
                },
                {
                    "name": "A#3",
                    "midi": 58,
                    "time": 610.3946160000205,
                    "velocity": 0.3858267716535433,
                    "duration": 0.23306400000001304
                },
                {
                    "name": "F4",
                    "midi": 65,
                    "time": 610.6276800000205,
                    "velocity": 0.44881889763779526,
                    "duration": 0.23306400000001304
                },
                {
                    "name": "A#3",
                    "midi": 58,
                    "time": 610.8607440000205,
                    "velocity": 0.3779527559055118,
                    "duration": 0.23306400000001304
                },
                {
                    "name": "A4",
                    "midi": 69,
                    "time": 611.0938080000205,
                    "velocity": 0.4330708661417323,
                    "duration": 0.23306400000001304
                },
                {
                    "name": "A#3",
                    "midi": 58,
                    "time": 611.3268720000206,
                    "velocity": 0.3779527559055118,
                    "duration": 0.23306400000001304
                },
                {
                    "name": "A#4",
                    "midi": 70,
                    "time": 611.5599360000206,
                    "velocity": 0.41732283464566927,
                    "duration": 0.11653200000000652
                },
                {
                    "name": "A#3",
                    "midi": 58,
                    "time": 611.7930000000206,
                    "velocity": 0.3228346456692913,
                    "duration": 0.23306400000001304
                },
                {
                    "name": "A3",
                    "midi": 57,
                    "time": 612.0260640000206,
                    "velocity": 0.3228346456692913,
                    "duration": 0.23306400000001304
                },
                {
                    "name": "A#3",
                    "midi": 58,
                    "time": 612.2591280000206,
                    "velocity": 0.29133858267716534,
                    "duration": 0.23306400000001304
                },
                {
                    "name": "C4",
                    "midi": 60,
                    "time": 612.4921920000206,
                    "velocity": 0.3543307086614173,
                    "duration": 0.23306400000001304
                },
                {
                    "name": "A#3",
                    "midi": 58,
                    "time": 612.7252560000206,
                    "velocity": 0.33858267716535434,
                    "duration": 0.23306400000001304
                },
                {
                    "name": "A3",
                    "midi": 57,
                    "time": 612.9583200000206,
                    "velocity": 0.33858267716535434,
                    "duration": 0.23306400000001304
                },
                {
                    "name": "G#3",
                    "midi": 56,
                    "time": 613.1913840000207,
                    "velocity": 0.2992125984251969,
                    "duration": 0.23306400000001304
                },
                {
                    "name": "G3",
                    "midi": 55,
                    "time": 613.4244480000207,
                    "velocity": 0.3543307086614173,
                    "duration": 0.4661280000000261
                },
                {
                    "name": "D#3",
                    "midi": 51,
                    "time": 613.8905760000207,
                    "velocity": 0.2755905511811024,
                    "duration": 0.4661280000000261
                },
                {
                    "name": "F3",
                    "midi": 53,
                    "time": 614.3567040000207,
                    "velocity": 0.2755905511811024,
                    "duration": 0.4661280000000261
                },
                {
                    "name": "F3",
                    "midi": 53,
                    "time": 614.8228320000208,
                    "velocity": 0.2755905511811024,
                    "duration": 0.4661280000000261
                },
                {
                    "name": "A#3",
                    "midi": 58,
                    "time": 615.2889600000208,
                    "velocity": 0.29133858267716534,
                    "duration": 0.4661280000000261
                },
                {
                    "name": "F3",
                    "midi": 53,
                    "time": 615.7550880000208,
                    "velocity": 0.2204724409448819,
                    "duration": 0.4661280000000261
                },
                {
                    "name": "A#2",
                    "midi": 46,
                    "time": 616.2212160000208,
                    "velocity": 0.2204724409448819,
                    "duration": 0.34959600000001956
                }
            ],
            "controlChanges": {
                "7": [
                    {
                        "number": 7,
                        "time": 0,
                        "value": 0.7874015748031497
                    }
                ],
                "10": [
                    {
                        "number": 10,
                        "time": 0,
                        "value": 0.5039370078740157
                    }
                ],
                "91": [
                    {
                        "number": 91,
                        "time": 1.398384,
                        "value": 1
                    },
                    {
                        "number": 91,
                        "time": 72.71596799999999,
                        "value": 1
                    },
                    {
                        "number": 91,
                        "time": 118.86264000000061,
                        "value": 1
                    },
                    {
                        "number": 91,
                        "time": 190.18022400000197,
                        "value": 1
                    },
                    {
                        "number": 91,
                        "time": 236.32689600000347,
                        "value": 1
                    },
                    {
                        "number": 91,
                        "time": 236.32689600000347,
                        "value": 1
                    },
                    {
                        "number": 91,
                        "time": 292.2622560000057,
                        "value": 1
                    },
                    {
                        "number": 91,
                        "time": 369.1733760000091,
                        "value": 1
                    },
                    {
                        "number": 91,
                        "time": 426.50712000001175,
                        "value": 1
                    },
                    {
                        "number": 91,
                        "time": 426.50712000001175,
                        "value": 1
                    },
                    {
                        "number": 91,
                        "time": 482.44248000001403,
                        "value": 1
                    },
                    {
                        "number": 91,
                        "time": 559.3536000000177,
                        "value": 1
                    },
                    {
                        "number": 91,
                        "time": 616.6873440000209,
                        "value": 1
                    }
                ]
            },
            "id": 2,
            "name": "Piano left",
            "instrumentNumber": 0,
            "instrument": "acoustic grand piano",
            "instrumentFamily": "piano",
            "channelNumber": 0,
            "isPercussion": false
        },
        {
            "startTime": 0,
            "duration": 0,
            "length": 0,
            "notes": [],
            "controlChanges": {
                "64": [
                    {
                        "number": 64,
                        "time": 1.398384,
                        "value": 0
                    },
                    {
                        "number": 64,
                        "time": 2.1801195,
                        "value": 1
                    },
                    {
                        "number": 64,
                        "time": 3.7319373000000002,
                        "value": 0
                    },
                    {
                        "number": 64,
                        "time": 4.2573024,
                        "value": 1
                    },
                    {
                        "number": 64,
                        "time": 4.905026100000001,
                        "value": 0
                    },
                    {
                        "number": 64,
                        "time": 6.224751,
                        "value": 1
                    },
                    {
                        "number": 64,
                        "time": 6.7724514000000005,
                        "value": 0
                    },
                    {
                        "number": 64,
                        "time": 8.0523612,
                        "value": 1
                    },
                    {
                        "number": 64,
                        "time": 8.6340501,
                        "value": 0
                    },
                    {
                        "number": 64,
                        "time": 10.543232699999999,
                        "value": 1
                    },
                    {
                        "number": 64,
                        "time": 11.2035807,
                        "value": 0
                    },
                    {
                        "number": 64,
                        "time": 13.1885091,
                        "value": 1
                    },
                    {
                        "number": 64,
                        "time": 13.2992145,
                        "value": 0
                    },
                    {
                        "number": 64,
                        "time": 13.6692036,
                        "value": 1
                    },
                    {
                        "number": 64,
                        "time": 13.7653425,
                        "value": 0
                    },
                    {
                        "number": 64,
                        "time": 14.107169699999998,
                        "value": 1
                    },
                    {
                        "number": 64,
                        "time": 14.231470499999999,
                        "value": 0
                    },
                    {
                        "number": 64,
                        "time": 14.5868931,
                        "value": 1
                    },
                    {
                        "number": 64,
                        "time": 14.916096,
                        "value": 0
                    },
                    {
                        "number": 64,
                        "time": 16.9107354,
                        "value": 1
                    },
                    {
                        "number": 64,
                        "time": 17.2535337,
                        "value": 0
                    },
                    {
                        "number": 64,
                        "time": 17.349672599999998,
                        "value": 1
                    },
                    {
                        "number": 64,
                        "time": 17.721603899999998,
                        "value": 0
                    },
                    {
                        "number": 64,
                        "time": 21.071898899999997,
                        "value": 1
                    },
                    {
                        "number": 64,
                        "time": 21.921611399999996,
                        "value": 0
                    },
                    {
                        "number": 64,
                        "time": 22.895624699999995,
                        "value": 1
                    },
                    {
                        "number": 64,
                        "time": 24.471719999999994,
                        "value": 0
                    },
                    {
                        "number": 64,
                        "time": 24.549407999999993,
                        "value": 1
                    },
                    {
                        "number": 64,
                        "time": 25.179651899999993,
                        "value": 0
                    },
                    {
                        "number": 64,
                        "time": 25.24374449999999,
                        "value": 1
                    },
                    {
                        "number": 64,
                        "time": 26.108994599999992,
                        "value": 0
                    },
                    {
                        "number": 64,
                        "time": 26.371191599999992,
                        "value": 1
                    },
                    {
                        "number": 64,
                        "time": 26.582891399999994,
                        "value": 0
                    },
                    {
                        "number": 64,
                        "time": 26.658637199999994,
                        "value": 1
                    },
                    {
                        "number": 64,
                        "time": 27.520002899999994,
                        "value": 0
                    },
                    {
                        "number": 64,
                        "time": 28.036628099999994,
                        "value": 1
                    },
                    {
                        "number": 64,
                        "time": 28.922271299999995,
                        "value": 0
                    },
                    {
                        "number": 64,
                        "time": 29.935128599999995,
                        "value": 1
                    },
                    {
                        "number": 64,
                        "time": 30.774158999999994,
                        "value": 0
                    },
                    {
                        "number": 64,
                        "time": 31.819062599999995,
                        "value": 1
                    },
                    {
                        "number": 64,
                        "time": 32.007456,
                        "value": 0
                    },
                    {
                        "number": 64,
                        "time": 32.728983299999996,
                        "value": 1
                    },
                    {
                        "number": 64,
                        "time": 32.8960125,
                        "value": 0
                    },
                    {
                        "number": 64,
                        "time": 33.561215999999995,
                        "value": 1
                    },
                    {
                        "number": 64,
                        "time": 34.043852699999995,
                        "value": 0
                    },
                    {
                        "number": 64,
                        "time": 34.100176499999996,
                        "value": 1
                    },
                    {
                        "number": 64,
                        "time": 34.5070674,
                        "value": 0
                    },
                    {
                        "number": 64,
                        "time": 34.5828132,
                        "value": 1
                    },
                    {
                        "number": 64,
                        "time": 34.9712532,
                        "value": 0
                    },
                    {
                        "number": 64,
                        "time": 35.0654499,
                        "value": 1
                    },
                    {
                        "number": 64,
                        "time": 35.435438999999995,
                        "value": 0
                    },
                    {
                        "number": 64,
                        "time": 37.31257529999999,
                        "value": 1
                    },
                    {
                        "number": 64,
                        "time": 37.76705009999999,
                        "value": 0
                    },
                    {
                        "number": 64,
                        "time": 37.811720699999995,
                        "value": 1
                    },
                    {
                        "number": 64,
                        "time": 38.23706249999999,
                        "value": 0
                    },
                    {
                        "number": 64,
                        "time": 38.31669269999999,
                        "value": 1
                    },
                    {
                        "number": 64,
                        "time": 38.70027719999999,
                        "value": 0
                    },
                    {
                        "number": 64,
                        "time": 38.76145649999999,
                        "value": 1
                    },
                    {
                        "number": 64,
                        "time": 39.166405199999986,
                        "value": 0
                    },
                    {
                        "number": 64,
                        "time": 39.87336599999998,
                        "value": 1
                    },
                    {
                        "number": 64,
                        "time": 40.09380569999998,
                        "value": 0
                    },
                    {
                        "number": 64,
                        "time": 41.05810799999998,
                        "value": 1
                    },
                    {
                        "number": 64,
                        "time": 42.20109269999998,
                        "value": 0
                    },
                    {
                        "number": 64,
                        "time": 44.82597599999998,
                        "value": 1
                    },
                    {
                        "number": 64,
                        "time": 45.695110499999984,
                        "value": 0
                    },
                    {
                        "number": 64,
                        "time": 46.695343499999986,
                        "value": 1
                    },
                    {
                        "number": 64,
                        "time": 47.087667899999985,
                        "value": 0
                    },
                    {
                        "number": 64,
                        "time": 47.23041959999998,
                        "value": 1
                    },
                    {
                        "number": 64,
                        "time": 47.556709199999986,
                        "value": 0
                    },
                    {
                        "number": 64,
                        "time": 47.71014299999999,
                        "value": 1
                    },
                    {
                        "number": 64,
                        "time": 48.024779399999986,
                        "value": 0
                    },
                    {
                        "number": 64,
                        "time": 48.120918299999985,
                        "value": 1
                    },
                    {
                        "number": 64,
                        "time": 48.48799409999999,
                        "value": 0
                    },
                    {
                        "number": 64,
                        "time": 48.994908299999985,
                        "value": 1
                    },
                    {
                        "number": 64,
                        "time": 49.42413449999999,
                        "value": 0
                    },
                    {
                        "number": 64,
                        "time": 50.68073789999999,
                        "value": 1
                    },
                    {
                        "number": 64,
                        "time": 51.28476209999999,
                        "value": 0
                    },
                    {
                        "number": 64,
                        "time": 52.508348099999985,
                        "value": 1
                    },
                    {
                        "number": 64,
                        "time": 53.14538969999999,
                        "value": 0
                    },
                    {
                        "number": 64,
                        "time": 54.23593499999999,
                        "value": 1
                    },
                    {
                        "number": 64,
                        "time": 55.01572829999999,
                        "value": 0
                    },
                    {
                        "number": 64,
                        "time": 55.16819099999999,
                        "value": 1
                    },
                    {
                        "number": 64,
                        "time": 55.95186869999999,
                        "value": 0
                    },
                    {
                        "number": 64,
                        "time": 57.94359479999999,
                        "value": 1
                    },
                    {
                        "number": 64,
                        "time": 58.50586169999999,
                        "value": 0
                    },
                    {
                        "number": 64,
                        "time": 59.78674259999999,
                        "value": 1
                    },
                    {
                        "number": 64,
                        "time": 60.83553059999999,
                        "value": 0
                    },
                    {
                        "number": 64,
                        "time": 61.63863029999999,
                        "value": 1
                    },
                    {
                        "number": 64,
                        "time": 62.00376389999999,
                        "value": 0
                    },
                    {
                        "number": 64,
                        "time": 62.104758299999986,
                        "value": 1
                    },
                    {
                        "number": 64,
                        "time": 62.474747399999984,
                        "value": 0
                    },
                    {
                        "number": 64,
                        "time": 62.557290899999984,
                        "value": 1
                    },
                    {
                        "number": 64,
                        "time": 62.942817599999984,
                        "value": 0
                    },
                    {
                        "number": 64,
                        "time": 63.01662119999998,
                        "value": 1
                    },
                    {
                        "number": 64,
                        "time": 63.40117679999998,
                        "value": 0
                    },
                    {
                        "number": 64,
                        "time": 69.02481689999998,
                        "value": 1
                    },
                    {
                        "number": 64,
                        "time": 69.46278299999997,
                        "value": 0
                    },
                    {
                        "number": 64,
                        "time": 69.50842469999998,
                        "value": 1
                    },
                    {
                        "number": 64,
                        "time": 69.92988209999997,
                        "value": 0
                    },
                    {
                        "number": 64,
                        "time": 70.02893429999997,
                        "value": 1
                    },
                    {
                        "number": 64,
                        "time": 70.86408029999997,
                        "value": 0
                    },
                    {
                        "number": 64,
                        "time": 72.77714729999997,
                        "value": 1
                    },
                    {
                        "number": 64,
                        "time": 73.06556399999997,
                        "value": 0
                    },
                    {
                        "number": 64,
                        "time": 73.70357669999997,
                        "value": 1
                    },
                    {
                        "number": 64,
                        "time": 73.99781999999998,
                        "value": 0
                    },
                    {
                        "number": 64,
                        "time": 76.49548919999998,
                        "value": 1
                    },
                    {
                        "number": 64,
                        "time": 76.78973249999999,
                        "value": 0
                    },
                    {
                        "number": 64,
                        "time": 77.45008049999998,
                        "value": 1
                    },
                    {
                        "number": 64,
                        "time": 77.73364169999998,
                        "value": 0
                    },
                    {
                        "number": 64,
                        "time": 85.84523999999998,
                        "value": 1
                    },
                    {
                        "number": 64,
                        "time": 86.71534559999998,
                        "value": 0
                    },
                    {
                        "number": 64,
                        "time": 86.91053669999998,
                        "value": 1
                    },
                    {
                        "number": 64,
                        "time": 87.64954379999998,
                        "value": 0
                    },
                    {
                        "number": 64,
                        "time": 87.72140519999998,
                        "value": 1
                    },
                    {
                        "number": 64,
                        "time": 88.20792629999998,
                        "value": 0
                    },
                    {
                        "number": 64,
                        "time": 88.62647039999999,
                        "value": 1
                    },
                    {
                        "number": 64,
                        "time": 89.20233269999999,
                        "value": 0
                    },
                    {
                        "number": 64,
                        "time": 89.55872639999998,
                        "value": 1
                    },
                    {
                        "number": 64,
                        "time": 90.09283139999998,
                        "value": 0
                    },
                    {
                        "number": 64,
                        "time": 90.52497089999999,
                        "value": 1
                    },
                    {
                        "number": 64,
                        "time": 91.08044009999999,
                        "value": 0
                    },
                    {
                        "number": 64,
                        "time": 93.53440979999999,
                        "value": 1
                    },
                    {
                        "number": 64,
                        "time": 93.69755459999999,
                        "value": 0
                    },
                    {
                        "number": 64,
                        "time": 93.76067609999998,
                        "value": 1
                    },
                    {
                        "number": 64,
                        "time": 93.93450299999998,
                        "value": 0
                    },
                    {
                        "number": 64,
                        "time": 93.99374009999998,
                        "value": 1
                    },
                    {
                        "number": 64,
                        "time": 94.16756699999998,
                        "value": 0
                    },
                    {
                        "number": 64,
                        "time": 94.48026119999997,
                        "value": 1
                    },
                    {
                        "number": 64,
                        "time": 94.63175279999997,
                        "value": 0
                    },
                    {
                        "number": 64,
                        "time": 94.71332519999997,
                        "value": 1
                    },
                    {
                        "number": 64,
                        "time": 94.86773009999997,
                        "value": 0
                    },
                    {
                        "number": 64,
                        "time": 94.92599609999998,
                        "value": 1
                    },
                    {
                        "number": 64,
                        "time": 95.09690969999998,
                        "value": 0
                    },
                    {
                        "number": 64,
                        "time": 95.41251719999998,
                        "value": 1
                    },
                    {
                        "number": 64,
                        "time": 95.56400879999998,
                        "value": 0
                    },
                    {
                        "number": 64,
                        "time": 95.62324589999999,
                        "value": 1
                    },
                    {
                        "number": 64,
                        "time": 95.79707279999998,
                        "value": 0
                    },
                    {
                        "number": 64,
                        "time": 95.87281859999999,
                        "value": 1
                    },
                    {
                        "number": 64,
                        "time": 96.03790559999999,
                        "value": 0
                    },
                    {
                        "number": 64,
                        "time": 98.86963319999998,
                        "value": 1
                    },
                    {
                        "number": 64,
                        "time": 99.31342589999998,
                        "value": 0
                    },
                    {
                        "number": 64,
                        "time": 99.80188919999999,
                        "value": 1
                    },
                    {
                        "number": 64,
                        "time": 100.0116468,
                        "value": 0
                    },
                    {
                        "number": 64,
                        "time": 101.01285089999999,
                        "value": 1
                    },
                    {
                        "number": 64,
                        "time": 101.16628469999999,
                        "value": 0
                    },
                    {
                        "number": 64,
                        "time": 101.23231949999999,
                        "value": 1
                    },
                    {
                        "number": 64,
                        "time": 101.39643539999999,
                        "value": 0
                    },
                    {
                        "number": 64,
                        "time": 101.46538349999999,
                        "value": 1
                    },
                    {
                        "number": 64,
                        "time": 101.6227017,
                        "value": 0
                    },
                    {
                        "number": 64,
                        "time": 101.92471379999999,
                        "value": 1
                    },
                    {
                        "number": 64,
                        "time": 102.10048289999999,
                        "value": 0
                    },
                    {
                        "number": 64,
                        "time": 102.17137319999999,
                        "value": 1
                    },
                    {
                        "number": 64,
                        "time": 102.3277203,
                        "value": 0
                    },
                    {
                        "number": 64,
                        "time": 102.3976395,
                        "value": 1
                    },
                    {
                        "number": 64,
                        "time": 102.5598132,
                        "value": 0
                    },
                    {
                        "number": 64,
                        "time": 102.79287719999999,
                        "value": 1
                    },
                    {
                        "number": 64,
                        "time": 103.0172013,
                        "value": 0
                    },
                    {
                        "number": 64,
                        "time": 103.0696407,
                        "value": 1
                    },
                    {
                        "number": 64,
                        "time": 103.25900519999999,
                        "value": 0
                    },
                    {
                        "number": 64,
                        "time": 103.30853129999998,
                        "value": 1
                    },
                    {
                        "number": 64,
                        "time": 103.49498249999998,
                        "value": 0
                    },
                    {
                        "number": 64,
                        "time": 103.55324849999998,
                        "value": 1
                    },
                    {
                        "number": 64,
                        "time": 103.72513319999999,
                        "value": 0
                    },
                    {
                        "number": 64,
                        "time": 103.78048589999999,
                        "value": 1
                    },
                    {
                        "number": 64,
                        "time": 103.96111049999999,
                        "value": 0
                    },
                    {
                        "number": 64,
                        "time": 104.03005859999999,
                        "value": 1
                    },
                    {
                        "number": 64,
                        "time": 104.1883479,
                        "value": 0
                    },
                    {
                        "number": 64,
                        "time": 104.2407873,
                        "value": 1
                    },
                    {
                        "number": 64,
                        "time": 104.422383,
                        "value": 0
                    },
                    {
                        "number": 64,
                        "time": 106.33253669999999,
                        "value": 1
                    },
                    {
                        "number": 64,
                        "time": 106.5723984,
                        "value": 0
                    },
                    {
                        "number": 64,
                        "time": 107.2298331,
                        "value": 1
                    },
                    {
                        "number": 64,
                        "time": 108.1455804,
                        "value": 0
                    },
                    {
                        "number": 64,
                        "time": 108.1970487,
                        "value": 1
                    },
                    {
                        "number": 64,
                        "time": 110.006208,
                        "value": 0
                    },
                    {
                        "number": 64,
                        "time": 116.1076293,
                        "value": 1
                    },
                    {
                        "number": 64,
                        "time": 116.5494798,
                        "value": 0
                    },
                    {
                        "number": 64,
                        "time": 116.6009481,
                        "value": 1
                    },
                    {
                        "number": 64,
                        "time": 117.00978119999999,
                        "value": 0
                    },
                    {
                        "number": 64,
                        "time": 117.6225453,
                        "value": 1
                    },
                    {
                        "number": 64,
                        "time": 118.4130207,
                        "value": 0
                    },
                    {
                        "number": 64,
                        "time": 118.49944860000001,
                        "value": 1
                    },
                    {
                        "number": 64,
                        "time": 118.65676680000001,
                        "value": 0
                    },
                    {
                        "number": 64,
                        "time": 119.64437550000001,
                        "value": 1
                    },
                    {
                        "number": 64,
                        "time": 121.1961933,
                        "value": 0
                    },
                    {
                        "number": 64,
                        "time": 121.7215584,
                        "value": 1
                    },
                    {
                        "number": 64,
                        "time": 122.3692821,
                        "value": 0
                    },
                    {
                        "number": 64,
                        "time": 123.689007,
                        "value": 1
                    },
                    {
                        "number": 64,
                        "time": 124.2367074,
                        "value": 0
                    },
                    {
                        "number": 64,
                        "time": 125.5166172,
                        "value": 1
                    },
                    {
                        "number": 64,
                        "time": 126.0983061,
                        "value": 0
                    },
                    {
                        "number": 64,
                        "time": 128.0074887,
                        "value": 1
                    },
                    {
                        "number": 64,
                        "time": 128.6678367,
                        "value": 0
                    },
                    {
                        "number": 64,
                        "time": 130.6527651,
                        "value": 1
                    },
                    {
                        "number": 64,
                        "time": 130.7634705,
                        "value": 0
                    },
                    {
                        "number": 64,
                        "time": 131.1334596,
                        "value": 1
                    },
                    {
                        "number": 64,
                        "time": 131.2295985,
                        "value": 0
                    },
                    {
                        "number": 64,
                        "time": 131.57142570000002,
                        "value": 1
                    },
                    {
                        "number": 64,
                        "time": 131.6957265,
                        "value": 0
                    },
                    {
                        "number": 64,
                        "time": 132.0511491,
                        "value": 1
                    },
                    {
                        "number": 64,
                        "time": 132.38035200000002,
                        "value": 0
                    },
                    {
                        "number": 64,
                        "time": 134.37499140000003,
                        "value": 1
                    },
                    {
                        "number": 64,
                        "time": 134.71778970000003,
                        "value": 0
                    },
                    {
                        "number": 64,
                        "time": 134.81392860000003,
                        "value": 1
                    },
                    {
                        "number": 64,
                        "time": 135.18585990000003,
                        "value": 0
                    },
                    {
                        "number": 64,
                        "time": 138.5361549,
                        "value": 1
                    },
                    {
                        "number": 64,
                        "time": 139.38586740000002,
                        "value": 0
                    },
                    {
                        "number": 64,
                        "time": 140.35988070000002,
                        "value": 1
                    },
                    {
                        "number": 64,
                        "time": 141.935976,
                        "value": 0
                    },
                    {
                        "number": 64,
                        "time": 142.013664,
                        "value": 1
                    },
                    {
                        "number": 64,
                        "time": 142.64390790000002,
                        "value": 0
                    },
                    {
                        "number": 64,
                        "time": 142.70800050000003,
                        "value": 1
                    },
                    {
                        "number": 64,
                        "time": 143.57325060000002,
                        "value": 0
                    },
                    {
                        "number": 64,
                        "time": 143.8354476,
                        "value": 1
                    },
                    {
                        "number": 64,
                        "time": 144.0471474,
                        "value": 0
                    },
                    {
                        "number": 64,
                        "time": 144.1228932,
                        "value": 1
                    },
                    {
                        "number": 64,
                        "time": 144.9842589,
                        "value": 0
                    },
                    {
                        "number": 64,
                        "time": 145.50088409999998,
                        "value": 1
                    },
                    {
                        "number": 64,
                        "time": 146.38652729999998,
                        "value": 0
                    },
                    {
                        "number": 64,
                        "time": 147.3993846,
                        "value": 1
                    },
                    {
                        "number": 64,
                        "time": 148.238415,
                        "value": 0
                    },
                    {
                        "number": 64,
                        "time": 149.2833186,
                        "value": 1
                    },
                    {
                        "number": 64,
                        "time": 149.471712,
                        "value": 0
                    },
                    {
                        "number": 64,
                        "time": 150.1932393,
                        "value": 1
                    },
                    {
                        "number": 64,
                        "time": 150.3602685,
                        "value": 0
                    },
                    {
                        "number": 64,
                        "time": 151.02547199999998,
                        "value": 1
                    },
                    {
                        "number": 64,
                        "time": 151.50810869999998,
                        "value": 0
                    },
                    {
                        "number": 64,
                        "time": 151.56443249999998,
                        "value": 1
                    },
                    {
                        "number": 64,
                        "time": 151.9713234,
                        "value": 0
                    },
                    {
                        "number": 64,
                        "time": 152.04706919999998,
                        "value": 1
                    },
                    {
                        "number": 64,
                        "time": 152.43550919999998,
                        "value": 0
                    },
                    {
                        "number": 64,
                        "time": 152.52970589999998,
                        "value": 1
                    },
                    {
                        "number": 64,
                        "time": 152.89969499999998,
                        "value": 0
                    },
                    {
                        "number": 64,
                        "time": 154.77683129999997,
                        "value": 1
                    },
                    {
                        "number": 64,
                        "time": 155.23130609999998,
                        "value": 0
                    },
                    {
                        "number": 64,
                        "time": 155.27597669999997,
                        "value": 1
                    },
                    {
                        "number": 64,
                        "time": 155.70131849999999,
                        "value": 0
                    },
                    {
                        "number": 64,
                        "time": 155.78094869999998,
                        "value": 1
                    },
                    {
                        "number": 64,
                        "time": 156.1645332,
                        "value": 0
                    },
                    {
                        "number": 64,
                        "time": 156.2257125,
                        "value": 1
                    },
                    {
                        "number": 64,
                        "time": 156.6306612,
                        "value": 0
                    },
                    {
                        "number": 64,
                        "time": 157.33762199999998,
                        "value": 1
                    },
                    {
                        "number": 64,
                        "time": 157.55806169999997,
                        "value": 0
                    },
                    {
                        "number": 64,
                        "time": 158.52236399999998,
                        "value": 1
                    },
                    {
                        "number": 64,
                        "time": 159.66534869999998,
                        "value": 0
                    },
                    {
                        "number": 64,
                        "time": 162.29023199999997,
                        "value": 1
                    },
                    {
                        "number": 64,
                        "time": 163.15936649999998,
                        "value": 0
                    },
                    {
                        "number": 64,
                        "time": 164.15959949999998,
                        "value": 1
                    },
                    {
                        "number": 64,
                        "time": 164.5519239,
                        "value": 0
                    },
                    {
                        "number": 64,
                        "time": 164.69467559999998,
                        "value": 1
                    },
                    {
                        "number": 64,
                        "time": 165.02096519999998,
                        "value": 0
                    },
                    {
                        "number": 64,
                        "time": 165.17439899999997,
                        "value": 1
                    },
                    {
                        "number": 64,
                        "time": 165.48903539999998,
                        "value": 0
                    },
                    {
                        "number": 64,
                        "time": 165.58517429999998,
                        "value": 1
                    },
                    {
                        "number": 64,
                        "time": 165.9522501,
                        "value": 0
                    },
                    {
                        "number": 64,
                        "time": 166.4591643,
                        "value": 1
                    },
                    {
                        "number": 64,
                        "time": 166.88839049999999,
                        "value": 0
                    },
                    {
                        "number": 64,
                        "time": 168.14499389999997,
                        "value": 1
                    },
                    {
                        "number": 64,
                        "time": 168.74901809999997,
                        "value": 0
                    },
                    {
                        "number": 64,
                        "time": 169.97260409999998,
                        "value": 1
                    },
                    {
                        "number": 64,
                        "time": 170.6096457,
                        "value": 0
                    },
                    {
                        "number": 64,
                        "time": 171.700191,
                        "value": 1
                    },
                    {
                        "number": 64,
                        "time": 172.47998429999998,
                        "value": 0
                    },
                    {
                        "number": 64,
                        "time": 172.63244699999998,
                        "value": 1
                    },
                    {
                        "number": 64,
                        "time": 173.41612469999998,
                        "value": 0
                    },
                    {
                        "number": 64,
                        "time": 175.40785079999998,
                        "value": 1
                    },
                    {
                        "number": 64,
                        "time": 175.97011769999997,
                        "value": 0
                    },
                    {
                        "number": 64,
                        "time": 177.25099859999997,
                        "value": 1
                    },
                    {
                        "number": 64,
                        "time": 178.29978659999998,
                        "value": 0
                    },
                    {
                        "number": 64,
                        "time": 179.10288629999997,
                        "value": 1
                    },
                    {
                        "number": 64,
                        "time": 179.46801989999997,
                        "value": 0
                    },
                    {
                        "number": 64,
                        "time": 179.56901429999996,
                        "value": 1
                    },
                    {
                        "number": 64,
                        "time": 179.93900339999996,
                        "value": 0
                    },
                    {
                        "number": 64,
                        "time": 180.02154689999998,
                        "value": 1
                    },
                    {
                        "number": 64,
                        "time": 180.4070736,
                        "value": 0
                    },
                    {
                        "number": 64,
                        "time": 180.48087719999998,
                        "value": 1
                    },
                    {
                        "number": 64,
                        "time": 180.86543279999998,
                        "value": 0
                    },
                    {
                        "number": 64,
                        "time": 186.48907289999997,
                        "value": 1
                    },
                    {
                        "number": 64,
                        "time": 186.92703899999998,
                        "value": 0
                    },
                    {
                        "number": 64,
                        "time": 186.97268069999998,
                        "value": 1
                    },
                    {
                        "number": 64,
                        "time": 187.3941381,
                        "value": 0
                    },
                    {
                        "number": 64,
                        "time": 187.49319029999998,
                        "value": 1
                    },
                    {
                        "number": 64,
                        "time": 188.3283363,
                        "value": 0
                    },
                    {
                        "number": 64,
                        "time": 190.2414033,
                        "value": 1
                    },
                    {
                        "number": 64,
                        "time": 190.52982,
                        "value": 0
                    },
                    {
                        "number": 64,
                        "time": 191.1678327,
                        "value": 1
                    },
                    {
                        "number": 64,
                        "time": 191.462076,
                        "value": 0
                    },
                    {
                        "number": 64,
                        "time": 193.9597452,
                        "value": 1
                    },
                    {
                        "number": 64,
                        "time": 194.2539885,
                        "value": 0
                    },
                    {
                        "number": 64,
                        "time": 194.9143365,
                        "value": 1
                    },
                    {
                        "number": 64,
                        "time": 195.1978977,
                        "value": 0
                    },
                    {
                        "number": 64,
                        "time": 203.309496,
                        "value": 1
                    },
                    {
                        "number": 64,
                        "time": 204.17960159999998,
                        "value": 0
                    },
                    {
                        "number": 64,
                        "time": 204.37479269999997,
                        "value": 1
                    },
                    {
                        "number": 64,
                        "time": 205.11379979999998,
                        "value": 0
                    },
                    {
                        "number": 64,
                        "time": 205.18566119999997,
                        "value": 1
                    },
                    {
                        "number": 64,
                        "time": 205.67218229999997,
                        "value": 0
                    },
                    {
                        "number": 64,
                        "time": 206.09072639999997,
                        "value": 1
                    },
                    {
                        "number": 64,
                        "time": 206.66658869999998,
                        "value": 0
                    },
                    {
                        "number": 64,
                        "time": 207.0229824,
                        "value": 1
                    },
                    {
                        "number": 64,
                        "time": 207.5570874,
                        "value": 0
                    },
                    {
                        "number": 64,
                        "time": 207.9892269,
                        "value": 1
                    },
                    {
                        "number": 64,
                        "time": 208.5446961,
                        "value": 0
                    },
                    {
                        "number": 64,
                        "time": 210.9986658,
                        "value": 1
                    },
                    {
                        "number": 64,
                        "time": 211.1618106,
                        "value": 0
                    },
                    {
                        "number": 64,
                        "time": 211.2249321,
                        "value": 1
                    },
                    {
                        "number": 64,
                        "time": 211.39875899999998,
                        "value": 0
                    },
                    {
                        "number": 64,
                        "time": 211.45799609999997,
                        "value": 1
                    },
                    {
                        "number": 64,
                        "time": 211.63182299999997,
                        "value": 0
                    },
                    {
                        "number": 64,
                        "time": 211.94451719999998,
                        "value": 1
                    },
                    {
                        "number": 64,
                        "time": 212.0960088,
                        "value": 0
                    },
                    {
                        "number": 64,
                        "time": 212.1775812,
                        "value": 1
                    },
                    {
                        "number": 64,
                        "time": 212.3319861,
                        "value": 0
                    },
                    {
                        "number": 64,
                        "time": 212.3902521,
                        "value": 1
                    },
                    {
                        "number": 64,
                        "time": 212.5611657,
                        "value": 0
                    },
                    {
                        "number": 64,
                        "time": 212.8767732,
                        "value": 1
                    },
                    {
                        "number": 64,
                        "time": 213.02826480000002,
                        "value": 0
                    },
                    {
                        "number": 64,
                        "time": 213.0875019,
                        "value": 1
                    },
                    {
                        "number": 64,
                        "time": 213.2613288,
                        "value": 0
                    },
                    {
                        "number": 64,
                        "time": 213.3370746,
                        "value": 1
                    },
                    {
                        "number": 64,
                        "time": 213.5021616,
                        "value": 0
                    },
                    {
                        "number": 64,
                        "time": 216.3338892,
                        "value": 1
                    },
                    {
                        "number": 64,
                        "time": 216.77768189999998,
                        "value": 0
                    },
                    {
                        "number": 64,
                        "time": 217.26614519999998,
                        "value": 1
                    },
                    {
                        "number": 64,
                        "time": 217.47590279999997,
                        "value": 0
                    },
                    {
                        "number": 64,
                        "time": 218.47710689999997,
                        "value": 1
                    },
                    {
                        "number": 64,
                        "time": 218.63054069999995,
                        "value": 0
                    },
                    {
                        "number": 64,
                        "time": 218.69657549999997,
                        "value": 1
                    },
                    {
                        "number": 64,
                        "time": 218.86069139999998,
                        "value": 0
                    },
                    {
                        "number": 64,
                        "time": 218.92963949999998,
                        "value": 1
                    },
                    {
                        "number": 64,
                        "time": 219.08695769999997,
                        "value": 0
                    },
                    {
                        "number": 64,
                        "time": 219.38896979999998,
                        "value": 1
                    },
                    {
                        "number": 64,
                        "time": 219.56473889999998,
                        "value": 0
                    },
                    {
                        "number": 64,
                        "time": 219.63562919999998,
                        "value": 1
                    },
                    {
                        "number": 64,
                        "time": 219.7919763,
                        "value": 0
                    },
                    {
                        "number": 64,
                        "time": 219.86189549999997,
                        "value": 1
                    },
                    {
                        "number": 64,
                        "time": 220.02406919999999,
                        "value": 0
                    },
                    {
                        "number": 64,
                        "time": 220.2571332,
                        "value": 1
                    },
                    {
                        "number": 64,
                        "time": 220.4814573,
                        "value": 0
                    },
                    {
                        "number": 64,
                        "time": 220.53389669999999,
                        "value": 1
                    },
                    {
                        "number": 64,
                        "time": 220.7232612,
                        "value": 0
                    },
                    {
                        "number": 64,
                        "time": 220.7727873,
                        "value": 1
                    },
                    {
                        "number": 64,
                        "time": 220.9592385,
                        "value": 0
                    },
                    {
                        "number": 64,
                        "time": 221.0175045,
                        "value": 1
                    },
                    {
                        "number": 64,
                        "time": 221.1893892,
                        "value": 0
                    },
                    {
                        "number": 64,
                        "time": 221.24474189999998,
                        "value": 1
                    },
                    {
                        "number": 64,
                        "time": 221.42536649999997,
                        "value": 0
                    },
                    {
                        "number": 64,
                        "time": 221.49431459999997,
                        "value": 1
                    },
                    {
                        "number": 64,
                        "time": 221.65260389999997,
                        "value": 0
                    },
                    {
                        "number": 64,
                        "time": 221.70504329999997,
                        "value": 1
                    },
                    {
                        "number": 64,
                        "time": 221.88663899999997,
                        "value": 0
                    },
                    {
                        "number": 64,
                        "time": 223.79679269999997,
                        "value": 1
                    },
                    {
                        "number": 64,
                        "time": 224.03665439999997,
                        "value": 0
                    },
                    {
                        "number": 64,
                        "time": 224.69408909999999,
                        "value": 1
                    },
                    {
                        "number": 64,
                        "time": 225.60983639999998,
                        "value": 0
                    },
                    {
                        "number": 64,
                        "time": 225.6613047,
                        "value": 1
                    },
                    {
                        "number": 64,
                        "time": 227.470464,
                        "value": 0
                    },
                    {
                        "number": 64,
                        "time": 233.5718853,
                        "value": 1
                    },
                    {
                        "number": 64,
                        "time": 234.01373579999998,
                        "value": 0
                    },
                    {
                        "number": 64,
                        "time": 234.0652041,
                        "value": 1
                    },
                    {
                        "number": 64,
                        "time": 234.4740372,
                        "value": 0
                    },
                    {
                        "number": 64,
                        "time": 235.0868013,
                        "value": 1
                    },
                    {
                        "number": 64,
                        "time": 235.87727669999998,
                        "value": 0
                    },
                    {
                        "number": 64,
                        "time": 235.96370459999997,
                        "value": 1
                    },
                    {
                        "number": 64,
                        "time": 236.12102279999996,
                        "value": 0
                    },
                    {
                        "number": 64,
                        "time": 237.07658519999995,
                        "value": 1
                    },
                    {
                        "number": 64,
                        "time": 237.98359259999995,
                        "value": 0
                    },
                    {
                        "number": 64,
                        "time": 238.95954809999995,
                        "value": 1
                    },
                    {
                        "number": 64,
                        "time": 240.06757319999994,
                        "value": 0
                    },
                    {
                        "number": 64,
                        "time": 240.81920459999995,
                        "value": 1
                    },
                    {
                        "number": 64,
                        "time": 241.70387669999994,
                        "value": 0
                    },
                    {
                        "number": 64,
                        "time": 242.65749689999993,
                        "value": 1
                    },
                    {
                        "number": 64,
                        "time": 243.58975289999992,
                        "value": 0
                    },
                    {
                        "number": 64,
                        "time": 244.18989269999992,
                        "value": 1
                    },
                    {
                        "number": 64,
                        "time": 245.0532005999999,
                        "value": 0
                    },
                    {
                        "number": 64,
                        "time": 245.1367151999999,
                        "value": 1
                    },
                    {
                        "number": 64,
                        "time": 246.0796532999999,
                        "value": 0
                    },
                    {
                        "number": 64,
                        "time": 246.1155839999999,
                        "value": 1
                    },
                    {
                        "number": 64,
                        "time": 247.9800959999999,
                        "value": 0
                    },
                    {
                        "number": 64,
                        "time": 248.0597261999999,
                        "value": 1
                    },
                    {
                        "number": 64,
                        "time": 248.9181785999999,
                        "value": 0
                    },
                    {
                        "number": 64,
                        "time": 248.9851844999999,
                        "value": 1
                    },
                    {
                        "number": 64,
                        "time": 249.15706919999988,
                        "value": 0
                    },
                    {
                        "number": 64,
                        "time": 249.92229599999987,
                        "value": 1
                    },
                    {
                        "number": 64,
                        "time": 250.28354519999988,
                        "value": 0
                    },
                    {
                        "number": 64,
                        "time": 251.71785989999987,
                        "value": 0
                    },
                    {
                        "number": 64,
                        "time": 251.75379059999986,
                        "value": 1
                    },
                    {
                        "number": 64,
                        "time": 251.94801059999986,
                        "value": 0
                    },
                    {
                        "number": 64,
                        "time": 252.25876259999987,
                        "value": 1
                    },
                    {
                        "number": 64,
                        "time": 252.41996519999987,
                        "value": 0
                    },
                    {
                        "number": 64,
                        "time": 253.63578239999987,
                        "value": 1
                    },
                    {
                        "number": 64,
                        "time": 254.04655769999988,
                        "value": 0
                    },
                    {
                        "number": 64,
                        "time": 254.11550579999988,
                        "value": 1
                    },
                    {
                        "number": 64,
                        "time": 254.51754119999987,
                        "value": 0
                    },
                    {
                        "number": 64,
                        "time": 254.58163379999988,
                        "value": 1
                    },
                    {
                        "number": 64,
                        "time": 254.98949579999987,
                        "value": 0
                    },
                    {
                        "number": 64,
                        "time": 255.07495259999988,
                        "value": 1
                    },
                    {
                        "number": 64,
                        "time": 255.44882609999988,
                        "value": 0
                    },
                    {
                        "number": 64,
                        "time": 255.48864119999988,
                        "value": 1
                    },
                    {
                        "number": 64,
                        "time": 255.91980959999987,
                        "value": 0
                    },
                    {
                        "number": 64,
                        "time": 255.98195999999987,
                        "value": 1
                    },
                    {
                        "number": 64,
                        "time": 256.3801109999999,
                        "value": 0
                    },
                    {
                        "number": 64,
                        "time": 256.44808799999987,
                        "value": 1
                    },
                    {
                        "number": 64,
                        "time": 256.8481811999999,
                        "value": 0
                    },
                    {
                        "number": 64,
                        "time": 256.9142159999999,
                        "value": 1
                    },
                    {
                        "number": 64,
                        "time": 257.3143091999999,
                        "value": 0
                    },
                    {
                        "number": 64,
                        "time": 257.3754884999999,
                        "value": 1
                    },
                    {
                        "number": 64,
                        "time": 257.5454309999999,
                        "value": 0
                    },
                    {
                        "number": 64,
                        "time": 257.6192345999999,
                        "value": 1
                    },
                    {
                        "number": 64,
                        "time": 257.7775238999999,
                        "value": 0
                    },
                    {
                        "number": 64,
                        "time": 257.8357898999999,
                        "value": 1
                    },
                    {
                        "number": 64,
                        "time": 258.2455940999999,
                        "value": 0
                    },
                    {
                        "number": 64,
                        "time": 259.2050408999999,
                        "value": 1
                    },
                    {
                        "number": 64,
                        "time": 259.6410647999999,
                        "value": 0
                    },
                    {
                        "number": 64,
                        "time": 259.68185099999994,
                        "value": 1
                    },
                    {
                        "number": 64,
                        "time": 260.11010609999994,
                        "value": 0
                    },
                    {
                        "number": 64,
                        "time": 260.15089229999995,
                        "value": 1
                    },
                    {
                        "number": 64,
                        "time": 260.57623409999997,
                        "value": 0
                    },
                    {
                        "number": 64,
                        "time": 260.60730929999994,
                        "value": 1
                    },
                    {
                        "number": 64,
                        "time": 261.0452753999999,
                        "value": 0
                    },
                    {
                        "number": 64,
                        "time": 261.5667560999999,
                        "value": 1
                    },
                    {
                        "number": 64,
                        "time": 261.9726758999999,
                        "value": 0
                    },
                    {
                        "number": 64,
                        "time": 264.7878947999999,
                        "value": 1
                    },
                    {
                        "number": 64,
                        "time": 265.01124779999986,
                        "value": 0
                    },
                    {
                        "number": 64,
                        "time": 265.27150259999985,
                        "value": 1
                    },
                    {
                        "number": 64,
                        "time": 265.71043979999985,
                        "value": 0
                    },
                    {
                        "number": 64,
                        "time": 265.75802369999985,
                        "value": 1
                    },
                    {
                        "number": 64,
                        "time": 266.17074119999984,
                        "value": 0
                    },
                    {
                        "number": 64,
                        "time": 266.20764299999985,
                        "value": 1
                    },
                    {
                        "number": 64,
                        "time": 266.63201369999985,
                        "value": 0
                    },
                    {
                        "number": 64,
                        "time": 266.7029039999998,
                        "value": 1
                    },
                    {
                        "number": 64,
                        "time": 267.1117370999998,
                        "value": 0
                    },
                    {
                        "number": 64,
                        "time": 267.1806851999998,
                        "value": 1
                    },
                    {
                        "number": 64,
                        "time": 267.5700962999998,
                        "value": 0
                    },
                    {
                        "number": 64,
                        "time": 279.8205227999998,
                        "value": 1
                    },
                    {
                        "number": 64,
                        "time": 280.1536100999998,
                        "value": 0
                    },
                    {
                        "number": 64,
                        "time": 280.2322691999998,
                        "value": 1
                    },
                    {
                        "number": 64,
                        "time": 280.6207091999998,
                        "value": 0
                    },
                    {
                        "number": 64,
                        "time": 281.5898669999998,
                        "value": 1
                    },
                    {
                        "number": 64,
                        "time": 282.0220064999998,
                        "value": 0
                    },
                    {
                        "number": 64,
                        "time": 282.0899834999998,
                        "value": 1
                    },
                    {
                        "number": 64,
                        "time": 282.4891055999998,
                        "value": 0
                    },
                    {
                        "number": 64,
                        "time": 283.63403249999976,
                        "value": 1
                    },
                    {
                        "number": 64,
                        "time": 283.88846069999977,
                        "value": 0
                    },
                    {
                        "number": 64,
                        "time": 283.9554665999998,
                        "value": 1
                    },
                    {
                        "number": 64,
                        "time": 284.3497331999998,
                        "value": 0
                    },
                    {
                        "number": 64,
                        "time": 285.5373884999998,
                        "value": 1
                    },
                    {
                        "number": 64,
                        "time": 285.7529726999998,
                        "value": 0
                    },
                    {
                        "number": 64,
                        "time": 285.8141519999998,
                        "value": 1
                    },
                    {
                        "number": 64,
                        "time": 286.2142451999998,
                        "value": 0
                    },
                    {
                        "number": 64,
                        "time": 292.2622559999998,
                        "value": 0
                    },
                    {
                        "number": 64,
                        "time": 293.04399149999983,
                        "value": 1
                    },
                    {
                        "number": 64,
                        "time": 294.5958092999998,
                        "value": 0
                    },
                    {
                        "number": 64,
                        "time": 295.1211743999998,
                        "value": 1
                    },
                    {
                        "number": 64,
                        "time": 295.7688980999998,
                        "value": 0
                    },
                    {
                        "number": 64,
                        "time": 297.08862299999976,
                        "value": 1
                    },
                    {
                        "number": 64,
                        "time": 297.63632339999975,
                        "value": 0
                    },
                    {
                        "number": 64,
                        "time": 298.91623319999974,
                        "value": 1
                    },
                    {
                        "number": 64,
                        "time": 299.49792209999976,
                        "value": 0
                    },
                    {
                        "number": 64,
                        "time": 301.40710469999976,
                        "value": 1
                    },
                    {
                        "number": 64,
                        "time": 302.06745269999976,
                        "value": 0
                    },
                    {
                        "number": 64,
                        "time": 304.05238109999976,
                        "value": 1
                    },
                    {
                        "number": 64,
                        "time": 304.16308649999974,
                        "value": 0
                    },
                    {
                        "number": 64,
                        "time": 304.53307559999973,
                        "value": 1
                    },
                    {
                        "number": 64,
                        "time": 304.62921449999976,
                        "value": 0
                    },
                    {
                        "number": 64,
                        "time": 304.9710416999998,
                        "value": 1
                    },
                    {
                        "number": 64,
                        "time": 305.0953424999998,
                        "value": 0
                    },
                    {
                        "number": 64,
                        "time": 305.4507650999998,
                        "value": 1
                    },
                    {
                        "number": 64,
                        "time": 305.77996799999977,
                        "value": 0
                    },
                    {
                        "number": 64,
                        "time": 307.77460739999975,
                        "value": 1
                    },
                    {
                        "number": 64,
                        "time": 308.1174056999998,
                        "value": 0
                    },
                    {
                        "number": 64,
                        "time": 308.2135445999998,
                        "value": 1
                    },
                    {
                        "number": 64,
                        "time": 308.58547589999984,
                        "value": 0
                    },
                    {
                        "number": 64,
                        "time": 311.8532273999998,
                        "value": 1
                    },
                    {
                        "number": 64,
                        "time": 313.2380159999998,
                        "value": 0
                    },
                    {
                        "number": 64,
                        "time": 313.7313347999998,
                        "value": 1
                    },
                    {
                        "number": 64,
                        "time": 315.1025279999998,
                        "value": 0
                    },
                    {
                        "number": 64,
                        "time": 317.21369939999977,
                        "value": 1
                    },
                    {
                        "number": 64,
                        "time": 318.14595539999976,
                        "value": 0
                    },
                    {
                        "number": 64,
                        "time": 319.13162189999974,
                        "value": 1
                    },
                    {
                        "number": 64,
                        "time": 319.84732259999976,
                        "value": 0
                    },
                    {
                        "number": 64,
                        "time": 320.91844589999977,
                        "value": 1
                    },
                    {
                        "number": 64,
                        "time": 321.79534919999975,
                        "value": 0
                    },
                    {
                        "number": 64,
                        "time": 322.8421949999997,
                        "value": 1
                    },
                    {
                        "number": 64,
                        "time": 323.7530867999997,
                        "value": 0
                    },
                    {
                        "number": 64,
                        "time": 324.4736429999997,
                        "value": 1
                    },
                    {
                        "number": 64,
                        "time": 325.3641416999997,
                        "value": 0
                    },
                    {
                        "number": 64,
                        "time": 328.23179999999974,
                        "value": 1
                    },
                    {
                        "number": 64,
                        "time": 328.43184659999974,
                        "value": 0
                    },
                    {
                        "number": 64,
                        "time": 329.12035649999973,
                        "value": 1
                    },
                    {
                        "number": 64,
                        "time": 329.3670158999997,
                        "value": 0
                    },
                    {
                        "number": 64,
                        "time": 330.0739766999997,
                        "value": 1
                    },
                    {
                        "number": 64,
                        "time": 330.49252079999974,
                        "value": 0
                    },
                    {
                        "number": 64,
                        "time": 330.58768859999975,
                        "value": 1
                    },
                    {
                        "number": 64,
                        "time": 330.96447539999974,
                        "value": 0
                    },
                    {
                        "number": 64,
                        "time": 331.0470188999997,
                        "value": 1
                    },
                    {
                        "number": 64,
                        "time": 331.4276900999997,
                        "value": 0
                    },
                    {
                        "number": 64,
                        "time": 331.5131468999997,
                        "value": 1
                    },
                    {
                        "number": 64,
                        "time": 331.8879914999997,
                        "value": 0
                    },
                    {
                        "number": 64,
                        "time": 333.8030006999997,
                        "value": 1
                    },
                    {
                        "number": 64,
                        "time": 334.2264002999997,
                        "value": 0
                    },
                    {
                        "number": 64,
                        "time": 334.3031171999997,
                        "value": 1
                    },
                    {
                        "number": 64,
                        "time": 334.69349939999967,
                        "value": 0
                    },
                    {
                        "number": 64,
                        "time": 334.77992729999966,
                        "value": 1
                    },
                    {
                        "number": 64,
                        "time": 335.15574299999963,
                        "value": 0
                    },
                    {
                        "number": 64,
                        "time": 335.2237199999996,
                        "value": 1
                    },
                    {
                        "number": 64,
                        "time": 335.6199287999996,
                        "value": 0
                    },
                    {
                        "number": 64,
                        "time": 336.3259184999996,
                        "value": 1
                    },
                    {
                        "number": 64,
                        "time": 336.5589824999996,
                        "value": 0
                    },
                    {
                        "number": 64,
                        "time": 337.57960859999963,
                        "value": 1
                    },
                    {
                        "number": 64,
                        "time": 338.75172629999963,
                        "value": 0
                    },
                    {
                        "number": 64,
                        "time": 341.2610486999996,
                        "value": 1
                    },
                    {
                        "number": 64,
                        "time": 342.1933046999996,
                        "value": 0
                    },
                    {
                        "number": 64,
                        "time": 345.4319231999996,
                        "value": 1
                    },
                    {
                        "number": 64,
                        "time": 345.88445579999956,
                        "value": 0
                    },
                    {
                        "number": 64,
                        "time": 347.1264926999996,
                        "value": 1
                    },
                    {
                        "number": 64,
                        "time": 347.78198519999955,
                        "value": 0
                    },
                    {
                        "number": 64,
                        "time": 349.0133399999996,
                        "value": 1
                    },
                    {
                        "number": 64,
                        "time": 349.69893659999957,
                        "value": 0
                    },
                    {
                        "number": 64,
                        "time": 354.3806096999996,
                        "value": 1
                    },
                    {
                        "number": 64,
                        "time": 354.9661829999996,
                        "value": 0
                    },
                    {
                        "number": 64,
                        "time": 356.12179199999963,
                        "value": 1
                    },
                    {
                        "number": 64,
                        "time": 357.23273039999964,
                        "value": 0
                    },
                    {
                        "number": 64,
                        "time": 366.8874065999996,
                        "value": 1
                    },
                    {
                        "number": 64,
                        "time": 367.32051719999964,
                        "value": 0
                    },
                    {
                        "number": 64,
                        "time": 369.20056679999965,
                        "value": 1
                    },
                    {
                        "number": 64,
                        "time": 369.50257889999966,
                        "value": 0
                    },
                    {
                        "number": 64,
                        "time": 370.12602509999965,
                        "value": 1
                    },
                    {
                        "number": 64,
                        "time": 370.40764409999963,
                        "value": 0
                    },
                    {
                        "number": 64,
                        "time": 372.97814579999965,
                        "value": 1
                    },
                    {
                        "number": 64,
                        "time": 373.33453949999966,
                        "value": 0
                    },
                    {
                        "number": 64,
                        "time": 373.91040179999965,
                        "value": 1
                    },
                    {
                        "number": 64,
                        "time": 374.23960469999963,
                        "value": 0
                    },
                    {
                        "number": 64,
                        "time": 375.7380119999996,
                        "value": 1
                    },
                    {
                        "number": 64,
                        "time": 375.9438851999996,
                        "value": 0
                    },
                    {
                        "number": 64,
                        "time": 376.0050644999996,
                        "value": 1
                    },
                    {
                        "number": 64,
                        "time": 376.1876312999996,
                        "value": 0
                    },
                    {
                        "number": 64,
                        "time": 376.2594926999996,
                        "value": 1
                    },
                    {
                        "number": 64,
                        "time": 376.4158397999996,
                        "value": 0
                    },
                    {
                        "number": 64,
                        "time": 376.4653658999996,
                        "value": 1
                    },
                    {
                        "number": 64,
                        "time": 376.6440482999996,
                        "value": 0
                    },
                    {
                        "number": 64,
                        "time": 382.3473185999996,
                        "value": 1
                    },
                    {
                        "number": 64,
                        "time": 383.1688691999996,
                        "value": 0
                    },
                    {
                        "number": 64,
                        "time": 383.2795745999996,
                        "value": 1
                    },
                    {
                        "number": 64,
                        "time": 384.0991829999996,
                        "value": 0
                    },
                    {
                        "number": 64,
                        "time": 384.1584200999996,
                        "value": 1
                    },
                    {
                        "number": 64,
                        "time": 385.0294967999996,
                        "value": 0
                    },
                    {
                        "number": 64,
                        "time": 385.1042714999996,
                        "value": 1
                    },
                    {
                        "number": 64,
                        "time": 385.73063099999956,
                        "value": 0
                    },
                    {
                        "number": 64,
                        "time": 385.99574129999957,
                        "value": 1
                    },
                    {
                        "number": 64,
                        "time": 386.60559209999957,
                        "value": 0
                    },
                    {
                        "number": 64,
                        "time": 386.9619857999996,
                        "value": 1
                    },
                    {
                        "number": 64,
                        "time": 387.54464579999956,
                        "value": 0
                    },
                    {
                        "number": 64,
                        "time": 387.88064639999953,
                        "value": 1
                    },
                    {
                        "number": 64,
                        "time": 388.53808109999954,
                        "value": 0
                    },
                    {
                        "number": 64,
                        "time": 388.88767709999956,
                        "value": 1
                    },
                    {
                        "number": 64,
                        "time": 389.4363485999996,
                        "value": 0
                    },
                    {
                        "number": 64,
                        "time": 389.7383606999996,
                        "value": 1
                    },
                    {
                        "number": 64,
                        "time": 390.3957953999996,
                        "value": 0
                    },
                    {
                        "number": 64,
                        "time": 390.7046051999996,
                        "value": 1
                    },
                    {
                        "number": 64,
                        "time": 391.3076582999996,
                        "value": 0
                    },
                    {
                        "number": 64,
                        "time": 391.59607499999964,
                        "value": 1
                    },
                    {
                        "number": 64,
                        "time": 392.4943424999996,
                        "value": 0
                    },
                    {
                        "number": 64,
                        "time": 392.6312675999996,
                        "value": 1
                    },
                    {
                        "number": 64,
                        "time": 393.4178585999996,
                        "value": 0
                    },
                    {
                        "number": 64,
                        "time": 393.4625291999996,
                        "value": 1
                    },
                    {
                        "number": 64,
                        "time": 394.3607966999996,
                        "value": 0
                    },
                    {
                        "number": 64,
                        "time": 394.4443112999996,
                        "value": 1
                    },
                    {
                        "number": 64,
                        "time": 395.28528389999957,
                        "value": 0
                    },
                    {
                        "number": 64,
                        "time": 395.3435498999996,
                        "value": 1
                    },
                    {
                        "number": 64,
                        "time": 395.53485659999956,
                        "value": 0
                    },
                    {
                        "number": 64,
                        "time": 395.80967789999954,
                        "value": 1
                    },
                    {
                        "number": 64,
                        "time": 396.04856849999953,
                        "value": 0
                    },
                    {
                        "number": 64,
                        "time": 396.29231459999954,
                        "value": 1
                    },
                    {
                        "number": 64,
                        "time": 396.6933788999995,
                        "value": 0
                    },
                    {
                        "number": 64,
                        "time": 396.7477604999995,
                        "value": 1
                    },
                    {
                        "number": 64,
                        "time": 397.15562249999954,
                        "value": 0
                    },
                    {
                        "number": 64,
                        "time": 397.1721311999995,
                        "value": 1
                    },
                    {
                        "number": 64,
                        "time": 397.38383099999953,
                        "value": 0
                    },
                    {
                        "number": 64,
                        "time": 397.4081084999995,
                        "value": 1
                    },
                    {
                        "number": 64,
                        "time": 397.6149527999995,
                        "value": 0
                    },
                    {
                        "number": 64,
                        "time": 397.6460279999995,
                        "value": 1
                    },
                    {
                        "number": 64,
                        "time": 397.8460745999995,
                        "value": 0
                    },
                    {
                        "number": 64,
                        "time": 397.8849185999995,
                        "value": 1
                    },
                    {
                        "number": 64,
                        "time": 398.08302299999946,
                        "value": 0
                    },
                    {
                        "number": 64,
                        "time": 398.12672249999946,
                        "value": 1
                    },
                    {
                        "number": 64,
                        "time": 398.31511589999945,
                        "value": 0
                    },
                    {
                        "number": 64,
                        "time": 398.3675552999995,
                        "value": 1
                    },
                    {
                        "number": 64,
                        "time": 398.55109319999946,
                        "value": 0
                    },
                    {
                        "number": 64,
                        "time": 398.57537069999944,
                        "value": 1
                    },
                    {
                        "number": 64,
                        "time": 398.78027279999947,
                        "value": 0
                    },
                    {
                        "number": 64,
                        "time": 398.83076999999946,
                        "value": 1
                    },
                    {
                        "number": 64,
                        "time": 399.01527899999945,
                        "value": 0
                    },
                    {
                        "number": 64,
                        "time": 399.96501479999944,
                        "value": 1
                    },
                    {
                        "number": 64,
                        "time": 400.88464649999946,
                        "value": 0
                    },
                    {
                        "number": 64,
                        "time": 401.11673939999946,
                        "value": 1
                    },
                    {
                        "number": 64,
                        "time": 401.34591899999947,
                        "value": 0
                    },
                    {
                        "number": 64,
                        "time": 401.3983583999995,
                        "value": 1
                    },
                    {
                        "number": 64,
                        "time": 401.5789829999995,
                        "value": 0
                    },
                    {
                        "number": 64,
                        "time": 401.6382200999995,
                        "value": 1
                    },
                    {
                        "number": 64,
                        "time": 401.8178735999995,
                        "value": 0
                    },
                    {
                        "number": 64,
                        "time": 402.0839549999995,
                        "value": 1
                    },
                    {
                        "number": 64,
                        "time": 402.27817499999946,
                        "value": 0
                    },
                    {
                        "number": 64,
                        "time": 402.3374120999995,
                        "value": 1
                    },
                    {
                        "number": 64,
                        "time": 402.51026789999946,
                        "value": 0
                    },
                    {
                        "number": 64,
                        "time": 402.55688069999945,
                        "value": 1
                    },
                    {
                        "number": 64,
                        "time": 402.7433318999995,
                        "value": 0
                    },
                    {
                        "number": 64,
                        "time": 403.02883529999946,
                        "value": 1
                    },
                    {
                        "number": 64,
                        "time": 403.21043099999946,
                        "value": 0
                    },
                    {
                        "number": 64,
                        "time": 403.26189929999947,
                        "value": 1
                    },
                    {
                        "number": 64,
                        "time": 403.44252389999946,
                        "value": 0
                    },
                    {
                        "number": 64,
                        "time": 403.50078989999946,
                        "value": 1
                    },
                    {
                        "number": 64,
                        "time": 403.6833566999995,
                        "value": 0
                    },
                    {
                        "number": 64,
                        "time": 403.73968049999945,
                        "value": 1
                    },
                    {
                        "number": 64,
                        "time": 403.91447849999946,
                        "value": 0
                    },
                    {
                        "number": 64,
                        "time": 403.97274449999946,
                        "value": 1
                    },
                    {
                        "number": 64,
                        "time": 404.1514268999995,
                        "value": 0
                    },
                    {
                        "number": 64,
                        "time": 404.1883286999995,
                        "value": 1
                    },
                    {
                        "number": 64,
                        "time": 404.37575099999947,
                        "value": 0
                    },
                    {
                        "number": 64,
                        "time": 404.44372799999945,
                        "value": 1
                    },
                    {
                        "number": 64,
                        "time": 404.6049305999995,
                        "value": 0
                    },
                    {
                        "number": 64,
                        "time": 406.49857559999947,
                        "value": 1
                    },
                    {
                        "number": 64,
                        "time": 406.9850966999995,
                        "value": 0
                    },
                    {
                        "number": 64,
                        "time": 407.4580223999995,
                        "value": 1
                    },
                    {
                        "number": 64,
                        "time": 407.79402299999947,
                        "value": 0
                    },
                    {
                        "number": 64,
                        "time": 411.20743949999945,
                        "value": 1
                    },
                    {
                        "number": 64,
                        "time": 411.36669989999945,
                        "value": 0
                    },
                    {
                        "number": 64,
                        "time": 411.4269080999994,
                        "value": 1
                    },
                    {
                        "number": 64,
                        "time": 411.6114170999994,
                        "value": 0
                    },
                    {
                        "number": 64,
                        "time": 411.65997209999944,
                        "value": 1
                    },
                    {
                        "number": 64,
                        "time": 411.84156779999944,
                        "value": 0
                    },
                    {
                        "number": 64,
                        "time": 411.87944069999946,
                        "value": 1
                    },
                    {
                        "number": 64,
                        "time": 412.05715199999946,
                        "value": 0
                    },
                    {
                        "number": 64,
                        "time": 414.00420749999944,
                        "value": 1
                    },
                    {
                        "number": 64,
                        "time": 414.19648529999944,
                        "value": 0
                    },
                    {
                        "number": 64,
                        "time": 414.92286809999945,
                        "value": 1
                    },
                    {
                        "number": 64,
                        "time": 415.78617599999944,
                        "value": 0
                    },
                    {
                        "number": 64,
                        "time": 415.84152869999946,
                        "value": 1
                    },
                    {
                        "number": 64,
                        "time": 417.65068799999943,
                        "value": 0
                    },
                    {
                        "number": 64,
                        "time": 424.20367079999943,
                        "value": 1
                    },
                    {
                        "number": 64,
                        "time": 424.44061919999945,
                        "value": 0
                    },
                    {
                        "number": 64,
                        "time": 425.16408869999947,
                        "value": 1
                    },
                    {
                        "number": 64,
                        "time": 426.0575006999995,
                        "value": 0
                    },
                    {
                        "number": 64,
                        "time": 426.14392859999947,
                        "value": 1
                    },
                    {
                        "number": 64,
                        "time": 426.3090155999995,
                        "value": 0
                    },
                    {
                        "number": 64,
                        "time": 427.2568091999995,
                        "value": 1
                    },
                    {
                        "number": 64,
                        "time": 428.1638165999995,
                        "value": 0
                    },
                    {
                        "number": 64,
                        "time": 429.1397720999995,
                        "value": 1
                    },
                    {
                        "number": 64,
                        "time": 430.2477971999995,
                        "value": 0
                    },
                    {
                        "number": 64,
                        "time": 430.99942859999953,
                        "value": 1
                    },
                    {
                        "number": 64,
                        "time": 431.8841006999995,
                        "value": 0
                    },
                    {
                        "number": 64,
                        "time": 432.8377208999995,
                        "value": 1
                    },
                    {
                        "number": 64,
                        "time": 433.7699768999995,
                        "value": 0
                    },
                    {
                        "number": 64,
                        "time": 434.3701166999995,
                        "value": 1
                    },
                    {
                        "number": 64,
                        "time": 435.2334245999995,
                        "value": 0
                    },
                    {
                        "number": 64,
                        "time": 435.3169391999995,
                        "value": 1
                    },
                    {
                        "number": 64,
                        "time": 436.2598772999995,
                        "value": 0
                    },
                    {
                        "number": 64,
                        "time": 436.2958079999995,
                        "value": 1
                    },
                    {
                        "number": 64,
                        "time": 438.1603199999995,
                        "value": 0
                    },
                    {
                        "number": 64,
                        "time": 438.2399501999995,
                        "value": 1
                    },
                    {
                        "number": 64,
                        "time": 439.0984025999995,
                        "value": 0
                    },
                    {
                        "number": 64,
                        "time": 439.1654084999995,
                        "value": 1
                    },
                    {
                        "number": 64,
                        "time": 439.3372931999995,
                        "value": 0
                    },
                    {
                        "number": 64,
                        "time": 440.1025199999995,
                        "value": 1
                    },
                    {
                        "number": 64,
                        "time": 440.4637691999995,
                        "value": 0
                    },
                    {
                        "number": 64,
                        "time": 441.8980838999995,
                        "value": 0
                    },
                    {
                        "number": 64,
                        "time": 441.9340145999995,
                        "value": 1
                    },
                    {
                        "number": 64,
                        "time": 442.1282345999995,
                        "value": 0
                    },
                    {
                        "number": 64,
                        "time": 442.43898659999945,
                        "value": 1
                    },
                    {
                        "number": 64,
                        "time": 442.6001891999995,
                        "value": 0
                    },
                    {
                        "number": 64,
                        "time": 443.8160063999995,
                        "value": 1
                    },
                    {
                        "number": 64,
                        "time": 444.2267816999995,
                        "value": 0
                    },
                    {
                        "number": 64,
                        "time": 444.2957297999995,
                        "value": 1
                    },
                    {
                        "number": 64,
                        "time": 444.6977651999995,
                        "value": 0
                    },
                    {
                        "number": 64,
                        "time": 444.76185779999946,
                        "value": 1
                    },
                    {
                        "number": 64,
                        "time": 445.1697197999995,
                        "value": 0
                    },
                    {
                        "number": 64,
                        "time": 445.25517659999946,
                        "value": 1
                    },
                    {
                        "number": 64,
                        "time": 445.62905009999946,
                        "value": 0
                    },
                    {
                        "number": 64,
                        "time": 445.66886519999946,
                        "value": 1
                    },
                    {
                        "number": 64,
                        "time": 446.10003359999945,
                        "value": 0
                    },
                    {
                        "number": 64,
                        "time": 446.16218399999946,
                        "value": 1
                    },
                    {
                        "number": 64,
                        "time": 446.56033499999944,
                        "value": 0
                    },
                    {
                        "number": 64,
                        "time": 446.6283119999994,
                        "value": 1
                    },
                    {
                        "number": 64,
                        "time": 447.02840519999944,
                        "value": 0
                    },
                    {
                        "number": 64,
                        "time": 447.09443999999945,
                        "value": 1
                    },
                    {
                        "number": 64,
                        "time": 447.49453319999947,
                        "value": 0
                    },
                    {
                        "number": 64,
                        "time": 447.55571249999946,
                        "value": 1
                    },
                    {
                        "number": 64,
                        "time": 447.72565499999945,
                        "value": 0
                    },
                    {
                        "number": 64,
                        "time": 447.79945859999947,
                        "value": 1
                    },
                    {
                        "number": 64,
                        "time": 447.95774789999945,
                        "value": 0
                    },
                    {
                        "number": 64,
                        "time": 448.01601389999945,
                        "value": 1
                    },
                    {
                        "number": 64,
                        "time": 448.42581809999945,
                        "value": 0
                    },
                    {
                        "number": 64,
                        "time": 449.38526489999947,
                        "value": 1
                    },
                    {
                        "number": 64,
                        "time": 449.8212887999995,
                        "value": 0
                    },
                    {
                        "number": 64,
                        "time": 449.8620749999995,
                        "value": 1
                    },
                    {
                        "number": 64,
                        "time": 450.2903300999995,
                        "value": 0
                    },
                    {
                        "number": 64,
                        "time": 450.3311162999995,
                        "value": 1
                    },
                    {
                        "number": 64,
                        "time": 450.7564580999995,
                        "value": 0
                    },
                    {
                        "number": 64,
                        "time": 450.7875332999995,
                        "value": 1
                    },
                    {
                        "number": 64,
                        "time": 451.2254993999995,
                        "value": 0
                    },
                    {
                        "number": 64,
                        "time": 451.74698009999946,
                        "value": 1
                    },
                    {
                        "number": 64,
                        "time": 452.15289989999945,
                        "value": 0
                    },
                    {
                        "number": 64,
                        "time": 454.96811879999944,
                        "value": 1
                    },
                    {
                        "number": 64,
                        "time": 455.1914717999994,
                        "value": 0
                    },
                    {
                        "number": 64,
                        "time": 455.4517265999994,
                        "value": 1
                    },
                    {
                        "number": 64,
                        "time": 455.8906637999994,
                        "value": 0
                    },
                    {
                        "number": 64,
                        "time": 455.9382476999994,
                        "value": 1
                    },
                    {
                        "number": 64,
                        "time": 456.3509651999994,
                        "value": 0
                    },
                    {
                        "number": 64,
                        "time": 456.3878669999994,
                        "value": 1
                    },
                    {
                        "number": 64,
                        "time": 456.8122376999994,
                        "value": 0
                    },
                    {
                        "number": 64,
                        "time": 456.8831279999994,
                        "value": 1
                    },
                    {
                        "number": 64,
                        "time": 457.29196109999936,
                        "value": 0
                    },
                    {
                        "number": 64,
                        "time": 457.36090919999936,
                        "value": 1
                    },
                    {
                        "number": 64,
                        "time": 457.7503202999994,
                        "value": 0
                    },
                    {
                        "number": 64,
                        "time": 470.0007467999994,
                        "value": 1
                    },
                    {
                        "number": 64,
                        "time": 470.33383409999936,
                        "value": 0
                    },
                    {
                        "number": 64,
                        "time": 470.41249319999935,
                        "value": 1
                    },
                    {
                        "number": 64,
                        "time": 470.80093319999935,
                        "value": 0
                    },
                    {
                        "number": 64,
                        "time": 471.77009099999935,
                        "value": 1
                    },
                    {
                        "number": 64,
                        "time": 472.20223049999936,
                        "value": 0
                    },
                    {
                        "number": 64,
                        "time": 472.27020749999934,
                        "value": 1
                    },
                    {
                        "number": 64,
                        "time": 472.66932959999934,
                        "value": 0
                    },
                    {
                        "number": 64,
                        "time": 473.8142564999993,
                        "value": 1
                    },
                    {
                        "number": 64,
                        "time": 474.0686846999993,
                        "value": 0
                    },
                    {
                        "number": 64,
                        "time": 474.13569059999935,
                        "value": 1
                    },
                    {
                        "number": 64,
                        "time": 474.52995719999933,
                        "value": 0
                    },
                    {
                        "number": 64,
                        "time": 475.71761249999935,
                        "value": 1
                    },
                    {
                        "number": 64,
                        "time": 475.93319669999937,
                        "value": 0
                    },
                    {
                        "number": 64,
                        "time": 475.99437599999936,
                        "value": 1
                    },
                    {
                        "number": 64,
                        "time": 476.3944691999994,
                        "value": 0
                    },
                    {
                        "number": 64,
                        "time": 482.44247999999936,
                        "value": 0
                    },
                    {
                        "number": 64,
                        "time": 483.2242154999994,
                        "value": 1
                    },
                    {
                        "number": 64,
                        "time": 484.77603329999937,
                        "value": 0
                    },
                    {
                        "number": 64,
                        "time": 485.30139839999936,
                        "value": 1
                    },
                    {
                        "number": 64,
                        "time": 485.94912209999933,
                        "value": 0
                    },
                    {
                        "number": 64,
                        "time": 487.2688469999993,
                        "value": 1
                    },
                    {
                        "number": 64,
                        "time": 487.8165473999993,
                        "value": 0
                    },
                    {
                        "number": 64,
                        "time": 489.0964571999993,
                        "value": 1
                    },
                    {
                        "number": 64,
                        "time": 489.6781460999993,
                        "value": 0
                    },
                    {
                        "number": 64,
                        "time": 491.5873286999993,
                        "value": 1
                    },
                    {
                        "number": 64,
                        "time": 492.2476766999993,
                        "value": 0
                    },
                    {
                        "number": 64,
                        "time": 494.2326050999993,
                        "value": 1
                    },
                    {
                        "number": 64,
                        "time": 494.3433104999993,
                        "value": 0
                    },
                    {
                        "number": 64,
                        "time": 494.7132995999993,
                        "value": 1
                    },
                    {
                        "number": 64,
                        "time": 494.8094384999993,
                        "value": 0
                    },
                    {
                        "number": 64,
                        "time": 495.1512656999993,
                        "value": 1
                    },
                    {
                        "number": 64,
                        "time": 495.27556649999934,
                        "value": 0
                    },
                    {
                        "number": 64,
                        "time": 495.63098909999934,
                        "value": 1
                    },
                    {
                        "number": 64,
                        "time": 495.9601919999993,
                        "value": 0
                    },
                    {
                        "number": 64,
                        "time": 497.9548313999993,
                        "value": 1
                    },
                    {
                        "number": 64,
                        "time": 498.29762969999933,
                        "value": 0
                    },
                    {
                        "number": 64,
                        "time": 498.39376859999936,
                        "value": 1
                    },
                    {
                        "number": 64,
                        "time": 498.7656998999994,
                        "value": 0
                    },
                    {
                        "number": 64,
                        "time": 502.03345139999936,
                        "value": 1
                    },
                    {
                        "number": 64,
                        "time": 503.41823999999934,
                        "value": 0
                    },
                    {
                        "number": 64,
                        "time": 503.91155879999934,
                        "value": 1
                    },
                    {
                        "number": 64,
                        "time": 505.28275199999933,
                        "value": 0
                    },
                    {
                        "number": 64,
                        "time": 507.3939233999993,
                        "value": 1
                    },
                    {
                        "number": 64,
                        "time": 508.3261793999993,
                        "value": 0
                    },
                    {
                        "number": 64,
                        "time": 509.3118458999993,
                        "value": 1
                    },
                    {
                        "number": 64,
                        "time": 510.0275465999993,
                        "value": 0
                    },
                    {
                        "number": 64,
                        "time": 511.0986698999993,
                        "value": 1
                    },
                    {
                        "number": 64,
                        "time": 511.9755731999993,
                        "value": 0
                    },
                    {
                        "number": 64,
                        "time": 513.0224189999993,
                        "value": 1
                    },
                    {
                        "number": 64,
                        "time": 513.9333107999993,
                        "value": 0
                    },
                    {
                        "number": 64,
                        "time": 514.6538669999993,
                        "value": 1
                    },
                    {
                        "number": 64,
                        "time": 515.5443656999993,
                        "value": 0
                    },
                    {
                        "number": 64,
                        "time": 518.4120239999993,
                        "value": 1
                    },
                    {
                        "number": 64,
                        "time": 518.6120705999992,
                        "value": 0
                    },
                    {
                        "number": 64,
                        "time": 519.3005804999992,
                        "value": 1
                    },
                    {
                        "number": 64,
                        "time": 519.5472398999992,
                        "value": 0
                    },
                    {
                        "number": 64,
                        "time": 520.2542006999993,
                        "value": 1
                    },
                    {
                        "number": 64,
                        "time": 520.6727447999992,
                        "value": 0
                    },
                    {
                        "number": 64,
                        "time": 520.7679125999992,
                        "value": 1
                    },
                    {
                        "number": 64,
                        "time": 521.1446993999992,
                        "value": 0
                    },
                    {
                        "number": 64,
                        "time": 521.2272428999993,
                        "value": 1
                    },
                    {
                        "number": 64,
                        "time": 521.6079140999993,
                        "value": 0
                    },
                    {
                        "number": 64,
                        "time": 521.6933708999993,
                        "value": 1
                    },
                    {
                        "number": 64,
                        "time": 522.0682154999993,
                        "value": 0
                    },
                    {
                        "number": 64,
                        "time": 523.9832246999993,
                        "value": 1
                    },
                    {
                        "number": 64,
                        "time": 524.4066242999993,
                        "value": 0
                    },
                    {
                        "number": 64,
                        "time": 524.4833411999992,
                        "value": 1
                    },
                    {
                        "number": 64,
                        "time": 524.8737233999992,
                        "value": 0
                    },
                    {
                        "number": 64,
                        "time": 524.9601512999992,
                        "value": 1
                    },
                    {
                        "number": 64,
                        "time": 525.3359669999992,
                        "value": 0
                    },
                    {
                        "number": 64,
                        "time": 525.4039439999992,
                        "value": 1
                    },
                    {
                        "number": 64,
                        "time": 525.8001527999992,
                        "value": 0
                    },
                    {
                        "number": 64,
                        "time": 526.5061424999992,
                        "value": 1
                    },
                    {
                        "number": 64,
                        "time": 526.7392064999992,
                        "value": 0
                    },
                    {
                        "number": 64,
                        "time": 527.7598325999992,
                        "value": 1
                    },
                    {
                        "number": 64,
                        "time": 528.9319502999991,
                        "value": 0
                    },
                    {
                        "number": 64,
                        "time": 531.4412726999991,
                        "value": 1
                    },
                    {
                        "number": 64,
                        "time": 532.3735286999992,
                        "value": 0
                    },
                    {
                        "number": 64,
                        "time": 535.6121471999992,
                        "value": 1
                    },
                    {
                        "number": 64,
                        "time": 536.0646797999992,
                        "value": 0
                    },
                    {
                        "number": 64,
                        "time": 537.3067166999992,
                        "value": 1
                    },
                    {
                        "number": 64,
                        "time": 537.9622091999993,
                        "value": 0
                    },
                    {
                        "number": 64,
                        "time": 539.1935639999992,
                        "value": 1
                    },
                    {
                        "number": 64,
                        "time": 539.8791605999993,
                        "value": 0
                    },
                    {
                        "number": 64,
                        "time": 544.5608336999993,
                        "value": 1
                    },
                    {
                        "number": 64,
                        "time": 545.1464069999993,
                        "value": 0
                    },
                    {
                        "number": 64,
                        "time": 546.3020159999993,
                        "value": 1
                    },
                    {
                        "number": 64,
                        "time": 547.4129543999993,
                        "value": 0
                    },
                    {
                        "number": 64,
                        "time": 557.0676305999993,
                        "value": 1
                    },
                    {
                        "number": 64,
                        "time": 557.5007411999993,
                        "value": 0
                    },
                    {
                        "number": 64,
                        "time": 559.3807907999993,
                        "value": 1
                    },
                    {
                        "number": 64,
                        "time": 559.6828028999993,
                        "value": 0
                    },
                    {
                        "number": 64,
                        "time": 560.3062490999993,
                        "value": 1
                    },
                    {
                        "number": 64,
                        "time": 560.5878680999992,
                        "value": 0
                    },
                    {
                        "number": 64,
                        "time": 563.1583697999993,
                        "value": 1
                    },
                    {
                        "number": 64,
                        "time": 563.5147634999993,
                        "value": 0
                    },
                    {
                        "number": 64,
                        "time": 564.0906257999993,
                        "value": 1
                    },
                    {
                        "number": 64,
                        "time": 564.4198286999994,
                        "value": 0
                    },
                    {
                        "number": 64,
                        "time": 565.9182359999994,
                        "value": 1
                    },
                    {
                        "number": 64,
                        "time": 566.1241091999995,
                        "value": 0
                    },
                    {
                        "number": 64,
                        "time": 566.1852884999995,
                        "value": 1
                    },
                    {
                        "number": 64,
                        "time": 566.3678552999995,
                        "value": 0
                    },
                    {
                        "number": 64,
                        "time": 566.4397166999995,
                        "value": 1
                    },
                    {
                        "number": 64,
                        "time": 566.5960637999995,
                        "value": 0
                    },
                    {
                        "number": 64,
                        "time": 566.6455898999994,
                        "value": 1
                    },
                    {
                        "number": 64,
                        "time": 566.8242722999994,
                        "value": 0
                    },
                    {
                        "number": 64,
                        "time": 572.5275425999994,
                        "value": 1
                    },
                    {
                        "number": 64,
                        "time": 573.3490931999994,
                        "value": 0
                    },
                    {
                        "number": 64,
                        "time": 573.4597985999994,
                        "value": 1
                    },
                    {
                        "number": 64,
                        "time": 574.2794069999994,
                        "value": 0
                    },
                    {
                        "number": 64,
                        "time": 574.3386440999994,
                        "value": 1
                    },
                    {
                        "number": 64,
                        "time": 575.2097207999994,
                        "value": 0
                    },
                    {
                        "number": 64,
                        "time": 575.2844954999995,
                        "value": 1
                    },
                    {
                        "number": 64,
                        "time": 575.9108549999995,
                        "value": 0
                    },
                    {
                        "number": 64,
                        "time": 576.1759652999995,
                        "value": 1
                    },
                    {
                        "number": 64,
                        "time": 576.7858160999995,
                        "value": 0
                    },
                    {
                        "number": 64,
                        "time": 577.1422097999995,
                        "value": 1
                    },
                    {
                        "number": 64,
                        "time": 577.7248697999995,
                        "value": 0
                    },
                    {
                        "number": 64,
                        "time": 578.0608703999995,
                        "value": 1
                    },
                    {
                        "number": 64,
                        "time": 578.7183050999995,
                        "value": 0
                    },
                    {
                        "number": 64,
                        "time": 579.0679010999995,
                        "value": 1
                    },
                    {
                        "number": 64,
                        "time": 579.6165725999995,
                        "value": 0
                    },
                    {
                        "number": 64,
                        "time": 579.9185846999994,
                        "value": 1
                    },
                    {
                        "number": 64,
                        "time": 580.5760193999994,
                        "value": 0
                    },
                    {
                        "number": 64,
                        "time": 580.8848291999993,
                        "value": 1
                    },
                    {
                        "number": 64,
                        "time": 581.4878822999993,
                        "value": 0
                    },
                    {
                        "number": 64,
                        "time": 581.7762989999993,
                        "value": 1
                    },
                    {
                        "number": 64,
                        "time": 582.6745664999993,
                        "value": 0
                    },
                    {
                        "number": 64,
                        "time": 582.8114915999993,
                        "value": 1
                    },
                    {
                        "number": 64,
                        "time": 583.5980825999993,
                        "value": 0
                    },
                    {
                        "number": 64,
                        "time": 583.6427531999993,
                        "value": 1
                    },
                    {
                        "number": 64,
                        "time": 584.5410206999993,
                        "value": 0
                    },
                    {
                        "number": 64,
                        "time": 584.6245352999993,
                        "value": 1
                    },
                    {
                        "number": 64,
                        "time": 585.4655078999992,
                        "value": 0
                    },
                    {
                        "number": 64,
                        "time": 585.5237738999992,
                        "value": 1
                    },
                    {
                        "number": 64,
                        "time": 585.7150805999993,
                        "value": 0
                    },
                    {
                        "number": 64,
                        "time": 585.9899018999993,
                        "value": 1
                    },
                    {
                        "number": 64,
                        "time": 586.2287924999993,
                        "value": 0
                    },
                    {
                        "number": 64,
                        "time": 586.4725385999992,
                        "value": 1
                    },
                    {
                        "number": 64,
                        "time": 586.8736028999992,
                        "value": 0
                    },
                    {
                        "number": 64,
                        "time": 586.9279844999993,
                        "value": 1
                    },
                    {
                        "number": 64,
                        "time": 587.3358464999993,
                        "value": 0
                    },
                    {
                        "number": 64,
                        "time": 587.3523551999994,
                        "value": 1
                    },
                    {
                        "number": 64,
                        "time": 587.5640549999994,
                        "value": 0
                    },
                    {
                        "number": 64,
                        "time": 587.5883324999994,
                        "value": 1
                    },
                    {
                        "number": 64,
                        "time": 587.7951767999994,
                        "value": 0
                    },
                    {
                        "number": 64,
                        "time": 587.8262519999994,
                        "value": 1
                    },
                    {
                        "number": 64,
                        "time": 588.0262985999993,
                        "value": 0
                    },
                    {
                        "number": 64,
                        "time": 588.0651425999994,
                        "value": 1
                    },
                    {
                        "number": 64,
                        "time": 588.2632469999994,
                        "value": 0
                    },
                    {
                        "number": 64,
                        "time": 588.3069464999994,
                        "value": 1
                    },
                    {
                        "number": 64,
                        "time": 588.4953398999994,
                        "value": 0
                    },
                    {
                        "number": 64,
                        "time": 588.5477792999994,
                        "value": 1
                    },
                    {
                        "number": 64,
                        "time": 588.7313171999995,
                        "value": 0
                    },
                    {
                        "number": 64,
                        "time": 588.7555946999995,
                        "value": 1
                    },
                    {
                        "number": 64,
                        "time": 588.9604967999995,
                        "value": 0
                    },
                    {
                        "number": 64,
                        "time": 589.0109939999995,
                        "value": 1
                    },
                    {
                        "number": 64,
                        "time": 589.1955029999996,
                        "value": 0
                    },
                    {
                        "number": 64,
                        "time": 590.1452387999996,
                        "value": 1
                    },
                    {
                        "number": 64,
                        "time": 591.0648704999995,
                        "value": 0
                    },
                    {
                        "number": 64,
                        "time": 591.2969633999995,
                        "value": 1
                    },
                    {
                        "number": 64,
                        "time": 591.5261429999995,
                        "value": 0
                    },
                    {
                        "number": 64,
                        "time": 591.5785823999995,
                        "value": 1
                    },
                    {
                        "number": 64,
                        "time": 591.7592069999995,
                        "value": 0
                    },
                    {
                        "number": 64,
                        "time": 591.8184440999995,
                        "value": 1
                    },
                    {
                        "number": 64,
                        "time": 591.9980975999995,
                        "value": 0
                    },
                    {
                        "number": 64,
                        "time": 592.2641789999994,
                        "value": 1
                    },
                    {
                        "number": 64,
                        "time": 592.4583989999994,
                        "value": 0
                    },
                    {
                        "number": 64,
                        "time": 592.5176360999994,
                        "value": 1
                    },
                    {
                        "number": 64,
                        "time": 592.6904918999994,
                        "value": 0
                    },
                    {
                        "number": 64,
                        "time": 592.7371046999995,
                        "value": 1
                    },
                    {
                        "number": 64,
                        "time": 592.9235558999994,
                        "value": 0
                    },
                    {
                        "number": 64,
                        "time": 593.2090592999995,
                        "value": 1
                    },
                    {
                        "number": 64,
                        "time": 593.3906549999995,
                        "value": 0
                    },
                    {
                        "number": 64,
                        "time": 593.4421232999995,
                        "value": 1
                    },
                    {
                        "number": 64,
                        "time": 593.6227478999995,
                        "value": 0
                    },
                    {
                        "number": 64,
                        "time": 593.6810138999995,
                        "value": 1
                    },
                    {
                        "number": 64,
                        "time": 593.8635806999995,
                        "value": 0
                    },
                    {
                        "number": 64,
                        "time": 593.9199044999995,
                        "value": 1
                    },
                    {
                        "number": 64,
                        "time": 594.0947024999995,
                        "value": 0
                    },
                    {
                        "number": 64,
                        "time": 594.1529684999995,
                        "value": 1
                    },
                    {
                        "number": 64,
                        "time": 594.3316508999994,
                        "value": 0
                    },
                    {
                        "number": 64,
                        "time": 594.3685526999994,
                        "value": 1
                    },
                    {
                        "number": 64,
                        "time": 594.5559749999994,
                        "value": 0
                    },
                    {
                        "number": 64,
                        "time": 594.6239519999995,
                        "value": 1
                    },
                    {
                        "number": 64,
                        "time": 594.7851545999995,
                        "value": 0
                    },
                    {
                        "number": 64,
                        "time": 596.6787995999995,
                        "value": 1
                    },
                    {
                        "number": 64,
                        "time": 597.1653206999995,
                        "value": 0
                    },
                    {
                        "number": 64,
                        "time": 597.6382463999995,
                        "value": 1
                    },
                    {
                        "number": 64,
                        "time": 597.9742469999995,
                        "value": 0
                    },
                    {
                        "number": 64,
                        "time": 601.3876634999996,
                        "value": 1
                    },
                    {
                        "number": 64,
                        "time": 601.5469238999996,
                        "value": 0
                    },
                    {
                        "number": 64,
                        "time": 601.6071320999996,
                        "value": 1
                    },
                    {
                        "number": 64,
                        "time": 601.7916410999997,
                        "value": 0
                    },
                    {
                        "number": 64,
                        "time": 601.8401960999996,
                        "value": 1
                    },
                    {
                        "number": 64,
                        "time": 602.0217917999996,
                        "value": 0
                    },
                    {
                        "number": 64,
                        "time": 602.0596646999996,
                        "value": 1
                    },
                    {
                        "number": 64,
                        "time": 602.2373759999997,
                        "value": 0
                    },
                    {
                        "number": 64,
                        "time": 604.1844314999997,
                        "value": 1
                    },
                    {
                        "number": 64,
                        "time": 604.3767092999998,
                        "value": 0
                    },
                    {
                        "number": 64,
                        "time": 605.1030920999998,
                        "value": 1
                    },
                    {
                        "number": 64,
                        "time": 605.9663999999998,
                        "value": 0
                    },
                    {
                        "number": 64,
                        "time": 606.0217526999998,
                        "value": 1
                    },
                    {
                        "number": 64,
                        "time": 607.8309119999998,
                        "value": 0
                    },
                    {
                        "number": 64,
                        "time": 614.3838947999998,
                        "value": 1
                    },
                    {
                        "number": 64,
                        "time": 614.6208431999997,
                        "value": 0
                    },
                    {
                        "number": 64,
                        "time": 615.3443126999997,
                        "value": 1
                    },
                    {
                        "number": 64,
                        "time": 616.2377246999997,
                        "value": 0
                    },
                    {
                        "number": 64,
                        "time": 616.3241525999997,
                        "value": 1
                    },
                    {
                        "number": 64,
                        "time": 616.4892395999997,
                        "value": 0
                    }
                ]
            },
            "id": 3,
            "name": "Pedal"
        },
        {
            "startTime": 0,
            "duration": 0,
            "length": 0,
            "notes": [],
            "controlChanges": {},
            "id": 4,
            "name": "Mozart: Klaviersonate B-Dur KV 333 1. Satz"
        },
        {
            "startTime": 0,
            "duration": 0,
            "length": 0,
            "notes": [],
            "controlChanges": {},
            "id": 5,
            "name": "Copyright  1997 by Bernd Krger"
        },
        {
            "startTime": 0,
            "duration": 0,
            "length": 0,
            "notes": [],
            "controlChanges": {},
            "id": 6,
            "name": "http://www.piano-midi.de"
        },
        {
            "startTime": 0,
            "duration": 0,
            "length": 0,
            "notes": [],
            "controlChanges": {},
            "id": 7,
            "name": "Editon: 2013-09-04"
        }
    ]
}