{
    "header": {
        "PPQ": 480,
        "timeSignature": [
            4,
            4
        ],
        "bpm": 136.5398969578911,
        "name": "Sonate KV 545 1. Satz"
    },
    "startTime": 0,
    "duration": 256.1888559999972,
    "tracks": [
        {
            "startTime": 0,
            "duration": 0,
            "length": 0,
            "notes": [],
            "controlChanges": {},
            "id": 0,
            "name": "Sonate KV 545 1. Satz"
        },
        {
            "startTime": 0,
            "duration": 256.18885599999527,
            "length": 1360,
            "notes": [
                {
                    "name": "C5",
                    "midi": 72,
                    "time": 0,
                    "velocity": 0.47244094488188976,
                    "duration": 0.878864
                },
                {
                    "name": "E5",
                    "midi": 76,
                    "time": 0.878864,
                    "velocity": 0.47244094488188976,
                    "duration": 0.43943199999999993
                },
                {
                    "name": "G5",
                    "midi": 79,
                    "time": 1.318296,
                    "velocity": 0.47244094488188976,
                    "duration": 0.43943200000000004
                },
                {
                    "name": "B4",
                    "midi": 71,
                    "time": 1.757728,
                    "velocity": 0.47244094488188976,
                    "duration": 0.6591479999999998
                },
                {
                    "name": "C5",
                    "midi": 72,
                    "time": 2.416876,
                    "velocity": 0.4330708661417323,
                    "duration": 0.10985800000000001
                },
                {
                    "name": "D5",
                    "midi": 74,
                    "time": 2.526734,
                    "velocity": 0.4015748031496063,
                    "duration": 0.10985800000000001
                },
                {
                    "name": "C5",
                    "midi": 72,
                    "time": 2.636592,
                    "velocity": 0.47244094488188976,
                    "duration": 0.43943200000000004
                },
                {
                    "name": "A5",
                    "midi": 81,
                    "time": 3.515456,
                    "velocity": 0.5039370078740157,
                    "duration": 0.8788639999999996
                },
                {
                    "name": "G5",
                    "midi": 79,
                    "time": 4.39432,
                    "velocity": 0.4881889763779528,
                    "duration": 0.43943200000000004
                },
                {
                    "name": "C6",
                    "midi": 84,
                    "time": 4.833752,
                    "velocity": 0.5039370078740157,
                    "duration": 0.43943200000000004
                },
                {
                    "name": "G5",
                    "midi": 79,
                    "time": 5.273184,
                    "velocity": 0.5039370078740157,
                    "duration": 0.43943200000000004
                },
                {
                    "name": "F5",
                    "midi": 77,
                    "time": 5.712616,
                    "velocity": 0.4330708661417323,
                    "duration": 0.07323866666666667
                },
                {
                    "name": "G5",
                    "midi": 79,
                    "time": 5.785854666666666,
                    "velocity": 0.4330708661417323,
                    "duration": 0.07323866666666667
                },
                {
                    "name": "F5",
                    "midi": 77,
                    "time": 5.859093333333333,
                    "velocity": 0.4330708661417323,
                    "duration": 0.07323866666666667
                },
                {
                    "name": "E5",
                    "midi": 76,
                    "time": 5.932332,
                    "velocity": 0.4645669291338583,
                    "duration": 0.10985800000000001
                },
                {
                    "name": "F5",
                    "midi": 77,
                    "time": 6.04219,
                    "velocity": 0.4330708661417323,
                    "duration": 0.10985800000000001
                },
                {
                    "name": "E5",
                    "midi": 76,
                    "time": 6.152048,
                    "velocity": 0.47244094488188976,
                    "duration": 0.43943200000000004
                },
                {
                    "name": "A4",
                    "midi": 69,
                    "time": 7.030912,
                    "velocity": 0.47244094488188976,
                    "duration": 0.21971600000000002
                },
                {
                    "name": "B4",
                    "midi": 71,
                    "time": 7.250628,
                    "velocity": 0.41732283464566927,
                    "duration": 0.12084380000000028
                },
                {
                    "name": "C5",
                    "midi": 72,
                    "time": 7.360486,
                    "velocity": 0.4251968503937008,
                    "duration": 0.12084380000000028
                },
                {
                    "name": "D5",
                    "midi": 74,
                    "time": 7.470344,
                    "velocity": 0.4330708661417323,
                    "duration": 0.12084380000000028
                },
                {
                    "name": "E5",
                    "midi": 76,
                    "time": 7.580202,
                    "velocity": 0.44881889763779526,
                    "duration": 0.12084380000000028
                },
                {
                    "name": "F5",
                    "midi": 77,
                    "time": 7.69006,
                    "velocity": 0.4566929133858268,
                    "duration": 0.12084380000000028
                },
                {
                    "name": "G5",
                    "midi": 79,
                    "time": 7.799918,
                    "velocity": 0.4645669291338583,
                    "duration": 0.12084380000000028
                },
                {
                    "name": "A5",
                    "midi": 81,
                    "time": 7.909776,
                    "velocity": 0.4881889763779528,
                    "duration": 0.12084380000000028
                },
                {
                    "name": "G5",
                    "midi": 79,
                    "time": 8.019634,
                    "velocity": 0.48031496062992124,
                    "duration": 0.12084380000000117
                },
                {
                    "name": "F5",
                    "midi": 77,
                    "time": 8.129492,
                    "velocity": 0.47244094488188976,
                    "duration": 0.12084380000000117
                },
                {
                    "name": "E5",
                    "midi": 76,
                    "time": 8.239350000000002,
                    "velocity": 0.4645669291338583,
                    "duration": 0.12084380000000117
                },
                {
                    "name": "D5",
                    "midi": 74,
                    "time": 8.349208000000003,
                    "velocity": 0.4566929133858268,
                    "duration": 0.12084380000000117
                },
                {
                    "name": "C5",
                    "midi": 72,
                    "time": 8.459066000000004,
                    "velocity": 0.44881889763779526,
                    "duration": 0.12084380000000117
                },
                {
                    "name": "B4",
                    "midi": 71,
                    "time": 8.568924000000004,
                    "velocity": 0.4330708661417323,
                    "duration": 0.12084380000000117
                },
                {
                    "name": "A4",
                    "midi": 69,
                    "time": 8.678782000000005,
                    "velocity": 0.41732283464566927,
                    "duration": 0.12084380000000117
                },
                {
                    "name": "G4",
                    "midi": 67,
                    "time": 8.788640000000006,
                    "velocity": 0.47244094488188976,
                    "duration": 0.21971600000000002
                },
                {
                    "name": "A4",
                    "midi": 69,
                    "time": 9.008356000000006,
                    "velocity": 0.41732283464566927,
                    "duration": 0.12084379999999939
                },
                {
                    "name": "B4",
                    "midi": 71,
                    "time": 9.118214000000005,
                    "velocity": 0.4251968503937008,
                    "duration": 0.12084380000000117
                },
                {
                    "name": "C5",
                    "midi": 72,
                    "time": 9.228072000000006,
                    "velocity": 0.4330708661417323,
                    "duration": 0.12084380000000117
                },
                {
                    "name": "D5",
                    "midi": 74,
                    "time": 9.337930000000007,
                    "velocity": 0.44881889763779526,
                    "duration": 0.12084380000000117
                },
                {
                    "name": "E5",
                    "midi": 76,
                    "time": 9.447788000000008,
                    "velocity": 0.4566929133858268,
                    "duration": 0.12084380000000117
                },
                {
                    "name": "F5",
                    "midi": 77,
                    "time": 9.557646000000009,
                    "velocity": 0.4645669291338583,
                    "duration": 0.12084380000000117
                },
                {
                    "name": "G5",
                    "midi": 79,
                    "time": 9.66750400000001,
                    "velocity": 0.4881889763779528,
                    "duration": 0.12084380000000117
                },
                {
                    "name": "F5",
                    "midi": 77,
                    "time": 9.77736200000001,
                    "velocity": 0.48031496062992124,
                    "duration": 0.12084380000000117
                },
                {
                    "name": "E5",
                    "midi": 76,
                    "time": 9.887220000000012,
                    "velocity": 0.47244094488188976,
                    "duration": 0.12084380000000117
                },
                {
                    "name": "D5",
                    "midi": 74,
                    "time": 9.997078000000013,
                    "velocity": 0.4645669291338583,
                    "duration": 0.12084380000000117
                },
                {
                    "name": "C5",
                    "midi": 72,
                    "time": 10.106936000000013,
                    "velocity": 0.4566929133858268,
                    "duration": 0.12084380000000117
                },
                {
                    "name": "B4",
                    "midi": 71,
                    "time": 10.216794000000014,
                    "velocity": 0.44881889763779526,
                    "duration": 0.12084380000000117
                },
                {
                    "name": "A4",
                    "midi": 69,
                    "time": 10.326652000000015,
                    "velocity": 0.4330708661417323,
                    "duration": 0.12084380000000117
                },
                {
                    "name": "G4",
                    "midi": 67,
                    "time": 10.436510000000016,
                    "velocity": 0.41732283464566927,
                    "duration": 0.12084380000000117
                },
                {
                    "name": "F4",
                    "midi": 65,
                    "time": 10.546368000000017,
                    "velocity": 0.47244094488188976,
                    "duration": 0.21971600000000002
                },
                {
                    "name": "G4",
                    "midi": 67,
                    "time": 10.766084000000017,
                    "velocity": 0.41732283464566927,
                    "duration": 0.12084379999999939
                },
                {
                    "name": "A4",
                    "midi": 69,
                    "time": 10.875942000000016,
                    "velocity": 0.4251968503937008,
                    "duration": 0.12084380000000117
                },
                {
                    "name": "B4",
                    "midi": 71,
                    "time": 10.985800000000017,
                    "velocity": 0.4330708661417323,
                    "duration": 0.12084380000000117
                },
                {
                    "name": "C5",
                    "midi": 72,
                    "time": 11.095658000000018,
                    "velocity": 0.44881889763779526,
                    "duration": 0.12084380000000117
                },
                {
                    "name": "D5",
                    "midi": 74,
                    "time": 11.205516000000019,
                    "velocity": 0.4566929133858268,
                    "duration": 0.12084380000000117
                },
                {
                    "name": "E5",
                    "midi": 76,
                    "time": 11.31537400000002,
                    "velocity": 0.4645669291338583,
                    "duration": 0.12084380000000117
                },
                {
                    "name": "F5",
                    "midi": 77,
                    "time": 11.42523200000002,
                    "velocity": 0.4881889763779528,
                    "duration": 0.12084380000000117
                },
                {
                    "name": "E5",
                    "midi": 76,
                    "time": 11.535090000000022,
                    "velocity": 0.48031496062992124,
                    "duration": 0.12084380000000117
                },
                {
                    "name": "D5",
                    "midi": 74,
                    "time": 11.644948000000023,
                    "velocity": 0.47244094488188976,
                    "duration": 0.12084380000000117
                },
                {
                    "name": "C5",
                    "midi": 72,
                    "time": 11.754806000000023,
                    "velocity": 0.4645669291338583,
                    "duration": 0.12084380000000117
                },
                {
                    "name": "B4",
                    "midi": 71,
                    "time": 11.864664000000024,
                    "velocity": 0.4566929133858268,
                    "duration": 0.12084380000000117
                },
                {
                    "name": "A4",
                    "midi": 69,
                    "time": 11.974522000000025,
                    "velocity": 0.44881889763779526,
                    "duration": 0.12084380000000117
                },
                {
                    "name": "G4",
                    "midi": 67,
                    "time": 12.084380000000026,
                    "velocity": 0.4330708661417323,
                    "duration": 0.12084380000000117
                },
                {
                    "name": "F4",
                    "midi": 65,
                    "time": 12.194238000000027,
                    "velocity": 0.41732283464566927,
                    "duration": 0.12084380000000117
                },
                {
                    "name": "E4",
                    "midi": 64,
                    "time": 12.304096000000028,
                    "velocity": 0.47244094488188976,
                    "duration": 0.21971600000000002
                },
                {
                    "name": "F4",
                    "midi": 65,
                    "time": 12.523812000000028,
                    "velocity": 0.41732283464566927,
                    "duration": 0.12084379999999939
                },
                {
                    "name": "G4",
                    "midi": 67,
                    "time": 12.633670000000027,
                    "velocity": 0.4251968503937008,
                    "duration": 0.12084380000000117
                },
                {
                    "name": "A4",
                    "midi": 69,
                    "time": 12.743528000000028,
                    "velocity": 0.4330708661417323,
                    "duration": 0.12084380000000117
                },
                {
                    "name": "B4",
                    "midi": 71,
                    "time": 12.853386000000029,
                    "velocity": 0.44881889763779526,
                    "duration": 0.12084380000000117
                },
                {
                    "name": "C5",
                    "midi": 72,
                    "time": 12.96324400000003,
                    "velocity": 0.4566929133858268,
                    "duration": 0.12084380000000117
                },
                {
                    "name": "D5",
                    "midi": 74,
                    "time": 13.07310200000003,
                    "velocity": 0.4645669291338583,
                    "duration": 0.12084380000000117
                },
                {
                    "name": "E5",
                    "midi": 76,
                    "time": 13.182960000000032,
                    "velocity": 0.4881889763779528,
                    "duration": 0.12084380000000117
                },
                {
                    "name": "D5",
                    "midi": 74,
                    "time": 13.292818000000032,
                    "velocity": 0.48031496062992124,
                    "duration": 0.12084380000000117
                },
                {
                    "name": "C5",
                    "midi": 72,
                    "time": 13.402676000000033,
                    "velocity": 0.47244094488188976,
                    "duration": 0.12084380000000117
                },
                {
                    "name": "B4",
                    "midi": 71,
                    "time": 13.512534000000034,
                    "velocity": 0.4645669291338583,
                    "duration": 0.12084380000000117
                },
                {
                    "name": "A4",
                    "midi": 69,
                    "time": 13.622392000000035,
                    "velocity": 0.4566929133858268,
                    "duration": 0.12084380000000117
                },
                {
                    "name": "G4",
                    "midi": 67,
                    "time": 13.732250000000036,
                    "velocity": 0.44881889763779526,
                    "duration": 0.12084380000000117
                },
                {
                    "name": "F4",
                    "midi": 65,
                    "time": 13.842108000000037,
                    "velocity": 0.4330708661417323,
                    "duration": 0.12084380000000117
                },
                {
                    "name": "E4",
                    "midi": 64,
                    "time": 13.951966000000038,
                    "velocity": 0.41732283464566927,
                    "duration": 0.12084380000000117
                },
                {
                    "name": "D4",
                    "midi": 62,
                    "time": 14.061824000000039,
                    "velocity": 0.47244094488188976,
                    "duration": 0.21971600000000002
                },
                {
                    "name": "E4",
                    "midi": 64,
                    "time": 14.281540000000039,
                    "velocity": 0.41732283464566927,
                    "duration": 0.12084379999999939
                },
                {
                    "name": "F4",
                    "midi": 65,
                    "time": 14.391398000000038,
                    "velocity": 0.4251968503937008,
                    "duration": 0.12084380000000117
                },
                {
                    "name": "G4",
                    "midi": 67,
                    "time": 14.501256000000039,
                    "velocity": 0.4330708661417323,
                    "duration": 0.12084380000000117
                },
                {
                    "name": "A4",
                    "midi": 69,
                    "time": 14.61111400000004,
                    "velocity": 0.44881889763779526,
                    "duration": 0.12084380000000117
                },
                {
                    "name": "B4",
                    "midi": 71,
                    "time": 14.72097200000004,
                    "velocity": 0.4566929133858268,
                    "duration": 0.12084380000000117
                },
                {
                    "name": "C#5",
                    "midi": 73,
                    "time": 14.830830000000041,
                    "velocity": 0.4645669291338583,
                    "duration": 0.12084380000000117
                },
                {
                    "name": "D5",
                    "midi": 74,
                    "time": 14.940688000000042,
                    "velocity": 0.4881889763779528,
                    "duration": 0.1098580000000009
                },
                {
                    "name": "A4",
                    "midi": 69,
                    "time": 15.050546000000043,
                    "velocity": 0.4566929133858268,
                    "duration": 0.12084379999999939
                },
                {
                    "name": "B4",
                    "midi": 71,
                    "time": 15.160404000000042,
                    "velocity": 0.48031496062992124,
                    "duration": 0.12084380000000117
                },
                {
                    "name": "C#5",
                    "midi": 73,
                    "time": 15.270262000000043,
                    "velocity": 0.5039370078740157,
                    "duration": 0.12084380000000117
                },
                {
                    "name": "D5",
                    "midi": 74,
                    "time": 15.380120000000044,
                    "velocity": 0.5196850393700787,
                    "duration": 0.12084380000000117
                },
                {
                    "name": "E5",
                    "midi": 76,
                    "time": 15.489978000000045,
                    "velocity": 0.5275590551181102,
                    "duration": 0.12084380000000117
                },
                {
                    "name": "F5",
                    "midi": 77,
                    "time": 15.599836000000046,
                    "velocity": 0.5354330708661418,
                    "duration": 0.12084380000000117
                },
                {
                    "name": "G5",
                    "midi": 79,
                    "time": 15.709694000000047,
                    "velocity": 0.5433070866141733,
                    "duration": 0.12084380000000117
                },
                {
                    "name": "A5",
                    "midi": 81,
                    "time": 15.819552000000048,
                    "velocity": 0.5511811023622047,
                    "duration": 0.12084380000000117
                },
                {
                    "name": "B5",
                    "midi": 83,
                    "time": 15.929410000000049,
                    "velocity": 0.5433070866141733,
                    "duration": 0.12084380000000117
                },
                {
                    "name": "C6",
                    "midi": 84,
                    "time": 16.03926800000005,
                    "velocity": 0.5590551181102362,
                    "duration": 0.12084379999999939
                },
                {
                    "name": "B5",
                    "midi": 83,
                    "time": 16.14912600000005,
                    "velocity": 0.5433070866141733,
                    "duration": 0.12084379999999939
                },
                {
                    "name": "A5",
                    "midi": 81,
                    "time": 16.258984000000048,
                    "velocity": 0.5275590551181102,
                    "duration": 0.12084379999999939
                },
                {
                    "name": "G5",
                    "midi": 79,
                    "time": 16.368842000000047,
                    "velocity": 0.5118110236220472,
                    "duration": 0.12084379999999939
                },
                {
                    "name": "F5",
                    "midi": 77,
                    "time": 16.478700000000046,
                    "velocity": 0.49606299212598426,
                    "duration": 0.12084379999999939
                },
                {
                    "name": "E5",
                    "midi": 76,
                    "time": 16.588558000000045,
                    "velocity": 0.5196850393700787,
                    "duration": 0.10985799999999912
                },
                {
                    "name": "F5",
                    "midi": 77,
                    "time": 16.698416000000044,
                    "velocity": 0.5118110236220472,
                    "duration": 0.12084379999999939
                },
                {
                    "name": "G5",
                    "midi": 79,
                    "time": 16.808274000000043,
                    "velocity": 0.5196850393700787,
                    "duration": 0.12084379999999939
                },
                {
                    "name": "A5",
                    "midi": 81,
                    "time": 16.918132000000043,
                    "velocity": 0.5275590551181102,
                    "duration": 0.12084379999999939
                },
                {
                    "name": "G5",
                    "midi": 79,
                    "time": 17.02799000000004,
                    "velocity": 0.5275590551181102,
                    "duration": 0.12084379999999939
                },
                {
                    "name": "F5",
                    "midi": 77,
                    "time": 17.13784800000004,
                    "velocity": 0.5354330708661418,
                    "duration": 0.12084379999999939
                },
                {
                    "name": "E5",
                    "midi": 76,
                    "time": 17.24770600000004,
                    "velocity": 0.5590551181102362,
                    "duration": 0.12084379999999939
                },
                {
                    "name": "D5",
                    "midi": 74,
                    "time": 17.35756400000004,
                    "velocity": 0.5748031496062992,
                    "duration": 0.12084379999999939
                },
                {
                    "name": "C5",
                    "midi": 72,
                    "time": 17.467422000000038,
                    "velocity": 0.5984251968503937,
                    "duration": 0.12084379999999939
                },
                {
                    "name": "B4",
                    "midi": 71,
                    "time": 17.577280000000037,
                    "velocity": 0.6141732283464567,
                    "duration": 0.10985799999999912
                },
                {
                    "name": "G5",
                    "midi": 79,
                    "time": 17.796996000000036,
                    "velocity": 0.5590551181102362,
                    "duration": 0.10985799999999912
                },
                {
                    "name": "E5",
                    "midi": 76,
                    "time": 18.016712000000034,
                    "velocity": 0.5590551181102362,
                    "duration": 0.10985799999999912
                },
                {
                    "name": "C5",
                    "midi": 72,
                    "time": 18.236428000000032,
                    "velocity": 0.5590551181102362,
                    "duration": 0.10985799999999912
                },
                {
                    "name": "D5",
                    "midi": 74,
                    "time": 18.45614400000003,
                    "velocity": 0.6141732283464567,
                    "duration": 0.10985799999999912
                },
                {
                    "name": "G5",
                    "midi": 79,
                    "time": 18.67586000000003,
                    "velocity": 0.5590551181102362,
                    "duration": 0.10985799999999912
                },
                {
                    "name": "E5",
                    "midi": 76,
                    "time": 18.895576000000027,
                    "velocity": 0.5590551181102362,
                    "duration": 0.10985799999999912
                },
                {
                    "name": "C5",
                    "midi": 72,
                    "time": 19.115292000000025,
                    "velocity": 0.5590551181102362,
                    "duration": 0.10985799999999912
                },
                {
                    "name": "D5",
                    "midi": 74,
                    "time": 19.335008000000023,
                    "velocity": 0.6377952755905512,
                    "duration": 0.10985799999999912
                },
                {
                    "name": "B4",
                    "midi": 71,
                    "time": 19.774440000000023,
                    "velocity": 0.5590551181102362,
                    "duration": 0.10985799999999912
                },
                {
                    "name": "D5",
                    "midi": 74,
                    "time": 19.774440000000023,
                    "velocity": 0.5590551181102362,
                    "duration": 0.10985799999999912
                },
                {
                    "name": "G5",
                    "midi": 79,
                    "time": 19.774440000000023,
                    "velocity": 0.5590551181102362,
                    "duration": 0.10985799999999912
                },
                {
                    "name": "G4",
                    "midi": 67,
                    "time": 20.213872000000023,
                    "velocity": 0.6535433070866141,
                    "duration": 0.43943200000000004
                },
                {
                    "name": "D6",
                    "midi": 86,
                    "time": 22.850464000000024,
                    "velocity": 0.48031496062992124,
                    "duration": 0.21971599999999825
                },
                {
                    "name": "B5",
                    "midi": 83,
                    "time": 23.070180000000022,
                    "velocity": 0.4330708661417323,
                    "duration": 0.21971599999999825
                },
                {
                    "name": "G5",
                    "midi": 79,
                    "time": 23.28989600000002,
                    "velocity": 0.48031496062992124,
                    "duration": 0.6591479999999983
                },
                {
                    "name": "A5",
                    "midi": 81,
                    "time": 23.94904400000002,
                    "velocity": 0.41732283464566927,
                    "duration": 0.10985799999999912
                },
                {
                    "name": "B5",
                    "midi": 83,
                    "time": 24.058902000000018,
                    "velocity": 0.4015748031496063,
                    "duration": 0.10985799999999912
                },
                {
                    "name": "A5",
                    "midi": 81,
                    "time": 24.168760000000017,
                    "velocity": 0.4330708661417323,
                    "duration": 0.21971599999999825
                },
                {
                    "name": "G5",
                    "midi": 79,
                    "time": 24.388476000000015,
                    "velocity": 0.41732283464566927,
                    "duration": 0.10985799999999912
                },
                {
                    "name": "G5",
                    "midi": 79,
                    "time": 24.608192000000013,
                    "velocity": 0.4330708661417323,
                    "duration": 0.05492900000000134
                },
                {
                    "name": "A5",
                    "midi": 81,
                    "time": 24.663121000000015,
                    "velocity": 0.4015748031496063,
                    "duration": 0.05492900000000134
                },
                {
                    "name": "G5",
                    "midi": 79,
                    "time": 24.718050000000016,
                    "velocity": 0.4409448818897638,
                    "duration": 0.05492900000000134
                },
                {
                    "name": "A5",
                    "midi": 81,
                    "time": 24.772979000000017,
                    "velocity": 0.4015748031496063,
                    "duration": 0.05492900000000134
                },
                {
                    "name": "G5",
                    "midi": 79,
                    "time": 24.82790800000002,
                    "velocity": 0.4566929133858268,
                    "duration": 0.10985799999999912
                },
                {
                    "name": "F#5",
                    "midi": 78,
                    "time": 24.937766000000018,
                    "velocity": 0.4094488188976378,
                    "duration": 0.10070316666666557
                },
                {
                    "name": "F#5",
                    "midi": 78,
                    "time": 25.047624000000017,
                    "velocity": 0.4566929133858268,
                    "duration": 0.43943200000000004
                },
                {
                    "name": "D6",
                    "midi": 86,
                    "time": 26.365920000000017,
                    "velocity": 0.48031496062992124,
                    "duration": 0.21971599999999825
                },
                {
                    "name": "B5",
                    "midi": 83,
                    "time": 26.585636000000015,
                    "velocity": 0.4330708661417323,
                    "duration": 0.21971599999999825
                },
                {
                    "name": "G5",
                    "midi": 79,
                    "time": 26.805352000000013,
                    "velocity": 0.48031496062992124,
                    "duration": 0.6591479999999983
                },
                {
                    "name": "A5",
                    "midi": 81,
                    "time": 27.46450000000001,
                    "velocity": 0.41732283464566927,
                    "duration": 0.10985799999999912
                },
                {
                    "name": "B5",
                    "midi": 83,
                    "time": 27.57435800000001,
                    "velocity": 0.4015748031496063,
                    "duration": 0.10985799999999912
                },
                {
                    "name": "A5",
                    "midi": 81,
                    "time": 27.68421600000001,
                    "velocity": 0.4330708661417323,
                    "duration": 0.21971599999999825
                },
                {
                    "name": "G5",
                    "midi": 79,
                    "time": 27.903932000000008,
                    "velocity": 0.41732283464566927,
                    "duration": 0.10985799999999912
                },
                {
                    "name": "G5",
                    "midi": 79,
                    "time": 28.123648000000006,
                    "velocity": 0.4330708661417323,
                    "duration": 0.05492900000000134
                },
                {
                    "name": "A5",
                    "midi": 81,
                    "time": 28.178577000000008,
                    "velocity": 0.4015748031496063,
                    "duration": 0.05492900000000134
                },
                {
                    "name": "G5",
                    "midi": 79,
                    "time": 28.23350600000001,
                    "velocity": 0.4409448818897638,
                    "duration": 0.05492900000000134
                },
                {
                    "name": "A5",
                    "midi": 81,
                    "time": 28.28843500000001,
                    "velocity": 0.3937007874015748,
                    "duration": 0.05492900000000134
                },
                {
                    "name": "G5",
                    "midi": 79,
                    "time": 28.34336400000001,
                    "velocity": 0.4330708661417323,
                    "duration": 0.10985799999999912
                },
                {
                    "name": "F#5",
                    "midi": 78,
                    "time": 28.45322200000001,
                    "velocity": 0.4094488188976378,
                    "duration": 0.08239349999999845
                },
                {
                    "name": "F#5",
                    "midi": 78,
                    "time": 28.56308000000001,
                    "velocity": 0.4566929133858268,
                    "duration": 0.43943200000000004
                },
                {
                    "name": "D6",
                    "midi": 86,
                    "time": 29.88137600000001,
                    "velocity": 0.5433070866141733,
                    "duration": 0.43943200000000004
                },
                {
                    "name": "D6",
                    "midi": 86,
                    "time": 30.43066600000001,
                    "velocity": 0.48031496062992124,
                    "duration": 0.10985799999999912
                },
                {
                    "name": "B5",
                    "midi": 83,
                    "time": 30.54052400000001,
                    "velocity": 0.5196850393700787,
                    "duration": 0.10985799999999912
                },
                {
                    "name": "G5",
                    "midi": 79,
                    "time": 30.650382000000008,
                    "velocity": 0.48031496062992124,
                    "duration": 0.10985799999999912
                },
                {
                    "name": "E5",
                    "midi": 76,
                    "time": 30.760240000000007,
                    "velocity": 0.5354330708661418,
                    "duration": 0.43943200000000004
                },
                {
                    "name": "E5",
                    "midi": 76,
                    "time": 31.309530000000006,
                    "velocity": 0.48031496062992124,
                    "duration": 0.10985799999999912
                },
                {
                    "name": "G5",
                    "midi": 79,
                    "time": 31.419388000000005,
                    "velocity": 0.5196850393700787,
                    "duration": 0.10985799999999912
                },
                {
                    "name": "E5",
                    "midi": 76,
                    "time": 31.529246000000004,
                    "velocity": 0.48031496062992124,
                    "duration": 0.10985799999999912
                },
                {
                    "name": "C6",
                    "midi": 84,
                    "time": 31.639104000000003,
                    "velocity": 0.5433070866141733,
                    "duration": 0.4394319999999965
                },
                {
                    "name": "C6",
                    "midi": 84,
                    "time": 32.188394,
                    "velocity": 0.48031496062992124,
                    "duration": 0.10985800000000268
                },
                {
                    "name": "A5",
                    "midi": 81,
                    "time": 32.298252000000005,
                    "velocity": 0.5196850393700787,
                    "duration": 0.10985800000000268
                },
                {
                    "name": "F#5",
                    "midi": 78,
                    "time": 32.40811000000001,
                    "velocity": 0.48031496062992124,
                    "duration": 0.10985800000000268
                },
                {
                    "name": "D5",
                    "midi": 74,
                    "time": 32.51796800000001,
                    "velocity": 0.5354330708661418,
                    "duration": 0.4394319999999965
                },
                {
                    "name": "D5",
                    "midi": 74,
                    "time": 33.06725800000001,
                    "velocity": 0.48031496062992124,
                    "duration": 0.10985800000000268
                },
                {
                    "name": "F#5",
                    "midi": 78,
                    "time": 33.17711600000001,
                    "velocity": 0.5196850393700787,
                    "duration": 0.10985800000000268
                },
                {
                    "name": "D5",
                    "midi": 74,
                    "time": 33.286974000000015,
                    "velocity": 0.48031496062992124,
                    "duration": 0.10985800000000268
                },
                {
                    "name": "B5",
                    "midi": 83,
                    "time": 33.39683200000002,
                    "velocity": 0.5354330708661418,
                    "duration": 0.4394319999999965
                },
                {
                    "name": "B5",
                    "midi": 83,
                    "time": 33.94612200000002,
                    "velocity": 0.48031496062992124,
                    "duration": 0.10985800000000268
                },
                {
                    "name": "G5",
                    "midi": 79,
                    "time": 34.05598000000002,
                    "velocity": 0.5196850393700787,
                    "duration": 0.10985800000000268
                },
                {
                    "name": "E5",
                    "midi": 76,
                    "time": 34.16583800000002,
                    "velocity": 0.48031496062992124,
                    "duration": 0.10985800000000268
                },
                {
                    "name": "C5",
                    "midi": 72,
                    "time": 34.275696000000025,
                    "velocity": 0.5354330708661418,
                    "duration": 0.4394319999999965
                },
                {
                    "name": "C5",
                    "midi": 72,
                    "time": 34.824986000000024,
                    "velocity": 0.48031496062992124,
                    "duration": 0.10985800000000268
                },
                {
                    "name": "E5",
                    "midi": 76,
                    "time": 34.93484400000003,
                    "velocity": 0.5196850393700787,
                    "duration": 0.10985800000000268
                },
                {
                    "name": "C5",
                    "midi": 72,
                    "time": 35.04470200000003,
                    "velocity": 0.48031496062992124,
                    "duration": 0.10985800000000268
                },
                {
                    "name": "A5",
                    "midi": 81,
                    "time": 35.15456000000003,
                    "velocity": 0.5354330708661418,
                    "duration": 0.4394319999999965
                },
                {
                    "name": "A5",
                    "midi": 81,
                    "time": 35.70385000000003,
                    "velocity": 0.48031496062992124,
                    "duration": 0.10985800000000268
                },
                {
                    "name": "F#5",
                    "midi": 78,
                    "time": 35.813708000000034,
                    "velocity": 0.5196850393700787,
                    "duration": 0.10985800000000268
                },
                {
                    "name": "C5",
                    "midi": 72,
                    "time": 35.92356600000004,
                    "velocity": 0.48031496062992124,
                    "duration": 0.10985800000000268
                },
                {
                    "name": "B4",
                    "midi": 71,
                    "time": 36.03342400000004,
                    "velocity": 0.5354330708661418,
                    "duration": 0.4394319999999965
                },
                {
                    "name": "G5",
                    "midi": 79,
                    "time": 36.58271400000004,
                    "velocity": 0.48031496062992124,
                    "duration": 0.10985800000000268
                },
                {
                    "name": "D5",
                    "midi": 74,
                    "time": 36.69257200000004,
                    "velocity": 0.5196850393700787,
                    "duration": 0.10985800000000268
                },
                {
                    "name": "B4",
                    "midi": 71,
                    "time": 36.802430000000044,
                    "velocity": 0.48031496062992124,
                    "duration": 0.10985800000000268
                },
                {
                    "name": "A4",
                    "midi": 69,
                    "time": 36.912288000000046,
                    "velocity": 0.5196850393700787,
                    "duration": 0.8239349999999988
                },
                {
                    "name": "B4",
                    "midi": 71,
                    "time": 37.736223000000045,
                    "velocity": 0.5039370078740157,
                    "duration": 0.05492900000000134
                },
                {
                    "name": "C5",
                    "midi": 72,
                    "time": 37.79115200000005,
                    "velocity": 0.5433070866141733,
                    "duration": 0.38450300000000226
                },
                {
                    "name": "D#5",
                    "midi": 75,
                    "time": 38.17565500000005,
                    "velocity": 0.5118110236220472,
                    "duration": 0.05492900000000134
                },
                {
                    "name": "E5",
                    "midi": 76,
                    "time": 38.23058400000005,
                    "velocity": 0.5669291338582677,
                    "duration": 0.38450300000000226
                },
                {
                    "name": "G#5",
                    "midi": 80,
                    "time": 38.61508700000005,
                    "velocity": 0.5118110236220472,
                    "duration": 0.05492900000000134
                },
                {
                    "name": "A5",
                    "midi": 81,
                    "time": 38.670016000000054,
                    "velocity": 0.5590551181102362,
                    "duration": 0.6591480000000018
                },
                {
                    "name": "B5",
                    "midi": 83,
                    "time": 39.329164000000056,
                    "velocity": 0.5196850393700787,
                    "duration": 0.05492900000000134
                },
                {
                    "name": "A5",
                    "midi": 81,
                    "time": 39.38409300000006,
                    "velocity": 0.5196850393700787,
                    "duration": 0.05492900000000134
                },
                {
                    "name": "G#5",
                    "midi": 80,
                    "time": 39.43902200000006,
                    "velocity": 0.5196850393700787,
                    "duration": 0.05492900000000134
                },
                {
                    "name": "A5",
                    "midi": 81,
                    "time": 39.49395100000006,
                    "velocity": 0.5196850393700787,
                    "duration": 0.05492900000000134
                },
                {
                    "name": "C6",
                    "midi": 84,
                    "time": 39.54888000000006,
                    "velocity": 0.5826771653543307,
                    "duration": 0.21971599999999825
                },
                {
                    "name": "A5",
                    "midi": 81,
                    "time": 39.76859600000006,
                    "velocity": 0.5354330708661418,
                    "duration": 0.21971599999999825
                },
                {
                    "name": "C6",
                    "midi": 84,
                    "time": 39.98831200000006,
                    "velocity": 0.5905511811023622,
                    "duration": 0.21971599999999825
                },
                {
                    "name": "A5",
                    "midi": 81,
                    "time": 40.208028000000056,
                    "velocity": 0.5433070866141733,
                    "duration": 0.21971599999999825
                },
                {
                    "name": "B5",
                    "midi": 83,
                    "time": 40.427744000000054,
                    "velocity": 0.6141732283464567,
                    "duration": 0.21971599999999825
                },
                {
                    "name": "G5",
                    "midi": 79,
                    "time": 40.64746000000005,
                    "velocity": 0.5748031496062992,
                    "duration": 0.21971599999999825
                },
                {
                    "name": "D6",
                    "midi": 86,
                    "time": 40.86717600000005,
                    "velocity": 0.6220472440944882,
                    "duration": 0.8788640000000001
                },
                {
                    "name": "C6",
                    "midi": 84,
                    "time": 41.74604000000005,
                    "velocity": 0.5511811023622047,
                    "duration": 0.10985800000000268
                },
                {
                    "name": "B5",
                    "midi": 83,
                    "time": 41.85589800000005,
                    "velocity": 0.5354330708661418,
                    "duration": 0.10985800000000268
                },
                {
                    "name": "A5",
                    "midi": 81,
                    "time": 41.965756000000056,
                    "velocity": 0.5275590551181102,
                    "duration": 0.10985800000000268
                },
                {
                    "name": "G5",
                    "midi": 79,
                    "time": 42.07561400000006,
                    "velocity": 0.5118110236220472,
                    "duration": 0.10985800000000268
                },
                {
                    "name": "A5",
                    "midi": 81,
                    "time": 42.18547200000006,
                    "velocity": 0.3858267716535433,
                    "duration": 0.05492900000000134
                },
                {
                    "name": "B5",
                    "midi": 83,
                    "time": 42.24040100000006,
                    "velocity": 0.2992125984251969,
                    "duration": 0.05492900000000134
                },
                {
                    "name": "A5",
                    "midi": 81,
                    "time": 42.295330000000064,
                    "velocity": 0.3858267716535433,
                    "duration": 0.05492900000000134
                },
                {
                    "name": "B5",
                    "midi": 83,
                    "time": 42.350259000000065,
                    "velocity": 0.31496062992125984,
                    "duration": 0.05492900000000134
                },
                {
                    "name": "A5",
                    "midi": 81,
                    "time": 42.40518800000007,
                    "velocity": 0.3937007874015748,
                    "duration": 0.05492900000000134
                },
                {
                    "name": "B5",
                    "midi": 83,
                    "time": 42.46011700000007,
                    "velocity": 0.31496062992125984,
                    "duration": 0.05492900000000134
                },
                {
                    "name": "A5",
                    "midi": 81,
                    "time": 42.51504600000007,
                    "velocity": 0.3937007874015748,
                    "duration": 0.05492900000000134
                },
                {
                    "name": "B5",
                    "midi": 83,
                    "time": 42.56997500000007,
                    "velocity": 0.31496062992125984,
                    "duration": 0.05492900000000134
                },
                {
                    "name": "A5",
                    "midi": 81,
                    "time": 42.62490400000007,
                    "velocity": 0.4094488188976378,
                    "duration": 0.05492900000000134
                },
                {
                    "name": "B5",
                    "midi": 83,
                    "time": 42.67983300000007,
                    "velocity": 0.31496062992125984,
                    "duration": 0.05492900000000134
                },
                {
                    "name": "A5",
                    "midi": 81,
                    "time": 42.734762000000075,
                    "velocity": 0.4094488188976378,
                    "duration": 0.05492900000000134
                },
                {
                    "name": "B5",
                    "midi": 83,
                    "time": 42.789691000000076,
                    "velocity": 0.3228346456692913,
                    "duration": 0.05492900000000134
                },
                {
                    "name": "A5",
                    "midi": 81,
                    "time": 42.84462000000008,
                    "velocity": 0.41732283464566927,
                    "duration": 0.05492900000000134
                },
                {
                    "name": "B5",
                    "midi": 83,
                    "time": 42.89954900000008,
                    "velocity": 0.3228346456692913,
                    "duration": 0.05492900000000134
                },
                {
                    "name": "A5",
                    "midi": 81,
                    "time": 42.95447800000008,
                    "velocity": 0.41732283464566927,
                    "duration": 0.05492900000000134
                },
                {
                    "name": "B5",
                    "midi": 83,
                    "time": 43.00940700000008,
                    "velocity": 0.33070866141732286,
                    "duration": 0.05492900000000134
                },
                {
                    "name": "A5",
                    "midi": 81,
                    "time": 43.06433600000008,
                    "velocity": 0.4251968503937008,
                    "duration": 0.05492900000000134
                },
                {
                    "name": "B5",
                    "midi": 83,
                    "time": 43.119265000000084,
                    "velocity": 0.33858267716535434,
                    "duration": 0.05492900000000134
                },
                {
                    "name": "A5",
                    "midi": 81,
                    "time": 43.174194000000085,
                    "velocity": 0.4251968503937008,
                    "duration": 0.05492900000000134
                },
                {
                    "name": "B5",
                    "midi": 83,
                    "time": 43.22912300000009,
                    "velocity": 0.3543307086614173,
                    "duration": 0.05492900000000134
                },
                {
                    "name": "A5",
                    "midi": 81,
                    "time": 43.28405200000009,
                    "velocity": 0.4251968503937008,
                    "duration": 0.05492900000000134
                },
                {
                    "name": "B5",
                    "midi": 83,
                    "time": 43.33898100000009,
                    "velocity": 0.3464566929133858,
                    "duration": 0.05492900000000134
                },
                {
                    "name": "A5",
                    "midi": 81,
                    "time": 43.39391000000009,
                    "velocity": 0.4251968503937008,
                    "duration": 0.05492900000000134
                },
                {
                    "name": "B5",
                    "midi": 83,
                    "time": 43.44883900000009,
                    "velocity": 0.3464566929133858,
                    "duration": 0.05492900000000134
                },
                {
                    "name": "A5",
                    "midi": 81,
                    "time": 43.50376800000009,
                    "velocity": 0.41732283464566927,
                    "duration": 0.05492900000000134
                },
                {
                    "name": "B5",
                    "midi": 83,
                    "time": 43.558697000000095,
                    "velocity": 0.3543307086614173,
                    "duration": 0.05492900000000134
                },
                {
                    "name": "A5",
                    "midi": 81,
                    "time": 43.613626000000096,
                    "velocity": 0.41732283464566927,
                    "duration": 0.05492900000000134
                },
                {
                    "name": "B5",
                    "midi": 83,
                    "time": 43.6685550000001,
                    "velocity": 0.33070866141732286,
                    "duration": 0.05492900000000134
                },
                {
                    "name": "A5",
                    "midi": 81,
                    "time": 43.7234840000001,
                    "velocity": 0.41732283464566927,
                    "duration": 0.07323866666666845
                },
                {
                    "name": "G5",
                    "midi": 79,
                    "time": 43.79672266666677,
                    "velocity": 0.4645669291338583,
                    "duration": 0.07323866666666845
                },
                {
                    "name": "A5",
                    "midi": 81,
                    "time": 43.869961333333436,
                    "velocity": 0.4566929133858268,
                    "duration": 0.07323866666666845
                },
                {
                    "name": "G5",
                    "midi": 79,
                    "time": 43.943200000000104,
                    "velocity": 0.5433070866141733,
                    "duration": 0.4394319999999965
                },
                {
                    "name": "G5",
                    "midi": 79,
                    "time": 44.3826320000001,
                    "velocity": 0.5275590551181102,
                    "duration": 0.10985800000000268
                },
                {
                    "name": "D5",
                    "midi": 74,
                    "time": 44.4924900000001,
                    "velocity": 0.4645669291338583,
                    "duration": 0.10985800000000268
                },
                {
                    "name": "G5",
                    "midi": 79,
                    "time": 44.602348000000106,
                    "velocity": 0.4881889763779528,
                    "duration": 0.10985800000000268
                },
                {
                    "name": "B5",
                    "midi": 83,
                    "time": 44.71220600000011,
                    "velocity": 0.5118110236220472,
                    "duration": 0.10985800000000268
                },
                {
                    "name": "D6",
                    "midi": 86,
                    "time": 44.82206400000011,
                    "velocity": 0.5354330708661418,
                    "duration": 0.10985800000000268
                },
                {
                    "name": "B5",
                    "midi": 83,
                    "time": 44.931922000000114,
                    "velocity": 0.49606299212598426,
                    "duration": 0.10985800000000268
                },
                {
                    "name": "G5",
                    "midi": 79,
                    "time": 45.04178000000012,
                    "velocity": 0.5354330708661418,
                    "duration": 0.10985800000000268
                },
                {
                    "name": "B5",
                    "midi": 83,
                    "time": 45.15163800000012,
                    "velocity": 0.49606299212598426,
                    "duration": 0.10985800000000268
                },
                {
                    "name": "C6",
                    "midi": 84,
                    "time": 45.26149600000012,
                    "velocity": 0.5433070866141733,
                    "duration": 0.10985800000000268
                },
                {
                    "name": "A5",
                    "midi": 81,
                    "time": 45.371354000000125,
                    "velocity": 0.49606299212598426,
                    "duration": 0.10985800000000268
                },
                {
                    "name": "F#5",
                    "midi": 78,
                    "time": 45.48121200000013,
                    "velocity": 0.5433070866141733,
                    "duration": 0.10985800000000268
                },
                {
                    "name": "A5",
                    "midi": 81,
                    "time": 45.59107000000013,
                    "velocity": 0.49606299212598426,
                    "duration": 0.10985800000000268
                },
                {
                    "name": "G5",
                    "midi": 79,
                    "time": 45.70092800000013,
                    "velocity": 0.5433070866141733,
                    "duration": 0.4394319999999965
                },
                {
                    "name": "G4",
                    "midi": 67,
                    "time": 46.14036000000013,
                    "velocity": 0.5275590551181102,
                    "duration": 0.10985800000000268
                },
                {
                    "name": "D4",
                    "midi": 62,
                    "time": 46.25021800000013,
                    "velocity": 0.4645669291338583,
                    "duration": 0.10985800000000268
                },
                {
                    "name": "G4",
                    "midi": 67,
                    "time": 46.360076000000134,
                    "velocity": 0.4881889763779528,
                    "duration": 0.10985800000000268
                },
                {
                    "name": "B4",
                    "midi": 71,
                    "time": 46.46993400000014,
                    "velocity": 0.5118110236220472,
                    "duration": 0.10985800000000268
                },
                {
                    "name": "D5",
                    "midi": 74,
                    "time": 46.57979200000014,
                    "velocity": 0.5354330708661418,
                    "duration": 0.10985800000000268
                },
                {
                    "name": "B4",
                    "midi": 71,
                    "time": 46.68965000000014,
                    "velocity": 0.49606299212598426,
                    "duration": 0.10985800000000268
                },
                {
                    "name": "G4",
                    "midi": 67,
                    "time": 46.799508000000145,
                    "velocity": 0.5354330708661418,
                    "duration": 0.10985800000000268
                },
                {
                    "name": "B4",
                    "midi": 71,
                    "time": 46.90936600000015,
                    "velocity": 0.49606299212598426,
                    "duration": 0.10985800000000268
                },
                {
                    "name": "C5",
                    "midi": 72,
                    "time": 47.01922400000015,
                    "velocity": 0.5433070866141733,
                    "duration": 0.10985800000000268
                },
                {
                    "name": "A4",
                    "midi": 69,
                    "time": 47.12908200000015,
                    "velocity": 0.49606299212598426,
                    "duration": 0.10985800000000268
                },
                {
                    "name": "F#4",
                    "midi": 66,
                    "time": 47.238940000000156,
                    "velocity": 0.5433070866141733,
                    "duration": 0.10985800000000268
                },
                {
                    "name": "A4",
                    "midi": 69,
                    "time": 47.34879800000016,
                    "velocity": 0.49606299212598426,
                    "duration": 0.10985800000000268
                },
                {
                    "name": "G4",
                    "midi": 67,
                    "time": 47.45865600000016,
                    "velocity": 0.5826771653543307,
                    "duration": 0.10985800000000268
                },
                {
                    "name": "D5",
                    "midi": 74,
                    "time": 47.898088000000165,
                    "velocity": 0.5118110236220472,
                    "duration": 0.10985800000000268
                },
                {
                    "name": "B5",
                    "midi": 83,
                    "time": 47.898088000000165,
                    "velocity": 0.6062992125984252,
                    "duration": 0.10985800000000268
                },
                {
                    "name": "B4",
                    "midi": 71,
                    "time": 48.33752000000017,
                    "velocity": 0.4881889763779528,
                    "duration": 0.4394319999999965
                },
                {
                    "name": "G5",
                    "midi": 79,
                    "time": 48.33752000000017,
                    "velocity": 0.5826771653543307,
                    "duration": 0.4394319999999965
                },
                {
                    "name": "C5",
                    "midi": 72,
                    "time": 49.21638400000016,
                    "velocity": 0.47244094488188976,
                    "duration": 0.8788640000000001
                },
                {
                    "name": "E5",
                    "midi": 76,
                    "time": 50.09524800000016,
                    "velocity": 0.47244094488188976,
                    "duration": 0.4394319999999965
                },
                {
                    "name": "G5",
                    "midi": 79,
                    "time": 50.53468000000016,
                    "velocity": 0.47244094488188976,
                    "duration": 0.4394319999999965
                },
                {
                    "name": "B4",
                    "midi": 71,
                    "time": 50.974112000000154,
                    "velocity": 0.47244094488188976,
                    "duration": 0.6591480000000018
                },
                {
                    "name": "C5",
                    "midi": 72,
                    "time": 51.633260000000156,
                    "velocity": 0.4330708661417323,
                    "duration": 0.10985800000000268
                },
                {
                    "name": "D5",
                    "midi": 74,
                    "time": 51.74311800000016,
                    "velocity": 0.4015748031496063,
                    "duration": 0.10985800000000268
                },
                {
                    "name": "C5",
                    "midi": 72,
                    "time": 51.85297600000016,
                    "velocity": 0.47244094488188976,
                    "duration": 0.4394319999999965
                },
                {
                    "name": "A5",
                    "midi": 81,
                    "time": 52.731840000000155,
                    "velocity": 0.5039370078740157,
                    "duration": 0.8788640000000001
                },
                {
                    "name": "G5",
                    "midi": 79,
                    "time": 53.610704000000155,
                    "velocity": 0.4881889763779528,
                    "duration": 0.4394319999999965
                },
                {
                    "name": "C6",
                    "midi": 84,
                    "time": 54.05013600000015,
                    "velocity": 0.5039370078740157,
                    "duration": 0.4394319999999965
                },
                {
                    "name": "G5",
                    "midi": 79,
                    "time": 54.48956800000015,
                    "velocity": 0.5039370078740157,
                    "duration": 0.4394319999999965
                },
                {
                    "name": "F5",
                    "midi": 77,
                    "time": 54.929000000000144,
                    "velocity": 0.4330708661417323,
                    "duration": 0.07323866666666845
                },
                {
                    "name": "G5",
                    "midi": 79,
                    "time": 55.00223866666681,
                    "velocity": 0.4330708661417323,
                    "duration": 0.07323866666666845
                },
                {
                    "name": "F5",
                    "midi": 77,
                    "time": 55.07547733333348,
                    "velocity": 0.4330708661417323,
                    "duration": 0.07323866666666845
                },
                {
                    "name": "E5",
                    "midi": 76,
                    "time": 55.14871600000015,
                    "velocity": 0.4645669291338583,
                    "duration": 0.10985800000000268
                },
                {
                    "name": "F5",
                    "midi": 77,
                    "time": 55.25857400000015,
                    "velocity": 0.4330708661417323,
                    "duration": 0.10985800000000268
                },
                {
                    "name": "E5",
                    "midi": 76,
                    "time": 55.368432000000155,
                    "velocity": 0.47244094488188976,
                    "duration": 0.4394319999999965
                },
                {
                    "name": "A4",
                    "midi": 69,
                    "time": 56.24729600000015,
                    "velocity": 0.47244094488188976,
                    "duration": 0.21971599999999825
                },
                {
                    "name": "B4",
                    "midi": 71,
                    "time": 56.467012000000146,
                    "velocity": 0.41732283464566927,
                    "duration": 0.12084380000000294
                },
                {
                    "name": "C5",
                    "midi": 72,
                    "time": 56.57687000000015,
                    "velocity": 0.4251968503937008,
                    "duration": 0.12084380000000294
                },
                {
                    "name": "D5",
                    "midi": 74,
                    "time": 56.68672800000015,
                    "velocity": 0.4330708661417323,
                    "duration": 0.12084380000000294
                },
                {
                    "name": "E5",
                    "midi": 76,
                    "time": 56.796586000000154,
                    "velocity": 0.44881889763779526,
                    "duration": 0.12084380000000294
                },
                {
                    "name": "F5",
                    "midi": 77,
                    "time": 56.90644400000016,
                    "velocity": 0.4566929133858268,
                    "duration": 0.12084380000000294
                },
                {
                    "name": "G5",
                    "midi": 79,
                    "time": 57.01630200000016,
                    "velocity": 0.4645669291338583,
                    "duration": 0.12084380000000294
                },
                {
                    "name": "A5",
                    "midi": 81,
                    "time": 57.12616000000016,
                    "velocity": 0.4881889763779528,
                    "duration": 0.12084380000000294
                },
                {
                    "name": "G5",
                    "midi": 79,
                    "time": 57.236018000000165,
                    "velocity": 0.48031496062992124,
                    "duration": 0.12084380000000294
                },
                {
                    "name": "F5",
                    "midi": 77,
                    "time": 57.34587600000017,
                    "velocity": 0.47244094488188976,
                    "duration": 0.12084380000000294
                },
                {
                    "name": "E5",
                    "midi": 76,
                    "time": 57.45573400000017,
                    "velocity": 0.4645669291338583,
                    "duration": 0.12084380000000294
                },
                {
                    "name": "D5",
                    "midi": 74,
                    "time": 57.56559200000017,
                    "velocity": 0.4566929133858268,
                    "duration": 0.12084380000000294
                },
                {
                    "name": "C5",
                    "midi": 72,
                    "time": 57.675450000000176,
                    "velocity": 0.44881889763779526,
                    "duration": 0.12084380000000294
                },
                {
                    "name": "B4",
                    "midi": 71,
                    "time": 57.78530800000018,
                    "velocity": 0.4330708661417323,
                    "duration": 0.12084380000000294
                },
                {
                    "name": "A4",
                    "midi": 69,
                    "time": 57.89516600000018,
                    "velocity": 0.41732283464566927,
                    "duration": 0.12084380000000294
                },
                {
                    "name": "G4",
                    "midi": 67,
                    "time": 58.00502400000018,
                    "velocity": 0.47244094488188976,
                    "duration": 0.21971599999999825
                },
                {
                    "name": "A4",
                    "midi": 69,
                    "time": 58.22474000000018,
                    "velocity": 0.41732283464566927,
                    "duration": 0.12084380000000294
                },
                {
                    "name": "B4",
                    "midi": 71,
                    "time": 58.334598000000184,
                    "velocity": 0.4251968503937008,
                    "duration": 0.12084380000000294
                },
                {
                    "name": "C5",
                    "midi": 72,
                    "time": 58.44445600000019,
                    "velocity": 0.4330708661417323,
                    "duration": 0.12084380000000294
                },
                {
                    "name": "D5",
                    "midi": 74,
                    "time": 58.55431400000019,
                    "velocity": 0.44881889763779526,
                    "duration": 0.12084380000000294
                },
                {
                    "name": "E5",
                    "midi": 76,
                    "time": 58.66417200000019,
                    "velocity": 0.4566929133858268,
                    "duration": 0.12084380000000294
                },
                {
                    "name": "F5",
                    "midi": 77,
                    "time": 58.774030000000195,
                    "velocity": 0.4645669291338583,
                    "duration": 0.12084380000000294
                },
                {
                    "name": "G5",
                    "midi": 79,
                    "time": 58.8838880000002,
                    "velocity": 0.4881889763779528,
                    "duration": 0.12084380000000294
                },
                {
                    "name": "F5",
                    "midi": 77,
                    "time": 58.9937460000002,
                    "velocity": 0.48031496062992124,
                    "duration": 0.12084380000000294
                },
                {
                    "name": "E5",
                    "midi": 76,
                    "time": 59.1036040000002,
                    "velocity": 0.47244094488188976,
                    "duration": 0.12084380000000294
                },
                {
                    "name": "D5",
                    "midi": 74,
                    "time": 59.213462000000206,
                    "velocity": 0.4645669291338583,
                    "duration": 0.12084380000000294
                },
                {
                    "name": "C5",
                    "midi": 72,
                    "time": 59.32332000000021,
                    "velocity": 0.4566929133858268,
                    "duration": 0.12084380000000294
                },
                {
                    "name": "B4",
                    "midi": 71,
                    "time": 59.43317800000021,
                    "velocity": 0.44881889763779526,
                    "duration": 0.12084380000000294
                },
                {
                    "name": "A4",
                    "midi": 69,
                    "time": 59.543036000000214,
                    "velocity": 0.4330708661417323,
                    "duration": 0.12084380000000294
                },
                {
                    "name": "G4",
                    "midi": 67,
                    "time": 59.65289400000022,
                    "velocity": 0.41732283464566927,
                    "duration": 0.12084380000000294
                },
                {
                    "name": "F4",
                    "midi": 65,
                    "time": 59.76275200000022,
                    "velocity": 0.47244094488188976,
                    "duration": 0.21971599999999825
                },
                {
                    "name": "G4",
                    "midi": 67,
                    "time": 59.98246800000022,
                    "velocity": 0.41732283464566927,
                    "duration": 0.12084380000000294
                },
                {
                    "name": "A4",
                    "midi": 69,
                    "time": 60.09232600000022,
                    "velocity": 0.4251968503937008,
                    "duration": 0.12084380000000294
                },
                {
                    "name": "B4",
                    "midi": 71,
                    "time": 60.20218400000022,
                    "velocity": 0.4330708661417323,
                    "duration": 0.12084380000000294
                },
                {
                    "name": "C5",
                    "midi": 72,
                    "time": 60.312042000000226,
                    "velocity": 0.44881889763779526,
                    "duration": 0.12084380000000294
                },
                {
                    "name": "D5",
                    "midi": 74,
                    "time": 60.42190000000023,
                    "velocity": 0.4566929133858268,
                    "duration": 0.12084380000000294
                },
                {
                    "name": "E5",
                    "midi": 76,
                    "time": 60.53175800000023,
                    "velocity": 0.4645669291338583,
                    "duration": 0.12084380000000294
                },
                {
                    "name": "F5",
                    "midi": 77,
                    "time": 60.641616000000234,
                    "velocity": 0.4881889763779528,
                    "duration": 0.12084380000000294
                },
                {
                    "name": "E5",
                    "midi": 76,
                    "time": 60.751474000000236,
                    "velocity": 0.48031496062992124,
                    "duration": 0.12084380000000294
                },
                {
                    "name": "D5",
                    "midi": 74,
                    "time": 60.86133200000024,
                    "velocity": 0.47244094488188976,
                    "duration": 0.12084380000000294
                },
                {
                    "name": "C5",
                    "midi": 72,
                    "time": 60.97119000000024,
                    "velocity": 0.4645669291338583,
                    "duration": 0.12084380000000294
                },
                {
                    "name": "B4",
                    "midi": 71,
                    "time": 61.081048000000244,
                    "velocity": 0.4566929133858268,
                    "duration": 0.12084380000000294
                },
                {
                    "name": "A4",
                    "midi": 69,
                    "time": 61.19090600000025,
                    "velocity": 0.44881889763779526,
                    "duration": 0.12084380000000294
                },
                {
                    "name": "G4",
                    "midi": 67,
                    "time": 61.30076400000025,
                    "velocity": 0.4330708661417323,
                    "duration": 0.12084380000000294
                },
                {
                    "name": "F4",
                    "midi": 65,
                    "time": 61.41062200000025,
                    "velocity": 0.41732283464566927,
                    "duration": 0.12084380000000294
                },
                {
                    "name": "E4",
                    "midi": 64,
                    "time": 61.520480000000255,
                    "velocity": 0.47244094488188976,
                    "duration": 0.21971599999999825
                },
                {
                    "name": "F4",
                    "midi": 65,
                    "time": 61.74019600000025,
                    "velocity": 0.41732283464566927,
                    "duration": 0.12084380000000294
                },
                {
                    "name": "G4",
                    "midi": 67,
                    "time": 61.850054000000256,
                    "velocity": 0.4251968503937008,
                    "duration": 0.12084380000000294
                },
                {
                    "name": "A4",
                    "midi": 69,
                    "time": 61.95991200000026,
                    "velocity": 0.4330708661417323,
                    "duration": 0.12084380000000294
                },
                {
                    "name": "B4",
                    "midi": 71,
                    "time": 62.06977000000026,
                    "velocity": 0.44881889763779526,
                    "duration": 0.12084380000000294
                },
                {
                    "name": "C5",
                    "midi": 72,
                    "time": 62.179628000000264,
                    "velocity": 0.4566929133858268,
                    "duration": 0.12084380000000294
                },
                {
                    "name": "D5",
                    "midi": 74,
                    "time": 62.28948600000027,
                    "velocity": 0.4645669291338583,
                    "duration": 0.12084380000000294
                },
                {
                    "name": "E5",
                    "midi": 76,
                    "time": 62.39934400000027,
                    "velocity": 0.4881889763779528,
                    "duration": 0.12084380000000294
                },
                {
                    "name": "D5",
                    "midi": 74,
                    "time": 62.50920200000027,
                    "velocity": 0.48031496062992124,
                    "duration": 0.12084380000000294
                },
                {
                    "name": "C5",
                    "midi": 72,
                    "time": 62.619060000000275,
                    "velocity": 0.47244094488188976,
                    "duration": 0.12084380000000294
                },
                {
                    "name": "B4",
                    "midi": 71,
                    "time": 62.72891800000028,
                    "velocity": 0.4645669291338583,
                    "duration": 0.12084380000000294
                },
                {
                    "name": "A4",
                    "midi": 69,
                    "time": 62.83877600000028,
                    "velocity": 0.4566929133858268,
                    "duration": 0.12084380000000294
                },
                {
                    "name": "G4",
                    "midi": 67,
                    "time": 62.94863400000028,
                    "velocity": 0.44881889763779526,
                    "duration": 0.12084380000000294
                },
                {
                    "name": "F4",
                    "midi": 65,
                    "time": 63.058492000000285,
                    "velocity": 0.4330708661417323,
                    "duration": 0.12084380000000294
                },
                {
                    "name": "E4",
                    "midi": 64,
                    "time": 63.16835000000029,
                    "velocity": 0.41732283464566927,
                    "duration": 0.12084380000000294
                },
                {
                    "name": "D4",
                    "midi": 62,
                    "time": 63.27820800000029,
                    "velocity": 0.47244094488188976,
                    "duration": 0.21971599999999825
                },
                {
                    "name": "E4",
                    "midi": 64,
                    "time": 63.49792400000029,
                    "velocity": 0.41732283464566927,
                    "duration": 0.12084380000000294
                },
                {
                    "name": "F4",
                    "midi": 65,
                    "time": 63.60778200000029,
                    "velocity": 0.4251968503937008,
                    "duration": 0.12084380000000294
                },
                {
                    "name": "G4",
                    "midi": 67,
                    "time": 63.717640000000294,
                    "velocity": 0.4330708661417323,
                    "duration": 0.12084380000000294
                },
                {
                    "name": "A4",
                    "midi": 69,
                    "time": 63.8274980000003,
                    "velocity": 0.44881889763779526,
                    "duration": 0.12084380000000294
                },
                {
                    "name": "B4",
                    "midi": 71,
                    "time": 63.9373560000003,
                    "velocity": 0.4566929133858268,
                    "duration": 0.12084379999999584
                },
                {
                    "name": "C#5",
                    "midi": 73,
                    "time": 64.0472140000003,
                    "velocity": 0.4645669291338583,
                    "duration": 0.12084380000000294
                },
                {
                    "name": "D5",
                    "midi": 74,
                    "time": 64.1570720000003,
                    "velocity": 0.4881889763779528,
                    "duration": 0.10985800000000268
                },
                {
                    "name": "A4",
                    "midi": 69,
                    "time": 64.2669300000003,
                    "velocity": 0.4566929133858268,
                    "duration": 0.12084380000000294
                },
                {
                    "name": "B4",
                    "midi": 71,
                    "time": 64.3767880000003,
                    "velocity": 0.48031496062992124,
                    "duration": 0.12084380000000294
                },
                {
                    "name": "C#5",
                    "midi": 73,
                    "time": 64.4866460000003,
                    "velocity": 0.5039370078740157,
                    "duration": 0.12084380000000294
                },
                {
                    "name": "D5",
                    "midi": 74,
                    "time": 64.59650400000031,
                    "velocity": 0.5196850393700787,
                    "duration": 0.12084380000000294
                },
                {
                    "name": "E5",
                    "midi": 76,
                    "time": 64.70636200000031,
                    "velocity": 0.5275590551181102,
                    "duration": 0.12084380000000294
                },
                {
                    "name": "F5",
                    "midi": 77,
                    "time": 64.81622000000031,
                    "velocity": 0.5354330708661418,
                    "duration": 0.12084380000000294
                },
                {
                    "name": "G5",
                    "midi": 79,
                    "time": 64.92607800000032,
                    "velocity": 0.5433070866141733,
                    "duration": 0.12084380000000294
                },
                {
                    "name": "A5",
                    "midi": 81,
                    "time": 65.03593600000032,
                    "velocity": 0.5511811023622047,
                    "duration": 0.12084380000000294
                },
                {
                    "name": "B5",
                    "midi": 83,
                    "time": 65.14579400000032,
                    "velocity": 0.5433070866141733,
                    "duration": 0.12084380000000294
                },
                {
                    "name": "C6",
                    "midi": 84,
                    "time": 65.25565200000032,
                    "velocity": 0.5590551181102362,
                    "duration": 0.12084380000000294
                },
                {
                    "name": "B5",
                    "midi": 83,
                    "time": 65.36551000000033,
                    "velocity": 0.5433070866141733,
                    "duration": 0.12084380000000294
                },
                {
                    "name": "A5",
                    "midi": 81,
                    "time": 65.47536800000033,
                    "velocity": 0.5275590551181102,
                    "duration": 0.12084380000000294
                },
                {
                    "name": "G5",
                    "midi": 79,
                    "time": 65.58522600000033,
                    "velocity": 0.5118110236220472,
                    "duration": 0.12084380000000294
                },
                {
                    "name": "F5",
                    "midi": 77,
                    "time": 65.69508400000034,
                    "velocity": 0.49606299212598426,
                    "duration": 0.12084380000000294
                },
                {
                    "name": "E5",
                    "midi": 76,
                    "time": 65.80494200000034,
                    "velocity": 0.5196850393700787,
                    "duration": 0.10985800000000268
                },
                {
                    "name": "F5",
                    "midi": 77,
                    "time": 65.91480000000034,
                    "velocity": 0.5118110236220472,
                    "duration": 0.12084380000000294
                },
                {
                    "name": "G5",
                    "midi": 79,
                    "time": 66.02465800000034,
                    "velocity": 0.5196850393700787,
                    "duration": 0.12084380000000294
                },
                {
                    "name": "A5",
                    "midi": 81,
                    "time": 66.13451600000035,
                    "velocity": 0.5275590551181102,
                    "duration": 0.12084380000000294
                },
                {
                    "name": "G5",
                    "midi": 79,
                    "time": 66.24437400000035,
                    "velocity": 0.5275590551181102,
                    "duration": 0.12084380000000294
                },
                {
                    "name": "F5",
                    "midi": 77,
                    "time": 66.35423200000035,
                    "velocity": 0.5354330708661418,
                    "duration": 0.12084380000000294
                },
                {
                    "name": "E5",
                    "midi": 76,
                    "time": 66.46409000000035,
                    "velocity": 0.5590551181102362,
                    "duration": 0.12084380000000294
                },
                {
                    "name": "D5",
                    "midi": 74,
                    "time": 66.57394800000036,
                    "velocity": 0.5748031496062992,
                    "duration": 0.12084380000000294
                },
                {
                    "name": "C5",
                    "midi": 72,
                    "time": 66.68380600000036,
                    "velocity": 0.5984251968503937,
                    "duration": 0.12084380000000294
                },
                {
                    "name": "B4",
                    "midi": 71,
                    "time": 66.79366400000036,
                    "velocity": 0.6141732283464567,
                    "duration": 0.10985800000000268
                },
                {
                    "name": "G5",
                    "midi": 79,
                    "time": 67.01338000000037,
                    "velocity": 0.5590551181102362,
                    "duration": 0.10985800000000268
                },
                {
                    "name": "E5",
                    "midi": 76,
                    "time": 67.23309600000037,
                    "velocity": 0.5590551181102362,
                    "duration": 0.10985800000000268
                },
                {
                    "name": "C5",
                    "midi": 72,
                    "time": 67.45281200000038,
                    "velocity": 0.5590551181102362,
                    "duration": 0.10985800000000268
                },
                {
                    "name": "D5",
                    "midi": 74,
                    "time": 67.67252800000038,
                    "velocity": 0.6141732283464567,
                    "duration": 0.10985800000000268
                },
                {
                    "name": "G5",
                    "midi": 79,
                    "time": 67.89224400000039,
                    "velocity": 0.5590551181102362,
                    "duration": 0.10985800000000268
                },
                {
                    "name": "E5",
                    "midi": 76,
                    "time": 68.1119600000004,
                    "velocity": 0.5590551181102362,
                    "duration": 0.10985800000000268
                },
                {
                    "name": "C5",
                    "midi": 72,
                    "time": 68.3316760000004,
                    "velocity": 0.5590551181102362,
                    "duration": 0.10985800000000268
                },
                {
                    "name": "D5",
                    "midi": 74,
                    "time": 68.5513920000004,
                    "velocity": 0.6377952755905512,
                    "duration": 0.10985800000000268
                },
                {
                    "name": "B4",
                    "midi": 71,
                    "time": 68.9908240000004,
                    "velocity": 0.5590551181102362,
                    "duration": 0.10985800000000268
                },
                {
                    "name": "G5",
                    "midi": 79,
                    "time": 68.9908240000004,
                    "velocity": 0.5590551181102362,
                    "duration": 0.10985800000000268
                },
                {
                    "name": "D5",
                    "midi": 74,
                    "time": 68.9908240000004,
                    "velocity": 0.5590551181102362,
                    "duration": 0.10985800000000268
                },
                {
                    "name": "G4",
                    "midi": 67,
                    "time": 69.4302560000004,
                    "velocity": 0.6535433070866141,
                    "duration": 0.4394319999999965
                },
                {
                    "name": "D6",
                    "midi": 86,
                    "time": 72.06684800000039,
                    "velocity": 0.48031496062992124,
                    "duration": 0.21971600000000535
                },
                {
                    "name": "B5",
                    "midi": 83,
                    "time": 72.2865640000004,
                    "velocity": 0.4330708661417323,
                    "duration": 0.21971600000000535
                },
                {
                    "name": "G5",
                    "midi": 79,
                    "time": 72.5062800000004,
                    "velocity": 0.48031496062992124,
                    "duration": 0.6591480000000018
                },
                {
                    "name": "A5",
                    "midi": 81,
                    "time": 73.1654280000004,
                    "velocity": 0.41732283464566927,
                    "duration": 0.10985800000000268
                },
                {
                    "name": "B5",
                    "midi": 83,
                    "time": 73.2752860000004,
                    "velocity": 0.4015748031496063,
                    "duration": 0.10985800000000268
                },
                {
                    "name": "A5",
                    "midi": 81,
                    "time": 73.38514400000041,
                    "velocity": 0.4330708661417323,
                    "duration": 0.21971600000000535
                },
                {
                    "name": "G5",
                    "midi": 79,
                    "time": 73.60486000000041,
                    "velocity": 0.41732283464566927,
                    "duration": 0.10985800000000268
                },
                {
                    "name": "G5",
                    "midi": 79,
                    "time": 73.82457600000042,
                    "velocity": 0.4330708661417323,
                    "duration": 0.05492900000000134
                },
                {
                    "name": "A5",
                    "midi": 81,
                    "time": 73.87950500000042,
                    "velocity": 0.4015748031496063,
                    "duration": 0.05492900000000134
                },
                {
                    "name": "G5",
                    "midi": 79,
                    "time": 73.93443400000042,
                    "velocity": 0.4409448818897638,
                    "duration": 0.05492900000000134
                },
                {
                    "name": "A5",
                    "midi": 81,
                    "time": 73.98936300000042,
                    "velocity": 0.4015748031496063,
                    "duration": 0.05492900000000134
                },
                {
                    "name": "G5",
                    "midi": 79,
                    "time": 74.04429200000042,
                    "velocity": 0.4566929133858268,
                    "duration": 0.10985800000000268
                },
                {
                    "name": "F#5",
                    "midi": 78,
                    "time": 74.15415000000043,
                    "velocity": 0.4094488188976378,
                    "duration": 0.10070316666666201
                },
                {
                    "name": "F#5",
                    "midi": 78,
                    "time": 74.26400800000042,
                    "velocity": 0.4566929133858268,
                    "duration": 0.4394319999999965
                },
                {
                    "name": "D6",
                    "midi": 86,
                    "time": 75.5823040000004,
                    "velocity": 0.48031496062992124,
                    "duration": 0.21971600000000535
                },
                {
                    "name": "B5",
                    "midi": 83,
                    "time": 75.80202000000041,
                    "velocity": 0.4330708661417323,
                    "duration": 0.21971600000000535
                },
                {
                    "name": "G5",
                    "midi": 79,
                    "time": 76.02173600000042,
                    "velocity": 0.48031496062992124,
                    "duration": 0.6591480000000018
                },
                {
                    "name": "A5",
                    "midi": 81,
                    "time": 76.68088400000042,
                    "velocity": 0.41732283464566927,
                    "duration": 0.10985800000000268
                },
                {
                    "name": "B5",
                    "midi": 83,
                    "time": 76.79074200000042,
                    "velocity": 0.4015748031496063,
                    "duration": 0.10985800000000268
                },
                {
                    "name": "A5",
                    "midi": 81,
                    "time": 76.90060000000042,
                    "velocity": 0.4330708661417323,
                    "duration": 0.21971600000000535
                },
                {
                    "name": "G5",
                    "midi": 79,
                    "time": 77.12031600000043,
                    "velocity": 0.41732283464566927,
                    "duration": 0.10985800000000268
                },
                {
                    "name": "G5",
                    "midi": 79,
                    "time": 77.34003200000043,
                    "velocity": 0.4330708661417323,
                    "duration": 0.05492900000000134
                },
                {
                    "name": "A5",
                    "midi": 81,
                    "time": 77.39496100000044,
                    "velocity": 0.4015748031496063,
                    "duration": 0.05492900000000134
                },
                {
                    "name": "G5",
                    "midi": 79,
                    "time": 77.44989000000044,
                    "velocity": 0.4409448818897638,
                    "duration": 0.05492900000000134
                },
                {
                    "name": "A5",
                    "midi": 81,
                    "time": 77.50481900000044,
                    "velocity": 0.3937007874015748,
                    "duration": 0.05492900000000134
                },
                {
                    "name": "G5",
                    "midi": 79,
                    "time": 77.55974800000044,
                    "velocity": 0.4330708661417323,
                    "duration": 0.10985800000000268
                },
                {
                    "name": "F#5",
                    "midi": 78,
                    "time": 77.66960600000044,
                    "velocity": 0.4094488188976378,
                    "duration": 0.0823934999999949
                },
                {
                    "name": "F#5",
                    "midi": 78,
                    "time": 77.77946400000043,
                    "velocity": 0.4566929133858268,
                    "duration": 0.4394319999999965
                },
                {
                    "name": "D6",
                    "midi": 86,
                    "time": 79.09776000000042,
                    "velocity": 0.5433070866141733,
                    "duration": 0.4394319999999965
                },
                {
                    "name": "D6",
                    "midi": 86,
                    "time": 79.64705000000042,
                    "velocity": 0.48031496062992124,
                    "duration": 0.10985800000000268
                },
                {
                    "name": "B5",
                    "midi": 83,
                    "time": 79.75690800000042,
                    "velocity": 0.5196850393700787,
                    "duration": 0.10985800000000268
                },
                {
                    "name": "G5",
                    "midi": 79,
                    "time": 79.86676600000042,
                    "velocity": 0.48031496062992124,
                    "duration": 0.10985800000000268
                },
                {
                    "name": "E5",
                    "midi": 76,
                    "time": 79.97662400000043,
                    "velocity": 0.5354330708661418,
                    "duration": 0.4394319999999965
                },
                {
                    "name": "E5",
                    "midi": 76,
                    "time": 80.52591400000043,
                    "velocity": 0.48031496062992124,
                    "duration": 0.10985800000000268
                },
                {
                    "name": "G5",
                    "midi": 79,
                    "time": 80.63577200000043,
                    "velocity": 0.5196850393700787,
                    "duration": 0.10985800000000268
                },
                {
                    "name": "E5",
                    "midi": 76,
                    "time": 80.74563000000043,
                    "velocity": 0.48031496062992124,
                    "duration": 0.10985800000000268
                },
                {
                    "name": "C6",
                    "midi": 84,
                    "time": 80.85548800000043,
                    "velocity": 0.5433070866141733,
                    "duration": 0.4394319999999965
                },
                {
                    "name": "C6",
                    "midi": 84,
                    "time": 81.40477800000043,
                    "velocity": 0.48031496062992124,
                    "duration": 0.10985800000000268
                },
                {
                    "name": "A5",
                    "midi": 81,
                    "time": 81.51463600000044,
                    "velocity": 0.5196850393700787,
                    "duration": 0.10985800000000268
                },
                {
                    "name": "F#5",
                    "midi": 78,
                    "time": 81.62449400000044,
                    "velocity": 0.48031496062992124,
                    "duration": 0.10985800000000268
                },
                {
                    "name": "D5",
                    "midi": 74,
                    "time": 81.73435200000044,
                    "velocity": 0.5354330708661418,
                    "duration": 0.4394319999999965
                },
                {
                    "name": "D5",
                    "midi": 74,
                    "time": 82.28364200000044,
                    "velocity": 0.48031496062992124,
                    "duration": 0.10985800000000268
                },
                {
                    "name": "F#5",
                    "midi": 78,
                    "time": 82.39350000000044,
                    "velocity": 0.5196850393700787,
                    "duration": 0.10985800000000268
                },
                {
                    "name": "D5",
                    "midi": 74,
                    "time": 82.50335800000045,
                    "velocity": 0.48031496062992124,
                    "duration": 0.10985800000000268
                },
                {
                    "name": "B5",
                    "midi": 83,
                    "time": 82.61321600000045,
                    "velocity": 0.5354330708661418,
                    "duration": 0.4394319999999965
                },
                {
                    "name": "B5",
                    "midi": 83,
                    "time": 83.16250600000045,
                    "velocity": 0.48031496062992124,
                    "duration": 0.10985800000000268
                },
                {
                    "name": "G5",
                    "midi": 79,
                    "time": 83.27236400000045,
                    "velocity": 0.5196850393700787,
                    "duration": 0.10985800000000268
                },
                {
                    "name": "E5",
                    "midi": 76,
                    "time": 83.38222200000045,
                    "velocity": 0.48031496062992124,
                    "duration": 0.10985800000000268
                },
                {
                    "name": "C5",
                    "midi": 72,
                    "time": 83.49208000000046,
                    "velocity": 0.5354330708661418,
                    "duration": 0.4394319999999965
                },
                {
                    "name": "C5",
                    "midi": 72,
                    "time": 84.04137000000046,
                    "velocity": 0.48031496062992124,
                    "duration": 0.10985800000000268
                },
                {
                    "name": "E5",
                    "midi": 76,
                    "time": 84.15122800000046,
                    "velocity": 0.5196850393700787,
                    "duration": 0.10985800000000268
                },
                {
                    "name": "C5",
                    "midi": 72,
                    "time": 84.26108600000046,
                    "velocity": 0.48031496062992124,
                    "duration": 0.10985800000000268
                },
                {
                    "name": "A5",
                    "midi": 81,
                    "time": 84.37094400000046,
                    "velocity": 0.5354330708661418,
                    "duration": 0.4394319999999965
                },
                {
                    "name": "A5",
                    "midi": 81,
                    "time": 84.92023400000046,
                    "velocity": 0.48031496062992124,
                    "duration": 0.10985800000000268
                },
                {
                    "name": "F#5",
                    "midi": 78,
                    "time": 85.03009200000047,
                    "velocity": 0.5196850393700787,
                    "duration": 0.10985800000000268
                },
                {
                    "name": "C5",
                    "midi": 72,
                    "time": 85.13995000000047,
                    "velocity": 0.48031496062992124,
                    "duration": 0.10985800000000268
                },
                {
                    "name": "B4",
                    "midi": 71,
                    "time": 85.24980800000047,
                    "velocity": 0.5354330708661418,
                    "duration": 0.4394319999999965
                },
                {
                    "name": "G5",
                    "midi": 79,
                    "time": 85.79909800000047,
                    "velocity": 0.48031496062992124,
                    "duration": 0.10985800000000268
                },
                {
                    "name": "D5",
                    "midi": 74,
                    "time": 85.90895600000047,
                    "velocity": 0.5196850393700787,
                    "duration": 0.10985800000000268
                },
                {
                    "name": "B4",
                    "midi": 71,
                    "time": 86.01881400000048,
                    "velocity": 0.48031496062992124,
                    "duration": 0.10985800000000268
                },
                {
                    "name": "A4",
                    "midi": 69,
                    "time": 86.12867200000048,
                    "velocity": 0.5196850393700787,
                    "duration": 0.8239350000000059
                },
                {
                    "name": "B4",
                    "midi": 71,
                    "time": 86.95260700000048,
                    "velocity": 0.5039370078740157,
                    "duration": 0.05492900000000134
                },
                {
                    "name": "C5",
                    "midi": 72,
                    "time": 87.00753600000048,
                    "velocity": 0.5433070866141733,
                    "duration": 0.38450299999999515
                },
                {
                    "name": "D#5",
                    "midi": 75,
                    "time": 87.39203900000048,
                    "velocity": 0.5118110236220472,
                    "duration": 0.05492900000000134
                },
                {
                    "name": "E5",
                    "midi": 76,
                    "time": 87.44696800000048,
                    "velocity": 0.5669291338582677,
                    "duration": 0.38450299999999515
                },
                {
                    "name": "G#5",
                    "midi": 80,
                    "time": 87.83147100000048,
                    "velocity": 0.5118110236220472,
                    "duration": 0.05492900000000134
                },
                {
                    "name": "A5",
                    "midi": 81,
                    "time": 87.88640000000048,
                    "velocity": 0.5590551181102362,
                    "duration": 0.6591480000000018
                },
                {
                    "name": "B5",
                    "midi": 83,
                    "time": 88.54554800000048,
                    "velocity": 0.5196850393700787,
                    "duration": 0.05492900000000134
                },
                {
                    "name": "A5",
                    "midi": 81,
                    "time": 88.60047700000048,
                    "velocity": 0.5196850393700787,
                    "duration": 0.05492900000000134
                },
                {
                    "name": "G#5",
                    "midi": 80,
                    "time": 88.65540600000048,
                    "velocity": 0.5196850393700787,
                    "duration": 0.05492900000000134
                },
                {
                    "name": "A5",
                    "midi": 81,
                    "time": 88.71033500000048,
                    "velocity": 0.5196850393700787,
                    "duration": 0.05492900000000134
                },
                {
                    "name": "C6",
                    "midi": 84,
                    "time": 88.76526400000049,
                    "velocity": 0.5826771653543307,
                    "duration": 0.21971600000000535
                },
                {
                    "name": "A5",
                    "midi": 81,
                    "time": 88.98498000000049,
                    "velocity": 0.5354330708661418,
                    "duration": 0.21971600000000535
                },
                {
                    "name": "C6",
                    "midi": 84,
                    "time": 89.2046960000005,
                    "velocity": 0.5905511811023622,
                    "duration": 0.21971600000000535
                },
                {
                    "name": "A5",
                    "midi": 81,
                    "time": 89.4244120000005,
                    "velocity": 0.5433070866141733,
                    "duration": 0.21971600000000535
                },
                {
                    "name": "B5",
                    "midi": 83,
                    "time": 89.6441280000005,
                    "velocity": 0.6141732283464567,
                    "duration": 0.21971600000000535
                },
                {
                    "name": "G5",
                    "midi": 79,
                    "time": 89.86384400000051,
                    "velocity": 0.5748031496062992,
                    "duration": 0.21971600000000535
                },
                {
                    "name": "D6",
                    "midi": 86,
                    "time": 90.08356000000052,
                    "velocity": 0.6220472440944882,
                    "duration": 0.878863999999993
                },
                {
                    "name": "C6",
                    "midi": 84,
                    "time": 90.96242400000051,
                    "velocity": 0.5511811023622047,
                    "duration": 0.10985800000000268
                },
                {
                    "name": "B5",
                    "midi": 83,
                    "time": 91.07228200000051,
                    "velocity": 0.5354330708661418,
                    "duration": 0.10985800000000268
                },
                {
                    "name": "A5",
                    "midi": 81,
                    "time": 91.18214000000052,
                    "velocity": 0.5275590551181102,
                    "duration": 0.10985800000000268
                },
                {
                    "name": "G5",
                    "midi": 79,
                    "time": 91.29199800000052,
                    "velocity": 0.5118110236220472,
                    "duration": 0.10985800000000268
                },
                {
                    "name": "A5",
                    "midi": 81,
                    "time": 91.40185600000052,
                    "velocity": 0.3858267716535433,
                    "duration": 0.05492900000000134
                },
                {
                    "name": "B5",
                    "midi": 83,
                    "time": 91.45678500000052,
                    "velocity": 0.2992125984251969,
                    "duration": 0.05492900000000134
                },
                {
                    "name": "A5",
                    "midi": 81,
                    "time": 91.51171400000052,
                    "velocity": 0.3858267716535433,
                    "duration": 0.05492900000000134
                },
                {
                    "name": "B5",
                    "midi": 83,
                    "time": 91.56664300000052,
                    "velocity": 0.31496062992125984,
                    "duration": 0.05492900000000134
                },
                {
                    "name": "A5",
                    "midi": 81,
                    "time": 91.62157200000053,
                    "velocity": 0.3937007874015748,
                    "duration": 0.05492900000000134
                },
                {
                    "name": "B5",
                    "midi": 83,
                    "time": 91.67650100000053,
                    "velocity": 0.31496062992125984,
                    "duration": 0.05492900000000134
                },
                {
                    "name": "A5",
                    "midi": 81,
                    "time": 91.73143000000053,
                    "velocity": 0.3937007874015748,
                    "duration": 0.05492900000000134
                },
                {
                    "name": "B5",
                    "midi": 83,
                    "time": 91.78635900000053,
                    "velocity": 0.31496062992125984,
                    "duration": 0.05492900000000134
                },
                {
                    "name": "A5",
                    "midi": 81,
                    "time": 91.84128800000053,
                    "velocity": 0.4094488188976378,
                    "duration": 0.05492900000000134
                },
                {
                    "name": "B5",
                    "midi": 83,
                    "time": 91.89621700000053,
                    "velocity": 0.31496062992125984,
                    "duration": 0.05492900000000134
                },
                {
                    "name": "A5",
                    "midi": 81,
                    "time": 91.95114600000053,
                    "velocity": 0.4094488188976378,
                    "duration": 0.05492900000000134
                },
                {
                    "name": "B5",
                    "midi": 83,
                    "time": 92.00607500000054,
                    "velocity": 0.3228346456692913,
                    "duration": 0.05492900000000134
                },
                {
                    "name": "A5",
                    "midi": 81,
                    "time": 92.06100400000054,
                    "velocity": 0.41732283464566927,
                    "duration": 0.05492900000000134
                },
                {
                    "name": "B5",
                    "midi": 83,
                    "time": 92.11593300000054,
                    "velocity": 0.3228346456692913,
                    "duration": 0.05492900000000134
                },
                {
                    "name": "A5",
                    "midi": 81,
                    "time": 92.17086200000054,
                    "velocity": 0.41732283464566927,
                    "duration": 0.05492900000000134
                },
                {
                    "name": "B5",
                    "midi": 83,
                    "time": 92.22579100000054,
                    "velocity": 0.33070866141732286,
                    "duration": 0.05492900000000134
                },
                {
                    "name": "A5",
                    "midi": 81,
                    "time": 92.28072000000054,
                    "velocity": 0.4251968503937008,
                    "duration": 0.05492900000000134
                },
                {
                    "name": "B5",
                    "midi": 83,
                    "time": 92.33564900000054,
                    "velocity": 0.33858267716535434,
                    "duration": 0.05492900000000134
                },
                {
                    "name": "A5",
                    "midi": 81,
                    "time": 92.39057800000054,
                    "velocity": 0.4251968503937008,
                    "duration": 0.05492900000000134
                },
                {
                    "name": "B5",
                    "midi": 83,
                    "time": 92.44550700000055,
                    "velocity": 0.3543307086614173,
                    "duration": 0.05492900000000134
                },
                {
                    "name": "A5",
                    "midi": 81,
                    "time": 92.50043600000055,
                    "velocity": 0.4251968503937008,
                    "duration": 0.05492900000000134
                },
                {
                    "name": "B5",
                    "midi": 83,
                    "time": 92.55536500000055,
                    "velocity": 0.3464566929133858,
                    "duration": 0.05492900000000134
                },
                {
                    "name": "A5",
                    "midi": 81,
                    "time": 92.61029400000055,
                    "velocity": 0.4251968503937008,
                    "duration": 0.05492900000000134
                },
                {
                    "name": "B5",
                    "midi": 83,
                    "time": 92.66522300000055,
                    "velocity": 0.3464566929133858,
                    "duration": 0.05492900000000134
                },
                {
                    "name": "A5",
                    "midi": 81,
                    "time": 92.72015200000055,
                    "velocity": 0.41732283464566927,
                    "duration": 0.05492900000000134
                },
                {
                    "name": "B5",
                    "midi": 83,
                    "time": 92.77508100000055,
                    "velocity": 0.3543307086614173,
                    "duration": 0.05492900000000134
                },
                {
                    "name": "A5",
                    "midi": 81,
                    "time": 92.83001000000056,
                    "velocity": 0.41732283464566927,
                    "duration": 0.05492900000000134
                },
                {
                    "name": "B5",
                    "midi": 83,
                    "time": 92.88493900000056,
                    "velocity": 0.33070866141732286,
                    "duration": 0.05492900000000134
                },
                {
                    "name": "A5",
                    "midi": 81,
                    "time": 92.93986800000056,
                    "velocity": 0.41732283464566927,
                    "duration": 0.07323866666666845
                },
                {
                    "name": "G5",
                    "midi": 79,
                    "time": 93.01310666666723,
                    "velocity": 0.4645669291338583,
                    "duration": 0.07323866666666845
                },
                {
                    "name": "A5",
                    "midi": 81,
                    "time": 93.0863453333339,
                    "velocity": 0.4566929133858268,
                    "duration": 0.07323866666666845
                },
                {
                    "name": "G5",
                    "midi": 79,
                    "time": 93.15958400000056,
                    "velocity": 0.5433070866141733,
                    "duration": 0.4394319999999965
                },
                {
                    "name": "G5",
                    "midi": 79,
                    "time": 93.59901600000056,
                    "velocity": 0.5275590551181102,
                    "duration": 0.10985800000000268
                },
                {
                    "name": "D5",
                    "midi": 74,
                    "time": 93.70887400000056,
                    "velocity": 0.4645669291338583,
                    "duration": 0.10985800000000268
                },
                {
                    "name": "G5",
                    "midi": 79,
                    "time": 93.81873200000057,
                    "velocity": 0.4881889763779528,
                    "duration": 0.10985800000000268
                },
                {
                    "name": "B5",
                    "midi": 83,
                    "time": 93.92859000000057,
                    "velocity": 0.5118110236220472,
                    "duration": 0.10985800000000268
                },
                {
                    "name": "D6",
                    "midi": 86,
                    "time": 94.03844800000057,
                    "velocity": 0.5354330708661418,
                    "duration": 0.10985800000000268
                },
                {
                    "name": "B5",
                    "midi": 83,
                    "time": 94.14830600000057,
                    "velocity": 0.49606299212598426,
                    "duration": 0.10985800000000268
                },
                {
                    "name": "G5",
                    "midi": 79,
                    "time": 94.25816400000058,
                    "velocity": 0.5354330708661418,
                    "duration": 0.10985800000000268
                },
                {
                    "name": "B5",
                    "midi": 83,
                    "time": 94.36802200000058,
                    "velocity": 0.49606299212598426,
                    "duration": 0.10985800000000268
                },
                {
                    "name": "C6",
                    "midi": 84,
                    "time": 94.47788000000058,
                    "velocity": 0.5433070866141733,
                    "duration": 0.10985800000000268
                },
                {
                    "name": "A5",
                    "midi": 81,
                    "time": 94.58773800000058,
                    "velocity": 0.49606299212598426,
                    "duration": 0.10985800000000268
                },
                {
                    "name": "F#5",
                    "midi": 78,
                    "time": 94.69759600000059,
                    "velocity": 0.5433070866141733,
                    "duration": 0.10985800000000268
                },
                {
                    "name": "A5",
                    "midi": 81,
                    "time": 94.80745400000059,
                    "velocity": 0.49606299212598426,
                    "duration": 0.10985800000000268
                },
                {
                    "name": "G5",
                    "midi": 79,
                    "time": 94.91731200000059,
                    "velocity": 0.5433070866141733,
                    "duration": 0.4394319999999965
                },
                {
                    "name": "G4",
                    "midi": 67,
                    "time": 95.35674400000059,
                    "velocity": 0.5275590551181102,
                    "duration": 0.10985800000000268
                },
                {
                    "name": "D4",
                    "midi": 62,
                    "time": 95.46660200000059,
                    "velocity": 0.4645669291338583,
                    "duration": 0.10985800000000268
                },
                {
                    "name": "G4",
                    "midi": 67,
                    "time": 95.5764600000006,
                    "velocity": 0.4881889763779528,
                    "duration": 0.10985800000000268
                },
                {
                    "name": "B4",
                    "midi": 71,
                    "time": 95.6863180000006,
                    "velocity": 0.5118110236220472,
                    "duration": 0.10985800000000268
                },
                {
                    "name": "D5",
                    "midi": 74,
                    "time": 95.7961760000006,
                    "velocity": 0.5354330708661418,
                    "duration": 0.10985800000000268
                },
                {
                    "name": "B4",
                    "midi": 71,
                    "time": 95.9060340000006,
                    "velocity": 0.49606299212598426,
                    "duration": 0.10985800000000268
                },
                {
                    "name": "G4",
                    "midi": 67,
                    "time": 96.0158920000006,
                    "velocity": 0.5354330708661418,
                    "duration": 0.10985800000000268
                },
                {
                    "name": "B4",
                    "midi": 71,
                    "time": 96.12575000000061,
                    "velocity": 0.49606299212598426,
                    "duration": 0.10985800000000268
                },
                {
                    "name": "C5",
                    "midi": 72,
                    "time": 96.23560800000061,
                    "velocity": 0.5433070866141733,
                    "duration": 0.10985800000000268
                },
                {
                    "name": "A4",
                    "midi": 69,
                    "time": 96.34546600000061,
                    "velocity": 0.49606299212598426,
                    "duration": 0.10985800000000268
                },
                {
                    "name": "F#4",
                    "midi": 66,
                    "time": 96.45532400000062,
                    "velocity": 0.5433070866141733,
                    "duration": 0.10985800000000268
                },
                {
                    "name": "A4",
                    "midi": 69,
                    "time": 96.56518200000062,
                    "velocity": 0.49606299212598426,
                    "duration": 0.10985800000000268
                },
                {
                    "name": "G4",
                    "midi": 67,
                    "time": 96.67504000000062,
                    "velocity": 0.5826771653543307,
                    "duration": 0.10985800000000268
                },
                {
                    "name": "D5",
                    "midi": 74,
                    "time": 97.11447200000062,
                    "velocity": 0.5118110236220472,
                    "duration": 0.10985800000000268
                },
                {
                    "name": "B5",
                    "midi": 83,
                    "time": 97.11447200000062,
                    "velocity": 0.6062992125984252,
                    "duration": 0.10985800000000268
                },
                {
                    "name": "B4",
                    "midi": 71,
                    "time": 97.55390400000061,
                    "velocity": 0.4881889763779528,
                    "duration": 0.4394319999999965
                },
                {
                    "name": "G5",
                    "midi": 79,
                    "time": 97.55390400000061,
                    "velocity": 0.5826771653543307,
                    "duration": 0.4394319999999965
                },
                {
                    "name": "G4",
                    "midi": 67,
                    "time": 98.4327680000006,
                    "velocity": 0.5433070866141733,
                    "duration": 0.4394319999999965
                },
                {
                    "name": "G5",
                    "midi": 79,
                    "time": 98.8722000000006,
                    "velocity": 0.5275590551181102,
                    "duration": 0.10985800000000268
                },
                {
                    "name": "D5",
                    "midi": 74,
                    "time": 98.9820580000006,
                    "velocity": 0.4645669291338583,
                    "duration": 0.10985800000000268
                },
                {
                    "name": "G5",
                    "midi": 79,
                    "time": 99.09191600000061,
                    "velocity": 0.4881889763779528,
                    "duration": 0.10985800000000268
                },
                {
                    "name": "A#5",
                    "midi": 82,
                    "time": 99.20177400000061,
                    "velocity": 0.5118110236220472,
                    "duration": 0.10985800000000268
                },
                {
                    "name": "D6",
                    "midi": 86,
                    "time": 99.31163200000061,
                    "velocity": 0.5354330708661418,
                    "duration": 0.10985800000000268
                },
                {
                    "name": "A#5",
                    "midi": 82,
                    "time": 99.42149000000062,
                    "velocity": 0.49606299212598426,
                    "duration": 0.10985800000000268
                },
                {
                    "name": "G5",
                    "midi": 79,
                    "time": 99.53134800000062,
                    "velocity": 0.5354330708661418,
                    "duration": 0.10985800000000268
                },
                {
                    "name": "A#5",
                    "midi": 82,
                    "time": 99.64120600000062,
                    "velocity": 0.49606299212598426,
                    "duration": 0.10985800000000268
                },
                {
                    "name": "C6",
                    "midi": 84,
                    "time": 99.75106400000062,
                    "velocity": 0.5433070866141733,
                    "duration": 0.10985800000000268
                },
                {
                    "name": "A5",
                    "midi": 81,
                    "time": 99.86092200000063,
                    "velocity": 0.49606299212598426,
                    "duration": 0.10985800000000268
                },
                {
                    "name": "F#5",
                    "midi": 78,
                    "time": 99.97078000000063,
                    "velocity": 0.5433070866141733,
                    "duration": 0.10985800000000268
                },
                {
                    "name": "A5",
                    "midi": 81,
                    "time": 100.08063800000063,
                    "velocity": 0.49606299212598426,
                    "duration": 0.10985800000000268
                },
                {
                    "name": "G5",
                    "midi": 79,
                    "time": 100.19049600000064,
                    "velocity": 0.5433070866141733,
                    "duration": 0.4394319999999965
                },
                {
                    "name": "G4",
                    "midi": 67,
                    "time": 100.62992800000063,
                    "velocity": 0.5275590551181102,
                    "duration": 0.10985800000000268
                },
                {
                    "name": "D4",
                    "midi": 62,
                    "time": 100.73978600000063,
                    "velocity": 0.4645669291338583,
                    "duration": 0.10985800000000268
                },
                {
                    "name": "G4",
                    "midi": 67,
                    "time": 100.84964400000064,
                    "velocity": 0.4881889763779528,
                    "duration": 0.10985800000000268
                },
                {
                    "name": "A#4",
                    "midi": 70,
                    "time": 100.95950200000064,
                    "velocity": 0.5118110236220472,
                    "duration": 0.10985800000000268
                },
                {
                    "name": "D5",
                    "midi": 74,
                    "time": 101.06936000000064,
                    "velocity": 0.5354330708661418,
                    "duration": 0.10985800000000268
                },
                {
                    "name": "A#4",
                    "midi": 70,
                    "time": 101.17921800000065,
                    "velocity": 0.49606299212598426,
                    "duration": 0.10985800000000268
                },
                {
                    "name": "G4",
                    "midi": 67,
                    "time": 101.28907600000065,
                    "velocity": 0.5354330708661418,
                    "duration": 0.10985800000000268
                },
                {
                    "name": "A#4",
                    "midi": 70,
                    "time": 101.39893400000065,
                    "velocity": 0.49606299212598426,
                    "duration": 0.10985800000000268
                },
                {
                    "name": "C5",
                    "midi": 72,
                    "time": 101.50879200000065,
                    "velocity": 0.5433070866141733,
                    "duration": 0.10985800000000268
                },
                {
                    "name": "A4",
                    "midi": 69,
                    "time": 101.61865000000066,
                    "velocity": 0.49606299212598426,
                    "duration": 0.10985800000000268
                },
                {
                    "name": "F#4",
                    "midi": 66,
                    "time": 101.72850800000066,
                    "velocity": 0.5433070866141733,
                    "duration": 0.10985800000000268
                },
                {
                    "name": "A4",
                    "midi": 69,
                    "time": 101.83836600000066,
                    "velocity": 0.49606299212598426,
                    "duration": 0.10985800000000268
                },
                {
                    "name": "G4",
                    "midi": 67,
                    "time": 101.94822400000066,
                    "velocity": 0.5826771653543307,
                    "duration": 0.4394319999999965
                },
                {
                    "name": "G5",
                    "midi": 79,
                    "time": 102.93694600000066,
                    "velocity": 0.5354330708661418,
                    "duration": 0.12084380000000294
                },
                {
                    "name": "A#5",
                    "midi": 82,
                    "time": 103.04680400000066,
                    "velocity": 0.5669291338582677,
                    "duration": 0.12084380000000294
                },
                {
                    "name": "A5",
                    "midi": 81,
                    "time": 103.15666200000067,
                    "velocity": 0.5511811023622047,
                    "duration": 0.12084380000000294
                },
                {
                    "name": "G5",
                    "midi": 79,
                    "time": 103.26652000000067,
                    "velocity": 0.5354330708661418,
                    "duration": 0.12084380000000294
                },
                {
                    "name": "F5",
                    "midi": 77,
                    "time": 103.37637800000067,
                    "velocity": 0.5275590551181102,
                    "duration": 0.12084380000000294
                },
                {
                    "name": "E5",
                    "midi": 76,
                    "time": 103.48623600000067,
                    "velocity": 0.5118110236220472,
                    "duration": 0.12084380000000294
                },
                {
                    "name": "D5",
                    "midi": 74,
                    "time": 103.59609400000068,
                    "velocity": 0.5039370078740157,
                    "duration": 0.12084380000000294
                },
                {
                    "name": "C#5",
                    "midi": 73,
                    "time": 103.70595200000068,
                    "velocity": 0.5511811023622047,
                    "duration": 0.4394319999999965
                },
                {
                    "name": "C#6",
                    "midi": 85,
                    "time": 104.69467400000067,
                    "velocity": 0.5905511811023622,
                    "duration": 0.12084380000000294
                },
                {
                    "name": "E6",
                    "midi": 88,
                    "time": 104.80453200000068,
                    "velocity": 0.6220472440944882,
                    "duration": 0.12084380000000294
                },
                {
                    "name": "D6",
                    "midi": 86,
                    "time": 104.91439000000068,
                    "velocity": 0.6062992125984252,
                    "duration": 0.12084380000000294
                },
                {
                    "name": "C#6",
                    "midi": 85,
                    "time": 105.02424800000068,
                    "velocity": 0.5826771653543307,
                    "duration": 0.12084380000000294
                },
                {
                    "name": "A#5",
                    "midi": 82,
                    "time": 105.13410600000068,
                    "velocity": 0.5669291338582677,
                    "duration": 0.12084380000000294
                },
                {
                    "name": "A5",
                    "midi": 81,
                    "time": 105.24396400000069,
                    "velocity": 0.5511811023622047,
                    "duration": 0.12084380000000294
                },
                {
                    "name": "G5",
                    "midi": 79,
                    "time": 105.35382200000069,
                    "velocity": 0.5669291338582677,
                    "duration": 0.12084380000000294
                },
                {
                    "name": "F5",
                    "midi": 77,
                    "time": 105.46368000000069,
                    "velocity": 0.6692913385826772,
                    "duration": 0.4394319999999965
                },
                {
                    "name": "D5",
                    "midi": 74,
                    "time": 105.90311200000069,
                    "velocity": 0.5748031496062992,
                    "duration": 0.10985800000000268
                },
                {
                    "name": "A4",
                    "midi": 69,
                    "time": 106.01297000000069,
                    "velocity": 0.5039370078740157,
                    "duration": 0.10985800000000268
                },
                {
                    "name": "D5",
                    "midi": 74,
                    "time": 106.1228280000007,
                    "velocity": 0.5354330708661418,
                    "duration": 0.10985800000000268
                },
                {
                    "name": "F5",
                    "midi": 77,
                    "time": 106.2326860000007,
                    "velocity": 0.5590551181102362,
                    "duration": 0.10985800000000268
                },
                {
                    "name": "A5",
                    "midi": 81,
                    "time": 106.3425440000007,
                    "velocity": 0.5826771653543307,
                    "duration": 0.10985800000000268
                },
                {
                    "name": "F5",
                    "midi": 77,
                    "time": 106.4524020000007,
                    "velocity": 0.5433070866141733,
                    "duration": 0.10985800000000268
                },
                {
                    "name": "D5",
                    "midi": 74,
                    "time": 106.5622600000007,
                    "velocity": 0.5826771653543307,
                    "duration": 0.10985800000000268
                },
                {
                    "name": "F5",
                    "midi": 77,
                    "time": 106.67211800000071,
                    "velocity": 0.5433070866141733,
                    "duration": 0.10985800000000268
                },
                {
                    "name": "G5",
                    "midi": 79,
                    "time": 106.78197600000071,
                    "velocity": 0.5905511811023622,
                    "duration": 0.10985800000000268
                },
                {
                    "name": "E5",
                    "midi": 76,
                    "time": 106.89183400000071,
                    "velocity": 0.5433070866141733,
                    "duration": 0.10985800000000268
                },
                {
                    "name": "C#5",
                    "midi": 73,
                    "time": 107.00169200000072,
                    "velocity": 0.5905511811023622,
                    "duration": 0.10985800000000268
                },
                {
                    "name": "E5",
                    "midi": 76,
                    "time": 107.11155000000072,
                    "velocity": 0.5433070866141733,
                    "duration": 0.10985800000000268
                },
                {
                    "name": "D5",
                    "midi": 74,
                    "time": 107.22140800000072,
                    "velocity": 0.5905511811023622,
                    "duration": 0.4394319999999965
                },
                {
                    "name": "D4",
                    "midi": 62,
                    "time": 107.66084000000072,
                    "velocity": 0.5275590551181102,
                    "duration": 0.10985800000000268
                },
                {
                    "name": "A3",
                    "midi": 57,
                    "time": 107.77069800000072,
                    "velocity": 0.4645669291338583,
                    "duration": 0.10985800000000268
                },
                {
                    "name": "D4",
                    "midi": 62,
                    "time": 107.88055600000072,
                    "velocity": 0.4881889763779528,
                    "duration": 0.10985800000000268
                },
                {
                    "name": "F4",
                    "midi": 65,
                    "time": 107.99041400000073,
                    "velocity": 0.5118110236220472,
                    "duration": 0.10985800000000268
                },
                {
                    "name": "A4",
                    "midi": 69,
                    "time": 108.10027200000073,
                    "velocity": 0.5354330708661418,
                    "duration": 0.10985800000000268
                },
                {
                    "name": "F4",
                    "midi": 65,
                    "time": 108.21013000000073,
                    "velocity": 0.49606299212598426,
                    "duration": 0.10985800000000268
                },
                {
                    "name": "D4",
                    "midi": 62,
                    "time": 108.31998800000073,
                    "velocity": 0.5354330708661418,
                    "duration": 0.10985800000000268
                },
                {
                    "name": "F4",
                    "midi": 65,
                    "time": 108.42984600000074,
                    "velocity": 0.49606299212598426,
                    "duration": 0.10985800000000268
                },
                {
                    "name": "G4",
                    "midi": 67,
                    "time": 108.53970400000074,
                    "velocity": 0.5433070866141733,
                    "duration": 0.10985800000000268
                },
                {
                    "name": "E4",
                    "midi": 64,
                    "time": 108.64956200000074,
                    "velocity": 0.49606299212598426,
                    "duration": 0.10985800000000268
                },
                {
                    "name": "C#4",
                    "midi": 61,
                    "time": 108.75942000000074,
                    "velocity": 0.5433070866141733,
                    "duration": 0.10985800000000268
                },
                {
                    "name": "E4",
                    "midi": 64,
                    "time": 108.86927800000075,
                    "velocity": 0.49606299212598426,
                    "duration": 0.10985800000000268
                },
                {
                    "name": "D4",
                    "midi": 62,
                    "time": 109.08899400000075,
                    "velocity": 0.4251968503937008,
                    "duration": 0.12084380000000294
                },
                {
                    "name": "E4",
                    "midi": 64,
                    "time": 109.19885200000076,
                    "velocity": 0.4409448818897638,
                    "duration": 0.12084380000000294
                },
                {
                    "name": "F4",
                    "midi": 65,
                    "time": 109.30871000000076,
                    "velocity": 0.4566929133858268,
                    "duration": 0.12084380000000294
                },
                {
                    "name": "G4",
                    "midi": 67,
                    "time": 109.41856800000076,
                    "velocity": 0.47244094488188976,
                    "duration": 0.12084380000000294
                },
                {
                    "name": "A4",
                    "midi": 69,
                    "time": 109.52842600000076,
                    "velocity": 0.48031496062992124,
                    "duration": 0.12084380000000294
                },
                {
                    "name": "B4",
                    "midi": 71,
                    "time": 109.63828400000077,
                    "velocity": 0.49606299212598426,
                    "duration": 0.12084380000000294
                },
                {
                    "name": "C#5",
                    "midi": 73,
                    "time": 109.74814200000077,
                    "velocity": 0.5118110236220472,
                    "duration": 0.12084380000000294
                },
                {
                    "name": "D5",
                    "midi": 74,
                    "time": 109.85800000000077,
                    "velocity": 0.5196850393700787,
                    "duration": 0.4394319999999965
                },
                {
                    "name": "B4",
                    "midi": 71,
                    "time": 110.84672200000077,
                    "velocity": 0.4566929133858268,
                    "duration": 0.12084380000000294
                },
                {
                    "name": "C5",
                    "midi": 72,
                    "time": 110.95658000000077,
                    "velocity": 0.47244094488188976,
                    "duration": 0.12084380000000294
                },
                {
                    "name": "D5",
                    "midi": 74,
                    "time": 111.06643800000077,
                    "velocity": 0.48031496062992124,
                    "duration": 0.12084380000000294
                },
                {
                    "name": "E5",
                    "midi": 76,
                    "time": 111.17629600000078,
                    "velocity": 0.49606299212598426,
                    "duration": 0.12084380000000294
                },
                {
                    "name": "F#5",
                    "midi": 78,
                    "time": 111.28615400000078,
                    "velocity": 0.5039370078740157,
                    "duration": 0.12084380000000294
                },
                {
                    "name": "G#5",
                    "midi": 80,
                    "time": 111.39601200000078,
                    "velocity": 0.5196850393700787,
                    "duration": 0.12084380000000294
                },
                {
                    "name": "A5",
                    "midi": 81,
                    "time": 111.50587000000078,
                    "velocity": 0.5275590551181102,
                    "duration": 0.12084380000000294
                },
                {
                    "name": "B5",
                    "midi": 83,
                    "time": 111.61572800000079,
                    "velocity": 0.5433070866141733,
                    "duration": 0.4394319999999965
                },
                {
                    "name": "A5",
                    "midi": 81,
                    "time": 112.60445000000078,
                    "velocity": 0.5511811023622047,
                    "duration": 0.12084380000000294
                },
                {
                    "name": "E6",
                    "midi": 88,
                    "time": 112.71430800000078,
                    "velocity": 0.6062992125984252,
                    "duration": 0.12084380000000294
                },
                {
                    "name": "D6",
                    "midi": 86,
                    "time": 112.82416600000079,
                    "velocity": 0.5511811023622047,
                    "duration": 0.12084380000000294
                },
                {
                    "name": "C6",
                    "midi": 84,
                    "time": 112.93402400000079,
                    "velocity": 0.5590551181102362,
                    "duration": 0.12084380000000294
                },
                {
                    "name": "B5",
                    "midi": 83,
                    "time": 113.04388200000079,
                    "velocity": 0.5669291338582677,
                    "duration": 0.12084380000000294
                },
                {
                    "name": "A5",
                    "midi": 81,
                    "time": 113.1537400000008,
                    "velocity": 0.5748031496062992,
                    "duration": 0.12084380000000294
                },
                {
                    "name": "G5",
                    "midi": 79,
                    "time": 113.2635980000008,
                    "velocity": 0.5826771653543307,
                    "duration": 0.12084380000000294
                },
                {
                    "name": "F5",
                    "midi": 77,
                    "time": 113.3734560000008,
                    "velocity": 0.6141732283464567,
                    "duration": 0.4394319999999965
                },
                {
                    "name": "G5",
                    "midi": 79,
                    "time": 114.3621780000008,
                    "velocity": 0.5039370078740157,
                    "duration": 0.12084380000000294
                },
                {
                    "name": "D6",
                    "midi": 86,
                    "time": 114.4720360000008,
                    "velocity": 0.5433070866141733,
                    "duration": 0.12084380000000294
                },
                {
                    "name": "C6",
                    "midi": 84,
                    "time": 114.5818940000008,
                    "velocity": 0.49606299212598426,
                    "duration": 0.12084380000000294
                },
                {
                    "name": "B5",
                    "midi": 83,
                    "time": 114.6917520000008,
                    "velocity": 0.5039370078740157,
                    "duration": 0.12084380000000294
                },
                {
                    "name": "A5",
                    "midi": 81,
                    "time": 114.8016100000008,
                    "velocity": 0.5196850393700787,
                    "duration": 0.12084380000000294
                },
                {
                    "name": "G5",
                    "midi": 79,
                    "time": 114.91146800000081,
                    "velocity": 0.5275590551181102,
                    "duration": 0.12084380000000294
                },
                {
                    "name": "F5",
                    "midi": 77,
                    "time": 115.02132600000081,
                    "velocity": 0.5433070866141733,
                    "duration": 0.12084380000000294
                },
                {
                    "name": "E5",
                    "midi": 76,
                    "time": 115.13118400000081,
                    "velocity": 0.5590551181102362,
                    "duration": 0.4394319999999965
                },
                {
                    "name": "F5",
                    "midi": 77,
                    "time": 116.11990600000081,
                    "velocity": 0.47244094488188976,
                    "duration": 0.12084380000000294
                },
                {
                    "name": "C6",
                    "midi": 84,
                    "time": 116.22976400000081,
                    "velocity": 0.5196850393700787,
                    "duration": 0.12084380000000294
                },
                {
                    "name": "B5",
                    "midi": 83,
                    "time": 116.33962200000082,
                    "velocity": 0.5511811023622047,
                    "duration": 0.12084380000000294
                },
                {
                    "name": "A5",
                    "midi": 81,
                    "time": 116.44948000000082,
                    "velocity": 0.5433070866141733,
                    "duration": 0.12084380000000294
                },
                {
                    "name": "G5",
                    "midi": 79,
                    "time": 116.55933800000082,
                    "velocity": 0.5354330708661418,
                    "duration": 0.12084380000000294
                },
                {
                    "name": "F5",
                    "midi": 77,
                    "time": 116.66919600000082,
                    "velocity": 0.5196850393700787,
                    "duration": 0.12084380000000294
                },
                {
                    "name": "E5",
                    "midi": 76,
                    "time": 116.77905400000083,
                    "velocity": 0.5118110236220472,
                    "duration": 0.12084380000000294
                },
                {
                    "name": "D5",
                    "midi": 74,
                    "time": 116.88891200000083,
                    "velocity": 0.5433070866141733,
                    "duration": 0.4394319999999965
                },
                {
                    "name": "E5",
                    "midi": 76,
                    "time": 117.87763400000082,
                    "velocity": 0.4645669291338583,
                    "duration": 0.12084380000000294
                },
                {
                    "name": "B5",
                    "midi": 83,
                    "time": 117.98749200000083,
                    "velocity": 0.5275590551181102,
                    "duration": 0.12084380000000294
                },
                {
                    "name": "A5",
                    "midi": 81,
                    "time": 118.09735000000083,
                    "velocity": 0.5275590551181102,
                    "duration": 0.12084380000000294
                },
                {
                    "name": "G#5",
                    "midi": 80,
                    "time": 118.20720800000083,
                    "velocity": 0.5196850393700787,
                    "duration": 0.12084380000000294
                },
                {
                    "name": "F5",
                    "midi": 77,
                    "time": 118.31706600000084,
                    "velocity": 0.5118110236220472,
                    "duration": 0.12084380000000294
                },
                {
                    "name": "E5",
                    "midi": 76,
                    "time": 118.42692400000084,
                    "velocity": 0.5039370078740157,
                    "duration": 0.12084380000000294
                },
                {
                    "name": "D5",
                    "midi": 74,
                    "time": 118.53678200000084,
                    "velocity": 0.49606299212598426,
                    "duration": 0.12084380000000294
                },
                {
                    "name": "C5",
                    "midi": 72,
                    "time": 118.64664000000084,
                    "velocity": 0.5196850393700787,
                    "duration": 0.4394319999999965
                },
                {
                    "name": "A#4",
                    "midi": 70,
                    "time": 119.63536200000084,
                    "velocity": 0.4566929133858268,
                    "duration": 0.12084380000000294
                },
                {
                    "name": "D5",
                    "midi": 74,
                    "time": 119.74522000000084,
                    "velocity": 0.5039370078740157,
                    "duration": 0.12084380000000294
                },
                {
                    "name": "C5",
                    "midi": 72,
                    "time": 119.85507800000084,
                    "velocity": 0.4645669291338583,
                    "duration": 0.12084380000000294
                },
                {
                    "name": "A#4",
                    "midi": 70,
                    "time": 119.96493600000085,
                    "velocity": 0.5039370078740157,
                    "duration": 0.12084380000000294
                },
                {
                    "name": "A4",
                    "midi": 69,
                    "time": 120.07479400000085,
                    "velocity": 0.49606299212598426,
                    "duration": 0.12084380000000294
                },
                {
                    "name": "G4",
                    "midi": 67,
                    "time": 120.18465200000085,
                    "velocity": 0.48031496062992124,
                    "duration": 0.12084380000000294
                },
                {
                    "name": "F4",
                    "midi": 65,
                    "time": 120.29451000000086,
                    "velocity": 0.47244094488188976,
                    "duration": 0.10985800000000268
                },
                {
                    "name": "E4",
                    "midi": 64,
                    "time": 120.40436800000086,
                    "velocity": 0.4645669291338583,
                    "duration": 0.12084380000000294
                },
                {
                    "name": "F4",
                    "midi": 65,
                    "time": 120.51422600000086,
                    "velocity": 0.44881889763779526,
                    "duration": 0.12084380000000294
                },
                {
                    "name": "G4",
                    "midi": 67,
                    "time": 120.62408400000086,
                    "velocity": 0.4409448818897638,
                    "duration": 0.12084380000000294
                },
                {
                    "name": "A4",
                    "midi": 69,
                    "time": 120.73394200000087,
                    "velocity": 0.4330708661417323,
                    "duration": 0.12084380000000294
                },
                {
                    "name": "A#4",
                    "midi": 70,
                    "time": 120.84380000000087,
                    "velocity": 0.41732283464566927,
                    "duration": 0.12084380000000294
                },
                {
                    "name": "C5",
                    "midi": 72,
                    "time": 120.95365800000087,
                    "velocity": 0.4094488188976378,
                    "duration": 0.12084380000000294
                },
                {
                    "name": "D5",
                    "midi": 74,
                    "time": 121.06351600000087,
                    "velocity": 0.3937007874015748,
                    "duration": 0.12084380000000294
                },
                {
                    "name": "E5",
                    "midi": 76,
                    "time": 121.17337400000088,
                    "velocity": 0.3858267716535433,
                    "duration": 0.10985800000000268
                },
                {
                    "name": "F5",
                    "midi": 77,
                    "time": 121.28323200000088,
                    "velocity": 0.4645669291338583,
                    "duration": 0.878863999999993
                },
                {
                    "name": "A5",
                    "midi": 81,
                    "time": 122.16209600000087,
                    "velocity": 0.4566929133858268,
                    "duration": 0.4394319999999965
                },
                {
                    "name": "C6",
                    "midi": 84,
                    "time": 122.60152800000087,
                    "velocity": 0.4409448818897638,
                    "duration": 0.4394319999999965
                },
                {
                    "name": "E5",
                    "midi": 76,
                    "time": 123.04096000000087,
                    "velocity": 0.47244094488188976,
                    "duration": 0.6591480000000018
                },
                {
                    "name": "F5",
                    "midi": 77,
                    "time": 123.70010800000087,
                    "velocity": 0.4330708661417323,
                    "duration": 0.10985800000000268
                },
                {
                    "name": "G5",
                    "midi": 79,
                    "time": 123.80996600000087,
                    "velocity": 0.4015748031496063,
                    "duration": 0.10985800000000268
                },
                {
                    "name": "F5",
                    "midi": 77,
                    "time": 123.91982400000087,
                    "velocity": 0.47244094488188976,
                    "duration": 0.4394319999999965
                },
                {
                    "name": "D6",
                    "midi": 86,
                    "time": 124.79868800000087,
                    "velocity": 0.5039370078740157,
                    "duration": 0.878863999999993
                },
                {
                    "name": "C6",
                    "midi": 84,
                    "time": 125.67755200000086,
                    "velocity": 0.4881889763779528,
                    "duration": 0.4394319999999965
                },
                {
                    "name": "F6",
                    "midi": 89,
                    "time": 126.11698400000085,
                    "velocity": 0.5039370078740157,
                    "duration": 0.4394319999999965
                },
                {
                    "name": "C6",
                    "midi": 84,
                    "time": 126.55641600000085,
                    "velocity": 0.5039370078740157,
                    "duration": 0.4394319999999965
                },
                {
                    "name": "A#5",
                    "midi": 82,
                    "time": 126.99584800000085,
                    "velocity": 0.4330708661417323,
                    "duration": 0.07323866666666845
                },
                {
                    "name": "C6",
                    "midi": 84,
                    "time": 127.06908666666752,
                    "velocity": 0.4330708661417323,
                    "duration": 0.07323866666666845
                },
                {
                    "name": "A#5",
                    "midi": 82,
                    "time": 127.14232533333418,
                    "velocity": 0.4330708661417323,
                    "duration": 0.07323866666666845
                },
                {
                    "name": "A5",
                    "midi": 81,
                    "time": 127.21556400000085,
                    "velocity": 0.4645669291338583,
                    "duration": 0.10985800000000268
                },
                {
                    "name": "A#5",
                    "midi": 82,
                    "time": 127.32542200000086,
                    "velocity": 0.4330708661417323,
                    "duration": 0.10985800000000268
                },
                {
                    "name": "A5",
                    "midi": 81,
                    "time": 127.43528000000086,
                    "velocity": 0.47244094488188976,
                    "duration": 0.4394319999999965
                },
                {
                    "name": "D5",
                    "midi": 74,
                    "time": 128.31414400000085,
                    "velocity": 0.47244094488188976,
                    "duration": 0.21971600000000535
                },
                {
                    "name": "E5",
                    "midi": 76,
                    "time": 128.53386000000086,
                    "velocity": 0.41732283464566927,
                    "duration": 0.12084379999998873
                },
                {
                    "name": "F5",
                    "midi": 77,
                    "time": 128.64371800000086,
                    "velocity": 0.4251968503937008,
                    "duration": 0.12084379999996031
                },
                {
                    "name": "G5",
                    "midi": 79,
                    "time": 128.75357600000083,
                    "velocity": 0.4330708661417323,
                    "duration": 0.12084379999996031
                },
                {
                    "name": "A5",
                    "midi": 81,
                    "time": 128.8634340000008,
                    "velocity": 0.44881889763779526,
                    "duration": 0.12084379999996031
                },
                {
                    "name": "A#5",
                    "midi": 82,
                    "time": 128.97329200000078,
                    "velocity": 0.4566929133858268,
                    "duration": 0.12084379999996031
                },
                {
                    "name": "C6",
                    "midi": 84,
                    "time": 129.08315000000076,
                    "velocity": 0.4645669291338583,
                    "duration": 0.12084379999996031
                },
                {
                    "name": "D6",
                    "midi": 86,
                    "time": 129.19300800000073,
                    "velocity": 0.4881889763779528,
                    "duration": 0.12084379999996031
                },
                {
                    "name": "C6",
                    "midi": 84,
                    "time": 129.3028660000007,
                    "velocity": 0.48031496062992124,
                    "duration": 0.12084379999996031
                },
                {
                    "name": "A#5",
                    "midi": 82,
                    "time": 129.41272400000068,
                    "velocity": 0.47244094488188976,
                    "duration": 0.12084379999996031
                },
                {
                    "name": "A5",
                    "midi": 81,
                    "time": 129.52258200000065,
                    "velocity": 0.4645669291338583,
                    "duration": 0.12084379999996031
                },
                {
                    "name": "G5",
                    "midi": 79,
                    "time": 129.63244000000063,
                    "velocity": 0.4566929133858268,
                    "duration": 0.12084379999996031
                },
                {
                    "name": "F5",
                    "midi": 77,
                    "time": 129.7422980000006,
                    "velocity": 0.44881889763779526,
                    "duration": 0.12084379999996031
                },
                {
                    "name": "E5",
                    "midi": 76,
                    "time": 129.85215600000058,
                    "velocity": 0.4330708661417323,
                    "duration": 0.12084379999996031
                },
                {
                    "name": "D5",
                    "midi": 74,
                    "time": 129.96201400000055,
                    "velocity": 0.41732283464566927,
                    "duration": 0.12084379999996031
                },
                {
                    "name": "C5",
                    "midi": 72,
                    "time": 130.07187200000052,
                    "velocity": 0.47244094488188976,
                    "duration": 0.21971599999997693
                },
                {
                    "name": "D5",
                    "midi": 74,
                    "time": 130.2915880000005,
                    "velocity": 0.41732283464566927,
                    "duration": 0.12084379999998873
                },
                {
                    "name": "E5",
                    "midi": 76,
                    "time": 130.4014460000005,
                    "velocity": 0.4251968503937008,
                    "duration": 0.12084379999996031
                },
                {
                    "name": "F5",
                    "midi": 77,
                    "time": 130.51130400000048,
                    "velocity": 0.4330708661417323,
                    "duration": 0.12084379999996031
                },
                {
                    "name": "G5",
                    "midi": 79,
                    "time": 130.62116200000045,
                    "velocity": 0.44881889763779526,
                    "duration": 0.12084379999996031
                },
                {
                    "name": "A5",
                    "midi": 81,
                    "time": 130.73102000000043,
                    "velocity": 0.4566929133858268,
                    "duration": 0.12084379999996031
                },
                {
                    "name": "A#5",
                    "midi": 82,
                    "time": 130.8408780000004,
                    "velocity": 0.4645669291338583,
                    "duration": 0.12084379999996031
                },
                {
                    "name": "C6",
                    "midi": 84,
                    "time": 130.95073600000038,
                    "velocity": 0.4881889763779528,
                    "duration": 0.12084379999996031
                },
                {
                    "name": "A#5",
                    "midi": 82,
                    "time": 131.06059400000035,
                    "velocity": 0.48031496062992124,
                    "duration": 0.12084379999996031
                },
                {
                    "name": "A5",
                    "midi": 81,
                    "time": 131.17045200000032,
                    "velocity": 0.47244094488188976,
                    "duration": 0.12084379999996031
                },
                {
                    "name": "G5",
                    "midi": 79,
                    "time": 131.2803100000003,
                    "velocity": 0.4645669291338583,
                    "duration": 0.12084379999996031
                },
                {
                    "name": "F5",
                    "midi": 77,
                    "time": 131.39016800000027,
                    "velocity": 0.4566929133858268,
                    "duration": 0.12084379999996031
                },
                {
                    "name": "E5",
                    "midi": 76,
                    "time": 131.50002600000025,
                    "velocity": 0.44881889763779526,
                    "duration": 0.12084379999996031
                },
                {
                    "name": "D5",
                    "midi": 74,
                    "time": 131.60988400000022,
                    "velocity": 0.4330708661417323,
                    "duration": 0.12084379999996031
                },
                {
                    "name": "C5",
                    "midi": 72,
                    "time": 131.7197420000002,
                    "velocity": 0.41732283464566927,
                    "duration": 0.12084379999996031
                },
                {
                    "name": "A#4",
                    "midi": 70,
                    "time": 131.82960000000017,
                    "velocity": 0.47244094488188976,
                    "duration": 0.21971599999997693
                },
                {
                    "name": "C5",
                    "midi": 72,
                    "time": 132.04931600000015,
                    "velocity": 0.41732283464566927,
                    "duration": 0.12084379999998873
                },
                {
                    "name": "D5",
                    "midi": 74,
                    "time": 132.15917400000015,
                    "velocity": 0.4251968503937008,
                    "duration": 0.12084379999996031
                },
                {
                    "name": "E5",
                    "midi": 76,
                    "time": 132.26903200000012,
                    "velocity": 0.4330708661417323,
                    "duration": 0.12084379999996031
                },
                {
                    "name": "F5",
                    "midi": 77,
                    "time": 132.3788900000001,
                    "velocity": 0.44881889763779526,
                    "duration": 0.12084379999996031
                },
                {
                    "name": "G5",
                    "midi": 79,
                    "time": 132.48874800000007,
                    "velocity": 0.4566929133858268,
                    "duration": 0.12084379999996031
                },
                {
                    "name": "A5",
                    "midi": 81,
                    "time": 132.59860600000005,
                    "velocity": 0.4645669291338583,
                    "duration": 0.12084379999996031
                },
                {
                    "name": "A#5",
                    "midi": 82,
                    "time": 132.70846400000002,
                    "velocity": 0.4881889763779528,
                    "duration": 0.12084379999996031
                },
                {
                    "name": "A5",
                    "midi": 81,
                    "time": 132.818322,
                    "velocity": 0.48031496062992124,
                    "duration": 0.12084379999996031
                },
                {
                    "name": "G5",
                    "midi": 79,
                    "time": 132.92817999999997,
                    "velocity": 0.47244094488188976,
                    "duration": 0.12084379999996031
                },
                {
                    "name": "F5",
                    "midi": 77,
                    "time": 133.03803799999994,
                    "velocity": 0.4645669291338583,
                    "duration": 0.12084379999996031
                },
                {
                    "name": "E5",
                    "midi": 76,
                    "time": 133.14789599999992,
                    "velocity": 0.4566929133858268,
                    "duration": 0.12084379999996031
                },
                {
                    "name": "D5",
                    "midi": 74,
                    "time": 133.2577539999999,
                    "velocity": 0.44881889763779526,
                    "duration": 0.12084379999996031
                },
                {
                    "name": "C5",
                    "midi": 72,
                    "time": 133.36761199999987,
                    "velocity": 0.4330708661417323,
                    "duration": 0.12084379999996031
                },
                {
                    "name": "A#4",
                    "midi": 70,
                    "time": 133.47746999999984,
                    "velocity": 0.41732283464566927,
                    "duration": 0.12084379999996031
                },
                {
                    "name": "A4",
                    "midi": 69,
                    "time": 133.58732799999981,
                    "velocity": 0.47244094488188976,
                    "duration": 0.21971599999997693
                },
                {
                    "name": "A#4",
                    "midi": 70,
                    "time": 133.8070439999998,
                    "velocity": 0.41732283464566927,
                    "duration": 0.12084379999998873
                },
                {
                    "name": "C5",
                    "midi": 72,
                    "time": 133.9169019999998,
                    "velocity": 0.4251968503937008,
                    "duration": 0.12084379999996031
                },
                {
                    "name": "D5",
                    "midi": 74,
                    "time": 134.02675999999977,
                    "velocity": 0.4330708661417323,
                    "duration": 0.12084379999996031
                },
                {
                    "name": "E5",
                    "midi": 76,
                    "time": 134.13661799999974,
                    "velocity": 0.44881889763779526,
                    "duration": 0.12084379999996031
                },
                {
                    "name": "F5",
                    "midi": 77,
                    "time": 134.24647599999972,
                    "velocity": 0.4566929133858268,
                    "duration": 0.12084379999996031
                },
                {
                    "name": "G5",
                    "midi": 79,
                    "time": 134.3563339999997,
                    "velocity": 0.4645669291338583,
                    "duration": 0.12084379999996031
                },
                {
                    "name": "A5",
                    "midi": 81,
                    "time": 134.46619199999967,
                    "velocity": 0.4881889763779528,
                    "duration": 0.12084379999996031
                },
                {
                    "name": "G5",
                    "midi": 79,
                    "time": 134.57604999999964,
                    "velocity": 0.48031496062992124,
                    "duration": 0.12084379999996031
                },
                {
                    "name": "F5",
                    "midi": 77,
                    "time": 134.6859079999996,
                    "velocity": 0.47244094488188976,
                    "duration": 0.12084379999996031
                },
                {
                    "name": "E5",
                    "midi": 76,
                    "time": 134.7957659999996,
                    "velocity": 0.4645669291338583,
                    "duration": 0.12084379999996031
                },
                {
                    "name": "D5",
                    "midi": 74,
                    "time": 134.90562399999956,
                    "velocity": 0.4566929133858268,
                    "duration": 0.12084379999996031
                },
                {
                    "name": "C5",
                    "midi": 72,
                    "time": 135.01548199999954,
                    "velocity": 0.44881889763779526,
                    "duration": 0.12084379999996031
                },
                {
                    "name": "A#4",
                    "midi": 70,
                    "time": 135.1253399999995,
                    "velocity": 0.4330708661417323,
                    "duration": 0.12084379999996031
                },
                {
                    "name": "A4",
                    "midi": 69,
                    "time": 135.23519799999949,
                    "velocity": 0.41732283464566927,
                    "duration": 0.12084379999996031
                },
                {
                    "name": "A5",
                    "midi": 81,
                    "time": 135.34505599999946,
                    "velocity": 0.48031496062992124,
                    "duration": 0.4394319999999823
                },
                {
                    "name": "C5",
                    "midi": 72,
                    "time": 136.66335199999943,
                    "velocity": 0.4409448818897638,
                    "duration": 0.4394320000000107
                },
                {
                    "name": "A5",
                    "midi": 81,
                    "time": 136.66335199999943,
                    "velocity": 0.4409448818897638,
                    "duration": 0.4394320000000107
                },
                {
                    "name": "C5",
                    "midi": 72,
                    "time": 137.10278399999945,
                    "velocity": 0.4409448818897638,
                    "duration": 0.4394320000000107
                },
                {
                    "name": "G5",
                    "midi": 79,
                    "time": 137.10278399999945,
                    "velocity": 0.4409448818897638,
                    "duration": 0.4394320000000107
                },
                {
                    "name": "C5",
                    "midi": 72,
                    "time": 138.42107999999945,
                    "velocity": 0.4409448818897638,
                    "duration": 0.4394320000000107
                },
                {
                    "name": "G5",
                    "midi": 79,
                    "time": 138.42107999999945,
                    "velocity": 0.4409448818897638,
                    "duration": 0.4394320000000107
                },
                {
                    "name": "C5",
                    "midi": 72,
                    "time": 138.86051199999946,
                    "velocity": 0.4409448818897638,
                    "duration": 0.4394320000000107
                },
                {
                    "name": "F5",
                    "midi": 77,
                    "time": 138.86051199999946,
                    "velocity": 0.4409448818897638,
                    "duration": 0.4394320000000107
                },
                {
                    "name": "B4",
                    "midi": 71,
                    "time": 140.17880799999946,
                    "velocity": 0.4409448818897638,
                    "duration": 0.4394320000000107
                },
                {
                    "name": "F5",
                    "midi": 77,
                    "time": 140.17880799999946,
                    "velocity": 0.4409448818897638,
                    "duration": 0.4394320000000107
                },
                {
                    "name": "C5",
                    "midi": 72,
                    "time": 140.61823999999947,
                    "velocity": 0.4409448818897638,
                    "duration": 0.4394320000000107
                },
                {
                    "name": "E5",
                    "midi": 76,
                    "time": 140.61823999999947,
                    "velocity": 0.4409448818897638,
                    "duration": 0.4394320000000107
                },
                {
                    "name": "C5",
                    "midi": 72,
                    "time": 141.93653599999948,
                    "velocity": 0.4409448818897638,
                    "duration": 0.4394320000000107
                },
                {
                    "name": "E5",
                    "midi": 76,
                    "time": 141.93653599999948,
                    "velocity": 0.4409448818897638,
                    "duration": 0.4394320000000107
                },
                {
                    "name": "D5",
                    "midi": 74,
                    "time": 142.3759679999995,
                    "velocity": 0.47244094488188976,
                    "duration": 0.10985800000000268
                },
                {
                    "name": "D4",
                    "midi": 62,
                    "time": 142.4858259999995,
                    "velocity": 0.41732283464566927,
                    "duration": 0.12084379999998873
                },
                {
                    "name": "E4",
                    "midi": 64,
                    "time": 142.5956839999995,
                    "velocity": 0.41732283464566927,
                    "duration": 0.12084379999996031
                },
                {
                    "name": "F4",
                    "midi": 65,
                    "time": 142.70554199999947,
                    "velocity": 0.4251968503937008,
                    "duration": 0.12084379999996031
                },
                {
                    "name": "G4",
                    "midi": 67,
                    "time": 142.81539999999944,
                    "velocity": 0.4330708661417323,
                    "duration": 0.12084379999996031
                },
                {
                    "name": "A4",
                    "midi": 69,
                    "time": 142.92525799999942,
                    "velocity": 0.44881889763779526,
                    "duration": 0.12084379999996031
                },
                {
                    "name": "B4",
                    "midi": 71,
                    "time": 143.0351159999994,
                    "velocity": 0.4566929133858268,
                    "duration": 0.12084379999996031
                },
                {
                    "name": "C#5",
                    "midi": 73,
                    "time": 143.14497399999937,
                    "velocity": 0.4645669291338583,
                    "duration": 0.12084379999996031
                },
                {
                    "name": "D5",
                    "midi": 74,
                    "time": 143.25483199999934,
                    "velocity": 0.4881889763779528,
                    "duration": 0.10985799999997425
                },
                {
                    "name": "A4",
                    "midi": 69,
                    "time": 143.3646899999993,
                    "velocity": 0.4566929133858268,
                    "duration": 0.12084379999998873
                },
                {
                    "name": "B4",
                    "midi": 71,
                    "time": 143.47454799999932,
                    "velocity": 0.48031496062992124,
                    "duration": 0.12084379999996031
                },
                {
                    "name": "C#5",
                    "midi": 73,
                    "time": 143.5844059999993,
                    "velocity": 0.5039370078740157,
                    "duration": 0.12084379999996031
                },
                {
                    "name": "D5",
                    "midi": 74,
                    "time": 143.69426399999927,
                    "velocity": 0.5196850393700787,
                    "duration": 0.12084379999996031
                },
                {
                    "name": "E5",
                    "midi": 76,
                    "time": 143.80412199999924,
                    "velocity": 0.5275590551181102,
                    "duration": 0.12084379999996031
                },
                {
                    "name": "F5",
                    "midi": 77,
                    "time": 143.9139799999992,
                    "velocity": 0.5354330708661418,
                    "duration": 0.12084379999996031
                },
                {
                    "name": "G5",
                    "midi": 79,
                    "time": 144.0238379999992,
                    "velocity": 0.5433070866141733,
                    "duration": 0.12084379999996031
                },
                {
                    "name": "A5",
                    "midi": 81,
                    "time": 144.13369599999916,
                    "velocity": 0.5511811023622047,
                    "duration": 0.12084379999996031
                },
                {
                    "name": "B5",
                    "midi": 83,
                    "time": 144.24355399999914,
                    "velocity": 0.5433070866141733,
                    "duration": 0.12084379999996031
                },
                {
                    "name": "C6",
                    "midi": 84,
                    "time": 144.3534119999991,
                    "velocity": 0.5590551181102362,
                    "duration": 0.12084379999996031
                },
                {
                    "name": "B5",
                    "midi": 83,
                    "time": 144.46326999999908,
                    "velocity": 0.5433070866141733,
                    "duration": 0.12084379999996031
                },
                {
                    "name": "A5",
                    "midi": 81,
                    "time": 144.57312799999906,
                    "velocity": 0.5275590551181102,
                    "duration": 0.12084379999996031
                },
                {
                    "name": "G5",
                    "midi": 79,
                    "time": 144.68298599999903,
                    "velocity": 0.5118110236220472,
                    "duration": 0.12084379999996031
                },
                {
                    "name": "F5",
                    "midi": 77,
                    "time": 144.792843999999,
                    "velocity": 0.49606299212598426,
                    "duration": 0.12084379999996031
                },
                {
                    "name": "E5",
                    "midi": 76,
                    "time": 144.90270199999898,
                    "velocity": 0.5196850393700787,
                    "duration": 0.10985799999997425
                },
                {
                    "name": "F5",
                    "midi": 77,
                    "time": 145.01255999999896,
                    "velocity": 0.5118110236220472,
                    "duration": 0.12084379999998873
                },
                {
                    "name": "G5",
                    "midi": 79,
                    "time": 145.12241799999896,
                    "velocity": 0.5196850393700787,
                    "duration": 0.12084379999996031
                },
                {
                    "name": "A5",
                    "midi": 81,
                    "time": 145.23227599999893,
                    "velocity": 0.5275590551181102,
                    "duration": 0.12084379999996031
                },
                {
                    "name": "G5",
                    "midi": 79,
                    "time": 145.3421339999989,
                    "velocity": 0.5275590551181102,
                    "duration": 0.12084379999996031
                },
                {
                    "name": "F5",
                    "midi": 77,
                    "time": 145.45199199999888,
                    "velocity": 0.5354330708661418,
                    "duration": 0.12084379999996031
                },
                {
                    "name": "E5",
                    "midi": 76,
                    "time": 145.56184999999886,
                    "velocity": 0.5590551181102362,
                    "duration": 0.12084379999996031
                },
                {
                    "name": "D5",
                    "midi": 74,
                    "time": 145.67170799999883,
                    "velocity": 0.5748031496062992,
                    "duration": 0.12084379999996031
                },
                {
                    "name": "C5",
                    "midi": 72,
                    "time": 145.7815659999988,
                    "velocity": 0.5984251968503937,
                    "duration": 0.12084379999996031
                },
                {
                    "name": "B4",
                    "midi": 71,
                    "time": 145.89142399999878,
                    "velocity": 0.6141732283464567,
                    "duration": 0.10985799999997425
                },
                {
                    "name": "G5",
                    "midi": 79,
                    "time": 146.11113999999876,
                    "velocity": 0.5590551181102362,
                    "duration": 0.10985800000000268
                },
                {
                    "name": "E5",
                    "midi": 76,
                    "time": 146.33085599999876,
                    "velocity": 0.5590551181102362,
                    "duration": 0.10985800000000268
                },
                {
                    "name": "C5",
                    "midi": 72,
                    "time": 146.55057199999877,
                    "velocity": 0.5590551181102362,
                    "duration": 0.10985800000000268
                },
                {
                    "name": "D5",
                    "midi": 74,
                    "time": 146.77028799999877,
                    "velocity": 0.6141732283464567,
                    "duration": 0.10985800000000268
                },
                {
                    "name": "G5",
                    "midi": 79,
                    "time": 146.99000399999878,
                    "velocity": 0.5590551181102362,
                    "duration": 0.10985800000000268
                },
                {
                    "name": "E5",
                    "midi": 76,
                    "time": 147.20971999999878,
                    "velocity": 0.5590551181102362,
                    "duration": 0.10985800000000268
                },
                {
                    "name": "C5",
                    "midi": 72,
                    "time": 147.4294359999988,
                    "velocity": 0.5590551181102362,
                    "duration": 0.10985800000000268
                },
                {
                    "name": "D5",
                    "midi": 74,
                    "time": 147.6491519999988,
                    "velocity": 0.6377952755905512,
                    "duration": 0.10985800000000268
                },
                {
                    "name": "D5",
                    "midi": 74,
                    "time": 148.0885839999988,
                    "velocity": 0.5590551181102362,
                    "duration": 0.10985800000000268
                },
                {
                    "name": "G5",
                    "midi": 79,
                    "time": 148.0885839999988,
                    "velocity": 0.5590551181102362,
                    "duration": 0.10985800000000268
                },
                {
                    "name": "B4",
                    "midi": 71,
                    "time": 148.0885839999988,
                    "velocity": 0.5590551181102362,
                    "duration": 0.10985800000000268
                },
                {
                    "name": "G4",
                    "midi": 67,
                    "time": 148.52801599999881,
                    "velocity": 0.6535433070866141,
                    "duration": 0.4394320000000107
                },
                {
                    "name": "G5",
                    "midi": 79,
                    "time": 151.16460799999882,
                    "velocity": 0.48031496062992124,
                    "duration": 0.21971600000000535
                },
                {
                    "name": "E5",
                    "midi": 76,
                    "time": 151.38432399999883,
                    "velocity": 0.4330708661417323,
                    "duration": 0.21971600000000535
                },
                {
                    "name": "C5",
                    "midi": 72,
                    "time": 151.60403999999883,
                    "velocity": 0.48031496062992124,
                    "duration": 0.6591479999999876
                },
                {
                    "name": "D5",
                    "midi": 74,
                    "time": 152.26318799999882,
                    "velocity": 0.41732283464566927,
                    "duration": 0.10985800000000268
                },
                {
                    "name": "E5",
                    "midi": 76,
                    "time": 152.37304599999882,
                    "velocity": 0.4015748031496063,
                    "duration": 0.10985800000000268
                },
                {
                    "name": "D5",
                    "midi": 74,
                    "time": 152.48290399999883,
                    "velocity": 0.4330708661417323,
                    "duration": 0.21971600000000535
                },
                {
                    "name": "C5",
                    "midi": 72,
                    "time": 152.70261999999883,
                    "velocity": 0.41732283464566927,
                    "duration": 0.10985800000000268
                },
                {
                    "name": "C5",
                    "midi": 72,
                    "time": 152.92233599999884,
                    "velocity": 0.4330708661417323,
                    "duration": 0.05492899999998713
                },
                {
                    "name": "D5",
                    "midi": 74,
                    "time": 152.97726499999882,
                    "velocity": 0.4015748031496063,
                    "duration": 0.05492899999998713
                },
                {
                    "name": "C5",
                    "midi": 72,
                    "time": 153.0321939999988,
                    "velocity": 0.4409448818897638,
                    "duration": 0.05492899999998713
                },
                {
                    "name": "D5",
                    "midi": 74,
                    "time": 153.0871229999988,
                    "velocity": 0.4015748031496063,
                    "duration": 0.05492899999998713
                },
                {
                    "name": "C5",
                    "midi": 72,
                    "time": 153.14205199999878,
                    "velocity": 0.4566929133858268,
                    "duration": 0.10985800000000268
                },
                {
                    "name": "B4",
                    "midi": 71,
                    "time": 153.2519099999988,
                    "velocity": 0.4094488188976378,
                    "duration": 0.10070316666667622
                },
                {
                    "name": "B4",
                    "midi": 71,
                    "time": 153.3617679999988,
                    "velocity": 0.4566929133858268,
                    "duration": 0.4394320000000107
                },
                {
                    "name": "G5",
                    "midi": 79,
                    "time": 154.6800639999988,
                    "velocity": 0.48031496062992124,
                    "duration": 0.21971600000000535
                },
                {
                    "name": "E5",
                    "midi": 76,
                    "time": 154.8997799999988,
                    "velocity": 0.4330708661417323,
                    "duration": 0.21971600000000535
                },
                {
                    "name": "C5",
                    "midi": 72,
                    "time": 155.1194959999988,
                    "velocity": 0.48031496062992124,
                    "duration": 0.6591479999999876
                },
                {
                    "name": "D5",
                    "midi": 74,
                    "time": 155.7786439999988,
                    "velocity": 0.41732283464566927,
                    "duration": 0.10985800000000268
                },
                {
                    "name": "E5",
                    "midi": 76,
                    "time": 155.8885019999988,
                    "velocity": 0.4015748031496063,
                    "duration": 0.10985800000000268
                },
                {
                    "name": "D5",
                    "midi": 74,
                    "time": 155.9983599999988,
                    "velocity": 0.4330708661417323,
                    "duration": 0.21971600000000535
                },
                {
                    "name": "C5",
                    "midi": 72,
                    "time": 156.2180759999988,
                    "velocity": 0.41732283464566927,
                    "duration": 0.10985800000000268
                },
                {
                    "name": "C5",
                    "midi": 72,
                    "time": 156.4377919999988,
                    "velocity": 0.4330708661417323,
                    "duration": 0.05492899999998713
                },
                {
                    "name": "D5",
                    "midi": 74,
                    "time": 156.4927209999988,
                    "velocity": 0.4015748031496063,
                    "duration": 0.05492899999998713
                },
                {
                    "name": "C5",
                    "midi": 72,
                    "time": 156.54764999999878,
                    "velocity": 0.4409448818897638,
                    "duration": 0.05492899999998713
                },
                {
                    "name": "D5",
                    "midi": 74,
                    "time": 156.60257899999877,
                    "velocity": 0.3937007874015748,
                    "duration": 0.05492899999998713
                },
                {
                    "name": "C5",
                    "midi": 72,
                    "time": 156.65750799999876,
                    "velocity": 0.4330708661417323,
                    "duration": 0.10985800000000268
                },
                {
                    "name": "B4",
                    "midi": 71,
                    "time": 156.76736599999876,
                    "velocity": 0.4094488188976378,
                    "duration": 0.0823934999999949
                },
                {
                    "name": "B4",
                    "midi": 71,
                    "time": 156.87722399999876,
                    "velocity": 0.4566929133858268,
                    "duration": 0.4394320000000107
                },
                {
                    "name": "G5",
                    "midi": 79,
                    "time": 158.19551999999877,
                    "velocity": 0.5118110236220472,
                    "duration": 0.4394320000000107
                },
                {
                    "name": "G5",
                    "midi": 79,
                    "time": 158.74480999999878,
                    "velocity": 0.44881889763779526,
                    "duration": 0.10985800000000268
                },
                {
                    "name": "E5",
                    "midi": 76,
                    "time": 158.85466799999878,
                    "velocity": 0.4881889763779528,
                    "duration": 0.10985800000000268
                },
                {
                    "name": "C5",
                    "midi": 72,
                    "time": 158.96452599999878,
                    "velocity": 0.44881889763779526,
                    "duration": 0.10985800000000268
                },
                {
                    "name": "A4",
                    "midi": 69,
                    "time": 159.0743839999988,
                    "velocity": 0.5039370078740157,
                    "duration": 0.4394320000000107
                },
                {
                    "name": "A4",
                    "midi": 69,
                    "time": 159.6236739999988,
                    "velocity": 0.44881889763779526,
                    "duration": 0.10985800000000268
                },
                {
                    "name": "C5",
                    "midi": 72,
                    "time": 159.7335319999988,
                    "velocity": 0.4881889763779528,
                    "duration": 0.10985800000000268
                },
                {
                    "name": "A4",
                    "midi": 69,
                    "time": 159.8433899999988,
                    "velocity": 0.44881889763779526,
                    "duration": 0.10985800000000268
                },
                {
                    "name": "F5",
                    "midi": 77,
                    "time": 159.9532479999988,
                    "velocity": 0.5118110236220472,
                    "duration": 0.4394320000000107
                },
                {
                    "name": "F5",
                    "midi": 77,
                    "time": 160.50253799999882,
                    "velocity": 0.44881889763779526,
                    "duration": 0.10985800000000268
                },
                {
                    "name": "D5",
                    "midi": 74,
                    "time": 160.61239599999882,
                    "velocity": 0.4881889763779528,
                    "duration": 0.10985800000000268
                },
                {
                    "name": "B4",
                    "midi": 71,
                    "time": 160.72225399999883,
                    "velocity": 0.44881889763779526,
                    "duration": 0.10985800000000268
                },
                {
                    "name": "G4",
                    "midi": 67,
                    "time": 160.83211199999883,
                    "velocity": 0.5039370078740157,
                    "duration": 0.4394320000000107
                },
                {
                    "name": "G5",
                    "midi": 79,
                    "time": 161.38140199999884,
                    "velocity": 0.5039370078740157,
                    "duration": 0.10985800000000268
                },
                {
                    "name": "B5",
                    "midi": 83,
                    "time": 161.49125999999885,
                    "velocity": 0.5275590551181102,
                    "duration": 0.10985800000000268
                },
                {
                    "name": "G5",
                    "midi": 79,
                    "time": 161.60111799999885,
                    "velocity": 0.49606299212598426,
                    "duration": 0.10985800000000268
                },
                {
                    "name": "E6",
                    "midi": 88,
                    "time": 161.71097599999885,
                    "velocity": 0.5669291338582677,
                    "duration": 0.4394320000000107
                },
                {
                    "name": "E6",
                    "midi": 88,
                    "time": 162.26026599999886,
                    "velocity": 0.48031496062992124,
                    "duration": 0.10985800000000268
                },
                {
                    "name": "C6",
                    "midi": 84,
                    "time": 162.37012399999887,
                    "velocity": 0.5196850393700787,
                    "duration": 0.10985800000000268
                },
                {
                    "name": "A5",
                    "midi": 81,
                    "time": 162.47998199999887,
                    "velocity": 0.48031496062992124,
                    "duration": 0.10985800000000268
                },
                {
                    "name": "F5",
                    "midi": 77,
                    "time": 162.58983999999887,
                    "velocity": 0.5354330708661418,
                    "duration": 0.4394320000000107
                },
                {
                    "name": "F5",
                    "midi": 77,
                    "time": 163.1391299999989,
                    "velocity": 0.5039370078740157,
                    "duration": 0.10985800000000268
                },
                {
                    "name": "A5",
                    "midi": 81,
                    "time": 163.2489879999989,
                    "velocity": 0.5196850393700787,
                    "duration": 0.10985800000000268
                },
                {
                    "name": "F5",
                    "midi": 77,
                    "time": 163.3588459999989,
                    "velocity": 0.5039370078740157,
                    "duration": 0.10985800000000268
                },
                {
                    "name": "D6",
                    "midi": 86,
                    "time": 163.4687039999989,
                    "velocity": 0.5748031496062992,
                    "duration": 0.4394320000000107
                },
                {
                    "name": "D6",
                    "midi": 86,
                    "time": 164.0179939999989,
                    "velocity": 0.48031496062992124,
                    "duration": 0.10985800000000268
                },
                {
                    "name": "B5",
                    "midi": 83,
                    "time": 164.1278519999989,
                    "velocity": 0.5196850393700787,
                    "duration": 0.10985800000000268
                },
                {
                    "name": "F5",
                    "midi": 77,
                    "time": 164.2377099999989,
                    "velocity": 0.48031496062992124,
                    "duration": 0.10985800000000268
                },
                {
                    "name": "E5",
                    "midi": 76,
                    "time": 164.34756799999892,
                    "velocity": 0.5354330708661418,
                    "duration": 0.4394320000000107
                },
                {
                    "name": "C6",
                    "midi": 84,
                    "time": 164.89685799999893,
                    "velocity": 0.48031496062992124,
                    "duration": 0.10985800000000268
                },
                {
                    "name": "G5",
                    "midi": 79,
                    "time": 165.00671599999893,
                    "velocity": 0.5196850393700787,
                    "duration": 0.10985800000000268
                },
                {
                    "name": "E5",
                    "midi": 76,
                    "time": 165.11657399999893,
                    "velocity": 0.48031496062992124,
                    "duration": 0.10985800000000268
                },
                {
                    "name": "D5",
                    "midi": 74,
                    "time": 165.22643199999894,
                    "velocity": 0.5590551181102362,
                    "duration": 0.8239350000000059
                },
                {
                    "name": "C#5",
                    "midi": 73,
                    "time": 166.05036699999894,
                    "velocity": 0.5039370078740157,
                    "duration": 0.05492899999998713
                },
                {
                    "name": "D5",
                    "midi": 74,
                    "time": 166.10529599999893,
                    "velocity": 0.5433070866141733,
                    "duration": 0.38450299999999515
                },
                {
                    "name": "C#5",
                    "midi": 73,
                    "time": 166.48979899999892,
                    "velocity": 0.5118110236220472,
                    "duration": 0.05492899999998713
                },
                {
                    "name": "D5",
                    "midi": 74,
                    "time": 166.5447279999989,
                    "velocity": 0.5669291338582677,
                    "duration": 0.4394320000000107
                },
                {
                    "name": "A5",
                    "midi": 81,
                    "time": 166.98415999999892,
                    "velocity": 0.6062992125984252,
                    "duration": 0.8239350000000059
                },
                {
                    "name": "G#5",
                    "midi": 80,
                    "time": 167.80809499999893,
                    "velocity": 0.5433070866141733,
                    "duration": 0.05492899999998713
                },
                {
                    "name": "A5",
                    "midi": 81,
                    "time": 167.86302399999892,
                    "velocity": 0.6141732283464567,
                    "duration": 0.38450299999999515
                },
                {
                    "name": "G#5",
                    "midi": 80,
                    "time": 168.2475269999989,
                    "velocity": 0.5433070866141733,
                    "duration": 0.05492899999998713
                },
                {
                    "name": "A5",
                    "midi": 81,
                    "time": 168.3024559999989,
                    "velocity": 0.6220472440944882,
                    "duration": 0.4394320000000107
                },
                {
                    "name": "G5",
                    "midi": 79,
                    "time": 168.7418879999989,
                    "velocity": 0.6141732283464567,
                    "duration": 0.21971600000000535
                },
                {
                    "name": "A5",
                    "midi": 81,
                    "time": 168.9616039999989,
                    "velocity": 0.5905511811023622,
                    "duration": 0.10985800000000268
                },
                {
                    "name": "B5",
                    "midi": 83,
                    "time": 169.07146199999892,
                    "velocity": 0.5984251968503937,
                    "duration": 0.10985800000000268
                },
                {
                    "name": "C6",
                    "midi": 84,
                    "time": 169.18131999999892,
                    "velocity": 0.6220472440944882,
                    "duration": 0.10985800000000268
                },
                {
                    "name": "D6",
                    "midi": 86,
                    "time": 169.29117799999892,
                    "velocity": 0.6299212598425197,
                    "duration": 0.10985800000000268
                },
                {
                    "name": "E6",
                    "midi": 88,
                    "time": 169.40103599999892,
                    "velocity": 0.6535433070866141,
                    "duration": 0.10985800000000268
                },
                {
                    "name": "D6",
                    "midi": 86,
                    "time": 169.51089399999893,
                    "velocity": 0.6456692913385826,
                    "duration": 0.10985800000000268
                },
                {
                    "name": "C6",
                    "midi": 84,
                    "time": 169.62075199999893,
                    "velocity": 0.6141732283464567,
                    "duration": 0.10985800000000268
                },
                {
                    "name": "B5",
                    "midi": 83,
                    "time": 169.73060999999893,
                    "velocity": 0.6062992125984252,
                    "duration": 0.10985800000000268
                },
                {
                    "name": "A5",
                    "midi": 81,
                    "time": 169.84046799999894,
                    "velocity": 0.5905511811023622,
                    "duration": 0.10985800000000268
                },
                {
                    "name": "G5",
                    "midi": 79,
                    "time": 169.95032599999894,
                    "velocity": 0.5826771653543307,
                    "duration": 0.10985800000000268
                },
                {
                    "name": "F5",
                    "midi": 77,
                    "time": 170.06018399999894,
                    "velocity": 0.5511811023622047,
                    "duration": 0.10985800000000268
                },
                {
                    "name": "E5",
                    "midi": 76,
                    "time": 170.17004199999894,
                    "velocity": 0.5354330708661418,
                    "duration": 0.10985800000000268
                },
                {
                    "name": "D5",
                    "midi": 74,
                    "time": 170.27989999999895,
                    "velocity": 0.5275590551181102,
                    "duration": 0.10985800000000268
                },
                {
                    "name": "C5",
                    "midi": 72,
                    "time": 170.38975799999895,
                    "velocity": 0.5118110236220472,
                    "duration": 0.10985800000000268
                },
                {
                    "name": "D5",
                    "midi": 74,
                    "time": 170.49961599999895,
                    "velocity": 0.3858267716535433,
                    "duration": 0.05492899999998713
                },
                {
                    "name": "E5",
                    "midi": 76,
                    "time": 170.55454499999894,
                    "velocity": 0.2992125984251969,
                    "duration": 0.05492899999998713
                },
                {
                    "name": "D5",
                    "midi": 74,
                    "time": 170.60947399999893,
                    "velocity": 0.3858267716535433,
                    "duration": 0.05492899999998713
                },
                {
                    "name": "E5",
                    "midi": 76,
                    "time": 170.6644029999989,
                    "velocity": 0.31496062992125984,
                    "duration": 0.05492899999998713
                },
                {
                    "name": "D5",
                    "midi": 74,
                    "time": 170.7193319999989,
                    "velocity": 0.3937007874015748,
                    "duration": 0.05492899999998713
                },
                {
                    "name": "E5",
                    "midi": 76,
                    "time": 170.7742609999989,
                    "velocity": 0.31496062992125984,
                    "duration": 0.05492899999998713
                },
                {
                    "name": "D5",
                    "midi": 74,
                    "time": 170.82918999999887,
                    "velocity": 0.3937007874015748,
                    "duration": 0.05492899999998713
                },
                {
                    "name": "E5",
                    "midi": 76,
                    "time": 170.88411899999886,
                    "velocity": 0.31496062992125984,
                    "duration": 0.05492899999998713
                },
                {
                    "name": "D5",
                    "midi": 74,
                    "time": 170.93904799999885,
                    "velocity": 0.4094488188976378,
                    "duration": 0.05492899999998713
                },
                {
                    "name": "E5",
                    "midi": 76,
                    "time": 170.99397699999884,
                    "velocity": 0.31496062992125984,
                    "duration": 0.05492899999998713
                },
                {
                    "name": "D5",
                    "midi": 74,
                    "time": 171.04890599999882,
                    "velocity": 0.4094488188976378,
                    "duration": 0.05492899999998713
                },
                {
                    "name": "E5",
                    "midi": 76,
                    "time": 171.1038349999988,
                    "velocity": 0.3228346456692913,
                    "duration": 0.05492899999998713
                },
                {
                    "name": "D5",
                    "midi": 74,
                    "time": 171.1587639999988,
                    "velocity": 0.41732283464566927,
                    "duration": 0.05492899999998713
                },
                {
                    "name": "E5",
                    "midi": 76,
                    "time": 171.21369299999878,
                    "velocity": 0.3228346456692913,
                    "duration": 0.05492899999998713
                },
                {
                    "name": "D5",
                    "midi": 74,
                    "time": 171.26862199999877,
                    "velocity": 0.41732283464566927,
                    "duration": 0.05492899999998713
                },
                {
                    "name": "E5",
                    "midi": 76,
                    "time": 171.32355099999876,
                    "velocity": 0.33070866141732286,
                    "duration": 0.05492899999998713
                },
                {
                    "name": "D5",
                    "midi": 74,
                    "time": 171.37847999999875,
                    "velocity": 0.4251968503937008,
                    "duration": 0.05492899999998713
                },
                {
                    "name": "E5",
                    "midi": 76,
                    "time": 171.43340899999873,
                    "velocity": 0.33858267716535434,
                    "duration": 0.05492899999998713
                },
                {
                    "name": "D5",
                    "midi": 74,
                    "time": 171.48833799999872,
                    "velocity": 0.4251968503937008,
                    "duration": 0.05492899999998713
                },
                {
                    "name": "E5",
                    "midi": 76,
                    "time": 171.5432669999987,
                    "velocity": 0.3543307086614173,
                    "duration": 0.05492899999998713
                },
                {
                    "name": "D5",
                    "midi": 74,
                    "time": 171.5981959999987,
                    "velocity": 0.4251968503937008,
                    "duration": 0.05492899999998713
                },
                {
                    "name": "E5",
                    "midi": 76,
                    "time": 171.65312499999868,
                    "velocity": 0.3464566929133858,
                    "duration": 0.05492899999998713
                },
                {
                    "name": "D5",
                    "midi": 74,
                    "time": 171.70805399999867,
                    "velocity": 0.4251968503937008,
                    "duration": 0.05492899999998713
                },
                {
                    "name": "E5",
                    "midi": 76,
                    "time": 171.76298299999866,
                    "velocity": 0.3464566929133858,
                    "duration": 0.05492899999998713
                },
                {
                    "name": "D5",
                    "midi": 74,
                    "time": 171.81791199999864,
                    "velocity": 0.41732283464566927,
                    "duration": 0.05492899999998713
                },
                {
                    "name": "E5",
                    "midi": 76,
                    "time": 171.87284099999863,
                    "velocity": 0.3543307086614173,
                    "duration": 0.05492899999998713
                },
                {
                    "name": "D5",
                    "midi": 74,
                    "time": 171.92776999999862,
                    "velocity": 0.41732283464566927,
                    "duration": 0.05492899999998713
                },
                {
                    "name": "E5",
                    "midi": 76,
                    "time": 171.9826989999986,
                    "velocity": 0.33070866141732286,
                    "duration": 0.05492899999998713
                },
                {
                    "name": "D5",
                    "midi": 74,
                    "time": 172.0376279999986,
                    "velocity": 0.41732283464566927,
                    "duration": 0.07323866666666845
                },
                {
                    "name": "C5",
                    "midi": 72,
                    "time": 172.11086666666526,
                    "velocity": 0.4645669291338583,
                    "duration": 0.07323866666666845
                },
                {
                    "name": "D5",
                    "midi": 74,
                    "time": 172.18410533333193,
                    "velocity": 0.4566929133858268,
                    "duration": 0.07323866666666845
                },
                {
                    "name": "C5",
                    "midi": 72,
                    "time": 172.2573439999986,
                    "velocity": 0.5433070866141733,
                    "duration": 0.4394320000000107
                },
                {
                    "name": "C5",
                    "midi": 72,
                    "time": 172.6967759999986,
                    "velocity": 0.5275590551181102,
                    "duration": 0.10985800000000268
                },
                {
                    "name": "G4",
                    "midi": 67,
                    "time": 172.8066339999986,
                    "velocity": 0.4645669291338583,
                    "duration": 0.10985800000000268
                },
                {
                    "name": "C5",
                    "midi": 72,
                    "time": 172.9164919999986,
                    "velocity": 0.4881889763779528,
                    "duration": 0.10985800000000268
                },
                {
                    "name": "E5",
                    "midi": 76,
                    "time": 173.02634999999862,
                    "velocity": 0.5118110236220472,
                    "duration": 0.10985800000000268
                },
                {
                    "name": "G5",
                    "midi": 79,
                    "time": 173.13620799999862,
                    "velocity": 0.5354330708661418,
                    "duration": 0.10985800000000268
                },
                {
                    "name": "E5",
                    "midi": 76,
                    "time": 173.24606599999862,
                    "velocity": 0.49606299212598426,
                    "duration": 0.10985800000000268
                },
                {
                    "name": "C5",
                    "midi": 72,
                    "time": 173.35592399999862,
                    "velocity": 0.5354330708661418,
                    "duration": 0.10985800000000268
                },
                {
                    "name": "E5",
                    "midi": 76,
                    "time": 173.46578199999863,
                    "velocity": 0.49606299212598426,
                    "duration": 0.10985800000000268
                },
                {
                    "name": "F5",
                    "midi": 77,
                    "time": 173.57563999999863,
                    "velocity": 0.5433070866141733,
                    "duration": 0.10985800000000268
                },
                {
                    "name": "D5",
                    "midi": 74,
                    "time": 173.68549799999863,
                    "velocity": 0.49606299212598426,
                    "duration": 0.10985800000000268
                },
                {
                    "name": "B4",
                    "midi": 71,
                    "time": 173.79535599999863,
                    "velocity": 0.5433070866141733,
                    "duration": 0.10985800000000268
                },
                {
                    "name": "D5",
                    "midi": 74,
                    "time": 173.90521399999864,
                    "velocity": 0.49606299212598426,
                    "duration": 0.10985800000000268
                },
                {
                    "name": "C5",
                    "midi": 72,
                    "time": 174.01507199999864,
                    "velocity": 0.5433070866141733,
                    "duration": 0.4394320000000107
                },
                {
                    "name": "C4",
                    "midi": 60,
                    "time": 174.45450399999865,
                    "velocity": 0.5275590551181102,
                    "duration": 0.10985800000000268
                },
                {
                    "name": "G3",
                    "midi": 55,
                    "time": 174.56436199999865,
                    "velocity": 0.4645669291338583,
                    "duration": 0.10985800000000268
                },
                {
                    "name": "C4",
                    "midi": 60,
                    "time": 174.67421999999866,
                    "velocity": 0.4881889763779528,
                    "duration": 0.10985800000000268
                },
                {
                    "name": "E4",
                    "midi": 64,
                    "time": 174.78407799999866,
                    "velocity": 0.5118110236220472,
                    "duration": 0.10985800000000268
                },
                {
                    "name": "G4",
                    "midi": 67,
                    "time": 174.89393599999866,
                    "velocity": 0.5354330708661418,
                    "duration": 0.10985800000000268
                },
                {
                    "name": "E4",
                    "midi": 64,
                    "time": 175.00379399999866,
                    "velocity": 0.49606299212598426,
                    "duration": 0.10985800000000268
                },
                {
                    "name": "C4",
                    "midi": 60,
                    "time": 175.11365199999867,
                    "velocity": 0.5354330708661418,
                    "duration": 0.10985800000000268
                },
                {
                    "name": "E4",
                    "midi": 64,
                    "time": 175.22350999999867,
                    "velocity": 0.49606299212598426,
                    "duration": 0.10985800000000268
                },
                {
                    "name": "F4",
                    "midi": 65,
                    "time": 175.33336799999867,
                    "velocity": 0.5433070866141733,
                    "duration": 0.10985800000000268
                },
                {
                    "name": "D4",
                    "midi": 62,
                    "time": 175.44322599999867,
                    "velocity": 0.49606299212598426,
                    "duration": 0.10985800000000268
                },
                {
                    "name": "B3",
                    "midi": 59,
                    "time": 175.55308399999868,
                    "velocity": 0.5433070866141733,
                    "duration": 0.10985800000000268
                },
                {
                    "name": "D4",
                    "midi": 62,
                    "time": 175.66294199999868,
                    "velocity": 0.49606299212598426,
                    "duration": 0.10985800000000268
                },
                {
                    "name": "C4",
                    "midi": 60,
                    "time": 175.77279999999868,
                    "velocity": 0.5826771653543307,
                    "duration": 0.10985800000000268
                },
                {
                    "name": "G5",
                    "midi": 79,
                    "time": 176.2122319999987,
                    "velocity": 0.5669291338582677,
                    "duration": 0.10985800000000268
                },
                {
                    "name": "C6",
                    "midi": 84,
                    "time": 176.2122319999987,
                    "velocity": 0.6692913385826772,
                    "duration": 0.10985800000000268
                },
                {
                    "name": "E5",
                    "midi": 76,
                    "time": 176.2122319999987,
                    "velocity": 0.5118110236220472,
                    "duration": 0.10985800000000268
                },
                {
                    "name": "C5",
                    "midi": 72,
                    "time": 176.6516639999987,
                    "velocity": 0.6535433070866141,
                    "duration": 0.4394320000000107
                },
                {
                    "name": "G4",
                    "midi": 67,
                    "time": 177.53052799999872,
                    "velocity": 0.5433070866141733,
                    "duration": 0.4394320000000107
                },
                {
                    "name": "G5",
                    "midi": 79,
                    "time": 177.96995999999874,
                    "velocity": 0.5275590551181102,
                    "duration": 0.10985800000000268
                },
                {
                    "name": "D5",
                    "midi": 74,
                    "time": 178.07981799999874,
                    "velocity": 0.4645669291338583,
                    "duration": 0.10985800000000268
                },
                {
                    "name": "G5",
                    "midi": 79,
                    "time": 178.18967599999874,
                    "velocity": 0.4881889763779528,
                    "duration": 0.10985800000000268
                },
                {
                    "name": "A#5",
                    "midi": 82,
                    "time": 178.29953399999874,
                    "velocity": 0.5118110236220472,
                    "duration": 0.10985800000000268
                },
                {
                    "name": "D6",
                    "midi": 86,
                    "time": 178.40939199999875,
                    "velocity": 0.5354330708661418,
                    "duration": 0.10985800000000268
                },
                {
                    "name": "A#5",
                    "midi": 82,
                    "time": 178.51924999999875,
                    "velocity": 0.49606299212598426,
                    "duration": 0.10985800000000268
                },
                {
                    "name": "G5",
                    "midi": 79,
                    "time": 178.62910799999875,
                    "velocity": 0.5354330708661418,
                    "duration": 0.10985800000000268
                },
                {
                    "name": "A#5",
                    "midi": 82,
                    "time": 178.73896599999875,
                    "velocity": 0.49606299212598426,
                    "duration": 0.10985800000000268
                },
                {
                    "name": "C6",
                    "midi": 84,
                    "time": 178.84882399999876,
                    "velocity": 0.5433070866141733,
                    "duration": 0.10985800000000268
                },
                {
                    "name": "A5",
                    "midi": 81,
                    "time": 178.95868199999876,
                    "velocity": 0.49606299212598426,
                    "duration": 0.10985800000000268
                },
                {
                    "name": "F#5",
                    "midi": 78,
                    "time": 179.06853999999876,
                    "velocity": 0.5433070866141733,
                    "duration": 0.10985800000000268
                },
                {
                    "name": "A5",
                    "midi": 81,
                    "time": 179.17839799999877,
                    "velocity": 0.49606299212598426,
                    "duration": 0.10985800000000268
                },
                {
                    "name": "G5",
                    "midi": 79,
                    "time": 179.28825599999877,
                    "velocity": 0.5433070866141733,
                    "duration": 0.4394320000000107
                },
                {
                    "name": "G4",
                    "midi": 67,
                    "time": 179.72768799999878,
                    "velocity": 0.5275590551181102,
                    "duration": 0.10985800000000268
                },
                {
                    "name": "D4",
                    "midi": 62,
                    "time": 179.83754599999878,
                    "velocity": 0.4645669291338583,
                    "duration": 0.10985800000000268
                },
                {
                    "name": "G4",
                    "midi": 67,
                    "time": 179.94740399999878,
                    "velocity": 0.4881889763779528,
                    "duration": 0.10985800000000268
                },
                {
                    "name": "A#4",
                    "midi": 70,
                    "time": 180.0572619999988,
                    "velocity": 0.5118110236220472,
                    "duration": 0.10985800000000268
                },
                {
                    "name": "D5",
                    "midi": 74,
                    "time": 180.1671199999988,
                    "velocity": 0.5354330708661418,
                    "duration": 0.10985800000000268
                },
                {
                    "name": "A#4",
                    "midi": 70,
                    "time": 180.2769779999988,
                    "velocity": 0.49606299212598426,
                    "duration": 0.10985800000000268
                },
                {
                    "name": "G4",
                    "midi": 67,
                    "time": 180.3868359999988,
                    "velocity": 0.5354330708661418,
                    "duration": 0.10985800000000268
                },
                {
                    "name": "A#4",
                    "midi": 70,
                    "time": 180.4966939999988,
                    "velocity": 0.49606299212598426,
                    "duration": 0.10985800000000268
                },
                {
                    "name": "C5",
                    "midi": 72,
                    "time": 180.6065519999988,
                    "velocity": 0.5433070866141733,
                    "duration": 0.10985800000000268
                },
                {
                    "name": "A4",
                    "midi": 69,
                    "time": 180.7164099999988,
                    "velocity": 0.49606299212598426,
                    "duration": 0.10985800000000268
                },
                {
                    "name": "F#4",
                    "midi": 66,
                    "time": 180.8262679999988,
                    "velocity": 0.5433070866141733,
                    "duration": 0.10985800000000268
                },
                {
                    "name": "A4",
                    "midi": 69,
                    "time": 180.9361259999988,
                    "velocity": 0.49606299212598426,
                    "duration": 0.10985800000000268
                },
                {
                    "name": "G4",
                    "midi": 67,
                    "time": 181.0459839999988,
                    "velocity": 0.5826771653543307,
                    "duration": 0.4394320000000107
                },
                {
                    "name": "G5",
                    "midi": 79,
                    "time": 182.03470599999883,
                    "velocity": 0.5354330708661418,
                    "duration": 0.12084379999998873
                },
                {
                    "name": "A#5",
                    "midi": 82,
                    "time": 182.14456399999884,
                    "velocity": 0.5669291338582677,
                    "duration": 0.12084379999996031
                },
                {
                    "name": "A5",
                    "midi": 81,
                    "time": 182.2544219999988,
                    "velocity": 0.5511811023622047,
                    "duration": 0.12084379999996031
                },
                {
                    "name": "G5",
                    "midi": 79,
                    "time": 182.3642799999988,
                    "velocity": 0.5354330708661418,
                    "duration": 0.12084379999996031
                },
                {
                    "name": "F5",
                    "midi": 77,
                    "time": 182.47413799999876,
                    "velocity": 0.5275590551181102,
                    "duration": 0.12084379999996031
                },
                {
                    "name": "E5",
                    "midi": 76,
                    "time": 182.58399599999873,
                    "velocity": 0.5118110236220472,
                    "duration": 0.12084379999996031
                },
                {
                    "name": "D5",
                    "midi": 74,
                    "time": 182.6938539999987,
                    "velocity": 0.5039370078740157,
                    "duration": 0.12084379999996031
                },
                {
                    "name": "C#5",
                    "midi": 73,
                    "time": 182.80371199999868,
                    "velocity": 0.5511811023622047,
                    "duration": 0.4394319999999823
                },
                {
                    "name": "C#6",
                    "midi": 85,
                    "time": 183.79243399999868,
                    "velocity": 0.5905511811023622,
                    "duration": 0.12084379999998873
                },
                {
                    "name": "E6",
                    "midi": 88,
                    "time": 183.90229199999868,
                    "velocity": 0.6220472440944882,
                    "duration": 0.12084379999996031
                },
                {
                    "name": "D6",
                    "midi": 86,
                    "time": 184.01214999999866,
                    "velocity": 0.6062992125984252,
                    "duration": 0.12084379999996031
                },
                {
                    "name": "C#6",
                    "midi": 85,
                    "time": 184.12200799999863,
                    "velocity": 0.5826771653543307,
                    "duration": 0.12084379999996031
                },
                {
                    "name": "A#5",
                    "midi": 82,
                    "time": 184.2318659999986,
                    "velocity": 0.5669291338582677,
                    "duration": 0.12084379999996031
                },
                {
                    "name": "A5",
                    "midi": 81,
                    "time": 184.34172399999858,
                    "velocity": 0.5511811023622047,
                    "duration": 0.12084379999996031
                },
                {
                    "name": "G5",
                    "midi": 79,
                    "time": 184.45158199999855,
                    "velocity": 0.5669291338582677,
                    "duration": 0.12084379999996031
                },
                {
                    "name": "F5",
                    "midi": 77,
                    "time": 184.56143999999853,
                    "velocity": 0.6692913385826772,
                    "duration": 0.4394319999999823
                },
                {
                    "name": "D5",
                    "midi": 74,
                    "time": 185.0008719999985,
                    "velocity": 0.5748031496062992,
                    "duration": 0.10985800000000268
                },
                {
                    "name": "A4",
                    "midi": 69,
                    "time": 185.1107299999985,
                    "velocity": 0.5039370078740157,
                    "duration": 0.10985800000000268
                },
                {
                    "name": "D5",
                    "midi": 74,
                    "time": 185.22058799999851,
                    "velocity": 0.5354330708661418,
                    "duration": 0.10985800000000268
                },
                {
                    "name": "F5",
                    "midi": 77,
                    "time": 185.33044599999852,
                    "velocity": 0.5590551181102362,
                    "duration": 0.10985800000000268
                },
                {
                    "name": "A5",
                    "midi": 81,
                    "time": 185.44030399999852,
                    "velocity": 0.5826771653543307,
                    "duration": 0.10985800000000268
                },
                {
                    "name": "F5",
                    "midi": 77,
                    "time": 185.55016199999852,
                    "velocity": 0.5433070866141733,
                    "duration": 0.10985800000000268
                },
                {
                    "name": "D5",
                    "midi": 74,
                    "time": 185.66001999999853,
                    "velocity": 0.5826771653543307,
                    "duration": 0.10985800000000268
                },
                {
                    "name": "F5",
                    "midi": 77,
                    "time": 185.76987799999853,
                    "velocity": 0.5433070866141733,
                    "duration": 0.10985800000000268
                },
                {
                    "name": "G5",
                    "midi": 79,
                    "time": 185.87973599999853,
                    "velocity": 0.5905511811023622,
                    "duration": 0.10985800000000268
                },
                {
                    "name": "E5",
                    "midi": 76,
                    "time": 185.98959399999853,
                    "velocity": 0.5433070866141733,
                    "duration": 0.10985800000000268
                },
                {
                    "name": "C#5",
                    "midi": 73,
                    "time": 186.09945199999854,
                    "velocity": 0.5905511811023622,
                    "duration": 0.10985800000000268
                },
                {
                    "name": "E5",
                    "midi": 76,
                    "time": 186.20930999999854,
                    "velocity": 0.5433070866141733,
                    "duration": 0.10985800000000268
                },
                {
                    "name": "D5",
                    "midi": 74,
                    "time": 186.31916799999854,
                    "velocity": 0.5905511811023622,
                    "duration": 0.4394320000000107
                },
                {
                    "name": "D4",
                    "midi": 62,
                    "time": 186.75859999999855,
                    "velocity": 0.5275590551181102,
                    "duration": 0.10985800000000268
                },
                {
                    "name": "A3",
                    "midi": 57,
                    "time": 186.86845799999855,
                    "velocity": 0.4645669291338583,
                    "duration": 0.10985800000000268
                },
                {
                    "name": "D4",
                    "midi": 62,
                    "time": 186.97831599999856,
                    "velocity": 0.4881889763779528,
                    "duration": 0.10985800000000268
                },
                {
                    "name": "F4",
                    "midi": 65,
                    "time": 187.08817399999856,
                    "velocity": 0.5118110236220472,
                    "duration": 0.10985800000000268
                },
                {
                    "name": "A4",
                    "midi": 69,
                    "time": 187.19803199999856,
                    "velocity": 0.5354330708661418,
                    "duration": 0.10985800000000268
                },
                {
                    "name": "F4",
                    "midi": 65,
                    "time": 187.30788999999857,
                    "velocity": 0.49606299212598426,
                    "duration": 0.10985800000000268
                },
                {
                    "name": "D4",
                    "midi": 62,
                    "time": 187.41774799999857,
                    "velocity": 0.5354330708661418,
                    "duration": 0.10985800000000268
                },
                {
                    "name": "F4",
                    "midi": 65,
                    "time": 187.52760599999857,
                    "velocity": 0.49606299212598426,
                    "duration": 0.10985800000000268
                },
                {
                    "name": "G4",
                    "midi": 67,
                    "time": 187.63746399999857,
                    "velocity": 0.5433070866141733,
                    "duration": 0.10985800000000268
                },
                {
                    "name": "E4",
                    "midi": 64,
                    "time": 187.74732199999858,
                    "velocity": 0.49606299212598426,
                    "duration": 0.10985800000000268
                },
                {
                    "name": "C#4",
                    "midi": 61,
                    "time": 187.85717999999858,
                    "velocity": 0.5433070866141733,
                    "duration": 0.10985800000000268
                },
                {
                    "name": "E4",
                    "midi": 64,
                    "time": 187.96703799999858,
                    "velocity": 0.49606299212598426,
                    "duration": 0.10985800000000268
                },
                {
                    "name": "D4",
                    "midi": 62,
                    "time": 188.1867539999986,
                    "velocity": 0.4251968503937008,
                    "duration": 0.12084379999998873
                },
                {
                    "name": "E4",
                    "midi": 64,
                    "time": 188.2966119999986,
                    "velocity": 0.4409448818897638,
                    "duration": 0.12084379999996031
                },
                {
                    "name": "F4",
                    "midi": 65,
                    "time": 188.40646999999856,
                    "velocity": 0.4566929133858268,
                    "duration": 0.12084379999996031
                },
                {
                    "name": "G4",
                    "midi": 67,
                    "time": 188.51632799999854,
                    "velocity": 0.47244094488188976,
                    "duration": 0.12084379999996031
                },
                {
                    "name": "A4",
                    "midi": 69,
                    "time": 188.6261859999985,
                    "velocity": 0.48031496062992124,
                    "duration": 0.12084379999996031
                },
                {
                    "name": "B4",
                    "midi": 71,
                    "time": 188.7360439999985,
                    "velocity": 0.49606299212598426,
                    "duration": 0.12084379999996031
                },
                {
                    "name": "C#5",
                    "midi": 73,
                    "time": 188.84590199999846,
                    "velocity": 0.5118110236220472,
                    "duration": 0.12084379999996031
                },
                {
                    "name": "D5",
                    "midi": 74,
                    "time": 188.95575999999843,
                    "velocity": 0.5196850393700787,
                    "duration": 0.4394319999999823
                },
                {
                    "name": "B4",
                    "midi": 71,
                    "time": 189.94448199999843,
                    "velocity": 0.4566929133858268,
                    "duration": 0.12084379999998873
                },
                {
                    "name": "C5",
                    "midi": 72,
                    "time": 190.05433999999843,
                    "velocity": 0.47244094488188976,
                    "duration": 0.12084379999996031
                },
                {
                    "name": "D5",
                    "midi": 74,
                    "time": 190.1641979999984,
                    "velocity": 0.48031496062992124,
                    "duration": 0.12084379999996031
                },
                {
                    "name": "E5",
                    "midi": 76,
                    "time": 190.27405599999838,
                    "velocity": 0.49606299212598426,
                    "duration": 0.12084379999996031
                },
                {
                    "name": "F#5",
                    "midi": 78,
                    "time": 190.38391399999836,
                    "velocity": 0.5039370078740157,
                    "duration": 0.12084379999996031
                },
                {
                    "name": "G#5",
                    "midi": 80,
                    "time": 190.49377199999833,
                    "velocity": 0.5196850393700787,
                    "duration": 0.12084379999996031
                },
                {
                    "name": "A5",
                    "midi": 81,
                    "time": 190.6036299999983,
                    "velocity": 0.5275590551181102,
                    "duration": 0.12084379999996031
                },
                {
                    "name": "B5",
                    "midi": 83,
                    "time": 190.71348799999828,
                    "velocity": 0.5433070866141733,
                    "duration": 0.4394319999999823
                },
                {
                    "name": "A5",
                    "midi": 81,
                    "time": 191.70220999999827,
                    "velocity": 0.5511811023622047,
                    "duration": 0.12084379999998873
                },
                {
                    "name": "E6",
                    "midi": 88,
                    "time": 191.81206799999828,
                    "velocity": 0.6062992125984252,
                    "duration": 0.12084379999996031
                },
                {
                    "name": "D6",
                    "midi": 86,
                    "time": 191.92192599999825,
                    "velocity": 0.5511811023622047,
                    "duration": 0.12084379999996031
                },
                {
                    "name": "C6",
                    "midi": 84,
                    "time": 192.03178399999823,
                    "velocity": 0.5590551181102362,
                    "duration": 0.12084379999996031
                },
                {
                    "name": "B5",
                    "midi": 83,
                    "time": 192.1416419999982,
                    "velocity": 0.5669291338582677,
                    "duration": 0.12084379999996031
                },
                {
                    "name": "A5",
                    "midi": 81,
                    "time": 192.25149999999817,
                    "velocity": 0.5748031496062992,
                    "duration": 0.12084379999996031
                },
                {
                    "name": "G5",
                    "midi": 79,
                    "time": 192.36135799999815,
                    "velocity": 0.5826771653543307,
                    "duration": 0.12084379999996031
                },
                {
                    "name": "F5",
                    "midi": 77,
                    "time": 192.47121599999812,
                    "velocity": 0.6141732283464567,
                    "duration": 0.4394319999999823
                },
                {
                    "name": "G5",
                    "midi": 79,
                    "time": 193.45993799999812,
                    "velocity": 0.5039370078740157,
                    "duration": 0.12084379999998873
                },
                {
                    "name": "D6",
                    "midi": 86,
                    "time": 193.56979599999812,
                    "velocity": 0.5433070866141733,
                    "duration": 0.12084379999996031
                },
                {
                    "name": "C6",
                    "midi": 84,
                    "time": 193.6796539999981,
                    "velocity": 0.49606299212598426,
                    "duration": 0.12084379999996031
                },
                {
                    "name": "B5",
                    "midi": 83,
                    "time": 193.78951199999807,
                    "velocity": 0.5039370078740157,
                    "duration": 0.12084379999996031
                },
                {
                    "name": "A5",
                    "midi": 81,
                    "time": 193.89936999999804,
                    "velocity": 0.5196850393700787,
                    "duration": 0.12084379999996031
                },
                {
                    "name": "G5",
                    "midi": 79,
                    "time": 194.00922799999802,
                    "velocity": 0.5275590551181102,
                    "duration": 0.12084379999996031
                },
                {
                    "name": "F5",
                    "midi": 77,
                    "time": 194.119085999998,
                    "velocity": 0.5433070866141733,
                    "duration": 0.12084379999996031
                },
                {
                    "name": "E5",
                    "midi": 76,
                    "time": 194.22894399999797,
                    "velocity": 0.5590551181102362,
                    "duration": 0.4394319999999823
                },
                {
                    "name": "F5",
                    "midi": 77,
                    "time": 195.21766599999796,
                    "velocity": 0.47244094488188976,
                    "duration": 0.12084379999998873
                },
                {
                    "name": "C6",
                    "midi": 84,
                    "time": 195.32752399999796,
                    "velocity": 0.5196850393700787,
                    "duration": 0.12084379999996031
                },
                {
                    "name": "B5",
                    "midi": 83,
                    "time": 195.43738199999794,
                    "velocity": 0.5511811023622047,
                    "duration": 0.12084379999996031
                },
                {
                    "name": "A5",
                    "midi": 81,
                    "time": 195.5472399999979,
                    "velocity": 0.5433070866141733,
                    "duration": 0.12084379999996031
                },
                {
                    "name": "G5",
                    "midi": 79,
                    "time": 195.6570979999979,
                    "velocity": 0.5354330708661418,
                    "duration": 0.12084379999996031
                },
                {
                    "name": "F5",
                    "midi": 77,
                    "time": 195.76695599999786,
                    "velocity": 0.5196850393700787,
                    "duration": 0.12084379999996031
                },
                {
                    "name": "E5",
                    "midi": 76,
                    "time": 195.87681399999784,
                    "velocity": 0.5118110236220472,
                    "duration": 0.12084379999996031
                },
                {
                    "name": "D5",
                    "midi": 74,
                    "time": 195.9866719999978,
                    "velocity": 0.5433070866141733,
                    "duration": 0.4394319999999823
                },
                {
                    "name": "E5",
                    "midi": 76,
                    "time": 196.9753939999978,
                    "velocity": 0.4645669291338583,
                    "duration": 0.12084379999998873
                },
                {
                    "name": "B5",
                    "midi": 83,
                    "time": 197.0852519999978,
                    "velocity": 0.5275590551181102,
                    "duration": 0.12084379999996031
                },
                {
                    "name": "A5",
                    "midi": 81,
                    "time": 197.19510999999778,
                    "velocity": 0.5275590551181102,
                    "duration": 0.12084379999996031
                },
                {
                    "name": "G#5",
                    "midi": 80,
                    "time": 197.30496799999776,
                    "velocity": 0.5196850393700787,
                    "duration": 0.12084379999996031
                },
                {
                    "name": "F5",
                    "midi": 77,
                    "time": 197.41482599999773,
                    "velocity": 0.5118110236220472,
                    "duration": 0.12084379999996031
                },
                {
                    "name": "E5",
                    "midi": 76,
                    "time": 197.5246839999977,
                    "velocity": 0.5039370078740157,
                    "duration": 0.12084379999996031
                },
                {
                    "name": "D5",
                    "midi": 74,
                    "time": 197.63454199999768,
                    "velocity": 0.49606299212598426,
                    "duration": 0.12084379999996031
                },
                {
                    "name": "C5",
                    "midi": 72,
                    "time": 197.74439999999765,
                    "velocity": 0.5196850393700787,
                    "duration": 0.4394319999999823
                },
                {
                    "name": "A#4",
                    "midi": 70,
                    "time": 198.73312199999765,
                    "velocity": 0.4566929133858268,
                    "duration": 0.12084379999998873
                },
                {
                    "name": "D5",
                    "midi": 74,
                    "time": 198.84297999999765,
                    "velocity": 0.5039370078740157,
                    "duration": 0.12084379999996031
                },
                {
                    "name": "C5",
                    "midi": 72,
                    "time": 198.95283799999763,
                    "velocity": 0.4645669291338583,
                    "duration": 0.12084379999996031
                },
                {
                    "name": "A#4",
                    "midi": 70,
                    "time": 199.0626959999976,
                    "velocity": 0.5039370078740157,
                    "duration": 0.12084379999996031
                },
                {
                    "name": "A4",
                    "midi": 69,
                    "time": 199.17255399999758,
                    "velocity": 0.49606299212598426,
                    "duration": 0.12084379999996031
                },
                {
                    "name": "G4",
                    "midi": 67,
                    "time": 199.28241199999755,
                    "velocity": 0.48031496062992124,
                    "duration": 0.12084379999996031
                },
                {
                    "name": "F4",
                    "midi": 65,
                    "time": 199.39226999999752,
                    "velocity": 0.47244094488188976,
                    "duration": 0.10985799999997425
                },
                {
                    "name": "E4",
                    "midi": 64,
                    "time": 199.5021279999975,
                    "velocity": 0.4645669291338583,
                    "duration": 0.12084379999998873
                },
                {
                    "name": "F4",
                    "midi": 65,
                    "time": 199.6119859999975,
                    "velocity": 0.44881889763779526,
                    "duration": 0.12084379999996031
                },
                {
                    "name": "G4",
                    "midi": 67,
                    "time": 199.72184399999747,
                    "velocity": 0.4409448818897638,
                    "duration": 0.12084379999996031
                },
                {
                    "name": "A4",
                    "midi": 69,
                    "time": 199.83170199999745,
                    "velocity": 0.4330708661417323,
                    "duration": 0.12084379999996031
                },
                {
                    "name": "A#4",
                    "midi": 70,
                    "time": 199.94155999999742,
                    "velocity": 0.41732283464566927,
                    "duration": 0.12084379999996031
                },
                {
                    "name": "C5",
                    "midi": 72,
                    "time": 200.0514179999974,
                    "velocity": 0.4094488188976378,
                    "duration": 0.12084379999996031
                },
                {
                    "name": "D5",
                    "midi": 74,
                    "time": 200.16127599999737,
                    "velocity": 0.3937007874015748,
                    "duration": 0.12084379999996031
                },
                {
                    "name": "E5",
                    "midi": 76,
                    "time": 200.27113399999735,
                    "velocity": 0.3858267716535433,
                    "duration": 0.10985799999997425
                },
                {
                    "name": "F5",
                    "midi": 77,
                    "time": 200.38099199999732,
                    "velocity": 0.4645669291338583,
                    "duration": 0.878863999999993
                },
                {
                    "name": "A5",
                    "midi": 81,
                    "time": 201.2598559999973,
                    "velocity": 0.4566929133858268,
                    "duration": 0.4394320000000107
                },
                {
                    "name": "C6",
                    "midi": 84,
                    "time": 201.69928799999732,
                    "velocity": 0.4409448818897638,
                    "duration": 0.4394320000000107
                },
                {
                    "name": "E5",
                    "midi": 76,
                    "time": 202.13871999999733,
                    "velocity": 0.47244094488188976,
                    "duration": 0.6591479999999876
                },
                {
                    "name": "F5",
                    "midi": 77,
                    "time": 202.79786799999732,
                    "velocity": 0.4330708661417323,
                    "duration": 0.10985800000000268
                },
                {
                    "name": "G5",
                    "midi": 79,
                    "time": 202.90772599999733,
                    "velocity": 0.4015748031496063,
                    "duration": 0.10985800000000268
                },
                {
                    "name": "F5",
                    "midi": 77,
                    "time": 203.01758399999733,
                    "velocity": 0.47244094488188976,
                    "duration": 0.4394320000000107
                },
                {
                    "name": "D6",
                    "midi": 86,
                    "time": 203.89644799999735,
                    "velocity": 0.5039370078740157,
                    "duration": 0.878863999999993
                },
                {
                    "name": "C6",
                    "midi": 84,
                    "time": 204.77531199999734,
                    "velocity": 0.4881889763779528,
                    "duration": 0.4394320000000107
                },
                {
                    "name": "F6",
                    "midi": 89,
                    "time": 205.21474399999735,
                    "velocity": 0.5039370078740157,
                    "duration": 0.4394320000000107
                },
                {
                    "name": "C6",
                    "midi": 84,
                    "time": 205.65417599999736,
                    "velocity": 0.5039370078740157,
                    "duration": 0.4394320000000107
                },
                {
                    "name": "A#5",
                    "midi": 82,
                    "time": 206.09360799999737,
                    "velocity": 0.4330708661417323,
                    "duration": 0.07323866666666845
                },
                {
                    "name": "C6",
                    "midi": 84,
                    "time": 206.16684666666404,
                    "velocity": 0.4330708661417323,
                    "duration": 0.07323866666666845
                },
                {
                    "name": "A#5",
                    "midi": 82,
                    "time": 206.2400853333307,
                    "velocity": 0.4330708661417323,
                    "duration": 0.07323866666666845
                },
                {
                    "name": "A5",
                    "midi": 81,
                    "time": 206.31332399999738,
                    "velocity": 0.4645669291338583,
                    "duration": 0.10985800000000268
                },
                {
                    "name": "A#5",
                    "midi": 82,
                    "time": 206.42318199999738,
                    "velocity": 0.4330708661417323,
                    "duration": 0.10985800000000268
                },
                {
                    "name": "A5",
                    "midi": 81,
                    "time": 206.53303999999738,
                    "velocity": 0.47244094488188976,
                    "duration": 0.4394320000000107
                },
                {
                    "name": "D5",
                    "midi": 74,
                    "time": 207.4119039999974,
                    "velocity": 0.47244094488188976,
                    "duration": 0.21971600000000535
                },
                {
                    "name": "E5",
                    "midi": 76,
                    "time": 207.6316199999974,
                    "velocity": 0.41732283464566927,
                    "duration": 0.12084379999998873
                },
                {
                    "name": "F5",
                    "midi": 77,
                    "time": 207.74147799999741,
                    "velocity": 0.4251968503937008,
                    "duration": 0.12084379999996031
                },
                {
                    "name": "G5",
                    "midi": 79,
                    "time": 207.8513359999974,
                    "velocity": 0.4330708661417323,
                    "duration": 0.12084379999996031
                },
                {
                    "name": "A5",
                    "midi": 81,
                    "time": 207.96119399999736,
                    "velocity": 0.44881889763779526,
                    "duration": 0.12084379999996031
                },
                {
                    "name": "A#5",
                    "midi": 82,
                    "time": 208.07105199999734,
                    "velocity": 0.4566929133858268,
                    "duration": 0.12084379999996031
                },
                {
                    "name": "C6",
                    "midi": 84,
                    "time": 208.1809099999973,
                    "velocity": 0.4645669291338583,
                    "duration": 0.12084379999996031
                },
                {
                    "name": "D6",
                    "midi": 86,
                    "time": 208.29076799999729,
                    "velocity": 0.4881889763779528,
                    "duration": 0.12084379999996031
                },
                {
                    "name": "C6",
                    "midi": 84,
                    "time": 208.40062599999726,
                    "velocity": 0.48031496062992124,
                    "duration": 0.12084379999996031
                },
                {
                    "name": "A#5",
                    "midi": 82,
                    "time": 208.51048399999723,
                    "velocity": 0.47244094488188976,
                    "duration": 0.12084379999996031
                },
                {
                    "name": "A5",
                    "midi": 81,
                    "time": 208.6203419999972,
                    "velocity": 0.4645669291338583,
                    "duration": 0.12084379999996031
                },
                {
                    "name": "G5",
                    "midi": 79,
                    "time": 208.73019999999718,
                    "velocity": 0.4566929133858268,
                    "duration": 0.12084379999996031
                },
                {
                    "name": "F5",
                    "midi": 77,
                    "time": 208.84005799999716,
                    "velocity": 0.44881889763779526,
                    "duration": 0.12084379999996031
                },
                {
                    "name": "E5",
                    "midi": 76,
                    "time": 208.94991599999713,
                    "velocity": 0.4330708661417323,
                    "duration": 0.12084379999996031
                },
                {
                    "name": "D5",
                    "midi": 74,
                    "time": 209.0597739999971,
                    "velocity": 0.41732283464566927,
                    "duration": 0.12084379999996031
                },
                {
                    "name": "C5",
                    "midi": 72,
                    "time": 209.16963199999708,
                    "velocity": 0.47244094488188976,
                    "duration": 0.21971599999997693
                },
                {
                    "name": "D5",
                    "midi": 74,
                    "time": 209.38934799999706,
                    "velocity": 0.41732283464566927,
                    "duration": 0.12084379999998873
                },
                {
                    "name": "E5",
                    "midi": 76,
                    "time": 209.49920599999706,
                    "velocity": 0.4251968503937008,
                    "duration": 0.12084379999996031
                },
                {
                    "name": "F5",
                    "midi": 77,
                    "time": 209.60906399999703,
                    "velocity": 0.4330708661417323,
                    "duration": 0.12084379999996031
                },
                {
                    "name": "G5",
                    "midi": 79,
                    "time": 209.718921999997,
                    "velocity": 0.44881889763779526,
                    "duration": 0.12084379999996031
                },
                {
                    "name": "A5",
                    "midi": 81,
                    "time": 209.82877999999698,
                    "velocity": 0.4566929133858268,
                    "duration": 0.12084379999996031
                },
                {
                    "name": "A#5",
                    "midi": 82,
                    "time": 209.93863799999696,
                    "velocity": 0.4645669291338583,
                    "duration": 0.12084379999996031
                },
                {
                    "name": "C6",
                    "midi": 84,
                    "time": 210.04849599999693,
                    "velocity": 0.4881889763779528,
                    "duration": 0.12084379999996031
                },
                {
                    "name": "A#5",
                    "midi": 82,
                    "time": 210.1583539999969,
                    "velocity": 0.48031496062992124,
                    "duration": 0.12084379999996031
                },
                {
                    "name": "A5",
                    "midi": 81,
                    "time": 210.26821199999688,
                    "velocity": 0.47244094488188976,
                    "duration": 0.12084379999996031
                },
                {
                    "name": "G5",
                    "midi": 79,
                    "time": 210.37806999999685,
                    "velocity": 0.4645669291338583,
                    "duration": 0.12084379999996031
                },
                {
                    "name": "F5",
                    "midi": 77,
                    "time": 210.48792799999683,
                    "velocity": 0.4566929133858268,
                    "duration": 0.12084379999996031
                },
                {
                    "name": "E5",
                    "midi": 76,
                    "time": 210.5977859999968,
                    "velocity": 0.44881889763779526,
                    "duration": 0.12084379999996031
                },
                {
                    "name": "D5",
                    "midi": 74,
                    "time": 210.70764399999678,
                    "velocity": 0.4330708661417323,
                    "duration": 0.12084379999996031
                },
                {
                    "name": "C5",
                    "midi": 72,
                    "time": 210.81750199999675,
                    "velocity": 0.41732283464566927,
                    "duration": 0.12084379999996031
                },
                {
                    "name": "A#4",
                    "midi": 70,
                    "time": 210.92735999999672,
                    "velocity": 0.47244094488188976,
                    "duration": 0.21971599999997693
                },
                {
                    "name": "C5",
                    "midi": 72,
                    "time": 211.1470759999967,
                    "velocity": 0.41732283464566927,
                    "duration": 0.12084379999998873
                },
                {
                    "name": "D5",
                    "midi": 74,
                    "time": 211.2569339999967,
                    "velocity": 0.4251968503937008,
                    "duration": 0.12084379999996031
                },
                {
                    "name": "E5",
                    "midi": 76,
                    "time": 211.36679199999668,
                    "velocity": 0.4330708661417323,
                    "duration": 0.12084379999996031
                },
                {
                    "name": "F5",
                    "midi": 77,
                    "time": 211.47664999999665,
                    "velocity": 0.44881889763779526,
                    "duration": 0.12084379999996031
                },
                {
                    "name": "G5",
                    "midi": 79,
                    "time": 211.58650799999663,
                    "velocity": 0.4566929133858268,
                    "duration": 0.12084379999996031
                },
                {
                    "name": "A5",
                    "midi": 81,
                    "time": 211.6963659999966,
                    "velocity": 0.4645669291338583,
                    "duration": 0.12084379999996031
                },
                {
                    "name": "A#5",
                    "midi": 82,
                    "time": 211.80622399999658,
                    "velocity": 0.4881889763779528,
                    "duration": 0.12084379999996031
                },
                {
                    "name": "A5",
                    "midi": 81,
                    "time": 211.91608199999655,
                    "velocity": 0.48031496062992124,
                    "duration": 0.12084379999996031
                },
                {
                    "name": "G5",
                    "midi": 79,
                    "time": 212.02593999999652,
                    "velocity": 0.47244094488188976,
                    "duration": 0.12084379999996031
                },
                {
                    "name": "F5",
                    "midi": 77,
                    "time": 212.1357979999965,
                    "velocity": 0.4645669291338583,
                    "duration": 0.12084379999996031
                },
                {
                    "name": "E5",
                    "midi": 76,
                    "time": 212.24565599999647,
                    "velocity": 0.4566929133858268,
                    "duration": 0.12084379999996031
                },
                {
                    "name": "D5",
                    "midi": 74,
                    "time": 212.35551399999645,
                    "velocity": 0.44881889763779526,
                    "duration": 0.12084379999996031
                },
                {
                    "name": "C5",
                    "midi": 72,
                    "time": 212.46537199999642,
                    "velocity": 0.4330708661417323,
                    "duration": 0.12084379999996031
                },
                {
                    "name": "A#4",
                    "midi": 70,
                    "time": 212.5752299999964,
                    "velocity": 0.41732283464566927,
                    "duration": 0.12084379999996031
                },
                {
                    "name": "A4",
                    "midi": 69,
                    "time": 212.68508799999637,
                    "velocity": 0.47244094488188976,
                    "duration": 0.21971599999997693
                },
                {
                    "name": "A#4",
                    "midi": 70,
                    "time": 212.90480399999635,
                    "velocity": 0.41732283464566927,
                    "duration": 0.12084379999998873
                },
                {
                    "name": "C5",
                    "midi": 72,
                    "time": 213.01466199999635,
                    "velocity": 0.4251968503937008,
                    "duration": 0.12084379999996031
                },
                {
                    "name": "D5",
                    "midi": 74,
                    "time": 213.12451999999632,
                    "velocity": 0.4330708661417323,
                    "duration": 0.12084379999996031
                },
                {
                    "name": "E5",
                    "midi": 76,
                    "time": 213.2343779999963,
                    "velocity": 0.44881889763779526,
                    "duration": 0.12084379999996031
                },
                {
                    "name": "F5",
                    "midi": 77,
                    "time": 213.34423599999627,
                    "velocity": 0.4566929133858268,
                    "duration": 0.12084379999996031
                },
                {
                    "name": "G5",
                    "midi": 79,
                    "time": 213.45409399999625,
                    "velocity": 0.4645669291338583,
                    "duration": 0.12084379999996031
                },
                {
                    "name": "A5",
                    "midi": 81,
                    "time": 213.56395199999622,
                    "velocity": 0.4881889763779528,
                    "duration": 0.12084379999996031
                },
                {
                    "name": "G5",
                    "midi": 79,
                    "time": 213.6738099999962,
                    "velocity": 0.48031496062992124,
                    "duration": 0.12084379999996031
                },
                {
                    "name": "F5",
                    "midi": 77,
                    "time": 213.78366799999617,
                    "velocity": 0.47244094488188976,
                    "duration": 0.12084379999996031
                },
                {
                    "name": "E5",
                    "midi": 76,
                    "time": 213.89352599999614,
                    "velocity": 0.4645669291338583,
                    "duration": 0.12084379999996031
                },
                {
                    "name": "D5",
                    "midi": 74,
                    "time": 214.00338399999612,
                    "velocity": 0.4566929133858268,
                    "duration": 0.12084379999996031
                },
                {
                    "name": "C5",
                    "midi": 72,
                    "time": 214.1132419999961,
                    "velocity": 0.44881889763779526,
                    "duration": 0.12084379999996031
                },
                {
                    "name": "A#4",
                    "midi": 70,
                    "time": 214.22309999999607,
                    "velocity": 0.4330708661417323,
                    "duration": 0.12084379999996031
                },
                {
                    "name": "A4",
                    "midi": 69,
                    "time": 214.33295799999604,
                    "velocity": 0.41732283464566927,
                    "duration": 0.12084379999996031
                },
                {
                    "name": "A5",
                    "midi": 81,
                    "time": 214.44281599999601,
                    "velocity": 0.48031496062992124,
                    "duration": 0.4394319999999823
                },
                {
                    "name": "C5",
                    "midi": 72,
                    "time": 215.761111999996,
                    "velocity": 0.4409448818897638,
                    "duration": 0.4394320000000107
                },
                {
                    "name": "A5",
                    "midi": 81,
                    "time": 215.761111999996,
                    "velocity": 0.4409448818897638,
                    "duration": 0.4394320000000107
                },
                {
                    "name": "C5",
                    "midi": 72,
                    "time": 216.200543999996,
                    "velocity": 0.4409448818897638,
                    "duration": 0.4394320000000107
                },
                {
                    "name": "G5",
                    "midi": 79,
                    "time": 216.200543999996,
                    "velocity": 0.4409448818897638,
                    "duration": 0.4394320000000107
                },
                {
                    "name": "C5",
                    "midi": 72,
                    "time": 217.518839999996,
                    "velocity": 0.4409448818897638,
                    "duration": 0.4394320000000107
                },
                {
                    "name": "G5",
                    "midi": 79,
                    "time": 217.518839999996,
                    "velocity": 0.4409448818897638,
                    "duration": 0.4394320000000107
                },
                {
                    "name": "C5",
                    "midi": 72,
                    "time": 217.95827199999601,
                    "velocity": 0.4409448818897638,
                    "duration": 0.4394320000000107
                },
                {
                    "name": "F5",
                    "midi": 77,
                    "time": 217.95827199999601,
                    "velocity": 0.4409448818897638,
                    "duration": 0.4394320000000107
                },
                {
                    "name": "B4",
                    "midi": 71,
                    "time": 219.27656799999602,
                    "velocity": 0.4409448818897638,
                    "duration": 0.4394320000000107
                },
                {
                    "name": "F5",
                    "midi": 77,
                    "time": 219.27656799999602,
                    "velocity": 0.4409448818897638,
                    "duration": 0.4394320000000107
                },
                {
                    "name": "C5",
                    "midi": 72,
                    "time": 219.71599999999603,
                    "velocity": 0.4409448818897638,
                    "duration": 0.4394320000000107
                },
                {
                    "name": "E5",
                    "midi": 76,
                    "time": 219.71599999999603,
                    "velocity": 0.4409448818897638,
                    "duration": 0.4394320000000107
                },
                {
                    "name": "C5",
                    "midi": 72,
                    "time": 221.03429599999603,
                    "velocity": 0.4409448818897638,
                    "duration": 0.4394320000000107
                },
                {
                    "name": "E5",
                    "midi": 76,
                    "time": 221.03429599999603,
                    "velocity": 0.4409448818897638,
                    "duration": 0.4394320000000107
                },
                {
                    "name": "D5",
                    "midi": 74,
                    "time": 221.47372799999604,
                    "velocity": 0.47244094488188976,
                    "duration": 0.10985800000000268
                },
                {
                    "name": "D4",
                    "midi": 62,
                    "time": 221.58358599999605,
                    "velocity": 0.41732283464566927,
                    "duration": 0.12084379999998873
                },
                {
                    "name": "E4",
                    "midi": 64,
                    "time": 221.69344399999605,
                    "velocity": 0.41732283464566927,
                    "duration": 0.12084379999996031
                },
                {
                    "name": "F4",
                    "midi": 65,
                    "time": 221.80330199999602,
                    "velocity": 0.4251968503937008,
                    "duration": 0.12084379999996031
                },
                {
                    "name": "G4",
                    "midi": 67,
                    "time": 221.913159999996,
                    "velocity": 0.4330708661417323,
                    "duration": 0.12084379999996031
                },
                {
                    "name": "A4",
                    "midi": 69,
                    "time": 222.02301799999597,
                    "velocity": 0.44881889763779526,
                    "duration": 0.12084379999996031
                },
                {
                    "name": "B4",
                    "midi": 71,
                    "time": 222.13287599999595,
                    "velocity": 0.4566929133858268,
                    "duration": 0.12084379999996031
                },
                {
                    "name": "C#5",
                    "midi": 73,
                    "time": 222.24273399999592,
                    "velocity": 0.4645669291338583,
                    "duration": 0.12084379999996031
                },
                {
                    "name": "D5",
                    "midi": 74,
                    "time": 222.3525919999959,
                    "velocity": 0.4881889763779528,
                    "duration": 0.10985799999997425
                },
                {
                    "name": "A4",
                    "midi": 69,
                    "time": 222.46244999999587,
                    "velocity": 0.4566929133858268,
                    "duration": 0.12084379999998873
                },
                {
                    "name": "B4",
                    "midi": 71,
                    "time": 222.57230799999587,
                    "velocity": 0.48031496062992124,
                    "duration": 0.12084379999996031
                },
                {
                    "name": "C#5",
                    "midi": 73,
                    "time": 222.68216599999585,
                    "velocity": 0.5039370078740157,
                    "duration": 0.12084379999996031
                },
                {
                    "name": "D5",
                    "midi": 74,
                    "time": 222.79202399999582,
                    "velocity": 0.5196850393700787,
                    "duration": 0.12084379999996031
                },
                {
                    "name": "E5",
                    "midi": 76,
                    "time": 222.9018819999958,
                    "velocity": 0.5275590551181102,
                    "duration": 0.12084379999996031
                },
                {
                    "name": "F5",
                    "midi": 77,
                    "time": 223.01173999999577,
                    "velocity": 0.5354330708661418,
                    "duration": 0.12084379999996031
                },
                {
                    "name": "G5",
                    "midi": 79,
                    "time": 223.12159799999574,
                    "velocity": 0.5433070866141733,
                    "duration": 0.12084379999996031
                },
                {
                    "name": "A5",
                    "midi": 81,
                    "time": 223.23145599999572,
                    "velocity": 0.5511811023622047,
                    "duration": 0.12084379999996031
                },
                {
                    "name": "B5",
                    "midi": 83,
                    "time": 223.3413139999957,
                    "velocity": 0.5433070866141733,
                    "duration": 0.12084379999996031
                },
                {
                    "name": "C6",
                    "midi": 84,
                    "time": 223.45117199999567,
                    "velocity": 0.5590551181102362,
                    "duration": 0.12084379999996031
                },
                {
                    "name": "B5",
                    "midi": 83,
                    "time": 223.56102999999564,
                    "velocity": 0.5433070866141733,
                    "duration": 0.12084379999996031
                },
                {
                    "name": "A5",
                    "midi": 81,
                    "time": 223.6708879999956,
                    "velocity": 0.5275590551181102,
                    "duration": 0.12084379999996031
                },
                {
                    "name": "G5",
                    "midi": 79,
                    "time": 223.7807459999956,
                    "velocity": 0.5118110236220472,
                    "duration": 0.12084379999996031
                },
                {
                    "name": "F5",
                    "midi": 77,
                    "time": 223.89060399999556,
                    "velocity": 0.49606299212598426,
                    "duration": 0.12084379999996031
                },
                {
                    "name": "E5",
                    "midi": 76,
                    "time": 224.00046199999554,
                    "velocity": 0.5196850393700787,
                    "duration": 0.10985799999997425
                },
                {
                    "name": "F5",
                    "midi": 77,
                    "time": 224.1103199999955,
                    "velocity": 0.5118110236220472,
                    "duration": 0.12084379999998873
                },
                {
                    "name": "G5",
                    "midi": 79,
                    "time": 224.2201779999955,
                    "velocity": 0.5196850393700787,
                    "duration": 0.12084379999996031
                },
                {
                    "name": "A5",
                    "midi": 81,
                    "time": 224.3300359999955,
                    "velocity": 0.5275590551181102,
                    "duration": 0.12084379999996031
                },
                {
                    "name": "G5",
                    "midi": 79,
                    "time": 224.43989399999546,
                    "velocity": 0.5275590551181102,
                    "duration": 0.12084379999996031
                },
                {
                    "name": "F5",
                    "midi": 77,
                    "time": 224.54975199999544,
                    "velocity": 0.5354330708661418,
                    "duration": 0.12084379999996031
                },
                {
                    "name": "E5",
                    "midi": 76,
                    "time": 224.6596099999954,
                    "velocity": 0.5590551181102362,
                    "duration": 0.12084379999996031
                },
                {
                    "name": "D5",
                    "midi": 74,
                    "time": 224.76946799999538,
                    "velocity": 0.5748031496062992,
                    "duration": 0.12084379999996031
                },
                {
                    "name": "C5",
                    "midi": 72,
                    "time": 224.87932599999536,
                    "velocity": 0.5984251968503937,
                    "duration": 0.12084379999996031
                },
                {
                    "name": "B4",
                    "midi": 71,
                    "time": 224.98918399999533,
                    "velocity": 0.6141732283464567,
                    "duration": 0.10985799999997425
                },
                {
                    "name": "G5",
                    "midi": 79,
                    "time": 225.2088999999953,
                    "velocity": 0.5590551181102362,
                    "duration": 0.10985800000000268
                },
                {
                    "name": "E5",
                    "midi": 76,
                    "time": 225.42861599999532,
                    "velocity": 0.5590551181102362,
                    "duration": 0.10985800000000268
                },
                {
                    "name": "C5",
                    "midi": 72,
                    "time": 225.64833199999532,
                    "velocity": 0.5590551181102362,
                    "duration": 0.10985800000000268
                },
                {
                    "name": "D5",
                    "midi": 74,
                    "time": 225.86804799999533,
                    "velocity": 0.6141732283464567,
                    "duration": 0.10985800000000268
                },
                {
                    "name": "G5",
                    "midi": 79,
                    "time": 226.08776399999533,
                    "velocity": 0.5590551181102362,
                    "duration": 0.10985800000000268
                },
                {
                    "name": "E5",
                    "midi": 76,
                    "time": 226.30747999999534,
                    "velocity": 0.5590551181102362,
                    "duration": 0.10985800000000268
                },
                {
                    "name": "C5",
                    "midi": 72,
                    "time": 226.52719599999534,
                    "velocity": 0.5590551181102362,
                    "duration": 0.10985800000000268
                },
                {
                    "name": "D5",
                    "midi": 74,
                    "time": 226.74691199999535,
                    "velocity": 0.6377952755905512,
                    "duration": 0.10985800000000268
                },
                {
                    "name": "D5",
                    "midi": 74,
                    "time": 227.18634399999536,
                    "velocity": 0.5590551181102362,
                    "duration": 0.10985800000000268
                },
                {
                    "name": "G5",
                    "midi": 79,
                    "time": 227.18634399999536,
                    "velocity": 0.5590551181102362,
                    "duration": 0.10985800000000268
                },
                {
                    "name": "B4",
                    "midi": 71,
                    "time": 227.18634399999536,
                    "velocity": 0.5590551181102362,
                    "duration": 0.10985800000000268
                },
                {
                    "name": "G4",
                    "midi": 67,
                    "time": 227.62577599999537,
                    "velocity": 0.6535433070866141,
                    "duration": 0.4394320000000107
                },
                {
                    "name": "G5",
                    "midi": 79,
                    "time": 230.26236799999538,
                    "velocity": 0.48031496062992124,
                    "duration": 0.21971600000000535
                },
                {
                    "name": "E5",
                    "midi": 76,
                    "time": 230.48208399999538,
                    "velocity": 0.4330708661417323,
                    "duration": 0.21971600000000535
                },
                {
                    "name": "C5",
                    "midi": 72,
                    "time": 230.7017999999954,
                    "velocity": 0.48031496062992124,
                    "duration": 0.6591479999999876
                },
                {
                    "name": "D5",
                    "midi": 74,
                    "time": 231.36094799999537,
                    "velocity": 0.41732283464566927,
                    "duration": 0.10985800000000268
                },
                {
                    "name": "E5",
                    "midi": 76,
                    "time": 231.47080599999538,
                    "velocity": 0.4015748031496063,
                    "duration": 0.10985800000000268
                },
                {
                    "name": "D5",
                    "midi": 74,
                    "time": 231.58066399999538,
                    "velocity": 0.4330708661417323,
                    "duration": 0.21971600000000535
                },
                {
                    "name": "C5",
                    "midi": 72,
                    "time": 231.80037999999539,
                    "velocity": 0.41732283464566927,
                    "duration": 0.10985800000000268
                },
                {
                    "name": "C5",
                    "midi": 72,
                    "time": 232.0200959999954,
                    "velocity": 0.4330708661417323,
                    "duration": 0.05492899999998713
                },
                {
                    "name": "D5",
                    "midi": 74,
                    "time": 232.07502499999538,
                    "velocity": 0.4015748031496063,
                    "duration": 0.05492899999998713
                },
                {
                    "name": "C5",
                    "midi": 72,
                    "time": 232.12995399999537,
                    "velocity": 0.4409448818897638,
                    "duration": 0.05492899999998713
                },
                {
                    "name": "D5",
                    "midi": 74,
                    "time": 232.18488299999535,
                    "velocity": 0.4015748031496063,
                    "duration": 0.05492899999998713
                },
                {
                    "name": "C5",
                    "midi": 72,
                    "time": 232.23981199999534,
                    "velocity": 0.4566929133858268,
                    "duration": 0.10985800000000268
                },
                {
                    "name": "B4",
                    "midi": 71,
                    "time": 232.34966999999534,
                    "velocity": 0.4094488188976378,
                    "duration": 0.10070316666667622
                },
                {
                    "name": "B4",
                    "midi": 71,
                    "time": 232.45952799999534,
                    "velocity": 0.4566929133858268,
                    "duration": 0.4394320000000107
                },
                {
                    "name": "G5",
                    "midi": 79,
                    "time": 233.77782399999535,
                    "velocity": 0.48031496062992124,
                    "duration": 0.21971600000000535
                },
                {
                    "name": "E5",
                    "midi": 76,
                    "time": 233.99753999999535,
                    "velocity": 0.4330708661417323,
                    "duration": 0.21971600000000535
                },
                {
                    "name": "C5",
                    "midi": 72,
                    "time": 234.21725599999536,
                    "velocity": 0.48031496062992124,
                    "duration": 0.6591479999999876
                },
                {
                    "name": "D5",
                    "midi": 74,
                    "time": 234.87640399999535,
                    "velocity": 0.41732283464566927,
                    "duration": 0.10985800000000268
                },
                {
                    "name": "E5",
                    "midi": 76,
                    "time": 234.98626199999535,
                    "velocity": 0.4015748031496063,
                    "duration": 0.10985800000000268
                },
                {
                    "name": "D5",
                    "midi": 74,
                    "time": 235.09611999999535,
                    "velocity": 0.4330708661417323,
                    "duration": 0.21971600000000535
                },
                {
                    "name": "C5",
                    "midi": 72,
                    "time": 235.31583599999536,
                    "velocity": 0.41732283464566927,
                    "duration": 0.10985800000000268
                },
                {
                    "name": "C5",
                    "midi": 72,
                    "time": 235.53555199999536,
                    "velocity": 0.4330708661417323,
                    "duration": 0.05492899999998713
                },
                {
                    "name": "D5",
                    "midi": 74,
                    "time": 235.59048099999535,
                    "velocity": 0.4015748031496063,
                    "duration": 0.05492899999998713
                },
                {
                    "name": "C5",
                    "midi": 72,
                    "time": 235.64540999999534,
                    "velocity": 0.4409448818897638,
                    "duration": 0.05492899999998713
                },
                {
                    "name": "D5",
                    "midi": 74,
                    "time": 235.70033899999532,
                    "velocity": 0.3937007874015748,
                    "duration": 0.05492899999998713
                },
                {
                    "name": "C5",
                    "midi": 72,
                    "time": 235.7552679999953,
                    "velocity": 0.4330708661417323,
                    "duration": 0.10985800000000268
                },
                {
                    "name": "B4",
                    "midi": 71,
                    "time": 235.8651259999953,
                    "velocity": 0.4094488188976378,
                    "duration": 0.0823934999999949
                },
                {
                    "name": "B4",
                    "midi": 71,
                    "time": 235.97498399999532,
                    "velocity": 0.4566929133858268,
                    "duration": 0.4394320000000107
                },
                {
                    "name": "G5",
                    "midi": 79,
                    "time": 237.29327999999532,
                    "velocity": 0.5118110236220472,
                    "duration": 0.4394320000000107
                },
                {
                    "name": "G5",
                    "midi": 79,
                    "time": 237.84256999999533,
                    "velocity": 0.44881889763779526,
                    "duration": 0.10985800000000268
                },
                {
                    "name": "E5",
                    "midi": 76,
                    "time": 237.95242799999534,
                    "velocity": 0.4881889763779528,
                    "duration": 0.10985800000000268
                },
                {
                    "name": "C5",
                    "midi": 72,
                    "time": 238.06228599999534,
                    "velocity": 0.44881889763779526,
                    "duration": 0.10985800000000268
                },
                {
                    "name": "A4",
                    "midi": 69,
                    "time": 238.17214399999534,
                    "velocity": 0.5039370078740157,
                    "duration": 0.4394320000000107
                },
                {
                    "name": "A4",
                    "midi": 69,
                    "time": 238.72143399999536,
                    "velocity": 0.44881889763779526,
                    "duration": 0.10985800000000268
                },
                {
                    "name": "C5",
                    "midi": 72,
                    "time": 238.83129199999536,
                    "velocity": 0.4881889763779528,
                    "duration": 0.10985800000000268
                },
                {
                    "name": "A4",
                    "midi": 69,
                    "time": 238.94114999999536,
                    "velocity": 0.44881889763779526,
                    "duration": 0.10985800000000268
                },
                {
                    "name": "F5",
                    "midi": 77,
                    "time": 239.05100799999536,
                    "velocity": 0.5118110236220472,
                    "duration": 0.4394320000000107
                },
                {
                    "name": "F5",
                    "midi": 77,
                    "time": 239.60029799999538,
                    "velocity": 0.44881889763779526,
                    "duration": 0.10985800000000268
                },
                {
                    "name": "D5",
                    "midi": 74,
                    "time": 239.71015599999538,
                    "velocity": 0.4881889763779528,
                    "duration": 0.10985800000000268
                },
                {
                    "name": "B4",
                    "midi": 71,
                    "time": 239.82001399999538,
                    "velocity": 0.44881889763779526,
                    "duration": 0.10985800000000268
                },
                {
                    "name": "G4",
                    "midi": 67,
                    "time": 239.92987199999538,
                    "velocity": 0.5039370078740157,
                    "duration": 0.4394320000000107
                },
                {
                    "name": "G5",
                    "midi": 79,
                    "time": 240.4791619999954,
                    "velocity": 0.5039370078740157,
                    "duration": 0.10985800000000268
                },
                {
                    "name": "B5",
                    "midi": 83,
                    "time": 240.5890199999954,
                    "velocity": 0.5275590551181102,
                    "duration": 0.10985800000000268
                },
                {
                    "name": "G5",
                    "midi": 79,
                    "time": 240.6988779999954,
                    "velocity": 0.49606299212598426,
                    "duration": 0.10985800000000268
                },
                {
                    "name": "E6",
                    "midi": 88,
                    "time": 240.8087359999954,
                    "velocity": 0.5669291338582677,
                    "duration": 0.4394320000000107
                },
                {
                    "name": "E6",
                    "midi": 88,
                    "time": 241.35802599999542,
                    "velocity": 0.48031496062992124,
                    "duration": 0.10985800000000268
                },
                {
                    "name": "C6",
                    "midi": 84,
                    "time": 241.46788399999542,
                    "velocity": 0.5196850393700787,
                    "duration": 0.10985800000000268
                },
                {
                    "name": "A5",
                    "midi": 81,
                    "time": 241.57774199999542,
                    "velocity": 0.48031496062992124,
                    "duration": 0.10985800000000268
                },
                {
                    "name": "F5",
                    "midi": 77,
                    "time": 241.68759999999543,
                    "velocity": 0.5354330708661418,
                    "duration": 0.4394320000000107
                },
                {
                    "name": "F5",
                    "midi": 77,
                    "time": 242.23688999999544,
                    "velocity": 0.5039370078740157,
                    "duration": 0.10985800000000268
                },
                {
                    "name": "A5",
                    "midi": 81,
                    "time": 242.34674799999544,
                    "velocity": 0.5196850393700787,
                    "duration": 0.10985800000000268
                },
                {
                    "name": "F5",
                    "midi": 77,
                    "time": 242.45660599999545,
                    "velocity": 0.5039370078740157,
                    "duration": 0.10985800000000268
                },
                {
                    "name": "D6",
                    "midi": 86,
                    "time": 242.56646399999545,
                    "velocity": 0.5748031496062992,
                    "duration": 0.4394320000000107
                },
                {
                    "name": "D6",
                    "midi": 86,
                    "time": 243.11575399999546,
                    "velocity": 0.48031496062992124,
                    "duration": 0.10985800000000268
                },
                {
                    "name": "B5",
                    "midi": 83,
                    "time": 243.22561199999546,
                    "velocity": 0.5196850393700787,
                    "duration": 0.10985800000000268
                },
                {
                    "name": "F5",
                    "midi": 77,
                    "time": 243.33546999999547,
                    "velocity": 0.48031496062992124,
                    "duration": 0.10985800000000268
                },
                {
                    "name": "E5",
                    "midi": 76,
                    "time": 243.44532799999547,
                    "velocity": 0.5354330708661418,
                    "duration": 0.4394320000000107
                },
                {
                    "name": "C6",
                    "midi": 84,
                    "time": 243.99461799999548,
                    "velocity": 0.48031496062992124,
                    "duration": 0.10985800000000268
                },
                {
                    "name": "G5",
                    "midi": 79,
                    "time": 244.1044759999955,
                    "velocity": 0.5196850393700787,
                    "duration": 0.10985800000000268
                },
                {
                    "name": "E5",
                    "midi": 76,
                    "time": 244.2143339999955,
                    "velocity": 0.48031496062992124,
                    "duration": 0.10985800000000268
                },
                {
                    "name": "D5",
                    "midi": 74,
                    "time": 244.3241919999955,
                    "velocity": 0.5590551181102362,
                    "duration": 0.8239350000000059
                },
                {
                    "name": "C#5",
                    "midi": 73,
                    "time": 245.1481269999955,
                    "velocity": 0.5039370078740157,
                    "duration": 0.05492899999998713
                },
                {
                    "name": "D5",
                    "midi": 74,
                    "time": 245.20305599999548,
                    "velocity": 0.5433070866141733,
                    "duration": 0.38450299999999515
                },
                {
                    "name": "C#5",
                    "midi": 73,
                    "time": 245.58755899999548,
                    "velocity": 0.5118110236220472,
                    "duration": 0.05492899999998713
                },
                {
                    "name": "D5",
                    "midi": 74,
                    "time": 245.64248799999547,
                    "velocity": 0.5669291338582677,
                    "duration": 0.4394320000000107
                },
                {
                    "name": "A5",
                    "midi": 81,
                    "time": 246.08191999999548,
                    "velocity": 0.6062992125984252,
                    "duration": 0.8239350000000059
                },
                {
                    "name": "G#5",
                    "midi": 80,
                    "time": 246.90585499999548,
                    "velocity": 0.5433070866141733,
                    "duration": 0.05492899999998713
                },
                {
                    "name": "A5",
                    "midi": 81,
                    "time": 246.96078399999547,
                    "velocity": 0.6141732283464567,
                    "duration": 0.38450299999999515
                },
                {
                    "name": "G#5",
                    "midi": 80,
                    "time": 247.34528699999547,
                    "velocity": 0.5433070866141733,
                    "duration": 0.05492899999998713
                },
                {
                    "name": "A5",
                    "midi": 81,
                    "time": 247.40021599999545,
                    "velocity": 0.6220472440944882,
                    "duration": 0.4394320000000107
                },
                {
                    "name": "G5",
                    "midi": 79,
                    "time": 247.83964799999546,
                    "velocity": 0.6141732283464567,
                    "duration": 0.21971600000000535
                },
                {
                    "name": "A5",
                    "midi": 81,
                    "time": 248.05936399999547,
                    "velocity": 0.5905511811023622,
                    "duration": 0.10985800000000268
                },
                {
                    "name": "B5",
                    "midi": 83,
                    "time": 248.16922199999547,
                    "velocity": 0.5984251968503937,
                    "duration": 0.10985800000000268
                },
                {
                    "name": "C6",
                    "midi": 84,
                    "time": 248.27907999999547,
                    "velocity": 0.6220472440944882,
                    "duration": 0.10985800000000268
                },
                {
                    "name": "D6",
                    "midi": 86,
                    "time": 248.38893799999548,
                    "velocity": 0.6299212598425197,
                    "duration": 0.10985800000000268
                },
                {
                    "name": "E6",
                    "midi": 88,
                    "time": 248.49879599999548,
                    "velocity": 0.6535433070866141,
                    "duration": 0.10985800000000268
                },
                {
                    "name": "D6",
                    "midi": 86,
                    "time": 248.60865399999548,
                    "velocity": 0.6456692913385826,
                    "duration": 0.10985800000000268
                },
                {
                    "name": "C6",
                    "midi": 84,
                    "time": 248.71851199999548,
                    "velocity": 0.6141732283464567,
                    "duration": 0.10985800000000268
                },
                {
                    "name": "B5",
                    "midi": 83,
                    "time": 248.8283699999955,
                    "velocity": 0.6062992125984252,
                    "duration": 0.10985800000000268
                },
                {
                    "name": "A5",
                    "midi": 81,
                    "time": 248.9382279999955,
                    "velocity": 0.5905511811023622,
                    "duration": 0.10985800000000268
                },
                {
                    "name": "G5",
                    "midi": 79,
                    "time": 249.0480859999955,
                    "velocity": 0.5826771653543307,
                    "duration": 0.10985800000000268
                },
                {
                    "name": "F5",
                    "midi": 77,
                    "time": 249.1579439999955,
                    "velocity": 0.5511811023622047,
                    "duration": 0.10985800000000268
                },
                {
                    "name": "E5",
                    "midi": 76,
                    "time": 249.2678019999955,
                    "velocity": 0.5354330708661418,
                    "duration": 0.10985800000000268
                },
                {
                    "name": "D5",
                    "midi": 74,
                    "time": 249.3776599999955,
                    "velocity": 0.5275590551181102,
                    "duration": 0.10985800000000268
                },
                {
                    "name": "C5",
                    "midi": 72,
                    "time": 249.4875179999955,
                    "velocity": 0.5118110236220472,
                    "duration": 0.10985800000000268
                },
                {
                    "name": "D5",
                    "midi": 74,
                    "time": 249.5973759999955,
                    "velocity": 0.3858267716535433,
                    "duration": 0.05492899999998713
                },
                {
                    "name": "E5",
                    "midi": 76,
                    "time": 249.6523049999955,
                    "velocity": 0.2992125984251969,
                    "duration": 0.05492899999998713
                },
                {
                    "name": "D5",
                    "midi": 74,
                    "time": 249.70723399999548,
                    "velocity": 0.3858267716535433,
                    "duration": 0.05492899999998713
                },
                {
                    "name": "E5",
                    "midi": 76,
                    "time": 249.76216299999547,
                    "velocity": 0.31496062992125984,
                    "duration": 0.05492899999998713
                },
                {
                    "name": "D5",
                    "midi": 74,
                    "time": 249.81709199999545,
                    "velocity": 0.3937007874015748,
                    "duration": 0.05492899999998713
                },
                {
                    "name": "E5",
                    "midi": 76,
                    "time": 249.87202099999544,
                    "velocity": 0.31496062992125984,
                    "duration": 0.05492899999998713
                },
                {
                    "name": "D5",
                    "midi": 74,
                    "time": 249.92694999999543,
                    "velocity": 0.3937007874015748,
                    "duration": 0.05492899999998713
                },
                {
                    "name": "E5",
                    "midi": 76,
                    "time": 249.98187899999542,
                    "velocity": 0.31496062992125984,
                    "duration": 0.05492899999998713
                },
                {
                    "name": "D5",
                    "midi": 74,
                    "time": 250.0368079999954,
                    "velocity": 0.4094488188976378,
                    "duration": 0.05492899999998713
                },
                {
                    "name": "E5",
                    "midi": 76,
                    "time": 250.0917369999954,
                    "velocity": 0.31496062992125984,
                    "duration": 0.05492899999998713
                },
                {
                    "name": "D5",
                    "midi": 74,
                    "time": 250.14666599999538,
                    "velocity": 0.4094488188976378,
                    "duration": 0.05492899999998713
                },
                {
                    "name": "E5",
                    "midi": 76,
                    "time": 250.20159499999536,
                    "velocity": 0.3228346456692913,
                    "duration": 0.05492899999998713
                },
                {
                    "name": "D5",
                    "midi": 74,
                    "time": 250.25652399999535,
                    "velocity": 0.41732283464566927,
                    "duration": 0.05492899999998713
                },
                {
                    "name": "E5",
                    "midi": 76,
                    "time": 250.31145299999534,
                    "velocity": 0.3228346456692913,
                    "duration": 0.05492899999998713
                },
                {
                    "name": "D5",
                    "midi": 74,
                    "time": 250.36638199999533,
                    "velocity": 0.41732283464566927,
                    "duration": 0.05492899999998713
                },
                {
                    "name": "E5",
                    "midi": 76,
                    "time": 250.4213109999953,
                    "velocity": 0.33070866141732286,
                    "duration": 0.05492899999998713
                },
                {
                    "name": "D5",
                    "midi": 74,
                    "time": 250.4762399999953,
                    "velocity": 0.4251968503937008,
                    "duration": 0.05492899999998713
                },
                {
                    "name": "E5",
                    "midi": 76,
                    "time": 250.5311689999953,
                    "velocity": 0.33858267716535434,
                    "duration": 0.05492899999998713
                },
                {
                    "name": "D5",
                    "midi": 74,
                    "time": 250.58609799999527,
                    "velocity": 0.4251968503937008,
                    "duration": 0.05492899999998713
                },
                {
                    "name": "E5",
                    "midi": 76,
                    "time": 250.64102699999526,
                    "velocity": 0.3543307086614173,
                    "duration": 0.05492899999998713
                },
                {
                    "name": "D5",
                    "midi": 74,
                    "time": 250.69595599999525,
                    "velocity": 0.4251968503937008,
                    "duration": 0.05492899999998713
                },
                {
                    "name": "E5",
                    "midi": 76,
                    "time": 250.75088499999524,
                    "velocity": 0.3464566929133858,
                    "duration": 0.05492899999998713
                },
                {
                    "name": "D5",
                    "midi": 74,
                    "time": 250.80581399999522,
                    "velocity": 0.4251968503937008,
                    "duration": 0.05492899999998713
                },
                {
                    "name": "E5",
                    "midi": 76,
                    "time": 250.8607429999952,
                    "velocity": 0.3464566929133858,
                    "duration": 0.05492899999998713
                },
                {
                    "name": "D5",
                    "midi": 74,
                    "time": 250.9156719999952,
                    "velocity": 0.41732283464566927,
                    "duration": 0.05492899999998713
                },
                {
                    "name": "E5",
                    "midi": 76,
                    "time": 250.97060099999518,
                    "velocity": 0.3543307086614173,
                    "duration": 0.05492899999998713
                },
                {
                    "name": "D5",
                    "midi": 74,
                    "time": 251.02552999999517,
                    "velocity": 0.41732283464566927,
                    "duration": 0.05492899999998713
                },
                {
                    "name": "E5",
                    "midi": 76,
                    "time": 251.08045899999516,
                    "velocity": 0.33070866141732286,
                    "duration": 0.05492899999998713
                },
                {
                    "name": "D5",
                    "midi": 74,
                    "time": 251.13538799999515,
                    "velocity": 0.41732283464566927,
                    "duration": 0.07323866666666845
                },
                {
                    "name": "C5",
                    "midi": 72,
                    "time": 251.20862666666181,
                    "velocity": 0.4645669291338583,
                    "duration": 0.07323866666666845
                },
                {
                    "name": "D5",
                    "midi": 74,
                    "time": 251.28186533332848,
                    "velocity": 0.4566929133858268,
                    "duration": 0.07323866666666845
                },
                {
                    "name": "C5",
                    "midi": 72,
                    "time": 251.35510399999515,
                    "velocity": 0.5433070866141733,
                    "duration": 0.4394320000000107
                },
                {
                    "name": "C5",
                    "midi": 72,
                    "time": 251.79453599999516,
                    "velocity": 0.5275590551181102,
                    "duration": 0.10985800000000268
                },
                {
                    "name": "G4",
                    "midi": 67,
                    "time": 251.90439399999516,
                    "velocity": 0.4645669291338583,
                    "duration": 0.10985800000000268
                },
                {
                    "name": "C5",
                    "midi": 72,
                    "time": 252.01425199999517,
                    "velocity": 0.4881889763779528,
                    "duration": 0.10985800000000268
                },
                {
                    "name": "E5",
                    "midi": 76,
                    "time": 252.12410999999517,
                    "velocity": 0.5118110236220472,
                    "duration": 0.10985800000000268
                },
                {
                    "name": "G5",
                    "midi": 79,
                    "time": 252.23396799999517,
                    "velocity": 0.5354330708661418,
                    "duration": 0.10985800000000268
                },
                {
                    "name": "E5",
                    "midi": 76,
                    "time": 252.34382599999518,
                    "velocity": 0.49606299212598426,
                    "duration": 0.10985800000000268
                },
                {
                    "name": "C5",
                    "midi": 72,
                    "time": 252.45368399999518,
                    "velocity": 0.5354330708661418,
                    "duration": 0.10985800000000268
                },
                {
                    "name": "E5",
                    "midi": 76,
                    "time": 252.56354199999518,
                    "velocity": 0.49606299212598426,
                    "duration": 0.10985800000000268
                },
                {
                    "name": "F5",
                    "midi": 77,
                    "time": 252.67339999999518,
                    "velocity": 0.5433070866141733,
                    "duration": 0.10985800000000268
                },
                {
                    "name": "D5",
                    "midi": 74,
                    "time": 252.7832579999952,
                    "velocity": 0.49606299212598426,
                    "duration": 0.10985800000000268
                },
                {
                    "name": "B4",
                    "midi": 71,
                    "time": 252.8931159999952,
                    "velocity": 0.5433070866141733,
                    "duration": 0.10985800000000268
                },
                {
                    "name": "D5",
                    "midi": 74,
                    "time": 253.0029739999952,
                    "velocity": 0.49606299212598426,
                    "duration": 0.10985800000000268
                },
                {
                    "name": "C5",
                    "midi": 72,
                    "time": 253.1128319999952,
                    "velocity": 0.5433070866141733,
                    "duration": 0.4394320000000107
                },
                {
                    "name": "C4",
                    "midi": 60,
                    "time": 253.5522639999952,
                    "velocity": 0.5275590551181102,
                    "duration": 0.10985800000000268
                },
                {
                    "name": "G3",
                    "midi": 55,
                    "time": 253.6621219999952,
                    "velocity": 0.4645669291338583,
                    "duration": 0.10985800000000268
                },
                {
                    "name": "C4",
                    "midi": 60,
                    "time": 253.7719799999952,
                    "velocity": 0.4881889763779528,
                    "duration": 0.10985800000000268
                },
                {
                    "name": "E4",
                    "midi": 64,
                    "time": 253.8818379999952,
                    "velocity": 0.5118110236220472,
                    "duration": 0.10985800000000268
                },
                {
                    "name": "G4",
                    "midi": 67,
                    "time": 253.99169599999522,
                    "velocity": 0.5354330708661418,
                    "duration": 0.10985800000000268
                },
                {
                    "name": "E4",
                    "midi": 64,
                    "time": 254.10155399999522,
                    "velocity": 0.49606299212598426,
                    "duration": 0.10985800000000268
                },
                {
                    "name": "C4",
                    "midi": 60,
                    "time": 254.21141199999522,
                    "velocity": 0.5354330708661418,
                    "duration": 0.10985800000000268
                },
                {
                    "name": "E4",
                    "midi": 64,
                    "time": 254.32126999999522,
                    "velocity": 0.49606299212598426,
                    "duration": 0.10985800000000268
                },
                {
                    "name": "F4",
                    "midi": 65,
                    "time": 254.43112799999523,
                    "velocity": 0.5433070866141733,
                    "duration": 0.10985800000000268
                },
                {
                    "name": "D4",
                    "midi": 62,
                    "time": 254.54098599999523,
                    "velocity": 0.49606299212598426,
                    "duration": 0.10985800000000268
                },
                {
                    "name": "B3",
                    "midi": 59,
                    "time": 254.65084399999523,
                    "velocity": 0.5433070866141733,
                    "duration": 0.10985800000000268
                },
                {
                    "name": "D4",
                    "midi": 62,
                    "time": 254.76070199999523,
                    "velocity": 0.49606299212598426,
                    "duration": 0.10985800000000268
                },
                {
                    "name": "C4",
                    "midi": 60,
                    "time": 254.87055999999524,
                    "velocity": 0.5826771653543307,
                    "duration": 0.10985800000000268
                },
                {
                    "name": "G5",
                    "midi": 79,
                    "time": 255.30999199999525,
                    "velocity": 0.5905511811023622,
                    "duration": 0.10985800000000268
                },
                {
                    "name": "C6",
                    "midi": 84,
                    "time": 255.30999199999525,
                    "velocity": 0.6929133858267716,
                    "duration": 0.10985800000000268
                },
                {
                    "name": "E5",
                    "midi": 76,
                    "time": 255.30999199999525,
                    "velocity": 0.5118110236220472,
                    "duration": 0.10985800000000268
                },
                {
                    "name": "C5",
                    "midi": 72,
                    "time": 255.74942399999526,
                    "velocity": 0.6692913385826772,
                    "duration": 0.4394320000000107
                }
            ],
            "controlChanges": {},
            "id": 1,
            "name": "Piano right",
            "instrumentNumber": 0,
            "instrument": "acoustic grand piano",
            "instrumentFamily": "piano",
            "channelNumber": 0,
            "isPercussion": false
        },
        {
            "startTime": 0,
            "duration": 256.1888559999972,
            "length": 1354,
            "notes": [
                {
                    "name": "C4",
                    "midi": 60,
                    "time": 0,
                    "velocity": 0.31496062992125984,
                    "duration": 0.219716
                },
                {
                    "name": "G4",
                    "midi": 67,
                    "time": 0.219716,
                    "velocity": 0.23622047244094488,
                    "duration": 0.219716
                },
                {
                    "name": "E4",
                    "midi": 64,
                    "time": 0.439432,
                    "velocity": 0.23622047244094488,
                    "duration": 0.21971599999999997
                },
                {
                    "name": "G4",
                    "midi": 67,
                    "time": 0.659148,
                    "velocity": 0.23622047244094488,
                    "duration": 0.21971600000000002
                },
                {
                    "name": "C4",
                    "midi": 60,
                    "time": 0.878864,
                    "velocity": 0.31496062992125984,
                    "duration": 0.2197159999999999
                },
                {
                    "name": "G4",
                    "midi": 67,
                    "time": 1.09858,
                    "velocity": 0.23622047244094488,
                    "duration": 0.21971600000000002
                },
                {
                    "name": "E4",
                    "midi": 64,
                    "time": 1.318296,
                    "velocity": 0.23622047244094488,
                    "duration": 0.21971600000000002
                },
                {
                    "name": "G4",
                    "midi": 67,
                    "time": 1.538012,
                    "velocity": 0.23622047244094488,
                    "duration": 0.21971600000000002
                },
                {
                    "name": "D4",
                    "midi": 62,
                    "time": 1.757728,
                    "velocity": 0.23622047244094488,
                    "duration": 0.21971600000000002
                },
                {
                    "name": "G4",
                    "midi": 67,
                    "time": 1.977444,
                    "velocity": 0.2283464566929134,
                    "duration": 0.2197159999999998
                },
                {
                    "name": "F4",
                    "midi": 65,
                    "time": 2.19716,
                    "velocity": 0.2440944881889764,
                    "duration": 0.21971600000000002
                },
                {
                    "name": "G4",
                    "midi": 67,
                    "time": 2.416876,
                    "velocity": 0.2204724409448819,
                    "duration": 0.21971600000000002
                },
                {
                    "name": "C4",
                    "midi": 60,
                    "time": 2.636592,
                    "velocity": 0.31496062992125984,
                    "duration": 0.21971600000000002
                },
                {
                    "name": "G4",
                    "midi": 67,
                    "time": 2.856308,
                    "velocity": 0.2283464566929134,
                    "duration": 0.21971600000000002
                },
                {
                    "name": "E4",
                    "midi": 64,
                    "time": 3.076024,
                    "velocity": 0.25196850393700787,
                    "duration": 0.21971600000000002
                },
                {
                    "name": "G4",
                    "midi": 67,
                    "time": 3.29574,
                    "velocity": 0.2283464566929134,
                    "duration": 0.21971600000000002
                },
                {
                    "name": "C4",
                    "midi": 60,
                    "time": 3.515456,
                    "velocity": 0.31496062992125984,
                    "duration": 0.21971600000000002
                },
                {
                    "name": "A4",
                    "midi": 69,
                    "time": 3.735172,
                    "velocity": 0.25196850393700787,
                    "duration": 0.21971600000000002
                },
                {
                    "name": "F4",
                    "midi": 65,
                    "time": 3.954888,
                    "velocity": 0.25196850393700787,
                    "duration": 0.21971599999999958
                },
                {
                    "name": "A4",
                    "midi": 69,
                    "time": 4.1746039999999995,
                    "velocity": 0.25196850393700787,
                    "duration": 0.21971600000000002
                },
                {
                    "name": "C4",
                    "midi": 60,
                    "time": 4.39432,
                    "velocity": 0.31496062992125984,
                    "duration": 0.21971600000000002
                },
                {
                    "name": "G4",
                    "midi": 67,
                    "time": 4.614036,
                    "velocity": 0.25196850393700787,
                    "duration": 0.21971600000000002
                },
                {
                    "name": "E4",
                    "midi": 64,
                    "time": 4.833752,
                    "velocity": 0.25196850393700787,
                    "duration": 0.21971600000000002
                },
                {
                    "name": "G4",
                    "midi": 67,
                    "time": 5.053468,
                    "velocity": 0.25196850393700787,
                    "duration": 0.21971600000000002
                },
                {
                    "name": "B3",
                    "midi": 59,
                    "time": 5.273184,
                    "velocity": 0.31496062992125984,
                    "duration": 0.21971600000000002
                },
                {
                    "name": "G4",
                    "midi": 67,
                    "time": 5.4929,
                    "velocity": 0.25196850393700787,
                    "duration": 0.21971600000000002
                },
                {
                    "name": "D4",
                    "midi": 62,
                    "time": 5.712616,
                    "velocity": 0.25196850393700787,
                    "duration": 0.21971600000000002
                },
                {
                    "name": "G4",
                    "midi": 67,
                    "time": 5.932332,
                    "velocity": 0.25196850393700787,
                    "duration": 0.21971600000000002
                },
                {
                    "name": "C4",
                    "midi": 60,
                    "time": 6.152048,
                    "velocity": 0.31496062992125984,
                    "duration": 0.21971600000000002
                },
                {
                    "name": "G4",
                    "midi": 67,
                    "time": 6.371764,
                    "velocity": 0.2677165354330709,
                    "duration": 0.21971600000000002
                },
                {
                    "name": "E4",
                    "midi": 64,
                    "time": 6.59148,
                    "velocity": 0.2677165354330709,
                    "duration": 0.21971600000000002
                },
                {
                    "name": "G4",
                    "midi": 67,
                    "time": 6.811196,
                    "velocity": 0.2677165354330709,
                    "duration": 0.21971600000000002
                },
                {
                    "name": "F4",
                    "midi": 65,
                    "time": 7.030912,
                    "velocity": 0.31496062992125984,
                    "duration": 0.43943200000000004
                },
                {
                    "name": "F3",
                    "midi": 53,
                    "time": 8.349207999999999,
                    "velocity": 0.31496062992125984,
                    "duration": 0.43943200000000004
                },
                {
                    "name": "C4",
                    "midi": 60,
                    "time": 8.349207999999999,
                    "velocity": 0.31496062992125984,
                    "duration": 0.43943200000000004
                },
                {
                    "name": "E3",
                    "midi": 52,
                    "time": 8.78864,
                    "velocity": 0.31496062992125984,
                    "duration": 0.43943200000000004
                },
                {
                    "name": "C4",
                    "midi": 60,
                    "time": 8.78864,
                    "velocity": 0.31496062992125984,
                    "duration": 0.43943200000000004
                },
                {
                    "name": "E3",
                    "midi": 52,
                    "time": 10.106936,
                    "velocity": 0.31496062992125984,
                    "duration": 0.43943200000000004
                },
                {
                    "name": "C4",
                    "midi": 60,
                    "time": 10.106936,
                    "velocity": 0.31496062992125984,
                    "duration": 0.43943200000000004
                },
                {
                    "name": "D3",
                    "midi": 50,
                    "time": 10.546368,
                    "velocity": 0.31496062992125984,
                    "duration": 0.43943200000000004
                },
                {
                    "name": "C4",
                    "midi": 60,
                    "time": 10.546368,
                    "velocity": 0.31496062992125984,
                    "duration": 0.43943200000000004
                },
                {
                    "name": "D3",
                    "midi": 50,
                    "time": 11.864664,
                    "velocity": 0.31496062992125984,
                    "duration": 0.43943200000000004
                },
                {
                    "name": "B3",
                    "midi": 59,
                    "time": 11.864664,
                    "velocity": 0.31496062992125984,
                    "duration": 0.43943200000000004
                },
                {
                    "name": "C3",
                    "midi": 48,
                    "time": 12.304096,
                    "velocity": 0.31496062992125984,
                    "duration": 0.43943200000000004
                },
                {
                    "name": "C4",
                    "midi": 60,
                    "time": 12.304096,
                    "velocity": 0.31496062992125984,
                    "duration": 0.43943200000000004
                },
                {
                    "name": "E3",
                    "midi": 52,
                    "time": 13.622392,
                    "velocity": 0.31496062992125984,
                    "duration": 0.43943200000000004
                },
                {
                    "name": "C3",
                    "midi": 48,
                    "time": 13.622392,
                    "velocity": 0.31496062992125984,
                    "duration": 0.43943200000000004
                },
                {
                    "name": "F3",
                    "midi": 53,
                    "time": 14.061824,
                    "velocity": 0.31496062992125984,
                    "duration": 1.7577280000000002
                },
                {
                    "name": "A3",
                    "midi": 57,
                    "time": 14.061824,
                    "velocity": 0.31496062992125984,
                    "duration": 1.7577280000000002
                },
                {
                    "name": "F3",
                    "midi": 53,
                    "time": 15.819552,
                    "velocity": 0.47244094488188976,
                    "duration": 0.6591480000000001
                },
                {
                    "name": "G3",
                    "midi": 55,
                    "time": 16.4787,
                    "velocity": 0.4330708661417323,
                    "duration": 0.21971599999999825
                },
                {
                    "name": "A3",
                    "midi": 57,
                    "time": 16.698415999999998,
                    "velocity": 0.47244094488188976,
                    "duration": 0.6591479999999983
                },
                {
                    "name": "F#3",
                    "midi": 54,
                    "time": 17.357563999999996,
                    "velocity": 0.4251968503937008,
                    "duration": 0.21971599999999825
                },
                {
                    "name": "G2",
                    "midi": 43,
                    "time": 17.577279999999995,
                    "velocity": 0.5118110236220472,
                    "duration": 0.10985799999999912
                },
                {
                    "name": "B2",
                    "midi": 47,
                    "time": 17.687137999999994,
                    "velocity": 0.4409448818897638,
                    "duration": 0.10985799999999912
                },
                {
                    "name": "D3",
                    "midi": 50,
                    "time": 17.796995999999993,
                    "velocity": 0.4409448818897638,
                    "duration": 0.10985799999999912
                },
                {
                    "name": "G3",
                    "midi": 55,
                    "time": 17.906853999999992,
                    "velocity": 0.3937007874015748,
                    "duration": 0.10985799999999912
                },
                {
                    "name": "G2",
                    "midi": 43,
                    "time": 18.01671199999999,
                    "velocity": 0.5118110236220472,
                    "duration": 0.10985799999999912
                },
                {
                    "name": "C3",
                    "midi": 48,
                    "time": 18.12656999999999,
                    "velocity": 0.4330708661417323,
                    "duration": 0.10985799999999912
                },
                {
                    "name": "E3",
                    "midi": 52,
                    "time": 18.23642799999999,
                    "velocity": 0.4330708661417323,
                    "duration": 0.10985799999999912
                },
                {
                    "name": "G3",
                    "midi": 55,
                    "time": 18.34628599999999,
                    "velocity": 0.3937007874015748,
                    "duration": 0.10985799999999912
                },
                {
                    "name": "G2",
                    "midi": 43,
                    "time": 18.456143999999988,
                    "velocity": 0.5118110236220472,
                    "duration": 0.10985799999999912
                },
                {
                    "name": "B2",
                    "midi": 47,
                    "time": 18.566001999999987,
                    "velocity": 0.4330708661417323,
                    "duration": 0.10985799999999912
                },
                {
                    "name": "D3",
                    "midi": 50,
                    "time": 18.675859999999986,
                    "velocity": 0.4330708661417323,
                    "duration": 0.10985799999999912
                },
                {
                    "name": "G3",
                    "midi": 55,
                    "time": 18.785717999999985,
                    "velocity": 0.4251968503937008,
                    "duration": 0.10985799999999912
                },
                {
                    "name": "G2",
                    "midi": 43,
                    "time": 18.895575999999984,
                    "velocity": 0.5118110236220472,
                    "duration": 0.10985799999999912
                },
                {
                    "name": "C3",
                    "midi": 48,
                    "time": 19.005433999999983,
                    "velocity": 0.44881889763779526,
                    "duration": 0.10985799999999912
                },
                {
                    "name": "E3",
                    "midi": 52,
                    "time": 19.115291999999982,
                    "velocity": 0.4409448818897638,
                    "duration": 0.10985799999999912
                },
                {
                    "name": "G3",
                    "midi": 55,
                    "time": 19.22514999999998,
                    "velocity": 0.41732283464566927,
                    "duration": 0.10985799999999912
                },
                {
                    "name": "G2",
                    "midi": 43,
                    "time": 19.33500799999998,
                    "velocity": 0.5118110236220472,
                    "duration": 0.10985799999999912
                },
                {
                    "name": "G3",
                    "midi": 55,
                    "time": 19.77443999999998,
                    "velocity": 0.4645669291338583,
                    "duration": 0.10985799999999912
                },
                {
                    "name": "G2",
                    "midi": 43,
                    "time": 20.21387199999998,
                    "velocity": 0.48031496062992124,
                    "duration": 0.43943200000000004
                },
                {
                    "name": "C#4",
                    "midi": 61,
                    "time": 21.09273599999998,
                    "velocity": 0.33070866141732286,
                    "duration": 0.12084379999999939
                },
                {
                    "name": "D4",
                    "midi": 62,
                    "time": 21.20259399999998,
                    "velocity": 0.28346456692913385,
                    "duration": 0.10985799999999912
                },
                {
                    "name": "C#4",
                    "midi": 61,
                    "time": 21.31245199999998,
                    "velocity": 0.33070866141732286,
                    "duration": 0.12084379999999939
                },
                {
                    "name": "D4",
                    "midi": 62,
                    "time": 21.422309999999978,
                    "velocity": 0.28346456692913385,
                    "duration": 0.10985799999999912
                },
                {
                    "name": "C#4",
                    "midi": 61,
                    "time": 21.532167999999977,
                    "velocity": 0.33070866141732286,
                    "duration": 0.12084379999999939
                },
                {
                    "name": "D4",
                    "midi": 62,
                    "time": 21.642025999999976,
                    "velocity": 0.2992125984251969,
                    "duration": 0.10985799999999912
                },
                {
                    "name": "C#4",
                    "midi": 61,
                    "time": 21.751883999999976,
                    "velocity": 0.33070866141732286,
                    "duration": 0.12084379999999939
                },
                {
                    "name": "D4",
                    "midi": 62,
                    "time": 21.861741999999975,
                    "velocity": 0.29133858267716534,
                    "duration": 0.10985799999999912
                },
                {
                    "name": "C4",
                    "midi": 60,
                    "time": 21.971599999999974,
                    "velocity": 0.33070866141732286,
                    "duration": 0.12084379999999939
                },
                {
                    "name": "D4",
                    "midi": 62,
                    "time": 22.081457999999973,
                    "velocity": 0.28346456692913385,
                    "duration": 0.10985799999999912
                },
                {
                    "name": "C4",
                    "midi": 60,
                    "time": 22.191315999999972,
                    "velocity": 0.33070866141732286,
                    "duration": 0.12084379999999939
                },
                {
                    "name": "D4",
                    "midi": 62,
                    "time": 22.30117399999997,
                    "velocity": 0.29133858267716534,
                    "duration": 0.10985799999999912
                },
                {
                    "name": "C4",
                    "midi": 60,
                    "time": 22.41103199999997,
                    "velocity": 0.33070866141732286,
                    "duration": 0.12084379999999939
                },
                {
                    "name": "D4",
                    "midi": 62,
                    "time": 22.52088999999997,
                    "velocity": 0.29133858267716534,
                    "duration": 0.10985799999999912
                },
                {
                    "name": "C4",
                    "midi": 60,
                    "time": 22.63074799999997,
                    "velocity": 0.33070866141732286,
                    "duration": 0.12084379999999939
                },
                {
                    "name": "D4",
                    "midi": 62,
                    "time": 22.740605999999968,
                    "velocity": 0.2992125984251969,
                    "duration": 0.10985799999999912
                },
                {
                    "name": "B3",
                    "midi": 59,
                    "time": 22.850463999999967,
                    "velocity": 0.33070866141732286,
                    "duration": 0.10985799999999912
                },
                {
                    "name": "D4",
                    "midi": 62,
                    "time": 22.960321999999966,
                    "velocity": 0.28346456692913385,
                    "duration": 0.10985799999999912
                },
                {
                    "name": "B3",
                    "midi": 59,
                    "time": 23.070179999999965,
                    "velocity": 0.33070866141732286,
                    "duration": 0.10985799999999912
                },
                {
                    "name": "D4",
                    "midi": 62,
                    "time": 23.180037999999964,
                    "velocity": 0.28346456692913385,
                    "duration": 0.10985799999999912
                },
                {
                    "name": "B3",
                    "midi": 59,
                    "time": 23.289895999999963,
                    "velocity": 0.33070866141732286,
                    "duration": 0.10985799999999912
                },
                {
                    "name": "D4",
                    "midi": 62,
                    "time": 23.399753999999962,
                    "velocity": 0.25196850393700787,
                    "duration": 0.10985799999999912
                },
                {
                    "name": "B3",
                    "midi": 59,
                    "time": 23.50961199999996,
                    "velocity": 0.2992125984251969,
                    "duration": 0.10985799999999912
                },
                {
                    "name": "D4",
                    "midi": 62,
                    "time": 23.61946999999996,
                    "velocity": 0.25984251968503935,
                    "duration": 0.10985799999999912
                },
                {
                    "name": "B3",
                    "midi": 59,
                    "time": 23.72932799999996,
                    "velocity": 0.30708661417322836,
                    "duration": 0.10985799999999912
                },
                {
                    "name": "D4",
                    "midi": 62,
                    "time": 23.83918599999996,
                    "velocity": 0.25196850393700787,
                    "duration": 0.10985799999999912
                },
                {
                    "name": "B3",
                    "midi": 59,
                    "time": 23.949043999999958,
                    "velocity": 0.30708661417322836,
                    "duration": 0.10985799999999912
                },
                {
                    "name": "D4",
                    "midi": 62,
                    "time": 24.058901999999957,
                    "velocity": 0.2677165354330709,
                    "duration": 0.10985799999999912
                },
                {
                    "name": "B3",
                    "midi": 59,
                    "time": 24.168759999999956,
                    "velocity": 0.33070866141732286,
                    "duration": 0.10985799999999912
                },
                {
                    "name": "D4",
                    "midi": 62,
                    "time": 24.278617999999955,
                    "velocity": 0.29133858267716534,
                    "duration": 0.10985799999999912
                },
                {
                    "name": "B3",
                    "midi": 59,
                    "time": 24.388475999999955,
                    "velocity": 0.33070866141732286,
                    "duration": 0.10985799999999912
                },
                {
                    "name": "D4",
                    "midi": 62,
                    "time": 24.498333999999954,
                    "velocity": 0.2992125984251969,
                    "duration": 0.10985799999999912
                },
                {
                    "name": "C4",
                    "midi": 60,
                    "time": 24.608191999999953,
                    "velocity": 0.36220472440944884,
                    "duration": 0.10985799999999912
                },
                {
                    "name": "D4",
                    "midi": 62,
                    "time": 24.718049999999952,
                    "velocity": 0.2992125984251969,
                    "duration": 0.10985799999999912
                },
                {
                    "name": "B3",
                    "midi": 59,
                    "time": 24.82790799999995,
                    "velocity": 0.33070866141732286,
                    "duration": 0.10985799999999912
                },
                {
                    "name": "D4",
                    "midi": 62,
                    "time": 24.93776599999995,
                    "velocity": 0.28346456692913385,
                    "duration": 0.10985799999999912
                },
                {
                    "name": "A3",
                    "midi": 57,
                    "time": 25.04762399999995,
                    "velocity": 0.30708661417322836,
                    "duration": 0.12084379999999939
                },
                {
                    "name": "D4",
                    "midi": 62,
                    "time": 25.15748199999995,
                    "velocity": 0.2125984251968504,
                    "duration": 0.10985799999999912
                },
                {
                    "name": "B3",
                    "midi": 59,
                    "time": 25.267339999999948,
                    "velocity": 0.3700787401574803,
                    "duration": 0.12084379999999939
                },
                {
                    "name": "D4",
                    "midi": 62,
                    "time": 25.377197999999947,
                    "velocity": 0.2755905511811024,
                    "duration": 0.10985799999999912
                },
                {
                    "name": "C4",
                    "midi": 60,
                    "time": 25.487055999999946,
                    "velocity": 0.3937007874015748,
                    "duration": 0.12084379999999939
                },
                {
                    "name": "D4",
                    "midi": 62,
                    "time": 25.596913999999945,
                    "velocity": 0.28346456692913385,
                    "duration": 0.10985799999999912
                },
                {
                    "name": "B3",
                    "midi": 59,
                    "time": 25.706771999999944,
                    "velocity": 0.3464566929133858,
                    "duration": 0.12084379999999939
                },
                {
                    "name": "D4",
                    "midi": 62,
                    "time": 25.816629999999943,
                    "velocity": 0.23622047244094488,
                    "duration": 0.10985799999999912
                },
                {
                    "name": "C4",
                    "midi": 60,
                    "time": 25.926487999999942,
                    "velocity": 0.4094488188976378,
                    "duration": 0.12084379999999939
                },
                {
                    "name": "D4",
                    "midi": 62,
                    "time": 26.03634599999994,
                    "velocity": 0.2440944881889764,
                    "duration": 0.10985799999999912
                },
                {
                    "name": "A3",
                    "midi": 57,
                    "time": 26.14620399999994,
                    "velocity": 0.31496062992125984,
                    "duration": 0.12084379999999939
                },
                {
                    "name": "D4",
                    "midi": 62,
                    "time": 26.25606199999994,
                    "velocity": 0.2204724409448819,
                    "duration": 0.10985799999999912
                },
                {
                    "name": "B3",
                    "midi": 59,
                    "time": 26.36591999999994,
                    "velocity": 0.33070866141732286,
                    "duration": 0.10985799999999912
                },
                {
                    "name": "D4",
                    "midi": 62,
                    "time": 26.475777999999938,
                    "velocity": 0.28346456692913385,
                    "duration": 0.10985799999999912
                },
                {
                    "name": "B3",
                    "midi": 59,
                    "time": 26.585635999999937,
                    "velocity": 0.33070866141732286,
                    "duration": 0.10985799999999912
                },
                {
                    "name": "D4",
                    "midi": 62,
                    "time": 26.695493999999936,
                    "velocity": 0.28346456692913385,
                    "duration": 0.10985799999999912
                },
                {
                    "name": "B3",
                    "midi": 59,
                    "time": 26.805351999999935,
                    "velocity": 0.33070866141732286,
                    "duration": 0.10985799999999912
                },
                {
                    "name": "D4",
                    "midi": 62,
                    "time": 26.915209999999934,
                    "velocity": 0.25196850393700787,
                    "duration": 0.10985799999999912
                },
                {
                    "name": "B3",
                    "midi": 59,
                    "time": 27.025067999999933,
                    "velocity": 0.2992125984251969,
                    "duration": 0.10985799999999912
                },
                {
                    "name": "D4",
                    "midi": 62,
                    "time": 27.134925999999933,
                    "velocity": 0.25984251968503935,
                    "duration": 0.10985799999999912
                },
                {
                    "name": "B3",
                    "midi": 59,
                    "time": 27.24478399999993,
                    "velocity": 0.30708661417322836,
                    "duration": 0.10985799999999912
                },
                {
                    "name": "D4",
                    "midi": 62,
                    "time": 27.35464199999993,
                    "velocity": 0.25196850393700787,
                    "duration": 0.10985799999999912
                },
                {
                    "name": "B3",
                    "midi": 59,
                    "time": 27.46449999999993,
                    "velocity": 0.30708661417322836,
                    "duration": 0.10985799999999912
                },
                {
                    "name": "D4",
                    "midi": 62,
                    "time": 27.57435799999993,
                    "velocity": 0.2677165354330709,
                    "duration": 0.10985799999999912
                },
                {
                    "name": "B3",
                    "midi": 59,
                    "time": 27.684215999999928,
                    "velocity": 0.33070866141732286,
                    "duration": 0.10985799999999912
                },
                {
                    "name": "D4",
                    "midi": 62,
                    "time": 27.794073999999927,
                    "velocity": 0.29133858267716534,
                    "duration": 0.10985799999999912
                },
                {
                    "name": "B3",
                    "midi": 59,
                    "time": 27.903931999999926,
                    "velocity": 0.33070866141732286,
                    "duration": 0.10985799999999912
                },
                {
                    "name": "D4",
                    "midi": 62,
                    "time": 28.013789999999926,
                    "velocity": 0.2992125984251969,
                    "duration": 0.10985799999999912
                },
                {
                    "name": "C4",
                    "midi": 60,
                    "time": 28.123647999999925,
                    "velocity": 0.33070866141732286,
                    "duration": 0.10985799999999912
                },
                {
                    "name": "D4",
                    "midi": 62,
                    "time": 28.233505999999924,
                    "velocity": 0.28346456692913385,
                    "duration": 0.10985799999999912
                },
                {
                    "name": "B3",
                    "midi": 59,
                    "time": 28.343363999999923,
                    "velocity": 0.33070866141732286,
                    "duration": 0.10985799999999912
                },
                {
                    "name": "D4",
                    "midi": 62,
                    "time": 28.453221999999922,
                    "velocity": 0.28346456692913385,
                    "duration": 0.10985799999999912
                },
                {
                    "name": "A3",
                    "midi": 57,
                    "time": 28.56307999999992,
                    "velocity": 0.30708661417322836,
                    "duration": 0.12084379999999939
                },
                {
                    "name": "D4",
                    "midi": 62,
                    "time": 28.67293799999992,
                    "velocity": 0.2283464566929134,
                    "duration": 0.10985799999999912
                },
                {
                    "name": "B3",
                    "midi": 59,
                    "time": 28.78279599999992,
                    "velocity": 0.33070866141732286,
                    "duration": 0.12084379999999939
                },
                {
                    "name": "D4",
                    "midi": 62,
                    "time": 28.89265399999992,
                    "velocity": 0.25196850393700787,
                    "duration": 0.10985799999999912
                },
                {
                    "name": "C4",
                    "midi": 60,
                    "time": 29.002511999999918,
                    "velocity": 0.3779527559055118,
                    "duration": 0.12084379999999939
                },
                {
                    "name": "D4",
                    "midi": 62,
                    "time": 29.112369999999917,
                    "velocity": 0.28346456692913385,
                    "duration": 0.10985799999999912
                },
                {
                    "name": "B3",
                    "midi": 59,
                    "time": 29.222227999999916,
                    "velocity": 0.33858267716535434,
                    "duration": 0.12084379999999939
                },
                {
                    "name": "D4",
                    "midi": 62,
                    "time": 29.332085999999915,
                    "velocity": 0.23622047244094488,
                    "duration": 0.10985799999999912
                },
                {
                    "name": "C4",
                    "midi": 60,
                    "time": 29.441943999999914,
                    "velocity": 0.3779527559055118,
                    "duration": 0.12084379999999939
                },
                {
                    "name": "D4",
                    "midi": 62,
                    "time": 29.551801999999913,
                    "velocity": 0.28346456692913385,
                    "duration": 0.10985799999999912
                },
                {
                    "name": "A3",
                    "midi": 57,
                    "time": 29.661659999999912,
                    "velocity": 0.33858267716535434,
                    "duration": 0.12084379999999939
                },
                {
                    "name": "D4",
                    "midi": 62,
                    "time": 29.77151799999991,
                    "velocity": 0.23622047244094488,
                    "duration": 0.10985799999999912
                },
                {
                    "name": "B3",
                    "midi": 59,
                    "time": 29.99123399999991,
                    "velocity": 0.30708661417322836,
                    "duration": 0.10985799999999912
                },
                {
                    "name": "D4",
                    "midi": 62,
                    "time": 30.10109199999991,
                    "velocity": 0.33070866141732286,
                    "duration": 0.10985799999999912
                },
                {
                    "name": "G4",
                    "midi": 67,
                    "time": 30.210949999999908,
                    "velocity": 0.30708661417322836,
                    "duration": 0.10985799999999912
                },
                {
                    "name": "B4",
                    "midi": 71,
                    "time": 30.320807999999907,
                    "velocity": 0.3779527559055118,
                    "duration": 0.43943200000000004
                },
                {
                    "name": "C4",
                    "midi": 60,
                    "time": 30.870097999999906,
                    "velocity": 0.33070866141732286,
                    "duration": 0.10985799999999912
                },
                {
                    "name": "E4",
                    "midi": 64,
                    "time": 30.979955999999905,
                    "velocity": 0.3464566929133858,
                    "duration": 0.10985799999999912
                },
                {
                    "name": "G4",
                    "midi": 67,
                    "time": 31.089813999999905,
                    "velocity": 0.3228346456692913,
                    "duration": 0.10985799999999912
                },
                {
                    "name": "C5",
                    "midi": 72,
                    "time": 31.199671999999904,
                    "velocity": 0.4094488188976378,
                    "duration": 0.43943200000000004
                },
                {
                    "name": "A3",
                    "midi": 57,
                    "time": 31.748961999999903,
                    "velocity": 0.30708661417322836,
                    "duration": 0.10985799999999912
                },
                {
                    "name": "C4",
                    "midi": 60,
                    "time": 31.858819999999902,
                    "velocity": 0.33070866141732286,
                    "duration": 0.10985799999999912
                },
                {
                    "name": "F#4",
                    "midi": 66,
                    "time": 31.9686779999999,
                    "velocity": 0.30708661417322836,
                    "duration": 0.10985799999999912
                },
                {
                    "name": "A4",
                    "midi": 69,
                    "time": 32.0785359999999,
                    "velocity": 0.3779527559055118,
                    "duration": 0.4394319999999965
                },
                {
                    "name": "B3",
                    "midi": 59,
                    "time": 32.6278259999999,
                    "velocity": 0.33070866141732286,
                    "duration": 0.10985800000000268
                },
                {
                    "name": "D4",
                    "midi": 62,
                    "time": 32.7376839999999,
                    "velocity": 0.3464566929133858,
                    "duration": 0.10985800000000268
                },
                {
                    "name": "F#4",
                    "midi": 66,
                    "time": 32.847541999999905,
                    "velocity": 0.3228346456692913,
                    "duration": 0.10985800000000268
                },
                {
                    "name": "B4",
                    "midi": 71,
                    "time": 32.95739999999991,
                    "velocity": 0.4094488188976378,
                    "duration": 0.4394319999999965
                },
                {
                    "name": "G3",
                    "midi": 55,
                    "time": 33.50668999999991,
                    "velocity": 0.30708661417322836,
                    "duration": 0.10985800000000268
                },
                {
                    "name": "B3",
                    "midi": 59,
                    "time": 33.61654799999991,
                    "velocity": 0.33070866141732286,
                    "duration": 0.10985800000000268
                },
                {
                    "name": "E4",
                    "midi": 64,
                    "time": 33.72640599999991,
                    "velocity": 0.30708661417322836,
                    "duration": 0.10985800000000268
                },
                {
                    "name": "G4",
                    "midi": 67,
                    "time": 33.836263999999915,
                    "velocity": 0.3779527559055118,
                    "duration": 0.4394319999999965
                },
                {
                    "name": "A3",
                    "midi": 57,
                    "time": 34.385553999999914,
                    "velocity": 0.33070866141732286,
                    "duration": 0.10985800000000268
                },
                {
                    "name": "C4",
                    "midi": 60,
                    "time": 34.49541199999992,
                    "velocity": 0.3464566929133858,
                    "duration": 0.10985800000000268
                },
                {
                    "name": "E4",
                    "midi": 64,
                    "time": 34.60526999999992,
                    "velocity": 0.3228346456692913,
                    "duration": 0.10985800000000268
                },
                {
                    "name": "A4",
                    "midi": 69,
                    "time": 34.71512799999992,
                    "velocity": 0.4094488188976378,
                    "duration": 0.4394319999999965
                },
                {
                    "name": "F#3",
                    "midi": 54,
                    "time": 35.26441799999992,
                    "velocity": 0.30708661417322836,
                    "duration": 0.10985800000000268
                },
                {
                    "name": "A3",
                    "midi": 57,
                    "time": 35.374275999999924,
                    "velocity": 0.33070866141732286,
                    "duration": 0.10985800000000268
                },
                {
                    "name": "D4",
                    "midi": 62,
                    "time": 35.484133999999926,
                    "velocity": 0.30708661417322836,
                    "duration": 0.10985800000000268
                },
                {
                    "name": "F#4",
                    "midi": 66,
                    "time": 35.59399199999993,
                    "velocity": 0.3779527559055118,
                    "duration": 0.4394319999999965
                },
                {
                    "name": "G3",
                    "midi": 55,
                    "time": 36.14328199999993,
                    "velocity": 0.33070866141732286,
                    "duration": 0.10985800000000268
                },
                {
                    "name": "B3",
                    "midi": 59,
                    "time": 36.25313999999993,
                    "velocity": 0.3464566929133858,
                    "duration": 0.10985800000000268
                },
                {
                    "name": "D4",
                    "midi": 62,
                    "time": 36.36299799999993,
                    "velocity": 0.3228346456692913,
                    "duration": 0.10985800000000268
                },
                {
                    "name": "G4",
                    "midi": 67,
                    "time": 36.472855999999936,
                    "velocity": 0.4094488188976378,
                    "duration": 0.4394319999999965
                },
                {
                    "name": "C4",
                    "midi": 60,
                    "time": 36.91228799999993,
                    "velocity": 0.3464566929133858,
                    "duration": 0.10985800000000268
                },
                {
                    "name": "E4",
                    "midi": 64,
                    "time": 36.91228799999993,
                    "velocity": 0.3464566929133858,
                    "duration": 0.10985800000000268
                },
                {
                    "name": "C4",
                    "midi": 60,
                    "time": 37.13200399999994,
                    "velocity": 0.30708661417322836,
                    "duration": 0.10985800000000268
                },
                {
                    "name": "E4",
                    "midi": 64,
                    "time": 37.13200399999994,
                    "velocity": 0.30708661417322836,
                    "duration": 0.10985800000000268
                },
                {
                    "name": "C4",
                    "midi": 60,
                    "time": 37.35171999999994,
                    "velocity": 0.30708661417322836,
                    "duration": 0.10985800000000268
                },
                {
                    "name": "E4",
                    "midi": 64,
                    "time": 37.35171999999994,
                    "velocity": 0.30708661417322836,
                    "duration": 0.10985800000000268
                },
                {
                    "name": "C4",
                    "midi": 60,
                    "time": 37.57143599999995,
                    "velocity": 0.30708661417322836,
                    "duration": 0.10985800000000268
                },
                {
                    "name": "E4",
                    "midi": 64,
                    "time": 37.57143599999995,
                    "velocity": 0.30708661417322836,
                    "duration": 0.10985800000000268
                },
                {
                    "name": "C4",
                    "midi": 60,
                    "time": 37.791151999999954,
                    "velocity": 0.3464566929133858,
                    "duration": 0.10985800000000268
                },
                {
                    "name": "E4",
                    "midi": 64,
                    "time": 37.791151999999954,
                    "velocity": 0.3464566929133858,
                    "duration": 0.10985800000000268
                },
                {
                    "name": "C4",
                    "midi": 60,
                    "time": 38.01086799999996,
                    "velocity": 0.31496062992125984,
                    "duration": 0.10985800000000268
                },
                {
                    "name": "E4",
                    "midi": 64,
                    "time": 38.01086799999996,
                    "velocity": 0.31496062992125984,
                    "duration": 0.10985800000000268
                },
                {
                    "name": "C4",
                    "midi": 60,
                    "time": 38.230583999999965,
                    "velocity": 0.31496062992125984,
                    "duration": 0.10985800000000268
                },
                {
                    "name": "E4",
                    "midi": 64,
                    "time": 38.230583999999965,
                    "velocity": 0.31496062992125984,
                    "duration": 0.10985800000000268
                },
                {
                    "name": "C4",
                    "midi": 60,
                    "time": 38.45029999999997,
                    "velocity": 0.3228346456692913,
                    "duration": 0.10985800000000268
                },
                {
                    "name": "E4",
                    "midi": 64,
                    "time": 38.45029999999997,
                    "velocity": 0.3228346456692913,
                    "duration": 0.10985800000000268
                },
                {
                    "name": "C4",
                    "midi": 60,
                    "time": 38.670015999999976,
                    "velocity": 0.3937007874015748,
                    "duration": 0.10985800000000268
                },
                {
                    "name": "E4",
                    "midi": 64,
                    "time": 38.670015999999976,
                    "velocity": 0.3937007874015748,
                    "duration": 0.10985800000000268
                },
                {
                    "name": "C4",
                    "midi": 60,
                    "time": 38.88973199999998,
                    "velocity": 0.3464566929133858,
                    "duration": 0.10985800000000268
                },
                {
                    "name": "E4",
                    "midi": 64,
                    "time": 38.88973199999998,
                    "velocity": 0.3464566929133858,
                    "duration": 0.10985800000000268
                },
                {
                    "name": "C4",
                    "midi": 60,
                    "time": 39.109447999999986,
                    "velocity": 0.3464566929133858,
                    "duration": 0.10985800000000268
                },
                {
                    "name": "E4",
                    "midi": 64,
                    "time": 39.109447999999986,
                    "velocity": 0.3464566929133858,
                    "duration": 0.10985800000000268
                },
                {
                    "name": "C4",
                    "midi": 60,
                    "time": 39.32916399999999,
                    "velocity": 0.3464566929133858,
                    "duration": 0.10985800000000268
                },
                {
                    "name": "E4",
                    "midi": 64,
                    "time": 39.32916399999999,
                    "velocity": 0.3464566929133858,
                    "duration": 0.10985800000000268
                },
                {
                    "name": "C4",
                    "midi": 60,
                    "time": 39.54888,
                    "velocity": 0.3858267716535433,
                    "duration": 0.10985800000000268
                },
                {
                    "name": "E4",
                    "midi": 64,
                    "time": 39.54888,
                    "velocity": 0.3858267716535433,
                    "duration": 0.10985800000000268
                },
                {
                    "name": "C4",
                    "midi": 60,
                    "time": 39.768596,
                    "velocity": 0.36220472440944884,
                    "duration": 0.10985800000000268
                },
                {
                    "name": "E4",
                    "midi": 64,
                    "time": 39.768596,
                    "velocity": 0.36220472440944884,
                    "duration": 0.10985800000000268
                },
                {
                    "name": "C4",
                    "midi": 60,
                    "time": 39.98831200000001,
                    "velocity": 0.36220472440944884,
                    "duration": 0.10985800000000268
                },
                {
                    "name": "E4",
                    "midi": 64,
                    "time": 39.98831200000001,
                    "velocity": 0.36220472440944884,
                    "duration": 0.10985800000000268
                },
                {
                    "name": "C4",
                    "midi": 60,
                    "time": 40.20802800000001,
                    "velocity": 0.36220472440944884,
                    "duration": 0.10985800000000268
                },
                {
                    "name": "E4",
                    "midi": 64,
                    "time": 40.20802800000001,
                    "velocity": 0.36220472440944884,
                    "duration": 0.10985800000000268
                },
                {
                    "name": "D4",
                    "midi": 62,
                    "time": 40.42774400000002,
                    "velocity": 0.3937007874015748,
                    "duration": 0.10985800000000268
                },
                {
                    "name": "B4",
                    "midi": 71,
                    "time": 40.53760200000002,
                    "velocity": 0.33070866141732286,
                    "duration": 0.10985800000000268
                },
                {
                    "name": "G4",
                    "midi": 67,
                    "time": 40.647460000000024,
                    "velocity": 0.33070866141732286,
                    "duration": 0.10985800000000268
                },
                {
                    "name": "B4",
                    "midi": 71,
                    "time": 40.757318000000026,
                    "velocity": 0.33070866141732286,
                    "duration": 0.10985800000000268
                },
                {
                    "name": "D4",
                    "midi": 62,
                    "time": 40.86717600000003,
                    "velocity": 0.3858267716535433,
                    "duration": 0.10985800000000268
                },
                {
                    "name": "B4",
                    "midi": 71,
                    "time": 40.97703400000003,
                    "velocity": 0.33070866141732286,
                    "duration": 0.10985800000000268
                },
                {
                    "name": "G4",
                    "midi": 67,
                    "time": 41.086892000000034,
                    "velocity": 0.33070866141732286,
                    "duration": 0.10985800000000268
                },
                {
                    "name": "B4",
                    "midi": 71,
                    "time": 41.19675000000004,
                    "velocity": 0.33070866141732286,
                    "duration": 0.10985800000000268
                },
                {
                    "name": "D4",
                    "midi": 62,
                    "time": 41.30660800000004,
                    "velocity": 0.3779527559055118,
                    "duration": 0.10985800000000268
                },
                {
                    "name": "B4",
                    "midi": 71,
                    "time": 41.41646600000004,
                    "velocity": 0.33070866141732286,
                    "duration": 0.10985800000000268
                },
                {
                    "name": "G4",
                    "midi": 67,
                    "time": 41.526324000000045,
                    "velocity": 0.33070866141732286,
                    "duration": 0.10985800000000268
                },
                {
                    "name": "B4",
                    "midi": 71,
                    "time": 41.63618200000005,
                    "velocity": 0.33070866141732286,
                    "duration": 0.10985800000000268
                },
                {
                    "name": "D4",
                    "midi": 62,
                    "time": 41.74604000000005,
                    "velocity": 0.3858267716535433,
                    "duration": 0.10985800000000268
                },
                {
                    "name": "B4",
                    "midi": 71,
                    "time": 41.85589800000005,
                    "velocity": 0.33070866141732286,
                    "duration": 0.10985800000000268
                },
                {
                    "name": "G4",
                    "midi": 67,
                    "time": 41.965756000000056,
                    "velocity": 0.33070866141732286,
                    "duration": 0.10985800000000268
                },
                {
                    "name": "B4",
                    "midi": 71,
                    "time": 42.07561400000006,
                    "velocity": 0.33070866141732286,
                    "duration": 0.10985800000000268
                },
                {
                    "name": "D4",
                    "midi": 62,
                    "time": 42.18547200000006,
                    "velocity": 0.3937007874015748,
                    "duration": 0.10985800000000268
                },
                {
                    "name": "C5",
                    "midi": 72,
                    "time": 42.295330000000064,
                    "velocity": 0.33070866141732286,
                    "duration": 0.10985800000000268
                },
                {
                    "name": "F#4",
                    "midi": 66,
                    "time": 42.40518800000007,
                    "velocity": 0.33070866141732286,
                    "duration": 0.10985800000000268
                },
                {
                    "name": "C5",
                    "midi": 72,
                    "time": 42.51504600000007,
                    "velocity": 0.33070866141732286,
                    "duration": 0.10985800000000268
                },
                {
                    "name": "D4",
                    "midi": 62,
                    "time": 42.62490400000007,
                    "velocity": 0.3858267716535433,
                    "duration": 0.10985800000000268
                },
                {
                    "name": "C5",
                    "midi": 72,
                    "time": 42.734762000000075,
                    "velocity": 0.33070866141732286,
                    "duration": 0.10985800000000268
                },
                {
                    "name": "F#4",
                    "midi": 66,
                    "time": 42.84462000000008,
                    "velocity": 0.33070866141732286,
                    "duration": 0.10985800000000268
                },
                {
                    "name": "C5",
                    "midi": 72,
                    "time": 42.95447800000008,
                    "velocity": 0.33070866141732286,
                    "duration": 0.10985800000000268
                },
                {
                    "name": "D4",
                    "midi": 62,
                    "time": 43.06433600000008,
                    "velocity": 0.3779527559055118,
                    "duration": 0.10985800000000268
                },
                {
                    "name": "C5",
                    "midi": 72,
                    "time": 43.174194000000085,
                    "velocity": 0.33070866141732286,
                    "duration": 0.10985800000000268
                },
                {
                    "name": "F#4",
                    "midi": 66,
                    "time": 43.28405200000009,
                    "velocity": 0.33070866141732286,
                    "duration": 0.10985800000000268
                },
                {
                    "name": "C5",
                    "midi": 72,
                    "time": 43.39391000000009,
                    "velocity": 0.33070866141732286,
                    "duration": 0.10985800000000268
                },
                {
                    "name": "D4",
                    "midi": 62,
                    "time": 43.50376800000009,
                    "velocity": 0.3858267716535433,
                    "duration": 0.10985800000000268
                },
                {
                    "name": "C5",
                    "midi": 72,
                    "time": 43.613626000000096,
                    "velocity": 0.33070866141732286,
                    "duration": 0.10985800000000268
                },
                {
                    "name": "F#4",
                    "midi": 66,
                    "time": 43.7234840000001,
                    "velocity": 0.33070866141732286,
                    "duration": 0.10985800000000268
                },
                {
                    "name": "C5",
                    "midi": 72,
                    "time": 43.8333420000001,
                    "velocity": 0.33070866141732286,
                    "duration": 0.10985800000000268
                },
                {
                    "name": "G4",
                    "midi": 67,
                    "time": 43.943200000000104,
                    "velocity": 0.3858267716535433,
                    "duration": 0.4394319999999965
                },
                {
                    "name": "B4",
                    "midi": 71,
                    "time": 43.943200000000104,
                    "velocity": 0.4566929133858268,
                    "duration": 0.4394319999999965
                },
                {
                    "name": "D4",
                    "midi": 62,
                    "time": 45.2614960000001,
                    "velocity": 0.31496062992125984,
                    "duration": 0.4394319999999965
                },
                {
                    "name": "A4",
                    "midi": 69,
                    "time": 45.2614960000001,
                    "velocity": 0.31496062992125984,
                    "duration": 0.4394319999999965
                },
                {
                    "name": "C5",
                    "midi": 72,
                    "time": 45.2614960000001,
                    "velocity": 0.3779527559055118,
                    "duration": 0.4394319999999965
                },
                {
                    "name": "G4",
                    "midi": 67,
                    "time": 45.7009280000001,
                    "velocity": 0.3858267716535433,
                    "duration": 0.4394319999999965
                },
                {
                    "name": "B4",
                    "midi": 71,
                    "time": 45.7009280000001,
                    "velocity": 0.4566929133858268,
                    "duration": 0.4394319999999965
                },
                {
                    "name": "D3",
                    "midi": 50,
                    "time": 47.019224000000094,
                    "velocity": 0.31496062992125984,
                    "duration": 0.4394319999999965
                },
                {
                    "name": "A3",
                    "midi": 57,
                    "time": 47.019224000000094,
                    "velocity": 0.31496062992125984,
                    "duration": 0.4394319999999965
                },
                {
                    "name": "C4",
                    "midi": 60,
                    "time": 47.019224000000094,
                    "velocity": 0.3779527559055118,
                    "duration": 0.4394319999999965
                },
                {
                    "name": "G3",
                    "midi": 55,
                    "time": 47.45865600000009,
                    "velocity": 0.3464566929133858,
                    "duration": 0.10985800000000268
                },
                {
                    "name": "B3",
                    "midi": 59,
                    "time": 47.45865600000009,
                    "velocity": 0.4094488188976378,
                    "duration": 0.10985800000000268
                },
                {
                    "name": "G2",
                    "midi": 43,
                    "time": 47.898088000000094,
                    "velocity": 0.3464566929133858,
                    "duration": 0.10985800000000268
                },
                {
                    "name": "G3",
                    "midi": 55,
                    "time": 47.898088000000094,
                    "velocity": 0.4094488188976378,
                    "duration": 0.10985800000000268
                },
                {
                    "name": "G2",
                    "midi": 43,
                    "time": 48.3375200000001,
                    "velocity": 0.3464566929133858,
                    "duration": 0.4394319999999965
                },
                {
                    "name": "G3",
                    "midi": 55,
                    "time": 48.3375200000001,
                    "velocity": 0.4094488188976378,
                    "duration": 0.4394319999999965
                },
                {
                    "name": "C4",
                    "midi": 60,
                    "time": 49.21638400000009,
                    "velocity": 0.31496062992125984,
                    "duration": 0.21971599999999825
                },
                {
                    "name": "G4",
                    "midi": 67,
                    "time": 49.43610000000009,
                    "velocity": 0.23622047244094488,
                    "duration": 0.21971599999999825
                },
                {
                    "name": "E4",
                    "midi": 64,
                    "time": 49.65581600000009,
                    "velocity": 0.23622047244094488,
                    "duration": 0.21971599999999825
                },
                {
                    "name": "G4",
                    "midi": 67,
                    "time": 49.875532000000085,
                    "velocity": 0.23622047244094488,
                    "duration": 0.21971599999999825
                },
                {
                    "name": "C4",
                    "midi": 60,
                    "time": 50.09524800000008,
                    "velocity": 0.31496062992125984,
                    "duration": 0.21971599999999825
                },
                {
                    "name": "G4",
                    "midi": 67,
                    "time": 50.31496400000008,
                    "velocity": 0.23622047244094488,
                    "duration": 0.21971599999999825
                },
                {
                    "name": "E4",
                    "midi": 64,
                    "time": 50.53468000000008,
                    "velocity": 0.23622047244094488,
                    "duration": 0.21971599999999825
                },
                {
                    "name": "G4",
                    "midi": 67,
                    "time": 50.75439600000008,
                    "velocity": 0.23622047244094488,
                    "duration": 0.21971599999999825
                },
                {
                    "name": "D4",
                    "midi": 62,
                    "time": 50.974112000000076,
                    "velocity": 0.23622047244094488,
                    "duration": 0.21971599999999825
                },
                {
                    "name": "G4",
                    "midi": 67,
                    "time": 51.193828000000074,
                    "velocity": 0.2283464566929134,
                    "duration": 0.21971599999999825
                },
                {
                    "name": "F4",
                    "midi": 65,
                    "time": 51.41354400000007,
                    "velocity": 0.2440944881889764,
                    "duration": 0.21971599999999825
                },
                {
                    "name": "G4",
                    "midi": 67,
                    "time": 51.63326000000007,
                    "velocity": 0.2204724409448819,
                    "duration": 0.21971599999999825
                },
                {
                    "name": "C4",
                    "midi": 60,
                    "time": 51.85297600000007,
                    "velocity": 0.31496062992125984,
                    "duration": 0.21971599999999825
                },
                {
                    "name": "G4",
                    "midi": 67,
                    "time": 52.07269200000007,
                    "velocity": 0.2283464566929134,
                    "duration": 0.21971599999999825
                },
                {
                    "name": "E4",
                    "midi": 64,
                    "time": 52.292408000000066,
                    "velocity": 0.25196850393700787,
                    "duration": 0.21971599999999825
                },
                {
                    "name": "G4",
                    "midi": 67,
                    "time": 52.512124000000064,
                    "velocity": 0.2283464566929134,
                    "duration": 0.21971599999999825
                },
                {
                    "name": "C4",
                    "midi": 60,
                    "time": 52.73184000000006,
                    "velocity": 0.31496062992125984,
                    "duration": 0.21971599999999825
                },
                {
                    "name": "A4",
                    "midi": 69,
                    "time": 52.95155600000006,
                    "velocity": 0.25196850393700787,
                    "duration": 0.21971599999999825
                },
                {
                    "name": "F4",
                    "midi": 65,
                    "time": 53.17127200000006,
                    "velocity": 0.25196850393700787,
                    "duration": 0.21971599999999825
                },
                {
                    "name": "A4",
                    "midi": 69,
                    "time": 53.39098800000006,
                    "velocity": 0.25196850393700787,
                    "duration": 0.21971599999999825
                },
                {
                    "name": "C4",
                    "midi": 60,
                    "time": 53.610704000000055,
                    "velocity": 0.31496062992125984,
                    "duration": 0.21971599999999825
                },
                {
                    "name": "G4",
                    "midi": 67,
                    "time": 53.83042000000005,
                    "velocity": 0.25196850393700787,
                    "duration": 0.21971599999999825
                },
                {
                    "name": "E4",
                    "midi": 64,
                    "time": 54.05013600000005,
                    "velocity": 0.25196850393700787,
                    "duration": 0.21971599999999825
                },
                {
                    "name": "G4",
                    "midi": 67,
                    "time": 54.26985200000005,
                    "velocity": 0.25196850393700787,
                    "duration": 0.21971599999999825
                },
                {
                    "name": "B3",
                    "midi": 59,
                    "time": 54.48956800000005,
                    "velocity": 0.31496062992125984,
                    "duration": 0.21971599999999825
                },
                {
                    "name": "G4",
                    "midi": 67,
                    "time": 54.709284000000046,
                    "velocity": 0.25196850393700787,
                    "duration": 0.21971599999999825
                },
                {
                    "name": "D4",
                    "midi": 62,
                    "time": 54.929000000000045,
                    "velocity": 0.25196850393700787,
                    "duration": 0.21971599999999825
                },
                {
                    "name": "G4",
                    "midi": 67,
                    "time": 55.14871600000004,
                    "velocity": 0.25196850393700787,
                    "duration": 0.21971599999999825
                },
                {
                    "name": "C4",
                    "midi": 60,
                    "time": 55.36843200000004,
                    "velocity": 0.31496062992125984,
                    "duration": 0.21971599999999825
                },
                {
                    "name": "G4",
                    "midi": 67,
                    "time": 55.58814800000004,
                    "velocity": 0.2677165354330709,
                    "duration": 0.21971599999999825
                },
                {
                    "name": "E4",
                    "midi": 64,
                    "time": 55.80786400000004,
                    "velocity": 0.2677165354330709,
                    "duration": 0.21971599999999825
                },
                {
                    "name": "G4",
                    "midi": 67,
                    "time": 56.027580000000036,
                    "velocity": 0.2677165354330709,
                    "duration": 0.21971599999999825
                },
                {
                    "name": "F4",
                    "midi": 65,
                    "time": 56.247296000000034,
                    "velocity": 0.31496062992125984,
                    "duration": 0.4394319999999965
                },
                {
                    "name": "F3",
                    "midi": 53,
                    "time": 57.56559200000003,
                    "velocity": 0.31496062992125984,
                    "duration": 0.4394319999999965
                },
                {
                    "name": "C4",
                    "midi": 60,
                    "time": 57.56559200000003,
                    "velocity": 0.31496062992125984,
                    "duration": 0.4394319999999965
                },
                {
                    "name": "E3",
                    "midi": 52,
                    "time": 58.00502400000003,
                    "velocity": 0.31496062992125984,
                    "duration": 0.4394319999999965
                },
                {
                    "name": "C4",
                    "midi": 60,
                    "time": 58.00502400000003,
                    "velocity": 0.31496062992125984,
                    "duration": 0.4394319999999965
                },
                {
                    "name": "E3",
                    "midi": 52,
                    "time": 59.323320000000024,
                    "velocity": 0.31496062992125984,
                    "duration": 0.4394319999999965
                },
                {
                    "name": "C4",
                    "midi": 60,
                    "time": 59.323320000000024,
                    "velocity": 0.31496062992125984,
                    "duration": 0.4394319999999965
                },
                {
                    "name": "D3",
                    "midi": 50,
                    "time": 59.76275200000002,
                    "velocity": 0.31496062992125984,
                    "duration": 0.4394319999999965
                },
                {
                    "name": "C4",
                    "midi": 60,
                    "time": 59.76275200000002,
                    "velocity": 0.31496062992125984,
                    "duration": 0.4394319999999965
                },
                {
                    "name": "D3",
                    "midi": 50,
                    "time": 61.08104800000002,
                    "velocity": 0.31496062992125984,
                    "duration": 0.4394319999999965
                },
                {
                    "name": "B3",
                    "midi": 59,
                    "time": 61.08104800000002,
                    "velocity": 0.31496062992125984,
                    "duration": 0.4394319999999965
                },
                {
                    "name": "C3",
                    "midi": 48,
                    "time": 61.52048000000001,
                    "velocity": 0.31496062992125984,
                    "duration": 0.4394319999999965
                },
                {
                    "name": "C4",
                    "midi": 60,
                    "time": 61.52048000000001,
                    "velocity": 0.31496062992125984,
                    "duration": 0.4394319999999965
                },
                {
                    "name": "E3",
                    "midi": 52,
                    "time": 62.83877600000001,
                    "velocity": 0.31496062992125984,
                    "duration": 0.4394319999999965
                },
                {
                    "name": "C3",
                    "midi": 48,
                    "time": 62.83877600000001,
                    "velocity": 0.31496062992125984,
                    "duration": 0.4394319999999965
                },
                {
                    "name": "F3",
                    "midi": 53,
                    "time": 63.27820800000001,
                    "velocity": 0.31496062992125984,
                    "duration": 1.7577280000000002
                },
                {
                    "name": "A3",
                    "midi": 57,
                    "time": 63.27820800000001,
                    "velocity": 0.31496062992125984,
                    "duration": 1.7577280000000002
                },
                {
                    "name": "F3",
                    "midi": 53,
                    "time": 65.035936,
                    "velocity": 0.47244094488188976,
                    "duration": 0.6591480000000018
                },
                {
                    "name": "G3",
                    "midi": 55,
                    "time": 65.69508400000001,
                    "velocity": 0.4330708661417323,
                    "duration": 0.21971600000000535
                },
                {
                    "name": "A3",
                    "midi": 57,
                    "time": 65.91480000000001,
                    "velocity": 0.47244094488188976,
                    "duration": 0.6591480000000018
                },
                {
                    "name": "F#3",
                    "midi": 54,
                    "time": 66.57394800000002,
                    "velocity": 0.4251968503937008,
                    "duration": 0.21971600000000535
                },
                {
                    "name": "G2",
                    "midi": 43,
                    "time": 66.79366400000002,
                    "velocity": 0.5118110236220472,
                    "duration": 0.10985800000000268
                },
                {
                    "name": "B2",
                    "midi": 47,
                    "time": 66.90352200000002,
                    "velocity": 0.4409448818897638,
                    "duration": 0.10985800000000268
                },
                {
                    "name": "D3",
                    "midi": 50,
                    "time": 67.01338000000003,
                    "velocity": 0.4409448818897638,
                    "duration": 0.10985800000000268
                },
                {
                    "name": "G3",
                    "midi": 55,
                    "time": 67.12323800000003,
                    "velocity": 0.3937007874015748,
                    "duration": 0.10985800000000268
                },
                {
                    "name": "G2",
                    "midi": 43,
                    "time": 67.23309600000003,
                    "velocity": 0.5118110236220472,
                    "duration": 0.10985800000000268
                },
                {
                    "name": "C3",
                    "midi": 48,
                    "time": 67.34295400000003,
                    "velocity": 0.4330708661417323,
                    "duration": 0.10985800000000268
                },
                {
                    "name": "E3",
                    "midi": 52,
                    "time": 67.45281200000004,
                    "velocity": 0.4330708661417323,
                    "duration": 0.10985800000000268
                },
                {
                    "name": "G3",
                    "midi": 55,
                    "time": 67.56267000000004,
                    "velocity": 0.3937007874015748,
                    "duration": 0.10985800000000268
                },
                {
                    "name": "G2",
                    "midi": 43,
                    "time": 67.67252800000004,
                    "velocity": 0.5118110236220472,
                    "duration": 0.10985800000000268
                },
                {
                    "name": "B2",
                    "midi": 47,
                    "time": 67.78238600000005,
                    "velocity": 0.4330708661417323,
                    "duration": 0.10985800000000268
                },
                {
                    "name": "D3",
                    "midi": 50,
                    "time": 67.89224400000005,
                    "velocity": 0.4330708661417323,
                    "duration": 0.10985800000000268
                },
                {
                    "name": "G3",
                    "midi": 55,
                    "time": 68.00210200000005,
                    "velocity": 0.4251968503937008,
                    "duration": 0.10985800000000268
                },
                {
                    "name": "G2",
                    "midi": 43,
                    "time": 68.11196000000005,
                    "velocity": 0.5118110236220472,
                    "duration": 0.10985800000000268
                },
                {
                    "name": "C3",
                    "midi": 48,
                    "time": 68.22181800000006,
                    "velocity": 0.44881889763779526,
                    "duration": 0.10985800000000268
                },
                {
                    "name": "E3",
                    "midi": 52,
                    "time": 68.33167600000006,
                    "velocity": 0.4409448818897638,
                    "duration": 0.10985800000000268
                },
                {
                    "name": "G3",
                    "midi": 55,
                    "time": 68.44153400000006,
                    "velocity": 0.41732283464566927,
                    "duration": 0.10985800000000268
                },
                {
                    "name": "G2",
                    "midi": 43,
                    "time": 68.55139200000006,
                    "velocity": 0.5118110236220472,
                    "duration": 0.10985800000000268
                },
                {
                    "name": "G3",
                    "midi": 55,
                    "time": 68.99082400000006,
                    "velocity": 0.4645669291338583,
                    "duration": 0.10985800000000268
                },
                {
                    "name": "G2",
                    "midi": 43,
                    "time": 69.43025600000006,
                    "velocity": 0.48031496062992124,
                    "duration": 0.4394319999999965
                },
                {
                    "name": "C#4",
                    "midi": 61,
                    "time": 70.30912000000005,
                    "velocity": 0.33070866141732286,
                    "duration": 0.12084380000000294
                },
                {
                    "name": "D4",
                    "midi": 62,
                    "time": 70.41897800000005,
                    "velocity": 0.28346456692913385,
                    "duration": 0.10985800000000268
                },
                {
                    "name": "C#4",
                    "midi": 61,
                    "time": 70.52883600000006,
                    "velocity": 0.33070866141732286,
                    "duration": 0.12084380000000294
                },
                {
                    "name": "D4",
                    "midi": 62,
                    "time": 70.63869400000006,
                    "velocity": 0.28346456692913385,
                    "duration": 0.10985800000000268
                },
                {
                    "name": "C#4",
                    "midi": 61,
                    "time": 70.74855200000006,
                    "velocity": 0.33070866141732286,
                    "duration": 0.12084380000000294
                },
                {
                    "name": "D4",
                    "midi": 62,
                    "time": 70.85841000000006,
                    "velocity": 0.2992125984251969,
                    "duration": 0.10985800000000268
                },
                {
                    "name": "C#4",
                    "midi": 61,
                    "time": 70.96826800000007,
                    "velocity": 0.33070866141732286,
                    "duration": 0.12084380000000294
                },
                {
                    "name": "D4",
                    "midi": 62,
                    "time": 71.07812600000007,
                    "velocity": 0.29133858267716534,
                    "duration": 0.10985800000000268
                },
                {
                    "name": "C4",
                    "midi": 60,
                    "time": 71.18798400000007,
                    "velocity": 0.33070866141732286,
                    "duration": 0.12084380000000294
                },
                {
                    "name": "D4",
                    "midi": 62,
                    "time": 71.29784200000007,
                    "velocity": 0.28346456692913385,
                    "duration": 0.10985800000000268
                },
                {
                    "name": "C4",
                    "midi": 60,
                    "time": 71.40770000000008,
                    "velocity": 0.33070866141732286,
                    "duration": 0.12084380000000294
                },
                {
                    "name": "D4",
                    "midi": 62,
                    "time": 71.51755800000008,
                    "velocity": 0.29133858267716534,
                    "duration": 0.10985800000000268
                },
                {
                    "name": "C4",
                    "midi": 60,
                    "time": 71.62741600000008,
                    "velocity": 0.33070866141732286,
                    "duration": 0.12084380000000294
                },
                {
                    "name": "D4",
                    "midi": 62,
                    "time": 71.73727400000008,
                    "velocity": 0.29133858267716534,
                    "duration": 0.10985800000000268
                },
                {
                    "name": "C4",
                    "midi": 60,
                    "time": 71.84713200000009,
                    "velocity": 0.33070866141732286,
                    "duration": 0.12084380000000294
                },
                {
                    "name": "D4",
                    "midi": 62,
                    "time": 71.95699000000009,
                    "velocity": 0.2992125984251969,
                    "duration": 0.10985800000000268
                },
                {
                    "name": "B3",
                    "midi": 59,
                    "time": 72.06684800000009,
                    "velocity": 0.33070866141732286,
                    "duration": 0.10985800000000268
                },
                {
                    "name": "D4",
                    "midi": 62,
                    "time": 72.1767060000001,
                    "velocity": 0.28346456692913385,
                    "duration": 0.10985800000000268
                },
                {
                    "name": "B3",
                    "midi": 59,
                    "time": 72.2865640000001,
                    "velocity": 0.33070866141732286,
                    "duration": 0.10985800000000268
                },
                {
                    "name": "D4",
                    "midi": 62,
                    "time": 72.3964220000001,
                    "velocity": 0.28346456692913385,
                    "duration": 0.10985800000000268
                },
                {
                    "name": "B3",
                    "midi": 59,
                    "time": 72.5062800000001,
                    "velocity": 0.33070866141732286,
                    "duration": 0.10985800000000268
                },
                {
                    "name": "D4",
                    "midi": 62,
                    "time": 72.6161380000001,
                    "velocity": 0.25196850393700787,
                    "duration": 0.10985800000000268
                },
                {
                    "name": "B3",
                    "midi": 59,
                    "time": 72.72599600000011,
                    "velocity": 0.2992125984251969,
                    "duration": 0.10985800000000268
                },
                {
                    "name": "D4",
                    "midi": 62,
                    "time": 72.83585400000011,
                    "velocity": 0.25984251968503935,
                    "duration": 0.10985800000000268
                },
                {
                    "name": "B3",
                    "midi": 59,
                    "time": 72.94571200000011,
                    "velocity": 0.30708661417322836,
                    "duration": 0.10985800000000268
                },
                {
                    "name": "D4",
                    "midi": 62,
                    "time": 73.05557000000012,
                    "velocity": 0.25196850393700787,
                    "duration": 0.10985800000000268
                },
                {
                    "name": "B3",
                    "midi": 59,
                    "time": 73.16542800000012,
                    "velocity": 0.30708661417322836,
                    "duration": 0.10985800000000268
                },
                {
                    "name": "D4",
                    "midi": 62,
                    "time": 73.27528600000012,
                    "velocity": 0.2677165354330709,
                    "duration": 0.10985800000000268
                },
                {
                    "name": "B3",
                    "midi": 59,
                    "time": 73.38514400000012,
                    "velocity": 0.33070866141732286,
                    "duration": 0.10985800000000268
                },
                {
                    "name": "D4",
                    "midi": 62,
                    "time": 73.49500200000013,
                    "velocity": 0.29133858267716534,
                    "duration": 0.10985800000000268
                },
                {
                    "name": "B3",
                    "midi": 59,
                    "time": 73.60486000000013,
                    "velocity": 0.33070866141732286,
                    "duration": 0.10985800000000268
                },
                {
                    "name": "D4",
                    "midi": 62,
                    "time": 73.71471800000013,
                    "velocity": 0.2992125984251969,
                    "duration": 0.10985800000000268
                },
                {
                    "name": "C4",
                    "midi": 60,
                    "time": 73.82457600000014,
                    "velocity": 0.36220472440944884,
                    "duration": 0.10985800000000268
                },
                {
                    "name": "D4",
                    "midi": 62,
                    "time": 73.93443400000014,
                    "velocity": 0.2992125984251969,
                    "duration": 0.10985800000000268
                },
                {
                    "name": "B3",
                    "midi": 59,
                    "time": 74.04429200000014,
                    "velocity": 0.33070866141732286,
                    "duration": 0.10985800000000268
                },
                {
                    "name": "D4",
                    "midi": 62,
                    "time": 74.15415000000014,
                    "velocity": 0.28346456692913385,
                    "duration": 0.10985800000000268
                },
                {
                    "name": "A3",
                    "midi": 57,
                    "time": 74.26400800000015,
                    "velocity": 0.30708661417322836,
                    "duration": 0.12084380000000294
                },
                {
                    "name": "D4",
                    "midi": 62,
                    "time": 74.37386600000015,
                    "velocity": 0.2125984251968504,
                    "duration": 0.10985800000000268
                },
                {
                    "name": "B3",
                    "midi": 59,
                    "time": 74.48372400000015,
                    "velocity": 0.3700787401574803,
                    "duration": 0.12084380000000294
                },
                {
                    "name": "D4",
                    "midi": 62,
                    "time": 74.59358200000015,
                    "velocity": 0.2755905511811024,
                    "duration": 0.10985800000000268
                },
                {
                    "name": "C4",
                    "midi": 60,
                    "time": 74.70344000000016,
                    "velocity": 0.3937007874015748,
                    "duration": 0.12084380000000294
                },
                {
                    "name": "D4",
                    "midi": 62,
                    "time": 74.81329800000016,
                    "velocity": 0.28346456692913385,
                    "duration": 0.10985800000000268
                },
                {
                    "name": "B3",
                    "midi": 59,
                    "time": 74.92315600000016,
                    "velocity": 0.3464566929133858,
                    "duration": 0.12084380000000294
                },
                {
                    "name": "D4",
                    "midi": 62,
                    "time": 75.03301400000016,
                    "velocity": 0.23622047244094488,
                    "duration": 0.10985800000000268
                },
                {
                    "name": "C4",
                    "midi": 60,
                    "time": 75.14287200000017,
                    "velocity": 0.4094488188976378,
                    "duration": 0.12084380000000294
                },
                {
                    "name": "D4",
                    "midi": 62,
                    "time": 75.25273000000017,
                    "velocity": 0.2440944881889764,
                    "duration": 0.10985800000000268
                },
                {
                    "name": "A3",
                    "midi": 57,
                    "time": 75.36258800000017,
                    "velocity": 0.31496062992125984,
                    "duration": 0.12084380000000294
                },
                {
                    "name": "D4",
                    "midi": 62,
                    "time": 75.47244600000018,
                    "velocity": 0.2204724409448819,
                    "duration": 0.10985800000000268
                },
                {
                    "name": "B3",
                    "midi": 59,
                    "time": 75.58230400000018,
                    "velocity": 0.33070866141732286,
                    "duration": 0.10985800000000268
                },
                {
                    "name": "D4",
                    "midi": 62,
                    "time": 75.69216200000018,
                    "velocity": 0.28346456692913385,
                    "duration": 0.10985800000000268
                },
                {
                    "name": "B3",
                    "midi": 59,
                    "time": 75.80202000000018,
                    "velocity": 0.33070866141732286,
                    "duration": 0.10985800000000268
                },
                {
                    "name": "D4",
                    "midi": 62,
                    "time": 75.91187800000019,
                    "velocity": 0.28346456692913385,
                    "duration": 0.10985800000000268
                },
                {
                    "name": "B3",
                    "midi": 59,
                    "time": 76.02173600000019,
                    "velocity": 0.33070866141732286,
                    "duration": 0.10985800000000268
                },
                {
                    "name": "D4",
                    "midi": 62,
                    "time": 76.13159400000019,
                    "velocity": 0.25196850393700787,
                    "duration": 0.10985800000000268
                },
                {
                    "name": "B3",
                    "midi": 59,
                    "time": 76.2414520000002,
                    "velocity": 0.2992125984251969,
                    "duration": 0.10985800000000268
                },
                {
                    "name": "D4",
                    "midi": 62,
                    "time": 76.3513100000002,
                    "velocity": 0.25984251968503935,
                    "duration": 0.10985800000000268
                },
                {
                    "name": "B3",
                    "midi": 59,
                    "time": 76.4611680000002,
                    "velocity": 0.30708661417322836,
                    "duration": 0.10985800000000268
                },
                {
                    "name": "D4",
                    "midi": 62,
                    "time": 76.5710260000002,
                    "velocity": 0.25196850393700787,
                    "duration": 0.10985800000000268
                },
                {
                    "name": "B3",
                    "midi": 59,
                    "time": 76.6808840000002,
                    "velocity": 0.30708661417322836,
                    "duration": 0.10985800000000268
                },
                {
                    "name": "D4",
                    "midi": 62,
                    "time": 76.79074200000021,
                    "velocity": 0.2677165354330709,
                    "duration": 0.10985800000000268
                },
                {
                    "name": "B3",
                    "midi": 59,
                    "time": 76.90060000000021,
                    "velocity": 0.33070866141732286,
                    "duration": 0.10985800000000268
                },
                {
                    "name": "D4",
                    "midi": 62,
                    "time": 77.01045800000021,
                    "velocity": 0.29133858267716534,
                    "duration": 0.10985800000000268
                },
                {
                    "name": "B3",
                    "midi": 59,
                    "time": 77.12031600000022,
                    "velocity": 0.33070866141732286,
                    "duration": 0.10985800000000268
                },
                {
                    "name": "D4",
                    "midi": 62,
                    "time": 77.23017400000022,
                    "velocity": 0.2992125984251969,
                    "duration": 0.10985800000000268
                },
                {
                    "name": "C4",
                    "midi": 60,
                    "time": 77.34003200000022,
                    "velocity": 0.33070866141732286,
                    "duration": 0.10985800000000268
                },
                {
                    "name": "D4",
                    "midi": 62,
                    "time": 77.44989000000022,
                    "velocity": 0.28346456692913385,
                    "duration": 0.10985800000000268
                },
                {
                    "name": "B3",
                    "midi": 59,
                    "time": 77.55974800000023,
                    "velocity": 0.33070866141732286,
                    "duration": 0.10985800000000268
                },
                {
                    "name": "D4",
                    "midi": 62,
                    "time": 77.66960600000023,
                    "velocity": 0.28346456692913385,
                    "duration": 0.10985800000000268
                },
                {
                    "name": "A3",
                    "midi": 57,
                    "time": 77.77946400000023,
                    "velocity": 0.30708661417322836,
                    "duration": 0.12084380000000294
                },
                {
                    "name": "D4",
                    "midi": 62,
                    "time": 77.88932200000023,
                    "velocity": 0.2283464566929134,
                    "duration": 0.10985800000000268
                },
                {
                    "name": "B3",
                    "midi": 59,
                    "time": 77.99918000000024,
                    "velocity": 0.33070866141732286,
                    "duration": 0.12084380000000294
                },
                {
                    "name": "D4",
                    "midi": 62,
                    "time": 78.10903800000024,
                    "velocity": 0.25196850393700787,
                    "duration": 0.10985800000000268
                },
                {
                    "name": "C4",
                    "midi": 60,
                    "time": 78.21889600000024,
                    "velocity": 0.3779527559055118,
                    "duration": 0.12084380000000294
                },
                {
                    "name": "D4",
                    "midi": 62,
                    "time": 78.32875400000025,
                    "velocity": 0.28346456692913385,
                    "duration": 0.10985800000000268
                },
                {
                    "name": "B3",
                    "midi": 59,
                    "time": 78.43861200000025,
                    "velocity": 0.33858267716535434,
                    "duration": 0.12084380000000294
                },
                {
                    "name": "D4",
                    "midi": 62,
                    "time": 78.54847000000025,
                    "velocity": 0.23622047244094488,
                    "duration": 0.10985800000000268
                },
                {
                    "name": "C4",
                    "midi": 60,
                    "time": 78.65832800000025,
                    "velocity": 0.3779527559055118,
                    "duration": 0.12084380000000294
                },
                {
                    "name": "D4",
                    "midi": 62,
                    "time": 78.76818600000026,
                    "velocity": 0.28346456692913385,
                    "duration": 0.10985800000000268
                },
                {
                    "name": "A3",
                    "midi": 57,
                    "time": 78.87804400000026,
                    "velocity": 0.33858267716535434,
                    "duration": 0.12084380000000294
                },
                {
                    "name": "D4",
                    "midi": 62,
                    "time": 78.98790200000026,
                    "velocity": 0.23622047244094488,
                    "duration": 0.10985800000000268
                },
                {
                    "name": "B3",
                    "midi": 59,
                    "time": 79.20761800000027,
                    "velocity": 0.30708661417322836,
                    "duration": 0.10985800000000268
                },
                {
                    "name": "D4",
                    "midi": 62,
                    "time": 79.31747600000027,
                    "velocity": 0.33070866141732286,
                    "duration": 0.10985800000000268
                },
                {
                    "name": "G4",
                    "midi": 67,
                    "time": 79.42733400000027,
                    "velocity": 0.30708661417322836,
                    "duration": 0.10985800000000268
                },
                {
                    "name": "B4",
                    "midi": 71,
                    "time": 79.53719200000027,
                    "velocity": 0.3779527559055118,
                    "duration": 0.4394319999999965
                },
                {
                    "name": "C4",
                    "midi": 60,
                    "time": 80.08648200000027,
                    "velocity": 0.33070866141732286,
                    "duration": 0.10985800000000268
                },
                {
                    "name": "E4",
                    "midi": 64,
                    "time": 80.19634000000028,
                    "velocity": 0.3464566929133858,
                    "duration": 0.10985800000000268
                },
                {
                    "name": "G4",
                    "midi": 67,
                    "time": 80.30619800000028,
                    "velocity": 0.3228346456692913,
                    "duration": 0.10985800000000268
                },
                {
                    "name": "C5",
                    "midi": 72,
                    "time": 80.41605600000028,
                    "velocity": 0.4094488188976378,
                    "duration": 0.4394319999999965
                },
                {
                    "name": "A3",
                    "midi": 57,
                    "time": 80.96534600000028,
                    "velocity": 0.30708661417322836,
                    "duration": 0.10985800000000268
                },
                {
                    "name": "C4",
                    "midi": 60,
                    "time": 81.07520400000028,
                    "velocity": 0.33070866141732286,
                    "duration": 0.10985800000000268
                },
                {
                    "name": "F#4",
                    "midi": 66,
                    "time": 81.18506200000029,
                    "velocity": 0.30708661417322836,
                    "duration": 0.10985800000000268
                },
                {
                    "name": "A4",
                    "midi": 69,
                    "time": 81.29492000000029,
                    "velocity": 0.3779527559055118,
                    "duration": 0.4394319999999965
                },
                {
                    "name": "B3",
                    "midi": 59,
                    "time": 81.84421000000029,
                    "velocity": 0.33070866141732286,
                    "duration": 0.10985800000000268
                },
                {
                    "name": "D4",
                    "midi": 62,
                    "time": 81.95406800000029,
                    "velocity": 0.3464566929133858,
                    "duration": 0.10985800000000268
                },
                {
                    "name": "F#4",
                    "midi": 66,
                    "time": 82.0639260000003,
                    "velocity": 0.3228346456692913,
                    "duration": 0.10985800000000268
                },
                {
                    "name": "B4",
                    "midi": 71,
                    "time": 82.1737840000003,
                    "velocity": 0.4094488188976378,
                    "duration": 0.4394319999999965
                },
                {
                    "name": "G3",
                    "midi": 55,
                    "time": 82.7230740000003,
                    "velocity": 0.30708661417322836,
                    "duration": 0.10985800000000268
                },
                {
                    "name": "B3",
                    "midi": 59,
                    "time": 82.8329320000003,
                    "velocity": 0.33070866141732286,
                    "duration": 0.10985800000000268
                },
                {
                    "name": "E4",
                    "midi": 64,
                    "time": 82.9427900000003,
                    "velocity": 0.30708661417322836,
                    "duration": 0.10985800000000268
                },
                {
                    "name": "G4",
                    "midi": 67,
                    "time": 83.0526480000003,
                    "velocity": 0.3779527559055118,
                    "duration": 0.4394319999999965
                },
                {
                    "name": "A3",
                    "midi": 57,
                    "time": 83.6019380000003,
                    "velocity": 0.33070866141732286,
                    "duration": 0.10985800000000268
                },
                {
                    "name": "C4",
                    "midi": 60,
                    "time": 83.7117960000003,
                    "velocity": 0.3464566929133858,
                    "duration": 0.10985800000000268
                },
                {
                    "name": "E4",
                    "midi": 64,
                    "time": 83.82165400000031,
                    "velocity": 0.3228346456692913,
                    "duration": 0.10985800000000268
                },
                {
                    "name": "A4",
                    "midi": 69,
                    "time": 83.93151200000031,
                    "velocity": 0.4094488188976378,
                    "duration": 0.4394319999999965
                },
                {
                    "name": "F#3",
                    "midi": 54,
                    "time": 84.48080200000031,
                    "velocity": 0.30708661417322836,
                    "duration": 0.10985800000000268
                },
                {
                    "name": "A3",
                    "midi": 57,
                    "time": 84.59066000000031,
                    "velocity": 0.33070866141732286,
                    "duration": 0.10985800000000268
                },
                {
                    "name": "D4",
                    "midi": 62,
                    "time": 84.70051800000032,
                    "velocity": 0.30708661417322836,
                    "duration": 0.10985800000000268
                },
                {
                    "name": "F#4",
                    "midi": 66,
                    "time": 84.81037600000032,
                    "velocity": 0.3779527559055118,
                    "duration": 0.4394319999999965
                },
                {
                    "name": "G3",
                    "midi": 55,
                    "time": 85.35966600000032,
                    "velocity": 0.33070866141732286,
                    "duration": 0.10985800000000268
                },
                {
                    "name": "B3",
                    "midi": 59,
                    "time": 85.46952400000032,
                    "velocity": 0.3464566929133858,
                    "duration": 0.10985800000000268
                },
                {
                    "name": "D4",
                    "midi": 62,
                    "time": 85.57938200000032,
                    "velocity": 0.3228346456692913,
                    "duration": 0.10985800000000268
                },
                {
                    "name": "G4",
                    "midi": 67,
                    "time": 85.68924000000032,
                    "velocity": 0.4094488188976378,
                    "duration": 0.4394319999999965
                },
                {
                    "name": "E4",
                    "midi": 64,
                    "time": 86.12867200000032,
                    "velocity": 0.3464566929133858,
                    "duration": 0.10985800000000268
                },
                {
                    "name": "C4",
                    "midi": 60,
                    "time": 86.12867200000032,
                    "velocity": 0.3464566929133858,
                    "duration": 0.10985800000000268
                },
                {
                    "name": "E4",
                    "midi": 64,
                    "time": 86.34838800000033,
                    "velocity": 0.30708661417322836,
                    "duration": 0.10985800000000268
                },
                {
                    "name": "C4",
                    "midi": 60,
                    "time": 86.34838800000033,
                    "velocity": 0.30708661417322836,
                    "duration": 0.10985800000000268
                },
                {
                    "name": "E4",
                    "midi": 64,
                    "time": 86.56810400000033,
                    "velocity": 0.30708661417322836,
                    "duration": 0.10985800000000268
                },
                {
                    "name": "C4",
                    "midi": 60,
                    "time": 86.56810400000033,
                    "velocity": 0.30708661417322836,
                    "duration": 0.10985800000000268
                },
                {
                    "name": "C4",
                    "midi": 60,
                    "time": 86.78782000000034,
                    "velocity": 0.30708661417322836,
                    "duration": 0.10985800000000268
                },
                {
                    "name": "E4",
                    "midi": 64,
                    "time": 86.78782000000034,
                    "velocity": 0.30708661417322836,
                    "duration": 0.10985800000000268
                },
                {
                    "name": "C4",
                    "midi": 60,
                    "time": 87.00753600000034,
                    "velocity": 0.3464566929133858,
                    "duration": 0.10985800000000268
                },
                {
                    "name": "E4",
                    "midi": 64,
                    "time": 87.00753600000034,
                    "velocity": 0.3464566929133858,
                    "duration": 0.10985800000000268
                },
                {
                    "name": "C4",
                    "midi": 60,
                    "time": 87.22725200000035,
                    "velocity": 0.31496062992125984,
                    "duration": 0.10985800000000268
                },
                {
                    "name": "E4",
                    "midi": 64,
                    "time": 87.22725200000035,
                    "velocity": 0.31496062992125984,
                    "duration": 0.10985800000000268
                },
                {
                    "name": "E4",
                    "midi": 64,
                    "time": 87.44696800000035,
                    "velocity": 0.31496062992125984,
                    "duration": 0.10985800000000268
                },
                {
                    "name": "C4",
                    "midi": 60,
                    "time": 87.44696800000035,
                    "velocity": 0.31496062992125984,
                    "duration": 0.10985800000000268
                },
                {
                    "name": "C4",
                    "midi": 60,
                    "time": 87.66668400000036,
                    "velocity": 0.3228346456692913,
                    "duration": 0.10985800000000268
                },
                {
                    "name": "E4",
                    "midi": 64,
                    "time": 87.66668400000036,
                    "velocity": 0.3228346456692913,
                    "duration": 0.10985800000000268
                },
                {
                    "name": "E4",
                    "midi": 64,
                    "time": 87.88640000000036,
                    "velocity": 0.3937007874015748,
                    "duration": 0.10985800000000268
                },
                {
                    "name": "C4",
                    "midi": 60,
                    "time": 87.88640000000036,
                    "velocity": 0.3937007874015748,
                    "duration": 0.10985800000000268
                },
                {
                    "name": "E4",
                    "midi": 64,
                    "time": 88.10611600000037,
                    "velocity": 0.3464566929133858,
                    "duration": 0.10985800000000268
                },
                {
                    "name": "C4",
                    "midi": 60,
                    "time": 88.10611600000037,
                    "velocity": 0.3464566929133858,
                    "duration": 0.10985800000000268
                },
                {
                    "name": "E4",
                    "midi": 64,
                    "time": 88.32583200000037,
                    "velocity": 0.3464566929133858,
                    "duration": 0.10985800000000268
                },
                {
                    "name": "C4",
                    "midi": 60,
                    "time": 88.32583200000037,
                    "velocity": 0.3464566929133858,
                    "duration": 0.10985800000000268
                },
                {
                    "name": "C4",
                    "midi": 60,
                    "time": 88.54554800000038,
                    "velocity": 0.3464566929133858,
                    "duration": 0.10985800000000268
                },
                {
                    "name": "E4",
                    "midi": 64,
                    "time": 88.54554800000038,
                    "velocity": 0.3464566929133858,
                    "duration": 0.10985800000000268
                },
                {
                    "name": "C4",
                    "midi": 60,
                    "time": 88.76526400000039,
                    "velocity": 0.3858267716535433,
                    "duration": 0.10985800000000268
                },
                {
                    "name": "E4",
                    "midi": 64,
                    "time": 88.76526400000039,
                    "velocity": 0.3858267716535433,
                    "duration": 0.10985800000000268
                },
                {
                    "name": "E4",
                    "midi": 64,
                    "time": 88.98498000000039,
                    "velocity": 0.36220472440944884,
                    "duration": 0.10985800000000268
                },
                {
                    "name": "C4",
                    "midi": 60,
                    "time": 88.98498000000039,
                    "velocity": 0.36220472440944884,
                    "duration": 0.10985800000000268
                },
                {
                    "name": "C4",
                    "midi": 60,
                    "time": 89.2046960000004,
                    "velocity": 0.36220472440944884,
                    "duration": 0.10985800000000268
                },
                {
                    "name": "E4",
                    "midi": 64,
                    "time": 89.2046960000004,
                    "velocity": 0.36220472440944884,
                    "duration": 0.10985800000000268
                },
                {
                    "name": "C4",
                    "midi": 60,
                    "time": 89.4244120000004,
                    "velocity": 0.36220472440944884,
                    "duration": 0.10985800000000268
                },
                {
                    "name": "E4",
                    "midi": 64,
                    "time": 89.4244120000004,
                    "velocity": 0.36220472440944884,
                    "duration": 0.10985800000000268
                },
                {
                    "name": "D4",
                    "midi": 62,
                    "time": 89.6441280000004,
                    "velocity": 0.3937007874015748,
                    "duration": 0.10985800000000268
                },
                {
                    "name": "B4",
                    "midi": 71,
                    "time": 89.75398600000041,
                    "velocity": 0.33070866141732286,
                    "duration": 0.10985800000000268
                },
                {
                    "name": "G4",
                    "midi": 67,
                    "time": 89.86384400000041,
                    "velocity": 0.33070866141732286,
                    "duration": 0.10985800000000268
                },
                {
                    "name": "B4",
                    "midi": 71,
                    "time": 89.97370200000042,
                    "velocity": 0.33070866141732286,
                    "duration": 0.10985800000000268
                },
                {
                    "name": "D4",
                    "midi": 62,
                    "time": 90.08356000000042,
                    "velocity": 0.3858267716535433,
                    "duration": 0.10985800000000268
                },
                {
                    "name": "B4",
                    "midi": 71,
                    "time": 90.19341800000042,
                    "velocity": 0.33070866141732286,
                    "duration": 0.10985800000000268
                },
                {
                    "name": "G4",
                    "midi": 67,
                    "time": 90.30327600000042,
                    "velocity": 0.33070866141732286,
                    "duration": 0.10985800000000268
                },
                {
                    "name": "B4",
                    "midi": 71,
                    "time": 90.41313400000043,
                    "velocity": 0.33070866141732286,
                    "duration": 0.10985800000000268
                },
                {
                    "name": "D4",
                    "midi": 62,
                    "time": 90.52299200000043,
                    "velocity": 0.3779527559055118,
                    "duration": 0.10985800000000268
                },
                {
                    "name": "B4",
                    "midi": 71,
                    "time": 90.63285000000043,
                    "velocity": 0.33070866141732286,
                    "duration": 0.10985800000000268
                },
                {
                    "name": "G4",
                    "midi": 67,
                    "time": 90.74270800000043,
                    "velocity": 0.33070866141732286,
                    "duration": 0.10985800000000268
                },
                {
                    "name": "B4",
                    "midi": 71,
                    "time": 90.85256600000044,
                    "velocity": 0.33070866141732286,
                    "duration": 0.10985800000000268
                },
                {
                    "name": "D4",
                    "midi": 62,
                    "time": 90.96242400000044,
                    "velocity": 0.3858267716535433,
                    "duration": 0.10985800000000268
                },
                {
                    "name": "B4",
                    "midi": 71,
                    "time": 91.07228200000044,
                    "velocity": 0.33070866141732286,
                    "duration": 0.10985800000000268
                },
                {
                    "name": "G4",
                    "midi": 67,
                    "time": 91.18214000000044,
                    "velocity": 0.33070866141732286,
                    "duration": 0.10985800000000268
                },
                {
                    "name": "B4",
                    "midi": 71,
                    "time": 91.29199800000045,
                    "velocity": 0.33070866141732286,
                    "duration": 0.10985800000000268
                },
                {
                    "name": "D4",
                    "midi": 62,
                    "time": 91.40185600000045,
                    "velocity": 0.3937007874015748,
                    "duration": 0.10985800000000268
                },
                {
                    "name": "C5",
                    "midi": 72,
                    "time": 91.51171400000045,
                    "velocity": 0.33070866141732286,
                    "duration": 0.10985800000000268
                },
                {
                    "name": "F#4",
                    "midi": 66,
                    "time": 91.62157200000046,
                    "velocity": 0.33070866141732286,
                    "duration": 0.10985800000000268
                },
                {
                    "name": "C5",
                    "midi": 72,
                    "time": 91.73143000000046,
                    "velocity": 0.33070866141732286,
                    "duration": 0.10985800000000268
                },
                {
                    "name": "D4",
                    "midi": 62,
                    "time": 91.84128800000046,
                    "velocity": 0.3858267716535433,
                    "duration": 0.10985800000000268
                },
                {
                    "name": "C5",
                    "midi": 72,
                    "time": 91.95114600000046,
                    "velocity": 0.33070866141732286,
                    "duration": 0.10985800000000268
                },
                {
                    "name": "F#4",
                    "midi": 66,
                    "time": 92.06100400000047,
                    "velocity": 0.33070866141732286,
                    "duration": 0.10985800000000268
                },
                {
                    "name": "C5",
                    "midi": 72,
                    "time": 92.17086200000047,
                    "velocity": 0.33070866141732286,
                    "duration": 0.10985800000000268
                },
                {
                    "name": "D4",
                    "midi": 62,
                    "time": 92.28072000000047,
                    "velocity": 0.3779527559055118,
                    "duration": 0.10985800000000268
                },
                {
                    "name": "C5",
                    "midi": 72,
                    "time": 92.39057800000047,
                    "velocity": 0.33070866141732286,
                    "duration": 0.10985800000000268
                },
                {
                    "name": "F#4",
                    "midi": 66,
                    "time": 92.50043600000048,
                    "velocity": 0.33070866141732286,
                    "duration": 0.10985800000000268
                },
                {
                    "name": "C5",
                    "midi": 72,
                    "time": 92.61029400000048,
                    "velocity": 0.33070866141732286,
                    "duration": 0.10985800000000268
                },
                {
                    "name": "D4",
                    "midi": 62,
                    "time": 92.72015200000048,
                    "velocity": 0.3858267716535433,
                    "duration": 0.10985800000000268
                },
                {
                    "name": "C5",
                    "midi": 72,
                    "time": 92.83001000000048,
                    "velocity": 0.33070866141732286,
                    "duration": 0.10985800000000268
                },
                {
                    "name": "F#4",
                    "midi": 66,
                    "time": 92.93986800000049,
                    "velocity": 0.33070866141732286,
                    "duration": 0.10985800000000268
                },
                {
                    "name": "C5",
                    "midi": 72,
                    "time": 93.04972600000049,
                    "velocity": 0.33070866141732286,
                    "duration": 0.10985800000000268
                },
                {
                    "name": "B4",
                    "midi": 71,
                    "time": 93.15958400000049,
                    "velocity": 0.4566929133858268,
                    "duration": 0.4394319999999965
                },
                {
                    "name": "G4",
                    "midi": 67,
                    "time": 93.15958400000049,
                    "velocity": 0.3858267716535433,
                    "duration": 0.4394319999999965
                },
                {
                    "name": "A4",
                    "midi": 69,
                    "time": 94.47788000000048,
                    "velocity": 0.31496062992125984,
                    "duration": 0.4394319999999965
                },
                {
                    "name": "C5",
                    "midi": 72,
                    "time": 94.47788000000048,
                    "velocity": 0.3779527559055118,
                    "duration": 0.4394319999999965
                },
                {
                    "name": "D4",
                    "midi": 62,
                    "time": 94.47788000000048,
                    "velocity": 0.31496062992125984,
                    "duration": 0.4394319999999965
                },
                {
                    "name": "G4",
                    "midi": 67,
                    "time": 94.91731200000048,
                    "velocity": 0.3858267716535433,
                    "duration": 0.4394319999999965
                },
                {
                    "name": "B4",
                    "midi": 71,
                    "time": 94.91731200000048,
                    "velocity": 0.4566929133858268,
                    "duration": 0.4394319999999965
                },
                {
                    "name": "A3",
                    "midi": 57,
                    "time": 96.23560800000047,
                    "velocity": 0.31496062992125984,
                    "duration": 0.4394319999999965
                },
                {
                    "name": "C4",
                    "midi": 60,
                    "time": 96.23560800000047,
                    "velocity": 0.3779527559055118,
                    "duration": 0.4394319999999965
                },
                {
                    "name": "D3",
                    "midi": 50,
                    "time": 96.23560800000047,
                    "velocity": 0.31496062992125984,
                    "duration": 0.4394319999999965
                },
                {
                    "name": "G3",
                    "midi": 55,
                    "time": 96.67504000000046,
                    "velocity": 0.3464566929133858,
                    "duration": 0.10985800000000268
                },
                {
                    "name": "B3",
                    "midi": 59,
                    "time": 96.67504000000046,
                    "velocity": 0.4094488188976378,
                    "duration": 0.10985800000000268
                },
                {
                    "name": "G2",
                    "midi": 43,
                    "time": 97.11447200000046,
                    "velocity": 0.3464566929133858,
                    "duration": 0.10985800000000268
                },
                {
                    "name": "G3",
                    "midi": 55,
                    "time": 97.11447200000046,
                    "velocity": 0.4094488188976378,
                    "duration": 0.10985800000000268
                },
                {
                    "name": "G2",
                    "midi": 43,
                    "time": 97.55390400000046,
                    "velocity": 0.3464566929133858,
                    "duration": 0.4394319999999965
                },
                {
                    "name": "G3",
                    "midi": 55,
                    "time": 97.55390400000046,
                    "velocity": 0.4094488188976378,
                    "duration": 0.4394319999999965
                },
                {
                    "name": "G3",
                    "midi": 55,
                    "time": 98.43276800000045,
                    "velocity": 0.4566929133858268,
                    "duration": 0.4394319999999965
                },
                {
                    "name": "G2",
                    "midi": 43,
                    "time": 98.43276800000045,
                    "velocity": 0.3858267716535433,
                    "duration": 0.4394319999999965
                },
                {
                    "name": "A4",
                    "midi": 69,
                    "time": 99.75106400000044,
                    "velocity": 0.31496062992125984,
                    "duration": 0.4394319999999965
                },
                {
                    "name": "C5",
                    "midi": 72,
                    "time": 99.75106400000044,
                    "velocity": 0.3779527559055118,
                    "duration": 0.4394319999999965
                },
                {
                    "name": "D4",
                    "midi": 62,
                    "time": 99.75106400000044,
                    "velocity": 0.31496062992125984,
                    "duration": 0.4394319999999965
                },
                {
                    "name": "G4",
                    "midi": 67,
                    "time": 100.19049600000044,
                    "velocity": 0.3858267716535433,
                    "duration": 0.4394319999999965
                },
                {
                    "name": "A#4",
                    "midi": 70,
                    "time": 100.19049600000044,
                    "velocity": 0.4566929133858268,
                    "duration": 0.4394319999999965
                },
                {
                    "name": "A3",
                    "midi": 57,
                    "time": 101.50879200000043,
                    "velocity": 0.31496062992125984,
                    "duration": 0.4394319999999965
                },
                {
                    "name": "C4",
                    "midi": 60,
                    "time": 101.50879200000043,
                    "velocity": 0.3779527559055118,
                    "duration": 0.4394319999999965
                },
                {
                    "name": "D3",
                    "midi": 50,
                    "time": 101.50879200000043,
                    "velocity": 0.31496062992125984,
                    "duration": 0.4394319999999965
                },
                {
                    "name": "G2",
                    "midi": 43,
                    "time": 102.05808200000043,
                    "velocity": 0.3858267716535433,
                    "duration": 0.12084380000000294
                },
                {
                    "name": "A2",
                    "midi": 45,
                    "time": 102.16794000000043,
                    "velocity": 0.4015748031496063,
                    "duration": 0.12084380000000294
                },
                {
                    "name": "A#2",
                    "midi": 46,
                    "time": 102.27779800000043,
                    "velocity": 0.4094488188976378,
                    "duration": 0.12084380000000294
                },
                {
                    "name": "C3",
                    "midi": 48,
                    "time": 102.38765600000043,
                    "velocity": 0.4251968503937008,
                    "duration": 0.12084380000000294
                },
                {
                    "name": "D3",
                    "midi": 50,
                    "time": 102.49751400000044,
                    "velocity": 0.4409448818897638,
                    "duration": 0.12084380000000294
                },
                {
                    "name": "E3",
                    "midi": 52,
                    "time": 102.60737200000044,
                    "velocity": 0.4566929133858268,
                    "duration": 0.12084380000000294
                },
                {
                    "name": "F#3",
                    "midi": 54,
                    "time": 102.71723000000044,
                    "velocity": 0.47244094488188976,
                    "duration": 0.12084380000000294
                },
                {
                    "name": "G3",
                    "midi": 55,
                    "time": 102.82708800000044,
                    "velocity": 0.48031496062992124,
                    "duration": 0.4394319999999965
                },
                {
                    "name": "A2",
                    "midi": 45,
                    "time": 103.81581000000044,
                    "velocity": 0.41732283464566927,
                    "duration": 0.12084380000000294
                },
                {
                    "name": "B2",
                    "midi": 47,
                    "time": 103.92566800000044,
                    "velocity": 0.4330708661417323,
                    "duration": 0.12084380000000294
                },
                {
                    "name": "C#3",
                    "midi": 49,
                    "time": 104.03552600000044,
                    "velocity": 0.44881889763779526,
                    "duration": 0.12084380000000294
                },
                {
                    "name": "D3",
                    "midi": 50,
                    "time": 104.14538400000045,
                    "velocity": 0.47244094488188976,
                    "duration": 0.12084380000000294
                },
                {
                    "name": "E3",
                    "midi": 52,
                    "time": 104.25524200000045,
                    "velocity": 0.4881889763779528,
                    "duration": 0.12084380000000294
                },
                {
                    "name": "F#3",
                    "midi": 54,
                    "time": 104.36510000000045,
                    "velocity": 0.5039370078740157,
                    "duration": 0.12084380000000294
                },
                {
                    "name": "G#3",
                    "midi": 56,
                    "time": 104.47495800000046,
                    "velocity": 0.5196850393700787,
                    "duration": 0.12084380000000294
                },
                {
                    "name": "A3",
                    "midi": 57,
                    "time": 104.58481600000046,
                    "velocity": 0.5354330708661418,
                    "duration": 0.4394319999999965
                },
                {
                    "name": "D3",
                    "midi": 50,
                    "time": 105.46368000000045,
                    "velocity": 0.5590551181102362,
                    "duration": 0.4394319999999965
                },
                {
                    "name": "D2",
                    "midi": 38,
                    "time": 105.46368000000045,
                    "velocity": 0.5590551181102362,
                    "duration": 0.4394319999999965
                },
                {
                    "name": "E4",
                    "midi": 64,
                    "time": 106.78197600000044,
                    "velocity": 0.3464566929133858,
                    "duration": 0.4394319999999965
                },
                {
                    "name": "G4",
                    "midi": 67,
                    "time": 106.78197600000044,
                    "velocity": 0.4094488188976378,
                    "duration": 0.4394319999999965
                },
                {
                    "name": "A3",
                    "midi": 57,
                    "time": 106.78197600000044,
                    "velocity": 0.3464566929133858,
                    "duration": 0.4394319999999965
                },
                {
                    "name": "D4",
                    "midi": 62,
                    "time": 107.22140800000044,
                    "velocity": 0.41732283464566927,
                    "duration": 0.43485458333333327
                },
                {
                    "name": "F4",
                    "midi": 65,
                    "time": 107.22140800000044,
                    "velocity": 0.49606299212598426,
                    "duration": 0.4394319999999965
                },
                {
                    "name": "E3",
                    "midi": 52,
                    "time": 108.53970400000043,
                    "velocity": 0.31496062992125984,
                    "duration": 0.4394319999999965
                },
                {
                    "name": "G3",
                    "midi": 55,
                    "time": 108.53970400000043,
                    "velocity": 0.3779527559055118,
                    "duration": 0.4394319999999965
                },
                {
                    "name": "A2",
                    "midi": 45,
                    "time": 108.53970400000043,
                    "velocity": 0.31496062992125984,
                    "duration": 0.4394319999999965
                },
                {
                    "name": "D3",
                    "midi": 50,
                    "time": 108.97913600000042,
                    "velocity": 0.4881889763779528,
                    "duration": 0.4394319999999965
                },
                {
                    "name": "F3",
                    "midi": 53,
                    "time": 108.97913600000042,
                    "velocity": 0.4881889763779528,
                    "duration": 0.4394319999999965
                },
                {
                    "name": "D4",
                    "midi": 62,
                    "time": 109.96785800000042,
                    "velocity": 0.41732283464566927,
                    "duration": 0.12084380000000294
                },
                {
                    "name": "F4",
                    "midi": 65,
                    "time": 110.07771600000042,
                    "velocity": 0.49606299212598426,
                    "duration": 0.12084380000000294
                },
                {
                    "name": "E4",
                    "midi": 64,
                    "time": 110.18757400000042,
                    "velocity": 0.48031496062992124,
                    "duration": 0.12084380000000294
                },
                {
                    "name": "D4",
                    "midi": 62,
                    "time": 110.29743200000043,
                    "velocity": 0.4645669291338583,
                    "duration": 0.12084380000000294
                },
                {
                    "name": "C4",
                    "midi": 60,
                    "time": 110.40729000000043,
                    "velocity": 0.4409448818897638,
                    "duration": 0.12084380000000294
                },
                {
                    "name": "B3",
                    "midi": 59,
                    "time": 110.51714800000043,
                    "velocity": 0.4251968503937008,
                    "duration": 0.12084380000000294
                },
                {
                    "name": "A3",
                    "midi": 57,
                    "time": 110.62700600000043,
                    "velocity": 0.4094488188976378,
                    "duration": 0.12084380000000294
                },
                {
                    "name": "G#3",
                    "midi": 56,
                    "time": 110.73686400000044,
                    "velocity": 0.44881889763779526,
                    "duration": 0.4394319999999965
                },
                {
                    "name": "G#3",
                    "midi": 56,
                    "time": 111.72558600000043,
                    "velocity": 0.4094488188976378,
                    "duration": 0.12084380000000294
                },
                {
                    "name": "B3",
                    "midi": 59,
                    "time": 111.83544400000044,
                    "velocity": 0.48031496062992124,
                    "duration": 0.12084380000000294
                },
                {
                    "name": "A3",
                    "midi": 57,
                    "time": 111.94530200000044,
                    "velocity": 0.4645669291338583,
                    "duration": 0.12084380000000294
                },
                {
                    "name": "G#3",
                    "midi": 56,
                    "time": 112.05516000000044,
                    "velocity": 0.44881889763779526,
                    "duration": 0.12084380000000294
                },
                {
                    "name": "F3",
                    "midi": 53,
                    "time": 112.16501800000044,
                    "velocity": 0.4330708661417323,
                    "duration": 0.12084380000000294
                },
                {
                    "name": "E3",
                    "midi": 52,
                    "time": 112.27487600000045,
                    "velocity": 0.41732283464566927,
                    "duration": 0.12084380000000294
                },
                {
                    "name": "D3",
                    "midi": 50,
                    "time": 112.38473400000045,
                    "velocity": 0.3937007874015748,
                    "duration": 0.12084380000000294
                },
                {
                    "name": "C3",
                    "midi": 48,
                    "time": 112.49459200000045,
                    "velocity": 0.44881889763779526,
                    "duration": 0.4394319999999965
                },
                {
                    "name": "D4",
                    "midi": 62,
                    "time": 113.48331400000045,
                    "velocity": 0.4566929133858268,
                    "duration": 0.12084380000000294
                },
                {
                    "name": "A4",
                    "midi": 69,
                    "time": 113.59317200000045,
                    "velocity": 0.5196850393700787,
                    "duration": 0.12084380000000294
                },
                {
                    "name": "G4",
                    "midi": 67,
                    "time": 113.70303000000045,
                    "velocity": 0.5039370078740157,
                    "duration": 0.12084380000000294
                },
                {
                    "name": "F4",
                    "midi": 65,
                    "time": 113.81288800000046,
                    "velocity": 0.4881889763779528,
                    "duration": 0.12084380000000294
                },
                {
                    "name": "E4",
                    "midi": 64,
                    "time": 113.92274600000046,
                    "velocity": 0.48031496062992124,
                    "duration": 0.12084380000000294
                },
                {
                    "name": "D4",
                    "midi": 62,
                    "time": 114.03260400000046,
                    "velocity": 0.4645669291338583,
                    "duration": 0.12084380000000294
                },
                {
                    "name": "C4",
                    "midi": 60,
                    "time": 114.14246200000046,
                    "velocity": 0.4566929133858268,
                    "duration": 0.12084380000000294
                },
                {
                    "name": "B3",
                    "midi": 59,
                    "time": 114.25232000000047,
                    "velocity": 0.5354330708661418,
                    "duration": 0.4394319999999965
                },
                {
                    "name": "C4",
                    "midi": 60,
                    "time": 115.24104200000046,
                    "velocity": 0.3937007874015748,
                    "duration": 0.12084380000000294
                },
                {
                    "name": "G4",
                    "midi": 67,
                    "time": 115.35090000000046,
                    "velocity": 0.4566929133858268,
                    "duration": 0.12084380000000294
                },
                {
                    "name": "F4",
                    "midi": 65,
                    "time": 115.46075800000047,
                    "velocity": 0.4409448818897638,
                    "duration": 0.12084380000000294
                },
                {
                    "name": "E4",
                    "midi": 64,
                    "time": 115.57061600000047,
                    "velocity": 0.4330708661417323,
                    "duration": 0.12084380000000294
                },
                {
                    "name": "D4",
                    "midi": 62,
                    "time": 115.68047400000047,
                    "velocity": 0.41732283464566927,
                    "duration": 0.12084380000000294
                },
                {
                    "name": "C4",
                    "midi": 60,
                    "time": 115.79033200000048,
                    "velocity": 0.4015748031496063,
                    "duration": 0.12084380000000294
                },
                {
                    "name": "B3",
                    "midi": 59,
                    "time": 115.90019000000048,
                    "velocity": 0.3858267716535433,
                    "duration": 0.12084380000000294
                },
                {
                    "name": "A3",
                    "midi": 57,
                    "time": 116.01004800000048,
                    "velocity": 0.44881889763779526,
                    "duration": 0.4394319999999965
                },
                {
                    "name": "B3",
                    "midi": 59,
                    "time": 116.99877000000048,
                    "velocity": 0.3937007874015748,
                    "duration": 0.12084380000000294
                },
                {
                    "name": "F4",
                    "midi": 65,
                    "time": 117.10862800000048,
                    "velocity": 0.4409448818897638,
                    "duration": 0.12084380000000294
                },
                {
                    "name": "E4",
                    "midi": 64,
                    "time": 117.21848600000048,
                    "velocity": 0.4251968503937008,
                    "duration": 0.12084380000000294
                },
                {
                    "name": "D4",
                    "midi": 62,
                    "time": 117.32834400000048,
                    "velocity": 0.41732283464566927,
                    "duration": 0.12084380000000294
                },
                {
                    "name": "C4",
                    "midi": 60,
                    "time": 117.43820200000049,
                    "velocity": 0.4015748031496063,
                    "duration": 0.12084380000000294
                },
                {
                    "name": "B3",
                    "midi": 59,
                    "time": 117.54806000000049,
                    "velocity": 0.3858267716535433,
                    "duration": 0.12084380000000294
                },
                {
                    "name": "A3",
                    "midi": 57,
                    "time": 117.65791800000049,
                    "velocity": 0.3779527559055118,
                    "duration": 0.12084380000000294
                },
                {
                    "name": "G#3",
                    "midi": 56,
                    "time": 117.7677760000005,
                    "velocity": 0.4251968503937008,
                    "duration": 0.4394319999999965
                },
                {
                    "name": "A3",
                    "midi": 57,
                    "time": 118.75649800000049,
                    "velocity": 0.3464566929133858,
                    "duration": 0.12084380000000294
                },
                {
                    "name": "C4",
                    "midi": 60,
                    "time": 118.8663560000005,
                    "velocity": 0.4094488188976378,
                    "duration": 0.12084380000000294
                },
                {
                    "name": "B3",
                    "midi": 59,
                    "time": 118.9762140000005,
                    "velocity": 0.3937007874015748,
                    "duration": 0.12084380000000294
                },
                {
                    "name": "A3",
                    "midi": 57,
                    "time": 119.0860720000005,
                    "velocity": 0.3779527559055118,
                    "duration": 0.12084380000000294
                },
                {
                    "name": "G3",
                    "midi": 55,
                    "time": 119.1959300000005,
                    "velocity": 0.36220472440944884,
                    "duration": 0.12084380000000294
                },
                {
                    "name": "F3",
                    "midi": 53,
                    "time": 119.3057880000005,
                    "velocity": 0.3543307086614173,
                    "duration": 0.12084380000000294
                },
                {
                    "name": "E3",
                    "midi": 52,
                    "time": 119.4156460000005,
                    "velocity": 0.33858267716535434,
                    "duration": 0.12084380000000294
                },
                {
                    "name": "D3",
                    "midi": 50,
                    "time": 119.52550400000051,
                    "velocity": 0.4015748031496063,
                    "duration": 0.8788640000000072
                },
                {
                    "name": "C3",
                    "midi": 48,
                    "time": 120.40436800000052,
                    "velocity": 0.36220472440944884,
                    "duration": 0.878863999999993
                },
                {
                    "name": "G3",
                    "midi": 55,
                    "time": 120.40436800000052,
                    "velocity": 0.36220472440944884,
                    "duration": 0.878863999999993
                },
                {
                    "name": "A#3",
                    "midi": 58,
                    "time": 120.40436800000052,
                    "velocity": 0.44881889763779526,
                    "duration": 0.878863999999993
                },
                {
                    "name": "F4",
                    "midi": 65,
                    "time": 121.28323200000051,
                    "velocity": 0.31496062992125984,
                    "duration": 0.21971600000000535
                },
                {
                    "name": "C5",
                    "midi": 72,
                    "time": 121.50294800000052,
                    "velocity": 0.23622047244094488,
                    "duration": 0.21971600000000535
                },
                {
                    "name": "A4",
                    "midi": 69,
                    "time": 121.72266400000052,
                    "velocity": 0.23622047244094488,
                    "duration": 0.21971600000000535
                },
                {
                    "name": "C5",
                    "midi": 72,
                    "time": 121.94238000000053,
                    "velocity": 0.23622047244094488,
                    "duration": 0.21971600000000535
                },
                {
                    "name": "F4",
                    "midi": 65,
                    "time": 122.16209600000053,
                    "velocity": 0.31496062992125984,
                    "duration": 0.21971600000000535
                },
                {
                    "name": "C5",
                    "midi": 72,
                    "time": 122.38181200000054,
                    "velocity": 0.23622047244094488,
                    "duration": 0.21971600000000535
                },
                {
                    "name": "A4",
                    "midi": 69,
                    "time": 122.60152800000054,
                    "velocity": 0.23622047244094488,
                    "duration": 0.21971600000000535
                },
                {
                    "name": "C5",
                    "midi": 72,
                    "time": 122.82124400000055,
                    "velocity": 0.23622047244094488,
                    "duration": 0.21971600000000535
                },
                {
                    "name": "G4",
                    "midi": 67,
                    "time": 123.04096000000055,
                    "velocity": 0.23622047244094488,
                    "duration": 0.21971600000000535
                },
                {
                    "name": "C5",
                    "midi": 72,
                    "time": 123.26067600000056,
                    "velocity": 0.2283464566929134,
                    "duration": 0.21971600000000535
                },
                {
                    "name": "A#4",
                    "midi": 70,
                    "time": 123.48039200000056,
                    "velocity": 0.2440944881889764,
                    "duration": 0.21971600000000535
                },
                {
                    "name": "C5",
                    "midi": 72,
                    "time": 123.70010800000057,
                    "velocity": 0.2204724409448819,
                    "duration": 0.21971600000000535
                },
                {
                    "name": "F4",
                    "midi": 65,
                    "time": 123.91982400000057,
                    "velocity": 0.31496062992125984,
                    "duration": 0.21971600000000535
                },
                {
                    "name": "C5",
                    "midi": 72,
                    "time": 124.13954000000058,
                    "velocity": 0.2283464566929134,
                    "duration": 0.21971600000000535
                },
                {
                    "name": "A4",
                    "midi": 69,
                    "time": 124.35925600000058,
                    "velocity": 0.25196850393700787,
                    "duration": 0.21971600000000535
                },
                {
                    "name": "C5",
                    "midi": 72,
                    "time": 124.57897200000059,
                    "velocity": 0.2283464566929134,
                    "duration": 0.21971600000000535
                },
                {
                    "name": "F4",
                    "midi": 65,
                    "time": 124.7986880000006,
                    "velocity": 0.31496062992125984,
                    "duration": 0.21971600000000535
                },
                {
                    "name": "D5",
                    "midi": 74,
                    "time": 125.0184040000006,
                    "velocity": 0.25196850393700787,
                    "duration": 0.21971600000000535
                },
                {
                    "name": "A#4",
                    "midi": 70,
                    "time": 125.2381200000006,
                    "velocity": 0.25196850393700787,
                    "duration": 0.21971600000000535
                },
                {
                    "name": "D5",
                    "midi": 74,
                    "time": 125.45783600000061,
                    "velocity": 0.25196850393700787,
                    "duration": 0.21971600000000535
                },
                {
                    "name": "F4",
                    "midi": 65,
                    "time": 125.67755200000062,
                    "velocity": 0.31496062992125984,
                    "duration": 0.21971600000000535
                },
                {
                    "name": "C5",
                    "midi": 72,
                    "time": 125.89726800000062,
                    "velocity": 0.25196850393700787,
                    "duration": 0.21971600000000535
                },
                {
                    "name": "A4",
                    "midi": 69,
                    "time": 126.11698400000063,
                    "velocity": 0.25196850393700787,
                    "duration": 0.21971600000000535
                },
                {
                    "name": "C5",
                    "midi": 72,
                    "time": 126.33670000000063,
                    "velocity": 0.25196850393700787,
                    "duration": 0.21971600000000535
                },
                {
                    "name": "E4",
                    "midi": 64,
                    "time": 126.55641600000064,
                    "velocity": 0.31496062992125984,
                    "duration": 0.21971600000000535
                },
                {
                    "name": "C5",
                    "midi": 72,
                    "time": 126.77613200000064,
                    "velocity": 0.25196850393700787,
                    "duration": 0.21971600000000535
                },
                {
                    "name": "G4",
                    "midi": 67,
                    "time": 126.99584800000065,
                    "velocity": 0.25196850393700787,
                    "duration": 0.21971600000000535
                },
                {
                    "name": "C5",
                    "midi": 72,
                    "time": 127.21556400000065,
                    "velocity": 0.25196850393700787,
                    "duration": 0.21971600000000535
                },
                {
                    "name": "F4",
                    "midi": 65,
                    "time": 127.43528000000066,
                    "velocity": 0.31496062992125984,
                    "duration": 0.21971600000000535
                },
                {
                    "name": "C5",
                    "midi": 72,
                    "time": 127.65499600000066,
                    "velocity": 0.2677165354330709,
                    "duration": 0.21971600000000535
                },
                {
                    "name": "A4",
                    "midi": 69,
                    "time": 127.87471200000067,
                    "velocity": 0.2677165354330709,
                    "duration": 0.21971600000000535
                },
                {
                    "name": "C5",
                    "midi": 72,
                    "time": 128.09442800000068,
                    "velocity": 0.2677165354330709,
                    "duration": 0.21971600000000535
                },
                {
                    "name": "A#4",
                    "midi": 70,
                    "time": 128.31414400000068,
                    "velocity": 0.31496062992125984,
                    "duration": 0.4394320000000107
                },
                {
                    "name": "A#3",
                    "midi": 58,
                    "time": 129.63244000000068,
                    "velocity": 0.31496062992125984,
                    "duration": 0.4394320000000107
                },
                {
                    "name": "F4",
                    "midi": 65,
                    "time": 129.63244000000068,
                    "velocity": 0.31496062992125984,
                    "duration": 0.4394320000000107
                },
                {
                    "name": "A3",
                    "midi": 57,
                    "time": 130.0718720000007,
                    "velocity": 0.31496062992125984,
                    "duration": 0.4394320000000107
                },
                {
                    "name": "F4",
                    "midi": 65,
                    "time": 130.0718720000007,
                    "velocity": 0.31496062992125984,
                    "duration": 0.4394320000000107
                },
                {
                    "name": "A3",
                    "midi": 57,
                    "time": 131.3901680000007,
                    "velocity": 0.31496062992125984,
                    "duration": 0.4394320000000107
                },
                {
                    "name": "F4",
                    "midi": 65,
                    "time": 131.3901680000007,
                    "velocity": 0.31496062992125984,
                    "duration": 0.4394320000000107
                },
                {
                    "name": "G3",
                    "midi": 55,
                    "time": 131.8296000000007,
                    "velocity": 0.31496062992125984,
                    "duration": 0.4394320000000107
                },
                {
                    "name": "F4",
                    "midi": 65,
                    "time": 131.8296000000007,
                    "velocity": 0.31496062992125984,
                    "duration": 0.4394320000000107
                },
                {
                    "name": "G3",
                    "midi": 55,
                    "time": 133.1478960000007,
                    "velocity": 0.31496062992125984,
                    "duration": 0.4394320000000107
                },
                {
                    "name": "E4",
                    "midi": 64,
                    "time": 133.1478960000007,
                    "velocity": 0.31496062992125984,
                    "duration": 0.4394320000000107
                },
                {
                    "name": "F3",
                    "midi": 53,
                    "time": 133.58732800000072,
                    "velocity": 0.31496062992125984,
                    "duration": 0.4394320000000107
                },
                {
                    "name": "F4",
                    "midi": 65,
                    "time": 133.58732800000072,
                    "velocity": 0.31496062992125984,
                    "duration": 0.4394320000000107
                },
                {
                    "name": "F3",
                    "midi": 53,
                    "time": 135.34505600000074,
                    "velocity": 0.3779527559055118,
                    "duration": 0.21971600000000535
                },
                {
                    "name": "G3",
                    "midi": 55,
                    "time": 135.56477200000074,
                    "velocity": 0.33070866141732286,
                    "duration": 0.12084379999998873
                },
                {
                    "name": "A3",
                    "midi": 57,
                    "time": 135.67463000000075,
                    "velocity": 0.33070866141732286,
                    "duration": 0.12084379999996031
                },
                {
                    "name": "A#3",
                    "midi": 58,
                    "time": 135.78448800000072,
                    "velocity": 0.33858267716535434,
                    "duration": 0.12084379999996031
                },
                {
                    "name": "C4",
                    "midi": 60,
                    "time": 135.8943460000007,
                    "velocity": 0.3543307086614173,
                    "duration": 0.12084379999996031
                },
                {
                    "name": "D4",
                    "midi": 62,
                    "time": 136.00420400000067,
                    "velocity": 0.36220472440944884,
                    "duration": 0.12084379999996031
                },
                {
                    "name": "E4",
                    "midi": 64,
                    "time": 136.11406200000064,
                    "velocity": 0.3700787401574803,
                    "duration": 0.12084379999996031
                },
                {
                    "name": "F4",
                    "midi": 65,
                    "time": 136.22392000000062,
                    "velocity": 0.3858267716535433,
                    "duration": 0.12084379999996031
                },
                {
                    "name": "E4",
                    "midi": 64,
                    "time": 136.3337780000006,
                    "velocity": 0.3779527559055118,
                    "duration": 0.12084379999996031
                },
                {
                    "name": "D4",
                    "midi": 62,
                    "time": 136.44363600000057,
                    "velocity": 0.3779527559055118,
                    "duration": 0.12084379999996031
                },
                {
                    "name": "C4",
                    "midi": 60,
                    "time": 136.55349400000054,
                    "velocity": 0.3700787401574803,
                    "duration": 0.12084379999996031
                },
                {
                    "name": "A#3",
                    "midi": 58,
                    "time": 136.66335200000051,
                    "velocity": 0.36220472440944884,
                    "duration": 0.12084379999996031
                },
                {
                    "name": "A3",
                    "midi": 57,
                    "time": 136.7732100000005,
                    "velocity": 0.3543307086614173,
                    "duration": 0.12084379999996031
                },
                {
                    "name": "G3",
                    "midi": 55,
                    "time": 136.88306800000046,
                    "velocity": 0.33858267716535434,
                    "duration": 0.12084379999996031
                },
                {
                    "name": "F3",
                    "midi": 53,
                    "time": 136.99292600000044,
                    "velocity": 0.33070866141732286,
                    "duration": 0.12084379999996031
                },
                {
                    "name": "E3",
                    "midi": 52,
                    "time": 137.1027840000004,
                    "velocity": 0.3779527559055118,
                    "duration": 0.21971599999997693
                },
                {
                    "name": "F3",
                    "midi": 53,
                    "time": 137.3225000000004,
                    "velocity": 0.33070866141732286,
                    "duration": 0.12084379999998873
                },
                {
                    "name": "G3",
                    "midi": 55,
                    "time": 137.4323580000004,
                    "velocity": 0.33070866141732286,
                    "duration": 0.12084379999996031
                },
                {
                    "name": "A3",
                    "midi": 57,
                    "time": 137.54221600000037,
                    "velocity": 0.33858267716535434,
                    "duration": 0.12084379999996031
                },
                {
                    "name": "B3",
                    "midi": 59,
                    "time": 137.65207400000034,
                    "velocity": 0.3543307086614173,
                    "duration": 0.12084379999996031
                },
                {
                    "name": "C4",
                    "midi": 60,
                    "time": 137.76193200000031,
                    "velocity": 0.36220472440944884,
                    "duration": 0.12084379999996031
                },
                {
                    "name": "D4",
                    "midi": 62,
                    "time": 137.8717900000003,
                    "velocity": 0.3700787401574803,
                    "duration": 0.12084379999996031
                },
                {
                    "name": "E4",
                    "midi": 64,
                    "time": 137.98164800000026,
                    "velocity": 0.3858267716535433,
                    "duration": 0.12084379999996031
                },
                {
                    "name": "D4",
                    "midi": 62,
                    "time": 138.09150600000024,
                    "velocity": 0.3779527559055118,
                    "duration": 0.12084379999996031
                },
                {
                    "name": "C4",
                    "midi": 60,
                    "time": 138.2013640000002,
                    "velocity": 0.3779527559055118,
                    "duration": 0.12084379999996031
                },
                {
                    "name": "B3",
                    "midi": 59,
                    "time": 138.31122200000019,
                    "velocity": 0.3700787401574803,
                    "duration": 0.12084379999996031
                },
                {
                    "name": "A3",
                    "midi": 57,
                    "time": 138.42108000000016,
                    "velocity": 0.36220472440944884,
                    "duration": 0.12084379999996031
                },
                {
                    "name": "G3",
                    "midi": 55,
                    "time": 138.53093800000013,
                    "velocity": 0.3543307086614173,
                    "duration": 0.12084379999996031
                },
                {
                    "name": "F3",
                    "midi": 53,
                    "time": 138.6407960000001,
                    "velocity": 0.33858267716535434,
                    "duration": 0.12084379999996031
                },
                {
                    "name": "E3",
                    "midi": 52,
                    "time": 138.75065400000008,
                    "velocity": 0.33070866141732286,
                    "duration": 0.12084379999996031
                },
                {
                    "name": "D3",
                    "midi": 50,
                    "time": 138.86051200000006,
                    "velocity": 0.3779527559055118,
                    "duration": 0.21971599999997693
                },
                {
                    "name": "E3",
                    "midi": 52,
                    "time": 139.08022800000003,
                    "velocity": 0.33070866141732286,
                    "duration": 0.12084379999998873
                },
                {
                    "name": "F3",
                    "midi": 53,
                    "time": 139.19008600000004,
                    "velocity": 0.33070866141732286,
                    "duration": 0.12084379999996031
                },
                {
                    "name": "G3",
                    "midi": 55,
                    "time": 139.299944,
                    "velocity": 0.33858267716535434,
                    "duration": 0.12084379999996031
                },
                {
                    "name": "A3",
                    "midi": 57,
                    "time": 139.40980199999998,
                    "velocity": 0.3543307086614173,
                    "duration": 0.12084379999996031
                },
                {
                    "name": "B3",
                    "midi": 59,
                    "time": 139.51965999999996,
                    "velocity": 0.36220472440944884,
                    "duration": 0.12084379999996031
                },
                {
                    "name": "C4",
                    "midi": 60,
                    "time": 139.62951799999993,
                    "velocity": 0.3700787401574803,
                    "duration": 0.12084379999996031
                },
                {
                    "name": "D4",
                    "midi": 62,
                    "time": 139.7393759999999,
                    "velocity": 0.3858267716535433,
                    "duration": 0.12084379999996031
                },
                {
                    "name": "C4",
                    "midi": 60,
                    "time": 139.84923399999988,
                    "velocity": 0.3779527559055118,
                    "duration": 0.12084379999996031
                },
                {
                    "name": "B3",
                    "midi": 59,
                    "time": 139.95909199999986,
                    "velocity": 0.3779527559055118,
                    "duration": 0.12084379999996031
                },
                {
                    "name": "A3",
                    "midi": 57,
                    "time": 140.06894999999983,
                    "velocity": 0.3700787401574803,
                    "duration": 0.12084379999996031
                },
                {
                    "name": "G3",
                    "midi": 55,
                    "time": 140.1788079999998,
                    "velocity": 0.36220472440944884,
                    "duration": 0.12084379999996031
                },
                {
                    "name": "F3",
                    "midi": 53,
                    "time": 140.28866599999978,
                    "velocity": 0.3543307086614173,
                    "duration": 0.12084379999996031
                },
                {
                    "name": "E3",
                    "midi": 52,
                    "time": 140.39852399999975,
                    "velocity": 0.33858267716535434,
                    "duration": 0.12084379999996031
                },
                {
                    "name": "D3",
                    "midi": 50,
                    "time": 140.50838199999973,
                    "velocity": 0.33070866141732286,
                    "duration": 0.12084379999996031
                },
                {
                    "name": "C3",
                    "midi": 48,
                    "time": 140.6182399999997,
                    "velocity": 0.3779527559055118,
                    "duration": 0.21971599999997693
                },
                {
                    "name": "D3",
                    "midi": 50,
                    "time": 140.83795599999968,
                    "velocity": 0.33070866141732286,
                    "duration": 0.12084379999998873
                },
                {
                    "name": "E3",
                    "midi": 52,
                    "time": 140.94781399999968,
                    "velocity": 0.33070866141732286,
                    "duration": 0.12084379999996031
                },
                {
                    "name": "F3",
                    "midi": 53,
                    "time": 141.05767199999966,
                    "velocity": 0.33858267716535434,
                    "duration": 0.12084379999996031
                },
                {
                    "name": "G3",
                    "midi": 55,
                    "time": 141.16752999999963,
                    "velocity": 0.3543307086614173,
                    "duration": 0.12084379999996031
                },
                {
                    "name": "A3",
                    "midi": 57,
                    "time": 141.2773879999996,
                    "velocity": 0.36220472440944884,
                    "duration": 0.12084379999996031
                },
                {
                    "name": "B3",
                    "midi": 59,
                    "time": 141.38724599999958,
                    "velocity": 0.3700787401574803,
                    "duration": 0.12084379999996031
                },
                {
                    "name": "C4",
                    "midi": 60,
                    "time": 141.49710399999955,
                    "velocity": 0.3858267716535433,
                    "duration": 0.12084379999996031
                },
                {
                    "name": "B3",
                    "midi": 59,
                    "time": 141.60696199999953,
                    "velocity": 0.3779527559055118,
                    "duration": 0.12084379999996031
                },
                {
                    "name": "A3",
                    "midi": 57,
                    "time": 141.7168199999995,
                    "velocity": 0.3779527559055118,
                    "duration": 0.12084379999996031
                },
                {
                    "name": "G3",
                    "midi": 55,
                    "time": 141.82667799999948,
                    "velocity": 0.3700787401574803,
                    "duration": 0.12084379999996031
                },
                {
                    "name": "F3",
                    "midi": 53,
                    "time": 141.93653599999945,
                    "velocity": 0.36220472440944884,
                    "duration": 0.12084379999996031
                },
                {
                    "name": "E3",
                    "midi": 52,
                    "time": 142.04639399999942,
                    "velocity": 0.3543307086614173,
                    "duration": 0.12084379999996031
                },
                {
                    "name": "D3",
                    "midi": 50,
                    "time": 142.1562519999994,
                    "velocity": 0.33858267716535434,
                    "duration": 0.12084379999996031
                },
                {
                    "name": "C3",
                    "midi": 48,
                    "time": 142.26610999999937,
                    "velocity": 0.33070866141732286,
                    "duration": 0.12084379999996031
                },
                {
                    "name": "F3",
                    "midi": 53,
                    "time": 142.37596799999935,
                    "velocity": 0.2992125984251969,
                    "duration": 1.757727999999986
                },
                {
                    "name": "A3",
                    "midi": 57,
                    "time": 142.37596799999935,
                    "velocity": 0.2992125984251969,
                    "duration": 1.757727999999986
                },
                {
                    "name": "F3",
                    "midi": 53,
                    "time": 144.13369599999933,
                    "velocity": 0.47244094488188976,
                    "duration": 0.6591479999999876
                },
                {
                    "name": "G3",
                    "midi": 55,
                    "time": 144.79284399999932,
                    "velocity": 0.4330708661417323,
                    "duration": 0.21971600000000535
                },
                {
                    "name": "A3",
                    "midi": 57,
                    "time": 145.01255999999933,
                    "velocity": 0.47244094488188976,
                    "duration": 0.6591479999999876
                },
                {
                    "name": "F#3",
                    "midi": 54,
                    "time": 145.6717079999993,
                    "velocity": 0.4251968503937008,
                    "duration": 0.21971600000000535
                },
                {
                    "name": "G2",
                    "midi": 43,
                    "time": 145.89142399999932,
                    "velocity": 0.5118110236220472,
                    "duration": 0.10985800000000268
                },
                {
                    "name": "B2",
                    "midi": 47,
                    "time": 146.00128199999932,
                    "velocity": 0.4409448818897638,
                    "duration": 0.10985800000000268
                },
                {
                    "name": "D3",
                    "midi": 50,
                    "time": 146.11113999999932,
                    "velocity": 0.4409448818897638,
                    "duration": 0.10985800000000268
                },
                {
                    "name": "G3",
                    "midi": 55,
                    "time": 146.22099799999933,
                    "velocity": 0.3937007874015748,
                    "duration": 0.10985800000000268
                },
                {
                    "name": "G2",
                    "midi": 43,
                    "time": 146.33085599999933,
                    "velocity": 0.5118110236220472,
                    "duration": 0.10985800000000268
                },
                {
                    "name": "C3",
                    "midi": 48,
                    "time": 146.44071399999933,
                    "velocity": 0.4330708661417323,
                    "duration": 0.10985800000000268
                },
                {
                    "name": "E3",
                    "midi": 52,
                    "time": 146.55057199999933,
                    "velocity": 0.4330708661417323,
                    "duration": 0.10985800000000268
                },
                {
                    "name": "G3",
                    "midi": 55,
                    "time": 146.66042999999934,
                    "velocity": 0.3937007874015748,
                    "duration": 0.10985800000000268
                },
                {
                    "name": "G2",
                    "midi": 43,
                    "time": 146.77028799999934,
                    "velocity": 0.5118110236220472,
                    "duration": 0.10985800000000268
                },
                {
                    "name": "B2",
                    "midi": 47,
                    "time": 146.88014599999934,
                    "velocity": 0.4330708661417323,
                    "duration": 0.10985800000000268
                },
                {
                    "name": "D3",
                    "midi": 50,
                    "time": 146.99000399999935,
                    "velocity": 0.4330708661417323,
                    "duration": 0.10985800000000268
                },
                {
                    "name": "G3",
                    "midi": 55,
                    "time": 147.09986199999935,
                    "velocity": 0.4251968503937008,
                    "duration": 0.10985800000000268
                },
                {
                    "name": "G2",
                    "midi": 43,
                    "time": 147.20971999999935,
                    "velocity": 0.5118110236220472,
                    "duration": 0.10985800000000268
                },
                {
                    "name": "C3",
                    "midi": 48,
                    "time": 147.31957799999935,
                    "velocity": 0.44881889763779526,
                    "duration": 0.10985800000000268
                },
                {
                    "name": "E3",
                    "midi": 52,
                    "time": 147.42943599999936,
                    "velocity": 0.4409448818897638,
                    "duration": 0.10985800000000268
                },
                {
                    "name": "G3",
                    "midi": 55,
                    "time": 147.53929399999936,
                    "velocity": 0.41732283464566927,
                    "duration": 0.10985800000000268
                },
                {
                    "name": "G2",
                    "midi": 43,
                    "time": 147.64915199999936,
                    "velocity": 0.5118110236220472,
                    "duration": 0.10985800000000268
                },
                {
                    "name": "G3",
                    "midi": 55,
                    "time": 148.08858399999937,
                    "velocity": 0.4645669291338583,
                    "duration": 0.10985800000000268
                },
                {
                    "name": "G2",
                    "midi": 43,
                    "time": 148.52801599999938,
                    "velocity": 0.48031496062992124,
                    "duration": 0.4394320000000107
                },
                {
                    "name": "F#4",
                    "midi": 66,
                    "time": 149.4068799999994,
                    "velocity": 0.33070866141732286,
                    "duration": 0.12084379999998873
                },
                {
                    "name": "G4",
                    "midi": 67,
                    "time": 149.5167379999994,
                    "velocity": 0.28346456692913385,
                    "duration": 0.10985799999997425
                },
                {
                    "name": "F#4",
                    "midi": 66,
                    "time": 149.62659599999938,
                    "velocity": 0.33070866141732286,
                    "duration": 0.12084379999998873
                },
                {
                    "name": "G4",
                    "midi": 67,
                    "time": 149.73645399999938,
                    "velocity": 0.28346456692913385,
                    "duration": 0.10985799999997425
                },
                {
                    "name": "F#4",
                    "midi": 66,
                    "time": 149.84631199999936,
                    "velocity": 0.33070866141732286,
                    "duration": 0.12084379999998873
                },
                {
                    "name": "G4",
                    "midi": 67,
                    "time": 149.95616999999936,
                    "velocity": 0.2992125984251969,
                    "duration": 0.10985799999997425
                },
                {
                    "name": "F#4",
                    "midi": 66,
                    "time": 150.06602799999933,
                    "velocity": 0.33070866141732286,
                    "duration": 0.12084379999998873
                },
                {
                    "name": "G4",
                    "midi": 67,
                    "time": 150.17588599999934,
                    "velocity": 0.29133858267716534,
                    "duration": 0.10985799999997425
                },
                {
                    "name": "F4",
                    "midi": 65,
                    "time": 150.2857439999993,
                    "velocity": 0.33070866141732286,
                    "duration": 0.12084379999998873
                },
                {
                    "name": "G4",
                    "midi": 67,
                    "time": 150.39560199999931,
                    "velocity": 0.28346456692913385,
                    "duration": 0.10985799999997425
                },
                {
                    "name": "F4",
                    "midi": 65,
                    "time": 150.5054599999993,
                    "velocity": 0.33070866141732286,
                    "duration": 0.12084379999998873
                },
                {
                    "name": "G4",
                    "midi": 67,
                    "time": 150.6153179999993,
                    "velocity": 0.29133858267716534,
                    "duration": 0.10985799999997425
                },
                {
                    "name": "F4",
                    "midi": 65,
                    "time": 150.72517599999927,
                    "velocity": 0.33070866141732286,
                    "duration": 0.12084379999998873
                },
                {
                    "name": "G4",
                    "midi": 67,
                    "time": 150.83503399999927,
                    "velocity": 0.29133858267716534,
                    "duration": 0.10985799999997425
                },
                {
                    "name": "F4",
                    "midi": 65,
                    "time": 150.94489199999924,
                    "velocity": 0.33070866141732286,
                    "duration": 0.12084379999998873
                },
                {
                    "name": "G4",
                    "midi": 67,
                    "time": 151.05474999999925,
                    "velocity": 0.2992125984251969,
                    "duration": 0.10985799999997425
                },
                {
                    "name": "E4",
                    "midi": 64,
                    "time": 151.16460799999922,
                    "velocity": 0.33070866141732286,
                    "duration": 0.10985800000000268
                },
                {
                    "name": "G4",
                    "midi": 67,
                    "time": 151.27446599999922,
                    "velocity": 0.28346456692913385,
                    "duration": 0.10985800000000268
                },
                {
                    "name": "E4",
                    "midi": 64,
                    "time": 151.38432399999922,
                    "velocity": 0.33070866141732286,
                    "duration": 0.10985800000000268
                },
                {
                    "name": "G4",
                    "midi": 67,
                    "time": 151.49418199999923,
                    "velocity": 0.28346456692913385,
                    "duration": 0.10985800000000268
                },
                {
                    "name": "E4",
                    "midi": 64,
                    "time": 151.60403999999923,
                    "velocity": 0.33070866141732286,
                    "duration": 0.10985800000000268
                },
                {
                    "name": "G4",
                    "midi": 67,
                    "time": 151.71389799999923,
                    "velocity": 0.25196850393700787,
                    "duration": 0.10985800000000268
                },
                {
                    "name": "E4",
                    "midi": 64,
                    "time": 151.82375599999924,
                    "velocity": 0.2992125984251969,
                    "duration": 0.10985800000000268
                },
                {
                    "name": "G4",
                    "midi": 67,
                    "time": 151.93361399999924,
                    "velocity": 0.25984251968503935,
                    "duration": 0.10985800000000268
                },
                {
                    "name": "E4",
                    "midi": 64,
                    "time": 152.04347199999924,
                    "velocity": 0.30708661417322836,
                    "duration": 0.10985800000000268
                },
                {
                    "name": "G4",
                    "midi": 67,
                    "time": 152.15332999999924,
                    "velocity": 0.25196850393700787,
                    "duration": 0.10985800000000268
                },
                {
                    "name": "E4",
                    "midi": 64,
                    "time": 152.26318799999925,
                    "velocity": 0.30708661417322836,
                    "duration": 0.10985800000000268
                },
                {
                    "name": "G4",
                    "midi": 67,
                    "time": 152.37304599999925,
                    "velocity": 0.2677165354330709,
                    "duration": 0.10985800000000268
                },
                {
                    "name": "E4",
                    "midi": 64,
                    "time": 152.48290399999925,
                    "velocity": 0.33070866141732286,
                    "duration": 0.10985800000000268
                },
                {
                    "name": "G4",
                    "midi": 67,
                    "time": 152.59276199999925,
                    "velocity": 0.29133858267716534,
                    "duration": 0.10985800000000268
                },
                {
                    "name": "E4",
                    "midi": 64,
                    "time": 152.70261999999926,
                    "velocity": 0.33070866141732286,
                    "duration": 0.10985800000000268
                },
                {
                    "name": "G4",
                    "midi": 67,
                    "time": 152.81247799999926,
                    "velocity": 0.2992125984251969,
                    "duration": 0.10985800000000268
                },
                {
                    "name": "F4",
                    "midi": 65,
                    "time": 152.92233599999926,
                    "velocity": 0.36220472440944884,
                    "duration": 0.10985800000000268
                },
                {
                    "name": "G4",
                    "midi": 67,
                    "time": 153.03219399999927,
                    "velocity": 0.2992125984251969,
                    "duration": 0.10985800000000268
                },
                {
                    "name": "E4",
                    "midi": 64,
                    "time": 153.14205199999927,
                    "velocity": 0.33070866141732286,
                    "duration": 0.10985800000000268
                },
                {
                    "name": "G4",
                    "midi": 67,
                    "time": 153.25190999999927,
                    "velocity": 0.28346456692913385,
                    "duration": 0.10985800000000268
                },
                {
                    "name": "D4",
                    "midi": 62,
                    "time": 153.36176799999927,
                    "velocity": 0.30708661417322836,
                    "duration": 0.12084379999998873
                },
                {
                    "name": "G4",
                    "midi": 67,
                    "time": 153.47162599999928,
                    "velocity": 0.2125984251968504,
                    "duration": 0.10985799999997425
                },
                {
                    "name": "E4",
                    "midi": 64,
                    "time": 153.58148399999925,
                    "velocity": 0.3700787401574803,
                    "duration": 0.12084379999998873
                },
                {
                    "name": "G4",
                    "midi": 67,
                    "time": 153.69134199999925,
                    "velocity": 0.2755905511811024,
                    "duration": 0.10985799999997425
                },
                {
                    "name": "F4",
                    "midi": 65,
                    "time": 153.80119999999923,
                    "velocity": 0.3937007874015748,
                    "duration": 0.12084379999998873
                },
                {
                    "name": "G4",
                    "midi": 67,
                    "time": 153.91105799999923,
                    "velocity": 0.28346456692913385,
                    "duration": 0.10985799999997425
                },
                {
                    "name": "E4",
                    "midi": 64,
                    "time": 154.0209159999992,
                    "velocity": 0.3464566929133858,
                    "duration": 0.12084379999998873
                },
                {
                    "name": "G4",
                    "midi": 67,
                    "time": 154.1307739999992,
                    "velocity": 0.23622047244094488,
                    "duration": 0.10985799999997425
                },
                {
                    "name": "F4",
                    "midi": 65,
                    "time": 154.24063199999918,
                    "velocity": 0.4094488188976378,
                    "duration": 0.12084379999998873
                },
                {
                    "name": "G4",
                    "midi": 67,
                    "time": 154.35048999999918,
                    "velocity": 0.2440944881889764,
                    "duration": 0.10985799999997425
                },
                {
                    "name": "D4",
                    "midi": 62,
                    "time": 154.46034799999916,
                    "velocity": 0.31496062992125984,
                    "duration": 0.12084379999998873
                },
                {
                    "name": "G4",
                    "midi": 67,
                    "time": 154.57020599999916,
                    "velocity": 0.2204724409448819,
                    "duration": 0.10985799999997425
                },
                {
                    "name": "E4",
                    "midi": 64,
                    "time": 154.68006399999913,
                    "velocity": 0.33070866141732286,
                    "duration": 0.10985800000000268
                },
                {
                    "name": "G4",
                    "midi": 67,
                    "time": 154.78992199999914,
                    "velocity": 0.28346456692913385,
                    "duration": 0.10985800000000268
                },
                {
                    "name": "E4",
                    "midi": 64,
                    "time": 154.89977999999914,
                    "velocity": 0.33070866141732286,
                    "duration": 0.10985800000000268
                },
                {
                    "name": "G4",
                    "midi": 67,
                    "time": 155.00963799999914,
                    "velocity": 0.28346456692913385,
                    "duration": 0.10985800000000268
                },
                {
                    "name": "E4",
                    "midi": 64,
                    "time": 155.11949599999915,
                    "velocity": 0.33070866141732286,
                    "duration": 0.10985800000000268
                },
                {
                    "name": "G4",
                    "midi": 67,
                    "time": 155.22935399999915,
                    "velocity": 0.25196850393700787,
                    "duration": 0.10985800000000268
                },
                {
                    "name": "E4",
                    "midi": 64,
                    "time": 155.33921199999915,
                    "velocity": 0.2992125984251969,
                    "duration": 0.10985800000000268
                },
                {
                    "name": "G4",
                    "midi": 67,
                    "time": 155.44906999999915,
                    "velocity": 0.25984251968503935,
                    "duration": 0.10985800000000268
                },
                {
                    "name": "E4",
                    "midi": 64,
                    "time": 155.55892799999916,
                    "velocity": 0.30708661417322836,
                    "duration": 0.10985800000000268
                },
                {
                    "name": "G4",
                    "midi": 67,
                    "time": 155.66878599999916,
                    "velocity": 0.25196850393700787,
                    "duration": 0.10985800000000268
                },
                {
                    "name": "E4",
                    "midi": 64,
                    "time": 155.77864399999916,
                    "velocity": 0.30708661417322836,
                    "duration": 0.10985800000000268
                },
                {
                    "name": "G4",
                    "midi": 67,
                    "time": 155.88850199999916,
                    "velocity": 0.2677165354330709,
                    "duration": 0.10985800000000268
                },
                {
                    "name": "E4",
                    "midi": 64,
                    "time": 155.99835999999917,
                    "velocity": 0.33070866141732286,
                    "duration": 0.10985800000000268
                },
                {
                    "name": "G4",
                    "midi": 67,
                    "time": 156.10821799999917,
                    "velocity": 0.29133858267716534,
                    "duration": 0.10985800000000268
                },
                {
                    "name": "E4",
                    "midi": 64,
                    "time": 156.21807599999917,
                    "velocity": 0.33070866141732286,
                    "duration": 0.10985800000000268
                },
                {
                    "name": "G4",
                    "midi": 67,
                    "time": 156.32793399999917,
                    "velocity": 0.2992125984251969,
                    "duration": 0.10985800000000268
                },
                {
                    "name": "F4",
                    "midi": 65,
                    "time": 156.43779199999918,
                    "velocity": 0.33070866141732286,
                    "duration": 0.10985800000000268
                },
                {
                    "name": "G4",
                    "midi": 67,
                    "time": 156.54764999999918,
                    "velocity": 0.28346456692913385,
                    "duration": 0.10985800000000268
                },
                {
                    "name": "E4",
                    "midi": 64,
                    "time": 156.65750799999918,
                    "velocity": 0.33070866141732286,
                    "duration": 0.10985800000000268
                },
                {
                    "name": "G4",
                    "midi": 67,
                    "time": 156.76736599999919,
                    "velocity": 0.28346456692913385,
                    "duration": 0.10985800000000268
                },
                {
                    "name": "D4",
                    "midi": 62,
                    "time": 156.8772239999992,
                    "velocity": 0.30708661417322836,
                    "duration": 0.12084379999998873
                },
                {
                    "name": "G4",
                    "midi": 67,
                    "time": 156.9870819999992,
                    "velocity": 0.2283464566929134,
                    "duration": 0.10985799999997425
                },
                {
                    "name": "E4",
                    "midi": 64,
                    "time": 157.09693999999917,
                    "velocity": 0.33070866141732286,
                    "duration": 0.12084379999998873
                },
                {
                    "name": "G4",
                    "midi": 67,
                    "time": 157.20679799999917,
                    "velocity": 0.25196850393700787,
                    "duration": 0.10985799999997425
                },
                {
                    "name": "F4",
                    "midi": 65,
                    "time": 157.31665599999914,
                    "velocity": 0.3779527559055118,
                    "duration": 0.12084379999998873
                },
                {
                    "name": "G4",
                    "midi": 67,
                    "time": 157.42651399999914,
                    "velocity": 0.28346456692913385,
                    "duration": 0.10985799999997425
                },
                {
                    "name": "E4",
                    "midi": 64,
                    "time": 157.53637199999912,
                    "velocity": 0.33858267716535434,
                    "duration": 0.12084379999998873
                },
                {
                    "name": "G4",
                    "midi": 67,
                    "time": 157.64622999999912,
                    "velocity": 0.23622047244094488,
                    "duration": 0.10985799999997425
                },
                {
                    "name": "F4",
                    "midi": 65,
                    "time": 157.7560879999991,
                    "velocity": 0.3779527559055118,
                    "duration": 0.12084379999998873
                },
                {
                    "name": "G4",
                    "midi": 67,
                    "time": 157.8659459999991,
                    "velocity": 0.28346456692913385,
                    "duration": 0.10985799999997425
                },
                {
                    "name": "D4",
                    "midi": 62,
                    "time": 157.97580399999907,
                    "velocity": 0.33858267716535434,
                    "duration": 0.12084379999998873
                },
                {
                    "name": "G4",
                    "midi": 67,
                    "time": 158.08566199999908,
                    "velocity": 0.23622047244094488,
                    "duration": 0.10985799999997425
                },
                {
                    "name": "E3",
                    "midi": 52,
                    "time": 158.30537799999905,
                    "velocity": 0.29133858267716534,
                    "duration": 0.10985800000000268
                },
                {
                    "name": "G3",
                    "midi": 55,
                    "time": 158.41523599999906,
                    "velocity": 0.30708661417322836,
                    "duration": 0.10985800000000268
                },
                {
                    "name": "C4",
                    "midi": 60,
                    "time": 158.52509399999906,
                    "velocity": 0.29133858267716534,
                    "duration": 0.10985800000000268
                },
                {
                    "name": "E4",
                    "midi": 64,
                    "time": 158.63495199999906,
                    "velocity": 0.3543307086614173,
                    "duration": 0.4394320000000107
                },
                {
                    "name": "F3",
                    "midi": 53,
                    "time": 159.18424199999907,
                    "velocity": 0.30708661417322836,
                    "duration": 0.10985800000000268
                },
                {
                    "name": "A3",
                    "midi": 57,
                    "time": 159.29409999999908,
                    "velocity": 0.3228346456692913,
                    "duration": 0.10985800000000268
                },
                {
                    "name": "C4",
                    "midi": 60,
                    "time": 159.40395799999908,
                    "velocity": 0.2992125984251969,
                    "duration": 0.10985800000000268
                },
                {
                    "name": "F4",
                    "midi": 65,
                    "time": 159.51381599999908,
                    "velocity": 0.3858267716535433,
                    "duration": 0.4394320000000107
                },
                {
                    "name": "D3",
                    "midi": 50,
                    "time": 160.0631059999991,
                    "velocity": 0.29133858267716534,
                    "duration": 0.10985800000000268
                },
                {
                    "name": "F3",
                    "midi": 53,
                    "time": 160.1729639999991,
                    "velocity": 0.30708661417322836,
                    "duration": 0.10985800000000268
                },
                {
                    "name": "B3",
                    "midi": 59,
                    "time": 160.2828219999991,
                    "velocity": 0.29133858267716534,
                    "duration": 0.10985800000000268
                },
                {
                    "name": "D4",
                    "midi": 62,
                    "time": 160.3926799999991,
                    "velocity": 0.3543307086614173,
                    "duration": 0.4394320000000107
                },
                {
                    "name": "E3",
                    "midi": 52,
                    "time": 160.94196999999912,
                    "velocity": 0.30708661417322836,
                    "duration": 0.10985800000000268
                },
                {
                    "name": "G3",
                    "midi": 55,
                    "time": 161.05182799999912,
                    "velocity": 0.3228346456692913,
                    "duration": 0.10985800000000268
                },
                {
                    "name": "B3",
                    "midi": 59,
                    "time": 161.16168599999912,
                    "velocity": 0.2992125984251969,
                    "duration": 0.10985800000000268
                },
                {
                    "name": "E4",
                    "midi": 64,
                    "time": 161.27154399999912,
                    "velocity": 0.3858267716535433,
                    "duration": 0.4394320000000107
                },
                {
                    "name": "C4",
                    "midi": 60,
                    "time": 161.82083399999914,
                    "velocity": 0.30708661417322836,
                    "duration": 0.10985800000000268
                },
                {
                    "name": "E4",
                    "midi": 64,
                    "time": 161.93069199999914,
                    "velocity": 0.33070866141732286,
                    "duration": 0.10985800000000268
                },
                {
                    "name": "A4",
                    "midi": 69,
                    "time": 162.04054999999914,
                    "velocity": 0.30708661417322836,
                    "duration": 0.10985800000000268
                },
                {
                    "name": "C5",
                    "midi": 72,
                    "time": 162.15040799999915,
                    "velocity": 0.3779527559055118,
                    "duration": 0.4394320000000107
                },
                {
                    "name": "D4",
                    "midi": 62,
                    "time": 162.69969799999916,
                    "velocity": 0.33070866141732286,
                    "duration": 0.10985800000000268
                },
                {
                    "name": "F4",
                    "midi": 65,
                    "time": 162.80955599999916,
                    "velocity": 0.3464566929133858,
                    "duration": 0.10985800000000268
                },
                {
                    "name": "A4",
                    "midi": 69,
                    "time": 162.91941399999916,
                    "velocity": 0.3228346456692913,
                    "duration": 0.10985800000000268
                },
                {
                    "name": "D5",
                    "midi": 74,
                    "time": 163.02927199999917,
                    "velocity": 0.4094488188976378,
                    "duration": 0.4394320000000107
                },
                {
                    "name": "B3",
                    "midi": 59,
                    "time": 163.57856199999918,
                    "velocity": 0.30708661417322836,
                    "duration": 0.10985800000000268
                },
                {
                    "name": "D4",
                    "midi": 62,
                    "time": 163.68841999999918,
                    "velocity": 0.33070866141732286,
                    "duration": 0.10985800000000268
                },
                {
                    "name": "G4",
                    "midi": 67,
                    "time": 163.7982779999992,
                    "velocity": 0.30708661417322836,
                    "duration": 0.10985800000000268
                },
                {
                    "name": "B4",
                    "midi": 71,
                    "time": 163.9081359999992,
                    "velocity": 0.3779527559055118,
                    "duration": 0.4394320000000107
                },
                {
                    "name": "C4",
                    "midi": 60,
                    "time": 164.4574259999992,
                    "velocity": 0.33070866141732286,
                    "duration": 0.10985800000000268
                },
                {
                    "name": "E4",
                    "midi": 64,
                    "time": 164.5672839999992,
                    "velocity": 0.3464566929133858,
                    "duration": 0.10985800000000268
                },
                {
                    "name": "G4",
                    "midi": 67,
                    "time": 164.6771419999992,
                    "velocity": 0.3228346456692913,
                    "duration": 0.10985800000000268
                },
                {
                    "name": "C5",
                    "midi": 72,
                    "time": 164.7869999999992,
                    "velocity": 0.4094488188976378,
                    "duration": 0.4394320000000107
                },
                {
                    "name": "A4",
                    "midi": 69,
                    "time": 165.44614799999923,
                    "velocity": 0.30708661417322836,
                    "duration": 0.10985800000000268
                },
                {
                    "name": "F4",
                    "midi": 65,
                    "time": 165.44614799999923,
                    "velocity": 0.30708661417322836,
                    "duration": 0.10985800000000268
                },
                {
                    "name": "A4",
                    "midi": 69,
                    "time": 165.66586399999923,
                    "velocity": 0.30708661417322836,
                    "duration": 0.10985800000000268
                },
                {
                    "name": "F4",
                    "midi": 65,
                    "time": 165.66586399999923,
                    "velocity": 0.30708661417322836,
                    "duration": 0.10985800000000268
                },
                {
                    "name": "F4",
                    "midi": 65,
                    "time": 165.88557999999924,
                    "velocity": 0.30708661417322836,
                    "duration": 0.10985800000000268
                },
                {
                    "name": "A4",
                    "midi": 69,
                    "time": 165.88557999999924,
                    "velocity": 0.30708661417322836,
                    "duration": 0.10985800000000268
                },
                {
                    "name": "A4",
                    "midi": 69,
                    "time": 166.10529599999924,
                    "velocity": 0.3464566929133858,
                    "duration": 0.10985800000000268
                },
                {
                    "name": "F4",
                    "midi": 65,
                    "time": 166.10529599999924,
                    "velocity": 0.3464566929133858,
                    "duration": 0.10985800000000268
                },
                {
                    "name": "F4",
                    "midi": 65,
                    "time": 166.32501199999925,
                    "velocity": 0.31496062992125984,
                    "duration": 0.10985800000000268
                },
                {
                    "name": "A4",
                    "midi": 69,
                    "time": 166.32501199999925,
                    "velocity": 0.31496062992125984,
                    "duration": 0.10985800000000268
                },
                {
                    "name": "F4",
                    "midi": 65,
                    "time": 166.54472799999925,
                    "velocity": 0.31496062992125984,
                    "duration": 0.10985800000000268
                },
                {
                    "name": "A4",
                    "midi": 69,
                    "time": 166.54472799999925,
                    "velocity": 0.31496062992125984,
                    "duration": 0.10985800000000268
                },
                {
                    "name": "F4",
                    "midi": 65,
                    "time": 166.76444399999926,
                    "velocity": 0.3228346456692913,
                    "duration": 0.10985800000000268
                },
                {
                    "name": "A4",
                    "midi": 69,
                    "time": 166.76444399999926,
                    "velocity": 0.3228346456692913,
                    "duration": 0.10985800000000268
                },
                {
                    "name": "F#3",
                    "midi": 54,
                    "time": 167.20387599999927,
                    "velocity": 0.31496062992125984,
                    "duration": 0.10985800000000268
                },
                {
                    "name": "D#4",
                    "midi": 63,
                    "time": 167.20387599999927,
                    "velocity": 0.31496062992125984,
                    "duration": 0.10985800000000268
                },
                {
                    "name": "C4",
                    "midi": 60,
                    "time": 167.20387599999927,
                    "velocity": 0.31496062992125984,
                    "duration": 0.10985800000000268
                },
                {
                    "name": "F#3",
                    "midi": 54,
                    "time": 167.42359199999927,
                    "velocity": 0.3228346456692913,
                    "duration": 0.10985800000000268
                },
                {
                    "name": "D#4",
                    "midi": 63,
                    "time": 167.42359199999927,
                    "velocity": 0.3228346456692913,
                    "duration": 0.10985800000000268
                },
                {
                    "name": "C4",
                    "midi": 60,
                    "time": 167.42359199999927,
                    "velocity": 0.3228346456692913,
                    "duration": 0.10985800000000268
                },
                {
                    "name": "F#3",
                    "midi": 54,
                    "time": 167.64330799999928,
                    "velocity": 0.3228346456692913,
                    "duration": 0.10985800000000268
                },
                {
                    "name": "C4",
                    "midi": 60,
                    "time": 167.64330799999928,
                    "velocity": 0.3228346456692913,
                    "duration": 0.10985800000000268
                },
                {
                    "name": "D#4",
                    "midi": 63,
                    "time": 167.64330799999928,
                    "velocity": 0.3228346456692913,
                    "duration": 0.10985800000000268
                },
                {
                    "name": "F#3",
                    "midi": 54,
                    "time": 167.86302399999929,
                    "velocity": 0.3700787401574803,
                    "duration": 0.10985800000000268
                },
                {
                    "name": "C4",
                    "midi": 60,
                    "time": 167.86302399999929,
                    "velocity": 0.3700787401574803,
                    "duration": 0.10985800000000268
                },
                {
                    "name": "D#4",
                    "midi": 63,
                    "time": 167.86302399999929,
                    "velocity": 0.3700787401574803,
                    "duration": 0.10985800000000268
                },
                {
                    "name": "F#3",
                    "midi": 54,
                    "time": 168.0827399999993,
                    "velocity": 0.33858267716535434,
                    "duration": 0.10985800000000268
                },
                {
                    "name": "C4",
                    "midi": 60,
                    "time": 168.0827399999993,
                    "velocity": 0.33858267716535434,
                    "duration": 0.10985800000000268
                },
                {
                    "name": "D#4",
                    "midi": 63,
                    "time": 168.0827399999993,
                    "velocity": 0.33858267716535434,
                    "duration": 0.10985800000000268
                },
                {
                    "name": "F#3",
                    "midi": 54,
                    "time": 168.3024559999993,
                    "velocity": 0.33858267716535434,
                    "duration": 0.10985800000000268
                },
                {
                    "name": "C4",
                    "midi": 60,
                    "time": 168.3024559999993,
                    "velocity": 0.33858267716535434,
                    "duration": 0.10985800000000268
                },
                {
                    "name": "D#4",
                    "midi": 63,
                    "time": 168.3024559999993,
                    "velocity": 0.33858267716535434,
                    "duration": 0.10985800000000268
                },
                {
                    "name": "F#3",
                    "midi": 54,
                    "time": 168.5221719999993,
                    "velocity": 0.3464566929133858,
                    "duration": 0.10985800000000268
                },
                {
                    "name": "D#4",
                    "midi": 63,
                    "time": 168.5221719999993,
                    "velocity": 0.3464566929133858,
                    "duration": 0.10985800000000268
                },
                {
                    "name": "C4",
                    "midi": 60,
                    "time": 168.5221719999993,
                    "velocity": 0.3464566929133858,
                    "duration": 0.10985800000000268
                },
                {
                    "name": "G3",
                    "midi": 55,
                    "time": 168.7418879999993,
                    "velocity": 0.4251968503937008,
                    "duration": 0.10985800000000268
                },
                {
                    "name": "E4",
                    "midi": 64,
                    "time": 168.8517459999993,
                    "velocity": 0.33070866141732286,
                    "duration": 0.10985800000000268
                },
                {
                    "name": "C4",
                    "midi": 60,
                    "time": 168.9616039999993,
                    "velocity": 0.33070866141732286,
                    "duration": 0.10985800000000268
                },
                {
                    "name": "E4",
                    "midi": 64,
                    "time": 169.07146199999931,
                    "velocity": 0.33070866141732286,
                    "duration": 0.10985800000000268
                },
                {
                    "name": "G3",
                    "midi": 55,
                    "time": 169.18131999999932,
                    "velocity": 0.4409448818897638,
                    "duration": 0.10985800000000268
                },
                {
                    "name": "E4",
                    "midi": 64,
                    "time": 169.29117799999932,
                    "velocity": 0.3464566929133858,
                    "duration": 0.10985800000000268
                },
                {
                    "name": "C4",
                    "midi": 60,
                    "time": 169.40103599999932,
                    "velocity": 0.33070866141732286,
                    "duration": 0.10985800000000268
                },
                {
                    "name": "E4",
                    "midi": 64,
                    "time": 169.51089399999933,
                    "velocity": 0.33070866141732286,
                    "duration": 0.10985800000000268
                },
                {
                    "name": "G3",
                    "midi": 55,
                    "time": 169.62075199999933,
                    "velocity": 0.3779527559055118,
                    "duration": 0.10985800000000268
                },
                {
                    "name": "E4",
                    "midi": 64,
                    "time": 169.73060999999933,
                    "velocity": 0.33070866141732286,
                    "duration": 0.10985800000000268
                },
                {
                    "name": "C4",
                    "midi": 60,
                    "time": 169.84046799999933,
                    "velocity": 0.33070866141732286,
                    "duration": 0.10985800000000268
                },
                {
                    "name": "E4",
                    "midi": 64,
                    "time": 169.95032599999934,
                    "velocity": 0.33070866141732286,
                    "duration": 0.10985800000000268
                },
                {
                    "name": "G3",
                    "midi": 55,
                    "time": 170.06018399999934,
                    "velocity": 0.3858267716535433,
                    "duration": 0.10985800000000268
                },
                {
                    "name": "E4",
                    "midi": 64,
                    "time": 170.17004199999934,
                    "velocity": 0.33070866141732286,
                    "duration": 0.10985800000000268
                },
                {
                    "name": "C4",
                    "midi": 60,
                    "time": 170.27989999999934,
                    "velocity": 0.33070866141732286,
                    "duration": 0.10985800000000268
                },
                {
                    "name": "E4",
                    "midi": 64,
                    "time": 170.38975799999935,
                    "velocity": 0.33070866141732286,
                    "duration": 0.10985800000000268
                },
                {
                    "name": "G3",
                    "midi": 55,
                    "time": 170.49961599999935,
                    "velocity": 0.3937007874015748,
                    "duration": 0.10985800000000268
                },
                {
                    "name": "F4",
                    "midi": 65,
                    "time": 170.60947399999935,
                    "velocity": 0.33070866141732286,
                    "duration": 0.10985800000000268
                },
                {
                    "name": "B3",
                    "midi": 59,
                    "time": 170.71933199999935,
                    "velocity": 0.33070866141732286,
                    "duration": 0.10985800000000268
                },
                {
                    "name": "F4",
                    "midi": 65,
                    "time": 170.82918999999936,
                    "velocity": 0.33070866141732286,
                    "duration": 0.10985800000000268
                },
                {
                    "name": "G3",
                    "midi": 55,
                    "time": 170.93904799999936,
                    "velocity": 0.3858267716535433,
                    "duration": 0.10985800000000268
                },
                {
                    "name": "F4",
                    "midi": 65,
                    "time": 171.04890599999936,
                    "velocity": 0.33070866141732286,
                    "duration": 0.10985800000000268
                },
                {
                    "name": "B3",
                    "midi": 59,
                    "time": 171.15876399999937,
                    "velocity": 0.33070866141732286,
                    "duration": 0.10985800000000268
                },
                {
                    "name": "F4",
                    "midi": 65,
                    "time": 171.26862199999937,
                    "velocity": 0.33070866141732286,
                    "duration": 0.10985800000000268
                },
                {
                    "name": "G3",
                    "midi": 55,
                    "time": 171.37847999999937,
                    "velocity": 0.3779527559055118,
                    "duration": 0.10985800000000268
                },
                {
                    "name": "F4",
                    "midi": 65,
                    "time": 171.48833799999937,
                    "velocity": 0.33070866141732286,
                    "duration": 0.10985800000000268
                },
                {
                    "name": "B3",
                    "midi": 59,
                    "time": 171.59819599999938,
                    "velocity": 0.33070866141732286,
                    "duration": 0.10985800000000268
                },
                {
                    "name": "F4",
                    "midi": 65,
                    "time": 171.70805399999938,
                    "velocity": 0.33070866141732286,
                    "duration": 0.10985800000000268
                },
                {
                    "name": "G3",
                    "midi": 55,
                    "time": 171.81791199999938,
                    "velocity": 0.3858267716535433,
                    "duration": 0.10985800000000268
                },
                {
                    "name": "F4",
                    "midi": 65,
                    "time": 171.92776999999938,
                    "velocity": 0.33070866141732286,
                    "duration": 0.10985800000000268
                },
                {
                    "name": "B3",
                    "midi": 59,
                    "time": 172.0376279999994,
                    "velocity": 0.33070866141732286,
                    "duration": 0.10985800000000268
                },
                {
                    "name": "F4",
                    "midi": 65,
                    "time": 172.1474859999994,
                    "velocity": 0.33070866141732286,
                    "duration": 0.10985800000000268
                },
                {
                    "name": "E4",
                    "midi": 64,
                    "time": 172.2573439999994,
                    "velocity": 0.4566929133858268,
                    "duration": 0.4394320000000107
                },
                {
                    "name": "C4",
                    "midi": 60,
                    "time": 172.2573439999994,
                    "velocity": 0.3858267716535433,
                    "duration": 0.4394320000000107
                },
                {
                    "name": "G3",
                    "midi": 55,
                    "time": 173.5756399999994,
                    "velocity": 0.31496062992125984,
                    "duration": 0.4394320000000107
                },
                {
                    "name": "F4",
                    "midi": 65,
                    "time": 173.5756399999994,
                    "velocity": 0.3779527559055118,
                    "duration": 0.4394320000000107
                },
                {
                    "name": "D4",
                    "midi": 62,
                    "time": 173.5756399999994,
                    "velocity": 0.31496062992125984,
                    "duration": 0.4394320000000107
                },
                {
                    "name": "E4",
                    "midi": 64,
                    "time": 174.0150719999994,
                    "velocity": 0.4566929133858268,
                    "duration": 0.4394320000000107
                },
                {
                    "name": "C4",
                    "midi": 60,
                    "time": 174.0150719999994,
                    "velocity": 0.3858267716535433,
                    "duration": 0.4394320000000107
                },
                {
                    "name": "G2",
                    "midi": 43,
                    "time": 175.3333679999994,
                    "velocity": 0.31496062992125984,
                    "duration": 0.4394320000000107
                },
                {
                    "name": "D3",
                    "midi": 50,
                    "time": 175.3333679999994,
                    "velocity": 0.31496062992125984,
                    "duration": 0.4394320000000107
                },
                {
                    "name": "F3",
                    "midi": 53,
                    "time": 175.3333679999994,
                    "velocity": 0.3779527559055118,
                    "duration": 0.4394320000000107
                },
                {
                    "name": "E3",
                    "midi": 52,
                    "time": 175.77279999999942,
                    "velocity": 0.4094488188976378,
                    "duration": 0.10985800000000268
                },
                {
                    "name": "C3",
                    "midi": 48,
                    "time": 175.77279999999942,
                    "velocity": 0.3464566929133858,
                    "duration": 0.10985800000000268
                },
                {
                    "name": "C4",
                    "midi": 60,
                    "time": 176.21223199999943,
                    "velocity": 0.4645669291338583,
                    "duration": 0.10985800000000268
                },
                {
                    "name": "C3",
                    "midi": 48,
                    "time": 176.65166399999944,
                    "velocity": 0.4330708661417323,
                    "duration": 0.4394320000000107
                },
                {
                    "name": "C2",
                    "midi": 36,
                    "time": 176.65166399999944,
                    "velocity": 0.3464566929133858,
                    "duration": 0.4394320000000107
                },
                {
                    "name": "G3",
                    "midi": 55,
                    "time": 177.53052799999946,
                    "velocity": 0.4566929133858268,
                    "duration": 0.4394320000000107
                },
                {
                    "name": "G2",
                    "midi": 43,
                    "time": 177.53052799999946,
                    "velocity": 0.3858267716535433,
                    "duration": 0.4394320000000107
                },
                {
                    "name": "A4",
                    "midi": 69,
                    "time": 178.84882399999947,
                    "velocity": 0.31496062992125984,
                    "duration": 0.4394320000000107
                },
                {
                    "name": "C5",
                    "midi": 72,
                    "time": 178.84882399999947,
                    "velocity": 0.3779527559055118,
                    "duration": 0.4394320000000107
                },
                {
                    "name": "D4",
                    "midi": 62,
                    "time": 178.84882399999947,
                    "velocity": 0.31496062992125984,
                    "duration": 0.4394320000000107
                },
                {
                    "name": "G4",
                    "midi": 67,
                    "time": 179.28825599999948,
                    "velocity": 0.3858267716535433,
                    "duration": 0.4394320000000107
                },
                {
                    "name": "A#4",
                    "midi": 70,
                    "time": 179.28825599999948,
                    "velocity": 0.4566929133858268,
                    "duration": 0.4394320000000107
                },
                {
                    "name": "A3",
                    "midi": 57,
                    "time": 180.60655199999948,
                    "velocity": 0.31496062992125984,
                    "duration": 0.4394320000000107
                },
                {
                    "name": "C4",
                    "midi": 60,
                    "time": 180.60655199999948,
                    "velocity": 0.3779527559055118,
                    "duration": 0.4394320000000107
                },
                {
                    "name": "D3",
                    "midi": 50,
                    "time": 180.60655199999948,
                    "velocity": 0.31496062992125984,
                    "duration": 0.4394320000000107
                },
                {
                    "name": "G2",
                    "midi": 43,
                    "time": 181.1558419999995,
                    "velocity": 0.3858267716535433,
                    "duration": 0.12084379999998873
                },
                {
                    "name": "A2",
                    "midi": 45,
                    "time": 181.2656999999995,
                    "velocity": 0.4015748031496063,
                    "duration": 0.12084379999996031
                },
                {
                    "name": "A#2",
                    "midi": 46,
                    "time": 181.37555799999947,
                    "velocity": 0.4094488188976378,
                    "duration": 0.12084379999996031
                },
                {
                    "name": "C3",
                    "midi": 48,
                    "time": 181.48541599999945,
                    "velocity": 0.4251968503937008,
                    "duration": 0.12084379999996031
                },
                {
                    "name": "D3",
                    "midi": 50,
                    "time": 181.59527399999942,
                    "velocity": 0.4409448818897638,
                    "duration": 0.12084379999996031
                },
                {
                    "name": "E3",
                    "midi": 52,
                    "time": 181.7051319999994,
                    "velocity": 0.4566929133858268,
                    "duration": 0.12084379999996031
                },
                {
                    "name": "F#3",
                    "midi": 54,
                    "time": 181.81498999999937,
                    "velocity": 0.47244094488188976,
                    "duration": 0.12084379999996031
                },
                {
                    "name": "G3",
                    "midi": 55,
                    "time": 181.92484799999934,
                    "velocity": 0.48031496062992124,
                    "duration": 0.4394319999999823
                },
                {
                    "name": "A2",
                    "midi": 45,
                    "time": 182.91356999999934,
                    "velocity": 0.41732283464566927,
                    "duration": 0.12084379999998873
                },
                {
                    "name": "B2",
                    "midi": 47,
                    "time": 183.02342799999934,
                    "velocity": 0.4330708661417323,
                    "duration": 0.12084379999996031
                },
                {
                    "name": "C#3",
                    "midi": 49,
                    "time": 183.13328599999932,
                    "velocity": 0.44881889763779526,
                    "duration": 0.12084379999996031
                },
                {
                    "name": "D3",
                    "midi": 50,
                    "time": 183.2431439999993,
                    "velocity": 0.47244094488188976,
                    "duration": 0.12084379999996031
                },
                {
                    "name": "E3",
                    "midi": 52,
                    "time": 183.35300199999926,
                    "velocity": 0.4881889763779528,
                    "duration": 0.12084379999996031
                },
                {
                    "name": "F#3",
                    "midi": 54,
                    "time": 183.46285999999924,
                    "velocity": 0.5039370078740157,
                    "duration": 0.12084379999996031
                },
                {
                    "name": "G#3",
                    "midi": 56,
                    "time": 183.5727179999992,
                    "velocity": 0.5196850393700787,
                    "duration": 0.12084379999996031
                },
                {
                    "name": "A3",
                    "midi": 57,
                    "time": 183.6825759999992,
                    "velocity": 0.5354330708661418,
                    "duration": 0.4394319999999823
                },
                {
                    "name": "D3",
                    "midi": 50,
                    "time": 184.56143999999918,
                    "velocity": 0.5590551181102362,
                    "duration": 0.4394320000000107
                },
                {
                    "name": "D2",
                    "midi": 38,
                    "time": 184.56143999999918,
                    "velocity": 0.5590551181102362,
                    "duration": 0.4394320000000107
                },
                {
                    "name": "E4",
                    "midi": 64,
                    "time": 185.87973599999918,
                    "velocity": 0.3464566929133858,
                    "duration": 0.4394320000000107
                },
                {
                    "name": "G4",
                    "midi": 67,
                    "time": 185.87973599999918,
                    "velocity": 0.4094488188976378,
                    "duration": 0.4394320000000107
                },
                {
                    "name": "A3",
                    "midi": 57,
                    "time": 185.87973599999918,
                    "velocity": 0.3464566929133858,
                    "duration": 0.4394320000000107
                },
                {
                    "name": "D4",
                    "midi": 62,
                    "time": 186.3191679999992,
                    "velocity": 0.41732283464566927,
                    "duration": 0.4366855499999929
                },
                {
                    "name": "F4",
                    "midi": 65,
                    "time": 186.3191679999992,
                    "velocity": 0.49606299212598426,
                    "duration": 0.4394319999999823
                },
                {
                    "name": "E3",
                    "midi": 52,
                    "time": 187.63746399999917,
                    "velocity": 0.31496062992125984,
                    "duration": 0.4394320000000107
                },
                {
                    "name": "G3",
                    "midi": 55,
                    "time": 187.63746399999917,
                    "velocity": 0.3779527559055118,
                    "duration": 0.4394320000000107
                },
                {
                    "name": "A2",
                    "midi": 45,
                    "time": 187.63746399999917,
                    "velocity": 0.31496062992125984,
                    "duration": 0.4394320000000107
                },
                {
                    "name": "D3",
                    "midi": 50,
                    "time": 188.07689599999918,
                    "velocity": 0.4881889763779528,
                    "duration": 0.4394320000000107
                },
                {
                    "name": "F3",
                    "midi": 53,
                    "time": 188.07689599999918,
                    "velocity": 0.4881889763779528,
                    "duration": 0.4394320000000107
                },
                {
                    "name": "D4",
                    "midi": 62,
                    "time": 189.0656179999992,
                    "velocity": 0.41732283464566927,
                    "duration": 0.12084379999998873
                },
                {
                    "name": "F4",
                    "midi": 65,
                    "time": 189.1754759999992,
                    "velocity": 0.49606299212598426,
                    "duration": 0.12084379999996031
                },
                {
                    "name": "E4",
                    "midi": 64,
                    "time": 189.28533399999918,
                    "velocity": 0.48031496062992124,
                    "duration": 0.12084379999996031
                },
                {
                    "name": "D4",
                    "midi": 62,
                    "time": 189.39519199999916,
                    "velocity": 0.4645669291338583,
                    "duration": 0.12084379999996031
                },
                {
                    "name": "C4",
                    "midi": 60,
                    "time": 189.50504999999913,
                    "velocity": 0.4409448818897638,
                    "duration": 0.12084379999996031
                },
                {
                    "name": "B3",
                    "midi": 59,
                    "time": 189.6149079999991,
                    "velocity": 0.4251968503937008,
                    "duration": 0.12084379999996031
                },
                {
                    "name": "A3",
                    "midi": 57,
                    "time": 189.72476599999908,
                    "velocity": 0.4094488188976378,
                    "duration": 0.12084379999996031
                },
                {
                    "name": "G#3",
                    "midi": 56,
                    "time": 189.83462399999905,
                    "velocity": 0.44881889763779526,
                    "duration": 0.4394319999999823
                },
                {
                    "name": "G#3",
                    "midi": 56,
                    "time": 190.82334599999905,
                    "velocity": 0.4094488188976378,
                    "duration": 0.12084379999998873
                },
                {
                    "name": "B3",
                    "midi": 59,
                    "time": 190.93320399999905,
                    "velocity": 0.48031496062992124,
                    "duration": 0.12084379999996031
                },
                {
                    "name": "A3",
                    "midi": 57,
                    "time": 191.04306199999903,
                    "velocity": 0.4645669291338583,
                    "duration": 0.12084379999996031
                },
                {
                    "name": "G#3",
                    "midi": 56,
                    "time": 191.152919999999,
                    "velocity": 0.44881889763779526,
                    "duration": 0.12084379999996031
                },
                {
                    "name": "F3",
                    "midi": 53,
                    "time": 191.26277799999897,
                    "velocity": 0.4330708661417323,
                    "duration": 0.12084379999996031
                },
                {
                    "name": "E3",
                    "midi": 52,
                    "time": 191.37263599999895,
                    "velocity": 0.41732283464566927,
                    "duration": 0.12084379999996031
                },
                {
                    "name": "D3",
                    "midi": 50,
                    "time": 191.48249399999892,
                    "velocity": 0.3937007874015748,
                    "duration": 0.12084379999996031
                },
                {
                    "name": "C3",
                    "midi": 48,
                    "time": 191.5923519999989,
                    "velocity": 0.44881889763779526,
                    "duration": 0.4394319999999823
                },
                {
                    "name": "D4",
                    "midi": 62,
                    "time": 192.5810739999989,
                    "velocity": 0.4566929133858268,
                    "duration": 0.12084379999998873
                },
                {
                    "name": "A4",
                    "midi": 69,
                    "time": 192.6909319999989,
                    "velocity": 0.5196850393700787,
                    "duration": 0.12084379999996031
                },
                {
                    "name": "G4",
                    "midi": 67,
                    "time": 192.80078999999887,
                    "velocity": 0.5039370078740157,
                    "duration": 0.12084379999996031
                },
                {
                    "name": "F4",
                    "midi": 65,
                    "time": 192.91064799999884,
                    "velocity": 0.4881889763779528,
                    "duration": 0.12084379999996031
                },
                {
                    "name": "E4",
                    "midi": 64,
                    "time": 193.02050599999882,
                    "velocity": 0.48031496062992124,
                    "duration": 0.12084379999996031
                },
                {
                    "name": "D4",
                    "midi": 62,
                    "time": 193.1303639999988,
                    "velocity": 0.4645669291338583,
                    "duration": 0.12084379999996031
                },
                {
                    "name": "C4",
                    "midi": 60,
                    "time": 193.24022199999877,
                    "velocity": 0.4566929133858268,
                    "duration": 0.12084379999996031
                },
                {
                    "name": "B3",
                    "midi": 59,
                    "time": 193.35007999999874,
                    "velocity": 0.5354330708661418,
                    "duration": 0.4394319999999823
                },
                {
                    "name": "C4",
                    "midi": 60,
                    "time": 194.33880199999874,
                    "velocity": 0.3937007874015748,
                    "duration": 0.12084379999998873
                },
                {
                    "name": "G4",
                    "midi": 67,
                    "time": 194.44865999999874,
                    "velocity": 0.4566929133858268,
                    "duration": 0.12084379999996031
                },
                {
                    "name": "F4",
                    "midi": 65,
                    "time": 194.5585179999987,
                    "velocity": 0.4409448818897638,
                    "duration": 0.12084379999996031
                },
                {
                    "name": "E4",
                    "midi": 64,
                    "time": 194.6683759999987,
                    "velocity": 0.4330708661417323,
                    "duration": 0.12084379999996031
                },
                {
                    "name": "D4",
                    "midi": 62,
                    "time": 194.77823399999866,
                    "velocity": 0.41732283464566927,
                    "duration": 0.12084379999996031
                },
                {
                    "name": "C4",
                    "midi": 60,
                    "time": 194.88809199999864,
                    "velocity": 0.4015748031496063,
                    "duration": 0.12084379999996031
                },
                {
                    "name": "B3",
                    "midi": 59,
                    "time": 194.9979499999986,
                    "velocity": 0.3858267716535433,
                    "duration": 0.12084379999996031
                },
                {
                    "name": "A3",
                    "midi": 57,
                    "time": 195.10780799999858,
                    "velocity": 0.44881889763779526,
                    "duration": 0.4394319999999823
                },
                {
                    "name": "B3",
                    "midi": 59,
                    "time": 196.09652999999858,
                    "velocity": 0.3937007874015748,
                    "duration": 0.12084379999998873
                },
                {
                    "name": "F4",
                    "midi": 65,
                    "time": 196.20638799999858,
                    "velocity": 0.4409448818897638,
                    "duration": 0.12084379999996031
                },
                {
                    "name": "E4",
                    "midi": 64,
                    "time": 196.31624599999856,
                    "velocity": 0.4251968503937008,
                    "duration": 0.12084379999996031
                },
                {
                    "name": "D4",
                    "midi": 62,
                    "time": 196.42610399999853,
                    "velocity": 0.41732283464566927,
                    "duration": 0.12084379999996031
                },
                {
                    "name": "C4",
                    "midi": 60,
                    "time": 196.5359619999985,
                    "velocity": 0.4015748031496063,
                    "duration": 0.12084379999996031
                },
                {
                    "name": "B3",
                    "midi": 59,
                    "time": 196.64581999999848,
                    "velocity": 0.3858267716535433,
                    "duration": 0.12084379999996031
                },
                {
                    "name": "A3",
                    "midi": 57,
                    "time": 196.75567799999845,
                    "velocity": 0.3779527559055118,
                    "duration": 0.12084379999996031
                },
                {
                    "name": "G#3",
                    "midi": 56,
                    "time": 196.86553599999843,
                    "velocity": 0.4251968503937008,
                    "duration": 0.4394319999999823
                },
                {
                    "name": "A3",
                    "midi": 57,
                    "time": 197.85425799999842,
                    "velocity": 0.3464566929133858,
                    "duration": 0.12084379999998873
                },
                {
                    "name": "C4",
                    "midi": 60,
                    "time": 197.96411599999843,
                    "velocity": 0.4094488188976378,
                    "duration": 0.12084379999996031
                },
                {
                    "name": "B3",
                    "midi": 59,
                    "time": 198.0739739999984,
                    "velocity": 0.3937007874015748,
                    "duration": 0.12084379999996031
                },
                {
                    "name": "A3",
                    "midi": 57,
                    "time": 198.18383199999838,
                    "velocity": 0.3779527559055118,
                    "duration": 0.12084379999996031
                },
                {
                    "name": "G3",
                    "midi": 55,
                    "time": 198.29368999999835,
                    "velocity": 0.36220472440944884,
                    "duration": 0.12084379999996031
                },
                {
                    "name": "F3",
                    "midi": 53,
                    "time": 198.40354799999832,
                    "velocity": 0.3543307086614173,
                    "duration": 0.12084379999996031
                },
                {
                    "name": "E3",
                    "midi": 52,
                    "time": 198.5134059999983,
                    "velocity": 0.33858267716535434,
                    "duration": 0.12084379999996031
                },
                {
                    "name": "D3",
                    "midi": 50,
                    "time": 198.62326399999827,
                    "velocity": 0.4015748031496063,
                    "duration": 0.878863999999993
                },
                {
                    "name": "C3",
                    "midi": 48,
                    "time": 199.50212799999827,
                    "velocity": 0.36220472440944884,
                    "duration": 0.878863999999993
                },
                {
                    "name": "G3",
                    "midi": 55,
                    "time": 199.50212799999827,
                    "velocity": 0.36220472440944884,
                    "duration": 0.878863999999993
                },
                {
                    "name": "A#3",
                    "midi": 58,
                    "time": 199.50212799999827,
                    "velocity": 0.44881889763779526,
                    "duration": 0.878863999999993
                },
                {
                    "name": "F4",
                    "midi": 65,
                    "time": 200.38099199999826,
                    "velocity": 0.31496062992125984,
                    "duration": 0.21971600000000535
                },
                {
                    "name": "C5",
                    "midi": 72,
                    "time": 200.60070799999826,
                    "velocity": 0.23622047244094488,
                    "duration": 0.21971600000000535
                },
                {
                    "name": "A4",
                    "midi": 69,
                    "time": 200.82042399999827,
                    "velocity": 0.23622047244094488,
                    "duration": 0.21971600000000535
                },
                {
                    "name": "C5",
                    "midi": 72,
                    "time": 201.04013999999827,
                    "velocity": 0.23622047244094488,
                    "duration": 0.21971600000000535
                },
                {
                    "name": "F4",
                    "midi": 65,
                    "time": 201.25985599999828,
                    "velocity": 0.31496062992125984,
                    "duration": 0.21971600000000535
                },
                {
                    "name": "C5",
                    "midi": 72,
                    "time": 201.47957199999829,
                    "velocity": 0.23622047244094488,
                    "duration": 0.21971600000000535
                },
                {
                    "name": "A4",
                    "midi": 69,
                    "time": 201.6992879999983,
                    "velocity": 0.23622047244094488,
                    "duration": 0.21971600000000535
                },
                {
                    "name": "C5",
                    "midi": 72,
                    "time": 201.9190039999983,
                    "velocity": 0.23622047244094488,
                    "duration": 0.21971600000000535
                },
                {
                    "name": "G4",
                    "midi": 67,
                    "time": 202.1387199999983,
                    "velocity": 0.23622047244094488,
                    "duration": 0.21971600000000535
                },
                {
                    "name": "C5",
                    "midi": 72,
                    "time": 202.3584359999983,
                    "velocity": 0.2283464566929134,
                    "duration": 0.21971600000000535
                },
                {
                    "name": "A#4",
                    "midi": 70,
                    "time": 202.5781519999983,
                    "velocity": 0.2440944881889764,
                    "duration": 0.21971600000000535
                },
                {
                    "name": "C5",
                    "midi": 72,
                    "time": 202.79786799999832,
                    "velocity": 0.2204724409448819,
                    "duration": 0.21971600000000535
                },
                {
                    "name": "F4",
                    "midi": 65,
                    "time": 203.01758399999832,
                    "velocity": 0.31496062992125984,
                    "duration": 0.21971600000000535
                },
                {
                    "name": "C5",
                    "midi": 72,
                    "time": 203.23729999999833,
                    "velocity": 0.2283464566929134,
                    "duration": 0.21971600000000535
                },
                {
                    "name": "A4",
                    "midi": 69,
                    "time": 203.45701599999833,
                    "velocity": 0.25196850393700787,
                    "duration": 0.21971600000000535
                },
                {
                    "name": "C5",
                    "midi": 72,
                    "time": 203.67673199999834,
                    "velocity": 0.2283464566929134,
                    "duration": 0.21971600000000535
                },
                {
                    "name": "F4",
                    "midi": 65,
                    "time": 203.89644799999834,
                    "velocity": 0.31496062992125984,
                    "duration": 0.21971600000000535
                },
                {
                    "name": "D5",
                    "midi": 74,
                    "time": 204.11616399999835,
                    "velocity": 0.25196850393700787,
                    "duration": 0.21971600000000535
                },
                {
                    "name": "A#4",
                    "midi": 70,
                    "time": 204.33587999999835,
                    "velocity": 0.25196850393700787,
                    "duration": 0.21971600000000535
                },
                {
                    "name": "D5",
                    "midi": 74,
                    "time": 204.55559599999836,
                    "velocity": 0.25196850393700787,
                    "duration": 0.21971600000000535
                },
                {
                    "name": "F4",
                    "midi": 65,
                    "time": 204.77531199999837,
                    "velocity": 0.31496062992125984,
                    "duration": 0.21971600000000535
                },
                {
                    "name": "C5",
                    "midi": 72,
                    "time": 204.99502799999837,
                    "velocity": 0.25196850393700787,
                    "duration": 0.21971600000000535
                },
                {
                    "name": "A4",
                    "midi": 69,
                    "time": 205.21474399999838,
                    "velocity": 0.25196850393700787,
                    "duration": 0.21971600000000535
                },
                {
                    "name": "C5",
                    "midi": 72,
                    "time": 205.43445999999838,
                    "velocity": 0.25196850393700787,
                    "duration": 0.21971600000000535
                },
                {
                    "name": "E4",
                    "midi": 64,
                    "time": 205.6541759999984,
                    "velocity": 0.31496062992125984,
                    "duration": 0.21971600000000535
                },
                {
                    "name": "C5",
                    "midi": 72,
                    "time": 205.8738919999984,
                    "velocity": 0.25196850393700787,
                    "duration": 0.21971600000000535
                },
                {
                    "name": "G4",
                    "midi": 67,
                    "time": 206.0936079999984,
                    "velocity": 0.25196850393700787,
                    "duration": 0.21971600000000535
                },
                {
                    "name": "C5",
                    "midi": 72,
                    "time": 206.3133239999984,
                    "velocity": 0.25196850393700787,
                    "duration": 0.21971600000000535
                },
                {
                    "name": "F4",
                    "midi": 65,
                    "time": 206.5330399999984,
                    "velocity": 0.31496062992125984,
                    "duration": 0.21971600000000535
                },
                {
                    "name": "C5",
                    "midi": 72,
                    "time": 206.7527559999984,
                    "velocity": 0.2677165354330709,
                    "duration": 0.21971600000000535
                },
                {
                    "name": "A4",
                    "midi": 69,
                    "time": 206.97247199999842,
                    "velocity": 0.2677165354330709,
                    "duration": 0.21971600000000535
                },
                {
                    "name": "C5",
                    "midi": 72,
                    "time": 207.19218799999842,
                    "velocity": 0.2677165354330709,
                    "duration": 0.21971600000000535
                },
                {
                    "name": "A#4",
                    "midi": 70,
                    "time": 207.41190399999843,
                    "velocity": 0.31496062992125984,
                    "duration": 0.4394320000000107
                },
                {
                    "name": "A#3",
                    "midi": 58,
                    "time": 208.73019999999843,
                    "velocity": 0.31496062992125984,
                    "duration": 0.4394320000000107
                },
                {
                    "name": "F4",
                    "midi": 65,
                    "time": 208.73019999999843,
                    "velocity": 0.31496062992125984,
                    "duration": 0.4394320000000107
                },
                {
                    "name": "A3",
                    "midi": 57,
                    "time": 209.16963199999844,
                    "velocity": 0.31496062992125984,
                    "duration": 0.4394320000000107
                },
                {
                    "name": "F4",
                    "midi": 65,
                    "time": 209.16963199999844,
                    "velocity": 0.31496062992125984,
                    "duration": 0.4394320000000107
                },
                {
                    "name": "A3",
                    "midi": 57,
                    "time": 210.48792799999845,
                    "velocity": 0.31496062992125984,
                    "duration": 0.4394320000000107
                },
                {
                    "name": "F4",
                    "midi": 65,
                    "time": 210.48792799999845,
                    "velocity": 0.31496062992125984,
                    "duration": 0.4394320000000107
                },
                {
                    "name": "G3",
                    "midi": 55,
                    "time": 210.92735999999846,
                    "velocity": 0.31496062992125984,
                    "duration": 0.4394320000000107
                },
                {
                    "name": "F4",
                    "midi": 65,
                    "time": 210.92735999999846,
                    "velocity": 0.31496062992125984,
                    "duration": 0.4394320000000107
                },
                {
                    "name": "G3",
                    "midi": 55,
                    "time": 212.24565599999846,
                    "velocity": 0.31496062992125984,
                    "duration": 0.4394320000000107
                },
                {
                    "name": "E4",
                    "midi": 64,
                    "time": 212.24565599999846,
                    "velocity": 0.31496062992125984,
                    "duration": 0.4394320000000107
                },
                {
                    "name": "F3",
                    "midi": 53,
                    "time": 212.68508799999847,
                    "velocity": 0.31496062992125984,
                    "duration": 0.4394320000000107
                },
                {
                    "name": "F4",
                    "midi": 65,
                    "time": 212.68508799999847,
                    "velocity": 0.31496062992125984,
                    "duration": 0.4394320000000107
                },
                {
                    "name": "F3",
                    "midi": 53,
                    "time": 214.4428159999985,
                    "velocity": 0.3779527559055118,
                    "duration": 0.21971600000000535
                },
                {
                    "name": "G3",
                    "midi": 55,
                    "time": 214.6625319999985,
                    "velocity": 0.33070866141732286,
                    "duration": 0.12084379999998873
                },
                {
                    "name": "A3",
                    "midi": 57,
                    "time": 214.7723899999985,
                    "velocity": 0.33070866141732286,
                    "duration": 0.12084379999996031
                },
                {
                    "name": "A#3",
                    "midi": 58,
                    "time": 214.88224799999847,
                    "velocity": 0.33858267716535434,
                    "duration": 0.12084379999996031
                },
                {
                    "name": "C4",
                    "midi": 60,
                    "time": 214.99210599999844,
                    "velocity": 0.3543307086614173,
                    "duration": 0.12084379999996031
                },
                {
                    "name": "D4",
                    "midi": 62,
                    "time": 215.10196399999842,
                    "velocity": 0.36220472440944884,
                    "duration": 0.12084379999996031
                },
                {
                    "name": "E4",
                    "midi": 64,
                    "time": 215.2118219999984,
                    "velocity": 0.3700787401574803,
                    "duration": 0.12084379999996031
                },
                {
                    "name": "F4",
                    "midi": 65,
                    "time": 215.32167999999837,
                    "velocity": 0.3858267716535433,
                    "duration": 0.12084379999996031
                },
                {
                    "name": "E4",
                    "midi": 64,
                    "time": 215.43153799999834,
                    "velocity": 0.3779527559055118,
                    "duration": 0.12084379999996031
                },
                {
                    "name": "D4",
                    "midi": 62,
                    "time": 215.54139599999831,
                    "velocity": 0.3779527559055118,
                    "duration": 0.12084379999996031
                },
                {
                    "name": "C4",
                    "midi": 60,
                    "time": 215.6512539999983,
                    "velocity": 0.3700787401574803,
                    "duration": 0.12084379999996031
                },
                {
                    "name": "A#3",
                    "midi": 58,
                    "time": 215.76111199999826,
                    "velocity": 0.36220472440944884,
                    "duration": 0.12084379999996031
                },
                {
                    "name": "A3",
                    "midi": 57,
                    "time": 215.87096999999824,
                    "velocity": 0.3543307086614173,
                    "duration": 0.12084379999996031
                },
                {
                    "name": "G3",
                    "midi": 55,
                    "time": 215.9808279999982,
                    "velocity": 0.33858267716535434,
                    "duration": 0.12084379999996031
                },
                {
                    "name": "F3",
                    "midi": 53,
                    "time": 216.0906859999982,
                    "velocity": 0.33070866141732286,
                    "duration": 0.12084379999996031
                },
                {
                    "name": "E3",
                    "midi": 52,
                    "time": 216.20054399999816,
                    "velocity": 0.3779527559055118,
                    "duration": 0.21971599999997693
                },
                {
                    "name": "F3",
                    "midi": 53,
                    "time": 216.42025999999814,
                    "velocity": 0.33070866141732286,
                    "duration": 0.12084379999998873
                },
                {
                    "name": "G3",
                    "midi": 55,
                    "time": 216.53011799999814,
                    "velocity": 0.33070866141732286,
                    "duration": 0.12084379999996031
                },
                {
                    "name": "A3",
                    "midi": 57,
                    "time": 216.63997599999811,
                    "velocity": 0.33858267716535434,
                    "duration": 0.12084379999996031
                },
                {
                    "name": "B3",
                    "midi": 59,
                    "time": 216.7498339999981,
                    "velocity": 0.3543307086614173,
                    "duration": 0.12084379999996031
                },
                {
                    "name": "C4",
                    "midi": 60,
                    "time": 216.85969199999806,
                    "velocity": 0.36220472440944884,
                    "duration": 0.12084379999996031
                },
                {
                    "name": "D4",
                    "midi": 62,
                    "time": 216.96954999999804,
                    "velocity": 0.3700787401574803,
                    "duration": 0.12084379999996031
                },
                {
                    "name": "E4",
                    "midi": 64,
                    "time": 217.079407999998,
                    "velocity": 0.3858267716535433,
                    "duration": 0.12084379999996031
                },
                {
                    "name": "D4",
                    "midi": 62,
                    "time": 217.18926599999799,
                    "velocity": 0.3779527559055118,
                    "duration": 0.12084379999996031
                },
                {
                    "name": "C4",
                    "midi": 60,
                    "time": 217.29912399999796,
                    "velocity": 0.3779527559055118,
                    "duration": 0.12084379999996031
                },
                {
                    "name": "B3",
                    "midi": 59,
                    "time": 217.40898199999793,
                    "velocity": 0.3700787401574803,
                    "duration": 0.12084379999996031
                },
                {
                    "name": "A3",
                    "midi": 57,
                    "time": 217.5188399999979,
                    "velocity": 0.36220472440944884,
                    "duration": 0.12084379999996031
                },
                {
                    "name": "G3",
                    "midi": 55,
                    "time": 217.62869799999788,
                    "velocity": 0.3543307086614173,
                    "duration": 0.12084379999996031
                },
                {
                    "name": "F3",
                    "midi": 53,
                    "time": 217.73855599999786,
                    "velocity": 0.33858267716535434,
                    "duration": 0.12084379999996031
                },
                {
                    "name": "E3",
                    "midi": 52,
                    "time": 217.84841399999783,
                    "velocity": 0.33070866141732286,
                    "duration": 0.12084379999996031
                },
                {
                    "name": "D3",
                    "midi": 50,
                    "time": 217.9582719999978,
                    "velocity": 0.3779527559055118,
                    "duration": 0.21971599999997693
                },
                {
                    "name": "E3",
                    "midi": 52,
                    "time": 218.17798799999778,
                    "velocity": 0.33070866141732286,
                    "duration": 0.12084379999998873
                },
                {
                    "name": "F3",
                    "midi": 53,
                    "time": 218.28784599999778,
                    "velocity": 0.33070866141732286,
                    "duration": 0.12084379999996031
                },
                {
                    "name": "G3",
                    "midi": 55,
                    "time": 218.39770399999776,
                    "velocity": 0.33858267716535434,
                    "duration": 0.12084379999996031
                },
                {
                    "name": "A3",
                    "midi": 57,
                    "time": 218.50756199999773,
                    "velocity": 0.3543307086614173,
                    "duration": 0.12084379999996031
                },
                {
                    "name": "B3",
                    "midi": 59,
                    "time": 218.6174199999977,
                    "velocity": 0.36220472440944884,
                    "duration": 0.12084379999996031
                },
                {
                    "name": "C4",
                    "midi": 60,
                    "time": 218.72727799999768,
                    "velocity": 0.3700787401574803,
                    "duration": 0.12084379999996031
                },
                {
                    "name": "D4",
                    "midi": 62,
                    "time": 218.83713599999766,
                    "velocity": 0.3858267716535433,
                    "duration": 0.12084379999996031
                },
                {
                    "name": "C4",
                    "midi": 60,
                    "time": 218.94699399999763,
                    "velocity": 0.3779527559055118,
                    "duration": 0.12084379999996031
                },
                {
                    "name": "B3",
                    "midi": 59,
                    "time": 219.0568519999976,
                    "velocity": 0.3779527559055118,
                    "duration": 0.12084379999996031
                },
                {
                    "name": "A3",
                    "midi": 57,
                    "time": 219.16670999999758,
                    "velocity": 0.3700787401574803,
                    "duration": 0.12084379999996031
                },
                {
                    "name": "G3",
                    "midi": 55,
                    "time": 219.27656799999755,
                    "velocity": 0.36220472440944884,
                    "duration": 0.12084379999996031
                },
                {
                    "name": "F3",
                    "midi": 53,
                    "time": 219.38642599999753,
                    "velocity": 0.3543307086614173,
                    "duration": 0.12084379999996031
                },
                {
                    "name": "E3",
                    "midi": 52,
                    "time": 219.4962839999975,
                    "velocity": 0.33858267716535434,
                    "duration": 0.12084379999996031
                },
                {
                    "name": "D3",
                    "midi": 50,
                    "time": 219.60614199999748,
                    "velocity": 0.33070866141732286,
                    "duration": 0.12084379999996031
                },
                {
                    "name": "C3",
                    "midi": 48,
                    "time": 219.71599999999745,
                    "velocity": 0.3779527559055118,
                    "duration": 0.21971599999997693
                },
                {
                    "name": "D3",
                    "midi": 50,
                    "time": 219.93571599999743,
                    "velocity": 0.33070866141732286,
                    "duration": 0.12084379999998873
                },
                {
                    "name": "E3",
                    "midi": 52,
                    "time": 220.04557399999743,
                    "velocity": 0.33070866141732286,
                    "duration": 0.12084379999996031
                },
                {
                    "name": "F3",
                    "midi": 53,
                    "time": 220.1554319999974,
                    "velocity": 0.33858267716535434,
                    "duration": 0.12084379999996031
                },
                {
                    "name": "G3",
                    "midi": 55,
                    "time": 220.26528999999738,
                    "velocity": 0.3543307086614173,
                    "duration": 0.12084379999996031
                },
                {
                    "name": "A3",
                    "midi": 57,
                    "time": 220.37514799999735,
                    "velocity": 0.36220472440944884,
                    "duration": 0.12084379999996031
                },
                {
                    "name": "B3",
                    "midi": 59,
                    "time": 220.48500599999733,
                    "velocity": 0.3700787401574803,
                    "duration": 0.12084379999996031
                },
                {
                    "name": "C4",
                    "midi": 60,
                    "time": 220.5948639999973,
                    "velocity": 0.3858267716535433,
                    "duration": 0.12084379999996031
                },
                {
                    "name": "B3",
                    "midi": 59,
                    "time": 220.70472199999728,
                    "velocity": 0.3779527559055118,
                    "duration": 0.12084379999996031
                },
                {
                    "name": "A3",
                    "midi": 57,
                    "time": 220.81457999999725,
                    "velocity": 0.3779527559055118,
                    "duration": 0.12084379999996031
                },
                {
                    "name": "G3",
                    "midi": 55,
                    "time": 220.92443799999722,
                    "velocity": 0.3700787401574803,
                    "duration": 0.12084379999996031
                },
                {
                    "name": "F3",
                    "midi": 53,
                    "time": 221.0342959999972,
                    "velocity": 0.36220472440944884,
                    "duration": 0.12084379999996031
                },
                {
                    "name": "E3",
                    "midi": 52,
                    "time": 221.14415399999717,
                    "velocity": 0.3543307086614173,
                    "duration": 0.12084379999996031
                },
                {
                    "name": "D3",
                    "midi": 50,
                    "time": 221.25401199999715,
                    "velocity": 0.33858267716535434,
                    "duration": 0.12084379999996031
                },
                {
                    "name": "C3",
                    "midi": 48,
                    "time": 221.36386999999712,
                    "velocity": 0.33070866141732286,
                    "duration": 0.12084379999996031
                },
                {
                    "name": "F3",
                    "midi": 53,
                    "time": 221.4737279999971,
                    "velocity": 0.2992125984251969,
                    "duration": 1.757727999999986
                },
                {
                    "name": "A3",
                    "midi": 57,
                    "time": 221.4737279999971,
                    "velocity": 0.2992125984251969,
                    "duration": 1.757727999999986
                },
                {
                    "name": "F3",
                    "midi": 53,
                    "time": 223.23145599999708,
                    "velocity": 0.47244094488188976,
                    "duration": 0.6591479999999876
                },
                {
                    "name": "G3",
                    "midi": 55,
                    "time": 223.89060399999707,
                    "velocity": 0.4330708661417323,
                    "duration": 0.21971600000000535
                },
                {
                    "name": "A3",
                    "midi": 57,
                    "time": 224.11031999999707,
                    "velocity": 0.47244094488188976,
                    "duration": 0.6591479999999876
                },
                {
                    "name": "F#3",
                    "midi": 54,
                    "time": 224.76946799999706,
                    "velocity": 0.4251968503937008,
                    "duration": 0.21971600000000535
                },
                {
                    "name": "G2",
                    "midi": 43,
                    "time": 224.98918399999707,
                    "velocity": 0.5118110236220472,
                    "duration": 0.10985800000000268
                },
                {
                    "name": "B2",
                    "midi": 47,
                    "time": 225.09904199999707,
                    "velocity": 0.4409448818897638,
                    "duration": 0.10985800000000268
                },
                {
                    "name": "D3",
                    "midi": 50,
                    "time": 225.20889999999707,
                    "velocity": 0.4409448818897638,
                    "duration": 0.10985800000000268
                },
                {
                    "name": "G3",
                    "midi": 55,
                    "time": 225.31875799999708,
                    "velocity": 0.3937007874015748,
                    "duration": 0.10985800000000268
                },
                {
                    "name": "G2",
                    "midi": 43,
                    "time": 225.42861599999708,
                    "velocity": 0.5118110236220472,
                    "duration": 0.10985800000000268
                },
                {
                    "name": "C3",
                    "midi": 48,
                    "time": 225.53847399999708,
                    "velocity": 0.4330708661417323,
                    "duration": 0.10985800000000268
                },
                {
                    "name": "E3",
                    "midi": 52,
                    "time": 225.64833199999708,
                    "velocity": 0.4330708661417323,
                    "duration": 0.10985800000000268
                },
                {
                    "name": "G3",
                    "midi": 55,
                    "time": 225.7581899999971,
                    "velocity": 0.3937007874015748,
                    "duration": 0.10985800000000268
                },
                {
                    "name": "G2",
                    "midi": 43,
                    "time": 225.8680479999971,
                    "velocity": 0.5118110236220472,
                    "duration": 0.10985800000000268
                },
                {
                    "name": "B2",
                    "midi": 47,
                    "time": 225.9779059999971,
                    "velocity": 0.4330708661417323,
                    "duration": 0.10985800000000268
                },
                {
                    "name": "D3",
                    "midi": 50,
                    "time": 226.0877639999971,
                    "velocity": 0.4330708661417323,
                    "duration": 0.10985800000000268
                },
                {
                    "name": "G3",
                    "midi": 55,
                    "time": 226.1976219999971,
                    "velocity": 0.4251968503937008,
                    "duration": 0.10985800000000268
                },
                {
                    "name": "G2",
                    "midi": 43,
                    "time": 226.3074799999971,
                    "velocity": 0.5118110236220472,
                    "duration": 0.10985800000000268
                },
                {
                    "name": "C3",
                    "midi": 48,
                    "time": 226.4173379999971,
                    "velocity": 0.44881889763779526,
                    "duration": 0.10985800000000268
                },
                {
                    "name": "E3",
                    "midi": 52,
                    "time": 226.5271959999971,
                    "velocity": 0.4409448818897638,
                    "duration": 0.10985800000000268
                },
                {
                    "name": "G3",
                    "midi": 55,
                    "time": 226.6370539999971,
                    "velocity": 0.41732283464566927,
                    "duration": 0.10985800000000268
                },
                {
                    "name": "G2",
                    "midi": 43,
                    "time": 226.7469119999971,
                    "velocity": 0.5118110236220472,
                    "duration": 0.10985800000000268
                },
                {
                    "name": "G3",
                    "midi": 55,
                    "time": 227.18634399999712,
                    "velocity": 0.4645669291338583,
                    "duration": 0.10985800000000268
                },
                {
                    "name": "G2",
                    "midi": 43,
                    "time": 227.62577599999713,
                    "velocity": 0.48031496062992124,
                    "duration": 0.4394320000000107
                },
                {
                    "name": "F#4",
                    "midi": 66,
                    "time": 228.50463999999715,
                    "velocity": 0.33070866141732286,
                    "duration": 0.12084379999998873
                },
                {
                    "name": "G4",
                    "midi": 67,
                    "time": 228.61449799999716,
                    "velocity": 0.28346456692913385,
                    "duration": 0.10985799999997425
                },
                {
                    "name": "F#4",
                    "midi": 66,
                    "time": 228.72435599999713,
                    "velocity": 0.33070866141732286,
                    "duration": 0.12084379999998873
                },
                {
                    "name": "G4",
                    "midi": 67,
                    "time": 228.83421399999713,
                    "velocity": 0.28346456692913385,
                    "duration": 0.10985799999997425
                },
                {
                    "name": "F#4",
                    "midi": 66,
                    "time": 228.9440719999971,
                    "velocity": 0.33070866141732286,
                    "duration": 0.12084379999998873
                },
                {
                    "name": "G4",
                    "midi": 67,
                    "time": 229.0539299999971,
                    "velocity": 0.2992125984251969,
                    "duration": 0.10985799999997425
                },
                {
                    "name": "F#4",
                    "midi": 66,
                    "time": 229.16378799999708,
                    "velocity": 0.33070866141732286,
                    "duration": 0.12084379999998873
                },
                {
                    "name": "G4",
                    "midi": 67,
                    "time": 229.2736459999971,
                    "velocity": 0.29133858267716534,
                    "duration": 0.10985799999997425
                },
                {
                    "name": "F4",
                    "midi": 65,
                    "time": 229.38350399999706,
                    "velocity": 0.33070866141732286,
                    "duration": 0.12084379999998873
                },
                {
                    "name": "G4",
                    "midi": 67,
                    "time": 229.49336199999706,
                    "velocity": 0.28346456692913385,
                    "duration": 0.10985799999997425
                },
                {
                    "name": "F4",
                    "midi": 65,
                    "time": 229.60321999999704,
                    "velocity": 0.33070866141732286,
                    "duration": 0.12084379999998873
                },
                {
                    "name": "G4",
                    "midi": 67,
                    "time": 229.71307799999704,
                    "velocity": 0.29133858267716534,
                    "duration": 0.10985799999997425
                },
                {
                    "name": "F4",
                    "midi": 65,
                    "time": 229.82293599999701,
                    "velocity": 0.33070866141732286,
                    "duration": 0.12084379999998873
                },
                {
                    "name": "G4",
                    "midi": 67,
                    "time": 229.93279399999702,
                    "velocity": 0.29133858267716534,
                    "duration": 0.10985799999997425
                },
                {
                    "name": "F4",
                    "midi": 65,
                    "time": 230.042651999997,
                    "velocity": 0.33070866141732286,
                    "duration": 0.12084379999998873
                },
                {
                    "name": "G4",
                    "midi": 67,
                    "time": 230.152509999997,
                    "velocity": 0.2992125984251969,
                    "duration": 0.10985799999997425
                },
                {
                    "name": "E4",
                    "midi": 64,
                    "time": 230.26236799999697,
                    "velocity": 0.33070866141732286,
                    "duration": 0.10985800000000268
                },
                {
                    "name": "G4",
                    "midi": 67,
                    "time": 230.37222599999697,
                    "velocity": 0.28346456692913385,
                    "duration": 0.10985800000000268
                },
                {
                    "name": "E4",
                    "midi": 64,
                    "time": 230.48208399999697,
                    "velocity": 0.33070866141732286,
                    "duration": 0.10985800000000268
                },
                {
                    "name": "G4",
                    "midi": 67,
                    "time": 230.59194199999698,
                    "velocity": 0.28346456692913385,
                    "duration": 0.10985800000000268
                },
                {
                    "name": "E4",
                    "midi": 64,
                    "time": 230.70179999999698,
                    "velocity": 0.33070866141732286,
                    "duration": 0.10985800000000268
                },
                {
                    "name": "G4",
                    "midi": 67,
                    "time": 230.81165799999698,
                    "velocity": 0.25196850393700787,
                    "duration": 0.10985800000000268
                },
                {
                    "name": "E4",
                    "midi": 64,
                    "time": 230.92151599999698,
                    "velocity": 0.2992125984251969,
                    "duration": 0.10985800000000268
                },
                {
                    "name": "G4",
                    "midi": 67,
                    "time": 231.031373999997,
                    "velocity": 0.25984251968503935,
                    "duration": 0.10985800000000268
                },
                {
                    "name": "E4",
                    "midi": 64,
                    "time": 231.141231999997,
                    "velocity": 0.30708661417322836,
                    "duration": 0.10985800000000268
                },
                {
                    "name": "G4",
                    "midi": 67,
                    "time": 231.251089999997,
                    "velocity": 0.25196850393700787,
                    "duration": 0.10985800000000268
                },
                {
                    "name": "E4",
                    "midi": 64,
                    "time": 231.360947999997,
                    "velocity": 0.30708661417322836,
                    "duration": 0.10985800000000268
                },
                {
                    "name": "G4",
                    "midi": 67,
                    "time": 231.470805999997,
                    "velocity": 0.2677165354330709,
                    "duration": 0.10985800000000268
                },
                {
                    "name": "E4",
                    "midi": 64,
                    "time": 231.580663999997,
                    "velocity": 0.33070866141732286,
                    "duration": 0.10985800000000268
                },
                {
                    "name": "G4",
                    "midi": 67,
                    "time": 231.690521999997,
                    "velocity": 0.29133858267716534,
                    "duration": 0.10985800000000268
                },
                {
                    "name": "E4",
                    "midi": 64,
                    "time": 231.800379999997,
                    "velocity": 0.33070866141732286,
                    "duration": 0.10985800000000268
                },
                {
                    "name": "G4",
                    "midi": 67,
                    "time": 231.910237999997,
                    "velocity": 0.2992125984251969,
                    "duration": 0.10985800000000268
                },
                {
                    "name": "F4",
                    "midi": 65,
                    "time": 232.020095999997,
                    "velocity": 0.36220472440944884,
                    "duration": 0.10985800000000268
                },
                {
                    "name": "G4",
                    "midi": 67,
                    "time": 232.129953999997,
                    "velocity": 0.2992125984251969,
                    "duration": 0.10985800000000268
                },
                {
                    "name": "E4",
                    "midi": 64,
                    "time": 232.23981199999702,
                    "velocity": 0.33070866141732286,
                    "duration": 0.10985800000000268
                },
                {
                    "name": "G4",
                    "midi": 67,
                    "time": 232.34966999999702,
                    "velocity": 0.28346456692913385,
                    "duration": 0.10985800000000268
                },
                {
                    "name": "D4",
                    "midi": 62,
                    "time": 232.45952799999702,
                    "velocity": 0.30708661417322836,
                    "duration": 0.12084379999998873
                },
                {
                    "name": "G4",
                    "midi": 67,
                    "time": 232.56938599999702,
                    "velocity": 0.2125984251968504,
                    "duration": 0.10985799999997425
                },
                {
                    "name": "E4",
                    "midi": 64,
                    "time": 232.679243999997,
                    "velocity": 0.3700787401574803,
                    "duration": 0.12084379999998873
                },
                {
                    "name": "G4",
                    "midi": 67,
                    "time": 232.789101999997,
                    "velocity": 0.2755905511811024,
                    "duration": 0.10985799999997425
                },
                {
                    "name": "F4",
                    "midi": 65,
                    "time": 232.89895999999698,
                    "velocity": 0.3937007874015748,
                    "duration": 0.12084379999998873
                },
                {
                    "name": "G4",
                    "midi": 67,
                    "time": 233.00881799999698,
                    "velocity": 0.28346456692913385,
                    "duration": 0.10985799999997425
                },
                {
                    "name": "E4",
                    "midi": 64,
                    "time": 233.11867599999695,
                    "velocity": 0.3464566929133858,
                    "duration": 0.12084379999998873
                },
                {
                    "name": "G4",
                    "midi": 67,
                    "time": 233.22853399999696,
                    "velocity": 0.23622047244094488,
                    "duration": 0.10985799999997425
                },
                {
                    "name": "F4",
                    "midi": 65,
                    "time": 233.33839199999693,
                    "velocity": 0.4094488188976378,
                    "duration": 0.12084379999998873
                },
                {
                    "name": "G4",
                    "midi": 67,
                    "time": 233.44824999999693,
                    "velocity": 0.2440944881889764,
                    "duration": 0.10985799999997425
                },
                {
                    "name": "D4",
                    "midi": 62,
                    "time": 233.5581079999969,
                    "velocity": 0.31496062992125984,
                    "duration": 0.12084379999998873
                },
                {
                    "name": "G4",
                    "midi": 67,
                    "time": 233.6679659999969,
                    "velocity": 0.2204724409448819,
                    "duration": 0.10985799999997425
                },
                {
                    "name": "E4",
                    "midi": 64,
                    "time": 233.77782399999688,
                    "velocity": 0.33070866141732286,
                    "duration": 0.10985800000000268
                },
                {
                    "name": "G4",
                    "midi": 67,
                    "time": 233.8876819999969,
                    "velocity": 0.28346456692913385,
                    "duration": 0.10985800000000268
                },
                {
                    "name": "E4",
                    "midi": 64,
                    "time": 233.9975399999969,
                    "velocity": 0.33070866141732286,
                    "duration": 0.10985800000000268
                },
                {
                    "name": "G4",
                    "midi": 67,
                    "time": 234.1073979999969,
                    "velocity": 0.28346456692913385,
                    "duration": 0.10985800000000268
                },
                {
                    "name": "E4",
                    "midi": 64,
                    "time": 234.2172559999969,
                    "velocity": 0.33070866141732286,
                    "duration": 0.10985800000000268
                },
                {
                    "name": "G4",
                    "midi": 67,
                    "time": 234.3271139999969,
                    "velocity": 0.25196850393700787,
                    "duration": 0.10985800000000268
                },
                {
                    "name": "E4",
                    "midi": 64,
                    "time": 234.4369719999969,
                    "velocity": 0.2992125984251969,
                    "duration": 0.10985800000000268
                },
                {
                    "name": "G4",
                    "midi": 67,
                    "time": 234.5468299999969,
                    "velocity": 0.25984251968503935,
                    "duration": 0.10985800000000268
                },
                {
                    "name": "E4",
                    "midi": 64,
                    "time": 234.6566879999969,
                    "velocity": 0.30708661417322836,
                    "duration": 0.10985800000000268
                },
                {
                    "name": "G4",
                    "midi": 67,
                    "time": 234.7665459999969,
                    "velocity": 0.25196850393700787,
                    "duration": 0.10985800000000268
                },
                {
                    "name": "E4",
                    "midi": 64,
                    "time": 234.8764039999969,
                    "velocity": 0.30708661417322836,
                    "duration": 0.10985800000000268
                },
                {
                    "name": "G4",
                    "midi": 67,
                    "time": 234.9862619999969,
                    "velocity": 0.2677165354330709,
                    "duration": 0.10985800000000268
                },
                {
                    "name": "E4",
                    "midi": 64,
                    "time": 235.09611999999692,
                    "velocity": 0.33070866141732286,
                    "duration": 0.10985800000000268
                },
                {
                    "name": "G4",
                    "midi": 67,
                    "time": 235.20597799999692,
                    "velocity": 0.29133858267716534,
                    "duration": 0.10985800000000268
                },
                {
                    "name": "E4",
                    "midi": 64,
                    "time": 235.31583599999692,
                    "velocity": 0.33070866141732286,
                    "duration": 0.10985800000000268
                },
                {
                    "name": "G4",
                    "midi": 67,
                    "time": 235.42569399999692,
                    "velocity": 0.2992125984251969,
                    "duration": 0.10985800000000268
                },
                {
                    "name": "F4",
                    "midi": 65,
                    "time": 235.53555199999693,
                    "velocity": 0.33070866141732286,
                    "duration": 0.10985800000000268
                },
                {
                    "name": "G4",
                    "midi": 67,
                    "time": 235.64540999999693,
                    "velocity": 0.28346456692913385,
                    "duration": 0.10985800000000268
                },
                {
                    "name": "E4",
                    "midi": 64,
                    "time": 235.75526799999693,
                    "velocity": 0.33070866141732286,
                    "duration": 0.10985800000000268
                },
                {
                    "name": "G4",
                    "midi": 67,
                    "time": 235.86512599999693,
                    "velocity": 0.28346456692913385,
                    "duration": 0.10985800000000268
                },
                {
                    "name": "D4",
                    "midi": 62,
                    "time": 235.97498399999694,
                    "velocity": 0.30708661417322836,
                    "duration": 0.12084379999998873
                },
                {
                    "name": "G4",
                    "midi": 67,
                    "time": 236.08484199999694,
                    "velocity": 0.2283464566929134,
                    "duration": 0.10985799999997425
                },
                {
                    "name": "E4",
                    "midi": 64,
                    "time": 236.1946999999969,
                    "velocity": 0.33070866141732286,
                    "duration": 0.12084379999998873
                },
                {
                    "name": "G4",
                    "midi": 67,
                    "time": 236.30455799999692,
                    "velocity": 0.25196850393700787,
                    "duration": 0.10985799999997425
                },
                {
                    "name": "F4",
                    "midi": 65,
                    "time": 236.4144159999969,
                    "velocity": 0.3779527559055118,
                    "duration": 0.12084379999998873
                },
                {
                    "name": "G4",
                    "midi": 67,
                    "time": 236.5242739999969,
                    "velocity": 0.28346456692913385,
                    "duration": 0.10985799999997425
                },
                {
                    "name": "E4",
                    "midi": 64,
                    "time": 236.63413199999687,
                    "velocity": 0.33858267716535434,
                    "duration": 0.12084379999998873
                },
                {
                    "name": "G4",
                    "midi": 67,
                    "time": 236.74398999999687,
                    "velocity": 0.23622047244094488,
                    "duration": 0.10985799999997425
                },
                {
                    "name": "F4",
                    "midi": 65,
                    "time": 236.85384799999684,
                    "velocity": 0.3779527559055118,
                    "duration": 0.12084379999998873
                },
                {
                    "name": "G4",
                    "midi": 67,
                    "time": 236.96370599999685,
                    "velocity": 0.28346456692913385,
                    "duration": 0.10985799999997425
                },
                {
                    "name": "D4",
                    "midi": 62,
                    "time": 237.07356399999682,
                    "velocity": 0.33858267716535434,
                    "duration": 0.12084379999998873
                },
                {
                    "name": "G4",
                    "midi": 67,
                    "time": 237.18342199999682,
                    "velocity": 0.23622047244094488,
                    "duration": 0.10985799999997425
                },
                {
                    "name": "E3",
                    "midi": 52,
                    "time": 237.4031379999968,
                    "velocity": 0.29133858267716534,
                    "duration": 0.10985800000000268
                },
                {
                    "name": "G3",
                    "midi": 55,
                    "time": 237.5129959999968,
                    "velocity": 0.30708661417322836,
                    "duration": 0.10985800000000268
                },
                {
                    "name": "C4",
                    "midi": 60,
                    "time": 237.6228539999968,
                    "velocity": 0.29133858267716534,
                    "duration": 0.10985800000000268
                },
                {
                    "name": "E4",
                    "midi": 64,
                    "time": 237.7327119999968,
                    "velocity": 0.3543307086614173,
                    "duration": 0.4394320000000107
                },
                {
                    "name": "F3",
                    "midi": 53,
                    "time": 238.28200199999682,
                    "velocity": 0.30708661417322836,
                    "duration": 0.10985800000000268
                },
                {
                    "name": "A3",
                    "midi": 57,
                    "time": 238.39185999999683,
                    "velocity": 0.3228346456692913,
                    "duration": 0.10985800000000268
                },
                {
                    "name": "C4",
                    "midi": 60,
                    "time": 238.50171799999683,
                    "velocity": 0.2992125984251969,
                    "duration": 0.10985800000000268
                },
                {
                    "name": "F4",
                    "midi": 65,
                    "time": 238.61157599999683,
                    "velocity": 0.3858267716535433,
                    "duration": 0.4394320000000107
                },
                {
                    "name": "D3",
                    "midi": 50,
                    "time": 239.16086599999684,
                    "velocity": 0.29133858267716534,
                    "duration": 0.10985800000000268
                },
                {
                    "name": "F3",
                    "midi": 53,
                    "time": 239.27072399999685,
                    "velocity": 0.30708661417322836,
                    "duration": 0.10985800000000268
                },
                {
                    "name": "B3",
                    "midi": 59,
                    "time": 239.38058199999685,
                    "velocity": 0.29133858267716534,
                    "duration": 0.10985800000000268
                },
                {
                    "name": "D4",
                    "midi": 62,
                    "time": 239.49043999999685,
                    "velocity": 0.3543307086614173,
                    "duration": 0.4394320000000107
                },
                {
                    "name": "E3",
                    "midi": 52,
                    "time": 240.03972999999687,
                    "velocity": 0.30708661417322836,
                    "duration": 0.10985800000000268
                },
                {
                    "name": "G3",
                    "midi": 55,
                    "time": 240.14958799999687,
                    "velocity": 0.3228346456692913,
                    "duration": 0.10985800000000268
                },
                {
                    "name": "B3",
                    "midi": 59,
                    "time": 240.25944599999687,
                    "velocity": 0.2992125984251969,
                    "duration": 0.10985800000000268
                },
                {
                    "name": "E4",
                    "midi": 64,
                    "time": 240.36930399999687,
                    "velocity": 0.3858267716535433,
                    "duration": 0.4394320000000107
                },
                {
                    "name": "C4",
                    "midi": 60,
                    "time": 240.9185939999969,
                    "velocity": 0.30708661417322836,
                    "duration": 0.10985800000000268
                },
                {
                    "name": "E4",
                    "midi": 64,
                    "time": 241.0284519999969,
                    "velocity": 0.33070866141732286,
                    "duration": 0.10985800000000268
                },
                {
                    "name": "A4",
                    "midi": 69,
                    "time": 241.1383099999969,
                    "velocity": 0.30708661417322836,
                    "duration": 0.10985800000000268
                },
                {
                    "name": "C5",
                    "midi": 72,
                    "time": 241.2481679999969,
                    "velocity": 0.3779527559055118,
                    "duration": 0.4394320000000107
                },
                {
                    "name": "D4",
                    "midi": 62,
                    "time": 241.7974579999969,
                    "velocity": 0.33070866141732286,
                    "duration": 0.10985800000000268
                },
                {
                    "name": "F4",
                    "midi": 65,
                    "time": 241.9073159999969,
                    "velocity": 0.3464566929133858,
                    "duration": 0.10985800000000268
                },
                {
                    "name": "A4",
                    "midi": 69,
                    "time": 242.0171739999969,
                    "velocity": 0.3228346456692913,
                    "duration": 0.10985800000000268
                },
                {
                    "name": "D5",
                    "midi": 74,
                    "time": 242.12703199999692,
                    "velocity": 0.4094488188976378,
                    "duration": 0.4394320000000107
                },
                {
                    "name": "B3",
                    "midi": 59,
                    "time": 242.67632199999693,
                    "velocity": 0.30708661417322836,
                    "duration": 0.10985800000000268
                },
                {
                    "name": "D4",
                    "midi": 62,
                    "time": 242.78617999999693,
                    "velocity": 0.33070866141732286,
                    "duration": 0.10985800000000268
                },
                {
                    "name": "G4",
                    "midi": 67,
                    "time": 242.89603799999693,
                    "velocity": 0.30708661417322836,
                    "duration": 0.10985800000000268
                },
                {
                    "name": "B4",
                    "midi": 71,
                    "time": 243.00589599999694,
                    "velocity": 0.3779527559055118,
                    "duration": 0.4394320000000107
                },
                {
                    "name": "C4",
                    "midi": 60,
                    "time": 243.55518599999695,
                    "velocity": 0.33070866141732286,
                    "duration": 0.10985800000000268
                },
                {
                    "name": "E4",
                    "midi": 64,
                    "time": 243.66504399999695,
                    "velocity": 0.3464566929133858,
                    "duration": 0.10985800000000268
                },
                {
                    "name": "G4",
                    "midi": 67,
                    "time": 243.77490199999696,
                    "velocity": 0.3228346456692913,
                    "duration": 0.10985800000000268
                },
                {
                    "name": "C5",
                    "midi": 72,
                    "time": 243.88475999999696,
                    "velocity": 0.4094488188976378,
                    "duration": 0.4394320000000107
                },
                {
                    "name": "A4",
                    "midi": 69,
                    "time": 244.54390799999697,
                    "velocity": 0.30708661417322836,
                    "duration": 0.10985800000000268
                },
                {
                    "name": "F4",
                    "midi": 65,
                    "time": 244.54390799999697,
                    "velocity": 0.30708661417322836,
                    "duration": 0.10985800000000268
                },
                {
                    "name": "A4",
                    "midi": 69,
                    "time": 244.76362399999698,
                    "velocity": 0.30708661417322836,
                    "duration": 0.10985800000000268
                },
                {
                    "name": "F4",
                    "midi": 65,
                    "time": 244.76362399999698,
                    "velocity": 0.30708661417322836,
                    "duration": 0.10985800000000268
                },
                {
                    "name": "F4",
                    "midi": 65,
                    "time": 244.98333999999699,
                    "velocity": 0.30708661417322836,
                    "duration": 0.10985800000000268
                },
                {
                    "name": "A4",
                    "midi": 69,
                    "time": 244.98333999999699,
                    "velocity": 0.30708661417322836,
                    "duration": 0.10985800000000268
                },
                {
                    "name": "A4",
                    "midi": 69,
                    "time": 245.203055999997,
                    "velocity": 0.3464566929133858,
                    "duration": 0.10985800000000268
                },
                {
                    "name": "F4",
                    "midi": 65,
                    "time": 245.203055999997,
                    "velocity": 0.3464566929133858,
                    "duration": 0.10985800000000268
                },
                {
                    "name": "F4",
                    "midi": 65,
                    "time": 245.422771999997,
                    "velocity": 0.31496062992125984,
                    "duration": 0.10985800000000268
                },
                {
                    "name": "A4",
                    "midi": 69,
                    "time": 245.422771999997,
                    "velocity": 0.31496062992125984,
                    "duration": 0.10985800000000268
                },
                {
                    "name": "F4",
                    "midi": 65,
                    "time": 245.642487999997,
                    "velocity": 0.31496062992125984,
                    "duration": 0.10985800000000268
                },
                {
                    "name": "A4",
                    "midi": 69,
                    "time": 245.642487999997,
                    "velocity": 0.31496062992125984,
                    "duration": 0.10985800000000268
                },
                {
                    "name": "F4",
                    "midi": 65,
                    "time": 245.862203999997,
                    "velocity": 0.3228346456692913,
                    "duration": 0.10985800000000268
                },
                {
                    "name": "A4",
                    "midi": 69,
                    "time": 245.862203999997,
                    "velocity": 0.3228346456692913,
                    "duration": 0.10985800000000268
                },
                {
                    "name": "F#3",
                    "midi": 54,
                    "time": 246.30163599999702,
                    "velocity": 0.31496062992125984,
                    "duration": 0.10985800000000268
                },
                {
                    "name": "D#4",
                    "midi": 63,
                    "time": 246.30163599999702,
                    "velocity": 0.31496062992125984,
                    "duration": 0.10985800000000268
                },
                {
                    "name": "C4",
                    "midi": 60,
                    "time": 246.30163599999702,
                    "velocity": 0.31496062992125984,
                    "duration": 0.10985800000000268
                },
                {
                    "name": "F#3",
                    "midi": 54,
                    "time": 246.52135199999702,
                    "velocity": 0.3228346456692913,
                    "duration": 0.10985800000000268
                },
                {
                    "name": "D#4",
                    "midi": 63,
                    "time": 246.52135199999702,
                    "velocity": 0.3228346456692913,
                    "duration": 0.10985800000000268
                },
                {
                    "name": "C4",
                    "midi": 60,
                    "time": 246.52135199999702,
                    "velocity": 0.3228346456692913,
                    "duration": 0.10985800000000268
                },
                {
                    "name": "F#3",
                    "midi": 54,
                    "time": 246.74106799999703,
                    "velocity": 0.3228346456692913,
                    "duration": 0.10985800000000268
                },
                {
                    "name": "C4",
                    "midi": 60,
                    "time": 246.74106799999703,
                    "velocity": 0.3228346456692913,
                    "duration": 0.10985800000000268
                },
                {
                    "name": "D#4",
                    "midi": 63,
                    "time": 246.74106799999703,
                    "velocity": 0.3228346456692913,
                    "duration": 0.10985800000000268
                },
                {
                    "name": "F#3",
                    "midi": 54,
                    "time": 246.96078399999703,
                    "velocity": 0.3700787401574803,
                    "duration": 0.10985800000000268
                },
                {
                    "name": "C4",
                    "midi": 60,
                    "time": 246.96078399999703,
                    "velocity": 0.3700787401574803,
                    "duration": 0.10985800000000268
                },
                {
                    "name": "D#4",
                    "midi": 63,
                    "time": 246.96078399999703,
                    "velocity": 0.3700787401574803,
                    "duration": 0.10985800000000268
                },
                {
                    "name": "F#3",
                    "midi": 54,
                    "time": 247.18049999999704,
                    "velocity": 0.33858267716535434,
                    "duration": 0.10985800000000268
                },
                {
                    "name": "C4",
                    "midi": 60,
                    "time": 247.18049999999704,
                    "velocity": 0.33858267716535434,
                    "duration": 0.10985800000000268
                },
                {
                    "name": "D#4",
                    "midi": 63,
                    "time": 247.18049999999704,
                    "velocity": 0.33858267716535434,
                    "duration": 0.10985800000000268
                },
                {
                    "name": "F#3",
                    "midi": 54,
                    "time": 247.40021599999704,
                    "velocity": 0.33858267716535434,
                    "duration": 0.10985800000000268
                },
                {
                    "name": "C4",
                    "midi": 60,
                    "time": 247.40021599999704,
                    "velocity": 0.33858267716535434,
                    "duration": 0.10985800000000268
                },
                {
                    "name": "D#4",
                    "midi": 63,
                    "time": 247.40021599999704,
                    "velocity": 0.33858267716535434,
                    "duration": 0.10985800000000268
                },
                {
                    "name": "F#3",
                    "midi": 54,
                    "time": 247.61993199999705,
                    "velocity": 0.3464566929133858,
                    "duration": 0.10985800000000268
                },
                {
                    "name": "D#4",
                    "midi": 63,
                    "time": 247.61993199999705,
                    "velocity": 0.3464566929133858,
                    "duration": 0.10985800000000268
                },
                {
                    "name": "C4",
                    "midi": 60,
                    "time": 247.61993199999705,
                    "velocity": 0.3464566929133858,
                    "duration": 0.10985800000000268
                },
                {
                    "name": "G3",
                    "midi": 55,
                    "time": 247.83964799999706,
                    "velocity": 0.4251968503937008,
                    "duration": 0.10985800000000268
                },
                {
                    "name": "E4",
                    "midi": 64,
                    "time": 247.94950599999706,
                    "velocity": 0.33070866141732286,
                    "duration": 0.10985800000000268
                },
                {
                    "name": "C4",
                    "midi": 60,
                    "time": 248.05936399999706,
                    "velocity": 0.33070866141732286,
                    "duration": 0.10985800000000268
                },
                {
                    "name": "E4",
                    "midi": 64,
                    "time": 248.16922199999706,
                    "velocity": 0.33070866141732286,
                    "duration": 0.10985800000000268
                },
                {
                    "name": "G3",
                    "midi": 55,
                    "time": 248.27907999999707,
                    "velocity": 0.4409448818897638,
                    "duration": 0.10985800000000268
                },
                {
                    "name": "E4",
                    "midi": 64,
                    "time": 248.38893799999707,
                    "velocity": 0.3464566929133858,
                    "duration": 0.10985800000000268
                },
                {
                    "name": "C4",
                    "midi": 60,
                    "time": 248.49879599999707,
                    "velocity": 0.33070866141732286,
                    "duration": 0.10985800000000268
                },
                {
                    "name": "E4",
                    "midi": 64,
                    "time": 248.60865399999707,
                    "velocity": 0.33070866141732286,
                    "duration": 0.10985800000000268
                },
                {
                    "name": "G3",
                    "midi": 55,
                    "time": 248.71851199999708,
                    "velocity": 0.3779527559055118,
                    "duration": 0.10985800000000268
                },
                {
                    "name": "E4",
                    "midi": 64,
                    "time": 248.82836999999708,
                    "velocity": 0.33070866141732286,
                    "duration": 0.10985800000000268
                },
                {
                    "name": "C4",
                    "midi": 60,
                    "time": 248.93822799999708,
                    "velocity": 0.33070866141732286,
                    "duration": 0.10985800000000268
                },
                {
                    "name": "E4",
                    "midi": 64,
                    "time": 249.04808599999708,
                    "velocity": 0.33070866141732286,
                    "duration": 0.10985800000000268
                },
                {
                    "name": "G3",
                    "midi": 55,
                    "time": 249.1579439999971,
                    "velocity": 0.3858267716535433,
                    "duration": 0.10985800000000268
                },
                {
                    "name": "E4",
                    "midi": 64,
                    "time": 249.2678019999971,
                    "velocity": 0.33070866141732286,
                    "duration": 0.10985800000000268
                },
                {
                    "name": "C4",
                    "midi": 60,
                    "time": 249.3776599999971,
                    "velocity": 0.33070866141732286,
                    "duration": 0.10985800000000268
                },
                {
                    "name": "E4",
                    "midi": 64,
                    "time": 249.4875179999971,
                    "velocity": 0.33070866141732286,
                    "duration": 0.10985800000000268
                },
                {
                    "name": "G3",
                    "midi": 55,
                    "time": 249.5973759999971,
                    "velocity": 0.3937007874015748,
                    "duration": 0.10985800000000268
                },
                {
                    "name": "F4",
                    "midi": 65,
                    "time": 249.7072339999971,
                    "velocity": 0.33070866141732286,
                    "duration": 0.10985800000000268
                },
                {
                    "name": "B3",
                    "midi": 59,
                    "time": 249.8170919999971,
                    "velocity": 0.33070866141732286,
                    "duration": 0.10985800000000268
                },
                {
                    "name": "F4",
                    "midi": 65,
                    "time": 249.9269499999971,
                    "velocity": 0.33070866141732286,
                    "duration": 0.10985800000000268
                },
                {
                    "name": "G3",
                    "midi": 55,
                    "time": 250.0368079999971,
                    "velocity": 0.3858267716535433,
                    "duration": 0.10985800000000268
                },
                {
                    "name": "F4",
                    "midi": 65,
                    "time": 250.1466659999971,
                    "velocity": 0.33070866141732286,
                    "duration": 0.10985800000000268
                },
                {
                    "name": "B3",
                    "midi": 59,
                    "time": 250.2565239999971,
                    "velocity": 0.33070866141732286,
                    "duration": 0.10985800000000268
                },
                {
                    "name": "F4",
                    "midi": 65,
                    "time": 250.36638199999712,
                    "velocity": 0.33070866141732286,
                    "duration": 0.10985800000000268
                },
                {
                    "name": "G3",
                    "midi": 55,
                    "time": 250.47623999999712,
                    "velocity": 0.3779527559055118,
                    "duration": 0.10985800000000268
                },
                {
                    "name": "F4",
                    "midi": 65,
                    "time": 250.58609799999712,
                    "velocity": 0.33070866141732286,
                    "duration": 0.10985800000000268
                },
                {
                    "name": "B3",
                    "midi": 59,
                    "time": 250.69595599999712,
                    "velocity": 0.33070866141732286,
                    "duration": 0.10985800000000268
                },
                {
                    "name": "F4",
                    "midi": 65,
                    "time": 250.80581399999713,
                    "velocity": 0.33070866141732286,
                    "duration": 0.10985800000000268
                },
                {
                    "name": "G3",
                    "midi": 55,
                    "time": 250.91567199999713,
                    "velocity": 0.3858267716535433,
                    "duration": 0.10985800000000268
                },
                {
                    "name": "F4",
                    "midi": 65,
                    "time": 251.02552999999713,
                    "velocity": 0.33070866141732286,
                    "duration": 0.10985800000000268
                },
                {
                    "name": "B3",
                    "midi": 59,
                    "time": 251.13538799999714,
                    "velocity": 0.33070866141732286,
                    "duration": 0.10985800000000268
                },
                {
                    "name": "F4",
                    "midi": 65,
                    "time": 251.24524599999714,
                    "velocity": 0.33070866141732286,
                    "duration": 0.10985800000000268
                },
                {
                    "name": "E4",
                    "midi": 64,
                    "time": 251.35510399999714,
                    "velocity": 0.4566929133858268,
                    "duration": 0.4394320000000107
                },
                {
                    "name": "C4",
                    "midi": 60,
                    "time": 251.35510399999714,
                    "velocity": 0.3858267716535433,
                    "duration": 0.4394320000000107
                },
                {
                    "name": "G3",
                    "midi": 55,
                    "time": 252.67339999999714,
                    "velocity": 0.31496062992125984,
                    "duration": 0.4394320000000107
                },
                {
                    "name": "F4",
                    "midi": 65,
                    "time": 252.67339999999714,
                    "velocity": 0.3779527559055118,
                    "duration": 0.4394320000000107
                },
                {
                    "name": "D4",
                    "midi": 62,
                    "time": 252.67339999999714,
                    "velocity": 0.31496062992125984,
                    "duration": 0.4394320000000107
                },
                {
                    "name": "E4",
                    "midi": 64,
                    "time": 253.11283199999716,
                    "velocity": 0.4566929133858268,
                    "duration": 0.4394320000000107
                },
                {
                    "name": "C4",
                    "midi": 60,
                    "time": 253.11283199999716,
                    "velocity": 0.3858267716535433,
                    "duration": 0.4394320000000107
                },
                {
                    "name": "G2",
                    "midi": 43,
                    "time": 254.43112799999716,
                    "velocity": 0.31496062992125984,
                    "duration": 0.4394320000000107
                },
                {
                    "name": "D3",
                    "midi": 50,
                    "time": 254.43112799999716,
                    "velocity": 0.31496062992125984,
                    "duration": 0.4394320000000107
                },
                {
                    "name": "F3",
                    "midi": 53,
                    "time": 254.43112799999716,
                    "velocity": 0.3779527559055118,
                    "duration": 0.4394320000000107
                },
                {
                    "name": "E3",
                    "midi": 52,
                    "time": 254.87055999999717,
                    "velocity": 0.4094488188976378,
                    "duration": 0.10985800000000268
                },
                {
                    "name": "C3",
                    "midi": 48,
                    "time": 254.87055999999717,
                    "velocity": 0.3464566929133858,
                    "duration": 0.10985800000000268
                },
                {
                    "name": "C4",
                    "midi": 60,
                    "time": 255.30999199999718,
                    "velocity": 0.4645669291338583,
                    "duration": 0.10985800000000268
                },
                {
                    "name": "C3",
                    "midi": 48,
                    "time": 255.7494239999972,
                    "velocity": 0.4566929133858268,
                    "duration": 0.4394320000000107
                },
                {
                    "name": "C2",
                    "midi": 36,
                    "time": 255.7494239999972,
                    "velocity": 0.3464566929133858,
                    "duration": 0.4394320000000107
                }
            ],
            "controlChanges": {},
            "id": 2,
            "name": "Piano left",
            "instrumentNumber": 0,
            "instrument": "acoustic grand piano",
            "instrumentFamily": "piano",
            "channelNumber": 0,
            "isPercussion": false
        },
        {
            "startTime": 0,
            "duration": 0,
            "length": 0,
            "notes": [],
            "controlChanges": {
                "64": [
                    {
                        "number": 64,
                        "time": 0,
                        "value": 1
                    },
                    {
                        "number": 64,
                        "time": 1.7650518666666666,
                        "value": 0
                    },
                    {
                        "number": 64,
                        "time": 1.8611776166666665,
                        "value": 1
                    },
                    {
                        "number": 64,
                        "time": 2.648493283333333,
                        "value": 0
                    },
                    {
                        "number": 64,
                        "time": 2.752858383333333,
                        "value": 1
                    },
                    {
                        "number": 64,
                        "time": 3.5154559999999995,
                        "value": 0
                    },
                    {
                        "number": 64,
                        "time": 3.709538466666666,
                        "value": 1
                    },
                    {
                        "number": 64,
                        "time": 4.403474833333332,
                        "value": 0
                    },
                    {
                        "number": 64,
                        "time": 4.575585699999999,
                        "value": 1
                    },
                    {
                        "number": 64,
                        "time": 5.273183999999999,
                        "value": 0
                    },
                    {
                        "number": 64,
                        "time": 5.325366549999999,
                        "value": 1
                    },
                    {
                        "number": 64,
                        "time": 6.162118316666666,
                        "value": 0
                    },
                    {
                        "number": 64,
                        "time": 6.232610533333332,
                        "value": 1
                    },
                    {
                        "number": 64,
                        "time": 7.045559733333333,
                        "value": 0
                    },
                    {
                        "number": 64,
                        "time": 8.78864,
                        "value": 0
                    },
                    {
                        "number": 64,
                        "time": 10.546368,
                        "value": 0
                    },
                    {
                        "number": 64,
                        "time": 12.304096,
                        "value": 0
                    },
                    {
                        "number": 64,
                        "time": 14.061824,
                        "value": 0
                    },
                    {
                        "number": 64,
                        "time": 15.819552,
                        "value": 0
                    },
                    {
                        "number": 64,
                        "time": 17.57728,
                        "value": 1
                    },
                    {
                        "number": 64,
                        "time": 18.0276978,
                        "value": 0
                    },
                    {
                        "number": 64,
                        "time": 18.107344849999997,
                        "value": 1
                    },
                    {
                        "number": 64,
                        "time": 18.466214316666665,
                        "value": 0
                    },
                    {
                        "number": 64,
                        "time": 18.51931235,
                        "value": 1
                    },
                    {
                        "number": 64,
                        "time": 18.904730833333332,
                        "value": 0
                    },
                    {
                        "number": 64,
                        "time": 19.018250766666664,
                        "value": 1
                    },
                    {
                        "number": 64,
                        "time": 19.339585416666665,
                        "value": 0
                    },
                    {
                        "number": 64,
                        "time": 20.317321616666664,
                        "value": 1
                    },
                    {
                        "number": 64,
                        "time": 20.653304,
                        "value": 0
                    },
                    {
                        "number": 64,
                        "time": 22.90264655,
                        "value": 1
                    },
                    {
                        "number": 64,
                        "time": 23.729328,
                        "value": 0
                    },
                    {
                        "number": 64,
                        "time": 24.640233916666666,
                        "value": 1
                    },
                    {
                        "number": 64,
                        "time": 24.831569933333334,
                        "value": 0
                    },
                    {
                        "number": 64,
                        "time": 24.857203466666668,
                        "value": 1
                    },
                    {
                        "number": 64,
                        "time": 25.050370450000003,
                        "value": 0
                    },
                    {
                        "number": 64,
                        "time": 26.398877400000003,
                        "value": 1
                    },
                    {
                        "number": 64,
                        "time": 27.244784000000003,
                        "value": 0
                    },
                    {
                        "number": 64,
                        "time": 28.15568991666667,
                        "value": 1
                    },
                    {
                        "number": 64,
                        "time": 28.347025933333338,
                        "value": 0
                    },
                    {
                        "number": 64,
                        "time": 28.372659466666672,
                        "value": 1
                    },
                    {
                        "number": 64,
                        "time": 28.56674193333334,
                        "value": 0
                    },
                    {
                        "number": 64,
                        "time": 29.991234000000006,
                        "value": 1
                    },
                    {
                        "number": 64,
                        "time": 30.771225800000007,
                        "value": 0
                    },
                    {
                        "number": 64,
                        "time": 30.903055400000007,
                        "value": 1
                    },
                    {
                        "number": 64,
                        "time": 31.639104000000007,
                        "value": 0
                    },
                    {
                        "number": 64,
                        "time": 31.691286550000008,
                        "value": 1
                    },
                    {
                        "number": 64,
                        "time": 32.52895380000001,
                        "value": 0
                    },
                    {
                        "number": 64,
                        "time": 32.660783400000014,
                        "value": 1
                    },
                    {
                        "number": 64,
                        "time": 33.39683200000001,
                        "value": 0
                    },
                    {
                        "number": 64,
                        "time": 33.44901455000001,
                        "value": 1
                    },
                    {
                        "number": 64,
                        "time": 34.28668180000001,
                        "value": 0
                    },
                    {
                        "number": 64,
                        "time": 34.418511400000014,
                        "value": 1
                    },
                    {
                        "number": 64,
                        "time": 35.15456000000001,
                        "value": 0
                    },
                    {
                        "number": 64,
                        "time": 35.20674255000001,
                        "value": 1
                    },
                    {
                        "number": 64,
                        "time": 36.04440980000001,
                        "value": 0
                    },
                    {
                        "number": 64,
                        "time": 36.176239400000014,
                        "value": 1
                    },
                    {
                        "number": 64,
                        "time": 36.91228800000001,
                        "value": 0
                    },
                    {
                        "number": 64,
                        "time": 40.46070140000001,
                        "value": 1
                    },
                    {
                        "number": 64,
                        "time": 41.80463093333334,
                        "value": 0
                    },
                    {
                        "number": 64,
                        "time": 41.86230638333334,
                        "value": 1
                    },
                    {
                        "number": 64,
                        "time": 42.19188038333334,
                        "value": 0
                    },
                    {
                        "number": 64,
                        "time": 42.22758423333334,
                        "value": 1
                    },
                    {
                        "number": 64,
                        "time": 43.943200000000004,
                        "value": 0
                    },
                    {
                        "number": 64,
                        "time": 44.419251333333335,
                        "value": 1
                    },
                    {
                        "number": 64,
                        "time": 45.275228250000005,
                        "value": 0
                    },
                    {
                        "number": 64,
                        "time": 45.36128368333334,
                        "value": 1
                    },
                    {
                        "number": 64,
                        "time": 45.711913800000005,
                        "value": 0
                    },
                    {
                        "number": 64,
                        "time": 46.165993533333335,
                        "value": 1
                    },
                    {
                        "number": 64,
                        "time": 47.0302098,
                        "value": 0
                    },
                    {
                        "number": 64,
                        "time": 47.11901168333333,
                        "value": 1
                    },
                    {
                        "number": 64,
                        "time": 47.46323341666667,
                        "value": 0
                    },
                    {
                        "number": 64,
                        "time": 48.33752,
                        "value": 1
                    },
                    {
                        "number": 64,
                        "time": 48.70371333333333,
                        "value": 0
                    },
                    {
                        "number": 64,
                        "time": 49.216384,
                        "value": 1
                    },
                    {
                        "number": 64,
                        "time": 50.981435866666665,
                        "value": 0
                    },
                    {
                        "number": 64,
                        "time": 51.077561616666664,
                        "value": 1
                    },
                    {
                        "number": 64,
                        "time": 51.86487728333333,
                        "value": 0
                    },
                    {
                        "number": 64,
                        "time": 51.96924238333333,
                        "value": 1
                    },
                    {
                        "number": 64,
                        "time": 52.73184,
                        "value": 0
                    },
                    {
                        "number": 64,
                        "time": 52.92592246666666,
                        "value": 1
                    },
                    {
                        "number": 64,
                        "time": 53.61985883333333,
                        "value": 0
                    },
                    {
                        "number": 64,
                        "time": 53.791969699999996,
                        "value": 1
                    },
                    {
                        "number": 64,
                        "time": 54.489568,
                        "value": 0
                    },
                    {
                        "number": 64,
                        "time": 54.541750549999996,
                        "value": 1
                    },
                    {
                        "number": 64,
                        "time": 55.37850231666666,
                        "value": 0
                    },
                    {
                        "number": 64,
                        "time": 55.44899453333333,
                        "value": 1
                    },
                    {
                        "number": 64,
                        "time": 56.289408233333326,
                        "value": 0
                    },
                    {
                        "number": 64,
                        "time": 58.00502399999999,
                        "value": 0
                    },
                    {
                        "number": 64,
                        "time": 59.76275199999999,
                        "value": 0
                    },
                    {
                        "number": 64,
                        "time": 61.52047999999999,
                        "value": 0
                    },
                    {
                        "number": 64,
                        "time": 63.27820799999999,
                        "value": 0
                    },
                    {
                        "number": 64,
                        "time": 65.03593599999999,
                        "value": 0
                    },
                    {
                        "number": 64,
                        "time": 66.79366399999999,
                        "value": 1
                    },
                    {
                        "number": 64,
                        "time": 67.24408179999999,
                        "value": 0
                    },
                    {
                        "number": 64,
                        "time": 67.32372885,
                        "value": 1
                    },
                    {
                        "number": 64,
                        "time": 67.68259831666666,
                        "value": 0
                    },
                    {
                        "number": 64,
                        "time": 67.73569634999998,
                        "value": 1
                    },
                    {
                        "number": 64,
                        "time": 68.12111483333332,
                        "value": 0
                    },
                    {
                        "number": 64,
                        "time": 68.23463476666666,
                        "value": 1
                    },
                    {
                        "number": 64,
                        "time": 68.55596941666666,
                        "value": 0
                    },
                    {
                        "number": 64,
                        "time": 69.53370561666665,
                        "value": 1
                    },
                    {
                        "number": 64,
                        "time": 69.85046284999999,
                        "value": 0
                    },
                    {
                        "number": 64,
                        "time": 72.11262216666665,
                        "value": 1
                    },
                    {
                        "number": 64,
                        "time": 72.94571199999999,
                        "value": 0
                    },
                    {
                        "number": 64,
                        "time": 73.85661791666665,
                        "value": 1
                    },
                    {
                        "number": 64,
                        "time": 74.04795393333332,
                        "value": 0
                    },
                    {
                        "number": 64,
                        "time": 74.07358746666665,
                        "value": 1
                    },
                    {
                        "number": 64,
                        "time": 74.26675444999998,
                        "value": 0
                    },
                    {
                        "number": 64,
                        "time": 75.62807816666664,
                        "value": 1
                    },
                    {
                        "number": 64,
                        "time": 76.46116799999997,
                        "value": 0
                    },
                    {
                        "number": 64,
                        "time": 77.37207391666664,
                        "value": 1
                    },
                    {
                        "number": 64,
                        "time": 77.5634099333333,
                        "value": 0
                    },
                    {
                        "number": 64,
                        "time": 77.58904346666664,
                        "value": 1
                    },
                    {
                        "number": 64,
                        "time": 77.78312593333331,
                        "value": 0
                    },
                    {
                        "number": 64,
                        "time": 79.20761799999998,
                        "value": 1
                    },
                    {
                        "number": 64,
                        "time": 79.98760979999999,
                        "value": 0
                    },
                    {
                        "number": 64,
                        "time": 80.11943939999999,
                        "value": 1
                    },
                    {
                        "number": 64,
                        "time": 80.855488,
                        "value": 0
                    },
                    {
                        "number": 64,
                        "time": 80.90767054999999,
                        "value": 1
                    },
                    {
                        "number": 64,
                        "time": 81.74533779999999,
                        "value": 0
                    },
                    {
                        "number": 64,
                        "time": 81.87716739999999,
                        "value": 1
                    },
                    {
                        "number": 64,
                        "time": 82.613216,
                        "value": 0
                    },
                    {
                        "number": 64,
                        "time": 82.66539854999999,
                        "value": 1
                    },
                    {
                        "number": 64,
                        "time": 83.50306579999999,
                        "value": 0
                    },
                    {
                        "number": 64,
                        "time": 83.63489539999999,
                        "value": 1
                    },
                    {
                        "number": 64,
                        "time": 84.370944,
                        "value": 0
                    },
                    {
                        "number": 64,
                        "time": 84.42312654999999,
                        "value": 1
                    },
                    {
                        "number": 64,
                        "time": 85.26079379999999,
                        "value": 0
                    },
                    {
                        "number": 64,
                        "time": 85.39262339999999,
                        "value": 1
                    },
                    {
                        "number": 64,
                        "time": 86.128672,
                        "value": 0
                    },
                    {
                        "number": 64,
                        "time": 89.6770854,
                        "value": 1
                    },
                    {
                        "number": 64,
                        "time": 91.02101493333333,
                        "value": 0
                    },
                    {
                        "number": 64,
                        "time": 91.07869038333334,
                        "value": 1
                    },
                    {
                        "number": 64,
                        "time": 91.40826438333333,
                        "value": 0
                    },
                    {
                        "number": 64,
                        "time": 91.44396823333334,
                        "value": 1
                    },
                    {
                        "number": 64,
                        "time": 93.15958400000001,
                        "value": 0
                    },
                    {
                        "number": 64,
                        "time": 93.63563533333334,
                        "value": 1
                    },
                    {
                        "number": 64,
                        "time": 94.49161225,
                        "value": 0
                    },
                    {
                        "number": 64,
                        "time": 94.57766768333333,
                        "value": 1
                    },
                    {
                        "number": 64,
                        "time": 94.9282978,
                        "value": 0
                    },
                    {
                        "number": 64,
                        "time": 95.38237753333333,
                        "value": 1
                    },
                    {
                        "number": 64,
                        "time": 96.2465938,
                        "value": 0
                    },
                    {
                        "number": 64,
                        "time": 96.33539568333333,
                        "value": 1
                    },
                    {
                        "number": 64,
                        "time": 96.67961741666666,
                        "value": 0
                    },
                    {
                        "number": 64,
                        "time": 97.53010143333333,
                        "value": 1
                    },
                    {
                        "number": 64,
                        "time": 97.92009733333333,
                        "value": 0
                    },
                    {
                        "number": 64,
                        "time": 98.432768,
                        "value": 0
                    },
                    {
                        "number": 64,
                        "time": 98.90881933333333,
                        "value": 1
                    },
                    {
                        "number": 64,
                        "time": 99.76479624999999,
                        "value": 0
                    },
                    {
                        "number": 64,
                        "time": 99.85085168333332,
                        "value": 1
                    },
                    {
                        "number": 64,
                        "time": 100.20148179999998,
                        "value": 0
                    },
                    {
                        "number": 64,
                        "time": 100.65556153333331,
                        "value": 1
                    },
                    {
                        "number": 64,
                        "time": 101.51977779999999,
                        "value": 0
                    },
                    {
                        "number": 64,
                        "time": 101.60857968333332,
                        "value": 1
                    },
                    {
                        "number": 64,
                        "time": 101.95280141666665,
                        "value": 0
                    },
                    {
                        "number": 64,
                        "time": 103.71052941666665,
                        "value": 0
                    },
                    {
                        "number": 64,
                        "time": 105.46367999999998,
                        "value": 0
                    },
                    {
                        "number": 64,
                        "time": 105.93973133333331,
                        "value": 1
                    },
                    {
                        "number": 64,
                        "time": 106.79570824999998,
                        "value": 0
                    },
                    {
                        "number": 64,
                        "time": 106.8817636833333,
                        "value": 1
                    },
                    {
                        "number": 64,
                        "time": 107.23239379999997,
                        "value": 0
                    },
                    {
                        "number": 64,
                        "time": 107.6864735333333,
                        "value": 1
                    },
                    {
                        "number": 64,
                        "time": 108.55068979999997,
                        "value": 0
                    },
                    {
                        "number": 64,
                        "time": 108.6394916833333,
                        "value": 1
                    },
                    {
                        "number": 64,
                        "time": 108.98371341666663,
                        "value": 0
                    },
                    {
                        "number": 64,
                        "time": 110.74144141666663,
                        "value": 0
                    },
                    {
                        "number": 64,
                        "time": 112.49916941666663,
                        "value": 0
                    },
                    {
                        "number": 64,
                        "time": 114.25689741666663,
                        "value": 0
                    },
                    {
                        "number": 64,
                        "time": 116.01462541666663,
                        "value": 0
                    },
                    {
                        "number": 64,
                        "time": 117.77235341666663,
                        "value": 0
                    },
                    {
                        "number": 64,
                        "time": 119.53008141666663,
                        "value": 0
                    },
                    {
                        "number": 64,
                        "time": 121.41231514999997,
                        "value": 1
                    },
                    {
                        "number": 64,
                        "time": 123.04828386666664,
                        "value": 0
                    },
                    {
                        "number": 64,
                        "time": 123.14440961666664,
                        "value": 1
                    },
                    {
                        "number": 64,
                        "time": 123.93172528333331,
                        "value": 0
                    },
                    {
                        "number": 64,
                        "time": 124.0360903833333,
                        "value": 1
                    },
                    {
                        "number": 64,
                        "time": 124.79868799999997,
                        "value": 0
                    },
                    {
                        "number": 64,
                        "time": 124.99277046666664,
                        "value": 1
                    },
                    {
                        "number": 64,
                        "time": 125.6867068333333,
                        "value": 0
                    },
                    {
                        "number": 64,
                        "time": 125.85881769999997,
                        "value": 1
                    },
                    {
                        "number": 64,
                        "time": 126.55641599999997,
                        "value": 0
                    },
                    {
                        "number": 64,
                        "time": 126.60859854999997,
                        "value": 1
                    },
                    {
                        "number": 64,
                        "time": 127.44535031666663,
                        "value": 0
                    },
                    {
                        "number": 64,
                        "time": 127.5158425333333,
                        "value": 1
                    },
                    {
                        "number": 64,
                        "time": 128.3562562333333,
                        "value": 0
                    },
                    {
                        "number": 64,
                        "time": 130.07187199999998,
                        "value": 0
                    },
                    {
                        "number": 64,
                        "time": 131.82959999999997,
                        "value": 0
                    },
                    {
                        "number": 64,
                        "time": 133.58732799999996,
                        "value": 0
                    },
                    {
                        "number": 64,
                        "time": 142.37596799999994,
                        "value": 0
                    },
                    {
                        "number": 64,
                        "time": 144.13369599999993,
                        "value": 0
                    },
                    {
                        "number": 64,
                        "time": 145.89142399999992,
                        "value": 1
                    },
                    {
                        "number": 64,
                        "time": 146.3418417999999,
                        "value": 0
                    },
                    {
                        "number": 64,
                        "time": 146.42148884999992,
                        "value": 1
                    },
                    {
                        "number": 64,
                        "time": 146.7803583166666,
                        "value": 0
                    },
                    {
                        "number": 64,
                        "time": 146.83345634999992,
                        "value": 1
                    },
                    {
                        "number": 64,
                        "time": 147.21887483333325,
                        "value": 0
                    },
                    {
                        "number": 64,
                        "time": 147.33239476666657,
                        "value": 1
                    },
                    {
                        "number": 64,
                        "time": 147.65372941666658,
                        "value": 0
                    },
                    {
                        "number": 64,
                        "time": 148.6314656166666,
                        "value": 1
                    },
                    {
                        "number": 64,
                        "time": 148.9289976999999,
                        "value": 0
                    },
                    {
                        "number": 64,
                        "time": 151.22502989999992,
                        "value": 1
                    },
                    {
                        "number": 64,
                        "time": 152.04347199999992,
                        "value": 0
                    },
                    {
                        "number": 64,
                        "time": 152.9543779166666,
                        "value": 1
                    },
                    {
                        "number": 64,
                        "time": 153.14571393333327,
                        "value": 0
                    },
                    {
                        "number": 64,
                        "time": 153.1713474666666,
                        "value": 1
                    },
                    {
                        "number": 64,
                        "time": 153.36451444999992,
                        "value": 0
                    },
                    {
                        "number": 64,
                        "time": 154.7258381666666,
                        "value": 1
                    },
                    {
                        "number": 64,
                        "time": 155.55892799999992,
                        "value": 0
                    },
                    {
                        "number": 64,
                        "time": 156.4698339166666,
                        "value": 1
                    },
                    {
                        "number": 64,
                        "time": 156.66116993333327,
                        "value": 0
                    },
                    {
                        "number": 64,
                        "time": 156.6868034666666,
                        "value": 1
                    },
                    {
                        "number": 64,
                        "time": 156.88088593333325,
                        "value": 0
                    },
                    {
                        "number": 64,
                        "time": 158.3053779999999,
                        "value": 1
                    },
                    {
                        "number": 64,
                        "time": 159.0853697999999,
                        "value": 0
                    },
                    {
                        "number": 64,
                        "time": 159.2171993999999,
                        "value": 1
                    },
                    {
                        "number": 64,
                        "time": 159.95324799999992,
                        "value": 0
                    },
                    {
                        "number": 64,
                        "time": 160.00543054999991,
                        "value": 1
                    },
                    {
                        "number": 64,
                        "time": 160.84309779999992,
                        "value": 0
                    },
                    {
                        "number": 64,
                        "time": 160.97492739999993,
                        "value": 1
                    },
                    {
                        "number": 64,
                        "time": 161.71097599999993,
                        "value": 0
                    },
                    {
                        "number": 64,
                        "time": 161.76315854999993,
                        "value": 1
                    },
                    {
                        "number": 64,
                        "time": 162.60082579999994,
                        "value": 0
                    },
                    {
                        "number": 64,
                        "time": 162.73265539999994,
                        "value": 1
                    },
                    {
                        "number": 64,
                        "time": 163.46870399999995,
                        "value": 0
                    },
                    {
                        "number": 64,
                        "time": 163.52088654999994,
                        "value": 1
                    },
                    {
                        "number": 64,
                        "time": 164.35855379999995,
                        "value": 0
                    },
                    {
                        "number": 64,
                        "time": 164.49038339999996,
                        "value": 1
                    },
                    {
                        "number": 64,
                        "time": 165.22643199999996,
                        "value": 0
                    },
                    {
                        "number": 64,
                        "time": 166.98415999999995,
                        "value": 0
                    },
                    {
                        "number": 64,
                        "time": 168.81054924999995,
                        "value": 1
                    },
                    {
                        "number": 64,
                        "time": 170.11877493333327,
                        "value": 0
                    },
                    {
                        "number": 64,
                        "time": 170.17645038333328,
                        "value": 1
                    },
                    {
                        "number": 64,
                        "time": 170.50602438333328,
                        "value": 0
                    },
                    {
                        "number": 64,
                        "time": 170.5417282333333,
                        "value": 1
                    },
                    {
                        "number": 64,
                        "time": 172.25734399999996,
                        "value": 0
                    },
                    {
                        "number": 64,
                        "time": 172.7333953333333,
                        "value": 1
                    },
                    {
                        "number": 64,
                        "time": 173.58937224999997,
                        "value": 0
                    },
                    {
                        "number": 64,
                        "time": 173.6754276833333,
                        "value": 1
                    },
                    {
                        "number": 64,
                        "time": 174.0260578,
                        "value": 0
                    },
                    {
                        "number": 64,
                        "time": 174.48013753333333,
                        "value": 1
                    },
                    {
                        "number": 64,
                        "time": 175.3443538,
                        "value": 0
                    },
                    {
                        "number": 64,
                        "time": 175.43315568333333,
                        "value": 1
                    },
                    {
                        "number": 64,
                        "time": 175.77737741666667,
                        "value": 0
                    },
                    {
                        "number": 64,
                        "time": 176.67638205,
                        "value": 1
                    },
                    {
                        "number": 64,
                        "time": 177.01785733333332,
                        "value": 0
                    },
                    {
                        "number": 64,
                        "time": 177.530528,
                        "value": 0
                    },
                    {
                        "number": 64,
                        "time": 178.00657933333335,
                        "value": 1
                    },
                    {
                        "number": 64,
                        "time": 178.86255625,
                        "value": 0
                    },
                    {
                        "number": 64,
                        "time": 178.94861168333335,
                        "value": 1
                    },
                    {
                        "number": 64,
                        "time": 179.29924180000003,
                        "value": 0
                    },
                    {
                        "number": 64,
                        "time": 179.75332153333338,
                        "value": 1
                    },
                    {
                        "number": 64,
                        "time": 180.61753780000004,
                        "value": 0
                    },
                    {
                        "number": 64,
                        "time": 180.70633968333337,
                        "value": 1
                    },
                    {
                        "number": 64,
                        "time": 181.0505614166667,
                        "value": 0
                    },
                    {
                        "number": 64,
                        "time": 182.8082894166667,
                        "value": 0
                    },
                    {
                        "number": 64,
                        "time": 184.56144000000003,
                        "value": 0
                    },
                    {
                        "number": 64,
                        "time": 185.03749133333338,
                        "value": 1
                    },
                    {
                        "number": 64,
                        "time": 185.89346825000004,
                        "value": 0
                    },
                    {
                        "number": 64,
                        "time": 185.97952368333338,
                        "value": 1
                    },
                    {
                        "number": 64,
                        "time": 186.33015380000006,
                        "value": 0
                    },
                    {
                        "number": 64,
                        "time": 186.81627545000006,
                        "value": 1
                    },
                    {
                        "number": 64,
                        "time": 187.64844980000007,
                        "value": 0
                    },
                    {
                        "number": 64,
                        "time": 187.7372516833334,
                        "value": 1
                    },
                    {
                        "number": 64,
                        "time": 188.08147341666674,
                        "value": 0
                    },
                    {
                        "number": 64,
                        "time": 189.83920141666673,
                        "value": 0
                    },
                    {
                        "number": 64,
                        "time": 191.5969294166667,
                        "value": 0
                    },
                    {
                        "number": 64,
                        "time": 193.3546574166667,
                        "value": 0
                    },
                    {
                        "number": 64,
                        "time": 195.11238541666668,
                        "value": 0
                    },
                    {
                        "number": 64,
                        "time": 196.87011341666667,
                        "value": 0
                    },
                    {
                        "number": 64,
                        "time": 198.62784141666666,
                        "value": 0
                    },
                    {
                        "number": 64,
                        "time": 200.51007514999998,
                        "value": 1
                    },
                    {
                        "number": 64,
                        "time": 202.14604386666664,
                        "value": 0
                    },
                    {
                        "number": 64,
                        "time": 202.24216961666664,
                        "value": 1
                    },
                    {
                        "number": 64,
                        "time": 203.02948528333332,
                        "value": 0
                    },
                    {
                        "number": 64,
                        "time": 203.1338503833333,
                        "value": 1
                    },
                    {
                        "number": 64,
                        "time": 203.89644799999996,
                        "value": 0
                    },
                    {
                        "number": 64,
                        "time": 204.09053046666662,
                        "value": 1
                    },
                    {
                        "number": 64,
                        "time": 204.78446683333328,
                        "value": 0
                    },
                    {
                        "number": 64,
                        "time": 204.95657769999994,
                        "value": 1
                    },
                    {
                        "number": 64,
                        "time": 205.65417599999995,
                        "value": 0
                    },
                    {
                        "number": 64,
                        "time": 205.70635854999995,
                        "value": 1
                    },
                    {
                        "number": 64,
                        "time": 206.54311031666663,
                        "value": 0
                    },
                    {
                        "number": 64,
                        "time": 206.6136025333333,
                        "value": 1
                    },
                    {
                        "number": 64,
                        "time": 207.4540162333333,
                        "value": 0
                    },
                    {
                        "number": 64,
                        "time": 209.16963199999998,
                        "value": 0
                    },
                    {
                        "number": 64,
                        "time": 210.92735999999996,
                        "value": 0
                    },
                    {
                        "number": 64,
                        "time": 212.68508799999995,
                        "value": 0
                    },
                    {
                        "number": 64,
                        "time": 221.47372799999994,
                        "value": 0
                    },
                    {
                        "number": 64,
                        "time": 223.23145599999992,
                        "value": 0
                    },
                    {
                        "number": 64,
                        "time": 224.9891839999999,
                        "value": 1
                    },
                    {
                        "number": 64,
                        "time": 225.4396017999999,
                        "value": 0
                    },
                    {
                        "number": 64,
                        "time": 225.5192488499999,
                        "value": 1
                    },
                    {
                        "number": 64,
                        "time": 225.8781183166666,
                        "value": 0
                    },
                    {
                        "number": 64,
                        "time": 225.93121634999991,
                        "value": 1
                    },
                    {
                        "number": 64,
                        "time": 226.31663483333324,
                        "value": 0
                    },
                    {
                        "number": 64,
                        "time": 226.43015476666656,
                        "value": 1
                    },
                    {
                        "number": 64,
                        "time": 226.75148941666657,
                        "value": 0
                    },
                    {
                        "number": 64,
                        "time": 227.72922561666658,
                        "value": 1
                    },
                    {
                        "number": 64,
                        "time": 228.0267576999999,
                        "value": 0
                    },
                    {
                        "number": 64,
                        "time": 230.32095893333323,
                        "value": 1
                    },
                    {
                        "number": 64,
                        "time": 231.1412319999999,
                        "value": 0
                    },
                    {
                        "number": 64,
                        "time": 232.05213791666657,
                        "value": 1
                    },
                    {
                        "number": 64,
                        "time": 232.24347393333323,
                        "value": 0
                    },
                    {
                        "number": 64,
                        "time": 232.26910746666655,
                        "value": 1
                    },
                    {
                        "number": 64,
                        "time": 232.46227444999988,
                        "value": 0
                    },
                    {
                        "number": 64,
                        "time": 233.8364149333332,
                        "value": 1
                    },
                    {
                        "number": 64,
                        "time": 234.65668799999986,
                        "value": 0
                    },
                    {
                        "number": 64,
                        "time": 235.56759391666654,
                        "value": 1
                    },
                    {
                        "number": 64,
                        "time": 235.7589299333332,
                        "value": 0
                    },
                    {
                        "number": 64,
                        "time": 235.78456346666653,
                        "value": 1
                    },
                    {
                        "number": 64,
                        "time": 235.97864593333318,
                        "value": 0
                    },
                    {
                        "number": 64,
                        "time": 237.40313799999984,
                        "value": 1
                    },
                    {
                        "number": 64,
                        "time": 238.18312979999985,
                        "value": 0
                    },
                    {
                        "number": 64,
                        "time": 238.31495939999985,
                        "value": 1
                    },
                    {
                        "number": 64,
                        "time": 239.05100799999985,
                        "value": 0
                    },
                    {
                        "number": 64,
                        "time": 239.10319054999985,
                        "value": 1
                    },
                    {
                        "number": 64,
                        "time": 239.94085779999986,
                        "value": 0
                    },
                    {
                        "number": 64,
                        "time": 240.07268739999986,
                        "value": 1
                    },
                    {
                        "number": 64,
                        "time": 240.80873599999987,
                        "value": 0
                    },
                    {
                        "number": 64,
                        "time": 240.86091854999987,
                        "value": 1
                    },
                    {
                        "number": 64,
                        "time": 241.69858579999988,
                        "value": 0
                    },
                    {
                        "number": 64,
                        "time": 241.83041539999988,
                        "value": 1
                    },
                    {
                        "number": 64,
                        "time": 242.56646399999988,
                        "value": 0
                    },
                    {
                        "number": 64,
                        "time": 242.61864654999988,
                        "value": 1
                    },
                    {
                        "number": 64,
                        "time": 243.4563137999999,
                        "value": 0
                    },
                    {
                        "number": 64,
                        "time": 243.5881433999999,
                        "value": 1
                    },
                    {
                        "number": 64,
                        "time": 244.3241919999999,
                        "value": 0
                    },
                    {
                        "number": 64,
                        "time": 246.08191999999988,
                        "value": 0
                    },
                    {
                        "number": 64,
                        "time": 247.88542216666656,
                        "value": 1
                    },
                    {
                        "number": 64,
                        "time": 249.21653493333324,
                        "value": 0
                    },
                    {
                        "number": 64,
                        "time": 249.27421038333324,
                        "value": 1
                    },
                    {
                        "number": 64,
                        "time": 249.60378438333325,
                        "value": 0
                    },
                    {
                        "number": 64,
                        "time": 249.63948823333325,
                        "value": 1
                    },
                    {
                        "number": 64,
                        "time": 251.35510399999993,
                        "value": 0
                    },
                    {
                        "number": 64,
                        "time": 251.83115533333327,
                        "value": 1
                    },
                    {
                        "number": 64,
                        "time": 252.68713224999993,
                        "value": 0
                    },
                    {
                        "number": 64,
                        "time": 252.77318768333328,
                        "value": 1
                    },
                    {
                        "number": 64,
                        "time": 253.12381779999996,
                        "value": 0
                    },
                    {
                        "number": 64,
                        "time": 253.5778975333333,
                        "value": 1
                    },
                    {
                        "number": 64,
                        "time": 254.44211379999996,
                        "value": 0
                    },
                    {
                        "number": 64,
                        "time": 254.5309156833333,
                        "value": 1
                    },
                    {
                        "number": 64,
                        "time": 254.87513741666663,
                        "value": 0
                    },
                    {
                        "number": 64,
                        "time": 255.7750575333333,
                        "value": 1
                    },
                    {
                        "number": 64,
                        "time": 256.2282217833333,
                        "value": 0
                    }
                ]
            },
            "id": 3,
            "name": "Pedale",
            "instrumentNumber": 0,
            "instrument": "acoustic grand piano",
            "instrumentFamily": "piano",
            "channelNumber": 0,
            "isPercussion": false
        },
        {
            "startTime": 0,
            "duration": 0,
            "length": 0,
            "notes": [],
            "controlChanges": {},
            "id": 4,
            "name": "Mozart: Piano Sonata KV 545  1. Movement"
        },
        {
            "startTime": 0,
            "duration": 0,
            "length": 0,
            "notes": [],
            "controlChanges": {},
            "id": 5,
            "name": "Copyright  2006 by Bernd Krueger"
        },
        {
            "startTime": 0,
            "duration": 0,
            "length": 0,
            "notes": [],
            "controlChanges": {},
            "id": 6,
            "name": "http://www.piano-midi.de/"
        },
        {
            "startTime": 0,
            "duration": 0,
            "length": 0,
            "notes": [],
            "controlChanges": {},
            "id": 7,
            "name": "Edition: 2013-09-23"
        },
        {
            "startTime": 0,
            "duration": 0,
            "length": 0,
            "notes": [],
            "controlChanges": {},
            "id": 8,
            "name": "Spur 8"
        },
        {
            "startTime": 0,
            "duration": 0,
            "length": 0,
            "notes": [],
            "controlChanges": {},
            "id": 9,
            "name": "Spur 9"
        },
        {
            "startTime": 0,
            "duration": 0,
            "length": 0,
            "notes": [],
            "controlChanges": {},
            "id": 10,
            "name": "Spur 10"
        },
        {
            "startTime": 0,
            "duration": 0,
            "length": 0,
            "notes": [],
            "controlChanges": {},
            "id": 11,
            "name": "Spur 11"
        },
        {
            "startTime": 0,
            "duration": 0,
            "length": 0,
            "notes": [],
            "controlChanges": {},
            "id": 12,
            "name": "Spur 12"
        },
        {
            "startTime": 0,
            "duration": 0,
            "length": 0,
            "notes": [],
            "controlChanges": {},
            "id": 13,
            "name": "Spur 13"
        },
        {
            "startTime": 0,
            "duration": 0,
            "length": 0,
            "notes": [],
            "controlChanges": {},
            "id": 14,
            "name": "Spur 14"
        },
        {
            "startTime": 0,
            "duration": 0,
            "length": 0,
            "notes": [],
            "controlChanges": {},
            "id": 15,
            "name": "Spur 15"
        },
        {
            "startTime": 0,
            "duration": 0,
            "length": 0,
            "notes": [],
            "controlChanges": {},
            "id": 16,
            "name": "Spur 16"
        }
    ]
}