{
    "header": {
        "PPQ": 480,
        "timeSignature": [
            3,
            4
        ],
        "bpm": 54.93001458391887,
        "name": "Klaviersonate KV 545 2. Satz"
    },
    "startTime": 0,
    "duration": 345.7126334999986,
    "tracks": [
        {
            "startTime": 0,
            "duration": 0,
            "length": 0,
            "notes": [],
            "controlChanges": {},
            "id": 0,
            "name": "Klaviersonate KV 545 2. Satz"
        },
        {
            "startTime": 0,
            "duration": 345.712633499997,
            "length": 805,
            "notes": [
                {
                    "name": "B4",
                    "midi": 71,
                    "time": 0,
                    "velocity": 0.3937007874015748,
                    "duration": 2.1845980000000003
                },
                {
                    "name": "D5",
                    "midi": 74,
                    "time": 2.1845980000000003,
                    "velocity": 0.3937007874015748,
                    "duration": 0.3276897000000001
                },
                {
                    "name": "C5",
                    "midi": 72,
                    "time": 2.4576727500000004,
                    "velocity": 0.36220472440944884,
                    "duration": 0.3276897000000001
                },
                {
                    "name": "B4",
                    "midi": 71,
                    "time": 2.7307475000000005,
                    "velocity": 0.36220472440944884,
                    "duration": 0.3276897000000001
                },
                {
                    "name": "C5",
                    "midi": 72,
                    "time": 3.0038222500000007,
                    "velocity": 0.3779527559055118,
                    "duration": 0.3276897000000001
                },
                {
                    "name": "D5",
                    "midi": 74,
                    "time": 3.276897000000001,
                    "velocity": 0.4251968503937008,
                    "duration": 0.8192242500000004
                },
                {
                    "name": "B4",
                    "midi": 71,
                    "time": 4.096121250000001,
                    "velocity": 0.3700787401574803,
                    "duration": 0.27307475000000014
                },
                {
                    "name": "G4",
                    "midi": 67,
                    "time": 4.369196000000001,
                    "velocity": 0.3700787401574803,
                    "duration": 1.0922989999999997
                },
                {
                    "name": "G5",
                    "midi": 79,
                    "time": 6.553794000000002,
                    "velocity": 0.5275590551181102,
                    "duration": 1.6384485000000009
                },
                {
                    "name": "A5",
                    "midi": 81,
                    "time": 8.192242500000003,
                    "velocity": 0.4881889763779528,
                    "duration": 0.27307474999999926
                },
                {
                    "name": "G5",
                    "midi": 79,
                    "time": 8.465317250000002,
                    "velocity": 0.4330708661417323,
                    "duration": 0.27307474999999926
                },
                {
                    "name": "F#5",
                    "midi": 78,
                    "time": 8.738392000000001,
                    "velocity": 0.44881889763779526,
                    "duration": 0.32768969999999875
                },
                {
                    "name": "E5",
                    "midi": 76,
                    "time": 9.01146675,
                    "velocity": 0.36220472440944884,
                    "duration": 0.32768969999999875
                },
                {
                    "name": "D5",
                    "midi": 74,
                    "time": 9.2845415,
                    "velocity": 0.4015748031496063,
                    "duration": 0.32768969999999875
                },
                {
                    "name": "C#5",
                    "midi": 73,
                    "time": 9.557616249999999,
                    "velocity": 0.36220472440944884,
                    "duration": 0.32768969999999875
                },
                {
                    "name": "D5",
                    "midi": 74,
                    "time": 9.830690999999998,
                    "velocity": 0.41732283464566927,
                    "duration": 0.8192242499999995
                },
                {
                    "name": "B4",
                    "midi": 71,
                    "time": 10.649915249999998,
                    "velocity": 0.3700787401574803,
                    "duration": 0.27307474999999926
                },
                {
                    "name": "G4",
                    "midi": 67,
                    "time": 10.922989999999997,
                    "velocity": 0.3543307086614173,
                    "duration": 1.0922990000000006
                },
                {
                    "name": "C5",
                    "midi": 72,
                    "time": 13.107587999999998,
                    "velocity": 0.3937007874015748,
                    "duration": 0.8192242499999995
                },
                {
                    "name": "A4",
                    "midi": 69,
                    "time": 13.926812249999998,
                    "velocity": 0.3700787401574803,
                    "duration": 0.27307474999999926
                },
                {
                    "name": "F#4",
                    "midi": 66,
                    "time": 14.199886999999997,
                    "velocity": 0.4094488188976378,
                    "duration": 0.27307474999999926
                },
                {
                    "name": "A4",
                    "midi": 69,
                    "time": 14.746036499999995,
                    "velocity": 0.3700787401574803,
                    "duration": 0.27307474999999926
                },
                {
                    "name": "B4",
                    "midi": 71,
                    "time": 15.292185999999994,
                    "velocity": 0.4015748031496063,
                    "duration": 0.27307474999999926
                },
                {
                    "name": "C5",
                    "midi": 72,
                    "time": 15.838335499999992,
                    "velocity": 0.4094488188976378,
                    "duration": 0.27307474999999926
                },
                {
                    "name": "D5",
                    "midi": 74,
                    "time": 16.38448499999999,
                    "velocity": 0.44881889763779526,
                    "duration": 0.8192242500000013
                },
                {
                    "name": "B4",
                    "midi": 71,
                    "time": 17.203709249999992,
                    "velocity": 0.48031496062992124,
                    "duration": 0.27307474999999926
                },
                {
                    "name": "G5",
                    "midi": 79,
                    "time": 17.47678399999999,
                    "velocity": 0.5118110236220472,
                    "duration": 1.0922990000000006
                },
                {
                    "name": "A5",
                    "midi": 81,
                    "time": 19.661381999999993,
                    "velocity": 0.5354330708661418,
                    "duration": 0.3003822249999999
                },
                {
                    "name": "G5",
                    "midi": 79,
                    "time": 19.934456749999992,
                    "velocity": 0.4645669291338583,
                    "duration": 0.3003822249999999
                },
                {
                    "name": "F#5",
                    "midi": 78,
                    "time": 20.20753149999999,
                    "velocity": 0.5039370078740157,
                    "duration": 0.3003822249999999
                },
                {
                    "name": "G5",
                    "midi": 79,
                    "time": 20.48060624999999,
                    "velocity": 0.4566929133858268,
                    "duration": 0.27307474999999926
                },
                {
                    "name": "F#5",
                    "midi": 78,
                    "time": 20.75368099999999,
                    "velocity": 0.5039370078740157,
                    "duration": 0.3003822249999999
                },
                {
                    "name": "E5",
                    "midi": 76,
                    "time": 21.02675574999999,
                    "velocity": 0.4251968503937008,
                    "duration": 0.3003822249999999
                },
                {
                    "name": "D#5",
                    "midi": 75,
                    "time": 21.299830499999988,
                    "velocity": 0.4645669291338583,
                    "duration": 0.3003822249999999
                },
                {
                    "name": "E5",
                    "midi": 76,
                    "time": 21.572905249999987,
                    "velocity": 0.41732283464566927,
                    "duration": 0.27307474999999926
                },
                {
                    "name": "D5",
                    "midi": 74,
                    "time": 21.845979999999987,
                    "velocity": 0.4881889763779528,
                    "duration": 0.3003822249999999
                },
                {
                    "name": "C5",
                    "midi": 72,
                    "time": 22.119054749999986,
                    "velocity": 0.41732283464566927,
                    "duration": 0.3003822249999999
                },
                {
                    "name": "B4",
                    "midi": 71,
                    "time": 22.392129499999985,
                    "velocity": 0.4409448818897638,
                    "duration": 0.3003822249999999
                },
                {
                    "name": "C5",
                    "midi": 72,
                    "time": 22.665204249999984,
                    "velocity": 0.41732283464566927,
                    "duration": 0.27307474999999926
                },
                {
                    "name": "B4",
                    "midi": 71,
                    "time": 22.938278999999984,
                    "velocity": 0.4645669291338583,
                    "duration": 0.8192242500000013
                },
                {
                    "name": "C5",
                    "midi": 72,
                    "time": 23.757503249999985,
                    "velocity": 0.3937007874015748,
                    "duration": 0.13653737499999963
                },
                {
                    "name": "B4",
                    "midi": 71,
                    "time": 23.894040624999985,
                    "velocity": 0.3937007874015748,
                    "duration": 0.13653737499999963
                },
                {
                    "name": "A4",
                    "midi": 69,
                    "time": 24.030577999999984,
                    "velocity": 0.44881889763779526,
                    "duration": 0.5461494999999985
                },
                {
                    "name": "D5",
                    "midi": 74,
                    "time": 24.576727499999983,
                    "velocity": 0.4251968503937008,
                    "duration": 0.5689057291666657
                },
                {
                    "name": "C#5",
                    "midi": 73,
                    "time": 25.12287699999998,
                    "velocity": 0.4094488188976378,
                    "duration": 0.5689057291666693
                },
                {
                    "name": "C5",
                    "midi": 72,
                    "time": 25.669026499999983,
                    "velocity": 0.3937007874015748,
                    "duration": 0.5461495000000021
                },
                {
                    "name": "B4",
                    "midi": 71,
                    "time": 26.215175999999985,
                    "velocity": 0.3937007874015748,
                    "duration": 1.3653737499999998
                },
                {
                    "name": "G4",
                    "midi": 67,
                    "time": 27.580549749999985,
                    "velocity": 0.36220472440944884,
                    "duration": 0.27307474999999926
                },
                {
                    "name": "B4",
                    "midi": 71,
                    "time": 27.837695139583317,
                    "velocity": 0.3779527559055118,
                    "duration": 0.27307474999999926
                },
                {
                    "name": "D5",
                    "midi": 74,
                    "time": 28.110769889583317,
                    "velocity": 0.36220472440944884,
                    "duration": 0.27307474999999926
                },
                {
                    "name": "C5",
                    "midi": 72,
                    "time": 28.399773999999983,
                    "velocity": 0.4251968503937008,
                    "duration": 0.27307474999999926
                },
                {
                    "name": "A4",
                    "midi": 69,
                    "time": 28.672848749999982,
                    "velocity": 0.36220472440944884,
                    "duration": 0.27307474999999926
                },
                {
                    "name": "C5",
                    "midi": 72,
                    "time": 28.94592349999998,
                    "velocity": 0.4251968503937008,
                    "duration": 0.27307474999999926
                },
                {
                    "name": "E5",
                    "midi": 76,
                    "time": 29.21899824999998,
                    "velocity": 0.4015748031496063,
                    "duration": 0.27307474999999926
                },
                {
                    "name": "D5",
                    "midi": 74,
                    "time": 29.49207299999998,
                    "velocity": 0.4566929133858268,
                    "duration": 0.8192242500000013
                },
                {
                    "name": "B4",
                    "midi": 71,
                    "time": 30.31129724999998,
                    "velocity": 0.3700787401574803,
                    "duration": 0.27307474999999926
                },
                {
                    "name": "G4",
                    "midi": 67,
                    "time": 30.58437199999998,
                    "velocity": 0.3700787401574803,
                    "duration": 0.13653737499999963
                },
                {
                    "name": "G4",
                    "midi": 67,
                    "time": 30.85744674999998,
                    "velocity": 0.36220472440944884,
                    "duration": 0.13653737499999963
                },
                {
                    "name": "A4",
                    "midi": 69,
                    "time": 31.13052149999998,
                    "velocity": 0.3700787401574803,
                    "duration": 0.13653737499999963
                },
                {
                    "name": "B4",
                    "midi": 71,
                    "time": 31.40359624999998,
                    "velocity": 0.3779527559055118,
                    "duration": 0.13653737499999963
                },
                {
                    "name": "C5",
                    "midi": 72,
                    "time": 31.676670999999978,
                    "velocity": 0.3858267716535433,
                    "duration": 0.13653737499999963
                },
                {
                    "name": "D5",
                    "midi": 74,
                    "time": 31.949745749999977,
                    "velocity": 0.3937007874015748,
                    "duration": 0.13653737500000318
                },
                {
                    "name": "E5",
                    "midi": 76,
                    "time": 32.22282049999998,
                    "velocity": 0.4015748031496063,
                    "duration": 0.13653737500000318
                },
                {
                    "name": "F#5",
                    "midi": 78,
                    "time": 32.49589524999999,
                    "velocity": 0.41732283464566927,
                    "duration": 0.13653737500000318
                },
                {
                    "name": "G5",
                    "midi": 79,
                    "time": 32.768969999999996,
                    "velocity": 0.44881889763779526,
                    "duration": 0.32768970000000053
                },
                {
                    "name": "F#5",
                    "midi": 78,
                    "time": 33.042044749999995,
                    "velocity": 0.3937007874015748,
                    "duration": 0.32768970000000053
                },
                {
                    "name": "G5",
                    "midi": 79,
                    "time": 33.315119499999994,
                    "velocity": 0.4409448818897638,
                    "duration": 0.32768970000000053
                },
                {
                    "name": "F#5",
                    "midi": 78,
                    "time": 33.588194249999994,
                    "velocity": 0.4094488188976378,
                    "duration": 0.32768970000000053
                },
                {
                    "name": "A5",
                    "midi": 81,
                    "time": 33.86126899999999,
                    "velocity": 0.4645669291338583,
                    "duration": 0.32768970000000053
                },
                {
                    "name": "G5",
                    "midi": 79,
                    "time": 34.13434374999999,
                    "velocity": 0.44881889763779526,
                    "duration": 0.32768970000000053
                },
                {
                    "name": "F#5",
                    "midi": 78,
                    "time": 34.40741849999999,
                    "velocity": 0.4251968503937008,
                    "duration": 0.32768970000000053
                },
                {
                    "name": "G5",
                    "midi": 79,
                    "time": 34.68049324999999,
                    "velocity": 0.3858267716535433,
                    "duration": 0.32768970000000053
                },
                {
                    "name": "F#5",
                    "midi": 78,
                    "time": 34.95356799999999,
                    "velocity": 0.4094488188976378,
                    "duration": 0.32768970000000053
                },
                {
                    "name": "E5",
                    "midi": 76,
                    "time": 35.22664274999999,
                    "velocity": 0.3937007874015748,
                    "duration": 0.32768970000000053
                },
                {
                    "name": "D5",
                    "midi": 74,
                    "time": 35.49971749999999,
                    "velocity": 0.3779527559055118,
                    "duration": 0.32768970000000053
                },
                {
                    "name": "C#5",
                    "midi": 73,
                    "time": 35.77279224999999,
                    "velocity": 0.36220472440944884,
                    "duration": 0.32768970000000053
                },
                {
                    "name": "D5",
                    "midi": 74,
                    "time": 36.04586699999999,
                    "velocity": 0.3937007874015748,
                    "duration": 0.27307474999999926
                },
                {
                    "name": "B4",
                    "midi": 71,
                    "time": 36.318941749999986,
                    "velocity": 0.33858267716535434,
                    "duration": 0.27307474999999926
                },
                {
                    "name": "D5",
                    "midi": 74,
                    "time": 36.592016499999986,
                    "velocity": 0.3700787401574803,
                    "duration": 0.27307474999999926
                },
                {
                    "name": "B4",
                    "midi": 71,
                    "time": 36.865091249999985,
                    "velocity": 0.33858267716535434,
                    "duration": 0.27307474999999926
                },
                {
                    "name": "G4",
                    "midi": 67,
                    "time": 37.138165999999984,
                    "velocity": 0.3700787401574803,
                    "duration": 1.092298999999997
                },
                {
                    "name": "C5",
                    "midi": 72,
                    "time": 39.32276399999998,
                    "velocity": 0.3937007874015748,
                    "duration": 0.27307474999999926
                },
                {
                    "name": "A4",
                    "midi": 69,
                    "time": 39.59583874999998,
                    "velocity": 0.36220472440944884,
                    "duration": 0.27307474999999926
                },
                {
                    "name": "C5",
                    "midi": 72,
                    "time": 39.86891349999998,
                    "velocity": 0.36220472440944884,
                    "duration": 0.27307474999999926
                },
                {
                    "name": "A4",
                    "midi": 69,
                    "time": 40.141988249999976,
                    "velocity": 0.33858267716535434,
                    "duration": 0.27307474999999926
                },
                {
                    "name": "F#4",
                    "midi": 66,
                    "time": 40.415062999999975,
                    "velocity": 0.3937007874015748,
                    "duration": 0.13653737500000318
                },
                {
                    "name": "A4",
                    "midi": 69,
                    "time": 40.68813774999998,
                    "velocity": 0.36220472440944884,
                    "duration": 0.27307474999999926
                },
                {
                    "name": "G#4",
                    "midi": 68,
                    "time": 40.96121249999998,
                    "velocity": 0.3858267716535433,
                    "duration": 0.27307474999999926
                },
                {
                    "name": "A4",
                    "midi": 69,
                    "time": 41.23428724999998,
                    "velocity": 0.4015748031496063,
                    "duration": 0.27307474999999926
                },
                {
                    "name": "A#4",
                    "midi": 70,
                    "time": 41.50736199999998,
                    "velocity": 0.4251968503937008,
                    "duration": 0.27307474999999926
                },
                {
                    "name": "B4",
                    "midi": 71,
                    "time": 41.78043674999998,
                    "velocity": 0.4015748031496063,
                    "duration": 0.27307474999999926
                },
                {
                    "name": "C5",
                    "midi": 72,
                    "time": 42.05351149999998,
                    "velocity": 0.4251968503937008,
                    "duration": 0.27307474999999926
                },
                {
                    "name": "C#5",
                    "midi": 73,
                    "time": 42.32658624999998,
                    "velocity": 0.4409448818897638,
                    "duration": 0.27307474999999926
                },
                {
                    "name": "D5",
                    "midi": 74,
                    "time": 42.599660999999976,
                    "velocity": 0.4645669291338583,
                    "duration": 0.27307474999999926
                },
                {
                    "name": "B4",
                    "midi": 71,
                    "time": 42.872735749999975,
                    "velocity": 0.4015748031496063,
                    "duration": 0.27307474999999926
                },
                {
                    "name": "D5",
                    "midi": 74,
                    "time": 43.145810499999975,
                    "velocity": 0.4251968503937008,
                    "duration": 0.27307474999999926
                },
                {
                    "name": "B4",
                    "midi": 71,
                    "time": 43.418885249999974,
                    "velocity": 0.4015748031496063,
                    "duration": 0.27307474999999926
                },
                {
                    "name": "G5",
                    "midi": 79,
                    "time": 43.69195999999997,
                    "velocity": 0.49606299212598426,
                    "duration": 1.092298999999997
                },
                {
                    "name": "B5",
                    "midi": 83,
                    "time": 45.05733374999997,
                    "velocity": 0.5275590551181102,
                    "duration": 0.32768970000000053
                },
                {
                    "name": "F#5",
                    "midi": 78,
                    "time": 45.33040849999997,
                    "velocity": 0.4881889763779528,
                    "duration": 0.32768970000000053
                },
                {
                    "name": "G5",
                    "midi": 79,
                    "time": 45.60348324999997,
                    "velocity": 0.4409448818897638,
                    "duration": 0.27307474999999926
                },
                {
                    "name": "D#5",
                    "midi": 75,
                    "time": 45.87655799999997,
                    "velocity": 0.4566929133858268,
                    "duration": 0.32768970000000053
                },
                {
                    "name": "E5",
                    "midi": 76,
                    "time": 46.14963274999997,
                    "velocity": 0.3858267716535433,
                    "duration": 0.32768970000000053
                },
                {
                    "name": "C5",
                    "midi": 72,
                    "time": 46.422707499999966,
                    "velocity": 0.41732283464566927,
                    "duration": 0.32768970000000053
                },
                {
                    "name": "A4",
                    "midi": 69,
                    "time": 46.695782249999965,
                    "velocity": 0.36220472440944884,
                    "duration": 0.27307474999999926
                },
                {
                    "name": "G4",
                    "midi": 67,
                    "time": 46.968856999999964,
                    "velocity": 0.41732283464566927,
                    "duration": 0.8192242499999978
                },
                {
                    "name": "G4",
                    "midi": 67,
                    "time": 47.78808124999996,
                    "velocity": 0.3464566929133858,
                    "duration": 0.27307474999999926
                },
                {
                    "name": "F#4",
                    "midi": 66,
                    "time": 48.06115599999996,
                    "velocity": 0.3700787401574803,
                    "duration": 1.092298999999997
                },
                {
                    "name": "B4",
                    "midi": 71,
                    "time": 48.06115599999996,
                    "velocity": 0.4330708661417323,
                    "duration": 0.32768970000000053
                },
                {
                    "name": "A4",
                    "midi": 69,
                    "time": 48.33423074999996,
                    "velocity": 0.3464566929133858,
                    "duration": 0.32768970000000053
                },
                {
                    "name": "G4",
                    "midi": 67,
                    "time": 48.60730549999996,
                    "velocity": 0.3858267716535433,
                    "duration": 0.32768970000000053
                },
                {
                    "name": "A4",
                    "midi": 69,
                    "time": 48.88038024999996,
                    "velocity": 0.33070866141732286,
                    "duration": 0.25714538958333577
                },
                {
                    "name": "F#4",
                    "midi": 66,
                    "time": 49.15345499999996,
                    "velocity": 0.33070866141732286,
                    "duration": 1.092298999999997
                },
                {
                    "name": "A4",
                    "midi": 69,
                    "time": 49.15345499999996,
                    "velocity": 0.41732283464566927,
                    "duration": 1.092298999999997
                },
                {
                    "name": "G4",
                    "midi": 67,
                    "time": 50.245753999999955,
                    "velocity": 0.3779527559055118,
                    "duration": 1.092298999999997
                },
                {
                    "name": "B4",
                    "midi": 71,
                    "time": 52.43035199999995,
                    "velocity": 0.3937007874015748,
                    "duration": 2.184598000000001
                },
                {
                    "name": "D5",
                    "midi": 74,
                    "time": 54.61494999999995,
                    "velocity": 0.3937007874015748,
                    "duration": 0.32768970000000053
                },
                {
                    "name": "C5",
                    "midi": 72,
                    "time": 54.88802474999995,
                    "velocity": 0.36220472440944884,
                    "duration": 0.32768970000000053
                },
                {
                    "name": "B4",
                    "midi": 71,
                    "time": 55.16109949999995,
                    "velocity": 0.36220472440944884,
                    "duration": 0.32768970000000053
                },
                {
                    "name": "C5",
                    "midi": 72,
                    "time": 55.43417424999995,
                    "velocity": 0.3779527559055118,
                    "duration": 0.32768970000000053
                },
                {
                    "name": "D5",
                    "midi": 74,
                    "time": 55.70724899999995,
                    "velocity": 0.4251968503937008,
                    "duration": 0.8192242500000049
                },
                {
                    "name": "B4",
                    "midi": 71,
                    "time": 56.52647324999995,
                    "velocity": 0.3700787401574803,
                    "duration": 0.27307474999999926
                },
                {
                    "name": "G4",
                    "midi": 67,
                    "time": 56.79954799999995,
                    "velocity": 0.3700787401574803,
                    "duration": 1.092298999999997
                },
                {
                    "name": "G5",
                    "midi": 79,
                    "time": 58.984145999999946,
                    "velocity": 0.5275590551181102,
                    "duration": 1.6384485000000026
                },
                {
                    "name": "A5",
                    "midi": 81,
                    "time": 60.62259449999995,
                    "velocity": 0.4881889763779528,
                    "duration": 0.27307474999999926
                },
                {
                    "name": "G5",
                    "midi": 79,
                    "time": 60.89566924999995,
                    "velocity": 0.4330708661417323,
                    "duration": 0.27307474999999926
                },
                {
                    "name": "F#5",
                    "midi": 78,
                    "time": 61.16874399999995,
                    "velocity": 0.44881889763779526,
                    "duration": 0.32768970000000053
                },
                {
                    "name": "E5",
                    "midi": 76,
                    "time": 61.441818749999946,
                    "velocity": 0.36220472440944884,
                    "duration": 0.32768970000000053
                },
                {
                    "name": "D5",
                    "midi": 74,
                    "time": 61.714893499999945,
                    "velocity": 0.4015748031496063,
                    "duration": 0.32768970000000053
                },
                {
                    "name": "C#5",
                    "midi": 73,
                    "time": 61.987968249999945,
                    "velocity": 0.36220472440944884,
                    "duration": 0.32768970000000053
                },
                {
                    "name": "D5",
                    "midi": 74,
                    "time": 62.261042999999944,
                    "velocity": 0.41732283464566927,
                    "duration": 0.8192242500000049
                },
                {
                    "name": "B4",
                    "midi": 71,
                    "time": 63.08026724999995,
                    "velocity": 0.3700787401574803,
                    "duration": 0.27307474999999926
                },
                {
                    "name": "G4",
                    "midi": 67,
                    "time": 63.35334199999995,
                    "velocity": 0.3543307086614173,
                    "duration": 1.0922990000000041
                },
                {
                    "name": "C5",
                    "midi": 72,
                    "time": 65.53793999999995,
                    "velocity": 0.3937007874015748,
                    "duration": 0.8192242500000049
                },
                {
                    "name": "A4",
                    "midi": 69,
                    "time": 66.35716424999995,
                    "velocity": 0.3700787401574803,
                    "duration": 0.27307475000000636
                },
                {
                    "name": "F#4",
                    "midi": 66,
                    "time": 66.63023899999996,
                    "velocity": 0.4094488188976378,
                    "duration": 0.27307475000000636
                },
                {
                    "name": "A4",
                    "midi": 69,
                    "time": 67.17638849999997,
                    "velocity": 0.3700787401574803,
                    "duration": 0.27307475000000636
                },
                {
                    "name": "B4",
                    "midi": 71,
                    "time": 67.72253799999999,
                    "velocity": 0.4015748031496063,
                    "duration": 0.27307475000000636
                },
                {
                    "name": "C5",
                    "midi": 72,
                    "time": 68.2686875,
                    "velocity": 0.4094488188976378,
                    "duration": 0.27307475000000636
                },
                {
                    "name": "D5",
                    "midi": 74,
                    "time": 68.81483700000001,
                    "velocity": 0.44881889763779526,
                    "duration": 0.8192242500000049
                },
                {
                    "name": "B4",
                    "midi": 71,
                    "time": 69.63406125000002,
                    "velocity": 0.48031496062992124,
                    "duration": 0.27307475000000636
                },
                {
                    "name": "G5",
                    "midi": 79,
                    "time": 69.90713600000002,
                    "velocity": 0.5118110236220472,
                    "duration": 1.092298999999997
                },
                {
                    "name": "A5",
                    "midi": 81,
                    "time": 72.09173400000002,
                    "velocity": 0.5354330708661418,
                    "duration": 0.300382225000007
                },
                {
                    "name": "G5",
                    "midi": 79,
                    "time": 72.36480875000002,
                    "velocity": 0.4645669291338583,
                    "duration": 0.300382225000007
                },
                {
                    "name": "F#5",
                    "midi": 78,
                    "time": 72.63788350000003,
                    "velocity": 0.5039370078740157,
                    "duration": 0.300382225000007
                },
                {
                    "name": "G5",
                    "midi": 79,
                    "time": 72.91095825000004,
                    "velocity": 0.4566929133858268,
                    "duration": 0.27307475000000636
                },
                {
                    "name": "F#5",
                    "midi": 78,
                    "time": 73.18403300000004,
                    "velocity": 0.5039370078740157,
                    "duration": 0.300382225000007
                },
                {
                    "name": "E5",
                    "midi": 76,
                    "time": 73.45710775000005,
                    "velocity": 0.4251968503937008,
                    "duration": 0.300382225000007
                },
                {
                    "name": "D#5",
                    "midi": 75,
                    "time": 73.73018250000005,
                    "velocity": 0.4645669291338583,
                    "duration": 0.300382225000007
                },
                {
                    "name": "E5",
                    "midi": 76,
                    "time": 74.00325725000006,
                    "velocity": 0.41732283464566927,
                    "duration": 0.27307475000000636
                },
                {
                    "name": "D5",
                    "midi": 74,
                    "time": 74.27633200000007,
                    "velocity": 0.4881889763779528,
                    "duration": 0.300382225000007
                },
                {
                    "name": "C5",
                    "midi": 72,
                    "time": 74.54940675000007,
                    "velocity": 0.41732283464566927,
                    "duration": 0.300382225000007
                },
                {
                    "name": "B4",
                    "midi": 71,
                    "time": 74.82248150000008,
                    "velocity": 0.4409448818897638,
                    "duration": 0.300382225000007
                },
                {
                    "name": "C5",
                    "midi": 72,
                    "time": 75.09555625000009,
                    "velocity": 0.41732283464566927,
                    "duration": 0.27307475000000636
                },
                {
                    "name": "B4",
                    "midi": 71,
                    "time": 75.3686310000001,
                    "velocity": 0.4645669291338583,
                    "duration": 0.8192242500000049
                },
                {
                    "name": "C5",
                    "midi": 72,
                    "time": 76.1878552500001,
                    "velocity": 0.3937007874015748,
                    "duration": 0.13653737500000318
                },
                {
                    "name": "B4",
                    "midi": 71,
                    "time": 76.3243926250001,
                    "velocity": 0.3937007874015748,
                    "duration": 0.13653737500000318
                },
                {
                    "name": "A4",
                    "midi": 69,
                    "time": 76.4609300000001,
                    "velocity": 0.44881889763779526,
                    "duration": 0.5461494999999985
                },
                {
                    "name": "D5",
                    "midi": 74,
                    "time": 77.0070795000001,
                    "velocity": 0.4251968503937008,
                    "duration": 0.5689057291666586
                },
                {
                    "name": "C#5",
                    "midi": 73,
                    "time": 77.5532290000001,
                    "velocity": 0.4094488188976378,
                    "duration": 0.5689057291666586
                },
                {
                    "name": "C5",
                    "midi": 72,
                    "time": 78.0993785000001,
                    "velocity": 0.3937007874015748,
                    "duration": 0.5461494999999985
                },
                {
                    "name": "B4",
                    "midi": 71,
                    "time": 78.6455280000001,
                    "velocity": 0.3937007874015748,
                    "duration": 1.3653737500000034
                },
                {
                    "name": "G4",
                    "midi": 67,
                    "time": 80.0109017500001,
                    "velocity": 0.36220472440944884,
                    "duration": 0.27307474999999215
                },
                {
                    "name": "B4",
                    "midi": 71,
                    "time": 80.26804713958343,
                    "velocity": 0.3779527559055118,
                    "duration": 0.27307474999999215
                },
                {
                    "name": "D5",
                    "midi": 74,
                    "time": 80.54112188958342,
                    "velocity": 0.36220472440944884,
                    "duration": 0.27307475000000636
                },
                {
                    "name": "C5",
                    "midi": 72,
                    "time": 80.83012600000009,
                    "velocity": 0.4251968503937008,
                    "duration": 0.27307475000000636
                },
                {
                    "name": "A4",
                    "midi": 69,
                    "time": 81.1032007500001,
                    "velocity": 0.36220472440944884,
                    "duration": 0.27307475000000636
                },
                {
                    "name": "C5",
                    "midi": 72,
                    "time": 81.3762755000001,
                    "velocity": 0.4251968503937008,
                    "duration": 0.27307475000000636
                },
                {
                    "name": "E5",
                    "midi": 76,
                    "time": 81.64935025000011,
                    "velocity": 0.4015748031496063,
                    "duration": 0.27307475000000636
                },
                {
                    "name": "D5",
                    "midi": 74,
                    "time": 81.92242500000012,
                    "velocity": 0.4566929133858268,
                    "duration": 0.8192242500000049
                },
                {
                    "name": "B4",
                    "midi": 71,
                    "time": 82.74164925000012,
                    "velocity": 0.3700787401574803,
                    "duration": 0.27307475000000636
                },
                {
                    "name": "G4",
                    "midi": 67,
                    "time": 83.01472400000013,
                    "velocity": 0.3700787401574803,
                    "duration": 0.13653737500000318
                },
                {
                    "name": "G4",
                    "midi": 67,
                    "time": 83.28779875000014,
                    "velocity": 0.36220472440944884,
                    "duration": 0.13653737500000318
                },
                {
                    "name": "A4",
                    "midi": 69,
                    "time": 83.56087350000014,
                    "velocity": 0.3700787401574803,
                    "duration": 0.13653737500000318
                },
                {
                    "name": "B4",
                    "midi": 71,
                    "time": 83.83394825000015,
                    "velocity": 0.3779527559055118,
                    "duration": 0.13653737500000318
                },
                {
                    "name": "C5",
                    "midi": 72,
                    "time": 84.10702300000015,
                    "velocity": 0.3858267716535433,
                    "duration": 0.13653737500000318
                },
                {
                    "name": "D5",
                    "midi": 74,
                    "time": 84.38009775000016,
                    "velocity": 0.3937007874015748,
                    "duration": 0.13653737500000318
                },
                {
                    "name": "E5",
                    "midi": 76,
                    "time": 84.65317250000017,
                    "velocity": 0.4015748031496063,
                    "duration": 0.13653737500000318
                },
                {
                    "name": "F#5",
                    "midi": 78,
                    "time": 84.92624725000017,
                    "velocity": 0.41732283464566927,
                    "duration": 0.13653737500000318
                },
                {
                    "name": "G5",
                    "midi": 79,
                    "time": 85.19932200000018,
                    "velocity": 0.44881889763779526,
                    "duration": 0.32768970000000763
                },
                {
                    "name": "F#5",
                    "midi": 78,
                    "time": 85.47239675000019,
                    "velocity": 0.3937007874015748,
                    "duration": 0.32768970000000763
                },
                {
                    "name": "G5",
                    "midi": 79,
                    "time": 85.74547150000019,
                    "velocity": 0.4409448818897638,
                    "duration": 0.32768970000000763
                },
                {
                    "name": "F#5",
                    "midi": 78,
                    "time": 86.0185462500002,
                    "velocity": 0.4094488188976378,
                    "duration": 0.32768970000000763
                },
                {
                    "name": "A5",
                    "midi": 81,
                    "time": 86.2916210000002,
                    "velocity": 0.4645669291338583,
                    "duration": 0.32768970000000763
                },
                {
                    "name": "G5",
                    "midi": 79,
                    "time": 86.56469575000021,
                    "velocity": 0.44881889763779526,
                    "duration": 0.32768970000000763
                },
                {
                    "name": "F#5",
                    "midi": 78,
                    "time": 86.83777050000022,
                    "velocity": 0.4251968503937008,
                    "duration": 0.32768970000000763
                },
                {
                    "name": "G5",
                    "midi": 79,
                    "time": 87.11084525000022,
                    "velocity": 0.3858267716535433,
                    "duration": 0.32768970000000763
                },
                {
                    "name": "F#5",
                    "midi": 78,
                    "time": 87.38392000000023,
                    "velocity": 0.4094488188976378,
                    "duration": 0.32768970000000763
                },
                {
                    "name": "E5",
                    "midi": 76,
                    "time": 87.65699475000024,
                    "velocity": 0.3937007874015748,
                    "duration": 0.32768970000000763
                },
                {
                    "name": "D5",
                    "midi": 74,
                    "time": 87.93006950000024,
                    "velocity": 0.3779527559055118,
                    "duration": 0.32768970000000763
                },
                {
                    "name": "C#5",
                    "midi": 73,
                    "time": 88.20314425000025,
                    "velocity": 0.36220472440944884,
                    "duration": 0.32768970000000763
                },
                {
                    "name": "D5",
                    "midi": 74,
                    "time": 88.47621900000026,
                    "velocity": 0.3937007874015748,
                    "duration": 0.27307475000000636
                },
                {
                    "name": "B4",
                    "midi": 71,
                    "time": 88.74929375000026,
                    "velocity": 0.33858267716535434,
                    "duration": 0.27307475000000636
                },
                {
                    "name": "D5",
                    "midi": 74,
                    "time": 89.02236850000027,
                    "velocity": 0.3700787401574803,
                    "duration": 0.27307475000000636
                },
                {
                    "name": "B4",
                    "midi": 71,
                    "time": 89.29544325000028,
                    "velocity": 0.33858267716535434,
                    "duration": 0.27307475000000636
                },
                {
                    "name": "G4",
                    "midi": 67,
                    "time": 89.56851800000028,
                    "velocity": 0.3700787401574803,
                    "duration": 1.092298999999997
                },
                {
                    "name": "C5",
                    "midi": 72,
                    "time": 91.75311600000028,
                    "velocity": 0.3937007874015748,
                    "duration": 0.27307475000000636
                },
                {
                    "name": "A4",
                    "midi": 69,
                    "time": 92.02619075000028,
                    "velocity": 0.36220472440944884,
                    "duration": 0.27307475000000636
                },
                {
                    "name": "C5",
                    "midi": 72,
                    "time": 92.29926550000029,
                    "velocity": 0.36220472440944884,
                    "duration": 0.27307475000000636
                },
                {
                    "name": "A4",
                    "midi": 69,
                    "time": 92.5723402500003,
                    "velocity": 0.33858267716535434,
                    "duration": 0.27307475000000636
                },
                {
                    "name": "F#4",
                    "midi": 66,
                    "time": 92.8454150000003,
                    "velocity": 0.3937007874015748,
                    "duration": 0.13653737500000318
                },
                {
                    "name": "A4",
                    "midi": 69,
                    "time": 93.11848975000031,
                    "velocity": 0.36220472440944884,
                    "duration": 0.27307475000000636
                },
                {
                    "name": "G#4",
                    "midi": 68,
                    "time": 93.39156450000031,
                    "velocity": 0.3858267716535433,
                    "duration": 0.27307475000000636
                },
                {
                    "name": "A4",
                    "midi": 69,
                    "time": 93.66463925000032,
                    "velocity": 0.4015748031496063,
                    "duration": 0.27307475000000636
                },
                {
                    "name": "A#4",
                    "midi": 70,
                    "time": 93.93771400000033,
                    "velocity": 0.4251968503937008,
                    "duration": 0.27307475000000636
                },
                {
                    "name": "B4",
                    "midi": 71,
                    "time": 94.21078875000033,
                    "velocity": 0.4015748031496063,
                    "duration": 0.27307475000000636
                },
                {
                    "name": "C5",
                    "midi": 72,
                    "time": 94.48386350000034,
                    "velocity": 0.4251968503937008,
                    "duration": 0.27307475000000636
                },
                {
                    "name": "C#5",
                    "midi": 73,
                    "time": 94.75693825000035,
                    "velocity": 0.4409448818897638,
                    "duration": 0.27307475000000636
                },
                {
                    "name": "D5",
                    "midi": 74,
                    "time": 95.03001300000035,
                    "velocity": 0.4645669291338583,
                    "duration": 0.27307475000000636
                },
                {
                    "name": "B4",
                    "midi": 71,
                    "time": 95.30308775000036,
                    "velocity": 0.4015748031496063,
                    "duration": 0.27307475000000636
                },
                {
                    "name": "D5",
                    "midi": 74,
                    "time": 95.57616250000036,
                    "velocity": 0.4251968503937008,
                    "duration": 0.27307475000000636
                },
                {
                    "name": "B4",
                    "midi": 71,
                    "time": 95.84923725000037,
                    "velocity": 0.4015748031496063,
                    "duration": 0.27307475000000636
                },
                {
                    "name": "G5",
                    "midi": 79,
                    "time": 96.12231200000038,
                    "velocity": 0.49606299212598426,
                    "duration": 1.092298999999997
                },
                {
                    "name": "B5",
                    "midi": 83,
                    "time": 97.48768575000038,
                    "velocity": 0.5275590551181102,
                    "duration": 0.32768970000000763
                },
                {
                    "name": "F#5",
                    "midi": 78,
                    "time": 97.76076050000039,
                    "velocity": 0.4881889763779528,
                    "duration": 0.32768970000000763
                },
                {
                    "name": "G5",
                    "midi": 79,
                    "time": 98.0338352500004,
                    "velocity": 0.4409448818897638,
                    "duration": 0.27307475000000636
                },
                {
                    "name": "D#5",
                    "midi": 75,
                    "time": 98.3069100000004,
                    "velocity": 0.4566929133858268,
                    "duration": 0.32768970000000763
                },
                {
                    "name": "E5",
                    "midi": 76,
                    "time": 98.5799847500004,
                    "velocity": 0.3858267716535433,
                    "duration": 0.32768970000000763
                },
                {
                    "name": "C5",
                    "midi": 72,
                    "time": 98.85305950000041,
                    "velocity": 0.41732283464566927,
                    "duration": 0.32768970000000763
                },
                {
                    "name": "A4",
                    "midi": 69,
                    "time": 99.12613425000042,
                    "velocity": 0.36220472440944884,
                    "duration": 0.27307475000000636
                },
                {
                    "name": "G4",
                    "midi": 67,
                    "time": 99.39920900000043,
                    "velocity": 0.41732283464566927,
                    "duration": 0.8192242500000049
                },
                {
                    "name": "G4",
                    "midi": 67,
                    "time": 100.21843325000043,
                    "velocity": 0.3464566929133858,
                    "duration": 0.27307475000000636
                },
                {
                    "name": "F#4",
                    "midi": 66,
                    "time": 100.49150800000044,
                    "velocity": 0.3700787401574803,
                    "duration": 1.0922990000000112
                },
                {
                    "name": "B4",
                    "midi": 71,
                    "time": 100.49150800000044,
                    "velocity": 0.4330708661417323,
                    "duration": 0.32768970000000763
                },
                {
                    "name": "A4",
                    "midi": 69,
                    "time": 100.76458275000044,
                    "velocity": 0.3464566929133858,
                    "duration": 0.32768970000000763
                },
                {
                    "name": "G4",
                    "midi": 67,
                    "time": 101.03765750000045,
                    "velocity": 0.3858267716535433,
                    "duration": 0.32768970000000763
                },
                {
                    "name": "A4",
                    "midi": 69,
                    "time": 101.31073225000046,
                    "velocity": 0.33070866141732286,
                    "duration": 0.25714538958332867
                },
                {
                    "name": "A4",
                    "midi": 69,
                    "time": 101.58380700000045,
                    "velocity": 0.41732283464566927,
                    "duration": 1.092298999999997
                },
                {
                    "name": "F#4",
                    "midi": 66,
                    "time": 101.58380700000045,
                    "velocity": 0.33070866141732286,
                    "duration": 1.092298999999997
                },
                {
                    "name": "G4",
                    "midi": 67,
                    "time": 102.67610600000044,
                    "velocity": 0.3779527559055118,
                    "duration": 1.092298999999997
                },
                {
                    "name": "D5",
                    "midi": 74,
                    "time": 104.86070400000044,
                    "velocity": 0.3937007874015748,
                    "duration": 1.3653737500000034
                },
                {
                    "name": "C#5",
                    "midi": 73,
                    "time": 106.22607775000044,
                    "velocity": 0.36220472440944884,
                    "duration": 0.32768970000000763
                },
                {
                    "name": "E5",
                    "midi": 76,
                    "time": 106.49915250000045,
                    "velocity": 0.3858267716535433,
                    "duration": 0.32768970000000763
                },
                {
                    "name": "D5",
                    "midi": 74,
                    "time": 106.77222725000046,
                    "velocity": 0.36220472440944884,
                    "duration": 0.32768970000000763
                },
                {
                    "name": "G5",
                    "midi": 79,
                    "time": 107.04530200000046,
                    "velocity": 0.4094488188976378,
                    "duration": 0.32768970000000763
                },
                {
                    "name": "F#5",
                    "midi": 78,
                    "time": 107.31837675000047,
                    "velocity": 0.36220472440944884,
                    "duration": 0.32768970000000763
                },
                {
                    "name": "E5",
                    "midi": 76,
                    "time": 107.59145150000047,
                    "velocity": 0.3858267716535433,
                    "duration": 0.32768970000000763
                },
                {
                    "name": "D5",
                    "midi": 74,
                    "time": 107.86452625000048,
                    "velocity": 0.36220472440944884,
                    "duration": 0.32768970000000763
                },
                {
                    "name": "C#5",
                    "midi": 73,
                    "time": 108.13760100000049,
                    "velocity": 0.3937007874015748,
                    "duration": 0.8192242500000049
                },
                {
                    "name": "D5",
                    "midi": 74,
                    "time": 108.95682525000049,
                    "velocity": 0.3858267716535433,
                    "duration": 0.27307475000000636
                },
                {
                    "name": "E5",
                    "midi": 76,
                    "time": 109.2299000000005,
                    "velocity": 0.41732283464566927,
                    "duration": 1.092298999999997
                },
                {
                    "name": "E5",
                    "midi": 76,
                    "time": 111.41449800000049,
                    "velocity": 0.4251968503937008,
                    "duration": 1.3653737500000034
                },
                {
                    "name": "D#5",
                    "midi": 75,
                    "time": 112.7798717500005,
                    "velocity": 0.36220472440944884,
                    "duration": 0.32768970000000763
                },
                {
                    "name": "F#5",
                    "midi": 78,
                    "time": 113.0529465000005,
                    "velocity": 0.3937007874015748,
                    "duration": 0.32768970000000763
                },
                {
                    "name": "E5",
                    "midi": 76,
                    "time": 113.32602125000051,
                    "velocity": 0.36220472440944884,
                    "duration": 0.32768970000000763
                },
                {
                    "name": "A5",
                    "midi": 81,
                    "time": 113.59909600000051,
                    "velocity": 0.4251968503937008,
                    "duration": 0.32768970000000763
                },
                {
                    "name": "G5",
                    "midi": 79,
                    "time": 113.87217075000052,
                    "velocity": 0.36220472440944884,
                    "duration": 0.32768970000000763
                },
                {
                    "name": "F#5",
                    "midi": 78,
                    "time": 114.14524550000053,
                    "velocity": 0.3858267716535433,
                    "duration": 0.32768970000000763
                },
                {
                    "name": "E5",
                    "midi": 76,
                    "time": 114.41832025000053,
                    "velocity": 0.3858267716535433,
                    "duration": 0.32768970000000763
                },
                {
                    "name": "D5",
                    "midi": 74,
                    "time": 114.69139500000054,
                    "velocity": 0.4251968503937008,
                    "duration": 0.8192242500000049
                },
                {
                    "name": "E5",
                    "midi": 76,
                    "time": 115.51061925000054,
                    "velocity": 0.4094488188976378,
                    "duration": 0.27307475000000636
                },
                {
                    "name": "F#5",
                    "midi": 78,
                    "time": 115.78369400000055,
                    "velocity": 0.44881889763779526,
                    "duration": 1.092298999999997
                },
                {
                    "name": "F#5",
                    "midi": 78,
                    "time": 117.96829200000055,
                    "velocity": 0.5511811023622047,
                    "duration": 1.3653737500000034
                },
                {
                    "name": "E5",
                    "midi": 76,
                    "time": 119.33366575000055,
                    "velocity": 0.44881889763779526,
                    "duration": 0.32768970000000763
                },
                {
                    "name": "G5",
                    "midi": 79,
                    "time": 119.60674050000056,
                    "velocity": 0.48031496062992124,
                    "duration": 0.32768970000000763
                },
                {
                    "name": "F#5",
                    "midi": 78,
                    "time": 119.87981525000056,
                    "velocity": 0.4330708661417323,
                    "duration": 0.32768970000000763
                },
                {
                    "name": "B5",
                    "midi": 83,
                    "time": 120.15289000000057,
                    "velocity": 0.5118110236220472,
                    "duration": 0.32768970000000763
                },
                {
                    "name": "A5",
                    "midi": 81,
                    "time": 120.42596475000057,
                    "velocity": 0.41732283464566927,
                    "duration": 0.32768970000000763
                },
                {
                    "name": "G5",
                    "midi": 79,
                    "time": 120.69903950000058,
                    "velocity": 0.4645669291338583,
                    "duration": 0.32768970000000763
                },
                {
                    "name": "F#5",
                    "midi": 78,
                    "time": 120.97211425000059,
                    "velocity": 0.41732283464566927,
                    "duration": 0.32768970000000763
                },
                {
                    "name": "E5",
                    "midi": 76,
                    "time": 121.2451890000006,
                    "velocity": 0.5039370078740157,
                    "duration": 1.3653737500000034
                },
                {
                    "name": "D#5",
                    "midi": 75,
                    "time": 122.6105627500006,
                    "velocity": 0.4330708661417323,
                    "duration": 0.32768970000000763
                },
                {
                    "name": "F#5",
                    "midi": 78,
                    "time": 122.8836375000006,
                    "velocity": 0.47244094488188976,
                    "duration": 0.32768970000000763
                },
                {
                    "name": "E5",
                    "midi": 76,
                    "time": 123.15671225000061,
                    "velocity": 0.4094488188976378,
                    "duration": 0.32768970000000763
                },
                {
                    "name": "A5",
                    "midi": 81,
                    "time": 123.42978700000062,
                    "velocity": 0.4881889763779528,
                    "duration": 0.32768970000000763
                },
                {
                    "name": "G5",
                    "midi": 79,
                    "time": 123.70286175000062,
                    "velocity": 0.4015748031496063,
                    "duration": 0.32768970000000763
                },
                {
                    "name": "F#5",
                    "midi": 78,
                    "time": 123.97593650000063,
                    "velocity": 0.4645669291338583,
                    "duration": 0.32768970000000763
                },
                {
                    "name": "E5",
                    "midi": 76,
                    "time": 124.24901125000063,
                    "velocity": 0.41732283464566927,
                    "duration": 0.2616966354166692
                },
                {
                    "name": "E5",
                    "midi": 76,
                    "time": 124.52208600000064,
                    "velocity": 0.49606299212598426,
                    "duration": 0.27307475000000636
                },
                {
                    "name": "D5",
                    "midi": 74,
                    "time": 124.79516075000065,
                    "velocity": 0.3858267716535433,
                    "duration": 0.27307475000000636
                },
                {
                    "name": "D5",
                    "midi": 74,
                    "time": 125.06823550000065,
                    "velocity": 0.4330708661417323,
                    "duration": 0.8192242500000049
                },
                {
                    "name": "A4",
                    "midi": 69,
                    "time": 125.88745975000066,
                    "velocity": 0.3464566929133858,
                    "duration": 0.27307475000000636
                },
                {
                    "name": "D5",
                    "midi": 74,
                    "time": 126.16053450000067,
                    "velocity": 0.36220472440944884,
                    "duration": 0.27307475000000636
                },
                {
                    "name": "F#5",
                    "midi": 78,
                    "time": 126.43360925000067,
                    "velocity": 0.33858267716535434,
                    "duration": 0.27307475000000636
                },
                {
                    "name": "C#5",
                    "midi": 73,
                    "time": 126.70668400000068,
                    "velocity": 0.3858267716535433,
                    "duration": 1.0922990000000254
                },
                {
                    "name": "F#5",
                    "midi": 78,
                    "time": 126.70668400000068,
                    "velocity": 0.4566929133858268,
                    "duration": 0.32768970000000763
                },
                {
                    "name": "E5",
                    "midi": 76,
                    "time": 126.97975875000068,
                    "velocity": 0.3464566929133858,
                    "duration": 0.32768970000000763
                },
                {
                    "name": "D5",
                    "midi": 74,
                    "time": 127.25283350000069,
                    "velocity": 0.41732283464566927,
                    "duration": 0.32768970000000763
                },
                {
                    "name": "E5",
                    "midi": 76,
                    "time": 127.5259082500007,
                    "velocity": 0.3543307086614173,
                    "duration": 0.2616966354166692
                },
                {
                    "name": "C#5",
                    "midi": 73,
                    "time": 127.7989830000007,
                    "velocity": 0.4015748031496063,
                    "duration": 1.092298999999997
                },
                {
                    "name": "E5",
                    "midi": 76,
                    "time": 127.7989830000007,
                    "velocity": 0.48031496062992124,
                    "duration": 1.092298999999997
                },
                {
                    "name": "D5",
                    "midi": 74,
                    "time": 128.8912820000007,
                    "velocity": 0.41732283464566927,
                    "duration": 0.20480606250001188
                },
                {
                    "name": "D#5",
                    "midi": 75,
                    "time": 129.1643567500007,
                    "velocity": 0.33858267716535434,
                    "duration": 0.3003822249999928
                },
                {
                    "name": "E5",
                    "midi": 76,
                    "time": 129.4374315000007,
                    "velocity": 0.3779527559055118,
                    "duration": 0.30038222499996436
                },
                {
                    "name": "D#5",
                    "midi": 75,
                    "time": 129.7105062500007,
                    "velocity": 0.33070866141732286,
                    "duration": 0.30038222499996436
                },
                {
                    "name": "F#5",
                    "midi": 78,
                    "time": 129.98358100000067,
                    "velocity": 0.4015748031496063,
                    "duration": 0.30038222499996436
                },
                {
                    "name": "E5",
                    "midi": 76,
                    "time": 130.25665575000065,
                    "velocity": 0.3779527559055118,
                    "duration": 0.30038222499996436
                },
                {
                    "name": "D5",
                    "midi": 74,
                    "time": 130.52973050000062,
                    "velocity": 0.36220472440944884,
                    "duration": 0.30038222499996436
                },
                {
                    "name": "C5",
                    "midi": 72,
                    "time": 130.8028052500006,
                    "velocity": 0.3464566929133858,
                    "duration": 0.30038222499996436
                },
                {
                    "name": "B4",
                    "midi": 71,
                    "time": 131.07588000000058,
                    "velocity": 0.3779527559055118,
                    "duration": 1.365373749999975
                },
                {
                    "name": "G4",
                    "midi": 67,
                    "time": 132.44125375000056,
                    "velocity": 0.3464566929133858,
                    "duration": 0.27307475000000636
                },
                {
                    "name": "B4",
                    "midi": 71,
                    "time": 132.71432850000056,
                    "velocity": 0.3464566929133858,
                    "duration": 0.27307475000000636
                },
                {
                    "name": "D5",
                    "midi": 74,
                    "time": 132.9714738895839,
                    "velocity": 0.3464566929133858,
                    "duration": 0.27307475000000636
                },
                {
                    "name": "C5",
                    "midi": 72,
                    "time": 133.26047800000057,
                    "velocity": 0.3937007874015748,
                    "duration": 0.27307475000000636
                },
                {
                    "name": "A4",
                    "midi": 69,
                    "time": 133.53355275000058,
                    "velocity": 0.3464566929133858,
                    "duration": 0.27307475000000636
                },
                {
                    "name": "C5",
                    "midi": 72,
                    "time": 133.8066275000006,
                    "velocity": 0.3464566929133858,
                    "duration": 0.27307475000000636
                },
                {
                    "name": "E5",
                    "midi": 76,
                    "time": 134.0797022500006,
                    "velocity": 0.3464566929133858,
                    "duration": 0.27307475000000636
                },
                {
                    "name": "D5",
                    "midi": 74,
                    "time": 134.3527770000006,
                    "velocity": 0.3937007874015748,
                    "duration": 0.8192242499999907
                },
                {
                    "name": "B4",
                    "midi": 71,
                    "time": 135.1720012500006,
                    "velocity": 0.3700787401574803,
                    "duration": 0.27307475000000636
                },
                {
                    "name": "G4",
                    "midi": 67,
                    "time": 135.4450760000006,
                    "velocity": 0.3700787401574803,
                    "duration": 0.13653737499998897
                },
                {
                    "name": "G4",
                    "midi": 67,
                    "time": 135.71815075000058,
                    "velocity": 0.36220472440944884,
                    "duration": 0.13653737499998897
                },
                {
                    "name": "A4",
                    "midi": 69,
                    "time": 135.99122550000055,
                    "velocity": 0.3700787401574803,
                    "duration": 0.13653737499998897
                },
                {
                    "name": "B4",
                    "midi": 71,
                    "time": 136.26430025000053,
                    "velocity": 0.3779527559055118,
                    "duration": 0.13653737499998897
                },
                {
                    "name": "C5",
                    "midi": 72,
                    "time": 136.5373750000005,
                    "velocity": 0.3779527559055118,
                    "duration": 0.13653737499998897
                },
                {
                    "name": "D5",
                    "midi": 74,
                    "time": 136.8104497500005,
                    "velocity": 0.4015748031496063,
                    "duration": 0.13653737499998897
                },
                {
                    "name": "E5",
                    "midi": 76,
                    "time": 137.08352450000046,
                    "velocity": 0.4094488188976378,
                    "duration": 0.13653737499998897
                },
                {
                    "name": "F#5",
                    "midi": 78,
                    "time": 137.35659925000044,
                    "velocity": 0.4251968503937008,
                    "duration": 0.13653737499998897
                },
                {
                    "name": "G5",
                    "midi": 79,
                    "time": 137.62967400000042,
                    "velocity": 0.4409448818897638,
                    "duration": 0.32768970000000763
                },
                {
                    "name": "F#5",
                    "midi": 78,
                    "time": 137.90274875000043,
                    "velocity": 0.3937007874015748,
                    "duration": 0.32768970000000763
                },
                {
                    "name": "G5",
                    "midi": 79,
                    "time": 138.17582350000043,
                    "velocity": 0.4409448818897638,
                    "duration": 0.32768970000000763
                },
                {
                    "name": "F#5",
                    "midi": 78,
                    "time": 138.44889825000044,
                    "velocity": 0.4094488188976378,
                    "duration": 0.32768970000000763
                },
                {
                    "name": "A5",
                    "midi": 81,
                    "time": 138.72197300000045,
                    "velocity": 0.4409448818897638,
                    "duration": 0.32768970000000763
                },
                {
                    "name": "G5",
                    "midi": 79,
                    "time": 138.99504775000045,
                    "velocity": 0.4251968503937008,
                    "duration": 0.32768970000000763
                },
                {
                    "name": "F#5",
                    "midi": 78,
                    "time": 139.26812250000046,
                    "velocity": 0.41732283464566927,
                    "duration": 0.32768970000000763
                },
                {
                    "name": "G5",
                    "midi": 79,
                    "time": 139.54119725000047,
                    "velocity": 0.3858267716535433,
                    "duration": 0.32768970000000763
                },
                {
                    "name": "F#5",
                    "midi": 78,
                    "time": 139.81427200000047,
                    "velocity": 0.4094488188976378,
                    "duration": 0.32768970000000763
                },
                {
                    "name": "E5",
                    "midi": 76,
                    "time": 140.08734675000048,
                    "velocity": 0.3937007874015748,
                    "duration": 0.32768970000000763
                },
                {
                    "name": "D5",
                    "midi": 74,
                    "time": 140.36042150000048,
                    "velocity": 0.3779527559055118,
                    "duration": 0.32768970000000763
                },
                {
                    "name": "C#5",
                    "midi": 73,
                    "time": 140.6334962500005,
                    "velocity": 0.36220472440944884,
                    "duration": 0.32768970000000763
                },
                {
                    "name": "D5",
                    "midi": 74,
                    "time": 140.9065710000005,
                    "velocity": 0.3937007874015748,
                    "duration": 0.27307475000000636
                },
                {
                    "name": "B4",
                    "midi": 71,
                    "time": 141.1796457500005,
                    "velocity": 0.33858267716535434,
                    "duration": 0.27307475000000636
                },
                {
                    "name": "D5",
                    "midi": 74,
                    "time": 141.4527205000005,
                    "velocity": 0.3700787401574803,
                    "duration": 0.27307475000000636
                },
                {
                    "name": "B4",
                    "midi": 71,
                    "time": 141.72579525000052,
                    "velocity": 0.33858267716535434,
                    "duration": 0.27307475000000636
                },
                {
                    "name": "G4",
                    "midi": 67,
                    "time": 141.99887000000052,
                    "velocity": 0.3700787401574803,
                    "duration": 1.092298999999997
                },
                {
                    "name": "C5",
                    "midi": 72,
                    "time": 144.18346800000052,
                    "velocity": 0.3937007874015748,
                    "duration": 0.27307475000000636
                },
                {
                    "name": "A4",
                    "midi": 69,
                    "time": 144.45654275000052,
                    "velocity": 0.36220472440944884,
                    "duration": 0.27307475000000636
                },
                {
                    "name": "C5",
                    "midi": 72,
                    "time": 144.72961750000053,
                    "velocity": 0.36220472440944884,
                    "duration": 0.27307475000000636
                },
                {
                    "name": "A4",
                    "midi": 69,
                    "time": 145.00269225000054,
                    "velocity": 0.33858267716535434,
                    "duration": 0.27307475000000636
                },
                {
                    "name": "F#4",
                    "midi": 66,
                    "time": 145.27576700000054,
                    "velocity": 0.3937007874015748,
                    "duration": 0.13653737499998897
                },
                {
                    "name": "A4",
                    "midi": 69,
                    "time": 145.54884175000052,
                    "velocity": 0.3543307086614173,
                    "duration": 0.27307475000000636
                },
                {
                    "name": "G#4",
                    "midi": 68,
                    "time": 145.82191650000053,
                    "velocity": 0.3700787401574803,
                    "duration": 0.27307475000000636
                },
                {
                    "name": "A4",
                    "midi": 69,
                    "time": 146.09499125000053,
                    "velocity": 0.3858267716535433,
                    "duration": 0.27307475000000636
                },
                {
                    "name": "A#4",
                    "midi": 70,
                    "time": 146.36806600000054,
                    "velocity": 0.3937007874015748,
                    "duration": 0.27307475000000636
                },
                {
                    "name": "B4",
                    "midi": 71,
                    "time": 146.64114075000055,
                    "velocity": 0.3937007874015748,
                    "duration": 0.27307475000000636
                },
                {
                    "name": "C5",
                    "midi": 72,
                    "time": 146.91421550000055,
                    "velocity": 0.41732283464566927,
                    "duration": 0.27307475000000636
                },
                {
                    "name": "C#5",
                    "midi": 73,
                    "time": 147.18729025000056,
                    "velocity": 0.4330708661417323,
                    "duration": 0.27307475000000636
                },
                {
                    "name": "D5",
                    "midi": 74,
                    "time": 147.46036500000056,
                    "velocity": 0.4566929133858268,
                    "duration": 0.27307475000000636
                },
                {
                    "name": "B4",
                    "midi": 71,
                    "time": 147.73343975000057,
                    "velocity": 0.4015748031496063,
                    "duration": 0.27307475000000636
                },
                {
                    "name": "D5",
                    "midi": 74,
                    "time": 148.00651450000058,
                    "velocity": 0.4251968503937008,
                    "duration": 0.27307475000000636
                },
                {
                    "name": "B4",
                    "midi": 71,
                    "time": 148.27958925000058,
                    "velocity": 0.4015748031496063,
                    "duration": 0.27307475000000636
                },
                {
                    "name": "G5",
                    "midi": 79,
                    "time": 148.5526640000006,
                    "velocity": 0.48031496062992124,
                    "duration": 1.092298999999997
                },
                {
                    "name": "B5",
                    "midi": 83,
                    "time": 149.9180377500006,
                    "velocity": 0.4881889763779528,
                    "duration": 0.32768970000000763
                },
                {
                    "name": "F#5",
                    "midi": 78,
                    "time": 150.1911125000006,
                    "velocity": 0.4645669291338583,
                    "duration": 0.32768970000000763
                },
                {
                    "name": "G5",
                    "midi": 79,
                    "time": 150.4641872500006,
                    "velocity": 0.4409448818897638,
                    "duration": 0.27307475000000636
                },
                {
                    "name": "D#5",
                    "midi": 75,
                    "time": 150.7372620000006,
                    "velocity": 0.4566929133858268,
                    "duration": 0.32768970000000763
                },
                {
                    "name": "E5",
                    "midi": 76,
                    "time": 151.01033675000062,
                    "velocity": 0.3858267716535433,
                    "duration": 0.32768970000000763
                },
                {
                    "name": "C5",
                    "midi": 72,
                    "time": 151.28341150000062,
                    "velocity": 0.41732283464566927,
                    "duration": 0.32768970000000763
                },
                {
                    "name": "A4",
                    "midi": 69,
                    "time": 151.55648625000063,
                    "velocity": 0.36220472440944884,
                    "duration": 0.32768970000000763
                },
                {
                    "name": "G4",
                    "midi": 67,
                    "time": 151.82956100000064,
                    "velocity": 0.41732283464566927,
                    "duration": 0.8192242499999907
                },
                {
                    "name": "G4",
                    "midi": 67,
                    "time": 152.64878525000063,
                    "velocity": 0.3464566929133858,
                    "duration": 0.27307475000000636
                },
                {
                    "name": "F#4",
                    "midi": 66,
                    "time": 152.92186000000063,
                    "velocity": 0.3700787401574803,
                    "duration": 1.092298999999997
                },
                {
                    "name": "B4",
                    "midi": 71,
                    "time": 152.92186000000063,
                    "velocity": 0.4330708661417323,
                    "duration": 0.32768970000000763
                },
                {
                    "name": "A4",
                    "midi": 69,
                    "time": 153.19493475000064,
                    "velocity": 0.3464566929133858,
                    "duration": 0.32768970000000763
                },
                {
                    "name": "G4",
                    "midi": 67,
                    "time": 153.46800950000065,
                    "velocity": 0.3858267716535433,
                    "duration": 0.32768970000000763
                },
                {
                    "name": "A4",
                    "midi": 69,
                    "time": 153.74108425000065,
                    "velocity": 0.33070866141732286,
                    "duration": 0.261696635416655
                },
                {
                    "name": "F#4",
                    "midi": 66,
                    "time": 154.01415900000063,
                    "velocity": 0.33070866141732286,
                    "duration": 1.092298999999997
                },
                {
                    "name": "A4",
                    "midi": 69,
                    "time": 154.01415900000063,
                    "velocity": 0.41732283464566927,
                    "duration": 1.092298999999997
                },
                {
                    "name": "G4",
                    "midi": 67,
                    "time": 155.10645800000063,
                    "velocity": 0.3779527559055118,
                    "duration": 1.092298999999997
                },
                {
                    "name": "D5",
                    "midi": 74,
                    "time": 157.29105600000062,
                    "velocity": 0.3937007874015748,
                    "duration": 1.3653737500000034
                },
                {
                    "name": "C#5",
                    "midi": 73,
                    "time": 158.65642975000063,
                    "velocity": 0.36220472440944884,
                    "duration": 0.32768970000000763
                },
                {
                    "name": "E5",
                    "midi": 76,
                    "time": 158.92950450000063,
                    "velocity": 0.3858267716535433,
                    "duration": 0.32768970000000763
                },
                {
                    "name": "D5",
                    "midi": 74,
                    "time": 159.20257925000064,
                    "velocity": 0.36220472440944884,
                    "duration": 0.32768970000000763
                },
                {
                    "name": "G5",
                    "midi": 79,
                    "time": 159.47565400000065,
                    "velocity": 0.4094488188976378,
                    "duration": 0.32768970000000763
                },
                {
                    "name": "F#5",
                    "midi": 78,
                    "time": 159.74872875000065,
                    "velocity": 0.36220472440944884,
                    "duration": 0.32768970000000763
                },
                {
                    "name": "E5",
                    "midi": 76,
                    "time": 160.02180350000066,
                    "velocity": 0.3858267716535433,
                    "duration": 0.32768970000000763
                },
                {
                    "name": "D5",
                    "midi": 74,
                    "time": 160.29487825000066,
                    "velocity": 0.36220472440944884,
                    "duration": 0.32768970000000763
                },
                {
                    "name": "C#5",
                    "midi": 73,
                    "time": 160.56795300000067,
                    "velocity": 0.3937007874015748,
                    "duration": 0.8192242499999907
                },
                {
                    "name": "D5",
                    "midi": 74,
                    "time": 161.38717725000066,
                    "velocity": 0.3858267716535433,
                    "duration": 0.27307475000000636
                },
                {
                    "name": "E5",
                    "midi": 76,
                    "time": 161.66025200000067,
                    "velocity": 0.41732283464566927,
                    "duration": 1.092298999999997
                },
                {
                    "name": "E5",
                    "midi": 76,
                    "time": 163.84485000000066,
                    "velocity": 0.4251968503937008,
                    "duration": 1.3653737500000034
                },
                {
                    "name": "D#5",
                    "midi": 75,
                    "time": 165.21022375000067,
                    "velocity": 0.36220472440944884,
                    "duration": 0.32768970000000763
                },
                {
                    "name": "F#5",
                    "midi": 78,
                    "time": 165.48329850000067,
                    "velocity": 0.3937007874015748,
                    "duration": 0.32768970000000763
                },
                {
                    "name": "E5",
                    "midi": 76,
                    "time": 165.75637325000068,
                    "velocity": 0.36220472440944884,
                    "duration": 0.32768970000000763
                },
                {
                    "name": "A5",
                    "midi": 81,
                    "time": 166.02944800000068,
                    "velocity": 0.4251968503937008,
                    "duration": 0.32768970000000763
                },
                {
                    "name": "G5",
                    "midi": 79,
                    "time": 166.3025227500007,
                    "velocity": 0.36220472440944884,
                    "duration": 0.32768970000000763
                },
                {
                    "name": "F#5",
                    "midi": 78,
                    "time": 166.5755975000007,
                    "velocity": 0.3858267716535433,
                    "duration": 0.32768970000000763
                },
                {
                    "name": "E5",
                    "midi": 76,
                    "time": 166.8486722500007,
                    "velocity": 0.3858267716535433,
                    "duration": 0.32768970000000763
                },
                {
                    "name": "D5",
                    "midi": 74,
                    "time": 167.1217470000007,
                    "velocity": 0.4251968503937008,
                    "duration": 0.8192242499999907
                },
                {
                    "name": "E5",
                    "midi": 76,
                    "time": 167.9409712500007,
                    "velocity": 0.4094488188976378,
                    "duration": 0.27307475000000636
                },
                {
                    "name": "F#5",
                    "midi": 78,
                    "time": 168.2140460000007,
                    "velocity": 0.44881889763779526,
                    "duration": 1.092298999999997
                },
                {
                    "name": "F#5",
                    "midi": 78,
                    "time": 170.3986440000007,
                    "velocity": 0.5511811023622047,
                    "duration": 1.3653737500000034
                },
                {
                    "name": "E5",
                    "midi": 76,
                    "time": 171.7640177500007,
                    "velocity": 0.44881889763779526,
                    "duration": 0.32768970000000763
                },
                {
                    "name": "G5",
                    "midi": 79,
                    "time": 172.0370925000007,
                    "velocity": 0.48031496062992124,
                    "duration": 0.32768970000000763
                },
                {
                    "name": "F#5",
                    "midi": 78,
                    "time": 172.31016725000072,
                    "velocity": 0.4330708661417323,
                    "duration": 0.32768970000000763
                },
                {
                    "name": "B5",
                    "midi": 83,
                    "time": 172.58324200000072,
                    "velocity": 0.5118110236220472,
                    "duration": 0.32768970000000763
                },
                {
                    "name": "A5",
                    "midi": 81,
                    "time": 172.85631675000073,
                    "velocity": 0.41732283464566927,
                    "duration": 0.32768970000000763
                },
                {
                    "name": "G5",
                    "midi": 79,
                    "time": 173.12939150000074,
                    "velocity": 0.4645669291338583,
                    "duration": 0.32768970000000763
                },
                {
                    "name": "F#5",
                    "midi": 78,
                    "time": 173.40246625000074,
                    "velocity": 0.41732283464566927,
                    "duration": 0.32768970000000763
                },
                {
                    "name": "E5",
                    "midi": 76,
                    "time": 173.67554100000075,
                    "velocity": 0.5039370078740157,
                    "duration": 1.3653737500000034
                },
                {
                    "name": "D#5",
                    "midi": 75,
                    "time": 175.04091475000075,
                    "velocity": 0.4330708661417323,
                    "duration": 0.32768970000000763
                },
                {
                    "name": "F#5",
                    "midi": 78,
                    "time": 175.31398950000076,
                    "velocity": 0.47244094488188976,
                    "duration": 0.32768970000000763
                },
                {
                    "name": "E5",
                    "midi": 76,
                    "time": 175.58706425000076,
                    "velocity": 0.4094488188976378,
                    "duration": 0.32768970000000763
                },
                {
                    "name": "A5",
                    "midi": 81,
                    "time": 175.86013900000077,
                    "velocity": 0.4881889763779528,
                    "duration": 0.32768970000000763
                },
                {
                    "name": "G5",
                    "midi": 79,
                    "time": 176.13321375000078,
                    "velocity": 0.4015748031496063,
                    "duration": 0.32768970000000763
                },
                {
                    "name": "F#5",
                    "midi": 78,
                    "time": 176.40628850000078,
                    "velocity": 0.4645669291338583,
                    "duration": 0.32768970000000763
                },
                {
                    "name": "E5",
                    "midi": 76,
                    "time": 176.6793632500008,
                    "velocity": 0.41732283464566927,
                    "duration": 0.261696635416655
                },
                {
                    "name": "E5",
                    "midi": 76,
                    "time": 176.95243800000077,
                    "velocity": 0.49606299212598426,
                    "duration": 0.27307475000000636
                },
                {
                    "name": "D5",
                    "midi": 74,
                    "time": 177.22551275000077,
                    "velocity": 0.3858267716535433,
                    "duration": 0.27307475000000636
                },
                {
                    "name": "D5",
                    "midi": 74,
                    "time": 177.49858750000078,
                    "velocity": 0.4330708661417323,
                    "duration": 0.8192242499999907
                },
                {
                    "name": "A4",
                    "midi": 69,
                    "time": 178.31781175000077,
                    "velocity": 0.3464566929133858,
                    "duration": 0.27307475000000636
                },
                {
                    "name": "D5",
                    "midi": 74,
                    "time": 178.59088650000078,
                    "velocity": 0.36220472440944884,
                    "duration": 0.27307475000000636
                },
                {
                    "name": "F#5",
                    "midi": 78,
                    "time": 178.86396125000078,
                    "velocity": 0.33858267716535434,
                    "duration": 0.27307475000000636
                },
                {
                    "name": "C#5",
                    "midi": 73,
                    "time": 179.1370360000008,
                    "velocity": 0.3858267716535433,
                    "duration": 1.092298999999997
                },
                {
                    "name": "F#5",
                    "midi": 78,
                    "time": 179.1370360000008,
                    "velocity": 0.4566929133858268,
                    "duration": 0.32768970000000763
                },
                {
                    "name": "E5",
                    "midi": 76,
                    "time": 179.4101107500008,
                    "velocity": 0.3464566929133858,
                    "duration": 0.32768970000000763
                },
                {
                    "name": "D5",
                    "midi": 74,
                    "time": 179.6831855000008,
                    "velocity": 0.41732283464566927,
                    "duration": 0.32768970000000763
                },
                {
                    "name": "E5",
                    "midi": 76,
                    "time": 179.9562602500008,
                    "velocity": 0.3543307086614173,
                    "duration": 0.261696635416655
                },
                {
                    "name": "C#5",
                    "midi": 73,
                    "time": 180.2293350000008,
                    "velocity": 0.4015748031496063,
                    "duration": 1.092298999999997
                },
                {
                    "name": "E5",
                    "midi": 76,
                    "time": 180.2293350000008,
                    "velocity": 0.48031496062992124,
                    "duration": 1.092298999999997
                },
                {
                    "name": "D5",
                    "midi": 74,
                    "time": 181.32163400000078,
                    "velocity": 0.41732283464566927,
                    "duration": 0.20480606250001188
                },
                {
                    "name": "D#5",
                    "midi": 75,
                    "time": 181.5947087500008,
                    "velocity": 0.33858267716535434,
                    "duration": 0.3003822249999928
                },
                {
                    "name": "E5",
                    "midi": 76,
                    "time": 181.8677835000008,
                    "velocity": 0.3779527559055118,
                    "duration": 0.30038222499996436
                },
                {
                    "name": "D#5",
                    "midi": 75,
                    "time": 182.14085825000078,
                    "velocity": 0.33070866141732286,
                    "duration": 0.30038222499996436
                },
                {
                    "name": "F#5",
                    "midi": 78,
                    "time": 182.41393300000075,
                    "velocity": 0.4015748031496063,
                    "duration": 0.30038222499996436
                },
                {
                    "name": "E5",
                    "midi": 76,
                    "time": 182.68700775000073,
                    "velocity": 0.3779527559055118,
                    "duration": 0.30038222499996436
                },
                {
                    "name": "D5",
                    "midi": 74,
                    "time": 182.9600825000007,
                    "velocity": 0.36220472440944884,
                    "duration": 0.30038222499996436
                },
                {
                    "name": "C5",
                    "midi": 72,
                    "time": 183.2331572500007,
                    "velocity": 0.3464566929133858,
                    "duration": 0.30038222499996436
                },
                {
                    "name": "B4",
                    "midi": 71,
                    "time": 183.50623200000067,
                    "velocity": 0.3779527559055118,
                    "duration": 1.365373749999975
                },
                {
                    "name": "G4",
                    "midi": 67,
                    "time": 184.87160575000064,
                    "velocity": 0.3464566929133858,
                    "duration": 0.27307475000000636
                },
                {
                    "name": "B4",
                    "midi": 71,
                    "time": 185.14468050000065,
                    "velocity": 0.3464566929133858,
                    "duration": 0.27307475000000636
                },
                {
                    "name": "D5",
                    "midi": 74,
                    "time": 185.401825889584,
                    "velocity": 0.3464566929133858,
                    "duration": 0.27307475000000636
                },
                {
                    "name": "C5",
                    "midi": 72,
                    "time": 185.69083000000066,
                    "velocity": 0.3937007874015748,
                    "duration": 0.27307475000000636
                },
                {
                    "name": "A4",
                    "midi": 69,
                    "time": 185.96390475000067,
                    "velocity": 0.3464566929133858,
                    "duration": 0.27307475000000636
                },
                {
                    "name": "C5",
                    "midi": 72,
                    "time": 186.23697950000067,
                    "velocity": 0.3464566929133858,
                    "duration": 0.27307475000000636
                },
                {
                    "name": "E5",
                    "midi": 76,
                    "time": 186.51005425000068,
                    "velocity": 0.3464566929133858,
                    "duration": 0.27307475000000636
                },
                {
                    "name": "D5",
                    "midi": 74,
                    "time": 186.78312900000068,
                    "velocity": 0.3937007874015748,
                    "duration": 0.8192242499999907
                },
                {
                    "name": "B4",
                    "midi": 71,
                    "time": 187.60235325000068,
                    "velocity": 0.3700787401574803,
                    "duration": 0.27307475000000636
                },
                {
                    "name": "G4",
                    "midi": 67,
                    "time": 187.87542800000068,
                    "velocity": 0.3700787401574803,
                    "duration": 0.13653737499998897
                },
                {
                    "name": "G4",
                    "midi": 67,
                    "time": 188.14850275000066,
                    "velocity": 0.36220472440944884,
                    "duration": 0.13653737499998897
                },
                {
                    "name": "A4",
                    "midi": 69,
                    "time": 188.42157750000064,
                    "velocity": 0.3700787401574803,
                    "duration": 0.13653737499998897
                },
                {
                    "name": "B4",
                    "midi": 71,
                    "time": 188.69465225000062,
                    "velocity": 0.3779527559055118,
                    "duration": 0.13653737499998897
                },
                {
                    "name": "C5",
                    "midi": 72,
                    "time": 188.9677270000006,
                    "velocity": 0.3779527559055118,
                    "duration": 0.13653737499998897
                },
                {
                    "name": "D5",
                    "midi": 74,
                    "time": 189.24080175000057,
                    "velocity": 0.4015748031496063,
                    "duration": 0.13653737499998897
                },
                {
                    "name": "E5",
                    "midi": 76,
                    "time": 189.51387650000055,
                    "velocity": 0.4094488188976378,
                    "duration": 0.13653737499998897
                },
                {
                    "name": "F#5",
                    "midi": 78,
                    "time": 189.78695125000053,
                    "velocity": 0.4251968503937008,
                    "duration": 0.13653737499998897
                },
                {
                    "name": "G5",
                    "midi": 79,
                    "time": 190.0600260000005,
                    "velocity": 0.4409448818897638,
                    "duration": 0.32768970000000763
                },
                {
                    "name": "F#5",
                    "midi": 78,
                    "time": 190.3331007500005,
                    "velocity": 0.3937007874015748,
                    "duration": 0.32768970000000763
                },
                {
                    "name": "G5",
                    "midi": 79,
                    "time": 190.60617550000052,
                    "velocity": 0.4409448818897638,
                    "duration": 0.32768970000000763
                },
                {
                    "name": "F#5",
                    "midi": 78,
                    "time": 190.87925025000052,
                    "velocity": 0.4094488188976378,
                    "duration": 0.32768970000000763
                },
                {
                    "name": "A5",
                    "midi": 81,
                    "time": 191.15232500000053,
                    "velocity": 0.4409448818897638,
                    "duration": 0.32768970000000763
                },
                {
                    "name": "G5",
                    "midi": 79,
                    "time": 191.42539975000054,
                    "velocity": 0.4251968503937008,
                    "duration": 0.32768970000000763
                },
                {
                    "name": "F#5",
                    "midi": 78,
                    "time": 191.69847450000054,
                    "velocity": 0.41732283464566927,
                    "duration": 0.32768970000000763
                },
                {
                    "name": "G5",
                    "midi": 79,
                    "time": 191.97154925000055,
                    "velocity": 0.3858267716535433,
                    "duration": 0.32768970000000763
                },
                {
                    "name": "F#5",
                    "midi": 78,
                    "time": 192.24462400000056,
                    "velocity": 0.4094488188976378,
                    "duration": 0.32768970000000763
                },
                {
                    "name": "E5",
                    "midi": 76,
                    "time": 192.51769875000056,
                    "velocity": 0.3937007874015748,
                    "duration": 0.32768970000000763
                },
                {
                    "name": "D5",
                    "midi": 74,
                    "time": 192.79077350000057,
                    "velocity": 0.3779527559055118,
                    "duration": 0.32768970000000763
                },
                {
                    "name": "C#5",
                    "midi": 73,
                    "time": 193.06384825000058,
                    "velocity": 0.36220472440944884,
                    "duration": 0.32768970000000763
                },
                {
                    "name": "D5",
                    "midi": 74,
                    "time": 193.33692300000058,
                    "velocity": 0.3937007874015748,
                    "duration": 0.27307475000000636
                },
                {
                    "name": "B4",
                    "midi": 71,
                    "time": 193.6099977500006,
                    "velocity": 0.33858267716535434,
                    "duration": 0.27307475000000636
                },
                {
                    "name": "D5",
                    "midi": 74,
                    "time": 193.8830725000006,
                    "velocity": 0.3700787401574803,
                    "duration": 0.27307475000000636
                },
                {
                    "name": "B4",
                    "midi": 71,
                    "time": 194.1561472500006,
                    "velocity": 0.33858267716535434,
                    "duration": 0.27307475000000636
                },
                {
                    "name": "G4",
                    "midi": 67,
                    "time": 194.4292220000006,
                    "velocity": 0.3700787401574803,
                    "duration": 1.092298999999997
                },
                {
                    "name": "C5",
                    "midi": 72,
                    "time": 196.6138200000006,
                    "velocity": 0.3937007874015748,
                    "duration": 0.27307475000000636
                },
                {
                    "name": "A4",
                    "midi": 69,
                    "time": 196.8868947500006,
                    "velocity": 0.36220472440944884,
                    "duration": 0.27307475000000636
                },
                {
                    "name": "C5",
                    "midi": 72,
                    "time": 197.1599695000006,
                    "velocity": 0.36220472440944884,
                    "duration": 0.27307475000000636
                },
                {
                    "name": "A4",
                    "midi": 69,
                    "time": 197.43304425000062,
                    "velocity": 0.33858267716535434,
                    "duration": 0.27307475000000636
                },
                {
                    "name": "F#4",
                    "midi": 66,
                    "time": 197.70611900000063,
                    "velocity": 0.3937007874015748,
                    "duration": 0.13653737499998897
                },
                {
                    "name": "A4",
                    "midi": 69,
                    "time": 197.9791937500006,
                    "velocity": 0.3543307086614173,
                    "duration": 0.27307475000000636
                },
                {
                    "name": "G#4",
                    "midi": 68,
                    "time": 198.2522685000006,
                    "velocity": 0.3700787401574803,
                    "duration": 0.27307475000000636
                },
                {
                    "name": "A4",
                    "midi": 69,
                    "time": 198.52534325000062,
                    "velocity": 0.3858267716535433,
                    "duration": 0.27307475000000636
                },
                {
                    "name": "A#4",
                    "midi": 70,
                    "time": 198.79841800000062,
                    "velocity": 0.3937007874015748,
                    "duration": 0.27307475000000636
                },
                {
                    "name": "B4",
                    "midi": 71,
                    "time": 199.07149275000063,
                    "velocity": 0.3937007874015748,
                    "duration": 0.27307475000000636
                },
                {
                    "name": "C5",
                    "midi": 72,
                    "time": 199.34456750000064,
                    "velocity": 0.41732283464566927,
                    "duration": 0.27307475000000636
                },
                {
                    "name": "C#5",
                    "midi": 73,
                    "time": 199.61764225000064,
                    "velocity": 0.4330708661417323,
                    "duration": 0.27307475000000636
                },
                {
                    "name": "D5",
                    "midi": 74,
                    "time": 199.89071700000065,
                    "velocity": 0.4566929133858268,
                    "duration": 0.27307475000000636
                },
                {
                    "name": "B4",
                    "midi": 71,
                    "time": 200.16379175000066,
                    "velocity": 0.4015748031496063,
                    "duration": 0.27307475000000636
                },
                {
                    "name": "D5",
                    "midi": 74,
                    "time": 200.43686650000066,
                    "velocity": 0.4251968503937008,
                    "duration": 0.27307475000000636
                },
                {
                    "name": "B4",
                    "midi": 71,
                    "time": 200.70994125000067,
                    "velocity": 0.4015748031496063,
                    "duration": 0.27307475000000636
                },
                {
                    "name": "G5",
                    "midi": 79,
                    "time": 200.98301600000067,
                    "velocity": 0.48031496062992124,
                    "duration": 1.092298999999997
                },
                {
                    "name": "B5",
                    "midi": 83,
                    "time": 202.34838975000068,
                    "velocity": 0.4881889763779528,
                    "duration": 0.32768970000000763
                },
                {
                    "name": "F#5",
                    "midi": 78,
                    "time": 202.62146450000068,
                    "velocity": 0.4645669291338583,
                    "duration": 0.32768970000000763
                },
                {
                    "name": "G5",
                    "midi": 79,
                    "time": 202.8945392500007,
                    "velocity": 0.4409448818897638,
                    "duration": 0.27307475000000636
                },
                {
                    "name": "D#5",
                    "midi": 75,
                    "time": 203.1676140000007,
                    "velocity": 0.4566929133858268,
                    "duration": 0.32768970000000763
                },
                {
                    "name": "E5",
                    "midi": 76,
                    "time": 203.4406887500007,
                    "velocity": 0.3858267716535433,
                    "duration": 0.32768970000000763
                },
                {
                    "name": "C5",
                    "midi": 72,
                    "time": 203.7137635000007,
                    "velocity": 0.41732283464566927,
                    "duration": 0.32768970000000763
                },
                {
                    "name": "A4",
                    "midi": 69,
                    "time": 203.98683825000072,
                    "velocity": 0.36220472440944884,
                    "duration": 0.32768970000000763
                },
                {
                    "name": "G4",
                    "midi": 67,
                    "time": 204.25991300000072,
                    "velocity": 0.41732283464566927,
                    "duration": 0.8192242499999907
                },
                {
                    "name": "G4",
                    "midi": 67,
                    "time": 205.0791372500007,
                    "velocity": 0.3464566929133858,
                    "duration": 0.27307475000000636
                },
                {
                    "name": "F#4",
                    "midi": 66,
                    "time": 205.35221200000072,
                    "velocity": 0.3700787401574803,
                    "duration": 1.092298999999997
                },
                {
                    "name": "B4",
                    "midi": 71,
                    "time": 205.35221200000072,
                    "velocity": 0.4330708661417323,
                    "duration": 0.32768970000000763
                },
                {
                    "name": "A4",
                    "midi": 69,
                    "time": 205.62528675000073,
                    "velocity": 0.3464566929133858,
                    "duration": 0.32768970000000763
                },
                {
                    "name": "G4",
                    "midi": 67,
                    "time": 205.89836150000073,
                    "velocity": 0.3858267716535433,
                    "duration": 0.32768970000000763
                },
                {
                    "name": "A4",
                    "midi": 69,
                    "time": 206.17143625000074,
                    "velocity": 0.33070866141732286,
                    "duration": 0.261696635416655
                },
                {
                    "name": "F#4",
                    "midi": 66,
                    "time": 206.44451100000072,
                    "velocity": 0.33070866141732286,
                    "duration": 1.092298999999997
                },
                {
                    "name": "A4",
                    "midi": 69,
                    "time": 206.44451100000072,
                    "velocity": 0.41732283464566927,
                    "duration": 1.092298999999997
                },
                {
                    "name": "G4",
                    "midi": 67,
                    "time": 207.5368100000007,
                    "velocity": 0.3779527559055118,
                    "duration": 1.092298999999997
                },
                {
                    "name": "A#4",
                    "midi": 70,
                    "time": 209.7214080000007,
                    "velocity": 0.3937007874015748,
                    "duration": 1.3653737500000034
                },
                {
                    "name": "A4",
                    "midi": 69,
                    "time": 211.0867817500007,
                    "velocity": 0.36220472440944884,
                    "duration": 0.32768970000000763
                },
                {
                    "name": "C5",
                    "midi": 72,
                    "time": 211.35985650000072,
                    "velocity": 0.36220472440944884,
                    "duration": 0.32768970000000763
                },
                {
                    "name": "A#4",
                    "midi": 70,
                    "time": 211.63293125000072,
                    "velocity": 0.36220472440944884,
                    "duration": 0.261696635416655
                },
                {
                    "name": "A#4",
                    "midi": 70,
                    "time": 211.9060060000007,
                    "velocity": 0.3937007874015748,
                    "duration": 0.32768970000000763
                },
                {
                    "name": "A4",
                    "midi": 69,
                    "time": 212.1790807500007,
                    "velocity": 0.36220472440944884,
                    "duration": 0.32768970000000763
                },
                {
                    "name": "G4",
                    "midi": 67,
                    "time": 212.4521555000007,
                    "velocity": 0.36220472440944884,
                    "duration": 0.32768970000000763
                },
                {
                    "name": "F#4",
                    "midi": 66,
                    "time": 212.72523025000072,
                    "velocity": 0.36220472440944884,
                    "duration": 0.32768970000000763
                },
                {
                    "name": "G4",
                    "midi": 67,
                    "time": 212.99830500000073,
                    "velocity": 0.3937007874015748,
                    "duration": 0.8192242499999907
                },
                {
                    "name": "A#4",
                    "midi": 70,
                    "time": 213.81752925000072,
                    "velocity": 0.4409448818897638,
                    "duration": 0.27307475000000636
                },
                {
                    "name": "D5",
                    "midi": 74,
                    "time": 214.09060400000072,
                    "velocity": 0.4881889763779528,
                    "duration": 1.092298999999997
                },
                {
                    "name": "D5",
                    "midi": 74,
                    "time": 216.27520200000072,
                    "velocity": 0.5039370078740157,
                    "duration": 1.3653737500000034
                },
                {
                    "name": "C#5",
                    "midi": 73,
                    "time": 217.64057575000072,
                    "velocity": 0.44881889763779526,
                    "duration": 0.32768970000000763
                },
                {
                    "name": "D#5",
                    "midi": 75,
                    "time": 217.91365050000073,
                    "velocity": 0.4645669291338583,
                    "duration": 0.32768970000000763
                },
                {
                    "name": "D5",
                    "midi": 74,
                    "time": 218.18672525000073,
                    "velocity": 0.4330708661417323,
                    "duration": 0.261696635416655
                },
                {
                    "name": "D5",
                    "midi": 74,
                    "time": 218.4598000000007,
                    "velocity": 0.4881889763779528,
                    "duration": 0.32768970000000763
                },
                {
                    "name": "C5",
                    "midi": 72,
                    "time": 218.73287475000072,
                    "velocity": 0.3937007874015748,
                    "duration": 0.32768970000000763
                },
                {
                    "name": "A#4",
                    "midi": 70,
                    "time": 219.00594950000072,
                    "velocity": 0.47244094488188976,
                    "duration": 0.32768970000000763
                },
                {
                    "name": "A4",
                    "midi": 69,
                    "time": 219.27902425000073,
                    "velocity": 0.4251968503937008,
                    "duration": 0.32768970000000763
                },
                {
                    "name": "A#4",
                    "midi": 70,
                    "time": 219.55209900000074,
                    "velocity": 0.5039370078740157,
                    "duration": 0.8192242499999907
                },
                {
                    "name": "D5",
                    "midi": 74,
                    "time": 220.37132325000073,
                    "velocity": 0.5039370078740157,
                    "duration": 0.27307475000000636
                },
                {
                    "name": "G5",
                    "midi": 79,
                    "time": 220.64439800000073,
                    "velocity": 0.5669291338582677,
                    "duration": 1.092298999999997
                },
                {
                    "name": "F5",
                    "midi": 77,
                    "time": 222.82899600000073,
                    "velocity": 0.5433070866141733,
                    "duration": 1.3653737500000034
                },
                {
                    "name": "A5",
                    "midi": 81,
                    "time": 224.19436975000073,
                    "velocity": 0.49606299212598426,
                    "duration": 0.32768970000000763
                },
                {
                    "name": "C6",
                    "midi": 84,
                    "time": 224.46744450000074,
                    "velocity": 0.5590551181102362,
                    "duration": 0.32768970000000763
                },
                {
                    "name": "A#5",
                    "midi": 82,
                    "time": 224.74051925000074,
                    "velocity": 0.5039370078740157,
                    "duration": 0.32768970000000763
                },
                {
                    "name": "A5",
                    "midi": 81,
                    "time": 225.01359400000075,
                    "velocity": 0.5275590551181102,
                    "duration": 0.32768970000000763
                },
                {
                    "name": "G5",
                    "midi": 79,
                    "time": 225.28666875000076,
                    "velocity": 0.41732283464566927,
                    "duration": 0.32768970000000763
                },
                {
                    "name": "F5",
                    "midi": 77,
                    "time": 225.55974350000076,
                    "velocity": 0.5118110236220472,
                    "duration": 0.32768970000000763
                },
                {
                    "name": "D#5",
                    "midi": 75,
                    "time": 225.83281825000077,
                    "velocity": 0.4409448818897638,
                    "duration": 0.32768970000000763
                },
                {
                    "name": "D5",
                    "midi": 74,
                    "time": 226.10589300000078,
                    "velocity": 0.49606299212598426,
                    "duration": 1.3653737500000034
                },
                {
                    "name": "G5",
                    "midi": 79,
                    "time": 227.47126675000078,
                    "velocity": 0.3858267716535433,
                    "duration": 0.32768970000000763
                },
                {
                    "name": "A#5",
                    "midi": 82,
                    "time": 227.7443415000008,
                    "velocity": 0.4251968503937008,
                    "duration": 0.32768970000000763
                },
                {
                    "name": "A5",
                    "midi": 81,
                    "time": 228.0174162500008,
                    "velocity": 0.36220472440944884,
                    "duration": 0.32768970000000763
                },
                {
                    "name": "G5",
                    "midi": 79,
                    "time": 228.2904910000008,
                    "velocity": 0.4330708661417323,
                    "duration": 0.32768970000000763
                },
                {
                    "name": "F5",
                    "midi": 77,
                    "time": 228.5635657500008,
                    "velocity": 0.36220472440944884,
                    "duration": 0.32768970000000763
                },
                {
                    "name": "D#5",
                    "midi": 75,
                    "time": 228.8366405000008,
                    "velocity": 0.4015748031496063,
                    "duration": 0.32768970000000763
                },
                {
                    "name": "D5",
                    "midi": 74,
                    "time": 229.10971525000082,
                    "velocity": 0.36220472440944884,
                    "duration": 0.32768970000000763
                },
                {
                    "name": "A#4",
                    "midi": 70,
                    "time": 229.38279000000082,
                    "velocity": 0.44881889763779526,
                    "duration": 0.27307475000000636
                },
                {
                    "name": "C5",
                    "midi": 72,
                    "time": 229.65586475000083,
                    "velocity": 0.3858267716535433,
                    "duration": 0.27307475000000636
                },
                {
                    "name": "D#5",
                    "midi": 75,
                    "time": 229.92893950000084,
                    "velocity": 0.36220472440944884,
                    "duration": 0.27307475000000636
                },
                {
                    "name": "G5",
                    "midi": 79,
                    "time": 230.20201425000084,
                    "velocity": 0.36220472440944884,
                    "duration": 0.27307475000000636
                },
                {
                    "name": "A#4",
                    "midi": 70,
                    "time": 230.47508900000085,
                    "velocity": 0.41732283464566927,
                    "duration": 0.8192242499999907
                },
                {
                    "name": "A#4",
                    "midi": 70,
                    "time": 231.29431325000084,
                    "velocity": 0.36220472440944884,
                    "duration": 0.27307475000000636
                },
                {
                    "name": "D5",
                    "midi": 74,
                    "time": 231.56738800000085,
                    "velocity": 0.41732283464566927,
                    "duration": 0.32768970000000763
                },
                {
                    "name": "C5",
                    "midi": 72,
                    "time": 231.84046275000085,
                    "velocity": 0.3464566929133858,
                    "duration": 0.32768970000000763
                },
                {
                    "name": "A#4",
                    "midi": 70,
                    "time": 232.11353750000086,
                    "velocity": 0.4094488188976378,
                    "duration": 0.32768970000000763
                },
                {
                    "name": "C5",
                    "midi": 72,
                    "time": 232.38661225000087,
                    "velocity": 0.3543307086614173,
                    "duration": 0.261696635416655
                },
                {
                    "name": "A4",
                    "midi": 69,
                    "time": 232.65968700000084,
                    "velocity": 0.4015748031496063,
                    "duration": 1.092298999999997
                },
                {
                    "name": "C5",
                    "midi": 72,
                    "time": 232.65968700000084,
                    "velocity": 0.48031496062992124,
                    "duration": 1.092298999999997
                },
                {
                    "name": "A#4",
                    "midi": 70,
                    "time": 233.75198600000084,
                    "velocity": 0.41732283464566927,
                    "duration": 0.3003822249999928
                },
                {
                    "name": "A4",
                    "midi": 69,
                    "time": 234.02506075000085,
                    "velocity": 0.33858267716535434,
                    "duration": 0.30038222499996436
                },
                {
                    "name": "C5",
                    "midi": 72,
                    "time": 234.29813550000083,
                    "velocity": 0.3779527559055118,
                    "duration": 0.30038222499996436
                },
                {
                    "name": "A#4",
                    "midi": 70,
                    "time": 234.5712102500008,
                    "velocity": 0.33070866141732286,
                    "duration": 0.30038222499996436
                },
                {
                    "name": "D5",
                    "midi": 74,
                    "time": 234.84428500000078,
                    "velocity": 0.3779527559055118,
                    "duration": 0.30038222499996436
                },
                {
                    "name": "C5",
                    "midi": 72,
                    "time": 235.11735975000076,
                    "velocity": 0.3700787401574803,
                    "duration": 0.30038222499996436
                },
                {
                    "name": "D#5",
                    "midi": 75,
                    "time": 235.39043450000074,
                    "velocity": 0.3937007874015748,
                    "duration": 0.30038222499996436
                },
                {
                    "name": "D5",
                    "midi": 74,
                    "time": 235.66350925000071,
                    "velocity": 0.41732283464566927,
                    "duration": 0.30038222499996436
                },
                {
                    "name": "F5",
                    "midi": 77,
                    "time": 235.9365840000007,
                    "velocity": 0.5354330708661418,
                    "duration": 1.365373749999975
                },
                {
                    "name": "G#5",
                    "midi": 80,
                    "time": 237.30195775000067,
                    "velocity": 0.4409448818897638,
                    "duration": 0.32768970000000763
                },
                {
                    "name": "G5",
                    "midi": 79,
                    "time": 237.57503250000067,
                    "velocity": 0.4881889763779528,
                    "duration": 0.32768970000000763
                },
                {
                    "name": "F5",
                    "midi": 77,
                    "time": 237.84810725000068,
                    "velocity": 0.44881889763779526,
                    "duration": 0.32768970000000763
                },
                {
                    "name": "D#5",
                    "midi": 75,
                    "time": 238.1211820000007,
                    "velocity": 0.49606299212598426,
                    "duration": 0.32768970000000763
                },
                {
                    "name": "D5",
                    "midi": 74,
                    "time": 238.3942567500007,
                    "velocity": 0.36220472440944884,
                    "duration": 0.32768970000000763
                },
                {
                    "name": "C5",
                    "midi": 72,
                    "time": 238.6673315000007,
                    "velocity": 0.44881889763779526,
                    "duration": 0.32768970000000763
                },
                {
                    "name": "B4",
                    "midi": 71,
                    "time": 238.9404062500007,
                    "velocity": 0.3464566929133858,
                    "duration": 0.32768970000000763
                },
                {
                    "name": "C5",
                    "midi": 72,
                    "time": 239.2134810000007,
                    "velocity": 0.47244094488188976,
                    "duration": 0.8192242499999907
                },
                {
                    "name": "D#5",
                    "midi": 75,
                    "time": 240.0327052500007,
                    "velocity": 0.4881889763779528,
                    "duration": 0.27307475000000636
                },
                {
                    "name": "G5",
                    "midi": 79,
                    "time": 240.3057800000007,
                    "velocity": 0.5275590551181102,
                    "duration": 1.092298999999997
                },
                {
                    "name": "G5",
                    "midi": 79,
                    "time": 242.4903780000007,
                    "velocity": 0.5826771653543307,
                    "duration": 1.3653737500000034
                },
                {
                    "name": "F#5",
                    "midi": 78,
                    "time": 243.8557517500007,
                    "velocity": 0.5039370078740157,
                    "duration": 0.32768970000000763
                },
                {
                    "name": "A5",
                    "midi": 81,
                    "time": 244.1288265000007,
                    "velocity": 0.5511811023622047,
                    "duration": 0.32768970000000763
                },
                {
                    "name": "G5",
                    "midi": 79,
                    "time": 244.40190125000072,
                    "velocity": 0.4881889763779528,
                    "duration": 0.27307475000000636
                },
                {
                    "name": "A#5",
                    "midi": 82,
                    "time": 244.67497600000073,
                    "velocity": 0.5511811023622047,
                    "duration": 0.27307475000000636
                },
                {
                    "name": "C#5",
                    "midi": 73,
                    "time": 244.94805075000073,
                    "velocity": 0.5039370078740157,
                    "duration": 0.27307475000000636
                },
                {
                    "name": "A#5",
                    "midi": 82,
                    "time": 245.22112550000074,
                    "velocity": 0.5275590551181102,
                    "duration": 0.27307475000000636
                },
                {
                    "name": "C#5",
                    "midi": 73,
                    "time": 245.49420025000074,
                    "velocity": 0.3937007874015748,
                    "duration": 0.261696635416655
                },
                {
                    "name": "C#5",
                    "midi": 73,
                    "time": 245.76727500000072,
                    "velocity": 0.5118110236220472,
                    "duration": 1.092298999999997
                },
                {
                    "name": "D5",
                    "midi": 74,
                    "time": 246.85957400000072,
                    "velocity": 0.5118110236220472,
                    "duration": 1.092298999999997
                },
                {
                    "name": "D#5",
                    "midi": 75,
                    "time": 249.0441720000007,
                    "velocity": 0.5748031496062992,
                    "duration": 1.3653737500000034
                },
                {
                    "name": "C5",
                    "midi": 72,
                    "time": 250.40954575000072,
                    "velocity": 0.5118110236220472,
                    "duration": 0.27307475000000636
                },
                {
                    "name": "A5",
                    "midi": 81,
                    "time": 250.68262050000072,
                    "velocity": 0.5826771653543307,
                    "duration": 0.27307475000000636
                },
                {
                    "name": "F#5",
                    "midi": 78,
                    "time": 250.95569525000073,
                    "velocity": 0.5590551181102362,
                    "duration": 0.27307475000000636
                },
                {
                    "name": "C6",
                    "midi": 84,
                    "time": 251.22877000000074,
                    "velocity": 0.5984251968503937,
                    "duration": 0.27307475000000636
                },
                {
                    "name": "A5",
                    "midi": 81,
                    "time": 251.50184475000074,
                    "velocity": 0.5748031496062992,
                    "duration": 0.27307475000000636
                },
                {
                    "name": "D#6",
                    "midi": 87,
                    "time": 251.77491950000075,
                    "velocity": 0.6377952755905512,
                    "duration": 0.27307475000000636
                },
                {
                    "name": "F#5",
                    "midi": 78,
                    "time": 252.04799425000076,
                    "velocity": 0.5905511811023622,
                    "duration": 0.27307475000000636
                },
                {
                    "name": "D6",
                    "midi": 86,
                    "time": 252.32106900000076,
                    "velocity": 0.6692913385826772,
                    "duration": 1.3653737500000034
                },
                {
                    "name": "A5",
                    "midi": 81,
                    "time": 253.68644275000077,
                    "velocity": 0.5039370078740157,
                    "duration": 0.32768970000000763
                },
                {
                    "name": "A#5",
                    "midi": 82,
                    "time": 253.95951750000077,
                    "velocity": 0.5511811023622047,
                    "duration": 0.32768970000000763
                },
                {
                    "name": "F#5",
                    "midi": 78,
                    "time": 254.23259225000078,
                    "velocity": 0.4645669291338583,
                    "duration": 0.32768970000000763
                },
                {
                    "name": "G5",
                    "midi": 79,
                    "time": 254.50566700000078,
                    "velocity": 0.5196850393700787,
                    "duration": 0.32768970000000763
                },
                {
                    "name": "C#5",
                    "midi": 73,
                    "time": 254.7787417500008,
                    "velocity": 0.4251968503937008,
                    "duration": 0.32768970000000763
                },
                {
                    "name": "D5",
                    "midi": 74,
                    "time": 255.0518165000008,
                    "velocity": 0.47244094488188976,
                    "duration": 0.32768970000000763
                },
                {
                    "name": "A#4",
                    "midi": 70,
                    "time": 255.3248912500008,
                    "velocity": 0.36220472440944884,
                    "duration": 0.261696635416655
                },
                {
                    "name": "A#4",
                    "midi": 70,
                    "time": 255.59796600000078,
                    "velocity": 0.44881889763779526,
                    "duration": 0.27307475000000636
                },
                {
                    "name": "A4",
                    "midi": 69,
                    "time": 255.8710407500008,
                    "velocity": 0.3858267716535433,
                    "duration": 0.27307475000000636
                },
                {
                    "name": "C5",
                    "midi": 72,
                    "time": 256.1441155000008,
                    "velocity": 0.36220472440944884,
                    "duration": 0.27307474999997794
                },
                {
                    "name": "D#5",
                    "midi": 75,
                    "time": 256.4171902500008,
                    "velocity": 0.36220472440944884,
                    "duration": 0.27307474999997794
                },
                {
                    "name": "G4",
                    "midi": 67,
                    "time": 256.69026500000075,
                    "velocity": 0.41732283464566927,
                    "duration": 0.8192242499999907
                },
                {
                    "name": "G4",
                    "midi": 67,
                    "time": 257.50948925000074,
                    "velocity": 0.36220472440944884,
                    "duration": 0.27307474999997794
                },
                {
                    "name": "A#4",
                    "midi": 70,
                    "time": 257.7825640000007,
                    "velocity": 0.41732283464566927,
                    "duration": 0.3276896999999508
                },
                {
                    "name": "A4",
                    "midi": 69,
                    "time": 258.0556387500007,
                    "velocity": 0.3464566929133858,
                    "duration": 0.3276896999999508
                },
                {
                    "name": "G4",
                    "midi": 67,
                    "time": 258.3287135000007,
                    "velocity": 0.4094488188976378,
                    "duration": 0.3276896999999508
                },
                {
                    "name": "A4",
                    "midi": 69,
                    "time": 258.60178825000065,
                    "velocity": 0.3543307086614173,
                    "duration": 0.2616966354166266
                },
                {
                    "name": "F#4",
                    "midi": 66,
                    "time": 258.87486300000063,
                    "velocity": 0.4015748031496063,
                    "duration": 1.0922990000000254
                },
                {
                    "name": "A4",
                    "midi": 69,
                    "time": 258.87486300000063,
                    "velocity": 0.48031496062992124,
                    "duration": 1.0922990000000254
                },
                {
                    "name": "G4",
                    "midi": 67,
                    "time": 259.96716200000066,
                    "velocity": 0.41732283464566927,
                    "duration": 0.30038222499996436
                },
                {
                    "name": "F#4",
                    "midi": 66,
                    "time": 260.24023675000063,
                    "velocity": 0.33858267716535434,
                    "duration": 0.30038222499996436
                },
                {
                    "name": "G4",
                    "midi": 67,
                    "time": 260.5133115000006,
                    "velocity": 0.3779527559055118,
                    "duration": 0.30038222499996436
                },
                {
                    "name": "G#4",
                    "midi": 68,
                    "time": 260.7863862500006,
                    "velocity": 0.33070866141732286,
                    "duration": 0.30038222499996436
                },
                {
                    "name": "A4",
                    "midi": 69,
                    "time": 261.05946100000057,
                    "velocity": 0.3779527559055118,
                    "duration": 0.30038222499996436
                },
                {
                    "name": "G#4",
                    "midi": 68,
                    "time": 261.33253575000055,
                    "velocity": 0.36220472440944884,
                    "duration": 0.30038222499996436
                },
                {
                    "name": "A4",
                    "midi": 69,
                    "time": 261.6056105000005,
                    "velocity": 0.33858267716535434,
                    "duration": 0.30038222499996436
                },
                {
                    "name": "A#4",
                    "midi": 70,
                    "time": 261.8786852500005,
                    "velocity": 0.3228346456692913,
                    "duration": 0.30038222499996436
                },
                {
                    "name": "B4",
                    "midi": 71,
                    "time": 262.1517600000005,
                    "velocity": 0.3779527559055118,
                    "duration": 2.184597999999994
                },
                {
                    "name": "D5",
                    "midi": 74,
                    "time": 264.3363580000005,
                    "velocity": 0.3937007874015748,
                    "duration": 0.3276896999999508
                },
                {
                    "name": "C5",
                    "midi": 72,
                    "time": 264.60943275000045,
                    "velocity": 0.36220472440944884,
                    "duration": 0.3276896999999508
                },
                {
                    "name": "B4",
                    "midi": 71,
                    "time": 264.88250750000043,
                    "velocity": 0.36220472440944884,
                    "duration": 0.3276896999999508
                },
                {
                    "name": "C5",
                    "midi": 72,
                    "time": 265.1555822500004,
                    "velocity": 0.3779527559055118,
                    "duration": 0.3276896999999508
                },
                {
                    "name": "D5",
                    "midi": 74,
                    "time": 265.4286570000004,
                    "velocity": 0.4251968503937008,
                    "duration": 0.8192242499999907
                },
                {
                    "name": "B4",
                    "midi": 71,
                    "time": 266.2478812500004,
                    "velocity": 0.3700787401574803,
                    "duration": 0.27307474999997794
                },
                {
                    "name": "G4",
                    "midi": 67,
                    "time": 266.52095600000035,
                    "velocity": 0.3700787401574803,
                    "duration": 1.0922990000000254
                },
                {
                    "name": "G5",
                    "midi": 79,
                    "time": 268.7055540000004,
                    "velocity": 0.5275590551181102,
                    "duration": 1.6384484999999813
                },
                {
                    "name": "A5",
                    "midi": 81,
                    "time": 270.3440025000004,
                    "velocity": 0.4881889763779528,
                    "duration": 0.3276896999999508
                },
                {
                    "name": "G5",
                    "midi": 79,
                    "time": 270.61707725000036,
                    "velocity": 0.4330708661417323,
                    "duration": 0.3276896999999508
                },
                {
                    "name": "F#5",
                    "midi": 78,
                    "time": 270.89015200000034,
                    "velocity": 0.44881889763779526,
                    "duration": 0.3276896999999508
                },
                {
                    "name": "E5",
                    "midi": 76,
                    "time": 271.1632267500003,
                    "velocity": 0.36220472440944884,
                    "duration": 0.3276896999999508
                },
                {
                    "name": "D5",
                    "midi": 74,
                    "time": 271.4363015000003,
                    "velocity": 0.4015748031496063,
                    "duration": 0.3276896999999508
                },
                {
                    "name": "C#5",
                    "midi": 73,
                    "time": 271.7093762500003,
                    "velocity": 0.36220472440944884,
                    "duration": 0.3276896999999508
                },
                {
                    "name": "D5",
                    "midi": 74,
                    "time": 271.98245100000025,
                    "velocity": 0.41732283464566927,
                    "duration": 0.8192242499999907
                },
                {
                    "name": "B4",
                    "midi": 71,
                    "time": 272.80167525000024,
                    "velocity": 0.3700787401574803,
                    "duration": 0.27307474999997794
                },
                {
                    "name": "G4",
                    "midi": 67,
                    "time": 273.0747500000002,
                    "velocity": 0.3543307086614173,
                    "duration": 1.0922990000000254
                },
                {
                    "name": "C5",
                    "midi": 72,
                    "time": 275.2593480000003,
                    "velocity": 0.3937007874015748,
                    "duration": 0.8192242499999907
                },
                {
                    "name": "A4",
                    "midi": 69,
                    "time": 276.07857225000026,
                    "velocity": 0.3700787401574803,
                    "duration": 0.27307474999997794
                },
                {
                    "name": "F#4",
                    "midi": 66,
                    "time": 276.35164700000024,
                    "velocity": 0.4094488188976378,
                    "duration": 0.27307474999997794
                },
                {
                    "name": "A4",
                    "midi": 69,
                    "time": 276.8977965000002,
                    "velocity": 0.3700787401574803,
                    "duration": 0.27307474999997794
                },
                {
                    "name": "B4",
                    "midi": 71,
                    "time": 277.44394600000015,
                    "velocity": 0.4015748031496063,
                    "duration": 0.27307474999997794
                },
                {
                    "name": "C5",
                    "midi": 72,
                    "time": 277.9900955000001,
                    "velocity": 0.4094488188976378,
                    "duration": 0.27307474999997794
                },
                {
                    "name": "D5",
                    "midi": 74,
                    "time": 278.53624500000006,
                    "velocity": 0.44881889763779526,
                    "duration": 0.8192242499999907
                },
                {
                    "name": "B4",
                    "midi": 71,
                    "time": 279.35546925000006,
                    "velocity": 0.48031496062992124,
                    "duration": 0.27307474999997794
                },
                {
                    "name": "G5",
                    "midi": 79,
                    "time": 279.62854400000003,
                    "velocity": 0.5118110236220472,
                    "duration": 1.0922990000000254
                },
                {
                    "name": "A5",
                    "midi": 81,
                    "time": 281.8131420000001,
                    "velocity": 0.5354330708661418,
                    "duration": 0.30038222499996436
                },
                {
                    "name": "G5",
                    "midi": 79,
                    "time": 282.08621675000006,
                    "velocity": 0.4645669291338583,
                    "duration": 0.30038222499996436
                },
                {
                    "name": "F#5",
                    "midi": 78,
                    "time": 282.35929150000004,
                    "velocity": 0.5039370078740157,
                    "duration": 0.30038222499996436
                },
                {
                    "name": "G5",
                    "midi": 79,
                    "time": 282.63236625,
                    "velocity": 0.4566929133858268,
                    "duration": 0.27307474999997794
                },
                {
                    "name": "F#5",
                    "midi": 78,
                    "time": 282.905441,
                    "velocity": 0.5039370078740157,
                    "duration": 0.30038222499996436
                },
                {
                    "name": "E5",
                    "midi": 76,
                    "time": 283.17851575,
                    "velocity": 0.4251968503937008,
                    "duration": 0.30038222499996436
                },
                {
                    "name": "D#5",
                    "midi": 75,
                    "time": 283.45159049999995,
                    "velocity": 0.4645669291338583,
                    "duration": 0.30038222499996436
                },
                {
                    "name": "E5",
                    "midi": 76,
                    "time": 283.72466524999993,
                    "velocity": 0.41732283464566927,
                    "duration": 0.27307474999997794
                },
                {
                    "name": "D5",
                    "midi": 74,
                    "time": 283.9977399999999,
                    "velocity": 0.4881889763779528,
                    "duration": 0.30038222499996436
                },
                {
                    "name": "C5",
                    "midi": 72,
                    "time": 284.2708147499999,
                    "velocity": 0.41732283464566927,
                    "duration": 0.30038222499996436
                },
                {
                    "name": "B4",
                    "midi": 71,
                    "time": 284.54388949999986,
                    "velocity": 0.4409448818897638,
                    "duration": 0.30038222499996436
                },
                {
                    "name": "C5",
                    "midi": 72,
                    "time": 284.81696424999984,
                    "velocity": 0.41732283464566927,
                    "duration": 0.27307474999997794
                },
                {
                    "name": "B4",
                    "midi": 71,
                    "time": 285.0900389999998,
                    "velocity": 0.4645669291338583,
                    "duration": 0.8192242499999907
                },
                {
                    "name": "C5",
                    "midi": 72,
                    "time": 285.9092632499998,
                    "velocity": 0.3937007874015748,
                    "duration": 0.13653737499998897
                },
                {
                    "name": "B4",
                    "midi": 71,
                    "time": 286.0458006249998,
                    "velocity": 0.3937007874015748,
                    "duration": 0.13653737499998897
                },
                {
                    "name": "A4",
                    "midi": 69,
                    "time": 286.1823379999998,
                    "velocity": 0.44881889763779526,
                    "duration": 0.5461495000000127
                },
                {
                    "name": "D5",
                    "midi": 74,
                    "time": 286.7284874999998,
                    "velocity": 0.4251968503937008,
                    "duration": 0.5689057291666586
                },
                {
                    "name": "C#5",
                    "midi": 73,
                    "time": 287.2746369999998,
                    "velocity": 0.4094488188976378,
                    "duration": 0.5689057291666018
                },
                {
                    "name": "C5",
                    "midi": 72,
                    "time": 287.82078649999977,
                    "velocity": 0.3937007874015748,
                    "duration": 0.5461494999999559
                },
                {
                    "name": "B4",
                    "midi": 71,
                    "time": 288.3669359999997,
                    "velocity": 0.3937007874015748,
                    "duration": 1.3653737500000034
                },
                {
                    "name": "G4",
                    "midi": 67,
                    "time": 289.73230974999973,
                    "velocity": 0.36220472440944884,
                    "duration": 0.27307474999997794
                },
                {
                    "name": "B4",
                    "midi": 71,
                    "time": 290.0053844999997,
                    "velocity": 0.3779527559055118,
                    "duration": 0.2730747500000348
                },
                {
                    "name": "D5",
                    "midi": 74,
                    "time": 290.26252988958305,
                    "velocity": 0.36220472440944884,
                    "duration": 0.2730747500000348
                },
                {
                    "name": "C5",
                    "midi": 72,
                    "time": 290.5515339999998,
                    "velocity": 0.4251968503937008,
                    "duration": 0.27307474999997794
                },
                {
                    "name": "A4",
                    "midi": 69,
                    "time": 290.82460874999975,
                    "velocity": 0.36220472440944884,
                    "duration": 0.27307474999997794
                },
                {
                    "name": "C5",
                    "midi": 72,
                    "time": 291.09768349999973,
                    "velocity": 0.4251968503937008,
                    "duration": 0.27307474999997794
                },
                {
                    "name": "E5",
                    "midi": 76,
                    "time": 291.3707582499997,
                    "velocity": 0.4015748031496063,
                    "duration": 0.27307474999997794
                },
                {
                    "name": "D5",
                    "midi": 74,
                    "time": 291.6438329999997,
                    "velocity": 0.4566929133858268,
                    "duration": 0.8192242499999907
                },
                {
                    "name": "B4",
                    "midi": 71,
                    "time": 292.4630572499997,
                    "velocity": 0.3700787401574803,
                    "duration": 0.27307474999997794
                },
                {
                    "name": "G4",
                    "midi": 67,
                    "time": 292.73613199999966,
                    "velocity": 0.3700787401574803,
                    "duration": 0.13653737499998897
                },
                {
                    "name": "G4",
                    "midi": 67,
                    "time": 293.00920674999963,
                    "velocity": 0.36220472440944884,
                    "duration": 0.13653737499998897
                },
                {
                    "name": "A4",
                    "midi": 69,
                    "time": 293.2822814999996,
                    "velocity": 0.3700787401574803,
                    "duration": 0.13653737499998897
                },
                {
                    "name": "B4",
                    "midi": 71,
                    "time": 293.5553562499996,
                    "velocity": 0.3779527559055118,
                    "duration": 0.13653737499998897
                },
                {
                    "name": "C5",
                    "midi": 72,
                    "time": 293.82843099999957,
                    "velocity": 0.3858267716535433,
                    "duration": 0.13653737499998897
                },
                {
                    "name": "D5",
                    "midi": 74,
                    "time": 294.10150574999955,
                    "velocity": 0.3937007874015748,
                    "duration": 0.13653737499998897
                },
                {
                    "name": "E5",
                    "midi": 76,
                    "time": 294.3745804999995,
                    "velocity": 0.4015748031496063,
                    "duration": 0.13653737499998897
                },
                {
                    "name": "F#5",
                    "midi": 78,
                    "time": 294.6476552499995,
                    "velocity": 0.41732283464566927,
                    "duration": 0.13653737499998897
                },
                {
                    "name": "G5",
                    "midi": 79,
                    "time": 294.9207299999995,
                    "velocity": 0.44881889763779526,
                    "duration": 0.3276896999999508
                },
                {
                    "name": "F#5",
                    "midi": 78,
                    "time": 295.19380474999946,
                    "velocity": 0.3937007874015748,
                    "duration": 0.3276896999999508
                },
                {
                    "name": "G5",
                    "midi": 79,
                    "time": 295.46687949999944,
                    "velocity": 0.4409448818897638,
                    "duration": 0.3276896999999508
                },
                {
                    "name": "F#5",
                    "midi": 78,
                    "time": 295.7399542499994,
                    "velocity": 0.4094488188976378,
                    "duration": 0.3276896999999508
                },
                {
                    "name": "A5",
                    "midi": 81,
                    "time": 296.0130289999994,
                    "velocity": 0.4645669291338583,
                    "duration": 0.3276896999999508
                },
                {
                    "name": "G5",
                    "midi": 79,
                    "time": 296.28610374999937,
                    "velocity": 0.44881889763779526,
                    "duration": 0.3276896999999508
                },
                {
                    "name": "F#5",
                    "midi": 78,
                    "time": 296.55917849999935,
                    "velocity": 0.4251968503937008,
                    "duration": 0.3276896999999508
                },
                {
                    "name": "G5",
                    "midi": 79,
                    "time": 296.8322532499993,
                    "velocity": 0.3858267716535433,
                    "duration": 0.3276896999999508
                },
                {
                    "name": "F#5",
                    "midi": 78,
                    "time": 297.1053279999993,
                    "velocity": 0.4094488188976378,
                    "duration": 0.3276896999999508
                },
                {
                    "name": "E5",
                    "midi": 76,
                    "time": 297.3784027499993,
                    "velocity": 0.3937007874015748,
                    "duration": 0.3276896999999508
                },
                {
                    "name": "D5",
                    "midi": 74,
                    "time": 297.65147749999926,
                    "velocity": 0.3779527559055118,
                    "duration": 0.3276896999999508
                },
                {
                    "name": "C#5",
                    "midi": 73,
                    "time": 297.92455224999924,
                    "velocity": 0.36220472440944884,
                    "duration": 0.3276896999999508
                },
                {
                    "name": "D5",
                    "midi": 74,
                    "time": 298.1976269999992,
                    "velocity": 0.3937007874015748,
                    "duration": 0.27307474999997794
                },
                {
                    "name": "B4",
                    "midi": 71,
                    "time": 298.4707017499992,
                    "velocity": 0.33858267716535434,
                    "duration": 0.27307474999997794
                },
                {
                    "name": "D5",
                    "midi": 74,
                    "time": 298.74377649999917,
                    "velocity": 0.3700787401574803,
                    "duration": 0.27307474999997794
                },
                {
                    "name": "B4",
                    "midi": 71,
                    "time": 299.01685124999915,
                    "velocity": 0.33858267716535434,
                    "duration": 0.27307474999997794
                },
                {
                    "name": "G4",
                    "midi": 67,
                    "time": 299.2899259999991,
                    "velocity": 0.3700787401574803,
                    "duration": 1.0922990000000254
                },
                {
                    "name": "C5",
                    "midi": 72,
                    "time": 301.4745239999992,
                    "velocity": 0.3937007874015748,
                    "duration": 0.27307474999997794
                },
                {
                    "name": "A4",
                    "midi": 69,
                    "time": 301.74759874999916,
                    "velocity": 0.36220472440944884,
                    "duration": 0.27307474999997794
                },
                {
                    "name": "C5",
                    "midi": 72,
                    "time": 302.02067349999913,
                    "velocity": 0.36220472440944884,
                    "duration": 0.27307474999997794
                },
                {
                    "name": "A4",
                    "midi": 69,
                    "time": 302.2937482499991,
                    "velocity": 0.33858267716535434,
                    "duration": 0.27307474999997794
                },
                {
                    "name": "F#4",
                    "midi": 66,
                    "time": 302.5668229999991,
                    "velocity": 0.3937007874015748,
                    "duration": 0.13653737499998897
                },
                {
                    "name": "A4",
                    "midi": 69,
                    "time": 302.83989774999907,
                    "velocity": 0.36220472440944884,
                    "duration": 0.27307474999997794
                },
                {
                    "name": "G#4",
                    "midi": 68,
                    "time": 303.11297249999905,
                    "velocity": 0.3858267716535433,
                    "duration": 0.27307474999997794
                },
                {
                    "name": "A4",
                    "midi": 69,
                    "time": 303.386047249999,
                    "velocity": 0.4015748031496063,
                    "duration": 0.27307474999997794
                },
                {
                    "name": "A#4",
                    "midi": 70,
                    "time": 303.659121999999,
                    "velocity": 0.4251968503937008,
                    "duration": 0.27307474999997794
                },
                {
                    "name": "B4",
                    "midi": 71,
                    "time": 303.932196749999,
                    "velocity": 0.4015748031496063,
                    "duration": 0.27307474999997794
                },
                {
                    "name": "C5",
                    "midi": 72,
                    "time": 304.20527149999896,
                    "velocity": 0.4251968503937008,
                    "duration": 0.27307474999997794
                },
                {
                    "name": "C#5",
                    "midi": 73,
                    "time": 304.47834624999894,
                    "velocity": 0.4409448818897638,
                    "duration": 0.27307474999997794
                },
                {
                    "name": "D5",
                    "midi": 74,
                    "time": 304.7514209999989,
                    "velocity": 0.4645669291338583,
                    "duration": 0.27307474999997794
                },
                {
                    "name": "B4",
                    "midi": 71,
                    "time": 305.0244957499989,
                    "velocity": 0.4015748031496063,
                    "duration": 0.27307474999997794
                },
                {
                    "name": "D5",
                    "midi": 74,
                    "time": 305.29757049999887,
                    "velocity": 0.4251968503937008,
                    "duration": 0.27307474999997794
                },
                {
                    "name": "B4",
                    "midi": 71,
                    "time": 305.57064524999885,
                    "velocity": 0.4015748031496063,
                    "duration": 0.27307474999997794
                },
                {
                    "name": "G5",
                    "midi": 79,
                    "time": 305.8437199999988,
                    "velocity": 0.49606299212598426,
                    "duration": 1.0922990000000254
                },
                {
                    "name": "B5",
                    "midi": 83,
                    "time": 307.20909374999883,
                    "velocity": 0.5275590551181102,
                    "duration": 0.3276896999999508
                },
                {
                    "name": "F#5",
                    "midi": 78,
                    "time": 307.4821684999988,
                    "velocity": 0.4881889763779528,
                    "duration": 0.3276896999999508
                },
                {
                    "name": "G5",
                    "midi": 79,
                    "time": 307.7552432499988,
                    "velocity": 0.4409448818897638,
                    "duration": 0.27307474999997794
                },
                {
                    "name": "D#5",
                    "midi": 75,
                    "time": 308.02831799999876,
                    "velocity": 0.4566929133858268,
                    "duration": 0.3276896999999508
                },
                {
                    "name": "E5",
                    "midi": 76,
                    "time": 308.30139274999874,
                    "velocity": 0.3858267716535433,
                    "duration": 0.3276896999999508
                },
                {
                    "name": "C5",
                    "midi": 72,
                    "time": 308.5744674999987,
                    "velocity": 0.41732283464566927,
                    "duration": 0.3276896999999508
                },
                {
                    "name": "A4",
                    "midi": 69,
                    "time": 308.8475422499987,
                    "velocity": 0.36220472440944884,
                    "duration": 0.3276896999999508
                },
                {
                    "name": "G4",
                    "midi": 67,
                    "time": 309.1206169999987,
                    "velocity": 0.41732283464566927,
                    "duration": 0.8192242499999907
                },
                {
                    "name": "G4",
                    "midi": 67,
                    "time": 309.93984124999866,
                    "velocity": 0.3464566929133858,
                    "duration": 0.27307474999997794
                },
                {
                    "name": "F#4",
                    "midi": 66,
                    "time": 310.21291599999864,
                    "velocity": 0.3700787401574803,
                    "duration": 1.0922989999999118
                },
                {
                    "name": "B4",
                    "midi": 71,
                    "time": 310.21291599999864,
                    "velocity": 0.4330708661417323,
                    "duration": 0.3276896999999508
                },
                {
                    "name": "A4",
                    "midi": 69,
                    "time": 310.4859907499986,
                    "velocity": 0.3464566929133858,
                    "duration": 0.3276896999999508
                },
                {
                    "name": "G4",
                    "midi": 67,
                    "time": 310.7590654999986,
                    "velocity": 0.3858267716535433,
                    "duration": 0.3276896999999508
                },
                {
                    "name": "A4",
                    "midi": 69,
                    "time": 311.0321402499986,
                    "velocity": 0.33070866141732286,
                    "duration": 0.27307474999997794
                },
                {
                    "name": "G4",
                    "midi": 67,
                    "time": 311.30521499999855,
                    "velocity": 0.3858267716535433,
                    "duration": 0.27307474999997794
                },
                {
                    "name": "F#4",
                    "midi": 66,
                    "time": 311.57828974999853,
                    "velocity": 0.33858267716535434,
                    "duration": 0.27307474999997794
                },
                {
                    "name": "A4",
                    "midi": 69,
                    "time": 311.8513644999985,
                    "velocity": 0.3858267716535433,
                    "duration": 0.27307474999997794
                },
                {
                    "name": "G4",
                    "midi": 67,
                    "time": 312.1244392499985,
                    "velocity": 0.33858267716535434,
                    "duration": 0.27307474999997794
                },
                {
                    "name": "B4",
                    "midi": 71,
                    "time": 312.39751399999847,
                    "velocity": 0.3858267716535433,
                    "duration": 0.27307474999997794
                },
                {
                    "name": "A4",
                    "midi": 69,
                    "time": 312.67058874999844,
                    "velocity": 0.33070866141732286,
                    "duration": 0.27307474999997794
                },
                {
                    "name": "C5",
                    "midi": 72,
                    "time": 312.9436634999984,
                    "velocity": 0.3779527559055118,
                    "duration": 0.27307474999997794
                },
                {
                    "name": "B4",
                    "midi": 71,
                    "time": 313.2167382499984,
                    "velocity": 0.31496062992125984,
                    "duration": 0.27307474999997794
                },
                {
                    "name": "D5",
                    "midi": 74,
                    "time": 313.4898129999984,
                    "velocity": 0.41732283464566927,
                    "duration": 0.27307474999997794
                },
                {
                    "name": "C5",
                    "midi": 72,
                    "time": 313.76288774999836,
                    "velocity": 0.36220472440944884,
                    "duration": 0.27307474999997794
                },
                {
                    "name": "E5",
                    "midi": 76,
                    "time": 314.03596249999833,
                    "velocity": 0.4409448818897638,
                    "duration": 0.27307474999997794
                },
                {
                    "name": "D5",
                    "midi": 74,
                    "time": 314.3090372499983,
                    "velocity": 0.41732283464566927,
                    "duration": 0.27307474999997794
                },
                {
                    "name": "F5",
                    "midi": 77,
                    "time": 314.5821119999983,
                    "velocity": 0.4645669291338583,
                    "duration": 1.6384484999999813
                },
                {
                    "name": "G5",
                    "midi": 79,
                    "time": 316.22056049999827,
                    "velocity": 0.4409448818897638,
                    "duration": 0.3276896999999508
                },
                {
                    "name": "A5",
                    "midi": 81,
                    "time": 316.49363524999825,
                    "velocity": 0.3937007874015748,
                    "duration": 0.3276896999999508
                },
                {
                    "name": "G5",
                    "midi": 79,
                    "time": 316.7667099999982,
                    "velocity": 0.4409448818897638,
                    "duration": 0.3276896999999508
                },
                {
                    "name": "F5",
                    "midi": 77,
                    "time": 317.0397847499982,
                    "velocity": 0.3937007874015748,
                    "duration": 0.3276896999999508
                },
                {
                    "name": "E5",
                    "midi": 76,
                    "time": 317.3128594999982,
                    "velocity": 0.4251968503937008,
                    "duration": 0.3276896999999508
                },
                {
                    "name": "D5",
                    "midi": 74,
                    "time": 317.58593424999816,
                    "velocity": 0.4015748031496063,
                    "duration": 0.27307474999997794
                },
                {
                    "name": "D#5",
                    "midi": 75,
                    "time": 317.85900899999814,
                    "velocity": 0.47244094488188976,
                    "duration": 1.0922990000000254
                },
                {
                    "name": "E5",
                    "midi": 76,
                    "time": 318.95130799999816,
                    "velocity": 0.4330708661417323,
                    "duration": 1.0922990000000254
                },
                {
                    "name": "G5",
                    "midi": 79,
                    "time": 320.31668174999817,
                    "velocity": 0.48031496062992124,
                    "duration": 0.3276896999999508
                },
                {
                    "name": "F#5",
                    "midi": 78,
                    "time": 320.58975649999815,
                    "velocity": 0.4330708661417323,
                    "duration": 0.3276896999999508
                },
                {
                    "name": "E5",
                    "midi": 76,
                    "time": 320.8628312499981,
                    "velocity": 0.4566929133858268,
                    "duration": 0.3276896999999508
                },
                {
                    "name": "D5",
                    "midi": 74,
                    "time": 321.1359059999981,
                    "velocity": 0.4566929133858268,
                    "duration": 0.3276896999999508
                },
                {
                    "name": "B4",
                    "midi": 71,
                    "time": 321.4089807499981,
                    "velocity": 0.3858267716535433,
                    "duration": 0.3276896999999508
                },
                {
                    "name": "A4",
                    "midi": 69,
                    "time": 321.68205549999806,
                    "velocity": 0.41732283464566927,
                    "duration": 0.3276896999999508
                },
                {
                    "name": "E5",
                    "midi": 76,
                    "time": 321.95513024999804,
                    "velocity": 0.36220472440944884,
                    "duration": 0.27307474999997794
                },
                {
                    "name": "G4",
                    "midi": 67,
                    "time": 322.228204999998,
                    "velocity": 0.41732283464566927,
                    "duration": 0.8192242499999907
                },
                {
                    "name": "G4",
                    "midi": 67,
                    "time": 323.047429249998,
                    "velocity": 0.3464566929133858,
                    "duration": 0.27307474999997794
                },
                {
                    "name": "F#4",
                    "midi": 66,
                    "time": 323.320503999998,
                    "velocity": 0.3700787401574803,
                    "duration": 1.0922989999999118
                },
                {
                    "name": "B4",
                    "midi": 71,
                    "time": 323.320503999998,
                    "velocity": 0.4330708661417323,
                    "duration": 0.3276896999999508
                },
                {
                    "name": "A4",
                    "midi": 69,
                    "time": 323.59357874999796,
                    "velocity": 0.3464566929133858,
                    "duration": 0.3276896999999508
                },
                {
                    "name": "G4",
                    "midi": 67,
                    "time": 323.86665349999794,
                    "velocity": 0.3858267716535433,
                    "duration": 0.3276896999999508
                },
                {
                    "name": "A4",
                    "midi": 69,
                    "time": 324.1397282499979,
                    "velocity": 0.33070866141732286,
                    "duration": 0.27307474999997794
                },
                {
                    "name": "G4",
                    "midi": 67,
                    "time": 324.4128029999979,
                    "velocity": 0.3858267716535433,
                    "duration": 0.27307474999997794
                },
                {
                    "name": "F#4",
                    "midi": 66,
                    "time": 324.68587774999787,
                    "velocity": 0.33858267716535434,
                    "duration": 0.27307474999997794
                },
                {
                    "name": "A4",
                    "midi": 69,
                    "time": 324.95895249999785,
                    "velocity": 0.4094488188976378,
                    "duration": 0.27307474999997794
                },
                {
                    "name": "G4",
                    "midi": 67,
                    "time": 325.2320272499978,
                    "velocity": 0.3700787401574803,
                    "duration": 0.27307474999997794
                },
                {
                    "name": "B4",
                    "midi": 71,
                    "time": 325.5051019999978,
                    "velocity": 0.4409448818897638,
                    "duration": 0.27307474999997794
                },
                {
                    "name": "A4",
                    "midi": 69,
                    "time": 325.7781767499978,
                    "velocity": 0.4094488188976378,
                    "duration": 0.27307474999997794
                },
                {
                    "name": "C5",
                    "midi": 72,
                    "time": 326.05125149999776,
                    "velocity": 0.44881889763779526,
                    "duration": 0.27307474999997794
                },
                {
                    "name": "B4",
                    "midi": 71,
                    "time": 326.32432624999774,
                    "velocity": 0.44881889763779526,
                    "duration": 0.27307474999997794
                },
                {
                    "name": "D5",
                    "midi": 74,
                    "time": 326.5974009999977,
                    "velocity": 0.49606299212598426,
                    "duration": 0.27307474999997794
                },
                {
                    "name": "C5",
                    "midi": 72,
                    "time": 326.8704757499977,
                    "velocity": 0.4881889763779528,
                    "duration": 0.27307474999997794
                },
                {
                    "name": "E5",
                    "midi": 76,
                    "time": 327.1435504999977,
                    "velocity": 0.5196850393700787,
                    "duration": 0.27307474999997794
                },
                {
                    "name": "D5",
                    "midi": 74,
                    "time": 327.41662524999765,
                    "velocity": 0.5118110236220472,
                    "duration": 0.27307474999997794
                },
                {
                    "name": "F5",
                    "midi": 77,
                    "time": 327.68969999999763,
                    "velocity": 0.5905511811023622,
                    "duration": 1.6384484999999813
                },
                {
                    "name": "G5",
                    "midi": 79,
                    "time": 329.3281484999976,
                    "velocity": 0.5669291338582677,
                    "duration": 0.3276896999999508
                },
                {
                    "name": "A5",
                    "midi": 81,
                    "time": 329.6012232499976,
                    "velocity": 0.5275590551181102,
                    "duration": 0.3276896999999508
                },
                {
                    "name": "G5",
                    "midi": 79,
                    "time": 329.87429799999757,
                    "velocity": 0.5905511811023622,
                    "duration": 0.3276896999999508
                },
                {
                    "name": "F5",
                    "midi": 77,
                    "time": 330.14737274999754,
                    "velocity": 0.5590551181102362,
                    "duration": 0.3276896999999508
                },
                {
                    "name": "E5",
                    "midi": 76,
                    "time": 330.4204474999975,
                    "velocity": 0.5905511811023622,
                    "duration": 0.3276896999999508
                },
                {
                    "name": "D5",
                    "midi": 74,
                    "time": 330.6935222499975,
                    "velocity": 0.5748031496062992,
                    "duration": 0.27307474999997794
                },
                {
                    "name": "E5",
                    "midi": 76,
                    "time": 330.9665969999975,
                    "velocity": 0.5984251968503937,
                    "duration": 1.0922990000000254
                },
                {
                    "name": "F#5",
                    "midi": 78,
                    "time": 332.0588959999975,
                    "velocity": 0.5826771653543307,
                    "duration": 1.0922990000000254
                },
                {
                    "name": "G5",
                    "midi": 79,
                    "time": 333.15119499999753,
                    "velocity": 0.6062992125984252,
                    "duration": 1.0922990000000254
                },
                {
                    "name": "G4",
                    "midi": 67,
                    "time": 334.24349399999755,
                    "velocity": 0.5118110236220472,
                    "duration": 1.6384484999999813
                },
                {
                    "name": "A4",
                    "midi": 69,
                    "time": 335.88194249999754,
                    "velocity": 0.3464566929133858,
                    "duration": 0.13653737499998897
                },
                {
                    "name": "G4",
                    "midi": 67,
                    "time": 336.0184798749975,
                    "velocity": 0.3464566929133858,
                    "duration": 0.13653737499998897
                },
                {
                    "name": "F#4",
                    "midi": 66,
                    "time": 336.1550172499975,
                    "velocity": 0.3464566929133858,
                    "duration": 0.13653737499998897
                },
                {
                    "name": "G4",
                    "midi": 67,
                    "time": 336.2915546249975,
                    "velocity": 0.3464566929133858,
                    "duration": 0.13653737499998897
                },
                {
                    "name": "F#4",
                    "midi": 66,
                    "time": 336.4280919999975,
                    "velocity": 0.3700787401574803,
                    "duration": 1.0922990000000254
                },
                {
                    "name": "B4",
                    "midi": 71,
                    "time": 336.4280919999975,
                    "velocity": 0.4330708661417323,
                    "duration": 0.5461495000000127
                },
                {
                    "name": "A4",
                    "midi": 69,
                    "time": 336.9742414999975,
                    "velocity": 0.3858267716535433,
                    "duration": 0.5461495000000127
                },
                {
                    "name": "G4",
                    "midi": 67,
                    "time": 337.5203909999975,
                    "velocity": 0.3858267716535433,
                    "duration": 0.27307474999997794
                },
                {
                    "name": "D4",
                    "midi": 62,
                    "time": 337.7934657499975,
                    "velocity": 0.31496062992125984,
                    "duration": 0.27307474999997794
                },
                {
                    "name": "B4",
                    "midi": 71,
                    "time": 338.0665404999975,
                    "velocity": 0.3464566929133858,
                    "duration": 0.09102491666664037
                },
                {
                    "name": "B4",
                    "midi": 71,
                    "time": 338.33961524999745,
                    "velocity": 0.3464566929133858,
                    "duration": 0.09102491666664037
                },
                {
                    "name": "B4",
                    "midi": 71,
                    "time": 338.61268999999743,
                    "velocity": 0.3858267716535433,
                    "duration": 0.27307474999997794
                },
                {
                    "name": "G4",
                    "midi": 67,
                    "time": 338.8857647499974,
                    "velocity": 0.3228346456692913,
                    "duration": 0.27307474999997794
                },
                {
                    "name": "D5",
                    "midi": 74,
                    "time": 339.1588394999974,
                    "velocity": 0.3543307086614173,
                    "duration": 0.09102491666664037
                },
                {
                    "name": "D5",
                    "midi": 74,
                    "time": 339.43191424999736,
                    "velocity": 0.3543307086614173,
                    "duration": 0.09102491666664037
                },
                {
                    "name": "D5",
                    "midi": 74,
                    "time": 339.70498899999734,
                    "velocity": 0.3858267716535433,
                    "duration": 0.27307474999997794
                },
                {
                    "name": "B4",
                    "midi": 71,
                    "time": 339.9780637499973,
                    "velocity": 0.33070866141732286,
                    "duration": 0.27307474999997794
                },
                {
                    "name": "A4",
                    "midi": 69,
                    "time": 340.2511384999973,
                    "velocity": 0.3543307086614173,
                    "duration": 0.27307474999997794
                },
                {
                    "name": "B4",
                    "midi": 71,
                    "time": 340.5242132499973,
                    "velocity": 0.31496062992125984,
                    "duration": 0.27307474999997794
                },
                {
                    "name": "G4",
                    "midi": 67,
                    "time": 340.79728799999725,
                    "velocity": 0.3858267716535433,
                    "duration": 0.27307474999997794
                },
                {
                    "name": "D4",
                    "midi": 62,
                    "time": 341.07036274999723,
                    "velocity": 0.31496062992125984,
                    "duration": 0.27307474999997794
                },
                {
                    "name": "B4",
                    "midi": 71,
                    "time": 341.3434374999972,
                    "velocity": 0.3464566929133858,
                    "duration": 0.09102491666664037
                },
                {
                    "name": "B4",
                    "midi": 71,
                    "time": 341.6165122499972,
                    "velocity": 0.3464566929133858,
                    "duration": 0.09102491666664037
                },
                {
                    "name": "B4",
                    "midi": 71,
                    "time": 341.88958699999716,
                    "velocity": 0.3858267716535433,
                    "duration": 0.27307474999997794
                },
                {
                    "name": "G4",
                    "midi": 67,
                    "time": 342.16266174999714,
                    "velocity": 0.3228346456692913,
                    "duration": 0.27307474999997794
                },
                {
                    "name": "D5",
                    "midi": 74,
                    "time": 342.4357364999971,
                    "velocity": 0.3543307086614173,
                    "duration": 0.09102491666664037
                },
                {
                    "name": "D5",
                    "midi": 74,
                    "time": 342.7088112499971,
                    "velocity": 0.3543307086614173,
                    "duration": 0.09102491666664037
                },
                {
                    "name": "D5",
                    "midi": 74,
                    "time": 342.9818859999971,
                    "velocity": 0.3858267716535433,
                    "duration": 0.27307474999997794
                },
                {
                    "name": "B4",
                    "midi": 71,
                    "time": 343.25496074999705,
                    "velocity": 0.33070866141732286,
                    "duration": 0.27307474999997794
                },
                {
                    "name": "A4",
                    "midi": 69,
                    "time": 343.52803549999703,
                    "velocity": 0.3543307086614173,
                    "duration": 0.27307474999997794
                },
                {
                    "name": "B4",
                    "midi": 71,
                    "time": 343.801110249997,
                    "velocity": 0.31496062992125984,
                    "duration": 0.27307474999997794
                },
                {
                    "name": "G4",
                    "midi": 67,
                    "time": 344.074184999997,
                    "velocity": 0.3543307086614173,
                    "duration": 0.5461495000000127
                },
                {
                    "name": "B3",
                    "midi": 59,
                    "time": 345.166483999997,
                    "velocity": 0.2992125984251969,
                    "duration": 0.5461495000000127
                },
                {
                    "name": "G4",
                    "midi": 67,
                    "time": 345.166483999997,
                    "velocity": 0.2992125984251969,
                    "duration": 0.5461495000000127
                }
            ],
            "controlChanges": {},
            "id": 1,
            "name": "Piano right",
            "instrumentNumber": 0,
            "instrument": "acoustic grand piano",
            "instrumentFamily": "piano",
            "channelNumber": 0,
            "isPercussion": false
        },
        {
            "startTime": 0,
            "duration": 345.7126334999986,
            "length": 1104,
            "notes": [
                {
                    "name": "G3",
                    "midi": 55,
                    "time": 0,
                    "velocity": 0.31496062992125984,
                    "duration": 0.27307475000000003
                },
                {
                    "name": "D4",
                    "midi": 62,
                    "time": 0.27307475000000003,
                    "velocity": 0.1732283464566929,
                    "duration": 0.27307475000000003
                },
                {
                    "name": "B3",
                    "midi": 59,
                    "time": 0.5461495000000001,
                    "velocity": 0.1968503937007874,
                    "duration": 0.27307475000000003
                },
                {
                    "name": "D4",
                    "midi": 62,
                    "time": 0.8192242500000001,
                    "velocity": 0.1889763779527559,
                    "duration": 0.27307475000000003
                },
                {
                    "name": "G3",
                    "midi": 55,
                    "time": 1.0922990000000001,
                    "velocity": 0.31496062992125984,
                    "duration": 0.27307475000000014
                },
                {
                    "name": "D4",
                    "midi": 62,
                    "time": 1.3653737500000003,
                    "velocity": 0.2283464566929134,
                    "duration": 0.27307475000000014
                },
                {
                    "name": "B3",
                    "midi": 59,
                    "time": 1.6384485000000004,
                    "velocity": 0.2755905511811024,
                    "duration": 0.27307475000000014
                },
                {
                    "name": "D4",
                    "midi": 62,
                    "time": 1.9115232500000006,
                    "velocity": 0.23622047244094488,
                    "duration": 0.27307475000000014
                },
                {
                    "name": "A3",
                    "midi": 57,
                    "time": 2.1845980000000007,
                    "velocity": 0.31496062992125984,
                    "duration": 0.27307475000000014
                },
                {
                    "name": "D4",
                    "midi": 62,
                    "time": 2.457672750000001,
                    "velocity": 0.25196850393700787,
                    "duration": 0.27307475000000014
                },
                {
                    "name": "C4",
                    "midi": 60,
                    "time": 2.730747500000001,
                    "velocity": 0.31496062992125984,
                    "duration": 0.27307475000000014
                },
                {
                    "name": "D4",
                    "midi": 62,
                    "time": 3.003822250000001,
                    "velocity": 0.2755905511811024,
                    "duration": 0.27307475000000014
                },
                {
                    "name": "G3",
                    "midi": 55,
                    "time": 3.2768970000000013,
                    "velocity": 0.33858267716535434,
                    "duration": 0.27307475000000014
                },
                {
                    "name": "D4",
                    "midi": 62,
                    "time": 3.5499717500000014,
                    "velocity": 0.2204724409448819,
                    "duration": 0.27307475000000014
                },
                {
                    "name": "B3",
                    "midi": 59,
                    "time": 3.8230465000000016,
                    "velocity": 0.25196850393700787,
                    "duration": 0.2730747499999997
                },
                {
                    "name": "D4",
                    "midi": 62,
                    "time": 4.096121250000001,
                    "velocity": 0.2204724409448819,
                    "duration": 0.27307475000000014
                },
                {
                    "name": "G3",
                    "midi": 55,
                    "time": 4.369196000000001,
                    "velocity": 0.31496062992125984,
                    "duration": 0.27307475000000014
                },
                {
                    "name": "D4",
                    "midi": 62,
                    "time": 4.6422707500000016,
                    "velocity": 0.2283464566929134,
                    "duration": 0.27307475000000014
                },
                {
                    "name": "B3",
                    "midi": 59,
                    "time": 4.915345500000002,
                    "velocity": 0.30708661417322836,
                    "duration": 0.27307475000000014
                },
                {
                    "name": "D4",
                    "midi": 62,
                    "time": 5.188420250000002,
                    "velocity": 0.28346456692913385,
                    "duration": 0.27307475000000014
                },
                {
                    "name": "G3",
                    "midi": 55,
                    "time": 5.461495000000002,
                    "velocity": 0.3779527559055118,
                    "duration": 0.27307475000000014
                },
                {
                    "name": "D4",
                    "midi": 62,
                    "time": 5.734569750000002,
                    "velocity": 0.2992125984251969,
                    "duration": 0.27307475000000014
                },
                {
                    "name": "B3",
                    "midi": 59,
                    "time": 6.007644500000002,
                    "velocity": 0.3779527559055118,
                    "duration": 0.27307475000000014
                },
                {
                    "name": "D4",
                    "midi": 62,
                    "time": 6.280719250000002,
                    "velocity": 0.3543307086614173,
                    "duration": 0.27307475000000014
                },
                {
                    "name": "G3",
                    "midi": 55,
                    "time": 6.553794000000003,
                    "velocity": 0.41732283464566927,
                    "duration": 0.27307475000000014
                },
                {
                    "name": "E4",
                    "midi": 64,
                    "time": 6.826868750000003,
                    "velocity": 0.29133858267716534,
                    "duration": 0.27307475000000014
                },
                {
                    "name": "C4",
                    "midi": 60,
                    "time": 7.099943500000003,
                    "velocity": 0.3700787401574803,
                    "duration": 0.27307475000000014
                },
                {
                    "name": "E4",
                    "midi": 64,
                    "time": 7.373018250000003,
                    "velocity": 0.3228346456692913,
                    "duration": 0.27307475000000014
                },
                {
                    "name": "G3",
                    "midi": 55,
                    "time": 7.646093000000003,
                    "velocity": 0.3464566929133858,
                    "duration": 0.27307475000000014
                },
                {
                    "name": "E4",
                    "midi": 64,
                    "time": 7.919167750000003,
                    "velocity": 0.2677165354330709,
                    "duration": 0.27307474999999926
                },
                {
                    "name": "C4",
                    "midi": 60,
                    "time": 8.192242500000003,
                    "velocity": 0.30708661417322836,
                    "duration": 0.27307474999999926
                },
                {
                    "name": "E4",
                    "midi": 64,
                    "time": 8.465317250000002,
                    "velocity": 0.2677165354330709,
                    "duration": 0.27307474999999926
                },
                {
                    "name": "G3",
                    "midi": 55,
                    "time": 8.738392000000001,
                    "velocity": 0.31496062992125984,
                    "duration": 0.27307474999999926
                },
                {
                    "name": "C#4",
                    "midi": 61,
                    "time": 9.01146675,
                    "velocity": 0.2047244094488189,
                    "duration": 0.27307474999999926
                },
                {
                    "name": "A#3",
                    "midi": 58,
                    "time": 9.2845415,
                    "velocity": 0.2677165354330709,
                    "duration": 0.27307474999999926
                },
                {
                    "name": "C#4",
                    "midi": 61,
                    "time": 9.557616249999999,
                    "velocity": 0.2125984251968504,
                    "duration": 0.27307474999999926
                },
                {
                    "name": "G3",
                    "midi": 55,
                    "time": 9.830690999999998,
                    "velocity": 0.31496062992125984,
                    "duration": 0.27307474999999926
                },
                {
                    "name": "D4",
                    "midi": 62,
                    "time": 10.103765749999997,
                    "velocity": 0.2047244094488189,
                    "duration": 0.27307474999999926
                },
                {
                    "name": "B3",
                    "midi": 59,
                    "time": 10.376840499999997,
                    "velocity": 0.2440944881889764,
                    "duration": 0.27307474999999926
                },
                {
                    "name": "D4",
                    "midi": 62,
                    "time": 10.649915249999996,
                    "velocity": 0.2125984251968504,
                    "duration": 0.27307474999999926
                },
                {
                    "name": "G3",
                    "midi": 55,
                    "time": 10.922989999999995,
                    "velocity": 0.31496062992125984,
                    "duration": 0.27307474999999926
                },
                {
                    "name": "D4",
                    "midi": 62,
                    "time": 11.196064749999994,
                    "velocity": 0.2047244094488189,
                    "duration": 0.27307474999999926
                },
                {
                    "name": "B3",
                    "midi": 59,
                    "time": 11.469139499999994,
                    "velocity": 0.23622047244094488,
                    "duration": 0.27307474999999926
                },
                {
                    "name": "D4",
                    "midi": 62,
                    "time": 11.742214249999993,
                    "velocity": 0.2125984251968504,
                    "duration": 0.27307474999999926
                },
                {
                    "name": "G3",
                    "midi": 55,
                    "time": 12.015288999999992,
                    "velocity": 0.3228346456692913,
                    "duration": 0.27307474999999926
                },
                {
                    "name": "D4",
                    "midi": 62,
                    "time": 12.288363749999991,
                    "velocity": 0.1968503937007874,
                    "duration": 0.27307474999999926
                },
                {
                    "name": "B3",
                    "midi": 59,
                    "time": 12.56143849999999,
                    "velocity": 0.23622047244094488,
                    "duration": 0.27307474999999926
                },
                {
                    "name": "D4",
                    "midi": 62,
                    "time": 12.83451324999999,
                    "velocity": 0.1968503937007874,
                    "duration": 0.27307474999999926
                },
                {
                    "name": "A3",
                    "midi": 57,
                    "time": 13.10758799999999,
                    "velocity": 0.31496062992125984,
                    "duration": 0.27307474999999926
                },
                {
                    "name": "D4",
                    "midi": 62,
                    "time": 13.380662749999988,
                    "velocity": 0.2125984251968504,
                    "duration": 0.27307474999999926
                },
                {
                    "name": "C4",
                    "midi": 60,
                    "time": 13.653737499999988,
                    "velocity": 0.25196850393700787,
                    "duration": 0.27307474999999926
                },
                {
                    "name": "D4",
                    "midi": 62,
                    "time": 13.926812249999987,
                    "velocity": 0.2125984251968504,
                    "duration": 0.27307474999999926
                },
                {
                    "name": "A3",
                    "midi": 57,
                    "time": 14.199886999999986,
                    "velocity": 0.31496062992125984,
                    "duration": 0.27307474999999926
                },
                {
                    "name": "D4",
                    "midi": 62,
                    "time": 14.472961749999985,
                    "velocity": 0.23622047244094488,
                    "duration": 0.27307474999999926
                },
                {
                    "name": "C4",
                    "midi": 60,
                    "time": 14.746036499999985,
                    "velocity": 0.25984251968503935,
                    "duration": 0.27307474999999926
                },
                {
                    "name": "D4",
                    "midi": 62,
                    "time": 15.019111249999984,
                    "velocity": 0.2204724409448819,
                    "duration": 0.27307474999999926
                },
                {
                    "name": "A3",
                    "midi": 57,
                    "time": 15.292185999999983,
                    "velocity": 0.3464566929133858,
                    "duration": 0.27307474999999926
                },
                {
                    "name": "D4",
                    "midi": 62,
                    "time": 15.565260749999982,
                    "velocity": 0.25984251968503935,
                    "duration": 0.27307474999999926
                },
                {
                    "name": "C4",
                    "midi": 60,
                    "time": 15.838335499999982,
                    "velocity": 0.31496062992125984,
                    "duration": 0.27307474999999926
                },
                {
                    "name": "D4",
                    "midi": 62,
                    "time": 16.11141024999998,
                    "velocity": 0.25984251968503935,
                    "duration": 0.27307474999999926
                },
                {
                    "name": "G3",
                    "midi": 55,
                    "time": 16.38448499999998,
                    "velocity": 0.36220472440944884,
                    "duration": 0.27307474999999926
                },
                {
                    "name": "D4",
                    "midi": 62,
                    "time": 16.65755974999998,
                    "velocity": 0.25984251968503935,
                    "duration": 0.27307474999999926
                },
                {
                    "name": "B3",
                    "midi": 59,
                    "time": 16.93063449999998,
                    "velocity": 0.31496062992125984,
                    "duration": 0.27307474999999926
                },
                {
                    "name": "D4",
                    "midi": 62,
                    "time": 17.203709249999978,
                    "velocity": 0.29133858267716534,
                    "duration": 0.27307474999999926
                },
                {
                    "name": "E3",
                    "midi": 52,
                    "time": 17.476783999999977,
                    "velocity": 0.36220472440944884,
                    "duration": 0.27307474999999926
                },
                {
                    "name": "B3",
                    "midi": 59,
                    "time": 17.749858749999976,
                    "velocity": 0.2992125984251969,
                    "duration": 0.27307474999999926
                },
                {
                    "name": "G3",
                    "midi": 55,
                    "time": 18.022933499999976,
                    "velocity": 0.33070866141732286,
                    "duration": 0.27307474999999926
                },
                {
                    "name": "B3",
                    "midi": 59,
                    "time": 18.296008249999975,
                    "velocity": 0.2992125984251969,
                    "duration": 0.27307474999999926
                },
                {
                    "name": "B2",
                    "midi": 47,
                    "time": 18.569082999999974,
                    "velocity": 0.41732283464566927,
                    "duration": 0.27307474999999926
                },
                {
                    "name": "G3",
                    "midi": 55,
                    "time": 18.842157749999974,
                    "velocity": 0.3464566929133858,
                    "duration": 0.27307474999999926
                },
                {
                    "name": "D3",
                    "midi": 50,
                    "time": 19.115232499999973,
                    "velocity": 0.3779527559055118,
                    "duration": 0.27307474999999926
                },
                {
                    "name": "G3",
                    "midi": 55,
                    "time": 19.388307249999972,
                    "velocity": 0.30708661417322836,
                    "duration": 0.27307474999999926
                },
                {
                    "name": "C3",
                    "midi": 48,
                    "time": 19.66138199999997,
                    "velocity": 0.3858267716535433,
                    "duration": 2.184598000000001
                },
                {
                    "name": "E3",
                    "midi": 52,
                    "time": 19.66138199999997,
                    "velocity": 0.4566929133858268,
                    "duration": 1.0922990000000006
                },
                {
                    "name": "G3",
                    "midi": 55,
                    "time": 20.753680999999972,
                    "velocity": 0.2677165354330709,
                    "duration": 2.184598000000001
                },
                {
                    "name": "E3",
                    "midi": 52,
                    "time": 21.845979999999972,
                    "velocity": 0.2677165354330709,
                    "duration": 1.0922990000000006
                },
                {
                    "name": "D3",
                    "midi": 50,
                    "time": 22.938278999999973,
                    "velocity": 0.28346456692913385,
                    "duration": 2.184598000000001
                },
                {
                    "name": "G3",
                    "midi": 55,
                    "time": 22.938278999999973,
                    "velocity": 0.28346456692913385,
                    "duration": 1.0922990000000006
                },
                {
                    "name": "F#3",
                    "midi": 54,
                    "time": 24.030577999999974,
                    "velocity": 0.2204724409448819,
                    "duration": 1.0922990000000006
                },
                {
                    "name": "G3",
                    "midi": 55,
                    "time": 26.215175999999975,
                    "velocity": 0.31496062992125984,
                    "duration": 0.27307474999999926
                },
                {
                    "name": "D4",
                    "midi": 62,
                    "time": 26.488250749999974,
                    "velocity": 0.1968503937007874,
                    "duration": 0.27307474999999926
                },
                {
                    "name": "B3",
                    "midi": 59,
                    "time": 26.761325499999973,
                    "velocity": 0.2440944881889764,
                    "duration": 0.27307474999999926
                },
                {
                    "name": "D4",
                    "midi": 62,
                    "time": 27.034400249999972,
                    "velocity": 0.2047244094488189,
                    "duration": 0.27307474999999926
                },
                {
                    "name": "G3",
                    "midi": 55,
                    "time": 27.30747499999997,
                    "velocity": 0.31496062992125984,
                    "duration": 0.27307474999999926
                },
                {
                    "name": "D4",
                    "midi": 62,
                    "time": 27.58054974999997,
                    "velocity": 0.2125984251968504,
                    "duration": 0.27307474999999926
                },
                {
                    "name": "B3",
                    "midi": 59,
                    "time": 27.85362449999997,
                    "velocity": 0.2440944881889764,
                    "duration": 0.27307474999999926
                },
                {
                    "name": "D4",
                    "midi": 62,
                    "time": 28.12669924999997,
                    "velocity": 0.2047244094488189,
                    "duration": 0.27307474999999926
                },
                {
                    "name": "A3",
                    "midi": 57,
                    "time": 28.39977399999997,
                    "velocity": 0.31496062992125984,
                    "duration": 0.27307474999999926
                },
                {
                    "name": "D4",
                    "midi": 62,
                    "time": 28.672848749999968,
                    "velocity": 0.2440944881889764,
                    "duration": 0.27307474999999926
                },
                {
                    "name": "C4",
                    "midi": 60,
                    "time": 28.945923499999967,
                    "velocity": 0.28346456692913385,
                    "duration": 0.27307474999999926
                },
                {
                    "name": "D4",
                    "midi": 62,
                    "time": 29.218998249999967,
                    "velocity": 0.23622047244094488,
                    "duration": 0.27307474999999926
                },
                {
                    "name": "G3",
                    "midi": 55,
                    "time": 29.492072999999966,
                    "velocity": 0.31496062992125984,
                    "duration": 0.27307474999999926
                },
                {
                    "name": "D4",
                    "midi": 62,
                    "time": 29.765147749999965,
                    "velocity": 0.2204724409448819,
                    "duration": 0.27307474999999926
                },
                {
                    "name": "B3",
                    "midi": 59,
                    "time": 30.038222499999964,
                    "velocity": 0.25196850393700787,
                    "duration": 0.27307474999999926
                },
                {
                    "name": "D4",
                    "midi": 62,
                    "time": 30.311297249999964,
                    "velocity": 0.2204724409448819,
                    "duration": 0.27307474999999926
                },
                {
                    "name": "G3",
                    "midi": 55,
                    "time": 30.584371999999963,
                    "velocity": 0.31496062992125984,
                    "duration": 0.27307474999999926
                },
                {
                    "name": "D4",
                    "midi": 62,
                    "time": 30.857446749999962,
                    "velocity": 0.25984251968503935,
                    "duration": 0.27307474999999926
                },
                {
                    "name": "B3",
                    "midi": 59,
                    "time": 31.13052149999996,
                    "velocity": 0.29133858267716534,
                    "duration": 0.27307474999999926
                },
                {
                    "name": "D4",
                    "midi": 62,
                    "time": 31.40359624999996,
                    "velocity": 0.23622047244094488,
                    "duration": 0.27307474999999926
                },
                {
                    "name": "G3",
                    "midi": 55,
                    "time": 31.67667099999996,
                    "velocity": 0.3700787401574803,
                    "duration": 0.27307474999999926
                },
                {
                    "name": "D4",
                    "midi": 62,
                    "time": 31.94974574999996,
                    "velocity": 0.2992125984251969,
                    "duration": 0.2730747500000028
                },
                {
                    "name": "B3",
                    "midi": 59,
                    "time": 32.22282049999996,
                    "velocity": 0.3464566929133858,
                    "duration": 0.27307474999999926
                },
                {
                    "name": "D4",
                    "midi": 62,
                    "time": 32.49589524999996,
                    "velocity": 0.33070866141732286,
                    "duration": 0.27307474999999926
                },
                {
                    "name": "G3",
                    "midi": 55,
                    "time": 32.76896999999996,
                    "velocity": 0.33858267716535434,
                    "duration": 0.27307474999999926
                },
                {
                    "name": "E4",
                    "midi": 64,
                    "time": 33.04204474999996,
                    "velocity": 0.2677165354330709,
                    "duration": 0.27307474999999926
                },
                {
                    "name": "C4",
                    "midi": 60,
                    "time": 33.31511949999996,
                    "velocity": 0.2992125984251969,
                    "duration": 0.27307474999999926
                },
                {
                    "name": "E4",
                    "midi": 64,
                    "time": 33.58819424999996,
                    "velocity": 0.2677165354330709,
                    "duration": 0.27307474999999926
                },
                {
                    "name": "G3",
                    "midi": 55,
                    "time": 33.86126899999996,
                    "velocity": 0.3464566929133858,
                    "duration": 0.27307474999999926
                },
                {
                    "name": "E4",
                    "midi": 64,
                    "time": 34.13434374999996,
                    "velocity": 0.2677165354330709,
                    "duration": 0.27307474999999926
                },
                {
                    "name": "C4",
                    "midi": 60,
                    "time": 34.407418499999956,
                    "velocity": 0.30708661417322836,
                    "duration": 0.27307474999999926
                },
                {
                    "name": "E4",
                    "midi": 64,
                    "time": 34.680493249999955,
                    "velocity": 0.2677165354330709,
                    "duration": 0.27307474999999926
                },
                {
                    "name": "G3",
                    "midi": 55,
                    "time": 34.953567999999954,
                    "velocity": 0.31496062992125984,
                    "duration": 0.27307474999999926
                },
                {
                    "name": "C#4",
                    "midi": 61,
                    "time": 35.226642749999954,
                    "velocity": 0.2047244094488189,
                    "duration": 0.27307474999999926
                },
                {
                    "name": "A#3",
                    "midi": 58,
                    "time": 35.49971749999995,
                    "velocity": 0.2677165354330709,
                    "duration": 0.27307474999999926
                },
                {
                    "name": "C#4",
                    "midi": 61,
                    "time": 35.77279224999995,
                    "velocity": 0.2125984251968504,
                    "duration": 0.27307474999999926
                },
                {
                    "name": "G3",
                    "midi": 55,
                    "time": 36.04586699999995,
                    "velocity": 0.31496062992125984,
                    "duration": 0.27307474999999926
                },
                {
                    "name": "D4",
                    "midi": 62,
                    "time": 36.31894174999995,
                    "velocity": 0.1889763779527559,
                    "duration": 0.27307474999999926
                },
                {
                    "name": "B3",
                    "midi": 59,
                    "time": 36.59201649999995,
                    "velocity": 0.2440944881889764,
                    "duration": 0.27307474999999926
                },
                {
                    "name": "D4",
                    "midi": 62,
                    "time": 36.86509124999995,
                    "velocity": 0.2125984251968504,
                    "duration": 0.27307474999999926
                },
                {
                    "name": "G3",
                    "midi": 55,
                    "time": 37.13816599999995,
                    "velocity": 0.31496062992125984,
                    "duration": 0.27307474999999926
                },
                {
                    "name": "D4",
                    "midi": 62,
                    "time": 37.41124074999995,
                    "velocity": 0.2047244094488189,
                    "duration": 0.27307474999999926
                },
                {
                    "name": "B3",
                    "midi": 59,
                    "time": 37.68431549999995,
                    "velocity": 0.25984251968503935,
                    "duration": 0.27307474999999926
                },
                {
                    "name": "D4",
                    "midi": 62,
                    "time": 37.957390249999946,
                    "velocity": 0.2125984251968504,
                    "duration": 0.27307474999999926
                },
                {
                    "name": "G3",
                    "midi": 55,
                    "time": 38.230464999999946,
                    "velocity": 0.3228346456692913,
                    "duration": 0.27307474999999926
                },
                {
                    "name": "D4",
                    "midi": 62,
                    "time": 38.503539749999945,
                    "velocity": 0.23622047244094488,
                    "duration": 0.27307474999999926
                },
                {
                    "name": "B3",
                    "midi": 59,
                    "time": 38.776614499999944,
                    "velocity": 0.25984251968503935,
                    "duration": 0.27307474999999926
                },
                {
                    "name": "D4",
                    "midi": 62,
                    "time": 39.04968924999994,
                    "velocity": 0.2283464566929134,
                    "duration": 0.27307474999999926
                },
                {
                    "name": "A3",
                    "midi": 57,
                    "time": 39.32276399999994,
                    "velocity": 0.31496062992125984,
                    "duration": 0.27307474999999926
                },
                {
                    "name": "D4",
                    "midi": 62,
                    "time": 39.59583874999994,
                    "velocity": 0.2125984251968504,
                    "duration": 0.27307474999999926
                },
                {
                    "name": "C4",
                    "midi": 60,
                    "time": 39.86891349999994,
                    "velocity": 0.25196850393700787,
                    "duration": 0.27307474999999926
                },
                {
                    "name": "D4",
                    "midi": 62,
                    "time": 40.14198824999994,
                    "velocity": 0.2125984251968504,
                    "duration": 0.27307474999999926
                },
                {
                    "name": "A3",
                    "midi": 57,
                    "time": 40.41506299999994,
                    "velocity": 0.31496062992125984,
                    "duration": 0.27307474999999926
                },
                {
                    "name": "D4",
                    "midi": 62,
                    "time": 40.68813774999994,
                    "velocity": 0.23622047244094488,
                    "duration": 0.27307474999999926
                },
                {
                    "name": "C4",
                    "midi": 60,
                    "time": 40.96121249999994,
                    "velocity": 0.25984251968503935,
                    "duration": 0.27307474999999926
                },
                {
                    "name": "D4",
                    "midi": 62,
                    "time": 41.23428724999994,
                    "velocity": 0.2204724409448819,
                    "duration": 0.27307474999999926
                },
                {
                    "name": "A3",
                    "midi": 57,
                    "time": 41.50736199999994,
                    "velocity": 0.31496062992125984,
                    "duration": 0.27307474999999926
                },
                {
                    "name": "D4",
                    "midi": 62,
                    "time": 41.780436749999936,
                    "velocity": 0.2440944881889764,
                    "duration": 0.27307474999999926
                },
                {
                    "name": "C4",
                    "midi": 60,
                    "time": 42.053511499999935,
                    "velocity": 0.2992125984251969,
                    "duration": 0.27307474999999926
                },
                {
                    "name": "D4",
                    "midi": 62,
                    "time": 42.326586249999934,
                    "velocity": 0.25984251968503935,
                    "duration": 0.27307474999999926
                },
                {
                    "name": "G3",
                    "midi": 55,
                    "time": 42.599660999999934,
                    "velocity": 0.31496062992125984,
                    "duration": 0.27307474999999926
                },
                {
                    "name": "D4",
                    "midi": 62,
                    "time": 42.87273574999993,
                    "velocity": 0.2992125984251969,
                    "duration": 0.27307474999999926
                },
                {
                    "name": "B3",
                    "midi": 59,
                    "time": 43.14581049999993,
                    "velocity": 0.33070866141732286,
                    "duration": 0.27307474999999926
                },
                {
                    "name": "D4",
                    "midi": 62,
                    "time": 43.41888524999993,
                    "velocity": 0.2755905511811024,
                    "duration": 0.27307474999999926
                },
                {
                    "name": "E3",
                    "midi": 52,
                    "time": 43.69195999999993,
                    "velocity": 0.4015748031496063,
                    "duration": 0.27307474999999926
                },
                {
                    "name": "B3",
                    "midi": 59,
                    "time": 43.96503474999993,
                    "velocity": 0.36220472440944884,
                    "duration": 0.27307474999999926
                },
                {
                    "name": "G3",
                    "midi": 55,
                    "time": 44.23810949999993,
                    "velocity": 0.3937007874015748,
                    "duration": 0.27307474999999926
                },
                {
                    "name": "B3",
                    "midi": 59,
                    "time": 44.51118424999993,
                    "velocity": 0.3700787401574803,
                    "duration": 0.27307474999999926
                },
                {
                    "name": "B2",
                    "midi": 47,
                    "time": 44.78425899999993,
                    "velocity": 0.4251968503937008,
                    "duration": 0.27307474999999926
                },
                {
                    "name": "G3",
                    "midi": 55,
                    "time": 45.05733374999993,
                    "velocity": 0.33070866141732286,
                    "duration": 0.27307474999999926
                },
                {
                    "name": "D3",
                    "midi": 50,
                    "time": 45.330408499999926,
                    "velocity": 0.3700787401574803,
                    "duration": 0.27307474999999926
                },
                {
                    "name": "G3",
                    "midi": 55,
                    "time": 45.603483249999925,
                    "velocity": 0.2677165354330709,
                    "duration": 0.27307474999999926
                },
                {
                    "name": "C3",
                    "midi": 48,
                    "time": 45.876557999999925,
                    "velocity": 0.31496062992125984,
                    "duration": 0.27307474999999926
                },
                {
                    "name": "A3",
                    "midi": 57,
                    "time": 46.149632749999924,
                    "velocity": 0.2047244094488189,
                    "duration": 0.27307474999999926
                },
                {
                    "name": "E3",
                    "midi": 52,
                    "time": 46.42270749999992,
                    "velocity": 0.25984251968503935,
                    "duration": 0.27307474999999926
                },
                {
                    "name": "A3",
                    "midi": 57,
                    "time": 46.69578224999992,
                    "velocity": 0.2283464566929134,
                    "duration": 0.27307474999999926
                },
                {
                    "name": "D3",
                    "midi": 50,
                    "time": 46.96885699999992,
                    "velocity": 0.30708661417322836,
                    "duration": 0.27307474999999926
                },
                {
                    "name": "B3",
                    "midi": 59,
                    "time": 47.24193174999992,
                    "velocity": 0.2125984251968504,
                    "duration": 0.27307474999999926
                },
                {
                    "name": "G3",
                    "midi": 55,
                    "time": 47.51500649999992,
                    "velocity": 0.25984251968503935,
                    "duration": 0.27307474999999926
                },
                {
                    "name": "B3",
                    "midi": 59,
                    "time": 47.78808124999992,
                    "velocity": 0.2204724409448819,
                    "duration": 0.27307474999999926
                },
                {
                    "name": "D3",
                    "midi": 50,
                    "time": 48.06115599999992,
                    "velocity": 0.30708661417322836,
                    "duration": 0.27307474999999926
                },
                {
                    "name": "C4",
                    "midi": 60,
                    "time": 48.33423074999992,
                    "velocity": 0.2125984251968504,
                    "duration": 0.27307474999999926
                },
                {
                    "name": "A3",
                    "midi": 57,
                    "time": 48.60730549999992,
                    "velocity": 0.25196850393700787,
                    "duration": 0.27307474999999926
                },
                {
                    "name": "C4",
                    "midi": 60,
                    "time": 48.88038024999992,
                    "velocity": 0.2125984251968504,
                    "duration": 0.25714538958333577
                },
                {
                    "name": "G3",
                    "midi": 55,
                    "time": 49.153454999999916,
                    "velocity": 0.2125984251968504,
                    "duration": 2.184597999999994
                },
                {
                    "name": "C4",
                    "midi": 60,
                    "time": 49.153454999999916,
                    "velocity": 0.28346456692913385,
                    "duration": 1.092298999999997
                },
                {
                    "name": "B3",
                    "midi": 59,
                    "time": 50.24575399999991,
                    "velocity": 0.2204724409448819,
                    "duration": 1.092298999999997
                },
                {
                    "name": "G3",
                    "midi": 55,
                    "time": 52.43035199999991,
                    "velocity": 0.31496062992125984,
                    "duration": 0.27307474999999926
                },
                {
                    "name": "D4",
                    "midi": 62,
                    "time": 52.703426749999906,
                    "velocity": 0.1732283464566929,
                    "duration": 0.27307474999999926
                },
                {
                    "name": "B3",
                    "midi": 59,
                    "time": 52.976501499999905,
                    "velocity": 0.1968503937007874,
                    "duration": 0.27307474999999926
                },
                {
                    "name": "D4",
                    "midi": 62,
                    "time": 53.249576249999905,
                    "velocity": 0.1889763779527559,
                    "duration": 0.27307474999999926
                },
                {
                    "name": "G3",
                    "midi": 55,
                    "time": 53.522650999999904,
                    "velocity": 0.31496062992125984,
                    "duration": 0.27307474999999926
                },
                {
                    "name": "D4",
                    "midi": 62,
                    "time": 53.7957257499999,
                    "velocity": 0.2283464566929134,
                    "duration": 0.27307474999999926
                },
                {
                    "name": "B3",
                    "midi": 59,
                    "time": 54.0688004999999,
                    "velocity": 0.2755905511811024,
                    "duration": 0.27307474999999926
                },
                {
                    "name": "D4",
                    "midi": 62,
                    "time": 54.3418752499999,
                    "velocity": 0.23622047244094488,
                    "duration": 0.27307474999999926
                },
                {
                    "name": "A3",
                    "midi": 57,
                    "time": 54.6149499999999,
                    "velocity": 0.31496062992125984,
                    "duration": 0.27307474999999926
                },
                {
                    "name": "D4",
                    "midi": 62,
                    "time": 54.8880247499999,
                    "velocity": 0.25196850393700787,
                    "duration": 0.27307474999999926
                },
                {
                    "name": "C4",
                    "midi": 60,
                    "time": 55.1610994999999,
                    "velocity": 0.31496062992125984,
                    "duration": 0.27307474999999926
                },
                {
                    "name": "D4",
                    "midi": 62,
                    "time": 55.4341742499999,
                    "velocity": 0.2755905511811024,
                    "duration": 0.27307474999999926
                },
                {
                    "name": "G3",
                    "midi": 55,
                    "time": 55.7072489999999,
                    "velocity": 0.33858267716535434,
                    "duration": 0.27307474999999926
                },
                {
                    "name": "D4",
                    "midi": 62,
                    "time": 55.9803237499999,
                    "velocity": 0.2204724409448819,
                    "duration": 0.27307474999999926
                },
                {
                    "name": "B3",
                    "midi": 59,
                    "time": 56.253398499999896,
                    "velocity": 0.25196850393700787,
                    "duration": 0.27307474999999926
                },
                {
                    "name": "D4",
                    "midi": 62,
                    "time": 56.526473249999896,
                    "velocity": 0.2204724409448819,
                    "duration": 0.27307474999999926
                },
                {
                    "name": "G3",
                    "midi": 55,
                    "time": 56.799547999999895,
                    "velocity": 0.31496062992125984,
                    "duration": 0.27307474999999926
                },
                {
                    "name": "D4",
                    "midi": 62,
                    "time": 57.072622749999894,
                    "velocity": 0.2283464566929134,
                    "duration": 0.27307474999999926
                },
                {
                    "name": "B3",
                    "midi": 59,
                    "time": 57.34569749999989,
                    "velocity": 0.30708661417322836,
                    "duration": 0.27307474999999926
                },
                {
                    "name": "D4",
                    "midi": 62,
                    "time": 57.61877224999989,
                    "velocity": 0.28346456692913385,
                    "duration": 0.27307474999999926
                },
                {
                    "name": "G3",
                    "midi": 55,
                    "time": 57.89184699999989,
                    "velocity": 0.3779527559055118,
                    "duration": 0.27307474999999926
                },
                {
                    "name": "D4",
                    "midi": 62,
                    "time": 58.16492174999989,
                    "velocity": 0.2992125984251969,
                    "duration": 0.27307474999999926
                },
                {
                    "name": "B3",
                    "midi": 59,
                    "time": 58.43799649999989,
                    "velocity": 0.3779527559055118,
                    "duration": 0.27307474999999926
                },
                {
                    "name": "D4",
                    "midi": 62,
                    "time": 58.71107124999989,
                    "velocity": 0.3543307086614173,
                    "duration": 0.27307474999999926
                },
                {
                    "name": "G3",
                    "midi": 55,
                    "time": 58.98414599999989,
                    "velocity": 0.41732283464566927,
                    "duration": 0.27307474999999926
                },
                {
                    "name": "E4",
                    "midi": 64,
                    "time": 59.25722074999989,
                    "velocity": 0.29133858267716534,
                    "duration": 0.27307474999999926
                },
                {
                    "name": "C4",
                    "midi": 60,
                    "time": 59.53029549999989,
                    "velocity": 0.3700787401574803,
                    "duration": 0.27307474999999926
                },
                {
                    "name": "E4",
                    "midi": 64,
                    "time": 59.80337024999989,
                    "velocity": 0.3228346456692913,
                    "duration": 0.27307474999999926
                },
                {
                    "name": "G3",
                    "midi": 55,
                    "time": 60.076444999999886,
                    "velocity": 0.3464566929133858,
                    "duration": 0.27307474999999926
                },
                {
                    "name": "E4",
                    "midi": 64,
                    "time": 60.349519749999885,
                    "velocity": 0.2677165354330709,
                    "duration": 0.27307474999999926
                },
                {
                    "name": "C4",
                    "midi": 60,
                    "time": 60.622594499999884,
                    "velocity": 0.30708661417322836,
                    "duration": 0.27307474999999926
                },
                {
                    "name": "E4",
                    "midi": 64,
                    "time": 60.895669249999884,
                    "velocity": 0.2677165354330709,
                    "duration": 0.27307474999999926
                },
                {
                    "name": "G3",
                    "midi": 55,
                    "time": 61.16874399999988,
                    "velocity": 0.31496062992125984,
                    "duration": 0.27307474999999926
                },
                {
                    "name": "C#4",
                    "midi": 61,
                    "time": 61.44181874999988,
                    "velocity": 0.2047244094488189,
                    "duration": 0.27307474999999926
                },
                {
                    "name": "A#3",
                    "midi": 58,
                    "time": 61.71489349999988,
                    "velocity": 0.2677165354330709,
                    "duration": 0.27307474999999926
                },
                {
                    "name": "C#4",
                    "midi": 61,
                    "time": 61.98796824999988,
                    "velocity": 0.2125984251968504,
                    "duration": 0.27307474999999926
                },
                {
                    "name": "G3",
                    "midi": 55,
                    "time": 62.26104299999988,
                    "velocity": 0.31496062992125984,
                    "duration": 0.27307474999999926
                },
                {
                    "name": "D4",
                    "midi": 62,
                    "time": 62.53411774999988,
                    "velocity": 0.2047244094488189,
                    "duration": 0.27307474999999926
                },
                {
                    "name": "B3",
                    "midi": 59,
                    "time": 62.80719249999988,
                    "velocity": 0.2440944881889764,
                    "duration": 0.27307474999999926
                },
                {
                    "name": "D4",
                    "midi": 62,
                    "time": 63.08026724999988,
                    "velocity": 0.2125984251968504,
                    "duration": 0.27307474999999926
                },
                {
                    "name": "G3",
                    "midi": 55,
                    "time": 63.35334199999988,
                    "velocity": 0.31496062992125984,
                    "duration": 0.27307474999999926
                },
                {
                    "name": "D4",
                    "midi": 62,
                    "time": 63.626416749999876,
                    "velocity": 0.2047244094488189,
                    "duration": 0.27307474999999926
                },
                {
                    "name": "B3",
                    "midi": 59,
                    "time": 63.899491499999876,
                    "velocity": 0.23622047244094488,
                    "duration": 0.27307474999999926
                },
                {
                    "name": "D4",
                    "midi": 62,
                    "time": 64.17256624999987,
                    "velocity": 0.2125984251968504,
                    "duration": 0.27307475000000636
                },
                {
                    "name": "G3",
                    "midi": 55,
                    "time": 64.44564099999988,
                    "velocity": 0.3228346456692913,
                    "duration": 0.27307475000000636
                },
                {
                    "name": "D4",
                    "midi": 62,
                    "time": 64.71871574999989,
                    "velocity": 0.1968503937007874,
                    "duration": 0.27307475000000636
                },
                {
                    "name": "B3",
                    "midi": 59,
                    "time": 64.9917904999999,
                    "velocity": 0.23622047244094488,
                    "duration": 0.27307475000000636
                },
                {
                    "name": "D4",
                    "midi": 62,
                    "time": 65.2648652499999,
                    "velocity": 0.1968503937007874,
                    "duration": 0.27307475000000636
                },
                {
                    "name": "A3",
                    "midi": 57,
                    "time": 65.5379399999999,
                    "velocity": 0.31496062992125984,
                    "duration": 0.27307475000000636
                },
                {
                    "name": "D4",
                    "midi": 62,
                    "time": 65.81101474999991,
                    "velocity": 0.2125984251968504,
                    "duration": 0.27307475000000636
                },
                {
                    "name": "C4",
                    "midi": 60,
                    "time": 66.08408949999992,
                    "velocity": 0.25196850393700787,
                    "duration": 0.27307475000000636
                },
                {
                    "name": "D4",
                    "midi": 62,
                    "time": 66.35716424999993,
                    "velocity": 0.2125984251968504,
                    "duration": 0.27307475000000636
                },
                {
                    "name": "A3",
                    "midi": 57,
                    "time": 66.63023899999993,
                    "velocity": 0.31496062992125984,
                    "duration": 0.27307475000000636
                },
                {
                    "name": "D4",
                    "midi": 62,
                    "time": 66.90331374999994,
                    "velocity": 0.23622047244094488,
                    "duration": 0.27307475000000636
                },
                {
                    "name": "C4",
                    "midi": 60,
                    "time": 67.17638849999994,
                    "velocity": 0.25984251968503935,
                    "duration": 0.27307475000000636
                },
                {
                    "name": "D4",
                    "midi": 62,
                    "time": 67.44946324999995,
                    "velocity": 0.2204724409448819,
                    "duration": 0.27307475000000636
                },
                {
                    "name": "A3",
                    "midi": 57,
                    "time": 67.72253799999996,
                    "velocity": 0.3464566929133858,
                    "duration": 0.27307475000000636
                },
                {
                    "name": "D4",
                    "midi": 62,
                    "time": 67.99561274999996,
                    "velocity": 0.25984251968503935,
                    "duration": 0.27307475000000636
                },
                {
                    "name": "C4",
                    "midi": 60,
                    "time": 68.26868749999997,
                    "velocity": 0.31496062992125984,
                    "duration": 0.27307475000000636
                },
                {
                    "name": "D4",
                    "midi": 62,
                    "time": 68.54176224999998,
                    "velocity": 0.25984251968503935,
                    "duration": 0.27307475000000636
                },
                {
                    "name": "G3",
                    "midi": 55,
                    "time": 68.81483699999998,
                    "velocity": 0.36220472440944884,
                    "duration": 0.27307475000000636
                },
                {
                    "name": "D4",
                    "midi": 62,
                    "time": 69.08791174999999,
                    "velocity": 0.25984251968503935,
                    "duration": 0.27307475000000636
                },
                {
                    "name": "B3",
                    "midi": 59,
                    "time": 69.3609865,
                    "velocity": 0.31496062992125984,
                    "duration": 0.27307475000000636
                },
                {
                    "name": "D4",
                    "midi": 62,
                    "time": 69.63406125,
                    "velocity": 0.29133858267716534,
                    "duration": 0.27307475000000636
                },
                {
                    "name": "E3",
                    "midi": 52,
                    "time": 69.90713600000001,
                    "velocity": 0.36220472440944884,
                    "duration": 0.27307475000000636
                },
                {
                    "name": "B3",
                    "midi": 59,
                    "time": 70.18021075000001,
                    "velocity": 0.2992125984251969,
                    "duration": 0.27307475000000636
                },
                {
                    "name": "G3",
                    "midi": 55,
                    "time": 70.45328550000002,
                    "velocity": 0.33070866141732286,
                    "duration": 0.27307475000000636
                },
                {
                    "name": "B3",
                    "midi": 59,
                    "time": 70.72636025000003,
                    "velocity": 0.2992125984251969,
                    "duration": 0.27307475000000636
                },
                {
                    "name": "B2",
                    "midi": 47,
                    "time": 70.99943500000003,
                    "velocity": 0.41732283464566927,
                    "duration": 0.27307475000000636
                },
                {
                    "name": "G3",
                    "midi": 55,
                    "time": 71.27250975000004,
                    "velocity": 0.3464566929133858,
                    "duration": 0.27307475000000636
                },
                {
                    "name": "D3",
                    "midi": 50,
                    "time": 71.54558450000005,
                    "velocity": 0.3779527559055118,
                    "duration": 0.27307475000000636
                },
                {
                    "name": "G3",
                    "midi": 55,
                    "time": 71.81865925000005,
                    "velocity": 0.30708661417322836,
                    "duration": 0.27307475000000636
                },
                {
                    "name": "E3",
                    "midi": 52,
                    "time": 72.09173400000006,
                    "velocity": 0.4566929133858268,
                    "duration": 1.092298999999997
                },
                {
                    "name": "C3",
                    "midi": 48,
                    "time": 72.09173400000006,
                    "velocity": 0.3858267716535433,
                    "duration": 2.184597999999994
                },
                {
                    "name": "G3",
                    "midi": 55,
                    "time": 73.18403300000006,
                    "velocity": 0.2677165354330709,
                    "duration": 2.184597999999994
                },
                {
                    "name": "E3",
                    "midi": 52,
                    "time": 74.27633200000005,
                    "velocity": 0.2677165354330709,
                    "duration": 1.092298999999997
                },
                {
                    "name": "D3",
                    "midi": 50,
                    "time": 75.36863100000005,
                    "velocity": 0.28346456692913385,
                    "duration": 2.184597999999994
                },
                {
                    "name": "G3",
                    "midi": 55,
                    "time": 75.36863100000005,
                    "velocity": 0.28346456692913385,
                    "duration": 1.092298999999997
                },
                {
                    "name": "F#3",
                    "midi": 54,
                    "time": 76.46093000000005,
                    "velocity": 0.2204724409448819,
                    "duration": 1.092298999999997
                },
                {
                    "name": "G3",
                    "midi": 55,
                    "time": 78.64552800000004,
                    "velocity": 0.31496062992125984,
                    "duration": 0.27307475000000636
                },
                {
                    "name": "D4",
                    "midi": 62,
                    "time": 78.91860275000005,
                    "velocity": 0.1968503937007874,
                    "duration": 0.27307475000000636
                },
                {
                    "name": "B3",
                    "midi": 59,
                    "time": 79.19167750000005,
                    "velocity": 0.2440944881889764,
                    "duration": 0.27307475000000636
                },
                {
                    "name": "D4",
                    "midi": 62,
                    "time": 79.46475225000006,
                    "velocity": 0.2047244094488189,
                    "duration": 0.27307475000000636
                },
                {
                    "name": "G3",
                    "midi": 55,
                    "time": 79.73782700000007,
                    "velocity": 0.31496062992125984,
                    "duration": 0.27307475000000636
                },
                {
                    "name": "D4",
                    "midi": 62,
                    "time": 80.01090175000007,
                    "velocity": 0.2125984251968504,
                    "duration": 0.27307475000000636
                },
                {
                    "name": "B3",
                    "midi": 59,
                    "time": 80.28397650000008,
                    "velocity": 0.2440944881889764,
                    "duration": 0.27307475000000636
                },
                {
                    "name": "D4",
                    "midi": 62,
                    "time": 80.55705125000009,
                    "velocity": 0.2047244094488189,
                    "duration": 0.27307475000000636
                },
                {
                    "name": "A3",
                    "midi": 57,
                    "time": 80.83012600000009,
                    "velocity": 0.31496062992125984,
                    "duration": 0.27307475000000636
                },
                {
                    "name": "D4",
                    "midi": 62,
                    "time": 81.1032007500001,
                    "velocity": 0.2440944881889764,
                    "duration": 0.27307475000000636
                },
                {
                    "name": "C4",
                    "midi": 60,
                    "time": 81.3762755000001,
                    "velocity": 0.28346456692913385,
                    "duration": 0.27307475000000636
                },
                {
                    "name": "D4",
                    "midi": 62,
                    "time": 81.64935025000011,
                    "velocity": 0.23622047244094488,
                    "duration": 0.27307475000000636
                },
                {
                    "name": "G3",
                    "midi": 55,
                    "time": 81.92242500000012,
                    "velocity": 0.31496062992125984,
                    "duration": 0.27307475000000636
                },
                {
                    "name": "D4",
                    "midi": 62,
                    "time": 82.19549975000012,
                    "velocity": 0.2204724409448819,
                    "duration": 0.27307475000000636
                },
                {
                    "name": "B3",
                    "midi": 59,
                    "time": 82.46857450000013,
                    "velocity": 0.25196850393700787,
                    "duration": 0.27307475000000636
                },
                {
                    "name": "D4",
                    "midi": 62,
                    "time": 82.74164925000014,
                    "velocity": 0.2204724409448819,
                    "duration": 0.27307475000000636
                },
                {
                    "name": "G3",
                    "midi": 55,
                    "time": 83.01472400000014,
                    "velocity": 0.31496062992125984,
                    "duration": 0.27307475000000636
                },
                {
                    "name": "D4",
                    "midi": 62,
                    "time": 83.28779875000015,
                    "velocity": 0.25984251968503935,
                    "duration": 0.27307475000000636
                },
                {
                    "name": "B3",
                    "midi": 59,
                    "time": 83.56087350000016,
                    "velocity": 0.29133858267716534,
                    "duration": 0.27307475000000636
                },
                {
                    "name": "D4",
                    "midi": 62,
                    "time": 83.83394825000016,
                    "velocity": 0.23622047244094488,
                    "duration": 0.27307475000000636
                },
                {
                    "name": "G3",
                    "midi": 55,
                    "time": 84.10702300000017,
                    "velocity": 0.3700787401574803,
                    "duration": 0.27307475000000636
                },
                {
                    "name": "D4",
                    "midi": 62,
                    "time": 84.38009775000017,
                    "velocity": 0.2992125984251969,
                    "duration": 0.27307475000000636
                },
                {
                    "name": "B3",
                    "midi": 59,
                    "time": 84.65317250000018,
                    "velocity": 0.3464566929133858,
                    "duration": 0.27307475000000636
                },
                {
                    "name": "D4",
                    "midi": 62,
                    "time": 84.92624725000019,
                    "velocity": 0.33070866141732286,
                    "duration": 0.27307475000000636
                },
                {
                    "name": "G3",
                    "midi": 55,
                    "time": 85.1993220000002,
                    "velocity": 0.33858267716535434,
                    "duration": 0.27307475000000636
                },
                {
                    "name": "E4",
                    "midi": 64,
                    "time": 85.4723967500002,
                    "velocity": 0.2677165354330709,
                    "duration": 0.27307475000000636
                },
                {
                    "name": "C4",
                    "midi": 60,
                    "time": 85.7454715000002,
                    "velocity": 0.2992125984251969,
                    "duration": 0.27307475000000636
                },
                {
                    "name": "E4",
                    "midi": 64,
                    "time": 86.01854625000021,
                    "velocity": 0.2677165354330709,
                    "duration": 0.27307475000000636
                },
                {
                    "name": "G3",
                    "midi": 55,
                    "time": 86.29162100000022,
                    "velocity": 0.3464566929133858,
                    "duration": 0.27307475000000636
                },
                {
                    "name": "E4",
                    "midi": 64,
                    "time": 86.56469575000023,
                    "velocity": 0.2677165354330709,
                    "duration": 0.27307475000000636
                },
                {
                    "name": "C4",
                    "midi": 60,
                    "time": 86.83777050000023,
                    "velocity": 0.30708661417322836,
                    "duration": 0.27307475000000636
                },
                {
                    "name": "E4",
                    "midi": 64,
                    "time": 87.11084525000024,
                    "velocity": 0.2677165354330709,
                    "duration": 0.27307475000000636
                },
                {
                    "name": "G3",
                    "midi": 55,
                    "time": 87.38392000000024,
                    "velocity": 0.31496062992125984,
                    "duration": 0.27307475000000636
                },
                {
                    "name": "C#4",
                    "midi": 61,
                    "time": 87.65699475000025,
                    "velocity": 0.2047244094488189,
                    "duration": 0.27307475000000636
                },
                {
                    "name": "A#3",
                    "midi": 58,
                    "time": 87.93006950000026,
                    "velocity": 0.2677165354330709,
                    "duration": 0.27307475000000636
                },
                {
                    "name": "C#4",
                    "midi": 61,
                    "time": 88.20314425000026,
                    "velocity": 0.2125984251968504,
                    "duration": 0.27307475000000636
                },
                {
                    "name": "G3",
                    "midi": 55,
                    "time": 88.47621900000027,
                    "velocity": 0.31496062992125984,
                    "duration": 0.27307475000000636
                },
                {
                    "name": "D4",
                    "midi": 62,
                    "time": 88.74929375000028,
                    "velocity": 0.1889763779527559,
                    "duration": 0.27307475000000636
                },
                {
                    "name": "B3",
                    "midi": 59,
                    "time": 89.02236850000028,
                    "velocity": 0.2440944881889764,
                    "duration": 0.27307475000000636
                },
                {
                    "name": "D4",
                    "midi": 62,
                    "time": 89.29544325000029,
                    "velocity": 0.2125984251968504,
                    "duration": 0.27307475000000636
                },
                {
                    "name": "G3",
                    "midi": 55,
                    "time": 89.5685180000003,
                    "velocity": 0.31496062992125984,
                    "duration": 0.27307475000000636
                },
                {
                    "name": "D4",
                    "midi": 62,
                    "time": 89.8415927500003,
                    "velocity": 0.2047244094488189,
                    "duration": 0.27307475000000636
                },
                {
                    "name": "B3",
                    "midi": 59,
                    "time": 90.11466750000031,
                    "velocity": 0.25984251968503935,
                    "duration": 0.27307475000000636
                },
                {
                    "name": "D4",
                    "midi": 62,
                    "time": 90.38774225000031,
                    "velocity": 0.2125984251968504,
                    "duration": 0.27307475000000636
                },
                {
                    "name": "G3",
                    "midi": 55,
                    "time": 90.66081700000032,
                    "velocity": 0.3228346456692913,
                    "duration": 0.27307475000000636
                },
                {
                    "name": "D4",
                    "midi": 62,
                    "time": 90.93389175000033,
                    "velocity": 0.23622047244094488,
                    "duration": 0.27307475000000636
                },
                {
                    "name": "B3",
                    "midi": 59,
                    "time": 91.20696650000033,
                    "velocity": 0.25984251968503935,
                    "duration": 0.27307475000000636
                },
                {
                    "name": "D4",
                    "midi": 62,
                    "time": 91.48004125000034,
                    "velocity": 0.2283464566929134,
                    "duration": 0.27307475000000636
                },
                {
                    "name": "A3",
                    "midi": 57,
                    "time": 91.75311600000035,
                    "velocity": 0.31496062992125984,
                    "duration": 0.27307475000000636
                },
                {
                    "name": "D4",
                    "midi": 62,
                    "time": 92.02619075000035,
                    "velocity": 0.2125984251968504,
                    "duration": 0.27307475000000636
                },
                {
                    "name": "C4",
                    "midi": 60,
                    "time": 92.29926550000036,
                    "velocity": 0.25196850393700787,
                    "duration": 0.27307475000000636
                },
                {
                    "name": "D4",
                    "midi": 62,
                    "time": 92.57234025000037,
                    "velocity": 0.2125984251968504,
                    "duration": 0.27307475000000636
                },
                {
                    "name": "A3",
                    "midi": 57,
                    "time": 92.84541500000037,
                    "velocity": 0.31496062992125984,
                    "duration": 0.27307475000000636
                },
                {
                    "name": "D4",
                    "midi": 62,
                    "time": 93.11848975000038,
                    "velocity": 0.23622047244094488,
                    "duration": 0.27307475000000636
                },
                {
                    "name": "C4",
                    "midi": 60,
                    "time": 93.39156450000038,
                    "velocity": 0.25984251968503935,
                    "duration": 0.27307475000000636
                },
                {
                    "name": "D4",
                    "midi": 62,
                    "time": 93.66463925000039,
                    "velocity": 0.2204724409448819,
                    "duration": 0.27307475000000636
                },
                {
                    "name": "A3",
                    "midi": 57,
                    "time": 93.9377140000004,
                    "velocity": 0.31496062992125984,
                    "duration": 0.27307475000000636
                },
                {
                    "name": "D4",
                    "midi": 62,
                    "time": 94.2107887500004,
                    "velocity": 0.2440944881889764,
                    "duration": 0.27307475000000636
                },
                {
                    "name": "C4",
                    "midi": 60,
                    "time": 94.48386350000041,
                    "velocity": 0.2992125984251969,
                    "duration": 0.27307475000000636
                },
                {
                    "name": "D4",
                    "midi": 62,
                    "time": 94.75693825000042,
                    "velocity": 0.25984251968503935,
                    "duration": 0.27307475000000636
                },
                {
                    "name": "G3",
                    "midi": 55,
                    "time": 95.03001300000042,
                    "velocity": 0.31496062992125984,
                    "duration": 0.27307475000000636
                },
                {
                    "name": "D4",
                    "midi": 62,
                    "time": 95.30308775000043,
                    "velocity": 0.2992125984251969,
                    "duration": 0.27307475000000636
                },
                {
                    "name": "B3",
                    "midi": 59,
                    "time": 95.57616250000044,
                    "velocity": 0.33070866141732286,
                    "duration": 0.27307475000000636
                },
                {
                    "name": "D4",
                    "midi": 62,
                    "time": 95.84923725000044,
                    "velocity": 0.2755905511811024,
                    "duration": 0.27307475000000636
                },
                {
                    "name": "E3",
                    "midi": 52,
                    "time": 96.12231200000045,
                    "velocity": 0.4015748031496063,
                    "duration": 0.27307475000000636
                },
                {
                    "name": "B3",
                    "midi": 59,
                    "time": 96.39538675000045,
                    "velocity": 0.36220472440944884,
                    "duration": 0.27307475000000636
                },
                {
                    "name": "G3",
                    "midi": 55,
                    "time": 96.66846150000046,
                    "velocity": 0.3937007874015748,
                    "duration": 0.27307475000000636
                },
                {
                    "name": "B3",
                    "midi": 59,
                    "time": 96.94153625000047,
                    "velocity": 0.3700787401574803,
                    "duration": 0.27307475000000636
                },
                {
                    "name": "B2",
                    "midi": 47,
                    "time": 97.21461100000047,
                    "velocity": 0.4251968503937008,
                    "duration": 0.27307475000000636
                },
                {
                    "name": "G3",
                    "midi": 55,
                    "time": 97.48768575000048,
                    "velocity": 0.33070866141732286,
                    "duration": 0.27307475000000636
                },
                {
                    "name": "D3",
                    "midi": 50,
                    "time": 97.76076050000049,
                    "velocity": 0.3700787401574803,
                    "duration": 0.27307475000000636
                },
                {
                    "name": "G3",
                    "midi": 55,
                    "time": 98.0338352500005,
                    "velocity": 0.2677165354330709,
                    "duration": 0.27307475000000636
                },
                {
                    "name": "C3",
                    "midi": 48,
                    "time": 98.3069100000005,
                    "velocity": 0.31496062992125984,
                    "duration": 0.27307475000000636
                },
                {
                    "name": "A3",
                    "midi": 57,
                    "time": 98.5799847500005,
                    "velocity": 0.2047244094488189,
                    "duration": 0.27307475000000636
                },
                {
                    "name": "E3",
                    "midi": 52,
                    "time": 98.85305950000051,
                    "velocity": 0.25984251968503935,
                    "duration": 0.27307475000000636
                },
                {
                    "name": "A3",
                    "midi": 57,
                    "time": 99.12613425000052,
                    "velocity": 0.2283464566929134,
                    "duration": 0.27307475000000636
                },
                {
                    "name": "D3",
                    "midi": 50,
                    "time": 99.39920900000052,
                    "velocity": 0.30708661417322836,
                    "duration": 0.27307475000000636
                },
                {
                    "name": "B3",
                    "midi": 59,
                    "time": 99.67228375000053,
                    "velocity": 0.2125984251968504,
                    "duration": 0.27307475000000636
                },
                {
                    "name": "G3",
                    "midi": 55,
                    "time": 99.94535850000054,
                    "velocity": 0.25984251968503935,
                    "duration": 0.27307475000000636
                },
                {
                    "name": "B3",
                    "midi": 59,
                    "time": 100.21843325000054,
                    "velocity": 0.2204724409448819,
                    "duration": 0.27307475000000636
                },
                {
                    "name": "D3",
                    "midi": 50,
                    "time": 100.49150800000055,
                    "velocity": 0.30708661417322836,
                    "duration": 0.27307475000000636
                },
                {
                    "name": "C4",
                    "midi": 60,
                    "time": 100.76458275000056,
                    "velocity": 0.2125984251968504,
                    "duration": 0.27307475000000636
                },
                {
                    "name": "A3",
                    "midi": 57,
                    "time": 101.03765750000056,
                    "velocity": 0.25196850393700787,
                    "duration": 0.27307475000000636
                },
                {
                    "name": "C4",
                    "midi": 60,
                    "time": 101.31073225000057,
                    "velocity": 0.2125984251968504,
                    "duration": 0.25714538958332867
                },
                {
                    "name": "G3",
                    "midi": 55,
                    "time": 101.58380700000056,
                    "velocity": 0.2125984251968504,
                    "duration": 2.184597999999994
                },
                {
                    "name": "C4",
                    "midi": 60,
                    "time": 101.58380700000056,
                    "velocity": 0.28346456692913385,
                    "duration": 1.092298999999997
                },
                {
                    "name": "B3",
                    "midi": 59,
                    "time": 102.67610600000056,
                    "velocity": 0.2204724409448819,
                    "duration": 1.092298999999997
                },
                {
                    "name": "D4",
                    "midi": 62,
                    "time": 104.86070400000055,
                    "velocity": 0.31496062992125984,
                    "duration": 0.27307475000000636
                },
                {
                    "name": "A4",
                    "midi": 69,
                    "time": 105.13377875000056,
                    "velocity": 0.1968503937007874,
                    "duration": 0.27307475000000636
                },
                {
                    "name": "F#4",
                    "midi": 66,
                    "time": 105.40685350000057,
                    "velocity": 0.2440944881889764,
                    "duration": 0.27307475000000636
                },
                {
                    "name": "A4",
                    "midi": 69,
                    "time": 105.67992825000057,
                    "velocity": 0.2047244094488189,
                    "duration": 0.27307475000000636
                },
                {
                    "name": "D4",
                    "midi": 62,
                    "time": 105.95300300000058,
                    "velocity": 0.31496062992125984,
                    "duration": 0.27307475000000636
                },
                {
                    "name": "A4",
                    "midi": 69,
                    "time": 106.22607775000058,
                    "velocity": 0.2125984251968504,
                    "duration": 0.27307475000000636
                },
                {
                    "name": "F#4",
                    "midi": 66,
                    "time": 106.49915250000059,
                    "velocity": 0.2440944881889764,
                    "duration": 0.27307475000000636
                },
                {
                    "name": "A4",
                    "midi": 69,
                    "time": 106.78588098750059,
                    "velocity": 0.2047244094488189,
                    "duration": 0.27307474999999215
                },
                {
                    "name": "D4",
                    "midi": 62,
                    "time": 107.04530200000059,
                    "velocity": 0.31496062992125984,
                    "duration": 0.27307474999999215
                },
                {
                    "name": "A4",
                    "midi": 69,
                    "time": 107.31837675000058,
                    "velocity": 0.2047244094488189,
                    "duration": 0.27307475000000636
                },
                {
                    "name": "F#4",
                    "midi": 66,
                    "time": 107.59145150000059,
                    "velocity": 0.25196850393700787,
                    "duration": 0.27307475000000636
                },
                {
                    "name": "A4",
                    "midi": 69,
                    "time": 107.8645262500006,
                    "velocity": 0.2125984251968504,
                    "duration": 0.27307475000000636
                },
                {
                    "name": "E4",
                    "midi": 64,
                    "time": 108.1376010000006,
                    "velocity": 0.31496062992125984,
                    "duration": 0.27307475000000636
                },
                {
                    "name": "A4",
                    "midi": 69,
                    "time": 108.4106757500006,
                    "velocity": 0.2204724409448819,
                    "duration": 0.27307475000000636
                },
                {
                    "name": "G4",
                    "midi": 67,
                    "time": 108.68375050000061,
                    "velocity": 0.25196850393700787,
                    "duration": 0.27307475000000636
                },
                {
                    "name": "A4",
                    "midi": 69,
                    "time": 108.95682525000062,
                    "velocity": 0.2204724409448819,
                    "duration": 0.27307475000000636
                },
                {
                    "name": "E4",
                    "midi": 64,
                    "time": 109.22990000000063,
                    "velocity": 0.28346456692913385,
                    "duration": 0.27307475000000636
                },
                {
                    "name": "A4",
                    "midi": 69,
                    "time": 109.50297475000063,
                    "velocity": 0.2204724409448819,
                    "duration": 0.27307475000000636
                },
                {
                    "name": "G4",
                    "midi": 67,
                    "time": 109.77604950000064,
                    "velocity": 0.29133858267716534,
                    "duration": 0.27307475000000636
                },
                {
                    "name": "A4",
                    "midi": 69,
                    "time": 110.04912425000065,
                    "velocity": 0.2283464566929134,
                    "duration": 0.27307475000000636
                },
                {
                    "name": "E4",
                    "midi": 64,
                    "time": 110.32219900000065,
                    "velocity": 0.3228346456692913,
                    "duration": 0.27307475000000636
                },
                {
                    "name": "A4",
                    "midi": 69,
                    "time": 110.59527375000066,
                    "velocity": 0.28346456692913385,
                    "duration": 0.27307475000000636
                },
                {
                    "name": "G4",
                    "midi": 67,
                    "time": 110.86834850000066,
                    "velocity": 0.2992125984251969,
                    "duration": 0.27307475000000636
                },
                {
                    "name": "A4",
                    "midi": 69,
                    "time": 111.14142325000067,
                    "velocity": 0.2283464566929134,
                    "duration": 0.27307475000000636
                },
                {
                    "name": "C#4",
                    "midi": 61,
                    "time": 111.41449800000068,
                    "velocity": 0.33070866141732286,
                    "duration": 0.27307475000000636
                },
                {
                    "name": "A4",
                    "midi": 69,
                    "time": 111.68757275000068,
                    "velocity": 0.2047244094488189,
                    "duration": 0.27307475000000636
                },
                {
                    "name": "G4",
                    "midi": 67,
                    "time": 111.96064750000069,
                    "velocity": 0.25196850393700787,
                    "duration": 0.27307475000000636
                },
                {
                    "name": "A4",
                    "midi": 69,
                    "time": 112.2337222500007,
                    "velocity": 0.2125984251968504,
                    "duration": 0.27307475000000636
                },
                {
                    "name": "C#4",
                    "midi": 61,
                    "time": 112.5067970000007,
                    "velocity": 0.33070866141732286,
                    "duration": 0.27307475000000636
                },
                {
                    "name": "A4",
                    "midi": 69,
                    "time": 112.77987175000071,
                    "velocity": 0.2204724409448819,
                    "duration": 0.27307475000000636
                },
                {
                    "name": "G4",
                    "midi": 67,
                    "time": 113.05294650000071,
                    "velocity": 0.25196850393700787,
                    "duration": 0.27307475000000636
                },
                {
                    "name": "A4",
                    "midi": 69,
                    "time": 113.33967498750071,
                    "velocity": 0.2125984251968504,
                    "duration": 0.27307474999999215
                },
                {
                    "name": "C#4",
                    "midi": 61,
                    "time": 113.59909600000071,
                    "velocity": 0.33070866141732286,
                    "duration": 0.27307474999999215
                },
                {
                    "name": "A4",
                    "midi": 69,
                    "time": 113.8721707500007,
                    "velocity": 0.2125984251968504,
                    "duration": 0.27307475000000636
                },
                {
                    "name": "G4",
                    "midi": 67,
                    "time": 114.14524550000071,
                    "velocity": 0.25984251968503935,
                    "duration": 0.27307475000000636
                },
                {
                    "name": "A4",
                    "midi": 69,
                    "time": 114.41832025000072,
                    "velocity": 0.2204724409448819,
                    "duration": 0.27307475000000636
                },
                {
                    "name": "D4",
                    "midi": 62,
                    "time": 114.69139500000072,
                    "velocity": 0.33070866141732286,
                    "duration": 0.27307475000000636
                },
                {
                    "name": "A4",
                    "midi": 69,
                    "time": 114.96446975000073,
                    "velocity": 0.2283464566929134,
                    "duration": 0.27307475000000636
                },
                {
                    "name": "F#4",
                    "midi": 66,
                    "time": 115.23754450000074,
                    "velocity": 0.25984251968503935,
                    "duration": 0.27307475000000636
                },
                {
                    "name": "A4",
                    "midi": 69,
                    "time": 115.51061925000074,
                    "velocity": 0.2283464566929134,
                    "duration": 0.27307475000000636
                },
                {
                    "name": "C#4",
                    "midi": 61,
                    "time": 115.78369400000075,
                    "velocity": 0.36220472440944884,
                    "duration": 0.27307475000000636
                },
                {
                    "name": "A4",
                    "midi": 69,
                    "time": 116.05676875000076,
                    "velocity": 0.28346456692913385,
                    "duration": 0.27307475000000636
                },
                {
                    "name": "D4",
                    "midi": 62,
                    "time": 116.32984350000076,
                    "velocity": 0.33070866141732286,
                    "duration": 0.27307475000000636
                },
                {
                    "name": "A4",
                    "midi": 69,
                    "time": 116.60291825000077,
                    "velocity": 0.2992125984251969,
                    "duration": 0.27307475000000636
                },
                {
                    "name": "B3",
                    "midi": 59,
                    "time": 116.87599300000078,
                    "velocity": 0.36220472440944884,
                    "duration": 0.27307475000000636
                },
                {
                    "name": "G4",
                    "midi": 67,
                    "time": 117.14906775000078,
                    "velocity": 0.3464566929133858,
                    "duration": 0.27307475000000636
                },
                {
                    "name": "D4",
                    "midi": 62,
                    "time": 117.42214250000079,
                    "velocity": 0.3858267716535433,
                    "duration": 0.27307475000000636
                },
                {
                    "name": "G4",
                    "midi": 67,
                    "time": 117.6952172500008,
                    "velocity": 0.3543307086614173,
                    "duration": 0.27307475000000636
                },
                {
                    "name": "A3",
                    "midi": 57,
                    "time": 117.9682920000008,
                    "velocity": 0.4015748031496063,
                    "duration": 0.27307475000000636
                },
                {
                    "name": "F#4",
                    "midi": 66,
                    "time": 118.24136675000081,
                    "velocity": 0.3464566929133858,
                    "duration": 0.27307475000000636
                },
                {
                    "name": "D4",
                    "midi": 62,
                    "time": 118.51444150000081,
                    "velocity": 0.3700787401574803,
                    "duration": 0.27307475000000636
                },
                {
                    "name": "F#4",
                    "midi": 66,
                    "time": 118.78751625000082,
                    "velocity": 0.31496062992125984,
                    "duration": 0.27307475000000636
                },
                {
                    "name": "G3",
                    "midi": 55,
                    "time": 119.06059100000083,
                    "velocity": 0.3937007874015748,
                    "duration": 0.27307475000000636
                },
                {
                    "name": "E4",
                    "midi": 64,
                    "time": 119.33366575000083,
                    "velocity": 0.3228346456692913,
                    "duration": 0.27307475000000636
                },
                {
                    "name": "C#4",
                    "midi": 61,
                    "time": 119.60674050000084,
                    "velocity": 0.3858267716535433,
                    "duration": 0.27307475000000636
                },
                {
                    "name": "E4",
                    "midi": 64,
                    "time": 119.87981525000085,
                    "velocity": 0.3228346456692913,
                    "duration": 0.27307475000000636
                },
                {
                    "name": "F#3",
                    "midi": 54,
                    "time": 120.15289000000085,
                    "velocity": 0.36220472440944884,
                    "duration": 0.27307475000000636
                },
                {
                    "name": "D4",
                    "midi": 62,
                    "time": 120.42596475000086,
                    "velocity": 0.25984251968503935,
                    "duration": 0.27307475000000636
                },
                {
                    "name": "B3",
                    "midi": 59,
                    "time": 120.69903950000086,
                    "velocity": 0.33070866141732286,
                    "duration": 0.27307475000000636
                },
                {
                    "name": "D4",
                    "midi": 62,
                    "time": 120.97211425000087,
                    "velocity": 0.2677165354330709,
                    "duration": 0.27307475000000636
                },
                {
                    "name": "B3",
                    "midi": 59,
                    "time": 121.24518900000088,
                    "velocity": 0.36220472440944884,
                    "duration": 0.27307475000000636
                },
                {
                    "name": "G4",
                    "midi": 67,
                    "time": 121.51826375000088,
                    "velocity": 0.25984251968503935,
                    "duration": 0.27307475000000636
                },
                {
                    "name": "E4",
                    "midi": 64,
                    "time": 121.79133850000089,
                    "velocity": 0.3228346456692913,
                    "duration": 0.27307475000000636
                },
                {
                    "name": "G4",
                    "midi": 67,
                    "time": 122.0644132500009,
                    "velocity": 0.25196850393700787,
                    "duration": 0.27307475000000636
                },
                {
                    "name": "A3",
                    "midi": 57,
                    "time": 122.3374880000009,
                    "velocity": 0.31496062992125984,
                    "duration": 0.27307475000000636
                },
                {
                    "name": "F#4",
                    "midi": 66,
                    "time": 122.61056275000091,
                    "velocity": 0.23622047244094488,
                    "duration": 0.27307475000000636
                },
                {
                    "name": "D#4",
                    "midi": 63,
                    "time": 122.88363750000092,
                    "velocity": 0.31496062992125984,
                    "duration": 0.27307475000000636
                },
                {
                    "name": "F#4",
                    "midi": 66,
                    "time": 123.15671225000092,
                    "velocity": 0.23622047244094488,
                    "duration": 0.27307475000000636
                },
                {
                    "name": "G3",
                    "midi": 55,
                    "time": 123.42978700000093,
                    "velocity": 0.33070866141732286,
                    "duration": 0.27307475000000636
                },
                {
                    "name": "E4",
                    "midi": 64,
                    "time": 123.70286175000093,
                    "velocity": 0.2283464566929134,
                    "duration": 0.27307475000000636
                },
                {
                    "name": "C4",
                    "midi": 60,
                    "time": 123.97593650000094,
                    "velocity": 0.2755905511811024,
                    "duration": 0.27307475000000636
                },
                {
                    "name": "E4",
                    "midi": 64,
                    "time": 124.24901125000095,
                    "velocity": 0.23622047244094488,
                    "duration": 0.27307475000000636
                },
                {
                    "name": "A3",
                    "midi": 57,
                    "time": 124.52208600000095,
                    "velocity": 0.31496062992125984,
                    "duration": 0.27307475000000636
                },
                {
                    "name": "F#4",
                    "midi": 66,
                    "time": 124.79516075000096,
                    "velocity": 0.2047244094488189,
                    "duration": 0.27307475000000636
                },
                {
                    "name": "D4",
                    "midi": 62,
                    "time": 125.06823550000097,
                    "velocity": 0.25984251968503935,
                    "duration": 0.27307475000000636
                },
                {
                    "name": "F#4",
                    "midi": 66,
                    "time": 125.34131025000097,
                    "velocity": 0.2283464566929134,
                    "duration": 0.27307475000000636
                },
                {
                    "name": "A3",
                    "midi": 57,
                    "time": 125.61438500000098,
                    "velocity": 0.30708661417322836,
                    "duration": 0.27307475000000636
                },
                {
                    "name": "F#4",
                    "midi": 66,
                    "time": 125.88745975000099,
                    "velocity": 0.2283464566929134,
                    "duration": 0.27307475000000636
                },
                {
                    "name": "D4",
                    "midi": 62,
                    "time": 126.16053450000099,
                    "velocity": 0.29133858267716534,
                    "duration": 0.27307475000000636
                },
                {
                    "name": "F#4",
                    "midi": 66,
                    "time": 126.433609250001,
                    "velocity": 0.2283464566929134,
                    "duration": 0.27307475000000636
                },
                {
                    "name": "A3",
                    "midi": 57,
                    "time": 126.706684000001,
                    "velocity": 0.30708661417322836,
                    "duration": 0.27307475000000636
                },
                {
                    "name": "G4",
                    "midi": 67,
                    "time": 126.97975875000101,
                    "velocity": 0.23622047244094488,
                    "duration": 0.27307475000000636
                },
                {
                    "name": "E4",
                    "midi": 64,
                    "time": 127.25283350000102,
                    "velocity": 0.28346456692913385,
                    "duration": 0.27307475000000636
                },
                {
                    "name": "G4",
                    "midi": 67,
                    "time": 127.52590825000102,
                    "velocity": 0.2283464566929134,
                    "duration": 0.2616966354166692
                },
                {
                    "name": "D4",
                    "midi": 62,
                    "time": 127.79898300000103,
                    "velocity": 0.2677165354330709,
                    "duration": 2.1845980000000083
                },
                {
                    "name": "G4",
                    "midi": 67,
                    "time": 127.79898300000103,
                    "velocity": 0.31496062992125984,
                    "duration": 1.0922990000000112
                },
                {
                    "name": "F#4",
                    "midi": 66,
                    "time": 128.89128200000104,
                    "velocity": 0.2204724409448819,
                    "duration": 1.092298999999997
                },
                {
                    "name": "G3",
                    "midi": 55,
                    "time": 131.07588000000104,
                    "velocity": 0.2755905511811024,
                    "duration": 0.27307475000000636
                },
                {
                    "name": "D4",
                    "midi": 62,
                    "time": 131.34895475000104,
                    "velocity": 0.18110236220472442,
                    "duration": 0.27307475000000636
                },
                {
                    "name": "B3",
                    "midi": 59,
                    "time": 131.62202950000105,
                    "velocity": 0.2440944881889764,
                    "duration": 0.27307475000000636
                },
                {
                    "name": "D4",
                    "midi": 62,
                    "time": 131.89510425000105,
                    "velocity": 0.18110236220472442,
                    "duration": 0.27307475000000636
                },
                {
                    "name": "G3",
                    "midi": 55,
                    "time": 132.16817900000106,
                    "velocity": 0.31496062992125984,
                    "duration": 0.27307475000000636
                },
                {
                    "name": "D4",
                    "midi": 62,
                    "time": 132.44125375000107,
                    "velocity": 0.2047244094488189,
                    "duration": 0.27307475000000636
                },
                {
                    "name": "B3",
                    "midi": 59,
                    "time": 132.71432850000107,
                    "velocity": 0.25196850393700787,
                    "duration": 0.27307475000000636
                },
                {
                    "name": "D4",
                    "midi": 62,
                    "time": 132.98740325000108,
                    "velocity": 0.2047244094488189,
                    "duration": 0.27307475000000636
                },
                {
                    "name": "A3",
                    "midi": 57,
                    "time": 133.2604780000011,
                    "velocity": 0.31496062992125984,
                    "duration": 0.27307475000000636
                },
                {
                    "name": "D4",
                    "midi": 62,
                    "time": 133.5335527500011,
                    "velocity": 0.2047244094488189,
                    "duration": 0.27307475000000636
                },
                {
                    "name": "C4",
                    "midi": 60,
                    "time": 133.8066275000011,
                    "velocity": 0.25196850393700787,
                    "duration": 0.27307475000000636
                },
                {
                    "name": "D4",
                    "midi": 62,
                    "time": 134.0797022500011,
                    "velocity": 0.2125984251968504,
                    "duration": 0.27307475000000636
                },
                {
                    "name": "G3",
                    "midi": 55,
                    "time": 134.3527770000011,
                    "velocity": 0.31496062992125984,
                    "duration": 0.27307475000000636
                },
                {
                    "name": "D4",
                    "midi": 62,
                    "time": 134.62585175000112,
                    "velocity": 0.2204724409448819,
                    "duration": 0.27307475000000636
                },
                {
                    "name": "B3",
                    "midi": 59,
                    "time": 134.89892650000112,
                    "velocity": 0.25196850393700787,
                    "duration": 0.27307475000000636
                },
                {
                    "name": "D4",
                    "midi": 62,
                    "time": 135.17200125000113,
                    "velocity": 0.2204724409448819,
                    "duration": 0.27307475000000636
                },
                {
                    "name": "G3",
                    "midi": 55,
                    "time": 135.44507600000114,
                    "velocity": 0.31496062992125984,
                    "duration": 0.27307475000000636
                },
                {
                    "name": "D4",
                    "midi": 62,
                    "time": 135.71815075000114,
                    "velocity": 0.2283464566929134,
                    "duration": 0.27307475000000636
                },
                {
                    "name": "B3",
                    "midi": 59,
                    "time": 135.99122550000115,
                    "velocity": 0.25984251968503935,
                    "duration": 0.27307475000000636
                },
                {
                    "name": "D4",
                    "midi": 62,
                    "time": 136.26430025000116,
                    "velocity": 0.23622047244094488,
                    "duration": 0.27307475000000636
                },
                {
                    "name": "G3",
                    "midi": 55,
                    "time": 136.53737500000116,
                    "velocity": 0.3228346456692913,
                    "duration": 0.27307475000000636
                },
                {
                    "name": "D4",
                    "midi": 62,
                    "time": 136.81044975000117,
                    "velocity": 0.23622047244094488,
                    "duration": 0.27307475000000636
                },
                {
                    "name": "B3",
                    "midi": 59,
                    "time": 137.08352450000118,
                    "velocity": 0.25984251968503935,
                    "duration": 0.27307475000000636
                },
                {
                    "name": "D4",
                    "midi": 62,
                    "time": 137.35659925000118,
                    "velocity": 0.2283464566929134,
                    "duration": 0.27307475000000636
                },
                {
                    "name": "G3",
                    "midi": 55,
                    "time": 137.6296740000012,
                    "velocity": 0.33858267716535434,
                    "duration": 0.27307475000000636
                },
                {
                    "name": "E4",
                    "midi": 64,
                    "time": 137.9027487500012,
                    "velocity": 0.2283464566929134,
                    "duration": 0.27307475000000636
                },
                {
                    "name": "C4",
                    "midi": 60,
                    "time": 138.1758235000012,
                    "velocity": 0.2677165354330709,
                    "duration": 0.27307475000000636
                },
                {
                    "name": "E4",
                    "midi": 64,
                    "time": 138.4488982500012,
                    "velocity": 0.23622047244094488,
                    "duration": 0.27307475000000636
                },
                {
                    "name": "G3",
                    "midi": 55,
                    "time": 138.7219730000012,
                    "velocity": 0.3464566929133858,
                    "duration": 0.27307475000000636
                },
                {
                    "name": "E4",
                    "midi": 64,
                    "time": 138.99504775000122,
                    "velocity": 0.2677165354330709,
                    "duration": 0.27307475000000636
                },
                {
                    "name": "C4",
                    "midi": 60,
                    "time": 139.26812250000123,
                    "velocity": 0.30708661417322836,
                    "duration": 0.27307475000000636
                },
                {
                    "name": "E4",
                    "midi": 64,
                    "time": 139.54119725000123,
                    "velocity": 0.2677165354330709,
                    "duration": 0.27307475000000636
                },
                {
                    "name": "G3",
                    "midi": 55,
                    "time": 139.81427200000124,
                    "velocity": 0.31496062992125984,
                    "duration": 0.27307475000000636
                },
                {
                    "name": "C#4",
                    "midi": 61,
                    "time": 140.08734675000125,
                    "velocity": 0.2047244094488189,
                    "duration": 0.27307475000000636
                },
                {
                    "name": "A#3",
                    "midi": 58,
                    "time": 140.36042150000125,
                    "velocity": 0.2677165354330709,
                    "duration": 0.27307475000000636
                },
                {
                    "name": "C#4",
                    "midi": 61,
                    "time": 140.63349625000126,
                    "velocity": 0.2125984251968504,
                    "duration": 0.27307475000000636
                },
                {
                    "name": "G3",
                    "midi": 55,
                    "time": 140.90657100000126,
                    "velocity": 0.31496062992125984,
                    "duration": 0.27307475000000636
                },
                {
                    "name": "D4",
                    "midi": 62,
                    "time": 141.17964575000127,
                    "velocity": 0.1889763779527559,
                    "duration": 0.27307475000000636
                },
                {
                    "name": "B3",
                    "midi": 59,
                    "time": 141.45272050000128,
                    "velocity": 0.2440944881889764,
                    "duration": 0.27307475000000636
                },
                {
                    "name": "D4",
                    "midi": 62,
                    "time": 141.72579525000128,
                    "velocity": 0.2125984251968504,
                    "duration": 0.27307475000000636
                },
                {
                    "name": "G3",
                    "midi": 55,
                    "time": 141.9988700000013,
                    "velocity": 0.31496062992125984,
                    "duration": 0.27307475000000636
                },
                {
                    "name": "D4",
                    "midi": 62,
                    "time": 142.2719447500013,
                    "velocity": 0.2047244094488189,
                    "duration": 0.27307475000000636
                },
                {
                    "name": "B3",
                    "midi": 59,
                    "time": 142.5450195000013,
                    "velocity": 0.25984251968503935,
                    "duration": 0.27307475000000636
                },
                {
                    "name": "D4",
                    "midi": 62,
                    "time": 142.8180942500013,
                    "velocity": 0.2125984251968504,
                    "duration": 0.27307475000000636
                },
                {
                    "name": "G3",
                    "midi": 55,
                    "time": 143.09116900000132,
                    "velocity": 0.3228346456692913,
                    "duration": 0.27307475000000636
                },
                {
                    "name": "D4",
                    "midi": 62,
                    "time": 143.36424375000132,
                    "velocity": 0.23622047244094488,
                    "duration": 0.27307475000000636
                },
                {
                    "name": "B3",
                    "midi": 59,
                    "time": 143.63731850000133,
                    "velocity": 0.25984251968503935,
                    "duration": 0.27307475000000636
                },
                {
                    "name": "D4",
                    "midi": 62,
                    "time": 143.91039325000133,
                    "velocity": 0.2283464566929134,
                    "duration": 0.27307475000000636
                },
                {
                    "name": "A3",
                    "midi": 57,
                    "time": 144.18346800000134,
                    "velocity": 0.31496062992125984,
                    "duration": 0.27307475000000636
                },
                {
                    "name": "D4",
                    "midi": 62,
                    "time": 144.45654275000135,
                    "velocity": 0.2125984251968504,
                    "duration": 0.27307475000000636
                },
                {
                    "name": "C4",
                    "midi": 60,
                    "time": 144.72961750000135,
                    "velocity": 0.25196850393700787,
                    "duration": 0.27307475000000636
                },
                {
                    "name": "D4",
                    "midi": 62,
                    "time": 145.00269225000136,
                    "velocity": 0.2125984251968504,
                    "duration": 0.27307475000000636
                },
                {
                    "name": "A3",
                    "midi": 57,
                    "time": 145.27576700000137,
                    "velocity": 0.31496062992125984,
                    "duration": 0.27307475000000636
                },
                {
                    "name": "D4",
                    "midi": 62,
                    "time": 145.54884175000137,
                    "velocity": 0.23622047244094488,
                    "duration": 0.27307475000000636
                },
                {
                    "name": "C4",
                    "midi": 60,
                    "time": 145.82191650000138,
                    "velocity": 0.25984251968503935,
                    "duration": 0.27307475000000636
                },
                {
                    "name": "D4",
                    "midi": 62,
                    "time": 146.09499125000139,
                    "velocity": 0.2204724409448819,
                    "duration": 0.27307475000000636
                },
                {
                    "name": "A3",
                    "midi": 57,
                    "time": 146.3680660000014,
                    "velocity": 0.31496062992125984,
                    "duration": 0.27307475000000636
                },
                {
                    "name": "D4",
                    "midi": 62,
                    "time": 146.6411407500014,
                    "velocity": 0.2047244094488189,
                    "duration": 0.27307475000000636
                },
                {
                    "name": "C4",
                    "midi": 60,
                    "time": 146.9142155000014,
                    "velocity": 0.2677165354330709,
                    "duration": 0.27307475000000636
                },
                {
                    "name": "D4",
                    "midi": 62,
                    "time": 147.1872902500014,
                    "velocity": 0.2125984251968504,
                    "duration": 0.27307475000000636
                },
                {
                    "name": "G3",
                    "midi": 55,
                    "time": 147.46036500000142,
                    "velocity": 0.31496062992125984,
                    "duration": 0.27307475000000636
                },
                {
                    "name": "D4",
                    "midi": 62,
                    "time": 147.73343975000142,
                    "velocity": 0.2204724409448819,
                    "duration": 0.27307475000000636
                },
                {
                    "name": "B3",
                    "midi": 59,
                    "time": 148.00651450000143,
                    "velocity": 0.28346456692913385,
                    "duration": 0.27307475000000636
                },
                {
                    "name": "D4",
                    "midi": 62,
                    "time": 148.27958925000144,
                    "velocity": 0.25984251968503935,
                    "duration": 0.27307475000000636
                },
                {
                    "name": "E3",
                    "midi": 52,
                    "time": 148.55266400000144,
                    "velocity": 0.36220472440944884,
                    "duration": 0.27307475000000636
                },
                {
                    "name": "B3",
                    "midi": 59,
                    "time": 148.82573875000145,
                    "velocity": 0.33070866141732286,
                    "duration": 0.27307475000000636
                },
                {
                    "name": "G3",
                    "midi": 55,
                    "time": 149.09881350000146,
                    "velocity": 0.3779527559055118,
                    "duration": 0.27307475000000636
                },
                {
                    "name": "B3",
                    "midi": 59,
                    "time": 149.37188825000146,
                    "velocity": 0.3464566929133858,
                    "duration": 0.27307475000000636
                },
                {
                    "name": "B2",
                    "midi": 47,
                    "time": 149.64496300000147,
                    "velocity": 0.4015748031496063,
                    "duration": 0.27307475000000636
                },
                {
                    "name": "G3",
                    "midi": 55,
                    "time": 149.91803775000147,
                    "velocity": 0.30708661417322836,
                    "duration": 0.27307475000000636
                },
                {
                    "name": "D3",
                    "midi": 50,
                    "time": 150.19111250000148,
                    "velocity": 0.3700787401574803,
                    "duration": 0.27307475000000636
                },
                {
                    "name": "G3",
                    "midi": 55,
                    "time": 150.4641872500015,
                    "velocity": 0.2677165354330709,
                    "duration": 0.27307475000000636
                },
                {
                    "name": "C3",
                    "midi": 48,
                    "time": 150.7372620000015,
                    "velocity": 0.31496062992125984,
                    "duration": 0.27307475000000636
                },
                {
                    "name": "A3",
                    "midi": 57,
                    "time": 151.0103367500015,
                    "velocity": 0.2047244094488189,
                    "duration": 0.27307475000000636
                },
                {
                    "name": "E3",
                    "midi": 52,
                    "time": 151.2834115000015,
                    "velocity": 0.25984251968503935,
                    "duration": 0.27307475000000636
                },
                {
                    "name": "A3",
                    "midi": 57,
                    "time": 151.5564862500015,
                    "velocity": 0.1968503937007874,
                    "duration": 0.27307475000000636
                },
                {
                    "name": "D3",
                    "midi": 50,
                    "time": 151.82956100000152,
                    "velocity": 0.30708661417322836,
                    "duration": 0.27307475000000636
                },
                {
                    "name": "B3",
                    "midi": 59,
                    "time": 152.10263575000153,
                    "velocity": 0.2125984251968504,
                    "duration": 0.27307475000000636
                },
                {
                    "name": "G3",
                    "midi": 55,
                    "time": 152.37571050000153,
                    "velocity": 0.25196850393700787,
                    "duration": 0.27307475000000636
                },
                {
                    "name": "B3",
                    "midi": 59,
                    "time": 152.64878525000154,
                    "velocity": 0.2125984251968504,
                    "duration": 0.27307475000000636
                },
                {
                    "name": "D3",
                    "midi": 50,
                    "time": 152.92186000000154,
                    "velocity": 0.30708661417322836,
                    "duration": 0.27307475000000636
                },
                {
                    "name": "C4",
                    "midi": 60,
                    "time": 153.19493475000155,
                    "velocity": 0.2125984251968504,
                    "duration": 0.27307475000000636
                },
                {
                    "name": "A3",
                    "midi": 57,
                    "time": 153.46800950000156,
                    "velocity": 0.25984251968503935,
                    "duration": 0.27307475000000636
                },
                {
                    "name": "C4",
                    "midi": 60,
                    "time": 153.74108425000156,
                    "velocity": 0.2283464566929134,
                    "duration": 0.261696635416655
                },
                {
                    "name": "G3",
                    "midi": 55,
                    "time": 154.01415900000154,
                    "velocity": 0.2125984251968504,
                    "duration": 2.184597999999994
                },
                {
                    "name": "C4",
                    "midi": 60,
                    "time": 154.01415900000154,
                    "velocity": 0.28346456692913385,
                    "duration": 1.092298999999997
                },
                {
                    "name": "B3",
                    "midi": 59,
                    "time": 155.10645800000154,
                    "velocity": 0.2204724409448819,
                    "duration": 1.092298999999997
                },
                {
                    "name": "D4",
                    "midi": 62,
                    "time": 157.29105600000153,
                    "velocity": 0.31496062992125984,
                    "duration": 0.27307475000000636
                },
                {
                    "name": "A4",
                    "midi": 69,
                    "time": 157.56413075000154,
                    "velocity": 0.1968503937007874,
                    "duration": 0.27307475000000636
                },
                {
                    "name": "F#4",
                    "midi": 66,
                    "time": 157.83720550000155,
                    "velocity": 0.2440944881889764,
                    "duration": 0.27307475000000636
                },
                {
                    "name": "A4",
                    "midi": 69,
                    "time": 158.11028025000155,
                    "velocity": 0.2047244094488189,
                    "duration": 0.27307475000000636
                },
                {
                    "name": "D4",
                    "midi": 62,
                    "time": 158.38335500000156,
                    "velocity": 0.31496062992125984,
                    "duration": 0.27307475000000636
                },
                {
                    "name": "A4",
                    "midi": 69,
                    "time": 158.65642975000156,
                    "velocity": 0.2125984251968504,
                    "duration": 0.27307475000000636
                },
                {
                    "name": "F#4",
                    "midi": 66,
                    "time": 158.92950450000157,
                    "velocity": 0.2440944881889764,
                    "duration": 0.27307475000000636
                },
                {
                    "name": "A4",
                    "midi": 69,
                    "time": 159.21623298750157,
                    "velocity": 0.2047244094488189,
                    "duration": 0.27307475000000636
                },
                {
                    "name": "D4",
                    "midi": 62,
                    "time": 159.47565400000158,
                    "velocity": 0.31496062992125984,
                    "duration": 0.27307475000000636
                },
                {
                    "name": "A4",
                    "midi": 69,
                    "time": 159.7487287500016,
                    "velocity": 0.2047244094488189,
                    "duration": 0.27307475000000636
                },
                {
                    "name": "F#4",
                    "midi": 66,
                    "time": 160.0218035000016,
                    "velocity": 0.25196850393700787,
                    "duration": 0.27307475000000636
                },
                {
                    "name": "A4",
                    "midi": 69,
                    "time": 160.2948782500016,
                    "velocity": 0.2125984251968504,
                    "duration": 0.27307475000000636
                },
                {
                    "name": "E4",
                    "midi": 64,
                    "time": 160.5679530000016,
                    "velocity": 0.31496062992125984,
                    "duration": 0.27307475000000636
                },
                {
                    "name": "A4",
                    "midi": 69,
                    "time": 160.84102775000162,
                    "velocity": 0.2204724409448819,
                    "duration": 0.27307475000000636
                },
                {
                    "name": "G4",
                    "midi": 67,
                    "time": 161.11410250000162,
                    "velocity": 0.25196850393700787,
                    "duration": 0.27307475000000636
                },
                {
                    "name": "A4",
                    "midi": 69,
                    "time": 161.38717725000163,
                    "velocity": 0.2204724409448819,
                    "duration": 0.27307475000000636
                },
                {
                    "name": "E4",
                    "midi": 64,
                    "time": 161.66025200000163,
                    "velocity": 0.28346456692913385,
                    "duration": 0.27307475000000636
                },
                {
                    "name": "A4",
                    "midi": 69,
                    "time": 161.93332675000164,
                    "velocity": 0.2204724409448819,
                    "duration": 0.27307475000000636
                },
                {
                    "name": "G4",
                    "midi": 67,
                    "time": 162.20640150000165,
                    "velocity": 0.29133858267716534,
                    "duration": 0.27307475000000636
                },
                {
                    "name": "A4",
                    "midi": 69,
                    "time": 162.47947625000165,
                    "velocity": 0.2283464566929134,
                    "duration": 0.27307475000000636
                },
                {
                    "name": "E4",
                    "midi": 64,
                    "time": 162.75255100000166,
                    "velocity": 0.3228346456692913,
                    "duration": 0.27307475000000636
                },
                {
                    "name": "A4",
                    "midi": 69,
                    "time": 163.02562575000167,
                    "velocity": 0.28346456692913385,
                    "duration": 0.27307475000000636
                },
                {
                    "name": "G4",
                    "midi": 67,
                    "time": 163.29870050000167,
                    "velocity": 0.2992125984251969,
                    "duration": 0.27307475000000636
                },
                {
                    "name": "A4",
                    "midi": 69,
                    "time": 163.57177525000168,
                    "velocity": 0.2283464566929134,
                    "duration": 0.27307475000000636
                },
                {
                    "name": "C#4",
                    "midi": 61,
                    "time": 163.84485000000168,
                    "velocity": 0.33070866141732286,
                    "duration": 0.27307475000000636
                },
                {
                    "name": "A4",
                    "midi": 69,
                    "time": 164.1179247500017,
                    "velocity": 0.2047244094488189,
                    "duration": 0.27307475000000636
                },
                {
                    "name": "G4",
                    "midi": 67,
                    "time": 164.3909995000017,
                    "velocity": 0.25196850393700787,
                    "duration": 0.27307475000000636
                },
                {
                    "name": "A4",
                    "midi": 69,
                    "time": 164.6640742500017,
                    "velocity": 0.2125984251968504,
                    "duration": 0.27307475000000636
                },
                {
                    "name": "C#4",
                    "midi": 61,
                    "time": 164.9371490000017,
                    "velocity": 0.33070866141732286,
                    "duration": 0.27307475000000636
                },
                {
                    "name": "A4",
                    "midi": 69,
                    "time": 165.21022375000172,
                    "velocity": 0.2204724409448819,
                    "duration": 0.27307475000000636
                },
                {
                    "name": "G4",
                    "midi": 67,
                    "time": 165.48329850000172,
                    "velocity": 0.25196850393700787,
                    "duration": 0.27307475000000636
                },
                {
                    "name": "A4",
                    "midi": 69,
                    "time": 165.77002698750172,
                    "velocity": 0.2125984251968504,
                    "duration": 0.27307475000000636
                },
                {
                    "name": "C#4",
                    "midi": 61,
                    "time": 166.02944800000174,
                    "velocity": 0.33070866141732286,
                    "duration": 0.27307475000000636
                },
                {
                    "name": "A4",
                    "midi": 69,
                    "time": 166.30252275000174,
                    "velocity": 0.2125984251968504,
                    "duration": 0.27307475000000636
                },
                {
                    "name": "G4",
                    "midi": 67,
                    "time": 166.57559750000175,
                    "velocity": 0.25984251968503935,
                    "duration": 0.27307475000000636
                },
                {
                    "name": "A4",
                    "midi": 69,
                    "time": 166.84867225000175,
                    "velocity": 0.2204724409448819,
                    "duration": 0.27307475000000636
                },
                {
                    "name": "D4",
                    "midi": 62,
                    "time": 167.12174700000176,
                    "velocity": 0.33070866141732286,
                    "duration": 0.27307475000000636
                },
                {
                    "name": "A4",
                    "midi": 69,
                    "time": 167.39482175000177,
                    "velocity": 0.2283464566929134,
                    "duration": 0.27307475000000636
                },
                {
                    "name": "F#4",
                    "midi": 66,
                    "time": 167.66789650000177,
                    "velocity": 0.25984251968503935,
                    "duration": 0.27307475000000636
                },
                {
                    "name": "A4",
                    "midi": 69,
                    "time": 167.94097125000178,
                    "velocity": 0.2283464566929134,
                    "duration": 0.27307475000000636
                },
                {
                    "name": "C#4",
                    "midi": 61,
                    "time": 168.2140460000018,
                    "velocity": 0.36220472440944884,
                    "duration": 0.27307475000000636
                },
                {
                    "name": "A4",
                    "midi": 69,
                    "time": 168.4871207500018,
                    "velocity": 0.28346456692913385,
                    "duration": 0.27307475000000636
                },
                {
                    "name": "D4",
                    "midi": 62,
                    "time": 168.7601955000018,
                    "velocity": 0.33070866141732286,
                    "duration": 0.27307475000000636
                },
                {
                    "name": "A4",
                    "midi": 69,
                    "time": 169.0332702500018,
                    "velocity": 0.2992125984251969,
                    "duration": 0.27307475000000636
                },
                {
                    "name": "B3",
                    "midi": 59,
                    "time": 169.3063450000018,
                    "velocity": 0.36220472440944884,
                    "duration": 0.27307475000000636
                },
                {
                    "name": "G4",
                    "midi": 67,
                    "time": 169.57941975000182,
                    "velocity": 0.3464566929133858,
                    "duration": 0.27307475000000636
                },
                {
                    "name": "D4",
                    "midi": 62,
                    "time": 169.85249450000182,
                    "velocity": 0.3858267716535433,
                    "duration": 0.27307475000000636
                },
                {
                    "name": "G4",
                    "midi": 67,
                    "time": 170.12556925000183,
                    "velocity": 0.3543307086614173,
                    "duration": 0.27307475000000636
                },
                {
                    "name": "A3",
                    "midi": 57,
                    "time": 170.39864400000184,
                    "velocity": 0.4015748031496063,
                    "duration": 0.27307475000000636
                },
                {
                    "name": "F#4",
                    "midi": 66,
                    "time": 170.67171875000184,
                    "velocity": 0.3464566929133858,
                    "duration": 0.27307475000000636
                },
                {
                    "name": "D4",
                    "midi": 62,
                    "time": 170.94479350000185,
                    "velocity": 0.3700787401574803,
                    "duration": 0.27307475000000636
                },
                {
                    "name": "F#4",
                    "midi": 66,
                    "time": 171.21786825000186,
                    "velocity": 0.31496062992125984,
                    "duration": 0.27307475000000636
                },
                {
                    "name": "G3",
                    "midi": 55,
                    "time": 171.49094300000186,
                    "velocity": 0.3937007874015748,
                    "duration": 0.27307475000000636
                },
                {
                    "name": "E4",
                    "midi": 64,
                    "time": 171.76401775000187,
                    "velocity": 0.3228346456692913,
                    "duration": 0.27307475000000636
                },
                {
                    "name": "C#4",
                    "midi": 61,
                    "time": 172.03709250000188,
                    "velocity": 0.3858267716535433,
                    "duration": 0.27307475000000636
                },
                {
                    "name": "E4",
                    "midi": 64,
                    "time": 172.31016725000188,
                    "velocity": 0.3228346456692913,
                    "duration": 0.27307475000000636
                },
                {
                    "name": "F#3",
                    "midi": 54,
                    "time": 172.5832420000019,
                    "velocity": 0.36220472440944884,
                    "duration": 0.27307475000000636
                },
                {
                    "name": "D4",
                    "midi": 62,
                    "time": 172.8563167500019,
                    "velocity": 0.25984251968503935,
                    "duration": 0.27307475000000636
                },
                {
                    "name": "B3",
                    "midi": 59,
                    "time": 173.1293915000019,
                    "velocity": 0.33070866141732286,
                    "duration": 0.27307475000000636
                },
                {
                    "name": "D4",
                    "midi": 62,
                    "time": 173.4024662500019,
                    "velocity": 0.2677165354330709,
                    "duration": 0.27307475000000636
                },
                {
                    "name": "B3",
                    "midi": 59,
                    "time": 173.6755410000019,
                    "velocity": 0.36220472440944884,
                    "duration": 0.27307475000000636
                },
                {
                    "name": "G4",
                    "midi": 67,
                    "time": 173.94861575000192,
                    "velocity": 0.25984251968503935,
                    "duration": 0.27307475000000636
                },
                {
                    "name": "E4",
                    "midi": 64,
                    "time": 174.22169050000193,
                    "velocity": 0.3228346456692913,
                    "duration": 0.27307475000000636
                },
                {
                    "name": "G4",
                    "midi": 67,
                    "time": 174.49476525000193,
                    "velocity": 0.25196850393700787,
                    "duration": 0.27307475000000636
                },
                {
                    "name": "A3",
                    "midi": 57,
                    "time": 174.76784000000194,
                    "velocity": 0.31496062992125984,
                    "duration": 0.27307475000000636
                },
                {
                    "name": "F#4",
                    "midi": 66,
                    "time": 175.04091475000195,
                    "velocity": 0.23622047244094488,
                    "duration": 0.27307475000000636
                },
                {
                    "name": "D#4",
                    "midi": 63,
                    "time": 175.31398950000195,
                    "velocity": 0.31496062992125984,
                    "duration": 0.27307475000000636
                },
                {
                    "name": "F#4",
                    "midi": 66,
                    "time": 175.58706425000196,
                    "velocity": 0.23622047244094488,
                    "duration": 0.27307475000000636
                },
                {
                    "name": "G3",
                    "midi": 55,
                    "time": 175.86013900000196,
                    "velocity": 0.33070866141732286,
                    "duration": 0.27307475000000636
                },
                {
                    "name": "E4",
                    "midi": 64,
                    "time": 176.13321375000197,
                    "velocity": 0.2283464566929134,
                    "duration": 0.27307475000000636
                },
                {
                    "name": "C4",
                    "midi": 60,
                    "time": 176.40628850000198,
                    "velocity": 0.2755905511811024,
                    "duration": 0.27307475000000636
                },
                {
                    "name": "E4",
                    "midi": 64,
                    "time": 176.67936325000198,
                    "velocity": 0.23622047244094488,
                    "duration": 0.27307475000000636
                },
                {
                    "name": "A3",
                    "midi": 57,
                    "time": 176.952438000002,
                    "velocity": 0.31496062992125984,
                    "duration": 0.27307475000000636
                },
                {
                    "name": "F#4",
                    "midi": 66,
                    "time": 177.225512750002,
                    "velocity": 0.2047244094488189,
                    "duration": 0.27307475000000636
                },
                {
                    "name": "D4",
                    "midi": 62,
                    "time": 177.498587500002,
                    "velocity": 0.25984251968503935,
                    "duration": 0.27307475000000636
                },
                {
                    "name": "F#4",
                    "midi": 66,
                    "time": 177.771662250002,
                    "velocity": 0.2283464566929134,
                    "duration": 0.27307475000000636
                },
                {
                    "name": "A3",
                    "midi": 57,
                    "time": 178.04473700000202,
                    "velocity": 0.30708661417322836,
                    "duration": 0.27307475000000636
                },
                {
                    "name": "F#4",
                    "midi": 66,
                    "time": 178.31781175000202,
                    "velocity": 0.2283464566929134,
                    "duration": 0.27307475000000636
                },
                {
                    "name": "D4",
                    "midi": 62,
                    "time": 178.59088650000203,
                    "velocity": 0.29133858267716534,
                    "duration": 0.27307475000000636
                },
                {
                    "name": "F#4",
                    "midi": 66,
                    "time": 178.86396125000203,
                    "velocity": 0.2283464566929134,
                    "duration": 0.27307475000000636
                },
                {
                    "name": "A3",
                    "midi": 57,
                    "time": 179.13703600000204,
                    "velocity": 0.30708661417322836,
                    "duration": 0.27307475000000636
                },
                {
                    "name": "G4",
                    "midi": 67,
                    "time": 179.41011075000205,
                    "velocity": 0.23622047244094488,
                    "duration": 0.27307475000000636
                },
                {
                    "name": "E4",
                    "midi": 64,
                    "time": 179.68318550000205,
                    "velocity": 0.28346456692913385,
                    "duration": 0.27307475000000636
                },
                {
                    "name": "G4",
                    "midi": 67,
                    "time": 179.95626025000206,
                    "velocity": 0.2283464566929134,
                    "duration": 0.261696635416655
                },
                {
                    "name": "G4",
                    "midi": 67,
                    "time": 180.22933500000204,
                    "velocity": 0.31496062992125984,
                    "duration": 1.092298999999997
                },
                {
                    "name": "D4",
                    "midi": 62,
                    "time": 180.22933500000204,
                    "velocity": 0.2677165354330709,
                    "duration": 2.184597999999994
                },
                {
                    "name": "F#4",
                    "midi": 66,
                    "time": 181.32163400000204,
                    "velocity": 0.2204724409448819,
                    "duration": 1.092298999999997
                },
                {
                    "name": "G3",
                    "midi": 55,
                    "time": 183.50623200000203,
                    "velocity": 0.2755905511811024,
                    "duration": 0.27307475000000636
                },
                {
                    "name": "D4",
                    "midi": 62,
                    "time": 183.77930675000204,
                    "velocity": 0.18110236220472442,
                    "duration": 0.27307475000000636
                },
                {
                    "name": "B3",
                    "midi": 59,
                    "time": 184.05238150000204,
                    "velocity": 0.2440944881889764,
                    "duration": 0.27307475000000636
                },
                {
                    "name": "D4",
                    "midi": 62,
                    "time": 184.32545625000205,
                    "velocity": 0.18110236220472442,
                    "duration": 0.27307475000000636
                },
                {
                    "name": "G3",
                    "midi": 55,
                    "time": 184.59853100000205,
                    "velocity": 0.31496062992125984,
                    "duration": 0.27307475000000636
                },
                {
                    "name": "D4",
                    "midi": 62,
                    "time": 184.87160575000206,
                    "velocity": 0.2047244094488189,
                    "duration": 0.27307475000000636
                },
                {
                    "name": "B3",
                    "midi": 59,
                    "time": 185.14468050000207,
                    "velocity": 0.25196850393700787,
                    "duration": 0.27307475000000636
                },
                {
                    "name": "D4",
                    "midi": 62,
                    "time": 185.41775525000207,
                    "velocity": 0.2047244094488189,
                    "duration": 0.27307475000000636
                },
                {
                    "name": "A3",
                    "midi": 57,
                    "time": 185.69083000000208,
                    "velocity": 0.31496062992125984,
                    "duration": 0.27307475000000636
                },
                {
                    "name": "D4",
                    "midi": 62,
                    "time": 185.9639047500021,
                    "velocity": 0.2047244094488189,
                    "duration": 0.27307475000000636
                },
                {
                    "name": "C4",
                    "midi": 60,
                    "time": 186.2369795000021,
                    "velocity": 0.25196850393700787,
                    "duration": 0.27307475000000636
                },
                {
                    "name": "D4",
                    "midi": 62,
                    "time": 186.5100542500021,
                    "velocity": 0.2125984251968504,
                    "duration": 0.27307475000000636
                },
                {
                    "name": "G3",
                    "midi": 55,
                    "time": 186.7831290000021,
                    "velocity": 0.31496062992125984,
                    "duration": 0.27307475000000636
                },
                {
                    "name": "D4",
                    "midi": 62,
                    "time": 187.0562037500021,
                    "velocity": 0.2204724409448819,
                    "duration": 0.27307475000000636
                },
                {
                    "name": "B3",
                    "midi": 59,
                    "time": 187.32927850000212,
                    "velocity": 0.25196850393700787,
                    "duration": 0.27307475000000636
                },
                {
                    "name": "D4",
                    "midi": 62,
                    "time": 187.60235325000212,
                    "velocity": 0.2204724409448819,
                    "duration": 0.27307475000000636
                },
                {
                    "name": "G3",
                    "midi": 55,
                    "time": 187.87542800000213,
                    "velocity": 0.31496062992125984,
                    "duration": 0.27307475000000636
                },
                {
                    "name": "D4",
                    "midi": 62,
                    "time": 188.14850275000214,
                    "velocity": 0.2283464566929134,
                    "duration": 0.27307475000000636
                },
                {
                    "name": "B3",
                    "midi": 59,
                    "time": 188.42157750000214,
                    "velocity": 0.25984251968503935,
                    "duration": 0.27307475000000636
                },
                {
                    "name": "D4",
                    "midi": 62,
                    "time": 188.69465225000215,
                    "velocity": 0.23622047244094488,
                    "duration": 0.27307475000000636
                },
                {
                    "name": "G3",
                    "midi": 55,
                    "time": 188.96772700000216,
                    "velocity": 0.3228346456692913,
                    "duration": 0.27307475000000636
                },
                {
                    "name": "D4",
                    "midi": 62,
                    "time": 189.24080175000216,
                    "velocity": 0.23622047244094488,
                    "duration": 0.27307475000000636
                },
                {
                    "name": "B3",
                    "midi": 59,
                    "time": 189.51387650000217,
                    "velocity": 0.25984251968503935,
                    "duration": 0.27307475000000636
                },
                {
                    "name": "D4",
                    "midi": 62,
                    "time": 189.78695125000218,
                    "velocity": 0.2283464566929134,
                    "duration": 0.27307475000000636
                },
                {
                    "name": "G3",
                    "midi": 55,
                    "time": 190.06002600000218,
                    "velocity": 0.33858267716535434,
                    "duration": 0.27307475000000636
                },
                {
                    "name": "E4",
                    "midi": 64,
                    "time": 190.3331007500022,
                    "velocity": 0.2283464566929134,
                    "duration": 0.27307475000000636
                },
                {
                    "name": "C4",
                    "midi": 60,
                    "time": 190.6061755000022,
                    "velocity": 0.2677165354330709,
                    "duration": 0.27307475000000636
                },
                {
                    "name": "E4",
                    "midi": 64,
                    "time": 190.8792502500022,
                    "velocity": 0.23622047244094488,
                    "duration": 0.27307475000000636
                },
                {
                    "name": "G3",
                    "midi": 55,
                    "time": 191.1523250000022,
                    "velocity": 0.3464566929133858,
                    "duration": 0.27307475000000636
                },
                {
                    "name": "E4",
                    "midi": 64,
                    "time": 191.4253997500022,
                    "velocity": 0.2677165354330709,
                    "duration": 0.27307475000000636
                },
                {
                    "name": "C4",
                    "midi": 60,
                    "time": 191.69847450000222,
                    "velocity": 0.30708661417322836,
                    "duration": 0.27307475000000636
                },
                {
                    "name": "E4",
                    "midi": 64,
                    "time": 191.97154925000223,
                    "velocity": 0.2677165354330709,
                    "duration": 0.27307475000000636
                },
                {
                    "name": "G3",
                    "midi": 55,
                    "time": 192.24462400000223,
                    "velocity": 0.31496062992125984,
                    "duration": 0.27307475000000636
                },
                {
                    "name": "C#4",
                    "midi": 61,
                    "time": 192.51769875000224,
                    "velocity": 0.2047244094488189,
                    "duration": 0.27307475000000636
                },
                {
                    "name": "A#3",
                    "midi": 58,
                    "time": 192.79077350000225,
                    "velocity": 0.2677165354330709,
                    "duration": 0.27307475000000636
                },
                {
                    "name": "C#4",
                    "midi": 61,
                    "time": 193.06384825000225,
                    "velocity": 0.2125984251968504,
                    "duration": 0.27307475000000636
                },
                {
                    "name": "G3",
                    "midi": 55,
                    "time": 193.33692300000226,
                    "velocity": 0.31496062992125984,
                    "duration": 0.27307475000000636
                },
                {
                    "name": "D4",
                    "midi": 62,
                    "time": 193.60999775000226,
                    "velocity": 0.1889763779527559,
                    "duration": 0.27307475000000636
                },
                {
                    "name": "B3",
                    "midi": 59,
                    "time": 193.88307250000227,
                    "velocity": 0.2440944881889764,
                    "duration": 0.27307475000000636
                },
                {
                    "name": "D4",
                    "midi": 62,
                    "time": 194.15614725000228,
                    "velocity": 0.2125984251968504,
                    "duration": 0.27307475000000636
                },
                {
                    "name": "G3",
                    "midi": 55,
                    "time": 194.42922200000228,
                    "velocity": 0.31496062992125984,
                    "duration": 0.27307475000000636
                },
                {
                    "name": "D4",
                    "midi": 62,
                    "time": 194.7022967500023,
                    "velocity": 0.2047244094488189,
                    "duration": 0.27307475000000636
                },
                {
                    "name": "B3",
                    "midi": 59,
                    "time": 194.9753715000023,
                    "velocity": 0.25984251968503935,
                    "duration": 0.27307475000000636
                },
                {
                    "name": "D4",
                    "midi": 62,
                    "time": 195.2484462500023,
                    "velocity": 0.2125984251968504,
                    "duration": 0.27307475000000636
                },
                {
                    "name": "G3",
                    "midi": 55,
                    "time": 195.5215210000023,
                    "velocity": 0.3228346456692913,
                    "duration": 0.27307475000000636
                },
                {
                    "name": "D4",
                    "midi": 62,
                    "time": 195.79459575000232,
                    "velocity": 0.23622047244094488,
                    "duration": 0.27307475000000636
                },
                {
                    "name": "B3",
                    "midi": 59,
                    "time": 196.06767050000232,
                    "velocity": 0.25984251968503935,
                    "duration": 0.27307475000000636
                },
                {
                    "name": "D4",
                    "midi": 62,
                    "time": 196.34074525000233,
                    "velocity": 0.2283464566929134,
                    "duration": 0.27307475000000636
                },
                {
                    "name": "A3",
                    "midi": 57,
                    "time": 196.61382000000233,
                    "velocity": 0.31496062992125984,
                    "duration": 0.27307475000000636
                },
                {
                    "name": "D4",
                    "midi": 62,
                    "time": 196.88689475000234,
                    "velocity": 0.2125984251968504,
                    "duration": 0.27307475000000636
                },
                {
                    "name": "C4",
                    "midi": 60,
                    "time": 197.15996950000235,
                    "velocity": 0.25196850393700787,
                    "duration": 0.27307475000000636
                },
                {
                    "name": "D4",
                    "midi": 62,
                    "time": 197.43304425000235,
                    "velocity": 0.2125984251968504,
                    "duration": 0.27307475000000636
                },
                {
                    "name": "A3",
                    "midi": 57,
                    "time": 197.70611900000236,
                    "velocity": 0.31496062992125984,
                    "duration": 0.27307475000000636
                },
                {
                    "name": "D4",
                    "midi": 62,
                    "time": 197.97919375000237,
                    "velocity": 0.23622047244094488,
                    "duration": 0.27307475000000636
                },
                {
                    "name": "C4",
                    "midi": 60,
                    "time": 198.25226850000237,
                    "velocity": 0.25984251968503935,
                    "duration": 0.27307475000000636
                },
                {
                    "name": "D4",
                    "midi": 62,
                    "time": 198.52534325000238,
                    "velocity": 0.2204724409448819,
                    "duration": 0.27307475000000636
                },
                {
                    "name": "A3",
                    "midi": 57,
                    "time": 198.79841800000239,
                    "velocity": 0.31496062992125984,
                    "duration": 0.27307475000000636
                },
                {
                    "name": "D4",
                    "midi": 62,
                    "time": 199.0714927500024,
                    "velocity": 0.2047244094488189,
                    "duration": 0.27307475000000636
                },
                {
                    "name": "C4",
                    "midi": 60,
                    "time": 199.3445675000024,
                    "velocity": 0.2677165354330709,
                    "duration": 0.27307475000000636
                },
                {
                    "name": "D4",
                    "midi": 62,
                    "time": 199.6176422500024,
                    "velocity": 0.2125984251968504,
                    "duration": 0.27307475000000636
                },
                {
                    "name": "G3",
                    "midi": 55,
                    "time": 199.8907170000024,
                    "velocity": 0.31496062992125984,
                    "duration": 0.27307475000000636
                },
                {
                    "name": "D4",
                    "midi": 62,
                    "time": 200.16379175000242,
                    "velocity": 0.2204724409448819,
                    "duration": 0.27307475000000636
                },
                {
                    "name": "B3",
                    "midi": 59,
                    "time": 200.43686650000242,
                    "velocity": 0.28346456692913385,
                    "duration": 0.27307475000000636
                },
                {
                    "name": "D4",
                    "midi": 62,
                    "time": 200.70994125000243,
                    "velocity": 0.25984251968503935,
                    "duration": 0.27307475000000636
                },
                {
                    "name": "E3",
                    "midi": 52,
                    "time": 200.98301600000244,
                    "velocity": 0.36220472440944884,
                    "duration": 0.27307475000000636
                },
                {
                    "name": "B3",
                    "midi": 59,
                    "time": 201.25609075000244,
                    "velocity": 0.33070866141732286,
                    "duration": 0.27307475000000636
                },
                {
                    "name": "G3",
                    "midi": 55,
                    "time": 201.52916550000245,
                    "velocity": 0.3779527559055118,
                    "duration": 0.27307475000000636
                },
                {
                    "name": "B3",
                    "midi": 59,
                    "time": 201.80224025000246,
                    "velocity": 0.3464566929133858,
                    "duration": 0.27307475000000636
                },
                {
                    "name": "B2",
                    "midi": 47,
                    "time": 202.07531500000246,
                    "velocity": 0.4015748031496063,
                    "duration": 0.27307475000000636
                },
                {
                    "name": "G3",
                    "midi": 55,
                    "time": 202.34838975000247,
                    "velocity": 0.30708661417322836,
                    "duration": 0.27307475000000636
                },
                {
                    "name": "D3",
                    "midi": 50,
                    "time": 202.62146450000247,
                    "velocity": 0.3700787401574803,
                    "duration": 0.27307475000000636
                },
                {
                    "name": "G3",
                    "midi": 55,
                    "time": 202.89453925000248,
                    "velocity": 0.2677165354330709,
                    "duration": 0.27307475000000636
                },
                {
                    "name": "C3",
                    "midi": 48,
                    "time": 203.1676140000025,
                    "velocity": 0.31496062992125984,
                    "duration": 0.27307475000000636
                },
                {
                    "name": "A3",
                    "midi": 57,
                    "time": 203.4406887500025,
                    "velocity": 0.2047244094488189,
                    "duration": 0.27307475000000636
                },
                {
                    "name": "E3",
                    "midi": 52,
                    "time": 203.7137635000025,
                    "velocity": 0.25984251968503935,
                    "duration": 0.27307475000000636
                },
                {
                    "name": "A3",
                    "midi": 57,
                    "time": 203.9868382500025,
                    "velocity": 0.1968503937007874,
                    "duration": 0.27307475000000636
                },
                {
                    "name": "D3",
                    "midi": 50,
                    "time": 204.2599130000025,
                    "velocity": 0.30708661417322836,
                    "duration": 0.27307475000000636
                },
                {
                    "name": "B3",
                    "midi": 59,
                    "time": 204.53298775000252,
                    "velocity": 0.2125984251968504,
                    "duration": 0.27307475000000636
                },
                {
                    "name": "G3",
                    "midi": 55,
                    "time": 204.80606250000253,
                    "velocity": 0.25196850393700787,
                    "duration": 0.27307475000000636
                },
                {
                    "name": "B3",
                    "midi": 59,
                    "time": 205.07913725000253,
                    "velocity": 0.2125984251968504,
                    "duration": 0.27307475000000636
                },
                {
                    "name": "D3",
                    "midi": 50,
                    "time": 205.35221200000254,
                    "velocity": 0.30708661417322836,
                    "duration": 0.27307475000000636
                },
                {
                    "name": "C4",
                    "midi": 60,
                    "time": 205.62528675000254,
                    "velocity": 0.2125984251968504,
                    "duration": 0.27307475000000636
                },
                {
                    "name": "A3",
                    "midi": 57,
                    "time": 205.89836150000255,
                    "velocity": 0.25984251968503935,
                    "duration": 0.27307475000000636
                },
                {
                    "name": "C4",
                    "midi": 60,
                    "time": 206.17143625000256,
                    "velocity": 0.2283464566929134,
                    "duration": 0.261696635416655
                },
                {
                    "name": "G3",
                    "midi": 55,
                    "time": 206.44451100000254,
                    "velocity": 0.2125984251968504,
                    "duration": 2.184597999999994
                },
                {
                    "name": "C4",
                    "midi": 60,
                    "time": 206.44451100000254,
                    "velocity": 0.28346456692913385,
                    "duration": 1.092298999999997
                },
                {
                    "name": "B3",
                    "midi": 59,
                    "time": 207.53681000000253,
                    "velocity": 0.2204724409448819,
                    "duration": 1.092298999999997
                },
                {
                    "name": "G3",
                    "midi": 55,
                    "time": 209.72140800000253,
                    "velocity": 0.31496062992125984,
                    "duration": 0.27307475000000636
                },
                {
                    "name": "D4",
                    "midi": 62,
                    "time": 209.99448275000253,
                    "velocity": 0.1968503937007874,
                    "duration": 0.27307475000000636
                },
                {
                    "name": "A#3",
                    "midi": 58,
                    "time": 210.26755750000254,
                    "velocity": 0.2440944881889764,
                    "duration": 0.27307475000000636
                },
                {
                    "name": "D4",
                    "midi": 62,
                    "time": 210.54063225000255,
                    "velocity": 0.2047244094488189,
                    "duration": 0.27307475000000636
                },
                {
                    "name": "G3",
                    "midi": 55,
                    "time": 210.81370700000255,
                    "velocity": 0.31496062992125984,
                    "duration": 0.27307475000000636
                },
                {
                    "name": "D4",
                    "midi": 62,
                    "time": 211.08678175000256,
                    "velocity": 0.2125984251968504,
                    "duration": 0.27307475000000636
                },
                {
                    "name": "A#3",
                    "midi": 58,
                    "time": 211.35985650000256,
                    "velocity": 0.2440944881889764,
                    "duration": 0.27307475000000636
                },
                {
                    "name": "D4",
                    "midi": 62,
                    "time": 211.63293125000257,
                    "velocity": 0.2047244094488189,
                    "duration": 0.27307475000000636
                },
                {
                    "name": "A3",
                    "midi": 57,
                    "time": 211.90600600000258,
                    "velocity": 0.31496062992125984,
                    "duration": 0.27307475000000636
                },
                {
                    "name": "D4",
                    "midi": 62,
                    "time": 212.17908075000258,
                    "velocity": 0.2047244094488189,
                    "duration": 0.27307475000000636
                },
                {
                    "name": "C4",
                    "midi": 60,
                    "time": 212.4521555000026,
                    "velocity": 0.25196850393700787,
                    "duration": 0.27307475000000636
                },
                {
                    "name": "D4",
                    "midi": 62,
                    "time": 212.7252302500026,
                    "velocity": 0.2125984251968504,
                    "duration": 0.27307475000000636
                },
                {
                    "name": "G3",
                    "midi": 55,
                    "time": 212.9983050000026,
                    "velocity": 0.31496062992125984,
                    "duration": 0.27307475000000636
                },
                {
                    "name": "D4",
                    "midi": 62,
                    "time": 213.2713797500026,
                    "velocity": 0.2440944881889764,
                    "duration": 0.27307475000000636
                },
                {
                    "name": "A#3",
                    "midi": 58,
                    "time": 213.54445450000262,
                    "velocity": 0.2755905511811024,
                    "duration": 0.27307475000000636
                },
                {
                    "name": "D4",
                    "midi": 62,
                    "time": 213.81752925000262,
                    "velocity": 0.2204724409448819,
                    "duration": 0.27307475000000636
                },
                {
                    "name": "G3",
                    "midi": 55,
                    "time": 214.09060400000263,
                    "velocity": 0.3700787401574803,
                    "duration": 0.27307475000000636
                },
                {
                    "name": "D4",
                    "midi": 62,
                    "time": 214.36367875000263,
                    "velocity": 0.29133858267716534,
                    "duration": 0.27307475000000636
                },
                {
                    "name": "A#3",
                    "midi": 58,
                    "time": 214.63675350000264,
                    "velocity": 0.3228346456692913,
                    "duration": 0.27307475000000636
                },
                {
                    "name": "D4",
                    "midi": 62,
                    "time": 214.90982825000265,
                    "velocity": 0.30708661417322836,
                    "duration": 0.27307475000000636
                },
                {
                    "name": "G3",
                    "midi": 55,
                    "time": 215.18290300000265,
                    "velocity": 0.4015748031496063,
                    "duration": 0.27307475000000636
                },
                {
                    "name": "D4",
                    "midi": 62,
                    "time": 215.45597775000266,
                    "velocity": 0.33858267716535434,
                    "duration": 0.27307475000000636
                },
                {
                    "name": "A#3",
                    "midi": 58,
                    "time": 215.72905250000267,
                    "velocity": 0.36220472440944884,
                    "duration": 0.27307475000000636
                },
                {
                    "name": "D4",
                    "midi": 62,
                    "time": 216.00212725000267,
                    "velocity": 0.3228346456692913,
                    "duration": 0.27307475000000636
                },
                {
                    "name": "F#3",
                    "midi": 54,
                    "time": 216.27520200000268,
                    "velocity": 0.3700787401574803,
                    "duration": 0.27307475000000636
                },
                {
                    "name": "D4",
                    "midi": 62,
                    "time": 216.54827675000269,
                    "velocity": 0.2440944881889764,
                    "duration": 0.27307475000000636
                },
                {
                    "name": "A3",
                    "midi": 57,
                    "time": 216.8213515000027,
                    "velocity": 0.31496062992125984,
                    "duration": 0.27307475000000636
                },
                {
                    "name": "D4",
                    "midi": 62,
                    "time": 217.0944262500027,
                    "velocity": 0.25984251968503935,
                    "duration": 0.27307475000000636
                },
                {
                    "name": "F#3",
                    "midi": 54,
                    "time": 217.3675010000027,
                    "velocity": 0.31496062992125984,
                    "duration": 0.27307475000000636
                },
                {
                    "name": "D4",
                    "midi": 62,
                    "time": 217.6405757500027,
                    "velocity": 0.2440944881889764,
                    "duration": 0.27307475000000636
                },
                {
                    "name": "A3",
                    "midi": 57,
                    "time": 217.91365050000272,
                    "velocity": 0.29133858267716534,
                    "duration": 0.27307475000000636
                },
                {
                    "name": "D4",
                    "midi": 62,
                    "time": 218.18672525000272,
                    "velocity": 0.2440944881889764,
                    "duration": 0.27307475000000636
                },
                {
                    "name": "D3",
                    "midi": 50,
                    "time": 218.45980000000273,
                    "velocity": 0.31496062992125984,
                    "duration": 0.27307475000000636
                },
                {
                    "name": "D4",
                    "midi": 62,
                    "time": 218.73287475000274,
                    "velocity": 0.23622047244094488,
                    "duration": 0.27307475000000636
                },
                {
                    "name": "F#3",
                    "midi": 54,
                    "time": 219.00594950000274,
                    "velocity": 0.28346456692913385,
                    "duration": 0.27307475000000636
                },
                {
                    "name": "D4",
                    "midi": 62,
                    "time": 219.27902425000275,
                    "velocity": 0.23622047244094488,
                    "duration": 0.27307475000000636
                },
                {
                    "name": "G3",
                    "midi": 55,
                    "time": 219.55209900000276,
                    "velocity": 0.31496062992125984,
                    "duration": 0.27307475000000636
                },
                {
                    "name": "D4",
                    "midi": 62,
                    "time": 219.82517375000276,
                    "velocity": 0.2755905511811024,
                    "duration": 0.27307475000000636
                },
                {
                    "name": "A#3",
                    "midi": 58,
                    "time": 220.09824850000277,
                    "velocity": 0.31496062992125984,
                    "duration": 0.27307475000000636
                },
                {
                    "name": "D4",
                    "midi": 62,
                    "time": 220.37132325000277,
                    "velocity": 0.29133858267716534,
                    "duration": 0.27307475000000636
                },
                {
                    "name": "G3",
                    "midi": 55,
                    "time": 220.64439800000278,
                    "velocity": 0.3779527559055118,
                    "duration": 0.27307475000000636
                },
                {
                    "name": "D4",
                    "midi": 62,
                    "time": 220.9174727500028,
                    "velocity": 0.30708661417322836,
                    "duration": 0.27307475000000636
                },
                {
                    "name": "A#3",
                    "midi": 58,
                    "time": 221.1905475000028,
                    "velocity": 0.3700787401574803,
                    "duration": 0.27307475000000636
                },
                {
                    "name": "D4",
                    "midi": 62,
                    "time": 221.4636222500028,
                    "velocity": 0.2755905511811024,
                    "duration": 0.27307475000000636
                },
                {
                    "name": "G3",
                    "midi": 55,
                    "time": 221.7366970000028,
                    "velocity": 0.4330708661417323,
                    "duration": 0.27307475000000636
                },
                {
                    "name": "D#4",
                    "midi": 63,
                    "time": 222.0097717500028,
                    "velocity": 0.3779527559055118,
                    "duration": 0.27307475000000636
                },
                {
                    "name": "A#3",
                    "midi": 58,
                    "time": 222.28284650000282,
                    "velocity": 0.3937007874015748,
                    "duration": 0.27307475000000636
                },
                {
                    "name": "D#4",
                    "midi": 63,
                    "time": 222.55592125000283,
                    "velocity": 0.33858267716535434,
                    "duration": 0.27307475000000636
                },
                {
                    "name": "A3",
                    "midi": 57,
                    "time": 222.82899600000283,
                    "velocity": 0.44881889763779526,
                    "duration": 0.27307475000000636
                },
                {
                    "name": "F4",
                    "midi": 65,
                    "time": 223.10207075000284,
                    "velocity": 0.30708661417322836,
                    "duration": 0.27307475000000636
                },
                {
                    "name": "C4",
                    "midi": 60,
                    "time": 223.37514550000284,
                    "velocity": 0.3937007874015748,
                    "duration": 0.27307475000000636
                },
                {
                    "name": "F4",
                    "midi": 65,
                    "time": 223.64822025000285,
                    "velocity": 0.31496062992125984,
                    "duration": 0.27307475000000636
                },
                {
                    "name": "A3",
                    "midi": 57,
                    "time": 223.92129500000286,
                    "velocity": 0.3779527559055118,
                    "duration": 0.27307475000000636
                },
                {
                    "name": "F4",
                    "midi": 65,
                    "time": 224.19436975000286,
                    "velocity": 0.31496062992125984,
                    "duration": 0.27307475000000636
                },
                {
                    "name": "C4",
                    "midi": 60,
                    "time": 224.46744450000287,
                    "velocity": 0.3779527559055118,
                    "duration": 0.27307475000000636
                },
                {
                    "name": "F4",
                    "midi": 65,
                    "time": 224.74051925000288,
                    "velocity": 0.30708661417322836,
                    "duration": 0.27307475000000636
                },
                {
                    "name": "A3",
                    "midi": 57,
                    "time": 225.01359400000288,
                    "velocity": 0.3779527559055118,
                    "duration": 0.27307475000000636
                },
                {
                    "name": "F4",
                    "midi": 65,
                    "time": 225.2866687500029,
                    "velocity": 0.28346456692913385,
                    "duration": 0.27307475000000636
                },
                {
                    "name": "C4",
                    "midi": 60,
                    "time": 225.5597435000029,
                    "velocity": 0.33070866141732286,
                    "duration": 0.27307475000000636
                },
                {
                    "name": "F4",
                    "midi": 65,
                    "time": 225.8328182500029,
                    "velocity": 0.2992125984251969,
                    "duration": 0.27307475000000636
                },
                {
                    "name": "A#3",
                    "midi": 58,
                    "time": 226.1058930000029,
                    "velocity": 0.36220472440944884,
                    "duration": 0.27307475000000636
                },
                {
                    "name": "F4",
                    "midi": 65,
                    "time": 226.37896775000291,
                    "velocity": 0.2283464566929134,
                    "duration": 0.27307475000000636
                },
                {
                    "name": "D4",
                    "midi": 62,
                    "time": 226.65204250000292,
                    "velocity": 0.2677165354330709,
                    "duration": 0.27307475000000636
                },
                {
                    "name": "F4",
                    "midi": 65,
                    "time": 226.92511725000293,
                    "velocity": 0.2047244094488189,
                    "duration": 0.27307475000000636
                },
                {
                    "name": "G3",
                    "midi": 55,
                    "time": 227.19819200000293,
                    "velocity": 0.31496062992125984,
                    "duration": 0.27307475000000636
                },
                {
                    "name": "D4",
                    "midi": 62,
                    "time": 227.47126675000294,
                    "velocity": 0.23622047244094488,
                    "duration": 0.27307475000000636
                },
                {
                    "name": "A#3",
                    "midi": 58,
                    "time": 227.74434150000295,
                    "velocity": 0.31496062992125984,
                    "duration": 0.27307475000000636
                },
                {
                    "name": "D4",
                    "midi": 62,
                    "time": 228.01741625000295,
                    "velocity": 0.23622047244094488,
                    "duration": 0.27307475000000636
                },
                {
                    "name": "D3",
                    "midi": 50,
                    "time": 228.29049100000296,
                    "velocity": 0.33070866141732286,
                    "duration": 0.27307475000000636
                },
                {
                    "name": "A#3",
                    "midi": 58,
                    "time": 228.56356575000297,
                    "velocity": 0.2283464566929134,
                    "duration": 0.27307475000000636
                },
                {
                    "name": "F3",
                    "midi": 53,
                    "time": 228.83664050000297,
                    "velocity": 0.2755905511811024,
                    "duration": 0.27307475000000636
                },
                {
                    "name": "A#3",
                    "midi": 58,
                    "time": 229.10971525000298,
                    "velocity": 0.23622047244094488,
                    "duration": 0.27307475000000636
                },
                {
                    "name": "D#3",
                    "midi": 51,
                    "time": 229.38279000000298,
                    "velocity": 0.29133858267716534,
                    "duration": 0.27307475000000636
                },
                {
                    "name": "C4",
                    "midi": 60,
                    "time": 229.655864750003,
                    "velocity": 0.2047244094488189,
                    "duration": 0.27307475000000636
                },
                {
                    "name": "G3",
                    "midi": 55,
                    "time": 229.928939500003,
                    "velocity": 0.25984251968503935,
                    "duration": 0.27307475000000636
                },
                {
                    "name": "C4",
                    "midi": 60,
                    "time": 230.202014250003,
                    "velocity": 0.2283464566929134,
                    "duration": 0.27307475000000636
                },
                {
                    "name": "F3",
                    "midi": 53,
                    "time": 230.475089000003,
                    "velocity": 0.30708661417322836,
                    "duration": 0.27307475000000636
                },
                {
                    "name": "D4",
                    "midi": 62,
                    "time": 230.74816375000302,
                    "velocity": 0.2047244094488189,
                    "duration": 0.27307475000000636
                },
                {
                    "name": "A#3",
                    "midi": 58,
                    "time": 231.02123850000302,
                    "velocity": 0.2755905511811024,
                    "duration": 0.27307475000000636
                },
                {
                    "name": "D4",
                    "midi": 62,
                    "time": 231.29431325000303,
                    "velocity": 0.2204724409448819,
                    "duration": 0.27307475000000636
                },
                {
                    "name": "F3",
                    "midi": 53,
                    "time": 231.56738800000304,
                    "velocity": 0.30708661417322836,
                    "duration": 0.27307475000000636
                },
                {
                    "name": "D#4",
                    "midi": 63,
                    "time": 231.84046275000304,
                    "velocity": 0.23622047244094488,
                    "duration": 0.27307475000000636
                },
                {
                    "name": "C4",
                    "midi": 60,
                    "time": 232.11353750000305,
                    "velocity": 0.28346456692913385,
                    "duration": 0.27307475000000636
                },
                {
                    "name": "D#4",
                    "midi": 63,
                    "time": 232.38661225000305,
                    "velocity": 0.2283464566929134,
                    "duration": 0.261696635416655
                },
                {
                    "name": "A#3",
                    "midi": 58,
                    "time": 232.65968700000303,
                    "velocity": 0.2677165354330709,
                    "duration": 2.184597999999994
                },
                {
                    "name": "D#4",
                    "midi": 63,
                    "time": 232.65968700000303,
                    "velocity": 0.31496062992125984,
                    "duration": 1.092298999999997
                },
                {
                    "name": "D4",
                    "midi": 62,
                    "time": 233.75198600000303,
                    "velocity": 0.2204724409448819,
                    "duration": 1.092298999999997
                },
                {
                    "name": "G#3",
                    "midi": 56,
                    "time": 235.93658400000302,
                    "velocity": 0.3700787401574803,
                    "duration": 0.27307475000000636
                },
                {
                    "name": "F4",
                    "midi": 65,
                    "time": 236.20965875000303,
                    "velocity": 0.25196850393700787,
                    "duration": 0.27307475000000636
                },
                {
                    "name": "C4",
                    "midi": 60,
                    "time": 236.48273350000304,
                    "velocity": 0.2992125984251969,
                    "duration": 0.27307475000000636
                },
                {
                    "name": "F4",
                    "midi": 65,
                    "time": 236.75580825000304,
                    "velocity": 0.2440944881889764,
                    "duration": 0.27307475000000636
                },
                {
                    "name": "G3",
                    "midi": 55,
                    "time": 237.02888300000305,
                    "velocity": 0.31496062992125984,
                    "duration": 0.27307475000000636
                },
                {
                    "name": "D4",
                    "midi": 62,
                    "time": 237.30195775000306,
                    "velocity": 0.25196850393700787,
                    "duration": 0.27307475000000636
                },
                {
                    "name": "B3",
                    "midi": 59,
                    "time": 237.57503250000306,
                    "velocity": 0.29133858267716534,
                    "duration": 0.27307475000000636
                },
                {
                    "name": "D4",
                    "midi": 62,
                    "time": 237.84810725000307,
                    "velocity": 0.2440944881889764,
                    "duration": 0.27307475000000636
                },
                {
                    "name": "F3",
                    "midi": 53,
                    "time": 238.12118200000307,
                    "velocity": 0.31496062992125984,
                    "duration": 0.27307475000000636
                },
                {
                    "name": "D4",
                    "midi": 62,
                    "time": 238.39425675000308,
                    "velocity": 0.25196850393700787,
                    "duration": 0.27307475000000636
                },
                {
                    "name": "G3",
                    "midi": 55,
                    "time": 238.6673315000031,
                    "velocity": 0.29133858267716534,
                    "duration": 0.27307475000000636
                },
                {
                    "name": "D4",
                    "midi": 62,
                    "time": 238.9404062500031,
                    "velocity": 0.25196850393700787,
                    "duration": 0.27307475000000636
                },
                {
                    "name": "D#3",
                    "midi": 51,
                    "time": 239.2134810000031,
                    "velocity": 0.31496062992125984,
                    "duration": 0.27307475000000636
                },
                {
                    "name": "C4",
                    "midi": 60,
                    "time": 239.4865557500031,
                    "velocity": 0.25984251968503935,
                    "duration": 0.27307475000000636
                },
                {
                    "name": "G3",
                    "midi": 55,
                    "time": 239.7596305000031,
                    "velocity": 0.31496062992125984,
                    "duration": 0.27307475000000636
                },
                {
                    "name": "C4",
                    "midi": 60,
                    "time": 240.03270525000312,
                    "velocity": 0.2204724409448819,
                    "duration": 0.27307475000000636
                },
                {
                    "name": "D3",
                    "midi": 50,
                    "time": 240.30578000000312,
                    "velocity": 0.3464566929133858,
                    "duration": 0.27307475000000636
                },
                {
                    "name": "B3",
                    "midi": 59,
                    "time": 240.57885475000313,
                    "velocity": 0.28346456692913385,
                    "duration": 0.27307475000000636
                },
                {
                    "name": "F3",
                    "midi": 53,
                    "time": 240.85192950000314,
                    "velocity": 0.33070866141732286,
                    "duration": 0.27307475000000636
                },
                {
                    "name": "B3",
                    "midi": 59,
                    "time": 241.12500425000314,
                    "velocity": 0.25984251968503935,
                    "duration": 0.27307475000000636
                },
                {
                    "name": "C3",
                    "midi": 48,
                    "time": 241.39807900000315,
                    "velocity": 0.3858267716535433,
                    "duration": 0.27307475000000636
                },
                {
                    "name": "C4",
                    "midi": 60,
                    "time": 241.67115375000316,
                    "velocity": 0.3228346456692913,
                    "duration": 0.27307475000000636
                },
                {
                    "name": "D#3",
                    "midi": 51,
                    "time": 241.94422850000316,
                    "velocity": 0.3858267716535433,
                    "duration": 0.27307475000000636
                },
                {
                    "name": "C4",
                    "midi": 60,
                    "time": 242.21730325000317,
                    "velocity": 0.33858267716535434,
                    "duration": 0.27307475000000636
                },
                {
                    "name": "C#3",
                    "midi": 49,
                    "time": 242.49037800000318,
                    "velocity": 0.4881889763779528,
                    "duration": 0.27307475000000636
                },
                {
                    "name": "A#3",
                    "midi": 58,
                    "time": 242.76345275000318,
                    "velocity": 0.3543307086614173,
                    "duration": 0.27307475000000636
                },
                {
                    "name": "E3",
                    "midi": 52,
                    "time": 243.0365275000032,
                    "velocity": 0.41732283464566927,
                    "duration": 0.27307475000000636
                },
                {
                    "name": "A#3",
                    "midi": 58,
                    "time": 243.3096022500032,
                    "velocity": 0.30708661417322836,
                    "duration": 0.27307475000000636
                },
                {
                    "name": "D3",
                    "midi": 50,
                    "time": 243.5826770000032,
                    "velocity": 0.41732283464566927,
                    "duration": 0.27307475000000636
                },
                {
                    "name": "A#3",
                    "midi": 58,
                    "time": 243.8557517500032,
                    "velocity": 0.3228346456692913,
                    "duration": 0.27307475000000636
                },
                {
                    "name": "G3",
                    "midi": 55,
                    "time": 244.1288265000032,
                    "velocity": 0.3779527559055118,
                    "duration": 0.27307475000000636
                },
                {
                    "name": "A#3",
                    "midi": 58,
                    "time": 244.40190125000322,
                    "velocity": 0.3228346456692913,
                    "duration": 0.27307475000000636
                },
                {
                    "name": "D#3",
                    "midi": 51,
                    "time": 244.67497600000323,
                    "velocity": 0.3937007874015748,
                    "duration": 0.27307475000000636
                },
                {
                    "name": "A#3",
                    "midi": 58,
                    "time": 244.94805075000323,
                    "velocity": 0.25984251968503935,
                    "duration": 0.27307475000000636
                },
                {
                    "name": "G3",
                    "midi": 55,
                    "time": 245.22112550000324,
                    "velocity": 0.36220472440944884,
                    "duration": 0.27307475000000636
                },
                {
                    "name": "A#3",
                    "midi": 58,
                    "time": 245.49420025000325,
                    "velocity": 0.31496062992125984,
                    "duration": 0.27307475000000636
                },
                {
                    "name": "D3",
                    "midi": 50,
                    "time": 245.76727500000325,
                    "velocity": 0.4015748031496063,
                    "duration": 0.27307475000000636
                },
                {
                    "name": "A#3",
                    "midi": 58,
                    "time": 246.04034975000326,
                    "velocity": 0.25196850393700787,
                    "duration": 0.27307475000000636
                },
                {
                    "name": "G3",
                    "midi": 55,
                    "time": 246.31342450000326,
                    "velocity": 0.28346456692913385,
                    "duration": 0.27307475000000636
                },
                {
                    "name": "A#3",
                    "midi": 58,
                    "time": 246.58649925000327,
                    "velocity": 0.25196850393700787,
                    "duration": 0.27307475000000636
                },
                {
                    "name": "D3",
                    "midi": 50,
                    "time": 246.85957400000328,
                    "velocity": 0.3779527559055118,
                    "duration": 0.27307475000000636
                },
                {
                    "name": "A3",
                    "midi": 57,
                    "time": 247.13264875000328,
                    "velocity": 0.30708661417322836,
                    "duration": 0.27307475000000636
                },
                {
                    "name": "F#3",
                    "midi": 54,
                    "time": 247.4057235000033,
                    "velocity": 0.3858267716535433,
                    "duration": 0.27307475000000636
                },
                {
                    "name": "A3",
                    "midi": 57,
                    "time": 247.6787982500033,
                    "velocity": 0.33070866141732286,
                    "duration": 0.27307475000000636
                },
                {
                    "name": "D3",
                    "midi": 50,
                    "time": 247.9518730000033,
                    "velocity": 0.4330708661417323,
                    "duration": 0.27307475000000636
                },
                {
                    "name": "A3",
                    "midi": 57,
                    "time": 248.2249477500033,
                    "velocity": 0.36220472440944884,
                    "duration": 0.27307475000000636
                },
                {
                    "name": "F#3",
                    "midi": 54,
                    "time": 248.49802250000332,
                    "velocity": 0.41732283464566927,
                    "duration": 0.27307475000000636
                },
                {
                    "name": "A3",
                    "midi": 57,
                    "time": 248.77109725000332,
                    "velocity": 0.36220472440944884,
                    "duration": 0.27307475000000636
                },
                {
                    "name": "C3",
                    "midi": 48,
                    "time": 249.04417200000333,
                    "velocity": 0.49606299212598426,
                    "duration": 0.27307475000000636
                },
                {
                    "name": "A3",
                    "midi": 57,
                    "time": 249.31724675000333,
                    "velocity": 0.3700787401574803,
                    "duration": 0.27307475000000636
                },
                {
                    "name": "F#3",
                    "midi": 54,
                    "time": 249.59032150000334,
                    "velocity": 0.4330708661417323,
                    "duration": 0.27307475000000636
                },
                {
                    "name": "A3",
                    "midi": 57,
                    "time": 249.86339625000335,
                    "velocity": 0.3858267716535433,
                    "duration": 0.27307475000000636
                },
                {
                    "name": "C3",
                    "midi": 48,
                    "time": 250.13647100000335,
                    "velocity": 0.4566929133858268,
                    "duration": 0.27307475000000636
                },
                {
                    "name": "A3",
                    "midi": 57,
                    "time": 250.40954575000336,
                    "velocity": 0.3464566929133858,
                    "duration": 0.27307475000000636
                },
                {
                    "name": "F#3",
                    "midi": 54,
                    "time": 250.68262050000337,
                    "velocity": 0.4251968503937008,
                    "duration": 0.27307475000000636
                },
                {
                    "name": "A3",
                    "midi": 57,
                    "time": 250.95569525000337,
                    "velocity": 0.3700787401574803,
                    "duration": 0.27307475000000636
                },
                {
                    "name": "C3",
                    "midi": 48,
                    "time": 251.22877000000338,
                    "velocity": 0.4645669291338583,
                    "duration": 0.27307475000000636
                },
                {
                    "name": "A3",
                    "midi": 57,
                    "time": 251.5018447500034,
                    "velocity": 0.33858267716535434,
                    "duration": 0.27307475000000636
                },
                {
                    "name": "F#3",
                    "midi": 54,
                    "time": 251.7749195000034,
                    "velocity": 0.3937007874015748,
                    "duration": 0.27307475000000636
                },
                {
                    "name": "A3",
                    "midi": 57,
                    "time": 252.0479942500034,
                    "velocity": 0.2677165354330709,
                    "duration": 0.27307475000000636
                },
                {
                    "name": "A#2",
                    "midi": 46,
                    "time": 252.3210690000034,
                    "velocity": 0.44881889763779526,
                    "duration": 0.27307475000000636
                },
                {
                    "name": "G3",
                    "midi": 55,
                    "time": 252.5941437500034,
                    "velocity": 0.3464566929133858,
                    "duration": 0.27307475000000636
                },
                {
                    "name": "D3",
                    "midi": 50,
                    "time": 252.86721850000342,
                    "velocity": 0.3937007874015748,
                    "duration": 0.27307475000000636
                },
                {
                    "name": "G3",
                    "midi": 55,
                    "time": 253.14029325000342,
                    "velocity": 0.33070866141732286,
                    "duration": 0.27307475000000636
                },
                {
                    "name": "A#2",
                    "midi": 46,
                    "time": 253.41336800000343,
                    "velocity": 0.3937007874015748,
                    "duration": 0.27307475000000636
                },
                {
                    "name": "G3",
                    "midi": 55,
                    "time": 253.68644275000344,
                    "velocity": 0.2992125984251969,
                    "duration": 0.27307475000000636
                },
                {
                    "name": "D3",
                    "midi": 50,
                    "time": 253.95951750000344,
                    "velocity": 0.36220472440944884,
                    "duration": 0.27307475000000636
                },
                {
                    "name": "G3",
                    "midi": 55,
                    "time": 254.23259225000345,
                    "velocity": 0.29133858267716534,
                    "duration": 0.27307475000000636
                },
                {
                    "name": "A#2",
                    "midi": 46,
                    "time": 254.50566700000346,
                    "velocity": 0.33070866141732286,
                    "duration": 0.27307475000000636
                },
                {
                    "name": "G3",
                    "midi": 55,
                    "time": 254.77874175000346,
                    "velocity": 0.2283464566929134,
                    "duration": 0.27307475000000636
                },
                {
                    "name": "D3",
                    "midi": 50,
                    "time": 255.05181650000347,
                    "velocity": 0.2755905511811024,
                    "duration": 0.27307475000000636
                },
                {
                    "name": "G3",
                    "midi": 55,
                    "time": 255.32489125000347,
                    "velocity": 0.23622047244094488,
                    "duration": 0.27307475000000636
                },
                {
                    "name": "C3",
                    "midi": 48,
                    "time": 255.59796600000348,
                    "velocity": 0.29133858267716534,
                    "duration": 0.27307475000000636
                },
                {
                    "name": "A3",
                    "midi": 57,
                    "time": 255.8710407500035,
                    "velocity": 0.2047244094488189,
                    "duration": 0.27307474999997794
                },
                {
                    "name": "D#3",
                    "midi": 51,
                    "time": 256.14411550000347,
                    "velocity": 0.25984251968503935,
                    "duration": 0.27307474999997794
                },
                {
                    "name": "A3",
                    "midi": 57,
                    "time": 256.41719025000344,
                    "velocity": 0.2283464566929134,
                    "duration": 0.27307474999997794
                },
                {
                    "name": "D3",
                    "midi": 50,
                    "time": 256.6902650000034,
                    "velocity": 0.30708661417322836,
                    "duration": 0.27307474999997794
                },
                {
                    "name": "A#3",
                    "midi": 58,
                    "time": 256.9633397500034,
                    "velocity": 0.2283464566929134,
                    "duration": 0.27307474999997794
                },
                {
                    "name": "G3",
                    "midi": 55,
                    "time": 257.2364145000034,
                    "velocity": 0.29133858267716534,
                    "duration": 0.27307474999997794
                },
                {
                    "name": "A#3",
                    "midi": 58,
                    "time": 257.50948925000336,
                    "velocity": 0.2283464566929134,
                    "duration": 0.27307474999997794
                },
                {
                    "name": "D3",
                    "midi": 50,
                    "time": 257.78256400000333,
                    "velocity": 0.30708661417322836,
                    "duration": 0.27307474999997794
                },
                {
                    "name": "C4",
                    "midi": 60,
                    "time": 258.0556387500033,
                    "velocity": 0.23622047244094488,
                    "duration": 0.27307474999997794
                },
                {
                    "name": "A3",
                    "midi": 57,
                    "time": 258.3287135000033,
                    "velocity": 0.28346456692913385,
                    "duration": 0.27307474999997794
                },
                {
                    "name": "C4",
                    "midi": 60,
                    "time": 258.60178825000327,
                    "velocity": 0.2283464566929134,
                    "duration": 0.2616966354166834
                },
                {
                    "name": "G3",
                    "midi": 55,
                    "time": 258.8748630000033,
                    "velocity": 0.2677165354330709,
                    "duration": 2.184598000000051
                },
                {
                    "name": "C4",
                    "midi": 60,
                    "time": 258.8748630000033,
                    "velocity": 0.31496062992125984,
                    "duration": 1.0922990000000254
                },
                {
                    "name": "A#3",
                    "midi": 58,
                    "time": 259.9671620000033,
                    "velocity": 0.2204724409448819,
                    "duration": 1.0922990000000254
                },
                {
                    "name": "G3",
                    "midi": 55,
                    "time": 262.1517600000034,
                    "velocity": 0.28346456692913385,
                    "duration": 0.27307474999997794
                },
                {
                    "name": "D4",
                    "midi": 62,
                    "time": 262.42483475000336,
                    "velocity": 0.1732283464566929,
                    "duration": 0.27307474999997794
                },
                {
                    "name": "B3",
                    "midi": 59,
                    "time": 262.69790950000333,
                    "velocity": 0.1968503937007874,
                    "duration": 0.27307474999997794
                },
                {
                    "name": "D4",
                    "midi": 62,
                    "time": 262.9709842500033,
                    "velocity": 0.1889763779527559,
                    "duration": 0.27307474999997794
                },
                {
                    "name": "G3",
                    "midi": 55,
                    "time": 263.2440590000033,
                    "velocity": 0.31496062992125984,
                    "duration": 0.27307474999997794
                },
                {
                    "name": "D4",
                    "midi": 62,
                    "time": 263.51713375000327,
                    "velocity": 0.2283464566929134,
                    "duration": 0.27307474999997794
                },
                {
                    "name": "B3",
                    "midi": 59,
                    "time": 263.79020850000325,
                    "velocity": 0.2755905511811024,
                    "duration": 0.27307474999997794
                },
                {
                    "name": "D4",
                    "midi": 62,
                    "time": 264.0632832500032,
                    "velocity": 0.23622047244094488,
                    "duration": 0.27307474999997794
                },
                {
                    "name": "A3",
                    "midi": 57,
                    "time": 264.3363580000032,
                    "velocity": 0.31496062992125984,
                    "duration": 0.27307474999997794
                },
                {
                    "name": "D4",
                    "midi": 62,
                    "time": 264.6094327500032,
                    "velocity": 0.25196850393700787,
                    "duration": 0.27307474999997794
                },
                {
                    "name": "C4",
                    "midi": 60,
                    "time": 264.88250750000316,
                    "velocity": 0.31496062992125984,
                    "duration": 0.27307474999997794
                },
                {
                    "name": "D4",
                    "midi": 62,
                    "time": 265.15558225000314,
                    "velocity": 0.2755905511811024,
                    "duration": 0.27307474999997794
                },
                {
                    "name": "G3",
                    "midi": 55,
                    "time": 265.4286570000031,
                    "velocity": 0.33858267716535434,
                    "duration": 0.27307474999997794
                },
                {
                    "name": "D4",
                    "midi": 62,
                    "time": 265.7017317500031,
                    "velocity": 0.2204724409448819,
                    "duration": 0.27307474999997794
                },
                {
                    "name": "B3",
                    "midi": 59,
                    "time": 265.97480650000307,
                    "velocity": 0.25196850393700787,
                    "duration": 0.27307474999997794
                },
                {
                    "name": "D4",
                    "midi": 62,
                    "time": 266.24788125000305,
                    "velocity": 0.2204724409448819,
                    "duration": 0.27307474999997794
                },
                {
                    "name": "G3",
                    "midi": 55,
                    "time": 266.520956000003,
                    "velocity": 0.31496062992125984,
                    "duration": 0.27307474999997794
                },
                {
                    "name": "D4",
                    "midi": 62,
                    "time": 266.794030750003,
                    "velocity": 0.2283464566929134,
                    "duration": 0.27307474999997794
                },
                {
                    "name": "B3",
                    "midi": 59,
                    "time": 267.067105500003,
                    "velocity": 0.30708661417322836,
                    "duration": 0.27307474999997794
                },
                {
                    "name": "D4",
                    "midi": 62,
                    "time": 267.34018025000296,
                    "velocity": 0.28346456692913385,
                    "duration": 0.27307474999997794
                },
                {
                    "name": "G3",
                    "midi": 55,
                    "time": 267.61325500000294,
                    "velocity": 0.3779527559055118,
                    "duration": 0.27307474999997794
                },
                {
                    "name": "D4",
                    "midi": 62,
                    "time": 267.8863297500029,
                    "velocity": 0.2992125984251969,
                    "duration": 0.27307474999997794
                },
                {
                    "name": "B3",
                    "midi": 59,
                    "time": 268.1594045000029,
                    "velocity": 0.3779527559055118,
                    "duration": 0.27307474999997794
                },
                {
                    "name": "D4",
                    "midi": 62,
                    "time": 268.43247925000287,
                    "velocity": 0.3543307086614173,
                    "duration": 0.27307474999997794
                },
                {
                    "name": "G3",
                    "midi": 55,
                    "time": 268.70555400000285,
                    "velocity": 0.41732283464566927,
                    "duration": 0.27307474999997794
                },
                {
                    "name": "E4",
                    "midi": 64,
                    "time": 268.9786287500028,
                    "velocity": 0.29133858267716534,
                    "duration": 0.27307474999997794
                },
                {
                    "name": "C4",
                    "midi": 60,
                    "time": 269.2517035000028,
                    "velocity": 0.3700787401574803,
                    "duration": 0.27307474999997794
                },
                {
                    "name": "E4",
                    "midi": 64,
                    "time": 269.5247782500028,
                    "velocity": 0.3228346456692913,
                    "duration": 0.27307474999997794
                },
                {
                    "name": "G3",
                    "midi": 55,
                    "time": 269.79785300000276,
                    "velocity": 0.3464566929133858,
                    "duration": 0.27307474999997794
                },
                {
                    "name": "E4",
                    "midi": 64,
                    "time": 270.07092775000274,
                    "velocity": 0.2677165354330709,
                    "duration": 0.27307474999997794
                },
                {
                    "name": "C4",
                    "midi": 60,
                    "time": 270.3440025000027,
                    "velocity": 0.30708661417322836,
                    "duration": 0.27307474999997794
                },
                {
                    "name": "E4",
                    "midi": 64,
                    "time": 270.6170772500027,
                    "velocity": 0.2677165354330709,
                    "duration": 0.27307474999997794
                },
                {
                    "name": "G3",
                    "midi": 55,
                    "time": 270.8901520000027,
                    "velocity": 0.31496062992125984,
                    "duration": 0.27307474999997794
                },
                {
                    "name": "C#4",
                    "midi": 61,
                    "time": 271.16322675000265,
                    "velocity": 0.2047244094488189,
                    "duration": 0.27307474999997794
                },
                {
                    "name": "A#3",
                    "midi": 58,
                    "time": 271.4363015000026,
                    "velocity": 0.2677165354330709,
                    "duration": 0.27307474999997794
                },
                {
                    "name": "C#4",
                    "midi": 61,
                    "time": 271.7093762500026,
                    "velocity": 0.2125984251968504,
                    "duration": 0.27307474999997794
                },
                {
                    "name": "G3",
                    "midi": 55,
                    "time": 271.9824510000026,
                    "velocity": 0.31496062992125984,
                    "duration": 0.27307474999997794
                },
                {
                    "name": "D4",
                    "midi": 62,
                    "time": 272.25552575000256,
                    "velocity": 0.2047244094488189,
                    "duration": 0.27307474999997794
                },
                {
                    "name": "B3",
                    "midi": 59,
                    "time": 272.52860050000254,
                    "velocity": 0.2440944881889764,
                    "duration": 0.27307474999997794
                },
                {
                    "name": "D4",
                    "midi": 62,
                    "time": 272.8016752500025,
                    "velocity": 0.2125984251968504,
                    "duration": 0.27307474999997794
                },
                {
                    "name": "G3",
                    "midi": 55,
                    "time": 273.0747500000025,
                    "velocity": 0.31496062992125984,
                    "duration": 0.27307474999997794
                },
                {
                    "name": "D4",
                    "midi": 62,
                    "time": 273.3478247500025,
                    "velocity": 0.2047244094488189,
                    "duration": 0.27307474999997794
                },
                {
                    "name": "B3",
                    "midi": 59,
                    "time": 273.62089950000245,
                    "velocity": 0.23622047244094488,
                    "duration": 0.27307474999997794
                },
                {
                    "name": "D4",
                    "midi": 62,
                    "time": 273.89397425000243,
                    "velocity": 0.2125984251968504,
                    "duration": 0.27307474999997794
                },
                {
                    "name": "G3",
                    "midi": 55,
                    "time": 274.1670490000024,
                    "velocity": 0.3228346456692913,
                    "duration": 0.27307474999997794
                },
                {
                    "name": "D4",
                    "midi": 62,
                    "time": 274.4401237500024,
                    "velocity": 0.1968503937007874,
                    "duration": 0.27307474999997794
                },
                {
                    "name": "B3",
                    "midi": 59,
                    "time": 274.71319850000236,
                    "velocity": 0.23622047244094488,
                    "duration": 0.27307474999997794
                },
                {
                    "name": "D4",
                    "midi": 62,
                    "time": 274.98627325000234,
                    "velocity": 0.1968503937007874,
                    "duration": 0.27307474999997794
                },
                {
                    "name": "A3",
                    "midi": 57,
                    "time": 275.2593480000023,
                    "velocity": 0.31496062992125984,
                    "duration": 0.27307474999997794
                },
                {
                    "name": "D4",
                    "midi": 62,
                    "time": 275.5324227500023,
                    "velocity": 0.2125984251968504,
                    "duration": 0.27307474999997794
                },
                {
                    "name": "C4",
                    "midi": 60,
                    "time": 275.8054975000023,
                    "velocity": 0.25196850393700787,
                    "duration": 0.27307474999997794
                },
                {
                    "name": "D4",
                    "midi": 62,
                    "time": 276.07857225000225,
                    "velocity": 0.2125984251968504,
                    "duration": 0.27307474999997794
                },
                {
                    "name": "A3",
                    "midi": 57,
                    "time": 276.35164700000223,
                    "velocity": 0.31496062992125984,
                    "duration": 0.27307474999997794
                },
                {
                    "name": "D4",
                    "midi": 62,
                    "time": 276.6247217500022,
                    "velocity": 0.23622047244094488,
                    "duration": 0.27307474999997794
                },
                {
                    "name": "C4",
                    "midi": 60,
                    "time": 276.8977965000022,
                    "velocity": 0.25984251968503935,
                    "duration": 0.27307474999997794
                },
                {
                    "name": "D4",
                    "midi": 62,
                    "time": 277.17087125000216,
                    "velocity": 0.2204724409448819,
                    "duration": 0.27307474999997794
                },
                {
                    "name": "A3",
                    "midi": 57,
                    "time": 277.44394600000214,
                    "velocity": 0.3464566929133858,
                    "duration": 0.27307474999997794
                },
                {
                    "name": "D4",
                    "midi": 62,
                    "time": 277.7170207500021,
                    "velocity": 0.25984251968503935,
                    "duration": 0.27307474999997794
                },
                {
                    "name": "C4",
                    "midi": 60,
                    "time": 277.9900955000021,
                    "velocity": 0.31496062992125984,
                    "duration": 0.27307474999997794
                },
                {
                    "name": "D4",
                    "midi": 62,
                    "time": 278.2631702500021,
                    "velocity": 0.25984251968503935,
                    "duration": 0.27307474999997794
                },
                {
                    "name": "G3",
                    "midi": 55,
                    "time": 278.53624500000205,
                    "velocity": 0.36220472440944884,
                    "duration": 0.27307474999997794
                },
                {
                    "name": "D4",
                    "midi": 62,
                    "time": 278.80931975000203,
                    "velocity": 0.25984251968503935,
                    "duration": 0.27307474999997794
                },
                {
                    "name": "B3",
                    "midi": 59,
                    "time": 279.082394500002,
                    "velocity": 0.31496062992125984,
                    "duration": 0.27307474999997794
                },
                {
                    "name": "D4",
                    "midi": 62,
                    "time": 279.355469250002,
                    "velocity": 0.29133858267716534,
                    "duration": 0.27307474999997794
                },
                {
                    "name": "E3",
                    "midi": 52,
                    "time": 279.62854400000197,
                    "velocity": 0.36220472440944884,
                    "duration": 0.27307474999997794
                },
                {
                    "name": "B3",
                    "midi": 59,
                    "time": 279.90161875000194,
                    "velocity": 0.2992125984251969,
                    "duration": 0.27307474999997794
                },
                {
                    "name": "G3",
                    "midi": 55,
                    "time": 280.1746935000019,
                    "velocity": 0.33070866141732286,
                    "duration": 0.27307474999997794
                },
                {
                    "name": "B3",
                    "midi": 59,
                    "time": 280.4477682500019,
                    "velocity": 0.2992125984251969,
                    "duration": 0.27307474999997794
                },
                {
                    "name": "B2",
                    "midi": 47,
                    "time": 280.7208430000019,
                    "velocity": 0.41732283464566927,
                    "duration": 0.27307474999997794
                },
                {
                    "name": "G3",
                    "midi": 55,
                    "time": 280.99391775000186,
                    "velocity": 0.3464566929133858,
                    "duration": 0.27307474999997794
                },
                {
                    "name": "D3",
                    "midi": 50,
                    "time": 281.26699250000183,
                    "velocity": 0.3779527559055118,
                    "duration": 0.27307474999997794
                },
                {
                    "name": "G3",
                    "midi": 55,
                    "time": 281.5400672500018,
                    "velocity": 0.30708661417322836,
                    "duration": 0.27307474999997794
                },
                {
                    "name": "C3",
                    "midi": 48,
                    "time": 281.8131420000018,
                    "velocity": 0.3858267716535433,
                    "duration": 2.184598000000051
                },
                {
                    "name": "E3",
                    "midi": 52,
                    "time": 281.8131420000018,
                    "velocity": 0.4566929133858268,
                    "duration": 1.0922990000000254
                },
                {
                    "name": "G3",
                    "midi": 55,
                    "time": 282.9054410000018,
                    "velocity": 0.2677165354330709,
                    "duration": 2.184598000000051
                },
                {
                    "name": "E3",
                    "midi": 52,
                    "time": 283.99774000000184,
                    "velocity": 0.2677165354330709,
                    "duration": 1.0922990000000254
                },
                {
                    "name": "D3",
                    "midi": 50,
                    "time": 285.09003900000187,
                    "velocity": 0.28346456692913385,
                    "duration": 2.184598000000051
                },
                {
                    "name": "G3",
                    "midi": 55,
                    "time": 285.09003900000187,
                    "velocity": 0.28346456692913385,
                    "duration": 1.0922990000000254
                },
                {
                    "name": "F#3",
                    "midi": 54,
                    "time": 286.1823380000019,
                    "velocity": 0.2204724409448819,
                    "duration": 1.0922990000000254
                },
                {
                    "name": "G3",
                    "midi": 55,
                    "time": 288.36693600000194,
                    "velocity": 0.31496062992125984,
                    "duration": 0.27307474999997794
                },
                {
                    "name": "D4",
                    "midi": 62,
                    "time": 288.6400107500019,
                    "velocity": 0.1968503937007874,
                    "duration": 0.27307474999997794
                },
                {
                    "name": "B3",
                    "midi": 59,
                    "time": 288.9130855000019,
                    "velocity": 0.2440944881889764,
                    "duration": 0.27307474999997794
                },
                {
                    "name": "D4",
                    "midi": 62,
                    "time": 289.1861602500019,
                    "velocity": 0.2047244094488189,
                    "duration": 0.27307474999997794
                },
                {
                    "name": "G3",
                    "midi": 55,
                    "time": 289.45923500000185,
                    "velocity": 0.31496062992125984,
                    "duration": 0.27307474999997794
                },
                {
                    "name": "D4",
                    "midi": 62,
                    "time": 289.73230975000183,
                    "velocity": 0.2125984251968504,
                    "duration": 0.27307474999997794
                },
                {
                    "name": "B3",
                    "midi": 59,
                    "time": 290.0053845000018,
                    "velocity": 0.2440944881889764,
                    "duration": 0.27307474999997794
                },
                {
                    "name": "D4",
                    "midi": 62,
                    "time": 290.2784592500018,
                    "velocity": 0.2047244094488189,
                    "duration": 0.27307474999997794
                },
                {
                    "name": "A3",
                    "midi": 57,
                    "time": 290.55153400000177,
                    "velocity": 0.31496062992125984,
                    "duration": 0.27307474999997794
                },
                {
                    "name": "D4",
                    "midi": 62,
                    "time": 290.82460875000174,
                    "velocity": 0.2440944881889764,
                    "duration": 0.27307474999997794
                },
                {
                    "name": "C4",
                    "midi": 60,
                    "time": 291.0976835000017,
                    "velocity": 0.28346456692913385,
                    "duration": 0.27307474999997794
                },
                {
                    "name": "D4",
                    "midi": 62,
                    "time": 291.3707582500017,
                    "velocity": 0.23622047244094488,
                    "duration": 0.27307474999997794
                },
                {
                    "name": "G3",
                    "midi": 55,
                    "time": 291.6438330000017,
                    "velocity": 0.31496062992125984,
                    "duration": 0.27307474999997794
                },
                {
                    "name": "D4",
                    "midi": 62,
                    "time": 291.91690775000166,
                    "velocity": 0.2204724409448819,
                    "duration": 0.27307474999997794
                },
                {
                    "name": "B3",
                    "midi": 59,
                    "time": 292.18998250000163,
                    "velocity": 0.25196850393700787,
                    "duration": 0.27307474999997794
                },
                {
                    "name": "D4",
                    "midi": 62,
                    "time": 292.4630572500016,
                    "velocity": 0.2204724409448819,
                    "duration": 0.27307474999997794
                },
                {
                    "name": "G3",
                    "midi": 55,
                    "time": 292.7361320000016,
                    "velocity": 0.31496062992125984,
                    "duration": 0.27307474999997794
                },
                {
                    "name": "D4",
                    "midi": 62,
                    "time": 293.00920675000157,
                    "velocity": 0.25984251968503935,
                    "duration": 0.27307474999997794
                },
                {
                    "name": "B3",
                    "midi": 59,
                    "time": 293.28228150000155,
                    "velocity": 0.29133858267716534,
                    "duration": 0.27307474999997794
                },
                {
                    "name": "D4",
                    "midi": 62,
                    "time": 293.5553562500015,
                    "velocity": 0.23622047244094488,
                    "duration": 0.27307474999997794
                },
                {
                    "name": "G3",
                    "midi": 55,
                    "time": 293.8284310000015,
                    "velocity": 0.3700787401574803,
                    "duration": 0.27307474999997794
                },
                {
                    "name": "D4",
                    "midi": 62,
                    "time": 294.1015057500015,
                    "velocity": 0.2992125984251969,
                    "duration": 0.27307474999997794
                },
                {
                    "name": "B3",
                    "midi": 59,
                    "time": 294.37458050000146,
                    "velocity": 0.3464566929133858,
                    "duration": 0.27307474999997794
                },
                {
                    "name": "D4",
                    "midi": 62,
                    "time": 294.64765525000143,
                    "velocity": 0.33070866141732286,
                    "duration": 0.27307474999997794
                },
                {
                    "name": "G3",
                    "midi": 55,
                    "time": 294.9207300000014,
                    "velocity": 0.33858267716535434,
                    "duration": 0.27307474999997794
                },
                {
                    "name": "E4",
                    "midi": 64,
                    "time": 295.1938047500014,
                    "velocity": 0.2677165354330709,
                    "duration": 0.27307474999997794
                },
                {
                    "name": "C4",
                    "midi": 60,
                    "time": 295.46687950000137,
                    "velocity": 0.2992125984251969,
                    "duration": 0.27307474999997794
                },
                {
                    "name": "E4",
                    "midi": 64,
                    "time": 295.73995425000135,
                    "velocity": 0.2677165354330709,
                    "duration": 0.27307474999997794
                },
                {
                    "name": "G3",
                    "midi": 55,
                    "time": 296.0130290000013,
                    "velocity": 0.3464566929133858,
                    "duration": 0.27307474999997794
                },
                {
                    "name": "E4",
                    "midi": 64,
                    "time": 296.2861037500013,
                    "velocity": 0.2677165354330709,
                    "duration": 0.27307474999997794
                },
                {
                    "name": "C4",
                    "midi": 60,
                    "time": 296.5591785000013,
                    "velocity": 0.30708661417322836,
                    "duration": 0.27307474999997794
                },
                {
                    "name": "E4",
                    "midi": 64,
                    "time": 296.83225325000126,
                    "velocity": 0.2677165354330709,
                    "duration": 0.27307474999997794
                },
                {
                    "name": "G3",
                    "midi": 55,
                    "time": 297.10532800000124,
                    "velocity": 0.31496062992125984,
                    "duration": 0.27307474999997794
                },
                {
                    "name": "C#4",
                    "midi": 61,
                    "time": 297.3784027500012,
                    "velocity": 0.2047244094488189,
                    "duration": 0.27307474999997794
                },
                {
                    "name": "A#3",
                    "midi": 58,
                    "time": 297.6514775000012,
                    "velocity": 0.2677165354330709,
                    "duration": 0.27307474999997794
                },
                {
                    "name": "C#4",
                    "midi": 61,
                    "time": 297.92455225000117,
                    "velocity": 0.2125984251968504,
                    "duration": 0.27307474999997794
                },
                {
                    "name": "G3",
                    "midi": 55,
                    "time": 298.19762700000115,
                    "velocity": 0.31496062992125984,
                    "duration": 0.27307474999997794
                },
                {
                    "name": "D4",
                    "midi": 62,
                    "time": 298.4707017500011,
                    "velocity": 0.1889763779527559,
                    "duration": 0.27307474999997794
                },
                {
                    "name": "B3",
                    "midi": 59,
                    "time": 298.7437765000011,
                    "velocity": 0.2440944881889764,
                    "duration": 0.27307474999997794
                },
                {
                    "name": "D4",
                    "midi": 62,
                    "time": 299.0168512500011,
                    "velocity": 0.2125984251968504,
                    "duration": 0.27307474999997794
                },
                {
                    "name": "G3",
                    "midi": 55,
                    "time": 299.28992600000106,
                    "velocity": 0.31496062992125984,
                    "duration": 0.27307474999997794
                },
                {
                    "name": "D4",
                    "midi": 62,
                    "time": 299.56300075000104,
                    "velocity": 0.2047244094488189,
                    "duration": 0.27307474999997794
                },
                {
                    "name": "B3",
                    "midi": 59,
                    "time": 299.836075500001,
                    "velocity": 0.25984251968503935,
                    "duration": 0.27307474999997794
                },
                {
                    "name": "D4",
                    "midi": 62,
                    "time": 300.109150250001,
                    "velocity": 0.2125984251968504,
                    "duration": 0.27307474999997794
                },
                {
                    "name": "G3",
                    "midi": 55,
                    "time": 300.382225000001,
                    "velocity": 0.3228346456692913,
                    "duration": 0.27307474999997794
                },
                {
                    "name": "D4",
                    "midi": 62,
                    "time": 300.65529975000095,
                    "velocity": 0.23622047244094488,
                    "duration": 0.27307474999997794
                },
                {
                    "name": "B3",
                    "midi": 59,
                    "time": 300.9283745000009,
                    "velocity": 0.25984251968503935,
                    "duration": 0.27307474999997794
                },
                {
                    "name": "D4",
                    "midi": 62,
                    "time": 301.2014492500009,
                    "velocity": 0.2283464566929134,
                    "duration": 0.27307474999997794
                },
                {
                    "name": "A3",
                    "midi": 57,
                    "time": 301.4745240000009,
                    "velocity": 0.31496062992125984,
                    "duration": 0.27307474999997794
                },
                {
                    "name": "D4",
                    "midi": 62,
                    "time": 301.74759875000086,
                    "velocity": 0.2125984251968504,
                    "duration": 0.27307474999997794
                },
                {
                    "name": "C4",
                    "midi": 60,
                    "time": 302.02067350000084,
                    "velocity": 0.25196850393700787,
                    "duration": 0.27307474999997794
                },
                {
                    "name": "D4",
                    "midi": 62,
                    "time": 302.2937482500008,
                    "velocity": 0.2125984251968504,
                    "duration": 0.27307474999997794
                },
                {
                    "name": "A3",
                    "midi": 57,
                    "time": 302.5668230000008,
                    "velocity": 0.31496062992125984,
                    "duration": 0.27307474999997794
                },
                {
                    "name": "D4",
                    "midi": 62,
                    "time": 302.8398977500008,
                    "velocity": 0.23622047244094488,
                    "duration": 0.27307474999997794
                },
                {
                    "name": "C4",
                    "midi": 60,
                    "time": 303.11297250000075,
                    "velocity": 0.25984251968503935,
                    "duration": 0.27307474999997794
                },
                {
                    "name": "D4",
                    "midi": 62,
                    "time": 303.38604725000073,
                    "velocity": 0.2204724409448819,
                    "duration": 0.27307474999997794
                },
                {
                    "name": "A3",
                    "midi": 57,
                    "time": 303.6591220000007,
                    "velocity": 0.31496062992125984,
                    "duration": 0.27307474999997794
                },
                {
                    "name": "D4",
                    "midi": 62,
                    "time": 303.9321967500007,
                    "velocity": 0.2440944881889764,
                    "duration": 0.27307474999997794
                },
                {
                    "name": "C4",
                    "midi": 60,
                    "time": 304.20527150000066,
                    "velocity": 0.2992125984251969,
                    "duration": 0.27307474999997794
                },
                {
                    "name": "D4",
                    "midi": 62,
                    "time": 304.47834625000064,
                    "velocity": 0.25984251968503935,
                    "duration": 0.27307474999997794
                },
                {
                    "name": "G3",
                    "midi": 55,
                    "time": 304.7514210000006,
                    "velocity": 0.31496062992125984,
                    "duration": 0.27307474999997794
                },
                {
                    "name": "D4",
                    "midi": 62,
                    "time": 305.0244957500006,
                    "velocity": 0.2992125984251969,
                    "duration": 0.27307474999997794
                },
                {
                    "name": "B3",
                    "midi": 59,
                    "time": 305.2975705000006,
                    "velocity": 0.33070866141732286,
                    "duration": 0.27307474999997794
                },
                {
                    "name": "D4",
                    "midi": 62,
                    "time": 305.57064525000055,
                    "velocity": 0.2755905511811024,
                    "duration": 0.27307474999997794
                },
                {
                    "name": "E3",
                    "midi": 52,
                    "time": 305.84372000000053,
                    "velocity": 0.4015748031496063,
                    "duration": 0.27307474999997794
                },
                {
                    "name": "B3",
                    "midi": 59,
                    "time": 306.1167947500005,
                    "velocity": 0.36220472440944884,
                    "duration": 0.27307474999997794
                },
                {
                    "name": "G3",
                    "midi": 55,
                    "time": 306.3898695000005,
                    "velocity": 0.3937007874015748,
                    "duration": 0.27307474999997794
                },
                {
                    "name": "B3",
                    "midi": 59,
                    "time": 306.66294425000046,
                    "velocity": 0.3700787401574803,
                    "duration": 0.27307474999997794
                },
                {
                    "name": "B2",
                    "midi": 47,
                    "time": 306.93601900000044,
                    "velocity": 0.4251968503937008,
                    "duration": 0.27307474999997794
                },
                {
                    "name": "G3",
                    "midi": 55,
                    "time": 307.2090937500004,
                    "velocity": 0.33070866141732286,
                    "duration": 0.27307474999997794
                },
                {
                    "name": "D3",
                    "midi": 50,
                    "time": 307.4821685000004,
                    "velocity": 0.3700787401574803,
                    "duration": 0.27307474999997794
                },
                {
                    "name": "G3",
                    "midi": 55,
                    "time": 307.7552432500004,
                    "velocity": 0.2677165354330709,
                    "duration": 0.27307474999997794
                },
                {
                    "name": "C3",
                    "midi": 48,
                    "time": 308.02831800000035,
                    "velocity": 0.31496062992125984,
                    "duration": 0.27307474999997794
                },
                {
                    "name": "A3",
                    "midi": 57,
                    "time": 308.30139275000033,
                    "velocity": 0.2047244094488189,
                    "duration": 0.27307474999997794
                },
                {
                    "name": "E3",
                    "midi": 52,
                    "time": 308.5744675000003,
                    "velocity": 0.25984251968503935,
                    "duration": 0.27307474999997794
                },
                {
                    "name": "A3",
                    "midi": 57,
                    "time": 308.8475422500003,
                    "velocity": 0.2283464566929134,
                    "duration": 0.27307474999997794
                },
                {
                    "name": "D3",
                    "midi": 50,
                    "time": 309.12061700000027,
                    "velocity": 0.30708661417322836,
                    "duration": 0.27307474999997794
                },
                {
                    "name": "B3",
                    "midi": 59,
                    "time": 309.39369175000024,
                    "velocity": 0.2125984251968504,
                    "duration": 0.27307474999997794
                },
                {
                    "name": "G3",
                    "midi": 55,
                    "time": 309.6667665000002,
                    "velocity": 0.25984251968503935,
                    "duration": 0.27307474999997794
                },
                {
                    "name": "B3",
                    "midi": 59,
                    "time": 309.9398412500002,
                    "velocity": 0.2204724409448819,
                    "duration": 0.27307474999997794
                },
                {
                    "name": "D3",
                    "midi": 50,
                    "time": 310.2129160000002,
                    "velocity": 0.30708661417322836,
                    "duration": 0.27307474999997794
                },
                {
                    "name": "C4",
                    "midi": 60,
                    "time": 310.48599075000016,
                    "velocity": 0.2125984251968504,
                    "duration": 0.27307474999997794
                },
                {
                    "name": "A3",
                    "midi": 57,
                    "time": 310.75906550000013,
                    "velocity": 0.25196850393700787,
                    "duration": 0.27307474999997794
                },
                {
                    "name": "C4",
                    "midi": 60,
                    "time": 311.0321402500001,
                    "velocity": 0.2125984251968504,
                    "duration": 0.27307474999997794
                },
                {
                    "name": "G3",
                    "midi": 55,
                    "time": 311.3052150000001,
                    "velocity": 0.2125984251968504,
                    "duration": 1.0922990000000254
                },
                {
                    "name": "B3",
                    "midi": 59,
                    "time": 311.3052150000001,
                    "velocity": 0.28346456692913385,
                    "duration": 1.0922990000000254
                },
                {
                    "name": "A3",
                    "midi": 57,
                    "time": 314.5821120000001,
                    "velocity": 0.31496062992125984,
                    "duration": 0.27307474999997794
                },
                {
                    "name": "F4",
                    "midi": 65,
                    "time": 314.8551867500001,
                    "velocity": 0.2283464566929134,
                    "duration": 0.27307474999997794
                },
                {
                    "name": "C4",
                    "midi": 60,
                    "time": 315.12826150000006,
                    "velocity": 0.2755905511811024,
                    "duration": 0.27307474999997794
                },
                {
                    "name": "F4",
                    "midi": 65,
                    "time": 315.40133625000004,
                    "velocity": 0.23622047244094488,
                    "duration": 0.27307474999997794
                },
                {
                    "name": "A3",
                    "midi": 57,
                    "time": 315.674411,
                    "velocity": 0.31496062992125984,
                    "duration": 0.27307474999997794
                },
                {
                    "name": "F4",
                    "midi": 65,
                    "time": 315.94748575,
                    "velocity": 0.2440944881889764,
                    "duration": 0.27307474999997794
                },
                {
                    "name": "C4",
                    "midi": 60,
                    "time": 316.2205605,
                    "velocity": 0.28346456692913385,
                    "duration": 0.27307474999997794
                },
                {
                    "name": "F4",
                    "midi": 65,
                    "time": 316.49363524999995,
                    "velocity": 0.23622047244094488,
                    "duration": 0.27307474999997794
                },
                {
                    "name": "B3",
                    "midi": 59,
                    "time": 316.76670999999993,
                    "velocity": 0.31496062992125984,
                    "duration": 0.27307474999997794
                },
                {
                    "name": "G4",
                    "midi": 67,
                    "time": 317.0397847499999,
                    "velocity": 0.2440944881889764,
                    "duration": 0.27307474999997794
                },
                {
                    "name": "D4",
                    "midi": 62,
                    "time": 317.3128594999999,
                    "velocity": 0.29133858267716534,
                    "duration": 0.27307474999997794
                },
                {
                    "name": "G4",
                    "midi": 67,
                    "time": 317.58593424999987,
                    "velocity": 0.2440944881889764,
                    "duration": 0.27307474999997794
                },
                {
                    "name": "C4",
                    "midi": 60,
                    "time": 317.85900899999984,
                    "velocity": 0.31496062992125984,
                    "duration": 0.27307474999997794
                },
                {
                    "name": "G4",
                    "midi": 67,
                    "time": 318.1320837499998,
                    "velocity": 0.2047244094488189,
                    "duration": 0.27307474999997794
                },
                {
                    "name": "E4",
                    "midi": 64,
                    "time": 318.4051584999998,
                    "velocity": 0.25196850393700787,
                    "duration": 0.27307474999997794
                },
                {
                    "name": "G4",
                    "midi": 67,
                    "time": 318.6782332499998,
                    "velocity": 0.2125984251968504,
                    "duration": 0.27307474999997794
                },
                {
                    "name": "C4",
                    "midi": 60,
                    "time": 318.95130799999976,
                    "velocity": 0.28346456692913385,
                    "duration": 0.27307474999997794
                },
                {
                    "name": "G4",
                    "midi": 67,
                    "time": 319.22438274999973,
                    "velocity": 0.2125984251968504,
                    "duration": 0.27307474999997794
                },
                {
                    "name": "E4",
                    "midi": 64,
                    "time": 319.4974574999997,
                    "velocity": 0.25196850393700787,
                    "duration": 0.27307474999997794
                },
                {
                    "name": "G4",
                    "midi": 67,
                    "time": 319.7705322499997,
                    "velocity": 0.2283464566929134,
                    "duration": 0.27307474999997794
                },
                {
                    "name": "C4",
                    "midi": 60,
                    "time": 320.04360699999967,
                    "velocity": 0.29133858267716534,
                    "duration": 0.27307474999997794
                },
                {
                    "name": "G4",
                    "midi": 67,
                    "time": 320.31668174999965,
                    "velocity": 0.2204724409448819,
                    "duration": 0.27307474999997794
                },
                {
                    "name": "E4",
                    "midi": 64,
                    "time": 320.5897564999996,
                    "velocity": 0.25196850393700787,
                    "duration": 0.27307474999997794
                },
                {
                    "name": "G4",
                    "midi": 67,
                    "time": 320.8628312499996,
                    "velocity": 0.2204724409448819,
                    "duration": 0.27307474999997794
                },
                {
                    "name": "B3",
                    "midi": 59,
                    "time": 321.1359059999996,
                    "velocity": 0.31496062992125984,
                    "duration": 0.27307474999997794
                },
                {
                    "name": "D4",
                    "midi": 62,
                    "time": 321.40898074999956,
                    "velocity": 0.2047244094488189,
                    "duration": 0.27307474999997794
                },
                {
                    "name": "C4",
                    "midi": 60,
                    "time": 321.68205549999954,
                    "velocity": 0.25984251968503935,
                    "duration": 0.27307474999997794
                },
                {
                    "name": "E4",
                    "midi": 64,
                    "time": 321.9551302499995,
                    "velocity": 0.2283464566929134,
                    "duration": 0.27307474999997794
                },
                {
                    "name": "D3",
                    "midi": 50,
                    "time": 322.2282049999995,
                    "velocity": 0.30708661417322836,
                    "duration": 0.27307474999997794
                },
                {
                    "name": "B3",
                    "midi": 59,
                    "time": 322.50127974999947,
                    "velocity": 0.2283464566929134,
                    "duration": 0.27307474999997794
                },
                {
                    "name": "G3",
                    "midi": 55,
                    "time": 322.77435449999945,
                    "velocity": 0.29133858267716534,
                    "duration": 0.27307474999997794
                },
                {
                    "name": "B3",
                    "midi": 59,
                    "time": 323.0474292499994,
                    "velocity": 0.2283464566929134,
                    "duration": 0.27307474999997794
                },
                {
                    "name": "D3",
                    "midi": 50,
                    "time": 323.3205039999994,
                    "velocity": 0.30708661417322836,
                    "duration": 0.27307474999997794
                },
                {
                    "name": "C4",
                    "midi": 60,
                    "time": 323.5935787499994,
                    "velocity": 0.23622047244094488,
                    "duration": 0.27307474999997794
                },
                {
                    "name": "A3",
                    "midi": 57,
                    "time": 323.86665349999936,
                    "velocity": 0.28346456692913385,
                    "duration": 0.27307474999997794
                },
                {
                    "name": "C4",
                    "midi": 60,
                    "time": 324.13972824999934,
                    "velocity": 0.2283464566929134,
                    "duration": 0.27307474999997794
                },
                {
                    "name": "G3",
                    "midi": 55,
                    "time": 324.4128029999993,
                    "velocity": 0.2125984251968504,
                    "duration": 1.0922990000000254
                },
                {
                    "name": "B3",
                    "midi": 59,
                    "time": 324.4128029999993,
                    "velocity": 0.28346456692913385,
                    "duration": 1.0922990000000254
                },
                {
                    "name": "A2",
                    "midi": 45,
                    "time": 327.68969999999933,
                    "velocity": 0.4409448818897638,
                    "duration": 0.27307474999997794
                },
                {
                    "name": "F3",
                    "midi": 53,
                    "time": 327.9627747499993,
                    "velocity": 0.3543307086614173,
                    "duration": 0.27307474999997794
                },
                {
                    "name": "C3",
                    "midi": 48,
                    "time": 328.2358494999993,
                    "velocity": 0.3858267716535433,
                    "duration": 0.27307474999997794
                },
                {
                    "name": "F3",
                    "midi": 53,
                    "time": 328.50892424999927,
                    "velocity": 0.3464566929133858,
                    "duration": 0.27307474999997794
                },
                {
                    "name": "B2",
                    "midi": 47,
                    "time": 328.78199899999925,
                    "velocity": 0.4330708661417323,
                    "duration": 0.27307474999997794
                },
                {
                    "name": "G3",
                    "midi": 55,
                    "time": 329.0550737499992,
                    "velocity": 0.3228346456692913,
                    "duration": 0.27307474999997794
                },
                {
                    "name": "D3",
                    "midi": 50,
                    "time": 329.3281484999992,
                    "velocity": 0.3937007874015748,
                    "duration": 0.27307474999997794
                },
                {
                    "name": "G3",
                    "midi": 55,
                    "time": 329.6012232499992,
                    "velocity": 0.33858267716535434,
                    "duration": 0.27307474999997794
                },
                {
                    "name": "G2",
                    "midi": 43,
                    "time": 329.87429799999916,
                    "velocity": 0.4330708661417323,
                    "duration": 0.27307474999997794
                },
                {
                    "name": "G3",
                    "midi": 55,
                    "time": 330.14737274999914,
                    "velocity": 0.3228346456692913,
                    "duration": 0.27307474999997794
                },
                {
                    "name": "B2",
                    "midi": 47,
                    "time": 330.4204474999991,
                    "velocity": 0.4094488188976378,
                    "duration": 0.27307474999997794
                },
                {
                    "name": "G3",
                    "midi": 55,
                    "time": 330.6935222499991,
                    "velocity": 0.3464566929133858,
                    "duration": 0.27307474999997794
                },
                {
                    "name": "C3",
                    "midi": 48,
                    "time": 330.96659699999907,
                    "velocity": 0.4409448818897638,
                    "duration": 0.27307474999997794
                },
                {
                    "name": "G3",
                    "midi": 55,
                    "time": 331.23967174999905,
                    "velocity": 0.3700787401574803,
                    "duration": 0.27307474999997794
                },
                {
                    "name": "E3",
                    "midi": 52,
                    "time": 331.512746499999,
                    "velocity": 0.3858267716535433,
                    "duration": 0.27307474999997794
                },
                {
                    "name": "G3",
                    "midi": 55,
                    "time": 331.785821249999,
                    "velocity": 0.36220472440944884,
                    "duration": 0.27307474999997794
                },
                {
                    "name": "C3",
                    "midi": 48,
                    "time": 332.058895999999,
                    "velocity": 0.47244094488188976,
                    "duration": 0.27307474999997794
                },
                {
                    "name": "A3",
                    "midi": 57,
                    "time": 332.33197074999896,
                    "velocity": 0.3779527559055118,
                    "duration": 0.27307474999997794
                },
                {
                    "name": "D#3",
                    "midi": 51,
                    "time": 332.60504549999894,
                    "velocity": 0.4409448818897638,
                    "duration": 0.27307474999997794
                },
                {
                    "name": "A3",
                    "midi": 57,
                    "time": 332.8781202499989,
                    "velocity": 0.3700787401574803,
                    "duration": 0.27307474999997794
                },
                {
                    "name": "C#3",
                    "midi": 49,
                    "time": 333.1511949999989,
                    "velocity": 0.48031496062992124,
                    "duration": 0.27307474999997794
                },
                {
                    "name": "A#3",
                    "midi": 58,
                    "time": 333.42426974999887,
                    "velocity": 0.3779527559055118,
                    "duration": 0.27307474999997794
                },
                {
                    "name": "E3",
                    "midi": 52,
                    "time": 333.69734449999885,
                    "velocity": 0.4409448818897638,
                    "duration": 0.27307474999997794
                },
                {
                    "name": "A#3",
                    "midi": 58,
                    "time": 333.9704192499988,
                    "velocity": 0.3700787401574803,
                    "duration": 0.27307474999997794
                },
                {
                    "name": "D3",
                    "midi": 50,
                    "time": 334.2434939999988,
                    "velocity": 0.31496062992125984,
                    "duration": 0.27307474999997794
                },
                {
                    "name": "B3",
                    "midi": 59,
                    "time": 334.5165687499988,
                    "velocity": 0.2047244094488189,
                    "duration": 0.27307474999997794
                },
                {
                    "name": "G3",
                    "midi": 55,
                    "time": 334.78964349999876,
                    "velocity": 0.25984251968503935,
                    "duration": 0.27307474999997794
                },
                {
                    "name": "B3",
                    "midi": 59,
                    "time": 335.06271824999874,
                    "velocity": 0.2283464566929134,
                    "duration": 0.27307474999997794
                },
                {
                    "name": "D3",
                    "midi": 50,
                    "time": 335.3357929999987,
                    "velocity": 0.30708661417322836,
                    "duration": 0.27307474999997794
                },
                {
                    "name": "B3",
                    "midi": 59,
                    "time": 335.6088677499987,
                    "velocity": 0.2283464566929134,
                    "duration": 0.27307474999997794
                },
                {
                    "name": "G3",
                    "midi": 55,
                    "time": 335.8819424999987,
                    "velocity": 0.29133858267716534,
                    "duration": 0.27307474999997794
                },
                {
                    "name": "B3",
                    "midi": 59,
                    "time": 336.15501724999865,
                    "velocity": 0.2283464566929134,
                    "duration": 0.27307474999997794
                },
                {
                    "name": "D3",
                    "midi": 50,
                    "time": 336.4280919999986,
                    "velocity": 0.30708661417322836,
                    "duration": 0.27307474999997794
                },
                {
                    "name": "C4",
                    "midi": 60,
                    "time": 336.7011667499986,
                    "velocity": 0.23622047244094488,
                    "duration": 0.27307474999997794
                },
                {
                    "name": "A3",
                    "midi": 57,
                    "time": 336.9742414999986,
                    "velocity": 0.28346456692913385,
                    "duration": 0.27307474999997794
                },
                {
                    "name": "C4",
                    "midi": 60,
                    "time": 337.24731624999856,
                    "velocity": 0.2283464566929134,
                    "duration": 0.27307474999997794
                },
                {
                    "name": "G3",
                    "midi": 55,
                    "time": 337.52039099999854,
                    "velocity": 0.23622047244094488,
                    "duration": 1.0922990000000254
                },
                {
                    "name": "B3",
                    "midi": 59,
                    "time": 337.52039099999854,
                    "velocity": 0.28346456692913385,
                    "duration": 1.0922990000000254
                },
                {
                    "name": "D3",
                    "midi": 50,
                    "time": 340.25113849999855,
                    "velocity": 0.23622047244094488,
                    "duration": 0.5461495000000127
                },
                {
                    "name": "C4",
                    "midi": 60,
                    "time": 340.25113849999855,
                    "velocity": 0.28346456692913385,
                    "duration": 0.5461495000000127
                },
                {
                    "name": "G3",
                    "midi": 55,
                    "time": 340.79728799999856,
                    "velocity": 0.23622047244094488,
                    "duration": 1.0922990000000254
                },
                {
                    "name": "B3",
                    "midi": 59,
                    "time": 340.79728799999856,
                    "velocity": 0.28346456692913385,
                    "duration": 1.0922990000000254
                },
                {
                    "name": "D3",
                    "midi": 50,
                    "time": 343.52803549999857,
                    "velocity": 0.23622047244094488,
                    "duration": 0.5461495000000127
                },
                {
                    "name": "C4",
                    "midi": 60,
                    "time": 343.52803549999857,
                    "velocity": 0.28346456692913385,
                    "duration": 0.5461495000000127
                },
                {
                    "name": "G3",
                    "midi": 55,
                    "time": 344.0741849999986,
                    "velocity": 0.23622047244094488,
                    "duration": 0.5461495000000127
                },
                {
                    "name": "B3",
                    "midi": 59,
                    "time": 344.0741849999986,
                    "velocity": 0.28346456692913385,
                    "duration": 0.5461495000000127
                },
                {
                    "name": "G2",
                    "midi": 43,
                    "time": 345.1664839999986,
                    "velocity": 0.23622047244094488,
                    "duration": 0.5461495000000127
                }
            ],
            "controlChanges": {},
            "id": 2,
            "name": "Piano left",
            "instrumentNumber": 0,
            "instrument": "acoustic grand piano",
            "instrumentFamily": "piano",
            "channelNumber": 0,
            "isPercussion": false
        },
        {
            "startTime": 0,
            "duration": 0,
            "length": 0,
            "notes": [],
            "controlChanges": {
                "64": [
                    {
                        "number": 64,
                        "time": 0.14108862083333337,
                        "value": 1
                    },
                    {
                        "number": 64,
                        "time": 2.1914248687500004,
                        "value": 0
                    },
                    {
                        "number": 64,
                        "time": 3.4225368666666673,
                        "value": 1
                    },
                    {
                        "number": 64,
                        "time": 5.481975606250002,
                        "value": 0
                    },
                    {
                        "number": 64,
                        "time": 5.623064227083335,
                        "value": 1
                    },
                    {
                        "number": 64,
                        "time": 6.553794000000002,
                        "value": 0
                    },
                    {
                        "number": 64,
                        "time": 6.694882620833335,
                        "value": 1
                    },
                    {
                        "number": 64,
                        "time": 8.745218868750001,
                        "value": 0
                    },
                    {
                        "number": 64,
                        "time": 9.830691000000002,
                        "value": 0
                    },
                    {
                        "number": 64,
                        "time": 9.976330866666668,
                        "value": 1
                    },
                    {
                        "number": 64,
                        "time": 12.035769606250001,
                        "value": 0
                    },
                    {
                        "number": 64,
                        "time": 12.176858227083335,
                        "value": 1
                    },
                    {
                        "number": 64,
                        "time": 13.2168179,
                        "value": 0
                    },
                    {
                        "number": 64,
                        "time": 13.38066275,
                        "value": 1
                    },
                    {
                        "number": 64,
                        "time": 14.249950704166668,
                        "value": 0
                    },
                    {
                        "number": 64,
                        "time": 16.384485,
                        "value": 0
                    },
                    {
                        "number": 64,
                        "time": 16.530124866666668,
                        "value": 1
                    },
                    {
                        "number": 64,
                        "time": 17.508642720833336,
                        "value": 0
                    },
                    {
                        "number": 64,
                        "time": 17.71800002916667,
                        "value": 1
                    },
                    {
                        "number": 64,
                        "time": 18.589563606250003,
                        "value": 0
                    },
                    {
                        "number": 64,
                        "time": 18.730652227083336,
                        "value": 1
                    },
                    {
                        "number": 64,
                        "time": 19.661382000000003,
                        "value": 0
                    },
                    {
                        "number": 64,
                        "time": 23.061162637500004,
                        "value": 1
                    },
                    {
                        "number": 64,
                        "time": 24.037404868750006,
                        "value": 0
                    },
                    {
                        "number": 64,
                        "time": 26.35626462083334,
                        "value": 1
                    },
                    {
                        "number": 64,
                        "time": 28.406600868750008,
                        "value": 0
                    },
                    {
                        "number": 64,
                        "time": 28.545413866666674,
                        "value": 1
                    },
                    {
                        "number": 64,
                        "time": 29.49207300000001,
                        "value": 0
                    },
                    {
                        "number": 64,
                        "time": 29.637712866666675,
                        "value": 1
                    },
                    {
                        "number": 64,
                        "time": 30.666294425000007,
                        "value": 0
                    },
                    {
                        "number": 64,
                        "time": 32.76897000000001,
                        "value": 0
                    },
                    {
                        "number": 64,
                        "time": 36.04586700000001,
                        "value": 0
                    },
                    {
                        "number": 64,
                        "time": 36.19150686666668,
                        "value": 1
                    },
                    {
                        "number": 64,
                        "time": 38.25094560625001,
                        "value": 0
                    },
                    {
                        "number": 64,
                        "time": 38.39203422708335,
                        "value": 1
                    },
                    {
                        "number": 64,
                        "time": 39.431993900000016,
                        "value": 0
                    },
                    {
                        "number": 64,
                        "time": 39.59583875000001,
                        "value": 1
                    },
                    {
                        "number": 64,
                        "time": 40.46512670416668,
                        "value": 0
                    },
                    {
                        "number": 64,
                        "time": 42.59966100000001,
                        "value": 0
                    },
                    {
                        "number": 64,
                        "time": 42.74530086666668,
                        "value": 1
                    },
                    {
                        "number": 64,
                        "time": 43.73292121250002,
                        "value": 0
                    },
                    {
                        "number": 64,
                        "time": 43.88538794791668,
                        "value": 1
                    },
                    {
                        "number": 64,
                        "time": 44.80473960625002,
                        "value": 0
                    },
                    {
                        "number": 64,
                        "time": 47.112221243750014,
                        "value": 1
                    },
                    {
                        "number": 64,
                        "time": 48.08618785208335,
                        "value": 0
                    },
                    {
                        "number": 64,
                        "time": 49.57899648541668,
                        "value": 1
                    },
                    {
                        "number": 64,
                        "time": 50.28899083541668,
                        "value": 0
                    },
                    {
                        "number": 64,
                        "time": 52.57144062083335,
                        "value": 1
                    },
                    {
                        "number": 64,
                        "time": 54.62177686875002,
                        "value": 0
                    },
                    {
                        "number": 64,
                        "time": 55.85288886666669,
                        "value": 1
                    },
                    {
                        "number": 64,
                        "time": 57.912327606250024,
                        "value": 0
                    },
                    {
                        "number": 64,
                        "time": 58.05341622708336,
                        "value": 1
                    },
                    {
                        "number": 64,
                        "time": 58.984146000000024,
                        "value": 0
                    },
                    {
                        "number": 64,
                        "time": 59.12523462083336,
                        "value": 1
                    },
                    {
                        "number": 64,
                        "time": 61.17557086875003,
                        "value": 0
                    },
                    {
                        "number": 64,
                        "time": 62.26104300000003,
                        "value": 0
                    },
                    {
                        "number": 64,
                        "time": 62.4066828666667,
                        "value": 1
                    },
                    {
                        "number": 64,
                        "time": 64.46612160625003,
                        "value": 0
                    },
                    {
                        "number": 64,
                        "time": 64.60721022708336,
                        "value": 1
                    },
                    {
                        "number": 64,
                        "time": 65.64716990000002,
                        "value": 0
                    },
                    {
                        "number": 64,
                        "time": 65.81101475000003,
                        "value": 1
                    },
                    {
                        "number": 64,
                        "time": 66.68030270416669,
                        "value": 0
                    },
                    {
                        "number": 64,
                        "time": 68.81483700000003,
                        "value": 0
                    },
                    {
                        "number": 64,
                        "time": 68.9604768666667,
                        "value": 1
                    },
                    {
                        "number": 64,
                        "time": 69.93899472083336,
                        "value": 0
                    },
                    {
                        "number": 64,
                        "time": 70.1483520291667,
                        "value": 1
                    },
                    {
                        "number": 64,
                        "time": 71.01991560625004,
                        "value": 0
                    },
                    {
                        "number": 64,
                        "time": 71.16100422708337,
                        "value": 1
                    },
                    {
                        "number": 64,
                        "time": 72.09173400000003,
                        "value": 0
                    },
                    {
                        "number": 64,
                        "time": 75.49151463750003,
                        "value": 1
                    },
                    {
                        "number": 64,
                        "time": 76.46775686875003,
                        "value": 0
                    },
                    {
                        "number": 64,
                        "time": 78.78661662083336,
                        "value": 1
                    },
                    {
                        "number": 64,
                        "time": 80.83695286875002,
                        "value": 0
                    },
                    {
                        "number": 64,
                        "time": 80.97576586666669,
                        "value": 1
                    },
                    {
                        "number": 64,
                        "time": 81.92242500000002,
                        "value": 0
                    },
                    {
                        "number": 64,
                        "time": 82.06806486666669,
                        "value": 1
                    },
                    {
                        "number": 64,
                        "time": 83.09664642500002,
                        "value": 0
                    },
                    {
                        "number": 64,
                        "time": 85.19932200000002,
                        "value": 0
                    },
                    {
                        "number": 64,
                        "time": 88.47621900000003,
                        "value": 0
                    },
                    {
                        "number": 64,
                        "time": 88.6218588666667,
                        "value": 1
                    },
                    {
                        "number": 64,
                        "time": 90.68129760625003,
                        "value": 0
                    },
                    {
                        "number": 64,
                        "time": 90.82238622708336,
                        "value": 1
                    },
                    {
                        "number": 64,
                        "time": 91.86234590000002,
                        "value": 0
                    },
                    {
                        "number": 64,
                        "time": 92.02619075000003,
                        "value": 1
                    },
                    {
                        "number": 64,
                        "time": 92.89547870416669,
                        "value": 0
                    },
                    {
                        "number": 64,
                        "time": 95.03001300000003,
                        "value": 0
                    },
                    {
                        "number": 64,
                        "time": 95.1756528666667,
                        "value": 1
                    },
                    {
                        "number": 64,
                        "time": 96.16327321250003,
                        "value": 0
                    },
                    {
                        "number": 64,
                        "time": 96.3157399479167,
                        "value": 1
                    },
                    {
                        "number": 64,
                        "time": 97.23509160625002,
                        "value": 0
                    },
                    {
                        "number": 64,
                        "time": 99.54257324375003,
                        "value": 1
                    },
                    {
                        "number": 64,
                        "time": 100.51653985208335,
                        "value": 0
                    },
                    {
                        "number": 64,
                        "time": 102.0093484854167,
                        "value": 1
                    },
                    {
                        "number": 64,
                        "time": 102.7193428354167,
                        "value": 0
                    },
                    {
                        "number": 64,
                        "time": 105.00179262083336,
                        "value": 1
                    },
                    {
                        "number": 64,
                        "time": 106.23973148750002,
                        "value": 0
                    },
                    {
                        "number": 64,
                        "time": 108.28324086666669,
                        "value": 1
                    },
                    {
                        "number": 64,
                        "time": 109.26175872083336,
                        "value": 0
                    },
                    {
                        "number": 64,
                        "time": 109.45518666875002,
                        "value": 1
                    },
                    {
                        "number": 64,
                        "time": 110.35405772083335,
                        "value": 0
                    },
                    {
                        "number": 64,
                        "time": 110.57934438958335,
                        "value": 1
                    },
                    {
                        "number": 64,
                        "time": 111.41449800000002,
                        "value": 0
                    },
                    {
                        "number": 64,
                        "time": 111.55558662083335,
                        "value": 1
                    },
                    {
                        "number": 64,
                        "time": 112.81400609375002,
                        "value": 0
                    },
                    {
                        "number": 64,
                        "time": 114.83703486666668,
                        "value": 1
                    },
                    {
                        "number": 64,
                        "time": 115.81555272083335,
                        "value": 0
                    },
                    {
                        "number": 64,
                        "time": 116.00898066875001,
                        "value": 1
                    },
                    {
                        "number": 64,
                        "time": 116.34349723750002,
                        "value": 0
                    },
                    {
                        "number": 64,
                        "time": 116.50051521875001,
                        "value": 1
                    },
                    {
                        "number": 64,
                        "time": 116.89647360625001,
                        "value": 0
                    },
                    {
                        "number": 64,
                        "time": 117.13313838958335,
                        "value": 1
                    },
                    {
                        "number": 64,
                        "time": 117.97511886875002,
                        "value": 0
                    },
                    {
                        "number": 64,
                        "time": 118.10938062083335,
                        "value": 1
                    },
                    {
                        "number": 64,
                        "time": 119.10382783541668,
                        "value": 0
                    },
                    {
                        "number": 64,
                        "time": 121.49323189791669,
                        "value": 1
                    },
                    {
                        "number": 64,
                        "time": 122.38072483541669,
                        "value": 0
                    },
                    {
                        "number": 64,
                        "time": 124.89301253541669,
                        "value": 1
                    },
                    {
                        "number": 64,
                        "time": 125.63714122916669,
                        "value": 0
                    },
                    {
                        "number": 64,
                        "time": 125.75774924375003,
                        "value": 1
                    },
                    {
                        "number": 64,
                        "time": 126.73171585208335,
                        "value": 0
                    },
                    {
                        "number": 64,
                        "time": 128.22452448541668,
                        "value": 1
                    },
                    {
                        "number": 64,
                        "time": 128.93451883541667,
                        "value": 0
                    },
                    {
                        "number": 64,
                        "time": 131.21696862083334,
                        "value": 1
                    },
                    {
                        "number": 64,
                        "time": 133.26730486875002,
                        "value": 0
                    },
                    {
                        "number": 64,
                        "time": 133.40611786666668,
                        "value": 1
                    },
                    {
                        "number": 64,
                        "time": 134.352777,
                        "value": 0
                    },
                    {
                        "number": 64,
                        "time": 134.49841686666667,
                        "value": 1
                    },
                    {
                        "number": 64,
                        "time": 135.52699842500002,
                        "value": 0
                    },
                    {
                        "number": 64,
                        "time": 137.62967400000002,
                        "value": 0
                    },
                    {
                        "number": 64,
                        "time": 141.05221086666668,
                        "value": 1
                    },
                    {
                        "number": 64,
                        "time": 143.11164960625,
                        "value": 0
                    },
                    {
                        "number": 64,
                        "time": 143.25273822708334,
                        "value": 1
                    },
                    {
                        "number": 64,
                        "time": 144.2926979,
                        "value": 0
                    },
                    {
                        "number": 64,
                        "time": 144.45654275,
                        "value": 1
                    },
                    {
                        "number": 64,
                        "time": 145.3258307041667,
                        "value": 0
                    },
                    {
                        "number": 64,
                        "time": 147.46036500000002,
                        "value": 0
                    },
                    {
                        "number": 64,
                        "time": 147.6060048666667,
                        "value": 1
                    },
                    {
                        "number": 64,
                        "time": 148.5959008354167,
                        "value": 0
                    },
                    {
                        "number": 64,
                        "time": 148.7938800291667,
                        "value": 1
                    },
                    {
                        "number": 64,
                        "time": 149.66544360625002,
                        "value": 0
                    },
                    {
                        "number": 64,
                        "time": 151.8523172291667,
                        "value": 0
                    },
                    {
                        "number": 64,
                        "time": 151.97292524375,
                        "value": 1
                    },
                    {
                        "number": 64,
                        "time": 152.94689185208335,
                        "value": 0
                    },
                    {
                        "number": 64,
                        "time": 154.4397004854167,
                        "value": 1
                    },
                    {
                        "number": 64,
                        "time": 155.15197045833335,
                        "value": 0
                    },
                    {
                        "number": 64,
                        "time": 157.43214462083336,
                        "value": 1
                    },
                    {
                        "number": 64,
                        "time": 158.67008348750002,
                        "value": 0
                    },
                    {
                        "number": 64,
                        "time": 160.7135928666667,
                        "value": 1
                    },
                    {
                        "number": 64,
                        "time": 161.69211072083334,
                        "value": 0
                    },
                    {
                        "number": 64,
                        "time": 161.88553866875,
                        "value": 1
                    },
                    {
                        "number": 64,
                        "time": 162.78440972083334,
                        "value": 0
                    },
                    {
                        "number": 64,
                        "time": 163.00969638958333,
                        "value": 1
                    },
                    {
                        "number": 64,
                        "time": 163.84484999999998,
                        "value": 0
                    },
                    {
                        "number": 64,
                        "time": 163.9859386208333,
                        "value": 1
                    },
                    {
                        "number": 64,
                        "time": 165.24435809374998,
                        "value": 0
                    },
                    {
                        "number": 64,
                        "time": 167.26738686666664,
                        "value": 1
                    },
                    {
                        "number": 64,
                        "time": 168.2459047208333,
                        "value": 0
                    },
                    {
                        "number": 64,
                        "time": 168.43933266874996,
                        "value": 1
                    },
                    {
                        "number": 64,
                        "time": 168.77384923749995,
                        "value": 0
                    },
                    {
                        "number": 64,
                        "time": 168.93086721874994,
                        "value": 1
                    },
                    {
                        "number": 64,
                        "time": 169.32682560624994,
                        "value": 0
                    },
                    {
                        "number": 64,
                        "time": 169.56349038958328,
                        "value": 1
                    },
                    {
                        "number": 64,
                        "time": 170.40547086874994,
                        "value": 0
                    },
                    {
                        "number": 64,
                        "time": 170.5397326208333,
                        "value": 1
                    },
                    {
                        "number": 64,
                        "time": 171.53417983541664,
                        "value": 0
                    },
                    {
                        "number": 64,
                        "time": 173.92358389791664,
                        "value": 1
                    },
                    {
                        "number": 64,
                        "time": 174.81107683541666,
                        "value": 0
                    },
                    {
                        "number": 64,
                        "time": 177.32336453541666,
                        "value": 1
                    },
                    {
                        "number": 64,
                        "time": 178.06749322916667,
                        "value": 0
                    },
                    {
                        "number": 64,
                        "time": 178.18810124375,
                        "value": 1
                    },
                    {
                        "number": 64,
                        "time": 179.16206785208334,
                        "value": 0
                    },
                    {
                        "number": 64,
                        "time": 180.65487648541668,
                        "value": 1
                    },
                    {
                        "number": 64,
                        "time": 181.36487083541667,
                        "value": 0
                    },
                    {
                        "number": 64,
                        "time": 183.64732062083334,
                        "value": 1
                    },
                    {
                        "number": 64,
                        "time": 185.69765686875002,
                        "value": 0
                    },
                    {
                        "number": 64,
                        "time": 185.83646986666668,
                        "value": 1
                    },
                    {
                        "number": 64,
                        "time": 186.783129,
                        "value": 0
                    },
                    {
                        "number": 64,
                        "time": 186.92876886666667,
                        "value": 1
                    },
                    {
                        "number": 64,
                        "time": 187.95735042500002,
                        "value": 0
                    },
                    {
                        "number": 64,
                        "time": 190.06002600000002,
                        "value": 0
                    },
                    {
                        "number": 64,
                        "time": 193.48256286666668,
                        "value": 1
                    },
                    {
                        "number": 64,
                        "time": 195.54200160625,
                        "value": 0
                    },
                    {
                        "number": 64,
                        "time": 195.68309022708334,
                        "value": 1
                    },
                    {
                        "number": 64,
                        "time": 196.7230499,
                        "value": 0
                    },
                    {
                        "number": 64,
                        "time": 196.88689475,
                        "value": 1
                    },
                    {
                        "number": 64,
                        "time": 197.7561827041667,
                        "value": 0
                    },
                    {
                        "number": 64,
                        "time": 199.89071700000002,
                        "value": 0
                    },
                    {
                        "number": 64,
                        "time": 200.0363568666667,
                        "value": 1
                    },
                    {
                        "number": 64,
                        "time": 201.0262528354167,
                        "value": 0
                    },
                    {
                        "number": 64,
                        "time": 201.2242320291667,
                        "value": 1
                    },
                    {
                        "number": 64,
                        "time": 202.09579560625002,
                        "value": 0
                    },
                    {
                        "number": 64,
                        "time": 204.2826692291667,
                        "value": 0
                    },
                    {
                        "number": 64,
                        "time": 204.40327724375,
                        "value": 1
                    },
                    {
                        "number": 64,
                        "time": 205.37724385208335,
                        "value": 0
                    },
                    {
                        "number": 64,
                        "time": 206.8700524854167,
                        "value": 1
                    },
                    {
                        "number": 64,
                        "time": 207.58232245833335,
                        "value": 0
                    },
                    {
                        "number": 64,
                        "time": 209.86249662083335,
                        "value": 1
                    },
                    {
                        "number": 64,
                        "time": 209.86249662083335,
                        "value": 1
                    },
                    {
                        "number": 64,
                        "time": 211.10043548750002,
                        "value": 0
                    },
                    {
                        "number": 64,
                        "time": 212.99830500000002,
                        "value": 0
                    },
                    {
                        "number": 64,
                        "time": 213.1439448666667,
                        "value": 1
                    },
                    {
                        "number": 64,
                        "time": 215.20338360625001,
                        "value": 0
                    },
                    {
                        "number": 64,
                        "time": 215.34447222708334,
                        "value": 1
                    },
                    {
                        "number": 64,
                        "time": 216.275202,
                        "value": 0
                    },
                    {
                        "number": 64,
                        "time": 216.41629062083334,
                        "value": 1
                    },
                    {
                        "number": 64,
                        "time": 216.41629062083334,
                        "value": 1
                    },
                    {
                        "number": 64,
                        "time": 216.41629062083334,
                        "value": 1
                    },
                    {
                        "number": 64,
                        "time": 217.66333197916666,
                        "value": 0
                    },
                    {
                        "number": 64,
                        "time": 219.552099,
                        "value": 0
                    },
                    {
                        "number": 64,
                        "time": 219.69773886666667,
                        "value": 1
                    },
                    {
                        "number": 64,
                        "time": 221.75717760625,
                        "value": 0
                    },
                    {
                        "number": 64,
                        "time": 221.89826622708333,
                        "value": 1
                    },
                    {
                        "number": 64,
                        "time": 222.84720098333332,
                        "value": 0
                    },
                    {
                        "number": 64,
                        "time": 222.97008462083332,
                        "value": 1
                    },
                    {
                        "number": 64,
                        "time": 224.2080234875,
                        "value": 0
                    },
                    {
                        "number": 64,
                        "time": 226.15368108125,
                        "value": 0
                    },
                    {
                        "number": 64,
                        "time": 226.35393589791667,
                        "value": 1
                    },
                    {
                        "number": 64,
                        "time": 227.24142883541668,
                        "value": 0
                    },
                    {
                        "number": 64,
                        "time": 229.75599215833336,
                        "value": 1
                    },
                    {
                        "number": 64,
                        "time": 230.4978452291667,
                        "value": 0
                    },
                    {
                        "number": 64,
                        "time": 230.61845324375003,
                        "value": 1
                    },
                    {
                        "number": 64,
                        "time": 231.59241985208337,
                        "value": 0
                    },
                    {
                        "number": 64,
                        "time": 233.0852284854167,
                        "value": 1
                    },
                    {
                        "number": 64,
                        "time": 233.7952228354167,
                        "value": 0
                    },
                    {
                        "number": 64,
                        "time": 236.07767262083337,
                        "value": 1
                    },
                    {
                        "number": 64,
                        "time": 236.07767262083337,
                        "value": 1
                    },
                    {
                        "number": 64,
                        "time": 237.04936360625004,
                        "value": 0
                    },
                    {
                        "number": 64,
                        "time": 239.21348100000003,
                        "value": 0
                    },
                    {
                        "number": 64,
                        "time": 239.3591208666667,
                        "value": 1
                    },
                    {
                        "number": 64,
                        "time": 240.3285362291667,
                        "value": 0
                    },
                    {
                        "number": 64,
                        "time": 240.47645171875004,
                        "value": 1
                    },
                    {
                        "number": 64,
                        "time": 241.41855960625003,
                        "value": 0
                    },
                    {
                        "number": 64,
                        "time": 241.55964822708336,
                        "value": 1
                    },
                    {
                        "number": 64,
                        "time": 242.49037800000002,
                        "value": 0
                    },
                    {
                        "number": 64,
                        "time": 242.63146662083335,
                        "value": 1
                    },
                    {
                        "number": 64,
                        "time": 242.63146662083335,
                        "value": 1
                    },
                    {
                        "number": 64,
                        "time": 242.63146662083335,
                        "value": 1
                    },
                    {
                        "number": 64,
                        "time": 243.60315760625002,
                        "value": 0
                    },
                    {
                        "number": 64,
                        "time": 244.68180286875003,
                        "value": 0
                    },
                    {
                        "number": 64,
                        "time": 244.68180286875003,
                        "value": 0
                    },
                    {
                        "number": 64,
                        "time": 244.82061586666669,
                        "value": 1
                    },
                    {
                        "number": 64,
                        "time": 244.82061586666669,
                        "value": 1
                    },
                    {
                        "number": 64,
                        "time": 244.82061586666669,
                        "value": 1
                    },
                    {
                        "number": 64,
                        "time": 245.767275,
                        "value": 0
                    },
                    {
                        "number": 64,
                        "time": 245.767275,
                        "value": 0
                    },
                    {
                        "number": 64,
                        "time": 245.91291486666668,
                        "value": 1
                    },
                    {
                        "number": 64,
                        "time": 245.91291486666668,
                        "value": 1
                    },
                    {
                        "number": 64,
                        "time": 246.88460585208335,
                        "value": 0
                    },
                    {
                        "number": 64,
                        "time": 247.09396316041668,
                        "value": 1
                    },
                    {
                        "number": 64,
                        "time": 247.97235360625,
                        "value": 0
                    },
                    {
                        "number": 64,
                        "time": 248.11344222708334,
                        "value": 1
                    },
                    {
                        "number": 64,
                        "time": 249.044172,
                        "value": 0
                    },
                    {
                        "number": 64,
                        "time": 249.06237698333334,
                        "value": 0
                    },
                    {
                        "number": 64,
                        "time": 249.18526062083333,
                        "value": 1
                    },
                    {
                        "number": 64,
                        "time": 249.18526062083333,
                        "value": 1
                    },
                    {
                        "number": 64,
                        "time": 252.36885708125,
                        "value": 0
                    },
                    {
                        "number": 64,
                        "time": 252.56911189791668,
                        "value": 1
                    },
                    {
                        "number": 64,
                        "time": 253.70009648750002,
                        "value": 0
                    },
                    {
                        "number": 64,
                        "time": 255.9620656666667,
                        "value": 1
                    },
                    {
                        "number": 64,
                        "time": 256.7130212291667,
                        "value": 0
                    },
                    {
                        "number": 64,
                        "time": 256.83362924375007,
                        "value": 1
                    },
                    {
                        "number": 64,
                        "time": 257.8075958520834,
                        "value": 0
                    },
                    {
                        "number": 64,
                        "time": 258.87486300000006,
                        "value": 0
                    },
                    {
                        "number": 64,
                        "time": 259.3004044854167,
                        "value": 1
                    },
                    {
                        "number": 64,
                        "time": 260.0103988354167,
                        "value": 0
                    },
                    {
                        "number": 64,
                        "time": 262.29284862083335,
                        "value": 1
                    },
                    {
                        "number": 64,
                        "time": 264.34318486875003,
                        "value": 0
                    },
                    {
                        "number": 64,
                        "time": 265.5742968666667,
                        "value": 1
                    },
                    {
                        "number": 64,
                        "time": 267.63373560625007,
                        "value": 0
                    },
                    {
                        "number": 64,
                        "time": 267.7748242270834,
                        "value": 1
                    },
                    {
                        "number": 64,
                        "time": 268.70555400000006,
                        "value": 0
                    },
                    {
                        "number": 64,
                        "time": 268.8466426208334,
                        "value": 1
                    },
                    {
                        "number": 64,
                        "time": 270.35765623750007,
                        "value": 0
                    },
                    {
                        "number": 64,
                        "time": 272.12809086666675,
                        "value": 1
                    },
                    {
                        "number": 64,
                        "time": 274.1875296062501,
                        "value": 0
                    },
                    {
                        "number": 64,
                        "time": 274.32861822708344,
                        "value": 1
                    },
                    {
                        "number": 64,
                        "time": 275.3685779000001,
                        "value": 0
                    },
                    {
                        "number": 64,
                        "time": 275.5324227500001,
                        "value": 1
                    },
                    {
                        "number": 64,
                        "time": 276.40171070416676,
                        "value": 0
                    },
                    {
                        "number": 64,
                        "time": 278.5362450000001,
                        "value": 0
                    },
                    {
                        "number": 64,
                        "time": 278.6818848666668,
                        "value": 1
                    },
                    {
                        "number": 64,
                        "time": 279.6581270979168,
                        "value": 0
                    },
                    {
                        "number": 64,
                        "time": 279.83790130833347,
                        "value": 1
                    },
                    {
                        "number": 64,
                        "time": 280.74132360625015,
                        "value": 0
                    },
                    {
                        "number": 64,
                        "time": 280.8824122270835,
                        "value": 1
                    },
                    {
                        "number": 64,
                        "time": 281.81314200000014,
                        "value": 0
                    },
                    {
                        "number": 64,
                        "time": 285.2129226375001,
                        "value": 1
                    },
                    {
                        "number": 64,
                        "time": 286.18916486875014,
                        "value": 0
                    },
                    {
                        "number": 64,
                        "time": 288.50802462083345,
                        "value": 1
                    },
                    {
                        "number": 64,
                        "time": 290.5583608687501,
                        "value": 0
                    },
                    {
                        "number": 64,
                        "time": 290.6971738666668,
                        "value": 1
                    },
                    {
                        "number": 64,
                        "time": 291.64383300000014,
                        "value": 0
                    },
                    {
                        "number": 64,
                        "time": 291.7894728666668,
                        "value": 1
                    },
                    {
                        "number": 64,
                        "time": 292.8180544250001,
                        "value": 0
                    },
                    {
                        "number": 64,
                        "time": 294.9207300000001,
                        "value": 0
                    },
                    {
                        "number": 64,
                        "time": 298.3432668666668,
                        "value": 1
                    },
                    {
                        "number": 64,
                        "time": 300.40270560625015,
                        "value": 0
                    },
                    {
                        "number": 64,
                        "time": 300.5437942270835,
                        "value": 1
                    },
                    {
                        "number": 64,
                        "time": 301.58375390000015,
                        "value": 0
                    },
                    {
                        "number": 64,
                        "time": 301.7475987500001,
                        "value": 1
                    },
                    {
                        "number": 64,
                        "time": 302.6168867041668,
                        "value": 0
                    },
                    {
                        "number": 64,
                        "time": 304.75142100000016,
                        "value": 0
                    },
                    {
                        "number": 64,
                        "time": 304.89706086666683,
                        "value": 1
                    },
                    {
                        "number": 64,
                        "time": 305.87330309791685,
                        "value": 0
                    },
                    {
                        "number": 64,
                        "time": 306.0462504395835,
                        "value": 1
                    },
                    {
                        "number": 64,
                        "time": 306.9564996062502,
                        "value": 0
                    },
                    {
                        "number": 64,
                        "time": 309.2639812437502,
                        "value": 1
                    },
                    {
                        "number": 64,
                        "time": 310.23794785208355,
                        "value": 0
                    },
                    {
                        "number": 64,
                        "time": 314.72320062083355,
                        "value": 1
                    },
                    {
                        "number": 64,
                        "time": 316.2455923520836,
                        "value": 0
                    },
                    {
                        "number": 64,
                        "time": 318.0046488666669,
                        "value": 1
                    },
                    {
                        "number": 64,
                        "time": 318.97861547500025,
                        "value": 0
                    },
                    {
                        "number": 64,
                        "time": 319.1765946687502,
                        "value": 1
                    },
                    {
                        "number": 64,
                        "time": 320.0640876062502,
                        "value": 0
                    },
                    {
                        "number": 64,
                        "time": 322.37156924375023,
                        "value": 1
                    },
                    {
                        "number": 64,
                        "time": 323.3455358520836,
                        "value": 0
                    },
                    {
                        "number": 64,
                        "time": 327.8307886208336,
                        "value": 1
                    },
                    {
                        "number": 64,
                        "time": 328.7979283604169,
                        "value": 0
                    },
                    {
                        "number": 64,
                        "time": 330.96659700000026,
                        "value": 0
                    },
                    {
                        "number": 64,
                        "time": 331.11223686666693,
                        "value": 1
                    },
                    {
                        "number": 64,
                        "time": 332.0862034750003,
                        "value": 0
                    },
                    {
                        "number": 64,
                        "time": 332.28418266875025,
                        "value": 1
                    },
                    {
                        "number": 64,
                        "time": 333.17167560625023,
                        "value": 0
                    },
                    {
                        "number": 64,
                        "time": 333.31276422708356,
                        "value": 1
                    },
                    {
                        "number": 64,
                        "time": 334.2434940000002,
                        "value": 0
                    },
                    {
                        "number": 64,
                        "time": 334.5165687500002,
                        "value": 1
                    },
                    {
                        "number": 64,
                        "time": 336.45312385208354,
                        "value": 0
                    },
                    {
                        "number": 64,
                        "time": 336.61014183333356,
                        "value": 1
                    },
                    {
                        "number": 64,
                        "time": 336.9969977291669,
                        "value": 0
                    },
                    {
                        "number": 64,
                        "time": 337.1198813666669,
                        "value": 1
                    },
                    {
                        "number": 64,
                        "time": 337.52039100000025,
                        "value": 0
                    },
                    {
                        "number": 64,
                        "time": 337.68196022708355,
                        "value": 1
                    },
                    {
                        "number": 64,
                        "time": 338.1075017125002,
                        "value": 0
                    },
                    {
                        "number": 64,
                        "time": 338.6126900000002,
                        "value": 1
                    },
                    {
                        "number": 64,
                        "time": 339.1815957291669,
                        "value": 0
                    },
                    {
                        "number": 64,
                        "time": 339.7869114250002,
                        "value": 1
                    },
                    {
                        "number": 64,
                        "time": 340.27161910625017,
                        "value": 0
                    },
                    {
                        "number": 64,
                        "time": 340.3580927770835,
                        "value": 1
                    },
                    {
                        "number": 64,
                        "time": 340.75860241041687,
                        "value": 0
                    },
                    {
                        "number": 64,
                        "time": 340.9588572270835,
                        "value": 1
                    },
                    {
                        "number": 64,
                        "time": 341.3843987125002,
                        "value": 0
                    },
                    {
                        "number": 64,
                        "time": 341.8895870000002,
                        "value": 1
                    },
                    {
                        "number": 64,
                        "time": 342.4698708437502,
                        "value": 0
                    },
                    {
                        "number": 64,
                        "time": 343.06380842500016,
                        "value": 1
                    },
                    {
                        "number": 64,
                        "time": 343.54851610625013,
                        "value": 0
                    },
                    {
                        "number": 64,
                        "time": 343.6349897770835,
                        "value": 1
                    },
                    {
                        "number": 64,
                        "time": 344.03549941041683,
                        "value": 0
                    }
                ]
            },
            "id": 3,
            "name": "Pedale",
            "instrumentNumber": 0,
            "instrument": "acoustic grand piano",
            "instrumentFamily": "piano",
            "channelNumber": 0,
            "isPercussion": false
        },
        {
            "startTime": 0,
            "duration": 0,
            "length": 0,
            "notes": [],
            "controlChanges": {},
            "id": 4,
            "name": "Mozart: Piano sonata  KV 545 2. Movement"
        },
        {
            "startTime": 0,
            "duration": 0,
            "length": 0,
            "notes": [],
            "controlChanges": {},
            "id": 5,
            "name": "Copyright  2006 by Bernd Krueger"
        },
        {
            "startTime": 0,
            "duration": 0,
            "length": 0,
            "notes": [],
            "controlChanges": {},
            "id": 6,
            "name": "http://www.piano-midi.de/"
        },
        {
            "startTime": 0,
            "duration": 0,
            "length": 0,
            "notes": [],
            "controlChanges": {},
            "id": 7,
            "name": "Edition: 2013-09-27"
        },
        {
            "startTime": 0,
            "duration": 0,
            "length": 0,
            "notes": [],
            "controlChanges": {},
            "id": 8,
            "name": "Spur 8"
        },
        {
            "startTime": 0,
            "duration": 0,
            "length": 0,
            "notes": [],
            "controlChanges": {},
            "id": 9,
            "name": "Spur 9"
        },
        {
            "startTime": 0,
            "duration": 0,
            "length": 0,
            "notes": [],
            "controlChanges": {},
            "id": 10,
            "name": "Spur 10"
        },
        {
            "startTime": 0,
            "duration": 0,
            "length": 0,
            "notes": [],
            "controlChanges": {},
            "id": 11,
            "name": "Spur 11"
        },
        {
            "startTime": 0,
            "duration": 0,
            "length": 0,
            "notes": [],
            "controlChanges": {},
            "id": 12,
            "name": "Spur 12"
        },
        {
            "startTime": 0,
            "duration": 0,
            "length": 0,
            "notes": [],
            "controlChanges": {},
            "id": 13,
            "name": "Spur 13"
        },
        {
            "startTime": 0,
            "duration": 0,
            "length": 0,
            "notes": [],
            "controlChanges": {},
            "id": 14,
            "name": "Spur 14"
        },
        {
            "startTime": 0,
            "duration": 0,
            "length": 0,
            "notes": [],
            "controlChanges": {},
            "id": 15,
            "name": "Spur 15"
        },
        {
            "startTime": 0,
            "duration": 0,
            "length": 0,
            "notes": [],
            "controlChanges": {},
            "id": 16,
            "name": "Spur 16"
        }
    ]
}