{
    "header": {
        "PPQ": 480,
        "timeSignature": [
            3,
            4
        ],
        "bpm": 160.14990030668707,
        "name": "Klaviersonate KV 570 1. Satz"
    },
    "startTime": 0,
    "duration": 469.43519700000667,
    "tracks": [
        {
            "startTime": 0,
            "duration": 0,
            "length": 0,
            "notes": [],
            "controlChanges": {},
            "id": 0,
            "name": "Klaviersonate KV 570 1. Satz"
        },
        {
            "startTime": 0,
            "duration": 469.43519700000667,
            "length": 2318,
            "notes": [
                {
                    "name": "A#4",
                    "midi": 70,
                    "time": 0,
                    "velocity": 0.3937007874015748,
                    "duration": 0.7492979999999999
                },
                {
                    "name": "F4",
                    "midi": 65,
                    "time": 0.7492979999999999,
                    "velocity": 0.3543307086614173,
                    "duration": 0.3746489999999999
                },
                {
                    "name": "D4",
                    "midi": 62,
                    "time": 1.1239469999999998,
                    "velocity": 0.3937007874015748,
                    "duration": 0.749298
                },
                {
                    "name": "F4",
                    "midi": 65,
                    "time": 1.8732449999999998,
                    "velocity": 0.3779527559055118,
                    "duration": 0.3746489999999998
                },
                {
                    "name": "A#4",
                    "midi": 70,
                    "time": 2.2478939999999996,
                    "velocity": 0.4094488188976378,
                    "duration": 0.749298
                },
                {
                    "name": "D5",
                    "midi": 74,
                    "time": 2.9971919999999996,
                    "velocity": 0.4251968503937008,
                    "duration": 0.3746489999999998
                },
                {
                    "name": "F5",
                    "midi": 77,
                    "time": 3.3718409999999994,
                    "velocity": 0.44881889763779526,
                    "duration": 0.749298
                },
                {
                    "name": "A#5",
                    "midi": 82,
                    "time": 4.121138999999999,
                    "velocity": 0.4566929133858268,
                    "duration": 0.1873244999999999
                },
                {
                    "name": "D5",
                    "midi": 74,
                    "time": 4.308463499999999,
                    "velocity": 0.4015748031496063,
                    "duration": 0.1873244999999999
                },
                {
                    "name": "F5",
                    "midi": 77,
                    "time": 4.495787999999999,
                    "velocity": 0.4409448818897638,
                    "duration": 0.19669072499999984
                },
                {
                    "name": "D#5",
                    "midi": 75,
                    "time": 4.683112499999999,
                    "velocity": 0.4094488188976378,
                    "duration": 0.19669072499999984
                },
                {
                    "name": "D5",
                    "midi": 74,
                    "time": 4.870436999999999,
                    "velocity": 0.4015748031496063,
                    "duration": 0.19669072499999984
                },
                {
                    "name": "C5",
                    "midi": 72,
                    "time": 5.057761499999999,
                    "velocity": 0.3858267716535433,
                    "duration": 0.19669072499999984
                },
                {
                    "name": "A#4",
                    "midi": 70,
                    "time": 5.245085999999999,
                    "velocity": 0.3779527559055118,
                    "duration": 0.19669072499999984
                },
                {
                    "name": "A4",
                    "midi": 69,
                    "time": 5.432410499999999,
                    "velocity": 0.3700787401574803,
                    "duration": 0.1873244999999999
                },
                {
                    "name": "G4",
                    "midi": 67,
                    "time": 5.619734999999999,
                    "velocity": 0.3937007874015748,
                    "duration": 0.19669072499999984
                },
                {
                    "name": "F4",
                    "midi": 65,
                    "time": 5.8070594999999985,
                    "velocity": 0.3464566929133858,
                    "duration": 0.19669072499999984
                },
                {
                    "name": "E4",
                    "midi": 64,
                    "time": 5.994383999999998,
                    "velocity": 0.3464566929133858,
                    "duration": 0.19669072499999984
                },
                {
                    "name": "F4",
                    "midi": 65,
                    "time": 6.181708499999998,
                    "velocity": 0.3543307086614173,
                    "duration": 0.19669072499999984
                },
                {
                    "name": "G4",
                    "midi": 67,
                    "time": 6.369032999999998,
                    "velocity": 0.3700787401574803,
                    "duration": 0.19669072499999984
                },
                {
                    "name": "A4",
                    "midi": 69,
                    "time": 6.556357499999998,
                    "velocity": 0.3937007874015748,
                    "duration": 0.1873244999999999
                },
                {
                    "name": "A#4",
                    "midi": 70,
                    "time": 6.743681999999998,
                    "velocity": 0.3937007874015748,
                    "duration": 0.04683112499999975
                },
                {
                    "name": "C5",
                    "midi": 72,
                    "time": 6.884175374999998,
                    "velocity": 0.3543307086614173,
                    "duration": 0.04683112499999975
                },
                {
                    "name": "A#4",
                    "midi": 70,
                    "time": 6.931006499999998,
                    "velocity": 0.3858267716535433,
                    "duration": 0.09366225000000039
                },
                {
                    "name": "A4",
                    "midi": 69,
                    "time": 7.024668749999998,
                    "velocity": 0.36220472440944884,
                    "duration": 0.09366225000000039
                },
                {
                    "name": "A#4",
                    "midi": 70,
                    "time": 7.118330999999999,
                    "velocity": 0.3937007874015748,
                    "duration": 0.04683112499999975
                },
                {
                    "name": "C5",
                    "midi": 72,
                    "time": 7.3056554999999985,
                    "velocity": 0.3700787401574803,
                    "duration": 0.04683112499999975
                },
                {
                    "name": "D5",
                    "midi": 74,
                    "time": 7.492979999999998,
                    "velocity": 0.3858267716535433,
                    "duration": 0.04683112499999975
                },
                {
                    "name": "D#5",
                    "midi": 75,
                    "time": 7.680304499999998,
                    "velocity": 0.4015748031496063,
                    "duration": 0.04683112499999975
                },
                {
                    "name": "E5",
                    "midi": 76,
                    "time": 7.867628999999998,
                    "velocity": 0.41732283464566927,
                    "duration": 0.19669072500000073
                },
                {
                    "name": "F5",
                    "midi": 77,
                    "time": 8.054953499999998,
                    "velocity": 0.3937007874015748,
                    "duration": 0.19669072500000162
                },
                {
                    "name": "G5",
                    "midi": 79,
                    "time": 8.242277999999999,
                    "velocity": 0.4330708661417323,
                    "duration": 0.19669072500000162
                },
                {
                    "name": "F5",
                    "midi": 77,
                    "time": 8.4296025,
                    "velocity": 0.3937007874015748,
                    "duration": 0.18732450000000078
                },
                {
                    "name": "A#5",
                    "midi": 82,
                    "time": 8.616927,
                    "velocity": 0.4645669291338583,
                    "duration": 0.18732450000000078
                },
                {
                    "name": "D5",
                    "midi": 74,
                    "time": 8.804251500000001,
                    "velocity": 0.3937007874015748,
                    "duration": 0.18732450000000078
                },
                {
                    "name": "F5",
                    "midi": 77,
                    "time": 8.991576000000002,
                    "velocity": 0.44881889763779526,
                    "duration": 0.19669072500000162
                },
                {
                    "name": "D#5",
                    "midi": 75,
                    "time": 9.178900500000003,
                    "velocity": 0.4330708661417323,
                    "duration": 0.19669072500000162
                },
                {
                    "name": "D5",
                    "midi": 74,
                    "time": 9.366225000000004,
                    "velocity": 0.41732283464566927,
                    "duration": 0.19669072500000162
                },
                {
                    "name": "C5",
                    "midi": 72,
                    "time": 9.553549500000004,
                    "velocity": 0.4015748031496063,
                    "duration": 0.19669072500000162
                },
                {
                    "name": "A#4",
                    "midi": 70,
                    "time": 9.740874000000005,
                    "velocity": 0.3858267716535433,
                    "duration": 0.19669072500000162
                },
                {
                    "name": "A4",
                    "midi": 69,
                    "time": 9.928198500000006,
                    "velocity": 0.3700787401574803,
                    "duration": 0.18732450000000078
                },
                {
                    "name": "G4",
                    "midi": 67,
                    "time": 10.115523000000007,
                    "velocity": 0.3937007874015748,
                    "duration": 0.19669072500000162
                },
                {
                    "name": "F4",
                    "midi": 65,
                    "time": 10.302847500000007,
                    "velocity": 0.33858267716535434,
                    "duration": 0.19669072500000162
                },
                {
                    "name": "E4",
                    "midi": 64,
                    "time": 10.490172000000008,
                    "velocity": 0.3937007874015748,
                    "duration": 0.19669072500000162
                },
                {
                    "name": "F4",
                    "midi": 65,
                    "time": 10.677496500000009,
                    "velocity": 0.33858267716535434,
                    "duration": 0.19669072500000162
                },
                {
                    "name": "G4",
                    "midi": 67,
                    "time": 10.86482100000001,
                    "velocity": 0.3937007874015748,
                    "duration": 0.19669072500000162
                },
                {
                    "name": "A4",
                    "midi": 69,
                    "time": 11.05214550000001,
                    "velocity": 0.3543307086614173,
                    "duration": 0.18732450000000078
                },
                {
                    "name": "A#4",
                    "midi": 70,
                    "time": 11.239470000000011,
                    "velocity": 0.3937007874015748,
                    "duration": 0.0936622499999995
                },
                {
                    "name": "A#4",
                    "midi": 70,
                    "time": 11.614119000000011,
                    "velocity": 0.3779527559055118,
                    "duration": 0.0936622499999995
                },
                {
                    "name": "D5",
                    "midi": 74,
                    "time": 11.988768000000011,
                    "velocity": 0.3779527559055118,
                    "duration": 0.0936622499999995
                },
                {
                    "name": "A#4",
                    "midi": 70,
                    "time": 12.36341700000001,
                    "velocity": 0.3937007874015748,
                    "duration": 0.3746489999999998
                },
                {
                    "name": "A#4",
                    "midi": 70,
                    "time": 13.01905275000001,
                    "velocity": 0.3464566929133858,
                    "duration": 0.04683112500000064
                },
                {
                    "name": "C5",
                    "midi": 72,
                    "time": 13.112715000000012,
                    "velocity": 0.3937007874015748,
                    "duration": 0.10302847500000034
                },
                {
                    "name": "A#4",
                    "midi": 70,
                    "time": 13.206377250000012,
                    "velocity": 0.33858267716535434,
                    "duration": 0.10302847500000212
                },
                {
                    "name": "A4",
                    "midi": 69,
                    "time": 13.300039500000013,
                    "velocity": 0.3543307086614173,
                    "duration": 0.10302847500000212
                },
                {
                    "name": "A#4",
                    "midi": 70,
                    "time": 13.393701750000014,
                    "velocity": 0.33070866141732286,
                    "duration": 0.10302847500000212
                },
                {
                    "name": "G5",
                    "midi": 79,
                    "time": 13.487364000000015,
                    "velocity": 0.4409448818897638,
                    "duration": 0.37464900000000156
                },
                {
                    "name": "A#4",
                    "midi": 70,
                    "time": 14.142999750000017,
                    "velocity": 0.3464566929133858,
                    "duration": 0.04683112500000064
                },
                {
                    "name": "C5",
                    "midi": 72,
                    "time": 14.236662000000019,
                    "velocity": 0.3937007874015748,
                    "duration": 0.10302847500000034
                },
                {
                    "name": "A#4",
                    "midi": 70,
                    "time": 14.330324250000018,
                    "velocity": 0.33858267716535434,
                    "duration": 0.10302847500000212
                },
                {
                    "name": "A4",
                    "midi": 69,
                    "time": 14.42398650000002,
                    "velocity": 0.3543307086614173,
                    "duration": 0.10302847500000212
                },
                {
                    "name": "A#4",
                    "midi": 70,
                    "time": 14.51764875000002,
                    "velocity": 0.33070866141732286,
                    "duration": 0.10302847500000212
                },
                {
                    "name": "F5",
                    "midi": 77,
                    "time": 14.611311000000022,
                    "velocity": 0.4330708661417323,
                    "duration": 0.37464900000000156
                },
                {
                    "name": "A#4",
                    "midi": 70,
                    "time": 15.266946750000024,
                    "velocity": 0.3464566929133858,
                    "duration": 0.04683112500000064
                },
                {
                    "name": "C5",
                    "midi": 72,
                    "time": 15.360609000000025,
                    "velocity": 0.3937007874015748,
                    "duration": 0.10302847500000034
                },
                {
                    "name": "A#4",
                    "midi": 70,
                    "time": 15.454271250000025,
                    "velocity": 0.33858267716535434,
                    "duration": 0.10302847500000212
                },
                {
                    "name": "A4",
                    "midi": 69,
                    "time": 15.547933500000026,
                    "velocity": 0.3543307086614173,
                    "duration": 0.10302847500000212
                },
                {
                    "name": "A#4",
                    "midi": 70,
                    "time": 15.641595750000027,
                    "velocity": 0.33070866141732286,
                    "duration": 0.10302847500000212
                },
                {
                    "name": "C5",
                    "midi": 72,
                    "time": 15.735258000000028,
                    "velocity": 0.4094488188976378,
                    "duration": 0.3746489999999998
                },
                {
                    "name": "F5",
                    "midi": 77,
                    "time": 16.109907000000028,
                    "velocity": 0.3858267716535433,
                    "duration": 0.37464900000000156
                },
                {
                    "name": "D#5",
                    "midi": 75,
                    "time": 16.48455600000003,
                    "velocity": 0.3779527559055118,
                    "duration": 0.37464900000000156
                },
                {
                    "name": "C#5",
                    "midi": 73,
                    "time": 16.85920500000003,
                    "velocity": 0.4330708661417323,
                    "duration": 0.37464900000000156
                },
                {
                    "name": "D5",
                    "midi": 74,
                    "time": 17.233854000000033,
                    "velocity": 0.3858267716535433,
                    "duration": 0.187324499999999
                },
                {
                    "name": "A#4",
                    "midi": 70,
                    "time": 17.514840750000033,
                    "velocity": 0.3464566929133858,
                    "duration": 0.04683112500000064
                },
                {
                    "name": "C5",
                    "midi": 72,
                    "time": 17.608503000000034,
                    "velocity": 0.3937007874015748,
                    "duration": 0.10302847500000212
                },
                {
                    "name": "A#4",
                    "midi": 70,
                    "time": 17.702165250000036,
                    "velocity": 0.33858267716535434,
                    "duration": 0.10302847500000212
                },
                {
                    "name": "A4",
                    "midi": 69,
                    "time": 17.795827500000037,
                    "velocity": 0.3543307086614173,
                    "duration": 0.10302847500000212
                },
                {
                    "name": "A#4",
                    "midi": 70,
                    "time": 17.88948975000004,
                    "velocity": 0.33070866141732286,
                    "duration": 0.10302847500000212
                },
                {
                    "name": "G5",
                    "midi": 79,
                    "time": 17.98315200000004,
                    "velocity": 0.4409448818897638,
                    "duration": 0.37464900000000156
                },
                {
                    "name": "A#4",
                    "midi": 70,
                    "time": 18.63878775000004,
                    "velocity": 0.3464566929133858,
                    "duration": 0.04683112500000064
                },
                {
                    "name": "C5",
                    "midi": 72,
                    "time": 18.732450000000043,
                    "velocity": 0.3937007874015748,
                    "duration": 0.10302847500000212
                },
                {
                    "name": "A#4",
                    "midi": 70,
                    "time": 18.826112250000044,
                    "velocity": 0.33858267716535434,
                    "duration": 0.10302847500000212
                },
                {
                    "name": "A4",
                    "midi": 69,
                    "time": 18.919774500000045,
                    "velocity": 0.3543307086614173,
                    "duration": 0.10302847500000212
                },
                {
                    "name": "A#4",
                    "midi": 70,
                    "time": 19.013436750000047,
                    "velocity": 0.33070866141732286,
                    "duration": 0.10302847500000212
                },
                {
                    "name": "F5",
                    "midi": 77,
                    "time": 19.107099000000048,
                    "velocity": 0.4330708661417323,
                    "duration": 0.37464900000000156
                },
                {
                    "name": "A#4",
                    "midi": 70,
                    "time": 19.76273475000005,
                    "velocity": 0.3464566929133858,
                    "duration": 0.04683112500000064
                },
                {
                    "name": "C5",
                    "midi": 72,
                    "time": 19.85639700000005,
                    "velocity": 0.3937007874015748,
                    "duration": 0.10302847500000212
                },
                {
                    "name": "A#4",
                    "midi": 70,
                    "time": 19.950059250000052,
                    "velocity": 0.33858267716535434,
                    "duration": 0.10302847500000212
                },
                {
                    "name": "A4",
                    "midi": 69,
                    "time": 20.043721500000053,
                    "velocity": 0.3543307086614173,
                    "duration": 0.10302847500000212
                },
                {
                    "name": "A#4",
                    "midi": 70,
                    "time": 20.137383750000055,
                    "velocity": 0.33070866141732286,
                    "duration": 0.10302847500000212
                },
                {
                    "name": "C5",
                    "midi": 72,
                    "time": 20.231046000000056,
                    "velocity": 0.4094488188976378,
                    "duration": 0.37464900000000156
                },
                {
                    "name": "D#5",
                    "midi": 75,
                    "time": 20.605695000000058,
                    "velocity": 0.3858267716535433,
                    "duration": 0.37464900000000156
                },
                {
                    "name": "A4",
                    "midi": 69,
                    "time": 20.98034400000006,
                    "velocity": 0.3779527559055118,
                    "duration": 0.37464900000000156
                },
                {
                    "name": "A#4",
                    "midi": 70,
                    "time": 21.35499300000006,
                    "velocity": 0.4330708661417323,
                    "duration": 0.37464900000000156
                },
                {
                    "name": "D5",
                    "midi": 74,
                    "time": 22.478940000000062,
                    "velocity": 0.5039370078740157,
                    "duration": 0.09366225000000128
                },
                {
                    "name": "A#4",
                    "midi": 70,
                    "time": 22.478940000000062,
                    "velocity": 0.5039370078740157,
                    "duration": 0.09366225000000128
                },
                {
                    "name": "G5",
                    "midi": 79,
                    "time": 22.478940000000062,
                    "velocity": 0.6062992125984252,
                    "duration": 0.09366225000000128
                },
                {
                    "name": "G4",
                    "midi": 67,
                    "time": 22.853589000000063,
                    "velocity": 0.5039370078740157,
                    "duration": 0.09366225000000128
                },
                {
                    "name": "A4",
                    "midi": 69,
                    "time": 23.602887000000063,
                    "velocity": 0.49606299212598426,
                    "duration": 0.09366225000000128
                },
                {
                    "name": "F#4",
                    "midi": 66,
                    "time": 23.602887000000063,
                    "velocity": 0.49606299212598426,
                    "duration": 0.09366225000000128
                },
                {
                    "name": "D5",
                    "midi": 74,
                    "time": 23.602887000000063,
                    "velocity": 0.5905511811023622,
                    "duration": 0.09366225000000128
                },
                {
                    "name": "D4",
                    "midi": 62,
                    "time": 23.977536000000065,
                    "velocity": 0.5275590551181102,
                    "duration": 0.09366225000000128
                },
                {
                    "name": "D#4",
                    "midi": 63,
                    "time": 24.726834000000064,
                    "velocity": 0.33858267716535434,
                    "duration": 0.7492979999999996
                },
                {
                    "name": "F4",
                    "midi": 65,
                    "time": 25.476132000000064,
                    "velocity": 0.28346456692913385,
                    "duration": 0.10302847500000212
                },
                {
                    "name": "D#4",
                    "midi": 63,
                    "time": 25.569794250000065,
                    "velocity": 0.28346456692913385,
                    "duration": 0.10302847500000212
                },
                {
                    "name": "D4",
                    "midi": 62,
                    "time": 25.663456500000066,
                    "velocity": 0.28346456692913385,
                    "duration": 0.10302847500000212
                },
                {
                    "name": "D#4",
                    "midi": 63,
                    "time": 25.757118750000068,
                    "velocity": 0.28346456692913385,
                    "duration": 0.09366225000000128
                },
                {
                    "name": "C5",
                    "midi": 72,
                    "time": 25.85078100000007,
                    "velocity": 0.33070866141732286,
                    "duration": 0.187324499999999
                },
                {
                    "name": "A#4",
                    "midi": 70,
                    "time": 26.038105500000068,
                    "velocity": 0.29133858267716534,
                    "duration": 0.187324499999999
                },
                {
                    "name": "A#4",
                    "midi": 70,
                    "time": 26.225430000000067,
                    "velocity": 0.33858267716535434,
                    "duration": 0.37464900000000156
                },
                {
                    "name": "A#4",
                    "midi": 70,
                    "time": 26.60007900000007,
                    "velocity": 0.2992125984251969,
                    "duration": 0.37464900000000156
                },
                {
                    "name": "A#4",
                    "midi": 70,
                    "time": 26.97472800000007,
                    "velocity": 0.30708661417322836,
                    "duration": 0.19669072499999984
                },
                {
                    "name": "D#5",
                    "midi": 75,
                    "time": 27.16205250000007,
                    "velocity": 0.3543307086614173,
                    "duration": 0.1966907250000034
                },
                {
                    "name": "D5",
                    "midi": 74,
                    "time": 27.34937700000007,
                    "velocity": 0.3464566929133858,
                    "duration": 0.1966907250000034
                },
                {
                    "name": "C#5",
                    "midi": 73,
                    "time": 27.536701500000074,
                    "velocity": 0.33070866141732286,
                    "duration": 0.1966907250000034
                },
                {
                    "name": "C5",
                    "midi": 72,
                    "time": 27.724026000000077,
                    "velocity": 0.31496062992125984,
                    "duration": 0.1966907250000034
                },
                {
                    "name": "B4",
                    "midi": 71,
                    "time": 27.91135050000008,
                    "velocity": 0.2992125984251969,
                    "duration": 0.1966907250000034
                },
                {
                    "name": "A#4",
                    "midi": 70,
                    "time": 28.098675000000082,
                    "velocity": 0.3228346456692913,
                    "duration": 0.37464900000000156
                },
                {
                    "name": "D#4",
                    "midi": 63,
                    "time": 29.222622000000083,
                    "velocity": 0.3543307086614173,
                    "duration": 0.7492979999999996
                },
                {
                    "name": "F4",
                    "midi": 65,
                    "time": 29.971920000000082,
                    "velocity": 0.33070866141732286,
                    "duration": 0.10302847500000212
                },
                {
                    "name": "D#4",
                    "midi": 63,
                    "time": 30.065582250000084,
                    "velocity": 0.30708661417322836,
                    "duration": 0.10302847500000212
                },
                {
                    "name": "D4",
                    "midi": 62,
                    "time": 30.159244500000085,
                    "velocity": 0.33070866141732286,
                    "duration": 0.10302847500000212
                },
                {
                    "name": "D#4",
                    "midi": 63,
                    "time": 30.252906750000086,
                    "velocity": 0.31496062992125984,
                    "duration": 0.09366225000000128
                },
                {
                    "name": "C5",
                    "midi": 72,
                    "time": 30.346569000000088,
                    "velocity": 0.4251968503937008,
                    "duration": 0.19669072499999984
                },
                {
                    "name": "B4",
                    "midi": 71,
                    "time": 30.533893500000087,
                    "velocity": 0.3779527559055118,
                    "duration": 0.18732450000000256
                },
                {
                    "name": "B4",
                    "midi": 71,
                    "time": 30.72121800000009,
                    "velocity": 0.41732283464566927,
                    "duration": 0.37464900000000156
                },
                {
                    "name": "B4",
                    "midi": 71,
                    "time": 31.09586700000009,
                    "velocity": 0.3700787401574803,
                    "duration": 0.37464900000000156
                },
                {
                    "name": "C5",
                    "midi": 72,
                    "time": 31.470516000000092,
                    "velocity": 0.3937007874015748,
                    "duration": 0.19669072499999984
                },
                {
                    "name": "G5",
                    "midi": 79,
                    "time": 31.65784050000009,
                    "velocity": 0.4566929133858268,
                    "duration": 0.1966907250000034
                },
                {
                    "name": "D#5",
                    "midi": 75,
                    "time": 31.845165000000094,
                    "velocity": 0.4409448818897638,
                    "duration": 0.1966907250000034
                },
                {
                    "name": "D5",
                    "midi": 74,
                    "time": 32.032489500000096,
                    "velocity": 0.4251968503937008,
                    "duration": 0.1966907250000034
                },
                {
                    "name": "C5",
                    "midi": 72,
                    "time": 32.2198140000001,
                    "velocity": 0.4015748031496063,
                    "duration": 0.1966907250000034
                },
                {
                    "name": "A#4",
                    "midi": 70,
                    "time": 32.4071385000001,
                    "velocity": 0.3858267716535433,
                    "duration": 0.1966907250000034
                },
                {
                    "name": "A4",
                    "midi": 69,
                    "time": 32.594463000000104,
                    "velocity": 0.3937007874015748,
                    "duration": 0.374648999999998
                },
                {
                    "name": "A#4",
                    "midi": 70,
                    "time": 33.718410000000105,
                    "velocity": 0.4645669291338583,
                    "duration": 0.1966907250000034
                },
                {
                    "name": "D6",
                    "midi": 86,
                    "time": 33.90573450000011,
                    "velocity": 0.4881889763779528,
                    "duration": 0.1966907250000034
                },
                {
                    "name": "A#5",
                    "midi": 82,
                    "time": 34.09305900000011,
                    "velocity": 0.48031496062992124,
                    "duration": 0.1966907250000034
                },
                {
                    "name": "A5",
                    "midi": 81,
                    "time": 34.28038350000011,
                    "velocity": 0.47244094488188976,
                    "duration": 0.1966907250000034
                },
                {
                    "name": "G5",
                    "midi": 79,
                    "time": 34.467708000000115,
                    "velocity": 0.4566929133858268,
                    "duration": 0.1966907250000034
                },
                {
                    "name": "F5",
                    "midi": 77,
                    "time": 34.65503250000012,
                    "velocity": 0.44881889763779526,
                    "duration": 0.1966907250000034
                },
                {
                    "name": "E5",
                    "midi": 76,
                    "time": 34.84235700000012,
                    "velocity": 0.4881889763779528,
                    "duration": 0.374648999999998
                },
                {
                    "name": "F5",
                    "midi": 77,
                    "time": 35.96630400000012,
                    "velocity": 0.4094488188976378,
                    "duration": 0.1966907250000034
                },
                {
                    "name": "A5",
                    "midi": 81,
                    "time": 36.153628500000124,
                    "velocity": 0.4566929133858268,
                    "duration": 0.1966907250000034
                },
                {
                    "name": "F5",
                    "midi": 77,
                    "time": 36.34095300000013,
                    "velocity": 0.4409448818897638,
                    "duration": 0.1966907250000034
                },
                {
                    "name": "E5",
                    "midi": 76,
                    "time": 36.52827750000013,
                    "velocity": 0.4330708661417323,
                    "duration": 0.1966907250000034
                },
                {
                    "name": "D5",
                    "midi": 74,
                    "time": 36.71560200000013,
                    "velocity": 0.41732283464566927,
                    "duration": 0.1966907250000034
                },
                {
                    "name": "C5",
                    "midi": 72,
                    "time": 36.902926500000135,
                    "velocity": 0.4015748031496063,
                    "duration": 0.1966907250000034
                },
                {
                    "name": "B4",
                    "midi": 71,
                    "time": 37.09025100000014,
                    "velocity": 0.4409448818897638,
                    "duration": 0.374648999999998
                },
                {
                    "name": "C5",
                    "midi": 72,
                    "time": 38.30786025000013,
                    "velocity": 0.36220472440944884,
                    "duration": 0.09366225000000128
                },
                {
                    "name": "B4",
                    "midi": 71,
                    "time": 38.401522500000134,
                    "velocity": 0.3858267716535433,
                    "duration": 0.09366225000000128
                },
                {
                    "name": "C5",
                    "midi": 72,
                    "time": 38.495184750000135,
                    "velocity": 0.3464566929133858,
                    "duration": 0.09366225000000128
                },
                {
                    "name": "D5",
                    "midi": 74,
                    "time": 38.588847000000136,
                    "velocity": 0.3858267716535433,
                    "duration": 0.09366225000000128
                },
                {
                    "name": "C5",
                    "midi": 72,
                    "time": 38.68250925000014,
                    "velocity": 0.3464566929133858,
                    "duration": 0.09366225000000128
                },
                {
                    "name": "B4",
                    "midi": 71,
                    "time": 38.77617150000014,
                    "velocity": 0.3858267716535433,
                    "duration": 0.09366225000000128
                },
                {
                    "name": "C5",
                    "midi": 72,
                    "time": 38.86983375000014,
                    "velocity": 0.3464566929133858,
                    "duration": 0.09366225000000128
                },
                {
                    "name": "C5",
                    "midi": 72,
                    "time": 39.05715825000014,
                    "velocity": 0.3858267716535433,
                    "duration": 0.09366225000000128
                },
                {
                    "name": "E5",
                    "midi": 76,
                    "time": 39.150820500000144,
                    "velocity": 0.4251968503937008,
                    "duration": 0.09366225000000128
                },
                {
                    "name": "C5",
                    "midi": 72,
                    "time": 39.244482750000145,
                    "velocity": 0.3858267716535433,
                    "duration": 0.09366225000000128
                },
                {
                    "name": "C5",
                    "midi": 72,
                    "time": 39.43180725000015,
                    "velocity": 0.41732283464566927,
                    "duration": 0.09366225000000128
                },
                {
                    "name": "F5",
                    "midi": 77,
                    "time": 39.52546950000015,
                    "velocity": 0.44881889763779526,
                    "duration": 0.09366225000000128
                },
                {
                    "name": "C5",
                    "midi": 72,
                    "time": 39.61913175000015,
                    "velocity": 0.4094488188976378,
                    "duration": 0.09366225000000128
                },
                {
                    "name": "C5",
                    "midi": 72,
                    "time": 39.80645625000015,
                    "velocity": 0.4330708661417323,
                    "duration": 0.09366225000000128
                },
                {
                    "name": "A#5",
                    "midi": 82,
                    "time": 39.900118500000154,
                    "velocity": 0.48031496062992124,
                    "duration": 0.09366225000000128
                },
                {
                    "name": "C5",
                    "midi": 72,
                    "time": 39.993780750000155,
                    "velocity": 0.44881889763779526,
                    "duration": 0.09366225000000128
                },
                {
                    "name": "C5",
                    "midi": 72,
                    "time": 40.18110525000016,
                    "velocity": 0.44881889763779526,
                    "duration": 0.09366225000000128
                },
                {
                    "name": "A5",
                    "midi": 81,
                    "time": 40.27476750000016,
                    "velocity": 0.5039370078740157,
                    "duration": 0.09366225000000128
                },
                {
                    "name": "C5",
                    "midi": 72,
                    "time": 40.36842975000016,
                    "velocity": 0.44881889763779526,
                    "duration": 0.09366225000000128
                },
                {
                    "name": "G5",
                    "midi": 79,
                    "time": 40.46209200000016,
                    "velocity": 0.5118110236220472,
                    "duration": 0.09366225000000128
                },
                {
                    "name": "E5",
                    "midi": 76,
                    "time": 40.55575425000016,
                    "velocity": 0.47244094488188976,
                    "duration": 0.09366225000000128
                },
                {
                    "name": "D5",
                    "midi": 74,
                    "time": 40.649416500000164,
                    "velocity": 0.5118110236220472,
                    "duration": 0.09366225000000128
                },
                {
                    "name": "C5",
                    "midi": 72,
                    "time": 40.743078750000166,
                    "velocity": 0.47244094488188976,
                    "duration": 0.09366225000000128
                },
                {
                    "name": "B4",
                    "midi": 71,
                    "time": 40.83674100000017,
                    "velocity": 0.44881889763779526,
                    "duration": 0.09366225000000128
                },
                {
                    "name": "C5",
                    "midi": 72,
                    "time": 40.93040325000017,
                    "velocity": 0.4645669291338583,
                    "duration": 0.09366225000000128
                },
                {
                    "name": "D5",
                    "midi": 74,
                    "time": 41.02406550000017,
                    "velocity": 0.47244094488188976,
                    "duration": 0.09366225000000128
                },
                {
                    "name": "C5",
                    "midi": 72,
                    "time": 41.11772775000017,
                    "velocity": 0.4409448818897638,
                    "duration": 0.09366225000000128
                },
                {
                    "name": "C5",
                    "midi": 72,
                    "time": 41.30505225000017,
                    "velocity": 0.3858267716535433,
                    "duration": 0.09366225000000128
                },
                {
                    "name": "E5",
                    "midi": 76,
                    "time": 41.398714500000175,
                    "velocity": 0.41732283464566927,
                    "duration": 0.09366225000000128
                },
                {
                    "name": "C5",
                    "midi": 72,
                    "time": 41.492376750000176,
                    "velocity": 0.3858267716535433,
                    "duration": 0.09366225000000128
                },
                {
                    "name": "C5",
                    "midi": 72,
                    "time": 41.67970125000018,
                    "velocity": 0.4094488188976378,
                    "duration": 0.09366225000000128
                },
                {
                    "name": "F5",
                    "midi": 77,
                    "time": 41.77336350000018,
                    "velocity": 0.4566929133858268,
                    "duration": 0.09366225000000128
                },
                {
                    "name": "C5",
                    "midi": 72,
                    "time": 41.86702575000018,
                    "velocity": 0.4251968503937008,
                    "duration": 0.09366225000000128
                },
                {
                    "name": "C5",
                    "midi": 72,
                    "time": 42.054350250000184,
                    "velocity": 0.4330708661417323,
                    "duration": 0.09366225000000128
                },
                {
                    "name": "A#5",
                    "midi": 82,
                    "time": 42.148012500000185,
                    "velocity": 0.48031496062992124,
                    "duration": 0.09366225000000128
                },
                {
                    "name": "C5",
                    "midi": 72,
                    "time": 42.241674750000186,
                    "velocity": 0.4330708661417323,
                    "duration": 0.09366225000000128
                },
                {
                    "name": "C5",
                    "midi": 72,
                    "time": 42.42899925000019,
                    "velocity": 0.3858267716535433,
                    "duration": 0.09366225000000128
                },
                {
                    "name": "A5",
                    "midi": 81,
                    "time": 42.52266150000019,
                    "velocity": 0.5354330708661418,
                    "duration": 0.09366225000000128
                },
                {
                    "name": "C5",
                    "midi": 72,
                    "time": 42.61632375000019,
                    "velocity": 0.4881889763779528,
                    "duration": 0.09366225000000128
                },
                {
                    "name": "G5",
                    "midi": 79,
                    "time": 42.70998600000019,
                    "velocity": 0.5748031496062992,
                    "duration": 0.09366225000000128
                },
                {
                    "name": "C6",
                    "midi": 84,
                    "time": 42.803648250000194,
                    "velocity": 0.4881889763779528,
                    "duration": 0.09366225000000128
                },
                {
                    "name": "G5",
                    "midi": 79,
                    "time": 42.897310500000195,
                    "velocity": 0.5433070866141733,
                    "duration": 0.09366225000000128
                },
                {
                    "name": "E5",
                    "midi": 76,
                    "time": 42.990972750000196,
                    "velocity": 0.44881889763779526,
                    "duration": 0.09366225000000128
                },
                {
                    "name": "C5",
                    "midi": 72,
                    "time": 43.0846350000002,
                    "velocity": 0.5275590551181102,
                    "duration": 0.09366225000000128
                },
                {
                    "name": "G5",
                    "midi": 79,
                    "time": 43.1782972500002,
                    "velocity": 0.4330708661417323,
                    "duration": 0.09366225000000128
                },
                {
                    "name": "E5",
                    "midi": 76,
                    "time": 43.2719595000002,
                    "velocity": 0.48031496062992124,
                    "duration": 0.09366225000000128
                },
                {
                    "name": "C5",
                    "midi": 72,
                    "time": 43.3656217500002,
                    "velocity": 0.4251968503937008,
                    "duration": 0.09366225000000128
                },
                {
                    "name": "G4",
                    "midi": 67,
                    "time": 43.4592840000002,
                    "velocity": 0.49606299212598426,
                    "duration": 0.09366225000000128
                },
                {
                    "name": "C5",
                    "midi": 72,
                    "time": 43.552946250000204,
                    "velocity": 0.4330708661417323,
                    "duration": 0.09366225000000128
                },
                {
                    "name": "G4",
                    "midi": 67,
                    "time": 43.646608500000205,
                    "velocity": 0.5118110236220472,
                    "duration": 0.09366225000000128
                },
                {
                    "name": "E4",
                    "midi": 64,
                    "time": 43.74027075000021,
                    "velocity": 0.4645669291338583,
                    "duration": 0.09366225000000128
                },
                {
                    "name": "C4",
                    "midi": 60,
                    "time": 43.83393300000021,
                    "velocity": 0.6692913385826772,
                    "duration": 0.09366225000000128
                },
                {
                    "name": "G4",
                    "midi": 67,
                    "time": 44.208582000000206,
                    "velocity": 0.4881889763779528,
                    "duration": 0.374648999999998
                },
                {
                    "name": "E4",
                    "midi": 64,
                    "time": 44.208582000000206,
                    "velocity": 0.4881889763779528,
                    "duration": 0.374648999999998
                },
                {
                    "name": "C5",
                    "midi": 72,
                    "time": 44.208582000000206,
                    "velocity": 0.5748031496062992,
                    "duration": 0.374648999999998
                },
                {
                    "name": "C6",
                    "midi": 84,
                    "time": 47.39309850000021,
                    "velocity": 0.3543307086614173,
                    "duration": 0.04683112499999709
                },
                {
                    "name": "C6",
                    "midi": 84,
                    "time": 47.5804230000002,
                    "velocity": 0.3858267716535433,
                    "duration": 0.04683112499999709
                },
                {
                    "name": "C6",
                    "midi": 84,
                    "time": 47.7677475000002,
                    "velocity": 0.33858267716535434,
                    "duration": 0.04683112499999709
                },
                {
                    "name": "C6",
                    "midi": 84,
                    "time": 47.95507200000019,
                    "velocity": 0.36220472440944884,
                    "duration": 0.04683112499999709
                },
                {
                    "name": "C6",
                    "midi": 84,
                    "time": 48.14239650000019,
                    "velocity": 0.31496062992125984,
                    "duration": 0.04683112499999709
                },
                {
                    "name": "D6",
                    "midi": 86,
                    "time": 48.329721000000184,
                    "velocity": 0.3543307086614173,
                    "duration": 0.1966907250000034
                },
                {
                    "name": "C6",
                    "midi": 84,
                    "time": 48.51704550000019,
                    "velocity": 0.31496062992125984,
                    "duration": 0.1966907250000034
                },
                {
                    "name": "A#5",
                    "midi": 82,
                    "time": 48.70437000000019,
                    "velocity": 0.33858267716535434,
                    "duration": 0.1966907250000034
                },
                {
                    "name": "A5",
                    "midi": 81,
                    "time": 48.89169450000019,
                    "velocity": 0.31496062992125984,
                    "duration": 0.1966907250000034
                },
                {
                    "name": "G5",
                    "midi": 79,
                    "time": 49.079019000000194,
                    "velocity": 0.3543307086614173,
                    "duration": 0.1966907250000034
                },
                {
                    "name": "F5",
                    "midi": 77,
                    "time": 49.2663435000002,
                    "velocity": 0.30708661417322836,
                    "duration": 0.18732450000000256
                },
                {
                    "name": "F5",
                    "midi": 77,
                    "time": 49.4536680000002,
                    "velocity": 0.3228346456692913,
                    "duration": 0.04683112499999709
                },
                {
                    "name": "G5",
                    "midi": 79,
                    "time": 49.500499125000196,
                    "velocity": 0.30708661417322836,
                    "duration": 0.04683112499999709
                },
                {
                    "name": "F5",
                    "midi": 77,
                    "time": 49.54733025000019,
                    "velocity": 0.3858267716535433,
                    "duration": 0.09366225000000128
                },
                {
                    "name": "E5",
                    "midi": 76,
                    "time": 49.640992500000195,
                    "velocity": 0.3464566929133858,
                    "duration": 0.181080350000002
                },
                {
                    "name": "E5",
                    "midi": 76,
                    "time": 49.8283170000002,
                    "velocity": 0.36220472440944884,
                    "duration": 0.374648999999998
                },
                {
                    "name": "A#5",
                    "midi": 82,
                    "time": 51.8888865000002,
                    "velocity": 0.3543307086614173,
                    "duration": 0.04683112499999709
                },
                {
                    "name": "A#5",
                    "midi": 82,
                    "time": 52.07621100000019,
                    "velocity": 0.3779527559055118,
                    "duration": 0.04683112499999709
                },
                {
                    "name": "A#5",
                    "midi": 82,
                    "time": 52.26353550000019,
                    "velocity": 0.33070866141732286,
                    "duration": 0.04683112499999709
                },
                {
                    "name": "A#5",
                    "midi": 82,
                    "time": 52.45086000000018,
                    "velocity": 0.3464566929133858,
                    "duration": 0.04683112499999709
                },
                {
                    "name": "A#5",
                    "midi": 82,
                    "time": 52.63818450000018,
                    "velocity": 0.31496062992125984,
                    "duration": 0.04683112499999709
                },
                {
                    "name": "C6",
                    "midi": 84,
                    "time": 52.825509000000174,
                    "velocity": 0.3543307086614173,
                    "duration": 0.1966907250000034
                },
                {
                    "name": "A#5",
                    "midi": 82,
                    "time": 53.01283350000018,
                    "velocity": 0.31496062992125984,
                    "duration": 0.1966907250000034
                },
                {
                    "name": "A5",
                    "midi": 81,
                    "time": 53.20015800000018,
                    "velocity": 0.31496062992125984,
                    "duration": 0.1966907250000034
                },
                {
                    "name": "G5",
                    "midi": 79,
                    "time": 53.38748250000018,
                    "velocity": 0.31496062992125984,
                    "duration": 0.1966907250000034
                },
                {
                    "name": "F5",
                    "midi": 77,
                    "time": 53.574807000000185,
                    "velocity": 0.3543307086614173,
                    "duration": 0.1966907250000034
                },
                {
                    "name": "E5",
                    "midi": 76,
                    "time": 53.76213150000019,
                    "velocity": 0.30708661417322836,
                    "duration": 0.18732450000000256
                },
                {
                    "name": "F5",
                    "midi": 77,
                    "time": 53.94945600000019,
                    "velocity": 0.3700787401574803,
                    "duration": 0.374648999999998
                },
                {
                    "name": "A5",
                    "midi": 81,
                    "time": 54.51142950000019,
                    "velocity": 0.3700787401574803,
                    "duration": 0.1966907250000034
                },
                {
                    "name": "G5",
                    "midi": 79,
                    "time": 54.69875400000019,
                    "velocity": 0.3543307086614173,
                    "duration": 0.1966907250000034
                },
                {
                    "name": "F5",
                    "midi": 77,
                    "time": 54.886078500000195,
                    "velocity": 0.31496062992125984,
                    "duration": 0.1966907250000034
                },
                {
                    "name": "E5",
                    "midi": 76,
                    "time": 55.0734030000002,
                    "velocity": 0.3700787401574803,
                    "duration": 0.374648999999998
                },
                {
                    "name": "D6",
                    "midi": 86,
                    "time": 55.6353765000002,
                    "velocity": 0.4094488188976378,
                    "duration": 0.1966907250000034
                },
                {
                    "name": "C6",
                    "midi": 84,
                    "time": 55.8227010000002,
                    "velocity": 0.3700787401574803,
                    "duration": 0.1966907250000034
                },
                {
                    "name": "E5",
                    "midi": 76,
                    "time": 56.010025500000204,
                    "velocity": 0.33070866141732286,
                    "duration": 0.1966907250000034
                },
                {
                    "name": "F5",
                    "midi": 77,
                    "time": 56.197350000000206,
                    "velocity": 0.3700787401574803,
                    "duration": 0.374648999999998
                },
                {
                    "name": "A5",
                    "midi": 81,
                    "time": 56.75932350000021,
                    "velocity": 0.3700787401574803,
                    "duration": 0.1966907250000034
                },
                {
                    "name": "G5",
                    "midi": 79,
                    "time": 56.94664800000021,
                    "velocity": 0.3543307086614173,
                    "duration": 0.1966907250000034
                },
                {
                    "name": "F5",
                    "midi": 77,
                    "time": 57.13397250000021,
                    "velocity": 0.31496062992125984,
                    "duration": 0.1966907250000034
                },
                {
                    "name": "E5",
                    "midi": 76,
                    "time": 57.321297000000214,
                    "velocity": 0.3700787401574803,
                    "duration": 0.374648999999998
                },
                {
                    "name": "D6",
                    "midi": 86,
                    "time": 57.883270500000215,
                    "velocity": 0.4094488188976378,
                    "duration": 0.1966907250000034
                },
                {
                    "name": "C6",
                    "midi": 84,
                    "time": 58.07059500000022,
                    "velocity": 0.3700787401574803,
                    "duration": 0.1966907250000034
                },
                {
                    "name": "E5",
                    "midi": 76,
                    "time": 58.25791950000022,
                    "velocity": 0.33070866141732286,
                    "duration": 0.1966907250000034
                },
                {
                    "name": "F5",
                    "midi": 77,
                    "time": 58.44524400000022,
                    "velocity": 0.3700787401574803,
                    "duration": 0.374648999999998
                },
                {
                    "name": "C6",
                    "midi": 84,
                    "time": 59.00721750000022,
                    "velocity": 0.4330708661417323,
                    "duration": 0.1966907250000034
                },
                {
                    "name": "A5",
                    "midi": 81,
                    "time": 59.194542000000226,
                    "velocity": 0.41732283464566927,
                    "duration": 0.1966907250000034
                },
                {
                    "name": "G5",
                    "midi": 79,
                    "time": 59.38186650000023,
                    "velocity": 0.3937007874015748,
                    "duration": 0.1966907250000034
                },
                {
                    "name": "F#5",
                    "midi": 78,
                    "time": 59.56919100000023,
                    "velocity": 0.4409448818897638,
                    "duration": 0.374648999999998
                },
                {
                    "name": "D#6",
                    "midi": 87,
                    "time": 60.13116450000023,
                    "velocity": 0.4566929133858268,
                    "duration": 0.1966907250000034
                },
                {
                    "name": "D6",
                    "midi": 86,
                    "time": 60.318489000000234,
                    "velocity": 0.4094488188976378,
                    "duration": 0.1966907250000034
                },
                {
                    "name": "F#5",
                    "midi": 78,
                    "time": 60.50581350000024,
                    "velocity": 0.3779527559055118,
                    "duration": 0.1966907250000034
                },
                {
                    "name": "A5",
                    "midi": 81,
                    "time": 60.69313800000024,
                    "velocity": 0.4409448818897638,
                    "duration": 0.1966907250000034
                },
                {
                    "name": "G5",
                    "midi": 79,
                    "time": 60.88046250000024,
                    "velocity": 0.4015748031496063,
                    "duration": 0.1966907250000034
                },
                {
                    "name": "C6",
                    "midi": 84,
                    "time": 61.067787000000244,
                    "velocity": 0.4330708661417323,
                    "duration": 0.1966907250000034
                },
                {
                    "name": "B5",
                    "midi": 83,
                    "time": 61.25511150000025,
                    "velocity": 0.4015748031496063,
                    "duration": 0.1966907250000034
                },
                {
                    "name": "A#5",
                    "midi": 82,
                    "time": 61.44243600000025,
                    "velocity": 0.3937007874015748,
                    "duration": 0.1966907250000034
                },
                {
                    "name": "A5",
                    "midi": 81,
                    "time": 61.62976050000025,
                    "velocity": 0.3858267716535433,
                    "duration": 0.1966907250000034
                },
                {
                    "name": "G5",
                    "midi": 79,
                    "time": 61.817085000000255,
                    "velocity": 0.4251968503937008,
                    "duration": 0.28098675000000384
                },
                {
                    "name": "A5",
                    "midi": 81,
                    "time": 62.09807175000026,
                    "velocity": 0.3779527559055118,
                    "duration": 0.09366225000000128
                },
                {
                    "name": "F5",
                    "midi": 77,
                    "time": 62.19173400000026,
                    "velocity": 0.4251968503937008,
                    "duration": 0.374648999999998
                },
                {
                    "name": "E5",
                    "midi": 76,
                    "time": 62.56638300000026,
                    "velocity": 0.3937007874015748,
                    "duration": 0.062441499999998484
                },
                {
                    "name": "F5",
                    "midi": 77,
                    "time": 62.628824500000256,
                    "velocity": 0.3464566929133858,
                    "duration": 0.062441499999998484
                },
                {
                    "name": "E5",
                    "midi": 76,
                    "time": 62.691266000000255,
                    "velocity": 0.3937007874015748,
                    "duration": 0.062441499999998484
                },
                {
                    "name": "F5",
                    "midi": 77,
                    "time": 62.75370750000025,
                    "velocity": 0.3464566929133858,
                    "duration": 0.04683112499999709
                },
                {
                    "name": "E5",
                    "midi": 76,
                    "time": 62.80053862500025,
                    "velocity": 0.3937007874015748,
                    "duration": 0.04683112499999709
                },
                {
                    "name": "D5",
                    "midi": 74,
                    "time": 62.84736975000025,
                    "velocity": 0.33070866141732286,
                    "duration": 0.04683112499999709
                },
                {
                    "name": "E5",
                    "midi": 76,
                    "time": 62.894200875000244,
                    "velocity": 0.3543307086614173,
                    "duration": 0.04683112499999709
                },
                {
                    "name": "F5",
                    "midi": 77,
                    "time": 62.94103200000024,
                    "velocity": 0.3858267716535433,
                    "duration": 0.09366225000000128
                },
                {
                    "name": "C5",
                    "midi": 72,
                    "time": 63.03469425000024,
                    "velocity": 0.36220472440944884,
                    "duration": 0.09366225000000128
                },
                {
                    "name": "B4",
                    "midi": 71,
                    "time": 63.128356500000244,
                    "velocity": 0.3858267716535433,
                    "duration": 0.09366225000000128
                },
                {
                    "name": "C5",
                    "midi": 72,
                    "time": 63.222018750000245,
                    "velocity": 0.3464566929133858,
                    "duration": 0.09366225000000128
                },
                {
                    "name": "D5",
                    "midi": 74,
                    "time": 63.31568100000025,
                    "velocity": 0.3858267716535433,
                    "duration": 0.09366225000000128
                },
                {
                    "name": "C5",
                    "midi": 72,
                    "time": 63.40934325000025,
                    "velocity": 0.3464566929133858,
                    "duration": 0.09366225000000128
                },
                {
                    "name": "B4",
                    "midi": 71,
                    "time": 63.50300550000025,
                    "velocity": 0.3858267716535433,
                    "duration": 0.09366225000000128
                },
                {
                    "name": "C5",
                    "midi": 72,
                    "time": 63.59666775000025,
                    "velocity": 0.3464566929133858,
                    "duration": 0.09366225000000128
                },
                {
                    "name": "A#4",
                    "midi": 70,
                    "time": 63.69033000000025,
                    "velocity": 0.3858267716535433,
                    "duration": 0.09366225000000128
                },
                {
                    "name": "C5",
                    "midi": 72,
                    "time": 63.78399225000025,
                    "velocity": 0.3858267716535433,
                    "duration": 0.09366225000000128
                },
                {
                    "name": "A4",
                    "midi": 69,
                    "time": 63.877654500000254,
                    "velocity": 0.4251968503937008,
                    "duration": 0.09366225000000128
                },
                {
                    "name": "C5",
                    "midi": 72,
                    "time": 63.971316750000256,
                    "velocity": 0.3858267716535433,
                    "duration": 0.09366224999999417
                },
                {
                    "name": "G4",
                    "midi": 67,
                    "time": 64.06497900000025,
                    "velocity": 0.3858267716535433,
                    "duration": 0.09366224999999417
                },
                {
                    "name": "C5",
                    "midi": 72,
                    "time": 64.15864125000024,
                    "velocity": 0.36220472440944884,
                    "duration": 0.09366224999999417
                },
                {
                    "name": "B4",
                    "midi": 71,
                    "time": 64.25230350000024,
                    "velocity": 0.3858267716535433,
                    "duration": 0.09366224999999417
                },
                {
                    "name": "C5",
                    "midi": 72,
                    "time": 64.34596575000023,
                    "velocity": 0.3464566929133858,
                    "duration": 0.09366224999999417
                },
                {
                    "name": "D5",
                    "midi": 74,
                    "time": 64.43962800000023,
                    "velocity": 0.3858267716535433,
                    "duration": 0.09366224999999417
                },
                {
                    "name": "C5",
                    "midi": 72,
                    "time": 64.53329025000022,
                    "velocity": 0.3464566929133858,
                    "duration": 0.09366224999999417
                },
                {
                    "name": "B4",
                    "midi": 71,
                    "time": 64.62695250000021,
                    "velocity": 0.3858267716535433,
                    "duration": 0.09366224999999417
                },
                {
                    "name": "C5",
                    "midi": 72,
                    "time": 64.72061475000021,
                    "velocity": 0.3464566929133858,
                    "duration": 0.09366224999999417
                },
                {
                    "name": "A#5",
                    "midi": 82,
                    "time": 64.8142770000002,
                    "velocity": 0.3858267716535433,
                    "duration": 0.09366224999999417
                },
                {
                    "name": "C5",
                    "midi": 72,
                    "time": 64.9079392500002,
                    "velocity": 0.3858267716535433,
                    "duration": 0.09366224999999417
                },
                {
                    "name": "A#5",
                    "midi": 82,
                    "time": 65.00160150000019,
                    "velocity": 0.4251968503937008,
                    "duration": 0.09366224999999417
                },
                {
                    "name": "C5",
                    "midi": 72,
                    "time": 65.09526375000019,
                    "velocity": 0.3858267716535433,
                    "duration": 0.09366224999999417
                },
                {
                    "name": "A5",
                    "midi": 81,
                    "time": 65.18892600000018,
                    "velocity": 0.3858267716535433,
                    "duration": 0.09366224999999417
                },
                {
                    "name": "C5",
                    "midi": 72,
                    "time": 65.28258825000017,
                    "velocity": 0.36220472440944884,
                    "duration": 0.09366224999999417
                },
                {
                    "name": "B4",
                    "midi": 71,
                    "time": 65.37625050000017,
                    "velocity": 0.3858267716535433,
                    "duration": 0.09366224999999417
                },
                {
                    "name": "C5",
                    "midi": 72,
                    "time": 65.46991275000016,
                    "velocity": 0.3464566929133858,
                    "duration": 0.09366224999999417
                },
                {
                    "name": "D5",
                    "midi": 74,
                    "time": 65.56357500000016,
                    "velocity": 0.3858267716535433,
                    "duration": 0.09366224999999417
                },
                {
                    "name": "C5",
                    "midi": 72,
                    "time": 65.65723725000015,
                    "velocity": 0.3464566929133858,
                    "duration": 0.09366224999999417
                },
                {
                    "name": "B4",
                    "midi": 71,
                    "time": 65.75089950000014,
                    "velocity": 0.3858267716535433,
                    "duration": 0.09366224999999417
                },
                {
                    "name": "C5",
                    "midi": 72,
                    "time": 65.84456175000014,
                    "velocity": 0.3464566929133858,
                    "duration": 0.09366224999999417
                },
                {
                    "name": "A#4",
                    "midi": 70,
                    "time": 65.93822400000013,
                    "velocity": 0.3858267716535433,
                    "duration": 0.09366224999999417
                },
                {
                    "name": "C5",
                    "midi": 72,
                    "time": 66.03188625000013,
                    "velocity": 0.3858267716535433,
                    "duration": 0.09366224999999417
                },
                {
                    "name": "A4",
                    "midi": 69,
                    "time": 66.12554850000012,
                    "velocity": 0.4251968503937008,
                    "duration": 0.09366224999999417
                },
                {
                    "name": "C5",
                    "midi": 72,
                    "time": 66.21921075000012,
                    "velocity": 0.3858267716535433,
                    "duration": 0.09366224999999417
                },
                {
                    "name": "G4",
                    "midi": 67,
                    "time": 66.31287300000011,
                    "velocity": 0.3858267716535433,
                    "duration": 0.09366224999999417
                },
                {
                    "name": "C5",
                    "midi": 72,
                    "time": 66.4065352500001,
                    "velocity": 0.36220472440944884,
                    "duration": 0.09366224999999417
                },
                {
                    "name": "B4",
                    "midi": 71,
                    "time": 66.5001975000001,
                    "velocity": 0.3858267716535433,
                    "duration": 0.09366224999999417
                },
                {
                    "name": "C5",
                    "midi": 72,
                    "time": 66.59385975000009,
                    "velocity": 0.3464566929133858,
                    "duration": 0.09366224999999417
                },
                {
                    "name": "D5",
                    "midi": 74,
                    "time": 66.68752200000009,
                    "velocity": 0.3858267716535433,
                    "duration": 0.09366224999999417
                },
                {
                    "name": "C5",
                    "midi": 72,
                    "time": 66.78118425000008,
                    "velocity": 0.3464566929133858,
                    "duration": 0.09366224999999417
                },
                {
                    "name": "B4",
                    "midi": 71,
                    "time": 66.87484650000007,
                    "velocity": 0.3858267716535433,
                    "duration": 0.09366224999999417
                },
                {
                    "name": "C5",
                    "midi": 72,
                    "time": 66.96850875000007,
                    "velocity": 0.3464566929133858,
                    "duration": 0.09366224999999417
                },
                {
                    "name": "A#5",
                    "midi": 82,
                    "time": 67.06217100000006,
                    "velocity": 0.3858267716535433,
                    "duration": 0.09366224999999417
                },
                {
                    "name": "C5",
                    "midi": 72,
                    "time": 67.15583325000006,
                    "velocity": 0.3858267716535433,
                    "duration": 0.09366224999999417
                },
                {
                    "name": "A#5",
                    "midi": 82,
                    "time": 67.24949550000005,
                    "velocity": 0.4251968503937008,
                    "duration": 0.09366224999999417
                },
                {
                    "name": "C5",
                    "midi": 72,
                    "time": 67.34315775000005,
                    "velocity": 0.3858267716535433,
                    "duration": 0.09366224999999417
                },
                {
                    "name": "A5",
                    "midi": 81,
                    "time": 67.43682000000004,
                    "velocity": 0.3858267716535433,
                    "duration": 0.09366224999999417
                },
                {
                    "name": "C5",
                    "midi": 72,
                    "time": 67.53048225000003,
                    "velocity": 0.36220472440944884,
                    "duration": 0.09366224999999417
                },
                {
                    "name": "B4",
                    "midi": 71,
                    "time": 67.62414450000003,
                    "velocity": 0.3858267716535433,
                    "duration": 0.09366224999999417
                },
                {
                    "name": "C5",
                    "midi": 72,
                    "time": 67.71780675000002,
                    "velocity": 0.3464566929133858,
                    "duration": 0.09366224999999417
                },
                {
                    "name": "D5",
                    "midi": 74,
                    "time": 67.81146900000002,
                    "velocity": 0.3858267716535433,
                    "duration": 0.09366224999999417
                },
                {
                    "name": "C5",
                    "midi": 72,
                    "time": 67.90513125000001,
                    "velocity": 0.3464566929133858,
                    "duration": 0.09366224999999417
                },
                {
                    "name": "B4",
                    "midi": 71,
                    "time": 67.9987935,
                    "velocity": 0.3858267716535433,
                    "duration": 0.09366224999999417
                },
                {
                    "name": "C5",
                    "midi": 72,
                    "time": 68.09245575,
                    "velocity": 0.3464566929133858,
                    "duration": 0.09366224999999417
                },
                {
                    "name": "D#5",
                    "midi": 75,
                    "time": 68.186118,
                    "velocity": 0.3858267716535433,
                    "duration": 0.09366224999999417
                },
                {
                    "name": "C5",
                    "midi": 72,
                    "time": 68.27978024999999,
                    "velocity": 0.3858267716535433,
                    "duration": 0.09366224999999417
                },
                {
                    "name": "A#4",
                    "midi": 70,
                    "time": 68.37344249999998,
                    "velocity": 0.4251968503937008,
                    "duration": 0.09366224999999417
                },
                {
                    "name": "C5",
                    "midi": 72,
                    "time": 68.46710474999998,
                    "velocity": 0.3858267716535433,
                    "duration": 0.09366224999999417
                },
                {
                    "name": "A4",
                    "midi": 69,
                    "time": 68.56076699999997,
                    "velocity": 0.3858267716535433,
                    "duration": 0.09366224999999417
                },
                {
                    "name": "D5",
                    "midi": 74,
                    "time": 68.65442924999996,
                    "velocity": 0.36220472440944884,
                    "duration": 0.09366224999999417
                },
                {
                    "name": "C#5",
                    "midi": 73,
                    "time": 68.74809149999996,
                    "velocity": 0.3858267716535433,
                    "duration": 0.09366224999999417
                },
                {
                    "name": "D5",
                    "midi": 74,
                    "time": 68.84175374999995,
                    "velocity": 0.3464566929133858,
                    "duration": 0.09366224999999417
                },
                {
                    "name": "E5",
                    "midi": 76,
                    "time": 68.93541599999995,
                    "velocity": 0.3858267716535433,
                    "duration": 0.09366224999999417
                },
                {
                    "name": "D5",
                    "midi": 74,
                    "time": 69.02907824999994,
                    "velocity": 0.3464566929133858,
                    "duration": 0.09366224999999417
                },
                {
                    "name": "C#5",
                    "midi": 73,
                    "time": 69.12274049999994,
                    "velocity": 0.4094488188976378,
                    "duration": 0.09366224999999417
                },
                {
                    "name": "D5",
                    "midi": 74,
                    "time": 69.21640274999993,
                    "velocity": 0.3464566929133858,
                    "duration": 0.09366224999999417
                },
                {
                    "name": "C6",
                    "midi": 84,
                    "time": 69.31006499999992,
                    "velocity": 0.4330708661417323,
                    "duration": 0.09366224999999417
                },
                {
                    "name": "D5",
                    "midi": 74,
                    "time": 69.40372724999992,
                    "velocity": 0.3858267716535433,
                    "duration": 0.09366224999999417
                },
                {
                    "name": "C6",
                    "midi": 84,
                    "time": 69.49738949999991,
                    "velocity": 0.44881889763779526,
                    "duration": 0.09366224999999417
                },
                {
                    "name": "D5",
                    "midi": 74,
                    "time": 69.5910517499999,
                    "velocity": 0.3858267716535433,
                    "duration": 0.09366224999999417
                },
                {
                    "name": "B5",
                    "midi": 83,
                    "time": 69.6847139999999,
                    "velocity": 0.4881889763779528,
                    "duration": 0.3746490000000051
                },
                {
                    "name": "A#5",
                    "midi": 82,
                    "time": 70.0593629999999,
                    "velocity": 0.47244094488188976,
                    "duration": 0.3746490000000051
                },
                {
                    "name": "A5",
                    "midi": 81,
                    "time": 70.43401199999991,
                    "velocity": 0.44881889763779526,
                    "duration": 0.3746490000000051
                },
                {
                    "name": "G5",
                    "midi": 79,
                    "time": 70.80866099999992,
                    "velocity": 0.47244094488188976,
                    "duration": 0.09366224999999417
                },
                {
                    "name": "D6",
                    "midi": 86,
                    "time": 70.90232324999991,
                    "velocity": 0.4094488188976378,
                    "duration": 0.09366224999999417
                },
                {
                    "name": "A#5",
                    "midi": 82,
                    "time": 70.9959854999999,
                    "velocity": 0.4094488188976378,
                    "duration": 0.09366224999999417
                },
                {
                    "name": "G5",
                    "midi": 79,
                    "time": 71.0896477499999,
                    "velocity": 0.4094488188976378,
                    "duration": 0.09366224999999417
                },
                {
                    "name": "F5",
                    "midi": 77,
                    "time": 71.18330999999989,
                    "velocity": 0.4881889763779528,
                    "duration": 0.09366224999999417
                },
                {
                    "name": "C6",
                    "midi": 84,
                    "time": 71.27697224999989,
                    "velocity": 0.4094488188976378,
                    "duration": 0.09366224999999417
                },
                {
                    "name": "A5",
                    "midi": 81,
                    "time": 71.37063449999988,
                    "velocity": 0.4094488188976378,
                    "duration": 0.09366224999999417
                },
                {
                    "name": "F5",
                    "midi": 77,
                    "time": 71.46429674999987,
                    "velocity": 0.4094488188976378,
                    "duration": 0.09366224999999417
                },
                {
                    "name": "E5",
                    "midi": 76,
                    "time": 71.55795899999987,
                    "velocity": 0.4881889763779528,
                    "duration": 0.09366224999999417
                },
                {
                    "name": "A#5",
                    "midi": 82,
                    "time": 71.65162124999986,
                    "velocity": 0.4094488188976378,
                    "duration": 0.09366224999999417
                },
                {
                    "name": "G5",
                    "midi": 79,
                    "time": 71.74528349999986,
                    "velocity": 0.4094488188976378,
                    "duration": 0.09366224999999417
                },
                {
                    "name": "E5",
                    "midi": 76,
                    "time": 71.83894574999985,
                    "velocity": 0.4094488188976378,
                    "duration": 0.09366224999999417
                },
                {
                    "name": "F5",
                    "midi": 77,
                    "time": 71.93260799999985,
                    "velocity": 0.4251968503937008,
                    "duration": 0.1030284749999879
                },
                {
                    "name": "A5",
                    "midi": 81,
                    "time": 72.02627024999984,
                    "velocity": 0.44881889763779526,
                    "duration": 0.1030284749999879
                },
                {
                    "name": "C6",
                    "midi": 84,
                    "time": 72.11993249999983,
                    "velocity": 0.48031496062992124,
                    "duration": 0.1030284749999879
                },
                {
                    "name": "A#5",
                    "midi": 82,
                    "time": 72.21359474999983,
                    "velocity": 0.47244094488188976,
                    "duration": 0.1030284749999879
                },
                {
                    "name": "A5",
                    "midi": 81,
                    "time": 72.30725699999982,
                    "velocity": 0.4566929133858268,
                    "duration": 0.1030284749999879
                },
                {
                    "name": "G5",
                    "midi": 79,
                    "time": 72.40091924999982,
                    "velocity": 0.4409448818897638,
                    "duration": 0.1030284749999879
                },
                {
                    "name": "F5",
                    "midi": 77,
                    "time": 72.49458149999981,
                    "velocity": 0.4251968503937008,
                    "duration": 0.1030284749999879
                },
                {
                    "name": "E5",
                    "midi": 76,
                    "time": 72.5882437499998,
                    "velocity": 0.4094488188976378,
                    "duration": 0.1030284749999879
                },
                {
                    "name": "D5",
                    "midi": 74,
                    "time": 72.6819059999998,
                    "velocity": 0.4330708661417323,
                    "duration": 0.1030284749999879
                },
                {
                    "name": "C5",
                    "midi": 72,
                    "time": 72.7755682499998,
                    "velocity": 0.4015748031496063,
                    "duration": 0.1030284749999879
                },
                {
                    "name": "A#4",
                    "midi": 70,
                    "time": 72.86923049999979,
                    "velocity": 0.3937007874015748,
                    "duration": 0.1030284749999879
                },
                {
                    "name": "A4",
                    "midi": 69,
                    "time": 72.96289274999978,
                    "velocity": 0.3937007874015748,
                    "duration": 0.09366224999999417
                },
                {
                    "name": "G4",
                    "midi": 67,
                    "time": 73.05655499999978,
                    "velocity": 0.3937007874015748,
                    "duration": 0.1030284749999879
                },
                {
                    "name": "A#4",
                    "midi": 70,
                    "time": 73.15021724999977,
                    "velocity": 0.41732283464566927,
                    "duration": 0.1030284749999879
                },
                {
                    "name": "D5",
                    "midi": 74,
                    "time": 73.24387949999976,
                    "velocity": 0.4409448818897638,
                    "duration": 0.1030284749999879
                },
                {
                    "name": "C5",
                    "midi": 72,
                    "time": 73.33754174999976,
                    "velocity": 0.4330708661417323,
                    "duration": 0.1030284749999879
                },
                {
                    "name": "A#4",
                    "midi": 70,
                    "time": 73.43120399999975,
                    "velocity": 0.4251968503937008,
                    "duration": 0.1030284749999879
                },
                {
                    "name": "A4",
                    "midi": 69,
                    "time": 73.52486624999975,
                    "velocity": 0.41732283464566927,
                    "duration": 0.1030284749999879
                },
                {
                    "name": "G4",
                    "midi": 67,
                    "time": 73.61852849999974,
                    "velocity": 0.4094488188976378,
                    "duration": 0.1030284749999879
                },
                {
                    "name": "F4",
                    "midi": 65,
                    "time": 73.71219074999973,
                    "velocity": 0.3937007874015748,
                    "duration": 0.1030284749999879
                },
                {
                    "name": "E4",
                    "midi": 64,
                    "time": 73.80585299999973,
                    "velocity": 0.3858267716535433,
                    "duration": 0.1030284749999879
                },
                {
                    "name": "D4",
                    "midi": 62,
                    "time": 73.89951524999972,
                    "velocity": 0.3937007874015748,
                    "duration": 0.1030284749999879
                },
                {
                    "name": "C4",
                    "midi": 60,
                    "time": 73.99317749999972,
                    "velocity": 0.41732283464566927,
                    "duration": 0.1030284749999879
                },
                {
                    "name": "B3",
                    "midi": 59,
                    "time": 74.08683974999971,
                    "velocity": 0.4409448818897638,
                    "duration": 0.1030284749999879
                },
                {
                    "name": "C4",
                    "midi": 60,
                    "time": 74.1805019999997,
                    "velocity": 0.4645669291338583,
                    "duration": 0.09366224999999417
                },
                {
                    "name": "C5",
                    "midi": 72,
                    "time": 74.3678264999997,
                    "velocity": 0.4645669291338583,
                    "duration": 0.09366224999999417
                },
                {
                    "name": "F5",
                    "midi": 77,
                    "time": 74.55515099999968,
                    "velocity": 0.48031496062992124,
                    "duration": 0.09366224999999417
                },
                {
                    "name": "A5",
                    "midi": 81,
                    "time": 74.74247549999967,
                    "velocity": 0.4881889763779528,
                    "duration": 0.09366224999999417
                },
                {
                    "name": "C6",
                    "midi": 84,
                    "time": 74.92979999999966,
                    "velocity": 0.5039370078740157,
                    "duration": 0.09366224999999417
                },
                {
                    "name": "F6",
                    "midi": 89,
                    "time": 75.11712449999965,
                    "velocity": 0.5118110236220472,
                    "duration": 0.09366224999999417
                },
                {
                    "name": "G5",
                    "midi": 79,
                    "time": 75.30444899999964,
                    "velocity": 0.29133858267716534,
                    "duration": 0.04683112499999709
                },
                {
                    "name": "A5",
                    "midi": 81,
                    "time": 75.35128012499963,
                    "velocity": 0.2440944881889764,
                    "duration": 0.04683112499999709
                },
                {
                    "name": "G5",
                    "midi": 79,
                    "time": 75.39811124999963,
                    "velocity": 0.29133858267716534,
                    "duration": 0.04683112499999709
                },
                {
                    "name": "A5",
                    "midi": 81,
                    "time": 75.44494237499963,
                    "velocity": 0.2440944881889764,
                    "duration": 0.04683112499999709
                },
                {
                    "name": "G5",
                    "midi": 79,
                    "time": 75.49177349999962,
                    "velocity": 0.29133858267716534,
                    "duration": 0.04683112499999709
                },
                {
                    "name": "A5",
                    "midi": 81,
                    "time": 75.53860462499962,
                    "velocity": 0.25196850393700787,
                    "duration": 0.04683112499999709
                },
                {
                    "name": "G5",
                    "midi": 79,
                    "time": 75.58543574999962,
                    "velocity": 0.29133858267716534,
                    "duration": 0.04683112499999709
                },
                {
                    "name": "A5",
                    "midi": 81,
                    "time": 75.63226687499962,
                    "velocity": 0.25984251968503935,
                    "duration": 0.04683112499999709
                },
                {
                    "name": "G5",
                    "midi": 79,
                    "time": 75.67909799999961,
                    "velocity": 0.29133858267716534,
                    "duration": 0.04683112499999709
                },
                {
                    "name": "A5",
                    "midi": 81,
                    "time": 75.72592912499961,
                    "velocity": 0.25196850393700787,
                    "duration": 0.04683112499999709
                },
                {
                    "name": "G5",
                    "midi": 79,
                    "time": 75.7727602499996,
                    "velocity": 0.29133858267716534,
                    "duration": 0.04683112499999709
                },
                {
                    "name": "A5",
                    "midi": 81,
                    "time": 75.8195913749996,
                    "velocity": 0.25196850393700787,
                    "duration": 0.04683112499999709
                },
                {
                    "name": "G5",
                    "midi": 79,
                    "time": 75.8664224999996,
                    "velocity": 0.29133858267716534,
                    "duration": 0.04683112499999709
                },
                {
                    "name": "A5",
                    "midi": 81,
                    "time": 75.9132536249996,
                    "velocity": 0.2440944881889764,
                    "duration": 0.04683112499999709
                },
                {
                    "name": "G5",
                    "midi": 79,
                    "time": 75.9600847499996,
                    "velocity": 0.29133858267716534,
                    "duration": 0.04683112499999709
                },
                {
                    "name": "A5",
                    "midi": 81,
                    "time": 76.00691587499959,
                    "velocity": 0.25984251968503935,
                    "duration": 0.04683112499999709
                },
                {
                    "name": "G5",
                    "midi": 79,
                    "time": 76.05374699999959,
                    "velocity": 0.29133858267716534,
                    "duration": 0.04683112499999709
                },
                {
                    "name": "A5",
                    "midi": 81,
                    "time": 76.10057812499959,
                    "velocity": 0.25196850393700787,
                    "duration": 0.04683112499999709
                },
                {
                    "name": "G5",
                    "midi": 79,
                    "time": 76.14740924999958,
                    "velocity": 0.29133858267716534,
                    "duration": 0.06244150000000559
                },
                {
                    "name": "A5",
                    "midi": 81,
                    "time": 76.20985074999959,
                    "velocity": 0.25196850393700787,
                    "duration": 0.06244150000000559
                },
                {
                    "name": "G5",
                    "midi": 79,
                    "time": 76.2722922499996,
                    "velocity": 0.29133858267716534,
                    "duration": 0.06244150000000559
                },
                {
                    "name": "F5",
                    "midi": 77,
                    "time": 76.3347337499996,
                    "velocity": 0.25984251968503935,
                    "duration": 0.04683112499999709
                },
                {
                    "name": "G5",
                    "midi": 79,
                    "time": 76.3815648749996,
                    "velocity": 0.25984251968503935,
                    "duration": 0.04683112499999709
                },
                {
                    "name": "F5",
                    "midi": 77,
                    "time": 76.4283959999996,
                    "velocity": 0.3858267716535433,
                    "duration": 0.3746490000000051
                },
                {
                    "name": "A#5",
                    "midi": 82,
                    "time": 77.5523429999996,
                    "velocity": 0.36220472440944884,
                    "duration": 0.3746490000000051
                },
                {
                    "name": "C6",
                    "midi": 84,
                    "time": 77.9269919999996,
                    "velocity": 0.3937007874015748,
                    "duration": 0.3746490000000051
                },
                {
                    "name": "D6",
                    "midi": 86,
                    "time": 78.3016409999996,
                    "velocity": 0.4015748031496063,
                    "duration": 0.3746490000000051
                },
                {
                    "name": "C6",
                    "midi": 84,
                    "time": 78.67628999999961,
                    "velocity": 0.4015748031496063,
                    "duration": 0.5619734999999935
                },
                {
                    "name": "D6",
                    "midi": 86,
                    "time": 79.2382634999996,
                    "velocity": 0.3779527559055118,
                    "duration": 0.1030284749999879
                },
                {
                    "name": "C6",
                    "midi": 84,
                    "time": 79.3319257499996,
                    "velocity": 0.33858267716535434,
                    "duration": 0.1030284749999879
                },
                {
                    "name": "A#5",
                    "midi": 82,
                    "time": 79.42558799999959,
                    "velocity": 0.3937007874015748,
                    "duration": 0.1030284749999879
                },
                {
                    "name": "A5",
                    "midi": 81,
                    "time": 79.51925024999959,
                    "velocity": 0.3779527559055118,
                    "duration": 0.1030284749999879
                },
                {
                    "name": "G5",
                    "midi": 79,
                    "time": 79.61291249999958,
                    "velocity": 0.3700787401574803,
                    "duration": 0.1030284749999879
                },
                {
                    "name": "F5",
                    "midi": 77,
                    "time": 79.70657474999958,
                    "velocity": 0.3543307086614173,
                    "duration": 0.09366224999999417
                },
                {
                    "name": "A5",
                    "midi": 81,
                    "time": 79.80023699999957,
                    "velocity": 0.3779527559055118,
                    "duration": 0.5619734999999935
                },
                {
                    "name": "A#5",
                    "midi": 82,
                    "time": 80.36221049999956,
                    "velocity": 0.31496062992125984,
                    "duration": 0.18732450000000256
                },
                {
                    "name": "G5",
                    "midi": 79,
                    "time": 80.54953499999957,
                    "velocity": 0.3464566929133858,
                    "duration": 0.3746490000000051
                },
                {
                    "name": "F5",
                    "midi": 77,
                    "time": 80.92418399999957,
                    "velocity": 0.36220472440944884,
                    "duration": 0.3746490000000051
                },
                {
                    "name": "A#4",
                    "midi": 70,
                    "time": 82.04813099999957,
                    "velocity": 0.4094488188976378,
                    "duration": 0.18732450000000256
                },
                {
                    "name": "A#5",
                    "midi": 82,
                    "time": 82.23545549999957,
                    "velocity": 0.3700787401574803,
                    "duration": 0.18732450000000256
                },
                {
                    "name": "C5",
                    "midi": 72,
                    "time": 82.42277999999958,
                    "velocity": 0.4251968503937008,
                    "duration": 0.18732450000000256
                },
                {
                    "name": "C6",
                    "midi": 84,
                    "time": 82.61010449999958,
                    "velocity": 0.3700787401574803,
                    "duration": 0.18732450000000256
                },
                {
                    "name": "D5",
                    "midi": 74,
                    "time": 82.79742899999958,
                    "velocity": 0.4566929133858268,
                    "duration": 0.18732450000000256
                },
                {
                    "name": "D6",
                    "midi": 86,
                    "time": 82.98475349999958,
                    "velocity": 0.4094488188976378,
                    "duration": 0.18732450000000256
                },
                {
                    "name": "C6",
                    "midi": 84,
                    "time": 83.17207799999959,
                    "velocity": 0.48031496062992124,
                    "duration": 0.18732450000000256
                },
                {
                    "name": "D6",
                    "midi": 86,
                    "time": 83.35940249999959,
                    "velocity": 0.4251968503937008,
                    "duration": 0.1030284749999879
                },
                {
                    "name": "E6",
                    "midi": 88,
                    "time": 83.45306474999958,
                    "velocity": 0.4566929133858268,
                    "duration": 0.1030284749999879
                },
                {
                    "name": "F6",
                    "midi": 89,
                    "time": 83.54672699999958,
                    "velocity": 0.48031496062992124,
                    "duration": 0.1030284749999879
                },
                {
                    "name": "E6",
                    "midi": 88,
                    "time": 83.64038924999957,
                    "velocity": 0.48031496062992124,
                    "duration": 0.1030284749999879
                },
                {
                    "name": "D6",
                    "midi": 86,
                    "time": 83.73405149999957,
                    "velocity": 0.47244094488188976,
                    "duration": 0.1030284749999879
                },
                {
                    "name": "C6",
                    "midi": 84,
                    "time": 83.82771374999956,
                    "velocity": 0.4566929133858268,
                    "duration": 0.1030284749999879
                },
                {
                    "name": "A#5",
                    "midi": 82,
                    "time": 83.92137599999955,
                    "velocity": 0.44881889763779526,
                    "duration": 0.1030284749999879
                },
                {
                    "name": "A5",
                    "midi": 81,
                    "time": 84.01503824999955,
                    "velocity": 0.4330708661417323,
                    "duration": 0.1030284749999879
                },
                {
                    "name": "G5",
                    "midi": 79,
                    "time": 84.10870049999954,
                    "velocity": 0.4251968503937008,
                    "duration": 0.1030284749999879
                },
                {
                    "name": "F5",
                    "midi": 77,
                    "time": 84.20236274999954,
                    "velocity": 0.4094488188976378,
                    "duration": 0.09366224999999417
                },
                {
                    "name": "A5",
                    "midi": 81,
                    "time": 84.29602499999953,
                    "velocity": 0.4881889763779528,
                    "duration": 0.5619734999999935
                },
                {
                    "name": "A#5",
                    "midi": 82,
                    "time": 84.85799849999952,
                    "velocity": 0.4409448818897638,
                    "duration": 0.18732450000000256
                },
                {
                    "name": "G5",
                    "midi": 79,
                    "time": 85.04532299999953,
                    "velocity": 0.4881889763779528,
                    "duration": 0.3746490000000051
                },
                {
                    "name": "F5",
                    "midi": 77,
                    "time": 85.41997199999953,
                    "velocity": 0.5275590551181102,
                    "duration": 0.3746490000000051
                },
                {
                    "name": "C6",
                    "midi": 84,
                    "time": 85.88828324999953,
                    "velocity": 0.47244094488188976,
                    "duration": 0.09366224999999417
                },
                {
                    "name": "D6",
                    "midi": 86,
                    "time": 85.98194549999953,
                    "velocity": 0.5118110236220472,
                    "duration": 0.1030284749999879
                },
                {
                    "name": "C6",
                    "midi": 84,
                    "time": 86.07560774999952,
                    "velocity": 0.47244094488188976,
                    "duration": 0.1030284749999879
                },
                {
                    "name": "A#5",
                    "midi": 82,
                    "time": 86.16926999999951,
                    "velocity": 0.5039370078740157,
                    "duration": 0.1030284749999879
                },
                {
                    "name": "A5",
                    "midi": 81,
                    "time": 86.26293224999951,
                    "velocity": 0.4881889763779528,
                    "duration": 0.1030284749999879
                },
                {
                    "name": "A#5",
                    "midi": 82,
                    "time": 86.3565944999995,
                    "velocity": 0.47244094488188976,
                    "duration": 0.1030284749999879
                },
                {
                    "name": "G5",
                    "midi": 79,
                    "time": 86.4502567499995,
                    "velocity": 0.4566929133858268,
                    "duration": 0.1030284749999879
                },
                {
                    "name": "F5",
                    "midi": 77,
                    "time": 86.54391899999949,
                    "velocity": 0.5354330708661418,
                    "duration": 0.3746489999999909
                },
                {
                    "name": "C5",
                    "midi": 72,
                    "time": 87.01223024999948,
                    "velocity": 0.47244094488188976,
                    "duration": 0.1030284749999879
                },
                {
                    "name": "D5",
                    "midi": 74,
                    "time": 87.10589249999947,
                    "velocity": 0.5118110236220472,
                    "duration": 0.1030284749999879
                },
                {
                    "name": "C5",
                    "midi": 72,
                    "time": 87.19955474999946,
                    "velocity": 0.47244094488188976,
                    "duration": 0.1030284749999879
                },
                {
                    "name": "A#4",
                    "midi": 70,
                    "time": 87.29321699999946,
                    "velocity": 0.5039370078740157,
                    "duration": 0.1030284749999879
                },
                {
                    "name": "A4",
                    "midi": 69,
                    "time": 87.38687924999945,
                    "velocity": 0.4881889763779528,
                    "duration": 0.1030284749999879
                },
                {
                    "name": "A#4",
                    "midi": 70,
                    "time": 87.48054149999945,
                    "velocity": 0.47244094488188976,
                    "duration": 0.1030284749999879
                },
                {
                    "name": "G4",
                    "midi": 67,
                    "time": 87.57420374999944,
                    "velocity": 0.4566929133858268,
                    "duration": 0.1030284749999879
                },
                {
                    "name": "F4",
                    "midi": 65,
                    "time": 87.66786599999944,
                    "velocity": 0.5590551181102362,
                    "duration": 0.09366224999999417
                },
                {
                    "name": "A4",
                    "midi": 69,
                    "time": 88.04251499999943,
                    "velocity": 0.4645669291338583,
                    "duration": 0.3746490000000051
                },
                {
                    "name": "C5",
                    "midi": 72,
                    "time": 88.04251499999943,
                    "velocity": 0.4645669291338583,
                    "duration": 0.3746490000000051
                },
                {
                    "name": "F5",
                    "midi": 77,
                    "time": 88.04251499999943,
                    "velocity": 0.6062992125984252,
                    "duration": 0.3746490000000051
                },
                {
                    "name": "A#4",
                    "midi": 70,
                    "time": 88.79181299999944,
                    "velocity": 0.3937007874015748,
                    "duration": 0.749297999999996
                },
                {
                    "name": "F4",
                    "midi": 65,
                    "time": 89.54111099999943,
                    "velocity": 0.3543307086614173,
                    "duration": 0.3746490000000051
                },
                {
                    "name": "D4",
                    "midi": 62,
                    "time": 89.91575999999944,
                    "velocity": 0.3937007874015748,
                    "duration": 0.749297999999996
                },
                {
                    "name": "F4",
                    "midi": 65,
                    "time": 90.66505799999943,
                    "velocity": 0.3779527559055118,
                    "duration": 0.3746490000000051
                },
                {
                    "name": "A#4",
                    "midi": 70,
                    "time": 91.03970699999944,
                    "velocity": 0.4094488188976378,
                    "duration": 0.749297999999996
                },
                {
                    "name": "D5",
                    "midi": 74,
                    "time": 91.78900499999943,
                    "velocity": 0.4251968503937008,
                    "duration": 0.3746490000000051
                },
                {
                    "name": "F5",
                    "midi": 77,
                    "time": 92.16365399999944,
                    "velocity": 0.44881889763779526,
                    "duration": 0.749297999999996
                },
                {
                    "name": "A#5",
                    "midi": 82,
                    "time": 92.91295199999944,
                    "velocity": 0.4566929133858268,
                    "duration": 0.18732450000000256
                },
                {
                    "name": "D5",
                    "midi": 74,
                    "time": 93.10027649999944,
                    "velocity": 0.4015748031496063,
                    "duration": 0.18732450000000256
                },
                {
                    "name": "F5",
                    "midi": 77,
                    "time": 93.28760099999944,
                    "velocity": 0.4409448818897638,
                    "duration": 0.1966907249999963
                },
                {
                    "name": "D#5",
                    "midi": 75,
                    "time": 93.47492549999944,
                    "velocity": 0.4094488188976378,
                    "duration": 0.19669072499998208
                },
                {
                    "name": "D5",
                    "midi": 74,
                    "time": 93.66224999999943,
                    "velocity": 0.4015748031496063,
                    "duration": 0.19669072499998208
                },
                {
                    "name": "C5",
                    "midi": 72,
                    "time": 93.84957449999942,
                    "velocity": 0.3858267716535433,
                    "duration": 0.19669072499998208
                },
                {
                    "name": "A#4",
                    "midi": 70,
                    "time": 94.03689899999941,
                    "velocity": 0.3779527559055118,
                    "duration": 0.19669072499998208
                },
                {
                    "name": "A4",
                    "midi": 69,
                    "time": 94.2242234999994,
                    "velocity": 0.3700787401574803,
                    "duration": 0.18732449999998835
                },
                {
                    "name": "G4",
                    "midi": 67,
                    "time": 94.41154799999939,
                    "velocity": 0.3937007874015748,
                    "duration": 0.1966907249999963
                },
                {
                    "name": "F4",
                    "midi": 65,
                    "time": 94.59887249999939,
                    "velocity": 0.3464566929133858,
                    "duration": 0.19669072499998208
                },
                {
                    "name": "E4",
                    "midi": 64,
                    "time": 94.78619699999938,
                    "velocity": 0.3464566929133858,
                    "duration": 0.19669072499998208
                },
                {
                    "name": "F4",
                    "midi": 65,
                    "time": 94.97352149999936,
                    "velocity": 0.3543307086614173,
                    "duration": 0.19669072499998208
                },
                {
                    "name": "G4",
                    "midi": 67,
                    "time": 95.16084599999935,
                    "velocity": 0.3700787401574803,
                    "duration": 0.19669072499998208
                },
                {
                    "name": "A4",
                    "midi": 69,
                    "time": 95.34817049999934,
                    "velocity": 0.3937007874015748,
                    "duration": 0.18732449999998835
                },
                {
                    "name": "A#4",
                    "midi": 70,
                    "time": 95.53549499999933,
                    "velocity": 0.3937007874015748,
                    "duration": 0.04683112499999709
                },
                {
                    "name": "C5",
                    "midi": 72,
                    "time": 95.67598837499932,
                    "velocity": 0.3543307086614173,
                    "duration": 0.04683112499999709
                },
                {
                    "name": "A#4",
                    "midi": 70,
                    "time": 95.72281949999932,
                    "velocity": 0.3858267716535433,
                    "duration": 0.09366224999999417
                },
                {
                    "name": "A4",
                    "midi": 69,
                    "time": 95.81648174999931,
                    "velocity": 0.36220472440944884,
                    "duration": 0.09366224999999417
                },
                {
                    "name": "A#4",
                    "midi": 70,
                    "time": 95.9101439999993,
                    "velocity": 0.3937007874015748,
                    "duration": 0.04683112499999709
                },
                {
                    "name": "C5",
                    "midi": 72,
                    "time": 96.09746849999931,
                    "velocity": 0.3700787401574803,
                    "duration": 0.04683112499999709
                },
                {
                    "name": "D5",
                    "midi": 74,
                    "time": 96.28479299999931,
                    "velocity": 0.3858267716535433,
                    "duration": 0.04683112499999709
                },
                {
                    "name": "D#5",
                    "midi": 75,
                    "time": 96.47211749999931,
                    "velocity": 0.4015748031496063,
                    "duration": 0.04683112499999709
                },
                {
                    "name": "E5",
                    "midi": 76,
                    "time": 96.65944199999932,
                    "velocity": 0.41732283464566927,
                    "duration": 0.1966907249999963
                },
                {
                    "name": "F5",
                    "midi": 77,
                    "time": 96.84676649999932,
                    "velocity": 0.3937007874015748,
                    "duration": 0.19669072499998208
                },
                {
                    "name": "G5",
                    "midi": 79,
                    "time": 97.03409099999931,
                    "velocity": 0.4330708661417323,
                    "duration": 0.19669072499998208
                },
                {
                    "name": "F5",
                    "midi": 77,
                    "time": 97.2214154999993,
                    "velocity": 0.3937007874015748,
                    "duration": 0.18732449999998835
                },
                {
                    "name": "A#5",
                    "midi": 82,
                    "time": 97.40873999999928,
                    "velocity": 0.4645669291338583,
                    "duration": 0.18732450000000256
                },
                {
                    "name": "D5",
                    "midi": 74,
                    "time": 97.59606449999929,
                    "velocity": 0.3937007874015748,
                    "duration": 0.18732450000000256
                },
                {
                    "name": "F5",
                    "midi": 77,
                    "time": 97.78338899999929,
                    "velocity": 0.44881889763779526,
                    "duration": 0.1966907249999963
                },
                {
                    "name": "D#5",
                    "midi": 75,
                    "time": 97.97071349999929,
                    "velocity": 0.4330708661417323,
                    "duration": 0.19669072499998208
                },
                {
                    "name": "D5",
                    "midi": 74,
                    "time": 98.15803799999928,
                    "velocity": 0.41732283464566927,
                    "duration": 0.19669072499998208
                },
                {
                    "name": "C5",
                    "midi": 72,
                    "time": 98.34536249999927,
                    "velocity": 0.4015748031496063,
                    "duration": 0.19669072499998208
                },
                {
                    "name": "A#4",
                    "midi": 70,
                    "time": 98.53268699999926,
                    "velocity": 0.3858267716535433,
                    "duration": 0.19669072499998208
                },
                {
                    "name": "A4",
                    "midi": 69,
                    "time": 98.72001149999925,
                    "velocity": 0.3700787401574803,
                    "duration": 0.18732449999998835
                },
                {
                    "name": "G4",
                    "midi": 67,
                    "time": 98.90733599999923,
                    "velocity": 0.3937007874015748,
                    "duration": 0.1966907249999963
                },
                {
                    "name": "F4",
                    "midi": 65,
                    "time": 99.09466049999924,
                    "velocity": 0.33858267716535434,
                    "duration": 0.19669072499998208
                },
                {
                    "name": "E4",
                    "midi": 64,
                    "time": 99.28198499999922,
                    "velocity": 0.3937007874015748,
                    "duration": 0.19669072499998208
                },
                {
                    "name": "F4",
                    "midi": 65,
                    "time": 99.46930949999921,
                    "velocity": 0.33858267716535434,
                    "duration": 0.19669072499998208
                },
                {
                    "name": "G4",
                    "midi": 67,
                    "time": 99.6566339999992,
                    "velocity": 0.3937007874015748,
                    "duration": 0.19669072499998208
                },
                {
                    "name": "A4",
                    "midi": 69,
                    "time": 99.84395849999919,
                    "velocity": 0.3543307086614173,
                    "duration": 0.18732449999998835
                },
                {
                    "name": "A#4",
                    "midi": 70,
                    "time": 100.03128299999918,
                    "velocity": 0.3937007874015748,
                    "duration": 0.09366224999999417
                },
                {
                    "name": "A#4",
                    "midi": 70,
                    "time": 100.40593199999917,
                    "velocity": 0.3779527559055118,
                    "duration": 0.09366224999999417
                },
                {
                    "name": "D5",
                    "midi": 74,
                    "time": 100.78058099999916,
                    "velocity": 0.3779527559055118,
                    "duration": 0.09366224999999417
                },
                {
                    "name": "A#4",
                    "midi": 70,
                    "time": 101.15522999999915,
                    "velocity": 0.3937007874015748,
                    "duration": 0.3746490000000051
                },
                {
                    "name": "A#4",
                    "midi": 70,
                    "time": 101.81086574999915,
                    "velocity": 0.3464566929133858,
                    "duration": 0.04683112499999709
                },
                {
                    "name": "C5",
                    "midi": 72,
                    "time": 101.90452799999915,
                    "velocity": 0.3937007874015748,
                    "duration": 0.1030284749999879
                },
                {
                    "name": "A#4",
                    "midi": 70,
                    "time": 101.99819024999914,
                    "velocity": 0.33858267716535434,
                    "duration": 0.1030284749999879
                },
                {
                    "name": "A4",
                    "midi": 69,
                    "time": 102.09185249999913,
                    "velocity": 0.3543307086614173,
                    "duration": 0.1030284749999879
                },
                {
                    "name": "A#4",
                    "midi": 70,
                    "time": 102.18551474999913,
                    "velocity": 0.33070866141732286,
                    "duration": 0.1030284749999879
                },
                {
                    "name": "G5",
                    "midi": 79,
                    "time": 102.27917699999912,
                    "velocity": 0.4409448818897638,
                    "duration": 0.3746489999999909
                },
                {
                    "name": "A#4",
                    "midi": 70,
                    "time": 102.93481274999911,
                    "velocity": 0.3464566929133858,
                    "duration": 0.04683112499999709
                },
                {
                    "name": "C5",
                    "midi": 72,
                    "time": 103.0284749999991,
                    "velocity": 0.3937007874015748,
                    "duration": 0.1030284749999879
                },
                {
                    "name": "A#4",
                    "midi": 70,
                    "time": 103.1221372499991,
                    "velocity": 0.33858267716535434,
                    "duration": 0.1030284749999879
                },
                {
                    "name": "A4",
                    "midi": 69,
                    "time": 103.2157994999991,
                    "velocity": 0.3543307086614173,
                    "duration": 0.1030284749999879
                },
                {
                    "name": "A#4",
                    "midi": 70,
                    "time": 103.30946174999909,
                    "velocity": 0.33070866141732286,
                    "duration": 0.1030284749999879
                },
                {
                    "name": "F5",
                    "midi": 77,
                    "time": 103.40312399999908,
                    "velocity": 0.4330708661417323,
                    "duration": 0.3746489999999909
                },
                {
                    "name": "A#4",
                    "midi": 70,
                    "time": 104.05875974999907,
                    "velocity": 0.3464566929133858,
                    "duration": 0.04683112499999709
                },
                {
                    "name": "C5",
                    "midi": 72,
                    "time": 104.15242199999906,
                    "velocity": 0.3937007874015748,
                    "duration": 0.1030284749999879
                },
                {
                    "name": "A#4",
                    "midi": 70,
                    "time": 104.24608424999906,
                    "velocity": 0.33858267716535434,
                    "duration": 0.1030284749999879
                },
                {
                    "name": "A4",
                    "midi": 69,
                    "time": 104.33974649999905,
                    "velocity": 0.3543307086614173,
                    "duration": 0.1030284749999879
                },
                {
                    "name": "A#4",
                    "midi": 70,
                    "time": 104.43340874999905,
                    "velocity": 0.33070866141732286,
                    "duration": 0.1030284749999879
                },
                {
                    "name": "C5",
                    "midi": 72,
                    "time": 104.52707099999904,
                    "velocity": 0.4094488188976378,
                    "duration": 0.3746489999999909
                },
                {
                    "name": "F5",
                    "midi": 77,
                    "time": 104.90171999999903,
                    "velocity": 0.3858267716535433,
                    "duration": 0.3746490000000051
                },
                {
                    "name": "D#5",
                    "midi": 75,
                    "time": 105.27636899999904,
                    "velocity": 0.3779527559055118,
                    "duration": 0.3746490000000051
                },
                {
                    "name": "C#5",
                    "midi": 73,
                    "time": 105.65101799999904,
                    "velocity": 0.4330708661417323,
                    "duration": 0.3746490000000051
                },
                {
                    "name": "D5",
                    "midi": 74,
                    "time": 106.02566699999905,
                    "velocity": 0.3858267716535433,
                    "duration": 0.18732450000000256
                },
                {
                    "name": "A#4",
                    "midi": 70,
                    "time": 106.30665374999904,
                    "velocity": 0.3464566929133858,
                    "duration": 0.04683112499999709
                },
                {
                    "name": "C5",
                    "midi": 72,
                    "time": 106.40031599999904,
                    "velocity": 0.3937007874015748,
                    "duration": 0.1030284749999879
                },
                {
                    "name": "A#4",
                    "midi": 70,
                    "time": 106.49397824999903,
                    "velocity": 0.33858267716535434,
                    "duration": 0.1030284749999879
                },
                {
                    "name": "A4",
                    "midi": 69,
                    "time": 106.58764049999903,
                    "velocity": 0.3543307086614173,
                    "duration": 0.1030284749999879
                },
                {
                    "name": "A#4",
                    "midi": 70,
                    "time": 106.68130274999902,
                    "velocity": 0.33070866141732286,
                    "duration": 0.1030284749999879
                },
                {
                    "name": "G5",
                    "midi": 79,
                    "time": 106.77496499999901,
                    "velocity": 0.4409448818897638,
                    "duration": 0.3746489999999909
                },
                {
                    "name": "A#4",
                    "midi": 70,
                    "time": 107.430600749999,
                    "velocity": 0.3464566929133858,
                    "duration": 0.04683112499999709
                },
                {
                    "name": "C5",
                    "midi": 72,
                    "time": 107.524262999999,
                    "velocity": 0.3937007874015748,
                    "duration": 0.1030284749999879
                },
                {
                    "name": "A#4",
                    "midi": 70,
                    "time": 107.61792524999899,
                    "velocity": 0.33858267716535434,
                    "duration": 0.1030284749999879
                },
                {
                    "name": "A4",
                    "midi": 69,
                    "time": 107.71158749999898,
                    "velocity": 0.3543307086614173,
                    "duration": 0.1030284749999879
                },
                {
                    "name": "A#4",
                    "midi": 70,
                    "time": 107.80524974999898,
                    "velocity": 0.33070866141732286,
                    "duration": 0.1030284749999879
                },
                {
                    "name": "F5",
                    "midi": 77,
                    "time": 107.89891199999897,
                    "velocity": 0.4330708661417323,
                    "duration": 0.3746489999999909
                },
                {
                    "name": "A#4",
                    "midi": 70,
                    "time": 108.55454774999896,
                    "velocity": 0.3464566929133858,
                    "duration": 0.04683112499999709
                },
                {
                    "name": "C5",
                    "midi": 72,
                    "time": 108.64820999999895,
                    "velocity": 0.3937007874015748,
                    "duration": 0.1030284749999879
                },
                {
                    "name": "A#4",
                    "midi": 70,
                    "time": 108.74187224999895,
                    "velocity": 0.33858267716535434,
                    "duration": 0.1030284749999879
                },
                {
                    "name": "A4",
                    "midi": 69,
                    "time": 108.83553449999894,
                    "velocity": 0.3543307086614173,
                    "duration": 0.1030284749999879
                },
                {
                    "name": "A#4",
                    "midi": 70,
                    "time": 108.92919674999894,
                    "velocity": 0.33070866141732286,
                    "duration": 0.1030284749999879
                },
                {
                    "name": "C5",
                    "midi": 72,
                    "time": 109.02285899999893,
                    "velocity": 0.4094488188976378,
                    "duration": 0.3746489999999909
                },
                {
                    "name": "D#5",
                    "midi": 75,
                    "time": 109.39750799999892,
                    "velocity": 0.3858267716535433,
                    "duration": 0.3746490000000051
                },
                {
                    "name": "A4",
                    "midi": 69,
                    "time": 109.77215699999893,
                    "velocity": 0.3779527559055118,
                    "duration": 0.3746490000000051
                },
                {
                    "name": "A#4",
                    "midi": 70,
                    "time": 110.14680599999893,
                    "velocity": 0.4330708661417323,
                    "duration": 0.3746490000000051
                },
                {
                    "name": "D5",
                    "midi": 74,
                    "time": 111.27075299999893,
                    "velocity": 0.5039370078740157,
                    "duration": 0.09366224999999417
                },
                {
                    "name": "A#4",
                    "midi": 70,
                    "time": 111.27075299999893,
                    "velocity": 0.5039370078740157,
                    "duration": 0.09366224999999417
                },
                {
                    "name": "G5",
                    "midi": 79,
                    "time": 111.27075299999893,
                    "velocity": 0.6062992125984252,
                    "duration": 0.09366224999999417
                },
                {
                    "name": "G4",
                    "midi": 67,
                    "time": 111.64540199999892,
                    "velocity": 0.5039370078740157,
                    "duration": 0.09366224999999417
                },
                {
                    "name": "A4",
                    "midi": 69,
                    "time": 112.39469999999892,
                    "velocity": 0.49606299212598426,
                    "duration": 0.09366224999999417
                },
                {
                    "name": "F#4",
                    "midi": 66,
                    "time": 112.39469999999892,
                    "velocity": 0.49606299212598426,
                    "duration": 0.09366224999999417
                },
                {
                    "name": "D5",
                    "midi": 74,
                    "time": 112.39469999999892,
                    "velocity": 0.5905511811023622,
                    "duration": 0.09366224999999417
                },
                {
                    "name": "D4",
                    "midi": 62,
                    "time": 112.76934899999891,
                    "velocity": 0.5275590551181102,
                    "duration": 0.09366224999999417
                },
                {
                    "name": "D#4",
                    "midi": 63,
                    "time": 113.51864699999891,
                    "velocity": 0.33858267716535434,
                    "duration": 0.749297999999996
                },
                {
                    "name": "F4",
                    "midi": 65,
                    "time": 114.2679449999989,
                    "velocity": 0.28346456692913385,
                    "duration": 0.1030284749999879
                },
                {
                    "name": "D#4",
                    "midi": 63,
                    "time": 114.3616072499989,
                    "velocity": 0.28346456692913385,
                    "duration": 0.1030284749999879
                },
                {
                    "name": "D4",
                    "midi": 62,
                    "time": 114.45526949999889,
                    "velocity": 0.28346456692913385,
                    "duration": 0.1030284749999879
                },
                {
                    "name": "D#4",
                    "midi": 63,
                    "time": 114.54893174999889,
                    "velocity": 0.28346456692913385,
                    "duration": 0.09366224999999417
                },
                {
                    "name": "C5",
                    "midi": 72,
                    "time": 114.64259399999888,
                    "velocity": 0.33070866141732286,
                    "duration": 0.18732450000000256
                },
                {
                    "name": "A#4",
                    "midi": 70,
                    "time": 114.82991849999888,
                    "velocity": 0.29133858267716534,
                    "duration": 0.18732450000000256
                },
                {
                    "name": "A#4",
                    "midi": 70,
                    "time": 115.01724299999889,
                    "velocity": 0.33858267716535434,
                    "duration": 0.3746490000000051
                },
                {
                    "name": "A#4",
                    "midi": 70,
                    "time": 115.39189199999889,
                    "velocity": 0.2992125984251969,
                    "duration": 0.3746490000000051
                },
                {
                    "name": "A#4",
                    "midi": 70,
                    "time": 115.7665409999989,
                    "velocity": 0.30708661417322836,
                    "duration": 0.1966907249999963
                },
                {
                    "name": "D#5",
                    "midi": 75,
                    "time": 115.9538654999989,
                    "velocity": 0.3543307086614173,
                    "duration": 0.19669072499998208
                },
                {
                    "name": "D5",
                    "midi": 74,
                    "time": 116.14118999999889,
                    "velocity": 0.3464566929133858,
                    "duration": 0.19669072499998208
                },
                {
                    "name": "C#5",
                    "midi": 73,
                    "time": 116.32851449999887,
                    "velocity": 0.33070866141732286,
                    "duration": 0.19669072499998208
                },
                {
                    "name": "C5",
                    "midi": 72,
                    "time": 116.51583899999886,
                    "velocity": 0.31496062992125984,
                    "duration": 0.19669072499998208
                },
                {
                    "name": "B4",
                    "midi": 71,
                    "time": 116.70316349999885,
                    "velocity": 0.2992125984251969,
                    "duration": 0.19669072499998208
                },
                {
                    "name": "A#4",
                    "midi": 70,
                    "time": 116.89048799999884,
                    "velocity": 0.3228346456692913,
                    "duration": 0.3746489999999909
                },
                {
                    "name": "D#4",
                    "midi": 63,
                    "time": 118.01443499999883,
                    "velocity": 0.3543307086614173,
                    "duration": 0.749297999999996
                },
                {
                    "name": "F4",
                    "midi": 65,
                    "time": 118.76373299999882,
                    "velocity": 0.33070866141732286,
                    "duration": 0.1030284749999879
                },
                {
                    "name": "D#4",
                    "midi": 63,
                    "time": 118.85739524999882,
                    "velocity": 0.30708661417322836,
                    "duration": 0.1030284749999879
                },
                {
                    "name": "D4",
                    "midi": 62,
                    "time": 118.95105749999881,
                    "velocity": 0.33070866141732286,
                    "duration": 0.1030284749999879
                },
                {
                    "name": "D#4",
                    "midi": 63,
                    "time": 119.0447197499988,
                    "velocity": 0.31496062992125984,
                    "duration": 0.09366224999999417
                },
                {
                    "name": "C5",
                    "midi": 72,
                    "time": 119.1383819999988,
                    "velocity": 0.4251968503937008,
                    "duration": 0.1966907249999963
                },
                {
                    "name": "B4",
                    "midi": 71,
                    "time": 119.3257064999988,
                    "velocity": 0.3779527559055118,
                    "duration": 0.18732449999998835
                },
                {
                    "name": "B4",
                    "midi": 71,
                    "time": 119.51303099999879,
                    "velocity": 0.41732283464566927,
                    "duration": 0.3746490000000051
                },
                {
                    "name": "B4",
                    "midi": 71,
                    "time": 119.8876799999988,
                    "velocity": 0.3700787401574803,
                    "duration": 0.3746490000000051
                },
                {
                    "name": "C5",
                    "midi": 72,
                    "time": 120.2623289999988,
                    "velocity": 0.3937007874015748,
                    "duration": 0.1966907249999963
                },
                {
                    "name": "G5",
                    "midi": 79,
                    "time": 120.4496534999988,
                    "velocity": 0.4566929133858268,
                    "duration": 0.19669072499998208
                },
                {
                    "name": "D#5",
                    "midi": 75,
                    "time": 120.63697799999879,
                    "velocity": 0.4409448818897638,
                    "duration": 0.19669072499998208
                },
                {
                    "name": "D5",
                    "midi": 74,
                    "time": 120.82430249999878,
                    "velocity": 0.4251968503937008,
                    "duration": 0.19669072499998208
                },
                {
                    "name": "C5",
                    "midi": 72,
                    "time": 121.01162699999877,
                    "velocity": 0.4015748031496063,
                    "duration": 0.19669072499998208
                },
                {
                    "name": "A#4",
                    "midi": 70,
                    "time": 121.19895149999876,
                    "velocity": 0.3858267716535433,
                    "duration": 0.19669072499998208
                },
                {
                    "name": "A4",
                    "midi": 69,
                    "time": 121.38627599999874,
                    "velocity": 0.3937007874015748,
                    "duration": 0.3746489999999909
                },
                {
                    "name": "A#4",
                    "midi": 70,
                    "time": 122.51022299999873,
                    "velocity": 0.4645669291338583,
                    "duration": 0.1966907249999963
                },
                {
                    "name": "D6",
                    "midi": 86,
                    "time": 122.69754749999873,
                    "velocity": 0.4881889763779528,
                    "duration": 0.19669072499998208
                },
                {
                    "name": "A#5",
                    "midi": 82,
                    "time": 122.88487199999872,
                    "velocity": 0.48031496062992124,
                    "duration": 0.19669072499998208
                },
                {
                    "name": "A5",
                    "midi": 81,
                    "time": 123.07219649999871,
                    "velocity": 0.47244094488188976,
                    "duration": 0.19669072499998208
                },
                {
                    "name": "G5",
                    "midi": 79,
                    "time": 123.2595209999987,
                    "velocity": 0.4566929133858268,
                    "duration": 0.19669072499998208
                },
                {
                    "name": "F5",
                    "midi": 77,
                    "time": 123.44684549999869,
                    "velocity": 0.44881889763779526,
                    "duration": 0.19669072499998208
                },
                {
                    "name": "E5",
                    "midi": 76,
                    "time": 123.63416999999868,
                    "velocity": 0.4881889763779528,
                    "duration": 0.3746489999999909
                },
                {
                    "name": "F5",
                    "midi": 77,
                    "time": 124.75811699999866,
                    "velocity": 0.4094488188976378,
                    "duration": 0.1966907249999963
                },
                {
                    "name": "A5",
                    "midi": 81,
                    "time": 124.94544149999867,
                    "velocity": 0.4566929133858268,
                    "duration": 0.19669072499998208
                },
                {
                    "name": "F5",
                    "midi": 77,
                    "time": 125.13276599999865,
                    "velocity": 0.4409448818897638,
                    "duration": 0.19669072499998208
                },
                {
                    "name": "E5",
                    "midi": 76,
                    "time": 125.32009049999864,
                    "velocity": 0.4330708661417323,
                    "duration": 0.19669072499998208
                },
                {
                    "name": "D5",
                    "midi": 74,
                    "time": 125.50741499999863,
                    "velocity": 0.41732283464566927,
                    "duration": 0.19669072499998208
                },
                {
                    "name": "C5",
                    "midi": 72,
                    "time": 125.69473949999862,
                    "velocity": 0.4015748031496063,
                    "duration": 0.19669072499998208
                },
                {
                    "name": "B4",
                    "midi": 71,
                    "time": 125.8820639999986,
                    "velocity": 0.4409448818897638,
                    "duration": 0.3746489999999909
                },
                {
                    "name": "C5",
                    "midi": 72,
                    "time": 127.0996732499986,
                    "velocity": 0.36220472440944884,
                    "duration": 0.09366224999999417
                },
                {
                    "name": "B4",
                    "midi": 71,
                    "time": 127.1933354999986,
                    "velocity": 0.3858267716535433,
                    "duration": 0.09366224999999417
                },
                {
                    "name": "C5",
                    "midi": 72,
                    "time": 127.28699774999859,
                    "velocity": 0.3464566929133858,
                    "duration": 0.09366224999999417
                },
                {
                    "name": "D5",
                    "midi": 74,
                    "time": 127.38065999999858,
                    "velocity": 0.3858267716535433,
                    "duration": 0.09366224999999417
                },
                {
                    "name": "C5",
                    "midi": 72,
                    "time": 127.47432224999858,
                    "velocity": 0.3464566929133858,
                    "duration": 0.09366224999999417
                },
                {
                    "name": "B4",
                    "midi": 71,
                    "time": 127.56798449999857,
                    "velocity": 0.3858267716535433,
                    "duration": 0.09366224999999417
                },
                {
                    "name": "C5",
                    "midi": 72,
                    "time": 127.66164674999857,
                    "velocity": 0.3464566929133858,
                    "duration": 0.09366224999999417
                },
                {
                    "name": "C5",
                    "midi": 72,
                    "time": 127.84897124999856,
                    "velocity": 0.3858267716535433,
                    "duration": 0.09366224999999417
                },
                {
                    "name": "E5",
                    "midi": 76,
                    "time": 127.94263349999855,
                    "velocity": 0.4251968503937008,
                    "duration": 0.09366224999999417
                },
                {
                    "name": "C5",
                    "midi": 72,
                    "time": 128.03629574999854,
                    "velocity": 0.3858267716535433,
                    "duration": 0.09366224999999417
                },
                {
                    "name": "C5",
                    "midi": 72,
                    "time": 128.22362024999853,
                    "velocity": 0.41732283464566927,
                    "duration": 0.09366224999999417
                },
                {
                    "name": "F5",
                    "midi": 77,
                    "time": 128.31728249999853,
                    "velocity": 0.44881889763779526,
                    "duration": 0.09366224999999417
                },
                {
                    "name": "C5",
                    "midi": 72,
                    "time": 128.41094474999852,
                    "velocity": 0.4094488188976378,
                    "duration": 0.09366224999999417
                },
                {
                    "name": "C5",
                    "midi": 72,
                    "time": 128.5982692499985,
                    "velocity": 0.4330708661417323,
                    "duration": 0.09366224999999417
                },
                {
                    "name": "A#5",
                    "midi": 82,
                    "time": 128.6919314999985,
                    "velocity": 0.48031496062992124,
                    "duration": 0.09366224999999417
                },
                {
                    "name": "C5",
                    "midi": 72,
                    "time": 128.7855937499985,
                    "velocity": 0.44881889763779526,
                    "duration": 0.09366224999999417
                },
                {
                    "name": "C5",
                    "midi": 72,
                    "time": 128.9729182499985,
                    "velocity": 0.44881889763779526,
                    "duration": 0.09366224999999417
                },
                {
                    "name": "A5",
                    "midi": 81,
                    "time": 129.06658049999848,
                    "velocity": 0.5039370078740157,
                    "duration": 0.09366224999999417
                },
                {
                    "name": "C5",
                    "midi": 72,
                    "time": 129.16024274999847,
                    "velocity": 0.44881889763779526,
                    "duration": 0.09366224999999417
                },
                {
                    "name": "G5",
                    "midi": 79,
                    "time": 129.25390499999847,
                    "velocity": 0.5118110236220472,
                    "duration": 0.09366224999999417
                },
                {
                    "name": "E5",
                    "midi": 76,
                    "time": 129.34756724999846,
                    "velocity": 0.47244094488188976,
                    "duration": 0.09366224999999417
                },
                {
                    "name": "D5",
                    "midi": 74,
                    "time": 129.44122949999846,
                    "velocity": 0.5118110236220472,
                    "duration": 0.09366224999999417
                },
                {
                    "name": "C5",
                    "midi": 72,
                    "time": 129.53489174999845,
                    "velocity": 0.47244094488188976,
                    "duration": 0.09366224999999417
                },
                {
                    "name": "B4",
                    "midi": 71,
                    "time": 129.62855399999845,
                    "velocity": 0.44881889763779526,
                    "duration": 0.09366224999999417
                },
                {
                    "name": "C5",
                    "midi": 72,
                    "time": 129.72221624999844,
                    "velocity": 0.4645669291338583,
                    "duration": 0.09366224999999417
                },
                {
                    "name": "D5",
                    "midi": 74,
                    "time": 129.81587849999843,
                    "velocity": 0.47244094488188976,
                    "duration": 0.09366224999999417
                },
                {
                    "name": "C5",
                    "midi": 72,
                    "time": 129.90954074999843,
                    "velocity": 0.4409448818897638,
                    "duration": 0.09366224999999417
                },
                {
                    "name": "C5",
                    "midi": 72,
                    "time": 130.09686524999842,
                    "velocity": 0.3858267716535433,
                    "duration": 0.09366224999999417
                },
                {
                    "name": "E5",
                    "midi": 76,
                    "time": 130.1905274999984,
                    "velocity": 0.41732283464566927,
                    "duration": 0.09366224999999417
                },
                {
                    "name": "C5",
                    "midi": 72,
                    "time": 130.2841897499984,
                    "velocity": 0.3858267716535433,
                    "duration": 0.09366224999999417
                },
                {
                    "name": "C5",
                    "midi": 72,
                    "time": 130.4715142499984,
                    "velocity": 0.4094488188976378,
                    "duration": 0.09366224999999417
                },
                {
                    "name": "F5",
                    "midi": 77,
                    "time": 130.5651764999984,
                    "velocity": 0.4566929133858268,
                    "duration": 0.09366224999999417
                },
                {
                    "name": "C5",
                    "midi": 72,
                    "time": 130.65883874999838,
                    "velocity": 0.4251968503937008,
                    "duration": 0.09366224999999417
                },
                {
                    "name": "C5",
                    "midi": 72,
                    "time": 130.84616324999837,
                    "velocity": 0.4330708661417323,
                    "duration": 0.09366224999999417
                },
                {
                    "name": "A#5",
                    "midi": 82,
                    "time": 130.93982549999836,
                    "velocity": 0.48031496062992124,
                    "duration": 0.09366224999999417
                },
                {
                    "name": "C5",
                    "midi": 72,
                    "time": 131.03348774999836,
                    "velocity": 0.4330708661417323,
                    "duration": 0.09366224999999417
                },
                {
                    "name": "C5",
                    "midi": 72,
                    "time": 131.22081224999835,
                    "velocity": 0.3858267716535433,
                    "duration": 0.09366224999999417
                },
                {
                    "name": "A5",
                    "midi": 81,
                    "time": 131.31447449999834,
                    "velocity": 0.5354330708661418,
                    "duration": 0.09366224999999417
                },
                {
                    "name": "C5",
                    "midi": 72,
                    "time": 131.40813674999833,
                    "velocity": 0.4881889763779528,
                    "duration": 0.09366224999999417
                },
                {
                    "name": "G5",
                    "midi": 79,
                    "time": 131.50179899999833,
                    "velocity": 0.5748031496062992,
                    "duration": 0.09366224999999417
                },
                {
                    "name": "C6",
                    "midi": 84,
                    "time": 131.59546124999832,
                    "velocity": 0.4881889763779528,
                    "duration": 0.09366224999999417
                },
                {
                    "name": "G5",
                    "midi": 79,
                    "time": 131.68912349999832,
                    "velocity": 0.5433070866141733,
                    "duration": 0.09366224999999417
                },
                {
                    "name": "E5",
                    "midi": 76,
                    "time": 131.7827857499983,
                    "velocity": 0.44881889763779526,
                    "duration": 0.09366224999999417
                },
                {
                    "name": "C5",
                    "midi": 72,
                    "time": 131.8764479999983,
                    "velocity": 0.5275590551181102,
                    "duration": 0.09366224999999417
                },
                {
                    "name": "G5",
                    "midi": 79,
                    "time": 131.9701102499983,
                    "velocity": 0.4330708661417323,
                    "duration": 0.09366224999999417
                },
                {
                    "name": "E5",
                    "midi": 76,
                    "time": 132.0637724999983,
                    "velocity": 0.48031496062992124,
                    "duration": 0.09366224999999417
                },
                {
                    "name": "C5",
                    "midi": 72,
                    "time": 132.1574347499983,
                    "velocity": 0.4251968503937008,
                    "duration": 0.09366224999999417
                },
                {
                    "name": "G4",
                    "midi": 67,
                    "time": 132.25109699999828,
                    "velocity": 0.49606299212598426,
                    "duration": 0.09366224999999417
                },
                {
                    "name": "C5",
                    "midi": 72,
                    "time": 132.34475924999828,
                    "velocity": 0.4330708661417323,
                    "duration": 0.09366224999999417
                },
                {
                    "name": "G4",
                    "midi": 67,
                    "time": 132.43842149999827,
                    "velocity": 0.5118110236220472,
                    "duration": 0.09366224999999417
                },
                {
                    "name": "E4",
                    "midi": 64,
                    "time": 132.53208374999826,
                    "velocity": 0.4645669291338583,
                    "duration": 0.09366224999999417
                },
                {
                    "name": "C4",
                    "midi": 60,
                    "time": 132.62574599999826,
                    "velocity": 0.6692913385826772,
                    "duration": 0.09366224999999417
                },
                {
                    "name": "G4",
                    "midi": 67,
                    "time": 133.00039499999826,
                    "velocity": 0.4881889763779528,
                    "duration": 0.3746490000000051
                },
                {
                    "name": "E4",
                    "midi": 64,
                    "time": 133.00039499999826,
                    "velocity": 0.4881889763779528,
                    "duration": 0.3746490000000051
                },
                {
                    "name": "C5",
                    "midi": 72,
                    "time": 133.00039499999826,
                    "velocity": 0.5748031496062992,
                    "duration": 0.3746490000000051
                },
                {
                    "name": "C6",
                    "midi": 84,
                    "time": 136.18491149999826,
                    "velocity": 0.3543307086614173,
                    "duration": 0.0468311250000113
                },
                {
                    "name": "C6",
                    "midi": 84,
                    "time": 136.37223599999828,
                    "velocity": 0.3858267716535433,
                    "duration": 0.0468311250000113
                },
                {
                    "name": "C6",
                    "midi": 84,
                    "time": 136.5595604999983,
                    "velocity": 0.33858267716535434,
                    "duration": 0.0468311250000113
                },
                {
                    "name": "C6",
                    "midi": 84,
                    "time": 136.74688499999831,
                    "velocity": 0.36220472440944884,
                    "duration": 0.0468311250000113
                },
                {
                    "name": "C6",
                    "midi": 84,
                    "time": 136.93420949999833,
                    "velocity": 0.31496062992125984,
                    "duration": 0.0468311250000113
                },
                {
                    "name": "D6",
                    "midi": 86,
                    "time": 137.12153399999835,
                    "velocity": 0.3543307086614173,
                    "duration": 0.1966907249999963
                },
                {
                    "name": "C6",
                    "midi": 84,
                    "time": 137.30885849999834,
                    "velocity": 0.31496062992125984,
                    "duration": 0.1966907250000247
                },
                {
                    "name": "A#5",
                    "midi": 82,
                    "time": 137.49618299999835,
                    "velocity": 0.33858267716535434,
                    "duration": 0.1966907250000247
                },
                {
                    "name": "A5",
                    "midi": 81,
                    "time": 137.68350749999837,
                    "velocity": 0.31496062992125984,
                    "duration": 0.1966907250000247
                },
                {
                    "name": "G5",
                    "midi": 79,
                    "time": 137.8708319999984,
                    "velocity": 0.3543307086614173,
                    "duration": 0.1966907250000247
                },
                {
                    "name": "F5",
                    "midi": 77,
                    "time": 138.0581564999984,
                    "velocity": 0.30708661417322836,
                    "duration": 0.18732450000001677
                },
                {
                    "name": "F5",
                    "midi": 77,
                    "time": 138.24548099999842,
                    "velocity": 0.3228346456692913,
                    "duration": 0.0468311250000113
                },
                {
                    "name": "G5",
                    "midi": 79,
                    "time": 138.29231212499843,
                    "velocity": 0.30708661417322836,
                    "duration": 0.0468311250000113
                },
                {
                    "name": "F5",
                    "midi": 77,
                    "time": 138.33914324999844,
                    "velocity": 0.3858267716535433,
                    "duration": 0.09366224999999417
                },
                {
                    "name": "E5",
                    "midi": 76,
                    "time": 138.43280549999844,
                    "velocity": 0.3464566929133858,
                    "duration": 0.181080350000002
                },
                {
                    "name": "E5",
                    "midi": 76,
                    "time": 138.62012999999843,
                    "velocity": 0.36220472440944884,
                    "duration": 0.3746490000000051
                },
                {
                    "name": "A#5",
                    "midi": 82,
                    "time": 140.68069949999844,
                    "velocity": 0.3543307086614173,
                    "duration": 0.0468311250000113
                },
                {
                    "name": "A#5",
                    "midi": 82,
                    "time": 140.86802399999846,
                    "velocity": 0.3779527559055118,
                    "duration": 0.0468311250000113
                },
                {
                    "name": "A#5",
                    "midi": 82,
                    "time": 141.05534849999847,
                    "velocity": 0.33070866141732286,
                    "duration": 0.0468311250000113
                },
                {
                    "name": "A#5",
                    "midi": 82,
                    "time": 141.2426729999985,
                    "velocity": 0.3464566929133858,
                    "duration": 0.0468311250000113
                },
                {
                    "name": "A#5",
                    "midi": 82,
                    "time": 141.4299974999985,
                    "velocity": 0.31496062992125984,
                    "duration": 0.0468311250000113
                },
                {
                    "name": "C6",
                    "midi": 84,
                    "time": 141.61732199999852,
                    "velocity": 0.3543307086614173,
                    "duration": 0.1966907249999963
                },
                {
                    "name": "A#5",
                    "midi": 82,
                    "time": 141.8046464999985,
                    "velocity": 0.31496062992125984,
                    "duration": 0.1966907250000247
                },
                {
                    "name": "A5",
                    "midi": 81,
                    "time": 141.99197099999853,
                    "velocity": 0.31496062992125984,
                    "duration": 0.1966907250000247
                },
                {
                    "name": "G5",
                    "midi": 79,
                    "time": 142.17929549999855,
                    "velocity": 0.31496062992125984,
                    "duration": 0.1966907250000247
                },
                {
                    "name": "F5",
                    "midi": 77,
                    "time": 142.36661999999856,
                    "velocity": 0.3543307086614173,
                    "duration": 0.1966907250000247
                },
                {
                    "name": "E5",
                    "midi": 76,
                    "time": 142.55394449999858,
                    "velocity": 0.30708661417322836,
                    "duration": 0.18732450000001677
                },
                {
                    "name": "F5",
                    "midi": 77,
                    "time": 142.7412689999986,
                    "velocity": 0.3700787401574803,
                    "duration": 0.3746490000000051
                },
                {
                    "name": "A5",
                    "midi": 81,
                    "time": 143.3032424999986,
                    "velocity": 0.3700787401574803,
                    "duration": 0.1966907249999963
                },
                {
                    "name": "G5",
                    "midi": 79,
                    "time": 143.49056699999858,
                    "velocity": 0.3543307086614173,
                    "duration": 0.1966907250000247
                },
                {
                    "name": "F5",
                    "midi": 77,
                    "time": 143.6778914999986,
                    "velocity": 0.31496062992125984,
                    "duration": 0.1966907250000247
                },
                {
                    "name": "E5",
                    "midi": 76,
                    "time": 143.8652159999986,
                    "velocity": 0.3700787401574803,
                    "duration": 0.3746490000000051
                },
                {
                    "name": "D6",
                    "midi": 86,
                    "time": 144.4271894999986,
                    "velocity": 0.4094488188976378,
                    "duration": 0.1966907249999963
                },
                {
                    "name": "C6",
                    "midi": 84,
                    "time": 144.6145139999986,
                    "velocity": 0.3700787401574803,
                    "duration": 0.1966907250000247
                },
                {
                    "name": "E5",
                    "midi": 76,
                    "time": 144.8018384999986,
                    "velocity": 0.33070866141732286,
                    "duration": 0.1966907250000247
                },
                {
                    "name": "F5",
                    "midi": 77,
                    "time": 144.98916299999863,
                    "velocity": 0.3700787401574803,
                    "duration": 0.3746490000000051
                },
                {
                    "name": "A5",
                    "midi": 81,
                    "time": 145.55113649999862,
                    "velocity": 0.3700787401574803,
                    "duration": 0.1966907249999963
                },
                {
                    "name": "G5",
                    "midi": 79,
                    "time": 145.7384609999986,
                    "velocity": 0.3543307086614173,
                    "duration": 0.1966907250000247
                },
                {
                    "name": "F5",
                    "midi": 77,
                    "time": 145.92578549999863,
                    "velocity": 0.31496062992125984,
                    "duration": 0.1966907250000247
                },
                {
                    "name": "E5",
                    "midi": 76,
                    "time": 146.11310999999864,
                    "velocity": 0.3700787401574803,
                    "duration": 0.3746490000000051
                },
                {
                    "name": "D6",
                    "midi": 86,
                    "time": 146.67508349999864,
                    "velocity": 0.4094488188976378,
                    "duration": 0.1966907249999963
                },
                {
                    "name": "C6",
                    "midi": 84,
                    "time": 146.86240799999862,
                    "velocity": 0.3700787401574803,
                    "duration": 0.1966907250000247
                },
                {
                    "name": "E5",
                    "midi": 76,
                    "time": 147.04973249999864,
                    "velocity": 0.33070866141732286,
                    "duration": 0.1966907250000247
                },
                {
                    "name": "F5",
                    "midi": 77,
                    "time": 147.23705699999866,
                    "velocity": 0.3700787401574803,
                    "duration": 0.3746490000000051
                },
                {
                    "name": "C6",
                    "midi": 84,
                    "time": 147.79903049999865,
                    "velocity": 0.4330708661417323,
                    "duration": 0.1966907249999963
                },
                {
                    "name": "A5",
                    "midi": 81,
                    "time": 147.98635499999864,
                    "velocity": 0.41732283464566927,
                    "duration": 0.1966907250000247
                },
                {
                    "name": "G5",
                    "midi": 79,
                    "time": 148.17367949999866,
                    "velocity": 0.3937007874015748,
                    "duration": 0.1966907250000247
                },
                {
                    "name": "F#5",
                    "midi": 78,
                    "time": 148.36100399999867,
                    "velocity": 0.4409448818897638,
                    "duration": 0.3746490000000051
                },
                {
                    "name": "D#6",
                    "midi": 87,
                    "time": 148.92297749999867,
                    "velocity": 0.4566929133858268,
                    "duration": 0.1966907249999963
                },
                {
                    "name": "D6",
                    "midi": 86,
                    "time": 149.11030199999865,
                    "velocity": 0.4094488188976378,
                    "duration": 0.1966907250000247
                },
                {
                    "name": "F#5",
                    "midi": 78,
                    "time": 149.29762649999867,
                    "velocity": 0.3779527559055118,
                    "duration": 0.1966907250000247
                },
                {
                    "name": "A5",
                    "midi": 81,
                    "time": 149.4849509999987,
                    "velocity": 0.4409448818897638,
                    "duration": 0.1966907250000247
                },
                {
                    "name": "G5",
                    "midi": 79,
                    "time": 149.6722754999987,
                    "velocity": 0.4015748031496063,
                    "duration": 0.1966907250000247
                },
                {
                    "name": "C6",
                    "midi": 84,
                    "time": 149.85959999999872,
                    "velocity": 0.4330708661417323,
                    "duration": 0.1966907250000247
                },
                {
                    "name": "B5",
                    "midi": 83,
                    "time": 150.04692449999874,
                    "velocity": 0.4015748031496063,
                    "duration": 0.1966907250000247
                },
                {
                    "name": "A#5",
                    "midi": 82,
                    "time": 150.23424899999875,
                    "velocity": 0.3937007874015748,
                    "duration": 0.1966907250000247
                },
                {
                    "name": "A5",
                    "midi": 81,
                    "time": 150.42157349999877,
                    "velocity": 0.3858267716535433,
                    "duration": 0.1966907250000247
                },
                {
                    "name": "G5",
                    "midi": 79,
                    "time": 150.6088979999988,
                    "velocity": 0.4251968503937008,
                    "duration": 0.28098675000001094
                },
                {
                    "name": "A5",
                    "midi": 81,
                    "time": 150.8898847499988,
                    "velocity": 0.3779527559055118,
                    "duration": 0.09366224999999417
                },
                {
                    "name": "F5",
                    "midi": 77,
                    "time": 150.9835469999988,
                    "velocity": 0.4251968503937008,
                    "duration": 0.3746490000000051
                },
                {
                    "name": "E5",
                    "midi": 76,
                    "time": 151.3581959999988,
                    "velocity": 0.3937007874015748,
                    "duration": 0.06244150000000559
                },
                {
                    "name": "F5",
                    "midi": 77,
                    "time": 151.4206374999988,
                    "velocity": 0.3464566929133858,
                    "duration": 0.06244150000000559
                },
                {
                    "name": "E5",
                    "midi": 76,
                    "time": 151.4830789999988,
                    "velocity": 0.3937007874015748,
                    "duration": 0.06244150000000559
                },
                {
                    "name": "F5",
                    "midi": 77,
                    "time": 151.54552049999882,
                    "velocity": 0.3464566929133858,
                    "duration": 0.0468311250000113
                },
                {
                    "name": "E5",
                    "midi": 76,
                    "time": 151.59235162499883,
                    "velocity": 0.3937007874015748,
                    "duration": 0.0468311250000113
                },
                {
                    "name": "D5",
                    "midi": 74,
                    "time": 151.63918274999884,
                    "velocity": 0.33070866141732286,
                    "duration": 0.0468311250000113
                },
                {
                    "name": "E5",
                    "midi": 76,
                    "time": 151.68601387499885,
                    "velocity": 0.3543307086614173,
                    "duration": 0.0468311250000113
                },
                {
                    "name": "F5",
                    "midi": 77,
                    "time": 151.73284499999886,
                    "velocity": 0.3858267716535433,
                    "duration": 0.09366224999999417
                },
                {
                    "name": "C5",
                    "midi": 72,
                    "time": 151.82650724999885,
                    "velocity": 0.36220472440944884,
                    "duration": 0.09366224999999417
                },
                {
                    "name": "B4",
                    "midi": 71,
                    "time": 151.92016949999885,
                    "velocity": 0.3858267716535433,
                    "duration": 0.09366224999999417
                },
                {
                    "name": "C5",
                    "midi": 72,
                    "time": 152.01383174999884,
                    "velocity": 0.3464566929133858,
                    "duration": 0.09366224999999417
                },
                {
                    "name": "D5",
                    "midi": 74,
                    "time": 152.10749399999884,
                    "velocity": 0.3858267716535433,
                    "duration": 0.09366224999999417
                },
                {
                    "name": "C5",
                    "midi": 72,
                    "time": 152.20115624999883,
                    "velocity": 0.3464566929133858,
                    "duration": 0.09366224999999417
                },
                {
                    "name": "B4",
                    "midi": 71,
                    "time": 152.29481849999883,
                    "velocity": 0.3858267716535433,
                    "duration": 0.09366224999999417
                },
                {
                    "name": "C5",
                    "midi": 72,
                    "time": 152.38848074999882,
                    "velocity": 0.3464566929133858,
                    "duration": 0.09366224999999417
                },
                {
                    "name": "A#4",
                    "midi": 70,
                    "time": 152.4821429999988,
                    "velocity": 0.3858267716535433,
                    "duration": 0.09366224999999417
                },
                {
                    "name": "C5",
                    "midi": 72,
                    "time": 152.5758052499988,
                    "velocity": 0.3858267716535433,
                    "duration": 0.09366224999999417
                },
                {
                    "name": "A4",
                    "midi": 69,
                    "time": 152.6694674999988,
                    "velocity": 0.4251968503937008,
                    "duration": 0.09366224999999417
                },
                {
                    "name": "C5",
                    "midi": 72,
                    "time": 152.7631297499988,
                    "velocity": 0.3858267716535433,
                    "duration": 0.09366224999999417
                },
                {
                    "name": "G4",
                    "midi": 67,
                    "time": 152.8567919999988,
                    "velocity": 0.3858267716535433,
                    "duration": 0.09366224999999417
                },
                {
                    "name": "C5",
                    "midi": 72,
                    "time": 152.95045424999878,
                    "velocity": 0.36220472440944884,
                    "duration": 0.09366224999999417
                },
                {
                    "name": "B4",
                    "midi": 71,
                    "time": 153.04411649999878,
                    "velocity": 0.3858267716535433,
                    "duration": 0.09366224999999417
                },
                {
                    "name": "C5",
                    "midi": 72,
                    "time": 153.13777874999877,
                    "velocity": 0.3464566929133858,
                    "duration": 0.09366224999999417
                },
                {
                    "name": "D5",
                    "midi": 74,
                    "time": 153.23144099999877,
                    "velocity": 0.3858267716535433,
                    "duration": 0.09366224999999417
                },
                {
                    "name": "C5",
                    "midi": 72,
                    "time": 153.32510324999876,
                    "velocity": 0.3464566929133858,
                    "duration": 0.09366224999999417
                },
                {
                    "name": "B4",
                    "midi": 71,
                    "time": 153.41876549999876,
                    "velocity": 0.3858267716535433,
                    "duration": 0.09366224999999417
                },
                {
                    "name": "C5",
                    "midi": 72,
                    "time": 153.51242774999875,
                    "velocity": 0.3464566929133858,
                    "duration": 0.09366224999999417
                },
                {
                    "name": "A#5",
                    "midi": 82,
                    "time": 153.60608999999874,
                    "velocity": 0.3858267716535433,
                    "duration": 0.09366224999999417
                },
                {
                    "name": "C5",
                    "midi": 72,
                    "time": 153.69975224999874,
                    "velocity": 0.3858267716535433,
                    "duration": 0.09366224999999417
                },
                {
                    "name": "A#5",
                    "midi": 82,
                    "time": 153.79341449999873,
                    "velocity": 0.4251968503937008,
                    "duration": 0.09366224999999417
                },
                {
                    "name": "C5",
                    "midi": 72,
                    "time": 153.88707674999873,
                    "velocity": 0.3858267716535433,
                    "duration": 0.09366224999999417
                },
                {
                    "name": "A5",
                    "midi": 81,
                    "time": 153.98073899999872,
                    "velocity": 0.3858267716535433,
                    "duration": 0.09366224999999417
                },
                {
                    "name": "C5",
                    "midi": 72,
                    "time": 154.07440124999872,
                    "velocity": 0.36220472440944884,
                    "duration": 0.09366224999999417
                },
                {
                    "name": "B4",
                    "midi": 71,
                    "time": 154.1680634999987,
                    "velocity": 0.3858267716535433,
                    "duration": 0.09366224999999417
                },
                {
                    "name": "C5",
                    "midi": 72,
                    "time": 154.2617257499987,
                    "velocity": 0.3464566929133858,
                    "duration": 0.09366224999999417
                },
                {
                    "name": "D5",
                    "midi": 74,
                    "time": 154.3553879999987,
                    "velocity": 0.3858267716535433,
                    "duration": 0.09366224999999417
                },
                {
                    "name": "C5",
                    "midi": 72,
                    "time": 154.4490502499987,
                    "velocity": 0.3464566929133858,
                    "duration": 0.09366224999999417
                },
                {
                    "name": "B4",
                    "midi": 71,
                    "time": 154.5427124999987,
                    "velocity": 0.3858267716535433,
                    "duration": 0.09366224999999417
                },
                {
                    "name": "C5",
                    "midi": 72,
                    "time": 154.63637474999868,
                    "velocity": 0.3464566929133858,
                    "duration": 0.09366224999999417
                },
                {
                    "name": "A#4",
                    "midi": 70,
                    "time": 154.73003699999867,
                    "velocity": 0.3858267716535433,
                    "duration": 0.09366224999999417
                },
                {
                    "name": "C5",
                    "midi": 72,
                    "time": 154.82369924999867,
                    "velocity": 0.3858267716535433,
                    "duration": 0.09366224999999417
                },
                {
                    "name": "A4",
                    "midi": 69,
                    "time": 154.91736149999866,
                    "velocity": 0.4251968503937008,
                    "duration": 0.09366224999999417
                },
                {
                    "name": "C5",
                    "midi": 72,
                    "time": 155.01102374999866,
                    "velocity": 0.3858267716535433,
                    "duration": 0.09366224999999417
                },
                {
                    "name": "G4",
                    "midi": 67,
                    "time": 155.10468599999865,
                    "velocity": 0.3858267716535433,
                    "duration": 0.09366224999999417
                },
                {
                    "name": "C5",
                    "midi": 72,
                    "time": 155.19834824999865,
                    "velocity": 0.36220472440944884,
                    "duration": 0.09366224999999417
                },
                {
                    "name": "B4",
                    "midi": 71,
                    "time": 155.29201049999864,
                    "velocity": 0.3858267716535433,
                    "duration": 0.09366224999999417
                },
                {
                    "name": "C5",
                    "midi": 72,
                    "time": 155.38567274999863,
                    "velocity": 0.3464566929133858,
                    "duration": 0.09366224999999417
                },
                {
                    "name": "D5",
                    "midi": 74,
                    "time": 155.47933499999863,
                    "velocity": 0.3858267716535433,
                    "duration": 0.09366224999999417
                },
                {
                    "name": "C5",
                    "midi": 72,
                    "time": 155.57299724999862,
                    "velocity": 0.3464566929133858,
                    "duration": 0.09366224999999417
                },
                {
                    "name": "B4",
                    "midi": 71,
                    "time": 155.66665949999862,
                    "velocity": 0.3858267716535433,
                    "duration": 0.09366224999999417
                },
                {
                    "name": "C5",
                    "midi": 72,
                    "time": 155.7603217499986,
                    "velocity": 0.3464566929133858,
                    "duration": 0.09366224999999417
                },
                {
                    "name": "A#5",
                    "midi": 82,
                    "time": 155.8539839999986,
                    "velocity": 0.3858267716535433,
                    "duration": 0.09366224999999417
                },
                {
                    "name": "C5",
                    "midi": 72,
                    "time": 155.9476462499986,
                    "velocity": 0.3858267716535433,
                    "duration": 0.09366224999999417
                },
                {
                    "name": "A#5",
                    "midi": 82,
                    "time": 156.0413084999986,
                    "velocity": 0.4251968503937008,
                    "duration": 0.09366224999999417
                },
                {
                    "name": "C5",
                    "midi": 72,
                    "time": 156.1349707499986,
                    "velocity": 0.3858267716535433,
                    "duration": 0.09366224999999417
                },
                {
                    "name": "A5",
                    "midi": 81,
                    "time": 156.22863299999858,
                    "velocity": 0.3858267716535433,
                    "duration": 0.09366224999999417
                },
                {
                    "name": "C5",
                    "midi": 72,
                    "time": 156.32229524999858,
                    "velocity": 0.36220472440944884,
                    "duration": 0.09366224999999417
                },
                {
                    "name": "B4",
                    "midi": 71,
                    "time": 156.41595749999857,
                    "velocity": 0.3858267716535433,
                    "duration": 0.09366224999999417
                },
                {
                    "name": "C5",
                    "midi": 72,
                    "time": 156.50961974999856,
                    "velocity": 0.3464566929133858,
                    "duration": 0.09366224999999417
                },
                {
                    "name": "D5",
                    "midi": 74,
                    "time": 156.60328199999856,
                    "velocity": 0.3858267716535433,
                    "duration": 0.09366224999999417
                },
                {
                    "name": "C5",
                    "midi": 72,
                    "time": 156.69694424999855,
                    "velocity": 0.3464566929133858,
                    "duration": 0.09366224999999417
                },
                {
                    "name": "B4",
                    "midi": 71,
                    "time": 156.79060649999855,
                    "velocity": 0.3858267716535433,
                    "duration": 0.09366224999999417
                },
                {
                    "name": "C5",
                    "midi": 72,
                    "time": 156.88426874999854,
                    "velocity": 0.3464566929133858,
                    "duration": 0.09366224999999417
                },
                {
                    "name": "D#5",
                    "midi": 75,
                    "time": 156.97793099999853,
                    "velocity": 0.3858267716535433,
                    "duration": 0.09366224999999417
                },
                {
                    "name": "C5",
                    "midi": 72,
                    "time": 157.07159324999853,
                    "velocity": 0.3858267716535433,
                    "duration": 0.09366224999999417
                },
                {
                    "name": "A#4",
                    "midi": 70,
                    "time": 157.16525549999852,
                    "velocity": 0.4251968503937008,
                    "duration": 0.09366224999999417
                },
                {
                    "name": "C5",
                    "midi": 72,
                    "time": 157.25891774999852,
                    "velocity": 0.3858267716535433,
                    "duration": 0.09366224999999417
                },
                {
                    "name": "A4",
                    "midi": 69,
                    "time": 157.3525799999985,
                    "velocity": 0.3858267716535433,
                    "duration": 0.09366224999999417
                },
                {
                    "name": "D5",
                    "midi": 74,
                    "time": 157.4462422499985,
                    "velocity": 0.36220472440944884,
                    "duration": 0.09366224999999417
                },
                {
                    "name": "C#5",
                    "midi": 73,
                    "time": 157.5399044999985,
                    "velocity": 0.3858267716535433,
                    "duration": 0.09366224999999417
                },
                {
                    "name": "D5",
                    "midi": 74,
                    "time": 157.6335667499985,
                    "velocity": 0.3464566929133858,
                    "duration": 0.09366224999999417
                },
                {
                    "name": "E5",
                    "midi": 76,
                    "time": 157.7272289999985,
                    "velocity": 0.3858267716535433,
                    "duration": 0.09366224999999417
                },
                {
                    "name": "D5",
                    "midi": 74,
                    "time": 157.82089124999848,
                    "velocity": 0.3464566929133858,
                    "duration": 0.09366224999999417
                },
                {
                    "name": "C#5",
                    "midi": 73,
                    "time": 157.91455349999848,
                    "velocity": 0.4094488188976378,
                    "duration": 0.09366224999999417
                },
                {
                    "name": "D5",
                    "midi": 74,
                    "time": 158.00821574999847,
                    "velocity": 0.3464566929133858,
                    "duration": 0.09366224999999417
                },
                {
                    "name": "C6",
                    "midi": 84,
                    "time": 158.10187799999846,
                    "velocity": 0.4330708661417323,
                    "duration": 0.09366224999999417
                },
                {
                    "name": "D5",
                    "midi": 74,
                    "time": 158.19554024999846,
                    "velocity": 0.3858267716535433,
                    "duration": 0.09366224999999417
                },
                {
                    "name": "C6",
                    "midi": 84,
                    "time": 158.28920249999845,
                    "velocity": 0.44881889763779526,
                    "duration": 0.09366224999999417
                },
                {
                    "name": "D5",
                    "midi": 74,
                    "time": 158.38286474999845,
                    "velocity": 0.3858267716535433,
                    "duration": 0.09366224999999417
                },
                {
                    "name": "B5",
                    "midi": 83,
                    "time": 158.47652699999844,
                    "velocity": 0.4881889763779528,
                    "duration": 0.3746490000000051
                },
                {
                    "name": "A#5",
                    "midi": 82,
                    "time": 158.85117599999845,
                    "velocity": 0.47244094488188976,
                    "duration": 0.3746490000000051
                },
                {
                    "name": "A5",
                    "midi": 81,
                    "time": 159.22582499999845,
                    "velocity": 0.44881889763779526,
                    "duration": 0.3746490000000051
                },
                {
                    "name": "G5",
                    "midi": 79,
                    "time": 159.60047399999846,
                    "velocity": 0.47244094488188976,
                    "duration": 0.09366224999999417
                },
                {
                    "name": "D6",
                    "midi": 86,
                    "time": 159.69413624999845,
                    "velocity": 0.4094488188976378,
                    "duration": 0.09366224999999417
                },
                {
                    "name": "A#5",
                    "midi": 82,
                    "time": 159.78779849999844,
                    "velocity": 0.4094488188976378,
                    "duration": 0.09366224999999417
                },
                {
                    "name": "G5",
                    "midi": 79,
                    "time": 159.88146074999844,
                    "velocity": 0.4094488188976378,
                    "duration": 0.09366224999999417
                },
                {
                    "name": "F5",
                    "midi": 77,
                    "time": 159.97512299999843,
                    "velocity": 0.4881889763779528,
                    "duration": 0.09366224999999417
                },
                {
                    "name": "C6",
                    "midi": 84,
                    "time": 160.06878524999843,
                    "velocity": 0.4094488188976378,
                    "duration": 0.09366224999999417
                },
                {
                    "name": "A5",
                    "midi": 81,
                    "time": 160.16244749999842,
                    "velocity": 0.4094488188976378,
                    "duration": 0.09366224999999417
                },
                {
                    "name": "F5",
                    "midi": 77,
                    "time": 160.25610974999842,
                    "velocity": 0.4094488188976378,
                    "duration": 0.09366224999999417
                },
                {
                    "name": "E5",
                    "midi": 76,
                    "time": 160.3497719999984,
                    "velocity": 0.4881889763779528,
                    "duration": 0.09366224999999417
                },
                {
                    "name": "A#5",
                    "midi": 82,
                    "time": 160.4434342499984,
                    "velocity": 0.4094488188976378,
                    "duration": 0.09366224999999417
                },
                {
                    "name": "G5",
                    "midi": 79,
                    "time": 160.5370964999984,
                    "velocity": 0.4094488188976378,
                    "duration": 0.09366224999999417
                },
                {
                    "name": "E5",
                    "midi": 76,
                    "time": 160.6307587499984,
                    "velocity": 0.4094488188976378,
                    "duration": 0.09366224999999417
                },
                {
                    "name": "F5",
                    "midi": 77,
                    "time": 160.7244209999984,
                    "velocity": 0.4251968503937008,
                    "duration": 0.10302847500000212
                },
                {
                    "name": "A5",
                    "midi": 81,
                    "time": 160.81808324999838,
                    "velocity": 0.44881889763779526,
                    "duration": 0.10302847500000212
                },
                {
                    "name": "C6",
                    "midi": 84,
                    "time": 160.91174549999837,
                    "velocity": 0.48031496062992124,
                    "duration": 0.10302847500000212
                },
                {
                    "name": "A#5",
                    "midi": 82,
                    "time": 161.00540774999837,
                    "velocity": 0.47244094488188976,
                    "duration": 0.10302847500000212
                },
                {
                    "name": "A5",
                    "midi": 81,
                    "time": 161.09906999999836,
                    "velocity": 0.4566929133858268,
                    "duration": 0.10302847500000212
                },
                {
                    "name": "G5",
                    "midi": 79,
                    "time": 161.19273224999836,
                    "velocity": 0.4409448818897638,
                    "duration": 0.10302847500000212
                },
                {
                    "name": "F5",
                    "midi": 77,
                    "time": 161.28639449999835,
                    "velocity": 0.4251968503937008,
                    "duration": 0.10302847500000212
                },
                {
                    "name": "E5",
                    "midi": 76,
                    "time": 161.38005674999835,
                    "velocity": 0.4094488188976378,
                    "duration": 0.10302847500000212
                },
                {
                    "name": "D5",
                    "midi": 74,
                    "time": 161.47371899999834,
                    "velocity": 0.4330708661417323,
                    "duration": 0.10302847500000212
                },
                {
                    "name": "C5",
                    "midi": 72,
                    "time": 161.56738124999833,
                    "velocity": 0.4015748031496063,
                    "duration": 0.10302847500000212
                },
                {
                    "name": "A#4",
                    "midi": 70,
                    "time": 161.66104349999833,
                    "velocity": 0.3937007874015748,
                    "duration": 0.10302847500000212
                },
                {
                    "name": "A4",
                    "midi": 69,
                    "time": 161.75470574999832,
                    "velocity": 0.3937007874015748,
                    "duration": 0.09366224999999417
                },
                {
                    "name": "G4",
                    "midi": 67,
                    "time": 161.84836799999832,
                    "velocity": 0.3937007874015748,
                    "duration": 0.10302847500000212
                },
                {
                    "name": "A#4",
                    "midi": 70,
                    "time": 161.9420302499983,
                    "velocity": 0.41732283464566927,
                    "duration": 0.10302847500000212
                },
                {
                    "name": "D5",
                    "midi": 74,
                    "time": 162.0356924999983,
                    "velocity": 0.4409448818897638,
                    "duration": 0.10302847500000212
                },
                {
                    "name": "C5",
                    "midi": 72,
                    "time": 162.1293547499983,
                    "velocity": 0.4330708661417323,
                    "duration": 0.10302847500000212
                },
                {
                    "name": "A#4",
                    "midi": 70,
                    "time": 162.2230169999983,
                    "velocity": 0.4251968503937008,
                    "duration": 0.10302847500000212
                },
                {
                    "name": "A4",
                    "midi": 69,
                    "time": 162.3166792499983,
                    "velocity": 0.41732283464566927,
                    "duration": 0.10302847500000212
                },
                {
                    "name": "G4",
                    "midi": 67,
                    "time": 162.41034149999828,
                    "velocity": 0.4094488188976378,
                    "duration": 0.10302847500000212
                },
                {
                    "name": "F4",
                    "midi": 65,
                    "time": 162.50400374999828,
                    "velocity": 0.3937007874015748,
                    "duration": 0.10302847500000212
                },
                {
                    "name": "E4",
                    "midi": 64,
                    "time": 162.59766599999827,
                    "velocity": 0.3858267716535433,
                    "duration": 0.10302847500000212
                },
                {
                    "name": "D4",
                    "midi": 62,
                    "time": 162.69132824999826,
                    "velocity": 0.3937007874015748,
                    "duration": 0.10302847500000212
                },
                {
                    "name": "C4",
                    "midi": 60,
                    "time": 162.78499049999826,
                    "velocity": 0.41732283464566927,
                    "duration": 0.10302847500000212
                },
                {
                    "name": "B3",
                    "midi": 59,
                    "time": 162.87865274999825,
                    "velocity": 0.4409448818897638,
                    "duration": 0.10302847500000212
                },
                {
                    "name": "C4",
                    "midi": 60,
                    "time": 162.97231499999825,
                    "velocity": 0.4645669291338583,
                    "duration": 0.09366224999999417
                },
                {
                    "name": "C5",
                    "midi": 72,
                    "time": 163.15963949999824,
                    "velocity": 0.4645669291338583,
                    "duration": 0.09366224999999417
                },
                {
                    "name": "F5",
                    "midi": 77,
                    "time": 163.34696399999822,
                    "velocity": 0.48031496062992124,
                    "duration": 0.09366224999999417
                },
                {
                    "name": "A5",
                    "midi": 81,
                    "time": 163.5342884999982,
                    "velocity": 0.4881889763779528,
                    "duration": 0.09366224999999417
                },
                {
                    "name": "C6",
                    "midi": 84,
                    "time": 163.7216129999982,
                    "velocity": 0.5039370078740157,
                    "duration": 0.09366224999999417
                },
                {
                    "name": "F6",
                    "midi": 89,
                    "time": 163.9089374999982,
                    "velocity": 0.5118110236220472,
                    "duration": 0.09366224999999417
                },
                {
                    "name": "G5",
                    "midi": 79,
                    "time": 164.09626199999818,
                    "velocity": 0.29133858267716534,
                    "duration": 0.0468311250000113
                },
                {
                    "name": "A5",
                    "midi": 81,
                    "time": 164.1430931249982,
                    "velocity": 0.2440944881889764,
                    "duration": 0.0468311250000113
                },
                {
                    "name": "G5",
                    "midi": 79,
                    "time": 164.1899242499982,
                    "velocity": 0.29133858267716534,
                    "duration": 0.0468311250000113
                },
                {
                    "name": "A5",
                    "midi": 81,
                    "time": 164.2367553749982,
                    "velocity": 0.2440944881889764,
                    "duration": 0.0468311250000113
                },
                {
                    "name": "G5",
                    "midi": 79,
                    "time": 164.28358649999822,
                    "velocity": 0.29133858267716534,
                    "duration": 0.0468311250000113
                },
                {
                    "name": "A5",
                    "midi": 81,
                    "time": 164.33041762499823,
                    "velocity": 0.25196850393700787,
                    "duration": 0.0468311250000113
                },
                {
                    "name": "G5",
                    "midi": 79,
                    "time": 164.37724874999824,
                    "velocity": 0.29133858267716534,
                    "duration": 0.0468311250000113
                },
                {
                    "name": "A5",
                    "midi": 81,
                    "time": 164.42407987499826,
                    "velocity": 0.25984251968503935,
                    "duration": 0.0468311250000113
                },
                {
                    "name": "G5",
                    "midi": 79,
                    "time": 164.47091099999827,
                    "velocity": 0.29133858267716534,
                    "duration": 0.0468311250000113
                },
                {
                    "name": "A5",
                    "midi": 81,
                    "time": 164.51774212499828,
                    "velocity": 0.25196850393700787,
                    "duration": 0.0468311250000113
                },
                {
                    "name": "G5",
                    "midi": 79,
                    "time": 164.5645732499983,
                    "velocity": 0.29133858267716534,
                    "duration": 0.0468311250000113
                },
                {
                    "name": "A5",
                    "midi": 81,
                    "time": 164.6114043749983,
                    "velocity": 0.25196850393700787,
                    "duration": 0.0468311250000113
                },
                {
                    "name": "G5",
                    "midi": 79,
                    "time": 164.6582354999983,
                    "velocity": 0.29133858267716534,
                    "duration": 0.0468311250000113
                },
                {
                    "name": "A5",
                    "midi": 81,
                    "time": 164.70506662499832,
                    "velocity": 0.2440944881889764,
                    "duration": 0.0468311250000113
                },
                {
                    "name": "G5",
                    "midi": 79,
                    "time": 164.75189774999834,
                    "velocity": 0.29133858267716534,
                    "duration": 0.0468311250000113
                },
                {
                    "name": "A5",
                    "midi": 81,
                    "time": 164.79872887499835,
                    "velocity": 0.25984251968503935,
                    "duration": 0.0468311250000113
                },
                {
                    "name": "G5",
                    "midi": 79,
                    "time": 164.84555999999836,
                    "velocity": 0.29133858267716534,
                    "duration": 0.0468311250000113
                },
                {
                    "name": "A5",
                    "midi": 81,
                    "time": 164.89239112499837,
                    "velocity": 0.25196850393700787,
                    "duration": 0.0468311250000113
                },
                {
                    "name": "G5",
                    "midi": 79,
                    "time": 164.93922224999838,
                    "velocity": 0.29133858267716534,
                    "duration": 0.06244150000000559
                },
                {
                    "name": "A5",
                    "midi": 81,
                    "time": 165.0016637499984,
                    "velocity": 0.25196850393700787,
                    "duration": 0.06244150000000559
                },
                {
                    "name": "G5",
                    "midi": 79,
                    "time": 165.0641052499984,
                    "velocity": 0.29133858267716534,
                    "duration": 0.06244150000000559
                },
                {
                    "name": "F5",
                    "midi": 77,
                    "time": 165.1265467499984,
                    "velocity": 0.25984251968503935,
                    "duration": 0.0468311250000113
                },
                {
                    "name": "G5",
                    "midi": 79,
                    "time": 165.1733778749984,
                    "velocity": 0.25984251968503935,
                    "duration": 0.0468311250000113
                },
                {
                    "name": "F5",
                    "midi": 77,
                    "time": 165.22020899999842,
                    "velocity": 0.3858267716535433,
                    "duration": 0.3746490000000051
                },
                {
                    "name": "A#5",
                    "midi": 82,
                    "time": 166.34415599999843,
                    "velocity": 0.36220472440944884,
                    "duration": 0.3746490000000051
                },
                {
                    "name": "C6",
                    "midi": 84,
                    "time": 166.71880499999844,
                    "velocity": 0.3937007874015748,
                    "duration": 0.3746490000000051
                },
                {
                    "name": "D6",
                    "midi": 86,
                    "time": 167.09345399999845,
                    "velocity": 0.4015748031496063,
                    "duration": 0.3746490000000051
                },
                {
                    "name": "C6",
                    "midi": 84,
                    "time": 167.46810299999845,
                    "velocity": 0.4015748031496063,
                    "duration": 0.5619734999999935
                },
                {
                    "name": "D6",
                    "midi": 86,
                    "time": 168.03007649999844,
                    "velocity": 0.3779527559055118,
                    "duration": 0.10302847500000212
                },
                {
                    "name": "C6",
                    "midi": 84,
                    "time": 168.12373874999844,
                    "velocity": 0.33858267716535434,
                    "duration": 0.10302847500000212
                },
                {
                    "name": "A#5",
                    "midi": 82,
                    "time": 168.21740099999843,
                    "velocity": 0.3937007874015748,
                    "duration": 0.10302847500000212
                },
                {
                    "name": "A5",
                    "midi": 81,
                    "time": 168.31106324999843,
                    "velocity": 0.3779527559055118,
                    "duration": 0.10302847500000212
                },
                {
                    "name": "G5",
                    "midi": 79,
                    "time": 168.40472549999842,
                    "velocity": 0.3700787401574803,
                    "duration": 0.10302847500000212
                },
                {
                    "name": "F5",
                    "midi": 77,
                    "time": 168.49838774999841,
                    "velocity": 0.3543307086614173,
                    "duration": 0.09366224999999417
                },
                {
                    "name": "A5",
                    "midi": 81,
                    "time": 168.5920499999984,
                    "velocity": 0.3779527559055118,
                    "duration": 0.5619734999999935
                },
                {
                    "name": "A#5",
                    "midi": 82,
                    "time": 169.1540234999984,
                    "velocity": 0.31496062992125984,
                    "duration": 0.18732449999998835
                },
                {
                    "name": "G5",
                    "midi": 79,
                    "time": 169.3413479999984,
                    "velocity": 0.3464566929133858,
                    "duration": 0.3746490000000051
                },
                {
                    "name": "F5",
                    "midi": 77,
                    "time": 169.7159969999984,
                    "velocity": 0.36220472440944884,
                    "duration": 0.3746490000000051
                },
                {
                    "name": "A#4",
                    "midi": 70,
                    "time": 170.8399439999984,
                    "velocity": 0.4094488188976378,
                    "duration": 0.18732449999998835
                },
                {
                    "name": "A#5",
                    "midi": 82,
                    "time": 171.0272684999984,
                    "velocity": 0.3700787401574803,
                    "duration": 0.18732449999998835
                },
                {
                    "name": "C5",
                    "midi": 72,
                    "time": 171.2145929999984,
                    "velocity": 0.4251968503937008,
                    "duration": 0.18732449999998835
                },
                {
                    "name": "C6",
                    "midi": 84,
                    "time": 171.40191749999838,
                    "velocity": 0.3700787401574803,
                    "duration": 0.18732449999998835
                },
                {
                    "name": "D5",
                    "midi": 74,
                    "time": 171.58924199999836,
                    "velocity": 0.4566929133858268,
                    "duration": 0.18732449999998835
                },
                {
                    "name": "D6",
                    "midi": 86,
                    "time": 171.77656649999835,
                    "velocity": 0.4094488188976378,
                    "duration": 0.18732449999998835
                },
                {
                    "name": "C6",
                    "midi": 84,
                    "time": 171.96389099999834,
                    "velocity": 0.48031496062992124,
                    "duration": 0.18732449999998835
                },
                {
                    "name": "D6",
                    "midi": 86,
                    "time": 172.15121549999833,
                    "velocity": 0.4251968503937008,
                    "duration": 0.10302847500000212
                },
                {
                    "name": "E6",
                    "midi": 88,
                    "time": 172.24487774999832,
                    "velocity": 0.4566929133858268,
                    "duration": 0.10302847500000212
                },
                {
                    "name": "F6",
                    "midi": 89,
                    "time": 172.33853999999832,
                    "velocity": 0.48031496062992124,
                    "duration": 0.10302847500000212
                },
                {
                    "name": "E6",
                    "midi": 88,
                    "time": 172.4322022499983,
                    "velocity": 0.48031496062992124,
                    "duration": 0.10302847500000212
                },
                {
                    "name": "D6",
                    "midi": 86,
                    "time": 172.5258644999983,
                    "velocity": 0.47244094488188976,
                    "duration": 0.10302847500000212
                },
                {
                    "name": "C6",
                    "midi": 84,
                    "time": 172.6195267499983,
                    "velocity": 0.4566929133858268,
                    "duration": 0.10302847500000212
                },
                {
                    "name": "A#5",
                    "midi": 82,
                    "time": 172.7131889999983,
                    "velocity": 0.44881889763779526,
                    "duration": 0.10302847500000212
                },
                {
                    "name": "A5",
                    "midi": 81,
                    "time": 172.8068512499983,
                    "velocity": 0.4330708661417323,
                    "duration": 0.10302847500000212
                },
                {
                    "name": "G5",
                    "midi": 79,
                    "time": 172.90051349999828,
                    "velocity": 0.4251968503937008,
                    "duration": 0.10302847500000212
                },
                {
                    "name": "F5",
                    "midi": 77,
                    "time": 172.99417574999828,
                    "velocity": 0.4094488188976378,
                    "duration": 0.09366224999999417
                },
                {
                    "name": "A5",
                    "midi": 81,
                    "time": 173.08783799999827,
                    "velocity": 0.4881889763779528,
                    "duration": 0.5619734999999935
                },
                {
                    "name": "A#5",
                    "midi": 82,
                    "time": 173.64981149999826,
                    "velocity": 0.4409448818897638,
                    "duration": 0.18732449999998835
                },
                {
                    "name": "G5",
                    "midi": 79,
                    "time": 173.83713599999825,
                    "velocity": 0.4881889763779528,
                    "duration": 0.3746490000000051
                },
                {
                    "name": "F5",
                    "midi": 77,
                    "time": 174.21178499999826,
                    "velocity": 0.5275590551181102,
                    "duration": 0.3746490000000051
                },
                {
                    "name": "C6",
                    "midi": 84,
                    "time": 174.68009624999826,
                    "velocity": 0.47244094488188976,
                    "duration": 0.09366224999999417
                },
                {
                    "name": "D6",
                    "midi": 86,
                    "time": 174.77375849999825,
                    "velocity": 0.5118110236220472,
                    "duration": 0.10302847500000212
                },
                {
                    "name": "C6",
                    "midi": 84,
                    "time": 174.86742074999825,
                    "velocity": 0.47244094488188976,
                    "duration": 0.10302847500000212
                },
                {
                    "name": "A#5",
                    "midi": 82,
                    "time": 174.96108299999824,
                    "velocity": 0.5039370078740157,
                    "duration": 0.10302847500000212
                },
                {
                    "name": "A5",
                    "midi": 81,
                    "time": 175.05474524999823,
                    "velocity": 0.4881889763779528,
                    "duration": 0.10302847500000212
                },
                {
                    "name": "A#5",
                    "midi": 82,
                    "time": 175.14840749999823,
                    "velocity": 0.47244094488188976,
                    "duration": 0.10302847500000212
                },
                {
                    "name": "G5",
                    "midi": 79,
                    "time": 175.24206974999822,
                    "velocity": 0.4566929133858268,
                    "duration": 0.10302847500000212
                },
                {
                    "name": "F5",
                    "midi": 77,
                    "time": 175.33573199999822,
                    "velocity": 0.5354330708661418,
                    "duration": 0.3746490000000051
                },
                {
                    "name": "C5",
                    "midi": 72,
                    "time": 175.80404324999822,
                    "velocity": 0.47244094488188976,
                    "duration": 0.10302847500000212
                },
                {
                    "name": "D5",
                    "midi": 74,
                    "time": 175.8977054999982,
                    "velocity": 0.5118110236220472,
                    "duration": 0.10302847500000212
                },
                {
                    "name": "C5",
                    "midi": 72,
                    "time": 175.9913677499982,
                    "velocity": 0.47244094488188976,
                    "duration": 0.10302847500000212
                },
                {
                    "name": "A#4",
                    "midi": 70,
                    "time": 176.0850299999982,
                    "velocity": 0.5039370078740157,
                    "duration": 0.10302847500000212
                },
                {
                    "name": "A4",
                    "midi": 69,
                    "time": 176.1786922499982,
                    "velocity": 0.4881889763779528,
                    "duration": 0.10302847500000212
                },
                {
                    "name": "A#4",
                    "midi": 70,
                    "time": 176.2723544999982,
                    "velocity": 0.47244094488188976,
                    "duration": 0.10302847500000212
                },
                {
                    "name": "G4",
                    "midi": 67,
                    "time": 176.36601674999818,
                    "velocity": 0.4566929133858268,
                    "duration": 0.10302847500000212
                },
                {
                    "name": "F4",
                    "midi": 65,
                    "time": 176.45967899999818,
                    "velocity": 0.5590551181102362,
                    "duration": 0.09366224999999417
                },
                {
                    "name": "A4",
                    "midi": 69,
                    "time": 176.83432799999818,
                    "velocity": 0.4645669291338583,
                    "duration": 0.3746490000000051
                },
                {
                    "name": "C5",
                    "midi": 72,
                    "time": 176.83432799999818,
                    "velocity": 0.4645669291338583,
                    "duration": 0.3746490000000051
                },
                {
                    "name": "F5",
                    "midi": 77,
                    "time": 176.83432799999818,
                    "velocity": 0.6062992125984252,
                    "duration": 0.3746490000000051
                },
                {
                    "name": "F#4",
                    "midi": 66,
                    "time": 177.5836259999982,
                    "velocity": 0.5590551181102362,
                    "duration": 0.3746490000000051
                },
                {
                    "name": "G#4",
                    "midi": 68,
                    "time": 177.9582749999982,
                    "velocity": 0.4645669291338583,
                    "duration": 0.3746490000000051
                },
                {
                    "name": "C5",
                    "midi": 72,
                    "time": 177.9582749999982,
                    "velocity": 0.4645669291338583,
                    "duration": 0.3746490000000051
                },
                {
                    "name": "F#5",
                    "midi": 78,
                    "time": 177.9582749999982,
                    "velocity": 0.6062992125984252,
                    "duration": 0.3746490000000051
                },
                {
                    "name": "C#4",
                    "midi": 61,
                    "time": 178.7075729999982,
                    "velocity": 0.33858267716535434,
                    "duration": 0.7492980000000102
                },
                {
                    "name": "D#4",
                    "midi": 63,
                    "time": 179.45687099999822,
                    "velocity": 0.28346456692913385,
                    "duration": 0.10302847500000212
                },
                {
                    "name": "C#4",
                    "midi": 61,
                    "time": 179.5505332499982,
                    "velocity": 0.28346456692913385,
                    "duration": 0.10302847500000212
                },
                {
                    "name": "C4",
                    "midi": 60,
                    "time": 179.6441954999982,
                    "velocity": 0.28346456692913385,
                    "duration": 0.10302847500000212
                },
                {
                    "name": "C#4",
                    "midi": 61,
                    "time": 179.7378577499982,
                    "velocity": 0.28346456692913385,
                    "duration": 0.09366224999999417
                },
                {
                    "name": "A#4",
                    "midi": 70,
                    "time": 179.8315199999982,
                    "velocity": 0.33070866141732286,
                    "duration": 0.18732449999998835
                },
                {
                    "name": "G#4",
                    "midi": 68,
                    "time": 180.01884449999818,
                    "velocity": 0.29133858267716534,
                    "duration": 0.1826413875000128
                },
                {
                    "name": "G#4",
                    "midi": 68,
                    "time": 180.2061689999982,
                    "velocity": 0.33858267716535434,
                    "duration": 0.3746490000000051
                },
                {
                    "name": "G#4",
                    "midi": 68,
                    "time": 180.5808179999982,
                    "velocity": 0.2992125984251969,
                    "duration": 0.3746490000000051
                },
                {
                    "name": "G#4",
                    "midi": 68,
                    "time": 180.9554669999982,
                    "velocity": 0.30708661417322836,
                    "duration": 0.1966907249999963
                },
                {
                    "name": "C#5",
                    "midi": 73,
                    "time": 181.1427914999982,
                    "velocity": 0.3543307086614173,
                    "duration": 0.1966907250000247
                },
                {
                    "name": "C5",
                    "midi": 72,
                    "time": 181.3301159999982,
                    "velocity": 0.3464566929133858,
                    "duration": 0.1966907250000247
                },
                {
                    "name": "B4",
                    "midi": 71,
                    "time": 181.51744049999823,
                    "velocity": 0.3228346456692913,
                    "duration": 0.1966907250000247
                },
                {
                    "name": "A#4",
                    "midi": 70,
                    "time": 181.70476499999825,
                    "velocity": 0.31496062992125984,
                    "duration": 0.1966907250000247
                },
                {
                    "name": "A4",
                    "midi": 69,
                    "time": 181.89208949999826,
                    "velocity": 0.2992125984251969,
                    "duration": 0.1966907250000247
                },
                {
                    "name": "G#4",
                    "midi": 68,
                    "time": 182.07941399999828,
                    "velocity": 0.3228346456692913,
                    "duration": 0.3746490000000051
                },
                {
                    "name": "C#4",
                    "midi": 61,
                    "time": 183.2033609999983,
                    "velocity": 0.3543307086614173,
                    "duration": 0.7492980000000102
                },
                {
                    "name": "D#4",
                    "midi": 63,
                    "time": 183.9526589999983,
                    "velocity": 0.33070866141732286,
                    "duration": 0.10302847500000212
                },
                {
                    "name": "C#4",
                    "midi": 61,
                    "time": 184.0463212499983,
                    "velocity": 0.30708661417322836,
                    "duration": 0.10302847500000212
                },
                {
                    "name": "C4",
                    "midi": 60,
                    "time": 184.1399834999983,
                    "velocity": 0.33070866141732286,
                    "duration": 0.10302847500000212
                },
                {
                    "name": "C#4",
                    "midi": 61,
                    "time": 184.2336457499983,
                    "velocity": 0.31496062992125984,
                    "duration": 0.09366224999999417
                },
                {
                    "name": "A#4",
                    "midi": 70,
                    "time": 184.32730799999828,
                    "velocity": 0.4251968503937008,
                    "duration": 0.18732449999998835
                },
                {
                    "name": "A4",
                    "midi": 69,
                    "time": 184.51463249999827,
                    "velocity": 0.3779527559055118,
                    "duration": 0.18732449999998835
                },
                {
                    "name": "A4",
                    "midi": 69,
                    "time": 184.70195699999826,
                    "velocity": 0.41732283464566927,
                    "duration": 0.3746490000000051
                },
                {
                    "name": "A4",
                    "midi": 69,
                    "time": 185.07660599999826,
                    "velocity": 0.3700787401574803,
                    "duration": 0.3746490000000051
                },
                {
                    "name": "A#4",
                    "midi": 70,
                    "time": 185.45125499999827,
                    "velocity": 0.3937007874015748,
                    "duration": 0.1966907249999963
                },
                {
                    "name": "F5",
                    "midi": 77,
                    "time": 185.63857949999826,
                    "velocity": 0.4251968503937008,
                    "duration": 0.1966907250000247
                },
                {
                    "name": "C#5",
                    "midi": 73,
                    "time": 185.82590399999827,
                    "velocity": 0.4330708661417323,
                    "duration": 0.1966907250000247
                },
                {
                    "name": "C5",
                    "midi": 72,
                    "time": 186.0132284999983,
                    "velocity": 0.41732283464566927,
                    "duration": 0.1966907250000247
                },
                {
                    "name": "A#4",
                    "midi": 70,
                    "time": 186.2005529999983,
                    "velocity": 0.4015748031496063,
                    "duration": 0.1966907250000247
                },
                {
                    "name": "G#4",
                    "midi": 68,
                    "time": 186.38787749999832,
                    "velocity": 0.3937007874015748,
                    "duration": 0.1966907250000247
                },
                {
                    "name": "G4",
                    "midi": 67,
                    "time": 186.57520199999834,
                    "velocity": 0.3937007874015748,
                    "duration": 0.3746490000000051
                },
                {
                    "name": "G#4",
                    "midi": 68,
                    "time": 187.69914899999836,
                    "velocity": 0.4645669291338583,
                    "duration": 0.1966907249999963
                },
                {
                    "name": "G#5",
                    "midi": 80,
                    "time": 187.88647349999835,
                    "velocity": 0.4881889763779528,
                    "duration": 0.1966907250000247
                },
                {
                    "name": "F5",
                    "midi": 77,
                    "time": 188.07379799999836,
                    "velocity": 0.48031496062992124,
                    "duration": 0.1966907250000247
                },
                {
                    "name": "D#5",
                    "midi": 75,
                    "time": 188.26112249999838,
                    "velocity": 0.47244094488188976,
                    "duration": 0.1966907250000247
                },
                {
                    "name": "D5",
                    "midi": 74,
                    "time": 188.4484469999984,
                    "velocity": 0.4566929133858268,
                    "duration": 0.1966907250000247
                },
                {
                    "name": "C5",
                    "midi": 72,
                    "time": 188.6357714999984,
                    "velocity": 0.44881889763779526,
                    "duration": 0.1966907250000247
                },
                {
                    "name": "B4",
                    "midi": 71,
                    "time": 188.82309599999843,
                    "velocity": 0.4881889763779528,
                    "duration": 0.3746490000000051
                },
                {
                    "name": "C5",
                    "midi": 72,
                    "time": 189.94704299999844,
                    "velocity": 0.48031496062992124,
                    "duration": 0.1966907249999963
                },
                {
                    "name": "D#6",
                    "midi": 87,
                    "time": 190.13436749999843,
                    "velocity": 0.5039370078740157,
                    "duration": 0.1966907250000247
                },
                {
                    "name": "C6",
                    "midi": 84,
                    "time": 190.32169199999845,
                    "velocity": 0.48031496062992124,
                    "duration": 0.1966907250000247
                },
                {
                    "name": "A#5",
                    "midi": 82,
                    "time": 190.50901649999847,
                    "velocity": 0.47244094488188976,
                    "duration": 0.1966907250000247
                },
                {
                    "name": "G#5",
                    "midi": 80,
                    "time": 190.69634099999848,
                    "velocity": 0.4330708661417323,
                    "duration": 0.1966907250000247
                },
                {
                    "name": "G5",
                    "midi": 79,
                    "time": 190.8836654999985,
                    "velocity": 0.4409448818897638,
                    "duration": 0.1966907250000247
                },
                {
                    "name": "F#5",
                    "midi": 78,
                    "time": 191.07098999999852,
                    "velocity": 0.47244094488188976,
                    "duration": 0.3746490000000051
                },
                {
                    "name": "G5",
                    "midi": 79,
                    "time": 192.19493699999853,
                    "velocity": 0.4566929133858268,
                    "duration": 0.1966907249999963
                },
                {
                    "name": "A#5",
                    "midi": 82,
                    "time": 192.38226149999852,
                    "velocity": 0.47244094488188976,
                    "duration": 0.1966907250000247
                },
                {
                    "name": "G5",
                    "midi": 79,
                    "time": 192.56958599999854,
                    "velocity": 0.4566929133858268,
                    "duration": 0.1966907250000247
                },
                {
                    "name": "F5",
                    "midi": 77,
                    "time": 192.75691049999855,
                    "velocity": 0.4330708661417323,
                    "duration": 0.1966907250000247
                },
                {
                    "name": "D#5",
                    "midi": 75,
                    "time": 192.94423499999857,
                    "velocity": 0.41732283464566927,
                    "duration": 0.1966907250000247
                },
                {
                    "name": "D5",
                    "midi": 74,
                    "time": 193.1315594999986,
                    "velocity": 0.3937007874015748,
                    "duration": 0.1966907250000247
                },
                {
                    "name": "C#5",
                    "midi": 73,
                    "time": 193.3188839999986,
                    "velocity": 0.44881889763779526,
                    "duration": 0.3746490000000051
                },
                {
                    "name": "D5",
                    "midi": 74,
                    "time": 194.5364932499986,
                    "velocity": 0.36220472440944884,
                    "duration": 0.09366224999999417
                },
                {
                    "name": "C#5",
                    "midi": 73,
                    "time": 194.6301554999986,
                    "velocity": 0.3858267716535433,
                    "duration": 0.09366224999999417
                },
                {
                    "name": "D5",
                    "midi": 74,
                    "time": 194.7238177499986,
                    "velocity": 0.3464566929133858,
                    "duration": 0.09366224999999417
                },
                {
                    "name": "E5",
                    "midi": 76,
                    "time": 194.8174799999986,
                    "velocity": 0.3858267716535433,
                    "duration": 0.09366224999999417
                },
                {
                    "name": "D5",
                    "midi": 74,
                    "time": 194.9111422499986,
                    "velocity": 0.3464566929133858,
                    "duration": 0.09366224999999417
                },
                {
                    "name": "C#5",
                    "midi": 73,
                    "time": 195.00480449999858,
                    "velocity": 0.3858267716535433,
                    "duration": 0.09366224999999417
                },
                {
                    "name": "D5",
                    "midi": 74,
                    "time": 195.09846674999858,
                    "velocity": 0.3464566929133858,
                    "duration": 0.09366224999999417
                },
                {
                    "name": "D5",
                    "midi": 74,
                    "time": 195.28579124999857,
                    "velocity": 0.3858267716535433,
                    "duration": 0.09366224999999417
                },
                {
                    "name": "F#5",
                    "midi": 78,
                    "time": 195.37945349999856,
                    "velocity": 0.4251968503937008,
                    "duration": 0.09366224999999417
                },
                {
                    "name": "D5",
                    "midi": 74,
                    "time": 195.47311574999856,
                    "velocity": 0.3858267716535433,
                    "duration": 0.09366224999999417
                },
                {
                    "name": "D5",
                    "midi": 74,
                    "time": 195.66044024999854,
                    "velocity": 0.41732283464566927,
                    "duration": 0.09366224999999417
                },
                {
                    "name": "G5",
                    "midi": 79,
                    "time": 195.75410249999854,
                    "velocity": 0.44881889763779526,
                    "duration": 0.09366224999999417
                },
                {
                    "name": "D5",
                    "midi": 74,
                    "time": 195.84776474999853,
                    "velocity": 0.4094488188976378,
                    "duration": 0.09366224999999417
                },
                {
                    "name": "D5",
                    "midi": 74,
                    "time": 196.03508924999852,
                    "velocity": 0.4330708661417323,
                    "duration": 0.09366224999999417
                },
                {
                    "name": "C6",
                    "midi": 84,
                    "time": 196.12875149999851,
                    "velocity": 0.48031496062992124,
                    "duration": 0.09366224999999417
                },
                {
                    "name": "D5",
                    "midi": 74,
                    "time": 196.2224137499985,
                    "velocity": 0.44881889763779526,
                    "duration": 0.09366224999999417
                },
                {
                    "name": "D5",
                    "midi": 74,
                    "time": 196.4097382499985,
                    "velocity": 0.44881889763779526,
                    "duration": 0.09366224999999417
                },
                {
                    "name": "A#5",
                    "midi": 82,
                    "time": 196.5034004999985,
                    "velocity": 0.5039370078740157,
                    "duration": 0.09366224999999417
                },
                {
                    "name": "D5",
                    "midi": 74,
                    "time": 196.59706274999849,
                    "velocity": 0.44881889763779526,
                    "duration": 0.09366224999999417
                },
                {
                    "name": "A5",
                    "midi": 81,
                    "time": 196.69072499999848,
                    "velocity": 0.5039370078740157,
                    "duration": 0.09366224999999417
                },
                {
                    "name": "F#5",
                    "midi": 78,
                    "time": 196.78438724999847,
                    "velocity": 0.44881889763779526,
                    "duration": 0.09366224999999417
                },
                {
                    "name": "E5",
                    "midi": 76,
                    "time": 196.87804949999847,
                    "velocity": 0.4645669291338583,
                    "duration": 0.09366224999999417
                },
                {
                    "name": "D5",
                    "midi": 74,
                    "time": 196.97171174999846,
                    "velocity": 0.44881889763779526,
                    "duration": 0.09366224999999417
                },
                {
                    "name": "C#5",
                    "midi": 73,
                    "time": 197.06537399999846,
                    "velocity": 0.44881889763779526,
                    "duration": 0.09366224999999417
                },
                {
                    "name": "D5",
                    "midi": 74,
                    "time": 197.15903624999845,
                    "velocity": 0.4645669291338583,
                    "duration": 0.09366224999999417
                },
                {
                    "name": "E5",
                    "midi": 76,
                    "time": 197.25269849999844,
                    "velocity": 0.47244094488188976,
                    "duration": 0.09366224999999417
                },
                {
                    "name": "D5",
                    "midi": 74,
                    "time": 197.34636074999844,
                    "velocity": 0.4409448818897638,
                    "duration": 0.09366224999999417
                },
                {
                    "name": "D5",
                    "midi": 74,
                    "time": 197.53368524999843,
                    "velocity": 0.3858267716535433,
                    "duration": 0.09366224999999417
                },
                {
                    "name": "F#5",
                    "midi": 78,
                    "time": 197.62734749999842,
                    "velocity": 0.41732283464566927,
                    "duration": 0.09366224999999417
                },
                {
                    "name": "D5",
                    "midi": 74,
                    "time": 197.72100974999842,
                    "velocity": 0.3858267716535433,
                    "duration": 0.09366224999999417
                },
                {
                    "name": "D5",
                    "midi": 74,
                    "time": 197.9083342499984,
                    "velocity": 0.4094488188976378,
                    "duration": 0.09366224999999417
                },
                {
                    "name": "G5",
                    "midi": 79,
                    "time": 198.0019964999984,
                    "velocity": 0.4566929133858268,
                    "duration": 0.09366224999999417
                },
                {
                    "name": "D5",
                    "midi": 74,
                    "time": 198.0956587499984,
                    "velocity": 0.4251968503937008,
                    "duration": 0.09366224999999417
                },
                {
                    "name": "D5",
                    "midi": 74,
                    "time": 198.28298324999838,
                    "velocity": 0.4330708661417323,
                    "duration": 0.09366224999999417
                },
                {
                    "name": "C6",
                    "midi": 84,
                    "time": 198.37664549999838,
                    "velocity": 0.48031496062992124,
                    "duration": 0.09366224999999417
                },
                {
                    "name": "D5",
                    "midi": 74,
                    "time": 198.47030774999837,
                    "velocity": 0.4330708661417323,
                    "duration": 0.09366224999999417
                },
                {
                    "name": "D5",
                    "midi": 74,
                    "time": 198.65763224999836,
                    "velocity": 0.3858267716535433,
                    "duration": 0.09366224999999417
                },
                {
                    "name": "A#5",
                    "midi": 82,
                    "time": 198.75129449999835,
                    "velocity": 0.5354330708661418,
                    "duration": 0.09366224999999417
                },
                {
                    "name": "D5",
                    "midi": 74,
                    "time": 198.84495674999835,
                    "velocity": 0.4881889763779528,
                    "duration": 0.09366224999999417
                },
                {
                    "name": "A5",
                    "midi": 81,
                    "time": 198.93861899999834,
                    "velocity": 0.5511811023622047,
                    "duration": 0.09366224999999417
                },
                {
                    "name": "D6",
                    "midi": 86,
                    "time": 199.03228124999833,
                    "velocity": 0.47244094488188976,
                    "duration": 0.09366224999999417
                },
                {
                    "name": "A5",
                    "midi": 81,
                    "time": 199.12594349999833,
                    "velocity": 0.5433070866141733,
                    "duration": 0.09366224999999417
                },
                {
                    "name": "F#5",
                    "midi": 78,
                    "time": 199.21960574999832,
                    "velocity": 0.44881889763779526,
                    "duration": 0.09366224999999417
                },
                {
                    "name": "D5",
                    "midi": 74,
                    "time": 199.31326799999832,
                    "velocity": 0.5275590551181102,
                    "duration": 0.09366224999999417
                },
                {
                    "name": "A5",
                    "midi": 81,
                    "time": 199.4069302499983,
                    "velocity": 0.4330708661417323,
                    "duration": 0.09366224999999417
                },
                {
                    "name": "F#5",
                    "midi": 78,
                    "time": 199.5005924999983,
                    "velocity": 0.48031496062992124,
                    "duration": 0.09366224999999417
                },
                {
                    "name": "D5",
                    "midi": 74,
                    "time": 199.5942547499983,
                    "velocity": 0.4251968503937008,
                    "duration": 0.09366224999999417
                },
                {
                    "name": "A4",
                    "midi": 69,
                    "time": 199.6879169999983,
                    "velocity": 0.49606299212598426,
                    "duration": 0.09366224999999417
                },
                {
                    "name": "D5",
                    "midi": 74,
                    "time": 199.7815792499983,
                    "velocity": 0.4330708661417323,
                    "duration": 0.09366224999999417
                },
                {
                    "name": "A4",
                    "midi": 69,
                    "time": 199.87524149999828,
                    "velocity": 0.5118110236220472,
                    "duration": 0.09366224999999417
                },
                {
                    "name": "F#4",
                    "midi": 66,
                    "time": 199.96890374999828,
                    "velocity": 0.4645669291338583,
                    "duration": 0.09366224999999417
                },
                {
                    "name": "D4",
                    "midi": 62,
                    "time": 200.06256599999827,
                    "velocity": 0.6692913385826772,
                    "duration": 0.09366224999999417
                },
                {
                    "name": "A4",
                    "midi": 69,
                    "time": 200.43721499999828,
                    "velocity": 0.4881889763779528,
                    "duration": 0.3746490000000051
                },
                {
                    "name": "F#4",
                    "midi": 66,
                    "time": 200.43721499999828,
                    "velocity": 0.4881889763779528,
                    "duration": 0.3746490000000051
                },
                {
                    "name": "D5",
                    "midi": 74,
                    "time": 200.43721499999828,
                    "velocity": 0.5748031496062992,
                    "duration": 0.3746490000000051
                },
                {
                    "name": "D6",
                    "midi": 86,
                    "time": 203.62173149999828,
                    "velocity": 0.3543307086614173,
                    "duration": 0.0468311250000113
                },
                {
                    "name": "D6",
                    "midi": 86,
                    "time": 203.8090559999983,
                    "velocity": 0.3858267716535433,
                    "duration": 0.0468311250000113
                },
                {
                    "name": "D6",
                    "midi": 86,
                    "time": 203.9963804999983,
                    "velocity": 0.33858267716535434,
                    "duration": 0.0468311250000113
                },
                {
                    "name": "D6",
                    "midi": 86,
                    "time": 204.18370499999833,
                    "velocity": 0.36220472440944884,
                    "duration": 0.0468311250000113
                },
                {
                    "name": "D6",
                    "midi": 86,
                    "time": 204.37102949999834,
                    "velocity": 0.31496062992125984,
                    "duration": 0.0468311250000113
                },
                {
                    "name": "D#6",
                    "midi": 87,
                    "time": 204.55835399999836,
                    "velocity": 0.3543307086614173,
                    "duration": 0.1966907249999963
                },
                {
                    "name": "D6",
                    "midi": 86,
                    "time": 204.74567849999835,
                    "velocity": 0.31496062992125984,
                    "duration": 0.1966907250000247
                },
                {
                    "name": "C6",
                    "midi": 84,
                    "time": 204.93300299999837,
                    "velocity": 0.33858267716535434,
                    "duration": 0.1966907250000247
                },
                {
                    "name": "B5",
                    "midi": 83,
                    "time": 205.12032749999838,
                    "velocity": 0.31496062992125984,
                    "duration": 0.1966907250000247
                },
                {
                    "name": "G#5",
                    "midi": 80,
                    "time": 205.3076519999984,
                    "velocity": 0.3543307086614173,
                    "duration": 0.1966907250000247
                },
                {
                    "name": "G5",
                    "midi": 79,
                    "time": 205.49497649999842,
                    "velocity": 0.30708661417322836,
                    "duration": 0.18732450000001677
                },
                {
                    "name": "G5",
                    "midi": 79,
                    "time": 205.68230099999843,
                    "velocity": 0.3228346456692913,
                    "duration": 0.0468311250000113
                },
                {
                    "name": "G#5",
                    "midi": 80,
                    "time": 205.72913212499844,
                    "velocity": 0.30708661417322836,
                    "duration": 0.0468311250000113
                },
                {
                    "name": "G5",
                    "midi": 79,
                    "time": 205.77596324999845,
                    "velocity": 0.3858267716535433,
                    "duration": 0.09366224999999417
                },
                {
                    "name": "F5",
                    "midi": 77,
                    "time": 205.86962549999845,
                    "velocity": 0.3464566929133858,
                    "duration": 0.1795193124999912
                },
                {
                    "name": "F5",
                    "midi": 77,
                    "time": 206.05694999999844,
                    "velocity": 0.36220472440944884,
                    "duration": 0.3746490000000051
                },
                {
                    "name": "F5",
                    "midi": 77,
                    "time": 208.11751949999845,
                    "velocity": 0.3543307086614173,
                    "duration": 0.0468311250000113
                },
                {
                    "name": "F5",
                    "midi": 77,
                    "time": 208.30484399999847,
                    "velocity": 0.3779527559055118,
                    "duration": 0.0468311250000113
                },
                {
                    "name": "F5",
                    "midi": 77,
                    "time": 208.49216849999848,
                    "velocity": 0.33070866141732286,
                    "duration": 0.0468311250000113
                },
                {
                    "name": "F5",
                    "midi": 77,
                    "time": 208.6794929999985,
                    "velocity": 0.3464566929133858,
                    "duration": 0.0468311250000113
                },
                {
                    "name": "F5",
                    "midi": 77,
                    "time": 208.86681749999852,
                    "velocity": 0.31496062992125984,
                    "duration": 0.0468311250000113
                },
                {
                    "name": "G5",
                    "midi": 79,
                    "time": 209.05414199999854,
                    "velocity": 0.3543307086614173,
                    "duration": 0.1966907249999963
                },
                {
                    "name": "F5",
                    "midi": 77,
                    "time": 209.24146649999852,
                    "velocity": 0.31496062992125984,
                    "duration": 0.1966907250000247
                },
                {
                    "name": "D#5",
                    "midi": 75,
                    "time": 209.42879099999854,
                    "velocity": 0.31496062992125984,
                    "duration": 0.1966907250000247
                },
                {
                    "name": "D5",
                    "midi": 74,
                    "time": 209.61611549999856,
                    "velocity": 0.31496062992125984,
                    "duration": 0.1966907250000247
                },
                {
                    "name": "C5",
                    "midi": 72,
                    "time": 209.80343999999857,
                    "velocity": 0.3543307086614173,
                    "duration": 0.1966907250000247
                },
                {
                    "name": "B4",
                    "midi": 71,
                    "time": 209.9907644999986,
                    "velocity": 0.30708661417322836,
                    "duration": 0.18732450000001677
                },
                {
                    "name": "C5",
                    "midi": 72,
                    "time": 210.1780889999986,
                    "velocity": 0.3779527559055118,
                    "duration": 0.7649083750000045
                },
                {
                    "name": "G4",
                    "midi": 67,
                    "time": 210.92738699999862,
                    "velocity": 0.33070866141732286,
                    "duration": 0.3746490000000051
                },
                {
                    "name": "D#4",
                    "midi": 63,
                    "time": 211.30203599999862,
                    "velocity": 0.3779527559055118,
                    "duration": 0.7649083750000045
                },
                {
                    "name": "G4",
                    "midi": 67,
                    "time": 212.05133399999863,
                    "velocity": 0.3543307086614173,
                    "duration": 0.3746490000000051
                },
                {
                    "name": "C5",
                    "midi": 72,
                    "time": 212.42598299999864,
                    "velocity": 0.3937007874015748,
                    "duration": 0.7649083750000045
                },
                {
                    "name": "D#5",
                    "midi": 75,
                    "time": 213.17528099999865,
                    "velocity": 0.4094488188976378,
                    "duration": 0.3746490000000051
                },
                {
                    "name": "G5",
                    "midi": 79,
                    "time": 213.54992999999865,
                    "velocity": 0.4409448818897638,
                    "duration": 0.3746490000000051
                },
                {
                    "name": "E5",
                    "midi": 76,
                    "time": 214.67387699999867,
                    "velocity": 0.4566929133858268,
                    "duration": 0.7649083750000045
                },
                {
                    "name": "C5",
                    "midi": 72,
                    "time": 215.42317499999868,
                    "velocity": 0.4094488188976378,
                    "duration": 0.3746490000000051
                },
                {
                    "name": "G4",
                    "midi": 67,
                    "time": 215.79782399999868,
                    "velocity": 0.4330708661417323,
                    "duration": 0.7649083750000045
                },
                {
                    "name": "C5",
                    "midi": 72,
                    "time": 216.5471219999987,
                    "velocity": 0.3858267716535433,
                    "duration": 0.3746490000000051
                },
                {
                    "name": "E5",
                    "midi": 76,
                    "time": 216.9217709999987,
                    "velocity": 0.41732283464566927,
                    "duration": 0.7649083750000045
                },
                {
                    "name": "G5",
                    "midi": 79,
                    "time": 217.6710689999987,
                    "velocity": 0.4251968503937008,
                    "duration": 0.3746490000000051
                },
                {
                    "name": "A#5",
                    "midi": 82,
                    "time": 218.04571799999871,
                    "velocity": 0.4566929133858268,
                    "duration": 0.3746490000000051
                },
                {
                    "name": "G#5",
                    "midi": 80,
                    "time": 219.35698949999872,
                    "velocity": 0.3543307086614173,
                    "duration": 0.0468311250000113
                },
                {
                    "name": "G#5",
                    "midi": 80,
                    "time": 219.54431399999874,
                    "velocity": 0.3858267716535433,
                    "duration": 0.0468311250000113
                },
                {
                    "name": "G#5",
                    "midi": 80,
                    "time": 219.73163849999875,
                    "velocity": 0.33858267716535434,
                    "duration": 0.0468311250000113
                },
                {
                    "name": "G#5",
                    "midi": 80,
                    "time": 219.91896299999877,
                    "velocity": 0.36220472440944884,
                    "duration": 0.0468311250000113
                },
                {
                    "name": "G#5",
                    "midi": 80,
                    "time": 220.10628749999879,
                    "velocity": 0.31496062992125984,
                    "duration": 0.0468311250000113
                },
                {
                    "name": "A#5",
                    "midi": 82,
                    "time": 220.2936119999988,
                    "velocity": 0.3543307086614173,
                    "duration": 0.1966907249999963
                },
                {
                    "name": "G#5",
                    "midi": 80,
                    "time": 220.4809364999988,
                    "velocity": 0.31496062992125984,
                    "duration": 0.1966907250000247
                },
                {
                    "name": "G5",
                    "midi": 79,
                    "time": 220.6682609999988,
                    "velocity": 0.33858267716535434,
                    "duration": 0.1966907250000247
                },
                {
                    "name": "F5",
                    "midi": 77,
                    "time": 220.85558549999882,
                    "velocity": 0.31496062992125984,
                    "duration": 0.1966907250000247
                },
                {
                    "name": "D#5",
                    "midi": 75,
                    "time": 221.04290999999884,
                    "velocity": 0.3543307086614173,
                    "duration": 0.1966907250000247
                },
                {
                    "name": "D5",
                    "midi": 74,
                    "time": 221.23023449999886,
                    "velocity": 0.30708661417322836,
                    "duration": 0.18732450000001677
                },
                {
                    "name": "G5",
                    "midi": 79,
                    "time": 221.60488349999886,
                    "velocity": 0.3543307086614173,
                    "duration": 0.0468311250000113
                },
                {
                    "name": "G5",
                    "midi": 79,
                    "time": 221.79220799999888,
                    "velocity": 0.3858267716535433,
                    "duration": 0.0468311250000113
                },
                {
                    "name": "G5",
                    "midi": 79,
                    "time": 221.9795324999989,
                    "velocity": 0.33858267716535434,
                    "duration": 0.0468311250000113
                },
                {
                    "name": "G5",
                    "midi": 79,
                    "time": 222.1668569999989,
                    "velocity": 0.36220472440944884,
                    "duration": 0.0468311250000113
                },
                {
                    "name": "G5",
                    "midi": 79,
                    "time": 222.35418149999893,
                    "velocity": 0.31496062992125984,
                    "duration": 0.0468311250000113
                },
                {
                    "name": "G#5",
                    "midi": 80,
                    "time": 222.54150599999895,
                    "velocity": 0.3543307086614173,
                    "duration": 0.1966907249999963
                },
                {
                    "name": "G5",
                    "midi": 79,
                    "time": 222.72883049999894,
                    "velocity": 0.31496062992125984,
                    "duration": 0.1966907250000247
                },
                {
                    "name": "F5",
                    "midi": 77,
                    "time": 222.91615499999895,
                    "velocity": 0.33858267716535434,
                    "duration": 0.1966907250000247
                },
                {
                    "name": "D#5",
                    "midi": 75,
                    "time": 223.10347949999897,
                    "velocity": 0.31496062992125984,
                    "duration": 0.1966907250000247
                },
                {
                    "name": "D5",
                    "midi": 74,
                    "time": 223.29080399999899,
                    "velocity": 0.3543307086614173,
                    "duration": 0.1966907250000247
                },
                {
                    "name": "C5",
                    "midi": 72,
                    "time": 223.478128499999,
                    "velocity": 0.30708661417322836,
                    "duration": 0.18732450000001677
                },
                {
                    "name": "F5",
                    "midi": 77,
                    "time": 223.852777499999,
                    "velocity": 0.3543307086614173,
                    "duration": 0.0468311250000113
                },
                {
                    "name": "F5",
                    "midi": 77,
                    "time": 224.04010199999902,
                    "velocity": 0.3858267716535433,
                    "duration": 0.0468311250000113
                },
                {
                    "name": "F5",
                    "midi": 77,
                    "time": 224.22742649999904,
                    "velocity": 0.33858267716535434,
                    "duration": 0.0468311250000113
                },
                {
                    "name": "F5",
                    "midi": 77,
                    "time": 224.41475099999906,
                    "velocity": 0.36220472440944884,
                    "duration": 0.0468311250000113
                },
                {
                    "name": "F5",
                    "midi": 77,
                    "time": 224.60207549999907,
                    "velocity": 0.31496062992125984,
                    "duration": 0.0468311250000113
                },
                {
                    "name": "G5",
                    "midi": 79,
                    "time": 224.7893999999991,
                    "velocity": 0.4015748031496063,
                    "duration": 0.1966907249999963
                },
                {
                    "name": "F5",
                    "midi": 77,
                    "time": 224.97672449999908,
                    "velocity": 0.3937007874015748,
                    "duration": 0.1966907250000247
                },
                {
                    "name": "D#5",
                    "midi": 75,
                    "time": 225.1640489999991,
                    "velocity": 0.3858267716535433,
                    "duration": 0.1966907250000247
                },
                {
                    "name": "D5",
                    "midi": 74,
                    "time": 225.3513734999991,
                    "velocity": 0.3779527559055118,
                    "duration": 0.1966907250000247
                },
                {
                    "name": "C5",
                    "midi": 72,
                    "time": 225.53869799999913,
                    "velocity": 0.3700787401574803,
                    "duration": 0.1966907250000247
                },
                {
                    "name": "B4",
                    "midi": 71,
                    "time": 225.72602249999915,
                    "velocity": 0.3700787401574803,
                    "duration": 0.18732450000001677
                },
                {
                    "name": "F5",
                    "midi": 77,
                    "time": 225.91334699999916,
                    "velocity": 0.4409448818897638,
                    "duration": 0.1966907249999963
                },
                {
                    "name": "D#5",
                    "midi": 75,
                    "time": 226.10067149999915,
                    "velocity": 0.4251968503937008,
                    "duration": 0.1966907250000247
                },
                {
                    "name": "D5",
                    "midi": 74,
                    "time": 226.28799599999917,
                    "velocity": 0.4094488188976378,
                    "duration": 0.1966907250000247
                },
                {
                    "name": "C5",
                    "midi": 72,
                    "time": 226.47532049999919,
                    "velocity": 0.4015748031496063,
                    "duration": 0.1966907250000247
                },
                {
                    "name": "A#4",
                    "midi": 70,
                    "time": 226.6626449999992,
                    "velocity": 0.3858267716535433,
                    "duration": 0.1966907250000247
                },
                {
                    "name": "A4",
                    "midi": 69,
                    "time": 226.84996949999922,
                    "velocity": 0.3700787401574803,
                    "duration": 0.18732450000001677
                },
                {
                    "name": "C6",
                    "midi": 84,
                    "time": 227.03729399999924,
                    "velocity": 0.47244094488188976,
                    "duration": 0.1966907249999963
                },
                {
                    "name": "A#5",
                    "midi": 82,
                    "time": 227.22461849999922,
                    "velocity": 0.4566929133858268,
                    "duration": 0.1966907250000247
                },
                {
                    "name": "A5",
                    "midi": 81,
                    "time": 227.41194299999924,
                    "velocity": 0.4409448818897638,
                    "duration": 0.1966907250000247
                },
                {
                    "name": "G5",
                    "midi": 79,
                    "time": 227.59926749999926,
                    "velocity": 0.4251968503937008,
                    "duration": 0.1966907250000247
                },
                {
                    "name": "F5",
                    "midi": 77,
                    "time": 227.78659199999927,
                    "velocity": 0.4251968503937008,
                    "duration": 0.1966907250000247
                },
                {
                    "name": "E5",
                    "midi": 76,
                    "time": 227.9739164999993,
                    "velocity": 0.44881889763779526,
                    "duration": 0.18732450000001677
                },
                {
                    "name": "F5",
                    "midi": 77,
                    "time": 228.1612409999993,
                    "velocity": 0.48031496062992124,
                    "duration": 0.3746490000000051
                },
                {
                    "name": "A4",
                    "midi": 69,
                    "time": 228.91053899999932,
                    "velocity": 0.3543307086614173,
                    "duration": 0.3746490000000051
                },
                {
                    "name": "D#5",
                    "midi": 75,
                    "time": 228.91053899999932,
                    "velocity": 0.4330708661417323,
                    "duration": 0.3746490000000051
                },
                {
                    "name": "A#4",
                    "midi": 70,
                    "time": 229.28518799999932,
                    "velocity": 0.3543307086614173,
                    "duration": 0.3746490000000051
                },
                {
                    "name": "C#5",
                    "midi": 73,
                    "time": 229.28518799999932,
                    "velocity": 0.47244094488188976,
                    "duration": 0.3746490000000051
                },
                {
                    "name": "C#5",
                    "midi": 73,
                    "time": 230.03448599999933,
                    "velocity": 0.3543307086614173,
                    "duration": 0.3746490000000051
                },
                {
                    "name": "A#5",
                    "midi": 82,
                    "time": 230.03448599999933,
                    "velocity": 0.4330708661417323,
                    "duration": 0.3746490000000051
                },
                {
                    "name": "C5",
                    "midi": 72,
                    "time": 230.40913499999934,
                    "velocity": 0.3543307086614173,
                    "duration": 0.3746490000000051
                },
                {
                    "name": "A5",
                    "midi": 81,
                    "time": 230.40913499999934,
                    "velocity": 0.48031496062992124,
                    "duration": 0.3746490000000051
                },
                {
                    "name": "D#4",
                    "midi": 63,
                    "time": 231.15843299999935,
                    "velocity": 0.3543307086614173,
                    "duration": 0.3746490000000051
                },
                {
                    "name": "A4",
                    "midi": 69,
                    "time": 231.15843299999935,
                    "velocity": 0.4330708661417323,
                    "duration": 0.3746490000000051
                },
                {
                    "name": "C#4",
                    "midi": 61,
                    "time": 231.53308199999935,
                    "velocity": 0.3543307086614173,
                    "duration": 0.3746490000000051
                },
                {
                    "name": "A#4",
                    "midi": 70,
                    "time": 231.53308199999935,
                    "velocity": 0.47244094488188976,
                    "duration": 0.3746490000000051
                },
                {
                    "name": "A#3",
                    "midi": 58,
                    "time": 232.28237999999936,
                    "velocity": 0.3543307086614173,
                    "duration": 0.3746490000000051
                },
                {
                    "name": "C#4",
                    "midi": 61,
                    "time": 232.28237999999936,
                    "velocity": 0.4330708661417323,
                    "duration": 0.3746490000000051
                },
                {
                    "name": "A3",
                    "midi": 57,
                    "time": 232.65702899999937,
                    "velocity": 0.3543307086614173,
                    "duration": 0.18732449999998835
                },
                {
                    "name": "C4",
                    "midi": 60,
                    "time": 232.65702899999937,
                    "velocity": 0.47244094488188976,
                    "duration": 0.18732449999998835
                },
                {
                    "name": "F4",
                    "midi": 65,
                    "time": 232.84435349999936,
                    "velocity": 0.3543307086614173,
                    "duration": 0.0468311250000113
                },
                {
                    "name": "F4",
                    "midi": 65,
                    "time": 233.03167799999937,
                    "velocity": 0.3858267716535433,
                    "duration": 0.0468311250000113
                },
                {
                    "name": "F4",
                    "midi": 65,
                    "time": 233.2190024999994,
                    "velocity": 0.33858267716535434,
                    "duration": 0.0468311250000113
                },
                {
                    "name": "F4",
                    "midi": 65,
                    "time": 233.4063269999994,
                    "velocity": 0.36220472440944884,
                    "duration": 0.0468311250000113
                },
                {
                    "name": "F4",
                    "midi": 65,
                    "time": 233.59365149999942,
                    "velocity": 0.31496062992125984,
                    "duration": 0.0468311250000113
                },
                {
                    "name": "E4",
                    "midi": 64,
                    "time": 233.78097599999944,
                    "velocity": 0.3464566929133858,
                    "duration": 0.18732449999998835
                },
                {
                    "name": "F4",
                    "midi": 65,
                    "time": 233.96830049999943,
                    "velocity": 0.31496062992125984,
                    "duration": 0.18732449999998835
                },
                {
                    "name": "G4",
                    "midi": 67,
                    "time": 234.15562499999942,
                    "velocity": 0.3543307086614173,
                    "duration": 0.18732449999998835
                },
                {
                    "name": "F4",
                    "midi": 65,
                    "time": 234.3429494999994,
                    "velocity": 0.31496062992125984,
                    "duration": 0.18732449999998835
                },
                {
                    "name": "A#4",
                    "midi": 70,
                    "time": 234.5302739999994,
                    "velocity": 0.33858267716535434,
                    "duration": 0.18732449999998835
                },
                {
                    "name": "A4",
                    "midi": 69,
                    "time": 234.71759849999938,
                    "velocity": 0.31496062992125984,
                    "duration": 0.18732449999998835
                },
                {
                    "name": "D5",
                    "midi": 74,
                    "time": 234.90492299999937,
                    "velocity": 0.3464566929133858,
                    "duration": 0.18732449999998835
                },
                {
                    "name": "C5",
                    "midi": 72,
                    "time": 235.09224749999936,
                    "velocity": 0.31496062992125984,
                    "duration": 0.18732449999998835
                },
                {
                    "name": "D#5",
                    "midi": 75,
                    "time": 235.27957199999935,
                    "velocity": 0.3543307086614173,
                    "duration": 0.18732449999998835
                },
                {
                    "name": "D5",
                    "midi": 74,
                    "time": 235.46689649999934,
                    "velocity": 0.31496062992125984,
                    "duration": 0.18732449999998835
                },
                {
                    "name": "G5",
                    "midi": 79,
                    "time": 235.65422099999932,
                    "velocity": 0.3543307086614173,
                    "duration": 0.18732449999998835
                },
                {
                    "name": "F5",
                    "midi": 77,
                    "time": 235.8415454999993,
                    "velocity": 0.31496062992125984,
                    "duration": 0.14049337500000547
                },
                {
                    "name": "F5",
                    "midi": 77,
                    "time": 236.02886999999933,
                    "velocity": 0.3543307086614173,
                    "duration": 0.5619734999999935
                },
                {
                    "name": "E5",
                    "midi": 76,
                    "time": 236.59084349999932,
                    "velocity": 0.31496062992125984,
                    "duration": 0.18732449999998835
                },
                {
                    "name": "D#5",
                    "midi": 75,
                    "time": 236.7781679999993,
                    "velocity": 0.33858267716535434,
                    "duration": 0.18732449999998835
                },
                {
                    "name": "C5",
                    "midi": 72,
                    "time": 236.9654924999993,
                    "velocity": 0.31496062992125984,
                    "duration": 0.18732449999998835
                },
                {
                    "name": "A#4",
                    "midi": 70,
                    "time": 237.1528169999993,
                    "velocity": 0.3779527559055118,
                    "duration": 0.7492980000000102
                },
                {
                    "name": "F4",
                    "midi": 65,
                    "time": 237.9021149999993,
                    "velocity": 0.3228346456692913,
                    "duration": 0.3746490000000051
                },
                {
                    "name": "D4",
                    "midi": 62,
                    "time": 238.2767639999993,
                    "velocity": 0.3779527559055118,
                    "duration": 0.7492980000000102
                },
                {
                    "name": "F4",
                    "midi": 65,
                    "time": 239.0260619999993,
                    "velocity": 0.3464566929133858,
                    "duration": 0.3746490000000051
                },
                {
                    "name": "A#4",
                    "midi": 70,
                    "time": 239.40071099999932,
                    "velocity": 0.3779527559055118,
                    "duration": 0.7492980000000102
                },
                {
                    "name": "D5",
                    "midi": 74,
                    "time": 240.15000899999933,
                    "velocity": 0.4015748031496063,
                    "duration": 0.3746490000000051
                },
                {
                    "name": "F5",
                    "midi": 77,
                    "time": 240.52465799999933,
                    "velocity": 0.4409448818897638,
                    "duration": 0.7492980000000102
                },
                {
                    "name": "A#5",
                    "midi": 82,
                    "time": 241.27395599999934,
                    "velocity": 0.4566929133858268,
                    "duration": 0.18732449999998835
                },
                {
                    "name": "D5",
                    "midi": 74,
                    "time": 241.46128049999933,
                    "velocity": 0.4015748031496063,
                    "duration": 0.18732449999998835
                },
                {
                    "name": "F5",
                    "midi": 77,
                    "time": 241.64860499999932,
                    "velocity": 0.4409448818897638,
                    "duration": 0.1966907249999963
                },
                {
                    "name": "D#5",
                    "midi": 75,
                    "time": 241.8359294999993,
                    "velocity": 0.4094488188976378,
                    "duration": 0.1966907250000247
                },
                {
                    "name": "D5",
                    "midi": 74,
                    "time": 242.02325399999933,
                    "velocity": 0.4015748031496063,
                    "duration": 0.1966907250000247
                },
                {
                    "name": "C5",
                    "midi": 72,
                    "time": 242.21057849999934,
                    "velocity": 0.3858267716535433,
                    "duration": 0.1966907250000247
                },
                {
                    "name": "A#4",
                    "midi": 70,
                    "time": 242.39790299999936,
                    "velocity": 0.3779527559055118,
                    "duration": 0.1966907250000247
                },
                {
                    "name": "A4",
                    "midi": 69,
                    "time": 242.58522749999938,
                    "velocity": 0.3700787401574803,
                    "duration": 0.18732450000001677
                },
                {
                    "name": "G4",
                    "midi": 67,
                    "time": 242.7725519999994,
                    "velocity": 0.3937007874015748,
                    "duration": 0.1966907249999963
                },
                {
                    "name": "F4",
                    "midi": 65,
                    "time": 242.95987649999938,
                    "velocity": 0.3464566929133858,
                    "duration": 0.1966907250000247
                },
                {
                    "name": "E4",
                    "midi": 64,
                    "time": 243.1472009999994,
                    "velocity": 0.3464566929133858,
                    "duration": 0.1966907250000247
                },
                {
                    "name": "F4",
                    "midi": 65,
                    "time": 243.33452549999942,
                    "velocity": 0.3543307086614173,
                    "duration": 0.1966907250000247
                },
                {
                    "name": "G4",
                    "midi": 67,
                    "time": 243.52184999999943,
                    "velocity": 0.3700787401574803,
                    "duration": 0.1966907250000247
                },
                {
                    "name": "A4",
                    "midi": 69,
                    "time": 243.70917449999945,
                    "velocity": 0.3937007874015748,
                    "duration": 0.18732450000001677
                },
                {
                    "name": "A#4",
                    "midi": 70,
                    "time": 243.89649899999947,
                    "velocity": 0.3937007874015748,
                    "duration": 0.0468311250000113
                },
                {
                    "name": "C5",
                    "midi": 72,
                    "time": 244.03699237499947,
                    "velocity": 0.3543307086614173,
                    "duration": 0.0468311250000113
                },
                {
                    "name": "A#4",
                    "midi": 70,
                    "time": 244.08382349999948,
                    "velocity": 0.3858267716535433,
                    "duration": 0.09366224999999417
                },
                {
                    "name": "A4",
                    "midi": 69,
                    "time": 244.17748574999948,
                    "velocity": 0.36220472440944884,
                    "duration": 0.09366224999999417
                },
                {
                    "name": "A#4",
                    "midi": 70,
                    "time": 244.27114799999947,
                    "velocity": 0.3937007874015748,
                    "duration": 0.0468311250000113
                },
                {
                    "name": "C5",
                    "midi": 72,
                    "time": 244.4584724999995,
                    "velocity": 0.3700787401574803,
                    "duration": 0.0468311250000113
                },
                {
                    "name": "D5",
                    "midi": 74,
                    "time": 244.6457969999995,
                    "velocity": 0.3858267716535433,
                    "duration": 0.0468311250000113
                },
                {
                    "name": "D#5",
                    "midi": 75,
                    "time": 244.83312149999952,
                    "velocity": 0.4015748031496063,
                    "duration": 0.0468311250000113
                },
                {
                    "name": "E5",
                    "midi": 76,
                    "time": 245.02044599999954,
                    "velocity": 0.41732283464566927,
                    "duration": 0.1966907249999963
                },
                {
                    "name": "F5",
                    "midi": 77,
                    "time": 245.20777049999953,
                    "velocity": 0.3937007874015748,
                    "duration": 0.1966907250000247
                },
                {
                    "name": "G5",
                    "midi": 79,
                    "time": 245.39509499999954,
                    "velocity": 0.4330708661417323,
                    "duration": 0.1966907250000247
                },
                {
                    "name": "F5",
                    "midi": 77,
                    "time": 245.58241949999956,
                    "velocity": 0.3937007874015748,
                    "duration": 0.18732450000001677
                },
                {
                    "name": "A#5",
                    "midi": 82,
                    "time": 245.76974399999958,
                    "velocity": 0.4645669291338583,
                    "duration": 0.18732449999998835
                },
                {
                    "name": "D5",
                    "midi": 74,
                    "time": 245.95706849999956,
                    "velocity": 0.3937007874015748,
                    "duration": 0.18732449999998835
                },
                {
                    "name": "F5",
                    "midi": 77,
                    "time": 246.14439299999955,
                    "velocity": 0.44881889763779526,
                    "duration": 0.1966907249999963
                },
                {
                    "name": "D#5",
                    "midi": 75,
                    "time": 246.33171749999954,
                    "velocity": 0.4330708661417323,
                    "duration": 0.1966907250000247
                },
                {
                    "name": "D5",
                    "midi": 74,
                    "time": 246.51904199999956,
                    "velocity": 0.41732283464566927,
                    "duration": 0.1966907250000247
                },
                {
                    "name": "C5",
                    "midi": 72,
                    "time": 246.70636649999958,
                    "velocity": 0.4015748031496063,
                    "duration": 0.1966907250000247
                },
                {
                    "name": "A#4",
                    "midi": 70,
                    "time": 246.8936909999996,
                    "velocity": 0.3858267716535433,
                    "duration": 0.1966907250000247
                },
                {
                    "name": "A4",
                    "midi": 69,
                    "time": 247.0810154999996,
                    "velocity": 0.3700787401574803,
                    "duration": 0.18732450000001677
                },
                {
                    "name": "G4",
                    "midi": 67,
                    "time": 247.26833999999963,
                    "velocity": 0.3937007874015748,
                    "duration": 0.1966907249999963
                },
                {
                    "name": "F4",
                    "midi": 65,
                    "time": 247.4556644999996,
                    "velocity": 0.33858267716535434,
                    "duration": 0.1966907250000247
                },
                {
                    "name": "E4",
                    "midi": 64,
                    "time": 247.64298899999963,
                    "velocity": 0.3937007874015748,
                    "duration": 0.1966907250000247
                },
                {
                    "name": "F4",
                    "midi": 65,
                    "time": 247.83031349999965,
                    "velocity": 0.33858267716535434,
                    "duration": 0.1966907250000247
                },
                {
                    "name": "G4",
                    "midi": 67,
                    "time": 248.01763799999966,
                    "velocity": 0.3937007874015748,
                    "duration": 0.1966907250000247
                },
                {
                    "name": "A4",
                    "midi": 69,
                    "time": 248.20496249999968,
                    "velocity": 0.3543307086614173,
                    "duration": 0.18732450000001677
                },
                {
                    "name": "A#4",
                    "midi": 70,
                    "time": 248.3922869999997,
                    "velocity": 0.3937007874015748,
                    "duration": 0.09366224999999417
                },
                {
                    "name": "A#4",
                    "midi": 70,
                    "time": 248.7669359999997,
                    "velocity": 0.3779527559055118,
                    "duration": 0.09366224999999417
                },
                {
                    "name": "D5",
                    "midi": 74,
                    "time": 249.1415849999997,
                    "velocity": 0.3779527559055118,
                    "duration": 0.09366224999999417
                },
                {
                    "name": "A#4",
                    "midi": 70,
                    "time": 249.5162339999997,
                    "velocity": 0.3937007874015748,
                    "duration": 0.3746490000000051
                },
                {
                    "name": "A#4",
                    "midi": 70,
                    "time": 250.17186974999973,
                    "velocity": 0.3464566929133858,
                    "duration": 0.0468311250000113
                },
                {
                    "name": "C5",
                    "midi": 72,
                    "time": 250.26553199999975,
                    "velocity": 0.3937007874015748,
                    "duration": 0.10302847500000212
                },
                {
                    "name": "A#4",
                    "midi": 70,
                    "time": 250.35919424999975,
                    "velocity": 0.33858267716535434,
                    "duration": 0.10302847500000212
                },
                {
                    "name": "A4",
                    "midi": 69,
                    "time": 250.45285649999974,
                    "velocity": 0.3543307086614173,
                    "duration": 0.10302847500000212
                },
                {
                    "name": "A#4",
                    "midi": 70,
                    "time": 250.54651874999973,
                    "velocity": 0.33070866141732286,
                    "duration": 0.10302847500000212
                },
                {
                    "name": "G5",
                    "midi": 79,
                    "time": 250.64018099999973,
                    "velocity": 0.4409448818897638,
                    "duration": 0.3746490000000051
                },
                {
                    "name": "A#4",
                    "midi": 70,
                    "time": 251.29581674999974,
                    "velocity": 0.3464566929133858,
                    "duration": 0.0468311250000113
                },
                {
                    "name": "C5",
                    "midi": 72,
                    "time": 251.38947899999977,
                    "velocity": 0.3937007874015748,
                    "duration": 0.10302847500000212
                },
                {
                    "name": "A#4",
                    "midi": 70,
                    "time": 251.48314124999976,
                    "velocity": 0.33858267716535434,
                    "duration": 0.10302847500000212
                },
                {
                    "name": "A4",
                    "midi": 69,
                    "time": 251.57680349999976,
                    "velocity": 0.3543307086614173,
                    "duration": 0.10302847500000212
                },
                {
                    "name": "A#4",
                    "midi": 70,
                    "time": 251.67046574999975,
                    "velocity": 0.33070866141732286,
                    "duration": 0.10302847500000212
                },
                {
                    "name": "F5",
                    "midi": 77,
                    "time": 251.76412799999974,
                    "velocity": 0.4330708661417323,
                    "duration": 0.3746490000000051
                },
                {
                    "name": "A#4",
                    "midi": 70,
                    "time": 252.41976374999976,
                    "velocity": 0.3464566929133858,
                    "duration": 0.0468311250000113
                },
                {
                    "name": "C5",
                    "midi": 72,
                    "time": 252.51342599999978,
                    "velocity": 0.3937007874015748,
                    "duration": 0.10302847500000212
                },
                {
                    "name": "A#4",
                    "midi": 70,
                    "time": 252.60708824999978,
                    "velocity": 0.33858267716535434,
                    "duration": 0.10302847500000212
                },
                {
                    "name": "A4",
                    "midi": 69,
                    "time": 252.70075049999977,
                    "velocity": 0.3543307086614173,
                    "duration": 0.10302847500000212
                },
                {
                    "name": "A#4",
                    "midi": 70,
                    "time": 252.79441274999976,
                    "velocity": 0.33070866141732286,
                    "duration": 0.10302847500000212
                },
                {
                    "name": "C5",
                    "midi": 72,
                    "time": 252.88807499999976,
                    "velocity": 0.4094488188976378,
                    "duration": 0.3746490000000051
                },
                {
                    "name": "F5",
                    "midi": 77,
                    "time": 253.26272399999976,
                    "velocity": 0.3858267716535433,
                    "duration": 0.3746490000000051
                },
                {
                    "name": "D#5",
                    "midi": 75,
                    "time": 253.63737299999977,
                    "velocity": 0.3779527559055118,
                    "duration": 0.3746490000000051
                },
                {
                    "name": "C#5",
                    "midi": 73,
                    "time": 254.01202199999977,
                    "velocity": 0.4330708661417323,
                    "duration": 0.3746490000000051
                },
                {
                    "name": "D5",
                    "midi": 74,
                    "time": 254.38667099999978,
                    "velocity": 0.3858267716535433,
                    "duration": 0.18732449999998835
                },
                {
                    "name": "A#4",
                    "midi": 70,
                    "time": 254.66765774999976,
                    "velocity": 0.3464566929133858,
                    "duration": 0.0468311250000113
                },
                {
                    "name": "C5",
                    "midi": 72,
                    "time": 254.76131999999978,
                    "velocity": 0.3937007874015748,
                    "duration": 0.10302847500000212
                },
                {
                    "name": "A#4",
                    "midi": 70,
                    "time": 254.85498224999978,
                    "velocity": 0.33858267716535434,
                    "duration": 0.10302847500000212
                },
                {
                    "name": "A4",
                    "midi": 69,
                    "time": 254.94864449999977,
                    "velocity": 0.3543307086614173,
                    "duration": 0.10302847500000212
                },
                {
                    "name": "A#4",
                    "midi": 70,
                    "time": 255.04230674999977,
                    "velocity": 0.33070866141732286,
                    "duration": 0.10302847500000212
                },
                {
                    "name": "G5",
                    "midi": 79,
                    "time": 255.13596899999976,
                    "velocity": 0.4409448818897638,
                    "duration": 0.3746490000000051
                },
                {
                    "name": "A#4",
                    "midi": 70,
                    "time": 255.79160474999978,
                    "velocity": 0.3464566929133858,
                    "duration": 0.0468311250000113
                },
                {
                    "name": "C5",
                    "midi": 72,
                    "time": 255.8852669999998,
                    "velocity": 0.3937007874015748,
                    "duration": 0.10302847500000212
                },
                {
                    "name": "A#4",
                    "midi": 70,
                    "time": 255.9789292499998,
                    "velocity": 0.33858267716535434,
                    "duration": 0.10302847500003054
                },
                {
                    "name": "A4",
                    "midi": 69,
                    "time": 256.0725914999998,
                    "velocity": 0.3543307086614173,
                    "duration": 0.10302847500003054
                },
                {
                    "name": "A#4",
                    "midi": 70,
                    "time": 256.16625374999984,
                    "velocity": 0.33070866141732286,
                    "duration": 0.10302847500003054
                },
                {
                    "name": "F5",
                    "midi": 77,
                    "time": 256.25991599999986,
                    "velocity": 0.4330708661417323,
                    "duration": 0.37464900000003354
                },
                {
                    "name": "A#4",
                    "midi": 70,
                    "time": 256.9155517499999,
                    "velocity": 0.3464566929133858,
                    "duration": 0.046831124999982876
                },
                {
                    "name": "C5",
                    "midi": 72,
                    "time": 257.0092139999999,
                    "velocity": 0.3937007874015748,
                    "duration": 0.10302847500003054
                },
                {
                    "name": "A#4",
                    "midi": 70,
                    "time": 257.1028762499999,
                    "velocity": 0.33858267716535434,
                    "duration": 0.10302847500003054
                },
                {
                    "name": "A4",
                    "midi": 69,
                    "time": 257.1965384999999,
                    "velocity": 0.3543307086614173,
                    "duration": 0.10302847500003054
                },
                {
                    "name": "A#4",
                    "midi": 70,
                    "time": 257.29020074999994,
                    "velocity": 0.33070866141732286,
                    "duration": 0.10302847500003054
                },
                {
                    "name": "C5",
                    "midi": 72,
                    "time": 257.38386299999996,
                    "velocity": 0.4094488188976378,
                    "duration": 0.37464900000003354
                },
                {
                    "name": "D#5",
                    "midi": 75,
                    "time": 257.758512,
                    "velocity": 0.3858267716535433,
                    "duration": 0.3746489999999767
                },
                {
                    "name": "A4",
                    "midi": 69,
                    "time": 258.133161,
                    "velocity": 0.3779527559055118,
                    "duration": 0.3746489999999767
                },
                {
                    "name": "A#4",
                    "midi": 70,
                    "time": 258.50780999999995,
                    "velocity": 0.4330708661417323,
                    "duration": 0.3746489999999767
                },
                {
                    "name": "D5",
                    "midi": 74,
                    "time": 259.63175699999994,
                    "velocity": 0.5039370078740157,
                    "duration": 0.0936622500000226
                },
                {
                    "name": "A#4",
                    "midi": 70,
                    "time": 259.63175699999994,
                    "velocity": 0.5039370078740157,
                    "duration": 0.0936622500000226
                },
                {
                    "name": "G5",
                    "midi": 79,
                    "time": 259.63175699999994,
                    "velocity": 0.6062992125984252,
                    "duration": 0.0936622500000226
                },
                {
                    "name": "G4",
                    "midi": 67,
                    "time": 260.00640599999997,
                    "velocity": 0.5039370078740157,
                    "duration": 0.0936622500000226
                },
                {
                    "name": "A4",
                    "midi": 69,
                    "time": 260.755704,
                    "velocity": 0.49606299212598426,
                    "duration": 0.0936622500000226
                },
                {
                    "name": "F#4",
                    "midi": 66,
                    "time": 260.755704,
                    "velocity": 0.49606299212598426,
                    "duration": 0.0936622500000226
                },
                {
                    "name": "D5",
                    "midi": 74,
                    "time": 260.755704,
                    "velocity": 0.5905511811023622,
                    "duration": 0.0936622500000226
                },
                {
                    "name": "D4",
                    "midi": 62,
                    "time": 261.130353,
                    "velocity": 0.5275590551181102,
                    "duration": 0.0936622500000226
                },
                {
                    "name": "D#4",
                    "midi": 63,
                    "time": 261.879651,
                    "velocity": 0.33858267716535434,
                    "duration": 0.7492980000000102
                },
                {
                    "name": "F4",
                    "midi": 65,
                    "time": 262.62894900000003,
                    "velocity": 0.28346456692913385,
                    "duration": 0.10302847500003054
                },
                {
                    "name": "D#4",
                    "midi": 63,
                    "time": 262.72261125000006,
                    "velocity": 0.28346456692913385,
                    "duration": 0.10302847500003054
                },
                {
                    "name": "D4",
                    "midi": 62,
                    "time": 262.8162735000001,
                    "velocity": 0.28346456692913385,
                    "duration": 0.10302847500003054
                },
                {
                    "name": "D#4",
                    "midi": 63,
                    "time": 262.9099357500001,
                    "velocity": 0.28346456692913385,
                    "duration": 0.0936622500000226
                },
                {
                    "name": "C5",
                    "midi": 72,
                    "time": 263.0035980000001,
                    "velocity": 0.33070866141732286,
                    "duration": 0.18732449999998835
                },
                {
                    "name": "A#4",
                    "midi": 70,
                    "time": 263.1909225000001,
                    "velocity": 0.29133858267716534,
                    "duration": 0.18732449999998835
                },
                {
                    "name": "A#4",
                    "midi": 70,
                    "time": 263.3782470000001,
                    "velocity": 0.33858267716535434,
                    "duration": 0.3746489999999767
                },
                {
                    "name": "A#4",
                    "midi": 70,
                    "time": 263.7528960000001,
                    "velocity": 0.2992125984251969,
                    "duration": 0.3746489999999767
                },
                {
                    "name": "A#4",
                    "midi": 70,
                    "time": 264.12754500000005,
                    "velocity": 0.30708661417322836,
                    "duration": 0.1966907249999963
                },
                {
                    "name": "D#5",
                    "midi": 75,
                    "time": 264.31486950000004,
                    "velocity": 0.3543307086614173,
                    "duration": 0.1966907249999963
                },
                {
                    "name": "D5",
                    "midi": 74,
                    "time": 264.50219400000003,
                    "velocity": 0.3464566929133858,
                    "duration": 0.1966907249999963
                },
                {
                    "name": "C#5",
                    "midi": 73,
                    "time": 264.6895185,
                    "velocity": 0.33070866141732286,
                    "duration": 0.1966907249999963
                },
                {
                    "name": "C5",
                    "midi": 72,
                    "time": 264.876843,
                    "velocity": 0.31496062992125984,
                    "duration": 0.1966907249999963
                },
                {
                    "name": "B4",
                    "midi": 71,
                    "time": 265.0641675,
                    "velocity": 0.2992125984251969,
                    "duration": 0.1966907249999963
                },
                {
                    "name": "A#4",
                    "midi": 70,
                    "time": 265.251492,
                    "velocity": 0.3228346456692913,
                    "duration": 0.37464900000003354
                },
                {
                    "name": "D#4",
                    "midi": 63,
                    "time": 266.37543900000003,
                    "velocity": 0.3543307086614173,
                    "duration": 0.7492980000000102
                },
                {
                    "name": "F4",
                    "midi": 65,
                    "time": 267.12473700000004,
                    "velocity": 0.33070866141732286,
                    "duration": 0.10302847500003054
                },
                {
                    "name": "D#4",
                    "midi": 63,
                    "time": 267.21839925000006,
                    "velocity": 0.30708661417322836,
                    "duration": 0.10302847500003054
                },
                {
                    "name": "D4",
                    "midi": 62,
                    "time": 267.3120615000001,
                    "velocity": 0.33070866141732286,
                    "duration": 0.10302847500003054
                },
                {
                    "name": "D#4",
                    "midi": 63,
                    "time": 267.4057237500001,
                    "velocity": 0.31496062992125984,
                    "duration": 0.0936622500000226
                },
                {
                    "name": "C5",
                    "midi": 72,
                    "time": 267.49938600000013,
                    "velocity": 0.4251968503937008,
                    "duration": 0.18732449999998835
                },
                {
                    "name": "B4",
                    "midi": 71,
                    "time": 267.6867105000001,
                    "velocity": 0.3779527559055118,
                    "duration": 0.18732449999998835
                },
                {
                    "name": "B4",
                    "midi": 71,
                    "time": 267.8740350000001,
                    "velocity": 0.41732283464566927,
                    "duration": 0.3746489999999767
                },
                {
                    "name": "B4",
                    "midi": 71,
                    "time": 268.2486840000001,
                    "velocity": 0.3700787401574803,
                    "duration": 0.3746489999999767
                },
                {
                    "name": "C5",
                    "midi": 72,
                    "time": 268.62333300000006,
                    "velocity": 0.3937007874015748,
                    "duration": 0.1966907249999963
                },
                {
                    "name": "G5",
                    "midi": 79,
                    "time": 268.81065750000005,
                    "velocity": 0.4566929133858268,
                    "duration": 0.1966907249999963
                },
                {
                    "name": "D#5",
                    "midi": 75,
                    "time": 268.99798200000004,
                    "velocity": 0.4409448818897638,
                    "duration": 0.1966907249999963
                },
                {
                    "name": "D5",
                    "midi": 74,
                    "time": 269.1853065,
                    "velocity": 0.4251968503937008,
                    "duration": 0.1966907249999963
                },
                {
                    "name": "C5",
                    "midi": 72,
                    "time": 269.372631,
                    "velocity": 0.4015748031496063,
                    "duration": 0.1966907249999963
                },
                {
                    "name": "A#4",
                    "midi": 70,
                    "time": 269.5599555,
                    "velocity": 0.3858267716535433,
                    "duration": 0.1966907249999963
                },
                {
                    "name": "A4",
                    "midi": 69,
                    "time": 269.74728,
                    "velocity": 0.3937007874015748,
                    "duration": 0.37464900000003354
                },
                {
                    "name": "A#4",
                    "midi": 70,
                    "time": 270.87122700000003,
                    "velocity": 0.4645669291338583,
                    "duration": 0.1966907249999963
                },
                {
                    "name": "D6",
                    "midi": 86,
                    "time": 271.0585515,
                    "velocity": 0.4881889763779528,
                    "duration": 0.1966907249999963
                },
                {
                    "name": "A#5",
                    "midi": 82,
                    "time": 271.245876,
                    "velocity": 0.48031496062992124,
                    "duration": 0.1966907249999963
                },
                {
                    "name": "A5",
                    "midi": 81,
                    "time": 271.4332005,
                    "velocity": 0.47244094488188976,
                    "duration": 0.1966907249999963
                },
                {
                    "name": "G5",
                    "midi": 79,
                    "time": 271.620525,
                    "velocity": 0.4566929133858268,
                    "duration": 0.1966907249999963
                },
                {
                    "name": "F5",
                    "midi": 77,
                    "time": 271.8078495,
                    "velocity": 0.44881889763779526,
                    "duration": 0.1966907249999963
                },
                {
                    "name": "E5",
                    "midi": 76,
                    "time": 271.99517399999996,
                    "velocity": 0.4881889763779528,
                    "duration": 0.37464900000003354
                },
                {
                    "name": "F5",
                    "midi": 77,
                    "time": 273.21278325,
                    "velocity": 0.36220472440944884,
                    "duration": 0.0936622500000226
                },
                {
                    "name": "E5",
                    "midi": 76,
                    "time": 273.3064455,
                    "velocity": 0.3858267716535433,
                    "duration": 0.0936622500000226
                },
                {
                    "name": "F5",
                    "midi": 77,
                    "time": 273.40010775,
                    "velocity": 0.3464566929133858,
                    "duration": 0.0936622500000226
                },
                {
                    "name": "G5",
                    "midi": 79,
                    "time": 273.49377000000004,
                    "velocity": 0.3858267716535433,
                    "duration": 0.0936622500000226
                },
                {
                    "name": "F5",
                    "midi": 77,
                    "time": 273.58743225000006,
                    "velocity": 0.3464566929133858,
                    "duration": 0.0936622500000226
                },
                {
                    "name": "E5",
                    "midi": 76,
                    "time": 273.6810945000001,
                    "velocity": 0.3858267716535433,
                    "duration": 0.0936622500000226
                },
                {
                    "name": "F5",
                    "midi": 77,
                    "time": 273.7747567500001,
                    "velocity": 0.3464566929133858,
                    "duration": 0.0936622500000226
                },
                {
                    "name": "F5",
                    "midi": 77,
                    "time": 273.96208125000015,
                    "velocity": 0.3858267716535433,
                    "duration": 0.0936622500000226
                },
                {
                    "name": "A5",
                    "midi": 81,
                    "time": 274.0557435000002,
                    "velocity": 0.4251968503937008,
                    "duration": 0.0936622500000226
                },
                {
                    "name": "F5",
                    "midi": 77,
                    "time": 274.1494057500002,
                    "velocity": 0.3858267716535433,
                    "duration": 0.0936622500000226
                },
                {
                    "name": "F5",
                    "midi": 77,
                    "time": 274.33673025000024,
                    "velocity": 0.41732283464566927,
                    "duration": 0.0936622500000226
                },
                {
                    "name": "A#5",
                    "midi": 82,
                    "time": 274.43039250000027,
                    "velocity": 0.44881889763779526,
                    "duration": 0.0936622500000226
                },
                {
                    "name": "F5",
                    "midi": 77,
                    "time": 274.5240547500003,
                    "velocity": 0.4094488188976378,
                    "duration": 0.0936622500000226
                },
                {
                    "name": "F5",
                    "midi": 77,
                    "time": 274.71137925000033,
                    "velocity": 0.4330708661417323,
                    "duration": 0.0936622500000226
                },
                {
                    "name": "D#6",
                    "midi": 87,
                    "time": 274.80504150000036,
                    "velocity": 0.48031496062992124,
                    "duration": 0.0936622500000226
                },
                {
                    "name": "F5",
                    "midi": 77,
                    "time": 274.8987037500004,
                    "velocity": 0.44881889763779526,
                    "duration": 0.0936622500000226
                },
                {
                    "name": "F5",
                    "midi": 77,
                    "time": 275.0860282500004,
                    "velocity": 0.44881889763779526,
                    "duration": 0.0936622500000226
                },
                {
                    "name": "D6",
                    "midi": 86,
                    "time": 275.17969050000045,
                    "velocity": 0.5039370078740157,
                    "duration": 0.0936622500000226
                },
                {
                    "name": "F5",
                    "midi": 77,
                    "time": 275.27335275000047,
                    "velocity": 0.44881889763779526,
                    "duration": 0.0936622500000226
                },
                {
                    "name": "C6",
                    "midi": 84,
                    "time": 275.3670150000005,
                    "velocity": 0.5118110236220472,
                    "duration": 0.0936622500000226
                },
                {
                    "name": "A5",
                    "midi": 81,
                    "time": 275.4606772500005,
                    "velocity": 0.47244094488188976,
                    "duration": 0.0936622500000226
                },
                {
                    "name": "G5",
                    "midi": 79,
                    "time": 275.55433950000054,
                    "velocity": 0.5118110236220472,
                    "duration": 0.0936622500000226
                },
                {
                    "name": "F5",
                    "midi": 77,
                    "time": 275.64800175000056,
                    "velocity": 0.47244094488188976,
                    "duration": 0.0936622500000226
                },
                {
                    "name": "E5",
                    "midi": 76,
                    "time": 275.7416640000006,
                    "velocity": 0.44881889763779526,
                    "duration": 0.0936622500000226
                },
                {
                    "name": "F5",
                    "midi": 77,
                    "time": 275.8353262500006,
                    "velocity": 0.4645669291338583,
                    "duration": 0.0936622500000226
                },
                {
                    "name": "G5",
                    "midi": 79,
                    "time": 275.9289885000006,
                    "velocity": 0.47244094488188976,
                    "duration": 0.0936622500000226
                },
                {
                    "name": "F5",
                    "midi": 77,
                    "time": 276.02265075000065,
                    "velocity": 0.4409448818897638,
                    "duration": 0.0936622500000226
                },
                {
                    "name": "F5",
                    "midi": 77,
                    "time": 276.2099752500007,
                    "velocity": 0.3858267716535433,
                    "duration": 0.0936622500000226
                },
                {
                    "name": "A5",
                    "midi": 81,
                    "time": 276.3036375000007,
                    "velocity": 0.41732283464566927,
                    "duration": 0.0936622500000226
                },
                {
                    "name": "F5",
                    "midi": 77,
                    "time": 276.39729975000074,
                    "velocity": 0.3858267716535433,
                    "duration": 0.0936622500000226
                },
                {
                    "name": "F5",
                    "midi": 77,
                    "time": 276.5846242500008,
                    "velocity": 0.4094488188976378,
                    "duration": 0.0936622500000226
                },
                {
                    "name": "A#5",
                    "midi": 82,
                    "time": 276.6782865000008,
                    "velocity": 0.4566929133858268,
                    "duration": 0.0936622500000226
                },
                {
                    "name": "F5",
                    "midi": 77,
                    "time": 276.77194875000083,
                    "velocity": 0.4251968503937008,
                    "duration": 0.0936622500000226
                },
                {
                    "name": "F5",
                    "midi": 77,
                    "time": 276.9592732500009,
                    "velocity": 0.4330708661417323,
                    "duration": 0.0936622500000226
                },
                {
                    "name": "D#6",
                    "midi": 87,
                    "time": 277.0529355000009,
                    "velocity": 0.48031496062992124,
                    "duration": 0.0936622500000226
                },
                {
                    "name": "F5",
                    "midi": 77,
                    "time": 277.1465977500009,
                    "velocity": 0.4330708661417323,
                    "duration": 0.0936622500000226
                },
                {
                    "name": "F5",
                    "midi": 77,
                    "time": 277.33392225000097,
                    "velocity": 0.3858267716535433,
                    "duration": 0.0936622500000226
                },
                {
                    "name": "D6",
                    "midi": 86,
                    "time": 277.427584500001,
                    "velocity": 0.5354330708661418,
                    "duration": 0.0936622500000226
                },
                {
                    "name": "F5",
                    "midi": 77,
                    "time": 277.521246750001,
                    "velocity": 0.4881889763779528,
                    "duration": 0.0936622500000226
                },
                {
                    "name": "C6",
                    "midi": 84,
                    "time": 277.61490900000103,
                    "velocity": 0.5748031496062992,
                    "duration": 0.0936622500000226
                },
                {
                    "name": "F6",
                    "midi": 89,
                    "time": 277.70857125000106,
                    "velocity": 0.4881889763779528,
                    "duration": 0.0936622500000226
                },
                {
                    "name": "C6",
                    "midi": 84,
                    "time": 277.8022335000011,
                    "velocity": 0.5433070866141733,
                    "duration": 0.0936622500000226
                },
                {
                    "name": "A5",
                    "midi": 81,
                    "time": 277.8958957500011,
                    "velocity": 0.44881889763779526,
                    "duration": 0.0936622500000226
                },
                {
                    "name": "F5",
                    "midi": 77,
                    "time": 277.9895580000011,
                    "velocity": 0.5275590551181102,
                    "duration": 0.0936622500000226
                },
                {
                    "name": "C6",
                    "midi": 84,
                    "time": 278.08322025000115,
                    "velocity": 0.4330708661417323,
                    "duration": 0.0936622500000226
                },
                {
                    "name": "A5",
                    "midi": 81,
                    "time": 278.17688250000117,
                    "velocity": 0.48031496062992124,
                    "duration": 0.0936622500000226
                },
                {
                    "name": "F5",
                    "midi": 77,
                    "time": 278.2705447500012,
                    "velocity": 0.4251968503937008,
                    "duration": 0.0936622500000226
                },
                {
                    "name": "C5",
                    "midi": 72,
                    "time": 278.3642070000012,
                    "velocity": 0.49606299212598426,
                    "duration": 0.0936622500000226
                },
                {
                    "name": "F5",
                    "midi": 77,
                    "time": 278.45786925000124,
                    "velocity": 0.4330708661417323,
                    "duration": 0.0936622500000226
                },
                {
                    "name": "C5",
                    "midi": 72,
                    "time": 278.55153150000126,
                    "velocity": 0.5118110236220472,
                    "duration": 0.0936622500000226
                },
                {
                    "name": "A4",
                    "midi": 69,
                    "time": 278.6451937500013,
                    "velocity": 0.4645669291338583,
                    "duration": 0.0936622500000226
                },
                {
                    "name": "F4",
                    "midi": 65,
                    "time": 278.7388560000013,
                    "velocity": 0.6692913385826772,
                    "duration": 0.0936622500000226
                },
                {
                    "name": "C5",
                    "midi": 72,
                    "time": 279.11350500000134,
                    "velocity": 0.4881889763779528,
                    "duration": 0.3746489999999767
                },
                {
                    "name": "A4",
                    "midi": 69,
                    "time": 279.11350500000134,
                    "velocity": 0.4881889763779528,
                    "duration": 0.3746489999999767
                },
                {
                    "name": "F5",
                    "midi": 77,
                    "time": 279.11350500000134,
                    "velocity": 0.5748031496062992,
                    "duration": 0.3746489999999767
                },
                {
                    "name": "F5",
                    "midi": 77,
                    "time": 282.2980215000013,
                    "velocity": 0.3543307086614173,
                    "duration": 0.046831124999982876
                },
                {
                    "name": "F5",
                    "midi": 77,
                    "time": 282.4853460000013,
                    "velocity": 0.3858267716535433,
                    "duration": 0.046831124999982876
                },
                {
                    "name": "F5",
                    "midi": 77,
                    "time": 282.6726705000013,
                    "velocity": 0.33858267716535434,
                    "duration": 0.046831124999982876
                },
                {
                    "name": "F5",
                    "midi": 77,
                    "time": 282.8599950000013,
                    "velocity": 0.36220472440944884,
                    "duration": 0.046831124999982876
                },
                {
                    "name": "F5",
                    "midi": 77,
                    "time": 283.04731950000127,
                    "velocity": 0.31496062992125984,
                    "duration": 0.046831124999982876
                },
                {
                    "name": "G5",
                    "midi": 79,
                    "time": 283.23464400000125,
                    "velocity": 0.3543307086614173,
                    "duration": 0.1966907249999963
                },
                {
                    "name": "F5",
                    "midi": 77,
                    "time": 283.42196850000124,
                    "velocity": 0.31496062992125984,
                    "duration": 0.1966907249999963
                },
                {
                    "name": "D#5",
                    "midi": 75,
                    "time": 283.60929300000123,
                    "velocity": 0.33858267716535434,
                    "duration": 0.1966907249999963
                },
                {
                    "name": "D5",
                    "midi": 74,
                    "time": 283.7966175000012,
                    "velocity": 0.31496062992125984,
                    "duration": 0.1966907249999963
                },
                {
                    "name": "C5",
                    "midi": 72,
                    "time": 283.9839420000012,
                    "velocity": 0.3543307086614173,
                    "duration": 0.1966907249999963
                },
                {
                    "name": "A#4",
                    "midi": 70,
                    "time": 284.1712665000012,
                    "velocity": 0.30708661417322836,
                    "duration": 0.14049337500000547
                },
                {
                    "name": "A#4",
                    "midi": 70,
                    "time": 284.3585910000012,
                    "velocity": 0.3228346456692913,
                    "duration": 0.046831124999982876
                },
                {
                    "name": "C5",
                    "midi": 72,
                    "time": 284.40542212500117,
                    "velocity": 0.30708661417322836,
                    "duration": 0.046831124999982876
                },
                {
                    "name": "A#4",
                    "midi": 70,
                    "time": 284.45225325000115,
                    "velocity": 0.3858267716535433,
                    "duration": 0.0936622500000226
                },
                {
                    "name": "A4",
                    "midi": 69,
                    "time": 284.5459155000012,
                    "velocity": 0.3464566929133858,
                    "duration": 0.18732449999998835
                },
                {
                    "name": "A4",
                    "midi": 69,
                    "time": 284.73324000000116,
                    "velocity": 0.36220472440944884,
                    "duration": 0.3746489999999767
                },
                {
                    "name": "D#5",
                    "midi": 75,
                    "time": 286.79380950000115,
                    "velocity": 0.3543307086614173,
                    "duration": 0.046831124999982876
                },
                {
                    "name": "D#5",
                    "midi": 75,
                    "time": 286.98113400000113,
                    "velocity": 0.3779527559055118,
                    "duration": 0.046831124999982876
                },
                {
                    "name": "D#5",
                    "midi": 75,
                    "time": 287.1684585000011,
                    "velocity": 0.33070866141732286,
                    "duration": 0.046831124999982876
                },
                {
                    "name": "D#5",
                    "midi": 75,
                    "time": 287.3557830000011,
                    "velocity": 0.3464566929133858,
                    "duration": 0.046831124999982876
                },
                {
                    "name": "D#5",
                    "midi": 75,
                    "time": 287.5431075000011,
                    "velocity": 0.31496062992125984,
                    "duration": 0.046831124999982876
                },
                {
                    "name": "F5",
                    "midi": 77,
                    "time": 287.7304320000011,
                    "velocity": 0.3543307086614173,
                    "duration": 0.1966907249999963
                },
                {
                    "name": "D#5",
                    "midi": 75,
                    "time": 287.9177565000011,
                    "velocity": 0.31496062992125984,
                    "duration": 0.1966907249999963
                },
                {
                    "name": "D5",
                    "midi": 74,
                    "time": 288.10508100000106,
                    "velocity": 0.31496062992125984,
                    "duration": 0.1966907249999963
                },
                {
                    "name": "C5",
                    "midi": 72,
                    "time": 288.29240550000105,
                    "velocity": 0.31496062992125984,
                    "duration": 0.1966907249999963
                },
                {
                    "name": "A#4",
                    "midi": 70,
                    "time": 288.47973000000104,
                    "velocity": 0.3543307086614173,
                    "duration": 0.1966907249999963
                },
                {
                    "name": "A4",
                    "midi": 69,
                    "time": 288.66705450000103,
                    "velocity": 0.30708661417322836,
                    "duration": 0.18732449999998835
                },
                {
                    "name": "A#4",
                    "midi": 70,
                    "time": 288.854379000001,
                    "velocity": 0.3700787401574803,
                    "duration": 0.3746489999999767
                },
                {
                    "name": "D5",
                    "midi": 74,
                    "time": 289.416352500001,
                    "velocity": 0.3700787401574803,
                    "duration": 0.1966907249999963
                },
                {
                    "name": "C5",
                    "midi": 72,
                    "time": 289.60367700000097,
                    "velocity": 0.3543307086614173,
                    "duration": 0.1966907249999963
                },
                {
                    "name": "A#4",
                    "midi": 70,
                    "time": 289.79100150000096,
                    "velocity": 0.31496062992125984,
                    "duration": 0.1966907249999963
                },
                {
                    "name": "A4",
                    "midi": 69,
                    "time": 289.97832600000095,
                    "velocity": 0.3700787401574803,
                    "duration": 0.37464900000003354
                },
                {
                    "name": "G5",
                    "midi": 79,
                    "time": 290.54029950000097,
                    "velocity": 0.4094488188976378,
                    "duration": 0.1966907249999963
                },
                {
                    "name": "F5",
                    "midi": 77,
                    "time": 290.72762400000096,
                    "velocity": 0.3700787401574803,
                    "duration": 0.1966907249999963
                },
                {
                    "name": "A4",
                    "midi": 69,
                    "time": 290.91494850000095,
                    "velocity": 0.33070866141732286,
                    "duration": 0.1966907249999963
                },
                {
                    "name": "A#4",
                    "midi": 70,
                    "time": 291.10227300000093,
                    "velocity": 0.3700787401574803,
                    "duration": 0.37464900000003354
                },
                {
                    "name": "D5",
                    "midi": 74,
                    "time": 291.66424650000096,
                    "velocity": 0.3700787401574803,
                    "duration": 0.1966907249999963
                },
                {
                    "name": "C5",
                    "midi": 72,
                    "time": 291.85157100000094,
                    "velocity": 0.3543307086614173,
                    "duration": 0.1966907249999963
                },
                {
                    "name": "A#4",
                    "midi": 70,
                    "time": 292.03889550000093,
                    "velocity": 0.31496062992125984,
                    "duration": 0.1966907249999963
                },
                {
                    "name": "A4",
                    "midi": 69,
                    "time": 292.2262200000009,
                    "velocity": 0.3700787401574803,
                    "duration": 0.37464900000003354
                },
                {
                    "name": "F#5",
                    "midi": 78,
                    "time": 292.78819350000094,
                    "velocity": 0.4094488188976378,
                    "duration": 0.1966907249999963
                },
                {
                    "name": "F5",
                    "midi": 77,
                    "time": 292.97551800000093,
                    "velocity": 0.3700787401574803,
                    "duration": 0.1966907249999963
                },
                {
                    "name": "A4",
                    "midi": 69,
                    "time": 293.1628425000009,
                    "velocity": 0.33070866141732286,
                    "duration": 0.1966907249999963
                },
                {
                    "name": "A#4",
                    "midi": 70,
                    "time": 293.3501670000009,
                    "velocity": 0.3700787401574803,
                    "duration": 0.37464900000003354
                },
                {
                    "name": "F5",
                    "midi": 77,
                    "time": 293.91214050000093,
                    "velocity": 0.4330708661417323,
                    "duration": 0.1966907249999963
                },
                {
                    "name": "C#5",
                    "midi": 73,
                    "time": 294.0994650000009,
                    "velocity": 0.41732283464566927,
                    "duration": 0.1966907249999963
                },
                {
                    "name": "C5",
                    "midi": 72,
                    "time": 294.2867895000009,
                    "velocity": 0.3937007874015748,
                    "duration": 0.1966907249999963
                },
                {
                    "name": "B4",
                    "midi": 71,
                    "time": 294.4741140000009,
                    "velocity": 0.4409448818897638,
                    "duration": 0.37464900000003354
                },
                {
                    "name": "G#5",
                    "midi": 80,
                    "time": 295.0360875000009,
                    "velocity": 0.4566929133858268,
                    "duration": 0.1966907249999963
                },
                {
                    "name": "G5",
                    "midi": 79,
                    "time": 295.2234120000009,
                    "velocity": 0.4094488188976378,
                    "duration": 0.1966907249999963
                },
                {
                    "name": "B4",
                    "midi": 71,
                    "time": 295.4107365000009,
                    "velocity": 0.3779527559055118,
                    "duration": 0.18732449999998835
                },
                {
                    "name": "D5",
                    "midi": 74,
                    "time": 295.5980610000009,
                    "velocity": 0.4409448818897638,
                    "duration": 0.1966907249999963
                },
                {
                    "name": "C5",
                    "midi": 72,
                    "time": 295.78538550000087,
                    "velocity": 0.4015748031496063,
                    "duration": 0.1966907249999963
                },
                {
                    "name": "F5",
                    "midi": 77,
                    "time": 295.97271000000086,
                    "velocity": 0.4330708661417323,
                    "duration": 0.1966907249999963
                },
                {
                    "name": "E5",
                    "midi": 76,
                    "time": 296.16003450000085,
                    "velocity": 0.4015748031496063,
                    "duration": 0.1966907249999963
                },
                {
                    "name": "D#5",
                    "midi": 75,
                    "time": 296.34735900000084,
                    "velocity": 0.3937007874015748,
                    "duration": 0.1966907249999963
                },
                {
                    "name": "D5",
                    "midi": 74,
                    "time": 296.5346835000008,
                    "velocity": 0.3858267716535433,
                    "duration": 0.18732449999998835
                },
                {
                    "name": "C5",
                    "midi": 72,
                    "time": 296.7220080000008,
                    "velocity": 0.4251968503937008,
                    "duration": 0.28098675000001094
                },
                {
                    "name": "D5",
                    "midi": 74,
                    "time": 297.0029947500008,
                    "velocity": 0.3779527559055118,
                    "duration": 0.0936622500000226
                },
                {
                    "name": "A#4",
                    "midi": 70,
                    "time": 297.09665700000085,
                    "velocity": 0.4251968503937008,
                    "duration": 0.3746489999999767
                },
                {
                    "name": "A4",
                    "midi": 69,
                    "time": 297.4713060000008,
                    "velocity": 0.3937007874015748,
                    "duration": 0.06244149999997717
                },
                {
                    "name": "A#4",
                    "midi": 70,
                    "time": 297.5337475000008,
                    "velocity": 0.3464566929133858,
                    "duration": 0.06244149999997717
                },
                {
                    "name": "A4",
                    "midi": 69,
                    "time": 297.5961890000008,
                    "velocity": 0.3937007874015748,
                    "duration": 0.06244149999997717
                },
                {
                    "name": "A#4",
                    "midi": 70,
                    "time": 297.65863050000075,
                    "velocity": 0.3464566929133858,
                    "duration": 0.046831124999982876
                },
                {
                    "name": "A4",
                    "midi": 69,
                    "time": 297.70546162500074,
                    "velocity": 0.3937007874015748,
                    "duration": 0.046831124999982876
                },
                {
                    "name": "G4",
                    "midi": 67,
                    "time": 297.7522927500007,
                    "velocity": 0.33070866141732286,
                    "duration": 0.046831124999982876
                },
                {
                    "name": "A4",
                    "midi": 69,
                    "time": 297.7991238750007,
                    "velocity": 0.3543307086614173,
                    "duration": 0.046831124999982876
                },
                {
                    "name": "A#4",
                    "midi": 70,
                    "time": 297.8459550000007,
                    "velocity": 0.3858267716535433,
                    "duration": 0.0936622500000226
                },
                {
                    "name": "F4",
                    "midi": 65,
                    "time": 297.9396172500007,
                    "velocity": 0.36220472440944884,
                    "duration": 0.0936622500000226
                },
                {
                    "name": "E4",
                    "midi": 64,
                    "time": 298.03327950000073,
                    "velocity": 0.3858267716535433,
                    "duration": 0.0936622500000226
                },
                {
                    "name": "F4",
                    "midi": 65,
                    "time": 298.12694175000075,
                    "velocity": 0.3464566929133858,
                    "duration": 0.0936622500000226
                },
                {
                    "name": "G4",
                    "midi": 67,
                    "time": 298.2206040000008,
                    "velocity": 0.3858267716535433,
                    "duration": 0.0936622500000226
                },
                {
                    "name": "F4",
                    "midi": 65,
                    "time": 298.3142662500008,
                    "velocity": 0.3464566929133858,
                    "duration": 0.0936622500000226
                },
                {
                    "name": "E4",
                    "midi": 64,
                    "time": 298.4079285000008,
                    "velocity": 0.3858267716535433,
                    "duration": 0.0936622500000226
                },
                {
                    "name": "F4",
                    "midi": 65,
                    "time": 298.50159075000084,
                    "velocity": 0.3464566929133858,
                    "duration": 0.0936622500000226
                },
                {
                    "name": "D#4",
                    "midi": 63,
                    "time": 298.59525300000087,
                    "velocity": 0.3858267716535433,
                    "duration": 0.0936622500000226
                },
                {
                    "name": "F4",
                    "midi": 65,
                    "time": 298.6889152500009,
                    "velocity": 0.3858267716535433,
                    "duration": 0.0936622500000226
                },
                {
                    "name": "D4",
                    "midi": 62,
                    "time": 298.7825775000009,
                    "velocity": 0.4251968503937008,
                    "duration": 0.0936622500000226
                },
                {
                    "name": "F4",
                    "midi": 65,
                    "time": 298.87623975000093,
                    "velocity": 0.3858267716535433,
                    "duration": 0.0936622500000226
                },
                {
                    "name": "C4",
                    "midi": 60,
                    "time": 298.96990200000096,
                    "velocity": 0.3858267716535433,
                    "duration": 0.0936622500000226
                },
                {
                    "name": "F4",
                    "midi": 65,
                    "time": 299.063564250001,
                    "velocity": 0.36220472440944884,
                    "duration": 0.0936622500000226
                },
                {
                    "name": "E4",
                    "midi": 64,
                    "time": 299.157226500001,
                    "velocity": 0.3858267716535433,
                    "duration": 0.0936622500000226
                },
                {
                    "name": "F4",
                    "midi": 65,
                    "time": 299.250888750001,
                    "velocity": 0.3464566929133858,
                    "duration": 0.0936622500000226
                },
                {
                    "name": "G4",
                    "midi": 67,
                    "time": 299.34455100000105,
                    "velocity": 0.3858267716535433,
                    "duration": 0.0936622500000226
                },
                {
                    "name": "F4",
                    "midi": 65,
                    "time": 299.43821325000107,
                    "velocity": 0.3464566929133858,
                    "duration": 0.0936622500000226
                },
                {
                    "name": "E4",
                    "midi": 64,
                    "time": 299.5318755000011,
                    "velocity": 0.3858267716535433,
                    "duration": 0.0936622500000226
                },
                {
                    "name": "F4",
                    "midi": 65,
                    "time": 299.6255377500011,
                    "velocity": 0.3464566929133858,
                    "duration": 0.0936622500000226
                },
                {
                    "name": "D#5",
                    "midi": 75,
                    "time": 299.71920000000114,
                    "velocity": 0.3858267716535433,
                    "duration": 0.0936622500000226
                },
                {
                    "name": "F4",
                    "midi": 65,
                    "time": 299.81286225000116,
                    "velocity": 0.3858267716535433,
                    "duration": 0.0936622500000226
                },
                {
                    "name": "D#5",
                    "midi": 75,
                    "time": 299.9065245000012,
                    "velocity": 0.4251968503937008,
                    "duration": 0.0936622500000226
                },
                {
                    "name": "F4",
                    "midi": 65,
                    "time": 300.0001867500012,
                    "velocity": 0.3858267716535433,
                    "duration": 0.0936622500000226
                },
                {
                    "name": "D5",
                    "midi": 74,
                    "time": 300.0938490000012,
                    "velocity": 0.3858267716535433,
                    "duration": 0.0936622500000226
                },
                {
                    "name": "F5",
                    "midi": 77,
                    "time": 300.18751125000125,
                    "velocity": 0.36220472440944884,
                    "duration": 0.0936622500000226
                },
                {
                    "name": "E5",
                    "midi": 76,
                    "time": 300.2811735000013,
                    "velocity": 0.3858267716535433,
                    "duration": 0.0936622500000226
                },
                {
                    "name": "F5",
                    "midi": 77,
                    "time": 300.3748357500013,
                    "velocity": 0.3464566929133858,
                    "duration": 0.0936622500000226
                },
                {
                    "name": "G5",
                    "midi": 79,
                    "time": 300.4684980000013,
                    "velocity": 0.3858267716535433,
                    "duration": 0.0936622500000226
                },
                {
                    "name": "F5",
                    "midi": 77,
                    "time": 300.56216025000134,
                    "velocity": 0.3464566929133858,
                    "duration": 0.0936622500000226
                },
                {
                    "name": "E5",
                    "midi": 76,
                    "time": 300.65582250000136,
                    "velocity": 0.3858267716535433,
                    "duration": 0.0936622500000226
                },
                {
                    "name": "F5",
                    "midi": 77,
                    "time": 300.7494847500014,
                    "velocity": 0.3464566929133858,
                    "duration": 0.0936622500000226
                },
                {
                    "name": "D#5",
                    "midi": 75,
                    "time": 300.8431470000014,
                    "velocity": 0.3858267716535433,
                    "duration": 0.0936622500000226
                },
                {
                    "name": "F5",
                    "midi": 77,
                    "time": 300.93680925000143,
                    "velocity": 0.3858267716535433,
                    "duration": 0.0936622500000226
                },
                {
                    "name": "D5",
                    "midi": 74,
                    "time": 301.03047150000145,
                    "velocity": 0.4251968503937008,
                    "duration": 0.0936622500000226
                },
                {
                    "name": "F5",
                    "midi": 77,
                    "time": 301.1241337500015,
                    "velocity": 0.3858267716535433,
                    "duration": 0.0936622500000226
                },
                {
                    "name": "C5",
                    "midi": 72,
                    "time": 301.2177960000015,
                    "velocity": 0.3858267716535433,
                    "duration": 0.0936622500000226
                },
                {
                    "name": "F5",
                    "midi": 77,
                    "time": 301.3114582500015,
                    "velocity": 0.36220472440944884,
                    "duration": 0.0936622500000226
                },
                {
                    "name": "E5",
                    "midi": 76,
                    "time": 301.40512050000154,
                    "velocity": 0.3858267716535433,
                    "duration": 0.0936622500000226
                },
                {
                    "name": "F5",
                    "midi": 77,
                    "time": 301.49878275000157,
                    "velocity": 0.3464566929133858,
                    "duration": 0.0936622500000226
                },
                {
                    "name": "G5",
                    "midi": 79,
                    "time": 301.5924450000016,
                    "velocity": 0.3858267716535433,
                    "duration": 0.0936622500000226
                },
                {
                    "name": "F5",
                    "midi": 77,
                    "time": 301.6861072500016,
                    "velocity": 0.3464566929133858,
                    "duration": 0.0936622500000226
                },
                {
                    "name": "E5",
                    "midi": 76,
                    "time": 301.77976950000163,
                    "velocity": 0.3858267716535433,
                    "duration": 0.0936622500000226
                },
                {
                    "name": "F5",
                    "midi": 77,
                    "time": 301.87343175000166,
                    "velocity": 0.3464566929133858,
                    "duration": 0.0936622500000226
                },
                {
                    "name": "D#6",
                    "midi": 87,
                    "time": 301.9670940000017,
                    "velocity": 0.3858267716535433,
                    "duration": 0.0936622500000226
                },
                {
                    "name": "F5",
                    "midi": 77,
                    "time": 302.0607562500017,
                    "velocity": 0.3858267716535433,
                    "duration": 0.0936622500000226
                },
                {
                    "name": "D#6",
                    "midi": 87,
                    "time": 302.1544185000017,
                    "velocity": 0.4251968503937008,
                    "duration": 0.0936622500000226
                },
                {
                    "name": "F5",
                    "midi": 77,
                    "time": 302.24808075000175,
                    "velocity": 0.3858267716535433,
                    "duration": 0.0936622500000226
                },
                {
                    "name": "D6",
                    "midi": 86,
                    "time": 302.34174300000177,
                    "velocity": 0.3858267716535433,
                    "duration": 0.0936622500000226
                },
                {
                    "name": "F5",
                    "midi": 77,
                    "time": 302.4354052500018,
                    "velocity": 0.36220472440944884,
                    "duration": 0.0936622500000226
                },
                {
                    "name": "E5",
                    "midi": 76,
                    "time": 302.5290675000018,
                    "velocity": 0.3858267716535433,
                    "duration": 0.0936622500000226
                },
                {
                    "name": "F5",
                    "midi": 77,
                    "time": 302.62272975000184,
                    "velocity": 0.3464566929133858,
                    "duration": 0.0936622500000226
                },
                {
                    "name": "G5",
                    "midi": 79,
                    "time": 302.71639200000186,
                    "velocity": 0.3858267716535433,
                    "duration": 0.0936622500000226
                },
                {
                    "name": "F5",
                    "midi": 77,
                    "time": 302.8100542500019,
                    "velocity": 0.3464566929133858,
                    "duration": 0.0936622500000226
                },
                {
                    "name": "E5",
                    "midi": 76,
                    "time": 302.9037165000019,
                    "velocity": 0.3858267716535433,
                    "duration": 0.0936622500000226
                },
                {
                    "name": "F5",
                    "midi": 77,
                    "time": 302.99737875000193,
                    "velocity": 0.3464566929133858,
                    "duration": 0.0936622500000226
                },
                {
                    "name": "G#5",
                    "midi": 80,
                    "time": 303.09104100000195,
                    "velocity": 0.3858267716535433,
                    "duration": 0.0936622500000226
                },
                {
                    "name": "F5",
                    "midi": 77,
                    "time": 303.184703250002,
                    "velocity": 0.3858267716535433,
                    "duration": 0.0936622500000226
                },
                {
                    "name": "D#5",
                    "midi": 75,
                    "time": 303.278365500002,
                    "velocity": 0.4251968503937008,
                    "duration": 0.0936622500000226
                },
                {
                    "name": "F5",
                    "midi": 77,
                    "time": 303.372027750002,
                    "velocity": 0.3858267716535433,
                    "duration": 0.0936622500000226
                },
                {
                    "name": "D5",
                    "midi": 74,
                    "time": 303.46569000000204,
                    "velocity": 0.3858267716535433,
                    "duration": 0.0936622500000226
                },
                {
                    "name": "G5",
                    "midi": 79,
                    "time": 303.55935225000206,
                    "velocity": 0.36220472440944884,
                    "duration": 0.0936622500000226
                },
                {
                    "name": "F#5",
                    "midi": 78,
                    "time": 303.6530145000021,
                    "velocity": 0.3858267716535433,
                    "duration": 0.0936622500000226
                },
                {
                    "name": "G5",
                    "midi": 79,
                    "time": 303.7466767500021,
                    "velocity": 0.3464566929133858,
                    "duration": 0.0936622500000226
                },
                {
                    "name": "A5",
                    "midi": 81,
                    "time": 303.84033900000213,
                    "velocity": 0.3858267716535433,
                    "duration": 0.0936622500000226
                },
                {
                    "name": "G5",
                    "midi": 79,
                    "time": 303.93400125000215,
                    "velocity": 0.3464566929133858,
                    "duration": 0.0936622500000226
                },
                {
                    "name": "F#5",
                    "midi": 78,
                    "time": 304.0276635000022,
                    "velocity": 0.4094488188976378,
                    "duration": 0.0936622500000226
                },
                {
                    "name": "G5",
                    "midi": 79,
                    "time": 304.1213257500022,
                    "velocity": 0.3464566929133858,
                    "duration": 0.0936622500000226
                },
                {
                    "name": "F6",
                    "midi": 89,
                    "time": 304.2149880000022,
                    "velocity": 0.4330708661417323,
                    "duration": 0.0936622500000226
                },
                {
                    "name": "G5",
                    "midi": 79,
                    "time": 304.30865025000224,
                    "velocity": 0.3858267716535433,
                    "duration": 0.0936622500000226
                },
                {
                    "name": "F6",
                    "midi": 89,
                    "time": 304.40231250000227,
                    "velocity": 0.44881889763779526,
                    "duration": 0.0936622500000226
                },
                {
                    "name": "G5",
                    "midi": 79,
                    "time": 304.4959747500023,
                    "velocity": 0.3858267716535433,
                    "duration": 0.0936622500000226
                },
                {
                    "name": "E6",
                    "midi": 88,
                    "time": 304.5896370000023,
                    "velocity": 0.4881889763779528,
                    "duration": 0.3746489999999767
                },
                {
                    "name": "D#6",
                    "midi": 87,
                    "time": 304.9642860000023,
                    "velocity": 0.47244094488188976,
                    "duration": 0.3746489999999767
                },
                {
                    "name": "D6",
                    "midi": 86,
                    "time": 305.33893500000227,
                    "velocity": 0.44881889763779526,
                    "duration": 0.3746489999999767
                },
                {
                    "name": "D6",
                    "midi": 86,
                    "time": 305.71358400000224,
                    "velocity": 0.47244094488188976,
                    "duration": 0.10302847500003054
                },
                {
                    "name": "C6",
                    "midi": 84,
                    "time": 305.80724625000227,
                    "velocity": 0.4094488188976378,
                    "duration": 0.10302847500003054
                },
                {
                    "name": "D#6",
                    "midi": 87,
                    "time": 305.9009085000023,
                    "velocity": 0.4094488188976378,
                    "duration": 0.10302847500003054
                },
                {
                    "name": "C6",
                    "midi": 84,
                    "time": 305.9945707500023,
                    "velocity": 0.4094488188976378,
                    "duration": 0.07024668750000274
                },
                {
                    "name": "C6",
                    "midi": 84,
                    "time": 306.08823300000233,
                    "velocity": 0.4881889763779528,
                    "duration": 0.10302847500003054
                },
                {
                    "name": "A#5",
                    "midi": 82,
                    "time": 306.18189525000236,
                    "velocity": 0.4094488188976378,
                    "duration": 0.10302847500003054
                },
                {
                    "name": "D6",
                    "midi": 86,
                    "time": 306.2755575000024,
                    "velocity": 0.4094488188976378,
                    "duration": 0.10302847500003054
                },
                {
                    "name": "A#5",
                    "midi": 82,
                    "time": 306.3692197500024,
                    "velocity": 0.4094488188976378,
                    "duration": 0.07024668750000274
                },
                {
                    "name": "A#5",
                    "midi": 82,
                    "time": 306.4628820000024,
                    "velocity": 0.4881889763779528,
                    "duration": 0.10302847500003054
                },
                {
                    "name": "A5",
                    "midi": 81,
                    "time": 306.55654425000245,
                    "velocity": 0.4094488188976378,
                    "duration": 0.10302847500003054
                },
                {
                    "name": "C6",
                    "midi": 84,
                    "time": 306.65020650000247,
                    "velocity": 0.4094488188976378,
                    "duration": 0.10302847500003054
                },
                {
                    "name": "A5",
                    "midi": 81,
                    "time": 306.7438687500025,
                    "velocity": 0.4094488188976378,
                    "duration": 0.0936622500000226
                },
                {
                    "name": "A#5",
                    "midi": 82,
                    "time": 306.8375310000025,
                    "velocity": 0.4251968503937008,
                    "duration": 0.0936622500000226
                },
                {
                    "name": "D6",
                    "midi": 86,
                    "time": 306.93119325000254,
                    "velocity": 0.44881889763779526,
                    "duration": 0.0936622500000226
                },
                {
                    "name": "F6",
                    "midi": 89,
                    "time": 307.02485550000256,
                    "velocity": 0.4566929133858268,
                    "duration": 0.0936622500000226
                },
                {
                    "name": "D#6",
                    "midi": 87,
                    "time": 307.1185177500026,
                    "velocity": 0.47244094488188976,
                    "duration": 0.0936622500000226
                },
                {
                    "name": "D6",
                    "midi": 86,
                    "time": 307.2121800000026,
                    "velocity": 0.4566929133858268,
                    "duration": 0.0936622500000226
                },
                {
                    "name": "C6",
                    "midi": 84,
                    "time": 307.3058422500026,
                    "velocity": 0.4409448818897638,
                    "duration": 0.0936622500000226
                },
                {
                    "name": "A#5",
                    "midi": 82,
                    "time": 307.39950450000265,
                    "velocity": 0.4251968503937008,
                    "duration": 0.0936622500000226
                },
                {
                    "name": "A5",
                    "midi": 81,
                    "time": 307.4931667500027,
                    "velocity": 0.4094488188976378,
                    "duration": 0.0936622500000226
                },
                {
                    "name": "G5",
                    "midi": 79,
                    "time": 307.5868290000027,
                    "velocity": 0.4330708661417323,
                    "duration": 0.0936622500000226
                },
                {
                    "name": "F5",
                    "midi": 77,
                    "time": 307.6804912500027,
                    "velocity": 0.4015748031496063,
                    "duration": 0.0936622500000226
                },
                {
                    "name": "D#5",
                    "midi": 75,
                    "time": 307.77415350000274,
                    "velocity": 0.3937007874015748,
                    "duration": 0.0936622500000226
                },
                {
                    "name": "D5",
                    "midi": 74,
                    "time": 307.86781575000276,
                    "velocity": 0.3937007874015748,
                    "duration": 0.0936622500000226
                },
                {
                    "name": "C5",
                    "midi": 72,
                    "time": 307.9614780000028,
                    "velocity": 0.3937007874015748,
                    "duration": 0.0936622500000226
                },
                {
                    "name": "D#5",
                    "midi": 75,
                    "time": 308.0551402500028,
                    "velocity": 0.41732283464566927,
                    "duration": 0.0936622500000226
                },
                {
                    "name": "G5",
                    "midi": 79,
                    "time": 308.14880250000283,
                    "velocity": 0.4409448818897638,
                    "duration": 0.0936622500000226
                },
                {
                    "name": "F5",
                    "midi": 77,
                    "time": 308.24246475000285,
                    "velocity": 0.4330708661417323,
                    "duration": 0.0936622500000226
                },
                {
                    "name": "D#5",
                    "midi": 75,
                    "time": 308.3361270000029,
                    "velocity": 0.4251968503937008,
                    "duration": 0.0936622500000226
                },
                {
                    "name": "D5",
                    "midi": 74,
                    "time": 308.4297892500029,
                    "velocity": 0.41732283464566927,
                    "duration": 0.0936622500000226
                },
                {
                    "name": "C5",
                    "midi": 72,
                    "time": 308.5234515000029,
                    "velocity": 0.4094488188976378,
                    "duration": 0.0936622500000226
                },
                {
                    "name": "A#4",
                    "midi": 70,
                    "time": 308.61711375000294,
                    "velocity": 0.3937007874015748,
                    "duration": 0.0936622500000226
                },
                {
                    "name": "A4",
                    "midi": 69,
                    "time": 308.71077600000297,
                    "velocity": 0.3858267716535433,
                    "duration": 0.0936622500000226
                },
                {
                    "name": "G4",
                    "midi": 67,
                    "time": 308.804438250003,
                    "velocity": 0.3937007874015748,
                    "duration": 0.0936622500000226
                },
                {
                    "name": "F4",
                    "midi": 65,
                    "time": 308.898100500003,
                    "velocity": 0.41732283464566927,
                    "duration": 0.0936622500000226
                },
                {
                    "name": "E4",
                    "midi": 64,
                    "time": 308.99176275000303,
                    "velocity": 0.4409448818897638,
                    "duration": 0.0936622500000226
                },
                {
                    "name": "F4",
                    "midi": 65,
                    "time": 309.08542500000306,
                    "velocity": 0.4645669291338583,
                    "duration": 0.0936622500000226
                },
                {
                    "name": "A#4",
                    "midi": 70,
                    "time": 309.2727495000031,
                    "velocity": 0.4645669291338583,
                    "duration": 0.0936622500000226
                },
                {
                    "name": "D5",
                    "midi": 74,
                    "time": 309.46007400000315,
                    "velocity": 0.48031496062992124,
                    "duration": 0.0936622500000226
                },
                {
                    "name": "F5",
                    "midi": 77,
                    "time": 309.6473985000032,
                    "velocity": 0.4881889763779528,
                    "duration": 0.0936622500000226
                },
                {
                    "name": "A#5",
                    "midi": 82,
                    "time": 309.83472300000324,
                    "velocity": 0.5039370078740157,
                    "duration": 0.0936622500000226
                },
                {
                    "name": "D6",
                    "midi": 86,
                    "time": 310.0220475000033,
                    "velocity": 0.5118110236220472,
                    "duration": 0.0936622500000226
                },
                {
                    "name": "C5",
                    "midi": 72,
                    "time": 310.2093720000033,
                    "velocity": 0.29133858267716534,
                    "duration": 0.046831124999982876
                },
                {
                    "name": "D5",
                    "midi": 74,
                    "time": 310.2562031250033,
                    "velocity": 0.2440944881889764,
                    "duration": 0.046831124999982876
                },
                {
                    "name": "C5",
                    "midi": 72,
                    "time": 310.3030342500033,
                    "velocity": 0.29133858267716534,
                    "duration": 0.046831124999982876
                },
                {
                    "name": "D5",
                    "midi": 74,
                    "time": 310.3498653750033,
                    "velocity": 0.2440944881889764,
                    "duration": 0.046831124999982876
                },
                {
                    "name": "C5",
                    "midi": 72,
                    "time": 310.39669650000326,
                    "velocity": 0.29133858267716534,
                    "duration": 0.046831124999982876
                },
                {
                    "name": "D5",
                    "midi": 74,
                    "time": 310.44352762500324,
                    "velocity": 0.25196850393700787,
                    "duration": 0.046831124999982876
                },
                {
                    "name": "C5",
                    "midi": 72,
                    "time": 310.4903587500032,
                    "velocity": 0.29133858267716534,
                    "duration": 0.046831124999982876
                },
                {
                    "name": "D5",
                    "midi": 74,
                    "time": 310.5371898750032,
                    "velocity": 0.25984251968503935,
                    "duration": 0.046831124999982876
                },
                {
                    "name": "C5",
                    "midi": 72,
                    "time": 310.5840210000032,
                    "velocity": 0.29133858267716534,
                    "duration": 0.046831124999982876
                },
                {
                    "name": "D5",
                    "midi": 74,
                    "time": 310.6308521250032,
                    "velocity": 0.25196850393700787,
                    "duration": 0.046831124999982876
                },
                {
                    "name": "C5",
                    "midi": 72,
                    "time": 310.67768325000316,
                    "velocity": 0.29133858267716534,
                    "duration": 0.046831124999982876
                },
                {
                    "name": "D5",
                    "midi": 74,
                    "time": 310.72451437500314,
                    "velocity": 0.25196850393700787,
                    "duration": 0.046831124999982876
                },
                {
                    "name": "C5",
                    "midi": 72,
                    "time": 310.7713455000031,
                    "velocity": 0.29133858267716534,
                    "duration": 0.046831124999982876
                },
                {
                    "name": "D5",
                    "midi": 74,
                    "time": 310.8181766250031,
                    "velocity": 0.2440944881889764,
                    "duration": 0.046831124999982876
                },
                {
                    "name": "C5",
                    "midi": 72,
                    "time": 310.8650077500031,
                    "velocity": 0.29133858267716534,
                    "duration": 0.046831124999982876
                },
                {
                    "name": "D5",
                    "midi": 74,
                    "time": 310.91183887500307,
                    "velocity": 0.25984251968503935,
                    "duration": 0.046831124999982876
                },
                {
                    "name": "C5",
                    "midi": 72,
                    "time": 310.95867000000305,
                    "velocity": 0.29133858267716534,
                    "duration": 0.046831124999982876
                },
                {
                    "name": "D5",
                    "midi": 74,
                    "time": 311.00550112500304,
                    "velocity": 0.25196850393700787,
                    "duration": 0.046831124999982876
                },
                {
                    "name": "C5",
                    "midi": 72,
                    "time": 311.052332250003,
                    "velocity": 0.29133858267716534,
                    "duration": 0.06244149999997717
                },
                {
                    "name": "D5",
                    "midi": 74,
                    "time": 311.114773750003,
                    "velocity": 0.25196850393700787,
                    "duration": 0.06244149999997717
                },
                {
                    "name": "C5",
                    "midi": 72,
                    "time": 311.177215250003,
                    "velocity": 0.29133858267716534,
                    "duration": 0.06244149999997717
                },
                {
                    "name": "A#4",
                    "midi": 70,
                    "time": 311.23965675000295,
                    "velocity": 0.25984251968503935,
                    "duration": 0.046831124999982876
                },
                {
                    "name": "C5",
                    "midi": 72,
                    "time": 311.28648787500293,
                    "velocity": 0.25984251968503935,
                    "duration": 0.046831124999982876
                },
                {
                    "name": "A#4",
                    "midi": 70,
                    "time": 311.3333190000029,
                    "velocity": 0.3858267716535433,
                    "duration": 0.3746489999999767
                },
                {
                    "name": "D#5",
                    "midi": 75,
                    "time": 312.4572660000029,
                    "velocity": 0.36220472440944884,
                    "duration": 0.3746489999999767
                },
                {
                    "name": "F5",
                    "midi": 77,
                    "time": 312.8319150000029,
                    "velocity": 0.3937007874015748,
                    "duration": 0.3746489999999767
                },
                {
                    "name": "G5",
                    "midi": 79,
                    "time": 313.20656400000286,
                    "velocity": 0.4015748031496063,
                    "duration": 0.3746489999999767
                },
                {
                    "name": "F5",
                    "midi": 77,
                    "time": 313.58121300000283,
                    "velocity": 0.4015748031496063,
                    "duration": 0.5619735000000219
                },
                {
                    "name": "G5",
                    "midi": 79,
                    "time": 314.14318650000286,
                    "velocity": 0.3779527559055118,
                    "duration": 0.10302847500003054
                },
                {
                    "name": "F5",
                    "midi": 77,
                    "time": 314.2368487500029,
                    "velocity": 0.33858267716535434,
                    "duration": 0.10302847500003054
                },
                {
                    "name": "D#5",
                    "midi": 75,
                    "time": 314.3305110000029,
                    "velocity": 0.3937007874015748,
                    "duration": 0.10302847500003054
                },
                {
                    "name": "D5",
                    "midi": 74,
                    "time": 314.4241732500029,
                    "velocity": 0.3779527559055118,
                    "duration": 0.10302847500003054
                },
                {
                    "name": "C5",
                    "midi": 72,
                    "time": 314.51783550000295,
                    "velocity": 0.3700787401574803,
                    "duration": 0.10302847500003054
                },
                {
                    "name": "A#4",
                    "midi": 70,
                    "time": 314.61149775000297,
                    "velocity": 0.3543307086614173,
                    "duration": 0.0936622500000226
                },
                {
                    "name": "D5",
                    "midi": 74,
                    "time": 314.705160000003,
                    "velocity": 0.3779527559055118,
                    "duration": 0.5619735000000219
                },
                {
                    "name": "D#5",
                    "midi": 75,
                    "time": 315.267133500003,
                    "velocity": 0.31496062992125984,
                    "duration": 0.18732449999998835
                },
                {
                    "name": "C5",
                    "midi": 72,
                    "time": 315.454458000003,
                    "velocity": 0.3464566929133858,
                    "duration": 0.3746489999999767
                },
                {
                    "name": "A#4",
                    "midi": 70,
                    "time": 315.829107000003,
                    "velocity": 0.36220472440944884,
                    "duration": 0.3746489999999767
                },
                {
                    "name": "D#4",
                    "midi": 63,
                    "time": 316.95305400000296,
                    "velocity": 0.4094488188976378,
                    "duration": 0.18732449999998835
                },
                {
                    "name": "D#5",
                    "midi": 75,
                    "time": 317.14037850000295,
                    "velocity": 0.3700787401574803,
                    "duration": 0.18732449999998835
                },
                {
                    "name": "F4",
                    "midi": 65,
                    "time": 317.32770300000294,
                    "velocity": 0.4251968503937008,
                    "duration": 0.18732449999998835
                },
                {
                    "name": "F5",
                    "midi": 77,
                    "time": 317.51502750000293,
                    "velocity": 0.3700787401574803,
                    "duration": 0.18732449999998835
                },
                {
                    "name": "G4",
                    "midi": 67,
                    "time": 317.7023520000029,
                    "velocity": 0.4566929133858268,
                    "duration": 0.18732449999998835
                },
                {
                    "name": "G5",
                    "midi": 79,
                    "time": 317.8896765000029,
                    "velocity": 0.4094488188976378,
                    "duration": 0.18732449999998835
                },
                {
                    "name": "F5",
                    "midi": 77,
                    "time": 318.0770010000029,
                    "velocity": 0.48031496062992124,
                    "duration": 0.18732449999998835
                },
                {
                    "name": "G5",
                    "midi": 79,
                    "time": 318.2643255000029,
                    "velocity": 0.4251968503937008,
                    "duration": 0.0936622500000226
                },
                {
                    "name": "A5",
                    "midi": 81,
                    "time": 318.3579877500029,
                    "velocity": 0.4566929133858268,
                    "duration": 0.0936622500000226
                },
                {
                    "name": "A#5",
                    "midi": 82,
                    "time": 318.4516500000029,
                    "velocity": 0.48031496062992124,
                    "duration": 0.0936622500000226
                },
                {
                    "name": "A5",
                    "midi": 81,
                    "time": 318.54531225000295,
                    "velocity": 0.48031496062992124,
                    "duration": 0.0936622500000226
                },
                {
                    "name": "G5",
                    "midi": 79,
                    "time": 318.638974500003,
                    "velocity": 0.47244094488188976,
                    "duration": 0.0936622500000226
                },
                {
                    "name": "F5",
                    "midi": 77,
                    "time": 318.732636750003,
                    "velocity": 0.4566929133858268,
                    "duration": 0.0936622500000226
                },
                {
                    "name": "D#5",
                    "midi": 75,
                    "time": 318.826299000003,
                    "velocity": 0.44881889763779526,
                    "duration": 0.0936622500000226
                },
                {
                    "name": "D5",
                    "midi": 74,
                    "time": 318.91996125000304,
                    "velocity": 0.4330708661417323,
                    "duration": 0.0936622500000226
                },
                {
                    "name": "C5",
                    "midi": 72,
                    "time": 319.01362350000306,
                    "velocity": 0.4251968503937008,
                    "duration": 0.0936622500000226
                },
                {
                    "name": "A#4",
                    "midi": 70,
                    "time": 319.1072857500031,
                    "velocity": 0.4094488188976378,
                    "duration": 0.0936622500000226
                },
                {
                    "name": "D5",
                    "midi": 74,
                    "time": 319.2009480000031,
                    "velocity": 0.4881889763779528,
                    "duration": 0.5619735000000219
                },
                {
                    "name": "D#5",
                    "midi": 75,
                    "time": 319.76292150000313,
                    "velocity": 0.4409448818897638,
                    "duration": 0.18732449999998835
                },
                {
                    "name": "C5",
                    "midi": 72,
                    "time": 319.9502460000031,
                    "velocity": 0.4881889763779528,
                    "duration": 0.3746489999999767
                },
                {
                    "name": "A#4",
                    "midi": 70,
                    "time": 320.3248950000031,
                    "velocity": 0.5275590551181102,
                    "duration": 0.3746489999999767
                },
                {
                    "name": "F5",
                    "midi": 77,
                    "time": 320.7932062500031,
                    "velocity": 0.47244094488188976,
                    "duration": 0.0936622500000226
                },
                {
                    "name": "G5",
                    "midi": 79,
                    "time": 320.8868685000031,
                    "velocity": 0.5118110236220472,
                    "duration": 0.0936622500000226
                },
                {
                    "name": "F5",
                    "midi": 77,
                    "time": 320.98053075000314,
                    "velocity": 0.47244094488188976,
                    "duration": 0.0936622500000226
                },
                {
                    "name": "D#5",
                    "midi": 75,
                    "time": 321.07419300000316,
                    "velocity": 0.5039370078740157,
                    "duration": 0.0936622500000226
                },
                {
                    "name": "D5",
                    "midi": 74,
                    "time": 321.1678552500032,
                    "velocity": 0.4881889763779528,
                    "duration": 0.0936622500000226
                },
                {
                    "name": "D#5",
                    "midi": 75,
                    "time": 321.2615175000032,
                    "velocity": 0.47244094488188976,
                    "duration": 0.0936622500000226
                },
                {
                    "name": "C5",
                    "midi": 72,
                    "time": 321.35517975000323,
                    "velocity": 0.4566929133858268,
                    "duration": 0.0936622500000226
                },
                {
                    "name": "A#4",
                    "midi": 70,
                    "time": 321.44884200000325,
                    "velocity": 0.5354330708661418,
                    "duration": 0.3746489999999767
                },
                {
                    "name": "F4",
                    "midi": 65,
                    "time": 321.91715325000325,
                    "velocity": 0.47244094488188976,
                    "duration": 0.0936622500000226
                },
                {
                    "name": "G4",
                    "midi": 67,
                    "time": 322.0108155000033,
                    "velocity": 0.5118110236220472,
                    "duration": 0.0936622500000226
                },
                {
                    "name": "F4",
                    "midi": 65,
                    "time": 322.1044777500033,
                    "velocity": 0.47244094488188976,
                    "duration": 0.0936622500000226
                },
                {
                    "name": "D#4",
                    "midi": 63,
                    "time": 322.1981400000033,
                    "velocity": 0.5039370078740157,
                    "duration": 0.0936622500000226
                },
                {
                    "name": "D4",
                    "midi": 62,
                    "time": 322.29180225000334,
                    "velocity": 0.4881889763779528,
                    "duration": 0.0936622500000226
                },
                {
                    "name": "D#4",
                    "midi": 63,
                    "time": 322.38546450000337,
                    "velocity": 0.47244094488188976,
                    "duration": 0.0936622500000226
                },
                {
                    "name": "C4",
                    "midi": 60,
                    "time": 322.4791267500034,
                    "velocity": 0.4566929133858268,
                    "duration": 0.0936622500000226
                },
                {
                    "name": "A#3",
                    "midi": 58,
                    "time": 322.5727890000034,
                    "velocity": 0.5590551181102362,
                    "duration": 0.13112714999999753
                },
                {
                    "name": "D5",
                    "midi": 74,
                    "time": 322.9474380000034,
                    "velocity": 0.4645669291338583,
                    "duration": 0.3746489999999767
                },
                {
                    "name": "F5",
                    "midi": 77,
                    "time": 322.9474380000034,
                    "velocity": 0.4645669291338583,
                    "duration": 0.3746489999999767
                },
                {
                    "name": "A#5",
                    "midi": 82,
                    "time": 322.9474380000034,
                    "velocity": 0.6062992125984252,
                    "duration": 0.3746489999999767
                },
                {
                    "name": "F#4",
                    "midi": 66,
                    "time": 323.69673600000334,
                    "velocity": 0.5590551181102362,
                    "duration": 0.3746489999999767
                },
                {
                    "name": "G#4",
                    "midi": 68,
                    "time": 324.0713850000033,
                    "velocity": 0.4645669291338583,
                    "duration": 0.3746489999999767
                },
                {
                    "name": "C5",
                    "midi": 72,
                    "time": 324.0713850000033,
                    "velocity": 0.4645669291338583,
                    "duration": 0.3746489999999767
                },
                {
                    "name": "F#5",
                    "midi": 78,
                    "time": 324.0713850000033,
                    "velocity": 0.6062992125984252,
                    "duration": 0.3746489999999767
                },
                {
                    "name": "C#4",
                    "midi": 61,
                    "time": 324.82068300000327,
                    "velocity": 0.33858267716535434,
                    "duration": 0.7492980000000102
                },
                {
                    "name": "D#4",
                    "midi": 63,
                    "time": 325.5699810000033,
                    "velocity": 0.28346456692913385,
                    "duration": 0.10302847500003054
                },
                {
                    "name": "C#4",
                    "midi": 61,
                    "time": 325.6636432500033,
                    "velocity": 0.28346456692913385,
                    "duration": 0.10302847500003054
                },
                {
                    "name": "C4",
                    "midi": 60,
                    "time": 325.7573055000033,
                    "velocity": 0.28346456692913385,
                    "duration": 0.10302847500003054
                },
                {
                    "name": "C#4",
                    "midi": 61,
                    "time": 325.85096775000335,
                    "velocity": 0.28346456692913385,
                    "duration": 0.0936622500000226
                },
                {
                    "name": "A#4",
                    "midi": 70,
                    "time": 325.9446300000034,
                    "velocity": 0.33070866141732286,
                    "duration": 0.18732449999998835
                },
                {
                    "name": "G#4",
                    "midi": 68,
                    "time": 326.13195450000336,
                    "velocity": 0.29133858267716534,
                    "duration": 0.18264138749998438
                },
                {
                    "name": "G#4",
                    "midi": 68,
                    "time": 326.31927900000335,
                    "velocity": 0.33858267716535434,
                    "duration": 0.3746489999999767
                },
                {
                    "name": "G#4",
                    "midi": 68,
                    "time": 326.6939280000033,
                    "velocity": 0.2992125984251969,
                    "duration": 0.3746489999999767
                },
                {
                    "name": "G#4",
                    "midi": 68,
                    "time": 327.0685770000033,
                    "velocity": 0.30708661417322836,
                    "duration": 0.1966907249999963
                },
                {
                    "name": "C#5",
                    "midi": 73,
                    "time": 327.2559015000033,
                    "velocity": 0.3543307086614173,
                    "duration": 0.1966907249999963
                },
                {
                    "name": "C5",
                    "midi": 72,
                    "time": 327.4432260000033,
                    "velocity": 0.3464566929133858,
                    "duration": 0.1966907249999963
                },
                {
                    "name": "B4",
                    "midi": 71,
                    "time": 327.63055050000327,
                    "velocity": 0.3228346456692913,
                    "duration": 0.1966907249999963
                },
                {
                    "name": "A#4",
                    "midi": 70,
                    "time": 327.81787500000326,
                    "velocity": 0.31496062992125984,
                    "duration": 0.1966907249999963
                },
                {
                    "name": "A4",
                    "midi": 69,
                    "time": 328.00519950000324,
                    "velocity": 0.2992125984251969,
                    "duration": 0.1966907249999963
                },
                {
                    "name": "G#4",
                    "midi": 68,
                    "time": 328.19252400000323,
                    "velocity": 0.3228346456692913,
                    "duration": 0.37464900000003354
                },
                {
                    "name": "C#4",
                    "midi": 61,
                    "time": 329.3164710000033,
                    "velocity": 0.3543307086614173,
                    "duration": 0.7492980000000102
                },
                {
                    "name": "D#4",
                    "midi": 63,
                    "time": 330.0657690000033,
                    "velocity": 0.33070866141732286,
                    "duration": 0.10302847500003054
                },
                {
                    "name": "C#4",
                    "midi": 61,
                    "time": 330.1594312500033,
                    "velocity": 0.30708661417322836,
                    "duration": 0.10302847500003054
                },
                {
                    "name": "C4",
                    "midi": 60,
                    "time": 330.25309350000333,
                    "velocity": 0.33070866141732286,
                    "duration": 0.10302847500003054
                },
                {
                    "name": "C#4",
                    "midi": 61,
                    "time": 330.34675575000335,
                    "velocity": 0.31496062992125984,
                    "duration": 0.0936622500000226
                },
                {
                    "name": "A#4",
                    "midi": 70,
                    "time": 330.4404180000034,
                    "velocity": 0.4251968503937008,
                    "duration": 0.18732449999998835
                },
                {
                    "name": "A4",
                    "midi": 69,
                    "time": 330.62774250000336,
                    "velocity": 0.3779527559055118,
                    "duration": 0.18732449999998835
                },
                {
                    "name": "A4",
                    "midi": 69,
                    "time": 330.81506700000335,
                    "velocity": 0.41732283464566927,
                    "duration": 0.3746489999999767
                },
                {
                    "name": "A4",
                    "midi": 69,
                    "time": 331.18971600000333,
                    "velocity": 0.3700787401574803,
                    "duration": 0.3746489999999767
                },
                {
                    "name": "A#4",
                    "midi": 70,
                    "time": 331.5643650000033,
                    "velocity": 0.3937007874015748,
                    "duration": 0.1966907249999963
                },
                {
                    "name": "F5",
                    "midi": 77,
                    "time": 331.7516895000033,
                    "velocity": 0.4251968503937008,
                    "duration": 0.1966907249999963
                },
                {
                    "name": "C#5",
                    "midi": 73,
                    "time": 331.9390140000033,
                    "velocity": 0.4330708661417323,
                    "duration": 0.1966907249999963
                },
                {
                    "name": "C5",
                    "midi": 72,
                    "time": 332.12633850000327,
                    "velocity": 0.41732283464566927,
                    "duration": 0.1966907249999963
                },
                {
                    "name": "A#4",
                    "midi": 70,
                    "time": 332.31366300000326,
                    "velocity": 0.4015748031496063,
                    "duration": 0.1966907249999963
                },
                {
                    "name": "G#4",
                    "midi": 68,
                    "time": 332.50098750000325,
                    "velocity": 0.3937007874015748,
                    "duration": 0.1966907249999963
                },
                {
                    "name": "G4",
                    "midi": 67,
                    "time": 332.68831200000324,
                    "velocity": 0.3937007874015748,
                    "duration": 0.37464900000003354
                },
                {
                    "name": "G#4",
                    "midi": 68,
                    "time": 333.8122590000033,
                    "velocity": 0.4645669291338583,
                    "duration": 0.1966907249999963
                },
                {
                    "name": "G#5",
                    "midi": 80,
                    "time": 333.99958350000327,
                    "velocity": 0.4881889763779528,
                    "duration": 0.1966907249999963
                },
                {
                    "name": "F5",
                    "midi": 77,
                    "time": 334.18690800000326,
                    "velocity": 0.48031496062992124,
                    "duration": 0.1966907249999963
                },
                {
                    "name": "D#5",
                    "midi": 75,
                    "time": 334.37423250000325,
                    "velocity": 0.47244094488188976,
                    "duration": 0.1966907249999963
                },
                {
                    "name": "D5",
                    "midi": 74,
                    "time": 334.56155700000323,
                    "velocity": 0.4566929133858268,
                    "duration": 0.1966907249999963
                },
                {
                    "name": "C5",
                    "midi": 72,
                    "time": 334.7488815000032,
                    "velocity": 0.44881889763779526,
                    "duration": 0.1966907249999963
                },
                {
                    "name": "B4",
                    "midi": 71,
                    "time": 334.9362060000032,
                    "velocity": 0.4881889763779528,
                    "duration": 0.37464900000003354
                },
                {
                    "name": "C5",
                    "midi": 72,
                    "time": 336.06015300000325,
                    "velocity": 0.48031496062992124,
                    "duration": 0.1966907249999963
                },
                {
                    "name": "D#6",
                    "midi": 87,
                    "time": 336.24747750000324,
                    "velocity": 0.5039370078740157,
                    "duration": 0.1966907249999963
                },
                {
                    "name": "C6",
                    "midi": 84,
                    "time": 336.43480200000323,
                    "velocity": 0.48031496062992124,
                    "duration": 0.1966907249999963
                },
                {
                    "name": "A#5",
                    "midi": 82,
                    "time": 336.6221265000032,
                    "velocity": 0.47244094488188976,
                    "duration": 0.1966907249999963
                },
                {
                    "name": "G#5",
                    "midi": 80,
                    "time": 336.8094510000032,
                    "velocity": 0.4330708661417323,
                    "duration": 0.1966907249999963
                },
                {
                    "name": "G5",
                    "midi": 79,
                    "time": 336.9967755000032,
                    "velocity": 0.4409448818897638,
                    "duration": 0.1966907249999963
                },
                {
                    "name": "F#5",
                    "midi": 78,
                    "time": 337.1841000000032,
                    "velocity": 0.47244094488188976,
                    "duration": 0.37464900000003354
                },
                {
                    "name": "G5",
                    "midi": 79,
                    "time": 338.3080470000032,
                    "velocity": 0.4566929133858268,
                    "duration": 0.1966907249999963
                },
                {
                    "name": "A#5",
                    "midi": 82,
                    "time": 338.4953715000032,
                    "velocity": 0.47244094488188976,
                    "duration": 0.1966907249999963
                },
                {
                    "name": "G5",
                    "midi": 79,
                    "time": 338.6826960000032,
                    "velocity": 0.4566929133858268,
                    "duration": 0.1966907249999963
                },
                {
                    "name": "F5",
                    "midi": 77,
                    "time": 338.8700205000032,
                    "velocity": 0.4330708661417323,
                    "duration": 0.1966907249999963
                },
                {
                    "name": "D#5",
                    "midi": 75,
                    "time": 339.0573450000032,
                    "velocity": 0.41732283464566927,
                    "duration": 0.1966907249999963
                },
                {
                    "name": "D5",
                    "midi": 74,
                    "time": 339.24466950000317,
                    "velocity": 0.3937007874015748,
                    "duration": 0.1966907249999963
                },
                {
                    "name": "C#5",
                    "midi": 73,
                    "time": 339.43199400000316,
                    "velocity": 0.44881889763779526,
                    "duration": 0.37464900000003354
                },
                {
                    "name": "D5",
                    "midi": 74,
                    "time": 340.64960325000317,
                    "velocity": 0.36220472440944884,
                    "duration": 0.0936622500000226
                },
                {
                    "name": "C#5",
                    "midi": 73,
                    "time": 340.7432655000032,
                    "velocity": 0.3858267716535433,
                    "duration": 0.0936622500000226
                },
                {
                    "name": "D5",
                    "midi": 74,
                    "time": 340.8369277500032,
                    "velocity": 0.3464566929133858,
                    "duration": 0.0936622500000226
                },
                {
                    "name": "E5",
                    "midi": 76,
                    "time": 340.93059000000324,
                    "velocity": 0.3858267716535433,
                    "duration": 0.0936622500000226
                },
                {
                    "name": "D5",
                    "midi": 74,
                    "time": 341.02425225000326,
                    "velocity": 0.3464566929133858,
                    "duration": 0.0936622500000226
                },
                {
                    "name": "C#5",
                    "midi": 73,
                    "time": 341.1179145000033,
                    "velocity": 0.3858267716535433,
                    "duration": 0.0936622500000226
                },
                {
                    "name": "D5",
                    "midi": 74,
                    "time": 341.2115767500033,
                    "velocity": 0.3464566929133858,
                    "duration": 0.0936622500000226
                },
                {
                    "name": "D5",
                    "midi": 74,
                    "time": 341.39890125000335,
                    "velocity": 0.3858267716535433,
                    "duration": 0.0936622500000226
                },
                {
                    "name": "F#5",
                    "midi": 78,
                    "time": 341.49256350000337,
                    "velocity": 0.4251968503937008,
                    "duration": 0.0936622500000226
                },
                {
                    "name": "D5",
                    "midi": 74,
                    "time": 341.5862257500034,
                    "velocity": 0.3858267716535433,
                    "duration": 0.0936622500000226
                },
                {
                    "name": "D5",
                    "midi": 74,
                    "time": 341.77355025000344,
                    "velocity": 0.41732283464566927,
                    "duration": 0.0936622500000226
                },
                {
                    "name": "G5",
                    "midi": 79,
                    "time": 341.86721250000346,
                    "velocity": 0.44881889763779526,
                    "duration": 0.0936622500000226
                },
                {
                    "name": "D5",
                    "midi": 74,
                    "time": 341.9608747500035,
                    "velocity": 0.4094488188976378,
                    "duration": 0.0936622500000226
                },
                {
                    "name": "D5",
                    "midi": 74,
                    "time": 342.14819925000353,
                    "velocity": 0.4330708661417323,
                    "duration": 0.0936622500000226
                },
                {
                    "name": "C6",
                    "midi": 84,
                    "time": 342.24186150000355,
                    "velocity": 0.48031496062992124,
                    "duration": 0.0936622500000226
                },
                {
                    "name": "D5",
                    "midi": 74,
                    "time": 342.3355237500036,
                    "velocity": 0.44881889763779526,
                    "duration": 0.0936622500000226
                },
                {
                    "name": "D5",
                    "midi": 74,
                    "time": 342.5228482500036,
                    "velocity": 0.44881889763779526,
                    "duration": 0.0936622500000226
                },
                {
                    "name": "A#5",
                    "midi": 82,
                    "time": 342.61651050000364,
                    "velocity": 0.5039370078740157,
                    "duration": 0.0936622500000226
                },
                {
                    "name": "D5",
                    "midi": 74,
                    "time": 342.71017275000366,
                    "velocity": 0.44881889763779526,
                    "duration": 0.0936622500000226
                },
                {
                    "name": "A5",
                    "midi": 81,
                    "time": 342.8038350000037,
                    "velocity": 0.5039370078740157,
                    "duration": 0.0936622500000226
                },
                {
                    "name": "F#5",
                    "midi": 78,
                    "time": 342.8974972500037,
                    "velocity": 0.44881889763779526,
                    "duration": 0.0936622500000226
                },
                {
                    "name": "E5",
                    "midi": 76,
                    "time": 342.99115950000373,
                    "velocity": 0.4645669291338583,
                    "duration": 0.0936622500000226
                },
                {
                    "name": "D5",
                    "midi": 74,
                    "time": 343.08482175000375,
                    "velocity": 0.44881889763779526,
                    "duration": 0.0936622500000226
                },
                {
                    "name": "C#5",
                    "midi": 73,
                    "time": 343.1784840000038,
                    "velocity": 0.44881889763779526,
                    "duration": 0.0936622500000226
                },
                {
                    "name": "D5",
                    "midi": 74,
                    "time": 343.2721462500038,
                    "velocity": 0.4645669291338583,
                    "duration": 0.0936622500000226
                },
                {
                    "name": "E5",
                    "midi": 76,
                    "time": 343.3658085000038,
                    "velocity": 0.47244094488188976,
                    "duration": 0.0936622500000226
                },
                {
                    "name": "D5",
                    "midi": 74,
                    "time": 343.45947075000385,
                    "velocity": 0.4409448818897638,
                    "duration": 0.0936622500000226
                },
                {
                    "name": "D5",
                    "midi": 74,
                    "time": 343.6467952500039,
                    "velocity": 0.3858267716535433,
                    "duration": 0.0936622500000226
                },
                {
                    "name": "F#5",
                    "midi": 78,
                    "time": 343.7404575000039,
                    "velocity": 0.41732283464566927,
                    "duration": 0.0936622500000226
                },
                {
                    "name": "D5",
                    "midi": 74,
                    "time": 343.83411975000394,
                    "velocity": 0.3858267716535433,
                    "duration": 0.0936622500000226
                },
                {
                    "name": "D5",
                    "midi": 74,
                    "time": 344.021444250004,
                    "velocity": 0.4094488188976378,
                    "duration": 0.0936622500000226
                },
                {
                    "name": "G5",
                    "midi": 79,
                    "time": 344.115106500004,
                    "velocity": 0.4566929133858268,
                    "duration": 0.0936622500000226
                },
                {
                    "name": "D5",
                    "midi": 74,
                    "time": 344.208768750004,
                    "velocity": 0.4251968503937008,
                    "duration": 0.0936622500000226
                },
                {
                    "name": "D5",
                    "midi": 74,
                    "time": 344.39609325000407,
                    "velocity": 0.4330708661417323,
                    "duration": 0.0936622500000226
                },
                {
                    "name": "C6",
                    "midi": 84,
                    "time": 344.4897555000041,
                    "velocity": 0.48031496062992124,
                    "duration": 0.0936622500000226
                },
                {
                    "name": "D5",
                    "midi": 74,
                    "time": 344.5834177500041,
                    "velocity": 0.4330708661417323,
                    "duration": 0.0936622500000226
                },
                {
                    "name": "D5",
                    "midi": 74,
                    "time": 344.77074225000416,
                    "velocity": 0.3858267716535433,
                    "duration": 0.0936622500000226
                },
                {
                    "name": "A#5",
                    "midi": 82,
                    "time": 344.8644045000042,
                    "velocity": 0.5354330708661418,
                    "duration": 0.0936622500000226
                },
                {
                    "name": "D5",
                    "midi": 74,
                    "time": 344.9580667500042,
                    "velocity": 0.4881889763779528,
                    "duration": 0.0936622500000226
                },
                {
                    "name": "A5",
                    "midi": 81,
                    "time": 345.05172900000423,
                    "velocity": 0.5511811023622047,
                    "duration": 0.0936622500000226
                },
                {
                    "name": "D6",
                    "midi": 86,
                    "time": 345.14539125000425,
                    "velocity": 0.47244094488188976,
                    "duration": 0.0936622500000226
                },
                {
                    "name": "A5",
                    "midi": 81,
                    "time": 345.2390535000043,
                    "velocity": 0.5433070866141733,
                    "duration": 0.0936622500000226
                },
                {
                    "name": "F#5",
                    "midi": 78,
                    "time": 345.3327157500043,
                    "velocity": 0.44881889763779526,
                    "duration": 0.0936622500000226
                },
                {
                    "name": "D5",
                    "midi": 74,
                    "time": 345.4263780000043,
                    "velocity": 0.5275590551181102,
                    "duration": 0.0936622500000226
                },
                {
                    "name": "A5",
                    "midi": 81,
                    "time": 345.52004025000434,
                    "velocity": 0.4330708661417323,
                    "duration": 0.0936622500000226
                },
                {
                    "name": "F#5",
                    "midi": 78,
                    "time": 345.61370250000436,
                    "velocity": 0.48031496062992124,
                    "duration": 0.0936622500000226
                },
                {
                    "name": "D5",
                    "midi": 74,
                    "time": 345.7073647500044,
                    "velocity": 0.4251968503937008,
                    "duration": 0.0936622500000226
                },
                {
                    "name": "A4",
                    "midi": 69,
                    "time": 345.8010270000044,
                    "velocity": 0.49606299212598426,
                    "duration": 0.0936622500000226
                },
                {
                    "name": "D5",
                    "midi": 74,
                    "time": 345.89468925000443,
                    "velocity": 0.4330708661417323,
                    "duration": 0.0936622500000226
                },
                {
                    "name": "A4",
                    "midi": 69,
                    "time": 345.98835150000446,
                    "velocity": 0.5118110236220472,
                    "duration": 0.0936622500000226
                },
                {
                    "name": "F#4",
                    "midi": 66,
                    "time": 346.0820137500045,
                    "velocity": 0.4645669291338583,
                    "duration": 0.0936622500000226
                },
                {
                    "name": "D4",
                    "midi": 62,
                    "time": 346.1756760000045,
                    "velocity": 0.6692913385826772,
                    "duration": 0.0936622500000226
                },
                {
                    "name": "A4",
                    "midi": 69,
                    "time": 346.55032500000453,
                    "velocity": 0.4881889763779528,
                    "duration": 0.3746489999999767
                },
                {
                    "name": "F#4",
                    "midi": 66,
                    "time": 346.55032500000453,
                    "velocity": 0.4881889763779528,
                    "duration": 0.3746489999999767
                },
                {
                    "name": "D5",
                    "midi": 74,
                    "time": 346.55032500000453,
                    "velocity": 0.5748031496062992,
                    "duration": 0.3746489999999767
                },
                {
                    "name": "D6",
                    "midi": 86,
                    "time": 349.7348415000045,
                    "velocity": 0.3543307086614173,
                    "duration": 0.046831124999982876
                },
                {
                    "name": "D6",
                    "midi": 86,
                    "time": 349.9221660000045,
                    "velocity": 0.3858267716535433,
                    "duration": 0.046831124999982876
                },
                {
                    "name": "D6",
                    "midi": 86,
                    "time": 350.1094905000045,
                    "velocity": 0.33858267716535434,
                    "duration": 0.046831124999982876
                },
                {
                    "name": "D6",
                    "midi": 86,
                    "time": 350.2968150000045,
                    "velocity": 0.36220472440944884,
                    "duration": 0.046831124999982876
                },
                {
                    "name": "D6",
                    "midi": 86,
                    "time": 350.48413950000446,
                    "velocity": 0.31496062992125984,
                    "duration": 0.046831124999982876
                },
                {
                    "name": "D#6",
                    "midi": 87,
                    "time": 350.67146400000445,
                    "velocity": 0.3543307086614173,
                    "duration": 0.1966907249999963
                },
                {
                    "name": "D6",
                    "midi": 86,
                    "time": 350.85878850000444,
                    "velocity": 0.31496062992125984,
                    "duration": 0.1966907249999963
                },
                {
                    "name": "C6",
                    "midi": 84,
                    "time": 351.0461130000044,
                    "velocity": 0.33858267716535434,
                    "duration": 0.1966907249999963
                },
                {
                    "name": "B5",
                    "midi": 83,
                    "time": 351.2334375000044,
                    "velocity": 0.31496062992125984,
                    "duration": 0.1966907249999963
                },
                {
                    "name": "G#5",
                    "midi": 80,
                    "time": 351.4207620000044,
                    "velocity": 0.3543307086614173,
                    "duration": 0.1966907249999963
                },
                {
                    "name": "G5",
                    "midi": 79,
                    "time": 351.6080865000044,
                    "velocity": 0.30708661417322836,
                    "duration": 0.18732449999998835
                },
                {
                    "name": "G5",
                    "midi": 79,
                    "time": 351.7954110000044,
                    "velocity": 0.3228346456692913,
                    "duration": 0.046831124999982876
                },
                {
                    "name": "G#5",
                    "midi": 80,
                    "time": 351.84224212500436,
                    "velocity": 0.30708661417322836,
                    "duration": 0.046831124999982876
                },
                {
                    "name": "G5",
                    "midi": 79,
                    "time": 351.88907325000434,
                    "velocity": 0.3858267716535433,
                    "duration": 0.0936622500000226
                },
                {
                    "name": "F5",
                    "midi": 77,
                    "time": 351.98273550000437,
                    "velocity": 0.3464566929133858,
                    "duration": 0.17951931250001962
                },
                {
                    "name": "F5",
                    "midi": 77,
                    "time": 352.1700600000044,
                    "velocity": 0.36220472440944884,
                    "duration": 0.3746489999999767
                },
                {
                    "name": "F5",
                    "midi": 77,
                    "time": 354.2306295000044,
                    "velocity": 0.3543307086614173,
                    "duration": 0.046831124999982876
                },
                {
                    "name": "F5",
                    "midi": 77,
                    "time": 354.4179540000044,
                    "velocity": 0.3779527559055118,
                    "duration": 0.046831124999982876
                },
                {
                    "name": "F5",
                    "midi": 77,
                    "time": 354.6052785000044,
                    "velocity": 0.33070866141732286,
                    "duration": 0.046831124999982876
                },
                {
                    "name": "F5",
                    "midi": 77,
                    "time": 354.79260300000436,
                    "velocity": 0.3464566929133858,
                    "duration": 0.046831124999982876
                },
                {
                    "name": "F5",
                    "midi": 77,
                    "time": 354.97992750000435,
                    "velocity": 0.31496062992125984,
                    "duration": 0.046831124999982876
                },
                {
                    "name": "G5",
                    "midi": 79,
                    "time": 355.16725200000434,
                    "velocity": 0.3543307086614173,
                    "duration": 0.1966907249999963
                },
                {
                    "name": "F5",
                    "midi": 77,
                    "time": 355.3545765000043,
                    "velocity": 0.31496062992125984,
                    "duration": 0.1966907249999963
                },
                {
                    "name": "D#5",
                    "midi": 75,
                    "time": 355.5419010000043,
                    "velocity": 0.31496062992125984,
                    "duration": 0.1966907249999963
                },
                {
                    "name": "D5",
                    "midi": 74,
                    "time": 355.7292255000043,
                    "velocity": 0.31496062992125984,
                    "duration": 0.1966907249999963
                },
                {
                    "name": "C5",
                    "midi": 72,
                    "time": 355.9165500000043,
                    "velocity": 0.3543307086614173,
                    "duration": 0.1966907249999963
                },
                {
                    "name": "B4",
                    "midi": 71,
                    "time": 356.1038745000043,
                    "velocity": 0.30708661417322836,
                    "duration": 0.18732449999998835
                },
                {
                    "name": "C5",
                    "midi": 72,
                    "time": 356.29119900000427,
                    "velocity": 0.3779527559055118,
                    "duration": 0.7649083750000045
                },
                {
                    "name": "G4",
                    "midi": 67,
                    "time": 357.0404970000043,
                    "velocity": 0.33070866141732286,
                    "duration": 0.3746489999999767
                },
                {
                    "name": "D#4",
                    "midi": 63,
                    "time": 357.41514600000426,
                    "velocity": 0.3779527559055118,
                    "duration": 0.7649083750000045
                },
                {
                    "name": "G4",
                    "midi": 67,
                    "time": 358.16444400000427,
                    "velocity": 0.3543307086614173,
                    "duration": 0.3746489999999767
                },
                {
                    "name": "C5",
                    "midi": 72,
                    "time": 358.53909300000424,
                    "velocity": 0.3937007874015748,
                    "duration": 0.7649083750000045
                },
                {
                    "name": "D#5",
                    "midi": 75,
                    "time": 359.28839100000425,
                    "velocity": 0.4094488188976378,
                    "duration": 0.3746489999999767
                },
                {
                    "name": "G5",
                    "midi": 79,
                    "time": 359.66304000000423,
                    "velocity": 0.4409448818897638,
                    "duration": 0.3746489999999767
                },
                {
                    "name": "E5",
                    "midi": 76,
                    "time": 360.7869870000042,
                    "velocity": 0.4566929133858268,
                    "duration": 0.7649083750000045
                },
                {
                    "name": "C5",
                    "midi": 72,
                    "time": 361.5362850000042,
                    "velocity": 0.4094488188976378,
                    "duration": 0.3746489999999767
                },
                {
                    "name": "G4",
                    "midi": 67,
                    "time": 361.9109340000042,
                    "velocity": 0.4330708661417323,
                    "duration": 0.7649083750000045
                },
                {
                    "name": "C5",
                    "midi": 72,
                    "time": 362.6602320000042,
                    "velocity": 0.3858267716535433,
                    "duration": 0.3746489999999767
                },
                {
                    "name": "E5",
                    "midi": 76,
                    "time": 363.0348810000042,
                    "velocity": 0.41732283464566927,
                    "duration": 0.7649083750000045
                },
                {
                    "name": "G5",
                    "midi": 79,
                    "time": 363.7841790000042,
                    "velocity": 0.4251968503937008,
                    "duration": 0.3746489999999767
                },
                {
                    "name": "A#5",
                    "midi": 82,
                    "time": 364.1588280000042,
                    "velocity": 0.4566929133858268,
                    "duration": 0.3746489999999767
                },
                {
                    "name": "G#5",
                    "midi": 80,
                    "time": 365.47009950000415,
                    "velocity": 0.3543307086614173,
                    "duration": 0.046831124999982876
                },
                {
                    "name": "G#5",
                    "midi": 80,
                    "time": 365.65742400000414,
                    "velocity": 0.3858267716535433,
                    "duration": 0.046831124999982876
                },
                {
                    "name": "G#5",
                    "midi": 80,
                    "time": 365.84474850000413,
                    "velocity": 0.33858267716535434,
                    "duration": 0.046831124999982876
                },
                {
                    "name": "G#5",
                    "midi": 80,
                    "time": 366.0320730000041,
                    "velocity": 0.36220472440944884,
                    "duration": 0.046831124999982876
                },
                {
                    "name": "G#5",
                    "midi": 80,
                    "time": 366.2193975000041,
                    "velocity": 0.31496062992125984,
                    "duration": 0.046831124999982876
                },
                {
                    "name": "A#5",
                    "midi": 82,
                    "time": 366.4067220000041,
                    "velocity": 0.3543307086614173,
                    "duration": 0.1966907249999963
                },
                {
                    "name": "G#5",
                    "midi": 80,
                    "time": 366.5940465000041,
                    "velocity": 0.31496062992125984,
                    "duration": 0.1966907249999963
                },
                {
                    "name": "G5",
                    "midi": 79,
                    "time": 366.78137100000407,
                    "velocity": 0.33858267716535434,
                    "duration": 0.1966907249999963
                },
                {
                    "name": "F5",
                    "midi": 77,
                    "time": 366.96869550000406,
                    "velocity": 0.31496062992125984,
                    "duration": 0.1966907249999963
                },
                {
                    "name": "D#5",
                    "midi": 75,
                    "time": 367.15602000000405,
                    "velocity": 0.3543307086614173,
                    "duration": 0.1966907249999963
                },
                {
                    "name": "D5",
                    "midi": 74,
                    "time": 367.34334450000404,
                    "velocity": 0.30708661417322836,
                    "duration": 0.18732449999998835
                },
                {
                    "name": "G5",
                    "midi": 79,
                    "time": 367.717993500004,
                    "velocity": 0.3543307086614173,
                    "duration": 0.046831124999982876
                },
                {
                    "name": "G5",
                    "midi": 79,
                    "time": 367.905318000004,
                    "velocity": 0.3858267716535433,
                    "duration": 0.046831124999982876
                },
                {
                    "name": "G5",
                    "midi": 79,
                    "time": 368.092642500004,
                    "velocity": 0.33858267716535434,
                    "duration": 0.046831124999982876
                },
                {
                    "name": "G5",
                    "midi": 79,
                    "time": 368.279967000004,
                    "velocity": 0.36220472440944884,
                    "duration": 0.046831124999982876
                },
                {
                    "name": "G5",
                    "midi": 79,
                    "time": 368.46729150000397,
                    "velocity": 0.31496062992125984,
                    "duration": 0.046831124999982876
                },
                {
                    "name": "G#5",
                    "midi": 80,
                    "time": 368.65461600000395,
                    "velocity": 0.3543307086614173,
                    "duration": 0.1966907249999963
                },
                {
                    "name": "G5",
                    "midi": 79,
                    "time": 368.84194050000394,
                    "velocity": 0.31496062992125984,
                    "duration": 0.1966907249999963
                },
                {
                    "name": "F5",
                    "midi": 77,
                    "time": 369.02926500000393,
                    "velocity": 0.33858267716535434,
                    "duration": 0.1966907249999963
                },
                {
                    "name": "D#5",
                    "midi": 75,
                    "time": 369.2165895000039,
                    "velocity": 0.31496062992125984,
                    "duration": 0.1966907249999963
                },
                {
                    "name": "D5",
                    "midi": 74,
                    "time": 369.4039140000039,
                    "velocity": 0.3543307086614173,
                    "duration": 0.1966907249999963
                },
                {
                    "name": "C5",
                    "midi": 72,
                    "time": 369.5912385000039,
                    "velocity": 0.30708661417322836,
                    "duration": 0.18732449999998835
                },
                {
                    "name": "F5",
                    "midi": 77,
                    "time": 369.9658875000039,
                    "velocity": 0.3543307086614173,
                    "duration": 0.046831124999982876
                },
                {
                    "name": "F5",
                    "midi": 77,
                    "time": 370.15321200000386,
                    "velocity": 0.3858267716535433,
                    "duration": 0.046831124999982876
                },
                {
                    "name": "F5",
                    "midi": 77,
                    "time": 370.34053650000385,
                    "velocity": 0.33858267716535434,
                    "duration": 0.046831124999982876
                },
                {
                    "name": "F5",
                    "midi": 77,
                    "time": 370.52786100000384,
                    "velocity": 0.36220472440944884,
                    "duration": 0.046831124999982876
                },
                {
                    "name": "F5",
                    "midi": 77,
                    "time": 370.7151855000038,
                    "velocity": 0.31496062992125984,
                    "duration": 0.046831124999982876
                },
                {
                    "name": "G5",
                    "midi": 79,
                    "time": 370.9025100000038,
                    "velocity": 0.4015748031496063,
                    "duration": 0.1966907249999963
                },
                {
                    "name": "F5",
                    "midi": 77,
                    "time": 371.0898345000038,
                    "velocity": 0.3937007874015748,
                    "duration": 0.1966907249999963
                },
                {
                    "name": "D#5",
                    "midi": 75,
                    "time": 371.2771590000038,
                    "velocity": 0.3858267716535433,
                    "duration": 0.1966907249999963
                },
                {
                    "name": "D5",
                    "midi": 74,
                    "time": 371.4644835000038,
                    "velocity": 0.3779527559055118,
                    "duration": 0.1966907249999963
                },
                {
                    "name": "C5",
                    "midi": 72,
                    "time": 371.65180800000377,
                    "velocity": 0.3700787401574803,
                    "duration": 0.1966907249999963
                },
                {
                    "name": "B4",
                    "midi": 71,
                    "time": 371.83913250000376,
                    "velocity": 0.3700787401574803,
                    "duration": 0.18732449999998835
                },
                {
                    "name": "F5",
                    "midi": 77,
                    "time": 372.02645700000375,
                    "velocity": 0.4409448818897638,
                    "duration": 0.1966907249999963
                },
                {
                    "name": "D#5",
                    "midi": 75,
                    "time": 372.21378150000373,
                    "velocity": 0.4251968503937008,
                    "duration": 0.1966907249999963
                },
                {
                    "name": "D5",
                    "midi": 74,
                    "time": 372.4011060000037,
                    "velocity": 0.4094488188976378,
                    "duration": 0.1966907249999963
                },
                {
                    "name": "C5",
                    "midi": 72,
                    "time": 372.5884305000037,
                    "velocity": 0.4015748031496063,
                    "duration": 0.1966907249999963
                },
                {
                    "name": "A#4",
                    "midi": 70,
                    "time": 372.7757550000037,
                    "velocity": 0.3858267716535433,
                    "duration": 0.1966907249999963
                },
                {
                    "name": "A4",
                    "midi": 69,
                    "time": 372.9630795000037,
                    "velocity": 0.3700787401574803,
                    "duration": 0.18732449999998835
                },
                {
                    "name": "C6",
                    "midi": 84,
                    "time": 373.1504040000037,
                    "velocity": 0.47244094488188976,
                    "duration": 0.1966907249999963
                },
                {
                    "name": "A#5",
                    "midi": 82,
                    "time": 373.33772850000366,
                    "velocity": 0.4566929133858268,
                    "duration": 0.1966907249999963
                },
                {
                    "name": "A5",
                    "midi": 81,
                    "time": 373.52505300000365,
                    "velocity": 0.4409448818897638,
                    "duration": 0.1966907249999963
                },
                {
                    "name": "G5",
                    "midi": 79,
                    "time": 373.71237750000364,
                    "velocity": 0.4251968503937008,
                    "duration": 0.1966907249999963
                },
                {
                    "name": "F5",
                    "midi": 77,
                    "time": 373.89970200000363,
                    "velocity": 0.4251968503937008,
                    "duration": 0.1966907249999963
                },
                {
                    "name": "E5",
                    "midi": 76,
                    "time": 374.0870265000036,
                    "velocity": 0.44881889763779526,
                    "duration": 0.18732449999998835
                },
                {
                    "name": "F5",
                    "midi": 77,
                    "time": 374.2743510000036,
                    "velocity": 0.48031496062992124,
                    "duration": 0.3746489999999767
                },
                {
                    "name": "A4",
                    "midi": 69,
                    "time": 375.02364900000356,
                    "velocity": 0.3543307086614173,
                    "duration": 0.3746489999999767
                },
                {
                    "name": "D#5",
                    "midi": 75,
                    "time": 375.02364900000356,
                    "velocity": 0.4330708661417323,
                    "duration": 0.3746489999999767
                },
                {
                    "name": "A#4",
                    "midi": 70,
                    "time": 375.39829800000354,
                    "velocity": 0.3543307086614173,
                    "duration": 0.3746489999999767
                },
                {
                    "name": "C#5",
                    "midi": 73,
                    "time": 375.39829800000354,
                    "velocity": 0.47244094488188976,
                    "duration": 0.3746489999999767
                },
                {
                    "name": "C#5",
                    "midi": 73,
                    "time": 376.1475960000035,
                    "velocity": 0.3543307086614173,
                    "duration": 0.3746489999999767
                },
                {
                    "name": "A#5",
                    "midi": 82,
                    "time": 376.1475960000035,
                    "velocity": 0.4330708661417323,
                    "duration": 0.3746489999999767
                },
                {
                    "name": "C5",
                    "midi": 72,
                    "time": 376.52224500000347,
                    "velocity": 0.3543307086614173,
                    "duration": 0.3746489999999767
                },
                {
                    "name": "A5",
                    "midi": 81,
                    "time": 376.52224500000347,
                    "velocity": 0.48031496062992124,
                    "duration": 0.3746489999999767
                },
                {
                    "name": "D#4",
                    "midi": 63,
                    "time": 377.2715430000034,
                    "velocity": 0.3543307086614173,
                    "duration": 0.3746489999999767
                },
                {
                    "name": "A4",
                    "midi": 69,
                    "time": 377.2715430000034,
                    "velocity": 0.4330708661417323,
                    "duration": 0.3746489999999767
                },
                {
                    "name": "C#4",
                    "midi": 61,
                    "time": 377.6461920000034,
                    "velocity": 0.3543307086614173,
                    "duration": 0.3746489999999767
                },
                {
                    "name": "A#4",
                    "midi": 70,
                    "time": 377.6461920000034,
                    "velocity": 0.47244094488188976,
                    "duration": 0.3746489999999767
                },
                {
                    "name": "A#3",
                    "midi": 58,
                    "time": 378.39549000000335,
                    "velocity": 0.3543307086614173,
                    "duration": 0.3746489999999767
                },
                {
                    "name": "C#4",
                    "midi": 61,
                    "time": 378.39549000000335,
                    "velocity": 0.4330708661417323,
                    "duration": 0.3746489999999767
                },
                {
                    "name": "A3",
                    "midi": 57,
                    "time": 378.7701390000033,
                    "velocity": 0.3543307086614173,
                    "duration": 0.18732449999998835
                },
                {
                    "name": "C4",
                    "midi": 60,
                    "time": 378.7701390000033,
                    "velocity": 0.47244094488188976,
                    "duration": 0.18732449999998835
                },
                {
                    "name": "F4",
                    "midi": 65,
                    "time": 378.9574635000033,
                    "velocity": 0.3543307086614173,
                    "duration": 0.046831124999982876
                },
                {
                    "name": "F4",
                    "midi": 65,
                    "time": 379.1447880000033,
                    "velocity": 0.3858267716535433,
                    "duration": 0.046831124999982876
                },
                {
                    "name": "F4",
                    "midi": 65,
                    "time": 379.3321125000033,
                    "velocity": 0.33858267716535434,
                    "duration": 0.046831124999982876
                },
                {
                    "name": "F4",
                    "midi": 65,
                    "time": 379.5194370000033,
                    "velocity": 0.36220472440944884,
                    "duration": 0.046831124999982876
                },
                {
                    "name": "F4",
                    "midi": 65,
                    "time": 379.70676150000327,
                    "velocity": 0.31496062992125984,
                    "duration": 0.046831124999982876
                },
                {
                    "name": "E4",
                    "midi": 64,
                    "time": 379.89408600000326,
                    "velocity": 0.3464566929133858,
                    "duration": 0.18732449999998835
                },
                {
                    "name": "F4",
                    "midi": 65,
                    "time": 380.08141050000324,
                    "velocity": 0.31496062992125984,
                    "duration": 0.18732449999998835
                },
                {
                    "name": "G4",
                    "midi": 67,
                    "time": 380.26873500000323,
                    "velocity": 0.3543307086614173,
                    "duration": 0.18732449999998835
                },
                {
                    "name": "F4",
                    "midi": 65,
                    "time": 380.4560595000032,
                    "velocity": 0.31496062992125984,
                    "duration": 0.18732449999998835
                },
                {
                    "name": "A#4",
                    "midi": 70,
                    "time": 380.6433840000032,
                    "velocity": 0.33858267716535434,
                    "duration": 0.18732449999998835
                },
                {
                    "name": "A4",
                    "midi": 69,
                    "time": 380.8307085000032,
                    "velocity": 0.31496062992125984,
                    "duration": 0.18732449999998835
                },
                {
                    "name": "D5",
                    "midi": 74,
                    "time": 381.0180330000032,
                    "velocity": 0.3464566929133858,
                    "duration": 0.18732449999998835
                },
                {
                    "name": "C5",
                    "midi": 72,
                    "time": 381.2053575000032,
                    "velocity": 0.31496062992125984,
                    "duration": 0.18732449999998835
                },
                {
                    "name": "D#5",
                    "midi": 75,
                    "time": 381.39268200000316,
                    "velocity": 0.3543307086614173,
                    "duration": 0.18732449999998835
                },
                {
                    "name": "D5",
                    "midi": 74,
                    "time": 381.58000650000315,
                    "velocity": 0.31496062992125984,
                    "duration": 0.18732449999998835
                },
                {
                    "name": "G5",
                    "midi": 79,
                    "time": 381.76733100000314,
                    "velocity": 0.3543307086614173,
                    "duration": 0.18732449999998835
                },
                {
                    "name": "F5",
                    "midi": 77,
                    "time": 381.9546555000031,
                    "velocity": 0.31496062992125984,
                    "duration": 0.14049337500000547
                },
                {
                    "name": "F5",
                    "midi": 77,
                    "time": 382.1419800000031,
                    "velocity": 0.3543307086614173,
                    "duration": 0.5619735000000219
                },
                {
                    "name": "E5",
                    "midi": 76,
                    "time": 382.70395350000314,
                    "velocity": 0.31496062992125984,
                    "duration": 0.18732449999998835
                },
                {
                    "name": "D#5",
                    "midi": 75,
                    "time": 382.8912780000031,
                    "velocity": 0.33858267716535434,
                    "duration": 0.18732449999998835
                },
                {
                    "name": "C5",
                    "midi": 72,
                    "time": 383.0786025000031,
                    "velocity": 0.31496062992125984,
                    "duration": 0.18732449999998835
                },
                {
                    "name": "A#4",
                    "midi": 70,
                    "time": 383.2659270000031,
                    "velocity": 0.3779527559055118,
                    "duration": 0.7492980000000102
                },
                {
                    "name": "F4",
                    "midi": 65,
                    "time": 384.0152250000031,
                    "velocity": 0.3228346456692913,
                    "duration": 0.3746489999999767
                },
                {
                    "name": "D4",
                    "midi": 62,
                    "time": 384.3898740000031,
                    "velocity": 0.3779527559055118,
                    "duration": 0.7492980000000102
                },
                {
                    "name": "F4",
                    "midi": 65,
                    "time": 385.1391720000031,
                    "velocity": 0.3464566929133858,
                    "duration": 0.3746489999999767
                },
                {
                    "name": "A#4",
                    "midi": 70,
                    "time": 385.5138210000031,
                    "velocity": 0.3779527559055118,
                    "duration": 0.7492980000000102
                },
                {
                    "name": "D5",
                    "midi": 74,
                    "time": 386.2631190000031,
                    "velocity": 0.4015748031496063,
                    "duration": 0.3746489999999767
                },
                {
                    "name": "F5",
                    "midi": 77,
                    "time": 386.63776800000306,
                    "velocity": 0.4409448818897638,
                    "duration": 0.7492980000000102
                },
                {
                    "name": "A#5",
                    "midi": 82,
                    "time": 387.3870660000031,
                    "velocity": 0.4566929133858268,
                    "duration": 0.18732449999998835
                },
                {
                    "name": "D5",
                    "midi": 74,
                    "time": 387.57439050000306,
                    "velocity": 0.4015748031496063,
                    "duration": 0.18732449999998835
                },
                {
                    "name": "F5",
                    "midi": 77,
                    "time": 387.76171500000305,
                    "velocity": 0.4409448818897638,
                    "duration": 0.1966907249999963
                },
                {
                    "name": "D#5",
                    "midi": 75,
                    "time": 387.94903950000304,
                    "velocity": 0.4094488188976378,
                    "duration": 0.1966907249999963
                },
                {
                    "name": "D5",
                    "midi": 74,
                    "time": 388.136364000003,
                    "velocity": 0.4015748031496063,
                    "duration": 0.1966907249999963
                },
                {
                    "name": "C5",
                    "midi": 72,
                    "time": 388.323688500003,
                    "velocity": 0.3858267716535433,
                    "duration": 0.1966907249999963
                },
                {
                    "name": "A#4",
                    "midi": 70,
                    "time": 388.511013000003,
                    "velocity": 0.3779527559055118,
                    "duration": 0.1966907249999963
                },
                {
                    "name": "A4",
                    "midi": 69,
                    "time": 388.698337500003,
                    "velocity": 0.3700787401574803,
                    "duration": 0.18732449999998835
                },
                {
                    "name": "G4",
                    "midi": 67,
                    "time": 388.885662000003,
                    "velocity": 0.3937007874015748,
                    "duration": 0.1966907249999963
                },
                {
                    "name": "F4",
                    "midi": 65,
                    "time": 389.07298650000297,
                    "velocity": 0.3464566929133858,
                    "duration": 0.1966907249999963
                },
                {
                    "name": "E4",
                    "midi": 64,
                    "time": 389.26031100000296,
                    "velocity": 0.3464566929133858,
                    "duration": 0.1966907249999963
                },
                {
                    "name": "F4",
                    "midi": 65,
                    "time": 389.44763550000295,
                    "velocity": 0.3543307086614173,
                    "duration": 0.1966907249999963
                },
                {
                    "name": "G4",
                    "midi": 67,
                    "time": 389.63496000000293,
                    "velocity": 0.3700787401574803,
                    "duration": 0.1966907249999963
                },
                {
                    "name": "A4",
                    "midi": 69,
                    "time": 389.8222845000029,
                    "velocity": 0.3937007874015748,
                    "duration": 0.18732449999998835
                },
                {
                    "name": "A#4",
                    "midi": 70,
                    "time": 390.0096090000029,
                    "velocity": 0.3937007874015748,
                    "duration": 0.046831124999982876
                },
                {
                    "name": "C5",
                    "midi": 72,
                    "time": 390.1501023750029,
                    "velocity": 0.3543307086614173,
                    "duration": 0.046831124999982876
                },
                {
                    "name": "A#4",
                    "midi": 70,
                    "time": 390.1969335000029,
                    "velocity": 0.3858267716535433,
                    "duration": 0.0936622500000226
                },
                {
                    "name": "A4",
                    "midi": 69,
                    "time": 390.2905957500029,
                    "velocity": 0.36220472440944884,
                    "duration": 0.0936622500000226
                },
                {
                    "name": "A#4",
                    "midi": 70,
                    "time": 390.38425800000294,
                    "velocity": 0.3937007874015748,
                    "duration": 0.046831124999982876
                },
                {
                    "name": "C5",
                    "midi": 72,
                    "time": 390.57158250000293,
                    "velocity": 0.3700787401574803,
                    "duration": 0.046831124999982876
                },
                {
                    "name": "D5",
                    "midi": 74,
                    "time": 390.7589070000029,
                    "velocity": 0.3858267716535433,
                    "duration": 0.046831124999982876
                },
                {
                    "name": "D#5",
                    "midi": 75,
                    "time": 390.9462315000029,
                    "velocity": 0.4015748031496063,
                    "duration": 0.046831124999982876
                },
                {
                    "name": "E5",
                    "midi": 76,
                    "time": 391.1335560000029,
                    "velocity": 0.41732283464566927,
                    "duration": 0.1966907249999963
                },
                {
                    "name": "F5",
                    "midi": 77,
                    "time": 391.3208805000029,
                    "velocity": 0.3937007874015748,
                    "duration": 0.1966907249999963
                },
                {
                    "name": "G5",
                    "midi": 79,
                    "time": 391.5082050000029,
                    "velocity": 0.4330708661417323,
                    "duration": 0.1966907249999963
                },
                {
                    "name": "F5",
                    "midi": 77,
                    "time": 391.69552950000286,
                    "velocity": 0.3937007874015748,
                    "duration": 0.18732449999998835
                },
                {
                    "name": "A#5",
                    "midi": 82,
                    "time": 391.88285400000285,
                    "velocity": 0.4645669291338583,
                    "duration": 0.18732449999998835
                },
                {
                    "name": "D5",
                    "midi": 74,
                    "time": 392.07017850000284,
                    "velocity": 0.3937007874015748,
                    "duration": 0.18732449999998835
                },
                {
                    "name": "F5",
                    "midi": 77,
                    "time": 392.2575030000028,
                    "velocity": 0.44881889763779526,
                    "duration": 0.1966907249999963
                },
                {
                    "name": "D#5",
                    "midi": 75,
                    "time": 392.4448275000028,
                    "velocity": 0.4330708661417323,
                    "duration": 0.1966907249999963
                },
                {
                    "name": "D5",
                    "midi": 74,
                    "time": 392.6321520000028,
                    "velocity": 0.41732283464566927,
                    "duration": 0.1966907249999963
                },
                {
                    "name": "C5",
                    "midi": 72,
                    "time": 392.8194765000028,
                    "velocity": 0.4015748031496063,
                    "duration": 0.1966907249999963
                },
                {
                    "name": "A#4",
                    "midi": 70,
                    "time": 393.0068010000028,
                    "velocity": 0.3858267716535433,
                    "duration": 0.1966907249999963
                },
                {
                    "name": "A4",
                    "midi": 69,
                    "time": 393.19412550000277,
                    "velocity": 0.3700787401574803,
                    "duration": 0.18732449999998835
                },
                {
                    "name": "G4",
                    "midi": 67,
                    "time": 393.38145000000276,
                    "velocity": 0.3937007874015748,
                    "duration": 0.1966907249999963
                },
                {
                    "name": "F4",
                    "midi": 65,
                    "time": 393.56877450000275,
                    "velocity": 0.33858267716535434,
                    "duration": 0.1966907249999963
                },
                {
                    "name": "E4",
                    "midi": 64,
                    "time": 393.75609900000273,
                    "velocity": 0.3937007874015748,
                    "duration": 0.1966907249999963
                },
                {
                    "name": "F4",
                    "midi": 65,
                    "time": 393.9434235000027,
                    "velocity": 0.33858267716535434,
                    "duration": 0.1966907249999963
                },
                {
                    "name": "G4",
                    "midi": 67,
                    "time": 394.1307480000027,
                    "velocity": 0.3937007874015748,
                    "duration": 0.1966907249999963
                },
                {
                    "name": "A4",
                    "midi": 69,
                    "time": 394.3180725000027,
                    "velocity": 0.3543307086614173,
                    "duration": 0.18732449999998835
                },
                {
                    "name": "A#4",
                    "midi": 70,
                    "time": 394.5053970000027,
                    "velocity": 0.3937007874015748,
                    "duration": 0.0936622500000226
                },
                {
                    "name": "A#4",
                    "midi": 70,
                    "time": 394.8800460000027,
                    "velocity": 0.3779527559055118,
                    "duration": 0.0936622500000226
                },
                {
                    "name": "D5",
                    "midi": 74,
                    "time": 395.25469500000276,
                    "velocity": 0.3779527559055118,
                    "duration": 0.0936622500000226
                },
                {
                    "name": "A#4",
                    "midi": 70,
                    "time": 395.6293440000028,
                    "velocity": 0.3937007874015748,
                    "duration": 0.3746489999999767
                },
                {
                    "name": "A#4",
                    "midi": 70,
                    "time": 396.2849797500028,
                    "velocity": 0.3464566929133858,
                    "duration": 0.046831124999982876
                },
                {
                    "name": "C5",
                    "midi": 72,
                    "time": 396.37864200000274,
                    "velocity": 0.3937007874015748,
                    "duration": 0.10302847500003054
                },
                {
                    "name": "A#4",
                    "midi": 70,
                    "time": 396.47230425000276,
                    "velocity": 0.33858267716535434,
                    "duration": 0.10302847500003054
                },
                {
                    "name": "A4",
                    "midi": 69,
                    "time": 396.5659665000028,
                    "velocity": 0.3543307086614173,
                    "duration": 0.10302847500003054
                },
                {
                    "name": "A#4",
                    "midi": 70,
                    "time": 396.6596287500028,
                    "velocity": 0.33070866141732286,
                    "duration": 0.10302847500003054
                },
                {
                    "name": "G5",
                    "midi": 79,
                    "time": 396.75329100000283,
                    "velocity": 0.4409448818897638,
                    "duration": 0.37464900000003354
                },
                {
                    "name": "A#4",
                    "midi": 70,
                    "time": 397.4089267500029,
                    "velocity": 0.3464566929133858,
                    "duration": 0.046831124999982876
                },
                {
                    "name": "C5",
                    "midi": 72,
                    "time": 397.50258900000284,
                    "velocity": 0.3937007874015748,
                    "duration": 0.10302847500003054
                },
                {
                    "name": "A#4",
                    "midi": 70,
                    "time": 397.59625125000287,
                    "velocity": 0.33858267716535434,
                    "duration": 0.10302847500003054
                },
                {
                    "name": "A4",
                    "midi": 69,
                    "time": 397.6899135000029,
                    "velocity": 0.3543307086614173,
                    "duration": 0.10302847500003054
                },
                {
                    "name": "A#4",
                    "midi": 70,
                    "time": 397.7835757500029,
                    "velocity": 0.33070866141732286,
                    "duration": 0.10302847500003054
                },
                {
                    "name": "F5",
                    "midi": 77,
                    "time": 397.87723800000293,
                    "velocity": 0.4330708661417323,
                    "duration": 0.37464900000003354
                },
                {
                    "name": "A#4",
                    "midi": 70,
                    "time": 398.532873750003,
                    "velocity": 0.3464566929133858,
                    "duration": 0.046831124999982876
                },
                {
                    "name": "C5",
                    "midi": 72,
                    "time": 398.62653600000294,
                    "velocity": 0.3937007874015748,
                    "duration": 0.10302847500003054
                },
                {
                    "name": "A#4",
                    "midi": 70,
                    "time": 398.72019825000297,
                    "velocity": 0.33858267716535434,
                    "duration": 0.10302847500003054
                },
                {
                    "name": "A4",
                    "midi": 69,
                    "time": 398.813860500003,
                    "velocity": 0.3543307086614173,
                    "duration": 0.10302847500003054
                },
                {
                    "name": "A#4",
                    "midi": 70,
                    "time": 398.907522750003,
                    "velocity": 0.33070866141732286,
                    "duration": 0.10302847500003054
                },
                {
                    "name": "C5",
                    "midi": 72,
                    "time": 399.00118500000303,
                    "velocity": 0.4094488188976378,
                    "duration": 0.37464900000003354
                },
                {
                    "name": "F5",
                    "midi": 77,
                    "time": 399.37583400000307,
                    "velocity": 0.3858267716535433,
                    "duration": 0.3746489999999767
                },
                {
                    "name": "D#5",
                    "midi": 75,
                    "time": 399.75048300000304,
                    "velocity": 0.3779527559055118,
                    "duration": 0.3746489999999767
                },
                {
                    "name": "C#5",
                    "midi": 73,
                    "time": 400.125132000003,
                    "velocity": 0.4330708661417323,
                    "duration": 0.3746489999999767
                },
                {
                    "name": "D5",
                    "midi": 74,
                    "time": 400.499781000003,
                    "velocity": 0.3858267716535433,
                    "duration": 0.18732449999998835
                },
                {
                    "name": "A#4",
                    "midi": 70,
                    "time": 400.780767750003,
                    "velocity": 0.3464566929133858,
                    "duration": 0.046831124999982876
                },
                {
                    "name": "C5",
                    "midi": 72,
                    "time": 400.874430000003,
                    "velocity": 0.3937007874015748,
                    "duration": 0.10302847500003054
                },
                {
                    "name": "A#4",
                    "midi": 70,
                    "time": 400.968092250003,
                    "velocity": 0.33858267716535434,
                    "duration": 0.10302847500003054
                },
                {
                    "name": "A4",
                    "midi": 69,
                    "time": 401.061754500003,
                    "velocity": 0.3543307086614173,
                    "duration": 0.10302847500003054
                },
                {
                    "name": "A#4",
                    "midi": 70,
                    "time": 401.15541675000304,
                    "velocity": 0.33070866141732286,
                    "duration": 0.10302847500003054
                },
                {
                    "name": "G5",
                    "midi": 79,
                    "time": 401.24907900000306,
                    "velocity": 0.4409448818897638,
                    "duration": 0.37464900000003354
                },
                {
                    "name": "A#4",
                    "midi": 70,
                    "time": 401.9047147500031,
                    "velocity": 0.3464566929133858,
                    "duration": 0.046831124999982876
                },
                {
                    "name": "C5",
                    "midi": 72,
                    "time": 401.9983770000031,
                    "velocity": 0.3937007874015748,
                    "duration": 0.10302847500003054
                },
                {
                    "name": "A#4",
                    "midi": 70,
                    "time": 402.0920392500031,
                    "velocity": 0.33858267716535434,
                    "duration": 0.10302847500003054
                },
                {
                    "name": "A4",
                    "midi": 69,
                    "time": 402.1857015000031,
                    "velocity": 0.3543307086614173,
                    "duration": 0.10302847500003054
                },
                {
                    "name": "A#4",
                    "midi": 70,
                    "time": 402.27936375000314,
                    "velocity": 0.33070866141732286,
                    "duration": 0.10302847500003054
                },
                {
                    "name": "F5",
                    "midi": 77,
                    "time": 402.37302600000316,
                    "velocity": 0.4330708661417323,
                    "duration": 0.37464900000003354
                },
                {
                    "name": "A#4",
                    "midi": 70,
                    "time": 403.0286617500032,
                    "velocity": 0.3464566929133858,
                    "duration": 0.046831124999982876
                },
                {
                    "name": "C5",
                    "midi": 72,
                    "time": 403.1223240000032,
                    "velocity": 0.3937007874015748,
                    "duration": 0.10302847500003054
                },
                {
                    "name": "A#4",
                    "midi": 70,
                    "time": 403.2159862500032,
                    "velocity": 0.33858267716535434,
                    "duration": 0.10302847500003054
                },
                {
                    "name": "A4",
                    "midi": 69,
                    "time": 403.3096485000032,
                    "velocity": 0.3543307086614173,
                    "duration": 0.10302847500003054
                },
                {
                    "name": "A#4",
                    "midi": 70,
                    "time": 403.40331075000324,
                    "velocity": 0.33070866141732286,
                    "duration": 0.10302847500003054
                },
                {
                    "name": "C5",
                    "midi": 72,
                    "time": 403.49697300000327,
                    "velocity": 0.4094488188976378,
                    "duration": 0.37464900000003354
                },
                {
                    "name": "D#5",
                    "midi": 75,
                    "time": 403.8716220000033,
                    "velocity": 0.3858267716535433,
                    "duration": 0.3746489999999767
                },
                {
                    "name": "A4",
                    "midi": 69,
                    "time": 404.2462710000033,
                    "velocity": 0.3779527559055118,
                    "duration": 0.3746489999999767
                },
                {
                    "name": "A#4",
                    "midi": 70,
                    "time": 404.62092000000325,
                    "velocity": 0.4330708661417323,
                    "duration": 0.3746489999999767
                },
                {
                    "name": "D5",
                    "midi": 74,
                    "time": 405.74486700000324,
                    "velocity": 0.5039370078740157,
                    "duration": 0.0936622500000226
                },
                {
                    "name": "A#4",
                    "midi": 70,
                    "time": 405.74486700000324,
                    "velocity": 0.5039370078740157,
                    "duration": 0.0936622500000226
                },
                {
                    "name": "G5",
                    "midi": 79,
                    "time": 405.74486700000324,
                    "velocity": 0.6062992125984252,
                    "duration": 0.0936622500000226
                },
                {
                    "name": "G4",
                    "midi": 67,
                    "time": 406.1195160000033,
                    "velocity": 0.5039370078740157,
                    "duration": 0.0936622500000226
                },
                {
                    "name": "A4",
                    "midi": 69,
                    "time": 406.8688140000033,
                    "velocity": 0.49606299212598426,
                    "duration": 0.0936622500000226
                },
                {
                    "name": "F#4",
                    "midi": 66,
                    "time": 406.8688140000033,
                    "velocity": 0.49606299212598426,
                    "duration": 0.0936622500000226
                },
                {
                    "name": "D5",
                    "midi": 74,
                    "time": 406.8688140000033,
                    "velocity": 0.5905511811023622,
                    "duration": 0.0936622500000226
                },
                {
                    "name": "D4",
                    "midi": 62,
                    "time": 407.2434630000033,
                    "velocity": 0.5275590551181102,
                    "duration": 0.0936622500000226
                },
                {
                    "name": "D#4",
                    "midi": 63,
                    "time": 407.9927610000033,
                    "velocity": 0.33858267716535434,
                    "duration": 0.7492980000000102
                },
                {
                    "name": "F4",
                    "midi": 65,
                    "time": 408.74205900000334,
                    "velocity": 0.28346456692913385,
                    "duration": 0.10302847500003054
                },
                {
                    "name": "D#4",
                    "midi": 63,
                    "time": 408.83572125000336,
                    "velocity": 0.28346456692913385,
                    "duration": 0.10302847500003054
                },
                {
                    "name": "D4",
                    "midi": 62,
                    "time": 408.9293835000034,
                    "velocity": 0.28346456692913385,
                    "duration": 0.10302847500003054
                },
                {
                    "name": "D#4",
                    "midi": 63,
                    "time": 409.0230457500034,
                    "velocity": 0.28346456692913385,
                    "duration": 0.0936622500000226
                },
                {
                    "name": "C5",
                    "midi": 72,
                    "time": 409.1167080000034,
                    "velocity": 0.33070866141732286,
                    "duration": 0.18732449999998835
                },
                {
                    "name": "A#4",
                    "midi": 70,
                    "time": 409.3040325000034,
                    "velocity": 0.29133858267716534,
                    "duration": 0.18732449999998835
                },
                {
                    "name": "A#4",
                    "midi": 70,
                    "time": 409.4913570000034,
                    "velocity": 0.33858267716535434,
                    "duration": 0.3746489999999767
                },
                {
                    "name": "A#4",
                    "midi": 70,
                    "time": 409.8660060000034,
                    "velocity": 0.2992125984251969,
                    "duration": 0.3746489999999767
                },
                {
                    "name": "A#4",
                    "midi": 70,
                    "time": 410.24065500000336,
                    "velocity": 0.30708661417322836,
                    "duration": 0.1966907249999963
                },
                {
                    "name": "D#5",
                    "midi": 75,
                    "time": 410.42797950000335,
                    "velocity": 0.3543307086614173,
                    "duration": 0.1966907249999963
                },
                {
                    "name": "D5",
                    "midi": 74,
                    "time": 410.61530400000333,
                    "velocity": 0.3464566929133858,
                    "duration": 0.1966907249999963
                },
                {
                    "name": "C#5",
                    "midi": 73,
                    "time": 410.8026285000033,
                    "velocity": 0.33070866141732286,
                    "duration": 0.1966907249999963
                },
                {
                    "name": "C5",
                    "midi": 72,
                    "time": 410.9899530000033,
                    "velocity": 0.31496062992125984,
                    "duration": 0.1966907249999963
                },
                {
                    "name": "B4",
                    "midi": 71,
                    "time": 411.1772775000033,
                    "velocity": 0.2992125984251969,
                    "duration": 0.1966907249999963
                },
                {
                    "name": "A#4",
                    "midi": 70,
                    "time": 411.3646020000033,
                    "velocity": 0.3228346456692913,
                    "duration": 0.37464900000003354
                },
                {
                    "name": "D#4",
                    "midi": 63,
                    "time": 412.48854900000333,
                    "velocity": 0.3543307086614173,
                    "duration": 0.7492980000000102
                },
                {
                    "name": "F4",
                    "midi": 65,
                    "time": 413.23784700000334,
                    "velocity": 0.33070866141732286,
                    "duration": 0.10302847500003054
                },
                {
                    "name": "D#4",
                    "midi": 63,
                    "time": 413.33150925000336,
                    "velocity": 0.30708661417322836,
                    "duration": 0.10302847500003054
                },
                {
                    "name": "D4",
                    "midi": 62,
                    "time": 413.4251715000034,
                    "velocity": 0.33070866141732286,
                    "duration": 0.10302847500003054
                },
                {
                    "name": "D#4",
                    "midi": 63,
                    "time": 413.5188337500034,
                    "velocity": 0.31496062992125984,
                    "duration": 0.0936622500000226
                },
                {
                    "name": "C5",
                    "midi": 72,
                    "time": 413.61249600000343,
                    "velocity": 0.4251968503937008,
                    "duration": 0.18732449999998835
                },
                {
                    "name": "B4",
                    "midi": 71,
                    "time": 413.7998205000034,
                    "velocity": 0.3779527559055118,
                    "duration": 0.18732449999998835
                },
                {
                    "name": "B4",
                    "midi": 71,
                    "time": 413.9871450000034,
                    "velocity": 0.41732283464566927,
                    "duration": 0.3746489999999767
                },
                {
                    "name": "B4",
                    "midi": 71,
                    "time": 414.3617940000034,
                    "velocity": 0.3700787401574803,
                    "duration": 0.3746489999999767
                },
                {
                    "name": "C5",
                    "midi": 72,
                    "time": 414.73644300000336,
                    "velocity": 0.3937007874015748,
                    "duration": 0.1966907249999963
                },
                {
                    "name": "G5",
                    "midi": 79,
                    "time": 414.92376750000335,
                    "velocity": 0.4566929133858268,
                    "duration": 0.1966907249999963
                },
                {
                    "name": "D#5",
                    "midi": 75,
                    "time": 415.11109200000334,
                    "velocity": 0.4409448818897638,
                    "duration": 0.1966907249999963
                },
                {
                    "name": "D5",
                    "midi": 74,
                    "time": 415.2984165000033,
                    "velocity": 0.4251968503937008,
                    "duration": 0.1966907249999963
                },
                {
                    "name": "C5",
                    "midi": 72,
                    "time": 415.4857410000033,
                    "velocity": 0.4015748031496063,
                    "duration": 0.1966907249999963
                },
                {
                    "name": "A#4",
                    "midi": 70,
                    "time": 415.6730655000033,
                    "velocity": 0.3858267716535433,
                    "duration": 0.1966907249999963
                },
                {
                    "name": "A4",
                    "midi": 69,
                    "time": 415.8603900000033,
                    "velocity": 0.3937007874015748,
                    "duration": 0.37464900000003354
                },
                {
                    "name": "A#4",
                    "midi": 70,
                    "time": 416.98433700000334,
                    "velocity": 0.4645669291338583,
                    "duration": 0.1966907249999963
                },
                {
                    "name": "D6",
                    "midi": 86,
                    "time": 417.1716615000033,
                    "velocity": 0.4881889763779528,
                    "duration": 0.1966907249999963
                },
                {
                    "name": "A#5",
                    "midi": 82,
                    "time": 417.3589860000033,
                    "velocity": 0.48031496062992124,
                    "duration": 0.1966907249999963
                },
                {
                    "name": "A5",
                    "midi": 81,
                    "time": 417.5463105000033,
                    "velocity": 0.47244094488188976,
                    "duration": 0.1966907249999963
                },
                {
                    "name": "G5",
                    "midi": 79,
                    "time": 417.7336350000033,
                    "velocity": 0.4566929133858268,
                    "duration": 0.1966907249999963
                },
                {
                    "name": "F5",
                    "midi": 77,
                    "time": 417.9209595000033,
                    "velocity": 0.44881889763779526,
                    "duration": 0.1966907249999963
                },
                {
                    "name": "E5",
                    "midi": 76,
                    "time": 418.10828400000327,
                    "velocity": 0.4881889763779528,
                    "duration": 0.37464900000003354
                },
                {
                    "name": "F5",
                    "midi": 77,
                    "time": 419.3258932500033,
                    "velocity": 0.36220472440944884,
                    "duration": 0.0936622500000226
                },
                {
                    "name": "E5",
                    "midi": 76,
                    "time": 419.4195555000033,
                    "velocity": 0.3858267716535433,
                    "duration": 0.0936622500000226
                },
                {
                    "name": "F5",
                    "midi": 77,
                    "time": 419.5132177500033,
                    "velocity": 0.3464566929133858,
                    "duration": 0.0936622500000226
                },
                {
                    "name": "G5",
                    "midi": 79,
                    "time": 419.60688000000334,
                    "velocity": 0.3858267716535433,
                    "duration": 0.0936622500000226
                },
                {
                    "name": "F5",
                    "midi": 77,
                    "time": 419.70054225000337,
                    "velocity": 0.3464566929133858,
                    "duration": 0.0936622500000226
                },
                {
                    "name": "E5",
                    "midi": 76,
                    "time": 419.7942045000034,
                    "velocity": 0.3858267716535433,
                    "duration": 0.0936622500000226
                },
                {
                    "name": "F5",
                    "midi": 77,
                    "time": 419.8878667500034,
                    "velocity": 0.3464566929133858,
                    "duration": 0.0936622500000226
                },
                {
                    "name": "F5",
                    "midi": 77,
                    "time": 420.07519125000346,
                    "velocity": 0.3858267716535433,
                    "duration": 0.0936622500000226
                },
                {
                    "name": "A5",
                    "midi": 81,
                    "time": 420.1688535000035,
                    "velocity": 0.4251968503937008,
                    "duration": 0.0936622500000226
                },
                {
                    "name": "F5",
                    "midi": 77,
                    "time": 420.2625157500035,
                    "velocity": 0.3858267716535433,
                    "duration": 0.0936622500000226
                },
                {
                    "name": "F5",
                    "midi": 77,
                    "time": 420.44984025000355,
                    "velocity": 0.41732283464566927,
                    "duration": 0.0936622500000226
                },
                {
                    "name": "A#5",
                    "midi": 82,
                    "time": 420.54350250000357,
                    "velocity": 0.44881889763779526,
                    "duration": 0.0936622500000226
                },
                {
                    "name": "F5",
                    "midi": 77,
                    "time": 420.6371647500036,
                    "velocity": 0.4094488188976378,
                    "duration": 0.0936622500000226
                },
                {
                    "name": "F5",
                    "midi": 77,
                    "time": 420.82448925000364,
                    "velocity": 0.4330708661417323,
                    "duration": 0.0936622500000226
                },
                {
                    "name": "D#6",
                    "midi": 87,
                    "time": 420.91815150000366,
                    "velocity": 0.48031496062992124,
                    "duration": 0.0936622500000226
                },
                {
                    "name": "F5",
                    "midi": 77,
                    "time": 421.0118137500037,
                    "velocity": 0.44881889763779526,
                    "duration": 0.0936622500000226
                },
                {
                    "name": "F5",
                    "midi": 77,
                    "time": 421.1991382500037,
                    "velocity": 0.44881889763779526,
                    "duration": 0.0936622500000226
                },
                {
                    "name": "D6",
                    "midi": 86,
                    "time": 421.29280050000375,
                    "velocity": 0.5039370078740157,
                    "duration": 0.0936622500000226
                },
                {
                    "name": "F5",
                    "midi": 77,
                    "time": 421.3864627500038,
                    "velocity": 0.44881889763779526,
                    "duration": 0.0936622500000226
                },
                {
                    "name": "C6",
                    "midi": 84,
                    "time": 421.4801250000038,
                    "velocity": 0.5118110236220472,
                    "duration": 0.0936622500000226
                },
                {
                    "name": "A5",
                    "midi": 81,
                    "time": 421.5737872500038,
                    "velocity": 0.47244094488188976,
                    "duration": 0.0936622500000226
                },
                {
                    "name": "G5",
                    "midi": 79,
                    "time": 421.66744950000384,
                    "velocity": 0.5118110236220472,
                    "duration": 0.0936622500000226
                },
                {
                    "name": "F5",
                    "midi": 77,
                    "time": 421.76111175000386,
                    "velocity": 0.47244094488188976,
                    "duration": 0.0936622500000226
                },
                {
                    "name": "E5",
                    "midi": 76,
                    "time": 421.8547740000039,
                    "velocity": 0.44881889763779526,
                    "duration": 0.0936622500000226
                },
                {
                    "name": "F5",
                    "midi": 77,
                    "time": 421.9484362500039,
                    "velocity": 0.4645669291338583,
                    "duration": 0.0936622500000226
                },
                {
                    "name": "G5",
                    "midi": 79,
                    "time": 422.04209850000393,
                    "velocity": 0.47244094488188976,
                    "duration": 0.0936622500000226
                },
                {
                    "name": "F5",
                    "midi": 77,
                    "time": 422.13576075000395,
                    "velocity": 0.4409448818897638,
                    "duration": 0.0936622500000226
                },
                {
                    "name": "F5",
                    "midi": 77,
                    "time": 422.323085250004,
                    "velocity": 0.3858267716535433,
                    "duration": 0.0936622500000226
                },
                {
                    "name": "A5",
                    "midi": 81,
                    "time": 422.416747500004,
                    "velocity": 0.41732283464566927,
                    "duration": 0.0936622500000226
                },
                {
                    "name": "F5",
                    "midi": 77,
                    "time": 422.51040975000404,
                    "velocity": 0.3858267716535433,
                    "duration": 0.0936622500000226
                },
                {
                    "name": "F5",
                    "midi": 77,
                    "time": 422.6977342500041,
                    "velocity": 0.4094488188976378,
                    "duration": 0.0936622500000226
                },
                {
                    "name": "A#5",
                    "midi": 82,
                    "time": 422.7913965000041,
                    "velocity": 0.4566929133858268,
                    "duration": 0.0936622500000226
                },
                {
                    "name": "F5",
                    "midi": 77,
                    "time": 422.88505875000413,
                    "velocity": 0.4251968503937008,
                    "duration": 0.0936622500000226
                },
                {
                    "name": "F5",
                    "midi": 77,
                    "time": 423.0723832500042,
                    "velocity": 0.4330708661417323,
                    "duration": 0.0936622500000226
                },
                {
                    "name": "D#6",
                    "midi": 87,
                    "time": 423.1660455000042,
                    "velocity": 0.48031496062992124,
                    "duration": 0.0936622500000226
                },
                {
                    "name": "F5",
                    "midi": 77,
                    "time": 423.2597077500042,
                    "velocity": 0.4330708661417323,
                    "duration": 0.0936622500000226
                },
                {
                    "name": "F5",
                    "midi": 77,
                    "time": 423.44703225000427,
                    "velocity": 0.3858267716535433,
                    "duration": 0.0936622500000226
                },
                {
                    "name": "D6",
                    "midi": 86,
                    "time": 423.5406945000043,
                    "velocity": 0.5354330708661418,
                    "duration": 0.0936622500000226
                },
                {
                    "name": "F5",
                    "midi": 77,
                    "time": 423.6343567500043,
                    "velocity": 0.4881889763779528,
                    "duration": 0.0936622500000226
                },
                {
                    "name": "C6",
                    "midi": 84,
                    "time": 423.72801900000434,
                    "velocity": 0.5748031496062992,
                    "duration": 0.0936622500000226
                },
                {
                    "name": "F6",
                    "midi": 89,
                    "time": 423.82168125000436,
                    "velocity": 0.4881889763779528,
                    "duration": 0.0936622500000226
                },
                {
                    "name": "C6",
                    "midi": 84,
                    "time": 423.9153435000044,
                    "velocity": 0.5433070866141733,
                    "duration": 0.0936622500000226
                },
                {
                    "name": "A5",
                    "midi": 81,
                    "time": 424.0090057500044,
                    "velocity": 0.44881889763779526,
                    "duration": 0.0936622500000226
                },
                {
                    "name": "F5",
                    "midi": 77,
                    "time": 424.1026680000044,
                    "velocity": 0.5275590551181102,
                    "duration": 0.0936622500000226
                },
                {
                    "name": "C6",
                    "midi": 84,
                    "time": 424.19633025000445,
                    "velocity": 0.4330708661417323,
                    "duration": 0.0936622500000226
                },
                {
                    "name": "A5",
                    "midi": 81,
                    "time": 424.2899925000045,
                    "velocity": 0.48031496062992124,
                    "duration": 0.0936622500000226
                },
                {
                    "name": "F5",
                    "midi": 77,
                    "time": 424.3836547500045,
                    "velocity": 0.4251968503937008,
                    "duration": 0.0936622500000226
                },
                {
                    "name": "C5",
                    "midi": 72,
                    "time": 424.4773170000045,
                    "velocity": 0.49606299212598426,
                    "duration": 0.0936622500000226
                },
                {
                    "name": "F5",
                    "midi": 77,
                    "time": 424.57097925000454,
                    "velocity": 0.4330708661417323,
                    "duration": 0.0936622500000226
                },
                {
                    "name": "C5",
                    "midi": 72,
                    "time": 424.66464150000456,
                    "velocity": 0.5118110236220472,
                    "duration": 0.0936622500000226
                },
                {
                    "name": "A4",
                    "midi": 69,
                    "time": 424.7583037500046,
                    "velocity": 0.4645669291338583,
                    "duration": 0.0936622500000226
                },
                {
                    "name": "F4",
                    "midi": 65,
                    "time": 424.8519660000046,
                    "velocity": 0.6692913385826772,
                    "duration": 0.0936622500000226
                },
                {
                    "name": "C5",
                    "midi": 72,
                    "time": 425.22661500000464,
                    "velocity": 0.4881889763779528,
                    "duration": 0.3746489999999767
                },
                {
                    "name": "A4",
                    "midi": 69,
                    "time": 425.22661500000464,
                    "velocity": 0.4881889763779528,
                    "duration": 0.3746489999999767
                },
                {
                    "name": "F5",
                    "midi": 77,
                    "time": 425.22661500000464,
                    "velocity": 0.5748031496062992,
                    "duration": 0.3746489999999767
                },
                {
                    "name": "F5",
                    "midi": 77,
                    "time": 428.4111315000046,
                    "velocity": 0.3543307086614173,
                    "duration": 0.046831124999982876
                },
                {
                    "name": "F5",
                    "midi": 77,
                    "time": 428.5984560000046,
                    "velocity": 0.3858267716535433,
                    "duration": 0.046831124999982876
                },
                {
                    "name": "F5",
                    "midi": 77,
                    "time": 428.7857805000046,
                    "velocity": 0.33858267716535434,
                    "duration": 0.046831124999982876
                },
                {
                    "name": "F5",
                    "midi": 77,
                    "time": 428.9731050000046,
                    "velocity": 0.36220472440944884,
                    "duration": 0.046831124999982876
                },
                {
                    "name": "F5",
                    "midi": 77,
                    "time": 429.16042950000457,
                    "velocity": 0.31496062992125984,
                    "duration": 0.046831124999982876
                },
                {
                    "name": "G5",
                    "midi": 79,
                    "time": 429.34775400000456,
                    "velocity": 0.3543307086614173,
                    "duration": 0.1966907249999963
                },
                {
                    "name": "F5",
                    "midi": 77,
                    "time": 429.53507850000454,
                    "velocity": 0.31496062992125984,
                    "duration": 0.1966907249999963
                },
                {
                    "name": "D#5",
                    "midi": 75,
                    "time": 429.72240300000453,
                    "velocity": 0.33858267716535434,
                    "duration": 0.1966907249999963
                },
                {
                    "name": "D5",
                    "midi": 74,
                    "time": 429.9097275000045,
                    "velocity": 0.31496062992125984,
                    "duration": 0.1966907249999963
                },
                {
                    "name": "C5",
                    "midi": 72,
                    "time": 430.0970520000045,
                    "velocity": 0.3543307086614173,
                    "duration": 0.1966907249999963
                },
                {
                    "name": "A#4",
                    "midi": 70,
                    "time": 430.2843765000045,
                    "velocity": 0.30708661417322836,
                    "duration": 0.14049337500000547
                },
                {
                    "name": "A#4",
                    "midi": 70,
                    "time": 430.4717010000045,
                    "velocity": 0.3228346456692913,
                    "duration": 0.046831124999982876
                },
                {
                    "name": "C5",
                    "midi": 72,
                    "time": 430.51853212500447,
                    "velocity": 0.30708661417322836,
                    "duration": 0.046831124999982876
                },
                {
                    "name": "A#4",
                    "midi": 70,
                    "time": 430.56536325000445,
                    "velocity": 0.3858267716535433,
                    "duration": 0.0936622500000226
                },
                {
                    "name": "A4",
                    "midi": 69,
                    "time": 430.6590255000045,
                    "velocity": 0.3464566929133858,
                    "duration": 0.18732449999998835
                },
                {
                    "name": "A4",
                    "midi": 69,
                    "time": 430.84635000000446,
                    "velocity": 0.36220472440944884,
                    "duration": 0.3746489999999767
                },
                {
                    "name": "D#5",
                    "midi": 75,
                    "time": 432.90691950000445,
                    "velocity": 0.3543307086614173,
                    "duration": 0.046831124999982876
                },
                {
                    "name": "D#5",
                    "midi": 75,
                    "time": 433.09424400000444,
                    "velocity": 0.3779527559055118,
                    "duration": 0.046831124999982876
                },
                {
                    "name": "D#5",
                    "midi": 75,
                    "time": 433.2815685000044,
                    "velocity": 0.33070866141732286,
                    "duration": 0.046831124999982876
                },
                {
                    "name": "D#5",
                    "midi": 75,
                    "time": 433.4688930000044,
                    "velocity": 0.3464566929133858,
                    "duration": 0.046831124999982876
                },
                {
                    "name": "D#5",
                    "midi": 75,
                    "time": 433.6562175000044,
                    "velocity": 0.31496062992125984,
                    "duration": 0.046831124999982876
                },
                {
                    "name": "F5",
                    "midi": 77,
                    "time": 433.8435420000044,
                    "velocity": 0.3543307086614173,
                    "duration": 0.1966907249999963
                },
                {
                    "name": "D#5",
                    "midi": 75,
                    "time": 434.0308665000044,
                    "velocity": 0.31496062992125984,
                    "duration": 0.1966907249999963
                },
                {
                    "name": "D5",
                    "midi": 74,
                    "time": 434.21819100000437,
                    "velocity": 0.31496062992125984,
                    "duration": 0.1966907249999963
                },
                {
                    "name": "C5",
                    "midi": 72,
                    "time": 434.40551550000436,
                    "velocity": 0.31496062992125984,
                    "duration": 0.1966907249999963
                },
                {
                    "name": "A#4",
                    "midi": 70,
                    "time": 434.59284000000434,
                    "velocity": 0.3543307086614173,
                    "duration": 0.1966907249999963
                },
                {
                    "name": "A4",
                    "midi": 69,
                    "time": 434.78016450000433,
                    "velocity": 0.30708661417322836,
                    "duration": 0.18732449999998835
                },
                {
                    "name": "A#4",
                    "midi": 70,
                    "time": 434.9674890000043,
                    "velocity": 0.3700787401574803,
                    "duration": 0.3746489999999767
                },
                {
                    "name": "D5",
                    "midi": 74,
                    "time": 435.5294625000043,
                    "velocity": 0.3700787401574803,
                    "duration": 0.1966907249999963
                },
                {
                    "name": "C5",
                    "midi": 72,
                    "time": 435.7167870000043,
                    "velocity": 0.3543307086614173,
                    "duration": 0.1966907249999963
                },
                {
                    "name": "A#4",
                    "midi": 70,
                    "time": 435.90411150000426,
                    "velocity": 0.31496062992125984,
                    "duration": 0.1966907249999963
                },
                {
                    "name": "A4",
                    "midi": 69,
                    "time": 436.09143600000425,
                    "velocity": 0.3700787401574803,
                    "duration": 0.37464900000003354
                },
                {
                    "name": "G5",
                    "midi": 79,
                    "time": 436.6534095000043,
                    "velocity": 0.4094488188976378,
                    "duration": 0.1966907249999963
                },
                {
                    "name": "F5",
                    "midi": 77,
                    "time": 436.84073400000426,
                    "velocity": 0.3700787401574803,
                    "duration": 0.1966907249999963
                },
                {
                    "name": "A4",
                    "midi": 69,
                    "time": 437.02805850000425,
                    "velocity": 0.33070866141732286,
                    "duration": 0.1966907249999963
                },
                {
                    "name": "A#4",
                    "midi": 70,
                    "time": 437.21538300000424,
                    "velocity": 0.3700787401574803,
                    "duration": 0.37464900000003354
                },
                {
                    "name": "D5",
                    "midi": 74,
                    "time": 437.77735650000426,
                    "velocity": 0.3700787401574803,
                    "duration": 0.1966907249999963
                },
                {
                    "name": "C5",
                    "midi": 72,
                    "time": 437.96468100000425,
                    "velocity": 0.3543307086614173,
                    "duration": 0.1966907249999963
                },
                {
                    "name": "A#4",
                    "midi": 70,
                    "time": 438.15200550000424,
                    "velocity": 0.31496062992125984,
                    "duration": 0.1966907249999963
                },
                {
                    "name": "A4",
                    "midi": 69,
                    "time": 438.3393300000042,
                    "velocity": 0.3700787401574803,
                    "duration": 0.37464900000003354
                },
                {
                    "name": "F#5",
                    "midi": 78,
                    "time": 438.90130350000425,
                    "velocity": 0.4094488188976378,
                    "duration": 0.1966907249999963
                },
                {
                    "name": "F5",
                    "midi": 77,
                    "time": 439.08862800000423,
                    "velocity": 0.3700787401574803,
                    "duration": 0.1966907249999963
                },
                {
                    "name": "A4",
                    "midi": 69,
                    "time": 439.2759525000042,
                    "velocity": 0.33070866141732286,
                    "duration": 0.1966907249999963
                },
                {
                    "name": "A#4",
                    "midi": 70,
                    "time": 439.4632770000042,
                    "velocity": 0.3700787401574803,
                    "duration": 0.37464900000003354
                },
                {
                    "name": "F5",
                    "midi": 77,
                    "time": 440.02525050000423,
                    "velocity": 0.4330708661417323,
                    "duration": 0.1966907249999963
                },
                {
                    "name": "C#5",
                    "midi": 73,
                    "time": 440.2125750000042,
                    "velocity": 0.41732283464566927,
                    "duration": 0.1966907249999963
                },
                {
                    "name": "C5",
                    "midi": 72,
                    "time": 440.3998995000042,
                    "velocity": 0.3937007874015748,
                    "duration": 0.1966907249999963
                },
                {
                    "name": "B4",
                    "midi": 71,
                    "time": 440.5872240000042,
                    "velocity": 0.4409448818897638,
                    "duration": 0.37464900000003354
                },
                {
                    "name": "G#5",
                    "midi": 80,
                    "time": 441.1491975000042,
                    "velocity": 0.4566929133858268,
                    "duration": 0.1966907249999963
                },
                {
                    "name": "G5",
                    "midi": 79,
                    "time": 441.3365220000042,
                    "velocity": 0.4094488188976378,
                    "duration": 0.1966907249999963
                },
                {
                    "name": "B4",
                    "midi": 71,
                    "time": 441.5238465000042,
                    "velocity": 0.3779527559055118,
                    "duration": 0.18732449999998835
                },
                {
                    "name": "D5",
                    "midi": 74,
                    "time": 441.7111710000042,
                    "velocity": 0.4409448818897638,
                    "duration": 0.1966907249999963
                },
                {
                    "name": "C5",
                    "midi": 72,
                    "time": 441.8984955000042,
                    "velocity": 0.4015748031496063,
                    "duration": 0.1966907249999963
                },
                {
                    "name": "F5",
                    "midi": 77,
                    "time": 442.08582000000416,
                    "velocity": 0.4330708661417323,
                    "duration": 0.1966907249999963
                },
                {
                    "name": "E5",
                    "midi": 76,
                    "time": 442.27314450000415,
                    "velocity": 0.4015748031496063,
                    "duration": 0.1966907249999963
                },
                {
                    "name": "D#5",
                    "midi": 75,
                    "time": 442.46046900000414,
                    "velocity": 0.3937007874015748,
                    "duration": 0.1966907249999963
                },
                {
                    "name": "D5",
                    "midi": 74,
                    "time": 442.6477935000041,
                    "velocity": 0.3858267716535433,
                    "duration": 0.18732449999998835
                },
                {
                    "name": "C5",
                    "midi": 72,
                    "time": 442.8351180000041,
                    "velocity": 0.4251968503937008,
                    "duration": 0.28098675000001094
                },
                {
                    "name": "D5",
                    "midi": 74,
                    "time": 443.1161047500041,
                    "velocity": 0.3779527559055118,
                    "duration": 0.0936622500000226
                },
                {
                    "name": "A#4",
                    "midi": 70,
                    "time": 443.20976700000415,
                    "velocity": 0.4251968503937008,
                    "duration": 0.3746489999999767
                },
                {
                    "name": "A4",
                    "midi": 69,
                    "time": 443.5844160000041,
                    "velocity": 0.3937007874015748,
                    "duration": 0.06244149999997717
                },
                {
                    "name": "A#4",
                    "midi": 70,
                    "time": 443.6468575000041,
                    "velocity": 0.3464566929133858,
                    "duration": 0.06244149999997717
                },
                {
                    "name": "A4",
                    "midi": 69,
                    "time": 443.7092990000041,
                    "velocity": 0.3937007874015748,
                    "duration": 0.06244149999997717
                },
                {
                    "name": "A#4",
                    "midi": 70,
                    "time": 443.77174050000406,
                    "velocity": 0.3464566929133858,
                    "duration": 0.046831124999982876
                },
                {
                    "name": "A4",
                    "midi": 69,
                    "time": 443.81857162500404,
                    "velocity": 0.3937007874015748,
                    "duration": 0.046831124999982876
                },
                {
                    "name": "G4",
                    "midi": 67,
                    "time": 443.865402750004,
                    "velocity": 0.33070866141732286,
                    "duration": 0.046831124999982876
                },
                {
                    "name": "A4",
                    "midi": 69,
                    "time": 443.912233875004,
                    "velocity": 0.3543307086614173,
                    "duration": 0.046831124999982876
                },
                {
                    "name": "A#4",
                    "midi": 70,
                    "time": 443.959065000004,
                    "velocity": 0.3858267716535433,
                    "duration": 0.0936622500000226
                },
                {
                    "name": "F4",
                    "midi": 65,
                    "time": 444.052727250004,
                    "velocity": 0.36220472440944884,
                    "duration": 0.0936622500000226
                },
                {
                    "name": "E4",
                    "midi": 64,
                    "time": 444.14638950000403,
                    "velocity": 0.3858267716535433,
                    "duration": 0.0936622500000226
                },
                {
                    "name": "F4",
                    "midi": 65,
                    "time": 444.24005175000406,
                    "velocity": 0.3464566929133858,
                    "duration": 0.0936622500000226
                },
                {
                    "name": "G4",
                    "midi": 67,
                    "time": 444.3337140000041,
                    "velocity": 0.3858267716535433,
                    "duration": 0.0936622500000226
                },
                {
                    "name": "F4",
                    "midi": 65,
                    "time": 444.4273762500041,
                    "velocity": 0.3464566929133858,
                    "duration": 0.0936622500000226
                },
                {
                    "name": "E4",
                    "midi": 64,
                    "time": 444.5210385000041,
                    "velocity": 0.3858267716535433,
                    "duration": 0.0936622500000226
                },
                {
                    "name": "F4",
                    "midi": 65,
                    "time": 444.61470075000415,
                    "velocity": 0.3464566929133858,
                    "duration": 0.0936622500000226
                },
                {
                    "name": "D#4",
                    "midi": 63,
                    "time": 444.70836300000417,
                    "velocity": 0.3858267716535433,
                    "duration": 0.0936622500000226
                },
                {
                    "name": "F4",
                    "midi": 65,
                    "time": 444.8020252500042,
                    "velocity": 0.3858267716535433,
                    "duration": 0.0936622500000226
                },
                {
                    "name": "D4",
                    "midi": 62,
                    "time": 444.8956875000042,
                    "velocity": 0.4251968503937008,
                    "duration": 0.0936622500000226
                },
                {
                    "name": "F4",
                    "midi": 65,
                    "time": 444.98934975000424,
                    "velocity": 0.3858267716535433,
                    "duration": 0.0936622500000226
                },
                {
                    "name": "C4",
                    "midi": 60,
                    "time": 445.08301200000426,
                    "velocity": 0.3858267716535433,
                    "duration": 0.0936622500000226
                },
                {
                    "name": "F4",
                    "midi": 65,
                    "time": 445.1766742500043,
                    "velocity": 0.36220472440944884,
                    "duration": 0.0936622500000226
                },
                {
                    "name": "E4",
                    "midi": 64,
                    "time": 445.2703365000043,
                    "velocity": 0.3858267716535433,
                    "duration": 0.0936622500000226
                },
                {
                    "name": "F4",
                    "midi": 65,
                    "time": 445.3639987500043,
                    "velocity": 0.3464566929133858,
                    "duration": 0.0936622500000226
                },
                {
                    "name": "G4",
                    "midi": 67,
                    "time": 445.45766100000435,
                    "velocity": 0.3858267716535433,
                    "duration": 0.0936622500000226
                },
                {
                    "name": "F4",
                    "midi": 65,
                    "time": 445.5513232500044,
                    "velocity": 0.3464566929133858,
                    "duration": 0.0936622500000226
                },
                {
                    "name": "E4",
                    "midi": 64,
                    "time": 445.6449855000044,
                    "velocity": 0.3858267716535433,
                    "duration": 0.0936622500000226
                },
                {
                    "name": "F4",
                    "midi": 65,
                    "time": 445.7386477500044,
                    "velocity": 0.3464566929133858,
                    "duration": 0.0936622500000226
                },
                {
                    "name": "D#5",
                    "midi": 75,
                    "time": 445.83231000000444,
                    "velocity": 0.3858267716535433,
                    "duration": 0.0936622500000226
                },
                {
                    "name": "F4",
                    "midi": 65,
                    "time": 445.92597225000446,
                    "velocity": 0.3858267716535433,
                    "duration": 0.0936622500000226
                },
                {
                    "name": "D#5",
                    "midi": 75,
                    "time": 446.0196345000045,
                    "velocity": 0.4251968503937008,
                    "duration": 0.0936622500000226
                },
                {
                    "name": "F4",
                    "midi": 65,
                    "time": 446.1132967500045,
                    "velocity": 0.3858267716535433,
                    "duration": 0.0936622500000226
                },
                {
                    "name": "D5",
                    "midi": 74,
                    "time": 446.20695900000453,
                    "velocity": 0.3858267716535433,
                    "duration": 0.0936622500000226
                },
                {
                    "name": "F5",
                    "midi": 77,
                    "time": 446.30062125000455,
                    "velocity": 0.36220472440944884,
                    "duration": 0.0936622500000226
                },
                {
                    "name": "E5",
                    "midi": 76,
                    "time": 446.3942835000046,
                    "velocity": 0.3858267716535433,
                    "duration": 0.0936622500000226
                },
                {
                    "name": "F5",
                    "midi": 77,
                    "time": 446.4879457500046,
                    "velocity": 0.3464566929133858,
                    "duration": 0.0936622500000226
                },
                {
                    "name": "G5",
                    "midi": 79,
                    "time": 446.5816080000046,
                    "velocity": 0.3858267716535433,
                    "duration": 0.0936622500000226
                },
                {
                    "name": "F5",
                    "midi": 77,
                    "time": 446.67527025000464,
                    "velocity": 0.3464566929133858,
                    "duration": 0.0936622500000226
                },
                {
                    "name": "E5",
                    "midi": 76,
                    "time": 446.76893250000467,
                    "velocity": 0.3858267716535433,
                    "duration": 0.0936622500000226
                },
                {
                    "name": "F5",
                    "midi": 77,
                    "time": 446.8625947500047,
                    "velocity": 0.3464566929133858,
                    "duration": 0.0936622500000226
                },
                {
                    "name": "D#5",
                    "midi": 75,
                    "time": 446.9562570000047,
                    "velocity": 0.3858267716535433,
                    "duration": 0.0936622500000226
                },
                {
                    "name": "F5",
                    "midi": 77,
                    "time": 447.04991925000473,
                    "velocity": 0.3858267716535433,
                    "duration": 0.0936622500000226
                },
                {
                    "name": "D5",
                    "midi": 74,
                    "time": 447.14358150000476,
                    "velocity": 0.4251968503937008,
                    "duration": 0.0936622500000226
                },
                {
                    "name": "F5",
                    "midi": 77,
                    "time": 447.2372437500048,
                    "velocity": 0.3858267716535433,
                    "duration": 0.0936622500000226
                },
                {
                    "name": "C5",
                    "midi": 72,
                    "time": 447.3309060000048,
                    "velocity": 0.3858267716535433,
                    "duration": 0.0936622500000226
                },
                {
                    "name": "F5",
                    "midi": 77,
                    "time": 447.4245682500048,
                    "velocity": 0.36220472440944884,
                    "duration": 0.0936622500000226
                },
                {
                    "name": "E5",
                    "midi": 76,
                    "time": 447.51823050000485,
                    "velocity": 0.3858267716535433,
                    "duration": 0.0936622500000226
                },
                {
                    "name": "F5",
                    "midi": 77,
                    "time": 447.61189275000487,
                    "velocity": 0.3464566929133858,
                    "duration": 0.0936622500000226
                },
                {
                    "name": "G5",
                    "midi": 79,
                    "time": 447.7055550000049,
                    "velocity": 0.3858267716535433,
                    "duration": 0.0936622500000226
                },
                {
                    "name": "F5",
                    "midi": 77,
                    "time": 447.7992172500049,
                    "velocity": 0.3464566929133858,
                    "duration": 0.0936622500000226
                },
                {
                    "name": "E5",
                    "midi": 76,
                    "time": 447.89287950000494,
                    "velocity": 0.3858267716535433,
                    "duration": 0.0936622500000226
                },
                {
                    "name": "F5",
                    "midi": 77,
                    "time": 447.98654175000496,
                    "velocity": 0.3464566929133858,
                    "duration": 0.0936622500000226
                },
                {
                    "name": "D#6",
                    "midi": 87,
                    "time": 448.080204000005,
                    "velocity": 0.3858267716535433,
                    "duration": 0.0936622500000226
                },
                {
                    "name": "F5",
                    "midi": 77,
                    "time": 448.173866250005,
                    "velocity": 0.3858267716535433,
                    "duration": 0.0936622500000226
                },
                {
                    "name": "D#6",
                    "midi": 87,
                    "time": 448.267528500005,
                    "velocity": 0.4251968503937008,
                    "duration": 0.0936622500000226
                },
                {
                    "name": "F5",
                    "midi": 77,
                    "time": 448.36119075000505,
                    "velocity": 0.3858267716535433,
                    "duration": 0.0936622500000226
                },
                {
                    "name": "D6",
                    "midi": 86,
                    "time": 448.4548530000051,
                    "velocity": 0.3858267716535433,
                    "duration": 0.0936622500000226
                },
                {
                    "name": "F5",
                    "midi": 77,
                    "time": 448.5485152500051,
                    "velocity": 0.36220472440944884,
                    "duration": 0.0936622500000226
                },
                {
                    "name": "E5",
                    "midi": 76,
                    "time": 448.6421775000051,
                    "velocity": 0.3858267716535433,
                    "duration": 0.0936622500000226
                },
                {
                    "name": "F5",
                    "midi": 77,
                    "time": 448.73583975000514,
                    "velocity": 0.3464566929133858,
                    "duration": 0.0936622500000226
                },
                {
                    "name": "G5",
                    "midi": 79,
                    "time": 448.82950200000516,
                    "velocity": 0.3858267716535433,
                    "duration": 0.0936622500000226
                },
                {
                    "name": "F5",
                    "midi": 77,
                    "time": 448.9231642500052,
                    "velocity": 0.3464566929133858,
                    "duration": 0.0936622500000226
                },
                {
                    "name": "E5",
                    "midi": 76,
                    "time": 449.0168265000052,
                    "velocity": 0.3858267716535433,
                    "duration": 0.0936622500000226
                },
                {
                    "name": "F5",
                    "midi": 77,
                    "time": 449.11048875000523,
                    "velocity": 0.3464566929133858,
                    "duration": 0.0936622500000226
                },
                {
                    "name": "G#5",
                    "midi": 80,
                    "time": 449.20415100000525,
                    "velocity": 0.3858267716535433,
                    "duration": 0.0936622500000226
                },
                {
                    "name": "F5",
                    "midi": 77,
                    "time": 449.2978132500053,
                    "velocity": 0.3858267716535433,
                    "duration": 0.0936622500000226
                },
                {
                    "name": "D#5",
                    "midi": 75,
                    "time": 449.3914755000053,
                    "velocity": 0.4251968503937008,
                    "duration": 0.0936622500000226
                },
                {
                    "name": "F5",
                    "midi": 77,
                    "time": 449.4851377500053,
                    "velocity": 0.3858267716535433,
                    "duration": 0.0936622500000226
                },
                {
                    "name": "D5",
                    "midi": 74,
                    "time": 449.57880000000534,
                    "velocity": 0.3858267716535433,
                    "duration": 0.0936622500000226
                },
                {
                    "name": "G5",
                    "midi": 79,
                    "time": 449.67246225000537,
                    "velocity": 0.36220472440944884,
                    "duration": 0.0936622500000226
                },
                {
                    "name": "F#5",
                    "midi": 78,
                    "time": 449.7661245000054,
                    "velocity": 0.3858267716535433,
                    "duration": 0.0936622500000226
                },
                {
                    "name": "G5",
                    "midi": 79,
                    "time": 449.8597867500054,
                    "velocity": 0.3464566929133858,
                    "duration": 0.0936622500000226
                },
                {
                    "name": "A5",
                    "midi": 81,
                    "time": 449.95344900000543,
                    "velocity": 0.3858267716535433,
                    "duration": 0.0936622500000226
                },
                {
                    "name": "G5",
                    "midi": 79,
                    "time": 450.04711125000546,
                    "velocity": 0.3464566929133858,
                    "duration": 0.0936622500000226
                },
                {
                    "name": "F#5",
                    "midi": 78,
                    "time": 450.1407735000055,
                    "velocity": 0.4094488188976378,
                    "duration": 0.0936622500000226
                },
                {
                    "name": "G5",
                    "midi": 79,
                    "time": 450.2344357500055,
                    "velocity": 0.3464566929133858,
                    "duration": 0.0936622500000226
                },
                {
                    "name": "F6",
                    "midi": 89,
                    "time": 450.3280980000055,
                    "velocity": 0.4330708661417323,
                    "duration": 0.0936622500000226
                },
                {
                    "name": "G5",
                    "midi": 79,
                    "time": 450.42176025000555,
                    "velocity": 0.3858267716535433,
                    "duration": 0.0936622500000226
                },
                {
                    "name": "F6",
                    "midi": 89,
                    "time": 450.51542250000557,
                    "velocity": 0.44881889763779526,
                    "duration": 0.0936622500000226
                },
                {
                    "name": "G5",
                    "midi": 79,
                    "time": 450.6090847500056,
                    "velocity": 0.3858267716535433,
                    "duration": 0.0936622500000226
                },
                {
                    "name": "E6",
                    "midi": 88,
                    "time": 450.7027470000056,
                    "velocity": 0.4881889763779528,
                    "duration": 0.3746489999999767
                },
                {
                    "name": "D#6",
                    "midi": 87,
                    "time": 451.0773960000056,
                    "velocity": 0.47244094488188976,
                    "duration": 0.3746489999999767
                },
                {
                    "name": "D6",
                    "midi": 86,
                    "time": 451.45204500000557,
                    "velocity": 0.44881889763779526,
                    "duration": 0.3746489999999767
                },
                {
                    "name": "D6",
                    "midi": 86,
                    "time": 451.82669400000555,
                    "velocity": 0.47244094488188976,
                    "duration": 0.10302847500003054
                },
                {
                    "name": "C6",
                    "midi": 84,
                    "time": 451.92035625000557,
                    "velocity": 0.4094488188976378,
                    "duration": 0.10302847500003054
                },
                {
                    "name": "D#6",
                    "midi": 87,
                    "time": 452.0140185000056,
                    "velocity": 0.4094488188976378,
                    "duration": 0.10302847500003054
                },
                {
                    "name": "C6",
                    "midi": 84,
                    "time": 452.1076807500056,
                    "velocity": 0.4094488188976378,
                    "duration": 0.07024668750000274
                },
                {
                    "name": "C6",
                    "midi": 84,
                    "time": 452.20134300000564,
                    "velocity": 0.4881889763779528,
                    "duration": 0.10302847500003054
                },
                {
                    "name": "A#5",
                    "midi": 82,
                    "time": 452.29500525000566,
                    "velocity": 0.4094488188976378,
                    "duration": 0.10302847500003054
                },
                {
                    "name": "D6",
                    "midi": 86,
                    "time": 452.3886675000057,
                    "velocity": 0.4094488188976378,
                    "duration": 0.10302847500003054
                },
                {
                    "name": "A#5",
                    "midi": 82,
                    "time": 452.4823297500057,
                    "velocity": 0.4094488188976378,
                    "duration": 0.07024668750000274
                },
                {
                    "name": "A#5",
                    "midi": 82,
                    "time": 452.5759920000057,
                    "velocity": 0.4881889763779528,
                    "duration": 0.10302847500003054
                },
                {
                    "name": "A5",
                    "midi": 81,
                    "time": 452.66965425000575,
                    "velocity": 0.4094488188976378,
                    "duration": 0.10302847500003054
                },
                {
                    "name": "C6",
                    "midi": 84,
                    "time": 452.76331650000577,
                    "velocity": 0.4094488188976378,
                    "duration": 0.10302847500003054
                },
                {
                    "name": "A5",
                    "midi": 81,
                    "time": 452.8569787500058,
                    "velocity": 0.4094488188976378,
                    "duration": 0.0936622500000226
                },
                {
                    "name": "A#5",
                    "midi": 82,
                    "time": 452.9506410000058,
                    "velocity": 0.4251968503937008,
                    "duration": 0.0936622500000226
                },
                {
                    "name": "D6",
                    "midi": 86,
                    "time": 453.04430325000584,
                    "velocity": 0.44881889763779526,
                    "duration": 0.0936622500000226
                },
                {
                    "name": "F6",
                    "midi": 89,
                    "time": 453.13796550000586,
                    "velocity": 0.4566929133858268,
                    "duration": 0.0936622500000226
                },
                {
                    "name": "D#6",
                    "midi": 87,
                    "time": 453.2316277500059,
                    "velocity": 0.47244094488188976,
                    "duration": 0.0936622500000226
                },
                {
                    "name": "D6",
                    "midi": 86,
                    "time": 453.3252900000059,
                    "velocity": 0.4566929133858268,
                    "duration": 0.0936622500000226
                },
                {
                    "name": "C6",
                    "midi": 84,
                    "time": 453.41895225000593,
                    "velocity": 0.4409448818897638,
                    "duration": 0.0936622500000226
                },
                {
                    "name": "A#5",
                    "midi": 82,
                    "time": 453.51261450000595,
                    "velocity": 0.4251968503937008,
                    "duration": 0.0936622500000226
                },
                {
                    "name": "A5",
                    "midi": 81,
                    "time": 453.606276750006,
                    "velocity": 0.4094488188976378,
                    "duration": 0.0936622500000226
                },
                {
                    "name": "G5",
                    "midi": 79,
                    "time": 453.699939000006,
                    "velocity": 0.4330708661417323,
                    "duration": 0.0936622500000226
                },
                {
                    "name": "F5",
                    "midi": 77,
                    "time": 453.793601250006,
                    "velocity": 0.4015748031496063,
                    "duration": 0.0936622500000226
                },
                {
                    "name": "D#5",
                    "midi": 75,
                    "time": 453.88726350000604,
                    "velocity": 0.3937007874015748,
                    "duration": 0.0936622500000226
                },
                {
                    "name": "D5",
                    "midi": 74,
                    "time": 453.98092575000607,
                    "velocity": 0.3937007874015748,
                    "duration": 0.0936622500000226
                },
                {
                    "name": "C5",
                    "midi": 72,
                    "time": 454.0745880000061,
                    "velocity": 0.3937007874015748,
                    "duration": 0.0936622500000226
                },
                {
                    "name": "D#5",
                    "midi": 75,
                    "time": 454.1682502500061,
                    "velocity": 0.41732283464566927,
                    "duration": 0.0936622500000226
                },
                {
                    "name": "G5",
                    "midi": 79,
                    "time": 454.26191250000613,
                    "velocity": 0.4409448818897638,
                    "duration": 0.0936622500000226
                },
                {
                    "name": "F5",
                    "midi": 77,
                    "time": 454.35557475000616,
                    "velocity": 0.4330708661417323,
                    "duration": 0.0936622500000226
                },
                {
                    "name": "D#5",
                    "midi": 75,
                    "time": 454.4492370000062,
                    "velocity": 0.4251968503937008,
                    "duration": 0.0936622500000226
                },
                {
                    "name": "D5",
                    "midi": 74,
                    "time": 454.5428992500062,
                    "velocity": 0.41732283464566927,
                    "duration": 0.0936622500000226
                },
                {
                    "name": "C5",
                    "midi": 72,
                    "time": 454.6365615000062,
                    "velocity": 0.4094488188976378,
                    "duration": 0.0936622500000226
                },
                {
                    "name": "A#4",
                    "midi": 70,
                    "time": 454.73022375000625,
                    "velocity": 0.3937007874015748,
                    "duration": 0.0936622500000226
                },
                {
                    "name": "A4",
                    "midi": 69,
                    "time": 454.82388600000627,
                    "velocity": 0.3858267716535433,
                    "duration": 0.0936622500000226
                },
                {
                    "name": "G4",
                    "midi": 67,
                    "time": 454.9175482500063,
                    "velocity": 0.3937007874015748,
                    "duration": 0.0936622500000226
                },
                {
                    "name": "F4",
                    "midi": 65,
                    "time": 455.0112105000063,
                    "velocity": 0.41732283464566927,
                    "duration": 0.0936622500000226
                },
                {
                    "name": "E4",
                    "midi": 64,
                    "time": 455.10487275000634,
                    "velocity": 0.4409448818897638,
                    "duration": 0.0936622500000226
                },
                {
                    "name": "F4",
                    "midi": 65,
                    "time": 455.19853500000636,
                    "velocity": 0.4645669291338583,
                    "duration": 0.0936622500000226
                },
                {
                    "name": "A#4",
                    "midi": 70,
                    "time": 455.3858595000064,
                    "velocity": 0.4645669291338583,
                    "duration": 0.0936622500000226
                },
                {
                    "name": "D5",
                    "midi": 74,
                    "time": 455.57318400000645,
                    "velocity": 0.48031496062992124,
                    "duration": 0.0936622500000226
                },
                {
                    "name": "F5",
                    "midi": 77,
                    "time": 455.7605085000065,
                    "velocity": 0.4881889763779528,
                    "duration": 0.0936622500000226
                },
                {
                    "name": "A#5",
                    "midi": 82,
                    "time": 455.94783300000654,
                    "velocity": 0.5039370078740157,
                    "duration": 0.0936622500000226
                },
                {
                    "name": "D6",
                    "midi": 86,
                    "time": 456.1351575000066,
                    "velocity": 0.5118110236220472,
                    "duration": 0.0936622500000226
                },
                {
                    "name": "C5",
                    "midi": 72,
                    "time": 456.32248200000663,
                    "velocity": 0.29133858267716534,
                    "duration": 0.046831124999982876
                },
                {
                    "name": "D5",
                    "midi": 74,
                    "time": 456.3693131250066,
                    "velocity": 0.2440944881889764,
                    "duration": 0.046831124999982876
                },
                {
                    "name": "C5",
                    "midi": 72,
                    "time": 456.4161442500066,
                    "velocity": 0.29133858267716534,
                    "duration": 0.046831124999982876
                },
                {
                    "name": "D5",
                    "midi": 74,
                    "time": 456.4629753750066,
                    "velocity": 0.2440944881889764,
                    "duration": 0.046831124999982876
                },
                {
                    "name": "C5",
                    "midi": 72,
                    "time": 456.50980650000656,
                    "velocity": 0.29133858267716534,
                    "duration": 0.046831124999982876
                },
                {
                    "name": "D5",
                    "midi": 74,
                    "time": 456.55663762500654,
                    "velocity": 0.25196850393700787,
                    "duration": 0.046831124999982876
                },
                {
                    "name": "C5",
                    "midi": 72,
                    "time": 456.6034687500065,
                    "velocity": 0.29133858267716534,
                    "duration": 0.046831124999982876
                },
                {
                    "name": "D5",
                    "midi": 74,
                    "time": 456.6502998750065,
                    "velocity": 0.25984251968503935,
                    "duration": 0.046831124999982876
                },
                {
                    "name": "C5",
                    "midi": 72,
                    "time": 456.6971310000065,
                    "velocity": 0.29133858267716534,
                    "duration": 0.046831124999982876
                },
                {
                    "name": "D5",
                    "midi": 74,
                    "time": 456.7439621250065,
                    "velocity": 0.25196850393700787,
                    "duration": 0.046831124999982876
                },
                {
                    "name": "C5",
                    "midi": 72,
                    "time": 456.79079325000646,
                    "velocity": 0.29133858267716534,
                    "duration": 0.046831124999982876
                },
                {
                    "name": "D5",
                    "midi": 74,
                    "time": 456.83762437500644,
                    "velocity": 0.25196850393700787,
                    "duration": 0.046831124999982876
                },
                {
                    "name": "C5",
                    "midi": 72,
                    "time": 456.8844555000064,
                    "velocity": 0.29133858267716534,
                    "duration": 0.046831124999982876
                },
                {
                    "name": "D5",
                    "midi": 74,
                    "time": 456.9312866250064,
                    "velocity": 0.2440944881889764,
                    "duration": 0.046831124999982876
                },
                {
                    "name": "C5",
                    "midi": 72,
                    "time": 456.9781177500064,
                    "velocity": 0.29133858267716534,
                    "duration": 0.046831124999982876
                },
                {
                    "name": "D5",
                    "midi": 74,
                    "time": 457.0249488750064,
                    "velocity": 0.25984251968503935,
                    "duration": 0.046831124999982876
                },
                {
                    "name": "C5",
                    "midi": 72,
                    "time": 457.07178000000636,
                    "velocity": 0.29133858267716534,
                    "duration": 0.046831124999982876
                },
                {
                    "name": "D5",
                    "midi": 74,
                    "time": 457.11861112500634,
                    "velocity": 0.25196850393700787,
                    "duration": 0.046831124999982876
                },
                {
                    "name": "C5",
                    "midi": 72,
                    "time": 457.1654422500063,
                    "velocity": 0.29133858267716534,
                    "duration": 0.06244149999997717
                },
                {
                    "name": "D5",
                    "midi": 74,
                    "time": 457.2278837500063,
                    "velocity": 0.25196850393700787,
                    "duration": 0.06244149999997717
                },
                {
                    "name": "C5",
                    "midi": 72,
                    "time": 457.2903252500063,
                    "velocity": 0.29133858267716534,
                    "duration": 0.06244149999997717
                },
                {
                    "name": "A#4",
                    "midi": 70,
                    "time": 457.35276675000625,
                    "velocity": 0.25984251968503935,
                    "duration": 0.046831124999982876
                },
                {
                    "name": "C5",
                    "midi": 72,
                    "time": 457.39959787500624,
                    "velocity": 0.25984251968503935,
                    "duration": 0.046831124999982876
                },
                {
                    "name": "A#4",
                    "midi": 70,
                    "time": 457.4464290000062,
                    "velocity": 0.3858267716535433,
                    "duration": 0.3746489999999767
                },
                {
                    "name": "D#5",
                    "midi": 75,
                    "time": 458.5703760000062,
                    "velocity": 0.36220472440944884,
                    "duration": 0.3746489999999767
                },
                {
                    "name": "F5",
                    "midi": 77,
                    "time": 458.9450250000062,
                    "velocity": 0.3937007874015748,
                    "duration": 0.3746489999999767
                },
                {
                    "name": "G5",
                    "midi": 79,
                    "time": 459.31967400000616,
                    "velocity": 0.4015748031496063,
                    "duration": 0.3746489999999767
                },
                {
                    "name": "F5",
                    "midi": 77,
                    "time": 459.69432300000614,
                    "velocity": 0.4015748031496063,
                    "duration": 0.5619735000000219
                },
                {
                    "name": "G5",
                    "midi": 79,
                    "time": 460.25629650000616,
                    "velocity": 0.3779527559055118,
                    "duration": 0.10302847500003054
                },
                {
                    "name": "F5",
                    "midi": 77,
                    "time": 460.3499587500062,
                    "velocity": 0.33858267716535434,
                    "duration": 0.10302847500003054
                },
                {
                    "name": "D#5",
                    "midi": 75,
                    "time": 460.4436210000062,
                    "velocity": 0.3937007874015748,
                    "duration": 0.10302847500003054
                },
                {
                    "name": "D5",
                    "midi": 74,
                    "time": 460.5372832500062,
                    "velocity": 0.3779527559055118,
                    "duration": 0.10302847500003054
                },
                {
                    "name": "C5",
                    "midi": 72,
                    "time": 460.63094550000625,
                    "velocity": 0.3700787401574803,
                    "duration": 0.10302847500003054
                },
                {
                    "name": "A#4",
                    "midi": 70,
                    "time": 460.72460775000627,
                    "velocity": 0.3543307086614173,
                    "duration": 0.0936622500000226
                },
                {
                    "name": "D5",
                    "midi": 74,
                    "time": 460.8182700000063,
                    "velocity": 0.3779527559055118,
                    "duration": 0.5619735000000219
                },
                {
                    "name": "D#5",
                    "midi": 75,
                    "time": 461.3802435000063,
                    "velocity": 0.31496062992125984,
                    "duration": 0.18732449999998835
                },
                {
                    "name": "C5",
                    "midi": 72,
                    "time": 461.5675680000063,
                    "velocity": 0.3464566929133858,
                    "duration": 0.3746489999999767
                },
                {
                    "name": "A#4",
                    "midi": 70,
                    "time": 461.9422170000063,
                    "velocity": 0.36220472440944884,
                    "duration": 0.3746489999999767
                },
                {
                    "name": "D#4",
                    "midi": 63,
                    "time": 463.06616400000627,
                    "velocity": 0.4094488188976378,
                    "duration": 0.18732449999998835
                },
                {
                    "name": "D#5",
                    "midi": 75,
                    "time": 463.25348850000626,
                    "velocity": 0.3700787401574803,
                    "duration": 0.18732449999998835
                },
                {
                    "name": "F4",
                    "midi": 65,
                    "time": 463.44081300000624,
                    "velocity": 0.4251968503937008,
                    "duration": 0.18732449999998835
                },
                {
                    "name": "F5",
                    "midi": 77,
                    "time": 463.62813750000623,
                    "velocity": 0.3700787401574803,
                    "duration": 0.18732449999998835
                },
                {
                    "name": "G4",
                    "midi": 67,
                    "time": 463.8154620000062,
                    "velocity": 0.4566929133858268,
                    "duration": 0.18732449999998835
                },
                {
                    "name": "G5",
                    "midi": 79,
                    "time": 464.0027865000062,
                    "velocity": 0.4094488188976378,
                    "duration": 0.18732449999998835
                },
                {
                    "name": "F5",
                    "midi": 77,
                    "time": 464.1901110000062,
                    "velocity": 0.48031496062992124,
                    "duration": 0.18732449999998835
                },
                {
                    "name": "G5",
                    "midi": 79,
                    "time": 464.3774355000062,
                    "velocity": 0.4251968503937008,
                    "duration": 0.0936622500000226
                },
                {
                    "name": "A5",
                    "midi": 81,
                    "time": 464.4710977500062,
                    "velocity": 0.4566929133858268,
                    "duration": 0.0936622500000226
                },
                {
                    "name": "A#5",
                    "midi": 82,
                    "time": 464.56476000000623,
                    "velocity": 0.48031496062992124,
                    "duration": 0.0936622500000226
                },
                {
                    "name": "A5",
                    "midi": 81,
                    "time": 464.65842225000625,
                    "velocity": 0.48031496062992124,
                    "duration": 0.0936622500000226
                },
                {
                    "name": "G5",
                    "midi": 79,
                    "time": 464.7520845000063,
                    "velocity": 0.47244094488188976,
                    "duration": 0.0936622500000226
                },
                {
                    "name": "F5",
                    "midi": 77,
                    "time": 464.8457467500063,
                    "velocity": 0.4566929133858268,
                    "duration": 0.0936622500000226
                },
                {
                    "name": "D#5",
                    "midi": 75,
                    "time": 464.9394090000063,
                    "velocity": 0.44881889763779526,
                    "duration": 0.0936622500000226
                },
                {
                    "name": "D5",
                    "midi": 74,
                    "time": 465.03307125000634,
                    "velocity": 0.4330708661417323,
                    "duration": 0.0936622500000226
                },
                {
                    "name": "C5",
                    "midi": 72,
                    "time": 465.12673350000637,
                    "velocity": 0.4251968503937008,
                    "duration": 0.0936622500000226
                },
                {
                    "name": "A#4",
                    "midi": 70,
                    "time": 465.2203957500064,
                    "velocity": 0.4094488188976378,
                    "duration": 0.0936622500000226
                },
                {
                    "name": "D5",
                    "midi": 74,
                    "time": 465.3140580000064,
                    "velocity": 0.4881889763779528,
                    "duration": 0.5619735000000219
                },
                {
                    "name": "D#5",
                    "midi": 75,
                    "time": 465.87603150000643,
                    "velocity": 0.4409448818897638,
                    "duration": 0.18732449999998835
                },
                {
                    "name": "C5",
                    "midi": 72,
                    "time": 466.0633560000064,
                    "velocity": 0.4881889763779528,
                    "duration": 0.3746489999999767
                },
                {
                    "name": "A#4",
                    "midi": 70,
                    "time": 466.4380050000064,
                    "velocity": 0.5275590551181102,
                    "duration": 0.3746489999999767
                },
                {
                    "name": "F5",
                    "midi": 77,
                    "time": 466.9063162500064,
                    "velocity": 0.47244094488188976,
                    "duration": 0.0936622500000226
                },
                {
                    "name": "G5",
                    "midi": 79,
                    "time": 466.9999785000064,
                    "velocity": 0.5118110236220472,
                    "duration": 0.0936622500000226
                },
                {
                    "name": "F5",
                    "midi": 77,
                    "time": 467.09364075000644,
                    "velocity": 0.47244094488188976,
                    "duration": 0.0936622500000226
                },
                {
                    "name": "D#5",
                    "midi": 75,
                    "time": 467.18730300000647,
                    "velocity": 0.5039370078740157,
                    "duration": 0.0936622500000226
                },
                {
                    "name": "D5",
                    "midi": 74,
                    "time": 467.2809652500065,
                    "velocity": 0.4881889763779528,
                    "duration": 0.0936622500000226
                },
                {
                    "name": "D#5",
                    "midi": 75,
                    "time": 467.3746275000065,
                    "velocity": 0.47244094488188976,
                    "duration": 0.0936622500000226
                },
                {
                    "name": "C5",
                    "midi": 72,
                    "time": 467.46828975000653,
                    "velocity": 0.4566929133858268,
                    "duration": 0.0936622500000226
                },
                {
                    "name": "A#4",
                    "midi": 70,
                    "time": 467.56195200000656,
                    "velocity": 0.5354330708661418,
                    "duration": 0.3746489999999767
                },
                {
                    "name": "F4",
                    "midi": 65,
                    "time": 468.03026325000656,
                    "velocity": 0.47244094488188976,
                    "duration": 0.0936622500000226
                },
                {
                    "name": "G4",
                    "midi": 67,
                    "time": 468.1239255000066,
                    "velocity": 0.5118110236220472,
                    "duration": 0.0936622500000226
                },
                {
                    "name": "F4",
                    "midi": 65,
                    "time": 468.2175877500066,
                    "velocity": 0.47244094488188976,
                    "duration": 0.0936622500000226
                },
                {
                    "name": "D#4",
                    "midi": 63,
                    "time": 468.3112500000066,
                    "velocity": 0.5039370078740157,
                    "duration": 0.0936622500000226
                },
                {
                    "name": "D4",
                    "midi": 62,
                    "time": 468.40491225000665,
                    "velocity": 0.4881889763779528,
                    "duration": 0.0936622500000226
                },
                {
                    "name": "D#4",
                    "midi": 63,
                    "time": 468.49857450000667,
                    "velocity": 0.47244094488188976,
                    "duration": 0.0936622500000226
                },
                {
                    "name": "C4",
                    "midi": 60,
                    "time": 468.5922367500067,
                    "velocity": 0.4566929133858268,
                    "duration": 0.0936622500000226
                },
                {
                    "name": "A#3",
                    "midi": 58,
                    "time": 468.6858990000067,
                    "velocity": 0.5590551181102362,
                    "duration": 0.13112714999999753
                },
                {
                    "name": "D5",
                    "midi": 74,
                    "time": 469.0605480000067,
                    "velocity": 0.4645669291338583,
                    "duration": 0.3746489999999767
                },
                {
                    "name": "F5",
                    "midi": 77,
                    "time": 469.0605480000067,
                    "velocity": 0.4645669291338583,
                    "duration": 0.3746489999999767
                },
                {
                    "name": "A#5",
                    "midi": 82,
                    "time": 469.0605480000067,
                    "velocity": 0.6062992125984252,
                    "duration": 0.3746489999999767
                }
            ],
            "controlChanges": {},
            "id": 1,
            "name": "Piano right",
            "instrumentNumber": 0,
            "instrument": "acoustic grand piano",
            "instrumentFamily": "piano",
            "channelNumber": 0,
            "isPercussion": false
        },
        {
            "startTime": 0,
            "duration": 469.4351969999923,
            "length": 1792,
            "notes": [
                {
                    "name": "A#3",
                    "midi": 58,
                    "time": 0,
                    "velocity": 0.31496062992125984,
                    "duration": 0.7492979999999999
                },
                {
                    "name": "F3",
                    "midi": 53,
                    "time": 0.7492979999999999,
                    "velocity": 0.28346456692913385,
                    "duration": 0.3746489999999999
                },
                {
                    "name": "D3",
                    "midi": 50,
                    "time": 1.1239469999999998,
                    "velocity": 0.31496062992125984,
                    "duration": 0.749298
                },
                {
                    "name": "F3",
                    "midi": 53,
                    "time": 1.8732449999999998,
                    "velocity": 0.2992125984251969,
                    "duration": 0.3746489999999998
                },
                {
                    "name": "A#3",
                    "midi": 58,
                    "time": 2.2478939999999996,
                    "velocity": 0.3228346456692913,
                    "duration": 0.749298
                },
                {
                    "name": "D4",
                    "midi": 62,
                    "time": 2.9971919999999996,
                    "velocity": 0.33858267716535434,
                    "duration": 0.3746489999999998
                },
                {
                    "name": "F4",
                    "midi": 65,
                    "time": 3.3718409999999994,
                    "velocity": 0.3543307086614173,
                    "duration": 0.749298
                },
                {
                    "name": "D#4",
                    "midi": 63,
                    "time": 4.495787999999999,
                    "velocity": 0.28346456692913385,
                    "duration": 2.2478939999999996
                },
                {
                    "name": "F3",
                    "midi": 53,
                    "time": 4.495787999999999,
                    "velocity": 0.23622047244094488,
                    "duration": 2.2478939999999996
                },
                {
                    "name": "C4",
                    "midi": 60,
                    "time": 4.495787999999999,
                    "velocity": 0.23622047244094488,
                    "duration": 2.2478939999999996
                },
                {
                    "name": "A#3",
                    "midi": 58,
                    "time": 6.743681999999999,
                    "velocity": 0.25196850393700787,
                    "duration": 0.3746489999999998
                },
                {
                    "name": "D4",
                    "midi": 62,
                    "time": 6.743681999999999,
                    "velocity": 0.2992125984251969,
                    "duration": 0.3746489999999998
                },
                {
                    "name": "F3",
                    "midi": 53,
                    "time": 8.991575999999998,
                    "velocity": 0.23622047244094488,
                    "duration": 2.2478939999999987
                },
                {
                    "name": "C4",
                    "midi": 60,
                    "time": 8.991575999999998,
                    "velocity": 0.23622047244094488,
                    "duration": 2.2478939999999987
                },
                {
                    "name": "D#4",
                    "midi": 63,
                    "time": 8.991575999999998,
                    "velocity": 0.28346456692913385,
                    "duration": 2.2478939999999987
                },
                {
                    "name": "A#3",
                    "midi": 58,
                    "time": 11.239469999999997,
                    "velocity": 0.2677165354330709,
                    "duration": 0.0936622499999995
                },
                {
                    "name": "D4",
                    "midi": 62,
                    "time": 11.239469999999997,
                    "velocity": 0.31496062992125984,
                    "duration": 0.0936622499999995
                },
                {
                    "name": "D4",
                    "midi": 62,
                    "time": 11.614118999999997,
                    "velocity": 0.2992125984251969,
                    "duration": 0.0936622499999995
                },
                {
                    "name": "A#3",
                    "midi": 58,
                    "time": 11.614118999999997,
                    "velocity": 0.25196850393700787,
                    "duration": 0.0936622499999995
                },
                {
                    "name": "A#3",
                    "midi": 58,
                    "time": 11.988767999999997,
                    "velocity": 0.25196850393700787,
                    "duration": 0.0936622499999995
                },
                {
                    "name": "F4",
                    "midi": 65,
                    "time": 11.988767999999997,
                    "velocity": 0.2992125984251969,
                    "duration": 0.0936622499999995
                },
                {
                    "name": "A#3",
                    "midi": 58,
                    "time": 12.363416999999997,
                    "velocity": 0.2677165354330709,
                    "duration": 0.3746489999999998
                },
                {
                    "name": "D4",
                    "midi": 62,
                    "time": 12.363416999999997,
                    "velocity": 0.31496062992125984,
                    "duration": 0.3746489999999998
                },
                {
                    "name": "A#3",
                    "midi": 58,
                    "time": 13.862012999999996,
                    "velocity": 0.23622047244094488,
                    "duration": 0.3746489999999998
                },
                {
                    "name": "D#3",
                    "midi": 51,
                    "time": 13.862012999999996,
                    "velocity": 0.1968503937007874,
                    "duration": 0.3746489999999998
                },
                {
                    "name": "G3",
                    "midi": 55,
                    "time": 13.862012999999996,
                    "velocity": 0.1968503937007874,
                    "duration": 0.3746489999999998
                },
                {
                    "name": "D3",
                    "midi": 50,
                    "time": 14.985959999999995,
                    "velocity": 0.1968503937007874,
                    "duration": 0.3746489999999998
                },
                {
                    "name": "F3",
                    "midi": 53,
                    "time": 14.985959999999995,
                    "velocity": 0.1968503937007874,
                    "duration": 0.3746489999999998
                },
                {
                    "name": "A#3",
                    "midi": 58,
                    "time": 14.985959999999995,
                    "velocity": 0.23622047244094488,
                    "duration": 0.3746489999999998
                },
                {
                    "name": "A3",
                    "midi": 57,
                    "time": 15.735257999999995,
                    "velocity": 0.2283464566929134,
                    "duration": 1.1239470000000011
                },
                {
                    "name": "F4",
                    "midi": 65,
                    "time": 15.735257999999995,
                    "velocity": 0.2677165354330709,
                    "duration": 1.4985960000000027
                },
                {
                    "name": "A#3",
                    "midi": 58,
                    "time": 16.859204999999996,
                    "velocity": 0.2677165354330709,
                    "duration": 0.37464900000000156
                },
                {
                    "name": "D#3",
                    "midi": 51,
                    "time": 18.357801,
                    "velocity": 0.1968503937007874,
                    "duration": 0.37464900000000156
                },
                {
                    "name": "G3",
                    "midi": 55,
                    "time": 18.357801,
                    "velocity": 0.1968503937007874,
                    "duration": 0.37464900000000156
                },
                {
                    "name": "A#3",
                    "midi": 58,
                    "time": 18.357801,
                    "velocity": 0.23622047244094488,
                    "duration": 0.37464900000000156
                },
                {
                    "name": "D3",
                    "midi": 50,
                    "time": 19.481748,
                    "velocity": 0.1968503937007874,
                    "duration": 0.37464900000000156
                },
                {
                    "name": "F3",
                    "midi": 53,
                    "time": 19.481748,
                    "velocity": 0.1968503937007874,
                    "duration": 0.37464900000000156
                },
                {
                    "name": "A#3",
                    "midi": 58,
                    "time": 19.481748,
                    "velocity": 0.23622047244094488,
                    "duration": 0.37464900000000156
                },
                {
                    "name": "F3",
                    "midi": 53,
                    "time": 20.231046000000003,
                    "velocity": 0.2283464566929134,
                    "duration": 1.1239470000000047
                },
                {
                    "name": "A3",
                    "midi": 57,
                    "time": 20.231046000000003,
                    "velocity": 0.2677165354330709,
                    "duration": 0.37464900000000156
                },
                {
                    "name": "C4",
                    "midi": 60,
                    "time": 20.605695000000004,
                    "velocity": 0.2440944881889764,
                    "duration": 0.37464900000000156
                },
                {
                    "name": "D#4",
                    "midi": 63,
                    "time": 20.980344000000006,
                    "velocity": 0.2283464566929134,
                    "duration": 0.37464900000000156
                },
                {
                    "name": "D4",
                    "midi": 62,
                    "time": 21.354993000000007,
                    "velocity": 0.2677165354330709,
                    "duration": 0.37464900000000156
                },
                {
                    "name": "A#3",
                    "midi": 58,
                    "time": 21.354993000000007,
                    "velocity": 0.2204724409448819,
                    "duration": 0.37464900000000156
                },
                {
                    "name": "G3",
                    "midi": 55,
                    "time": 22.47894000000001,
                    "velocity": 0.5748031496062992,
                    "duration": 0.09366225000000128
                },
                {
                    "name": "G2",
                    "midi": 43,
                    "time": 22.85358900000001,
                    "velocity": 0.5196850393700787,
                    "duration": 0.09366225000000128
                },
                {
                    "name": "D3",
                    "midi": 50,
                    "time": 23.60288700000001,
                    "velocity": 0.5748031496062992,
                    "duration": 0.09366225000000128
                },
                {
                    "name": "D2",
                    "midi": 38,
                    "time": 23.97753600000001,
                    "velocity": 0.5196850393700787,
                    "duration": 0.09366225000000128
                },
                {
                    "name": "D#3",
                    "midi": 51,
                    "time": 24.72683400000001,
                    "velocity": 0.15748031496062992,
                    "duration": 1.123946999999994
                },
                {
                    "name": "G3",
                    "midi": 55,
                    "time": 24.72683400000001,
                    "velocity": 0.25984251968503935,
                    "duration": 0.187324499999999
                },
                {
                    "name": "A#3",
                    "midi": 58,
                    "time": 24.91415850000001,
                    "velocity": 0.18110236220472442,
                    "duration": 0.187324499999999
                },
                {
                    "name": "G3",
                    "midi": 55,
                    "time": 25.10148300000001,
                    "velocity": 0.2125984251968504,
                    "duration": 0.187324499999999
                },
                {
                    "name": "A#3",
                    "midi": 58,
                    "time": 25.288807500000008,
                    "velocity": 0.1732283464566929,
                    "duration": 0.187324499999999
                },
                {
                    "name": "G3",
                    "midi": 55,
                    "time": 25.476132000000007,
                    "velocity": 0.2047244094488189,
                    "duration": 0.187324499999999
                },
                {
                    "name": "A#3",
                    "midi": 58,
                    "time": 25.663456500000006,
                    "velocity": 0.1732283464566929,
                    "duration": 0.187324499999999
                },
                {
                    "name": "D3",
                    "midi": 50,
                    "time": 25.850781000000005,
                    "velocity": 0.15748031496062992,
                    "duration": 1.123946999999994
                },
                {
                    "name": "G#3",
                    "midi": 56,
                    "time": 25.850781000000005,
                    "velocity": 0.28346456692913385,
                    "duration": 0.187324499999999
                },
                {
                    "name": "A#3",
                    "midi": 58,
                    "time": 26.038105500000004,
                    "velocity": 0.18110236220472442,
                    "duration": 0.187324499999999
                },
                {
                    "name": "G#3",
                    "midi": 56,
                    "time": 26.225430000000003,
                    "velocity": 0.2125984251968504,
                    "duration": 0.187324499999999
                },
                {
                    "name": "A#3",
                    "midi": 58,
                    "time": 26.412754500000002,
                    "velocity": 0.18110236220472442,
                    "duration": 0.187324499999999
                },
                {
                    "name": "G#3",
                    "midi": 56,
                    "time": 26.600079,
                    "velocity": 0.2125984251968504,
                    "duration": 0.187324499999999
                },
                {
                    "name": "A#3",
                    "midi": 58,
                    "time": 26.7874035,
                    "velocity": 0.1889763779527559,
                    "duration": 0.187324499999999
                },
                {
                    "name": "D#3",
                    "midi": 51,
                    "time": 26.974728,
                    "velocity": 0.15748031496062992,
                    "duration": 1.123946999999994
                },
                {
                    "name": "G3",
                    "midi": 55,
                    "time": 26.974728,
                    "velocity": 0.25984251968503935,
                    "duration": 0.187324499999999
                },
                {
                    "name": "A#3",
                    "midi": 58,
                    "time": 27.162052499999998,
                    "velocity": 0.18110236220472442,
                    "duration": 0.187324499999999
                },
                {
                    "name": "G3",
                    "midi": 55,
                    "time": 27.349376999999997,
                    "velocity": 0.2125984251968504,
                    "duration": 0.187324499999999
                },
                {
                    "name": "A#3",
                    "midi": 58,
                    "time": 27.536701499999996,
                    "velocity": 0.18110236220472442,
                    "duration": 0.187324499999999
                },
                {
                    "name": "G3",
                    "midi": 55,
                    "time": 27.724025999999995,
                    "velocity": 0.2125984251968504,
                    "duration": 0.187324499999999
                },
                {
                    "name": "A#3",
                    "midi": 58,
                    "time": 27.911350499999994,
                    "velocity": 0.1968503937007874,
                    "duration": 0.187324499999999
                },
                {
                    "name": "D3",
                    "midi": 50,
                    "time": 28.098674999999993,
                    "velocity": 0.15748031496062992,
                    "duration": 1.123946999999994
                },
                {
                    "name": "G#3",
                    "midi": 56,
                    "time": 28.098674999999993,
                    "velocity": 0.25984251968503935,
                    "duration": 0.187324499999999
                },
                {
                    "name": "A#3",
                    "midi": 58,
                    "time": 28.285999499999992,
                    "velocity": 0.2125984251968504,
                    "duration": 0.187324499999999
                },
                {
                    "name": "G#3",
                    "midi": 56,
                    "time": 28.47332399999999,
                    "velocity": 0.2125984251968504,
                    "duration": 0.187324499999999
                },
                {
                    "name": "A#3",
                    "midi": 58,
                    "time": 28.66064849999999,
                    "velocity": 0.1889763779527559,
                    "duration": 0.187324499999999
                },
                {
                    "name": "G#3",
                    "midi": 56,
                    "time": 28.84797299999999,
                    "velocity": 0.2125984251968504,
                    "duration": 0.187324499999999
                },
                {
                    "name": "A#3",
                    "midi": 58,
                    "time": 29.035297499999988,
                    "velocity": 0.18110236220472442,
                    "duration": 0.187324499999999
                },
                {
                    "name": "D#3",
                    "midi": 51,
                    "time": 29.222621999999987,
                    "velocity": 0.16535433070866143,
                    "duration": 1.123946999999994
                },
                {
                    "name": "G3",
                    "midi": 55,
                    "time": 29.222621999999987,
                    "velocity": 0.2755905511811024,
                    "duration": 0.187324499999999
                },
                {
                    "name": "A#3",
                    "midi": 58,
                    "time": 29.409946499999986,
                    "velocity": 0.1889763779527559,
                    "duration": 0.187324499999999
                },
                {
                    "name": "G3",
                    "midi": 55,
                    "time": 29.597270999999985,
                    "velocity": 0.2204724409448819,
                    "duration": 0.187324499999999
                },
                {
                    "name": "A#3",
                    "midi": 58,
                    "time": 29.784595499999984,
                    "velocity": 0.18110236220472442,
                    "duration": 0.187324499999999
                },
                {
                    "name": "G3",
                    "midi": 55,
                    "time": 29.971919999999983,
                    "velocity": 0.2125984251968504,
                    "duration": 0.187324499999999
                },
                {
                    "name": "A#3",
                    "midi": 58,
                    "time": 30.159244499999982,
                    "velocity": 0.18110236220472442,
                    "duration": 0.187324499999999
                },
                {
                    "name": "D3",
                    "midi": 50,
                    "time": 30.34656899999998,
                    "velocity": 0.16535433070866143,
                    "duration": 1.123946999999994
                },
                {
                    "name": "F3",
                    "midi": 53,
                    "time": 30.34656899999998,
                    "velocity": 0.2992125984251969,
                    "duration": 0.187324499999999
                },
                {
                    "name": "G#3",
                    "midi": 56,
                    "time": 30.53389349999998,
                    "velocity": 0.1889763779527559,
                    "duration": 0.187324499999999
                },
                {
                    "name": "F3",
                    "midi": 53,
                    "time": 30.72121799999998,
                    "velocity": 0.25196850393700787,
                    "duration": 0.187324499999999
                },
                {
                    "name": "G#3",
                    "midi": 56,
                    "time": 30.908542499999978,
                    "velocity": 0.2204724409448819,
                    "duration": 0.187324499999999
                },
                {
                    "name": "F3",
                    "midi": 53,
                    "time": 31.095866999999977,
                    "velocity": 0.25196850393700787,
                    "duration": 0.187324499999999
                },
                {
                    "name": "G#3",
                    "midi": 56,
                    "time": 31.283191499999976,
                    "velocity": 0.2125984251968504,
                    "duration": 0.187324499999999
                },
                {
                    "name": "D#3",
                    "midi": 51,
                    "time": 31.470515999999975,
                    "velocity": 0.18110236220472442,
                    "duration": 1.1239470000000082
                },
                {
                    "name": "G3",
                    "midi": 55,
                    "time": 31.470515999999975,
                    "velocity": 0.29133858267716534,
                    "duration": 0.187324499999999
                },
                {
                    "name": "C4",
                    "midi": 60,
                    "time": 31.657840499999974,
                    "velocity": 0.25196850393700787,
                    "duration": 0.187324499999999
                },
                {
                    "name": "G3",
                    "midi": 55,
                    "time": 31.845164999999973,
                    "velocity": 0.2677165354330709,
                    "duration": 0.18732450000000256
                },
                {
                    "name": "C4",
                    "midi": 60,
                    "time": 32.032489499999976,
                    "velocity": 0.2283464566929134,
                    "duration": 0.18732450000000256
                },
                {
                    "name": "G3",
                    "midi": 55,
                    "time": 32.21981399999998,
                    "velocity": 0.23622047244094488,
                    "duration": 0.18732450000000256
                },
                {
                    "name": "C4",
                    "midi": 60,
                    "time": 32.40713849999998,
                    "velocity": 0.2204724409448819,
                    "duration": 0.18732450000000256
                },
                {
                    "name": "D#3",
                    "midi": 51,
                    "time": 32.59446299999998,
                    "velocity": 0.18110236220472442,
                    "duration": 1.1239470000000154
                },
                {
                    "name": "F3",
                    "midi": 53,
                    "time": 32.59446299999998,
                    "velocity": 0.29133858267716534,
                    "duration": 0.18732450000000256
                },
                {
                    "name": "C4",
                    "midi": 60,
                    "time": 32.781787499999986,
                    "velocity": 0.23622047244094488,
                    "duration": 0.18732450000000256
                },
                {
                    "name": "F3",
                    "midi": 53,
                    "time": 32.96911199999999,
                    "velocity": 0.23622047244094488,
                    "duration": 0.18732450000000256
                },
                {
                    "name": "C4",
                    "midi": 60,
                    "time": 33.15643649999999,
                    "velocity": 0.2125984251968504,
                    "duration": 0.1966907250000034
                },
                {
                    "name": "F3",
                    "midi": 53,
                    "time": 33.34376099999999,
                    "velocity": 0.23622047244094488,
                    "duration": 0.18732450000000256
                },
                {
                    "name": "C4",
                    "midi": 60,
                    "time": 33.531085499999996,
                    "velocity": 0.2047244094488189,
                    "duration": 0.18732450000000256
                },
                {
                    "name": "D3",
                    "midi": 50,
                    "time": 33.71841,
                    "velocity": 0.2125984251968504,
                    "duration": 1.1239470000000154
                },
                {
                    "name": "F3",
                    "midi": 53,
                    "time": 33.71841,
                    "velocity": 0.3464566929133858,
                    "duration": 0.18732450000000256
                },
                {
                    "name": "A#3",
                    "midi": 58,
                    "time": 33.9057345,
                    "velocity": 0.23622047244094488,
                    "duration": 0.18732450000000256
                },
                {
                    "name": "F3",
                    "midi": 53,
                    "time": 34.093059000000004,
                    "velocity": 0.28346456692913385,
                    "duration": 0.18732450000000256
                },
                {
                    "name": "A#3",
                    "midi": 58,
                    "time": 34.280383500000006,
                    "velocity": 0.23622047244094488,
                    "duration": 0.18732450000000256
                },
                {
                    "name": "F3",
                    "midi": 53,
                    "time": 34.46770800000001,
                    "velocity": 0.28346456692913385,
                    "duration": 0.18732450000000256
                },
                {
                    "name": "A#3",
                    "midi": 58,
                    "time": 34.65503250000001,
                    "velocity": 0.25984251968503935,
                    "duration": 0.18732450000000256
                },
                {
                    "name": "C3",
                    "midi": 48,
                    "time": 34.842357000000014,
                    "velocity": 0.2125984251968504,
                    "duration": 1.1239470000000154
                },
                {
                    "name": "G3",
                    "midi": 55,
                    "time": 34.842357000000014,
                    "velocity": 0.3464566929133858,
                    "duration": 0.18732450000000256
                },
                {
                    "name": "A#3",
                    "midi": 58,
                    "time": 35.02968150000002,
                    "velocity": 0.28346456692913385,
                    "duration": 0.18732450000000256
                },
                {
                    "name": "G3",
                    "midi": 55,
                    "time": 35.21700600000002,
                    "velocity": 0.28346456692913385,
                    "duration": 0.18732450000000256
                },
                {
                    "name": "A#3",
                    "midi": 58,
                    "time": 35.40433050000002,
                    "velocity": 0.2440944881889764,
                    "duration": 0.1966907250000034
                },
                {
                    "name": "G3",
                    "midi": 55,
                    "time": 35.591655000000024,
                    "velocity": 0.28346456692913385,
                    "duration": 0.18732450000000256
                },
                {
                    "name": "A#3",
                    "midi": 58,
                    "time": 35.77897950000003,
                    "velocity": 0.23622047244094488,
                    "duration": 0.18732450000000256
                },
                {
                    "name": "D3",
                    "midi": 50,
                    "time": 35.96630400000003,
                    "velocity": 0.2125984251968504,
                    "duration": 1.1239470000000154
                },
                {
                    "name": "F3",
                    "midi": 53,
                    "time": 35.96630400000003,
                    "velocity": 0.3464566929133858,
                    "duration": 0.18732450000000256
                },
                {
                    "name": "A3",
                    "midi": 57,
                    "time": 36.15362850000003,
                    "velocity": 0.2204724409448819,
                    "duration": 0.18732450000000256
                },
                {
                    "name": "F3",
                    "midi": 53,
                    "time": 36.340953000000034,
                    "velocity": 0.28346456692913385,
                    "duration": 0.18732450000000256
                },
                {
                    "name": "A3",
                    "midi": 57,
                    "time": 36.52827750000004,
                    "velocity": 0.2204724409448819,
                    "duration": 0.18732450000000256
                },
                {
                    "name": "F3",
                    "midi": 53,
                    "time": 36.71560200000004,
                    "velocity": 0.2755905511811024,
                    "duration": 0.18732450000000256
                },
                {
                    "name": "A3",
                    "midi": 57,
                    "time": 36.90292650000004,
                    "velocity": 0.2125984251968504,
                    "duration": 0.18732450000000256
                },
                {
                    "name": "G3",
                    "midi": 55,
                    "time": 37.090251000000045,
                    "velocity": 0.29133858267716534,
                    "duration": 1.1239470000000154
                },
                {
                    "name": "D4",
                    "midi": 62,
                    "time": 37.090251000000045,
                    "velocity": 0.29133858267716534,
                    "duration": 0.18732450000000256
                },
                {
                    "name": "F4",
                    "midi": 65,
                    "time": 37.27757550000005,
                    "velocity": 0.28346456692913385,
                    "duration": 0.18732450000000256
                },
                {
                    "name": "D4",
                    "midi": 62,
                    "time": 37.46490000000005,
                    "velocity": 0.28346456692913385,
                    "duration": 0.18732450000000256
                },
                {
                    "name": "F4",
                    "midi": 65,
                    "time": 37.65222450000005,
                    "velocity": 0.23622047244094488,
                    "duration": 0.1966907250000034
                },
                {
                    "name": "D4",
                    "midi": 62,
                    "time": 37.839549000000055,
                    "velocity": 0.28346456692913385,
                    "duration": 0.18732450000000256
                },
                {
                    "name": "F4",
                    "midi": 65,
                    "time": 38.02687350000006,
                    "velocity": 0.23622047244094488,
                    "duration": 0.18732450000000256
                },
                {
                    "name": "C4",
                    "midi": 60,
                    "time": 38.21419800000006,
                    "velocity": 0.3464566929133858,
                    "duration": 0.374648999999998
                },
                {
                    "name": "E4",
                    "midi": 64,
                    "time": 38.21419800000006,
                    "velocity": 0.3464566929133858,
                    "duration": 0.374648999999998
                },
                {
                    "name": "A#4",
                    "midi": 70,
                    "time": 38.963496000000056,
                    "velocity": 0.3937007874015748,
                    "duration": 0.18732450000000256
                },
                {
                    "name": "A4",
                    "midi": 69,
                    "time": 39.33814500000006,
                    "velocity": 0.4330708661417323,
                    "duration": 0.18732450000000256
                },
                {
                    "name": "E4",
                    "midi": 64,
                    "time": 39.712794000000066,
                    "velocity": 0.4645669291338583,
                    "duration": 0.18732450000000256
                },
                {
                    "name": "F4",
                    "midi": 65,
                    "time": 40.08744300000007,
                    "velocity": 0.44881889763779526,
                    "duration": 0.18732450000000256
                },
                {
                    "name": "C4",
                    "midi": 60,
                    "time": 40.46209200000008,
                    "velocity": 0.4881889763779528,
                    "duration": 0.374648999999998
                },
                {
                    "name": "A#4",
                    "midi": 70,
                    "time": 41.21139000000007,
                    "velocity": 0.3937007874015748,
                    "duration": 0.18732450000000256
                },
                {
                    "name": "A4",
                    "midi": 69,
                    "time": 41.58603900000008,
                    "velocity": 0.4566929133858268,
                    "duration": 0.18732450000000256
                },
                {
                    "name": "E4",
                    "midi": 64,
                    "time": 41.96068800000008,
                    "velocity": 0.4881889763779528,
                    "duration": 0.18732450000000256
                },
                {
                    "name": "F4",
                    "midi": 65,
                    "time": 42.33533700000009,
                    "velocity": 0.4409448818897638,
                    "duration": 0.18732450000000256
                },
                {
                    "name": "C4",
                    "midi": 60,
                    "time": 42.70998600000009,
                    "velocity": 0.48031496062992124,
                    "duration": 0.374648999999998
                },
                {
                    "name": "C4",
                    "midi": 60,
                    "time": 43.55294625000009,
                    "velocity": 0.3700787401574803,
                    "duration": 0.09366225000000128
                },
                {
                    "name": "G3",
                    "midi": 55,
                    "time": 43.64660850000009,
                    "velocity": 0.4251968503937008,
                    "duration": 0.09366225000000128
                },
                {
                    "name": "E3",
                    "midi": 52,
                    "time": 43.74027075000009,
                    "velocity": 0.3700787401574803,
                    "duration": 0.09366225000000128
                },
                {
                    "name": "C3",
                    "midi": 48,
                    "time": 43.833933000000094,
                    "velocity": 0.5433070866141733,
                    "duration": 0.09366225000000128
                },
                {
                    "name": "C2",
                    "midi": 36,
                    "time": 44.20858200000009,
                    "velocity": 0.4645669291338583,
                    "duration": 0.374648999999998
                },
                {
                    "name": "F3",
                    "midi": 53,
                    "time": 44.95788000000009,
                    "velocity": 0.2677165354330709,
                    "duration": 0.7649083750000045
                },
                {
                    "name": "C3",
                    "midi": 48,
                    "time": 45.70717800000009,
                    "velocity": 0.23622047244094488,
                    "duration": 0.374648999999998
                },
                {
                    "name": "A2",
                    "midi": 45,
                    "time": 46.08182700000009,
                    "velocity": 0.2677165354330709,
                    "duration": 0.7649083750000045
                },
                {
                    "name": "C3",
                    "midi": 48,
                    "time": 46.83112500000009,
                    "velocity": 0.25196850393700787,
                    "duration": 0.374648999999998
                },
                {
                    "name": "F3",
                    "midi": 53,
                    "time": 47.20577400000009,
                    "velocity": 0.2677165354330709,
                    "duration": 0.7649083750000045
                },
                {
                    "name": "A3",
                    "midi": 57,
                    "time": 47.955072000000094,
                    "velocity": 0.28346456692913385,
                    "duration": 0.374648999999998
                },
                {
                    "name": "C4",
                    "midi": 60,
                    "time": 48.32972100000009,
                    "velocity": 0.2992125984251969,
                    "duration": 0.374648999999998
                },
                {
                    "name": "A#3",
                    "midi": 58,
                    "time": 49.45366800000009,
                    "velocity": 0.2677165354330709,
                    "duration": 0.7649083750000045
                },
                {
                    "name": "G3",
                    "midi": 55,
                    "time": 50.202966000000096,
                    "velocity": 0.23622047244094488,
                    "duration": 0.374648999999998
                },
                {
                    "name": "E3",
                    "midi": 52,
                    "time": 50.577615000000094,
                    "velocity": 0.2677165354330709,
                    "duration": 0.7649083750000045
                },
                {
                    "name": "G3",
                    "midi": 55,
                    "time": 51.3269130000001,
                    "velocity": 0.25196850393700787,
                    "duration": 0.374648999999998
                },
                {
                    "name": "A#3",
                    "midi": 58,
                    "time": 51.701562000000095,
                    "velocity": 0.2677165354330709,
                    "duration": 0.7649083750000045
                },
                {
                    "name": "E4",
                    "midi": 64,
                    "time": 52.4508600000001,
                    "velocity": 0.28346456692913385,
                    "duration": 0.374648999999998
                },
                {
                    "name": "G4",
                    "midi": 67,
                    "time": 52.825509000000096,
                    "velocity": 0.2992125984251969,
                    "duration": 0.374648999999998
                },
                {
                    "name": "A4",
                    "midi": 69,
                    "time": 53.9494560000001,
                    "velocity": 0.2755905511811024,
                    "duration": 0.18732450000000256
                },
                {
                    "name": "C5",
                    "midi": 72,
                    "time": 54.1367805000001,
                    "velocity": 0.2204724409448819,
                    "duration": 0.18732450000000256
                },
                {
                    "name": "A4",
                    "midi": 69,
                    "time": 54.3241050000001,
                    "velocity": 0.2755905511811024,
                    "duration": 0.18732450000000256
                },
                {
                    "name": "C5",
                    "midi": 72,
                    "time": 54.511429500000105,
                    "velocity": 0.1968503937007874,
                    "duration": 0.18732450000000256
                },
                {
                    "name": "A4",
                    "midi": 69,
                    "time": 54.69875400000011,
                    "velocity": 0.25196850393700787,
                    "duration": 0.18732450000000256
                },
                {
                    "name": "C5",
                    "midi": 72,
                    "time": 54.88607850000011,
                    "velocity": 0.1889763779527559,
                    "duration": 0.18732450000000256
                },
                {
                    "name": "A#4",
                    "midi": 70,
                    "time": 55.07340300000011,
                    "velocity": 0.2755905511811024,
                    "duration": 0.18732450000000256
                },
                {
                    "name": "C5",
                    "midi": 72,
                    "time": 55.260727500000115,
                    "velocity": 0.2440944881889764,
                    "duration": 0.18732450000000256
                },
                {
                    "name": "A#4",
                    "midi": 70,
                    "time": 55.44805200000012,
                    "velocity": 0.2755905511811024,
                    "duration": 0.18732450000000256
                },
                {
                    "name": "C5",
                    "midi": 72,
                    "time": 55.63537650000012,
                    "velocity": 0.2047244094488189,
                    "duration": 0.18732450000000256
                },
                {
                    "name": "A#4",
                    "midi": 70,
                    "time": 55.82270100000012,
                    "velocity": 0.25984251968503935,
                    "duration": 0.18732450000000256
                },
                {
                    "name": "C5",
                    "midi": 72,
                    "time": 56.010025500000125,
                    "velocity": 0.2283464566929134,
                    "duration": 0.18732450000000256
                },
                {
                    "name": "A4",
                    "midi": 69,
                    "time": 56.19735000000013,
                    "velocity": 0.2755905511811024,
                    "duration": 0.18732450000000256
                },
                {
                    "name": "C5",
                    "midi": 72,
                    "time": 56.38467450000013,
                    "velocity": 0.23622047244094488,
                    "duration": 0.18732450000000256
                },
                {
                    "name": "A4",
                    "midi": 69,
                    "time": 56.57199900000013,
                    "velocity": 0.25196850393700787,
                    "duration": 0.18732450000000256
                },
                {
                    "name": "C5",
                    "midi": 72,
                    "time": 56.759323500000136,
                    "velocity": 0.1889763779527559,
                    "duration": 0.18732450000000256
                },
                {
                    "name": "A4",
                    "midi": 69,
                    "time": 56.94664800000014,
                    "velocity": 0.25196850393700787,
                    "duration": 0.18732450000000256
                },
                {
                    "name": "C5",
                    "midi": 72,
                    "time": 57.13397250000014,
                    "velocity": 0.1968503937007874,
                    "duration": 0.18732450000000256
                },
                {
                    "name": "A#4",
                    "midi": 70,
                    "time": 57.32129700000014,
                    "velocity": 0.2755905511811024,
                    "duration": 0.18732450000000256
                },
                {
                    "name": "C5",
                    "midi": 72,
                    "time": 57.508621500000146,
                    "velocity": 0.2440944881889764,
                    "duration": 0.18732450000000256
                },
                {
                    "name": "A#4",
                    "midi": 70,
                    "time": 57.69594600000015,
                    "velocity": 0.2755905511811024,
                    "duration": 0.18732450000000256
                },
                {
                    "name": "C5",
                    "midi": 72,
                    "time": 57.88327050000015,
                    "velocity": 0.2047244094488189,
                    "duration": 0.18732450000000256
                },
                {
                    "name": "A#4",
                    "midi": 70,
                    "time": 58.070595000000154,
                    "velocity": 0.25984251968503935,
                    "duration": 0.18732450000000256
                },
                {
                    "name": "C5",
                    "midi": 72,
                    "time": 58.257919500000156,
                    "velocity": 0.2283464566929134,
                    "duration": 0.18732450000000256
                },
                {
                    "name": "A4",
                    "midi": 69,
                    "time": 58.44524400000016,
                    "velocity": 0.2755905511811024,
                    "duration": 0.18732450000000256
                },
                {
                    "name": "C5",
                    "midi": 72,
                    "time": 58.63256850000016,
                    "velocity": 0.23622047244094488,
                    "duration": 0.18732450000000256
                },
                {
                    "name": "A4",
                    "midi": 69,
                    "time": 58.819893000000164,
                    "velocity": 0.25196850393700787,
                    "duration": 0.18732450000000256
                },
                {
                    "name": "C5",
                    "midi": 72,
                    "time": 59.007217500000166,
                    "velocity": 0.2204724409448819,
                    "duration": 0.18732450000000256
                },
                {
                    "name": "A4",
                    "midi": 69,
                    "time": 59.19454200000017,
                    "velocity": 0.2992125984251969,
                    "duration": 0.18732450000000256
                },
                {
                    "name": "C5",
                    "midi": 72,
                    "time": 59.38186650000017,
                    "velocity": 0.2440944881889764,
                    "duration": 0.18732450000000256
                },
                {
                    "name": "D4",
                    "midi": 62,
                    "time": 59.569191000000174,
                    "velocity": 0.31496062992125984,
                    "duration": 1.1239470000000154
                },
                {
                    "name": "A4",
                    "midi": 69,
                    "time": 59.569191000000174,
                    "velocity": 0.31496062992125984,
                    "duration": 0.18732450000000256
                },
                {
                    "name": "C5",
                    "midi": 72,
                    "time": 59.75651550000018,
                    "velocity": 0.2677165354330709,
                    "duration": 0.18732450000000256
                },
                {
                    "name": "A4",
                    "midi": 69,
                    "time": 59.94384000000018,
                    "velocity": 0.2992125984251969,
                    "duration": 0.18732450000000256
                },
                {
                    "name": "C5",
                    "midi": 72,
                    "time": 60.13116450000018,
                    "velocity": 0.25196850393700787,
                    "duration": 0.18732450000000256
                },
                {
                    "name": "A4",
                    "midi": 69,
                    "time": 60.318489000000184,
                    "velocity": 0.30708661417322836,
                    "duration": 0.18732450000000256
                },
                {
                    "name": "C5",
                    "midi": 72,
                    "time": 60.50581350000019,
                    "velocity": 0.25196850393700787,
                    "duration": 0.18732450000000256
                },
                {
                    "name": "G4",
                    "midi": 67,
                    "time": 60.69313800000019,
                    "velocity": 0.30708661417322836,
                    "duration": 0.374648999999998
                },
                {
                    "name": "A#4",
                    "midi": 70,
                    "time": 60.69313800000019,
                    "velocity": 0.30708661417322836,
                    "duration": 0.374648999999998
                },
                {
                    "name": "C5",
                    "midi": 72,
                    "time": 61.06778700000019,
                    "velocity": 0.2755905511811024,
                    "duration": 0.749297999999996
                },
                {
                    "name": "E4",
                    "midi": 64,
                    "time": 61.06778700000019,
                    "velocity": 0.2755905511811024,
                    "duration": 0.374648999999998
                },
                {
                    "name": "F4",
                    "midi": 65,
                    "time": 61.442436000000185,
                    "velocity": 0.2755905511811024,
                    "duration": 0.374648999999998
                },
                {
                    "name": "A#3",
                    "midi": 58,
                    "time": 61.81708500000018,
                    "velocity": 0.33858267716535434,
                    "duration": 0.374648999999998
                },
                {
                    "name": "A#4",
                    "midi": 70,
                    "time": 61.81708500000018,
                    "velocity": 0.33858267716535434,
                    "duration": 0.374648999999998
                },
                {
                    "name": "C4",
                    "midi": 60,
                    "time": 62.19173400000018,
                    "velocity": 0.31496062992125984,
                    "duration": 0.749297999999996
                },
                {
                    "name": "A4",
                    "midi": 69,
                    "time": 62.19173400000018,
                    "velocity": 0.31496062992125984,
                    "duration": 0.374648999999998
                },
                {
                    "name": "G4",
                    "midi": 67,
                    "time": 62.56638300000018,
                    "velocity": 0.31496062992125984,
                    "duration": 0.374648999999998
                },
                {
                    "name": "F4",
                    "midi": 65,
                    "time": 62.94103200000018,
                    "velocity": 0.31496062992125984,
                    "duration": 0.374648999999998
                },
                {
                    "name": "A3",
                    "midi": 57,
                    "time": 63.50300550000018,
                    "velocity": 0.3858267716535433,
                    "duration": 0.18732450000000256
                },
                {
                    "name": "G3",
                    "midi": 55,
                    "time": 63.69033000000018,
                    "velocity": 0.4330708661417323,
                    "duration": 0.18732450000000256
                },
                {
                    "name": "F3",
                    "midi": 53,
                    "time": 63.87765450000018,
                    "velocity": 0.3779527559055118,
                    "duration": 0.18732449999999545
                },
                {
                    "name": "E3",
                    "midi": 52,
                    "time": 64.06497900000018,
                    "velocity": 0.3779527559055118,
                    "duration": 0.3746490000000051
                },
                {
                    "name": "D4",
                    "midi": 62,
                    "time": 64.62695250000019,
                    "velocity": 0.3543307086614173,
                    "duration": 0.18732450000000256
                },
                {
                    "name": "C4",
                    "midi": 60,
                    "time": 64.81427700000019,
                    "velocity": 0.3937007874015748,
                    "duration": 0.18732450000000256
                },
                {
                    "name": "E3",
                    "midi": 52,
                    "time": 65.00160150000019,
                    "velocity": 0.3543307086614173,
                    "duration": 0.18732450000000256
                },
                {
                    "name": "F3",
                    "midi": 53,
                    "time": 65.1889260000002,
                    "velocity": 0.31496062992125984,
                    "duration": 0.3746490000000051
                },
                {
                    "name": "A3",
                    "midi": 57,
                    "time": 65.7508995000002,
                    "velocity": 0.3937007874015748,
                    "duration": 0.18732450000000256
                },
                {
                    "name": "G3",
                    "midi": 55,
                    "time": 65.9382240000002,
                    "velocity": 0.4330708661417323,
                    "duration": 0.18732450000000256
                },
                {
                    "name": "F3",
                    "midi": 53,
                    "time": 66.1255485000002,
                    "velocity": 0.3700787401574803,
                    "duration": 0.18732450000000256
                },
                {
                    "name": "E3",
                    "midi": 52,
                    "time": 66.31287300000021,
                    "velocity": 0.3700787401574803,
                    "duration": 0.3746490000000051
                },
                {
                    "name": "D4",
                    "midi": 62,
                    "time": 66.87484650000022,
                    "velocity": 0.3543307086614173,
                    "duration": 0.18732450000000256
                },
                {
                    "name": "C4",
                    "midi": 60,
                    "time": 67.06217100000022,
                    "velocity": 0.3937007874015748,
                    "duration": 0.18732450000000256
                },
                {
                    "name": "E3",
                    "midi": 52,
                    "time": 67.24949550000022,
                    "velocity": 0.3543307086614173,
                    "duration": 0.18732450000000256
                },
                {
                    "name": "F3",
                    "midi": 53,
                    "time": 67.43682000000022,
                    "velocity": 0.31496062992125984,
                    "duration": 0.3746490000000051
                },
                {
                    "name": "C4",
                    "midi": 60,
                    "time": 67.99879350000023,
                    "velocity": 0.3700787401574803,
                    "duration": 0.18732450000000256
                },
                {
                    "name": "A3",
                    "midi": 57,
                    "time": 68.18611800000023,
                    "velocity": 0.4094488188976378,
                    "duration": 0.18732450000000256
                },
                {
                    "name": "G3",
                    "midi": 55,
                    "time": 68.37344250000024,
                    "velocity": 0.3700787401574803,
                    "duration": 0.18732450000000256
                },
                {
                    "name": "F#3",
                    "midi": 54,
                    "time": 68.56076700000024,
                    "velocity": 0.3464566929133858,
                    "duration": 0.3746490000000051
                },
                {
                    "name": "D#4",
                    "midi": 63,
                    "time": 69.12274050000025,
                    "velocity": 0.3543307086614173,
                    "duration": 0.18732450000000256
                },
                {
                    "name": "D4",
                    "midi": 62,
                    "time": 69.31006500000025,
                    "velocity": 0.3937007874015748,
                    "duration": 0.18732450000000256
                },
                {
                    "name": "F#3",
                    "midi": 54,
                    "time": 69.49738950000025,
                    "velocity": 0.3543307086614173,
                    "duration": 0.18732450000000256
                },
                {
                    "name": "G3",
                    "midi": 55,
                    "time": 69.68471400000026,
                    "velocity": 0.33070866141732286,
                    "duration": 0.09366224999999417
                },
                {
                    "name": "D4",
                    "midi": 62,
                    "time": 69.77837625000025,
                    "velocity": 0.25984251968503935,
                    "duration": 0.09366224999999417
                },
                {
                    "name": "B3",
                    "midi": 59,
                    "time": 69.87203850000024,
                    "velocity": 0.28346456692913385,
                    "duration": 0.09366224999999417
                },
                {
                    "name": "D4",
                    "midi": 62,
                    "time": 69.96570075000024,
                    "velocity": 0.25984251968503935,
                    "duration": 0.09366224999999417
                },
                {
                    "name": "E3",
                    "midi": 52,
                    "time": 70.05936300000023,
                    "velocity": 0.2992125984251969,
                    "duration": 0.09366224999999417
                },
                {
                    "name": "C#4",
                    "midi": 61,
                    "time": 70.15302525000023,
                    "velocity": 0.25984251968503935,
                    "duration": 0.09366224999999417
                },
                {
                    "name": "G3",
                    "midi": 55,
                    "time": 70.24668750000022,
                    "velocity": 0.28346456692913385,
                    "duration": 0.09366224999999417
                },
                {
                    "name": "C#4",
                    "midi": 61,
                    "time": 70.34034975000021,
                    "velocity": 0.25984251968503935,
                    "duration": 0.09366224999999417
                },
                {
                    "name": "F3",
                    "midi": 53,
                    "time": 70.43401200000021,
                    "velocity": 0.30708661417322836,
                    "duration": 0.09366224999999417
                },
                {
                    "name": "C4",
                    "midi": 60,
                    "time": 70.5276742500002,
                    "velocity": 0.25984251968503935,
                    "duration": 0.09366224999999417
                },
                {
                    "name": "A3",
                    "midi": 57,
                    "time": 70.6213365000002,
                    "velocity": 0.29133858267716534,
                    "duration": 0.09366224999999417
                },
                {
                    "name": "C4",
                    "midi": 60,
                    "time": 70.71499875000019,
                    "velocity": 0.29133858267716534,
                    "duration": 0.09366224999999417
                },
                {
                    "name": "A#2",
                    "midi": 46,
                    "time": 70.80866100000019,
                    "velocity": 0.2440944881889764,
                    "duration": 0.3746490000000051
                },
                {
                    "name": "A#3",
                    "midi": 58,
                    "time": 70.80866100000019,
                    "velocity": 0.29133858267716534,
                    "duration": 0.3746490000000051
                },
                {
                    "name": "C3",
                    "midi": 48,
                    "time": 71.18331000000019,
                    "velocity": 0.2440944881889764,
                    "duration": 0.3746490000000051
                },
                {
                    "name": "A3",
                    "midi": 57,
                    "time": 71.18331000000019,
                    "velocity": 0.29133858267716534,
                    "duration": 0.3746490000000051
                },
                {
                    "name": "A#2",
                    "midi": 46,
                    "time": 71.5579590000002,
                    "velocity": 0.2440944881889764,
                    "duration": 0.3746490000000051
                },
                {
                    "name": "G3",
                    "midi": 55,
                    "time": 71.5579590000002,
                    "velocity": 0.29133858267716534,
                    "duration": 0.3746490000000051
                },
                {
                    "name": "A2",
                    "midi": 45,
                    "time": 71.9326080000002,
                    "velocity": 0.2677165354330709,
                    "duration": 0.3746490000000051
                },
                {
                    "name": "F3",
                    "midi": 53,
                    "time": 71.9326080000002,
                    "velocity": 0.31496062992125984,
                    "duration": 0.3746490000000051
                },
                {
                    "name": "C4",
                    "midi": 60,
                    "time": 72.68190600000021,
                    "velocity": 0.29133858267716534,
                    "duration": 0.3746490000000051
                },
                {
                    "name": "A3",
                    "midi": 57,
                    "time": 72.68190600000021,
                    "velocity": 0.2440944881889764,
                    "duration": 0.3746490000000051
                },
                {
                    "name": "A#3",
                    "midi": 58,
                    "time": 73.05655500000022,
                    "velocity": 0.29133858267716534,
                    "duration": 0.3746490000000051
                },
                {
                    "name": "D4",
                    "midi": 62,
                    "time": 73.05655500000022,
                    "velocity": 0.3464566929133858,
                    "duration": 0.3746490000000051
                },
                {
                    "name": "D3",
                    "midi": 50,
                    "time": 73.80585300000023,
                    "velocity": 0.2440944881889764,
                    "duration": 0.3746490000000051
                },
                {
                    "name": "F3",
                    "midi": 53,
                    "time": 73.80585300000023,
                    "velocity": 0.2440944881889764,
                    "duration": 0.3746490000000051
                },
                {
                    "name": "G3",
                    "midi": 55,
                    "time": 73.80585300000023,
                    "velocity": 0.29133858267716534,
                    "duration": 0.3746490000000051
                },
                {
                    "name": "C3",
                    "midi": 48,
                    "time": 74.18050200000023,
                    "velocity": 0.3543307086614173,
                    "duration": 0.09366224999999417
                },
                {
                    "name": "A3",
                    "midi": 57,
                    "time": 74.27416425000023,
                    "velocity": 0.29133858267716534,
                    "duration": 0.09366224999999417
                },
                {
                    "name": "F3",
                    "midi": 53,
                    "time": 74.36782650000022,
                    "velocity": 0.31496062992125984,
                    "duration": 0.09366224999999417
                },
                {
                    "name": "A3",
                    "midi": 57,
                    "time": 74.46148875000021,
                    "velocity": 0.29133858267716534,
                    "duration": 0.09366224999999417
                },
                {
                    "name": "C3",
                    "midi": 48,
                    "time": 74.55515100000021,
                    "velocity": 0.3543307086614173,
                    "duration": 0.09366224999999417
                },
                {
                    "name": "A3",
                    "midi": 57,
                    "time": 74.6488132500002,
                    "velocity": 0.29133858267716534,
                    "duration": 0.09366224999999417
                },
                {
                    "name": "F3",
                    "midi": 53,
                    "time": 74.7424755000002,
                    "velocity": 0.31496062992125984,
                    "duration": 0.09366224999999417
                },
                {
                    "name": "A3",
                    "midi": 57,
                    "time": 74.83613775000019,
                    "velocity": 0.29133858267716534,
                    "duration": 0.09366224999999417
                },
                {
                    "name": "C3",
                    "midi": 48,
                    "time": 74.92980000000018,
                    "velocity": 0.3779527559055118,
                    "duration": 0.09366224999999417
                },
                {
                    "name": "A3",
                    "midi": 57,
                    "time": 75.02346225000018,
                    "velocity": 0.29133858267716534,
                    "duration": 0.09366224999999417
                },
                {
                    "name": "F3",
                    "midi": 53,
                    "time": 75.11712450000017,
                    "velocity": 0.3228346456692913,
                    "duration": 0.09366224999999417
                },
                {
                    "name": "A3",
                    "midi": 57,
                    "time": 75.21078675000017,
                    "velocity": 0.29133858267716534,
                    "duration": 0.09366224999999417
                },
                {
                    "name": "C3",
                    "midi": 48,
                    "time": 75.30444900000016,
                    "velocity": 0.3543307086614173,
                    "duration": 0.09366224999999417
                },
                {
                    "name": "A#3",
                    "midi": 58,
                    "time": 75.39811125000016,
                    "velocity": 0.29133858267716534,
                    "duration": 0.09366224999999417
                },
                {
                    "name": "E3",
                    "midi": 52,
                    "time": 75.49177350000015,
                    "velocity": 0.31496062992125984,
                    "duration": 0.09366224999999417
                },
                {
                    "name": "A#3",
                    "midi": 58,
                    "time": 75.58543575000014,
                    "velocity": 0.29133858267716534,
                    "duration": 0.09366224999999417
                },
                {
                    "name": "C3",
                    "midi": 48,
                    "time": 75.67909800000014,
                    "velocity": 0.3543307086614173,
                    "duration": 0.09366224999999417
                },
                {
                    "name": "A#3",
                    "midi": 58,
                    "time": 75.77276025000013,
                    "velocity": 0.29133858267716534,
                    "duration": 0.09366224999999417
                },
                {
                    "name": "E3",
                    "midi": 52,
                    "time": 75.86642250000013,
                    "velocity": 0.31496062992125984,
                    "duration": 0.09366224999999417
                },
                {
                    "name": "A#3",
                    "midi": 58,
                    "time": 75.96008475000012,
                    "velocity": 0.29133858267716534,
                    "duration": 0.09366224999999417
                },
                {
                    "name": "C3",
                    "midi": 48,
                    "time": 76.05374700000012,
                    "velocity": 0.3779527559055118,
                    "duration": 0.09366224999999417
                },
                {
                    "name": "A#3",
                    "midi": 58,
                    "time": 76.14740925000011,
                    "velocity": 0.29133858267716534,
                    "duration": 0.09366224999999417
                },
                {
                    "name": "E3",
                    "midi": 52,
                    "time": 76.2410715000001,
                    "velocity": 0.3228346456692913,
                    "duration": 0.09366224999999417
                },
                {
                    "name": "A#3",
                    "midi": 58,
                    "time": 76.3347337500001,
                    "velocity": 0.29133858267716534,
                    "duration": 0.09366224999999417
                },
                {
                    "name": "F3",
                    "midi": 53,
                    "time": 76.42839600000009,
                    "velocity": 0.3228346456692913,
                    "duration": 0.1966907249999963
                },
                {
                    "name": "A3",
                    "midi": 57,
                    "time": 76.6157205000001,
                    "velocity": 0.2204724409448819,
                    "duration": 0.19669072499998208
                },
                {
                    "name": "C4",
                    "midi": 60,
                    "time": 76.80304500000008,
                    "velocity": 0.2755905511811024,
                    "duration": 0.19669072499998208
                },
                {
                    "name": "F4",
                    "midi": 65,
                    "time": 76.99036950000007,
                    "velocity": 0.2677165354330709,
                    "duration": 0.19669072499998208
                },
                {
                    "name": "E4",
                    "midi": 64,
                    "time": 77.17769400000006,
                    "velocity": 0.25196850393700787,
                    "duration": 0.19669072499998208
                },
                {
                    "name": "D#4",
                    "midi": 63,
                    "time": 77.36501850000005,
                    "velocity": 0.23622047244094488,
                    "duration": 0.19669072499998208
                },
                {
                    "name": "D4",
                    "midi": 62,
                    "time": 77.55234300000004,
                    "velocity": 0.2204724409448819,
                    "duration": 0.18732449999998835
                },
                {
                    "name": "F4",
                    "midi": 65,
                    "time": 77.73966750000002,
                    "velocity": 0.16535433070866143,
                    "duration": 0.18732450000000256
                },
                {
                    "name": "C4",
                    "midi": 60,
                    "time": 77.92699200000003,
                    "velocity": 0.2440944881889764,
                    "duration": 0.18732450000000256
                },
                {
                    "name": "F4",
                    "midi": 65,
                    "time": 78.11431650000003,
                    "velocity": 0.1889763779527559,
                    "duration": 0.18732450000000256
                },
                {
                    "name": "A#3",
                    "midi": 58,
                    "time": 78.30164100000003,
                    "velocity": 0.2440944881889764,
                    "duration": 0.18732450000000256
                },
                {
                    "name": "F4",
                    "midi": 65,
                    "time": 78.48896550000003,
                    "velocity": 0.1968503937007874,
                    "duration": 0.18732450000000256
                },
                {
                    "name": "A3",
                    "midi": 57,
                    "time": 78.67629000000004,
                    "velocity": 0.2440944881889764,
                    "duration": 0.18732450000000256
                },
                {
                    "name": "F4",
                    "midi": 65,
                    "time": 78.86361450000004,
                    "velocity": 0.2204724409448819,
                    "duration": 0.18732450000000256
                },
                {
                    "name": "E4",
                    "midi": 64,
                    "time": 79.05093900000004,
                    "velocity": 0.2440944881889764,
                    "duration": 0.18732450000000256
                },
                {
                    "name": "F4",
                    "midi": 65,
                    "time": 79.23826350000004,
                    "velocity": 0.2204724409448819,
                    "duration": 0.18732450000000256
                },
                {
                    "name": "A#3",
                    "midi": 58,
                    "time": 79.42558800000005,
                    "velocity": 0.2440944881889764,
                    "duration": 0.18732450000000256
                },
                {
                    "name": "G4",
                    "midi": 67,
                    "time": 79.61291250000005,
                    "velocity": 0.2125984251968504,
                    "duration": 0.18732450000000256
                },
                {
                    "name": "C4",
                    "midi": 60,
                    "time": 79.80023700000005,
                    "velocity": 0.2440944881889764,
                    "duration": 0.18732450000000256
                },
                {
                    "name": "A4",
                    "midi": 69,
                    "time": 79.98756150000006,
                    "velocity": 0.2125984251968504,
                    "duration": 0.18732450000000256
                },
                {
                    "name": "F4",
                    "midi": 65,
                    "time": 80.17488600000006,
                    "velocity": 0.2440944881889764,
                    "duration": 0.18732450000000256
                },
                {
                    "name": "A4",
                    "midi": 69,
                    "time": 80.36221050000006,
                    "velocity": 0.2283464566929134,
                    "duration": 0.18732450000000256
                },
                {
                    "name": "C4",
                    "midi": 60,
                    "time": 80.54953500000006,
                    "velocity": 0.2440944881889764,
                    "duration": 0.18732450000000256
                },
                {
                    "name": "A#4",
                    "midi": 70,
                    "time": 80.73685950000007,
                    "velocity": 0.2125984251968504,
                    "duration": 0.18732450000000256
                },
                {
                    "name": "A4",
                    "midi": 69,
                    "time": 80.92418400000007,
                    "velocity": 0.2440944881889764,
                    "duration": 0.18732450000000256
                },
                {
                    "name": "F4",
                    "midi": 65,
                    "time": 81.11150850000007,
                    "velocity": 0.1889763779527559,
                    "duration": 0.18732450000000256
                },
                {
                    "name": "E4",
                    "midi": 64,
                    "time": 81.29883300000007,
                    "velocity": 0.23622047244094488,
                    "duration": 0.18732450000000256
                },
                {
                    "name": "D#4",
                    "midi": 63,
                    "time": 81.48615750000008,
                    "velocity": 0.2047244094488189,
                    "duration": 0.18732450000000256
                },
                {
                    "name": "D4",
                    "midi": 62,
                    "time": 81.67348200000008,
                    "velocity": 0.2283464566929134,
                    "duration": 0.18732450000000256
                },
                {
                    "name": "C#4",
                    "midi": 61,
                    "time": 81.86080650000008,
                    "velocity": 0.2440944881889764,
                    "duration": 0.18732450000000256
                },
                {
                    "name": "D4",
                    "midi": 62,
                    "time": 82.04813100000008,
                    "velocity": 0.2204724409448819,
                    "duration": 0.18732450000000256
                },
                {
                    "name": "F4",
                    "midi": 65,
                    "time": 82.23545550000009,
                    "velocity": 0.2125984251968504,
                    "duration": 0.18732450000000256
                },
                {
                    "name": "C4",
                    "midi": 60,
                    "time": 82.42278000000009,
                    "velocity": 0.2992125984251969,
                    "duration": 0.18732450000000256
                },
                {
                    "name": "E4",
                    "midi": 64,
                    "time": 82.61010450000009,
                    "velocity": 0.25196850393700787,
                    "duration": 0.18732450000000256
                },
                {
                    "name": "B3",
                    "midi": 59,
                    "time": 82.7974290000001,
                    "velocity": 0.31496062992125984,
                    "duration": 0.18732450000000256
                },
                {
                    "name": "G#4",
                    "midi": 68,
                    "time": 82.9847535000001,
                    "velocity": 0.2677165354330709,
                    "duration": 0.18732450000000256
                },
                {
                    "name": "C4",
                    "midi": 60,
                    "time": 83.1720780000001,
                    "velocity": 0.3228346456692913,
                    "duration": 0.18732450000000256
                },
                {
                    "name": "A4",
                    "midi": 69,
                    "time": 83.3594025000001,
                    "velocity": 0.2755905511811024,
                    "duration": 0.18732450000000256
                },
                {
                    "name": "F4",
                    "midi": 65,
                    "time": 83.5467270000001,
                    "velocity": 0.2992125984251969,
                    "duration": 0.18732450000000256
                },
                {
                    "name": "A4",
                    "midi": 69,
                    "time": 83.7340515000001,
                    "velocity": 0.25984251968503935,
                    "duration": 0.18732450000000256
                },
                {
                    "name": "C4",
                    "midi": 60,
                    "time": 83.92137600000011,
                    "velocity": 0.31496062992125984,
                    "duration": 0.18732450000000256
                },
                {
                    "name": "A4",
                    "midi": 69,
                    "time": 84.10870050000011,
                    "velocity": 0.2755905511811024,
                    "duration": 0.18732450000000256
                },
                {
                    "name": "C4",
                    "midi": 60,
                    "time": 84.29602500000011,
                    "velocity": 0.3228346456692913,
                    "duration": 0.18732450000000256
                },
                {
                    "name": "C5",
                    "midi": 72,
                    "time": 84.48334950000012,
                    "velocity": 0.25984251968503935,
                    "duration": 0.18732450000000256
                },
                {
                    "name": "A4",
                    "midi": 69,
                    "time": 84.67067400000012,
                    "velocity": 0.33858267716535434,
                    "duration": 0.18732450000000256
                },
                {
                    "name": "C5",
                    "midi": 72,
                    "time": 84.85799850000012,
                    "velocity": 0.25984251968503935,
                    "duration": 0.18732450000000256
                },
                {
                    "name": "C4",
                    "midi": 60,
                    "time": 85.04532300000012,
                    "velocity": 0.3543307086614173,
                    "duration": 0.18732450000000256
                },
                {
                    "name": "A#4",
                    "midi": 70,
                    "time": 85.23264750000013,
                    "velocity": 0.2992125984251969,
                    "duration": 0.18732450000000256
                },
                {
                    "name": "F3",
                    "midi": 53,
                    "time": 85.51363425000012,
                    "velocity": 0.4251968503937008,
                    "duration": 0.09366224999999417
                },
                {
                    "name": "A3",
                    "midi": 57,
                    "time": 85.60729650000012,
                    "velocity": 0.4409448818897638,
                    "duration": 0.09366224999999417
                },
                {
                    "name": "C4",
                    "midi": 60,
                    "time": 85.70095875000011,
                    "velocity": 0.4645669291338583,
                    "duration": 0.09366224999999417
                },
                {
                    "name": "F4",
                    "midi": 65,
                    "time": 85.7946210000001,
                    "velocity": 0.48031496062992124,
                    "duration": 0.18732450000000256
                },
                {
                    "name": "C4",
                    "midi": 60,
                    "time": 86.16927000000011,
                    "velocity": 0.4251968503937008,
                    "duration": 0.18732450000000256
                },
                {
                    "name": "E4",
                    "midi": 64,
                    "time": 86.16927000000011,
                    "velocity": 0.4251968503937008,
                    "duration": 0.18732450000000256
                },
                {
                    "name": "F2",
                    "midi": 41,
                    "time": 86.63758125000011,
                    "velocity": 0.4251968503937008,
                    "duration": 0.09366224999999417
                },
                {
                    "name": "A2",
                    "midi": 45,
                    "time": 86.7312435000001,
                    "velocity": 0.4409448818897638,
                    "duration": 0.09366224999999417
                },
                {
                    "name": "C3",
                    "midi": 48,
                    "time": 86.8249057500001,
                    "velocity": 0.4645669291338583,
                    "duration": 0.09366224999999417
                },
                {
                    "name": "F3",
                    "midi": 53,
                    "time": 86.91856800000009,
                    "velocity": 0.48031496062992124,
                    "duration": 0.18732450000000256
                },
                {
                    "name": "C3",
                    "midi": 48,
                    "time": 87.2932170000001,
                    "velocity": 0.4251968503937008,
                    "duration": 0.18732450000000256
                },
                {
                    "name": "E3",
                    "midi": 52,
                    "time": 87.2932170000001,
                    "velocity": 0.4251968503937008,
                    "duration": 0.18732450000000256
                },
                {
                    "name": "F3",
                    "midi": 53,
                    "time": 87.6678660000001,
                    "velocity": 0.4645669291338583,
                    "duration": 0.09366224999999417
                },
                {
                    "name": "F2",
                    "midi": 41,
                    "time": 88.0425150000001,
                    "velocity": 0.4645669291338583,
                    "duration": 0.3746490000000051
                },
                {
                    "name": "A#3",
                    "midi": 58,
                    "time": 88.7918130000001,
                    "velocity": 0.31496062992125984,
                    "duration": 0.749297999999996
                },
                {
                    "name": "F3",
                    "midi": 53,
                    "time": 89.5411110000001,
                    "velocity": 0.28346456692913385,
                    "duration": 0.3746490000000051
                },
                {
                    "name": "D3",
                    "midi": 50,
                    "time": 89.9157600000001,
                    "velocity": 0.31496062992125984,
                    "duration": 0.749297999999996
                },
                {
                    "name": "F3",
                    "midi": 53,
                    "time": 90.6650580000001,
                    "velocity": 0.2992125984251969,
                    "duration": 0.3746490000000051
                },
                {
                    "name": "A#3",
                    "midi": 58,
                    "time": 91.0397070000001,
                    "velocity": 0.3228346456692913,
                    "duration": 0.749297999999996
                },
                {
                    "name": "D4",
                    "midi": 62,
                    "time": 91.7890050000001,
                    "velocity": 0.33858267716535434,
                    "duration": 0.3746490000000051
                },
                {
                    "name": "F4",
                    "midi": 65,
                    "time": 92.16365400000011,
                    "velocity": 0.3543307086614173,
                    "duration": 0.749297999999996
                },
                {
                    "name": "D#4",
                    "midi": 63,
                    "time": 93.28760100000011,
                    "velocity": 0.28346456692913385,
                    "duration": 2.2478940000000023
                },
                {
                    "name": "F3",
                    "midi": 53,
                    "time": 93.28760100000011,
                    "velocity": 0.23622047244094488,
                    "duration": 2.2478940000000023
                },
                {
                    "name": "C4",
                    "midi": 60,
                    "time": 93.28760100000011,
                    "velocity": 0.23622047244094488,
                    "duration": 2.2478940000000023
                },
                {
                    "name": "A#3",
                    "midi": 58,
                    "time": 95.53549500000011,
                    "velocity": 0.25196850393700787,
                    "duration": 0.3746490000000051
                },
                {
                    "name": "D4",
                    "midi": 62,
                    "time": 95.53549500000011,
                    "velocity": 0.2992125984251969,
                    "duration": 0.3746490000000051
                },
                {
                    "name": "F3",
                    "midi": 53,
                    "time": 97.78338900000011,
                    "velocity": 0.23622047244094488,
                    "duration": 2.2478940000000023
                },
                {
                    "name": "C4",
                    "midi": 60,
                    "time": 97.78338900000011,
                    "velocity": 0.23622047244094488,
                    "duration": 2.2478940000000023
                },
                {
                    "name": "D#4",
                    "midi": 63,
                    "time": 97.78338900000011,
                    "velocity": 0.28346456692913385,
                    "duration": 2.2478940000000023
                },
                {
                    "name": "A#3",
                    "midi": 58,
                    "time": 100.03128300000012,
                    "velocity": 0.2677165354330709,
                    "duration": 0.09366224999999417
                },
                {
                    "name": "D4",
                    "midi": 62,
                    "time": 100.03128300000012,
                    "velocity": 0.31496062992125984,
                    "duration": 0.09366224999999417
                },
                {
                    "name": "D4",
                    "midi": 62,
                    "time": 100.4059320000001,
                    "velocity": 0.2992125984251969,
                    "duration": 0.09366224999999417
                },
                {
                    "name": "A#3",
                    "midi": 58,
                    "time": 100.4059320000001,
                    "velocity": 0.25196850393700787,
                    "duration": 0.09366224999999417
                },
                {
                    "name": "A#3",
                    "midi": 58,
                    "time": 100.7805810000001,
                    "velocity": 0.25196850393700787,
                    "duration": 0.09366224999999417
                },
                {
                    "name": "F4",
                    "midi": 65,
                    "time": 100.7805810000001,
                    "velocity": 0.2992125984251969,
                    "duration": 0.09366224999999417
                },
                {
                    "name": "A#3",
                    "midi": 58,
                    "time": 101.15523000000009,
                    "velocity": 0.2677165354330709,
                    "duration": 0.3746490000000051
                },
                {
                    "name": "D4",
                    "midi": 62,
                    "time": 101.15523000000009,
                    "velocity": 0.31496062992125984,
                    "duration": 0.3746490000000051
                },
                {
                    "name": "A#3",
                    "midi": 58,
                    "time": 102.6538260000001,
                    "velocity": 0.23622047244094488,
                    "duration": 0.3746490000000051
                },
                {
                    "name": "D#3",
                    "midi": 51,
                    "time": 102.6538260000001,
                    "velocity": 0.1968503937007874,
                    "duration": 0.3746490000000051
                },
                {
                    "name": "G3",
                    "midi": 55,
                    "time": 102.6538260000001,
                    "velocity": 0.1968503937007874,
                    "duration": 0.3746490000000051
                },
                {
                    "name": "D3",
                    "midi": 50,
                    "time": 103.7777730000001,
                    "velocity": 0.1968503937007874,
                    "duration": 0.3746490000000051
                },
                {
                    "name": "F3",
                    "midi": 53,
                    "time": 103.7777730000001,
                    "velocity": 0.1968503937007874,
                    "duration": 0.3746490000000051
                },
                {
                    "name": "A#3",
                    "midi": 58,
                    "time": 103.7777730000001,
                    "velocity": 0.23622047244094488,
                    "duration": 0.3746490000000051
                },
                {
                    "name": "A3",
                    "midi": 57,
                    "time": 104.5270710000001,
                    "velocity": 0.2283464566929134,
                    "duration": 1.1239470000000011
                },
                {
                    "name": "F4",
                    "midi": 65,
                    "time": 104.5270710000001,
                    "velocity": 0.2677165354330709,
                    "duration": 1.4985960000000063
                },
                {
                    "name": "A#3",
                    "midi": 58,
                    "time": 105.65101800000011,
                    "velocity": 0.2677165354330709,
                    "duration": 0.3746490000000051
                },
                {
                    "name": "D#3",
                    "midi": 51,
                    "time": 107.14961400000011,
                    "velocity": 0.1968503937007874,
                    "duration": 0.3746490000000051
                },
                {
                    "name": "G3",
                    "midi": 55,
                    "time": 107.14961400000011,
                    "velocity": 0.1968503937007874,
                    "duration": 0.3746490000000051
                },
                {
                    "name": "A#3",
                    "midi": 58,
                    "time": 107.14961400000011,
                    "velocity": 0.23622047244094488,
                    "duration": 0.3746490000000051
                },
                {
                    "name": "D3",
                    "midi": 50,
                    "time": 108.27356100000011,
                    "velocity": 0.1968503937007874,
                    "duration": 0.3746490000000051
                },
                {
                    "name": "F3",
                    "midi": 53,
                    "time": 108.27356100000011,
                    "velocity": 0.1968503937007874,
                    "duration": 0.3746490000000051
                },
                {
                    "name": "A#3",
                    "midi": 58,
                    "time": 108.27356100000011,
                    "velocity": 0.23622047244094488,
                    "duration": 0.3746490000000051
                },
                {
                    "name": "F3",
                    "midi": 53,
                    "time": 109.02285900000012,
                    "velocity": 0.2283464566929134,
                    "duration": 1.1239470000000154
                },
                {
                    "name": "A3",
                    "midi": 57,
                    "time": 109.02285900000012,
                    "velocity": 0.2677165354330709,
                    "duration": 0.3746490000000051
                },
                {
                    "name": "C4",
                    "midi": 60,
                    "time": 109.39750800000013,
                    "velocity": 0.2440944881889764,
                    "duration": 0.3746490000000051
                },
                {
                    "name": "D#4",
                    "midi": 63,
                    "time": 109.77215700000013,
                    "velocity": 0.2283464566929134,
                    "duration": 0.3746490000000051
                },
                {
                    "name": "D4",
                    "midi": 62,
                    "time": 110.14680600000014,
                    "velocity": 0.2677165354330709,
                    "duration": 0.3746490000000051
                },
                {
                    "name": "A#3",
                    "midi": 58,
                    "time": 110.14680600000014,
                    "velocity": 0.2204724409448819,
                    "duration": 0.3746490000000051
                },
                {
                    "name": "G3",
                    "midi": 55,
                    "time": 111.27075300000014,
                    "velocity": 0.5748031496062992,
                    "duration": 0.09366224999999417
                },
                {
                    "name": "G2",
                    "midi": 43,
                    "time": 111.64540200000013,
                    "velocity": 0.5196850393700787,
                    "duration": 0.09366224999999417
                },
                {
                    "name": "D3",
                    "midi": 50,
                    "time": 112.39470000000013,
                    "velocity": 0.5748031496062992,
                    "duration": 0.09366224999999417
                },
                {
                    "name": "D2",
                    "midi": 38,
                    "time": 112.76934900000012,
                    "velocity": 0.5196850393700787,
                    "duration": 0.09366224999999417
                },
                {
                    "name": "D#3",
                    "midi": 51,
                    "time": 113.51864700000012,
                    "velocity": 0.15748031496062992,
                    "duration": 1.1239470000000154
                },
                {
                    "name": "G3",
                    "midi": 55,
                    "time": 113.51864700000012,
                    "velocity": 0.25984251968503935,
                    "duration": 0.18732450000000256
                },
                {
                    "name": "A#3",
                    "midi": 58,
                    "time": 113.70597150000012,
                    "velocity": 0.18110236220472442,
                    "duration": 0.18732450000000256
                },
                {
                    "name": "G3",
                    "midi": 55,
                    "time": 113.89329600000012,
                    "velocity": 0.2125984251968504,
                    "duration": 0.18732450000000256
                },
                {
                    "name": "A#3",
                    "midi": 58,
                    "time": 114.08062050000012,
                    "velocity": 0.1732283464566929,
                    "duration": 0.18732450000000256
                },
                {
                    "name": "G3",
                    "midi": 55,
                    "time": 114.26794500000013,
                    "velocity": 0.2047244094488189,
                    "duration": 0.18732450000000256
                },
                {
                    "name": "A#3",
                    "midi": 58,
                    "time": 114.45526950000013,
                    "velocity": 0.1732283464566929,
                    "duration": 0.18732450000000256
                },
                {
                    "name": "D3",
                    "midi": 50,
                    "time": 114.64259400000013,
                    "velocity": 0.15748031496062992,
                    "duration": 1.1239470000000154
                },
                {
                    "name": "G#3",
                    "midi": 56,
                    "time": 114.64259400000013,
                    "velocity": 0.28346456692913385,
                    "duration": 0.18732450000000256
                },
                {
                    "name": "A#3",
                    "midi": 58,
                    "time": 114.82991850000013,
                    "velocity": 0.18110236220472442,
                    "duration": 0.18732450000000256
                },
                {
                    "name": "G#3",
                    "midi": 56,
                    "time": 115.01724300000014,
                    "velocity": 0.2125984251968504,
                    "duration": 0.18732450000000256
                },
                {
                    "name": "A#3",
                    "midi": 58,
                    "time": 115.20456750000014,
                    "velocity": 0.18110236220472442,
                    "duration": 0.18732450000000256
                },
                {
                    "name": "G#3",
                    "midi": 56,
                    "time": 115.39189200000014,
                    "velocity": 0.2125984251968504,
                    "duration": 0.18732450000000256
                },
                {
                    "name": "A#3",
                    "midi": 58,
                    "time": 115.57921650000014,
                    "velocity": 0.1889763779527559,
                    "duration": 0.18732450000000256
                },
                {
                    "name": "D#3",
                    "midi": 51,
                    "time": 115.76654100000015,
                    "velocity": 0.15748031496062992,
                    "duration": 1.1239470000000154
                },
                {
                    "name": "G3",
                    "midi": 55,
                    "time": 115.76654100000015,
                    "velocity": 0.25984251968503935,
                    "duration": 0.18732450000000256
                },
                {
                    "name": "A#3",
                    "midi": 58,
                    "time": 115.95386550000015,
                    "velocity": 0.18110236220472442,
                    "duration": 0.18732450000000256
                },
                {
                    "name": "G3",
                    "midi": 55,
                    "time": 116.14119000000015,
                    "velocity": 0.2125984251968504,
                    "duration": 0.18732450000000256
                },
                {
                    "name": "A#3",
                    "midi": 58,
                    "time": 116.32851450000015,
                    "velocity": 0.18110236220472442,
                    "duration": 0.18732450000000256
                },
                {
                    "name": "G3",
                    "midi": 55,
                    "time": 116.51583900000016,
                    "velocity": 0.2125984251968504,
                    "duration": 0.18732450000000256
                },
                {
                    "name": "A#3",
                    "midi": 58,
                    "time": 116.70316350000016,
                    "velocity": 0.1968503937007874,
                    "duration": 0.18732450000000256
                },
                {
                    "name": "D3",
                    "midi": 50,
                    "time": 116.89048800000016,
                    "velocity": 0.15748031496062992,
                    "duration": 1.1239470000000154
                },
                {
                    "name": "G#3",
                    "midi": 56,
                    "time": 116.89048800000016,
                    "velocity": 0.25984251968503935,
                    "duration": 0.18732450000000256
                },
                {
                    "name": "A#3",
                    "midi": 58,
                    "time": 117.07781250000016,
                    "velocity": 0.2125984251968504,
                    "duration": 0.18732450000000256
                },
                {
                    "name": "G#3",
                    "midi": 56,
                    "time": 117.26513700000017,
                    "velocity": 0.2125984251968504,
                    "duration": 0.18732450000000256
                },
                {
                    "name": "A#3",
                    "midi": 58,
                    "time": 117.45246150000017,
                    "velocity": 0.1889763779527559,
                    "duration": 0.18732450000000256
                },
                {
                    "name": "G#3",
                    "midi": 56,
                    "time": 117.63978600000017,
                    "velocity": 0.2125984251968504,
                    "duration": 0.18732450000000256
                },
                {
                    "name": "A#3",
                    "midi": 58,
                    "time": 117.82711050000017,
                    "velocity": 0.18110236220472442,
                    "duration": 0.18732450000000256
                },
                {
                    "name": "D#3",
                    "midi": 51,
                    "time": 118.01443500000018,
                    "velocity": 0.16535433070866143,
                    "duration": 1.1239470000000154
                },
                {
                    "name": "G3",
                    "midi": 55,
                    "time": 118.01443500000018,
                    "velocity": 0.2755905511811024,
                    "duration": 0.18732450000000256
                },
                {
                    "name": "A#3",
                    "midi": 58,
                    "time": 118.20175950000018,
                    "velocity": 0.1889763779527559,
                    "duration": 0.18732450000000256
                },
                {
                    "name": "G3",
                    "midi": 55,
                    "time": 118.38908400000018,
                    "velocity": 0.2204724409448819,
                    "duration": 0.18732450000000256
                },
                {
                    "name": "A#3",
                    "midi": 58,
                    "time": 118.57640850000018,
                    "velocity": 0.18110236220472442,
                    "duration": 0.18732450000000256
                },
                {
                    "name": "G3",
                    "midi": 55,
                    "time": 118.76373300000019,
                    "velocity": 0.2125984251968504,
                    "duration": 0.18732450000000256
                },
                {
                    "name": "A#3",
                    "midi": 58,
                    "time": 118.95105750000019,
                    "velocity": 0.18110236220472442,
                    "duration": 0.18732450000000256
                },
                {
                    "name": "D3",
                    "midi": 50,
                    "time": 119.13838200000019,
                    "velocity": 0.16535433070866143,
                    "duration": 1.1239470000000154
                },
                {
                    "name": "F3",
                    "midi": 53,
                    "time": 119.13838200000019,
                    "velocity": 0.2992125984251969,
                    "duration": 0.18732450000000256
                },
                {
                    "name": "G#3",
                    "midi": 56,
                    "time": 119.3257065000002,
                    "velocity": 0.1889763779527559,
                    "duration": 0.18732450000000256
                },
                {
                    "name": "F3",
                    "midi": 53,
                    "time": 119.5130310000002,
                    "velocity": 0.25196850393700787,
                    "duration": 0.18732450000000256
                },
                {
                    "name": "G#3",
                    "midi": 56,
                    "time": 119.7003555000002,
                    "velocity": 0.2204724409448819,
                    "duration": 0.18732450000000256
                },
                {
                    "name": "F3",
                    "midi": 53,
                    "time": 119.8876800000002,
                    "velocity": 0.25196850393700787,
                    "duration": 0.18732450000000256
                },
                {
                    "name": "G#3",
                    "midi": 56,
                    "time": 120.0750045000002,
                    "velocity": 0.2125984251968504,
                    "duration": 0.18732450000000256
                },
                {
                    "name": "D#3",
                    "midi": 51,
                    "time": 120.26232900000021,
                    "velocity": 0.18110236220472442,
                    "duration": 1.1239470000000154
                },
                {
                    "name": "G3",
                    "midi": 55,
                    "time": 120.26232900000021,
                    "velocity": 0.29133858267716534,
                    "duration": 0.18732450000000256
                },
                {
                    "name": "C4",
                    "midi": 60,
                    "time": 120.44965350000021,
                    "velocity": 0.25196850393700787,
                    "duration": 0.18732450000000256
                },
                {
                    "name": "G3",
                    "midi": 55,
                    "time": 120.63697800000021,
                    "velocity": 0.2677165354330709,
                    "duration": 0.18732450000000256
                },
                {
                    "name": "C4",
                    "midi": 60,
                    "time": 120.82430250000021,
                    "velocity": 0.2283464566929134,
                    "duration": 0.18732450000000256
                },
                {
                    "name": "G3",
                    "midi": 55,
                    "time": 121.01162700000022,
                    "velocity": 0.23622047244094488,
                    "duration": 0.18732450000000256
                },
                {
                    "name": "C4",
                    "midi": 60,
                    "time": 121.19895150000022,
                    "velocity": 0.2204724409448819,
                    "duration": 0.18732450000000256
                },
                {
                    "name": "D#3",
                    "midi": 51,
                    "time": 121.38627600000022,
                    "velocity": 0.18110236220472442,
                    "duration": 1.1239470000000011
                },
                {
                    "name": "F3",
                    "midi": 53,
                    "time": 121.38627600000022,
                    "velocity": 0.29133858267716534,
                    "duration": 0.18732450000000256
                },
                {
                    "name": "C4",
                    "midi": 60,
                    "time": 121.57360050000023,
                    "velocity": 0.23622047244094488,
                    "duration": 0.18732450000000256
                },
                {
                    "name": "F3",
                    "midi": 53,
                    "time": 121.76092500000023,
                    "velocity": 0.23622047244094488,
                    "duration": 0.18732450000000256
                },
                {
                    "name": "C4",
                    "midi": 60,
                    "time": 121.94824950000023,
                    "velocity": 0.2125984251968504,
                    "duration": 0.1966907249999963
                },
                {
                    "name": "F3",
                    "midi": 53,
                    "time": 122.13557400000023,
                    "velocity": 0.23622047244094488,
                    "duration": 0.18732449999998835
                },
                {
                    "name": "C4",
                    "midi": 60,
                    "time": 122.32289850000022,
                    "velocity": 0.2047244094488189,
                    "duration": 0.18732450000000256
                },
                {
                    "name": "D3",
                    "midi": 50,
                    "time": 122.51022300000022,
                    "velocity": 0.2125984251968504,
                    "duration": 1.1239470000000154
                },
                {
                    "name": "F3",
                    "midi": 53,
                    "time": 122.51022300000022,
                    "velocity": 0.3464566929133858,
                    "duration": 0.18732450000000256
                },
                {
                    "name": "A#3",
                    "midi": 58,
                    "time": 122.69754750000023,
                    "velocity": 0.23622047244094488,
                    "duration": 0.18732450000000256
                },
                {
                    "name": "F3",
                    "midi": 53,
                    "time": 122.88487200000023,
                    "velocity": 0.28346456692913385,
                    "duration": 0.18732450000000256
                },
                {
                    "name": "A#3",
                    "midi": 58,
                    "time": 123.07219650000023,
                    "velocity": 0.23622047244094488,
                    "duration": 0.18732450000000256
                },
                {
                    "name": "F3",
                    "midi": 53,
                    "time": 123.25952100000023,
                    "velocity": 0.28346456692913385,
                    "duration": 0.18732450000000256
                },
                {
                    "name": "A#3",
                    "midi": 58,
                    "time": 123.44684550000024,
                    "velocity": 0.25984251968503935,
                    "duration": 0.18732450000000256
                },
                {
                    "name": "C3",
                    "midi": 48,
                    "time": 123.63417000000024,
                    "velocity": 0.2125984251968504,
                    "duration": 1.1239470000000011
                },
                {
                    "name": "G3",
                    "midi": 55,
                    "time": 123.63417000000024,
                    "velocity": 0.3464566929133858,
                    "duration": 0.18732450000000256
                },
                {
                    "name": "A#3",
                    "midi": 58,
                    "time": 123.82149450000024,
                    "velocity": 0.28346456692913385,
                    "duration": 0.18732450000000256
                },
                {
                    "name": "G3",
                    "midi": 55,
                    "time": 124.00881900000024,
                    "velocity": 0.28346456692913385,
                    "duration": 0.18732450000000256
                },
                {
                    "name": "A#3",
                    "midi": 58,
                    "time": 124.19614350000025,
                    "velocity": 0.2440944881889764,
                    "duration": 0.1966907249999963
                },
                {
                    "name": "G3",
                    "midi": 55,
                    "time": 124.38346800000025,
                    "velocity": 0.28346456692913385,
                    "duration": 0.18732449999998835
                },
                {
                    "name": "A#3",
                    "midi": 58,
                    "time": 124.57079250000024,
                    "velocity": 0.23622047244094488,
                    "duration": 0.18732450000000256
                },
                {
                    "name": "D3",
                    "midi": 50,
                    "time": 124.75811700000024,
                    "velocity": 0.2125984251968504,
                    "duration": 1.1239470000000154
                },
                {
                    "name": "F3",
                    "midi": 53,
                    "time": 124.75811700000024,
                    "velocity": 0.3464566929133858,
                    "duration": 0.18732450000000256
                },
                {
                    "name": "A3",
                    "midi": 57,
                    "time": 124.94544150000024,
                    "velocity": 0.2204724409448819,
                    "duration": 0.18732450000000256
                },
                {
                    "name": "F3",
                    "midi": 53,
                    "time": 125.13276600000025,
                    "velocity": 0.28346456692913385,
                    "duration": 0.18732450000000256
                },
                {
                    "name": "A3",
                    "midi": 57,
                    "time": 125.32009050000025,
                    "velocity": 0.2204724409448819,
                    "duration": 0.18732450000000256
                },
                {
                    "name": "F3",
                    "midi": 53,
                    "time": 125.50741500000025,
                    "velocity": 0.2755905511811024,
                    "duration": 0.18732450000000256
                },
                {
                    "name": "A3",
                    "midi": 57,
                    "time": 125.69473950000025,
                    "velocity": 0.2125984251968504,
                    "duration": 0.18732450000000256
                },
                {
                    "name": "G3",
                    "midi": 55,
                    "time": 125.88206400000026,
                    "velocity": 0.29133858267716534,
                    "duration": 1.1239470000000011
                },
                {
                    "name": "D4",
                    "midi": 62,
                    "time": 125.88206400000026,
                    "velocity": 0.29133858267716534,
                    "duration": 0.18732450000000256
                },
                {
                    "name": "F4",
                    "midi": 65,
                    "time": 126.06938850000026,
                    "velocity": 0.28346456692913385,
                    "duration": 0.18732450000000256
                },
                {
                    "name": "D4",
                    "midi": 62,
                    "time": 126.25671300000026,
                    "velocity": 0.28346456692913385,
                    "duration": 0.18732450000000256
                },
                {
                    "name": "F4",
                    "midi": 65,
                    "time": 126.44403750000026,
                    "velocity": 0.23622047244094488,
                    "duration": 0.1966907249999963
                },
                {
                    "name": "D4",
                    "midi": 62,
                    "time": 126.63136200000027,
                    "velocity": 0.28346456692913385,
                    "duration": 0.18732449999998835
                },
                {
                    "name": "F4",
                    "midi": 65,
                    "time": 126.81868650000025,
                    "velocity": 0.23622047244094488,
                    "duration": 0.18732450000000256
                },
                {
                    "name": "C4",
                    "midi": 60,
                    "time": 127.00601100000026,
                    "velocity": 0.3464566929133858,
                    "duration": 0.3746490000000051
                },
                {
                    "name": "E4",
                    "midi": 64,
                    "time": 127.00601100000026,
                    "velocity": 0.3464566929133858,
                    "duration": 0.3746490000000051
                },
                {
                    "name": "A#4",
                    "midi": 70,
                    "time": 127.75530900000027,
                    "velocity": 0.3937007874015748,
                    "duration": 0.18732450000000256
                },
                {
                    "name": "A4",
                    "midi": 69,
                    "time": 128.12995800000027,
                    "velocity": 0.4330708661417323,
                    "duration": 0.18732449999998835
                },
                {
                    "name": "E4",
                    "midi": 64,
                    "time": 128.50460700000025,
                    "velocity": 0.4645669291338583,
                    "duration": 0.18732449999998835
                },
                {
                    "name": "F4",
                    "midi": 65,
                    "time": 128.87925600000023,
                    "velocity": 0.44881889763779526,
                    "duration": 0.18732449999998835
                },
                {
                    "name": "C4",
                    "midi": 60,
                    "time": 129.2539050000002,
                    "velocity": 0.4881889763779528,
                    "duration": 0.3746490000000051
                },
                {
                    "name": "A#4",
                    "midi": 70,
                    "time": 130.0032030000002,
                    "velocity": 0.3937007874015748,
                    "duration": 0.18732449999998835
                },
                {
                    "name": "A4",
                    "midi": 69,
                    "time": 130.3778520000002,
                    "velocity": 0.4566929133858268,
                    "duration": 0.18732449999998835
                },
                {
                    "name": "E4",
                    "midi": 64,
                    "time": 130.75250100000017,
                    "velocity": 0.4881889763779528,
                    "duration": 0.18732449999998835
                },
                {
                    "name": "F4",
                    "midi": 65,
                    "time": 131.12715000000014,
                    "velocity": 0.4409448818897638,
                    "duration": 0.18732449999998835
                },
                {
                    "name": "C4",
                    "midi": 60,
                    "time": 131.50179900000012,
                    "velocity": 0.48031496062992124,
                    "duration": 0.3746490000000051
                },
                {
                    "name": "C4",
                    "midi": 60,
                    "time": 132.34475925000012,
                    "velocity": 0.3700787401574803,
                    "duration": 0.09366224999999417
                },
                {
                    "name": "G3",
                    "midi": 55,
                    "time": 132.43842150000012,
                    "velocity": 0.4251968503937008,
                    "duration": 0.09366224999999417
                },
                {
                    "name": "E3",
                    "midi": 52,
                    "time": 132.5320837500001,
                    "velocity": 0.3700787401574803,
                    "duration": 0.09366224999999417
                },
                {
                    "name": "C3",
                    "midi": 48,
                    "time": 132.6257460000001,
                    "velocity": 0.5433070866141733,
                    "duration": 0.09366224999999417
                },
                {
                    "name": "C2",
                    "midi": 36,
                    "time": 133.0003950000001,
                    "velocity": 0.4645669291338583,
                    "duration": 0.3746490000000051
                },
                {
                    "name": "F3",
                    "midi": 53,
                    "time": 133.74969300000012,
                    "velocity": 0.2677165354330709,
                    "duration": 0.7649083750000045
                },
                {
                    "name": "C3",
                    "midi": 48,
                    "time": 134.49899100000013,
                    "velocity": 0.23622047244094488,
                    "duration": 0.3746490000000051
                },
                {
                    "name": "A2",
                    "midi": 45,
                    "time": 134.87364000000014,
                    "velocity": 0.2677165354330709,
                    "duration": 0.7649083750000045
                },
                {
                    "name": "C3",
                    "midi": 48,
                    "time": 135.62293800000015,
                    "velocity": 0.25196850393700787,
                    "duration": 0.3746490000000051
                },
                {
                    "name": "F3",
                    "midi": 53,
                    "time": 135.99758700000015,
                    "velocity": 0.2677165354330709,
                    "duration": 0.7649083750000045
                },
                {
                    "name": "A3",
                    "midi": 57,
                    "time": 136.74688500000016,
                    "velocity": 0.28346456692913385,
                    "duration": 0.3746490000000051
                },
                {
                    "name": "C4",
                    "midi": 60,
                    "time": 137.12153400000017,
                    "velocity": 0.2992125984251969,
                    "duration": 0.3746490000000051
                },
                {
                    "name": "A#3",
                    "midi": 58,
                    "time": 138.24548100000018,
                    "velocity": 0.2677165354330709,
                    "duration": 0.7649083750000045
                },
                {
                    "name": "G3",
                    "midi": 55,
                    "time": 138.9947790000002,
                    "velocity": 0.23622047244094488,
                    "duration": 0.3746490000000051
                },
                {
                    "name": "E3",
                    "midi": 52,
                    "time": 139.3694280000002,
                    "velocity": 0.2677165354330709,
                    "duration": 0.7649083750000045
                },
                {
                    "name": "G3",
                    "midi": 55,
                    "time": 140.1187260000002,
                    "velocity": 0.25196850393700787,
                    "duration": 0.3746490000000051
                },
                {
                    "name": "A#3",
                    "midi": 58,
                    "time": 140.4933750000002,
                    "velocity": 0.2677165354330709,
                    "duration": 0.7649083750000045
                },
                {
                    "name": "E4",
                    "midi": 64,
                    "time": 141.24267300000022,
                    "velocity": 0.28346456692913385,
                    "duration": 0.3746490000000051
                },
                {
                    "name": "G4",
                    "midi": 67,
                    "time": 141.61732200000023,
                    "velocity": 0.2992125984251969,
                    "duration": 0.3746490000000051
                },
                {
                    "name": "A4",
                    "midi": 69,
                    "time": 142.74126900000024,
                    "velocity": 0.2755905511811024,
                    "duration": 0.18732449999998835
                },
                {
                    "name": "C5",
                    "midi": 72,
                    "time": 142.92859350000023,
                    "velocity": 0.2204724409448819,
                    "duration": 0.18732449999998835
                },
                {
                    "name": "A4",
                    "midi": 69,
                    "time": 143.11591800000022,
                    "velocity": 0.2755905511811024,
                    "duration": 0.18732449999998835
                },
                {
                    "name": "C5",
                    "midi": 72,
                    "time": 143.3032425000002,
                    "velocity": 0.1968503937007874,
                    "duration": 0.18732449999998835
                },
                {
                    "name": "A4",
                    "midi": 69,
                    "time": 143.4905670000002,
                    "velocity": 0.25196850393700787,
                    "duration": 0.18732449999998835
                },
                {
                    "name": "C5",
                    "midi": 72,
                    "time": 143.6778915000002,
                    "velocity": 0.1889763779527559,
                    "duration": 0.18732449999998835
                },
                {
                    "name": "A#4",
                    "midi": 70,
                    "time": 143.86521600000017,
                    "velocity": 0.2755905511811024,
                    "duration": 0.18732449999998835
                },
                {
                    "name": "C5",
                    "midi": 72,
                    "time": 144.05254050000016,
                    "velocity": 0.2440944881889764,
                    "duration": 0.18732449999998835
                },
                {
                    "name": "A#4",
                    "midi": 70,
                    "time": 144.23986500000015,
                    "velocity": 0.2755905511811024,
                    "duration": 0.18732449999998835
                },
                {
                    "name": "C5",
                    "midi": 72,
                    "time": 144.42718950000014,
                    "velocity": 0.2047244094488189,
                    "duration": 0.18732449999998835
                },
                {
                    "name": "A#4",
                    "midi": 70,
                    "time": 144.61451400000013,
                    "velocity": 0.25984251968503935,
                    "duration": 0.18732449999998835
                },
                {
                    "name": "C5",
                    "midi": 72,
                    "time": 144.80183850000012,
                    "velocity": 0.2283464566929134,
                    "duration": 0.18732449999998835
                },
                {
                    "name": "A4",
                    "midi": 69,
                    "time": 144.9891630000001,
                    "velocity": 0.2755905511811024,
                    "duration": 0.18732449999998835
                },
                {
                    "name": "C5",
                    "midi": 72,
                    "time": 145.1764875000001,
                    "velocity": 0.23622047244094488,
                    "duration": 0.18732449999998835
                },
                {
                    "name": "A4",
                    "midi": 69,
                    "time": 145.36381200000008,
                    "velocity": 0.25196850393700787,
                    "duration": 0.18732449999998835
                },
                {
                    "name": "C5",
                    "midi": 72,
                    "time": 145.55113650000007,
                    "velocity": 0.1889763779527559,
                    "duration": 0.18732449999998835
                },
                {
                    "name": "A4",
                    "midi": 69,
                    "time": 145.73846100000006,
                    "velocity": 0.25196850393700787,
                    "duration": 0.18732449999998835
                },
                {
                    "name": "C5",
                    "midi": 72,
                    "time": 145.92578550000005,
                    "velocity": 0.1968503937007874,
                    "duration": 0.18732449999998835
                },
                {
                    "name": "A#4",
                    "midi": 70,
                    "time": 146.11311000000003,
                    "velocity": 0.2755905511811024,
                    "duration": 0.18732449999998835
                },
                {
                    "name": "C5",
                    "midi": 72,
                    "time": 146.30043450000002,
                    "velocity": 0.2440944881889764,
                    "duration": 0.18732449999998835
                },
                {
                    "name": "A#4",
                    "midi": 70,
                    "time": 146.487759,
                    "velocity": 0.2755905511811024,
                    "duration": 0.18732449999998835
                },
                {
                    "name": "C5",
                    "midi": 72,
                    "time": 146.6750835,
                    "velocity": 0.2047244094488189,
                    "duration": 0.18732449999998835
                },
                {
                    "name": "A#4",
                    "midi": 70,
                    "time": 146.862408,
                    "velocity": 0.25984251968503935,
                    "duration": 0.18732449999998835
                },
                {
                    "name": "C5",
                    "midi": 72,
                    "time": 147.04973249999998,
                    "velocity": 0.2283464566929134,
                    "duration": 0.18732449999998835
                },
                {
                    "name": "A4",
                    "midi": 69,
                    "time": 147.23705699999996,
                    "velocity": 0.2755905511811024,
                    "duration": 0.18732449999998835
                },
                {
                    "name": "C5",
                    "midi": 72,
                    "time": 147.42438149999995,
                    "velocity": 0.23622047244094488,
                    "duration": 0.18732449999998835
                },
                {
                    "name": "A4",
                    "midi": 69,
                    "time": 147.61170599999994,
                    "velocity": 0.25196850393700787,
                    "duration": 0.18732449999998835
                },
                {
                    "name": "C5",
                    "midi": 72,
                    "time": 147.79903049999993,
                    "velocity": 0.2204724409448819,
                    "duration": 0.18732449999998835
                },
                {
                    "name": "A4",
                    "midi": 69,
                    "time": 147.98635499999992,
                    "velocity": 0.2992125984251969,
                    "duration": 0.18732449999998835
                },
                {
                    "name": "C5",
                    "midi": 72,
                    "time": 148.1736794999999,
                    "velocity": 0.2440944881889764,
                    "duration": 0.18732449999998835
                },
                {
                    "name": "D4",
                    "midi": 62,
                    "time": 148.3610039999999,
                    "velocity": 0.31496062992125984,
                    "duration": 1.12394699999993
                },
                {
                    "name": "A4",
                    "midi": 69,
                    "time": 148.3610039999999,
                    "velocity": 0.31496062992125984,
                    "duration": 0.18732449999998835
                },
                {
                    "name": "C5",
                    "midi": 72,
                    "time": 148.54832849999988,
                    "velocity": 0.2677165354330709,
                    "duration": 0.18732449999998835
                },
                {
                    "name": "A4",
                    "midi": 69,
                    "time": 148.73565299999987,
                    "velocity": 0.2992125984251969,
                    "duration": 0.18732449999998835
                },
                {
                    "name": "C5",
                    "midi": 72,
                    "time": 148.92297749999986,
                    "velocity": 0.25196850393700787,
                    "duration": 0.18732449999998835
                },
                {
                    "name": "A4",
                    "midi": 69,
                    "time": 149.11030199999985,
                    "velocity": 0.30708661417322836,
                    "duration": 0.18732449999998835
                },
                {
                    "name": "C5",
                    "midi": 72,
                    "time": 149.29762649999984,
                    "velocity": 0.25196850393700787,
                    "duration": 0.18732449999998835
                },
                {
                    "name": "G4",
                    "midi": 67,
                    "time": 149.48495099999982,
                    "velocity": 0.30708661417322836,
                    "duration": 0.3746490000000051
                },
                {
                    "name": "A#4",
                    "midi": 70,
                    "time": 149.48495099999982,
                    "velocity": 0.30708661417322836,
                    "duration": 0.3746490000000051
                },
                {
                    "name": "C5",
                    "midi": 72,
                    "time": 149.85959999999983,
                    "velocity": 0.2755905511811024,
                    "duration": 0.7492980000000102
                },
                {
                    "name": "E4",
                    "midi": 64,
                    "time": 149.85959999999983,
                    "velocity": 0.2755905511811024,
                    "duration": 0.3746490000000051
                },
                {
                    "name": "F4",
                    "midi": 65,
                    "time": 150.23424899999983,
                    "velocity": 0.2755905511811024,
                    "duration": 0.3746490000000051
                },
                {
                    "name": "A#3",
                    "midi": 58,
                    "time": 150.60889799999984,
                    "velocity": 0.33858267716535434,
                    "duration": 0.3746490000000051
                },
                {
                    "name": "A#4",
                    "midi": 70,
                    "time": 150.60889799999984,
                    "velocity": 0.33858267716535434,
                    "duration": 0.3746490000000051
                },
                {
                    "name": "C4",
                    "midi": 60,
                    "time": 150.98354699999985,
                    "velocity": 0.31496062992125984,
                    "duration": 0.7492980000000102
                },
                {
                    "name": "A4",
                    "midi": 69,
                    "time": 150.98354699999985,
                    "velocity": 0.31496062992125984,
                    "duration": 0.3746490000000051
                },
                {
                    "name": "G4",
                    "midi": 67,
                    "time": 151.35819599999985,
                    "velocity": 0.31496062992125984,
                    "duration": 0.3746490000000051
                },
                {
                    "name": "F4",
                    "midi": 65,
                    "time": 151.73284499999986,
                    "velocity": 0.31496062992125984,
                    "duration": 0.3746490000000051
                },
                {
                    "name": "A3",
                    "midi": 57,
                    "time": 152.29481849999985,
                    "velocity": 0.3858267716535433,
                    "duration": 0.18732449999998835
                },
                {
                    "name": "G3",
                    "midi": 55,
                    "time": 152.48214299999984,
                    "velocity": 0.4330708661417323,
                    "duration": 0.18732449999998835
                },
                {
                    "name": "F3",
                    "midi": 53,
                    "time": 152.66946749999983,
                    "velocity": 0.3779527559055118,
                    "duration": 0.18732449999998835
                },
                {
                    "name": "E3",
                    "midi": 52,
                    "time": 152.8567919999998,
                    "velocity": 0.3779527559055118,
                    "duration": 0.3746490000000051
                },
                {
                    "name": "D4",
                    "midi": 62,
                    "time": 153.4187654999998,
                    "velocity": 0.3543307086614173,
                    "duration": 0.18732449999998835
                },
                {
                    "name": "C4",
                    "midi": 60,
                    "time": 153.6060899999998,
                    "velocity": 0.3937007874015748,
                    "duration": 0.18732449999998835
                },
                {
                    "name": "E3",
                    "midi": 52,
                    "time": 153.79341449999978,
                    "velocity": 0.3543307086614173,
                    "duration": 0.18732449999998835
                },
                {
                    "name": "F3",
                    "midi": 53,
                    "time": 153.98073899999977,
                    "velocity": 0.31496062992125984,
                    "duration": 0.3746490000000051
                },
                {
                    "name": "A3",
                    "midi": 57,
                    "time": 154.54271249999977,
                    "velocity": 0.3937007874015748,
                    "duration": 0.18732449999998835
                },
                {
                    "name": "G3",
                    "midi": 55,
                    "time": 154.73003699999975,
                    "velocity": 0.4330708661417323,
                    "duration": 0.18732449999998835
                },
                {
                    "name": "F3",
                    "midi": 53,
                    "time": 154.91736149999974,
                    "velocity": 0.3700787401574803,
                    "duration": 0.18732449999998835
                },
                {
                    "name": "E3",
                    "midi": 52,
                    "time": 155.10468599999973,
                    "velocity": 0.3700787401574803,
                    "duration": 0.3746490000000051
                },
                {
                    "name": "D4",
                    "midi": 62,
                    "time": 155.66665949999972,
                    "velocity": 0.3543307086614173,
                    "duration": 0.18732449999998835
                },
                {
                    "name": "C4",
                    "midi": 60,
                    "time": 155.8539839999997,
                    "velocity": 0.3937007874015748,
                    "duration": 0.18732449999998835
                },
                {
                    "name": "E3",
                    "midi": 52,
                    "time": 156.0413084999997,
                    "velocity": 0.3543307086614173,
                    "duration": 0.18732449999998835
                },
                {
                    "name": "F3",
                    "midi": 53,
                    "time": 156.2286329999997,
                    "velocity": 0.31496062992125984,
                    "duration": 0.3746490000000051
                },
                {
                    "name": "C4",
                    "midi": 60,
                    "time": 156.79060649999968,
                    "velocity": 0.3700787401574803,
                    "duration": 0.18732449999998835
                },
                {
                    "name": "A3",
                    "midi": 57,
                    "time": 156.97793099999967,
                    "velocity": 0.4094488188976378,
                    "duration": 0.18732449999998835
                },
                {
                    "name": "G3",
                    "midi": 55,
                    "time": 157.16525549999966,
                    "velocity": 0.3700787401574803,
                    "duration": 0.18732449999998835
                },
                {
                    "name": "F#3",
                    "midi": 54,
                    "time": 157.35257999999965,
                    "velocity": 0.3464566929133858,
                    "duration": 0.3746490000000051
                },
                {
                    "name": "D#4",
                    "midi": 63,
                    "time": 157.91455349999964,
                    "velocity": 0.3543307086614173,
                    "duration": 0.18732449999998835
                },
                {
                    "name": "D4",
                    "midi": 62,
                    "time": 158.10187799999963,
                    "velocity": 0.3937007874015748,
                    "duration": 0.18732449999998835
                },
                {
                    "name": "F#3",
                    "midi": 54,
                    "time": 158.28920249999962,
                    "velocity": 0.3543307086614173,
                    "duration": 0.18732449999998835
                },
                {
                    "name": "G3",
                    "midi": 55,
                    "time": 158.4765269999996,
                    "velocity": 0.33070866141732286,
                    "duration": 0.09366224999999417
                },
                {
                    "name": "D4",
                    "midi": 62,
                    "time": 158.5701892499996,
                    "velocity": 0.25984251968503935,
                    "duration": 0.09366224999999417
                },
                {
                    "name": "B3",
                    "midi": 59,
                    "time": 158.6638514999996,
                    "velocity": 0.28346456692913385,
                    "duration": 0.09366224999999417
                },
                {
                    "name": "D4",
                    "midi": 62,
                    "time": 158.7575137499996,
                    "velocity": 0.25984251968503935,
                    "duration": 0.09366224999999417
                },
                {
                    "name": "E3",
                    "midi": 52,
                    "time": 158.85117599999958,
                    "velocity": 0.2992125984251969,
                    "duration": 0.09366224999999417
                },
                {
                    "name": "C#4",
                    "midi": 61,
                    "time": 158.94483824999958,
                    "velocity": 0.25984251968503935,
                    "duration": 0.09366224999999417
                },
                {
                    "name": "G3",
                    "midi": 55,
                    "time": 159.03850049999957,
                    "velocity": 0.28346456692913385,
                    "duration": 0.09366224999999417
                },
                {
                    "name": "C#4",
                    "midi": 61,
                    "time": 159.13216274999957,
                    "velocity": 0.25984251968503935,
                    "duration": 0.09366224999999417
                },
                {
                    "name": "F3",
                    "midi": 53,
                    "time": 159.22582499999956,
                    "velocity": 0.30708661417322836,
                    "duration": 0.09366224999999417
                },
                {
                    "name": "C4",
                    "midi": 60,
                    "time": 159.31948724999955,
                    "velocity": 0.25984251968503935,
                    "duration": 0.09366224999999417
                },
                {
                    "name": "A3",
                    "midi": 57,
                    "time": 159.41314949999955,
                    "velocity": 0.29133858267716534,
                    "duration": 0.09366224999999417
                },
                {
                    "name": "C4",
                    "midi": 60,
                    "time": 159.50681174999954,
                    "velocity": 0.29133858267716534,
                    "duration": 0.09366224999999417
                },
                {
                    "name": "A#2",
                    "midi": 46,
                    "time": 159.60047399999954,
                    "velocity": 0.2440944881889764,
                    "duration": 0.3746490000000051
                },
                {
                    "name": "A#3",
                    "midi": 58,
                    "time": 159.60047399999954,
                    "velocity": 0.29133858267716534,
                    "duration": 0.3746490000000051
                },
                {
                    "name": "C3",
                    "midi": 48,
                    "time": 159.97512299999954,
                    "velocity": 0.2440944881889764,
                    "duration": 0.3746490000000051
                },
                {
                    "name": "A3",
                    "midi": 57,
                    "time": 159.97512299999954,
                    "velocity": 0.29133858267716534,
                    "duration": 0.3746490000000051
                },
                {
                    "name": "A#2",
                    "midi": 46,
                    "time": 160.34977199999955,
                    "velocity": 0.2440944881889764,
                    "duration": 0.3746490000000051
                },
                {
                    "name": "G3",
                    "midi": 55,
                    "time": 160.34977199999955,
                    "velocity": 0.29133858267716534,
                    "duration": 0.3746490000000051
                },
                {
                    "name": "A2",
                    "midi": 45,
                    "time": 160.72442099999955,
                    "velocity": 0.2677165354330709,
                    "duration": 0.3746490000000051
                },
                {
                    "name": "F3",
                    "midi": 53,
                    "time": 160.72442099999955,
                    "velocity": 0.31496062992125984,
                    "duration": 0.3746490000000051
                },
                {
                    "name": "C4",
                    "midi": 60,
                    "time": 161.47371899999956,
                    "velocity": 0.29133858267716534,
                    "duration": 0.3746490000000051
                },
                {
                    "name": "A3",
                    "midi": 57,
                    "time": 161.47371899999956,
                    "velocity": 0.2440944881889764,
                    "duration": 0.3746490000000051
                },
                {
                    "name": "A#3",
                    "midi": 58,
                    "time": 161.84836799999957,
                    "velocity": 0.29133858267716534,
                    "duration": 0.3746490000000051
                },
                {
                    "name": "D4",
                    "midi": 62,
                    "time": 161.84836799999957,
                    "velocity": 0.3464566929133858,
                    "duration": 0.3746490000000051
                },
                {
                    "name": "D3",
                    "midi": 50,
                    "time": 162.59766599999958,
                    "velocity": 0.2440944881889764,
                    "duration": 0.3746490000000051
                },
                {
                    "name": "F3",
                    "midi": 53,
                    "time": 162.59766599999958,
                    "velocity": 0.2440944881889764,
                    "duration": 0.3746490000000051
                },
                {
                    "name": "G3",
                    "midi": 55,
                    "time": 162.59766599999958,
                    "velocity": 0.29133858267716534,
                    "duration": 0.3746490000000051
                },
                {
                    "name": "C3",
                    "midi": 48,
                    "time": 162.97231499999958,
                    "velocity": 0.3543307086614173,
                    "duration": 0.09366224999999417
                },
                {
                    "name": "A3",
                    "midi": 57,
                    "time": 163.06597724999958,
                    "velocity": 0.29133858267716534,
                    "duration": 0.09366224999999417
                },
                {
                    "name": "F3",
                    "midi": 53,
                    "time": 163.15963949999957,
                    "velocity": 0.31496062992125984,
                    "duration": 0.09366224999999417
                },
                {
                    "name": "A3",
                    "midi": 57,
                    "time": 163.25330174999957,
                    "velocity": 0.29133858267716534,
                    "duration": 0.09366224999999417
                },
                {
                    "name": "C3",
                    "midi": 48,
                    "time": 163.34696399999956,
                    "velocity": 0.3543307086614173,
                    "duration": 0.09366224999999417
                },
                {
                    "name": "A3",
                    "midi": 57,
                    "time": 163.44062624999955,
                    "velocity": 0.29133858267716534,
                    "duration": 0.09366224999999417
                },
                {
                    "name": "F3",
                    "midi": 53,
                    "time": 163.53428849999955,
                    "velocity": 0.31496062992125984,
                    "duration": 0.09366224999999417
                },
                {
                    "name": "A3",
                    "midi": 57,
                    "time": 163.62795074999954,
                    "velocity": 0.29133858267716534,
                    "duration": 0.09366224999999417
                },
                {
                    "name": "C3",
                    "midi": 48,
                    "time": 163.72161299999954,
                    "velocity": 0.3779527559055118,
                    "duration": 0.09366224999999417
                },
                {
                    "name": "A3",
                    "midi": 57,
                    "time": 163.81527524999953,
                    "velocity": 0.29133858267716534,
                    "duration": 0.09366224999999417
                },
                {
                    "name": "F3",
                    "midi": 53,
                    "time": 163.90893749999952,
                    "velocity": 0.3228346456692913,
                    "duration": 0.09366224999999417
                },
                {
                    "name": "A3",
                    "midi": 57,
                    "time": 164.00259974999952,
                    "velocity": 0.29133858267716534,
                    "duration": 0.09366224999999417
                },
                {
                    "name": "C3",
                    "midi": 48,
                    "time": 164.0962619999995,
                    "velocity": 0.3543307086614173,
                    "duration": 0.09366224999999417
                },
                {
                    "name": "A#3",
                    "midi": 58,
                    "time": 164.1899242499995,
                    "velocity": 0.29133858267716534,
                    "duration": 0.09366224999999417
                },
                {
                    "name": "E3",
                    "midi": 52,
                    "time": 164.2835864999995,
                    "velocity": 0.31496062992125984,
                    "duration": 0.09366224999999417
                },
                {
                    "name": "A#3",
                    "midi": 58,
                    "time": 164.3772487499995,
                    "velocity": 0.29133858267716534,
                    "duration": 0.09366224999999417
                },
                {
                    "name": "C3",
                    "midi": 48,
                    "time": 164.4709109999995,
                    "velocity": 0.3543307086614173,
                    "duration": 0.09366224999999417
                },
                {
                    "name": "A#3",
                    "midi": 58,
                    "time": 164.56457324999948,
                    "velocity": 0.29133858267716534,
                    "duration": 0.09366224999999417
                },
                {
                    "name": "E3",
                    "midi": 52,
                    "time": 164.65823549999948,
                    "velocity": 0.31496062992125984,
                    "duration": 0.09366224999999417
                },
                {
                    "name": "A#3",
                    "midi": 58,
                    "time": 164.75189774999947,
                    "velocity": 0.29133858267716534,
                    "duration": 0.09366224999999417
                },
                {
                    "name": "C3",
                    "midi": 48,
                    "time": 164.84555999999947,
                    "velocity": 0.3779527559055118,
                    "duration": 0.09366224999999417
                },
                {
                    "name": "A#3",
                    "midi": 58,
                    "time": 164.93922224999946,
                    "velocity": 0.29133858267716534,
                    "duration": 0.09366224999999417
                },
                {
                    "name": "E3",
                    "midi": 52,
                    "time": 165.03288449999945,
                    "velocity": 0.3228346456692913,
                    "duration": 0.09366224999999417
                },
                {
                    "name": "A#3",
                    "midi": 58,
                    "time": 165.12654674999945,
                    "velocity": 0.29133858267716534,
                    "duration": 0.09366224999999417
                },
                {
                    "name": "F3",
                    "midi": 53,
                    "time": 165.22020899999944,
                    "velocity": 0.3228346456692913,
                    "duration": 0.1966907249999963
                },
                {
                    "name": "A3",
                    "midi": 57,
                    "time": 165.40753349999943,
                    "velocity": 0.2204724409448819,
                    "duration": 0.1966907250000247
                },
                {
                    "name": "C4",
                    "midi": 60,
                    "time": 165.59485799999945,
                    "velocity": 0.2755905511811024,
                    "duration": 0.1966907250000247
                },
                {
                    "name": "F4",
                    "midi": 65,
                    "time": 165.78218249999946,
                    "velocity": 0.2677165354330709,
                    "duration": 0.1966907250000247
                },
                {
                    "name": "E4",
                    "midi": 64,
                    "time": 165.96950699999948,
                    "velocity": 0.25196850393700787,
                    "duration": 0.1966907250000247
                },
                {
                    "name": "D#4",
                    "midi": 63,
                    "time": 166.1568314999995,
                    "velocity": 0.23622047244094488,
                    "duration": 0.1966907250000247
                },
                {
                    "name": "D4",
                    "midi": 62,
                    "time": 166.34415599999951,
                    "velocity": 0.2204724409448819,
                    "duration": 0.18732450000001677
                },
                {
                    "name": "F4",
                    "midi": 65,
                    "time": 166.53148049999953,
                    "velocity": 0.16535433070866143,
                    "duration": 0.18732449999998835
                },
                {
                    "name": "C4",
                    "midi": 60,
                    "time": 166.71880499999952,
                    "velocity": 0.2440944881889764,
                    "duration": 0.18732449999998835
                },
                {
                    "name": "F4",
                    "midi": 65,
                    "time": 166.9061294999995,
                    "velocity": 0.1889763779527559,
                    "duration": 0.18732449999998835
                },
                {
                    "name": "A#3",
                    "midi": 58,
                    "time": 167.0934539999995,
                    "velocity": 0.2440944881889764,
                    "duration": 0.18732449999998835
                },
                {
                    "name": "F4",
                    "midi": 65,
                    "time": 167.28077849999949,
                    "velocity": 0.1968503937007874,
                    "duration": 0.18732449999998835
                },
                {
                    "name": "A3",
                    "midi": 57,
                    "time": 167.46810299999947,
                    "velocity": 0.2440944881889764,
                    "duration": 0.18732449999998835
                },
                {
                    "name": "F4",
                    "midi": 65,
                    "time": 167.65542749999946,
                    "velocity": 0.2204724409448819,
                    "duration": 0.18732449999998835
                },
                {
                    "name": "E4",
                    "midi": 64,
                    "time": 167.84275199999945,
                    "velocity": 0.2440944881889764,
                    "duration": 0.18732449999998835
                },
                {
                    "name": "F4",
                    "midi": 65,
                    "time": 168.03007649999944,
                    "velocity": 0.2204724409448819,
                    "duration": 0.18732449999998835
                },
                {
                    "name": "A#3",
                    "midi": 58,
                    "time": 168.21740099999943,
                    "velocity": 0.2440944881889764,
                    "duration": 0.18732449999998835
                },
                {
                    "name": "G4",
                    "midi": 67,
                    "time": 168.40472549999942,
                    "velocity": 0.2125984251968504,
                    "duration": 0.18732449999998835
                },
                {
                    "name": "C4",
                    "midi": 60,
                    "time": 168.5920499999994,
                    "velocity": 0.2440944881889764,
                    "duration": 0.18732449999998835
                },
                {
                    "name": "A4",
                    "midi": 69,
                    "time": 168.7793744999994,
                    "velocity": 0.2125984251968504,
                    "duration": 0.18732449999998835
                },
                {
                    "name": "F4",
                    "midi": 65,
                    "time": 168.96669899999938,
                    "velocity": 0.2440944881889764,
                    "duration": 0.18732449999998835
                },
                {
                    "name": "A4",
                    "midi": 69,
                    "time": 169.15402349999937,
                    "velocity": 0.2283464566929134,
                    "duration": 0.18732449999998835
                },
                {
                    "name": "C4",
                    "midi": 60,
                    "time": 169.34134799999936,
                    "velocity": 0.2440944881889764,
                    "duration": 0.18732449999998835
                },
                {
                    "name": "A#4",
                    "midi": 70,
                    "time": 169.52867249999935,
                    "velocity": 0.2125984251968504,
                    "duration": 0.18732449999998835
                },
                {
                    "name": "A4",
                    "midi": 69,
                    "time": 169.71599699999933,
                    "velocity": 0.2440944881889764,
                    "duration": 0.18732449999998835
                },
                {
                    "name": "F4",
                    "midi": 65,
                    "time": 169.90332149999932,
                    "velocity": 0.1889763779527559,
                    "duration": 0.18732449999998835
                },
                {
                    "name": "E4",
                    "midi": 64,
                    "time": 170.0906459999993,
                    "velocity": 0.23622047244094488,
                    "duration": 0.18732449999998835
                },
                {
                    "name": "D#4",
                    "midi": 63,
                    "time": 170.2779704999993,
                    "velocity": 0.2047244094488189,
                    "duration": 0.18732449999998835
                },
                {
                    "name": "D4",
                    "midi": 62,
                    "time": 170.4652949999993,
                    "velocity": 0.2283464566929134,
                    "duration": 0.18732449999998835
                },
                {
                    "name": "C#4",
                    "midi": 61,
                    "time": 170.65261949999928,
                    "velocity": 0.2440944881889764,
                    "duration": 0.18732449999998835
                },
                {
                    "name": "D4",
                    "midi": 62,
                    "time": 170.83994399999926,
                    "velocity": 0.2204724409448819,
                    "duration": 0.18732449999998835
                },
                {
                    "name": "F4",
                    "midi": 65,
                    "time": 171.02726849999925,
                    "velocity": 0.2125984251968504,
                    "duration": 0.18732449999998835
                },
                {
                    "name": "C4",
                    "midi": 60,
                    "time": 171.21459299999924,
                    "velocity": 0.2992125984251969,
                    "duration": 0.18732449999998835
                },
                {
                    "name": "E4",
                    "midi": 64,
                    "time": 171.40191749999923,
                    "velocity": 0.25196850393700787,
                    "duration": 0.18732449999998835
                },
                {
                    "name": "B3",
                    "midi": 59,
                    "time": 171.58924199999922,
                    "velocity": 0.31496062992125984,
                    "duration": 0.18732449999998835
                },
                {
                    "name": "G#4",
                    "midi": 68,
                    "time": 171.7765664999992,
                    "velocity": 0.2677165354330709,
                    "duration": 0.18732449999998835
                },
                {
                    "name": "C4",
                    "midi": 60,
                    "time": 171.9638909999992,
                    "velocity": 0.3228346456692913,
                    "duration": 0.18732449999998835
                },
                {
                    "name": "A4",
                    "midi": 69,
                    "time": 172.15121549999918,
                    "velocity": 0.2755905511811024,
                    "duration": 0.18732449999998835
                },
                {
                    "name": "F4",
                    "midi": 65,
                    "time": 172.33853999999917,
                    "velocity": 0.2992125984251969,
                    "duration": 0.18732449999998835
                },
                {
                    "name": "A4",
                    "midi": 69,
                    "time": 172.52586449999916,
                    "velocity": 0.25984251968503935,
                    "duration": 0.18732449999998835
                },
                {
                    "name": "C4",
                    "midi": 60,
                    "time": 172.71318899999915,
                    "velocity": 0.31496062992125984,
                    "duration": 0.18732449999998835
                },
                {
                    "name": "A4",
                    "midi": 69,
                    "time": 172.90051349999914,
                    "velocity": 0.2755905511811024,
                    "duration": 0.18732449999998835
                },
                {
                    "name": "C4",
                    "midi": 60,
                    "time": 173.08783799999912,
                    "velocity": 0.3228346456692913,
                    "duration": 0.18732449999998835
                },
                {
                    "name": "C5",
                    "midi": 72,
                    "time": 173.2751624999991,
                    "velocity": 0.25984251968503935,
                    "duration": 0.18732449999998835
                },
                {
                    "name": "A4",
                    "midi": 69,
                    "time": 173.4624869999991,
                    "velocity": 0.33858267716535434,
                    "duration": 0.18732449999998835
                },
                {
                    "name": "C5",
                    "midi": 72,
                    "time": 173.6498114999991,
                    "velocity": 0.25984251968503935,
                    "duration": 0.18732449999998835
                },
                {
                    "name": "C4",
                    "midi": 60,
                    "time": 173.83713599999908,
                    "velocity": 0.3543307086614173,
                    "duration": 0.18732449999998835
                },
                {
                    "name": "A#4",
                    "midi": 70,
                    "time": 174.02446049999907,
                    "velocity": 0.2992125984251969,
                    "duration": 0.18732449999998835
                },
                {
                    "name": "F3",
                    "midi": 53,
                    "time": 174.30544724999905,
                    "velocity": 0.4251968503937008,
                    "duration": 0.09366224999999417
                },
                {
                    "name": "A3",
                    "midi": 57,
                    "time": 174.39910949999904,
                    "velocity": 0.4409448818897638,
                    "duration": 0.09366224999999417
                },
                {
                    "name": "C4",
                    "midi": 60,
                    "time": 174.49277174999904,
                    "velocity": 0.4645669291338583,
                    "duration": 0.09366224999999417
                },
                {
                    "name": "F4",
                    "midi": 65,
                    "time": 174.58643399999903,
                    "velocity": 0.48031496062992124,
                    "duration": 0.18732449999998835
                },
                {
                    "name": "C4",
                    "midi": 60,
                    "time": 174.961082999999,
                    "velocity": 0.4251968503937008,
                    "duration": 0.18732449999998835
                },
                {
                    "name": "E4",
                    "midi": 64,
                    "time": 174.961082999999,
                    "velocity": 0.4251968503937008,
                    "duration": 0.18732449999998835
                },
                {
                    "name": "F2",
                    "midi": 41,
                    "time": 175.429394249999,
                    "velocity": 0.4251968503937008,
                    "duration": 0.09366224999999417
                },
                {
                    "name": "A2",
                    "midi": 45,
                    "time": 175.523056499999,
                    "velocity": 0.4409448818897638,
                    "duration": 0.09366224999999417
                },
                {
                    "name": "C3",
                    "midi": 48,
                    "time": 175.616718749999,
                    "velocity": 0.4645669291338583,
                    "duration": 0.09366224999999417
                },
                {
                    "name": "F3",
                    "midi": 53,
                    "time": 175.710380999999,
                    "velocity": 0.48031496062992124,
                    "duration": 0.18732449999998835
                },
                {
                    "name": "C3",
                    "midi": 48,
                    "time": 176.08502999999897,
                    "velocity": 0.4251968503937008,
                    "duration": 0.18732449999998835
                },
                {
                    "name": "E3",
                    "midi": 52,
                    "time": 176.08502999999897,
                    "velocity": 0.4251968503937008,
                    "duration": 0.18732449999998835
                },
                {
                    "name": "F3",
                    "midi": 53,
                    "time": 176.45967899999894,
                    "velocity": 0.4645669291338583,
                    "duration": 0.09366224999999417
                },
                {
                    "name": "F2",
                    "midi": 41,
                    "time": 176.83432799999895,
                    "velocity": 0.4645669291338583,
                    "duration": 0.3746490000000051
                },
                {
                    "name": "D#3",
                    "midi": 51,
                    "time": 177.58362599999896,
                    "velocity": 0.4645669291338583,
                    "duration": 0.3746490000000051
                },
                {
                    "name": "D#2",
                    "midi": 39,
                    "time": 177.95827499999896,
                    "velocity": 0.4645669291338583,
                    "duration": 0.3746490000000051
                },
                {
                    "name": "C#3",
                    "midi": 49,
                    "time": 178.70757299999897,
                    "velocity": 0.15748031496062992,
                    "duration": 1.12394699999993
                },
                {
                    "name": "F3",
                    "midi": 53,
                    "time": 178.70757299999897,
                    "velocity": 0.25984251968503935,
                    "duration": 0.18732449999998835
                },
                {
                    "name": "G#3",
                    "midi": 56,
                    "time": 178.89489749999896,
                    "velocity": 0.18110236220472442,
                    "duration": 0.18732449999998835
                },
                {
                    "name": "F3",
                    "midi": 53,
                    "time": 179.08222199999895,
                    "velocity": 0.2125984251968504,
                    "duration": 0.18732449999998835
                },
                {
                    "name": "G#3",
                    "midi": 56,
                    "time": 179.26954649999894,
                    "velocity": 0.1732283464566929,
                    "duration": 0.18732449999998835
                },
                {
                    "name": "F3",
                    "midi": 53,
                    "time": 179.45687099999893,
                    "velocity": 0.2047244094488189,
                    "duration": 0.18732449999998835
                },
                {
                    "name": "G#3",
                    "midi": 56,
                    "time": 179.64419549999892,
                    "velocity": 0.1732283464566929,
                    "duration": 0.18732449999998835
                },
                {
                    "name": "C3",
                    "midi": 48,
                    "time": 179.8315199999989,
                    "velocity": 0.15748031496062992,
                    "duration": 1.12394699999993
                },
                {
                    "name": "F#3",
                    "midi": 54,
                    "time": 179.8315199999989,
                    "velocity": 0.28346456692913385,
                    "duration": 0.18732449999998835
                },
                {
                    "name": "G#3",
                    "midi": 56,
                    "time": 180.0188444999989,
                    "velocity": 0.18110236220472442,
                    "duration": 0.18732449999998835
                },
                {
                    "name": "F#3",
                    "midi": 54,
                    "time": 180.20616899999888,
                    "velocity": 0.2125984251968504,
                    "duration": 0.18732449999998835
                },
                {
                    "name": "G#3",
                    "midi": 56,
                    "time": 180.39349349999887,
                    "velocity": 0.18110236220472442,
                    "duration": 0.18732449999998835
                },
                {
                    "name": "F#3",
                    "midi": 54,
                    "time": 180.58081799999886,
                    "velocity": 0.2125984251968504,
                    "duration": 0.18732449999998835
                },
                {
                    "name": "G#3",
                    "midi": 56,
                    "time": 180.76814249999885,
                    "velocity": 0.1889763779527559,
                    "duration": 0.18732449999998835
                },
                {
                    "name": "C#3",
                    "midi": 49,
                    "time": 180.95546699999883,
                    "velocity": 0.15748031496062992,
                    "duration": 1.12394699999993
                },
                {
                    "name": "F3",
                    "midi": 53,
                    "time": 180.95546699999883,
                    "velocity": 0.25984251968503935,
                    "duration": 0.18732449999998835
                },
                {
                    "name": "G#3",
                    "midi": 56,
                    "time": 181.14279149999882,
                    "velocity": 0.18110236220472442,
                    "duration": 0.18732449999998835
                },
                {
                    "name": "F3",
                    "midi": 53,
                    "time": 181.3301159999988,
                    "velocity": 0.2125984251968504,
                    "duration": 0.18732449999998835
                },
                {
                    "name": "G#3",
                    "midi": 56,
                    "time": 181.5174404999988,
                    "velocity": 0.18110236220472442,
                    "duration": 0.18732449999998835
                },
                {
                    "name": "F3",
                    "midi": 53,
                    "time": 181.7047649999988,
                    "velocity": 0.2125984251968504,
                    "duration": 0.18732449999998835
                },
                {
                    "name": "G#3",
                    "midi": 56,
                    "time": 181.89208949999878,
                    "velocity": 0.1968503937007874,
                    "duration": 0.18732449999998835
                },
                {
                    "name": "C3",
                    "midi": 48,
                    "time": 182.07941399999876,
                    "velocity": 0.15748031496062992,
                    "duration": 1.12394699999993
                },
                {
                    "name": "F#3",
                    "midi": 54,
                    "time": 182.07941399999876,
                    "velocity": 0.2440944881889764,
                    "duration": 0.18732449999998835
                },
                {
                    "name": "G#3",
                    "midi": 56,
                    "time": 182.26673849999875,
                    "velocity": 0.2125984251968504,
                    "duration": 0.18732449999998835
                },
                {
                    "name": "F#3",
                    "midi": 54,
                    "time": 182.45406299999874,
                    "velocity": 0.2125984251968504,
                    "duration": 0.18732449999998835
                },
                {
                    "name": "G#3",
                    "midi": 56,
                    "time": 182.64138749999873,
                    "velocity": 0.1889763779527559,
                    "duration": 0.18732449999998835
                },
                {
                    "name": "F#3",
                    "midi": 54,
                    "time": 182.82871199999872,
                    "velocity": 0.2125984251968504,
                    "duration": 0.18732449999998835
                },
                {
                    "name": "G#3",
                    "midi": 56,
                    "time": 183.0160364999987,
                    "velocity": 0.18110236220472442,
                    "duration": 0.18732449999998835
                },
                {
                    "name": "C#3",
                    "midi": 49,
                    "time": 183.2033609999987,
                    "velocity": 0.16535433070866143,
                    "duration": 1.12394699999993
                },
                {
                    "name": "F3",
                    "midi": 53,
                    "time": 183.2033609999987,
                    "velocity": 0.2755905511811024,
                    "duration": 0.18732449999998835
                },
                {
                    "name": "G#3",
                    "midi": 56,
                    "time": 183.39068549999868,
                    "velocity": 0.1889763779527559,
                    "duration": 0.18732449999998835
                },
                {
                    "name": "F3",
                    "midi": 53,
                    "time": 183.57800999999867,
                    "velocity": 0.2204724409448819,
                    "duration": 0.18732449999998835
                },
                {
                    "name": "G#3",
                    "midi": 56,
                    "time": 183.76533449999866,
                    "velocity": 0.18110236220472442,
                    "duration": 0.18732449999998835
                },
                {
                    "name": "F3",
                    "midi": 53,
                    "time": 183.95265899999865,
                    "velocity": 0.2125984251968504,
                    "duration": 0.18732449999998835
                },
                {
                    "name": "G#3",
                    "midi": 56,
                    "time": 184.13998349999864,
                    "velocity": 0.18110236220472442,
                    "duration": 0.18732449999998835
                },
                {
                    "name": "C3",
                    "midi": 48,
                    "time": 184.32730799999862,
                    "velocity": 0.16535433070866143,
                    "duration": 1.12394699999993
                },
                {
                    "name": "D#3",
                    "midi": 51,
                    "time": 184.32730799999862,
                    "velocity": 0.2992125984251969,
                    "duration": 0.18732449999998835
                },
                {
                    "name": "F#3",
                    "midi": 54,
                    "time": 184.5146324999986,
                    "velocity": 0.1889763779527559,
                    "duration": 0.18732449999998835
                },
                {
                    "name": "D#3",
                    "midi": 51,
                    "time": 184.7019569999986,
                    "velocity": 0.25196850393700787,
                    "duration": 0.18732449999998835
                },
                {
                    "name": "F#3",
                    "midi": 54,
                    "time": 184.8892814999986,
                    "velocity": 0.2204724409448819,
                    "duration": 0.18732449999998835
                },
                {
                    "name": "D#3",
                    "midi": 51,
                    "time": 185.07660599999858,
                    "velocity": 0.25196850393700787,
                    "duration": 0.18732449999998835
                },
                {
                    "name": "F#3",
                    "midi": 54,
                    "time": 185.26393049999857,
                    "velocity": 0.2125984251968504,
                    "duration": 0.18732449999998835
                },
                {
                    "name": "C#3",
                    "midi": 49,
                    "time": 185.45125499999855,
                    "velocity": 0.18110236220472442,
                    "duration": 1.12394699999993
                },
                {
                    "name": "F3",
                    "midi": 53,
                    "time": 185.45125499999855,
                    "velocity": 0.29133858267716534,
                    "duration": 0.18732449999998835
                },
                {
                    "name": "A#3",
                    "midi": 58,
                    "time": 185.63857949999854,
                    "velocity": 0.25196850393700787,
                    "duration": 0.18732449999998835
                },
                {
                    "name": "F3",
                    "midi": 53,
                    "time": 185.82590399999853,
                    "velocity": 0.2677165354330709,
                    "duration": 0.18732449999998835
                },
                {
                    "name": "A#3",
                    "midi": 58,
                    "time": 186.01322849999852,
                    "velocity": 0.2283464566929134,
                    "duration": 0.18732449999998835
                },
                {
                    "name": "F3",
                    "midi": 53,
                    "time": 186.2005529999985,
                    "velocity": 0.23622047244094488,
                    "duration": 0.18732449999998835
                },
                {
                    "name": "A#3",
                    "midi": 58,
                    "time": 186.3878774999985,
                    "velocity": 0.2204724409448819,
                    "duration": 0.18732449999998835
                },
                {
                    "name": "E3",
                    "midi": 52,
                    "time": 186.57520199999848,
                    "velocity": 0.18110236220472442,
                    "duration": 1.1239469999999585
                },
                {
                    "name": "A#3",
                    "midi": 58,
                    "time": 186.57520199999848,
                    "velocity": 0.29133858267716534,
                    "duration": 0.18732449999998835
                },
                {
                    "name": "C#4",
                    "midi": 61,
                    "time": 186.76252649999847,
                    "velocity": 0.23622047244094488,
                    "duration": 0.18732449999998835
                },
                {
                    "name": "A#3",
                    "midi": 58,
                    "time": 186.94985099999846,
                    "velocity": 0.23622047244094488,
                    "duration": 0.18732449999998835
                },
                {
                    "name": "C#4",
                    "midi": 61,
                    "time": 187.13717549999845,
                    "velocity": 0.2125984251968504,
                    "duration": 0.1966907249999963
                },
                {
                    "name": "A#3",
                    "midi": 58,
                    "time": 187.32449999999844,
                    "velocity": 0.23622047244094488,
                    "duration": 0.18732450000001677
                },
                {
                    "name": "C#4",
                    "midi": 61,
                    "time": 187.51182449999845,
                    "velocity": 0.2047244094488189,
                    "duration": 0.18732449999998835
                },
                {
                    "name": "F3",
                    "midi": 53,
                    "time": 187.69914899999844,
                    "velocity": 0.1968503937007874,
                    "duration": 1.12394699999993
                },
                {
                    "name": "G#3",
                    "midi": 56,
                    "time": 187.69914899999844,
                    "velocity": 0.31496062992125984,
                    "duration": 0.18732449999998835
                },
                {
                    "name": "C4",
                    "midi": 60,
                    "time": 187.88647349999843,
                    "velocity": 0.2204724409448819,
                    "duration": 0.18732449999998835
                },
                {
                    "name": "G#3",
                    "midi": 56,
                    "time": 188.07379799999842,
                    "velocity": 0.25984251968503935,
                    "duration": 0.18732449999998835
                },
                {
                    "name": "C4",
                    "midi": 60,
                    "time": 188.2611224999984,
                    "velocity": 0.2204724409448819,
                    "duration": 0.18732449999998835
                },
                {
                    "name": "G#3",
                    "midi": 56,
                    "time": 188.4484469999984,
                    "velocity": 0.28346456692913385,
                    "duration": 0.18732449999998835
                },
                {
                    "name": "C4",
                    "midi": 60,
                    "time": 188.63577149999838,
                    "velocity": 0.25196850393700787,
                    "duration": 0.18732449999998835
                },
                {
                    "name": "G3",
                    "midi": 55,
                    "time": 188.82309599999837,
                    "velocity": 0.28346456692913385,
                    "duration": 1.1239469999999585
                },
                {
                    "name": "D4",
                    "midi": 62,
                    "time": 188.82309599999837,
                    "velocity": 0.28346456692913385,
                    "duration": 0.18732449999998835
                },
                {
                    "name": "F4",
                    "midi": 65,
                    "time": 189.01042049999836,
                    "velocity": 0.2283464566929134,
                    "duration": 0.18732449999998835
                },
                {
                    "name": "D4",
                    "midi": 62,
                    "time": 189.19774499999835,
                    "velocity": 0.2677165354330709,
                    "duration": 0.18732449999998835
                },
                {
                    "name": "F4",
                    "midi": 65,
                    "time": 189.38506949999834,
                    "velocity": 0.2204724409448819,
                    "duration": 0.1966907249999963
                },
                {
                    "name": "D4",
                    "midi": 62,
                    "time": 189.57239399999833,
                    "velocity": 0.2755905511811024,
                    "duration": 0.18732450000001677
                },
                {
                    "name": "F4",
                    "midi": 65,
                    "time": 189.75971849999834,
                    "velocity": 0.2204724409448819,
                    "duration": 0.18732449999998835
                },
                {
                    "name": "G#3",
                    "midi": 56,
                    "time": 189.94704299999833,
                    "velocity": 0.33070866141732286,
                    "duration": 1.12394699999993
                },
                {
                    "name": "C4",
                    "midi": 60,
                    "time": 189.94704299999833,
                    "velocity": 0.33070866141732286,
                    "duration": 0.18732449999998835
                },
                {
                    "name": "D#4",
                    "midi": 63,
                    "time": 190.13436749999832,
                    "velocity": 0.2047244094488189,
                    "duration": 0.18732449999998835
                },
                {
                    "name": "C4",
                    "midi": 60,
                    "time": 190.3216919999983,
                    "velocity": 0.2992125984251969,
                    "duration": 0.18732449999998835
                },
                {
                    "name": "D#4",
                    "midi": 63,
                    "time": 190.5090164999983,
                    "velocity": 0.2440944881889764,
                    "duration": 0.18732449999998835
                },
                {
                    "name": "C4",
                    "midi": 60,
                    "time": 190.69634099999828,
                    "velocity": 0.2992125984251969,
                    "duration": 0.18732449999998835
                },
                {
                    "name": "D#4",
                    "midi": 63,
                    "time": 190.88366549999827,
                    "velocity": 0.2755905511811024,
                    "duration": 0.18732449999998835
                },
                {
                    "name": "A3",
                    "midi": 57,
                    "time": 191.07098999999826,
                    "velocity": 0.3228346456692913,
                    "duration": 1.1239469999999585
                },
                {
                    "name": "C4",
                    "midi": 60,
                    "time": 191.07098999999826,
                    "velocity": 0.3228346456692913,
                    "duration": 0.18732449999998835
                },
                {
                    "name": "D4",
                    "midi": 62,
                    "time": 191.25831449999825,
                    "velocity": 0.25984251968503935,
                    "duration": 0.18732449999998835
                },
                {
                    "name": "C4",
                    "midi": 60,
                    "time": 191.44563899999824,
                    "velocity": 0.29133858267716534,
                    "duration": 0.18732449999998835
                },
                {
                    "name": "D4",
                    "midi": 62,
                    "time": 191.63296349999823,
                    "velocity": 0.2204724409448819,
                    "duration": 0.1966907249999963
                },
                {
                    "name": "C4",
                    "midi": 60,
                    "time": 191.82028799999821,
                    "velocity": 0.2755905511811024,
                    "duration": 0.18732450000001677
                },
                {
                    "name": "D4",
                    "midi": 62,
                    "time": 192.00761249999823,
                    "velocity": 0.2204724409448819,
                    "duration": 0.18732449999998835
                },
                {
                    "name": "A#3",
                    "midi": 58,
                    "time": 192.19493699999822,
                    "velocity": 0.1732283464566929,
                    "duration": 1.12394699999993
                },
                {
                    "name": "D4",
                    "midi": 62,
                    "time": 192.19493699999822,
                    "velocity": 0.28346456692913385,
                    "duration": 0.18732449999998835
                },
                {
                    "name": "G4",
                    "midi": 67,
                    "time": 192.3822614999982,
                    "velocity": 0.2283464566929134,
                    "duration": 0.18732449999998835
                },
                {
                    "name": "D4",
                    "midi": 62,
                    "time": 192.5695859999982,
                    "velocity": 0.2677165354330709,
                    "duration": 0.18732449999998835
                },
                {
                    "name": "G4",
                    "midi": 67,
                    "time": 192.75691049999818,
                    "velocity": 0.2204724409448819,
                    "duration": 0.18732449999998835
                },
                {
                    "name": "D4",
                    "midi": 62,
                    "time": 192.94423499999817,
                    "velocity": 0.2677165354330709,
                    "duration": 0.18732449999998835
                },
                {
                    "name": "G4",
                    "midi": 67,
                    "time": 193.13155949999816,
                    "velocity": 0.2125984251968504,
                    "duration": 0.18732449999998835
                },
                {
                    "name": "D#4",
                    "midi": 63,
                    "time": 193.31888399999815,
                    "velocity": 0.2283464566929134,
                    "duration": 1.1239469999999585
                },
                {
                    "name": "G4",
                    "midi": 67,
                    "time": 193.31888399999815,
                    "velocity": 0.28346456692913385,
                    "duration": 0.18732449999998835
                },
                {
                    "name": "A4",
                    "midi": 69,
                    "time": 193.50620849999814,
                    "velocity": 0.2204724409448819,
                    "duration": 0.18732449999998835
                },
                {
                    "name": "G4",
                    "midi": 67,
                    "time": 193.69353299999813,
                    "velocity": 0.2677165354330709,
                    "duration": 0.18732449999998835
                },
                {
                    "name": "A4",
                    "midi": 69,
                    "time": 193.88085749999811,
                    "velocity": 0.2125984251968504,
                    "duration": 0.1966907249999963
                },
                {
                    "name": "G4",
                    "midi": 67,
                    "time": 194.0681819999981,
                    "velocity": 0.2677165354330709,
                    "duration": 0.18732450000001677
                },
                {
                    "name": "A4",
                    "midi": 69,
                    "time": 194.25550649999812,
                    "velocity": 0.1968503937007874,
                    "duration": 0.18732449999998835
                },
                {
                    "name": "D4",
                    "midi": 62,
                    "time": 194.4428309999981,
                    "velocity": 0.3464566929133858,
                    "duration": 0.3746490000000051
                },
                {
                    "name": "F#4",
                    "midi": 66,
                    "time": 194.4428309999981,
                    "velocity": 0.3464566929133858,
                    "duration": 0.3746490000000051
                },
                {
                    "name": "C5",
                    "midi": 72,
                    "time": 195.19212899999812,
                    "velocity": 0.3700787401574803,
                    "duration": 0.18732449999998835
                },
                {
                    "name": "A#4",
                    "midi": 70,
                    "time": 195.5667779999981,
                    "velocity": 0.4015748031496063,
                    "duration": 0.18732449999998835
                },
                {
                    "name": "F#4",
                    "midi": 66,
                    "time": 195.94142699999807,
                    "velocity": 0.4566929133858268,
                    "duration": 0.18732449999998835
                },
                {
                    "name": "G4",
                    "midi": 67,
                    "time": 196.31607599999805,
                    "velocity": 0.4251968503937008,
                    "duration": 0.18732449999998835
                },
                {
                    "name": "D4",
                    "midi": 62,
                    "time": 196.69072499999803,
                    "velocity": 0.41732283464566927,
                    "duration": 0.3746490000000051
                },
                {
                    "name": "C5",
                    "midi": 72,
                    "time": 197.44002299999804,
                    "velocity": 0.3779527559055118,
                    "duration": 0.18732449999998835
                },
                {
                    "name": "A#4",
                    "midi": 70,
                    "time": 197.814671999998,
                    "velocity": 0.44881889763779526,
                    "duration": 0.18732449999998835
                },
                {
                    "name": "F#4",
                    "midi": 66,
                    "time": 198.189320999998,
                    "velocity": 0.4645669291338583,
                    "duration": 0.18732449999998835
                },
                {
                    "name": "G4",
                    "midi": 67,
                    "time": 198.56396999999797,
                    "velocity": 0.4251968503937008,
                    "duration": 0.18732449999998835
                },
                {
                    "name": "D4",
                    "midi": 62,
                    "time": 198.93861899999794,
                    "velocity": 0.4566929133858268,
                    "duration": 0.3746490000000051
                },
                {
                    "name": "D4",
                    "midi": 62,
                    "time": 199.78157924999795,
                    "velocity": 0.3700787401574803,
                    "duration": 0.09366224999999417
                },
                {
                    "name": "A3",
                    "midi": 57,
                    "time": 199.87524149999794,
                    "velocity": 0.4251968503937008,
                    "duration": 0.09366224999999417
                },
                {
                    "name": "F#3",
                    "midi": 54,
                    "time": 199.96890374999793,
                    "velocity": 0.3700787401574803,
                    "duration": 0.09366224999999417
                },
                {
                    "name": "D3",
                    "midi": 50,
                    "time": 200.06256599999793,
                    "velocity": 0.5433070866141733,
                    "duration": 0.09366224999999417
                },
                {
                    "name": "D2",
                    "midi": 38,
                    "time": 200.43721499999793,
                    "velocity": 0.4645669291338583,
                    "duration": 0.3746490000000051
                },
                {
                    "name": "G3",
                    "midi": 55,
                    "time": 201.18651299999794,
                    "velocity": 0.2677165354330709,
                    "duration": 0.7649083750000045
                },
                {
                    "name": "D3",
                    "midi": 50,
                    "time": 201.93581099999795,
                    "velocity": 0.23622047244094488,
                    "duration": 0.3746490000000051
                },
                {
                    "name": "B2",
                    "midi": 47,
                    "time": 202.31045999999796,
                    "velocity": 0.2677165354330709,
                    "duration": 0.7649083750000045
                },
                {
                    "name": "D3",
                    "midi": 50,
                    "time": 203.05975799999797,
                    "velocity": 0.25196850393700787,
                    "duration": 0.3746490000000051
                },
                {
                    "name": "G3",
                    "midi": 55,
                    "time": 203.43440699999798,
                    "velocity": 0.2677165354330709,
                    "duration": 0.7649083750000045
                },
                {
                    "name": "B3",
                    "midi": 59,
                    "time": 204.18370499999799,
                    "velocity": 0.28346456692913385,
                    "duration": 0.3746490000000051
                },
                {
                    "name": "D4",
                    "midi": 62,
                    "time": 204.558353999998,
                    "velocity": 0.2992125984251969,
                    "duration": 0.3746490000000051
                },
                {
                    "name": "G3",
                    "midi": 55,
                    "time": 205.682300999998,
                    "velocity": 0.2677165354330709,
                    "duration": 0.7649083750000045
                },
                {
                    "name": "D3",
                    "midi": 50,
                    "time": 206.43159899999802,
                    "velocity": 0.23622047244094488,
                    "duration": 0.3746490000000051
                },
                {
                    "name": "B2",
                    "midi": 47,
                    "time": 206.80624799999802,
                    "velocity": 0.2677165354330709,
                    "duration": 0.7649083750000045
                },
                {
                    "name": "D3",
                    "midi": 50,
                    "time": 207.55554599999803,
                    "velocity": 0.25196850393700787,
                    "duration": 0.3746490000000051
                },
                {
                    "name": "G3",
                    "midi": 55,
                    "time": 207.93019499999804,
                    "velocity": 0.2677165354330709,
                    "duration": 0.7649083750000045
                },
                {
                    "name": "B3",
                    "midi": 59,
                    "time": 208.67949299999805,
                    "velocity": 0.28346456692913385,
                    "duration": 0.3746490000000051
                },
                {
                    "name": "D4",
                    "midi": 62,
                    "time": 209.05414199999805,
                    "velocity": 0.2992125984251969,
                    "duration": 0.3746490000000051
                },
                {
                    "name": "G3",
                    "midi": 55,
                    "time": 212.61330749999806,
                    "velocity": 0.30708661417322836,
                    "duration": 0.0468311250000113
                },
                {
                    "name": "G3",
                    "midi": 55,
                    "time": 212.80063199999807,
                    "velocity": 0.33070866141732286,
                    "duration": 0.0468311250000113
                },
                {
                    "name": "G3",
                    "midi": 55,
                    "time": 212.9879564999981,
                    "velocity": 0.29133858267716534,
                    "duration": 0.0468311250000113
                },
                {
                    "name": "G3",
                    "midi": 55,
                    "time": 213.1752809999981,
                    "velocity": 0.30708661417322836,
                    "duration": 0.0468311250000113
                },
                {
                    "name": "G3",
                    "midi": 55,
                    "time": 213.36260549999812,
                    "velocity": 0.2755905511811024,
                    "duration": 0.0468311250000113
                },
                {
                    "name": "G#3",
                    "midi": 56,
                    "time": 213.54992999999814,
                    "velocity": 0.30708661417322836,
                    "duration": 0.1966907249999963
                },
                {
                    "name": "G3",
                    "midi": 55,
                    "time": 213.73725449999813,
                    "velocity": 0.2755905511811024,
                    "duration": 0.1966907250000247
                },
                {
                    "name": "F3",
                    "midi": 53,
                    "time": 213.92457899999815,
                    "velocity": 0.29133858267716534,
                    "duration": 0.1966907250000247
                },
                {
                    "name": "D#3",
                    "midi": 51,
                    "time": 214.11190349999816,
                    "velocity": 0.2755905511811024,
                    "duration": 0.1966907250000247
                },
                {
                    "name": "D3",
                    "midi": 50,
                    "time": 214.29922799999818,
                    "velocity": 0.30708661417322836,
                    "duration": 0.1966907250000247
                },
                {
                    "name": "C3",
                    "midi": 48,
                    "time": 214.4865524999982,
                    "velocity": 0.2677165354330709,
                    "duration": 0.18732450000001677
                },
                {
                    "name": "C3",
                    "midi": 48,
                    "time": 214.6738769999982,
                    "velocity": 0.2755905511811024,
                    "duration": 0.18732449999998835
                },
                {
                    "name": "A#2",
                    "midi": 46,
                    "time": 214.8612014999982,
                    "velocity": 0.2992125984251969,
                    "duration": 0.18732449999998835
                },
                {
                    "name": "A#2",
                    "midi": 46,
                    "time": 215.0485259999982,
                    "velocity": 0.30708661417322836,
                    "duration": 0.3746490000000051
                },
                {
                    "name": "A#3",
                    "midi": 58,
                    "time": 217.1090954999982,
                    "velocity": 0.30708661417322836,
                    "duration": 0.0468311250000113
                },
                {
                    "name": "A#3",
                    "midi": 58,
                    "time": 217.29641999999822,
                    "velocity": 0.3228346456692913,
                    "duration": 0.0468311250000113
                },
                {
                    "name": "A#3",
                    "midi": 58,
                    "time": 217.48374449999824,
                    "velocity": 0.28346456692913385,
                    "duration": 0.0468311250000113
                },
                {
                    "name": "A#3",
                    "midi": 58,
                    "time": 217.67106899999825,
                    "velocity": 0.2992125984251969,
                    "duration": 0.0468311250000113
                },
                {
                    "name": "A#3",
                    "midi": 58,
                    "time": 217.85839349999827,
                    "velocity": 0.2755905511811024,
                    "duration": 0.0468311250000113
                },
                {
                    "name": "C4",
                    "midi": 60,
                    "time": 218.0457179999983,
                    "velocity": 0.30708661417322836,
                    "duration": 0.1966907249999963
                },
                {
                    "name": "A#3",
                    "midi": 58,
                    "time": 218.23304249999828,
                    "velocity": 0.2755905511811024,
                    "duration": 0.1966907250000247
                },
                {
                    "name": "G#3",
                    "midi": 56,
                    "time": 218.4203669999983,
                    "velocity": 0.2755905511811024,
                    "duration": 0.1966907250000247
                },
                {
                    "name": "G3",
                    "midi": 55,
                    "time": 218.6076914999983,
                    "velocity": 0.2755905511811024,
                    "duration": 0.1966907250000247
                },
                {
                    "name": "F3",
                    "midi": 53,
                    "time": 218.79501599999833,
                    "velocity": 0.30708661417322836,
                    "duration": 0.1966907250000247
                },
                {
                    "name": "E3",
                    "midi": 52,
                    "time": 218.98234049999834,
                    "velocity": 0.2677165354330709,
                    "duration": 0.18732450000001677
                },
                {
                    "name": "F3",
                    "midi": 53,
                    "time": 219.16966499999836,
                    "velocity": 0.31496062992125984,
                    "duration": 0.7649083750000045
                },
                {
                    "name": "A#3",
                    "midi": 58,
                    "time": 220.29361199999838,
                    "velocity": 0.2204724409448819,
                    "duration": 1.1239470000000154
                },
                {
                    "name": "D4",
                    "midi": 62,
                    "time": 220.29361199999838,
                    "velocity": 0.2204724409448819,
                    "duration": 0.3746490000000051
                },
                {
                    "name": "F4",
                    "midi": 65,
                    "time": 220.29361199999838,
                    "velocity": 0.2677165354330709,
                    "duration": 0.3746490000000051
                },
                {
                    "name": "D#4",
                    "midi": 63,
                    "time": 220.66826099999838,
                    "velocity": 0.2204724409448819,
                    "duration": 0.3746490000000051
                },
                {
                    "name": "G4",
                    "midi": 67,
                    "time": 220.66826099999838,
                    "velocity": 0.2677165354330709,
                    "duration": 0.3746490000000051
                },
                {
                    "name": "F4",
                    "midi": 65,
                    "time": 221.0429099999984,
                    "velocity": 0.2204724409448819,
                    "duration": 0.3746490000000051
                },
                {
                    "name": "A4",
                    "midi": 69,
                    "time": 221.0429099999984,
                    "velocity": 0.2677165354330709,
                    "duration": 0.3746490000000051
                },
                {
                    "name": "D#4",
                    "midi": 63,
                    "time": 221.4175589999984,
                    "velocity": 0.2204724409448819,
                    "duration": 0.3746490000000051
                },
                {
                    "name": "G4",
                    "midi": 67,
                    "time": 221.4175589999984,
                    "velocity": 0.2677165354330709,
                    "duration": 0.3746490000000051
                },
                {
                    "name": "G#3",
                    "midi": 56,
                    "time": 222.5415059999984,
                    "velocity": 0.2204724409448819,
                    "duration": 1.1239470000000154
                },
                {
                    "name": "C4",
                    "midi": 60,
                    "time": 222.5415059999984,
                    "velocity": 0.2204724409448819,
                    "duration": 0.3746490000000051
                },
                {
                    "name": "D#4",
                    "midi": 63,
                    "time": 222.5415059999984,
                    "velocity": 0.2677165354330709,
                    "duration": 0.3746490000000051
                },
                {
                    "name": "D4",
                    "midi": 62,
                    "time": 222.9161549999984,
                    "velocity": 0.2204724409448819,
                    "duration": 0.3746490000000051
                },
                {
                    "name": "F4",
                    "midi": 65,
                    "time": 222.9161549999984,
                    "velocity": 0.2677165354330709,
                    "duration": 0.3746490000000051
                },
                {
                    "name": "D#4",
                    "midi": 63,
                    "time": 223.29080399999842,
                    "velocity": 0.2204724409448819,
                    "duration": 0.3746490000000051
                },
                {
                    "name": "G4",
                    "midi": 67,
                    "time": 223.29080399999842,
                    "velocity": 0.2677165354330709,
                    "duration": 0.3746490000000051
                },
                {
                    "name": "D4",
                    "midi": 62,
                    "time": 223.66545299999842,
                    "velocity": 0.2204724409448819,
                    "duration": 0.3746490000000051
                },
                {
                    "name": "F4",
                    "midi": 65,
                    "time": 223.66545299999842,
                    "velocity": 0.2677165354330709,
                    "duration": 0.3746490000000051
                },
                {
                    "name": "G3",
                    "midi": 55,
                    "time": 224.78939999999844,
                    "velocity": 0.2204724409448819,
                    "duration": 1.1239470000000154
                },
                {
                    "name": "B3",
                    "midi": 59,
                    "time": 224.78939999999844,
                    "velocity": 0.2204724409448819,
                    "duration": 0.3746490000000051
                },
                {
                    "name": "D4",
                    "midi": 62,
                    "time": 224.78939999999844,
                    "velocity": 0.2677165354330709,
                    "duration": 0.3746490000000051
                },
                {
                    "name": "C4",
                    "midi": 60,
                    "time": 225.16404899999844,
                    "velocity": 0.2204724409448819,
                    "duration": 0.3746490000000051
                },
                {
                    "name": "D#4",
                    "midi": 63,
                    "time": 225.16404899999844,
                    "velocity": 0.2677165354330709,
                    "duration": 0.3746490000000051
                },
                {
                    "name": "D4",
                    "midi": 62,
                    "time": 225.53869799999845,
                    "velocity": 0.2204724409448819,
                    "duration": 0.3746490000000051
                },
                {
                    "name": "F4",
                    "midi": 65,
                    "time": 225.53869799999845,
                    "velocity": 0.2677165354330709,
                    "duration": 0.3746490000000051
                },
                {
                    "name": "C4",
                    "midi": 60,
                    "time": 225.91334699999845,
                    "velocity": 0.23622047244094488,
                    "duration": 0.3746490000000051
                },
                {
                    "name": "D#4",
                    "midi": 63,
                    "time": 225.91334699999845,
                    "velocity": 0.29133858267716534,
                    "duration": 0.3746490000000051
                },
                {
                    "name": "F3",
                    "midi": 53,
                    "time": 226.66264499999846,
                    "velocity": 0.23622047244094488,
                    "duration": 0.3746490000000051
                },
                {
                    "name": "D#4",
                    "midi": 63,
                    "time": 226.66264499999846,
                    "velocity": 0.29133858267716534,
                    "duration": 0.3746490000000051
                },
                {
                    "name": "G3",
                    "midi": 55,
                    "time": 227.03729399999847,
                    "velocity": 0.23622047244094488,
                    "duration": 0.3746490000000051
                },
                {
                    "name": "D4",
                    "midi": 62,
                    "time": 227.03729399999847,
                    "velocity": 0.29133858267716534,
                    "duration": 0.3746490000000051
                },
                {
                    "name": "D#4",
                    "midi": 63,
                    "time": 227.78659199999848,
                    "velocity": 0.23622047244094488,
                    "duration": 0.3746490000000051
                },
                {
                    "name": "G4",
                    "midi": 67,
                    "time": 227.78659199999848,
                    "velocity": 0.29133858267716534,
                    "duration": 0.3746490000000051
                },
                {
                    "name": "F4",
                    "midi": 65,
                    "time": 228.34856549999847,
                    "velocity": 0.33070866141732286,
                    "duration": 0.0468311250000113
                },
                {
                    "name": "F4",
                    "midi": 65,
                    "time": 228.5358899999985,
                    "velocity": 0.3543307086614173,
                    "duration": 0.0468311250000113
                },
                {
                    "name": "F4",
                    "midi": 65,
                    "time": 228.7232144999985,
                    "velocity": 0.30708661417322836,
                    "duration": 0.0468311250000113
                },
                {
                    "name": "F4",
                    "midi": 65,
                    "time": 228.91053899999852,
                    "velocity": 0.3228346456692913,
                    "duration": 0.0468311250000113
                },
                {
                    "name": "F4",
                    "midi": 65,
                    "time": 229.09786349999854,
                    "velocity": 0.2992125984251969,
                    "duration": 0.0468311250000113
                },
                {
                    "name": "F#4",
                    "midi": 66,
                    "time": 229.28518799999856,
                    "velocity": 0.33070866141732286,
                    "duration": 0.1966907249999963
                },
                {
                    "name": "F4",
                    "midi": 65,
                    "time": 229.47251249999854,
                    "velocity": 0.2992125984251969,
                    "duration": 0.1966907250000247
                },
                {
                    "name": "D#4",
                    "midi": 63,
                    "time": 229.65983699999856,
                    "velocity": 0.2992125984251969,
                    "duration": 0.1966907250000247
                },
                {
                    "name": "C#4",
                    "midi": 61,
                    "time": 229.84716149999858,
                    "velocity": 0.2992125984251969,
                    "duration": 0.1966907250000247
                },
                {
                    "name": "C4",
                    "midi": 60,
                    "time": 230.0344859999986,
                    "velocity": 0.33070866141732286,
                    "duration": 0.1966907250000247
                },
                {
                    "name": "A#3",
                    "midi": 58,
                    "time": 230.2218104999986,
                    "velocity": 0.29133858267716534,
                    "duration": 0.18732450000001677
                },
                {
                    "name": "F3",
                    "midi": 53,
                    "time": 230.59645949999862,
                    "velocity": 0.33070866141732286,
                    "duration": 0.0468311250000113
                },
                {
                    "name": "F3",
                    "midi": 53,
                    "time": 230.78378399999863,
                    "velocity": 0.3543307086614173,
                    "duration": 0.0468311250000113
                },
                {
                    "name": "F3",
                    "midi": 53,
                    "time": 230.97110849999865,
                    "velocity": 0.30708661417322836,
                    "duration": 0.0468311250000113
                },
                {
                    "name": "F3",
                    "midi": 53,
                    "time": 231.15843299999867,
                    "velocity": 0.3228346456692913,
                    "duration": 0.0468311250000113
                },
                {
                    "name": "F3",
                    "midi": 53,
                    "time": 231.34575749999868,
                    "velocity": 0.2992125984251969,
                    "duration": 0.0468311250000113
                },
                {
                    "name": "F#3",
                    "midi": 54,
                    "time": 231.5330819999987,
                    "velocity": 0.33070866141732286,
                    "duration": 0.1966907249999963
                },
                {
                    "name": "F3",
                    "midi": 53,
                    "time": 231.7204064999987,
                    "velocity": 0.2992125984251969,
                    "duration": 0.1966907250000247
                },
                {
                    "name": "D#3",
                    "midi": 51,
                    "time": 231.9077309999987,
                    "velocity": 0.2992125984251969,
                    "duration": 0.1966907250000247
                },
                {
                    "name": "C#3",
                    "midi": 49,
                    "time": 232.09505549999872,
                    "velocity": 0.2992125984251969,
                    "duration": 0.1966907250000247
                },
                {
                    "name": "C3",
                    "midi": 48,
                    "time": 232.28237999999874,
                    "velocity": 0.33070866141732286,
                    "duration": 0.1966907250000247
                },
                {
                    "name": "A#2",
                    "midi": 46,
                    "time": 232.46970449999876,
                    "velocity": 0.29133858267716534,
                    "duration": 0.18732450000001677
                },
                {
                    "name": "F2",
                    "midi": 41,
                    "time": 232.65702899999877,
                    "velocity": 0.33070866141732286,
                    "duration": 0.3746490000000051
                },
                {
                    "name": "F3",
                    "midi": 53,
                    "time": 233.7809759999988,
                    "velocity": 0.2283464566929134,
                    "duration": 2.6225430000000074
                },
                {
                    "name": "D#4",
                    "midi": 63,
                    "time": 233.7809759999988,
                    "velocity": 0.29133858267716534,
                    "duration": 2.6225430000000074
                },
                {
                    "name": "A3",
                    "midi": 57,
                    "time": 233.7809759999988,
                    "velocity": 0.2283464566929134,
                    "duration": 2.6225430000000074
                },
                {
                    "name": "A#3",
                    "midi": 58,
                    "time": 237.1528169999988,
                    "velocity": 0.25984251968503935,
                    "duration": 0.7492980000000102
                },
                {
                    "name": "F3",
                    "midi": 53,
                    "time": 237.90211499999882,
                    "velocity": 0.2440944881889764,
                    "duration": 0.3746490000000051
                },
                {
                    "name": "D3",
                    "midi": 50,
                    "time": 238.27676399999882,
                    "velocity": 0.29133858267716534,
                    "duration": 0.7492980000000102
                },
                {
                    "name": "F3",
                    "midi": 53,
                    "time": 239.02606199999883,
                    "velocity": 0.2992125984251969,
                    "duration": 0.3746490000000051
                },
                {
                    "name": "A#3",
                    "midi": 58,
                    "time": 239.40071099999884,
                    "velocity": 0.3228346456692913,
                    "duration": 0.7492980000000102
                },
                {
                    "name": "D4",
                    "midi": 62,
                    "time": 240.15000899999885,
                    "velocity": 0.33858267716535434,
                    "duration": 0.3746490000000051
                },
                {
                    "name": "F4",
                    "midi": 65,
                    "time": 240.52465799999885,
                    "velocity": 0.33858267716535434,
                    "duration": 0.7492980000000102
                },
                {
                    "name": "D#4",
                    "midi": 63,
                    "time": 241.64860499999887,
                    "velocity": 0.28346456692913385,
                    "duration": 2.2478940000000023
                },
                {
                    "name": "F3",
                    "midi": 53,
                    "time": 241.64860499999887,
                    "velocity": 0.23622047244094488,
                    "duration": 2.2478940000000023
                },
                {
                    "name": "C4",
                    "midi": 60,
                    "time": 241.64860499999887,
                    "velocity": 0.23622047244094488,
                    "duration": 2.2478940000000023
                },
                {
                    "name": "A#3",
                    "midi": 58,
                    "time": 243.89649899999887,
                    "velocity": 0.25196850393700787,
                    "duration": 0.3746490000000051
                },
                {
                    "name": "D4",
                    "midi": 62,
                    "time": 243.89649899999887,
                    "velocity": 0.2992125984251969,
                    "duration": 0.3746490000000051
                },
                {
                    "name": "F3",
                    "midi": 53,
                    "time": 246.14439299999887,
                    "velocity": 0.23622047244094488,
                    "duration": 2.2478940000000023
                },
                {
                    "name": "C4",
                    "midi": 60,
                    "time": 246.14439299999887,
                    "velocity": 0.23622047244094488,
                    "duration": 2.2478940000000023
                },
                {
                    "name": "D#4",
                    "midi": 63,
                    "time": 246.14439299999887,
                    "velocity": 0.28346456692913385,
                    "duration": 2.2478940000000023
                },
                {
                    "name": "A#3",
                    "midi": 58,
                    "time": 248.39228699999887,
                    "velocity": 0.2677165354330709,
                    "duration": 0.09366224999999417
                },
                {
                    "name": "D4",
                    "midi": 62,
                    "time": 248.39228699999887,
                    "velocity": 0.31496062992125984,
                    "duration": 0.09366224999999417
                },
                {
                    "name": "D4",
                    "midi": 62,
                    "time": 248.76693599999888,
                    "velocity": 0.2992125984251969,
                    "duration": 0.09366224999999417
                },
                {
                    "name": "A#3",
                    "midi": 58,
                    "time": 248.76693599999888,
                    "velocity": 0.25196850393700787,
                    "duration": 0.09366224999999417
                },
                {
                    "name": "A#3",
                    "midi": 58,
                    "time": 249.14158499999888,
                    "velocity": 0.25196850393700787,
                    "duration": 0.09366224999999417
                },
                {
                    "name": "F4",
                    "midi": 65,
                    "time": 249.14158499999888,
                    "velocity": 0.2992125984251969,
                    "duration": 0.09366224999999417
                },
                {
                    "name": "A#3",
                    "midi": 58,
                    "time": 249.5162339999989,
                    "velocity": 0.2677165354330709,
                    "duration": 0.3746490000000051
                },
                {
                    "name": "D4",
                    "midi": 62,
                    "time": 249.5162339999989,
                    "velocity": 0.31496062992125984,
                    "duration": 0.3746490000000051
                },
                {
                    "name": "A#3",
                    "midi": 58,
                    "time": 251.01482999999888,
                    "velocity": 0.23622047244094488,
                    "duration": 0.3746490000000051
                },
                {
                    "name": "D#3",
                    "midi": 51,
                    "time": 251.01482999999888,
                    "velocity": 0.1968503937007874,
                    "duration": 0.3746490000000051
                },
                {
                    "name": "G3",
                    "midi": 55,
                    "time": 251.01482999999888,
                    "velocity": 0.1968503937007874,
                    "duration": 0.3746490000000051
                },
                {
                    "name": "D3",
                    "midi": 50,
                    "time": 252.1387769999989,
                    "velocity": 0.1968503937007874,
                    "duration": 0.3746490000000051
                },
                {
                    "name": "F3",
                    "midi": 53,
                    "time": 252.1387769999989,
                    "velocity": 0.1968503937007874,
                    "duration": 0.3746490000000051
                },
                {
                    "name": "A#3",
                    "midi": 58,
                    "time": 252.1387769999989,
                    "velocity": 0.23622047244094488,
                    "duration": 0.3746490000000051
                },
                {
                    "name": "A3",
                    "midi": 57,
                    "time": 252.8880749999989,
                    "velocity": 0.2283464566929134,
                    "duration": 1.123946999999987
                },
                {
                    "name": "F4",
                    "midi": 65,
                    "time": 252.8880749999989,
                    "velocity": 0.2677165354330709,
                    "duration": 1.498595999999992
                },
                {
                    "name": "A#3",
                    "midi": 58,
                    "time": 254.0120219999989,
                    "velocity": 0.2677165354330709,
                    "duration": 0.3746490000000051
                },
                {
                    "name": "D#3",
                    "midi": 51,
                    "time": 255.51061799999889,
                    "velocity": 0.1968503937007874,
                    "duration": 0.3746490000000051
                },
                {
                    "name": "G3",
                    "midi": 55,
                    "time": 255.51061799999889,
                    "velocity": 0.1968503937007874,
                    "duration": 0.3746490000000051
                },
                {
                    "name": "A#3",
                    "midi": 58,
                    "time": 255.51061799999889,
                    "velocity": 0.23622047244094488,
                    "duration": 0.3746490000000051
                },
                {
                    "name": "D3",
                    "midi": 50,
                    "time": 256.6345649999989,
                    "velocity": 0.1968503937007874,
                    "duration": 0.3746489999999767
                },
                {
                    "name": "F3",
                    "midi": 53,
                    "time": 256.6345649999989,
                    "velocity": 0.1968503937007874,
                    "duration": 0.3746489999999767
                },
                {
                    "name": "A#3",
                    "midi": 58,
                    "time": 256.6345649999989,
                    "velocity": 0.23622047244094488,
                    "duration": 0.3746489999999767
                },
                {
                    "name": "F3",
                    "midi": 53,
                    "time": 257.3838629999988,
                    "velocity": 0.2283464566929134,
                    "duration": 1.12394699999993
                },
                {
                    "name": "A3",
                    "midi": 57,
                    "time": 257.3838629999988,
                    "velocity": 0.2677165354330709,
                    "duration": 0.3746489999999767
                },
                {
                    "name": "C4",
                    "midi": 60,
                    "time": 257.7585119999988,
                    "velocity": 0.2440944881889764,
                    "duration": 0.3746489999999767
                },
                {
                    "name": "D#4",
                    "midi": 63,
                    "time": 258.1331609999988,
                    "velocity": 0.2283464566929134,
                    "duration": 0.3746489999999767
                },
                {
                    "name": "D4",
                    "midi": 62,
                    "time": 258.50780999999876,
                    "velocity": 0.2677165354330709,
                    "duration": 0.3746489999999767
                },
                {
                    "name": "A#3",
                    "midi": 58,
                    "time": 258.50780999999876,
                    "velocity": 0.2204724409448819,
                    "duration": 0.3746489999999767
                },
                {
                    "name": "G3",
                    "midi": 55,
                    "time": 259.63175699999874,
                    "velocity": 0.5748031496062992,
                    "duration": 0.0936622500000226
                },
                {
                    "name": "G2",
                    "midi": 43,
                    "time": 260.0064059999988,
                    "velocity": 0.5196850393700787,
                    "duration": 0.0936622500000226
                },
                {
                    "name": "D3",
                    "midi": 50,
                    "time": 260.7557039999988,
                    "velocity": 0.5748031496062992,
                    "duration": 0.0936622500000226
                },
                {
                    "name": "D2",
                    "midi": 38,
                    "time": 261.1303529999988,
                    "velocity": 0.5196850393700787,
                    "duration": 0.0936622500000226
                },
                {
                    "name": "D#3",
                    "midi": 51,
                    "time": 261.87965099999883,
                    "velocity": 0.15748031496062992,
                    "duration": 1.12394699999993
                },
                {
                    "name": "G3",
                    "midi": 55,
                    "time": 261.87965099999883,
                    "velocity": 0.25984251968503935,
                    "duration": 0.18732449999998835
                },
                {
                    "name": "A#3",
                    "midi": 58,
                    "time": 262.0669754999988,
                    "velocity": 0.18110236220472442,
                    "duration": 0.18732449999998835
                },
                {
                    "name": "G3",
                    "midi": 55,
                    "time": 262.2542999999988,
                    "velocity": 0.2125984251968504,
                    "duration": 0.18732449999998835
                },
                {
                    "name": "A#3",
                    "midi": 58,
                    "time": 262.4416244999988,
                    "velocity": 0.1732283464566929,
                    "duration": 0.18732449999998835
                },
                {
                    "name": "G3",
                    "midi": 55,
                    "time": 262.6289489999988,
                    "velocity": 0.2047244094488189,
                    "duration": 0.18732449999998835
                },
                {
                    "name": "A#3",
                    "midi": 58,
                    "time": 262.8162734999988,
                    "velocity": 0.1732283464566929,
                    "duration": 0.18732449999998835
                },
                {
                    "name": "D3",
                    "midi": 50,
                    "time": 263.00359799999876,
                    "velocity": 0.15748031496062992,
                    "duration": 1.12394699999993
                },
                {
                    "name": "G#3",
                    "midi": 56,
                    "time": 263.00359799999876,
                    "velocity": 0.28346456692913385,
                    "duration": 0.18732449999998835
                },
                {
                    "name": "A#3",
                    "midi": 58,
                    "time": 263.19092249999875,
                    "velocity": 0.18110236220472442,
                    "duration": 0.18732449999998835
                },
                {
                    "name": "G#3",
                    "midi": 56,
                    "time": 263.37824699999874,
                    "velocity": 0.2125984251968504,
                    "duration": 0.18732449999998835
                },
                {
                    "name": "A#3",
                    "midi": 58,
                    "time": 263.5655714999987,
                    "velocity": 0.18110236220472442,
                    "duration": 0.18732449999998835
                },
                {
                    "name": "G#3",
                    "midi": 56,
                    "time": 263.7528959999987,
                    "velocity": 0.2125984251968504,
                    "duration": 0.18732449999998835
                },
                {
                    "name": "A#3",
                    "midi": 58,
                    "time": 263.9402204999987,
                    "velocity": 0.1889763779527559,
                    "duration": 0.18732449999998835
                },
                {
                    "name": "D#3",
                    "midi": 51,
                    "time": 264.1275449999987,
                    "velocity": 0.15748031496062992,
                    "duration": 1.12394699999993
                },
                {
                    "name": "G3",
                    "midi": 55,
                    "time": 264.1275449999987,
                    "velocity": 0.25984251968503935,
                    "duration": 0.18732449999998835
                },
                {
                    "name": "A#3",
                    "midi": 58,
                    "time": 264.3148694999987,
                    "velocity": 0.18110236220472442,
                    "duration": 0.18732449999998835
                },
                {
                    "name": "G3",
                    "midi": 55,
                    "time": 264.50219399999867,
                    "velocity": 0.2125984251968504,
                    "duration": 0.18732449999998835
                },
                {
                    "name": "A#3",
                    "midi": 58,
                    "time": 264.68951849999866,
                    "velocity": 0.18110236220472442,
                    "duration": 0.18732449999998835
                },
                {
                    "name": "G3",
                    "midi": 55,
                    "time": 264.87684299999864,
                    "velocity": 0.2125984251968504,
                    "duration": 0.18732449999998835
                },
                {
                    "name": "A#3",
                    "midi": 58,
                    "time": 265.06416749999863,
                    "velocity": 0.1968503937007874,
                    "duration": 0.18732449999998835
                },
                {
                    "name": "D3",
                    "midi": 50,
                    "time": 265.2514919999986,
                    "velocity": 0.15748031496062992,
                    "duration": 1.12394699999993
                },
                {
                    "name": "G#3",
                    "midi": 56,
                    "time": 265.2514919999986,
                    "velocity": 0.25984251968503935,
                    "duration": 0.18732449999998835
                },
                {
                    "name": "A#3",
                    "midi": 58,
                    "time": 265.4388164999986,
                    "velocity": 0.2125984251968504,
                    "duration": 0.18732449999998835
                },
                {
                    "name": "G#3",
                    "midi": 56,
                    "time": 265.6261409999986,
                    "velocity": 0.2125984251968504,
                    "duration": 0.18732449999998835
                },
                {
                    "name": "A#3",
                    "midi": 58,
                    "time": 265.8134654999986,
                    "velocity": 0.1889763779527559,
                    "duration": 0.18732449999998835
                },
                {
                    "name": "G#3",
                    "midi": 56,
                    "time": 266.0007899999986,
                    "velocity": 0.2125984251968504,
                    "duration": 0.18732449999998835
                },
                {
                    "name": "A#3",
                    "midi": 58,
                    "time": 266.18811449999856,
                    "velocity": 0.18110236220472442,
                    "duration": 0.18732449999998835
                },
                {
                    "name": "D#3",
                    "midi": 51,
                    "time": 266.37543899999855,
                    "velocity": 0.16535433070866143,
                    "duration": 1.12394699999993
                },
                {
                    "name": "G3",
                    "midi": 55,
                    "time": 266.37543899999855,
                    "velocity": 0.2755905511811024,
                    "duration": 0.18732449999998835
                },
                {
                    "name": "A#3",
                    "midi": 58,
                    "time": 266.56276349999854,
                    "velocity": 0.1889763779527559,
                    "duration": 0.18732449999998835
                },
                {
                    "name": "G3",
                    "midi": 55,
                    "time": 266.7500879999985,
                    "velocity": 0.2204724409448819,
                    "duration": 0.18732449999998835
                },
                {
                    "name": "A#3",
                    "midi": 58,
                    "time": 266.9374124999985,
                    "velocity": 0.18110236220472442,
                    "duration": 0.18732449999998835
                },
                {
                    "name": "G3",
                    "midi": 55,
                    "time": 267.1247369999985,
                    "velocity": 0.2125984251968504,
                    "duration": 0.18732449999998835
                },
                {
                    "name": "A#3",
                    "midi": 58,
                    "time": 267.3120614999985,
                    "velocity": 0.18110236220472442,
                    "duration": 0.18732449999998835
                },
                {
                    "name": "D3",
                    "midi": 50,
                    "time": 267.4993859999985,
                    "velocity": 0.16535433070866143,
                    "duration": 1.12394699999993
                },
                {
                    "name": "F3",
                    "midi": 53,
                    "time": 267.4993859999985,
                    "velocity": 0.2992125984251969,
                    "duration": 0.18732449999998835
                },
                {
                    "name": "G#3",
                    "midi": 56,
                    "time": 267.68671049999847,
                    "velocity": 0.1889763779527559,
                    "duration": 0.18732449999998835
                },
                {
                    "name": "F3",
                    "midi": 53,
                    "time": 267.87403499999846,
                    "velocity": 0.25196850393700787,
                    "duration": 0.18732449999998835
                },
                {
                    "name": "G#3",
                    "midi": 56,
                    "time": 268.06135949999845,
                    "velocity": 0.2204724409448819,
                    "duration": 0.18732449999998835
                },
                {
                    "name": "F3",
                    "midi": 53,
                    "time": 268.24868399999843,
                    "velocity": 0.25196850393700787,
                    "duration": 0.18732449999998835
                },
                {
                    "name": "G#3",
                    "midi": 56,
                    "time": 268.4360084999984,
                    "velocity": 0.2125984251968504,
                    "duration": 0.18732449999998835
                },
                {
                    "name": "D#3",
                    "midi": 51,
                    "time": 268.6233329999984,
                    "velocity": 0.18110236220472442,
                    "duration": 1.12394699999993
                },
                {
                    "name": "G3",
                    "midi": 55,
                    "time": 268.6233329999984,
                    "velocity": 0.29133858267716534,
                    "duration": 0.18732449999998835
                },
                {
                    "name": "C4",
                    "midi": 60,
                    "time": 268.8106574999984,
                    "velocity": 0.25196850393700787,
                    "duration": 0.18732449999998835
                },
                {
                    "name": "G3",
                    "midi": 55,
                    "time": 268.9979819999984,
                    "velocity": 0.2677165354330709,
                    "duration": 0.18732449999998835
                },
                {
                    "name": "C4",
                    "midi": 60,
                    "time": 269.1853064999984,
                    "velocity": 0.2283464566929134,
                    "duration": 0.18732449999998835
                },
                {
                    "name": "G3",
                    "midi": 55,
                    "time": 269.37263099999836,
                    "velocity": 0.23622047244094488,
                    "duration": 0.18732449999998835
                },
                {
                    "name": "C4",
                    "midi": 60,
                    "time": 269.55995549999835,
                    "velocity": 0.2204724409448819,
                    "duration": 0.18732449999998835
                },
                {
                    "name": "F#3",
                    "midi": 54,
                    "time": 269.74727999999834,
                    "velocity": 0.18110236220472442,
                    "duration": 1.12394699999993
                },
                {
                    "name": "C4",
                    "midi": 60,
                    "time": 269.74727999999834,
                    "velocity": 0.29133858267716534,
                    "duration": 0.18732449999998835
                },
                {
                    "name": "D#4",
                    "midi": 63,
                    "time": 269.93460449999833,
                    "velocity": 0.23622047244094488,
                    "duration": 0.18732449999998835
                },
                {
                    "name": "C4",
                    "midi": 60,
                    "time": 270.1219289999983,
                    "velocity": 0.23622047244094488,
                    "duration": 0.18732449999998835
                },
                {
                    "name": "D#4",
                    "midi": 63,
                    "time": 270.3092534999983,
                    "velocity": 0.2125984251968504,
                    "duration": 0.1966907249999963
                },
                {
                    "name": "C4",
                    "midi": 60,
                    "time": 270.4965779999983,
                    "velocity": 0.23622047244094488,
                    "duration": 0.18732449999998835
                },
                {
                    "name": "D#4",
                    "midi": 63,
                    "time": 270.6839024999983,
                    "velocity": 0.2047244094488189,
                    "duration": 0.18732449999998835
                },
                {
                    "name": "G3",
                    "midi": 55,
                    "time": 270.87122699999827,
                    "velocity": 0.2125984251968504,
                    "duration": 1.12394699999993
                },
                {
                    "name": "A#3",
                    "midi": 58,
                    "time": 270.87122699999827,
                    "velocity": 0.3464566929133858,
                    "duration": 0.18732449999998835
                },
                {
                    "name": "D4",
                    "midi": 62,
                    "time": 271.05855149999826,
                    "velocity": 0.23622047244094488,
                    "duration": 0.18732449999998835
                },
                {
                    "name": "A#3",
                    "midi": 58,
                    "time": 271.24587599999825,
                    "velocity": 0.28346456692913385,
                    "duration": 0.18732449999998835
                },
                {
                    "name": "D4",
                    "midi": 62,
                    "time": 271.43320049999824,
                    "velocity": 0.23622047244094488,
                    "duration": 0.18732449999998835
                },
                {
                    "name": "A#3",
                    "midi": 58,
                    "time": 271.6205249999982,
                    "velocity": 0.28346456692913385,
                    "duration": 0.18732449999998835
                },
                {
                    "name": "D4",
                    "midi": 62,
                    "time": 271.8078494999982,
                    "velocity": 0.25984251968503935,
                    "duration": 0.18732449999998835
                },
                {
                    "name": "C4",
                    "midi": 60,
                    "time": 271.9951739999982,
                    "velocity": 0.2125984251968504,
                    "duration": 1.12394699999993
                },
                {
                    "name": "G4",
                    "midi": 67,
                    "time": 271.9951739999982,
                    "velocity": 0.3464566929133858,
                    "duration": 0.18732449999998835
                },
                {
                    "name": "A#4",
                    "midi": 70,
                    "time": 272.1824984999982,
                    "velocity": 0.28346456692913385,
                    "duration": 0.18732449999998835
                },
                {
                    "name": "G4",
                    "midi": 67,
                    "time": 272.3698229999982,
                    "velocity": 0.28346456692913385,
                    "duration": 0.18732449999998835
                },
                {
                    "name": "A#4",
                    "midi": 70,
                    "time": 272.55714749999817,
                    "velocity": 0.2440944881889764,
                    "duration": 0.1966907249999963
                },
                {
                    "name": "G4",
                    "midi": 67,
                    "time": 272.74447199999815,
                    "velocity": 0.28346456692913385,
                    "duration": 0.18732449999998835
                },
                {
                    "name": "A#4",
                    "midi": 70,
                    "time": 272.93179649999814,
                    "velocity": 0.23622047244094488,
                    "duration": 0.18732449999998835
                },
                {
                    "name": "F4",
                    "midi": 65,
                    "time": 273.11912099999813,
                    "velocity": 0.3464566929133858,
                    "duration": 0.3746489999999767
                },
                {
                    "name": "A4",
                    "midi": 69,
                    "time": 273.11912099999813,
                    "velocity": 0.3464566929133858,
                    "duration": 0.3746489999999767
                },
                {
                    "name": "D#5",
                    "midi": 75,
                    "time": 273.8684189999981,
                    "velocity": 0.36220472440944884,
                    "duration": 0.18732449999998835
                },
                {
                    "name": "D5",
                    "midi": 74,
                    "time": 274.24306799999806,
                    "velocity": 0.4094488188976378,
                    "duration": 0.18732449999998835
                },
                {
                    "name": "A4",
                    "midi": 69,
                    "time": 274.61771699999804,
                    "velocity": 0.4409448818897638,
                    "duration": 0.18732449999998835
                },
                {
                    "name": "A#4",
                    "midi": 70,
                    "time": 274.992365999998,
                    "velocity": 0.41732283464566927,
                    "duration": 0.18732449999998835
                },
                {
                    "name": "F4",
                    "midi": 65,
                    "time": 275.367014999998,
                    "velocity": 0.4645669291338583,
                    "duration": 0.3746489999999767
                },
                {
                    "name": "D#5",
                    "midi": 75,
                    "time": 276.11631299999794,
                    "velocity": 0.4015748031496063,
                    "duration": 0.18732449999998835
                },
                {
                    "name": "D5",
                    "midi": 74,
                    "time": 276.4909619999979,
                    "velocity": 0.44881889763779526,
                    "duration": 0.18732449999998835
                },
                {
                    "name": "A4",
                    "midi": 69,
                    "time": 276.8656109999979,
                    "velocity": 0.4645669291338583,
                    "duration": 0.18732449999998835
                },
                {
                    "name": "A#4",
                    "midi": 70,
                    "time": 277.2402599999979,
                    "velocity": 0.4251968503937008,
                    "duration": 0.18732449999998835
                },
                {
                    "name": "F4",
                    "midi": 65,
                    "time": 277.61490899999785,
                    "velocity": 0.4881889763779528,
                    "duration": 0.3746489999999767
                },
                {
                    "name": "F4",
                    "midi": 65,
                    "time": 278.4578692499978,
                    "velocity": 0.3700787401574803,
                    "duration": 0.0936622500000226
                },
                {
                    "name": "C4",
                    "midi": 60,
                    "time": 278.55153149999785,
                    "velocity": 0.4251968503937008,
                    "duration": 0.0936622500000226
                },
                {
                    "name": "A3",
                    "midi": 57,
                    "time": 278.6451937499979,
                    "velocity": 0.3700787401574803,
                    "duration": 0.0936622500000226
                },
                {
                    "name": "F3",
                    "midi": 53,
                    "time": 278.7388559999979,
                    "velocity": 0.5433070866141733,
                    "duration": 0.0936622500000226
                },
                {
                    "name": "F2",
                    "midi": 41,
                    "time": 279.11350499999793,
                    "velocity": 0.4645669291338583,
                    "duration": 0.3746489999999767
                },
                {
                    "name": "A#3",
                    "midi": 58,
                    "time": 279.8628029999979,
                    "velocity": 0.2677165354330709,
                    "duration": 0.7649083750000045
                },
                {
                    "name": "F3",
                    "midi": 53,
                    "time": 280.6121009999979,
                    "velocity": 0.23622047244094488,
                    "duration": 0.3746489999999767
                },
                {
                    "name": "D3",
                    "midi": 50,
                    "time": 280.98674999999787,
                    "velocity": 0.2677165354330709,
                    "duration": 0.7649083750000045
                },
                {
                    "name": "F3",
                    "midi": 53,
                    "time": 281.7360479999979,
                    "velocity": 0.25196850393700787,
                    "duration": 0.3746489999999767
                },
                {
                    "name": "A#3",
                    "midi": 58,
                    "time": 282.11069699999786,
                    "velocity": 0.2677165354330709,
                    "duration": 0.7649083750000045
                },
                {
                    "name": "D4",
                    "midi": 62,
                    "time": 282.85999499999787,
                    "velocity": 0.28346456692913385,
                    "duration": 0.3746489999999767
                },
                {
                    "name": "F4",
                    "midi": 65,
                    "time": 283.23464399999784,
                    "velocity": 0.2992125984251969,
                    "duration": 0.3746489999999767
                },
                {
                    "name": "D#3",
                    "midi": 51,
                    "time": 284.35859099999783,
                    "velocity": 0.2677165354330709,
                    "duration": 0.7649083750000045
                },
                {
                    "name": "C3",
                    "midi": 48,
                    "time": 285.10788899999784,
                    "velocity": 0.23622047244094488,
                    "duration": 0.3746489999999767
                },
                {
                    "name": "A2",
                    "midi": 45,
                    "time": 285.4825379999978,
                    "velocity": 0.2677165354330709,
                    "duration": 0.7649083750000045
                },
                {
                    "name": "C3",
                    "midi": 48,
                    "time": 286.2318359999978,
                    "velocity": 0.25196850393700787,
                    "duration": 0.3746489999999767
                },
                {
                    "name": "D#3",
                    "midi": 51,
                    "time": 286.6064849999978,
                    "velocity": 0.2677165354330709,
                    "duration": 0.7649083750000045
                },
                {
                    "name": "A3",
                    "midi": 57,
                    "time": 287.3557829999978,
                    "velocity": 0.28346456692913385,
                    "duration": 0.3746489999999767
                },
                {
                    "name": "C4",
                    "midi": 60,
                    "time": 287.7304319999978,
                    "velocity": 0.2992125984251969,
                    "duration": 0.3746489999999767
                },
                {
                    "name": "D4",
                    "midi": 62,
                    "time": 288.8543789999978,
                    "velocity": 0.2755905511811024,
                    "duration": 0.18732449999998835
                },
                {
                    "name": "F4",
                    "midi": 65,
                    "time": 289.04170349999777,
                    "velocity": 0.2204724409448819,
                    "duration": 0.18732449999998835
                },
                {
                    "name": "D4",
                    "midi": 62,
                    "time": 289.22902799999775,
                    "velocity": 0.2755905511811024,
                    "duration": 0.18732449999998835
                },
                {
                    "name": "F4",
                    "midi": 65,
                    "time": 289.41635249999774,
                    "velocity": 0.1968503937007874,
                    "duration": 0.18732449999998835
                },
                {
                    "name": "D4",
                    "midi": 62,
                    "time": 289.60367699999773,
                    "velocity": 0.25196850393700787,
                    "duration": 0.18732449999998835
                },
                {
                    "name": "F4",
                    "midi": 65,
                    "time": 289.7910014999977,
                    "velocity": 0.1889763779527559,
                    "duration": 0.18732449999998835
                },
                {
                    "name": "D#4",
                    "midi": 63,
                    "time": 289.9783259999977,
                    "velocity": 0.2755905511811024,
                    "duration": 0.18732449999998835
                },
                {
                    "name": "F4",
                    "midi": 65,
                    "time": 290.1656504999977,
                    "velocity": 0.2440944881889764,
                    "duration": 0.18732449999998835
                },
                {
                    "name": "D#4",
                    "midi": 63,
                    "time": 290.3529749999977,
                    "velocity": 0.2755905511811024,
                    "duration": 0.18732449999998835
                },
                {
                    "name": "F4",
                    "midi": 65,
                    "time": 290.5402994999977,
                    "velocity": 0.2047244094488189,
                    "duration": 0.18732449999998835
                },
                {
                    "name": "D#4",
                    "midi": 63,
                    "time": 290.72762399999766,
                    "velocity": 0.25984251968503935,
                    "duration": 0.18732449999998835
                },
                {
                    "name": "F4",
                    "midi": 65,
                    "time": 290.91494849999765,
                    "velocity": 0.2283464566929134,
                    "duration": 0.18732449999998835
                },
                {
                    "name": "D4",
                    "midi": 62,
                    "time": 291.10227299999764,
                    "velocity": 0.2755905511811024,
                    "duration": 0.18732449999998835
                },
                {
                    "name": "F4",
                    "midi": 65,
                    "time": 291.2895974999976,
                    "velocity": 0.23622047244094488,
                    "duration": 0.18732449999998835
                },
                {
                    "name": "D4",
                    "midi": 62,
                    "time": 291.4769219999976,
                    "velocity": 0.25196850393700787,
                    "duration": 0.18732449999998835
                },
                {
                    "name": "F4",
                    "midi": 65,
                    "time": 291.6642464999976,
                    "velocity": 0.1889763779527559,
                    "duration": 0.18732449999998835
                },
                {
                    "name": "D4",
                    "midi": 62,
                    "time": 291.8515709999976,
                    "velocity": 0.25196850393700787,
                    "duration": 0.18732449999998835
                },
                {
                    "name": "F4",
                    "midi": 65,
                    "time": 292.0388954999976,
                    "velocity": 0.1968503937007874,
                    "duration": 0.18732449999998835
                },
                {
                    "name": "D#4",
                    "midi": 63,
                    "time": 292.22621999999757,
                    "velocity": 0.2755905511811024,
                    "duration": 0.18732449999998835
                },
                {
                    "name": "F4",
                    "midi": 65,
                    "time": 292.41354449999756,
                    "velocity": 0.2440944881889764,
                    "duration": 0.18732449999998835
                },
                {
                    "name": "D#4",
                    "midi": 63,
                    "time": 292.60086899999754,
                    "velocity": 0.2755905511811024,
                    "duration": 0.18732449999998835
                },
                {
                    "name": "F4",
                    "midi": 65,
                    "time": 292.78819349999753,
                    "velocity": 0.2047244094488189,
                    "duration": 0.18732449999998835
                },
                {
                    "name": "D#4",
                    "midi": 63,
                    "time": 292.9755179999975,
                    "velocity": 0.25984251968503935,
                    "duration": 0.18732449999998835
                },
                {
                    "name": "F4",
                    "midi": 65,
                    "time": 293.1628424999975,
                    "velocity": 0.2283464566929134,
                    "duration": 0.18732449999998835
                },
                {
                    "name": "C#4",
                    "midi": 61,
                    "time": 293.3501669999975,
                    "velocity": 0.2755905511811024,
                    "duration": 0.18732449999998835
                },
                {
                    "name": "F4",
                    "midi": 65,
                    "time": 293.5374914999975,
                    "velocity": 0.23622047244094488,
                    "duration": 0.18732449999998835
                },
                {
                    "name": "C#4",
                    "midi": 61,
                    "time": 293.7248159999975,
                    "velocity": 0.25196850393700787,
                    "duration": 0.18732449999998835
                },
                {
                    "name": "F4",
                    "midi": 65,
                    "time": 293.91214049999746,
                    "velocity": 0.2204724409448819,
                    "duration": 0.18732449999998835
                },
                {
                    "name": "C#4",
                    "midi": 61,
                    "time": 294.09946499999745,
                    "velocity": 0.2992125984251969,
                    "duration": 0.18732449999998835
                },
                {
                    "name": "F4",
                    "midi": 65,
                    "time": 294.28678949999744,
                    "velocity": 0.2440944881889764,
                    "duration": 0.18732449999998835
                },
                {
                    "name": "G3",
                    "midi": 55,
                    "time": 294.4741139999974,
                    "velocity": 0.31496062992125984,
                    "duration": 1.12394699999993
                },
                {
                    "name": "D4",
                    "midi": 62,
                    "time": 294.4741139999974,
                    "velocity": 0.31496062992125984,
                    "duration": 0.18732449999998835
                },
                {
                    "name": "F4",
                    "midi": 65,
                    "time": 294.6614384999974,
                    "velocity": 0.2677165354330709,
                    "duration": 0.18732449999998835
                },
                {
                    "name": "D4",
                    "midi": 62,
                    "time": 294.8487629999974,
                    "velocity": 0.2992125984251969,
                    "duration": 0.18732449999998835
                },
                {
                    "name": "F4",
                    "midi": 65,
                    "time": 295.0360874999974,
                    "velocity": 0.25196850393700787,
                    "duration": 0.18732449999998835
                },
                {
                    "name": "D4",
                    "midi": 62,
                    "time": 295.2234119999974,
                    "velocity": 0.30708661417322836,
                    "duration": 0.18732449999998835
                },
                {
                    "name": "F4",
                    "midi": 65,
                    "time": 295.41073649999737,
                    "velocity": 0.25196850393700787,
                    "duration": 0.18732449999998835
                },
                {
                    "name": "C4",
                    "midi": 60,
                    "time": 295.59806099999736,
                    "velocity": 0.30708661417322836,
                    "duration": 0.3746489999999767
                },
                {
                    "name": "D#4",
                    "midi": 63,
                    "time": 295.59806099999736,
                    "velocity": 0.30708661417322836,
                    "duration": 0.3746489999999767
                },
                {
                    "name": "F4",
                    "midi": 65,
                    "time": 295.97270999999733,
                    "velocity": 0.2755905511811024,
                    "duration": 0.7492979999999534
                },
                {
                    "name": "A3",
                    "midi": 57,
                    "time": 295.97270999999733,
                    "velocity": 0.2755905511811024,
                    "duration": 0.3746489999999767
                },
                {
                    "name": "A#3",
                    "midi": 58,
                    "time": 296.3473589999973,
                    "velocity": 0.2755905511811024,
                    "duration": 0.3746489999999767
                },
                {
                    "name": "D#3",
                    "midi": 51,
                    "time": 296.7220079999973,
                    "velocity": 0.33858267716535434,
                    "duration": 0.3746489999999767
                },
                {
                    "name": "D#4",
                    "midi": 63,
                    "time": 296.7220079999973,
                    "velocity": 0.33858267716535434,
                    "duration": 0.3746489999999767
                },
                {
                    "name": "F3",
                    "midi": 53,
                    "time": 297.09665699999726,
                    "velocity": 0.31496062992125984,
                    "duration": 0.7492979999999534
                },
                {
                    "name": "D4",
                    "midi": 62,
                    "time": 297.09665699999726,
                    "velocity": 0.31496062992125984,
                    "duration": 0.3746489999999767
                },
                {
                    "name": "C4",
                    "midi": 60,
                    "time": 297.47130599999724,
                    "velocity": 0.31496062992125984,
                    "duration": 0.3746489999999767
                },
                {
                    "name": "A#3",
                    "midi": 58,
                    "time": 297.8459549999972,
                    "velocity": 0.31496062992125984,
                    "duration": 0.3746489999999767
                },
                {
                    "name": "D3",
                    "midi": 50,
                    "time": 298.4079284999972,
                    "velocity": 0.3543307086614173,
                    "duration": 0.18732449999998835
                },
                {
                    "name": "C3",
                    "midi": 48,
                    "time": 298.5952529999972,
                    "velocity": 0.3937007874015748,
                    "duration": 0.18732449999998835
                },
                {
                    "name": "A#2",
                    "midi": 46,
                    "time": 298.78257749999716,
                    "velocity": 0.3543307086614173,
                    "duration": 0.18732449999998835
                },
                {
                    "name": "A2",
                    "midi": 45,
                    "time": 298.96990199999715,
                    "velocity": 0.31496062992125984,
                    "duration": 0.3746489999999767
                },
                {
                    "name": "G3",
                    "midi": 55,
                    "time": 299.5318754999971,
                    "velocity": 0.3543307086614173,
                    "duration": 0.18732449999998835
                },
                {
                    "name": "F3",
                    "midi": 53,
                    "time": 299.7191999999971,
                    "velocity": 0.3937007874015748,
                    "duration": 0.18732449999998835
                },
                {
                    "name": "A2",
                    "midi": 45,
                    "time": 299.9065244999971,
                    "velocity": 0.3543307086614173,
                    "duration": 0.18732449999998835
                },
                {
                    "name": "A#2",
                    "midi": 46,
                    "time": 300.0938489999971,
                    "velocity": 0.31496062992125984,
                    "duration": 0.3746489999999767
                },
                {
                    "name": "D4",
                    "midi": 62,
                    "time": 300.65582249999704,
                    "velocity": 0.3779527559055118,
                    "duration": 0.18732449999998835
                },
                {
                    "name": "C4",
                    "midi": 60,
                    "time": 300.84314699999703,
                    "velocity": 0.4094488188976378,
                    "duration": 0.18732449999998835
                },
                {
                    "name": "A#3",
                    "midi": 58,
                    "time": 301.030471499997,
                    "velocity": 0.3779527559055118,
                    "duration": 0.18732449999998835
                },
                {
                    "name": "A3",
                    "midi": 57,
                    "time": 301.217795999997,
                    "velocity": 0.3779527559055118,
                    "duration": 0.3746489999999767
                },
                {
                    "name": "G4",
                    "midi": 67,
                    "time": 301.779769499997,
                    "velocity": 0.3858267716535433,
                    "duration": 0.18732449999998835
                },
                {
                    "name": "F4",
                    "midi": 65,
                    "time": 301.96709399999696,
                    "velocity": 0.3937007874015748,
                    "duration": 0.18732449999998835
                },
                {
                    "name": "A3",
                    "midi": 57,
                    "time": 302.15441849999695,
                    "velocity": 0.36220472440944884,
                    "duration": 0.18732449999998835
                },
                {
                    "name": "A#3",
                    "midi": 58,
                    "time": 302.34174299999694,
                    "velocity": 0.3937007874015748,
                    "duration": 0.3746489999999767
                },
                {
                    "name": "F4",
                    "midi": 65,
                    "time": 302.9037164999969,
                    "velocity": 0.3937007874015748,
                    "duration": 0.18732449999998835
                },
                {
                    "name": "D4",
                    "midi": 62,
                    "time": 303.0910409999969,
                    "velocity": 0.4251968503937008,
                    "duration": 0.18732449999998835
                },
                {
                    "name": "C4",
                    "midi": 60,
                    "time": 303.2783654999969,
                    "velocity": 0.4015748031496063,
                    "duration": 0.18732449999998835
                },
                {
                    "name": "B3",
                    "midi": 59,
                    "time": 303.46568999999687,
                    "velocity": 0.4251968503937008,
                    "duration": 0.3746489999999767
                },
                {
                    "name": "G#4",
                    "midi": 68,
                    "time": 304.02766349999683,
                    "velocity": 0.3543307086614173,
                    "duration": 0.18732449999998835
                },
                {
                    "name": "G4",
                    "midi": 67,
                    "time": 304.2149879999968,
                    "velocity": 0.3937007874015748,
                    "duration": 0.18732449999998835
                },
                {
                    "name": "B3",
                    "midi": 59,
                    "time": 304.4023124999968,
                    "velocity": 0.3543307086614173,
                    "duration": 0.18732449999998835
                },
                {
                    "name": "C4",
                    "midi": 60,
                    "time": 304.5896369999968,
                    "velocity": 0.33070866141732286,
                    "duration": 0.0936622500000226
                },
                {
                    "name": "G4",
                    "midi": 67,
                    "time": 304.6832992499968,
                    "velocity": 0.25984251968503935,
                    "duration": 0.0936622500000226
                },
                {
                    "name": "E4",
                    "midi": 64,
                    "time": 304.77696149999684,
                    "velocity": 0.28346456692913385,
                    "duration": 0.0936622500000226
                },
                {
                    "name": "G4",
                    "midi": 67,
                    "time": 304.87062374999687,
                    "velocity": 0.25984251968503935,
                    "duration": 0.0936622500000226
                },
                {
                    "name": "A3",
                    "midi": 57,
                    "time": 304.9642859999969,
                    "velocity": 0.2992125984251969,
                    "duration": 0.0936622500000226
                },
                {
                    "name": "F#4",
                    "midi": 66,
                    "time": 305.0579482499969,
                    "velocity": 0.25984251968503935,
                    "duration": 0.0936622500000226
                },
                {
                    "name": "C4",
                    "midi": 60,
                    "time": 305.15161049999693,
                    "velocity": 0.28346456692913385,
                    "duration": 0.0936622500000226
                },
                {
                    "name": "F#4",
                    "midi": 66,
                    "time": 305.24527274999696,
                    "velocity": 0.25984251968503935,
                    "duration": 0.0936622500000226
                },
                {
                    "name": "A#3",
                    "midi": 58,
                    "time": 305.338934999997,
                    "velocity": 0.30708661417322836,
                    "duration": 0.0936622500000226
                },
                {
                    "name": "F4",
                    "midi": 65,
                    "time": 305.432597249997,
                    "velocity": 0.25984251968503935,
                    "duration": 0.0936622500000226
                },
                {
                    "name": "D4",
                    "midi": 62,
                    "time": 305.526259499997,
                    "velocity": 0.29133858267716534,
                    "duration": 0.0936622500000226
                },
                {
                    "name": "F4",
                    "midi": 65,
                    "time": 305.61992174999705,
                    "velocity": 0.29133858267716534,
                    "duration": 0.0936622500000226
                },
                {
                    "name": "D#3",
                    "midi": 51,
                    "time": 305.71358399999707,
                    "velocity": 0.2440944881889764,
                    "duration": 0.3746489999999767
                },
                {
                    "name": "D#4",
                    "midi": 63,
                    "time": 305.71358399999707,
                    "velocity": 0.29133858267716534,
                    "duration": 0.3746489999999767
                },
                {
                    "name": "F3",
                    "midi": 53,
                    "time": 306.08823299999705,
                    "velocity": 0.2440944881889764,
                    "duration": 0.3746489999999767
                },
                {
                    "name": "D4",
                    "midi": 62,
                    "time": 306.08823299999705,
                    "velocity": 0.29133858267716534,
                    "duration": 0.3746489999999767
                },
                {
                    "name": "D#3",
                    "midi": 51,
                    "time": 306.462881999997,
                    "velocity": 0.2440944881889764,
                    "duration": 0.3746489999999767
                },
                {
                    "name": "C4",
                    "midi": 60,
                    "time": 306.462881999997,
                    "velocity": 0.29133858267716534,
                    "duration": 0.3746489999999767
                },
                {
                    "name": "D3",
                    "midi": 50,
                    "time": 306.837530999997,
                    "velocity": 0.2677165354330709,
                    "duration": 0.3746489999999767
                },
                {
                    "name": "A#3",
                    "midi": 58,
                    "time": 306.837530999997,
                    "velocity": 0.31496062992125984,
                    "duration": 0.3746489999999767
                },
                {
                    "name": "F4",
                    "midi": 65,
                    "time": 307.58682899999695,
                    "velocity": 0.29133858267716534,
                    "duration": 0.3746489999999767
                },
                {
                    "name": "D4",
                    "midi": 62,
                    "time": 307.58682899999695,
                    "velocity": 0.2440944881889764,
                    "duration": 0.3746489999999767
                },
                {
                    "name": "D#4",
                    "midi": 63,
                    "time": 307.96147799999693,
                    "velocity": 0.29133858267716534,
                    "duration": 0.3746489999999767
                },
                {
                    "name": "G4",
                    "midi": 67,
                    "time": 307.96147799999693,
                    "velocity": 0.3464566929133858,
                    "duration": 0.3746489999999767
                },
                {
                    "name": "G3",
                    "midi": 55,
                    "time": 308.7107759999969,
                    "velocity": 0.2440944881889764,
                    "duration": 0.3746489999999767
                },
                {
                    "name": "A#3",
                    "midi": 58,
                    "time": 308.7107759999969,
                    "velocity": 0.2440944881889764,
                    "duration": 0.3746489999999767
                },
                {
                    "name": "C4",
                    "midi": 60,
                    "time": 308.7107759999969,
                    "velocity": 0.29133858267716534,
                    "duration": 0.3746489999999767
                },
                {
                    "name": "F3",
                    "midi": 53,
                    "time": 309.08542499999686,
                    "velocity": 0.3543307086614173,
                    "duration": 0.0936622500000226
                },
                {
                    "name": "D4",
                    "midi": 62,
                    "time": 309.1790872499969,
                    "velocity": 0.29133858267716534,
                    "duration": 0.0936622500000226
                },
                {
                    "name": "A#3",
                    "midi": 58,
                    "time": 309.2727494999969,
                    "velocity": 0.31496062992125984,
                    "duration": 0.0936622500000226
                },
                {
                    "name": "D4",
                    "midi": 62,
                    "time": 309.3664117499969,
                    "velocity": 0.29133858267716534,
                    "duration": 0.0936622500000226
                },
                {
                    "name": "F3",
                    "midi": 53,
                    "time": 309.46007399999695,
                    "velocity": 0.3543307086614173,
                    "duration": 0.0936622500000226
                },
                {
                    "name": "D4",
                    "midi": 62,
                    "time": 309.553736249997,
                    "velocity": 0.29133858267716534,
                    "duration": 0.0936622500000226
                },
                {
                    "name": "A#3",
                    "midi": 58,
                    "time": 309.647398499997,
                    "velocity": 0.31496062992125984,
                    "duration": 0.0936622500000226
                },
                {
                    "name": "D4",
                    "midi": 62,
                    "time": 309.741060749997,
                    "velocity": 0.29133858267716534,
                    "duration": 0.0936622500000226
                },
                {
                    "name": "F3",
                    "midi": 53,
                    "time": 309.83472299999704,
                    "velocity": 0.3779527559055118,
                    "duration": 0.0936622500000226
                },
                {
                    "name": "D4",
                    "midi": 62,
                    "time": 309.92838524999706,
                    "velocity": 0.29133858267716534,
                    "duration": 0.0936622500000226
                },
                {
                    "name": "A#3",
                    "midi": 58,
                    "time": 310.0220474999971,
                    "velocity": 0.3228346456692913,
                    "duration": 0.0936622500000226
                },
                {
                    "name": "D4",
                    "midi": 62,
                    "time": 310.1157097499971,
                    "velocity": 0.29133858267716534,
                    "duration": 0.0936622500000226
                },
                {
                    "name": "F3",
                    "midi": 53,
                    "time": 310.20937199999713,
                    "velocity": 0.3543307086614173,
                    "duration": 0.0936622500000226
                },
                {
                    "name": "D#4",
                    "midi": 63,
                    "time": 310.30303424999715,
                    "velocity": 0.29133858267716534,
                    "duration": 0.0936622500000226
                },
                {
                    "name": "A3",
                    "midi": 57,
                    "time": 310.3966964999972,
                    "velocity": 0.31496062992125984,
                    "duration": 0.0936622500000226
                },
                {
                    "name": "D#4",
                    "midi": 63,
                    "time": 310.4903587499972,
                    "velocity": 0.29133858267716534,
                    "duration": 0.0936622500000226
                },
                {
                    "name": "F3",
                    "midi": 53,
                    "time": 310.5840209999972,
                    "velocity": 0.3543307086614173,
                    "duration": 0.0936622500000226
                },
                {
                    "name": "D#4",
                    "midi": 63,
                    "time": 310.67768324999724,
                    "velocity": 0.29133858267716534,
                    "duration": 0.0936622500000226
                },
                {
                    "name": "A3",
                    "midi": 57,
                    "time": 310.77134549999727,
                    "velocity": 0.31496062992125984,
                    "duration": 0.0936622500000226
                },
                {
                    "name": "D#4",
                    "midi": 63,
                    "time": 310.8650077499973,
                    "velocity": 0.29133858267716534,
                    "duration": 0.0936622500000226
                },
                {
                    "name": "F3",
                    "midi": 53,
                    "time": 310.9586699999973,
                    "velocity": 0.3779527559055118,
                    "duration": 0.0936622500000226
                },
                {
                    "name": "D#4",
                    "midi": 63,
                    "time": 311.05233224999733,
                    "velocity": 0.29133858267716534,
                    "duration": 0.0936622500000226
                },
                {
                    "name": "A3",
                    "midi": 57,
                    "time": 311.14599449999736,
                    "velocity": 0.3228346456692913,
                    "duration": 0.0936622500000226
                },
                {
                    "name": "D#4",
                    "midi": 63,
                    "time": 311.2396567499974,
                    "velocity": 0.29133858267716534,
                    "duration": 0.0936622500000226
                },
                {
                    "name": "A#3",
                    "midi": 58,
                    "time": 311.3333189999974,
                    "velocity": 0.3228346456692913,
                    "duration": 0.1966907249999963
                },
                {
                    "name": "D4",
                    "midi": 62,
                    "time": 311.5206434999974,
                    "velocity": 0.2204724409448819,
                    "duration": 0.1966907249999963
                },
                {
                    "name": "F4",
                    "midi": 65,
                    "time": 311.7079679999974,
                    "velocity": 0.2755905511811024,
                    "duration": 0.1966907249999963
                },
                {
                    "name": "A#4",
                    "midi": 70,
                    "time": 311.89529249999737,
                    "velocity": 0.2677165354330709,
                    "duration": 0.1966907249999963
                },
                {
                    "name": "A4",
                    "midi": 69,
                    "time": 312.08261699999736,
                    "velocity": 0.25196850393700787,
                    "duration": 0.1966907249999963
                },
                {
                    "name": "G#4",
                    "midi": 68,
                    "time": 312.26994149999734,
                    "velocity": 0.23622047244094488,
                    "duration": 0.1966907249999963
                },
                {
                    "name": "G4",
                    "midi": 67,
                    "time": 312.45726599999733,
                    "velocity": 0.2204724409448819,
                    "duration": 0.18732449999998835
                },
                {
                    "name": "A#4",
                    "midi": 70,
                    "time": 312.6445904999973,
                    "velocity": 0.16535433070866143,
                    "duration": 0.18732449999998835
                },
                {
                    "name": "F4",
                    "midi": 65,
                    "time": 312.8319149999973,
                    "velocity": 0.2440944881889764,
                    "duration": 0.18732449999998835
                },
                {
                    "name": "A#4",
                    "midi": 70,
                    "time": 313.0192394999973,
                    "velocity": 0.1889763779527559,
                    "duration": 0.18732449999998835
                },
                {
                    "name": "D#4",
                    "midi": 63,
                    "time": 313.2065639999973,
                    "velocity": 0.2440944881889764,
                    "duration": 0.18732449999998835
                },
                {
                    "name": "A#4",
                    "midi": 70,
                    "time": 313.3938884999973,
                    "velocity": 0.1968503937007874,
                    "duration": 0.18732449999998835
                },
                {
                    "name": "D4",
                    "midi": 62,
                    "time": 313.58121299999726,
                    "velocity": 0.2440944881889764,
                    "duration": 0.18732449999998835
                },
                {
                    "name": "A#4",
                    "midi": 70,
                    "time": 313.76853749999725,
                    "velocity": 0.2204724409448819,
                    "duration": 0.18732449999998835
                },
                {
                    "name": "A4",
                    "midi": 69,
                    "time": 313.95586199999724,
                    "velocity": 0.2440944881889764,
                    "duration": 0.18732449999998835
                },
                {
                    "name": "A#4",
                    "midi": 70,
                    "time": 314.1431864999972,
                    "velocity": 0.2204724409448819,
                    "duration": 0.18732449999998835
                },
                {
                    "name": "G3",
                    "midi": 55,
                    "time": 314.3305109999972,
                    "velocity": 0.2440944881889764,
                    "duration": 0.18732449999998835
                },
                {
                    "name": "D#4",
                    "midi": 63,
                    "time": 314.5178354999972,
                    "velocity": 0.2125984251968504,
                    "duration": 0.18732449999998835
                },
                {
                    "name": "F3",
                    "midi": 53,
                    "time": 314.7051599999972,
                    "velocity": 0.2440944881889764,
                    "duration": 0.18732449999998835
                },
                {
                    "name": "D4",
                    "midi": 62,
                    "time": 314.8924844999972,
                    "velocity": 0.2125984251968504,
                    "duration": 0.18732449999998835
                },
                {
                    "name": "A#3",
                    "midi": 58,
                    "time": 315.07980899999717,
                    "velocity": 0.2440944881889764,
                    "duration": 0.18732449999998835
                },
                {
                    "name": "D4",
                    "midi": 62,
                    "time": 315.26713349999716,
                    "velocity": 0.2283464566929134,
                    "duration": 0.18732449999998835
                },
                {
                    "name": "F3",
                    "midi": 53,
                    "time": 315.45445799999715,
                    "velocity": 0.2440944881889764,
                    "duration": 0.18732449999998835
                },
                {
                    "name": "D#4",
                    "midi": 63,
                    "time": 315.64178249999713,
                    "velocity": 0.2125984251968504,
                    "duration": 0.18732449999998835
                },
                {
                    "name": "D4",
                    "midi": 62,
                    "time": 315.8291069999971,
                    "velocity": 0.2440944881889764,
                    "duration": 0.18732449999998835
                },
                {
                    "name": "A#3",
                    "midi": 58,
                    "time": 316.0164314999971,
                    "velocity": 0.1889763779527559,
                    "duration": 0.18732449999998835
                },
                {
                    "name": "A3",
                    "midi": 57,
                    "time": 316.2037559999971,
                    "velocity": 0.23622047244094488,
                    "duration": 0.18732449999998835
                },
                {
                    "name": "G#3",
                    "midi": 56,
                    "time": 316.3910804999971,
                    "velocity": 0.2047244094488189,
                    "duration": 0.18732449999998835
                },
                {
                    "name": "G3",
                    "midi": 55,
                    "time": 316.5784049999971,
                    "velocity": 0.2283464566929134,
                    "duration": 0.18732449999998835
                },
                {
                    "name": "F#3",
                    "midi": 54,
                    "time": 316.76572949999706,
                    "velocity": 0.2440944881889764,
                    "duration": 0.18732449999998835
                },
                {
                    "name": "G3",
                    "midi": 55,
                    "time": 316.95305399999705,
                    "velocity": 0.2204724409448819,
                    "duration": 0.18732449999998835
                },
                {
                    "name": "A#3",
                    "midi": 58,
                    "time": 317.14037849999704,
                    "velocity": 0.2125984251968504,
                    "duration": 0.18732449999998835
                },
                {
                    "name": "F3",
                    "midi": 53,
                    "time": 317.32770299999703,
                    "velocity": 0.2992125984251969,
                    "duration": 0.18732449999998835
                },
                {
                    "name": "A3",
                    "midi": 57,
                    "time": 317.515027499997,
                    "velocity": 0.25196850393700787,
                    "duration": 0.18732449999998835
                },
                {
                    "name": "E3",
                    "midi": 52,
                    "time": 317.702351999997,
                    "velocity": 0.31496062992125984,
                    "duration": 0.18732449999998835
                },
                {
                    "name": "C#4",
                    "midi": 61,
                    "time": 317.889676499997,
                    "velocity": 0.2677165354330709,
                    "duration": 0.18732449999998835
                },
                {
                    "name": "F3",
                    "midi": 53,
                    "time": 318.077000999997,
                    "velocity": 0.3228346456692913,
                    "duration": 0.18732449999998835
                },
                {
                    "name": "D4",
                    "midi": 62,
                    "time": 318.26432549999697,
                    "velocity": 0.2755905511811024,
                    "duration": 0.18732449999998835
                },
                {
                    "name": "A#3",
                    "midi": 58,
                    "time": 318.45164999999696,
                    "velocity": 0.2992125984251969,
                    "duration": 0.18732449999998835
                },
                {
                    "name": "D4",
                    "midi": 62,
                    "time": 318.63897449999695,
                    "velocity": 0.25984251968503935,
                    "duration": 0.18732449999998835
                },
                {
                    "name": "F3",
                    "midi": 53,
                    "time": 318.82629899999694,
                    "velocity": 0.31496062992125984,
                    "duration": 0.18732449999998835
                },
                {
                    "name": "D4",
                    "midi": 62,
                    "time": 319.0136234999969,
                    "velocity": 0.2755905511811024,
                    "duration": 0.18732449999998835
                },
                {
                    "name": "F3",
                    "midi": 53,
                    "time": 319.2009479999969,
                    "velocity": 0.3228346456692913,
                    "duration": 0.18732449999998835
                },
                {
                    "name": "F4",
                    "midi": 65,
                    "time": 319.3882724999969,
                    "velocity": 0.25984251968503935,
                    "duration": 0.18732449999998835
                },
                {
                    "name": "D4",
                    "midi": 62,
                    "time": 319.5755969999969,
                    "velocity": 0.33858267716535434,
                    "duration": 0.18732449999998835
                },
                {
                    "name": "F4",
                    "midi": 65,
                    "time": 319.7629214999969,
                    "velocity": 0.25984251968503935,
                    "duration": 0.18732449999998835
                },
                {
                    "name": "F3",
                    "midi": 53,
                    "time": 319.95024599999687,
                    "velocity": 0.3543307086614173,
                    "duration": 0.18732449999998835
                },
                {
                    "name": "D#4",
                    "midi": 63,
                    "time": 320.13757049999685,
                    "velocity": 0.2992125984251969,
                    "duration": 0.18732449999998835
                },
                {
                    "name": "A#3",
                    "midi": 58,
                    "time": 320.41855724999687,
                    "velocity": 0.4251968503937008,
                    "duration": 0.0936622500000226
                },
                {
                    "name": "D4",
                    "midi": 62,
                    "time": 320.5122194999969,
                    "velocity": 0.4409448818897638,
                    "duration": 0.0936622500000226
                },
                {
                    "name": "F4",
                    "midi": 65,
                    "time": 320.6058817499969,
                    "velocity": 0.4645669291338583,
                    "duration": 0.0936622500000226
                },
                {
                    "name": "A#4",
                    "midi": 70,
                    "time": 320.69954399999693,
                    "velocity": 0.48031496062992124,
                    "duration": 0.18732449999998835
                },
                {
                    "name": "F3",
                    "midi": 53,
                    "time": 321.0741929999969,
                    "velocity": 0.4251968503937008,
                    "duration": 0.18732449999998835
                },
                {
                    "name": "A3",
                    "midi": 57,
                    "time": 321.0741929999969,
                    "velocity": 0.4251968503937008,
                    "duration": 0.18732449999998835
                },
                {
                    "name": "A#2",
                    "midi": 46,
                    "time": 321.5425042499969,
                    "velocity": 0.4251968503937008,
                    "duration": 0.0936622500000226
                },
                {
                    "name": "D3",
                    "midi": 50,
                    "time": 321.63616649999693,
                    "velocity": 0.4409448818897638,
                    "duration": 0.0936622500000226
                },
                {
                    "name": "F3",
                    "midi": 53,
                    "time": 321.72982874999695,
                    "velocity": 0.4645669291338583,
                    "duration": 0.0936622500000226
                },
                {
                    "name": "A#3",
                    "midi": 58,
                    "time": 321.823490999997,
                    "velocity": 0.48031496062992124,
                    "duration": 0.18732449999998835
                },
                {
                    "name": "F2",
                    "midi": 41,
                    "time": 322.19813999999695,
                    "velocity": 0.4251968503937008,
                    "duration": 0.18732449999998835
                },
                {
                    "name": "A2",
                    "midi": 45,
                    "time": 322.19813999999695,
                    "velocity": 0.4251968503937008,
                    "duration": 0.18732449999998835
                },
                {
                    "name": "A#2",
                    "midi": 46,
                    "time": 322.57278899999693,
                    "velocity": 0.4645669291338583,
                    "duration": 0.13112714999999753
                },
                {
                    "name": "A#1",
                    "midi": 34,
                    "time": 322.9474379999969,
                    "velocity": 0.4645669291338583,
                    "duration": 0.3746489999999767
                },
                {
                    "name": "D#3",
                    "midi": 51,
                    "time": 323.69673599999686,
                    "velocity": 0.4645669291338583,
                    "duration": 0.3746489999999767
                },
                {
                    "name": "D#2",
                    "midi": 39,
                    "time": 324.07138499999684,
                    "velocity": 0.4645669291338583,
                    "duration": 0.3746489999999767
                },
                {
                    "name": "C#3",
                    "midi": 49,
                    "time": 324.8206829999968,
                    "velocity": 0.15748031496062992,
                    "duration": 1.12394699999993
                },
                {
                    "name": "F3",
                    "midi": 53,
                    "time": 324.8206829999968,
                    "velocity": 0.25984251968503935,
                    "duration": 0.18732449999998835
                },
                {
                    "name": "G#3",
                    "midi": 56,
                    "time": 325.0080074999968,
                    "velocity": 0.18110236220472442,
                    "duration": 0.18732449999998835
                },
                {
                    "name": "F3",
                    "midi": 53,
                    "time": 325.19533199999677,
                    "velocity": 0.2125984251968504,
                    "duration": 0.18732449999998835
                },
                {
                    "name": "G#3",
                    "midi": 56,
                    "time": 325.38265649999676,
                    "velocity": 0.1732283464566929,
                    "duration": 0.18732449999998835
                },
                {
                    "name": "F3",
                    "midi": 53,
                    "time": 325.56998099999674,
                    "velocity": 0.2047244094488189,
                    "duration": 0.18732449999998835
                },
                {
                    "name": "G#3",
                    "midi": 56,
                    "time": 325.75730549999673,
                    "velocity": 0.1732283464566929,
                    "duration": 0.18732449999998835
                },
                {
                    "name": "C3",
                    "midi": 48,
                    "time": 325.9446299999967,
                    "velocity": 0.15748031496062992,
                    "duration": 1.12394699999993
                },
                {
                    "name": "F#3",
                    "midi": 54,
                    "time": 325.9446299999967,
                    "velocity": 0.28346456692913385,
                    "duration": 0.18732449999998835
                },
                {
                    "name": "G#3",
                    "midi": 56,
                    "time": 326.1319544999967,
                    "velocity": 0.18110236220472442,
                    "duration": 0.18732449999998835
                },
                {
                    "name": "F#3",
                    "midi": 54,
                    "time": 326.3192789999967,
                    "velocity": 0.2125984251968504,
                    "duration": 0.18732449999998835
                },
                {
                    "name": "G#3",
                    "midi": 56,
                    "time": 326.5066034999967,
                    "velocity": 0.18110236220472442,
                    "duration": 0.18732449999998835
                },
                {
                    "name": "F#3",
                    "midi": 54,
                    "time": 326.6939279999967,
                    "velocity": 0.2125984251968504,
                    "duration": 0.18732449999998835
                },
                {
                    "name": "G#3",
                    "midi": 56,
                    "time": 326.88125249999666,
                    "velocity": 0.1889763779527559,
                    "duration": 0.18732449999998835
                },
                {
                    "name": "C#3",
                    "midi": 49,
                    "time": 327.06857699999665,
                    "velocity": 0.15748031496062992,
                    "duration": 1.12394699999993
                },
                {
                    "name": "F3",
                    "midi": 53,
                    "time": 327.06857699999665,
                    "velocity": 0.25984251968503935,
                    "duration": 0.18732449999998835
                },
                {
                    "name": "G#3",
                    "midi": 56,
                    "time": 327.25590149999664,
                    "velocity": 0.18110236220472442,
                    "duration": 0.18732449999998835
                },
                {
                    "name": "F3",
                    "midi": 53,
                    "time": 327.4432259999966,
                    "velocity": 0.2125984251968504,
                    "duration": 0.18732449999998835
                },
                {
                    "name": "G#3",
                    "midi": 56,
                    "time": 327.6305504999966,
                    "velocity": 0.18110236220472442,
                    "duration": 0.18732449999998835
                },
                {
                    "name": "F3",
                    "midi": 53,
                    "time": 327.8178749999966,
                    "velocity": 0.2125984251968504,
                    "duration": 0.18732449999998835
                },
                {
                    "name": "G#3",
                    "midi": 56,
                    "time": 328.0051994999966,
                    "velocity": 0.1968503937007874,
                    "duration": 0.18732449999998835
                },
                {
                    "name": "C3",
                    "midi": 48,
                    "time": 328.1925239999966,
                    "velocity": 0.15748031496062992,
                    "duration": 1.12394699999993
                },
                {
                    "name": "F#3",
                    "midi": 54,
                    "time": 328.1925239999966,
                    "velocity": 0.2440944881889764,
                    "duration": 0.18732449999998835
                },
                {
                    "name": "G#3",
                    "midi": 56,
                    "time": 328.37984849999657,
                    "velocity": 0.2125984251968504,
                    "duration": 0.18732449999998835
                },
                {
                    "name": "F#3",
                    "midi": 54,
                    "time": 328.56717299999656,
                    "velocity": 0.2125984251968504,
                    "duration": 0.18732449999998835
                },
                {
                    "name": "G#3",
                    "midi": 56,
                    "time": 328.75449749999655,
                    "velocity": 0.1889763779527559,
                    "duration": 0.18732449999998835
                },
                {
                    "name": "F#3",
                    "midi": 54,
                    "time": 328.94182199999653,
                    "velocity": 0.2125984251968504,
                    "duration": 0.18732449999998835
                },
                {
                    "name": "G#3",
                    "midi": 56,
                    "time": 329.1291464999965,
                    "velocity": 0.18110236220472442,
                    "duration": 0.18732449999998835
                },
                {
                    "name": "C#3",
                    "midi": 49,
                    "time": 329.3164709999965,
                    "velocity": 0.16535433070866143,
                    "duration": 1.12394699999993
                },
                {
                    "name": "F3",
                    "midi": 53,
                    "time": 329.3164709999965,
                    "velocity": 0.2755905511811024,
                    "duration": 0.18732449999998835
                },
                {
                    "name": "G#3",
                    "midi": 56,
                    "time": 329.5037954999965,
                    "velocity": 0.1889763779527559,
                    "duration": 0.18732449999998835
                },
                {
                    "name": "F3",
                    "midi": 53,
                    "time": 329.6911199999965,
                    "velocity": 0.2204724409448819,
                    "duration": 0.18732449999998835
                },
                {
                    "name": "G#3",
                    "midi": 56,
                    "time": 329.8784444999965,
                    "velocity": 0.18110236220472442,
                    "duration": 0.18732449999998835
                },
                {
                    "name": "F3",
                    "midi": 53,
                    "time": 330.06576899999646,
                    "velocity": 0.2125984251968504,
                    "duration": 0.18732449999998835
                },
                {
                    "name": "G#3",
                    "midi": 56,
                    "time": 330.25309349999645,
                    "velocity": 0.18110236220472442,
                    "duration": 0.18732449999998835
                },
                {
                    "name": "C3",
                    "midi": 48,
                    "time": 330.44041799999644,
                    "velocity": 0.16535433070866143,
                    "duration": 1.12394699999993
                },
                {
                    "name": "D#3",
                    "midi": 51,
                    "time": 330.44041799999644,
                    "velocity": 0.2992125984251969,
                    "duration": 0.18732449999998835
                },
                {
                    "name": "F#3",
                    "midi": 54,
                    "time": 330.62774249999643,
                    "velocity": 0.1889763779527559,
                    "duration": 0.18732449999998835
                },
                {
                    "name": "D#3",
                    "midi": 51,
                    "time": 330.8150669999964,
                    "velocity": 0.25196850393700787,
                    "duration": 0.18732449999998835
                },
                {
                    "name": "F#3",
                    "midi": 54,
                    "time": 331.0023914999964,
                    "velocity": 0.2204724409448819,
                    "duration": 0.18732449999998835
                },
                {
                    "name": "D#3",
                    "midi": 51,
                    "time": 331.1897159999964,
                    "velocity": 0.25196850393700787,
                    "duration": 0.18732449999998835
                },
                {
                    "name": "F#3",
                    "midi": 54,
                    "time": 331.3770404999964,
                    "velocity": 0.2125984251968504,
                    "duration": 0.18732449999998835
                },
                {
                    "name": "C#3",
                    "midi": 49,
                    "time": 331.56436499999637,
                    "velocity": 0.18110236220472442,
                    "duration": 1.12394699999993
                },
                {
                    "name": "F3",
                    "midi": 53,
                    "time": 331.56436499999637,
                    "velocity": 0.29133858267716534,
                    "duration": 0.18732449999998835
                },
                {
                    "name": "A#3",
                    "midi": 58,
                    "time": 331.75168949999636,
                    "velocity": 0.25196850393700787,
                    "duration": 0.18732449999998835
                },
                {
                    "name": "F3",
                    "midi": 53,
                    "time": 331.93901399999635,
                    "velocity": 0.2677165354330709,
                    "duration": 0.18732449999998835
                },
                {
                    "name": "A#3",
                    "midi": 58,
                    "time": 332.12633849999634,
                    "velocity": 0.2283464566929134,
                    "duration": 0.18732449999998835
                },
                {
                    "name": "F3",
                    "midi": 53,
                    "time": 332.3136629999963,
                    "velocity": 0.23622047244094488,
                    "duration": 0.18732449999998835
                },
                {
                    "name": "A#3",
                    "midi": 58,
                    "time": 332.5009874999963,
                    "velocity": 0.2204724409448819,
                    "duration": 0.18732449999998835
                },
                {
                    "name": "E3",
                    "midi": 52,
                    "time": 332.6883119999963,
                    "velocity": 0.18110236220472442,
                    "duration": 1.12394699999993
                },
                {
                    "name": "A#3",
                    "midi": 58,
                    "time": 332.6883119999963,
                    "velocity": 0.29133858267716534,
                    "duration": 0.18732449999998835
                },
                {
                    "name": "C#4",
                    "midi": 61,
                    "time": 332.8756364999963,
                    "velocity": 0.23622047244094488,
                    "duration": 0.18732449999998835
                },
                {
                    "name": "A#3",
                    "midi": 58,
                    "time": 333.0629609999963,
                    "velocity": 0.23622047244094488,
                    "duration": 0.18732449999998835
                },
                {
                    "name": "C#4",
                    "midi": 61,
                    "time": 333.25028549999627,
                    "velocity": 0.2125984251968504,
                    "duration": 0.1966907249999963
                },
                {
                    "name": "A#3",
                    "midi": 58,
                    "time": 333.43760999999625,
                    "velocity": 0.23622047244094488,
                    "duration": 0.18732449999998835
                },
                {
                    "name": "C#4",
                    "midi": 61,
                    "time": 333.62493449999624,
                    "velocity": 0.2047244094488189,
                    "duration": 0.18732449999998835
                },
                {
                    "name": "F3",
                    "midi": 53,
                    "time": 333.81225899999623,
                    "velocity": 0.1968503937007874,
                    "duration": 1.12394699999993
                },
                {
                    "name": "G#3",
                    "midi": 56,
                    "time": 333.81225899999623,
                    "velocity": 0.31496062992125984,
                    "duration": 0.18732449999998835
                },
                {
                    "name": "C4",
                    "midi": 60,
                    "time": 333.9995834999962,
                    "velocity": 0.2204724409448819,
                    "duration": 0.18732449999998835
                },
                {
                    "name": "G#3",
                    "midi": 56,
                    "time": 334.1869079999962,
                    "velocity": 0.25984251968503935,
                    "duration": 0.18732449999998835
                },
                {
                    "name": "C4",
                    "midi": 60,
                    "time": 334.3742324999962,
                    "velocity": 0.2204724409448819,
                    "duration": 0.18732449999998835
                },
                {
                    "name": "G#3",
                    "midi": 56,
                    "time": 334.5615569999962,
                    "velocity": 0.28346456692913385,
                    "duration": 0.18732449999998835
                },
                {
                    "name": "C4",
                    "midi": 60,
                    "time": 334.7488814999962,
                    "velocity": 0.25196850393700787,
                    "duration": 0.18732449999998835
                },
                {
                    "name": "G3",
                    "midi": 55,
                    "time": 334.93620599999616,
                    "velocity": 0.28346456692913385,
                    "duration": 1.12394699999993
                },
                {
                    "name": "D4",
                    "midi": 62,
                    "time": 334.93620599999616,
                    "velocity": 0.28346456692913385,
                    "duration": 0.18732449999998835
                },
                {
                    "name": "F4",
                    "midi": 65,
                    "time": 335.12353049999615,
                    "velocity": 0.2283464566929134,
                    "duration": 0.18732449999998835
                },
                {
                    "name": "D4",
                    "midi": 62,
                    "time": 335.31085499999614,
                    "velocity": 0.2677165354330709,
                    "duration": 0.18732449999998835
                },
                {
                    "name": "F4",
                    "midi": 65,
                    "time": 335.4981794999961,
                    "velocity": 0.2204724409448819,
                    "duration": 0.1966907249999963
                },
                {
                    "name": "D4",
                    "midi": 62,
                    "time": 335.6855039999961,
                    "velocity": 0.2755905511811024,
                    "duration": 0.18732449999998835
                },
                {
                    "name": "F4",
                    "midi": 65,
                    "time": 335.8728284999961,
                    "velocity": 0.2204724409448819,
                    "duration": 0.18732449999998835
                },
                {
                    "name": "G#3",
                    "midi": 56,
                    "time": 336.0601529999961,
                    "velocity": 0.33070866141732286,
                    "duration": 1.12394699999993
                },
                {
                    "name": "C4",
                    "midi": 60,
                    "time": 336.0601529999961,
                    "velocity": 0.33070866141732286,
                    "duration": 0.18732449999998835
                },
                {
                    "name": "D#4",
                    "midi": 63,
                    "time": 336.2474774999961,
                    "velocity": 0.2047244094488189,
                    "duration": 0.18732449999998835
                },
                {
                    "name": "C4",
                    "midi": 60,
                    "time": 336.43480199999607,
                    "velocity": 0.2992125984251969,
                    "duration": 0.18732449999998835
                },
                {
                    "name": "D#4",
                    "midi": 63,
                    "time": 336.62212649999606,
                    "velocity": 0.2440944881889764,
                    "duration": 0.18732449999998835
                },
                {
                    "name": "C4",
                    "midi": 60,
                    "time": 336.80945099999605,
                    "velocity": 0.2992125984251969,
                    "duration": 0.18732449999998835
                },
                {
                    "name": "D#4",
                    "midi": 63,
                    "time": 336.99677549999603,
                    "velocity": 0.2755905511811024,
                    "duration": 0.18732449999998835
                },
                {
                    "name": "A3",
                    "midi": 57,
                    "time": 337.184099999996,
                    "velocity": 0.3228346456692913,
                    "duration": 1.12394699999993
                },
                {
                    "name": "C4",
                    "midi": 60,
                    "time": 337.184099999996,
                    "velocity": 0.3228346456692913,
                    "duration": 0.18732449999998835
                },
                {
                    "name": "D4",
                    "midi": 62,
                    "time": 337.371424499996,
                    "velocity": 0.25984251968503935,
                    "duration": 0.18732449999998835
                },
                {
                    "name": "C4",
                    "midi": 60,
                    "time": 337.558748999996,
                    "velocity": 0.29133858267716534,
                    "duration": 0.18732449999998835
                },
                {
                    "name": "D4",
                    "midi": 62,
                    "time": 337.746073499996,
                    "velocity": 0.2204724409448819,
                    "duration": 0.1966907249999963
                },
                {
                    "name": "C4",
                    "midi": 60,
                    "time": 337.933397999996,
                    "velocity": 0.2755905511811024,
                    "duration": 0.18732449999998835
                },
                {
                    "name": "D4",
                    "midi": 62,
                    "time": 338.12072249999596,
                    "velocity": 0.2204724409448819,
                    "duration": 0.18732449999998835
                },
                {
                    "name": "A#3",
                    "midi": 58,
                    "time": 338.30804699999595,
                    "velocity": 0.1732283464566929,
                    "duration": 1.12394699999993
                },
                {
                    "name": "D4",
                    "midi": 62,
                    "time": 338.30804699999595,
                    "velocity": 0.28346456692913385,
                    "duration": 0.18732449999998835
                },
                {
                    "name": "G4",
                    "midi": 67,
                    "time": 338.49537149999594,
                    "velocity": 0.2283464566929134,
                    "duration": 0.18732449999998835
                },
                {
                    "name": "D4",
                    "midi": 62,
                    "time": 338.68269599999593,
                    "velocity": 0.2677165354330709,
                    "duration": 0.18732449999998835
                },
                {
                    "name": "G4",
                    "midi": 67,
                    "time": 338.8700204999959,
                    "velocity": 0.2204724409448819,
                    "duration": 0.18732449999998835
                },
                {
                    "name": "D4",
                    "midi": 62,
                    "time": 339.0573449999959,
                    "velocity": 0.2677165354330709,
                    "duration": 0.18732449999998835
                },
                {
                    "name": "G4",
                    "midi": 67,
                    "time": 339.2446694999959,
                    "velocity": 0.2125984251968504,
                    "duration": 0.18732449999998835
                },
                {
                    "name": "D#4",
                    "midi": 63,
                    "time": 339.4319939999959,
                    "velocity": 0.2283464566929134,
                    "duration": 1.12394699999993
                },
                {
                    "name": "G4",
                    "midi": 67,
                    "time": 339.4319939999959,
                    "velocity": 0.28346456692913385,
                    "duration": 0.18732449999998835
                },
                {
                    "name": "A4",
                    "midi": 69,
                    "time": 339.61931849999587,
                    "velocity": 0.2204724409448819,
                    "duration": 0.18732449999998835
                },
                {
                    "name": "G4",
                    "midi": 67,
                    "time": 339.80664299999586,
                    "velocity": 0.2677165354330709,
                    "duration": 0.18732449999998835
                },
                {
                    "name": "A4",
                    "midi": 69,
                    "time": 339.99396749999585,
                    "velocity": 0.2125984251968504,
                    "duration": 0.1966907249999963
                },
                {
                    "name": "G4",
                    "midi": 67,
                    "time": 340.18129199999584,
                    "velocity": 0.2677165354330709,
                    "duration": 0.18732449999998835
                },
                {
                    "name": "A4",
                    "midi": 69,
                    "time": 340.3686164999958,
                    "velocity": 0.1968503937007874,
                    "duration": 0.18732449999998835
                },
                {
                    "name": "D4",
                    "midi": 62,
                    "time": 340.5559409999958,
                    "velocity": 0.3464566929133858,
                    "duration": 0.3746489999999767
                },
                {
                    "name": "F#4",
                    "midi": 66,
                    "time": 340.5559409999958,
                    "velocity": 0.3464566929133858,
                    "duration": 0.3746489999999767
                },
                {
                    "name": "C5",
                    "midi": 72,
                    "time": 341.30523899999577,
                    "velocity": 0.3700787401574803,
                    "duration": 0.18732449999998835
                },
                {
                    "name": "A#4",
                    "midi": 70,
                    "time": 341.67988799999574,
                    "velocity": 0.4015748031496063,
                    "duration": 0.18732449999998835
                },
                {
                    "name": "F#4",
                    "midi": 66,
                    "time": 342.0545369999957,
                    "velocity": 0.4566929133858268,
                    "duration": 0.18732449999998835
                },
                {
                    "name": "G4",
                    "midi": 67,
                    "time": 342.4291859999957,
                    "velocity": 0.4251968503937008,
                    "duration": 0.18732449999998835
                },
                {
                    "name": "D4",
                    "midi": 62,
                    "time": 342.8038349999957,
                    "velocity": 0.41732283464566927,
                    "duration": 0.3746489999999767
                },
                {
                    "name": "C5",
                    "midi": 72,
                    "time": 343.5531329999956,
                    "velocity": 0.3779527559055118,
                    "duration": 0.18732449999998835
                },
                {
                    "name": "A#4",
                    "midi": 70,
                    "time": 343.9277819999956,
                    "velocity": 0.44881889763779526,
                    "duration": 0.18732449999998835
                },
                {
                    "name": "F#4",
                    "midi": 66,
                    "time": 344.3024309999956,
                    "velocity": 0.4645669291338583,
                    "duration": 0.18732449999998835
                },
                {
                    "name": "G4",
                    "midi": 67,
                    "time": 344.67707999999556,
                    "velocity": 0.4251968503937008,
                    "duration": 0.18732449999998835
                },
                {
                    "name": "D4",
                    "midi": 62,
                    "time": 345.05172899999553,
                    "velocity": 0.4566929133858268,
                    "duration": 0.3746489999999767
                },
                {
                    "name": "D4",
                    "midi": 62,
                    "time": 345.8946892499955,
                    "velocity": 0.3700787401574803,
                    "duration": 0.0936622500000226
                },
                {
                    "name": "A3",
                    "midi": 57,
                    "time": 345.98835149999553,
                    "velocity": 0.4251968503937008,
                    "duration": 0.0936622500000226
                },
                {
                    "name": "F#3",
                    "midi": 54,
                    "time": 346.08201374999555,
                    "velocity": 0.3700787401574803,
                    "duration": 0.0936622500000226
                },
                {
                    "name": "D3",
                    "midi": 50,
                    "time": 346.1756759999956,
                    "velocity": 0.5433070866141733,
                    "duration": 0.0936622500000226
                },
                {
                    "name": "D2",
                    "midi": 38,
                    "time": 346.5503249999956,
                    "velocity": 0.4645669291338583,
                    "duration": 0.3746489999999767
                },
                {
                    "name": "G3",
                    "midi": 55,
                    "time": 347.29962299999556,
                    "velocity": 0.2677165354330709,
                    "duration": 0.7649083750000045
                },
                {
                    "name": "D3",
                    "midi": 50,
                    "time": 348.0489209999956,
                    "velocity": 0.23622047244094488,
                    "duration": 0.3746489999999767
                },
                {
                    "name": "B2",
                    "midi": 47,
                    "time": 348.42356999999555,
                    "velocity": 0.2677165354330709,
                    "duration": 0.7649083750000045
                },
                {
                    "name": "D3",
                    "midi": 50,
                    "time": 349.17286799999556,
                    "velocity": 0.25196850393700787,
                    "duration": 0.3746489999999767
                },
                {
                    "name": "G3",
                    "midi": 55,
                    "time": 349.54751699999554,
                    "velocity": 0.2677165354330709,
                    "duration": 0.7649083750000045
                },
                {
                    "name": "B3",
                    "midi": 59,
                    "time": 350.29681499999555,
                    "velocity": 0.28346456692913385,
                    "duration": 0.3746489999999767
                },
                {
                    "name": "D4",
                    "midi": 62,
                    "time": 350.6714639999955,
                    "velocity": 0.2992125984251969,
                    "duration": 0.3746489999999767
                },
                {
                    "name": "G3",
                    "midi": 55,
                    "time": 351.7954109999955,
                    "velocity": 0.2677165354330709,
                    "duration": 0.7649083750000045
                },
                {
                    "name": "D3",
                    "midi": 50,
                    "time": 352.5447089999955,
                    "velocity": 0.23622047244094488,
                    "duration": 0.3746489999999767
                },
                {
                    "name": "B2",
                    "midi": 47,
                    "time": 352.9193579999955,
                    "velocity": 0.2677165354330709,
                    "duration": 0.7649083750000045
                },
                {
                    "name": "D3",
                    "midi": 50,
                    "time": 353.6686559999955,
                    "velocity": 0.25196850393700787,
                    "duration": 0.3746489999999767
                },
                {
                    "name": "G3",
                    "midi": 55,
                    "time": 354.0433049999955,
                    "velocity": 0.2677165354330709,
                    "duration": 0.7649083750000045
                },
                {
                    "name": "B3",
                    "midi": 59,
                    "time": 354.7926029999955,
                    "velocity": 0.28346456692913385,
                    "duration": 0.3746489999999767
                },
                {
                    "name": "D4",
                    "midi": 62,
                    "time": 355.1672519999955,
                    "velocity": 0.2992125984251969,
                    "duration": 0.3746489999999767
                },
                {
                    "name": "G3",
                    "midi": 55,
                    "time": 358.7264174999954,
                    "velocity": 0.30708661417322836,
                    "duration": 0.046831124999982876
                },
                {
                    "name": "G3",
                    "midi": 55,
                    "time": 358.9137419999954,
                    "velocity": 0.33070866141732286,
                    "duration": 0.046831124999982876
                },
                {
                    "name": "G3",
                    "midi": 55,
                    "time": 359.1010664999954,
                    "velocity": 0.29133858267716534,
                    "duration": 0.046831124999982876
                },
                {
                    "name": "G3",
                    "midi": 55,
                    "time": 359.2883909999954,
                    "velocity": 0.30708661417322836,
                    "duration": 0.046831124999982876
                },
                {
                    "name": "G3",
                    "midi": 55,
                    "time": 359.4757154999954,
                    "velocity": 0.2755905511811024,
                    "duration": 0.046831124999982876
                },
                {
                    "name": "G#3",
                    "midi": 56,
                    "time": 359.66303999999536,
                    "velocity": 0.30708661417322836,
                    "duration": 0.1966907249999963
                },
                {
                    "name": "G3",
                    "midi": 55,
                    "time": 359.85036449999535,
                    "velocity": 0.2755905511811024,
                    "duration": 0.1966907249999963
                },
                {
                    "name": "F3",
                    "midi": 53,
                    "time": 360.03768899999534,
                    "velocity": 0.29133858267716534,
                    "duration": 0.1966907249999963
                },
                {
                    "name": "D#3",
                    "midi": 51,
                    "time": 360.2250134999953,
                    "velocity": 0.2755905511811024,
                    "duration": 0.1966907249999963
                },
                {
                    "name": "D3",
                    "midi": 50,
                    "time": 360.4123379999953,
                    "velocity": 0.30708661417322836,
                    "duration": 0.1966907249999963
                },
                {
                    "name": "C3",
                    "midi": 48,
                    "time": 360.5996624999953,
                    "velocity": 0.2677165354330709,
                    "duration": 0.18732449999998835
                },
                {
                    "name": "C3",
                    "midi": 48,
                    "time": 360.7869869999953,
                    "velocity": 0.2755905511811024,
                    "duration": 0.18732449999998835
                },
                {
                    "name": "A#2",
                    "midi": 46,
                    "time": 360.9743114999953,
                    "velocity": 0.2992125984251969,
                    "duration": 0.18732449999998835
                },
                {
                    "name": "A#2",
                    "midi": 46,
                    "time": 361.16163599999527,
                    "velocity": 0.30708661417322836,
                    "duration": 0.3746489999999767
                },
                {
                    "name": "A#3",
                    "midi": 58,
                    "time": 363.22220549999525,
                    "velocity": 0.30708661417322836,
                    "duration": 0.046831124999982876
                },
                {
                    "name": "A#3",
                    "midi": 58,
                    "time": 363.40952999999524,
                    "velocity": 0.3228346456692913,
                    "duration": 0.046831124999982876
                },
                {
                    "name": "A#3",
                    "midi": 58,
                    "time": 363.59685449999523,
                    "velocity": 0.28346456692913385,
                    "duration": 0.046831124999982876
                },
                {
                    "name": "A#3",
                    "midi": 58,
                    "time": 363.7841789999952,
                    "velocity": 0.2992125984251969,
                    "duration": 0.046831124999982876
                },
                {
                    "name": "A#3",
                    "midi": 58,
                    "time": 363.9715034999952,
                    "velocity": 0.2755905511811024,
                    "duration": 0.046831124999982876
                },
                {
                    "name": "C4",
                    "midi": 60,
                    "time": 364.1588279999952,
                    "velocity": 0.30708661417322836,
                    "duration": 0.1966907249999963
                },
                {
                    "name": "A#3",
                    "midi": 58,
                    "time": 364.3461524999952,
                    "velocity": 0.2755905511811024,
                    "duration": 0.1966907249999963
                },
                {
                    "name": "G#3",
                    "midi": 56,
                    "time": 364.5334769999952,
                    "velocity": 0.2755905511811024,
                    "duration": 0.1966907249999963
                },
                {
                    "name": "G3",
                    "midi": 55,
                    "time": 364.72080149999516,
                    "velocity": 0.2755905511811024,
                    "duration": 0.1966907249999963
                },
                {
                    "name": "F3",
                    "midi": 53,
                    "time": 364.90812599999515,
                    "velocity": 0.30708661417322836,
                    "duration": 0.1966907249999963
                },
                {
                    "name": "E3",
                    "midi": 52,
                    "time": 365.09545049999514,
                    "velocity": 0.2677165354330709,
                    "duration": 0.18732449999998835
                },
                {
                    "name": "F3",
                    "midi": 53,
                    "time": 365.2827749999951,
                    "velocity": 0.31496062992125984,
                    "duration": 0.7649083750000045
                },
                {
                    "name": "A#3",
                    "midi": 58,
                    "time": 366.4067219999951,
                    "velocity": 0.2204724409448819,
                    "duration": 1.12394699999993
                },
                {
                    "name": "D4",
                    "midi": 62,
                    "time": 366.4067219999951,
                    "velocity": 0.2204724409448819,
                    "duration": 0.3746489999999767
                },
                {
                    "name": "F4",
                    "midi": 65,
                    "time": 366.4067219999951,
                    "velocity": 0.2677165354330709,
                    "duration": 0.3746489999999767
                },
                {
                    "name": "D#4",
                    "midi": 63,
                    "time": 366.7813709999951,
                    "velocity": 0.2204724409448819,
                    "duration": 0.3746489999999767
                },
                {
                    "name": "G4",
                    "midi": 67,
                    "time": 366.7813709999951,
                    "velocity": 0.2677165354330709,
                    "duration": 0.3746489999999767
                },
                {
                    "name": "F4",
                    "midi": 65,
                    "time": 367.15601999999507,
                    "velocity": 0.2204724409448819,
                    "duration": 0.3746489999999767
                },
                {
                    "name": "A4",
                    "midi": 69,
                    "time": 367.15601999999507,
                    "velocity": 0.2677165354330709,
                    "duration": 0.3746489999999767
                },
                {
                    "name": "D#4",
                    "midi": 63,
                    "time": 367.53066899999504,
                    "velocity": 0.2204724409448819,
                    "duration": 0.3746489999999767
                },
                {
                    "name": "G4",
                    "midi": 67,
                    "time": 367.53066899999504,
                    "velocity": 0.2677165354330709,
                    "duration": 0.3746489999999767
                },
                {
                    "name": "G#3",
                    "midi": 56,
                    "time": 368.65461599999503,
                    "velocity": 0.2204724409448819,
                    "duration": 1.12394699999993
                },
                {
                    "name": "C4",
                    "midi": 60,
                    "time": 368.65461599999503,
                    "velocity": 0.2204724409448819,
                    "duration": 0.3746489999999767
                },
                {
                    "name": "D#4",
                    "midi": 63,
                    "time": 368.65461599999503,
                    "velocity": 0.2677165354330709,
                    "duration": 0.3746489999999767
                },
                {
                    "name": "D4",
                    "midi": 62,
                    "time": 369.029264999995,
                    "velocity": 0.2204724409448819,
                    "duration": 0.3746489999999767
                },
                {
                    "name": "F4",
                    "midi": 65,
                    "time": 369.029264999995,
                    "velocity": 0.2677165354330709,
                    "duration": 0.3746489999999767
                },
                {
                    "name": "D#4",
                    "midi": 63,
                    "time": 369.403913999995,
                    "velocity": 0.2204724409448819,
                    "duration": 0.3746489999999767
                },
                {
                    "name": "G4",
                    "midi": 67,
                    "time": 369.403913999995,
                    "velocity": 0.2677165354330709,
                    "duration": 0.3746489999999767
                },
                {
                    "name": "D4",
                    "midi": 62,
                    "time": 369.77856299999496,
                    "velocity": 0.2204724409448819,
                    "duration": 0.3746489999999767
                },
                {
                    "name": "F4",
                    "midi": 65,
                    "time": 369.77856299999496,
                    "velocity": 0.2677165354330709,
                    "duration": 0.3746489999999767
                },
                {
                    "name": "G3",
                    "midi": 55,
                    "time": 370.90250999999495,
                    "velocity": 0.2204724409448819,
                    "duration": 1.12394699999993
                },
                {
                    "name": "B3",
                    "midi": 59,
                    "time": 370.90250999999495,
                    "velocity": 0.2204724409448819,
                    "duration": 0.3746489999999767
                },
                {
                    "name": "D4",
                    "midi": 62,
                    "time": 370.90250999999495,
                    "velocity": 0.2677165354330709,
                    "duration": 0.3746489999999767
                },
                {
                    "name": "C4",
                    "midi": 60,
                    "time": 371.2771589999949,
                    "velocity": 0.2204724409448819,
                    "duration": 0.3746489999999767
                },
                {
                    "name": "D#4",
                    "midi": 63,
                    "time": 371.2771589999949,
                    "velocity": 0.2677165354330709,
                    "duration": 0.3746489999999767
                },
                {
                    "name": "D4",
                    "midi": 62,
                    "time": 371.6518079999949,
                    "velocity": 0.2204724409448819,
                    "duration": 0.3746489999999767
                },
                {
                    "name": "F4",
                    "midi": 65,
                    "time": 371.6518079999949,
                    "velocity": 0.2677165354330709,
                    "duration": 0.3746489999999767
                },
                {
                    "name": "C4",
                    "midi": 60,
                    "time": 372.0264569999949,
                    "velocity": 0.23622047244094488,
                    "duration": 0.3746489999999767
                },
                {
                    "name": "D#4",
                    "midi": 63,
                    "time": 372.0264569999949,
                    "velocity": 0.29133858267716534,
                    "duration": 0.3746489999999767
                },
                {
                    "name": "F3",
                    "midi": 53,
                    "time": 372.77575499999483,
                    "velocity": 0.23622047244094488,
                    "duration": 0.3746489999999767
                },
                {
                    "name": "D#4",
                    "midi": 63,
                    "time": 372.77575499999483,
                    "velocity": 0.29133858267716534,
                    "duration": 0.3746489999999767
                },
                {
                    "name": "G3",
                    "midi": 55,
                    "time": 373.1504039999948,
                    "velocity": 0.23622047244094488,
                    "duration": 0.3746489999999767
                },
                {
                    "name": "D4",
                    "midi": 62,
                    "time": 373.1504039999948,
                    "velocity": 0.29133858267716534,
                    "duration": 0.3746489999999767
                },
                {
                    "name": "D#4",
                    "midi": 63,
                    "time": 373.89970199999476,
                    "velocity": 0.23622047244094488,
                    "duration": 0.3746489999999767
                },
                {
                    "name": "G4",
                    "midi": 67,
                    "time": 373.89970199999476,
                    "velocity": 0.29133858267716534,
                    "duration": 0.3746489999999767
                },
                {
                    "name": "F4",
                    "midi": 65,
                    "time": 374.4616754999947,
                    "velocity": 0.33070866141732286,
                    "duration": 0.046831124999982876
                },
                {
                    "name": "F4",
                    "midi": 65,
                    "time": 374.6489999999947,
                    "velocity": 0.3543307086614173,
                    "duration": 0.046831124999982876
                },
                {
                    "name": "F4",
                    "midi": 65,
                    "time": 374.8363244999947,
                    "velocity": 0.30708661417322836,
                    "duration": 0.046831124999982876
                },
                {
                    "name": "F4",
                    "midi": 65,
                    "time": 375.0236489999947,
                    "velocity": 0.3228346456692913,
                    "duration": 0.046831124999982876
                },
                {
                    "name": "F4",
                    "midi": 65,
                    "time": 375.2109734999947,
                    "velocity": 0.2992125984251969,
                    "duration": 0.046831124999982876
                },
                {
                    "name": "F#4",
                    "midi": 66,
                    "time": 375.39829799999467,
                    "velocity": 0.33070866141732286,
                    "duration": 0.1966907249999963
                },
                {
                    "name": "F4",
                    "midi": 65,
                    "time": 375.58562249999466,
                    "velocity": 0.2992125984251969,
                    "duration": 0.1966907249999963
                },
                {
                    "name": "D#4",
                    "midi": 63,
                    "time": 375.77294699999464,
                    "velocity": 0.2992125984251969,
                    "duration": 0.1966907249999963
                },
                {
                    "name": "C#4",
                    "midi": 61,
                    "time": 375.96027149999463,
                    "velocity": 0.2992125984251969,
                    "duration": 0.1966907249999963
                },
                {
                    "name": "C4",
                    "midi": 60,
                    "time": 376.1475959999946,
                    "velocity": 0.33070866141732286,
                    "duration": 0.1966907249999963
                },
                {
                    "name": "A#3",
                    "midi": 58,
                    "time": 376.3349204999946,
                    "velocity": 0.29133858267716534,
                    "duration": 0.18732449999998835
                },
                {
                    "name": "F3",
                    "midi": 53,
                    "time": 376.7095694999946,
                    "velocity": 0.33070866141732286,
                    "duration": 0.046831124999982876
                },
                {
                    "name": "F3",
                    "midi": 53,
                    "time": 376.8968939999946,
                    "velocity": 0.3543307086614173,
                    "duration": 0.046831124999982876
                },
                {
                    "name": "F3",
                    "midi": 53,
                    "time": 377.08421849999456,
                    "velocity": 0.30708661417322836,
                    "duration": 0.046831124999982876
                },
                {
                    "name": "F3",
                    "midi": 53,
                    "time": 377.27154299999455,
                    "velocity": 0.3228346456692913,
                    "duration": 0.046831124999982876
                },
                {
                    "name": "F3",
                    "midi": 53,
                    "time": 377.45886749999454,
                    "velocity": 0.2992125984251969,
                    "duration": 0.046831124999982876
                },
                {
                    "name": "F#3",
                    "midi": 54,
                    "time": 377.6461919999945,
                    "velocity": 0.33070866141732286,
                    "duration": 0.1966907249999963
                },
                {
                    "name": "F3",
                    "midi": 53,
                    "time": 377.8335164999945,
                    "velocity": 0.2992125984251969,
                    "duration": 0.1966907249999963
                },
                {
                    "name": "D#3",
                    "midi": 51,
                    "time": 378.0208409999945,
                    "velocity": 0.2992125984251969,
                    "duration": 0.1966907249999963
                },
                {
                    "name": "C#3",
                    "midi": 49,
                    "time": 378.2081654999945,
                    "velocity": 0.2992125984251969,
                    "duration": 0.1966907249999963
                },
                {
                    "name": "C3",
                    "midi": 48,
                    "time": 378.3954899999945,
                    "velocity": 0.33070866141732286,
                    "duration": 0.1966907249999963
                },
                {
                    "name": "A#2",
                    "midi": 46,
                    "time": 378.58281449999447,
                    "velocity": 0.29133858267716534,
                    "duration": 0.18732449999998835
                },
                {
                    "name": "F2",
                    "midi": 41,
                    "time": 378.77013899999446,
                    "velocity": 0.33070866141732286,
                    "duration": 0.3746489999999767
                },
                {
                    "name": "F3",
                    "midi": 53,
                    "time": 379.89408599999445,
                    "velocity": 0.2283464566929134,
                    "duration": 2.6225430000000074
                },
                {
                    "name": "D#4",
                    "midi": 63,
                    "time": 379.89408599999445,
                    "velocity": 0.29133858267716534,
                    "duration": 2.6225430000000074
                },
                {
                    "name": "A3",
                    "midi": 57,
                    "time": 379.89408599999445,
                    "velocity": 0.2283464566929134,
                    "duration": 2.6225430000000074
                },
                {
                    "name": "A#3",
                    "midi": 58,
                    "time": 383.26592699999446,
                    "velocity": 0.25984251968503935,
                    "duration": 0.7492980000000102
                },
                {
                    "name": "F3",
                    "midi": 53,
                    "time": 384.0152249999945,
                    "velocity": 0.2440944881889764,
                    "duration": 0.3746489999999767
                },
                {
                    "name": "D3",
                    "midi": 50,
                    "time": 384.38987399999445,
                    "velocity": 0.29133858267716534,
                    "duration": 0.7492980000000102
                },
                {
                    "name": "F3",
                    "midi": 53,
                    "time": 385.13917199999446,
                    "velocity": 0.2992125984251969,
                    "duration": 0.3746489999999767
                },
                {
                    "name": "A#3",
                    "midi": 58,
                    "time": 385.51382099999444,
                    "velocity": 0.3228346456692913,
                    "duration": 0.7492980000000102
                },
                {
                    "name": "D4",
                    "midi": 62,
                    "time": 386.26311899999445,
                    "velocity": 0.33858267716535434,
                    "duration": 0.3746489999999767
                },
                {
                    "name": "F4",
                    "midi": 65,
                    "time": 386.6377679999944,
                    "velocity": 0.33858267716535434,
                    "duration": 0.7492980000000102
                },
                {
                    "name": "D#4",
                    "midi": 63,
                    "time": 387.7617149999944,
                    "velocity": 0.28346456692913385,
                    "duration": 2.247893999999974
                },
                {
                    "name": "F3",
                    "midi": 53,
                    "time": 387.7617149999944,
                    "velocity": 0.23622047244094488,
                    "duration": 2.247893999999974
                },
                {
                    "name": "C4",
                    "midi": 60,
                    "time": 387.7617149999944,
                    "velocity": 0.23622047244094488,
                    "duration": 2.247893999999974
                },
                {
                    "name": "D4",
                    "midi": 62,
                    "time": 390.0096089999944,
                    "velocity": 0.2992125984251969,
                    "duration": 0.3746489999999767
                },
                {
                    "name": "A#3",
                    "midi": 58,
                    "time": 390.0096089999944,
                    "velocity": 0.25196850393700787,
                    "duration": 0.3746489999999767
                },
                {
                    "name": "F3",
                    "midi": 53,
                    "time": 392.25750299999436,
                    "velocity": 0.23622047244094488,
                    "duration": 2.247893999999974
                },
                {
                    "name": "C4",
                    "midi": 60,
                    "time": 392.25750299999436,
                    "velocity": 0.23622047244094488,
                    "duration": 2.247893999999974
                },
                {
                    "name": "D#4",
                    "midi": 63,
                    "time": 392.25750299999436,
                    "velocity": 0.28346456692913385,
                    "duration": 2.247893999999974
                },
                {
                    "name": "A#3",
                    "midi": 58,
                    "time": 394.50539699999433,
                    "velocity": 0.2677165354330709,
                    "duration": 0.0936622500000226
                },
                {
                    "name": "D4",
                    "midi": 62,
                    "time": 394.50539699999433,
                    "velocity": 0.31496062992125984,
                    "duration": 0.0936622500000226
                },
                {
                    "name": "D4",
                    "midi": 62,
                    "time": 394.88004599999437,
                    "velocity": 0.2992125984251969,
                    "duration": 0.0936622500000226
                },
                {
                    "name": "A#3",
                    "midi": 58,
                    "time": 394.88004599999437,
                    "velocity": 0.25196850393700787,
                    "duration": 0.0936622500000226
                },
                {
                    "name": "F4",
                    "midi": 65,
                    "time": 395.2546949999944,
                    "velocity": 0.2992125984251969,
                    "duration": 0.0936622500000226
                },
                {
                    "name": "A#3",
                    "midi": 58,
                    "time": 395.2546949999944,
                    "velocity": 0.25196850393700787,
                    "duration": 0.0936622500000226
                },
                {
                    "name": "D4",
                    "midi": 62,
                    "time": 395.62934399999443,
                    "velocity": 0.31496062992125984,
                    "duration": 0.3746489999999767
                },
                {
                    "name": "A#3",
                    "midi": 58,
                    "time": 395.62934399999443,
                    "velocity": 0.2677165354330709,
                    "duration": 0.3746489999999767
                },
                {
                    "name": "A#3",
                    "midi": 58,
                    "time": 397.1279399999944,
                    "velocity": 0.23622047244094488,
                    "duration": 0.3746489999999767
                },
                {
                    "name": "G3",
                    "midi": 55,
                    "time": 397.1279399999944,
                    "velocity": 0.1968503937007874,
                    "duration": 0.3746489999999767
                },
                {
                    "name": "D#3",
                    "midi": 51,
                    "time": 397.1279399999944,
                    "velocity": 0.1968503937007874,
                    "duration": 0.3746489999999767
                },
                {
                    "name": "F3",
                    "midi": 53,
                    "time": 398.2518869999944,
                    "velocity": 0.1968503937007874,
                    "duration": 0.3746489999999767
                },
                {
                    "name": "D3",
                    "midi": 50,
                    "time": 398.2518869999944,
                    "velocity": 0.1968503937007874,
                    "duration": 0.3746489999999767
                },
                {
                    "name": "A#3",
                    "midi": 58,
                    "time": 398.2518869999944,
                    "velocity": 0.23622047244094488,
                    "duration": 0.3746489999999767
                },
                {
                    "name": "A3",
                    "midi": 57,
                    "time": 399.00118499999434,
                    "velocity": 0.2283464566929134,
                    "duration": 1.123946999999987
                },
                {
                    "name": "F4",
                    "midi": 65,
                    "time": 399.00118499999434,
                    "velocity": 0.2677165354330709,
                    "duration": 1.4985959999999636
                },
                {
                    "name": "A#3",
                    "midi": 58,
                    "time": 400.1251319999943,
                    "velocity": 0.2677165354330709,
                    "duration": 0.3746489999999767
                },
                {
                    "name": "D#3",
                    "midi": 51,
                    "time": 401.6237279999943,
                    "velocity": 0.1968503937007874,
                    "duration": 0.3746489999999767
                },
                {
                    "name": "A#3",
                    "midi": 58,
                    "time": 401.6237279999943,
                    "velocity": 0.23622047244094488,
                    "duration": 0.3746489999999767
                },
                {
                    "name": "G3",
                    "midi": 55,
                    "time": 401.6237279999943,
                    "velocity": 0.1968503937007874,
                    "duration": 0.3746489999999767
                },
                {
                    "name": "F3",
                    "midi": 53,
                    "time": 402.7476749999943,
                    "velocity": 0.1968503937007874,
                    "duration": 0.3746489999999767
                },
                {
                    "name": "D3",
                    "midi": 50,
                    "time": 402.7476749999943,
                    "velocity": 0.1968503937007874,
                    "duration": 0.3746489999999767
                },
                {
                    "name": "A#3",
                    "midi": 58,
                    "time": 402.7476749999943,
                    "velocity": 0.23622047244094488,
                    "duration": 0.3746489999999767
                },
                {
                    "name": "A3",
                    "midi": 57,
                    "time": 403.4969729999942,
                    "velocity": 0.2677165354330709,
                    "duration": 0.3746489999999767
                },
                {
                    "name": "F3",
                    "midi": 53,
                    "time": 403.4969729999942,
                    "velocity": 0.2283464566929134,
                    "duration": 1.12394699999993
                },
                {
                    "name": "C4",
                    "midi": 60,
                    "time": 403.8716219999942,
                    "velocity": 0.2440944881889764,
                    "duration": 0.3746489999999767
                },
                {
                    "name": "D#4",
                    "midi": 63,
                    "time": 404.2462709999942,
                    "velocity": 0.2283464566929134,
                    "duration": 0.3746489999999767
                },
                {
                    "name": "D4",
                    "midi": 62,
                    "time": 404.62091999999416,
                    "velocity": 0.2677165354330709,
                    "duration": 0.3746489999999767
                },
                {
                    "name": "A#3",
                    "midi": 58,
                    "time": 404.62091999999416,
                    "velocity": 0.2204724409448819,
                    "duration": 0.3746489999999767
                },
                {
                    "name": "G3",
                    "midi": 55,
                    "time": 405.74486699999414,
                    "velocity": 0.5748031496062992,
                    "duration": 0.0936622500000226
                },
                {
                    "name": "G2",
                    "midi": 43,
                    "time": 406.1195159999942,
                    "velocity": 0.5196850393700787,
                    "duration": 0.0936622500000226
                },
                {
                    "name": "D3",
                    "midi": 50,
                    "time": 406.8688139999942,
                    "velocity": 0.5748031496062992,
                    "duration": 0.0936622500000226
                },
                {
                    "name": "D2",
                    "midi": 38,
                    "time": 407.2434629999942,
                    "velocity": 0.5196850393700787,
                    "duration": 0.0936622500000226
                },
                {
                    "name": "D#3",
                    "midi": 51,
                    "time": 407.99276099999423,
                    "velocity": 0.15748031496062992,
                    "duration": 1.12394699999993
                },
                {
                    "name": "G3",
                    "midi": 55,
                    "time": 407.99276099999423,
                    "velocity": 0.25984251968503935,
                    "duration": 0.18732449999998835
                },
                {
                    "name": "A#3",
                    "midi": 58,
                    "time": 408.1800854999942,
                    "velocity": 0.18110236220472442,
                    "duration": 0.18732449999998835
                },
                {
                    "name": "G3",
                    "midi": 55,
                    "time": 408.3674099999942,
                    "velocity": 0.2125984251968504,
                    "duration": 0.18732449999998835
                },
                {
                    "name": "A#3",
                    "midi": 58,
                    "time": 408.5547344999942,
                    "velocity": 0.1732283464566929,
                    "duration": 0.18732449999998835
                },
                {
                    "name": "G3",
                    "midi": 55,
                    "time": 408.7420589999942,
                    "velocity": 0.2047244094488189,
                    "duration": 0.18732449999998835
                },
                {
                    "name": "A#3",
                    "midi": 58,
                    "time": 408.9293834999942,
                    "velocity": 0.1732283464566929,
                    "duration": 0.18732449999998835
                },
                {
                    "name": "G#3",
                    "midi": 56,
                    "time": 409.11670799999416,
                    "velocity": 0.28346456692913385,
                    "duration": 0.18732449999998835
                },
                {
                    "name": "D3",
                    "midi": 50,
                    "time": 409.11670799999416,
                    "velocity": 0.15748031496062992,
                    "duration": 1.12394699999993
                },
                {
                    "name": "A#3",
                    "midi": 58,
                    "time": 409.30403249999415,
                    "velocity": 0.18110236220472442,
                    "duration": 0.18732449999998835
                },
                {
                    "name": "G#3",
                    "midi": 56,
                    "time": 409.49135699999414,
                    "velocity": 0.2125984251968504,
                    "duration": 0.18732449999998835
                },
                {
                    "name": "A#3",
                    "midi": 58,
                    "time": 409.6786814999941,
                    "velocity": 0.18110236220472442,
                    "duration": 0.18732449999998835
                },
                {
                    "name": "G#3",
                    "midi": 56,
                    "time": 409.8660059999941,
                    "velocity": 0.2125984251968504,
                    "duration": 0.18732449999998835
                },
                {
                    "name": "A#3",
                    "midi": 58,
                    "time": 410.0533304999941,
                    "velocity": 0.1889763779527559,
                    "duration": 0.18732449999998835
                },
                {
                    "name": "D#3",
                    "midi": 51,
                    "time": 410.2406549999941,
                    "velocity": 0.15748031496062992,
                    "duration": 1.12394699999993
                },
                {
                    "name": "G3",
                    "midi": 55,
                    "time": 410.2406549999941,
                    "velocity": 0.25984251968503935,
                    "duration": 0.18732449999998835
                },
                {
                    "name": "A#3",
                    "midi": 58,
                    "time": 410.4279794999941,
                    "velocity": 0.18110236220472442,
                    "duration": 0.18732449999998835
                },
                {
                    "name": "G3",
                    "midi": 55,
                    "time": 410.61530399999407,
                    "velocity": 0.2125984251968504,
                    "duration": 0.18732449999998835
                },
                {
                    "name": "A#3",
                    "midi": 58,
                    "time": 410.80262849999406,
                    "velocity": 0.18110236220472442,
                    "duration": 0.18732449999998835
                },
                {
                    "name": "G3",
                    "midi": 55,
                    "time": 410.98995299999405,
                    "velocity": 0.2125984251968504,
                    "duration": 0.18732449999998835
                },
                {
                    "name": "A#3",
                    "midi": 58,
                    "time": 411.17727749999403,
                    "velocity": 0.1968503937007874,
                    "duration": 0.18732449999998835
                },
                {
                    "name": "D3",
                    "midi": 50,
                    "time": 411.364601999994,
                    "velocity": 0.15748031496062992,
                    "duration": 1.12394699999993
                },
                {
                    "name": "G#3",
                    "midi": 56,
                    "time": 411.364601999994,
                    "velocity": 0.25984251968503935,
                    "duration": 0.18732449999998835
                },
                {
                    "name": "A#3",
                    "midi": 58,
                    "time": 411.551926499994,
                    "velocity": 0.2125984251968504,
                    "duration": 0.18732449999998835
                },
                {
                    "name": "G#3",
                    "midi": 56,
                    "time": 411.739250999994,
                    "velocity": 0.2125984251968504,
                    "duration": 0.18732449999998835
                },
                {
                    "name": "A#3",
                    "midi": 58,
                    "time": 411.926575499994,
                    "velocity": 0.1889763779527559,
                    "duration": 0.18732449999998835
                },
                {
                    "name": "G#3",
                    "midi": 56,
                    "time": 412.113899999994,
                    "velocity": 0.2125984251968504,
                    "duration": 0.18732449999998835
                },
                {
                    "name": "A#3",
                    "midi": 58,
                    "time": 412.30122449999396,
                    "velocity": 0.18110236220472442,
                    "duration": 0.18732449999998835
                },
                {
                    "name": "D#3",
                    "midi": 51,
                    "time": 412.48854899999395,
                    "velocity": 0.16535433070866143,
                    "duration": 1.12394699999993
                },
                {
                    "name": "G3",
                    "midi": 55,
                    "time": 412.48854899999395,
                    "velocity": 0.2755905511811024,
                    "duration": 0.18732449999998835
                },
                {
                    "name": "A#3",
                    "midi": 58,
                    "time": 412.67587349999394,
                    "velocity": 0.1889763779527559,
                    "duration": 0.18732449999998835
                },
                {
                    "name": "G3",
                    "midi": 55,
                    "time": 412.86319799999393,
                    "velocity": 0.2204724409448819,
                    "duration": 0.18732449999998835
                },
                {
                    "name": "A#3",
                    "midi": 58,
                    "time": 413.0505224999939,
                    "velocity": 0.18110236220472442,
                    "duration": 0.18732449999998835
                },
                {
                    "name": "G3",
                    "midi": 55,
                    "time": 413.2378469999939,
                    "velocity": 0.2125984251968504,
                    "duration": 0.18732449999998835
                },
                {
                    "name": "A#3",
                    "midi": 58,
                    "time": 413.4251714999939,
                    "velocity": 0.18110236220472442,
                    "duration": 0.18732449999998835
                },
                {
                    "name": "F3",
                    "midi": 53,
                    "time": 413.6124959999939,
                    "velocity": 0.2992125984251969,
                    "duration": 0.18732449999998835
                },
                {
                    "name": "D3",
                    "midi": 50,
                    "time": 413.6124959999939,
                    "velocity": 0.16535433070866143,
                    "duration": 1.12394699999993
                },
                {
                    "name": "G#3",
                    "midi": 56,
                    "time": 413.79982049999387,
                    "velocity": 0.1889763779527559,
                    "duration": 0.18732449999998835
                },
                {
                    "name": "F3",
                    "midi": 53,
                    "time": 413.98714499999386,
                    "velocity": 0.25196850393700787,
                    "duration": 0.18732449999998835
                },
                {
                    "name": "G#3",
                    "midi": 56,
                    "time": 414.17446949999385,
                    "velocity": 0.2204724409448819,
                    "duration": 0.18732449999998835
                },
                {
                    "name": "F3",
                    "midi": 53,
                    "time": 414.36179399999384,
                    "velocity": 0.25196850393700787,
                    "duration": 0.18732449999998835
                },
                {
                    "name": "G#3",
                    "midi": 56,
                    "time": 414.5491184999938,
                    "velocity": 0.2125984251968504,
                    "duration": 0.18732449999998835
                },
                {
                    "name": "D#3",
                    "midi": 51,
                    "time": 414.7364429999938,
                    "velocity": 0.18110236220472442,
                    "duration": 1.12394699999993
                },
                {
                    "name": "G3",
                    "midi": 55,
                    "time": 414.7364429999938,
                    "velocity": 0.29133858267716534,
                    "duration": 0.18732449999998835
                },
                {
                    "name": "C4",
                    "midi": 60,
                    "time": 414.9237674999938,
                    "velocity": 0.25196850393700787,
                    "duration": 0.18732449999998835
                },
                {
                    "name": "G3",
                    "midi": 55,
                    "time": 415.1110919999938,
                    "velocity": 0.2677165354330709,
                    "duration": 0.18732449999998835
                },
                {
                    "name": "C4",
                    "midi": 60,
                    "time": 415.2984164999938,
                    "velocity": 0.2283464566929134,
                    "duration": 0.18732449999998835
                },
                {
                    "name": "G3",
                    "midi": 55,
                    "time": 415.48574099999377,
                    "velocity": 0.23622047244094488,
                    "duration": 0.18732449999998835
                },
                {
                    "name": "C4",
                    "midi": 60,
                    "time": 415.67306549999375,
                    "velocity": 0.2204724409448819,
                    "duration": 0.18732449999998835
                },
                {
                    "name": "F#3",
                    "midi": 54,
                    "time": 415.86038999999374,
                    "velocity": 0.18110236220472442,
                    "duration": 1.12394699999993
                },
                {
                    "name": "C4",
                    "midi": 60,
                    "time": 415.86038999999374,
                    "velocity": 0.29133858267716534,
                    "duration": 0.18732449999998835
                },
                {
                    "name": "D#4",
                    "midi": 63,
                    "time": 416.04771449999373,
                    "velocity": 0.23622047244094488,
                    "duration": 0.18732449999998835
                },
                {
                    "name": "C4",
                    "midi": 60,
                    "time": 416.2350389999937,
                    "velocity": 0.23622047244094488,
                    "duration": 0.18732449999998835
                },
                {
                    "name": "D#4",
                    "midi": 63,
                    "time": 416.4223634999937,
                    "velocity": 0.2125984251968504,
                    "duration": 0.1966907249999963
                },
                {
                    "name": "C4",
                    "midi": 60,
                    "time": 416.6096879999937,
                    "velocity": 0.23622047244094488,
                    "duration": 0.18732449999998835
                },
                {
                    "name": "D#4",
                    "midi": 63,
                    "time": 416.7970124999937,
                    "velocity": 0.2047244094488189,
                    "duration": 0.18732449999998835
                },
                {
                    "name": "A#3",
                    "midi": 58,
                    "time": 416.9843369999937,
                    "velocity": 0.3464566929133858,
                    "duration": 0.18732449999998835
                },
                {
                    "name": "G3",
                    "midi": 55,
                    "time": 416.9843369999937,
                    "velocity": 0.2125984251968504,
                    "duration": 1.12394699999993
                },
                {
                    "name": "D4",
                    "midi": 62,
                    "time": 417.17166149999366,
                    "velocity": 0.23622047244094488,
                    "duration": 0.18732449999998835
                },
                {
                    "name": "A#3",
                    "midi": 58,
                    "time": 417.35898599999365,
                    "velocity": 0.28346456692913385,
                    "duration": 0.18732449999998835
                },
                {
                    "name": "D4",
                    "midi": 62,
                    "time": 417.54631049999364,
                    "velocity": 0.23622047244094488,
                    "duration": 0.18732449999998835
                },
                {
                    "name": "A#3",
                    "midi": 58,
                    "time": 417.7336349999936,
                    "velocity": 0.28346456692913385,
                    "duration": 0.18732449999998835
                },
                {
                    "name": "D4",
                    "midi": 62,
                    "time": 417.9209594999936,
                    "velocity": 0.25984251968503935,
                    "duration": 0.18732449999998835
                },
                {
                    "name": "G4",
                    "midi": 67,
                    "time": 418.1082839999936,
                    "velocity": 0.3464566929133858,
                    "duration": 0.18732449999998835
                },
                {
                    "name": "C4",
                    "midi": 60,
                    "time": 418.1082839999936,
                    "velocity": 0.2125984251968504,
                    "duration": 1.12394699999993
                },
                {
                    "name": "A#4",
                    "midi": 70,
                    "time": 418.2956084999936,
                    "velocity": 0.28346456692913385,
                    "duration": 0.18732449999998835
                },
                {
                    "name": "G4",
                    "midi": 67,
                    "time": 418.4829329999936,
                    "velocity": 0.28346456692913385,
                    "duration": 0.18732449999998835
                },
                {
                    "name": "A#4",
                    "midi": 70,
                    "time": 418.67025749999357,
                    "velocity": 0.2440944881889764,
                    "duration": 0.1966907249999963
                },
                {
                    "name": "G4",
                    "midi": 67,
                    "time": 418.85758199999356,
                    "velocity": 0.28346456692913385,
                    "duration": 0.18732449999998835
                },
                {
                    "name": "A#4",
                    "midi": 70,
                    "time": 419.04490649999354,
                    "velocity": 0.23622047244094488,
                    "duration": 0.18732449999998835
                },
                {
                    "name": "F4",
                    "midi": 65,
                    "time": 419.23223099999353,
                    "velocity": 0.3464566929133858,
                    "duration": 0.3746489999999767
                },
                {
                    "name": "A4",
                    "midi": 69,
                    "time": 419.23223099999353,
                    "velocity": 0.3464566929133858,
                    "duration": 0.3746489999999767
                },
                {
                    "name": "D#5",
                    "midi": 75,
                    "time": 419.9815289999935,
                    "velocity": 0.36220472440944884,
                    "duration": 0.18732449999998835
                },
                {
                    "name": "D5",
                    "midi": 74,
                    "time": 420.35617799999346,
                    "velocity": 0.4094488188976378,
                    "duration": 0.18732449999998835
                },
                {
                    "name": "A4",
                    "midi": 69,
                    "time": 420.73082699999344,
                    "velocity": 0.4409448818897638,
                    "duration": 0.18732449999998835
                },
                {
                    "name": "A#4",
                    "midi": 70,
                    "time": 421.1054759999934,
                    "velocity": 0.41732283464566927,
                    "duration": 0.18732449999998835
                },
                {
                    "name": "F4",
                    "midi": 65,
                    "time": 421.4801249999934,
                    "velocity": 0.4645669291338583,
                    "duration": 0.3746489999999767
                },
                {
                    "name": "D#5",
                    "midi": 75,
                    "time": 422.22942299999335,
                    "velocity": 0.4015748031496063,
                    "duration": 0.18732449999998835
                },
                {
                    "name": "D5",
                    "midi": 74,
                    "time": 422.6040719999933,
                    "velocity": 0.44881889763779526,
                    "duration": 0.18732449999998835
                },
                {
                    "name": "A4",
                    "midi": 69,
                    "time": 422.9787209999933,
                    "velocity": 0.4645669291338583,
                    "duration": 0.18732449999998835
                },
                {
                    "name": "A#4",
                    "midi": 70,
                    "time": 423.3533699999933,
                    "velocity": 0.4251968503937008,
                    "duration": 0.18732449999998835
                },
                {
                    "name": "F4",
                    "midi": 65,
                    "time": 423.72801899999325,
                    "velocity": 0.4881889763779528,
                    "duration": 0.3746489999999767
                },
                {
                    "name": "F4",
                    "midi": 65,
                    "time": 424.57097924999323,
                    "velocity": 0.3700787401574803,
                    "duration": 0.0936622500000226
                },
                {
                    "name": "C4",
                    "midi": 60,
                    "time": 424.66464149999325,
                    "velocity": 0.4251968503937008,
                    "duration": 0.0936622500000226
                },
                {
                    "name": "A3",
                    "midi": 57,
                    "time": 424.7583037499933,
                    "velocity": 0.3700787401574803,
                    "duration": 0.0936622500000226
                },
                {
                    "name": "F3",
                    "midi": 53,
                    "time": 424.8519659999933,
                    "velocity": 0.5433070866141733,
                    "duration": 0.0936622500000226
                },
                {
                    "name": "F2",
                    "midi": 41,
                    "time": 425.22661499999333,
                    "velocity": 0.4645669291338583,
                    "duration": 0.3746489999999767
                },
                {
                    "name": "A#3",
                    "midi": 58,
                    "time": 425.9759129999933,
                    "velocity": 0.2677165354330709,
                    "duration": 0.7649083750000045
                },
                {
                    "name": "F3",
                    "midi": 53,
                    "time": 426.7252109999933,
                    "velocity": 0.23622047244094488,
                    "duration": 0.3746489999999767
                },
                {
                    "name": "D3",
                    "midi": 50,
                    "time": 427.09985999999327,
                    "velocity": 0.2677165354330709,
                    "duration": 0.7649083750000045
                },
                {
                    "name": "F3",
                    "midi": 53,
                    "time": 427.8491579999933,
                    "velocity": 0.25196850393700787,
                    "duration": 0.3746489999999767
                },
                {
                    "name": "A#3",
                    "midi": 58,
                    "time": 428.22380699999326,
                    "velocity": 0.2677165354330709,
                    "duration": 0.7649083750000045
                },
                {
                    "name": "D4",
                    "midi": 62,
                    "time": 428.97310499999327,
                    "velocity": 0.28346456692913385,
                    "duration": 0.3746489999999767
                },
                {
                    "name": "F4",
                    "midi": 65,
                    "time": 429.34775399999324,
                    "velocity": 0.2992125984251969,
                    "duration": 0.3746489999999767
                },
                {
                    "name": "D#3",
                    "midi": 51,
                    "time": 430.47170099999323,
                    "velocity": 0.2677165354330709,
                    "duration": 0.7649083750000045
                },
                {
                    "name": "C3",
                    "midi": 48,
                    "time": 431.22099899999324,
                    "velocity": 0.23622047244094488,
                    "duration": 0.3746489999999767
                },
                {
                    "name": "A2",
                    "midi": 45,
                    "time": 431.5956479999932,
                    "velocity": 0.2677165354330709,
                    "duration": 0.7649083750000045
                },
                {
                    "name": "C3",
                    "midi": 48,
                    "time": 432.34494599999323,
                    "velocity": 0.25196850393700787,
                    "duration": 0.3746489999999767
                },
                {
                    "name": "D#3",
                    "midi": 51,
                    "time": 432.7195949999932,
                    "velocity": 0.2677165354330709,
                    "duration": 0.7649083750000045
                },
                {
                    "name": "A3",
                    "midi": 57,
                    "time": 433.4688929999932,
                    "velocity": 0.28346456692913385,
                    "duration": 0.3746489999999767
                },
                {
                    "name": "C4",
                    "midi": 60,
                    "time": 433.8435419999932,
                    "velocity": 0.2992125984251969,
                    "duration": 0.3746489999999767
                },
                {
                    "name": "D4",
                    "midi": 62,
                    "time": 434.9674889999932,
                    "velocity": 0.2755905511811024,
                    "duration": 0.18732449999998835
                },
                {
                    "name": "F4",
                    "midi": 65,
                    "time": 435.15481349999317,
                    "velocity": 0.2204724409448819,
                    "duration": 0.18732449999998835
                },
                {
                    "name": "D4",
                    "midi": 62,
                    "time": 435.34213799999316,
                    "velocity": 0.2755905511811024,
                    "duration": 0.18732449999998835
                },
                {
                    "name": "F4",
                    "midi": 65,
                    "time": 435.52946249999314,
                    "velocity": 0.1968503937007874,
                    "duration": 0.18732449999998835
                },
                {
                    "name": "D4",
                    "midi": 62,
                    "time": 435.71678699999313,
                    "velocity": 0.25196850393700787,
                    "duration": 0.18732449999998835
                },
                {
                    "name": "F4",
                    "midi": 65,
                    "time": 435.9041114999931,
                    "velocity": 0.1889763779527559,
                    "duration": 0.18732449999998835
                },
                {
                    "name": "D#4",
                    "midi": 63,
                    "time": 436.0914359999931,
                    "velocity": 0.2755905511811024,
                    "duration": 0.18732449999998835
                },
                {
                    "name": "F4",
                    "midi": 65,
                    "time": 436.2787604999931,
                    "velocity": 0.2440944881889764,
                    "duration": 0.18732449999998835
                },
                {
                    "name": "D#4",
                    "midi": 63,
                    "time": 436.4660849999931,
                    "velocity": 0.2755905511811024,
                    "duration": 0.18732449999998835
                },
                {
                    "name": "F4",
                    "midi": 65,
                    "time": 436.6534094999931,
                    "velocity": 0.2047244094488189,
                    "duration": 0.18732449999998835
                },
                {
                    "name": "D#4",
                    "midi": 63,
                    "time": 436.84073399999306,
                    "velocity": 0.25984251968503935,
                    "duration": 0.18732449999998835
                },
                {
                    "name": "F4",
                    "midi": 65,
                    "time": 437.02805849999305,
                    "velocity": 0.2283464566929134,
                    "duration": 0.18732449999998835
                },
                {
                    "name": "D4",
                    "midi": 62,
                    "time": 437.21538299999304,
                    "velocity": 0.2755905511811024,
                    "duration": 0.18732449999998835
                },
                {
                    "name": "F4",
                    "midi": 65,
                    "time": 437.402707499993,
                    "velocity": 0.23622047244094488,
                    "duration": 0.18732449999998835
                },
                {
                    "name": "D4",
                    "midi": 62,
                    "time": 437.590031999993,
                    "velocity": 0.25196850393700787,
                    "duration": 0.18732449999998835
                },
                {
                    "name": "F4",
                    "midi": 65,
                    "time": 437.777356499993,
                    "velocity": 0.1889763779527559,
                    "duration": 0.18732449999998835
                },
                {
                    "name": "D4",
                    "midi": 62,
                    "time": 437.964680999993,
                    "velocity": 0.25196850393700787,
                    "duration": 0.18732449999998835
                },
                {
                    "name": "F4",
                    "midi": 65,
                    "time": 438.152005499993,
                    "velocity": 0.1968503937007874,
                    "duration": 0.18732449999998835
                },
                {
                    "name": "D#4",
                    "midi": 63,
                    "time": 438.33932999999297,
                    "velocity": 0.2755905511811024,
                    "duration": 0.18732449999998835
                },
                {
                    "name": "F4",
                    "midi": 65,
                    "time": 438.52665449999296,
                    "velocity": 0.2440944881889764,
                    "duration": 0.18732449999998835
                },
                {
                    "name": "D#4",
                    "midi": 63,
                    "time": 438.71397899999295,
                    "velocity": 0.2755905511811024,
                    "duration": 0.18732449999998835
                },
                {
                    "name": "F4",
                    "midi": 65,
                    "time": 438.90130349999293,
                    "velocity": 0.2047244094488189,
                    "duration": 0.18732449999998835
                },
                {
                    "name": "D#4",
                    "midi": 63,
                    "time": 439.0886279999929,
                    "velocity": 0.25984251968503935,
                    "duration": 0.18732449999998835
                },
                {
                    "name": "F4",
                    "midi": 65,
                    "time": 439.2759524999929,
                    "velocity": 0.2283464566929134,
                    "duration": 0.18732449999998835
                },
                {
                    "name": "C#4",
                    "midi": 61,
                    "time": 439.4632769999929,
                    "velocity": 0.2755905511811024,
                    "duration": 0.18732449999998835
                },
                {
                    "name": "F4",
                    "midi": 65,
                    "time": 439.6506014999929,
                    "velocity": 0.23622047244094488,
                    "duration": 0.18732449999998835
                },
                {
                    "name": "C#4",
                    "midi": 61,
                    "time": 439.8379259999929,
                    "velocity": 0.25196850393700787,
                    "duration": 0.18732449999998835
                },
                {
                    "name": "F4",
                    "midi": 65,
                    "time": 440.02525049999286,
                    "velocity": 0.2204724409448819,
                    "duration": 0.18732449999998835
                },
                {
                    "name": "C#4",
                    "midi": 61,
                    "time": 440.21257499999285,
                    "velocity": 0.2992125984251969,
                    "duration": 0.18732449999998835
                },
                {
                    "name": "F4",
                    "midi": 65,
                    "time": 440.39989949999284,
                    "velocity": 0.2440944881889764,
                    "duration": 0.18732449999998835
                },
                {
                    "name": "G3",
                    "midi": 55,
                    "time": 440.58722399999283,
                    "velocity": 0.31496062992125984,
                    "duration": 1.12394699999993
                },
                {
                    "name": "D4",
                    "midi": 62,
                    "time": 440.58722399999283,
                    "velocity": 0.31496062992125984,
                    "duration": 0.18732449999998835
                },
                {
                    "name": "F4",
                    "midi": 65,
                    "time": 440.7745484999928,
                    "velocity": 0.2677165354330709,
                    "duration": 0.18732449999998835
                },
                {
                    "name": "D4",
                    "midi": 62,
                    "time": 440.9618729999928,
                    "velocity": 0.2992125984251969,
                    "duration": 0.18732449999998835
                },
                {
                    "name": "F4",
                    "midi": 65,
                    "time": 441.1491974999928,
                    "velocity": 0.25196850393700787,
                    "duration": 0.18732449999998835
                },
                {
                    "name": "D4",
                    "midi": 62,
                    "time": 441.3365219999928,
                    "velocity": 0.30708661417322836,
                    "duration": 0.18732449999998835
                },
                {
                    "name": "F4",
                    "midi": 65,
                    "time": 441.52384649999277,
                    "velocity": 0.25196850393700787,
                    "duration": 0.18732449999998835
                },
                {
                    "name": "D#4",
                    "midi": 63,
                    "time": 441.71117099999276,
                    "velocity": 0.30708661417322836,
                    "duration": 0.3746489999999767
                },
                {
                    "name": "C4",
                    "midi": 60,
                    "time": 441.71117099999276,
                    "velocity": 0.30708661417322836,
                    "duration": 0.3746489999999767
                },
                {
                    "name": "F4",
                    "midi": 65,
                    "time": 442.08581999999274,
                    "velocity": 0.2755905511811024,
                    "duration": 0.7492979999999534
                },
                {
                    "name": "A3",
                    "midi": 57,
                    "time": 442.08581999999274,
                    "velocity": 0.2755905511811024,
                    "duration": 0.3746489999999767
                },
                {
                    "name": "A#3",
                    "midi": 58,
                    "time": 442.4604689999927,
                    "velocity": 0.2755905511811024,
                    "duration": 0.3746489999999767
                },
                {
                    "name": "D#3",
                    "midi": 51,
                    "time": 442.8351179999927,
                    "velocity": 0.33858267716535434,
                    "duration": 0.3746489999999767
                },
                {
                    "name": "D#4",
                    "midi": 63,
                    "time": 442.8351179999927,
                    "velocity": 0.33858267716535434,
                    "duration": 0.3746489999999767
                },
                {
                    "name": "D4",
                    "midi": 62,
                    "time": 443.20976699999267,
                    "velocity": 0.31496062992125984,
                    "duration": 0.3746489999999767
                },
                {
                    "name": "F3",
                    "midi": 53,
                    "time": 443.20976699999267,
                    "velocity": 0.31496062992125984,
                    "duration": 0.7492979999999534
                },
                {
                    "name": "C4",
                    "midi": 60,
                    "time": 443.58441599999264,
                    "velocity": 0.31496062992125984,
                    "duration": 0.3746489999999767
                },
                {
                    "name": "A#3",
                    "midi": 58,
                    "time": 443.9590649999926,
                    "velocity": 0.31496062992125984,
                    "duration": 0.3746489999999767
                },
                {
                    "name": "D3",
                    "midi": 50,
                    "time": 444.5210384999926,
                    "velocity": 0.3543307086614173,
                    "duration": 0.18732449999998835
                },
                {
                    "name": "C3",
                    "midi": 48,
                    "time": 444.7083629999926,
                    "velocity": 0.3937007874015748,
                    "duration": 0.18732449999998835
                },
                {
                    "name": "A#2",
                    "midi": 46,
                    "time": 444.89568749999256,
                    "velocity": 0.3543307086614173,
                    "duration": 0.18732449999998835
                },
                {
                    "name": "A2",
                    "midi": 45,
                    "time": 445.08301199999255,
                    "velocity": 0.31496062992125984,
                    "duration": 0.3746489999999767
                },
                {
                    "name": "G3",
                    "midi": 55,
                    "time": 445.6449854999925,
                    "velocity": 0.3543307086614173,
                    "duration": 0.18732449999998835
                },
                {
                    "name": "F3",
                    "midi": 53,
                    "time": 445.8323099999925,
                    "velocity": 0.3937007874015748,
                    "duration": 0.18732449999998835
                },
                {
                    "name": "A2",
                    "midi": 45,
                    "time": 446.0196344999925,
                    "velocity": 0.3543307086614173,
                    "duration": 0.18732449999998835
                },
                {
                    "name": "A#2",
                    "midi": 46,
                    "time": 446.2069589999925,
                    "velocity": 0.31496062992125984,
                    "duration": 0.3746489999999767
                },
                {
                    "name": "D4",
                    "midi": 62,
                    "time": 446.76893249999245,
                    "velocity": 0.3779527559055118,
                    "duration": 0.18732449999998835
                },
                {
                    "name": "C4",
                    "midi": 60,
                    "time": 446.95625699999243,
                    "velocity": 0.4094488188976378,
                    "duration": 0.18732449999998835
                },
                {
                    "name": "A#3",
                    "midi": 58,
                    "time": 447.1435814999924,
                    "velocity": 0.3779527559055118,
                    "duration": 0.18732449999998835
                },
                {
                    "name": "A3",
                    "midi": 57,
                    "time": 447.3309059999924,
                    "velocity": 0.3779527559055118,
                    "duration": 0.3746489999999767
                },
                {
                    "name": "G4",
                    "midi": 67,
                    "time": 447.8928794999924,
                    "velocity": 0.3858267716535433,
                    "duration": 0.18732449999998835
                },
                {
                    "name": "F4",
                    "midi": 65,
                    "time": 448.08020399999236,
                    "velocity": 0.3937007874015748,
                    "duration": 0.18732449999998835
                },
                {
                    "name": "A3",
                    "midi": 57,
                    "time": 448.26752849999235,
                    "velocity": 0.36220472440944884,
                    "duration": 0.18732449999998835
                },
                {
                    "name": "A#3",
                    "midi": 58,
                    "time": 448.45485299999234,
                    "velocity": 0.3937007874015748,
                    "duration": 0.3746489999999767
                },
                {
                    "name": "F4",
                    "midi": 65,
                    "time": 449.0168264999923,
                    "velocity": 0.3937007874015748,
                    "duration": 0.18732449999998835
                },
                {
                    "name": "D4",
                    "midi": 62,
                    "time": 449.2041509999923,
                    "velocity": 0.4251968503937008,
                    "duration": 0.18732449999998835
                },
                {
                    "name": "C4",
                    "midi": 60,
                    "time": 449.3914754999923,
                    "velocity": 0.4015748031496063,
                    "duration": 0.18732449999998835
                },
                {
                    "name": "B3",
                    "midi": 59,
                    "time": 449.57879999999227,
                    "velocity": 0.4251968503937008,
                    "duration": 0.3746489999999767
                },
                {
                    "name": "G#4",
                    "midi": 68,
                    "time": 450.14077349999224,
                    "velocity": 0.3543307086614173,
                    "duration": 0.18732449999998835
                },
                {
                    "name": "G4",
                    "midi": 67,
                    "time": 450.3280979999922,
                    "velocity": 0.3937007874015748,
                    "duration": 0.18732449999998835
                },
                {
                    "name": "B3",
                    "midi": 59,
                    "time": 450.5154224999922,
                    "velocity": 0.3543307086614173,
                    "duration": 0.18732449999998835
                },
                {
                    "name": "C4",
                    "midi": 60,
                    "time": 450.7027469999922,
                    "velocity": 0.33070866141732286,
                    "duration": 0.0936622500000226
                },
                {
                    "name": "G4",
                    "midi": 67,
                    "time": 450.7964092499922,
                    "velocity": 0.25984251968503935,
                    "duration": 0.0936622500000226
                },
                {
                    "name": "E4",
                    "midi": 64,
                    "time": 450.89007149999225,
                    "velocity": 0.28346456692913385,
                    "duration": 0.0936622500000226
                },
                {
                    "name": "G4",
                    "midi": 67,
                    "time": 450.98373374999227,
                    "velocity": 0.25984251968503935,
                    "duration": 0.0936622500000226
                },
                {
                    "name": "A3",
                    "midi": 57,
                    "time": 451.0773959999923,
                    "velocity": 0.2992125984251969,
                    "duration": 0.0936622500000226
                },
                {
                    "name": "F#4",
                    "midi": 66,
                    "time": 451.1710582499923,
                    "velocity": 0.25984251968503935,
                    "duration": 0.0936622500000226
                },
                {
                    "name": "C4",
                    "midi": 60,
                    "time": 451.26472049999234,
                    "velocity": 0.28346456692913385,
                    "duration": 0.0936622500000226
                },
                {
                    "name": "F#4",
                    "midi": 66,
                    "time": 451.35838274999236,
                    "velocity": 0.25984251968503935,
                    "duration": 0.0936622500000226
                },
                {
                    "name": "A#3",
                    "midi": 58,
                    "time": 451.4520449999924,
                    "velocity": 0.30708661417322836,
                    "duration": 0.0936622500000226
                },
                {
                    "name": "F4",
                    "midi": 65,
                    "time": 451.5457072499924,
                    "velocity": 0.25984251968503935,
                    "duration": 0.0936622500000226
                },
                {
                    "name": "D4",
                    "midi": 62,
                    "time": 451.6393694999924,
                    "velocity": 0.29133858267716534,
                    "duration": 0.0936622500000226
                },
                {
                    "name": "F4",
                    "midi": 65,
                    "time": 451.73303174999245,
                    "velocity": 0.29133858267716534,
                    "duration": 0.0936622500000226
                },
                {
                    "name": "D#3",
                    "midi": 51,
                    "time": 451.8266939999925,
                    "velocity": 0.2440944881889764,
                    "duration": 0.3746489999999767
                },
                {
                    "name": "D#4",
                    "midi": 63,
                    "time": 451.8266939999925,
                    "velocity": 0.29133858267716534,
                    "duration": 0.3746489999999767
                },
                {
                    "name": "F3",
                    "midi": 53,
                    "time": 452.20134299999245,
                    "velocity": 0.2440944881889764,
                    "duration": 0.3746489999999767
                },
                {
                    "name": "D4",
                    "midi": 62,
                    "time": 452.20134299999245,
                    "velocity": 0.29133858267716534,
                    "duration": 0.3746489999999767
                },
                {
                    "name": "D#3",
                    "midi": 51,
                    "time": 452.5759919999924,
                    "velocity": 0.2440944881889764,
                    "duration": 0.3746489999999767
                },
                {
                    "name": "C4",
                    "midi": 60,
                    "time": 452.5759919999924,
                    "velocity": 0.29133858267716534,
                    "duration": 0.3746489999999767
                },
                {
                    "name": "D3",
                    "midi": 50,
                    "time": 452.9506409999924,
                    "velocity": 0.2677165354330709,
                    "duration": 0.3746489999999767
                },
                {
                    "name": "A#3",
                    "midi": 58,
                    "time": 452.9506409999924,
                    "velocity": 0.31496062992125984,
                    "duration": 0.3746489999999767
                },
                {
                    "name": "F4",
                    "midi": 65,
                    "time": 453.69993899999236,
                    "velocity": 0.29133858267716534,
                    "duration": 0.3746489999999767
                },
                {
                    "name": "D4",
                    "midi": 62,
                    "time": 453.69993899999236,
                    "velocity": 0.2440944881889764,
                    "duration": 0.3746489999999767
                },
                {
                    "name": "D#4",
                    "midi": 63,
                    "time": 454.07458799999233,
                    "velocity": 0.29133858267716534,
                    "duration": 0.3746489999999767
                },
                {
                    "name": "G4",
                    "midi": 67,
                    "time": 454.07458799999233,
                    "velocity": 0.3464566929133858,
                    "duration": 0.3746489999999767
                },
                {
                    "name": "G3",
                    "midi": 55,
                    "time": 454.8238859999923,
                    "velocity": 0.2440944881889764,
                    "duration": 0.3746489999999767
                },
                {
                    "name": "A#3",
                    "midi": 58,
                    "time": 454.8238859999923,
                    "velocity": 0.2440944881889764,
                    "duration": 0.3746489999999767
                },
                {
                    "name": "C4",
                    "midi": 60,
                    "time": 454.8238859999923,
                    "velocity": 0.29133858267716534,
                    "duration": 0.3746489999999767
                },
                {
                    "name": "F3",
                    "midi": 53,
                    "time": 455.19853499999226,
                    "velocity": 0.3543307086614173,
                    "duration": 0.0936622500000226
                },
                {
                    "name": "D4",
                    "midi": 62,
                    "time": 455.2921972499923,
                    "velocity": 0.29133858267716534,
                    "duration": 0.0936622500000226
                },
                {
                    "name": "A#3",
                    "midi": 58,
                    "time": 455.3858594999923,
                    "velocity": 0.31496062992125984,
                    "duration": 0.0936622500000226
                },
                {
                    "name": "D4",
                    "midi": 62,
                    "time": 455.47952174999233,
                    "velocity": 0.29133858267716534,
                    "duration": 0.0936622500000226
                },
                {
                    "name": "F3",
                    "midi": 53,
                    "time": 455.57318399999235,
                    "velocity": 0.3543307086614173,
                    "duration": 0.0936622500000226
                },
                {
                    "name": "D4",
                    "midi": 62,
                    "time": 455.6668462499924,
                    "velocity": 0.29133858267716534,
                    "duration": 0.0936622500000226
                },
                {
                    "name": "A#3",
                    "midi": 58,
                    "time": 455.7605084999924,
                    "velocity": 0.31496062992125984,
                    "duration": 0.0936622500000226
                },
                {
                    "name": "D4",
                    "midi": 62,
                    "time": 455.8541707499924,
                    "velocity": 0.29133858267716534,
                    "duration": 0.0936622500000226
                },
                {
                    "name": "F3",
                    "midi": 53,
                    "time": 455.94783299999244,
                    "velocity": 0.3779527559055118,
                    "duration": 0.0936622500000226
                },
                {
                    "name": "D4",
                    "midi": 62,
                    "time": 456.04149524999247,
                    "velocity": 0.29133858267716534,
                    "duration": 0.0936622500000226
                },
                {
                    "name": "A#3",
                    "midi": 58,
                    "time": 456.1351574999925,
                    "velocity": 0.3228346456692913,
                    "duration": 0.0936622500000226
                },
                {
                    "name": "D4",
                    "midi": 62,
                    "time": 456.2288197499925,
                    "velocity": 0.29133858267716534,
                    "duration": 0.0936622500000226
                },
                {
                    "name": "F3",
                    "midi": 53,
                    "time": 456.32248199999253,
                    "velocity": 0.3543307086614173,
                    "duration": 0.0936622500000226
                },
                {
                    "name": "D#4",
                    "midi": 63,
                    "time": 456.41614424999256,
                    "velocity": 0.29133858267716534,
                    "duration": 0.0936622500000226
                },
                {
                    "name": "A3",
                    "midi": 57,
                    "time": 456.5098064999926,
                    "velocity": 0.31496062992125984,
                    "duration": 0.0936622500000226
                },
                {
                    "name": "D#4",
                    "midi": 63,
                    "time": 456.6034687499926,
                    "velocity": 0.29133858267716534,
                    "duration": 0.0936622500000226
                },
                {
                    "name": "F3",
                    "midi": 53,
                    "time": 456.6971309999926,
                    "velocity": 0.3543307086614173,
                    "duration": 0.0936622500000226
                },
                {
                    "name": "D#4",
                    "midi": 63,
                    "time": 456.79079324999265,
                    "velocity": 0.29133858267716534,
                    "duration": 0.0936622500000226
                },
                {
                    "name": "A3",
                    "midi": 57,
                    "time": 456.88445549999267,
                    "velocity": 0.31496062992125984,
                    "duration": 0.0936622500000226
                },
                {
                    "name": "D#4",
                    "midi": 63,
                    "time": 456.9781177499927,
                    "velocity": 0.29133858267716534,
                    "duration": 0.0936622500000226
                },
                {
                    "name": "F3",
                    "midi": 53,
                    "time": 457.0717799999927,
                    "velocity": 0.3779527559055118,
                    "duration": 0.0936622500000226
                },
                {
                    "name": "D#4",
                    "midi": 63,
                    "time": 457.16544224999274,
                    "velocity": 0.29133858267716534,
                    "duration": 0.0936622500000226
                },
                {
                    "name": "A3",
                    "midi": 57,
                    "time": 457.25910449999276,
                    "velocity": 0.3228346456692913,
                    "duration": 0.0936622500000226
                },
                {
                    "name": "D#4",
                    "midi": 63,
                    "time": 457.3527667499928,
                    "velocity": 0.29133858267716534,
                    "duration": 0.0936622500000226
                },
                {
                    "name": "A#3",
                    "midi": 58,
                    "time": 457.4464289999928,
                    "velocity": 0.3228346456692913,
                    "duration": 0.1966907249999963
                },
                {
                    "name": "D4",
                    "midi": 62,
                    "time": 457.6337534999928,
                    "velocity": 0.2204724409448819,
                    "duration": 0.1966907249999963
                },
                {
                    "name": "F4",
                    "midi": 65,
                    "time": 457.8210779999928,
                    "velocity": 0.2755905511811024,
                    "duration": 0.1966907249999963
                },
                {
                    "name": "A#4",
                    "midi": 70,
                    "time": 458.00840249999277,
                    "velocity": 0.2677165354330709,
                    "duration": 0.1966907249999963
                },
                {
                    "name": "A4",
                    "midi": 69,
                    "time": 458.19572699999276,
                    "velocity": 0.25196850393700787,
                    "duration": 0.1966907249999963
                },
                {
                    "name": "G#4",
                    "midi": 68,
                    "time": 458.38305149999275,
                    "velocity": 0.23622047244094488,
                    "duration": 0.1966907249999963
                },
                {
                    "name": "G4",
                    "midi": 67,
                    "time": 458.57037599999273,
                    "velocity": 0.2204724409448819,
                    "duration": 0.18732449999998835
                },
                {
                    "name": "A#4",
                    "midi": 70,
                    "time": 458.7577004999927,
                    "velocity": 0.16535433070866143,
                    "duration": 0.18732449999998835
                },
                {
                    "name": "F4",
                    "midi": 65,
                    "time": 458.9450249999927,
                    "velocity": 0.2440944881889764,
                    "duration": 0.18732449999998835
                },
                {
                    "name": "A#4",
                    "midi": 70,
                    "time": 459.1323494999927,
                    "velocity": 0.1889763779527559,
                    "duration": 0.18732449999998835
                },
                {
                    "name": "D#4",
                    "midi": 63,
                    "time": 459.3196739999927,
                    "velocity": 0.2440944881889764,
                    "duration": 0.18732449999998835
                },
                {
                    "name": "A#4",
                    "midi": 70,
                    "time": 459.5069984999927,
                    "velocity": 0.1968503937007874,
                    "duration": 0.18732449999998835
                },
                {
                    "name": "D4",
                    "midi": 62,
                    "time": 459.69432299999266,
                    "velocity": 0.2440944881889764,
                    "duration": 0.18732449999998835
                },
                {
                    "name": "A#4",
                    "midi": 70,
                    "time": 459.88164749999265,
                    "velocity": 0.2204724409448819,
                    "duration": 0.18732449999998835
                },
                {
                    "name": "A4",
                    "midi": 69,
                    "time": 460.06897199999264,
                    "velocity": 0.2440944881889764,
                    "duration": 0.18732449999998835
                },
                {
                    "name": "A#4",
                    "midi": 70,
                    "time": 460.25629649999263,
                    "velocity": 0.2204724409448819,
                    "duration": 0.18732449999998835
                },
                {
                    "name": "G3",
                    "midi": 55,
                    "time": 460.4436209999926,
                    "velocity": 0.2440944881889764,
                    "duration": 0.18732449999998835
                },
                {
                    "name": "D#4",
                    "midi": 63,
                    "time": 460.6309454999926,
                    "velocity": 0.2125984251968504,
                    "duration": 0.18732449999998835
                },
                {
                    "name": "F3",
                    "midi": 53,
                    "time": 460.8182699999926,
                    "velocity": 0.2440944881889764,
                    "duration": 0.18732449999998835
                },
                {
                    "name": "D4",
                    "midi": 62,
                    "time": 461.0055944999926,
                    "velocity": 0.2125984251968504,
                    "duration": 0.18732449999998835
                },
                {
                    "name": "A#3",
                    "midi": 58,
                    "time": 461.19291899999257,
                    "velocity": 0.2440944881889764,
                    "duration": 0.18732449999998835
                },
                {
                    "name": "D4",
                    "midi": 62,
                    "time": 461.38024349999256,
                    "velocity": 0.2283464566929134,
                    "duration": 0.18732449999998835
                },
                {
                    "name": "F3",
                    "midi": 53,
                    "time": 461.56756799999255,
                    "velocity": 0.2440944881889764,
                    "duration": 0.18732449999998835
                },
                {
                    "name": "D#4",
                    "midi": 63,
                    "time": 461.75489249999254,
                    "velocity": 0.2125984251968504,
                    "duration": 0.18732449999998835
                },
                {
                    "name": "D4",
                    "midi": 62,
                    "time": 461.9422169999925,
                    "velocity": 0.2440944881889764,
                    "duration": 0.18732449999998835
                },
                {
                    "name": "A#3",
                    "midi": 58,
                    "time": 462.1295414999925,
                    "velocity": 0.1889763779527559,
                    "duration": 0.18732449999998835
                },
                {
                    "name": "A3",
                    "midi": 57,
                    "time": 462.3168659999925,
                    "velocity": 0.23622047244094488,
                    "duration": 0.18732449999998835
                },
                {
                    "name": "G#3",
                    "midi": 56,
                    "time": 462.5041904999925,
                    "velocity": 0.2047244094488189,
                    "duration": 0.18732449999998835
                },
                {
                    "name": "G3",
                    "midi": 55,
                    "time": 462.6915149999925,
                    "velocity": 0.2283464566929134,
                    "duration": 0.18732449999998835
                },
                {
                    "name": "F#3",
                    "midi": 54,
                    "time": 462.87883949999247,
                    "velocity": 0.2440944881889764,
                    "duration": 0.18732449999998835
                },
                {
                    "name": "G3",
                    "midi": 55,
                    "time": 463.06616399999245,
                    "velocity": 0.2204724409448819,
                    "duration": 0.18732449999998835
                },
                {
                    "name": "A#3",
                    "midi": 58,
                    "time": 463.25348849999244,
                    "velocity": 0.2125984251968504,
                    "duration": 0.18732449999998835
                },
                {
                    "name": "F3",
                    "midi": 53,
                    "time": 463.44081299999243,
                    "velocity": 0.2992125984251969,
                    "duration": 0.18732449999998835
                },
                {
                    "name": "A3",
                    "midi": 57,
                    "time": 463.6281374999924,
                    "velocity": 0.25196850393700787,
                    "duration": 0.18732449999998835
                },
                {
                    "name": "E3",
                    "midi": 52,
                    "time": 463.8154619999924,
                    "velocity": 0.31496062992125984,
                    "duration": 0.18732449999998835
                },
                {
                    "name": "C#4",
                    "midi": 61,
                    "time": 464.0027864999924,
                    "velocity": 0.2677165354330709,
                    "duration": 0.18732449999998835
                },
                {
                    "name": "F3",
                    "midi": 53,
                    "time": 464.1901109999924,
                    "velocity": 0.3228346456692913,
                    "duration": 0.18732449999998835
                },
                {
                    "name": "D4",
                    "midi": 62,
                    "time": 464.3774354999924,
                    "velocity": 0.2755905511811024,
                    "duration": 0.18732449999998835
                },
                {
                    "name": "A#3",
                    "midi": 58,
                    "time": 464.56475999999236,
                    "velocity": 0.2992125984251969,
                    "duration": 0.18732449999998835
                },
                {
                    "name": "D4",
                    "midi": 62,
                    "time": 464.75208449999235,
                    "velocity": 0.25984251968503935,
                    "duration": 0.18732449999998835
                },
                {
                    "name": "F3",
                    "midi": 53,
                    "time": 464.93940899999234,
                    "velocity": 0.31496062992125984,
                    "duration": 0.18732449999998835
                },
                {
                    "name": "D4",
                    "midi": 62,
                    "time": 465.1267334999923,
                    "velocity": 0.2755905511811024,
                    "duration": 0.18732449999998835
                },
                {
                    "name": "F3",
                    "midi": 53,
                    "time": 465.3140579999923,
                    "velocity": 0.3228346456692913,
                    "duration": 0.18732449999998835
                },
                {
                    "name": "F4",
                    "midi": 65,
                    "time": 465.5013824999923,
                    "velocity": 0.25984251968503935,
                    "duration": 0.18732449999998835
                },
                {
                    "name": "D4",
                    "midi": 62,
                    "time": 465.6887069999923,
                    "velocity": 0.33858267716535434,
                    "duration": 0.18732449999998835
                },
                {
                    "name": "F4",
                    "midi": 65,
                    "time": 465.8760314999923,
                    "velocity": 0.25984251968503935,
                    "duration": 0.18732449999998835
                },
                {
                    "name": "F3",
                    "midi": 53,
                    "time": 466.06335599999227,
                    "velocity": 0.3543307086614173,
                    "duration": 0.18732449999998835
                },
                {
                    "name": "D#4",
                    "midi": 63,
                    "time": 466.25068049999226,
                    "velocity": 0.2992125984251969,
                    "duration": 0.18732449999998835
                },
                {
                    "name": "A#3",
                    "midi": 58,
                    "time": 466.53166724999227,
                    "velocity": 0.4251968503937008,
                    "duration": 0.0936622500000226
                },
                {
                    "name": "D4",
                    "midi": 62,
                    "time": 466.6253294999923,
                    "velocity": 0.4409448818897638,
                    "duration": 0.0936622500000226
                },
                {
                    "name": "F4",
                    "midi": 65,
                    "time": 466.7189917499923,
                    "velocity": 0.4645669291338583,
                    "duration": 0.0936622500000226
                },
                {
                    "name": "A#4",
                    "midi": 70,
                    "time": 466.81265399999234,
                    "velocity": 0.48031496062992124,
                    "duration": 0.18732449999998835
                },
                {
                    "name": "F3",
                    "midi": 53,
                    "time": 467.1873029999923,
                    "velocity": 0.4251968503937008,
                    "duration": 0.18732449999998835
                },
                {
                    "name": "A3",
                    "midi": 57,
                    "time": 467.1873029999923,
                    "velocity": 0.4251968503937008,
                    "duration": 0.18732449999998835
                },
                {
                    "name": "A#2",
                    "midi": 46,
                    "time": 467.6556142499923,
                    "velocity": 0.4251968503937008,
                    "duration": 0.0936622500000226
                },
                {
                    "name": "D3",
                    "midi": 50,
                    "time": 467.74927649999233,
                    "velocity": 0.4409448818897638,
                    "duration": 0.0936622500000226
                },
                {
                    "name": "F3",
                    "midi": 53,
                    "time": 467.84293874999236,
                    "velocity": 0.4645669291338583,
                    "duration": 0.0936622500000226
                },
                {
                    "name": "A#3",
                    "midi": 58,
                    "time": 467.9366009999924,
                    "velocity": 0.48031496062992124,
                    "duration": 0.18732449999998835
                },
                {
                    "name": "A2",
                    "midi": 45,
                    "time": 468.31124999999236,
                    "velocity": 0.4251968503937008,
                    "duration": 0.18732449999998835
                },
                {
                    "name": "F2",
                    "midi": 41,
                    "time": 468.31124999999236,
                    "velocity": 0.4251968503937008,
                    "duration": 0.18732449999998835
                },
                {
                    "name": "A#2",
                    "midi": 46,
                    "time": 468.68589899999233,
                    "velocity": 0.4645669291338583,
                    "duration": 0.13112714999999753
                },
                {
                    "name": "A#1",
                    "midi": 34,
                    "time": 469.0605479999923,
                    "velocity": 0.4645669291338583,
                    "duration": 0.3746489999999767
                }
            ],
            "controlChanges": {},
            "id": 2,
            "name": "Piano left",
            "instrumentNumber": 0,
            "instrument": "acoustic grand piano",
            "instrumentFamily": "piano",
            "channelNumber": 0,
            "isPercussion": false
        },
        {
            "startTime": 0,
            "duration": 0,
            "length": 0,
            "notes": [],
            "controlChanges": {
                "64": [
                    {
                        "number": 64,
                        "time": 0,
                        "value": 1
                    },
                    {
                        "number": 64,
                        "time": 0.7656888937499999,
                        "value": 0
                    },
                    {
                        "number": 64,
                        "time": 0.8983770812499999,
                        "value": 1
                    },
                    {
                        "number": 64,
                        "time": 1.13565478125,
                        "value": 0
                    },
                    {
                        "number": 64,
                        "time": 1.3534195125,
                        "value": 1
                    },
                    {
                        "number": 64,
                        "time": 1.895099525,
                        "value": 0
                    },
                    {
                        "number": 64,
                        "time": 2.0184214875,
                        "value": 1
                    },
                    {
                        "number": 64,
                        "time": 2.2603823,
                        "value": 0
                    },
                    {
                        "number": 64,
                        "time": 2.51873400625,
                        "value": 1
                    },
                    {
                        "number": 64,
                        "time": 3.0174854874999997,
                        "value": 0
                    },
                    {
                        "number": 64,
                        "time": 3.09319580625,
                        "value": 1
                    },
                    {
                        "number": 64,
                        "time": 3.371841,
                        "value": 0
                    },
                    {
                        "number": 64,
                        "time": 3.5045291874999998,
                        "value": 1
                    },
                    {
                        "number": 64,
                        "time": 4.16562856875,
                        "value": 0
                    },
                    {
                        "number": 64,
                        "time": 4.2975362375,
                        "value": 1
                    },
                    {
                        "number": 64,
                        "time": 4.495788,
                        "value": 0
                    },
                    {
                        "number": 64,
                        "time": 8.68795420625,
                        "value": 1
                    },
                    {
                        "number": 64,
                        "time": 9.0025032625,
                        "value": 0
                    },
                    {
                        "number": 64,
                        "time": 20.37700300625,
                        "value": 1
                    },
                    {
                        "number": 64,
                        "time": 21.3596761125,
                        "value": 0
                    },
                    {
                        "number": 64,
                        "time": 22.47894,
                        "value": 1
                    },
                    {
                        "number": 64,
                        "time": 22.600700925,
                        "value": 0
                    },
                    {
                        "number": 64,
                        "time": 22.881687675000002,
                        "value": 1
                    },
                    {
                        "number": 64,
                        "time": 23.040913500000002,
                        "value": 0
                    },
                    {
                        "number": 64,
                        "time": 23.616155818750002,
                        "value": 1
                    },
                    {
                        "number": 64,
                        "time": 23.745721931250003,
                        "value": 0
                    },
                    {
                        "number": 64,
                        "time": 24.013439862500004,
                        "value": 1
                    },
                    {
                        "number": 64,
                        "time": 24.205447475000003,
                        "value": 0
                    },
                    {
                        "number": 64,
                        "time": 24.726834000000004,
                        "value": 1
                    },
                    {
                        "number": 64,
                        "time": 25.487059262500004,
                        "value": 0
                    },
                    {
                        "number": 64,
                        "time": 26.341727293750004,
                        "value": 1
                    },
                    {
                        "number": 64,
                        "time": 26.978630593750005,
                        "value": 0
                    },
                    {
                        "number": 64,
                        "time": 28.223558000000004,
                        "value": 1
                    },
                    {
                        "number": 64,
                        "time": 29.230427187500005,
                        "value": 0
                    },
                    {
                        "number": 64,
                        "time": 29.338138775000004,
                        "value": 1
                    },
                    {
                        "number": 64,
                        "time": 29.982847262500005,
                        "value": 0
                    },
                    {
                        "number": 64,
                        "time": 30.837515293750005,
                        "value": 1
                    },
                    {
                        "number": 64,
                        "time": 31.479101706250006,
                        "value": 0
                    },
                    {
                        "number": 64,
                        "time": 32.78178750000001,
                        "value": 1
                    },
                    {
                        "number": 64,
                        "time": 33.72699570625001,
                        "value": 0
                    },
                    {
                        "number": 64,
                        "time": 35.02968150000001,
                        "value": 1
                    },
                    {
                        "number": 64,
                        "time": 35.97488970625001,
                        "value": 0
                    },
                    {
                        "number": 64,
                        "time": 37.27757550000001,
                        "value": 1
                    },
                    {
                        "number": 64,
                        "time": 38.21419800000001,
                        "value": 0
                    },
                    {
                        "number": 64,
                        "time": 38.97676481875001,
                        "value": 1
                    },
                    {
                        "number": 64,
                        "time": 39.34204759375001,
                        "value": 0
                    },
                    {
                        "number": 64,
                        "time": 39.40448909375001,
                        "value": 1
                    },
                    {
                        "number": 64,
                        "time": 39.71981866875001,
                        "value": 0
                    },
                    {
                        "number": 64,
                        "time": 39.79006535625001,
                        "value": 1
                    },
                    {
                        "number": 64,
                        "time": 40.09446766875001,
                        "value": 0
                    },
                    {
                        "number": 64,
                        "time": 40.142859831250014,
                        "value": 1
                    },
                    {
                        "number": 64,
                        "time": 40.467555631250015,
                        "value": 0
                    },
                    {
                        "number": 64,
                        "time": 41.22075622500002,
                        "value": 1
                    },
                    {
                        "number": 64,
                        "time": 41.592283150000014,
                        "value": 0
                    },
                    {
                        "number": 64,
                        "time": 41.646919462500016,
                        "value": 1
                    },
                    {
                        "number": 64,
                        "time": 41.968493187500016,
                        "value": 0
                    },
                    {
                        "number": 64,
                        "time": 42.05435025000001,
                        "value": 1
                    },
                    {
                        "number": 64,
                        "time": 42.34158115000001,
                        "value": 0
                    },
                    {
                        "number": 64,
                        "time": 42.40792524375001,
                        "value": 1
                    },
                    {
                        "number": 64,
                        "time": 42.70998600000001,
                        "value": 0
                    },
                    {
                        "number": 64,
                        "time": 42.772427500000006,
                        "value": 1
                    },
                    {
                        "number": 64,
                        "time": 43.835494037500006,
                        "value": 0
                    },
                    {
                        "number": 64,
                        "time": 43.900277093750006,
                        "value": 1
                    },
                    {
                        "number": 64,
                        "time": 43.94866925625001,
                        "value": 0
                    },
                    {
                        "number": 64,
                        "time": 44.274926093750004,
                        "value": 1
                    },
                    {
                        "number": 64,
                        "time": 44.566840106250005,
                        "value": 0
                    },
                    {
                        "number": 64,
                        "time": 45.08276300000001,
                        "value": 1
                    },
                    {
                        "number": 64,
                        "time": 45.72825200625001,
                        "value": 0
                    },
                    {
                        "number": 64,
                        "time": 45.87420901250001,
                        "value": 1
                    },
                    {
                        "number": 64,
                        "time": 46.09275426250001,
                        "value": 0
                    },
                    {
                        "number": 64,
                        "time": 46.24885801250001,
                        "value": 1
                    },
                    {
                        "number": 64,
                        "time": 46.84361330000001,
                        "value": 0
                    },
                    {
                        "number": 64,
                        "time": 47.01844950000001,
                        "value": 1
                    },
                    {
                        "number": 64,
                        "time": 47.21279866875001,
                        "value": 0
                    },
                    {
                        "number": 64,
                        "time": 48.32972100000001,
                        "value": 0
                    },
                    {
                        "number": 64,
                        "time": 54.016580612500015,
                        "value": 1
                    },
                    {
                        "number": 64,
                        "time": 54.533284025000015,
                        "value": 0
                    },
                    {
                        "number": 64,
                        "time": 55.206091187500014,
                        "value": 1
                    },
                    {
                        "number": 64,
                        "time": 55.64240116875001,
                        "value": 0
                    },
                    {
                        "number": 64,
                        "time": 56.307403143750015,
                        "value": 1
                    },
                    {
                        "number": 64,
                        "time": 56.766348168750014,
                        "value": 0
                    },
                    {
                        "number": 64,
                        "time": 57.44305792500001,
                        "value": 1
                    },
                    {
                        "number": 64,
                        "time": 57.89419776250001,
                        "value": 0
                    },
                    {
                        "number": 64,
                        "time": 58.55529714375001,
                        "value": 1
                    },
                    {
                        "number": 64,
                        "time": 59.01970580000001,
                        "value": 0
                    },
                    {
                        "number": 64,
                        "time": 59.71280645000001,
                        "value": 1
                    },
                    {
                        "number": 64,
                        "time": 60.14209176250001,
                        "value": 0
                    },
                    {
                        "number": 64,
                        "time": 61.856110937500006,
                        "value": 1
                    },
                    {
                        "number": 64,
                        "time": 62.20188074375,
                        "value": 0
                    },
                    {
                        "number": 64,
                        "time": 62.59526219375,
                        "value": 1
                    },
                    {
                        "number": 64,
                        "time": 62.97225275,
                        "value": 0
                    },
                    {
                        "number": 64,
                        "time": 63.03469425,
                        "value": 1
                    },
                    {
                        "number": 64,
                        "time": 63.137722725,
                        "value": 0
                    },
                    {
                        "number": 64,
                        "time": 63.56154440625,
                        "value": 1
                    },
                    {
                        "number": 64,
                        "time": 63.699696225000004,
                        "value": 0
                    },
                    {
                        "number": 64,
                        "time": 63.74886890625,
                        "value": 1
                    },
                    {
                        "number": 64,
                        "time": 63.88311813125,
                        "value": 0
                    },
                    {
                        "number": 64,
                        "time": 63.92214406875,
                        "value": 1
                    },
                    {
                        "number": 64,
                        "time": 64.0774673,
                        "value": 0
                    },
                    {
                        "number": 64,
                        "time": 64.15864124999999,
                        "value": 1
                    },
                    {
                        "number": 64,
                        "time": 64.26557231874999,
                        "value": 0
                    },
                    {
                        "number": 64,
                        "time": 64.68549140625,
                        "value": 1
                    },
                    {
                        "number": 64,
                        "time": 64.823643225,
                        "value": 0
                    },
                    {
                        "number": 64,
                        "time": 64.87281590625,
                        "value": 1
                    },
                    {
                        "number": 64,
                        "time": 65.00706513125,
                        "value": 0
                    },
                    {
                        "number": 64,
                        "time": 65.04609106875,
                        "value": 1
                    },
                    {
                        "number": 64,
                        "time": 65.22014675,
                        "value": 0
                    },
                    {
                        "number": 64,
                        "time": 65.28258825,
                        "value": 1
                    },
                    {
                        "number": 64,
                        "time": 65.385616725,
                        "value": 0
                    },
                    {
                        "number": 64,
                        "time": 65.80943840625001,
                        "value": 1
                    },
                    {
                        "number": 64,
                        "time": 65.94759022500001,
                        "value": 0
                    },
                    {
                        "number": 64,
                        "time": 65.99676290625001,
                        "value": 1
                    },
                    {
                        "number": 64,
                        "time": 66.13101213125002,
                        "value": 0
                    },
                    {
                        "number": 64,
                        "time": 66.17003806875002,
                        "value": 1
                    },
                    {
                        "number": 64,
                        "time": 66.32536130000001,
                        "value": 0
                    },
                    {
                        "number": 64,
                        "time": 66.40653525,
                        "value": 1
                    },
                    {
                        "number": 64,
                        "time": 66.5048806125,
                        "value": 0
                    },
                    {
                        "number": 64,
                        "time": 66.93338540625,
                        "value": 1
                    },
                    {
                        "number": 64,
                        "time": 67.071537225,
                        "value": 0
                    },
                    {
                        "number": 64,
                        "time": 67.12070990625,
                        "value": 1
                    },
                    {
                        "number": 64,
                        "time": 67.25495913125,
                        "value": 0
                    },
                    {
                        "number": 64,
                        "time": 67.29398506875,
                        "value": 1
                    },
                    {
                        "number": 64,
                        "time": 67.46804075,
                        "value": 0
                    },
                    {
                        "number": 64,
                        "time": 67.53048225,
                        "value": 1
                    },
                    {
                        "number": 64,
                        "time": 67.63194968750001,
                        "value": 0
                    },
                    {
                        "number": 64,
                        "time": 68.05733240625001,
                        "value": 1
                    },
                    {
                        "number": 64,
                        "time": 68.19548422500002,
                        "value": 0
                    },
                    {
                        "number": 64,
                        "time": 68.24465690625001,
                        "value": 1
                    },
                    {
                        "number": 64,
                        "time": 68.37890613125002,
                        "value": 0
                    },
                    {
                        "number": 64,
                        "time": 68.41793206875002,
                        "value": 1
                    },
                    {
                        "number": 64,
                        "time": 68.59198775000002,
                        "value": 0
                    },
                    {
                        "number": 64,
                        "time": 68.65442925000002,
                        "value": 1
                    },
                    {
                        "number": 64,
                        "time": 68.75277461250002,
                        "value": 0
                    },
                    {
                        "number": 64,
                        "time": 69.18127940625001,
                        "value": 1
                    },
                    {
                        "number": 64,
                        "time": 69.31943122500002,
                        "value": 0
                    },
                    {
                        "number": 64,
                        "time": 69.36860390625002,
                        "value": 1
                    },
                    {
                        "number": 64,
                        "time": 69.50285313125002,
                        "value": 0
                    },
                    {
                        "number": 64,
                        "time": 69.54187906875002,
                        "value": 1
                    },
                    {
                        "number": 64,
                        "time": 69.68939711250002,
                        "value": 0
                    },
                    {
                        "number": 64,
                        "time": 69.75183861250002,
                        "value": 1
                    },
                    {
                        "number": 64,
                        "time": 70.06794870625002,
                        "value": 0
                    },
                    {
                        "number": 64,
                        "time": 70.12102398125002,
                        "value": 1
                    },
                    {
                        "number": 64,
                        "time": 70.44650030000003,
                        "value": 0
                    },
                    {
                        "number": 64,
                        "time": 70.49645350000003,
                        "value": 1
                    },
                    {
                        "number": 64,
                        "time": 70.85080901250004,
                        "value": 0
                    },
                    {
                        "number": 64,
                        "time": 70.89842065625004,
                        "value": 1
                    },
                    {
                        "number": 64,
                        "time": 71.19033466875004,
                        "value": 0
                    },
                    {
                        "number": 64,
                        "time": 71.25511772500003,
                        "value": 1
                    },
                    {
                        "number": 64,
                        "time": 71.56654470625003,
                        "value": 0
                    },
                    {
                        "number": 64,
                        "time": 71.62976672500002,
                        "value": 1
                    },
                    {
                        "number": 64,
                        "time": 71.93260800000003,
                        "value": 0
                    },
                    {
                        "number": 64,
                        "time": 74.24996816875003,
                        "value": 1
                    },
                    {
                        "number": 64,
                        "time": 75.32552300625002,
                        "value": 0
                    },
                    {
                        "number": 64,
                        "time": 75.33801130625002,
                        "value": 1
                    },
                    {
                        "number": 64,
                        "time": 76.44947000625002,
                        "value": 0
                    },
                    {
                        "number": 64,
                        "time": 77.60775983125002,
                        "value": 1
                    },
                    {
                        "number": 64,
                        "time": 77.93713874375003,
                        "value": 0
                    },
                    {
                        "number": 64,
                        "time": 78.06436330000002,
                        "value": 1
                    },
                    {
                        "number": 64,
                        "time": 78.31178774375003,
                        "value": 0
                    },
                    {
                        "number": 64,
                        "time": 78.40076688125004,
                        "value": 1
                    },
                    {
                        "number": 64,
                        "time": 78.67629000000004,
                        "value": 0
                    },
                    {
                        "number": 64,
                        "time": 79.88453302500004,
                        "value": 1
                    },
                    {
                        "number": 64,
                        "time": 80.55890122500004,
                        "value": 0
                    },
                    {
                        "number": 64,
                        "time": 80.64866088125004,
                        "value": 1
                    },
                    {
                        "number": 64,
                        "time": 80.92418400000004,
                        "value": 0
                    },
                    {
                        "number": 64,
                        "time": 82.10354783125004,
                        "value": 1
                    },
                    {
                        "number": 64,
                        "time": 82.43292674375004,
                        "value": 0
                    },
                    {
                        "number": 64,
                        "time": 82.56015130000004,
                        "value": 1
                    },
                    {
                        "number": 64,
                        "time": 82.80757574375005,
                        "value": 0
                    },
                    {
                        "number": 64,
                        "time": 82.89655488125005,
                        "value": 1
                    },
                    {
                        "number": 64,
                        "time": 83.17207800000006,
                        "value": 0
                    },
                    {
                        "number": 64,
                        "time": 84.38032102500006,
                        "value": 1
                    },
                    {
                        "number": 64,
                        "time": 85.05468922500006,
                        "value": 0
                    },
                    {
                        "number": 64,
                        "time": 85.14444888125006,
                        "value": 1
                    },
                    {
                        "number": 64,
                        "time": 85.41997200000006,
                        "value": 0
                    },
                    {
                        "number": 64,
                        "time": 85.45587586250006,
                        "value": 1
                    },
                    {
                        "number": 64,
                        "time": 85.80320670625007,
                        "value": 0
                    },
                    {
                        "number": 64,
                        "time": 86.57982286250007,
                        "value": 1
                    },
                    {
                        "number": 64,
                        "time": 86.92715370625007,
                        "value": 0
                    },
                    {
                        "number": 64,
                        "time": 88.14164088125007,
                        "value": 1
                    },
                    {
                        "number": 64,
                        "time": 88.41716400000007,
                        "value": 0
                    },
                    {
                        "number": 64,
                        "time": 88.79181300000008,
                        "value": 1
                    },
                    {
                        "number": 64,
                        "time": 89.55750189375007,
                        "value": 0
                    },
                    {
                        "number": 64,
                        "time": 89.69019008125007,
                        "value": 1
                    },
                    {
                        "number": 64,
                        "time": 89.92746778125007,
                        "value": 0
                    },
                    {
                        "number": 64,
                        "time": 90.14523251250007,
                        "value": 1
                    },
                    {
                        "number": 64,
                        "time": 90.68691252500007,
                        "value": 0
                    },
                    {
                        "number": 64,
                        "time": 90.81023448750007,
                        "value": 1
                    },
                    {
                        "number": 64,
                        "time": 91.05219530000007,
                        "value": 0
                    },
                    {
                        "number": 64,
                        "time": 91.31054700625006,
                        "value": 1
                    },
                    {
                        "number": 64,
                        "time": 91.80929848750006,
                        "value": 0
                    },
                    {
                        "number": 64,
                        "time": 91.88500880625006,
                        "value": 1
                    },
                    {
                        "number": 64,
                        "time": 92.16365400000005,
                        "value": 0
                    },
                    {
                        "number": 64,
                        "time": 92.29634218750004,
                        "value": 1
                    },
                    {
                        "number": 64,
                        "time": 92.95744156875004,
                        "value": 0
                    },
                    {
                        "number": 64,
                        "time": 93.08934923750004,
                        "value": 1
                    },
                    {
                        "number": 64,
                        "time": 93.28760100000005,
                        "value": 0
                    },
                    {
                        "number": 64,
                        "time": 97.47976720625005,
                        "value": 1
                    },
                    {
                        "number": 64,
                        "time": 97.79431626250005,
                        "value": 0
                    },
                    {
                        "number": 64,
                        "time": 109.16881600625004,
                        "value": 1
                    },
                    {
                        "number": 64,
                        "time": 110.15148911250004,
                        "value": 0
                    },
                    {
                        "number": 64,
                        "time": 111.27075300000004,
                        "value": 1
                    },
                    {
                        "number": 64,
                        "time": 111.39251392500005,
                        "value": 0
                    },
                    {
                        "number": 64,
                        "time": 111.67350067500004,
                        "value": 1
                    },
                    {
                        "number": 64,
                        "time": 111.83272650000004,
                        "value": 0
                    },
                    {
                        "number": 64,
                        "time": 112.40796881875004,
                        "value": 1
                    },
                    {
                        "number": 64,
                        "time": 112.53753493125004,
                        "value": 0
                    },
                    {
                        "number": 64,
                        "time": 112.80525286250004,
                        "value": 1
                    },
                    {
                        "number": 64,
                        "time": 112.99726047500005,
                        "value": 0
                    },
                    {
                        "number": 64,
                        "time": 113.51864700000004,
                        "value": 1
                    },
                    {
                        "number": 64,
                        "time": 114.27887226250004,
                        "value": 0
                    },
                    {
                        "number": 64,
                        "time": 115.13354029375004,
                        "value": 1
                    },
                    {
                        "number": 64,
                        "time": 115.77044359375004,
                        "value": 0
                    },
                    {
                        "number": 64,
                        "time": 117.01537100000004,
                        "value": 1
                    },
                    {
                        "number": 64,
                        "time": 118.02224018750005,
                        "value": 0
                    },
                    {
                        "number": 64,
                        "time": 118.12995177500005,
                        "value": 1
                    },
                    {
                        "number": 64,
                        "time": 118.77466026250005,
                        "value": 0
                    },
                    {
                        "number": 64,
                        "time": 119.62932829375005,
                        "value": 1
                    },
                    {
                        "number": 64,
                        "time": 120.27091470625005,
                        "value": 0
                    },
                    {
                        "number": 64,
                        "time": 121.57360050000005,
                        "value": 1
                    },
                    {
                        "number": 64,
                        "time": 122.51880870625006,
                        "value": 0
                    },
                    {
                        "number": 64,
                        "time": 123.82149450000006,
                        "value": 1
                    },
                    {
                        "number": 64,
                        "time": 124.76670270625006,
                        "value": 0
                    },
                    {
                        "number": 64,
                        "time": 126.06938850000006,
                        "value": 1
                    },
                    {
                        "number": 64,
                        "time": 127.00601100000006,
                        "value": 0
                    },
                    {
                        "number": 64,
                        "time": 127.76857781875006,
                        "value": 1
                    },
                    {
                        "number": 64,
                        "time": 128.13386059375006,
                        "value": 0
                    },
                    {
                        "number": 64,
                        "time": 128.19630209375006,
                        "value": 1
                    },
                    {
                        "number": 64,
                        "time": 128.51163166875006,
                        "value": 0
                    },
                    {
                        "number": 64,
                        "time": 128.58187835625006,
                        "value": 1
                    },
                    {
                        "number": 64,
                        "time": 128.88628066875006,
                        "value": 0
                    },
                    {
                        "number": 64,
                        "time": 128.93467283125005,
                        "value": 1
                    },
                    {
                        "number": 64,
                        "time": 129.25936863125006,
                        "value": 0
                    },
                    {
                        "number": 64,
                        "time": 130.01256922500005,
                        "value": 1
                    },
                    {
                        "number": 64,
                        "time": 130.38409615000006,
                        "value": 0
                    },
                    {
                        "number": 64,
                        "time": 130.43873246250007,
                        "value": 1
                    },
                    {
                        "number": 64,
                        "time": 130.76030618750008,
                        "value": 0
                    },
                    {
                        "number": 64,
                        "time": 130.84616325000007,
                        "value": 1
                    },
                    {
                        "number": 64,
                        "time": 131.13339415000007,
                        "value": 0
                    },
                    {
                        "number": 64,
                        "time": 131.19973824375006,
                        "value": 1
                    },
                    {
                        "number": 64,
                        "time": 131.50179900000006,
                        "value": 0
                    },
                    {
                        "number": 64,
                        "time": 131.56424050000007,
                        "value": 1
                    },
                    {
                        "number": 64,
                        "time": 132.62730703750006,
                        "value": 0
                    },
                    {
                        "number": 64,
                        "time": 132.69209009375007,
                        "value": 1
                    },
                    {
                        "number": 64,
                        "time": 132.73345758750006,
                        "value": 0
                    },
                    {
                        "number": 64,
                        "time": 133.06673909375004,
                        "value": 1
                    },
                    {
                        "number": 64,
                        "time": 133.35865310625005,
                        "value": 0
                    },
                    {
                        "number": 64,
                        "time": 133.87457600000005,
                        "value": 1
                    },
                    {
                        "number": 64,
                        "time": 134.52006500625004,
                        "value": 0
                    },
                    {
                        "number": 64,
                        "time": 134.66602201250004,
                        "value": 1
                    },
                    {
                        "number": 64,
                        "time": 134.88456726250004,
                        "value": 0
                    },
                    {
                        "number": 64,
                        "time": 135.04067101250004,
                        "value": 1
                    },
                    {
                        "number": 64,
                        "time": 135.63542630000003,
                        "value": 0
                    },
                    {
                        "number": 64,
                        "time": 135.81026250000002,
                        "value": 1
                    },
                    {
                        "number": 64,
                        "time": 136.00461166875002,
                        "value": 0
                    },
                    {
                        "number": 64,
                        "time": 137.12153400000003,
                        "value": 0
                    },
                    {
                        "number": 64,
                        "time": 142.80839361250003,
                        "value": 1
                    },
                    {
                        "number": 64,
                        "time": 143.32509702500002,
                        "value": 0
                    },
                    {
                        "number": 64,
                        "time": 143.9979041875,
                        "value": 1
                    },
                    {
                        "number": 64,
                        "time": 144.43421416875,
                        "value": 0
                    },
                    {
                        "number": 64,
                        "time": 145.09921614375,
                        "value": 1
                    },
                    {
                        "number": 64,
                        "time": 145.55816116875,
                        "value": 0
                    },
                    {
                        "number": 64,
                        "time": 146.234870925,
                        "value": 1
                    },
                    {
                        "number": 64,
                        "time": 146.6860107625,
                        "value": 0
                    },
                    {
                        "number": 64,
                        "time": 147.34711014375,
                        "value": 1
                    },
                    {
                        "number": 64,
                        "time": 147.8115188,
                        "value": 0
                    },
                    {
                        "number": 64,
                        "time": 148.50461944999998,
                        "value": 1
                    },
                    {
                        "number": 64,
                        "time": 148.9339047625,
                        "value": 0
                    },
                    {
                        "number": 64,
                        "time": 150.6479239375,
                        "value": 1
                    },
                    {
                        "number": 64,
                        "time": 150.99369374375,
                        "value": 0
                    },
                    {
                        "number": 64,
                        "time": 151.38707519374998,
                        "value": 1
                    },
                    {
                        "number": 64,
                        "time": 151.76406575,
                        "value": 0
                    },
                    {
                        "number": 64,
                        "time": 151.82650725,
                        "value": 1
                    },
                    {
                        "number": 64,
                        "time": 151.929535725,
                        "value": 0
                    },
                    {
                        "number": 64,
                        "time": 152.35335740624998,
                        "value": 1
                    },
                    {
                        "number": 64,
                        "time": 152.491509225,
                        "value": 0
                    },
                    {
                        "number": 64,
                        "time": 152.54068190625,
                        "value": 1
                    },
                    {
                        "number": 64,
                        "time": 152.67493113125,
                        "value": 0
                    },
                    {
                        "number": 64,
                        "time": 152.71395706875,
                        "value": 1
                    },
                    {
                        "number": 64,
                        "time": 152.8692803,
                        "value": 0
                    },
                    {
                        "number": 64,
                        "time": 152.95045425,
                        "value": 1
                    },
                    {
                        "number": 64,
                        "time": 153.05738531875,
                        "value": 0
                    },
                    {
                        "number": 64,
                        "time": 153.47730440625,
                        "value": 1
                    },
                    {
                        "number": 64,
                        "time": 153.615456225,
                        "value": 0
                    },
                    {
                        "number": 64,
                        "time": 153.66462890625002,
                        "value": 1
                    },
                    {
                        "number": 64,
                        "time": 153.79887813125,
                        "value": 0
                    },
                    {
                        "number": 64,
                        "time": 153.83790406875002,
                        "value": 1
                    },
                    {
                        "number": 64,
                        "time": 154.01195975000002,
                        "value": 0
                    },
                    {
                        "number": 64,
                        "time": 154.07440125000002,
                        "value": 1
                    },
                    {
                        "number": 64,
                        "time": 154.17742972500002,
                        "value": 0
                    },
                    {
                        "number": 64,
                        "time": 154.60125140625001,
                        "value": 1
                    },
                    {
                        "number": 64,
                        "time": 154.73940322500002,
                        "value": 0
                    },
                    {
                        "number": 64,
                        "time": 154.78857590625003,
                        "value": 1
                    },
                    {
                        "number": 64,
                        "time": 154.92282513125002,
                        "value": 0
                    },
                    {
                        "number": 64,
                        "time": 154.96185106875004,
                        "value": 1
                    },
                    {
                        "number": 64,
                        "time": 155.11717430000004,
                        "value": 0
                    },
                    {
                        "number": 64,
                        "time": 155.19834825000004,
                        "value": 1
                    },
                    {
                        "number": 64,
                        "time": 155.29669361250004,
                        "value": 0
                    },
                    {
                        "number": 64,
                        "time": 155.72519840625003,
                        "value": 1
                    },
                    {
                        "number": 64,
                        "time": 155.86335022500003,
                        "value": 0
                    },
                    {
                        "number": 64,
                        "time": 155.91252290625005,
                        "value": 1
                    },
                    {
                        "number": 64,
                        "time": 156.04677213125004,
                        "value": 0
                    },
                    {
                        "number": 64,
                        "time": 156.08579806875005,
                        "value": 1
                    },
                    {
                        "number": 64,
                        "time": 156.25985375000005,
                        "value": 0
                    },
                    {
                        "number": 64,
                        "time": 156.32229525000005,
                        "value": 1
                    },
                    {
                        "number": 64,
                        "time": 156.42376268750004,
                        "value": 0
                    },
                    {
                        "number": 64,
                        "time": 156.84914540625005,
                        "value": 1
                    },
                    {
                        "number": 64,
                        "time": 156.98729722500005,
                        "value": 0
                    },
                    {
                        "number": 64,
                        "time": 157.03646990625006,
                        "value": 1
                    },
                    {
                        "number": 64,
                        "time": 157.17071913125005,
                        "value": 0
                    },
                    {
                        "number": 64,
                        "time": 157.20974506875007,
                        "value": 1
                    },
                    {
                        "number": 64,
                        "time": 157.38380075000006,
                        "value": 0
                    },
                    {
                        "number": 64,
                        "time": 157.44624225000007,
                        "value": 1
                    },
                    {
                        "number": 64,
                        "time": 157.54458761250007,
                        "value": 0
                    },
                    {
                        "number": 64,
                        "time": 157.97309240625006,
                        "value": 1
                    },
                    {
                        "number": 64,
                        "time": 158.11124422500006,
                        "value": 0
                    },
                    {
                        "number": 64,
                        "time": 158.16041690625008,
                        "value": 1
                    },
                    {
                        "number": 64,
                        "time": 158.29466613125007,
                        "value": 0
                    },
                    {
                        "number": 64,
                        "time": 158.33369206875008,
                        "value": 1
                    },
                    {
                        "number": 64,
                        "time": 158.4812101125001,
                        "value": 0
                    },
                    {
                        "number": 64,
                        "time": 158.5436516125001,
                        "value": 1
                    },
                    {
                        "number": 64,
                        "time": 158.8597617062501,
                        "value": 0
                    },
                    {
                        "number": 64,
                        "time": 158.9128369812501,
                        "value": 1
                    },
                    {
                        "number": 64,
                        "time": 159.2383133000001,
                        "value": 0
                    },
                    {
                        "number": 64,
                        "time": 159.2882665000001,
                        "value": 1
                    },
                    {
                        "number": 64,
                        "time": 159.6426220125001,
                        "value": 0
                    },
                    {
                        "number": 64,
                        "time": 159.69023365625011,
                        "value": 1
                    },
                    {
                        "number": 64,
                        "time": 159.98214766875012,
                        "value": 0
                    },
                    {
                        "number": 64,
                        "time": 160.04693072500012,
                        "value": 1
                    },
                    {
                        "number": 64,
                        "time": 160.35835770625013,
                        "value": 0
                    },
                    {
                        "number": 64,
                        "time": 160.42157972500013,
                        "value": 1
                    },
                    {
                        "number": 64,
                        "time": 160.72442100000012,
                        "value": 0
                    },
                    {
                        "number": 64,
                        "time": 163.0417811687501,
                        "value": 1
                    },
                    {
                        "number": 64,
                        "time": 164.1173360062501,
                        "value": 0
                    },
                    {
                        "number": 64,
                        "time": 164.1298243062501,
                        "value": 1
                    },
                    {
                        "number": 64,
                        "time": 165.2412830062501,
                        "value": 0
                    },
                    {
                        "number": 64,
                        "time": 166.39957283125008,
                        "value": 1
                    },
                    {
                        "number": 64,
                        "time": 166.7289517437501,
                        "value": 0
                    },
                    {
                        "number": 64,
                        "time": 166.8561763000001,
                        "value": 1
                    },
                    {
                        "number": 64,
                        "time": 167.1036007437501,
                        "value": 0
                    },
                    {
                        "number": 64,
                        "time": 167.19257988125008,
                        "value": 1
                    },
                    {
                        "number": 64,
                        "time": 167.46810300000007,
                        "value": 0
                    },
                    {
                        "number": 64,
                        "time": 168.67634602500007,
                        "value": 1
                    },
                    {
                        "number": 64,
                        "time": 169.35071422500008,
                        "value": 0
                    },
                    {
                        "number": 64,
                        "time": 169.44047388125009,
                        "value": 1
                    },
                    {
                        "number": 64,
                        "time": 169.71599700000007,
                        "value": 0
                    },
                    {
                        "number": 64,
                        "time": 170.89536083125006,
                        "value": 1
                    },
                    {
                        "number": 64,
                        "time": 171.22473974375006,
                        "value": 0
                    },
                    {
                        "number": 64,
                        "time": 171.35196430000008,
                        "value": 1
                    },
                    {
                        "number": 64,
                        "time": 171.59938874375007,
                        "value": 0
                    },
                    {
                        "number": 64,
                        "time": 171.68836788125006,
                        "value": 1
                    },
                    {
                        "number": 64,
                        "time": 171.96389100000005,
                        "value": 0
                    },
                    {
                        "number": 64,
                        "time": 173.17213402500005,
                        "value": 1
                    },
                    {
                        "number": 64,
                        "time": 173.84650222500005,
                        "value": 0
                    },
                    {
                        "number": 64,
                        "time": 173.93626188125006,
                        "value": 1
                    },
                    {
                        "number": 64,
                        "time": 174.21178500000005,
                        "value": 0
                    },
                    {
                        "number": 64,
                        "time": 174.24768886250004,
                        "value": 1
                    },
                    {
                        "number": 64,
                        "time": 174.59501970625004,
                        "value": 0
                    },
                    {
                        "number": 64,
                        "time": 175.37163586250003,
                        "value": 1
                    },
                    {
                        "number": 64,
                        "time": 175.71896670625003,
                        "value": 0
                    },
                    {
                        "number": 64,
                        "time": 176.93345388125002,
                        "value": 1
                    },
                    {
                        "number": 64,
                        "time": 177.583626,
                        "value": 0
                    },
                    {
                        "number": 64,
                        "time": 177.8130985125,
                        "value": 1
                    },
                    {
                        "number": 64,
                        "time": 178.1877475125,
                        "value": 0
                    },
                    {
                        "number": 64,
                        "time": 178.707573,
                        "value": 1
                    },
                    {
                        "number": 64,
                        "time": 179.4677982625,
                        "value": 0
                    },
                    {
                        "number": 64,
                        "time": 179.8393251875,
                        "value": 0
                    },
                    {
                        "number": 64,
                        "time": 179.92127965625002,
                        "value": 1
                    },
                    {
                        "number": 64,
                        "time": 180.21475470625003,
                        "value": 0
                    },
                    {
                        "number": 64,
                        "time": 180.32246629375004,
                        "value": 1
                    },
                    {
                        "number": 64,
                        "time": 180.96327218750005,
                        "value": 0
                    },
                    {
                        "number": 64,
                        "time": 182.20429700000005,
                        "value": 1
                    },
                    {
                        "number": 64,
                        "time": 183.21116618750006,
                        "value": 0
                    },
                    {
                        "number": 64,
                        "time": 183.31887777500006,
                        "value": 1
                    },
                    {
                        "number": 64,
                        "time": 183.96358626250006,
                        "value": 0
                    },
                    {
                        "number": 64,
                        "time": 184.41706765625005,
                        "value": 1
                    },
                    {
                        "number": 64,
                        "time": 184.71054270625007,
                        "value": 0
                    },
                    {
                        "number": 64,
                        "time": 184.81825429375007,
                        "value": 1
                    },
                    {
                        "number": 64,
                        "time": 185.45984070625008,
                        "value": 0
                    },
                    {
                        "number": 64,
                        "time": 186.76252650000006,
                        "value": 1
                    },
                    {
                        "number": 64,
                        "time": 187.70773470625005,
                        "value": 0
                    },
                    {
                        "number": 64,
                        "time": 189.01042050000004,
                        "value": 1
                    },
                    {
                        "number": 64,
                        "time": 189.95562870625002,
                        "value": 0
                    },
                    {
                        "number": 64,
                        "time": 191.2583145,
                        "value": 1
                    },
                    {
                        "number": 64,
                        "time": 192.20352270625,
                        "value": 0
                    },
                    {
                        "number": 64,
                        "time": 193.50620849999999,
                        "value": 1
                    },
                    {
                        "number": 64,
                        "time": 194.44283099999998,
                        "value": 0
                    },
                    {
                        "number": 64,
                        "time": 195.20539781875,
                        "value": 1
                    },
                    {
                        "number": 64,
                        "time": 195.57068059374998,
                        "value": 0
                    },
                    {
                        "number": 64,
                        "time": 195.63312209375,
                        "value": 1
                    },
                    {
                        "number": 64,
                        "time": 195.94845166874998,
                        "value": 0
                    },
                    {
                        "number": 64,
                        "time": 196.01869835624998,
                        "value": 1
                    },
                    {
                        "number": 64,
                        "time": 196.32310066875,
                        "value": 0
                    },
                    {
                        "number": 64,
                        "time": 196.37149283124998,
                        "value": 1
                    },
                    {
                        "number": 64,
                        "time": 196.69618863124998,
                        "value": 0
                    },
                    {
                        "number": 64,
                        "time": 197.44938922499998,
                        "value": 1
                    },
                    {
                        "number": 64,
                        "time": 197.82091615,
                        "value": 0
                    },
                    {
                        "number": 64,
                        "time": 197.8755524625,
                        "value": 1
                    },
                    {
                        "number": 64,
                        "time": 198.1971261875,
                        "value": 0
                    },
                    {
                        "number": 64,
                        "time": 198.28298325,
                        "value": 1
                    },
                    {
                        "number": 64,
                        "time": 198.57021415,
                        "value": 0
                    },
                    {
                        "number": 64,
                        "time": 198.63655824375,
                        "value": 1
                    },
                    {
                        "number": 64,
                        "time": 198.938619,
                        "value": 0
                    },
                    {
                        "number": 64,
                        "time": 199.0010605,
                        "value": 1
                    },
                    {
                        "number": 64,
                        "time": 200.0641270375,
                        "value": 0
                    },
                    {
                        "number": 64,
                        "time": 200.12891009375,
                        "value": 1
                    },
                    {
                        "number": 64,
                        "time": 200.16481395625,
                        "value": 0
                    },
                    {
                        "number": 64,
                        "time": 200.50355909375,
                        "value": 1
                    },
                    {
                        "number": 64,
                        "time": 200.79547310625,
                        "value": 0
                    },
                    {
                        "number": 64,
                        "time": 204.558354,
                        "value": 0
                    },
                    {
                        "number": 64,
                        "time": 220.293612,
                        "value": 0
                    },
                    {
                        "number": 64,
                        "time": 222.541506,
                        "value": 0
                    },
                    {
                        "number": 64,
                        "time": 224.7894,
                        "value": 0
                    },
                    {
                        "number": 64,
                        "time": 225.913347,
                        "value": 0
                    },
                    {
                        "number": 64,
                        "time": 227.03729399999997,
                        "value": 0
                    },
                    {
                        "number": 64,
                        "time": 237.29877400624997,
                        "value": 1
                    },
                    {
                        "number": 64,
                        "time": 237.91850589374997,
                        "value": 0
                    },
                    {
                        "number": 64,
                        "time": 238.05119408124997,
                        "value": 1
                    },
                    {
                        "number": 64,
                        "time": 238.28847178124997,
                        "value": 0
                    },
                    {
                        "number": 64,
                        "time": 238.50623651249998,
                        "value": 1
                    },
                    {
                        "number": 64,
                        "time": 239.04791652499998,
                        "value": 0
                    },
                    {
                        "number": 64,
                        "time": 239.17123848749998,
                        "value": 1
                    },
                    {
                        "number": 64,
                        "time": 239.41319929999997,
                        "value": 0
                    },
                    {
                        "number": 64,
                        "time": 239.67155100624998,
                        "value": 1
                    },
                    {
                        "number": 64,
                        "time": 240.17030248749998,
                        "value": 0
                    },
                    {
                        "number": 64,
                        "time": 240.24601280624998,
                        "value": 1
                    },
                    {
                        "number": 64,
                        "time": 240.524658,
                        "value": 0
                    },
                    {
                        "number": 64,
                        "time": 240.6573461875,
                        "value": 1
                    },
                    {
                        "number": 64,
                        "time": 241.28722481875,
                        "value": 0
                    },
                    {
                        "number": 64,
                        "time": 241.4503532375,
                        "value": 1
                    },
                    {
                        "number": 64,
                        "time": 241.648605,
                        "value": 0
                    },
                    {
                        "number": 64,
                        "time": 245.84077120625,
                        "value": 1
                    },
                    {
                        "number": 64,
                        "time": 246.144393,
                        "value": 0
                    },
                    {
                        "number": 64,
                        "time": 257.52982000625,
                        "value": 1
                    },
                    {
                        "number": 64,
                        "time": 258.5124931125,
                        "value": 0
                    },
                    {
                        "number": 64,
                        "time": 259.631757,
                        "value": 1
                    },
                    {
                        "number": 64,
                        "time": 259.76990881874997,
                        "value": 0
                    },
                    {
                        "number": 64,
                        "time": 260.034504675,
                        "value": 1
                    },
                    {
                        "number": 64,
                        "time": 260.1937305,
                        "value": 0
                    },
                    {
                        "number": 64,
                        "time": 260.76897281875,
                        "value": 1
                    },
                    {
                        "number": 64,
                        "time": 260.89853893125,
                        "value": 0
                    },
                    {
                        "number": 64,
                        "time": 261.1662568625,
                        "value": 1
                    },
                    {
                        "number": 64,
                        "time": 261.358264475,
                        "value": 0
                    },
                    {
                        "number": 64,
                        "time": 261.879651,
                        "value": 1
                    },
                    {
                        "number": 64,
                        "time": 262.6398762625,
                        "value": 0
                    },
                    {
                        "number": 64,
                        "time": 263.09335765625,
                        "value": 1
                    },
                    {
                        "number": 64,
                        "time": 263.38683270625,
                        "value": 0
                    },
                    {
                        "number": 64,
                        "time": 263.49454429375,
                        "value": 1
                    },
                    {
                        "number": 64,
                        "time": 264.13613070624996,
                        "value": 0
                    },
                    {
                        "number": 64,
                        "time": 265.37637499999994,
                        "value": 1
                    },
                    {
                        "number": 64,
                        "time": 266.38324418749994,
                        "value": 0
                    },
                    {
                        "number": 64,
                        "time": 266.4909557749999,
                        "value": 1
                    },
                    {
                        "number": 64,
                        "time": 267.1356642624999,
                        "value": 0
                    },
                    {
                        "number": 64,
                        "time": 267.5891456562499,
                        "value": 1
                    },
                    {
                        "number": 64,
                        "time": 267.8826207062499,
                        "value": 0
                    },
                    {
                        "number": 64,
                        "time": 267.9903322937499,
                        "value": 1
                    },
                    {
                        "number": 64,
                        "time": 268.63191870624985,
                        "value": 0
                    },
                    {
                        "number": 64,
                        "time": 269.93460449999986,
                        "value": 1
                    },
                    {
                        "number": 64,
                        "time": 270.8798127062499,
                        "value": 0
                    },
                    {
                        "number": 64,
                        "time": 272.1824984999999,
                        "value": 1
                    },
                    {
                        "number": 64,
                        "time": 273.1191209999999,
                        "value": 0
                    },
                    {
                        "number": 64,
                        "time": 273.9175916812499,
                        "value": 1
                    },
                    {
                        "number": 64,
                        "time": 274.2469705937499,
                        "value": 0
                    },
                    {
                        "number": 64,
                        "time": 274.30941209374987,
                        "value": 1
                    },
                    {
                        "number": 64,
                        "time": 274.6247416687499,
                        "value": 0
                    },
                    {
                        "number": 64,
                        "time": 274.6949883562499,
                        "value": 1
                    },
                    {
                        "number": 64,
                        "time": 274.99939066874987,
                        "value": 0
                    },
                    {
                        "number": 64,
                        "time": 275.0477828312499,
                        "value": 1
                    },
                    {
                        "number": 64,
                        "time": 275.37247863124986,
                        "value": 0
                    },
                    {
                        "number": 64,
                        "time": 276.1568999749999,
                        "value": 1
                    },
                    {
                        "number": 64,
                        "time": 276.4972061499999,
                        "value": 0
                    },
                    {
                        "number": 64,
                        "time": 276.5518424624999,
                        "value": 1
                    },
                    {
                        "number": 64,
                        "time": 276.8734161874999,
                        "value": 0
                    },
                    {
                        "number": 64,
                        "time": 276.9592732499999,
                        "value": 1
                    },
                    {
                        "number": 64,
                        "time": 277.2465041499999,
                        "value": 0
                    },
                    {
                        "number": 64,
                        "time": 277.3128482437499,
                        "value": 1
                    },
                    {
                        "number": 64,
                        "time": 277.6149089999999,
                        "value": 0
                    },
                    {
                        "number": 64,
                        "time": 277.6773504999999,
                        "value": 1
                    },
                    {
                        "number": 64,
                        "time": 278.74041703749987,
                        "value": 0
                    },
                    {
                        "number": 64,
                        "time": 278.8052000937499,
                        "value": 1
                    },
                    {
                        "number": 64,
                        "time": 278.8403234374999,
                        "value": 0
                    },
                    {
                        "number": 64,
                        "time": 279.17984909374985,
                        "value": 1
                    },
                    {
                        "number": 64,
                        "time": 279.47176310624985,
                        "value": 0
                    },
                    {
                        "number": 64,
                        "time": 283.23464399999983,
                        "value": 0
                    },
                    {
                        "number": 64,
                        "time": 288.9215036124998,
                        "value": 1
                    },
                    {
                        "number": 64,
                        "time": 289.4280602812498,
                        "value": 0
                    },
                    {
                        "number": 64,
                        "time": 290.11101418749985,
                        "value": 1
                    },
                    {
                        "number": 64,
                        "time": 290.55044624374983,
                        "value": 0
                    },
                    {
                        "number": 64,
                        "time": 291.2123261437498,
                        "value": 1
                    },
                    {
                        "number": 64,
                        "time": 291.6759542812498,
                        "value": 0
                    },
                    {
                        "number": 64,
                        "time": 292.3479809249998,
                        "value": 1
                    },
                    {
                        "number": 64,
                        "time": 292.79755972499976,
                        "value": 0
                    },
                    {
                        "number": 64,
                        "time": 293.4602201437498,
                        "value": 1
                    },
                    {
                        "number": 64,
                        "time": 293.9215067249998,
                        "value": 0
                    },
                    {
                        "number": 64,
                        "time": 294.2095181437498,
                        "value": 1
                    },
                    {
                        "number": 64,
                        "time": 294.4803581499998,
                        "value": 0
                    },
                    {
                        "number": 64,
                        "time": 294.6177294499998,
                        "value": 1
                    },
                    {
                        "number": 64,
                        "time": 295.04779528124976,
                        "value": 0
                    },
                    {
                        "number": 64,
                        "time": 296.7220079999998,
                        "value": 0
                    },
                    {
                        "number": 64,
                        "time": 296.7610339374998,
                        "value": 1
                    },
                    {
                        "number": 64,
                        "time": 297.1068037437498,
                        "value": 0
                    },
                    {
                        "number": 64,
                        "time": 297.4798917062498,
                        "value": 1
                    },
                    {
                        "number": 64,
                        "time": 297.8771757499998,
                        "value": 0
                    },
                    {
                        "number": 64,
                        "time": 297.9396172499998,
                        "value": 1
                    },
                    {
                        "number": 64,
                        "time": 298.0387431312498,
                        "value": 0
                    },
                    {
                        "number": 64,
                        "time": 298.4664674062498,
                        "value": 1
                    },
                    {
                        "number": 64,
                        "time": 298.6046192249998,
                        "value": 0
                    },
                    {
                        "number": 64,
                        "time": 298.6537919062498,
                        "value": 1
                    },
                    {
                        "number": 64,
                        "time": 298.7880411312498,
                        "value": 0
                    },
                    {
                        "number": 64,
                        "time": 298.82706706874984,
                        "value": 1
                    },
                    {
                        "number": 64,
                        "time": 299.00112274999987,
                        "value": 0
                    },
                    {
                        "number": 64,
                        "time": 299.06356424999984,
                        "value": 1
                    },
                    {
                        "number": 64,
                        "time": 299.16893428124985,
                        "value": 0
                    },
                    {
                        "number": 64,
                        "time": 299.59041440624986,
                        "value": 1
                    },
                    {
                        "number": 64,
                        "time": 299.72856622499984,
                        "value": 0
                    },
                    {
                        "number": 64,
                        "time": 299.77773890624985,
                        "value": 1
                    },
                    {
                        "number": 64,
                        "time": 299.91198813124987,
                        "value": 0
                    },
                    {
                        "number": 64,
                        "time": 299.9510140687499,
                        "value": 1
                    },
                    {
                        "number": 64,
                        "time": 300.1250697499999,
                        "value": 0
                    },
                    {
                        "number": 64,
                        "time": 300.1875112499999,
                        "value": 1
                    },
                    {
                        "number": 64,
                        "time": 300.29053972499986,
                        "value": 0
                    },
                    {
                        "number": 64,
                        "time": 300.71436140624985,
                        "value": 1
                    },
                    {
                        "number": 64,
                        "time": 300.8525132249998,
                        "value": 0
                    },
                    {
                        "number": 64,
                        "time": 300.90168590624984,
                        "value": 1
                    },
                    {
                        "number": 64,
                        "time": 301.03593513124986,
                        "value": 0
                    },
                    {
                        "number": 64,
                        "time": 301.0749610687499,
                        "value": 1
                    },
                    {
                        "number": 64,
                        "time": 301.2490167499999,
                        "value": 0
                    },
                    {
                        "number": 64,
                        "time": 301.3114582499999,
                        "value": 1
                    },
                    {
                        "number": 64,
                        "time": 301.4105841312499,
                        "value": 0
                    },
                    {
                        "number": 64,
                        "time": 301.8383084062499,
                        "value": 1
                    },
                    {
                        "number": 64,
                        "time": 301.97646022499987,
                        "value": 0
                    },
                    {
                        "number": 64,
                        "time": 302.0256329062499,
                        "value": 1
                    },
                    {
                        "number": 64,
                        "time": 302.1598821312499,
                        "value": 0
                    },
                    {
                        "number": 64,
                        "time": 302.1989080687499,
                        "value": 1
                    },
                    {
                        "number": 64,
                        "time": 302.37296374999994,
                        "value": 0
                    },
                    {
                        "number": 64,
                        "time": 302.4354052499999,
                        "value": 1
                    },
                    {
                        "number": 64,
                        "time": 302.53375061249994,
                        "value": 0
                    },
                    {
                        "number": 64,
                        "time": 302.96225540624994,
                        "value": 1
                    },
                    {
                        "number": 64,
                        "time": 303.1004072249999,
                        "value": 0
                    },
                    {
                        "number": 64,
                        "time": 303.1495799062499,
                        "value": 1
                    },
                    {
                        "number": 64,
                        "time": 303.28382913124995,
                        "value": 0
                    },
                    {
                        "number": 64,
                        "time": 303.32285506874996,
                        "value": 1
                    },
                    {
                        "number": 64,
                        "time": 303.49691075,
                        "value": 0
                    },
                    {
                        "number": 64,
                        "time": 303.55935224999996,
                        "value": 1
                    },
                    {
                        "number": 64,
                        "time": 303.66238072499993,
                        "value": 0
                    },
                    {
                        "number": 64,
                        "time": 304.0862024062499,
                        "value": 1
                    },
                    {
                        "number": 64,
                        "time": 304.2243542249999,
                        "value": 0
                    },
                    {
                        "number": 64,
                        "time": 304.2735269062499,
                        "value": 1
                    },
                    {
                        "number": 64,
                        "time": 304.40777613124993,
                        "value": 0
                    },
                    {
                        "number": 64,
                        "time": 304.44680206874995,
                        "value": 1
                    },
                    {
                        "number": 64,
                        "time": 304.59432011249993,
                        "value": 0
                    },
                    {
                        "number": 64,
                        "time": 304.6567616124999,
                        "value": 1
                    },
                    {
                        "number": 64,
                        "time": 304.9728717062499,
                        "value": 0
                    },
                    {
                        "number": 64,
                        "time": 305.02594698124994,
                        "value": 1
                    },
                    {
                        "number": 64,
                        "time": 305.35142329999996,
                        "value": 0
                    },
                    {
                        "number": 64,
                        "time": 305.40137649999997,
                        "value": 1
                    },
                    {
                        "number": 64,
                        "time": 305.75573201249995,
                        "value": 0
                    },
                    {
                        "number": 64,
                        "time": 306.89997249999993,
                        "value": 1
                    },
                    {
                        "number": 64,
                        "time": 307.13490864374995,
                        "value": 0
                    },
                    {
                        "number": 64,
                        "time": 308.04655454374995,
                        "value": 1
                    },
                    {
                        "number": 64,
                        "time": 308.24948941874993,
                        "value": 0
                    },
                    {
                        "number": 64,
                        "time": 309.15957428124995,
                        "value": 1
                    },
                    {
                        "number": 64,
                        "time": 310.23044600624996,
                        "value": 0
                    },
                    {
                        "number": 64,
                        "time": 310.24293430624994,
                        "value": 1
                    },
                    {
                        "number": 64,
                        "time": 311.35439300624995,
                        "value": 0
                    },
                    {
                        "number": 64,
                        "time": 312.51268283124995,
                        "value": 1
                    },
                    {
                        "number": 64,
                        "time": 312.8420617437499,
                        "value": 0
                    },
                    {
                        "number": 64,
                        "time": 312.9692862999999,
                        "value": 1
                    },
                    {
                        "number": 64,
                        "time": 313.2167107437499,
                        "value": 0
                    },
                    {
                        "number": 64,
                        "time": 313.3056898812499,
                        "value": 1
                    },
                    {
                        "number": 64,
                        "time": 313.58121299999993,
                        "value": 0
                    },
                    {
                        "number": 64,
                        "time": 313.6639479874999,
                        "value": 1
                    },
                    {
                        "number": 64,
                        "time": 314.1494306499999,
                        "value": 0
                    },
                    {
                        "number": 64,
                        "time": 314.7894560249999,
                        "value": 1
                    },
                    {
                        "number": 64,
                        "time": 315.4638242249999,
                        "value": 0
                    },
                    {
                        "number": 64,
                        "time": 315.5535838812499,
                        "value": 1
                    },
                    {
                        "number": 64,
                        "time": 315.8291069999999,
                        "value": 0
                    },
                    {
                        "number": 64,
                        "time": 317.0084708312499,
                        "value": 1
                    },
                    {
                        "number": 64,
                        "time": 317.33784974374987,
                        "value": 0
                    },
                    {
                        "number": 64,
                        "time": 317.46507429999986,
                        "value": 1
                    },
                    {
                        "number": 64,
                        "time": 317.71249874374985,
                        "value": 0
                    },
                    {
                        "number": 64,
                        "time": 317.80147788124987,
                        "value": 1
                    },
                    {
                        "number": 64,
                        "time": 318.0770009999999,
                        "value": 0
                    },
                    {
                        "number": 64,
                        "time": 319.2852440249999,
                        "value": 1
                    },
                    {
                        "number": 64,
                        "time": 319.9596122249999,
                        "value": 0
                    },
                    {
                        "number": 64,
                        "time": 320.0493718812499,
                        "value": 1
                    },
                    {
                        "number": 64,
                        "time": 320.3248949999999,
                        "value": 0
                    },
                    {
                        "number": 64,
                        "time": 320.3607988624999,
                        "value": 1
                    },
                    {
                        "number": 64,
                        "time": 320.7331063062499,
                        "value": 0
                    },
                    {
                        "number": 64,
                        "time": 321.4847458624999,
                        "value": 1
                    },
                    {
                        "number": 64,
                        "time": 321.8398818937499,
                        "value": 0
                    },
                    {
                        "number": 64,
                        "time": 322.9474379999999,
                        "value": 1
                    },
                    {
                        "number": 64,
                        "time": 323.17691051249994,
                        "value": 0
                    },
                    {
                        "number": 64,
                        "time": 323.69673599999993,
                        "value": 0
                    },
                    {
                        "number": 64,
                        "time": 323.92620851249995,
                        "value": 1
                    },
                    {
                        "number": 64,
                        "time": 324.30085751249993,
                        "value": 0
                    },
                    {
                        "number": 64,
                        "time": 324.8206829999999,
                        "value": 1
                    },
                    {
                        "number": 64,
                        "time": 325.5809082624999,
                        "value": 0
                    },
                    {
                        "number": 64,
                        "time": 325.95243518749993,
                        "value": 0
                    },
                    {
                        "number": 64,
                        "time": 326.0343896562499,
                        "value": 1
                    },
                    {
                        "number": 64,
                        "time": 326.3278647062499,
                        "value": 0
                    },
                    {
                        "number": 64,
                        "time": 326.4355762937499,
                        "value": 1
                    },
                    {
                        "number": 64,
                        "time": 327.07638218749986,
                        "value": 0
                    },
                    {
                        "number": 64,
                        "time": 328.31740699999983,
                        "value": 1
                    },
                    {
                        "number": 64,
                        "time": 329.32427618749983,
                        "value": 0
                    },
                    {
                        "number": 64,
                        "time": 329.4319877749998,
                        "value": 1
                    },
                    {
                        "number": 64,
                        "time": 330.0766962624998,
                        "value": 0
                    },
                    {
                        "number": 64,
                        "time": 330.5301776562498,
                        "value": 1
                    },
                    {
                        "number": 64,
                        "time": 330.8236527062498,
                        "value": 0
                    },
                    {
                        "number": 64,
                        "time": 330.93136429374977,
                        "value": 1
                    },
                    {
                        "number": 64,
                        "time": 331.57295070624974,
                        "value": 0
                    },
                    {
                        "number": 64,
                        "time": 332.87563649999976,
                        "value": 1
                    },
                    {
                        "number": 64,
                        "time": 333.8208447062498,
                        "value": 0
                    },
                    {
                        "number": 64,
                        "time": 335.1235304999998,
                        "value": 1
                    },
                    {
                        "number": 64,
                        "time": 336.0687387062498,
                        "value": 0
                    },
                    {
                        "number": 64,
                        "time": 337.3714244999998,
                        "value": 1
                    },
                    {
                        "number": 64,
                        "time": 338.31663270624983,
                        "value": 0
                    },
                    {
                        "number": 64,
                        "time": 339.61931849999985,
                        "value": 1
                    },
                    {
                        "number": 64,
                        "time": 340.55594099999985,
                        "value": 0
                    },
                    {
                        "number": 64,
                        "time": 341.3185078187498,
                        "value": 1
                    },
                    {
                        "number": 64,
                        "time": 341.68379059374985,
                        "value": 0
                    },
                    {
                        "number": 64,
                        "time": 341.7462320937498,
                        "value": 1
                    },
                    {
                        "number": 64,
                        "time": 342.06156166874985,
                        "value": 0
                    },
                    {
                        "number": 64,
                        "time": 342.13180835624985,
                        "value": 1
                    },
                    {
                        "number": 64,
                        "time": 342.4362106687498,
                        "value": 0
                    },
                    {
                        "number": 64,
                        "time": 342.48460283124984,
                        "value": 1
                    },
                    {
                        "number": 64,
                        "time": 342.8092986312498,
                        "value": 0
                    },
                    {
                        "number": 64,
                        "time": 343.56249922499984,
                        "value": 1
                    },
                    {
                        "number": 64,
                        "time": 343.93402614999985,
                        "value": 0
                    },
                    {
                        "number": 64,
                        "time": 343.98866246249986,
                        "value": 1
                    },
                    {
                        "number": 64,
                        "time": 344.31023618749987,
                        "value": 0
                    },
                    {
                        "number": 64,
                        "time": 344.39609324999986,
                        "value": 1
                    },
                    {
                        "number": 64,
                        "time": 344.68332414999986,
                        "value": 0
                    },
                    {
                        "number": 64,
                        "time": 344.74966824374985,
                        "value": 1
                    },
                    {
                        "number": 64,
                        "time": 345.05172899999985,
                        "value": 0
                    },
                    {
                        "number": 64,
                        "time": 345.11417049999983,
                        "value": 1
                    },
                    {
                        "number": 64,
                        "time": 346.1772370374998,
                        "value": 0
                    },
                    {
                        "number": 64,
                        "time": 346.24202009374983,
                        "value": 1
                    },
                    {
                        "number": 64,
                        "time": 346.2779239562498,
                        "value": 0
                    },
                    {
                        "number": 64,
                        "time": 346.6166690937498,
                        "value": 1
                    },
                    {
                        "number": 64,
                        "time": 346.9085831062498,
                        "value": 0
                    },
                    {
                        "number": 64,
                        "time": 350.6714639999998,
                        "value": 0
                    },
                    {
                        "number": 64,
                        "time": 366.4067219999998,
                        "value": 0
                    },
                    {
                        "number": 64,
                        "time": 368.65461599999975,
                        "value": 0
                    },
                    {
                        "number": 64,
                        "time": 370.9025099999997,
                        "value": 0
                    },
                    {
                        "number": 64,
                        "time": 372.0264569999997,
                        "value": 0
                    },
                    {
                        "number": 64,
                        "time": 373.1504039999997,
                        "value": 0
                    },
                    {
                        "number": 64,
                        "time": 383.4118840062497,
                        "value": 1
                    },
                    {
                        "number": 64,
                        "time": 384.0316158937497,
                        "value": 0
                    },
                    {
                        "number": 64,
                        "time": 384.16430408124967,
                        "value": 1
                    },
                    {
                        "number": 64,
                        "time": 384.40158178124966,
                        "value": 0
                    },
                    {
                        "number": 64,
                        "time": 384.61934651249965,
                        "value": 1
                    },
                    {
                        "number": 64,
                        "time": 385.16102652499967,
                        "value": 0
                    },
                    {
                        "number": 64,
                        "time": 385.28434848749964,
                        "value": 1
                    },
                    {
                        "number": 64,
                        "time": 385.52630929999964,
                        "value": 0
                    },
                    {
                        "number": 64,
                        "time": 385.7846610062496,
                        "value": 1
                    },
                    {
                        "number": 64,
                        "time": 386.2834124874996,
                        "value": 0
                    },
                    {
                        "number": 64,
                        "time": 386.3591228062496,
                        "value": 1
                    },
                    {
                        "number": 64,
                        "time": 386.6377679999996,
                        "value": 0
                    },
                    {
                        "number": 64,
                        "time": 386.7704561874996,
                        "value": 1
                    },
                    {
                        "number": 64,
                        "time": 387.40033481874957,
                        "value": 0
                    },
                    {
                        "number": 64,
                        "time": 387.56346323749955,
                        "value": 1
                    },
                    {
                        "number": 64,
                        "time": 387.7617149999995,
                        "value": 0
                    },
                    {
                        "number": 64,
                        "time": 391.95388120624955,
                        "value": 1
                    },
                    {
                        "number": 64,
                        "time": 392.25750299999953,
                        "value": 0
                    },
                    {
                        "number": 64,
                        "time": 403.6429300062495,
                        "value": 1
                    },
                    {
                        "number": 64,
                        "time": 404.6256031124995,
                        "value": 0
                    },
                    {
                        "number": 64,
                        "time": 405.7448669999995,
                        "value": 1
                    },
                    {
                        "number": 64,
                        "time": 405.88301881874946,
                        "value": 0
                    },
                    {
                        "number": 64,
                        "time": 406.1476146749995,
                        "value": 1
                    },
                    {
                        "number": 64,
                        "time": 406.3068404999995,
                        "value": 0
                    },
                    {
                        "number": 64,
                        "time": 406.8820828187495,
                        "value": 1
                    },
                    {
                        "number": 64,
                        "time": 407.0116489312495,
                        "value": 0
                    },
                    {
                        "number": 64,
                        "time": 407.2793668624995,
                        "value": 1
                    },
                    {
                        "number": 64,
                        "time": 407.4713744749995,
                        "value": 0
                    },
                    {
                        "number": 64,
                        "time": 407.9927609999995,
                        "value": 1
                    },
                    {
                        "number": 64,
                        "time": 408.7529862624995,
                        "value": 0
                    },
                    {
                        "number": 64,
                        "time": 409.2064676562495,
                        "value": 1
                    },
                    {
                        "number": 64,
                        "time": 409.4999427062495,
                        "value": 0
                    },
                    {
                        "number": 64,
                        "time": 409.6076542937495,
                        "value": 1
                    },
                    {
                        "number": 64,
                        "time": 410.24924070624945,
                        "value": 0
                    },
                    {
                        "number": 64,
                        "time": 411.48948499999943,
                        "value": 1
                    },
                    {
                        "number": 64,
                        "time": 412.49635418749943,
                        "value": 0
                    },
                    {
                        "number": 64,
                        "time": 412.6040657749994,
                        "value": 1
                    },
                    {
                        "number": 64,
                        "time": 413.2487742624994,
                        "value": 0
                    },
                    {
                        "number": 64,
                        "time": 413.7022556562494,
                        "value": 1
                    },
                    {
                        "number": 64,
                        "time": 413.9957307062494,
                        "value": 0
                    },
                    {
                        "number": 64,
                        "time": 414.10344229374937,
                        "value": 1
                    },
                    {
                        "number": 64,
                        "time": 414.74502870624934,
                        "value": 0
                    },
                    {
                        "number": 64,
                        "time": 416.04771449999936,
                        "value": 1
                    },
                    {
                        "number": 64,
                        "time": 416.9929227062494,
                        "value": 0
                    },
                    {
                        "number": 64,
                        "time": 418.2956084999994,
                        "value": 1
                    },
                    {
                        "number": 64,
                        "time": 419.2322309999994,
                        "value": 0
                    },
                    {
                        "number": 64,
                        "time": 420.0307016812494,
                        "value": 1
                    },
                    {
                        "number": 64,
                        "time": 420.3600805937494,
                        "value": 0
                    },
                    {
                        "number": 64,
                        "time": 420.42252209374936,
                        "value": 1
                    },
                    {
                        "number": 64,
                        "time": 420.7378516687494,
                        "value": 0
                    },
                    {
                        "number": 64,
                        "time": 420.8080983562494,
                        "value": 1
                    },
                    {
                        "number": 64,
                        "time": 421.11250066874936,
                        "value": 0
                    },
                    {
                        "number": 64,
                        "time": 421.1608928312494,
                        "value": 1
                    },
                    {
                        "number": 64,
                        "time": 421.48558863124936,
                        "value": 0
                    },
                    {
                        "number": 64,
                        "time": 422.27000997499937,
                        "value": 1
                    },
                    {
                        "number": 64,
                        "time": 422.6103161499994,
                        "value": 0
                    },
                    {
                        "number": 64,
                        "time": 422.6649524624994,
                        "value": 1
                    },
                    {
                        "number": 64,
                        "time": 422.9865261874994,
                        "value": 0
                    },
                    {
                        "number": 64,
                        "time": 423.0723832499994,
                        "value": 1
                    },
                    {
                        "number": 64,
                        "time": 423.3596141499994,
                        "value": 0
                    },
                    {
                        "number": 64,
                        "time": 423.4259582437494,
                        "value": 1
                    },
                    {
                        "number": 64,
                        "time": 423.7280189999994,
                        "value": 0
                    },
                    {
                        "number": 64,
                        "time": 423.79046049999937,
                        "value": 1
                    },
                    {
                        "number": 64,
                        "time": 424.85352703749936,
                        "value": 0
                    },
                    {
                        "number": 64,
                        "time": 424.91831009374937,
                        "value": 1
                    },
                    {
                        "number": 64,
                        "time": 424.9573360312494,
                        "value": 0
                    },
                    {
                        "number": 64,
                        "time": 425.2929590937494,
                        "value": 1
                    },
                    {
                        "number": 64,
                        "time": 425.5848731062494,
                        "value": 0
                    },
                    {
                        "number": 64,
                        "time": 429.3477539999994,
                        "value": 0
                    },
                    {
                        "number": 64,
                        "time": 435.03461361249936,
                        "value": 1
                    },
                    {
                        "number": 64,
                        "time": 435.5411702812494,
                        "value": 0
                    },
                    {
                        "number": 64,
                        "time": 436.2241241874994,
                        "value": 1
                    },
                    {
                        "number": 64,
                        "time": 436.6635562437494,
                        "value": 0
                    },
                    {
                        "number": 64,
                        "time": 437.32543614374936,
                        "value": 1
                    },
                    {
                        "number": 64,
                        "time": 437.78906428124935,
                        "value": 0
                    },
                    {
                        "number": 64,
                        "time": 438.4610909249993,
                        "value": 1
                    },
                    {
                        "number": 64,
                        "time": 438.9106697249993,
                        "value": 0
                    },
                    {
                        "number": 64,
                        "time": 439.57333014374933,
                        "value": 1
                    },
                    {
                        "number": 64,
                        "time": 440.03461672499935,
                        "value": 0
                    },
                    {
                        "number": 64,
                        "time": 440.32262814374934,
                        "value": 1
                    },
                    {
                        "number": 64,
                        "time": 440.59346814999935,
                        "value": 0
                    },
                    {
                        "number": 64,
                        "time": 440.73083944999934,
                        "value": 1
                    },
                    {
                        "number": 64,
                        "time": 441.1609052812493,
                        "value": 0
                    },
                    {
                        "number": 64,
                        "time": 442.83511799999934,
                        "value": 0
                    },
                    {
                        "number": 64,
                        "time": 442.87414393749935,
                        "value": 1
                    },
                    {
                        "number": 64,
                        "time": 443.2199137437494,
                        "value": 0
                    },
                    {
                        "number": 64,
                        "time": 443.59300170624937,
                        "value": 1
                    },
                    {
                        "number": 64,
                        "time": 443.9902857499994,
                        "value": 0
                    },
                    {
                        "number": 64,
                        "time": 444.05272724999935,
                        "value": 1
                    },
                    {
                        "number": 64,
                        "time": 444.15185313124937,
                        "value": 0
                    },
                    {
                        "number": 64,
                        "time": 444.57957740624937,
                        "value": 1
                    },
                    {
                        "number": 64,
                        "time": 444.71772922499935,
                        "value": 0
                    },
                    {
                        "number": 64,
                        "time": 444.76690190624936,
                        "value": 1
                    },
                    {
                        "number": 64,
                        "time": 444.9011511312494,
                        "value": 0
                    },
                    {
                        "number": 64,
                        "time": 444.9401770687494,
                        "value": 1
                    },
                    {
                        "number": 64,
                        "time": 445.1142327499994,
                        "value": 0
                    },
                    {
                        "number": 64,
                        "time": 445.1766742499994,
                        "value": 1
                    },
                    {
                        "number": 64,
                        "time": 445.2820442812494,
                        "value": 0
                    },
                    {
                        "number": 64,
                        "time": 445.7035244062494,
                        "value": 1
                    },
                    {
                        "number": 64,
                        "time": 445.8416762249994,
                        "value": 0
                    },
                    {
                        "number": 64,
                        "time": 445.8908489062494,
                        "value": 1
                    },
                    {
                        "number": 64,
                        "time": 446.0250981312494,
                        "value": 0
                    },
                    {
                        "number": 64,
                        "time": 446.06412406874944,
                        "value": 1
                    },
                    {
                        "number": 64,
                        "time": 446.23817974999946,
                        "value": 0
                    },
                    {
                        "number": 64,
                        "time": 446.30062124999944,
                        "value": 1
                    },
                    {
                        "number": 64,
                        "time": 446.4036497249994,
                        "value": 0
                    },
                    {
                        "number": 64,
                        "time": 446.8274714062494,
                        "value": 1
                    },
                    {
                        "number": 64,
                        "time": 446.9656232249994,
                        "value": 0
                    },
                    {
                        "number": 64,
                        "time": 447.0147959062494,
                        "value": 1
                    },
                    {
                        "number": 64,
                        "time": 447.1490451312494,
                        "value": 0
                    },
                    {
                        "number": 64,
                        "time": 447.1880710687494,
                        "value": 1
                    },
                    {
                        "number": 64,
                        "time": 447.36212674999945,
                        "value": 0
                    },
                    {
                        "number": 64,
                        "time": 447.4245682499994,
                        "value": 1
                    },
                    {
                        "number": 64,
                        "time": 447.52369413124944,
                        "value": 0
                    },
                    {
                        "number": 64,
                        "time": 447.95141840624945,
                        "value": 1
                    },
                    {
                        "number": 64,
                        "time": 448.0895702249994,
                        "value": 0
                    },
                    {
                        "number": 64,
                        "time": 448.13874290624943,
                        "value": 1
                    },
                    {
                        "number": 64,
                        "time": 448.27299213124945,
                        "value": 0
                    },
                    {
                        "number": 64,
                        "time": 448.31201806874947,
                        "value": 1
                    },
                    {
                        "number": 64,
                        "time": 448.4860737499995,
                        "value": 0
                    },
                    {
                        "number": 64,
                        "time": 448.54851524999947,
                        "value": 1
                    },
                    {
                        "number": 64,
                        "time": 448.6468606124995,
                        "value": 0
                    },
                    {
                        "number": 64,
                        "time": 449.0753654062495,
                        "value": 1
                    },
                    {
                        "number": 64,
                        "time": 449.21351722499946,
                        "value": 0
                    },
                    {
                        "number": 64,
                        "time": 449.2626899062495,
                        "value": 1
                    },
                    {
                        "number": 64,
                        "time": 449.3969391312495,
                        "value": 0
                    },
                    {
                        "number": 64,
                        "time": 449.4359650687495,
                        "value": 1
                    },
                    {
                        "number": 64,
                        "time": 449.61002074999953,
                        "value": 0
                    },
                    {
                        "number": 64,
                        "time": 449.6724622499995,
                        "value": 1
                    },
                    {
                        "number": 64,
                        "time": 449.7754907249995,
                        "value": 0
                    },
                    {
                        "number": 64,
                        "time": 450.1993124062495,
                        "value": 1
                    },
                    {
                        "number": 64,
                        "time": 450.33746422499945,
                        "value": 0
                    },
                    {
                        "number": 64,
                        "time": 450.38663690624946,
                        "value": 1
                    },
                    {
                        "number": 64,
                        "time": 450.5208861312495,
                        "value": 0
                    },
                    {
                        "number": 64,
                        "time": 450.5599120687495,
                        "value": 1
                    },
                    {
                        "number": 64,
                        "time": 450.7074301124995,
                        "value": 0
                    },
                    {
                        "number": 64,
                        "time": 450.76987161249946,
                        "value": 1
                    },
                    {
                        "number": 64,
                        "time": 451.08598170624947,
                        "value": 0
                    },
                    {
                        "number": 64,
                        "time": 451.1390569812495,
                        "value": 1
                    },
                    {
                        "number": 64,
                        "time": 451.4645332999995,
                        "value": 0
                    },
                    {
                        "number": 64,
                        "time": 451.5144864999995,
                        "value": 1
                    },
                    {
                        "number": 64,
                        "time": 451.8688420124995,
                        "value": 0
                    },
                    {
                        "number": 64,
                        "time": 453.0130824999995,
                        "value": 1
                    },
                    {
                        "number": 64,
                        "time": 453.2480186437495,
                        "value": 0
                    },
                    {
                        "number": 64,
                        "time": 454.1596645437495,
                        "value": 1
                    },
                    {
                        "number": 64,
                        "time": 454.3625994187495,
                        "value": 0
                    },
                    {
                        "number": 64,
                        "time": 455.2726842812495,
                        "value": 1
                    },
                    {
                        "number": 64,
                        "time": 456.3435560062495,
                        "value": 0
                    },
                    {
                        "number": 64,
                        "time": 456.3560443062495,
                        "value": 1
                    },
                    {
                        "number": 64,
                        "time": 457.4675030062495,
                        "value": 0
                    },
                    {
                        "number": 64,
                        "time": 458.6257928312495,
                        "value": 1
                    },
                    {
                        "number": 64,
                        "time": 458.9551717437495,
                        "value": 0
                    },
                    {
                        "number": 64,
                        "time": 459.08239629999946,
                        "value": 1
                    },
                    {
                        "number": 64,
                        "time": 459.32982074374945,
                        "value": 0
                    },
                    {
                        "number": 64,
                        "time": 459.41879988124947,
                        "value": 1
                    },
                    {
                        "number": 64,
                        "time": 459.6943229999995,
                        "value": 0
                    },
                    {
                        "number": 64,
                        "time": 459.77705798749946,
                        "value": 1
                    },
                    {
                        "number": 64,
                        "time": 460.26254064999944,
                        "value": 0
                    },
                    {
                        "number": 64,
                        "time": 460.90256602499943,
                        "value": 1
                    },
                    {
                        "number": 64,
                        "time": 461.57693422499943,
                        "value": 0
                    },
                    {
                        "number": 64,
                        "time": 461.66669388124944,
                        "value": 1
                    },
                    {
                        "number": 64,
                        "time": 461.94221699999946,
                        "value": 0
                    },
                    {
                        "number": 64,
                        "time": 463.12158083124945,
                        "value": 1
                    },
                    {
                        "number": 64,
                        "time": 463.4509597437494,
                        "value": 0
                    },
                    {
                        "number": 64,
                        "time": 463.5781842999994,
                        "value": 1
                    },
                    {
                        "number": 64,
                        "time": 463.8256087437494,
                        "value": 0
                    },
                    {
                        "number": 64,
                        "time": 463.9145878812494,
                        "value": 1
                    },
                    {
                        "number": 64,
                        "time": 464.19011099999943,
                        "value": 0
                    },
                    {
                        "number": 64,
                        "time": 465.39835402499943,
                        "value": 1
                    },
                    {
                        "number": 64,
                        "time": 466.07272222499944,
                        "value": 0
                    },
                    {
                        "number": 64,
                        "time": 466.16248188124945,
                        "value": 1
                    },
                    {
                        "number": 64,
                        "time": 466.43800499999946,
                        "value": 0
                    },
                    {
                        "number": 64,
                        "time": 466.47390886249946,
                        "value": 1
                    },
                    {
                        "number": 64,
                        "time": 466.84621630624946,
                        "value": 0
                    },
                    {
                        "number": 64,
                        "time": 467.59785586249944,
                        "value": 1
                    },
                    {
                        "number": 64,
                        "time": 467.95299189374947,
                        "value": 0
                    },
                    {
                        "number": 64,
                        "time": 469.06054799999947,
                        "value": 1
                    },
                    {
                        "number": 64,
                        "time": 469.2900205124995,
                        "value": 0
                    }
                ]
            },
            "id": 3,
            "name": "Pedale",
            "instrumentNumber": 0,
            "instrument": "acoustic grand piano",
            "instrumentFamily": "piano",
            "channelNumber": 0,
            "isPercussion": false
        },
        {
            "startTime": 0,
            "duration": 0,
            "length": 0,
            "notes": [],
            "controlChanges": {},
            "id": 4,
            "name": "Mozart: Piano sonata KV 570 1. Movement"
        },
        {
            "startTime": 0,
            "duration": 0,
            "length": 0,
            "notes": [],
            "controlChanges": {},
            "id": 5,
            "name": "Copyright  2006 by Bernd Krueger"
        },
        {
            "startTime": 0,
            "duration": 0,
            "length": 0,
            "notes": [],
            "controlChanges": {},
            "id": 6,
            "name": "http://www.piano-midi.de/"
        },
        {
            "startTime": 0,
            "duration": 0,
            "length": 0,
            "notes": [],
            "controlChanges": {},
            "id": 7,
            "name": "Edition: 2013-10-10"
        },
        {
            "startTime": 0,
            "duration": 0,
            "length": 0,
            "notes": [],
            "controlChanges": {},
            "id": 8,
            "name": "Spur 8"
        },
        {
            "startTime": 0,
            "duration": 0,
            "length": 0,
            "notes": [],
            "controlChanges": {},
            "id": 9,
            "name": "Spur 9"
        },
        {
            "startTime": 0,
            "duration": 0,
            "length": 0,
            "notes": [],
            "controlChanges": {},
            "id": 10,
            "name": "Spur 10"
        },
        {
            "startTime": 0,
            "duration": 0,
            "length": 0,
            "notes": [],
            "controlChanges": {},
            "id": 11,
            "name": "Spur 11"
        },
        {
            "startTime": 0,
            "duration": 0,
            "length": 0,
            "notes": [],
            "controlChanges": {},
            "id": 12,
            "name": "Spur 12"
        },
        {
            "startTime": 0,
            "duration": 0,
            "length": 0,
            "notes": [],
            "controlChanges": {},
            "id": 13,
            "name": "Spur 13"
        },
        {
            "startTime": 0,
            "duration": 0,
            "length": 0,
            "notes": [],
            "controlChanges": {},
            "id": 14,
            "name": "Spur 14"
        },
        {
            "startTime": 0,
            "duration": 0,
            "length": 0,
            "notes": [],
            "controlChanges": {},
            "id": 15,
            "name": "Spur 15"
        },
        {
            "startTime": 0,
            "duration": 0,
            "length": 0,
            "notes": [],
            "controlChanges": {},
            "id": 16,
            "name": "Spur 16"
        }
    ]
}