{
    "header": {
        "PPQ": 480,
        "timeSignature": [
            6,
            8
        ],
        "bpm": 20,
        "name": "2. Movement"
    },
    "startTime": 0,
    "duration": 252,
    "tracks": [
        {
            "startTime": 0,
            "duration": 0,
            "length": 0,
            "notes": [],
            "controlChanges": {},
            "id": 0,
            "name": "2. Movement"
        },
        {
            "startTime": 1.5,
            "duration": 252,
            "length": 232,
            "notes": [
                {
                    "name": "C3",
                    "midi": 48,
                    "time": 1.5,
                    "velocity": 0.3228346456692913,
                    "duration": 1.125
                },
                {
                    "name": "C3",
                    "midi": 48,
                    "time": 2.625,
                    "velocity": 0.3228346456692913,
                    "duration": 0.375
                },
                {
                    "name": "A3",
                    "midi": 57,
                    "time": 3,
                    "velocity": 0.3700787401574803,
                    "duration": 1.5
                },
                {
                    "name": "A3",
                    "midi": 57,
                    "time": 6,
                    "velocity": 0.31496062992125984,
                    "duration": 1.125
                },
                {
                    "name": "A3",
                    "midi": 57,
                    "time": 7.125,
                    "velocity": 0.31496062992125984,
                    "duration": 0.375
                },
                {
                    "name": "D#4",
                    "midi": 63,
                    "time": 7.5,
                    "velocity": 0.36220472440944884,
                    "duration": 1.5
                },
                {
                    "name": "G#3",
                    "midi": 56,
                    "time": 10.5,
                    "velocity": 0.28346456692913385,
                    "duration": 1.4250000000000007
                },
                {
                    "name": "E4",
                    "midi": 64,
                    "time": 10.5,
                    "velocity": 0.28346456692913385,
                    "duration": 1.4250000000000007
                },
                {
                    "name": "B3",
                    "midi": 59,
                    "time": 12,
                    "velocity": 0.23622047244094488,
                    "duration": 1.4250000000000007
                },
                {
                    "name": "G#3",
                    "midi": 56,
                    "time": 12,
                    "velocity": 0.1968503937007874,
                    "duration": 1.4250000000000007
                },
                {
                    "name": "E4",
                    "midi": 64,
                    "time": 12,
                    "velocity": 0.23622047244094488,
                    "duration": 1.4250000000000007
                },
                {
                    "name": "G#3",
                    "midi": 56,
                    "time": 13.5,
                    "velocity": 0.1889763779527559,
                    "duration": 3
                },
                {
                    "name": "B3",
                    "midi": 59,
                    "time": 13.5,
                    "velocity": 0.2204724409448819,
                    "duration": 3
                },
                {
                    "name": "E4",
                    "midi": 64,
                    "time": 13.5,
                    "velocity": 0.2204724409448819,
                    "duration": 3
                },
                {
                    "name": "B3",
                    "midi": 59,
                    "time": 19.5,
                    "velocity": 0.3228346456692913,
                    "duration": 1.125
                },
                {
                    "name": "B3",
                    "midi": 59,
                    "time": 20.625,
                    "velocity": 0.3228346456692913,
                    "duration": 0.375
                },
                {
                    "name": "G4",
                    "midi": 67,
                    "time": 21,
                    "velocity": 0.3700787401574803,
                    "duration": 1.5
                },
                {
                    "name": "C#4",
                    "midi": 61,
                    "time": 24,
                    "velocity": 0.31496062992125984,
                    "duration": 1.125
                },
                {
                    "name": "C#4",
                    "midi": 61,
                    "time": 25.125,
                    "velocity": 0.31496062992125984,
                    "duration": 0.375
                },
                {
                    "name": "A#4",
                    "midi": 70,
                    "time": 25.5,
                    "velocity": 0.36220472440944884,
                    "duration": 1.5
                },
                {
                    "name": "F#4",
                    "midi": 66,
                    "time": 28.5,
                    "velocity": 0.25196850393700787,
                    "duration": 1.4250000000000007
                },
                {
                    "name": "B3",
                    "midi": 59,
                    "time": 28.5,
                    "velocity": 0.28346456692913385,
                    "duration": 1.4250000000000007
                },
                {
                    "name": "B4",
                    "midi": 71,
                    "time": 28.5,
                    "velocity": 0.28346456692913385,
                    "duration": 1.4250000000000007
                },
                {
                    "name": "F#4",
                    "midi": 66,
                    "time": 30,
                    "velocity": 0.25196850393700787,
                    "duration": 1.4250000000000007
                },
                {
                    "name": "B3",
                    "midi": 59,
                    "time": 30,
                    "velocity": 0.2125984251968504,
                    "duration": 1.4250000000000007
                },
                {
                    "name": "B4",
                    "midi": 71,
                    "time": 30,
                    "velocity": 0.25196850393700787,
                    "duration": 1.4250000000000007
                },
                {
                    "name": "B3",
                    "midi": 59,
                    "time": 31.5,
                    "velocity": 0.1889763779527559,
                    "duration": 3
                },
                {
                    "name": "F#4",
                    "midi": 66,
                    "time": 31.5,
                    "velocity": 0.2204724409448819,
                    "duration": 3
                },
                {
                    "name": "B4",
                    "midi": 71,
                    "time": 31.5,
                    "velocity": 0.2204724409448819,
                    "duration": 3
                },
                {
                    "name": "F4",
                    "midi": 65,
                    "time": 37.5,
                    "velocity": 0.36220472440944884,
                    "duration": 1.125
                },
                {
                    "name": "F4",
                    "midi": 65,
                    "time": 38.625,
                    "velocity": 0.4251968503937008,
                    "duration": 0.375
                },
                {
                    "name": "B4",
                    "midi": 71,
                    "time": 39,
                    "velocity": 0.47244094488188976,
                    "duration": 1.5
                },
                {
                    "name": "B4",
                    "midi": 71,
                    "time": 42,
                    "velocity": 0.47244094488188976,
                    "duration": 1.125
                },
                {
                    "name": "B4",
                    "midi": 71,
                    "time": 43.125,
                    "velocity": 0.47244094488188976,
                    "duration": 0.375
                },
                {
                    "name": "F5",
                    "midi": 77,
                    "time": 43.5,
                    "velocity": 0.5511811023622047,
                    "duration": 3
                },
                {
                    "name": "E5",
                    "midi": 76,
                    "time": 46.5,
                    "velocity": 0.5118110236220472,
                    "duration": 1.5
                },
                {
                    "name": "G5",
                    "midi": 79,
                    "time": 48,
                    "velocity": 0.5354330708661418,
                    "duration": 1.5
                },
                {
                    "name": "E4",
                    "midi": 64,
                    "time": 49.5,
                    "velocity": 0.25196850393700787,
                    "duration": 3
                },
                {
                    "name": "A#4",
                    "midi": 70,
                    "time": 49.5,
                    "velocity": 0.30708661417322836,
                    "duration": 3
                },
                {
                    "name": "F4",
                    "midi": 65,
                    "time": 55.5,
                    "velocity": 0.2755905511811024,
                    "duration": 1.4249999999999972
                },
                {
                    "name": "A4",
                    "midi": 69,
                    "time": 55.5,
                    "velocity": 0.33070866141732286,
                    "duration": 1.4249999999999972
                },
                {
                    "name": "A4",
                    "midi": 69,
                    "time": 57,
                    "velocity": 0.31496062992125984,
                    "duration": 1.4249999999999972
                },
                {
                    "name": "F5",
                    "midi": 77,
                    "time": 57,
                    "velocity": 0.3779527559055118,
                    "duration": 1.4249999999999972
                },
                {
                    "name": "F4",
                    "midi": 65,
                    "time": 58.5,
                    "velocity": 0.23622047244094488,
                    "duration": 3
                },
                {
                    "name": "A4",
                    "midi": 69,
                    "time": 58.5,
                    "velocity": 0.28346456692913385,
                    "duration": 3
                },
                {
                    "name": "A#3",
                    "midi": 58,
                    "time": 64.5,
                    "velocity": 0.28346456692913385,
                    "duration": 1.5
                },
                {
                    "name": "D4",
                    "midi": 62,
                    "time": 64.5,
                    "velocity": 0.28346456692913385,
                    "duration": 1.5
                },
                {
                    "name": "G4",
                    "midi": 67,
                    "time": 64.5,
                    "velocity": 0.33858267716535434,
                    "duration": 1.5
                },
                {
                    "name": "G3",
                    "midi": 55,
                    "time": 69,
                    "velocity": 0.2677165354330709,
                    "duration": 1.5
                },
                {
                    "name": "A#3",
                    "midi": 58,
                    "time": 69,
                    "velocity": 0.2677165354330709,
                    "duration": 1.5
                },
                {
                    "name": "E4",
                    "midi": 64,
                    "time": 69,
                    "velocity": 0.31496062992125984,
                    "duration": 1.5
                },
                {
                    "name": "A3",
                    "midi": 57,
                    "time": 73.5,
                    "velocity": 0.2125984251968504,
                    "duration": 1.4249999999999972
                },
                {
                    "name": "C4",
                    "midi": 60,
                    "time": 73.5,
                    "velocity": 0.2125984251968504,
                    "duration": 1.4249999999999972
                },
                {
                    "name": "F4",
                    "midi": 65,
                    "time": 73.5,
                    "velocity": 0.25984251968503935,
                    "duration": 1.4249999999999972
                },
                {
                    "name": "A3",
                    "midi": 57,
                    "time": 75,
                    "velocity": 0.2125984251968504,
                    "duration": 1.4249999999999972
                },
                {
                    "name": "C4",
                    "midi": 60,
                    "time": 75,
                    "velocity": 0.2125984251968504,
                    "duration": 1.4249999999999972
                },
                {
                    "name": "A4",
                    "midi": 69,
                    "time": 75,
                    "velocity": 0.25984251968503935,
                    "duration": 1.4249999999999972
                },
                {
                    "name": "A3",
                    "midi": 57,
                    "time": 76.5,
                    "velocity": 0.2125984251968504,
                    "duration": 3
                },
                {
                    "name": "C4",
                    "midi": 60,
                    "time": 76.5,
                    "velocity": 0.2125984251968504,
                    "duration": 3
                },
                {
                    "name": "F4",
                    "midi": 65,
                    "time": 76.5,
                    "velocity": 0.25984251968503935,
                    "duration": 3
                },
                {
                    "name": "C3",
                    "midi": 48,
                    "time": 79.5,
                    "velocity": 0.41732283464566927,
                    "duration": 1.125
                },
                {
                    "name": "C3",
                    "midi": 48,
                    "time": 80.625,
                    "velocity": 0.41732283464566927,
                    "duration": 0.1875
                },
                {
                    "name": "C3",
                    "midi": 48,
                    "time": 80.8125,
                    "velocity": 0.41732283464566927,
                    "duration": 0.17499999999999716
                },
                {
                    "name": "A3",
                    "midi": 57,
                    "time": 81,
                    "velocity": 0.48031496062992124,
                    "duration": 2.25
                },
                {
                    "name": "G3",
                    "midi": 55,
                    "time": 83.25,
                    "velocity": 0.4566929133858268,
                    "duration": 0.6875
                },
                {
                    "name": "A3",
                    "midi": 57,
                    "time": 84,
                    "velocity": 0.48031496062992124,
                    "duration": 0.6875
                },
                {
                    "name": "A#3",
                    "midi": 58,
                    "time": 84.75,
                    "velocity": 0.5039370078740157,
                    "duration": 0.6875
                },
                {
                    "name": "B3",
                    "midi": 59,
                    "time": 85.5,
                    "velocity": 0.5354330708661418,
                    "duration": 0.75
                },
                {
                    "name": "C4",
                    "midi": 60,
                    "time": 86.25,
                    "velocity": 0.5748031496062992,
                    "duration": 1.5
                },
                {
                    "name": "D4",
                    "midi": 62,
                    "time": 87.75,
                    "velocity": 0.5590551181102362,
                    "duration": 1.5
                },
                {
                    "name": "A#3",
                    "midi": 58,
                    "time": 89.25,
                    "velocity": 0.3779527559055118,
                    "duration": 0.375
                },
                {
                    "name": "A3",
                    "midi": 57,
                    "time": 89.625,
                    "velocity": 0.33858267716535434,
                    "duration": 0.375
                },
                {
                    "name": "G3",
                    "midi": 55,
                    "time": 90,
                    "velocity": 0.3543307086614173,
                    "duration": 0.75
                },
                {
                    "name": "F#4",
                    "midi": 66,
                    "time": 90.75,
                    "velocity": 0.3779527559055118,
                    "duration": 0.6875
                },
                {
                    "name": "G4",
                    "midi": 67,
                    "time": 91.5,
                    "velocity": 0.3779527559055118,
                    "duration": 0.6875
                },
                {
                    "name": "A4",
                    "midi": 69,
                    "time": 92.25,
                    "velocity": 0.3858267716535433,
                    "duration": 0.6875
                },
                {
                    "name": "A#4",
                    "midi": 70,
                    "time": 93,
                    "velocity": 0.41732283464566927,
                    "duration": 0.6875
                },
                {
                    "name": "F#5",
                    "midi": 78,
                    "time": 93.75,
                    "velocity": 0.4251968503937008,
                    "duration": 0.6875
                },
                {
                    "name": "G5",
                    "midi": 79,
                    "time": 94.5,
                    "velocity": 0.4330708661417323,
                    "duration": 0.6875
                },
                {
                    "name": "A5",
                    "midi": 81,
                    "time": 95.25,
                    "velocity": 0.4409448818897638,
                    "duration": 0.6875
                },
                {
                    "name": "A#5",
                    "midi": 82,
                    "time": 96,
                    "velocity": 0.44881889763779526,
                    "duration": 0.6875
                },
                {
                    "name": "C3",
                    "midi": 48,
                    "time": 97.5,
                    "velocity": 0.44881889763779526,
                    "duration": 1.125
                },
                {
                    "name": "C3",
                    "midi": 48,
                    "time": 98.625,
                    "velocity": 0.44881889763779526,
                    "duration": 0.1875
                },
                {
                    "name": "C3",
                    "midi": 48,
                    "time": 98.8125,
                    "velocity": 0.41732283464566927,
                    "duration": 0.1875
                },
                {
                    "name": "A#3",
                    "midi": 58,
                    "time": 99,
                    "velocity": 0.5433070866141733,
                    "duration": 2.25
                },
                {
                    "name": "A3",
                    "midi": 57,
                    "time": 101.25,
                    "velocity": 0.49606299212598426,
                    "duration": 0.6875
                },
                {
                    "name": "A#3",
                    "midi": 58,
                    "time": 102,
                    "velocity": 0.5196850393700787,
                    "duration": 0.6875
                },
                {
                    "name": "C4",
                    "midi": 60,
                    "time": 102.75,
                    "velocity": 0.5354330708661418,
                    "duration": 0.6875
                },
                {
                    "name": "C#4",
                    "midi": 61,
                    "time": 103.5,
                    "velocity": 0.5590551181102362,
                    "duration": 0.75
                },
                {
                    "name": "D4",
                    "midi": 62,
                    "time": 104.25,
                    "velocity": 0.5433070866141733,
                    "duration": 1.5
                },
                {
                    "name": "C4",
                    "midi": 60,
                    "time": 105.75,
                    "velocity": 0.5826771653543307,
                    "duration": 1.5
                },
                {
                    "name": "D4",
                    "midi": 62,
                    "time": 107.25,
                    "velocity": 0.4330708661417323,
                    "duration": 0.375
                },
                {
                    "name": "A#3",
                    "midi": 58,
                    "time": 107.625,
                    "velocity": 0.3937007874015748,
                    "duration": 0.375
                },
                {
                    "name": "F3",
                    "midi": 53,
                    "time": 108,
                    "velocity": 0.3464566929133858,
                    "duration": 0.75
                },
                {
                    "name": "A3",
                    "midi": 57,
                    "time": 108,
                    "velocity": 0.3464566929133858,
                    "duration": 0.75
                },
                {
                    "name": "G#4",
                    "midi": 68,
                    "time": 108.75,
                    "velocity": 0.3779527559055118,
                    "duration": 0.6875
                },
                {
                    "name": "A4",
                    "midi": 69,
                    "time": 109.5,
                    "velocity": 0.3779527559055118,
                    "duration": 0.6875
                },
                {
                    "name": "B4",
                    "midi": 71,
                    "time": 110.25,
                    "velocity": 0.3858267716535433,
                    "duration": 0.6875
                },
                {
                    "name": "C5",
                    "midi": 72,
                    "time": 111,
                    "velocity": 0.3858267716535433,
                    "duration": 0.6875
                },
                {
                    "name": "G#5",
                    "midi": 80,
                    "time": 111.75,
                    "velocity": 0.4251968503937008,
                    "duration": 0.6875
                },
                {
                    "name": "A5",
                    "midi": 81,
                    "time": 112.5,
                    "velocity": 0.4330708661417323,
                    "duration": 0.6875
                },
                {
                    "name": "B5",
                    "midi": 83,
                    "time": 113.25,
                    "velocity": 0.4409448818897638,
                    "duration": 0.6875
                },
                {
                    "name": "C6",
                    "midi": 84,
                    "time": 114,
                    "velocity": 0.44881889763779526,
                    "duration": 0.6875
                },
                {
                    "name": "C5",
                    "midi": 72,
                    "time": 115.5,
                    "velocity": 0.48031496062992124,
                    "duration": 1.125
                },
                {
                    "name": "C5",
                    "midi": 72,
                    "time": 116.625,
                    "velocity": 0.48031496062992124,
                    "duration": 0.375
                },
                {
                    "name": "F4",
                    "midi": 65,
                    "time": 117,
                    "velocity": 0.5354330708661418,
                    "duration": 3
                },
                {
                    "name": "F5",
                    "midi": 77,
                    "time": 118.5,
                    "velocity": 0.5354330708661418,
                    "duration": 1.125
                },
                {
                    "name": "F5",
                    "midi": 77,
                    "time": 119.625,
                    "velocity": 0.4645669291338583,
                    "duration": 0.375
                },
                {
                    "name": "G4",
                    "midi": 67,
                    "time": 120,
                    "velocity": 0.4566929133858268,
                    "duration": 3
                },
                {
                    "name": "E5",
                    "midi": 76,
                    "time": 120,
                    "velocity": 0.5433070866141733,
                    "duration": 1.5
                },
                {
                    "name": "G5",
                    "midi": 79,
                    "time": 121.5,
                    "velocity": 0.5196850393700787,
                    "duration": 1.5
                },
                {
                    "name": "E4",
                    "midi": 64,
                    "time": 123,
                    "velocity": 0.41732283464566927,
                    "duration": 1.5
                },
                {
                    "name": "A#4",
                    "midi": 70,
                    "time": 123,
                    "velocity": 0.49606299212598426,
                    "duration": 1.0750000000000028
                },
                {
                    "name": "A#4",
                    "midi": 70,
                    "time": 124.125,
                    "velocity": 0.4645669291338583,
                    "duration": 0.15625
                },
                {
                    "name": "A#4",
                    "midi": 70,
                    "time": 124.3125,
                    "velocity": 0.4409448818897638,
                    "duration": 0.15625
                },
                {
                    "name": "F4",
                    "midi": 65,
                    "time": 124.5,
                    "velocity": 0.33858267716535434,
                    "duration": 1.5
                },
                {
                    "name": "A4",
                    "midi": 69,
                    "time": 124.5,
                    "velocity": 0.4094488188976378,
                    "duration": 0.375
                },
                {
                    "name": "G#4",
                    "midi": 68,
                    "time": 124.875,
                    "velocity": 0.4015748031496063,
                    "duration": 0.375
                },
                {
                    "name": "A4",
                    "midi": 69,
                    "time": 125.25,
                    "velocity": 0.4015748031496063,
                    "duration": 0.375
                },
                {
                    "name": "C5",
                    "midi": 72,
                    "time": 125.625,
                    "velocity": 0.3700787401574803,
                    "duration": 0.375
                },
                {
                    "name": "F4",
                    "midi": 65,
                    "time": 126,
                    "velocity": 0.4094488188976378,
                    "duration": 3
                },
                {
                    "name": "F5",
                    "midi": 77,
                    "time": 127.5,
                    "velocity": 0.4881889763779528,
                    "duration": 1.125
                },
                {
                    "name": "F5",
                    "midi": 77,
                    "time": 128.625,
                    "velocity": 0.4251968503937008,
                    "duration": 0.375
                },
                {
                    "name": "G4",
                    "midi": 67,
                    "time": 129,
                    "velocity": 0.4566929133858268,
                    "duration": 3
                },
                {
                    "name": "E5",
                    "midi": 76,
                    "time": 129,
                    "velocity": 0.5433070866141733,
                    "duration": 1.5
                },
                {
                    "name": "G5",
                    "midi": 79,
                    "time": 130.5,
                    "velocity": 0.47244094488188976,
                    "duration": 1.5
                },
                {
                    "name": "E4",
                    "midi": 64,
                    "time": 132,
                    "velocity": 0.3858267716535433,
                    "duration": 1.5
                },
                {
                    "name": "A#4",
                    "midi": 70,
                    "time": 132,
                    "velocity": 0.4566929133858268,
                    "duration": 1.125
                },
                {
                    "name": "A#4",
                    "midi": 70,
                    "time": 133.125,
                    "velocity": 0.3858267716535433,
                    "duration": 0.375
                },
                {
                    "name": "F4",
                    "midi": 65,
                    "time": 133.5,
                    "velocity": 0.3858267716535433,
                    "duration": 1.5
                },
                {
                    "name": "A4",
                    "midi": 69,
                    "time": 133.5,
                    "velocity": 0.4566929133858268,
                    "duration": 1.5
                },
                {
                    "name": "A#3",
                    "midi": 58,
                    "time": 136.5,
                    "velocity": 0.31496062992125984,
                    "duration": 1.5
                },
                {
                    "name": "D4",
                    "midi": 62,
                    "time": 136.5,
                    "velocity": 0.31496062992125984,
                    "duration": 1.5
                },
                {
                    "name": "G4",
                    "midi": 67,
                    "time": 136.5,
                    "velocity": 0.3779527559055118,
                    "duration": 1.5
                },
                {
                    "name": "G3",
                    "midi": 55,
                    "time": 141,
                    "velocity": 0.2992125984251969,
                    "duration": 1.5
                },
                {
                    "name": "A#3",
                    "midi": 58,
                    "time": 141,
                    "velocity": 0.2992125984251969,
                    "duration": 1.5
                },
                {
                    "name": "E4",
                    "midi": 64,
                    "time": 141,
                    "velocity": 0.3543307086614173,
                    "duration": 1.5
                },
                {
                    "name": "C3",
                    "midi": 48,
                    "time": 145.5,
                    "velocity": 0.3228346456692913,
                    "duration": 1.125
                },
                {
                    "name": "C3",
                    "midi": 48,
                    "time": 146.625,
                    "velocity": 0.3228346456692913,
                    "duration": 0.375
                },
                {
                    "name": "A3",
                    "midi": 57,
                    "time": 147,
                    "velocity": 0.3700787401574803,
                    "duration": 1.5
                },
                {
                    "name": "A3",
                    "midi": 57,
                    "time": 150,
                    "velocity": 0.31496062992125984,
                    "duration": 1.125
                },
                {
                    "name": "A3",
                    "midi": 57,
                    "time": 151.125,
                    "velocity": 0.31496062992125984,
                    "duration": 0.375
                },
                {
                    "name": "D#4",
                    "midi": 63,
                    "time": 151.5,
                    "velocity": 0.3937007874015748,
                    "duration": 1.5
                },
                {
                    "name": "E4",
                    "midi": 64,
                    "time": 153,
                    "velocity": 0.3700787401574803,
                    "duration": 1.4250000000000114
                },
                {
                    "name": "B3",
                    "midi": 59,
                    "time": 154.5,
                    "velocity": 0.28346456692913385,
                    "duration": 1.4250000000000114
                },
                {
                    "name": "G#3",
                    "midi": 56,
                    "time": 154.5,
                    "velocity": 0.28346456692913385,
                    "duration": 1.4250000000000114
                },
                {
                    "name": "E4",
                    "midi": 64,
                    "time": 154.5,
                    "velocity": 0.28346456692913385,
                    "duration": 1.4250000000000114
                },
                {
                    "name": "B3",
                    "midi": 59,
                    "time": 156,
                    "velocity": 0.23622047244094488,
                    "duration": 1.4250000000000114
                },
                {
                    "name": "G#3",
                    "midi": 56,
                    "time": 156,
                    "velocity": 0.1968503937007874,
                    "duration": 1.4250000000000114
                },
                {
                    "name": "E4",
                    "midi": 64,
                    "time": 156,
                    "velocity": 0.23622047244094488,
                    "duration": 1.4250000000000114
                },
                {
                    "name": "G#3",
                    "midi": 56,
                    "time": 157.5,
                    "velocity": 0.1889763779527559,
                    "duration": 1.4250000000000114
                },
                {
                    "name": "B3",
                    "midi": 59,
                    "time": 157.5,
                    "velocity": 0.2204724409448819,
                    "duration": 1.4250000000000114
                },
                {
                    "name": "E4",
                    "midi": 64,
                    "time": 157.5,
                    "velocity": 0.2204724409448819,
                    "duration": 1.4250000000000114
                },
                {
                    "name": "G3",
                    "midi": 55,
                    "time": 159,
                    "velocity": 0.4566929133858268,
                    "duration": 1.4250000000000114
                },
                {
                    "name": "G3",
                    "midi": 55,
                    "time": 160.5,
                    "velocity": 0.49606299212598426,
                    "duration": 1.4250000000000114
                },
                {
                    "name": "G3",
                    "midi": 55,
                    "time": 162,
                    "velocity": 0.36220472440944884,
                    "duration": 4.5
                },
                {
                    "name": "B3",
                    "midi": 59,
                    "time": 163.5,
                    "velocity": 0.3228346456692913,
                    "duration": 1.125
                },
                {
                    "name": "B3",
                    "midi": 59,
                    "time": 164.625,
                    "velocity": 0.3228346456692913,
                    "duration": 0.375
                },
                {
                    "name": "G4",
                    "midi": 67,
                    "time": 165,
                    "velocity": 0.3700787401574803,
                    "duration": 1.5
                },
                {
                    "name": "C#4",
                    "midi": 61,
                    "time": 168,
                    "velocity": 0.31496062992125984,
                    "duration": 1.125
                },
                {
                    "name": "C#4",
                    "midi": 61,
                    "time": 169.125,
                    "velocity": 0.31496062992125984,
                    "duration": 0.375
                },
                {
                    "name": "A#4",
                    "midi": 70,
                    "time": 169.5,
                    "velocity": 0.36220472440944884,
                    "duration": 1.5
                },
                {
                    "name": "B4",
                    "midi": 71,
                    "time": 171,
                    "velocity": 0.3700787401574803,
                    "duration": 1.4250000000000114
                },
                {
                    "name": "F#4",
                    "midi": 66,
                    "time": 172.5,
                    "velocity": 0.25196850393700787,
                    "duration": 1.4250000000000114
                },
                {
                    "name": "B3",
                    "midi": 59,
                    "time": 172.5,
                    "velocity": 0.28346456692913385,
                    "duration": 1.4250000000000114
                },
                {
                    "name": "B4",
                    "midi": 71,
                    "time": 172.5,
                    "velocity": 0.28346456692913385,
                    "duration": 1.4250000000000114
                },
                {
                    "name": "F#4",
                    "midi": 66,
                    "time": 174,
                    "velocity": 0.25196850393700787,
                    "duration": 1.4250000000000114
                },
                {
                    "name": "B3",
                    "midi": 59,
                    "time": 174,
                    "velocity": 0.2125984251968504,
                    "duration": 1.4250000000000114
                },
                {
                    "name": "B4",
                    "midi": 71,
                    "time": 174,
                    "velocity": 0.25196850393700787,
                    "duration": 1.4250000000000114
                },
                {
                    "name": "B3",
                    "midi": 59,
                    "time": 175.5,
                    "velocity": 0.2125984251968504,
                    "duration": 1.4250000000000114
                },
                {
                    "name": "F#4",
                    "midi": 66,
                    "time": 175.5,
                    "velocity": 0.25196850393700787,
                    "duration": 1.4250000000000114
                },
                {
                    "name": "B4",
                    "midi": 71,
                    "time": 175.5,
                    "velocity": 0.25196850393700787,
                    "duration": 1.4250000000000114
                },
                {
                    "name": "D3",
                    "midi": 50,
                    "time": 177,
                    "velocity": 0.3543307086614173,
                    "duration": 1.4250000000000114
                },
                {
                    "name": "F3",
                    "midi": 53,
                    "time": 177,
                    "velocity": 0.4330708661417323,
                    "duration": 1.4250000000000114
                },
                {
                    "name": "D3",
                    "midi": 50,
                    "time": 178.5,
                    "velocity": 0.3858267716535433,
                    "duration": 1.4250000000000114
                },
                {
                    "name": "F3",
                    "midi": 53,
                    "time": 178.5,
                    "velocity": 0.47244094488188976,
                    "duration": 1.4250000000000114
                },
                {
                    "name": "F3",
                    "midi": 53,
                    "time": 180,
                    "velocity": 0.29133858267716534,
                    "duration": 3
                },
                {
                    "name": "F4",
                    "midi": 65,
                    "time": 181.5,
                    "velocity": 0.36220472440944884,
                    "duration": 1.125
                },
                {
                    "name": "F4",
                    "midi": 65,
                    "time": 182.625,
                    "velocity": 0.3779527559055118,
                    "duration": 0.375
                },
                {
                    "name": "B4",
                    "midi": 71,
                    "time": 183,
                    "velocity": 0.4251968503937008,
                    "duration": 3
                },
                {
                    "name": "B4",
                    "midi": 71,
                    "time": 186,
                    "velocity": 0.3937007874015748,
                    "duration": 1.125
                },
                {
                    "name": "B4",
                    "midi": 71,
                    "time": 187.125,
                    "velocity": 0.4251968503937008,
                    "duration": 0.375
                },
                {
                    "name": "F5",
                    "midi": 77,
                    "time": 187.5,
                    "velocity": 0.4566929133858268,
                    "duration": 3
                },
                {
                    "name": "F5",
                    "midi": 77,
                    "time": 190.5,
                    "velocity": 0.4015748031496063,
                    "duration": 1.125
                },
                {
                    "name": "F5",
                    "midi": 77,
                    "time": 191.625,
                    "velocity": 0.41732283464566927,
                    "duration": 0.375
                },
                {
                    "name": "G#5",
                    "midi": 80,
                    "time": 192,
                    "velocity": 0.5196850393700787,
                    "duration": 3
                },
                {
                    "name": "F5",
                    "midi": 77,
                    "time": 195,
                    "velocity": 0.48031496062992124,
                    "duration": 1.125
                },
                {
                    "name": "F5",
                    "midi": 77,
                    "time": 196.125,
                    "velocity": 0.48031496062992124,
                    "duration": 0.375
                },
                {
                    "name": "D6",
                    "midi": 86,
                    "time": 196.5,
                    "velocity": 0.5905511811023622,
                    "duration": 3
                },
                {
                    "name": "F5",
                    "midi": 77,
                    "time": 199.5,
                    "velocity": 0.5511811023622047,
                    "duration": 1.125
                },
                {
                    "name": "F5",
                    "midi": 77,
                    "time": 200.625,
                    "velocity": 0.5511811023622047,
                    "duration": 0.375
                },
                {
                    "name": "F6",
                    "midi": 89,
                    "time": 201,
                    "velocity": 0.6456692913385826,
                    "duration": 3
                },
                {
                    "name": "F5",
                    "midi": 77,
                    "time": 204,
                    "velocity": 0.5748031496062992,
                    "duration": 1.125
                },
                {
                    "name": "F5",
                    "midi": 77,
                    "time": 205.125,
                    "velocity": 0.5196850393700787,
                    "duration": 0.375
                },
                {
                    "name": "F6",
                    "midi": 89,
                    "time": 205.5,
                    "velocity": 0.6929133858267716,
                    "duration": 3
                },
                {
                    "name": "F5",
                    "midi": 77,
                    "time": 208.5,
                    "velocity": 0.5669291338582677,
                    "duration": 1.125
                },
                {
                    "name": "F5",
                    "midi": 77,
                    "time": 209.625,
                    "velocity": 0.5826771653543307,
                    "duration": 0.375
                },
                {
                    "name": "F6",
                    "midi": 89,
                    "time": 210,
                    "velocity": 0.7086614173228346,
                    "duration": 2.625
                },
                {
                    "name": "F5",
                    "midi": 77,
                    "time": 212.625,
                    "velocity": 0.6220472440944882,
                    "duration": 0.375
                },
                {
                    "name": "F6",
                    "midi": 89,
                    "time": 213,
                    "velocity": 0.7322834645669292,
                    "duration": 0.375
                },
                {
                    "name": "D5",
                    "midi": 74,
                    "time": 214.125,
                    "velocity": 0.5826771653543307,
                    "duration": 0.375
                },
                {
                    "name": "D6",
                    "midi": 86,
                    "time": 214.5,
                    "velocity": 0.7007874015748031,
                    "duration": 0.375
                },
                {
                    "name": "B4",
                    "midi": 71,
                    "time": 215.625,
                    "velocity": 0.5039370078740157,
                    "duration": 0.375
                },
                {
                    "name": "B5",
                    "midi": 83,
                    "time": 216,
                    "velocity": 0.5905511811023622,
                    "duration": 0.375
                },
                {
                    "name": "F4",
                    "midi": 65,
                    "time": 217.125,
                    "velocity": 0.49606299212598426,
                    "duration": 0.375
                },
                {
                    "name": "F5",
                    "midi": 77,
                    "time": 217.5,
                    "velocity": 0.5669291338582677,
                    "duration": 0.375
                },
                {
                    "name": "D4",
                    "midi": 62,
                    "time": 218.625,
                    "velocity": 0.4094488188976378,
                    "duration": 0.375
                },
                {
                    "name": "D5",
                    "midi": 74,
                    "time": 219,
                    "velocity": 0.47244094488188976,
                    "duration": 0.375
                },
                {
                    "name": "B3",
                    "midi": 59,
                    "time": 220.125,
                    "velocity": 0.3700787401574803,
                    "duration": 0.375
                },
                {
                    "name": "B4",
                    "midi": 71,
                    "time": 220.5,
                    "velocity": 0.4330708661417323,
                    "duration": 0.375
                },
                {
                    "name": "F3",
                    "midi": 53,
                    "time": 221.625,
                    "velocity": 0.33070866141732286,
                    "duration": 0.375
                },
                {
                    "name": "F4",
                    "midi": 65,
                    "time": 222,
                    "velocity": 0.3779527559055118,
                    "duration": 0.375
                },
                {
                    "name": "D3",
                    "midi": 50,
                    "time": 223.125,
                    "velocity": 0.2992125984251969,
                    "duration": 0.375
                },
                {
                    "name": "D4",
                    "midi": 62,
                    "time": 223.5,
                    "velocity": 0.33070866141732286,
                    "duration": 0.375
                },
                {
                    "name": "B2",
                    "midi": 47,
                    "time": 224.625,
                    "velocity": 0.25196850393700787,
                    "duration": 0.375
                },
                {
                    "name": "B3",
                    "midi": 59,
                    "time": 225,
                    "velocity": 0.31496062992125984,
                    "duration": 1.4250000000000114
                },
                {
                    "name": "B2",
                    "midi": 47,
                    "time": 226.5,
                    "velocity": 0.1968503937007874,
                    "duration": 1.4250000000000114
                },
                {
                    "name": "D3",
                    "midi": 50,
                    "time": 226.5,
                    "velocity": 0.1968503937007874,
                    "duration": 1.4250000000000114
                },
                {
                    "name": "F3",
                    "midi": 53,
                    "time": 226.5,
                    "velocity": 0.23622047244094488,
                    "duration": 1.4250000000000114
                },
                {
                    "name": "B2",
                    "midi": 47,
                    "time": 228,
                    "velocity": 0.18110236220472442,
                    "duration": 1.4250000000000114
                },
                {
                    "name": "D3",
                    "midi": 50,
                    "time": 228,
                    "velocity": 0.18110236220472442,
                    "duration": 1.4250000000000114
                },
                {
                    "name": "F3",
                    "midi": 53,
                    "time": 228,
                    "velocity": 0.2204724409448819,
                    "duration": 1.4250000000000114
                },
                {
                    "name": "B2",
                    "midi": 47,
                    "time": 229.5,
                    "velocity": 0.18110236220472442,
                    "duration": 3
                },
                {
                    "name": "D3",
                    "midi": 50,
                    "time": 229.5,
                    "velocity": 0.18110236220472442,
                    "duration": 3
                },
                {
                    "name": "F3",
                    "midi": 53,
                    "time": 229.5,
                    "velocity": 0.2204724409448819,
                    "duration": 3
                },
                {
                    "name": "F5",
                    "midi": 77,
                    "time": 232.5,
                    "velocity": 0.31496062992125984,
                    "duration": 1.5
                },
                {
                    "name": "E5",
                    "midi": 76,
                    "time": 234,
                    "velocity": 0.31496062992125984,
                    "duration": 1.5
                },
                {
                    "name": "E5",
                    "midi": 76,
                    "time": 241.5,
                    "velocity": 0.31496062992125984,
                    "duration": 1.5
                },
                {
                    "name": "D5",
                    "midi": 74,
                    "time": 243,
                    "velocity": 0.31496062992125984,
                    "duration": 1.5
                },
                {
                    "name": "D5",
                    "midi": 74,
                    "time": 246,
                    "velocity": 0.31496062992125984,
                    "duration": 1.5
                },
                {
                    "name": "G5",
                    "midi": 79,
                    "time": 247.5,
                    "velocity": 0.31496062992125984,
                    "duration": 1.5
                },
                {
                    "name": "G5",
                    "midi": 79,
                    "time": 250.5,
                    "velocity": 0.5590551181102362,
                    "duration": 1.5
                }
            ],
            "controlChanges": {
                "7": [
                    {
                        "number": 7,
                        "time": 0,
                        "value": 0.7874015748031497
                    }
                ],
                "10": [
                    {
                        "number": 10,
                        "time": 0,
                        "value": 0.5039370078740157
                    }
                ],
                "91": [
                    {
                        "number": 91,
                        "time": 0,
                        "value": 1
                    },
                    {
                        "number": 91,
                        "time": 18,
                        "value": 1
                    },
                    {
                        "number": 91,
                        "time": 36,
                        "value": 1
                    },
                    {
                        "number": 91,
                        "time": 144,
                        "value": 1
                    },
                    {
                        "number": 91,
                        "time": 162,
                        "value": 1
                    },
                    {
                        "number": 91,
                        "time": 180,
                        "value": 1
                    },
                    {
                        "number": 91,
                        "time": 189,
                        "value": 1
                    },
                    {
                        "number": 91,
                        "time": 198,
                        "value": 1
                    },
                    {
                        "number": 91,
                        "time": 207,
                        "value": 1
                    }
                ]
            },
            "id": 1,
            "name": "Piano right",
            "instrumentNumber": 1,
            "instrument": "bright acoustic piano",
            "instrumentFamily": "piano",
            "channelNumber": 0,
            "isPercussion": false
        },
        {
            "startTime": 0,
            "duration": 250.5,
            "length": 261,
            "notes": [
                {
                    "name": "F1",
                    "midi": 29,
                    "time": 0,
                    "velocity": 0.2283464566929134,
                    "duration": 4.5
                },
                {
                    "name": "F2",
                    "midi": 41,
                    "time": 0,
                    "velocity": 0.2755905511811024,
                    "duration": 4.5
                },
                {
                    "name": "F1",
                    "midi": 29,
                    "time": 4.5,
                    "velocity": 0.2283464566929134,
                    "duration": 4.5
                },
                {
                    "name": "F2",
                    "midi": 41,
                    "time": 4.5,
                    "velocity": 0.2755905511811024,
                    "duration": 4.5
                },
                {
                    "name": "E2",
                    "midi": 40,
                    "time": 10.5,
                    "velocity": 0.2047244094488189,
                    "duration": 1.4250000000000007
                },
                {
                    "name": "E3",
                    "midi": 52,
                    "time": 10.5,
                    "velocity": 0.2440944881889764,
                    "duration": 1.4250000000000007
                },
                {
                    "name": "E2",
                    "midi": 40,
                    "time": 12,
                    "velocity": 0.16535433070866143,
                    "duration": 1.4250000000000007
                },
                {
                    "name": "E3",
                    "midi": 52,
                    "time": 12,
                    "velocity": 0.1968503937007874,
                    "duration": 1.4250000000000007
                },
                {
                    "name": "E2",
                    "midi": 40,
                    "time": 13.5,
                    "velocity": 0.15748031496062992,
                    "duration": 3
                },
                {
                    "name": "E3",
                    "midi": 52,
                    "time": 13.5,
                    "velocity": 0.1889763779527559,
                    "duration": 3
                },
                {
                    "name": "E2",
                    "midi": 40,
                    "time": 18,
                    "velocity": 0.2440944881889764,
                    "duration": 4.5
                },
                {
                    "name": "E3",
                    "midi": 52,
                    "time": 18,
                    "velocity": 0.2992125984251969,
                    "duration": 4.5
                },
                {
                    "name": "E2",
                    "midi": 40,
                    "time": 22.5,
                    "velocity": 0.2440944881889764,
                    "duration": 4.5
                },
                {
                    "name": "E3",
                    "midi": 52,
                    "time": 22.5,
                    "velocity": 0.2992125984251969,
                    "duration": 4.5
                },
                {
                    "name": "B2",
                    "midi": 47,
                    "time": 28.5,
                    "velocity": 0.2047244094488189,
                    "duration": 1.4250000000000007
                },
                {
                    "name": "D#2",
                    "midi": 39,
                    "time": 28.5,
                    "velocity": 0.2047244094488189,
                    "duration": 1.4250000000000007
                },
                {
                    "name": "D#3",
                    "midi": 51,
                    "time": 28.5,
                    "velocity": 0.2440944881889764,
                    "duration": 1.4250000000000007
                },
                {
                    "name": "B2",
                    "midi": 47,
                    "time": 30,
                    "velocity": 0.18110236220472442,
                    "duration": 1.4250000000000007
                },
                {
                    "name": "D#2",
                    "midi": 39,
                    "time": 30,
                    "velocity": 0.18110236220472442,
                    "duration": 1.4250000000000007
                },
                {
                    "name": "D#3",
                    "midi": 51,
                    "time": 30,
                    "velocity": 0.2125984251968504,
                    "duration": 1.4250000000000007
                },
                {
                    "name": "B2",
                    "midi": 47,
                    "time": 31.5,
                    "velocity": 0.15748031496062992,
                    "duration": 3
                },
                {
                    "name": "D#2",
                    "midi": 39,
                    "time": 31.5,
                    "velocity": 0.15748031496062992,
                    "duration": 3
                },
                {
                    "name": "D#3",
                    "midi": 51,
                    "time": 31.5,
                    "velocity": 0.1889763779527559,
                    "duration": 3
                },
                {
                    "name": "D2",
                    "midi": 38,
                    "time": 36,
                    "velocity": 0.2992125984251969,
                    "duration": 4.5
                },
                {
                    "name": "D3",
                    "midi": 50,
                    "time": 36,
                    "velocity": 0.3543307086614173,
                    "duration": 4.5
                },
                {
                    "name": "C#2",
                    "midi": 37,
                    "time": 40.5,
                    "velocity": 0.33070866141732286,
                    "duration": 4.5
                },
                {
                    "name": "C#3",
                    "midi": 49,
                    "time": 40.5,
                    "velocity": 0.3937007874015748,
                    "duration": 4.5
                },
                {
                    "name": "C2",
                    "midi": 36,
                    "time": 45,
                    "velocity": 0.3464566929133858,
                    "duration": 1.4249999999999972
                },
                {
                    "name": "C3",
                    "midi": 48,
                    "time": 45,
                    "velocity": 0.4094488188976378,
                    "duration": 1.4249999999999972
                },
                {
                    "name": "C2",
                    "midi": 36,
                    "time": 46.5,
                    "velocity": 0.3464566929133858,
                    "duration": 1.4249999999999972
                },
                {
                    "name": "C3",
                    "midi": 48,
                    "time": 46.5,
                    "velocity": 0.4094488188976378,
                    "duration": 1.4249999999999972
                },
                {
                    "name": "C2",
                    "midi": 36,
                    "time": 48,
                    "velocity": 0.3464566929133858,
                    "duration": 1.4249999999999972
                },
                {
                    "name": "C3",
                    "midi": 48,
                    "time": 48,
                    "velocity": 0.4094488188976378,
                    "duration": 1.4249999999999972
                },
                {
                    "name": "C2",
                    "midi": 36,
                    "time": 49.5,
                    "velocity": 0.2440944881889764,
                    "duration": 3
                },
                {
                    "name": "C3",
                    "midi": 48,
                    "time": 49.5,
                    "velocity": 0.28346456692913385,
                    "duration": 3
                },
                {
                    "name": "D2",
                    "midi": 38,
                    "time": 55.5,
                    "velocity": 0.2204724409448819,
                    "duration": 1.4249999999999972
                },
                {
                    "name": "D3",
                    "midi": 50,
                    "time": 55.5,
                    "velocity": 0.2677165354330709,
                    "duration": 1.4249999999999972
                },
                {
                    "name": "D2",
                    "midi": 38,
                    "time": 57,
                    "velocity": 0.2755905511811024,
                    "duration": 1.4249999999999972
                },
                {
                    "name": "D3",
                    "midi": 50,
                    "time": 57,
                    "velocity": 0.33070866141732286,
                    "duration": 1.4249999999999972
                },
                {
                    "name": "D2",
                    "midi": 38,
                    "time": 58.5,
                    "velocity": 0.1889763779527559,
                    "duration": 3
                },
                {
                    "name": "D3",
                    "midi": 50,
                    "time": 58.5,
                    "velocity": 0.2283464566929134,
                    "duration": 3
                },
                {
                    "name": "A#1",
                    "midi": 34,
                    "time": 63,
                    "velocity": 0.2992125984251969,
                    "duration": 1.5
                },
                {
                    "name": "A#2",
                    "midi": 46,
                    "time": 63,
                    "velocity": 0.3543307086614173,
                    "duration": 1.5
                },
                {
                    "name": "C2",
                    "midi": 36,
                    "time": 67.5,
                    "velocity": 0.2755905511811024,
                    "duration": 1.5
                },
                {
                    "name": "C3",
                    "midi": 48,
                    "time": 67.5,
                    "velocity": 0.33070866141732286,
                    "duration": 1.5
                },
                {
                    "name": "F1",
                    "midi": 29,
                    "time": 72,
                    "velocity": 0.25196850393700787,
                    "duration": 1.4249999999999972
                },
                {
                    "name": "F2",
                    "midi": 41,
                    "time": 72,
                    "velocity": 0.2992125984251969,
                    "duration": 1.4249999999999972
                },
                {
                    "name": "F1",
                    "midi": 29,
                    "time": 73.5,
                    "velocity": 0.18110236220472442,
                    "duration": 1.4249999999999972
                },
                {
                    "name": "F2",
                    "midi": 41,
                    "time": 73.5,
                    "velocity": 0.2125984251968504,
                    "duration": 1.4249999999999972
                },
                {
                    "name": "F1",
                    "midi": 29,
                    "time": 75,
                    "velocity": 0.18110236220472442,
                    "duration": 1.4249999999999972
                },
                {
                    "name": "F2",
                    "midi": 41,
                    "time": 75,
                    "velocity": 0.2125984251968504,
                    "duration": 1.4249999999999972
                },
                {
                    "name": "F1",
                    "midi": 29,
                    "time": 76.5,
                    "velocity": 0.18110236220472442,
                    "duration": 3
                },
                {
                    "name": "F2",
                    "midi": 41,
                    "time": 76.5,
                    "velocity": 0.2125984251968504,
                    "duration": 3
                },
                {
                    "name": "F2",
                    "midi": 41,
                    "time": 81,
                    "velocity": 0.3228346456692913,
                    "duration": 2.25
                },
                {
                    "name": "C3",
                    "midi": 48,
                    "time": 81,
                    "velocity": 0.3858267716535433,
                    "duration": 2.25
                },
                {
                    "name": "E2",
                    "midi": 40,
                    "time": 83.25,
                    "velocity": 0.30708661417322836,
                    "duration": 0.6875
                },
                {
                    "name": "C3",
                    "midi": 48,
                    "time": 83.25,
                    "velocity": 0.3779527559055118,
                    "duration": 0.6875
                },
                {
                    "name": "F2",
                    "midi": 41,
                    "time": 84,
                    "velocity": 0.33070866141732286,
                    "duration": 0.6875
                },
                {
                    "name": "C3",
                    "midi": 48,
                    "time": 84,
                    "velocity": 0.3937007874015748,
                    "duration": 0.6875
                },
                {
                    "name": "G2",
                    "midi": 43,
                    "time": 84.75,
                    "velocity": 0.3543307086614173,
                    "duration": 0.6875
                },
                {
                    "name": "C3",
                    "midi": 48,
                    "time": 84.75,
                    "velocity": 0.41732283464566927,
                    "duration": 0.6875
                },
                {
                    "name": "G#2",
                    "midi": 44,
                    "time": 85.5,
                    "velocity": 0.3779527559055118,
                    "duration": 0.75
                },
                {
                    "name": "C3",
                    "midi": 48,
                    "time": 85.5,
                    "velocity": 0.4566929133858268,
                    "duration": 0.75
                },
                {
                    "name": "A2",
                    "midi": 45,
                    "time": 86.25,
                    "velocity": 0.3937007874015748,
                    "duration": 1.5
                },
                {
                    "name": "C3",
                    "midi": 48,
                    "time": 86.25,
                    "velocity": 0.47244094488188976,
                    "duration": 1.5
                },
                {
                    "name": "A#2",
                    "midi": 46,
                    "time": 87.75,
                    "velocity": 0.3937007874015748,
                    "duration": 1.5
                },
                {
                    "name": "C3",
                    "midi": 48,
                    "time": 87.75,
                    "velocity": 0.48031496062992124,
                    "duration": 1.5
                },
                {
                    "name": "G2",
                    "midi": 43,
                    "time": 89.25,
                    "velocity": 0.31496062992125984,
                    "duration": 0.375
                },
                {
                    "name": "C3",
                    "midi": 48,
                    "time": 89.25,
                    "velocity": 0.31496062992125984,
                    "duration": 0.75
                },
                {
                    "name": "F2",
                    "midi": 41,
                    "time": 89.625,
                    "velocity": 0.2755905511811024,
                    "duration": 0.375
                },
                {
                    "name": "E2",
                    "midi": 40,
                    "time": 90,
                    "velocity": 0.31496062992125984,
                    "duration": 2.25
                },
                {
                    "name": "C3",
                    "midi": 48,
                    "time": 90,
                    "velocity": 0.31496062992125984,
                    "duration": 2.25
                },
                {
                    "name": "F#3",
                    "midi": 54,
                    "time": 92.25,
                    "velocity": 0.2755905511811024,
                    "duration": 0.6875
                },
                {
                    "name": "C4",
                    "midi": 60,
                    "time": 92.25,
                    "velocity": 0.2283464566929134,
                    "duration": 0.6875
                },
                {
                    "name": "G3",
                    "midi": 55,
                    "time": 93,
                    "velocity": 0.2992125984251969,
                    "duration": 0.6875
                },
                {
                    "name": "C4",
                    "midi": 60,
                    "time": 93,
                    "velocity": 0.25196850393700787,
                    "duration": 0.6875
                },
                {
                    "name": "A3",
                    "midi": 57,
                    "time": 93.75,
                    "velocity": 0.31496062992125984,
                    "duration": 0.6875
                },
                {
                    "name": "C4",
                    "midi": 60,
                    "time": 93.75,
                    "velocity": 0.2677165354330709,
                    "duration": 0.6875
                },
                {
                    "name": "A#3",
                    "midi": 58,
                    "time": 94.5,
                    "velocity": 0.4015748031496063,
                    "duration": 0.6875
                },
                {
                    "name": "C4",
                    "midi": 60,
                    "time": 94.5,
                    "velocity": 0.4015748031496063,
                    "duration": 0.6875
                },
                {
                    "name": "F#2",
                    "midi": 42,
                    "time": 95.25,
                    "velocity": 0.4015748031496063,
                    "duration": 0.6875
                },
                {
                    "name": "G2",
                    "midi": 43,
                    "time": 96,
                    "velocity": 0.4330708661417323,
                    "duration": 0.6875
                },
                {
                    "name": "A2",
                    "midi": 45,
                    "time": 96.75,
                    "velocity": 0.4015748031496063,
                    "duration": 0.6875
                },
                {
                    "name": "A#2",
                    "midi": 46,
                    "time": 97.5,
                    "velocity": 0.44881889763779526,
                    "duration": 0.6875
                },
                {
                    "name": "G2",
                    "midi": 43,
                    "time": 98.25,
                    "velocity": 0.3937007874015748,
                    "duration": 0.6875
                },
                {
                    "name": "E2",
                    "midi": 40,
                    "time": 99,
                    "velocity": 0.3228346456692913,
                    "duration": 0.75
                },
                {
                    "name": "G2",
                    "midi": 43,
                    "time": 99.75,
                    "velocity": 0.31496062992125984,
                    "duration": 1.5
                },
                {
                    "name": "C3",
                    "midi": 48,
                    "time": 99.75,
                    "velocity": 0.36220472440944884,
                    "duration": 1.5
                },
                {
                    "name": "F#2",
                    "midi": 42,
                    "time": 101.25,
                    "velocity": 0.33070866141732286,
                    "duration": 0.6875
                },
                {
                    "name": "C3",
                    "midi": 48,
                    "time": 101.25,
                    "velocity": 0.4094488188976378,
                    "duration": 0.6875
                },
                {
                    "name": "G2",
                    "midi": 43,
                    "time": 102,
                    "velocity": 0.36220472440944884,
                    "duration": 0.6875
                },
                {
                    "name": "C3",
                    "midi": 48,
                    "time": 102,
                    "velocity": 0.4330708661417323,
                    "duration": 0.6875
                },
                {
                    "name": "A2",
                    "midi": 45,
                    "time": 102.75,
                    "velocity": 0.3858267716535433,
                    "duration": 0.6875
                },
                {
                    "name": "C3",
                    "midi": 48,
                    "time": 102.75,
                    "velocity": 0.4566929133858268,
                    "duration": 0.6875
                },
                {
                    "name": "A#2",
                    "midi": 46,
                    "time": 103.5,
                    "velocity": 0.4094488188976378,
                    "duration": 0.75
                },
                {
                    "name": "C3",
                    "midi": 48,
                    "time": 103.5,
                    "velocity": 0.49606299212598426,
                    "duration": 2.25
                },
                {
                    "name": "A#2",
                    "midi": 46,
                    "time": 104.25,
                    "velocity": 0.4330708661417323,
                    "duration": 1.5
                },
                {
                    "name": "E2",
                    "midi": 40,
                    "time": 105.75,
                    "velocity": 0.3937007874015748,
                    "duration": 1.5
                },
                {
                    "name": "C3",
                    "midi": 48,
                    "time": 105.75,
                    "velocity": 0.3937007874015748,
                    "duration": 1.5
                },
                {
                    "name": "G3",
                    "midi": 55,
                    "time": 105.75,
                    "velocity": 0.48031496062992124,
                    "duration": 1.5
                },
                {
                    "name": "C2",
                    "midi": 36,
                    "time": 107.25,
                    "velocity": 0.2047244094488189,
                    "duration": 0.75
                },
                {
                    "name": "C3",
                    "midi": 48,
                    "time": 107.25,
                    "velocity": 0.2047244094488189,
                    "duration": 0.75
                },
                {
                    "name": "E3",
                    "midi": 52,
                    "time": 107.25,
                    "velocity": 0.29133858267716534,
                    "duration": 0.75
                },
                {
                    "name": "F2",
                    "midi": 41,
                    "time": 108,
                    "velocity": 0.2283464566929134,
                    "duration": 2.25
                },
                {
                    "name": "C3",
                    "midi": 48,
                    "time": 108,
                    "velocity": 0.2992125984251969,
                    "duration": 2.25
                },
                {
                    "name": "G#3",
                    "midi": 56,
                    "time": 110.25,
                    "velocity": 0.2755905511811024,
                    "duration": 0.6875
                },
                {
                    "name": "A3",
                    "midi": 57,
                    "time": 111,
                    "velocity": 0.2992125984251969,
                    "duration": 0.6875
                },
                {
                    "name": "B3",
                    "midi": 59,
                    "time": 111.75,
                    "velocity": 0.31496062992125984,
                    "duration": 0.6875
                },
                {
                    "name": "C4",
                    "midi": 60,
                    "time": 112.5,
                    "velocity": 0.3700787401574803,
                    "duration": 0.6875
                },
                {
                    "name": "G#2",
                    "midi": 44,
                    "time": 113.25,
                    "velocity": 0.3228346456692913,
                    "duration": 0.6875
                },
                {
                    "name": "A2",
                    "midi": 45,
                    "time": 114,
                    "velocity": 0.3937007874015748,
                    "duration": 0.6875
                },
                {
                    "name": "B2",
                    "midi": 47,
                    "time": 114.75,
                    "velocity": 0.4015748031496063,
                    "duration": 0.6875
                },
                {
                    "name": "C3",
                    "midi": 48,
                    "time": 115.5,
                    "velocity": 0.4409448818897638,
                    "duration": 0.6875
                },
                {
                    "name": "A#2",
                    "midi": 46,
                    "time": 116.25,
                    "velocity": 0.4015748031496063,
                    "duration": 0.6875
                },
                {
                    "name": "A2",
                    "midi": 45,
                    "time": 117,
                    "velocity": 0.4409448818897638,
                    "duration": 1.5
                },
                {
                    "name": "C4",
                    "midi": 60,
                    "time": 118.5,
                    "velocity": 0.4251968503937008,
                    "duration": 1.5
                },
                {
                    "name": "A3",
                    "midi": 57,
                    "time": 118.5,
                    "velocity": 0.3543307086614173,
                    "duration": 1.5
                },
                {
                    "name": "C4",
                    "midi": 60,
                    "time": 120,
                    "velocity": 0.47244094488188976,
                    "duration": 3
                },
                {
                    "name": "A#3",
                    "midi": 58,
                    "time": 120,
                    "velocity": 0.4015748031496063,
                    "duration": 1.5
                },
                {
                    "name": "E3",
                    "midi": 52,
                    "time": 121.5,
                    "velocity": 0.36220472440944884,
                    "duration": 1.5
                },
                {
                    "name": "C3",
                    "midi": 48,
                    "time": 123,
                    "velocity": 0.36220472440944884,
                    "duration": 1.5
                },
                {
                    "name": "G3",
                    "midi": 55,
                    "time": 123,
                    "velocity": 0.4330708661417323,
                    "duration": 1.5
                },
                {
                    "name": "F3",
                    "midi": 53,
                    "time": 124.5,
                    "velocity": 0.3543307086614173,
                    "duration": 1.5
                },
                {
                    "name": "A3",
                    "midi": 57,
                    "time": 124.5,
                    "velocity": 0.41732283464566927,
                    "duration": 1.5
                },
                {
                    "name": "C4",
                    "midi": 60,
                    "time": 127.5,
                    "velocity": 0.4251968503937008,
                    "duration": 1.5
                },
                {
                    "name": "A3",
                    "midi": 57,
                    "time": 127.5,
                    "velocity": 0.3543307086614173,
                    "duration": 1.5
                },
                {
                    "name": "C4",
                    "midi": 60,
                    "time": 129,
                    "velocity": 0.47244094488188976,
                    "duration": 3
                },
                {
                    "name": "A#3",
                    "midi": 58,
                    "time": 129,
                    "velocity": 0.4015748031496063,
                    "duration": 1.5
                },
                {
                    "name": "E3",
                    "midi": 52,
                    "time": 130.5,
                    "velocity": 0.36220472440944884,
                    "duration": 1.5
                },
                {
                    "name": "C3",
                    "midi": 48,
                    "time": 132,
                    "velocity": 0.36220472440944884,
                    "duration": 1.5
                },
                {
                    "name": "G3",
                    "midi": 55,
                    "time": 132,
                    "velocity": 0.4330708661417323,
                    "duration": 1.5
                },
                {
                    "name": "D3",
                    "midi": 50,
                    "time": 133.5,
                    "velocity": 0.3543307086614173,
                    "duration": 1.5
                },
                {
                    "name": "F3",
                    "midi": 53,
                    "time": 133.5,
                    "velocity": 0.41732283464566927,
                    "duration": 1.5
                },
                {
                    "name": "A#1",
                    "midi": 34,
                    "time": 135,
                    "velocity": 0.2992125984251969,
                    "duration": 1.5
                },
                {
                    "name": "A#2",
                    "midi": 46,
                    "time": 135,
                    "velocity": 0.3543307086614173,
                    "duration": 1.5
                },
                {
                    "name": "C2",
                    "midi": 36,
                    "time": 139.5,
                    "velocity": 0.2755905511811024,
                    "duration": 1.5
                },
                {
                    "name": "C3",
                    "midi": 48,
                    "time": 139.5,
                    "velocity": 0.33070866141732286,
                    "duration": 1.5
                },
                {
                    "name": "F1",
                    "midi": 29,
                    "time": 144,
                    "velocity": 0.2283464566929134,
                    "duration": 4.5
                },
                {
                    "name": "F2",
                    "midi": 41,
                    "time": 144,
                    "velocity": 0.2755905511811024,
                    "duration": 4.5
                },
                {
                    "name": "F1",
                    "midi": 29,
                    "time": 148.5,
                    "velocity": 0.2440944881889764,
                    "duration": 3
                },
                {
                    "name": "F2",
                    "midi": 41,
                    "time": 148.5,
                    "velocity": 0.2992125984251969,
                    "duration": 3.375
                },
                {
                    "name": "A2",
                    "midi": 45,
                    "time": 151.875,
                    "velocity": 0.30708661417322836,
                    "duration": 0.375
                },
                {
                    "name": "C3",
                    "midi": 48,
                    "time": 152.25,
                    "velocity": 0.3464566929133858,
                    "duration": 0.375
                },
                {
                    "name": "A2",
                    "midi": 45,
                    "time": 152.625,
                    "velocity": 0.2992125984251969,
                    "duration": 0.375
                },
                {
                    "name": "E2",
                    "midi": 40,
                    "time": 153,
                    "velocity": 0.3228346456692913,
                    "duration": 1.4250000000000114
                },
                {
                    "name": "E2",
                    "midi": 40,
                    "time": 154.5,
                    "velocity": 0.2047244094488189,
                    "duration": 1.4250000000000114
                },
                {
                    "name": "E3",
                    "midi": 52,
                    "time": 154.5,
                    "velocity": 0.2440944881889764,
                    "duration": 1.4250000000000114
                },
                {
                    "name": "E2",
                    "midi": 40,
                    "time": 156,
                    "velocity": 0.16535433070866143,
                    "duration": 1.4250000000000114
                },
                {
                    "name": "E3",
                    "midi": 52,
                    "time": 156,
                    "velocity": 0.1968503937007874,
                    "duration": 1.4250000000000114
                },
                {
                    "name": "E2",
                    "midi": 40,
                    "time": 157.5,
                    "velocity": 0.15748031496062992,
                    "duration": 3
                },
                {
                    "name": "E3",
                    "midi": 52,
                    "time": 157.5,
                    "velocity": 0.18110236220472442,
                    "duration": 3
                },
                {
                    "name": "E2",
                    "midi": 40,
                    "time": 162,
                    "velocity": 0.2125984251968504,
                    "duration": 4.5
                },
                {
                    "name": "E3",
                    "midi": 52,
                    "time": 162,
                    "velocity": 0.2677165354330709,
                    "duration": 4.5
                },
                {
                    "name": "E2",
                    "midi": 40,
                    "time": 166.5,
                    "velocity": 0.2440944881889764,
                    "duration": 4.5
                },
                {
                    "name": "E3",
                    "midi": 52,
                    "time": 166.5,
                    "velocity": 0.2992125984251969,
                    "duration": 3.375
                },
                {
                    "name": "E3",
                    "midi": 52,
                    "time": 169.875,
                    "velocity": 0.2992125984251969,
                    "duration": 0.375
                },
                {
                    "name": "G3",
                    "midi": 55,
                    "time": 170.25,
                    "velocity": 0.33070866141732286,
                    "duration": 0.375
                },
                {
                    "name": "E3",
                    "midi": 52,
                    "time": 170.625,
                    "velocity": 0.2992125984251969,
                    "duration": 0.375
                },
                {
                    "name": "D#3",
                    "midi": 51,
                    "time": 171,
                    "velocity": 0.36220472440944884,
                    "duration": 1.4250000000000114
                },
                {
                    "name": "B2",
                    "midi": 47,
                    "time": 172.5,
                    "velocity": 0.2047244094488189,
                    "duration": 1.4250000000000114
                },
                {
                    "name": "D#2",
                    "midi": 39,
                    "time": 172.5,
                    "velocity": 0.2047244094488189,
                    "duration": 1.4250000000000114
                },
                {
                    "name": "D#3",
                    "midi": 51,
                    "time": 172.5,
                    "velocity": 0.2440944881889764,
                    "duration": 1.4250000000000114
                },
                {
                    "name": "B2",
                    "midi": 47,
                    "time": 174,
                    "velocity": 0.18110236220472442,
                    "duration": 1.4250000000000114
                },
                {
                    "name": "D#2",
                    "midi": 39,
                    "time": 174,
                    "velocity": 0.18110236220472442,
                    "duration": 1.4250000000000114
                },
                {
                    "name": "D#3",
                    "midi": 51,
                    "time": 174,
                    "velocity": 0.2125984251968504,
                    "duration": 1.4250000000000114
                },
                {
                    "name": "B2",
                    "midi": 47,
                    "time": 175.5,
                    "velocity": 0.18110236220472442,
                    "duration": 1.5
                },
                {
                    "name": "D#2",
                    "midi": 39,
                    "time": 175.5,
                    "velocity": 0.18110236220472442,
                    "duration": 1.5
                },
                {
                    "name": "D#3",
                    "midi": 51,
                    "time": 175.5,
                    "velocity": 0.2125984251968504,
                    "duration": 1.5
                },
                {
                    "name": "D3",
                    "midi": 50,
                    "time": 180,
                    "velocity": 0.23622047244094488,
                    "duration": 3.375
                },
                {
                    "name": "F3",
                    "midi": 53,
                    "time": 183.375,
                    "velocity": 0.31496062992125984,
                    "duration": 0.375
                },
                {
                    "name": "G#3",
                    "midi": 56,
                    "time": 183.75,
                    "velocity": 0.3543307086614173,
                    "duration": 0.375
                },
                {
                    "name": "F3",
                    "midi": 53,
                    "time": 184.125,
                    "velocity": 0.3228346456692913,
                    "duration": 0.375
                },
                {
                    "name": "C#3",
                    "midi": 49,
                    "time": 184.5,
                    "velocity": 0.4094488188976378,
                    "duration": 3.375
                },
                {
                    "name": "F3",
                    "midi": 53,
                    "time": 187.875,
                    "velocity": 0.36220472440944884,
                    "duration": 0.375
                },
                {
                    "name": "G#3",
                    "midi": 56,
                    "time": 188.25,
                    "velocity": 0.3937007874015748,
                    "duration": 0.375
                },
                {
                    "name": "F3",
                    "midi": 53,
                    "time": 188.625,
                    "velocity": 0.36220472440944884,
                    "duration": 0.375
                },
                {
                    "name": "C3",
                    "midi": 48,
                    "time": 189,
                    "velocity": 0.4409448818897638,
                    "duration": 3.375
                },
                {
                    "name": "F3",
                    "midi": 53,
                    "time": 192.375,
                    "velocity": 0.4015748031496063,
                    "duration": 0.375
                },
                {
                    "name": "G#3",
                    "midi": 56,
                    "time": 192.75,
                    "velocity": 0.4330708661417323,
                    "duration": 0.375
                },
                {
                    "name": "F3",
                    "midi": 53,
                    "time": 193.125,
                    "velocity": 0.3937007874015748,
                    "duration": 0.375
                },
                {
                    "name": "B2",
                    "midi": 47,
                    "time": 193.5,
                    "velocity": 0.4881889763779528,
                    "duration": 3.375
                },
                {
                    "name": "F3",
                    "midi": 53,
                    "time": 196.875,
                    "velocity": 0.4566929133858268,
                    "duration": 0.375
                },
                {
                    "name": "G#3",
                    "midi": 56,
                    "time": 197.25,
                    "velocity": 0.4881889763779528,
                    "duration": 0.375
                },
                {
                    "name": "F3",
                    "midi": 53,
                    "time": 197.625,
                    "velocity": 0.4409448818897638,
                    "duration": 0.375
                },
                {
                    "name": "G#2",
                    "midi": 44,
                    "time": 198,
                    "velocity": 0.5511811023622047,
                    "duration": 3.375
                },
                {
                    "name": "F3",
                    "midi": 53,
                    "time": 201.375,
                    "velocity": 0.5354330708661418,
                    "duration": 0.375
                },
                {
                    "name": "B3",
                    "midi": 59,
                    "time": 201.75,
                    "velocity": 0.5748031496062992,
                    "duration": 0.375
                },
                {
                    "name": "F3",
                    "midi": 53,
                    "time": 202.125,
                    "velocity": 0.5354330708661418,
                    "duration": 0.375
                },
                {
                    "name": "G2",
                    "midi": 43,
                    "time": 202.5,
                    "velocity": 0.6456692913385826,
                    "duration": 3.375
                },
                {
                    "name": "F3",
                    "midi": 53,
                    "time": 205.875,
                    "velocity": 0.5984251968503937,
                    "duration": 0.375
                },
                {
                    "name": "B3",
                    "midi": 59,
                    "time": 206.25,
                    "velocity": 0.6299212598425197,
                    "duration": 0.375
                },
                {
                    "name": "F3",
                    "midi": 53,
                    "time": 206.625,
                    "velocity": 0.5984251968503937,
                    "duration": 0.375
                },
                {
                    "name": "G#2",
                    "midi": 44,
                    "time": 207,
                    "velocity": 0.7244094488188977,
                    "duration": 3.375
                },
                {
                    "name": "F3",
                    "midi": 53,
                    "time": 210.375,
                    "velocity": 0.5905511811023622,
                    "duration": 0.375
                },
                {
                    "name": "B3",
                    "midi": 59,
                    "time": 210.75,
                    "velocity": 0.6456692913385826,
                    "duration": 0.375
                },
                {
                    "name": "F3",
                    "midi": 53,
                    "time": 211.125,
                    "velocity": 0.5826771653543307,
                    "duration": 0.375
                },
                {
                    "name": "G#2",
                    "midi": 44,
                    "time": 211.5,
                    "velocity": 0.7086614173228346,
                    "duration": 0.375
                },
                {
                    "name": "F3",
                    "midi": 53,
                    "time": 211.875,
                    "velocity": 0.5669291338582677,
                    "duration": 0.375
                },
                {
                    "name": "B3",
                    "midi": 59,
                    "time": 212.25,
                    "velocity": 0.6377952755905512,
                    "duration": 0.375
                },
                {
                    "name": "F3",
                    "midi": 53,
                    "time": 212.625,
                    "velocity": 0.5039370078740157,
                    "duration": 0.375
                },
                {
                    "name": "G#2",
                    "midi": 44,
                    "time": 213,
                    "velocity": 0.5590551181102362,
                    "duration": 0.375
                },
                {
                    "name": "F3",
                    "midi": 53,
                    "time": 213.375,
                    "velocity": 0.4094488188976378,
                    "duration": 0.375
                },
                {
                    "name": "B3",
                    "midi": 59,
                    "time": 213.75,
                    "velocity": 0.4251968503937008,
                    "duration": 0.375
                },
                {
                    "name": "F3",
                    "midi": 53,
                    "time": 214.125,
                    "velocity": 0.4015748031496063,
                    "duration": 0.375
                },
                {
                    "name": "G#2",
                    "midi": 44,
                    "time": 214.5,
                    "velocity": 0.44881889763779526,
                    "duration": 0.375
                },
                {
                    "name": "F3",
                    "midi": 53,
                    "time": 214.875,
                    "velocity": 0.3858267716535433,
                    "duration": 0.375
                },
                {
                    "name": "B3",
                    "midi": 59,
                    "time": 215.25,
                    "velocity": 0.4094488188976378,
                    "duration": 0.375
                },
                {
                    "name": "F3",
                    "midi": 53,
                    "time": 215.625,
                    "velocity": 0.3779527559055118,
                    "duration": 0.375
                },
                {
                    "name": "G2",
                    "midi": 43,
                    "time": 216,
                    "velocity": 0.4330708661417323,
                    "duration": 0.375
                },
                {
                    "name": "F3",
                    "midi": 53,
                    "time": 216.375,
                    "velocity": 0.3700787401574803,
                    "duration": 0.375
                },
                {
                    "name": "B3",
                    "midi": 59,
                    "time": 216.75,
                    "velocity": 0.3937007874015748,
                    "duration": 0.375
                },
                {
                    "name": "F3",
                    "midi": 53,
                    "time": 217.125,
                    "velocity": 0.36220472440944884,
                    "duration": 0.375
                },
                {
                    "name": "G2",
                    "midi": 43,
                    "time": 217.5,
                    "velocity": 0.41732283464566927,
                    "duration": 0.375
                },
                {
                    "name": "D3",
                    "midi": 50,
                    "time": 217.875,
                    "velocity": 0.3543307086614173,
                    "duration": 0.375
                },
                {
                    "name": "F3",
                    "midi": 53,
                    "time": 218.25,
                    "velocity": 0.3779527559055118,
                    "duration": 0.375
                },
                {
                    "name": "D3",
                    "midi": 50,
                    "time": 218.625,
                    "velocity": 0.3464566929133858,
                    "duration": 0.375
                },
                {
                    "name": "G2",
                    "midi": 43,
                    "time": 219,
                    "velocity": 0.4015748031496063,
                    "duration": 0.375
                },
                {
                    "name": "B2",
                    "midi": 47,
                    "time": 219.375,
                    "velocity": 0.33070866141732286,
                    "duration": 0.375
                },
                {
                    "name": "D3",
                    "midi": 50,
                    "time": 219.75,
                    "velocity": 0.3464566929133858,
                    "duration": 0.375
                },
                {
                    "name": "B2",
                    "midi": 47,
                    "time": 220.125,
                    "velocity": 0.31496062992125984,
                    "duration": 0.375
                },
                {
                    "name": "G2",
                    "midi": 43,
                    "time": 220.5,
                    "velocity": 0.3543307086614173,
                    "duration": 0.375
                },
                {
                    "name": "B2",
                    "midi": 47,
                    "time": 220.875,
                    "velocity": 0.29133858267716534,
                    "duration": 0.375
                },
                {
                    "name": "D3",
                    "midi": 50,
                    "time": 221.25,
                    "velocity": 0.30708661417322836,
                    "duration": 0.375
                },
                {
                    "name": "B2",
                    "midi": 47,
                    "time": 221.625,
                    "velocity": 0.2755905511811024,
                    "duration": 0.375
                },
                {
                    "name": "G2",
                    "midi": 43,
                    "time": 222,
                    "velocity": 0.33070866141732286,
                    "duration": 0.375
                },
                {
                    "name": "B2",
                    "midi": 47,
                    "time": 222.375,
                    "velocity": 0.25984251968503935,
                    "duration": 0.375
                },
                {
                    "name": "D3",
                    "midi": 50,
                    "time": 222.75,
                    "velocity": 0.28346456692913385,
                    "duration": 0.36250000000001137
                },
                {
                    "name": "B2",
                    "midi": 47,
                    "time": 223.125,
                    "velocity": 0.25196850393700787,
                    "duration": 0.375
                },
                {
                    "name": "G2",
                    "midi": 43,
                    "time": 223.5,
                    "velocity": 0.29133858267716534,
                    "duration": 0.375
                },
                {
                    "name": "D2",
                    "midi": 38,
                    "time": 223.875,
                    "velocity": 0.23622047244094488,
                    "duration": 0.375
                },
                {
                    "name": "B1",
                    "midi": 35,
                    "time": 224.25,
                    "velocity": 0.2440944881889764,
                    "duration": 0.375
                },
                {
                    "name": "D2",
                    "midi": 38,
                    "time": 224.625,
                    "velocity": 0.2204724409448819,
                    "duration": 0.375
                },
                {
                    "name": "G1",
                    "midi": 31,
                    "time": 225,
                    "velocity": 0.25196850393700787,
                    "duration": 1.4250000000000114
                },
                {
                    "name": "G2",
                    "midi": 43,
                    "time": 226.5,
                    "velocity": 0.1968503937007874,
                    "duration": 1.4250000000000114
                },
                {
                    "name": "G1",
                    "midi": 31,
                    "time": 226.5,
                    "velocity": 0.16535433070866143,
                    "duration": 1.4250000000000114
                },
                {
                    "name": "G2",
                    "midi": 43,
                    "time": 228,
                    "velocity": 0.1968503937007874,
                    "duration": 1.4250000000000114
                },
                {
                    "name": "G1",
                    "midi": 31,
                    "time": 228,
                    "velocity": 0.16535433070866143,
                    "duration": 1.4250000000000114
                },
                {
                    "name": "G#1",
                    "midi": 32,
                    "time": 229.5,
                    "velocity": 0.16535433070866143,
                    "duration": 3
                },
                {
                    "name": "G#2",
                    "midi": 44,
                    "time": 229.5,
                    "velocity": 0.1968503937007874,
                    "duration": 3
                },
                {
                    "name": "C3",
                    "midi": 48,
                    "time": 235.5,
                    "velocity": 0.1889763779527559,
                    "duration": 1.4250000000000114
                },
                {
                    "name": "E3",
                    "midi": 52,
                    "time": 235.5,
                    "velocity": 0.2204724409448819,
                    "duration": 1.4250000000000114
                },
                {
                    "name": "A1",
                    "midi": 33,
                    "time": 235.5,
                    "velocity": 0.14173228346456693,
                    "duration": 1.4250000000000114
                },
                {
                    "name": "A2",
                    "midi": 45,
                    "time": 235.5,
                    "velocity": 0.1732283464566929,
                    "duration": 1.4250000000000114
                },
                {
                    "name": "A2",
                    "midi": 45,
                    "time": 237,
                    "velocity": 0.16535433070866143,
                    "duration": 1.4250000000000114
                },
                {
                    "name": "A1",
                    "midi": 33,
                    "time": 237,
                    "velocity": 0.13385826771653545,
                    "duration": 1.4250000000000114
                },
                {
                    "name": "E3",
                    "midi": 52,
                    "time": 237,
                    "velocity": 0.2047244094488189,
                    "duration": 1.4250000000000114
                },
                {
                    "name": "C3",
                    "midi": 48,
                    "time": 237,
                    "velocity": 0.1732283464566929,
                    "duration": 1.4250000000000114
                },
                {
                    "name": "E3",
                    "midi": 52,
                    "time": 238.5,
                    "velocity": 0.1968503937007874,
                    "duration": 3
                },
                {
                    "name": "C3",
                    "midi": 48,
                    "time": 238.5,
                    "velocity": 0.16535433070866143,
                    "duration": 3
                },
                {
                    "name": "A1",
                    "midi": 33,
                    "time": 238.5,
                    "velocity": 0.13385826771653545,
                    "duration": 3
                },
                {
                    "name": "A2",
                    "midi": 45,
                    "time": 238.5,
                    "velocity": 0.15748031496062992,
                    "duration": 3
                },
                {
                    "name": "F1",
                    "midi": 29,
                    "time": 243,
                    "velocity": 0.16535433070866143,
                    "duration": 1.5
                },
                {
                    "name": "F2",
                    "midi": 41,
                    "time": 243,
                    "velocity": 0.1968503937007874,
                    "duration": 1.5
                },
                {
                    "name": "D3",
                    "midi": 50,
                    "time": 244.5,
                    "velocity": 0.15748031496062992,
                    "duration": 1.5
                },
                {
                    "name": "F3",
                    "midi": 53,
                    "time": 244.5,
                    "velocity": 0.1968503937007874,
                    "duration": 1.5
                },
                {
                    "name": "A3",
                    "midi": 57,
                    "time": 244.5,
                    "velocity": 0.23622047244094488,
                    "duration": 1.5
                },
                {
                    "name": "G1",
                    "midi": 31,
                    "time": 247.5,
                    "velocity": 0.16535433070866143,
                    "duration": 1.5
                },
                {
                    "name": "G2",
                    "midi": 43,
                    "time": 247.5,
                    "velocity": 0.1968503937007874,
                    "duration": 1.5
                },
                {
                    "name": "B2",
                    "midi": 47,
                    "time": 249,
                    "velocity": 0.16535433070866143,
                    "duration": 1.5
                },
                {
                    "name": "D3",
                    "midi": 50,
                    "time": 249,
                    "velocity": 0.1968503937007874,
                    "duration": 1.5
                },
                {
                    "name": "G3",
                    "midi": 55,
                    "time": 249,
                    "velocity": 0.23622047244094488,
                    "duration": 1.5
                }
            ],
            "controlChanges": {
                "7": [
                    {
                        "number": 7,
                        "time": 0,
                        "value": 0.7874015748031497
                    }
                ],
                "10": [
                    {
                        "number": 10,
                        "time": 0,
                        "value": 0.5039370078740157
                    }
                ]
            },
            "id": 2,
            "name": "Piano left",
            "instrumentNumber": 1,
            "instrument": "bright acoustic piano",
            "instrumentFamily": "piano",
            "channelNumber": 0,
            "isPercussion": false
        },
        {
            "startTime": 0,
            "duration": 0,
            "length": 0,
            "notes": [],
            "controlChanges": {
                "64": [
                    {
                        "number": 64,
                        "time": 0.35624999999999996,
                        "value": 1
                    },
                    {
                        "number": 64,
                        "time": 4.6125,
                        "value": 0
                    },
                    {
                        "number": 64,
                        "time": 5.1875,
                        "value": 1
                    },
                    {
                        "number": 64,
                        "time": 9.0625,
                        "value": 0
                    },
                    {
                        "number": 64,
                        "time": 11.43125,
                        "value": 1
                    },
                    {
                        "number": 64,
                        "time": 16.575,
                        "value": 0
                    },
                    {
                        "number": 64,
                        "time": 18.41875,
                        "value": 1
                    },
                    {
                        "number": 64,
                        "time": 22.612499999999997,
                        "value": 0
                    },
                    {
                        "number": 64,
                        "time": 22.943749999999998,
                        "value": 1
                    },
                    {
                        "number": 64,
                        "time": 27.09375,
                        "value": 0
                    },
                    {
                        "number": 64,
                        "time": 29.43125,
                        "value": 1
                    },
                    {
                        "number": 64,
                        "time": 34.574999999999996,
                        "value": 0
                    },
                    {
                        "number": 64,
                        "time": 36.33125,
                        "value": 1
                    },
                    {
                        "number": 64,
                        "time": 40.568749999999994,
                        "value": 0
                    },
                    {
                        "number": 64,
                        "time": 41.20625,
                        "value": 1
                    },
                    {
                        "number": 64,
                        "time": 45.106249999999996,
                        "value": 0
                    },
                    {
                        "number": 64,
                        "time": 46.0875,
                        "value": 1
                    },
                    {
                        "number": 64,
                        "time": 51.5875,
                        "value": 0
                    },
                    {
                        "number": 64,
                        "time": 55.5,
                        "value": 1
                    },
                    {
                        "number": 64,
                        "time": 60.0875,
                        "value": 0
                    },
                    {
                        "number": 64,
                        "time": 64,
                        "value": 1
                    },
                    {
                        "number": 64,
                        "time": 66.0875,
                        "value": 0
                    },
                    {
                        "number": 64,
                        "time": 68.41875,
                        "value": 1
                    },
                    {
                        "number": 64,
                        "time": 70.41875,
                        "value": 0
                    },
                    {
                        "number": 64,
                        "time": 72.3125,
                        "value": 1
                    },
                    {
                        "number": 64,
                        "time": 79.28125,
                        "value": 0
                    },
                    {
                        "number": 64,
                        "time": 118.68125,
                        "value": 1
                    },
                    {
                        "number": 64,
                        "time": 120.05625,
                        "value": 0
                    },
                    {
                        "number": 64,
                        "time": 127.78750000000001,
                        "value": 1
                    },
                    {
                        "number": 64,
                        "time": 129.08125,
                        "value": 0
                    },
                    {
                        "number": 64,
                        "time": 132.4875,
                        "value": 1
                    },
                    {
                        "number": 64,
                        "time": 133.5875,
                        "value": 0
                    },
                    {
                        "number": 64,
                        "time": 136.16875000000002,
                        "value": 1
                    },
                    {
                        "number": 64,
                        "time": 138.41875000000002,
                        "value": 0
                    },
                    {
                        "number": 64,
                        "time": 140.75000000000003,
                        "value": 1
                    },
                    {
                        "number": 64,
                        "time": 142.41875000000002,
                        "value": 0
                    },
                    {
                        "number": 64,
                        "time": 144.41875000000002,
                        "value": 1
                    },
                    {
                        "number": 64,
                        "time": 148.5875,
                        "value": 0
                    },
                    {
                        "number": 64,
                        "time": 149.23125000000002,
                        "value": 1
                    },
                    {
                        "number": 64,
                        "time": 153.07500000000002,
                        "value": 0
                    },
                    {
                        "number": 64,
                        "time": 155.35625000000002,
                        "value": 1
                    },
                    {
                        "number": 64,
                        "time": 159.13125000000002,
                        "value": 0
                    },
                    {
                        "number": 64,
                        "time": 162.60000000000002,
                        "value": 1
                    },
                    {
                        "number": 64,
                        "time": 166.58125,
                        "value": 0
                    },
                    {
                        "number": 64,
                        "time": 166.9875,
                        "value": 1
                    },
                    {
                        "number": 64,
                        "time": 171.10000000000002,
                        "value": 0
                    },
                    {
                        "number": 64,
                        "time": 173.43125000000003,
                        "value": 1
                    },
                    {
                        "number": 64,
                        "time": 180.00000000000003,
                        "value": 0
                    },
                    {
                        "number": 64,
                        "time": 180.53750000000002,
                        "value": 1
                    },
                    {
                        "number": 64,
                        "time": 184.58125,
                        "value": 0
                    },
                    {
                        "number": 64,
                        "time": 185.03750000000002,
                        "value": 1
                    },
                    {
                        "number": 64,
                        "time": 189.10625000000002,
                        "value": 0
                    },
                    {
                        "number": 64,
                        "time": 189.51875,
                        "value": 1
                    },
                    {
                        "number": 64,
                        "time": 193.5875,
                        "value": 0
                    },
                    {
                        "number": 64,
                        "time": 194.09375,
                        "value": 1
                    },
                    {
                        "number": 64,
                        "time": 198.075,
                        "value": 0
                    },
                    {
                        "number": 64,
                        "time": 198.375,
                        "value": 1
                    },
                    {
                        "number": 64,
                        "time": 202.6125,
                        "value": 0
                    },
                    {
                        "number": 64,
                        "time": 202.93125,
                        "value": 1
                    },
                    {
                        "number": 64,
                        "time": 207.06875,
                        "value": 0
                    },
                    {
                        "number": 64,
                        "time": 207.35625,
                        "value": 1
                    },
                    {
                        "number": 64,
                        "time": 211.575,
                        "value": 0
                    },
                    {
                        "number": 64,
                        "time": 211.93124999999998,
                        "value": 1
                    },
                    {
                        "number": 64,
                        "time": 216.075,
                        "value": 0
                    },
                    {
                        "number": 64,
                        "time": 216.25,
                        "value": 1
                    },
                    {
                        "number": 64,
                        "time": 220.59375,
                        "value": 0
                    },
                    {
                        "number": 64,
                        "time": 220.825,
                        "value": 1
                    },
                    {
                        "number": 64,
                        "time": 225.10625,
                        "value": 0
                    },
                    {
                        "number": 64,
                        "time": 234.58749999999998,
                        "value": 1
                    },
                    {
                        "number": 64,
                        "time": 240.74999999999997,
                        "value": 0
                    },
                    {
                        "number": 64,
                        "time": 243.64374999999998,
                        "value": 1
                    },
                    {
                        "number": 64,
                        "time": 245.7875,
                        "value": 0
                    },
                    {
                        "number": 64,
                        "time": 246.64374999999998,
                        "value": 1
                    },
                    {
                        "number": 64,
                        "time": 250.53124999999997,
                        "value": 0
                    }
                ]
            },
            "id": 3,
            "name": "Pedal"
        },
        {
            "startTime": 0,
            "duration": 0,
            "length": 0,
            "notes": [],
            "controlChanges": {},
            "id": 4,
            "name": "Beethoven Sonata No. 21 C major, Waldsteinsonate 2. Movement"
        },
        {
            "startTime": 0,
            "duration": 0,
            "length": 0,
            "notes": [],
            "controlChanges": {},
            "id": 5,
            "name": "Copyright  2003 by Bernd Krueger"
        },
        {
            "startTime": 0,
            "duration": 0,
            "length": 0,
            "notes": [],
            "controlChanges": {},
            "id": 6,
            "name": "http://www.piano-midi.de"
        },
        {
            "startTime": 0,
            "duration": 0,
            "length": 0,
            "notes": [],
            "controlChanges": {},
            "id": 7,
            "name": "Edition: 2012-06-25"
        }
    ]
}